<?xml version="1.0" encoding="UTF-8" standalone="no"?>
<!DOCTYPE svg PUBLIC "-//W3C//DTD SVG 1.1//EN"
 "http://www.w3.org/Graphics/SVG/1.1/DTD/svg11.dtd">
<!-- Generated by graphviz version 2.40.1 (20161225.0304)
 -->
<!-- Title: amd64/l4/sys/segment.h Pages: 1 -->
<svg width="527pt" height="420pt"
 viewBox="0.00 0.00 527.00 420.00" xmlns="http://www.w3.org/2000/svg" xmlns:xlink="http://www.w3.org/1999/xlink">
<g id="graph0" class="graph" transform="scale(1 1) rotate(0) translate(4 416)">
<title>amd64/l4/sys/segment.h</title>
<polygon fill="#ffffff" stroke="transparent" points="-4,4 -4,-416 523,-416 523,4 -4,4"/>
<!-- Node0 -->
<g id="node1" class="node">
<title>Node0</title>
<polygon fill="#bfbfbf" stroke="#000000" points="222.5,-392.5 222.5,-411.5 353.5,-411.5 353.5,-392.5 222.5,-392.5"/>
<text text-anchor="middle" x="288" y="-399.5" font-family="Helvetica,sans-Serif" font-size="10.00" fill="#000000">amd64/l4/sys/segment.h</text>
</g>
<!-- Node1 -->
<g id="node2" class="node">
<title>Node1</title>
<g id="a_node2"><a xlink:href="l4_2sys_2ipc_8h.html" target="_top" xlink:title="Common IPC interface. ">
<polygon fill="#ffffff" stroke="#000000" points="254,-280.5 254,-299.5 322,-299.5 322,-280.5 254,-280.5"/>
<text text-anchor="middle" x="288" y="-287.5" font-family="Helvetica,sans-Serif" font-size="10.00" fill="#000000">l4/sys/ipc.h</text>
</a>
</g>
</g>
<!-- Node0&#45;&gt;Node1 -->
<g id="edge1" class="edge">
<title>Node0&#45;&gt;Node1</title>
<path fill="none" stroke="#191970" d="M288,-392.4509C288,-374.184 288,-333.9553 288,-309.6976"/>
<polygon fill="#191970" stroke="#191970" points="291.5001,-309.5249 288,-299.5249 284.5001,-309.5249 291.5001,-309.5249"/>
</g>
<!-- Node11 -->
<g id="node12" class="node">
<title>Node11</title>
<g id="a_node12"><a xlink:href="l4_2sys_2task_8h.html" target="_top" xlink:title="Common task related definitions. ">
<polygon fill="#ffffff" stroke="#000000" points="186,-336.5 186,-355.5 260,-355.5 260,-336.5 186,-336.5"/>
<text text-anchor="middle" x="223" y="-343.5" font-family="Helvetica,sans-Serif" font-size="10.00" fill="#000000">l4/sys/task.h</text>
</a>
</g>
</g>
<!-- Node0&#45;&gt;Node11 -->
<g id="edge19" class="edge">
<title>Node0&#45;&gt;Node11</title>
<path fill="none" stroke="#191970" d="M276.6779,-392.2455C267.0777,-383.9746 253.1108,-371.9416 241.8305,-362.2232"/>
<polygon fill="#191970" stroke="#191970" points="244.053,-359.5182 234.1924,-355.6427 239.484,-364.8214 244.053,-359.5182"/>
</g>
<!-- Node12 -->
<g id="node13" class="node">
<title>Node12</title>
<g id="a_node13"><a xlink:href="l4_2sys_2thread_8h.html" target="_top" xlink:title="Common thread related definitions. ">
<polygon fill="#ffffff" stroke="#000000" points="316,-336.5 316,-355.5 402,-355.5 402,-336.5 316,-336.5"/>
<text text-anchor="middle" x="359" y="-343.5" font-family="Helvetica,sans-Serif" font-size="10.00" fill="#000000">l4/sys/thread.h</text>
</a>
</g>
</g>
<!-- Node0&#45;&gt;Node12 -->
<g id="edge23" class="edge">
<title>Node0&#45;&gt;Node12</title>
<path fill="none" stroke="#191970" d="M300.3673,-392.2455C310.9554,-383.8943 326.4064,-371.7076 338.7893,-361.9408"/>
<polygon fill="#191970" stroke="#191970" points="341.0903,-364.5837 346.7745,-355.6427 336.7553,-359.0875 341.0903,-364.5837"/>
</g>
<!-- Node2 -->
<g id="node3" class="node">
<title>Node2</title>
<g id="a_node3"><a xlink:href="l4_2sys_2types_8h.html" target="_top" xlink:title="Common L4 ABI Data Types. ">
<polygon fill="#ffffff" stroke="#000000" points="183,-168.5 183,-187.5 263,-187.5 263,-168.5 183,-168.5"/>
<text text-anchor="middle" x="223" y="-175.5" font-family="Helvetica,sans-Serif" font-size="10.00" fill="#000000">l4/sys/types.h</text>
</a>
</g>
</g>
<!-- Node1&#45;&gt;Node2 -->
<g id="edge2" class="edge">
<title>Node1&#45;&gt;Node2</title>
<path fill="none" stroke="#191970" d="M275.2977,-280.3768C264.9196,-271.8772 250.6059,-258.5924 242,-244 233.5768,-229.7174 228.6983,-211.4765 225.9989,-197.7922"/>
<polygon fill="#191970" stroke="#191970" points="229.3799,-196.8061 224.214,-187.556 222.4839,-198.0086 229.3799,-196.8061"/>
</g>
<!-- Node9 -->
<g id="node10" class="node">
<title>Node9</title>
<g id="a_node10"><a xlink:href="l4_2sys_2utcb_8h.html" target="_top" xlink:title="UTCB definitions. ">
<polygon fill="#ffffff" stroke="#000000" points="251,-224.5 251,-243.5 325,-243.5 325,-224.5 251,-224.5"/>
<text text-anchor="middle" x="288" y="-231.5" font-family="Helvetica,sans-Serif" font-size="10.00" fill="#000000">l4/sys/utcb.h</text>
</a>
</g>
</g>
<!-- Node1&#45;&gt;Node9 -->
<g id="edge13" class="edge">
<title>Node1&#45;&gt;Node9</title>
<path fill="none" stroke="#191970" d="M288,-280.2455C288,-272.9382 288,-262.6944 288,-253.7046"/>
<polygon fill="#191970" stroke="#191970" points="291.5001,-253.6426 288,-243.6427 284.5001,-253.6427 291.5001,-253.6426"/>
</g>
<!-- Node10 -->
<g id="node11" class="node">
<title>Node10</title>
<g id="a_node11"><a xlink:href="err_8h.html" target="_top" xlink:title="Error codes. ">
<polygon fill="#ffffff" stroke="#000000" points="451,-168.5 451,-187.5 519,-187.5 519,-168.5 451,-168.5"/>
<text text-anchor="middle" x="485" y="-175.5" font-family="Helvetica,sans-Serif" font-size="10.00" fill="#000000">l4/sys/err.h</text>
</a>
</g>
</g>
<!-- Node1&#45;&gt;Node10 -->
<g id="edge17" class="edge">
<title>Node1&#45;&gt;Node10</title>
<path fill="none" stroke="#191970" d="M304.7961,-280.4509C339.3253,-260.8201 418.467,-215.8259 459.4125,-192.5472"/>
<polygon fill="#191970" stroke="#191970" points="461.283,-195.51 468.2464,-187.5249 457.8233,-189.4247 461.283,-195.51"/>
</g>
<!-- Node3 -->
<g id="node4" class="node">
<title>Node3</title>
<g id="a_node4"><a xlink:href="l4_2sys_2l4int_8h.html" target="_top" xlink:title="Fixed sized integer types, generic version. ">
<polygon fill="#ffffff" stroke="#000000" points="0,-56.5 0,-75.5 74,-75.5 74,-56.5 0,-56.5"/>
<text text-anchor="middle" x="37" y="-63.5" font-family="Helvetica,sans-Serif" font-size="10.00" fill="#000000">l4/sys/l4int.h</text>
</a>
</g>
</g>
<!-- Node2&#45;&gt;Node3 -->
<g id="edge3" class="edge">
<title>Node2&#45;&gt;Node3</title>
<path fill="none" stroke="#191970" d="M182.7698,-174.909C128.5693,-169.8134 36.5017,-157.5578 16,-132 4.8904,-118.1506 13.5827,-98.3206 22.93,-84.0165"/>
<polygon fill="#191970" stroke="#191970" points="26.0204,-85.7102 28.9656,-75.5329 20.3166,-81.6522 26.0204,-85.7102"/>
</g>
<!-- Node4 -->
<g id="node5" class="node">
<title>Node4</title>
<g id="a_node5"><a xlink:href="compiler_8h.html" target="_top" xlink:title="L4 compiler related defines. ">
<polygon fill="#ffffff" stroke="#000000" points="293.5,-56.5 293.5,-75.5 388.5,-75.5 388.5,-56.5 293.5,-56.5"/>
<text text-anchor="middle" x="341" y="-63.5" font-family="Helvetica,sans-Serif" font-size="10.00" fill="#000000">l4/sys/compiler.h</text>
</a>
</g>
</g>
<!-- Node2&#45;&gt;Node4 -->
<g id="edge4" class="edge">
<title>Node2&#45;&gt;Node4</title>
<path fill="none" stroke="#191970" d="M229.8131,-168.4108C239.6093,-154.9761 258.6352,-130.1625 278,-112 290.082,-100.6682 305.0002,-89.664 317.2865,-81.2611"/>
<polygon fill="#191970" stroke="#191970" points="319.3274,-84.1067 325.6895,-75.6347 315.4328,-78.2902 319.3274,-84.1067"/>
</g>
<!-- Node6 -->
<g id="node7" class="node">
<title>Node6</title>
<g id="a_node7"><a xlink:href="l4_2sys_2consts_8h.html" target="_top" xlink:title="Common constants. ">
<polygon fill="#ffffff" stroke="#000000" points="145,-112.5 145,-131.5 231,-131.5 231,-112.5 145,-112.5"/>
<text text-anchor="middle" x="188" y="-119.5" font-family="Helvetica,sans-Serif" font-size="10.00" fill="#000000">l4/sys/consts.h</text>
</a>
</g>
</g>
<!-- Node2&#45;&gt;Node6 -->
<g id="edge6" class="edge">
<title>Node2&#45;&gt;Node6</title>
<path fill="none" stroke="#191970" d="M216.9035,-168.2455C212.0855,-160.5367 205.2249,-149.5598 199.3968,-140.2348"/>
<polygon fill="#191970" stroke="#191970" points="202.2947,-138.2677 194.0267,-131.6427 196.3587,-141.9777 202.2947,-138.2677"/>
</g>
<!-- Node7 -->
<g id="node8" class="node">
<title>Node7</title>
<g id="a_node8"><a xlink:href="____l4__fpage_8h_source.html" target="_top" xlink:title="l4/sys/__l4_fpage.h">
<polygon fill="#ffffff" stroke="#000000" points="287,-112.5 287,-131.5 395,-131.5 395,-112.5 287,-112.5"/>
<text text-anchor="middle" x="341" y="-119.5" font-family="Helvetica,sans-Serif" font-size="10.00" fill="#000000">l4/sys/__l4_fpage.h</text>
</a>
</g>
</g>
<!-- Node2&#45;&gt;Node7 -->
<g id="edge9" class="edge">
<title>Node2&#45;&gt;Node7</title>
<path fill="none" stroke="#191970" d="M243.2849,-168.3733C262.1421,-159.4241 290.446,-145.9917 311.7455,-135.8835"/>
<polygon fill="#191970" stroke="#191970" points="313.4461,-138.9506 320.9798,-131.5011 310.4449,-132.6266 313.4461,-138.9506"/>
</g>
<!-- Node8 -->
<g id="node9" class="node">
<title>Node8</title>
<g id="a_node9"><a xlink:href="____timeout_8h_source.html" target="_top" xlink:title="l4/sys/__timeout.h">
<polygon fill="#ffffff" stroke="#000000" points="25.5,-112.5 25.5,-131.5 126.5,-131.5 126.5,-112.5 25.5,-112.5"/>
<text text-anchor="middle" x="76" y="-119.5" font-family="Helvetica,sans-Serif" font-size="10.00" fill="#000000">l4/sys/__timeout.h</text>
</a>
</g>
</g>
<!-- Node2&#45;&gt;Node8 -->
<g id="edge11" class="edge">
<title>Node2&#45;&gt;Node8</title>
<path fill="none" stroke="#191970" d="M197.7298,-168.3733C173.6034,-159.1822 137.0638,-145.2624 110.3123,-135.0713"/>
<polygon fill="#191970" stroke="#191970" points="111.5313,-131.7904 100.9404,-131.5011 109.0393,-138.3318 111.5313,-131.7904"/>
</g>
<!-- Node5 -->
<g id="node6" class="node">
<title>Node5</title>
<polygon fill="#ffffff" stroke="#bfbfbf" points="296.5,-.5 296.5,-19.5 385.5,-19.5 385.5,-.5 296.5,-.5"/>
<text text-anchor="middle" x="341" y="-7.5" font-family="Helvetica,sans-Serif" font-size="10.00" fill="#000000">l4/sys/linkage.h</text>
</g>
<!-- Node4&#45;&gt;Node5 -->
<g id="edge5" class="edge">
<title>Node4&#45;&gt;Node5</title>
<path fill="none" stroke="#191970" d="M341,-56.2455C341,-48.9382 341,-38.6944 341,-29.7046"/>
<polygon fill="#191970" stroke="#191970" points="344.5001,-29.6426 341,-19.6427 337.5001,-29.6427 344.5001,-29.6426"/>
</g>
<!-- Node6&#45;&gt;Node3 -->
<g id="edge8" class="edge">
<title>Node6&#45;&gt;Node3</title>
<path fill="none" stroke="#191970" d="M162.0422,-112.3733C137.2593,-103.1822 99.7254,-89.2624 72.246,-79.0713"/>
<polygon fill="#191970" stroke="#191970" points="73.2121,-75.6968 62.6191,-75.5011 70.7781,-82.26 73.2121,-75.6968"/>
</g>
<!-- Node6&#45;&gt;Node4 -->
<g id="edge7" class="edge">
<title>Node6&#45;&gt;Node4</title>
<path fill="none" stroke="#191970" d="M214.3016,-112.3733C239.4128,-103.1822 277.4438,-89.2624 305.2872,-79.0713"/>
<polygon fill="#191970" stroke="#191970" points="306.8538,-82.2251 315.0416,-75.5011 304.4478,-75.6516 306.8538,-82.2251"/>
</g>
<!-- Node7&#45;&gt;Node4 -->
<g id="edge10" class="edge">
<title>Node7&#45;&gt;Node4</title>
<path fill="none" stroke="#191970" d="M341,-112.2455C341,-104.9382 341,-94.6944 341,-85.7046"/>
<polygon fill="#191970" stroke="#191970" points="344.5001,-85.6426 341,-75.6427 337.5001,-85.6427 344.5001,-85.6426"/>
</g>
<!-- Node8&#45;&gt;Node3 -->
<g id="edge12" class="edge">
<title>Node8&#45;&gt;Node3</title>
<path fill="none" stroke="#191970" d="M69.2067,-112.2455C63.7822,-104.4564 56.0339,-93.3308 49.4967,-83.9439"/>
<polygon fill="#191970" stroke="#191970" points="52.3025,-81.8485 43.7154,-75.6427 46.5583,-85.849 52.3025,-81.8485"/>
</g>
<!-- Node9&#45;&gt;Node2 -->
<g id="edge14" class="edge">
<title>Node9&#45;&gt;Node2</title>
<path fill="none" stroke="#191970" d="M276.6779,-224.2455C267.0777,-215.9746 253.1108,-203.9416 241.8305,-194.2232"/>
<polygon fill="#191970" stroke="#191970" points="244.053,-191.5182 234.1924,-187.6427 239.484,-196.8214 244.053,-191.5182"/>
</g>
<!-- Node9&#45;&gt;Node3 -->
<g id="edge16" class="edge">
<title>Node9&#45;&gt;Node3</title>
<path fill="none" stroke="#191970" d="M250.815,-226.0212C181.2369,-210.2565 35.7813,-173.0661 7,-132 -3.7488,-116.6633 8.1328,-96.8579 19.9688,-82.9598"/>
<polygon fill="#191970" stroke="#191970" points="22.5917,-85.278 26.7609,-75.5379 17.4277,-80.5521 22.5917,-85.278"/>
</g>
<!-- Node9&#45;&gt;Node4 -->
<g id="edge15" class="edge">
<title>Node9&#45;&gt;Node4</title>
<path fill="none" stroke="#191970" d="M306.8846,-224.2533C334.2917,-208.9026 383.9967,-176.2257 404,-132 413.4964,-111.0041 391.8567,-92.558 371.4008,-80.5437"/>
<polygon fill="#191970" stroke="#191970" points="372.9502,-77.4014 362.5019,-75.6451 369.5745,-83.5337 372.9502,-77.4014"/>
</g>
<!-- Node10&#45;&gt;Node4 -->
<g id="edge18" class="edge">
<title>Node10&#45;&gt;Node4</title>
<path fill="none" stroke="#191970" d="M480.0019,-168.3182C472.3661,-154.3195 456.5969,-128.3203 437,-112 420.0692,-97.9001 398.0877,-86.9566 379.4316,-79.2875"/>
<polygon fill="#191970" stroke="#191970" points="380.6099,-75.9899 370.0231,-75.5761 378.0412,-82.5015 380.6099,-75.9899"/>
</g>
<!-- Node11&#45;&gt;Node1 -->
<g id="edge22" class="edge">
<title>Node11&#45;&gt;Node1</title>
<path fill="none" stroke="#191970" d="M234.3221,-336.2455C243.9223,-327.9746 257.8892,-315.9416 269.1695,-306.2232"/>
<polygon fill="#191970" stroke="#191970" points="271.516,-308.8214 276.8076,-299.6427 266.947,-303.5182 271.516,-308.8214"/>
</g>
<!-- Node11&#45;&gt;Node2 -->
<g id="edge20" class="edge">
<title>Node11&#45;&gt;Node2</title>
<path fill="none" stroke="#191970" d="M223,-336.4862C223,-309.9293 223,-234.5651 223,-198.1655"/>
<polygon fill="#191970" stroke="#191970" points="226.5001,-197.8278 223,-187.8279 219.5001,-197.8279 226.5001,-197.8278"/>
</g>
<!-- Node11&#45;&gt;Node9 -->
<g id="edge21" class="edge">
<title>Node11&#45;&gt;Node9</title>
<path fill="none" stroke="#191970" d="M224.8209,-336.4981C227.665,-323.1672 234.007,-298.476 245,-280 251.4388,-269.1784 260.7889,-258.7822 269.1268,-250.6195"/>
<polygon fill="#191970" stroke="#191970" points="271.7805,-252.9292 276.6828,-243.5367 266.9933,-247.8221 271.7805,-252.9292"/>
</g>
<!-- Node12&#45;&gt;Node1 -->
<g id="edge26" class="edge">
<title>Node12&#45;&gt;Node1</title>
<path fill="none" stroke="#191970" d="M346.6327,-336.2455C336.0446,-327.8943 320.5936,-315.7076 308.2107,-305.9408"/>
<polygon fill="#191970" stroke="#191970" points="310.2447,-303.0875 300.2255,-299.6427 305.9097,-308.5837 310.2447,-303.0875"/>
</g>
<!-- Node12&#45;&gt;Node2 -->
<g id="edge24" class="edge">
<title>Node12&#45;&gt;Node2</title>
<path fill="none" stroke="#191970" d="M360.0117,-336.3566C361.8265,-313.7125 363.0632,-256.5995 334,-224 318.1099,-206.1765 294.2371,-195.0952 272.6974,-188.2902"/>
<polygon fill="#191970" stroke="#191970" points="273.5824,-184.9025 263.002,-185.4557 271.618,-191.6213 273.5824,-184.9025"/>
</g>
<!-- Node12&#45;&gt;Node9 -->
<g id="edge25" class="edge">
<title>Node12&#45;&gt;Node9</title>
<path fill="none" stroke="#191970" d="M356.004,-336.0731C351.6971,-322.6742 342.9404,-298.3662 331,-280 324.1364,-269.4427 314.7438,-259.073 306.4875,-250.8594"/>
<polygon fill="#191970" stroke="#191970" points="308.6774,-248.1099 299.0396,-243.7094 303.8297,-253.1596 308.6774,-248.1099"/>
</g>
</g>
</svg>
