<?xml version="1.0" encoding="UTF-8" standalone="no"?>
<!DOCTYPE svg PUBLIC "-//W3C//DTD SVG 1.1//EN"
 "http://www.w3.org/Graphics/SVG/1.1/DTD/svg11.dtd">
<!-- Generated by graphviz version 2.40.1 (20161225.0304)
 -->
<!-- Title: amd64/l4/util/util.h Pages: 1 -->
<svg width="558pt" height="364pt"
 viewBox="0.00 0.00 558.18 364.00" xmlns="http://www.w3.org/2000/svg" xmlns:xlink="http://www.w3.org/1999/xlink">
<g id="graph0" class="graph" transform="scale(1 1) rotate(0) translate(4 360)">
<title>amd64/l4/util/util.h</title>
<polygon fill="#ffffff" stroke="transparent" points="-4,4 -4,-360 554.1798,-360 554.1798,4 -4,4"/>
<!-- Node0 -->
<g id="node1" class="node">
<title>Node0</title>
<polygon fill="#bfbfbf" stroke="#000000" points="366.1798,-336.5 366.1798,-355.5 466.1798,-355.5 466.1798,-336.5 366.1798,-336.5"/>
<text text-anchor="middle" x="416.1798" y="-343.5" font-family="Helvetica,sans-Serif" font-size="10.00" fill="#000000">amd64/l4/util/util.h</text>
</g>
<!-- Node1 -->
<g id="node2" class="node">
<title>Node1</title>
<g id="a_node2"><a xlink:href="l4_2sys_2types_8h.html" target="_top" xlink:title="Common L4 ABI Data Types. ">
<polygon fill="#ffffff" stroke="#000000" points="246.1798,-168.5 246.1798,-187.5 326.1798,-187.5 326.1798,-168.5 246.1798,-168.5"/>
<text text-anchor="middle" x="286.1798" y="-175.5" font-family="Helvetica,sans-Serif" font-size="10.00" fill="#000000">l4/sys/types.h</text>
</a>
</g>
</g>
<!-- Node0&#45;&gt;Node1 -->
<g id="edge1" class="edge">
<title>Node0&#45;&gt;Node1</title>
<path fill="none" stroke="#191970" d="M401.179,-336.3164C377.2757,-320.1077 330.6503,-285.1764 305.1798,-244 296.3697,-229.7574 291.5076,-211.2763 288.9134,-197.4948"/>
<polygon fill="#191970" stroke="#191970" points="292.3657,-196.9187 287.2869,-187.6206 285.4588,-198.0565 292.3657,-196.9187"/>
</g>
<!-- Node3 -->
<g id="node4" class="node">
<title>Node3</title>
<g id="a_node4"><a xlink:href="compiler_8h.html" target="_top" xlink:title="L4 compiler related defines. ">
<polygon fill="#ffffff" stroke="#000000" points="361.6798,-56.5 361.6798,-75.5 456.6798,-75.5 456.6798,-56.5 361.6798,-56.5"/>
<text text-anchor="middle" x="409.1798" y="-63.5" font-family="Helvetica,sans-Serif" font-size="10.00" fill="#000000">l4/sys/compiler.h</text>
</a>
</g>
</g>
<!-- Node0&#45;&gt;Node3 -->
<g id="edge12" class="edge">
<title>Node0&#45;&gt;Node3</title>
<path fill="none" stroke="#191970" d="M445.2558,-336.4277C484.6662,-321.4059 550.1798,-288.2726 550.1798,-234 550.1798,-234 550.1798,-234 550.1798,-178 550.1798,-126.6649 492.1657,-95.1046 450.5629,-79.0721"/>
<polygon fill="#191970" stroke="#191970" points="451.7681,-75.7862 441.1748,-75.6062 449.3438,-82.353 451.7681,-75.7862"/>
</g>
<!-- Node8 -->
<g id="node9" class="node">
<title>Node8</title>
<g id="a_node9"><a xlink:href="l4_2sys_2ipc_8h.html" target="_top" xlink:title="Common IPC interface. ">
<polygon fill="#ffffff" stroke="#000000" points="382.1798,-280.5 382.1798,-299.5 450.1798,-299.5 450.1798,-280.5 382.1798,-280.5"/>
<text text-anchor="middle" x="416.1798" y="-287.5" font-family="Helvetica,sans-Serif" font-size="10.00" fill="#000000">l4/sys/ipc.h</text>
</a>
</g>
</g>
<!-- Node0&#45;&gt;Node8 -->
<g id="edge13" class="edge">
<title>Node0&#45;&gt;Node8</title>
<path fill="none" stroke="#191970" d="M416.1798,-336.2455C416.1798,-328.9382 416.1798,-318.6944 416.1798,-309.7046"/>
<polygon fill="#191970" stroke="#191970" points="419.6799,-309.6426 416.1798,-299.6427 412.6799,-309.6427 419.6799,-309.6426"/>
</g>
<!-- Node2 -->
<g id="node3" class="node">
<title>Node2</title>
<g id="a_node3"><a xlink:href="l4_2sys_2l4int_8h.html" target="_top" xlink:title="Fixed sized integer types, generic version. ">
<polygon fill="#ffffff" stroke="#000000" points="68.1798,-56.5 68.1798,-75.5 142.1798,-75.5 142.1798,-56.5 68.1798,-56.5"/>
<text text-anchor="middle" x="105.1798" y="-63.5" font-family="Helvetica,sans-Serif" font-size="10.00" fill="#000000">l4/sys/l4int.h</text>
</a>
</g>
</g>
<!-- Node1&#45;&gt;Node2 -->
<g id="edge2" class="edge">
<title>Node1&#45;&gt;Node2</title>
<path fill="none" stroke="#191970" d="M246.1347,-168.4351C220.8489,-161.1372 188.3273,-149.3469 163.1798,-132 144.4628,-119.0889 127.8781,-98.8365 117.2884,-84.1695"/>
<polygon fill="#191970" stroke="#191970" points="120.095,-82.0752 111.5041,-75.8746 114.3532,-86.0792 120.095,-82.0752"/>
</g>
<!-- Node1&#45;&gt;Node3 -->
<g id="edge3" class="edge">
<title>Node1&#45;&gt;Node3</title>
<path fill="none" stroke="#191970" d="M286.4787,-168.2794C287.4092,-154.2324 291.0708,-128.1735 305.1798,-112 318.7737,-96.417 338.6536,-85.8849 357.4001,-78.8794"/>
<polygon fill="#191970" stroke="#191970" points="358.7594,-82.1125 367.0607,-75.5293 356.4659,-75.4989 358.7594,-82.1125"/>
</g>
<!-- Node5 -->
<g id="node6" class="node">
<title>Node5</title>
<g id="a_node6"><a xlink:href="l4_2sys_2consts_8h.html" target="_top" xlink:title="Common constants. ">
<polygon fill="#ffffff" stroke="#000000" points="172.1798,-112.5 172.1798,-131.5 258.1798,-131.5 258.1798,-112.5 172.1798,-112.5"/>
<text text-anchor="middle" x="215.1798" y="-119.5" font-family="Helvetica,sans-Serif" font-size="10.00" fill="#000000">l4/sys/consts.h</text>
</a>
</g>
</g>
<!-- Node1&#45;&gt;Node5 -->
<g id="edge5" class="edge">
<title>Node1&#45;&gt;Node5</title>
<path fill="none" stroke="#191970" d="M273.8125,-168.2455C263.2243,-159.8943 247.7733,-147.7076 235.3904,-137.9408"/>
<polygon fill="#191970" stroke="#191970" points="237.4245,-135.0875 227.4053,-131.6427 233.0895,-140.5837 237.4245,-135.0875"/>
</g>
<!-- Node6 -->
<g id="node7" class="node">
<title>Node6</title>
<g id="a_node7"><a xlink:href="____l4__fpage_8h_source.html" target="_top" xlink:title="l4/sys/__l4_fpage.h">
<polygon fill="#ffffff" stroke="#000000" points="314.1798,-112.5 314.1798,-131.5 422.1798,-131.5 422.1798,-112.5 314.1798,-112.5"/>
<text text-anchor="middle" x="368.1798" y="-119.5" font-family="Helvetica,sans-Serif" font-size="10.00" fill="#000000">l4/sys/__l4_fpage.h</text>
</a>
</g>
</g>
<!-- Node1&#45;&gt;Node6 -->
<g id="edge8" class="edge">
<title>Node1&#45;&gt;Node6</title>
<path fill="none" stroke="#191970" d="M300.4631,-168.2455C312.9268,-159.7337 331.2249,-147.2375 345.6589,-137.3801"/>
<polygon fill="#191970" stroke="#191970" points="347.776,-140.1726 354.0601,-131.6427 343.8282,-134.392 347.776,-140.1726"/>
</g>
<!-- Node7 -->
<g id="node8" class="node">
<title>Node7</title>
<g id="a_node8"><a xlink:href="____timeout_8h_source.html" target="_top" xlink:title="l4/sys/__timeout.h">
<polygon fill="#ffffff" stroke="#000000" points="14.6798,-112.5 14.6798,-131.5 115.6798,-131.5 115.6798,-112.5 14.6798,-112.5"/>
<text text-anchor="middle" x="65.1798" y="-119.5" font-family="Helvetica,sans-Serif" font-size="10.00" fill="#000000">l4/sys/__timeout.h</text>
</a>
</g>
</g>
<!-- Node1&#45;&gt;Node7 -->
<g id="edge10" class="edge">
<title>Node1&#45;&gt;Node7</title>
<path fill="none" stroke="#191970" d="M248.4396,-168.4369C210.935,-158.9335 153.2999,-144.3291 112.6973,-134.0407"/>
<polygon fill="#191970" stroke="#191970" points="113.3176,-130.5873 102.7642,-131.5237 111.5981,-137.3728 113.3176,-130.5873"/>
</g>
<!-- Node4 -->
<g id="node5" class="node">
<title>Node4</title>
<polygon fill="#ffffff" stroke="#bfbfbf" points="364.6798,-.5 364.6798,-19.5 453.6798,-19.5 453.6798,-.5 364.6798,-.5"/>
<text text-anchor="middle" x="409.1798" y="-7.5" font-family="Helvetica,sans-Serif" font-size="10.00" fill="#000000">l4/sys/linkage.h</text>
</g>
<!-- Node3&#45;&gt;Node4 -->
<g id="edge4" class="edge">
<title>Node3&#45;&gt;Node4</title>
<path fill="none" stroke="#191970" d="M409.1798,-56.2455C409.1798,-48.9382 409.1798,-38.6944 409.1798,-29.7046"/>
<polygon fill="#191970" stroke="#191970" points="412.6799,-29.6426 409.1798,-19.6427 405.6799,-29.6427 412.6799,-29.6426"/>
</g>
<!-- Node5&#45;&gt;Node2 -->
<g id="edge7" class="edge">
<title>Node5&#45;&gt;Node2</title>
<path fill="none" stroke="#191970" d="M196.0192,-112.2455C178.6686,-103.4125 152.8897,-90.2887 133.2215,-80.2758"/>
<polygon fill="#191970" stroke="#191970" points="134.6203,-77.0605 124.1207,-75.6427 131.4445,-83.2986 134.6203,-77.0605"/>
</g>
<!-- Node5&#45;&gt;Node3 -->
<g id="edge6" class="edge">
<title>Node5&#45;&gt;Node3</title>
<path fill="none" stroke="#191970" d="M248.5295,-112.3733C281.2077,-102.9404 331.1415,-88.5265 366.6567,-78.2747"/>
<polygon fill="#191970" stroke="#191970" points="367.6281,-81.6373 376.2651,-75.5011 365.6867,-74.9119 367.6281,-81.6373"/>
</g>
<!-- Node6&#45;&gt;Node3 -->
<g id="edge9" class="edge">
<title>Node6&#45;&gt;Node3</title>
<path fill="none" stroke="#191970" d="M375.3214,-112.2455C381.0242,-104.4564 389.1697,-93.3308 396.0422,-83.9439"/>
<polygon fill="#191970" stroke="#191970" points="399.0365,-85.7789 402.1199,-75.6427 393.3885,-81.6437 399.0365,-85.7789"/>
</g>
<!-- Node7&#45;&gt;Node2 -->
<g id="edge11" class="edge">
<title>Node7&#45;&gt;Node2</title>
<path fill="none" stroke="#191970" d="M72.1472,-112.2455C77.7109,-104.4564 85.6578,-93.3308 92.3626,-83.9439"/>
<polygon fill="#191970" stroke="#191970" points="95.3278,-85.8144 98.2921,-75.6427 89.6316,-81.7457 95.3278,-85.8144"/>
</g>
<!-- Node8&#45;&gt;Node1 -->
<g id="edge14" class="edge">
<title>Node8&#45;&gt;Node1</title>
<path fill="none" stroke="#191970" d="M415.9309,-280.2352C415.0628,-266.133 411.4783,-240.0061 397.1798,-224 381.3321,-206.2599 357.5779,-195.1968 336.1056,-188.3824"/>
<polygon fill="#191970" stroke="#191970" points="337.0183,-185.0026 326.4372,-185.5416 335.045,-191.7187 337.0183,-185.0026"/>
</g>
<!-- Node9 -->
<g id="node10" class="node">
<title>Node9</title>
<g id="a_node10"><a xlink:href="l4_2sys_2utcb_8h.html" target="_top" xlink:title="UTCB definitions. ">
<polygon fill="#ffffff" stroke="#000000" points="314.1798,-224.5 314.1798,-243.5 388.1798,-243.5 388.1798,-224.5 314.1798,-224.5"/>
<text text-anchor="middle" x="351.1798" y="-231.5" font-family="Helvetica,sans-Serif" font-size="10.00" fill="#000000">l4/sys/utcb.h</text>
</a>
</g>
</g>
<!-- Node8&#45;&gt;Node9 -->
<g id="edge15" class="edge">
<title>Node8&#45;&gt;Node9</title>
<path fill="none" stroke="#191970" d="M404.8576,-280.2455C395.2574,-271.9746 381.2906,-259.9416 370.0103,-250.2232"/>
<polygon fill="#191970" stroke="#191970" points="372.2327,-247.5182 362.3721,-243.6427 367.6638,-252.8214 372.2327,-247.5182"/>
</g>
<!-- Node10 -->
<g id="node11" class="node">
<title>Node10</title>
<g id="a_node11"><a xlink:href="err_8h.html" target="_top" xlink:title="Error codes. ">
<polygon fill="#ffffff" stroke="#000000" points="454.1798,-168.5 454.1798,-187.5 522.1798,-187.5 522.1798,-168.5 454.1798,-168.5"/>
<text text-anchor="middle" x="488.1798" y="-175.5" font-family="Helvetica,sans-Serif" font-size="10.00" fill="#000000">l4/sys/err.h</text>
</a>
</g>
</g>
<!-- Node8&#45;&gt;Node10 -->
<g id="edge19" class="edge">
<title>Node8&#45;&gt;Node10</title>
<path fill="none" stroke="#191970" d="M422.3184,-280.4509C434.3272,-261.7707 461.1002,-220.1238 476.5594,-196.0761"/>
<polygon fill="#191970" stroke="#191970" points="479.5931,-197.8294 482.0566,-187.5249 473.7049,-194.044 479.5931,-197.8294"/>
</g>
<!-- Node9&#45;&gt;Node1 -->
<g id="edge16" class="edge">
<title>Node9&#45;&gt;Node1</title>
<path fill="none" stroke="#191970" d="M339.8576,-224.2455C330.2574,-215.9746 316.2906,-203.9416 305.0103,-194.2232"/>
<polygon fill="#191970" stroke="#191970" points="307.2327,-191.5182 297.3721,-187.6427 302.6638,-196.8214 307.2327,-191.5182"/>
</g>
<!-- Node9&#45;&gt;Node2 -->
<g id="edge18" class="edge">
<title>Node9&#45;&gt;Node2</title>
<path fill="none" stroke="#191970" d="M314.1371,-228.6927C232.7689,-216.1984 42.6826,-182.1543 5.1798,-132 -13.4708,-107.0578 23.8986,-88.7153 58.1412,-77.7843"/>
<polygon fill="#191970" stroke="#191970" points="59.5734,-81.0078 68.1334,-74.7646 57.5484,-74.3071 59.5734,-81.0078"/>
</g>
<!-- Node9&#45;&gt;Node3 -->
<g id="edge17" class="edge">
<title>Node9&#45;&gt;Node3</title>
<path fill="none" stroke="#191970" d="M362.4879,-224.434C381.0869,-207.869 417.4409,-171.7791 431.1798,-132 436.7005,-116.0152 429.6012,-97.7726 422.0351,-84.5236"/>
<polygon fill="#191970" stroke="#191970" points="424.8878,-82.4841 416.6171,-75.8624 418.9533,-86.1965 424.8878,-82.4841"/>
</g>
<!-- Node10&#45;&gt;Node3 -->
<g id="edge20" class="edge">
<title>Node10&#45;&gt;Node3</title>
<path fill="none" stroke="#191970" d="M486.3234,-168.3013C483.3754,-154.7366 476.6394,-129.7694 464.1798,-112 455.8339,-100.0975 443.657,-89.4818 432.8812,-81.4558"/>
<polygon fill="#191970" stroke="#191970" points="434.8184,-78.5387 424.6395,-75.5992 430.7636,-84.2447 434.8184,-78.5387"/>
</g>
</g>
</svg>
