<?xml version="1.0" encoding="UTF-8" standalone="no"?>
<!DOCTYPE svg PUBLIC "-//W3C//DTD SVG 1.1//EN"
 "http://www.w3.org/Graphics/SVG/1.1/DTD/svg11.dtd">
<!-- Generated by graphviz version 2.40.1 (20161225.0304)
 -->
<!-- Title: arm/l4/util/mbi_argv.h Pages: 1 -->
<svg width="239pt" height="196pt"
 viewBox="0.00 0.00 238.50 196.00" xmlns="http://www.w3.org/2000/svg" xmlns:xlink="http://www.w3.org/1999/xlink">
<g id="graph0" class="graph" transform="scale(1 1) rotate(0) translate(4 192)">
<title>arm/l4/util/mbi_argv.h</title>
<polygon fill="#ffffff" stroke="transparent" points="-4,4 -4,-192 234.5,-192 234.5,4 -4,4"/>
<!-- Node0 -->
<g id="node1" class="node">
<title>Node0</title>
<polygon fill="#bfbfbf" stroke="#000000" points="15,-168.5 15,-187.5 131,-187.5 131,-168.5 15,-168.5"/>
<text text-anchor="middle" x="73" y="-175.5" font-family="Helvetica,sans-Serif" font-size="10.00" fill="#000000">arm/l4/util/mbi_argv.h</text>
</g>
<!-- Node1 -->
<g id="node2" class="node">
<title>Node1</title>
<g id="a_node2"><a xlink:href="x86_2l4_2util_2mbi__argv_8h.html" target="_top" xlink:title="command line handling ">
<polygon fill="#ffffff" stroke="#000000" points="15.5,-112.5 15.5,-131.5 130.5,-131.5 130.5,-112.5 15.5,-112.5"/>
<text text-anchor="middle" x="73" y="-119.5" font-family="Helvetica,sans-Serif" font-size="10.00" fill="#000000">x86/l4/util/mbi_argv.h</text>
</a>
</g>
</g>
<!-- Node0&#45;&gt;Node1 -->
<g id="edge1" class="edge">
<title>Node0&#45;&gt;Node1</title>
<path fill="none" stroke="#191970" d="M73,-168.2455C73,-160.9382 73,-150.6944 73,-141.7046"/>
<polygon fill="#191970" stroke="#191970" points="76.5001,-141.6426 73,-131.6427 69.5001,-141.6427 76.5001,-141.6426"/>
</g>
<!-- Node2 -->
<g id="node3" class="node">
<title>Node2</title>
<g id="a_node3"><a xlink:href="l4_2sys_2l4int_8h.html" target="_top" xlink:title="Fixed sized integer types, generic version. ">
<polygon fill="#ffffff" stroke="#000000" points="0,-.5 0,-19.5 74,-19.5 74,-.5 0,-.5"/>
<text text-anchor="middle" x="37" y="-7.5" font-family="Helvetica,sans-Serif" font-size="10.00" fill="#000000">l4/sys/l4int.h</text>
</a>
</g>
</g>
<!-- Node1&#45;&gt;Node2 -->
<g id="edge2" class="edge">
<title>Node1&#45;&gt;Node2</title>
<path fill="none" stroke="#191970" d="M55.6242,-112.4558C43.1411,-104.5215 27.2818,-91.9621 20,-76 13.0448,-60.754 18.9881,-42.1772 25.6871,-28.6211"/>
<polygon fill="#191970" stroke="#191970" points="28.8064,-30.2114 30.5249,-19.7569 22.662,-26.8579 28.8064,-30.2114"/>
</g>
<!-- Node3 -->
<g id="node4" class="node">
<title>Node3</title>
<g id="a_node4"><a xlink:href="mb__info_8h.html" target="_top" xlink:title="Multiboot info structure as defined by GRUB. ">
<polygon fill="#ffffff" stroke="#000000" points="28.5,-56.5 28.5,-75.5 117.5,-75.5 117.5,-56.5 28.5,-56.5"/>
<text text-anchor="middle" x="73" y="-63.5" font-family="Helvetica,sans-Serif" font-size="10.00" fill="#000000">l4/util/mb_info.h</text>
</a>
</g>
</g>
<!-- Node1&#45;&gt;Node3 -->
<g id="edge3" class="edge">
<title>Node1&#45;&gt;Node3</title>
<path fill="none" stroke="#191970" d="M73,-112.2455C73,-104.9382 73,-94.6944 73,-85.7046"/>
<polygon fill="#191970" stroke="#191970" points="76.5001,-85.6426 73,-75.6427 69.5001,-85.6427 76.5001,-85.6426"/>
</g>
<!-- Node4 -->
<g id="node5" class="node">
<title>Node4</title>
<g id="a_node5"><a xlink:href="compiler_8h.html" target="_top" xlink:title="L4 compiler related defines. ">
<polygon fill="#ffffff" stroke="#000000" points="135.5,-56.5 135.5,-75.5 230.5,-75.5 230.5,-56.5 135.5,-56.5"/>
<text text-anchor="middle" x="183" y="-63.5" font-family="Helvetica,sans-Serif" font-size="10.00" fill="#000000">l4/sys/compiler.h</text>
</a>
</g>
</g>
<!-- Node1&#45;&gt;Node4 -->
<g id="edge5" class="edge">
<title>Node1&#45;&gt;Node4</title>
<path fill="none" stroke="#191970" d="M92.1605,-112.2455C109.5111,-103.4125 135.2901,-90.2887 154.9583,-80.2758"/>
<polygon fill="#191970" stroke="#191970" points="156.7353,-83.2986 164.059,-75.6427 153.5595,-77.0605 156.7353,-83.2986"/>
</g>
<!-- Node3&#45;&gt;Node2 -->
<g id="edge4" class="edge">
<title>Node3&#45;&gt;Node2</title>
<path fill="none" stroke="#191970" d="M66.7293,-56.2455C61.7736,-48.5367 54.717,-37.5598 48.7224,-28.2348"/>
<polygon fill="#191970" stroke="#191970" points="51.5506,-26.1618 43.1989,-19.6427 45.6624,-29.9471 51.5506,-26.1618"/>
</g>
<!-- Node5 -->
<g id="node6" class="node">
<title>Node5</title>
<polygon fill="#ffffff" stroke="#bfbfbf" points="138.5,-.5 138.5,-19.5 227.5,-19.5 227.5,-.5 138.5,-.5"/>
<text text-anchor="middle" x="183" y="-7.5" font-family="Helvetica,sans-Serif" font-size="10.00" fill="#000000">l4/sys/linkage.h</text>
</g>
<!-- Node4&#45;&gt;Node5 -->
<g id="edge6" class="edge">
<title>Node4&#45;&gt;Node5</title>
<path fill="none" stroke="#191970" d="M183,-56.2455C183,-48.9382 183,-38.6944 183,-29.7046"/>
<polygon fill="#191970" stroke="#191970" points="186.5001,-29.6426 183,-19.6427 179.5001,-29.6427 186.5001,-29.6426"/>
</g>
</g>
</svg>
