<?xml version="1.0" encoding="UTF-8" standalone="no"?>
<!DOCTYPE svg PUBLIC "-//W3C//DTD SVG 1.1//EN"
 "http://www.w3.org/Graphics/SVG/1.1/DTD/svg11.dtd">
<!-- Generated by graphviz version 2.40.1 (20161225.0304)
 -->
<!-- Title: l4/cxx/avl_set Pages: 1 -->
<svg width="141pt" height="207pt"
 viewBox="0.00 0.00 141.00 207.00" xmlns="http://www.w3.org/2000/svg" xmlns:xlink="http://www.w3.org/1999/xlink">
<g id="graph0" class="graph" transform="scale(1 1) rotate(0) translate(4 203)">
<title>l4/cxx/avl_set</title>
<polygon fill="#ffffff" stroke="transparent" points="-4,4 -4,-203 137,-203 137,4 -4,4"/>
<!-- Node11 -->
<g id="node1" class="node">
<title>Node11</title>
<polygon fill="#bfbfbf" stroke="#000000" points="26.5,-179.5 26.5,-198.5 106.5,-198.5 106.5,-179.5 26.5,-179.5"/>
<text text-anchor="middle" x="66.5" y="-186.5" font-family="Helvetica,sans-Serif" font-size="10.00" fill="#000000">l4/cxx/avl_set</text>
</g>
<!-- Node12 -->
<g id="node2" class="node">
<title>Node12</title>
<g id="a_node2"><a xlink:href="avl__map.html" target="_top" xlink:title="AVL map. ">
<polygon fill="#ffffff" stroke="#000000" points="23.5,-123.5 23.5,-142.5 109.5,-142.5 109.5,-123.5 23.5,-123.5"/>
<text text-anchor="middle" x="66.5" y="-130.5" font-family="Helvetica,sans-Serif" font-size="10.00" fill="#000000">l4/cxx/avl_map</text>
</a>
</g>
</g>
<!-- Node11&#45;&gt;Node12 -->
<g id="edge1" class="edge">
<title>Node11&#45;&gt;Node12</title>
<path fill="none" stroke="#191970" d="M66.5,-169.1575C66.5,-160.155 66.5,-149.9199 66.5,-142.6427"/>
<polygon fill="#191970" stroke="#191970" points="63.0001,-169.2455 66.5,-179.2455 70.0001,-169.2456 63.0001,-169.2455"/>
</g>
<!-- Node13 -->
<g id="node3" class="node">
<title>Node13</title>
<g id="a_node3"><a xlink:href="region__mapping.html" target="_top" xlink:title="Region handling. ">
<polygon fill="#ffffff" stroke="#000000" points="0,-67.5 0,-86.5 133,-86.5 133,-67.5 0,-67.5"/>
<text text-anchor="middle" x="66.5" y="-74.5" font-family="Helvetica,sans-Serif" font-size="10.00" fill="#000000">l4/re/util/region_mapping</text>
</a>
</g>
</g>
<!-- Node12&#45;&gt;Node13 -->
<g id="edge2" class="edge">
<title>Node12&#45;&gt;Node13</title>
<path fill="none" stroke="#191970" d="M66.5,-113.1575C66.5,-104.155 66.5,-93.9199 66.5,-86.6427"/>
<polygon fill="#191970" stroke="#191970" points="63.0001,-113.2455 66.5,-123.2455 70.0001,-113.2456 63.0001,-113.2455"/>
</g>
<!-- Node14 -->
<g id="node4" class="node">
<title>Node14</title>
<g id="a_node4"><a xlink:href="region__mapping__svr__2_source.html" target="_top" xlink:title="l4/re/util/region_mapping\l_svr_2">
<polygon fill="#ffffff" stroke="#000000" points="0,-.5 0,-30.5 133,-30.5 133,-.5 0,-.5"/>
<text text-anchor="start" x="8" y="-18.5" font-family="Helvetica,sans-Serif" font-size="10.00" fill="#000000">l4/re/util/region_mapping</text>
<text text-anchor="middle" x="66.5" y="-7.5" font-family="Helvetica,sans-Serif" font-size="10.00" fill="#000000">_svr_2</text>
</a>
</g>
</g>
<!-- Node13&#45;&gt;Node14 -->
<g id="edge3" class="edge">
<title>Node13&#45;&gt;Node14</title>
<path fill="none" stroke="#191970" d="M66.5,-57.3693C66.5,-48.681 66.5,-38.6241 66.5,-30.5446"/>
<polygon fill="#191970" stroke="#191970" points="63.0001,-57.3906 66.5,-67.3906 70.0001,-57.3907 63.0001,-57.3906"/>
</g>
</g>
</svg>
