<?xml version="1.0" encoding="UTF-8" standalone="no"?>
<!DOCTYPE svg PUBLIC "-//W3C//DTD SVG 1.1//EN"
 "http://www.w3.org/Graphics/SVG/1.1/DTD/svg11.dtd">
<!-- Generated by graphviz version 2.40.1 (20161225.0304)
 -->
<!-- Title: l4/cxx/avl_set Pages: 1 -->
<svg width="424pt" height="252pt"
 viewBox="0.00 0.00 424.00 252.00" xmlns="http://www.w3.org/2000/svg" xmlns:xlink="http://www.w3.org/1999/xlink">
<g id="graph0" class="graph" transform="scale(1 1) rotate(0) translate(4 248)">
<title>l4/cxx/avl_set</title>
<polygon fill="#ffffff" stroke="transparent" points="-4,4 -4,-248 420,-248 420,4 -4,4"/>
<!-- Node0 -->
<g id="node1" class="node">
<title>Node0</title>
<polygon fill="#bfbfbf" stroke="#000000" points="112.5,-224.5 112.5,-243.5 192.5,-243.5 192.5,-224.5 112.5,-224.5"/>
<text text-anchor="middle" x="152.5" y="-231.5" font-family="Helvetica,sans-Serif" font-size="10.00" fill="#000000">l4/cxx/avl_set</text>
</g>
<!-- Node1 -->
<g id="node2" class="node">
<title>Node1</title>
<g id="a_node2"><a xlink:href="std__alloc_source.html" target="_top" xlink:title="l4/cxx/std_alloc">
<polygon fill="#ffffff" stroke="#000000" points="0,-168.5 0,-187.5 89,-187.5 89,-168.5 0,-168.5"/>
<text text-anchor="middle" x="44.5" y="-175.5" font-family="Helvetica,sans-Serif" font-size="10.00" fill="#000000">l4/cxx/std_alloc</text>
</a>
</g>
</g>
<!-- Node0&#45;&gt;Node1 -->
<g id="edge1" class="edge">
<title>Node0&#45;&gt;Node1</title>
<path fill="none" stroke="#191970" d="M133.6878,-224.2455C116.6527,-215.4125 91.3425,-202.2887 72.0319,-192.2758"/>
<polygon fill="#191970" stroke="#191970" points="73.5853,-189.1388 63.0966,-187.6427 70.363,-195.353 73.5853,-189.1388"/>
</g>
<!-- Node3 -->
<g id="node4" class="node">
<title>Node3</title>
<g id="a_node4"><a xlink:href="std__ops_source.html" target="_top" xlink:title="l4/cxx/std_ops">
<polygon fill="#ffffff" stroke="#000000" points="145.5,-112.5 145.5,-131.5 229.5,-131.5 229.5,-112.5 145.5,-112.5"/>
<text text-anchor="middle" x="187.5" y="-119.5" font-family="Helvetica,sans-Serif" font-size="10.00" fill="#000000">l4/cxx/std_ops</text>
</a>
</g>
</g>
<!-- Node0&#45;&gt;Node3 -->
<g id="edge3" class="edge">
<title>Node0&#45;&gt;Node3</title>
<path fill="none" stroke="#191970" d="M155.4841,-224.4509C161.2183,-206.1013 173.8779,-165.5908 181.4471,-141.3693"/>
<polygon fill="#191970" stroke="#191970" points="184.8813,-142.1137 184.5235,-131.5249 178.2,-140.0257 184.8813,-142.1137"/>
</g>
<!-- Node4 -->
<g id="node5" class="node">
<title>Node4</title>
<g id="a_node5"><a xlink:href="type__traits_source.html" target="_top" xlink:title="l4/cxx/type_traits">
<polygon fill="#ffffff" stroke="#000000" points="184.5,-56.5 184.5,-75.5 280.5,-75.5 280.5,-56.5 184.5,-56.5"/>
<text text-anchor="middle" x="232.5" y="-63.5" font-family="Helvetica,sans-Serif" font-size="10.00" fill="#000000">l4/cxx/type_traits</text>
</a>
</g>
</g>
<!-- Node0&#45;&gt;Node4 -->
<g id="edge4" class="edge">
<title>Node0&#45;&gt;Node4</title>
<path fill="none" stroke="#191970" d="M147.2699,-224.2303C136.3056,-202.2799 113.7342,-148.1531 136.5,-112 146.214,-96.5737 162.695,-86.2059 179.286,-79.2886"/>
<polygon fill="#191970" stroke="#191970" points="180.9052,-82.418 189.0168,-75.6024 178.4254,-75.8719 180.9052,-82.418"/>
</g>
<!-- Node6 -->
<g id="node7" class="node">
<title>Node6</title>
<g id="a_node7"><a xlink:href="avl__tree.html" target="_top" xlink:title="AVL tree. ">
<polygon fill="#ffffff" stroke="#000000" points="223,-168.5 223,-187.5 308,-187.5 308,-168.5 223,-168.5"/>
<text text-anchor="middle" x="265.5" y="-175.5" font-family="Helvetica,sans-Serif" font-size="10.00" fill="#000000">l4/cxx/avl_tree</text>
</a>
</g>
</g>
<!-- Node0&#45;&gt;Node6 -->
<g id="edge6" class="edge">
<title>Node0&#45;&gt;Node6</title>
<path fill="none" stroke="#191970" d="M171.9254,-224.3733C189.9021,-215.4644 216.8441,-202.1127 237.209,-192.0203"/>
<polygon fill="#191970" stroke="#191970" points="238.9222,-195.0776 246.3281,-187.5011 235.8139,-188.8055 238.9222,-195.0776"/>
</g>
<!-- Node2 -->
<g id="node3" class="node">
<title>Node2</title>
<polygon fill="#ffffff" stroke="#bfbfbf" points="17.5,-112.5 17.5,-131.5 71.5,-131.5 71.5,-112.5 17.5,-112.5"/>
<text text-anchor="middle" x="44.5" y="-119.5" font-family="Helvetica,sans-Serif" font-size="10.00" fill="#000000">stddef.h</text>
</g>
<!-- Node1&#45;&gt;Node2 -->
<g id="edge2" class="edge">
<title>Node1&#45;&gt;Node2</title>
<path fill="none" stroke="#191970" d="M44.5,-168.2455C44.5,-160.9382 44.5,-150.6944 44.5,-141.7046"/>
<polygon fill="#191970" stroke="#191970" points="48.0001,-141.6426 44.5,-131.6427 41.0001,-141.6427 48.0001,-141.6426"/>
</g>
<!-- Node5 -->
<g id="node6" class="node">
<title>Node5</title>
<g id="a_node6"><a xlink:href="type__traits_8h_source.html" target="_top" xlink:title="bits/type_traits.h">
<polygon fill="#ffffff" stroke="#000000" points="186,-.5 186,-19.5 279,-19.5 279,-.5 186,-.5"/>
<text text-anchor="middle" x="232.5" y="-7.5" font-family="Helvetica,sans-Serif" font-size="10.00" fill="#000000">bits/type_traits.h</text>
</a>
</g>
</g>
<!-- Node4&#45;&gt;Node5 -->
<g id="edge5" class="edge">
<title>Node4&#45;&gt;Node5</title>
<path fill="none" stroke="#191970" d="M232.5,-56.2455C232.5,-48.9382 232.5,-38.6944 232.5,-29.7046"/>
<polygon fill="#191970" stroke="#191970" points="236.0001,-29.6426 232.5,-19.6427 229.0001,-29.6427 236.0001,-29.6426"/>
</g>
<!-- Node6&#45;&gt;Node3 -->
<g id="edge7" class="edge">
<title>Node6&#45;&gt;Node3</title>
<path fill="none" stroke="#191970" d="M251.9134,-168.2455C240.1695,-159.814 222.9801,-147.4729 209.3118,-137.6598"/>
<polygon fill="#191970" stroke="#191970" points="211.0954,-134.6316 200.9309,-131.6427 207.0129,-140.3179 211.0954,-134.6316"/>
</g>
<!-- Node7 -->
<g id="node8" class="node">
<title>Node7</title>
<g id="a_node8"><a xlink:href="pair.html" target="_top" xlink:title="Pair implementation. ">
<polygon fill="#ffffff" stroke="#000000" points="248,-112.5 248,-131.5 283,-131.5 283,-112.5 248,-112.5"/>
<text text-anchor="middle" x="265.5" y="-119.5" font-family="Helvetica,sans-Serif" font-size="10.00" fill="#000000">pair</text>
</a>
</g>
</g>
<!-- Node6&#45;&gt;Node7 -->
<g id="edge8" class="edge">
<title>Node6&#45;&gt;Node7</title>
<path fill="none" stroke="#191970" d="M265.5,-168.2455C265.5,-160.9382 265.5,-150.6944 265.5,-141.7046"/>
<polygon fill="#191970" stroke="#191970" points="269.0001,-141.6426 265.5,-131.6427 262.0001,-141.6427 269.0001,-141.6426"/>
</g>
<!-- Node8 -->
<g id="node9" class="node">
<title>Node8</title>
<g id="a_node9"><a xlink:href="bst_8h.html" target="_top" xlink:title="AVL tree. ">
<polygon fill="#ffffff" stroke="#000000" points="301,-112.5 301,-131.5 358,-131.5 358,-112.5 301,-112.5"/>
<text text-anchor="middle" x="329.5" y="-119.5" font-family="Helvetica,sans-Serif" font-size="10.00" fill="#000000">bits/bst.h</text>
</a>
</g>
</g>
<!-- Node6&#45;&gt;Node8 -->
<g id="edge9" class="edge">
<title>Node6&#45;&gt;Node8</title>
<path fill="none" stroke="#191970" d="M276.6479,-168.2455C286.0087,-160.0549 299.5858,-148.1749 310.6349,-138.5069"/>
<polygon fill="#191970" stroke="#191970" points="313.2588,-140.8618 318.4798,-131.6427 308.6492,-135.5937 313.2588,-140.8618"/>
</g>
<!-- Node10 -->
<g id="node11" class="node">
<title>Node10</title>
<g id="a_node11"><a xlink:href="bst__iter_8h.html" target="_top" xlink:title="AVL tree. ">
<polygon fill="#ffffff" stroke="#000000" points="357,-56.5 357,-75.5 416,-75.5 416,-56.5 357,-56.5"/>
<text text-anchor="middle" x="386.5" y="-63.5" font-family="Helvetica,sans-Serif" font-size="10.00" fill="#000000">bst_iter.h</text>
</a>
</g>
</g>
<!-- Node6&#45;&gt;Node10 -->
<g id="edge14" class="edge">
<title>Node6&#45;&gt;Node10</title>
<path fill="none" stroke="#191970" d="M306.3123,-168.4459C327.3069,-161.5705 351.7309,-150.209 367.5,-132 378.5867,-119.198 383.2198,-100.2856 385.1478,-85.9837"/>
<polygon fill="#191970" stroke="#191970" points="388.663,-86.0082 386.1856,-75.7071 381.6984,-85.3048 388.663,-86.0082"/>
</g>
<!-- Node8&#45;&gt;Node4 -->
<g id="edge10" class="edge">
<title>Node8&#45;&gt;Node4</title>
<path fill="none" stroke="#191970" d="M312.6039,-112.2455C297.582,-103.5731 275.3957,-90.7645 258.179,-80.825"/>
<polygon fill="#191970" stroke="#191970" points="259.6128,-77.6114 249.2025,-75.6427 256.1129,-83.6737 259.6128,-77.6114"/>
</g>
<!-- Node9 -->
<g id="node10" class="node">
<title>Node9</title>
<g id="a_node10"><a xlink:href="bst__base_8h.html" target="_top" xlink:title="AVL tree. ">
<polygon fill="#ffffff" stroke="#000000" points="315,-.5 315,-19.5 382,-19.5 382,-.5 315,-.5"/>
<text text-anchor="middle" x="348.5" y="-7.5" font-family="Helvetica,sans-Serif" font-size="10.00" fill="#000000">bst_base.h</text>
</a>
</g>
</g>
<!-- Node8&#45;&gt;Node9 -->
<g id="edge11" class="edge">
<title>Node8&#45;&gt;Node9</title>
<path fill="none" stroke="#191970" d="M331.1199,-112.4509C334.2188,-94.184 341.0433,-53.9553 345.1584,-29.6976"/>
<polygon fill="#191970" stroke="#191970" points="348.6623,-29.9694 346.8842,-19.5249 341.7609,-28.7986 348.6623,-29.9694"/>
</g>
<!-- Node8&#45;&gt;Node10 -->
<g id="edge12" class="edge">
<title>Node8&#45;&gt;Node10</title>
<path fill="none" stroke="#191970" d="M339.4286,-112.2455C347.6838,-104.1352 359.6209,-92.4075 369.4082,-82.7919"/>
<polygon fill="#191970" stroke="#191970" points="372.0046,-85.1476 376.6851,-75.6427 367.0989,-80.1542 372.0046,-85.1476"/>
</g>
<!-- Node10&#45;&gt;Node9 -->
<g id="edge13" class="edge">
<title>Node10&#45;&gt;Node9</title>
<path fill="none" stroke="#191970" d="M379.8809,-56.2455C374.5954,-48.4564 367.0459,-37.3308 360.6762,-27.9439"/>
<polygon fill="#191970" stroke="#191970" points="363.5545,-25.9522 355.0432,-19.6427 357.7621,-29.8827 363.5545,-25.9522"/>
</g>
</g>
</svg>
