<?xml version="1.0" encoding="UTF-8" standalone="no"?>
<!DOCTYPE svg PUBLIC "-//W3C//DTD SVG 1.1//EN"
 "http://www.w3.org/Graphics/SVG/1.1/DTD/svg11.dtd">
<!-- Generated by graphviz version 2.40.1 (20161225.0304)
 -->
<!-- Title: l4/cxx/avl_tree Pages: 1 -->
<svg width="249pt" height="196pt"
 viewBox="0.00 0.00 248.50 196.00" xmlns="http://www.w3.org/2000/svg" xmlns:xlink="http://www.w3.org/1999/xlink">
<g id="graph0" class="graph" transform="scale(1 1) rotate(0) translate(4 192)">
<title>l4/cxx/avl_tree</title>
<polygon fill="#ffffff" stroke="transparent" points="-4,4 -4,-192 244.5,-192 244.5,4 -4,4"/>
<!-- Node0 -->
<g id="node1" class="node">
<title>Node0</title>
<polygon fill="#bfbfbf" stroke="#000000" points="79.5,-168.5 79.5,-187.5 164.5,-187.5 164.5,-168.5 79.5,-168.5"/>
<text text-anchor="middle" x="122" y="-175.5" font-family="Helvetica,sans-Serif" font-size="10.00" fill="#000000">l4/cxx/avl_tree</text>
</g>
<!-- Node1 -->
<g id="node2" class="node">
<title>Node1</title>
<g id="a_node2"><a xlink:href="std__ops_source.html" target="_top" xlink:title="std_ops">
<polygon fill="#ffffff" stroke="#000000" points="0,-112.5 0,-131.5 54,-131.5 54,-112.5 0,-112.5"/>
<text text-anchor="middle" x="27" y="-119.5" font-family="Helvetica,sans-Serif" font-size="10.00" fill="#000000">std_ops</text>
</a>
</g>
</g>
<!-- Node0&#45;&gt;Node1 -->
<g id="edge1" class="edge">
<title>Node0&#45;&gt;Node1</title>
<path fill="none" stroke="#191970" d="M105.4523,-168.2455C90.7401,-159.5731 69.0112,-146.7645 52.1495,-136.825"/>
<polygon fill="#191970" stroke="#191970" points="53.7502,-133.7057 43.3581,-131.6427 50.1954,-139.736 53.7502,-133.7057"/>
</g>
<!-- Node2 -->
<g id="node3" class="node">
<title>Node2</title>
<g id="a_node3"><a xlink:href="pair.html" target="_top" xlink:title="Pair implementation. ">
<polygon fill="#ffffff" stroke="#000000" points="72.5,-112.5 72.5,-131.5 107.5,-131.5 107.5,-112.5 72.5,-112.5"/>
<text text-anchor="middle" x="90" y="-119.5" font-family="Helvetica,sans-Serif" font-size="10.00" fill="#000000">pair</text>
</a>
</g>
</g>
<!-- Node0&#45;&gt;Node2 -->
<g id="edge2" class="edge">
<title>Node0&#45;&gt;Node2</title>
<path fill="none" stroke="#191970" d="M116.426,-168.2455C112.0669,-160.617 105.8789,-149.7881 100.5867,-140.5267"/>
<polygon fill="#191970" stroke="#191970" points="103.5104,-138.5886 95.5101,-131.6427 97.4327,-142.0616 103.5104,-138.5886"/>
</g>
<!-- Node3 -->
<g id="node4" class="node">
<title>Node3</title>
<g id="a_node4"><a xlink:href="bst_8h.html" target="_top" xlink:title="AVL tree. ">
<polygon fill="#ffffff" stroke="#000000" points="125.5,-112.5 125.5,-131.5 182.5,-131.5 182.5,-112.5 125.5,-112.5"/>
<text text-anchor="middle" x="154" y="-119.5" font-family="Helvetica,sans-Serif" font-size="10.00" fill="#000000">bits/bst.h</text>
</a>
</g>
</g>
<!-- Node0&#45;&gt;Node3 -->
<g id="edge3" class="edge">
<title>Node0&#45;&gt;Node3</title>
<path fill="none" stroke="#191970" d="M127.574,-168.2455C131.9331,-160.617 138.1211,-149.7881 143.4133,-140.5267"/>
<polygon fill="#191970" stroke="#191970" points="146.5673,-142.0616 148.4899,-131.6427 140.4896,-138.5886 146.5673,-142.0616"/>
</g>
<!-- Node7 -->
<g id="node8" class="node">
<title>Node7</title>
<g id="a_node8"><a xlink:href="bst__iter_8h.html" target="_top" xlink:title="AVL tree. ">
<polygon fill="#ffffff" stroke="#000000" points="181.5,-56.5 181.5,-75.5 240.5,-75.5 240.5,-56.5 181.5,-56.5"/>
<text text-anchor="middle" x="211" y="-63.5" font-family="Helvetica,sans-Serif" font-size="10.00" fill="#000000">bst_iter.h</text>
</a>
</g>
</g>
<!-- Node0&#45;&gt;Node7 -->
<g id="edge9" class="edge">
<title>Node0&#45;&gt;Node7</title>
<path fill="none" stroke="#191970" d="M144.3246,-168.4863C159.8396,-160.7869 179.8398,-148.509 192,-132 201.9321,-118.5159 206.6851,-99.961 208.9522,-85.9583"/>
<polygon fill="#191970" stroke="#191970" points="212.4425,-86.2619 210.2889,-75.8883 205.5034,-85.3407 212.4425,-86.2619"/>
</g>
<!-- Node4 -->
<g id="node5" class="node">
<title>Node4</title>
<g id="a_node5"><a xlink:href="type__traits_source.html" target="_top" xlink:title="../type_traits">
<polygon fill="#ffffff" stroke="#000000" points="51,-56.5 51,-75.5 125,-75.5 125,-56.5 51,-56.5"/>
<text text-anchor="middle" x="88" y="-63.5" font-family="Helvetica,sans-Serif" font-size="10.00" fill="#000000">../type_traits</text>
</a>
</g>
</g>
<!-- Node3&#45;&gt;Node4 -->
<g id="edge4" class="edge">
<title>Node3&#45;&gt;Node4</title>
<path fill="none" stroke="#191970" d="M142.5037,-112.2455C132.7558,-103.9746 118.5741,-91.9416 107.1202,-82.2232"/>
<polygon fill="#191970" stroke="#191970" points="109.2541,-79.4437 99.3646,-75.6427 104.7253,-84.7813 109.2541,-79.4437"/>
</g>
<!-- Node6 -->
<g id="node7" class="node">
<title>Node6</title>
<g id="a_node7"><a xlink:href="bst__base_8h.html" target="_top" xlink:title="AVL tree. ">
<polygon fill="#ffffff" stroke="#000000" points="164.5,-.5 164.5,-19.5 231.5,-19.5 231.5,-.5 164.5,-.5"/>
<text text-anchor="middle" x="198" y="-7.5" font-family="Helvetica,sans-Serif" font-size="10.00" fill="#000000">bst_base.h</text>
</a>
</g>
</g>
<!-- Node3&#45;&gt;Node6 -->
<g id="edge6" class="edge">
<title>Node3&#45;&gt;Node6</title>
<path fill="none" stroke="#191970" d="M155.8445,-112.3557C158.521,-99.277 164.046,-75.3308 172,-56 175.9139,-46.488 181.387,-36.4839 186.3026,-28.2435"/>
<polygon fill="#191970" stroke="#191970" points="189.4159,-29.8632 191.6903,-19.5154 183.4593,-26.1864 189.4159,-29.8632"/>
</g>
<!-- Node3&#45;&gt;Node7 -->
<g id="edge7" class="edge">
<title>Node3&#45;&gt;Node7</title>
<path fill="none" stroke="#191970" d="M163.9286,-112.2455C172.1838,-104.1352 184.1209,-92.4075 193.9082,-82.7919"/>
<polygon fill="#191970" stroke="#191970" points="196.5046,-85.1476 201.1851,-75.6427 191.5989,-80.1542 196.5046,-85.1476"/>
</g>
<!-- Node5 -->
<g id="node6" class="node">
<title>Node5</title>
<g id="a_node6"><a xlink:href="type__traits_8h_source.html" target="_top" xlink:title="bits/type_traits.h">
<polygon fill="#ffffff" stroke="#000000" points="41.5,-.5 41.5,-19.5 134.5,-19.5 134.5,-.5 41.5,-.5"/>
<text text-anchor="middle" x="88" y="-7.5" font-family="Helvetica,sans-Serif" font-size="10.00" fill="#000000">bits/type_traits.h</text>
</a>
</g>
</g>
<!-- Node4&#45;&gt;Node5 -->
<g id="edge5" class="edge">
<title>Node4&#45;&gt;Node5</title>
<path fill="none" stroke="#191970" d="M88,-56.2455C88,-48.9382 88,-38.6944 88,-29.7046"/>
<polygon fill="#191970" stroke="#191970" points="91.5001,-29.6426 88,-19.6427 84.5001,-29.6427 91.5001,-29.6426"/>
</g>
<!-- Node7&#45;&gt;Node6 -->
<g id="edge8" class="edge">
<title>Node7&#45;&gt;Node6</title>
<path fill="none" stroke="#191970" d="M208.7356,-56.2455C207.0206,-48.8579 204.6088,-38.4689 202.5056,-29.4087"/>
<polygon fill="#191970" stroke="#191970" points="205.9092,-28.5922 200.2385,-19.6427 199.0905,-30.1751 205.9092,-28.5922"/>
</g>
</g>
</svg>
