<?xml version="1.0" encoding="UTF-8" standalone="no"?>
<!DOCTYPE svg PUBLIC "-//W3C//DTD SVG 1.1//EN"
 "http://www.w3.org/Graphics/SVG/1.1/DTD/svg11.dtd">
<!-- Generated by graphviz version 2.40.1 (20161225.0304)
 -->
<!-- Title: l4/util/backtrace.h Pages: 1 -->
<svg width="739pt" height="341pt"
 viewBox="0.00 0.00 738.96 341.00" xmlns="http://www.w3.org/2000/svg" xmlns:xlink="http://www.w3.org/1999/xlink">
<g id="graph0" class="graph" transform="scale(1 1) rotate(0) translate(4 337)">
<title>l4/util/backtrace.h</title>
<polygon fill="#ffffff" stroke="transparent" points="-4,4 -4,-337 734.9592,-337 734.9592,4 -4,4"/>
<!-- Node2 -->
<g id="node1" class="node">
<title>Node2</title>
<polygon fill="#bfbfbf" stroke="#000000" points="338.9592,-313.5 338.9592,-332.5 436.9592,-332.5 436.9592,-313.5 338.9592,-313.5"/>
<text text-anchor="middle" x="387.9592" y="-320.5" font-family="Helvetica,sans-Serif" font-size="10.00" fill="#000000">l4/util/backtrace.h</text>
</g>
<!-- Node3 -->
<g id="node2" class="node">
<title>Node3</title>
<g id="a_node2"><a xlink:href="exceptions.html" target="_top" xlink:title="Base exceptions. ">
<polygon fill="#ffffff" stroke="#000000" points="338.9592,-257.5 338.9592,-276.5 436.9592,-276.5 436.9592,-257.5 338.9592,-257.5"/>
<text text-anchor="middle" x="387.9592" y="-264.5" font-family="Helvetica,sans-Serif" font-size="10.00" fill="#000000">l4/cxx/exceptions</text>
</a>
</g>
</g>
<!-- Node2&#45;&gt;Node3 -->
<g id="edge1" class="edge">
<title>Node2&#45;&gt;Node3</title>
<path fill="none" stroke="#191970" d="M387.9592,-303.1575C387.9592,-294.155 387.9592,-283.9199 387.9592,-276.6427"/>
<polygon fill="#191970" stroke="#191970" points="384.4593,-303.2455 387.9592,-313.2455 391.4593,-303.2456 384.4593,-303.2455"/>
</g>
<!-- Node4 -->
<g id="node3" class="node">
<title>Node4</title>
<g id="a_node3"><a xlink:href="error__helper.html" target="_top" xlink:title="Error helper. ">
<polygon fill="#ffffff" stroke="#000000" points="20.9592,-201.5 20.9592,-220.5 120.9592,-220.5 120.9592,-201.5 20.9592,-201.5"/>
<text text-anchor="middle" x="70.9592" y="-208.5" font-family="Helvetica,sans-Serif" font-size="10.00" fill="#000000">l4/re/error_helper</text>
</a>
</g>
</g>
<!-- Node3&#45;&gt;Node4 -->
<g id="edge2" class="edge">
<title>Node3&#45;&gt;Node4</title>
<path fill="none" stroke="#191970" d="M328.7177,-256.5346C268.861,-245.9606 177.3973,-229.8029 121.0436,-219.8477"/>
<polygon fill="#191970" stroke="#191970" points="328.3193,-260.0184 338.7758,-258.3114 329.5371,-253.1251 328.3193,-260.0184"/>
</g>
<!-- Node8 -->
<g id="node7" class="node">
<title>Node8</title>
<g id="a_node7"><a xlink:href="virtqueue_source.html" target="_top" xlink:title="l4/l4virtio/virtqueue">
<polygon fill="#ffffff" stroke="#000000" points="138.9592,-201.5 138.9592,-220.5 242.9592,-220.5 242.9592,-201.5 138.9592,-201.5"/>
<text text-anchor="middle" x="190.9592" y="-208.5" font-family="Helvetica,sans-Serif" font-size="10.00" fill="#000000">l4/l4virtio/virtqueue</text>
</a>
</g>
</g>
<!-- Node3&#45;&gt;Node8 -->
<g id="edge6" class="edge">
<title>Node3&#45;&gt;Node8</title>
<path fill="none" stroke="#191970" d="M344.2963,-254.5882C308.1023,-244.2996 257.4098,-229.8895 224.3828,-220.5011"/>
<polygon fill="#191970" stroke="#191970" points="343.5177,-258.0055 354.0937,-257.3733 345.4318,-251.2723 343.5177,-258.0055"/>
</g>
<!-- Node10 -->
<g id="node9" class="node">
<title>Node10</title>
<g id="a_node9"><a xlink:href="object__registry_source.html" target="_top" xlink:title="l4/re/util/object_registry">
<polygon fill="#ffffff" stroke="#000000" points="261.4592,-201.5 261.4592,-220.5 386.4592,-220.5 386.4592,-201.5 261.4592,-201.5"/>
<text text-anchor="middle" x="323.9592" y="-208.5" font-family="Helvetica,sans-Serif" font-size="10.00" fill="#000000">l4/re/util/object_registry</text>
</a>
</g>
</g>
<!-- Node3&#45;&gt;Node10 -->
<g id="edge9" class="edge">
<title>Node3&#45;&gt;Node10</title>
<path fill="none" stroke="#191970" d="M369.2678,-250.645C358.1373,-240.9058 344.3929,-228.8795 334.9794,-220.6427"/>
<polygon fill="#191970" stroke="#191970" points="366.9807,-253.2945 376.8113,-257.2455 371.5902,-248.0264 366.9807,-253.2945"/>
</g>
<!-- Node11 -->
<g id="node10" class="node">
<title>Node11</title>
<g id="a_node10"><a xlink:href="ipc__helper.html" target="_top" xlink:title="IPC helper. ">
<polygon fill="#ffffff" stroke="#000000" points="404.9592,-201.5 404.9592,-220.5 500.9592,-220.5 500.9592,-201.5 404.9592,-201.5"/>
<text text-anchor="middle" x="452.9592" y="-208.5" font-family="Helvetica,sans-Serif" font-size="10.00" fill="#000000">l4/cxx/ipc_helper</text>
</a>
</g>
</g>
<!-- Node3&#45;&gt;Node11 -->
<g id="edge10" class="edge">
<title>Node3&#45;&gt;Node11</title>
<path fill="none" stroke="#191970" d="M406.9427,-250.645C418.2471,-240.9058 432.2062,-228.8795 441.7668,-220.6427"/>
<polygon fill="#191970" stroke="#191970" points="404.573,-248.0668 399.2813,-257.2455 409.1419,-253.3701 404.573,-248.0668"/>
</g>
<!-- Node12 -->
<g id="node11" class="node">
<title>Node12</title>
<g id="a_node11"><a xlink:href="cxx_2ipc__server.html" target="_top" xlink:title="IPC server loop. ">
<polygon fill="#ffffff" stroke="#000000" points="518.9592,-201.5 518.9592,-220.5 614.9592,-220.5 614.9592,-201.5 518.9592,-201.5"/>
<text text-anchor="middle" x="566.9592" y="-208.5" font-family="Helvetica,sans-Serif" font-size="10.00" fill="#000000">l4/cxx/ipc_server</text>
</a>
</g>
</g>
<!-- Node3&#45;&gt;Node12 -->
<g id="edge11" class="edge">
<title>Node3&#45;&gt;Node12</title>
<path fill="none" stroke="#191970" d="M428.4787,-254.3235C461.3058,-244.0536 506.8368,-229.8093 536.5895,-220.5011"/>
<polygon fill="#191970" stroke="#191970" points="427.2292,-251.0471 418.7304,-257.3733 429.3193,-257.7278 427.2292,-251.0471"/>
</g>
<!-- Node13 -->
<g id="node12" class="node">
<title>Node13</title>
<g id="a_node12"><a xlink:href="std__exc__io.html" target="_top" xlink:title="Base exceptions std stream operator. ">
<polygon fill="#ffffff" stroke="#000000" points="632.9592,-201.5 632.9592,-220.5 730.9592,-220.5 730.9592,-201.5 632.9592,-201.5"/>
<text text-anchor="middle" x="681.9592" y="-208.5" font-family="Helvetica,sans-Serif" font-size="10.00" fill="#000000">l4/cxx/std_exc_io</text>
</a>
</g>
</g>
<!-- Node3&#45;&gt;Node13 -->
<g id="edge12" class="edge">
<title>Node3&#45;&gt;Node13</title>
<path fill="none" stroke="#191970" d="M447.0301,-255.7484C501.5011,-245.373 581.4385,-230.1468 632.5897,-220.4037"/>
<polygon fill="#191970" stroke="#191970" points="446.3367,-252.3175 437.1682,-257.6269 447.6465,-259.1938 446.3367,-252.3175"/>
</g>
<!-- Node5 -->
<g id="node4" class="node">
<title>Node5</title>
<g id="a_node4"><a xlink:href="server_2l4virtio_source.html" target="_top" xlink:title="l4/l4virtio/server\l/l4virtio">
<polygon fill="#ffffff" stroke="#000000" points="42.9592,-67.5 42.9592,-97.5 134.9592,-97.5 134.9592,-67.5 42.9592,-67.5"/>
<text text-anchor="start" x="50.9592" y="-85.5" font-family="Helvetica,sans-Serif" font-size="10.00" fill="#000000">l4/l4virtio/server</text>
<text text-anchor="middle" x="88.9592" y="-74.5" font-family="Helvetica,sans-Serif" font-size="10.00" fill="#000000">/l4virtio</text>
</a>
</g>
</g>
<!-- Node4&#45;&gt;Node5 -->
<g id="edge3" class="edge">
<title>Node4&#45;&gt;Node5</title>
<path fill="none" stroke="#191970" d="M38.0648,-196.5194C25.3115,-189.074 12.0837,-178.6498 4.9592,-165 -1.416,-152.7859 -1.7716,-146.0218 4.9592,-134 14.1516,-117.5816 30.9533,-105.7643 47.1279,-97.6253"/>
<polygon fill="#191970" stroke="#191970" points="36.7084,-199.7638 47.1733,-201.4178 40.0239,-193.5988 36.7084,-199.7638"/>
</g>
<!-- Node7 -->
<g id="node6" class="node">
<title>Node7</title>
<g id="a_node6"><a xlink:href="mem__alloc__impl_8h.html" target="_top" xlink:title="Memory allocator client stub implementation. ">
<polygon fill="#ffffff" stroke="#000000" points="14.4592,-134.5 14.4592,-164.5 127.4592,-164.5 127.4592,-134.5 14.4592,-134.5"/>
<text text-anchor="start" x="22.4592" y="-152.5" font-family="Helvetica,sans-Serif" font-size="10.00" fill="#000000">l4/re/impl/mem_alloc</text>
<text text-anchor="middle" x="70.9592" y="-141.5" font-family="Helvetica,sans-Serif" font-size="10.00" fill="#000000">_impl.h</text>
</a>
</g>
</g>
<!-- Node4&#45;&gt;Node7 -->
<g id="edge5" class="edge">
<title>Node4&#45;&gt;Node7</title>
<path fill="none" stroke="#191970" d="M70.9592,-191.3693C70.9592,-182.681 70.9592,-172.6241 70.9592,-164.5446"/>
<polygon fill="#191970" stroke="#191970" points="67.4593,-191.3906 70.9592,-201.3906 74.4593,-191.3907 67.4593,-191.3906"/>
</g>
<!-- Node6 -->
<g id="node5" class="node">
<title>Node6</title>
<g id="a_node5"><a xlink:href="virtio-block_source.html" target="_top" xlink:title="l4/l4virtio/server\l/virtio&#45;block">
<polygon fill="#ffffff" stroke="#000000" points="42.9592,-.5 42.9592,-30.5 134.9592,-30.5 134.9592,-.5 42.9592,-.5"/>
<text text-anchor="start" x="50.9592" y="-18.5" font-family="Helvetica,sans-Serif" font-size="10.00" fill="#000000">l4/l4virtio/server</text>
<text text-anchor="middle" x="88.9592" y="-7.5" font-family="Helvetica,sans-Serif" font-size="10.00" fill="#000000">/virtio&#45;block</text>
</a>
</g>
</g>
<!-- Node5&#45;&gt;Node6 -->
<g id="edge4" class="edge">
<title>Node5&#45;&gt;Node6</title>
<path fill="none" stroke="#191970" d="M88.9592,-57.0249C88.9592,-48.128 88.9592,-38.4287 88.9592,-30.6432"/>
<polygon fill="#191970" stroke="#191970" points="85.4593,-57.2966 88.9592,-67.2967 92.4593,-57.2967 85.4593,-57.2966"/>
</g>
<!-- Node9 -->
<g id="node8" class="node">
<title>Node9</title>
<g id="a_node8"><a xlink:href="virtio_source.html" target="_top" xlink:title="l4/l4virtio/server\l/virtio">
<polygon fill="#ffffff" stroke="#000000" points="145.9592,-134.5 145.9592,-164.5 237.9592,-164.5 237.9592,-134.5 145.9592,-134.5"/>
<text text-anchor="start" x="153.9592" y="-152.5" font-family="Helvetica,sans-Serif" font-size="10.00" fill="#000000">l4/l4virtio/server</text>
<text text-anchor="middle" x="191.9592" y="-141.5" font-family="Helvetica,sans-Serif" font-size="10.00" fill="#000000">/virtio</text>
</a>
</g>
</g>
<!-- Node8&#45;&gt;Node9 -->
<g id="edge7" class="edge">
<title>Node8&#45;&gt;Node9</title>
<path fill="none" stroke="#191970" d="M191.2784,-191.3693C191.4197,-182.681 191.5832,-172.6241 191.7146,-164.5446"/>
<polygon fill="#191970" stroke="#191970" points="187.7786,-191.335 191.1155,-201.3906 194.7777,-191.4489 187.7786,-191.335"/>
</g>
<!-- Node9&#45;&gt;Node5 -->
<g id="edge8" class="edge">
<title>Node9&#45;&gt;Node5</title>
<path fill="none" stroke="#191970" d="M160.1293,-128.7951C144.6958,-118.7558 126.4887,-106.9124 112.3536,-97.7177"/>
<polygon fill="#191970" stroke="#191970" points="158.5529,-131.945 168.844,-134.4639 162.3699,-126.0772 158.5529,-131.945"/>
</g>
</g>
</svg>
