<?xml version="1.0" encoding="UTF-8" standalone="no"?>
<!DOCTYPE svg PUBLIC "-//W3C//DTD SVG 1.1//EN"
 "http://www.w3.org/Graphics/SVG/1.1/DTD/svg11.dtd">
<!-- Generated by graphviz version 2.40.1 (20161225.0304)
 -->
<!-- Title: l4/cxx/basic_ostream Pages: 1 -->
<svg width="805pt" height="397pt"
 viewBox="0.00 0.00 804.50 397.00" xmlns="http://www.w3.org/2000/svg" xmlns:xlink="http://www.w3.org/1999/xlink">
<g id="graph0" class="graph" transform="scale(1 1) rotate(0) translate(4 393)">
<title>l4/cxx/basic_ostream</title>
<polygon fill="#ffffff" stroke="transparent" points="-4,4 -4,-393 800.5,-393 800.5,4 -4,4"/>
<!-- Node1 -->
<g id="node1" class="node">
<title>Node1</title>
<polygon fill="#bfbfbf" stroke="#000000" points="500.5,-369.5 500.5,-388.5 615.5,-388.5 615.5,-369.5 500.5,-369.5"/>
<text text-anchor="middle" x="558" y="-376.5" font-family="Helvetica,sans-Serif" font-size="10.00" fill="#000000">l4/cxx/basic_ostream</text>
</g>
<!-- Node2 -->
<g id="node2" class="node">
<title>Node2</title>
<g id="a_node2"><a xlink:href="l4types_8h.html" target="_top" xlink:title="L4 Types. ">
<polygon fill="#ffffff" stroke="#000000" points="343.5,-313.5 343.5,-332.5 432.5,-332.5 432.5,-313.5 343.5,-313.5"/>
<text text-anchor="middle" x="388" y="-320.5" font-family="Helvetica,sans-Serif" font-size="10.00" fill="#000000">l4/cxx/l4types.h</text>
</a>
</g>
</g>
<!-- Node1&#45;&gt;Node2 -->
<g id="edge1" class="edge">
<title>Node1&#45;&gt;Node2</title>
<path fill="none" stroke="#191970" d="M519.114,-366.1905C487.9688,-355.9309 444.9777,-341.7691 416.8427,-332.5011"/>
<polygon fill="#191970" stroke="#191970" points="518.1829,-369.5687 528.776,-369.3733 520.3731,-362.9202 518.1829,-369.5687"/>
</g>
<!-- Node3 -->
<g id="node3" class="node">
<title>Node3</title>
<g id="a_node3"><a xlink:href="exceptions.html" target="_top" xlink:title="Base exceptions. ">
<polygon fill="#ffffff" stroke="#000000" points="339,-257.5 339,-276.5 437,-276.5 437,-257.5 339,-257.5"/>
<text text-anchor="middle" x="388" y="-264.5" font-family="Helvetica,sans-Serif" font-size="10.00" fill="#000000">l4/cxx/exceptions</text>
</a>
</g>
</g>
<!-- Node1&#45;&gt;Node3 -->
<g id="edge14" class="edge">
<title>Node1&#45;&gt;Node3</title>
<path fill="none" stroke="#191970" d="M532.1487,-364.2394C517.0539,-355.4519 497.7427,-343.9179 481,-333 451.6463,-313.8585 418.4253,-289.6353 400.7171,-276.5079"/>
<polygon fill="#191970" stroke="#191970" points="530.5332,-367.3482 540.9419,-369.3258 534.0383,-361.2889 530.5332,-367.3482"/>
</g>
<!-- Node14 -->
<g id="node14" class="node">
<title>Node14</title>
<g id="a_node14"><a xlink:href="string_source.html" target="_top" xlink:title="l4/cxx/string">
<polygon fill="#ffffff" stroke="#000000" points="489.5,-313.5 489.5,-332.5 562.5,-332.5 562.5,-313.5 489.5,-313.5"/>
<text text-anchor="middle" x="526" y="-320.5" font-family="Helvetica,sans-Serif" font-size="10.00" fill="#000000">l4/cxx/string</text>
</a>
</g>
</g>
<!-- Node1&#45;&gt;Node14 -->
<g id="edge15" class="edge">
<title>Node1&#45;&gt;Node14</title>
<path fill="none" stroke="#191970" d="M547.3355,-360.3372C542.0346,-351.0605 535.8513,-340.2398 531.5101,-332.6427"/>
<polygon fill="#191970" stroke="#191970" points="544.4257,-362.2996 552.426,-369.2455 550.5034,-358.8266 544.4257,-362.2996"/>
</g>
<!-- Node16 -->
<g id="node16" class="node">
<title>Node16</title>
<g id="a_node16"><a xlink:href="iostream.html" target="_top" xlink:title="IO Stream. ">
<polygon fill="#ffffff" stroke="#000000" points="610.5,-257.5 610.5,-276.5 697.5,-276.5 697.5,-257.5 610.5,-257.5"/>
<text text-anchor="middle" x="654" y="-264.5" font-family="Helvetica,sans-Serif" font-size="10.00" fill="#000000">l4/cxx/iostream</text>
</a>
</g>
</g>
<!-- Node1&#45;&gt;Node16 -->
<g id="edge17" class="edge">
<title>Node1&#45;&gt;Node16</title>
<path fill="none" stroke="#191970" d="M571.5164,-361.4426C582.0244,-347.9732 597.1037,-329.0325 611,-313 622.1698,-300.1132 635.6939,-285.8506 644.5553,-276.6744"/>
<polygon fill="#191970" stroke="#191970" points="568.6933,-359.3716 565.3295,-369.4183 574.2243,-363.6621 568.6933,-359.3716"/>
</g>
<!-- Node17 -->
<g id="node17" class="node">
<title>Node17</title>
<g id="a_node17"><a xlink:href="l4iostream.html" target="_top" xlink:title="L4 IO stream. ">
<polygon fill="#ffffff" stroke="#000000" points="619.5,-313.5 619.5,-332.5 714.5,-332.5 714.5,-313.5 619.5,-313.5"/>
<text text-anchor="middle" x="667" y="-320.5" font-family="Helvetica,sans-Serif" font-size="10.00" fill="#000000">l4/cxx/l4iostream</text>
</a>
</g>
</g>
<!-- Node1&#45;&gt;Node17 -->
<g id="edge19" class="edge">
<title>Node1&#45;&gt;Node17</title>
<path fill="none" stroke="#191970" d="M586.0342,-364.5971C605.5746,-354.558 631.1092,-341.4393 648.2312,-332.6427"/>
<polygon fill="#191970" stroke="#191970" points="584.2817,-361.5625 576.9864,-369.2455 587.4806,-367.7889 584.2817,-361.5625"/>
</g>
<!-- Node18 -->
<g id="node18" class="node">
<title>Node18</title>
<g id="a_node18"><a xlink:href="string_8h.html" target="_top" xlink:title="String. ">
<polygon fill="#ffffff" stroke="#000000" points="715.5,-257.5 715.5,-276.5 796.5,-276.5 796.5,-257.5 715.5,-257.5"/>
<text text-anchor="middle" x="756" y="-264.5" font-family="Helvetica,sans-Serif" font-size="10.00" fill="#000000">l4/cxx/string.h</text>
</a>
</g>
</g>
<!-- Node1&#45;&gt;Node18 -->
<g id="edge20" class="edge">
<title>Node1&#45;&gt;Node18</title>
<path fill="none" stroke="#191970" d="M620.1466,-367.3339C660.328,-358.7615 708.011,-346.3268 724,-333 741.8029,-318.1613 750.4662,-291.0629 753.987,-276.6365"/>
<polygon fill="#191970" stroke="#191970" points="619.1899,-363.9581 610.1164,-369.4283 620.6207,-370.8103 619.1899,-363.9581"/>
</g>
<!-- Node2&#45;&gt;Node3 -->
<g id="edge2" class="edge">
<title>Node2&#45;&gt;Node3</title>
<path fill="none" stroke="#191970" d="M388,-303.1575C388,-294.155 388,-283.9199 388,-276.6427"/>
<polygon fill="#191970" stroke="#191970" points="384.5001,-303.2455 388,-313.2455 391.5001,-303.2456 384.5001,-303.2455"/>
</g>
<!-- Node4 -->
<g id="node4" class="node">
<title>Node4</title>
<g id="a_node4"><a xlink:href="error__helper.html" target="_top" xlink:title="Error helper. ">
<polygon fill="#ffffff" stroke="#000000" points="0,-201.5 0,-220.5 100,-220.5 100,-201.5 0,-201.5"/>
<text text-anchor="middle" x="50" y="-208.5" font-family="Helvetica,sans-Serif" font-size="10.00" fill="#000000">l4/re/error_helper</text>
</a>
</g>
</g>
<!-- Node3&#45;&gt;Node4 -->
<g id="edge3" class="edge">
<title>Node3&#45;&gt;Node4</title>
<path fill="none" stroke="#191970" d="M328.6721,-257.2976C272.1826,-248.0406 184.7807,-233.6692 109,-221 106.1309,-220.5203 103.1835,-220.026 100.2094,-219.5258"/>
<polygon fill="#191970" stroke="#191970" points="328.4161,-260.8022 338.8504,-258.965 329.5478,-253.8943 328.4161,-260.8022"/>
</g>
<!-- Node8 -->
<g id="node8" class="node">
<title>Node8</title>
<g id="a_node8"><a xlink:href="virtqueue_source.html" target="_top" xlink:title="l4/l4virtio/virtqueue">
<polygon fill="#ffffff" stroke="#000000" points="118,-201.5 118,-220.5 222,-220.5 222,-201.5 118,-201.5"/>
<text text-anchor="middle" x="170" y="-208.5" font-family="Helvetica,sans-Serif" font-size="10.00" fill="#000000">l4/l4virtio/virtqueue</text>
</a>
</g>
</g>
<!-- Node3&#45;&gt;Node8 -->
<g id="edge7" class="edge">
<title>Node3&#45;&gt;Node8</title>
<path fill="none" stroke="#191970" d="M340.7061,-254.8511C300.5907,-244.5462 243.8465,-229.9697 206.9865,-220.5011"/>
<polygon fill="#191970" stroke="#191970" points="339.9681,-258.2751 350.5245,-257.3733 341.7098,-251.4952 339.9681,-258.2751"/>
</g>
<!-- Node10 -->
<g id="node10" class="node">
<title>Node10</title>
<g id="a_node10"><a xlink:href="object__registry_source.html" target="_top" xlink:title="l4/re/util/object_registry">
<polygon fill="#ffffff" stroke="#000000" points="240.5,-201.5 240.5,-220.5 365.5,-220.5 365.5,-201.5 240.5,-201.5"/>
<text text-anchor="middle" x="303" y="-208.5" font-family="Helvetica,sans-Serif" font-size="10.00" fill="#000000">l4/re/util/object_registry</text>
</a>
</g>
</g>
<!-- Node3&#45;&gt;Node10 -->
<g id="edge10" class="edge">
<title>Node3&#45;&gt;Node10</title>
<path fill="none" stroke="#191970" d="M364.4581,-251.49C349.461,-241.6096 330.5027,-229.1194 317.6362,-220.6427"/>
<polygon fill="#191970" stroke="#191970" points="362.9179,-254.6666 373.1941,-257.2455 366.7691,-248.8212 362.9179,-254.6666"/>
</g>
<!-- Node11 -->
<g id="node11" class="node">
<title>Node11</title>
<g id="a_node11"><a xlink:href="ipc__helper.html" target="_top" xlink:title="IPC helper. ">
<polygon fill="#ffffff" stroke="#000000" points="384,-201.5 384,-220.5 480,-220.5 480,-201.5 384,-201.5"/>
<text text-anchor="middle" x="432" y="-208.5" font-family="Helvetica,sans-Serif" font-size="10.00" fill="#000000">l4/cxx/ipc_helper</text>
</a>
</g>
</g>
<!-- Node3&#45;&gt;Node11 -->
<g id="edge11" class="edge">
<title>Node3&#45;&gt;Node11</title>
<path fill="none" stroke="#191970" d="M401.9769,-249.2112C409.4129,-239.7472 418.266,-228.4797 424.4236,-220.6427"/>
<polygon fill="#191970" stroke="#191970" points="399.0903,-247.22 395.6642,-257.2455 404.5946,-251.5447 399.0903,-247.22"/>
</g>
<!-- Node12 -->
<g id="node12" class="node">
<title>Node12</title>
<g id="a_node12"><a xlink:href="cxx_2ipc__server.html" target="_top" xlink:title="IPC server loop. ">
<polygon fill="#ffffff" stroke="#000000" points="498,-201.5 498,-220.5 594,-220.5 594,-201.5 498,-201.5"/>
<text text-anchor="middle" x="546" y="-208.5" font-family="Helvetica,sans-Serif" font-size="10.00" fill="#000000">l4/cxx/ipc_server</text>
</a>
</g>
</g>
<!-- Node3&#45;&gt;Node12 -->
<g id="edge12" class="edge">
<title>Node3&#45;&gt;Node12</title>
<path fill="none" stroke="#191970" d="M424.8955,-253.9231C453.7787,-243.686 493.2706,-229.6889 519.1933,-220.5011"/>
<polygon fill="#191970" stroke="#191970" points="423.4174,-250.7336 415.1612,-257.3733 425.7559,-257.3314 423.4174,-250.7336"/>
</g>
<!-- Node13 -->
<g id="node13" class="node">
<title>Node13</title>
<g id="a_node13"><a xlink:href="std__exc__io.html" target="_top" xlink:title="Base exceptions std stream operator. ">
<polygon fill="#ffffff" stroke="#000000" points="612,-201.5 612,-220.5 710,-220.5 710,-201.5 612,-201.5"/>
<text text-anchor="middle" x="661" y="-208.5" font-family="Helvetica,sans-Serif" font-size="10.00" fill="#000000">l4/cxx/std_exc_io</text>
</a>
</g>
</g>
<!-- Node3&#45;&gt;Node13 -->
<g id="edge13" class="edge">
<title>Node3&#45;&gt;Node13</title>
<path fill="none" stroke="#191970" d="M444.6865,-255.372C495.0038,-245.0505 567.6258,-230.1537 614.5721,-220.5237"/>
<polygon fill="#191970" stroke="#191970" points="443.7129,-251.9988 434.6202,-257.4369 445.1195,-258.856 443.7129,-251.9988"/>
</g>
<!-- Node5 -->
<g id="node5" class="node">
<title>Node5</title>
<g id="a_node5"><a xlink:href="server_2l4virtio_source.html" target="_top" xlink:title="l4/l4virtio/server\l/l4virtio">
<polygon fill="#ffffff" stroke="#000000" points="65,-67.5 65,-97.5 157,-97.5 157,-67.5 65,-67.5"/>
<text text-anchor="start" x="73" y="-85.5" font-family="Helvetica,sans-Serif" font-size="10.00" fill="#000000">l4/l4virtio/server</text>
<text text-anchor="middle" x="111" y="-74.5" font-family="Helvetica,sans-Serif" font-size="10.00" fill="#000000">/l4virtio</text>
</a>
</g>
</g>
<!-- Node4&#45;&gt;Node5 -->
<g id="edge4" class="edge">
<title>Node4&#45;&gt;Node5</title>
<path fill="none" stroke="#191970" d="M36.9203,-192.9384C26.9335,-176.7452 16.5165,-152.7244 27,-134 36.1924,-117.5816 52.9941,-105.7643 69.1687,-97.6253"/>
<polygon fill="#191970" stroke="#191970" points="34.1394,-195.0776 42.5893,-201.4691 39.9695,-191.2032 34.1394,-195.0776"/>
</g>
<!-- Node7 -->
<g id="node7" class="node">
<title>Node7</title>
<g id="a_node7"><a xlink:href="mem__alloc__impl_8h.html" target="_top" xlink:title="Memory allocator client stub implementation. ">
<polygon fill="#ffffff" stroke="#000000" points="36.5,-134.5 36.5,-164.5 149.5,-164.5 149.5,-134.5 36.5,-134.5"/>
<text text-anchor="start" x="44.5" y="-152.5" font-family="Helvetica,sans-Serif" font-size="10.00" fill="#000000">l4/re/impl/mem_alloc</text>
<text text-anchor="middle" x="93" y="-141.5" font-family="Helvetica,sans-Serif" font-size="10.00" fill="#000000">_impl.h</text>
</a>
</g>
</g>
<!-- Node4&#45;&gt;Node7 -->
<g id="edge6" class="edge">
<title>Node4&#45;&gt;Node7</title>
<path fill="none" stroke="#191970" d="M62.524,-193.0877C68.8566,-184.0307 76.4553,-173.1627 82.481,-164.5446"/>
<polygon fill="#191970" stroke="#191970" points="59.5805,-191.1896 56.7188,-201.3906 65.3174,-195.2007 59.5805,-191.1896"/>
</g>
<!-- Node6 -->
<g id="node6" class="node">
<title>Node6</title>
<g id="a_node6"><a xlink:href="virtio-block_source.html" target="_top" xlink:title="l4/l4virtio/server\l/virtio&#45;block">
<polygon fill="#ffffff" stroke="#000000" points="65,-.5 65,-30.5 157,-30.5 157,-.5 65,-.5"/>
<text text-anchor="start" x="73" y="-18.5" font-family="Helvetica,sans-Serif" font-size="10.00" fill="#000000">l4/l4virtio/server</text>
<text text-anchor="middle" x="111" y="-7.5" font-family="Helvetica,sans-Serif" font-size="10.00" fill="#000000">/virtio&#45;block</text>
</a>
</g>
</g>
<!-- Node5&#45;&gt;Node6 -->
<g id="edge5" class="edge">
<title>Node5&#45;&gt;Node6</title>
<path fill="none" stroke="#191970" d="M111,-57.0249C111,-48.128 111,-38.4287 111,-30.6432"/>
<polygon fill="#191970" stroke="#191970" points="107.5001,-57.2966 111,-67.2967 114.5001,-57.2967 107.5001,-57.2966"/>
</g>
<!-- Node9 -->
<g id="node9" class="node">
<title>Node9</title>
<g id="a_node9"><a xlink:href="virtio_source.html" target="_top" xlink:title="l4/l4virtio/server\l/virtio">
<polygon fill="#ffffff" stroke="#000000" points="168,-134.5 168,-164.5 260,-164.5 260,-134.5 168,-134.5"/>
<text text-anchor="start" x="176" y="-152.5" font-family="Helvetica,sans-Serif" font-size="10.00" fill="#000000">l4/l4virtio/server</text>
<text text-anchor="middle" x="214" y="-141.5" font-family="Helvetica,sans-Serif" font-size="10.00" fill="#000000">/virtio</text>
</a>
</g>
</g>
<!-- Node8&#45;&gt;Node9 -->
<g id="edge8" class="edge">
<title>Node8&#45;&gt;Node9</title>
<path fill="none" stroke="#191970" d="M182.8153,-193.0877C189.2951,-184.0307 197.0706,-173.1627 203.2364,-164.5446"/>
<polygon fill="#191970" stroke="#191970" points="179.8472,-191.2212 176.875,-201.3906 185.5402,-195.2943 179.8472,-191.2212"/>
</g>
<!-- Node9&#45;&gt;Node5 -->
<g id="edge9" class="edge">
<title>Node9&#45;&gt;Node5</title>
<path fill="none" stroke="#191970" d="M182.1701,-128.7951C166.7366,-118.7558 148.5295,-106.9124 134.3944,-97.7177"/>
<polygon fill="#191970" stroke="#191970" points="180.5937,-131.945 190.8848,-134.4639 184.4107,-126.0772 180.5937,-131.945"/>
</g>
<!-- Node15 -->
<g id="node15" class="node">
<title>Node15</title>
<g id="a_node15"><a xlink:href="name__space__svr_source.html" target="_top" xlink:title="l4/re/util/name_space_svr">
<polygon fill="#ffffff" stroke="#000000" points="455.5,-257.5 455.5,-276.5 592.5,-276.5 592.5,-257.5 455.5,-257.5"/>
<text text-anchor="middle" x="524" y="-264.5" font-family="Helvetica,sans-Serif" font-size="10.00" fill="#000000">l4/re/util/name_space_svr</text>
</a>
</g>
</g>
<!-- Node14&#45;&gt;Node15 -->
<g id="edge16" class="edge">
<title>Node14&#45;&gt;Node15</title>
<path fill="none" stroke="#191970" d="M525.2913,-303.1575C524.9698,-294.155 524.6043,-283.9199 524.3444,-276.6427"/>
<polygon fill="#191970" stroke="#191970" points="521.7968,-303.3769 525.6516,-313.2455 528.7924,-303.127 521.7968,-303.3769"/>
</g>
<!-- Node16&#45;&gt;Node13 -->
<g id="edge18" class="edge">
<title>Node16&#45;&gt;Node13</title>
<path fill="none" stroke="#191970" d="M656.4803,-247.1575C657.6056,-238.155 658.885,-227.9199 659.7947,-220.6427"/>
<polygon fill="#191970" stroke="#191970" points="652.9868,-246.8886 655.2193,-257.2455 659.9327,-247.7569 652.9868,-246.8886"/>
</g>
<!-- Node18&#45;&gt;Node9 -->
<g id="edge21" class="edge">
<title>Node18&#45;&gt;Node9</title>
<path fill="none" stroke="#191970" d="M750.6421,-247.8304C745.2794,-232.4732 735.4189,-211.7744 719,-201 681.1006,-176.1296 377.9161,-157.9699 260.3528,-151.7991"/>
<polygon fill="#191970" stroke="#191970" points="747.3201,-248.9339 753.6614,-257.4214 753.997,-246.8319 747.3201,-248.9339"/>
</g>
</g>
</svg>
