<?xml version="1.0" encoding="UTF-8" standalone="no"?>
<!DOCTYPE svg PUBLIC "-//W3C//DTD SVG 1.1//EN"
 "http://www.w3.org/Graphics/SVG/1.1/DTD/svg11.dtd">
<!-- Generated by graphviz version 2.40.1 (20161225.0304)
 -->
<!-- Title: l4/re/util/bitmap_cap_alloc Pages: 1 -->
<svg width="866pt" height="778pt"
 viewBox="0.00 0.00 865.50 778.00" xmlns="http://www.w3.org/2000/svg" xmlns:xlink="http://www.w3.org/1999/xlink">
<g id="graph0" class="graph" transform="scale(1 1) rotate(0) translate(4 774)">
<title>l4/re/util/bitmap_cap_alloc</title>
<polygon fill="#ffffff" stroke="transparent" points="-4,4 -4,-774 861.5,-774 861.5,4 -4,4"/>
<!-- Node0 -->
<g id="node1" class="node">
<title>Node0</title>
<polygon fill="#bfbfbf" stroke="#000000" points="77,-739.5 77,-769.5 187,-769.5 187,-739.5 77,-739.5"/>
<text text-anchor="start" x="85" y="-757.5" font-family="Helvetica,sans-Serif" font-size="10.00" fill="#000000">l4/re/util/bitmap_cap</text>
<text text-anchor="middle" x="132" y="-746.5" font-family="Helvetica,sans-Serif" font-size="10.00" fill="#000000">_alloc</text>
</g>
<!-- Node1 -->
<g id="node2" class="node">
<title>Node1</title>
<g id="a_node2"><a xlink:href="item__alloc.html" target="_top" xlink:title="Item allocator. ">
<polygon fill="#ffffff" stroke="#000000" points="0,-683.5 0,-702.5 104,-702.5 104,-683.5 0,-683.5"/>
<text text-anchor="middle" x="52" y="-690.5" font-family="Helvetica,sans-Serif" font-size="10.00" fill="#000000">l4/re/util/item_alloc</text>
</a>
</g>
</g>
<!-- Node0&#45;&gt;Node1 -->
<g id="edge1" class="edge">
<title>Node0&#45;&gt;Node1</title>
<path fill="none" stroke="#191970" d="M112.2247,-739.2977C100.3102,-730.1384 85.1468,-718.4816 73.0162,-709.1562"/>
<polygon fill="#191970" stroke="#191970" points="74.8703,-706.1668 64.809,-702.8469 70.604,-711.7165 74.8703,-706.1668"/>
</g>
<!-- Node3 -->
<g id="node4" class="node">
<title>Node3</title>
<g id="a_node4"><a xlink:href="capability.html" target="_top" xlink:title="L4::Cap related definitions. ">
<polygon fill="#ffffff" stroke="#000000" points="191,-683.5 191,-702.5 281,-702.5 281,-683.5 191,-683.5"/>
<text text-anchor="middle" x="236" y="-690.5" font-family="Helvetica,sans-Serif" font-size="10.00" fill="#000000">l4/sys/capability</text>
</a>
</g>
</g>
<!-- Node0&#45;&gt;Node3 -->
<g id="edge3" class="edge">
<title>Node0&#45;&gt;Node3</title>
<path fill="none" stroke="#191970" d="M157.4413,-739.4554C173.7284,-729.8241 194.7673,-717.3828 210.973,-707.7996"/>
<polygon fill="#191970" stroke="#191970" points="213.0576,-710.6331 219.8837,-702.5303 209.4945,-704.6078 213.0576,-710.6331"/>
</g>
<!-- Node21 -->
<g id="node22" class="node">
<title>Node21</title>
<g id="a_node22"><a xlink:href="l4_2sys_2task_8h.html" target="_top" xlink:title="Common task related definitions. ">
<polygon fill="#ffffff" stroke="#000000" points="260,-342 260,-361 334,-361 334,-342 260,-342"/>
<text text-anchor="middle" x="297" y="-349" font-family="Helvetica,sans-Serif" font-size="10.00" fill="#000000">l4/sys/task.h</text>
</a>
</g>
</g>
<!-- Node0&#45;&gt;Node21 -->
<g id="edge62" class="edge">
<title>Node0&#45;&gt;Node21</title>
<path fill="none" stroke="#191970" d="M132,-739.2899C132,-716.892 132,-673.7188 132,-637 132,-637 132,-637 132,-581 132,-484.3886 229.5855,-400.6413 274.6616,-367.1106"/>
<polygon fill="#191970" stroke="#191970" points="276.9107,-369.8025 282.9322,-361.0851 272.7887,-364.1447 276.9107,-369.8025"/>
</g>
<!-- Node2 -->
<g id="node3" class="node">
<title>Node2</title>
<g id="a_node3"><a xlink:href="bitmap_source.html" target="_top" xlink:title="l4/cxx/bitmap">
<polygon fill="#ffffff" stroke="#000000" points="13.5,-627.5 13.5,-646.5 90.5,-646.5 90.5,-627.5 13.5,-627.5"/>
<text text-anchor="middle" x="52" y="-634.5" font-family="Helvetica,sans-Serif" font-size="10.00" fill="#000000">l4/cxx/bitmap</text>
</a>
</g>
</g>
<!-- Node1&#45;&gt;Node2 -->
<g id="edge2" class="edge">
<title>Node1&#45;&gt;Node2</title>
<path fill="none" stroke="#191970" d="M52,-683.2455C52,-675.9382 52,-665.6944 52,-656.7046"/>
<polygon fill="#191970" stroke="#191970" points="55.5001,-656.6426 52,-646.6427 48.5001,-656.6427 55.5001,-656.6426"/>
</g>
<!-- Node4 -->
<g id="node5" class="node">
<title>Node4</title>
<g id="a_node5"><a xlink:href="l4_2sys_2consts_8h.html" target="_top" xlink:title="Common constants. ">
<polygon fill="#ffffff" stroke="#000000" points="338,-112.5 338,-131.5 424,-131.5 424,-112.5 338,-112.5"/>
<text text-anchor="middle" x="381" y="-119.5" font-family="Helvetica,sans-Serif" font-size="10.00" fill="#000000">l4/sys/consts.h</text>
</a>
</g>
</g>
<!-- Node3&#45;&gt;Node4 -->
<g id="edge4" class="edge">
<title>Node3&#45;&gt;Node4</title>
<path fill="none" stroke="#191970" d="M229.4943,-683.3196C206.7262,-648.4716 132,-525.5275 132,-413 132,-413 132,-413 132,-234 132,-190.992 257.1136,-152.6802 329.9679,-134.0168"/>
<polygon fill="#191970" stroke="#191970" points="331.0428,-137.3554 339.8827,-131.5153 329.3303,-130.5681 331.0428,-137.3554"/>
</g>
<!-- Node8 -->
<g id="node9" class="node">
<title>Node8</title>
<g id="a_node9"><a xlink:href="l4_2sys_2types_8h.html" target="_top" xlink:title="Common L4 ABI Data Types. ">
<polygon fill="#ffffff" stroke="#000000" points="341,-168.5 341,-187.5 421,-187.5 421,-168.5 341,-168.5"/>
<text text-anchor="middle" x="381" y="-175.5" font-family="Helvetica,sans-Serif" font-size="10.00" fill="#000000">l4/sys/types.h</text>
</a>
</g>
</g>
<!-- Node3&#45;&gt;Node8 -->
<g id="edge8" class="edge">
<title>Node3&#45;&gt;Node8</title>
<path fill="none" stroke="#191970" d="M231.8685,-683.3161C224.0798,-664.1534 208,-619.8832 208,-581 208,-581 208,-581 208,-469 208,-354.4531 200.3218,-297.7125 288,-224 304.4031,-210.2097 325.6453,-199.3022 343.6864,-191.5764"/>
<polygon fill="#191970" stroke="#191970" points="345.41,-194.6522 353.3289,-187.6135 342.7491,-188.1776 345.41,-194.6522"/>
</g>
<!-- Node11 -->
<g id="node12" class="node">
<title>Node11</title>
<g id="a_node12"><a xlink:href="kobject_source.html" target="_top" xlink:title="l4/sys/kobject">
<polygon fill="#ffffff" stroke="#000000" points="449,-515.5 449,-534.5 529,-534.5 529,-515.5 449,-515.5"/>
<text text-anchor="middle" x="489" y="-522.5" font-family="Helvetica,sans-Serif" font-size="10.00" fill="#000000">l4/sys/kobject</text>
</a>
</g>
</g>
<!-- Node3&#45;&gt;Node11 -->
<g id="edge16" class="edge">
<title>Node3&#45;&gt;Node11</title>
<path fill="none" stroke="#191970" d="M250.3273,-683.4862C292.2372,-655.6567 414.8618,-574.2301 466.0933,-540.2108"/>
<polygon fill="#191970" stroke="#191970" points="468.1218,-543.0652 474.5163,-534.6177 464.2495,-537.2338 468.1218,-543.0652"/>
</g>
<!-- Node3&#45;&gt;Node21 -->
<g id="edge45" class="edge">
<title>Node3&#45;&gt;Node21</title>
<path fill="none" stroke="#191970" d="M240.279,-683.3307C248.3459,-664.1936 265,-619.9662 265,-581 265,-581 265,-581 265,-525 265,-468.2838 281.7418,-402.8428 291.0063,-370.9713"/>
<polygon fill="#191970" stroke="#191970" points="294.4262,-371.7506 293.9317,-361.1673 287.7184,-369.749 294.4262,-371.7506"/>
</g>
<!-- Node22 -->
<g id="node23" class="node">
<title>Node22</title>
<g id="a_node23"><a xlink:href="sys_2meta.html" target="_top" xlink:title="Meta interface for getting dynamic type information about objects behind capabilities. ">
<polygon fill="#ffffff" stroke="#000000" points="497,-627.5 497,-646.5 567,-646.5 567,-627.5 497,-627.5"/>
<text text-anchor="middle" x="532" y="-634.5" font-family="Helvetica,sans-Serif" font-size="10.00" fill="#000000">l4/sys/meta</text>
</a>
</g>
</g>
<!-- Node3&#45;&gt;Node22 -->
<g id="edge46" class="edge">
<title>Node3&#45;&gt;Node22</title>
<path fill="none" stroke="#191970" d="M281.2782,-684.4338C337.0789,-673.877 431.3216,-656.0473 486.996,-645.5143"/>
<polygon fill="#191970" stroke="#191970" points="487.7498,-648.9338 496.9248,-643.6358 486.4485,-642.0558 487.7498,-648.9338"/>
</g>
<!-- Node5 -->
<g id="node6" class="node">
<title>Node5</title>
<g id="a_node6"><a xlink:href="compiler_8h.html" target="_top" xlink:title="L4 compiler related defines. ">
<polygon fill="#ffffff" stroke="#000000" points="549.5,-56.5 549.5,-75.5 644.5,-75.5 644.5,-56.5 549.5,-56.5"/>
<text text-anchor="middle" x="597" y="-63.5" font-family="Helvetica,sans-Serif" font-size="10.00" fill="#000000">l4/sys/compiler.h</text>
</a>
</g>
</g>
<!-- Node4&#45;&gt;Node5 -->
<g id="edge5" class="edge">
<title>Node4&#45;&gt;Node5</title>
<path fill="none" stroke="#191970" d="M418.1317,-112.3733C454.8267,-102.8598 511.0639,-88.2797 550.6651,-78.0127"/>
<polygon fill="#191970" stroke="#191970" points="551.5512,-81.3988 560.3528,-75.5011 549.7944,-74.6228 551.5512,-81.3988"/>
</g>
<!-- Node7 -->
<g id="node8" class="node">
<title>Node7</title>
<g id="a_node8"><a xlink:href="l4_2sys_2l4int_8h.html" target="_top" xlink:title="Fixed sized integer types, generic version. ">
<polygon fill="#ffffff" stroke="#000000" points="193,-56.5 193,-75.5 267,-75.5 267,-56.5 193,-56.5"/>
<text text-anchor="middle" x="230" y="-63.5" font-family="Helvetica,sans-Serif" font-size="10.00" fill="#000000">l4/sys/l4int.h</text>
</a>
</g>
</g>
<!-- Node4&#45;&gt;Node7 -->
<g id="edge7" class="edge">
<title>Node4&#45;&gt;Node7</title>
<path fill="none" stroke="#191970" d="M355.0422,-112.3733C330.2593,-103.1822 292.7254,-89.2624 265.246,-79.0713"/>
<polygon fill="#191970" stroke="#191970" points="266.2121,-75.6968 255.6191,-75.5011 263.7781,-82.26 266.2121,-75.6968"/>
</g>
<!-- Node6 -->
<g id="node7" class="node">
<title>Node6</title>
<polygon fill="#ffffff" stroke="#bfbfbf" points="552.5,-.5 552.5,-19.5 641.5,-19.5 641.5,-.5 552.5,-.5"/>
<text text-anchor="middle" x="597" y="-7.5" font-family="Helvetica,sans-Serif" font-size="10.00" fill="#000000">l4/sys/linkage.h</text>
</g>
<!-- Node5&#45;&gt;Node6 -->
<g id="edge6" class="edge">
<title>Node5&#45;&gt;Node6</title>
<path fill="none" stroke="#191970" d="M597,-56.2455C597,-48.9382 597,-38.6944 597,-29.7046"/>
<polygon fill="#191970" stroke="#191970" points="600.5001,-29.6426 597,-19.6427 593.5001,-29.6427 600.5001,-29.6426"/>
</g>
<!-- Node8&#45;&gt;Node4 -->
<g id="edge11" class="edge">
<title>Node8&#45;&gt;Node4</title>
<path fill="none" stroke="#191970" d="M381,-168.2455C381,-160.9382 381,-150.6944 381,-141.7046"/>
<polygon fill="#191970" stroke="#191970" points="384.5001,-141.6426 381,-131.6427 377.5001,-141.6427 384.5001,-141.6426"/>
</g>
<!-- Node8&#45;&gt;Node5 -->
<g id="edge10" class="edge">
<title>Node8&#45;&gt;Node5</title>
<path fill="none" stroke="#191970" d="M421.2651,-171.333C466.8401,-163.1506 537.5396,-148.3361 559,-132 574.4076,-120.2714 584.623,-100.3619 590.5443,-85.4703"/>
<polygon fill="#191970" stroke="#191970" points="593.9686,-86.2964 594.1098,-75.7025 587.393,-83.896 593.9686,-86.2964"/>
</g>
<!-- Node8&#45;&gt;Node7 -->
<g id="edge9" class="edge">
<title>Node8&#45;&gt;Node7</title>
<path fill="none" stroke="#191970" d="M340.651,-172.8164C295.2647,-166.0604 225.8041,-152.6173 210,-132 199.3643,-118.1251 207.3678,-98.6065 216.2079,-84.396"/>
<polygon fill="#191970" stroke="#191970" points="219.2295,-86.1764 221.9504,-75.9369 213.438,-82.2447 219.2295,-86.1764"/>
</g>
<!-- Node9 -->
<g id="node10" class="node">
<title>Node9</title>
<g id="a_node10"><a xlink:href="____l4__fpage_8h_source.html" target="_top" xlink:title="l4/sys/__l4_fpage.h">
<polygon fill="#ffffff" stroke="#000000" points="442,-112.5 442,-131.5 550,-131.5 550,-112.5 442,-112.5"/>
<text text-anchor="middle" x="496" y="-119.5" font-family="Helvetica,sans-Serif" font-size="10.00" fill="#000000">l4/sys/__l4_fpage.h</text>
</a>
</g>
</g>
<!-- Node8&#45;&gt;Node9 -->
<g id="edge12" class="edge">
<title>Node8&#45;&gt;Node9</title>
<path fill="none" stroke="#191970" d="M400.7692,-168.3733C419.1469,-159.4241 446.7312,-145.9917 467.4893,-135.8835"/>
<polygon fill="#191970" stroke="#191970" points="469.0304,-139.026 476.4888,-131.5011 465.9657,-132.7325 469.0304,-139.026"/>
</g>
<!-- Node10 -->
<g id="node11" class="node">
<title>Node10</title>
<g id="a_node11"><a xlink:href="____timeout_8h_source.html" target="_top" xlink:title="l4/sys/__timeout.h">
<polygon fill="#ffffff" stroke="#000000" points="218.5,-112.5 218.5,-131.5 319.5,-131.5 319.5,-112.5 218.5,-112.5"/>
<text text-anchor="middle" x="269" y="-119.5" font-family="Helvetica,sans-Serif" font-size="10.00" fill="#000000">l4/sys/__timeout.h</text>
</a>
</g>
</g>
<!-- Node8&#45;&gt;Node10 -->
<g id="edge14" class="edge">
<title>Node8&#45;&gt;Node10</title>
<path fill="none" stroke="#191970" d="M361.7465,-168.3733C343.9288,-159.4644 317.2253,-146.1127 297.0406,-136.0203"/>
<polygon fill="#191970" stroke="#191970" points="298.5118,-132.8428 288.0022,-131.5011 295.3813,-139.1038 298.5118,-132.8428"/>
</g>
<!-- Node9&#45;&gt;Node5 -->
<g id="edge13" class="edge">
<title>Node9&#45;&gt;Node5</title>
<path fill="none" stroke="#191970" d="M513.5929,-112.2455C529.379,-103.4928 552.7639,-90.527 570.7587,-80.5496"/>
<polygon fill="#191970" stroke="#191970" points="572.5603,-83.5528 579.6087,-75.6427 569.1659,-77.4308 572.5603,-83.5528"/>
</g>
<!-- Node10&#45;&gt;Node7 -->
<g id="edge15" class="edge">
<title>Node10&#45;&gt;Node7</title>
<path fill="none" stroke="#191970" d="M262.2067,-112.2455C256.7822,-104.4564 249.0339,-93.3308 242.4967,-83.9439"/>
<polygon fill="#191970" stroke="#191970" points="245.3025,-81.8485 236.7154,-75.6427 239.5583,-85.849 245.3025,-81.8485"/>
</g>
<!-- Node11&#45;&gt;Node8 -->
<g id="edge31" class="edge">
<title>Node11&#45;&gt;Node8</title>
<path fill="none" stroke="#191970" d="M458.5814,-515.4676C405.0688,-496.8498 295.5447,-450.0386 251,-367 214.1246,-298.2582 309.7861,-224.0625 356.7542,-193.0031"/>
<polygon fill="#191970" stroke="#191970" points="358.6876,-195.9209 365.18,-187.5484 354.8835,-190.0448 358.6876,-195.9209"/>
</g>
<!-- Node12 -->
<g id="node13" class="node">
<title>Node12</title>
<g id="a_node13"><a xlink:href="kernel__object_8h.html" target="_top" xlink:title="Kernel object system calls. ">
<polygon fill="#ffffff" stroke="#000000" points="446,-403.5 446,-422.5 534,-422.5 534,-403.5 446,-403.5"/>
<text text-anchor="middle" x="490" y="-410.5" font-family="Helvetica,sans-Serif" font-size="10.00" fill="#000000">kernel_object.h</text>
</a>
</g>
</g>
<!-- Node11&#45;&gt;Node12 -->
<g id="edge17" class="edge">
<title>Node11&#45;&gt;Node12</title>
<path fill="none" stroke="#191970" d="M489.0853,-515.4509C489.2484,-497.184 489.6075,-456.9553 489.8241,-432.6976"/>
<polygon fill="#191970" stroke="#191970" points="493.3254,-432.5558 489.915,-422.5249 486.3257,-432.4932 493.3254,-432.5558"/>
</g>
<!-- Node17 -->
<g id="node18" class="node">
<title>Node17</title>
<g id="a_node18"><a xlink:href="____typeinfo_8h.html" target="_top" xlink:title="Type information handling. ">
<polygon fill="#ffffff" stroke="#000000" points="517,-459.5 517,-478.5 591,-478.5 591,-459.5 517,-459.5"/>
<text text-anchor="middle" x="554" y="-466.5" font-family="Helvetica,sans-Serif" font-size="10.00" fill="#000000">__typeinfo.h</text>
</a>
</g>
</g>
<!-- Node11&#45;&gt;Node17 -->
<g id="edge32" class="edge">
<title>Node11&#45;&gt;Node17</title>
<path fill="none" stroke="#191970" d="M500.3221,-515.2455C509.9223,-506.9746 523.8892,-494.9416 535.1695,-485.2232"/>
<polygon fill="#191970" stroke="#191970" points="537.516,-487.8214 542.8076,-478.6427 532.947,-482.5182 537.516,-487.8214"/>
</g>
<!-- Node12&#45;&gt;Node5 -->
<g id="edge19" class="edge">
<title>Node12&#45;&gt;Node5</title>
<path fill="none" stroke="#191970" d="M525.9905,-403.474C574.2666,-388.2647 654,-353.5286 654,-290 654,-290 654,-290 654,-178 654,-141.1826 629.2325,-104.2377 612.3499,-83.3313"/>
<polygon fill="#191970" stroke="#191970" points="615.0131,-81.06 605.9063,-75.6456 609.6489,-85.5574 615.0131,-81.06"/>
</g>
<!-- Node12&#45;&gt;Node8 -->
<g id="edge18" class="edge">
<title>Node12&#45;&gt;Node8</title>
<path fill="none" stroke="#191970" d="M504.6852,-403.2577C515.6154,-395.0536 529.6898,-382.2342 536,-367 541.2725,-354.271 540.5035,-349.021 536,-336 513.0738,-269.713 444.0409,-217.6278 406.3061,-193.1917"/>
<polygon fill="#191970" stroke="#191970" points="407.7568,-189.9681 397.4339,-187.583 404.0163,-195.885 407.7568,-189.9681"/>
</g>
<!-- Node13 -->
<g id="node14" class="node">
<title>Node13</title>
<g id="a_node14"><a xlink:href="l4_2sys_2utcb_8h.html" target="_top" xlink:title="UTCB definitions. ">
<polygon fill="#ffffff" stroke="#000000" points="344,-224.5 344,-243.5 418,-243.5 418,-224.5 344,-224.5"/>
<text text-anchor="middle" x="381" y="-231.5" font-family="Helvetica,sans-Serif" font-size="10.00" fill="#000000">l4/sys/utcb.h</text>
</a>
</g>
</g>
<!-- Node12&#45;&gt;Node13 -->
<g id="edge20" class="edge">
<title>Node12&#45;&gt;Node13</title>
<path fill="none" stroke="#191970" d="M445.8461,-406.2892C422.3587,-400.2281 395.4202,-388.7373 381,-367 358.1247,-332.5174 367.2768,-281.1354 374.8254,-253.4132"/>
<polygon fill="#191970" stroke="#191970" points="378.2128,-254.2998 377.6681,-243.7189 371.4956,-252.33 378.2128,-254.2998"/>
</g>
<!-- Node14 -->
<g id="node15" class="node">
<title>Node14</title>
<g id="a_node15"><a xlink:href="____kernel__object__impl_8h.html" target="_top" xlink:title="Low&#45;level kernel debugger functions. ">
<polygon fill="#ffffff" stroke="#000000" points="390,-336.5 390,-366.5 512,-366.5 512,-336.5 390,-336.5"/>
<text text-anchor="start" x="398" y="-354.5" font-family="Helvetica,sans-Serif" font-size="10.00" fill="#000000">l4/sys/__kernel_object</text>
<text text-anchor="middle" x="451" y="-343.5" font-family="Helvetica,sans-Serif" font-size="10.00" fill="#000000">_impl.h</text>
</a>
</g>
</g>
<!-- Node12&#45;&gt;Node14 -->
<g id="edge24" class="edge">
<title>Node12&#45;&gt;Node14</title>
<path fill="none" stroke="#191970" d="M483.9063,-403.3906C479.1168,-395.838 472.236,-384.9876 466.0035,-375.1593"/>
<polygon fill="#191970" stroke="#191970" points="468.8517,-373.1153 460.5405,-366.5446 462.9402,-376.8641 468.8517,-373.1153"/>
</g>
<!-- Node15 -->
<g id="node16" class="node">
<title>Node15</title>
<g id="a_node16"><a xlink:href="l4_2sys_2ipc_8h.html" target="_top" xlink:title="Common IPC interface. ">
<polygon fill="#ffffff" stroke="#000000" points="415,-280.5 415,-299.5 483,-299.5 483,-280.5 415,-280.5"/>
<text text-anchor="middle" x="449" y="-287.5" font-family="Helvetica,sans-Serif" font-size="10.00" fill="#000000">l4/sys/ipc.h</text>
</a>
</g>
</g>
<!-- Node12&#45;&gt;Node15 -->
<g id="edge30" class="edge">
<title>Node12&#45;&gt;Node15</title>
<path fill="none" stroke="#191970" d="M499.4319,-403.184C512.6162,-388.2166 533.6003,-359.0026 521,-336 513.2413,-321.836 499.0591,-311.3995 485.3205,-304.0818"/>
<polygon fill="#191970" stroke="#191970" points="486.4854,-300.7555 475.9644,-299.5066 483.4102,-307.0438 486.4854,-300.7555"/>
</g>
<!-- Node13&#45;&gt;Node5 -->
<g id="edge22" class="edge">
<title>Node13&#45;&gt;Node5</title>
<path fill="none" stroke="#191970" d="M418.0469,-225.254C463.4477,-212.5697 539.4471,-184.61 581,-132 591.3793,-118.8588 595.1666,-99.9836 596.4815,-85.782"/>
<polygon fill="#191970" stroke="#191970" points="599.9875,-85.7829 597.0848,-75.5935 592.9998,-85.3691 599.9875,-85.7829"/>
</g>
<!-- Node13&#45;&gt;Node7 -->
<g id="edge23" class="edge">
<title>Node13&#45;&gt;Node7</title>
<path fill="none" stroke="#191970" d="M343.7348,-224.9505C300.6247,-212.2634 231.653,-184.6025 201,-132 191.8157,-116.2392 202.4895,-97.0313 213.3865,-83.4102"/>
<polygon fill="#191970" stroke="#191970" points="216.1323,-85.5858 220.0248,-75.7319 210.8369,-81.0076 216.1323,-85.5858"/>
</g>
<!-- Node13&#45;&gt;Node8 -->
<g id="edge21" class="edge">
<title>Node13&#45;&gt;Node8</title>
<path fill="none" stroke="#191970" d="M381,-224.2455C381,-216.9382 381,-206.6944 381,-197.7046"/>
<polygon fill="#191970" stroke="#191970" points="384.5001,-197.6426 381,-187.6427 377.5001,-197.6427 384.5001,-197.6426"/>
</g>
<!-- Node14&#45;&gt;Node15 -->
<g id="edge25" class="edge">
<title>Node14&#45;&gt;Node15</title>
<path fill="none" stroke="#191970" d="M450.5056,-336.2977C450.2482,-328.3834 449.9302,-318.6043 449.6529,-310.0759"/>
<polygon fill="#191970" stroke="#191970" points="453.1435,-309.7279 449.3202,-299.8469 446.1472,-309.9554 453.1435,-309.7279"/>
</g>
<!-- Node15&#45;&gt;Node8 -->
<g id="edge26" class="edge">
<title>Node15&#45;&gt;Node8</title>
<path fill="none" stroke="#191970" d="M447.2653,-280.4458C444.5237,-267.0527 438.3027,-242.2882 427,-224 420.181,-212.9666 410.2226,-202.5751 401.3139,-194.47"/>
<polygon fill="#191970" stroke="#191970" points="403.3904,-191.6374 393.5477,-187.7165 398.797,-196.9196 403.3904,-191.6374"/>
</g>
<!-- Node15&#45;&gt;Node13 -->
<g id="edge27" class="edge">
<title>Node15&#45;&gt;Node13</title>
<path fill="none" stroke="#191970" d="M437.1553,-280.2455C427.112,-271.9746 412.5005,-259.9416 400.6996,-250.2232"/>
<polygon fill="#191970" stroke="#191970" points="402.6533,-247.298 392.709,-243.6427 398.2033,-252.7015 402.6533,-247.298"/>
</g>
<!-- Node16 -->
<g id="node17" class="node">
<title>Node16</title>
<g id="a_node17"><a xlink:href="err_8h.html" target="_top" xlink:title="Error codes. ">
<polygon fill="#ffffff" stroke="#000000" points="720,-224.5 720,-243.5 788,-243.5 788,-224.5 720,-224.5"/>
<text text-anchor="middle" x="754" y="-231.5" font-family="Helvetica,sans-Serif" font-size="10.00" fill="#000000">l4/sys/err.h</text>
</a>
</g>
</g>
<!-- Node15&#45;&gt;Node16 -->
<g id="edge28" class="edge">
<title>Node15&#45;&gt;Node16</title>
<path fill="none" stroke="#191970" d="M483.0996,-283.7391C538.4981,-273.5676 648.0264,-253.4574 709.4887,-242.1726"/>
<polygon fill="#191970" stroke="#191970" points="710.4499,-245.5547 719.6534,-240.3063 709.1857,-238.6698 710.4499,-245.5547"/>
</g>
<!-- Node16&#45;&gt;Node5 -->
<g id="edge29" class="edge">
<title>Node16&#45;&gt;Node5</title>
<path fill="none" stroke="#191970" d="M748.8176,-224.1975C736.8343,-202.1796 705.358,-147.924 668,-112 655.2695,-99.7581 638.833,-88.8673 624.9811,-80.7594"/>
<polygon fill="#191970" stroke="#191970" points="626.3082,-77.4888 615.8815,-75.6085 622.8598,-83.5806 626.3082,-77.4888"/>
</g>
<!-- Node18 -->
<g id="node19" class="node">
<title>Node18</title>
<g id="a_node19"><a xlink:href="types.html" target="_top" xlink:title="cxx/types">
<polygon fill="#ffffff" stroke="#000000" points="796.5,-342 796.5,-361 857.5,-361 857.5,-342 796.5,-342"/>
<text text-anchor="middle" x="827" y="-349" font-family="Helvetica,sans-Serif" font-size="10.00" fill="#000000">cxx/types</text>
</a>
</g>
</g>
<!-- Node17&#45;&gt;Node18 -->
<g id="edge33" class="edge">
<title>Node17&#45;&gt;Node18</title>
<path fill="none" stroke="#191970" d="M574.9353,-459.3787C594.6633,-450.24 624.9944,-436.0028 651,-423 668.0704,-414.4648 671.5799,-410.7967 689,-403 721.9493,-388.253 760.5218,-374.1102 788.4972,-364.3893"/>
<polygon fill="#191970" stroke="#191970" points="789.9792,-367.5808 798.2945,-361.0151 787.6998,-360.9623 789.9792,-367.5808"/>
</g>
<!-- Node19 -->
<g id="node20" class="node">
<title>Node19</title>
<g id="a_node20"><a xlink:href="ipc__basics_source.html" target="_top" xlink:title="cxx/ipc_basics">
<polygon fill="#ffffff" stroke="#000000" points="698,-403.5 698,-422.5 782,-422.5 782,-403.5 698,-403.5"/>
<text text-anchor="middle" x="740" y="-410.5" font-family="Helvetica,sans-Serif" font-size="10.00" fill="#000000">cxx/ipc_basics</text>
</a>
</g>
</g>
<!-- Node17&#45;&gt;Node19 -->
<g id="edge34" class="edge">
<title>Node17&#45;&gt;Node19</title>
<path fill="none" stroke="#191970" d="M585.9745,-459.3733C617.1713,-449.9807 664.771,-435.6496 698.7932,-425.4064"/>
<polygon fill="#191970" stroke="#191970" points="699.8763,-428.7355 708.4427,-422.5011 697.8582,-422.0327 699.8763,-428.7355"/>
</g>
<!-- Node20 -->
<g id="node21" class="node">
<title>Node20</title>
<g id="a_node21"><a xlink:href="capability_8h_source.html" target="_top" xlink:title="cxx/capability.h">
<polygon fill="#ffffff" stroke="#000000" points="554.5,-403.5 554.5,-422.5 641.5,-422.5 641.5,-403.5 554.5,-403.5"/>
<text text-anchor="middle" x="598" y="-410.5" font-family="Helvetica,sans-Serif" font-size="10.00" fill="#000000">cxx/capability.h</text>
</a>
</g>
</g>
<!-- Node17&#45;&gt;Node20 -->
<g id="edge38" class="edge">
<title>Node17&#45;&gt;Node20</title>
<path fill="none" stroke="#191970" d="M561.6642,-459.2455C567.8473,-451.3761 576.7063,-440.101 584.1289,-430.6542"/>
<polygon fill="#191970" stroke="#191970" points="586.9975,-432.6683 590.4236,-422.6427 581.4932,-428.3435 586.9975,-432.6683"/>
</g>
<!-- Node19&#45;&gt;Node13 -->
<g id="edge36" class="edge">
<title>Node19&#45;&gt;Node13</title>
<path fill="none" stroke="#191970" d="M723.4556,-403.3849C684.0332,-380.6388 581.1817,-322.2646 492,-280 466.7125,-268.0159 437.4473,-255.9602 415.3169,-247.1987"/>
<polygon fill="#191970" stroke="#191970" points="416.5842,-243.9362 405.9969,-243.5364 414.024,-250.4513 416.5842,-243.9362"/>
</g>
<!-- Node19&#45;&gt;Node16 -->
<g id="edge37" class="edge">
<title>Node19&#45;&gt;Node16</title>
<path fill="none" stroke="#191970" d="M740.8598,-403.488C741.6927,-394.1878 742.9766,-379.6243 744,-367 747.2597,-326.7908 750.7141,-279.7124 752.5884,-253.7368"/>
<polygon fill="#191970" stroke="#191970" points="756.0851,-253.9072 753.311,-243.682 749.1031,-253.4054 756.0851,-253.9072"/>
</g>
<!-- Node19&#45;&gt;Node18 -->
<g id="edge35" class="edge">
<title>Node19&#45;&gt;Node18</title>
<path fill="none" stroke="#191970" d="M753.5938,-403.3906C767.3843,-393.6421 788.9472,-378.3994 805.141,-366.9521"/>
<polygon fill="#191970" stroke="#191970" points="807.3563,-369.6723 813.5017,-361.0419 803.3156,-363.9563 807.3563,-369.6723"/>
</g>
<!-- Node20&#45;&gt;Node4 -->
<g id="edge39" class="edge">
<title>Node20&#45;&gt;Node4</title>
<path fill="none" stroke="#191970" d="M623.885,-403.4647C639.7227,-396.1252 658.6794,-384.2779 668,-367 674.5413,-354.8741 674.1788,-348.3146 668,-336 614.4452,-229.2633 479.6123,-162.1992 415.6728,-135.3813"/>
<polygon fill="#191970" stroke="#191970" points="416.9865,-132.1372 406.4069,-131.5695 414.3233,-138.6108 416.9865,-132.1372"/>
</g>
<!-- Node20&#45;&gt;Node8 -->
<g id="edge40" class="edge">
<title>Node20&#45;&gt;Node8</title>
<path fill="none" stroke="#191970" d="M594.4507,-403.4839C582.4558,-372.6355 540.3732,-274.4806 473,-224 455.3953,-210.8093 433.4304,-199.6619 415.378,-191.6456"/>
<polygon fill="#191970" stroke="#191970" points="416.3727,-188.2632 405.8039,-187.5212 413.6032,-194.6921 416.3727,-188.2632"/>
</g>
<!-- Node20&#45;&gt;Node21 -->
<g id="edge41" class="edge">
<title>Node20&#45;&gt;Node21</title>
<path fill="none" stroke="#191970" d="M554.232,-404.0574C498.2434,-392.6178 401.6522,-372.8824 344.1037,-361.1242"/>
<polygon fill="#191970" stroke="#191970" points="344.6756,-357.6688 334.1773,-359.096 343.2743,-364.5271 344.6756,-357.6688"/>
</g>
<!-- Node21&#45;&gt;Node8 -->
<g id="edge42" class="edge">
<title>Node21&#45;&gt;Node8</title>
<path fill="none" stroke="#191970" d="M298.2167,-341.8956C301.3601,-319.7355 311.2291,-263.8791 335,-224 341.6411,-212.8586 351.5812,-202.456 360.5238,-194.3715"/>
<polygon fill="#191970" stroke="#191970" points="363.041,-196.8227 368.3328,-187.644 358.4721,-191.5193 363.041,-196.8227"/>
</g>
<!-- Node21&#45;&gt;Node13 -->
<g id="edge43" class="edge">
<title>Node21&#45;&gt;Node13</title>
<path fill="none" stroke="#191970" d="M303.9209,-341.7795C313.7213,-328.0187 332.2096,-302.0741 348,-280 354.635,-270.7246 362.0347,-260.4074 368.1429,-251.8982"/>
<polygon fill="#191970" stroke="#191970" points="371.1769,-253.6736 374.1667,-243.5094 365.4909,-249.5907 371.1769,-253.6736"/>
</g>
<!-- Node21&#45;&gt;Node15 -->
<g id="edge44" class="edge">
<title>Node21&#45;&gt;Node15</title>
<path fill="none" stroke="#191970" d="M320.75,-341.8906C346.2939,-331.5554 387.1009,-315.0447 415.811,-303.4284"/>
<polygon fill="#191970" stroke="#191970" points="417.4596,-306.5371 425.4168,-299.5419 414.834,-300.0481 417.4596,-306.5371"/>
</g>
<!-- Node22&#45;&gt;Node11 -->
<g id="edge47" class="edge">
<title>Node22&#45;&gt;Node11</title>
<path fill="none" stroke="#191970" d="M528.3338,-627.4509C521.2572,-609.0186 505.5955,-568.2254 496.3112,-544.043"/>
<polygon fill="#191970" stroke="#191970" points="499.5086,-542.606 492.6569,-534.5249 492.9737,-545.115 499.5086,-542.606"/>
</g>
<!-- Node23 -->
<g id="node24" class="node">
<title>Node23</title>
<g id="a_node24"><a xlink:href="ipc__iface.html" target="_top" xlink:title="Interface Definition Language. ">
<polygon fill="#ffffff" stroke="#000000" points="550.5,-515.5 550.5,-534.5 627.5,-534.5 627.5,-515.5 550.5,-515.5"/>
<text text-anchor="middle" x="589" y="-522.5" font-family="Helvetica,sans-Serif" font-size="10.00" fill="#000000">cxx/ipc_iface</text>
</a>
</g>
</g>
<!-- Node22&#45;&gt;Node23 -->
<g id="edge48" class="edge">
<title>Node22&#45;&gt;Node23</title>
<path fill="none" stroke="#191970" d="M536.8598,-627.4509C546.2826,-608.936 567.1878,-567.8591 579.4735,-543.7187"/>
<polygon fill="#191970" stroke="#191970" points="582.7361,-545.0246 584.1525,-534.5249 576.4975,-541.8496 582.7361,-545.0246"/>
</g>
<!-- Node25 -->
<g id="node26" class="node">
<title>Node25</title>
<g id="a_node26"><a xlink:href="ipc__string_source.html" target="_top" xlink:title="cxx/ipc_string">
<polygon fill="#ffffff" stroke="#000000" points="624.5,-571.5 624.5,-590.5 705.5,-590.5 705.5,-571.5 624.5,-571.5"/>
<text text-anchor="middle" x="665" y="-578.5" font-family="Helvetica,sans-Serif" font-size="10.00" fill="#000000">cxx/ipc_string</text>
</a>
</g>
</g>
<!-- Node22&#45;&gt;Node25 -->
<g id="edge55" class="edge">
<title>Node22&#45;&gt;Node25</title>
<path fill="none" stroke="#191970" d="M554.8635,-627.3733C576.405,-618.3032 608.8838,-604.6279 632.9956,-594.4755"/>
<polygon fill="#191970" stroke="#191970" points="634.5767,-597.6075 642.4348,-590.5011 631.8603,-591.156 634.5767,-597.6075"/>
</g>
<!-- Node23&#45;&gt;Node17 -->
<g id="edge54" class="edge">
<title>Node23&#45;&gt;Node17</title>
<path fill="none" stroke="#191970" d="M582.9035,-515.2455C578.0855,-507.5367 571.2249,-496.5598 565.3968,-487.2348"/>
<polygon fill="#191970" stroke="#191970" points="568.2947,-485.2677 560.0267,-478.6427 562.3587,-488.9777 568.2947,-485.2677"/>
</g>
<!-- Node23&#45;&gt;Node19 -->
<g id="edge49" class="edge">
<title>Node23&#45;&gt;Node19</title>
<path fill="none" stroke="#191970" d="M594.9028,-515.3451C603.8418,-501.3798 622.0123,-475.4217 643,-459 660.7497,-445.1119 683.3735,-434.0806 702.3065,-426.3059"/>
<polygon fill="#191970" stroke="#191970" points="703.8148,-429.4732 711.8254,-422.5392 701.2391,-422.9643 703.8148,-429.4732"/>
</g>
<!-- Node24 -->
<g id="node25" class="node">
<title>Node24</title>
<g id="a_node25"><a xlink:href="ipc__types.html" target="_top" xlink:title="l4/sys/cxx/ipc_types">
<polygon fill="#ffffff" stroke="#000000" points="685,-459.5 685,-478.5 795,-478.5 795,-459.5 685,-459.5"/>
<text text-anchor="middle" x="740" y="-466.5" font-family="Helvetica,sans-Serif" font-size="10.00" fill="#000000">l4/sys/cxx/ipc_types</text>
</a>
</g>
</g>
<!-- Node23&#45;&gt;Node24 -->
<g id="edge50" class="edge">
<title>Node23&#45;&gt;Node24</title>
<path fill="none" stroke="#191970" d="M614.9578,-515.3733C639.7407,-506.1822 677.2746,-492.2624 704.754,-482.0713"/>
<polygon fill="#191970" stroke="#191970" points="706.2219,-485.26 714.3809,-478.5011 703.7879,-478.6968 706.2219,-485.26"/>
</g>
<!-- Node24&#45;&gt;Node18 -->
<g id="edge52" class="edge">
<title>Node24&#45;&gt;Node18</title>
<path fill="none" stroke="#191970" d="M753.411,-459.1854C764.5072,-450.569 780.1522,-437.2203 791,-423 803.3278,-406.8397 813.3195,-385.8083 819.6208,-370.7456"/>
<polygon fill="#191970" stroke="#191970" points="822.8935,-371.9882 823.377,-361.4044 816.3989,-369.3766 822.8935,-371.9882"/>
</g>
<!-- Node24&#45;&gt;Node19 -->
<g id="edge53" class="edge">
<title>Node24&#45;&gt;Node19</title>
<path fill="none" stroke="#191970" d="M740,-459.2455C740,-451.9382 740,-441.6944 740,-432.7046"/>
<polygon fill="#191970" stroke="#191970" points="743.5001,-432.6426 740,-422.6427 736.5001,-432.6427 743.5001,-432.6426"/>
</g>
<!-- Node24&#45;&gt;Node20 -->
<g id="edge51" class="edge">
<title>Node24&#45;&gt;Node20</title>
<path fill="none" stroke="#191970" d="M715.5893,-459.3733C692.3858,-450.2226 657.2962,-436.3844 631.4858,-426.2057"/>
<polygon fill="#191970" stroke="#191970" points="632.6789,-422.9139 622.0921,-422.5011 630.1108,-429.4258 632.6789,-422.9139"/>
</g>
<!-- Node25&#45;&gt;Node18 -->
<g id="edge56" class="edge">
<title>Node25&#45;&gt;Node18</title>
<path fill="none" stroke="#191970" d="M705.8117,-573.8608C746.8011,-565.8751 806.1041,-551.8274 822,-535 862.8422,-491.7646 853.4414,-461.7217 844,-403 842.2218,-391.9405 838.425,-380.038 834.8697,-370.4644"/>
<polygon fill="#191970" stroke="#191970" points="838.1226,-369.1724 831.2136,-361.1402 831.6057,-371.7278 838.1226,-369.1724"/>
</g>
<!-- Node25&#45;&gt;Node19 -->
<g id="edge57" class="edge">
<title>Node25&#45;&gt;Node19</title>
<path fill="none" stroke="#191970" d="M663.3215,-571.3429C660.0602,-549.6229 654.912,-495.9371 676,-459 683.6429,-445.6129 696.953,-435.1 709.4625,-427.5241"/>
<polygon fill="#191970" stroke="#191970" points="711.3404,-430.4835 718.3372,-422.5276 707.9062,-424.3837 711.3404,-430.4835"/>
</g>
<!-- Node26 -->
<g id="node27" class="node">
<title>Node26</title>
<g id="a_node27"><a xlink:href="ipc__array_source.html" target="_top" xlink:title="ipc_array">
<polygon fill="#ffffff" stroke="#000000" points="751.5,-515.5 751.5,-534.5 812.5,-534.5 812.5,-515.5 751.5,-515.5"/>
<text text-anchor="middle" x="782" y="-522.5" font-family="Helvetica,sans-Serif" font-size="10.00" fill="#000000">ipc_array</text>
</a>
</g>
</g>
<!-- Node25&#45;&gt;Node26 -->
<g id="edge58" class="edge">
<title>Node25&#45;&gt;Node26</title>
<path fill="none" stroke="#191970" d="M685.113,-571.3733C703.8103,-562.4241 731.8744,-548.9917 752.9934,-538.8835"/>
<polygon fill="#191970" stroke="#191970" points="754.6405,-541.9755 762.1494,-534.5011 751.6183,-535.6614 754.6405,-541.9755"/>
</g>
<!-- Node26&#45;&gt;Node18 -->
<g id="edge59" class="edge">
<title>Node26&#45;&gt;Node18</title>
<path fill="none" stroke="#191970" d="M792.9179,-515.2433C801.693,-506.6623 813.4404,-493.3329 819,-479 832.9737,-442.9753 831.6331,-396.9332 829.3505,-371.1927"/>
<polygon fill="#191970" stroke="#191970" points="832.8273,-370.7863 828.3219,-361.1972 825.8641,-371.503 832.8273,-370.7863"/>
</g>
<!-- Node26&#45;&gt;Node19 -->
<g id="edge60" class="edge">
<title>Node26&#45;&gt;Node19</title>
<path fill="none" stroke="#191970" d="M789.9441,-515.2341C799.6635,-502.0177 813.6992,-477.9158 804,-459 797.067,-445.4789 784.1064,-435.0326 771.6519,-427.5377"/>
<polygon fill="#191970" stroke="#191970" points="773.2072,-424.3979 762.766,-422.6001 769.8072,-430.5168 773.2072,-424.3979"/>
</g>
<!-- Node26&#45;&gt;Node24 -->
<g id="edge61" class="edge">
<title>Node26&#45;&gt;Node24</title>
<path fill="none" stroke="#191970" d="M774.6842,-515.2455C768.7821,-507.3761 760.3258,-496.101 753.2406,-486.6542"/>
<polygon fill="#191970" stroke="#191970" points="756.0321,-484.5427 747.232,-478.6427 750.432,-488.7427 756.0321,-484.5427"/>
</g>
</g>
</svg>
