<?xml version="1.0" encoding="UTF-8" standalone="no"?>
<!DOCTYPE svg PUBLIC "-//W3C//DTD SVG 1.1//EN"
 "http://www.w3.org/Graphics/SVG/1.1/DTD/svg11.dtd">
<!-- Generated by graphviz version 2.40.1 (20161225.0304)
 -->
<!-- Title: l4/util/bitops.h Pages: 1 -->
<svg width="259pt" height="196pt"
 viewBox="0.00 0.00 259.03 196.00" xmlns="http://www.w3.org/2000/svg" xmlns:xlink="http://www.w3.org/1999/xlink">
<g id="graph0" class="graph" transform="scale(1 1) rotate(0) translate(4 192)">
<title>l4/util/bitops.h</title>
<polygon fill="#ffffff" stroke="transparent" points="-4,4 -4,-192 255.0258,-192 255.0258,4 -4,4"/>
<!-- Node0 -->
<g id="node1" class="node">
<title>Node0</title>
<polygon fill="#bfbfbf" stroke="#000000" points="88,-168.5 88,-187.5 168,-187.5 168,-168.5 88,-168.5"/>
<text text-anchor="middle" x="128" y="-175.5" font-family="Helvetica,sans-Serif" font-size="10.00" fill="#000000">l4/util/bitops.h</text>
</g>
<!-- Node1 -->
<g id="node2" class="node">
<title>Node1</title>
<g id="a_node2"><a xlink:href="l4_2sys_2l4int_8h.html" target="_top" xlink:title="Fixed sized integer types, generic version. ">
<polygon fill="#ffffff" stroke="#000000" points="0,-56.5 0,-75.5 74,-75.5 74,-56.5 0,-56.5"/>
<text text-anchor="middle" x="37" y="-63.5" font-family="Helvetica,sans-Serif" font-size="10.00" fill="#000000">l4/sys/l4int.h</text>
</a>
</g>
</g>
<!-- Node0&#45;&gt;Node1 -->
<g id="edge1" class="edge">
<title>Node0&#45;&gt;Node1</title>
<path fill="none" stroke="#191970" d="M87.8772,-171.9015C64.0946,-165.9984 35.7917,-154.4597 21,-132 11.6213,-117.7593 17.9459,-98.5445 25.2243,-84.5207"/>
<polygon fill="#191970" stroke="#191970" points="28.3051,-86.1839 30.2343,-75.7662 22.2296,-82.707 28.3051,-86.1839"/>
</g>
<!-- Node2 -->
<g id="node3" class="node">
<title>Node2</title>
<g id="a_node3"><a xlink:href="compiler_8h.html" target="_top" xlink:title="L4 compiler related defines. ">
<polygon fill="#ffffff" stroke="#000000" points="155.5,-56.5 155.5,-75.5 250.5,-75.5 250.5,-56.5 155.5,-56.5"/>
<text text-anchor="middle" x="203" y="-63.5" font-family="Helvetica,sans-Serif" font-size="10.00" fill="#000000">l4/sys/compiler.h</text>
</a>
</g>
</g>
<!-- Node0&#45;&gt;Node2 -->
<g id="edge2" class="edge">
<title>Node0&#45;&gt;Node2</title>
<path fill="none" stroke="#191970" d="M165.6371,-168.4397C196.7843,-159.6768 237.419,-145.9756 247,-132 258.6041,-115.0734 241.7881,-95.4883 225.7076,-82.0757"/>
<polygon fill="#191970" stroke="#191970" points="227.553,-79.0757 217.5201,-75.6712 223.2402,-84.5892 227.553,-79.0757"/>
</g>
<!-- Node4 -->
<g id="node5" class="node">
<title>Node4</title>
<polygon fill="#ffffff" stroke="#bfbfbf" points="131.5,-112.5 131.5,-131.5 238.5,-131.5 238.5,-112.5 131.5,-112.5"/>
<text text-anchor="middle" x="185" y="-119.5" font-family="Helvetica,sans-Serif" font-size="10.00" fill="#000000">l4/util/bitops_arch.h</text>
</g>
<!-- Node0&#45;&gt;Node4 -->
<g id="edge4" class="edge">
<title>Node0&#45;&gt;Node4</title>
<path fill="none" stroke="#191970" d="M137.9286,-168.2455C146.1838,-160.1352 158.1209,-148.4075 167.9082,-138.7919"/>
<polygon fill="#191970" stroke="#191970" points="170.5046,-141.1476 175.1851,-131.6427 165.5989,-136.1542 170.5046,-141.1476"/>
</g>
<!-- Node5 -->
<g id="node6" class="node">
<title>Node5</title>
<g id="a_node6"><a xlink:href="l4_2util_2atomic_8h.html" target="_top" xlink:title="atomic operations header and generic implementations ">
<polygon fill="#ffffff" stroke="#000000" points="30.5,-112.5 30.5,-131.5 113.5,-131.5 113.5,-112.5 30.5,-112.5"/>
<text text-anchor="middle" x="72" y="-119.5" font-family="Helvetica,sans-Serif" font-size="10.00" fill="#000000">l4/util/atomic.h</text>
</a>
</g>
</g>
<!-- Node0&#45;&gt;Node5 -->
<g id="edge5" class="edge">
<title>Node0&#45;&gt;Node5</title>
<path fill="none" stroke="#191970" d="M118.2455,-168.2455C110.1352,-160.1352 98.4075,-148.4075 88.7919,-138.7919"/>
<polygon fill="#191970" stroke="#191970" points="91.1887,-136.2389 81.6427,-131.6427 86.2389,-141.1887 91.1887,-136.2389"/>
</g>
<!-- Node3 -->
<g id="node4" class="node">
<title>Node3</title>
<polygon fill="#ffffff" stroke="#bfbfbf" points="158.5,-.5 158.5,-19.5 247.5,-19.5 247.5,-.5 158.5,-.5"/>
<text text-anchor="middle" x="203" y="-7.5" font-family="Helvetica,sans-Serif" font-size="10.00" fill="#000000">l4/sys/linkage.h</text>
</g>
<!-- Node2&#45;&gt;Node3 -->
<g id="edge3" class="edge">
<title>Node2&#45;&gt;Node3</title>
<path fill="none" stroke="#191970" d="M203,-56.2455C203,-48.9382 203,-38.6944 203,-29.7046"/>
<polygon fill="#191970" stroke="#191970" points="206.5001,-29.6426 203,-19.6427 199.5001,-29.6427 206.5001,-29.6426"/>
</g>
<!-- Node5&#45;&gt;Node1 -->
<g id="edge6" class="edge">
<title>Node5&#45;&gt;Node1</title>
<path fill="none" stroke="#191970" d="M65.9035,-112.2455C61.0855,-104.5367 54.2249,-93.5598 48.3968,-84.2348"/>
<polygon fill="#191970" stroke="#191970" points="51.2947,-82.2677 43.0267,-75.6427 45.3587,-85.9777 51.2947,-82.2677"/>
</g>
<!-- Node5&#45;&gt;Node2 -->
<g id="edge7" class="edge">
<title>Node5&#45;&gt;Node2</title>
<path fill="none" stroke="#191970" d="M94.5197,-112.3733C115.7372,-103.3032 147.7276,-89.6279 171.4769,-79.4755"/>
<polygon fill="#191970" stroke="#191970" points="172.9548,-82.6502 180.7742,-75.5011 170.2033,-76.2136 172.9548,-82.6502"/>
</g>
</g>
</svg>
