<?xml version="1.0" encoding="UTF-8" standalone="no"?>
<!DOCTYPE svg PUBLIC "-//W3C//DTD SVG 1.1//EN"
 "http://www.w3.org/Graphics/SVG/1.1/DTD/svg11.dtd">
<!-- Generated by graphviz version 2.40.1 (20161225.0304)
 -->
<!-- Title: l4/cxx/bits/bst.h Pages: 1 -->
<svg width="207pt" height="140pt"
 viewBox="0.00 0.00 207.00 140.00" xmlns="http://www.w3.org/2000/svg" xmlns:xlink="http://www.w3.org/1999/xlink">
<g id="graph0" class="graph" transform="scale(1 1) rotate(0) translate(4 136)">
<title>l4/cxx/bits/bst.h</title>
<polygon fill="#ffffff" stroke="transparent" points="-4,4 -4,-136 203,-136 203,4 -4,4"/>
<!-- Node0 -->
<g id="node1" class="node">
<title>Node0</title>
<polygon fill="#bfbfbf" stroke="#000000" points="68,-112.5 68,-131.5 155,-131.5 155,-112.5 68,-112.5"/>
<text text-anchor="middle" x="111.5" y="-119.5" font-family="Helvetica,sans-Serif" font-size="10.00" fill="#000000">l4/cxx/bits/bst.h</text>
</g>
<!-- Node1 -->
<g id="node2" class="node">
<title>Node1</title>
<g id="a_node2"><a xlink:href="type__traits_source.html" target="_top" xlink:title="../type_traits">
<polygon fill="#ffffff" stroke="#000000" points="9.5,-56.5 9.5,-75.5 83.5,-75.5 83.5,-56.5 9.5,-56.5"/>
<text text-anchor="middle" x="46.5" y="-63.5" font-family="Helvetica,sans-Serif" font-size="10.00" fill="#000000">../type_traits</text>
</a>
</g>
</g>
<!-- Node0&#45;&gt;Node1 -->
<g id="edge1" class="edge">
<title>Node0&#45;&gt;Node1</title>
<path fill="none" stroke="#191970" d="M100.1779,-112.2455C90.5777,-103.9746 76.6108,-91.9416 65.3305,-82.2232"/>
<polygon fill="#191970" stroke="#191970" points="67.553,-79.5182 57.6924,-75.6427 62.984,-84.8214 67.553,-79.5182"/>
</g>
<!-- Node3 -->
<g id="node4" class="node">
<title>Node3</title>
<g id="a_node4"><a xlink:href="bst__base_8h.html" target="_top" xlink:title="AVL tree. ">
<polygon fill="#ffffff" stroke="#000000" points="123,-.5 123,-19.5 190,-19.5 190,-.5 123,-.5"/>
<text text-anchor="middle" x="156.5" y="-7.5" font-family="Helvetica,sans-Serif" font-size="10.00" fill="#000000">bst_base.h</text>
</a>
</g>
</g>
<!-- Node0&#45;&gt;Node3 -->
<g id="edge3" class="edge">
<title>Node0&#45;&gt;Node3</title>
<path fill="none" stroke="#191970" d="M113.7572,-112.3881C116.9664,-99.3461 123.3712,-75.4413 131.5,-56 135.4314,-46.5974 140.7148,-36.6069 145.4118,-28.3472"/>
<polygon fill="#191970" stroke="#191970" points="148.5095,-29.9835 150.54,-19.5851 142.4681,-26.4477 148.5095,-29.9835"/>
</g>
<!-- Node4 -->
<g id="node5" class="node">
<title>Node4</title>
<g id="a_node5"><a xlink:href="bst__iter_8h.html" target="_top" xlink:title="AVL tree. ">
<polygon fill="#ffffff" stroke="#000000" points="140,-56.5 140,-75.5 199,-75.5 199,-56.5 140,-56.5"/>
<text text-anchor="middle" x="169.5" y="-63.5" font-family="Helvetica,sans-Serif" font-size="10.00" fill="#000000">bst_iter.h</text>
</a>
</g>
</g>
<!-- Node0&#45;&gt;Node4 -->
<g id="edge4" class="edge">
<title>Node0&#45;&gt;Node4</title>
<path fill="none" stroke="#191970" d="M121.6028,-112.2455C130.0028,-104.1352 142.1494,-92.4075 152.1084,-82.7919"/>
<polygon fill="#191970" stroke="#191970" points="154.75,-85.1066 159.5129,-75.6427 149.8878,-80.0707 154.75,-85.1066"/>
</g>
<!-- Node2 -->
<g id="node3" class="node">
<title>Node2</title>
<g id="a_node3"><a xlink:href="type__traits_8h_source.html" target="_top" xlink:title="bits/type_traits.h">
<polygon fill="#ffffff" stroke="#000000" points="0,-.5 0,-19.5 93,-19.5 93,-.5 0,-.5"/>
<text text-anchor="middle" x="46.5" y="-7.5" font-family="Helvetica,sans-Serif" font-size="10.00" fill="#000000">bits/type_traits.h</text>
</a>
</g>
</g>
<!-- Node1&#45;&gt;Node2 -->
<g id="edge2" class="edge">
<title>Node1&#45;&gt;Node2</title>
<path fill="none" stroke="#191970" d="M46.5,-56.2455C46.5,-48.9382 46.5,-38.6944 46.5,-29.7046"/>
<polygon fill="#191970" stroke="#191970" points="50.0001,-29.6426 46.5,-19.6427 43.0001,-29.6427 50.0001,-29.6426"/>
</g>
<!-- Node4&#45;&gt;Node3 -->
<g id="edge5" class="edge">
<title>Node4&#45;&gt;Node3</title>
<path fill="none" stroke="#191970" d="M167.2356,-56.2455C165.5206,-48.8579 163.1088,-38.4689 161.0056,-29.4087"/>
<polygon fill="#191970" stroke="#191970" points="164.4092,-28.5922 158.7385,-19.6427 157.5905,-30.1751 164.4092,-28.5922"/>
</g>
</g>
</svg>
