<?xml version="1.0" encoding="UTF-8" standalone="no"?>
<!DOCTYPE svg PUBLIC "-//W3C//DTD SVG 1.1//EN"
 "http://www.w3.org/Graphics/SVG/1.1/DTD/svg11.dtd">
<!-- Generated by graphviz version 2.40.1 (20161225.0304)
 -->
<!-- Title: l4/re/c/util/cap_alloc.h Pages: 1 -->
<svg width="423pt" height="252pt"
 viewBox="0.00 0.00 423.20 252.00" xmlns="http://www.w3.org/2000/svg" xmlns:xlink="http://www.w3.org/1999/xlink">
<g id="graph0" class="graph" transform="scale(1 1) rotate(0) translate(4 248)">
<title>l4/re/c/util/cap_alloc.h</title>
<polygon fill="#ffffff" stroke="transparent" points="-4,4 -4,-248 419.2003,-248 419.2003,4 -4,4"/>
<!-- Node0 -->
<g id="node1" class="node">
<title>Node0</title>
<polygon fill="#bfbfbf" stroke="#000000" points="235.7003,-224.5 235.7003,-243.5 353.7003,-243.5 353.7003,-224.5 235.7003,-224.5"/>
<text text-anchor="middle" x="294.7003" y="-231.5" font-family="Helvetica,sans-Serif" font-size="10.00" fill="#000000">l4/re/c/util/cap_alloc.h</text>
</g>
<!-- Node1 -->
<g id="node2" class="node">
<title>Node1</title>
<g id="a_node2"><a xlink:href="l4_2sys_2types_8h.html" target="_top" xlink:title="Common L4 ABI Data Types. ">
<polygon fill="#ffffff" stroke="#000000" points="172.7003,-168.5 172.7003,-187.5 252.7003,-187.5 252.7003,-168.5 172.7003,-168.5"/>
<text text-anchor="middle" x="212.7003" y="-175.5" font-family="Helvetica,sans-Serif" font-size="10.00" fill="#000000">l4/sys/types.h</text>
</a>
</g>
</g>
<!-- Node0&#45;&gt;Node1 -->
<g id="edge1" class="edge">
<title>Node0&#45;&gt;Node1</title>
<path fill="none" stroke="#191970" d="M280.417,-224.2455C267.9533,-215.7337 249.6552,-203.2375 235.2211,-193.3801"/>
<polygon fill="#191970" stroke="#191970" points="237.0519,-190.392 226.8199,-187.6427 233.1041,-196.1726 237.0519,-190.392"/>
</g>
<!-- Node4 -->
<g id="node5" class="node">
<title>Node4</title>
<polygon fill="#ffffff" stroke="#bfbfbf" points="326.2003,-.5 326.2003,-19.5 415.2003,-19.5 415.2003,-.5 326.2003,-.5"/>
<text text-anchor="middle" x="370.7003" y="-7.5" font-family="Helvetica,sans-Serif" font-size="10.00" fill="#000000">l4/sys/linkage.h</text>
</g>
<!-- Node0&#45;&gt;Node4 -->
<g id="edge12" class="edge">
<title>Node0&#45;&gt;Node4</title>
<path fill="none" stroke="#191970" d="M309.5916,-224.2804C332.5821,-208.2714 375.8269,-173.9166 392.7003,-132 406.6947,-97.2355 391.4737,-53.321 380.3062,-28.7871"/>
<polygon fill="#191970" stroke="#191970" points="383.3503,-27.0407 375.8653,-19.5423 377.0405,-30.0718 383.3503,-27.0407"/>
</g>
<!-- Node2 -->
<g id="node3" class="node">
<title>Node2</title>
<g id="a_node3"><a xlink:href="l4_2sys_2l4int_8h.html" target="_top" xlink:title="Fixed sized integer types, generic version. ">
<polygon fill="#ffffff" stroke="#000000" points="27.7003,-56.5 27.7003,-75.5 101.7003,-75.5 101.7003,-56.5 27.7003,-56.5"/>
<text text-anchor="middle" x="64.7003" y="-63.5" font-family="Helvetica,sans-Serif" font-size="10.00" fill="#000000">l4/sys/l4int.h</text>
</a>
</g>
</g>
<!-- Node1&#45;&gt;Node2 -->
<g id="edge2" class="edge">
<title>Node1&#45;&gt;Node2</title>
<path fill="none" stroke="#191970" d="M172.2781,-174.9389C117.8186,-169.8787 25.3095,-157.6649 4.7003,-132 -10.1275,-113.5347 14.1723,-93.578 36.143,-80.5013"/>
<polygon fill="#191970" stroke="#191970" points="37.9961,-83.4745 44.9832,-75.51 34.5545,-77.3789 37.9961,-83.4745"/>
</g>
<!-- Node3 -->
<g id="node4" class="node">
<title>Node3</title>
<g id="a_node4"><a xlink:href="compiler_8h.html" target="_top" xlink:title="L4 compiler related defines. ">
<polygon fill="#ffffff" stroke="#000000" points="241.2003,-56.5 241.2003,-75.5 336.2003,-75.5 336.2003,-56.5 241.2003,-56.5"/>
<text text-anchor="middle" x="288.7003" y="-63.5" font-family="Helvetica,sans-Serif" font-size="10.00" fill="#000000">l4/sys/compiler.h</text>
</a>
</g>
</g>
<!-- Node1&#45;&gt;Node3 -->
<g id="edge3" class="edge">
<title>Node1&#45;&gt;Node3</title>
<path fill="none" stroke="#191970" d="M219.18,-168.4509C231.8559,-149.7707 260.1163,-108.1238 276.4344,-84.0761"/>
<polygon fill="#191970" stroke="#191970" points="279.5181,-85.7649 282.237,-75.5249 273.7258,-81.8344 279.5181,-85.7649"/>
</g>
<!-- Node5 -->
<g id="node6" class="node">
<title>Node5</title>
<g id="a_node6"><a xlink:href="l4_2sys_2consts_8h.html" target="_top" xlink:title="Common constants. ">
<polygon fill="#ffffff" stroke="#000000" points="133.7003,-112.5 133.7003,-131.5 219.7003,-131.5 219.7003,-112.5 133.7003,-112.5"/>
<text text-anchor="middle" x="176.7003" y="-119.5" font-family="Helvetica,sans-Serif" font-size="10.00" fill="#000000">l4/sys/consts.h</text>
</a>
</g>
</g>
<!-- Node1&#45;&gt;Node5 -->
<g id="edge5" class="edge">
<title>Node1&#45;&gt;Node5</title>
<path fill="none" stroke="#191970" d="M206.4296,-168.2455C201.4739,-160.5367 194.4173,-149.5598 188.4227,-140.2348"/>
<polygon fill="#191970" stroke="#191970" points="191.2509,-138.1618 182.8992,-131.6427 185.3627,-141.9471 191.2509,-138.1618"/>
</g>
<!-- Node6 -->
<g id="node7" class="node">
<title>Node6</title>
<g id="a_node7"><a xlink:href="____l4__fpage_8h_source.html" target="_top" xlink:title="l4/sys/__l4_fpage.h">
<polygon fill="#ffffff" stroke="#000000" points="275.7003,-112.5 275.7003,-131.5 383.7003,-131.5 383.7003,-112.5 275.7003,-112.5"/>
<text text-anchor="middle" x="329.7003" y="-119.5" font-family="Helvetica,sans-Serif" font-size="10.00" fill="#000000">l4/sys/__l4_fpage.h</text>
</a>
</g>
</g>
<!-- Node1&#45;&gt;Node6 -->
<g id="edge8" class="edge">
<title>Node1&#45;&gt;Node6</title>
<path fill="none" stroke="#191970" d="M232.8133,-168.3733C251.5107,-159.4241 279.5747,-145.9917 300.6937,-135.8835"/>
<polygon fill="#191970" stroke="#191970" points="302.3408,-138.9755 309.8498,-131.5011 299.3186,-132.6614 302.3408,-138.9755"/>
</g>
<!-- Node7 -->
<g id="node8" class="node">
<title>Node7</title>
<g id="a_node8"><a xlink:href="____timeout_8h_source.html" target="_top" xlink:title="l4/sys/__timeout.h">
<polygon fill="#ffffff" stroke="#000000" points="14.2003,-112.5 14.2003,-131.5 115.2003,-131.5 115.2003,-112.5 14.2003,-112.5"/>
<text text-anchor="middle" x="64.7003" y="-119.5" font-family="Helvetica,sans-Serif" font-size="10.00" fill="#000000">l4/sys/__timeout.h</text>
</a>
</g>
</g>
<!-- Node1&#45;&gt;Node7 -->
<g id="edge10" class="edge">
<title>Node1&#45;&gt;Node7</title>
<path fill="none" stroke="#191970" d="M187.2582,-168.3733C162.9677,-159.1822 126.1795,-145.2624 99.246,-135.0713"/>
<polygon fill="#191970" stroke="#191970" points="100.4019,-131.7666 89.8104,-131.5011 97.9247,-138.3136 100.4019,-131.7666"/>
</g>
<!-- Node3&#45;&gt;Node4 -->
<g id="edge4" class="edge">
<title>Node3&#45;&gt;Node4</title>
<path fill="none" stroke="#191970" d="M302.9836,-56.2455C315.4474,-47.7337 333.7454,-35.2375 348.1795,-25.3801"/>
<polygon fill="#191970" stroke="#191970" points="350.2965,-28.1726 356.5807,-19.6427 346.3488,-22.392 350.2965,-28.1726"/>
</g>
<!-- Node5&#45;&gt;Node2 -->
<g id="edge7" class="edge">
<title>Node5&#45;&gt;Node2</title>
<path fill="none" stroke="#191970" d="M157.4468,-112.3733C139.6292,-103.4644 112.9256,-90.1127 92.7409,-80.0203"/>
<polygon fill="#191970" stroke="#191970" points="94.2121,-76.8428 83.7026,-75.5011 91.0816,-83.1038 94.2121,-76.8428"/>
</g>
<!-- Node5&#45;&gt;Node3 -->
<g id="edge6" class="edge">
<title>Node5&#45;&gt;Node3</title>
<path fill="none" stroke="#191970" d="M195.9538,-112.3733C213.7715,-103.4644 240.475,-90.1127 260.6597,-80.0203"/>
<polygon fill="#191970" stroke="#191970" points="262.3191,-83.1038 269.6981,-75.5011 259.1885,-76.8428 262.3191,-83.1038"/>
</g>
<!-- Node6&#45;&gt;Node3 -->
<g id="edge9" class="edge">
<title>Node6&#45;&gt;Node3</title>
<path fill="none" stroke="#191970" d="M322.5587,-112.2455C316.8559,-104.4564 308.7103,-93.3308 301.8378,-83.9439"/>
<polygon fill="#191970" stroke="#191970" points="304.4916,-81.6437 295.7601,-75.6427 298.8435,-85.7789 304.4916,-81.6437"/>
</g>
<!-- Node7&#45;&gt;Node2 -->
<g id="edge11" class="edge">
<title>Node7&#45;&gt;Node2</title>
<path fill="none" stroke="#191970" d="M64.7003,-112.2455C64.7003,-104.9382 64.7003,-94.6944 64.7003,-85.7046"/>
<polygon fill="#191970" stroke="#191970" points="68.2004,-85.6426 64.7003,-75.6427 61.2004,-85.6427 68.2004,-85.6426"/>
</g>
</g>
</svg>
