<?xml version="1.0" encoding="UTF-8" standalone="no"?>
<!DOCTYPE svg PUBLIC "-//W3C//DTD SVG 1.1//EN"
 "http://www.w3.org/Graphics/SVG/1.1/DTD/svg11.dtd">
<!-- Generated by graphviz version 2.40.1 (20161225.0304)
 -->
<!-- Title: l4/re/cap_alloc Pages: 1 -->
<svg width="716pt" height="285pt"
 viewBox="0.00 0.00 716.00 285.00" xmlns="http://www.w3.org/2000/svg" xmlns:xlink="http://www.w3.org/1999/xlink">
<g id="graph0" class="graph" transform="scale(1 1) rotate(0) translate(4 281)">
<title>l4/re/cap_alloc</title>
<polygon fill="#ffffff" stroke="transparent" points="-4,4 -4,-281 712,-281 712,4 -4,4"/>
<!-- Node35 -->
<g id="node1" class="node">
<title>Node35</title>
<polygon fill="#bfbfbf" stroke="#000000" points="205.5,-257.5 205.5,-276.5 291.5,-276.5 291.5,-257.5 205.5,-257.5"/>
<text text-anchor="middle" x="248.5" y="-264.5" font-family="Helvetica,sans-Serif" font-size="10.00" fill="#000000">l4/re/cap_alloc</text>
</g>
<!-- Node36 -->
<g id="node2" class="node">
<title>Node36</title>
<g id="a_node2"><a xlink:href="vfs_8h_source.html" target="_top" xlink:title="l4/l4re_vfs/vfs.h">
<polygon fill="#ffffff" stroke="#000000" points="315.5,-201.5 315.5,-220.5 405.5,-220.5 405.5,-201.5 315.5,-201.5"/>
<text text-anchor="middle" x="360.5" y="-208.5" font-family="Helvetica,sans-Serif" font-size="10.00" fill="#000000">l4/l4re_vfs/vfs.h</text>
</a>
</g>
</g>
<!-- Node35&#45;&gt;Node36 -->
<g id="edge1" class="edge">
<title>Node35&#45;&gt;Node36</title>
<path fill="none" stroke="#191970" d="M276.8263,-252.8368C297.0721,-242.7139 323.7642,-229.3679 341.4978,-220.5011"/>
<polygon fill="#191970" stroke="#191970" points="275.1325,-249.7706 267.7535,-257.3733 278.263,-256.0316 275.1325,-249.7706"/>
</g>
<!-- Node47 -->
<g id="node13" class="node">
<title>Node47</title>
<g id="a_node13"><a xlink:href="unique__cap.html" target="_top" xlink:title="Unique_cap / Unique_del_cap. ">
<polygon fill="#ffffff" stroke="#000000" points="117,-140 117,-159 212,-159 212,-140 117,-140"/>
<text text-anchor="middle" x="164.5" y="-147" font-family="Helvetica,sans-Serif" font-size="10.00" fill="#000000">l4/re/unique_cap</text>
</a>
</g>
</g>
<!-- Node35&#45;&gt;Node47 -->
<g id="edge15" class="edge">
<title>Node35&#45;&gt;Node47</title>
<path fill="none" stroke="#191970" d="M223.987,-251.6579C212.8307,-243.6575 200.2061,-233.0306 191.5,-221 177.3424,-201.4361 169.6685,-173.5513 166.415,-159.065"/>
<polygon fill="#191970" stroke="#191970" points="222.2856,-254.7344 232.5165,-257.4875 226.2355,-248.9552 222.2856,-254.7344"/>
</g>
<!-- Node48 -->
<g id="node14" class="node">
<title>Node48</title>
<g id="a_node14"><a xlink:href="env__ns_source.html" target="_top" xlink:title="l4/re/util/env_ns">
<polygon fill="#ffffff" stroke="#000000" points="0,-140 0,-159 91,-159 91,-140 0,-140"/>
<text text-anchor="middle" x="45.5" y="-147" font-family="Helvetica,sans-Serif" font-size="10.00" fill="#000000">l4/re/util/env_ns</text>
</a>
</g>
</g>
<!-- Node35&#45;&gt;Node48 -->
<g id="edge18" class="edge">
<title>Node35&#45;&gt;Node48</title>
<path fill="none" stroke="#191970" d="M223.0549,-252.2719C180.8437,-227.8394 97.4852,-179.59 62.0572,-159.0836"/>
<polygon fill="#191970" stroke="#191970" points="221.4795,-255.4041 231.8877,-257.3845 224.9862,-249.3457 221.4795,-255.4041"/>
</g>
<!-- Node49 -->
<g id="node15" class="node">
<title>Node49</title>
<g id="a_node15"><a xlink:href="shared__cap.html" target="_top" xlink:title="Shared_cap / Shared_del_cap. ">
<polygon fill="#ffffff" stroke="#000000" points="200,-201.5 200,-220.5 297,-220.5 297,-201.5 200,-201.5"/>
<text text-anchor="middle" x="248.5" y="-208.5" font-family="Helvetica,sans-Serif" font-size="10.00" fill="#000000">l4/re/shared_cap</text>
</a>
</g>
</g>
<!-- Node35&#45;&gt;Node49 -->
<g id="edge20" class="edge">
<title>Node35&#45;&gt;Node49</title>
<path fill="none" stroke="#191970" d="M248.5,-247.1575C248.5,-238.155 248.5,-227.9199 248.5,-220.6427"/>
<polygon fill="#191970" stroke="#191970" points="245.0001,-247.2455 248.5,-257.2455 252.0001,-247.2456 245.0001,-247.2455"/>
</g>
<!-- Node50 -->
<g id="node16" class="node">
<title>Node50</title>
<g id="a_node16"><a xlink:href="util_2event.html" target="_top" xlink:title="l4/re/util/event">
<polygon fill="#ffffff" stroke="#000000" points="424,-201.5 424,-220.5 507,-220.5 507,-201.5 424,-201.5"/>
<text text-anchor="middle" x="465.5" y="-208.5" font-family="Helvetica,sans-Serif" font-size="10.00" fill="#000000">l4/re/util/event</text>
</a>
</g>
</g>
<!-- Node35&#45;&gt;Node50 -->
<g id="edge22" class="edge">
<title>Node35&#45;&gt;Node50</title>
<path fill="none" stroke="#191970" d="M295.5769,-254.8511C335.5083,-244.5462 391.9923,-229.9697 428.6831,-220.5011"/>
<polygon fill="#191970" stroke="#191970" points="294.6118,-251.4854 285.8036,-257.3733 296.361,-258.2634 294.6118,-251.4854"/>
</g>
<!-- Node37 -->
<g id="node3" class="node">
<title>Node37</title>
<g id="a_node3"><a xlink:href="backend_source.html" target="_top" xlink:title="l4/l4re_vfs/backend">
<polygon fill="#ffffff" stroke="#000000" points="306.5,-140 306.5,-159 414.5,-159 414.5,-140 306.5,-140"/>
<text text-anchor="middle" x="360.5" y="-147" font-family="Helvetica,sans-Serif" font-size="10.00" fill="#000000">l4/l4re_vfs/backend</text>
</a>
</g>
</g>
<!-- Node36&#45;&gt;Node37 -->
<g id="edge2" class="edge">
<title>Node36&#45;&gt;Node37</title>
<path fill="none" stroke="#191970" d="M360.5,-191.2462C360.5,-180.5519 360.5,-167.814 360.5,-159.2449"/>
<polygon fill="#191970" stroke="#191970" points="357.0001,-191.3906 360.5,-201.3906 364.0001,-191.3907 357.0001,-191.3906"/>
</g>
<!-- Node45 -->
<g id="node11" class="node">
<title>Node45</title>
<g id="a_node11"><a xlink:href="fd__store_8h_source.html" target="_top" xlink:title="l4/l4re_vfs/impl/fd\l_store.h">
<polygon fill="#ffffff" stroke="#000000" points="531,-134.5 531,-164.5 630,-164.5 630,-134.5 531,-134.5"/>
<text text-anchor="start" x="539" y="-152.5" font-family="Helvetica,sans-Serif" font-size="10.00" fill="#000000">l4/l4re_vfs/impl/fd</text>
<text text-anchor="middle" x="580.5" y="-141.5" font-family="Helvetica,sans-Serif" font-size="10.00" fill="#000000">_store.h</text>
</a>
</g>
</g>
<!-- Node36&#45;&gt;Node45 -->
<g id="edge12" class="edge">
<title>Node36&#45;&gt;Node45</title>
<path fill="none" stroke="#191970" d="M404.7371,-198.6337C441.2221,-188.4345 492.9582,-173.9719 530.8534,-163.3785"/>
<polygon fill="#191970" stroke="#191970" points="403.5635,-195.3275 394.875,-201.3906 405.4481,-202.0691 403.5635,-195.3275"/>
</g>
<!-- Node38 -->
<g id="node4" class="node">
<title>Node38</title>
<g id="a_node4"><a xlink:href="ns__fs_8h_source.html" target="_top" xlink:title="l4/l4re_vfs/impl/ns_fs.h">
<polygon fill="#ffffff" stroke="#000000" points="102.5,-73 102.5,-92 226.5,-92 226.5,-73 102.5,-73"/>
<text text-anchor="middle" x="164.5" y="-80" font-family="Helvetica,sans-Serif" font-size="10.00" fill="#000000">l4/l4re_vfs/impl/ns_fs.h</text>
</a>
</g>
</g>
<!-- Node37&#45;&gt;Node38 -->
<g id="edge3" class="edge">
<title>Node37&#45;&gt;Node38</title>
<path fill="none" stroke="#191970" d="M322.7117,-136.5826C284.619,-123.5611 226.709,-103.7653 192.5299,-92.0817"/>
<polygon fill="#191970" stroke="#191970" points="321.8234,-139.9777 332.418,-139.9005 324.0877,-133.354 321.8234,-139.9777"/>
</g>
<!-- Node40 -->
<g id="node6" class="node">
<title>Node40</title>
<g id="a_node6"><a xlink:href="vfs__impl_8h_source.html" target="_top" xlink:title="l4/l4re_vfs/impl/vfs\l_impl.h">
<polygon fill="#ffffff" stroke="#000000" points="202.5,-.5 202.5,-30.5 306.5,-30.5 306.5,-.5 202.5,-.5"/>
<text text-anchor="start" x="210.5" y="-18.5" font-family="Helvetica,sans-Serif" font-size="10.00" fill="#000000">l4/l4re_vfs/impl/vfs</text>
<text text-anchor="middle" x="254.5" y="-7.5" font-family="Helvetica,sans-Serif" font-size="10.00" fill="#000000">_impl.h</text>
</a>
</g>
</g>
<!-- Node37&#45;&gt;Node40 -->
<g id="edge11" class="edge">
<title>Node37&#45;&gt;Node40</title>
<path fill="none" stroke="#191970" d="M343.8531,-132.8229C334.3232,-122.9905 322.3422,-110.1338 312.5,-98 294.1911,-75.4282 275.2392,-47.4403 264.1766,-30.5512"/>
<polygon fill="#191970" stroke="#191970" points="341.3812,-135.301 350.8828,-139.9883 346.3781,-130.3988 341.3812,-135.301"/>
</g>
<!-- Node41 -->
<g id="node7" class="node">
<title>Node41</title>
<g id="a_node7"><a xlink:href="ro__file_8h_source.html" target="_top" xlink:title="l4/l4re_vfs/impl/ro\l_file.h">
<polygon fill="#ffffff" stroke="#000000" points="452.5,-67.5 452.5,-97.5 552.5,-97.5 552.5,-67.5 452.5,-67.5"/>
<text text-anchor="start" x="460.5" y="-85.5" font-family="Helvetica,sans-Serif" font-size="10.00" fill="#000000">l4/l4re_vfs/impl/ro</text>
<text text-anchor="middle" x="502.5" y="-74.5" font-family="Helvetica,sans-Serif" font-size="10.00" fill="#000000">_file.h</text>
</a>
</g>
</g>
<!-- Node37&#45;&gt;Node41 -->
<g id="edge6" class="edge">
<title>Node37&#45;&gt;Node41</title>
<path fill="none" stroke="#191970" d="M390.0002,-135.5809C413.5587,-124.4653 446.5103,-108.9177 470.6628,-97.5218"/>
<polygon fill="#191970" stroke="#191970" points="388.3955,-132.468 380.8451,-139.9005 391.3825,-138.7987 388.3955,-132.468"/>
</g>
<!-- Node43 -->
<g id="node9" class="node">
<title>Node43</title>
<g id="a_node9"><a xlink:href="vcon__stream_8h_source.html" target="_top" xlink:title="l4/l4re_vfs/impl/vcon\l_stream.h">
<polygon fill="#ffffff" stroke="#000000" points="321,-67.5 321,-97.5 434,-97.5 434,-67.5 321,-67.5"/>
<text text-anchor="start" x="329" y="-85.5" font-family="Helvetica,sans-Serif" font-size="10.00" fill="#000000">l4/l4re_vfs/impl/vcon</text>
<text text-anchor="middle" x="377.5" y="-74.5" font-family="Helvetica,sans-Serif" font-size="10.00" fill="#000000">_stream.h</text>
</a>
</g>
</g>
<!-- Node37&#45;&gt;Node43 -->
<g id="edge8" class="edge">
<title>Node37&#45;&gt;Node43</title>
<path fill="none" stroke="#191970" d="M365.4213,-130.1042C368.0539,-119.7287 371.2468,-107.145 373.6885,-97.5218"/>
<polygon fill="#191970" stroke="#191970" points="362.0026,-129.3469 362.9357,-139.9005 368.7876,-131.0685 362.0026,-129.3469"/>
</g>
<!-- Node39 -->
<g id="node5" class="node">
<title>Node39</title>
<g id="a_node5"><a xlink:href="ns__fs__impl_8h_source.html" target="_top" xlink:title="l4/l4re_vfs/impl/ns\l_fs_impl.h">
<polygon fill="#ffffff" stroke="#000000" points="24,-.5 24,-30.5 125,-30.5 125,-.5 24,-.5"/>
<text text-anchor="start" x="32" y="-18.5" font-family="Helvetica,sans-Serif" font-size="10.00" fill="#000000">l4/l4re_vfs/impl/ns</text>
<text text-anchor="middle" x="74.5" y="-7.5" font-family="Helvetica,sans-Serif" font-size="10.00" fill="#000000">_fs_impl.h</text>
</a>
</g>
</g>
<!-- Node38&#45;&gt;Node39 -->
<g id="edge4" class="edge">
<title>Node38&#45;&gt;Node39</title>
<path fill="none" stroke="#191970" d="M143.5714,-66.9198C128.8425,-55.955 109.238,-41.3605 94.6785,-30.5218"/>
<polygon fill="#191970" stroke="#191970" points="141.4938,-69.7365 151.6052,-72.9005 145.6739,-64.1216 141.4938,-69.7365"/>
</g>
<!-- Node38&#45;&gt;Node40 -->
<g id="edge5" class="edge">
<title>Node38&#45;&gt;Node40</title>
<path fill="none" stroke="#191970" d="M185.4286,-66.9198C200.1575,-55.955 219.762,-41.3605 234.3215,-30.5218"/>
<polygon fill="#191970" stroke="#191970" points="183.3261,-64.1216 177.3948,-72.9005 187.5062,-69.7365 183.3261,-64.1216"/>
</g>
<!-- Node42 -->
<g id="node8" class="node">
<title>Node42</title>
<g id="a_node8"><a xlink:href="ro__file__impl_8h_source.html" target="_top" xlink:title="l4/l4re_vfs/impl/ro\l_file_impl.h">
<polygon fill="#ffffff" stroke="#000000" points="456.5,-.5 456.5,-30.5 556.5,-30.5 556.5,-.5 456.5,-.5"/>
<text text-anchor="start" x="464.5" y="-18.5" font-family="Helvetica,sans-Serif" font-size="10.00" fill="#000000">l4/l4re_vfs/impl/ro</text>
<text text-anchor="middle" x="506.5" y="-7.5" font-family="Helvetica,sans-Serif" font-size="10.00" fill="#000000">_file_impl.h</text>
</a>
</g>
</g>
<!-- Node41&#45;&gt;Node42 -->
<g id="edge7" class="edge">
<title>Node41&#45;&gt;Node42</title>
<path fill="none" stroke="#191970" d="M504.0209,-57.0249C504.5521,-48.128 505.1311,-38.4287 505.5959,-30.6432"/>
<polygon fill="#191970" stroke="#191970" points="500.5099,-57.1058 503.4077,-67.2967 507.4975,-57.5231 500.5099,-57.1058"/>
</g>
<!-- Node43&#45;&gt;Node40 -->
<g id="edge10" class="edge">
<title>Node43&#45;&gt;Node40</title>
<path fill="none" stroke="#191970" d="M341.0317,-62.6352C322.2823,-52.422 299.7901,-40.1702 282.437,-30.7177"/>
<polygon fill="#191970" stroke="#191970" points="339.4405,-65.7539 349.8964,-67.4639 342.789,-59.6067 339.4405,-65.7539"/>
</g>
<!-- Node44 -->
<g id="node10" class="node">
<title>Node44</title>
<g id="a_node10"><a xlink:href="vcon__stream__impl_8h_source.html" target="_top" xlink:title="l4/l4re_vfs/impl/vcon\l_stream_impl.h">
<polygon fill="#ffffff" stroke="#000000" points="325,-.5 325,-30.5 438,-30.5 438,-.5 325,-.5"/>
<text text-anchor="start" x="333" y="-18.5" font-family="Helvetica,sans-Serif" font-size="10.00" fill="#000000">l4/l4re_vfs/impl/vcon</text>
<text text-anchor="middle" x="381.5" y="-7.5" font-family="Helvetica,sans-Serif" font-size="10.00" fill="#000000">_stream_impl.h</text>
</a>
</g>
</g>
<!-- Node43&#45;&gt;Node44 -->
<g id="edge9" class="edge">
<title>Node43&#45;&gt;Node44</title>
<path fill="none" stroke="#191970" d="M379.0209,-57.0249C379.5521,-48.128 380.1311,-38.4287 380.5959,-30.6432"/>
<polygon fill="#191970" stroke="#191970" points="375.5099,-57.1058 378.4077,-67.2967 382.4975,-57.5231 375.5099,-57.1058"/>
</g>
<!-- Node45&#45;&gt;Node40 -->
<g id="edge14" class="edge">
<title>Node45&#45;&gt;Node40</title>
<path fill="none" stroke="#191970" d="M581.7017,-124.1007C581.1105,-105.5875 577.032,-81.33 561.5,-67 521.0551,-29.6851 370.4815,-41.6864 316.5,-31 313.2348,-30.3536 309.8835,-29.6459 306.511,-28.9"/>
<polygon fill="#191970" stroke="#191970" points="578.2016,-124.2206 581.7069,-134.2187 585.2016,-124.2169 578.2016,-124.2206"/>
</g>
<!-- Node46 -->
<g id="node12" class="node">
<title>Node46</title>
<g id="a_node12"><a xlink:href="fd__store__impl_8h_source.html" target="_top" xlink:title="l4/l4re_vfs/impl/fd\l_store_impl.h">
<polygon fill="#ffffff" stroke="#000000" points="609,-67.5 609,-97.5 708,-97.5 708,-67.5 609,-67.5"/>
<text text-anchor="start" x="617" y="-85.5" font-family="Helvetica,sans-Serif" font-size="10.00" fill="#000000">l4/l4re_vfs/impl/fd</text>
<text text-anchor="middle" x="658.5" y="-74.5" font-family="Helvetica,sans-Serif" font-size="10.00" fill="#000000">_store_impl.h</text>
</a>
</g>
</g>
<!-- Node45&#45;&gt;Node46 -->
<g id="edge13" class="edge">
<title>Node45&#45;&gt;Node46</title>
<path fill="none" stroke="#191970" d="M606.116,-127.4965C617.4984,-117.7193 630.6116,-106.4554 640.8706,-97.6432"/>
<polygon fill="#191970" stroke="#191970" points="603.5045,-125.1257 598.1994,-134.2967 608.0657,-130.4357 603.5045,-125.1257"/>
</g>
<!-- Node47&#45;&gt;Node38 -->
<g id="edge16" class="edge">
<title>Node47&#45;&gt;Node38</title>
<path fill="none" stroke="#191970" d="M164.5,-129.6079C164.5,-117.214 164.5,-101.8263 164.5,-92.0817"/>
<polygon fill="#191970" stroke="#191970" points="161.0001,-129.9005 164.5,-139.9005 168.0001,-129.9006 161.0001,-129.9005"/>
</g>
<!-- Node47&#45;&gt;Node39 -->
<g id="edge17" class="edge">
<title>Node47&#45;&gt;Node39</title>
<path fill="none" stroke="#191970" d="M135.433,-134.9715C120.7407,-126.1956 103.8725,-113.667 93.5,-98 79.8689,-77.411 75.946,-48.3153 74.8597,-30.7449"/>
<polygon fill="#191970" stroke="#191970" points="133.7955,-138.0663 144.2224,-139.9452 137.243,-131.9741 133.7955,-138.0663"/>
</g>
<!-- Node48&#45;&gt;Node39 -->
<g id="edge19" class="edge">
<title>Node48&#45;&gt;Node39</title>
<path fill="none" stroke="#191970" d="M48.633,-129.5663C51.386,-112.7968 55.6944,-88.2266 60.5,-67 63.2824,-54.71 67.0597,-40.9435 69.9895,-30.7378"/>
<polygon fill="#191970" stroke="#191970" points="45.1207,-129.3639 46.9886,-139.7928 52.0319,-130.4753 45.1207,-129.3639"/>
</g>
<!-- Node49&#45;&gt;Node40 -->
<g id="edge21" class="edge">
<title>Node49&#45;&gt;Node40</title>
<path fill="none" stroke="#191970" d="M249.1078,-191.1969C250.3085,-152.0716 252.9615,-65.6286 254.0353,-30.6418"/>
<polygon fill="#191970" stroke="#191970" points="245.606,-191.2024 248.7975,-201.3051 252.6028,-191.4172 245.606,-191.2024"/>
</g>
</g>
</svg>
