<?xml version="1.0" encoding="UTF-8" standalone="no"?>
<!DOCTYPE svg PUBLIC "-//W3C//DTD SVG 1.1//EN"
 "http://www.w3.org/Graphics/SVG/1.1/DTD/svg11.dtd">
<!-- Generated by graphviz version 2.40.1 (20161225.0304)
 -->
<!-- Title: l4/sys/capability Pages: 1 -->
<svg width="789pt" height="711pt"
 viewBox="0.00 0.00 789.00 711.00" xmlns="http://www.w3.org/2000/svg" xmlns:xlink="http://www.w3.org/1999/xlink">
<g id="graph0" class="graph" transform="scale(1 1) rotate(0) translate(4 707)">
<title>l4/sys/capability</title>
<polygon fill="#ffffff" stroke="transparent" points="-4,4 -4,-707 785,-707 785,4 -4,4"/>
<!-- Node0 -->
<g id="node1" class="node">
<title>Node0</title>
<polygon fill="#bfbfbf" stroke="#000000" points="391,-683.5 391,-702.5 481,-702.5 481,-683.5 391,-683.5"/>
<text text-anchor="middle" x="436" y="-690.5" font-family="Helvetica,sans-Serif" font-size="10.00" fill="#000000">l4/sys/capability</text>
</g>
<!-- Node1 -->
<g id="node2" class="node">
<title>Node1</title>
<g id="a_node2"><a xlink:href="l4_2sys_2consts_8h.html" target="_top" xlink:title="Common constants. ">
<polygon fill="#ffffff" stroke="#000000" points="565,-112.5 565,-131.5 651,-131.5 651,-112.5 565,-112.5"/>
<text text-anchor="middle" x="608" y="-119.5" font-family="Helvetica,sans-Serif" font-size="10.00" fill="#000000">l4/sys/consts.h</text>
</a>
</g>
</g>
<!-- Node0&#45;&gt;Node1 -->
<g id="edge1" class="edge">
<title>Node0&#45;&gt;Node1</title>
<path fill="none" stroke="#191970" d="M481.3255,-690.8713C533.5259,-687.0624 620.9587,-676.4611 690,-647 735.9531,-627.391 781,-630.962 781,-581 781,-581 781,-581 781,-234 781,-176.1379 711.9622,-146.6854 661.1109,-132.8396"/>
<polygon fill="#191970" stroke="#191970" points="661.7671,-129.3941 651.2089,-130.2747 660.0118,-136.1705 661.7671,-129.3941"/>
</g>
<!-- Node5 -->
<g id="node6" class="node">
<title>Node5</title>
<g id="a_node6"><a xlink:href="l4_2sys_2types_8h.html" target="_top" xlink:title="Common L4 ABI Data Types. ">
<polygon fill="#ffffff" stroke="#000000" points="373,-168.5 373,-187.5 453,-187.5 453,-168.5 373,-168.5"/>
<text text-anchor="middle" x="413" y="-175.5" font-family="Helvetica,sans-Serif" font-size="10.00" fill="#000000">l4/sys/types.h</text>
</a>
</g>
</g>
<!-- Node0&#45;&gt;Node5 -->
<g id="edge5" class="edge">
<title>Node0&#45;&gt;Node5</title>
<path fill="none" stroke="#191970" d="M481.2989,-686.1578C566.6961,-671.9758 743,-636.0327 743,-581 743,-581 743,-581 743,-469 743,-407.6441 744.2831,-383.9473 706,-336 641.6501,-255.4055 524.6388,-210.397 459.654,-190.5246"/>
<polygon fill="#191970" stroke="#191970" points="460.2704,-187.0561 449.6871,-187.5494 458.2681,-193.7636 460.2704,-187.0561"/>
</g>
<!-- Node8 -->
<g id="node9" class="node">
<title>Node8</title>
<g id="a_node9"><a xlink:href="kobject_source.html" target="_top" xlink:title="l4/sys/kobject">
<polygon fill="#ffffff" stroke="#000000" points="251,-515.5 251,-534.5 331,-534.5 331,-515.5 251,-515.5"/>
<text text-anchor="middle" x="291" y="-522.5" font-family="Helvetica,sans-Serif" font-size="10.00" fill="#000000">l4/sys/kobject</text>
</a>
</g>
</g>
<!-- Node0&#45;&gt;Node8 -->
<g id="edge13" class="edge">
<title>Node0&#45;&gt;Node8</title>
<path fill="none" stroke="#191970" d="M426.3508,-683.3213C417.2941,-674.1419 403.4626,-659.8773 392,-647 359.7602,-610.7813 324.0118,-566.571 304.8864,-542.565"/>
<polygon fill="#191970" stroke="#191970" points="307.5897,-540.3411 298.6296,-534.687 302.1082,-544.6946 307.5897,-540.3411"/>
</g>
<!-- Node18 -->
<g id="node19" class="node">
<title>Node18</title>
<g id="a_node19"><a xlink:href="l4_2sys_2task_8h.html" target="_top" xlink:title="Common task related definitions. ">
<polygon fill="#ffffff" stroke="#000000" points="320,-342 320,-361 394,-361 394,-342 320,-342"/>
<text text-anchor="middle" x="357" y="-349" font-family="Helvetica,sans-Serif" font-size="10.00" fill="#000000">l4/sys/task.h</text>
</a>
</g>
</g>
<!-- Node0&#45;&gt;Node18 -->
<g id="edge42" class="edge">
<title>Node0&#45;&gt;Node18</title>
<path fill="none" stroke="#191970" d="M390.7738,-689.5209C327.1774,-681.8836 219,-657.6301 219,-581 219,-581 219,-581 219,-469 219,-416.1273 278.4524,-382.0414 319.3123,-364.8587"/>
<polygon fill="#191970" stroke="#191970" points="320.7789,-368.0411 328.7406,-361.0511 318.1576,-361.5504 320.7789,-368.0411"/>
</g>
<!-- Node19 -->
<g id="node20" class="node">
<title>Node19</title>
<g id="a_node20"><a xlink:href="sys_2meta.html" target="_top" xlink:title="Meta interface for getting dynamic type information about objects behind capabilities. ">
<polygon fill="#ffffff" stroke="#000000" points="401,-627.5 401,-646.5 471,-646.5 471,-627.5 401,-627.5"/>
<text text-anchor="middle" x="436" y="-634.5" font-family="Helvetica,sans-Serif" font-size="10.00" fill="#000000">l4/sys/meta</text>
</a>
</g>
</g>
<!-- Node0&#45;&gt;Node19 -->
<g id="edge43" class="edge">
<title>Node0&#45;&gt;Node19</title>
<path fill="none" stroke="#191970" d="M436,-683.2455C436,-675.9382 436,-665.6944 436,-656.7046"/>
<polygon fill="#191970" stroke="#191970" points="439.5001,-656.6426 436,-646.6427 432.5001,-656.6427 439.5001,-656.6426"/>
</g>
<!-- Node2 -->
<g id="node3" class="node">
<title>Node2</title>
<g id="a_node3"><a xlink:href="compiler_8h.html" target="_top" xlink:title="L4 compiler related defines. ">
<polygon fill="#ffffff" stroke="#000000" points="170.5,-56.5 170.5,-75.5 265.5,-75.5 265.5,-56.5 170.5,-56.5"/>
<text text-anchor="middle" x="218" y="-63.5" font-family="Helvetica,sans-Serif" font-size="10.00" fill="#000000">l4/sys/compiler.h</text>
</a>
</g>
</g>
<!-- Node1&#45;&gt;Node2 -->
<g id="edge2" class="edge">
<title>Node1&#45;&gt;Node2</title>
<path fill="none" stroke="#191970" d="M564.9336,-113.6848C561.5759,-113.0944 558.2349,-112.5256 555,-112 457.1499,-96.1012 342.708,-81.2722 275.517,-72.9473"/>
<polygon fill="#191970" stroke="#191970" points="275.905,-69.4687 265.5515,-71.7174 275.0475,-76.416 275.905,-69.4687"/>
</g>
<!-- Node4 -->
<g id="node5" class="node">
<title>Node4</title>
<g id="a_node5"><a xlink:href="l4_2sys_2l4int_8h.html" target="_top" xlink:title="Fixed sized integer types, generic version. ">
<polygon fill="#ffffff" stroke="#000000" points="419,-56.5 419,-75.5 493,-75.5 493,-56.5 419,-56.5"/>
<text text-anchor="middle" x="456" y="-63.5" font-family="Helvetica,sans-Serif" font-size="10.00" fill="#000000">l4/sys/l4int.h</text>
</a>
</g>
</g>
<!-- Node1&#45;&gt;Node4 -->
<g id="edge4" class="edge">
<title>Node1&#45;&gt;Node4</title>
<path fill="none" stroke="#191970" d="M581.8703,-112.3733C556.9232,-103.1822 519.1408,-89.2624 491.4794,-79.0713"/>
<polygon fill="#191970" stroke="#191970" points="492.3822,-75.674 481.7888,-75.5011 489.9622,-82.2424 492.3822,-75.674"/>
</g>
<!-- Node3 -->
<g id="node4" class="node">
<title>Node3</title>
<polygon fill="#ffffff" stroke="#bfbfbf" points="173.5,-.5 173.5,-19.5 262.5,-19.5 262.5,-.5 173.5,-.5"/>
<text text-anchor="middle" x="218" y="-7.5" font-family="Helvetica,sans-Serif" font-size="10.00" fill="#000000">l4/sys/linkage.h</text>
</g>
<!-- Node2&#45;&gt;Node3 -->
<g id="edge3" class="edge">
<title>Node2&#45;&gt;Node3</title>
<path fill="none" stroke="#191970" d="M218,-56.2455C218,-48.9382 218,-38.6944 218,-29.7046"/>
<polygon fill="#191970" stroke="#191970" points="221.5001,-29.6426 218,-19.6427 214.5001,-29.6427 221.5001,-29.6426"/>
</g>
<!-- Node5&#45;&gt;Node1 -->
<g id="edge8" class="edge">
<title>Node5&#45;&gt;Node1</title>
<path fill="none" stroke="#191970" d="M446.5217,-168.3733C479.3683,-158.9404 529.5595,-144.5265 565.2578,-134.2747"/>
<polygon fill="#191970" stroke="#191970" points="566.2703,-137.6255 574.9157,-131.5011 564.3381,-130.8974 566.2703,-137.6255"/>
</g>
<!-- Node5&#45;&gt;Node2 -->
<g id="edge7" class="edge">
<title>Node5&#45;&gt;Node2</title>
<path fill="none" stroke="#191970" d="M401.4733,-168.4063C384.7074,-154.7457 352.2826,-129.4177 322,-112 299.8388,-99.2535 273.4874,-87.6324 252.8551,-79.2595"/>
<polygon fill="#191970" stroke="#191970" points="254.1071,-75.9908 243.5221,-75.5343 251.5121,-82.4921 254.1071,-75.9908"/>
</g>
<!-- Node5&#45;&gt;Node4 -->
<g id="edge6" class="edge">
<title>Node5&#45;&gt;Node4</title>
<path fill="none" stroke="#191970" d="M416.2011,-168.0758C420.4491,-155.0874 428.3114,-131.6638 436,-112 439.517,-103.0051 443.7404,-93.1703 447.3981,-84.9116"/>
<polygon fill="#191970" stroke="#191970" points="450.594,-86.3384 451.4935,-75.7818 444.2071,-83.4734 450.594,-86.3384"/>
</g>
<!-- Node6 -->
<g id="node7" class="node">
<title>Node6</title>
<g id="a_node7"><a xlink:href="____l4__fpage_8h_source.html" target="_top" xlink:title="l4/sys/__l4_fpage.h">
<polygon fill="#ffffff" stroke="#000000" points="205,-112.5 205,-131.5 313,-131.5 313,-112.5 205,-112.5"/>
<text text-anchor="middle" x="259" y="-119.5" font-family="Helvetica,sans-Serif" font-size="10.00" fill="#000000">l4/sys/__l4_fpage.h</text>
</a>
</g>
</g>
<!-- Node5&#45;&gt;Node6 -->
<g id="edge9" class="edge">
<title>Node5&#45;&gt;Node6</title>
<path fill="none" stroke="#191970" d="M386.5265,-168.3733C361.1403,-159.1419 322.6355,-145.1402 294.578,-134.9375"/>
<polygon fill="#191970" stroke="#191970" points="295.7222,-131.6293 285.1281,-131.5011 293.3299,-138.2079 295.7222,-131.6293"/>
</g>
<!-- Node7 -->
<g id="node8" class="node">
<title>Node7</title>
<g id="a_node8"><a xlink:href="____timeout_8h_source.html" target="_top" xlink:title="l4/sys/__timeout.h">
<polygon fill="#ffffff" stroke="#000000" points="445.5,-112.5 445.5,-131.5 546.5,-131.5 546.5,-112.5 445.5,-112.5"/>
<text text-anchor="middle" x="496" y="-119.5" font-family="Helvetica,sans-Serif" font-size="10.00" fill="#000000">l4/sys/__timeout.h</text>
</a>
</g>
</g>
<!-- Node5&#45;&gt;Node7 -->
<g id="edge11" class="edge">
<title>Node5&#45;&gt;Node7</title>
<path fill="none" stroke="#191970" d="M427.4575,-168.2455C440.0732,-159.7337 458.5944,-147.2375 473.2045,-137.3801"/>
<polygon fill="#191970" stroke="#191970" points="475.3761,-140.1371 481.7082,-131.6427 471.4609,-134.3343 475.3761,-140.1371"/>
</g>
<!-- Node6&#45;&gt;Node2 -->
<g id="edge10" class="edge">
<title>Node6&#45;&gt;Node2</title>
<path fill="none" stroke="#191970" d="M251.8583,-112.2455C246.1556,-104.4564 238.01,-93.3308 231.1375,-83.9439"/>
<polygon fill="#191970" stroke="#191970" points="233.7913,-81.6437 225.0598,-75.6427 228.1432,-85.7789 233.7913,-81.6437"/>
</g>
<!-- Node7&#45;&gt;Node4 -->
<g id="edge12" class="edge">
<title>Node7&#45;&gt;Node4</title>
<path fill="none" stroke="#191970" d="M489.0325,-112.2455C483.4689,-104.4564 475.522,-93.3308 468.8171,-83.9439"/>
<polygon fill="#191970" stroke="#191970" points="471.5481,-81.7457 462.8876,-75.6427 465.852,-85.8144 471.5481,-81.7457"/>
</g>
<!-- Node8&#45;&gt;Node5 -->
<g id="edge28" class="edge">
<title>Node8&#45;&gt;Node5</title>
<path fill="none" stroke="#191970" d="M295.639,-515.2184C306.0961,-493.6965 333.027,-441.1223 364,-403 378.8747,-384.6919 392.9713,-388.3511 403,-367 429.5971,-310.3747 422.1635,-233.4351 416.6067,-197.7192"/>
<polygon fill="#191970" stroke="#191970" points="420.0234,-196.931 414.914,-187.6496 413.1202,-198.0915 420.0234,-196.931"/>
</g>
<!-- Node9 -->
<g id="node10" class="node">
<title>Node9</title>
<g id="a_node10"><a xlink:href="kernel__object_8h.html" target="_top" xlink:title="Kernel object system calls. ">
<polygon fill="#ffffff" stroke="#000000" points="78,-403.5 78,-422.5 166,-422.5 166,-403.5 78,-403.5"/>
<text text-anchor="middle" x="122" y="-410.5" font-family="Helvetica,sans-Serif" font-size="10.00" fill="#000000">kernel_object.h</text>
</a>
</g>
</g>
<!-- Node8&#45;&gt;Node9 -->
<g id="edge14" class="edge">
<title>Node8&#45;&gt;Node9</title>
<path fill="none" stroke="#191970" d="M276.5912,-515.4509C247.2815,-496.0268 180.5017,-451.7703 145.0708,-428.2895"/>
<polygon fill="#191970" stroke="#191970" points="146.6415,-425.1317 136.3724,-422.5249 142.7745,-430.9666 146.6415,-425.1317"/>
</g>
<!-- Node14 -->
<g id="node15" class="node">
<title>Node14</title>
<g id="a_node15"><a xlink:href="____typeinfo_8h.html" target="_top" xlink:title="Type information handling. ">
<polygon fill="#ffffff" stroke="#000000" points="399,-459.5 399,-478.5 473,-478.5 473,-459.5 399,-459.5"/>
<text text-anchor="middle" x="436" y="-466.5" font-family="Helvetica,sans-Serif" font-size="10.00" fill="#000000">__typeinfo.h</text>
</a>
</g>
</g>
<!-- Node8&#45;&gt;Node14 -->
<g id="edge29" class="edge">
<title>Node8&#45;&gt;Node14</title>
<path fill="none" stroke="#191970" d="M315.9264,-515.3733C339.6202,-506.2226 375.4511,-492.3844 401.8068,-482.2057"/>
<polygon fill="#191970" stroke="#191970" points="403.3314,-485.3689 411.3989,-478.5011 400.8094,-478.8389 403.3314,-485.3689"/>
</g>
<!-- Node9&#45;&gt;Node2 -->
<g id="edge16" class="edge">
<title>Node9&#45;&gt;Node2</title>
<path fill="none" stroke="#191970" d="M100.4697,-403.4063C65.4459,-386.162 0,-346.3941 0,-290 0,-290 0,-290 0,-178 0,-105.8043 95.7638,-80.1092 160.3498,-70.9894"/>
<polygon fill="#191970" stroke="#191970" points="160.9704,-74.438 170.4284,-69.6634 160.0572,-67.4978 160.9704,-74.438"/>
</g>
<!-- Node9&#45;&gt;Node5 -->
<g id="edge15" class="edge">
<title>Node9&#45;&gt;Node5</title>
<path fill="none" stroke="#191970" d="M155.7651,-403.4716C179.2648,-395.866 210.6294,-383.7078 235,-367 307.9987,-316.954 373.7365,-232.4865 400.4045,-195.8458"/>
<polygon fill="#191970" stroke="#191970" points="403.329,-197.7737 406.3233,-187.6108 397.6449,-193.6883 403.329,-197.7737"/>
</g>
<!-- Node10 -->
<g id="node11" class="node">
<title>Node10</title>
<g id="a_node11"><a xlink:href="l4_2sys_2utcb_8h.html" target="_top" xlink:title="UTCB definitions. ">
<polygon fill="#ffffff" stroke="#000000" points="206,-224.5 206,-243.5 280,-243.5 280,-224.5 206,-224.5"/>
<text text-anchor="middle" x="243" y="-231.5" font-family="Helvetica,sans-Serif" font-size="10.00" fill="#000000">l4/sys/utcb.h</text>
</a>
</g>
</g>
<!-- Node9&#45;&gt;Node10 -->
<g id="edge17" class="edge">
<title>Node9&#45;&gt;Node10</title>
<path fill="none" stroke="#191970" d="M111.503,-403.3348C96.788,-388.5644 73.1869,-359.6042 86,-336 110.6975,-290.5024 165.4324,-262.1366 203.2705,-247.1961"/>
<polygon fill="#191970" stroke="#191970" points="204.8704,-250.3325 212.976,-243.5098 202.3848,-243.7886 204.8704,-250.3325"/>
</g>
<!-- Node11 -->
<g id="node12" class="node">
<title>Node11</title>
<g id="a_node12"><a xlink:href="____kernel__object__impl_8h.html" target="_top" xlink:title="Low&#45;level kernel debugger functions. ">
<polygon fill="#ffffff" stroke="#000000" points="104,-336.5 104,-366.5 226,-366.5 226,-336.5 104,-336.5"/>
<text text-anchor="start" x="112" y="-354.5" font-family="Helvetica,sans-Serif" font-size="10.00" fill="#000000">l4/sys/__kernel_object</text>
<text text-anchor="middle" x="165" y="-343.5" font-family="Helvetica,sans-Serif" font-size="10.00" fill="#000000">_impl.h</text>
</a>
</g>
</g>
<!-- Node9&#45;&gt;Node11 -->
<g id="edge21" class="edge">
<title>Node9&#45;&gt;Node11</title>
<path fill="none" stroke="#191970" d="M128.7188,-403.3906C134.0533,-395.761 141.741,-384.7658 148.6679,-374.8588"/>
<polygon fill="#191970" stroke="#191970" points="151.6192,-376.7456 154.481,-366.5446 145.8824,-372.7345 151.6192,-376.7456"/>
</g>
<!-- Node12 -->
<g id="node13" class="node">
<title>Node12</title>
<g id="a_node13"><a xlink:href="l4_2sys_2ipc_8h.html" target="_top" xlink:title="Common IPC interface. ">
<polygon fill="#ffffff" stroke="#000000" points="212,-280.5 212,-299.5 280,-299.5 280,-280.5 212,-280.5"/>
<text text-anchor="middle" x="246" y="-287.5" font-family="Helvetica,sans-Serif" font-size="10.00" fill="#000000">l4/sys/ipc.h</text>
</a>
</g>
</g>
<!-- Node9&#45;&gt;Node12 -->
<g id="edge27" class="edge">
<title>Node9&#45;&gt;Node12</title>
<path fill="none" stroke="#191970" d="M113.1124,-403.124C100.2211,-387.56 79.4851,-356.9452 95,-336 107.8299,-318.6795 161.9077,-305.2763 201.697,-297.5161"/>
<polygon fill="#191970" stroke="#191970" points="202.5512,-300.9167 211.7264,-295.619 201.2501,-294.0387 202.5512,-300.9167"/>
</g>
<!-- Node10&#45;&gt;Node2 -->
<g id="edge19" class="edge">
<title>Node10&#45;&gt;Node2</title>
<path fill="none" stroke="#191970" d="M236.8214,-224.3723C225.9816,-206.8443 203.936,-168.1859 196,-132 194.0958,-123.3175 194.0337,-120.6687 196,-112 198.144,-102.548 202.478,-92.7672 206.7367,-84.6675"/>
<polygon fill="#191970" stroke="#191970" points="209.8961,-86.1895 211.7417,-75.7567 203.7929,-82.7615 209.8961,-86.1895"/>
</g>
<!-- Node10&#45;&gt;Node4 -->
<g id="edge20" class="edge">
<title>Node10&#45;&gt;Node4</title>
<path fill="none" stroke="#191970" d="M255.0621,-224.4862C290.1268,-196.8296 392.3034,-116.2396 435.9043,-81.8502"/>
<polygon fill="#191970" stroke="#191970" points="438.122,-84.5586 443.8062,-75.6177 433.787,-79.0625 438.122,-84.5586"/>
</g>
<!-- Node10&#45;&gt;Node5 -->
<g id="edge18" class="edge">
<title>Node10&#45;&gt;Node5</title>
<path fill="none" stroke="#191970" d="M272.224,-224.3733C300.4925,-215.0613 343.4965,-200.8953 374.5344,-190.671"/>
<polygon fill="#191970" stroke="#191970" points="375.7544,-193.9542 384.1573,-187.5011 373.5643,-187.3056 375.7544,-193.9542"/>
</g>
<!-- Node11&#45;&gt;Node12 -->
<g id="edge22" class="edge">
<title>Node11&#45;&gt;Node12</title>
<path fill="none" stroke="#191970" d="M185.0225,-336.2977C197.086,-327.1384 212.4388,-315.4816 224.7211,-306.1562"/>
<polygon fill="#191970" stroke="#191970" points="227.1829,-308.6816 233.0309,-299.8469 222.9499,-303.1065 227.1829,-308.6816"/>
</g>
<!-- Node12&#45;&gt;Node5 -->
<g id="edge23" class="edge">
<title>Node12&#45;&gt;Node5</title>
<path fill="none" stroke="#191970" d="M257.583,-280.2831C273.7532,-266.9131 304.2367,-242.4097 332,-224 349.3509,-212.4947 369.7344,-200.9284 385.7128,-192.2718"/>
<polygon fill="#191970" stroke="#191970" points="387.3941,-195.3418 394.5554,-187.5337 384.088,-189.1717 387.3941,-195.3418"/>
</g>
<!-- Node12&#45;&gt;Node10 -->
<g id="edge24" class="edge">
<title>Node12&#45;&gt;Node10</title>
<path fill="none" stroke="#191970" d="M245.4774,-280.2455C245.086,-272.9382 244.5372,-262.6944 244.0556,-253.7046"/>
<polygon fill="#191970" stroke="#191970" points="247.5466,-253.4411 243.5166,-243.6427 240.5566,-253.8156 247.5466,-253.4411"/>
</g>
<!-- Node13 -->
<g id="node14" class="node">
<title>Node13</title>
<g id="a_node14"><a xlink:href="err_8h.html" target="_top" xlink:title="Error codes. ">
<polygon fill="#ffffff" stroke="#000000" points="120,-224.5 120,-243.5 188,-243.5 188,-224.5 120,-224.5"/>
<text text-anchor="middle" x="154" y="-231.5" font-family="Helvetica,sans-Serif" font-size="10.00" fill="#000000">l4/sys/err.h</text>
</a>
</g>
</g>
<!-- Node12&#45;&gt;Node13 -->
<g id="edge25" class="edge">
<title>Node12&#45;&gt;Node13</title>
<path fill="none" stroke="#191970" d="M229.9748,-280.2455C215.8592,-271.6534 195.0737,-259.0014 178.8101,-249.1018"/>
<polygon fill="#191970" stroke="#191970" points="180.2034,-245.8525 169.8415,-243.6427 176.5637,-251.8319 180.2034,-245.8525"/>
</g>
<!-- Node13&#45;&gt;Node2 -->
<g id="edge26" class="edge">
<title>Node13&#45;&gt;Node2</title>
<path fill="none" stroke="#191970" d="M156.1309,-224.2328C160.9033,-203.1721 173.4263,-152.1458 191,-112 195.2089,-102.3851 200.9836,-92.2669 206.1124,-83.9759"/>
<polygon fill="#191970" stroke="#191970" points="209.0822,-85.8284 211.5108,-75.5157 203.1811,-82.063 209.0822,-85.8284"/>
</g>
<!-- Node15 -->
<g id="node16" class="node">
<title>Node15</title>
<g id="a_node16"><a xlink:href="types.html" target="_top" xlink:title="cxx/types">
<polygon fill="#ffffff" stroke="#000000" points="636.5,-342 636.5,-361 697.5,-361 697.5,-342 636.5,-342"/>
<text text-anchor="middle" x="667" y="-349" font-family="Helvetica,sans-Serif" font-size="10.00" fill="#000000">cxx/types</text>
</a>
</g>
</g>
<!-- Node14&#45;&gt;Node15 -->
<g id="edge30" class="edge">
<title>Node14&#45;&gt;Node15</title>
<path fill="none" stroke="#191970" d="M473.0808,-459.7414C500.9433,-451.9931 539.5541,-439.5426 571,-423 600.3463,-407.562 630.4052,-383.5916 648.8876,-367.7226"/>
<polygon fill="#191970" stroke="#191970" points="651.2877,-370.2735 656.5208,-361.0613 646.685,-364.9994 651.2877,-370.2735"/>
</g>
<!-- Node16 -->
<g id="node17" class="node">
<title>Node16</title>
<g id="a_node17"><a xlink:href="ipc__basics_source.html" target="_top" xlink:title="cxx/ipc_basics">
<polygon fill="#ffffff" stroke="#000000" points="373,-403.5 373,-422.5 457,-422.5 457,-403.5 373,-403.5"/>
<text text-anchor="middle" x="415" y="-410.5" font-family="Helvetica,sans-Serif" font-size="10.00" fill="#000000">cxx/ipc_basics</text>
</a>
</g>
</g>
<!-- Node14&#45;&gt;Node16 -->
<g id="edge31" class="edge">
<title>Node14&#45;&gt;Node16</title>
<path fill="none" stroke="#191970" d="M432.3421,-459.2455C429.5416,-451.7776 425.591,-441.2427 422.1676,-432.1137"/>
<polygon fill="#191970" stroke="#191970" points="425.4045,-430.777 418.616,-422.6427 418.8501,-433.2349 425.4045,-430.777"/>
</g>
<!-- Node17 -->
<g id="node18" class="node">
<title>Node17</title>
<g id="a_node18"><a xlink:href="capability_8h_source.html" target="_top" xlink:title="cxx/capability.h">
<polygon fill="#ffffff" stroke="#000000" points="475.5,-403.5 475.5,-422.5 562.5,-422.5 562.5,-403.5 475.5,-403.5"/>
<text text-anchor="middle" x="519" y="-410.5" font-family="Helvetica,sans-Serif" font-size="10.00" fill="#000000">cxx/capability.h</text>
</a>
</g>
</g>
<!-- Node14&#45;&gt;Node17 -->
<g id="edge35" class="edge">
<title>Node14&#45;&gt;Node17</title>
<path fill="none" stroke="#191970" d="M450.4575,-459.2455C463.0732,-450.7337 481.5944,-438.2375 496.2045,-428.3801"/>
<polygon fill="#191970" stroke="#191970" points="498.3761,-431.1371 504.7082,-422.6427 494.4609,-425.3343 498.3761,-431.1371"/>
</g>
<!-- Node16&#45;&gt;Node10 -->
<g id="edge33" class="edge">
<title>Node16&#45;&gt;Node10</title>
<path fill="none" stroke="#191970" d="M415.9184,-403.0985C416.8606,-387.4995 416.6203,-356.8376 403,-336 373.9633,-291.5769 318.1077,-262.6704 280.6875,-247.344"/>
<polygon fill="#191970" stroke="#191970" points="281.7159,-243.9868 271.1297,-243.5591 279.1386,-250.4951 281.7159,-243.9868"/>
</g>
<!-- Node16&#45;&gt;Node13 -->
<g id="edge34" class="edge">
<title>Node16&#45;&gt;Node13</title>
<path fill="none" stroke="#191970" d="M387.1736,-403.4115C343.8282,-387.4074 259.3255,-351.8149 203,-300 187.8102,-286.0266 174.1443,-266.777 165.1285,-252.6725"/>
<polygon fill="#191970" stroke="#191970" points="167.9096,-250.5157 159.668,-243.8578 161.9589,-254.202 167.9096,-250.5157"/>
</g>
<!-- Node16&#45;&gt;Node15 -->
<g id="edge32" class="edge">
<title>Node16&#45;&gt;Node15</title>
<path fill="none" stroke="#191970" d="M454.0985,-403.4581C500.8514,-392.0482 578.7277,-373.0426 626.2146,-361.4536"/>
<polygon fill="#191970" stroke="#191970" points="627.2675,-364.7994 636.1526,-359.0282 625.6079,-357.999 627.2675,-364.7994"/>
</g>
<!-- Node17&#45;&gt;Node1 -->
<g id="edge36" class="edge">
<title>Node17&#45;&gt;Node1</title>
<path fill="none" stroke="#191970" d="M532.9063,-403.2701C557.9375,-384.4912 608,-340.6074 608,-290 608,-290 608,-290 608,-234 608,-201.7116 608,-164.1872 608,-141.8048"/>
<polygon fill="#191970" stroke="#191970" points="611.5001,-141.5883 608,-131.5884 604.5001,-141.5884 611.5001,-141.5883"/>
</g>
<!-- Node17&#45;&gt;Node5 -->
<g id="edge37" class="edge">
<title>Node17&#45;&gt;Node5</title>
<path fill="none" stroke="#191970" d="M518.9377,-403.473C518.3151,-374.1858 513.1403,-283.8439 474,-224 465.6689,-211.2622 452.5504,-200.7012 440.6101,-192.9249"/>
<polygon fill="#191970" stroke="#191970" points="442.163,-189.7717 431.8078,-187.5312 438.5057,-195.7403 442.163,-189.7717"/>
</g>
<!-- Node17&#45;&gt;Node18 -->
<g id="edge38" class="edge">
<title>Node17&#45;&gt;Node18</title>
<path fill="none" stroke="#191970" d="M493.6875,-403.3906C466.2253,-392.9652 422.2105,-376.2559 391.5737,-364.6252"/>
<polygon fill="#191970" stroke="#191970" points="392.726,-361.319 382.1348,-361.0419 390.2415,-367.8633 392.726,-361.319"/>
</g>
<!-- Node18&#45;&gt;Node5 -->
<g id="edge39" class="edge">
<title>Node18&#45;&gt;Node5</title>
<path fill="none" stroke="#191970" d="M360.0906,-341.9248C368.9809,-314.3807 394.7483,-234.5477 406.7332,-197.416"/>
<polygon fill="#191970" stroke="#191970" points="410.1091,-198.3512 409.85,-187.7595 403.4475,-196.201 410.1091,-198.3512"/>
</g>
<!-- Node18&#45;&gt;Node10 -->
<g id="edge40" class="edge">
<title>Node18&#45;&gt;Node10</title>
<path fill="none" stroke="#191970" d="M347.8378,-341.7116C334.8484,-327.8701 310.2894,-301.8302 289,-280 279.582,-270.3427 268.9391,-259.6838 260.2643,-251.06"/>
<polygon fill="#191970" stroke="#191970" points="262.5077,-248.3556 252.9425,-243.7995 257.5787,-253.3261 262.5077,-248.3556"/>
</g>
<!-- Node18&#45;&gt;Node12 -->
<g id="edge41" class="edge">
<title>Node18&#45;&gt;Node12</title>
<path fill="none" stroke="#191970" d="M339.6563,-341.8906C321.5727,-331.8713 293.0141,-316.0483 272.1835,-304.5071"/>
<polygon fill="#191970" stroke="#191970" points="273.6654,-301.3268 263.222,-299.5419 270.2729,-307.4498 273.6654,-301.3268"/>
</g>
<!-- Node19&#45;&gt;Node8 -->
<g id="edge44" class="edge">
<title>Node19&#45;&gt;Node8</title>
<path fill="none" stroke="#191970" d="M423.6374,-627.4509C398.704,-608.1921 342.1667,-564.5218 311.5764,-540.8935"/>
<polygon fill="#191970" stroke="#191970" points="313.3849,-537.8679 303.3313,-534.5249 309.1059,-543.4078 313.3849,-537.8679"/>
</g>
<!-- Node20 -->
<g id="node21" class="node">
<title>Node20</title>
<g id="a_node21"><a xlink:href="ipc__iface.html" target="_top" xlink:title="Interface Definition Language. ">
<polygon fill="#ffffff" stroke="#000000" points="397.5,-515.5 397.5,-534.5 474.5,-534.5 474.5,-515.5 397.5,-515.5"/>
<text text-anchor="middle" x="436" y="-522.5" font-family="Helvetica,sans-Serif" font-size="10.00" fill="#000000">cxx/ipc_iface</text>
</a>
</g>
</g>
<!-- Node19&#45;&gt;Node20 -->
<g id="edge45" class="edge">
<title>Node19&#45;&gt;Node20</title>
<path fill="none" stroke="#191970" d="M436,-627.4509C436,-609.184 436,-568.9553 436,-544.6976"/>
<polygon fill="#191970" stroke="#191970" points="439.5001,-544.5249 436,-534.5249 432.5001,-544.5249 439.5001,-544.5249"/>
</g>
<!-- Node22 -->
<g id="node23" class="node">
<title>Node22</title>
<g id="a_node23"><a xlink:href="ipc__string_source.html" target="_top" xlink:title="cxx/ipc_string">
<polygon fill="#ffffff" stroke="#000000" points="484.5,-571.5 484.5,-590.5 565.5,-590.5 565.5,-571.5 484.5,-571.5"/>
<text text-anchor="middle" x="525" y="-578.5" font-family="Helvetica,sans-Serif" font-size="10.00" fill="#000000">cxx/ipc_string</text>
</a>
</g>
</g>
<!-- Node19&#45;&gt;Node22 -->
<g id="edge52" class="edge">
<title>Node19&#45;&gt;Node22</title>
<path fill="none" stroke="#191970" d="M451.5026,-627.2455C465.158,-618.6534 485.2657,-606.0014 500.9989,-596.1018"/>
<polygon fill="#191970" stroke="#191970" points="503.0751,-598.9307 509.675,-590.6427 499.3471,-593.006 503.0751,-598.9307"/>
</g>
<!-- Node20&#45;&gt;Node14 -->
<g id="edge51" class="edge">
<title>Node20&#45;&gt;Node14</title>
<path fill="none" stroke="#191970" d="M436,-515.2455C436,-507.9382 436,-497.6944 436,-488.7046"/>
<polygon fill="#191970" stroke="#191970" points="439.5001,-488.6426 436,-478.6427 432.5001,-488.6427 439.5001,-488.6426"/>
</g>
<!-- Node20&#45;&gt;Node16 -->
<g id="edge46" class="edge">
<title>Node20&#45;&gt;Node16</title>
<path fill="none" stroke="#191970" d="M421.3148,-515.2577C410.3846,-507.0536 396.3102,-494.2342 390,-479 383.371,-462.9962 391.6881,-444.5401 400.4651,-431.221"/>
<polygon fill="#191970" stroke="#191970" points="403.4416,-433.0766 406.4369,-422.914 397.7579,-428.9906 403.4416,-433.0766"/>
</g>
<!-- Node21 -->
<g id="node22" class="node">
<title>Node21</title>
<g id="a_node22"><a xlink:href="ipc__types.html" target="_top" xlink:title="l4/sys/cxx/ipc_types">
<polygon fill="#ffffff" stroke="#000000" points="529,-459.5 529,-478.5 639,-478.5 639,-459.5 529,-459.5"/>
<text text-anchor="middle" x="584" y="-466.5" font-family="Helvetica,sans-Serif" font-size="10.00" fill="#000000">l4/sys/cxx/ipc_types</text>
</a>
</g>
</g>
<!-- Node20&#45;&gt;Node21 -->
<g id="edge47" class="edge">
<title>Node20&#45;&gt;Node21</title>
<path fill="none" stroke="#191970" d="M461.4421,-515.3733C485.7326,-506.1822 522.5208,-492.2624 549.4543,-482.0713"/>
<polygon fill="#191970" stroke="#191970" points="550.7757,-485.3136 558.8899,-478.5011 548.2984,-478.7666 550.7757,-485.3136"/>
</g>
<!-- Node21&#45;&gt;Node15 -->
<g id="edge49" class="edge">
<title>Node21&#45;&gt;Node15</title>
<path fill="none" stroke="#191970" d="M590.7922,-459.3845C604.6539,-439.761 636.3942,-394.8274 654.2306,-369.5772"/>
<polygon fill="#191970" stroke="#191970" points="657.203,-371.4355 660.1139,-361.2484 651.4856,-367.3968 657.203,-371.4355"/>
</g>
<!-- Node21&#45;&gt;Node16 -->
<g id="edge50" class="edge">
<title>Node21&#45;&gt;Node16</title>
<path fill="none" stroke="#191970" d="M554.9479,-459.3733C526.8457,-450.0613 484.0946,-435.8953 453.2393,-425.671"/>
<polygon fill="#191970" stroke="#191970" points="454.2664,-422.3243 443.673,-422.5011 452.0645,-428.969 454.2664,-422.3243"/>
</g>
<!-- Node21&#45;&gt;Node17 -->
<g id="edge48" class="edge">
<title>Node21&#45;&gt;Node17</title>
<path fill="none" stroke="#191970" d="M572.6779,-459.2455C563.0777,-450.9746 549.1108,-438.9416 537.8305,-429.2232"/>
<polygon fill="#191970" stroke="#191970" points="540.053,-426.5182 530.1924,-422.6427 535.484,-431.8214 540.053,-426.5182"/>
</g>
<!-- Node22&#45;&gt;Node15 -->
<g id="edge53" class="edge">
<title>Node22&#45;&gt;Node15</title>
<path fill="none" stroke="#191970" d="M548.1508,-571.4143C580.6251,-556.6778 638.9735,-525.2284 668,-479 686.3082,-449.8419 688.1659,-437.0396 683,-403 681.3465,-392.1048 677.8312,-380.3414 674.5156,-370.8115"/>
<polygon fill="#191970" stroke="#191970" points="677.7046,-369.3426 670.967,-361.1661 671.1351,-371.7596 677.7046,-369.3426"/>
</g>
<!-- Node22&#45;&gt;Node16 -->
<g id="edge54" class="edge">
<title>Node22&#45;&gt;Node16</title>
<path fill="none" stroke="#191970" d="M484.4486,-572.5886C448.5458,-564.2561 400.0229,-550.5207 388,-535 367.2861,-508.2599 374.1173,-491.3486 384,-459 387.1409,-448.7192 393.4366,-438.6582 399.5388,-430.5799"/>
<polygon fill="#191970" stroke="#191970" points="402.363,-432.6535 405.9259,-422.6757 396.9184,-428.2539 402.363,-432.6535"/>
</g>
<!-- Node23 -->
<g id="node24" class="node">
<title>Node23</title>
<g id="a_node24"><a xlink:href="ipc__array_source.html" target="_top" xlink:title="ipc_array">
<polygon fill="#ffffff" stroke="#000000" points="533.5,-515.5 533.5,-534.5 594.5,-534.5 594.5,-515.5 533.5,-515.5"/>
<text text-anchor="middle" x="564" y="-522.5" font-family="Helvetica,sans-Serif" font-size="10.00" fill="#000000">ipc_array</text>
</a>
</g>
</g>
<!-- Node22&#45;&gt;Node23 -->
<g id="edge55" class="edge">
<title>Node22&#45;&gt;Node23</title>
<path fill="none" stroke="#191970" d="M531.7933,-571.2455C537.2178,-563.4564 544.9661,-552.3308 551.5033,-542.9439"/>
<polygon fill="#191970" stroke="#191970" points="554.4417,-544.849 557.2846,-534.6427 548.6975,-540.8485 554.4417,-544.849"/>
</g>
<!-- Node23&#45;&gt;Node15 -->
<g id="edge56" class="edge">
<title>Node23&#45;&gt;Node15</title>
<path fill="none" stroke="#191970" d="M594.7813,-515.9098C613.1739,-508.8473 635.3525,-497.1399 648,-479 670.6235,-446.5518 671.0643,-398.1316 669.1691,-371.2624"/>
<polygon fill="#191970" stroke="#191970" points="672.6442,-370.8263 668.2717,-361.1758 665.6718,-371.4467 672.6442,-370.8263"/>
</g>
<!-- Node23&#45;&gt;Node16 -->
<g id="edge57" class="edge">
<title>Node23&#45;&gt;Node16</title>
<path fill="none" stroke="#191970" d="M552.5413,-515.3172C536.8854,-502.195 507.8041,-478.1995 482,-459 467.652,-448.3244 451.0874,-436.9437 438.0185,-428.1731"/>
<polygon fill="#191970" stroke="#191970" points="439.8611,-425.195 429.5995,-422.5589 435.9775,-431.0189 439.8611,-425.195"/>
</g>
<!-- Node23&#45;&gt;Node21 -->
<g id="edge58" class="edge">
<title>Node23&#45;&gt;Node21</title>
<path fill="none" stroke="#191970" d="M567.4837,-515.2455C570.1508,-507.7776 573.9133,-497.2427 577.1737,-488.1137"/>
<polygon fill="#191970" stroke="#191970" points="580.4889,-489.2373 580.5562,-478.6427 573.8967,-486.8829 580.4889,-489.2373"/>
</g>
</g>
</svg>
