<?xml version="1.0" encoding="UTF-8" standalone="no"?>
<!DOCTYPE svg PUBLIC "-//W3C//DTD SVG 1.1//EN"
 "http://www.w3.org/Graphics/SVG/1.1/DTD/svg11.dtd">
<!-- Generated by graphviz version 2.40.1 (20161225.0304)
 -->
<!-- Title: L4Re::Video::Color_component::size Pages: 1 -->
<svg width="258pt" height="88pt"
 viewBox="0.00 0.00 258.00 88.00" xmlns="http://www.w3.org/2000/svg" xmlns:xlink="http://www.w3.org/1999/xlink">
<g id="graph0" class="graph" transform="scale(1 1) rotate(0) translate(4 84)">
<title>L4Re::Video::Color_component::size</title>
<polygon fill="#ffffff" stroke="transparent" points="-4,4 -4,-84 254,-84 254,4 -4,4"/>
<!-- Node13 -->
<g id="node1" class="node">
<title>Node13</title>
<polygon fill="#bfbfbf" stroke="#000000" points="0,-24.5 0,-54.5 104,-54.5 104,-24.5 0,-24.5"/>
<text text-anchor="start" x="8" y="-42.5" font-family="Helvetica,sans-Serif" font-size="10.00" fill="#000000">L4Re::Video::Color</text>
<text text-anchor="middle" x="52" y="-31.5" font-family="Helvetica,sans-Serif" font-size="10.00" fill="#000000">_component::size</text>
</g>
<!-- Node14 -->
<g id="node2" class="node">
<title>Node14</title>
<g id="a_node2"><a xlink:href="classL4Re_1_1Video_1_1Pixel__info.html#ad22a6f5891085219d36e844abb69ba11" target="_top" xlink:title="Number of bits of the pixel. ">
<polygon fill="#ffffff" stroke="#000000" points="140,-49.5 140,-79.5 250,-79.5 250,-49.5 140,-49.5"/>
<text text-anchor="start" x="148" y="-67.5" font-family="Helvetica,sans-Serif" font-size="10.00" fill="#000000">L4Re::Video::Pixel</text>
<text text-anchor="middle" x="195" y="-56.5" font-family="Helvetica,sans-Serif" font-size="10.00" fill="#000000">_info::bits_per_pixel</text>
</a>
</g>
</g>
<!-- Node13&#45;&gt;Node14 -->
<g id="edge1" class="edge">
<title>Node13&#45;&gt;Node14</title>
<path fill="none" stroke="#191970" d="M114.0151,-50.3418C122.6194,-51.846 131.4101,-53.3829 139.8771,-54.8631"/>
<polygon fill="#191970" stroke="#191970" points="114.4842,-46.8708 104.0308,-48.5963 113.2786,-53.7662 114.4842,-46.8708"/>
</g>
<!-- Node15 -->
<g id="node3" class="node">
<title>Node15</title>
<g id="a_node3"><a xlink:href="classL4Re_1_1Video_1_1Pixel__info.html#a6733df4bfc30ad4535a609ef90e63258" target="_top" xlink:title="Return whether the pixel has an alpha channel. ">
<polygon fill="#ffffff" stroke="#000000" points="144.5,-.5 144.5,-30.5 245.5,-30.5 245.5,-.5 144.5,-.5"/>
<text text-anchor="start" x="152.5" y="-18.5" font-family="Helvetica,sans-Serif" font-size="10.00" fill="#000000">L4Re::Video::Pixel</text>
<text text-anchor="middle" x="195" y="-7.5" font-family="Helvetica,sans-Serif" font-size="10.00" fill="#000000">_info::has_alpha</text>
</a>
</g>
</g>
<!-- Node13&#45;&gt;Node15 -->
<g id="edge2" class="edge">
<title>Node13&#45;&gt;Node15</title>
<path fill="none" stroke="#191970" d="M113.9998,-29.0944C124.0847,-27.4019 134.4264,-25.6662 144.2029,-24.0254"/>
<polygon fill="#191970" stroke="#191970" points="113.3135,-25.6606 104.0308,-30.7676 114.4722,-32.564 113.3135,-25.6606"/>
</g>
</g>
</svg>
