<?xml version="1.0" encoding="UTF-8" standalone="no"?>
<!DOCTYPE svg PUBLIC "-//W3C//DTD SVG 1.1//EN"
 "http://www.w3.org/Graphics/SVG/1.1/DTD/svg11.dtd">
<!-- Generated by graphviz version 2.40.1 (20161225.0304)
 -->
<!-- Title: L4::Factory Pages: 1 -->
<svg width="282pt" height="632pt"
 viewBox="0.00 0.00 282.00 632.00" xmlns="http://www.w3.org/2000/svg" xmlns:xlink="http://www.w3.org/1999/xlink">
<g id="graph0" class="graph" transform="scale(1 1) rotate(0) translate(4 628)">
<title>L4::Factory</title>
<polygon fill="#ffffff" stroke="transparent" points="-4,4 -4,-628 278,-628 278,4 -4,4"/>
<!-- Node0 -->
<g id="node1" class="node">
<title>Node0</title>
<polygon fill="#bfbfbf" stroke="#000000" points="60,-234.5 60,-368.5 162,-368.5 162,-234.5 60,-234.5"/>
<text text-anchor="middle" x="111" y="-356.5" font-family="Helvetica,sans-Serif" font-size="10.00" fill="#000000">L4::Factory</text>
<polyline fill="none" stroke="#000000" points="60,-349.5 162,-349.5 "/>
<text text-anchor="middle" x="111" y="-337.5" font-family="Helvetica,sans-Serif" font-size="10.00" fill="#000000"> </text>
<polyline fill="none" stroke="#000000" points="60,-330.5 162,-330.5 "/>
<text text-anchor="start" x="68" y="-318.5" font-family="Helvetica,sans-Serif" font-size="10.00" fill="#000000">+ create()</text>
<text text-anchor="start" x="68" y="-307.5" font-family="Helvetica,sans-Serif" font-size="10.00" fill="#000000">+ create()</text>
<text text-anchor="start" x="68" y="-296.5" font-family="Helvetica,sans-Serif" font-size="10.00" fill="#000000">+ create_task()</text>
<text text-anchor="start" x="68" y="-285.5" font-family="Helvetica,sans-Serif" font-size="10.00" fill="#000000">+ create_thread()</text>
<text text-anchor="start" x="68" y="-274.5" font-family="Helvetica,sans-Serif" font-size="10.00" fill="#000000">+ create_factory()</text>
<text text-anchor="start" x="68" y="-263.5" font-family="Helvetica,sans-Serif" font-size="10.00" fill="#000000">+ create_gate()</text>
<text text-anchor="start" x="68" y="-252.5" font-family="Helvetica,sans-Serif" font-size="10.00" fill="#000000">+ create_irq()</text>
<text text-anchor="start" x="68" y="-241.5" font-family="Helvetica,sans-Serif" font-size="10.00" fill="#000000">+ create_vm()</text>
</g>
<!-- Node4 -->
<g id="node5" class="node">
<title>Node4</title>
<g id="a_node5"><a xlink:href="classL4_1_1Kobject__t.html" target="_top" xlink:title="{L4::Kobject_t\&lt; Mem\l_alloc, L4::Factory,\l L4::PROTO_EMPTY \&gt;\n||# c()\l# __check_protocols__()\l}">
<polygon fill="#ffffff" stroke="#000000" points="44,-106.5 44,-196.5 178,-196.5 178,-106.5 44,-106.5"/>
<text text-anchor="start" x="52" y="-184.5" font-family="Helvetica,sans-Serif" font-size="10.00" fill="#000000">L4::Kobject_t&lt; Mem</text>
<text text-anchor="start" x="52" y="-173.5" font-family="Helvetica,sans-Serif" font-size="10.00" fill="#000000">_alloc, L4::Factory,</text>
<text text-anchor="middle" x="111" y="-162.5" font-family="Helvetica,sans-Serif" font-size="10.00" fill="#000000"> L4::PROTO_EMPTY &gt;</text>
<polyline fill="none" stroke="#000000" points="44,-155.5 178,-155.5 "/>
<text text-anchor="middle" x="111" y="-143.5" font-family="Helvetica,sans-Serif" font-size="10.00" fill="#000000"> </text>
<polyline fill="none" stroke="#000000" points="44,-136.5 178,-136.5 "/>
<text text-anchor="start" x="52" y="-124.5" font-family="Helvetica,sans-Serif" font-size="10.00" fill="#000000"># c()</text>
<text text-anchor="start" x="52" y="-113.5" font-family="Helvetica,sans-Serif" font-size="10.00" fill="#000000"># __check_protocols__()</text>
</a>
</g>
</g>
<!-- Node0&#45;&gt;Node4 -->
<g id="edge4" class="edge">
<title>Node0&#45;&gt;Node4</title>
<path fill="none" stroke="#191970" d="M111,-224.1656C111,-214.7284 111,-205.3404 111,-196.6003"/>
<polygon fill="none" stroke="#191970" points="107.5001,-224.3971 111,-234.3971 114.5001,-224.3972 107.5001,-224.3971"/>
</g>
<!-- Node1 -->
<g id="node2" class="node">
<title>Node1</title>
<g id="a_node2"><a xlink:href="classL4_1_1Kobject__t.html" target="_top" xlink:title="{L4::Kobject_t\&lt; Factory,\l Kobject, L4_PROTO_FACTORY \&gt;\n||# c()\l# __check_protocols__()\l}">
<polygon fill="#ffffff" stroke="#000000" points="21.5,-406.5 21.5,-485.5 200.5,-485.5 200.5,-406.5 21.5,-406.5"/>
<text text-anchor="start" x="29.5" y="-473.5" font-family="Helvetica,sans-Serif" font-size="10.00" fill="#000000">L4::Kobject_t&lt; Factory,</text>
<text text-anchor="middle" x="111" y="-462.5" font-family="Helvetica,sans-Serif" font-size="10.00" fill="#000000"> Kobject, L4_PROTO_FACTORY &gt;</text>
<polyline fill="none" stroke="#000000" points="21.5,-455.5 200.5,-455.5 "/>
<text text-anchor="middle" x="111" y="-443.5" font-family="Helvetica,sans-Serif" font-size="10.00" fill="#000000"> </text>
<polyline fill="none" stroke="#000000" points="21.5,-436.5 200.5,-436.5 "/>
<text text-anchor="start" x="29.5" y="-424.5" font-family="Helvetica,sans-Serif" font-size="10.00" fill="#000000"># c()</text>
<text text-anchor="start" x="29.5" y="-413.5" font-family="Helvetica,sans-Serif" font-size="10.00" fill="#000000"># __check_protocols__()</text>
</a>
</g>
</g>
<!-- Node1&#45;&gt;Node0 -->
<g id="edge1" class="edge">
<title>Node1&#45;&gt;Node0</title>
<path fill="none" stroke="#191970" d="M111,-396.037C111,-387.2143 111,-377.9002 111,-368.6959"/>
<polygon fill="none" stroke="#191970" points="107.5001,-396.1322 111,-406.1322 114.5001,-396.1323 107.5001,-396.1322"/>
</g>
<!-- Node2 -->
<g id="node3" class="node">
<title>Node2</title>
<g id="a_node3"><a xlink:href="classL4_1_1Kobject.html" target="_top" xlink:title="Base class for all kinds of kernel objects and remote objects, referenced by capabilities. ">
<polygon fill="#ffffff" stroke="#000000" points="0,-550 0,-618 84,-618 84,-550 0,-550"/>
<text text-anchor="middle" x="42" y="-606" font-family="Helvetica,sans-Serif" font-size="10.00" fill="#000000">L4::Kobject</text>
<polyline fill="none" stroke="#000000" points="0,-599 84,-599 "/>
<text text-anchor="middle" x="42" y="-587" font-family="Helvetica,sans-Serif" font-size="10.00" fill="#000000"> </text>
<polyline fill="none" stroke="#000000" points="0,-580 84,-580 "/>
<text text-anchor="start" x="8" y="-568" font-family="Helvetica,sans-Serif" font-size="10.00" fill="#000000">+ dec_refcnt()</text>
<text text-anchor="start" x="8" y="-557" font-family="Helvetica,sans-Serif" font-size="10.00" fill="#000000"># cap()</text>
</a>
</g>
</g>
<!-- Node2&#45;&gt;Node1 -->
<g id="edge2" class="edge">
<title>Node2&#45;&gt;Node1</title>
<path fill="none" stroke="#191970" d="M63.5437,-540.9127C72.3854,-523.2293 82.5553,-502.8893 91.2072,-485.5857"/>
<polygon fill="none" stroke="#191970" points="60.3979,-539.3781 59.0562,-549.8876 66.6589,-542.5086 60.3979,-539.3781"/>
</g>
<!-- Node3 -->
<g id="node4" class="node">
<title>Node3</title>
<g id="a_node4"><a xlink:href="classL4_1_1Kobject__t.html" target="_top" xlink:title="Helper class to create an L4Re interface class that is derived from a single base class...">
<polygon fill="#ffffff" stroke="#000000" points="102,-544.5 102,-623.5 260,-623.5 260,-544.5 102,-544.5"/>
<text text-anchor="start" x="110" y="-611.5" font-family="Helvetica,sans-Serif" font-size="10.00" fill="#000000">L4::Kobject_t&lt; Derived,</text>
<text text-anchor="middle" x="181" y="-600.5" font-family="Helvetica,sans-Serif" font-size="10.00" fill="#000000"> Base, PROTO, S_DEMAND &gt;</text>
<polyline fill="none" stroke="#000000" points="102,-593.5 260,-593.5 "/>
<text text-anchor="middle" x="181" y="-581.5" font-family="Helvetica,sans-Serif" font-size="10.00" fill="#000000"> </text>
<polyline fill="none" stroke="#000000" points="102,-574.5 260,-574.5 "/>
<text text-anchor="start" x="110" y="-562.5" font-family="Helvetica,sans-Serif" font-size="10.00" fill="#000000"># c()</text>
<text text-anchor="start" x="110" y="-551.5" font-family="Helvetica,sans-Serif" font-size="10.00" fill="#000000"># __check_protocols__()</text>
</a>
</g>
</g>
<!-- Node3&#45;&gt;Node1 -->
<g id="edge3" class="edge">
<title>Node3&#45;&gt;Node1</title>
<path fill="none" stroke="#ffa500" d="M156.2011,-535.1107C147.9624,-518.8688 138.8975,-500.998 131.0621,-485.551"/>
<polygon fill="#ffa500" stroke="#ffa500" points="153.2956,-537.1198 160.9408,-544.4547 159.5384,-533.9531 153.2956,-537.1198"/>
<text text-anchor="start" x="150" y="-518" font-family="Helvetica,sans-Serif" font-size="10.00" fill="#000000"> &lt; Factory, Kobject,</text>
<text text-anchor="middle" x="212" y="-507" font-family="Helvetica,sans-Serif" font-size="10.00" fill="#000000"> L4_PROTO_FACTORY &gt;</text>
</g>
<!-- Node5 -->
<g id="node6" class="node">
<title>Node5</title>
<g id="a_node6"><a xlink:href="classL4Re_1_1Mem__alloc.html" target="_top" xlink:title="Memory allocation interface. ">
<polygon fill="#ffffff" stroke="#000000" points="62,-.5 62,-68.5 160,-68.5 160,-.5 62,-.5"/>
<text text-anchor="middle" x="111" y="-56.5" font-family="Helvetica,sans-Serif" font-size="10.00" fill="#000000">L4Re::Mem_alloc</text>
<polyline fill="none" stroke="#000000" points="62,-49.5 160,-49.5 "/>
<text text-anchor="middle" x="111" y="-37.5" font-family="Helvetica,sans-Serif" font-size="10.00" fill="#000000"> </text>
<polyline fill="none" stroke="#000000" points="62,-30.5 160,-30.5 "/>
<text text-anchor="start" x="70" y="-18.5" font-family="Helvetica,sans-Serif" font-size="10.00" fill="#000000">+ alloc()</text>
<text text-anchor="start" x="70" y="-7.5" font-family="Helvetica,sans-Serif" font-size="10.00" fill="#000000">+ free()</text>
</a>
</g>
</g>
<!-- Node4&#45;&gt;Node5 -->
<g id="edge5" class="edge">
<title>Node4&#45;&gt;Node5</title>
<path fill="none" stroke="#191970" d="M111,-96.1895C111,-86.8229 111,-77.3469 111,-68.7259"/>
<polygon fill="none" stroke="#191970" points="107.5001,-96.2647 111,-106.2647 114.5001,-96.2648 107.5001,-96.2647"/>
</g>
</g>
</svg>
