<?xml version="1.0" encoding="UTF-8" standalone="no"?>
<!DOCTYPE svg PUBLIC "-//W3C//DTD SVG 1.1//EN"
 "http://www.w3.org/Graphics/SVG/1.1/DTD/svg11.dtd">
<!-- Generated by graphviz version 2.40.1 (20161225.0304)
 -->
<!-- Title: L4Re::Util::Object_registry::Object_registry Pages: 1 -->
<svg width="282pt" height="50pt"
 viewBox="0.00 0.00 282.00 50.00" xmlns="http://www.w3.org/2000/svg" xmlns:xlink="http://www.w3.org/1999/xlink">
<g id="graph0" class="graph" transform="scale(1 1) rotate(0) translate(4 46)">
<title>L4Re::Util::Object_registry::Object_registry</title>
<polygon fill="#ffffff" stroke="transparent" points="-4,4 -4,-46 278,-46 278,4 -4,4"/>
<!-- Node2 -->
<g id="node1" class="node">
<title>Node2</title>
<polygon fill="#bfbfbf" stroke="#000000" points="0,-6 0,-36 134,-36 134,-6 0,-6"/>
<text text-anchor="start" x="8" y="-24" font-family="Helvetica,sans-Serif" font-size="10.00" fill="#000000">L4Re::Util::Object</text>
<text text-anchor="middle" x="67" y="-13" font-family="Helvetica,sans-Serif" font-size="10.00" fill="#000000">_registry::Object_registry</text>
</g>
<!-- Node3 -->
<g id="node2" class="node">
<title>Node3</title>
<g id="a_node2"><a xlink:href="classL4_1_1Ipc__svr_1_1Server__iface.html#ae37a0cf49bd7a6731bfba6140a0a30b8" target="_top" xlink:title="Tells the server to allocate buffers for the given demand. ">
<polygon fill="#ffffff" stroke="#000000" points="170,-.5 170,-41.5 274,-41.5 274,-.5 170,-.5"/>
<text text-anchor="start" x="178" y="-29.5" font-family="Helvetica,sans-Serif" font-size="10.00" fill="#000000">L4::Ipc_svr::Server</text>
<text text-anchor="start" x="178" y="-18.5" font-family="Helvetica,sans-Serif" font-size="10.00" fill="#000000">_iface::alloc_buffer</text>
<text text-anchor="middle" x="222" y="-7.5" font-family="Helvetica,sans-Serif" font-size="10.00" fill="#000000">_demand</text>
</a>
</g>
</g>
<!-- Node2&#45;&gt;Node3 -->
<g id="edge1" class="edge">
<title>Node2&#45;&gt;Node3</title>
<path fill="none" stroke="#191970" d="M134.0838,-21C142.5762,-21 151.2385,-21 159.6529,-21"/>
<polygon fill="#191970" stroke="#191970" points="159.7655,-24.5001 169.7655,-21 159.7654,-17.5001 159.7655,-24.5001"/>
</g>
</g>
</svg>
