<?xml version="1.0" encoding="UTF-8" standalone="no"?>
<!DOCTYPE svg PUBLIC "-//W3C//DTD SVG 1.1//EN"
 "http://www.w3.org/Graphics/SVG/1.1/DTD/svg11.dtd">
<!-- Generated by graphviz version 2.40.1 (20161225.0304)
 -->
<!-- Title: L4::Kobject::cap Pages: 1 -->
<svg width="450pt" height="1052pt"
 viewBox="0.00 0.00 450.00 1052.00" xmlns="http://www.w3.org/2000/svg" xmlns:xlink="http://www.w3.org/1999/xlink">
<g id="graph0" class="graph" transform="scale(1 1) rotate(0) translate(4 1048)">
<title>L4::Kobject::cap</title>
<polygon fill="#ffffff" stroke="transparent" points="-4,4 -4,-1048 446,-1048 446,4 -4,4"/>
<!-- Node1 -->
<g id="node1" class="node">
<title>Node1</title>
<polygon fill="#bfbfbf" stroke="#000000" points="0,-506.5 0,-525.5 89,-525.5 89,-506.5 0,-506.5"/>
<text text-anchor="middle" x="44.5" y="-513.5" font-family="Helvetica,sans-Serif" font-size="10.00" fill="#000000">L4::Kobject::cap</text>
</g>
<!-- Node2 -->
<g id="node2" class="node">
<title>Node2</title>
<g id="a_node2"><a xlink:href="classL4_1_1Irq.html#a8ef25fd1e3d8176ddde06aef3812c7e4" target="_top" xlink:title="Attach a thread to this interrupt. ">
<polygon fill="#ffffff" stroke="#000000" points="161,-1024.5 161,-1043.5 241,-1043.5 241,-1024.5 161,-1024.5"/>
<text text-anchor="middle" x="201" y="-1031.5" font-family="Helvetica,sans-Serif" font-size="10.00" fill="#000000">L4::Irq::attach</text>
</a>
</g>
</g>
<!-- Node1&#45;&gt;Node2 -->
<g id="edge1" class="edge">
<title>Node1&#45;&gt;Node2</title>
<path fill="none" stroke="#191970" d="M44.8815,-535.6673C46.9039,-619.1378 58.956,-943.0869 125,-1015 134.1996,-1025.0171 147.8087,-1030.1075 160.9786,-1032.5917"/>
<polygon fill="#191970" stroke="#191970" points="48.3778,-535.4569 44.6581,-525.5365 41.3795,-535.6113 48.3778,-535.4569"/>
</g>
<!-- Node3 -->
<g id="node3" class="node">
<title>Node3</title>
<g id="a_node3"><a xlink:href="classL4_1_1Icu.html#ada7541da586ea09b925b4d90d7dc357e" target="_top" xlink:title="Bind an interrupt line of an interrupt controller to an interrupt object. ">
<polygon fill="#ffffff" stroke="#000000" points="165.5,-986.5 165.5,-1005.5 236.5,-1005.5 236.5,-986.5 165.5,-986.5"/>
<text text-anchor="middle" x="201" y="-993.5" font-family="Helvetica,sans-Serif" font-size="10.00" fill="#000000">L4::Icu::bind</text>
</a>
</g>
</g>
<!-- Node1&#45;&gt;Node3 -->
<g id="edge2" class="edge">
<title>Node1&#45;&gt;Node3</title>
<path fill="none" stroke="#191970" d="M45.1682,-535.6741C48.2681,-615.1303 63.8131,-911.2344 125,-977 135.2832,-988.0527 150.9372,-993.0927 165.3712,-995.2562"/>
<polygon fill="#191970" stroke="#191970" points="48.6621,-535.441 44.7972,-525.5762 41.6668,-535.698 48.6621,-535.441"/>
</g>
<!-- Node5 -->
<g id="node5" class="node">
<title>Node5</title>
<g id="a_node5"><a xlink:href="structL4_1_1Irq__mux.html#acfd63279449d20bef4226da9a01e5da9" target="_top" xlink:title="Attach an IRQ to this multiplexer. ">
<polygon fill="#ffffff" stroke="#000000" points="150.5,-948.5 150.5,-967.5 251.5,-967.5 251.5,-948.5 150.5,-948.5"/>
<text text-anchor="middle" x="201" y="-955.5" font-family="Helvetica,sans-Serif" font-size="10.00" fill="#000000">L4::Irq_mux::chain</text>
</a>
</g>
</g>
<!-- Node1&#45;&gt;Node5 -->
<g id="edge4" class="edge">
<title>Node1&#45;&gt;Node5</title>
<path fill="none" stroke="#191970" d="M45.5202,-535.9454C49.7928,-611.5783 68.7195,-879.4213 125,-939 131.8178,-946.2174 140.9272,-950.8635 150.4669,-953.818"/>
<polygon fill="#191970" stroke="#191970" points="48.9914,-535.315 44.9568,-525.5185 42.0015,-535.6928 48.9914,-535.315"/>
</g>
<!-- Node6 -->
<g id="node6" class="node">
<title>Node6</title>
<g id="a_node6"><a xlink:href="classL4_1_1Factory.html#ab52604d4abed4d6009ce51a59492edd7" target="_top" xlink:title="Generic create call to the factory. ">
<polygon fill="#ffffff" stroke="#000000" points="149.5,-910.5 149.5,-929.5 252.5,-929.5 252.5,-910.5 149.5,-910.5"/>
<text text-anchor="middle" x="201" y="-917.5" font-family="Helvetica,sans-Serif" font-size="10.00" fill="#000000">L4::Factory::create</text>
</a>
</g>
</g>
<!-- Node1&#45;&gt;Node6 -->
<g id="edge5" class="edge">
<title>Node1&#45;&gt;Node6</title>
<path fill="none" stroke="#191970" d="M45.9292,-535.9732C51.4288,-607.2218 73.544,-847.5047 125,-901 131.5999,-907.8614 140.2728,-912.3911 149.3916,-915.3512"/>
<polygon fill="#191970" stroke="#191970" points="49.3976,-535.4186 45.163,-525.7069 42.417,-535.9397 49.3976,-535.4186"/>
</g>
<!-- Node9 -->
<g id="node9" class="node">
<title>Node9</title>
<g id="a_node9"><a xlink:href="classL4_1_1Factory.html#a014721aec27ad4877555d5f4b7204896" target="_top" xlink:title="Create a new factory. ">
<polygon fill="#ffffff" stroke="#000000" points="149.5,-861 149.5,-891 252.5,-891 252.5,-861 149.5,-861"/>
<text text-anchor="start" x="157.5" y="-879" font-family="Helvetica,sans-Serif" font-size="10.00" fill="#000000">L4::Factory::create</text>
<text text-anchor="middle" x="201" y="-868" font-family="Helvetica,sans-Serif" font-size="10.00" fill="#000000">_factory</text>
</a>
</g>
</g>
<!-- Node1&#45;&gt;Node9 -->
<g id="edge8" class="edge">
<title>Node1&#45;&gt;Node9</title>
<path fill="none" stroke="#191970" d="M46.7216,-535.7335C54.3629,-600.2955 81.5113,-803.792 125,-851 131.5877,-858.1511 140.2551,-863.2607 149.3724,-866.9105"/>
<polygon fill="#191970" stroke="#191970" points="50.1836,-535.202 45.5569,-525.6708 43.23,-536.0069 50.1836,-535.202"/>
</g>
<!-- Node10 -->
<g id="node10" class="node">
<title>Node10</title>
<g id="a_node10"><a xlink:href="classL4_1_1Factory.html#aac0a160a20464a6917f2f614d5b86407" target="_top" xlink:title="Create a new IPC gate. ">
<polygon fill="#ffffff" stroke="#000000" points="136,-822.5 136,-841.5 266,-841.5 266,-822.5 136,-822.5"/>
<text text-anchor="middle" x="201" y="-829.5" font-family="Helvetica,sans-Serif" font-size="10.00" fill="#000000">L4::Factory::create_gate</text>
</a>
</g>
</g>
<!-- Node1&#45;&gt;Node10 -->
<g id="edge9" class="edge">
<title>Node1&#45;&gt;Node10</title>
<path fill="none" stroke="#191970" d="M47.1946,-535.5241C55.8088,-595.1612 84.5048,-773.295 125,-813 128.8845,-816.8087 133.4106,-819.8911 138.2829,-822.3811"/>
<polygon fill="#191970" stroke="#191970" points="50.6483,-534.9498 45.7815,-525.5389 43.7173,-535.9307 50.6483,-534.9498"/>
</g>
<!-- Node11 -->
<g id="node11" class="node">
<title>Node11</title>
<g id="a_node11"><a xlink:href="classL4_1_1Factory.html#a741b67e7d11d552f3c17eccfd0d3bf88" target="_top" xlink:title="Create a new IRQ. ">
<polygon fill="#ffffff" stroke="#000000" points="140.5,-784.5 140.5,-803.5 261.5,-803.5 261.5,-784.5 140.5,-784.5"/>
<text text-anchor="middle" x="201" y="-791.5" font-family="Helvetica,sans-Serif" font-size="10.00" fill="#000000">L4::Factory::create_irq</text>
</a>
</g>
</g>
<!-- Node1&#45;&gt;Node11 -->
<g id="edge10" class="edge">
<title>Node1&#45;&gt;Node11</title>
<path fill="none" stroke="#191970" d="M48.0779,-535.8343C58.3159,-590.4551 89.2979,-741.2557 125,-775 129.4479,-779.204 134.6804,-782.5171 140.2842,-785.1226"/>
<polygon fill="#191970" stroke="#191970" points="51.4677,-534.9159 46.2138,-525.7155 44.5835,-536.1841 51.4677,-534.9159"/>
</g>
<!-- Node12 -->
<g id="node12" class="node">
<title>Node12</title>
<g id="a_node12"><a xlink:href="classL4_1_1Factory.html#a5a2119bba3ea97bfb0f10897c1c64ecb" target="_top" xlink:title="Create a new task. ">
<polygon fill="#ffffff" stroke="#000000" points="137,-746.5 137,-765.5 265,-765.5 265,-746.5 137,-746.5"/>
<text text-anchor="middle" x="201" y="-753.5" font-family="Helvetica,sans-Serif" font-size="10.00" fill="#000000">L4::Factory::create_task</text>
</a>
</g>
</g>
<!-- Node1&#45;&gt;Node12 -->
<g id="edge11" class="edge">
<title>Node1&#45;&gt;Node12</title>
<path fill="none" stroke="#191970" d="M45.7043,-535.7713C49.4396,-579.0324 64.562,-682.5605 125,-737 129.2443,-740.823 134.1416,-743.903 139.3633,-746.3809"/>
<polygon fill="#191970" stroke="#191970" points="49.187,-535.4068 44.9516,-525.6954 42.2064,-535.9284 49.187,-535.4068"/>
</g>
<!-- Node13 -->
<g id="node13" class="node">
<title>Node13</title>
<g id="a_node13"><a xlink:href="classL4_1_1Factory.html#a0a5a8f18ac13a39f583c37ea42657246" target="_top" xlink:title="Create a new thread. ">
<polygon fill="#ffffff" stroke="#000000" points="149.5,-697 149.5,-727 252.5,-727 252.5,-697 149.5,-697"/>
<text text-anchor="start" x="157.5" y="-715" font-family="Helvetica,sans-Serif" font-size="10.00" fill="#000000">L4::Factory::create</text>
<text text-anchor="middle" x="201" y="-704" font-family="Helvetica,sans-Serif" font-size="10.00" fill="#000000">_thread</text>
</a>
</g>
</g>
<!-- Node1&#45;&gt;Node13 -->
<g id="edge12" class="edge">
<title>Node1&#45;&gt;Node13</title>
<path fill="none" stroke="#191970" d="M48.432,-535.7792C56.4909,-571.1972 78.2099,-645.6041 125,-687 131.97,-693.1665 140.4974,-697.8176 149.2896,-701.3242"/>
<polygon fill="#191970" stroke="#191970" points="51.7986,-534.7857 46.2809,-525.7411 44.954,-536.2525 51.7986,-534.7857"/>
</g>
<!-- Node14 -->
<g id="node14" class="node">
<title>Node14</title>
<g id="a_node14"><a xlink:href="classL4_1_1Factory.html#a664fad5aab28576190df9b3165f0b36a" target="_top" xlink:title="Create a new virtual machine. ">
<polygon fill="#ffffff" stroke="#000000" points="140,-658.5 140,-677.5 262,-677.5 262,-658.5 140,-658.5"/>
<text text-anchor="middle" x="201" y="-665.5" font-family="Helvetica,sans-Serif" font-size="10.00" fill="#000000">L4::Factory::create_vm</text>
</a>
</g>
</g>
<!-- Node1&#45;&gt;Node14 -->
<g id="edge13" class="edge">
<title>Node1&#45;&gt;Node14</title>
<path fill="none" stroke="#191970" d="M50.7821,-535.3244C61.3097,-564.5657 85.3491,-619.7394 125,-649 130.2528,-652.8763 136.2077,-655.967 142.4167,-658.4304"/>
<polygon fill="#191970" stroke="#191970" points="54.075,-534.1371 47.5109,-525.8207 47.4561,-536.4154 54.075,-534.1371"/>
</g>
<!-- Node15 -->
<g id="node15" class="node">
<title>Node15</title>
<g id="a_node15"><a xlink:href="classL4_1_1Irq.html#a02b43c2e256c30b3c55eccd311bb6f4f" target="_top" xlink:title="Detach from this interrupt. ">
<polygon fill="#ffffff" stroke="#000000" points="159.5,-620.5 159.5,-639.5 242.5,-639.5 242.5,-620.5 159.5,-620.5"/>
<text text-anchor="middle" x="201" y="-627.5" font-family="Helvetica,sans-Serif" font-size="10.00" fill="#000000">L4::Irq::detach</text>
</a>
</g>
</g>
<!-- Node1&#45;&gt;Node15 -->
<g id="edge14" class="edge">
<title>Node1&#45;&gt;Node15</title>
<path fill="none" stroke="#191970" d="M54.9112,-534.1087C68.3157,-555.7591 93.658,-591.5067 125,-611 135.2786,-617.3928 147.5961,-621.6371 159.2925,-624.454"/>
<polygon fill="#191970" stroke="#191970" points="57.9072,-532.2992 49.7638,-525.5216 51.9033,-535.8982 57.9072,-532.2992"/>
</g>
<!-- Node16 -->
<g id="node16" class="node">
<title>Node16</title>
<g id="a_node16"><a xlink:href="structL4_1_1Semaphore.html#a5db9d69c03c135a9ae92d8a523cd9a4c" target="_top" xlink:title="Semaphore down operation. ">
<polygon fill="#ffffff" stroke="#000000" points="142,-582.5 142,-601.5 260,-601.5 260,-582.5 142,-582.5"/>
<text text-anchor="middle" x="201" y="-589.5" font-family="Helvetica,sans-Serif" font-size="10.00" fill="#000000">L4::Semaphore::down</text>
</a>
</g>
</g>
<!-- Node1&#45;&gt;Node16 -->
<g id="edge15" class="edge">
<title>Node1&#45;&gt;Node16</title>
<path fill="none" stroke="#191970" d="M62.9385,-532.0972C78.5046,-544.9062 101.891,-562.3863 125,-573 133.2807,-576.8032 142.4327,-579.9172 151.4328,-582.4421"/>
<polygon fill="#191970" stroke="#191970" points="65.0501,-529.2997 55.1467,-525.5349 60.5408,-534.6538 65.0501,-529.2997"/>
</g>
<!-- Node17 -->
<g id="node17" class="node">
<title>Node17</title>
<g id="a_node17"><a xlink:href="classL4_1_1Thread.html#aacd56bbf983577cfc591f21fd511d3b6" target="_top" xlink:title="Exchange basic thread registers. ">
<polygon fill="#ffffff" stroke="#000000" points="146,-544.5 146,-563.5 256,-563.5 256,-544.5 146,-544.5"/>
<text text-anchor="middle" x="201" y="-551.5" font-family="Helvetica,sans-Serif" font-size="10.00" fill="#000000">L4::Thread::ex_regs</text>
</a>
</g>
</g>
<!-- Node1&#45;&gt;Node17 -->
<g id="edge16" class="edge">
<title>Node1&#45;&gt;Node17</title>
<path fill="none" stroke="#191970" d="M93.7892,-527.968C115.7203,-533.2931 141.1849,-539.4762 161.7924,-544.4799"/>
<polygon fill="#191970" stroke="#191970" points="94.5351,-524.5475 83.9916,-525.589 92.8833,-531.3498 94.5351,-524.5475"/>
</g>
<!-- Node18 -->
<g id="node18" class="node">
<title>Node18</title>
<g id="a_node18"><a xlink:href="classL4_1_1Vcon.html#a367997ce7608f9fd170828bba6d025ed" target="_top" xlink:title="Get attributes of this virtual console. ">
<polygon fill="#ffffff" stroke="#000000" points="152,-506.5 152,-525.5 250,-525.5 250,-506.5 152,-506.5"/>
<text text-anchor="middle" x="201" y="-513.5" font-family="Helvetica,sans-Serif" font-size="10.00" fill="#000000">L4::Vcon::get_attr</text>
</a>
</g>
</g>
<!-- Node1&#45;&gt;Node18 -->
<g id="edge17" class="edge">
<title>Node1&#45;&gt;Node18</title>
<path fill="none" stroke="#191970" d="M99.6764,-516C116.6484,-516 135.2109,-516 151.7576,-516"/>
<polygon fill="#191970" stroke="#191970" points="99.3467,-512.5001 89.3466,-516 99.3466,-519.5001 99.3467,-512.5001"/>
</g>
<!-- Node19 -->
<g id="node19" class="node">
<title>Node19</title>
<g id="a_node19"><a xlink:href="classL4_1_1Icu.html#a356cfa88076c92e121ab7760d50d5f18" target="_top" xlink:title="Get information about the capabilities of the ICU. ">
<polygon fill="#ffffff" stroke="#000000" points="167,-468.5 167,-487.5 235,-487.5 235,-468.5 167,-468.5"/>
<text text-anchor="middle" x="201" y="-475.5" font-family="Helvetica,sans-Serif" font-size="10.00" fill="#000000">L4::Icu::info</text>
</a>
</g>
</g>
<!-- Node1&#45;&gt;Node19 -->
<g id="edge18" class="edge">
<title>Node1&#45;&gt;Node19</title>
<path fill="none" stroke="#191970" d="M93.8816,-504.0096C117.6196,-498.2457 145.48,-491.4809 166.8367,-486.2952"/>
<polygon fill="#191970" stroke="#191970" points="92.8833,-500.6502 83.9916,-506.411 94.5351,-507.4525 92.8833,-500.6502"/>
</g>
<!-- Node20 -->
<g id="node20" class="node">
<title>Node20</title>
<g id="a_node20"><a xlink:href="classL4_1_1Icu.html#ab58aa015a5216a0dece5d85089b42aaa" target="_top" xlink:title="Mask an IRQ line. ">
<polygon fill="#ffffff" stroke="#000000" points="163,-430.5 163,-449.5 239,-449.5 239,-430.5 163,-430.5"/>
<text text-anchor="middle" x="201" y="-437.5" font-family="Helvetica,sans-Serif" font-size="10.00" fill="#000000">L4::Icu::mask</text>
</a>
</g>
</g>
<!-- Node1&#45;&gt;Node20 -->
<g id="edge19" class="edge">
<title>Node1&#45;&gt;Node20</title>
<path fill="none" stroke="#191970" d="M62.9385,-499.9028C78.5046,-487.0938 101.891,-469.6137 125,-459 136.8649,-453.5506 150.5186,-449.5164 162.9511,-446.6022"/>
<polygon fill="#191970" stroke="#191970" points="60.5408,-497.3462 55.1467,-506.4651 65.0501,-502.7003 60.5408,-497.3462"/>
</g>
<!-- Node21 -->
<g id="node21" class="node">
<title>Node21</title>
<g id="a_node21"><a xlink:href="classL4_1_1Thread.html#a9bcade7e8db8d775cc1f2a2a6225c845" target="_top" xlink:title="Apply sender modification rules. ">
<polygon fill="#ffffff" stroke="#000000" points="149.5,-381 149.5,-411 252.5,-411 252.5,-381 149.5,-381"/>
<text text-anchor="start" x="157.5" y="-399" font-family="Helvetica,sans-Serif" font-size="10.00" fill="#000000">L4::Thread::modify</text>
<text text-anchor="middle" x="201" y="-388" font-family="Helvetica,sans-Serif" font-size="10.00" fill="#000000">_senders</text>
</a>
</g>
</g>
<!-- Node1&#45;&gt;Node21 -->
<g id="edge20" class="edge">
<title>Node1&#45;&gt;Node21</title>
<path fill="none" stroke="#191970" d="M55.5491,-497.6525C69.2921,-476.3171 94.6811,-441.424 125,-421 132.3728,-416.0334 140.8091,-411.9876 149.3165,-408.7126"/>
<polygon fill="#191970" stroke="#191970" points="52.4132,-496.0661 50.0784,-506.4005 58.3482,-499.7777 52.4132,-496.0661"/>
</g>
<!-- Node23 -->
<g id="node23" class="node">
<title>Node23</title>
<g id="a_node23"><a xlink:href="classL4_1_1Vcon.html#ac53da09bc3a23b5fd654def074175046" target="_top" xlink:title="Read data from this virtual console. ">
<polygon fill="#ffffff" stroke="#000000" points="159.5,-342.5 159.5,-361.5 242.5,-361.5 242.5,-342.5 159.5,-342.5"/>
<text text-anchor="middle" x="201" y="-349.5" font-family="Helvetica,sans-Serif" font-size="10.00" fill="#000000">L4::Vcon::read</text>
</a>
</g>
</g>
<!-- Node1&#45;&gt;Node23 -->
<g id="edge22" class="edge">
<title>Node1&#45;&gt;Node23</title>
<path fill="none" stroke="#191970" d="M49.9495,-496.4884C59.6847,-465.3129 83.0768,-404.4822 125,-372 134.8145,-364.3957 147.2548,-359.6704 159.2138,-356.7382"/>
<polygon fill="#191970" stroke="#191970" points="46.562,-495.6009 47.0677,-506.1837 53.2719,-497.5954 46.562,-495.6009"/>
</g>
<!-- Node24 -->
<g id="node24" class="node">
<title>Node24</title>
<g id="a_node24"><a xlink:href="classL4_1_1Irq.html#ad6e4134fba0e3d985f4ef988a524fa6d" target="_top" xlink:title="Unmask and wait for this IRQ. ">
<polygon fill="#ffffff" stroke="#000000" points="158.5,-304.5 158.5,-323.5 243.5,-323.5 243.5,-304.5 158.5,-304.5"/>
<text text-anchor="middle" x="201" y="-311.5" font-family="Helvetica,sans-Serif" font-size="10.00" fill="#000000">L4::Irq::receive</text>
</a>
</g>
</g>
<!-- Node1&#45;&gt;Node24 -->
<g id="edge23" class="edge">
<title>Node1&#45;&gt;Node24</title>
<path fill="none" stroke="#191970" d="M47.4196,-496.0716C54.0365,-458.2966 73.7857,-376.1968 125,-333 134.3567,-325.1081 146.5277,-320.4169 158.3779,-317.6512"/>
<polygon fill="#191970" stroke="#191970" points="43.9101,-495.8489 45.7674,-506.2797 50.8202,-496.9674 43.9101,-495.8489"/>
</g>
<!-- Node25 -->
<g id="node25" class="node">
<title>Node25</title>
<g id="a_node25"><a xlink:href="classL4_1_1Vcon.html#af400882103c8601a4b0750985c57d7c4" target="_top" xlink:title="Send data to this virtual console. ">
<polygon fill="#ffffff" stroke="#000000" points="158.5,-266.5 158.5,-285.5 243.5,-285.5 243.5,-266.5 158.5,-266.5"/>
<text text-anchor="middle" x="201" y="-273.5" font-family="Helvetica,sans-Serif" font-size="10.00" fill="#000000">L4::Vcon::send</text>
</a>
</g>
</g>
<!-- Node1&#45;&gt;Node25 -->
<g id="edge24" class="edge">
<title>Node1&#45;&gt;Node25</title>
<path fill="none" stroke="#191970" d="M45.7043,-496.2287C49.4396,-452.9676 64.562,-349.4395 125,-295 134.1959,-286.7168 146.4573,-281.9216 158.4429,-279.1813"/>
<polygon fill="#191970" stroke="#191970" points="42.2064,-496.0716 44.9516,-506.3046 49.187,-496.5932 42.2064,-496.0716"/>
</g>
<!-- Node26 -->
<g id="node26" class="node">
<title>Node26</title>
<g id="a_node26"><a xlink:href="classL4_1_1Vcon.html#a95422b151c12b5e20dda868972516f1a" target="_top" xlink:title="Set the attributes of this virtual console. ">
<polygon fill="#ffffff" stroke="#000000" points="152,-228.5 152,-247.5 250,-247.5 250,-228.5 152,-228.5"/>
<text text-anchor="middle" x="201" y="-235.5" font-family="Helvetica,sans-Serif" font-size="10.00" fill="#000000">L4::Vcon::set_attr</text>
</a>
</g>
</g>
<!-- Node1&#45;&gt;Node26 -->
<g id="edge25" class="edge">
<title>Node1&#45;&gt;Node26</title>
<path fill="none" stroke="#191970" d="M48.0779,-496.1657C58.3159,-441.5449 89.2979,-290.7443 125,-257 132.4132,-249.9934 142.0058,-245.4614 151.8646,-242.5555"/>
<polygon fill="#191970" stroke="#191970" points="44.5835,-495.8159 46.2138,-506.2845 51.4677,-497.0841 44.5835,-495.8159"/>
</g>
<!-- Node27 -->
<g id="node27" class="node">
<title>Node27</title>
<g id="a_node27"><a xlink:href="classL4_1_1Icu.html#a4258b1c32fc968b66a1ce15191f51b8b" target="_top" xlink:title="Set interrupt mode. ">
<polygon fill="#ffffff" stroke="#000000" points="152,-190.5 152,-209.5 250,-209.5 250,-190.5 152,-190.5"/>
<text text-anchor="middle" x="201" y="-197.5" font-family="Helvetica,sans-Serif" font-size="10.00" fill="#000000">L4::Icu::set_mode</text>
</a>
</g>
</g>
<!-- Node1&#45;&gt;Node27 -->
<g id="edge26" class="edge">
<title>Node1&#45;&gt;Node27</title>
<path fill="none" stroke="#191970" d="M47.1946,-496.4759C55.8088,-436.8388 84.5048,-258.705 125,-219 132.2835,-211.8586 141.8224,-207.2709 151.6701,-204.3535"/>
<polygon fill="#191970" stroke="#191970" points="43.7173,-496.0693 45.7815,-506.4611 50.6483,-497.0502 43.7173,-496.0693"/>
</g>
<!-- Node28 -->
<g id="node28" class="node">
<title>Node28</title>
<g id="a_node28"><a xlink:href="structL4_1_1Triggerable.html#a7109ca8b4aeac0169639f973c91a3a6b" target="_top" xlink:title="Trigger. ">
<polygon fill="#ffffff" stroke="#000000" points="140,-152.5 140,-171.5 262,-171.5 262,-152.5 140,-152.5"/>
<text text-anchor="middle" x="201" y="-159.5" font-family="Helvetica,sans-Serif" font-size="10.00" fill="#000000">L4::Triggerable::trigger</text>
</a>
</g>
</g>
<!-- Node1&#45;&gt;Node28 -->
<g id="edge27" class="edge">
<title>Node1&#45;&gt;Node28</title>
<path fill="none" stroke="#191970" d="M46.5892,-496.1399C53.8166,-431.1826 79.8217,-226.5936 125,-181 129.3078,-176.6526 134.4495,-173.2465 139.9988,-170.5851"/>
<polygon fill="#191970" stroke="#191970" points="43.0897,-495.9463 45.4903,-506.2656 50.0488,-496.7016 43.0897,-495.9463"/>
</g>
<!-- Node30 -->
<g id="node30" class="node">
<title>Node30</title>
<g id="a_node30"><a xlink:href="classL4_1_1Icu.html#aa34e56cdac798b1949fcc00553386b8b" target="_top" xlink:title="Remove binding of an interrupt line from the interrupt controller object. ">
<polygon fill="#ffffff" stroke="#000000" points="160,-114.5 160,-133.5 242,-133.5 242,-114.5 160,-114.5"/>
<text text-anchor="middle" x="201" y="-121.5" font-family="Helvetica,sans-Serif" font-size="10.00" fill="#000000">L4::Icu::unbind</text>
</a>
</g>
</g>
<!-- Node1&#45;&gt;Node30 -->
<g id="edge29" class="edge">
<title>Node1&#45;&gt;Node30</title>
<path fill="none" stroke="#191970" d="M46.0608,-496.1896C51.9422,-426.5805 75.022,-194.6252 125,-143 134.0815,-133.6192 147.0393,-128.6021 159.6892,-125.9952"/>
<polygon fill="#191970" stroke="#191970" points="42.5652,-495.9941 45.2368,-506.2465 49.5418,-496.5658 42.5652,-495.9941"/>
</g>
<!-- Node31 -->
<g id="node31" class="node">
<title>Node31</title>
<g id="a_node31"><a xlink:href="classL4_1_1Thread.html#a94a6d8a5a7a78fa99ef3c6358e0a0459" target="_top" xlink:title="Enable or disable the vCPU feature for the thread. ">
<polygon fill="#ffffff" stroke="#000000" points="135,-76.5 135,-95.5 267,-95.5 267,-76.5 135,-76.5"/>
<text text-anchor="middle" x="201" y="-83.5" font-family="Helvetica,sans-Serif" font-size="10.00" fill="#000000">L4::Thread::vcpu_control</text>
</a>
</g>
</g>
<!-- Node1&#45;&gt;Node31 -->
<g id="edge30" class="edge">
<title>Node1&#45;&gt;Node31</title>
<path fill="none" stroke="#191970" d="M45.6357,-496.1351C50.2766,-421.9823 70.2233,-162.6765 125,-105 128.6527,-101.1539 132.9563,-98.0387 137.6278,-95.521"/>
<polygon fill="#191970" stroke="#191970" points="42.1259,-496.1951 45.0193,-506.3872 49.1133,-496.6153 42.1259,-496.1951"/>
</g>
<!-- Node32 -->
<g id="node32" class="node">
<title>Node32</title>
<g id="a_node32"><a xlink:href="classL4_1_1Thread.html#ac341b827b00c21bc3753c30163e0f173" target="_top" xlink:title="Enable or disable the extended vCPU feature for the thread. ">
<polygon fill="#ffffff" stroke="#000000" points="125,-38.5 125,-57.5 277,-57.5 277,-38.5 125,-38.5"/>
<text text-anchor="middle" x="201" y="-45.5" font-family="Helvetica,sans-Serif" font-size="10.00" fill="#000000">L4::Thread::vcpu_control_ext</text>
</a>
</g>
</g>
<!-- Node1&#45;&gt;Node32 -->
<g id="edge31" class="edge">
<title>Node1&#45;&gt;Node32</title>
<path fill="none" stroke="#191970" d="M45.2898,-495.8469C48.7894,-417.0082 65.4643,-130.7013 125,-67 128.5289,-63.2242 132.6848,-60.1506 137.2036,-57.6541"/>
<polygon fill="#191970" stroke="#191970" points="41.7739,-496.1519 44.8509,-506.29 48.7678,-496.4458 41.7739,-496.1519"/>
</g>
<!-- Node33 -->
<g id="node33" class="node">
<title>Node33</title>
<g id="a_node33"><a xlink:href="classL4_1_1Vcon.html#a83407df2f5b674126d33505d73f5d34b" target="_top" xlink:title="Write data to this virtual console. ">
<polygon fill="#ffffff" stroke="#000000" points="159,-.5 159,-19.5 243,-19.5 243,-.5 159,-.5"/>
<text text-anchor="middle" x="201" y="-7.5" font-family="Helvetica,sans-Serif" font-size="10.00" fill="#000000">L4::Vcon::write</text>
</a>
</g>
</g>
<!-- Node1&#45;&gt;Node33 -->
<g id="edge32" class="edge">
<title>Node1&#45;&gt;Node33</title>
<path fill="none" stroke="#191970" d="M44.9689,-496.2737C47.3294,-413.9653 60.5063,-98.9527 125,-29 133.6658,-19.6007 146.2145,-14.5423 158.6262,-11.9042"/>
<polygon fill="#191970" stroke="#191970" points="41.4696,-496.2044 44.7034,-506.2937 48.4672,-496.3899 41.4696,-496.2044"/>
</g>
<!-- Node4 -->
<g id="node4" class="node">
<title>Node4</title>
<g id="a_node4"><a xlink:href="classL4Re_1_1Util_1_1Event__t.html#a6052908f83d35a7bb1ba9371cbfc9834" target="_top" xlink:title="Initialise an event object. ">
<polygon fill="#ffffff" stroke="#000000" points="326.5,-981 326.5,-1011 428.5,-1011 428.5,-981 326.5,-981"/>
<text text-anchor="start" x="334.5" y="-999" font-family="Helvetica,sans-Serif" font-size="10.00" fill="#000000">L4Re::Util::Event_t</text>
<text text-anchor="middle" x="377.5" y="-988" font-family="Helvetica,sans-Serif" font-size="10.00" fill="#000000">::init</text>
</a>
</g>
</g>
<!-- Node3&#45;&gt;Node4 -->
<g id="edge3" class="edge">
<title>Node3&#45;&gt;Node4</title>
<path fill="none" stroke="#191970" d="M246.7976,-996C271.2025,-996 301.2936,-996 326.4489,-996"/>
<polygon fill="#191970" stroke="#191970" points="246.7174,-992.5001 236.7174,-996 246.7174,-999.5001 246.7174,-992.5001"/>
</g>
<!-- Node7 -->
<g id="node7" class="node">
<title>Node7</title>
<g id="a_node7"><a xlink:href="classL4Re_1_1Mem__alloc.html#a44b301573ae859e8406400338cc8e924" target="_top" xlink:title="Allocate anonymous memory. ">
<polygon fill="#ffffff" stroke="#000000" points="315.5,-926.5 315.5,-945.5 439.5,-945.5 439.5,-926.5 315.5,-926.5"/>
<text text-anchor="middle" x="377.5" y="-933.5" font-family="Helvetica,sans-Serif" font-size="10.00" fill="#000000">L4Re::Mem_alloc::alloc</text>
</a>
</g>
</g>
<!-- Node6&#45;&gt;Node7 -->
<g id="edge6" class="edge">
<title>Node6&#45;&gt;Node7</title>
<path fill="none" stroke="#191970" d="M262.8876,-925.6102C279.8681,-927.1495 298.2824,-928.8188 315.2814,-930.3598"/>
<polygon fill="#191970" stroke="#191970" points="262.8008,-922.0881 252.5256,-924.6709 262.1687,-929.0595 262.8008,-922.0881"/>
</g>
<!-- Node8 -->
<g id="node8" class="node">
<title>Node8</title>
<g id="a_node8"><a xlink:href="classL4_1_1Factory.html#add39d432a64a16aec33abeefcb3ba1cd" target="_top" xlink:title="Create call for typed capabilities. ">
<polygon fill="#ffffff" stroke="#000000" points="326,-888.5 326,-907.5 429,-907.5 429,-888.5 326,-888.5"/>
<text text-anchor="middle" x="377.5" y="-895.5" font-family="Helvetica,sans-Serif" font-size="10.00" fill="#000000">L4::Factory::create</text>
</a>
</g>
</g>
<!-- Node6&#45;&gt;Node8 -->
<g id="edge7" class="edge">
<title>Node6&#45;&gt;Node8</title>
<path fill="none" stroke="#191970" d="M262.4895,-912.3356C283.1874,-909.7557 306.0546,-906.9054 325.9104,-904.4304"/>
<polygon fill="#191970" stroke="#191970" points="262.0158,-908.8674 252.5256,-913.5775 262.8817,-915.8137 262.0158,-908.8674"/>
</g>
<!-- Node22 -->
<g id="node22" class="node">
<title>Node22</title>
<g id="a_node22"><a xlink:href="classL4Re_1_1Util_1_1Object__registry.html#aeeea59583ffddfef4e7c1c3e6eed41b6" target="_top" xlink:title="Remove a server object from the handler list. ">
<polygon fill="#ffffff" stroke="#000000" points="313,-381 313,-411 442,-411 442,-381 313,-381"/>
<text text-anchor="start" x="321" y="-399" font-family="Helvetica,sans-Serif" font-size="10.00" fill="#000000">L4Re::Util::Object</text>
<text text-anchor="middle" x="377.5" y="-388" font-family="Helvetica,sans-Serif" font-size="10.00" fill="#000000">_registry::unregister_obj</text>
</a>
</g>
</g>
<!-- Node21&#45;&gt;Node22 -->
<g id="edge21" class="edge">
<title>Node21&#45;&gt;Node22</title>
<path fill="none" stroke="#191970" d="M262.91,-396C279.0343,-396 296.4501,-396 312.7186,-396"/>
<polygon fill="#191970" stroke="#191970" points="262.5256,-392.5001 252.5256,-396 262.5255,-399.5001 262.5256,-392.5001"/>
</g>
<!-- Node29 -->
<g id="node29" class="node">
<title>Node29</title>
<g id="a_node29"><a xlink:href="structL4_1_1Semaphore.html#a3de7e4e35ff4dadab9a26f3b87fb76bc" target="_top" xlink:title="Semaphore up operation (wrapper for trigger()). ">
<polygon fill="#ffffff" stroke="#000000" points="325.5,-152.5 325.5,-171.5 429.5,-171.5 429.5,-152.5 325.5,-152.5"/>
<text text-anchor="middle" x="377.5" y="-159.5" font-family="Helvetica,sans-Serif" font-size="10.00" fill="#000000">L4::Semaphore::up</text>
</a>
</g>
</g>
<!-- Node28&#45;&gt;Node29 -->
<g id="edge28" class="edge">
<title>Node28&#45;&gt;Node29</title>
<path fill="none" stroke="#191970" d="M272.5328,-162C290.2428,-162 308.8852,-162 325.4644,-162"/>
<polygon fill="#191970" stroke="#191970" points="272.2358,-158.5001 262.2358,-162 272.2358,-165.5001 272.2358,-158.5001"/>
</g>
</g>
</svg>
