<?xml version="1.0" encoding="UTF-8" standalone="no"?>
<!DOCTYPE svg PUBLIC "-//W3C//DTD SVG 1.1//EN"
 "http://www.w3.org/Graphics/SVG/1.1/DTD/svg11.dtd">
<!-- Generated by graphviz version 2.40.1 (20161225.0304)
 -->
<!-- Title: L4::Thread::modify_senders Pages: 1 -->
<svg width="379pt" height="199pt"
 viewBox="0.00 0.00 379.00 199.00" xmlns="http://www.w3.org/2000/svg" xmlns:xlink="http://www.w3.org/1999/xlink">
<g id="graph0" class="graph" transform="scale(1 1) rotate(0) translate(4 195)">
<title>L4::Thread::modify_senders</title>
<polygon fill="#ffffff" stroke="transparent" points="-4,4 -4,-195 375,-195 375,4 -4,4"/>
<!-- Node10 -->
<g id="node1" class="node">
<title>Node10</title>
<polygon fill="#bfbfbf" stroke="#000000" points="0,-128 0,-158 103,-158 103,-128 0,-128"/>
<text text-anchor="start" x="8" y="-146" font-family="Helvetica,sans-Serif" font-size="10.00" fill="#000000">L4::Thread::modify</text>
<text text-anchor="middle" x="51.5" y="-135" font-family="Helvetica,sans-Serif" font-size="10.00" fill="#000000">_senders</text>
</g>
<!-- Node11 -->
<g id="node2" class="node">
<title>Node11</title>
<g id="a_node2"><a xlink:href="classL4_1_1Kobject.html#a4f2117ae76762f4084e6a1adb915863c" target="_top" xlink:title="Return capability selector. ">
<polygon fill="#ffffff" stroke="#000000" points="139,-171.5 139,-190.5 228,-190.5 228,-171.5 139,-171.5"/>
<text text-anchor="middle" x="183.5" y="-178.5" font-family="Helvetica,sans-Serif" font-size="10.00" fill="#000000">L4::Kobject::cap</text>
</a>
</g>
</g>
<!-- Node10&#45;&gt;Node11 -->
<g id="edge1" class="edge">
<title>Node10&#45;&gt;Node11</title>
<path fill="none" stroke="#191970" d="M103.291,-157.9095C115.7052,-161.4833 128.8234,-165.2598 140.774,-168.7001"/>
<polygon fill="#191970" stroke="#191970" points="139.9188,-172.096 150.4968,-171.4991 141.8553,-165.3692 139.9188,-172.096"/>
</g>
<!-- Node12 -->
<g id="node3" class="node">
<title>Node12</title>
<g id="a_node3"><a xlink:href="group__l4__ipc__api.html#gab96d1669dcd54657237ee27b7f6862c6" target="_top" xlink:title="Object call (usual invocation). ">
<polygon fill="#ffffff" stroke="#000000" points="150.5,-133.5 150.5,-152.5 216.5,-152.5 216.5,-133.5 150.5,-133.5"/>
<text text-anchor="middle" x="183.5" y="-140.5" font-family="Helvetica,sans-Serif" font-size="10.00" fill="#000000">l4_ipc_call</text>
</a>
</g>
</g>
<!-- Node10&#45;&gt;Node12 -->
<g id="edge2" class="edge">
<title>Node10&#45;&gt;Node12</title>
<path fill="none" stroke="#191970" d="M103.291,-143C115.581,-143 128.5611,-143 140.4151,-143"/>
<polygon fill="#191970" stroke="#191970" points="140.4968,-146.5001 150.4968,-143 140.4968,-139.5001 140.4968,-146.5001"/>
</g>
<!-- Node14 -->
<g id="node5" class="node">
<title>Node14</title>
<g id="a_node5"><a xlink:href="group__l4__msgtag__api.html#ga661d71acad9d096fa990f7c94943bc78" target="_top" xlink:title="Create a message tag from the specified values. ">
<polygon fill="#ffffff" stroke="#000000" points="151,-76.5 151,-95.5 216,-95.5 216,-76.5 151,-76.5"/>
<text text-anchor="middle" x="183.5" y="-83.5" font-family="Helvetica,sans-Serif" font-size="10.00" fill="#000000">l4_msgtag</text>
</a>
</g>
</g>
<!-- Node10&#45;&gt;Node14 -->
<g id="edge4" class="edge">
<title>Node10&#45;&gt;Node14</title>
<path fill="none" stroke="#191970" d="M86.527,-127.8747C106.7822,-119.1282 132.0707,-108.2081 151.7444,-99.7126"/>
<polygon fill="#191970" stroke="#191970" points="153.3908,-102.8142 161.1838,-95.6365 150.6157,-96.3877 153.3908,-102.8142"/>
</g>
<!-- Node13 -->
<g id="node4" class="node">
<title>Node13</title>
<g id="a_node4"><a xlink:href="group__l4__ipc__api.html#ga0e7e5b18d784b1d3439ea6e5b4bea4e2" target="_top" xlink:title="Generic L4 object invocation. ">
<polygon fill="#ffffff" stroke="#000000" points="295.5,-152.5 295.5,-171.5 339.5,-171.5 339.5,-152.5 295.5,-152.5"/>
<text text-anchor="middle" x="317.5" y="-159.5" font-family="Helvetica,sans-Serif" font-size="10.00" fill="#000000">l4_ipc</text>
</a>
</g>
</g>
<!-- Node12&#45;&gt;Node13 -->
<g id="edge3" class="edge">
<title>Node12&#45;&gt;Node13</title>
<path fill="none" stroke="#191970" d="M216.6236,-147.6966C237.5747,-150.6673 264.5232,-154.4884 285.2955,-157.4337"/>
<polygon fill="#191970" stroke="#191970" points="284.844,-160.9046 295.2363,-158.8432 285.8267,-153.9739 284.844,-160.9046"/>
</g>
<!-- Node15 -->
<g id="node6" class="node">
<title>Node15</title>
<g id="a_node6"><a xlink:href="structl4__msgtag__t.html#af6b9564a9a16427cec0e81a4628996b8" target="_top" xlink:title="Get the flags value. ">
<polygon fill="#ffffff" stroke="#000000" points="267,-114.5 267,-133.5 368,-133.5 368,-114.5 267,-114.5"/>
<text text-anchor="middle" x="317.5" y="-121.5" font-family="Helvetica,sans-Serif" font-size="10.00" fill="#000000">l4_msgtag_t::flags</text>
</a>
</g>
</g>
<!-- Node14&#45;&gt;Node15 -->
<g id="edge5" class="edge">
<title>Node14&#45;&gt;Node15</title>
<path fill="none" stroke="#191970" d="M216.2801,-95.2958C233.619,-100.2128 255.1375,-106.3151 273.8697,-111.6272"/>
<polygon fill="#191970" stroke="#191970" points="273.0835,-115.0422 283.6591,-114.4033 274.9934,-108.3078 273.0835,-115.0422"/>
</g>
<!-- Node16 -->
<g id="node7" class="node">
<title>Node16</title>
<g id="a_node7"><a xlink:href="structl4__msgtag__t.html#ad014e4a9f4509b068ddda678f6f8d568" target="_top" xlink:title="Get the number of typed items. ">
<polygon fill="#ffffff" stroke="#000000" points="265.5,-76.5 265.5,-95.5 369.5,-95.5 369.5,-76.5 265.5,-76.5"/>
<text text-anchor="middle" x="317.5" y="-83.5" font-family="Helvetica,sans-Serif" font-size="10.00" fill="#000000">l4_msgtag_t::items</text>
</a>
</g>
</g>
<!-- Node14&#45;&gt;Node16 -->
<g id="edge6" class="edge">
<title>Node14&#45;&gt;Node16</title>
<path fill="none" stroke="#191970" d="M216.2801,-86C228.073,-86 241.7994,-86 255.2675,-86"/>
<polygon fill="#191970" stroke="#191970" points="255.4801,-89.5001 265.4801,-86 255.48,-82.5001 255.4801,-89.5001"/>
</g>
<!-- Node17 -->
<g id="node8" class="node">
<title>Node17</title>
<g id="a_node8"><a xlink:href="structl4__msgtag__t.html#a002076380a3f6e4f29a1f6b50ce2bde2" target="_top" xlink:title="Get the protocol value. ">
<polygon fill="#ffffff" stroke="#000000" points="267,-38.5 267,-57.5 368,-57.5 368,-38.5 267,-38.5"/>
<text text-anchor="middle" x="317.5" y="-45.5" font-family="Helvetica,sans-Serif" font-size="10.00" fill="#000000">l4_msgtag_t::label</text>
</a>
</g>
</g>
<!-- Node14&#45;&gt;Node17 -->
<g id="edge7" class="edge">
<title>Node14&#45;&gt;Node17</title>
<path fill="none" stroke="#191970" d="M216.2801,-76.7042C233.619,-71.7872 255.1375,-65.6849 273.8697,-60.3728"/>
<polygon fill="#191970" stroke="#191970" points="274.9934,-63.6922 283.6591,-57.5967 273.0835,-56.9578 274.9934,-63.6922"/>
</g>
<!-- Node18 -->
<g id="node9" class="node">
<title>Node18</title>
<g id="a_node9"><a xlink:href="structl4__msgtag__t.html#a98577ea730d9abcd938b89d5c7adb18c" target="_top" xlink:title="Get the number of untyped words. ">
<polygon fill="#ffffff" stroke="#000000" points="264,-.5 264,-19.5 371,-19.5 371,-.5 264,-.5"/>
<text text-anchor="middle" x="317.5" y="-7.5" font-family="Helvetica,sans-Serif" font-size="10.00" fill="#000000">l4_msgtag_t::words</text>
</a>
</g>
</g>
<!-- Node14&#45;&gt;Node18 -->
<g id="edge8" class="edge">
<title>Node14&#45;&gt;Node18</title>
<path fill="none" stroke="#191970" d="M194.8463,-76.4264C209.8681,-64.125 237.5525,-42.7247 264,-29 267.9957,-26.9265 272.2685,-24.9881 276.5924,-23.2026"/>
<polygon fill="#191970" stroke="#191970" points="277.9871,-26.4159 286.0519,-19.5449 275.4626,-19.8869 277.9871,-26.4159"/>
</g>
</g>
</svg>
