<?xml version="1.0" encoding="UTF-8" standalone="no"?>
<!DOCTYPE svg PUBLIC "-//W3C//DTD SVG 1.1//EN"
 "http://www.w3.org/Graphics/SVG/1.1/DTD/svg11.dtd">
<!-- Generated by graphviz version 2.40.1 (20161225.0304)
 -->
<!-- Title: L4Re::Util::Event_t::init_poll Pages: 1 -->
<svg width="271pt" height="66pt"
 viewBox="0.00 0.00 271.00 66.00" xmlns="http://www.w3.org/2000/svg" xmlns:xlink="http://www.w3.org/1999/xlink">
<g id="graph0" class="graph" transform="scale(1 1) rotate(0) translate(4 62)">
<title>L4Re::Util::Event_t::init_poll</title>
<polygon fill="#ffffff" stroke="transparent" points="-4,4 -4,-62 267,-62 267,4 -4,4"/>
<!-- Node11 -->
<g id="node1" class="node">
<title>Node11</title>
<polygon fill="#bfbfbf" stroke="#000000" points="0,-14 0,-44 102,-44 102,-14 0,-14"/>
<text text-anchor="start" x="8" y="-32" font-family="Helvetica,sans-Serif" font-size="10.00" fill="#000000">L4Re::Util::Event_t</text>
<text text-anchor="middle" x="51" y="-21" font-family="Helvetica,sans-Serif" font-size="10.00" fill="#000000">::init_poll</text>
</g>
<!-- Node12 -->
<g id="node2" class="node">
<title>Node12</title>
<g id="a_node2"><a xlink:href="classL4Re_1_1Event.html#adc8f166274c62be37c30ff4faf0bacc9" target="_top" xlink:title="Get event signal buffer. ">
<polygon fill="#ffffff" stroke="#000000" points="138,-38.5 138,-57.5 263,-57.5 263,-38.5 138,-38.5"/>
<text text-anchor="middle" x="200.5" y="-45.5" font-family="Helvetica,sans-Serif" font-size="10.00" fill="#000000">L4Re::Event::get_buffer</text>
</a>
</g>
</g>
<!-- Node11&#45;&gt;Node12 -->
<g id="edge1" class="edge">
<title>Node11&#45;&gt;Node12</title>
<path fill="none" stroke="#191970" d="M102.0313,-35.4856C110.2997,-36.5364 119.0002,-37.6422 127.6662,-38.7435"/>
<polygon fill="#191970" stroke="#191970" points="127.4342,-42.2421 137.7957,-40.0309 128.3168,-35.298 127.4342,-42.2421"/>
</g>
<!-- Node13 -->
<g id="node3" class="node">
<title>Node13</title>
<g id="a_node3"><a xlink:href="namespaceL4_1_1Ipc.html#a71861fba8b1db3d4fb5768ba65c89d94" target="_top" xlink:title="Make an L4::Ipc::Cap&lt;T&gt; for the given capability with L4_CAP_FPAGE_RW rights. ">
<polygon fill="#ffffff" stroke="#000000" points="141.5,-.5 141.5,-19.5 259.5,-19.5 259.5,-.5 141.5,-.5"/>
<text text-anchor="middle" x="200.5" y="-7.5" font-family="Helvetica,sans-Serif" font-size="10.00" fill="#000000">L4::Ipc::make_cap_rw</text>
</a>
</g>
</g>
<!-- Node11&#45;&gt;Node13 -->
<g id="edge2" class="edge">
<title>Node11&#45;&gt;Node13</title>
<path fill="none" stroke="#191970" d="M102.0313,-22.5144C111.4483,-21.3176 121.4256,-20.0496 131.2743,-18.7979"/>
<polygon fill="#191970" stroke="#191970" points="131.9834,-22.236 141.4623,-17.5031 131.1008,-15.2919 131.9834,-22.236"/>
</g>
</g>
</svg>
