<?xml version="1.0" encoding="UTF-8" standalone="no"?>
<!DOCTYPE svg PUBLIC "-//W3C//DTD SVG 1.1//EN"
 "http://www.w3.org/Graphics/SVG/1.1/DTD/svg11.dtd">
<!-- Generated by graphviz version 2.40.1 (20161225.0304)
 -->
<!-- Title: L4vbus::Vbus::assign_dma_domain Pages: 1 -->
<svg width="305pt" height="66pt"
 viewBox="0.00 0.00 305.00 66.00" xmlns="http://www.w3.org/2000/svg" xmlns:xlink="http://www.w3.org/1999/xlink">
<g id="graph0" class="graph" transform="scale(1 1) rotate(0) translate(4 62)">
<title>L4vbus::Vbus::assign_dma_domain</title>
<polygon fill="#ffffff" stroke="transparent" points="-4,4 -4,-62 301,-62 301,4 -4,4"/>
<!-- Node0 -->
<g id="node1" class="node">
<title>Node0</title>
<polygon fill="#bfbfbf" stroke="#000000" points="0,-14 0,-44 112,-44 112,-14 0,-14"/>
<text text-anchor="start" x="8" y="-32" font-family="Helvetica,sans-Serif" font-size="10.00" fill="#000000">L4vbus::Vbus::assign</text>
<text text-anchor="middle" x="56" y="-21" font-family="Helvetica,sans-Serif" font-size="10.00" fill="#000000">_dma_domain</text>
</g>
<!-- Node1 -->
<g id="node2" class="node">
<title>Node1</title>
<g id="a_node2"><a xlink:href="classL4_1_1Cap__base.html#a90ff089ca2442b128c2b2b0e1c22c6d7" target="_top" xlink:title="Return capability selector. ">
<polygon fill="#ffffff" stroke="#000000" points="171,-38.5 171,-57.5 274,-57.5 274,-38.5 171,-38.5"/>
<text text-anchor="middle" x="222.5" y="-45.5" font-family="Helvetica,sans-Serif" font-size="10.00" fill="#000000">L4::Cap_base::cap</text>
</a>
</g>
</g>
<!-- Node0&#45;&gt;Node1 -->
<g id="edge1" class="edge">
<title>Node0&#45;&gt;Node1</title>
<path fill="none" stroke="#191970" d="M112.3693,-35.4325C127.9246,-37.2076 144.8826,-39.1428 160.7265,-40.9508"/>
<polygon fill="#191970" stroke="#191970" points="160.6191,-44.4612 170.9515,-42.1176 161.4128,-37.5063 160.6191,-44.4612"/>
</g>
<!-- Node2 -->
<g id="node3" class="node">
<title>Node2</title>
<g id="a_node3"><a xlink:href="group__l4vbus__module.html#ga230bfade9c21a168c3863cbe4f39e01f" target="_top" xlink:title="Bind or unbind a kernel DMA space (L4::Task) or a L4Re::Dma_space to a DMA domain. ">
<polygon fill="#ffffff" stroke="#000000" points="148,-.5 148,-19.5 297,-19.5 297,-.5 148,-.5"/>
<text text-anchor="middle" x="222.5" y="-7.5" font-family="Helvetica,sans-Serif" font-size="10.00" fill="#000000">l4vbus_assign_dma_domain</text>
</a>
</g>
</g>
<!-- Node0&#45;&gt;Node2 -->
<g id="edge2" class="edge">
<title>Node0&#45;&gt;Node2</title>
<path fill="none" stroke="#191970" d="M112.3693,-22.5675C120.5741,-21.6312 129.1691,-20.6504 137.785,-19.6672"/>
<polygon fill="#191970" stroke="#191970" points="138.3482,-23.1257 147.8869,-18.5144 137.5545,-16.1709 138.3482,-23.1257"/>
</g>
</g>
</svg>
