<?xml version="1.0" encoding="UTF-8" standalone="no"?>
<!DOCTYPE svg PUBLIC "-//W3C//DTD SVG 1.1//EN"
 "http://www.w3.org/Graphics/SVG/1.1/DTD/svg11.dtd">
<!-- Generated by graphviz version 2.40.1 (20161225.0304)
 -->
<!-- Title: L4Re::Cap_alloc::alloc Pages: 1 -->
<svg width="319pt" height="230pt"
 viewBox="0.00 0.00 319.00 230.00" xmlns="http://www.w3.org/2000/svg" xmlns:xlink="http://www.w3.org/1999/xlink">
<g id="graph0" class="graph" transform="scale(1 1) rotate(0) translate(4 226)">
<title>L4Re::Cap_alloc::alloc</title>
<polygon fill="#ffffff" stroke="transparent" points="-4,4 -4,-226 315,-226 315,4 -4,4"/>
<!-- Node1 -->
<g id="node1" class="node">
<title>Node1</title>
<polygon fill="#bfbfbf" stroke="#000000" points="0,-95.5 0,-114.5 120,-114.5 120,-95.5 0,-95.5"/>
<text text-anchor="middle" x="60" y="-102.5" font-family="Helvetica,sans-Serif" font-size="10.00" fill="#000000">L4Re::Cap_alloc::alloc</text>
</g>
<!-- Node2 -->
<g id="node2" class="node">
<title>Node2</title>
<g id="a_node2"><a xlink:href="classL4Re_1_1Cap__alloc.html#aa975f8a4ead1812cd5dc6651f7a796a3" target="_top" xlink:title="Allocate a capability. ">
<polygon fill="#ffffff" stroke="#000000" points="173.5,-202.5 173.5,-221.5 293.5,-221.5 293.5,-202.5 173.5,-202.5"/>
<text text-anchor="middle" x="233.5" y="-209.5" font-family="Helvetica,sans-Serif" font-size="10.00" fill="#000000">L4Re::Cap_alloc::alloc</text>
</a>
</g>
</g>
<!-- Node1&#45;&gt;Node2 -->
<g id="edge1" class="edge">
<title>Node1&#45;&gt;Node2</title>
<path fill="none" stroke="#191970" d="M74.0906,-122.3825C91.3081,-142.4476 122.3323,-174.9908 156,-193 163.2071,-196.8552 171.2087,-199.9425 179.2557,-202.4113"/>
<polygon fill="#191970" stroke="#191970" points="76.6955,-120.0417 67.5895,-114.6259 71.3306,-124.5382 76.6955,-120.0417"/>
</g>
<!-- Node3 -->
<g id="node3" class="node">
<title>Node3</title>
<g id="a_node3"><a xlink:href="classL4Re_1_1Cap__alloc.html#a1858c709ea7587ef8a42580203a93069" target="_top" xlink:title="Construct an instance of a capability allocator. ">
<polygon fill="#ffffff" stroke="#000000" points="177,-153 177,-183 290,-183 290,-153 177,-153"/>
<text text-anchor="start" x="185" y="-171" font-family="Helvetica,sans-Serif" font-size="10.00" fill="#000000">L4Re::Cap_alloc::get</text>
<text text-anchor="middle" x="233.5" y="-160" font-family="Helvetica,sans-Serif" font-size="10.00" fill="#000000">_cap_alloc</text>
</a>
</g>
</g>
<!-- Node1&#45;&gt;Node3 -->
<g id="edge2" class="edge">
<title>Node1&#45;&gt;Node3</title>
<path fill="none" stroke="#191970" d="M92.5467,-118.4911C111.0408,-126.0037 134.6907,-135.3547 156,-143 165.3149,-146.342 175.3303,-149.7256 184.9666,-152.8781"/>
<polygon fill="#191970" stroke="#191970" points="93.6992,-115.1812 83.1183,-114.6392 91.0518,-121.6612 93.6992,-115.1812"/>
</g>
<!-- Node4 -->
<g id="node4" class="node">
<title>Node4</title>
<g id="a_node4"><a xlink:href="namespaceL4Re.html#a051baa6f95232581020aa7ffa93a8468" target="_top" xlink:title="Allocate a capability slot and wrap it in a Shared_cap. ">
<polygon fill="#ffffff" stroke="#000000" points="166.5,-114.5 166.5,-133.5 300.5,-133.5 300.5,-114.5 166.5,-114.5"/>
<text text-anchor="middle" x="233.5" y="-121.5" font-family="Helvetica,sans-Serif" font-size="10.00" fill="#000000">L4Re::make_shared_cap</text>
</a>
</g>
</g>
<!-- Node1&#45;&gt;Node4 -->
<g id="edge3" class="edge">
<title>Node1&#45;&gt;Node4</title>
<path fill="none" stroke="#191970" d="M130.4608,-112.7162C142.2919,-114.0118 154.5422,-115.3533 166.2885,-116.6397"/>
<polygon fill="#191970" stroke="#191970" points="130.5166,-109.2014 120.195,-111.592 129.7545,-116.1598 130.5166,-109.2014"/>
</g>
<!-- Node5 -->
<g id="node5" class="node">
<title>Node5</title>
<g id="a_node5"><a xlink:href="namespaceL4Re.html#ac72f8cc3fd493c43ea1d4342ea41e661" target="_top" xlink:title="Allocate a capability slot and wrap it in a Shared_del_cap. ">
<polygon fill="#ffffff" stroke="#000000" points="156,-76.5 156,-95.5 311,-95.5 311,-76.5 156,-76.5"/>
<text text-anchor="middle" x="233.5" y="-83.5" font-family="Helvetica,sans-Serif" font-size="10.00" fill="#000000">L4Re::make_shared_del_cap</text>
</a>
</g>
</g>
<!-- Node1&#45;&gt;Node5 -->
<g id="edge4" class="edge">
<title>Node1&#45;&gt;Node5</title>
<path fill="none" stroke="#191970" d="M130.3618,-97.2947C138.8025,-96.3703 147.4581,-95.4225 155.993,-94.4878"/>
<polygon fill="#191970" stroke="#191970" points="129.7545,-93.8402 120.195,-98.408 130.5166,-100.7986 129.7545,-93.8402"/>
</g>
<!-- Node6 -->
<g id="node6" class="node">
<title>Node6</title>
<g id="a_node6"><a xlink:href="namespaceL4Re.html#aaa11942653a165c2808fa89840ddb66a" target="_top" xlink:title="Allocate a capability slot and wrap it in an Unique_cap. ">
<polygon fill="#ffffff" stroke="#000000" points="167.5,-38.5 167.5,-57.5 299.5,-57.5 299.5,-38.5 167.5,-38.5"/>
<text text-anchor="middle" x="233.5" y="-45.5" font-family="Helvetica,sans-Serif" font-size="10.00" fill="#000000">L4Re::make_unique_cap</text>
</a>
</g>
</g>
<!-- Node1&#45;&gt;Node6 -->
<g id="edge5" class="edge">
<title>Node1&#45;&gt;Node6</title>
<path fill="none" stroke="#191970" d="M91.2395,-91.3807C109.824,-83.5954 133.9964,-74.016 156,-67 166.9548,-63.507 178.9528,-60.2817 190.1659,-57.5178"/>
<polygon fill="#191970" stroke="#191970" points="89.6471,-88.2542 81.8059,-95.3792 92.3789,-94.6992 89.6471,-88.2542"/>
</g>
<!-- Node7 -->
<g id="node7" class="node">
<title>Node7</title>
<g id="a_node7"><a xlink:href="namespaceL4Re.html#a75ba5674c1988bcd85cb37696d6a76a7" target="_top" xlink:title="Allocate a capability slot and wrap it in an Unique_del_cap. ">
<polygon fill="#ffffff" stroke="#000000" points="157.5,-.5 157.5,-19.5 309.5,-19.5 309.5,-.5 157.5,-.5"/>
<text text-anchor="middle" x="233.5" y="-7.5" font-family="Helvetica,sans-Serif" font-size="10.00" fill="#000000">L4Re::make_unique_del_cap</text>
</a>
</g>
</g>
<!-- Node1&#45;&gt;Node7 -->
<g id="edge6" class="edge">
<title>Node1&#45;&gt;Node7</title>
<path fill="none" stroke="#191970" d="M76.4703,-88.2365C94.4556,-70.8855 124.8703,-44.2309 156,-29 163.8395,-25.1643 172.5141,-22.0658 181.138,-19.574"/>
<polygon fill="#191970" stroke="#191970" points="73.7876,-85.9665 69.1235,-95.4795 78.702,-90.9513 73.7876,-85.9665"/>
</g>
</g>
</svg>
