<?xml version="1.0" encoding="UTF-8" standalone="no"?>
<!DOCTYPE svg PUBLIC "-//W3C//DTD SVG 1.1//EN"
 "http://www.w3.org/Graphics/SVG/1.1/DTD/svg11.dtd">
<!-- Generated by graphviz version 2.40.1 (20161225.0304)
 -->
<!-- Title: L4::Vm Pages: 1 -->
<svg width="356pt" height="664pt"
 viewBox="0.00 0.00 355.50 664.00" xmlns="http://www.w3.org/2000/svg" xmlns:xlink="http://www.w3.org/1999/xlink">
<g id="graph0" class="graph" transform="scale(1 1) rotate(0) translate(4 660)">
<title>L4::Vm</title>
<polygon fill="#ffffff" stroke="transparent" points="-4,4 -4,-660 351.5,-660 351.5,4 -4,4"/>
<!-- Node0 -->
<g id="node1" class="node">
<title>Node0</title>
<polygon fill="#bfbfbf" stroke="#000000" points="132.5,-.5 132.5,-79.5 216.5,-79.5 216.5,-.5 132.5,-.5"/>
<text text-anchor="middle" x="174.5" y="-67.5" font-family="Helvetica,sans-Serif" font-size="10.00" fill="#000000">L4::Vm</text>
<polyline fill="none" stroke="#000000" points="132.5,-60.5 216.5,-60.5 "/>
<text text-anchor="middle" x="174.5" y="-48.5" font-family="Helvetica,sans-Serif" font-size="10.00" fill="#000000"> </text>
<polyline fill="none" stroke="#000000" points="132.5,-41.5 216.5,-41.5 "/>
<text text-anchor="start" x="140.5" y="-29.5" font-family="Helvetica,sans-Serif" font-size="10.00" fill="#000000">+ vgicc_map()</text>
<text text-anchor="start" x="140.5" y="-18.5" font-family="Helvetica,sans-Serif" font-size="10.00" fill="#000000"># Vm()</text>
<text text-anchor="start" x="140.5" y="-7.5" font-family="Helvetica,sans-Serif" font-size="10.00" fill="#000000"># Vm()</text>
</g>
<!-- Node1 -->
<g id="node2" class="node">
<title>Node1</title>
<g id="a_node2"><a xlink:href="classL4_1_1Kobject__t.html" target="_top" xlink:title="{L4::Kobject_t\&lt; Vm,\l Task, L4_PROTO_VM \&gt;\n||# c()\l# __check_protocols__()\l}">
<polygon fill="#ffffff" stroke="#000000" points="107.5,-117.5 107.5,-196.5 241.5,-196.5 241.5,-117.5 107.5,-117.5"/>
<text text-anchor="start" x="115.5" y="-184.5" font-family="Helvetica,sans-Serif" font-size="10.00" fill="#000000">L4::Kobject_t&lt; Vm,</text>
<text text-anchor="middle" x="174.5" y="-173.5" font-family="Helvetica,sans-Serif" font-size="10.00" fill="#000000"> Task, L4_PROTO_VM &gt;</text>
<polyline fill="none" stroke="#000000" points="107.5,-166.5 241.5,-166.5 "/>
<text text-anchor="middle" x="174.5" y="-154.5" font-family="Helvetica,sans-Serif" font-size="10.00" fill="#000000"> </text>
<polyline fill="none" stroke="#000000" points="107.5,-147.5 241.5,-147.5 "/>
<text text-anchor="start" x="115.5" y="-135.5" font-family="Helvetica,sans-Serif" font-size="10.00" fill="#000000"># c()</text>
<text text-anchor="start" x="115.5" y="-124.5" font-family="Helvetica,sans-Serif" font-size="10.00" fill="#000000"># __check_protocols__()</text>
</a>
</g>
</g>
<!-- Node1&#45;&gt;Node0 -->
<g id="edge1" class="edge">
<title>Node1&#45;&gt;Node0</title>
<path fill="none" stroke="#191970" d="M167.8161,-107.1578C167.6744,-97.9409 167.7605,-88.4308 168.0744,-79.5701"/>
<polygon fill="none" stroke="#191970" points="164.323,-107.4802 168.073,-117.3891 171.3208,-107.3044 164.323,-107.4802"/>
</g>
<!-- Node1&#45;&gt;Node0 -->
<g id="edge7" class="edge">
<title>Node1&#45;&gt;Node0</title>
<path fill="none" stroke="#191970" d="M181.1839,-107.1578C181.3256,-97.9409 181.2395,-88.4308 180.9256,-79.5701"/>
<polygon fill="none" stroke="#191970" points="177.6792,-107.3044 180.927,-117.3891 184.677,-107.4802 177.6792,-107.3044"/>
</g>
<!-- Node2 -->
<g id="node3" class="node">
<title>Node2</title>
<g id="a_node3"><a xlink:href="classL4_1_1Task.html" target="_top" xlink:title="C++ interface of the Task kernel object. ">
<polygon fill="#ffffff" stroke="#000000" points="79,-234.5 79,-368.5 176,-368.5 176,-234.5 79,-234.5"/>
<text text-anchor="middle" x="127.5" y="-356.5" font-family="Helvetica,sans-Serif" font-size="10.00" fill="#000000">L4::Task</text>
<polyline fill="none" stroke="#000000" points="79,-349.5 176,-349.5 "/>
<text text-anchor="middle" x="127.5" y="-337.5" font-family="Helvetica,sans-Serif" font-size="10.00" fill="#000000"> </text>
<polyline fill="none" stroke="#000000" points="79,-330.5 176,-330.5 "/>
<text text-anchor="start" x="87" y="-318.5" font-family="Helvetica,sans-Serif" font-size="10.00" fill="#000000">+ map()</text>
<text text-anchor="start" x="87" y="-307.5" font-family="Helvetica,sans-Serif" font-size="10.00" fill="#000000">+ unmap()</text>
<text text-anchor="start" x="87" y="-296.5" font-family="Helvetica,sans-Serif" font-size="10.00" fill="#000000">+ unmap_batch()</text>
<text text-anchor="start" x="87" y="-285.5" font-family="Helvetica,sans-Serif" font-size="10.00" fill="#000000">+ delete_obj()</text>
<text text-anchor="start" x="87" y="-274.5" font-family="Helvetica,sans-Serif" font-size="10.00" fill="#000000">+ release_cap()</text>
<text text-anchor="start" x="87" y="-263.5" font-family="Helvetica,sans-Serif" font-size="10.00" fill="#000000">+ cap_valid()</text>
<text text-anchor="start" x="87" y="-252.5" font-family="Helvetica,sans-Serif" font-size="10.00" fill="#000000">+ cap_equal()</text>
<text text-anchor="start" x="87" y="-241.5" font-family="Helvetica,sans-Serif" font-size="10.00" fill="#000000">+ add_ku_mem()</text>
</a>
</g>
</g>
<!-- Node2&#45;&gt;Node1 -->
<g id="edge2" class="edge">
<title>Node2&#45;&gt;Node1</title>
<path fill="none" stroke="#191970" d="M152.482,-224.6935C155.6117,-215.0713 158.7063,-205.5573 161.5424,-196.8379"/>
<polygon fill="none" stroke="#191970" points="149.1137,-223.7341 149.3489,-234.3264 155.7704,-225.8993 149.1137,-223.7341"/>
</g>
<!-- Node3 -->
<g id="node4" class="node">
<title>Node3</title>
<g id="a_node4"><a xlink:href="classL4_1_1Kobject__t.html" target="_top" xlink:title="{L4::Kobject_t\&lt; Task,\l Kobject, L4_PROTO_TASK,\l Type_info::Demand_t\&lt; 2 \&gt; \&gt;\n||# c()\l# __check_protocols__()\l}">
<polygon fill="#ffffff" stroke="#000000" points="0,-416.5 0,-506.5 153,-506.5 153,-416.5 0,-416.5"/>
<text text-anchor="start" x="8" y="-494.5" font-family="Helvetica,sans-Serif" font-size="10.00" fill="#000000">L4::Kobject_t&lt; Task,</text>
<text text-anchor="start" x="8" y="-483.5" font-family="Helvetica,sans-Serif" font-size="10.00" fill="#000000"> Kobject, L4_PROTO_TASK,</text>
<text text-anchor="middle" x="76.5" y="-472.5" font-family="Helvetica,sans-Serif" font-size="10.00" fill="#000000"> Type_info::Demand_t&lt; 2 &gt; &gt;</text>
<polyline fill="none" stroke="#000000" points="0,-465.5 153,-465.5 "/>
<text text-anchor="middle" x="76.5" y="-453.5" font-family="Helvetica,sans-Serif" font-size="10.00" fill="#000000"> </text>
<polyline fill="none" stroke="#000000" points="0,-446.5 153,-446.5 "/>
<text text-anchor="start" x="8" y="-434.5" font-family="Helvetica,sans-Serif" font-size="10.00" fill="#000000"># c()</text>
<text text-anchor="start" x="8" y="-423.5" font-family="Helvetica,sans-Serif" font-size="10.00" fill="#000000"># __check_protocols__()</text>
</a>
</g>
</g>
<!-- Node3&#45;&gt;Node2 -->
<g id="edge3" class="edge">
<title>Node3&#45;&gt;Node2</title>
<path fill="none" stroke="#191970" d="M94.0349,-406.4887C97.9299,-394.2688 102.1006,-381.1843 106.13,-368.5431"/>
<polygon fill="none" stroke="#191970" points="90.6805,-405.4877 90.9781,-416.0784 97.3499,-407.6137 90.6805,-405.4877"/>
</g>
<!-- Node4 -->
<g id="node5" class="node">
<title>Node4</title>
<g id="a_node5"><a xlink:href="classL4_1_1Kobject.html" target="_top" xlink:title="Base class for all kinds of kernel objects and remote objects, referenced by capabilities. ">
<polygon fill="#ffffff" stroke="#000000" points="1.5,-582 1.5,-650 85.5,-650 85.5,-582 1.5,-582"/>
<text text-anchor="middle" x="43.5" y="-638" font-family="Helvetica,sans-Serif" font-size="10.00" fill="#000000">L4::Kobject</text>
<polyline fill="none" stroke="#000000" points="1.5,-631 85.5,-631 "/>
<text text-anchor="middle" x="43.5" y="-619" font-family="Helvetica,sans-Serif" font-size="10.00" fill="#000000"> </text>
<polyline fill="none" stroke="#000000" points="1.5,-612 85.5,-612 "/>
<text text-anchor="start" x="9.5" y="-600" font-family="Helvetica,sans-Serif" font-size="10.00" fill="#000000">+ dec_refcnt()</text>
<text text-anchor="start" x="9.5" y="-589" font-family="Helvetica,sans-Serif" font-size="10.00" fill="#000000"># cap()</text>
</a>
</g>
</g>
<!-- Node4&#45;&gt;Node3 -->
<g id="edge4" class="edge">
<title>Node4&#45;&gt;Node3</title>
<path fill="none" stroke="#191970" d="M49.0692,-571.6537C51.2734,-556.7458 54.1018,-540.0768 57.5,-525 58.841,-519.0504 60.4411,-512.8426 62.1356,-506.7385"/>
<polygon fill="none" stroke="#191970" points="45.5903,-571.258 47.6436,-581.652 52.5202,-572.2462 45.5903,-571.258"/>
</g>
<!-- Node5 -->
<g id="node6" class="node">
<title>Node5</title>
<g id="a_node6"><a xlink:href="classL4_1_1Kobject__t.html" target="_top" xlink:title="Helper class to create an L4Re interface class that is derived from a single base class...">
<polygon fill="#ffffff" stroke="#000000" points="122.5,-576.5 122.5,-655.5 280.5,-655.5 280.5,-576.5 122.5,-576.5"/>
<text text-anchor="start" x="130.5" y="-643.5" font-family="Helvetica,sans-Serif" font-size="10.00" fill="#000000">L4::Kobject_t&lt; Derived,</text>
<text text-anchor="middle" x="201.5" y="-632.5" font-family="Helvetica,sans-Serif" font-size="10.00" fill="#000000"> Base, PROTO, S_DEMAND &gt;</text>
<polyline fill="none" stroke="#000000" points="122.5,-625.5 280.5,-625.5 "/>
<text text-anchor="middle" x="201.5" y="-613.5" font-family="Helvetica,sans-Serif" font-size="10.00" fill="#000000"> </text>
<polyline fill="none" stroke="#000000" points="122.5,-606.5 280.5,-606.5 "/>
<text text-anchor="start" x="130.5" y="-594.5" font-family="Helvetica,sans-Serif" font-size="10.00" fill="#000000"># c()</text>
<text text-anchor="start" x="130.5" y="-583.5" font-family="Helvetica,sans-Serif" font-size="10.00" fill="#000000"># __check_protocols__()</text>
</a>
</g>
</g>
<!-- Node5&#45;&gt;Node1 -->
<g id="edge6" class="edge">
<title>Node5&#45;&gt;Node1</title>
<path fill="none" stroke="#ffa500" d="M206.9819,-566.2687C207.1848,-563.4736 207.3606,-560.7028 207.5,-558 208.2556,-543.3528 208.0783,-539.6553 207.5,-525 202.3849,-395.3642 197.9697,-363.0355 184.5,-234 183.2264,-221.7992 181.5947,-208.5428 180.0203,-196.523"/>
<polygon fill="#ffa500" stroke="#ffa500" points="203.4787,-566.1647 206.1442,-576.4187 210.4549,-566.7405 203.4787,-566.1647"/>
<text text-anchor="middle" x="273.5" y="-390" font-family="Helvetica,sans-Serif" font-size="10.00" fill="#000000"> &lt; Vm, Task, L4_PROTO_VM &gt;</text>
</g>
<!-- Node5&#45;&gt;Node3 -->
<g id="edge5" class="edge">
<title>Node5&#45;&gt;Node3</title>
<path fill="none" stroke="#ffa500" d="M112.8545,-582.4491C96.2956,-574.416 82.5733,-565.8833 77.5,-558 67.8891,-543.0657 66.0657,-523.9541 67.2287,-506.6851"/>
<polygon fill="#ffa500" stroke="#ffa500" points="111.7661,-585.8031 122.3087,-586.8532 114.722,-579.4578 111.7661,-585.8031"/>
<text text-anchor="start" x="77.5" y="-550" font-family="Helvetica,sans-Serif" font-size="10.00" fill="#000000"> &lt; Task, Kobject, L4</text>
<text text-anchor="start" x="77.5" y="-539" font-family="Helvetica,sans-Serif" font-size="10.00" fill="#000000">_PROTO_TASK, Type_info</text>
<text text-anchor="middle" x="142.5" y="-528" font-family="Helvetica,sans-Serif" font-size="10.00" fill="#000000">::Demand_t&lt; 2 &gt; &gt;</text>
</g>
</g>
</svg>
