<?xml version="1.0" encoding="UTF-8" standalone="no"?>
<!DOCTYPE svg PUBLIC "-//W3C//DTD SVG 1.1//EN"
 "http://www.w3.org/Graphics/SVG/1.1/DTD/svg11.dtd">
<!-- Generated by graphviz version 2.40.1 (20161225.0304)
 -->
<!-- Title: cxx::Bitfield::set_unshifted_dirty Pages: 1 -->
<svg width="344pt" height="39pt"
 viewBox="0.00 0.00 344.00 39.00" xmlns="http://www.w3.org/2000/svg" xmlns:xlink="http://www.w3.org/1999/xlink">
<g id="graph0" class="graph" transform="scale(1 1) rotate(0) translate(4 35)">
<title>cxx::Bitfield::set_unshifted_dirty</title>
<polygon fill="#ffffff" stroke="transparent" points="-4,4 -4,-35 340,-35 340,4 -4,4"/>
<!-- Node19 -->
<g id="node1" class="node">
<title>Node19</title>
<polygon fill="#bfbfbf" stroke="#000000" points="0,-.5 0,-30.5 92,-30.5 92,-.5 0,-.5"/>
<text text-anchor="start" x="8" y="-18.5" font-family="Helvetica,sans-Serif" font-size="10.00" fill="#000000">cxx::Bitfield::set</text>
<text text-anchor="middle" x="46" y="-7.5" font-family="Helvetica,sans-Serif" font-size="10.00" fill="#000000">_unshifted_dirty</text>
</g>
<!-- Node20 -->
<g id="node2" class="node">
<title>Node20</title>
<g id="a_node2"><a xlink:href="classcxx_1_1Bitfield.html#a3384706160a84e15a283e2c639071a26" target="_top" xlink:title="Get the shifted bits for val. ">
<polygon fill="#ffffff" stroke="#000000" points="128,-6 128,-25 214,-25 214,-6 128,-6"/>
<text text-anchor="middle" x="171" y="-13" font-family="Helvetica,sans-Serif" font-size="10.00" fill="#000000">cxx::Bitfield::val</text>
</a>
</g>
</g>
<!-- Node19&#45;&gt;Node20 -->
<g id="edge1" class="edge">
<title>Node19&#45;&gt;Node20</title>
<path fill="none" stroke="#191970" d="M92.1902,-15.5C100.4967,-15.5 109.2164,-15.5 117.7046,-15.5"/>
<polygon fill="#191970" stroke="#191970" points="117.9001,-19.0001 127.9001,-15.5 117.9,-12.0001 117.9001,-19.0001"/>
</g>
<!-- Node21 -->
<g id="node3" class="node">
<title>Node21</title>
<g id="a_node3"><a xlink:href="classcxx_1_1Bitfield.html#a8180660e03ca6acf85047dba64bb77a3" target="_top" xlink:title="Get the shifted bits for val. ">
<polygon fill="#ffffff" stroke="#000000" points="250,-.5 250,-30.5 336,-30.5 336,-.5 250,-.5"/>
<text text-anchor="start" x="258" y="-18.5" font-family="Helvetica,sans-Serif" font-size="10.00" fill="#000000">cxx::Bitfield::val</text>
<text text-anchor="middle" x="293" y="-7.5" font-family="Helvetica,sans-Serif" font-size="10.00" fill="#000000">_dirty</text>
</a>
</g>
</g>
<!-- Node20&#45;&gt;Node21 -->
<g id="edge2" class="edge">
<title>Node20&#45;&gt;Node21</title>
<path fill="none" stroke="#191970" d="M214.0126,-15.5C222.395,-15.5 231.2751,-15.5 239.9379,-15.5"/>
<polygon fill="#191970" stroke="#191970" points="239.9646,-19.0001 249.9646,-15.5 239.9645,-12.0001 239.9646,-19.0001"/>
</g>
</g>
</svg>
