<?xml version="1.0" encoding="UTF-8" standalone="no"?>
<!DOCTYPE svg PUBLIC "-//W3C//DTD SVG 1.1//EN"
 "http://www.w3.org/Graphics/SVG/1.1/DTD/svg11.dtd">
<!-- Generated by graphviz version 2.40.1 (20161225.0304)
 -->
<!-- Title: L4::Vcon Pages: 1 -->
<svg width="316pt" height="931pt"
 viewBox="0.00 0.00 315.50 931.00" xmlns="http://www.w3.org/2000/svg" xmlns:xlink="http://www.w3.org/1999/xlink">
<g id="graph0" class="graph" transform="scale(1 1) rotate(0) translate(4 927)">
<title>L4::Vcon</title>
<polygon fill="#ffffff" stroke="transparent" points="-4,4 -4,-927 311.5,-927 311.5,4 -4,4"/>
<!-- Node0 -->
<g id="node1" class="node">
<title>Node0</title>
<polygon fill="#bfbfbf" stroke="#000000" points="115,-234.5 115,-346.5 224,-346.5 224,-234.5 115,-234.5"/>
<text text-anchor="middle" x="169.5" y="-334.5" font-family="Helvetica,sans-Serif" font-size="10.00" fill="#000000">L4::Vcon</text>
<polyline fill="none" stroke="#000000" points="115,-327.5 224,-327.5 "/>
<text text-anchor="middle" x="169.5" y="-315.5" font-family="Helvetica,sans-Serif" font-size="10.00" fill="#000000"> </text>
<polyline fill="none" stroke="#000000" points="115,-308.5 224,-308.5 "/>
<text text-anchor="start" x="123" y="-296.5" font-family="Helvetica,sans-Serif" font-size="10.00" fill="#000000">+ send()</text>
<text text-anchor="start" x="123" y="-285.5" font-family="Helvetica,sans-Serif" font-size="10.00" fill="#000000">+ write()</text>
<text text-anchor="start" x="123" y="-274.5" font-family="Helvetica,sans-Serif" font-size="10.00" fill="#000000">+ read()</text>
<text text-anchor="start" x="123" y="-263.5" font-family="Helvetica,sans-Serif" font-size="10.00" fill="#000000">+ read_with_flags()</text>
<text text-anchor="start" x="123" y="-252.5" font-family="Helvetica,sans-Serif" font-size="10.00" fill="#000000">+ set_attr()</text>
<text text-anchor="start" x="123" y="-241.5" font-family="Helvetica,sans-Serif" font-size="10.00" fill="#000000">+ get_attr()</text>
</g>
<!-- Node6 -->
<g id="node7" class="node">
<title>Node6</title>
<g id="a_node7"><a xlink:href="classL4_1_1Kobject__t.html" target="_top" xlink:title="{L4::Kobject_t\&lt; Log,\l L4::Vcon, L4::PROTO\l_EMPTY \&gt;\n||# c()\l# __check_protocols__()\l}">
<polygon fill="#ffffff" stroke="#000000" points="102.5,-106.5 102.5,-196.5 236.5,-196.5 236.5,-106.5 102.5,-106.5"/>
<text text-anchor="start" x="110.5" y="-184.5" font-family="Helvetica,sans-Serif" font-size="10.00" fill="#000000">L4::Kobject_t&lt; Log,</text>
<text text-anchor="start" x="110.5" y="-173.5" font-family="Helvetica,sans-Serif" font-size="10.00" fill="#000000"> L4::Vcon, L4::PROTO</text>
<text text-anchor="middle" x="169.5" y="-162.5" font-family="Helvetica,sans-Serif" font-size="10.00" fill="#000000">_EMPTY &gt;</text>
<polyline fill="none" stroke="#000000" points="102.5,-155.5 236.5,-155.5 "/>
<text text-anchor="middle" x="169.5" y="-143.5" font-family="Helvetica,sans-Serif" font-size="10.00" fill="#000000"> </text>
<polyline fill="none" stroke="#000000" points="102.5,-136.5 236.5,-136.5 "/>
<text text-anchor="start" x="110.5" y="-124.5" font-family="Helvetica,sans-Serif" font-size="10.00" fill="#000000"># c()</text>
<text text-anchor="start" x="110.5" y="-113.5" font-family="Helvetica,sans-Serif" font-size="10.00" fill="#000000"># __check_protocols__()</text>
</a>
</g>
</g>
<!-- Node0&#45;&gt;Node6 -->
<g id="edge7" class="edge">
<title>Node0&#45;&gt;Node6</title>
<path fill="none" stroke="#191970" d="M169.5,-224.302C169.5,-214.9709 169.5,-205.5602 169.5,-196.7449"/>
<polygon fill="none" stroke="#191970" points="166.0001,-224.364 169.5,-234.364 173.0001,-224.3641 166.0001,-224.364"/>
</g>
<!-- Node1 -->
<g id="node2" class="node">
<title>Node1</title>
<g id="a_node2"><a xlink:href="classL4_1_1Kobject__t.html" target="_top" xlink:title="{L4::Kobject_t\&lt; Vcon,\l Icu, L4_PROTO_LOG \&gt;\n||# c()\l# __check_protocols__()\l}">
<polygon fill="#ffffff" stroke="#000000" points="102.5,-384.5 102.5,-463.5 236.5,-463.5 236.5,-384.5 102.5,-384.5"/>
<text text-anchor="start" x="110.5" y="-451.5" font-family="Helvetica,sans-Serif" font-size="10.00" fill="#000000">L4::Kobject_t&lt; Vcon,</text>
<text text-anchor="middle" x="169.5" y="-440.5" font-family="Helvetica,sans-Serif" font-size="10.00" fill="#000000"> Icu, L4_PROTO_LOG &gt;</text>
<polyline fill="none" stroke="#000000" points="102.5,-433.5 236.5,-433.5 "/>
<text text-anchor="middle" x="169.5" y="-421.5" font-family="Helvetica,sans-Serif" font-size="10.00" fill="#000000"> </text>
<polyline fill="none" stroke="#000000" points="102.5,-414.5 236.5,-414.5 "/>
<text text-anchor="start" x="110.5" y="-402.5" font-family="Helvetica,sans-Serif" font-size="10.00" fill="#000000"># c()</text>
<text text-anchor="start" x="110.5" y="-391.5" font-family="Helvetica,sans-Serif" font-size="10.00" fill="#000000"># __check_protocols__()</text>
</a>
</g>
</g>
<!-- Node1&#45;&gt;Node0 -->
<g id="edge1" class="edge">
<title>Node1&#45;&gt;Node0</title>
<path fill="none" stroke="#191970" d="M169.5,-374.038C169.5,-365.0858 169.5,-355.7027 169.5,-346.5916"/>
<polygon fill="none" stroke="#191970" points="166.0001,-374.307 169.5,-384.307 173.0001,-374.3071 166.0001,-374.307"/>
</g>
<!-- Node2 -->
<g id="node3" class="node">
<title>Node2</title>
<g id="a_node3"><a xlink:href="classL4_1_1Icu.html" target="_top" xlink:title="C++ Icu interface. ">
<polygon fill="#ffffff" stroke="#000000" points="87.5,-501.5 87.5,-624.5 167.5,-624.5 167.5,-501.5 87.5,-501.5"/>
<text text-anchor="middle" x="127.5" y="-612.5" font-family="Helvetica,sans-Serif" font-size="10.00" fill="#000000">L4::Icu</text>
<polyline fill="none" stroke="#000000" points="87.5,-605.5 167.5,-605.5 "/>
<text text-anchor="middle" x="127.5" y="-593.5" font-family="Helvetica,sans-Serif" font-size="10.00" fill="#000000"> </text>
<polyline fill="none" stroke="#000000" points="87.5,-586.5 167.5,-586.5 "/>
<text text-anchor="start" x="95.5" y="-574.5" font-family="Helvetica,sans-Serif" font-size="10.00" fill="#000000">+ bind()</text>
<text text-anchor="start" x="95.5" y="-563.5" font-family="Helvetica,sans-Serif" font-size="10.00" fill="#000000">+ unbind()</text>
<text text-anchor="start" x="95.5" y="-552.5" font-family="Helvetica,sans-Serif" font-size="10.00" fill="#000000">+ info()</text>
<text text-anchor="start" x="95.5" y="-541.5" font-family="Helvetica,sans-Serif" font-size="10.00" fill="#000000">+ msi_info()</text>
<text text-anchor="start" x="95.5" y="-530.5" font-family="Helvetica,sans-Serif" font-size="10.00" fill="#000000">+ control()</text>
<text text-anchor="start" x="95.5" y="-519.5" font-family="Helvetica,sans-Serif" font-size="10.00" fill="#000000">+ mask()</text>
<text text-anchor="start" x="95.5" y="-508.5" font-family="Helvetica,sans-Serif" font-size="10.00" fill="#000000">+ set_mode()</text>
</a>
</g>
</g>
<!-- Node2&#45;&gt;Node1 -->
<g id="edge2" class="edge">
<title>Node2&#45;&gt;Node1</title>
<path fill="none" stroke="#191970" d="M149.07,-491.6136C151.977,-481.9928 154.8694,-472.4203 157.5242,-463.6342"/>
<polygon fill="none" stroke="#191970" points="145.7085,-490.6382 146.1664,-501.2231 152.4093,-492.6629 145.7085,-490.6382"/>
</g>
<!-- Node3 -->
<g id="node4" class="node">
<title>Node3</title>
<g id="a_node4"><a xlink:href="classL4_1_1Kobject__t.html" target="_top" xlink:title="{L4::Kobject_t\&lt; Icu,\l Irq_eoi, L4_PROTO_IRQ,\l Type_info::Demand_t\&lt; 1 \&gt; \&gt;\n||# c()\l# __check_protocols__()\l}">
<polygon fill="#ffffff" stroke="#000000" points="0,-683.5 0,-773.5 153,-773.5 153,-683.5 0,-683.5"/>
<text text-anchor="start" x="8" y="-761.5" font-family="Helvetica,sans-Serif" font-size="10.00" fill="#000000">L4::Kobject_t&lt; Icu,</text>
<text text-anchor="start" x="8" y="-750.5" font-family="Helvetica,sans-Serif" font-size="10.00" fill="#000000"> Irq_eoi, L4_PROTO_IRQ,</text>
<text text-anchor="middle" x="76.5" y="-739.5" font-family="Helvetica,sans-Serif" font-size="10.00" fill="#000000"> Type_info::Demand_t&lt; 1 &gt; &gt;</text>
<polyline fill="none" stroke="#000000" points="0,-732.5 153,-732.5 "/>
<text text-anchor="middle" x="76.5" y="-720.5" font-family="Helvetica,sans-Serif" font-size="10.00" fill="#000000"> </text>
<polyline fill="none" stroke="#000000" points="0,-713.5 153,-713.5 "/>
<text text-anchor="start" x="8" y="-701.5" font-family="Helvetica,sans-Serif" font-size="10.00" fill="#000000"># c()</text>
<text text-anchor="start" x="8" y="-690.5" font-family="Helvetica,sans-Serif" font-size="10.00" fill="#000000"># __check_protocols__()</text>
</a>
</g>
</g>
<!-- Node3&#45;&gt;Node2 -->
<g id="edge3" class="edge">
<title>Node3&#45;&gt;Node2</title>
<path fill="none" stroke="#191970" d="M93.3856,-673.7045C98.2324,-657.9761 103.5497,-640.7209 108.514,-624.6114"/>
<polygon fill="none" stroke="#191970" points="90.0362,-672.6891 90.436,-683.2764 96.7258,-674.7506 90.0362,-672.6891"/>
</g>
<!-- Node4 -->
<g id="node5" class="node">
<title>Node4</title>
<g id="a_node5"><a xlink:href="classL4_1_1Irq__eoi.html" target="_top" xlink:title="Interface for sending an acknowledge message to an object. ">
<polygon fill="#ffffff" stroke="#000000" points="8.5,-854.5 8.5,-911.5 78.5,-911.5 78.5,-854.5 8.5,-854.5"/>
<text text-anchor="middle" x="43.5" y="-899.5" font-family="Helvetica,sans-Serif" font-size="10.00" fill="#000000">L4::Irq_eoi</text>
<polyline fill="none" stroke="#000000" points="8.5,-892.5 78.5,-892.5 "/>
<text text-anchor="middle" x="43.5" y="-880.5" font-family="Helvetica,sans-Serif" font-size="10.00" fill="#000000"> </text>
<polyline fill="none" stroke="#000000" points="8.5,-873.5 78.5,-873.5 "/>
<text text-anchor="start" x="16.5" y="-861.5" font-family="Helvetica,sans-Serif" font-size="10.00" fill="#000000">+ unmask()</text>
</a>
</g>
</g>
<!-- Node4&#45;&gt;Node3 -->
<g id="edge4" class="edge">
<title>Node4&#45;&gt;Node3</title>
<path fill="none" stroke="#191970" d="M48.3033,-843.9347C50.6033,-827.7662 53.6943,-808.8846 57.5,-792 58.841,-786.0504 60.4411,-779.8426 62.1356,-773.7385"/>
<polygon fill="none" stroke="#191970" points="44.7977,-843.7369 46.9065,-854.1197 51.7328,-844.688 44.7977,-843.7369"/>
</g>
<!-- Node5 -->
<g id="node6" class="node">
<title>Node5</title>
<g id="a_node6"><a xlink:href="classL4_1_1Kobject__t.html" target="_top" xlink:title="Helper class to create an L4Re interface class that is derived from a single base class...">
<polygon fill="#ffffff" stroke="#000000" points="114.5,-843.5 114.5,-922.5 272.5,-922.5 272.5,-843.5 114.5,-843.5"/>
<text text-anchor="start" x="122.5" y="-910.5" font-family="Helvetica,sans-Serif" font-size="10.00" fill="#000000">L4::Kobject_t&lt; Derived,</text>
<text text-anchor="middle" x="193.5" y="-899.5" font-family="Helvetica,sans-Serif" font-size="10.00" fill="#000000"> Base, PROTO, S_DEMAND &gt;</text>
<polyline fill="none" stroke="#000000" points="114.5,-892.5 272.5,-892.5 "/>
<text text-anchor="middle" x="193.5" y="-880.5" font-family="Helvetica,sans-Serif" font-size="10.00" fill="#000000"> </text>
<polyline fill="none" stroke="#000000" points="114.5,-873.5 272.5,-873.5 "/>
<text text-anchor="start" x="122.5" y="-861.5" font-family="Helvetica,sans-Serif" font-size="10.00" fill="#000000"># c()</text>
<text text-anchor="start" x="122.5" y="-850.5" font-family="Helvetica,sans-Serif" font-size="10.00" fill="#000000"># __check_protocols__()</text>
</a>
</g>
</g>
<!-- Node5&#45;&gt;Node1 -->
<g id="edge6" class="edge">
<title>Node5&#45;&gt;Node1</title>
<path fill="none" stroke="#ffa500" d="M198.0683,-833.2608C198.2374,-830.4677 198.3839,-827.6995 198.5,-825 199.1304,-810.3469 199.0532,-806.6562 198.5,-792 193.9795,-672.2427 180.5892,-531.0842 173.6994,-463.691"/>
<polygon fill="#ffa500" stroke="#ffa500" points="194.5651,-833.1891 197.3703,-843.4058 201.5486,-833.6697 194.5651,-833.1891"/>
<text text-anchor="start" x="191.5" y="-657" font-family="Helvetica,sans-Serif" font-size="10.00" fill="#000000"> &lt; Vcon, Icu, L4_PROTO</text>
<text text-anchor="middle" x="249.5" y="-646" font-family="Helvetica,sans-Serif" font-size="10.00" fill="#000000">_LOG &gt;</text>
</g>
<!-- Node5&#45;&gt;Node3 -->
<g id="edge5" class="edge">
<title>Node5&#45;&gt;Node3</title>
<path fill="none" stroke="#ffa500" d="M105.6378,-852.8214C94.4897,-845.4071 84.5388,-836.2581 77.5,-825 68.0851,-809.9413 66.2954,-790.8084 67.4305,-773.557"/>
<polygon fill="#ffa500" stroke="#ffa500" points="104.0103,-855.9286 114.3677,-858.1591 107.6619,-849.9565 104.0103,-855.9286"/>
<text text-anchor="start" x="77.5" y="-817" font-family="Helvetica,sans-Serif" font-size="10.00" fill="#000000"> &lt; Icu, Irq_eoi, L4</text>
<text text-anchor="start" x="77.5" y="-806" font-family="Helvetica,sans-Serif" font-size="10.00" fill="#000000">_PROTO_IRQ, Type_info</text>
<text text-anchor="middle" x="138" y="-795" font-family="Helvetica,sans-Serif" font-size="10.00" fill="#000000">::Demand_t&lt; 1 &gt; &gt;</text>
</g>
<!-- Node7 -->
<g id="node8" class="node">
<title>Node7</title>
<g id="a_node8"><a xlink:href="classL4Re_1_1Log.html" target="_top" xlink:title="Log interface class. ">
<polygon fill="#ffffff" stroke="#000000" points="137,-.5 137,-68.5 202,-68.5 202,-.5 137,-.5"/>
<text text-anchor="middle" x="169.5" y="-56.5" font-family="Helvetica,sans-Serif" font-size="10.00" fill="#000000">L4Re::Log</text>
<polyline fill="none" stroke="#000000" points="137,-49.5 202,-49.5 "/>
<text text-anchor="middle" x="169.5" y="-37.5" font-family="Helvetica,sans-Serif" font-size="10.00" fill="#000000"> </text>
<polyline fill="none" stroke="#000000" points="137,-30.5 202,-30.5 "/>
<text text-anchor="start" x="145" y="-18.5" font-family="Helvetica,sans-Serif" font-size="10.00" fill="#000000">+ printn()</text>
<text text-anchor="start" x="145" y="-7.5" font-family="Helvetica,sans-Serif" font-size="10.00" fill="#000000">+ print()</text>
</a>
</g>
</g>
<!-- Node6&#45;&gt;Node7 -->
<g id="edge8" class="edge">
<title>Node6&#45;&gt;Node7</title>
<path fill="none" stroke="#191970" d="M169.5,-96.1895C169.5,-86.8229 169.5,-77.3469 169.5,-68.7259"/>
<polygon fill="none" stroke="#191970" points="166.0001,-96.2647 169.5,-106.2647 173.0001,-96.2648 166.0001,-96.2647"/>
</g>
</g>
</svg>
