<?xml version="1.0" encoding="UTF-8" standalone="no"?>
<!DOCTYPE svg PUBLIC "-//W3C//DTD SVG 1.1//EN"
 "http://www.w3.org/Graphics/SVG/1.1/DTD/svg11.dtd">
<!-- Generated by graphviz version 2.40.1 (20161225.0304)
 -->
<!-- Title: L4::Cap_base::cap Pages: 1 -->
<svg width="448pt" height="1045pt"
 viewBox="0.00 0.00 448.00 1044.50" xmlns="http://www.w3.org/2000/svg" xmlns:xlink="http://www.w3.org/1999/xlink">
<g id="graph0" class="graph" transform="scale(1 1) rotate(0) translate(4 1040.5)">
<title>L4::Cap_base::cap</title>
<polygon fill="#ffffff" stroke="transparent" points="-4,4 -4,-1040.5 444,-1040.5 444,4 -4,4"/>
<!-- Node5 -->
<g id="node1" class="node">
<title>Node5</title>
<polygon fill="#bfbfbf" stroke="#000000" points="0,-487.5 0,-506.5 103,-506.5 103,-487.5 0,-487.5"/>
<text text-anchor="middle" x="51.5" y="-494.5" font-family="Helvetica,sans-Serif" font-size="10.00" fill="#000000">L4::Cap_base::cap</text>
</g>
<!-- Node6 -->
<g id="node2" class="node">
<title>Node6</title>
<g id="a_node2"><a xlink:href="classL4Re_1_1Util_1_1Cap__alloc__base.html#aaca35a0ee9a762411d88720ec48589e7" target="_top" xlink:title="Allocate a capability slot. ">
<polygon fill="#ffffff" stroke="#000000" points="152.5,-951 152.5,-981 265.5,-981 265.5,-951 152.5,-951"/>
<text text-anchor="start" x="160.5" y="-969" font-family="Helvetica,sans-Serif" font-size="10.00" fill="#000000">L4Re::Util::Cap_alloc</text>
<text text-anchor="middle" x="209" y="-958" font-family="Helvetica,sans-Serif" font-size="10.00" fill="#000000">_base::alloc</text>
</a>
</g>
</g>
<!-- Node5&#45;&gt;Node6 -->
<g id="edge1" class="edge">
<title>Node5&#45;&gt;Node6</title>
<path fill="none" stroke="#191970" d="M52.8119,-516.845C58.3238,-594.4971 82.0143,-876.6754 139,-942 142.8004,-946.3566 147.4277,-949.9231 152.4737,-952.8427"/>
<polygon fill="#191970" stroke="#191970" points="56.2825,-516.2965 52.1047,-506.5602 49.299,-516.7767 56.2825,-516.2965"/>
</g>
<!-- Node7 -->
<g id="node3" class="node">
<title>Node7</title>
<g id="a_node3"><a xlink:href="classL4vbus_1_1Vbus.html#a15085069054edbb9b221154e25db52b2" target="_top" xlink:title="Assign an L4Re::Dma_space to a DMA domain. ">
<polygon fill="#ffffff" stroke="#000000" points="153,-902 153,-932 265,-932 265,-902 153,-902"/>
<text text-anchor="start" x="161" y="-920" font-family="Helvetica,sans-Serif" font-size="10.00" fill="#000000">L4vbus::Vbus::assign</text>
<text text-anchor="middle" x="209" y="-909" font-family="Helvetica,sans-Serif" font-size="10.00" fill="#000000">_dma_domain</text>
</a>
</g>
</g>
<!-- Node5&#45;&gt;Node7 -->
<g id="edge2" class="edge">
<title>Node5&#45;&gt;Node7</title>
<path fill="none" stroke="#191970" d="M53.3763,-516.8586C60.5453,-588.8089 88.3814,-834.6214 139,-892 142.927,-896.4515 147.7029,-900.1104 152.8958,-903.1179"/>
<polygon fill="#191970" stroke="#191970" points="56.8225,-516.1353 52.3708,-506.5212 49.8554,-516.8131 56.8225,-516.1353"/>
</g>
<!-- Node8 -->
<g id="node4" class="node">
<title>Node8</title>
<g id="a_node4"><a xlink:href="classL4_1_1Icu.html#ada7541da586ea09b925b4d90d7dc357e" target="_top" xlink:title="Bind an interrupt line of an interrupt controller to an interrupt object. ">
<polygon fill="#ffffff" stroke="#000000" points="173.5,-863.5 173.5,-882.5 244.5,-882.5 244.5,-863.5 173.5,-863.5"/>
<text text-anchor="middle" x="209" y="-870.5" font-family="Helvetica,sans-Serif" font-size="10.00" fill="#000000">L4::Icu::bind</text>
</a>
</g>
</g>
<!-- Node5&#45;&gt;Node8 -->
<g id="edge3" class="edge">
<title>Node5&#45;&gt;Node8</title>
<path fill="none" stroke="#191970" d="M53.7157,-516.807C61.6665,-584.4229 90.8714,-804.6685 139,-854 147.9695,-863.1937 160.9042,-868.0775 173.2202,-870.6263"/>
<polygon fill="#191970" stroke="#191970" points="57.1693,-516.2018 52.5497,-506.6671 50.2151,-517.0015 57.1693,-516.2018"/>
</g>
<!-- Node10 -->
<g id="node6" class="node">
<title>Node10</title>
<g id="a_node6"><a xlink:href="namespaceL4.html#ade8c6f7c3471209d45401e564d3fd3b7" target="_top" xlink:title="static_cast for capabilities. ">
<polygon fill="#ffffff" stroke="#000000" points="171,-825.5 171,-844.5 247,-844.5 247,-825.5 171,-825.5"/>
<text text-anchor="middle" x="209" y="-832.5" font-family="Helvetica,sans-Serif" font-size="10.00" fill="#000000">L4::cap_cast</text>
</a>
</g>
</g>
<!-- Node5&#45;&gt;Node10 -->
<g id="edge5" class="edge">
<title>Node5&#45;&gt;Node10</title>
<path fill="none" stroke="#191970" d="M54.3189,-516.7017C63.6695,-579.3919 95.5533,-772.669 139,-816 147.4703,-824.4477 159.2938,-829.2422 170.8153,-831.9314"/>
<polygon fill="#191970" stroke="#191970" points="57.749,-515.969 52.8375,-506.5814 50.8228,-516.9829 57.749,-515.969"/>
</g>
<!-- Node18 -->
<g id="node14" class="node">
<title>Node18</title>
<g id="a_node14"><a xlink:href="namespaceL4.html#a0118f233567805e8d15e6fd3eb3b64fb" target="_top" xlink:title="reinterpret_cast for capabilities. ">
<polygon fill="#ffffff" stroke="#000000" points="143.5,-787.5 143.5,-806.5 274.5,-806.5 274.5,-787.5 143.5,-787.5"/>
<text text-anchor="middle" x="209" y="-794.5" font-family="Helvetica,sans-Serif" font-size="10.00" fill="#000000">L4::cap_reinterpret_cast</text>
</a>
</g>
</g>
<!-- Node5&#45;&gt;Node18 -->
<g id="edge13" class="edge">
<title>Node5&#45;&gt;Node18</title>
<path fill="none" stroke="#191970" d="M55.0724,-516.5788C65.9334,-574.0537 100.1992,-740.6025 139,-778 142.9893,-781.8451 147.6752,-784.9297 152.7003,-787.4016"/>
<polygon fill="#191970" stroke="#191970" points="58.4876,-515.8 53.2178,-506.6087 51.6057,-517.0802 58.4876,-515.8"/>
</g>
<!-- Node20 -->
<g id="node16" class="node">
<title>Node20</title>
<g id="a_node16"><a xlink:href="structL4_1_1Irq__mux.html#acfd63279449d20bef4226da9a01e5da9" target="_top" xlink:title="Attach an IRQ to this multiplexer. ">
<polygon fill="#ffffff" stroke="#000000" points="158.5,-749.5 158.5,-768.5 259.5,-768.5 259.5,-749.5 158.5,-749.5"/>
<text text-anchor="middle" x="209" y="-756.5" font-family="Helvetica,sans-Serif" font-size="10.00" fill="#000000">L4::Irq_mux::chain</text>
</a>
</g>
</g>
<!-- Node5&#45;&gt;Node20 -->
<g id="edge15" class="edge">
<title>Node5&#45;&gt;Node20</title>
<path fill="none" stroke="#191970" d="M52.6569,-516.7523C56.4521,-562.9196 72.4618,-678.6189 139,-740 144.5534,-745.123 151.3489,-748.8883 158.4991,-751.6509"/>
<polygon fill="#191970" stroke="#191970" points="56.1347,-516.314 51.9319,-506.5884 49.1524,-516.8121 56.1347,-516.314"/>
</g>
<!-- Node21 -->
<g id="node17" class="node">
<title>Node21</title>
<g id="a_node17"><a xlink:href="classL4Re_1_1Util_1_1Smart__count__cap.html#a5886f75acada6cddee1b8c3192476b93" target="_top" xlink:title="Copy operation for L4::Smart_cap (increment ref count). ">
<polygon fill="#ffffff" stroke="#000000" points="146.5,-700 146.5,-730 271.5,-730 271.5,-700 146.5,-700"/>
<text text-anchor="start" x="154.5" y="-718" font-family="Helvetica,sans-Serif" font-size="10.00" fill="#000000">L4Re::Util::Smart_count</text>
<text text-anchor="middle" x="209" y="-707" font-family="Helvetica,sans-Serif" font-size="10.00" fill="#000000">_cap::copy</text>
</a>
</g>
</g>
<!-- Node5&#45;&gt;Node21 -->
<g id="edge16" class="edge">
<title>Node5&#45;&gt;Node21</title>
<path fill="none" stroke="#191970" d="M55.0745,-516.5101C63.1322,-555.0636 86.2817,-641.4671 139,-690 143.1774,-693.8457 147.9866,-697.108 153.0872,-699.8738"/>
<polygon fill="#191970" stroke="#191970" points="58.4839,-515.7083 53.1156,-506.5742 51.6161,-517.0624 58.4839,-515.7083"/>
</g>
<!-- Node22 -->
<g id="node18" class="node">
<title>Node22</title>
<g id="a_node18"><a xlink:href="classL4Re_1_1Smart__count__cap.html#a4f5fee6c54e153aba5b2cf33e4c5c5ec" target="_top" xlink:title="Copy operation for L4::Smart_cap (increment ref count). ">
<polygon fill="#ffffff" stroke="#000000" points="144.5,-651 144.5,-681 273.5,-681 273.5,-651 144.5,-651"/>
<text text-anchor="start" x="152.5" y="-669" font-family="Helvetica,sans-Serif" font-size="10.00" fill="#000000">L4Re::Smart_count_cap</text>
<text text-anchor="middle" x="209" y="-658" font-family="Helvetica,sans-Serif" font-size="10.00" fill="#000000">::copy</text>
</a>
</g>
</g>
<!-- Node5&#45;&gt;Node22 -->
<g id="edge17" class="edge">
<title>Node5&#45;&gt;Node22</title>
<path fill="none" stroke="#191970" d="M58.2462,-516.1115C69.9874,-546.7229 97.0136,-606.7754 139,-641 143.7012,-644.8321 149.0356,-648.0998 154.6123,-650.8811"/>
<polygon fill="#191970" stroke="#191970" points="61.4812,-514.7684 54.7311,-506.6022 54.9154,-517.1955 61.4812,-514.7684"/>
</g>
<!-- Node23 -->
<g id="node19" class="node">
<title>Node23</title>
<g id="a_node19"><a xlink:href="classL4_1_1Factory.html#a014721aec27ad4877555d5f4b7204896" target="_top" xlink:title="Create a new factory. ">
<polygon fill="#ffffff" stroke="#000000" points="157.5,-602 157.5,-632 260.5,-632 260.5,-602 157.5,-602"/>
<text text-anchor="start" x="165.5" y="-620" font-family="Helvetica,sans-Serif" font-size="10.00" fill="#000000">L4::Factory::create</text>
<text text-anchor="middle" x="209" y="-609" font-family="Helvetica,sans-Serif" font-size="10.00" fill="#000000">_factory</text>
</a>
</g>
</g>
<!-- Node5&#45;&gt;Node23 -->
<g id="edge18" class="edge">
<title>Node5&#45;&gt;Node23</title>
<path fill="none" stroke="#191970" d="M63.7652,-514.8874C79.1037,-536.0262 107.24,-570.9757 139,-592 144.7031,-595.7753 151.045,-599.0589 157.5169,-601.8926"/>
<polygon fill="#191970" stroke="#191970" points="66.4616,-512.6387 57.8263,-506.5001 60.7487,-516.6839 66.4616,-512.6387"/>
</g>
<!-- Node24 -->
<g id="node20" class="node">
<title>Node24</title>
<g id="a_node20"><a xlink:href="classL4_1_1Factory.html#aac0a160a20464a6917f2f614d5b86407" target="_top" xlink:title="Create a new IPC gate. ">
<polygon fill="#ffffff" stroke="#000000" points="144,-563.5 144,-582.5 274,-582.5 274,-563.5 144,-563.5"/>
<text text-anchor="middle" x="209" y="-570.5" font-family="Helvetica,sans-Serif" font-size="10.00" fill="#000000">L4::Factory::create_gate</text>
</a>
</g>
</g>
<!-- Node5&#45;&gt;Node24 -->
<g id="edge19" class="edge">
<title>Node5&#45;&gt;Node24</title>
<path fill="none" stroke="#191970" d="M71.6518,-512.7547C88.7425,-525.4523 114.3437,-542.9533 139,-554 147.2741,-557.707 156.4312,-560.8318 165.32,-563.4085"/>
<polygon fill="#191970" stroke="#191970" points="73.6253,-509.8589 63.5402,-506.6121 69.3994,-515.4394 73.6253,-509.8589"/>
</g>
<!-- Node25 -->
<g id="node21" class="node">
<title>Node25</title>
<g id="a_node21"><a xlink:href="classL4_1_1Factory.html#a741b67e7d11d552f3c17eccfd0d3bf88" target="_top" xlink:title="Create a new IRQ. ">
<polygon fill="#ffffff" stroke="#000000" points="148.5,-525.5 148.5,-544.5 269.5,-544.5 269.5,-525.5 148.5,-525.5"/>
<text text-anchor="middle" x="209" y="-532.5" font-family="Helvetica,sans-Serif" font-size="10.00" fill="#000000">L4::Factory::create_irq</text>
</a>
</g>
</g>
<!-- Node5&#45;&gt;Node25 -->
<g id="edge20" class="edge">
<title>Node5&#45;&gt;Node25</title>
<path fill="none" stroke="#191970" d="M101.1041,-508.968C123.1753,-514.2931 148.8027,-520.4762 169.5419,-525.4799"/>
<polygon fill="#191970" stroke="#191970" points="101.7859,-505.5321 91.2439,-506.589 100.1441,-512.3369 101.7859,-505.5321"/>
</g>
<!-- Node26 -->
<g id="node22" class="node">
<title>Node26</title>
<g id="a_node22"><a xlink:href="classL4_1_1Factory.html#a5a2119bba3ea97bfb0f10897c1c64ecb" target="_top" xlink:title="Create a new task. ">
<polygon fill="#ffffff" stroke="#000000" points="145,-487.5 145,-506.5 273,-506.5 273,-487.5 145,-487.5"/>
<text text-anchor="middle" x="209" y="-494.5" font-family="Helvetica,sans-Serif" font-size="10.00" fill="#000000">L4::Factory::create_task</text>
</a>
</g>
</g>
<!-- Node5&#45;&gt;Node26 -->
<g id="edge21" class="edge">
<title>Node5&#45;&gt;Node26</title>
<path fill="none" stroke="#191970" d="M113.2917,-497C123.6783,-497 134.478,-497 144.921,-497"/>
<polygon fill="#191970" stroke="#191970" points="113.0714,-493.5001 103.0714,-497 113.0714,-500.5001 113.0714,-493.5001"/>
</g>
<!-- Node27 -->
<g id="node23" class="node">
<title>Node27</title>
<g id="a_node23"><a xlink:href="classL4_1_1Factory.html#a0a5a8f18ac13a39f583c37ea42657246" target="_top" xlink:title="Create a new thread. ">
<polygon fill="#ffffff" stroke="#000000" points="157.5,-438 157.5,-468 260.5,-468 260.5,-438 157.5,-438"/>
<text text-anchor="start" x="165.5" y="-456" font-family="Helvetica,sans-Serif" font-size="10.00" fill="#000000">L4::Factory::create</text>
<text text-anchor="middle" x="209" y="-445" font-family="Helvetica,sans-Serif" font-size="10.00" fill="#000000">_thread</text>
</a>
</g>
</g>
<!-- Node5&#45;&gt;Node27 -->
<g id="edge22" class="edge">
<title>Node5&#45;&gt;Node27</title>
<path fill="none" stroke="#191970" d="M95.3623,-484.7464C114.5526,-479.3853 137.2071,-473.0564 157.219,-467.4658"/>
<polygon fill="#191970" stroke="#191970" points="94.3646,-481.391 85.6752,-487.4527 96.2481,-488.1329 94.3646,-481.391"/>
</g>
<!-- Node28 -->
<g id="node24" class="node">
<title>Node28</title>
<g id="a_node24"><a xlink:href="classL4_1_1Factory.html#a664fad5aab28576190df9b3165f0b36a" target="_top" xlink:title="Create a new virtual machine. ">
<polygon fill="#ffffff" stroke="#000000" points="148,-399.5 148,-418.5 270,-418.5 270,-399.5 148,-399.5"/>
<text text-anchor="middle" x="209" y="-406.5" font-family="Helvetica,sans-Serif" font-size="10.00" fill="#000000">L4::Factory::create_vm</text>
</a>
</g>
</g>
<!-- Node5&#45;&gt;Node28 -->
<g id="edge23" class="edge">
<title>Node5&#45;&gt;Node28</title>
<path fill="none" stroke="#191970" d="M68.1084,-480.4866C84.7237,-464.8433 111.6764,-441.7556 139,-428 146.5359,-424.2062 154.922,-421.0968 163.1971,-418.5734"/>
<polygon fill="#191970" stroke="#191970" points="65.6046,-478.0386 60.8258,-487.4945 70.4584,-483.0826 65.6046,-478.0386"/>
</g>
<!-- Node29 -->
<g id="node25" class="node">
<title>Node29</title>
<g id="a_node25"><a xlink:href="classL4Re_1_1Util_1_1Smart__cap__auto.html#a4dfba4f2c4731689f1a53992c83371a6" target="_top" xlink:title="Free operation for L4::Smart_cap. ">
<polygon fill="#ffffff" stroke="#000000" points="150.5,-350 150.5,-380 267.5,-380 267.5,-350 150.5,-350"/>
<text text-anchor="start" x="158.5" y="-368" font-family="Helvetica,sans-Serif" font-size="10.00" fill="#000000">L4Re::Util::Smart_cap</text>
<text text-anchor="middle" x="209" y="-357" font-family="Helvetica,sans-Serif" font-size="10.00" fill="#000000">_auto::free</text>
</a>
</g>
</g>
<!-- Node5&#45;&gt;Node29 -->
<g id="edge24" class="edge">
<title>Node5&#45;&gt;Node29</title>
<path fill="none" stroke="#191970" d="M62.1721,-478.5143C76.709,-454.8573 104.8715,-414.0656 139,-390 144.3786,-386.2073 150.3923,-382.9335 156.5747,-380.1225"/>
<polygon fill="#191970" stroke="#191970" points="59.0895,-476.8496 56.9595,-487.2281 65.0967,-480.4431 59.0895,-476.8496"/>
</g>
<!-- Node30 -->
<g id="node26" class="node">
<title>Node30</title>
<g id="a_node26"><a xlink:href="classL4_1_1Invalid__capability.html#a35f938fc07c4ded041b39278dab38058" target="_top" xlink:title="Create an Invalid_obejct exception for the Object o. ">
<polygon fill="#ffffff" stroke="#000000" points="152.5,-301 152.5,-331 265.5,-331 265.5,-301 152.5,-301"/>
<text text-anchor="start" x="160.5" y="-319" font-family="Helvetica,sans-Serif" font-size="10.00" fill="#000000">L4::Invalid_capability</text>
<text text-anchor="middle" x="209" y="-308" font-family="Helvetica,sans-Serif" font-size="10.00" fill="#000000">::Invalid_capability</text>
</a>
</g>
</g>
<!-- Node5&#45;&gt;Node30 -->
<g id="edge25" class="edge">
<title>Node5&#45;&gt;Node30</title>
<path fill="none" stroke="#191970" d="M57.2533,-477.4979C67.9634,-444.499 94.0468,-377.5818 139,-340 143.1397,-336.5391 147.8052,-333.5678 152.7126,-331.0187"/>
<polygon fill="#191970" stroke="#191970" points="53.8334,-476.7089 54.2055,-487.2972 60.5176,-478.7878 53.8334,-476.7089"/>
</g>
<!-- Node31 -->
<g id="node27" class="node">
<title>Node31</title>
<g id="a_node27"><a xlink:href="classL4virtio_1_1Svr_1_1Device__t.html#a3fa20bf911056f0d03c8274982b1e167" target="_top" xlink:title="Get the memory region list used for this device. ">
<polygon fill="#ffffff" stroke="#000000" points="142,-252 142,-282 276,-282 276,-252 142,-252"/>
<text text-anchor="start" x="150" y="-270" font-family="Helvetica,sans-Serif" font-size="10.00" fill="#000000">L4virtio::Svr::Device</text>
<text text-anchor="middle" x="209" y="-259" font-family="Helvetica,sans-Serif" font-size="10.00" fill="#000000">_t&lt; Ds_data &gt;::mem_info</text>
</a>
</g>
</g>
<!-- Node5&#45;&gt;Node31 -->
<g id="edge26" class="edge">
<title>Node5&#45;&gt;Node31</title>
<path fill="none" stroke="#191970" d="M54.4244,-477.2349C61.4658,-436.578 83.1119,-343.0353 139,-291 142.667,-287.5858 146.8414,-284.6548 151.2834,-282.1391"/>
<polygon fill="#191970" stroke="#191970" points="50.9508,-476.7908 52.8093,-487.2214 57.861,-477.9084 50.9508,-476.7908"/>
</g>
<!-- Node32 -->
<g id="node28" class="node">
<title>Node32</title>
<g id="a_node28"><a xlink:href="classL4_1_1Smart__cap.html#a8a8409cfc8c429d50fc53b80b5350c4c" target="_top" xlink:title="Member access of a T. ">
<polygon fill="#ffffff" stroke="#000000" points="140,-213.5 140,-232.5 278,-232.5 278,-213.5 140,-213.5"/>
<text text-anchor="middle" x="209" y="-220.5" font-family="Helvetica,sans-Serif" font-size="10.00" fill="#000000">L4::Smart_cap::operator&#45;&gt;</text>
</a>
</g>
</g>
<!-- Node5&#45;&gt;Node32 -->
<g id="edge27" class="edge">
<title>Node5&#45;&gt;Node32</title>
<path fill="none" stroke="#191970" d="M52.2705,-477.2586C55.2311,-429.5285 69.5686,-307.026 139,-242 143.136,-238.1265 147.9808,-235.0276 153.1575,-232.5508"/>
<polygon fill="#191970" stroke="#191970" points="48.7638,-477.2994 51.7457,-487.4659 55.7546,-477.6589 48.7638,-477.2994"/>
</g>
<!-- Node33 -->
<g id="node29" class="node">
<title>Node33</title>
<g id="a_node29"><a xlink:href="classL4_1_1Cap.html#ab183360065af90ee45b808e8c9e626aa" target="_top" xlink:title="Member access of a T. ">
<polygon fill="#ffffff" stroke="#000000" points="149.5,-164 149.5,-194 268.5,-194 268.5,-164 149.5,-164"/>
<text text-anchor="start" x="157.5" y="-182" font-family="Helvetica,sans-Serif" font-size="10.00" fill="#000000">L4::Cap&lt; L4Re::Video</text>
<text text-anchor="middle" x="209" y="-171" font-family="Helvetica,sans-Serif" font-size="10.00" fill="#000000">::Goos &gt;::operator&#45;&gt;</text>
</a>
</g>
</g>
<!-- Node5&#45;&gt;Node33 -->
<g id="edge28" class="edge">
<title>Node5&#45;&gt;Node33</title>
<path fill="none" stroke="#191970" d="M54.9573,-477.4996C65.7311,-418.7196 100.3015,-244.7985 139,-204 142.6411,-200.1613 146.9114,-196.9109 151.516,-194.1589"/>
<polygon fill="#191970" stroke="#191970" points="51.5089,-476.9005 53.176,-487.3634 58.3975,-478.1446 51.5089,-476.9005"/>
</g>
<!-- Node34 -->
<g id="node30" class="node">
<title>Node34</title>
<g id="a_node30"><a xlink:href="classL4Re_1_1Util_1_1Event__buffer__consumer__t.html#a4ed22b41ce4c7e6b93efae878b1415ef" target="_top" xlink:title="Continuously wait for events and process them. ">
<polygon fill="#ffffff" stroke="#000000" points="146.5,-115 146.5,-145 271.5,-145 271.5,-115 146.5,-115"/>
<text text-anchor="start" x="154.5" y="-133" font-family="Helvetica,sans-Serif" font-size="10.00" fill="#000000">L4Re::Util::Event_buffer</text>
<text text-anchor="middle" x="209" y="-122" font-family="Helvetica,sans-Serif" font-size="10.00" fill="#000000">_consumer_t::process</text>
</a>
</g>
</g>
<!-- Node5&#45;&gt;Node34 -->
<g id="edge29" class="edge">
<title>Node5&#45;&gt;Node34</title>
<path fill="none" stroke="#191970" d="M54.0565,-477.2394C62.909,-411.6513 94.1853,-202.5768 139,-154 142.1361,-150.6006 145.7744,-147.6828 149.7117,-145.1781"/>
<polygon fill="#191970" stroke="#191970" points="50.5494,-477.0629 52.7064,-487.4358 57.4888,-477.9818 50.5494,-477.0629"/>
</g>
<!-- Node35 -->
<g id="node31" class="node">
<title>Node35</title>
<g id="a_node31"><a xlink:href="classL4_1_1Smart__cap.html#ac08e6432423d2d481bf2d9491f2b75b3" target="_top" xlink:title="Internal constructor, use to generate a capability from a this pointer. ">
<polygon fill="#ffffff" stroke="#000000" points="139,-76.5 139,-95.5 279,-95.5 279,-76.5 139,-76.5"/>
<text text-anchor="middle" x="209" y="-83.5" font-family="Helvetica,sans-Serif" font-size="10.00" fill="#000000">L4::Smart_cap::Smart_cap</text>
</a>
</g>
</g>
<!-- Node5&#45;&gt;Node35 -->
<g id="edge30" class="edge">
<title>Node5&#45;&gt;Node35</title>
<path fill="none" stroke="#191970" d="M53.2525,-477.1575C59.9911,-405.2854 86.5211,-159.9187 139,-105 142.6539,-101.1762 146.993,-98.0957 151.6941,-95.6175"/>
<polygon fill="#191970" stroke="#191970" points="49.7334,-477.2083 52.31,-487.485 56.7044,-477.8445 49.7334,-477.2083"/>
</g>
<!-- Node36 -->
<g id="node32" class="node">
<title>Node36</title>
<g id="a_node32"><a xlink:href="classL4_1_1Icu.html#aa34e56cdac798b1949fcc00553386b8b" target="_top" xlink:title="Remove binding of an interrupt line from the interrupt controller object. ">
<polygon fill="#ffffff" stroke="#000000" points="168,-38.5 168,-57.5 250,-57.5 250,-38.5 168,-38.5"/>
<text text-anchor="middle" x="209" y="-45.5" font-family="Helvetica,sans-Serif" font-size="10.00" fill="#000000">L4::Icu::unbind</text>
</a>
</g>
</g>
<!-- Node5&#45;&gt;Node36 -->
<g id="edge31" class="edge">
<title>Node5&#45;&gt;Node36</title>
<path fill="none" stroke="#191970" d="M52.8246,-477.2185C58.317,-401.0644 81.7518,-128.0526 139,-67 146.5798,-58.9165 157.22,-54.1452 167.9209,-51.3643"/>
<polygon fill="#191970" stroke="#191970" points="49.3234,-477.1155 52.1184,-487.3349 56.3064,-477.603 49.3234,-477.1155"/>
</g>
<!-- Node37 -->
<g id="node33" class="node">
<title>Node37</title>
<g id="a_node33"><a xlink:href="classL4vbus_1_1Icu.html#a836655616e1572d6e5453a566c6d6372" target="_top" xlink:title="Request the L4::Icu capability for this Vbus ICU. ">
<polygon fill="#ffffff" stroke="#000000" points="164,-.5 164,-19.5 254,-19.5 254,-.5 164,-.5"/>
<text text-anchor="middle" x="209" y="-7.5" font-family="Helvetica,sans-Serif" font-size="10.00" fill="#000000">L4vbus::Icu::vicu</text>
</a>
</g>
</g>
<!-- Node5&#45;&gt;Node37 -->
<g id="edge32" class="edge">
<title>Node5&#45;&gt;Node37</title>
<path fill="none" stroke="#191970" d="M52.4785,-477.0492C56.8297,-396.4724 77.0214,-96.1605 139,-29 145.5758,-21.8744 154.5288,-17.3163 163.8339,-14.4259"/>
<polygon fill="#191970" stroke="#191970" points="48.9701,-477.1217 51.9484,-487.2893 55.9608,-477.4837 48.9701,-477.1217"/>
</g>
<!-- Node9 -->
<g id="node5" class="node">
<title>Node9</title>
<g id="a_node5"><a xlink:href="classL4Re_1_1Util_1_1Event__t.html#a6052908f83d35a7bb1ba9371cbfc9834" target="_top" xlink:title="Initialise an event object. ">
<polygon fill="#ffffff" stroke="#000000" points="326.5,-1006 326.5,-1036 428.5,-1036 428.5,-1006 326.5,-1006"/>
<text text-anchor="start" x="334.5" y="-1024" font-family="Helvetica,sans-Serif" font-size="10.00" fill="#000000">L4Re::Util::Event_t</text>
<text text-anchor="middle" x="377.5" y="-1013" font-family="Helvetica,sans-Serif" font-size="10.00" fill="#000000">::init</text>
</a>
</g>
</g>
<!-- Node8&#45;&gt;Node9 -->
<g id="edge4" class="edge">
<title>Node8&#45;&gt;Node9</title>
<path fill="none" stroke="#191970" d="M254.4577,-879.1986C263.4385,-882.1813 272.1819,-886.5659 279,-893 314.2689,-926.2823 281.4773,-960.9596 315,-996 318.7162,-999.8845 323.1149,-1003.1801 327.8308,-1005.9732"/>
<polygon fill="#191970" stroke="#191970" points="255.2718,-875.7922 244.6994,-876.4817 253.3942,-882.5357 255.2718,-875.7922"/>
</g>
<!-- Node11 -->
<g id="node7" class="node">
<title>Node11</title>
<g id="a_node7"><a xlink:href="classL4Re_1_1Cap__alloc.html#aa975f8a4ead1812cd5dc6651f7a796a3" target="_top" xlink:title="Allocate a capability. ">
<polygon fill="#ffffff" stroke="#000000" points="317.5,-967.5 317.5,-986.5 437.5,-986.5 437.5,-967.5 317.5,-967.5"/>
<text text-anchor="middle" x="377.5" y="-974.5" font-family="Helvetica,sans-Serif" font-size="10.00" fill="#000000">L4Re::Cap_alloc::alloc</text>
</a>
</g>
</g>
<!-- Node10&#45;&gt;Node11 -->
<g id="edge6" class="edge">
<title>Node10&#45;&gt;Node11</title>
<path fill="none" stroke="#191970" d="M256.8403,-841.2888C264.9711,-844.1273 272.7825,-848.1927 279,-854 314.7459,-887.3875 279.7603,-924.0787 315,-958 319.0036,-961.8538 323.7644,-964.9285 328.8458,-967.381"/>
<polygon fill="#191970" stroke="#191970" points="257.8048,-837.9244 247.225,-838.4895 255.848,-844.6453 257.8048,-837.9244"/>
</g>
<!-- Node12 -->
<g id="node8" class="node">
<title>Node12</title>
<g id="a_node8"><a xlink:href="classL4Re_1_1Util_1_1Counting__cap__alloc.html#a7620032a3a03d07e70b95f92776e82c2" target="_top" xlink:title="Allocate a new capability slot. ">
<polygon fill="#ffffff" stroke="#000000" points="323.5,-918 323.5,-948 431.5,-948 431.5,-918 323.5,-918"/>
<text text-anchor="start" x="331.5" y="-936" font-family="Helvetica,sans-Serif" font-size="10.00" fill="#000000">L4Re::Util::Counting</text>
<text text-anchor="middle" x="377.5" y="-925" font-family="Helvetica,sans-Serif" font-size="10.00" fill="#000000">_cap_alloc::alloc</text>
</a>
</g>
</g>
<!-- Node10&#45;&gt;Node12 -->
<g id="edge7" class="edge">
<title>Node10&#45;&gt;Node12</title>
<path fill="none" stroke="#191970" d="M256.8047,-842.9527C264.6776,-845.6315 272.4083,-849.2127 279,-854 302.6387,-871.168 292.2635,-890.6539 315,-909 319.2515,-912.4305 324.0485,-915.4103 329.0475,-917.9893"/>
<polygon fill="#191970" stroke="#191970" points="257.7799,-839.5914 247.1979,-840.1123 255.7951,-846.3041 257.7799,-839.5914"/>
</g>
<!-- Node13 -->
<g id="node9" class="node">
<title>Node13</title>
<g id="a_node9"><a xlink:href="classL4_1_1Server__object.html#a0908b0084f251057024850611e6a8763" target="_top" xlink:title="The abstract handler for client requests to the object. ">
<polygon fill="#ffffff" stroke="#000000" points="326,-869 326,-899 429,-899 429,-869 326,-869"/>
<text text-anchor="start" x="334" y="-887" font-family="Helvetica,sans-Serif" font-size="10.00" fill="#000000">L4::Server_object::</text>
<text text-anchor="middle" x="377.5" y="-876" font-family="Helvetica,sans-Serif" font-size="10.00" fill="#000000">dispatch</text>
</a>
</g>
</g>
<!-- Node10&#45;&gt;Node13 -->
<g id="edge8" class="edge">
<title>Node10&#45;&gt;Node13</title>
<path fill="none" stroke="#191970" d="M254.7324,-847.1967C262.8289,-849.4177 271.1713,-851.7459 279,-854 295.4054,-858.7235 313.2784,-864.0978 329.2411,-868.9799"/>
<polygon fill="#191970" stroke="#191970" points="255.5979,-843.805 245.0295,-844.553 253.7577,-850.5588 255.5979,-843.805"/>
</g>
<!-- Node14 -->
<g id="node10" class="node">
<title>Node14</title>
<g id="a_node10"><a xlink:href="structL4_1_1Epiface__t0.html#ae2828f65ae82aa8583b81f6935c594c9" target="_top" xlink:title="Get the (typed) capability to this object. ">
<polygon fill="#ffffff" stroke="#000000" points="315,-820 315,-850 440,-850 440,-820 315,-820"/>
<text text-anchor="start" x="323" y="-838" font-family="Helvetica,sans-Serif" font-size="10.00" fill="#000000">L4::Epiface_t0&lt; IFACE,</text>
<text text-anchor="middle" x="377.5" y="-827" font-family="Helvetica,sans-Serif" font-size="10.00" fill="#000000"> BASE &gt;::obj_cap</text>
</a>
</g>
</g>
<!-- Node10&#45;&gt;Node14 -->
<g id="edge9" class="edge">
<title>Node10&#45;&gt;Node14</title>
<path fill="none" stroke="#191970" d="M257.4512,-835C275.3779,-835 295.9609,-835 314.9626,-835"/>
<polygon fill="#191970" stroke="#191970" points="257.2353,-831.5001 247.2353,-835 257.2352,-838.5001 257.2353,-831.5001"/>
</g>
<!-- Node15 -->
<g id="node11" class="node">
<title>Node15</title>
<g id="a_node11"><a xlink:href="structL4_1_1Irqep__t.html#ae85f0bf482d9ad400c55e8d8a8c9451a" target="_top" xlink:title="Get the (typed) capability to this object. ">
<polygon fill="#ffffff" stroke="#000000" points="316.5,-771 316.5,-801 438.5,-801 438.5,-771 316.5,-771"/>
<text text-anchor="start" x="324.5" y="-789" font-family="Helvetica,sans-Serif" font-size="10.00" fill="#000000">L4::Irqep_t&lt; Irq_object</text>
<text text-anchor="middle" x="377.5" y="-778" font-family="Helvetica,sans-Serif" font-size="10.00" fill="#000000"> &gt;::obj_cap</text>
</a>
</g>
</g>
<!-- Node10&#45;&gt;Node15 -->
<g id="edge10" class="edge">
<title>Node10&#45;&gt;Node15</title>
<path fill="none" stroke="#191970" d="M254.7324,-822.8033C262.8289,-820.5823 271.1713,-818.2541 279,-816 295.4054,-811.2765 313.2784,-805.9022 329.2411,-801.0201"/>
<polygon fill="#191970" stroke="#191970" points="253.7577,-819.4412 245.0295,-825.447 255.5979,-826.195 253.7577,-819.4412"/>
</g>
<!-- Node16 -->
<g id="node12" class="node">
<title>Node16</title>
<g id="a_node12"><a xlink:href="classL4_1_1Ipc__svr_1_1Server__iface.html#ac44e716be4e47dab6b68cc91801fc7b8" target="_top" xlink:title="Get given receive buffer as typed capability. ">
<polygon fill="#ffffff" stroke="#000000" points="325.5,-722 325.5,-752 429.5,-752 429.5,-722 325.5,-722"/>
<text text-anchor="start" x="333.5" y="-740" font-family="Helvetica,sans-Serif" font-size="10.00" fill="#000000">L4::Ipc_svr::Server</text>
<text text-anchor="middle" x="377.5" y="-729" font-family="Helvetica,sans-Serif" font-size="10.00" fill="#000000">_iface::rcv_cap</text>
</a>
</g>
</g>
<!-- Node10&#45;&gt;Node16 -->
<g id="edge11" class="edge">
<title>Node10&#45;&gt;Node16</title>
<path fill="none" stroke="#191970" d="M256.771,-827.0006C264.6475,-824.3268 272.3881,-820.7595 279,-816 302.41,-799.1485 292.6013,-780.1741 315,-762 319.719,-758.171 325.0996,-754.8661 330.6784,-752.0303"/>
<polygon fill="#191970" stroke="#191970" points="255.7614,-823.6492 247.1626,-829.8389 257.7445,-830.3625 255.7614,-823.6492"/>
</g>
<!-- Node17 -->
<g id="node13" class="node">
<title>Node17</title>
<g id="a_node13"><a xlink:href="classL4virtio_1_1Svr_1_1Block__dev__base.html#aa0d0377a069419b77e4ff9c6ae08b092" target="_top" xlink:title="reset callback, called for doing a device reset ">
<polygon fill="#ffffff" stroke="#000000" points="327,-673 327,-703 428,-703 428,-673 327,-673"/>
<text text-anchor="start" x="335" y="-691" font-family="Helvetica,sans-Serif" font-size="10.00" fill="#000000">L4virtio::Svr::Block</text>
<text text-anchor="middle" x="377.5" y="-680" font-family="Helvetica,sans-Serif" font-size="10.00" fill="#000000">_dev_base::reset</text>
</a>
</g>
</g>
<!-- Node10&#45;&gt;Node17 -->
<g id="edge12" class="edge">
<title>Node10&#45;&gt;Node17</title>
<path fill="none" stroke="#191970" d="M256.8262,-828.696C264.9583,-825.859 272.7738,-821.798 279,-816 314.4887,-782.9522 281.4773,-748.0404 315,-713 318.7162,-709.1155 323.1149,-705.8199 327.8308,-703.0268"/>
<polygon fill="#191970" stroke="#191970" points="255.8338,-825.3395 247.2105,-831.4949 257.7902,-832.0606 255.8338,-825.3395"/>
</g>
<!-- Node19 -->
<g id="node15" class="node">
<title>Node19</title>
<g id="a_node15"><a xlink:href="namespaceL4.html#a60bf71a466a8c641298d4d9404102f68" target="_top" xlink:title="dynamic_cast for capabilities. ">
<polygon fill="#ffffff" stroke="#000000" points="317,-634.5 317,-653.5 438,-653.5 438,-634.5 317,-634.5"/>
<text text-anchor="middle" x="377.5" y="-641.5" font-family="Helvetica,sans-Serif" font-size="10.00" fill="#000000">L4::cap_dynamic_cast</text>
</a>
</g>
</g>
<!-- Node18&#45;&gt;Node19 -->
<g id="edge14" class="edge">
<title>Node18&#45;&gt;Node19</title>
<path fill="none" stroke="#191970" d="M274.2341,-782.0097C275.908,-780.7747 277.5029,-779.4408 279,-778 317.5894,-740.8624 276.9735,-700.7138 315,-663 318.9456,-659.0868 323.6706,-655.9755 328.732,-653.5026"/>
<polygon fill="#191970" stroke="#191970" points="272.0535,-779.2373 265.2937,-787.3954 275.6656,-785.2334 272.0535,-779.2373"/>
</g>
</g>
</svg>
