<?xml version="1.0" encoding="UTF-8" standalone="no"?>
<!DOCTYPE svg PUBLIC "-//W3C//DTD SVG 1.1//EN"
 "http://www.w3.org/Graphics/SVG/1.1/DTD/svg11.dtd">
<!-- Generated by graphviz version 2.40.1 (20161225.0304)
 -->
<!-- Title: L4::Cap_base::copy Pages: 1 -->
<svg width="271pt" height="88pt"
 viewBox="0.00 0.00 271.00 88.00" xmlns="http://www.w3.org/2000/svg" xmlns:xlink="http://www.w3.org/1999/xlink">
<g id="graph0" class="graph" transform="scale(1 1) rotate(0) translate(4 84)">
<title>L4::Cap_base::copy</title>
<polygon fill="#ffffff" stroke="transparent" points="-4,4 -4,-84 267,-84 267,4 -4,4"/>
<!-- Node43 -->
<g id="node1" class="node">
<title>Node43</title>
<polygon fill="#bfbfbf" stroke="#000000" points="0,-30 0,-49 108,-49 108,-30 0,-30"/>
<text text-anchor="middle" x="54" y="-37" font-family="Helvetica,sans-Serif" font-size="10.00" fill="#000000">L4::Cap_base::copy</text>
</g>
<!-- Node44 -->
<g id="node2" class="node">
<title>Node44</title>
<g id="a_node2"><a xlink:href="classL4_1_1Cap.html#a03750491e2cb888d26e2fbdfcc0b7dbc" target="_top" xlink:title="Copy a capability to this cap slot. ">
<polygon fill="#ffffff" stroke="#000000" points="144,-49.5 144,-79.5 263,-79.5 263,-49.5 144,-49.5"/>
<text text-anchor="start" x="152" y="-67.5" font-family="Helvetica,sans-Serif" font-size="10.00" fill="#000000">L4::Cap&lt; L4Re::Video</text>
<text text-anchor="middle" x="203.5" y="-56.5" font-family="Helvetica,sans-Serif" font-size="10.00" fill="#000000">::Goos &gt;::copy</text>
</a>
</g>
</g>
<!-- Node43&#45;&gt;Node44 -->
<g id="edge1" class="edge">
<title>Node43&#45;&gt;Node44</title>
<path fill="none" stroke="#191970" d="M118.5327,-50.2914C126.9386,-51.6971 135.5201,-53.1321 143.8413,-54.5236"/>
<polygon fill="#191970" stroke="#191970" points="118.8362,-46.7936 108.3958,-48.5963 117.6816,-53.6978 118.8362,-46.7936"/>
</g>
<!-- Node45 -->
<g id="node3" class="node">
<title>Node45</title>
<g id="a_node3"><a xlink:href="classL4_1_1Cap.html#ab183360065af90ee45b808e8c9e626aa" target="_top" xlink:title="Member access of a T. ">
<polygon fill="#ffffff" stroke="#000000" points="144,-.5 144,-30.5 263,-30.5 263,-.5 144,-.5"/>
<text text-anchor="start" x="152" y="-18.5" font-family="Helvetica,sans-Serif" font-size="10.00" fill="#000000">L4::Cap&lt; L4Re::Video</text>
<text text-anchor="middle" x="203.5" y="-7.5" font-family="Helvetica,sans-Serif" font-size="10.00" fill="#000000">::Goos &gt;::operator&#45;&gt;</text>
</a>
</g>
</g>
<!-- Node43&#45;&gt;Node45 -->
<g id="edge2" class="edge">
<title>Node43&#45;&gt;Node45</title>
<path fill="none" stroke="#191970" d="M118.5327,-29.1402C126.9386,-27.7908 135.5201,-26.4132 143.8413,-25.0773"/>
<polygon fill="#191970" stroke="#191970" points="117.7146,-25.7267 108.3958,-30.7676 118.8242,-32.6382 117.7146,-25.7267"/>
</g>
</g>
</svg>
