<?xml version="1.0" encoding="UTF-8" standalone="no"?>
<!DOCTYPE svg PUBLIC "-//W3C//DTD SVG 1.1//EN"
 "http://www.w3.org/Graphics/SVG/1.1/DTD/svg11.dtd">
<!-- Generated by graphviz version 2.40.1 (20161225.0304)
 -->
<!-- Title: L4::Thread::vcpu_control_ext Pages: 1 -->
<svg width="324pt" height="78pt"
 viewBox="0.00 0.00 324.00 77.50" xmlns="http://www.w3.org/2000/svg" xmlns:xlink="http://www.w3.org/1999/xlink">
<g id="graph0" class="graph" transform="scale(1 1) rotate(0) translate(4 73.5)">
<title>L4::Thread::vcpu_control_ext</title>
<polygon fill="#ffffff" stroke="transparent" points="-4,4 -4,-73.5 320,-73.5 320,4 -4,4"/>
<!-- Node31 -->
<g id="node1" class="node">
<title>Node31</title>
<polygon fill="#bfbfbf" stroke="#000000" points="0,-28 0,-47 152,-47 152,-28 0,-28"/>
<text text-anchor="middle" x="76" y="-35" font-family="Helvetica,sans-Serif" font-size="10.00" fill="#000000">L4::Thread::vcpu_control_ext</text>
</g>
<!-- Node32 -->
<g id="node2" class="node">
<title>Node32</title>
<g id="a_node2"><a xlink:href="classL4_1_1Kobject.html#a4f2117ae76762f4084e6a1adb915863c" target="_top" xlink:title="Return capability selector. ">
<polygon fill="#ffffff" stroke="#000000" points="207.5,-50 207.5,-69 296.5,-69 296.5,-50 207.5,-50"/>
<text text-anchor="middle" x="252" y="-57" font-family="Helvetica,sans-Serif" font-size="10.00" fill="#000000">L4::Kobject::cap</text>
</a>
</g>
</g>
<!-- Node31&#45;&gt;Node32 -->
<g id="edge1" class="edge">
<title>Node31&#45;&gt;Node32</title>
<path fill="none" stroke="#191970" d="M152.1725,-47.0216C167.2735,-48.9092 182.8478,-50.856 197.0728,-52.6341"/>
<polygon fill="#191970" stroke="#191970" points="196.8093,-56.1283 207.1662,-53.8958 197.6776,-49.1824 196.8093,-56.1283"/>
</g>
<!-- Node33 -->
<g id="node3" class="node">
<title>Node33</title>
<g id="a_node3"><a xlink:href="group__l4__thread__api.html#ga1015c5500bcfeaa01d209ee116cf57ec" target="_top" xlink:title="Enable or disable the extended vCPU feature for the thread. ">
<polygon fill="#ffffff" stroke="#000000" points="188,-.5 188,-30.5 316,-30.5 316,-.5 188,-.5"/>
<text text-anchor="start" x="196" y="-18.5" font-family="Helvetica,sans-Serif" font-size="10.00" fill="#000000">l4_thread_vcpu_control</text>
<text text-anchor="middle" x="252" y="-7.5" font-family="Helvetica,sans-Serif" font-size="10.00" fill="#000000">_ext_u</text>
</a>
</g>
</g>
<!-- Node31&#45;&gt;Node33 -->
<g id="edge2" class="edge">
<title>Node31&#45;&gt;Node33</title>
<path fill="none" stroke="#191970" d="M152.1725,-27.9784C160.6267,-26.9217 169.2291,-25.8464 177.6601,-24.7925"/>
<polygon fill="#191970" stroke="#191970" points="178.3489,-28.2337 187.8375,-23.5203 177.4806,-21.2878 178.3489,-28.2337"/>
</g>
</g>
</svg>
