<?xml version="1.0" encoding="UTF-8" standalone="no"?>
<!DOCTYPE svg PUBLIC "-//W3C//DTD SVG 1.1//EN"
 "http://www.w3.org/Graphics/SVG/1.1/DTD/svg11.dtd">
<!-- Generated by graphviz version 2.40.1 (20161225.0304)
 -->
<!-- Title: L4::Ipc::Istream::get Pages: 1 -->
<svg width="249pt" height="78pt"
 viewBox="0.00 0.00 249.00 77.50" xmlns="http://www.w3.org/2000/svg" xmlns:xlink="http://www.w3.org/1999/xlink">
<g id="graph0" class="graph" transform="scale(1 1) rotate(0) translate(4 73.5)">
<title>L4::Ipc::Istream::get</title>
<polygon fill="#ffffff" stroke="transparent" points="-4,4 -4,-73.5 245,-73.5 245,4 -4,4"/>
<!-- Node3 -->
<g id="node1" class="node">
<title>Node3</title>
<polygon fill="#bfbfbf" stroke="#000000" points="0,-28 0,-47 107,-47 107,-28 0,-28"/>
<text text-anchor="middle" x="53.5" y="-35" font-family="Helvetica,sans-Serif" font-size="10.00" fill="#000000">L4::Ipc::Istream::get</text>
</g>
<!-- Node4 -->
<g id="node2" class="node">
<title>Node4</title>
<g id="a_node2"><a xlink:href="ipc__stream.html#a4a9b955c1207f1d1e71fd57fac767072" target="_top" xlink:title="Extract one element of type T from the stream s. ">
<polygon fill="#ffffff" stroke="#000000" points="157.5,-50 157.5,-69 226.5,-69 226.5,-50 157.5,-50"/>
<text text-anchor="middle" x="192" y="-57" font-family="Helvetica,sans-Serif" font-size="10.00" fill="#000000">operator&gt;&gt;</text>
</a>
</g>
</g>
<!-- Node3&#45;&gt;Node4 -->
<g id="edge1" class="edge">
<title>Node3&#45;&gt;Node4</title>
<path fill="none" stroke="#191970" d="M117.0679,-47.5974C130.9475,-49.8021 145.1337,-52.0555 157.3758,-54.0001"/>
<polygon fill="#191970" stroke="#191970" points="117.473,-44.118 107.0477,-46.0058 116.3748,-51.0313 117.473,-44.118"/>
</g>
<!-- Node5 -->
<g id="node3" class="node">
<title>Node5</title>
<g id="a_node3"><a xlink:href="classL4_1_1Ipc_1_1Iostream.html#a1015a0966b9faef7e344530b1eb6e13a" target="_top" xlink:title="Reset the stream to its initial state. ">
<polygon fill="#ffffff" stroke="#000000" points="143,-.5 143,-30.5 241,-30.5 241,-.5 143,-.5"/>
<text text-anchor="start" x="151" y="-18.5" font-family="Helvetica,sans-Serif" font-size="10.00" fill="#000000">L4::Ipc::Iostream::</text>
<text text-anchor="middle" x="192" y="-7.5" font-family="Helvetica,sans-Serif" font-size="10.00" fill="#000000">reset</text>
</a>
</g>
</g>
<!-- Node3&#45;&gt;Node5 -->
<g id="edge2" class="edge">
<title>Node3&#45;&gt;Node5</title>
<path fill="none" stroke="#191970" d="M117.057,-27.4043C125.6568,-26.0383 134.3746,-24.6535 142.6749,-23.335"/>
<polygon fill="#191970" stroke="#191970" points="116.3748,-23.9687 107.0477,-28.9942 117.473,-30.882 116.3748,-23.9687"/>
</g>
</g>
</svg>
