<?xml version="1.0" encoding="UTF-8" standalone="no"?>
<!DOCTYPE svg PUBLIC "-//W3C//DTD SVG 1.1//EN"
 "http://www.w3.org/Graphics/SVG/1.1/DTD/svg11.dtd">
<!-- Generated by graphviz version 2.40.1 (20161225.0304)
 -->
<!-- Title: L4vbus::Gpio_module Pages: 1 -->
<svg width="127pt" height="570pt"
 viewBox="0.00 0.00 127.00 570.00" xmlns="http://www.w3.org/2000/svg" xmlns:xlink="http://www.w3.org/1999/xlink">
<g id="graph0" class="graph" transform="scale(1 1) rotate(0) translate(4 566)">
<title>L4vbus::Gpio_module</title>
<polygon fill="#ffffff" stroke="transparent" points="-4,4 -4,-566 123,-566 123,4 -4,4"/>
<!-- Node0 -->
<g id="node1" class="node">
<title>Node0</title>
<polygon fill="#bfbfbf" stroke="#000000" points="1.5,-.5 1.5,-123.5 117.5,-123.5 117.5,-.5 1.5,-.5"/>
<text text-anchor="middle" x="59.5" y="-111.5" font-family="Helvetica,sans-Serif" font-size="10.00" fill="#000000">L4vbus::Gpio_module</text>
<polyline fill="none" stroke="#000000" points="1.5,-104.5 117.5,-104.5 "/>
<text text-anchor="middle" x="59.5" y="-92.5" font-family="Helvetica,sans-Serif" font-size="10.00" fill="#000000"> </text>
<polyline fill="none" stroke="#000000" points="1.5,-85.5 117.5,-85.5 "/>
<text text-anchor="start" x="9.5" y="-73.5" font-family="Helvetica,sans-Serif" font-size="10.00" fill="#000000">+ Gpio_module()</text>
<text text-anchor="start" x="9.5" y="-62.5" font-family="Helvetica,sans-Serif" font-size="10.00" fill="#000000">+ setup()</text>
<text text-anchor="start" x="9.5" y="-51.5" font-family="Helvetica,sans-Serif" font-size="10.00" fill="#000000">+ config_pad()</text>
<text text-anchor="start" x="9.5" y="-40.5" font-family="Helvetica,sans-Serif" font-size="10.00" fill="#000000">+ get()</text>
<text text-anchor="start" x="9.5" y="-29.5" font-family="Helvetica,sans-Serif" font-size="10.00" fill="#000000">+ set()</text>
<text text-anchor="start" x="9.5" y="-18.5" font-family="Helvetica,sans-Serif" font-size="10.00" fill="#000000">+ pin()</text>
<text text-anchor="start" x="9.5" y="-7.5" font-family="Helvetica,sans-Serif" font-size="10.00" fill="#000000"># Gpio_module()</text>
</g>
<!-- Node1 -->
<g id="node2" class="node">
<title>Node1</title>
<g id="a_node2"><a xlink:href="classL4vbus_1_1Device.html" target="_top" xlink:title="Device on a L4vbus::Vbus. ">
<polygon fill="#ffffff" stroke="#000000" points="9,-161.5 9,-339.5 110,-339.5 110,-161.5 9,-161.5"/>
<text text-anchor="middle" x="59.5" y="-327.5" font-family="Helvetica,sans-Serif" font-size="10.00" fill="#000000">L4vbus::Device</text>
<polyline fill="none" stroke="#000000" points="9,-320.5 110,-320.5 "/>
<text text-anchor="start" x="17" y="-308.5" font-family="Helvetica,sans-Serif" font-size="10.00" fill="#000000"># _bus</text>
<text text-anchor="start" x="17" y="-297.5" font-family="Helvetica,sans-Serif" font-size="10.00" fill="#000000"># _dev</text>
<polyline fill="none" stroke="#000000" points="9,-290.5 110,-290.5 "/>
<text text-anchor="start" x="17" y="-278.5" font-family="Helvetica,sans-Serif" font-size="10.00" fill="#000000">+ Device()</text>
<text text-anchor="start" x="17" y="-267.5" font-family="Helvetica,sans-Serif" font-size="10.00" fill="#000000">+ Device()</text>
<text text-anchor="start" x="17" y="-256.5" font-family="Helvetica,sans-Serif" font-size="10.00" fill="#000000">+ bus_cap()</text>
<text text-anchor="start" x="17" y="-245.5" font-family="Helvetica,sans-Serif" font-size="10.00" fill="#000000">+ dev_handle()</text>
<text text-anchor="start" x="17" y="-234.5" font-family="Helvetica,sans-Serif" font-size="10.00" fill="#000000">+ device_by_hid()</text>
<text text-anchor="start" x="17" y="-223.5" font-family="Helvetica,sans-Serif" font-size="10.00" fill="#000000">+ next_device()</text>
<text text-anchor="start" x="17" y="-212.5" font-family="Helvetica,sans-Serif" font-size="10.00" fill="#000000">+ device()</text>
<text text-anchor="start" x="17" y="-201.5" font-family="Helvetica,sans-Serif" font-size="10.00" fill="#000000">+ get_resource()</text>
<text text-anchor="start" x="17" y="-190.5" font-family="Helvetica,sans-Serif" font-size="10.00" fill="#000000">+ is_compatible()</text>
<text text-anchor="start" x="17" y="-179.5" font-family="Helvetica,sans-Serif" font-size="10.00" fill="#000000">+ operator==()</text>
<text text-anchor="start" x="17" y="-168.5" font-family="Helvetica,sans-Serif" font-size="10.00" fill="#000000">+ operator!=()</text>
</a>
</g>
</g>
<!-- Node1&#45;&gt;Node0 -->
<g id="edge1" class="edge">
<title>Node1&#45;&gt;Node0</title>
<path fill="none" stroke="#191970" d="M59.5,-151.3054C59.5,-141.9234 59.5,-132.6068 59.5,-123.7291"/>
<polygon fill="none" stroke="#191970" points="56.0001,-151.4939 59.5,-161.4939 63.0001,-151.494 56.0001,-151.4939"/>
</g>
<!-- Node2 -->
<g id="node3" class="node">
<title>Node2</title>
<g id="a_node3"><a xlink:href="classL4vbus_1_1Pm.html" target="_top" xlink:title="{L4vbus::Pm\&lt; Device \&gt;\n||+ pm_suspend()\l+ pm_resume()\l}">
<polygon fill="#ffffff" stroke="#000000" points="0,-377.5 0,-445.5 119,-445.5 119,-377.5 0,-377.5"/>
<text text-anchor="middle" x="59.5" y="-433.5" font-family="Helvetica,sans-Serif" font-size="10.00" fill="#000000">L4vbus::Pm&lt; Device &gt;</text>
<polyline fill="none" stroke="#000000" points="0,-426.5 119,-426.5 "/>
<text text-anchor="middle" x="59.5" y="-414.5" font-family="Helvetica,sans-Serif" font-size="10.00" fill="#000000"> </text>
<polyline fill="none" stroke="#000000" points="0,-407.5 119,-407.5 "/>
<text text-anchor="start" x="8" y="-395.5" font-family="Helvetica,sans-Serif" font-size="10.00" fill="#000000">+ pm_suspend()</text>
<text text-anchor="start" x="8" y="-384.5" font-family="Helvetica,sans-Serif" font-size="10.00" fill="#000000">+ pm_resume()</text>
</a>
</g>
</g>
<!-- Node2&#45;&gt;Node1 -->
<g id="edge2" class="edge">
<title>Node2&#45;&gt;Node1</title>
<path fill="none" stroke="#191970" d="M59.5,-367.1668C59.5,-358.4962 59.5,-349.1188 59.5,-339.5789"/>
<polygon fill="none" stroke="#191970" points="56.0001,-367.356 59.5,-377.356 63.0001,-367.3561 56.0001,-367.356"/>
</g>
<!-- Node3 -->
<g id="node4" class="node">
<title>Node3</title>
<g id="a_node4"><a xlink:href="classL4vbus_1_1Pm.html" target="_top" xlink:title="Power&#45;management API mixin. ">
<polygon fill="#ffffff" stroke="#000000" points="5,-493.5 5,-561.5 114,-561.5 114,-493.5 5,-493.5"/>
<text text-anchor="middle" x="59.5" y="-549.5" font-family="Helvetica,sans-Serif" font-size="10.00" fill="#000000">L4vbus::Pm&lt; DEC &gt;</text>
<polyline fill="none" stroke="#000000" points="5,-542.5 114,-542.5 "/>
<text text-anchor="middle" x="59.5" y="-530.5" font-family="Helvetica,sans-Serif" font-size="10.00" fill="#000000"> </text>
<polyline fill="none" stroke="#000000" points="5,-523.5 114,-523.5 "/>
<text text-anchor="start" x="13" y="-511.5" font-family="Helvetica,sans-Serif" font-size="10.00" fill="#000000">+ pm_suspend()</text>
<text text-anchor="start" x="13" y="-500.5" font-family="Helvetica,sans-Serif" font-size="10.00" fill="#000000">+ pm_resume()</text>
</a>
</g>
</g>
<!-- Node3&#45;&gt;Node2 -->
<g id="edge3" class="edge">
<title>Node3&#45;&gt;Node2</title>
<path fill="none" stroke="#ffa500" d="M59.5,-483.1851C59.5,-470.8048 59.5,-457.5422 59.5,-445.833"/>
<polygon fill="#ffa500" stroke="#ffa500" points="56.0001,-483.3235 59.5,-493.3236 63.0001,-483.3236 56.0001,-483.3235"/>
<text text-anchor="middle" x="86.5" y="-467" font-family="Helvetica,sans-Serif" font-size="10.00" fill="#000000"> &lt; Device &gt;</text>
</g>
</g>
</svg>
