<?xml version="1.0" encoding="UTF-8" standalone="no"?>
<!DOCTYPE svg PUBLIC "-//W3C//DTD SVG 1.1//EN"
 "http://www.w3.org/Graphics/SVG/1.1/DTD/svg11.dtd">
<!-- Generated by graphviz version 2.40.1 (20161225.0304)
 -->
<!-- Title: L4Re::Util::Object_registry::unregister_obj Pages: 1 -->
<svg width="564pt" height="292pt"
 viewBox="0.00 0.00 564.00 291.50" xmlns="http://www.w3.org/2000/svg" xmlns:xlink="http://www.w3.org/1999/xlink">
<g id="graph0" class="graph" transform="scale(1 1) rotate(0) translate(4 287.5)">
<title>L4Re::Util::Object_registry::unregister_obj</title>
<polygon fill="#ffffff" stroke="transparent" points="-4,4 -4,-287.5 560,-287.5 560,4 -4,4"/>
<!-- Node14 -->
<g id="node1" class="node">
<title>Node14</title>
<polygon fill="#bfbfbf" stroke="#000000" points="0,-155 0,-185 129,-185 129,-155 0,-155"/>
<text text-anchor="start" x="8" y="-173" font-family="Helvetica,sans-Serif" font-size="10.00" fill="#000000">L4Re::Util::Object</text>
<text text-anchor="middle" x="64.5" y="-162" font-family="Helvetica,sans-Serif" font-size="10.00" fill="#000000">_registry::unregister_obj</text>
</g>
<!-- Node15 -->
<g id="node2" class="node">
<title>Node15</title>
<g id="a_node2"><a xlink:href="classL4_1_1Thread_1_1Modify__senders.html#ae36dad061d7d4ef1469780b4c74ce7de" target="_top" xlink:title="Add a rule. ">
<polygon fill="#ffffff" stroke="#000000" points="174.5,-253 174.5,-283 278.5,-283 278.5,-253 174.5,-253"/>
<text text-anchor="start" x="182.5" y="-271" font-family="Helvetica,sans-Serif" font-size="10.00" fill="#000000">L4::Thread::Modify</text>
<text text-anchor="middle" x="226.5" y="-260" font-family="Helvetica,sans-Serif" font-size="10.00" fill="#000000">_senders::add</text>
</a>
</g>
</g>
<!-- Node14&#45;&gt;Node15 -->
<g id="edge1" class="edge">
<title>Node14&#45;&gt;Node15</title>
<path fill="none" stroke="#191970" d="M82.0496,-185.1607C101.3823,-201.3099 133.8731,-226.8585 165,-244 168.0025,-245.6534 171.1427,-247.2481 174.3476,-248.7752"/>
<polygon fill="#191970" stroke="#191970" points="172.9348,-251.9774 183.4901,-252.8924 175.8092,-245.5948 172.9348,-251.9774"/>
</g>
<!-- Node16 -->
<g id="node3" class="node">
<title>Node16</title>
<g id="a_node3"><a xlink:href="classL4Re_1_1Util_1_1Counting__cap__alloc.html#a4f65c951a2cc3aae899c67e1ef325a8a" target="_top" xlink:title="Free the capability. ">
<polygon fill="#ffffff" stroke="#000000" points="172.5,-204 172.5,-234 280.5,-234 280.5,-204 172.5,-204"/>
<text text-anchor="start" x="180.5" y="-222" font-family="Helvetica,sans-Serif" font-size="10.00" fill="#000000">L4Re::Util::Counting</text>
<text text-anchor="middle" x="226.5" y="-211" font-family="Helvetica,sans-Serif" font-size="10.00" fill="#000000">_cap_alloc::free</text>
</a>
</g>
</g>
<!-- Node14&#45;&gt;Node16 -->
<g id="edge2" class="edge">
<title>Node14&#45;&gt;Node16</title>
<path fill="none" stroke="#191970" d="M114.4272,-185.1014C130.9805,-190.1083 149.5746,-195.7324 166.788,-200.939"/>
<polygon fill="#191970" stroke="#191970" points="166.1526,-204.4033 176.7376,-203.9484 168.1792,-197.7031 166.1526,-204.4033"/>
</g>
<!-- Node19 -->
<g id="node6" class="node">
<title>Node19</title>
<g id="a_node6"><a xlink:href="classL4_1_1Thread.html#a9bcade7e8db8d775cc1f2a2a6225c845" target="_top" xlink:title="Apply sender modification rules. ">
<polygon fill="#ffffff" stroke="#000000" points="175,-155 175,-185 278,-185 278,-155 175,-155"/>
<text text-anchor="start" x="183" y="-173" font-family="Helvetica,sans-Serif" font-size="10.00" fill="#000000">L4::Thread::modify</text>
<text text-anchor="middle" x="226.5" y="-162" font-family="Helvetica,sans-Serif" font-size="10.00" fill="#000000">_senders</text>
</a>
</g>
</g>
<!-- Node14&#45;&gt;Node19 -->
<g id="edge5" class="edge">
<title>Node14&#45;&gt;Node19</title>
<path fill="none" stroke="#191970" d="M129.4582,-170C141.1685,-170 153.3447,-170 164.9543,-170"/>
<polygon fill="#191970" stroke="#191970" points="164.9848,-173.5001 174.9848,-170 164.9848,-166.5001 164.9848,-173.5001"/>
</g>
<!-- Node28 -->
<g id="node15" class="node">
<title>Node28</title>
<g id="a_node15"><a xlink:href="structL4_1_1Epiface.html#a0d454b9446bdf9e317b09574a5155fe0" target="_top" xlink:title="Get the capability to the kernel object belonging to this object. ">
<polygon fill="#ffffff" stroke="#000000" points="171.5,-116.5 171.5,-135.5 281.5,-135.5 281.5,-116.5 171.5,-116.5"/>
<text text-anchor="middle" x="226.5" y="-123.5" font-family="Helvetica,sans-Serif" font-size="10.00" fill="#000000">L4::Epiface::obj_cap</text>
</a>
</g>
</g>
<!-- Node14&#45;&gt;Node28 -->
<g id="edge14" class="edge">
<title>Node14&#45;&gt;Node28</title>
<path fill="none" stroke="#191970" d="M119.7981,-154.9808C139.9362,-149.5112 162.4389,-143.3993 181.5687,-138.2036"/>
<polygon fill="#191970" stroke="#191970" points="182.5015,-141.5771 191.2345,-135.5783 180.6667,-134.8218 182.5015,-141.5771"/>
</g>
<!-- Node29 -->
<g id="node16" class="node">
<title>Node29</title>
<g id="a_node16"><a xlink:href="structL4_1_1Epiface.html#af47d6b2877fa4a09e04140a6644631aa" target="_top" xlink:title="Set server registration info for the object. ">
<polygon fill="#ffffff" stroke="#000000" points="165,-78.5 165,-97.5 288,-97.5 288,-78.5 165,-78.5"/>
<text text-anchor="middle" x="226.5" y="-85.5" font-family="Helvetica,sans-Serif" font-size="10.00" fill="#000000">L4::Epiface::set_server</text>
</a>
</g>
</g>
<!-- Node14&#45;&gt;Node29 -->
<g id="edge15" class="edge">
<title>Node14&#45;&gt;Node29</title>
<path fill="none" stroke="#191970" d="M85.1567,-154.7986C104.8657,-140.8519 135.797,-120.3857 165,-107 169.9524,-104.73 175.2488,-102.6355 180.5786,-100.7321"/>
<polygon fill="#191970" stroke="#191970" points="181.779,-104.0211 190.1413,-97.5155 179.5473,-97.3864 181.779,-104.0211"/>
</g>
<!-- Node17 -->
<g id="node4" class="node">
<title>Node17</title>
<g id="a_node4"><a xlink:href="group__l4__cap__api.html#ga539da15c2a1be4803ed7a3f3a5742194" target="_top" xlink:title="Test if a capability selector is a valid selector. ">
<polygon fill="#ffffff" stroke="#000000" points="324,-247.5 324,-266.5 413,-266.5 413,-247.5 324,-247.5"/>
<text text-anchor="middle" x="368.5" y="-254.5" font-family="Helvetica,sans-Serif" font-size="10.00" fill="#000000">l4_is_valid_cap</text>
</a>
</g>
</g>
<!-- Node16&#45;&gt;Node17 -->
<g id="edge3" class="edge">
<title>Node16&#45;&gt;Node17</title>
<path fill="none" stroke="#191970" d="M280.5892,-233.4746C294.4546,-237.185 309.2336,-241.14 322.6396,-244.7275"/>
<polygon fill="#191970" stroke="#191970" points="322.0208,-248.185 332.5857,-247.3891 323.8304,-241.4229 322.0208,-248.185"/>
</g>
<!-- Node18 -->
<g id="node5" class="node">
<title>Node18</title>
<g id="a_node5"><a xlink:href="group__l4__task__api.html#gaa5558855716b35c1790b61249cf2974b" target="_top" xlink:title="Revoke rights from the task. ">
<polygon fill="#ffffff" stroke="#000000" points="324.5,-209.5 324.5,-228.5 412.5,-228.5 412.5,-209.5 324.5,-209.5"/>
<text text-anchor="middle" x="368.5" y="-216.5" font-family="Helvetica,sans-Serif" font-size="10.00" fill="#000000">l4_task_unmap</text>
</a>
</g>
</g>
<!-- Node16&#45;&gt;Node18 -->
<g id="edge4" class="edge">
<title>Node16&#45;&gt;Node18</title>
<path fill="none" stroke="#191970" d="M280.5892,-219C291.5179,-219 303.0142,-219 313.9584,-219"/>
<polygon fill="#191970" stroke="#191970" points="314.2455,-222.5001 324.2455,-219 314.2455,-215.5001 314.2455,-222.5001"/>
</g>
<!-- Node20 -->
<g id="node7" class="node">
<title>Node20</title>
<g id="a_node7"><a xlink:href="classL4_1_1Kobject.html#a4f2117ae76762f4084e6a1adb915863c" target="_top" xlink:title="Return capability selector. ">
<polygon fill="#ffffff" stroke="#000000" points="324,-171.5 324,-190.5 413,-190.5 413,-171.5 324,-171.5"/>
<text text-anchor="middle" x="368.5" y="-178.5" font-family="Helvetica,sans-Serif" font-size="10.00" fill="#000000">L4::Kobject::cap</text>
</a>
</g>
</g>
<!-- Node19&#45;&gt;Node20 -->
<g id="edge6" class="edge">
<title>Node19&#45;&gt;Node20</title>
<path fill="none" stroke="#191970" d="M278.167,-174.0024C289.6976,-174.8956 301.9646,-175.8459 313.6198,-176.7487"/>
<polygon fill="#191970" stroke="#191970" points="313.4304,-180.2444 323.6708,-177.5273 313.9711,-173.2653 313.4304,-180.2444"/>
</g>
<!-- Node21 -->
<g id="node8" class="node">
<title>Node21</title>
<g id="a_node8"><a xlink:href="group__l4__ipc__api.html#gab96d1669dcd54657237ee27b7f6862c6" target="_top" xlink:title="Object call (usual invocation). ">
<polygon fill="#ffffff" stroke="#000000" points="335.5,-133.5 335.5,-152.5 401.5,-152.5 401.5,-133.5 335.5,-133.5"/>
<text text-anchor="middle" x="368.5" y="-140.5" font-family="Helvetica,sans-Serif" font-size="10.00" fill="#000000">l4_ipc_call</text>
</a>
</g>
</g>
<!-- Node19&#45;&gt;Node21 -->
<g id="edge7" class="edge">
<title>Node19&#45;&gt;Node21</title>
<path fill="none" stroke="#191970" d="M278.167,-160.176C293.6303,-157.2358 310.4181,-154.0437 325.2785,-151.2182"/>
<polygon fill="#191970" stroke="#191970" points="326.0483,-154.6346 335.2185,-149.3282 324.7407,-147.7578 326.0483,-154.6346"/>
</g>
<!-- Node23 -->
<g id="node10" class="node">
<title>Node23</title>
<g id="a_node10"><a xlink:href="group__l4__msgtag__api.html#ga661d71acad9d096fa990f7c94943bc78" target="_top" xlink:title="Create a message tag from the specified values. ">
<polygon fill="#ffffff" stroke="#000000" points="336,-76.5 336,-95.5 401,-95.5 401,-76.5 336,-76.5"/>
<text text-anchor="middle" x="368.5" y="-83.5" font-family="Helvetica,sans-Serif" font-size="10.00" fill="#000000">l4_msgtag</text>
</a>
</g>
</g>
<!-- Node19&#45;&gt;Node23 -->
<g id="edge9" class="edge">
<title>Node19&#45;&gt;Node23</title>
<path fill="none" stroke="#191970" d="M267.5228,-154.9752C274.4959,-151.9571 281.5598,-148.5964 288,-145 310.3381,-132.5258 333.6883,-114.8134 349.4517,-102.0553"/>
<polygon fill="#191970" stroke="#191970" points="351.8723,-104.5963 357.374,-95.5419 347.4267,-99.1891 351.8723,-104.5963"/>
</g>
<!-- Node22 -->
<g id="node9" class="node">
<title>Node22</title>
<g id="a_node9"><a xlink:href="group__l4__ipc__api.html#ga0e7e5b18d784b1d3439ea6e5b4bea4e2" target="_top" xlink:title="Generic L4 object invocation. ">
<polygon fill="#ffffff" stroke="#000000" points="480.5,-152.5 480.5,-171.5 524.5,-171.5 524.5,-152.5 480.5,-152.5"/>
<text text-anchor="middle" x="502.5" y="-159.5" font-family="Helvetica,sans-Serif" font-size="10.00" fill="#000000">l4_ipc</text>
</a>
</g>
</g>
<!-- Node21&#45;&gt;Node22 -->
<g id="edge8" class="edge">
<title>Node21&#45;&gt;Node22</title>
<path fill="none" stroke="#191970" d="M401.6236,-147.6966C422.5747,-150.6673 449.5232,-154.4884 470.2955,-157.4337"/>
<polygon fill="#191970" stroke="#191970" points="469.844,-160.9046 480.2363,-158.8432 470.8267,-153.9739 469.844,-160.9046"/>
</g>
<!-- Node24 -->
<g id="node11" class="node">
<title>Node24</title>
<g id="a_node11"><a xlink:href="structl4__msgtag__t.html#af6b9564a9a16427cec0e81a4628996b8" target="_top" xlink:title="Get the flags value. ">
<polygon fill="#ffffff" stroke="#000000" points="452,-114.5 452,-133.5 553,-133.5 553,-114.5 452,-114.5"/>
<text text-anchor="middle" x="502.5" y="-121.5" font-family="Helvetica,sans-Serif" font-size="10.00" fill="#000000">l4_msgtag_t::flags</text>
</a>
</g>
</g>
<!-- Node23&#45;&gt;Node24 -->
<g id="edge10" class="edge">
<title>Node23&#45;&gt;Node24</title>
<path fill="none" stroke="#191970" d="M401.2801,-95.2958C418.619,-100.2128 440.1375,-106.3151 458.8697,-111.6272"/>
<polygon fill="#191970" stroke="#191970" points="458.0835,-115.0422 468.6591,-114.4033 459.9934,-108.3078 458.0835,-115.0422"/>
</g>
<!-- Node25 -->
<g id="node12" class="node">
<title>Node25</title>
<g id="a_node12"><a xlink:href="structl4__msgtag__t.html#ad014e4a9f4509b068ddda678f6f8d568" target="_top" xlink:title="Get the number of typed items. ">
<polygon fill="#ffffff" stroke="#000000" points="450.5,-76.5 450.5,-95.5 554.5,-95.5 554.5,-76.5 450.5,-76.5"/>
<text text-anchor="middle" x="502.5" y="-83.5" font-family="Helvetica,sans-Serif" font-size="10.00" fill="#000000">l4_msgtag_t::items</text>
</a>
</g>
</g>
<!-- Node23&#45;&gt;Node25 -->
<g id="edge11" class="edge">
<title>Node23&#45;&gt;Node25</title>
<path fill="none" stroke="#191970" d="M401.2801,-86C413.073,-86 426.7994,-86 440.2675,-86"/>
<polygon fill="#191970" stroke="#191970" points="440.4801,-89.5001 450.4801,-86 440.48,-82.5001 440.4801,-89.5001"/>
</g>
<!-- Node26 -->
<g id="node13" class="node">
<title>Node26</title>
<g id="a_node13"><a xlink:href="structl4__msgtag__t.html#a002076380a3f6e4f29a1f6b50ce2bde2" target="_top" xlink:title="Get the protocol value. ">
<polygon fill="#ffffff" stroke="#000000" points="452,-38.5 452,-57.5 553,-57.5 553,-38.5 452,-38.5"/>
<text text-anchor="middle" x="502.5" y="-45.5" font-family="Helvetica,sans-Serif" font-size="10.00" fill="#000000">l4_msgtag_t::label</text>
</a>
</g>
</g>
<!-- Node23&#45;&gt;Node26 -->
<g id="edge12" class="edge">
<title>Node23&#45;&gt;Node26</title>
<path fill="none" stroke="#191970" d="M401.2801,-76.7042C418.619,-71.7872 440.1375,-65.6849 458.8697,-60.3728"/>
<polygon fill="#191970" stroke="#191970" points="459.9934,-63.6922 468.6591,-57.5967 458.0835,-56.9578 459.9934,-63.6922"/>
</g>
<!-- Node27 -->
<g id="node14" class="node">
<title>Node27</title>
<g id="a_node14"><a xlink:href="structl4__msgtag__t.html#a98577ea730d9abcd938b89d5c7adb18c" target="_top" xlink:title="Get the number of untyped words. ">
<polygon fill="#ffffff" stroke="#000000" points="449,-.5 449,-19.5 556,-19.5 556,-.5 449,-.5"/>
<text text-anchor="middle" x="502.5" y="-7.5" font-family="Helvetica,sans-Serif" font-size="10.00" fill="#000000">l4_msgtag_t::words</text>
</a>
</g>
</g>
<!-- Node23&#45;&gt;Node27 -->
<g id="edge13" class="edge">
<title>Node23&#45;&gt;Node27</title>
<path fill="none" stroke="#191970" d="M379.8463,-76.4264C394.8681,-64.125 422.5525,-42.7247 449,-29 452.9957,-26.9265 457.2685,-24.9881 461.5924,-23.2026"/>
<polygon fill="#191970" stroke="#191970" points="462.9871,-26.4159 471.0519,-19.5449 460.4626,-19.8869 462.9871,-26.4159"/>
</g>
</g>
</svg>
