<?xml version="1.0" encoding="UTF-8" standalone="no"?>
<!DOCTYPE svg PUBLIC "-//W3C//DTD SVG 1.1//EN"
 "http://www.w3.org/Graphics/SVG/1.1/DTD/svg11.dtd">
<!-- Generated by graphviz version 2.40.1 (20161225.0304)
 -->
<!-- Title: L4::Registry_iface::register_irq_obj Pages: 1 -->
<svg width="246pt" height="100pt"
 viewBox="0.00 0.00 246.00 99.50" xmlns="http://www.w3.org/2000/svg" xmlns:xlink="http://www.w3.org/1999/xlink">
<g id="graph0" class="graph" transform="scale(1 1) rotate(0) translate(4 95.5)">
<title>L4::Registry_iface::register_irq_obj</title>
<polygon fill="#ffffff" stroke="transparent" points="-4,4 -4,-95.5 242,-95.5 242,4 -4,4"/>
<!-- Node1 -->
<g id="node1" class="node">
<title>Node1</title>
<polygon fill="#bfbfbf" stroke="#000000" points="0,-27.5 0,-57.5 101,-57.5 101,-27.5 0,-27.5"/>
<text text-anchor="start" x="8" y="-45.5" font-family="Helvetica,sans-Serif" font-size="10.00" fill="#000000">L4::Registry_iface</text>
<text text-anchor="middle" x="50.5" y="-34.5" font-family="Helvetica,sans-Serif" font-size="10.00" fill="#000000">::register_irq_obj</text>
</g>
<!-- Node2 -->
<g id="node2" class="node">
<title>Node2</title>
<g id="a_node2"><a xlink:href="classL4Re_1_1Util_1_1Object__registry.html#a9093b28711f4feb8e0eeea66d718dfd7" target="_top" xlink:title="Register a handler for an interrupt. ">
<polygon fill="#ffffff" stroke="#000000" points="138.5,-50 138.5,-91 236.5,-91 236.5,-50 138.5,-50"/>
<text text-anchor="start" x="146.5" y="-79" font-family="Helvetica,sans-Serif" font-size="10.00" fill="#000000">L4Re::Util::Object</text>
<text text-anchor="start" x="146.5" y="-68" font-family="Helvetica,sans-Serif" font-size="10.00" fill="#000000">_registry::register</text>
<text text-anchor="middle" x="187.5" y="-57" font-family="Helvetica,sans-Serif" font-size="10.00" fill="#000000">_irq_obj</text>
</a>
</g>
</g>
<!-- Node1&#45;&gt;Node2 -->
<g id="edge1" class="edge">
<title>Node1&#45;&gt;Node2</title>
<path fill="none" stroke="#191970" d="M110.9831,-54.8615C120.1684,-56.7388 129.5487,-58.6559 138.451,-60.4754"/>
<polygon fill="#191970" stroke="#191970" points="111.6228,-51.42 101.1245,-52.8466 110.2211,-58.2782 111.6228,-51.42"/>
</g>
<!-- Node3 -->
<g id="node3" class="node">
<title>Node3</title>
<g id="a_node3"><a xlink:href="classL4virtio_1_1Svr_1_1Block__dev__base.html#aa0d0377a069419b77e4ff9c6ae08b092" target="_top" xlink:title="reset callback, called for doing a device reset ">
<polygon fill="#ffffff" stroke="#000000" points="137,-.5 137,-30.5 238,-30.5 238,-.5 137,-.5"/>
<text text-anchor="start" x="145" y="-18.5" font-family="Helvetica,sans-Serif" font-size="10.00" fill="#000000">L4virtio::Svr::Block</text>
<text text-anchor="middle" x="187.5" y="-7.5" font-family="Helvetica,sans-Serif" font-size="10.00" fill="#000000">_dev_base::reset</text>
</a>
</g>
</g>
<!-- Node1&#45;&gt;Node3 -->
<g id="edge2" class="edge">
<title>Node1&#45;&gt;Node3</title>
<path fill="none" stroke="#191970" d="M111.0418,-30.5684C119.5829,-28.8851 128.2913,-27.1689 136.6262,-25.5262"/>
<polygon fill="#191970" stroke="#191970" points="110.259,-27.1553 101.1245,-32.5229 111.6126,-34.0232 110.259,-27.1553"/>
</g>
</g>
</svg>
