<?xml version="1.0" encoding="UTF-8" standalone="no"?>
<!DOCTYPE svg PUBLIC "-//W3C//DTD SVG 1.1//EN"
 "http://www.w3.org/Graphics/SVG/1.1/DTD/svg11.dtd">
<!-- Generated by graphviz version 2.40.1 (20161225.0304)
 -->
<!-- Title: L4::Factory::create_vm Pages: 1 -->
<svg width="296pt" height="104pt"
 viewBox="0.00 0.00 296.00 104.00" xmlns="http://www.w3.org/2000/svg" xmlns:xlink="http://www.w3.org/1999/xlink">
<g id="graph0" class="graph" transform="scale(1 1) rotate(0) translate(4 100)">
<title>L4::Factory::create_vm</title>
<polygon fill="#ffffff" stroke="transparent" points="-4,4 -4,-100 292,-100 292,4 -4,4"/>
<!-- Node34 -->
<g id="node1" class="node">
<title>Node34</title>
<polygon fill="#bfbfbf" stroke="#000000" points="0,-38.5 0,-57.5 122,-57.5 122,-38.5 0,-38.5"/>
<text text-anchor="middle" x="61" y="-45.5" font-family="Helvetica,sans-Serif" font-size="10.00" fill="#000000">L4::Factory::create_vm</text>
</g>
<!-- Node35 -->
<g id="node2" class="node">
<title>Node35</title>
<g id="a_node2"><a xlink:href="classL4_1_1Cap__base.html#a90ff089ca2442b128c2b2b0e1c22c6d7" target="_top" xlink:title="Return capability selector. ">
<polygon fill="#ffffff" stroke="#000000" points="171.5,-76.5 171.5,-95.5 274.5,-95.5 274.5,-76.5 171.5,-76.5"/>
<text text-anchor="middle" x="223" y="-83.5" font-family="Helvetica,sans-Serif" font-size="10.00" fill="#000000">L4::Cap_base::cap</text>
</a>
</g>
</g>
<!-- Node34&#45;&gt;Node35 -->
<g id="edge1" class="edge">
<title>Node34&#45;&gt;Node35</title>
<path fill="none" stroke="#191970" d="M101.8794,-57.589C123.3534,-62.6261 149.8605,-68.8438 172.597,-74.1771"/>
<polygon fill="#191970" stroke="#191970" points="171.8795,-77.6037 182.4145,-76.4799 173.4781,-70.7887 171.8795,-77.6037"/>
</g>
<!-- Node36 -->
<g id="node3" class="node">
<title>Node36</title>
<g id="a_node3"><a xlink:href="classL4_1_1Kobject.html#a4f2117ae76762f4084e6a1adb915863c" target="_top" xlink:title="Return capability selector. ">
<polygon fill="#ffffff" stroke="#000000" points="178.5,-38.5 178.5,-57.5 267.5,-57.5 267.5,-38.5 178.5,-38.5"/>
<text text-anchor="middle" x="223" y="-45.5" font-family="Helvetica,sans-Serif" font-size="10.00" fill="#000000">L4::Kobject::cap</text>
</a>
</g>
</g>
<!-- Node34&#45;&gt;Node36 -->
<g id="edge2" class="edge">
<title>Node34&#45;&gt;Node36</title>
<path fill="none" stroke="#191970" d="M122.2453,-48C137.3878,-48 153.5113,-48 168.3183,-48"/>
<polygon fill="#191970" stroke="#191970" points="168.3308,-51.5001 178.3308,-48 168.3308,-44.5001 168.3308,-51.5001"/>
</g>
<!-- Node37 -->
<g id="node4" class="node">
<title>Node37</title>
<g id="a_node4"><a xlink:href="group__l4__factory__api.html#ga9e9cb188b7c634a09ac2ae476c9b1761" target="_top" xlink:title="Create a new virtual machine. ">
<polygon fill="#ffffff" stroke="#000000" points="158,-.5 158,-19.5 288,-19.5 288,-.5 158,-.5"/>
<text text-anchor="middle" x="223" y="-7.5" font-family="Helvetica,sans-Serif" font-size="10.00" fill="#000000">l4_factory_create_vm_u</text>
</a>
</g>
</g>
<!-- Node34&#45;&gt;Node37 -->
<g id="edge3" class="edge">
<title>Node34&#45;&gt;Node37</title>
<path fill="none" stroke="#191970" d="M101.8794,-38.411C123.3534,-33.3739 149.8605,-27.1562 172.597,-21.8229"/>
<polygon fill="#191970" stroke="#191970" points="173.4781,-25.2113 182.4145,-19.5201 171.8795,-18.3963 173.4781,-25.2113"/>
</g>
</g>
</svg>
