<?xml version="1.0" encoding="UTF-8" standalone="no"?>
<!DOCTYPE svg PUBLIC "-//W3C//DTD SVG 1.1//EN"
 "http://www.w3.org/Graphics/SVG/1.1/DTD/svg11.dtd">
<!-- Generated by graphviz version 2.40.1 (20161225.0304)
 -->
<!-- Title: cxx::Bits::Bst::lower_bound_node Pages: 1 -->
<svg width="315pt" height="132pt"
 viewBox="0.00 0.00 315.00 132.00" xmlns="http://www.w3.org/2000/svg" xmlns:xlink="http://www.w3.org/1999/xlink">
<g id="graph0" class="graph" transform="scale(1 1) rotate(0) translate(4 128)">
<title>cxx::Bits::Bst::lower_bound_node</title>
<polygon fill="#ffffff" stroke="transparent" points="-4,4 -4,-128 311,-128 311,4 -4,4"/>
<!-- Node27 -->
<g id="node1" class="node">
<title>Node27</title>
<polygon fill="#bfbfbf" stroke="#000000" points="0,-35.5 0,-65.5 104,-65.5 104,-35.5 0,-35.5"/>
<text text-anchor="start" x="8" y="-53.5" font-family="Helvetica,sans-Serif" font-size="10.00" fill="#000000">cxx::Bits::Bst::lower</text>
<text text-anchor="middle" x="52" y="-42.5" font-family="Helvetica,sans-Serif" font-size="10.00" fill="#000000">_bound_node</text>
</g>
<!-- Node28 -->
<g id="node2" class="node">
<title>Node28</title>
<g id="a_node2"><a xlink:href="classcxx_1_1Bits_1_1Base__avl__set.html#af0f524eec07922ea8cb12543cf6577d1" target="_top" xlink:title="Find the first node greater or equal to key. ">
<polygon fill="#ffffff" stroke="#000000" points="140,-49.5 140,-123.5 307,-123.5 307,-49.5 140,-49.5"/>
<text text-anchor="start" x="148" y="-111.5" font-family="Helvetica,sans-Serif" font-size="10.00" fill="#000000">cxx::Bits::Base_avl</text>
<text text-anchor="start" x="148" y="-100.5" font-family="Helvetica,sans-Serif" font-size="10.00" fill="#000000">_set&lt; Pair&lt; KEY_TYPE,</text>
<text text-anchor="start" x="148" y="-89.5" font-family="Helvetica,sans-Serif" font-size="10.00" fill="#000000"> DATA_TYPE &gt;, COMPARE</text>
<text text-anchor="start" x="148" y="-78.5" font-family="Helvetica,sans-Serif" font-size="10.00" fill="#000000">&lt; KEY_TYPE &gt;, ALLOC, Bits</text>
<text text-anchor="start" x="148" y="-67.5" font-family="Helvetica,sans-Serif" font-size="10.00" fill="#000000">::Avl_map_get_key&lt; KEY_TYPE</text>
<text text-anchor="middle" x="223.5" y="-56.5" font-family="Helvetica,sans-Serif" font-size="10.00" fill="#000000"> &gt; &gt;::lower_bound_node</text>
</a>
</g>
</g>
<!-- Node27&#45;&gt;Node28 -->
<g id="edge1" class="edge">
<title>Node27&#45;&gt;Node28</title>
<path fill="none" stroke="#191970" d="M114.3293,-63.5837C122.6276,-65.3256 131.2428,-67.1341 139.8302,-68.9367"/>
<polygon fill="#191970" stroke="#191970" points="114.8933,-60.1259 104.3875,-61.4968 113.4552,-66.9766 114.8933,-60.1259"/>
</g>
<!-- Node29 -->
<g id="node3" class="node">
<title>Node29</title>
<g id="a_node3"><a xlink:href="classcxx_1_1Bits_1_1Bst.html#a4ec66458f0c91f295c598f0ef472d76f" target="_top" xlink:title="Get the end marker for the mutable backward iterator. ">
<polygon fill="#ffffff" stroke="#000000" points="143,-.5 143,-30.5 304,-30.5 304,-.5 143,-.5"/>
<text text-anchor="start" x="151" y="-18.5" font-family="Helvetica,sans-Serif" font-size="10.00" fill="#000000">cxx::Bits::Bst&lt; _Node,</text>
<text text-anchor="middle" x="223.5" y="-7.5" font-family="Helvetica,sans-Serif" font-size="10.00" fill="#000000"> GET_KEY, COMPARE &gt;::rend</text>
</a>
</g>
</g>
<!-- Node27&#45;&gt;Node29 -->
<g id="edge2" class="edge">
<title>Node27&#45;&gt;Node29</title>
<path fill="none" stroke="#191970" d="M114.3677,-37.7719C125.931,-35.412 138.1085,-32.9268 149.9678,-30.5066"/>
<polygon fill="#191970" stroke="#191970" points="113.4857,-34.3797 104.3875,-39.8087 114.8855,-41.2383 113.4857,-34.3797"/>
</g>
</g>
</svg>
