<?xml version="1.0" encoding="UTF-8" standalone="no"?>
<!DOCTYPE svg PUBLIC "-//W3C//DTD SVG 1.1//EN"
 "http://www.w3.org/Graphics/SVG/1.1/DTD/svg11.dtd">
<!-- Generated by graphviz version 2.40.1 (20161225.0304)
 -->
<!-- Title: L4::Ipc::Iostream::reset Pages: 1 -->
<svg width="263pt" height="142pt"
 viewBox="0.00 0.00 263.00 142.00" xmlns="http://www.w3.org/2000/svg" xmlns:xlink="http://www.w3.org/1999/xlink">
<g id="graph0" class="graph" transform="scale(1 1) rotate(0) translate(4 138)">
<title>L4::Ipc::Iostream::reset</title>
<polygon fill="#ffffff" stroke="transparent" points="-4,4 -4,-138 259,-138 259,4 -4,4"/>
<!-- Node18 -->
<g id="node1" class="node">
<title>Node18</title>
<polygon fill="#bfbfbf" stroke="#000000" points="0,-52 0,-82 98,-82 98,-52 0,-52"/>
<text text-anchor="start" x="8" y="-70" font-family="Helvetica,sans-Serif" font-size="10.00" fill="#000000">L4::Ipc::Iostream::</text>
<text text-anchor="middle" x="49" y="-59" font-family="Helvetica,sans-Serif" font-size="10.00" fill="#000000">reset</text>
</g>
<!-- Node19 -->
<g id="node2" class="node">
<title>Node19</title>
<g id="a_node2"><a xlink:href="classL4_1_1Ipc_1_1Istream.html#af4d28aa64235c822f624891154109a0c" target="_top" xlink:title="Copy out an array of type T with size elements. ">
<polygon fill="#ffffff" stroke="#000000" points="141,-114.5 141,-133.5 248,-133.5 248,-114.5 141,-114.5"/>
<text text-anchor="middle" x="194.5" y="-121.5" font-family="Helvetica,sans-Serif" font-size="10.00" fill="#000000">L4::Ipc::Istream::get</text>
</a>
</g>
</g>
<!-- Node18&#45;&gt;Node19 -->
<g id="edge1" class="edge">
<title>Node18&#45;&gt;Node19</title>
<path fill="none" stroke="#191970" d="M80.5213,-82.1423C96.3818,-89.491 116.0133,-98.1814 134,-105 139.6716,-107.15 145.704,-109.2546 151.6794,-111.2338"/>
<polygon fill="#191970" stroke="#191970" points="151.0163,-114.6972 161.6079,-114.432 153.1627,-108.0344 151.0163,-114.6972"/>
</g>
<!-- Node20 -->
<g id="node3" class="node">
<title>Node20</title>
<g id="a_node3"><a xlink:href="classL4_1_1Ipc_1_1Ostream.html#a0bb12677e48b2b08456b30a928aed8e7" target="_top" xlink:title="Put an array with size elements of type T into the stream. ">
<polygon fill="#ffffff" stroke="#000000" points="139,-76.5 139,-95.5 250,-95.5 250,-76.5 139,-76.5"/>
<text text-anchor="middle" x="194.5" y="-83.5" font-family="Helvetica,sans-Serif" font-size="10.00" fill="#000000">L4::Ipc::Ostream::put</text>
</a>
</g>
</g>
<!-- Node18&#45;&gt;Node20 -->
<g id="edge2" class="edge">
<title>Node18&#45;&gt;Node20</title>
<path fill="none" stroke="#191970" d="M98.2597,-73.4325C108.0291,-74.7083 118.4317,-76.0667 128.651,-77.4012"/>
<polygon fill="#191970" stroke="#191970" points="128.4099,-80.8993 138.779,-78.7237 129.3164,-73.9582 128.4099,-80.8993"/>
</g>
<!-- Node21 -->
<g id="node4" class="node">
<title>Node21</title>
<g id="a_node4"><a xlink:href="classL4_1_1Ipc_1_1Istream.html#a5f859ec603799261a88885307ae062ed" target="_top" xlink:title="Reset the stream to empty, and ready for receive()/wait(). ">
<polygon fill="#ffffff" stroke="#000000" points="136.5,-38.5 136.5,-57.5 252.5,-57.5 252.5,-38.5 136.5,-38.5"/>
<text text-anchor="middle" x="194.5" y="-45.5" font-family="Helvetica,sans-Serif" font-size="10.00" fill="#000000">L4::Ipc::Istream::reset</text>
</a>
</g>
</g>
<!-- Node18&#45;&gt;Node21 -->
<g id="edge3" class="edge">
<title>Node18&#45;&gt;Node21</title>
<path fill="none" stroke="#191970" d="M98.2597,-60.5675C107.2807,-59.3895 116.8416,-58.141 126.2995,-56.9059"/>
<polygon fill="#191970" stroke="#191970" points="127.0289,-60.3405 136.4915,-55.575 126.1225,-53.3994 127.0289,-60.3405"/>
</g>
<!-- Node22 -->
<g id="node5" class="node">
<title>Node22</title>
<g id="a_node5"><a xlink:href="classL4_1_1Ipc_1_1Ostream.html#afaf2794226d026e500ead0757069ea7c" target="_top" xlink:title="Reset the stream to empty, same state as a newly created stream. ">
<polygon fill="#ffffff" stroke="#000000" points="134,-.5 134,-19.5 255,-19.5 255,-.5 134,-.5"/>
<text text-anchor="middle" x="194.5" y="-7.5" font-family="Helvetica,sans-Serif" font-size="10.00" fill="#000000">L4::Ipc::Ostream::reset</text>
</a>
</g>
</g>
<!-- Node18&#45;&gt;Node22 -->
<g id="edge4" class="edge">
<title>Node18&#45;&gt;Node22</title>
<path fill="none" stroke="#191970" d="M80.5213,-51.8577C96.3818,-44.509 116.0133,-35.8186 134,-29 139.6716,-26.85 145.704,-24.7454 151.6794,-22.7662"/>
<polygon fill="#191970" stroke="#191970" points="153.1627,-25.9656 161.6079,-19.568 151.0163,-19.3028 153.1627,-25.9656"/>
</g>
</g>
</svg>
