<?xml version="1.0" encoding="UTF-8" standalone="no"?>
<!DOCTYPE svg PUBLIC "-//W3C//DTD SVG 1.1//EN"
 "http://www.w3.org/Graphics/SVG/1.1/DTD/svg11.dtd">
<!-- Generated by graphviz version 2.40.1 (20161225.0304)
 -->
<!-- Title: L4::Ipc::Gen_fpage::cap_received Pages: 1 -->
<svg width="283pt" height="100pt"
 viewBox="0.00 0.00 283.00 99.50" xmlns="http://www.w3.org/2000/svg" xmlns:xlink="http://www.w3.org/1999/xlink">
<g id="graph0" class="graph" transform="scale(1 1) rotate(0) translate(4 95.5)">
<title>L4::Ipc::Gen_fpage::cap_received</title>
<polygon fill="#ffffff" stroke="transparent" points="-4,4 -4,-95.5 279,-95.5 279,4 -4,4"/>
<!-- Node1 -->
<g id="node1" class="node">
<title>Node1</title>
<polygon fill="#bfbfbf" stroke="#000000" points="0,-27.5 0,-57.5 105,-57.5 105,-27.5 0,-27.5"/>
<text text-anchor="start" x="8" y="-45.5" font-family="Helvetica,sans-Serif" font-size="10.00" fill="#000000">L4::Ipc::Gen_fpage</text>
<text text-anchor="middle" x="52.5" y="-34.5" font-family="Helvetica,sans-Serif" font-size="10.00" fill="#000000">::cap_received</text>
</g>
<!-- Node2 -->
<g id="node2" class="node">
<title>Node2</title>
<g id="a_node2"><a xlink:href="classL4virtio_1_1Svr_1_1Device__t.html#a460f5dc2b32e33a616eb822ffd2f88f0" target="_top" xlink:title="Check for a value in the cmd register and handle a write. ">
<polygon fill="#ffffff" stroke="#000000" points="148,-50 148,-91 268,-91 268,-50 148,-50"/>
<text text-anchor="start" x="156" y="-79" font-family="Helvetica,sans-Serif" font-size="10.00" fill="#000000">L4virtio::Svr::Device</text>
<text text-anchor="start" x="156" y="-68" font-family="Helvetica,sans-Serif" font-size="10.00" fill="#000000">_t&lt; Ds_data &gt;::handle</text>
<text text-anchor="middle" x="208" y="-57" font-family="Helvetica,sans-Serif" font-size="10.00" fill="#000000">_mem_cmd_write</text>
</a>
</g>
</g>
<!-- Node1&#45;&gt;Node2 -->
<g id="edge1" class="edge">
<title>Node1&#45;&gt;Node2</title>
<path fill="none" stroke="#191970" d="M115.3099,-53.8098C126.0679,-55.747 137.2226,-57.7555 147.9075,-59.6795"/>
<polygon fill="#191970" stroke="#191970" points="115.6072,-50.3071 105.1452,-51.9795 114.3667,-57.1963 115.6072,-50.3071"/>
</g>
<!-- Node3 -->
<g id="node3" class="node">
<title>Node3</title>
<g id="a_node3"><a xlink:href="classL4virtio_1_1Svr_1_1Device__t.html#a3fa20bf911056f0d03c8274982b1e167" target="_top" xlink:title="Get the memory region list used for this device. ">
<polygon fill="#ffffff" stroke="#000000" points="141,-.5 141,-30.5 275,-30.5 275,-.5 141,-.5"/>
<text text-anchor="start" x="149" y="-18.5" font-family="Helvetica,sans-Serif" font-size="10.00" fill="#000000">L4virtio::Svr::Device</text>
<text text-anchor="middle" x="208" y="-7.5" font-family="Helvetica,sans-Serif" font-size="10.00" fill="#000000">_t&lt; Ds_data &gt;::mem_info</text>
</a>
</g>
</g>
<!-- Node1&#45;&gt;Node3 -->
<g id="edge2" class="edge">
<title>Node1&#45;&gt;Node3</title>
<path fill="none" stroke="#191970" d="M115.2544,-31.6037C123.6639,-30.1436 132.3166,-28.6412 140.7987,-27.1684"/>
<polygon fill="#191970" stroke="#191970" points="114.399,-28.1998 105.1452,-33.359 115.5966,-35.0966 114.399,-28.1998"/>
</g>
</g>
</svg>
