<?xml version="1.0" encoding="UTF-8" standalone="no"?>
<!DOCTYPE svg PUBLIC "-//W3C//DTD SVG 1.1//EN"
 "http://www.w3.org/Graphics/SVG/1.1/DTD/svg11.dtd">
<!-- Generated by graphviz version 2.40.1 (20161225.0304)
 -->
<!-- Title: L4Re::Debug_obj Pages: 1 -->
<svg width="285pt" height="332pt"
 viewBox="0.00 0.00 285.00 332.00" xmlns="http://www.w3.org/2000/svg" xmlns:xlink="http://www.w3.org/1999/xlink">
<g id="graph0" class="graph" transform="scale(1 1) rotate(0) translate(4 328)">
<title>L4Re::Debug_obj</title>
<polygon fill="#ffffff" stroke="transparent" points="-4,4 -4,-328 281,-328 281,4 -4,4"/>
<!-- Node4 -->
<g id="node1" class="node">
<title>Node4</title>
<polygon fill="#bfbfbf" stroke="#000000" points="63,-.5 63,-57.5 159,-57.5 159,-.5 63,-.5"/>
<text text-anchor="middle" x="111" y="-45.5" font-family="Helvetica,sans-Serif" font-size="10.00" fill="#000000">L4Re::Debug_obj</text>
<polyline fill="none" stroke="#000000" points="63,-38.5 159,-38.5 "/>
<text text-anchor="middle" x="111" y="-26.5" font-family="Helvetica,sans-Serif" font-size="10.00" fill="#000000"> </text>
<polyline fill="none" stroke="#000000" points="63,-19.5 159,-19.5 "/>
<text text-anchor="start" x="71" y="-7.5" font-family="Helvetica,sans-Serif" font-size="10.00" fill="#000000">+ debug()</text>
</g>
<!-- Node5 -->
<g id="node2" class="node">
<title>Node5</title>
<g id="a_node2"><a xlink:href="classL4_1_1Kobject__t.html" target="_top" xlink:title="{L4::Kobject_t\&lt; Debug\l_obj, L4::Kobject, L4RE\l_PROTO_DEBUG \&gt;\n||# c()\l# __check_protocols__()\l}">
<polygon fill="#ffffff" stroke="#000000" points="44,-95.5 44,-185.5 178,-185.5 178,-95.5 44,-95.5"/>
<text text-anchor="start" x="52" y="-173.5" font-family="Helvetica,sans-Serif" font-size="10.00" fill="#000000">L4::Kobject_t&lt; Debug</text>
<text text-anchor="start" x="52" y="-162.5" font-family="Helvetica,sans-Serif" font-size="10.00" fill="#000000">_obj, L4::Kobject, L4RE</text>
<text text-anchor="middle" x="111" y="-151.5" font-family="Helvetica,sans-Serif" font-size="10.00" fill="#000000">_PROTO_DEBUG &gt;</text>
<polyline fill="none" stroke="#000000" points="44,-144.5 178,-144.5 "/>
<text text-anchor="middle" x="111" y="-132.5" font-family="Helvetica,sans-Serif" font-size="10.00" fill="#000000"> </text>
<polyline fill="none" stroke="#000000" points="44,-125.5 178,-125.5 "/>
<text text-anchor="start" x="52" y="-113.5" font-family="Helvetica,sans-Serif" font-size="10.00" fill="#000000"># c()</text>
<text text-anchor="start" x="52" y="-102.5" font-family="Helvetica,sans-Serif" font-size="10.00" fill="#000000"># __check_protocols__()</text>
</a>
</g>
</g>
<!-- Node5&#45;&gt;Node4 -->
<g id="edge1" class="edge">
<title>Node5&#45;&gt;Node4</title>
<path fill="none" stroke="#191970" d="M111,-85.452C111,-75.7821 111,-66.0841 111,-57.5218"/>
<polygon fill="none" stroke="#191970" points="107.5001,-85.47 111,-95.4701 114.5001,-85.4701 107.5001,-85.47"/>
</g>
<!-- Node6 -->
<g id="node3" class="node">
<title>Node6</title>
<g id="a_node3"><a xlink:href="classL4_1_1Kobject.html" target="_top" xlink:title="Base class for all kinds of kernel objects and remote objects, referenced by capabilities. ">
<polygon fill="#ffffff" stroke="#000000" points="0,-250 0,-318 84,-318 84,-250 0,-250"/>
<text text-anchor="middle" x="42" y="-306" font-family="Helvetica,sans-Serif" font-size="10.00" fill="#000000">L4::Kobject</text>
<polyline fill="none" stroke="#000000" points="0,-299 84,-299 "/>
<text text-anchor="middle" x="42" y="-287" font-family="Helvetica,sans-Serif" font-size="10.00" fill="#000000"> </text>
<polyline fill="none" stroke="#000000" points="0,-280 84,-280 "/>
<text text-anchor="start" x="8" y="-268" font-family="Helvetica,sans-Serif" font-size="10.00" fill="#000000">+ dec_refcnt()</text>
<text text-anchor="start" x="8" y="-257" font-family="Helvetica,sans-Serif" font-size="10.00" fill="#000000"># cap()</text>
</a>
</g>
</g>
<!-- Node6&#45;&gt;Node5 -->
<g id="edge2" class="edge">
<title>Node6&#45;&gt;Node5</title>
<path fill="none" stroke="#191970" d="M62.8483,-240.6415C71.2059,-223.2603 80.8377,-203.2287 89.2804,-185.6704"/>
<polygon fill="none" stroke="#191970" points="59.5312,-239.4635 58.352,-249.9925 65.8398,-242.4969 59.5312,-239.4635"/>
</g>
<!-- Node7 -->
<g id="node4" class="node">
<title>Node7</title>
<g id="a_node4"><a xlink:href="classL4_1_1Kobject__t.html" target="_top" xlink:title="Helper class to create an L4Re interface class that is derived from a single base class...">
<polygon fill="#ffffff" stroke="#000000" points="102,-244.5 102,-323.5 260,-323.5 260,-244.5 102,-244.5"/>
<text text-anchor="start" x="110" y="-311.5" font-family="Helvetica,sans-Serif" font-size="10.00" fill="#000000">L4::Kobject_t&lt; Derived,</text>
<text text-anchor="middle" x="181" y="-300.5" font-family="Helvetica,sans-Serif" font-size="10.00" fill="#000000"> Base, PROTO, S_DEMAND &gt;</text>
<polyline fill="none" stroke="#000000" points="102,-293.5 260,-293.5 "/>
<text text-anchor="middle" x="181" y="-281.5" font-family="Helvetica,sans-Serif" font-size="10.00" fill="#000000"> </text>
<polyline fill="none" stroke="#000000" points="102,-274.5 260,-274.5 "/>
<text text-anchor="start" x="110" y="-262.5" font-family="Helvetica,sans-Serif" font-size="10.00" fill="#000000"># c()</text>
<text text-anchor="start" x="110" y="-251.5" font-family="Helvetica,sans-Serif" font-size="10.00" fill="#000000"># __check_protocols__()</text>
</a>
</g>
</g>
<!-- Node7&#45;&gt;Node5 -->
<g id="edge3" class="edge">
<title>Node7&#45;&gt;Node5</title>
<path fill="none" stroke="#ffa500" d="M157.1808,-235.1707C149.3402,-219.0974 140.6631,-201.3094 132.9669,-185.5321"/>
<polygon fill="#ffa500" stroke="#ffa500" points="154.1569,-236.9549 161.6869,-244.4081 160.4483,-233.8859 154.1569,-236.9549"/>
<text text-anchor="start" x="152" y="-218" font-family="Helvetica,sans-Serif" font-size="10.00" fill="#000000"> &lt; Debug_obj, L4::Kobject,</text>
<text text-anchor="middle" x="214.5" y="-207" font-family="Helvetica,sans-Serif" font-size="10.00" fill="#000000"> L4RE_PROTO_DEBUG &gt;</text>
</g>
</g>
</svg>
