<?xml version="1.0" encoding="UTF-8" standalone="no"?>
<!DOCTYPE svg PUBLIC "-//W3C//DTD SVG 1.1//EN"
 "http://www.w3.org/Graphics/SVG/1.1/DTD/svg11.dtd">
<!-- Generated by graphviz version 2.40.1 (20161225.0304)
 -->
<!-- Title: cxx::Base_slab_static&lt; Obj_size, Slab_size, Max_free, Alloc &gt; Pages: 1 -->
<svg width="184pt" height="409pt"
 viewBox="0.00 0.00 184.00 409.00" xmlns="http://www.w3.org/2000/svg" xmlns:xlink="http://www.w3.org/1999/xlink">
<g id="graph0" class="graph" transform="scale(1 1) rotate(0) translate(4 405)">
<title>cxx::Base_slab_static&lt; Obj_size, Slab_size, Max_free, Alloc &gt;</title>
<polygon fill="#ffffff" stroke="transparent" points="-4,4 -4,-405 180,-405 180,4 -4,4"/>
<!-- Node0 -->
<g id="node1" class="node">
<title>Node0</title>
<polygon fill="#bfbfbf" stroke="#000000" points="4.5,-288.5 4.5,-400.5 123.5,-400.5 123.5,-288.5 4.5,-288.5"/>
<text text-anchor="start" x="12.5" y="-388.5" font-family="Helvetica,sans-Serif" font-size="10.00" fill="#000000">cxx::Base_slab_static</text>
<text text-anchor="start" x="12.5" y="-377.5" font-family="Helvetica,sans-Serif" font-size="10.00" fill="#000000">&lt; Obj_size, Slab_size,</text>
<text text-anchor="middle" x="64" y="-366.5" font-family="Helvetica,sans-Serif" font-size="10.00" fill="#000000"> Max_free, Alloc &gt;</text>
<polyline fill="none" stroke="#000000" points="4.5,-359.5 123.5,-359.5 "/>
<text text-anchor="middle" x="64" y="-347.5" font-family="Helvetica,sans-Serif" font-size="10.00" fill="#000000"> </text>
<polyline fill="none" stroke="#000000" points="4.5,-340.5 123.5,-340.5 "/>
<text text-anchor="start" x="12.5" y="-328.5" font-family="Helvetica,sans-Serif" font-size="10.00" fill="#000000">+ alloc()</text>
<text text-anchor="start" x="12.5" y="-317.5" font-family="Helvetica,sans-Serif" font-size="10.00" fill="#000000">+ free()</text>
<text text-anchor="start" x="12.5" y="-306.5" font-family="Helvetica,sans-Serif" font-size="10.00" fill="#000000">+ total_objects()</text>
<text text-anchor="start" x="12.5" y="-295.5" font-family="Helvetica,sans-Serif" font-size="10.00" fill="#000000">+ free_objects()</text>
</g>
<!-- Node1 -->
<g id="node2" class="node">
<title>Node1</title>
<g id="a_node2"><a xlink:href="classcxx_1_1Base__slab__static.html" target="_top" xlink:title="{cxx::Base_slab_static\l\&lt; sizeof(Type), Slab\l_size, Max_free, Alloc \&gt;\n||+ alloc()\l+ free()\l+ total_objects()\l+ free_objects()\l}">
<polygon fill="#ffffff" stroke="#000000" points="0,-117.5 0,-229.5 128,-229.5 128,-117.5 0,-117.5"/>
<text text-anchor="start" x="8" y="-217.5" font-family="Helvetica,sans-Serif" font-size="10.00" fill="#000000">cxx::Base_slab_static</text>
<text text-anchor="start" x="8" y="-206.5" font-family="Helvetica,sans-Serif" font-size="10.00" fill="#000000">&lt; sizeof(Type), Slab</text>
<text text-anchor="middle" x="64" y="-195.5" font-family="Helvetica,sans-Serif" font-size="10.00" fill="#000000">_size, Max_free, Alloc &gt;</text>
<polyline fill="none" stroke="#000000" points="0,-188.5 128,-188.5 "/>
<text text-anchor="middle" x="64" y="-176.5" font-family="Helvetica,sans-Serif" font-size="10.00" fill="#000000"> </text>
<polyline fill="none" stroke="#000000" points="0,-169.5 128,-169.5 "/>
<text text-anchor="start" x="8" y="-157.5" font-family="Helvetica,sans-Serif" font-size="10.00" fill="#000000">+ alloc()</text>
<text text-anchor="start" x="8" y="-146.5" font-family="Helvetica,sans-Serif" font-size="10.00" fill="#000000">+ free()</text>
<text text-anchor="start" x="8" y="-135.5" font-family="Helvetica,sans-Serif" font-size="10.00" fill="#000000">+ total_objects()</text>
<text text-anchor="start" x="8" y="-124.5" font-family="Helvetica,sans-Serif" font-size="10.00" fill="#000000">+ free_objects()</text>
</a>
</g>
</g>
<!-- Node0&#45;&gt;Node1 -->
<g id="edge1" class="edge">
<title>Node0&#45;&gt;Node1</title>
<path fill="none" stroke="#ffa500" d="M64,-277.7326C64,-261.8189 64,-244.9948 64,-229.6148"/>
<polygon fill="#ffa500" stroke="#ffa500" points="60.5001,-278.0343 64,-288.0343 67.5001,-278.0343 60.5001,-278.0343"/>
<text text-anchor="start" x="64" y="-262" font-family="Helvetica,sans-Serif" font-size="10.00" fill="#000000"> &lt; sizeof(Type), Slab</text>
<text text-anchor="middle" x="120" y="-251" font-family="Helvetica,sans-Serif" font-size="10.00" fill="#000000">_size, Max_free, Alloc &gt;</text>
</g>
<!-- Node2 -->
<g id="node3" class="node">
<title>Node2</title>
<g id="a_node3"><a xlink:href="classcxx_1_1Slab__static.html" target="_top" xlink:title="Merged slab allocator (allocators for objects of the same size are merged together). ">
<polygon fill="#ffffff" stroke="#000000" points="2.5,-.5 2.5,-79.5 125.5,-79.5 125.5,-.5 2.5,-.5"/>
<text text-anchor="start" x="10.5" y="-67.5" font-family="Helvetica,sans-Serif" font-size="10.00" fill="#000000">cxx::Slab_static&lt; Type,</text>
<text text-anchor="start" x="10.5" y="-56.5" font-family="Helvetica,sans-Serif" font-size="10.00" fill="#000000"> Slab_size, Max_free,</text>
<text text-anchor="middle" x="64" y="-45.5" font-family="Helvetica,sans-Serif" font-size="10.00" fill="#000000"> Alloc &gt;</text>
<polyline fill="none" stroke="#000000" points="2.5,-38.5 125.5,-38.5 "/>
<text text-anchor="middle" x="64" y="-26.5" font-family="Helvetica,sans-Serif" font-size="10.00" fill="#000000"> </text>
<polyline fill="none" stroke="#000000" points="2.5,-19.5 125.5,-19.5 "/>
<text text-anchor="start" x="10.5" y="-7.5" font-family="Helvetica,sans-Serif" font-size="10.00" fill="#000000">+ alloc()</text>
</a>
</g>
</g>
<!-- Node1&#45;&gt;Node2 -->
<g id="edge2" class="edge">
<title>Node1&#45;&gt;Node2</title>
<path fill="none" stroke="#191970" d="M64,-107.0887C64,-97.6692 64,-88.2406 64,-79.5534"/>
<polygon fill="none" stroke="#191970" points="60.5001,-107.2709 64,-117.2709 67.5001,-107.2709 60.5001,-107.2709"/>
</g>
</g>
</svg>
