<?xml version="1.0" encoding="UTF-8" standalone="no"?>
<!DOCTYPE svg PUBLIC "-//W3C//DTD SVG 1.1//EN"
 "http://www.w3.org/Graphics/SVG/1.1/DTD/svg11.dtd">
<!-- Generated by graphviz version 2.40.1 (20161225.0304)
 -->
<!-- Title: L4::Base_exception Pages: 1 -->
<svg width="669pt" height="458pt"
 viewBox="0.00 0.00 668.50 458.00" xmlns="http://www.w3.org/2000/svg" xmlns:xlink="http://www.w3.org/1999/xlink">
<g id="graph0" class="graph" transform="scale(1 1) rotate(0) translate(4 454)">
<title>L4::Base_exception</title>
<polygon fill="#ffffff" stroke="transparent" points="-4,4 -4,-454 664.5,-454 664.5,4 -4,4"/>
<!-- Node0 -->
<g id="node1" class="node">
<title>Node0</title>
<polygon fill="#bfbfbf" stroke="#000000" points="250,-254.5 250,-333.5 366,-333.5 366,-254.5 250,-254.5"/>
<text text-anchor="middle" x="308" y="-321.5" font-family="Helvetica,sans-Serif" font-size="10.00" fill="#000000">L4::Base_exception</text>
<polyline fill="none" stroke="#000000" points="250,-314.5 366,-314.5 "/>
<text text-anchor="middle" x="308" y="-302.5" font-family="Helvetica,sans-Serif" font-size="10.00" fill="#000000"> </text>
<polyline fill="none" stroke="#000000" points="250,-295.5 366,-295.5 "/>
<text text-anchor="start" x="258" y="-283.5" font-family="Helvetica,sans-Serif" font-size="10.00" fill="#000000">+ str()</text>
<text text-anchor="start" x="258" y="-272.5" font-family="Helvetica,sans-Serif" font-size="10.00" fill="#000000">+ ~Base_exception()</text>
<text text-anchor="start" x="258" y="-261.5" font-family="Helvetica,sans-Serif" font-size="10.00" fill="#000000"># Base_exception()</text>
</g>
<!-- Node2 -->
<g id="node3" class="node">
<title>Node2</title>
<g id="a_node3"><a xlink:href="classL4_1_1Invalid__capability.html" target="_top" xlink:title="Indicates that an invalid object was invoked. ">
<polygon fill="#ffffff" stroke="#000000" points="116,-116.5 116,-217.5 236,-217.5 236,-116.5 116,-116.5"/>
<text text-anchor="middle" x="176" y="-205.5" font-family="Helvetica,sans-Serif" font-size="10.00" fill="#000000">L4::Invalid_capability</text>
<polyline fill="none" stroke="#000000" points="116,-198.5 236,-198.5 "/>
<text text-anchor="middle" x="176" y="-186.5" font-family="Helvetica,sans-Serif" font-size="10.00" fill="#000000"> </text>
<polyline fill="none" stroke="#000000" points="116,-179.5 236,-179.5 "/>
<text text-anchor="start" x="124" y="-167.5" font-family="Helvetica,sans-Serif" font-size="10.00" fill="#000000">+ Invalid_capability()</text>
<text text-anchor="start" x="124" y="-156.5" font-family="Helvetica,sans-Serif" font-size="10.00" fill="#000000">+ Invalid_capability()</text>
<text text-anchor="start" x="124" y="-145.5" font-family="Helvetica,sans-Serif" font-size="10.00" fill="#000000">+ str()</text>
<text text-anchor="start" x="124" y="-134.5" font-family="Helvetica,sans-Serif" font-size="10.00" fill="#000000">+ cap()</text>
<text text-anchor="start" x="124" y="-123.5" font-family="Helvetica,sans-Serif" font-size="10.00" fill="#000000">+ ~Invalid_capability()</text>
</a>
</g>
</g>
<!-- Node0&#45;&gt;Node2 -->
<g id="edge2" class="edge">
<title>Node0&#45;&gt;Node2</title>
<path fill="none" stroke="#191970" d="M259.1777,-247.027C249.3149,-237.5378 238.902,-227.5194 228.9066,-217.9026"/>
<polygon fill="none" stroke="#191970" points="256.9636,-249.7537 266.5965,-254.1649 261.8169,-244.7094 256.9636,-249.7537"/>
</g>
<!-- Node3 -->
<g id="node4" class="node">
<title>Node3</title>
<g id="a_node4"><a xlink:href="classL4_1_1Runtime__error.html" target="_top" xlink:title="Exception for an abstract runtime error. ">
<polygon fill="#ffffff" stroke="#000000" points="254.5,-116.5 254.5,-217.5 361.5,-217.5 361.5,-116.5 254.5,-116.5"/>
<text text-anchor="middle" x="308" y="-205.5" font-family="Helvetica,sans-Serif" font-size="10.00" fill="#000000">L4::Runtime_error</text>
<polyline fill="none" stroke="#000000" points="254.5,-198.5 361.5,-198.5 "/>
<text text-anchor="middle" x="308" y="-186.5" font-family="Helvetica,sans-Serif" font-size="10.00" fill="#000000"> </text>
<polyline fill="none" stroke="#000000" points="254.5,-179.5 361.5,-179.5 "/>
<text text-anchor="start" x="262.5" y="-167.5" font-family="Helvetica,sans-Serif" font-size="10.00" fill="#000000">+ Runtime_error()</text>
<text text-anchor="start" x="262.5" y="-156.5" font-family="Helvetica,sans-Serif" font-size="10.00" fill="#000000">+ str()</text>
<text text-anchor="start" x="262.5" y="-145.5" font-family="Helvetica,sans-Serif" font-size="10.00" fill="#000000">+ extra_str()</text>
<text text-anchor="start" x="262.5" y="-134.5" font-family="Helvetica,sans-Serif" font-size="10.00" fill="#000000">+ ~Runtime_error()</text>
<text text-anchor="start" x="262.5" y="-123.5" font-family="Helvetica,sans-Serif" font-size="10.00" fill="#000000">+ err_no()</text>
</a>
</g>
</g>
<!-- Node0&#45;&gt;Node3 -->
<g id="edge3" class="edge">
<title>Node0&#45;&gt;Node3</title>
<path fill="none" stroke="#191970" d="M308,-243.9396C308,-235.3816 308,-226.4823 308,-217.9026"/>
<polygon fill="none" stroke="#191970" points="304.5001,-244.1648 308,-254.1649 311.5001,-244.1649 304.5001,-244.1648"/>
</g>
<!-- Node9 -->
<g id="node10" class="node">
<title>Node9</title>
<g id="a_node10"><a xlink:href="classL4_1_1Unknown__error.html" target="_top" xlink:title="Exception for an unknown condition. ">
<polygon fill="#ffffff" stroke="#000000" points="379.5,-127.5 379.5,-206.5 492.5,-206.5 492.5,-127.5 379.5,-127.5"/>
<text text-anchor="middle" x="436" y="-194.5" font-family="Helvetica,sans-Serif" font-size="10.00" fill="#000000">L4::Unknown_error</text>
<polyline fill="none" stroke="#000000" points="379.5,-187.5 492.5,-187.5 "/>
<text text-anchor="middle" x="436" y="-175.5" font-family="Helvetica,sans-Serif" font-size="10.00" fill="#000000"> </text>
<polyline fill="none" stroke="#000000" points="379.5,-168.5 492.5,-168.5 "/>
<text text-anchor="start" x="387.5" y="-156.5" font-family="Helvetica,sans-Serif" font-size="10.00" fill="#000000">+ Unknown_error()</text>
<text text-anchor="start" x="387.5" y="-145.5" font-family="Helvetica,sans-Serif" font-size="10.00" fill="#000000">+ str()</text>
<text text-anchor="start" x="387.5" y="-134.5" font-family="Helvetica,sans-Serif" font-size="10.00" fill="#000000">+ ~Unknown_error()</text>
</a>
</g>
</g>
<!-- Node0&#45;&gt;Node9 -->
<g id="edge9" class="edge">
<title>Node0&#45;&gt;Node9</title>
<path fill="none" stroke="#191970" d="M355.4355,-246.9351C368.7714,-233.7034 383.1377,-219.4493 395.9937,-206.6938"/>
<polygon fill="none" stroke="#191970" points="352.7824,-244.637 348.1488,-254.1649 357.7127,-249.6061 352.7824,-244.637"/>
</g>
<!-- Node1 -->
<g id="node2" class="node">
<title>Node1</title>
<g id="a_node2"><a xlink:href="classL4_1_1Exception__tracer.html" target="_top" xlink:title="Back&#45;trace support for exceptions. ">
<polygon fill="#ffffff" stroke="#000000" points="251.5,-370.5 251.5,-449.5 364.5,-449.5 364.5,-370.5 251.5,-370.5"/>
<text text-anchor="middle" x="308" y="-437.5" font-family="Helvetica,sans-Serif" font-size="10.00" fill="#000000">L4::Exception_tracer</text>
<polyline fill="none" stroke="#000000" points="251.5,-430.5 364.5,-430.5 "/>
<text text-anchor="middle" x="308" y="-418.5" font-family="Helvetica,sans-Serif" font-size="10.00" fill="#000000"> </text>
<polyline fill="none" stroke="#000000" points="251.5,-411.5 364.5,-411.5 "/>
<text text-anchor="start" x="259.5" y="-399.5" font-family="Helvetica,sans-Serif" font-size="10.00" fill="#000000">+ pc_array()</text>
<text text-anchor="start" x="259.5" y="-388.5" font-family="Helvetica,sans-Serif" font-size="10.00" fill="#000000">+ frame_count()</text>
<text text-anchor="start" x="259.5" y="-377.5" font-family="Helvetica,sans-Serif" font-size="10.00" fill="#000000"># Exception_tracer()</text>
</a>
</g>
</g>
<!-- Node1&#45;&gt;Node0 -->
<g id="edge1" class="edge">
<title>Node1&#45;&gt;Node0</title>
<path fill="none" stroke="#191970" d="M308,-360.2163C308,-351.394 308,-342.3127 308,-333.8116"/>
<polygon fill="none" stroke="#191970" points="304.5001,-360.4038 308,-370.4038 311.5001,-360.4039 304.5001,-360.4038"/>
</g>
<!-- Node4 -->
<g id="node5" class="node">
<title>Node4</title>
<g id="a_node5"><a xlink:href="classL4_1_1Bounds__error.html" target="_top" xlink:title="Access out of bounds. ">
<polygon fill="#ffffff" stroke="#000000" points="0,-6 0,-74 104,-74 104,-6 0,-6"/>
<text text-anchor="middle" x="52" y="-62" font-family="Helvetica,sans-Serif" font-size="10.00" fill="#000000">L4::Bounds_error</text>
<polyline fill="none" stroke="#000000" points="0,-55 104,-55 "/>
<text text-anchor="middle" x="52" y="-43" font-family="Helvetica,sans-Serif" font-size="10.00" fill="#000000"> </text>
<polyline fill="none" stroke="#000000" points="0,-36 104,-36 "/>
<text text-anchor="start" x="8" y="-24" font-family="Helvetica,sans-Serif" font-size="10.00" fill="#000000">+ Bounds_error()</text>
<text text-anchor="start" x="8" y="-13" font-family="Helvetica,sans-Serif" font-size="10.00" fill="#000000">+ ~Bounds_error()</text>
</a>
</g>
</g>
<!-- Node3&#45;&gt;Node4 -->
<g id="edge4" class="edge">
<title>Node3&#45;&gt;Node4</title>
<path fill="none" stroke="#191970" d="M245.587,-116.3027C245.3914,-116.2012 245.1957,-116.1002 245,-116 190.8779,-88.2768 168.4416,-104.9801 113,-80 109.0743,-78.2312 105.1154,-76.2267 101.2013,-74.0802"/>
<polygon fill="none" stroke="#191970" points="243.9114,-119.3763 254.3335,-121.2819 247.3745,-113.2929 243.9114,-119.3763"/>
</g>
<!-- Node5 -->
<g id="node6" class="node">
<title>Node5</title>
<g id="a_node6"><a xlink:href="classL4_1_1Com__error.html" target="_top" xlink:title="Error conditions during IPC. ">
<polygon fill="#ffffff" stroke="#000000" points="122.5,-6 122.5,-74 213.5,-74 213.5,-6 122.5,-6"/>
<text text-anchor="middle" x="168" y="-62" font-family="Helvetica,sans-Serif" font-size="10.00" fill="#000000">L4::Com_error</text>
<polyline fill="none" stroke="#000000" points="122.5,-55 213.5,-55 "/>
<text text-anchor="middle" x="168" y="-43" font-family="Helvetica,sans-Serif" font-size="10.00" fill="#000000"> </text>
<polyline fill="none" stroke="#000000" points="122.5,-36 213.5,-36 "/>
<text text-anchor="start" x="130.5" y="-24" font-family="Helvetica,sans-Serif" font-size="10.00" fill="#000000">+ Com_error()</text>
<text text-anchor="start" x="130.5" y="-13" font-family="Helvetica,sans-Serif" font-size="10.00" fill="#000000">+ ~Com_error()</text>
</a>
</g>
</g>
<!-- Node3&#45;&gt;Node5 -->
<g id="edge5" class="edge">
<title>Node3&#45;&gt;Node5</title>
<path fill="none" stroke="#191970" d="M246.6063,-111.3071C232.6958,-98.6883 218.325,-85.6519 205.7362,-74.2321"/>
<polygon fill="none" stroke="#191970" points="244.5145,-114.1352 254.2727,-118.2617 249.2177,-108.9505 244.5145,-114.1352"/>
</g>
<!-- Node6 -->
<g id="node7" class="node">
<title>Node6</title>
<g id="a_node7"><a xlink:href="classL4_1_1Element__already__exists.html" target="_top" xlink:title="Exception for duplicate element insertions. ">
<polygon fill="#ffffff" stroke="#000000" points="232,-.5 232,-79.5 384,-79.5 384,-.5 232,-.5"/>
<text text-anchor="start" x="240" y="-67.5" font-family="Helvetica,sans-Serif" font-size="10.00" fill="#000000">L4::Element_already</text>
<text text-anchor="middle" x="308" y="-56.5" font-family="Helvetica,sans-Serif" font-size="10.00" fill="#000000">_exists</text>
<polyline fill="none" stroke="#000000" points="232,-49.5 384,-49.5 "/>
<text text-anchor="middle" x="308" y="-37.5" font-family="Helvetica,sans-Serif" font-size="10.00" fill="#000000"> </text>
<polyline fill="none" stroke="#000000" points="232,-30.5 384,-30.5 "/>
<text text-anchor="start" x="240" y="-18.5" font-family="Helvetica,sans-Serif" font-size="10.00" fill="#000000">+ Element_already_exists()</text>
<text text-anchor="start" x="240" y="-7.5" font-family="Helvetica,sans-Serif" font-size="10.00" fill="#000000">+ ~Element_already_exists()</text>
</a>
</g>
</g>
<!-- Node3&#45;&gt;Node6 -->
<g id="edge6" class="edge">
<title>Node3&#45;&gt;Node6</title>
<path fill="none" stroke="#191970" d="M308,-106.3446C308,-97.3388 308,-88.2565 308,-79.8243"/>
<polygon fill="none" stroke="#191970" points="304.5001,-106.4413 308,-116.4413 311.5001,-106.4414 304.5001,-106.4413"/>
</g>
<!-- Node7 -->
<g id="node8" class="node">
<title>Node7</title>
<g id="a_node8"><a xlink:href="classL4_1_1Element__not__found.html" target="_top" xlink:title="Exception for a failed lookup (element not found). ">
<polygon fill="#ffffff" stroke="#000000" points="402.5,-11.5 402.5,-68.5 527.5,-68.5 527.5,-11.5 402.5,-11.5"/>
<text text-anchor="middle" x="465" y="-56.5" font-family="Helvetica,sans-Serif" font-size="10.00" fill="#000000">L4::Element_not_found</text>
<polyline fill="none" stroke="#000000" points="402.5,-49.5 527.5,-49.5 "/>
<text text-anchor="middle" x="465" y="-37.5" font-family="Helvetica,sans-Serif" font-size="10.00" fill="#000000"> </text>
<polyline fill="none" stroke="#000000" points="402.5,-30.5 527.5,-30.5 "/>
<text text-anchor="start" x="410.5" y="-18.5" font-family="Helvetica,sans-Serif" font-size="10.00" fill="#000000">+ Element_not_found()</text>
</a>
</g>
</g>
<!-- Node3&#45;&gt;Node7 -->
<g id="edge7" class="edge">
<title>Node3&#45;&gt;Node7</title>
<path fill="none" stroke="#191970" d="M369.4919,-116.4123C369.6615,-116.2746 369.8309,-116.1372 370,-116 389.3553,-100.2984 411.0515,-82.9245 428.8182,-68.756"/>
<polygon fill="none" stroke="#191970" points="367.2797,-113.7 361.7318,-122.7262 371.6976,-119.1298 367.2797,-113.7"/>
</g>
<!-- Node8 -->
<g id="node9" class="node">
<title>Node8</title>
<g id="a_node9"><a xlink:href="classL4_1_1Out__of__memory.html" target="_top" xlink:title="Exception signalling insufficient memory. ">
<polygon fill="#ffffff" stroke="#000000" points="545.5,-6 545.5,-74 660.5,-74 660.5,-6 545.5,-6"/>
<text text-anchor="middle" x="603" y="-62" font-family="Helvetica,sans-Serif" font-size="10.00" fill="#000000">L4::Out_of_memory</text>
<polyline fill="none" stroke="#000000" points="545.5,-55 660.5,-55 "/>
<text text-anchor="middle" x="603" y="-43" font-family="Helvetica,sans-Serif" font-size="10.00" fill="#000000"> </text>
<polyline fill="none" stroke="#000000" points="545.5,-36 660.5,-36 "/>
<text text-anchor="start" x="553.5" y="-24" font-family="Helvetica,sans-Serif" font-size="10.00" fill="#000000">+ Out_of_memory()</text>
<text text-anchor="start" x="553.5" y="-13" font-family="Helvetica,sans-Serif" font-size="10.00" fill="#000000">+ ~Out_of_memory()</text>
</a>
</g>
</g>
<!-- Node3&#45;&gt;Node8 -->
<g id="edge8" class="edge">
<title>Node3&#45;&gt;Node8</title>
<path fill="none" stroke="#191970" d="M370.9691,-116.1091C440.7331,-84.9216 469.3432,-106.9126 537,-80 541.3574,-78.2667 545.757,-76.2597 550.1058,-74.0862"/>
<polygon fill="none" stroke="#191970" points="369.3568,-112.9993 361.7856,-120.4106 372.326,-119.3384 369.3568,-112.9993"/>
</g>
</g>
</svg>
