<?xml version="1.0" encoding="UTF-8" standalone="no"?>
<!DOCTYPE svg PUBLIC "-//W3C//DTD SVG 1.1//EN"
 "http://www.w3.org/Graphics/SVG/1.1/DTD/svg11.dtd">
<!-- Generated by graphviz version 2.40.1 (20161225.0304)
 -->
<!-- Title: L4virtio::Virtqueue::used_size Pages: 1 -->
<svg width="292pt" height="39pt"
 viewBox="0.00 0.00 292.00 39.00" xmlns="http://www.w3.org/2000/svg" xmlns:xlink="http://www.w3.org/1999/xlink">
<g id="graph0" class="graph" transform="scale(1 1) rotate(0) translate(4 35)">
<title>L4virtio::Virtqueue::used_size</title>
<polygon fill="#ffffff" stroke="transparent" points="-4,4 -4,-35 288,-35 288,4 -4,4"/>
<!-- Node53 -->
<g id="node1" class="node">
<title>Node53</title>
<polygon fill="#bfbfbf" stroke="#000000" points="0,-.5 0,-30.5 100,-30.5 100,-.5 0,-.5"/>
<text text-anchor="start" x="8" y="-18.5" font-family="Helvetica,sans-Serif" font-size="10.00" fill="#000000">L4virtio::Virtqueue</text>
<text text-anchor="middle" x="50" y="-7.5" font-family="Helvetica,sans-Serif" font-size="10.00" fill="#000000">::used_size</text>
</g>
<!-- Node54 -->
<g id="node2" class="node">
<title>Node54</title>
<g id="a_node2"><a xlink:href="classL4virtio_1_1Svr_1_1Device__t.html#ab906b4cc61026fd815a8056f07bef10e" target="_top" xlink:title="Enable/disable the specified queue. ">
<polygon fill="#ffffff" stroke="#000000" points="136,-.5 136,-30.5 284,-30.5 284,-.5 136,-.5"/>
<text text-anchor="start" x="144" y="-18.5" font-family="Helvetica,sans-Serif" font-size="10.00" fill="#000000">L4virtio::Svr::Device</text>
<text text-anchor="middle" x="210" y="-7.5" font-family="Helvetica,sans-Serif" font-size="10.00" fill="#000000">_t&lt; Ds_data &gt;::setup_queue</text>
</a>
</g>
</g>
<!-- Node53&#45;&gt;Node54 -->
<g id="edge1" class="edge">
<title>Node53&#45;&gt;Node54</title>
<path fill="none" stroke="#191970" d="M110.2485,-15.5C118.6461,-15.5 127.3535,-15.5 135.968,-15.5"/>
<polygon fill="#191970" stroke="#191970" points="110.186,-12.0001 100.186,-15.5 110.186,-19.0001 110.186,-12.0001"/>
</g>
</g>
</svg>
