<?xml version="1.0" encoding="UTF-8" standalone="no"?>
<!DOCTYPE svg PUBLIC "-//W3C//DTD SVG 1.1//EN"
 "http://www.w3.org/Graphics/SVG/1.1/DTD/svg11.dtd">
<!-- Generated by graphviz version 2.40.1 (20161225.0304)
 -->
<!-- Title: cxx::Bitmap_base::scan_zero Pages: 1 -->
<svg width="345pt" height="104pt"
 viewBox="0.00 0.00 345.00 104.00" xmlns="http://www.w3.org/2000/svg" xmlns:xlink="http://www.w3.org/1999/xlink">
<g id="graph0" class="graph" transform="scale(1 1) rotate(0) translate(4 100)">
<title>cxx::Bitmap_base::scan_zero</title>
<polygon fill="#ffffff" stroke="transparent" points="-4,4 -4,-100 341,-100 341,4 -4,4"/>
<!-- Node32 -->
<g id="node1" class="node">
<title>Node32</title>
<polygon fill="#bfbfbf" stroke="#000000" points="0,-38.5 0,-57.5 152,-57.5 152,-38.5 0,-38.5"/>
<text text-anchor="middle" x="76" y="-45.5" font-family="Helvetica,sans-Serif" font-size="10.00" fill="#000000">cxx::Bitmap_base::scan_zero</text>
</g>
<!-- Node33 -->
<g id="node2" class="node">
<title>Node33</title>
<g id="a_node2"><a xlink:href="classcxx_1_1Bitmap.html#acd38b76598f35a29aa8fc0d1dc6accd3" target="_top" xlink:title="Create a bitmap with BITS bits. ">
<polygon fill="#ffffff" stroke="#000000" points="209.5,-76.5 209.5,-95.5 315.5,-95.5 315.5,-76.5 209.5,-76.5"/>
<text text-anchor="middle" x="262.5" y="-83.5" font-family="Helvetica,sans-Serif" font-size="10.00" fill="#000000">cxx::Bitmap::Bitmap</text>
</a>
</g>
</g>
<!-- Node32&#45;&gt;Node33 -->
<g id="edge1" class="edge">
<title>Node32&#45;&gt;Node33</title>
<path fill="none" stroke="#191970" d="M132.9782,-59.6095C159.5028,-65.014 190.6657,-71.3635 215.7766,-76.4799"/>
<polygon fill="#191970" stroke="#191970" points="133.5593,-56.1561 123.0618,-57.589 132.1617,-63.0151 133.5593,-56.1561"/>
</g>
<!-- Node34 -->
<g id="node3" class="node">
<title>Node34</title>
<g id="a_node3"><a xlink:href="classcxx_1_1Bitmap__base.html#a6d3c655690f5e2a57967fb35e1ebdd28" target="_top" xlink:title="Get the lvalue for the bit at index bit. ">
<polygon fill="#ffffff" stroke="#000000" points="188,-38.5 188,-57.5 337,-57.5 337,-38.5 188,-38.5"/>
<text text-anchor="middle" x="262.5" y="-45.5" font-family="Helvetica,sans-Serif" font-size="10.00" fill="#000000">cxx::Bitmap_base::operator[]</text>
</a>
</g>
</g>
<!-- Node32&#45;&gt;Node34 -->
<g id="edge2" class="edge">
<title>Node32&#45;&gt;Node34</title>
<path fill="none" stroke="#191970" d="M162.1409,-48C170.7189,-48 179.3776,-48 187.8243,-48"/>
<polygon fill="#191970" stroke="#191970" points="162.1257,-44.5001 152.1257,-48 162.1256,-51.5001 162.1257,-44.5001"/>
</g>
<!-- Node35 -->
<g id="node4" class="node">
<title>Node35</title>
<g id="a_node4"><a xlink:href="classcxx_1_1Bitmap.html#a5eca163c43ec6bc8a5e05b4671801789" target="_top" xlink:title="Scan for the first zero bit. ">
<polygon fill="#ffffff" stroke="#000000" points="201,-.5 201,-19.5 324,-19.5 324,-.5 201,-.5"/>
<text text-anchor="middle" x="262.5" y="-7.5" font-family="Helvetica,sans-Serif" font-size="10.00" fill="#000000">cxx::Bitmap::scan_zero</text>
</a>
</g>
</g>
<!-- Node32&#45;&gt;Node35 -->
<g id="edge3" class="edge">
<title>Node32&#45;&gt;Node35</title>
<path fill="none" stroke="#191970" d="M132.9782,-36.3905C159.5028,-30.986 190.6657,-24.6365 215.7766,-19.5201"/>
<polygon fill="#191970" stroke="#191970" points="132.1617,-32.9849 123.0618,-38.411 133.5593,-39.8439 132.1617,-32.9849"/>
</g>
</g>
</svg>
