<?xml version="1.0" encoding="UTF-8" standalone="no"?>
<!DOCTYPE svg PUBLIC "-//W3C//DTD SVG 1.1//EN"
 "http://www.w3.org/Graphics/SVG/1.1/DTD/svg11.dtd">
<!-- Generated by graphviz version 2.40.1 (20161225.0304)
 -->
<!-- Title: L4::Ipc_svr::Server_iface Pages: 1 -->
<svg width="480pt" height="691pt"
 viewBox="0.00 0.00 480.00 691.00" xmlns="http://www.w3.org/2000/svg" xmlns:xlink="http://www.w3.org/1999/xlink">
<g id="graph0" class="graph" transform="scale(1 1) rotate(0) translate(4 687)">
<title>L4::Ipc_svr::Server_iface</title>
<polygon fill="#ffffff" stroke="transparent" points="-4,4 -4,-687 476,-687 476,4 -4,4"/>
<!-- Node0 -->
<g id="node1" class="node">
<title>Node0</title>
<polygon fill="#bfbfbf" stroke="#000000" points="222,-526.5 222,-682.5 354,-682.5 354,-526.5 222,-526.5"/>
<text text-anchor="start" x="230" y="-670.5" font-family="Helvetica,sans-Serif" font-size="10.00" fill="#000000">L4::Ipc_svr::Server</text>
<text text-anchor="middle" x="288" y="-659.5" font-family="Helvetica,sans-Serif" font-size="10.00" fill="#000000">_iface</text>
<polyline fill="none" stroke="#000000" points="222,-652.5 354,-652.5 "/>
<text text-anchor="middle" x="288" y="-640.5" font-family="Helvetica,sans-Serif" font-size="10.00" fill="#000000"> </text>
<polyline fill="none" stroke="#000000" points="222,-633.5 354,-633.5 "/>
<text text-anchor="start" x="230" y="-621.5" font-family="Helvetica,sans-Serif" font-size="10.00" fill="#000000">+ Server_iface()</text>
<text text-anchor="start" x="230" y="-610.5" font-family="Helvetica,sans-Serif" font-size="10.00" fill="#000000">+ ~Server_iface()</text>
<text text-anchor="start" x="230" y="-599.5" font-family="Helvetica,sans-Serif" font-size="10.00" fill="#000000">+ alloc_buffer_demand()</text>
<text text-anchor="start" x="230" y="-588.5" font-family="Helvetica,sans-Serif" font-size="10.00" fill="#000000">+ get_rcv_cap()</text>
<text text-anchor="start" x="230" y="-577.5" font-family="Helvetica,sans-Serif" font-size="10.00" fill="#000000">+ realloc_rcv_cap()</text>
<text text-anchor="start" x="230" y="-566.5" font-family="Helvetica,sans-Serif" font-size="10.00" fill="#000000">+ add_timeout()</text>
<text text-anchor="start" x="230" y="-555.5" font-family="Helvetica,sans-Serif" font-size="10.00" fill="#000000">+ remove_timeout()</text>
<text text-anchor="start" x="230" y="-544.5" font-family="Helvetica,sans-Serif" font-size="10.00" fill="#000000">+ rcv_cap()</text>
<text text-anchor="start" x="230" y="-533.5" font-family="Helvetica,sans-Serif" font-size="10.00" fill="#000000">+ rcv_cap()</text>
</g>
<!-- Node1 -->
<g id="node2" class="node">
<title>Node1</title>
<g id="a_node2"><a xlink:href="classL4_1_1Ipc__svr_1_1Br__manager__no__buffers.html" target="_top" xlink:title="Empty implementation of Server_iface. ">
<polygon fill="#ffffff" stroke="#000000" points="0,-321.5 0,-455.5 132,-455.5 132,-321.5 0,-321.5"/>
<text text-anchor="start" x="8" y="-443.5" font-family="Helvetica,sans-Serif" font-size="10.00" fill="#000000">L4::Ipc_svr::Br_manager</text>
<text text-anchor="middle" x="66" y="-432.5" font-family="Helvetica,sans-Serif" font-size="10.00" fill="#000000">_no_buffers</text>
<polyline fill="none" stroke="#000000" points="0,-425.5 132,-425.5 "/>
<text text-anchor="middle" x="66" y="-413.5" font-family="Helvetica,sans-Serif" font-size="10.00" fill="#000000"> </text>
<polyline fill="none" stroke="#000000" points="0,-406.5 132,-406.5 "/>
<text text-anchor="start" x="8" y="-394.5" font-family="Helvetica,sans-Serif" font-size="10.00" fill="#000000">+ alloc_buffer_demand()</text>
<text text-anchor="start" x="8" y="-383.5" font-family="Helvetica,sans-Serif" font-size="10.00" fill="#000000">+ get_rcv_cap()</text>
<text text-anchor="start" x="8" y="-372.5" font-family="Helvetica,sans-Serif" font-size="10.00" fill="#000000">+ realloc_rcv_cap()</text>
<text text-anchor="start" x="8" y="-361.5" font-family="Helvetica,sans-Serif" font-size="10.00" fill="#000000">+ add_timeout()</text>
<text text-anchor="start" x="8" y="-350.5" font-family="Helvetica,sans-Serif" font-size="10.00" fill="#000000">+ remove_timeout()</text>
<text text-anchor="start" x="8" y="-339.5" font-family="Helvetica,sans-Serif" font-size="10.00" fill="#000000"># first_free_br()</text>
<text text-anchor="start" x="8" y="-328.5" font-family="Helvetica,sans-Serif" font-size="10.00" fill="#000000"># setup_wait()</text>
</a>
</g>
</g>
<!-- Node0&#45;&gt;Node1 -->
<g id="edge1" class="edge">
<title>Node0&#45;&gt;Node1</title>
<path fill="none" stroke="#191970" d="M213.7847,-552.2795C189.4288,-533.591 162.9901,-511.5437 141,-489 131.0428,-478.7921 121.2711,-467.2287 112.2418,-455.6716"/>
<polygon fill="none" stroke="#191970" points="211.8747,-555.2238 221.9553,-558.4845 216.1083,-549.6492 211.8747,-555.2238"/>
</g>
<!-- Node3 -->
<g id="node4" class="node">
<title>Node3</title>
<g id="a_node4"><a xlink:href="classL4_1_1Ipc__svr_1_1Timeout__queue__hooks.html" target="_top" xlink:title="Loop hooks mixin for integrating a timeout queue into the server loop. ">
<polygon fill="#ffffff" stroke="#000000" points="150,-327 150,-450 284,-450 284,-327 150,-327"/>
<text text-anchor="start" x="158" y="-438" font-family="Helvetica,sans-Serif" font-size="10.00" fill="#000000">L4::Ipc_svr::Timeout</text>
<text text-anchor="start" x="158" y="-427" font-family="Helvetica,sans-Serif" font-size="10.00" fill="#000000">_queue_hooks&lt; HOOKS,</text>
<text text-anchor="middle" x="217" y="-416" font-family="Helvetica,sans-Serif" font-size="10.00" fill="#000000"> BR_MAN &gt;</text>
<polyline fill="none" stroke="#000000" points="150,-409 284,-409 "/>
<text text-anchor="start" x="158" y="-397" font-family="Helvetica,sans-Serif" font-size="10.00" fill="#000000">+ queue</text>
<polyline fill="none" stroke="#000000" points="150,-390 284,-390 "/>
<text text-anchor="start" x="158" y="-378" font-family="Helvetica,sans-Serif" font-size="10.00" fill="#000000">+ timeout()</text>
<text text-anchor="start" x="158" y="-367" font-family="Helvetica,sans-Serif" font-size="10.00" fill="#000000">+ setup_wait()</text>
<text text-anchor="start" x="158" y="-356" font-family="Helvetica,sans-Serif" font-size="10.00" fill="#000000">+ before_reply()</text>
<text text-anchor="start" x="158" y="-345" font-family="Helvetica,sans-Serif" font-size="10.00" fill="#000000">+ add_timeout()</text>
<text text-anchor="start" x="158" y="-334" font-family="Helvetica,sans-Serif" font-size="10.00" fill="#000000">+ remove_timeout()</text>
</a>
</g>
</g>
<!-- Node0&#45;&gt;Node3 -->
<g id="edge3" class="edge">
<title>Node0&#45;&gt;Node3</title>
<path fill="none" stroke="#191970" d="M259.0566,-516.4468C251.759,-494.2457 244.0785,-470.8796 237.3069,-450.2789"/>
<polygon fill="none" stroke="#191970" points="255.8193,-517.8067 262.267,-526.2136 262.4692,-515.6207 255.8193,-517.8067"/>
</g>
<!-- Node4 -->
<g id="node5" class="node">
<title>Node4</title>
<g id="a_node5"><a xlink:href="classL4_1_1Ipc__svr_1_1Timeout__queue__hooks.html" target="_top" xlink:title="{L4::Ipc_svr::Timeout\l_queue_hooks\&lt; Br_manager\l_timeout_hooks, Br_manager \&gt;\n|+ queue\l|+ timeout()\l+ setup_wait()\l+ before_reply()\l+ add_timeout()\l+ remove_timeout()\l}">
<polygon fill="#ffffff" stroke="#000000" points="149,-106.5 149,-229.5 313,-229.5 313,-106.5 149,-106.5"/>
<text text-anchor="start" x="157" y="-217.5" font-family="Helvetica,sans-Serif" font-size="10.00" fill="#000000">L4::Ipc_svr::Timeout</text>
<text text-anchor="start" x="157" y="-206.5" font-family="Helvetica,sans-Serif" font-size="10.00" fill="#000000">_queue_hooks&lt; Br_manager</text>
<text text-anchor="middle" x="231" y="-195.5" font-family="Helvetica,sans-Serif" font-size="10.00" fill="#000000">_timeout_hooks, Br_manager &gt;</text>
<polyline fill="none" stroke="#000000" points="149,-188.5 313,-188.5 "/>
<text text-anchor="start" x="157" y="-176.5" font-family="Helvetica,sans-Serif" font-size="10.00" fill="#000000">+ queue</text>
<polyline fill="none" stroke="#000000" points="149,-169.5 313,-169.5 "/>
<text text-anchor="start" x="157" y="-157.5" font-family="Helvetica,sans-Serif" font-size="10.00" fill="#000000">+ timeout()</text>
<text text-anchor="start" x="157" y="-146.5" font-family="Helvetica,sans-Serif" font-size="10.00" fill="#000000">+ setup_wait()</text>
<text text-anchor="start" x="157" y="-135.5" font-family="Helvetica,sans-Serif" font-size="10.00" fill="#000000">+ before_reply()</text>
<text text-anchor="start" x="157" y="-124.5" font-family="Helvetica,sans-Serif" font-size="10.00" fill="#000000">+ add_timeout()</text>
<text text-anchor="start" x="157" y="-113.5" font-family="Helvetica,sans-Serif" font-size="10.00" fill="#000000">+ remove_timeout()</text>
</a>
</g>
</g>
<!-- Node0&#45;&gt;Node4 -->
<g id="edge8" class="edge">
<title>Node0&#45;&gt;Node4</title>
<path fill="none" stroke="#191970" d="M308.1153,-516.2174C320.8727,-442.2634 329.6625,-335.1193 298,-248 295.7104,-241.7001 292.683,-235.5501 289.179,-229.6383"/>
<polygon fill="none" stroke="#191970" points="304.6047,-515.9673 306.2926,-526.4268 311.4957,-517.1976 304.6047,-515.9673"/>
</g>
<!-- Node6 -->
<g id="node7" class="node">
<title>Node6</title>
<g id="a_node7"><a xlink:href="classL4Re_1_1Util_1_1Br__manager.html" target="_top" xlink:title="Buffer&#45;register (BR) manager for L4::Server. ">
<polygon fill="#ffffff" stroke="#000000" points="340,-288.5 340,-488.5 472,-488.5 472,-288.5 340,-288.5"/>
<text text-anchor="middle" x="406" y="-476.5" font-family="Helvetica,sans-Serif" font-size="10.00" fill="#000000">L4Re::Util::Br_manager</text>
<polyline fill="none" stroke="#000000" points="340,-469.5 472,-469.5 "/>
<text text-anchor="middle" x="406" y="-457.5" font-family="Helvetica,sans-Serif" font-size="10.00" fill="#000000"> </text>
<polyline fill="none" stroke="#000000" points="340,-450.5 472,-450.5 "/>
<text text-anchor="start" x="348" y="-438.5" font-family="Helvetica,sans-Serif" font-size="10.00" fill="#000000">+ Br_manager()</text>
<text text-anchor="start" x="348" y="-427.5" font-family="Helvetica,sans-Serif" font-size="10.00" fill="#000000">+ Br_manager()</text>
<text text-anchor="start" x="348" y="-416.5" font-family="Helvetica,sans-Serif" font-size="10.00" fill="#000000">+ operator=()</text>
<text text-anchor="start" x="348" y="-405.5" font-family="Helvetica,sans-Serif" font-size="10.00" fill="#000000">+ Br_manager()</text>
<text text-anchor="start" x="348" y="-394.5" font-family="Helvetica,sans-Serif" font-size="10.00" fill="#000000">+ operator=()</text>
<text text-anchor="start" x="348" y="-383.5" font-family="Helvetica,sans-Serif" font-size="10.00" fill="#000000">+ ~Br_manager()</text>
<text text-anchor="start" x="348" y="-372.5" font-family="Helvetica,sans-Serif" font-size="10.00" fill="#000000">+ alloc_buffer_demand()</text>
<text text-anchor="start" x="348" y="-361.5" font-family="Helvetica,sans-Serif" font-size="10.00" fill="#000000">+ get_rcv_cap()</text>
<text text-anchor="start" x="348" y="-350.5" font-family="Helvetica,sans-Serif" font-size="10.00" fill="#000000">+ realloc_rcv_cap()</text>
<text text-anchor="start" x="348" y="-339.5" font-family="Helvetica,sans-Serif" font-size="10.00" fill="#000000">+ set_rcv_cap_flags()</text>
<text text-anchor="start" x="348" y="-328.5" font-family="Helvetica,sans-Serif" font-size="10.00" fill="#000000">+ add_timeout()</text>
<text text-anchor="start" x="348" y="-317.5" font-family="Helvetica,sans-Serif" font-size="10.00" fill="#000000">+ remove_timeout()</text>
<text text-anchor="start" x="348" y="-306.5" font-family="Helvetica,sans-Serif" font-size="10.00" fill="#000000">+ setup_wait()</text>
<text text-anchor="start" x="348" y="-295.5" font-family="Helvetica,sans-Serif" font-size="10.00" fill="#000000"># first_free_br()</text>
</a>
</g>
</g>
<!-- Node0&#45;&gt;Node6 -->
<g id="edge6" class="edge">
<title>Node0&#45;&gt;Node6</title>
<path fill="none" stroke="#191970" d="M335.6549,-517.2673C340.7963,-507.856 346.057,-498.2261 351.2731,-488.6781"/>
<polygon fill="none" stroke="#191970" points="332.4903,-515.7598 330.7675,-526.2136 338.6334,-519.1158 332.4903,-515.7598"/>
</g>
<!-- Node2 -->
<g id="node3" class="node">
<title>Node2</title>
<g id="a_node3"><a xlink:href="structL4_1_1Ipc__svr_1_1Default__loop__hooks.html" target="_top" xlink:title="Default LOOP_HOOKS. ">
<polygon fill="#ffffff" stroke="#000000" points="13.5,-134 13.5,-202 118.5,-202 118.5,-134 13.5,-134"/>
<text text-anchor="start" x="21.5" y="-190" font-family="Helvetica,sans-Serif" font-size="10.00" fill="#000000">L4::Ipc_svr::Default</text>
<text text-anchor="middle" x="66" y="-179" font-family="Helvetica,sans-Serif" font-size="10.00" fill="#000000">_loop_hooks</text>
<polyline fill="none" stroke="#000000" points="13.5,-172 118.5,-172 "/>
<text text-anchor="middle" x="66" y="-160" font-family="Helvetica,sans-Serif" font-size="10.00" fill="#000000"> </text>
<polyline fill="none" stroke="#000000" points="13.5,-153 118.5,-153 "/>
<text text-anchor="middle" x="66" y="-141" font-family="Helvetica,sans-Serif" font-size="10.00" fill="#000000"> </text>
</a>
</g>
</g>
<!-- Node1&#45;&gt;Node2 -->
<g id="edge2" class="edge">
<title>Node1&#45;&gt;Node2</title>
<path fill="none" stroke="#191970" d="M66,-311.1078C66,-273.8854 66,-231.1636 66,-202.1588"/>
<polygon fill="none" stroke="#191970" points="62.5001,-311.4446 66,-321.4446 69.5001,-311.4447 62.5001,-311.4446"/>
</g>
<!-- Node3&#45;&gt;Node4 -->
<g id="edge4" class="edge">
<title>Node3&#45;&gt;Node4</title>
<path fill="none" stroke="#ffa500" d="M188.8678,-317.001C183.5769,-294.8001 181.2704,-270.3065 187,-248 188.5774,-241.8589 190.736,-235.6838 193.2558,-229.6353"/>
<polygon fill="#ffa500" stroke="#ffa500" points="185.4849,-317.8995 191.3963,-326.6919 192.2582,-316.1322 185.4849,-317.8995"/>
<text text-anchor="start" x="187" y="-262" font-family="Helvetica,sans-Serif" font-size="10.00" fill="#000000"> &lt; Br_manager_timeout</text>
<text text-anchor="middle" x="242.5" y="-251" font-family="Helvetica,sans-Serif" font-size="10.00" fill="#000000">_hooks, Br_manager &gt;</text>
</g>
<!-- Node5 -->
<g id="node6" class="node">
<title>Node5</title>
<g id="a_node6"><a xlink:href="structL4Re_1_1Util_1_1Br__manager__timeout__hooks.html" target="_top" xlink:title="Predefined server&#45;loop hooks for a server with using the Br_manager and a timeout queue...">
<polygon fill="#ffffff" stroke="#000000" points="168.5,-.5 168.5,-68.5 293.5,-68.5 293.5,-.5 168.5,-.5"/>
<text text-anchor="start" x="176.5" y="-56.5" font-family="Helvetica,sans-Serif" font-size="10.00" fill="#000000">L4Re::Util::Br_manager</text>
<text text-anchor="middle" x="231" y="-45.5" font-family="Helvetica,sans-Serif" font-size="10.00" fill="#000000">_timeout_hooks</text>
<polyline fill="none" stroke="#000000" points="168.5,-38.5 293.5,-38.5 "/>
<text text-anchor="middle" x="231" y="-26.5" font-family="Helvetica,sans-Serif" font-size="10.00" fill="#000000"> </text>
<polyline fill="none" stroke="#000000" points="168.5,-19.5 293.5,-19.5 "/>
<text text-anchor="start" x="176.5" y="-7.5" font-family="Helvetica,sans-Serif" font-size="10.00" fill="#000000">+ now()</text>
</a>
</g>
</g>
<!-- Node4&#45;&gt;Node5 -->
<g id="edge5" class="edge">
<title>Node4&#45;&gt;Node5</title>
<path fill="none" stroke="#191970" d="M231,-96.2729C231,-86.6379 231,-77.1419 231,-68.5939"/>
<polygon fill="none" stroke="#191970" points="227.5001,-96.3301 231,-106.3301 234.5001,-96.3301 227.5001,-96.3301"/>
</g>
<!-- Node7 -->
<g id="node8" class="node">
<title>Node7</title>
<g id="a_node8"><a xlink:href="structL4Re_1_1Util_1_1Br__manager__hooks.html" target="_top" xlink:title="Predefined server&#45;loop hooks for a server loop using the Br_manager. ">
<polygon fill="#ffffff" stroke="#000000" points="343.5,-134 343.5,-202 468.5,-202 468.5,-134 343.5,-134"/>
<text text-anchor="start" x="351.5" y="-190" font-family="Helvetica,sans-Serif" font-size="10.00" fill="#000000">L4Re::Util::Br_manager</text>
<text text-anchor="middle" x="406" y="-179" font-family="Helvetica,sans-Serif" font-size="10.00" fill="#000000">_hooks</text>
<polyline fill="none" stroke="#000000" points="343.5,-172 468.5,-172 "/>
<text text-anchor="middle" x="406" y="-160" font-family="Helvetica,sans-Serif" font-size="10.00" fill="#000000"> </text>
<polyline fill="none" stroke="#000000" points="343.5,-153 468.5,-153 "/>
<text text-anchor="middle" x="406" y="-141" font-family="Helvetica,sans-Serif" font-size="10.00" fill="#000000"> </text>
</a>
</g>
</g>
<!-- Node6&#45;&gt;Node7 -->
<g id="edge7" class="edge">
<title>Node6&#45;&gt;Node7</title>
<path fill="none" stroke="#191970" d="M406,-278.0719C406,-250.4107 406,-222.7644 406,-202.098"/>
<polygon fill="none" stroke="#191970" points="402.5001,-278.2507 406,-288.2507 409.5001,-278.2507 402.5001,-278.2507"/>
</g>
</g>
</svg>
