<?xml version="1.0" encoding="UTF-8" standalone="no"?>
<!DOCTYPE svg PUBLIC "-//W3C//DTD SVG 1.1//EN"
 "http://www.w3.org/Graphics/SVG/1.1/DTD/svg11.dtd">
<!-- Generated by graphviz version 2.40.1 (20161225.0304)
 -->
<!-- Title: L4::Cap_base::is_valid Pages: 1 -->
<svg width="449pt" height="340pt"
 viewBox="0.00 0.00 449.00 339.50" xmlns="http://www.w3.org/2000/svg" xmlns:xlink="http://www.w3.org/1999/xlink">
<g id="graph0" class="graph" transform="scale(1 1) rotate(0) translate(4 335.5)">
<title>L4::Cap_base::is_valid</title>
<polygon fill="#ffffff" stroke="transparent" points="-4,4 -4,-335.5 445,-335.5 445,4 -4,4"/>
<!-- Node55 -->
<g id="node1" class="node">
<title>Node55</title>
<polygon fill="#bfbfbf" stroke="#000000" points="0,-167 0,-186 121,-186 121,-167 0,-167"/>
<text text-anchor="middle" x="60.5" y="-174" font-family="Helvetica,sans-Serif" font-size="10.00" fill="#000000">L4::Cap_base::is_valid</text>
</g>
<!-- Node56 -->
<g id="node2" class="node">
<title>Node56</title>
<g id="a_node2"><a xlink:href="classL4Re_1_1Rm.html#a81c3edf15190139911ab69211c0a4bc4" target="_top" xlink:title="Attach a data space to a region. ">
<polygon fill="#ffffff" stroke="#000000" points="173.5,-312 173.5,-331 269.5,-331 269.5,-312 173.5,-312"/>
<text text-anchor="middle" x="221.5" y="-319" font-family="Helvetica,sans-Serif" font-size="10.00" fill="#000000">L4Re::Rm::attach</text>
</a>
</g>
</g>
<!-- Node55&#45;&gt;Node56 -->
<g id="edge1" class="edge">
<title>Node55&#45;&gt;Node56</title>
<path fill="none" stroke="#191970" d="M69.7421,-195.023C84.436,-222.5792 115.7348,-274.1572 157,-302.5 162.6773,-306.3994 169.1637,-309.5106 175.7847,-311.9899"/>
<polygon fill="#191970" stroke="#191970" points="72.7992,-193.3151 65.0921,-186.0451 66.5834,-196.5345 72.7992,-193.3151"/>
</g>
<!-- Node57 -->
<g id="node3" class="node">
<title>Node57</title>
<g id="a_node3"><a xlink:href="classL4_1_1Cap__base.html#a1501f9852fda4c01a1591a7c53585d5f" target="_top" xlink:title="Copy a capability. ">
<polygon fill="#ffffff" stroke="#000000" points="167.5,-274 167.5,-293 275.5,-293 275.5,-274 167.5,-274"/>
<text text-anchor="middle" x="221.5" y="-281" font-family="Helvetica,sans-Serif" font-size="10.00" fill="#000000">L4::Cap_base::copy</text>
</a>
</g>
</g>
<!-- Node55&#45;&gt;Node57 -->
<g id="edge2" class="edge">
<title>Node55&#45;&gt;Node57</title>
<path fill="none" stroke="#191970" d="M75.1035,-193.9201C92.6229,-213.7506 123.8102,-245.8077 157,-264.5 163.8149,-268.3381 171.4806,-271.4686 179.0851,-273.999"/>
<polygon fill="#191970" stroke="#191970" points="77.6545,-191.5192 68.466,-186.2445 72.3597,-196.098 77.6545,-191.5192"/>
</g>
<!-- Node60 -->
<g id="node6" class="node">
<title>Node60</title>
<g id="a_node6"><a xlink:href="classL4Re_1_1Smart__count__cap.html#a4f5fee6c54e153aba5b2cf33e4c5c5ec" target="_top" xlink:title="Copy operation for L4::Smart_cap (increment ref count). ">
<polygon fill="#ffffff" stroke="#000000" points="157,-186.5 157,-216.5 286,-216.5 286,-186.5 157,-186.5"/>
<text text-anchor="start" x="165" y="-204.5" font-family="Helvetica,sans-Serif" font-size="10.00" fill="#000000">L4Re::Smart_count_cap</text>
<text text-anchor="middle" x="221.5" y="-193.5" font-family="Helvetica,sans-Serif" font-size="10.00" fill="#000000">::copy</text>
</a>
</g>
</g>
<!-- Node55&#45;&gt;Node60 -->
<g id="edge5" class="edge">
<title>Node55&#45;&gt;Node60</title>
<path fill="none" stroke="#191970" d="M131.5254,-187.5288C139.9307,-188.834 148.4758,-190.1608 156.7871,-191.4514"/>
<polygon fill="#191970" stroke="#191970" points="131.7858,-184.0274 121.3672,-185.9514 130.7117,-190.9445 131.7858,-184.0274"/>
</g>
<!-- Node61 -->
<g id="node7" class="node">
<title>Node61</title>
<g id="a_node7"><a xlink:href="classL4Re_1_1Util_1_1Smart__cap__auto.html#a4dfba4f2c4731689f1a53992c83371a6" target="_top" xlink:title="Free operation for L4::Smart_cap. ">
<polygon fill="#ffffff" stroke="#000000" points="163,-137.5 163,-167.5 280,-167.5 280,-137.5 163,-137.5"/>
<text text-anchor="start" x="171" y="-155.5" font-family="Helvetica,sans-Serif" font-size="10.00" fill="#000000">L4Re::Util::Smart_cap</text>
<text text-anchor="middle" x="221.5" y="-144.5" font-family="Helvetica,sans-Serif" font-size="10.00" fill="#000000">_auto::free</text>
</a>
</g>
</g>
<!-- Node55&#45;&gt;Node61 -->
<g id="edge6" class="edge">
<title>Node55&#45;&gt;Node61</title>
<path fill="none" stroke="#191970" d="M131.3826,-165.9336C141.9253,-164.3621 152.6912,-162.7572 162.943,-161.229"/>
<polygon fill="#191970" stroke="#191970" points="130.7418,-162.4904 121.3672,-167.4266 131.774,-169.4139 130.7418,-162.4904"/>
</g>
<!-- Node62 -->
<g id="node8" class="node">
<title>Node62</title>
<g id="a_node8"><a xlink:href="classL4Re_1_1Util_1_1Smart__cap__auto.html#a19c486ceece95f48ce148fc3235ddca5" target="_top" xlink:title="Invalidate operation for L4::Smart_cap. ">
<polygon fill="#ffffff" stroke="#000000" points="163,-88.5 163,-118.5 280,-118.5 280,-88.5 163,-88.5"/>
<text text-anchor="start" x="171" y="-106.5" font-family="Helvetica,sans-Serif" font-size="10.00" fill="#000000">L4Re::Util::Smart_cap</text>
<text text-anchor="middle" x="221.5" y="-95.5" font-family="Helvetica,sans-Serif" font-size="10.00" fill="#000000">_auto::invalidate</text>
</a>
</g>
</g>
<!-- Node55&#45;&gt;Node62 -->
<g id="edge7" class="edge">
<title>Node55&#45;&gt;Node62</title>
<path fill="none" stroke="#191970" d="M87.0223,-162.004C106.1922,-151.7813 132.8556,-138.0811 157,-127.5 164.0037,-124.4307 171.5368,-121.396 178.8968,-118.5705"/>
<polygon fill="#191970" stroke="#191970" points="85.1471,-159.0382 77.996,-166.8557 88.4613,-165.204 85.1471,-159.0382"/>
</g>
<!-- Node64 -->
<g id="node10" class="node">
<title>Node64</title>
<g id="a_node10"><a xlink:href="namespaceL4_1_1Ipc.html#adbf4d4604dff1525843c975cb5071e8a" target="_top" xlink:title="Make an L4::IPC::Cap&lt;T&gt; for the given capability with full fpage and object&#45;specific rights...">
<polygon fill="#ffffff" stroke="#000000" points="162,-50 162,-69 281,-69 281,-50 162,-50"/>
<text text-anchor="middle" x="221.5" y="-57" font-family="Helvetica,sans-Serif" font-size="10.00" fill="#000000">L4::Ipc::make_cap_full</text>
</a>
</g>
</g>
<!-- Node55&#45;&gt;Node64 -->
<g id="edge9" class="edge">
<title>Node55&#45;&gt;Node64</title>
<path fill="none" stroke="#191970" d="M73.3937,-158.6902C90.2213,-136.7052 121.7152,-99.6407 157,-78.5 163.4089,-74.6602 170.6445,-71.5527 177.8931,-69.0515"/>
<polygon fill="#191970" stroke="#191970" points="70.4872,-156.7327 67.302,-166.8374 76.0934,-160.9244 70.4872,-156.7327"/>
</g>
<!-- Node65 -->
<g id="node11" class="node">
<title>Node65</title>
<g id="a_node11"><a xlink:href="classL4_1_1Cap__base.html#ab6cd8e73ebbdb5dfa45355b7c1fde1c2" target="_top" xlink:title="Replace this capability with the contents of src. ">
<polygon fill="#ffffff" stroke="#000000" points="166,-236 166,-255 277,-255 277,-236 166,-236"/>
<text text-anchor="middle" x="221.5" y="-243" font-family="Helvetica,sans-Serif" font-size="10.00" fill="#000000">L4::Cap_base::move</text>
</a>
</g>
</g>
<!-- Node55&#45;&gt;Node65 -->
<g id="edge10" class="edge">
<title>Node55&#45;&gt;Node65</title>
<path fill="none" stroke="#191970" d="M85.4676,-191.1261C104.5923,-201.9091 131.8749,-216.3988 157,-226.5 165.7732,-230.0271 175.4519,-233.2244 184.5847,-235.9474"/>
<polygon fill="#191970" stroke="#191970" points="87.1993,-188.0845 76.7796,-186.1658 83.7285,-194.1635 87.1993,-188.0845"/>
</g>
<!-- Node67 -->
<g id="node13" class="node">
<title>Node67</title>
<g id="a_node13"><a xlink:href="classL4Re_1_1Video_1_1View.html#aac22679f4bbdd1d3fd9ed856c173dc03" target="_top" xlink:title="Return whether this view is valid. ">
<polygon fill="#ffffff" stroke="#000000" points="169,-.5 169,-30.5 274,-30.5 274,-.5 169,-.5"/>
<text text-anchor="start" x="177" y="-18.5" font-family="Helvetica,sans-Serif" font-size="10.00" fill="#000000">L4Re::Video::View::</text>
<text text-anchor="middle" x="221.5" y="-7.5" font-family="Helvetica,sans-Serif" font-size="10.00" fill="#000000">valid</text>
</a>
</g>
</g>
<!-- Node55&#45;&gt;Node67 -->
<g id="edge13" class="edge">
<title>Node55&#45;&gt;Node67</title>
<path fill="none" stroke="#191970" d="M69.2793,-157.7523C83.7206,-128.7929 115.1155,-73.1228 157,-40.5 161.9269,-36.6626 167.5135,-33.3526 173.2885,-30.5141"/>
<polygon fill="#191970" stroke="#191970" points="66.1057,-156.2753 64.8888,-166.8 72.4034,-159.3313 66.1057,-156.2753"/>
</g>
<!-- Node58 -->
<g id="node4" class="node">
<title>Node58</title>
<g id="a_node4"><a xlink:href="classL4_1_1Cap.html#a03750491e2cb888d26e2fbdfcc0b7dbc" target="_top" xlink:title="Copy a capability to this cap slot. ">
<polygon fill="#ffffff" stroke="#000000" points="322,-298.5 322,-328.5 441,-328.5 441,-298.5 322,-298.5"/>
<text text-anchor="start" x="330" y="-316.5" font-family="Helvetica,sans-Serif" font-size="10.00" fill="#000000">L4::Cap&lt; L4Re::Video</text>
<text text-anchor="middle" x="381.5" y="-305.5" font-family="Helvetica,sans-Serif" font-size="10.00" fill="#000000">::Goos &gt;::copy</text>
</a>
</g>
</g>
<!-- Node57&#45;&gt;Node58 -->
<g id="edge3" class="edge">
<title>Node57&#45;&gt;Node58</title>
<path fill="none" stroke="#191970" d="M282.722,-294.9791C295.6054,-297.3948 309.1774,-299.9395 321.9965,-302.3431"/>
<polygon fill="#191970" stroke="#191970" points="283.0387,-291.4776 272.5649,-293.0747 281.7486,-298.3577 283.0387,-291.4776"/>
</g>
<!-- Node59 -->
<g id="node5" class="node">
<title>Node59</title>
<g id="a_node5"><a xlink:href="classL4_1_1Cap.html#ab183360065af90ee45b808e8c9e626aa" target="_top" xlink:title="Member access of a T. ">
<polygon fill="#ffffff" stroke="#000000" points="322,-249.5 322,-279.5 441,-279.5 441,-249.5 322,-249.5"/>
<text text-anchor="start" x="330" y="-267.5" font-family="Helvetica,sans-Serif" font-size="10.00" fill="#000000">L4::Cap&lt; L4Re::Video</text>
<text text-anchor="middle" x="381.5" y="-256.5" font-family="Helvetica,sans-Serif" font-size="10.00" fill="#000000">::Goos &gt;::operator&#45;&gt;</text>
</a>
</g>
</g>
<!-- Node57&#45;&gt;Node59 -->
<g id="edge4" class="edge">
<title>Node57&#45;&gt;Node59</title>
<path fill="none" stroke="#191970" d="M285.952,-275.8463C297.8243,-274.4365 310.1718,-272.9702 321.8935,-271.5783"/>
<polygon fill="#191970" stroke="#191970" points="285.1862,-272.4126 275.6687,-277.0675 286.0117,-279.3637 285.1862,-272.4126"/>
</g>
<!-- Node63 -->
<g id="node9" class="node">
<title>Node63</title>
<g id="a_node9"><a xlink:href="classL4Re_1_1Util_1_1Smart__cap__auto.html#a5bd9db013c30e736b5cc2071589de771" target="_top" xlink:title="Copy operation for L4::Smart_cap. ">
<polygon fill="#ffffff" stroke="#000000" points="323,-88.5 323,-118.5 440,-118.5 440,-88.5 323,-88.5"/>
<text text-anchor="start" x="331" y="-106.5" font-family="Helvetica,sans-Serif" font-size="10.00" fill="#000000">L4Re::Util::Smart_cap</text>
<text text-anchor="middle" x="381.5" y="-95.5" font-family="Helvetica,sans-Serif" font-size="10.00" fill="#000000">_auto::copy</text>
</a>
</g>
</g>
<!-- Node62&#45;&gt;Node63 -->
<g id="edge8" class="edge">
<title>Node62&#45;&gt;Node63</title>
<path fill="none" stroke="#191970" d="M290.4154,-103.5C301.2173,-103.5 312.2941,-103.5 322.8375,-103.5"/>
<polygon fill="#191970" stroke="#191970" points="290.1696,-100.0001 280.1696,-103.5 290.1695,-107.0001 290.1696,-100.0001"/>
</g>
<!-- Node65&#45;&gt;Node59 -->
<g id="edge12" class="edge">
<title>Node65&#45;&gt;Node59</title>
<path fill="none" stroke="#191970" d="M287.0463,-253.2836C298.6168,-254.6576 310.6044,-256.0812 321.9974,-257.4341"/>
<polygon fill="#191970" stroke="#191970" points="287.3542,-249.7957 277.0112,-252.092 286.5287,-256.7468 287.3542,-249.7957"/>
</g>
<!-- Node66 -->
<g id="node12" class="node">
<title>Node66</title>
<g id="a_node12"><a xlink:href="classL4_1_1Cap.html#ae097fe17d218b76dc368a5383372168f" target="_top" xlink:title="Move a capability to this cap slot. ">
<polygon fill="#ffffff" stroke="#000000" points="322,-200.5 322,-230.5 441,-230.5 441,-200.5 322,-200.5"/>
<text text-anchor="start" x="330" y="-218.5" font-family="Helvetica,sans-Serif" font-size="10.00" fill="#000000">L4::Cap&lt; L4Re::Video</text>
<text text-anchor="middle" x="381.5" y="-207.5" font-family="Helvetica,sans-Serif" font-size="10.00" fill="#000000">::Goos &gt;::move</text>
</a>
</g>
</g>
<!-- Node65&#45;&gt;Node66 -->
<g id="edge11" class="edge">
<title>Node65&#45;&gt;Node66</title>
<path fill="none" stroke="#191970" d="M282.722,-234.0209C295.6054,-231.6052 309.1774,-229.0605 321.9965,-226.6569"/>
<polygon fill="#191970" stroke="#191970" points="281.7486,-230.6423 272.5649,-235.9253 283.0387,-237.5224 281.7486,-230.6423"/>
</g>
</g>
</svg>
