<?xml version="1.0" encoding="UTF-8" standalone="no"?>
<!DOCTYPE svg PUBLIC "-//W3C//DTD SVG 1.1//EN"
 "http://www.w3.org/Graphics/SVG/1.1/DTD/svg11.dtd">
<!-- Generated by graphviz version 2.40.1 (20161225.0304)
 -->
<!-- Title: cxx::List_item::Iter Pages: 1 -->
<svg width="174pt" height="563pt"
 viewBox="0.00 0.00 173.50 563.00" xmlns="http://www.w3.org/2000/svg" xmlns:xlink="http://www.w3.org/1999/xlink">
<g id="graph0" class="graph" transform="scale(1 1) rotate(0) translate(4 559)">
<title>cxx::List_item::Iter</title>
<polygon fill="#ffffff" stroke="transparent" points="-4,4 -4,-559 169.5,-559 169.5,4 -4,4"/>
<!-- Node0 -->
<g id="node1" class="node">
<title>Node0</title>
<polygon fill="#bfbfbf" stroke="#000000" points="48,-409.5 48,-554.5 147,-554.5 147,-409.5 48,-409.5"/>
<text text-anchor="middle" x="97.5" y="-542.5" font-family="Helvetica,sans-Serif" font-size="10.00" fill="#000000">cxx::List_item::Iter</text>
<polyline fill="none" stroke="#000000" points="48,-535.5 147,-535.5 "/>
<text text-anchor="middle" x="97.5" y="-523.5" font-family="Helvetica,sans-Serif" font-size="10.00" fill="#000000"> </text>
<polyline fill="none" stroke="#000000" points="48,-516.5 147,-516.5 "/>
<text text-anchor="start" x="56" y="-504.5" font-family="Helvetica,sans-Serif" font-size="10.00" fill="#000000">+ Iter()</text>
<text text-anchor="start" x="56" y="-493.5" font-family="Helvetica,sans-Serif" font-size="10.00" fill="#000000">+ Iter()</text>
<text text-anchor="start" x="56" y="-482.5" font-family="Helvetica,sans-Serif" font-size="10.00" fill="#000000">+ operator*()</text>
<text text-anchor="start" x="56" y="-471.5" font-family="Helvetica,sans-Serif" font-size="10.00" fill="#000000">+ operator&#45;&gt;()</text>
<text text-anchor="start" x="56" y="-460.5" font-family="Helvetica,sans-Serif" font-size="10.00" fill="#000000">+ operator++()</text>
<text text-anchor="start" x="56" y="-449.5" font-family="Helvetica,sans-Serif" font-size="10.00" fill="#000000">+ operator++()</text>
<text text-anchor="start" x="56" y="-438.5" font-family="Helvetica,sans-Serif" font-size="10.00" fill="#000000">+ operator&#45;&#45;()</text>
<text text-anchor="start" x="56" y="-427.5" font-family="Helvetica,sans-Serif" font-size="10.00" fill="#000000">+ operator&#45;&#45;()</text>
<text text-anchor="start" x="56" y="-416.5" font-family="Helvetica,sans-Serif" font-size="10.00" fill="#000000">+ remove_me()</text>
</g>
<!-- Node1 -->
<g id="node2" class="node">
<title>Node1</title>
<g id="a_node2"><a xlink:href="classcxx_1_1List__item_1_1T__iter.html" target="_top" xlink:title="Iterator for derived classes from ListItem. ">
<polygon fill="#ffffff" stroke="#000000" points="0,-204.5 0,-371.5 111,-371.5 111,-204.5 0,-204.5"/>
<text text-anchor="start" x="8" y="-359.5" font-family="Helvetica,sans-Serif" font-size="10.00" fill="#000000">cxx::List_item::T_iter</text>
<text text-anchor="middle" x="55.5" y="-348.5" font-family="Helvetica,sans-Serif" font-size="10.00" fill="#000000">&lt; T, Poly &gt;</text>
<polyline fill="none" stroke="#000000" points="0,-341.5 111,-341.5 "/>
<text text-anchor="middle" x="55.5" y="-329.5" font-family="Helvetica,sans-Serif" font-size="10.00" fill="#000000"> </text>
<polyline fill="none" stroke="#000000" points="0,-322.5 111,-322.5 "/>
<text text-anchor="start" x="8" y="-310.5" font-family="Helvetica,sans-Serif" font-size="10.00" fill="#000000">+ T_iter()</text>
<text text-anchor="start" x="8" y="-299.5" font-family="Helvetica,sans-Serif" font-size="10.00" fill="#000000">+ T_iter()</text>
<text text-anchor="start" x="8" y="-288.5" font-family="Helvetica,sans-Serif" font-size="10.00" fill="#000000">+ T_iter()</text>
<text text-anchor="start" x="8" y="-277.5" font-family="Helvetica,sans-Serif" font-size="10.00" fill="#000000">+ operator*()</text>
<text text-anchor="start" x="8" y="-266.5" font-family="Helvetica,sans-Serif" font-size="10.00" fill="#000000">+ operator&#45;&gt;()</text>
<text text-anchor="start" x="8" y="-255.5" font-family="Helvetica,sans-Serif" font-size="10.00" fill="#000000">+ operator++()</text>
<text text-anchor="start" x="8" y="-244.5" font-family="Helvetica,sans-Serif" font-size="10.00" fill="#000000">+ operator&#45;&#45;()</text>
<text text-anchor="start" x="8" y="-233.5" font-family="Helvetica,sans-Serif" font-size="10.00" fill="#000000">+ operator++()</text>
<text text-anchor="start" x="8" y="-222.5" font-family="Helvetica,sans-Serif" font-size="10.00" fill="#000000">+ operator&#45;&#45;()</text>
<text text-anchor="start" x="8" y="-211.5" font-family="Helvetica,sans-Serif" font-size="10.00" fill="#000000">+ remove_me()</text>
</a>
</g>
</g>
<!-- Node0&#45;&gt;Node1 -->
<g id="edge1" class="edge">
<title>Node0&#45;&gt;Node1</title>
<path fill="none" stroke="#191970" d="M79.6433,-399.5191C77.6374,-390.2536 75.5923,-380.8073 73.5835,-371.5286"/>
<polygon fill="none" stroke="#191970" points="76.2643,-400.4527 81.801,-409.4857 83.1058,-398.9715 76.2643,-400.4527"/>
</g>
<!-- Node2 -->
<g id="node3" class="node">
<title>Node2</title>
<g id="a_node3"><a xlink:href="classcxx_1_1List__item_1_1T__iter.html" target="_top" xlink:title="{cxx::List_item::T_iter\&lt; E \&gt;\n||+ T_iter()\l+ T_iter()\l+ T_iter()\l+ operator*()\l+ operator&#45;\&gt;()\l+ operator++()\l+ operator++()\l+ operator&#45;&#45;()\l+ operator&#45;&#45;()\l+ remove_me()\l}">
<polygon fill="#ffffff" stroke="#000000" points="29.5,-.5 29.5,-156.5 165.5,-156.5 165.5,-.5 29.5,-.5"/>
<text text-anchor="middle" x="97.5" y="-144.5" font-family="Helvetica,sans-Serif" font-size="10.00" fill="#000000">cxx::List_item::T_iter&lt; E &gt;</text>
<polyline fill="none" stroke="#000000" points="29.5,-137.5 165.5,-137.5 "/>
<text text-anchor="middle" x="97.5" y="-125.5" font-family="Helvetica,sans-Serif" font-size="10.00" fill="#000000"> </text>
<polyline fill="none" stroke="#000000" points="29.5,-118.5 165.5,-118.5 "/>
<text text-anchor="start" x="37.5" y="-106.5" font-family="Helvetica,sans-Serif" font-size="10.00" fill="#000000">+ T_iter()</text>
<text text-anchor="start" x="37.5" y="-95.5" font-family="Helvetica,sans-Serif" font-size="10.00" fill="#000000">+ T_iter()</text>
<text text-anchor="start" x="37.5" y="-84.5" font-family="Helvetica,sans-Serif" font-size="10.00" fill="#000000">+ T_iter()</text>
<text text-anchor="start" x="37.5" y="-73.5" font-family="Helvetica,sans-Serif" font-size="10.00" fill="#000000">+ operator*()</text>
<text text-anchor="start" x="37.5" y="-62.5" font-family="Helvetica,sans-Serif" font-size="10.00" fill="#000000">+ operator&#45;&gt;()</text>
<text text-anchor="start" x="37.5" y="-51.5" font-family="Helvetica,sans-Serif" font-size="10.00" fill="#000000">+ operator++()</text>
<text text-anchor="start" x="37.5" y="-40.5" font-family="Helvetica,sans-Serif" font-size="10.00" fill="#000000">+ operator++()</text>
<text text-anchor="start" x="37.5" y="-29.5" font-family="Helvetica,sans-Serif" font-size="10.00" fill="#000000">+ operator&#45;&#45;()</text>
<text text-anchor="start" x="37.5" y="-18.5" font-family="Helvetica,sans-Serif" font-size="10.00" fill="#000000">+ operator&#45;&#45;()</text>
<text text-anchor="start" x="37.5" y="-7.5" font-family="Helvetica,sans-Serif" font-size="10.00" fill="#000000">+ remove_me()</text>
</a>
</g>
</g>
<!-- Node0&#45;&gt;Node2 -->
<g id="edge3" class="edge">
<title>Node0&#45;&gt;Node2</title>
<path fill="none" stroke="#191970" d="M115.8521,-399.3149C117.347,-390.1371 118.6192,-380.8954 119.5,-372 126.8575,-297.6967 125.9705,-278.3858 119.5,-204 118.1581,-188.5739 115.9052,-172.2006 113.3398,-156.5514"/>
<polygon fill="none" stroke="#191970" points="112.3926,-398.7813 114.1506,-409.2293 119.2918,-399.9654 112.3926,-398.7813"/>
</g>
<!-- Node1&#45;&gt;Node2 -->
<g id="edge2" class="edge">
<title>Node1&#45;&gt;Node2</title>
<path fill="none" stroke="#ffa500" d="M74.2908,-194.2698C76.8123,-181.692 79.3768,-168.9 81.8367,-156.6299"/>
<polygon fill="#ffa500" stroke="#ffa500" points="70.8146,-193.8039 72.2806,-204.2969 77.678,-195.18 70.8146,-193.8039"/>
<text text-anchor="middle" x="92.5" y="-178" font-family="Helvetica,sans-Serif" font-size="10.00" fill="#000000"> &lt; E &gt;</text>
</g>
</g>
</svg>
