<?xml version="1.0" encoding="UTF-8" standalone="no"?>
<!DOCTYPE svg PUBLIC "-//W3C//DTD SVG 1.1//EN"
 "http://www.w3.org/Graphics/SVG/1.1/DTD/svg11.dtd">
<!-- Generated by graphviz version 2.40.1 (20161225.0304)
 -->
<!-- Title: L4Re::Util::Object_registry Pages: 1 -->
<svg width="234pt" height="325pt"
 viewBox="0.00 0.00 233.50 325.00" xmlns="http://www.w3.org/2000/svg" xmlns:xlink="http://www.w3.org/1999/xlink">
<g id="graph0" class="graph" transform="scale(1 1) rotate(0) translate(4 321)">
<title>L4Re::Util::Object_registry</title>
<polygon fill="#ffffff" stroke="transparent" points="-4,4 -4,-321 229.5,-321 229.5,4 -4,4"/>
<!-- Node0 -->
<g id="node1" class="node">
<title>Node0</title>
<polygon fill="#bfbfbf" stroke="#000000" points="57.5,-.5 57.5,-156.5 164.5,-156.5 164.5,-.5 57.5,-.5"/>
<text text-anchor="start" x="65.5" y="-144.5" font-family="Helvetica,sans-Serif" font-size="10.00" fill="#000000">L4Re::Util::Object</text>
<text text-anchor="middle" x="111" y="-133.5" font-family="Helvetica,sans-Serif" font-size="10.00" fill="#000000">_registry</text>
<polyline fill="none" stroke="#000000" points="57.5,-126.5 164.5,-126.5 "/>
<text text-anchor="start" x="65.5" y="-114.5" font-family="Helvetica,sans-Serif" font-size="10.00" fill="#000000"># _server</text>
<text text-anchor="start" x="65.5" y="-103.5" font-family="Helvetica,sans-Serif" font-size="10.00" fill="#000000"># _factory</text>
<text text-anchor="start" x="65.5" y="-92.5" font-family="Helvetica,sans-Serif" font-size="10.00" fill="#000000"># _sif</text>
<polyline fill="none" stroke="#000000" points="57.5,-85.5 164.5,-85.5 "/>
<text text-anchor="start" x="65.5" y="-73.5" font-family="Helvetica,sans-Serif" font-size="10.00" fill="#000000">+ Object_registry()</text>
<text text-anchor="start" x="65.5" y="-62.5" font-family="Helvetica,sans-Serif" font-size="10.00" fill="#000000">+ Object_registry()</text>
<text text-anchor="start" x="65.5" y="-51.5" font-family="Helvetica,sans-Serif" font-size="10.00" fill="#000000">+ register_obj()</text>
<text text-anchor="start" x="65.5" y="-40.5" font-family="Helvetica,sans-Serif" font-size="10.00" fill="#000000">+ register_obj()</text>
<text text-anchor="start" x="65.5" y="-29.5" font-family="Helvetica,sans-Serif" font-size="10.00" fill="#000000">+ register_irq_obj()</text>
<text text-anchor="start" x="65.5" y="-18.5" font-family="Helvetica,sans-Serif" font-size="10.00" fill="#000000">+ register_obj()</text>
<text text-anchor="start" x="65.5" y="-7.5" font-family="Helvetica,sans-Serif" font-size="10.00" fill="#000000">+ unregister_obj()</text>
</g>
<!-- Node1 -->
<g id="node2" class="node">
<title>Node1</title>
<g id="a_node2"><a xlink:href="classL4_1_1Basic__registry.html" target="_top" xlink:title="This registry returns the corresponding server object based on the label of an Ipc_gate. ">
<polygon fill="#ffffff" stroke="#000000" points="0,-221 0,-289 100,-289 100,-221 0,-221"/>
<text text-anchor="middle" x="50" y="-277" font-family="Helvetica,sans-Serif" font-size="10.00" fill="#000000">L4::Basic_registry</text>
<polyline fill="none" stroke="#000000" points="0,-270 100,-270 "/>
<text text-anchor="middle" x="50" y="-258" font-family="Helvetica,sans-Serif" font-size="10.00" fill="#000000"> </text>
<polyline fill="none" stroke="#000000" points="0,-251 100,-251 "/>
<text text-anchor="start" x="8" y="-239" font-family="Helvetica,sans-Serif" font-size="10.00" fill="#000000">+ find()</text>
<text text-anchor="start" x="8" y="-228" font-family="Helvetica,sans-Serif" font-size="10.00" fill="#000000">+ dispatch()</text>
</a>
</g>
</g>
<!-- Node1&#45;&gt;Node0 -->
<g id="edge1" class="edge">
<title>Node1&#45;&gt;Node0</title>
<path fill="none" stroke="#191970" d="M65.1738,-211.0955C70.8713,-194.6102 77.5328,-175.3355 83.9837,-156.6702"/>
<polygon fill="none" stroke="#191970" points="61.72,-210.3743 61.7614,-220.969 68.336,-212.6609 61.72,-210.3743"/>
</g>
<!-- Node2 -->
<g id="node3" class="node">
<title>Node2</title>
<g id="a_node3"><a xlink:href="classL4_1_1Registry__iface.html" target="_top" xlink:title="Abstract interface for object registries. ">
<polygon fill="#ffffff" stroke="#000000" points="118.5,-193.5 118.5,-316.5 225.5,-316.5 225.5,-193.5 118.5,-193.5"/>
<text text-anchor="middle" x="172" y="-304.5" font-family="Helvetica,sans-Serif" font-size="10.00" fill="#000000">L4::Registry_iface</text>
<polyline fill="none" stroke="#000000" points="118.5,-297.5 225.5,-297.5 "/>
<text text-anchor="middle" x="172" y="-285.5" font-family="Helvetica,sans-Serif" font-size="10.00" fill="#000000"> </text>
<polyline fill="none" stroke="#000000" points="118.5,-278.5 225.5,-278.5 "/>
<text text-anchor="start" x="126.5" y="-266.5" font-family="Helvetica,sans-Serif" font-size="10.00" fill="#000000">+ ~Registry_iface()</text>
<text text-anchor="start" x="126.5" y="-255.5" font-family="Helvetica,sans-Serif" font-size="10.00" fill="#000000">+ register_obj()</text>
<text text-anchor="start" x="126.5" y="-244.5" font-family="Helvetica,sans-Serif" font-size="10.00" fill="#000000">+ register_obj()</text>
<text text-anchor="start" x="126.5" y="-233.5" font-family="Helvetica,sans-Serif" font-size="10.00" fill="#000000">+ register_irq_obj()</text>
<text text-anchor="start" x="126.5" y="-222.5" font-family="Helvetica,sans-Serif" font-size="10.00" fill="#000000">+ register_obj()</text>
<text text-anchor="start" x="126.5" y="-211.5" font-family="Helvetica,sans-Serif" font-size="10.00" fill="#000000">+ register_irq_obj()</text>
<text text-anchor="start" x="126.5" y="-200.5" font-family="Helvetica,sans-Serif" font-size="10.00" fill="#000000">+ unregister_obj()</text>
</a>
</g>
</g>
<!-- Node2&#45;&gt;Node0 -->
<g id="edge2" class="edge">
<title>Node2&#45;&gt;Node0</title>
<path fill="none" stroke="#191970" d="M147.3622,-183.7118C144.2825,-174.8009 141.1199,-165.6503 138.0066,-156.6421"/>
<polygon fill="none" stroke="#191970" points="144.0906,-184.9607 150.6652,-193.2689 150.7066,-182.6741 144.0906,-184.9607"/>
</g>
</g>
</svg>
