<?xml version="1.0" encoding="UTF-8" standalone="no"?>
<!DOCTYPE svg PUBLIC "-//W3C//DTD SVG 1.1//EN"
 "http://www.w3.org/Graphics/SVG/1.1/DTD/svg11.dtd">
<!-- Generated by graphviz version 2.40.1 (20161225.0304)
 -->
<!-- Title: L4::Io_pager Pages: 1 -->
<svg width="166pt" height="651pt"
 viewBox="0.00 0.00 166.00 651.00" xmlns="http://www.w3.org/2000/svg" xmlns:xlink="http://www.w3.org/1999/xlink">
<g id="graph0" class="graph" transform="scale(1 1) rotate(0) translate(4 647)">
<title>L4::Io_pager</title>
<polygon fill="#ffffff" stroke="transparent" points="-4,4 -4,-647 162,-647 162,4 -4,4"/>
<!-- Node0 -->
<g id="node1" class="node">
<title>Node0</title>
<polygon fill="#bfbfbf" stroke="#000000" points="30,-585.5 30,-642.5 128,-642.5 128,-585.5 30,-585.5"/>
<text text-anchor="middle" x="79" y="-630.5" font-family="Helvetica,sans-Serif" font-size="10.00" fill="#000000">L4::Io_pager</text>
<polyline fill="none" stroke="#000000" points="30,-623.5 128,-623.5 "/>
<text text-anchor="middle" x="79" y="-611.5" font-family="Helvetica,sans-Serif" font-size="10.00" fill="#000000"> </text>
<polyline fill="none" stroke="#000000" points="30,-604.5 128,-604.5 "/>
<text text-anchor="start" x="38" y="-592.5" font-family="Helvetica,sans-Serif" font-size="10.00" fill="#000000">+ io_page_fault()</text>
</g>
<!-- Node1 -->
<g id="node2" class="node">
<title>Node1</title>
<g id="a_node2"><a xlink:href="classL4_1_1Kobject__t.html" target="_top" xlink:title="{L4::Kobject_t\&lt; Pager,\l Io_pager, L4_PROTO_PAGE\l_FAULT \&gt;\n||# c()\l# __check_protocols__()\l}">
<polygon fill="#ffffff" stroke="#000000" points="0,-458.5 0,-548.5 158,-548.5 158,-458.5 0,-458.5"/>
<text text-anchor="start" x="8" y="-536.5" font-family="Helvetica,sans-Serif" font-size="10.00" fill="#000000">L4::Kobject_t&lt; Pager,</text>
<text text-anchor="start" x="8" y="-525.5" font-family="Helvetica,sans-Serif" font-size="10.00" fill="#000000"> Io_pager, L4_PROTO_PAGE</text>
<text text-anchor="middle" x="79" y="-514.5" font-family="Helvetica,sans-Serif" font-size="10.00" fill="#000000">_FAULT &gt;</text>
<polyline fill="none" stroke="#000000" points="0,-507.5 158,-507.5 "/>
<text text-anchor="middle" x="79" y="-495.5" font-family="Helvetica,sans-Serif" font-size="10.00" fill="#000000"> </text>
<polyline fill="none" stroke="#000000" points="0,-488.5 158,-488.5 "/>
<text text-anchor="start" x="8" y="-476.5" font-family="Helvetica,sans-Serif" font-size="10.00" fill="#000000"># c()</text>
<text text-anchor="start" x="8" y="-465.5" font-family="Helvetica,sans-Serif" font-size="10.00" fill="#000000"># __check_protocols__()</text>
</a>
</g>
</g>
<!-- Node0&#45;&gt;Node1 -->
<g id="edge1" class="edge">
<title>Node0&#45;&gt;Node1</title>
<path fill="none" stroke="#191970" d="M79,-575.1977C79,-566.667 79,-557.5607 79,-548.7995"/>
<polygon fill="none" stroke="#191970" points="75.5001,-575.2559 79,-585.2559 82.5001,-575.2559 75.5001,-575.2559"/>
</g>
<!-- Node2 -->
<g id="node3" class="node">
<title>Node2</title>
<g id="a_node3"><a xlink:href="classL4_1_1Pager.html" target="_top" xlink:title="Pager interface including the Io_pager interface. ">
<polygon fill="#ffffff" stroke="#000000" points="37.5,-364.5 37.5,-421.5 120.5,-421.5 120.5,-364.5 37.5,-364.5"/>
<text text-anchor="middle" x="79" y="-409.5" font-family="Helvetica,sans-Serif" font-size="10.00" fill="#000000">L4::Pager</text>
<polyline fill="none" stroke="#000000" points="37.5,-402.5 120.5,-402.5 "/>
<text text-anchor="middle" x="79" y="-390.5" font-family="Helvetica,sans-Serif" font-size="10.00" fill="#000000"> </text>
<polyline fill="none" stroke="#000000" points="37.5,-383.5 120.5,-383.5 "/>
<text text-anchor="start" x="45.5" y="-371.5" font-family="Helvetica,sans-Serif" font-size="10.00" fill="#000000">+ page_fault()</text>
</a>
</g>
</g>
<!-- Node1&#45;&gt;Node2 -->
<g id="edge2" class="edge">
<title>Node1&#45;&gt;Node2</title>
<path fill="none" stroke="#191970" d="M79,-447.9648C79,-438.8235 79,-429.6927 79,-421.5732"/>
<polygon fill="none" stroke="#191970" points="75.5001,-448.2366 79,-458.2366 82.5001,-448.2366 75.5001,-448.2366"/>
</g>
<!-- Node3 -->
<g id="node4" class="node">
<title>Node3</title>
<g id="a_node4"><a xlink:href="classL4_1_1Kobject__t.html" target="_top" xlink:title="{L4::Kobject_t\&lt; Rm,\l L4::Pager, L4RE_PROTO\l_RM, L4::Type_info::Demand\l_t\&lt; 1 \&gt; \&gt;\n||# c()\l# __check_protocols__()\l}">
<polygon fill="#ffffff" stroke="#000000" points="3,-226.5 3,-327.5 155,-327.5 155,-226.5 3,-226.5"/>
<text text-anchor="start" x="11" y="-315.5" font-family="Helvetica,sans-Serif" font-size="10.00" fill="#000000">L4::Kobject_t&lt; Rm,</text>
<text text-anchor="start" x="11" y="-304.5" font-family="Helvetica,sans-Serif" font-size="10.00" fill="#000000"> L4::Pager, L4RE_PROTO</text>
<text text-anchor="start" x="11" y="-293.5" font-family="Helvetica,sans-Serif" font-size="10.00" fill="#000000">_RM, L4::Type_info::Demand</text>
<text text-anchor="middle" x="79" y="-282.5" font-family="Helvetica,sans-Serif" font-size="10.00" fill="#000000">_t&lt; 1 &gt; &gt;</text>
<polyline fill="none" stroke="#000000" points="3,-275.5 155,-275.5 "/>
<text text-anchor="middle" x="79" y="-263.5" font-family="Helvetica,sans-Serif" font-size="10.00" fill="#000000"> </text>
<polyline fill="none" stroke="#000000" points="3,-256.5 155,-256.5 "/>
<text text-anchor="start" x="11" y="-244.5" font-family="Helvetica,sans-Serif" font-size="10.00" fill="#000000"># c()</text>
<text text-anchor="start" x="11" y="-233.5" font-family="Helvetica,sans-Serif" font-size="10.00" fill="#000000"># __check_protocols__()</text>
</a>
</g>
</g>
<!-- Node2&#45;&gt;Node3 -->
<g id="edge3" class="edge">
<title>Node2&#45;&gt;Node3</title>
<path fill="none" stroke="#191970" d="M79,-354.0826C79,-345.6942 79,-336.7064 79,-327.9373"/>
<polygon fill="none" stroke="#191970" points="75.5001,-354.3258 79,-364.3258 82.5001,-354.3259 75.5001,-354.3258"/>
</g>
<!-- Node4 -->
<g id="node5" class="node">
<title>Node4</title>
<g id="a_node5"><a xlink:href="classL4Re_1_1Rm.html" target="_top" xlink:title="Region map. ">
<polygon fill="#ffffff" stroke="#000000" points="30,-.5 30,-189.5 128,-189.5 128,-.5 30,-.5"/>
<text text-anchor="middle" x="79" y="-177.5" font-family="Helvetica,sans-Serif" font-size="10.00" fill="#000000">L4Re::Rm</text>
<polyline fill="none" stroke="#000000" points="30,-170.5 128,-170.5 "/>
<text text-anchor="middle" x="79" y="-158.5" font-family="Helvetica,sans-Serif" font-size="10.00" fill="#000000"> </text>
<polyline fill="none" stroke="#000000" points="30,-151.5 128,-151.5 "/>
<text text-anchor="start" x="38" y="-139.5" font-family="Helvetica,sans-Serif" font-size="10.00" fill="#000000">+ reserve_area()</text>
<text text-anchor="start" x="38" y="-128.5" font-family="Helvetica,sans-Serif" font-size="10.00" fill="#000000">+ reserve_area()</text>
<text text-anchor="start" x="38" y="-117.5" font-family="Helvetica,sans-Serif" font-size="10.00" fill="#000000">+ free_area()</text>
<text text-anchor="start" x="38" y="-106.5" font-family="Helvetica,sans-Serif" font-size="10.00" fill="#000000">+ attach()</text>
<text text-anchor="start" x="38" y="-95.5" font-family="Helvetica,sans-Serif" font-size="10.00" fill="#000000">+ attach()</text>
<text text-anchor="start" x="38" y="-84.5" font-family="Helvetica,sans-Serif" font-size="10.00" fill="#000000">+ attach()</text>
<text text-anchor="start" x="38" y="-73.5" font-family="Helvetica,sans-Serif" font-size="10.00" fill="#000000">+ detach()</text>
<text text-anchor="start" x="38" y="-62.5" font-family="Helvetica,sans-Serif" font-size="10.00" fill="#000000">+ detach()</text>
<text text-anchor="start" x="38" y="-51.5" font-family="Helvetica,sans-Serif" font-size="10.00" fill="#000000">+ detach()</text>
<text text-anchor="start" x="38" y="-40.5" font-family="Helvetica,sans-Serif" font-size="10.00" fill="#000000">+ find()</text>
<text text-anchor="start" x="38" y="-29.5" font-family="Helvetica,sans-Serif" font-size="10.00" fill="#000000">+ get_regions()</text>
<text text-anchor="start" x="38" y="-18.5" font-family="Helvetica,sans-Serif" font-size="10.00" fill="#000000">+ get_areas()</text>
<text text-anchor="start" x="38" y="-7.5" font-family="Helvetica,sans-Serif" font-size="10.00" fill="#000000">+ detach()</text>
</a>
</g>
</g>
<!-- Node3&#45;&gt;Node4 -->
<g id="edge4" class="edge">
<title>Node3&#45;&gt;Node4</title>
<path fill="none" stroke="#191970" d="M79,-216.1163C79,-207.584 79,-198.6535 79,-189.6753"/>
<polygon fill="none" stroke="#191970" points="75.5001,-216.3028 79,-226.3029 82.5001,-216.3029 75.5001,-216.3028"/>
</g>
</g>
</svg>
