<?xml version="1.0" encoding="UTF-8" standalone="no"?>
<!DOCTYPE svg PUBLIC "-//W3C//DTD SVG 1.1//EN"
 "http://www.w3.org/Graphics/SVG/1.1/DTD/svg11.dtd">
<!-- Generated by graphviz version 2.40.1 (20161225.0304)
 -->
<!-- Title: cxx::List_item::push_back Pages: 1 -->
<svg width="607pt" height="56pt"
 viewBox="0.00 0.00 607.00 55.50" xmlns="http://www.w3.org/2000/svg" xmlns:xlink="http://www.w3.org/1999/xlink">
<g id="graph0" class="graph" transform="scale(1 1) rotate(0) translate(4 51.5)">
<title>cxx::List_item::push_back</title>
<polygon fill="#ffffff" stroke="transparent" points="-4,4 -4,-51.5 603,-51.5 603,4 -4,4"/>
<!-- Node11 -->
<g id="node1" class="node">
<title>Node11</title>
<polygon fill="#bfbfbf" stroke="#000000" points="0,-28 0,-47 134,-47 134,-28 0,-28"/>
<text text-anchor="middle" x="67" y="-35" font-family="Helvetica,sans-Serif" font-size="10.00" fill="#000000">cxx::List_item::push_back</text>
</g>
<!-- Node12 -->
<g id="node2" class="node">
<title>Node12</title>
<g id="a_node2"><a xlink:href="classcxx_1_1List__item.html#a242fb5c7f48eeea6c4117c213f2d0120" target="_top" xlink:title="Remove item from a list. ">
<polygon fill="#ffffff" stroke="#000000" points="480,-28 480,-47 599,-47 599,-28 480,-28"/>
<text text-anchor="middle" x="539.5" y="-35" font-family="Helvetica,sans-Serif" font-size="10.00" fill="#000000">cxx::List_item::remove</text>
</a>
</g>
</g>
<!-- Node11&#45;&gt;Node12 -->
<g id="edge1" class="edge">
<title>Node11&#45;&gt;Node12</title>
<path fill="none" stroke="#191970" d="M144.5417,-38.6255C220.7608,-39.5632 340.3919,-40.5848 444,-39.5 455.6078,-39.3785 468.008,-39.1739 479.8992,-38.9407"/>
<polygon fill="#191970" stroke="#191970" points="144.1244,-35.12 134.0812,-38.4939 144.0363,-42.1195 144.1244,-35.12"/>
</g>
<!-- Node13 -->
<g id="node3" class="node">
<title>Node13</title>
<g id="a_node3"><a xlink:href="classcxx_1_1List__item.html#a3881b562fd2ed8708a96112fe2057f47" target="_top" xlink:title="Remove this item from the list. ">
<polygon fill="#ffffff" stroke="#000000" points="170,-9 170,-28 309,-28 309,-9 170,-9"/>
<text text-anchor="middle" x="239.5" y="-16" font-family="Helvetica,sans-Serif" font-size="10.00" fill="#000000">cxx::List_item::remove_me</text>
</a>
</g>
</g>
<!-- Node11&#45;&gt;Node13 -->
<g id="edge2" class="edge">
<title>Node11&#45;&gt;Node13</title>
<path fill="none" stroke="#191970" d="M144.1813,-28.9989C152.76,-28.054 161.4597,-27.0957 169.9358,-26.1621"/>
<polygon fill="#191970" stroke="#191970" points="143.7436,-25.5258 134.1869,-30.0997 144.5101,-32.4837 143.7436,-25.5258"/>
</g>
<!-- Node14 -->
<g id="node4" class="node">
<title>Node14</title>
<g id="a_node4"><a xlink:href="classcxx_1_1List__item_1_1Iter.html#a0ef357e10b4f813b7289fbe689688f6e" target="_top" xlink:title="Remove item pointed to by iterator, and return pointer to element. ">
<polygon fill="#ffffff" stroke="#000000" points="345,-.5 345,-30.5 444,-30.5 444,-.5 345,-.5"/>
<text text-anchor="start" x="353" y="-18.5" font-family="Helvetica,sans-Serif" font-size="10.00" fill="#000000">cxx::List_item::Iter</text>
<text text-anchor="middle" x="394.5" y="-7.5" font-family="Helvetica,sans-Serif" font-size="10.00" fill="#000000">::remove_me</text>
</a>
</g>
</g>
<!-- Node13&#45;&gt;Node14 -->
<g id="edge3" class="edge">
<title>Node13&#45;&gt;Node14</title>
<path fill="none" stroke="#191970" d="M319.3585,-16.9544C327.9405,-16.7882 336.4838,-16.6229 344.5671,-16.4664"/>
<polygon fill="#191970" stroke="#191970" points="319.222,-13.4562 309.2916,-17.1492 319.3575,-20.4549 319.222,-13.4562"/>
</g>
<!-- Node14&#45;&gt;Node12 -->
<g id="edge4" class="edge">
<title>Node14&#45;&gt;Node12</title>
<path fill="none" stroke="#191970" d="M454.4515,-24.5961C462.81,-25.8643 471.3981,-27.1673 479.7529,-28.4349"/>
<polygon fill="#191970" stroke="#191970" points="454.8127,-21.1109 444.4008,-23.0712 453.7626,-28.0317 454.8127,-21.1109"/>
</g>
</g>
</svg>
