<?xml version="1.0" encoding="UTF-8" standalone="no"?>
<!DOCTYPE svg PUBLIC "-//W3C//DTD SVG 1.1//EN"
 "http://www.w3.org/Graphics/SVG/1.1/DTD/svg11.dtd">
<!-- Generated by graphviz version 2.40.1 (20161225.0304)
 -->
<!-- Title: L4::Smart_cap::Smart_cap Pages: 1 -->
<svg width="318pt" height="66pt"
 viewBox="0.00 0.00 318.00 66.00" xmlns="http://www.w3.org/2000/svg" xmlns:xlink="http://www.w3.org/1999/xlink">
<g id="graph0" class="graph" transform="scale(1 1) rotate(0) translate(4 62)">
<title>L4::Smart_cap::Smart_cap</title>
<polygon fill="#ffffff" stroke="transparent" points="-4,4 -4,-62 314,-62 314,4 -4,4"/>
<!-- Node0 -->
<g id="node1" class="node">
<title>Node0</title>
<polygon fill="#bfbfbf" stroke="#000000" points="0,-19.5 0,-38.5 140,-38.5 140,-19.5 0,-19.5"/>
<text text-anchor="middle" x="70" y="-26.5" font-family="Helvetica,sans-Serif" font-size="10.00" fill="#000000">L4::Smart_cap::Smart_cap</text>
</g>
<!-- Node1 -->
<g id="node2" class="node">
<title>Node1</title>
<g id="a_node2"><a xlink:href="classL4_1_1Cap__base.html#a90ff089ca2442b128c2b2b0e1c22c6d7" target="_top" xlink:title="Return capability selector. ">
<polygon fill="#ffffff" stroke="#000000" points="191.5,-38.5 191.5,-57.5 294.5,-57.5 294.5,-38.5 191.5,-38.5"/>
<text text-anchor="middle" x="243" y="-45.5" font-family="Helvetica,sans-Serif" font-size="10.00" fill="#000000">L4::Cap_base::cap</text>
</a>
</g>
</g>
<!-- Node0&#45;&gt;Node1 -->
<g id="edge1" class="edge">
<title>Node0&#45;&gt;Node1</title>
<path fill="none" stroke="#191970" d="M140.3657,-36.728C153.9329,-38.2181 168.0492,-39.7684 181.3148,-41.2253"/>
<polygon fill="#191970" stroke="#191970" points="180.9477,-44.706 191.2701,-42.3187 181.712,-37.7478 180.9477,-44.706"/>
</g>
<!-- Node2 -->
<g id="node3" class="node">
<title>Node2</title>
<g id="a_node3"><a xlink:href="classL4_1_1Cap__base.html#aea13cf4ec224211dc780a56d6ffa1c53" target="_top" xlink:title="Create an uninitialized instance. ">
<polygon fill="#ffffff" stroke="#000000" points="176,-.5 176,-19.5 310,-19.5 310,-.5 176,-.5"/>
<text text-anchor="middle" x="243" y="-7.5" font-family="Helvetica,sans-Serif" font-size="10.00" fill="#000000">L4::Cap_base::Cap_base</text>
</a>
</g>
</g>
<!-- Node0&#45;&gt;Node2 -->
<g id="edge2" class="edge">
<title>Node0&#45;&gt;Node2</title>
<path fill="none" stroke="#191970" d="M140.3657,-21.272C148.679,-20.359 157.1983,-19.4233 165.6019,-18.5004"/>
<polygon fill="#191970" stroke="#191970" points="166.2151,-21.9542 175.7732,-17.3833 165.4508,-14.996 166.2151,-21.9542"/>
</g>
</g>
</svg>
