<?xml version="1.0" encoding="UTF-8" standalone="no"?>
<!DOCTYPE svg PUBLIC "-//W3C//DTD SVG 1.1//EN"
 "http://www.w3.org/Graphics/SVG/1.1/DTD/svg11.dtd">
<!-- Generated by graphviz version 2.40.1 (20161225.0304)
 -->
<!-- Title: cxx::Bits::Bst::dir Pages: 1 -->
<svg width="290pt" height="209pt"
 viewBox="0.00 0.00 290.00 208.50" xmlns="http://www.w3.org/2000/svg" xmlns:xlink="http://www.w3.org/1999/xlink">
<g id="graph0" class="graph" transform="scale(1 1) rotate(0) translate(4 204.5)">
<title>cxx::Bits::Bst::dir</title>
<polygon fill="#ffffff" stroke="transparent" points="-4,4 -4,-204.5 286,-204.5 286,4 -4,4"/>
<!-- Node6 -->
<g id="node1" class="node">
<title>Node6</title>
<polygon fill="#bfbfbf" stroke="#000000" points="0,-98.5 0,-117.5 90,-117.5 90,-98.5 0,-98.5"/>
<text text-anchor="middle" x="45" y="-105.5" font-family="Helvetica,sans-Serif" font-size="10.00" fill="#000000">cxx::Bits::Bst::dir</text>
</g>
<!-- Node7 -->
<g id="node2" class="node">
<title>Node7</title>
<g id="a_node2"><a xlink:href="classcxx_1_1Bits_1_1Bst.html#a82883bc0db3363204e5b95cecc18fd3d" target="_top" xlink:title="Get the direction to go from l to search for r. ">
<polygon fill="#ffffff" stroke="#000000" points="128.5,-170 128.5,-200 279.5,-200 279.5,-170 128.5,-170"/>
<text text-anchor="start" x="136.5" y="-188" font-family="Helvetica,sans-Serif" font-size="10.00" fill="#000000">cxx::Bits::Bst&lt; _Node,</text>
<text text-anchor="middle" x="204" y="-177" font-family="Helvetica,sans-Serif" font-size="10.00" fill="#000000"> GET_KEY, COMPARE &gt;::dir</text>
</a>
</g>
</g>
<!-- Node6&#45;&gt;Node7 -->
<g id="edge1" class="edge">
<title>Node6&#45;&gt;Node7</title>
<path fill="none" stroke="#191970" d="M65.7164,-123.9065C81.539,-135.4579 104.2549,-150.7907 126,-161 133.0538,-164.3118 140.6769,-167.3083 148.2992,-169.9722"/>
<polygon fill="#191970" stroke="#191970" points="67.3678,-120.7727 57.2562,-117.6095 63.1883,-126.388 67.3678,-120.7727"/>
</g>
<!-- Node8 -->
<g id="node3" class="node">
<title>Node8</title>
<g id="a_node3"><a xlink:href="classcxx_1_1Bits_1_1Bst.html#a9eebe72ec19fadd1e47c2f38585dabe7" target="_top" xlink:title="find the node with the given key. ">
<polygon fill="#ffffff" stroke="#000000" points="126,-121 126,-151 282,-151 282,-121 126,-121"/>
<text text-anchor="start" x="134" y="-139" font-family="Helvetica,sans-Serif" font-size="10.00" fill="#000000">cxx::Bits::Bst&lt; _Node,</text>
<text text-anchor="middle" x="204" y="-128" font-family="Helvetica,sans-Serif" font-size="10.00" fill="#000000"> GET_KEY, COMPARE &gt;::find</text>
</a>
</g>
</g>
<!-- Node6&#45;&gt;Node8 -->
<g id="edge2" class="edge">
<title>Node6&#45;&gt;Node8</title>
<path fill="none" stroke="#191970" d="M100.1052,-117.7041C108.4619,-119.1757 117.2168,-120.7174 125.9483,-122.2551"/>
<polygon fill="#191970" stroke="#191970" points="100.5932,-114.2362 90.1377,-115.9488 99.3791,-121.1301 100.5932,-114.2362"/>
</g>
<!-- Node9 -->
<g id="node4" class="node">
<title>Node9</title>
<g id="a_node4"><a xlink:href="classcxx_1_1Bits_1_1Bst.html#a7f31ce158bf0d2f3c31a412d005e3aaf" target="_top" xlink:title="find the node with the given key. ">
<polygon fill="#ffffff" stroke="#000000" points="134.5,-60.5 134.5,-101.5 273.5,-101.5 273.5,-60.5 134.5,-60.5"/>
<text text-anchor="start" x="142.5" y="-89.5" font-family="Helvetica,sans-Serif" font-size="10.00" fill="#000000">cxx::Bits::Bst&lt; _Node,</text>
<text text-anchor="start" x="142.5" y="-78.5" font-family="Helvetica,sans-Serif" font-size="10.00" fill="#000000"> GET_KEY, COMPARE &gt;::</text>
<text text-anchor="middle" x="204" y="-67.5" font-family="Helvetica,sans-Serif" font-size="10.00" fill="#000000">find_node</text>
</a>
</g>
</g>
<!-- Node6&#45;&gt;Node9 -->
<g id="edge3" class="edge">
<title>Node6&#45;&gt;Node9</title>
<path fill="none" stroke="#191970" d="M100.0736,-98.6479C111.1372,-96.7691 122.8999,-94.7717 134.3832,-92.8217"/>
<polygon fill="#191970" stroke="#191970" points="99.4106,-95.2103 90.1377,-100.3351 100.5826,-102.1115 99.4106,-95.2103"/>
</g>
<!-- Node10 -->
<g id="node5" class="node">
<title>Node10</title>
<g id="a_node5"><a xlink:href="classcxx_1_1Bits_1_1Bst.html#a206a8d12abbe95b955982f9f8ab1cb7b" target="_top" xlink:title="Find the first node with a key not less than the given key. ">
<polygon fill="#ffffff" stroke="#000000" points="134.5,-.5 134.5,-41.5 273.5,-41.5 273.5,-.5 134.5,-.5"/>
<text text-anchor="start" x="142.5" y="-29.5" font-family="Helvetica,sans-Serif" font-size="10.00" fill="#000000">cxx::Bits::Bst&lt; _Node,</text>
<text text-anchor="start" x="142.5" y="-18.5" font-family="Helvetica,sans-Serif" font-size="10.00" fill="#000000"> GET_KEY, COMPARE &gt;::</text>
<text text-anchor="middle" x="204" y="-7.5" font-family="Helvetica,sans-Serif" font-size="10.00" fill="#000000">lower_bound_node</text>
</a>
</g>
</g>
<!-- Node6&#45;&gt;Node10 -->
<g id="edge4" class="edge">
<title>Node6&#45;&gt;Node10</title>
<path fill="none" stroke="#191970" d="M64.7554,-92.0109C80.6299,-79.6897 103.8558,-62.8169 126,-51 132.2721,-47.653 139.0008,-44.4882 145.7815,-41.5584"/>
<polygon fill="#191970" stroke="#191970" points="62.4312,-89.3863 56.746,-98.3267 66.7656,-94.883 62.4312,-89.3863"/>
</g>
</g>
</svg>
