<?xml version="1.0" encoding="UTF-8" standalone="no"?>
<!DOCTYPE svg PUBLIC "-//W3C//DTD SVG 1.1//EN"
 "http://www.w3.org/Graphics/SVG/1.1/DTD/svg11.dtd">
<!-- Generated by graphviz version 2.40.1 (20161225.0304)
 -->
<!-- Title: L4::Kip::Mem_desc::count Pages: 1 -->
<svg width="272pt" height="78pt"
 viewBox="0.00 0.00 272.00 77.50" xmlns="http://www.w3.org/2000/svg" xmlns:xlink="http://www.w3.org/1999/xlink">
<g id="graph0" class="graph" transform="scale(1 1) rotate(0) translate(4 73.5)">
<title>L4::Kip::Mem_desc::count</title>
<polygon fill="#ffffff" stroke="transparent" points="-4,4 -4,-73.5 268,-73.5 268,4 -4,4"/>
<!-- Node11 -->
<g id="node1" class="node">
<title>Node11</title>
<polygon fill="#bfbfbf" stroke="#000000" points="0,-22.5 0,-52.5 109,-52.5 109,-22.5 0,-22.5"/>
<text text-anchor="start" x="8" y="-40.5" font-family="Helvetica,sans-Serif" font-size="10.00" fill="#000000">L4::Kip::Mem_desc::</text>
<text text-anchor="middle" x="54.5" y="-29.5" font-family="Helvetica,sans-Serif" font-size="10.00" fill="#000000">count</text>
</g>
<!-- Node12 -->
<g id="node2" class="node">
<title>Node12</title>
<g id="a_node2"><a xlink:href="classL4_1_1Kip_1_1Mem__desc.html#afd1bd575387e30013520417bbf61ccd8" target="_top" xlink:title="Return enumerable list of memory descriptors. ">
<polygon fill="#ffffff" stroke="#000000" points="145,-50 145,-69 264,-69 264,-50 145,-50"/>
<text text-anchor="middle" x="204.5" y="-57" font-family="Helvetica,sans-Serif" font-size="10.00" fill="#000000">L4::Kip::Mem_desc::all</text>
</a>
</g>
</g>
<!-- Node11&#45;&gt;Node12 -->
<g id="edge1" class="edge">
<title>Node11&#45;&gt;Node12</title>
<path fill="none" stroke="#191970" d="M119.0431,-46.9663C127.6286,-48.2255 136.4006,-49.5121 144.897,-50.7582"/>
<polygon fill="#191970" stroke="#191970" points="119.4798,-43.493 109.0778,-45.5047 118.464,-50.4189 119.4798,-43.493"/>
</g>
<!-- Node13 -->
<g id="node3" class="node">
<title>Node13</title>
<g id="a_node3"><a xlink:href="classL4_1_1Kip_1_1Mem__desc.html#a3db09b7ac1d96d31f73195cd5582b851" target="_top" xlink:title="Set number of memory descriptors. ">
<polygon fill="#ffffff" stroke="#000000" points="150,-.5 150,-30.5 259,-30.5 259,-.5 150,-.5"/>
<text text-anchor="start" x="158" y="-18.5" font-family="Helvetica,sans-Serif" font-size="10.00" fill="#000000">L4::Kip::Mem_desc::</text>
<text text-anchor="middle" x="204.5" y="-7.5" font-family="Helvetica,sans-Serif" font-size="10.00" fill="#000000">count</text>
</a>
</g>
</g>
<!-- Node11&#45;&gt;Node13 -->
<g id="edge2" class="edge">
<title>Node11&#45;&gt;Node13</title>
<path fill="none" stroke="#191970" d="M119.2123,-28.0089C129.463,-26.5054 139.9751,-24.9637 149.9629,-23.4988"/>
<polygon fill="#191970" stroke="#191970" points="118.464,-24.5811 109.0778,-29.4953 119.4798,-31.507 118.464,-24.5811"/>
</g>
</g>
</svg>
