<?xml version="1.0" encoding="UTF-8" standalone="no"?>
<!DOCTYPE svg PUBLIC "-//W3C//DTD SVG 1.1//EN"
 "http://www.w3.org/Graphics/SVG/1.1/DTD/svg11.dtd">
<!-- Generated by graphviz version 2.40.1 (20161225.0304)
 -->
<!-- Title: L4vbus::Pci_host_bridge::cfg_write Pages: 1 -->
<svg width="304pt" height="66pt"
 viewBox="0.00 0.00 304.00 66.00" xmlns="http://www.w3.org/2000/svg" xmlns:xlink="http://www.w3.org/1999/xlink">
<g id="graph0" class="graph" transform="scale(1 1) rotate(0) translate(4 62)">
<title>L4vbus::Pci_host_bridge::cfg_write</title>
<polygon fill="#ffffff" stroke="transparent" points="-4,4 -4,-62 300,-62 300,4 -4,4"/>
<!-- Node4 -->
<g id="node1" class="node">
<title>Node4</title>
<polygon fill="#bfbfbf" stroke="#000000" points="0,-14 0,-44 130,-44 130,-14 0,-14"/>
<text text-anchor="start" x="8" y="-32" font-family="Helvetica,sans-Serif" font-size="10.00" fill="#000000">L4vbus::Pci_host_bridge</text>
<text text-anchor="middle" x="65" y="-21" font-family="Helvetica,sans-Serif" font-size="10.00" fill="#000000">::cfg_write</text>
</g>
<!-- Node5 -->
<g id="node2" class="node">
<title>Node5</title>
<g id="a_node2"><a xlink:href="classL4vbus_1_1Device.html#a86e2a0b4eb5abb5ce6443690c6e2361f" target="_top" xlink:title="Access the Vbus capability of the underlying virtual bus. ">
<polygon fill="#ffffff" stroke="#000000" points="166,-38.5 166,-57.5 296,-57.5 296,-38.5 166,-38.5"/>
<text text-anchor="middle" x="231" y="-45.5" font-family="Helvetica,sans-Serif" font-size="10.00" fill="#000000">L4vbus::Device::bus_cap</text>
</a>
</g>
</g>
<!-- Node4&#45;&gt;Node5 -->
<g id="edge1" class="edge">
<title>Node4&#45;&gt;Node5</title>
<path fill="none" stroke="#191970" d="M130.1312,-36.4548C138.553,-37.4187 147.2324,-38.4121 155.8001,-39.3928"/>
<polygon fill="#191970" stroke="#191970" points="155.451,-42.8756 165.7842,-40.5355 156.2471,-35.921 155.451,-42.8756"/>
</g>
<!-- Node6 -->
<g id="node3" class="node">
<title>Node6</title>
<g id="a_node3"><a xlink:href="group__l4vbus__pci__module.html#ga5d4daafe0f275a28a5ba1941cfdfa837" target="_top" xlink:title="Write to the vPCI configuration space using the PCI root bridge. ">
<polygon fill="#ffffff" stroke="#000000" points="174,-.5 174,-19.5 288,-19.5 288,-.5 174,-.5"/>
<text text-anchor="middle" x="231" y="-7.5" font-family="Helvetica,sans-Serif" font-size="10.00" fill="#000000">l4vbus_pci_cfg_write</text>
</a>
</g>
</g>
<!-- Node4&#45;&gt;Node6 -->
<g id="edge2" class="edge">
<title>Node4&#45;&gt;Node6</title>
<path fill="none" stroke="#191970" d="M130.1312,-21.5452C141.1885,-20.2796 152.69,-18.9632 163.7994,-17.6916"/>
<polygon fill="#191970" stroke="#191970" points="164.3306,-21.1538 173.8677,-16.5392 163.5345,-14.1992 164.3306,-21.1538"/>
</g>
</g>
</svg>
