<?xml version="1.0" encoding="UTF-8" standalone="no"?>
<!DOCTYPE svg PUBLIC "-//W3C//DTD SVG 1.1//EN"
 "http://www.w3.org/Graphics/SVG/1.1/DTD/svg11.dtd">
<!-- Generated by graphviz version 2.40.1 (20161225.0304)
 -->
<!-- Title: L4Re::Util::Event_buffer_consumer_t::foreach_available_event Pages: 1 -->
<svg width="427pt" height="39pt"
 viewBox="0.00 0.00 427.00 39.00" xmlns="http://www.w3.org/2000/svg" xmlns:xlink="http://www.w3.org/1999/xlink">
<g id="graph0" class="graph" transform="scale(1 1) rotate(0) translate(4 35)">
<title>L4Re::Util::Event_buffer_consumer_t::foreach_available_event</title>
<polygon fill="#ffffff" stroke="transparent" points="-4,4 -4,-35 423,-35 423,4 -4,4"/>
<!-- Node0 -->
<g id="node1" class="node">
<title>Node0</title>
<polygon fill="#bfbfbf" stroke="#000000" points="0,-.5 0,-30.5 197,-30.5 197,-.5 0,-.5"/>
<text text-anchor="start" x="8" y="-18.5" font-family="Helvetica,sans-Serif" font-size="10.00" fill="#000000">L4Re::Util::Event_buffer</text>
<text text-anchor="middle" x="98.5" y="-7.5" font-family="Helvetica,sans-Serif" font-size="10.00" fill="#000000">_consumer_t::foreach_available_event</text>
</g>
<!-- Node1 -->
<g id="node2" class="node">
<title>Node1</title>
<g id="a_node2"><a xlink:href="structL4Re_1_1Event__buffer__t_1_1Event.html#a955b5c13ca2a0990eb345f09eb50f514" target="_top" xlink:title="Free the entry. ">
<polygon fill="#ffffff" stroke="#000000" points="233,-.5 233,-30.5 339,-30.5 339,-.5 233,-.5"/>
<text text-anchor="start" x="241" y="-18.5" font-family="Helvetica,sans-Serif" font-size="10.00" fill="#000000">L4Re::Event_buffer</text>
<text text-anchor="middle" x="286" y="-7.5" font-family="Helvetica,sans-Serif" font-size="10.00" fill="#000000">_t::Event::free</text>
</a>
</g>
</g>
<!-- Node0&#45;&gt;Node1 -->
<g id="edge1" class="edge">
<title>Node0&#45;&gt;Node1</title>
<path fill="none" stroke="#191970" d="M197.1918,-15.5C205.7524,-15.5 214.2579,-15.5 222.4217,-15.5"/>
<polygon fill="#191970" stroke="#191970" points="222.5582,-19.0001 232.5582,-15.5 222.5581,-12.0001 222.5582,-19.0001"/>
</g>
<!-- Node2 -->
<g id="node3" class="node">
<title>Node2</title>
<g id="a_node3"><a xlink:href="group__l4sys__defines.html#ga5d5bbbe36a0d144d1f465dbca715718e" target="_top" xlink:title="Memory barrier. ">
<polygon fill="#ffffff" stroke="#000000" points="375,-6 375,-25 419,-25 419,-6 375,-6"/>
<text text-anchor="middle" x="397" y="-13" font-family="Helvetica,sans-Serif" font-size="10.00" fill="#000000">l4_mb</text>
</a>
</g>
</g>
<!-- Node1&#45;&gt;Node2 -->
<g id="edge2" class="edge">
<title>Node1&#45;&gt;Node2</title>
<path fill="none" stroke="#191970" d="M339.2242,-15.5C347.9674,-15.5 356.7861,-15.5 364.8103,-15.5"/>
<polygon fill="#191970" stroke="#191970" points="364.8282,-19.0001 374.8282,-15.5 364.8282,-12.0001 364.8282,-19.0001"/>
</g>
</g>
</svg>
