<?xml version="1.0" encoding="UTF-8" standalone="no"?>
<!DOCTYPE svg PUBLIC "-//W3C//DTD SVG 1.1//EN"
 "http://www.w3.org/Graphics/SVG/1.1/DTD/svg11.dtd">
<!-- Generated by graphviz version 2.40.1 (20161225.0304)
 -->
<!-- Title: L4virtio::Ptr&lt; T &gt; Pages: 1 -->
<svg width="115pt" height="259pt"
 viewBox="0.00 0.00 115.00 259.00" xmlns="http://www.w3.org/2000/svg" xmlns:xlink="http://www.w3.org/1999/xlink">
<g id="graph0" class="graph" transform="scale(1 1) rotate(0) translate(4 255)">
<title>L4virtio::Ptr&lt; T &gt;</title>
<polygon fill="#ffffff" stroke="transparent" points="-4,4 -4,-255 111,-255 111,4 -4,4"/>
<!-- Node0 -->
<g id="node1" class="node">
<title>Node0</title>
<polygon fill="#bfbfbf" stroke="#000000" points="6.5,-149.5 6.5,-250.5 100.5,-250.5 100.5,-149.5 6.5,-149.5"/>
<text text-anchor="middle" x="53.5" y="-238.5" font-family="Helvetica,sans-Serif" font-size="10.00" fill="#000000">L4virtio::Ptr&lt; T &gt;</text>
<polyline fill="none" stroke="#000000" points="6.5,-231.5 100.5,-231.5 "/>
<text text-anchor="middle" x="53.5" y="-219.5" font-family="Helvetica,sans-Serif" font-size="10.00" fill="#000000"> </text>
<polyline fill="none" stroke="#000000" points="6.5,-212.5 100.5,-212.5 "/>
<text text-anchor="start" x="14.5" y="-200.5" font-family="Helvetica,sans-Serif" font-size="10.00" fill="#000000">+ Ptr()</text>
<text text-anchor="start" x="14.5" y="-189.5" font-family="Helvetica,sans-Serif" font-size="10.00" fill="#000000">+ Ptr()</text>
<text text-anchor="start" x="14.5" y="-178.5" font-family="Helvetica,sans-Serif" font-size="10.00" fill="#000000">+ Ptr()</text>
<text text-anchor="start" x="14.5" y="-167.5" font-family="Helvetica,sans-Serif" font-size="10.00" fill="#000000">+ get()</text>
<text text-anchor="start" x="14.5" y="-156.5" font-family="Helvetica,sans-Serif" font-size="10.00" fill="#000000">+ is_valid()</text>
</g>
<!-- Node1 -->
<g id="node2" class="node">
<title>Node1</title>
<g id="a_node2"><a xlink:href="classL4virtio_1_1Ptr.html" target="_top" xlink:title="{L4virtio::Ptr\&lt; void \&gt;\n||+ Ptr()\l+ Ptr()\l+ Ptr()\l+ get()\l+ is_valid()\l}">
<polygon fill="#ffffff" stroke="#000000" points="0,-.5 0,-101.5 107,-101.5 107,-.5 0,-.5"/>
<text text-anchor="middle" x="53.5" y="-89.5" font-family="Helvetica,sans-Serif" font-size="10.00" fill="#000000">L4virtio::Ptr&lt; void &gt;</text>
<polyline fill="none" stroke="#000000" points="0,-82.5 107,-82.5 "/>
<text text-anchor="middle" x="53.5" y="-70.5" font-family="Helvetica,sans-Serif" font-size="10.00" fill="#000000"> </text>
<polyline fill="none" stroke="#000000" points="0,-63.5 107,-63.5 "/>
<text text-anchor="start" x="8" y="-51.5" font-family="Helvetica,sans-Serif" font-size="10.00" fill="#000000">+ Ptr()</text>
<text text-anchor="start" x="8" y="-40.5" font-family="Helvetica,sans-Serif" font-size="10.00" fill="#000000">+ Ptr()</text>
<text text-anchor="start" x="8" y="-29.5" font-family="Helvetica,sans-Serif" font-size="10.00" fill="#000000">+ Ptr()</text>
<text text-anchor="start" x="8" y="-18.5" font-family="Helvetica,sans-Serif" font-size="10.00" fill="#000000">+ get()</text>
<text text-anchor="start" x="8" y="-7.5" font-family="Helvetica,sans-Serif" font-size="10.00" fill="#000000">+ is_valid()</text>
</a>
</g>
</g>
<!-- Node0&#45;&gt;Node1 -->
<g id="edge1" class="edge">
<title>Node0&#45;&gt;Node1</title>
<path fill="none" stroke="#ffa500" d="M53.5,-138.8874C53.5,-126.5023 53.5,-113.6068 53.5,-101.6314"/>
<polygon fill="#ffa500" stroke="#ffa500" points="50.0001,-139.1394 53.5,-149.1394 57.0001,-139.1394 50.0001,-139.1394"/>
<text text-anchor="middle" x="74" y="-123" font-family="Helvetica,sans-Serif" font-size="10.00" fill="#000000"> &lt; void &gt;</text>
</g>
</g>
</svg>
