<?xml version="1.0" encoding="UTF-8" standalone="no"?>
<!DOCTYPE svg PUBLIC "-//W3C//DTD SVG 1.1//EN"
 "http://www.w3.org/Graphics/SVG/1.1/DTD/svg11.dtd">
<!-- Generated by graphviz version 2.40.1 (20161225.0304)
 -->
<!-- Title: L4::Ipc_gate Pages: 1 -->
<svg width="361pt" height="620pt"
 viewBox="0.00 0.00 361.00 620.00" xmlns="http://www.w3.org/2000/svg" xmlns:xlink="http://www.w3.org/1999/xlink">
<g id="graph0" class="graph" transform="scale(1 1) rotate(0) translate(4 616)">
<title>L4::Ipc_gate</title>
<polygon fill="#ffffff" stroke="transparent" points="-4,4 -4,-616 357,-616 357,4 -4,4"/>
<!-- Node6 -->
<g id="node1" class="node">
<title>Node6</title>
<polygon fill="#bfbfbf" stroke="#000000" points="148.5,-.5 148.5,-57.5 225.5,-57.5 225.5,-.5 148.5,-.5"/>
<text text-anchor="middle" x="187" y="-45.5" font-family="Helvetica,sans-Serif" font-size="10.00" fill="#000000">L4::Ipc_gate</text>
<polyline fill="none" stroke="#000000" points="148.5,-38.5 225.5,-38.5 "/>
<text text-anchor="middle" x="187" y="-26.5" font-family="Helvetica,sans-Serif" font-size="10.00" fill="#000000"> </text>
<polyline fill="none" stroke="#000000" points="148.5,-19.5 225.5,-19.5 "/>
<text text-anchor="start" x="156.5" y="-7.5" font-family="Helvetica,sans-Serif" font-size="10.00" fill="#000000">+ get_infos()</text>
</g>
<!-- Node7 -->
<g id="node2" class="node">
<title>Node7</title>
<g id="a_node2"><a xlink:href="classL4_1_1Kobject__t.html" target="_top" xlink:title="{L4::Kobject_t\&lt; Ipc\l_gate, Rcv_endpoint,\l L4_PROTO_KOBJECT, Type\l_info::Demand_t\&lt; 1 \&gt; \&gt;\n||# c()\l# __check_protocols__()\l}">
<polygon fill="#ffffff" stroke="#000000" points="108,-95.5 108,-196.5 266,-196.5 266,-95.5 108,-95.5"/>
<text text-anchor="start" x="116" y="-184.5" font-family="Helvetica,sans-Serif" font-size="10.00" fill="#000000">L4::Kobject_t&lt; Ipc</text>
<text text-anchor="start" x="116" y="-173.5" font-family="Helvetica,sans-Serif" font-size="10.00" fill="#000000">_gate, Rcv_endpoint,</text>
<text text-anchor="start" x="116" y="-162.5" font-family="Helvetica,sans-Serif" font-size="10.00" fill="#000000"> L4_PROTO_KOBJECT, Type</text>
<text text-anchor="middle" x="187" y="-151.5" font-family="Helvetica,sans-Serif" font-size="10.00" fill="#000000">_info::Demand_t&lt; 1 &gt; &gt;</text>
<polyline fill="none" stroke="#000000" points="108,-144.5 266,-144.5 "/>
<text text-anchor="middle" x="187" y="-132.5" font-family="Helvetica,sans-Serif" font-size="10.00" fill="#000000"> </text>
<polyline fill="none" stroke="#000000" points="108,-125.5 266,-125.5 "/>
<text text-anchor="start" x="116" y="-113.5" font-family="Helvetica,sans-Serif" font-size="10.00" fill="#000000"># c()</text>
<text text-anchor="start" x="116" y="-102.5" font-family="Helvetica,sans-Serif" font-size="10.00" fill="#000000"># __check_protocols__()</text>
</a>
</g>
</g>
<!-- Node7&#45;&gt;Node6 -->
<g id="edge1" class="edge">
<title>Node7&#45;&gt;Node6</title>
<path fill="none" stroke="#191970" d="M187,-85.0646C187,-75.5614 187,-66.1441 187,-57.8181"/>
<polygon fill="none" stroke="#191970" points="183.5001,-85.3625 187,-95.3626 190.5001,-85.3626 183.5001,-85.3625"/>
</g>
<!-- Node8 -->
<g id="node3" class="node">
<title>Node8</title>
<g id="a_node3"><a xlink:href="classL4_1_1Rcv__endpoint.html" target="_top" xlink:title="Interface for kernel objects that allow to receive IPC from them. ">
<polygon fill="#ffffff" stroke="#000000" points="90,-234.5 90,-291.5 188,-291.5 188,-234.5 90,-234.5"/>
<text text-anchor="middle" x="139" y="-279.5" font-family="Helvetica,sans-Serif" font-size="10.00" fill="#000000">L4::Rcv_endpoint</text>
<polyline fill="none" stroke="#000000" points="90,-272.5 188,-272.5 "/>
<text text-anchor="middle" x="139" y="-260.5" font-family="Helvetica,sans-Serif" font-size="10.00" fill="#000000"> </text>
<polyline fill="none" stroke="#000000" points="90,-253.5 188,-253.5 "/>
<text text-anchor="start" x="98" y="-241.5" font-family="Helvetica,sans-Serif" font-size="10.00" fill="#000000">+ bind_thread()</text>
</a>
</g>
</g>
<!-- Node8&#45;&gt;Node7 -->
<g id="edge2" class="edge">
<title>Node8&#45;&gt;Node7</title>
<path fill="none" stroke="#191970" d="M154.6166,-224.9346C158.3153,-215.919 162.3178,-206.1628 166.2061,-196.6852"/>
<polygon fill="none" stroke="#191970" points="151.2997,-223.7984 150.7421,-234.3786 157.7758,-226.4554 151.2997,-223.7984"/>
</g>
<!-- Node9 -->
<g id="node4" class="node">
<title>Node9</title>
<g id="a_node4"><a xlink:href="classL4_1_1Kobject__t.html" target="_top" xlink:title="{L4::Kobject_t\&lt; Rcv\l_endpoint, Kobject,\l L4_PROTO_KOBJECT, Type\l_info::Demand_t\&lt; 1 \&gt; \&gt;\n||# c()\l# __check_protocols__()\l}">
<polygon fill="#ffffff" stroke="#000000" points="0,-361.5 0,-462.5 158,-462.5 158,-361.5 0,-361.5"/>
<text text-anchor="start" x="8" y="-450.5" font-family="Helvetica,sans-Serif" font-size="10.00" fill="#000000">L4::Kobject_t&lt; Rcv</text>
<text text-anchor="start" x="8" y="-439.5" font-family="Helvetica,sans-Serif" font-size="10.00" fill="#000000">_endpoint, Kobject,</text>
<text text-anchor="start" x="8" y="-428.5" font-family="Helvetica,sans-Serif" font-size="10.00" fill="#000000"> L4_PROTO_KOBJECT, Type</text>
<text text-anchor="middle" x="79" y="-417.5" font-family="Helvetica,sans-Serif" font-size="10.00" fill="#000000">_info::Demand_t&lt; 1 &gt; &gt;</text>
<polyline fill="none" stroke="#000000" points="0,-410.5 158,-410.5 "/>
<text text-anchor="middle" x="79" y="-398.5" font-family="Helvetica,sans-Serif" font-size="10.00" fill="#000000"> </text>
<polyline fill="none" stroke="#000000" points="0,-391.5 158,-391.5 "/>
<text text-anchor="start" x="8" y="-379.5" font-family="Helvetica,sans-Serif" font-size="10.00" fill="#000000"># c()</text>
<text text-anchor="start" x="8" y="-368.5" font-family="Helvetica,sans-Serif" font-size="10.00" fill="#000000"># __check_protocols__()</text>
</a>
</g>
</g>
<!-- Node9&#45;&gt;Node8 -->
<g id="edge3" class="edge">
<title>Node9&#45;&gt;Node8</title>
<path fill="none" stroke="#191970" d="M103.2773,-351.7114C111.6565,-330.9029 120.6544,-308.5584 127.5234,-291.5001"/>
<polygon fill="none" stroke="#191970" points="99.9696,-350.5558 99.4808,-361.1394 106.4629,-353.1706 99.9696,-350.5558"/>
</g>
<!-- Node10 -->
<g id="node5" class="node">
<title>Node10</title>
<g id="a_node5"><a xlink:href="classL4_1_1Kobject.html" target="_top" xlink:title="Base class for all kinds of kernel objects and remote objects, referenced by capabilities. ">
<polygon fill="#ffffff" stroke="#000000" points="4,-538 4,-606 88,-606 88,-538 4,-538"/>
<text text-anchor="middle" x="46" y="-594" font-family="Helvetica,sans-Serif" font-size="10.00" fill="#000000">L4::Kobject</text>
<polyline fill="none" stroke="#000000" points="4,-587 88,-587 "/>
<text text-anchor="middle" x="46" y="-575" font-family="Helvetica,sans-Serif" font-size="10.00" fill="#000000"> </text>
<polyline fill="none" stroke="#000000" points="4,-568 88,-568 "/>
<text text-anchor="start" x="12" y="-556" font-family="Helvetica,sans-Serif" font-size="10.00" fill="#000000">+ dec_refcnt()</text>
<text text-anchor="start" x="12" y="-545" font-family="Helvetica,sans-Serif" font-size="10.00" fill="#000000"># cap()</text>
</a>
</g>
</g>
<!-- Node10&#45;&gt;Node9 -->
<g id="edge4" class="edge">
<title>Node10&#45;&gt;Node9</title>
<path fill="none" stroke="#191970" d="M51.7624,-527.6961C53.9804,-512.7912 56.768,-496.1133 60,-481 61.2732,-475.0464 62.7551,-468.8439 64.3191,-462.7061"/>
<polygon fill="none" stroke="#191970" points="48.2844,-527.2931 50.3194,-537.6906 55.2125,-528.2934 48.2844,-527.2931"/>
</g>
<!-- Node11 -->
<g id="node6" class="node">
<title>Node11</title>
<g id="a_node6"><a xlink:href="classL4_1_1Kobject__t.html" target="_top" xlink:title="Helper class to create an L4Re interface class that is derived from a single base class...">
<polygon fill="#ffffff" stroke="#000000" points="131,-532.5 131,-611.5 289,-611.5 289,-532.5 131,-532.5"/>
<text text-anchor="start" x="139" y="-599.5" font-family="Helvetica,sans-Serif" font-size="10.00" fill="#000000">L4::Kobject_t&lt; Derived,</text>
<text text-anchor="middle" x="210" y="-588.5" font-family="Helvetica,sans-Serif" font-size="10.00" fill="#000000"> Base, PROTO, S_DEMAND &gt;</text>
<polyline fill="none" stroke="#000000" points="131,-581.5 289,-581.5 "/>
<text text-anchor="middle" x="210" y="-569.5" font-family="Helvetica,sans-Serif" font-size="10.00" fill="#000000"> </text>
<polyline fill="none" stroke="#000000" points="131,-562.5 289,-562.5 "/>
<text text-anchor="start" x="139" y="-550.5" font-family="Helvetica,sans-Serif" font-size="10.00" fill="#000000"># c()</text>
<text text-anchor="start" x="139" y="-539.5" font-family="Helvetica,sans-Serif" font-size="10.00" fill="#000000"># __check_protocols__()</text>
</a>
</g>
</g>
<!-- Node11&#45;&gt;Node7 -->
<g id="edge6" class="edge">
<title>Node11&#45;&gt;Node7</title>
<path fill="none" stroke="#ffa500" d="M220.9818,-522.2025C221.3796,-519.436 221.7248,-516.6884 222,-514 223.4935,-499.4096 222.7394,-495.648 222,-481 216.8925,-379.8187 202.6681,-262.1575 194.0058,-196.6633"/>
<polygon fill="#ffa500" stroke="#ffa500" points="217.5018,-521.796 219.3413,-532.2299 224.41,-522.9262 217.5018,-521.796"/>
<text text-anchor="start" x="211" y="-335" font-family="Helvetica,sans-Serif" font-size="10.00" fill="#000000"> &lt; Ipc_gate, Rcv_endpoint,</text>
<text text-anchor="start" x="211" y="-324" font-family="Helvetica,sans-Serif" font-size="10.00" fill="#000000"> L4_PROTO_KOBJECT, Type</text>
<text text-anchor="middle" x="282" y="-313" font-family="Helvetica,sans-Serif" font-size="10.00" fill="#000000">_info::Demand_t&lt; 1 &gt; &gt;</text>
</g>
<!-- Node11&#45;&gt;Node9 -->
<g id="edge5" class="edge">
<title>Node11&#45;&gt;Node9</title>
<path fill="none" stroke="#ffa500" d="M121.5032,-540.8333C102.2054,-532.2299 85.7918,-522.831 80,-514 70.2394,-499.1175 67.9882,-480.2001 68.8548,-462.7095"/>
<polygon fill="#ffa500" stroke="#ffa500" points="120.2888,-544.1209 130.8582,-544.8556 123.0539,-537.6901 120.2888,-544.1209"/>
<text text-anchor="start" x="80" y="-506" font-family="Helvetica,sans-Serif" font-size="10.00" fill="#000000"> &lt; Rcv_endpoint, Kobject,</text>
<text text-anchor="start" x="80" y="-495" font-family="Helvetica,sans-Serif" font-size="10.00" fill="#000000"> L4_PROTO_KOBJECT, Type</text>
<text text-anchor="middle" x="151" y="-484" font-family="Helvetica,sans-Serif" font-size="10.00" fill="#000000">_info::Demand_t&lt; 1 &gt; &gt;</text>
</g>
</g>
</svg>
