<?xml version="1.0" encoding="UTF-8" standalone="no"?>
<!DOCTYPE svg PUBLIC "-//W3C//DTD SVG 1.1//EN"
 "http://www.w3.org/Graphics/SVG/1.1/DTD/svg11.dtd">
<!-- Generated by graphviz version 2.40.1 (20161225.0304)
 -->
<!-- Title: L4virtio::Svr::Request_processor::next Pages: 1 -->
<svg width="273pt" height="88pt"
 viewBox="0.00 0.00 273.00 88.00" xmlns="http://www.w3.org/2000/svg" xmlns:xlink="http://www.w3.org/1999/xlink">
<g id="graph0" class="graph" transform="scale(1 1) rotate(0) translate(4 84)">
<title>L4virtio::Svr::Request_processor::next</title>
<polygon fill="#ffffff" stroke="transparent" points="-4,4 -4,-84 269,-84 269,4 -4,4"/>
<!-- Node6 -->
<g id="node1" class="node">
<title>Node6</title>
<polygon fill="#bfbfbf" stroke="#000000" points="0,-24.5 0,-54.5 115,-54.5 115,-24.5 0,-24.5"/>
<text text-anchor="start" x="8" y="-42.5" font-family="Helvetica,sans-Serif" font-size="10.00" fill="#000000">L4virtio::Svr::Request</text>
<text text-anchor="middle" x="57.5" y="-31.5" font-family="Helvetica,sans-Serif" font-size="10.00" fill="#000000">_processor::next</text>
</g>
<!-- Node7 -->
<g id="node2" class="node">
<title>Node7</title>
<g id="a_node2"><a xlink:href="structL4virtio_1_1Virtqueue_1_1Desc_1_1Flags.html#a978fd95c3be397943f14b0e5c2c9937b" target="_top" xlink:title="Get the indirect bits ( 2 to 2 ) of raw. ">
<polygon fill="#ffffff" stroke="#000000" points="151,-49.5 151,-79.5 265,-79.5 265,-49.5 151,-49.5"/>
<text text-anchor="start" x="159" y="-67.5" font-family="Helvetica,sans-Serif" font-size="10.00" fill="#000000">L4virtio::Virtqueue</text>
<text text-anchor="middle" x="208" y="-56.5" font-family="Helvetica,sans-Serif" font-size="10.00" fill="#000000">::Desc::Flags::indirect</text>
</a>
</g>
</g>
<!-- Node6&#45;&gt;Node7 -->
<g id="edge1" class="edge">
<title>Node6&#45;&gt;Node7</title>
<path fill="none" stroke="#191970" d="M115.2568,-49.0942C123.598,-50.4797 132.2428,-51.9158 140.7497,-53.3289"/>
<polygon fill="#191970" stroke="#191970" points="140.2078,-56.7867 150.6462,-54.9728 141.355,-49.8813 140.2078,-56.7867"/>
</g>
<!-- Node8 -->
<g id="node3" class="node">
<title>Node8</title>
<g id="a_node3"><a xlink:href="structL4virtio_1_1Virtqueue_1_1Desc_1_1Flags.html#a4c91d7f9a29c6b9f80d7db69ea066863" target="_top" xlink:title="Get the next bits ( 0 to 0 ) of raw. ">
<polygon fill="#ffffff" stroke="#000000" points="158,-.5 158,-30.5 258,-30.5 258,-.5 158,-.5"/>
<text text-anchor="start" x="166" y="-18.5" font-family="Helvetica,sans-Serif" font-size="10.00" fill="#000000">L4virtio::Virtqueue</text>
<text text-anchor="middle" x="208" y="-7.5" font-family="Helvetica,sans-Serif" font-size="10.00" fill="#000000">::Desc::Flags::next</text>
</a>
</g>
</g>
<!-- Node6&#45;&gt;Node8 -->
<g id="edge2" class="edge">
<title>Node6&#45;&gt;Node8</title>
<path fill="none" stroke="#191970" d="M115.2568,-30.2896C125.8103,-28.6067 136.8497,-26.8462 147.4809,-25.1509"/>
<polygon fill="#191970" stroke="#191970" points="148.1954,-28.5813 157.5194,-23.5501 147.093,-21.6686 148.1954,-28.5813"/>
</g>
</g>
</svg>
