<?xml version="1.0" encoding="UTF-8" standalone="no"?>
<!DOCTYPE svg PUBLIC "-//W3C//DTD SVG 1.1//EN"
 "http://www.w3.org/Graphics/SVG/1.1/DTD/svg11.dtd">
<!-- Generated by graphviz version 2.40.1 (20161225.0304)
 -->
<!-- Title: L4vcpu::Vcpu::irq_restore Pages: 1 -->
<svg width="520pt" height="66pt"
 viewBox="0.00 0.00 520.00 66.00" xmlns="http://www.w3.org/2000/svg" xmlns:xlink="http://www.w3.org/1999/xlink">
<g id="graph0" class="graph" transform="scale(1 1) rotate(0) translate(4 62)">
<title>L4vcpu::Vcpu::irq_restore</title>
<polygon fill="#ffffff" stroke="transparent" points="-4,4 -4,-62 516,-62 516,4 -4,4"/>
<!-- Node27 -->
<g id="node1" class="node">
<title>Node27</title>
<polygon fill="#bfbfbf" stroke="#000000" points="0,-19.5 0,-38.5 134,-38.5 134,-19.5 0,-19.5"/>
<text text-anchor="middle" x="67" y="-26.5" font-family="Helvetica,sans-Serif" font-size="10.00" fill="#000000">L4vcpu::Vcpu::irq_restore</text>
</g>
<!-- Node28 -->
<g id="node2" class="node">
<title>Node28</title>
<g id="a_node2"><a xlink:href="group__api__libvcpu.html#ga68cccc12b6542f9413afb281d8bdffcc" target="_top" xlink:title="Restore a previously saved IRQ/event state. ">
<polygon fill="#ffffff" stroke="#000000" points="170,-19.5 170,-38.5 274,-38.5 274,-19.5 170,-19.5"/>
<text text-anchor="middle" x="222" y="-26.5" font-family="Helvetica,sans-Serif" font-size="10.00" fill="#000000">l4vcpu_irq_restore</text>
</a>
</g>
</g>
<!-- Node27&#45;&gt;Node28 -->
<g id="edge1" class="edge">
<title>Node27&#45;&gt;Node28</title>
<path fill="none" stroke="#191970" d="M134.0838,-29C142.5762,-29 151.2385,-29 159.6529,-29"/>
<polygon fill="#191970" stroke="#191970" points="159.7655,-32.5001 169.7655,-29 159.7654,-25.5001 159.7655,-32.5001"/>
</g>
<!-- Node29 -->
<g id="node3" class="node">
<title>Node29</title>
<g id="a_node3"><a xlink:href="group__api__libvcpu.html#gac8dd177f5382328e3922754cc9d36b28" target="_top" xlink:title="Disable a vCPU for event delivery. ">
<polygon fill="#ffffff" stroke="#000000" points="310,-38.5 310,-57.5 414,-57.5 414,-38.5 310,-38.5"/>
<text text-anchor="middle" x="362" y="-45.5" font-family="Helvetica,sans-Serif" font-size="10.00" fill="#000000">l4vcpu_irq_disable</text>
</a>
</g>
</g>
<!-- Node28&#45;&gt;Node29 -->
<g id="edge2" class="edge">
<title>Node28&#45;&gt;Node29</title>
<path fill="none" stroke="#191970" d="M274.1308,-36.0749C282.5124,-37.2124 291.2603,-38.3996 299.8486,-39.5652"/>
<polygon fill="#191970" stroke="#191970" points="299.4458,-43.0425 309.8256,-40.9192 300.3872,-36.1061 299.4458,-43.0425"/>
</g>
<!-- Node31 -->
<g id="node5" class="node">
<title>Node31</title>
<g id="a_node5"><a xlink:href="group__api__libvcpu.html#ga58a61ec0b02bed0a03f708e1594cf8a5" target="_top" xlink:title="Enable a vCPU for event delivery. ">
<polygon fill="#ffffff" stroke="#000000" points="311,-.5 311,-19.5 413,-19.5 413,-.5 311,-.5"/>
<text text-anchor="middle" x="362" y="-7.5" font-family="Helvetica,sans-Serif" font-size="10.00" fill="#000000">l4vcpu_irq_enable</text>
</a>
</g>
</g>
<!-- Node28&#45;&gt;Node31 -->
<g id="edge4" class="edge">
<title>Node28&#45;&gt;Node31</title>
<path fill="none" stroke="#191970" d="M274.1308,-21.9251C282.8295,-20.7446 291.9226,-19.5105 300.8224,-18.3027"/>
<polygon fill="#191970" stroke="#191970" points="301.3187,-21.7675 310.7571,-16.9544 300.3773,-14.8311 301.3187,-21.7675"/>
</g>
<!-- Node30 -->
<g id="node4" class="node">
<title>Node30</title>
<g id="a_node4"><a xlink:href="group__l4sys__defines.html#ga4accdcabe8bddb4964f8986855e7c728" target="_top" xlink:title="Memory barrier. ">
<polygon fill="#ffffff" stroke="#000000" points="450,-19.5 450,-38.5 512,-38.5 512,-19.5 450,-19.5"/>
<text text-anchor="middle" x="481" y="-26.5" font-family="Helvetica,sans-Serif" font-size="10.00" fill="#000000">l4_barrier</text>
</a>
</g>
</g>
<!-- Node29&#45;&gt;Node30 -->
<g id="edge3" class="edge">
<title>Node29&#45;&gt;Node30</title>
<path fill="none" stroke="#191970" d="M414.1951,-39.6663C422.7135,-38.3062 431.4348,-36.9138 439.6461,-35.6027"/>
<polygon fill="#191970" stroke="#191970" points="440.3977,-39.0271 449.7208,-33.9942 439.294,-32.1147 440.3977,-39.0271"/>
</g>
<!-- Node31&#45;&gt;Node30 -->
<g id="edge5" class="edge">
<title>Node31&#45;&gt;Node30</title>
<path fill="none" stroke="#191970" d="M413.1573,-18.168C422.0248,-19.5838 431.1444,-21.0399 439.7073,-22.407"/>
<polygon fill="#191970" stroke="#191970" points="439.3948,-25.9014 449.8216,-24.0219 440.4985,-18.989 439.3948,-25.9014"/>
</g>
</g>
</svg>
