<?xml version="1.0" encoding="UTF-8" standalone="no"?>
<!DOCTYPE svg PUBLIC "-//W3C//DTD SVG 1.1//EN"
 "http://www.w3.org/Graphics/SVG/1.1/DTD/svg11.dtd">
<!-- Generated by graphviz version 2.40.1 (20161225.0304)
 -->
<!-- Title: L4::Type_info::Demand Pages: 1 -->
<svg width="596pt" height="840pt"
 viewBox="0.00 0.00 595.50 840.00" xmlns="http://www.w3.org/2000/svg" xmlns:xlink="http://www.w3.org/1999/xlink">
<g id="graph0" class="graph" transform="scale(1 1) rotate(0) translate(4 836)">
<title>L4::Type_info::Demand</title>
<polygon fill="#ffffff" stroke="transparent" points="-4,4 -4,-836 591.5,-836 591.5,4 -4,4"/>
<!-- Node0 -->
<g id="node1" class="node">
<title>Node0</title>
<polygon fill="#bfbfbf" stroke="#000000" points="123,-719.5 123,-831.5 248,-831.5 248,-719.5 123,-719.5"/>
<text text-anchor="middle" x="185.5" y="-819.5" font-family="Helvetica,sans-Serif" font-size="10.00" fill="#000000">L4::Type_info::Demand</text>
<polyline fill="none" stroke="#000000" points="123,-812.5 248,-812.5 "/>
<text text-anchor="start" x="131" y="-800.5" font-family="Helvetica,sans-Serif" font-size="10.00" fill="#000000">+ caps</text>
<text text-anchor="start" x="131" y="-789.5" font-family="Helvetica,sans-Serif" font-size="10.00" fill="#000000">+ flags</text>
<text text-anchor="start" x="131" y="-778.5" font-family="Helvetica,sans-Serif" font-size="10.00" fill="#000000">+ mem</text>
<text text-anchor="start" x="131" y="-767.5" font-family="Helvetica,sans-Serif" font-size="10.00" fill="#000000">+ ports</text>
<polyline fill="none" stroke="#000000" points="123,-760.5 248,-760.5 "/>
<text text-anchor="start" x="131" y="-748.5" font-family="Helvetica,sans-Serif" font-size="10.00" fill="#000000">+ Demand()</text>
<text text-anchor="start" x="131" y="-737.5" font-family="Helvetica,sans-Serif" font-size="10.00" fill="#000000">+ no_demand()</text>
<text text-anchor="start" x="131" y="-726.5" font-family="Helvetica,sans-Serif" font-size="10.00" fill="#000000">+ operator|()</text>
</g>
<!-- Node1 -->
<g id="node2" class="node">
<title>Node1</title>
<g id="a_node2"><a xlink:href="structL4_1_1Type__info_1_1Demand__t.html" target="_top" xlink:title="{L4::Type_info::Demand\l_t\&lt; __I::Max\&lt; D1::Caps,\l D2::Caps \&gt;::Res, D1::Flags\|\lD2::Flags, __I::Max\&lt; D1::Mem,\l D2::Mem \&gt;::Res, __I::Max\&lt; D1\l::Ports, D2::Ports \&gt;::Res \&gt;\n||+ Demand_t()\l}">
<polygon fill="#ffffff" stroke="#000000" points="0,-299.5 0,-411.5 161,-411.5 161,-299.5 0,-299.5"/>
<text text-anchor="start" x="8" y="-399.5" font-family="Helvetica,sans-Serif" font-size="10.00" fill="#000000">L4::Type_info::Demand</text>
<text text-anchor="start" x="8" y="-388.5" font-family="Helvetica,sans-Serif" font-size="10.00" fill="#000000">_t&lt; __I::Max&lt; D1::Caps,</text>
<text text-anchor="start" x="8" y="-377.5" font-family="Helvetica,sans-Serif" font-size="10.00" fill="#000000"> D2::Caps &gt;::Res, D1::Flags|</text>
<text text-anchor="start" x="8" y="-366.5" font-family="Helvetica,sans-Serif" font-size="10.00" fill="#000000">D2::Flags, __I::Max&lt; D1::Mem,</text>
<text text-anchor="start" x="8" y="-355.5" font-family="Helvetica,sans-Serif" font-size="10.00" fill="#000000"> D2::Mem &gt;::Res, __I::Max&lt; D1</text>
<text text-anchor="middle" x="80.5" y="-344.5" font-family="Helvetica,sans-Serif" font-size="10.00" fill="#000000">::Ports, D2::Ports &gt;::Res &gt;</text>
<polyline fill="none" stroke="#000000" points="0,-337.5 161,-337.5 "/>
<text text-anchor="middle" x="80.5" y="-325.5" font-family="Helvetica,sans-Serif" font-size="10.00" fill="#000000"> </text>
<polyline fill="none" stroke="#000000" points="0,-318.5 161,-318.5 "/>
<text text-anchor="start" x="8" y="-306.5" font-family="Helvetica,sans-Serif" font-size="10.00" fill="#000000">+ Demand_t()</text>
</a>
</g>
</g>
<!-- Node0&#45;&gt;Node1 -->
<g id="edge1" class="edge">
<title>Node0&#45;&gt;Node1</title>
<path fill="none" stroke="#191970" d="M115.6965,-722.2743C104.1625,-710.281 93.6514,-696.7003 86.5,-682 44.2761,-595.2047 55.5596,-479.4505 67.8562,-411.6426"/>
<polygon fill="none" stroke="#191970" points="113.4325,-724.9591 122.9894,-729.5325 118.3705,-719.9975 113.4325,-724.9591"/>
</g>
<!-- Node4 -->
<g id="node5" class="node">
<title>Node4</title>
<g id="a_node5"><a xlink:href="structL4_1_1Type__info_1_1Demand__t.html" target="_top" xlink:title="{L4::Type_info::Demand\l_t\&lt; __I::Max\&lt; Kobject\l_typeid\&lt; T1 \&gt;::Demand\l ::Caps, Kobject_demand\l\&lt; T2... \&gt; ::Caps \&gt;::Res,\l Kobject_typeid\&lt; T1 \&gt;::Demand\l ::Flags\|Kobject_demand\&lt; T2...\l \&gt; ::Flags, __I::Max\&lt; Kobject\l_typeid\&lt; T1 \&gt;::Demand ::Mem, Kobject\l_demand\&lt; T2... \&gt; ::Mem \&gt;::Res, __I\l::Max\&lt; Kobject_typeid\&lt; T1 \&gt;::Demand\l ::Ports, Kobject_demand\&lt; T2... \&gt; ::Ports \&gt;::Res \&gt;\n||+ Demand_t()\l}">
<polygon fill="#ffffff" stroke="#000000" points="343.5,-266.5 343.5,-444.5 587.5,-444.5 587.5,-266.5 343.5,-266.5"/>
<text text-anchor="start" x="351.5" y="-432.5" font-family="Helvetica,sans-Serif" font-size="10.00" fill="#000000">L4::Type_info::Demand</text>
<text text-anchor="start" x="351.5" y="-421.5" font-family="Helvetica,sans-Serif" font-size="10.00" fill="#000000">_t&lt; __I::Max&lt; Kobject</text>
<text text-anchor="start" x="351.5" y="-410.5" font-family="Helvetica,sans-Serif" font-size="10.00" fill="#000000">_typeid&lt; T1 &gt;::Demand</text>
<text text-anchor="start" x="351.5" y="-399.5" font-family="Helvetica,sans-Serif" font-size="10.00" fill="#000000"> ::Caps, Kobject_demand</text>
<text text-anchor="start" x="351.5" y="-388.5" font-family="Helvetica,sans-Serif" font-size="10.00" fill="#000000">&lt; T2... &gt; ::Caps &gt;::Res,</text>
<text text-anchor="start" x="351.5" y="-377.5" font-family="Helvetica,sans-Serif" font-size="10.00" fill="#000000"> Kobject_typeid&lt; T1 &gt;::Demand</text>
<text text-anchor="start" x="351.5" y="-366.5" font-family="Helvetica,sans-Serif" font-size="10.00" fill="#000000"> ::Flags|Kobject_demand&lt; T2...</text>
<text text-anchor="start" x="351.5" y="-355.5" font-family="Helvetica,sans-Serif" font-size="10.00" fill="#000000"> &gt; ::Flags, __I::Max&lt; Kobject</text>
<text text-anchor="start" x="351.5" y="-344.5" font-family="Helvetica,sans-Serif" font-size="10.00" fill="#000000">_typeid&lt; T1 &gt;::Demand ::Mem, Kobject</text>
<text text-anchor="start" x="351.5" y="-333.5" font-family="Helvetica,sans-Serif" font-size="10.00" fill="#000000">_demand&lt; T2... &gt; ::Mem &gt;::Res, __I</text>
<text text-anchor="start" x="351.5" y="-322.5" font-family="Helvetica,sans-Serif" font-size="10.00" fill="#000000">::Max&lt; Kobject_typeid&lt; T1 &gt;::Demand</text>
<text text-anchor="middle" x="465.5" y="-311.5" font-family="Helvetica,sans-Serif" font-size="10.00" fill="#000000"> ::Ports, Kobject_demand&lt; T2... &gt; ::Ports &gt;::Res &gt;</text>
<polyline fill="none" stroke="#000000" points="343.5,-304.5 587.5,-304.5 "/>
<text text-anchor="middle" x="465.5" y="-292.5" font-family="Helvetica,sans-Serif" font-size="10.00" fill="#000000"> </text>
<polyline fill="none" stroke="#000000" points="343.5,-285.5 587.5,-285.5 "/>
<text text-anchor="start" x="351.5" y="-273.5" font-family="Helvetica,sans-Serif" font-size="10.00" fill="#000000">+ Demand_t()</text>
</a>
</g>
</g>
<!-- Node0&#45;&gt;Node4 -->
<g id="edge4" class="edge">
<title>Node0&#45;&gt;Node4</title>
<path fill="none" stroke="#191970" d="M257.7448,-760.6887C344.0739,-738.6954 484.7155,-688.2417 547.5,-584 575.2462,-537.9327 564.7134,-513.9485 547.5,-463 545.3963,-456.7733 542.7718,-450.6228 539.7656,-444.6061"/>
<polygon fill="none" stroke="#191970" points="256.8743,-757.2985 248.0131,-763.1061 258.562,-764.092 256.8743,-757.2985"/>
</g>
<!-- Node5 -->
<g id="node6" class="node">
<title>Node5</title>
<g id="a_node6"><a xlink:href="structL4_1_1Type__info_1_1Demand__t.html" target="_top" xlink:title="{L4::Type_info::Demand_t\&lt;\&gt;\n||+ Demand_t()\l}">
<polygon fill="#ffffff" stroke="#000000" points="179.5,-327 179.5,-384 325.5,-384 325.5,-327 179.5,-327"/>
<text text-anchor="middle" x="252.5" y="-372" font-family="Helvetica,sans-Serif" font-size="10.00" fill="#000000">L4::Type_info::Demand_t&lt;&gt;</text>
<polyline fill="none" stroke="#000000" points="179.5,-365 325.5,-365 "/>
<text text-anchor="middle" x="252.5" y="-353" font-family="Helvetica,sans-Serif" font-size="10.00" fill="#000000"> </text>
<polyline fill="none" stroke="#000000" points="179.5,-346 325.5,-346 "/>
<text text-anchor="start" x="187.5" y="-334" font-family="Helvetica,sans-Serif" font-size="10.00" fill="#000000">+ Demand_t()</text>
</a>
</g>
</g>
<!-- Node0&#45;&gt;Node5 -->
<g id="edge6" class="edge">
<title>Node0&#45;&gt;Node5</title>
<path fill="none" stroke="#191970" d="M139.8789,-710.8821C98.0394,-642.9082 50.2878,-535.8827 105.5,-463 123.3424,-439.4472 144.2882,-460.4095 169.5,-445 194.9949,-429.4175 217.5845,-403.8494 232.735,-384.0225"/>
<polygon fill="none" stroke="#191970" points="136.9306,-712.7685 145.2064,-719.3838 142.8622,-709.0515 136.9306,-712.7685"/>
</g>
<!-- Node6 -->
<g id="node7" class="node">
<title>Node6</title>
<g id="a_node7"><a xlink:href="structL4_1_1Type__info_1_1Demand__t.html" target="_top" xlink:title="Template type statically describing demand of receive buffers. ">
<polygon fill="#ffffff" stroke="#000000" points="189.5,-602.5 189.5,-681.5 323.5,-681.5 323.5,-602.5 189.5,-602.5"/>
<text text-anchor="start" x="197.5" y="-669.5" font-family="Helvetica,sans-Serif" font-size="10.00" fill="#000000">L4::Type_info::Demand</text>
<text text-anchor="start" x="197.5" y="-658.5" font-family="Helvetica,sans-Serif" font-size="10.00" fill="#000000">_t&lt; CAPS, FLAGS, MEM,</text>
<text text-anchor="middle" x="256.5" y="-647.5" font-family="Helvetica,sans-Serif" font-size="10.00" fill="#000000"> PORTS &gt;</text>
<polyline fill="none" stroke="#000000" points="189.5,-640.5 323.5,-640.5 "/>
<text text-anchor="middle" x="256.5" y="-628.5" font-family="Helvetica,sans-Serif" font-size="10.00" fill="#000000"> </text>
<polyline fill="none" stroke="#000000" points="189.5,-621.5 323.5,-621.5 "/>
<text text-anchor="start" x="197.5" y="-609.5" font-family="Helvetica,sans-Serif" font-size="10.00" fill="#000000">+ Demand_t()</text>
</a>
</g>
</g>
<!-- Node0&#45;&gt;Node6 -->
<g id="edge7" class="edge">
<title>Node0&#45;&gt;Node6</title>
<path fill="none" stroke="#191970" d="M220.1804,-710.2911C225.402,-700.4729 230.6474,-690.6103 235.4641,-681.5534"/>
<polygon fill="none" stroke="#191970" points="217.0101,-708.7984 215.4046,-719.2709 223.1904,-712.0853 217.0101,-708.7984"/>
</g>
<!-- Node2 -->
<g id="node3" class="node">
<title>Node2</title>
<g id="a_node3"><a xlink:href="structL4_1_1Type__info_1_1Demand__union__t.html" target="_top" xlink:title="Template type statically describing the combination of two Demand object. ">
<polygon fill="#ffffff" stroke="#000000" points="192,-160.5 192,-228.5 317,-228.5 317,-160.5 192,-160.5"/>
<text text-anchor="start" x="200" y="-216.5" font-family="Helvetica,sans-Serif" font-size="10.00" fill="#000000">L4::Type_info::Demand</text>
<text text-anchor="middle" x="254.5" y="-205.5" font-family="Helvetica,sans-Serif" font-size="10.00" fill="#000000">_union_t&lt; D1, D2 &gt;</text>
<polyline fill="none" stroke="#000000" points="192,-198.5 317,-198.5 "/>
<text text-anchor="middle" x="254.5" y="-186.5" font-family="Helvetica,sans-Serif" font-size="10.00" fill="#000000"> </text>
<polyline fill="none" stroke="#000000" points="192,-179.5 317,-179.5 "/>
<text text-anchor="middle" x="254.5" y="-167.5" font-family="Helvetica,sans-Serif" font-size="10.00" fill="#000000"> </text>
</a>
</g>
</g>
<!-- Node1&#45;&gt;Node2 -->
<g id="edge2" class="edge">
<title>Node1&#45;&gt;Node2</title>
<path fill="none" stroke="#191970" d="M142.8263,-292.2863C151.9976,-283.3468 161.416,-274.3597 170.5,-266 184.0283,-253.5504 199.2229,-240.3833 212.9316,-228.7876"/>
<polygon fill="none" stroke="#191970" points="140.227,-289.9332 135.5352,-299.4326 145.1268,-294.9324 140.227,-289.9332"/>
</g>
<!-- Node3 -->
<g id="node4" class="node">
<title>Node3</title>
<g id="a_node4"><a xlink:href="structL4_1_1Type__info_1_1Demand__union__t.html" target="_top" xlink:title="{L4::Type_info::Demand\l_union_t\&lt; Kobject_typeid\l\&lt; T1 \&gt;::Demand, Kobject\l_demand\&lt; T2... \&gt; \&gt;\n||}">
<polygon fill="#ffffff" stroke="#000000" points="292,-.5 292,-90.5 427,-90.5 427,-.5 292,-.5"/>
<text text-anchor="start" x="300" y="-78.5" font-family="Helvetica,sans-Serif" font-size="10.00" fill="#000000">L4::Type_info::Demand</text>
<text text-anchor="start" x="300" y="-67.5" font-family="Helvetica,sans-Serif" font-size="10.00" fill="#000000">_union_t&lt; Kobject_typeid</text>
<text text-anchor="start" x="300" y="-56.5" font-family="Helvetica,sans-Serif" font-size="10.00" fill="#000000">&lt; T1 &gt;::Demand, Kobject</text>
<text text-anchor="middle" x="359.5" y="-45.5" font-family="Helvetica,sans-Serif" font-size="10.00" fill="#000000">_demand&lt; T2... &gt; &gt;</text>
<polyline fill="none" stroke="#000000" points="292,-38.5 427,-38.5 "/>
<text text-anchor="middle" x="359.5" y="-26.5" font-family="Helvetica,sans-Serif" font-size="10.00" fill="#000000"> </text>
<polyline fill="none" stroke="#000000" points="292,-19.5 427,-19.5 "/>
<text text-anchor="middle" x="359.5" y="-7.5" font-family="Helvetica,sans-Serif" font-size="10.00" fill="#000000"> </text>
</a>
</g>
</g>
<!-- Node2&#45;&gt;Node3 -->
<g id="edge3" class="edge">
<title>Node2&#45;&gt;Node3</title>
<path fill="none" stroke="#ffa500" d="M273.867,-150.9239C280.8343,-137.0259 289.2753,-121.9133 298.5,-109 302.943,-102.7805 307.9774,-96.5681 313.2027,-90.5974"/>
<polygon fill="#ffa500" stroke="#ffa500" points="270.5271,-149.7875 269.2874,-160.3096 276.8182,-152.8572 270.5271,-149.7875"/>
<text text-anchor="start" x="298.5" y="-134" font-family="Helvetica,sans-Serif" font-size="10.00" fill="#000000"> &lt; Kobject_typeid&lt; T1</text>
<text text-anchor="start" x="298.5" y="-123" font-family="Helvetica,sans-Serif" font-size="10.00" fill="#000000"> &gt;::Demand, Kobject_demand</text>
<text text-anchor="middle" x="367.5" y="-112" font-family="Helvetica,sans-Serif" font-size="10.00" fill="#000000">&lt; T2... &gt; &gt;</text>
</g>
<!-- Node4&#45;&gt;Node3 -->
<g id="edge5" class="edge">
<title>Node4&#45;&gt;Node3</title>
<path fill="none" stroke="#191970" d="M470.4965,-256.0166C468.8178,-208.9224 460.7127,-153.4107 436.5,-109 432.9335,-102.4583 428.3926,-96.3226 423.3054,-90.6411"/>
<polygon fill="none" stroke="#191970" points="467.0036,-256.3353 470.766,-266.2396 474.0011,-256.1508 467.0036,-256.3353"/>
</g>
<!-- Node6&#45;&gt;Node1 -->
<g id="edge10" class="edge">
<title>Node6&#45;&gt;Node1</title>
<path fill="none" stroke="#ffa500" d="M179.7897,-623.9307C157.9994,-615.2473 136.2194,-602.5304 121.5,-584 82.7694,-535.2415 75.8544,-462.1092 76.4594,-411.7824"/>
<polygon fill="#ffa500" stroke="#ffa500" points="178.8485,-627.315 189.4412,-627.5264 181.2923,-620.7554 178.8485,-627.315"/>
<text text-anchor="start" x="121.5" y="-548.5" font-family="Helvetica,sans-Serif" font-size="10.00" fill="#000000"> &lt; __I::Max&lt; D1::Caps,</text>
<text text-anchor="start" x="121.5" y="-537.5" font-family="Helvetica,sans-Serif" font-size="10.00" fill="#000000"> D2::Caps &gt;::Res, D1</text>
<text text-anchor="start" x="121.5" y="-526.5" font-family="Helvetica,sans-Serif" font-size="10.00" fill="#000000">::Flags|D2::Flags, __I</text>
<text text-anchor="start" x="121.5" y="-515.5" font-family="Helvetica,sans-Serif" font-size="10.00" fill="#000000">::Max&lt; D1::Mem, D2::Mem</text>
<text text-anchor="start" x="121.5" y="-504.5" font-family="Helvetica,sans-Serif" font-size="10.00" fill="#000000"> &gt;::Res, __I::Max&lt; D1::Ports,</text>
<text text-anchor="middle" x="187.5" y="-493.5" font-family="Helvetica,sans-Serif" font-size="10.00" fill="#000000"> D2::Ports &gt;::Res &gt;</text>
</g>
<!-- Node6&#45;&gt;Node4 -->
<g id="edge9" class="edge">
<title>Node6&#45;&gt;Node4</title>
<path fill="none" stroke="#ffa500" d="M274.3518,-592.8364C275.4211,-589.8478 276.4772,-586.8845 277.5,-584 296.5236,-530.3475 285.7282,-508.8253 319.5,-463 326.5028,-453.4978 334.5868,-444.4728 343.285,-435.989"/>
<polygon fill="#ffa500" stroke="#ffa500" points="271.0026,-591.8072 270.9167,-602.4016 277.5907,-594.1732 271.0026,-591.8072"/>
<text text-anchor="start" x="319.5" y="-576" font-family="Helvetica,sans-Serif" font-size="10.00" fill="#000000"> &lt; __I::Max&lt; Kobject</text>
<text text-anchor="start" x="319.5" y="-565" font-family="Helvetica,sans-Serif" font-size="10.00" fill="#000000">_typeid&lt; T1 &gt;::Demand</text>
<text text-anchor="start" x="319.5" y="-554" font-family="Helvetica,sans-Serif" font-size="10.00" fill="#000000"> ::Caps, Kobject_demand</text>
<text text-anchor="start" x="319.5" y="-543" font-family="Helvetica,sans-Serif" font-size="10.00" fill="#000000">&lt; T2... &gt; ::Caps &gt;::Res,</text>
<text text-anchor="start" x="319.5" y="-532" font-family="Helvetica,sans-Serif" font-size="10.00" fill="#000000"> Kobject_typeid&lt; T1 &gt;::Demand</text>
<text text-anchor="start" x="319.5" y="-521" font-family="Helvetica,sans-Serif" font-size="10.00" fill="#000000"> ::Flags|Kobject_demand&lt; T2...</text>
<text text-anchor="start" x="319.5" y="-510" font-family="Helvetica,sans-Serif" font-size="10.00" fill="#000000"> &gt; ::Flags, __I::Max&lt; Kobject</text>
<text text-anchor="start" x="319.5" y="-499" font-family="Helvetica,sans-Serif" font-size="10.00" fill="#000000">_typeid&lt; T1 &gt;::Demand ::Mem, Kobject</text>
<text text-anchor="start" x="319.5" y="-488" font-family="Helvetica,sans-Serif" font-size="10.00" fill="#000000">_demand&lt; T2... &gt; ::Mem &gt;::Res, __I</text>
<text text-anchor="start" x="319.5" y="-477" font-family="Helvetica,sans-Serif" font-size="10.00" fill="#000000">::Max&lt; Kobject_typeid&lt; T1 &gt;::Demand</text>
<text text-anchor="middle" x="433.5" y="-466" font-family="Helvetica,sans-Serif" font-size="10.00" fill="#000000"> ::Ports, Kobject_demand&lt; T2... &gt; ::Ports &gt;::Res &gt;</text>
</g>
<!-- Node6&#45;&gt;Node5 -->
<g id="edge8" class="edge">
<title>Node6&#45;&gt;Node5</title>
<path fill="none" stroke="#ffa500" d="M257.4137,-592.2435C257.4475,-589.4548 257.4768,-586.6923 257.5,-584 257.9635,-530.2242 258.7496,-516.7633 257.5,-463 256.8792,-436.29 255.3918,-405.8772 254.1997,-384.2325"/>
<polygon fill="#ffa500" stroke="#ffa500" points="253.9123,-592.3304 257.2741,-602.3777 260.9116,-592.4268 253.9123,-592.3304"/>
<text text-anchor="middle" x="265.5" y="-521" font-family="Helvetica,sans-Serif" font-size="10.00" fill="#000000"> &lt;&gt;</text>
</g>
</g>
</svg>
