<?xml version="1.0" encoding="UTF-8" standalone="no"?>
<!DOCTYPE svg PUBLIC "-//W3C//DTD SVG 1.1//EN"
 "http://www.w3.org/Graphics/SVG/1.1/DTD/svg11.dtd">
<!-- Generated by graphviz version 2.40.1 (20161225.0304)
 -->
<!-- Title: L4Re::Rm Pages: 1 -->
<svg width="360pt" height="730pt"
 viewBox="0.00 0.00 360.00 730.00" xmlns="http://www.w3.org/2000/svg" xmlns:xlink="http://www.w3.org/1999/xlink">
<g id="graph0" class="graph" transform="scale(1 1) rotate(0) translate(4 726)">
<title>L4Re::Rm</title>
<polygon fill="#ffffff" stroke="transparent" points="-4,4 -4,-726 356,-726 356,4 -4,4"/>
<!-- Node0 -->
<g id="node1" class="node">
<title>Node0</title>
<polygon fill="#bfbfbf" stroke="#000000" points="144,-.5 144,-189.5 242,-189.5 242,-.5 144,-.5"/>
<text text-anchor="middle" x="193" y="-177.5" font-family="Helvetica,sans-Serif" font-size="10.00" fill="#000000">L4Re::Rm</text>
<polyline fill="none" stroke="#000000" points="144,-170.5 242,-170.5 "/>
<text text-anchor="middle" x="193" y="-158.5" font-family="Helvetica,sans-Serif" font-size="10.00" fill="#000000"> </text>
<polyline fill="none" stroke="#000000" points="144,-151.5 242,-151.5 "/>
<text text-anchor="start" x="152" y="-139.5" font-family="Helvetica,sans-Serif" font-size="10.00" fill="#000000">+ reserve_area()</text>
<text text-anchor="start" x="152" y="-128.5" font-family="Helvetica,sans-Serif" font-size="10.00" fill="#000000">+ reserve_area()</text>
<text text-anchor="start" x="152" y="-117.5" font-family="Helvetica,sans-Serif" font-size="10.00" fill="#000000">+ free_area()</text>
<text text-anchor="start" x="152" y="-106.5" font-family="Helvetica,sans-Serif" font-size="10.00" fill="#000000">+ attach()</text>
<text text-anchor="start" x="152" y="-95.5" font-family="Helvetica,sans-Serif" font-size="10.00" fill="#000000">+ attach()</text>
<text text-anchor="start" x="152" y="-84.5" font-family="Helvetica,sans-Serif" font-size="10.00" fill="#000000">+ attach()</text>
<text text-anchor="start" x="152" y="-73.5" font-family="Helvetica,sans-Serif" font-size="10.00" fill="#000000">+ detach()</text>
<text text-anchor="start" x="152" y="-62.5" font-family="Helvetica,sans-Serif" font-size="10.00" fill="#000000">+ detach()</text>
<text text-anchor="start" x="152" y="-51.5" font-family="Helvetica,sans-Serif" font-size="10.00" fill="#000000">+ detach()</text>
<text text-anchor="start" x="152" y="-40.5" font-family="Helvetica,sans-Serif" font-size="10.00" fill="#000000">+ find()</text>
<text text-anchor="start" x="152" y="-29.5" font-family="Helvetica,sans-Serif" font-size="10.00" fill="#000000">+ get_regions()</text>
<text text-anchor="start" x="152" y="-18.5" font-family="Helvetica,sans-Serif" font-size="10.00" fill="#000000">+ get_areas()</text>
<text text-anchor="start" x="152" y="-7.5" font-family="Helvetica,sans-Serif" font-size="10.00" fill="#000000">+ detach()</text>
</g>
<!-- Node1 -->
<g id="node2" class="node">
<title>Node1</title>
<g id="a_node2"><a xlink:href="classL4_1_1Kobject__t.html" target="_top" xlink:title="{L4::Kobject_t\&lt; Rm,\l L4::Pager, L4RE_PROTO\l_RM, L4::Type_info::Demand\l_t\&lt; 1 \&gt; \&gt;\n||# c()\l# __check_protocols__()\l}">
<polygon fill="#ffffff" stroke="#000000" points="117,-227.5 117,-328.5 269,-328.5 269,-227.5 117,-227.5"/>
<text text-anchor="start" x="125" y="-316.5" font-family="Helvetica,sans-Serif" font-size="10.00" fill="#000000">L4::Kobject_t&lt; Rm,</text>
<text text-anchor="start" x="125" y="-305.5" font-family="Helvetica,sans-Serif" font-size="10.00" fill="#000000"> L4::Pager, L4RE_PROTO</text>
<text text-anchor="start" x="125" y="-294.5" font-family="Helvetica,sans-Serif" font-size="10.00" fill="#000000">_RM, L4::Type_info::Demand</text>
<text text-anchor="middle" x="193" y="-283.5" font-family="Helvetica,sans-Serif" font-size="10.00" fill="#000000">_t&lt; 1 &gt; &gt;</text>
<polyline fill="none" stroke="#000000" points="117,-276.5 269,-276.5 "/>
<text text-anchor="middle" x="193" y="-264.5" font-family="Helvetica,sans-Serif" font-size="10.00" fill="#000000"> </text>
<polyline fill="none" stroke="#000000" points="117,-257.5 269,-257.5 "/>
<text text-anchor="start" x="125" y="-245.5" font-family="Helvetica,sans-Serif" font-size="10.00" fill="#000000"># c()</text>
<text text-anchor="start" x="125" y="-234.5" font-family="Helvetica,sans-Serif" font-size="10.00" fill="#000000"># __check_protocols__()</text>
</a>
</g>
</g>
<!-- Node1&#45;&gt;Node0 -->
<g id="edge1" class="edge">
<title>Node1&#45;&gt;Node0</title>
<path fill="none" stroke="#191970" d="M193,-216.9711C193,-208.2241 193,-199.0577 193,-189.846"/>
<polygon fill="none" stroke="#191970" points="189.5001,-217.0243 193,-227.0243 196.5001,-217.0243 189.5001,-217.0243"/>
</g>
<!-- Node2 -->
<g id="node3" class="node">
<title>Node2</title>
<g id="a_node3"><a xlink:href="classL4_1_1Pager.html" target="_top" xlink:title="Pager interface including the Io_pager interface. ">
<polygon fill="#ffffff" stroke="#000000" points="105.5,-366.5 105.5,-423.5 188.5,-423.5 188.5,-366.5 105.5,-366.5"/>
<text text-anchor="middle" x="147" y="-411.5" font-family="Helvetica,sans-Serif" font-size="10.00" fill="#000000">L4::Pager</text>
<polyline fill="none" stroke="#000000" points="105.5,-404.5 188.5,-404.5 "/>
<text text-anchor="middle" x="147" y="-392.5" font-family="Helvetica,sans-Serif" font-size="10.00" fill="#000000"> </text>
<polyline fill="none" stroke="#000000" points="105.5,-385.5 188.5,-385.5 "/>
<text text-anchor="start" x="113.5" y="-373.5" font-family="Helvetica,sans-Serif" font-size="10.00" fill="#000000">+ page_fault()</text>
</a>
</g>
</g>
<!-- Node2&#45;&gt;Node1 -->
<g id="edge2" class="edge">
<title>Node2&#45;&gt;Node1</title>
<path fill="none" stroke="#191970" d="M161.9659,-356.9346C165.5105,-347.919 169.3463,-338.1628 173.0725,-328.6852"/>
<polygon fill="none" stroke="#191970" points="158.6546,-355.7914 158.2529,-366.3786 165.1692,-358.3527 158.6546,-355.7914"/>
</g>
<!-- Node3 -->
<g id="node4" class="node">
<title>Node3</title>
<g id="a_node4"><a xlink:href="classL4_1_1Kobject__t.html" target="_top" xlink:title="{L4::Kobject_t\&lt; Pager,\l Io_pager, L4_PROTO_PAGE\l_FAULT \&gt;\n||# c()\l# __check_protocols__()\l}">
<polygon fill="#ffffff" stroke="#000000" points="3,-493.5 3,-583.5 161,-583.5 161,-493.5 3,-493.5"/>
<text text-anchor="start" x="11" y="-571.5" font-family="Helvetica,sans-Serif" font-size="10.00" fill="#000000">L4::Kobject_t&lt; Pager,</text>
<text text-anchor="start" x="11" y="-560.5" font-family="Helvetica,sans-Serif" font-size="10.00" fill="#000000"> Io_pager, L4_PROTO_PAGE</text>
<text text-anchor="middle" x="82" y="-549.5" font-family="Helvetica,sans-Serif" font-size="10.00" fill="#000000">_FAULT &gt;</text>
<polyline fill="none" stroke="#000000" points="3,-542.5 161,-542.5 "/>
<text text-anchor="middle" x="82" y="-530.5" font-family="Helvetica,sans-Serif" font-size="10.00" fill="#000000"> </text>
<polyline fill="none" stroke="#000000" points="3,-523.5 161,-523.5 "/>
<text text-anchor="start" x="11" y="-511.5" font-family="Helvetica,sans-Serif" font-size="10.00" fill="#000000"># c()</text>
<text text-anchor="start" x="11" y="-500.5" font-family="Helvetica,sans-Serif" font-size="10.00" fill="#000000"># __check_protocols__()</text>
</a>
</g>
</g>
<!-- Node3&#45;&gt;Node2 -->
<g id="edge3" class="edge">
<title>Node3&#45;&gt;Node2</title>
<path fill="none" stroke="#191970" d="M106.6012,-484.1881C115.9389,-463.5733 126.2027,-440.9141 134.0482,-423.5937"/>
<polygon fill="none" stroke="#191970" points="103.326,-482.9362 102.3881,-493.4894 109.7024,-485.8245 103.326,-482.9362"/>
</g>
<!-- Node4 -->
<g id="node5" class="node">
<title>Node4</title>
<g id="a_node5"><a xlink:href="classL4_1_1Io__pager.html" target="_top" xlink:title="Io_pager interface. ">
<polygon fill="#ffffff" stroke="#000000" points="0,-653.5 0,-710.5 98,-710.5 98,-653.5 0,-653.5"/>
<text text-anchor="middle" x="49" y="-698.5" font-family="Helvetica,sans-Serif" font-size="10.00" fill="#000000">L4::Io_pager</text>
<polyline fill="none" stroke="#000000" points="0,-691.5 98,-691.5 "/>
<text text-anchor="middle" x="49" y="-679.5" font-family="Helvetica,sans-Serif" font-size="10.00" fill="#000000"> </text>
<polyline fill="none" stroke="#000000" points="0,-672.5 98,-672.5 "/>
<text text-anchor="start" x="8" y="-660.5" font-family="Helvetica,sans-Serif" font-size="10.00" fill="#000000">+ io_page_fault()</text>
</a>
</g>
</g>
<!-- Node4&#45;&gt;Node3 -->
<g id="edge4" class="edge">
<title>Node4&#45;&gt;Node3</title>
<path fill="none" stroke="#191970" d="M54.8504,-643.179C57.0808,-630.0364 59.8537,-615.3181 63,-602 64.4022,-596.0646 66.0382,-589.865 67.7511,-583.7652"/>
<polygon fill="none" stroke="#191970" points="51.3512,-642.8889 53.1812,-653.3245 58.2583,-644.0254 51.3512,-642.8889"/>
</g>
<!-- Node5 -->
<g id="node6" class="node">
<title>Node5</title>
<g id="a_node6"><a xlink:href="classL4_1_1Kobject__t.html" target="_top" xlink:title="Helper class to create an L4Re interface class that is derived from a single base class...">
<polygon fill="#ffffff" stroke="#000000" points="138,-642.5 138,-721.5 296,-721.5 296,-642.5 138,-642.5"/>
<text text-anchor="start" x="146" y="-709.5" font-family="Helvetica,sans-Serif" font-size="10.00" fill="#000000">L4::Kobject_t&lt; Derived,</text>
<text text-anchor="middle" x="217" y="-698.5" font-family="Helvetica,sans-Serif" font-size="10.00" fill="#000000"> Base, PROTO, S_DEMAND &gt;</text>
<polyline fill="none" stroke="#000000" points="138,-691.5 296,-691.5 "/>
<text text-anchor="middle" x="217" y="-679.5" font-family="Helvetica,sans-Serif" font-size="10.00" fill="#000000"> </text>
<polyline fill="none" stroke="#000000" points="138,-672.5 296,-672.5 "/>
<text text-anchor="start" x="146" y="-660.5" font-family="Helvetica,sans-Serif" font-size="10.00" fill="#000000"># c()</text>
<text text-anchor="start" x="146" y="-649.5" font-family="Helvetica,sans-Serif" font-size="10.00" fill="#000000"># __check_protocols__()</text>
</a>
</g>
</g>
<!-- Node5&#45;&gt;Node1 -->
<g id="edge6" class="edge">
<title>Node5&#45;&gt;Node1</title>
<path fill="none" stroke="#ffa500" d="M224.3087,-632.2888C224.5794,-629.4885 224.8139,-626.7111 225,-624 225.6696,-614.2452 225.4811,-611.7659 225,-602 220.2234,-505.0382 207.4527,-392.3455 199.5643,-328.6725"/>
<polygon fill="#ffa500" stroke="#ffa500" points="220.8053,-632.1288 223.1915,-642.4514 227.7634,-632.8938 220.8053,-632.1288"/>
<text text-anchor="start" x="216" y="-467" font-family="Helvetica,sans-Serif" font-size="10.00" fill="#000000"> &lt; Rm, L4::Pager, L4RE</text>
<text text-anchor="start" x="216" y="-456" font-family="Helvetica,sans-Serif" font-size="10.00" fill="#000000">_PROTO_RM, L4::Type_info</text>
<text text-anchor="middle" x="284" y="-445" font-family="Helvetica,sans-Serif" font-size="10.00" fill="#000000">::Demand_t&lt; 1 &gt; &gt;</text>
</g>
<!-- Node5&#45;&gt;Node3 -->
<g id="edge5" class="edge">
<title>Node5&#45;&gt;Node3</title>
<path fill="none" stroke="#ffa500" d="M128.5498,-647.9517C105.6078,-638.2732 86.3311,-629.0076 83,-624 75.2713,-612.3818 73.0835,-597.768 73.4096,-583.925"/>
<polygon fill="#ffa500" stroke="#ffa500" points="127.2736,-651.2115 137.851,-651.8188 129.9609,-644.7479 127.2736,-651.2115"/>
<text text-anchor="start" x="83" y="-616" font-family="Helvetica,sans-Serif" font-size="10.00" fill="#000000"> &lt; Pager, Io_pager,</text>
<text text-anchor="middle" x="154" y="-605" font-family="Helvetica,sans-Serif" font-size="10.00" fill="#000000"> L4_PROTO_PAGE_FAULT &gt;</text>
</g>
</g>
</svg>
