<?xml version="1.0" encoding="UTF-8" standalone="no"?>
<!DOCTYPE svg PUBLIC "-//W3C//DTD SVG 1.1//EN"
 "http://www.w3.org/Graphics/SVG/1.1/DTD/svg11.dtd">
<!-- Generated by graphviz version 2.40.1 (20161225.0304)
 -->
<!-- Title: L4vcpu::Vcpu::irq_enable Pages: 1 -->
<svg width="376pt" height="28pt"
 viewBox="0.00 0.00 376.00 28.00" xmlns="http://www.w3.org/2000/svg" xmlns:xlink="http://www.w3.org/1999/xlink">
<g id="graph0" class="graph" transform="scale(1 1) rotate(0) translate(4 24)">
<title>L4vcpu::Vcpu::irq_enable</title>
<polygon fill="#ffffff" stroke="transparent" points="-4,4 -4,-24 372,-24 372,4 -4,4"/>
<!-- Node23 -->
<g id="node1" class="node">
<title>Node23</title>
<polygon fill="#bfbfbf" stroke="#000000" points="0,-.5 0,-19.5 132,-19.5 132,-.5 0,-.5"/>
<text text-anchor="middle" x="66" y="-7.5" font-family="Helvetica,sans-Serif" font-size="10.00" fill="#000000">L4vcpu::Vcpu::irq_enable</text>
</g>
<!-- Node24 -->
<g id="node2" class="node">
<title>Node24</title>
<g id="a_node2"><a xlink:href="group__api__libvcpu.html#ga58a61ec0b02bed0a03f708e1594cf8a5" target="_top" xlink:title="Enable a vCPU for event delivery. ">
<polygon fill="#ffffff" stroke="#000000" points="168,-.5 168,-19.5 270,-19.5 270,-.5 168,-.5"/>
<text text-anchor="middle" x="219" y="-7.5" font-family="Helvetica,sans-Serif" font-size="10.00" fill="#000000">l4vcpu_irq_enable</text>
</a>
</g>
</g>
<!-- Node23&#45;&gt;Node24 -->
<g id="edge1" class="edge">
<title>Node23&#45;&gt;Node24</title>
<path fill="none" stroke="#191970" d="M132.2182,-10C140.7158,-10 149.3859,-10 157.7986,-10"/>
<polygon fill="#191970" stroke="#191970" points="157.9037,-13.5001 167.9037,-10 157.9036,-6.5001 157.9037,-13.5001"/>
</g>
<!-- Node25 -->
<g id="node3" class="node">
<title>Node25</title>
<g id="a_node3"><a xlink:href="group__l4sys__defines.html#ga4accdcabe8bddb4964f8986855e7c728" target="_top" xlink:title="Memory barrier. ">
<polygon fill="#ffffff" stroke="#000000" points="306,-.5 306,-19.5 368,-19.5 368,-.5 306,-.5"/>
<text text-anchor="middle" x="337" y="-7.5" font-family="Helvetica,sans-Serif" font-size="10.00" fill="#000000">l4_barrier</text>
</a>
</g>
</g>
<!-- Node24&#45;&gt;Node25 -->
<g id="edge2" class="edge">
<title>Node24&#45;&gt;Node25</title>
<path fill="none" stroke="#191970" d="M270.0702,-10C278.6541,-10 287.4661,-10 295.7615,-10"/>
<polygon fill="#191970" stroke="#191970" points="295.9367,-13.5001 305.9366,-10 295.9366,-6.5001 295.9367,-13.5001"/>
</g>
</g>
</svg>
