<?xml version="1.0" encoding="UTF-8" standalone="no"?>
<!DOCTYPE svg PUBLIC "-//W3C//DTD SVG 1.1//EN"
 "http://www.w3.org/Graphics/SVG/1.1/DTD/svg11.dtd">
<!-- Generated by graphviz version 2.40.1 (20161225.0304)
 -->
<!-- Title: cxx::Bits::Bst::find Pages: 1 -->
<svg width="306pt" height="132pt"
 viewBox="0.00 0.00 306.00 132.00" xmlns="http://www.w3.org/2000/svg" xmlns:xlink="http://www.w3.org/1999/xlink">
<g id="graph0" class="graph" transform="scale(1 1) rotate(0) translate(4 128)">
<title>cxx::Bits::Bst::find</title>
<polygon fill="#ffffff" stroke="transparent" points="-4,4 -4,-128 302,-128 302,4 -4,4"/>
<!-- Node19 -->
<g id="node1" class="node">
<title>Node19</title>
<polygon fill="#bfbfbf" stroke="#000000" points="0,-63 0,-82 95,-82 95,-63 0,-63"/>
<text text-anchor="middle" x="47.5" y="-70" font-family="Helvetica,sans-Serif" font-size="10.00" fill="#000000">cxx::Bits::Bst::find</text>
</g>
<!-- Node20 -->
<g id="node2" class="node">
<title>Node20</title>
<g id="a_node2"><a xlink:href="classcxx_1_1Bits_1_1Bst.html#a4ec66458f0c91f295c598f0ef472d76f" target="_top" xlink:title="Get the end marker for the mutable backward iterator. ">
<polygon fill="#ffffff" stroke="#000000" points="134,-93.5 134,-123.5 295,-123.5 295,-93.5 134,-93.5"/>
<text text-anchor="start" x="142" y="-111.5" font-family="Helvetica,sans-Serif" font-size="10.00" fill="#000000">cxx::Bits::Bst&lt; _Node,</text>
<text text-anchor="middle" x="214.5" y="-100.5" font-family="Helvetica,sans-Serif" font-size="10.00" fill="#000000"> GET_KEY, COMPARE &gt;::rend</text>
</a>
</g>
</g>
<!-- Node19&#45;&gt;Node20 -->
<g id="edge1" class="edge">
<title>Node19&#45;&gt;Node20</title>
<path fill="none" stroke="#191970" d="M101.5935,-84.1609C115.3548,-87.1274 130.3378,-90.3573 144.7579,-93.4658"/>
<polygon fill="#191970" stroke="#191970" points="102.3275,-80.7388 91.8145,-82.0528 100.8524,-87.5816 102.3275,-80.7388"/>
</g>
<!-- Node21 -->
<g id="node3" class="node">
<title>Node21</title>
<g id="a_node3"><a xlink:href="classcxx_1_1Bits_1_1Base__avl__set.html#a8ffade2ef0bc3b523d937e6ca781cde2" target="_top" xlink:title="Get the end marker for the mutable backward iterator. ">
<polygon fill="#ffffff" stroke="#000000" points="131,-.5 131,-74.5 298,-74.5 298,-.5 131,-.5"/>
<text text-anchor="start" x="139" y="-62.5" font-family="Helvetica,sans-Serif" font-size="10.00" fill="#000000">cxx::Bits::Base_avl</text>
<text text-anchor="start" x="139" y="-51.5" font-family="Helvetica,sans-Serif" font-size="10.00" fill="#000000">_set&lt; Pair&lt; KEY_TYPE,</text>
<text text-anchor="start" x="139" y="-40.5" font-family="Helvetica,sans-Serif" font-size="10.00" fill="#000000"> DATA_TYPE &gt;, COMPARE</text>
<text text-anchor="start" x="139" y="-29.5" font-family="Helvetica,sans-Serif" font-size="10.00" fill="#000000">&lt; KEY_TYPE &gt;, ALLOC, Bits</text>
<text text-anchor="start" x="139" y="-18.5" font-family="Helvetica,sans-Serif" font-size="10.00" fill="#000000">::Avl_map_get_key&lt; KEY_TYPE</text>
<text text-anchor="middle" x="214.5" y="-7.5" font-family="Helvetica,sans-Serif" font-size="10.00" fill="#000000"> &gt; &gt;::rend</text>
</a>
</g>
</g>
<!-- Node19&#45;&gt;Node21 -->
<g id="edge2" class="edge">
<title>Node19&#45;&gt;Node21</title>
<path fill="none" stroke="#191970" d="M102.9752,-60.8735C111.8965,-59.0037 121.3005,-57.0328 130.7095,-55.0609"/>
<polygon fill="#191970" stroke="#191970" points="102.2029,-57.4592 93.1335,-62.9361 103.6388,-64.3104 102.2029,-57.4592"/>
</g>
</g>
</svg>
