<?xml version="1.0" encoding="UTF-8" standalone="no"?>
<!DOCTYPE svg PUBLIC "-//W3C//DTD SVG 1.1//EN"
 "http://www.w3.org/Graphics/SVG/1.1/DTD/svg11.dtd">
<!-- Generated by graphviz version 2.40.1 (20161225.0304)
 -->
<!-- Title: L4::Platform_control Pages: 1 -->
<svg width="330pt" height="376pt"
 viewBox="0.00 0.00 330.00 376.00" xmlns="http://www.w3.org/2000/svg" xmlns:xlink="http://www.w3.org/1999/xlink">
<g id="graph0" class="graph" transform="scale(1 1) rotate(0) translate(4 372)">
<title>L4::Platform_control</title>
<polygon fill="#ffffff" stroke="transparent" points="-4,4 -4,-372 326,-372 326,4 -4,4"/>
<!-- Node4 -->
<g id="node1" class="node">
<title>Node4</title>
<polygon fill="#bfbfbf" stroke="#000000" points="52,-.5 52,-90.5 170,-90.5 170,-.5 52,-.5"/>
<text text-anchor="middle" x="111" y="-78.5" font-family="Helvetica,sans-Serif" font-size="10.00" fill="#000000">L4::Platform_control</text>
<polyline fill="none" stroke="#000000" points="52,-71.5 170,-71.5 "/>
<text text-anchor="middle" x="111" y="-59.5" font-family="Helvetica,sans-Serif" font-size="10.00" fill="#000000"> </text>
<polyline fill="none" stroke="#000000" points="52,-52.5 170,-52.5 "/>
<text text-anchor="start" x="60" y="-40.5" font-family="Helvetica,sans-Serif" font-size="10.00" fill="#000000">+ system_suspend()</text>
<text text-anchor="start" x="60" y="-29.5" font-family="Helvetica,sans-Serif" font-size="10.00" fill="#000000">+ system_shutdown()</text>
<text text-anchor="start" x="60" y="-18.5" font-family="Helvetica,sans-Serif" font-size="10.00" fill="#000000">+ cpu_enable()</text>
<text text-anchor="start" x="60" y="-7.5" font-family="Helvetica,sans-Serif" font-size="10.00" fill="#000000">+ cpu_disable()</text>
</g>
<!-- Node5 -->
<g id="node2" class="node">
<title>Node5</title>
<g id="a_node2"><a xlink:href="classL4_1_1Kobject__t.html" target="_top" xlink:title="{L4::Kobject_t\&lt; Platform\l_control, Kobject, L4\l_PROTO_PLATFORM_CTL \&gt;\n||# c()\l# __check_protocols__()\l}">
<polygon fill="#ffffff" stroke="#000000" points="32,-128.5 32,-218.5 190,-218.5 190,-128.5 32,-128.5"/>
<text text-anchor="start" x="40" y="-206.5" font-family="Helvetica,sans-Serif" font-size="10.00" fill="#000000">L4::Kobject_t&lt; Platform</text>
<text text-anchor="start" x="40" y="-195.5" font-family="Helvetica,sans-Serif" font-size="10.00" fill="#000000">_control, Kobject, L4</text>
<text text-anchor="middle" x="111" y="-184.5" font-family="Helvetica,sans-Serif" font-size="10.00" fill="#000000">_PROTO_PLATFORM_CTL &gt;</text>
<polyline fill="none" stroke="#000000" points="32,-177.5 190,-177.5 "/>
<text text-anchor="middle" x="111" y="-165.5" font-family="Helvetica,sans-Serif" font-size="10.00" fill="#000000"> </text>
<polyline fill="none" stroke="#000000" points="32,-158.5 190,-158.5 "/>
<text text-anchor="start" x="40" y="-146.5" font-family="Helvetica,sans-Serif" font-size="10.00" fill="#000000"># c()</text>
<text text-anchor="start" x="40" y="-135.5" font-family="Helvetica,sans-Serif" font-size="10.00" fill="#000000"># __check_protocols__()</text>
</a>
</g>
</g>
<!-- Node5&#45;&gt;Node4 -->
<g id="edge1" class="edge">
<title>Node5&#45;&gt;Node4</title>
<path fill="none" stroke="#191970" d="M111,-118.1492C111,-108.9671 111,-99.5431 111,-90.6519"/>
<polygon fill="none" stroke="#191970" points="107.5001,-118.372 111,-128.372 114.5001,-118.372 107.5001,-118.372"/>
</g>
<!-- Node6 -->
<g id="node3" class="node">
<title>Node6</title>
<g id="a_node3"><a xlink:href="classL4_1_1Kobject.html" target="_top" xlink:title="Base class for all kinds of kernel objects and remote objects, referenced by capabilities. ">
<polygon fill="#ffffff" stroke="#000000" points="0,-294 0,-362 84,-362 84,-294 0,-294"/>
<text text-anchor="middle" x="42" y="-350" font-family="Helvetica,sans-Serif" font-size="10.00" fill="#000000">L4::Kobject</text>
<polyline fill="none" stroke="#000000" points="0,-343 84,-343 "/>
<text text-anchor="middle" x="42" y="-331" font-family="Helvetica,sans-Serif" font-size="10.00" fill="#000000"> </text>
<polyline fill="none" stroke="#000000" points="0,-324 84,-324 "/>
<text text-anchor="start" x="8" y="-312" font-family="Helvetica,sans-Serif" font-size="10.00" fill="#000000">+ dec_refcnt()</text>
<text text-anchor="start" x="8" y="-301" font-family="Helvetica,sans-Serif" font-size="10.00" fill="#000000"># cap()</text>
</a>
</g>
</g>
<!-- Node6&#45;&gt;Node5 -->
<g id="edge2" class="edge">
<title>Node6&#45;&gt;Node5</title>
<path fill="none" stroke="#191970" d="M61.4029,-284.5544C70.6043,-263.9513 81.5904,-239.352 90.8815,-218.5479"/>
<polygon fill="none" stroke="#191970" points="58.1954,-283.1534 57.3133,-293.7114 64.587,-286.0079 58.1954,-283.1534"/>
</g>
<!-- Node7 -->
<g id="node4" class="node">
<title>Node7</title>
<g id="a_node4"><a xlink:href="classL4_1_1Kobject__t.html" target="_top" xlink:title="Helper class to create an L4Re interface class that is derived from a single base class...">
<polygon fill="#ffffff" stroke="#000000" points="102,-288.5 102,-367.5 260,-367.5 260,-288.5 102,-288.5"/>
<text text-anchor="start" x="110" y="-355.5" font-family="Helvetica,sans-Serif" font-size="10.00" fill="#000000">L4::Kobject_t&lt; Derived,</text>
<text text-anchor="middle" x="181" y="-344.5" font-family="Helvetica,sans-Serif" font-size="10.00" fill="#000000"> Base, PROTO, S_DEMAND &gt;</text>
<polyline fill="none" stroke="#000000" points="102,-337.5 260,-337.5 "/>
<text text-anchor="middle" x="181" y="-325.5" font-family="Helvetica,sans-Serif" font-size="10.00" fill="#000000"> </text>
<polyline fill="none" stroke="#000000" points="102,-318.5 260,-318.5 "/>
<text text-anchor="start" x="110" y="-306.5" font-family="Helvetica,sans-Serif" font-size="10.00" fill="#000000"># c()</text>
<text text-anchor="start" x="110" y="-295.5" font-family="Helvetica,sans-Serif" font-size="10.00" fill="#000000"># __check_protocols__()</text>
</a>
</g>
</g>
<!-- Node7&#45;&gt;Node5 -->
<g id="edge3" class="edge">
<title>Node7&#45;&gt;Node5</title>
<path fill="none" stroke="#ffa500" d="M158.7831,-278.9641C150.021,-259.625 140.0199,-237.551 131.4395,-218.6129"/>
<polygon fill="#ffa500" stroke="#ffa500" points="155.6582,-280.5481 162.9733,-288.2124 162.0343,-277.6593 155.6582,-280.5481"/>
<text text-anchor="start" x="154" y="-262" font-family="Helvetica,sans-Serif" font-size="10.00" fill="#000000"> &lt; Platform_control,</text>
<text text-anchor="start" x="154" y="-251" font-family="Helvetica,sans-Serif" font-size="10.00" fill="#000000"> Kobject, L4_PROTO_PLATFORM_</text>
<text text-anchor="middle" x="238" y="-240" font-family="Helvetica,sans-Serif" font-size="10.00" fill="#000000">CTL &gt;</text>
</g>
</g>
</svg>
