<?xml version="1.0" encoding="UTF-8" standalone="no"?>
<!DOCTYPE svg PUBLIC "-//W3C//DTD SVG 1.1//EN"
 "http://www.w3.org/Graphics/SVG/1.1/DTD/svg11.dtd">
<!-- Generated by graphviz version 2.40.1 (20161225.0304)
 -->
<!-- Title: L4::Scheduler Pages: 1 -->
<svg width="344pt" height="697pt"
 viewBox="0.00 0.00 343.50 697.00" xmlns="http://www.w3.org/2000/svg" xmlns:xlink="http://www.w3.org/1999/xlink">
<g id="graph0" class="graph" transform="scale(1 1) rotate(0) translate(4 693)">
<title>L4::Scheduler</title>
<polygon fill="#ffffff" stroke="transparent" points="-4,4 -4,-693 339.5,-693 339.5,4 -4,4"/>
<!-- Node0 -->
<g id="node1" class="node">
<title>Node0</title>
<polygon fill="#bfbfbf" stroke="#000000" points="126.5,-.5 126.5,-90.5 212.5,-90.5 212.5,-.5 126.5,-.5"/>
<text text-anchor="middle" x="169.5" y="-78.5" font-family="Helvetica,sans-Serif" font-size="10.00" fill="#000000">L4::Scheduler</text>
<polyline fill="none" stroke="#000000" points="126.5,-71.5 212.5,-71.5 "/>
<text text-anchor="middle" x="169.5" y="-59.5" font-family="Helvetica,sans-Serif" font-size="10.00" fill="#000000"> </text>
<polyline fill="none" stroke="#000000" points="126.5,-52.5 212.5,-52.5 "/>
<text text-anchor="start" x="134.5" y="-40.5" font-family="Helvetica,sans-Serif" font-size="10.00" fill="#000000">+ info()</text>
<text text-anchor="start" x="134.5" y="-29.5" font-family="Helvetica,sans-Serif" font-size="10.00" fill="#000000">+ run_thread()</text>
<text text-anchor="start" x="134.5" y="-18.5" font-family="Helvetica,sans-Serif" font-size="10.00" fill="#000000">+ idle_time()</text>
<text text-anchor="start" x="134.5" y="-7.5" font-family="Helvetica,sans-Serif" font-size="10.00" fill="#000000">+ is_online()</text>
</g>
<!-- Node1 -->
<g id="node2" class="node">
<title>Node1</title>
<g id="a_node2"><a xlink:href="classL4_1_1Kobject__t.html" target="_top" xlink:title="{L4::Kobject_t\&lt; Scheduler,\l Icu, L4_PROTO_SCHEDULER,\l Type_info::Demand_t\&lt; 1 \&gt; \&gt;\n||# c()\l# __check_protocols__()\l}">
<polygon fill="#ffffff" stroke="#000000" points="86.5,-128.5 86.5,-218.5 252.5,-218.5 252.5,-128.5 86.5,-128.5"/>
<text text-anchor="start" x="94.5" y="-206.5" font-family="Helvetica,sans-Serif" font-size="10.00" fill="#000000">L4::Kobject_t&lt; Scheduler,</text>
<text text-anchor="start" x="94.5" y="-195.5" font-family="Helvetica,sans-Serif" font-size="10.00" fill="#000000"> Icu, L4_PROTO_SCHEDULER,</text>
<text text-anchor="middle" x="169.5" y="-184.5" font-family="Helvetica,sans-Serif" font-size="10.00" fill="#000000"> Type_info::Demand_t&lt; 1 &gt; &gt;</text>
<polyline fill="none" stroke="#000000" points="86.5,-177.5 252.5,-177.5 "/>
<text text-anchor="middle" x="169.5" y="-165.5" font-family="Helvetica,sans-Serif" font-size="10.00" fill="#000000"> </text>
<polyline fill="none" stroke="#000000" points="86.5,-158.5 252.5,-158.5 "/>
<text text-anchor="start" x="94.5" y="-146.5" font-family="Helvetica,sans-Serif" font-size="10.00" fill="#000000"># c()</text>
<text text-anchor="start" x="94.5" y="-135.5" font-family="Helvetica,sans-Serif" font-size="10.00" fill="#000000"># __check_protocols__()</text>
</a>
</g>
</g>
<!-- Node1&#45;&gt;Node0 -->
<g id="edge1" class="edge">
<title>Node1&#45;&gt;Node0</title>
<path fill="none" stroke="#191970" d="M169.5,-118.1492C169.5,-108.9671 169.5,-99.5431 169.5,-90.6519"/>
<polygon fill="none" stroke="#191970" points="166.0001,-118.372 169.5,-128.372 173.0001,-118.372 166.0001,-118.372"/>
</g>
<!-- Node2 -->
<g id="node3" class="node">
<title>Node2</title>
<g id="a_node3"><a xlink:href="classL4_1_1Icu.html" target="_top" xlink:title="C++ Icu interface. ">
<polygon fill="#ffffff" stroke="#000000" points="87.5,-256.5 87.5,-379.5 167.5,-379.5 167.5,-256.5 87.5,-256.5"/>
<text text-anchor="middle" x="127.5" y="-367.5" font-family="Helvetica,sans-Serif" font-size="10.00" fill="#000000">L4::Icu</text>
<polyline fill="none" stroke="#000000" points="87.5,-360.5 167.5,-360.5 "/>
<text text-anchor="middle" x="127.5" y="-348.5" font-family="Helvetica,sans-Serif" font-size="10.00" fill="#000000"> </text>
<polyline fill="none" stroke="#000000" points="87.5,-341.5 167.5,-341.5 "/>
<text text-anchor="start" x="95.5" y="-329.5" font-family="Helvetica,sans-Serif" font-size="10.00" fill="#000000">+ bind()</text>
<text text-anchor="start" x="95.5" y="-318.5" font-family="Helvetica,sans-Serif" font-size="10.00" fill="#000000">+ unbind()</text>
<text text-anchor="start" x="95.5" y="-307.5" font-family="Helvetica,sans-Serif" font-size="10.00" fill="#000000">+ info()</text>
<text text-anchor="start" x="95.5" y="-296.5" font-family="Helvetica,sans-Serif" font-size="10.00" fill="#000000">+ msi_info()</text>
<text text-anchor="start" x="95.5" y="-285.5" font-family="Helvetica,sans-Serif" font-size="10.00" fill="#000000">+ control()</text>
<text text-anchor="start" x="95.5" y="-274.5" font-family="Helvetica,sans-Serif" font-size="10.00" fill="#000000">+ mask()</text>
<text text-anchor="start" x="95.5" y="-263.5" font-family="Helvetica,sans-Serif" font-size="10.00" fill="#000000">+ set_mode()</text>
</a>
</g>
</g>
<!-- Node2&#45;&gt;Node1 -->
<g id="edge2" class="edge">
<title>Node2&#45;&gt;Node1</title>
<path fill="none" stroke="#191970" d="M148.2792,-246.5098C151.019,-237.0835 153.7638,-227.64 156.3271,-218.8211"/>
<polygon fill="none" stroke="#191970" points="144.8638,-245.7203 145.4336,-256.2999 151.5857,-247.6741 144.8638,-245.7203"/>
</g>
<!-- Node3 -->
<g id="node4" class="node">
<title>Node3</title>
<g id="a_node4"><a xlink:href="classL4_1_1Kobject__t.html" target="_top" xlink:title="{L4::Kobject_t\&lt; Icu,\l Irq_eoi, L4_PROTO_IRQ,\l Type_info::Demand_t\&lt; 1 \&gt; \&gt;\n||# c()\l# __check_protocols__()\l}">
<polygon fill="#ffffff" stroke="#000000" points="0,-449.5 0,-539.5 153,-539.5 153,-449.5 0,-449.5"/>
<text text-anchor="start" x="8" y="-527.5" font-family="Helvetica,sans-Serif" font-size="10.00" fill="#000000">L4::Kobject_t&lt; Icu,</text>
<text text-anchor="start" x="8" y="-516.5" font-family="Helvetica,sans-Serif" font-size="10.00" fill="#000000"> Irq_eoi, L4_PROTO_IRQ,</text>
<text text-anchor="middle" x="76.5" y="-505.5" font-family="Helvetica,sans-Serif" font-size="10.00" fill="#000000"> Type_info::Demand_t&lt; 1 &gt; &gt;</text>
<polyline fill="none" stroke="#000000" points="0,-498.5 153,-498.5 "/>
<text text-anchor="middle" x="76.5" y="-486.5" font-family="Helvetica,sans-Serif" font-size="10.00" fill="#000000"> </text>
<polyline fill="none" stroke="#000000" points="0,-479.5 153,-479.5 "/>
<text text-anchor="start" x="8" y="-467.5" font-family="Helvetica,sans-Serif" font-size="10.00" fill="#000000"># c()</text>
<text text-anchor="start" x="8" y="-456.5" font-family="Helvetica,sans-Serif" font-size="10.00" fill="#000000"># __check_protocols__()</text>
</a>
</g>
</g>
<!-- Node3&#45;&gt;Node2 -->
<g id="edge3" class="edge">
<title>Node3&#45;&gt;Node2</title>
<path fill="none" stroke="#191970" d="M92.4303,-439.3685C97.911,-420.4012 104.0815,-399.0464 109.7013,-379.5975"/>
<polygon fill="none" stroke="#191970" points="89.0473,-438.4683 89.6338,-449.0469 95.7722,-440.4115 89.0473,-438.4683"/>
</g>
<!-- Node4 -->
<g id="node5" class="node">
<title>Node4</title>
<g id="a_node5"><a xlink:href="classL4_1_1Irq__eoi.html" target="_top" xlink:title="Interface for sending an acknowledge message to an object. ">
<polygon fill="#ffffff" stroke="#000000" points="8.5,-620.5 8.5,-677.5 78.5,-677.5 78.5,-620.5 8.5,-620.5"/>
<text text-anchor="middle" x="43.5" y="-665.5" font-family="Helvetica,sans-Serif" font-size="10.00" fill="#000000">L4::Irq_eoi</text>
<polyline fill="none" stroke="#000000" points="8.5,-658.5 78.5,-658.5 "/>
<text text-anchor="middle" x="43.5" y="-646.5" font-family="Helvetica,sans-Serif" font-size="10.00" fill="#000000"> </text>
<polyline fill="none" stroke="#000000" points="8.5,-639.5 78.5,-639.5 "/>
<text text-anchor="start" x="16.5" y="-627.5" font-family="Helvetica,sans-Serif" font-size="10.00" fill="#000000">+ unmask()</text>
</a>
</g>
</g>
<!-- Node4&#45;&gt;Node3 -->
<g id="edge4" class="edge">
<title>Node4&#45;&gt;Node3</title>
<path fill="none" stroke="#191970" d="M48.3033,-609.9347C50.6033,-593.7662 53.6943,-574.8846 57.5,-558 58.841,-552.0504 60.4411,-545.8426 62.1356,-539.7385"/>
<polygon fill="none" stroke="#191970" points="44.7977,-609.7369 46.9065,-620.1197 51.7328,-610.688 44.7977,-609.7369"/>
</g>
<!-- Node5 -->
<g id="node6" class="node">
<title>Node5</title>
<g id="a_node6"><a xlink:href="classL4_1_1Kobject__t.html" target="_top" xlink:title="Helper class to create an L4Re interface class that is derived from a single base class...">
<polygon fill="#ffffff" stroke="#000000" points="114.5,-609.5 114.5,-688.5 272.5,-688.5 272.5,-609.5 114.5,-609.5"/>
<text text-anchor="start" x="122.5" y="-676.5" font-family="Helvetica,sans-Serif" font-size="10.00" fill="#000000">L4::Kobject_t&lt; Derived,</text>
<text text-anchor="middle" x="193.5" y="-665.5" font-family="Helvetica,sans-Serif" font-size="10.00" fill="#000000"> Base, PROTO, S_DEMAND &gt;</text>
<polyline fill="none" stroke="#000000" points="114.5,-658.5 272.5,-658.5 "/>
<text text-anchor="middle" x="193.5" y="-646.5" font-family="Helvetica,sans-Serif" font-size="10.00" fill="#000000"> </text>
<polyline fill="none" stroke="#000000" points="114.5,-639.5 272.5,-639.5 "/>
<text text-anchor="start" x="122.5" y="-627.5" font-family="Helvetica,sans-Serif" font-size="10.00" fill="#000000"># c()</text>
<text text-anchor="start" x="122.5" y="-616.5" font-family="Helvetica,sans-Serif" font-size="10.00" fill="#000000"># __check_protocols__()</text>
</a>
</g>
</g>
<!-- Node5&#45;&gt;Node1 -->
<g id="edge6" class="edge">
<title>Node5&#45;&gt;Node1</title>
<path fill="none" stroke="#ffa500" d="M198.0683,-599.2608C198.2374,-596.4677 198.3839,-593.6995 198.5,-591 199.1304,-576.3469 199.0332,-572.657 198.5,-558 194.0285,-435.0734 181.0353,-290.5198 174.0574,-218.7174"/>
<polygon fill="#ffa500" stroke="#ffa500" points="194.5651,-599.1891 197.3703,-609.4058 201.5486,-599.6697 194.5651,-599.1891"/>
<text text-anchor="start" x="192.5" y="-423" font-family="Helvetica,sans-Serif" font-size="10.00" fill="#000000"> &lt; Scheduler, Icu, L4</text>
<text text-anchor="start" x="192.5" y="-412" font-family="Helvetica,sans-Serif" font-size="10.00" fill="#000000">_PROTO_SCHEDULER, Type</text>
<text text-anchor="middle" x="264" y="-401" font-family="Helvetica,sans-Serif" font-size="10.00" fill="#000000">_info::Demand_t&lt; 1 &gt; &gt;</text>
</g>
<!-- Node5&#45;&gt;Node3 -->
<g id="edge5" class="edge">
<title>Node5&#45;&gt;Node3</title>
<path fill="none" stroke="#ffa500" d="M105.6378,-618.8214C94.4897,-611.4071 84.5388,-602.2581 77.5,-591 68.0851,-575.9413 66.2954,-556.8084 67.4305,-539.557"/>
<polygon fill="#ffa500" stroke="#ffa500" points="104.0103,-621.9286 114.3677,-624.1591 107.6619,-615.9565 104.0103,-621.9286"/>
<text text-anchor="start" x="77.5" y="-583" font-family="Helvetica,sans-Serif" font-size="10.00" fill="#000000"> &lt; Icu, Irq_eoi, L4</text>
<text text-anchor="start" x="77.5" y="-572" font-family="Helvetica,sans-Serif" font-size="10.00" fill="#000000">_PROTO_IRQ, Type_info</text>
<text text-anchor="middle" x="138" y="-561" font-family="Helvetica,sans-Serif" font-size="10.00" fill="#000000">::Demand_t&lt; 1 &gt; &gt;</text>
</g>
</g>
</svg>
