<?xml version="1.0" encoding="UTF-8" standalone="no"?>
<!DOCTYPE svg PUBLIC "-//W3C//DTD SVG 1.1//EN"
 "http://www.w3.org/Graphics/SVG/1.1/DTD/svg11.dtd">
<!-- Generated by graphviz version 2.40.1 (20161225.0304)
 -->
<!-- Title: L4::Meta Pages: 1 -->
<svg width="268pt" height="343pt"
 viewBox="0.00 0.00 268.00 343.00" xmlns="http://www.w3.org/2000/svg" xmlns:xlink="http://www.w3.org/1999/xlink">
<g id="graph0" class="graph" transform="scale(1 1) rotate(0) translate(4 339)">
<title>L4::Meta</title>
<polygon fill="#ffffff" stroke="transparent" points="-4,4 -4,-339 264,-339 264,4 -4,4"/>
<!-- Node4 -->
<g id="node1" class="node">
<title>Node4</title>
<polygon fill="#bfbfbf" stroke="#000000" points="58,-.5 58,-79.5 164,-79.5 164,-.5 58,-.5"/>
<text text-anchor="middle" x="111" y="-67.5" font-family="Helvetica,sans-Serif" font-size="10.00" fill="#000000">L4::Meta</text>
<polyline fill="none" stroke="#000000" points="58,-60.5 164,-60.5 "/>
<text text-anchor="middle" x="111" y="-48.5" font-family="Helvetica,sans-Serif" font-size="10.00" fill="#000000"> </text>
<polyline fill="none" stroke="#000000" points="58,-41.5 164,-41.5 "/>
<text text-anchor="start" x="66" y="-29.5" font-family="Helvetica,sans-Serif" font-size="10.00" fill="#000000">+ num_interfaces()</text>
<text text-anchor="start" x="66" y="-18.5" font-family="Helvetica,sans-Serif" font-size="10.00" fill="#000000">+ interface()</text>
<text text-anchor="start" x="66" y="-7.5" font-family="Helvetica,sans-Serif" font-size="10.00" fill="#000000">+ supports()</text>
</g>
<!-- Node5 -->
<g id="node2" class="node">
<title>Node5</title>
<g id="a_node2"><a xlink:href="classL4_1_1Kobject__t.html" target="_top" xlink:title="{L4::Kobject_t\&lt; Meta,\l Kobject, L4_PROTO_META \&gt;\n||# c()\l# __check_protocols__()\l}">
<polygon fill="#ffffff" stroke="#000000" points="31.5,-117.5 31.5,-196.5 190.5,-196.5 190.5,-117.5 31.5,-117.5"/>
<text text-anchor="start" x="39.5" y="-184.5" font-family="Helvetica,sans-Serif" font-size="10.00" fill="#000000">L4::Kobject_t&lt; Meta,</text>
<text text-anchor="middle" x="111" y="-173.5" font-family="Helvetica,sans-Serif" font-size="10.00" fill="#000000"> Kobject, L4_PROTO_META &gt;</text>
<polyline fill="none" stroke="#000000" points="31.5,-166.5 190.5,-166.5 "/>
<text text-anchor="middle" x="111" y="-154.5" font-family="Helvetica,sans-Serif" font-size="10.00" fill="#000000"> </text>
<polyline fill="none" stroke="#000000" points="31.5,-147.5 190.5,-147.5 "/>
<text text-anchor="start" x="39.5" y="-135.5" font-family="Helvetica,sans-Serif" font-size="10.00" fill="#000000"># c()</text>
<text text-anchor="start" x="39.5" y="-124.5" font-family="Helvetica,sans-Serif" font-size="10.00" fill="#000000"># __check_protocols__()</text>
</a>
</g>
</g>
<!-- Node5&#45;&gt;Node4 -->
<g id="edge1" class="edge">
<title>Node5&#45;&gt;Node4</title>
<path fill="none" stroke="#191970" d="M111,-107.1578C111,-97.9409 111,-88.4308 111,-79.5701"/>
<polygon fill="none" stroke="#191970" points="107.5001,-107.3891 111,-117.3891 114.5001,-107.3892 107.5001,-107.3891"/>
</g>
<!-- Node6 -->
<g id="node3" class="node">
<title>Node6</title>
<g id="a_node3"><a xlink:href="classL4_1_1Kobject.html" target="_top" xlink:title="Base class for all kinds of kernel objects and remote objects, referenced by capabilities. ">
<polygon fill="#ffffff" stroke="#000000" points="0,-261 0,-329 84,-329 84,-261 0,-261"/>
<text text-anchor="middle" x="42" y="-317" font-family="Helvetica,sans-Serif" font-size="10.00" fill="#000000">L4::Kobject</text>
<polyline fill="none" stroke="#000000" points="0,-310 84,-310 "/>
<text text-anchor="middle" x="42" y="-298" font-family="Helvetica,sans-Serif" font-size="10.00" fill="#000000"> </text>
<polyline fill="none" stroke="#000000" points="0,-291 84,-291 "/>
<text text-anchor="start" x="8" y="-279" font-family="Helvetica,sans-Serif" font-size="10.00" fill="#000000">+ dec_refcnt()</text>
<text text-anchor="start" x="8" y="-268" font-family="Helvetica,sans-Serif" font-size="10.00" fill="#000000"># cap()</text>
</a>
</g>
</g>
<!-- Node6&#45;&gt;Node5 -->
<g id="edge2" class="edge">
<title>Node6&#45;&gt;Node5</title>
<path fill="none" stroke="#191970" d="M63.5437,-251.9127C72.3854,-234.2293 82.5553,-213.8893 91.2072,-196.5857"/>
<polygon fill="none" stroke="#191970" points="60.3979,-250.3781 59.0562,-260.8876 66.6589,-253.5086 60.3979,-250.3781"/>
</g>
<!-- Node7 -->
<g id="node4" class="node">
<title>Node7</title>
<g id="a_node4"><a xlink:href="classL4_1_1Kobject__t.html" target="_top" xlink:title="Helper class to create an L4Re interface class that is derived from a single base class...">
<polygon fill="#ffffff" stroke="#000000" points="102,-255.5 102,-334.5 260,-334.5 260,-255.5 102,-255.5"/>
<text text-anchor="start" x="110" y="-322.5" font-family="Helvetica,sans-Serif" font-size="10.00" fill="#000000">L4::Kobject_t&lt; Derived,</text>
<text text-anchor="middle" x="181" y="-311.5" font-family="Helvetica,sans-Serif" font-size="10.00" fill="#000000"> Base, PROTO, S_DEMAND &gt;</text>
<polyline fill="none" stroke="#000000" points="102,-304.5 260,-304.5 "/>
<text text-anchor="middle" x="181" y="-292.5" font-family="Helvetica,sans-Serif" font-size="10.00" fill="#000000"> </text>
<polyline fill="none" stroke="#000000" points="102,-285.5 260,-285.5 "/>
<text text-anchor="start" x="110" y="-273.5" font-family="Helvetica,sans-Serif" font-size="10.00" fill="#000000"># c()</text>
<text text-anchor="start" x="110" y="-262.5" font-family="Helvetica,sans-Serif" font-size="10.00" fill="#000000"># __check_protocols__()</text>
</a>
</g>
</g>
<!-- Node7&#45;&gt;Node5 -->
<g id="edge3" class="edge">
<title>Node7&#45;&gt;Node5</title>
<path fill="none" stroke="#ffa500" d="M156.2011,-246.1107C147.9624,-229.8688 138.8975,-211.998 131.0621,-196.551"/>
<polygon fill="#ffa500" stroke="#ffa500" points="153.2956,-248.1198 160.9408,-255.4547 159.5384,-244.9531 153.2956,-248.1198"/>
<text text-anchor="start" x="150" y="-229" font-family="Helvetica,sans-Serif" font-size="10.00" fill="#000000"> &lt; Meta, Kobject, L4</text>
<text text-anchor="middle" x="197" y="-218" font-family="Helvetica,sans-Serif" font-size="10.00" fill="#000000">_PROTO_META &gt;</text>
</g>
</g>
</svg>
