<?xml version="1.0" encoding="UTF-8" standalone="no"?>
<!DOCTYPE svg PUBLIC "-//W3C//DTD SVG 1.1//EN"
 "http://www.w3.org/Graphics/SVG/1.1/DTD/svg11.dtd">
<!-- Generated by graphviz version 2.40.1 (20161225.0304)
 -->
<!-- Title: cxx::Bitfield::set Pages: 1 -->
<svg width="340pt" height="83pt"
 viewBox="0.00 0.00 340.00 83.00" xmlns="http://www.w3.org/2000/svg" xmlns:xlink="http://www.w3.org/1999/xlink">
<g id="graph0" class="graph" transform="scale(1 1) rotate(0) translate(4 79)">
<title>cxx::Bitfield::set</title>
<polygon fill="#ffffff" stroke="transparent" points="-4,4 -4,-79 336,-79 336,4 -4,4"/>
<!-- Node6 -->
<g id="node1" class="node">
<title>Node6</title>
<polygon fill="#bfbfbf" stroke="#000000" points="0,-28 0,-47 87,-47 87,-28 0,-28"/>
<text text-anchor="middle" x="43.5" y="-35" font-family="Helvetica,sans-Serif" font-size="10.00" fill="#000000">cxx::Bitfield::set</text>
</g>
<!-- Node7 -->
<g id="node2" class="node">
<title>Node7</title>
<g id="a_node2"><a xlink:href="classcxx_1_1Bitfield.html#a68f3092e1839bc709beb3611c2f5cb31" target="_top" xlink:title="Set the bits corresponding to val. ">
<polygon fill="#ffffff" stroke="#000000" points="123,-44.5 123,-74.5 210,-74.5 210,-44.5 123,-44.5"/>
<text text-anchor="start" x="131" y="-62.5" font-family="Helvetica,sans-Serif" font-size="10.00" fill="#000000">cxx::Bitfield::set</text>
<text text-anchor="middle" x="166.5" y="-51.5" font-family="Helvetica,sans-Serif" font-size="10.00" fill="#000000">_dirty</text>
</a>
</g>
</g>
<!-- Node6&#45;&gt;Node7 -->
<g id="edge1" class="edge">
<title>Node6&#45;&gt;Node7</title>
<path fill="none" stroke="#191970" d="M87.2115,-45.3183C95.5493,-46.8096 104.3644,-48.3863 112.9679,-49.9252"/>
<polygon fill="#191970" stroke="#191970" points="112.4692,-53.3914 122.9292,-51.7069 113.7017,-46.5008 112.4692,-53.3914"/>
</g>
<!-- Node8 -->
<g id="node3" class="node">
<title>Node8</title>
<g id="a_node3"><a xlink:href="classcxx_1_1Bitfield.html#a3384706160a84e15a283e2c639071a26" target="_top" xlink:title="Get the shifted bits for val. ">
<polygon fill="#ffffff" stroke="#000000" points="123.5,-6 123.5,-25 209.5,-25 209.5,-6 123.5,-6"/>
<text text-anchor="middle" x="166.5" y="-13" font-family="Helvetica,sans-Serif" font-size="10.00" fill="#000000">cxx::Bitfield::val</text>
</a>
</g>
</g>
<!-- Node6&#45;&gt;Node8 -->
<g id="edge2" class="edge">
<title>Node6&#45;&gt;Node8</title>
<path fill="none" stroke="#191970" d="M87.2115,-29.6817C95.6486,-28.1726 104.5744,-26.5761 113.2751,-25.0199"/>
<polygon fill="#191970" stroke="#191970" points="114.1154,-28.4252 123.3429,-23.2192 112.8828,-21.5346 114.1154,-28.4252"/>
</g>
<!-- Node9 -->
<g id="node4" class="node">
<title>Node9</title>
<g id="a_node4"><a xlink:href="classcxx_1_1Bitfield.html#a8180660e03ca6acf85047dba64bb77a3" target="_top" xlink:title="Get the shifted bits for val. ">
<polygon fill="#ffffff" stroke="#000000" points="246,-.5 246,-30.5 332,-30.5 332,-.5 246,-.5"/>
<text text-anchor="start" x="254" y="-18.5" font-family="Helvetica,sans-Serif" font-size="10.00" fill="#000000">cxx::Bitfield::val</text>
<text text-anchor="middle" x="289" y="-7.5" font-family="Helvetica,sans-Serif" font-size="10.00" fill="#000000">_dirty</text>
</a>
</g>
</g>
<!-- Node8&#45;&gt;Node9 -->
<g id="edge3" class="edge">
<title>Node8&#45;&gt;Node9</title>
<path fill="none" stroke="#191970" d="M209.6889,-15.5C218.1057,-15.5 227.0221,-15.5 235.7204,-15.5"/>
<polygon fill="#191970" stroke="#191970" points="235.7882,-19.0001 245.7882,-15.5 235.7882,-12.0001 235.7882,-19.0001"/>
</g>
</g>
</svg>
