<?xml version="1.0" encoding="UTF-8" standalone="no"?>
<!DOCTYPE svg PUBLIC "-//W3C//DTD SVG 1.1//EN"
 "http://www.w3.org/Graphics/SVG/1.1/DTD/svg11.dtd">
<!-- Generated by graphviz version 2.40.1 (20161225.0304)
 -->
<!-- Title: cxx::Avl_tree::insert Pages: 1 -->
<svg width="318pt" height="83pt"
 viewBox="0.00 0.00 318.00 83.00" xmlns="http://www.w3.org/2000/svg" xmlns:xlink="http://www.w3.org/1999/xlink">
<g id="graph0" class="graph" transform="scale(1 1) rotate(0) translate(4 79)">
<title>cxx::Avl_tree::insert</title>
<polygon fill="#ffffff" stroke="transparent" points="-4,4 -4,-79 314,-79 314,4 -4,4"/>
<!-- Node1 -->
<g id="node1" class="node">
<title>Node1</title>
<polygon fill="#bfbfbf" stroke="#000000" points="0,-28 0,-47 107,-47 107,-28 0,-28"/>
<text text-anchor="middle" x="53.5" y="-35" font-family="Helvetica,sans-Serif" font-size="10.00" fill="#000000">cxx::Avl_tree::insert</text>
</g>
<!-- Node2 -->
<g id="node2" class="node">
<title>Node2</title>
<g id="a_node2"><a xlink:href="classcxx_1_1Bits_1_1Base__avl__set.html#ac1f7218e9e51bfef71ecb746719a389a" target="_top" xlink:title="Insert an item into the set. ">
<polygon fill="#ffffff" stroke="#000000" points="143,-.5 143,-74.5 310,-74.5 310,-.5 143,-.5"/>
<text text-anchor="start" x="151" y="-62.5" font-family="Helvetica,sans-Serif" font-size="10.00" fill="#000000">cxx::Bits::Base_avl</text>
<text text-anchor="start" x="151" y="-51.5" font-family="Helvetica,sans-Serif" font-size="10.00" fill="#000000">_set&lt; Pair&lt; KEY_TYPE,</text>
<text text-anchor="start" x="151" y="-40.5" font-family="Helvetica,sans-Serif" font-size="10.00" fill="#000000"> DATA_TYPE &gt;, COMPARE</text>
<text text-anchor="start" x="151" y="-29.5" font-family="Helvetica,sans-Serif" font-size="10.00" fill="#000000">&lt; KEY_TYPE &gt;, ALLOC, Bits</text>
<text text-anchor="start" x="151" y="-18.5" font-family="Helvetica,sans-Serif" font-size="10.00" fill="#000000">::Avl_map_get_key&lt; KEY_TYPE</text>
<text text-anchor="middle" x="226.5" y="-7.5" font-family="Helvetica,sans-Serif" font-size="10.00" fill="#000000"> &gt; &gt;::insert</text>
</a>
</g>
</g>
<!-- Node1&#45;&gt;Node2 -->
<g id="edge1" class="edge">
<title>Node1&#45;&gt;Node2</title>
<path fill="none" stroke="#191970" d="M117.292,-37.5C125.6339,-37.5 134.2791,-37.5 142.8861,-37.5"/>
<polygon fill="#191970" stroke="#191970" points="117.29,-34.0001 107.29,-37.5 117.2899,-41.0001 117.29,-34.0001"/>
</g>
</g>
</svg>
