<?xml version="1.0" encoding="UTF-8" standalone="no"?>
<!DOCTYPE svg PUBLIC "-//W3C//DTD SVG 1.1//EN"
 "http://www.w3.org/Graphics/SVG/1.1/DTD/svg11.dtd">
<!-- Generated by graphviz version 2.40.1 (20161225.0304)
 -->
<!-- Title: L4vbus::Gpio_pin Pages: 1 -->
<svg width="317pt" height="994pt"
 viewBox="0.00 0.00 316.50 994.00" xmlns="http://www.w3.org/2000/svg" xmlns:xlink="http://www.w3.org/1999/xlink">
<g id="graph0" class="graph" transform="scale(1 1) rotate(0) translate(4 990)">
<title>L4vbus::Gpio_pin</title>
<polygon fill="#ffffff" stroke="transparent" points="-4,4 -4,-990 312.5,-990 312.5,4 -4,4"/>
<!-- Node4 -->
<g id="node1" class="node">
<title>Node4</title>
<polygon fill="#bfbfbf" stroke="#000000" points="82,-.5 82,-156.5 179,-156.5 179,-.5 82,-.5"/>
<text text-anchor="middle" x="130.5" y="-144.5" font-family="Helvetica,sans-Serif" font-size="10.00" fill="#000000">L4vbus::Gpio_pin</text>
<polyline fill="none" stroke="#000000" points="82,-137.5 179,-137.5 "/>
<text text-anchor="start" x="90" y="-125.5" font-family="Helvetica,sans-Serif" font-size="10.00" fill="#000000"># _pin</text>
<polyline fill="none" stroke="#000000" points="82,-118.5 179,-118.5 "/>
<text text-anchor="start" x="90" y="-106.5" font-family="Helvetica,sans-Serif" font-size="10.00" fill="#000000">+ Gpio_pin()</text>
<text text-anchor="start" x="90" y="-95.5" font-family="Helvetica,sans-Serif" font-size="10.00" fill="#000000">+ get()</text>
<text text-anchor="start" x="90" y="-84.5" font-family="Helvetica,sans-Serif" font-size="10.00" fill="#000000">+ set()</text>
<text text-anchor="start" x="90" y="-73.5" font-family="Helvetica,sans-Serif" font-size="10.00" fill="#000000">+ setup()</text>
<text text-anchor="start" x="90" y="-62.5" font-family="Helvetica,sans-Serif" font-size="10.00" fill="#000000">+ config_pull()</text>
<text text-anchor="start" x="90" y="-51.5" font-family="Helvetica,sans-Serif" font-size="10.00" fill="#000000">+ config_pad()</text>
<text text-anchor="start" x="90" y="-40.5" font-family="Helvetica,sans-Serif" font-size="10.00" fill="#000000">+ config_get()</text>
<text text-anchor="start" x="90" y="-29.5" font-family="Helvetica,sans-Serif" font-size="10.00" fill="#000000">+ to_irq()</text>
<text text-anchor="start" x="90" y="-18.5" font-family="Helvetica,sans-Serif" font-size="10.00" fill="#000000">+ pin()</text>
<text text-anchor="start" x="90" y="-7.5" font-family="Helvetica,sans-Serif" font-size="10.00" fill="#000000"># Gpio_pin()</text>
</g>
<!-- Node5 -->
<g id="node2" class="node">
<title>Node5</title>
<g id="a_node2"><a xlink:href="classL4vbus_1_1Device.html" target="_top" xlink:title="Device on a L4vbus::Vbus. ">
<polygon fill="#ffffff" stroke="#000000" points="80,-194.5 80,-361.5 181,-361.5 181,-194.5 80,-194.5"/>
<text text-anchor="middle" x="130.5" y="-349.5" font-family="Helvetica,sans-Serif" font-size="10.00" fill="#000000">L4vbus::Device</text>
<polyline fill="none" stroke="#000000" points="80,-342.5 181,-342.5 "/>
<text text-anchor="start" x="88" y="-330.5" font-family="Helvetica,sans-Serif" font-size="10.00" fill="#000000"># _dev</text>
<polyline fill="none" stroke="#000000" points="80,-323.5 181,-323.5 "/>
<text text-anchor="start" x="88" y="-311.5" font-family="Helvetica,sans-Serif" font-size="10.00" fill="#000000">+ Device()</text>
<text text-anchor="start" x="88" y="-300.5" font-family="Helvetica,sans-Serif" font-size="10.00" fill="#000000">+ Device()</text>
<text text-anchor="start" x="88" y="-289.5" font-family="Helvetica,sans-Serif" font-size="10.00" fill="#000000">+ bus_cap()</text>
<text text-anchor="start" x="88" y="-278.5" font-family="Helvetica,sans-Serif" font-size="10.00" fill="#000000">+ dev_handle()</text>
<text text-anchor="start" x="88" y="-267.5" font-family="Helvetica,sans-Serif" font-size="10.00" fill="#000000">+ device_by_hid()</text>
<text text-anchor="start" x="88" y="-256.5" font-family="Helvetica,sans-Serif" font-size="10.00" fill="#000000">+ next_device()</text>
<text text-anchor="start" x="88" y="-245.5" font-family="Helvetica,sans-Serif" font-size="10.00" fill="#000000">+ device()</text>
<text text-anchor="start" x="88" y="-234.5" font-family="Helvetica,sans-Serif" font-size="10.00" fill="#000000">+ get_resource()</text>
<text text-anchor="start" x="88" y="-223.5" font-family="Helvetica,sans-Serif" font-size="10.00" fill="#000000">+ is_compatible()</text>
<text text-anchor="start" x="88" y="-212.5" font-family="Helvetica,sans-Serif" font-size="10.00" fill="#000000">+ operator==()</text>
<text text-anchor="start" x="88" y="-201.5" font-family="Helvetica,sans-Serif" font-size="10.00" fill="#000000">+ operator!=()</text>
</a>
</g>
</g>
<!-- Node5&#45;&gt;Node4 -->
<g id="edge1" class="edge">
<title>Node5&#45;&gt;Node4</title>
<path fill="none" stroke="#191970" d="M130.5,-183.9666C130.5,-174.8097 130.5,-165.5883 130.5,-156.6125"/>
<polygon fill="none" stroke="#191970" points="127.0001,-184.2611 130.5,-194.2612 134.0001,-184.2612 127.0001,-184.2611"/>
</g>
<!-- Node6 -->
<g id="node3" class="node">
<title>Node6</title>
<g id="a_node3"><a xlink:href="classL4vbus_1_1Pm.html" target="_top" xlink:title="{L4vbus::Pm\&lt; Device \&gt;\n||+ pm_suspend()\l+ pm_resume()\l}">
<polygon fill="#ffffff" stroke="#000000" points="0,-442.5 0,-510.5 119,-510.5 119,-442.5 0,-442.5"/>
<text text-anchor="middle" x="59.5" y="-498.5" font-family="Helvetica,sans-Serif" font-size="10.00" fill="#000000">L4vbus::Pm&lt; Device &gt;</text>
<polyline fill="none" stroke="#000000" points="0,-491.5 119,-491.5 "/>
<text text-anchor="middle" x="59.5" y="-479.5" font-family="Helvetica,sans-Serif" font-size="10.00" fill="#000000"> </text>
<polyline fill="none" stroke="#000000" points="0,-472.5 119,-472.5 "/>
<text text-anchor="start" x="8" y="-460.5" font-family="Helvetica,sans-Serif" font-size="10.00" fill="#000000">+ pm_suspend()</text>
<text text-anchor="start" x="8" y="-449.5" font-family="Helvetica,sans-Serif" font-size="10.00" fill="#000000">+ pm_resume()</text>
</a>
</g>
</g>
<!-- Node6&#45;&gt;Node5 -->
<g id="edge2" class="edge">
<title>Node6&#45;&gt;Node5</title>
<path fill="none" stroke="#191970" d="M75.1225,-432.8231C82.6088,-411.8929 91.8355,-386.0973 100.5958,-361.6054"/>
<polygon fill="none" stroke="#191970" points="71.7777,-431.782 71.7053,-442.3766 78.3688,-434.1396 71.7777,-431.782"/>
</g>
<!-- Node7 -->
<g id="node4" class="node">
<title>Node7</title>
<g id="a_node4"><a xlink:href="classL4vbus_1_1Pm.html" target="_top" xlink:title="Power&#45;management API mixin. ">
<polygon fill="#ffffff" stroke="#000000" points="5,-624.5 5,-692.5 114,-692.5 114,-624.5 5,-624.5"/>
<text text-anchor="middle" x="59.5" y="-680.5" font-family="Helvetica,sans-Serif" font-size="10.00" fill="#000000">L4vbus::Pm&lt; DEC &gt;</text>
<polyline fill="none" stroke="#000000" points="5,-673.5 114,-673.5 "/>
<text text-anchor="middle" x="59.5" y="-661.5" font-family="Helvetica,sans-Serif" font-size="10.00" fill="#000000"> </text>
<polyline fill="none" stroke="#000000" points="5,-654.5 114,-654.5 "/>
<text text-anchor="start" x="13" y="-642.5" font-family="Helvetica,sans-Serif" font-size="10.00" fill="#000000">+ pm_suspend()</text>
<text text-anchor="start" x="13" y="-631.5" font-family="Helvetica,sans-Serif" font-size="10.00" fill="#000000">+ pm_resume()</text>
</a>
</g>
</g>
<!-- Node7&#45;&gt;Node6 -->
<g id="edge3" class="edge">
<title>Node7&#45;&gt;Node6</title>
<path fill="none" stroke="#ffa500" d="M59.5,-613.888C59.5,-582.011 59.5,-539.7676 59.5,-510.5793"/>
<polygon fill="#ffa500" stroke="#ffa500" points="56.0001,-614.2672 59.5,-624.2672 63.0001,-614.2672 56.0001,-614.2672"/>
<text text-anchor="middle" x="86.5" y="-565" font-family="Helvetica,sans-Serif" font-size="10.00" fill="#000000"> &lt; Device &gt;</text>
</g>
<!-- Node8 -->
<g id="node5" class="node">
<title>Node8</title>
<g id="a_node5"><a xlink:href="classL4_1_1Cap.html" target="_top" xlink:title="{L4::Cap\&lt; L4vbus::Vbus \&gt;\n||+ Cap()\l+ Cap()\l+ Cap()\l+ Cap()\l+ Cap()\l+ move()\l+ copy()\l+ operator&#45;\&gt;()\l}">
<polygon fill="#ffffff" stroke="#000000" points="137,-409.5 137,-543.5 268,-543.5 268,-409.5 137,-409.5"/>
<text text-anchor="middle" x="202.5" y="-531.5" font-family="Helvetica,sans-Serif" font-size="10.00" fill="#000000">L4::Cap&lt; L4vbus::Vbus &gt;</text>
<polyline fill="none" stroke="#000000" points="137,-524.5 268,-524.5 "/>
<text text-anchor="middle" x="202.5" y="-512.5" font-family="Helvetica,sans-Serif" font-size="10.00" fill="#000000"> </text>
<polyline fill="none" stroke="#000000" points="137,-505.5 268,-505.5 "/>
<text text-anchor="start" x="145" y="-493.5" font-family="Helvetica,sans-Serif" font-size="10.00" fill="#000000">+ Cap()</text>
<text text-anchor="start" x="145" y="-482.5" font-family="Helvetica,sans-Serif" font-size="10.00" fill="#000000">+ Cap()</text>
<text text-anchor="start" x="145" y="-471.5" font-family="Helvetica,sans-Serif" font-size="10.00" fill="#000000">+ Cap()</text>
<text text-anchor="start" x="145" y="-460.5" font-family="Helvetica,sans-Serif" font-size="10.00" fill="#000000">+ Cap()</text>
<text text-anchor="start" x="145" y="-449.5" font-family="Helvetica,sans-Serif" font-size="10.00" fill="#000000">+ Cap()</text>
<text text-anchor="start" x="145" y="-438.5" font-family="Helvetica,sans-Serif" font-size="10.00" fill="#000000">+ move()</text>
<text text-anchor="start" x="145" y="-427.5" font-family="Helvetica,sans-Serif" font-size="10.00" fill="#000000">+ copy()</text>
<text text-anchor="start" x="145" y="-416.5" font-family="Helvetica,sans-Serif" font-size="10.00" fill="#000000">+ operator&#45;&gt;()</text>
</a>
</g>
</g>
<!-- Node8&#45;&gt;Node5 -->
<g id="edge4" class="edge">
<title>Node8&#45;&gt;Node5</title>
<path fill="none" stroke="#404040" d="M178.1241,-409.297C173.9195,-397.7052 169.4779,-385.46 165.0652,-373.2943"/>
<polygon fill="none" stroke="#404040" points="164.9437,-372.9593 159.1375,-368.6828 160.8519,-361.6784 166.6581,-365.9549 164.9437,-372.9593"/>
<text text-anchor="middle" x="187" y="-383" font-family="Helvetica,sans-Serif" font-size="10.00" fill="#000000"> #_bus</text>
</g>
<!-- Node9 -->
<g id="node6" class="node">
<title>Node9</title>
<g id="a_node6"><a xlink:href="classL4_1_1Cap__base.html" target="_top" xlink:title="Base class for all kinds of capabilities. ">
<polygon fill="#ffffff" stroke="#000000" points="104.5,-763.5 104.5,-985.5 278.5,-985.5 278.5,-763.5 104.5,-763.5"/>
<text text-anchor="middle" x="191.5" y="-973.5" font-family="Helvetica,sans-Serif" font-size="10.00" fill="#000000">L4::Cap_base</text>
<polyline fill="none" stroke="#000000" points="104.5,-966.5 278.5,-966.5 "/>
<text text-anchor="start" x="112.5" y="-954.5" font-family="Helvetica,sans-Serif" font-size="10.00" fill="#000000"># _c</text>
<polyline fill="none" stroke="#000000" points="104.5,-947.5 278.5,-947.5 "/>
<text text-anchor="start" x="112.5" y="-935.5" font-family="Helvetica,sans-Serif" font-size="10.00" fill="#000000">+ cap()</text>
<text text-anchor="start" x="112.5" y="-924.5" font-family="Helvetica,sans-Serif" font-size="10.00" fill="#000000">+ is_valid()</text>
<text text-anchor="start" x="112.5" y="-913.5" font-family="Helvetica,sans-Serif" font-size="10.00" fill="#000000">+ operator Invalid_conversion *()</text>
<text text-anchor="start" x="112.5" y="-902.5" font-family="Helvetica,sans-Serif" font-size="10.00" fill="#000000">+ fpage()</text>
<text text-anchor="start" x="112.5" y="-891.5" font-family="Helvetica,sans-Serif" font-size="10.00" fill="#000000">+ snd_base()</text>
<text text-anchor="start" x="112.5" y="-880.5" font-family="Helvetica,sans-Serif" font-size="10.00" fill="#000000">+ operator==()</text>
<text text-anchor="start" x="112.5" y="-869.5" font-family="Helvetica,sans-Serif" font-size="10.00" fill="#000000">+ operator!=()</text>
<text text-anchor="start" x="112.5" y="-858.5" font-family="Helvetica,sans-Serif" font-size="10.00" fill="#000000">+ validate()</text>
<text text-anchor="start" x="112.5" y="-847.5" font-family="Helvetica,sans-Serif" font-size="10.00" fill="#000000">+ validate()</text>
<text text-anchor="start" x="112.5" y="-836.5" font-family="Helvetica,sans-Serif" font-size="10.00" fill="#000000">+ invalidate()</text>
<text text-anchor="start" x="112.5" y="-825.5" font-family="Helvetica,sans-Serif" font-size="10.00" fill="#000000"># Cap_base()</text>
<text text-anchor="start" x="112.5" y="-814.5" font-family="Helvetica,sans-Serif" font-size="10.00" fill="#000000"># Cap_base()</text>
<text text-anchor="start" x="112.5" y="-803.5" font-family="Helvetica,sans-Serif" font-size="10.00" fill="#000000"># Cap_base()</text>
<text text-anchor="start" x="112.5" y="-792.5" font-family="Helvetica,sans-Serif" font-size="10.00" fill="#000000"># Cap_base()</text>
<text text-anchor="start" x="112.5" y="-781.5" font-family="Helvetica,sans-Serif" font-size="10.00" fill="#000000"># move()</text>
<text text-anchor="start" x="112.5" y="-770.5" font-family="Helvetica,sans-Serif" font-size="10.00" fill="#000000"># copy()</text>
</a>
</g>
</g>
<!-- Node9&#45;&gt;Node8 -->
<g id="edge5" class="edge">
<title>Node9&#45;&gt;Node8</title>
<path fill="none" stroke="#191970" d="M194.223,-753.1669C195.4206,-702.9708 196.9147,-644.1762 198.5,-591 198.9564,-575.691 199.5001,-559.2326 200.0373,-543.7012"/>
<polygon fill="none" stroke="#191970" points="190.7182,-753.3341 193.9798,-763.4143 197.7162,-753.5002 190.7182,-753.3341"/>
</g>
<!-- Node10 -->
<g id="node7" class="node">
<title>Node10</title>
<g id="a_node7"><a xlink:href="classL4_1_1Cap.html" target="_top" xlink:title="C++ interface for capabilities. ">
<polygon fill="#ffffff" stroke="#000000" points="208,-591.5 208,-725.5 291,-725.5 291,-591.5 208,-591.5"/>
<text text-anchor="middle" x="249.5" y="-713.5" font-family="Helvetica,sans-Serif" font-size="10.00" fill="#000000">L4::Cap&lt; T &gt;</text>
<polyline fill="none" stroke="#000000" points="208,-706.5 291,-706.5 "/>
<text text-anchor="middle" x="249.5" y="-694.5" font-family="Helvetica,sans-Serif" font-size="10.00" fill="#000000"> </text>
<polyline fill="none" stroke="#000000" points="208,-687.5 291,-687.5 "/>
<text text-anchor="start" x="216" y="-675.5" font-family="Helvetica,sans-Serif" font-size="10.00" fill="#000000">+ Cap()</text>
<text text-anchor="start" x="216" y="-664.5" font-family="Helvetica,sans-Serif" font-size="10.00" fill="#000000">+ Cap()</text>
<text text-anchor="start" x="216" y="-653.5" font-family="Helvetica,sans-Serif" font-size="10.00" fill="#000000">+ Cap()</text>
<text text-anchor="start" x="216" y="-642.5" font-family="Helvetica,sans-Serif" font-size="10.00" fill="#000000">+ Cap()</text>
<text text-anchor="start" x="216" y="-631.5" font-family="Helvetica,sans-Serif" font-size="10.00" fill="#000000">+ Cap()</text>
<text text-anchor="start" x="216" y="-620.5" font-family="Helvetica,sans-Serif" font-size="10.00" fill="#000000">+ move()</text>
<text text-anchor="start" x="216" y="-609.5" font-family="Helvetica,sans-Serif" font-size="10.00" fill="#000000">+ copy()</text>
<text text-anchor="start" x="216" y="-598.5" font-family="Helvetica,sans-Serif" font-size="10.00" fill="#000000">+ operator&#45;&gt;()</text>
</a>
</g>
</g>
<!-- Node9&#45;&gt;Node10 -->
<g id="edge7" class="edge">
<title>Node9&#45;&gt;Node10</title>
<path fill="none" stroke="#191970" d="M224.005,-753.4468C226.5438,-743.992 229.0462,-734.6727 231.4329,-725.7844"/>
<polygon fill="none" stroke="#191970" points="220.5626,-752.7708 221.3495,-763.3363 227.3232,-754.5861 220.5626,-752.7708"/>
</g>
<!-- Node10&#45;&gt;Node8 -->
<g id="edge6" class="edge">
<title>Node10&#45;&gt;Node8</title>
<path fill="none" stroke="#ffa500" d="M229.5714,-581.3297C226.3475,-568.8456 223.0317,-556.0059 219.8746,-543.7802"/>
<polygon fill="#ffa500" stroke="#ffa500" points="226.2432,-582.4398 232.1325,-591.247 233.0208,-580.6895 226.2432,-582.4398"/>
<text text-anchor="middle" x="267.5" y="-565" font-family="Helvetica,sans-Serif" font-size="10.00" fill="#000000"> &lt; L4vbus::Vbus &gt;</text>
</g>
</g>
</svg>
