<?xml version="1.0" encoding="UTF-8" standalone="no"?>
<!DOCTYPE svg PUBLIC "-//W3C//DTD SVG 1.1//EN"
 "http://www.w3.org/Graphics/SVG/1.1/DTD/svg11.dtd">
<!-- Generated by graphviz version 2.40.1 (20161225.0304)
 -->
<!-- Title: L4::Ipc::Iostream::call Pages: 1 -->
<svg width="344pt" height="66pt"
 viewBox="0.00 0.00 344.00 66.00" xmlns="http://www.w3.org/2000/svg" xmlns:xlink="http://www.w3.org/1999/xlink">
<g id="graph0" class="graph" transform="scale(1 1) rotate(0) translate(4 62)">
<title>L4::Ipc::Iostream::call</title>
<polygon fill="#ffffff" stroke="transparent" points="-4,4 -4,-62 340,-62 340,4 -4,4"/>
<!-- Node4 -->
<g id="node1" class="node">
<title>Node4</title>
<polygon fill="#bfbfbf" stroke="#000000" points="0,-19.5 0,-38.5 113,-38.5 113,-19.5 0,-19.5"/>
<text text-anchor="middle" x="56.5" y="-26.5" font-family="Helvetica,sans-Serif" font-size="10.00" fill="#000000">L4::Ipc::Iostream::call</text>
</g>
<!-- Node5 -->
<g id="node2" class="node">
<title>Node5</title>
<g id="a_node2"><a xlink:href="group__l4__ipc__api.html#gab96d1669dcd54657237ee27b7f6862c6" target="_top" xlink:title="Object call (usual invocation). ">
<polygon fill="#ffffff" stroke="#000000" points="169.5,-38.5 169.5,-57.5 235.5,-57.5 235.5,-38.5 169.5,-38.5"/>
<text text-anchor="middle" x="202.5" y="-45.5" font-family="Helvetica,sans-Serif" font-size="10.00" fill="#000000">l4_ipc_call</text>
</a>
</g>
</g>
<!-- Node4&#45;&gt;Node5 -->
<g id="edge1" class="edge">
<title>Node4&#45;&gt;Node5</title>
<path fill="none" stroke="#191970" d="M113.3655,-36.4003C128.5707,-38.3791 144.759,-40.4858 159.1093,-42.3533"/>
<polygon fill="#191970" stroke="#191970" points="158.8253,-45.8457 169.1934,-43.6656 159.7287,-38.9043 158.8253,-45.8457"/>
</g>
<!-- Node7 -->
<g id="node4" class="node">
<title>Node7</title>
<g id="a_node4"><a xlink:href="classL4_1_1Ipc_1_1Istream.html#a685d93c237cbf66ff368e17639109411" target="_top" xlink:title="Get the message tag of a received IPC. ">
<polygon fill="#ffffff" stroke="#000000" points="149,-.5 149,-19.5 256,-19.5 256,-.5 149,-.5"/>
<text text-anchor="middle" x="202.5" y="-7.5" font-family="Helvetica,sans-Serif" font-size="10.00" fill="#000000">L4::Ipc::Istream::tag</text>
</a>
</g>
</g>
<!-- Node4&#45;&gt;Node7 -->
<g id="edge3" class="edge">
<title>Node4&#45;&gt;Node7</title>
<path fill="none" stroke="#191970" d="M113.3655,-21.5997C121.6762,-20.5182 130.2806,-19.3984 138.718,-18.3004"/>
<polygon fill="#191970" stroke="#191970" points="139.4314,-21.7372 148.8961,-16.9758 138.528,-14.7957 139.4314,-21.7372"/>
</g>
<!-- Node6 -->
<g id="node3" class="node">
<title>Node6</title>
<g id="a_node3"><a xlink:href="group__l4__ipc__api.html#ga0e7e5b18d784b1d3439ea6e5b4bea4e2" target="_top" xlink:title="Generic L4 object invocation. ">
<polygon fill="#ffffff" stroke="#000000" points="292,-38.5 292,-57.5 336,-57.5 336,-38.5 292,-38.5"/>
<text text-anchor="middle" x="314" y="-45.5" font-family="Helvetica,sans-Serif" font-size="10.00" fill="#000000">l4_ipc</text>
</a>
</g>
</g>
<!-- Node5&#45;&gt;Node6 -->
<g id="edge2" class="edge">
<title>Node5&#45;&gt;Node6</title>
<path fill="none" stroke="#191970" d="M235.6518,-48C250.2187,-48 267.2635,-48 281.7282,-48"/>
<polygon fill="#191970" stroke="#191970" points="281.7325,-51.5001 291.7325,-48 281.7325,-44.5001 281.7325,-51.5001"/>
</g>
</g>
</svg>
