<?xml version="1.0" encoding="UTF-8" standalone="no"?>
<!DOCTYPE svg PUBLIC "-//W3C//DTD SVG 1.1//EN"
 "http://www.w3.org/Graphics/SVG/1.1/DTD/svg11.dtd">
<!-- Generated by graphviz version 2.40.1 (20161225.0304)
 -->
<!-- Title: L4Re::Vfs::Be_file_system Pages: 1 -->
<svg width="184pt" height="260pt"
 viewBox="0.00 0.00 184.00 260.00" xmlns="http://www.w3.org/2000/svg" xmlns:xlink="http://www.w3.org/1999/xlink">
<g id="graph0" class="graph" transform="scale(1 1) rotate(0) translate(4 256)">
<title>L4Re::Vfs::Be_file_system</title>
<polygon fill="#ffffff" stroke="transparent" points="-4,4 -4,-256 180,-256 180,4 -4,4"/>
<!-- Node2 -->
<g id="node1" class="node">
<title>Node2</title>
<polygon fill="#bfbfbf" stroke="#000000" points="5.5,-.5 5.5,-90.5 116.5,-90.5 116.5,-.5 5.5,-.5"/>
<text text-anchor="start" x="13.5" y="-78.5" font-family="Helvetica,sans-Serif" font-size="10.00" fill="#000000">L4Re::Vfs::Be_file</text>
<text text-anchor="middle" x="61" y="-67.5" font-family="Helvetica,sans-Serif" font-size="10.00" fill="#000000">_system</text>
<polyline fill="none" stroke="#000000" points="5.5,-60.5 116.5,-60.5 "/>
<text text-anchor="middle" x="61" y="-48.5" font-family="Helvetica,sans-Serif" font-size="10.00" fill="#000000"> </text>
<polyline fill="none" stroke="#000000" points="5.5,-41.5 116.5,-41.5 "/>
<text text-anchor="start" x="13.5" y="-29.5" font-family="Helvetica,sans-Serif" font-size="10.00" fill="#000000">+ Be_file_system()</text>
<text text-anchor="start" x="13.5" y="-18.5" font-family="Helvetica,sans-Serif" font-size="10.00" fill="#000000">+ ~Be_file_system()</text>
<text text-anchor="start" x="13.5" y="-7.5" font-family="Helvetica,sans-Serif" font-size="10.00" fill="#000000">+ type()</text>
</g>
<!-- Node3 -->
<g id="node2" class="node">
<title>Node3</title>
<g id="a_node2"><a xlink:href="classL4Re_1_1Vfs_1_1File__system.html" target="_top" xlink:title="Basic interface for an L4Re::Vfs file system. ">
<polygon fill="#ffffff" stroke="#000000" points="0,-128.5 0,-251.5 122,-251.5 122,-128.5 0,-128.5"/>
<text text-anchor="middle" x="61" y="-239.5" font-family="Helvetica,sans-Serif" font-size="10.00" fill="#000000">L4Re::Vfs::File_system</text>
<polyline fill="none" stroke="#000000" points="0,-232.5 122,-232.5 "/>
<text text-anchor="middle" x="61" y="-220.5" font-family="Helvetica,sans-Serif" font-size="10.00" fill="#000000"> </text>
<polyline fill="none" stroke="#000000" points="0,-213.5 122,-213.5 "/>
<text text-anchor="start" x="8" y="-201.5" font-family="Helvetica,sans-Serif" font-size="10.00" fill="#000000">+ File_system()</text>
<text text-anchor="start" x="8" y="-190.5" font-family="Helvetica,sans-Serif" font-size="10.00" fill="#000000">+ type()</text>
<text text-anchor="start" x="8" y="-179.5" font-family="Helvetica,sans-Serif" font-size="10.00" fill="#000000">+ mount()</text>
<text text-anchor="start" x="8" y="-168.5" font-family="Helvetica,sans-Serif" font-size="10.00" fill="#000000">+ ~File_system()</text>
<text text-anchor="start" x="8" y="-157.5" font-family="Helvetica,sans-Serif" font-size="10.00" fill="#000000">+ next()</text>
<text text-anchor="start" x="8" y="-146.5" font-family="Helvetica,sans-Serif" font-size="10.00" fill="#000000">+ next()</text>
<text text-anchor="start" x="8" y="-135.5" font-family="Helvetica,sans-Serif" font-size="10.00" fill="#000000">+ next()</text>
</a>
</g>
</g>
<!-- Node3&#45;&gt;Node2 -->
<g id="edge1" class="edge">
<title>Node3&#45;&gt;Node2</title>
<path fill="none" stroke="#191970" d="M61,-118.2121C61,-108.8848 61,-99.5472 61,-90.8211"/>
<polygon fill="none" stroke="#191970" points="57.5001,-118.2998 61,-128.2999 64.5001,-118.2999 57.5001,-118.2998"/>
</g>
<!-- Node3&#45;&gt;Node3 -->
<g id="edge2" class="edge">
<title>Node3&#45;&gt;Node3</title>
<path fill="none" stroke="#404040" d="M122.2789,-204.003C132.7472,-202.0895 140,-197.4219 140,-190 140,-185.8252 137.7052,-182.5218 133.8341,-180.0899"/>
<polygon fill="none" stroke="#404040" points="133.5903,-180.0036 126.5991,-181.7708 122.2789,-175.997 129.2701,-174.2299 133.5903,-180.0036"/>
<text text-anchor="middle" x="158" y="-187.5" font-family="Helvetica,sans-Serif" font-size="10.00" fill="#000000"> #_next</text>
</g>
</g>
</svg>
