<?xml version="1.0" encoding="UTF-8" standalone="no"?>
<!DOCTYPE svg PUBLIC "-//W3C//DTD SVG 1.1//EN"
 "http://www.w3.org/Graphics/SVG/1.1/DTD/svg11.dtd">
<!-- Generated by graphviz version 2.40.1 (20161225.0304)
 -->
<!-- Title: cxx::Bitfield&lt; T, LSB, MSB &gt;::Value&lt; TT &gt; Pages: 1 -->
<svg width="131pt" height="270pt"
 viewBox="0.00 0.00 131.00 270.00" xmlns="http://www.w3.org/2000/svg" xmlns:xlink="http://www.w3.org/1999/xlink">
<g id="graph0" class="graph" transform="scale(1 1) rotate(0) translate(4 266)">
<title>cxx::Bitfield&lt; T, LSB, MSB &gt;::Value&lt; TT &gt;</title>
<polygon fill="#ffffff" stroke="transparent" points="-4,4 -4,-266 127,-266 127,4 -4,4"/>
<!-- Node2 -->
<g id="node1" class="node">
<title>Node2</title>
<polygon fill="#bfbfbf" stroke="#000000" points="1,-.5 1,-90.5 122,-90.5 122,-.5 1,-.5"/>
<text text-anchor="start" x="9" y="-78.5" font-family="Helvetica,sans-Serif" font-size="10.00" fill="#000000">cxx::Bitfield&lt; T, LSB,</text>
<text text-anchor="middle" x="61.5" y="-67.5" font-family="Helvetica,sans-Serif" font-size="10.00" fill="#000000"> MSB &gt;::Value&lt; TT &gt;</text>
<polyline fill="none" stroke="#000000" points="1,-60.5 122,-60.5 "/>
<text text-anchor="middle" x="61.5" y="-48.5" font-family="Helvetica,sans-Serif" font-size="10.00" fill="#000000"> </text>
<polyline fill="none" stroke="#000000" points="1,-41.5 122,-41.5 "/>
<text text-anchor="start" x="9" y="-29.5" font-family="Helvetica,sans-Serif" font-size="10.00" fill="#000000">+ Value()</text>
<text text-anchor="start" x="9" y="-18.5" font-family="Helvetica,sans-Serif" font-size="10.00" fill="#000000">+ operator Bits_type()</text>
<text text-anchor="start" x="9" y="-7.5" font-family="Helvetica,sans-Serif" font-size="10.00" fill="#000000">+ operator=()</text>
</g>
<!-- Node3 -->
<g id="node2" class="node">
<title>Node3</title>
<g id="a_node2"><a xlink:href="classcxx_1_1Bitfield_1_1Value__base.html" target="_top" xlink:title="Internal helper type. ">
<polygon fill="#ffffff" stroke="#000000" points="0,-127.5 0,-261.5 123,-261.5 123,-127.5 0,-127.5"/>
<text text-anchor="start" x="8" y="-249.5" font-family="Helvetica,sans-Serif" font-size="10.00" fill="#000000">cxx::Bitfield&lt; TT &gt;</text>
<text text-anchor="middle" x="61.5" y="-238.5" font-family="Helvetica,sans-Serif" font-size="10.00" fill="#000000">::Value_base</text>
<polyline fill="none" stroke="#000000" points="0,-231.5 123,-231.5 "/>
<text text-anchor="middle" x="61.5" y="-219.5" font-family="Helvetica,sans-Serif" font-size="10.00" fill="#000000"> </text>
<polyline fill="none" stroke="#000000" points="0,-212.5 123,-212.5 "/>
<text text-anchor="start" x="8" y="-200.5" font-family="Helvetica,sans-Serif" font-size="10.00" fill="#000000">+ Value_base()</text>
<text text-anchor="start" x="8" y="-189.5" font-family="Helvetica,sans-Serif" font-size="10.00" fill="#000000">+ get()</text>
<text text-anchor="start" x="8" y="-178.5" font-family="Helvetica,sans-Serif" font-size="10.00" fill="#000000">+ get_unshifted()</text>
<text text-anchor="start" x="8" y="-167.5" font-family="Helvetica,sans-Serif" font-size="10.00" fill="#000000">+ set()</text>
<text text-anchor="start" x="8" y="-156.5" font-family="Helvetica,sans-Serif" font-size="10.00" fill="#000000">+ set_dirty()</text>
<text text-anchor="start" x="8" y="-145.5" font-family="Helvetica,sans-Serif" font-size="10.00" fill="#000000">+ set_unshifted()</text>
<text text-anchor="start" x="8" y="-134.5" font-family="Helvetica,sans-Serif" font-size="10.00" fill="#000000">+ set_unshifted_dirty()</text>
</a>
</g>
</g>
<!-- Node3&#45;&gt;Node2 -->
<g id="edge1" class="edge">
<title>Node3&#45;&gt;Node2</title>
<path fill="none" stroke="#191970" d="M61.5,-117.2384C61.5,-108.2246 61.5,-99.2648 61.5,-90.8878"/>
<polygon fill="none" stroke="#191970" points="58.0001,-117.41 61.5,-127.41 65.0001,-117.41 58.0001,-117.41"/>
</g>
</g>
</svg>
