<?xml version="1.0" encoding="UTF-8" standalone="no"?>
<!DOCTYPE svg PUBLIC "-//W3C//DTD SVG 1.1//EN"
 "http://www.w3.org/Graphics/SVG/1.1/DTD/svg11.dtd">
<!-- Generated by graphviz version 2.40.1 (20161225.0304)
 -->
<!-- Title: L4::Type_info::Demand::no_demand Pages: 1 -->
<svg width="300pt" height="50pt"
 viewBox="0.00 0.00 300.00 50.00" xmlns="http://www.w3.org/2000/svg" xmlns:xlink="http://www.w3.org/1999/xlink">
<g id="graph0" class="graph" transform="scale(1 1) rotate(0) translate(4 46)">
<title>L4::Type_info::Demand::no_demand</title>
<polygon fill="#ffffff" stroke="transparent" points="-4,4 -4,-46 296,-46 296,4 -4,4"/>
<!-- Node3 -->
<g id="node1" class="node">
<title>Node3</title>
<polygon fill="#bfbfbf" stroke="#000000" points="0,-6 0,-36 125,-36 125,-6 0,-6"/>
<text text-anchor="start" x="8" y="-24" font-family="Helvetica,sans-Serif" font-size="10.00" fill="#000000">L4::Type_info::Demand</text>
<text text-anchor="middle" x="62.5" y="-13" font-family="Helvetica,sans-Serif" font-size="10.00" fill="#000000">::no_demand</text>
</g>
<!-- Node4 -->
<g id="node2" class="node">
<title>Node4</title>
<g id="a_node2"><a xlink:href="classL4_1_1Ipc__svr_1_1Br__manager__no__buffers.html#a36a130546359dc188a3f79ce630e5fb3" target="_top" xlink:title="Tells the server to allocate buffers for the given demand. ">
<polygon fill="#ffffff" stroke="#000000" points="161,-.5 161,-41.5 292,-41.5 292,-.5 161,-.5"/>
<text text-anchor="start" x="169" y="-29.5" font-family="Helvetica,sans-Serif" font-size="10.00" fill="#000000">L4::Ipc_svr::Br_manager</text>
<text text-anchor="start" x="169" y="-18.5" font-family="Helvetica,sans-Serif" font-size="10.00" fill="#000000">_no_buffers::alloc_buffer</text>
<text text-anchor="middle" x="226.5" y="-7.5" font-family="Helvetica,sans-Serif" font-size="10.00" fill="#000000">_demand</text>
</a>
</g>
</g>
<!-- Node3&#45;&gt;Node4 -->
<g id="edge1" class="edge">
<title>Node3&#45;&gt;Node4</title>
<path fill="none" stroke="#191970" d="M135.5745,-21C143.9557,-21 152.4628,-21 160.7399,-21"/>
<polygon fill="#191970" stroke="#191970" points="135.4377,-17.5001 125.4377,-21 135.4376,-24.5001 135.4377,-17.5001"/>
</g>
</g>
</svg>
