<?xml version="1.0" encoding="UTF-8" standalone="no"?>
<!DOCTYPE svg PUBLIC "-//W3C//DTD SVG 1.1//EN"
 "http://www.w3.org/Graphics/SVG/1.1/DTD/svg11.dtd">
<!-- Generated by graphviz version 2.40.1 (20161225.0304)
 -->
<!-- Title: cxx::Bitmap_base::Word&lt; BITS &gt; Pages: 1 -->
<svg width="282pt" height="193pt"
 viewBox="0.00 0.00 282.00 193.00" xmlns="http://www.w3.org/2000/svg" xmlns:xlink="http://www.w3.org/1999/xlink">
<g id="graph0" class="graph" transform="scale(1 1) rotate(0) translate(4 189)">
<title>cxx::Bitmap_base::Word&lt; BITS &gt;</title>
<polygon fill="#ffffff" stroke="transparent" points="-4,4 -4,-189 278,-189 278,4 -4,4"/>
<!-- Node0 -->
<g id="node1" class="node">
<title>Node0</title>
<polygon fill="#bfbfbf" stroke="#000000" points="73,-116.5 73,-184.5 201,-184.5 201,-116.5 73,-116.5"/>
<text text-anchor="start" x="81" y="-172.5" font-family="Helvetica,sans-Serif" font-size="10.00" fill="#000000">cxx::Bitmap_base::Word</text>
<text text-anchor="middle" x="137" y="-161.5" font-family="Helvetica,sans-Serif" font-size="10.00" fill="#000000">&lt; BITS &gt;</text>
<polyline fill="none" stroke="#000000" points="73,-154.5 201,-154.5 "/>
<text text-anchor="middle" x="137" y="-142.5" font-family="Helvetica,sans-Serif" font-size="10.00" fill="#000000"> </text>
<polyline fill="none" stroke="#000000" points="73,-135.5 201,-135.5 "/>
<text text-anchor="middle" x="137" y="-123.5" font-family="Helvetica,sans-Serif" font-size="10.00" fill="#000000"> </text>
</g>
<!-- Node1 -->
<g id="node2" class="node">
<title>Node1</title>
<g id="a_node2"><a xlink:href="classcxx_1_1Bitmap__base_1_1Word.html" target="_top" xlink:title="{cxx::Bitmap_base::Word\l\&lt; Size \&gt;\n||}">
<polygon fill="#ffffff" stroke="#000000" points="0,-.5 0,-68.5 128,-68.5 128,-.5 0,-.5"/>
<text text-anchor="start" x="8" y="-56.5" font-family="Helvetica,sans-Serif" font-size="10.00" fill="#000000">cxx::Bitmap_base::Word</text>
<text text-anchor="middle" x="64" y="-45.5" font-family="Helvetica,sans-Serif" font-size="10.00" fill="#000000">&lt; Size &gt;</text>
<polyline fill="none" stroke="#000000" points="0,-38.5 128,-38.5 "/>
<text text-anchor="middle" x="64" y="-26.5" font-family="Helvetica,sans-Serif" font-size="10.00" fill="#000000"> </text>
<polyline fill="none" stroke="#000000" points="0,-19.5 128,-19.5 "/>
<text text-anchor="middle" x="64" y="-7.5" font-family="Helvetica,sans-Serif" font-size="10.00" fill="#000000"> </text>
</a>
</g>
</g>
<!-- Node0&#45;&gt;Node1 -->
<g id="edge1" class="edge">
<title>Node0&#45;&gt;Node1</title>
<path fill="none" stroke="#ffa500" d="M110.0443,-107.6663C101.9904,-94.8683 93.2696,-81.0106 85.6061,-68.833"/>
<polygon fill="#ffa500" stroke="#ffa500" points="107.2039,-109.7242 115.4924,-116.3236 113.1284,-105.9958 107.2039,-109.7242"/>
<text text-anchor="middle" x="124" y="-90" font-family="Helvetica,sans-Serif" font-size="10.00" fill="#000000"> &lt; Size &gt;</text>
</g>
<!-- Node2 -->
<g id="node3" class="node">
<title>Node2</title>
<g id="a_node3"><a xlink:href="classcxx_1_1Bitmap__base_1_1Word.html" target="_top" xlink:title="{cxx::Bitmap_base::Word\l\&lt; Bits \&gt;\n||}">
<polygon fill="#ffffff" stroke="#000000" points="146,-.5 146,-68.5 274,-68.5 274,-.5 146,-.5"/>
<text text-anchor="start" x="154" y="-56.5" font-family="Helvetica,sans-Serif" font-size="10.00" fill="#000000">cxx::Bitmap_base::Word</text>
<text text-anchor="middle" x="210" y="-45.5" font-family="Helvetica,sans-Serif" font-size="10.00" fill="#000000">&lt; Bits &gt;</text>
<polyline fill="none" stroke="#000000" points="146,-38.5 274,-38.5 "/>
<text text-anchor="middle" x="210" y="-26.5" font-family="Helvetica,sans-Serif" font-size="10.00" fill="#000000"> </text>
<polyline fill="none" stroke="#000000" points="146,-19.5 274,-19.5 "/>
<text text-anchor="middle" x="210" y="-7.5" font-family="Helvetica,sans-Serif" font-size="10.00" fill="#000000"> </text>
</a>
</g>
</g>
<!-- Node0&#45;&gt;Node2 -->
<g id="edge2" class="edge">
<title>Node0&#45;&gt;Node2</title>
<path fill="none" stroke="#ffa500" d="M163.9557,-107.6663C172.0096,-94.8683 180.7304,-81.0106 188.3939,-68.833"/>
<polygon fill="#ffa500" stroke="#ffa500" points="160.8716,-105.9958 158.5076,-116.3236 166.7961,-109.7242 160.8716,-105.9958"/>
<text text-anchor="middle" x="194.5" y="-90" font-family="Helvetica,sans-Serif" font-size="10.00" fill="#000000"> &lt; Bits &gt;</text>
</g>
</g>
</svg>
