<?xml version="1.0" encoding="UTF-8" standalone="no"?>
<!DOCTYPE svg PUBLIC "-//W3C//DTD SVG 1.1//EN"
 "http://www.w3.org/Graphics/SVG/1.1/DTD/svg11.dtd">
<!-- Generated by graphviz version 2.40.1 (20161225.0304)
 -->
<!-- Title: cxx::Avl_tree_node Pages: 1 -->
<svg width="114pt" height="281pt"
 viewBox="0.00 0.00 114.00 281.00" xmlns="http://www.w3.org/2000/svg" xmlns:xlink="http://www.w3.org/1999/xlink">
<g id="graph0" class="graph" transform="scale(1 1) rotate(0) translate(4 277)">
<title>cxx::Avl_tree_node</title>
<polygon fill="#ffffff" stroke="transparent" points="-4,4 -4,-277 110,-277 110,4 -4,4"/>
<!-- Node0 -->
<g id="node1" class="node">
<title>Node0</title>
<polygon fill="#bfbfbf" stroke="#000000" points="0,-.5 0,-57.5 106,-57.5 106,-.5 0,-.5"/>
<text text-anchor="middle" x="53" y="-45.5" font-family="Helvetica,sans-Serif" font-size="10.00" fill="#000000">cxx::Avl_tree_node</text>
<polyline fill="none" stroke="#000000" points="0,-38.5 106,-38.5 "/>
<text text-anchor="middle" x="53" y="-26.5" font-family="Helvetica,sans-Serif" font-size="10.00" fill="#000000"> </text>
<polyline fill="none" stroke="#000000" points="0,-19.5 106,-19.5 "/>
<text text-anchor="start" x="8" y="-7.5" font-family="Helvetica,sans-Serif" font-size="10.00" fill="#000000"># Avl_tree_node()</text>
</g>
<!-- Node1 -->
<g id="node2" class="node">
<title>Node1</title>
<g id="a_node2"><a xlink:href="classcxx_1_1Bits_1_1Bst__node.html" target="_top" xlink:title="Basic type of a node in a binary search tree (BST). ">
<polygon fill="#ffffff" stroke="#000000" points="1,-94.5 1,-272.5 105,-272.5 105,-94.5 1,-94.5"/>
<text text-anchor="middle" x="53" y="-260.5" font-family="Helvetica,sans-Serif" font-size="10.00" fill="#000000">cxx::Bits::Bst_node</text>
<polyline fill="none" stroke="#000000" points="1,-253.5 105,-253.5 "/>
<text text-anchor="middle" x="53" y="-241.5" font-family="Helvetica,sans-Serif" font-size="10.00" fill="#000000"> </text>
<polyline fill="none" stroke="#000000" points="1,-234.5 105,-234.5 "/>
<text text-anchor="start" x="9" y="-222.5" font-family="Helvetica,sans-Serif" font-size="10.00" fill="#000000"># Bst_node()</text>
<text text-anchor="start" x="9" y="-211.5" font-family="Helvetica,sans-Serif" font-size="10.00" fill="#000000"># Bst_node()</text>
<text text-anchor="start" x="9" y="-200.5" font-family="Helvetica,sans-Serif" font-size="10.00" fill="#000000"># next()</text>
<text text-anchor="start" x="9" y="-189.5" font-family="Helvetica,sans-Serif" font-size="10.00" fill="#000000"># next()</text>
<text text-anchor="start" x="9" y="-178.5" font-family="Helvetica,sans-Serif" font-size="10.00" fill="#000000"># next_p()</text>
<text text-anchor="start" x="9" y="-167.5" font-family="Helvetica,sans-Serif" font-size="10.00" fill="#000000"># next()</text>
<text text-anchor="start" x="9" y="-156.5" font-family="Helvetica,sans-Serif" font-size="10.00" fill="#000000"># rotate()</text>
<text text-anchor="start" x="9" y="-145.5" font-family="Helvetica,sans-Serif" font-size="10.00" fill="#000000">* next()</text>
<text text-anchor="start" x="9" y="-134.5" font-family="Helvetica,sans-Serif" font-size="10.00" fill="#000000">* next()</text>
<text text-anchor="start" x="9" y="-123.5" font-family="Helvetica,sans-Serif" font-size="10.00" fill="#000000">* next_p()</text>
<text text-anchor="start" x="9" y="-112.5" font-family="Helvetica,sans-Serif" font-size="10.00" fill="#000000">* next()</text>
<text text-anchor="start" x="9" y="-101.5" font-family="Helvetica,sans-Serif" font-size="10.00" fill="#000000">* rotate()</text>
</a>
</g>
</g>
<!-- Node1&#45;&gt;Node0 -->
<g id="edge1" class="edge">
<title>Node1&#45;&gt;Node0</title>
<path fill="none" stroke="#191970" d="M53,-83.7816C53,-74.443 53,-65.5843 53,-57.8196"/>
<polygon fill="none" stroke="#191970" points="49.5001,-84.0741 53,-94.0741 56.5001,-84.0742 49.5001,-84.0741"/>
</g>
</g>
</svg>
