<?xml version="1.0" encoding="UTF-8" standalone="no"?>
<!DOCTYPE svg PUBLIC "-//W3C//DTD SVG 1.1//EN"
 "http://www.w3.org/Graphics/SVG/1.1/DTD/svg11.dtd">
<!-- Generated by graphviz version 2.40.1 (20161225.0304)
 -->
<!-- Title: L4::Task Pages: 1 -->
<svg width="292pt" height="654pt"
 viewBox="0.00 0.00 292.00 654.00" xmlns="http://www.w3.org/2000/svg" xmlns:xlink="http://www.w3.org/1999/xlink">
<g id="graph0" class="graph" transform="scale(1 1) rotate(0) translate(4 650)">
<title>L4::Task</title>
<polygon fill="#ffffff" stroke="transparent" points="-4,4 -4,-650 288,-650 288,4 -4,4"/>
<!-- Node0 -->
<g id="node1" class="node">
<title>Node0</title>
<polygon fill="#bfbfbf" stroke="#000000" points="62.5,-234.5 62.5,-368.5 159.5,-368.5 159.5,-234.5 62.5,-234.5"/>
<text text-anchor="middle" x="111" y="-356.5" font-family="Helvetica,sans-Serif" font-size="10.00" fill="#000000">L4::Task</text>
<polyline fill="none" stroke="#000000" points="62.5,-349.5 159.5,-349.5 "/>
<text text-anchor="middle" x="111" y="-337.5" font-family="Helvetica,sans-Serif" font-size="10.00" fill="#000000"> </text>
<polyline fill="none" stroke="#000000" points="62.5,-330.5 159.5,-330.5 "/>
<text text-anchor="start" x="70.5" y="-318.5" font-family="Helvetica,sans-Serif" font-size="10.00" fill="#000000">+ map()</text>
<text text-anchor="start" x="70.5" y="-307.5" font-family="Helvetica,sans-Serif" font-size="10.00" fill="#000000">+ unmap()</text>
<text text-anchor="start" x="70.5" y="-296.5" font-family="Helvetica,sans-Serif" font-size="10.00" fill="#000000">+ unmap_batch()</text>
<text text-anchor="start" x="70.5" y="-285.5" font-family="Helvetica,sans-Serif" font-size="10.00" fill="#000000">+ delete_obj()</text>
<text text-anchor="start" x="70.5" y="-274.5" font-family="Helvetica,sans-Serif" font-size="10.00" fill="#000000">+ release_cap()</text>
<text text-anchor="start" x="70.5" y="-263.5" font-family="Helvetica,sans-Serif" font-size="10.00" fill="#000000">+ cap_valid()</text>
<text text-anchor="start" x="70.5" y="-252.5" font-family="Helvetica,sans-Serif" font-size="10.00" fill="#000000">+ cap_equal()</text>
<text text-anchor="start" x="70.5" y="-241.5" font-family="Helvetica,sans-Serif" font-size="10.00" fill="#000000">+ add_ku_mem()</text>
</g>
<!-- Node4 -->
<g id="node5" class="node">
<title>Node4</title>
<g id="a_node5"><a xlink:href="classL4_1_1Kobject__t.html" target="_top" xlink:title="{L4::Kobject_t\&lt; Vm,\l Task, L4_PROTO_VM \&gt;\n||# c()\l# __check_protocols__()\l}">
<polygon fill="#ffffff" stroke="#000000" points="44,-117.5 44,-196.5 178,-196.5 178,-117.5 44,-117.5"/>
<text text-anchor="start" x="52" y="-184.5" font-family="Helvetica,sans-Serif" font-size="10.00" fill="#000000">L4::Kobject_t&lt; Vm,</text>
<text text-anchor="middle" x="111" y="-173.5" font-family="Helvetica,sans-Serif" font-size="10.00" fill="#000000"> Task, L4_PROTO_VM &gt;</text>
<polyline fill="none" stroke="#000000" points="44,-166.5 178,-166.5 "/>
<text text-anchor="middle" x="111" y="-154.5" font-family="Helvetica,sans-Serif" font-size="10.00" fill="#000000"> </text>
<polyline fill="none" stroke="#000000" points="44,-147.5 178,-147.5 "/>
<text text-anchor="start" x="52" y="-135.5" font-family="Helvetica,sans-Serif" font-size="10.00" fill="#000000"># c()</text>
<text text-anchor="start" x="52" y="-124.5" font-family="Helvetica,sans-Serif" font-size="10.00" fill="#000000"># __check_protocols__()</text>
</a>
</g>
</g>
<!-- Node0&#45;&gt;Node4 -->
<g id="edge4" class="edge">
<title>Node0&#45;&gt;Node4</title>
<path fill="none" stroke="#191970" d="M111,-224.0923C111,-214.6753 111,-205.3757 111,-196.8379"/>
<polygon fill="none" stroke="#191970" points="107.5001,-224.3263 111,-234.3264 114.5001,-224.3264 107.5001,-224.3263"/>
</g>
<!-- Node1 -->
<g id="node2" class="node">
<title>Node1</title>
<g id="a_node2"><a xlink:href="classL4_1_1Kobject__t.html" target="_top" xlink:title="{L4::Kobject_t\&lt; Task,\l Kobject, L4_PROTO_TASK,\l Type_info::Demand_t\&lt; 2 \&gt; \&gt;\n||# c()\l# __check_protocols__()\l}">
<polygon fill="#ffffff" stroke="#000000" points="34.5,-406.5 34.5,-496.5 187.5,-496.5 187.5,-406.5 34.5,-406.5"/>
<text text-anchor="start" x="42.5" y="-484.5" font-family="Helvetica,sans-Serif" font-size="10.00" fill="#000000">L4::Kobject_t&lt; Task,</text>
<text text-anchor="start" x="42.5" y="-473.5" font-family="Helvetica,sans-Serif" font-size="10.00" fill="#000000"> Kobject, L4_PROTO_TASK,</text>
<text text-anchor="middle" x="111" y="-462.5" font-family="Helvetica,sans-Serif" font-size="10.00" fill="#000000"> Type_info::Demand_t&lt; 2 &gt; &gt;</text>
<polyline fill="none" stroke="#000000" points="34.5,-455.5 187.5,-455.5 "/>
<text text-anchor="middle" x="111" y="-443.5" font-family="Helvetica,sans-Serif" font-size="10.00" fill="#000000"> </text>
<polyline fill="none" stroke="#000000" points="34.5,-436.5 187.5,-436.5 "/>
<text text-anchor="start" x="42.5" y="-424.5" font-family="Helvetica,sans-Serif" font-size="10.00" fill="#000000"># c()</text>
<text text-anchor="start" x="42.5" y="-413.5" font-family="Helvetica,sans-Serif" font-size="10.00" fill="#000000"># __check_protocols__()</text>
</a>
</g>
</g>
<!-- Node1&#45;&gt;Node0 -->
<g id="edge1" class="edge">
<title>Node1&#45;&gt;Node0</title>
<path fill="none" stroke="#191970" d="M111,-396.4861C111,-387.436 111,-377.9671 111,-368.661"/>
<polygon fill="none" stroke="#191970" points="107.5001,-396.495 111,-406.4951 114.5001,-396.4951 107.5001,-396.495"/>
</g>
<!-- Node2 -->
<g id="node3" class="node">
<title>Node2</title>
<g id="a_node3"><a xlink:href="classL4_1_1Kobject.html" target="_top" xlink:title="Base class for all kinds of kernel objects and remote objects, referenced by capabilities. ">
<polygon fill="#ffffff" stroke="#000000" points="0,-572 0,-640 84,-640 84,-572 0,-572"/>
<text text-anchor="middle" x="42" y="-628" font-family="Helvetica,sans-Serif" font-size="10.00" fill="#000000">L4::Kobject</text>
<polyline fill="none" stroke="#000000" points="0,-621 84,-621 "/>
<text text-anchor="middle" x="42" y="-609" font-family="Helvetica,sans-Serif" font-size="10.00" fill="#000000"> </text>
<polyline fill="none" stroke="#000000" points="0,-602 84,-602 "/>
<text text-anchor="start" x="8" y="-590" font-family="Helvetica,sans-Serif" font-size="10.00" fill="#000000">+ dec_refcnt()</text>
<text text-anchor="start" x="8" y="-579" font-family="Helvetica,sans-Serif" font-size="10.00" fill="#000000"># cap()</text>
</a>
</g>
</g>
<!-- Node2&#45;&gt;Node1 -->
<g id="edge2" class="edge">
<title>Node2&#45;&gt;Node1</title>
<path fill="none" stroke="#191970" d="M61.4029,-562.5544C70.6043,-541.9513 81.5904,-517.352 90.8815,-496.5479"/>
<polygon fill="none" stroke="#191970" points="58.1954,-561.1534 57.3133,-571.7114 64.587,-564.0079 58.1954,-561.1534"/>
</g>
<!-- Node3 -->
<g id="node4" class="node">
<title>Node3</title>
<g id="a_node4"><a xlink:href="classL4_1_1Kobject__t.html" target="_top" xlink:title="Helper class to create an L4Re interface class that is derived from a single base class...">
<polygon fill="#ffffff" stroke="#000000" points="102,-566.5 102,-645.5 260,-645.5 260,-566.5 102,-566.5"/>
<text text-anchor="start" x="110" y="-633.5" font-family="Helvetica,sans-Serif" font-size="10.00" fill="#000000">L4::Kobject_t&lt; Derived,</text>
<text text-anchor="middle" x="181" y="-622.5" font-family="Helvetica,sans-Serif" font-size="10.00" fill="#000000"> Base, PROTO, S_DEMAND &gt;</text>
<polyline fill="none" stroke="#000000" points="102,-615.5 260,-615.5 "/>
<text text-anchor="middle" x="181" y="-603.5" font-family="Helvetica,sans-Serif" font-size="10.00" fill="#000000"> </text>
<polyline fill="none" stroke="#000000" points="102,-596.5 260,-596.5 "/>
<text text-anchor="start" x="110" y="-584.5" font-family="Helvetica,sans-Serif" font-size="10.00" fill="#000000"># c()</text>
<text text-anchor="start" x="110" y="-573.5" font-family="Helvetica,sans-Serif" font-size="10.00" fill="#000000"># __check_protocols__()</text>
</a>
</g>
</g>
<!-- Node3&#45;&gt;Node1 -->
<g id="edge3" class="edge">
<title>Node3&#45;&gt;Node1</title>
<path fill="none" stroke="#ffa500" d="M158.7831,-556.9641C150.021,-537.625 140.0199,-515.551 131.4395,-496.6129"/>
<polygon fill="#ffa500" stroke="#ffa500" points="155.6582,-558.5481 162.9733,-566.2124 162.0343,-555.6593 155.6582,-558.5481"/>
<text text-anchor="start" x="154" y="-540" font-family="Helvetica,sans-Serif" font-size="10.00" fill="#000000"> &lt; Task, Kobject, L4</text>
<text text-anchor="start" x="154" y="-529" font-family="Helvetica,sans-Serif" font-size="10.00" fill="#000000">_PROTO_TASK, Type_info</text>
<text text-anchor="middle" x="219" y="-518" font-family="Helvetica,sans-Serif" font-size="10.00" fill="#000000">::Demand_t&lt; 2 &gt; &gt;</text>
</g>
<!-- Node5 -->
<g id="node6" class="node">
<title>Node5</title>
<g id="a_node6"><a xlink:href="classL4_1_1Vm.html" target="_top" xlink:title="Virtual machine host address space. ">
<polygon fill="#ffffff" stroke="#000000" points="69,-.5 69,-79.5 153,-79.5 153,-.5 69,-.5"/>
<text text-anchor="middle" x="111" y="-67.5" font-family="Helvetica,sans-Serif" font-size="10.00" fill="#000000">L4::Vm</text>
<polyline fill="none" stroke="#000000" points="69,-60.5 153,-60.5 "/>
<text text-anchor="middle" x="111" y="-48.5" font-family="Helvetica,sans-Serif" font-size="10.00" fill="#000000"> </text>
<polyline fill="none" stroke="#000000" points="69,-41.5 153,-41.5 "/>
<text text-anchor="start" x="77" y="-29.5" font-family="Helvetica,sans-Serif" font-size="10.00" fill="#000000">+ vgicc_map()</text>
<text text-anchor="start" x="77" y="-18.5" font-family="Helvetica,sans-Serif" font-size="10.00" fill="#000000"># Vm()</text>
<text text-anchor="start" x="77" y="-7.5" font-family="Helvetica,sans-Serif" font-size="10.00" fill="#000000"># Vm()</text>
</a>
</g>
</g>
<!-- Node4&#45;&gt;Node5 -->
<g id="edge5" class="edge">
<title>Node4&#45;&gt;Node5</title>
<path fill="none" stroke="#191970" d="M104.3161,-107.1578C104.1744,-97.9409 104.2605,-88.4308 104.5744,-79.5701"/>
<polygon fill="none" stroke="#191970" points="100.823,-107.4802 104.573,-117.3891 107.8208,-107.3044 100.823,-107.4802"/>
</g>
<!-- Node4&#45;&gt;Node5 -->
<g id="edge6" class="edge">
<title>Node4&#45;&gt;Node5</title>
<path fill="none" stroke="#191970" d="M117.6839,-107.1578C117.8256,-97.9409 117.7395,-88.4308 117.4256,-79.5701"/>
<polygon fill="none" stroke="#191970" points="114.1792,-107.3044 117.427,-117.3891 121.177,-107.4802 114.1792,-107.3044"/>
</g>
</g>
</svg>
