<?xml version="1.0" encoding="UTF-8" standalone="no"?>
<!DOCTYPE svg PUBLIC "-//W3C//DTD SVG 1.1//EN"
 "http://www.w3.org/Graphics/SVG/1.1/DTD/svg11.dtd">
<!-- Generated by graphviz version 2.40.1 (20161225.0304)
 -->
<!-- Title: L4Re::Namespace Pages: 1 -->
<svg width="316pt" height="387pt"
 viewBox="0.00 0.00 316.00 387.00" xmlns="http://www.w3.org/2000/svg" xmlns:xlink="http://www.w3.org/1999/xlink">
<g id="graph0" class="graph" transform="scale(1 1) rotate(0) translate(4 383)">
<title>L4Re::Namespace</title>
<polygon fill="#ffffff" stroke="transparent" points="-4,4 -4,-383 312,-383 312,4 -4,4"/>
<!-- Node4 -->
<g id="node1" class="node">
<title>Node4</title>
<polygon fill="#bfbfbf" stroke="#000000" points="59.5,-.5 59.5,-90.5 162.5,-90.5 162.5,-.5 59.5,-.5"/>
<text text-anchor="middle" x="111" y="-78.5" font-family="Helvetica,sans-Serif" font-size="10.00" fill="#000000">L4Re::Namespace</text>
<polyline fill="none" stroke="#000000" points="59.5,-71.5 162.5,-71.5 "/>
<text text-anchor="middle" x="111" y="-59.5" font-family="Helvetica,sans-Serif" font-size="10.00" fill="#000000"> </text>
<polyline fill="none" stroke="#000000" points="59.5,-52.5 162.5,-52.5 "/>
<text text-anchor="start" x="67.5" y="-40.5" font-family="Helvetica,sans-Serif" font-size="10.00" fill="#000000">+ query()</text>
<text text-anchor="start" x="67.5" y="-29.5" font-family="Helvetica,sans-Serif" font-size="10.00" fill="#000000">+ query()</text>
<text text-anchor="start" x="67.5" y="-18.5" font-family="Helvetica,sans-Serif" font-size="10.00" fill="#000000">+ register_obj()</text>
<text text-anchor="start" x="67.5" y="-7.5" font-family="Helvetica,sans-Serif" font-size="10.00" fill="#000000">+ unlink()</text>
</g>
<!-- Node5 -->
<g id="node2" class="node">
<title>Node5</title>
<g id="a_node2"><a xlink:href="classL4_1_1Kobject__t.html" target="_top" xlink:title="{L4::Kobject_t\&lt; Namespace,\l L4::Kobject, L4RE_PROTO\l_NAMESPACE, L4::Type_info\l::Demand_t\&lt; 1 \&gt; \&gt;\n||# c()\l# __check_protocols__()\l}">
<polygon fill="#ffffff" stroke="#000000" points="33,-128.5 33,-229.5 189,-229.5 189,-128.5 33,-128.5"/>
<text text-anchor="start" x="41" y="-217.5" font-family="Helvetica,sans-Serif" font-size="10.00" fill="#000000">L4::Kobject_t&lt; Namespace,</text>
<text text-anchor="start" x="41" y="-206.5" font-family="Helvetica,sans-Serif" font-size="10.00" fill="#000000"> L4::Kobject, L4RE_PROTO</text>
<text text-anchor="start" x="41" y="-195.5" font-family="Helvetica,sans-Serif" font-size="10.00" fill="#000000">_NAMESPACE, L4::Type_info</text>
<text text-anchor="middle" x="111" y="-184.5" font-family="Helvetica,sans-Serif" font-size="10.00" fill="#000000">::Demand_t&lt; 1 &gt; &gt;</text>
<polyline fill="none" stroke="#000000" points="33,-177.5 189,-177.5 "/>
<text text-anchor="middle" x="111" y="-165.5" font-family="Helvetica,sans-Serif" font-size="10.00" fill="#000000"> </text>
<polyline fill="none" stroke="#000000" points="33,-158.5 189,-158.5 "/>
<text text-anchor="start" x="41" y="-146.5" font-family="Helvetica,sans-Serif" font-size="10.00" fill="#000000"># c()</text>
<text text-anchor="start" x="41" y="-135.5" font-family="Helvetica,sans-Serif" font-size="10.00" fill="#000000"># __check_protocols__()</text>
</a>
</g>
</g>
<!-- Node5&#45;&gt;Node4 -->
<g id="edge1" class="edge">
<title>Node5&#45;&gt;Node4</title>
<path fill="none" stroke="#191970" d="M111,-117.8576C111,-108.6556 111,-99.3105 111,-90.5283"/>
<polygon fill="none" stroke="#191970" points="107.5001,-118.1485 111,-128.1485 114.5001,-118.1486 107.5001,-118.1485"/>
</g>
<!-- Node6 -->
<g id="node3" class="node">
<title>Node6</title>
<g id="a_node3"><a xlink:href="classL4_1_1Kobject.html" target="_top" xlink:title="Base class for all kinds of kernel objects and remote objects, referenced by capabilities. ">
<polygon fill="#ffffff" stroke="#000000" points="0,-305 0,-373 84,-373 84,-305 0,-305"/>
<text text-anchor="middle" x="42" y="-361" font-family="Helvetica,sans-Serif" font-size="10.00" fill="#000000">L4::Kobject</text>
<polyline fill="none" stroke="#000000" points="0,-354 84,-354 "/>
<text text-anchor="middle" x="42" y="-342" font-family="Helvetica,sans-Serif" font-size="10.00" fill="#000000"> </text>
<polyline fill="none" stroke="#000000" points="0,-335 84,-335 "/>
<text text-anchor="start" x="8" y="-323" font-family="Helvetica,sans-Serif" font-size="10.00" fill="#000000">+ dec_refcnt()</text>
<text text-anchor="start" x="8" y="-312" font-family="Helvetica,sans-Serif" font-size="10.00" fill="#000000"># cap()</text>
</a>
</g>
</g>
<!-- Node6&#45;&gt;Node5 -->
<g id="edge2" class="edge">
<title>Node6&#45;&gt;Node5</title>
<path fill="none" stroke="#191970" d="M60.8209,-295.3573C69.5759,-275.0558 80.042,-250.7866 89.145,-229.6782"/>
<polygon fill="none" stroke="#191970" points="57.5484,-294.1074 56.8022,-304.676 63.9761,-296.8795 57.5484,-294.1074"/>
</g>
<!-- Node7 -->
<g id="node4" class="node">
<title>Node7</title>
<g id="a_node4"><a xlink:href="classL4_1_1Kobject__t.html" target="_top" xlink:title="Helper class to create an L4Re interface class that is derived from a single base class...">
<polygon fill="#ffffff" stroke="#000000" points="102,-299.5 102,-378.5 260,-378.5 260,-299.5 102,-299.5"/>
<text text-anchor="start" x="110" y="-366.5" font-family="Helvetica,sans-Serif" font-size="10.00" fill="#000000">L4::Kobject_t&lt; Derived,</text>
<text text-anchor="middle" x="181" y="-355.5" font-family="Helvetica,sans-Serif" font-size="10.00" fill="#000000"> Base, PROTO, S_DEMAND &gt;</text>
<polyline fill="none" stroke="#000000" points="102,-348.5 260,-348.5 "/>
<text text-anchor="middle" x="181" y="-336.5" font-family="Helvetica,sans-Serif" font-size="10.00" fill="#000000"> </text>
<polyline fill="none" stroke="#000000" points="102,-329.5 260,-329.5 "/>
<text text-anchor="start" x="110" y="-317.5" font-family="Helvetica,sans-Serif" font-size="10.00" fill="#000000"># c()</text>
<text text-anchor="start" x="110" y="-306.5" font-family="Helvetica,sans-Serif" font-size="10.00" fill="#000000"># __check_protocols__()</text>
</a>
</g>
</g>
<!-- Node7&#45;&gt;Node5 -->
<g id="edge3" class="edge">
<title>Node7&#45;&gt;Node5</title>
<path fill="none" stroke="#ffa500" d="M159.6807,-290.2703C151.2741,-271.0551 141.6178,-248.9836 133.1334,-229.5907"/>
<polygon fill="#ffa500" stroke="#ffa500" points="156.4818,-291.6907 163.6966,-299.4494 162.8949,-288.885 156.4818,-291.6907"/>
<text text-anchor="start" x="154" y="-273" font-family="Helvetica,sans-Serif" font-size="10.00" fill="#000000"> &lt; Namespace, L4::Kobject,</text>
<text text-anchor="start" x="154" y="-262" font-family="Helvetica,sans-Serif" font-size="10.00" fill="#000000"> L4RE_PROTO_NAMESPACE,</text>
<text text-anchor="middle" x="231" y="-251" font-family="Helvetica,sans-Serif" font-size="10.00" fill="#000000"> L4::Type_info::Demand_t&lt; 1 &gt; &gt;</text>
</g>
</g>
</svg>
