<?xml version="1.0" encoding="UTF-8" standalone="no"?>
<!DOCTYPE svg PUBLIC "-//W3C//DTD SVG 1.1//EN"
 "http://www.w3.org/Graphics/SVG/1.1/DTD/svg11.dtd">
<!-- Generated by graphviz version 2.40.1 (20161225.0304)
 -->
<!-- Title: L4::Vcon::get_attr Pages: 1 -->
<svg width="249pt" height="66pt"
 viewBox="0.00 0.00 249.00 66.00" xmlns="http://www.w3.org/2000/svg" xmlns:xlink="http://www.w3.org/1999/xlink">
<g id="graph0" class="graph" transform="scale(1 1) rotate(0) translate(4 62)">
<title>L4::Vcon::get_attr</title>
<polygon fill="#ffffff" stroke="transparent" points="-4,4 -4,-62 245,-62 245,4 -4,4"/>
<!-- Node0 -->
<g id="node1" class="node">
<title>Node0</title>
<polygon fill="#bfbfbf" stroke="#000000" points="0,-19.5 0,-38.5 98,-38.5 98,-19.5 0,-19.5"/>
<text text-anchor="middle" x="49" y="-26.5" font-family="Helvetica,sans-Serif" font-size="10.00" fill="#000000">L4::Vcon::get_attr</text>
</g>
<!-- Node1 -->
<g id="node2" class="node">
<title>Node1</title>
<g id="a_node2"><a xlink:href="classL4_1_1Kobject.html#a4f2117ae76762f4084e6a1adb915863c" target="_top" xlink:title="Return capability selector. ">
<polygon fill="#ffffff" stroke="#000000" points="143,-38.5 143,-57.5 232,-57.5 232,-38.5 143,-38.5"/>
<text text-anchor="middle" x="187.5" y="-45.5" font-family="Helvetica,sans-Serif" font-size="10.00" fill="#000000">L4::Kobject::cap</text>
</a>
</g>
</g>
<!-- Node0&#45;&gt;Node1 -->
<g id="edge1" class="edge">
<title>Node0&#45;&gt;Node1</title>
<path fill="none" stroke="#191970" d="M98.2199,-35.7522C109.2922,-37.2711 121.112,-38.8926 132.407,-40.4421"/>
<polygon fill="#191970" stroke="#191970" points="132.2129,-43.9482 142.5958,-41.8399 133.1643,-37.0131 132.2129,-43.9482"/>
</g>
<!-- Node2 -->
<g id="node3" class="node">
<title>Node2</title>
<g id="a_node3"><a xlink:href="group__l4__vcon__api.html#gae9c105658ebcbc5d1a86e0672f0a5465" target="_top" xlink:title="Get attributes of this virtual console. ">
<polygon fill="#ffffff" stroke="#000000" points="134,-.5 134,-19.5 241,-19.5 241,-.5 134,-.5"/>
<text text-anchor="middle" x="187.5" y="-7.5" font-family="Helvetica,sans-Serif" font-size="10.00" fill="#000000">l4_vcon_get_attr_u</text>
</a>
</g>
</g>
<!-- Node0&#45;&gt;Node2 -->
<g id="edge2" class="edge">
<title>Node0&#45;&gt;Node2</title>
<path fill="none" stroke="#191970" d="M98.2199,-22.2478C106.4907,-21.1132 115.1787,-19.9213 123.7533,-18.745"/>
<polygon fill="#191970" stroke="#191970" points="124.304,-22.2024 133.7355,-17.3756 123.3525,-15.2673 124.304,-22.2024"/>
</g>
</g>
</svg>
