<?xml version="1.0" encoding="UTF-8" standalone="no"?>
<!DOCTYPE svg PUBLIC "-//W3C//DTD SVG 1.1//EN"
 "http://www.w3.org/Graphics/SVG/1.1/DTD/svg11.dtd">
<!-- Generated by graphviz version 2.40.1 (20161225.0304)
 -->
<!-- Title: L4virtio::Virtqueue::dump Pages: 1 -->
<svg width="369pt" height="39pt"
 viewBox="0.00 0.00 369.00 39.00" xmlns="http://www.w3.org/2000/svg" xmlns:xlink="http://www.w3.org/1999/xlink">
<g id="graph0" class="graph" transform="scale(1 1) rotate(0) translate(4 35)">
<title>L4virtio::Virtqueue::dump</title>
<polygon fill="#ffffff" stroke="transparent" points="-4,4 -4,-35 365,-35 365,4 -4,4"/>
<!-- Node14 -->
<g id="node1" class="node">
<title>Node14</title>
<polygon fill="#bfbfbf" stroke="#000000" points="0,-.5 0,-30.5 100,-30.5 100,-.5 0,-.5"/>
<text text-anchor="start" x="8" y="-18.5" font-family="Helvetica,sans-Serif" font-size="10.00" fill="#000000">L4virtio::Virtqueue</text>
<text text-anchor="middle" x="50" y="-7.5" font-family="Helvetica,sans-Serif" font-size="10.00" fill="#000000">::dump</text>
</g>
<!-- Node15 -->
<g id="node2" class="node">
<title>Node15</title>
<g id="a_node2"><a xlink:href="classL4virtio_1_1Virtqueue_1_1Desc.html#a71bbf562153b0bcdb7c38e572c2f85ec" target="_top" xlink:title="Dump a single descriptor. ">
<polygon fill="#ffffff" stroke="#000000" points="136,-.5 136,-30.5 236,-30.5 236,-.5 136,-.5"/>
<text text-anchor="start" x="144" y="-18.5" font-family="Helvetica,sans-Serif" font-size="10.00" fill="#000000">L4virtio::Virtqueue</text>
<text text-anchor="middle" x="186" y="-7.5" font-family="Helvetica,sans-Serif" font-size="10.00" fill="#000000">::Desc::dump</text>
</a>
</g>
</g>
<!-- Node14&#45;&gt;Node15 -->
<g id="edge1" class="edge">
<title>Node14&#45;&gt;Node15</title>
<path fill="none" stroke="#191970" d="M100.255,-15.5C108.5393,-15.5 117.2014,-15.5 125.701,-15.5"/>
<polygon fill="#191970" stroke="#191970" points="125.9516,-19.0001 135.9516,-15.5 125.9515,-12.0001 125.9516,-19.0001"/>
</g>
<!-- Node16 -->
<g id="node3" class="node">
<title>Node16</title>
<g id="a_node3"><a xlink:href="classL4virtio_1_1Ptr.html#a8e39f7c9cd370812ebb4610b096c44b6" target="_top" xlink:title="L4virtio::Ptr::get">
<polygon fill="#ffffff" stroke="#000000" points="272,-6 272,-25 361,-25 361,-6 272,-6"/>
<text text-anchor="middle" x="316.5" y="-13" font-family="Helvetica,sans-Serif" font-size="10.00" fill="#000000">L4virtio::Ptr::get</text>
</a>
</g>
</g>
<!-- Node15&#45;&gt;Node16 -->
<g id="edge2" class="edge">
<title>Node15&#45;&gt;Node16</title>
<path fill="none" stroke="#191970" d="M236.0815,-15.5C244.462,-15.5 253.196,-15.5 261.6879,-15.5"/>
<polygon fill="#191970" stroke="#191970" points="261.8859,-19.0001 271.8859,-15.5 261.8859,-12.0001 261.8859,-19.0001"/>
</g>
</g>
</svg>
