<?xml version="1.0" encoding="UTF-8" standalone="no"?>
<!DOCTYPE svg PUBLIC "-//W3C//DTD SVG 1.1//EN"
 "http://www.w3.org/Graphics/SVG/1.1/DTD/svg11.dtd">
<!-- Generated by graphviz version 2.40.1 (20161225.0304)
 -->
<!-- Title: L4Re::Util::Counting_cap_alloc::free Pages: 1 -->
<svg width="281pt" height="88pt"
 viewBox="0.00 0.00 281.00 88.00" xmlns="http://www.w3.org/2000/svg" xmlns:xlink="http://www.w3.org/1999/xlink">
<g id="graph0" class="graph" transform="scale(1 1) rotate(0) translate(4 84)">
<title>L4Re::Util::Counting_cap_alloc::free</title>
<polygon fill="#ffffff" stroke="transparent" points="-4,4 -4,-84 277,-84 277,4 -4,4"/>
<!-- Node15 -->
<g id="node1" class="node">
<title>Node15</title>
<polygon fill="#bfbfbf" stroke="#000000" points="0,-24.5 0,-54.5 108,-54.5 108,-24.5 0,-24.5"/>
<text text-anchor="start" x="8" y="-42.5" font-family="Helvetica,sans-Serif" font-size="10.00" fill="#000000">L4Re::Util::Counting</text>
<text text-anchor="middle" x="54" y="-31.5" font-family="Helvetica,sans-Serif" font-size="10.00" fill="#000000">_cap_alloc::free</text>
</g>
<!-- Node16 -->
<g id="node2" class="node">
<title>Node16</title>
<g id="a_node2"><a xlink:href="classL4Re_1_1Util_1_1Br__manager.html#a9a58e2029692a47257671d53c6bca492" target="_top" xlink:title="Make a buffer&#45;register (BR) manager. ">
<polygon fill="#ffffff" stroke="#000000" points="146,-49.5 146,-79.5 271,-79.5 271,-49.5 146,-49.5"/>
<text text-anchor="start" x="154" y="-67.5" font-family="Helvetica,sans-Serif" font-size="10.00" fill="#000000">L4Re::Util::Br_manager</text>
<text text-anchor="middle" x="208.5" y="-56.5" font-family="Helvetica,sans-Serif" font-size="10.00" fill="#000000">::Br_manager</text>
</a>
</g>
</g>
<!-- Node15&#45;&gt;Node16 -->
<g id="edge1" class="edge">
<title>Node15&#45;&gt;Node16</title>
<path fill="none" stroke="#191970" d="M118.1924,-49.8871C127.3065,-51.3619 136.6703,-52.8771 145.7564,-54.3473"/>
<polygon fill="#191970" stroke="#191970" points="118.4673,-46.3862 108.0366,-48.2438 117.3491,-53.2963 118.4673,-46.3862"/>
</g>
<!-- Node17 -->
<g id="node3" class="node">
<title>Node17</title>
<g id="a_node3"><a xlink:href="classL4Re_1_1Util_1_1Object__registry.html#aeeea59583ffddfef4e7c1c3e6eed41b6" target="_top" xlink:title="Remove a server object from the handler list. ">
<polygon fill="#ffffff" stroke="#000000" points="144,-.5 144,-30.5 273,-30.5 273,-.5 144,-.5"/>
<text text-anchor="start" x="152" y="-18.5" font-family="Helvetica,sans-Serif" font-size="10.00" fill="#000000">L4Re::Util::Object</text>
<text text-anchor="middle" x="208.5" y="-7.5" font-family="Helvetica,sans-Serif" font-size="10.00" fill="#000000">_registry::unregister_obj</text>
</a>
</g>
</g>
<!-- Node15&#45;&gt;Node17 -->
<g id="edge2" class="edge">
<title>Node15&#45;&gt;Node17</title>
<path fill="none" stroke="#191970" d="M117.9573,-29.5649C126.5185,-28.235 135.3043,-26.8702 143.8768,-25.5386"/>
<polygon fill="#191970" stroke="#191970" points="117.3808,-26.1124 108.0366,-31.106 118.4554,-33.0294 117.3808,-26.1124"/>
</g>
</g>
</svg>
