<?xml version="1.0" encoding="UTF-8" standalone="no"?>
<!DOCTYPE svg PUBLIC "-//W3C//DTD SVG 1.1//EN"
 "http://www.w3.org/Graphics/SVG/1.1/DTD/svg11.dtd">
<!-- Generated by graphviz version 2.40.1 (20161225.0304)
 -->
<!-- Title: L4::Irq_eoi Pages: 1 -->
<svg width="1308pt" height="982pt"
 viewBox="0.00 0.00 1307.50 982.00" xmlns="http://www.w3.org/2000/svg" xmlns:xlink="http://www.w3.org/1999/xlink">
<g id="graph0" class="graph" transform="scale(1 1) rotate(0) translate(4 978)">
<title>L4::Irq_eoi</title>
<polygon fill="#ffffff" stroke="transparent" points="-4,4 -4,-978 1303.5,-978 1303.5,4 -4,4"/>
<!-- Node0 -->
<g id="node1" class="node">
<title>Node0</title>
<polygon fill="#bfbfbf" stroke="#000000" points="663,-916.5 663,-973.5 733,-973.5 733,-916.5 663,-916.5"/>
<text text-anchor="middle" x="698" y="-961.5" font-family="Helvetica,sans-Serif" font-size="10.00" fill="#000000">L4::Irq_eoi</text>
<polyline fill="none" stroke="#000000" points="663,-954.5 733,-954.5 "/>
<text text-anchor="middle" x="698" y="-942.5" font-family="Helvetica,sans-Serif" font-size="10.00" fill="#000000"> </text>
<polyline fill="none" stroke="#000000" points="663,-935.5 733,-935.5 "/>
<text text-anchor="start" x="671" y="-923.5" font-family="Helvetica,sans-Serif" font-size="10.00" fill="#000000">+ unmask()</text>
</g>
<!-- Node1 -->
<g id="node2" class="node">
<title>Node1</title>
<g id="a_node2"><a xlink:href="classL4_1_1Kobject__t.html" target="_top" xlink:title="{L4::Kobject_t\&lt; Icu,\l Irq_eoi, L4_PROTO_IRQ,\l Type_info::Demand_t\&lt; 1 \&gt; \&gt;\n||# c()\l# __check_protocols__()\l}">
<polygon fill="#ffffff" stroke="#000000" points="537.5,-789.5 537.5,-879.5 690.5,-879.5 690.5,-789.5 537.5,-789.5"/>
<text text-anchor="start" x="545.5" y="-867.5" font-family="Helvetica,sans-Serif" font-size="10.00" fill="#000000">L4::Kobject_t&lt; Icu,</text>
<text text-anchor="start" x="545.5" y="-856.5" font-family="Helvetica,sans-Serif" font-size="10.00" fill="#000000"> Irq_eoi, L4_PROTO_IRQ,</text>
<text text-anchor="middle" x="614" y="-845.5" font-family="Helvetica,sans-Serif" font-size="10.00" fill="#000000"> Type_info::Demand_t&lt; 1 &gt; &gt;</text>
<polyline fill="none" stroke="#000000" points="537.5,-838.5 690.5,-838.5 "/>
<text text-anchor="middle" x="614" y="-826.5" font-family="Helvetica,sans-Serif" font-size="10.00" fill="#000000"> </text>
<polyline fill="none" stroke="#000000" points="537.5,-819.5 690.5,-819.5 "/>
<text text-anchor="start" x="545.5" y="-807.5" font-family="Helvetica,sans-Serif" font-size="10.00" fill="#000000"># c()</text>
<text text-anchor="start" x="545.5" y="-796.5" font-family="Helvetica,sans-Serif" font-size="10.00" fill="#000000"># __check_protocols__()</text>
</a>
</g>
</g>
<!-- Node0&#45;&gt;Node1 -->
<g id="edge1" class="edge">
<title>Node0&#45;&gt;Node1</title>
<path fill="none" stroke="#191970" d="M669.9916,-908.1557C663.0849,-899.07 655.6082,-889.2346 648.4359,-879.7995"/>
<polygon fill="none" stroke="#191970" points="667.3112,-910.4131 676.1493,-916.2559 672.8838,-906.1768 667.3112,-910.4131"/>
</g>
<!-- Node17 -->
<g id="node18" class="node">
<title>Node17</title>
<g id="a_node18"><a xlink:href="classL4_1_1Kobject__t.html" target="_top" xlink:title="{L4::Kobject_t\&lt; Triggerable,\l Irq_eoi, L4_PROTO_IRQ \&gt;\n||# c()\l# __check_protocols__()\l}">
<polygon fill="#ffffff" stroke="#000000" points="874.5,-795 874.5,-874 1021.5,-874 1021.5,-795 874.5,-795"/>
<text text-anchor="start" x="882.5" y="-862" font-family="Helvetica,sans-Serif" font-size="10.00" fill="#000000">L4::Kobject_t&lt; Triggerable,</text>
<text text-anchor="middle" x="948" y="-851" font-family="Helvetica,sans-Serif" font-size="10.00" fill="#000000"> Irq_eoi, L4_PROTO_IRQ &gt;</text>
<polyline fill="none" stroke="#000000" points="874.5,-844 1021.5,-844 "/>
<text text-anchor="middle" x="948" y="-832" font-family="Helvetica,sans-Serif" font-size="10.00" fill="#000000"> </text>
<polyline fill="none" stroke="#000000" points="874.5,-825 1021.5,-825 "/>
<text text-anchor="start" x="882.5" y="-813" font-family="Helvetica,sans-Serif" font-size="10.00" fill="#000000"># c()</text>
<text text-anchor="start" x="882.5" y="-802" font-family="Helvetica,sans-Serif" font-size="10.00" fill="#000000"># __check_protocols__()</text>
</a>
</g>
</g>
<!-- Node0&#45;&gt;Node17 -->
<g id="edge17" class="edge">
<title>Node0&#45;&gt;Node17</title>
<path fill="none" stroke="#191970" d="M742.4241,-925.3645C778.9864,-909.204 831.5771,-885.9589 874.4127,-867.0256"/>
<polygon fill="none" stroke="#191970" points="740.7561,-922.2751 733.0247,-929.5191 743.586,-928.6776 740.7561,-922.2751"/>
</g>
<!-- Node2 -->
<g id="node3" class="node">
<title>Node2</title>
<g id="a_node3"><a xlink:href="classL4_1_1Icu.html" target="_top" xlink:title="C++ Icu interface. ">
<polygon fill="#ffffff" stroke="#000000" points="450,-629.5 450,-752.5 530,-752.5 530,-629.5 450,-629.5"/>
<text text-anchor="middle" x="490" y="-740.5" font-family="Helvetica,sans-Serif" font-size="10.00" fill="#000000">L4::Icu</text>
<polyline fill="none" stroke="#000000" points="450,-733.5 530,-733.5 "/>
<text text-anchor="middle" x="490" y="-721.5" font-family="Helvetica,sans-Serif" font-size="10.00" fill="#000000"> </text>
<polyline fill="none" stroke="#000000" points="450,-714.5 530,-714.5 "/>
<text text-anchor="start" x="458" y="-702.5" font-family="Helvetica,sans-Serif" font-size="10.00" fill="#000000">+ bind()</text>
<text text-anchor="start" x="458" y="-691.5" font-family="Helvetica,sans-Serif" font-size="10.00" fill="#000000">+ unbind()</text>
<text text-anchor="start" x="458" y="-680.5" font-family="Helvetica,sans-Serif" font-size="10.00" fill="#000000">+ info()</text>
<text text-anchor="start" x="458" y="-669.5" font-family="Helvetica,sans-Serif" font-size="10.00" fill="#000000">+ msi_info()</text>
<text text-anchor="start" x="458" y="-658.5" font-family="Helvetica,sans-Serif" font-size="10.00" fill="#000000">+ control()</text>
<text text-anchor="start" x="458" y="-647.5" font-family="Helvetica,sans-Serif" font-size="10.00" fill="#000000">+ mask()</text>
<text text-anchor="start" x="458" y="-636.5" font-family="Helvetica,sans-Serif" font-size="10.00" fill="#000000">+ set_mode()</text>
</a>
</g>
</g>
<!-- Node1&#45;&gt;Node2 -->
<g id="edge2" class="edge">
<title>Node1&#45;&gt;Node2</title>
<path fill="none" stroke="#191970" d="M568.2538,-781.5599C555.7178,-767.0524 542.2279,-751.4411 530.0385,-737.3349"/>
<polygon fill="none" stroke="#191970" points="565.9193,-784.2114 575.1058,-789.4894 571.2158,-779.6345 565.9193,-784.2114"/>
</g>
<!-- Node3 -->
<g id="node4" class="node">
<title>Node3</title>
<g id="a_node4"><a xlink:href="classL4_1_1Kobject__t.html" target="_top" xlink:title="{L4::Kobject_t\&lt; Device,\l L4::Icu, L4VIRTIO_PROTOCOL,\l L4::Type_info::Demand_t\&lt; 1 \&gt; \&gt;\n||# c()\l# __check_protocols__()\l}">
<polygon fill="#ffffff" stroke="#000000" points="0,-486 0,-576 170,-576 170,-486 0,-486"/>
<text text-anchor="start" x="8" y="-564" font-family="Helvetica,sans-Serif" font-size="10.00" fill="#000000">L4::Kobject_t&lt; Device,</text>
<text text-anchor="start" x="8" y="-553" font-family="Helvetica,sans-Serif" font-size="10.00" fill="#000000"> L4::Icu, L4VIRTIO_PROTOCOL,</text>
<text text-anchor="middle" x="85" y="-542" font-family="Helvetica,sans-Serif" font-size="10.00" fill="#000000"> L4::Type_info::Demand_t&lt; 1 &gt; &gt;</text>
<polyline fill="none" stroke="#000000" points="0,-535 170,-535 "/>
<text text-anchor="middle" x="85" y="-523" font-family="Helvetica,sans-Serif" font-size="10.00" fill="#000000"> </text>
<polyline fill="none" stroke="#000000" points="0,-516 170,-516 "/>
<text text-anchor="start" x="8" y="-504" font-family="Helvetica,sans-Serif" font-size="10.00" fill="#000000"># c()</text>
<text text-anchor="start" x="8" y="-493" font-family="Helvetica,sans-Serif" font-size="10.00" fill="#000000"># __check_protocols__()</text>
</a>
</g>
</g>
<!-- Node2&#45;&gt;Node3 -->
<g id="edge3" class="edge">
<title>Node2&#45;&gt;Node3</title>
<path fill="none" stroke="#191970" d="M439.8419,-679.7661C376.9977,-664.6719 266.8852,-634.8232 179,-593 168.7615,-588.1276 158.3372,-582.2806 148.3369,-576.1506"/>
<polygon fill="none" stroke="#191970" points="439.3482,-683.2461 449.8861,-682.1493 440.9643,-676.4352 439.3482,-683.2461"/>
</g>
<!-- Node5 -->
<g id="node6" class="node">
<title>Node5</title>
<g id="a_node6"><a xlink:href="classL4_1_1Kobject__t.html" target="_top" xlink:title="{L4::Kobject_t\&lt; Event,\l L4::Icu, L4RE_PROTO\l_EVENT \&gt;\n||# c()\l# __check_protocols__()\l}">
<polygon fill="#ffffff" stroke="#000000" points="188,-486 188,-576 322,-576 322,-486 188,-486"/>
<text text-anchor="start" x="196" y="-564" font-family="Helvetica,sans-Serif" font-size="10.00" fill="#000000">L4::Kobject_t&lt; Event,</text>
<text text-anchor="start" x="196" y="-553" font-family="Helvetica,sans-Serif" font-size="10.00" fill="#000000"> L4::Icu, L4RE_PROTO</text>
<text text-anchor="middle" x="255" y="-542" font-family="Helvetica,sans-Serif" font-size="10.00" fill="#000000">_EVENT &gt;</text>
<polyline fill="none" stroke="#000000" points="188,-535 322,-535 "/>
<text text-anchor="middle" x="255" y="-523" font-family="Helvetica,sans-Serif" font-size="10.00" fill="#000000"> </text>
<polyline fill="none" stroke="#000000" points="188,-516 322,-516 "/>
<text text-anchor="start" x="196" y="-504" font-family="Helvetica,sans-Serif" font-size="10.00" fill="#000000"># c()</text>
<text text-anchor="start" x="196" y="-493" font-family="Helvetica,sans-Serif" font-size="10.00" fill="#000000"># __check_protocols__()</text>
</a>
</g>
</g>
<!-- Node2&#45;&gt;Node5 -->
<g id="edge5" class="edge">
<title>Node2&#45;&gt;Node5</title>
<path fill="none" stroke="#191970" d="M441.1215,-663.1397C409.1124,-644.3484 366.7447,-618.4283 331,-593 323.6461,-587.7685 316.0796,-582.0458 308.7039,-576.2594"/>
<polygon fill="none" stroke="#191970" points="439.4607,-666.2229 449.8609,-668.2444 442.9913,-660.1785 439.4607,-666.2229"/>
</g>
<!-- Node9 -->
<g id="node10" class="node">
<title>Node9</title>
<g id="a_node10"><a xlink:href="classL4_1_1Kobject__t.html" target="_top" xlink:title="{L4::Kobject_t\&lt; Random,\l L4::Icu \&gt;\n||# c()\l# __check_protocols__()\l}">
<polygon fill="#ffffff" stroke="#000000" points="340,-491.5 340,-570.5 474,-570.5 474,-491.5 340,-491.5"/>
<text text-anchor="start" x="348" y="-558.5" font-family="Helvetica,sans-Serif" font-size="10.00" fill="#000000">L4::Kobject_t&lt; Random,</text>
<text text-anchor="middle" x="407" y="-547.5" font-family="Helvetica,sans-Serif" font-size="10.00" fill="#000000"> L4::Icu &gt;</text>
<polyline fill="none" stroke="#000000" points="340,-540.5 474,-540.5 "/>
<text text-anchor="middle" x="407" y="-528.5" font-family="Helvetica,sans-Serif" font-size="10.00" fill="#000000"> </text>
<polyline fill="none" stroke="#000000" points="340,-521.5 474,-521.5 "/>
<text text-anchor="start" x="348" y="-509.5" font-family="Helvetica,sans-Serif" font-size="10.00" fill="#000000"># c()</text>
<text text-anchor="start" x="348" y="-498.5" font-family="Helvetica,sans-Serif" font-size="10.00" fill="#000000"># __check_protocols__()</text>
</a>
</g>
</g>
<!-- Node2&#45;&gt;Node9 -->
<g id="edge9" class="edge">
<title>Node2&#45;&gt;Node9</title>
<path fill="none" stroke="#191970" d="M453.0715,-619.8125C444.2927,-602.8895 435.2377,-585.4341 427.5035,-570.5249"/>
<polygon fill="none" stroke="#191970" points="450.1983,-621.8748 457.91,-629.1398 456.412,-618.6514 450.1983,-621.8748"/>
</g>
<!-- Node11 -->
<g id="node12" class="node">
<title>Node11</title>
<g id="a_node12"><a xlink:href="classL4_1_1Kobject__t.html" target="_top" xlink:title="{L4::Kobject_t\&lt; Scheduler,\l Icu, L4_PROTO_SCHEDULER,\l Type_info::Demand_t\&lt; 1 \&gt; \&gt;\n||# c()\l# __check_protocols__()\l}">
<polygon fill="#ffffff" stroke="#000000" points="492,-486 492,-576 658,-576 658,-486 492,-486"/>
<text text-anchor="start" x="500" y="-564" font-family="Helvetica,sans-Serif" font-size="10.00" fill="#000000">L4::Kobject_t&lt; Scheduler,</text>
<text text-anchor="start" x="500" y="-553" font-family="Helvetica,sans-Serif" font-size="10.00" fill="#000000"> Icu, L4_PROTO_SCHEDULER,</text>
<text text-anchor="middle" x="575" y="-542" font-family="Helvetica,sans-Serif" font-size="10.00" fill="#000000"> Type_info::Demand_t&lt; 1 &gt; &gt;</text>
<polyline fill="none" stroke="#000000" points="492,-535 658,-535 "/>
<text text-anchor="middle" x="575" y="-523" font-family="Helvetica,sans-Serif" font-size="10.00" fill="#000000"> </text>
<polyline fill="none" stroke="#000000" points="492,-516 658,-516 "/>
<text text-anchor="start" x="500" y="-504" font-family="Helvetica,sans-Serif" font-size="10.00" fill="#000000"># c()</text>
<text text-anchor="start" x="500" y="-493" font-family="Helvetica,sans-Serif" font-size="10.00" fill="#000000"># __check_protocols__()</text>
</a>
</g>
</g>
<!-- Node2&#45;&gt;Node11 -->
<g id="edge11" class="edge">
<title>Node2&#45;&gt;Node11</title>
<path fill="none" stroke="#191970" d="M527.7292,-619.9804C535.606,-605.1535 543.7041,-589.9099 550.923,-576.3214"/>
<polygon fill="none" stroke="#191970" points="524.4639,-618.6666 522.8632,-629.1398 530.6457,-621.9507 524.4639,-618.6666"/>
</g>
<!-- Node13 -->
<g id="node14" class="node">
<title>Node13</title>
<g id="a_node14"><a xlink:href="classL4_1_1Kobject__t.html" target="_top" xlink:title="{L4::Kobject_t\&lt; Vcon,\l Icu, L4_PROTO_LOG \&gt;\n||# c()\l# __check_protocols__()\l}">
<polygon fill="#ffffff" stroke="#000000" points="676,-491.5 676,-570.5 810,-570.5 810,-491.5 676,-491.5"/>
<text text-anchor="start" x="684" y="-558.5" font-family="Helvetica,sans-Serif" font-size="10.00" fill="#000000">L4::Kobject_t&lt; Vcon,</text>
<text text-anchor="middle" x="743" y="-547.5" font-family="Helvetica,sans-Serif" font-size="10.00" fill="#000000"> Icu, L4_PROTO_LOG &gt;</text>
<polyline fill="none" stroke="#000000" points="676,-540.5 810,-540.5 "/>
<text text-anchor="middle" x="743" y="-528.5" font-family="Helvetica,sans-Serif" font-size="10.00" fill="#000000"> </text>
<polyline fill="none" stroke="#000000" points="676,-521.5 810,-521.5 "/>
<text text-anchor="start" x="684" y="-509.5" font-family="Helvetica,sans-Serif" font-size="10.00" fill="#000000"># c()</text>
<text text-anchor="start" x="684" y="-498.5" font-family="Helvetica,sans-Serif" font-size="10.00" fill="#000000"># __check_protocols__()</text>
</a>
</g>
</g>
<!-- Node2&#45;&gt;Node13 -->
<g id="edge13" class="edge">
<title>Node2&#45;&gt;Node13</title>
<path fill="none" stroke="#191970" d="M539.1357,-666.8066C575.4501,-648.2145 625.5686,-621.0403 667,-593 677.0124,-586.2237 687.3169,-578.4372 696.9814,-570.7219"/>
<polygon fill="none" stroke="#191970" points="537.5412,-663.6908 530.2144,-671.3438 540.7145,-669.9303 537.5412,-663.6908"/>
</g>
<!-- Node4 -->
<g id="node5" class="node">
<title>Node4</title>
<g id="a_node5"><a xlink:href="classL4virtio_1_1Device.html" target="_top" xlink:title="IPC interface for virtio over L4 IPC. ">
<polygon fill="#ffffff" stroke="#000000" points="15,-320.5 15,-432.5 155,-432.5 155,-320.5 15,-320.5"/>
<text text-anchor="middle" x="85" y="-420.5" font-family="Helvetica,sans-Serif" font-size="10.00" fill="#000000">L4virtio::Device</text>
<polyline fill="none" stroke="#000000" points="15,-413.5 155,-413.5 "/>
<text text-anchor="middle" x="85" y="-401.5" font-family="Helvetica,sans-Serif" font-size="10.00" fill="#000000"> </text>
<polyline fill="none" stroke="#000000" points="15,-394.5 155,-394.5 "/>
<text text-anchor="start" x="23" y="-382.5" font-family="Helvetica,sans-Serif" font-size="10.00" fill="#000000">+ set_status()</text>
<text text-anchor="start" x="23" y="-371.5" font-family="Helvetica,sans-Serif" font-size="10.00" fill="#000000">+ config_queue()</text>
<text text-anchor="start" x="23" y="-360.5" font-family="Helvetica,sans-Serif" font-size="10.00" fill="#000000">+ register_ds()</text>
<text text-anchor="start" x="23" y="-349.5" font-family="Helvetica,sans-Serif" font-size="10.00" fill="#000000">+ register_iface()</text>
<text text-anchor="start" x="23" y="-338.5" font-family="Helvetica,sans-Serif" font-size="10.00" fill="#000000">+ device_config()</text>
<text text-anchor="start" x="23" y="-327.5" font-family="Helvetica,sans-Serif" font-size="10.00" fill="#000000">+ device_notification_irq()</text>
</a>
</g>
</g>
<!-- Node3&#45;&gt;Node4 -->
<g id="edge4" class="edge">
<title>Node3&#45;&gt;Node4</title>
<path fill="none" stroke="#191970" d="M85,-475.8897C85,-461.8469 85,-446.738 85,-432.6442"/>
<polygon fill="none" stroke="#191970" points="81.5001,-475.8968 85,-485.8969 88.5001,-475.8969 81.5001,-475.8968"/>
</g>
<!-- Node6 -->
<g id="node7" class="node">
<title>Node6</title>
<g id="a_node7"><a xlink:href="classL4Re_1_1Event.html" target="_top" xlink:title="Event class. ">
<polygon fill="#ffffff" stroke="#000000" points="180.5,-320.5 180.5,-432.5 329.5,-432.5 329.5,-320.5 180.5,-320.5"/>
<text text-anchor="middle" x="255" y="-420.5" font-family="Helvetica,sans-Serif" font-size="10.00" fill="#000000">L4Re::Event</text>
<polyline fill="none" stroke="#000000" points="180.5,-413.5 329.5,-413.5 "/>
<text text-anchor="middle" x="255" y="-401.5" font-family="Helvetica,sans-Serif" font-size="10.00" fill="#000000"> </text>
<polyline fill="none" stroke="#000000" points="180.5,-394.5 329.5,-394.5 "/>
<text text-anchor="start" x="188.5" y="-382.5" font-family="Helvetica,sans-Serif" font-size="10.00" fill="#000000">+ get_buffer()</text>
<text text-anchor="start" x="188.5" y="-371.5" font-family="Helvetica,sans-Serif" font-size="10.00" fill="#000000">+ get_num_streams()</text>
<text text-anchor="start" x="188.5" y="-360.5" font-family="Helvetica,sans-Serif" font-size="10.00" fill="#000000">+ get_stream_info()</text>
<text text-anchor="start" x="188.5" y="-349.5" font-family="Helvetica,sans-Serif" font-size="10.00" fill="#000000">+ get_stream_info_for_id()</text>
<text text-anchor="start" x="188.5" y="-338.5" font-family="Helvetica,sans-Serif" font-size="10.00" fill="#000000">+ get_axis_info()</text>
<text text-anchor="start" x="188.5" y="-327.5" font-family="Helvetica,sans-Serif" font-size="10.00" fill="#000000">+ get_stream_state_for_id()</text>
</a>
</g>
</g>
<!-- Node5&#45;&gt;Node6 -->
<g id="edge6" class="edge">
<title>Node5&#45;&gt;Node6</title>
<path fill="none" stroke="#191970" d="M255,-475.8897C255,-461.8469 255,-446.738 255,-432.6442"/>
<polygon fill="none" stroke="#191970" points="251.5001,-475.8968 255,-485.8969 258.5001,-475.8969 251.5001,-475.8968"/>
</g>
<!-- Node7 -->
<g id="node8" class="node">
<title>Node7</title>
<g id="a_node8"><a xlink:href="structL4_1_1Kobject__3t.html" target="_top" xlink:title="{L4::Kobject_3t\&lt; Vbus,\l L4Re::Dataspace, L4Re\l::Inhibitor, L4Re::Event \&gt;\n||+ operator Kobject const &amp;()\l+ dec_refcnt()\l# cap()\l# c()\l# __check_protocols__()\l}">
<polygon fill="#ffffff" stroke="#000000" points="179.5,-160.5 179.5,-283.5 330.5,-283.5 330.5,-160.5 179.5,-160.5"/>
<text text-anchor="start" x="187.5" y="-271.5" font-family="Helvetica,sans-Serif" font-size="10.00" fill="#000000">L4::Kobject_3t&lt; Vbus,</text>
<text text-anchor="start" x="187.5" y="-260.5" font-family="Helvetica,sans-Serif" font-size="10.00" fill="#000000"> L4Re::Dataspace, L4Re</text>
<text text-anchor="middle" x="255" y="-249.5" font-family="Helvetica,sans-Serif" font-size="10.00" fill="#000000">::Inhibitor, L4Re::Event &gt;</text>
<polyline fill="none" stroke="#000000" points="179.5,-242.5 330.5,-242.5 "/>
<text text-anchor="middle" x="255" y="-230.5" font-family="Helvetica,sans-Serif" font-size="10.00" fill="#000000"> </text>
<polyline fill="none" stroke="#000000" points="179.5,-223.5 330.5,-223.5 "/>
<text text-anchor="start" x="187.5" y="-211.5" font-family="Helvetica,sans-Serif" font-size="10.00" fill="#000000">+ operator Kobject const &amp;()</text>
<text text-anchor="start" x="187.5" y="-200.5" font-family="Helvetica,sans-Serif" font-size="10.00" fill="#000000">+ dec_refcnt()</text>
<text text-anchor="start" x="187.5" y="-189.5" font-family="Helvetica,sans-Serif" font-size="10.00" fill="#000000"># cap()</text>
<text text-anchor="start" x="187.5" y="-178.5" font-family="Helvetica,sans-Serif" font-size="10.00" fill="#000000"># c()</text>
<text text-anchor="start" x="187.5" y="-167.5" font-family="Helvetica,sans-Serif" font-size="10.00" fill="#000000"># __check_protocols__()</text>
</a>
</g>
</g>
<!-- Node6&#45;&gt;Node7 -->
<g id="edge7" class="edge">
<title>Node6&#45;&gt;Node7</title>
<path fill="none" stroke="#191970" d="M255,-310.0953C255,-301.3169 255,-292.3479 255,-283.6539"/>
<polygon fill="none" stroke="#191970" points="251.5001,-310.2849 255,-320.2849 258.5001,-310.2849 251.5001,-310.2849"/>
</g>
<!-- Node8 -->
<g id="node9" class="node">
<title>Node8</title>
<g id="a_node9"><a xlink:href="classL4vbus_1_1Vbus.html" target="_top" xlink:title="The virtual bus (Vbus) interface. ">
<polygon fill="#ffffff" stroke="#000000" points="189.5,-.5 189.5,-123.5 320.5,-123.5 320.5,-.5 189.5,-.5"/>
<text text-anchor="middle" x="255" y="-111.5" font-family="Helvetica,sans-Serif" font-size="10.00" fill="#000000">L4vbus::Vbus</text>
<polyline fill="none" stroke="#000000" points="189.5,-104.5 320.5,-104.5 "/>
<text text-anchor="middle" x="255" y="-92.5" font-family="Helvetica,sans-Serif" font-size="10.00" fill="#000000"> </text>
<polyline fill="none" stroke="#000000" points="189.5,-85.5 320.5,-85.5 "/>
<text text-anchor="start" x="197.5" y="-73.5" font-family="Helvetica,sans-Serif" font-size="10.00" fill="#000000">+ request_ioport()</text>
<text text-anchor="start" x="197.5" y="-62.5" font-family="Helvetica,sans-Serif" font-size="10.00" fill="#000000">+ request_resource()</text>
<text text-anchor="start" x="197.5" y="-51.5" font-family="Helvetica,sans-Serif" font-size="10.00" fill="#000000">+ release_ioport()</text>
<text text-anchor="start" x="197.5" y="-40.5" font-family="Helvetica,sans-Serif" font-size="10.00" fill="#000000">+ release_resource()</text>
<text text-anchor="start" x="197.5" y="-29.5" font-family="Helvetica,sans-Serif" font-size="10.00" fill="#000000">+ root()</text>
<text text-anchor="start" x="197.5" y="-18.5" font-family="Helvetica,sans-Serif" font-size="10.00" fill="#000000">+ assign_dma_domain()</text>
<text text-anchor="start" x="197.5" y="-7.5" font-family="Helvetica,sans-Serif" font-size="10.00" fill="#000000">+ assign_dma_domain()</text>
</a>
</g>
</g>
<!-- Node7&#45;&gt;Node8 -->
<g id="edge8" class="edge">
<title>Node7&#45;&gt;Node8</title>
<path fill="none" stroke="#191970" d="M255,-149.939C255,-141.1775 255,-132.2878 255,-123.6957"/>
<polygon fill="none" stroke="#191970" points="251.5001,-150.1398 255,-160.1398 258.5001,-150.1399 251.5001,-150.1398"/>
</g>
<!-- Node10 -->
<g id="node11" class="node">
<title>Node10</title>
<g id="a_node11"><a xlink:href="structL4Re_1_1Random.html" target="_top" xlink:title="Low&#45;bandwidth interface for random number generators. ">
<polygon fill="#ffffff" stroke="#000000" points="361.5,-348 361.5,-405 452.5,-405 452.5,-348 361.5,-348"/>
<text text-anchor="middle" x="407" y="-393" font-family="Helvetica,sans-Serif" font-size="10.00" fill="#000000">L4Re::Random</text>
<polyline fill="none" stroke="#000000" points="361.5,-386 452.5,-386 "/>
<text text-anchor="middle" x="407" y="-374" font-family="Helvetica,sans-Serif" font-size="10.00" fill="#000000"> </text>
<polyline fill="none" stroke="#000000" points="361.5,-367 452.5,-367 "/>
<text text-anchor="start" x="369.5" y="-355" font-family="Helvetica,sans-Serif" font-size="10.00" fill="#000000">+ get_random()</text>
</a>
</g>
</g>
<!-- Node9&#45;&gt;Node10 -->
<g id="edge10" class="edge">
<title>Node9&#45;&gt;Node10</title>
<path fill="none" stroke="#191970" d="M407,-481.1514C407,-456.1232 407,-426.6863 407,-405.4186"/>
<polygon fill="none" stroke="#191970" points="403.5001,-481.2124 407,-491.2124 410.5001,-481.2124 403.5001,-481.2124"/>
</g>
<!-- Node12 -->
<g id="node13" class="node">
<title>Node12</title>
<g id="a_node13"><a xlink:href="classL4_1_1Scheduler.html" target="_top" xlink:title="C++ interface of the Scheduler kernel object. ">
<polygon fill="#ffffff" stroke="#000000" points="532,-331.5 532,-421.5 618,-421.5 618,-331.5 532,-331.5"/>
<text text-anchor="middle" x="575" y="-409.5" font-family="Helvetica,sans-Serif" font-size="10.00" fill="#000000">L4::Scheduler</text>
<polyline fill="none" stroke="#000000" points="532,-402.5 618,-402.5 "/>
<text text-anchor="middle" x="575" y="-390.5" font-family="Helvetica,sans-Serif" font-size="10.00" fill="#000000"> </text>
<polyline fill="none" stroke="#000000" points="532,-383.5 618,-383.5 "/>
<text text-anchor="start" x="540" y="-371.5" font-family="Helvetica,sans-Serif" font-size="10.00" fill="#000000">+ info()</text>
<text text-anchor="start" x="540" y="-360.5" font-family="Helvetica,sans-Serif" font-size="10.00" fill="#000000">+ run_thread()</text>
<text text-anchor="start" x="540" y="-349.5" font-family="Helvetica,sans-Serif" font-size="10.00" fill="#000000">+ idle_time()</text>
<text text-anchor="start" x="540" y="-338.5" font-family="Helvetica,sans-Serif" font-size="10.00" fill="#000000">+ is_online()</text>
</a>
</g>
</g>
<!-- Node11&#45;&gt;Node12 -->
<g id="edge12" class="edge">
<title>Node11&#45;&gt;Node12</title>
<path fill="none" stroke="#191970" d="M575,-475.6884C575,-457.967 575,-438.566 575,-421.6592"/>
<polygon fill="none" stroke="#191970" points="571.5001,-475.8968 575,-485.8969 578.5001,-475.8969 571.5001,-475.8968"/>
</g>
<!-- Node14 -->
<g id="node15" class="node">
<title>Node14</title>
<g id="a_node15"><a xlink:href="classL4_1_1Vcon.html" target="_top" xlink:title="C++ L4 Vcon interface. ">
<polygon fill="#ffffff" stroke="#000000" points="688.5,-320.5 688.5,-432.5 797.5,-432.5 797.5,-320.5 688.5,-320.5"/>
<text text-anchor="middle" x="743" y="-420.5" font-family="Helvetica,sans-Serif" font-size="10.00" fill="#000000">L4::Vcon</text>
<polyline fill="none" stroke="#000000" points="688.5,-413.5 797.5,-413.5 "/>
<text text-anchor="middle" x="743" y="-401.5" font-family="Helvetica,sans-Serif" font-size="10.00" fill="#000000"> </text>
<polyline fill="none" stroke="#000000" points="688.5,-394.5 797.5,-394.5 "/>
<text text-anchor="start" x="696.5" y="-382.5" font-family="Helvetica,sans-Serif" font-size="10.00" fill="#000000">+ send()</text>
<text text-anchor="start" x="696.5" y="-371.5" font-family="Helvetica,sans-Serif" font-size="10.00" fill="#000000">+ write()</text>
<text text-anchor="start" x="696.5" y="-360.5" font-family="Helvetica,sans-Serif" font-size="10.00" fill="#000000">+ read()</text>
<text text-anchor="start" x="696.5" y="-349.5" font-family="Helvetica,sans-Serif" font-size="10.00" fill="#000000">+ read_with_flags()</text>
<text text-anchor="start" x="696.5" y="-338.5" font-family="Helvetica,sans-Serif" font-size="10.00" fill="#000000">+ set_attr()</text>
<text text-anchor="start" x="696.5" y="-327.5" font-family="Helvetica,sans-Serif" font-size="10.00" fill="#000000">+ get_attr()</text>
</a>
</g>
</g>
<!-- Node13&#45;&gt;Node14 -->
<g id="edge14" class="edge">
<title>Node13&#45;&gt;Node14</title>
<path fill="none" stroke="#191970" d="M743,-480.8709C743,-465.5032 743,-448.4953 743,-432.7476"/>
<polygon fill="none" stroke="#191970" points="739.5001,-481.2124 743,-491.2124 746.5001,-481.2124 739.5001,-481.2124"/>
</g>
<!-- Node15 -->
<g id="node16" class="node">
<title>Node15</title>
<g id="a_node16"><a xlink:href="classL4_1_1Kobject__t.html" target="_top" xlink:title="{L4::Kobject_t\&lt; Log,\l L4::Vcon, L4::PROTO\l_EMPTY \&gt;\n||# c()\l# __check_protocols__()\l}">
<polygon fill="#ffffff" stroke="#000000" points="676,-177 676,-267 810,-267 810,-177 676,-177"/>
<text text-anchor="start" x="684" y="-255" font-family="Helvetica,sans-Serif" font-size="10.00" fill="#000000">L4::Kobject_t&lt; Log,</text>
<text text-anchor="start" x="684" y="-244" font-family="Helvetica,sans-Serif" font-size="10.00" fill="#000000"> L4::Vcon, L4::PROTO</text>
<text text-anchor="middle" x="743" y="-233" font-family="Helvetica,sans-Serif" font-size="10.00" fill="#000000">_EMPTY &gt;</text>
<polyline fill="none" stroke="#000000" points="676,-226 810,-226 "/>
<text text-anchor="middle" x="743" y="-214" font-family="Helvetica,sans-Serif" font-size="10.00" fill="#000000"> </text>
<polyline fill="none" stroke="#000000" points="676,-207 810,-207 "/>
<text text-anchor="start" x="684" y="-195" font-family="Helvetica,sans-Serif" font-size="10.00" fill="#000000"># c()</text>
<text text-anchor="start" x="684" y="-184" font-family="Helvetica,sans-Serif" font-size="10.00" fill="#000000"># __check_protocols__()</text>
</a>
</g>
</g>
<!-- Node14&#45;&gt;Node15 -->
<g id="edge15" class="edge">
<title>Node14&#45;&gt;Node15</title>
<path fill="none" stroke="#191970" d="M743,-309.9252C743,-295.5353 743,-280.6416 743,-267.2933"/>
<polygon fill="none" stroke="#191970" points="739.5001,-310.2849 743,-320.2849 746.5001,-310.2849 739.5001,-310.2849"/>
</g>
<!-- Node16 -->
<g id="node17" class="node">
<title>Node16</title>
<g id="a_node17"><a xlink:href="classL4Re_1_1Log.html" target="_top" xlink:title="Log interface class. ">
<polygon fill="#ffffff" stroke="#000000" points="710.5,-28 710.5,-96 775.5,-96 775.5,-28 710.5,-28"/>
<text text-anchor="middle" x="743" y="-84" font-family="Helvetica,sans-Serif" font-size="10.00" fill="#000000">L4Re::Log</text>
<polyline fill="none" stroke="#000000" points="710.5,-77 775.5,-77 "/>
<text text-anchor="middle" x="743" y="-65" font-family="Helvetica,sans-Serif" font-size="10.00" fill="#000000"> </text>
<polyline fill="none" stroke="#000000" points="710.5,-58 775.5,-58 "/>
<text text-anchor="start" x="718.5" y="-46" font-family="Helvetica,sans-Serif" font-size="10.00" fill="#000000">+ printn()</text>
<text text-anchor="start" x="718.5" y="-35" font-family="Helvetica,sans-Serif" font-size="10.00" fill="#000000">+ print()</text>
</a>
</g>
</g>
<!-- Node15&#45;&gt;Node16 -->
<g id="edge16" class="edge">
<title>Node15&#45;&gt;Node16</title>
<path fill="none" stroke="#191970" d="M743,-166.4198C743,-143.0142 743,-116.5241 743,-96.0818"/>
<polygon fill="none" stroke="#191970" points="739.5001,-166.5784 743,-176.5784 746.5001,-166.5784 739.5001,-166.5784"/>
</g>
<!-- Node18 -->
<g id="node19" class="node">
<title>Node18</title>
<g id="a_node19"><a xlink:href="structL4_1_1Triggerable.html" target="_top" xlink:title="Interface that allows an object to be triggered by some source. ">
<polygon fill="#ffffff" stroke="#000000" points="945.5,-662.5 945.5,-719.5 1032.5,-719.5 1032.5,-662.5 945.5,-662.5"/>
<text text-anchor="middle" x="989" y="-707.5" font-family="Helvetica,sans-Serif" font-size="10.00" fill="#000000">L4::Triggerable</text>
<polyline fill="none" stroke="#000000" points="945.5,-700.5 1032.5,-700.5 "/>
<text text-anchor="middle" x="989" y="-688.5" font-family="Helvetica,sans-Serif" font-size="10.00" fill="#000000"> </text>
<polyline fill="none" stroke="#000000" points="945.5,-681.5 1032.5,-681.5 "/>
<text text-anchor="start" x="953.5" y="-669.5" font-family="Helvetica,sans-Serif" font-size="10.00" fill="#000000">+ trigger()</text>
</a>
</g>
</g>
<!-- Node17&#45;&gt;Node18 -->
<g id="edge18" class="edge">
<title>Node17&#45;&gt;Node18</title>
<path fill="none" stroke="#191970" d="M962.113,-785.1047C968.3649,-763.2227 975.4974,-738.259 980.8446,-719.544"/>
<polygon fill="none" stroke="#191970" points="958.6939,-784.3313 959.312,-794.9081 965.4246,-786.2544 958.6939,-784.3313"/>
</g>
<!-- Node19 -->
<g id="node20" class="node">
<title>Node19</title>
<g id="a_node20"><a xlink:href="classL4_1_1Kobject__2t.html" target="_top" xlink:title="{L4::Kobject_2t\&lt; Irq,\l Triggerable, Rcv_endpoint,\l L4_PROTO_IRQ_SENDER \&gt;\n||+ operator Kobject const &amp;()\l+ dec_refcnt()\l# cap()\l# c()\l# __check_protocols__()\l}">
<polygon fill="#ffffff" stroke="#000000" points="828,-469.5 828,-592.5 986,-592.5 986,-469.5 828,-469.5"/>
<text text-anchor="start" x="836" y="-580.5" font-family="Helvetica,sans-Serif" font-size="10.00" fill="#000000">L4::Kobject_2t&lt; Irq,</text>
<text text-anchor="start" x="836" y="-569.5" font-family="Helvetica,sans-Serif" font-size="10.00" fill="#000000"> Triggerable, Rcv_endpoint,</text>
<text text-anchor="middle" x="907" y="-558.5" font-family="Helvetica,sans-Serif" font-size="10.00" fill="#000000"> L4_PROTO_IRQ_SENDER &gt;</text>
<polyline fill="none" stroke="#000000" points="828,-551.5 986,-551.5 "/>
<text text-anchor="middle" x="907" y="-539.5" font-family="Helvetica,sans-Serif" font-size="10.00" fill="#000000"> </text>
<polyline fill="none" stroke="#000000" points="828,-532.5 986,-532.5 "/>
<text text-anchor="start" x="836" y="-520.5" font-family="Helvetica,sans-Serif" font-size="10.00" fill="#000000">+ operator Kobject const &amp;()</text>
<text text-anchor="start" x="836" y="-509.5" font-family="Helvetica,sans-Serif" font-size="10.00" fill="#000000">+ dec_refcnt()</text>
<text text-anchor="start" x="836" y="-498.5" font-family="Helvetica,sans-Serif" font-size="10.00" fill="#000000"># cap()</text>
<text text-anchor="start" x="836" y="-487.5" font-family="Helvetica,sans-Serif" font-size="10.00" fill="#000000"># c()</text>
<text text-anchor="start" x="836" y="-476.5" font-family="Helvetica,sans-Serif" font-size="10.00" fill="#000000"># __check_protocols__()</text>
</a>
</g>
</g>
<!-- Node18&#45;&gt;Node19 -->
<g id="edge19" class="edge">
<title>Node18&#45;&gt;Node19</title>
<path fill="none" stroke="#191970" d="M969.6874,-653.317C960.3967,-635.1886 949.0196,-612.9895 938.5201,-592.5026"/>
<polygon fill="none" stroke="#191970" points="966.6643,-655.0922 974.34,-662.3952 972.8939,-651.8995 966.6643,-655.0922"/>
</g>
<!-- Node21 -->
<g id="node22" class="node">
<title>Node21</title>
<g id="a_node22"><a xlink:href="classL4_1_1Kobject__t.html" target="_top" xlink:title="{L4::Kobject_t\&lt; Irq\l_mux, Triggerable, L4\l_PROTO_IRQ_MUX \&gt;\n||# c()\l# __check_protocols__()\l}">
<polygon fill="#ffffff" stroke="#000000" points="1004,-486 1004,-576 1138,-576 1138,-486 1004,-486"/>
<text text-anchor="start" x="1012" y="-564" font-family="Helvetica,sans-Serif" font-size="10.00" fill="#000000">L4::Kobject_t&lt; Irq</text>
<text text-anchor="start" x="1012" y="-553" font-family="Helvetica,sans-Serif" font-size="10.00" fill="#000000">_mux, Triggerable, L4</text>
<text text-anchor="middle" x="1071" y="-542" font-family="Helvetica,sans-Serif" font-size="10.00" fill="#000000">_PROTO_IRQ_MUX &gt;</text>
<polyline fill="none" stroke="#000000" points="1004,-535 1138,-535 "/>
<text text-anchor="middle" x="1071" y="-523" font-family="Helvetica,sans-Serif" font-size="10.00" fill="#000000"> </text>
<polyline fill="none" stroke="#000000" points="1004,-516 1138,-516 "/>
<text text-anchor="start" x="1012" y="-504" font-family="Helvetica,sans-Serif" font-size="10.00" fill="#000000"># c()</text>
<text text-anchor="start" x="1012" y="-493" font-family="Helvetica,sans-Serif" font-size="10.00" fill="#000000"># __check_protocols__()</text>
</a>
</g>
</g>
<!-- Node18&#45;&gt;Node21 -->
<g id="edge21" class="edge">
<title>Node18&#45;&gt;Node21</title>
<path fill="none" stroke="#191970" d="M1008.3351,-653.2731C1020.1481,-630.2232 1035.3277,-600.6044 1047.7881,-576.2914"/>
<polygon fill="none" stroke="#191970" points="1005.1061,-651.8995 1003.66,-662.3952 1011.3357,-655.0922 1005.1061,-651.8995"/>
</g>
<!-- Node23 -->
<g id="node24" class="node">
<title>Node23</title>
<g id="a_node24"><a xlink:href="classL4_1_1Kobject__t.html" target="_top" xlink:title="{L4::Kobject_t\&lt; Semaphore,\l Triggerable, L4_PROTO\l_SEMAPHORE \&gt;\n||# c()\l# __check_protocols__()\l}">
<polygon fill="#ffffff" stroke="#000000" points="1156.5,-486 1156.5,-576 1299.5,-576 1299.5,-486 1156.5,-486"/>
<text text-anchor="start" x="1164.5" y="-564" font-family="Helvetica,sans-Serif" font-size="10.00" fill="#000000">L4::Kobject_t&lt; Semaphore,</text>
<text text-anchor="start" x="1164.5" y="-553" font-family="Helvetica,sans-Serif" font-size="10.00" fill="#000000"> Triggerable, L4_PROTO</text>
<text text-anchor="middle" x="1228" y="-542" font-family="Helvetica,sans-Serif" font-size="10.00" fill="#000000">_SEMAPHORE &gt;</text>
<polyline fill="none" stroke="#000000" points="1156.5,-535 1299.5,-535 "/>
<text text-anchor="middle" x="1228" y="-523" font-family="Helvetica,sans-Serif" font-size="10.00" fill="#000000"> </text>
<polyline fill="none" stroke="#000000" points="1156.5,-516 1299.5,-516 "/>
<text text-anchor="start" x="1164.5" y="-504" font-family="Helvetica,sans-Serif" font-size="10.00" fill="#000000"># c()</text>
<text text-anchor="start" x="1164.5" y="-493" font-family="Helvetica,sans-Serif" font-size="10.00" fill="#000000"># __check_protocols__()</text>
</a>
</g>
</g>
<!-- Node18&#45;&gt;Node23 -->
<g id="edge23" class="edge">
<title>Node18&#45;&gt;Node23</title>
<path fill="none" stroke="#191970" d="M1041.5993,-660.1459C1072.732,-641.4492 1112.6692,-616.7013 1147,-593 1154.7239,-587.6675 1162.7215,-581.8856 1170.5483,-576.0689"/>
<polygon fill="none" stroke="#191970" points="1039.4358,-657.3617 1032.651,-665.499 1043.0295,-663.3688 1039.4358,-657.3617"/>
</g>
<!-- Node20 -->
<g id="node21" class="node">
<title>Node20</title>
<g id="a_node21"><a xlink:href="classL4_1_1Irq.html" target="_top" xlink:title="C++ Irq interface. ">
<polygon fill="#ffffff" stroke="#000000" points="872,-326 872,-427 942,-427 942,-326 872,-326"/>
<text text-anchor="middle" x="907" y="-415" font-family="Helvetica,sans-Serif" font-size="10.00" fill="#000000">L4::Irq</text>
<polyline fill="none" stroke="#000000" points="872,-408 942,-408 "/>
<text text-anchor="middle" x="907" y="-396" font-family="Helvetica,sans-Serif" font-size="10.00" fill="#000000"> </text>
<polyline fill="none" stroke="#000000" points="872,-389 942,-389 "/>
<text text-anchor="start" x="880" y="-377" font-family="Helvetica,sans-Serif" font-size="10.00" fill="#000000">+ attach()</text>
<text text-anchor="start" x="880" y="-366" font-family="Helvetica,sans-Serif" font-size="10.00" fill="#000000">+ detach()</text>
<text text-anchor="start" x="880" y="-355" font-family="Helvetica,sans-Serif" font-size="10.00" fill="#000000">+ receive()</text>
<text text-anchor="start" x="880" y="-344" font-family="Helvetica,sans-Serif" font-size="10.00" fill="#000000">+ wait()</text>
<text text-anchor="start" x="880" y="-333" font-family="Helvetica,sans-Serif" font-size="10.00" fill="#000000">+ unmask()</text>
</a>
</g>
</g>
<!-- Node19&#45;&gt;Node20 -->
<g id="edge20" class="edge">
<title>Node19&#45;&gt;Node20</title>
<path fill="none" stroke="#191970" d="M907,-459.2455C907,-448.4823 907,-437.5761 907,-427.3683"/>
<polygon fill="none" stroke="#191970" points="903.5001,-459.4935 907,-469.4936 910.5001,-459.4936 903.5001,-459.4935"/>
</g>
<!-- Node22 -->
<g id="node23" class="node">
<title>Node22</title>
<g id="a_node23"><a xlink:href="structL4_1_1Irq__mux.html" target="_top" xlink:title="IRQ multiplexer for shared IRQs. ">
<polygon fill="#ffffff" stroke="#000000" points="1035.5,-348 1035.5,-405 1106.5,-405 1106.5,-348 1035.5,-348"/>
<text text-anchor="middle" x="1071" y="-393" font-family="Helvetica,sans-Serif" font-size="10.00" fill="#000000">L4::Irq_mux</text>
<polyline fill="none" stroke="#000000" points="1035.5,-386 1106.5,-386 "/>
<text text-anchor="middle" x="1071" y="-374" font-family="Helvetica,sans-Serif" font-size="10.00" fill="#000000"> </text>
<polyline fill="none" stroke="#000000" points="1035.5,-367 1106.5,-367 "/>
<text text-anchor="start" x="1043.5" y="-355" font-family="Helvetica,sans-Serif" font-size="10.00" fill="#000000">+ chain()</text>
</a>
</g>
</g>
<!-- Node21&#45;&gt;Node22 -->
<g id="edge22" class="edge">
<title>Node21&#45;&gt;Node22</title>
<path fill="none" stroke="#191970" d="M1071,-475.8963C1071,-452.053 1071,-425.1352 1071,-405.331"/>
<polygon fill="none" stroke="#191970" points="1067.5001,-475.8968 1071,-485.8969 1074.5001,-475.8969 1067.5001,-475.8968"/>
</g>
<!-- Node24 -->
<g id="node25" class="node">
<title>Node24</title>
<g id="a_node25"><a xlink:href="structL4_1_1Semaphore.html" target="_top" xlink:title="Kernel&#45;provided semaphore object. ">
<polygon fill="#ffffff" stroke="#000000" points="1184,-342.5 1184,-410.5 1272,-410.5 1272,-342.5 1184,-342.5"/>
<text text-anchor="middle" x="1228" y="-398.5" font-family="Helvetica,sans-Serif" font-size="10.00" fill="#000000">L4::Semaphore</text>
<polyline fill="none" stroke="#000000" points="1184,-391.5 1272,-391.5 "/>
<text text-anchor="middle" x="1228" y="-379.5" font-family="Helvetica,sans-Serif" font-size="10.00" fill="#000000"> </text>
<polyline fill="none" stroke="#000000" points="1184,-372.5 1272,-372.5 "/>
<text text-anchor="start" x="1192" y="-360.5" font-family="Helvetica,sans-Serif" font-size="10.00" fill="#000000">+ up()</text>
<text text-anchor="start" x="1192" y="-349.5" font-family="Helvetica,sans-Serif" font-size="10.00" fill="#000000">+ down()</text>
</a>
</g>
</g>
<!-- Node23&#45;&gt;Node24 -->
<g id="edge24" class="edge">
<title>Node23&#45;&gt;Node24</title>
<path fill="none" stroke="#191970" d="M1228,-475.7803C1228,-454.0197 1228,-429.714 1228,-410.5984"/>
<polygon fill="none" stroke="#191970" points="1224.5001,-475.8968 1228,-485.8969 1231.5001,-475.8969 1224.5001,-475.8968"/>
</g>
</g>
</svg>
