<?xml version="1.0" encoding="UTF-8" standalone="no"?>
<!DOCTYPE svg PUBLIC "-//W3C//DTD SVG 1.1//EN"
 "http://www.w3.org/Graphics/SVG/1.1/DTD/svg11.dtd">
<!-- Generated by graphviz version 2.40.1 (20161225.0304)
 -->
<!-- Title: L4Re::Util::Dataspace_svr::is_static Pages: 1 -->
<svg width="431pt" height="362pt"
 viewBox="0.00 0.00 431.00 362.00" xmlns="http://www.w3.org/2000/svg" xmlns:xlink="http://www.w3.org/1999/xlink">
<g id="graph0" class="graph" transform="scale(1 1) rotate(0) translate(4 358)">
<title>L4Re::Util::Dataspace_svr::is_static</title>
<polygon fill="#ffffff" stroke="transparent" points="-4,4 -4,-358 427,-358 427,4 -4,4"/>
<!-- Node11 -->
<g id="node1" class="node">
<title>Node11</title>
<polygon fill="#bfbfbf" stroke="#000000" points="0,-161.5 0,-191.5 117,-191.5 117,-161.5 0,-161.5"/>
<text text-anchor="start" x="8" y="-179.5" font-family="Helvetica,sans-Serif" font-size="10.00" fill="#000000">L4Re::Util::Dataspace</text>
<text text-anchor="middle" x="58.5" y="-168.5" font-family="Helvetica,sans-Serif" font-size="10.00" fill="#000000">_svr::is_static</text>
</g>
<!-- Node12 -->
<g id="node2" class="node">
<title>Node12</title>
<g id="a_node2"><a xlink:href="classL4Re_1_1Util_1_1Dataspace__svr.html#aa85cfff9018ab447c78b1bebea9236c2" target="_top" xlink:title="Allocate a region within a dataspace. ">
<polygon fill="#ffffff" stroke="#000000" points="153,-323.5 153,-353.5 270,-353.5 270,-323.5 153,-323.5"/>
<text text-anchor="start" x="161" y="-341.5" font-family="Helvetica,sans-Serif" font-size="10.00" fill="#000000">L4Re::Util::Dataspace</text>
<text text-anchor="middle" x="211.5" y="-330.5" font-family="Helvetica,sans-Serif" font-size="10.00" fill="#000000">_svr::allocate</text>
</a>
</g>
</g>
<!-- Node11&#45;&gt;Node12 -->
<g id="edge1" class="edge">
<title>Node11&#45;&gt;Node12</title>
<path fill="none" stroke="#191970" d="M66.2415,-191.7432C80.3772,-218.3424 112.6615,-273.7112 153,-308.5 157.1597,-312.0874 161.8228,-315.3862 166.653,-318.3781"/>
<polygon fill="#191970" stroke="#191970" points="165.0397,-321.4877 175.4553,-323.4283 168.5233,-315.416 165.0397,-321.4877"/>
</g>
<!-- Node13 -->
<g id="node3" class="node">
<title>Node13</title>
<g id="a_node3"><a xlink:href="classL4Re_1_1Util_1_1Dataspace__svr.html#ac20641a3871785e42a36906745eebca0" target="_top" xlink:title="Clear a region in the dataspace. ">
<polygon fill="#ffffff" stroke="#000000" points="306,-257.5 306,-287.5 423,-287.5 423,-257.5 306,-257.5"/>
<text text-anchor="start" x="314" y="-275.5" font-family="Helvetica,sans-Serif" font-size="10.00" fill="#000000">L4Re::Util::Dataspace</text>
<text text-anchor="middle" x="364.5" y="-264.5" font-family="Helvetica,sans-Serif" font-size="10.00" fill="#000000">_svr::clear</text>
</a>
</g>
</g>
<!-- Node11&#45;&gt;Node13 -->
<g id="edge2" class="edge">
<title>Node11&#45;&gt;Node13</title>
<path fill="none" stroke="#191970" d="M67.1822,-191.5067C81.5717,-214.6818 112.8054,-258.3007 153,-275.5 197.852,-294.6922 253.1101,-293.1571 295.8953,-287.2389"/>
<polygon fill="#191970" stroke="#191970" points="296.56,-290.6785 305.9331,-285.7394 295.5257,-283.7553 296.56,-290.6785"/>
</g>
<!-- Node14 -->
<g id="node4" class="node">
<title>Node14</title>
<g id="a_node4"><a xlink:href="classL4Re_1_1Util_1_1Dataspace__svr.html#ae43d4d403894536dd261a834e2bcc417" target="_top" xlink:title="Copy from src dataspace to this destination dataspace. ">
<polygon fill="#ffffff" stroke="#000000" points="153,-235.5 153,-265.5 270,-265.5 270,-235.5 153,-235.5"/>
<text text-anchor="start" x="161" y="-253.5" font-family="Helvetica,sans-Serif" font-size="10.00" fill="#000000">L4Re::Util::Dataspace</text>
<text text-anchor="middle" x="211.5" y="-242.5" font-family="Helvetica,sans-Serif" font-size="10.00" fill="#000000">_svr::copy</text>
</a>
</g>
</g>
<!-- Node11&#45;&gt;Node14 -->
<g id="edge3" class="edge">
<title>Node11&#45;&gt;Node14</title>
<path fill="none" stroke="#191970" d="M85.4389,-191.652C104.155,-201.9558 129.8034,-215.6365 153,-226.5 156.5339,-228.155 160.2143,-229.8131 163.9324,-231.4416"/>
<polygon fill="#191970" stroke="#191970" points="162.6202,-234.6871 173.1903,-235.4098 165.378,-228.2532 162.6202,-234.6871"/>
</g>
<!-- Node15 -->
<g id="node5" class="node">
<title>Node15</title>
<g id="a_node5"><a xlink:href="classL4_1_1Ipc_1_1Gen__fpage.html#aca293488415bad034e62c26944bb0e7e" target="_top" xlink:title="Return the raw flex page descriptor. ">
<polygon fill="#ffffff" stroke="#000000" points="159,-186.5 159,-216.5 264,-216.5 264,-186.5 159,-186.5"/>
<text text-anchor="start" x="167" y="-204.5" font-family="Helvetica,sans-Serif" font-size="10.00" fill="#000000">L4::Ipc::Gen_fpage</text>
<text text-anchor="middle" x="211.5" y="-193.5" font-family="Helvetica,sans-Serif" font-size="10.00" fill="#000000">::data</text>
</a>
</g>
</g>
<!-- Node11&#45;&gt;Node15 -->
<g id="edge5" class="edge">
<title>Node11&#45;&gt;Node15</title>
<path fill="none" stroke="#191970" d="M117.2162,-186.0942C127.5618,-187.7846 138.3668,-189.5501 148.8161,-191.2575"/>
<polygon fill="#191970" stroke="#191970" points="148.2652,-194.7139 158.6988,-192.8724 149.3941,-187.8055 148.2652,-194.7139"/>
</g>
<!-- Node16 -->
<g id="node6" class="node">
<title>Node16</title>
<g id="a_node6"><a xlink:href="classL4_1_1Ipc_1_1Gen__fpage.html#a4b39da7f8b5f30657de05383cd987c92" target="_top" xlink:title="Check if a label was received instead of a mapping. ">
<polygon fill="#ffffff" stroke="#000000" points="159,-137.5 159,-167.5 264,-167.5 264,-137.5 159,-137.5"/>
<text text-anchor="start" x="167" y="-155.5" font-family="Helvetica,sans-Serif" font-size="10.00" fill="#000000">L4::Ipc::Gen_fpage</text>
<text text-anchor="middle" x="211.5" y="-144.5" font-family="Helvetica,sans-Serif" font-size="10.00" fill="#000000">::id_received</text>
</a>
</g>
</g>
<!-- Node11&#45;&gt;Node16 -->
<g id="edge6" class="edge">
<title>Node11&#45;&gt;Node16</title>
<path fill="none" stroke="#191970" d="M117.2162,-167.2896C127.5618,-165.6668 138.3668,-163.9719 148.8161,-162.3328"/>
<polygon fill="#191970" stroke="#191970" points="149.362,-165.79 158.6988,-160.7825 148.2772,-158.8746 149.362,-165.79"/>
</g>
<!-- Node17 -->
<g id="node7" class="node">
<title>Node17</title>
<g id="a_node7"><a xlink:href="group__l4__memory__api.html#gae876a4c6e0f21b2ecbf17863dc7d11e4" target="_top" xlink:title="Round value up to the next alignment with bits size. ">
<polygon fill="#ffffff" stroke="#000000" points="170,-99 170,-118 253,-118 253,-99 170,-99"/>
<text text-anchor="middle" x="211.5" y="-106" font-family="Helvetica,sans-Serif" font-size="10.00" fill="#000000">l4_round_size</text>
</a>
</g>
</g>
<!-- Node11&#45;&gt;Node17 -->
<g id="edge7" class="edge">
<title>Node11&#45;&gt;Node17</title>
<path fill="none" stroke="#191970" d="M84.8241,-161.3624C103.4784,-151.0073 129.3018,-137.4133 153,-127.5 158.1719,-125.3365 163.6829,-123.2613 169.1763,-121.3291"/>
<polygon fill="#191970" stroke="#191970" points="170.6168,-124.5368 178.9685,-118.0176 168.3743,-117.9057 170.6168,-124.5368"/>
</g>
<!-- Node19 -->
<g id="node9" class="node">
<title>Node19</title>
<g id="a_node9"><a xlink:href="classL4Re_1_1Util_1_1Dataspace__svr.html#a8b739f2a06b2e6cf2f4a29b106eba294" target="_top" xlink:title="Map a region of the dataspace. ">
<polygon fill="#ffffff" stroke="#000000" points="153,-49.5 153,-79.5 270,-79.5 270,-49.5 153,-49.5"/>
<text text-anchor="start" x="161" y="-67.5" font-family="Helvetica,sans-Serif" font-size="10.00" fill="#000000">L4Re::Util::Dataspace</text>
<text text-anchor="middle" x="211.5" y="-56.5" font-family="Helvetica,sans-Serif" font-size="10.00" fill="#000000">_svr::map</text>
</a>
</g>
</g>
<!-- Node11&#45;&gt;Node19 -->
<g id="edge9" class="edge">
<title>Node11&#45;&gt;Node19</title>
<path fill="none" stroke="#191970" d="M71.9427,-161.2732C89.2036,-142.4407 120.7903,-110.3267 153,-89.5 155.9172,-87.6137 159.0007,-85.8136 162.1655,-84.1069"/>
<polygon fill="#191970" stroke="#191970" points="163.8669,-87.169 171.2296,-79.5504 160.7229,-80.9147 163.8669,-87.169"/>
</g>
<!-- Node20 -->
<g id="node10" class="node">
<title>Node20</title>
<g id="a_node10"><a xlink:href="classL4Re_1_1Util_1_1Dataspace__svr.html#a1bfc015d00ffa24baa958dffe9b47b0b" target="_top" xlink:title="Define the size of the flexpage to map. ">
<polygon fill="#ffffff" stroke="#000000" points="153,-.5 153,-30.5 270,-30.5 270,-.5 153,-.5"/>
<text text-anchor="start" x="161" y="-18.5" font-family="Helvetica,sans-Serif" font-size="10.00" fill="#000000">L4Re::Util::Dataspace</text>
<text text-anchor="middle" x="211.5" y="-7.5" font-family="Helvetica,sans-Serif" font-size="10.00" fill="#000000">_svr::page_shift</text>
</a>
</g>
</g>
<!-- Node11&#45;&gt;Node20 -->
<g id="edge10" class="edge">
<title>Node11&#45;&gt;Node20</title>
<path fill="none" stroke="#191970" d="M65.371,-161.1846C78.5717,-133.3433 110.0228,-74.1219 153,-39.5 154.5708,-38.2345 156.2176,-37.0271 157.9212,-35.8759"/>
<polygon fill="#191970" stroke="#191970" points="160.0202,-38.6998 166.8257,-30.5797 156.4418,-32.6835 160.0202,-38.6998"/>
</g>
<!-- Node14&#45;&gt;Node13 -->
<g id="edge4" class="edge">
<title>Node14&#45;&gt;Node13</title>
<path fill="none" stroke="#191970" d="M270.2162,-258.9429C278.6354,-260.1535 287.3589,-261.4078 295.9473,-262.6427"/>
<polygon fill="#191970" stroke="#191970" points="295.5445,-266.1208 305.9409,-264.0797 296.5409,-259.192 295.5445,-266.1208"/>
</g>
<!-- Node18 -->
<g id="node8" class="node">
<title>Node18</title>
<g id="a_node8"><a xlink:href="group__l4__memory__api.html#ga2be30f4e5dde3c85d115d2a9c77f6215" target="_top" xlink:title="Determine how many machine words (l4_umword_t) are required to store a buffer of &#39;size&#39; bytes...">
<polygon fill="#ffffff" stroke="#000000" points="308,-99 308,-118 421,-118 421,-99 308,-99"/>
<text text-anchor="middle" x="364.5" y="-106" font-family="Helvetica,sans-Serif" font-size="10.00" fill="#000000">l4_bytes_to_mwords</text>
</a>
</g>
</g>
<!-- Node17&#45;&gt;Node18 -->
<g id="edge8" class="edge">
<title>Node17&#45;&gt;Node18</title>
<path fill="none" stroke="#191970" d="M253.3079,-108.5C266.9666,-108.5 282.4973,-108.5 297.5294,-108.5"/>
<polygon fill="#191970" stroke="#191970" points="297.8274,-112.0001 307.8274,-108.5 297.8273,-105.0001 297.8274,-112.0001"/>
</g>
</g>
</svg>
