<?xml version="1.0" encoding="UTF-8" standalone="no"?>
<!DOCTYPE svg PUBLIC "-//W3C//DTD SVG 1.1//EN"
 "http://www.w3.org/Graphics/SVG/1.1/DTD/svg11.dtd">
<!-- Generated by graphviz version 2.40.1 (20161225.0304)
 -->
<!-- Title: cxx::H_list::remove Pages: 1 -->
<svg width="271pt" height="110pt"
 viewBox="0.00 0.00 271.00 110.00" xmlns="http://www.w3.org/2000/svg" xmlns:xlink="http://www.w3.org/1999/xlink">
<g id="graph0" class="graph" transform="scale(1 1) rotate(0) translate(4 106)">
<title>cxx::H_list::remove</title>
<polygon fill="#ffffff" stroke="transparent" points="-4,4 -4,-106 267,-106 267,4 -4,4"/>
<!-- Node13 -->
<g id="node1" class="node">
<title>Node13</title>
<polygon fill="#bfbfbf" stroke="#000000" points="0,-41.5 0,-60.5 103,-60.5 103,-41.5 0,-41.5"/>
<text text-anchor="middle" x="51.5" y="-48.5" font-family="Helvetica,sans-Serif" font-size="10.00" fill="#000000">cxx::H_list::remove</text>
</g>
<!-- Node14 -->
<g id="node2" class="node">
<title>Node14</title>
<g id="a_node2"><a xlink:href="classcxx_1_1Base__slab.html#a48ac5e888c4292fc5b1662b3a5e01997" target="_top" xlink:title="Allocate a new object. ">
<polygon fill="#ffffff" stroke="#000000" points="139,-60.5 139,-101.5 263,-101.5 263,-60.5 139,-60.5"/>
<text text-anchor="start" x="147" y="-89.5" font-family="Helvetica,sans-Serif" font-size="10.00" fill="#000000">cxx::Base_slab&lt; sizeof</text>
<text text-anchor="start" x="147" y="-78.5" font-family="Helvetica,sans-Serif" font-size="10.00" fill="#000000">(Type), Slab_size, Max</text>
<text text-anchor="middle" x="201" y="-67.5" font-family="Helvetica,sans-Serif" font-size="10.00" fill="#000000">_free, Alloc &gt;::alloc</text>
</a>
</g>
</g>
<!-- Node13&#45;&gt;Node14 -->
<g id="edge1" class="edge">
<title>Node13&#45;&gt;Node14</title>
<path fill="none" stroke="#191970" d="M109.2036,-62.5793C118.9606,-64.5372 129.127,-66.5773 138.9885,-68.5562"/>
<polygon fill="#191970" stroke="#191970" points="109.707,-59.1106 99.2138,-60.5747 108.3297,-65.9738 109.707,-59.1106"/>
</g>
<!-- Node15 -->
<g id="node3" class="node">
<title>Node15</title>
<g id="a_node3"><a xlink:href="classcxx_1_1Base__slab.html#af7f8144a14030567ab8f83e88b9cf20b" target="_top" xlink:title="Free the given object (_o). ">
<polygon fill="#ffffff" stroke="#000000" points="139,-.5 139,-41.5 263,-41.5 263,-.5 139,-.5"/>
<text text-anchor="start" x="147" y="-29.5" font-family="Helvetica,sans-Serif" font-size="10.00" fill="#000000">cxx::Base_slab&lt; sizeof</text>
<text text-anchor="start" x="147" y="-18.5" font-family="Helvetica,sans-Serif" font-size="10.00" fill="#000000">(Type), Slab_size, Max</text>
<text text-anchor="middle" x="201" y="-7.5" font-family="Helvetica,sans-Serif" font-size="10.00" fill="#000000">_free, Alloc &gt;::free</text>
</a>
</g>
</g>
<!-- Node13&#45;&gt;Node15 -->
<g id="edge2" class="edge">
<title>Node13&#45;&gt;Node15</title>
<path fill="none" stroke="#191970" d="M109.2036,-39.4207C118.9606,-37.4628 129.127,-35.4227 138.9885,-33.4438"/>
<polygon fill="#191970" stroke="#191970" points="108.3297,-36.0262 99.2138,-41.4253 109.707,-42.8894 108.3297,-36.0262"/>
</g>
</g>
</svg>
