<?xml version="1.0" encoding="UTF-8" standalone="no"?>
<!DOCTYPE svg PUBLIC "-//W3C//DTD SVG 1.1//EN"
 "http://www.w3.org/Graphics/SVG/1.1/DTD/svg11.dtd">
<!-- Generated by graphviz version 2.40.1 (20161225.0304)
 -->
<!-- Title: L4Re::Mem_alloc::alloc Pages: 1 -->
<svg width="396pt" height="66pt"
 viewBox="0.00 0.00 396.00 66.00" xmlns="http://www.w3.org/2000/svg" xmlns:xlink="http://www.w3.org/1999/xlink">
<g id="graph0" class="graph" transform="scale(1 1) rotate(0) translate(4 62)">
<title>L4Re::Mem_alloc::alloc</title>
<polygon fill="#ffffff" stroke="transparent" points="-4,4 -4,-62 392,-62 392,4 -4,4"/>
<!-- Node0 -->
<g id="node1" class="node">
<title>Node0</title>
<polygon fill="#bfbfbf" stroke="#000000" points="0,-19.5 0,-38.5 124,-38.5 124,-19.5 0,-19.5"/>
<text text-anchor="middle" x="62" y="-26.5" font-family="Helvetica,sans-Serif" font-size="10.00" fill="#000000">L4Re::Mem_alloc::alloc</text>
</g>
<!-- Node1 -->
<g id="node2" class="node">
<title>Node1</title>
<g id="a_node2"><a xlink:href="classL4_1_1Factory.html#ab52604d4abed4d6009ce51a59492edd7" target="_top" xlink:title="Generic create call to the factory. ">
<polygon fill="#ffffff" stroke="#000000" points="160,-38.5 160,-57.5 263,-57.5 263,-38.5 160,-38.5"/>
<text text-anchor="middle" x="211.5" y="-45.5" font-family="Helvetica,sans-Serif" font-size="10.00" fill="#000000">L4::Factory::create</text>
</a>
</g>
</g>
<!-- Node0&#45;&gt;Node1 -->
<g id="edge1" class="edge">
<title>Node0&#45;&gt;Node1</title>
<path fill="none" stroke="#191970" d="M124.1027,-36.8926C132.5438,-37.9654 141.2065,-39.0664 149.6433,-40.1386"/>
<polygon fill="#191970" stroke="#191970" points="149.4306,-43.6397 159.7922,-41.4284 150.3132,-36.6955 149.4306,-43.6397"/>
</g>
<!-- Node3 -->
<g id="node4" class="node">
<title>Node3</title>
<g id="a_node4"><a xlink:href="group__l4__ipc__err__api.html#ga05c11e3e10b6c2aa941396ac2018899f" target="_top" xlink:title="Return error code of a system call return message tag or the tag label. ">
<polygon fill="#ffffff" stroke="#000000" points="184.5,-.5 184.5,-19.5 238.5,-19.5 238.5,-.5 184.5,-.5"/>
<text text-anchor="middle" x="211.5" y="-7.5" font-family="Helvetica,sans-Serif" font-size="10.00" fill="#000000">l4_error</text>
</a>
</g>
</g>
<!-- Node0&#45;&gt;Node3 -->
<g id="edge3" class="edge">
<title>Node0&#45;&gt;Node3</title>
<path fill="none" stroke="#191970" d="M124.1027,-21.1074C141.1805,-18.9369 159.1654,-16.6512 174.3509,-14.7213"/>
<polygon fill="#191970" stroke="#191970" points="174.8923,-18.1807 184.3712,-13.4478 174.0097,-11.2366 174.8923,-18.1807"/>
</g>
<!-- Node2 -->
<g id="node3" class="node">
<title>Node2</title>
<g id="a_node3"><a xlink:href="classL4_1_1Kobject.html#a4f2117ae76762f4084e6a1adb915863c" target="_top" xlink:title="Return capability selector. ">
<polygon fill="#ffffff" stroke="#000000" points="299,-38.5 299,-57.5 388,-57.5 388,-38.5 299,-38.5"/>
<text text-anchor="middle" x="343.5" y="-45.5" font-family="Helvetica,sans-Serif" font-size="10.00" fill="#000000">L4::Kobject::cap</text>
</a>
</g>
</g>
<!-- Node1&#45;&gt;Node2 -->
<g id="edge2" class="edge">
<title>Node1&#45;&gt;Node2</title>
<path fill="none" stroke="#191970" d="M263.291,-48C271.6096,-48 280.2444,-48 288.6321,-48"/>
<polygon fill="#191970" stroke="#191970" points="288.703,-51.5001 298.7029,-48 288.7029,-44.5001 288.703,-51.5001"/>
</g>
</g>
</svg>
