<?xml version="1.0" encoding="UTF-8" standalone="no"?>
<!DOCTYPE svg PUBLIC "-//W3C//DTD SVG 1.1//EN"
 "http://www.w3.org/Graphics/SVG/1.1/DTD/svg11.dtd">
<!-- Generated by graphviz version 2.40.1 (20161225.0304)
 -->
<!-- Title: cxx::Bitmap_base::operator[] Pages: 1 -->
<svg width="467pt" height="88pt"
 viewBox="0.00 0.00 467.00 88.00" xmlns="http://www.w3.org/2000/svg" xmlns:xlink="http://www.w3.org/1999/xlink">
<g id="graph0" class="graph" transform="scale(1 1) rotate(0) translate(4 84)">
<title>cxx::Bitmap_base::operator[]</title>
<polygon fill="#ffffff" stroke="transparent" points="-4,4 -4,-84 463,-84 463,4 -4,4"/>
<!-- Node21 -->
<g id="node1" class="node">
<title>Node21</title>
<polygon fill="#bfbfbf" stroke="#000000" points="0,-30 0,-49 149,-49 149,-30 0,-30"/>
<text text-anchor="middle" x="74.5" y="-37" font-family="Helvetica,sans-Serif" font-size="10.00" fill="#000000">cxx::Bitmap_base::operator[]</text>
</g>
<!-- Node22 -->
<g id="node2" class="node">
<title>Node22</title>
<g id="a_node2"><a xlink:href="classcxx_1_1Bitmap__base.html#a90b85625fab909f4bfa3cad35ccfba77" target="_top" xlink:title="Set the value of bit bit to on. ">
<polygon fill="#ffffff" stroke="#000000" points="185,-30 185,-49 298,-49 298,-30 185,-30"/>
<text text-anchor="middle" x="241.5" y="-37" font-family="Helvetica,sans-Serif" font-size="10.00" fill="#000000">cxx::Bitmap_base::bit</text>
</a>
</g>
</g>
<!-- Node21&#45;&gt;Node22 -->
<g id="edge1" class="edge">
<title>Node21&#45;&gt;Node22</title>
<path fill="none" stroke="#191970" d="M149.2079,-39.5C157.7282,-39.5 166.372,-39.5 174.7791,-39.5"/>
<polygon fill="#191970" stroke="#191970" points="174.8923,-43.0001 184.8923,-39.5 174.8922,-36.0001 174.8923,-43.0001"/>
</g>
<!-- Node23 -->
<g id="node3" class="node">
<title>Node23</title>
<g id="a_node3"><a xlink:href="classcxx_1_1Bitmap__base.html#a63b497caf4cba8376deb2b8831d3fb4f" target="_top" xlink:title="Get the bit index within word_type for the given bit. ">
<polygon fill="#ffffff" stroke="#000000" points="340,-49.5 340,-79.5 453,-79.5 453,-49.5 340,-49.5"/>
<text text-anchor="start" x="348" y="-67.5" font-family="Helvetica,sans-Serif" font-size="10.00" fill="#000000">cxx::Bitmap_base::bit</text>
<text text-anchor="middle" x="396.5" y="-56.5" font-family="Helvetica,sans-Serif" font-size="10.00" fill="#000000">_index</text>
</a>
</g>
</g>
<!-- Node22&#45;&gt;Node23 -->
<g id="edge2" class="edge">
<title>Node22&#45;&gt;Node23</title>
<path fill="none" stroke="#191970" d="M298.3361,-48.6671C308.6157,-50.3251 319.4186,-52.0675 329.9464,-53.7656"/>
<polygon fill="#191970" stroke="#191970" points="329.5001,-57.2387 339.9298,-55.3758 330.6147,-50.328 329.5001,-57.2387"/>
</g>
<!-- Node24 -->
<g id="node4" class="node">
<title>Node24</title>
<g id="a_node4"><a xlink:href="classcxx_1_1Bitmap__base.html#a7a9d9e1459ab5508c071f3989c3bbf4e" target="_top" xlink:title="Get the word index for the given bit. ">
<polygon fill="#ffffff" stroke="#000000" points="334,-.5 334,-30.5 459,-30.5 459,-.5 334,-.5"/>
<text text-anchor="start" x="342" y="-18.5" font-family="Helvetica,sans-Serif" font-size="10.00" fill="#000000">cxx::Bitmap_base::word</text>
<text text-anchor="middle" x="396.5" y="-7.5" font-family="Helvetica,sans-Serif" font-size="10.00" fill="#000000">_index</text>
</a>
</g>
</g>
<!-- Node22&#45;&gt;Node24 -->
<g id="edge3" class="edge">
<title>Node22&#45;&gt;Node24</title>
<path fill="none" stroke="#191970" d="M298.3361,-30.6996C306.6576,-29.4111 315.3219,-28.0695 323.9056,-26.7404"/>
<polygon fill="#191970" stroke="#191970" points="324.5731,-30.1789 333.9198,-25.1898 323.502,-23.2613 324.5731,-30.1789"/>
</g>
</g>
</svg>
