<?xml version="1.0" encoding="UTF-8" standalone="no"?>
<!DOCTYPE svg PUBLIC "-//W3C//DTD SVG 1.1//EN"
 "http://www.w3.org/Graphics/SVG/1.1/DTD/svg11.dtd">
<!-- Generated by graphviz version 2.40.1 (20161225.0304)
 -->
<!-- Title: cxx::List_alloc::alloc_max Pages: 1 -->
<svg width="648pt" height="85pt"
 viewBox="0.00 0.00 648.00 85.00" xmlns="http://www.w3.org/2000/svg" xmlns:xlink="http://www.w3.org/1999/xlink">
<g id="graph0" class="graph" transform="scale(1 1) rotate(0) translate(4 81)">
<title>cxx::List_alloc::alloc_max</title>
<polygon fill="#ffffff" stroke="transparent" points="-4,4 -4,-81 644,-81 644,4 -4,4"/>
<!-- Node15 -->
<g id="node1" class="node">
<title>Node15</title>
<polygon fill="#bfbfbf" stroke="#000000" points="0,-38.5 0,-57.5 133,-57.5 133,-38.5 0,-38.5"/>
<text text-anchor="middle" x="66.5" y="-45.5" font-family="Helvetica,sans-Serif" font-size="10.00" fill="#000000">cxx::List_alloc::alloc_max</text>
</g>
<!-- Node16 -->
<g id="node2" class="node">
<title>Node16</title>
<g id="a_node2"><a xlink:href="group__l4__memory__api.html#gae876a4c6e0f21b2ecbf17863dc7d11e4" target="_top" xlink:title="Round value up to the next alignment with bits size. ">
<polygon fill="#ffffff" stroke="#000000" points="408,-57.5 408,-76.5 491,-76.5 491,-57.5 408,-57.5"/>
<text text-anchor="middle" x="449.5" y="-64.5" font-family="Helvetica,sans-Serif" font-size="10.00" fill="#000000">l4_round_size</text>
</a>
</g>
</g>
<!-- Node15&#45;&gt;Node16 -->
<g id="edge1" class="edge">
<title>Node15&#45;&gt;Node16</title>
<path fill="none" stroke="#191970" d="M108.1493,-57.5112C126.6727,-61.2764 148.815,-65.145 169,-67 248.4347,-74.3001 341.0582,-72.2581 397.47,-69.8404"/>
<polygon fill="#191970" stroke="#191970" points="397.7377,-73.332 407.5706,-69.3868 397.4236,-66.3391 397.7377,-73.332"/>
</g>
<!-- Node18 -->
<g id="node4" class="node">
<title>Node18</title>
<g id="a_node4"><a xlink:href="group__l4__memory__api.html#ga792959ba1e87fecf90018876f32d7bc9" target="_top" xlink:title="Round an address down to the next lower flex page with size bits. ">
<polygon fill="#ffffff" stroke="#000000" points="169,-38.5 169,-57.5 248,-57.5 248,-38.5 169,-38.5"/>
<text text-anchor="middle" x="208.5" y="-45.5" font-family="Helvetica,sans-Serif" font-size="10.00" fill="#000000">l4_trunc_size</text>
</a>
</g>
</g>
<!-- Node15&#45;&gt;Node18 -->
<g id="edge3" class="edge">
<title>Node15&#45;&gt;Node18</title>
<path fill="none" stroke="#191970" d="M133.342,-48C141.8392,-48 150.4162,-48 158.5837,-48"/>
<polygon fill="#191970" stroke="#191970" points="158.6736,-51.5001 168.6736,-48 158.6735,-44.5001 158.6736,-51.5001"/>
</g>
<!-- Node20 -->
<g id="node6" class="node">
<title>Node20</title>
<g id="a_node6"><a xlink:href="group__cxx__api.html#ga1d7a566ab5b06016155d693f91a7ee2d" target="_top" xlink:title="Get the maximum of a and b. ">
<polygon fill="#ffffff" stroke="#000000" points="180.5,-.5 180.5,-19.5 236.5,-19.5 236.5,-.5 180.5,-.5"/>
<text text-anchor="middle" x="208.5" y="-7.5" font-family="Helvetica,sans-Serif" font-size="10.00" fill="#000000">cxx::max</text>
</a>
</g>
</g>
<!-- Node15&#45;&gt;Node20 -->
<g id="edge6" class="edge">
<title>Node15&#45;&gt;Node20</title>
<path fill="none" stroke="#191970" d="M102.3326,-38.411C123.091,-32.8559 149.2152,-25.8649 170.3545,-20.2079"/>
<polygon fill="#191970" stroke="#191970" points="171.5309,-23.5164 180.2862,-17.5502 169.7213,-16.7543 171.5309,-23.5164"/>
</g>
<!-- Node17 -->
<g id="node3" class="node">
<title>Node17</title>
<g id="a_node3"><a xlink:href="group__l4__memory__api.html#ga2be30f4e5dde3c85d115d2a9c77f6215" target="_top" xlink:title="Determine how many machine words (l4_umword_t) are required to store a buffer of &#39;size&#39; bytes...">
<polygon fill="#ffffff" stroke="#000000" points="527,-57.5 527,-76.5 640,-76.5 640,-57.5 527,-57.5"/>
<text text-anchor="middle" x="583.5" y="-64.5" font-family="Helvetica,sans-Serif" font-size="10.00" fill="#000000">l4_bytes_to_mwords</text>
</a>
</g>
</g>
<!-- Node16&#45;&gt;Node17 -->
<g id="edge2" class="edge">
<title>Node16&#45;&gt;Node17</title>
<path fill="none" stroke="#191970" d="M491.1639,-67C499.2261,-67 507.8622,-67 516.4984,-67"/>
<polygon fill="#191970" stroke="#191970" points="516.6022,-70.5001 526.6021,-67 516.6021,-63.5001 516.6022,-70.5001"/>
</g>
<!-- Node19 -->
<g id="node5" class="node">
<title>Node19</title>
<g id="a_node5"><a xlink:href="group__l4__memory__api.html#ga96e3b2d8e69308aecbb11d1d24f61662" target="_top" xlink:title="Round address up to the next page. ">
<polygon fill="#ffffff" stroke="#000000" points="284,-38.5 284,-57.5 372,-57.5 372,-38.5 284,-38.5"/>
<text text-anchor="middle" x="328" y="-45.5" font-family="Helvetica,sans-Serif" font-size="10.00" fill="#000000">l4_round_page</text>
</a>
</g>
</g>
<!-- Node18&#45;&gt;Node19 -->
<g id="edge4" class="edge">
<title>Node18&#45;&gt;Node19</title>
<path fill="none" stroke="#191970" d="M248.2918,-48C256.4011,-48 265.0645,-48 273.5822,-48"/>
<polygon fill="#191970" stroke="#191970" points="273.8528,-51.5001 283.8527,-48 273.8527,-44.5001 273.8528,-51.5001"/>
</g>
<!-- Node19&#45;&gt;Node16 -->
<g id="edge5" class="edge">
<title>Node19&#45;&gt;Node16</title>
<path fill="none" stroke="#191970" d="M372.208,-54.9132C380.5961,-56.2249 389.4397,-57.6079 398.0297,-58.9512"/>
<polygon fill="#191970" stroke="#191970" points="397.5341,-62.4161 407.9548,-60.5032 398.6156,-55.5001 397.5341,-62.4161"/>
</g>
</g>
</svg>
