<?xml version="1.0" encoding="UTF-8" standalone="no"?>
<!DOCTYPE svg PUBLIC "-//W3C//DTD SVG 1.1//EN"
 "http://www.w3.org/Graphics/SVG/1.1/DTD/svg11.dtd">
<!-- Generated by graphviz version 2.40.1 (20161225.0304)
 -->
<!-- Title: L4::Vcon::read Pages: 1 -->
<svg width="219pt" height="66pt"
 viewBox="0.00 0.00 219.00 66.00" xmlns="http://www.w3.org/2000/svg" xmlns:xlink="http://www.w3.org/1999/xlink">
<g id="graph0" class="graph" transform="scale(1 1) rotate(0) translate(4 62)">
<title>L4::Vcon::read</title>
<polygon fill="#ffffff" stroke="transparent" points="-4,4 -4,-62 215,-62 215,4 -4,4"/>
<!-- Node4 -->
<g id="node1" class="node">
<title>Node4</title>
<polygon fill="#bfbfbf" stroke="#000000" points="0,-19.5 0,-38.5 83,-38.5 83,-19.5 0,-19.5"/>
<text text-anchor="middle" x="41.5" y="-26.5" font-family="Helvetica,sans-Serif" font-size="10.00" fill="#000000">L4::Vcon::read</text>
</g>
<!-- Node5 -->
<g id="node2" class="node">
<title>Node5</title>
<g id="a_node2"><a xlink:href="classL4_1_1Kobject.html#a4f2117ae76762f4084e6a1adb915863c" target="_top" xlink:title="Return capability selector. ">
<polygon fill="#ffffff" stroke="#000000" points="120.5,-38.5 120.5,-57.5 209.5,-57.5 209.5,-38.5 120.5,-38.5"/>
<text text-anchor="middle" x="165" y="-45.5" font-family="Helvetica,sans-Serif" font-size="10.00" fill="#000000">L4::Kobject::cap</text>
</a>
</g>
</g>
<!-- Node4&#45;&gt;Node5 -->
<g id="edge1" class="edge">
<title>Node4&#45;&gt;Node5</title>
<path fill="none" stroke="#191970" d="M83.3115,-35.4325C91.9547,-36.7623 101.1818,-38.1818 110.2081,-39.5705"/>
<polygon fill="#191970" stroke="#191970" points="109.8559,-43.0574 120.2718,-41.1187 110.9203,-36.1388 109.8559,-43.0574"/>
</g>
<!-- Node6 -->
<g id="node3" class="node">
<title>Node6</title>
<g id="a_node3"><a xlink:href="group__l4__vcon__api.html#gaac94d1d8c7650a94642d5d9254f418bc" target="_top" xlink:title="Read data from this virtual console. ">
<polygon fill="#ffffff" stroke="#000000" points="119,-.5 119,-19.5 211,-19.5 211,-.5 119,-.5"/>
<text text-anchor="middle" x="165" y="-7.5" font-family="Helvetica,sans-Serif" font-size="10.00" fill="#000000">l4_vcon_read_u</text>
</a>
</g>
</g>
<!-- Node4&#45;&gt;Node6 -->
<g id="edge2" class="edge">
<title>Node4&#45;&gt;Node6</title>
<path fill="none" stroke="#191970" d="M83.3115,-22.5675C91.56,-21.2985 100.3403,-19.9476 108.9703,-18.62"/>
<polygon fill="#191970" stroke="#191970" points="109.6397,-22.0582 118.9912,-17.0783 108.5753,-15.1396 109.6397,-22.0582"/>
</g>
</g>
</svg>
