<?xml version="1.0" encoding="UTF-8" standalone="no"?>
<!DOCTYPE svg PUBLIC "-//W3C//DTD SVG 1.1//EN"
 "http://www.w3.org/Graphics/SVG/1.1/DTD/svg11.dtd">
<!-- Generated by graphviz version 2.40.1 (20161225.0304)
 -->
<!-- Title: L4::Icu::bind Pages: 1 -->
<svg width="218pt" height="104pt"
 viewBox="0.00 0.00 218.00 104.00" xmlns="http://www.w3.org/2000/svg" xmlns:xlink="http://www.w3.org/1999/xlink">
<g id="graph0" class="graph" transform="scale(1 1) rotate(0) translate(4 100)">
<title>L4::Icu::bind</title>
<polygon fill="#ffffff" stroke="transparent" points="-4,4 -4,-100 214,-100 214,4 -4,4"/>
<!-- Node0 -->
<g id="node1" class="node">
<title>Node0</title>
<polygon fill="#bfbfbf" stroke="#000000" points="0,-38.5 0,-57.5 71,-57.5 71,-38.5 0,-38.5"/>
<text text-anchor="middle" x="35.5" y="-45.5" font-family="Helvetica,sans-Serif" font-size="10.00" fill="#000000">L4::Icu::bind</text>
</g>
<!-- Node1 -->
<g id="node2" class="node">
<title>Node1</title>
<g id="a_node2"><a xlink:href="classL4_1_1Cap__base.html#a90ff089ca2442b128c2b2b0e1c22c6d7" target="_top" xlink:title="Return capability selector. ">
<polygon fill="#ffffff" stroke="#000000" points="107,-76.5 107,-95.5 210,-95.5 210,-76.5 107,-76.5"/>
<text text-anchor="middle" x="158.5" y="-83.5" font-family="Helvetica,sans-Serif" font-size="10.00" fill="#000000">L4::Cap_base::cap</text>
</a>
</g>
</g>
<!-- Node0&#45;&gt;Node1 -->
<g id="edge1" class="edge">
<title>Node0&#45;&gt;Node1</title>
<path fill="none" stroke="#191970" d="M66.5381,-57.589C81.9792,-62.3594 100.8478,-68.1888 117.4661,-73.3229"/>
<polygon fill="#191970" stroke="#191970" points="116.8843,-76.8063 127.4718,-76.4141 118.9506,-70.1182 116.8843,-76.8063"/>
</g>
<!-- Node2 -->
<g id="node3" class="node">
<title>Node2</title>
<g id="a_node3"><a xlink:href="classL4_1_1Kobject.html#a4f2117ae76762f4084e6a1adb915863c" target="_top" xlink:title="Return capability selector. ">
<polygon fill="#ffffff" stroke="#000000" points="114,-38.5 114,-57.5 203,-57.5 203,-38.5 114,-38.5"/>
<text text-anchor="middle" x="158.5" y="-45.5" font-family="Helvetica,sans-Serif" font-size="10.00" fill="#000000">L4::Kobject::cap</text>
</a>
</g>
</g>
<!-- Node0&#45;&gt;Node2 -->
<g id="edge2" class="edge">
<title>Node0&#45;&gt;Node2</title>
<path fill="none" stroke="#191970" d="M71.0767,-48C81.2891,-48 92.6689,-48 103.7525,-48"/>
<polygon fill="#191970" stroke="#191970" points="103.8061,-51.5001 113.8061,-48 103.806,-44.5001 103.8061,-51.5001"/>
</g>
<!-- Node3 -->
<g id="node4" class="node">
<title>Node3</title>
<g id="a_node4"><a xlink:href="group__l4__icu__api.html#ga29217a67f405c5d860002dd902bf71e4" target="_top" xlink:title="Bind an interrupt line of an interrupt controller to an interrupt object. ">
<polygon fill="#ffffff" stroke="#000000" points="118.5,-.5 118.5,-19.5 198.5,-19.5 198.5,-.5 118.5,-.5"/>
<text text-anchor="middle" x="158.5" y="-7.5" font-family="Helvetica,sans-Serif" font-size="10.00" fill="#000000">l4_icu_bind_u</text>
</a>
</g>
</g>
<!-- Node0&#45;&gt;Node3 -->
<g id="edge3" class="edge">
<title>Node0&#45;&gt;Node3</title>
<path fill="none" stroke="#191970" d="M66.5381,-38.411C81.9792,-33.6406 100.8478,-27.8112 117.4661,-22.6771"/>
<polygon fill="#191970" stroke="#191970" points="118.9506,-25.8818 127.4718,-19.5859 116.8843,-19.1937 118.9506,-25.8818"/>
</g>
</g>
</svg>
