<?xml version="1.0" encoding="UTF-8" standalone="no"?>
<!DOCTYPE svg PUBLIC "-//W3C//DTD SVG 1.1//EN"
 "http://www.w3.org/Graphics/SVG/1.1/DTD/svg11.dtd">
<!-- Generated by graphviz version 2.40.1 (20161225.0304)
 -->
<!-- Title: L4virtio::Virtqueue::Desc Pages: 1 -->
<svg width="234pt" height="463pt"
 viewBox="0.00 0.00 233.50 463.00" xmlns="http://www.w3.org/2000/svg" xmlns:xlink="http://www.w3.org/1999/xlink">
<g id="graph0" class="graph" transform="scale(1 1) rotate(0) translate(4 459)">
<title>L4virtio::Virtqueue::Desc</title>
<polygon fill="#ffffff" stroke="transparent" points="-4,4 -4,-459 229.5,-459 229.5,4 -4,4"/>
<!-- Node1 -->
<g id="node1" class="node">
<title>Node1</title>
<polygon fill="#bfbfbf" stroke="#000000" points="28,-.5 28,-79.5 128,-79.5 128,-.5 28,-.5"/>
<text text-anchor="start" x="36" y="-67.5" font-family="Helvetica,sans-Serif" font-size="10.00" fill="#000000">L4virtio::Virtqueue</text>
<text text-anchor="middle" x="78" y="-56.5" font-family="Helvetica,sans-Serif" font-size="10.00" fill="#000000">::Desc</text>
<polyline fill="none" stroke="#000000" points="28,-49.5 128,-49.5 "/>
<text text-anchor="start" x="36" y="-37.5" font-family="Helvetica,sans-Serif" font-size="10.00" fill="#000000">+ len</text>
<text text-anchor="start" x="36" y="-26.5" font-family="Helvetica,sans-Serif" font-size="10.00" fill="#000000">+ next</text>
<polyline fill="none" stroke="#000000" points="28,-19.5 128,-19.5 "/>
<text text-anchor="start" x="36" y="-7.5" font-family="Helvetica,sans-Serif" font-size="10.00" fill="#000000">+ dump()</text>
</g>
<!-- Node2 -->
<g id="node2" class="node">
<title>Node2</title>
<g id="a_node2"><a xlink:href="structL4virtio_1_1Virtqueue_1_1Desc_1_1Flags.html" target="_top" xlink:title="Type for descriptor flags. ">
<polygon fill="#ffffff" stroke="#000000" points="0,-127.5 0,-305.5 100,-305.5 100,-127.5 0,-127.5"/>
<text text-anchor="start" x="8" y="-293.5" font-family="Helvetica,sans-Serif" font-size="10.00" fill="#000000">L4virtio::Virtqueue</text>
<text text-anchor="middle" x="50" y="-282.5" font-family="Helvetica,sans-Serif" font-size="10.00" fill="#000000">::Desc::Flags</text>
<polyline fill="none" stroke="#000000" points="0,-275.5 100,-275.5 "/>
<text text-anchor="start" x="8" y="-263.5" font-family="Helvetica,sans-Serif" font-size="10.00" fill="#000000">+ raw</text>
<polyline fill="none" stroke="#000000" points="0,-256.5 100,-256.5 "/>
<text text-anchor="start" x="8" y="-244.5" font-family="Helvetica,sans-Serif" font-size="10.00" fill="#000000">+ Flags()</text>
<text text-anchor="start" x="8" y="-233.5" font-family="Helvetica,sans-Serif" font-size="10.00" fill="#000000">+ Flags()</text>
<text text-anchor="start" x="8" y="-222.5" font-family="Helvetica,sans-Serif" font-size="10.00" fill="#000000">* next_bfm_t</text>
<text text-anchor="start" x="8" y="-211.5" font-family="Helvetica,sans-Serif" font-size="10.00" fill="#000000">* next()</text>
<text text-anchor="start" x="8" y="-200.5" font-family="Helvetica,sans-Serif" font-size="10.00" fill="#000000">* next()</text>
<text text-anchor="start" x="8" y="-189.5" font-family="Helvetica,sans-Serif" font-size="10.00" fill="#000000">* write_bfm_t</text>
<text text-anchor="start" x="8" y="-178.5" font-family="Helvetica,sans-Serif" font-size="10.00" fill="#000000">* write()</text>
<text text-anchor="start" x="8" y="-167.5" font-family="Helvetica,sans-Serif" font-size="10.00" fill="#000000">* write()</text>
<text text-anchor="start" x="8" y="-156.5" font-family="Helvetica,sans-Serif" font-size="10.00" fill="#000000">* indirect_bfm_t</text>
<text text-anchor="start" x="8" y="-145.5" font-family="Helvetica,sans-Serif" font-size="10.00" fill="#000000">* indirect()</text>
<text text-anchor="start" x="8" y="-134.5" font-family="Helvetica,sans-Serif" font-size="10.00" fill="#000000">* indirect()</text>
</a>
</g>
</g>
<!-- Node2&#45;&gt;Node1 -->
<g id="edge1" class="edge">
<title>Node2&#45;&gt;Node1</title>
<path fill="none" stroke="#404040" d="M64.123,-127.4744C66.0793,-115.1427 68.0324,-102.8312 69.8295,-91.5032"/>
<polygon fill="none" stroke="#404040" points="69.8308,-91.4945 66.8203,-84.9418 71.7111,-79.6427 74.7215,-86.1953 69.8308,-91.4945"/>
<text text-anchor="middle" x="85.5" y="-101" font-family="Helvetica,sans-Serif" font-size="10.00" fill="#000000"> +flags</text>
</g>
<!-- Node3 -->
<g id="node3" class="node">
<title>Node3</title>
<g id="a_node3"><a xlink:href="classL4virtio_1_1Ptr.html" target="_top" xlink:title="{L4virtio::Ptr\&lt; void \&gt;\n||+ Ptr()\l+ Ptr()\l+ Ptr()\l+ get()\l+ is_valid()\l}">
<polygon fill="#ffffff" stroke="#000000" points="118.5,-166 118.5,-267 225.5,-267 225.5,-166 118.5,-166"/>
<text text-anchor="middle" x="172" y="-255" font-family="Helvetica,sans-Serif" font-size="10.00" fill="#000000">L4virtio::Ptr&lt; void &gt;</text>
<polyline fill="none" stroke="#000000" points="118.5,-248 225.5,-248 "/>
<text text-anchor="middle" x="172" y="-236" font-family="Helvetica,sans-Serif" font-size="10.00" fill="#000000"> </text>
<polyline fill="none" stroke="#000000" points="118.5,-229 225.5,-229 "/>
<text text-anchor="start" x="126.5" y="-217" font-family="Helvetica,sans-Serif" font-size="10.00" fill="#000000">+ Ptr()</text>
<text text-anchor="start" x="126.5" y="-206" font-family="Helvetica,sans-Serif" font-size="10.00" fill="#000000">+ Ptr()</text>
<text text-anchor="start" x="126.5" y="-195" font-family="Helvetica,sans-Serif" font-size="10.00" fill="#000000">+ Ptr()</text>
<text text-anchor="start" x="126.5" y="-184" font-family="Helvetica,sans-Serif" font-size="10.00" fill="#000000">+ get()</text>
<text text-anchor="start" x="126.5" y="-173" font-family="Helvetica,sans-Serif" font-size="10.00" fill="#000000">+ is_valid()</text>
</a>
</g>
</g>
<!-- Node3&#45;&gt;Node1 -->
<g id="edge2" class="edge">
<title>Node3&#45;&gt;Node1</title>
<path fill="none" stroke="#404040" d="M145.0634,-165.9222C132.4649,-142.2666 117.4987,-114.1652 104.9043,-90.5172"/>
<polygon fill="none" stroke="#404040" points="104.7587,-90.2437 98.4078,-86.8282 99.1179,-79.6521 105.4688,-83.0676 104.7587,-90.2437"/>
<text text-anchor="middle" x="129" y="-101" font-family="Helvetica,sans-Serif" font-size="10.00" fill="#000000"> +addr</text>
</g>
<!-- Node4 -->
<g id="node4" class="node">
<title>Node4</title>
<g id="a_node4"><a xlink:href="classL4virtio_1_1Ptr.html" target="_top" xlink:title="Pointer used in virtio descriptors. ">
<polygon fill="#ffffff" stroke="#000000" points="125,-353.5 125,-454.5 219,-454.5 219,-353.5 125,-353.5"/>
<text text-anchor="middle" x="172" y="-442.5" font-family="Helvetica,sans-Serif" font-size="10.00" fill="#000000">L4virtio::Ptr&lt; T &gt;</text>
<polyline fill="none" stroke="#000000" points="125,-435.5 219,-435.5 "/>
<text text-anchor="middle" x="172" y="-423.5" font-family="Helvetica,sans-Serif" font-size="10.00" fill="#000000"> </text>
<polyline fill="none" stroke="#000000" points="125,-416.5 219,-416.5 "/>
<text text-anchor="start" x="133" y="-404.5" font-family="Helvetica,sans-Serif" font-size="10.00" fill="#000000">+ Ptr()</text>
<text text-anchor="start" x="133" y="-393.5" font-family="Helvetica,sans-Serif" font-size="10.00" fill="#000000">+ Ptr()</text>
<text text-anchor="start" x="133" y="-382.5" font-family="Helvetica,sans-Serif" font-size="10.00" fill="#000000">+ Ptr()</text>
<text text-anchor="start" x="133" y="-371.5" font-family="Helvetica,sans-Serif" font-size="10.00" fill="#000000">+ get()</text>
<text text-anchor="start" x="133" y="-360.5" font-family="Helvetica,sans-Serif" font-size="10.00" fill="#000000">+ is_valid()</text>
</a>
</g>
</g>
<!-- Node4&#45;&gt;Node3 -->
<g id="edge3" class="edge">
<title>Node4&#45;&gt;Node3</title>
<path fill="none" stroke="#ffa500" d="M172,-342.9999C172,-318.5192 172,-290.6309 172,-267.2808"/>
<polygon fill="#ffa500" stroke="#ffa500" points="168.5001,-343.2598 172,-353.2598 175.5001,-343.2598 168.5001,-343.2598"/>
<text text-anchor="middle" x="192.5" y="-327" font-family="Helvetica,sans-Serif" font-size="10.00" fill="#000000"> &lt; void &gt;</text>
</g>
</g>
</svg>
