<?xml version="1.0" encoding="UTF-8" standalone="no"?>
<!DOCTYPE svg PUBLIC "-//W3C//DTD SVG 1.1//EN"
 "http://www.w3.org/Graphics/SVG/1.1/DTD/svg11.dtd">
<!-- Generated by graphviz version 2.40.1 (20161225.0304)
 -->
<!-- Title: L4vbus::Device Pages: 1 -->
<svg width="317pt" height="800pt"
 viewBox="0.00 0.00 316.50 800.00" xmlns="http://www.w3.org/2000/svg" xmlns:xlink="http://www.w3.org/1999/xlink">
<g id="graph0" class="graph" transform="scale(1 1) rotate(0) translate(4 796)">
<title>L4vbus::Device</title>
<polygon fill="#ffffff" stroke="transparent" points="-4,4 -4,-796 312.5,-796 312.5,4 -4,4"/>
<!-- Node8 -->
<g id="node1" class="node">
<title>Node8</title>
<polygon fill="#bfbfbf" stroke="#000000" points="80,-.5 80,-167.5 181,-167.5 181,-.5 80,-.5"/>
<text text-anchor="middle" x="130.5" y="-155.5" font-family="Helvetica,sans-Serif" font-size="10.00" fill="#000000">L4vbus::Device</text>
<polyline fill="none" stroke="#000000" points="80,-148.5 181,-148.5 "/>
<text text-anchor="start" x="88" y="-136.5" font-family="Helvetica,sans-Serif" font-size="10.00" fill="#000000"># _dev</text>
<polyline fill="none" stroke="#000000" points="80,-129.5 181,-129.5 "/>
<text text-anchor="start" x="88" y="-117.5" font-family="Helvetica,sans-Serif" font-size="10.00" fill="#000000">+ Device()</text>
<text text-anchor="start" x="88" y="-106.5" font-family="Helvetica,sans-Serif" font-size="10.00" fill="#000000">+ Device()</text>
<text text-anchor="start" x="88" y="-95.5" font-family="Helvetica,sans-Serif" font-size="10.00" fill="#000000">+ bus_cap()</text>
<text text-anchor="start" x="88" y="-84.5" font-family="Helvetica,sans-Serif" font-size="10.00" fill="#000000">+ dev_handle()</text>
<text text-anchor="start" x="88" y="-73.5" font-family="Helvetica,sans-Serif" font-size="10.00" fill="#000000">+ device_by_hid()</text>
<text text-anchor="start" x="88" y="-62.5" font-family="Helvetica,sans-Serif" font-size="10.00" fill="#000000">+ next_device()</text>
<text text-anchor="start" x="88" y="-51.5" font-family="Helvetica,sans-Serif" font-size="10.00" fill="#000000">+ device()</text>
<text text-anchor="start" x="88" y="-40.5" font-family="Helvetica,sans-Serif" font-size="10.00" fill="#000000">+ get_resource()</text>
<text text-anchor="start" x="88" y="-29.5" font-family="Helvetica,sans-Serif" font-size="10.00" fill="#000000">+ is_compatible()</text>
<text text-anchor="start" x="88" y="-18.5" font-family="Helvetica,sans-Serif" font-size="10.00" fill="#000000">+ operator==()</text>
<text text-anchor="start" x="88" y="-7.5" font-family="Helvetica,sans-Serif" font-size="10.00" fill="#000000">+ operator!=()</text>
</g>
<!-- Node9 -->
<g id="node2" class="node">
<title>Node9</title>
<g id="a_node2"><a xlink:href="classL4vbus_1_1Pm.html" target="_top" xlink:title="{L4vbus::Pm\&lt; Device \&gt;\n||+ pm_suspend()\l+ pm_resume()\l}">
<polygon fill="#ffffff" stroke="#000000" points="0,-248.5 0,-316.5 119,-316.5 119,-248.5 0,-248.5"/>
<text text-anchor="middle" x="59.5" y="-304.5" font-family="Helvetica,sans-Serif" font-size="10.00" fill="#000000">L4vbus::Pm&lt; Device &gt;</text>
<polyline fill="none" stroke="#000000" points="0,-297.5 119,-297.5 "/>
<text text-anchor="middle" x="59.5" y="-285.5" font-family="Helvetica,sans-Serif" font-size="10.00" fill="#000000"> </text>
<polyline fill="none" stroke="#000000" points="0,-278.5 119,-278.5 "/>
<text text-anchor="start" x="8" y="-266.5" font-family="Helvetica,sans-Serif" font-size="10.00" fill="#000000">+ pm_suspend()</text>
<text text-anchor="start" x="8" y="-255.5" font-family="Helvetica,sans-Serif" font-size="10.00" fill="#000000">+ pm_resume()</text>
</a>
</g>
</g>
<!-- Node9&#45;&gt;Node8 -->
<g id="edge1" class="edge">
<title>Node9&#45;&gt;Node8</title>
<path fill="none" stroke="#191970" d="M75.1225,-238.8231C82.6088,-217.8929 91.8355,-192.0973 100.5958,-167.6054"/>
<polygon fill="none" stroke="#191970" points="71.7777,-237.782 71.7053,-248.3766 78.3688,-240.1396 71.7777,-237.782"/>
</g>
<!-- Node10 -->
<g id="node3" class="node">
<title>Node10</title>
<g id="a_node3"><a xlink:href="classL4vbus_1_1Pm.html" target="_top" xlink:title="Power&#45;management API mixin. ">
<polygon fill="#ffffff" stroke="#000000" points="5,-430.5 5,-498.5 114,-498.5 114,-430.5 5,-430.5"/>
<text text-anchor="middle" x="59.5" y="-486.5" font-family="Helvetica,sans-Serif" font-size="10.00" fill="#000000">L4vbus::Pm&lt; DEC &gt;</text>
<polyline fill="none" stroke="#000000" points="5,-479.5 114,-479.5 "/>
<text text-anchor="middle" x="59.5" y="-467.5" font-family="Helvetica,sans-Serif" font-size="10.00" fill="#000000"> </text>
<polyline fill="none" stroke="#000000" points="5,-460.5 114,-460.5 "/>
<text text-anchor="start" x="13" y="-448.5" font-family="Helvetica,sans-Serif" font-size="10.00" fill="#000000">+ pm_suspend()</text>
<text text-anchor="start" x="13" y="-437.5" font-family="Helvetica,sans-Serif" font-size="10.00" fill="#000000">+ pm_resume()</text>
</a>
</g>
</g>
<!-- Node10&#45;&gt;Node9 -->
<g id="edge2" class="edge">
<title>Node10&#45;&gt;Node9</title>
<path fill="none" stroke="#ffa500" d="M59.5,-419.888C59.5,-388.011 59.5,-345.7676 59.5,-316.5793"/>
<polygon fill="#ffa500" stroke="#ffa500" points="56.0001,-420.2672 59.5,-430.2672 63.0001,-420.2672 56.0001,-420.2672"/>
<text text-anchor="middle" x="86.5" y="-371" font-family="Helvetica,sans-Serif" font-size="10.00" fill="#000000"> &lt; Device &gt;</text>
</g>
<!-- Node11 -->
<g id="node4" class="node">
<title>Node11</title>
<g id="a_node4"><a xlink:href="classL4_1_1Cap.html" target="_top" xlink:title="{L4::Cap\&lt; L4vbus::Vbus \&gt;\n||+ Cap()\l+ Cap()\l+ Cap()\l+ Cap()\l+ Cap()\l+ move()\l+ copy()\l+ operator&#45;\&gt;()\l}">
<polygon fill="#ffffff" stroke="#000000" points="137,-215.5 137,-349.5 268,-349.5 268,-215.5 137,-215.5"/>
<text text-anchor="middle" x="202.5" y="-337.5" font-family="Helvetica,sans-Serif" font-size="10.00" fill="#000000">L4::Cap&lt; L4vbus::Vbus &gt;</text>
<polyline fill="none" stroke="#000000" points="137,-330.5 268,-330.5 "/>
<text text-anchor="middle" x="202.5" y="-318.5" font-family="Helvetica,sans-Serif" font-size="10.00" fill="#000000"> </text>
<polyline fill="none" stroke="#000000" points="137,-311.5 268,-311.5 "/>
<text text-anchor="start" x="145" y="-299.5" font-family="Helvetica,sans-Serif" font-size="10.00" fill="#000000">+ Cap()</text>
<text text-anchor="start" x="145" y="-288.5" font-family="Helvetica,sans-Serif" font-size="10.00" fill="#000000">+ Cap()</text>
<text text-anchor="start" x="145" y="-277.5" font-family="Helvetica,sans-Serif" font-size="10.00" fill="#000000">+ Cap()</text>
<text text-anchor="start" x="145" y="-266.5" font-family="Helvetica,sans-Serif" font-size="10.00" fill="#000000">+ Cap()</text>
<text text-anchor="start" x="145" y="-255.5" font-family="Helvetica,sans-Serif" font-size="10.00" fill="#000000">+ Cap()</text>
<text text-anchor="start" x="145" y="-244.5" font-family="Helvetica,sans-Serif" font-size="10.00" fill="#000000">+ move()</text>
<text text-anchor="start" x="145" y="-233.5" font-family="Helvetica,sans-Serif" font-size="10.00" fill="#000000">+ copy()</text>
<text text-anchor="start" x="145" y="-222.5" font-family="Helvetica,sans-Serif" font-size="10.00" fill="#000000">+ operator&#45;&gt;()</text>
</a>
</g>
</g>
<!-- Node11&#45;&gt;Node8 -->
<g id="edge3" class="edge">
<title>Node11&#45;&gt;Node8</title>
<path fill="none" stroke="#404040" d="M178.1241,-215.297C173.9195,-203.7052 169.4779,-191.46 165.0652,-179.2943"/>
<polygon fill="none" stroke="#404040" points="164.9437,-178.9593 159.1375,-174.6828 160.8519,-167.6784 166.6581,-171.9549 164.9437,-178.9593"/>
<text text-anchor="middle" x="187" y="-189" font-family="Helvetica,sans-Serif" font-size="10.00" fill="#000000"> #_bus</text>
</g>
<!-- Node12 -->
<g id="node5" class="node">
<title>Node12</title>
<g id="a_node5"><a xlink:href="classL4_1_1Cap__base.html" target="_top" xlink:title="Base class for all kinds of capabilities. ">
<polygon fill="#ffffff" stroke="#000000" points="104.5,-569.5 104.5,-791.5 278.5,-791.5 278.5,-569.5 104.5,-569.5"/>
<text text-anchor="middle" x="191.5" y="-779.5" font-family="Helvetica,sans-Serif" font-size="10.00" fill="#000000">L4::Cap_base</text>
<polyline fill="none" stroke="#000000" points="104.5,-772.5 278.5,-772.5 "/>
<text text-anchor="start" x="112.5" y="-760.5" font-family="Helvetica,sans-Serif" font-size="10.00" fill="#000000"># _c</text>
<polyline fill="none" stroke="#000000" points="104.5,-753.5 278.5,-753.5 "/>
<text text-anchor="start" x="112.5" y="-741.5" font-family="Helvetica,sans-Serif" font-size="10.00" fill="#000000">+ cap()</text>
<text text-anchor="start" x="112.5" y="-730.5" font-family="Helvetica,sans-Serif" font-size="10.00" fill="#000000">+ is_valid()</text>
<text text-anchor="start" x="112.5" y="-719.5" font-family="Helvetica,sans-Serif" font-size="10.00" fill="#000000">+ operator Invalid_conversion *()</text>
<text text-anchor="start" x="112.5" y="-708.5" font-family="Helvetica,sans-Serif" font-size="10.00" fill="#000000">+ fpage()</text>
<text text-anchor="start" x="112.5" y="-697.5" font-family="Helvetica,sans-Serif" font-size="10.00" fill="#000000">+ snd_base()</text>
<text text-anchor="start" x="112.5" y="-686.5" font-family="Helvetica,sans-Serif" font-size="10.00" fill="#000000">+ operator==()</text>
<text text-anchor="start" x="112.5" y="-675.5" font-family="Helvetica,sans-Serif" font-size="10.00" fill="#000000">+ operator!=()</text>
<text text-anchor="start" x="112.5" y="-664.5" font-family="Helvetica,sans-Serif" font-size="10.00" fill="#000000">+ validate()</text>
<text text-anchor="start" x="112.5" y="-653.5" font-family="Helvetica,sans-Serif" font-size="10.00" fill="#000000">+ validate()</text>
<text text-anchor="start" x="112.5" y="-642.5" font-family="Helvetica,sans-Serif" font-size="10.00" fill="#000000">+ invalidate()</text>
<text text-anchor="start" x="112.5" y="-631.5" font-family="Helvetica,sans-Serif" font-size="10.00" fill="#000000"># Cap_base()</text>
<text text-anchor="start" x="112.5" y="-620.5" font-family="Helvetica,sans-Serif" font-size="10.00" fill="#000000"># Cap_base()</text>
<text text-anchor="start" x="112.5" y="-609.5" font-family="Helvetica,sans-Serif" font-size="10.00" fill="#000000"># Cap_base()</text>
<text text-anchor="start" x="112.5" y="-598.5" font-family="Helvetica,sans-Serif" font-size="10.00" fill="#000000"># Cap_base()</text>
<text text-anchor="start" x="112.5" y="-587.5" font-family="Helvetica,sans-Serif" font-size="10.00" fill="#000000"># move()</text>
<text text-anchor="start" x="112.5" y="-576.5" font-family="Helvetica,sans-Serif" font-size="10.00" fill="#000000"># copy()</text>
</a>
</g>
</g>
<!-- Node12&#45;&gt;Node11 -->
<g id="edge4" class="edge">
<title>Node12&#45;&gt;Node11</title>
<path fill="none" stroke="#191970" d="M194.223,-559.1669C195.4206,-508.9708 196.9147,-450.1762 198.5,-397 198.9564,-381.691 199.5001,-365.2326 200.0373,-349.7012"/>
<polygon fill="none" stroke="#191970" points="190.7182,-559.3341 193.9798,-569.4143 197.7162,-559.5002 190.7182,-559.3341"/>
</g>
<!-- Node13 -->
<g id="node6" class="node">
<title>Node13</title>
<g id="a_node6"><a xlink:href="classL4_1_1Cap.html" target="_top" xlink:title="C++ interface for capabilities. ">
<polygon fill="#ffffff" stroke="#000000" points="208,-397.5 208,-531.5 291,-531.5 291,-397.5 208,-397.5"/>
<text text-anchor="middle" x="249.5" y="-519.5" font-family="Helvetica,sans-Serif" font-size="10.00" fill="#000000">L4::Cap&lt; T &gt;</text>
<polyline fill="none" stroke="#000000" points="208,-512.5 291,-512.5 "/>
<text text-anchor="middle" x="249.5" y="-500.5" font-family="Helvetica,sans-Serif" font-size="10.00" fill="#000000"> </text>
<polyline fill="none" stroke="#000000" points="208,-493.5 291,-493.5 "/>
<text text-anchor="start" x="216" y="-481.5" font-family="Helvetica,sans-Serif" font-size="10.00" fill="#000000">+ Cap()</text>
<text text-anchor="start" x="216" y="-470.5" font-family="Helvetica,sans-Serif" font-size="10.00" fill="#000000">+ Cap()</text>
<text text-anchor="start" x="216" y="-459.5" font-family="Helvetica,sans-Serif" font-size="10.00" fill="#000000">+ Cap()</text>
<text text-anchor="start" x="216" y="-448.5" font-family="Helvetica,sans-Serif" font-size="10.00" fill="#000000">+ Cap()</text>
<text text-anchor="start" x="216" y="-437.5" font-family="Helvetica,sans-Serif" font-size="10.00" fill="#000000">+ Cap()</text>
<text text-anchor="start" x="216" y="-426.5" font-family="Helvetica,sans-Serif" font-size="10.00" fill="#000000">+ move()</text>
<text text-anchor="start" x="216" y="-415.5" font-family="Helvetica,sans-Serif" font-size="10.00" fill="#000000">+ copy()</text>
<text text-anchor="start" x="216" y="-404.5" font-family="Helvetica,sans-Serif" font-size="10.00" fill="#000000">+ operator&#45;&gt;()</text>
</a>
</g>
</g>
<!-- Node12&#45;&gt;Node13 -->
<g id="edge6" class="edge">
<title>Node12&#45;&gt;Node13</title>
<path fill="none" stroke="#191970" d="M224.005,-559.4468C226.5438,-549.992 229.0462,-540.6727 231.4329,-531.7844"/>
<polygon fill="none" stroke="#191970" points="220.5626,-558.7708 221.3495,-569.3363 227.3232,-560.5861 220.5626,-558.7708"/>
</g>
<!-- Node13&#45;&gt;Node11 -->
<g id="edge5" class="edge">
<title>Node13&#45;&gt;Node11</title>
<path fill="none" stroke="#ffa500" d="M229.5714,-387.3297C226.3475,-374.8456 223.0317,-362.0059 219.8746,-349.7802"/>
<polygon fill="#ffa500" stroke="#ffa500" points="226.2432,-388.4398 232.1325,-397.247 233.0208,-386.6895 226.2432,-388.4398"/>
<text text-anchor="middle" x="267.5" y="-371" font-family="Helvetica,sans-Serif" font-size="10.00" fill="#000000"> &lt; L4vbus::Vbus &gt;</text>
</g>
</g>
</svg>
