<?xml version="1.0" encoding="UTF-8" standalone="no"?>
<!DOCTYPE svg PUBLIC "-//W3C//DTD SVG 1.1//EN"
 "http://www.w3.org/Graphics/SVG/1.1/DTD/svg11.dtd">
<!-- Generated by graphviz version 2.40.1 (20161225.0304)
 -->
<!-- Title: L4virtio::Svr::Request_processor::next Pages: 1 -->
<svg width="267pt" height="39pt"
 viewBox="0.00 0.00 267.00 39.00" xmlns="http://www.w3.org/2000/svg" xmlns:xlink="http://www.w3.org/1999/xlink">
<g id="graph0" class="graph" transform="scale(1 1) rotate(0) translate(4 35)">
<title>L4virtio::Svr::Request_processor::next</title>
<polygon fill="#ffffff" stroke="transparent" points="-4,4 -4,-35 263,-35 263,4 -4,4"/>
<!-- Node9 -->
<g id="node1" class="node">
<title>Node9</title>
<polygon fill="#bfbfbf" stroke="#000000" points="0,-.5 0,-30.5 115,-30.5 115,-.5 0,-.5"/>
<text text-anchor="start" x="8" y="-18.5" font-family="Helvetica,sans-Serif" font-size="10.00" fill="#000000">L4virtio::Svr::Request</text>
<text text-anchor="middle" x="57.5" y="-7.5" font-family="Helvetica,sans-Serif" font-size="10.00" fill="#000000">_processor::next</text>
</g>
<!-- Node10 -->
<g id="node2" class="node">
<title>Node10</title>
<g id="a_node2"><a xlink:href="classL4virtio_1_1Svr_1_1Block__request.html#a5f6bf664cda7dfe4f82d8726f6c33099" target="_top" xlink:title="Compute the total size of the data in the request. ">
<polygon fill="#ffffff" stroke="#000000" points="151,-.5 151,-30.5 259,-30.5 259,-.5 151,-.5"/>
<text text-anchor="start" x="159" y="-18.5" font-family="Helvetica,sans-Serif" font-size="10.00" fill="#000000">L4virtio::Svr::Block</text>
<text text-anchor="middle" x="205" y="-7.5" font-family="Helvetica,sans-Serif" font-size="10.00" fill="#000000">_request::data_size</text>
</a>
</g>
</g>
<!-- Node9&#45;&gt;Node10 -->
<g id="edge1" class="edge">
<title>Node9&#45;&gt;Node10</title>
<path fill="none" stroke="#191970" d="M125.5598,-15.5C133.9763,-15.5 142.4922,-15.5 150.6656,-15.5"/>
<polygon fill="#191970" stroke="#191970" points="125.3726,-12.0001 115.3726,-15.5 125.3725,-19.0001 125.3726,-12.0001"/>
</g>
</g>
</svg>
