<?xml version="1.0" encoding="UTF-8" standalone="no"?>
<!DOCTYPE svg PUBLIC "-//W3C//DTD SVG 1.1//EN"
 "http://www.w3.org/Graphics/SVG/1.1/DTD/svg11.dtd">
<!-- Generated by graphviz version 2.40.1 (20161225.0304)
 -->
<!-- Title: L4Re::Dataspace::map_region Pages: 1 -->
<svg width="382pt" height="53pt"
 viewBox="0.00 0.00 382.00 52.50" xmlns="http://www.w3.org/2000/svg" xmlns:xlink="http://www.w3.org/1999/xlink">
<g id="graph0" class="graph" transform="scale(1 1) rotate(0) translate(4 48.5)">
<title>L4Re::Dataspace::map_region</title>
<polygon fill="#ffffff" stroke="transparent" points="-4,4 -4,-48.5 378,-48.5 378,4 -4,4"/>
<!-- Node12 -->
<g id="node1" class="node">
<title>Node12</title>
<polygon fill="#bfbfbf" stroke="#000000" points="0,-.5 0,-30.5 122,-30.5 122,-.5 0,-.5"/>
<text text-anchor="start" x="8" y="-18.5" font-family="Helvetica,sans-Serif" font-size="10.00" fill="#000000">L4Re::Dataspace::map</text>
<text text-anchor="middle" x="61" y="-7.5" font-family="Helvetica,sans-Serif" font-size="10.00" fill="#000000">_region</text>
</g>
<!-- Node13 -->
<g id="node2" class="node">
<title>Node13</title>
<g id="a_node2"><a xlink:href="namespaceL4.html#a92c0d3febc3cd6b35aa072d1bf2d9d11" target="_top" xlink:title="Round a value up so the given number of lsb is zero. ">
<polygon fill="#ffffff" stroke="#000000" points="158,-25 158,-44 250,-44 250,-25 158,-25"/>
<text text-anchor="middle" x="204" y="-32" font-family="Helvetica,sans-Serif" font-size="10.00" fill="#000000">L4::round_order</text>
</a>
</g>
</g>
<!-- Node12&#45;&gt;Node13 -->
<g id="edge1" class="edge">
<title>Node12&#45;&gt;Node13</title>
<path fill="none" stroke="#191970" d="M122.0597,-23.6128C130.5867,-24.7458 139.3162,-25.9057 147.749,-27.0261"/>
<polygon fill="#191970" stroke="#191970" points="147.4804,-30.5211 157.8543,-28.3687 148.4024,-23.5821 147.4804,-30.5211"/>
</g>
<!-- Node14 -->
<g id="node3" class="node">
<title>Node14</title>
<g id="a_node3"><a xlink:href="namespaceL4.html#a9e6e01651b5cc9d14d8436c6d5d46536" target="_top" xlink:title="Round a value down so the given number of lsb is zero. ">
<polygon fill="#ffffff" stroke="#000000" points="286,-6 286,-25 374,-25 374,-6 286,-6"/>
<text text-anchor="middle" x="330" y="-13" font-family="Helvetica,sans-Serif" font-size="10.00" fill="#000000">L4::trunc_order</text>
</a>
</g>
</g>
<!-- Node12&#45;&gt;Node14 -->
<g id="edge3" class="edge">
<title>Node12&#45;&gt;Node14</title>
<path fill="none" stroke="#191970" d="M122.0403,-15.5C168.3471,-15.5 231.4121,-15.5 275.9159,-15.5"/>
<polygon fill="#191970" stroke="#191970" points="275.9613,-19.0001 285.9612,-15.5 275.9612,-12.0001 275.9613,-19.0001"/>
</g>
<!-- Node13&#45;&gt;Node14 -->
<g id="edge2" class="edge">
<title>Node13&#45;&gt;Node14</title>
<path fill="none" stroke="#191970" d="M250.2023,-27.533C258.5822,-26.2694 267.3899,-24.9412 275.9709,-23.6472"/>
<polygon fill="#191970" stroke="#191970" points="276.5346,-27.1019 285.9009,-22.1499 275.4908,-20.1802 276.5346,-27.1019"/>
</g>
</g>
</svg>
