<?xml version="1.0" encoding="UTF-8" standalone="no"?>
<!DOCTYPE svg PUBLIC "-//W3C//DTD SVG 1.1//EN"
 "http://www.w3.org/Graphics/SVG/1.1/DTD/svg11.dtd">
<!-- Generated by graphviz version 2.40.1 (20161225.0304)
 -->
<!-- Title: L4Re::Vfs::Mman Pages: 1 -->
<svg width="103pt" height="259pt"
 viewBox="0.00 0.00 103.00 259.00" xmlns="http://www.w3.org/2000/svg" xmlns:xlink="http://www.w3.org/1999/xlink">
<g id="graph0" class="graph" transform="scale(1 1) rotate(0) translate(4 255)">
<title>L4Re::Vfs::Mman</title>
<polygon fill="#ffffff" stroke="transparent" points="-4,4 -4,-255 99,-255 99,4 -4,4"/>
<!-- Node0 -->
<g id="node1" class="node">
<title>Node0</title>
<polygon fill="#bfbfbf" stroke="#000000" points="0,-127.5 0,-250.5 95,-250.5 95,-127.5 0,-127.5"/>
<text text-anchor="middle" x="47.5" y="-238.5" font-family="Helvetica,sans-Serif" font-size="10.00" fill="#000000">L4Re::Vfs::Mman</text>
<polyline fill="none" stroke="#000000" points="0,-231.5 95,-231.5 "/>
<text text-anchor="middle" x="47.5" y="-219.5" font-family="Helvetica,sans-Serif" font-size="10.00" fill="#000000"> </text>
<polyline fill="none" stroke="#000000" points="0,-212.5 95,-212.5 "/>
<text text-anchor="start" x="8" y="-200.5" font-family="Helvetica,sans-Serif" font-size="10.00" fill="#000000">+ mmap2()</text>
<text text-anchor="start" x="8" y="-189.5" font-family="Helvetica,sans-Serif" font-size="10.00" fill="#000000">+ munmap()</text>
<text text-anchor="start" x="8" y="-178.5" font-family="Helvetica,sans-Serif" font-size="10.00" fill="#000000">+ mremap()</text>
<text text-anchor="start" x="8" y="-167.5" font-family="Helvetica,sans-Serif" font-size="10.00" fill="#000000">+ mprotect()</text>
<text text-anchor="start" x="8" y="-156.5" font-family="Helvetica,sans-Serif" font-size="10.00" fill="#000000">+ msync()</text>
<text text-anchor="start" x="8" y="-145.5" font-family="Helvetica,sans-Serif" font-size="10.00" fill="#000000">+ madvise()</text>
<text text-anchor="start" x="8" y="-134.5" font-family="Helvetica,sans-Serif" font-size="10.00" fill="#000000">+ ~Mman()</text>
</g>
<!-- Node1 -->
<g id="node2" class="node">
<title>Node1</title>
<g id="a_node2"><a xlink:href="classL4Re_1_1Vfs_1_1Ops.html" target="_top" xlink:title="Interface for the POSIX backends for an application. ">
<polygon fill="#ffffff" stroke="#000000" points="4.5,-.5 4.5,-90.5 90.5,-90.5 90.5,-.5 4.5,-.5"/>
<text text-anchor="middle" x="47.5" y="-78.5" font-family="Helvetica,sans-Serif" font-size="10.00" fill="#000000">L4Re::Vfs::Ops</text>
<polyline fill="none" stroke="#000000" points="4.5,-71.5 90.5,-71.5 "/>
<text text-anchor="middle" x="47.5" y="-59.5" font-family="Helvetica,sans-Serif" font-size="10.00" fill="#000000"> </text>
<polyline fill="none" stroke="#000000" points="4.5,-52.5 90.5,-52.5 "/>
<text text-anchor="start" x="12.5" y="-40.5" font-family="Helvetica,sans-Serif" font-size="10.00" fill="#000000">+ malloc()</text>
<text text-anchor="start" x="12.5" y="-29.5" font-family="Helvetica,sans-Serif" font-size="10.00" fill="#000000">+ free()</text>
<text text-anchor="start" x="12.5" y="-18.5" font-family="Helvetica,sans-Serif" font-size="10.00" fill="#000000">+ ~Ops()</text>
<text text-anchor="start" x="12.5" y="-7.5" font-family="Helvetica,sans-Serif" font-size="10.00" fill="#000000">+ strndup()</text>
</a>
</g>
</g>
<!-- Node0&#45;&gt;Node1 -->
<g id="edge1" class="edge">
<title>Node0&#45;&gt;Node1</title>
<path fill="none" stroke="#191970" d="M47.5,-117.1555C47.5,-108.135 47.5,-99.1166 47.5,-90.6704"/>
<polygon fill="none" stroke="#191970" points="44.0001,-117.3102 47.5,-127.3103 51.0001,-117.3103 44.0001,-117.3102"/>
</g>
</g>
</svg>
