<?xml version="1.0" encoding="UTF-8" standalone="no"?>
<!DOCTYPE svg PUBLIC "-//W3C//DTD SVG 1.1//EN"
 "http://www.w3.org/Graphics/SVG/1.1/DTD/svg11.dtd">
<!-- Generated by graphviz version 2.40.1 (20161225.0304)
 -->
<!-- Title: cxx::Bitmap_base::operator[] Pages: 1 -->
<svg width="506pt" height="39pt"
 viewBox="0.00 0.00 506.00 39.00" xmlns="http://www.w3.org/2000/svg" xmlns:xlink="http://www.w3.org/1999/xlink">
<g id="graph0" class="graph" transform="scale(1 1) rotate(0) translate(4 35)">
<title>cxx::Bitmap_base::operator[]</title>
<polygon fill="#ffffff" stroke="transparent" points="-4,4 -4,-35 502,-35 502,4 -4,4"/>
<!-- Node26 -->
<g id="node1" class="node">
<title>Node26</title>
<polygon fill="#bfbfbf" stroke="#000000" points="0,-6 0,-25 149,-25 149,-6 0,-6"/>
<text text-anchor="middle" x="74.5" y="-13" font-family="Helvetica,sans-Serif" font-size="10.00" fill="#000000">cxx::Bitmap_base::operator[]</text>
</g>
<!-- Node27 -->
<g id="node2" class="node">
<title>Node27</title>
<g id="a_node2"><a xlink:href="classcxx_1_1Bitmap__base.html#a1d6b445c937da45a056416e90643288e" target="_top" xlink:title="Scan for the first zero bit. ">
<polygon fill="#ffffff" stroke="#000000" points="185,-6 185,-25 337,-25 337,-6 185,-6"/>
<text text-anchor="middle" x="261" y="-13" font-family="Helvetica,sans-Serif" font-size="10.00" fill="#000000">cxx::Bitmap_base::scan_zero</text>
</a>
</g>
</g>
<!-- Node26&#45;&gt;Node27 -->
<g id="edge1" class="edge">
<title>Node26&#45;&gt;Node27</title>
<path fill="none" stroke="#191970" d="M149.0138,-15.5C157.473,-15.5 166.1468,-15.5 174.7409,-15.5"/>
<polygon fill="#191970" stroke="#191970" points="174.7756,-19.0001 184.7755,-15.5 174.7755,-12.0001 174.7756,-19.0001"/>
</g>
<!-- Node28 -->
<g id="node3" class="node">
<title>Node28</title>
<g id="a_node3"><a xlink:href="classcxx_1_1Bitmap__base.html#a7a9d9e1459ab5508c071f3989c3bbf4e" target="_top" xlink:title="Get the word index for the given bit. ">
<polygon fill="#ffffff" stroke="#000000" points="373,-.5 373,-30.5 498,-30.5 498,-.5 373,-.5"/>
<text text-anchor="start" x="381" y="-18.5" font-family="Helvetica,sans-Serif" font-size="10.00" fill="#000000">cxx::Bitmap_base::word</text>
<text text-anchor="middle" x="435.5" y="-7.5" font-family="Helvetica,sans-Serif" font-size="10.00" fill="#000000">_index</text>
</a>
</g>
</g>
<!-- Node27&#45;&gt;Node28 -->
<g id="edge2" class="edge">
<title>Node27&#45;&gt;Node28</title>
<path fill="none" stroke="#191970" d="M337.0306,-15.5C345.519,-15.5 354.1515,-15.5 362.5994,-15.5"/>
<polygon fill="#191970" stroke="#191970" points="362.7904,-19.0001 372.7904,-15.5 362.7904,-12.0001 362.7904,-19.0001"/>
</g>
</g>
</svg>
