<?xml version="1.0" encoding="UTF-8" standalone="no"?>
<!DOCTYPE svg PUBLIC "-//W3C//DTD SVG 1.1//EN"
 "http://www.w3.org/Graphics/SVG/1.1/DTD/svg11.dtd">
<!-- Generated by graphviz version 2.40.1 (20161225.0304)
 -->
<!-- Title: L4::Ipc::Ostream::put Pages: 1 -->
<svg width="358pt" height="78pt"
 viewBox="0.00 0.00 358.00 77.50" xmlns="http://www.w3.org/2000/svg" xmlns:xlink="http://www.w3.org/1999/xlink">
<g id="graph0" class="graph" transform="scale(1 1) rotate(0) translate(4 73.5)">
<title>L4::Ipc::Ostream::put</title>
<polygon fill="#ffffff" stroke="transparent" points="-4,4 -4,-73.5 354,-73.5 354,4 -4,4"/>
<!-- Node1 -->
<g id="node1" class="node">
<title>Node1</title>
<polygon fill="#bfbfbf" stroke="#000000" points="0,-28 0,-47 111,-47 111,-28 0,-28"/>
<text text-anchor="middle" x="55.5" y="-35" font-family="Helvetica,sans-Serif" font-size="10.00" fill="#000000">L4::Ipc::Ostream::put</text>
</g>
<!-- Node2 -->
<g id="node2" class="node">
<title>Node2</title>
<g id="a_node2"><a xlink:href="ipc__stream.html#aabb21a8717620197539698c340d2b977" target="_top" xlink:title="Insert an element to type T into the stream s. ">
<polygon fill="#ffffff" stroke="#000000" points="161.5,-50 161.5,-69 230.5,-69 230.5,-50 161.5,-50"/>
<text text-anchor="middle" x="196" y="-57" font-family="Helvetica,sans-Serif" font-size="10.00" fill="#000000">operator&lt;&lt;</text>
</a>
</g>
</g>
<!-- Node1&#45;&gt;Node2 -->
<g id="edge1" class="edge">
<title>Node1&#45;&gt;Node2</title>
<path fill="none" stroke="#191970" d="M121.1134,-47.774C135.0651,-49.9586 149.2617,-52.1815 161.4893,-54.0962"/>
<polygon fill="#191970" stroke="#191970" points="121.4504,-44.2842 111.0293,-46.195 120.3675,-51.1999 121.4504,-44.2842"/>
</g>
<!-- Node4 -->
<g id="node4" class="node">
<title>Node4</title>
<g id="a_node4"><a xlink:href="classL4_1_1Ipc_1_1Iostream.html#a1015a0966b9faef7e344530b1eb6e13a" target="_top" xlink:title="Reset the stream to its initial state. ">
<polygon fill="#ffffff" stroke="#000000" points="147,-.5 147,-30.5 245,-30.5 245,-.5 147,-.5"/>
<text text-anchor="start" x="155" y="-18.5" font-family="Helvetica,sans-Serif" font-size="10.00" fill="#000000">L4::Ipc::Iostream::</text>
<text text-anchor="middle" x="196" y="-7.5" font-family="Helvetica,sans-Serif" font-size="10.00" fill="#000000">reset</text>
</a>
</g>
</g>
<!-- Node1&#45;&gt;Node4 -->
<g id="edge3" class="edge">
<title>Node1&#45;&gt;Node4</title>
<path fill="none" stroke="#191970" d="M121.1024,-27.2277C129.7469,-25.8741 138.4857,-24.5058 146.7921,-23.2052"/>
<polygon fill="#191970" stroke="#191970" points="120.3675,-23.8001 111.0293,-28.805 121.4504,-30.7158 120.3675,-23.8001"/>
</g>
<!-- Node3 -->
<g id="node3" class="node">
<title>Node3</title>
<g id="a_node3"><a xlink:href="ipc__stream.html#a4a9b955c1207f1d1e71fd57fac767072" target="_top" xlink:title="Extract one element of type T from the stream s. ">
<polygon fill="#ffffff" stroke="#000000" points="281,-50 281,-69 350,-69 350,-50 281,-50"/>
<text text-anchor="middle" x="315.5" y="-57" font-family="Helvetica,sans-Serif" font-size="10.00" fill="#000000">operator&gt;&gt;</text>
</a>
</g>
</g>
<!-- Node2&#45;&gt;Node3 -->
<g id="edge2" class="edge">
<title>Node2&#45;&gt;Node3</title>
<path fill="none" stroke="#191970" d="M240.8367,-59.5C253.9867,-59.5 268.1664,-59.5 280.5993,-59.5"/>
<polygon fill="#191970" stroke="#191970" points="240.5644,-56.0001 230.5644,-59.5 240.5643,-63.0001 240.5644,-56.0001"/>
</g>
</g>
</svg>
