<?xml version="1.0" encoding="UTF-8" standalone="no"?>
<!DOCTYPE svg PUBLIC "-//W3C//DTD SVG 1.1//EN"
 "http://www.w3.org/Graphics/SVG/1.1/DTD/svg11.dtd">
<!-- Generated by graphviz version 2.40.1 (20161225.0304)
 -->
<!-- Title: cxx::Bits::Base_avl_set::end Pages: 1 -->
<svg width="313pt" height="83pt"
 viewBox="0.00 0.00 313.00 83.00" xmlns="http://www.w3.org/2000/svg" xmlns:xlink="http://www.w3.org/1999/xlink">
<g id="graph0" class="graph" transform="scale(1 1) rotate(0) translate(4 79)">
<title>cxx::Bits::Base_avl_set::end</title>
<polygon fill="#ffffff" stroke="transparent" points="-4,4 -4,-79 309,-79 309,4 -4,4"/>
<!-- Node10 -->
<g id="node1" class="node">
<title>Node10</title>
<polygon fill="#bfbfbf" stroke="#000000" points="0,-22.5 0,-52.5 102,-52.5 102,-22.5 0,-22.5"/>
<text text-anchor="start" x="8" y="-40.5" font-family="Helvetica,sans-Serif" font-size="10.00" fill="#000000">cxx::Bits::Base_avl</text>
<text text-anchor="middle" x="51" y="-29.5" font-family="Helvetica,sans-Serif" font-size="10.00" fill="#000000">_set::end</text>
</g>
<!-- Node11 -->
<g id="node2" class="node">
<title>Node11</title>
<g id="a_node2"><a xlink:href="classcxx_1_1Bits_1_1Base__avl__set.html#acd26d51c56a9a8d27edcbad7313f1194" target="_top" xlink:title="Create a copy of an AVL&#45;tree based set. ">
<polygon fill="#ffffff" stroke="#000000" points="138,-.5 138,-74.5 305,-74.5 305,-.5 138,-.5"/>
<text text-anchor="start" x="146" y="-62.5" font-family="Helvetica,sans-Serif" font-size="10.00" fill="#000000">cxx::Bits::Base_avl</text>
<text text-anchor="start" x="146" y="-51.5" font-family="Helvetica,sans-Serif" font-size="10.00" fill="#000000">_set&lt; Pair&lt; KEY_TYPE,</text>
<text text-anchor="start" x="146" y="-40.5" font-family="Helvetica,sans-Serif" font-size="10.00" fill="#000000"> DATA_TYPE &gt;, COMPARE</text>
<text text-anchor="start" x="146" y="-29.5" font-family="Helvetica,sans-Serif" font-size="10.00" fill="#000000">&lt; KEY_TYPE &gt;, ALLOC, Bits</text>
<text text-anchor="start" x="146" y="-18.5" font-family="Helvetica,sans-Serif" font-size="10.00" fill="#000000">::Avl_map_get_key&lt; KEY_TYPE</text>
<text text-anchor="middle" x="221.5" y="-7.5" font-family="Helvetica,sans-Serif" font-size="10.00" fill="#000000"> &gt; &gt;::Base_avl_set</text>
</a>
</g>
</g>
<!-- Node10&#45;&gt;Node11 -->
<g id="edge1" class="edge">
<title>Node10&#45;&gt;Node11</title>
<path fill="none" stroke="#191970" d="M112.4282,-37.5C120.6959,-37.5 129.2886,-37.5 137.8597,-37.5"/>
<polygon fill="#191970" stroke="#191970" points="112.1557,-34.0001 102.1556,-37.5 112.1556,-41.0001 112.1557,-34.0001"/>
</g>
</g>
</svg>
