<?xml version="1.0" encoding="UTF-8" standalone="no"?>
<!DOCTYPE svg PUBLIC "-//W3C//DTD SVG 1.1//EN"
 "http://www.w3.org/Graphics/SVG/1.1/DTD/svg11.dtd">
<!-- Generated by graphviz version 2.40.1 (20161225.0304)
 -->
<!-- Title: L4::Icu Pages: 1 -->
<svg width="270pt" height="409pt"
 viewBox="0.00 0.00 270.00 409.00" xmlns="http://www.w3.org/2000/svg" xmlns:xlink="http://www.w3.org/1999/xlink">
<g id="graph0" class="graph" transform="scale(1 1) rotate(0) translate(4 405)">
<title>L4::Icu</title>
<polygon fill="#ffffff" stroke="transparent" points="-4,4 -4,-405 266,-405 266,4 -4,4"/>
<!-- Node18 -->
<g id="node1" class="node">
<title>Node18</title>
<polygon fill="#bfbfbf" stroke="#000000" points="61,-.5 61,-123.5 141,-123.5 141,-.5 61,-.5"/>
<text text-anchor="middle" x="101" y="-111.5" font-family="Helvetica,sans-Serif" font-size="10.00" fill="#000000">L4::Icu</text>
<polyline fill="none" stroke="#000000" points="61,-104.5 141,-104.5 "/>
<text text-anchor="middle" x="101" y="-92.5" font-family="Helvetica,sans-Serif" font-size="10.00" fill="#000000"> </text>
<polyline fill="none" stroke="#000000" points="61,-85.5 141,-85.5 "/>
<text text-anchor="start" x="69" y="-73.5" font-family="Helvetica,sans-Serif" font-size="10.00" fill="#000000">+ bind()</text>
<text text-anchor="start" x="69" y="-62.5" font-family="Helvetica,sans-Serif" font-size="10.00" fill="#000000">+ unbind()</text>
<text text-anchor="start" x="69" y="-51.5" font-family="Helvetica,sans-Serif" font-size="10.00" fill="#000000">+ info()</text>
<text text-anchor="start" x="69" y="-40.5" font-family="Helvetica,sans-Serif" font-size="10.00" fill="#000000">+ msi_info()</text>
<text text-anchor="start" x="69" y="-29.5" font-family="Helvetica,sans-Serif" font-size="10.00" fill="#000000">+ control()</text>
<text text-anchor="start" x="69" y="-18.5" font-family="Helvetica,sans-Serif" font-size="10.00" fill="#000000">+ mask()</text>
<text text-anchor="start" x="69" y="-7.5" font-family="Helvetica,sans-Serif" font-size="10.00" fill="#000000">+ set_mode()</text>
</g>
<!-- Node19 -->
<g id="node2" class="node">
<title>Node19</title>
<g id="a_node2"><a xlink:href="classL4_1_1Kobject__t.html" target="_top" xlink:title="{L4::Kobject_t\&lt; Icu,\l Irq_eoi, L4_PROTO_IRQ,\l Type_info::Demand_t\&lt; 1 \&gt; \&gt;\n||# c()\l# __check_protocols__()\l}">
<polygon fill="#ffffff" stroke="#000000" points="24.5,-161.5 24.5,-251.5 177.5,-251.5 177.5,-161.5 24.5,-161.5"/>
<text text-anchor="start" x="32.5" y="-239.5" font-family="Helvetica,sans-Serif" font-size="10.00" fill="#000000">L4::Kobject_t&lt; Icu,</text>
<text text-anchor="start" x="32.5" y="-228.5" font-family="Helvetica,sans-Serif" font-size="10.00" fill="#000000"> Irq_eoi, L4_PROTO_IRQ,</text>
<text text-anchor="middle" x="101" y="-217.5" font-family="Helvetica,sans-Serif" font-size="10.00" fill="#000000"> Type_info::Demand_t&lt; 1 &gt; &gt;</text>
<polyline fill="none" stroke="#000000" points="24.5,-210.5 177.5,-210.5 "/>
<text text-anchor="middle" x="101" y="-198.5" font-family="Helvetica,sans-Serif" font-size="10.00" fill="#000000"> </text>
<polyline fill="none" stroke="#000000" points="24.5,-191.5 177.5,-191.5 "/>
<text text-anchor="start" x="32.5" y="-179.5" font-family="Helvetica,sans-Serif" font-size="10.00" fill="#000000"># c()</text>
<text text-anchor="start" x="32.5" y="-168.5" font-family="Helvetica,sans-Serif" font-size="10.00" fill="#000000"># __check_protocols__()</text>
</a>
</g>
</g>
<!-- Node19&#45;&gt;Node18 -->
<g id="edge1" class="edge">
<title>Node19&#45;&gt;Node18</title>
<path fill="none" stroke="#191970" d="M101,-151.1753C101,-142.1486 101,-132.7483 101,-123.5822"/>
<polygon fill="none" stroke="#191970" points="97.5001,-151.1757 101,-161.1758 104.5001,-151.1758 97.5001,-151.1757"/>
</g>
<!-- Node20 -->
<g id="node3" class="node">
<title>Node20</title>
<g id="a_node3"><a xlink:href="classL4_1_1Irq__eoi.html" target="_top" xlink:title="Interface for sending an acknowledge message to an object. ">
<polygon fill="#ffffff" stroke="#000000" points="0,-332.5 0,-389.5 70,-389.5 70,-332.5 0,-332.5"/>
<text text-anchor="middle" x="35" y="-377.5" font-family="Helvetica,sans-Serif" font-size="10.00" fill="#000000">L4::Irq_eoi</text>
<polyline fill="none" stroke="#000000" points="0,-370.5 70,-370.5 "/>
<text text-anchor="middle" x="35" y="-358.5" font-family="Helvetica,sans-Serif" font-size="10.00" fill="#000000"> </text>
<polyline fill="none" stroke="#000000" points="0,-351.5 70,-351.5 "/>
<text text-anchor="start" x="8" y="-339.5" font-family="Helvetica,sans-Serif" font-size="10.00" fill="#000000">+ unmask()</text>
</a>
</g>
</g>
<!-- Node20&#45;&gt;Node19 -->
<g id="edge2" class="edge">
<title>Node20&#45;&gt;Node19</title>
<path fill="none" stroke="#191970" d="M51.302,-322.8386C60.493,-301.3232 72.0304,-274.3152 81.6747,-251.7388"/>
<polygon fill="none" stroke="#191970" points="47.9693,-321.7308 47.2594,-332.3018 54.4065,-324.4807 47.9693,-321.7308"/>
</g>
<!-- Node21 -->
<g id="node4" class="node">
<title>Node21</title>
<g id="a_node4"><a xlink:href="classL4_1_1Kobject__t.html" target="_top" xlink:title="Helper class to create an L4Re interface class that is derived from a single base class...">
<polygon fill="#ffffff" stroke="#000000" points="88,-321.5 88,-400.5 246,-400.5 246,-321.5 88,-321.5"/>
<text text-anchor="start" x="96" y="-388.5" font-family="Helvetica,sans-Serif" font-size="10.00" fill="#000000">L4::Kobject_t&lt; Derived,</text>
<text text-anchor="middle" x="167" y="-377.5" font-family="Helvetica,sans-Serif" font-size="10.00" fill="#000000"> Base, PROTO, S_DEMAND &gt;</text>
<polyline fill="none" stroke="#000000" points="88,-370.5 246,-370.5 "/>
<text text-anchor="middle" x="167" y="-358.5" font-family="Helvetica,sans-Serif" font-size="10.00" fill="#000000"> </text>
<polyline fill="none" stroke="#000000" points="88,-351.5 246,-351.5 "/>
<text text-anchor="start" x="96" y="-339.5" font-family="Helvetica,sans-Serif" font-size="10.00" fill="#000000"># c()</text>
<text text-anchor="start" x="96" y="-328.5" font-family="Helvetica,sans-Serif" font-size="10.00" fill="#000000"># __check_protocols__()</text>
</a>
</g>
</g>
<!-- Node21&#45;&gt;Node19 -->
<g id="edge3" class="edge">
<title>Node21&#45;&gt;Node19</title>
<path fill="none" stroke="#ffa500" d="M146.0526,-311.9641C137.7912,-292.625 128.3616,-270.551 120.2715,-251.6129"/>
<polygon fill="#ffa500" stroke="#ffa500" points="142.8563,-313.3913 150.0034,-321.2124 149.2935,-310.6414 142.8563,-313.3913"/>
<text text-anchor="start" x="141" y="-295" font-family="Helvetica,sans-Serif" font-size="10.00" fill="#000000"> &lt; Icu, Irq_eoi, L4</text>
<text text-anchor="start" x="141" y="-284" font-family="Helvetica,sans-Serif" font-size="10.00" fill="#000000">_PROTO_IRQ, Type_info</text>
<text text-anchor="middle" x="201.5" y="-273" font-family="Helvetica,sans-Serif" font-size="10.00" fill="#000000">::Demand_t&lt; 1 &gt; &gt;</text>
</g>
</g>
</svg>
