<?xml version="1.0" encoding="UTF-8" standalone="no"?>
<!DOCTYPE svg PUBLIC "-//W3C//DTD SVG 1.1//EN"
 "http://www.w3.org/Graphics/SVG/1.1/DTD/svg11.dtd">
<!-- Generated by graphviz version 2.40.1 (20161225.0304)
 -->
<!-- Title: cxx::List_item::remove Pages: 1 -->
<svg width="607pt" height="207pt"
 viewBox="0.00 0.00 607.00 206.79" xmlns="http://www.w3.org/2000/svg" xmlns:xlink="http://www.w3.org/1999/xlink">
<g id="graph0" class="graph" transform="scale(1 1) rotate(0) translate(4 202.7871)">
<title>cxx::List_item::remove</title>
<polygon fill="#ffffff" stroke="transparent" points="-4,4 -4,-202.7871 603,-202.7871 603,4 -4,4"/>
<!-- Node20 -->
<g id="node1" class="node">
<title>Node20</title>
<polygon fill="#bfbfbf" stroke="#000000" points="0,-80.7871 0,-99.7871 119,-99.7871 119,-80.7871 0,-80.7871"/>
<text text-anchor="middle" x="59.5" y="-87.7871" font-family="Helvetica,sans-Serif" font-size="10.00" fill="#000000">cxx::List_item::remove</text>
</g>
<!-- Node21 -->
<g id="node2" class="node">
<title>Node21</title>
<g id="a_node2"><a xlink:href="classcxx_1_1List__item.html#a64e565bf454750127d9779971ad63c42" target="_top" xlink:title="Get next item. ">
<polygon fill="#ffffff" stroke="#000000" points="155.5,-168.2871 155.5,-198.2871 253.5,-198.2871 253.5,-168.2871 155.5,-168.2871"/>
<text text-anchor="start" x="163.5" y="-186.2871" font-family="Helvetica,sans-Serif" font-size="10.00" fill="#000000">cxx::List_item::get</text>
<text text-anchor="middle" x="204.5" y="-175.2871" font-family="Helvetica,sans-Serif" font-size="10.00" fill="#000000">_next_item</text>
</a>
</g>
</g>
<!-- Node20&#45;&gt;Node21 -->
<g id="edge1" class="edge">
<title>Node20&#45;&gt;Node21</title>
<path fill="none" stroke="#191970" d="M71.3962,-99.9271C89.0199,-113.962 123.3934,-140.4028 155,-159.2871 157.3405,-160.6855 159.7745,-162.0704 162.2521,-163.4275"/>
<polygon fill="#191970" stroke="#191970" points="160.8447,-166.6418 171.3252,-168.1943 164.1004,-160.4449 160.8447,-166.6418"/>
</g>
<!-- Node22 -->
<g id="node3" class="node">
<title>Node22</title>
<g id="a_node3"><a xlink:href="classcxx_1_1List__item.html#a80002d2f3f1c89620335ef36b3d7080d" target="_top" xlink:title="Get previous item. ">
<polygon fill="#ffffff" stroke="#000000" points="155.5,-119.2871 155.5,-149.2871 253.5,-149.2871 253.5,-119.2871 155.5,-119.2871"/>
<text text-anchor="start" x="163.5" y="-137.2871" font-family="Helvetica,sans-Serif" font-size="10.00" fill="#000000">cxx::List_item::get</text>
<text text-anchor="middle" x="204.5" y="-126.2871" font-family="Helvetica,sans-Serif" font-size="10.00" fill="#000000">_prev_item</text>
</a>
</g>
</g>
<!-- Node20&#45;&gt;Node22 -->
<g id="edge2" class="edge">
<title>Node20&#45;&gt;Node22</title>
<path fill="none" stroke="#191970" d="M90.9628,-99.8344C106.9927,-104.6987 127.0134,-110.7739 145.7599,-116.4625"/>
<polygon fill="#191970" stroke="#191970" points="144.8336,-119.839 155.4191,-119.3936 146.8663,-113.1406 144.8336,-119.839"/>
</g>
<!-- Node23 -->
<g id="node4" class="node">
<title>Node23</title>
<g id="a_node4"><a xlink:href="classcxx_1_1List__item.html#a9ae69aab6422e2456924b9bf40b0700d" target="_top" xlink:title="Append item to a list. ">
<polygon fill="#ffffff" stroke="#000000" points="465,-58.7871 465,-77.7871 599,-77.7871 599,-58.7871 465,-58.7871"/>
<text text-anchor="middle" x="532" y="-65.7871" font-family="Helvetica,sans-Serif" font-size="10.00" fill="#000000">cxx::List_item::push_back</text>
</a>
</g>
</g>
<!-- Node20&#45;&gt;Node23 -->
<g id="edge3" class="edge">
<title>Node20&#45;&gt;Node23</title>
<path fill="none" stroke="#191970" d="M119.3425,-87.5008C204.5189,-83.5349 360.7725,-76.2596 454.6431,-71.8889"/>
<polygon fill="#191970" stroke="#191970" points="454.823,-75.3844 464.6494,-71.423 454.4974,-68.392 454.823,-75.3844"/>
</g>
<!-- Node24 -->
<g id="node5" class="node">
<title>Node24</title>
<g id="a_node5"><a xlink:href="classcxx_1_1List__item.html#ad965060436a10864e9d31e7fb3e42b84" target="_top" xlink:title="Prepend item to a list. ">
<polygon fill="#ffffff" stroke="#000000" points="479,-9.2871 479,-39.2871 585,-39.2871 585,-9.2871 479,-9.2871"/>
<text text-anchor="start" x="487" y="-27.2871" font-family="Helvetica,sans-Serif" font-size="10.00" fill="#000000">cxx::List_item::push</text>
<text text-anchor="middle" x="532" y="-16.2871" font-family="Helvetica,sans-Serif" font-size="10.00" fill="#000000">_front</text>
</a>
</g>
</g>
<!-- Node20&#45;&gt;Node24 -->
<g id="edge4" class="edge">
<title>Node20&#45;&gt;Node24</title>
<path fill="none" stroke="#191970" d="M68.6723,-80.6557C84.4996,-64.8177 118.7461,-33.8755 155,-22.2871 261.0561,11.6132 392.6322,-.4232 468.9818,-12.3154"/>
<polygon fill="#191970" stroke="#191970" points="468.4959,-15.7821 478.9244,-13.9122 469.6059,-8.8707 468.4959,-15.7821"/>
</g>
<!-- Node25 -->
<g id="node6" class="node">
<title>Node25</title>
<g id="a_node6"><a xlink:href="classcxx_1_1List__item_1_1Iter.html#a0ef357e10b4f813b7289fbe689688f6e" target="_top" xlink:title="Remove item pointed to by iterator, and return pointer to element. ">
<polygon fill="#ffffff" stroke="#000000" points="155,-31.2871 155,-61.2871 254,-61.2871 254,-31.2871 155,-31.2871"/>
<text text-anchor="start" x="163" y="-49.2871" font-family="Helvetica,sans-Serif" font-size="10.00" fill="#000000">cxx::List_item::Iter</text>
<text text-anchor="middle" x="204.5" y="-38.2871" font-family="Helvetica,sans-Serif" font-size="10.00" fill="#000000">::remove_me</text>
</a>
</g>
</g>
<!-- Node20&#45;&gt;Node25 -->
<g id="edge5" class="edge">
<title>Node20&#45;&gt;Node25</title>
<path fill="none" stroke="#191970" d="M90.9628,-80.7398C106.8508,-75.9186 126.6594,-69.9077 145.2619,-64.2628"/>
<polygon fill="#191970" stroke="#191970" points="146.3,-67.6055 154.8528,-61.3525 144.2673,-60.9071 146.3,-67.6055"/>
</g>
<!-- Node26 -->
<g id="node7" class="node">
<title>Node26</title>
<g id="a_node7"><a xlink:href="classcxx_1_1List__item.html#a3881b562fd2ed8708a96112fe2057f47" target="_top" xlink:title="Remove this item from the list. ">
<polygon fill="#ffffff" stroke="#000000" points="290,-36.7871 290,-55.7871 429,-55.7871 429,-36.7871 290,-36.7871"/>
<text text-anchor="middle" x="359.5" y="-43.7871" font-family="Helvetica,sans-Serif" font-size="10.00" fill="#000000">cxx::List_item::remove_me</text>
</a>
</g>
</g>
<!-- Node25&#45;&gt;Node26 -->
<g id="edge6" class="edge">
<title>Node25&#45;&gt;Node26</title>
<path fill="none" stroke="#191970" d="M254.3962,-46.2871C262.5381,-46.2871 271.1475,-46.2871 279.7936,-46.2871"/>
<polygon fill="#191970" stroke="#191970" points="279.9344,-49.7872 289.9344,-46.2871 279.9344,-42.7872 279.9344,-49.7872"/>
</g>
<!-- Node26&#45;&gt;Node23 -->
<g id="edge7" class="edge">
<title>Node26&#45;&gt;Node23</title>
<path fill="none" stroke="#191970" d="M429.1651,-55.1719C437.6333,-56.2519 446.3231,-57.3602 454.8912,-58.4529"/>
<polygon fill="#191970" stroke="#191970" points="454.5104,-61.9326 464.8729,-59.726 455.3961,-54.9889 454.5104,-61.9326"/>
</g>
<!-- Node26&#45;&gt;Node24 -->
<g id="edge8" class="edge">
<title>Node26&#45;&gt;Node24</title>
<path fill="none" stroke="#191970" d="M429.1651,-37.4023C442.2246,-35.7367 455.8112,-34.0039 468.6656,-32.3645"/>
<polygon fill="#191970" stroke="#191970" points="469.3167,-35.8099 478.7935,-31.0729 468.4311,-28.8662 469.3167,-35.8099"/>
</g>
</g>
</svg>
