<?xml version="1.0" encoding="UTF-8" standalone="no"?>
<!DOCTYPE svg PUBLIC "-//W3C//DTD SVG 1.1//EN"
 "http://www.w3.org/Graphics/SVG/1.1/DTD/svg11.dtd">
<!-- Generated by graphviz version 2.40.1 (20161225.0304)
 -->
<!-- Title: L4::Ipc_svr::Timeout::timeout Pages: 1 -->
<svg width="264pt" height="39pt"
 viewBox="0.00 0.00 264.00 39.00" xmlns="http://www.w3.org/2000/svg" xmlns:xlink="http://www.w3.org/1999/xlink">
<g id="graph0" class="graph" transform="scale(1 1) rotate(0) translate(4 35)">
<title>L4::Ipc_svr::Timeout::timeout</title>
<polygon fill="#ffffff" stroke="transparent" points="-4,4 -4,-35 260,-35 260,4 -4,4"/>
<!-- Node5 -->
<g id="node1" class="node">
<title>Node5</title>
<polygon fill="#bfbfbf" stroke="#000000" points="0,-.5 0,-30.5 110,-30.5 110,-.5 0,-.5"/>
<text text-anchor="start" x="8" y="-18.5" font-family="Helvetica,sans-Serif" font-size="10.00" fill="#000000">L4::Ipc_svr::Timeout</text>
<text text-anchor="middle" x="55" y="-7.5" font-family="Helvetica,sans-Serif" font-size="10.00" fill="#000000">::timeout</text>
</g>
<!-- Node6 -->
<g id="node2" class="node">
<title>Node6</title>
<g id="a_node2"><a xlink:href="classL4_1_1Ipc__svr_1_1Timeout__queue.html#a172e0ca0f7fcb845b75939c4f30ceebb" target="_top" xlink:title="Remove timeout from the queue. ">
<polygon fill="#ffffff" stroke="#000000" points="146,-.5 146,-30.5 256,-30.5 256,-.5 146,-.5"/>
<text text-anchor="start" x="154" y="-18.5" font-family="Helvetica,sans-Serif" font-size="10.00" fill="#000000">L4::Ipc_svr::Timeout</text>
<text text-anchor="middle" x="201" y="-7.5" font-family="Helvetica,sans-Serif" font-size="10.00" fill="#000000">_queue::remove</text>
</a>
</g>
</g>
<!-- Node5&#45;&gt;Node6 -->
<g id="edge1" class="edge">
<title>Node5&#45;&gt;Node6</title>
<path fill="none" stroke="#191970" d="M120.4101,-15.5C128.8647,-15.5 137.4567,-15.5 145.7256,-15.5"/>
<polygon fill="#191970" stroke="#191970" points="120.1964,-12.0001 110.1963,-15.5 120.1963,-19.0001 120.1964,-12.0001"/>
</g>
</g>
</svg>
