<?xml version="1.0" encoding="UTF-8" standalone="no"?>
<!DOCTYPE svg PUBLIC "-//W3C//DTD SVG 1.1//EN"
 "http://www.w3.org/Graphics/SVG/1.1/DTD/svg11.dtd">
<!-- Generated by graphviz version 2.40.1 (20161225.0304)
 -->
<!-- Title: L4::Icu::mask Pages: 1 -->
<svg width="227pt" height="104pt"
 viewBox="0.00 0.00 227.00 104.00" xmlns="http://www.w3.org/2000/svg" xmlns:xlink="http://www.w3.org/1999/xlink">
<g id="graph0" class="graph" transform="scale(1 1) rotate(0) translate(4 100)">
<title>L4::Icu::mask</title>
<polygon fill="#ffffff" stroke="transparent" points="-4,4 -4,-100 223,-100 223,4 -4,4"/>
<!-- Node11 -->
<g id="node1" class="node">
<title>Node11</title>
<polygon fill="#bfbfbf" stroke="#000000" points="0,-38.5 0,-57.5 76,-57.5 76,-38.5 0,-38.5"/>
<text text-anchor="middle" x="38" y="-45.5" font-family="Helvetica,sans-Serif" font-size="10.00" fill="#000000">L4::Icu::mask</text>
</g>
<!-- Node12 -->
<g id="node2" class="node">
<title>Node12</title>
<g id="a_node2"><a xlink:href="classL4_1_1Kobject.html#a4f2117ae76762f4084e6a1adb915863c" target="_top" xlink:title="Return capability selector. ">
<polygon fill="#ffffff" stroke="#000000" points="121,-76.5 121,-95.5 210,-95.5 210,-76.5 121,-76.5"/>
<text text-anchor="middle" x="165.5" y="-83.5" font-family="Helvetica,sans-Serif" font-size="10.00" fill="#000000">L4::Kobject::cap</text>
</a>
</g>
</g>
<!-- Node11&#45;&gt;Node12 -->
<g id="edge1" class="edge">
<title>Node11&#45;&gt;Node12</title>
<path fill="none" stroke="#191970" d="M70.1736,-57.589C86.3307,-62.4044 106.108,-68.2988 123.4518,-73.468"/>
<polygon fill="#191970" stroke="#191970" points="122.7535,-76.912 133.3367,-76.4141 124.7529,-70.2036 122.7535,-76.912"/>
</g>
<!-- Node13 -->
<g id="node3" class="node">
<title>Node13</title>
<g id="a_node3"><a xlink:href="group__l4__icu__api.html#gad1fc6f5aef910ca6b9b3a6c9d0f3b345" target="_top" xlink:title="Mask an IRQ line. ">
<polygon fill="#ffffff" stroke="#000000" points="122.5,-38.5 122.5,-57.5 208.5,-57.5 208.5,-38.5 122.5,-38.5"/>
<text text-anchor="middle" x="165.5" y="-45.5" font-family="Helvetica,sans-Serif" font-size="10.00" fill="#000000">l4_icu_mask_u</text>
</a>
</g>
</g>
<!-- Node11&#45;&gt;Node13 -->
<g id="edge2" class="edge">
<title>Node11&#45;&gt;Node13</title>
<path fill="none" stroke="#191970" d="M76.2542,-48C87.6008,-48 100.2374,-48 112.349,-48"/>
<polygon fill="#191970" stroke="#191970" points="112.3594,-51.5001 122.3593,-48 112.3593,-44.5001 112.3594,-51.5001"/>
</g>
<!-- Node14 -->
<g id="node4" class="node">
<title>Node14</title>
<g id="a_node4"><a xlink:href="classL4_1_1Irq__eoi.html#a2143eb2495d0135bc432efc362845483" target="_top" xlink:title="Acknowledge the given interrupt line. ">
<polygon fill="#ffffff" stroke="#000000" points="112,-.5 112,-19.5 219,-19.5 219,-.5 112,-.5"/>
<text text-anchor="middle" x="165.5" y="-7.5" font-family="Helvetica,sans-Serif" font-size="10.00" fill="#000000">L4::Irq_eoi::unmask</text>
</a>
</g>
</g>
<!-- Node11&#45;&gt;Node14 -->
<g id="edge3" class="edge">
<title>Node11&#45;&gt;Node14</title>
<path fill="none" stroke="#191970" d="M70.1736,-38.411C86.3307,-33.5956 106.108,-27.7012 123.4518,-22.532"/>
<polygon fill="#191970" stroke="#191970" points="124.7529,-25.7964 133.3367,-19.5859 122.7535,-19.088 124.7529,-25.7964"/>
</g>
</g>
</svg>
