<?xml version="1.0" encoding="UTF-8" standalone="no"?>
<!DOCTYPE svg PUBLIC "-//W3C//DTD SVG 1.1//EN"
 "http://www.w3.org/Graphics/SVG/1.1/DTD/svg11.dtd">
<!-- Generated by graphviz version 2.40.1 (20161225.0304)
 -->
<!-- Title: L4::Server::internal_loop Pages: 1 -->
<svg width="631pt" height="573pt"
 viewBox="0.00 0.00 631.00 572.98" xmlns="http://www.w3.org/2000/svg" xmlns:xlink="http://www.w3.org/1999/xlink">
<g id="graph0" class="graph" transform="scale(1 1) rotate(0) translate(4 568.9818)">
<title>L4::Server::internal_loop</title>
<polygon fill="#ffffff" stroke="transparent" points="-4,4 -4,-568.9818 627,-568.9818 627,4 -4,4"/>
<!-- Node2 -->
<g id="node1" class="node">
<title>Node2</title>
<polygon fill="#bfbfbf" stroke="#000000" points="0,-316.5 0,-335.5 131,-335.5 131,-316.5 0,-316.5"/>
<text text-anchor="middle" x="65.5" y="-323.5" font-family="Helvetica,sans-Serif" font-size="10.00" fill="#000000">L4::Server::internal_loop</text>
</g>
<!-- Node3 -->
<g id="node2" class="node">
<title>Node3</title>
<g id="a_node2"><a xlink:href="structl4__msgtag__t.html#a09c8212b870e6c144fd072dbde5b5262" target="_top" xlink:title="Test if flags indicate an error. ">
<polygon fill="#ffffff" stroke="#000000" points="167,-297.5 167,-316.5 292,-316.5 292,-297.5 167,-297.5"/>
<text text-anchor="middle" x="229.5" y="-304.5" font-family="Helvetica,sans-Serif" font-size="10.00" fill="#000000">l4_msgtag_t::has_error</text>
</a>
</g>
</g>
<!-- Node2&#45;&gt;Node3 -->
<g id="edge1" class="edge">
<title>Node2&#45;&gt;Node3</title>
<path fill="none" stroke="#191970" d="M131.2601,-318.3815C139.7147,-317.402 148.4093,-316.3947 156.9646,-315.4035"/>
<polygon fill="#191970" stroke="#191970" points="157.3903,-318.8777 166.9211,-314.25 156.5847,-311.9242 157.3903,-318.8777"/>
</g>
<!-- Node4 -->
<g id="node3" class="node">
<title>Node4</title>
<g id="a_node3"><a xlink:href="group__l4__msgtag__api.html#ga661d71acad9d096fa990f7c94943bc78" target="_top" xlink:title="Create a message tag from the specified values. ">
<polygon fill="#ffffff" stroke="#000000" points="371.5,-506.5 371.5,-525.5 436.5,-525.5 436.5,-506.5 371.5,-506.5"/>
<text text-anchor="middle" x="404" y="-513.5" font-family="Helvetica,sans-Serif" font-size="10.00" fill="#000000">l4_msgtag</text>
</a>
</g>
</g>
<!-- Node2&#45;&gt;Node4 -->
<g id="edge27" class="edge">
<title>Node2&#45;&gt;Node4</title>
<path fill="none" stroke="#191970" d="M78.5398,-335.6753C115.7994,-362.9758 226.5823,-441.7548 328,-490 338.6164,-495.0503 350.4826,-499.594 361.6241,-503.417"/>
<polygon fill="#191970" stroke="#191970" points="360.5856,-506.76 371.179,-506.5858 362.7891,-500.1159 360.5856,-506.76"/>
</g>
<!-- Node3&#45;&gt;Node4 -->
<g id="edge2" class="edge">
<title>Node3&#45;&gt;Node4</title>
<path fill="none" stroke="#191970" d="M235.45,-316.7753C246.8803,-335.6818 272.5028,-378.6862 292,-416 309.309,-449.1261 299.8307,-467.4352 328,-492 337.3693,-500.1704 349.523,-505.562 361.3527,-509.1189"/>
<polygon fill="#191970" stroke="#191970" points="360.5837,-512.5356 371.1452,-511.6959 362.3652,-505.7661 360.5837,-512.5356"/>
</g>
<!-- Node5 -->
<g id="node4" class="node">
<title>Node5</title>
<g id="a_node4"><a xlink:href="structl4__msgtag__t.html#af6b9564a9a16427cec0e81a4628996b8" target="_top" xlink:title="Get the flags value. ">
<polygon fill="#ffffff" stroke="#000000" points="519,-534.5 519,-553.5 620,-553.5 620,-534.5 519,-534.5"/>
<text text-anchor="middle" x="569.5" y="-541.5" font-family="Helvetica,sans-Serif" font-size="10.00" fill="#000000">l4_msgtag_t::flags</text>
</a>
</g>
</g>
<!-- Node3&#45;&gt;Node5 -->
<g id="edge10" class="edge">
<title>Node3&#45;&gt;Node5</title>
<path fill="none" stroke="#191970" d="M230.1942,-316.5695C233.3882,-352.7279 250.0691,-481.6705 328,-535 386.1051,-574.7624 471.8057,-566.2622 523.9552,-555.6874"/>
<polygon fill="#191970" stroke="#191970" points="524.8717,-559.0706 533.9196,-553.5584 523.409,-552.2251 524.8717,-559.0706"/>
</g>
<!-- Node6 -->
<g id="node5" class="node">
<title>Node6</title>
<g id="a_node5"><a xlink:href="structl4__msgtag__t.html#ad014e4a9f4509b068ddda678f6f8d568" target="_top" xlink:title="Get the number of typed items. ">
<polygon fill="#ffffff" stroke="#000000" points="517.5,-477.5 517.5,-496.5 621.5,-496.5 621.5,-477.5 517.5,-477.5"/>
<text text-anchor="middle" x="569.5" y="-484.5" font-family="Helvetica,sans-Serif" font-size="10.00" fill="#000000">l4_msgtag_t::items</text>
</a>
</g>
</g>
<!-- Node3&#45;&gt;Node6 -->
<g id="edge9" class="edge">
<title>Node3&#45;&gt;Node6</title>
<path fill="none" stroke="#191970" d="M235.1653,-316.7616C253.9248,-348.933 313.6406,-450.0848 328,-459 381.7882,-492.3951 455.4558,-496.2683 507.2399,-493.7504"/>
<polygon fill="#191970" stroke="#191970" points="507.5116,-497.2406 517.2926,-493.1684 507.107,-490.2523 507.5116,-497.2406"/>
</g>
<!-- Node7 -->
<g id="node6" class="node">
<title>Node7</title>
<g id="a_node6"><a xlink:href="structl4__msgtag__t.html#a002076380a3f6e4f29a1f6b50ce2bde2" target="_top" xlink:title="Get the protocol value. ">
<polygon fill="#ffffff" stroke="#000000" points="519,-382.5 519,-401.5 620,-401.5 620,-382.5 519,-382.5"/>
<text text-anchor="middle" x="569.5" y="-389.5" font-family="Helvetica,sans-Serif" font-size="10.00" fill="#000000">l4_msgtag_t::label</text>
</a>
</g>
</g>
<!-- Node3&#45;&gt;Node7 -->
<g id="edge7" class="edge">
<title>Node3&#45;&gt;Node7</title>
<path fill="none" stroke="#191970" d="M292.0852,-310.7015C343.584,-315.11 417.9348,-324.6351 480,-345 503.6377,-352.7561 528.5389,-366.3329 546.057,-376.9065"/>
<polygon fill="#191970" stroke="#191970" points="544.6278,-380.1375 554.9749,-382.4157 548.3069,-374.1823 544.6278,-380.1375"/>
</g>
<!-- Node8 -->
<g id="node7" class="node">
<title>Node8</title>
<g id="a_node7"><a xlink:href="structl4__msgtag__t.html#a98577ea730d9abcd938b89d5c7adb18c" target="_top" xlink:title="Get the number of untyped words. ">
<polygon fill="#ffffff" stroke="#000000" points="516,-311.5 516,-330.5 623,-330.5 623,-311.5 516,-311.5"/>
<text text-anchor="middle" x="569.5" y="-318.5" font-family="Helvetica,sans-Serif" font-size="10.00" fill="#000000">l4_msgtag_t::words</text>
</a>
</g>
</g>
<!-- Node3&#45;&gt;Node8 -->
<g id="edge8" class="edge">
<title>Node3&#45;&gt;Node8</title>
<path fill="none" stroke="#191970" d="M292.0951,-306.8579C342.8019,-307.0777 416.0644,-308.1535 480,-312 488.2911,-312.4988 497.0003,-313.1788 505.5961,-313.9433"/>
<polygon fill="#191970" stroke="#191970" points="505.3216,-317.4328 515.6027,-314.8736 505.9697,-310.4628 505.3216,-317.4328"/>
</g>
<!-- Node9 -->
<g id="node8" class="node">
<title>Node9</title>
<g id="a_node8"><a xlink:href="group__l4__msgtag__api.html#gab0c4422a230cf5ef5793dbab1faeb3af" target="_top" xlink:title="Get the protocol of tag. ">
<polygon fill="#ffffff" stroke="#000000" points="523,-114.5 523,-133.5 616,-133.5 616,-114.5 523,-114.5"/>
<text text-anchor="middle" x="569.5" y="-121.5" font-family="Helvetica,sans-Serif" font-size="10.00" fill="#000000">l4_msgtag_label</text>
</a>
</g>
</g>
<!-- Node3&#45;&gt;Node9 -->
<g id="edge11" class="edge">
<title>Node3&#45;&gt;Node9</title>
<path fill="none" stroke="#191970" d="M231.9231,-297.4152C239.8687,-268.2078 268.1284,-180.0562 328,-143 383.6534,-108.5546 460.8897,-108.9671 512.9011,-114.586"/>
<polygon fill="#191970" stroke="#191970" points="512.6122,-118.0761 522.9531,-115.7704 513.4314,-111.1241 512.6122,-118.0761"/>
</g>
<!-- Node10 -->
<g id="node9" class="node">
<title>Node10</title>
<g id="a_node9"><a xlink:href="group__l4__msgtag__api.html#ga6d29d688c50ece7ec55f3c6ed749d375" target="_top" xlink:title="Get the number of untyped words. ">
<polygon fill="#ffffff" stroke="#000000" points="354,-430.5 354,-449.5 454,-449.5 454,-430.5 354,-430.5"/>
<text text-anchor="middle" x="404" y="-437.5" font-family="Helvetica,sans-Serif" font-size="10.00" fill="#000000">l4_msgtag_words</text>
</a>
</g>
</g>
<!-- Node3&#45;&gt;Node10 -->
<g id="edge12" class="edge">
<title>Node3&#45;&gt;Node10</title>
<path fill="none" stroke="#191970" d="M234.9857,-316.7099C248.0377,-338.884 283.2234,-393.4489 328,-421 333.046,-424.1048 338.5754,-426.7032 344.2776,-428.8775"/>
<polygon fill="#191970" stroke="#191970" points="343.388,-432.2711 353.9821,-432.1509 345.6253,-425.6382 343.388,-432.2711"/>
</g>
<!-- Node11 -->
<g id="node10" class="node">
<title>Node11</title>
<g id="a_node10"><a xlink:href="group__l4__msgtag__api.html#ga2f57b9cb540e4cbb6a77363828b9a671" target="_top" xlink:title="Get the number of typed items. ">
<polygon fill="#ffffff" stroke="#000000" points="356,-392.5 356,-411.5 452,-411.5 452,-392.5 356,-392.5"/>
<text text-anchor="middle" x="404" y="-399.5" font-family="Helvetica,sans-Serif" font-size="10.00" fill="#000000">l4_msgtag_items</text>
</a>
</g>
</g>
<!-- Node3&#45;&gt;Node11 -->
<g id="edge13" class="edge">
<title>Node3&#45;&gt;Node11</title>
<path fill="none" stroke="#191970" d="M239.1875,-316.7499C255.8466,-332.956 291.6493,-365.3925 328,-383 333.7032,-385.7625 339.8479,-388.1488 346.0846,-390.2044"/>
<polygon fill="#191970" stroke="#191970" points="345.3257,-393.6312 355.9105,-393.1688 347.3476,-386.9295 345.3257,-393.6312"/>
</g>
<!-- Node12 -->
<g id="node11" class="node">
<title>Node12</title>
<g id="a_node11"><a xlink:href="group__l4__msgtag__api.html#ga52e71bb66855f4d78fa5c82b5f0c5a87" target="_top" xlink:title="Test for error indicator flag. ">
<polygon fill="#ffffff" stroke="#000000" points="345,-354.5 345,-373.5 463,-373.5 463,-354.5 345,-354.5"/>
<text text-anchor="middle" x="404" y="-361.5" font-family="Helvetica,sans-Serif" font-size="10.00" fill="#000000">l4_msgtag_has_error</text>
</a>
</g>
</g>
<!-- Node3&#45;&gt;Node12 -->
<g id="edge14" class="edge">
<title>Node3&#45;&gt;Node12</title>
<path fill="none" stroke="#191970" d="M257.4791,-316.5178C277.171,-323.1812 304.1617,-332.2435 328,-340 339.4996,-343.7418 352.0054,-347.7259 363.49,-351.3509"/>
<polygon fill="#191970" stroke="#191970" points="362.6792,-354.7649 373.2687,-354.4289 364.781,-348.0879 362.6792,-354.7649"/>
</g>
<!-- Node13 -->
<g id="node12" class="node">
<title>Node13</title>
<g id="a_node12"><a xlink:href="group__l4__msgtag__api.html#gaf949daa8e7aa7d20743502de15e86dcd" target="_top" xlink:title="Test for page&#45;fault protocol. ">
<polygon fill="#ffffff" stroke="#000000" points="337,-76.5 337,-95.5 471,-95.5 471,-76.5 337,-76.5"/>
<text text-anchor="middle" x="404" y="-83.5" font-family="Helvetica,sans-Serif" font-size="10.00" fill="#000000">l4_msgtag_is_page_fault</text>
</a>
</g>
</g>
<!-- Node3&#45;&gt;Node13 -->
<g id="edge15" class="edge">
<title>Node3&#45;&gt;Node13</title>
<path fill="none" stroke="#191970" d="M231.5578,-297.1219C238.7458,-265.0929 265.7577,-163.1229 328,-110 332.8347,-105.8736 338.3816,-102.4553 344.2292,-99.6239"/>
<polygon fill="#191970" stroke="#191970" points="345.7715,-102.7715 353.6069,-95.6401 343.0345,-96.3288 345.7715,-102.7715"/>
</g>
<!-- Node14 -->
<g id="node13" class="node">
<title>Node14</title>
<g id="a_node13"><a xlink:href="group__l4__msgtag__api.html#gafb02742f6231ff4568412fed96e7e272" target="_top" xlink:title="Test for preemption protocol. ">
<polygon fill="#ffffff" stroke="#000000" points="335,-38.5 335,-57.5 473,-57.5 473,-38.5 335,-38.5"/>
<text text-anchor="middle" x="404" y="-45.5" font-family="Helvetica,sans-Serif" font-size="10.00" fill="#000000">l4_msgtag_is_preemption</text>
</a>
</g>
</g>
<!-- Node3&#45;&gt;Node14 -->
<g id="edge17" class="edge">
<title>Node3&#45;&gt;Node14</title>
<path fill="none" stroke="#191970" d="M230.4031,-297.4529C234.3515,-261.2918 253.4016,-131.5305 328,-67 329.7968,-65.4457 331.7023,-64.015 333.6933,-62.6983"/>
<polygon fill="#191970" stroke="#191970" points="335.8292,-65.5176 342.8982,-57.6258 332.4507,-59.3869 335.8292,-65.5176"/>
</g>
<!-- Node15 -->
<g id="node14" class="node">
<title>Node15</title>
<g id="a_node14"><a xlink:href="group__l4__msgtag__api.html#gafc73bad60b56767f6eb04cf4b71838ee" target="_top" xlink:title="Test for system&#45;exception protocol. ">
<polygon fill="#ffffff" stroke="#000000" points="328,-.5 328,-19.5 480,-19.5 480,-.5 328,-.5"/>
<text text-anchor="middle" x="404" y="-7.5" font-family="Helvetica,sans-Serif" font-size="10.00" fill="#000000">l4_msgtag_is_sys_exception</text>
</a>
</g>
</g>
<!-- Node3&#45;&gt;Node15 -->
<g id="edge19" class="edge">
<title>Node3&#45;&gt;Node15</title>
<path fill="none" stroke="#191970" d="M229.8114,-297.3699C231.6366,-257.6782 244.0644,-105.2767 328,-29 329.7174,-27.4393 331.5435,-26.0023 333.4561,-24.6793"/>
<polygon fill="#191970" stroke="#191970" points="335.4022,-27.5978 342.328,-19.58 331.9139,-21.5288 335.4022,-27.5978"/>
</g>
<!-- Node16 -->
<g id="node15" class="node">
<title>Node16</title>
<g id="a_node15"><a xlink:href="group__l4__msgtag__api.html#ga0f2cf0a5f8d4a733f69b94dcc388c2ef" target="_top" xlink:title="Test for exception protocol. ">
<polygon fill="#ffffff" stroke="#000000" points="338.5,-240.5 338.5,-259.5 469.5,-259.5 469.5,-240.5 338.5,-240.5"/>
<text text-anchor="middle" x="404" y="-247.5" font-family="Helvetica,sans-Serif" font-size="10.00" fill="#000000">l4_msgtag_is_exception</text>
</a>
</g>
</g>
<!-- Node3&#45;&gt;Node16 -->
<g id="edge21" class="edge">
<title>Node3&#45;&gt;Node16</title>
<path fill="none" stroke="#191970" d="M257.4791,-297.4822C277.171,-290.8188 304.1617,-281.7565 328,-274 339.4996,-270.2582 352.0054,-266.2741 363.49,-262.6491"/>
<polygon fill="#191970" stroke="#191970" points="364.781,-265.9121 373.2687,-259.5711 362.6792,-259.2351 364.781,-265.9121"/>
</g>
<!-- Node17 -->
<g id="node16" class="node">
<title>Node17</title>
<g id="a_node16"><a xlink:href="group__l4__msgtag__api.html#ga047100a8ec6216015fbd1385f5443760" target="_top" xlink:title="Test for sigma0 protocol. ">
<polygon fill="#ffffff" stroke="#000000" points="344.5,-202.5 344.5,-221.5 463.5,-221.5 463.5,-202.5 344.5,-202.5"/>
<text text-anchor="middle" x="404" y="-209.5" font-family="Helvetica,sans-Serif" font-size="10.00" fill="#000000">l4_msgtag_is_sigma0</text>
</a>
</g>
</g>
<!-- Node3&#45;&gt;Node17 -->
<g id="edge23" class="edge">
<title>Node3&#45;&gt;Node17</title>
<path fill="none" stroke="#191970" d="M239.1875,-297.2501C255.8466,-281.044 291.6493,-248.6075 328,-231 332.9726,-228.5914 338.2809,-226.4688 343.6931,-224.602"/>
<polygon fill="#191970" stroke="#191970" points="345.012,-227.8561 353.4972,-221.5116 342.9076,-221.1799 345.012,-227.8561"/>
</g>
<!-- Node18 -->
<g id="node17" class="node">
<title>Node18</title>
<g id="a_node17"><a xlink:href="group__l4__msgtag__api.html#ga463384faf9cb37d3f65f24913e34d687" target="_top" xlink:title="Test for IO&#45;page&#45;fault protocol. ">
<polygon fill="#ffffff" stroke="#000000" points="342.5,-153 342.5,-183 465.5,-183 465.5,-153 342.5,-153"/>
<text text-anchor="start" x="350.5" y="-171" font-family="Helvetica,sans-Serif" font-size="10.00" fill="#000000">l4_msgtag_is_io_page</text>
<text text-anchor="middle" x="404" y="-160" font-family="Helvetica,sans-Serif" font-size="10.00" fill="#000000">_fault</text>
</a>
</g>
</g>
<!-- Node3&#45;&gt;Node18 -->
<g id="edge25" class="edge">
<title>Node3&#45;&gt;Node18</title>
<path fill="none" stroke="#191970" d="M235.3296,-297.187C248.8376,-275.2753 284.4736,-222.0177 328,-193 331.0699,-190.9534 334.3209,-189.0624 337.6825,-187.3167"/>
<polygon fill="#191970" stroke="#191970" points="339.2342,-190.4547 346.7903,-183.028 336.252,-184.1216 339.2342,-190.4547"/>
</g>
<!-- Node4&#45;&gt;Node5 -->
<g id="edge3" class="edge">
<title>Node4&#45;&gt;Node5</title>
<path fill="none" stroke="#191970" d="M436.6975,-521.5319C457.3135,-525.0198 484.5688,-529.631 509.0209,-533.7679"/>
<polygon fill="#191970" stroke="#191970" points="508.4997,-537.2294 518.9435,-535.4466 509.6675,-530.3275 508.4997,-537.2294"/>
</g>
<!-- Node4&#45;&gt;Node6 -->
<g id="edge4" class="edge">
<title>Node4&#45;&gt;Node6</title>
<path fill="none" stroke="#191970" d="M436.6975,-510.2705C456.8097,-506.7463 483.2407,-502.1149 507.2235,-497.9125"/>
<polygon fill="#191970" stroke="#191970" points="508.0806,-501.3157 517.3264,-496.1422 506.8724,-494.4208 508.0806,-501.3157"/>
</g>
<!-- Node4&#45;&gt;Node7 -->
<g id="edge5" class="edge">
<title>Node4&#45;&gt;Node7</title>
<path fill="none" stroke="#191970" d="M416.7117,-506.4758C445.0415,-485.2499 513.6002,-433.8826 548.4327,-407.7846"/>
<polygon fill="#191970" stroke="#191970" points="550.6125,-410.5248 556.5167,-401.7276 546.4151,-404.9228 550.6125,-410.5248"/>
</g>
<!-- Node4&#45;&gt;Node8 -->
<g id="edge6" class="edge">
<title>Node4&#45;&gt;Node8</title>
<path fill="none" stroke="#191970" d="M421.8442,-506.3735C438.7881,-496.4511 463.9843,-479.5565 480,-459 505.4662,-426.3134 492.671,-407.2446 516,-373 525.1817,-359.5221 538.273,-346.7235 549.2072,-337.1961"/>
<polygon fill="#191970" stroke="#191970" points="551.6548,-339.7106 557.0477,-330.591 547.1448,-334.3571 551.6548,-339.7106"/>
</g>
<!-- Node13&#45;&gt;Node9 -->
<g id="edge16" class="edge">
<title>Node13&#45;&gt;Node9</title>
<path fill="none" stroke="#191970" d="M445.7626,-95.589C467.7005,-100.6261 494.7803,-106.8438 518.008,-112.1771"/>
<polygon fill="#191970" stroke="#191970" points="517.508,-115.6533 528.0377,-114.4799 519.0746,-108.8308 517.508,-115.6533"/>
</g>
<!-- Node14&#45;&gt;Node9 -->
<g id="edge18" class="edge">
<title>Node14&#45;&gt;Node9</title>
<path fill="none" stroke="#191970" d="M452.2091,-57.5601C461.6082,-60.1153 471.2537,-63.2397 480,-67 505.2207,-77.843 531.4069,-95.3775 548.8881,-108.1386"/>
<polygon fill="#191970" stroke="#191970" points="547.0737,-111.1513 557.1849,-114.316 551.2542,-105.5367 547.0737,-111.1513"/>
</g>
<!-- Node15&#45;&gt;Node9 -->
<g id="edge20" class="edge">
<title>Node15&#45;&gt;Node9</title>
<path fill="none" stroke="#191970" d="M458.649,-19.6191C466.096,-22.0738 473.429,-25.1491 480,-29 513.5279,-48.6486 542.3009,-84.6067 557.6426,-106.2039"/>
<polygon fill="#191970" stroke="#191970" points="554.8052,-108.2546 563.37,-114.4912 560.5638,-104.2747 554.8052,-108.2546"/>
</g>
<!-- Node16&#45;&gt;Node9 -->
<g id="edge22" class="edge">
<title>Node16&#45;&gt;Node9</title>
<path fill="none" stroke="#191970" d="M459.6562,-240.4618C466.7961,-237.998 473.776,-234.8987 480,-231 515.8971,-208.5143 544.5202,-166.8083 559.0527,-142.6409"/>
<polygon fill="#191970" stroke="#191970" points="562.2253,-144.1483 564.2392,-133.7466 556.1783,-140.6221 562.2253,-144.1483"/>
</g>
<!-- Node17&#45;&gt;Node9 -->
<g id="edge24" class="edge">
<title>Node17&#45;&gt;Node9</title>
<path fill="none" stroke="#191970" d="M454.5015,-202.4858C463.2272,-199.9731 472.0431,-196.8522 480,-193 507.9234,-179.4812 535.498,-156.3378 552.5011,-140.6172"/>
<polygon fill="#191970" stroke="#191970" points="555.0921,-142.9842 559.9542,-133.5709 550.2831,-137.8977 555.0921,-142.9842"/>
</g>
<!-- Node18&#45;&gt;Node9 -->
<g id="edge26" class="edge">
<title>Node18&#45;&gt;Node9</title>
<path fill="none" stroke="#191970" d="M460.4928,-152.9808C481.066,-147.5112 504.0548,-141.3993 523.5979,-136.2036"/>
<polygon fill="#191970" stroke="#191970" points="524.7076,-139.5302 533.4726,-133.5783 522.909,-132.7652 524.7076,-139.5302"/>
</g>
</g>
</svg>
