<?xml version="1.0" encoding="UTF-8" standalone="no"?>
<!DOCTYPE svg PUBLIC "-//W3C//DTD SVG 1.1//EN"
 "http://www.w3.org/Graphics/SVG/1.1/DTD/svg11.dtd">
<!-- Generated by graphviz version 2.40.1 (20161225.0304)
 -->
<!-- Title: L4::Factory::create Pages: 1 -->
<svg width="271pt" height="66pt"
 viewBox="0.00 0.00 271.00 66.00" xmlns="http://www.w3.org/2000/svg" xmlns:xlink="http://www.w3.org/1999/xlink">
<g id="graph0" class="graph" transform="scale(1 1) rotate(0) translate(4 62)">
<title>L4::Factory::create</title>
<polygon fill="#ffffff" stroke="transparent" points="-4,4 -4,-62 267,-62 267,4 -4,4"/>
<!-- Node2 -->
<g id="node1" class="node">
<title>Node2</title>
<polygon fill="#bfbfbf" stroke="#000000" points="0,-19.5 0,-38.5 103,-38.5 103,-19.5 0,-19.5"/>
<text text-anchor="middle" x="51.5" y="-26.5" font-family="Helvetica,sans-Serif" font-size="10.00" fill="#000000">L4::Factory::create</text>
</g>
<!-- Node3 -->
<g id="node2" class="node">
<title>Node3</title>
<g id="a_node2"><a xlink:href="classL4Re_1_1Mem__alloc.html#a44b301573ae859e8406400338cc8e924" target="_top" xlink:title="Allocate anonymous memory. ">
<polygon fill="#ffffff" stroke="#000000" points="139,-38.5 139,-57.5 263,-57.5 263,-38.5 139,-38.5"/>
<text text-anchor="middle" x="201" y="-45.5" font-family="Helvetica,sans-Serif" font-size="10.00" fill="#000000">L4Re::Mem_alloc::alloc</text>
</a>
</g>
</g>
<!-- Node2&#45;&gt;Node3 -->
<g id="edge1" class="edge">
<title>Node2&#45;&gt;Node3</title>
<path fill="none" stroke="#191970" d="M113.4841,-36.8776C121.8919,-37.9461 130.5218,-39.0429 138.9311,-40.1116"/>
<polygon fill="#191970" stroke="#191970" points="113.7298,-33.3807 103.3683,-35.592 112.8472,-40.3249 113.7298,-33.3807"/>
</g>
<!-- Node4 -->
<g id="node3" class="node">
<title>Node4</title>
<g id="a_node3"><a xlink:href="classL4_1_1Factory.html#add39d432a64a16aec33abeefcb3ba1cd" target="_top" xlink:title="Create call for typed capabilities. ">
<polygon fill="#ffffff" stroke="#000000" points="149.5,-.5 149.5,-19.5 252.5,-19.5 252.5,-.5 149.5,-.5"/>
<text text-anchor="middle" x="201" y="-7.5" font-family="Helvetica,sans-Serif" font-size="10.00" fill="#000000">L4::Factory::create</text>
</a>
</g>
</g>
<!-- Node2&#45;&gt;Node4 -->
<g id="edge2" class="edge">
<title>Node2&#45;&gt;Node4</title>
<path fill="none" stroke="#191970" d="M113.3292,-21.1421C125.3501,-19.6144 137.8307,-18.0282 149.4762,-16.5482"/>
<polygon fill="#191970" stroke="#191970" points="112.8472,-17.6751 103.3683,-22.408 113.7298,-24.6193 112.8472,-17.6751"/>
</g>
</g>
</svg>
