<?xml version="1.0" encoding="UTF-8" standalone="no"?>
<!DOCTYPE svg PUBLIC "-//W3C//DTD SVG 1.1//EN"
 "http://www.w3.org/Graphics/SVG/1.1/DTD/svg11.dtd">
<!-- Generated by graphviz version 2.40.1 (20161225.0304)
 -->
<!-- Title: L4vbus::Pci_host_bridge Pages: 1 -->
<svg width="138pt" height="526pt"
 viewBox="0.00 0.00 138.00 526.00" xmlns="http://www.w3.org/2000/svg" xmlns:xlink="http://www.w3.org/1999/xlink">
<g id="graph0" class="graph" transform="scale(1 1) rotate(0) translate(4 522)">
<title>L4vbus::Pci_host_bridge</title>
<polygon fill="#ffffff" stroke="transparent" points="-4,4 -4,-522 134,-522 134,4 -4,4"/>
<!-- Node0 -->
<g id="node1" class="node">
<title>Node0</title>
<polygon fill="#bfbfbf" stroke="#000000" points="0,-.5 0,-79.5 130,-79.5 130,-.5 0,-.5"/>
<text text-anchor="middle" x="65" y="-67.5" font-family="Helvetica,sans-Serif" font-size="10.00" fill="#000000">L4vbus::Pci_host_bridge</text>
<polyline fill="none" stroke="#000000" points="0,-60.5 130,-60.5 "/>
<text text-anchor="middle" x="65" y="-48.5" font-family="Helvetica,sans-Serif" font-size="10.00" fill="#000000"> </text>
<polyline fill="none" stroke="#000000" points="0,-41.5 130,-41.5 "/>
<text text-anchor="start" x="8" y="-29.5" font-family="Helvetica,sans-Serif" font-size="10.00" fill="#000000">+ cfg_read()</text>
<text text-anchor="start" x="8" y="-18.5" font-family="Helvetica,sans-Serif" font-size="10.00" fill="#000000">+ cfg_write()</text>
<text text-anchor="start" x="8" y="-7.5" font-family="Helvetica,sans-Serif" font-size="10.00" fill="#000000">+ irq_enable()</text>
</g>
<!-- Node1 -->
<g id="node2" class="node">
<title>Node1</title>
<g id="a_node2"><a xlink:href="classL4vbus_1_1Device.html" target="_top" xlink:title="Device on a L4vbus::Vbus. ">
<polygon fill="#ffffff" stroke="#000000" points="14.5,-117.5 14.5,-295.5 115.5,-295.5 115.5,-117.5 14.5,-117.5"/>
<text text-anchor="middle" x="65" y="-283.5" font-family="Helvetica,sans-Serif" font-size="10.00" fill="#000000">L4vbus::Device</text>
<polyline fill="none" stroke="#000000" points="14.5,-276.5 115.5,-276.5 "/>
<text text-anchor="start" x="22.5" y="-264.5" font-family="Helvetica,sans-Serif" font-size="10.00" fill="#000000"># _bus</text>
<text text-anchor="start" x="22.5" y="-253.5" font-family="Helvetica,sans-Serif" font-size="10.00" fill="#000000"># _dev</text>
<polyline fill="none" stroke="#000000" points="14.5,-246.5 115.5,-246.5 "/>
<text text-anchor="start" x="22.5" y="-234.5" font-family="Helvetica,sans-Serif" font-size="10.00" fill="#000000">+ Device()</text>
<text text-anchor="start" x="22.5" y="-223.5" font-family="Helvetica,sans-Serif" font-size="10.00" fill="#000000">+ Device()</text>
<text text-anchor="start" x="22.5" y="-212.5" font-family="Helvetica,sans-Serif" font-size="10.00" fill="#000000">+ bus_cap()</text>
<text text-anchor="start" x="22.5" y="-201.5" font-family="Helvetica,sans-Serif" font-size="10.00" fill="#000000">+ dev_handle()</text>
<text text-anchor="start" x="22.5" y="-190.5" font-family="Helvetica,sans-Serif" font-size="10.00" fill="#000000">+ device_by_hid()</text>
<text text-anchor="start" x="22.5" y="-179.5" font-family="Helvetica,sans-Serif" font-size="10.00" fill="#000000">+ next_device()</text>
<text text-anchor="start" x="22.5" y="-168.5" font-family="Helvetica,sans-Serif" font-size="10.00" fill="#000000">+ device()</text>
<text text-anchor="start" x="22.5" y="-157.5" font-family="Helvetica,sans-Serif" font-size="10.00" fill="#000000">+ get_resource()</text>
<text text-anchor="start" x="22.5" y="-146.5" font-family="Helvetica,sans-Serif" font-size="10.00" fill="#000000">+ is_compatible()</text>
<text text-anchor="start" x="22.5" y="-135.5" font-family="Helvetica,sans-Serif" font-size="10.00" fill="#000000">+ operator==()</text>
<text text-anchor="start" x="22.5" y="-124.5" font-family="Helvetica,sans-Serif" font-size="10.00" fill="#000000">+ operator!=()</text>
</a>
</g>
</g>
<!-- Node1&#45;&gt;Node0 -->
<g id="edge1" class="edge">
<title>Node1&#45;&gt;Node0</title>
<path fill="none" stroke="#191970" d="M65,-107.2963C65,-97.6808 65,-88.3604 65,-79.8743"/>
<polygon fill="none" stroke="#191970" points="61.5001,-107.4007 65,-117.4008 68.5001,-107.4008 61.5001,-107.4007"/>
</g>
<!-- Node2 -->
<g id="node3" class="node">
<title>Node2</title>
<g id="a_node3"><a xlink:href="classL4vbus_1_1Pm.html" target="_top" xlink:title="{L4vbus::Pm\&lt; Device \&gt;\n||+ pm_suspend()\l+ pm_resume()\l}">
<polygon fill="#ffffff" stroke="#000000" points="5.5,-333.5 5.5,-401.5 124.5,-401.5 124.5,-333.5 5.5,-333.5"/>
<text text-anchor="middle" x="65" y="-389.5" font-family="Helvetica,sans-Serif" font-size="10.00" fill="#000000">L4vbus::Pm&lt; Device &gt;</text>
<polyline fill="none" stroke="#000000" points="5.5,-382.5 124.5,-382.5 "/>
<text text-anchor="middle" x="65" y="-370.5" font-family="Helvetica,sans-Serif" font-size="10.00" fill="#000000"> </text>
<polyline fill="none" stroke="#000000" points="5.5,-363.5 124.5,-363.5 "/>
<text text-anchor="start" x="13.5" y="-351.5" font-family="Helvetica,sans-Serif" font-size="10.00" fill="#000000">+ pm_suspend()</text>
<text text-anchor="start" x="13.5" y="-340.5" font-family="Helvetica,sans-Serif" font-size="10.00" fill="#000000">+ pm_resume()</text>
</a>
</g>
</g>
<!-- Node2&#45;&gt;Node1 -->
<g id="edge2" class="edge">
<title>Node2&#45;&gt;Node1</title>
<path fill="none" stroke="#191970" d="M65,-323.1668C65,-314.4962 65,-305.1188 65,-295.5789"/>
<polygon fill="none" stroke="#191970" points="61.5001,-323.356 65,-333.356 68.5001,-323.3561 61.5001,-323.356"/>
</g>
<!-- Node3 -->
<g id="node4" class="node">
<title>Node3</title>
<g id="a_node4"><a xlink:href="classL4vbus_1_1Pm.html" target="_top" xlink:title="Power&#45;management API mixin. ">
<polygon fill="#ffffff" stroke="#000000" points="10.5,-449.5 10.5,-517.5 119.5,-517.5 119.5,-449.5 10.5,-449.5"/>
<text text-anchor="middle" x="65" y="-505.5" font-family="Helvetica,sans-Serif" font-size="10.00" fill="#000000">L4vbus::Pm&lt; DEC &gt;</text>
<polyline fill="none" stroke="#000000" points="10.5,-498.5 119.5,-498.5 "/>
<text text-anchor="middle" x="65" y="-486.5" font-family="Helvetica,sans-Serif" font-size="10.00" fill="#000000"> </text>
<polyline fill="none" stroke="#000000" points="10.5,-479.5 119.5,-479.5 "/>
<text text-anchor="start" x="18.5" y="-467.5" font-family="Helvetica,sans-Serif" font-size="10.00" fill="#000000">+ pm_suspend()</text>
<text text-anchor="start" x="18.5" y="-456.5" font-family="Helvetica,sans-Serif" font-size="10.00" fill="#000000">+ pm_resume()</text>
</a>
</g>
</g>
<!-- Node3&#45;&gt;Node2 -->
<g id="edge3" class="edge">
<title>Node3&#45;&gt;Node2</title>
<path fill="none" stroke="#ffa500" d="M65,-439.1851C65,-426.8048 65,-413.5422 65,-401.833"/>
<polygon fill="#ffa500" stroke="#ffa500" points="61.5001,-439.3235 65,-449.3236 68.5001,-439.3236 61.5001,-439.3235"/>
<text text-anchor="middle" x="92" y="-423" font-family="Helvetica,sans-Serif" font-size="10.00" fill="#000000"> &lt; Device &gt;</text>
</g>
</g>
</svg>
