<?xml version="1.0" encoding="UTF-8" standalone="no"?>
<!DOCTYPE svg PUBLIC "-//W3C//DTD SVG 1.1//EN"
 "http://www.w3.org/Graphics/SVG/1.1/DTD/svg11.dtd">
<!-- Generated by graphviz version 2.40.1 (20161225.0304)
 -->
<!-- Title: L4Re::Rm::attach Pages: 1 -->
<svg width="539pt" height="268pt"
 viewBox="0.00 0.00 539.00 268.00" xmlns="http://www.w3.org/2000/svg" xmlns:xlink="http://www.w3.org/1999/xlink">
<g id="graph0" class="graph" transform="scale(1 1) rotate(0) translate(4 264)">
<title>L4Re::Rm::attach</title>
<polygon fill="#ffffff" stroke="transparent" points="-4,4 -4,-264 535,-264 535,4 -4,4"/>
<!-- Node0 -->
<g id="node1" class="node">
<title>Node0</title>
<polygon fill="#bfbfbf" stroke="#000000" points="0,-126.5 0,-145.5 96,-145.5 96,-126.5 0,-126.5"/>
<text text-anchor="middle" x="48" y="-133.5" font-family="Helvetica,sans-Serif" font-size="10.00" fill="#000000">L4Re::Rm::attach</text>
</g>
<!-- Node1 -->
<g id="node2" class="node">
<title>Node1</title>
<g id="a_node2"><a xlink:href="classL4_1_1Ipc_1_1Cap.html#a14e40e3bf1f995e44c619b0016e7bb0b" target="_top" xlink:title="Return the L4::Cap&lt;T&gt; of this Cap. ">
<polygon fill="#ffffff" stroke="#000000" points="146.5,-240.5 146.5,-259.5 239.5,-259.5 239.5,-240.5 146.5,-240.5"/>
<text text-anchor="middle" x="193" y="-247.5" font-family="Helvetica,sans-Serif" font-size="10.00" fill="#000000">L4::Ipc::Cap::cap</text>
</a>
</g>
</g>
<!-- Node0&#45;&gt;Node1 -->
<g id="edge1" class="edge">
<title>Node0&#45;&gt;Node1</title>
<path fill="none" stroke="#191970" d="M53.896,-145.6383C66.0856,-164.7641 95.9579,-207.6757 132,-231 135.1662,-233.049 138.5673,-234.8888 142.0852,-236.5389"/>
<polygon fill="#191970" stroke="#191970" points="141.0104,-239.8821 151.5885,-240.4772 143.6903,-233.4154 141.0104,-239.8821"/>
</g>
<!-- Node2 -->
<g id="node3" class="node">
<title>Node2</title>
<g id="a_node3"><a xlink:href="classL4Re_1_1Rm.html#af4ad2b5650cb44bff10c217220def4c9" target="_top" xlink:title="Detach a region from the address space. ">
<polygon fill="#ffffff" stroke="#000000" points="143.5,-202.5 143.5,-221.5 242.5,-221.5 242.5,-202.5 143.5,-202.5"/>
<text text-anchor="middle" x="193" y="-209.5" font-family="Helvetica,sans-Serif" font-size="10.00" fill="#000000">L4Re::Rm::detach</text>
</a>
</g>
</g>
<!-- Node0&#45;&gt;Node2 -->
<g id="edge2" class="edge">
<title>Node0&#45;&gt;Node2</title>
<path fill="none" stroke="#191970" d="M59.8311,-145.7004C75.4968,-158.1388 104.375,-179.6871 132,-193 136.6277,-195.2302 141.5774,-197.2752 146.5812,-199.1292"/>
<polygon fill="#191970" stroke="#191970" points="145.6051,-202.495 156.1998,-202.4574 147.894,-195.8798 145.6051,-202.495"/>
</g>
<!-- Node3 -->
<g id="node4" class="node">
<title>Node3</title>
<g id="a_node4"><a xlink:href="classL4_1_1Cap__base.html#ab4937bb12579c752564f7250760d0bda" target="_top" xlink:title="Test whether the capability is a valid capability index (i.e., not L4_INVALID_CAP). ">
<polygon fill="#ffffff" stroke="#000000" points="132.5,-164.5 132.5,-183.5 253.5,-183.5 253.5,-164.5 132.5,-164.5"/>
<text text-anchor="middle" x="193" y="-171.5" font-family="Helvetica,sans-Serif" font-size="10.00" fill="#000000">L4::Cap_base::is_valid</text>
</a>
</g>
</g>
<!-- Node0&#45;&gt;Node3 -->
<g id="edge3" class="edge">
<title>Node0&#45;&gt;Node3</title>
<path fill="none" stroke="#191970" d="M84.5896,-145.589C103.4654,-150.5358 126.6859,-156.6211 146.7879,-161.8892"/>
<polygon fill="#191970" stroke="#191970" points="146.1129,-165.3305 156.6735,-164.4799 147.8875,-158.5591 146.1129,-165.3305"/>
</g>
<!-- Node4 -->
<g id="node5" class="node">
<title>Node4</title>
<g id="a_node5"><a xlink:href="group__l4__fpage__api.html#ga48705696780cda4e2f04dbdb54946f75" target="_top" xlink:title="Create a memory flex page. ">
<polygon fill="#ffffff" stroke="#000000" points="164,-126.5 164,-145.5 222,-145.5 222,-126.5 164,-126.5"/>
<text text-anchor="middle" x="193" y="-133.5" font-family="Helvetica,sans-Serif" font-size="10.00" fill="#000000">l4_fpage</text>
</a>
</g>
</g>
<!-- Node0&#45;&gt;Node4 -->
<g id="edge4" class="edge">
<title>Node0&#45;&gt;Node4</title>
<path fill="none" stroke="#191970" d="M96.2829,-136C115.015,-136 136.1838,-136 153.9309,-136"/>
<polygon fill="#191970" stroke="#191970" points="153.9404,-139.5001 163.9403,-136 153.9403,-132.5001 153.9404,-139.5001"/>
</g>
<!-- Node5 -->
<g id="node6" class="node">
<title>Node5</title>
<g id="a_node6"><a xlink:href="group__l4__memory__api.html#ga96e3b2d8e69308aecbb11d1d24f61662" target="_top" xlink:title="Round address up to the next page. ">
<polygon fill="#ffffff" stroke="#000000" points="149,-88.5 149,-107.5 237,-107.5 237,-88.5 149,-88.5"/>
<text text-anchor="middle" x="193" y="-95.5" font-family="Helvetica,sans-Serif" font-size="10.00" fill="#000000">l4_round_page</text>
</a>
</g>
</g>
<!-- Node0&#45;&gt;Node5 -->
<g id="edge5" class="edge">
<title>Node0&#45;&gt;Node5</title>
<path fill="none" stroke="#191970" d="M84.5896,-126.411C103.4654,-121.4642 126.6859,-115.3789 146.7879,-110.1108"/>
<polygon fill="#191970" stroke="#191970" points="147.8875,-113.4409 156.6735,-107.5201 146.1129,-106.6695 147.8875,-113.4409"/>
</g>
<!-- Node8 -->
<g id="node9" class="node">
<title>Node8</title>
<g id="a_node9"><a xlink:href="classL4Re_1_1Dataspace.html#a7caf317574ca8fa0f43bcd333f7bb860" target="_top" xlink:title="Map a part of a dataspace into a local memory area. ">
<polygon fill="#ffffff" stroke="#000000" points="132,-39 132,-69 254,-69 254,-39 132,-39"/>
<text text-anchor="start" x="140" y="-57" font-family="Helvetica,sans-Serif" font-size="10.00" fill="#000000">L4Re::Dataspace::map</text>
<text text-anchor="middle" x="193" y="-46" font-family="Helvetica,sans-Serif" font-size="10.00" fill="#000000">_region</text>
</a>
</g>
</g>
<!-- Node0&#45;&gt;Node8 -->
<g id="edge8" class="edge">
<title>Node0&#45;&gt;Node8</title>
<path fill="none" stroke="#191970" d="M60.2922,-126.457C76.2188,-114.3802 105.1354,-93.4184 132,-79 135.6872,-77.0211 139.5654,-75.0975 143.5049,-73.2538"/>
<polygon fill="#191970" stroke="#191970" points="145.0554,-76.3943 152.7473,-69.1083 142.1906,-70.0074 145.0554,-76.3943"/>
</g>
<!-- Node11 -->
<g id="node12" class="node">
<title>Node11</title>
<g id="a_node12"><a xlink:href="classL4_1_1Task.html#a4b9294cc5d6338a36958df578f092a25" target="_top" xlink:title="Revoke rights from the task. ">
<polygon fill="#ffffff" stroke="#000000" points="147,-.5 147,-19.5 239,-19.5 239,-.5 147,-.5"/>
<text text-anchor="middle" x="193" y="-7.5" font-family="Helvetica,sans-Serif" font-size="10.00" fill="#000000">L4::Task::unmap</text>
</a>
</g>
</g>
<!-- Node0&#45;&gt;Node11 -->
<g id="edge12" class="edge">
<title>Node0&#45;&gt;Node11</title>
<path fill="none" stroke="#191970" d="M52.8839,-126.4158C64.0114,-105.5354 93.3069,-55.6761 132,-29 134.8723,-27.0197 137.9597,-25.2392 141.1659,-23.6394"/>
<polygon fill="#191970" stroke="#191970" points="142.6716,-26.8011 150.4363,-19.5928 139.8711,-20.3857 142.6716,-26.8011"/>
</g>
<!-- Node6 -->
<g id="node7" class="node">
<title>Node6</title>
<g id="a_node7"><a xlink:href="group__l4__memory__api.html#gae876a4c6e0f21b2ecbf17863dc7d11e4" target="_top" xlink:title="Round value up to the next alignment with bits size. ">
<polygon fill="#ffffff" stroke="#000000" points="294.5,-88.5 294.5,-107.5 377.5,-107.5 377.5,-88.5 294.5,-88.5"/>
<text text-anchor="middle" x="336" y="-95.5" font-family="Helvetica,sans-Serif" font-size="10.00" fill="#000000">l4_round_size</text>
</a>
</g>
</g>
<!-- Node5&#45;&gt;Node6 -->
<g id="edge6" class="edge">
<title>Node5&#45;&gt;Node6</title>
<path fill="none" stroke="#191970" d="M237.0715,-98C251.8739,-98 268.5248,-98 283.8847,-98"/>
<polygon fill="#191970" stroke="#191970" points="284.2736,-101.5001 294.2736,-98 284.2736,-94.5001 284.2736,-101.5001"/>
</g>
<!-- Node7 -->
<g id="node8" class="node">
<title>Node7</title>
<g id="a_node8"><a xlink:href="group__l4__memory__api.html#ga2be30f4e5dde3c85d115d2a9c77f6215" target="_top" xlink:title="Determine how many machine words (l4_umword_t) are required to store a buffer of &#39;size&#39; bytes...">
<polygon fill="#ffffff" stroke="#000000" points="418,-88.5 418,-107.5 531,-107.5 531,-88.5 418,-88.5"/>
<text text-anchor="middle" x="474.5" y="-95.5" font-family="Helvetica,sans-Serif" font-size="10.00" fill="#000000">l4_bytes_to_mwords</text>
</a>
</g>
</g>
<!-- Node6&#45;&gt;Node7 -->
<g id="edge7" class="edge">
<title>Node6&#45;&gt;Node7</title>
<path fill="none" stroke="#191970" d="M377.5546,-98C387.0564,-98 397.3911,-98 407.6552,-98"/>
<polygon fill="#191970" stroke="#191970" points="407.8624,-101.5001 417.8624,-98 407.8624,-94.5001 407.8624,-101.5001"/>
</g>
<!-- Node9 -->
<g id="node10" class="node">
<title>Node9</title>
<g id="a_node10"><a xlink:href="namespaceL4.html#a92c0d3febc3cd6b35aa072d1bf2d9d11" target="_top" xlink:title="Round a value up so the given number of lsb is zero. ">
<polygon fill="#ffffff" stroke="#000000" points="290,-47.5 290,-66.5 382,-66.5 382,-47.5 290,-47.5"/>
<text text-anchor="middle" x="336" y="-54.5" font-family="Helvetica,sans-Serif" font-size="10.00" fill="#000000">L4::round_order</text>
</a>
</g>
</g>
<!-- Node8&#45;&gt;Node9 -->
<g id="edge9" class="edge">
<title>Node8&#45;&gt;Node9</title>
<path fill="none" stroke="#191970" d="M254.0597,-55.281C262.5867,-55.4599 271.3162,-55.643 279.749,-55.8199"/>
<polygon fill="#191970" stroke="#191970" points="279.783,-59.3213 289.8543,-56.0319 279.9299,-52.3228 279.783,-59.3213"/>
</g>
<!-- Node10 -->
<g id="node11" class="node">
<title>Node10</title>
<g id="a_node11"><a xlink:href="namespaceL4.html#a9e6e01651b5cc9d14d8436c6d5d46536" target="_top" xlink:title="Round a value down so the given number of lsb is zero. ">
<polygon fill="#ffffff" stroke="#000000" points="430.5,-28.5 430.5,-47.5 518.5,-47.5 518.5,-28.5 430.5,-28.5"/>
<text text-anchor="middle" x="474.5" y="-35.5" font-family="Helvetica,sans-Serif" font-size="10.00" fill="#000000">L4::trunc_order</text>
</a>
</g>
</g>
<!-- Node8&#45;&gt;Node10 -->
<g id="edge11" class="edge">
<title>Node8&#45;&gt;Node10</title>
<path fill="none" stroke="#191970" d="M254.1291,-42.3599C265.986,-40.5439 278.3476,-38.9546 290,-38 333.7712,-34.4142 383.5799,-34.6694 420.4032,-35.6798"/>
<polygon fill="#191970" stroke="#191970" points="420.3281,-39.1791 430.4291,-35.9823 420.5392,-32.1822 420.3281,-39.1791"/>
</g>
<!-- Node9&#45;&gt;Node10 -->
<g id="edge10" class="edge">
<title>Node9&#45;&gt;Node10</title>
<path fill="none" stroke="#191970" d="M382.1185,-50.6733C394.4127,-48.9867 407.8059,-47.1494 420.4825,-45.4103"/>
<polygon fill="#191970" stroke="#191970" points="421.0292,-48.8682 430.4607,-44.0415 420.0777,-41.9332 421.0292,-48.8682"/>
</g>
</g>
</svg>
