<?xml version="1.0" encoding="UTF-8" standalone="no"?>
<!DOCTYPE svg PUBLIC "-//W3C//DTD SVG 1.1//EN"
 "http://www.w3.org/Graphics/SVG/1.1/DTD/svg11.dtd">
<!-- Generated by graphviz version 2.40.1 (20161225.0304)
 -->
<!-- Title: L4Re::Dataspace Pages: 1 -->
<svg width="316pt" height="431pt"
 viewBox="0.00 0.00 316.00 431.00" xmlns="http://www.w3.org/2000/svg" xmlns:xlink="http://www.w3.org/1999/xlink">
<g id="graph0" class="graph" transform="scale(1 1) rotate(0) translate(4 427)">
<title>L4Re::Dataspace</title>
<polygon fill="#ffffff" stroke="transparent" points="-4,4 -4,-427 312,-427 312,4 -4,4"/>
<!-- Node6 -->
<g id="node1" class="node">
<title>Node6</title>
<polygon fill="#bfbfbf" stroke="#000000" points="62,-.5 62,-134.5 160,-134.5 160,-.5 62,-.5"/>
<text text-anchor="middle" x="111" y="-122.5" font-family="Helvetica,sans-Serif" font-size="10.00" fill="#000000">L4Re::Dataspace</text>
<polyline fill="none" stroke="#000000" points="62,-115.5 160,-115.5 "/>
<text text-anchor="middle" x="111" y="-103.5" font-family="Helvetica,sans-Serif" font-size="10.00" fill="#000000"> </text>
<polyline fill="none" stroke="#000000" points="62,-96.5 160,-96.5 "/>
<text text-anchor="start" x="70" y="-84.5" font-family="Helvetica,sans-Serif" font-size="10.00" fill="#000000">+ map()</text>
<text text-anchor="start" x="70" y="-73.5" font-family="Helvetica,sans-Serif" font-size="10.00" fill="#000000">+ map_region()</text>
<text text-anchor="start" x="70" y="-62.5" font-family="Helvetica,sans-Serif" font-size="10.00" fill="#000000">+ clear()</text>
<text text-anchor="start" x="70" y="-51.5" font-family="Helvetica,sans-Serif" font-size="10.00" fill="#000000">+ allocate()</text>
<text text-anchor="start" x="70" y="-40.5" font-family="Helvetica,sans-Serif" font-size="10.00" fill="#000000">+ copy_in()</text>
<text text-anchor="start" x="70" y="-29.5" font-family="Helvetica,sans-Serif" font-size="10.00" fill="#000000">+ size()</text>
<text text-anchor="start" x="70" y="-18.5" font-family="Helvetica,sans-Serif" font-size="10.00" fill="#000000">+ flags()</text>
<text text-anchor="start" x="70" y="-7.5" font-family="Helvetica,sans-Serif" font-size="10.00" fill="#000000">+ info()</text>
</g>
<!-- Node7 -->
<g id="node2" class="node">
<title>Node7</title>
<g id="a_node2"><a xlink:href="classL4_1_1Kobject__t.html" target="_top" xlink:title="{L4::Kobject_t\&lt; Dataspace,\l L4::Kobject, L4RE_PROTO\l_DATASPACE, L4::Type_info\l::Demand_t\&lt; 1 \&gt; \&gt;\n||# c()\l# __check_protocols__()\l}">
<polygon fill="#ffffff" stroke="#000000" points="34,-172.5 34,-273.5 188,-273.5 188,-172.5 34,-172.5"/>
<text text-anchor="start" x="42" y="-261.5" font-family="Helvetica,sans-Serif" font-size="10.00" fill="#000000">L4::Kobject_t&lt; Dataspace,</text>
<text text-anchor="start" x="42" y="-250.5" font-family="Helvetica,sans-Serif" font-size="10.00" fill="#000000"> L4::Kobject, L4RE_PROTO</text>
<text text-anchor="start" x="42" y="-239.5" font-family="Helvetica,sans-Serif" font-size="10.00" fill="#000000">_DATASPACE, L4::Type_info</text>
<text text-anchor="middle" x="111" y="-228.5" font-family="Helvetica,sans-Serif" font-size="10.00" fill="#000000">::Demand_t&lt; 1 &gt; &gt;</text>
<polyline fill="none" stroke="#000000" points="34,-221.5 188,-221.5 "/>
<text text-anchor="middle" x="111" y="-209.5" font-family="Helvetica,sans-Serif" font-size="10.00" fill="#000000"> </text>
<polyline fill="none" stroke="#000000" points="34,-202.5 188,-202.5 "/>
<text text-anchor="start" x="42" y="-190.5" font-family="Helvetica,sans-Serif" font-size="10.00" fill="#000000"># c()</text>
<text text-anchor="start" x="42" y="-179.5" font-family="Helvetica,sans-Serif" font-size="10.00" fill="#000000"># __check_protocols__()</text>
</a>
</g>
</g>
<!-- Node7&#45;&gt;Node6 -->
<g id="edge1" class="edge">
<title>Node7&#45;&gt;Node6</title>
<path fill="none" stroke="#191970" d="M111,-161.795C111,-152.8865 111,-143.6741 111,-134.6554"/>
<polygon fill="none" stroke="#191970" points="107.5001,-162.0835 111,-172.0835 114.5001,-162.0835 107.5001,-162.0835"/>
</g>
<!-- Node8 -->
<g id="node3" class="node">
<title>Node8</title>
<g id="a_node3"><a xlink:href="classL4_1_1Kobject.html" target="_top" xlink:title="Base class for all kinds of kernel objects and remote objects, referenced by capabilities. ">
<polygon fill="#ffffff" stroke="#000000" points="0,-349 0,-417 84,-417 84,-349 0,-349"/>
<text text-anchor="middle" x="42" y="-405" font-family="Helvetica,sans-Serif" font-size="10.00" fill="#000000">L4::Kobject</text>
<polyline fill="none" stroke="#000000" points="0,-398 84,-398 "/>
<text text-anchor="middle" x="42" y="-386" font-family="Helvetica,sans-Serif" font-size="10.00" fill="#000000"> </text>
<polyline fill="none" stroke="#000000" points="0,-379 84,-379 "/>
<text text-anchor="start" x="8" y="-367" font-family="Helvetica,sans-Serif" font-size="10.00" fill="#000000">+ dec_refcnt()</text>
<text text-anchor="start" x="8" y="-356" font-family="Helvetica,sans-Serif" font-size="10.00" fill="#000000"># cap()</text>
</a>
</g>
</g>
<!-- Node8&#45;&gt;Node7 -->
<g id="edge2" class="edge">
<title>Node8&#45;&gt;Node7</title>
<path fill="none" stroke="#191970" d="M60.8209,-339.3573C69.5759,-319.0558 80.042,-294.7866 89.145,-273.6782"/>
<polygon fill="none" stroke="#191970" points="57.5484,-338.1074 56.8022,-348.676 63.9761,-340.8795 57.5484,-338.1074"/>
</g>
<!-- Node9 -->
<g id="node4" class="node">
<title>Node9</title>
<g id="a_node4"><a xlink:href="classL4_1_1Kobject__t.html" target="_top" xlink:title="Helper class to create an L4Re interface class that is derived from a single base class...">
<polygon fill="#ffffff" stroke="#000000" points="102,-343.5 102,-422.5 260,-422.5 260,-343.5 102,-343.5"/>
<text text-anchor="start" x="110" y="-410.5" font-family="Helvetica,sans-Serif" font-size="10.00" fill="#000000">L4::Kobject_t&lt; Derived,</text>
<text text-anchor="middle" x="181" y="-399.5" font-family="Helvetica,sans-Serif" font-size="10.00" fill="#000000"> Base, PROTO, S_DEMAND &gt;</text>
<polyline fill="none" stroke="#000000" points="102,-392.5 260,-392.5 "/>
<text text-anchor="middle" x="181" y="-380.5" font-family="Helvetica,sans-Serif" font-size="10.00" fill="#000000"> </text>
<polyline fill="none" stroke="#000000" points="102,-373.5 260,-373.5 "/>
<text text-anchor="start" x="110" y="-361.5" font-family="Helvetica,sans-Serif" font-size="10.00" fill="#000000"># c()</text>
<text text-anchor="start" x="110" y="-350.5" font-family="Helvetica,sans-Serif" font-size="10.00" fill="#000000"># __check_protocols__()</text>
</a>
</g>
</g>
<!-- Node9&#45;&gt;Node7 -->
<g id="edge3" class="edge">
<title>Node9&#45;&gt;Node7</title>
<path fill="none" stroke="#ffa500" d="M159.6807,-334.2703C151.2741,-315.0551 141.6178,-292.9836 133.1334,-273.5907"/>
<polygon fill="#ffa500" stroke="#ffa500" points="156.4818,-335.6907 163.6966,-343.4494 162.8949,-332.885 156.4818,-335.6907"/>
<text text-anchor="start" x="154" y="-317" font-family="Helvetica,sans-Serif" font-size="10.00" fill="#000000"> &lt; Dataspace, L4::Kobject,</text>
<text text-anchor="start" x="154" y="-306" font-family="Helvetica,sans-Serif" font-size="10.00" fill="#000000"> L4RE_PROTO_DATASPACE,</text>
<text text-anchor="middle" x="231" y="-295" font-family="Helvetica,sans-Serif" font-size="10.00" fill="#000000"> L4::Type_info::Demand_t&lt; 1 &gt; &gt;</text>
</g>
</g>
</svg>
