<?xml version="1.0" encoding="UTF-8" standalone="no"?>
<!DOCTYPE svg PUBLIC "-//W3C//DTD SVG 1.1//EN"
 "http://www.w3.org/Graphics/SVG/1.1/DTD/svg11.dtd">
<!-- Generated by graphviz version 2.40.1 (20161225.0304)
 -->
<!-- Title: L4::Factory::create_factory Pages: 1 -->
<svg width="296pt" height="104pt"
 viewBox="0.00 0.00 296.00 104.00" xmlns="http://www.w3.org/2000/svg" xmlns:xlink="http://www.w3.org/1999/xlink">
<g id="graph0" class="graph" transform="scale(1 1) rotate(0) translate(4 100)">
<title>L4::Factory::create_factory</title>
<polygon fill="#ffffff" stroke="transparent" points="-4,4 -4,-100 292,-100 292,4 -4,4"/>
<!-- Node9 -->
<g id="node1" class="node">
<title>Node9</title>
<polygon fill="#bfbfbf" stroke="#000000" points="0,-33 0,-63 103,-63 103,-33 0,-33"/>
<text text-anchor="start" x="8" y="-51" font-family="Helvetica,sans-Serif" font-size="10.00" fill="#000000">L4::Factory::create</text>
<text text-anchor="middle" x="51.5" y="-40" font-family="Helvetica,sans-Serif" font-size="10.00" fill="#000000">_factory</text>
</g>
<!-- Node10 -->
<g id="node2" class="node">
<title>Node10</title>
<g id="a_node2"><a xlink:href="classL4_1_1Cap__base.html#a90ff089ca2442b128c2b2b0e1c22c6d7" target="_top" xlink:title="Return capability selector. ">
<polygon fill="#ffffff" stroke="#000000" points="162,-76.5 162,-95.5 265,-95.5 265,-76.5 162,-76.5"/>
<text text-anchor="middle" x="213.5" y="-83.5" font-family="Helvetica,sans-Serif" font-size="10.00" fill="#000000">L4::Cap_base::cap</text>
</a>
</g>
</g>
<!-- Node9&#45;&gt;Node10 -->
<g id="edge1" class="edge">
<title>Node9&#45;&gt;Node10</title>
<path fill="none" stroke="#191970" d="M103.2032,-60.1279C122.2767,-64.6019 143.855,-69.6635 162.8356,-74.1158"/>
<polygon fill="#191970" stroke="#191970" points="162.253,-77.574 172.788,-76.4503 163.8516,-70.759 162.253,-77.574"/>
</g>
<!-- Node11 -->
<g id="node3" class="node">
<title>Node11</title>
<g id="a_node3"><a xlink:href="classL4_1_1Kobject.html#a4f2117ae76762f4084e6a1adb915863c" target="_top" xlink:title="Return capability selector. ">
<polygon fill="#ffffff" stroke="#000000" points="169,-38.5 169,-57.5 258,-57.5 258,-38.5 169,-38.5"/>
<text text-anchor="middle" x="213.5" y="-45.5" font-family="Helvetica,sans-Serif" font-size="10.00" fill="#000000">L4::Kobject::cap</text>
</a>
</g>
</g>
<!-- Node9&#45;&gt;Node11 -->
<g id="edge2" class="edge">
<title>Node9&#45;&gt;Node11</title>
<path fill="none" stroke="#191970" d="M103.2032,-48C120.9344,-48 140.8302,-48 158.7914,-48"/>
<polygon fill="#191970" stroke="#191970" points="158.8275,-51.5001 168.8274,-48 158.8274,-44.5001 158.8275,-51.5001"/>
</g>
<!-- Node12 -->
<g id="node4" class="node">
<title>Node12</title>
<g id="a_node4"><a xlink:href="group__l4__factory__api.html#ga7dc4110aab3c66ea906cd8a9d3fdc27a" target="_top" xlink:title="Create a new factory. ">
<polygon fill="#ffffff" stroke="#000000" points="139,-.5 139,-19.5 288,-19.5 288,-.5 139,-.5"/>
<text text-anchor="middle" x="213.5" y="-7.5" font-family="Helvetica,sans-Serif" font-size="10.00" fill="#000000">l4_factory_create_factory_u</text>
</a>
</g>
</g>
<!-- Node9&#45;&gt;Node12 -->
<g id="edge3" class="edge">
<title>Node9&#45;&gt;Node12</title>
<path fill="none" stroke="#191970" d="M103.2032,-35.8721C122.2767,-31.3981 143.855,-26.3365 162.8356,-21.8842"/>
<polygon fill="#191970" stroke="#191970" points="163.8516,-25.241 172.788,-19.5497 162.253,-18.426 163.8516,-25.241"/>
</g>
</g>
</svg>
