<?xml version="1.0" encoding="UTF-8" standalone="no"?>
<!DOCTYPE svg PUBLIC "-//W3C//DTD SVG 1.1//EN"
 "http://www.w3.org/Graphics/SVG/1.1/DTD/svg11.dtd">
<!-- Generated by graphviz version 2.40.1 (20161225.0304)
 -->
<!-- Title: L4Re::Util::Names::Name Pages: 1 -->
<svg width="139pt" height="314pt"
 viewBox="0.00 0.00 139.00 314.00" xmlns="http://www.w3.org/2000/svg" xmlns:xlink="http://www.w3.org/1999/xlink">
<g id="graph0" class="graph" transform="scale(1 1) rotate(0) translate(4 310)">
<title>L4Re::Util::Names::Name</title>
<polygon fill="#ffffff" stroke="transparent" points="-4,4 -4,-310 135,-310 135,4 -4,4"/>
<!-- Node2 -->
<g id="node1" class="node">
<title>Node2</title>
<polygon fill="#bfbfbf" stroke="#000000" points="0,-.5 0,-101.5 131,-101.5 131,-.5 0,-.5"/>
<text text-anchor="middle" x="65.5" y="-89.5" font-family="Helvetica,sans-Serif" font-size="10.00" fill="#000000">L4Re::Util::Names::Name</text>
<polyline fill="none" stroke="#000000" points="0,-82.5 131,-82.5 "/>
<text text-anchor="middle" x="65.5" y="-70.5" font-family="Helvetica,sans-Serif" font-size="10.00" fill="#000000"> </text>
<polyline fill="none" stroke="#000000" points="0,-63.5 131,-63.5 "/>
<text text-anchor="start" x="8" y="-51.5" font-family="Helvetica,sans-Serif" font-size="10.00" fill="#000000">+ Name()</text>
<text text-anchor="start" x="8" y="-40.5" font-family="Helvetica,sans-Serif" font-size="10.00" fill="#000000">+ Name()</text>
<text text-anchor="start" x="8" y="-29.5" font-family="Helvetica,sans-Serif" font-size="10.00" fill="#000000">+ Name()</text>
<text text-anchor="start" x="8" y="-18.5" font-family="Helvetica,sans-Serif" font-size="10.00" fill="#000000">+ name()</text>
<text text-anchor="start" x="8" y="-7.5" font-family="Helvetica,sans-Serif" font-size="10.00" fill="#000000">+ operator&lt;()</text>
</g>
<!-- Node3 -->
<g id="node2" class="node">
<title>Node3</title>
<g id="a_node2"><a xlink:href="classcxx_1_1String.html" target="_top" xlink:title="Allocation free string class with explicit length field. ">
<polygon fill="#ffffff" stroke="#000000" points="24,-138.5 24,-305.5 107,-305.5 107,-138.5 24,-138.5"/>
<text text-anchor="middle" x="65.5" y="-293.5" font-family="Helvetica,sans-Serif" font-size="10.00" fill="#000000">cxx::String</text>
<polyline fill="none" stroke="#000000" points="24,-286.5 107,-286.5 "/>
<text text-anchor="middle" x="65.5" y="-274.5" font-family="Helvetica,sans-Serif" font-size="10.00" fill="#000000"> </text>
<polyline fill="none" stroke="#000000" points="24,-267.5 107,-267.5 "/>
<text text-anchor="start" x="32" y="-255.5" font-family="Helvetica,sans-Serif" font-size="10.00" fill="#000000">+ String()</text>
<text text-anchor="start" x="32" y="-244.5" font-family="Helvetica,sans-Serif" font-size="10.00" fill="#000000">+ String()</text>
<text text-anchor="start" x="32" y="-233.5" font-family="Helvetica,sans-Serif" font-size="10.00" fill="#000000">+ String()</text>
<text text-anchor="start" x="32" y="-222.5" font-family="Helvetica,sans-Serif" font-size="10.00" fill="#000000">+ String()</text>
<text text-anchor="start" x="32" y="-211.5" font-family="Helvetica,sans-Serif" font-size="10.00" fill="#000000">+ start()</text>
<text text-anchor="start" x="32" y="-200.5" font-family="Helvetica,sans-Serif" font-size="10.00" fill="#000000">+ end()</text>
<text text-anchor="start" x="32" y="-189.5" font-family="Helvetica,sans-Serif" font-size="10.00" fill="#000000">+ len()</text>
<text text-anchor="start" x="32" y="-178.5" font-family="Helvetica,sans-Serif" font-size="10.00" fill="#000000">+ start()</text>
<text text-anchor="start" x="32" y="-167.5" font-family="Helvetica,sans-Serif" font-size="10.00" fill="#000000">+ len()</text>
<text text-anchor="start" x="32" y="-156.5" font-family="Helvetica,sans-Serif" font-size="10.00" fill="#000000">+ empty()</text>
<text text-anchor="start" x="32" y="-145.5" font-family="Helvetica,sans-Serif" font-size="10.00" fill="#000000">and 19 more...</text>
</a>
</g>
</g>
<!-- Node3&#45;&gt;Node2 -->
<g id="edge1" class="edge">
<title>Node3&#45;&gt;Node2</title>
<path fill="none" stroke="#191970" d="M65.5,-127.9904C65.5,-118.9294 65.5,-109.9972 65.5,-101.6062"/>
<polygon fill="none" stroke="#191970" points="62.0001,-128.2533 65.5,-138.2533 69.0001,-128.2533 62.0001,-128.2533"/>
</g>
</g>
</svg>
