<?xml version="1.0" encoding="UTF-8" standalone="no"?>
<!DOCTYPE svg PUBLIC "-//W3C//DTD SVG 1.1//EN"
 "http://www.w3.org/Graphics/SVG/1.1/DTD/svg11.dtd">
<!-- Generated by graphviz version 2.40.1 (20161225.0304)
 -->
<!-- Title: L4::Thread Pages: 1 -->
<svg width="299pt" height="453pt"
 viewBox="0.00 0.00 299.00 453.00" xmlns="http://www.w3.org/2000/svg" xmlns:xlink="http://www.w3.org/1999/xlink">
<g id="graph0" class="graph" transform="scale(1 1) rotate(0) translate(4 449)">
<title>L4::Thread</title>
<polygon fill="#ffffff" stroke="transparent" points="-4,4 -4,-449 295,-449 295,4 -4,4"/>
<!-- Node4 -->
<g id="node1" class="node">
<title>Node4</title>
<polygon fill="#bfbfbf" stroke="#000000" points="43.5,-.5 43.5,-167.5 178.5,-167.5 178.5,-.5 43.5,-.5"/>
<text text-anchor="middle" x="111" y="-155.5" font-family="Helvetica,sans-Serif" font-size="10.00" fill="#000000">L4::Thread</text>
<polyline fill="none" stroke="#000000" points="43.5,-148.5 178.5,-148.5 "/>
<text text-anchor="middle" x="111" y="-136.5" font-family="Helvetica,sans-Serif" font-size="10.00" fill="#000000"> </text>
<polyline fill="none" stroke="#000000" points="43.5,-129.5 178.5,-129.5 "/>
<text text-anchor="start" x="51.5" y="-117.5" font-family="Helvetica,sans-Serif" font-size="10.00" fill="#000000">+ ex_regs()</text>
<text text-anchor="start" x="51.5" y="-106.5" font-family="Helvetica,sans-Serif" font-size="10.00" fill="#000000">+ ex_regs()</text>
<text text-anchor="start" x="51.5" y="-95.5" font-family="Helvetica,sans-Serif" font-size="10.00" fill="#000000">+ control()</text>
<text text-anchor="start" x="51.5" y="-84.5" font-family="Helvetica,sans-Serif" font-size="10.00" fill="#000000">+ switch_to()</text>
<text text-anchor="start" x="51.5" y="-73.5" font-family="Helvetica,sans-Serif" font-size="10.00" fill="#000000">+ stats_time()</text>
<text text-anchor="start" x="51.5" y="-62.5" font-family="Helvetica,sans-Serif" font-size="10.00" fill="#000000">+ vcpu_resume_start()</text>
<text text-anchor="start" x="51.5" y="-51.5" font-family="Helvetica,sans-Serif" font-size="10.00" fill="#000000">+ vcpu_resume_commit()</text>
<text text-anchor="start" x="51.5" y="-40.5" font-family="Helvetica,sans-Serif" font-size="10.00" fill="#000000">+ vcpu_control()</text>
<text text-anchor="start" x="51.5" y="-29.5" font-family="Helvetica,sans-Serif" font-size="10.00" fill="#000000">+ vcpu_control_ext()</text>
<text text-anchor="start" x="51.5" y="-18.5" font-family="Helvetica,sans-Serif" font-size="10.00" fill="#000000">+ register_del_irq()</text>
<text text-anchor="start" x="51.5" y="-7.5" font-family="Helvetica,sans-Serif" font-size="10.00" fill="#000000">+ modify_senders()</text>
</g>
<!-- Node5 -->
<g id="node2" class="node">
<title>Node5</title>
<g id="a_node2"><a xlink:href="classL4_1_1Kobject__t.html" target="_top" xlink:title="{L4::Kobject_t\&lt; Thread,\l Kobject, L4_PROTO_THREAD,\l Type_info::Demand_t\&lt; 1 \&gt; \&gt;\n||# c()\l# __check_protocols__()\l}">
<polygon fill="#ffffff" stroke="#000000" points="28,-205.5 28,-295.5 194,-295.5 194,-205.5 28,-205.5"/>
<text text-anchor="start" x="36" y="-283.5" font-family="Helvetica,sans-Serif" font-size="10.00" fill="#000000">L4::Kobject_t&lt; Thread,</text>
<text text-anchor="start" x="36" y="-272.5" font-family="Helvetica,sans-Serif" font-size="10.00" fill="#000000"> Kobject, L4_PROTO_THREAD,</text>
<text text-anchor="middle" x="111" y="-261.5" font-family="Helvetica,sans-Serif" font-size="10.00" fill="#000000"> Type_info::Demand_t&lt; 1 &gt; &gt;</text>
<polyline fill="none" stroke="#000000" points="28,-254.5 194,-254.5 "/>
<text text-anchor="middle" x="111" y="-242.5" font-family="Helvetica,sans-Serif" font-size="10.00" fill="#000000"> </text>
<polyline fill="none" stroke="#000000" points="28,-235.5 194,-235.5 "/>
<text text-anchor="start" x="36" y="-223.5" font-family="Helvetica,sans-Serif" font-size="10.00" fill="#000000"># c()</text>
<text text-anchor="start" x="36" y="-212.5" font-family="Helvetica,sans-Serif" font-size="10.00" fill="#000000"># __check_protocols__()</text>
</a>
</g>
</g>
<!-- Node5&#45;&gt;Node4 -->
<g id="edge1" class="edge">
<title>Node5&#45;&gt;Node4</title>
<path fill="none" stroke="#191970" d="M111,-195.2501C111,-186.3542 111,-176.9755 111,-167.5911"/>
<polygon fill="none" stroke="#191970" points="107.5001,-195.4427 111,-205.4427 114.5001,-195.4427 107.5001,-195.4427"/>
</g>
<!-- Node6 -->
<g id="node3" class="node">
<title>Node6</title>
<g id="a_node3"><a xlink:href="classL4_1_1Kobject.html" target="_top" xlink:title="Base class for all kinds of kernel objects and remote objects, referenced by capabilities. ">
<polygon fill="#ffffff" stroke="#000000" points="0,-371 0,-439 84,-439 84,-371 0,-371"/>
<text text-anchor="middle" x="42" y="-427" font-family="Helvetica,sans-Serif" font-size="10.00" fill="#000000">L4::Kobject</text>
<polyline fill="none" stroke="#000000" points="0,-420 84,-420 "/>
<text text-anchor="middle" x="42" y="-408" font-family="Helvetica,sans-Serif" font-size="10.00" fill="#000000"> </text>
<polyline fill="none" stroke="#000000" points="0,-401 84,-401 "/>
<text text-anchor="start" x="8" y="-389" font-family="Helvetica,sans-Serif" font-size="10.00" fill="#000000">+ dec_refcnt()</text>
<text text-anchor="start" x="8" y="-378" font-family="Helvetica,sans-Serif" font-size="10.00" fill="#000000"># cap()</text>
</a>
</g>
</g>
<!-- Node6&#45;&gt;Node5 -->
<g id="edge2" class="edge">
<title>Node6&#45;&gt;Node5</title>
<path fill="none" stroke="#191970" d="M61.4029,-361.5544C70.6043,-340.9513 81.5904,-316.352 90.8815,-295.5479"/>
<polygon fill="none" stroke="#191970" points="58.1954,-360.1534 57.3133,-370.7114 64.587,-363.0079 58.1954,-360.1534"/>
</g>
<!-- Node7 -->
<g id="node4" class="node">
<title>Node7</title>
<g id="a_node4"><a xlink:href="classL4_1_1Kobject__t.html" target="_top" xlink:title="Helper class to create an L4Re interface class that is derived from a single base class...">
<polygon fill="#ffffff" stroke="#000000" points="102,-365.5 102,-444.5 260,-444.5 260,-365.5 102,-365.5"/>
<text text-anchor="start" x="110" y="-432.5" font-family="Helvetica,sans-Serif" font-size="10.00" fill="#000000">L4::Kobject_t&lt; Derived,</text>
<text text-anchor="middle" x="181" y="-421.5" font-family="Helvetica,sans-Serif" font-size="10.00" fill="#000000"> Base, PROTO, S_DEMAND &gt;</text>
<polyline fill="none" stroke="#000000" points="102,-414.5 260,-414.5 "/>
<text text-anchor="middle" x="181" y="-402.5" font-family="Helvetica,sans-Serif" font-size="10.00" fill="#000000"> </text>
<polyline fill="none" stroke="#000000" points="102,-395.5 260,-395.5 "/>
<text text-anchor="start" x="110" y="-383.5" font-family="Helvetica,sans-Serif" font-size="10.00" fill="#000000"># c()</text>
<text text-anchor="start" x="110" y="-372.5" font-family="Helvetica,sans-Serif" font-size="10.00" fill="#000000"># __check_protocols__()</text>
</a>
</g>
</g>
<!-- Node7&#45;&gt;Node5 -->
<g id="edge3" class="edge">
<title>Node7&#45;&gt;Node5</title>
<path fill="none" stroke="#ffa500" d="M158.7831,-355.9641C150.021,-336.625 140.0199,-314.551 131.4395,-295.6129"/>
<polygon fill="#ffa500" stroke="#ffa500" points="155.6582,-357.5481 162.9733,-365.2124 162.0343,-354.6593 155.6582,-357.5481"/>
<text text-anchor="start" x="154" y="-339" font-family="Helvetica,sans-Serif" font-size="10.00" fill="#000000"> &lt; Thread, Kobject,</text>
<text text-anchor="start" x="154" y="-328" font-family="Helvetica,sans-Serif" font-size="10.00" fill="#000000"> L4_PROTO_THREAD, Type</text>
<text text-anchor="middle" x="222.5" y="-317" font-family="Helvetica,sans-Serif" font-size="10.00" fill="#000000">_info::Demand_t&lt; 1 &gt; &gt;</text>
</g>
</g>
</svg>
