<?xml version="1.0" encoding="UTF-8" standalone="no"?>
<!DOCTYPE svg PUBLIC "-//W3C//DTD SVG 1.1//EN"
 "http://www.w3.org/Graphics/SVG/1.1/DTD/svg11.dtd">
<!-- Generated by graphviz version 2.40.1 (20161225.0304)
 -->
<!-- Title: L4::Cap_base Pages: 1 -->
<svg width="1660pt" height="629pt"
 viewBox="0.00 0.00 1659.50 629.00" xmlns="http://www.w3.org/2000/svg" xmlns:xlink="http://www.w3.org/1999/xlink">
<g id="graph0" class="graph" transform="scale(1 1) rotate(0) translate(4 625)">
<title>L4::Cap_base</title>
<polygon fill="#ffffff" stroke="transparent" points="-4,4 -4,-625 1655.5,-625 1655.5,4 -4,4"/>
<!-- Node0 -->
<g id="node1" class="node">
<title>Node0</title>
<polygon fill="#bfbfbf" stroke="#000000" points="690,-398.5 690,-620.5 864,-620.5 864,-398.5 690,-398.5"/>
<text text-anchor="middle" x="777" y="-608.5" font-family="Helvetica,sans-Serif" font-size="10.00" fill="#000000">L4::Cap_base</text>
<polyline fill="none" stroke="#000000" points="690,-601.5 864,-601.5 "/>
<text text-anchor="start" x="698" y="-589.5" font-family="Helvetica,sans-Serif" font-size="10.00" fill="#000000"># _c</text>
<polyline fill="none" stroke="#000000" points="690,-582.5 864,-582.5 "/>
<text text-anchor="start" x="698" y="-570.5" font-family="Helvetica,sans-Serif" font-size="10.00" fill="#000000">+ cap()</text>
<text text-anchor="start" x="698" y="-559.5" font-family="Helvetica,sans-Serif" font-size="10.00" fill="#000000">+ is_valid()</text>
<text text-anchor="start" x="698" y="-548.5" font-family="Helvetica,sans-Serif" font-size="10.00" fill="#000000">+ operator Invalid_conversion *()</text>
<text text-anchor="start" x="698" y="-537.5" font-family="Helvetica,sans-Serif" font-size="10.00" fill="#000000">+ fpage()</text>
<text text-anchor="start" x="698" y="-526.5" font-family="Helvetica,sans-Serif" font-size="10.00" fill="#000000">+ snd_base()</text>
<text text-anchor="start" x="698" y="-515.5" font-family="Helvetica,sans-Serif" font-size="10.00" fill="#000000">+ operator==()</text>
<text text-anchor="start" x="698" y="-504.5" font-family="Helvetica,sans-Serif" font-size="10.00" fill="#000000">+ operator!=()</text>
<text text-anchor="start" x="698" y="-493.5" font-family="Helvetica,sans-Serif" font-size="10.00" fill="#000000">+ validate()</text>
<text text-anchor="start" x="698" y="-482.5" font-family="Helvetica,sans-Serif" font-size="10.00" fill="#000000">+ validate()</text>
<text text-anchor="start" x="698" y="-471.5" font-family="Helvetica,sans-Serif" font-size="10.00" fill="#000000">+ invalidate()</text>
<text text-anchor="start" x="698" y="-460.5" font-family="Helvetica,sans-Serif" font-size="10.00" fill="#000000"># Cap_base()</text>
<text text-anchor="start" x="698" y="-449.5" font-family="Helvetica,sans-Serif" font-size="10.00" fill="#000000"># Cap_base()</text>
<text text-anchor="start" x="698" y="-438.5" font-family="Helvetica,sans-Serif" font-size="10.00" fill="#000000"># Cap_base()</text>
<text text-anchor="start" x="698" y="-427.5" font-family="Helvetica,sans-Serif" font-size="10.00" fill="#000000"># Cap_base()</text>
<text text-anchor="start" x="698" y="-416.5" font-family="Helvetica,sans-Serif" font-size="10.00" fill="#000000"># move()</text>
<text text-anchor="start" x="698" y="-405.5" font-family="Helvetica,sans-Serif" font-size="10.00" fill="#000000"># copy()</text>
</g>
<!-- Node1 -->
<g id="node2" class="node">
<title>Node1</title>
<g id="a_node2"><a xlink:href="classL4_1_1Cap.html" target="_top" xlink:title="{L4::Cap\&lt; L4::Factory \&gt;\n||+ Cap()\l+ Cap()\l+ Cap()\l+ Cap()\l+ Cap()\l+ move()\l+ copy()\l+ operator&#45;\&gt;()\l}">
<polygon fill="#ffffff" stroke="#000000" points="430,-6 430,-140 552,-140 552,-6 430,-6"/>
<text text-anchor="middle" x="491" y="-128" font-family="Helvetica,sans-Serif" font-size="10.00" fill="#000000">L4::Cap&lt; L4::Factory &gt;</text>
<polyline fill="none" stroke="#000000" points="430,-121 552,-121 "/>
<text text-anchor="middle" x="491" y="-109" font-family="Helvetica,sans-Serif" font-size="10.00" fill="#000000"> </text>
<polyline fill="none" stroke="#000000" points="430,-102 552,-102 "/>
<text text-anchor="start" x="438" y="-90" font-family="Helvetica,sans-Serif" font-size="10.00" fill="#000000">+ Cap()</text>
<text text-anchor="start" x="438" y="-79" font-family="Helvetica,sans-Serif" font-size="10.00" fill="#000000">+ Cap()</text>
<text text-anchor="start" x="438" y="-68" font-family="Helvetica,sans-Serif" font-size="10.00" fill="#000000">+ Cap()</text>
<text text-anchor="start" x="438" y="-57" font-family="Helvetica,sans-Serif" font-size="10.00" fill="#000000">+ Cap()</text>
<text text-anchor="start" x="438" y="-46" font-family="Helvetica,sans-Serif" font-size="10.00" fill="#000000">+ Cap()</text>
<text text-anchor="start" x="438" y="-35" font-family="Helvetica,sans-Serif" font-size="10.00" fill="#000000">+ move()</text>
<text text-anchor="start" x="438" y="-24" font-family="Helvetica,sans-Serif" font-size="10.00" fill="#000000">+ copy()</text>
<text text-anchor="start" x="438" y="-13" font-family="Helvetica,sans-Serif" font-size="10.00" fill="#000000">+ operator&#45;&gt;()</text>
</a>
</g>
</g>
<!-- Node0&#45;&gt;Node1 -->
<g id="edge1" class="edge">
<title>Node0&#45;&gt;Node1</title>
<path fill="none" stroke="#191970" d="M681.3065,-457.4461C640.3584,-432.0384 594.0188,-398.7851 559,-361 494.1728,-291.0519 476.6114,-267.139 452,-175 448.9422,-163.5522 449.702,-151.6145 452.5976,-140.1084"/>
<polygon fill="none" stroke="#191970" points="679.6015,-460.5061 689.9565,-462.7475 683.2593,-454.5378 679.6015,-460.5061"/>
</g>
<!-- Node2 -->
<g id="node3" class="node">
<title>Node2</title>
<g id="a_node3"><a xlink:href="classL4_1_1Cap.html" target="_top" xlink:title="{L4::Cap\&lt; L4::Irq \&gt;\n||+ Cap()\l+ Cap()\l+ Cap()\l+ Cap()\l+ Cap()\l+ move()\l+ copy()\l+ operator&#45;\&gt;()\l}">
<polygon fill="#ffffff" stroke="#000000" points="708,-6 708,-140 808,-140 808,-6 708,-6"/>
<text text-anchor="middle" x="758" y="-128" font-family="Helvetica,sans-Serif" font-size="10.00" fill="#000000">L4::Cap&lt; L4::Irq &gt;</text>
<polyline fill="none" stroke="#000000" points="708,-121 808,-121 "/>
<text text-anchor="middle" x="758" y="-109" font-family="Helvetica,sans-Serif" font-size="10.00" fill="#000000"> </text>
<polyline fill="none" stroke="#000000" points="708,-102 808,-102 "/>
<text text-anchor="start" x="716" y="-90" font-family="Helvetica,sans-Serif" font-size="10.00" fill="#000000">+ Cap()</text>
<text text-anchor="start" x="716" y="-79" font-family="Helvetica,sans-Serif" font-size="10.00" fill="#000000">+ Cap()</text>
<text text-anchor="start" x="716" y="-68" font-family="Helvetica,sans-Serif" font-size="10.00" fill="#000000">+ Cap()</text>
<text text-anchor="start" x="716" y="-57" font-family="Helvetica,sans-Serif" font-size="10.00" fill="#000000">+ Cap()</text>
<text text-anchor="start" x="716" y="-46" font-family="Helvetica,sans-Serif" font-size="10.00" fill="#000000">+ Cap()</text>
<text text-anchor="start" x="716" y="-35" font-family="Helvetica,sans-Serif" font-size="10.00" fill="#000000">+ move()</text>
<text text-anchor="start" x="716" y="-24" font-family="Helvetica,sans-Serif" font-size="10.00" fill="#000000">+ copy()</text>
<text text-anchor="start" x="716" y="-13" font-family="Helvetica,sans-Serif" font-size="10.00" fill="#000000">+ operator&#45;&gt;()</text>
</a>
</g>
</g>
<!-- Node0&#45;&gt;Node2 -->
<g id="edge2" class="edge">
<title>Node0&#45;&gt;Node2</title>
<path fill="none" stroke="#191970" d="M716.7304,-389.0377C688.9177,-326.8079 659.0064,-248.6506 645,-175 644.0866,-170.1972 642.1526,-167.9741 645,-164 659.4888,-143.7777 677.5403,-160.1515 698,-146 701.373,-143.667 704.6595,-141.0934 707.8441,-138.3486"/>
<polygon fill="none" stroke="#191970" points="713.6928,-390.8159 720.9947,-398.4927 720.0739,-387.9379 713.6928,-390.8159"/>
</g>
<!-- Node3 -->
<g id="node4" class="node">
<title>Node3</title>
<g id="a_node4"><a xlink:href="classL4_1_1Cap.html" target="_top" xlink:title="{L4::Cap\&lt; L4::Semaphore \&gt;\n||+ Cap()\l+ Cap()\l+ Cap()\l+ Cap()\l+ Cap()\l+ move()\l+ copy()\l+ operator&#45;\&gt;()\l}">
<polygon fill="#ffffff" stroke="#000000" points="140,-6 140,-140 282,-140 282,-6 140,-6"/>
<text text-anchor="middle" x="211" y="-128" font-family="Helvetica,sans-Serif" font-size="10.00" fill="#000000">L4::Cap&lt; L4::Semaphore &gt;</text>
<polyline fill="none" stroke="#000000" points="140,-121 282,-121 "/>
<text text-anchor="middle" x="211" y="-109" font-family="Helvetica,sans-Serif" font-size="10.00" fill="#000000"> </text>
<polyline fill="none" stroke="#000000" points="140,-102 282,-102 "/>
<text text-anchor="start" x="148" y="-90" font-family="Helvetica,sans-Serif" font-size="10.00" fill="#000000">+ Cap()</text>
<text text-anchor="start" x="148" y="-79" font-family="Helvetica,sans-Serif" font-size="10.00" fill="#000000">+ Cap()</text>
<text text-anchor="start" x="148" y="-68" font-family="Helvetica,sans-Serif" font-size="10.00" fill="#000000">+ Cap()</text>
<text text-anchor="start" x="148" y="-57" font-family="Helvetica,sans-Serif" font-size="10.00" fill="#000000">+ Cap()</text>
<text text-anchor="start" x="148" y="-46" font-family="Helvetica,sans-Serif" font-size="10.00" fill="#000000">+ Cap()</text>
<text text-anchor="start" x="148" y="-35" font-family="Helvetica,sans-Serif" font-size="10.00" fill="#000000">+ move()</text>
<text text-anchor="start" x="148" y="-24" font-family="Helvetica,sans-Serif" font-size="10.00" fill="#000000">+ copy()</text>
<text text-anchor="start" x="148" y="-13" font-family="Helvetica,sans-Serif" font-size="10.00" fill="#000000">+ operator&#45;&gt;()</text>
</a>
</g>
</g>
<!-- Node0&#45;&gt;Node3 -->
<g id="edge3" class="edge">
<title>Node0&#45;&gt;Node3</title>
<path fill="none" stroke="#191970" d="M679.5128,-494.2341C582.7152,-475.4212 433.4874,-436.2465 325,-361 237.9655,-300.6332 211.0932,-274.9381 176,-175 172.0612,-163.7831 172.2299,-151.855 174.7106,-140.2588"/>
<polygon fill="none" stroke="#191970" points="679.1098,-497.7203 689.5885,-496.1556 680.4212,-490.8442 679.1098,-497.7203"/>
</g>
<!-- Node4 -->
<g id="node5" class="node">
<title>Node4</title>
<g id="a_node5"><a xlink:href="classL4_1_1Cap.html" target="_top" xlink:title="{L4::Cap\&lt; L4::Thread \&gt;\n||+ Cap()\l+ Cap()\l+ Cap()\l+ Cap()\l+ Cap()\l+ move()\l+ copy()\l+ operator&#45;\&gt;()\l}">
<polygon fill="#ffffff" stroke="#000000" points="0,-6 0,-140 122,-140 122,-6 0,-6"/>
<text text-anchor="middle" x="61" y="-128" font-family="Helvetica,sans-Serif" font-size="10.00" fill="#000000">L4::Cap&lt; L4::Thread &gt;</text>
<polyline fill="none" stroke="#000000" points="0,-121 122,-121 "/>
<text text-anchor="middle" x="61" y="-109" font-family="Helvetica,sans-Serif" font-size="10.00" fill="#000000"> </text>
<polyline fill="none" stroke="#000000" points="0,-102 122,-102 "/>
<text text-anchor="start" x="8" y="-90" font-family="Helvetica,sans-Serif" font-size="10.00" fill="#000000">+ Cap()</text>
<text text-anchor="start" x="8" y="-79" font-family="Helvetica,sans-Serif" font-size="10.00" fill="#000000">+ Cap()</text>
<text text-anchor="start" x="8" y="-68" font-family="Helvetica,sans-Serif" font-size="10.00" fill="#000000">+ Cap()</text>
<text text-anchor="start" x="8" y="-57" font-family="Helvetica,sans-Serif" font-size="10.00" fill="#000000">+ Cap()</text>
<text text-anchor="start" x="8" y="-46" font-family="Helvetica,sans-Serif" font-size="10.00" fill="#000000">+ Cap()</text>
<text text-anchor="start" x="8" y="-35" font-family="Helvetica,sans-Serif" font-size="10.00" fill="#000000">+ move()</text>
<text text-anchor="start" x="8" y="-24" font-family="Helvetica,sans-Serif" font-size="10.00" fill="#000000">+ copy()</text>
<text text-anchor="start" x="8" y="-13" font-family="Helvetica,sans-Serif" font-size="10.00" fill="#000000">+ operator&#45;&gt;()</text>
</a>
</g>
</g>
<!-- Node0&#45;&gt;Node4 -->
<g id="edge4" class="edge">
<title>Node0&#45;&gt;Node4</title>
<path fill="none" stroke="#191970" d="M679.7206,-496.1902C530.2453,-473.9877 253.5207,-425.3995 179,-361 113.5869,-304.4711 83.8464,-206.1034 70.7398,-140.2769"/>
<polygon fill="none" stroke="#191970" points="679.415,-499.6829 689.8185,-497.6787 680.4359,-492.7577 679.415,-499.6829"/>
</g>
<!-- Node5 -->
<g id="node6" class="node">
<title>Node5</title>
<g id="a_node6"><a xlink:href="classL4_1_1Cap.html" target="_top" xlink:title="{L4::Cap\&lt; L4::Vcon \&gt;\n||+ Cap()\l+ Cap()\l+ Cap()\l+ Cap()\l+ Cap()\l+ move()\l+ copy()\l+ operator&#45;\&gt;()\l}">
<polygon fill="#ffffff" stroke="#000000" points="300.5,-6 300.5,-140 411.5,-140 411.5,-6 300.5,-6"/>
<text text-anchor="middle" x="356" y="-128" font-family="Helvetica,sans-Serif" font-size="10.00" fill="#000000">L4::Cap&lt; L4::Vcon &gt;</text>
<polyline fill="none" stroke="#000000" points="300.5,-121 411.5,-121 "/>
<text text-anchor="middle" x="356" y="-109" font-family="Helvetica,sans-Serif" font-size="10.00" fill="#000000"> </text>
<polyline fill="none" stroke="#000000" points="300.5,-102 411.5,-102 "/>
<text text-anchor="start" x="308.5" y="-90" font-family="Helvetica,sans-Serif" font-size="10.00" fill="#000000">+ Cap()</text>
<text text-anchor="start" x="308.5" y="-79" font-family="Helvetica,sans-Serif" font-size="10.00" fill="#000000">+ Cap()</text>
<text text-anchor="start" x="308.5" y="-68" font-family="Helvetica,sans-Serif" font-size="10.00" fill="#000000">+ Cap()</text>
<text text-anchor="start" x="308.5" y="-57" font-family="Helvetica,sans-Serif" font-size="10.00" fill="#000000">+ Cap()</text>
<text text-anchor="start" x="308.5" y="-46" font-family="Helvetica,sans-Serif" font-size="10.00" fill="#000000">+ Cap()</text>
<text text-anchor="start" x="308.5" y="-35" font-family="Helvetica,sans-Serif" font-size="10.00" fill="#000000">+ move()</text>
<text text-anchor="start" x="308.5" y="-24" font-family="Helvetica,sans-Serif" font-size="10.00" fill="#000000">+ copy()</text>
<text text-anchor="start" x="308.5" y="-13" font-family="Helvetica,sans-Serif" font-size="10.00" fill="#000000">+ operator&#45;&gt;()</text>
</a>
</g>
</g>
<!-- Node0&#45;&gt;Node5 -->
<g id="edge5" class="edge">
<title>Node0&#45;&gt;Node5</title>
<path fill="none" stroke="#191970" d="M680.3913,-480.0849C612.0095,-455.8832 520.931,-416.4964 454,-361 375.9667,-296.298 352.7877,-271.5799 322,-175 318.4,-163.7069 318.6778,-151.7404 321.1313,-140.1295"/>
<polygon fill="none" stroke="#191970" points="679.2899,-483.4075 689.8847,-483.3992 681.5972,-476.7987 679.2899,-483.4075"/>
</g>
<!-- Node6 -->
<g id="node7" class="node">
<title>Node6</title>
<g id="a_node7"><a xlink:href="classL4_1_1Cap.html" target="_top" xlink:title="{L4::Cap\&lt; L4Re::Dataspace \&gt;\n||+ Cap()\l+ Cap()\l+ Cap()\l+ Cap()\l+ Cap()\l+ move()\l+ copy()\l+ operator&#45;\&gt;()\l}">
<polygon fill="#ffffff" stroke="#000000" points="1259,-6 1259,-140 1411,-140 1411,-6 1259,-6"/>
<text text-anchor="middle" x="1335" y="-128" font-family="Helvetica,sans-Serif" font-size="10.00" fill="#000000">L4::Cap&lt; L4Re::Dataspace &gt;</text>
<polyline fill="none" stroke="#000000" points="1259,-121 1411,-121 "/>
<text text-anchor="middle" x="1335" y="-109" font-family="Helvetica,sans-Serif" font-size="10.00" fill="#000000"> </text>
<polyline fill="none" stroke="#000000" points="1259,-102 1411,-102 "/>
<text text-anchor="start" x="1267" y="-90" font-family="Helvetica,sans-Serif" font-size="10.00" fill="#000000">+ Cap()</text>
<text text-anchor="start" x="1267" y="-79" font-family="Helvetica,sans-Serif" font-size="10.00" fill="#000000">+ Cap()</text>
<text text-anchor="start" x="1267" y="-68" font-family="Helvetica,sans-Serif" font-size="10.00" fill="#000000">+ Cap()</text>
<text text-anchor="start" x="1267" y="-57" font-family="Helvetica,sans-Serif" font-size="10.00" fill="#000000">+ Cap()</text>
<text text-anchor="start" x="1267" y="-46" font-family="Helvetica,sans-Serif" font-size="10.00" fill="#000000">+ Cap()</text>
<text text-anchor="start" x="1267" y="-35" font-family="Helvetica,sans-Serif" font-size="10.00" fill="#000000">+ move()</text>
<text text-anchor="start" x="1267" y="-24" font-family="Helvetica,sans-Serif" font-size="10.00" fill="#000000">+ copy()</text>
<text text-anchor="start" x="1267" y="-13" font-family="Helvetica,sans-Serif" font-size="10.00" fill="#000000">+ operator&#45;&gt;()</text>
</a>
</g>
</g>
<!-- Node0&#45;&gt;Node6 -->
<g id="edge6" class="edge">
<title>Node0&#45;&gt;Node6</title>
<path fill="none" stroke="#191970" d="M873.984,-491.3661C969.8405,-470.4213 1118.111,-429.7107 1231,-361 1331.6732,-299.7245 1374.4637,-283.7025 1420,-175 1423.4958,-166.6551 1416.8552,-153.837 1405.9661,-140.0738"/>
<polygon fill="none" stroke="#191970" points="873.0462,-487.9878 864.0079,-493.5159 874.5208,-494.8307 873.0462,-487.9878"/>
</g>
<!-- Node7 -->
<g id="node8" class="node">
<title>Node7</title>
<g id="a_node8"><a xlink:href="classL4_1_1Cap.html" target="_top" xlink:title="{L4::Cap\&lt; L4Re::Namespace \&gt;\n||+ Cap()\l+ Cap()\l+ Cap()\l+ Cap()\l+ Cap()\l+ move()\l+ copy()\l+ operator&#45;\&gt;()\l}">
<polygon fill="#ffffff" stroke="#000000" points="975.5,-6 975.5,-140 1132.5,-140 1132.5,-6 975.5,-6"/>
<text text-anchor="middle" x="1054" y="-128" font-family="Helvetica,sans-Serif" font-size="10.00" fill="#000000">L4::Cap&lt; L4Re::Namespace &gt;</text>
<polyline fill="none" stroke="#000000" points="975.5,-121 1132.5,-121 "/>
<text text-anchor="middle" x="1054" y="-109" font-family="Helvetica,sans-Serif" font-size="10.00" fill="#000000"> </text>
<polyline fill="none" stroke="#000000" points="975.5,-102 1132.5,-102 "/>
<text text-anchor="start" x="983.5" y="-90" font-family="Helvetica,sans-Serif" font-size="10.00" fill="#000000">+ Cap()</text>
<text text-anchor="start" x="983.5" y="-79" font-family="Helvetica,sans-Serif" font-size="10.00" fill="#000000">+ Cap()</text>
<text text-anchor="start" x="983.5" y="-68" font-family="Helvetica,sans-Serif" font-size="10.00" fill="#000000">+ Cap()</text>
<text text-anchor="start" x="983.5" y="-57" font-family="Helvetica,sans-Serif" font-size="10.00" fill="#000000">+ Cap()</text>
<text text-anchor="start" x="983.5" y="-46" font-family="Helvetica,sans-Serif" font-size="10.00" fill="#000000">+ Cap()</text>
<text text-anchor="start" x="983.5" y="-35" font-family="Helvetica,sans-Serif" font-size="10.00" fill="#000000">+ move()</text>
<text text-anchor="start" x="983.5" y="-24" font-family="Helvetica,sans-Serif" font-size="10.00" fill="#000000">+ copy()</text>
<text text-anchor="start" x="983.5" y="-13" font-family="Helvetica,sans-Serif" font-size="10.00" fill="#000000">+ operator&#45;&gt;()</text>
</a>
</g>
</g>
<!-- Node0&#45;&gt;Node7 -->
<g id="edge7" class="edge">
<title>Node0&#45;&gt;Node7</title>
<path fill="none" stroke="#191970" d="M872.9754,-461.2952C968.0235,-406.9801 1105.8515,-308.5326 1152,-175 1153.5969,-170.3793 1153.9542,-168.4813 1152,-164 1149.123,-157.4025 1141.8914,-148.663 1132.5832,-139.2061"/>
<polygon fill="none" stroke="#191970" points="871.1868,-458.2857 864.2028,-466.2528 874.6308,-464.3799 871.1868,-458.2857"/>
</g>
<!-- Node8 -->
<g id="node9" class="node">
<title>Node8</title>
<g id="a_node9"><a xlink:href="classL4_1_1Cap.html" target="_top" xlink:title="{L4::Cap\&lt; L4Re::Rm \&gt;\n||+ Cap()\l+ Cap()\l+ Cap()\l+ Cap()\l+ Cap()\l+ move()\l+ copy()\l+ operator&#45;\&gt;()\l}">
<polygon fill="#ffffff" stroke="#000000" points="1429,-6 1429,-140 1545,-140 1545,-6 1429,-6"/>
<text text-anchor="middle" x="1487" y="-128" font-family="Helvetica,sans-Serif" font-size="10.00" fill="#000000">L4::Cap&lt; L4Re::Rm &gt;</text>
<polyline fill="none" stroke="#000000" points="1429,-121 1545,-121 "/>
<text text-anchor="middle" x="1487" y="-109" font-family="Helvetica,sans-Serif" font-size="10.00" fill="#000000"> </text>
<polyline fill="none" stroke="#000000" points="1429,-102 1545,-102 "/>
<text text-anchor="start" x="1437" y="-90" font-family="Helvetica,sans-Serif" font-size="10.00" fill="#000000">+ Cap()</text>
<text text-anchor="start" x="1437" y="-79" font-family="Helvetica,sans-Serif" font-size="10.00" fill="#000000">+ Cap()</text>
<text text-anchor="start" x="1437" y="-68" font-family="Helvetica,sans-Serif" font-size="10.00" fill="#000000">+ Cap()</text>
<text text-anchor="start" x="1437" y="-57" font-family="Helvetica,sans-Serif" font-size="10.00" fill="#000000">+ Cap()</text>
<text text-anchor="start" x="1437" y="-46" font-family="Helvetica,sans-Serif" font-size="10.00" fill="#000000">+ Cap()</text>
<text text-anchor="start" x="1437" y="-35" font-family="Helvetica,sans-Serif" font-size="10.00" fill="#000000">+ move()</text>
<text text-anchor="start" x="1437" y="-24" font-family="Helvetica,sans-Serif" font-size="10.00" fill="#000000">+ copy()</text>
<text text-anchor="start" x="1437" y="-13" font-family="Helvetica,sans-Serif" font-size="10.00" fill="#000000">+ operator&#45;&gt;()</text>
</a>
</g>
</g>
<!-- Node0&#45;&gt;Node8 -->
<g id="edge8" class="edge">
<title>Node0&#45;&gt;Node8</title>
<path fill="none" stroke="#191970" d="M874.1395,-493.3367C1014.4245,-468.4133 1264.7477,-417.5272 1336,-361 1406.8751,-304.7721 1448.1867,-206.087 1469.1748,-140.1319"/>
<polygon fill="none" stroke="#191970" points="873.4721,-489.9003 864.2331,-495.0861 874.6895,-496.7937 873.4721,-489.9003"/>
</g>
<!-- Node9 -->
<g id="node10" class="node">
<title>Node9</title>
<g id="a_node10"><a xlink:href="classL4_1_1Cap.html" target="_top" xlink:title="{L4::Cap\&lt; L4Re::Video\l::Goos \&gt;\n||+ Cap()\l+ Cap()\l+ Cap()\l+ Cap()\l+ Cap()\l+ move()\l+ copy()\l+ operator&#45;\&gt;()\l}">
<polygon fill="#ffffff" stroke="#000000" points="570.5,-.5 570.5,-145.5 689.5,-145.5 689.5,-.5 570.5,-.5"/>
<text text-anchor="start" x="578.5" y="-133.5" font-family="Helvetica,sans-Serif" font-size="10.00" fill="#000000">L4::Cap&lt; L4Re::Video</text>
<text text-anchor="middle" x="630" y="-122.5" font-family="Helvetica,sans-Serif" font-size="10.00" fill="#000000">::Goos &gt;</text>
<polyline fill="none" stroke="#000000" points="570.5,-115.5 689.5,-115.5 "/>
<text text-anchor="middle" x="630" y="-103.5" font-family="Helvetica,sans-Serif" font-size="10.00" fill="#000000"> </text>
<polyline fill="none" stroke="#000000" points="570.5,-96.5 689.5,-96.5 "/>
<text text-anchor="start" x="578.5" y="-84.5" font-family="Helvetica,sans-Serif" font-size="10.00" fill="#000000">+ Cap()</text>
<text text-anchor="start" x="578.5" y="-73.5" font-family="Helvetica,sans-Serif" font-size="10.00" fill="#000000">+ Cap()</text>
<text text-anchor="start" x="578.5" y="-62.5" font-family="Helvetica,sans-Serif" font-size="10.00" fill="#000000">+ Cap()</text>
<text text-anchor="start" x="578.5" y="-51.5" font-family="Helvetica,sans-Serif" font-size="10.00" fill="#000000">+ Cap()</text>
<text text-anchor="start" x="578.5" y="-40.5" font-family="Helvetica,sans-Serif" font-size="10.00" fill="#000000">+ Cap()</text>
<text text-anchor="start" x="578.5" y="-29.5" font-family="Helvetica,sans-Serif" font-size="10.00" fill="#000000">+ move()</text>
<text text-anchor="start" x="578.5" y="-18.5" font-family="Helvetica,sans-Serif" font-size="10.00" fill="#000000">+ copy()</text>
<text text-anchor="start" x="578.5" y="-7.5" font-family="Helvetica,sans-Serif" font-size="10.00" fill="#000000">+ operator&#45;&gt;()</text>
</a>
</g>
</g>
<!-- Node0&#45;&gt;Node9 -->
<g id="edge9" class="edge">
<title>Node0&#45;&gt;Node9</title>
<path fill="none" stroke="#191970" d="M683.3968,-411.0125C670.0702,-394.8826 657.1313,-377.9018 646,-361 595.6995,-284.6239 578.0428,-264.2286 558,-175 556.9285,-170.23 556.3942,-168.6176 558,-164 561.077,-155.152 565.4117,-146.516 570.4456,-138.3068"/>
<polygon fill="none" stroke="#191970" points="680.8615,-413.4365 689.9639,-418.8584 686.2293,-408.9436 680.8615,-413.4365"/>
</g>
<!-- Node10 -->
<g id="node11" class="node">
<title>Node10</title>
<g id="a_node11"><a xlink:href="classL4_1_1Cap.html" target="_top" xlink:title="{L4::Cap\&lt; L4vbus::Vbus \&gt;\n||+ Cap()\l+ Cap()\l+ Cap()\l+ Cap()\l+ Cap()\l+ move()\l+ copy()\l+ operator&#45;\&gt;()\l}">
<polygon fill="#ffffff" stroke="#000000" points="826.5,-6 826.5,-140 957.5,-140 957.5,-6 826.5,-6"/>
<text text-anchor="middle" x="892" y="-128" font-family="Helvetica,sans-Serif" font-size="10.00" fill="#000000">L4::Cap&lt; L4vbus::Vbus &gt;</text>
<polyline fill="none" stroke="#000000" points="826.5,-121 957.5,-121 "/>
<text text-anchor="middle" x="892" y="-109" font-family="Helvetica,sans-Serif" font-size="10.00" fill="#000000"> </text>
<polyline fill="none" stroke="#000000" points="826.5,-102 957.5,-102 "/>
<text text-anchor="start" x="834.5" y="-90" font-family="Helvetica,sans-Serif" font-size="10.00" fill="#000000">+ Cap()</text>
<text text-anchor="start" x="834.5" y="-79" font-family="Helvetica,sans-Serif" font-size="10.00" fill="#000000">+ Cap()</text>
<text text-anchor="start" x="834.5" y="-68" font-family="Helvetica,sans-Serif" font-size="10.00" fill="#000000">+ Cap()</text>
<text text-anchor="start" x="834.5" y="-57" font-family="Helvetica,sans-Serif" font-size="10.00" fill="#000000">+ Cap()</text>
<text text-anchor="start" x="834.5" y="-46" font-family="Helvetica,sans-Serif" font-size="10.00" fill="#000000">+ Cap()</text>
<text text-anchor="start" x="834.5" y="-35" font-family="Helvetica,sans-Serif" font-size="10.00" fill="#000000">+ move()</text>
<text text-anchor="start" x="834.5" y="-24" font-family="Helvetica,sans-Serif" font-size="10.00" fill="#000000">+ copy()</text>
<text text-anchor="start" x="834.5" y="-13" font-family="Helvetica,sans-Serif" font-size="10.00" fill="#000000">+ operator&#45;&gt;()</text>
</a>
</g>
</g>
<!-- Node0&#45;&gt;Node10 -->
<g id="edge10" class="edge">
<title>Node0&#45;&gt;Node10</title>
<path fill="none" stroke="#191970" d="M871.5684,-428.8398C936.4031,-366.938 1016.9657,-275.291 1053,-175 1070.7984,-125.4632 988.9632,-158.2869 966,-146 962.6585,-144.2121 959.3673,-142.2263 956.1406,-140.0871"/>
<polygon fill="none" stroke="#191970" points="869.0041,-426.4477 864.1459,-435.8631 873.8152,-431.5324 869.0041,-426.4477"/>
</g>
<!-- Node11 -->
<g id="node12" class="node">
<title>Node11</title>
<g id="a_node12"><a xlink:href="classL4_1_1Cap.html" target="_top" xlink:title="{L4::Cap\&lt; void \&gt;\n||+ Cap()\l+ Cap()\l+ Cap()\l+ Cap()\l+ Cap()\l+ move()\l+ copy()\l+ operator&#45;\&gt;()\l}">
<polygon fill="#ffffff" stroke="#000000" points="1151,-6 1151,-140 1241,-140 1241,-6 1151,-6"/>
<text text-anchor="middle" x="1196" y="-128" font-family="Helvetica,sans-Serif" font-size="10.00" fill="#000000">L4::Cap&lt; void &gt;</text>
<polyline fill="none" stroke="#000000" points="1151,-121 1241,-121 "/>
<text text-anchor="middle" x="1196" y="-109" font-family="Helvetica,sans-Serif" font-size="10.00" fill="#000000"> </text>
<polyline fill="none" stroke="#000000" points="1151,-102 1241,-102 "/>
<text text-anchor="start" x="1159" y="-90" font-family="Helvetica,sans-Serif" font-size="10.00" fill="#000000">+ Cap()</text>
<text text-anchor="start" x="1159" y="-79" font-family="Helvetica,sans-Serif" font-size="10.00" fill="#000000">+ Cap()</text>
<text text-anchor="start" x="1159" y="-68" font-family="Helvetica,sans-Serif" font-size="10.00" fill="#000000">+ Cap()</text>
<text text-anchor="start" x="1159" y="-57" font-family="Helvetica,sans-Serif" font-size="10.00" fill="#000000">+ Cap()</text>
<text text-anchor="start" x="1159" y="-46" font-family="Helvetica,sans-Serif" font-size="10.00" fill="#000000">+ Cap()</text>
<text text-anchor="start" x="1159" y="-35" font-family="Helvetica,sans-Serif" font-size="10.00" fill="#000000">+ move()</text>
<text text-anchor="start" x="1159" y="-24" font-family="Helvetica,sans-Serif" font-size="10.00" fill="#000000">+ copy()</text>
<text text-anchor="start" x="1159" y="-13" font-family="Helvetica,sans-Serif" font-size="10.00" fill="#000000">+ operator&#45;&gt;()</text>
</a>
</g>
</g>
<!-- Node0&#45;&gt;Node11 -->
<g id="edge11" class="edge">
<title>Node0&#45;&gt;Node11</title>
<path fill="none" stroke="#191970" d="M873.9911,-483.7266C1003.596,-443.1435 1226.1018,-350.2773 1305,-175 1320.7082,-140.1033 1254.6604,-149.3631 1250,-146 1246.932,-143.786 1243.9646,-141.3456 1241.106,-138.7406"/>
<polygon fill="none" stroke="#191970" points="872.5785,-480.4996 864.055,-486.7925 874.6424,-487.1884 872.5785,-480.4996"/>
</g>
<!-- Node12 -->
<g id="node13" class="node">
<title>Node12</title>
<g id="a_node13"><a xlink:href="classL4_1_1Cap.html" target="_top" xlink:title="C++ interface for capabilities. ">
<polygon fill="#ffffff" stroke="#000000" points="735.5,-210 735.5,-344 818.5,-344 818.5,-210 735.5,-210"/>
<text text-anchor="middle" x="777" y="-332" font-family="Helvetica,sans-Serif" font-size="10.00" fill="#000000">L4::Cap&lt; T &gt;</text>
<polyline fill="none" stroke="#000000" points="735.5,-325 818.5,-325 "/>
<text text-anchor="middle" x="777" y="-313" font-family="Helvetica,sans-Serif" font-size="10.00" fill="#000000"> </text>
<polyline fill="none" stroke="#000000" points="735.5,-306 818.5,-306 "/>
<text text-anchor="start" x="743.5" y="-294" font-family="Helvetica,sans-Serif" font-size="10.00" fill="#000000">+ Cap()</text>
<text text-anchor="start" x="743.5" y="-283" font-family="Helvetica,sans-Serif" font-size="10.00" fill="#000000">+ Cap()</text>
<text text-anchor="start" x="743.5" y="-272" font-family="Helvetica,sans-Serif" font-size="10.00" fill="#000000">+ Cap()</text>
<text text-anchor="start" x="743.5" y="-261" font-family="Helvetica,sans-Serif" font-size="10.00" fill="#000000">+ Cap()</text>
<text text-anchor="start" x="743.5" y="-250" font-family="Helvetica,sans-Serif" font-size="10.00" fill="#000000">+ Cap()</text>
<text text-anchor="start" x="743.5" y="-239" font-family="Helvetica,sans-Serif" font-size="10.00" fill="#000000">+ move()</text>
<text text-anchor="start" x="743.5" y="-228" font-family="Helvetica,sans-Serif" font-size="10.00" fill="#000000">+ copy()</text>
<text text-anchor="start" x="743.5" y="-217" font-family="Helvetica,sans-Serif" font-size="10.00" fill="#000000">+ operator&#45;&gt;()</text>
</a>
</g>
</g>
<!-- Node0&#45;&gt;Node12 -->
<g id="edge12" class="edge">
<title>Node0&#45;&gt;Node12</title>
<path fill="none" stroke="#191970" d="M777,-388.3445C777,-373.1157 777,-357.9993 777,-344.0433"/>
<polygon fill="none" stroke="#191970" points="773.5001,-388.3571 777,-398.3572 780.5001,-388.3572 773.5001,-388.3571"/>
</g>
<!-- Node13 -->
<g id="node14" class="node">
<title>Node13</title>
<g id="a_node14"><a xlink:href="classL4_1_1Smart__cap.html" target="_top" xlink:title="Smart capability class. ">
<polygon fill="#ffffff" stroke="#000000" points="1500.5,-193.5 1500.5,-360.5 1651.5,-360.5 1651.5,-193.5 1500.5,-193.5"/>
<text text-anchor="middle" x="1576" y="-348.5" font-family="Helvetica,sans-Serif" font-size="10.00" fill="#000000">L4::Smart_cap&lt; T, SMART &gt;</text>
<polyline fill="none" stroke="#000000" points="1500.5,-341.5 1651.5,-341.5 "/>
<text text-anchor="middle" x="1576" y="-329.5" font-family="Helvetica,sans-Serif" font-size="10.00" fill="#000000"> </text>
<polyline fill="none" stroke="#000000" points="1500.5,-322.5 1651.5,-322.5 "/>
<text text-anchor="start" x="1508.5" y="-310.5" font-family="Helvetica,sans-Serif" font-size="10.00" fill="#000000">+ smart()</text>
<text text-anchor="start" x="1508.5" y="-299.5" font-family="Helvetica,sans-Serif" font-size="10.00" fill="#000000">+ _delete()</text>
<text text-anchor="start" x="1508.5" y="-288.5" font-family="Helvetica,sans-Serif" font-size="10.00" fill="#000000">+ release()</text>
<text text-anchor="start" x="1508.5" y="-277.5" font-family="Helvetica,sans-Serif" font-size="10.00" fill="#000000">+ reset()</text>
<text text-anchor="start" x="1508.5" y="-266.5" font-family="Helvetica,sans-Serif" font-size="10.00" fill="#000000">+ Smart_cap()</text>
<text text-anchor="start" x="1508.5" y="-255.5" font-family="Helvetica,sans-Serif" font-size="10.00" fill="#000000">+ Smart_cap()</text>
<text text-anchor="start" x="1508.5" y="-244.5" font-family="Helvetica,sans-Serif" font-size="10.00" fill="#000000">+ Smart_cap()</text>
<text text-anchor="start" x="1508.5" y="-233.5" font-family="Helvetica,sans-Serif" font-size="10.00" fill="#000000">+ Smart_cap()</text>
<text text-anchor="start" x="1508.5" y="-222.5" font-family="Helvetica,sans-Serif" font-size="10.00" fill="#000000">+ Smart_cap()</text>
<text text-anchor="start" x="1508.5" y="-211.5" font-family="Helvetica,sans-Serif" font-size="10.00" fill="#000000">+ Smart_cap()</text>
<text text-anchor="start" x="1508.5" y="-200.5" font-family="Helvetica,sans-Serif" font-size="10.00" fill="#000000">and 11 more...</text>
</a>
</g>
</g>
<!-- Node0&#45;&gt;Node13 -->
<g id="edge24" class="edge">
<title>Node0&#45;&gt;Node13</title>
<path fill="none" stroke="#191970" d="M874.138,-499.752C1043.0607,-481.4977 1382.7819,-438.6415 1486,-380 1495.3945,-374.6627 1504.2925,-367.9689 1512.5739,-360.5695"/>
<polygon fill="none" stroke="#191970" points="873.5721,-496.2926 864.0028,-500.8399 874.3192,-503.2526 873.5721,-496.2926"/>
</g>
<!-- Node12&#45;&gt;Node1 -->
<g id="edge14" class="edge">
<title>Node12&#45;&gt;Node1</title>
<path fill="none" stroke="#ffa500" d="M725.8409,-258.8465C682.0393,-241.6799 618.8158,-212.9103 572,-175 559.6107,-164.9674 547.9021,-152.7249 537.439,-140.2505"/>
<polygon fill="#ffa500" stroke="#ffa500" points="724.8406,-262.2118 735.4304,-262.5412 727.3574,-255.6799 724.8406,-262.2118"/>
<text text-anchor="middle" x="608.5" y="-167" font-family="Helvetica,sans-Serif" font-size="10.00" fill="#000000"> &lt; L4::Factory &gt;</text>
</g>
<!-- Node12&#45;&gt;Node2 -->
<g id="edge16" class="edge">
<title>Node12&#45;&gt;Node2</title>
<path fill="none" stroke="#ffa500" d="M769.8086,-199.7871C767.9797,-180.1503 766.0292,-159.2087 764.2514,-140.1201"/>
<polygon fill="#ffa500" stroke="#ffa500" points="766.34,-200.2879 770.7524,-209.9202 773.3098,-199.6387 766.34,-200.2879"/>
<text text-anchor="middle" x="793.5" y="-167" font-family="Helvetica,sans-Serif" font-size="10.00" fill="#000000"> &lt; L4::Irq &gt;</text>
</g>
<!-- Node12&#45;&gt;Node3 -->
<g id="edge21" class="edge">
<title>Node12&#45;&gt;Node3</title>
<path fill="none" stroke="#ffa500" d="M725.1333,-273.3232C631.4873,-264.5692 430.9264,-235.9645 291,-146 287.9951,-144.068 284.9955,-142.0207 282.0171,-139.8858"/>
<polygon fill="#ffa500" stroke="#ffa500" points="724.9327,-276.8192 735.2053,-274.2262 725.5578,-269.8472 724.9327,-276.8192"/>
<text text-anchor="middle" x="385.5" y="-167" font-family="Helvetica,sans-Serif" font-size="10.00" fill="#000000"> &lt; L4::Semaphore &gt;</text>
</g>
<!-- Node12&#45;&gt;Node4 -->
<g id="edge17" class="edge">
<title>Node12&#45;&gt;Node4</title>
<path fill="none" stroke="#ffa500" d="M725.1119,-270.7971C590.4635,-254.0272 233.2575,-205.0495 131,-146 127.9589,-144.2439 124.9657,-142.3166 122.0315,-140.2556"/>
<polygon fill="#ffa500" stroke="#ffa500" points="724.8199,-274.2876 735.1739,-272.0418 725.6793,-267.3405 724.8199,-274.2876"/>
<text text-anchor="middle" x="229.5" y="-167" font-family="Helvetica,sans-Serif" font-size="10.00" fill="#000000"> &lt; L4::Thread &gt;</text>
</g>
<!-- Node12&#45;&gt;Node5 -->
<g id="edge13" class="edge">
<title>Node12&#45;&gt;Node5</title>
<path fill="none" stroke="#ffa500" d="M725.5596,-266.6921C652.727,-250.2795 517.6675,-213.0077 421,-146 417.7923,-143.7765 414.6363,-141.3633 411.5486,-138.8124"/>
<polygon fill="#ffa500" stroke="#ffa500" points="724.8933,-270.1292 735.4131,-268.8704 726.4044,-263.2943 724.8933,-270.1292"/>
<text text-anchor="middle" x="496" y="-167" font-family="Helvetica,sans-Serif" font-size="10.00" fill="#000000"> &lt; L4::Vcon &gt;</text>
</g>
<!-- Node12&#45;&gt;Node6 -->
<g id="edge20" class="edge">
<title>Node12&#45;&gt;Node6</title>
<path fill="none" stroke="#ffa500" d="M828.5657,-270.5481C918.7056,-257.6167 1108.7698,-222.9072 1250,-146 1253.3313,-144.1859 1256.6482,-142.2247 1259.9337,-140.1492"/>
<polygon fill="#ffa500" stroke="#ffa500" points="828.014,-267.0912 818.5976,-271.9474 828.9871,-274.0232 828.014,-267.0912"/>
<text text-anchor="middle" x="1254.5" y="-167" font-family="Helvetica,sans-Serif" font-size="10.00" fill="#000000"> &lt; L4Re::Dataspace &gt;</text>
</g>
<!-- Node12&#45;&gt;Node7 -->
<g id="edge18" class="edge">
<title>Node12&#45;&gt;Node7</title>
<path fill="none" stroke="#ffa500" d="M827.125,-243.9813C865.7061,-218.1562 920.0284,-180.8968 966,-146 969.0041,-143.7196 972.047,-141.3756 975.1064,-138.99"/>
<polygon fill="#ffa500" stroke="#ffa500" points="825.025,-241.1749 818.6518,-249.6385 828.912,-246.9965 825.025,-241.1749"/>
<text text-anchor="middle" x="995" y="-167" font-family="Helvetica,sans-Serif" font-size="10.00" fill="#000000"> &lt; L4Re::Namespace &gt;</text>
</g>
<!-- Node12&#45;&gt;Node8 -->
<g id="edge15" class="edge">
<title>Node12&#45;&gt;Node8</title>
<path fill="none" stroke="#ffa500" d="M828.6392,-268.3333C924.1076,-252.0415 1134.4884,-214.8799 1310,-175 1359.3026,-163.7974 1376.713,-172.1244 1420,-146 1422.9456,-144.2223 1425.8399,-142.2768 1428.6729,-140.2005"/>
<polygon fill="#ffa500" stroke="#ffa500" points="827.9393,-264.902 818.6683,-270.0302 829.1138,-271.8028 827.9393,-264.902"/>
<text text-anchor="middle" x="1410.5" y="-167" font-family="Helvetica,sans-Serif" font-size="10.00" fill="#000000"> &lt; L4Re::Rm &gt;</text>
</g>
<!-- Node12&#45;&gt;Node9 -->
<g id="edge23" class="edge">
<title>Node12&#45;&gt;Node9</title>
<path fill="none" stroke="#ffa500" d="M726.7835,-246.7312C701.3239,-228.8986 672.052,-204.1305 654,-175 648.4421,-166.0312 644.1706,-155.8906 640.888,-145.5697"/>
<polygon fill="#ffa500" stroke="#ffa500" points="725.017,-249.763 735.2498,-252.5092 728.963,-243.9812 725.017,-249.763"/>
<text text-anchor="middle" x="708.5" y="-167" font-family="Helvetica,sans-Serif" font-size="10.00" fill="#000000"> &lt; L4Re::Video::Goos &gt;</text>
</g>
<!-- Node12&#45;&gt;Node10 -->
<g id="edge22" class="edge">
<title>Node12&#45;&gt;Node10</title>
<path fill="none" stroke="#ffa500" d="M819.7664,-201.1361C831.0546,-181.1119 843.1551,-159.6465 854.1627,-140.1201"/>
<polygon fill="#ffa500" stroke="#ffa500" points="816.6764,-199.4902 814.8146,-209.9202 822.7743,-202.9278 816.6764,-199.4902"/>
<text text-anchor="middle" x="879" y="-167" font-family="Helvetica,sans-Serif" font-size="10.00" fill="#000000"> &lt; L4vbus::Vbus &gt;</text>
</g>
<!-- Node12&#45;&gt;Node11 -->
<g id="edge19" class="edge">
<title>Node12&#45;&gt;Node11</title>
<path fill="none" stroke="#ffa500" d="M828.7245,-268.135C903.5903,-253.2771 1043.805,-217.6558 1141,-146 1144.4485,-143.4576 1147.7814,-140.6395 1150.9847,-137.6321"/>
<polygon fill="#ffa500" stroke="#ffa500" points="827.7574,-264.7572 818.6056,-270.0953 829.0888,-271.6294 827.7574,-264.7572"/>
<text text-anchor="middle" x="1127.5" y="-167" font-family="Helvetica,sans-Serif" font-size="10.00" fill="#000000"> &lt; void &gt;</text>
</g>
</g>
</svg>
