<?xml version="1.0" encoding="UTF-8" standalone="no"?>
<!DOCTYPE svg PUBLIC "-//W3C//DTD SVG 1.1//EN"
 "http://www.w3.org/Graphics/SVG/1.1/DTD/svg11.dtd">
<!-- Generated by graphviz version 2.40.1 (20161225.0304)
 -->
<!-- Title: L4::Icu Pages: 1 -->
<svg width="818pt" height="1009pt"
 viewBox="0.00 0.00 818.00 1009.00" xmlns="http://www.w3.org/2000/svg" xmlns:xlink="http://www.w3.org/1999/xlink">
<g id="graph0" class="graph" transform="scale(1 1) rotate(0) translate(4 1005)">
<title>L4::Icu</title>
<polygon fill="#ffffff" stroke="transparent" points="-4,4 -4,-1005 814,-1005 814,4 -4,4"/>
<!-- Node0 -->
<g id="node1" class="node">
<title>Node0</title>
<polygon fill="#bfbfbf" stroke="#000000" points="367,-600.5 367,-723.5 447,-723.5 447,-600.5 367,-600.5"/>
<text text-anchor="middle" x="407" y="-711.5" font-family="Helvetica,sans-Serif" font-size="10.00" fill="#000000">L4::Icu</text>
<polyline fill="none" stroke="#000000" points="367,-704.5 447,-704.5 "/>
<text text-anchor="middle" x="407" y="-692.5" font-family="Helvetica,sans-Serif" font-size="10.00" fill="#000000"> </text>
<polyline fill="none" stroke="#000000" points="367,-685.5 447,-685.5 "/>
<text text-anchor="start" x="375" y="-673.5" font-family="Helvetica,sans-Serif" font-size="10.00" fill="#000000">+ bind()</text>
<text text-anchor="start" x="375" y="-662.5" font-family="Helvetica,sans-Serif" font-size="10.00" fill="#000000">+ unbind()</text>
<text text-anchor="start" x="375" y="-651.5" font-family="Helvetica,sans-Serif" font-size="10.00" fill="#000000">+ info()</text>
<text text-anchor="start" x="375" y="-640.5" font-family="Helvetica,sans-Serif" font-size="10.00" fill="#000000">+ msi_info()</text>
<text text-anchor="start" x="375" y="-629.5" font-family="Helvetica,sans-Serif" font-size="10.00" fill="#000000">+ control()</text>
<text text-anchor="start" x="375" y="-618.5" font-family="Helvetica,sans-Serif" font-size="10.00" fill="#000000">+ mask()</text>
<text text-anchor="start" x="375" y="-607.5" font-family="Helvetica,sans-Serif" font-size="10.00" fill="#000000">+ set_mode()</text>
</g>
<!-- Node4 -->
<g id="node5" class="node">
<title>Node4</title>
<g id="a_node5"><a xlink:href="classL4_1_1Kobject__t.html" target="_top" xlink:title="{L4::Kobject_t\&lt; Device,\l L4::Icu, L4VIRTIO_PROTOCOL,\l L4::Type_info::Demand_t\&lt; 1 \&gt; \&gt;\n||# c()\l# __check_protocols__()\l}">
<polygon fill="#ffffff" stroke="#000000" points="0,-472.5 0,-562.5 170,-562.5 170,-472.5 0,-472.5"/>
<text text-anchor="start" x="8" y="-550.5" font-family="Helvetica,sans-Serif" font-size="10.00" fill="#000000">L4::Kobject_t&lt; Device,</text>
<text text-anchor="start" x="8" y="-539.5" font-family="Helvetica,sans-Serif" font-size="10.00" fill="#000000"> L4::Icu, L4VIRTIO_PROTOCOL,</text>
<text text-anchor="middle" x="85" y="-528.5" font-family="Helvetica,sans-Serif" font-size="10.00" fill="#000000"> L4::Type_info::Demand_t&lt; 1 &gt; &gt;</text>
<polyline fill="none" stroke="#000000" points="0,-521.5 170,-521.5 "/>
<text text-anchor="middle" x="85" y="-509.5" font-family="Helvetica,sans-Serif" font-size="10.00" fill="#000000"> </text>
<polyline fill="none" stroke="#000000" points="0,-502.5 170,-502.5 "/>
<text text-anchor="start" x="8" y="-490.5" font-family="Helvetica,sans-Serif" font-size="10.00" fill="#000000"># c()</text>
<text text-anchor="start" x="8" y="-479.5" font-family="Helvetica,sans-Serif" font-size="10.00" fill="#000000"># __check_protocols__()</text>
</a>
</g>
</g>
<!-- Node0&#45;&gt;Node4 -->
<g id="edge4" class="edge">
<title>Node0&#45;&gt;Node4</title>
<path fill="none" stroke="#191970" d="M357.6115,-641.2484C311.2545,-621.607 240.0945,-591.0357 179,-563 176.1163,-561.6767 173.1875,-560.3217 170.2334,-558.9455"/>
<polygon fill="none" stroke="#191970" points="356.2546,-644.4747 366.828,-645.1479 358.9822,-638.0279 356.2546,-644.4747"/>
</g>
<!-- Node6 -->
<g id="node7" class="node">
<title>Node6</title>
<g id="a_node7"><a xlink:href="classL4_1_1Kobject__t.html" target="_top" xlink:title="{L4::Kobject_t\&lt; Event,\l L4::Icu, L4RE_PROTO\l_EVENT \&gt;\n||# c()\l# __check_protocols__()\l}">
<polygon fill="#ffffff" stroke="#000000" points="188,-472.5 188,-562.5 322,-562.5 322,-472.5 188,-472.5"/>
<text text-anchor="start" x="196" y="-550.5" font-family="Helvetica,sans-Serif" font-size="10.00" fill="#000000">L4::Kobject_t&lt; Event,</text>
<text text-anchor="start" x="196" y="-539.5" font-family="Helvetica,sans-Serif" font-size="10.00" fill="#000000"> L4::Icu, L4RE_PROTO</text>
<text text-anchor="middle" x="255" y="-528.5" font-family="Helvetica,sans-Serif" font-size="10.00" fill="#000000">_EVENT &gt;</text>
<polyline fill="none" stroke="#000000" points="188,-521.5 322,-521.5 "/>
<text text-anchor="middle" x="255" y="-509.5" font-family="Helvetica,sans-Serif" font-size="10.00" fill="#000000"> </text>
<polyline fill="none" stroke="#000000" points="188,-502.5 322,-502.5 "/>
<text text-anchor="start" x="196" y="-490.5" font-family="Helvetica,sans-Serif" font-size="10.00" fill="#000000"># c()</text>
<text text-anchor="start" x="196" y="-479.5" font-family="Helvetica,sans-Serif" font-size="10.00" fill="#000000"># __check_protocols__()</text>
</a>
</g>
</g>
<!-- Node0&#45;&gt;Node6 -->
<g id="edge6" class="edge">
<title>Node0&#45;&gt;Node6</title>
<path fill="none" stroke="#191970" d="M359.0986,-616.4621C341.0567,-599.3105 320.556,-579.8213 302.5466,-562.7005"/>
<polygon fill="none" stroke="#191970" points="357.0067,-619.3027 366.6659,-623.656 361.8297,-614.2293 357.0067,-619.3027"/>
</g>
<!-- Node10 -->
<g id="node11" class="node">
<title>Node10</title>
<g id="a_node11"><a xlink:href="classL4_1_1Kobject__t.html" target="_top" xlink:title="{L4::Kobject_t\&lt; Random,\l L4::Icu \&gt;\n||# c()\l# __check_protocols__()\l}">
<polygon fill="#ffffff" stroke="#000000" points="340,-478 340,-557 474,-557 474,-478 340,-478"/>
<text text-anchor="start" x="348" y="-545" font-family="Helvetica,sans-Serif" font-size="10.00" fill="#000000">L4::Kobject_t&lt; Random,</text>
<text text-anchor="middle" x="407" y="-534" font-family="Helvetica,sans-Serif" font-size="10.00" fill="#000000"> L4::Icu &gt;</text>
<polyline fill="none" stroke="#000000" points="340,-527 474,-527 "/>
<text text-anchor="middle" x="407" y="-515" font-family="Helvetica,sans-Serif" font-size="10.00" fill="#000000"> </text>
<polyline fill="none" stroke="#000000" points="340,-508 474,-508 "/>
<text text-anchor="start" x="348" y="-496" font-family="Helvetica,sans-Serif" font-size="10.00" fill="#000000"># c()</text>
<text text-anchor="start" x="348" y="-485" font-family="Helvetica,sans-Serif" font-size="10.00" fill="#000000"># __check_protocols__()</text>
</a>
</g>
</g>
<!-- Node0&#45;&gt;Node10 -->
<g id="edge10" class="edge">
<title>Node0&#45;&gt;Node10</title>
<path fill="none" stroke="#191970" d="M407,-589.9871C407,-578.721 407,-567.4473 407,-557.2616"/>
<polygon fill="none" stroke="#191970" points="403.5001,-590.2998 407,-600.2999 410.5001,-590.2999 403.5001,-590.2998"/>
</g>
<!-- Node12 -->
<g id="node13" class="node">
<title>Node12</title>
<g id="a_node13"><a xlink:href="classL4_1_1Kobject__t.html" target="_top" xlink:title="{L4::Kobject_t\&lt; Scheduler,\l Icu, L4_PROTO_SCHEDULER,\l Type_info::Demand_t\&lt; 1 \&gt; \&gt;\n||# c()\l# __check_protocols__()\l}">
<polygon fill="#ffffff" stroke="#000000" points="492,-472.5 492,-562.5 658,-562.5 658,-472.5 492,-472.5"/>
<text text-anchor="start" x="500" y="-550.5" font-family="Helvetica,sans-Serif" font-size="10.00" fill="#000000">L4::Kobject_t&lt; Scheduler,</text>
<text text-anchor="start" x="500" y="-539.5" font-family="Helvetica,sans-Serif" font-size="10.00" fill="#000000"> Icu, L4_PROTO_SCHEDULER,</text>
<text text-anchor="middle" x="575" y="-528.5" font-family="Helvetica,sans-Serif" font-size="10.00" fill="#000000"> Type_info::Demand_t&lt; 1 &gt; &gt;</text>
<polyline fill="none" stroke="#000000" points="492,-521.5 658,-521.5 "/>
<text text-anchor="middle" x="575" y="-509.5" font-family="Helvetica,sans-Serif" font-size="10.00" fill="#000000"> </text>
<polyline fill="none" stroke="#000000" points="492,-502.5 658,-502.5 "/>
<text text-anchor="start" x="500" y="-490.5" font-family="Helvetica,sans-Serif" font-size="10.00" fill="#000000"># c()</text>
<text text-anchor="start" x="500" y="-479.5" font-family="Helvetica,sans-Serif" font-size="10.00" fill="#000000"># __check_protocols__()</text>
</a>
</g>
</g>
<!-- Node0&#45;&gt;Node12 -->
<g id="edge12" class="edge">
<title>Node0&#45;&gt;Node12</title>
<path fill="none" stroke="#191970" d="M454.8259,-620.8641C475.9124,-602.7271 500.7584,-581.3567 522.3694,-562.7686"/>
<polygon fill="none" stroke="#191970" points="452.5393,-618.2142 447.2402,-627.3886 457.1039,-623.5212 452.5393,-618.2142"/>
</g>
<!-- Node14 -->
<g id="node15" class="node">
<title>Node14</title>
<g id="a_node15"><a xlink:href="classL4_1_1Kobject__t.html" target="_top" xlink:title="{L4::Kobject_t\&lt; Vcon,\l Icu, L4_PROTO_LOG \&gt;\n||# c()\l# __check_protocols__()\l}">
<polygon fill="#ffffff" stroke="#000000" points="676,-478 676,-557 810,-557 810,-478 676,-478"/>
<text text-anchor="start" x="684" y="-545" font-family="Helvetica,sans-Serif" font-size="10.00" fill="#000000">L4::Kobject_t&lt; Vcon,</text>
<text text-anchor="middle" x="743" y="-534" font-family="Helvetica,sans-Serif" font-size="10.00" fill="#000000"> Icu, L4_PROTO_LOG &gt;</text>
<polyline fill="none" stroke="#000000" points="676,-527 810,-527 "/>
<text text-anchor="middle" x="743" y="-515" font-family="Helvetica,sans-Serif" font-size="10.00" fill="#000000"> </text>
<polyline fill="none" stroke="#000000" points="676,-508 810,-508 "/>
<text text-anchor="start" x="684" y="-496" font-family="Helvetica,sans-Serif" font-size="10.00" fill="#000000"># c()</text>
<text text-anchor="start" x="684" y="-485" font-family="Helvetica,sans-Serif" font-size="10.00" fill="#000000"># __check_protocols__()</text>
</a>
</g>
</g>
<!-- Node0&#45;&gt;Node14 -->
<g id="edge14" class="edge">
<title>Node0&#45;&gt;Node14</title>
<path fill="none" stroke="#191970" d="M456.6369,-646.01C509.7739,-628.2267 596.0191,-597.431 667,-563 670.8742,-561.1207 674.8101,-559.1082 678.7478,-557.0142"/>
<polygon fill="none" stroke="#191970" points="455.4965,-642.7007 447.1115,-649.1771 457.705,-649.3432 455.4965,-642.7007"/>
</g>
<!-- Node1 -->
<g id="node2" class="node">
<title>Node1</title>
<g id="a_node2"><a xlink:href="classL4_1_1Kobject__t.html" target="_top" xlink:title="{L4::Kobject_t\&lt; Icu,\l Irq_eoi, L4_PROTO_IRQ,\l Type_info::Demand_t\&lt; 1 \&gt; \&gt;\n||# c()\l# __check_protocols__()\l}">
<polygon fill="#ffffff" stroke="#000000" points="330.5,-761.5 330.5,-851.5 483.5,-851.5 483.5,-761.5 330.5,-761.5"/>
<text text-anchor="start" x="338.5" y="-839.5" font-family="Helvetica,sans-Serif" font-size="10.00" fill="#000000">L4::Kobject_t&lt; Icu,</text>
<text text-anchor="start" x="338.5" y="-828.5" font-family="Helvetica,sans-Serif" font-size="10.00" fill="#000000"> Irq_eoi, L4_PROTO_IRQ,</text>
<text text-anchor="middle" x="407" y="-817.5" font-family="Helvetica,sans-Serif" font-size="10.00" fill="#000000"> Type_info::Demand_t&lt; 1 &gt; &gt;</text>
<polyline fill="none" stroke="#000000" points="330.5,-810.5 483.5,-810.5 "/>
<text text-anchor="middle" x="407" y="-798.5" font-family="Helvetica,sans-Serif" font-size="10.00" fill="#000000"> </text>
<polyline fill="none" stroke="#000000" points="330.5,-791.5 483.5,-791.5 "/>
<text text-anchor="start" x="338.5" y="-779.5" font-family="Helvetica,sans-Serif" font-size="10.00" fill="#000000"># c()</text>
<text text-anchor="start" x="338.5" y="-768.5" font-family="Helvetica,sans-Serif" font-size="10.00" fill="#000000"># __check_protocols__()</text>
</a>
</g>
</g>
<!-- Node1&#45;&gt;Node0 -->
<g id="edge1" class="edge">
<title>Node1&#45;&gt;Node0</title>
<path fill="none" stroke="#191970" d="M407,-751.1753C407,-742.1486 407,-732.7483 407,-723.5822"/>
<polygon fill="none" stroke="#191970" points="403.5001,-751.1757 407,-761.1758 410.5001,-751.1758 403.5001,-751.1757"/>
</g>
<!-- Node2 -->
<g id="node3" class="node">
<title>Node2</title>
<g id="a_node3"><a xlink:href="classL4_1_1Irq__eoi.html" target="_top" xlink:title="Interface for sending an acknowledge message to an object. ">
<polygon fill="#ffffff" stroke="#000000" points="306,-932.5 306,-989.5 376,-989.5 376,-932.5 306,-932.5"/>
<text text-anchor="middle" x="341" y="-977.5" font-family="Helvetica,sans-Serif" font-size="10.00" fill="#000000">L4::Irq_eoi</text>
<polyline fill="none" stroke="#000000" points="306,-970.5 376,-970.5 "/>
<text text-anchor="middle" x="341" y="-958.5" font-family="Helvetica,sans-Serif" font-size="10.00" fill="#000000"> </text>
<polyline fill="none" stroke="#000000" points="306,-951.5 376,-951.5 "/>
<text text-anchor="start" x="314" y="-939.5" font-family="Helvetica,sans-Serif" font-size="10.00" fill="#000000">+ unmask()</text>
</a>
</g>
</g>
<!-- Node2&#45;&gt;Node1 -->
<g id="edge2" class="edge">
<title>Node2&#45;&gt;Node1</title>
<path fill="none" stroke="#191970" d="M357.302,-922.8386C366.493,-901.3232 378.0304,-874.3152 387.6747,-851.7388"/>
<polygon fill="none" stroke="#191970" points="353.9693,-921.7308 353.2594,-932.3018 360.4065,-924.4807 353.9693,-921.7308"/>
</g>
<!-- Node3 -->
<g id="node4" class="node">
<title>Node3</title>
<g id="a_node4"><a xlink:href="classL4_1_1Kobject__t.html" target="_top" xlink:title="Helper class to create an L4Re interface class that is derived from a single base class...">
<polygon fill="#ffffff" stroke="#000000" points="394,-921.5 394,-1000.5 552,-1000.5 552,-921.5 394,-921.5"/>
<text text-anchor="start" x="402" y="-988.5" font-family="Helvetica,sans-Serif" font-size="10.00" fill="#000000">L4::Kobject_t&lt; Derived,</text>
<text text-anchor="middle" x="473" y="-977.5" font-family="Helvetica,sans-Serif" font-size="10.00" fill="#000000"> Base, PROTO, S_DEMAND &gt;</text>
<polyline fill="none" stroke="#000000" points="394,-970.5 552,-970.5 "/>
<text text-anchor="middle" x="473" y="-958.5" font-family="Helvetica,sans-Serif" font-size="10.00" fill="#000000"> </text>
<polyline fill="none" stroke="#000000" points="394,-951.5 552,-951.5 "/>
<text text-anchor="start" x="402" y="-939.5" font-family="Helvetica,sans-Serif" font-size="10.00" fill="#000000"># c()</text>
<text text-anchor="start" x="402" y="-928.5" font-family="Helvetica,sans-Serif" font-size="10.00" fill="#000000"># __check_protocols__()</text>
</a>
</g>
</g>
<!-- Node3&#45;&gt;Node1 -->
<g id="edge3" class="edge">
<title>Node3&#45;&gt;Node1</title>
<path fill="none" stroke="#ffa500" d="M452.0526,-911.9641C443.7912,-892.625 434.3616,-870.551 426.2715,-851.6129"/>
<polygon fill="#ffa500" stroke="#ffa500" points="448.8563,-913.3913 456.0034,-921.2124 455.2935,-910.6414 448.8563,-913.3913"/>
<text text-anchor="start" x="447" y="-895" font-family="Helvetica,sans-Serif" font-size="10.00" fill="#000000"> &lt; Icu, Irq_eoi, L4</text>
<text text-anchor="start" x="447" y="-884" font-family="Helvetica,sans-Serif" font-size="10.00" fill="#000000">_PROTO_IRQ, Type_info</text>
<text text-anchor="middle" x="507.5" y="-873" font-family="Helvetica,sans-Serif" font-size="10.00" fill="#000000">::Demand_t&lt; 1 &gt; &gt;</text>
</g>
<!-- Node5 -->
<g id="node6" class="node">
<title>Node5</title>
<g id="a_node6"><a xlink:href="classL4virtio_1_1Device.html" target="_top" xlink:title="IPC interface for virtio over L4 IPC. ">
<polygon fill="#ffffff" stroke="#000000" points="15,-322.5 15,-434.5 155,-434.5 155,-322.5 15,-322.5"/>
<text text-anchor="middle" x="85" y="-422.5" font-family="Helvetica,sans-Serif" font-size="10.00" fill="#000000">L4virtio::Device</text>
<polyline fill="none" stroke="#000000" points="15,-415.5 155,-415.5 "/>
<text text-anchor="middle" x="85" y="-403.5" font-family="Helvetica,sans-Serif" font-size="10.00" fill="#000000"> </text>
<polyline fill="none" stroke="#000000" points="15,-396.5 155,-396.5 "/>
<text text-anchor="start" x="23" y="-384.5" font-family="Helvetica,sans-Serif" font-size="10.00" fill="#000000">+ set_status()</text>
<text text-anchor="start" x="23" y="-373.5" font-family="Helvetica,sans-Serif" font-size="10.00" fill="#000000">+ config_queue()</text>
<text text-anchor="start" x="23" y="-362.5" font-family="Helvetica,sans-Serif" font-size="10.00" fill="#000000">+ register_ds()</text>
<text text-anchor="start" x="23" y="-351.5" font-family="Helvetica,sans-Serif" font-size="10.00" fill="#000000">+ register_iface()</text>
<text text-anchor="start" x="23" y="-340.5" font-family="Helvetica,sans-Serif" font-size="10.00" fill="#000000">+ device_config()</text>
<text text-anchor="start" x="23" y="-329.5" font-family="Helvetica,sans-Serif" font-size="10.00" fill="#000000">+ device_notification_irq()</text>
</a>
</g>
</g>
<!-- Node4&#45;&gt;Node5 -->
<g id="edge5" class="edge">
<title>Node4&#45;&gt;Node5</title>
<path fill="none" stroke="#191970" d="M85,-462.2708C85,-453.1654 85,-443.7185 85,-434.5922"/>
<polygon fill="none" stroke="#191970" points="81.5001,-462.3706 85,-472.3707 88.5001,-462.3707 81.5001,-462.3706"/>
</g>
<!-- Node7 -->
<g id="node8" class="node">
<title>Node7</title>
<g id="a_node8"><a xlink:href="classL4Re_1_1Event.html" target="_top" xlink:title="Event class. ">
<polygon fill="#ffffff" stroke="#000000" points="180.5,-322.5 180.5,-434.5 329.5,-434.5 329.5,-322.5 180.5,-322.5"/>
<text text-anchor="middle" x="255" y="-422.5" font-family="Helvetica,sans-Serif" font-size="10.00" fill="#000000">L4Re::Event</text>
<polyline fill="none" stroke="#000000" points="180.5,-415.5 329.5,-415.5 "/>
<text text-anchor="middle" x="255" y="-403.5" font-family="Helvetica,sans-Serif" font-size="10.00" fill="#000000"> </text>
<polyline fill="none" stroke="#000000" points="180.5,-396.5 329.5,-396.5 "/>
<text text-anchor="start" x="188.5" y="-384.5" font-family="Helvetica,sans-Serif" font-size="10.00" fill="#000000">+ get_buffer()</text>
<text text-anchor="start" x="188.5" y="-373.5" font-family="Helvetica,sans-Serif" font-size="10.00" fill="#000000">+ get_num_streams()</text>
<text text-anchor="start" x="188.5" y="-362.5" font-family="Helvetica,sans-Serif" font-size="10.00" fill="#000000">+ get_stream_info()</text>
<text text-anchor="start" x="188.5" y="-351.5" font-family="Helvetica,sans-Serif" font-size="10.00" fill="#000000">+ get_stream_info_for_id()</text>
<text text-anchor="start" x="188.5" y="-340.5" font-family="Helvetica,sans-Serif" font-size="10.00" fill="#000000">+ get_axis_info()</text>
<text text-anchor="start" x="188.5" y="-329.5" font-family="Helvetica,sans-Serif" font-size="10.00" fill="#000000">+ get_stream_state_for_id()</text>
</a>
</g>
</g>
<!-- Node6&#45;&gt;Node7 -->
<g id="edge7" class="edge">
<title>Node6&#45;&gt;Node7</title>
<path fill="none" stroke="#191970" d="M255,-462.2708C255,-453.1654 255,-443.7185 255,-434.5922"/>
<polygon fill="none" stroke="#191970" points="251.5001,-462.3706 255,-472.3707 258.5001,-462.3707 251.5001,-462.3706"/>
</g>
<!-- Node8 -->
<g id="node9" class="node">
<title>Node8</title>
<g id="a_node9"><a xlink:href="structL4_1_1Kobject__3t.html" target="_top" xlink:title="{L4::Kobject_3t\&lt; Vbus,\l L4Re::Dataspace, L4Re\l::Inhibitor, L4Re::Event \&gt;\n||+ operator Kobject const &amp;()\l+ dec_refcnt()\l# cap()\l# c()\l# __check_protocols__()\l}">
<polygon fill="#ffffff" stroke="#000000" points="179.5,-161.5 179.5,-284.5 330.5,-284.5 330.5,-161.5 179.5,-161.5"/>
<text text-anchor="start" x="187.5" y="-272.5" font-family="Helvetica,sans-Serif" font-size="10.00" fill="#000000">L4::Kobject_3t&lt; Vbus,</text>
<text text-anchor="start" x="187.5" y="-261.5" font-family="Helvetica,sans-Serif" font-size="10.00" fill="#000000"> L4Re::Dataspace, L4Re</text>
<text text-anchor="middle" x="255" y="-250.5" font-family="Helvetica,sans-Serif" font-size="10.00" fill="#000000">::Inhibitor, L4Re::Event &gt;</text>
<polyline fill="none" stroke="#000000" points="179.5,-243.5 330.5,-243.5 "/>
<text text-anchor="middle" x="255" y="-231.5" font-family="Helvetica,sans-Serif" font-size="10.00" fill="#000000"> </text>
<polyline fill="none" stroke="#000000" points="179.5,-224.5 330.5,-224.5 "/>
<text text-anchor="start" x="187.5" y="-212.5" font-family="Helvetica,sans-Serif" font-size="10.00" fill="#000000">+ operator Kobject const &amp;()</text>
<text text-anchor="start" x="187.5" y="-201.5" font-family="Helvetica,sans-Serif" font-size="10.00" fill="#000000">+ dec_refcnt()</text>
<text text-anchor="start" x="187.5" y="-190.5" font-family="Helvetica,sans-Serif" font-size="10.00" fill="#000000"># cap()</text>
<text text-anchor="start" x="187.5" y="-179.5" font-family="Helvetica,sans-Serif" font-size="10.00" fill="#000000"># c()</text>
<text text-anchor="start" x="187.5" y="-168.5" font-family="Helvetica,sans-Serif" font-size="10.00" fill="#000000"># __check_protocols__()</text>
</a>
</g>
</g>
<!-- Node7&#45;&gt;Node8 -->
<g id="edge8" class="edge">
<title>Node7&#45;&gt;Node8</title>
<path fill="none" stroke="#191970" d="M255,-312.1518C255,-303.0037 255,-293.6404 255,-284.5833"/>
<polygon fill="none" stroke="#191970" points="251.5001,-312.3609 255,-322.3609 258.5001,-312.361 251.5001,-312.3609"/>
</g>
<!-- Node9 -->
<g id="node10" class="node">
<title>Node9</title>
<g id="a_node10"><a xlink:href="classL4vbus_1_1Vbus.html" target="_top" xlink:title="The virtual bus (Vbus) interface. ">
<polygon fill="#ffffff" stroke="#000000" points="189.5,-.5 189.5,-123.5 320.5,-123.5 320.5,-.5 189.5,-.5"/>
<text text-anchor="middle" x="255" y="-111.5" font-family="Helvetica,sans-Serif" font-size="10.00" fill="#000000">L4vbus::Vbus</text>
<polyline fill="none" stroke="#000000" points="189.5,-104.5 320.5,-104.5 "/>
<text text-anchor="middle" x="255" y="-92.5" font-family="Helvetica,sans-Serif" font-size="10.00" fill="#000000"> </text>
<polyline fill="none" stroke="#000000" points="189.5,-85.5 320.5,-85.5 "/>
<text text-anchor="start" x="197.5" y="-73.5" font-family="Helvetica,sans-Serif" font-size="10.00" fill="#000000">+ request_ioport()</text>
<text text-anchor="start" x="197.5" y="-62.5" font-family="Helvetica,sans-Serif" font-size="10.00" fill="#000000">+ request_resource()</text>
<text text-anchor="start" x="197.5" y="-51.5" font-family="Helvetica,sans-Serif" font-size="10.00" fill="#000000">+ release_ioport()</text>
<text text-anchor="start" x="197.5" y="-40.5" font-family="Helvetica,sans-Serif" font-size="10.00" fill="#000000">+ release_resource()</text>
<text text-anchor="start" x="197.5" y="-29.5" font-family="Helvetica,sans-Serif" font-size="10.00" fill="#000000">+ root()</text>
<text text-anchor="start" x="197.5" y="-18.5" font-family="Helvetica,sans-Serif" font-size="10.00" fill="#000000">+ assign_dma_domain()</text>
<text text-anchor="start" x="197.5" y="-7.5" font-family="Helvetica,sans-Serif" font-size="10.00" fill="#000000">+ assign_dma_domain()</text>
</a>
</g>
</g>
<!-- Node8&#45;&gt;Node9 -->
<g id="edge9" class="edge">
<title>Node8&#45;&gt;Node9</title>
<path fill="none" stroke="#191970" d="M255,-150.9888C255,-141.8545 255,-132.5727 255,-123.621"/>
<polygon fill="none" stroke="#191970" points="251.5001,-151.2136 255,-161.2136 258.5001,-151.2137 251.5001,-151.2136"/>
</g>
<!-- Node11 -->
<g id="node12" class="node">
<title>Node11</title>
<g id="a_node12"><a xlink:href="structL4Re_1_1Random.html" target="_top" xlink:title="Low&#45;bandwidth interface for random number generators. ">
<polygon fill="#ffffff" stroke="#000000" points="361.5,-350 361.5,-407 452.5,-407 452.5,-350 361.5,-350"/>
<text text-anchor="middle" x="407" y="-395" font-family="Helvetica,sans-Serif" font-size="10.00" fill="#000000">L4Re::Random</text>
<polyline fill="none" stroke="#000000" points="361.5,-388 452.5,-388 "/>
<text text-anchor="middle" x="407" y="-376" font-family="Helvetica,sans-Serif" font-size="10.00" fill="#000000"> </text>
<polyline fill="none" stroke="#000000" points="361.5,-369 452.5,-369 "/>
<text text-anchor="start" x="369.5" y="-357" font-family="Helvetica,sans-Serif" font-size="10.00" fill="#000000">+ get_random()</text>
</a>
</g>
</g>
<!-- Node10&#45;&gt;Node11 -->
<g id="edge11" class="edge">
<title>Node10&#45;&gt;Node11</title>
<path fill="none" stroke="#191970" d="M407,-467.6467C407,-447.3916 407,-424.7108 407,-407.2956"/>
<polygon fill="none" stroke="#191970" points="403.5001,-467.6681 407,-477.6682 410.5001,-467.6682 403.5001,-467.6681"/>
</g>
<!-- Node13 -->
<g id="node14" class="node">
<title>Node13</title>
<g id="a_node14"><a xlink:href="classL4_1_1Scheduler.html" target="_top" xlink:title="C++ interface of the Scheduler kernel object. ">
<polygon fill="#ffffff" stroke="#000000" points="532,-333.5 532,-423.5 618,-423.5 618,-333.5 532,-333.5"/>
<text text-anchor="middle" x="575" y="-411.5" font-family="Helvetica,sans-Serif" font-size="10.00" fill="#000000">L4::Scheduler</text>
<polyline fill="none" stroke="#000000" points="532,-404.5 618,-404.5 "/>
<text text-anchor="middle" x="575" y="-392.5" font-family="Helvetica,sans-Serif" font-size="10.00" fill="#000000"> </text>
<polyline fill="none" stroke="#000000" points="532,-385.5 618,-385.5 "/>
<text text-anchor="start" x="540" y="-373.5" font-family="Helvetica,sans-Serif" font-size="10.00" fill="#000000">+ info()</text>
<text text-anchor="start" x="540" y="-362.5" font-family="Helvetica,sans-Serif" font-size="10.00" fill="#000000">+ run_thread()</text>
<text text-anchor="start" x="540" y="-351.5" font-family="Helvetica,sans-Serif" font-size="10.00" fill="#000000">+ idle_time()</text>
<text text-anchor="start" x="540" y="-340.5" font-family="Helvetica,sans-Serif" font-size="10.00" fill="#000000">+ is_online()</text>
</a>
</g>
</g>
<!-- Node12&#45;&gt;Node13 -->
<g id="edge13" class="edge">
<title>Node12&#45;&gt;Node13</title>
<path fill="none" stroke="#191970" d="M575,-462.3249C575,-449.5756 575,-436.154 575,-423.8785"/>
<polygon fill="none" stroke="#191970" points="571.5001,-462.3706 575,-472.3707 578.5001,-462.3707 571.5001,-462.3706"/>
</g>
<!-- Node15 -->
<g id="node16" class="node">
<title>Node15</title>
<g id="a_node16"><a xlink:href="classL4_1_1Vcon.html" target="_top" xlink:title="C++ L4 Vcon interface. ">
<polygon fill="#ffffff" stroke="#000000" points="688.5,-322.5 688.5,-434.5 797.5,-434.5 797.5,-322.5 688.5,-322.5"/>
<text text-anchor="middle" x="743" y="-422.5" font-family="Helvetica,sans-Serif" font-size="10.00" fill="#000000">L4::Vcon</text>
<polyline fill="none" stroke="#000000" points="688.5,-415.5 797.5,-415.5 "/>
<text text-anchor="middle" x="743" y="-403.5" font-family="Helvetica,sans-Serif" font-size="10.00" fill="#000000"> </text>
<polyline fill="none" stroke="#000000" points="688.5,-396.5 797.5,-396.5 "/>
<text text-anchor="start" x="696.5" y="-384.5" font-family="Helvetica,sans-Serif" font-size="10.00" fill="#000000">+ send()</text>
<text text-anchor="start" x="696.5" y="-373.5" font-family="Helvetica,sans-Serif" font-size="10.00" fill="#000000">+ write()</text>
<text text-anchor="start" x="696.5" y="-362.5" font-family="Helvetica,sans-Serif" font-size="10.00" fill="#000000">+ read()</text>
<text text-anchor="start" x="696.5" y="-351.5" font-family="Helvetica,sans-Serif" font-size="10.00" fill="#000000">+ read_with_flags()</text>
<text text-anchor="start" x="696.5" y="-340.5" font-family="Helvetica,sans-Serif" font-size="10.00" fill="#000000">+ set_attr()</text>
<text text-anchor="start" x="696.5" y="-329.5" font-family="Helvetica,sans-Serif" font-size="10.00" fill="#000000">+ get_attr()</text>
</a>
</g>
</g>
<!-- Node14&#45;&gt;Node15 -->
<g id="edge15" class="edge">
<title>Node14&#45;&gt;Node15</title>
<path fill="none" stroke="#191970" d="M743,-467.6526C743,-456.9512 743,-445.5725 743,-434.6508"/>
<polygon fill="none" stroke="#191970" points="739.5001,-467.6681 743,-477.6682 746.5001,-467.6682 739.5001,-467.6681"/>
</g>
<!-- Node16 -->
<g id="node17" class="node">
<title>Node16</title>
<g id="a_node17"><a xlink:href="classL4_1_1Kobject__t.html" target="_top" xlink:title="{L4::Kobject_t\&lt; Log,\l L4::Vcon, L4::PROTO\l_EMPTY \&gt;\n||# c()\l# __check_protocols__()\l}">
<polygon fill="#ffffff" stroke="#000000" points="676,-178 676,-268 810,-268 810,-178 676,-178"/>
<text text-anchor="start" x="684" y="-256" font-family="Helvetica,sans-Serif" font-size="10.00" fill="#000000">L4::Kobject_t&lt; Log,</text>
<text text-anchor="start" x="684" y="-245" font-family="Helvetica,sans-Serif" font-size="10.00" fill="#000000"> L4::Vcon, L4::PROTO</text>
<text text-anchor="middle" x="743" y="-234" font-family="Helvetica,sans-Serif" font-size="10.00" fill="#000000">_EMPTY &gt;</text>
<polyline fill="none" stroke="#000000" points="676,-227 810,-227 "/>
<text text-anchor="middle" x="743" y="-215" font-family="Helvetica,sans-Serif" font-size="10.00" fill="#000000"> </text>
<polyline fill="none" stroke="#000000" points="676,-208 810,-208 "/>
<text text-anchor="start" x="684" y="-196" font-family="Helvetica,sans-Serif" font-size="10.00" fill="#000000"># c()</text>
<text text-anchor="start" x="684" y="-185" font-family="Helvetica,sans-Serif" font-size="10.00" fill="#000000"># __check_protocols__()</text>
</a>
</g>
</g>
<!-- Node15&#45;&gt;Node16 -->
<g id="edge16" class="edge">
<title>Node15&#45;&gt;Node16</title>
<path fill="none" stroke="#191970" d="M743,-312.2334C743,-297.4345 743,-282.0681 743,-268.3427"/>
<polygon fill="none" stroke="#191970" points="739.5001,-312.3609 743,-322.3609 746.5001,-312.361 739.5001,-312.3609"/>
</g>
<!-- Node17 -->
<g id="node18" class="node">
<title>Node17</title>
<g id="a_node18"><a xlink:href="classL4Re_1_1Log.html" target="_top" xlink:title="Log interface class. ">
<polygon fill="#ffffff" stroke="#000000" points="710.5,-28 710.5,-96 775.5,-96 775.5,-28 710.5,-28"/>
<text text-anchor="middle" x="743" y="-84" font-family="Helvetica,sans-Serif" font-size="10.00" fill="#000000">L4Re::Log</text>
<polyline fill="none" stroke="#000000" points="710.5,-77 775.5,-77 "/>
<text text-anchor="middle" x="743" y="-65" font-family="Helvetica,sans-Serif" font-size="10.00" fill="#000000"> </text>
<polyline fill="none" stroke="#000000" points="710.5,-58 775.5,-58 "/>
<text text-anchor="start" x="718.5" y="-46" font-family="Helvetica,sans-Serif" font-size="10.00" fill="#000000">+ printn()</text>
<text text-anchor="start" x="718.5" y="-35" font-family="Helvetica,sans-Serif" font-size="10.00" fill="#000000">+ print()</text>
</a>
</g>
</g>
<!-- Node16&#45;&gt;Node17 -->
<g id="edge17" class="edge">
<title>Node16&#45;&gt;Node17</title>
<path fill="none" stroke="#191970" d="M743,-167.4544C743,-143.7803 743,-116.9109 743,-96.2194"/>
<polygon fill="none" stroke="#191970" points="739.5001,-167.724 743,-177.7241 746.5001,-167.7241 739.5001,-167.724"/>
</g>
</g>
</svg>
