<?xml version="1.0" encoding="UTF-8" standalone="no"?>
<!DOCTYPE svg PUBLIC "-//W3C//DTD SVG 1.1//EN"
 "http://www.w3.org/Graphics/SVG/1.1/DTD/svg11.dtd">
<!-- Generated by graphviz version 2.40.1 (20161225.0304)
 -->
<!-- Title: cxx::List_item::remove_me Pages: 1 -->
<svg width="317pt" height="78pt"
 viewBox="0.00 0.00 317.00 77.50" xmlns="http://www.w3.org/2000/svg" xmlns:xlink="http://www.w3.org/1999/xlink">
<g id="graph0" class="graph" transform="scale(1 1) rotate(0) translate(4 73.5)">
<title>cxx::List_item::remove_me</title>
<polygon fill="#ffffff" stroke="transparent" points="-4,4 -4,-73.5 313,-73.5 313,4 -4,4"/>
<!-- Node28 -->
<g id="node1" class="node">
<title>Node28</title>
<polygon fill="#bfbfbf" stroke="#000000" points="0,-28 0,-47 139,-47 139,-28 0,-28"/>
<text text-anchor="middle" x="69.5" y="-35" font-family="Helvetica,sans-Serif" font-size="10.00" fill="#000000">cxx::List_item::remove_me</text>
</g>
<!-- Node29 -->
<g id="node2" class="node">
<title>Node29</title>
<g id="a_node2"><a xlink:href="classcxx_1_1List__item.html#a9ae69aab6422e2456924b9bf40b0700d" target="_top" xlink:title="Append item to a list. ">
<polygon fill="#ffffff" stroke="#000000" points="175,-50 175,-69 309,-69 309,-50 175,-50"/>
<text text-anchor="middle" x="242" y="-57" font-family="Helvetica,sans-Serif" font-size="10.00" fill="#000000">cxx::List_item::push_back</text>
</a>
</g>
</g>
<!-- Node28&#45;&gt;Node29 -->
<g id="edge1" class="edge">
<title>Node28&#45;&gt;Node29</title>
<path fill="none" stroke="#191970" d="M139.1651,-46.3848C147.6333,-47.4648 156.3231,-48.5731 164.8912,-49.6658"/>
<polygon fill="#191970" stroke="#191970" points="164.5104,-53.1455 174.8729,-50.9389 165.3961,-46.2018 164.5104,-53.1455"/>
</g>
<!-- Node30 -->
<g id="node3" class="node">
<title>Node30</title>
<g id="a_node3"><a xlink:href="classcxx_1_1List__item.html#ad965060436a10864e9d31e7fb3e42b84" target="_top" xlink:title="Prepend item to a list. ">
<polygon fill="#ffffff" stroke="#000000" points="189,-.5 189,-30.5 295,-30.5 295,-.5 189,-.5"/>
<text text-anchor="start" x="197" y="-18.5" font-family="Helvetica,sans-Serif" font-size="10.00" fill="#000000">cxx::List_item::push</text>
<text text-anchor="middle" x="242" y="-7.5" font-family="Helvetica,sans-Serif" font-size="10.00" fill="#000000">_front</text>
</a>
</g>
</g>
<!-- Node28&#45;&gt;Node30 -->
<g id="edge2" class="edge">
<title>Node28&#45;&gt;Node30</title>
<path fill="none" stroke="#191970" d="M139.1651,-28.6152C152.2246,-26.9496 165.8112,-25.2168 178.6656,-23.5774"/>
<polygon fill="#191970" stroke="#191970" points="179.3167,-27.0228 188.7935,-22.2858 178.4311,-20.0791 179.3167,-27.0228"/>
</g>
</g>
</svg>
