<?xml version="1.0" encoding="UTF-8" standalone="no"?>
<!DOCTYPE svg PUBLIC "-//W3C//DTD SVG 1.1//EN"
 "http://www.w3.org/Graphics/SVG/1.1/DTD/svg11.dtd">
<!-- Generated by graphviz version 2.40.1 (20161225.0304)
 -->
<!-- Title: L4Re::Cap_alloc::alloc Pages: 1 -->
<svg width="427pt" height="154pt"
 viewBox="0.00 0.00 427.00 153.50" xmlns="http://www.w3.org/2000/svg" xmlns:xlink="http://www.w3.org/1999/xlink">
<g id="graph0" class="graph" transform="scale(1 1) rotate(0) translate(4 149.5)">
<title>L4Re::Cap_alloc::alloc</title>
<polygon fill="#ffffff" stroke="transparent" points="-4,4 -4,-149.5 423,-149.5 423,4 -4,4"/>
<!-- Node8 -->
<g id="node1" class="node">
<title>Node8</title>
<polygon fill="#bfbfbf" stroke="#000000" points="0,-69 0,-88 120,-88 120,-69 0,-69"/>
<text text-anchor="middle" x="60" y="-76" font-family="Helvetica,sans-Serif" font-size="10.00" fill="#000000">L4Re::Cap_alloc::alloc</text>
</g>
<!-- Node9 -->
<g id="node2" class="node">
<title>Node9</title>
<g id="a_node2"><a xlink:href="classL4Re_1_1Cap__alloc.html#a23f35ffafa315ea6745e7fb781524c28" target="_top" xlink:title="Allocate a capability. ">
<polygon fill="#ffffff" stroke="#000000" points="158,-126 158,-145 278,-145 278,-126 158,-126"/>
<text text-anchor="middle" x="218" y="-133" font-family="Helvetica,sans-Serif" font-size="10.00" fill="#000000">L4Re::Cap_alloc::alloc</text>
</a>
</g>
</g>
<!-- Node8&#45;&gt;Node9 -->
<g id="edge1" class="edge">
<title>Node8&#45;&gt;Node9</title>
<path fill="none" stroke="#191970" d="M82.6961,-88.0752C102.0284,-96.0884 130.6263,-107.606 156,-116.5 162.1355,-118.6506 168.6579,-120.7978 175.0805,-122.8337"/>
<polygon fill="#191970" stroke="#191970" points="174.4327,-126.2976 185.021,-125.9258 176.5119,-119.6135 174.4327,-126.2976"/>
</g>
<!-- Node10 -->
<g id="node3" class="node">
<title>Node10</title>
<g id="a_node3"><a xlink:href="namespaceL4.html#ade8c6f7c3471209d45401e564d3fd3b7" target="_top" xlink:title="static_cast for capabilities. ">
<polygon fill="#ffffff" stroke="#000000" points="180,-88 180,-107 256,-107 256,-88 180,-88"/>
<text text-anchor="middle" x="218" y="-95" font-family="Helvetica,sans-Serif" font-size="10.00" fill="#000000">L4::cap_cast</text>
</a>
</g>
</g>
<!-- Node8&#45;&gt;Node10 -->
<g id="edge2" class="edge">
<title>Node8&#45;&gt;Node10</title>
<path fill="none" stroke="#191970" d="M120.1838,-85.7373C136.6375,-87.7159 154.2476,-89.8336 169.9274,-91.7191"/>
<polygon fill="#191970" stroke="#191970" points="169.5746,-95.2018 179.921,-92.9209 170.4104,-88.2519 169.5746,-95.2018"/>
</g>
<!-- Node12 -->
<g id="node5" class="node">
<title>Node12</title>
<g id="a_node5"><a xlink:href="classL4Re_1_1Cap__alloc.html#ad8e36ca35881e1bc7ec3ff12e3956f10" target="_top" xlink:title="Free a capability. ">
<polygon fill="#ffffff" stroke="#000000" points="159.5,-50 159.5,-69 276.5,-69 276.5,-50 159.5,-50"/>
<text text-anchor="middle" x="218" y="-57" font-family="Helvetica,sans-Serif" font-size="10.00" fill="#000000">L4Re::Cap_alloc::free</text>
</a>
</g>
</g>
<!-- Node8&#45;&gt;Node12 -->
<g id="edge4" class="edge">
<title>Node8&#45;&gt;Node12</title>
<path fill="none" stroke="#191970" d="M120.1838,-71.2627C129.6983,-70.1186 139.5995,-68.9279 149.2906,-67.7625"/>
<polygon fill="#191970" stroke="#191970" points="149.778,-71.2292 159.2886,-66.5602 148.9422,-64.2793 149.778,-71.2292"/>
</g>
<!-- Node13 -->
<g id="node6" class="node">
<title>Node13</title>
<g id="a_node6"><a xlink:href="group__l4re__cap__api.html#gadb65db1681bc65100caf66924331b85b" target="_top" xlink:title="Destructor. ">
<polygon fill="#ffffff" stroke="#000000" points="156,-.5 156,-30.5 280,-30.5 280,-.5 156,-.5"/>
<text text-anchor="start" x="164" y="-18.5" font-family="Helvetica,sans-Serif" font-size="10.00" fill="#000000">L4Re::Cap_alloc::~Cap</text>
<text text-anchor="middle" x="218" y="-7.5" font-family="Helvetica,sans-Serif" font-size="10.00" fill="#000000">_alloc</text>
</a>
</g>
</g>
<!-- Node8&#45;&gt;Node13 -->
<g id="edge5" class="edge">
<title>Node8&#45;&gt;Node13</title>
<path fill="none" stroke="#191970" d="M83.9968,-68.9317C106.9547,-59.7776 142.2157,-45.7178 170.8054,-34.3181"/>
<polygon fill="#191970" stroke="#191970" points="172.2253,-37.52 180.2178,-30.565 169.6327,-31.0178 172.2253,-37.52"/>
</g>
<!-- Node11 -->
<g id="node4" class="node">
<title>Node11</title>
<g id="a_node4"><a xlink:href="classL4_1_1Cap__base.html#a90ff089ca2442b128c2b2b0e1c22c6d7" target="_top" xlink:title="Return capability selector. ">
<polygon fill="#ffffff" stroke="#000000" points="316,-88 316,-107 419,-107 419,-88 316,-88"/>
<text text-anchor="middle" x="367.5" y="-95" font-family="Helvetica,sans-Serif" font-size="10.00" fill="#000000">L4::Cap_base::cap</text>
</a>
</g>
</g>
<!-- Node10&#45;&gt;Node11 -->
<g id="edge3" class="edge">
<title>Node10&#45;&gt;Node11</title>
<path fill="none" stroke="#191970" d="M256.112,-97.5C271.1566,-97.5 288.8319,-97.5 305.615,-97.5"/>
<polygon fill="#191970" stroke="#191970" points="305.9182,-101.0001 315.9181,-97.5 305.9181,-94.0001 305.9182,-101.0001"/>
</g>
</g>
</svg>
