<?xml version="1.0" encoding="UTF-8" standalone="no"?>
<!DOCTYPE svg PUBLIC "-//W3C//DTD SVG 1.1//EN"
 "http://www.w3.org/Graphics/SVG/1.1/DTD/svg11.dtd">
<!-- Generated by graphviz version 2.40.1 (20161225.0304)
 -->
<!-- Title: L4Re::Log Pages: 1 -->
<svg width="362pt" height="952pt"
 viewBox="0.00 0.00 361.50 952.00" xmlns="http://www.w3.org/2000/svg" xmlns:xlink="http://www.w3.org/1999/xlink">
<g id="graph0" class="graph" transform="scale(1 1) rotate(0) translate(4 948)">
<title>L4Re::Log</title>
<polygon fill="#ffffff" stroke="transparent" points="-4,4 -4,-948 357.5,-948 357.5,4 -4,4"/>
<!-- Node8 -->
<g id="node1" class="node">
<title>Node8</title>
<polygon fill="#bfbfbf" stroke="#000000" points="34.5,-.5 34.5,-68.5 99.5,-68.5 99.5,-.5 34.5,-.5"/>
<text text-anchor="middle" x="67" y="-56.5" font-family="Helvetica,sans-Serif" font-size="10.00" fill="#000000">L4Re::Log</text>
<polyline fill="none" stroke="#000000" points="34.5,-49.5 99.5,-49.5 "/>
<text text-anchor="middle" x="67" y="-37.5" font-family="Helvetica,sans-Serif" font-size="10.00" fill="#000000"> </text>
<polyline fill="none" stroke="#000000" points="34.5,-30.5 99.5,-30.5 "/>
<text text-anchor="start" x="42.5" y="-18.5" font-family="Helvetica,sans-Serif" font-size="10.00" fill="#000000">+ printn()</text>
<text text-anchor="start" x="42.5" y="-7.5" font-family="Helvetica,sans-Serif" font-size="10.00" fill="#000000">+ print()</text>
</g>
<!-- Node9 -->
<g id="node2" class="node">
<title>Node9</title>
<g id="a_node2"><a xlink:href="classL4_1_1Kobject__t.html" target="_top" xlink:title="{L4::Kobject_t\&lt; Log,\l L4::Vcon, L4::PROTO\l_EMPTY \&gt;\n||# c()\l# __check_protocols__()\l}">
<polygon fill="#ffffff" stroke="#000000" points="0,-106.5 0,-196.5 134,-196.5 134,-106.5 0,-106.5"/>
<text text-anchor="start" x="8" y="-184.5" font-family="Helvetica,sans-Serif" font-size="10.00" fill="#000000">L4::Kobject_t&lt; Log,</text>
<text text-anchor="start" x="8" y="-173.5" font-family="Helvetica,sans-Serif" font-size="10.00" fill="#000000"> L4::Vcon, L4::PROTO</text>
<text text-anchor="middle" x="67" y="-162.5" font-family="Helvetica,sans-Serif" font-size="10.00" fill="#000000">_EMPTY &gt;</text>
<polyline fill="none" stroke="#000000" points="0,-155.5 134,-155.5 "/>
<text text-anchor="middle" x="67" y="-143.5" font-family="Helvetica,sans-Serif" font-size="10.00" fill="#000000"> </text>
<polyline fill="none" stroke="#000000" points="0,-136.5 134,-136.5 "/>
<text text-anchor="start" x="8" y="-124.5" font-family="Helvetica,sans-Serif" font-size="10.00" fill="#000000"># c()</text>
<text text-anchor="start" x="8" y="-113.5" font-family="Helvetica,sans-Serif" font-size="10.00" fill="#000000"># __check_protocols__()</text>
</a>
</g>
</g>
<!-- Node9&#45;&gt;Node8 -->
<g id="edge1" class="edge">
<title>Node9&#45;&gt;Node8</title>
<path fill="none" stroke="#191970" d="M67,-96.1895C67,-86.8229 67,-77.3469 67,-68.7259"/>
<polygon fill="none" stroke="#191970" points="63.5001,-96.2647 67,-106.2647 70.5001,-96.2648 63.5001,-96.2647"/>
</g>
<!-- Node10 -->
<g id="node3" class="node">
<title>Node10</title>
<g id="a_node3"><a xlink:href="classL4_1_1Vcon.html" target="_top" xlink:title="C++ L4 Vcon interface. ">
<polygon fill="#ffffff" stroke="#000000" points="78.5,-234.5 78.5,-346.5 187.5,-346.5 187.5,-234.5 78.5,-234.5"/>
<text text-anchor="middle" x="133" y="-334.5" font-family="Helvetica,sans-Serif" font-size="10.00" fill="#000000">L4::Vcon</text>
<polyline fill="none" stroke="#000000" points="78.5,-327.5 187.5,-327.5 "/>
<text text-anchor="middle" x="133" y="-315.5" font-family="Helvetica,sans-Serif" font-size="10.00" fill="#000000"> </text>
<polyline fill="none" stroke="#000000" points="78.5,-308.5 187.5,-308.5 "/>
<text text-anchor="start" x="86.5" y="-296.5" font-family="Helvetica,sans-Serif" font-size="10.00" fill="#000000">+ send()</text>
<text text-anchor="start" x="86.5" y="-285.5" font-family="Helvetica,sans-Serif" font-size="10.00" fill="#000000">+ write()</text>
<text text-anchor="start" x="86.5" y="-274.5" font-family="Helvetica,sans-Serif" font-size="10.00" fill="#000000">+ read()</text>
<text text-anchor="start" x="86.5" y="-263.5" font-family="Helvetica,sans-Serif" font-size="10.00" fill="#000000">+ read_with_flags()</text>
<text text-anchor="start" x="86.5" y="-252.5" font-family="Helvetica,sans-Serif" font-size="10.00" fill="#000000">+ set_attr()</text>
<text text-anchor="start" x="86.5" y="-241.5" font-family="Helvetica,sans-Serif" font-size="10.00" fill="#000000">+ get_attr()</text>
</a>
</g>
</g>
<!-- Node10&#45;&gt;Node9 -->
<g id="edge2" class="edge">
<title>Node10&#45;&gt;Node9</title>
<path fill="none" stroke="#191970" d="M101.9919,-225.1951C97.4228,-215.5722 92.8025,-205.8416 88.4832,-196.7449"/>
<polygon fill="none" stroke="#191970" points="98.8945,-226.8319 106.3455,-234.364 105.2179,-223.8294 98.8945,-226.8319"/>
</g>
<!-- Node11 -->
<g id="node4" class="node">
<title>Node11</title>
<g id="a_node4"><a xlink:href="classL4_1_1Kobject__t.html" target="_top" xlink:title="{L4::Kobject_t\&lt; Vcon,\l Icu, L4_PROTO_LOG \&gt;\n||# c()\l# __check_protocols__()\l}">
<polygon fill="#ffffff" stroke="#000000" points="79,-384.5 79,-463.5 213,-463.5 213,-384.5 79,-384.5"/>
<text text-anchor="start" x="87" y="-451.5" font-family="Helvetica,sans-Serif" font-size="10.00" fill="#000000">L4::Kobject_t&lt; Vcon,</text>
<text text-anchor="middle" x="146" y="-440.5" font-family="Helvetica,sans-Serif" font-size="10.00" fill="#000000"> Icu, L4_PROTO_LOG &gt;</text>
<polyline fill="none" stroke="#000000" points="79,-433.5 213,-433.5 "/>
<text text-anchor="middle" x="146" y="-421.5" font-family="Helvetica,sans-Serif" font-size="10.00" fill="#000000"> </text>
<polyline fill="none" stroke="#000000" points="79,-414.5 213,-414.5 "/>
<text text-anchor="start" x="87" y="-402.5" font-family="Helvetica,sans-Serif" font-size="10.00" fill="#000000"># c()</text>
<text text-anchor="start" x="87" y="-391.5" font-family="Helvetica,sans-Serif" font-size="10.00" fill="#000000"># __check_protocols__()</text>
</a>
</g>
</g>
<!-- Node11&#45;&gt;Node10 -->
<g id="edge3" class="edge">
<title>Node11&#45;&gt;Node10</title>
<path fill="none" stroke="#191970" d="M141.1632,-374.3297C140.2829,-365.2898 139.359,-355.8018 138.4621,-346.5916"/>
<polygon fill="none" stroke="#191970" points="137.682,-374.6934 142.1348,-384.307 144.649,-374.0149 137.682,-374.6934"/>
</g>
<!-- Node12 -->
<g id="node5" class="node">
<title>Node12</title>
<g id="a_node5"><a xlink:href="classL4_1_1Icu.html" target="_top" xlink:title="C++ Icu interface. ">
<polygon fill="#ffffff" stroke="#000000" points="205,-522.5 205,-645.5 285,-645.5 285,-522.5 205,-522.5"/>
<text text-anchor="middle" x="245" y="-633.5" font-family="Helvetica,sans-Serif" font-size="10.00" fill="#000000">L4::Icu</text>
<polyline fill="none" stroke="#000000" points="205,-626.5 285,-626.5 "/>
<text text-anchor="middle" x="245" y="-614.5" font-family="Helvetica,sans-Serif" font-size="10.00" fill="#000000"> </text>
<polyline fill="none" stroke="#000000" points="205,-607.5 285,-607.5 "/>
<text text-anchor="start" x="213" y="-595.5" font-family="Helvetica,sans-Serif" font-size="10.00" fill="#000000">+ bind()</text>
<text text-anchor="start" x="213" y="-584.5" font-family="Helvetica,sans-Serif" font-size="10.00" fill="#000000">+ unbind()</text>
<text text-anchor="start" x="213" y="-573.5" font-family="Helvetica,sans-Serif" font-size="10.00" fill="#000000">+ info()</text>
<text text-anchor="start" x="213" y="-562.5" font-family="Helvetica,sans-Serif" font-size="10.00" fill="#000000">+ msi_info()</text>
<text text-anchor="start" x="213" y="-551.5" font-family="Helvetica,sans-Serif" font-size="10.00" fill="#000000">+ control()</text>
<text text-anchor="start" x="213" y="-540.5" font-family="Helvetica,sans-Serif" font-size="10.00" fill="#000000">+ mask()</text>
<text text-anchor="start" x="213" y="-529.5" font-family="Helvetica,sans-Serif" font-size="10.00" fill="#000000">+ set_mode()</text>
</a>
</g>
</g>
<!-- Node12&#45;&gt;Node11 -->
<g id="edge4" class="edge">
<title>Node12&#45;&gt;Node11</title>
<path fill="none" stroke="#191970" d="M201.2435,-513.2824C190.6818,-496.213 179.7665,-478.5721 170.456,-463.5249"/>
<polygon fill="none" stroke="#191970" points="198.4859,-515.4776 206.724,-522.1398 204.4386,-511.7944 198.4859,-515.4776"/>
</g>
<!-- Node13 -->
<g id="node6" class="node">
<title>Node13</title>
<g id="a_node6"><a xlink:href="classL4_1_1Kobject__t.html" target="_top" xlink:title="{L4::Kobject_t\&lt; Icu,\l Irq_eoi, L4_PROTO_IRQ,\l Type_info::Demand_t\&lt; 1 \&gt; \&gt;\n||# c()\l# __check_protocols__()\l}">
<polygon fill="#ffffff" stroke="#000000" points="200.5,-704.5 200.5,-794.5 353.5,-794.5 353.5,-704.5 200.5,-704.5"/>
<text text-anchor="start" x="208.5" y="-782.5" font-family="Helvetica,sans-Serif" font-size="10.00" fill="#000000">L4::Kobject_t&lt; Icu,</text>
<text text-anchor="start" x="208.5" y="-771.5" font-family="Helvetica,sans-Serif" font-size="10.00" fill="#000000"> Irq_eoi, L4_PROTO_IRQ,</text>
<text text-anchor="middle" x="277" y="-760.5" font-family="Helvetica,sans-Serif" font-size="10.00" fill="#000000"> Type_info::Demand_t&lt; 1 &gt; &gt;</text>
<polyline fill="none" stroke="#000000" points="200.5,-753.5 353.5,-753.5 "/>
<text text-anchor="middle" x="277" y="-741.5" font-family="Helvetica,sans-Serif" font-size="10.00" fill="#000000"> </text>
<polyline fill="none" stroke="#000000" points="200.5,-734.5 353.5,-734.5 "/>
<text text-anchor="start" x="208.5" y="-722.5" font-family="Helvetica,sans-Serif" font-size="10.00" fill="#000000"># c()</text>
<text text-anchor="start" x="208.5" y="-711.5" font-family="Helvetica,sans-Serif" font-size="10.00" fill="#000000"># __check_protocols__()</text>
</a>
</g>
</g>
<!-- Node13&#45;&gt;Node12 -->
<g id="edge5" class="edge">
<title>Node13&#45;&gt;Node12</title>
<path fill="none" stroke="#191970" d="M268.4392,-694.2229C266.7397,-684.1486 264.8925,-673.7453 263,-664 261.833,-657.9907 260.5502,-651.7431 259.2235,-645.5068"/>
<polygon fill="none" stroke="#191970" points="264.9967,-694.8584 270.0857,-704.151 271.9024,-693.7131 264.9967,-694.8584"/>
</g>
<!-- Node14 -->
<g id="node7" class="node">
<title>Node14</title>
<g id="a_node7"><a xlink:href="classL4_1_1Irq__eoi.html" target="_top" xlink:title="Interface for sending an acknowledge message to an object. ">
<polygon fill="#ffffff" stroke="#000000" points="280,-875.5 280,-932.5 350,-932.5 350,-875.5 280,-875.5"/>
<text text-anchor="middle" x="315" y="-920.5" font-family="Helvetica,sans-Serif" font-size="10.00" fill="#000000">L4::Irq_eoi</text>
<polyline fill="none" stroke="#000000" points="280,-913.5 350,-913.5 "/>
<text text-anchor="middle" x="315" y="-901.5" font-family="Helvetica,sans-Serif" font-size="10.00" fill="#000000"> </text>
<polyline fill="none" stroke="#000000" points="280,-894.5 350,-894.5 "/>
<text text-anchor="start" x="288" y="-882.5" font-family="Helvetica,sans-Serif" font-size="10.00" fill="#000000">+ unmask()</text>
</a>
</g>
</g>
<!-- Node14&#45;&gt;Node13 -->
<g id="edge6" class="edge">
<title>Node14&#45;&gt;Node13</title>
<path fill="none" stroke="#191970" d="M310.8398,-865.1575C308.63,-848.8849 305.4328,-829.8665 301,-813 299.4123,-806.9589 297.4533,-800.6974 295.3448,-794.5658"/>
<polygon fill="none" stroke="#191970" points="307.41,-865.9301 312.1523,-875.4043 314.3533,-865.0406 307.41,-865.9301"/>
</g>
<!-- Node15 -->
<g id="node8" class="node">
<title>Node15</title>
<g id="a_node8"><a xlink:href="classL4_1_1Kobject__t.html" target="_top" xlink:title="Helper class to create an L4Re interface class that is derived from a single base class...">
<polygon fill="#ffffff" stroke="#000000" points="67,-864.5 67,-943.5 225,-943.5 225,-864.5 67,-864.5"/>
<text text-anchor="start" x="75" y="-931.5" font-family="Helvetica,sans-Serif" font-size="10.00" fill="#000000">L4::Kobject_t&lt; Derived,</text>
<text text-anchor="middle" x="146" y="-920.5" font-family="Helvetica,sans-Serif" font-size="10.00" fill="#000000"> Base, PROTO, S_DEMAND &gt;</text>
<polyline fill="none" stroke="#000000" points="67,-913.5 225,-913.5 "/>
<text text-anchor="middle" x="146" y="-901.5" font-family="Helvetica,sans-Serif" font-size="10.00" fill="#000000"> </text>
<polyline fill="none" stroke="#000000" points="67,-894.5 225,-894.5 "/>
<text text-anchor="start" x="75" y="-882.5" font-family="Helvetica,sans-Serif" font-size="10.00" fill="#000000"># c()</text>
<text text-anchor="start" x="75" y="-871.5" font-family="Helvetica,sans-Serif" font-size="10.00" fill="#000000"># __check_protocols__()</text>
</a>
</g>
</g>
<!-- Node15&#45;&gt;Node9 -->
<g id="edge9" class="edge">
<title>Node15&#45;&gt;Node9</title>
<path fill="none" stroke="#ffa500" d="M90.3637,-857.0846C63.4977,-829.0683 37,-790.9337 37,-749.5 37,-749.5 37,-749.5 37,-290.5 37,-258.653 44.6176,-223.6067 52.1758,-196.6721"/>
<polygon fill="#ffa500" stroke="#ffa500" points="88.0329,-859.7051 97.5562,-864.3481 93.0069,-854.7796 88.0329,-859.7051"/>
<text text-anchor="start" x="37" y="-496" font-family="Helvetica,sans-Serif" font-size="10.00" fill="#000000"> &lt; Log, L4::Vcon, L4</text>
<text text-anchor="middle" x="84" y="-485" font-family="Helvetica,sans-Serif" font-size="10.00" fill="#000000">::PROTO_EMPTY &gt;</text>
</g>
<!-- Node15&#45;&gt;Node11 -->
<g id="edge8" class="edge">
<title>Node15&#45;&gt;Node11</title>
<path fill="none" stroke="#ffa500" d="M145.1171,-854.0356C144.383,-809.8512 143.3966,-743.642 143,-686 142.457,-607.0783 144.028,-514.7896 145.0969,-463.5031"/>
<polygon fill="#ffa500" stroke="#ffa500" points="141.6207,-854.282 145.2884,-864.2218 148.6197,-854.1643 141.6207,-854.282"/>
<text text-anchor="start" x="143" y="-678" font-family="Helvetica,sans-Serif" font-size="10.00" fill="#000000"> &lt; Vcon, Icu, L4_PROTO</text>
<text text-anchor="middle" x="201" y="-667" font-family="Helvetica,sans-Serif" font-size="10.00" fill="#000000">_LOG &gt;</text>
</g>
<!-- Node15&#45;&gt;Node13 -->
<g id="edge7" class="edge">
<title>Node15&#45;&gt;Node13</title>
<path fill="none" stroke="#ffa500" d="M155.5768,-854.5617C160.0681,-840.1334 166.5878,-825.0281 176,-813 182.8927,-804.1916 191.3715,-796.2739 200.4606,-789.263"/>
<polygon fill="#ffa500" stroke="#ffa500" points="152.1489,-853.8201 152.7808,-864.3961 158.8821,-855.7344 152.1489,-853.8201"/>
<text text-anchor="start" x="176" y="-838" font-family="Helvetica,sans-Serif" font-size="10.00" fill="#000000"> &lt; Icu, Irq_eoi, L4</text>
<text text-anchor="start" x="176" y="-827" font-family="Helvetica,sans-Serif" font-size="10.00" fill="#000000">_PROTO_IRQ, Type_info</text>
<text text-anchor="middle" x="236.5" y="-816" font-family="Helvetica,sans-Serif" font-size="10.00" fill="#000000">::Demand_t&lt; 1 &gt; &gt;</text>
</g>
</g>
</svg>
