<?xml version="1.0" encoding="UTF-8" standalone="no"?>
<!DOCTYPE svg PUBLIC "-//W3C//DTD SVG 1.1//EN"
 "http://www.w3.org/Graphics/SVG/1.1/DTD/svg11.dtd">
<!-- Generated by graphviz version 2.40.1 (20161225.0304)
 -->
<!-- Title: L4Re::Util::Registry_server&lt; LOOP_HOOKS &gt; Pages: 1 -->
<svg width="163pt" height="259pt"
 viewBox="0.00 0.00 163.00 259.00" xmlns="http://www.w3.org/2000/svg" xmlns:xlink="http://www.w3.org/1999/xlink">
<g id="graph0" class="graph" transform="scale(1 1) rotate(0) translate(4 255)">
<title>L4Re::Util::Registry_server&lt; LOOP_HOOKS &gt;</title>
<polygon fill="#ffffff" stroke="transparent" points="-4,4 -4,-255 159,-255 159,4 -4,4"/>
<!-- Node2 -->
<g id="node1" class="node">
<title>Node2</title>
<polygon fill="#bfbfbf" stroke="#000000" points="6,-.5 6,-112.5 149,-112.5 149,-.5 6,-.5"/>
<text text-anchor="start" x="14" y="-100.5" font-family="Helvetica,sans-Serif" font-size="10.00" fill="#000000">L4Re::Util::Registry</text>
<text text-anchor="middle" x="77.5" y="-89.5" font-family="Helvetica,sans-Serif" font-size="10.00" fill="#000000">_server&lt; LOOP_HOOKS &gt;</text>
<polyline fill="none" stroke="#000000" points="6,-82.5 149,-82.5 "/>
<text text-anchor="middle" x="77.5" y="-70.5" font-family="Helvetica,sans-Serif" font-size="10.00" fill="#000000"> </text>
<polyline fill="none" stroke="#000000" points="6,-63.5 149,-63.5 "/>
<text text-anchor="start" x="14" y="-51.5" font-family="Helvetica,sans-Serif" font-size="10.00" fill="#000000">+ Registry_server()</text>
<text text-anchor="start" x="14" y="-40.5" font-family="Helvetica,sans-Serif" font-size="10.00" fill="#000000">+ Registry_server()</text>
<text text-anchor="start" x="14" y="-29.5" font-family="Helvetica,sans-Serif" font-size="10.00" fill="#000000">+ registry()</text>
<text text-anchor="start" x="14" y="-18.5" font-family="Helvetica,sans-Serif" font-size="10.00" fill="#000000">+ registry()</text>
<text text-anchor="start" x="14" y="-7.5" font-family="Helvetica,sans-Serif" font-size="10.00" fill="#000000">+ loop()</text>
</g>
<!-- Node3 -->
<g id="node2" class="node">
<title>Node3</title>
<g id="a_node2"><a xlink:href="classL4_1_1Server.html" target="_top" xlink:title="Basic server loop for handling client requests. ">
<polygon fill="#ffffff" stroke="#000000" points="0,-149.5 0,-250.5 155,-250.5 155,-149.5 0,-149.5"/>
<text text-anchor="middle" x="77.5" y="-238.5" font-family="Helvetica,sans-Serif" font-size="10.00" fill="#000000">L4::Server&lt; LOOP_HOOKS &gt;</text>
<polyline fill="none" stroke="#000000" points="0,-231.5 155,-231.5 "/>
<text text-anchor="start" x="8" y="-219.5" font-family="Helvetica,sans-Serif" font-size="10.00" fill="#000000">+ _utcb</text>
<polyline fill="none" stroke="#000000" points="0,-212.5 155,-212.5 "/>
<text text-anchor="start" x="8" y="-200.5" font-family="Helvetica,sans-Serif" font-size="10.00" fill="#000000">+ Server()</text>
<text text-anchor="start" x="8" y="-189.5" font-family="Helvetica,sans-Serif" font-size="10.00" fill="#000000">+ internal_loop()</text>
<text text-anchor="start" x="8" y="-178.5" font-family="Helvetica,sans-Serif" font-size="10.00" fill="#000000">+ loop_noexc()</text>
<text text-anchor="start" x="8" y="-167.5" font-family="Helvetica,sans-Serif" font-size="10.00" fill="#000000">+ loop()</text>
<text text-anchor="start" x="8" y="-156.5" font-family="Helvetica,sans-Serif" font-size="10.00" fill="#000000"># reply_n_wait()</text>
</a>
</g>
</g>
<!-- Node3&#45;&gt;Node2 -->
<g id="edge1" class="edge">
<title>Node3&#45;&gt;Node2</title>
<path fill="none" stroke="#191970" d="M77.5,-139.3006C77.5,-130.5766 77.5,-121.6293 77.5,-112.9913"/>
<polygon fill="none" stroke="#191970" points="74.0001,-139.4072 77.5,-149.4073 81.0001,-139.4073 74.0001,-139.4072"/>
</g>
</g>
</svg>
