<?xml version="1.0" encoding="UTF-8" standalone="no"?>
<!DOCTYPE svg PUBLIC "-//W3C//DTD SVG 1.1//EN"
 "http://www.w3.org/Graphics/SVG/1.1/DTD/svg11.dtd">
<!-- Generated by graphviz version 2.40.1 (20161225.0304)
 -->
<!-- Title: L4Re::Vfs::File Pages: 1 -->
<svg width="538pt" height="369pt"
 viewBox="0.00 0.00 537.50 369.00" xmlns="http://www.w3.org/2000/svg" xmlns:xlink="http://www.w3.org/1999/xlink">
<g id="graph0" class="graph" transform="scale(1 1) rotate(0) translate(4 365)">
<title>L4Re::Vfs::File</title>
<polygon fill="#ffffff" stroke="transparent" points="-4,4 -4,-365 533.5,-365 533.5,4 -4,4"/>
<!-- Node6 -->
<g id="node1" class="node">
<title>Node6</title>
<polygon fill="#bfbfbf" stroke="#000000" points="225.5,-.5 225.5,-134.5 313.5,-134.5 313.5,-.5 225.5,-.5"/>
<text text-anchor="middle" x="269.5" y="-122.5" font-family="Helvetica,sans-Serif" font-size="10.00" fill="#000000">L4Re::Vfs::File</text>
<polyline fill="none" stroke="#000000" points="225.5,-115.5 313.5,-115.5 "/>
<text text-anchor="middle" x="269.5" y="-103.5" font-family="Helvetica,sans-Serif" font-size="10.00" fill="#000000"> </text>
<polyline fill="none" stroke="#000000" points="225.5,-96.5 313.5,-96.5 "/>
<text text-anchor="start" x="233.5" y="-84.5" font-family="Helvetica,sans-Serif" font-size="10.00" fill="#000000">+ get_mount()</text>
<text text-anchor="start" x="233.5" y="-73.5" font-family="Helvetica,sans-Serif" font-size="10.00" fill="#000000">+ openat()</text>
<text text-anchor="start" x="233.5" y="-62.5" font-family="Helvetica,sans-Serif" font-size="10.00" fill="#000000">+ add_ref()</text>
<text text-anchor="start" x="233.5" y="-51.5" font-family="Helvetica,sans-Serif" font-size="10.00" fill="#000000">+ remove_ref()</text>
<text text-anchor="start" x="233.5" y="-40.5" font-family="Helvetica,sans-Serif" font-size="10.00" fill="#000000">+ ~File()</text>
<text text-anchor="start" x="233.5" y="-29.5" font-family="Helvetica,sans-Serif" font-size="10.00" fill="#000000">+ mount_tree()</text>
<text text-anchor="start" x="233.5" y="-18.5" font-family="Helvetica,sans-Serif" font-size="10.00" fill="#000000"># File()</text>
<text text-anchor="start" x="233.5" y="-7.5" font-family="Helvetica,sans-Serif" font-size="10.00" fill="#000000"># File()</text>
</g>
<!-- Node7 -->
<g id="node2" class="node">
<title>Node7</title>
<g id="a_node2"><a xlink:href="classL4Re_1_1Vfs_1_1Generic__file.html" target="_top" xlink:title="The common interface for an open POSIX file. ">
<polygon fill="#ffffff" stroke="#000000" points="0,-193.5 0,-338.5 123,-338.5 123,-193.5 0,-193.5"/>
<text text-anchor="middle" x="61.5" y="-326.5" font-family="Helvetica,sans-Serif" font-size="10.00" fill="#000000">L4Re::Vfs::Generic_file</text>
<polyline fill="none" stroke="#000000" points="0,-319.5 123,-319.5 "/>
<text text-anchor="middle" x="61.5" y="-307.5" font-family="Helvetica,sans-Serif" font-size="10.00" fill="#000000"> </text>
<polyline fill="none" stroke="#000000" points="0,-300.5 123,-300.5 "/>
<text text-anchor="start" x="8" y="-288.5" font-family="Helvetica,sans-Serif" font-size="10.00" fill="#000000">+ ~Generic_file()</text>
<text text-anchor="start" x="8" y="-277.5" font-family="Helvetica,sans-Serif" font-size="10.00" fill="#000000">+ unlock_all_locks()</text>
<text text-anchor="start" x="8" y="-266.5" font-family="Helvetica,sans-Serif" font-size="10.00" fill="#000000">+ fstat64()</text>
<text text-anchor="start" x="8" y="-255.5" font-family="Helvetica,sans-Serif" font-size="10.00" fill="#000000">+ fchmod()</text>
<text text-anchor="start" x="8" y="-244.5" font-family="Helvetica,sans-Serif" font-size="10.00" fill="#000000">+ get_status_flags()</text>
<text text-anchor="start" x="8" y="-233.5" font-family="Helvetica,sans-Serif" font-size="10.00" fill="#000000">+ set_status_flags()</text>
<text text-anchor="start" x="8" y="-222.5" font-family="Helvetica,sans-Serif" font-size="10.00" fill="#000000">+ utime()</text>
<text text-anchor="start" x="8" y="-211.5" font-family="Helvetica,sans-Serif" font-size="10.00" fill="#000000">+ utimes()</text>
<text text-anchor="start" x="8" y="-200.5" font-family="Helvetica,sans-Serif" font-size="10.00" fill="#000000">+ readlink()</text>
</a>
</g>
</g>
<!-- Node7&#45;&gt;Node6 -->
<g id="edge1" class="edge">
<title>Node7&#45;&gt;Node6</title>
<path fill="none" stroke="#191970" d="M119.2621,-185.2531C123.5905,-180.2988 128.0209,-175.5023 132.5,-171 160.7768,-142.5764 197.1577,-115.4501 225.3217,-96.1039"/>
<polygon fill="none" stroke="#191970" points="116.3607,-183.2624 112.5518,-193.149 121.6946,-187.7956 116.3607,-183.2624"/>
</g>
<!-- Node8 -->
<g id="node3" class="node">
<title>Node8</title>
<g id="a_node3"><a xlink:href="classL4Re_1_1Vfs_1_1Regular__file.html" target="_top" xlink:title="Interface for a POSIX file that provides regular file semantics. ">
<polygon fill="#ffffff" stroke="#000000" points="141.5,-177 141.5,-355 263.5,-355 263.5,-177 141.5,-177"/>
<text text-anchor="middle" x="202.5" y="-343" font-family="Helvetica,sans-Serif" font-size="10.00" fill="#000000">L4Re::Vfs::Regular_file</text>
<polyline fill="none" stroke="#000000" points="141.5,-336 263.5,-336 "/>
<text text-anchor="middle" x="202.5" y="-324" font-family="Helvetica,sans-Serif" font-size="10.00" fill="#000000"> </text>
<polyline fill="none" stroke="#000000" points="141.5,-317 263.5,-317 "/>
<text text-anchor="start" x="149.5" y="-305" font-family="Helvetica,sans-Serif" font-size="10.00" fill="#000000">+ ~Regular_file()</text>
<text text-anchor="start" x="149.5" y="-294" font-family="Helvetica,sans-Serif" font-size="10.00" fill="#000000">+ data_space()</text>
<text text-anchor="start" x="149.5" y="-283" font-family="Helvetica,sans-Serif" font-size="10.00" fill="#000000">+ readv()</text>
<text text-anchor="start" x="149.5" y="-272" font-family="Helvetica,sans-Serif" font-size="10.00" fill="#000000">+ writev()</text>
<text text-anchor="start" x="149.5" y="-261" font-family="Helvetica,sans-Serif" font-size="10.00" fill="#000000">+ preadv()</text>
<text text-anchor="start" x="149.5" y="-250" font-family="Helvetica,sans-Serif" font-size="10.00" fill="#000000">+ pwritev()</text>
<text text-anchor="start" x="149.5" y="-239" font-family="Helvetica,sans-Serif" font-size="10.00" fill="#000000">+ lseek64()</text>
<text text-anchor="start" x="149.5" y="-228" font-family="Helvetica,sans-Serif" font-size="10.00" fill="#000000">+ ftruncate64()</text>
<text text-anchor="start" x="149.5" y="-217" font-family="Helvetica,sans-Serif" font-size="10.00" fill="#000000">+ fsync()</text>
<text text-anchor="start" x="149.5" y="-206" font-family="Helvetica,sans-Serif" font-size="10.00" fill="#000000">+ fdatasync()</text>
<text text-anchor="start" x="149.5" y="-195" font-family="Helvetica,sans-Serif" font-size="10.00" fill="#000000">+ get_lock()</text>
<text text-anchor="start" x="149.5" y="-184" font-family="Helvetica,sans-Serif" font-size="10.00" fill="#000000">+ set_lock()</text>
</a>
</g>
</g>
<!-- Node8&#45;&gt;Node6 -->
<g id="edge2" class="edge">
<title>Node8&#45;&gt;Node6</title>
<path fill="none" stroke="#191970" d="M235.8433,-167.2144C239.5737,-156.1622 243.3068,-145.1023 246.8574,-134.583"/>
<polygon fill="none" stroke="#191970" points="232.4522,-166.317 232.5703,-176.9111 239.0846,-168.5557 232.4522,-166.317"/>
</g>
<!-- Node9 -->
<g id="node4" class="node">
<title>Node9</title>
<g id="a_node4"><a xlink:href="classL4Re_1_1Vfs_1_1Directory.html" target="_top" xlink:title="Interface for a POSIX file that is a directory. ">
<polygon fill="#ffffff" stroke="#000000" points="282,-171.5 282,-360.5 391,-360.5 391,-171.5 282,-171.5"/>
<text text-anchor="middle" x="336.5" y="-348.5" font-family="Helvetica,sans-Serif" font-size="10.00" fill="#000000">L4Re::Vfs::Directory</text>
<polyline fill="none" stroke="#000000" points="282,-341.5 391,-341.5 "/>
<text text-anchor="middle" x="336.5" y="-329.5" font-family="Helvetica,sans-Serif" font-size="10.00" fill="#000000"> </text>
<polyline fill="none" stroke="#000000" points="282,-322.5 391,-322.5 "/>
<text text-anchor="start" x="290" y="-310.5" font-family="Helvetica,sans-Serif" font-size="10.00" fill="#000000">+ ~Directory()</text>
<text text-anchor="start" x="290" y="-299.5" font-family="Helvetica,sans-Serif" font-size="10.00" fill="#000000">+ faccessat()</text>
<text text-anchor="start" x="290" y="-288.5" font-family="Helvetica,sans-Serif" font-size="10.00" fill="#000000">+ mkdir()</text>
<text text-anchor="start" x="290" y="-277.5" font-family="Helvetica,sans-Serif" font-size="10.00" fill="#000000">+ unlink()</text>
<text text-anchor="start" x="290" y="-266.5" font-family="Helvetica,sans-Serif" font-size="10.00" fill="#000000">+ rename()</text>
<text text-anchor="start" x="290" y="-255.5" font-family="Helvetica,sans-Serif" font-size="10.00" fill="#000000">+ link()</text>
<text text-anchor="start" x="290" y="-244.5" font-family="Helvetica,sans-Serif" font-size="10.00" fill="#000000">+ symlink()</text>
<text text-anchor="start" x="290" y="-233.5" font-family="Helvetica,sans-Serif" font-size="10.00" fill="#000000">+ rmdir()</text>
<text text-anchor="start" x="290" y="-222.5" font-family="Helvetica,sans-Serif" font-size="10.00" fill="#000000">+ openat()</text>
<text text-anchor="start" x="290" y="-211.5" font-family="Helvetica,sans-Serif" font-size="10.00" fill="#000000">+ getdents()</text>
<text text-anchor="start" x="290" y="-200.5" font-family="Helvetica,sans-Serif" font-size="10.00" fill="#000000">+ fchmodat()</text>
<text text-anchor="start" x="290" y="-189.5" font-family="Helvetica,sans-Serif" font-size="10.00" fill="#000000">+ utimensat()</text>
<text text-anchor="start" x="290" y="-178.5" font-family="Helvetica,sans-Serif" font-size="10.00" fill="#000000">+ get_entry()</text>
</a>
</g>
</g>
<!-- Node9&#45;&gt;Node6 -->
<g id="edge3" class="edge">
<title>Node9&#45;&gt;Node6</title>
<path fill="none" stroke="#191970" d="M301.3353,-161.8181C298.2339,-152.6294 295.1515,-143.4972 292.1948,-134.7377"/>
<polygon fill="none" stroke="#191970" points="298.0555,-163.0453 304.5698,-171.4008 304.6879,-160.8066 298.0555,-163.0453"/>
</g>
<!-- Node10 -->
<g id="node5" class="node">
<title>Node10</title>
<g id="a_node5"><a xlink:href="classL4Re_1_1Vfs_1_1Special__file.html" target="_top" xlink:title="Interface for a POSIX file that provides special file semantics. ">
<polygon fill="#ffffff" stroke="#000000" points="409.5,-232 409.5,-300 529.5,-300 529.5,-232 409.5,-232"/>
<text text-anchor="middle" x="469.5" y="-288" font-family="Helvetica,sans-Serif" font-size="10.00" fill="#000000">L4Re::Vfs::Special_file</text>
<polyline fill="none" stroke="#000000" points="409.5,-281 529.5,-281 "/>
<text text-anchor="middle" x="469.5" y="-269" font-family="Helvetica,sans-Serif" font-size="10.00" fill="#000000"> </text>
<polyline fill="none" stroke="#000000" points="409.5,-262 529.5,-262 "/>
<text text-anchor="start" x="417.5" y="-250" font-family="Helvetica,sans-Serif" font-size="10.00" fill="#000000">+ ~Special_file()</text>
<text text-anchor="start" x="417.5" y="-239" font-family="Helvetica,sans-Serif" font-size="10.00" fill="#000000">+ ioctl()</text>
</a>
</g>
</g>
<!-- Node10&#45;&gt;Node6 -->
<g id="edge4" class="edge">
<title>Node10&#45;&gt;Node6</title>
<path fill="none" stroke="#191970" d="M442.0376,-223.0449C430.2209,-206.0157 415.6494,-186.7756 400.5,-171 374.0997,-143.5085 340.2561,-116.9508 313.5819,-97.6215"/>
<polygon fill="none" stroke="#191970" points="439.4276,-225.4299 447.9543,-231.7185 445.2103,-221.4851 439.4276,-225.4299"/>
</g>
</g>
</svg>
