<?xml version="1.0" encoding="UTF-8" standalone="no"?>
<!DOCTYPE svg PUBLIC "-//W3C//DTD SVG 1.1//EN"
 "http://www.w3.org/Graphics/SVG/1.1/DTD/svg11.dtd">
<!-- Generated by graphviz version 2.40.1 (20161225.0304)
 -->
<!-- Title: L4::Cap_base::move Pages: 1 -->
<svg width="389pt" height="104pt"
 viewBox="0.00 0.00 389.00 104.00" xmlns="http://www.w3.org/2000/svg" xmlns:xlink="http://www.w3.org/1999/xlink">
<g id="graph0" class="graph" transform="scale(1 1) rotate(0) translate(4 100)">
<title>L4::Cap_base::move</title>
<polygon fill="#ffffff" stroke="transparent" points="-4,4 -4,-100 385,-100 385,4 -4,4"/>
<!-- Node68 -->
<g id="node1" class="node">
<title>Node68</title>
<polygon fill="#bfbfbf" stroke="#000000" points="0,-38.5 0,-57.5 111,-57.5 111,-38.5 0,-38.5"/>
<text text-anchor="middle" x="55.5" y="-45.5" font-family="Helvetica,sans-Serif" font-size="10.00" fill="#000000">L4::Cap_base::move</text>
</g>
<!-- Node69 -->
<g id="node2" class="node">
<title>Node69</title>
<g id="a_node2"><a xlink:href="classL4_1_1Cap__base.html#a60a4c249059576429246b5b74bd3174e" target="_top" xlink:title="Return flex&#45;page for the capability. ">
<polygon fill="#ffffff" stroke="#000000" points="151,-76.5 151,-95.5 264,-95.5 264,-76.5 151,-76.5"/>
<text text-anchor="middle" x="207.5" y="-83.5" font-family="Helvetica,sans-Serif" font-size="10.00" fill="#000000">L4::Cap_base::fpage</text>
</a>
</g>
</g>
<!-- Node68&#45;&gt;Node69 -->
<g id="edge1" class="edge">
<title>Node68&#45;&gt;Node69</title>
<path fill="none" stroke="#191970" d="M93.856,-57.589C113.8237,-62.5809 138.4295,-68.7324 159.6334,-74.0334"/>
<polygon fill="#191970" stroke="#191970" points="158.8695,-77.45 169.4198,-76.4799 160.5673,-70.659 158.8695,-77.45"/>
</g>
<!-- Node71 -->
<g id="node4" class="node">
<title>Node71</title>
<g id="a_node4"><a xlink:href="classL4_1_1Cap__base.html#ab4937bb12579c752564f7250760d0bda" target="_top" xlink:title="Test whether the capability is a valid capability index (i.e., not L4_INVALID_CAP). ">
<polygon fill="#ffffff" stroke="#000000" points="147,-38.5 147,-57.5 268,-57.5 268,-38.5 147,-38.5"/>
<text text-anchor="middle" x="207.5" y="-45.5" font-family="Helvetica,sans-Serif" font-size="10.00" fill="#000000">L4::Cap_base::is_valid</text>
</a>
</g>
</g>
<!-- Node68&#45;&gt;Node71 -->
<g id="edge3" class="edge">
<title>Node68&#45;&gt;Node71</title>
<path fill="none" stroke="#191970" d="M111.2361,-48C119.5791,-48 128.2737,-48 136.8759,-48"/>
<polygon fill="#191970" stroke="#191970" points="136.9052,-51.5001 146.9052,-48 136.9051,-44.5001 136.9052,-51.5001"/>
</g>
<!-- Node72 -->
<g id="node5" class="node">
<title>Node72</title>
<g id="a_node5"><a xlink:href="group__l4__task__api.html#ga8ed2ff7ba204de7c01311c22412a2063" target="_top" xlink:title="Map resources available in the source task to a destination task. ">
<polygon fill="#ffffff" stroke="#000000" points="169,-.5 169,-19.5 246,-19.5 246,-.5 169,-.5"/>
<text text-anchor="middle" x="207.5" y="-7.5" font-family="Helvetica,sans-Serif" font-size="10.00" fill="#000000">l4_task_map</text>
</a>
</g>
</g>
<!-- Node68&#45;&gt;Node72 -->
<g id="edge4" class="edge">
<title>Node68&#45;&gt;Node72</title>
<path fill="none" stroke="#191970" d="M93.856,-38.411C113.8237,-33.4191 138.4295,-27.2676 159.6334,-21.9666"/>
<polygon fill="#191970" stroke="#191970" points="160.5673,-25.341 169.4198,-19.5201 158.8695,-18.55 160.5673,-25.341"/>
</g>
<!-- Node70 -->
<g id="node3" class="node">
<title>Node70</title>
<g id="a_node3"><a xlink:href="group__l4__fpage__api.html#ga3eaf59757a63812044e2b3a1cdf09d54" target="_top" xlink:title="Create a kernel&#45;object flex page. ">
<polygon fill="#ffffff" stroke="#000000" points="304,-76.5 304,-95.5 381,-95.5 381,-76.5 304,-76.5"/>
<text text-anchor="middle" x="342.5" y="-83.5" font-family="Helvetica,sans-Serif" font-size="10.00" fill="#000000">l4_obj_fpage</text>
</a>
</g>
</g>
<!-- Node69&#45;&gt;Node70 -->
<g id="edge2" class="edge">
<title>Node69&#45;&gt;Node70</title>
<path fill="none" stroke="#191970" d="M264.3609,-86C274.0979,-86 284.138,-86 293.6429,-86"/>
<polygon fill="#191970" stroke="#191970" points="293.7071,-89.5001 303.707,-86 293.707,-82.5001 293.7071,-89.5001"/>
</g>
</g>
</svg>
