<?xml version="1.0" encoding="UTF-8" standalone="no"?>
<!DOCTYPE svg PUBLIC "-//W3C//DTD SVG 1.1//EN"
 "http://www.w3.org/Graphics/SVG/1.1/DTD/svg11.dtd">
<!-- Generated by graphviz version 2.40.1 (20161225.0304)
 -->
<!-- Title: L4Re::Mem_alloc Pages: 1 -->
<svg width="341pt" height="653pt"
 viewBox="0.00 0.00 340.50 653.00" xmlns="http://www.w3.org/2000/svg" xmlns:xlink="http://www.w3.org/1999/xlink">
<g id="graph0" class="graph" transform="scale(1 1) rotate(0) translate(4 649)">
<title>L4Re::Mem_alloc</title>
<polygon fill="#ffffff" stroke="transparent" points="-4,4 -4,-649 336.5,-649 336.5,4 -4,4"/>
<!-- Node0 -->
<g id="node1" class="node">
<title>Node0</title>
<polygon fill="#bfbfbf" stroke="#000000" points="132.5,-.5 132.5,-68.5 230.5,-68.5 230.5,-.5 132.5,-.5"/>
<text text-anchor="middle" x="181.5" y="-56.5" font-family="Helvetica,sans-Serif" font-size="10.00" fill="#000000">L4Re::Mem_alloc</text>
<polyline fill="none" stroke="#000000" points="132.5,-49.5 230.5,-49.5 "/>
<text text-anchor="middle" x="181.5" y="-37.5" font-family="Helvetica,sans-Serif" font-size="10.00" fill="#000000"> </text>
<polyline fill="none" stroke="#000000" points="132.5,-30.5 230.5,-30.5 "/>
<text text-anchor="start" x="140.5" y="-18.5" font-family="Helvetica,sans-Serif" font-size="10.00" fill="#000000">+ alloc()</text>
<text text-anchor="start" x="140.5" y="-7.5" font-family="Helvetica,sans-Serif" font-size="10.00" fill="#000000">+ free()</text>
</g>
<!-- Node1 -->
<g id="node2" class="node">
<title>Node1</title>
<g id="a_node2"><a xlink:href="classL4_1_1Kobject__t.html" target="_top" xlink:title="{L4::Kobject_t\&lt; Mem\l_alloc, L4::Factory,\l L4::PROTO_EMPTY \&gt;\n||# c()\l# __check_protocols__()\l}">
<polygon fill="#ffffff" stroke="#000000" points="114.5,-106.5 114.5,-196.5 248.5,-196.5 248.5,-106.5 114.5,-106.5"/>
<text text-anchor="start" x="122.5" y="-184.5" font-family="Helvetica,sans-Serif" font-size="10.00" fill="#000000">L4::Kobject_t&lt; Mem</text>
<text text-anchor="start" x="122.5" y="-173.5" font-family="Helvetica,sans-Serif" font-size="10.00" fill="#000000">_alloc, L4::Factory,</text>
<text text-anchor="middle" x="181.5" y="-162.5" font-family="Helvetica,sans-Serif" font-size="10.00" fill="#000000"> L4::PROTO_EMPTY &gt;</text>
<polyline fill="none" stroke="#000000" points="114.5,-155.5 248.5,-155.5 "/>
<text text-anchor="middle" x="181.5" y="-143.5" font-family="Helvetica,sans-Serif" font-size="10.00" fill="#000000"> </text>
<polyline fill="none" stroke="#000000" points="114.5,-136.5 248.5,-136.5 "/>
<text text-anchor="start" x="122.5" y="-124.5" font-family="Helvetica,sans-Serif" font-size="10.00" fill="#000000"># c()</text>
<text text-anchor="start" x="122.5" y="-113.5" font-family="Helvetica,sans-Serif" font-size="10.00" fill="#000000"># __check_protocols__()</text>
</a>
</g>
</g>
<!-- Node1&#45;&gt;Node0 -->
<g id="edge1" class="edge">
<title>Node1&#45;&gt;Node0</title>
<path fill="none" stroke="#191970" d="M181.5,-96.1895C181.5,-86.8229 181.5,-77.3469 181.5,-68.7259"/>
<polygon fill="none" stroke="#191970" points="178.0001,-96.2647 181.5,-106.2647 185.0001,-96.2648 178.0001,-96.2647"/>
</g>
<!-- Node2 -->
<g id="node3" class="node">
<title>Node2</title>
<g id="a_node3"><a xlink:href="classL4_1_1Factory.html" target="_top" xlink:title="C++ Factory interface. ">
<polygon fill="#ffffff" stroke="#000000" points="83.5,-234.5 83.5,-368.5 185.5,-368.5 185.5,-234.5 83.5,-234.5"/>
<text text-anchor="middle" x="134.5" y="-356.5" font-family="Helvetica,sans-Serif" font-size="10.00" fill="#000000">L4::Factory</text>
<polyline fill="none" stroke="#000000" points="83.5,-349.5 185.5,-349.5 "/>
<text text-anchor="middle" x="134.5" y="-337.5" font-family="Helvetica,sans-Serif" font-size="10.00" fill="#000000"> </text>
<polyline fill="none" stroke="#000000" points="83.5,-330.5 185.5,-330.5 "/>
<text text-anchor="start" x="91.5" y="-318.5" font-family="Helvetica,sans-Serif" font-size="10.00" fill="#000000">+ create()</text>
<text text-anchor="start" x="91.5" y="-307.5" font-family="Helvetica,sans-Serif" font-size="10.00" fill="#000000">+ create()</text>
<text text-anchor="start" x="91.5" y="-296.5" font-family="Helvetica,sans-Serif" font-size="10.00" fill="#000000">+ create_task()</text>
<text text-anchor="start" x="91.5" y="-285.5" font-family="Helvetica,sans-Serif" font-size="10.00" fill="#000000">+ create_thread()</text>
<text text-anchor="start" x="91.5" y="-274.5" font-family="Helvetica,sans-Serif" font-size="10.00" fill="#000000">+ create_factory()</text>
<text text-anchor="start" x="91.5" y="-263.5" font-family="Helvetica,sans-Serif" font-size="10.00" fill="#000000">+ create_gate()</text>
<text text-anchor="start" x="91.5" y="-252.5" font-family="Helvetica,sans-Serif" font-size="10.00" fill="#000000">+ create_irq()</text>
<text text-anchor="start" x="91.5" y="-241.5" font-family="Helvetica,sans-Serif" font-size="10.00" fill="#000000">+ create_vm()</text>
</a>
</g>
</g>
<!-- Node2&#45;&gt;Node1 -->
<g id="edge2" class="edge">
<title>Node2&#45;&gt;Node1</title>
<path fill="none" stroke="#191970" d="M158.5427,-224.7681C161.5632,-215.1281 164.5717,-205.5264 167.3686,-196.6003"/>
<polygon fill="none" stroke="#191970" points="155.1757,-223.8081 155.5256,-234.3971 161.8555,-225.9011 155.1757,-223.8081"/>
</g>
<!-- Node3 -->
<g id="node4" class="node">
<title>Node3</title>
<g id="a_node4"><a xlink:href="classL4_1_1Kobject__t.html" target="_top" xlink:title="{L4::Kobject_t\&lt; Factory,\l Kobject, L4_PROTO_FACTORY \&gt;\n||# c()\l# __check_protocols__()\l}">
<polygon fill="#ffffff" stroke="#000000" points="0,-427.5 0,-506.5 179,-506.5 179,-427.5 0,-427.5"/>
<text text-anchor="start" x="8" y="-494.5" font-family="Helvetica,sans-Serif" font-size="10.00" fill="#000000">L4::Kobject_t&lt; Factory,</text>
<text text-anchor="middle" x="89.5" y="-483.5" font-family="Helvetica,sans-Serif" font-size="10.00" fill="#000000"> Kobject, L4_PROTO_FACTORY &gt;</text>
<polyline fill="none" stroke="#000000" points="0,-476.5 179,-476.5 "/>
<text text-anchor="middle" x="89.5" y="-464.5" font-family="Helvetica,sans-Serif" font-size="10.00" fill="#000000"> </text>
<polyline fill="none" stroke="#000000" points="0,-457.5 179,-457.5 "/>
<text text-anchor="start" x="8" y="-445.5" font-family="Helvetica,sans-Serif" font-size="10.00" fill="#000000"># c()</text>
<text text-anchor="start" x="8" y="-434.5" font-family="Helvetica,sans-Serif" font-size="10.00" fill="#000000"># __check_protocols__()</text>
</a>
</g>
</g>
<!-- Node3&#45;&gt;Node2 -->
<g id="edge3" class="edge">
<title>Node3&#45;&gt;Node2</title>
<path fill="none" stroke="#191970" d="M102.945,-417.5523C107.1238,-402.1836 111.8027,-384.9756 116.2515,-368.6139"/>
<polygon fill="none" stroke="#191970" points="99.5251,-416.7906 100.2786,-427.3586 106.2798,-418.6273 99.5251,-416.7906"/>
</g>
<!-- Node4 -->
<g id="node5" class="node">
<title>Node4</title>
<g id="a_node5"><a xlink:href="classL4_1_1Kobject.html" target="_top" xlink:title="Base class for all kinds of kernel objects and remote objects, referenced by capabilities. ">
<polygon fill="#ffffff" stroke="#000000" points="14.5,-571 14.5,-639 98.5,-639 98.5,-571 14.5,-571"/>
<text text-anchor="middle" x="56.5" y="-627" font-family="Helvetica,sans-Serif" font-size="10.00" fill="#000000">L4::Kobject</text>
<polyline fill="none" stroke="#000000" points="14.5,-620 98.5,-620 "/>
<text text-anchor="middle" x="56.5" y="-608" font-family="Helvetica,sans-Serif" font-size="10.00" fill="#000000"> </text>
<polyline fill="none" stroke="#000000" points="14.5,-601 98.5,-601 "/>
<text text-anchor="start" x="22.5" y="-589" font-family="Helvetica,sans-Serif" font-size="10.00" fill="#000000">+ dec_refcnt()</text>
<text text-anchor="start" x="22.5" y="-578" font-family="Helvetica,sans-Serif" font-size="10.00" fill="#000000"># cap()</text>
</a>
</g>
</g>
<!-- Node4&#45;&gt;Node3 -->
<g id="edge4" class="edge">
<title>Node4&#45;&gt;Node3</title>
<path fill="none" stroke="#191970" d="M63.0558,-560.8756C65.1156,-549.1448 67.6178,-536.5322 70.5,-525 71.9901,-519.0377 73.7803,-512.7999 75.6581,-506.7175"/>
<polygon fill="none" stroke="#191970" points="59.5757,-560.4649 61.361,-570.9082 66.4779,-561.6309 59.5757,-560.4649"/>
</g>
<!-- Node5 -->
<g id="node6" class="node">
<title>Node5</title>
<g id="a_node6"><a xlink:href="classL4_1_1Kobject__t.html" target="_top" xlink:title="Helper class to create an L4Re interface class that is derived from a single base class...">
<polygon fill="#ffffff" stroke="#000000" points="132.5,-565.5 132.5,-644.5 290.5,-644.5 290.5,-565.5 132.5,-565.5"/>
<text text-anchor="start" x="140.5" y="-632.5" font-family="Helvetica,sans-Serif" font-size="10.00" fill="#000000">L4::Kobject_t&lt; Derived,</text>
<text text-anchor="middle" x="211.5" y="-621.5" font-family="Helvetica,sans-Serif" font-size="10.00" fill="#000000"> Base, PROTO, S_DEMAND &gt;</text>
<polyline fill="none" stroke="#000000" points="132.5,-614.5 290.5,-614.5 "/>
<text text-anchor="middle" x="211.5" y="-602.5" font-family="Helvetica,sans-Serif" font-size="10.00" fill="#000000"> </text>
<polyline fill="none" stroke="#000000" points="132.5,-595.5 290.5,-595.5 "/>
<text text-anchor="start" x="140.5" y="-583.5" font-family="Helvetica,sans-Serif" font-size="10.00" fill="#000000"># c()</text>
<text text-anchor="start" x="140.5" y="-572.5" font-family="Helvetica,sans-Serif" font-size="10.00" fill="#000000"># __check_protocols__()</text>
</a>
</g>
</g>
<!-- Node5&#45;&gt;Node1 -->
<g id="edge6" class="edge">
<title>Node5&#45;&gt;Node1</title>
<path fill="none" stroke="#ffa500" d="M214.4811,-554.9718C214.7611,-545.0411 214.8326,-534.6908 214.5,-525 210.0529,-395.4379 209.0479,-362.8196 194.5,-234 193.1332,-221.8972 191.2637,-208.8545 189.3686,-196.7916"/>
<polygon fill="#ffa500" stroke="#ffa500" points="210.9778,-555.006 214.122,-565.1235 217.9734,-555.2535 210.9778,-555.006"/>
<text text-anchor="start" x="209.5" y="-401" font-family="Helvetica,sans-Serif" font-size="10.00" fill="#000000"> &lt; Mem_alloc, L4::Factory,</text>
<text text-anchor="middle" x="271" y="-390" font-family="Helvetica,sans-Serif" font-size="10.00" fill="#000000"> L4::PROTO_EMPTY &gt;</text>
</g>
<!-- Node5&#45;&gt;Node3 -->
<g id="edge5" class="edge">
<title>Node5&#45;&gt;Node3</title>
<path fill="none" stroke="#ffa500" d="M123.015,-570.2604C107.7475,-562.5302 95.2415,-554.4274 90.5,-547 83.0261,-535.2922 81.2386,-520.5241 81.8354,-506.873"/>
<polygon fill="#ffa500" stroke="#ffa500" points="121.761,-573.5423 132.2855,-574.7609 124.8181,-567.2451 121.761,-573.5423"/>
<text text-anchor="start" x="90.5" y="-539" font-family="Helvetica,sans-Serif" font-size="10.00" fill="#000000"> &lt; Factory, Kobject,</text>
<text text-anchor="middle" x="152.5" y="-528" font-family="Helvetica,sans-Serif" font-size="10.00" fill="#000000"> L4_PROTO_FACTORY &gt;</text>
</g>
</g>
</svg>
