<?xml version="1.0" encoding="UTF-8" standalone="no"?>
<!DOCTYPE svg PUBLIC "-//W3C//DTD SVG 1.1//EN"
 "http://www.w3.org/Graphics/SVG/1.1/DTD/svg11.dtd">
<!-- Generated by graphviz version 2.40.1 (20161225.0304)
 -->
<!-- Title: L4::Rcv_endpoint Pages: 1 -->
<svg width="304pt" height="354pt"
 viewBox="0.00 0.00 304.00 354.00" xmlns="http://www.w3.org/2000/svg" xmlns:xlink="http://www.w3.org/1999/xlink">
<g id="graph0" class="graph" transform="scale(1 1) rotate(0) translate(4 350)">
<title>L4::Rcv_endpoint</title>
<polygon fill="#ffffff" stroke="transparent" points="-4,4 -4,-350 300,-350 300,4 -4,4"/>
<!-- Node8 -->
<g id="node1" class="node">
<title>Node8</title>
<polygon fill="#bfbfbf" stroke="#000000" points="62,-.5 62,-57.5 160,-57.5 160,-.5 62,-.5"/>
<text text-anchor="middle" x="111" y="-45.5" font-family="Helvetica,sans-Serif" font-size="10.00" fill="#000000">L4::Rcv_endpoint</text>
<polyline fill="none" stroke="#000000" points="62,-38.5 160,-38.5 "/>
<text text-anchor="middle" x="111" y="-26.5" font-family="Helvetica,sans-Serif" font-size="10.00" fill="#000000"> </text>
<polyline fill="none" stroke="#000000" points="62,-19.5 160,-19.5 "/>
<text text-anchor="start" x="70" y="-7.5" font-family="Helvetica,sans-Serif" font-size="10.00" fill="#000000">+ bind_thread()</text>
</g>
<!-- Node9 -->
<g id="node2" class="node">
<title>Node9</title>
<g id="a_node2"><a xlink:href="classL4_1_1Kobject__t.html" target="_top" xlink:title="{L4::Kobject_t\&lt; Rcv\l_endpoint, Kobject,\l L4_PROTO_KOBJECT, Type\l_info::Demand_t\&lt; 1 \&gt; \&gt;\n||# c()\l# __check_protocols__()\l}">
<polygon fill="#ffffff" stroke="#000000" points="32,-95.5 32,-196.5 190,-196.5 190,-95.5 32,-95.5"/>
<text text-anchor="start" x="40" y="-184.5" font-family="Helvetica,sans-Serif" font-size="10.00" fill="#000000">L4::Kobject_t&lt; Rcv</text>
<text text-anchor="start" x="40" y="-173.5" font-family="Helvetica,sans-Serif" font-size="10.00" fill="#000000">_endpoint, Kobject,</text>
<text text-anchor="start" x="40" y="-162.5" font-family="Helvetica,sans-Serif" font-size="10.00" fill="#000000"> L4_PROTO_KOBJECT, Type</text>
<text text-anchor="middle" x="111" y="-151.5" font-family="Helvetica,sans-Serif" font-size="10.00" fill="#000000">_info::Demand_t&lt; 1 &gt; &gt;</text>
<polyline fill="none" stroke="#000000" points="32,-144.5 190,-144.5 "/>
<text text-anchor="middle" x="111" y="-132.5" font-family="Helvetica,sans-Serif" font-size="10.00" fill="#000000"> </text>
<polyline fill="none" stroke="#000000" points="32,-125.5 190,-125.5 "/>
<text text-anchor="start" x="40" y="-113.5" font-family="Helvetica,sans-Serif" font-size="10.00" fill="#000000"># c()</text>
<text text-anchor="start" x="40" y="-102.5" font-family="Helvetica,sans-Serif" font-size="10.00" fill="#000000"># __check_protocols__()</text>
</a>
</g>
</g>
<!-- Node9&#45;&gt;Node8 -->
<g id="edge1" class="edge">
<title>Node9&#45;&gt;Node8</title>
<path fill="none" stroke="#191970" d="M111,-85.0646C111,-75.5614 111,-66.1441 111,-57.8181"/>
<polygon fill="none" stroke="#191970" points="107.5001,-85.3625 111,-95.3626 114.5001,-85.3626 107.5001,-85.3625"/>
</g>
<!-- Node10 -->
<g id="node3" class="node">
<title>Node10</title>
<g id="a_node3"><a xlink:href="classL4_1_1Kobject.html" target="_top" xlink:title="Base class for all kinds of kernel objects and remote objects, referenced by capabilities. ">
<polygon fill="#ffffff" stroke="#000000" points="0,-272 0,-340 84,-340 84,-272 0,-272"/>
<text text-anchor="middle" x="42" y="-328" font-family="Helvetica,sans-Serif" font-size="10.00" fill="#000000">L4::Kobject</text>
<polyline fill="none" stroke="#000000" points="0,-321 84,-321 "/>
<text text-anchor="middle" x="42" y="-309" font-family="Helvetica,sans-Serif" font-size="10.00" fill="#000000"> </text>
<polyline fill="none" stroke="#000000" points="0,-302 84,-302 "/>
<text text-anchor="start" x="8" y="-290" font-family="Helvetica,sans-Serif" font-size="10.00" fill="#000000">+ dec_refcnt()</text>
<text text-anchor="start" x="8" y="-279" font-family="Helvetica,sans-Serif" font-size="10.00" fill="#000000"># cap()</text>
</a>
</g>
</g>
<!-- Node10&#45;&gt;Node9 -->
<g id="edge2" class="edge">
<title>Node10&#45;&gt;Node9</title>
<path fill="none" stroke="#191970" d="M60.8209,-262.3573C69.5759,-242.0558 80.042,-217.7866 89.145,-196.6782"/>
<polygon fill="none" stroke="#191970" points="57.5484,-261.1074 56.8022,-271.676 63.9761,-263.8795 57.5484,-261.1074"/>
</g>
<!-- Node11 -->
<g id="node4" class="node">
<title>Node11</title>
<g id="a_node4"><a xlink:href="classL4_1_1Kobject__t.html" target="_top" xlink:title="Helper class to create an L4Re interface class that is derived from a single base class...">
<polygon fill="#ffffff" stroke="#000000" points="102,-266.5 102,-345.5 260,-345.5 260,-266.5 102,-266.5"/>
<text text-anchor="start" x="110" y="-333.5" font-family="Helvetica,sans-Serif" font-size="10.00" fill="#000000">L4::Kobject_t&lt; Derived,</text>
<text text-anchor="middle" x="181" y="-322.5" font-family="Helvetica,sans-Serif" font-size="10.00" fill="#000000"> Base, PROTO, S_DEMAND &gt;</text>
<polyline fill="none" stroke="#000000" points="102,-315.5 260,-315.5 "/>
<text text-anchor="middle" x="181" y="-303.5" font-family="Helvetica,sans-Serif" font-size="10.00" fill="#000000"> </text>
<polyline fill="none" stroke="#000000" points="102,-296.5 260,-296.5 "/>
<text text-anchor="start" x="110" y="-284.5" font-family="Helvetica,sans-Serif" font-size="10.00" fill="#000000"># c()</text>
<text text-anchor="start" x="110" y="-273.5" font-family="Helvetica,sans-Serif" font-size="10.00" fill="#000000"># __check_protocols__()</text>
</a>
</g>
</g>
<!-- Node11&#45;&gt;Node9 -->
<g id="edge3" class="edge">
<title>Node11&#45;&gt;Node9</title>
<path fill="none" stroke="#ffa500" d="M159.6807,-257.2703C151.2741,-238.0551 141.6178,-215.9836 133.1334,-196.5907"/>
<polygon fill="#ffa500" stroke="#ffa500" points="156.4818,-258.6907 163.6966,-266.4494 162.8949,-255.885 156.4818,-258.6907"/>
<text text-anchor="start" x="154" y="-240" font-family="Helvetica,sans-Serif" font-size="10.00" fill="#000000"> &lt; Rcv_endpoint, Kobject,</text>
<text text-anchor="start" x="154" y="-229" font-family="Helvetica,sans-Serif" font-size="10.00" fill="#000000"> L4_PROTO_KOBJECT, Type</text>
<text text-anchor="middle" x="225" y="-218" font-family="Helvetica,sans-Serif" font-size="10.00" fill="#000000">_info::Demand_t&lt; 1 &gt; &gt;</text>
</g>
</g>
</svg>
