<?xml version="1.0" encoding="UTF-8" standalone="no"?>
<!DOCTYPE svg PUBLIC "-//W3C//DTD SVG 1.1//EN"
 "http://www.w3.org/Graphics/SVG/1.1/DTD/svg11.dtd">
<!-- Generated by graphviz version 2.40.1 (20161225.0304)
 -->
<!-- Title: L4Re::Console Pages: 1 -->
<svg width="225pt" height="409pt"
 viewBox="0.00 0.00 224.50 409.00" xmlns="http://www.w3.org/2000/svg" xmlns:xlink="http://www.w3.org/1999/xlink">
<g id="graph0" class="graph" transform="scale(1 1) rotate(0) translate(4 405)">
<title>L4Re::Console</title>
<polygon fill="#ffffff" stroke="transparent" points="-4,4 -4,-405 220.5,-405 220.5,4 -4,4"/>
<!-- Node3 -->
<g id="node1" class="node">
<title>Node3</title>
<polygon fill="#bfbfbf" stroke="#000000" points="32.5,-.5 32.5,-57.5 118.5,-57.5 118.5,-.5 32.5,-.5"/>
<text text-anchor="middle" x="75.5" y="-45.5" font-family="Helvetica,sans-Serif" font-size="10.00" fill="#000000">L4Re::Console</text>
<polyline fill="none" stroke="#000000" points="32.5,-38.5 118.5,-38.5 "/>
<text text-anchor="middle" x="75.5" y="-26.5" font-family="Helvetica,sans-Serif" font-size="10.00" fill="#000000"> </text>
<polyline fill="none" stroke="#000000" points="32.5,-19.5 118.5,-19.5 "/>
<text text-anchor="middle" x="75.5" y="-7.5" font-family="Helvetica,sans-Serif" font-size="10.00" fill="#000000"> </text>
</g>
<!-- Node4 -->
<g id="node2" class="node">
<title>Node4</title>
<g id="a_node2"><a xlink:href="classL4_1_1Kobject__2t.html" target="_top" xlink:title="{L4::Kobject_2t\&lt; Console,\l Video::Goos, Event, L4\l::PROTO_EMPTY \&gt;\n||+ operator Kobject const &amp;()\l+ dec_refcnt()\l# cap()\l# c()\l# __check_protocols__()\l}">
<polygon fill="#ffffff" stroke="#000000" points="0,-95.5 0,-218.5 151,-218.5 151,-95.5 0,-95.5"/>
<text text-anchor="start" x="8" y="-206.5" font-family="Helvetica,sans-Serif" font-size="10.00" fill="#000000">L4::Kobject_2t&lt; Console,</text>
<text text-anchor="start" x="8" y="-195.5" font-family="Helvetica,sans-Serif" font-size="10.00" fill="#000000"> Video::Goos, Event, L4</text>
<text text-anchor="middle" x="75.5" y="-184.5" font-family="Helvetica,sans-Serif" font-size="10.00" fill="#000000">::PROTO_EMPTY &gt;</text>
<polyline fill="none" stroke="#000000" points="0,-177.5 151,-177.5 "/>
<text text-anchor="middle" x="75.5" y="-165.5" font-family="Helvetica,sans-Serif" font-size="10.00" fill="#000000"> </text>
<polyline fill="none" stroke="#000000" points="0,-158.5 151,-158.5 "/>
<text text-anchor="start" x="8" y="-146.5" font-family="Helvetica,sans-Serif" font-size="10.00" fill="#000000">+ operator Kobject const &amp;()</text>
<text text-anchor="start" x="8" y="-135.5" font-family="Helvetica,sans-Serif" font-size="10.00" fill="#000000">+ dec_refcnt()</text>
<text text-anchor="start" x="8" y="-124.5" font-family="Helvetica,sans-Serif" font-size="10.00" fill="#000000"># cap()</text>
<text text-anchor="start" x="8" y="-113.5" font-family="Helvetica,sans-Serif" font-size="10.00" fill="#000000"># c()</text>
<text text-anchor="start" x="8" y="-102.5" font-family="Helvetica,sans-Serif" font-size="10.00" fill="#000000"># __check_protocols__()</text>
</a>
</g>
</g>
<!-- Node4&#45;&gt;Node3 -->
<g id="edge1" class="edge">
<title>Node4&#45;&gt;Node3</title>
<path fill="none" stroke="#191970" d="M75.5,-85.0767C75.5,-75.364 75.5,-65.8986 75.5,-57.5937"/>
<polygon fill="none" stroke="#191970" points="72.0001,-85.2496 75.5,-95.2496 79.0001,-85.2496 72.0001,-85.2496"/>
</g>
<!-- Node5 -->
<g id="node3" class="node">
<title>Node5</title>
<g id="a_node3"><a xlink:href="classL4_1_1Kobject__2t.html" target="_top" xlink:title="Helper class to create an L4Re interface class that is derived from two base classes (see L4::Kobject...">
<polygon fill="#ffffff" stroke="#000000" points="0,-277.5 0,-400.5 151,-400.5 151,-277.5 0,-277.5"/>
<text text-anchor="start" x="8" y="-388.5" font-family="Helvetica,sans-Serif" font-size="10.00" fill="#000000">L4::Kobject_2t&lt; Derived,</text>
<text text-anchor="start" x="8" y="-377.5" font-family="Helvetica,sans-Serif" font-size="10.00" fill="#000000"> Base1, Base2, PROTO,</text>
<text text-anchor="middle" x="75.5" y="-366.5" font-family="Helvetica,sans-Serif" font-size="10.00" fill="#000000"> S_DEMAND &gt;</text>
<polyline fill="none" stroke="#000000" points="0,-359.5 151,-359.5 "/>
<text text-anchor="middle" x="75.5" y="-347.5" font-family="Helvetica,sans-Serif" font-size="10.00" fill="#000000"> </text>
<polyline fill="none" stroke="#000000" points="0,-340.5 151,-340.5 "/>
<text text-anchor="start" x="8" y="-328.5" font-family="Helvetica,sans-Serif" font-size="10.00" fill="#000000">+ operator Kobject const &amp;()</text>
<text text-anchor="start" x="8" y="-317.5" font-family="Helvetica,sans-Serif" font-size="10.00" fill="#000000">+ dec_refcnt()</text>
<text text-anchor="start" x="8" y="-306.5" font-family="Helvetica,sans-Serif" font-size="10.00" fill="#000000"># cap()</text>
<text text-anchor="start" x="8" y="-295.5" font-family="Helvetica,sans-Serif" font-size="10.00" fill="#000000"># c()</text>
<text text-anchor="start" x="8" y="-284.5" font-family="Helvetica,sans-Serif" font-size="10.00" fill="#000000"># __check_protocols__()</text>
</a>
</g>
</g>
<!-- Node5&#45;&gt;Node4 -->
<g id="edge2" class="edge">
<title>Node5&#45;&gt;Node4</title>
<path fill="none" stroke="#ffa500" d="M75.5,-266.9917C75.5,-250.9648 75.5,-234.1153 75.5,-218.5534"/>
<polygon fill="#ffa500" stroke="#ffa500" points="72.0001,-267.3831 75.5,-277.3831 79.0001,-267.3831 72.0001,-267.3831"/>
<text text-anchor="start" x="75.5" y="-251" font-family="Helvetica,sans-Serif" font-size="10.00" fill="#000000"> &lt; Console, Video::Goos,</text>
<text text-anchor="middle" x="146" y="-240" font-family="Helvetica,sans-Serif" font-size="10.00" fill="#000000"> Event, L4::PROTO_EMPTY &gt;</text>
</g>
</g>
</svg>
