<?xml version="1.0" encoding="UTF-8" standalone="no"?>
<!DOCTYPE svg PUBLIC "-//W3C//DTD SVG 1.1//EN"
 "http://www.w3.org/Graphics/SVG/1.1/DTD/svg11.dtd">
<!-- Generated by graphviz version 2.40.1 (20161225.0304)
 -->
<!-- Title: L4::Iommu Pages: 1 -->
<svg width="215pt" height="332pt"
 viewBox="0.00 0.00 215.00 332.00" xmlns="http://www.w3.org/2000/svg" xmlns:xlink="http://www.w3.org/1999/xlink">
<g id="graph0" class="graph" transform="scale(1 1) rotate(0) translate(4 328)">
<title>L4::Iommu</title>
<polygon fill="#ffffff" stroke="transparent" points="-4,4 -4,-328 211,-328 211,4 -4,4"/>
<!-- Node0 -->
<g id="node1" class="node">
<title>Node0</title>
<polygon fill="#bfbfbf" stroke="#000000" points="49.5,-.5 49.5,-68.5 114.5,-68.5 114.5,-.5 49.5,-.5"/>
<text text-anchor="middle" x="82" y="-56.5" font-family="Helvetica,sans-Serif" font-size="10.00" fill="#000000">L4::Iommu</text>
<polyline fill="none" stroke="#000000" points="49.5,-49.5 114.5,-49.5 "/>
<text text-anchor="middle" x="82" y="-37.5" font-family="Helvetica,sans-Serif" font-size="10.00" fill="#000000"> </text>
<polyline fill="none" stroke="#000000" points="49.5,-30.5 114.5,-30.5 "/>
<text text-anchor="start" x="57.5" y="-18.5" font-family="Helvetica,sans-Serif" font-size="10.00" fill="#000000">+ bind()</text>
<text text-anchor="start" x="57.5" y="-7.5" font-family="Helvetica,sans-Serif" font-size="10.00" fill="#000000">+ unbind()</text>
</g>
<!-- Node1 -->
<g id="node2" class="node">
<title>Node1</title>
<g id="a_node2"><a xlink:href="structL4_1_1Kobject__x.html" target="_top" xlink:title="{L4::Kobject_x\&lt; Iommu,\l Proto_t\&lt; L4_PROTO_IOMMU\l \&gt;, Type_info::Demand_t\&lt; 1 \&gt; \&gt;\n||}">
<polygon fill="#ffffff" stroke="#000000" points="0,-106.5 0,-185.5 164,-185.5 164,-106.5 0,-106.5"/>
<text text-anchor="start" x="8" y="-173.5" font-family="Helvetica,sans-Serif" font-size="10.00" fill="#000000">L4::Kobject_x&lt; Iommu,</text>
<text text-anchor="start" x="8" y="-162.5" font-family="Helvetica,sans-Serif" font-size="10.00" fill="#000000"> Proto_t&lt; L4_PROTO_IOMMU</text>
<text text-anchor="middle" x="82" y="-151.5" font-family="Helvetica,sans-Serif" font-size="10.00" fill="#000000"> &gt;, Type_info::Demand_t&lt; 1 &gt; &gt;</text>
<polyline fill="none" stroke="#000000" points="0,-144.5 164,-144.5 "/>
<text text-anchor="middle" x="82" y="-132.5" font-family="Helvetica,sans-Serif" font-size="10.00" fill="#000000"> </text>
<polyline fill="none" stroke="#000000" points="0,-125.5 164,-125.5 "/>
<text text-anchor="middle" x="82" y="-113.5" font-family="Helvetica,sans-Serif" font-size="10.00" fill="#000000"> </text>
</a>
</g>
</g>
<!-- Node1&#45;&gt;Node0 -->
<g id="edge1" class="edge">
<title>Node1&#45;&gt;Node0</title>
<path fill="none" stroke="#191970" d="M82,-96.1102C82,-86.8885 82,-77.4506 82,-68.8207"/>
<polygon fill="none" stroke="#191970" points="78.5001,-96.3753 82,-106.3753 85.5001,-96.3754 78.5001,-96.3753"/>
</g>
<!-- Node2 -->
<g id="node3" class="node">
<title>Node2</title>
<g id="a_node3"><a xlink:href="structL4_1_1Kobject__x.html" target="_top" xlink:title="Generic Kobject inheritance template. ">
<polygon fill="#ffffff" stroke="#000000" points="18.5,-255.5 18.5,-323.5 145.5,-323.5 145.5,-255.5 18.5,-255.5"/>
<text text-anchor="start" x="26.5" y="-311.5" font-family="Helvetica,sans-Serif" font-size="10.00" fill="#000000">L4::Kobject_x&lt; Derived,</text>
<text text-anchor="middle" x="82" y="-300.5" font-family="Helvetica,sans-Serif" font-size="10.00" fill="#000000"> ARGS &gt;</text>
<polyline fill="none" stroke="#000000" points="18.5,-293.5 145.5,-293.5 "/>
<text text-anchor="middle" x="82" y="-281.5" font-family="Helvetica,sans-Serif" font-size="10.00" fill="#000000"> </text>
<polyline fill="none" stroke="#000000" points="18.5,-274.5 145.5,-274.5 "/>
<text text-anchor="middle" x="82" y="-262.5" font-family="Helvetica,sans-Serif" font-size="10.00" fill="#000000"> </text>
</a>
</g>
</g>
<!-- Node2&#45;&gt;Node1 -->
<g id="edge2" class="edge">
<title>Node2&#45;&gt;Node1</title>
<path fill="none" stroke="#ffa500" d="M82,-245.2652C82,-226.2154 82,-204.1159 82,-185.6112"/>
<polygon fill="#ffa500" stroke="#ffa500" points="78.5001,-245.4925 82,-255.4925 85.5001,-245.4925 78.5001,-245.4925"/>
<text text-anchor="start" x="82" y="-229" font-family="Helvetica,sans-Serif" font-size="10.00" fill="#000000"> &lt; Iommu, Proto_t&lt; L4</text>
<text text-anchor="start" x="82" y="-218" font-family="Helvetica,sans-Serif" font-size="10.00" fill="#000000">_PROTO_IOMMU &gt;, Type</text>
<text text-anchor="middle" x="144.5" y="-207" font-family="Helvetica,sans-Serif" font-size="10.00" fill="#000000">_info::Demand_t&lt; 1 &gt; &gt;</text>
</g>
</g>
</svg>
