<?xml version="1.0" encoding="UTF-8" standalone="no"?>
<!DOCTYPE svg PUBLIC "-//W3C//DTD SVG 1.1//EN"
 "http://www.w3.org/Graphics/SVG/1.1/DTD/svg11.dtd">
<!-- Generated by graphviz version 2.40.1 (20161225.0304)
 -->
<!-- Title: L4Re::Video::Pixel_info::has_alpha Pages: 1 -->
<svg width="249pt" height="39pt"
 viewBox="0.00 0.00 249.00 39.00" xmlns="http://www.w3.org/2000/svg" xmlns:xlink="http://www.w3.org/1999/xlink">
<g id="graph0" class="graph" transform="scale(1 1) rotate(0) translate(4 35)">
<title>L4Re::Video::Pixel_info::has_alpha</title>
<polygon fill="#ffffff" stroke="transparent" points="-4,4 -4,-35 245,-35 245,4 -4,4"/>
<!-- Node26 -->
<g id="node1" class="node">
<title>Node26</title>
<polygon fill="#bfbfbf" stroke="#000000" points="0,-.5 0,-30.5 101,-30.5 101,-.5 0,-.5"/>
<text text-anchor="start" x="8" y="-18.5" font-family="Helvetica,sans-Serif" font-size="10.00" fill="#000000">L4Re::Video::Pixel</text>
<text text-anchor="middle" x="50.5" y="-7.5" font-family="Helvetica,sans-Serif" font-size="10.00" fill="#000000">_info::has_alpha</text>
</g>
<!-- Node27 -->
<g id="node2" class="node">
<title>Node27</title>
<g id="a_node2"><a xlink:href="classL4Re_1_1Video_1_1Color__component.html#a68a69675b5ce76aba3ebdec992b297b5" target="_top" xlink:title="Return the number of bits used by the component. ">
<polygon fill="#ffffff" stroke="#000000" points="137,-.5 137,-30.5 241,-30.5 241,-.5 137,-.5"/>
<text text-anchor="start" x="145" y="-18.5" font-family="Helvetica,sans-Serif" font-size="10.00" fill="#000000">L4Re::Video::Color</text>
<text text-anchor="middle" x="189" y="-7.5" font-family="Helvetica,sans-Serif" font-size="10.00" fill="#000000">_component::size</text>
</a>
</g>
</g>
<!-- Node26&#45;&gt;Node27 -->
<g id="edge1" class="edge">
<title>Node26&#45;&gt;Node27</title>
<path fill="none" stroke="#191970" d="M101.2858,-15.5C109.5188,-15.5 118.1274,-15.5 126.5979,-15.5"/>
<polygon fill="#191970" stroke="#191970" points="126.8272,-19.0001 136.8272,-15.5 126.8272,-12.0001 126.8272,-19.0001"/>
</g>
</g>
</svg>
