<?xml version="1.0" encoding="UTF-8" standalone="no"?>
<!DOCTYPE svg PUBLIC "-//W3C//DTD SVG 1.1//EN"
 "http://www.w3.org/Graphics/SVG/1.1/DTD/svg11.dtd">
<!-- Generated by graphviz version 2.40.1 (20161225.0304)
 -->
<!-- Title: L4::Irq Pages: 1 -->
<svg width="463pt" height="752pt"
 viewBox="0.00 0.00 463.00 752.00" xmlns="http://www.w3.org/2000/svg" xmlns:xlink="http://www.w3.org/1999/xlink">
<g id="graph0" class="graph" transform="scale(1 1) rotate(0) translate(4 748)">
<title>L4::Irq</title>
<polygon fill="#ffffff" stroke="transparent" points="-4,4 -4,-748 459,-748 459,4 -4,4"/>
<!-- Node10 -->
<g id="node1" class="node">
<title>Node10</title>
<polygon fill="#bfbfbf" stroke="#000000" points="201.5,-.5 201.5,-101.5 271.5,-101.5 271.5,-.5 201.5,-.5"/>
<text text-anchor="middle" x="236.5" y="-89.5" font-family="Helvetica,sans-Serif" font-size="10.00" fill="#000000">L4::Irq</text>
<polyline fill="none" stroke="#000000" points="201.5,-82.5 271.5,-82.5 "/>
<text text-anchor="middle" x="236.5" y="-70.5" font-family="Helvetica,sans-Serif" font-size="10.00" fill="#000000"> </text>
<polyline fill="none" stroke="#000000" points="201.5,-63.5 271.5,-63.5 "/>
<text text-anchor="start" x="209.5" y="-51.5" font-family="Helvetica,sans-Serif" font-size="10.00" fill="#000000">+ attach()</text>
<text text-anchor="start" x="209.5" y="-40.5" font-family="Helvetica,sans-Serif" font-size="10.00" fill="#000000">+ detach()</text>
<text text-anchor="start" x="209.5" y="-29.5" font-family="Helvetica,sans-Serif" font-size="10.00" fill="#000000">+ receive()</text>
<text text-anchor="start" x="209.5" y="-18.5" font-family="Helvetica,sans-Serif" font-size="10.00" fill="#000000">+ wait()</text>
<text text-anchor="start" x="209.5" y="-7.5" font-family="Helvetica,sans-Serif" font-size="10.00" fill="#000000">+ unmask()</text>
</g>
<!-- Node11 -->
<g id="node2" class="node">
<title>Node11</title>
<g id="a_node2"><a xlink:href="classL4_1_1Kobject__2t.html" target="_top" xlink:title="{L4::Kobject_2t\&lt; Irq,\l Triggerable, Rcv_endpoint,\l L4_PROTO_IRQ_SENDER \&gt;\n||+ operator Kobject const &amp;()\l+ dec_refcnt()\l# cap()\l# c()\l# __check_protocols__()\l}">
<polygon fill="#ffffff" stroke="#000000" points="157.5,-139.5 157.5,-262.5 315.5,-262.5 315.5,-139.5 157.5,-139.5"/>
<text text-anchor="start" x="165.5" y="-250.5" font-family="Helvetica,sans-Serif" font-size="10.00" fill="#000000">L4::Kobject_2t&lt; Irq,</text>
<text text-anchor="start" x="165.5" y="-239.5" font-family="Helvetica,sans-Serif" font-size="10.00" fill="#000000"> Triggerable, Rcv_endpoint,</text>
<text text-anchor="middle" x="236.5" y="-228.5" font-family="Helvetica,sans-Serif" font-size="10.00" fill="#000000"> L4_PROTO_IRQ_SENDER &gt;</text>
<polyline fill="none" stroke="#000000" points="157.5,-221.5 315.5,-221.5 "/>
<text text-anchor="middle" x="236.5" y="-209.5" font-family="Helvetica,sans-Serif" font-size="10.00" fill="#000000"> </text>
<polyline fill="none" stroke="#000000" points="157.5,-202.5 315.5,-202.5 "/>
<text text-anchor="start" x="165.5" y="-190.5" font-family="Helvetica,sans-Serif" font-size="10.00" fill="#000000">+ operator Kobject const &amp;()</text>
<text text-anchor="start" x="165.5" y="-179.5" font-family="Helvetica,sans-Serif" font-size="10.00" fill="#000000">+ dec_refcnt()</text>
<text text-anchor="start" x="165.5" y="-168.5" font-family="Helvetica,sans-Serif" font-size="10.00" fill="#000000"># cap()</text>
<text text-anchor="start" x="165.5" y="-157.5" font-family="Helvetica,sans-Serif" font-size="10.00" fill="#000000"># c()</text>
<text text-anchor="start" x="165.5" y="-146.5" font-family="Helvetica,sans-Serif" font-size="10.00" fill="#000000"># __check_protocols__()</text>
</a>
</g>
</g>
<!-- Node11&#45;&gt;Node10 -->
<g id="edge1" class="edge">
<title>Node11&#45;&gt;Node10</title>
<path fill="none" stroke="#191970" d="M236.5,-128.8462C236.5,-119.6965 236.5,-110.4904 236.5,-101.7734"/>
<polygon fill="none" stroke="#191970" points="233.0001,-129.1232 236.5,-139.1232 240.0001,-129.1233 233.0001,-129.1232"/>
</g>
<!-- Node12 -->
<g id="node3" class="node">
<title>Node12</title>
<g id="a_node3"><a xlink:href="structL4_1_1Triggerable.html" target="_top" xlink:title="Interface that allows an object to be triggered by some source. ">
<polygon fill="#ffffff" stroke="#000000" points="75,-365.5 75,-422.5 162,-422.5 162,-365.5 75,-365.5"/>
<text text-anchor="middle" x="118.5" y="-410.5" font-family="Helvetica,sans-Serif" font-size="10.00" fill="#000000">L4::Triggerable</text>
<polyline fill="none" stroke="#000000" points="75,-403.5 162,-403.5 "/>
<text text-anchor="middle" x="118.5" y="-391.5" font-family="Helvetica,sans-Serif" font-size="10.00" fill="#000000"> </text>
<polyline fill="none" stroke="#000000" points="75,-384.5 162,-384.5 "/>
<text text-anchor="start" x="83" y="-372.5" font-family="Helvetica,sans-Serif" font-size="10.00" fill="#000000">+ trigger()</text>
</a>
</g>
</g>
<!-- Node12&#45;&gt;Node11 -->
<g id="edge2" class="edge">
<title>Node12&#45;&gt;Node11</title>
<path fill="none" stroke="#191970" d="M141.4342,-356.489C157.6775,-329.9216 179.838,-293.676 198.6772,-262.8628"/>
<polygon fill="none" stroke="#191970" points="138.396,-354.7485 136.1658,-365.1059 144.3682,-358.3999 138.396,-354.7485"/>
</g>
<!-- Node13 -->
<g id="node4" class="node">
<title>Node13</title>
<g id="a_node4"><a xlink:href="classL4_1_1Kobject__t.html" target="_top" xlink:title="{L4::Kobject_t\&lt; Triggerable,\l Irq_eoi, L4_PROTO_IRQ \&gt;\n||# c()\l# __check_protocols__()\l}">
<polygon fill="#ffffff" stroke="#000000" points="0,-504.5 0,-583.5 147,-583.5 147,-504.5 0,-504.5"/>
<text text-anchor="start" x="8" y="-571.5" font-family="Helvetica,sans-Serif" font-size="10.00" fill="#000000">L4::Kobject_t&lt; Triggerable,</text>
<text text-anchor="middle" x="73.5" y="-560.5" font-family="Helvetica,sans-Serif" font-size="10.00" fill="#000000"> Irq_eoi, L4_PROTO_IRQ &gt;</text>
<polyline fill="none" stroke="#000000" points="0,-553.5 147,-553.5 "/>
<text text-anchor="middle" x="73.5" y="-541.5" font-family="Helvetica,sans-Serif" font-size="10.00" fill="#000000"> </text>
<polyline fill="none" stroke="#000000" points="0,-534.5 147,-534.5 "/>
<text text-anchor="start" x="8" y="-522.5" font-family="Helvetica,sans-Serif" font-size="10.00" fill="#000000"># c()</text>
<text text-anchor="start" x="8" y="-511.5" font-family="Helvetica,sans-Serif" font-size="10.00" fill="#000000"># __check_protocols__()</text>
</a>
</g>
</g>
<!-- Node13&#45;&gt;Node12 -->
<g id="edge3" class="edge">
<title>Node13&#45;&gt;Node12</title>
<path fill="none" stroke="#191970" d="M88.326,-494.58C95.49,-470.7002 103.8331,-442.8898 109.9283,-422.5725"/>
<polygon fill="none" stroke="#191970" points="84.9622,-493.6126 85.441,-504.1966 91.667,-495.624 84.9622,-493.6126"/>
</g>
<!-- Node14 -->
<g id="node5" class="node">
<title>Node14</title>
<g id="a_node5"><a xlink:href="classL4_1_1Irq__eoi.html" target="_top" xlink:title="Interface for sending an acknowledge message to an object. ">
<polygon fill="#ffffff" stroke="#000000" points="22.5,-675.5 22.5,-732.5 92.5,-732.5 92.5,-675.5 22.5,-675.5"/>
<text text-anchor="middle" x="57.5" y="-720.5" font-family="Helvetica,sans-Serif" font-size="10.00" fill="#000000">L4::Irq_eoi</text>
<polyline fill="none" stroke="#000000" points="22.5,-713.5 92.5,-713.5 "/>
<text text-anchor="middle" x="57.5" y="-701.5" font-family="Helvetica,sans-Serif" font-size="10.00" fill="#000000"> </text>
<polyline fill="none" stroke="#000000" points="22.5,-694.5 92.5,-694.5 "/>
<text text-anchor="start" x="30.5" y="-682.5" font-family="Helvetica,sans-Serif" font-size="10.00" fill="#000000">+ unmask()</text>
</a>
</g>
</g>
<!-- Node14&#45;&gt;Node13 -->
<g id="edge4" class="edge">
<title>Node14&#45;&gt;Node13</title>
<path fill="none" stroke="#191970" d="M61.3704,-665.2964C63.8398,-640.6021 67.0325,-608.6751 69.5225,-583.7754"/>
<polygon fill="none" stroke="#191970" points="57.873,-665.0965 60.3605,-675.3952 64.8382,-665.7931 57.873,-665.0965"/>
</g>
<!-- Node15 -->
<g id="node6" class="node">
<title>Node15</title>
<g id="a_node6"><a xlink:href="classL4_1_1Kobject__t.html" target="_top" xlink:title="Helper class to create an L4Re interface class that is derived from a single base class...">
<polygon fill="#ffffff" stroke="#000000" points="130.5,-664.5 130.5,-743.5 288.5,-743.5 288.5,-664.5 130.5,-664.5"/>
<text text-anchor="start" x="138.5" y="-731.5" font-family="Helvetica,sans-Serif" font-size="10.00" fill="#000000">L4::Kobject_t&lt; Derived,</text>
<text text-anchor="middle" x="209.5" y="-720.5" font-family="Helvetica,sans-Serif" font-size="10.00" fill="#000000"> Base, PROTO, S_DEMAND &gt;</text>
<polyline fill="none" stroke="#000000" points="130.5,-713.5 288.5,-713.5 "/>
<text text-anchor="middle" x="209.5" y="-701.5" font-family="Helvetica,sans-Serif" font-size="10.00" fill="#000000"> </text>
<polyline fill="none" stroke="#000000" points="130.5,-694.5 288.5,-694.5 "/>
<text text-anchor="start" x="138.5" y="-682.5" font-family="Helvetica,sans-Serif" font-size="10.00" fill="#000000"># c()</text>
<text text-anchor="start" x="138.5" y="-671.5" font-family="Helvetica,sans-Serif" font-size="10.00" fill="#000000"># __check_protocols__()</text>
</a>
</g>
</g>
<!-- Node15&#45;&gt;Node13 -->
<g id="edge5" class="edge">
<title>Node15&#45;&gt;Node13</title>
<path fill="none" stroke="#ffa500" d="M121.9211,-663.1038C115.5004,-657.951 109.5677,-652.2592 104.5,-646 90.1751,-628.307 82.4592,-604.0691 78.3083,-583.6601"/>
<polygon fill="#ffa500" stroke="#ffa500" points="120.1785,-666.1704 130.2867,-669.3447 124.3642,-660.5597 120.1785,-666.1704"/>
<text text-anchor="start" x="104.5" y="-632.5" font-family="Helvetica,sans-Serif" font-size="10.00" fill="#000000"> &lt; Triggerable, Irq</text>
<text text-anchor="middle" x="162" y="-621.5" font-family="Helvetica,sans-Serif" font-size="10.00" fill="#000000">_eoi, L4_PROTO_IRQ &gt;</text>
</g>
<!-- Node17 -->
<g id="node8" class="node">
<title>Node17</title>
<g id="a_node8"><a xlink:href="classL4_1_1Kobject__t.html" target="_top" xlink:title="{L4::Kobject_t\&lt; Rcv\l_endpoint, Kobject,\l L4_PROTO_KOBJECT, Type\l_info::Demand_t\&lt; 1 \&gt; \&gt;\n||# c()\l# __check_protocols__()\l}">
<polygon fill="#ffffff" stroke="#000000" points="165.5,-493.5 165.5,-594.5 323.5,-594.5 323.5,-493.5 165.5,-493.5"/>
<text text-anchor="start" x="173.5" y="-582.5" font-family="Helvetica,sans-Serif" font-size="10.00" fill="#000000">L4::Kobject_t&lt; Rcv</text>
<text text-anchor="start" x="173.5" y="-571.5" font-family="Helvetica,sans-Serif" font-size="10.00" fill="#000000">_endpoint, Kobject,</text>
<text text-anchor="start" x="173.5" y="-560.5" font-family="Helvetica,sans-Serif" font-size="10.00" fill="#000000"> L4_PROTO_KOBJECT, Type</text>
<text text-anchor="middle" x="244.5" y="-549.5" font-family="Helvetica,sans-Serif" font-size="10.00" fill="#000000">_info::Demand_t&lt; 1 &gt; &gt;</text>
<polyline fill="none" stroke="#000000" points="165.5,-542.5 323.5,-542.5 "/>
<text text-anchor="middle" x="244.5" y="-530.5" font-family="Helvetica,sans-Serif" font-size="10.00" fill="#000000"> </text>
<polyline fill="none" stroke="#000000" points="165.5,-523.5 323.5,-523.5 "/>
<text text-anchor="start" x="173.5" y="-511.5" font-family="Helvetica,sans-Serif" font-size="10.00" fill="#000000"># c()</text>
<text text-anchor="start" x="173.5" y="-500.5" font-family="Helvetica,sans-Serif" font-size="10.00" fill="#000000"># __check_protocols__()</text>
</a>
</g>
</g>
<!-- Node15&#45;&gt;Node17 -->
<g id="edge9" class="edge">
<title>Node15&#45;&gt;Node17</title>
<path fill="none" stroke="#ffa500" d="M220.3319,-654.4826C224.4945,-635.4537 229.2489,-613.7192 233.4333,-594.5907"/>
<polygon fill="#ffa500" stroke="#ffa500" points="216.8696,-653.9325 218.1517,-664.4494 223.7079,-655.4284 216.8696,-653.9325"/>
<text text-anchor="start" x="229.5" y="-638" font-family="Helvetica,sans-Serif" font-size="10.00" fill="#000000"> &lt; Rcv_endpoint, Kobject,</text>
<text text-anchor="start" x="229.5" y="-627" font-family="Helvetica,sans-Serif" font-size="10.00" fill="#000000"> L4_PROTO_KOBJECT, Type</text>
<text text-anchor="middle" x="300.5" y="-616" font-family="Helvetica,sans-Serif" font-size="10.00" fill="#000000">_info::Demand_t&lt; 1 &gt; &gt;</text>
</g>
<!-- Node16 -->
<g id="node7" class="node">
<title>Node16</title>
<g id="a_node7"><a xlink:href="classL4_1_1Rcv__endpoint.html" target="_top" xlink:title="Interface for kernel objects that allow to receive IPC from them. ">
<polygon fill="#ffffff" stroke="#000000" points="187.5,-365.5 187.5,-422.5 285.5,-422.5 285.5,-365.5 187.5,-365.5"/>
<text text-anchor="middle" x="236.5" y="-410.5" font-family="Helvetica,sans-Serif" font-size="10.00" fill="#000000">L4::Rcv_endpoint</text>
<polyline fill="none" stroke="#000000" points="187.5,-403.5 285.5,-403.5 "/>
<text text-anchor="middle" x="236.5" y="-391.5" font-family="Helvetica,sans-Serif" font-size="10.00" fill="#000000"> </text>
<polyline fill="none" stroke="#000000" points="187.5,-384.5 285.5,-384.5 "/>
<text text-anchor="start" x="195.5" y="-372.5" font-family="Helvetica,sans-Serif" font-size="10.00" fill="#000000">+ bind_thread()</text>
</a>
</g>
</g>
<!-- Node16&#45;&gt;Node11 -->
<g id="edge6" class="edge">
<title>Node16&#45;&gt;Node11</title>
<path fill="none" stroke="#191970" d="M236.5,-355.0942C236.5,-328.6625 236.5,-293.1401 236.5,-262.8628"/>
<polygon fill="none" stroke="#191970" points="233.0001,-355.1059 236.5,-365.1059 240.0001,-355.106 233.0001,-355.1059"/>
</g>
<!-- Node17&#45;&gt;Node16 -->
<g id="edge7" class="edge">
<title>Node17&#45;&gt;Node16</title>
<path fill="none" stroke="#191970" d="M241.2541,-483.14C240.143,-462.3058 238.9513,-439.9611 238.0389,-422.8549"/>
<polygon fill="none" stroke="#191970" points="237.7639,-483.4175 241.7916,-493.2168 244.7539,-483.0446 237.7639,-483.4175"/>
</g>
<!-- Node18 -->
<g id="node9" class="node">
<title>Node18</title>
<g id="a_node9"><a xlink:href="classL4_1_1Kobject.html" target="_top" xlink:title="Base class for all kinds of kernel objects and remote objects, referenced by capabilities. ">
<polygon fill="#ffffff" stroke="#000000" points="343.5,-670 343.5,-738 427.5,-738 427.5,-670 343.5,-670"/>
<text text-anchor="middle" x="385.5" y="-726" font-family="Helvetica,sans-Serif" font-size="10.00" fill="#000000">L4::Kobject</text>
<polyline fill="none" stroke="#000000" points="343.5,-719 427.5,-719 "/>
<text text-anchor="middle" x="385.5" y="-707" font-family="Helvetica,sans-Serif" font-size="10.00" fill="#000000"> </text>
<polyline fill="none" stroke="#000000" points="343.5,-700 427.5,-700 "/>
<text text-anchor="start" x="351.5" y="-688" font-family="Helvetica,sans-Serif" font-size="10.00" fill="#000000">+ dec_refcnt()</text>
<text text-anchor="start" x="351.5" y="-677" font-family="Helvetica,sans-Serif" font-size="10.00" fill="#000000"># cap()</text>
</a>
</g>
</g>
<!-- Node18&#45;&gt;Node17 -->
<g id="edge8" class="edge">
<title>Node18&#45;&gt;Node17</title>
<path fill="none" stroke="#191970" d="M386.6029,-659.5568C385.0496,-643.6737 380.9281,-626.4072 371.5,-613 359.5199,-595.9637 341.9581,-582.7212 323.6935,-572.6033"/>
<polygon fill="none" stroke="#191970" points="383.1243,-659.9954 387.2827,-669.7401 390.1087,-659.5291 383.1243,-659.9954"/>
</g>
<!-- Node19 -->
<g id="node10" class="node">
<title>Node19</title>
<g id="a_node10"><a xlink:href="classL4_1_1Kobject__2t.html" target="_top" xlink:title="Helper class to create an L4Re interface class that is derived from two base classes (see L4::Kobject...">
<polygon fill="#ffffff" stroke="#000000" points="304,-332.5 304,-455.5 455,-455.5 455,-332.5 304,-332.5"/>
<text text-anchor="start" x="312" y="-443.5" font-family="Helvetica,sans-Serif" font-size="10.00" fill="#000000">L4::Kobject_2t&lt; Derived,</text>
<text text-anchor="start" x="312" y="-432.5" font-family="Helvetica,sans-Serif" font-size="10.00" fill="#000000"> Base1, Base2, PROTO,</text>
<text text-anchor="middle" x="379.5" y="-421.5" font-family="Helvetica,sans-Serif" font-size="10.00" fill="#000000"> S_DEMAND &gt;</text>
<polyline fill="none" stroke="#000000" points="304,-414.5 455,-414.5 "/>
<text text-anchor="middle" x="379.5" y="-402.5" font-family="Helvetica,sans-Serif" font-size="10.00" fill="#000000"> </text>
<polyline fill="none" stroke="#000000" points="304,-395.5 455,-395.5 "/>
<text text-anchor="start" x="312" y="-383.5" font-family="Helvetica,sans-Serif" font-size="10.00" fill="#000000">+ operator Kobject const &amp;()</text>
<text text-anchor="start" x="312" y="-372.5" font-family="Helvetica,sans-Serif" font-size="10.00" fill="#000000">+ dec_refcnt()</text>
<text text-anchor="start" x="312" y="-361.5" font-family="Helvetica,sans-Serif" font-size="10.00" fill="#000000"># cap()</text>
<text text-anchor="start" x="312" y="-350.5" font-family="Helvetica,sans-Serif" font-size="10.00" fill="#000000"># c()</text>
<text text-anchor="start" x="312" y="-339.5" font-family="Helvetica,sans-Serif" font-size="10.00" fill="#000000"># __check_protocols__()</text>
</a>
</g>
</g>
<!-- Node19&#45;&gt;Node11 -->
<g id="edge10" class="edge">
<title>Node19&#45;&gt;Node11</title>
<path fill="none" stroke="#ffa500" d="M327.7766,-324.1914C312.867,-304.0687 296.7122,-282.2654 282.1962,-262.6738"/>
<polygon fill="#ffa500" stroke="#ffa500" points="325.0952,-326.4518 333.8607,-332.403 330.7196,-322.2844 325.0952,-326.4518"/>
<text text-anchor="start" x="317.5" y="-306" font-family="Helvetica,sans-Serif" font-size="10.00" fill="#000000"> &lt; Irq, Triggerable,</text>
<text text-anchor="start" x="317.5" y="-295" font-family="Helvetica,sans-Serif" font-size="10.00" fill="#000000"> Rcv_endpoint, L4_PROTO</text>
<text text-anchor="middle" x="382.5" y="-284" font-family="Helvetica,sans-Serif" font-size="10.00" fill="#000000">_IRQ_SENDER &gt;</text>
</g>
</g>
</svg>
