<?xml version="1.0" encoding="UTF-8" standalone="no"?>
<!DOCTYPE svg PUBLIC "-//W3C//DTD SVG 1.1//EN"
 "http://www.w3.org/Graphics/SVG/1.1/DTD/svg11.dtd">
<!-- Generated by graphviz version 2.40.1 (20161225.0304)
 -->
<!-- Title: L4::Ipc_svr::Br_manager_no_buffers Pages: 1 -->
<svg width="140pt" height="441pt"
 viewBox="0.00 0.00 140.00 441.00" xmlns="http://www.w3.org/2000/svg" xmlns:xlink="http://www.w3.org/1999/xlink">
<g id="graph0" class="graph" transform="scale(1 1) rotate(0) translate(4 437)">
<title>L4::Ipc_svr::Br_manager_no_buffers</title>
<polygon fill="#ffffff" stroke="transparent" points="-4,4 -4,-437 136,-437 136,4 -4,4"/>
<!-- Node0 -->
<g id="node1" class="node">
<title>Node0</title>
<polygon fill="#bfbfbf" stroke="#000000" points="0,-105.5 0,-239.5 132,-239.5 132,-105.5 0,-105.5"/>
<text text-anchor="start" x="8" y="-227.5" font-family="Helvetica,sans-Serif" font-size="10.00" fill="#000000">L4::Ipc_svr::Br_manager</text>
<text text-anchor="middle" x="66" y="-216.5" font-family="Helvetica,sans-Serif" font-size="10.00" fill="#000000">_no_buffers</text>
<polyline fill="none" stroke="#000000" points="0,-209.5 132,-209.5 "/>
<text text-anchor="middle" x="66" y="-197.5" font-family="Helvetica,sans-Serif" font-size="10.00" fill="#000000"> </text>
<polyline fill="none" stroke="#000000" points="0,-190.5 132,-190.5 "/>
<text text-anchor="start" x="8" y="-178.5" font-family="Helvetica,sans-Serif" font-size="10.00" fill="#000000">+ alloc_buffer_demand()</text>
<text text-anchor="start" x="8" y="-167.5" font-family="Helvetica,sans-Serif" font-size="10.00" fill="#000000">+ get_rcv_cap()</text>
<text text-anchor="start" x="8" y="-156.5" font-family="Helvetica,sans-Serif" font-size="10.00" fill="#000000">+ realloc_rcv_cap()</text>
<text text-anchor="start" x="8" y="-145.5" font-family="Helvetica,sans-Serif" font-size="10.00" fill="#000000">+ add_timeout()</text>
<text text-anchor="start" x="8" y="-134.5" font-family="Helvetica,sans-Serif" font-size="10.00" fill="#000000">+ remove_timeout()</text>
<text text-anchor="start" x="8" y="-123.5" font-family="Helvetica,sans-Serif" font-size="10.00" fill="#000000"># first_free_br()</text>
<text text-anchor="start" x="8" y="-112.5" font-family="Helvetica,sans-Serif" font-size="10.00" fill="#000000"># setup_wait()</text>
</g>
<!-- Node2 -->
<g id="node3" class="node">
<title>Node2</title>
<g id="a_node3"><a xlink:href="structL4_1_1Ipc__svr_1_1Default__loop__hooks.html" target="_top" xlink:title="Default LOOP_HOOKS. ">
<polygon fill="#ffffff" stroke="#000000" points="13.5,-.5 13.5,-68.5 118.5,-68.5 118.5,-.5 13.5,-.5"/>
<text text-anchor="start" x="21.5" y="-56.5" font-family="Helvetica,sans-Serif" font-size="10.00" fill="#000000">L4::Ipc_svr::Default</text>
<text text-anchor="middle" x="66" y="-45.5" font-family="Helvetica,sans-Serif" font-size="10.00" fill="#000000">_loop_hooks</text>
<polyline fill="none" stroke="#000000" points="13.5,-38.5 118.5,-38.5 "/>
<text text-anchor="middle" x="66" y="-26.5" font-family="Helvetica,sans-Serif" font-size="10.00" fill="#000000"> </text>
<polyline fill="none" stroke="#000000" points="13.5,-19.5 118.5,-19.5 "/>
<text text-anchor="middle" x="66" y="-7.5" font-family="Helvetica,sans-Serif" font-size="10.00" fill="#000000"> </text>
</a>
</g>
</g>
<!-- Node0&#45;&gt;Node2 -->
<g id="edge2" class="edge">
<title>Node0&#45;&gt;Node2</title>
<path fill="none" stroke="#191970" d="M66,-95.1014C66,-85.9152 66,-76.9305 66,-68.8119"/>
<polygon fill="none" stroke="#191970" points="62.5001,-95.117 66,-105.1171 69.5001,-95.1171 62.5001,-95.117"/>
</g>
<!-- Node1 -->
<g id="node2" class="node">
<title>Node1</title>
<g id="a_node2"><a xlink:href="classL4_1_1Ipc__svr_1_1Server__iface.html" target="_top" xlink:title="Interface for server&#45;loop related functions. ">
<polygon fill="#ffffff" stroke="#000000" points="0,-276.5 0,-432.5 132,-432.5 132,-276.5 0,-276.5"/>
<text text-anchor="start" x="8" y="-420.5" font-family="Helvetica,sans-Serif" font-size="10.00" fill="#000000">L4::Ipc_svr::Server</text>
<text text-anchor="middle" x="66" y="-409.5" font-family="Helvetica,sans-Serif" font-size="10.00" fill="#000000">_iface</text>
<polyline fill="none" stroke="#000000" points="0,-402.5 132,-402.5 "/>
<text text-anchor="middle" x="66" y="-390.5" font-family="Helvetica,sans-Serif" font-size="10.00" fill="#000000"> </text>
<polyline fill="none" stroke="#000000" points="0,-383.5 132,-383.5 "/>
<text text-anchor="start" x="8" y="-371.5" font-family="Helvetica,sans-Serif" font-size="10.00" fill="#000000">+ Server_iface()</text>
<text text-anchor="start" x="8" y="-360.5" font-family="Helvetica,sans-Serif" font-size="10.00" fill="#000000">+ ~Server_iface()</text>
<text text-anchor="start" x="8" y="-349.5" font-family="Helvetica,sans-Serif" font-size="10.00" fill="#000000">+ alloc_buffer_demand()</text>
<text text-anchor="start" x="8" y="-338.5" font-family="Helvetica,sans-Serif" font-size="10.00" fill="#000000">+ get_rcv_cap()</text>
<text text-anchor="start" x="8" y="-327.5" font-family="Helvetica,sans-Serif" font-size="10.00" fill="#000000">+ realloc_rcv_cap()</text>
<text text-anchor="start" x="8" y="-316.5" font-family="Helvetica,sans-Serif" font-size="10.00" fill="#000000">+ add_timeout()</text>
<text text-anchor="start" x="8" y="-305.5" font-family="Helvetica,sans-Serif" font-size="10.00" fill="#000000">+ remove_timeout()</text>
<text text-anchor="start" x="8" y="-294.5" font-family="Helvetica,sans-Serif" font-size="10.00" fill="#000000">+ rcv_cap()</text>
<text text-anchor="start" x="8" y="-283.5" font-family="Helvetica,sans-Serif" font-size="10.00" fill="#000000">+ rcv_cap()</text>
</a>
</g>
</g>
<!-- Node1&#45;&gt;Node0 -->
<g id="edge1" class="edge">
<title>Node1&#45;&gt;Node0</title>
<path fill="none" stroke="#191970" d="M66,-266.1704C66,-257.205 66,-248.205 66,-239.5189"/>
<polygon fill="none" stroke="#191970" points="62.5001,-266.2593 66,-276.2594 69.5001,-266.2594 62.5001,-266.2593"/>
</g>
</g>
</svg>
