<?xml version="1.0" encoding="UTF-8" standalone="no"?>
<!DOCTYPE svg PUBLIC "-//W3C//DTD SVG 1.1//EN"
 "http://www.w3.org/Graphics/SVG/1.1/DTD/svg11.dtd">
<!-- Generated by graphviz version 2.40.1 (20161225.0304)
 -->
<!-- Title: cxx::H_list_item_t&lt; ELEM_TYPE &gt; Pages: 1 -->
<svg width="247pt" height="537pt"
 viewBox="0.00 0.00 246.50 537.00" xmlns="http://www.w3.org/2000/svg" xmlns:xlink="http://www.w3.org/1999/xlink">
<g id="graph0" class="graph" transform="scale(1 1) rotate(0) translate(4 533)">
<title>cxx::H_list_item_t&lt; ELEM_TYPE &gt;</title>
<polygon fill="#ffffff" stroke="transparent" points="-4,4 -4,-533 242.5,-533 242.5,4 -4,4"/>
<!-- Node0 -->
<g id="node1" class="node">
<title>Node0</title>
<polygon fill="#bfbfbf" stroke="#000000" points="20.5,-449.5 20.5,-528.5 121.5,-528.5 121.5,-449.5 20.5,-449.5"/>
<text text-anchor="start" x="28.5" y="-516.5" font-family="Helvetica,sans-Serif" font-size="10.00" fill="#000000">cxx::H_list_item_t</text>
<text text-anchor="middle" x="71" y="-505.5" font-family="Helvetica,sans-Serif" font-size="10.00" fill="#000000">&lt; ELEM_TYPE &gt;</text>
<polyline fill="none" stroke="#000000" points="20.5,-498.5 121.5,-498.5 "/>
<text text-anchor="middle" x="71" y="-486.5" font-family="Helvetica,sans-Serif" font-size="10.00" fill="#000000"> </text>
<polyline fill="none" stroke="#000000" points="20.5,-479.5 121.5,-479.5 "/>
<text text-anchor="start" x="28.5" y="-467.5" font-family="Helvetica,sans-Serif" font-size="10.00" fill="#000000">+ H_list_item_t()</text>
<text text-anchor="start" x="28.5" y="-456.5" font-family="Helvetica,sans-Serif" font-size="10.00" fill="#000000">+ ~H_list_item_t()</text>
</g>
<!-- Node1 -->
<g id="node2" class="node">
<title>Node1</title>
<g id="a_node2"><a xlink:href="classL4_1_1Ipc__svr_1_1Timeout.html" target="_top" xlink:title="Callback interface for Timeout_queue. ">
<polygon fill="#ffffff" stroke="#000000" points="0,-300.5 0,-401.5 110,-401.5 110,-300.5 0,-300.5"/>
<text text-anchor="start" x="8" y="-389.5" font-family="Helvetica,sans-Serif" font-size="10.00" fill="#000000">L4::Ipc_svr::Timeout</text>
<text text-anchor="middle" x="55" y="-378.5" font-family="Helvetica,sans-Serif" font-size="10.00" fill="#000000">&lt; void &gt;</text>
<polyline fill="none" stroke="#000000" points="0,-371.5 110,-371.5 "/>
<text text-anchor="middle" x="55" y="-359.5" font-family="Helvetica,sans-Serif" font-size="10.00" fill="#000000"> </text>
<polyline fill="none" stroke="#000000" points="0,-352.5 110,-352.5 "/>
<text text-anchor="start" x="8" y="-340.5" font-family="Helvetica,sans-Serif" font-size="10.00" fill="#000000">+ Timeout()</text>
<text text-anchor="start" x="8" y="-329.5" font-family="Helvetica,sans-Serif" font-size="10.00" fill="#000000">+ ~Timeout()</text>
<text text-anchor="start" x="8" y="-318.5" font-family="Helvetica,sans-Serif" font-size="10.00" fill="#000000">+ expired()</text>
<text text-anchor="start" x="8" y="-307.5" font-family="Helvetica,sans-Serif" font-size="10.00" fill="#000000">+ timeout()</text>
</a>
</g>
</g>
<!-- Node0&#45;&gt;Node1 -->
<g id="edge1" class="edge">
<title>Node0&#45;&gt;Node1</title>
<path fill="none" stroke="#191970" d="M65.2487,-439.3951C63.8261,-427.1248 62.3001,-413.9637 60.8718,-401.6445"/>
<polygon fill="none" stroke="#191970" points="61.7865,-439.9244 66.415,-449.4547 68.74,-439.1182 61.7865,-439.9244"/>
</g>
<!-- Node2 -->
<g id="node3" class="node">
<title>Node2</title>
<g id="a_node3"><a xlink:href="classcxx_1_1H__list__item__t.html" target="_top" xlink:title="{cxx::H_list_item_t\l\&lt; Weak_ref_base \&gt;\n||+ H_list_item_t()\l+ ~H_list_item_t()\l}">
<polygon fill="#ffffff" stroke="#000000" points="128.5,-311.5 128.5,-390.5 237.5,-390.5 237.5,-311.5 128.5,-311.5"/>
<text text-anchor="start" x="136.5" y="-378.5" font-family="Helvetica,sans-Serif" font-size="10.00" fill="#000000">cxx::H_list_item_t</text>
<text text-anchor="middle" x="183" y="-367.5" font-family="Helvetica,sans-Serif" font-size="10.00" fill="#000000">&lt; Weak_ref_base &gt;</text>
<polyline fill="none" stroke="#000000" points="128.5,-360.5 237.5,-360.5 "/>
<text text-anchor="middle" x="183" y="-348.5" font-family="Helvetica,sans-Serif" font-size="10.00" fill="#000000"> </text>
<polyline fill="none" stroke="#000000" points="128.5,-341.5 237.5,-341.5 "/>
<text text-anchor="start" x="136.5" y="-329.5" font-family="Helvetica,sans-Serif" font-size="10.00" fill="#000000">+ H_list_item_t()</text>
<text text-anchor="start" x="136.5" y="-318.5" font-family="Helvetica,sans-Serif" font-size="10.00" fill="#000000">+ ~H_list_item_t()</text>
</a>
</g>
</g>
<!-- Node0&#45;&gt;Node2 -->
<g id="edge2" class="edge">
<title>Node0&#45;&gt;Node2</title>
<path fill="none" stroke="#ffa500" d="M109.5728,-441.4729C123.0453,-424.8728 138.0125,-406.4311 150.9006,-390.551"/>
<polygon fill="#ffa500" stroke="#ffa500" points="106.6788,-439.4845 103.0947,-449.4547 112.114,-443.8957 106.6788,-439.4845"/>
<text text-anchor="middle" x="175" y="-423" font-family="Helvetica,sans-Serif" font-size="10.00" fill="#000000"> &lt; Weak_ref_base &gt;</text>
</g>
<!-- Node3 -->
<g id="node4" class="node">
<title>Node3</title>
<g id="a_node4"><a xlink:href="classcxx_1_1Weak__ref__base.html" target="_top" xlink:title="Generic (base) weak reference to some object. ">
<polygon fill="#ffffff" stroke="#000000" points="127.5,-183.5 127.5,-262.5 238.5,-262.5 238.5,-183.5 127.5,-183.5"/>
<text text-anchor="middle" x="183" y="-250.5" font-family="Helvetica,sans-Serif" font-size="10.00" fill="#000000">cxx::Weak_ref_base</text>
<polyline fill="none" stroke="#000000" points="127.5,-243.5 238.5,-243.5 "/>
<text text-anchor="start" x="135.5" y="-231.5" font-family="Helvetica,sans-Serif" font-size="10.00" fill="#000000"># _obj</text>
<polyline fill="none" stroke="#000000" points="127.5,-224.5 238.5,-224.5 "/>
<text text-anchor="start" x="135.5" y="-212.5" font-family="Helvetica,sans-Serif" font-size="10.00" fill="#000000">+ operator bool()</text>
<text text-anchor="start" x="135.5" y="-201.5" font-family="Helvetica,sans-Serif" font-size="10.00" fill="#000000"># Weak_ref_base()</text>
<text text-anchor="start" x="135.5" y="-190.5" font-family="Helvetica,sans-Serif" font-size="10.00" fill="#000000"># reset_hard()</text>
</a>
</g>
</g>
<!-- Node2&#45;&gt;Node3 -->
<g id="edge3" class="edge">
<title>Node2&#45;&gt;Node3</title>
<path fill="none" stroke="#191970" d="M183,-301.1972C183,-288.4599 183,-274.9325 183,-262.7737"/>
<polygon fill="none" stroke="#191970" points="179.5001,-301.2016 183,-311.2016 186.5001,-301.2017 179.5001,-301.2016"/>
</g>
<!-- Node4 -->
<g id="node5" class="node">
<title>Node4</title>
<g id="a_node5"><a xlink:href="classcxx_1_1Weak__ref.html" target="_top" xlink:title="Typed weak reference to an object of type T. ">
<polygon fill="#ffffff" stroke="#000000" points="129.5,-.5 129.5,-145.5 236.5,-145.5 236.5,-.5 129.5,-.5"/>
<text text-anchor="middle" x="183" y="-133.5" font-family="Helvetica,sans-Serif" font-size="10.00" fill="#000000">cxx::Weak_ref&lt; T &gt;</text>
<polyline fill="none" stroke="#000000" points="129.5,-126.5 236.5,-126.5 "/>
<text text-anchor="middle" x="183" y="-114.5" font-family="Helvetica,sans-Serif" font-size="10.00" fill="#000000"> </text>
<polyline fill="none" stroke="#000000" points="129.5,-107.5 236.5,-107.5 "/>
<text text-anchor="start" x="137.5" y="-95.5" font-family="Helvetica,sans-Serif" font-size="10.00" fill="#000000">+ get()</text>
<text text-anchor="start" x="137.5" y="-84.5" font-family="Helvetica,sans-Serif" font-size="10.00" fill="#000000">+ reset()</text>
<text text-anchor="start" x="137.5" y="-73.5" font-family="Helvetica,sans-Serif" font-size="10.00" fill="#000000">+ Weak_ref()</text>
<text text-anchor="start" x="137.5" y="-62.5" font-family="Helvetica,sans-Serif" font-size="10.00" fill="#000000">+ ~Weak_ref()</text>
<text text-anchor="start" x="137.5" y="-51.5" font-family="Helvetica,sans-Serif" font-size="10.00" fill="#000000">+ operator=()</text>
<text text-anchor="start" x="137.5" y="-40.5" font-family="Helvetica,sans-Serif" font-size="10.00" fill="#000000">+ Weak_ref()</text>
<text text-anchor="start" x="137.5" y="-29.5" font-family="Helvetica,sans-Serif" font-size="10.00" fill="#000000">+ operator=()</text>
<text text-anchor="start" x="137.5" y="-18.5" font-family="Helvetica,sans-Serif" font-size="10.00" fill="#000000">+ operator*()</text>
<text text-anchor="start" x="137.5" y="-7.5" font-family="Helvetica,sans-Serif" font-size="10.00" fill="#000000">+ operator&#45;&gt;()</text>
</a>
</g>
</g>
<!-- Node3&#45;&gt;Node4 -->
<g id="edge4" class="edge">
<title>Node3&#45;&gt;Node4</title>
<path fill="none" stroke="#191970" d="M183,-173.1493C183,-164.3575 183,-155.0443 183,-145.7764"/>
<polygon fill="none" stroke="#191970" points="179.5001,-173.1965 183,-183.1966 186.5001,-173.1966 179.5001,-173.1965"/>
</g>
</g>
</svg>
