<?xml version="1.0" encoding="UTF-8" standalone="no"?>
<!DOCTYPE svg PUBLIC "-//W3C//DTD SVG 1.1//EN"
 "http://www.w3.org/Graphics/SVG/1.1/DTD/svg11.dtd">
<!-- Generated by graphviz version 2.40.1 (20161225.0304)
 -->
<!-- Title: L4Re::Event Pages: 1 -->
<svg width="306pt" height="1030pt"
 viewBox="0.00 0.00 305.50 1030.00" xmlns="http://www.w3.org/2000/svg" xmlns:xlink="http://www.w3.org/1999/xlink">
<g id="graph0" class="graph" transform="scale(1 1) rotate(0) translate(4 1026)">
<title>L4Re::Event</title>
<polygon fill="#ffffff" stroke="transparent" points="-4,4 -4,-1026 301.5,-1026 301.5,4 -4,4"/>
<!-- Node0 -->
<g id="node1" class="node">
<title>Node0</title>
<polygon fill="#bfbfbf" stroke="#000000" points="95,-322.5 95,-434.5 244,-434.5 244,-322.5 95,-322.5"/>
<text text-anchor="middle" x="169.5" y="-422.5" font-family="Helvetica,sans-Serif" font-size="10.00" fill="#000000">L4Re::Event</text>
<polyline fill="none" stroke="#000000" points="95,-415.5 244,-415.5 "/>
<text text-anchor="middle" x="169.5" y="-403.5" font-family="Helvetica,sans-Serif" font-size="10.00" fill="#000000"> </text>
<polyline fill="none" stroke="#000000" points="95,-396.5 244,-396.5 "/>
<text text-anchor="start" x="103" y="-384.5" font-family="Helvetica,sans-Serif" font-size="10.00" fill="#000000">+ get_buffer()</text>
<text text-anchor="start" x="103" y="-373.5" font-family="Helvetica,sans-Serif" font-size="10.00" fill="#000000">+ get_num_streams()</text>
<text text-anchor="start" x="103" y="-362.5" font-family="Helvetica,sans-Serif" font-size="10.00" fill="#000000">+ get_stream_info()</text>
<text text-anchor="start" x="103" y="-351.5" font-family="Helvetica,sans-Serif" font-size="10.00" fill="#000000">+ get_stream_info_for_id()</text>
<text text-anchor="start" x="103" y="-340.5" font-family="Helvetica,sans-Serif" font-size="10.00" fill="#000000">+ get_axis_info()</text>
<text text-anchor="start" x="103" y="-329.5" font-family="Helvetica,sans-Serif" font-size="10.00" fill="#000000">+ get_stream_state_for_id()</text>
</g>
<!-- Node6 -->
<g id="node7" class="node">
<title>Node6</title>
<g id="a_node7"><a xlink:href="structL4_1_1Kobject__3t.html" target="_top" xlink:title="{L4::Kobject_3t\&lt; Vbus,\l L4Re::Dataspace, L4Re\l::Inhibitor, L4Re::Event \&gt;\n||+ operator Kobject const &amp;()\l+ dec_refcnt()\l# cap()\l# c()\l# __check_protocols__()\l}">
<polygon fill="#ffffff" stroke="#000000" points="94,-161.5 94,-284.5 245,-284.5 245,-161.5 94,-161.5"/>
<text text-anchor="start" x="102" y="-272.5" font-family="Helvetica,sans-Serif" font-size="10.00" fill="#000000">L4::Kobject_3t&lt; Vbus,</text>
<text text-anchor="start" x="102" y="-261.5" font-family="Helvetica,sans-Serif" font-size="10.00" fill="#000000"> L4Re::Dataspace, L4Re</text>
<text text-anchor="middle" x="169.5" y="-250.5" font-family="Helvetica,sans-Serif" font-size="10.00" fill="#000000">::Inhibitor, L4Re::Event &gt;</text>
<polyline fill="none" stroke="#000000" points="94,-243.5 245,-243.5 "/>
<text text-anchor="middle" x="169.5" y="-231.5" font-family="Helvetica,sans-Serif" font-size="10.00" fill="#000000"> </text>
<polyline fill="none" stroke="#000000" points="94,-224.5 245,-224.5 "/>
<text text-anchor="start" x="102" y="-212.5" font-family="Helvetica,sans-Serif" font-size="10.00" fill="#000000">+ operator Kobject const &amp;()</text>
<text text-anchor="start" x="102" y="-201.5" font-family="Helvetica,sans-Serif" font-size="10.00" fill="#000000">+ dec_refcnt()</text>
<text text-anchor="start" x="102" y="-190.5" font-family="Helvetica,sans-Serif" font-size="10.00" fill="#000000"># cap()</text>
<text text-anchor="start" x="102" y="-179.5" font-family="Helvetica,sans-Serif" font-size="10.00" fill="#000000"># c()</text>
<text text-anchor="start" x="102" y="-168.5" font-family="Helvetica,sans-Serif" font-size="10.00" fill="#000000"># __check_protocols__()</text>
</a>
</g>
</g>
<!-- Node0&#45;&gt;Node6 -->
<g id="edge7" class="edge">
<title>Node0&#45;&gt;Node6</title>
<path fill="none" stroke="#191970" d="M169.5,-312.1518C169.5,-303.0037 169.5,-293.6404 169.5,-284.5833"/>
<polygon fill="none" stroke="#191970" points="166.0001,-312.3609 169.5,-322.3609 173.0001,-312.361 166.0001,-312.3609"/>
</g>
<!-- Node1 -->
<g id="node2" class="node">
<title>Node1</title>
<g id="a_node2"><a xlink:href="classL4_1_1Kobject__t.html" target="_top" xlink:title="{L4::Kobject_t\&lt; Event,\l L4::Icu, L4RE_PROTO\l_EVENT \&gt;\n||# c()\l# __check_protocols__()\l}">
<polygon fill="#ffffff" stroke="#000000" points="102.5,-472.5 102.5,-562.5 236.5,-562.5 236.5,-472.5 102.5,-472.5"/>
<text text-anchor="start" x="110.5" y="-550.5" font-family="Helvetica,sans-Serif" font-size="10.00" fill="#000000">L4::Kobject_t&lt; Event,</text>
<text text-anchor="start" x="110.5" y="-539.5" font-family="Helvetica,sans-Serif" font-size="10.00" fill="#000000"> L4::Icu, L4RE_PROTO</text>
<text text-anchor="middle" x="169.5" y="-528.5" font-family="Helvetica,sans-Serif" font-size="10.00" fill="#000000">_EVENT &gt;</text>
<polyline fill="none" stroke="#000000" points="102.5,-521.5 236.5,-521.5 "/>
<text text-anchor="middle" x="169.5" y="-509.5" font-family="Helvetica,sans-Serif" font-size="10.00" fill="#000000"> </text>
<polyline fill="none" stroke="#000000" points="102.5,-502.5 236.5,-502.5 "/>
<text text-anchor="start" x="110.5" y="-490.5" font-family="Helvetica,sans-Serif" font-size="10.00" fill="#000000"># c()</text>
<text text-anchor="start" x="110.5" y="-479.5" font-family="Helvetica,sans-Serif" font-size="10.00" fill="#000000"># __check_protocols__()</text>
</a>
</g>
</g>
<!-- Node1&#45;&gt;Node0 -->
<g id="edge1" class="edge">
<title>Node1&#45;&gt;Node0</title>
<path fill="none" stroke="#191970" d="M169.5,-462.2708C169.5,-453.1654 169.5,-443.7185 169.5,-434.5922"/>
<polygon fill="none" stroke="#191970" points="166.0001,-462.3706 169.5,-472.3707 173.0001,-462.3707 166.0001,-462.3706"/>
</g>
<!-- Node2 -->
<g id="node3" class="node">
<title>Node2</title>
<g id="a_node3"><a xlink:href="classL4_1_1Icu.html" target="_top" xlink:title="C++ Icu interface. ">
<polygon fill="#ffffff" stroke="#000000" points="87.5,-600.5 87.5,-723.5 167.5,-723.5 167.5,-600.5 87.5,-600.5"/>
<text text-anchor="middle" x="127.5" y="-711.5" font-family="Helvetica,sans-Serif" font-size="10.00" fill="#000000">L4::Icu</text>
<polyline fill="none" stroke="#000000" points="87.5,-704.5 167.5,-704.5 "/>
<text text-anchor="middle" x="127.5" y="-692.5" font-family="Helvetica,sans-Serif" font-size="10.00" fill="#000000"> </text>
<polyline fill="none" stroke="#000000" points="87.5,-685.5 167.5,-685.5 "/>
<text text-anchor="start" x="95.5" y="-673.5" font-family="Helvetica,sans-Serif" font-size="10.00" fill="#000000">+ bind()</text>
<text text-anchor="start" x="95.5" y="-662.5" font-family="Helvetica,sans-Serif" font-size="10.00" fill="#000000">+ unbind()</text>
<text text-anchor="start" x="95.5" y="-651.5" font-family="Helvetica,sans-Serif" font-size="10.00" fill="#000000">+ info()</text>
<text text-anchor="start" x="95.5" y="-640.5" font-family="Helvetica,sans-Serif" font-size="10.00" fill="#000000">+ msi_info()</text>
<text text-anchor="start" x="95.5" y="-629.5" font-family="Helvetica,sans-Serif" font-size="10.00" fill="#000000">+ control()</text>
<text text-anchor="start" x="95.5" y="-618.5" font-family="Helvetica,sans-Serif" font-size="10.00" fill="#000000">+ mask()</text>
<text text-anchor="start" x="95.5" y="-607.5" font-family="Helvetica,sans-Serif" font-size="10.00" fill="#000000">+ set_mode()</text>
</a>
</g>
</g>
<!-- Node2&#45;&gt;Node1 -->
<g id="edge2" class="edge">
<title>Node2&#45;&gt;Node1</title>
<path fill="none" stroke="#191970" d="M148.2792,-590.5098C151.019,-581.0835 153.7638,-571.64 156.3271,-562.8211"/>
<polygon fill="none" stroke="#191970" points="144.8638,-589.7203 145.4336,-600.2999 151.5857,-591.6741 144.8638,-589.7203"/>
</g>
<!-- Node3 -->
<g id="node4" class="node">
<title>Node3</title>
<g id="a_node4"><a xlink:href="classL4_1_1Kobject__t.html" target="_top" xlink:title="{L4::Kobject_t\&lt; Icu,\l Irq_eoi, L4_PROTO_IRQ,\l Type_info::Demand_t\&lt; 1 \&gt; \&gt;\n||# c()\l# __check_protocols__()\l}">
<polygon fill="#ffffff" stroke="#000000" points="0,-782.5 0,-872.5 153,-872.5 153,-782.5 0,-782.5"/>
<text text-anchor="start" x="8" y="-860.5" font-family="Helvetica,sans-Serif" font-size="10.00" fill="#000000">L4::Kobject_t&lt; Icu,</text>
<text text-anchor="start" x="8" y="-849.5" font-family="Helvetica,sans-Serif" font-size="10.00" fill="#000000"> Irq_eoi, L4_PROTO_IRQ,</text>
<text text-anchor="middle" x="76.5" y="-838.5" font-family="Helvetica,sans-Serif" font-size="10.00" fill="#000000"> Type_info::Demand_t&lt; 1 &gt; &gt;</text>
<polyline fill="none" stroke="#000000" points="0,-831.5 153,-831.5 "/>
<text text-anchor="middle" x="76.5" y="-819.5" font-family="Helvetica,sans-Serif" font-size="10.00" fill="#000000"> </text>
<polyline fill="none" stroke="#000000" points="0,-812.5 153,-812.5 "/>
<text text-anchor="start" x="8" y="-800.5" font-family="Helvetica,sans-Serif" font-size="10.00" fill="#000000"># c()</text>
<text text-anchor="start" x="8" y="-789.5" font-family="Helvetica,sans-Serif" font-size="10.00" fill="#000000"># __check_protocols__()</text>
</a>
</g>
</g>
<!-- Node3&#45;&gt;Node2 -->
<g id="edge3" class="edge">
<title>Node3&#45;&gt;Node2</title>
<path fill="none" stroke="#191970" d="M93.3856,-772.7045C98.2324,-756.9761 103.5497,-739.7209 108.514,-723.6114"/>
<polygon fill="none" stroke="#191970" points="90.0362,-771.6891 90.436,-782.2764 96.7258,-773.7506 90.0362,-771.6891"/>
</g>
<!-- Node4 -->
<g id="node5" class="node">
<title>Node4</title>
<g id="a_node5"><a xlink:href="classL4_1_1Irq__eoi.html" target="_top" xlink:title="Interface for sending an acknowledge message to an object. ">
<polygon fill="#ffffff" stroke="#000000" points="8.5,-953.5 8.5,-1010.5 78.5,-1010.5 78.5,-953.5 8.5,-953.5"/>
<text text-anchor="middle" x="43.5" y="-998.5" font-family="Helvetica,sans-Serif" font-size="10.00" fill="#000000">L4::Irq_eoi</text>
<polyline fill="none" stroke="#000000" points="8.5,-991.5 78.5,-991.5 "/>
<text text-anchor="middle" x="43.5" y="-979.5" font-family="Helvetica,sans-Serif" font-size="10.00" fill="#000000"> </text>
<polyline fill="none" stroke="#000000" points="8.5,-972.5 78.5,-972.5 "/>
<text text-anchor="start" x="16.5" y="-960.5" font-family="Helvetica,sans-Serif" font-size="10.00" fill="#000000">+ unmask()</text>
</a>
</g>
</g>
<!-- Node4&#45;&gt;Node3 -->
<g id="edge4" class="edge">
<title>Node4&#45;&gt;Node3</title>
<path fill="none" stroke="#191970" d="M48.3033,-942.9347C50.6033,-926.7662 53.6943,-907.8846 57.5,-891 58.841,-885.0504 60.4411,-878.8426 62.1356,-872.7385"/>
<polygon fill="none" stroke="#191970" points="44.7977,-942.7369 46.9065,-953.1197 51.7328,-943.688 44.7977,-942.7369"/>
</g>
<!-- Node5 -->
<g id="node6" class="node">
<title>Node5</title>
<g id="a_node6"><a xlink:href="classL4_1_1Kobject__t.html" target="_top" xlink:title="Helper class to create an L4Re interface class that is derived from a single base class...">
<polygon fill="#ffffff" stroke="#000000" points="114.5,-942.5 114.5,-1021.5 272.5,-1021.5 272.5,-942.5 114.5,-942.5"/>
<text text-anchor="start" x="122.5" y="-1009.5" font-family="Helvetica,sans-Serif" font-size="10.00" fill="#000000">L4::Kobject_t&lt; Derived,</text>
<text text-anchor="middle" x="193.5" y="-998.5" font-family="Helvetica,sans-Serif" font-size="10.00" fill="#000000"> Base, PROTO, S_DEMAND &gt;</text>
<polyline fill="none" stroke="#000000" points="114.5,-991.5 272.5,-991.5 "/>
<text text-anchor="middle" x="193.5" y="-979.5" font-family="Helvetica,sans-Serif" font-size="10.00" fill="#000000"> </text>
<polyline fill="none" stroke="#000000" points="114.5,-972.5 272.5,-972.5 "/>
<text text-anchor="start" x="122.5" y="-960.5" font-family="Helvetica,sans-Serif" font-size="10.00" fill="#000000"># c()</text>
<text text-anchor="start" x="122.5" y="-949.5" font-family="Helvetica,sans-Serif" font-size="10.00" fill="#000000"># __check_protocols__()</text>
</a>
</g>
</g>
<!-- Node5&#45;&gt;Node1 -->
<g id="edge6" class="edge">
<title>Node5&#45;&gt;Node1</title>
<path fill="none" stroke="#ffa500" d="M198.0683,-932.2608C198.2374,-929.4677 198.3839,-926.6995 198.5,-924 199.1304,-909.3469 199.0532,-905.6562 198.5,-891 194.0167,-772.226 181.1558,-632.6917 174.163,-562.5653"/>
<polygon fill="#ffa500" stroke="#ffa500" points="194.5651,-932.1891 197.3703,-942.4058 201.5486,-932.6697 194.5651,-932.1891"/>
<text text-anchor="start" x="191.5" y="-756" font-family="Helvetica,sans-Serif" font-size="10.00" fill="#000000"> &lt; Event, L4::Icu, L4RE</text>
<text text-anchor="middle" x="244.5" y="-745" font-family="Helvetica,sans-Serif" font-size="10.00" fill="#000000">_PROTO_EVENT &gt;</text>
</g>
<!-- Node5&#45;&gt;Node3 -->
<g id="edge5" class="edge">
<title>Node5&#45;&gt;Node3</title>
<path fill="none" stroke="#ffa500" d="M105.6378,-951.8214C94.4897,-944.4071 84.5388,-935.2581 77.5,-924 68.0851,-908.9413 66.2954,-889.8084 67.4305,-872.557"/>
<polygon fill="#ffa500" stroke="#ffa500" points="104.0103,-954.9286 114.3677,-957.1591 107.6619,-948.9565 104.0103,-954.9286"/>
<text text-anchor="start" x="77.5" y="-916" font-family="Helvetica,sans-Serif" font-size="10.00" fill="#000000"> &lt; Icu, Irq_eoi, L4</text>
<text text-anchor="start" x="77.5" y="-905" font-family="Helvetica,sans-Serif" font-size="10.00" fill="#000000">_PROTO_IRQ, Type_info</text>
<text text-anchor="middle" x="138" y="-894" font-family="Helvetica,sans-Serif" font-size="10.00" fill="#000000">::Demand_t&lt; 1 &gt; &gt;</text>
</g>
<!-- Node7 -->
<g id="node8" class="node">
<title>Node7</title>
<g id="a_node8"><a xlink:href="classL4vbus_1_1Vbus.html" target="_top" xlink:title="The virtual bus (Vbus) interface. ">
<polygon fill="#ffffff" stroke="#000000" points="104,-.5 104,-123.5 235,-123.5 235,-.5 104,-.5"/>
<text text-anchor="middle" x="169.5" y="-111.5" font-family="Helvetica,sans-Serif" font-size="10.00" fill="#000000">L4vbus::Vbus</text>
<polyline fill="none" stroke="#000000" points="104,-104.5 235,-104.5 "/>
<text text-anchor="middle" x="169.5" y="-92.5" font-family="Helvetica,sans-Serif" font-size="10.00" fill="#000000"> </text>
<polyline fill="none" stroke="#000000" points="104,-85.5 235,-85.5 "/>
<text text-anchor="start" x="112" y="-73.5" font-family="Helvetica,sans-Serif" font-size="10.00" fill="#000000">+ request_ioport()</text>
<text text-anchor="start" x="112" y="-62.5" font-family="Helvetica,sans-Serif" font-size="10.00" fill="#000000">+ request_resource()</text>
<text text-anchor="start" x="112" y="-51.5" font-family="Helvetica,sans-Serif" font-size="10.00" fill="#000000">+ release_ioport()</text>
<text text-anchor="start" x="112" y="-40.5" font-family="Helvetica,sans-Serif" font-size="10.00" fill="#000000">+ release_resource()</text>
<text text-anchor="start" x="112" y="-29.5" font-family="Helvetica,sans-Serif" font-size="10.00" fill="#000000">+ root()</text>
<text text-anchor="start" x="112" y="-18.5" font-family="Helvetica,sans-Serif" font-size="10.00" fill="#000000">+ assign_dma_domain()</text>
<text text-anchor="start" x="112" y="-7.5" font-family="Helvetica,sans-Serif" font-size="10.00" fill="#000000">+ assign_dma_domain()</text>
</a>
</g>
</g>
<!-- Node6&#45;&gt;Node7 -->
<g id="edge8" class="edge">
<title>Node6&#45;&gt;Node7</title>
<path fill="none" stroke="#191970" d="M169.5,-150.9888C169.5,-141.8545 169.5,-132.5727 169.5,-123.621"/>
<polygon fill="none" stroke="#191970" points="166.0001,-151.2136 169.5,-161.2136 173.0001,-151.2137 166.0001,-151.2136"/>
</g>
</g>
</svg>
