<?xml version="1.0" encoding="UTF-8" standalone="no"?>
<!DOCTYPE svg PUBLIC "-//W3C//DTD SVG 1.1//EN"
 "http://www.w3.org/Graphics/SVG/1.1/DTD/svg11.dtd">
<!-- Generated by graphviz version 2.40.1 (20161225.0304)
 -->
<!-- Title: L4::Element_already_exists Pages: 1 -->
<svg width="160pt" height="458pt"
 viewBox="0.00 0.00 160.00 458.00" xmlns="http://www.w3.org/2000/svg" xmlns:xlink="http://www.w3.org/1999/xlink">
<g id="graph0" class="graph" transform="scale(1 1) rotate(0) translate(4 454)">
<title>L4::Element_already_exists</title>
<polygon fill="#ffffff" stroke="transparent" points="-4,4 -4,-454 156,-454 156,4 -4,4"/>
<!-- Node0 -->
<g id="node1" class="node">
<title>Node0</title>
<polygon fill="#bfbfbf" stroke="#000000" points="0,-.5 0,-79.5 152,-79.5 152,-.5 0,-.5"/>
<text text-anchor="start" x="8" y="-67.5" font-family="Helvetica,sans-Serif" font-size="10.00" fill="#000000">L4::Element_already</text>
<text text-anchor="middle" x="76" y="-56.5" font-family="Helvetica,sans-Serif" font-size="10.00" fill="#000000">_exists</text>
<polyline fill="none" stroke="#000000" points="0,-49.5 152,-49.5 "/>
<text text-anchor="middle" x="76" y="-37.5" font-family="Helvetica,sans-Serif" font-size="10.00" fill="#000000"> </text>
<polyline fill="none" stroke="#000000" points="0,-30.5 152,-30.5 "/>
<text text-anchor="start" x="8" y="-18.5" font-family="Helvetica,sans-Serif" font-size="10.00" fill="#000000">+ Element_already_exists()</text>
<text text-anchor="start" x="8" y="-7.5" font-family="Helvetica,sans-Serif" font-size="10.00" fill="#000000">+ ~Element_already_exists()</text>
</g>
<!-- Node1 -->
<g id="node2" class="node">
<title>Node1</title>
<g id="a_node2"><a xlink:href="classL4_1_1Runtime__error.html" target="_top" xlink:title="Exception for an abstract runtime error. ">
<polygon fill="#ffffff" stroke="#000000" points="22.5,-116.5 22.5,-217.5 129.5,-217.5 129.5,-116.5 22.5,-116.5"/>
<text text-anchor="middle" x="76" y="-205.5" font-family="Helvetica,sans-Serif" font-size="10.00" fill="#000000">L4::Runtime_error</text>
<polyline fill="none" stroke="#000000" points="22.5,-198.5 129.5,-198.5 "/>
<text text-anchor="middle" x="76" y="-186.5" font-family="Helvetica,sans-Serif" font-size="10.00" fill="#000000"> </text>
<polyline fill="none" stroke="#000000" points="22.5,-179.5 129.5,-179.5 "/>
<text text-anchor="start" x="30.5" y="-167.5" font-family="Helvetica,sans-Serif" font-size="10.00" fill="#000000">+ Runtime_error()</text>
<text text-anchor="start" x="30.5" y="-156.5" font-family="Helvetica,sans-Serif" font-size="10.00" fill="#000000">+ str()</text>
<text text-anchor="start" x="30.5" y="-145.5" font-family="Helvetica,sans-Serif" font-size="10.00" fill="#000000">+ extra_str()</text>
<text text-anchor="start" x="30.5" y="-134.5" font-family="Helvetica,sans-Serif" font-size="10.00" fill="#000000">+ ~Runtime_error()</text>
<text text-anchor="start" x="30.5" y="-123.5" font-family="Helvetica,sans-Serif" font-size="10.00" fill="#000000">+ err_no()</text>
</a>
</g>
</g>
<!-- Node1&#45;&gt;Node0 -->
<g id="edge1" class="edge">
<title>Node1&#45;&gt;Node0</title>
<path fill="none" stroke="#191970" d="M76,-106.3446C76,-97.3388 76,-88.2565 76,-79.8243"/>
<polygon fill="none" stroke="#191970" points="72.5001,-106.4413 76,-116.4413 79.5001,-106.4414 72.5001,-106.4413"/>
</g>
<!-- Node2 -->
<g id="node3" class="node">
<title>Node2</title>
<g id="a_node3"><a xlink:href="classL4_1_1Base__exception.html" target="_top" xlink:title="Base class for all exceptions, thrown by the L4Re framework. ">
<polygon fill="#ffffff" stroke="#000000" points="18,-254.5 18,-333.5 134,-333.5 134,-254.5 18,-254.5"/>
<text text-anchor="middle" x="76" y="-321.5" font-family="Helvetica,sans-Serif" font-size="10.00" fill="#000000">L4::Base_exception</text>
<polyline fill="none" stroke="#000000" points="18,-314.5 134,-314.5 "/>
<text text-anchor="middle" x="76" y="-302.5" font-family="Helvetica,sans-Serif" font-size="10.00" fill="#000000"> </text>
<polyline fill="none" stroke="#000000" points="18,-295.5 134,-295.5 "/>
<text text-anchor="start" x="26" y="-283.5" font-family="Helvetica,sans-Serif" font-size="10.00" fill="#000000">+ str()</text>
<text text-anchor="start" x="26" y="-272.5" font-family="Helvetica,sans-Serif" font-size="10.00" fill="#000000">+ ~Base_exception()</text>
<text text-anchor="start" x="26" y="-261.5" font-family="Helvetica,sans-Serif" font-size="10.00" fill="#000000"># Base_exception()</text>
</a>
</g>
</g>
<!-- Node2&#45;&gt;Node1 -->
<g id="edge2" class="edge">
<title>Node2&#45;&gt;Node1</title>
<path fill="none" stroke="#191970" d="M76,-243.9396C76,-235.3816 76,-226.4823 76,-217.9026"/>
<polygon fill="none" stroke="#191970" points="72.5001,-244.1648 76,-254.1649 79.5001,-244.1649 72.5001,-244.1648"/>
</g>
<!-- Node3 -->
<g id="node4" class="node">
<title>Node3</title>
<g id="a_node4"><a xlink:href="classL4_1_1Exception__tracer.html" target="_top" xlink:title="Back&#45;trace support for exceptions. ">
<polygon fill="#ffffff" stroke="#000000" points="19.5,-370.5 19.5,-449.5 132.5,-449.5 132.5,-370.5 19.5,-370.5"/>
<text text-anchor="middle" x="76" y="-437.5" font-family="Helvetica,sans-Serif" font-size="10.00" fill="#000000">L4::Exception_tracer</text>
<polyline fill="none" stroke="#000000" points="19.5,-430.5 132.5,-430.5 "/>
<text text-anchor="middle" x="76" y="-418.5" font-family="Helvetica,sans-Serif" font-size="10.00" fill="#000000"> </text>
<polyline fill="none" stroke="#000000" points="19.5,-411.5 132.5,-411.5 "/>
<text text-anchor="start" x="27.5" y="-399.5" font-family="Helvetica,sans-Serif" font-size="10.00" fill="#000000">+ pc_array()</text>
<text text-anchor="start" x="27.5" y="-388.5" font-family="Helvetica,sans-Serif" font-size="10.00" fill="#000000">+ frame_count()</text>
<text text-anchor="start" x="27.5" y="-377.5" font-family="Helvetica,sans-Serif" font-size="10.00" fill="#000000"># Exception_tracer()</text>
</a>
</g>
</g>
<!-- Node3&#45;&gt;Node2 -->
<g id="edge3" class="edge">
<title>Node3&#45;&gt;Node2</title>
<path fill="none" stroke="#191970" d="M76,-360.2163C76,-351.394 76,-342.3127 76,-333.8116"/>
<polygon fill="none" stroke="#191970" points="72.5001,-360.4038 76,-370.4038 79.5001,-360.4039 72.5001,-360.4038"/>
</g>
</g>
</svg>
