<?xml version="1.0" encoding="UTF-8" standalone="no"?>
<!DOCTYPE svg PUBLIC "-//W3C//DTD SVG 1.1//EN"
 "http://www.w3.org/Graphics/SVG/1.1/DTD/svg11.dtd">
<!-- Generated by graphviz version 2.40.1 (20161225.0304)
 -->
<!-- Title: L4::Cap_base::snd_base Pages: 1 -->
<svg width="409pt" height="28pt"
 viewBox="0.00 0.00 409.00 28.00" xmlns="http://www.w3.org/2000/svg" xmlns:xlink="http://www.w3.org/1999/xlink">
<g id="graph0" class="graph" transform="scale(1 1) rotate(0) translate(4 24)">
<title>L4::Cap_base::snd_base</title>
<polygon fill="#ffffff" stroke="transparent" points="-4,4 -4,-24 405,-24 405,4 -4,4"/>
<!-- Node76 -->
<g id="node1" class="node">
<title>Node76</title>
<polygon fill="#bfbfbf" stroke="#000000" points="0,-.5 0,-19.5 131,-19.5 131,-.5 0,-.5"/>
<text text-anchor="middle" x="65.5" y="-7.5" font-family="Helvetica,sans-Serif" font-size="10.00" fill="#000000">L4::Cap_base::snd_base</text>
</g>
<!-- Node77 -->
<g id="node2" class="node">
<title>Node77</title>
<g id="a_node2"><a xlink:href="group__l4__msgitem__api.html#ga6c9056957ac92e458eaabcbf3223ce6f" target="_top" xlink:title="Create the first word for a map item for the object space. ">
<polygon fill="#ffffff" stroke="#000000" points="167,-.5 167,-19.5 276,-19.5 276,-.5 167,-.5"/>
<text text-anchor="middle" x="221.5" y="-7.5" font-family="Helvetica,sans-Serif" font-size="10.00" fill="#000000">l4_map_obj_control</text>
</a>
</g>
</g>
<!-- Node76&#45;&gt;Node77 -->
<g id="edge1" class="edge">
<title>Node76&#45;&gt;Node77</title>
<path fill="none" stroke="#191970" d="M131.2059,-10C139.6122,-10 148.2139,-10 156.6071,-10"/>
<polygon fill="#191970" stroke="#191970" points="156.7145,-13.5001 166.7145,-10 156.7144,-6.5001 156.7145,-13.5001"/>
</g>
<!-- Node78 -->
<g id="node3" class="node">
<title>Node78</title>
<g id="a_node3"><a xlink:href="group__l4__msgitem__api.html#ga1ce1321fd25614e9af43a35819540ba7" target="_top" xlink:title="Create the first word for a map item for the memory space. ">
<polygon fill="#ffffff" stroke="#000000" points="312,-.5 312,-19.5 401,-19.5 401,-.5 312,-.5"/>
<text text-anchor="middle" x="356.5" y="-7.5" font-family="Helvetica,sans-Serif" font-size="10.00" fill="#000000">l4_map_control</text>
</a>
</g>
</g>
<!-- Node77&#45;&gt;Node78 -->
<g id="edge2" class="edge">
<title>Node77&#45;&gt;Node78</title>
<path fill="none" stroke="#191970" d="M276.0205,-10C284.4487,-10 293.1573,-10 301.5939,-10"/>
<polygon fill="#191970" stroke="#191970" points="301.7125,-13.5001 311.7125,-10 301.7125,-6.5001 301.7125,-13.5001"/>
</g>
</g>
</svg>
