<?xml version="1.0" encoding="UTF-8" standalone="no"?>
<!DOCTYPE svg PUBLIC "-//W3C//DTD SVG 1.1//EN"
 "http://www.w3.org/Graphics/SVG/1.1/DTD/svg11.dtd">
<!-- Generated by graphviz version 2.40.1 (20161225.0304)
 -->
<!-- Title: L4::Server_object Pages: 1 -->
<svg width="133pt" height="281pt"
 viewBox="0.00 0.00 133.00 281.00" xmlns="http://www.w3.org/2000/svg" xmlns:xlink="http://www.w3.org/1999/xlink">
<g id="graph0" class="graph" transform="scale(1 1) rotate(0) translate(4 277)">
<title>L4::Server_object</title>
<polygon fill="#ffffff" stroke="transparent" points="-4,4 -4,-277 129,-277 129,4 -4,4"/>
<!-- Node5 -->
<g id="node1" class="node">
<title>Node5</title>
<polygon fill="#bfbfbf" stroke="#000000" points="13.5,-.5 13.5,-79.5 111.5,-79.5 111.5,-.5 13.5,-.5"/>
<text text-anchor="middle" x="62.5" y="-67.5" font-family="Helvetica,sans-Serif" font-size="10.00" fill="#000000">L4::Server_object</text>
<polyline fill="none" stroke="#000000" points="13.5,-60.5 111.5,-60.5 "/>
<text text-anchor="middle" x="62.5" y="-48.5" font-family="Helvetica,sans-Serif" font-size="10.00" fill="#000000"> </text>
<polyline fill="none" stroke="#000000" points="13.5,-41.5 111.5,-41.5 "/>
<text text-anchor="start" x="21.5" y="-29.5" font-family="Helvetica,sans-Serif" font-size="10.00" fill="#000000">+ dispatch()</text>
<text text-anchor="start" x="21.5" y="-18.5" font-family="Helvetica,sans-Serif" font-size="10.00" fill="#000000">+ dispatch()</text>
<text text-anchor="start" x="21.5" y="-7.5" font-family="Helvetica,sans-Serif" font-size="10.00" fill="#000000">+ obj_cap()</text>
</g>
<!-- Node6 -->
<g id="node2" class="node">
<title>Node6</title>
<g id="a_node2"><a xlink:href="structL4_1_1Epiface.html" target="_top" xlink:title="Base class for interface implementations. ">
<polygon fill="#ffffff" stroke="#000000" points="0,-116.5 0,-272.5 125,-272.5 125,-116.5 0,-116.5"/>
<text text-anchor="middle" x="62.5" y="-260.5" font-family="Helvetica,sans-Serif" font-size="10.00" fill="#000000">L4::Epiface</text>
<polyline fill="none" stroke="#000000" points="0,-253.5 125,-253.5 "/>
<text text-anchor="middle" x="62.5" y="-241.5" font-family="Helvetica,sans-Serif" font-size="10.00" fill="#000000"> </text>
<polyline fill="none" stroke="#000000" points="0,-234.5 125,-234.5 "/>
<text text-anchor="start" x="8" y="-222.5" font-family="Helvetica,sans-Serif" font-size="10.00" fill="#000000">+ Epiface()</text>
<text text-anchor="start" x="8" y="-211.5" font-family="Helvetica,sans-Serif" font-size="10.00" fill="#000000">+ operator=()</text>
<text text-anchor="start" x="8" y="-200.5" font-family="Helvetica,sans-Serif" font-size="10.00" fill="#000000">+ Epiface()</text>
<text text-anchor="start" x="8" y="-189.5" font-family="Helvetica,sans-Serif" font-size="10.00" fill="#000000">+ dispatch()</text>
<text text-anchor="start" x="8" y="-178.5" font-family="Helvetica,sans-Serif" font-size="10.00" fill="#000000">+ get_buffer_demand()</text>
<text text-anchor="start" x="8" y="-167.5" font-family="Helvetica,sans-Serif" font-size="10.00" fill="#000000">+ ~Epiface()</text>
<text text-anchor="start" x="8" y="-156.5" font-family="Helvetica,sans-Serif" font-size="10.00" fill="#000000">+ obj_cap()</text>
<text text-anchor="start" x="8" y="-145.5" font-family="Helvetica,sans-Serif" font-size="10.00" fill="#000000">+ server_iface()</text>
<text text-anchor="start" x="8" y="-134.5" font-family="Helvetica,sans-Serif" font-size="10.00" fill="#000000">+ set_server()</text>
<text text-anchor="start" x="8" y="-123.5" font-family="Helvetica,sans-Serif" font-size="10.00" fill="#000000">+ set_obj_cap()</text>
</a>
</g>
</g>
<!-- Node6&#45;&gt;Node5 -->
<g id="edge1" class="edge">
<title>Node6&#45;&gt;Node5</title>
<path fill="none" stroke="#191970" d="M62.5,-106.2383C62.5,-96.9787 62.5,-87.9345 62.5,-79.6528"/>
<polygon fill="none" stroke="#191970" points="59.0001,-106.3447 62.5,-116.3447 66.0001,-106.3448 59.0001,-106.3447"/>
</g>
</g>
</svg>
