<?xml version="1.0" encoding="UTF-8" standalone="no"?>
<!DOCTYPE svg PUBLIC "-//W3C//DTD SVG 1.1//EN"
 "http://www.w3.org/Graphics/SVG/1.1/DTD/svg11.dtd">
<!-- Generated by graphviz version 2.40.1 (20161225.0304)
 -->
<!-- Title: L4virtio::Svr::Block_request::data_size Pages: 1 -->
<svg width="434pt" height="225pt"
 viewBox="0.00 0.00 434.00 224.50" xmlns="http://www.w3.org/2000/svg" xmlns:xlink="http://www.w3.org/1999/xlink">
<g id="graph0" class="graph" transform="scale(1 1) rotate(0) translate(4 220.5)">
<title>L4virtio::Svr::Block_request::data_size</title>
<polygon fill="#ffffff" stroke="transparent" points="-4,4 -4,-220.5 430,-220.5 430,4 -4,4"/>
<!-- Node0 -->
<g id="node1" class="node">
<title>Node0</title>
<polygon fill="#bfbfbf" stroke="#000000" points="0,-137 0,-167 108,-167 108,-137 0,-137"/>
<text text-anchor="start" x="8" y="-155" font-family="Helvetica,sans-Serif" font-size="10.00" fill="#000000">L4virtio::Svr::Block</text>
<text text-anchor="middle" x="54" y="-144" font-family="Helvetica,sans-Serif" font-size="10.00" fill="#000000">_request::data_size</text>
</g>
<!-- Node1 -->
<g id="node2" class="node">
<title>Node1</title>
<g id="a_node2"><a xlink:href="classL4virtio_1_1Svr_1_1Request__processor.html#a9038c26764d07c867d6e70cd6e04157d" target="_top" xlink:title="Are there more chained descriptors? ">
<polygon fill="#ffffff" stroke="#000000" points="144,-186 144,-216 266,-216 266,-186 144,-186"/>
<text text-anchor="start" x="152" y="-204" font-family="Helvetica,sans-Serif" font-size="10.00" fill="#000000">L4virtio::Svr::Request</text>
<text text-anchor="middle" x="205" y="-193" font-family="Helvetica,sans-Serif" font-size="10.00" fill="#000000">_processor::has_more</text>
</a>
</g>
</g>
<!-- Node0&#45;&gt;Node1 -->
<g id="edge1" class="edge">
<title>Node0&#45;&gt;Node1</title>
<path fill="none" stroke="#191970" d="M100.5371,-167.1014C115.8222,-172.0615 132.9741,-177.6274 148.8924,-182.7929"/>
<polygon fill="#191970" stroke="#191970" points="148.0245,-186.1909 158.6166,-185.9484 150.1852,-179.5327 148.0245,-186.1909"/>
</g>
<!-- Node3 -->
<g id="node4" class="node">
<title>Node3</title>
<g id="a_node4"><a xlink:href="classL4virtio_1_1Svr_1_1Request__processor.html#a0bb9280caa7b899486ccd83bcf0588cd" target="_top" xlink:title="Switch to the next descriptor in a descriptor chain. ">
<polygon fill="#ffffff" stroke="#000000" points="147.5,-137 147.5,-167 262.5,-167 262.5,-137 147.5,-137"/>
<text text-anchor="start" x="155.5" y="-155" font-family="Helvetica,sans-Serif" font-size="10.00" fill="#000000">L4virtio::Svr::Request</text>
<text text-anchor="middle" x="205" y="-144" font-family="Helvetica,sans-Serif" font-size="10.00" fill="#000000">_processor::next</text>
</a>
</g>
</g>
<!-- Node0&#45;&gt;Node3 -->
<g id="edge3" class="edge">
<title>Node0&#45;&gt;Node3</title>
<path fill="none" stroke="#191970" d="M108.088,-152C117.5719,-152 127.5472,-152 137.3444,-152"/>
<polygon fill="#191970" stroke="#191970" points="137.4616,-155.5001 147.4616,-152 137.4615,-148.5001 137.4616,-155.5001"/>
</g>
<!-- Node5 -->
<g id="node6" class="node">
<title>Node5</title>
<g id="a_node6"><a xlink:href="classL4virtio_1_1Svr_1_1Request__processor.html#abcf6a6b8bf80e0d73d45b5eb9e817abd" target="_top" xlink:title="Start processing a new request. ">
<polygon fill="#ffffff" stroke="#000000" points="147.5,-88 147.5,-118 262.5,-118 262.5,-88 147.5,-88"/>
<text text-anchor="start" x="155.5" y="-106" font-family="Helvetica,sans-Serif" font-size="10.00" fill="#000000">L4virtio::Svr::Request</text>
<text text-anchor="middle" x="205" y="-95" font-family="Helvetica,sans-Serif" font-size="10.00" fill="#000000">_processor::start</text>
</a>
</g>
</g>
<!-- Node0&#45;&gt;Node5 -->
<g id="edge6" class="edge">
<title>Node0&#45;&gt;Node5</title>
<path fill="none" stroke="#191970" d="M100.5371,-136.8986C115.8222,-131.9385 132.9741,-126.3726 148.8924,-121.2071"/>
<polygon fill="#191970" stroke="#191970" points="150.1852,-124.4673 158.6166,-118.0516 148.0245,-117.8091 150.1852,-124.4673"/>
</g>
<!-- Node2 -->
<g id="node3" class="node">
<title>Node2</title>
<g id="a_node3"><a xlink:href="structL4virtio_1_1Virtqueue_1_1Desc_1_1Flags.html#a4c91d7f9a29c6b9f80d7db69ea066863" target="_top" xlink:title="Get the next bits ( 0 to 0 ) of raw. ">
<polygon fill="#ffffff" stroke="#000000" points="314,-186 314,-216 414,-216 414,-186 314,-186"/>
<text text-anchor="start" x="322" y="-204" font-family="Helvetica,sans-Serif" font-size="10.00" fill="#000000">L4virtio::Virtqueue</text>
<text text-anchor="middle" x="364" y="-193" font-family="Helvetica,sans-Serif" font-size="10.00" fill="#000000">::Desc::Flags::next</text>
</a>
</g>
</g>
<!-- Node1&#45;&gt;Node2 -->
<g id="edge2" class="edge">
<title>Node1&#45;&gt;Node2</title>
<path fill="none" stroke="#191970" d="M266.0188,-201C278.4026,-201 291.4197,-201 303.7758,-201"/>
<polygon fill="#191970" stroke="#191970" points="303.971,-204.5001 313.971,-201 303.9709,-197.5001 303.971,-204.5001"/>
</g>
<!-- Node3&#45;&gt;Node2 -->
<g id="edge4" class="edge">
<title>Node3&#45;&gt;Node2</title>
<path fill="none" stroke="#191970" d="M254.0026,-167.1014C270.2494,-172.1083 288.4991,-177.7324 305.3938,-182.939"/>
<polygon fill="#191970" stroke="#191970" points="304.5719,-186.348 315.1592,-185.9484 306.6335,-179.6585 304.5719,-186.348"/>
</g>
<!-- Node4 -->
<g id="node5" class="node">
<title>Node4</title>
<g id="a_node5"><a xlink:href="structL4virtio_1_1Virtqueue_1_1Desc_1_1Flags.html#a978fd95c3be397943f14b0e5c2c9937b" target="_top" xlink:title="Get the indirect bits ( 2 to 2 ) of raw. ">
<polygon fill="#ffffff" stroke="#000000" points="307,-137 307,-167 421,-167 421,-137 307,-137"/>
<text text-anchor="start" x="315" y="-155" font-family="Helvetica,sans-Serif" font-size="10.00" fill="#000000">L4virtio::Virtqueue</text>
<text text-anchor="middle" x="364" y="-144" font-family="Helvetica,sans-Serif" font-size="10.00" fill="#000000">::Desc::Flags::indirect</text>
</a>
</g>
</g>
<!-- Node3&#45;&gt;Node4 -->
<g id="edge5" class="edge">
<title>Node3&#45;&gt;Node4</title>
<path fill="none" stroke="#191970" d="M262.8524,-152C273.8655,-152 285.4786,-152 296.7547,-152"/>
<polygon fill="#191970" stroke="#191970" points="296.9886,-155.5001 306.9886,-152 296.9886,-148.5001 296.9886,-155.5001"/>
</g>
<!-- Node5&#45;&gt;Node4 -->
<g id="edge8" class="edge">
<title>Node5&#45;&gt;Node4</title>
<path fill="none" stroke="#191970" d="M254.0026,-118.1014C270.2494,-123.1083 288.4991,-128.7324 305.3938,-133.939"/>
<polygon fill="#191970" stroke="#191970" points="304.5719,-137.348 315.1592,-136.9484 306.6335,-130.6585 304.5719,-137.348"/>
</g>
<!-- Node6 -->
<g id="node7" class="node">
<title>Node6</title>
<g id="a_node7"><a xlink:href="classL4virtio_1_1Svr_1_1Virtqueue_1_1Head__desc.html#a4aeb9df1c011b08c152e3790668207c3" target="_top" xlink:title="L4virtio::Svr::Virtqueue\l::Head_desc::desc">
<polygon fill="#ffffff" stroke="#000000" points="304,-88 304,-118 424,-118 424,-88 304,-88"/>
<text text-anchor="start" x="312" y="-106" font-family="Helvetica,sans-Serif" font-size="10.00" fill="#000000">L4virtio::Svr::Virtqueue</text>
<text text-anchor="middle" x="364" y="-95" font-family="Helvetica,sans-Serif" font-size="10.00" fill="#000000">::Head_desc::desc</text>
</a>
</g>
</g>
<!-- Node5&#45;&gt;Node6 -->
<g id="edge7" class="edge">
<title>Node5&#45;&gt;Node6</title>
<path fill="none" stroke="#191970" d="M262.8524,-103C272.8416,-103 283.3244,-103 293.6017,-103"/>
<polygon fill="#191970" stroke="#191970" points="293.7845,-106.5001 303.7844,-103 293.7844,-99.5001 293.7845,-106.5001"/>
</g>
<!-- Node7 -->
<g id="node8" class="node">
<title>Node7</title>
<g id="a_node8"><a xlink:href="classL4virtio_1_1Svr_1_1Virtqueue.html#ac9a9a8c91967767446bd75fb98a506db" target="_top" xlink:title="Get a descriptor from the descriptor list. ">
<polygon fill="#ffffff" stroke="#000000" points="304,-39 304,-69 424,-69 424,-39 304,-39"/>
<text text-anchor="start" x="312" y="-57" font-family="Helvetica,sans-Serif" font-size="10.00" fill="#000000">L4virtio::Svr::Virtqueue</text>
<text text-anchor="middle" x="364" y="-46" font-family="Helvetica,sans-Serif" font-size="10.00" fill="#000000">::desc</text>
</a>
</g>
</g>
<!-- Node5&#45;&gt;Node7 -->
<g id="edge9" class="edge">
<title>Node5&#45;&gt;Node7</title>
<path fill="none" stroke="#191970" d="M254.0026,-87.8986C270.2494,-82.8917 288.4991,-77.2676 305.3938,-72.061"/>
<polygon fill="#191970" stroke="#191970" points="306.6335,-75.3415 315.1592,-69.0516 304.5719,-68.652 306.6335,-75.3415"/>
</g>
<!-- Node8 -->
<g id="node9" class="node">
<title>Node8</title>
<g id="a_node9"><a xlink:href="classL4virtio_1_1Virtqueue.html#af61e3e4e436b93f37f22243a1c0ffe0e" target="_top" xlink:title="L4virtio::Virtqueue::num">
<polygon fill="#ffffff" stroke="#000000" points="302,-.5 302,-19.5 426,-19.5 426,-.5 302,-.5"/>
<text text-anchor="middle" x="364" y="-7.5" font-family="Helvetica,sans-Serif" font-size="10.00" fill="#000000">L4virtio::Virtqueue::num</text>
</a>
</g>
</g>
<!-- Node5&#45;&gt;Node8 -->
<g id="edge10" class="edge">
<title>Node5&#45;&gt;Node8</title>
<path fill="none" stroke="#191970" d="M220.9401,-87.9495C239.2235,-71.4111 270.7241,-45.0658 302,-29 306.281,-26.8009 310.8612,-24.8065 315.5212,-23.0096"/>
<polygon fill="#191970" stroke="#191970" points="316.8771,-26.2423 325.1285,-19.5966 314.5338,-19.6462 316.8771,-26.2423"/>
</g>
</g>
</svg>
