<?xml version="1.0" encoding="UTF-8" standalone="no"?>
<!DOCTYPE svg PUBLIC "-//W3C//DTD SVG 1.1//EN"
 "http://www.w3.org/Graphics/SVG/1.1/DTD/svg11.dtd">
<!-- Generated by graphviz version 2.40.1 (20161225.0304)
 -->
<!-- Title: L4vbus::Icu Pages: 1 -->
<svg width="127pt" height="504pt"
 viewBox="0.00 0.00 127.00 504.00" xmlns="http://www.w3.org/2000/svg" xmlns:xlink="http://www.w3.org/1999/xlink">
<g id="graph0" class="graph" transform="scale(1 1) rotate(0) translate(4 500)">
<title>L4vbus::Icu</title>
<polygon fill="#ffffff" stroke="transparent" points="-4,4 -4,-500 123,-500 123,4 -4,4"/>
<!-- Node0 -->
<g id="node1" class="node">
<title>Node0</title>
<polygon fill="#bfbfbf" stroke="#000000" points="25.5,-.5 25.5,-57.5 93.5,-57.5 93.5,-.5 25.5,-.5"/>
<text text-anchor="middle" x="59.5" y="-45.5" font-family="Helvetica,sans-Serif" font-size="10.00" fill="#000000">L4vbus::Icu</text>
<polyline fill="none" stroke="#000000" points="25.5,-38.5 93.5,-38.5 "/>
<text text-anchor="middle" x="59.5" y="-26.5" font-family="Helvetica,sans-Serif" font-size="10.00" fill="#000000"> </text>
<polyline fill="none" stroke="#000000" points="25.5,-19.5 93.5,-19.5 "/>
<text text-anchor="start" x="33.5" y="-7.5" font-family="Helvetica,sans-Serif" font-size="10.00" fill="#000000">+ vicu()</text>
</g>
<!-- Node1 -->
<g id="node2" class="node">
<title>Node1</title>
<g id="a_node2"><a xlink:href="classL4vbus_1_1Device.html" target="_top" xlink:title="Device on a L4vbus::Vbus. ">
<polygon fill="#ffffff" stroke="#000000" points="9,-95.5 9,-273.5 110,-273.5 110,-95.5 9,-95.5"/>
<text text-anchor="middle" x="59.5" y="-261.5" font-family="Helvetica,sans-Serif" font-size="10.00" fill="#000000">L4vbus::Device</text>
<polyline fill="none" stroke="#000000" points="9,-254.5 110,-254.5 "/>
<text text-anchor="start" x="17" y="-242.5" font-family="Helvetica,sans-Serif" font-size="10.00" fill="#000000"># _bus</text>
<text text-anchor="start" x="17" y="-231.5" font-family="Helvetica,sans-Serif" font-size="10.00" fill="#000000"># _dev</text>
<polyline fill="none" stroke="#000000" points="9,-224.5 110,-224.5 "/>
<text text-anchor="start" x="17" y="-212.5" font-family="Helvetica,sans-Serif" font-size="10.00" fill="#000000">+ Device()</text>
<text text-anchor="start" x="17" y="-201.5" font-family="Helvetica,sans-Serif" font-size="10.00" fill="#000000">+ Device()</text>
<text text-anchor="start" x="17" y="-190.5" font-family="Helvetica,sans-Serif" font-size="10.00" fill="#000000">+ bus_cap()</text>
<text text-anchor="start" x="17" y="-179.5" font-family="Helvetica,sans-Serif" font-size="10.00" fill="#000000">+ dev_handle()</text>
<text text-anchor="start" x="17" y="-168.5" font-family="Helvetica,sans-Serif" font-size="10.00" fill="#000000">+ device_by_hid()</text>
<text text-anchor="start" x="17" y="-157.5" font-family="Helvetica,sans-Serif" font-size="10.00" fill="#000000">+ next_device()</text>
<text text-anchor="start" x="17" y="-146.5" font-family="Helvetica,sans-Serif" font-size="10.00" fill="#000000">+ device()</text>
<text text-anchor="start" x="17" y="-135.5" font-family="Helvetica,sans-Serif" font-size="10.00" fill="#000000">+ get_resource()</text>
<text text-anchor="start" x="17" y="-124.5" font-family="Helvetica,sans-Serif" font-size="10.00" fill="#000000">+ is_compatible()</text>
<text text-anchor="start" x="17" y="-113.5" font-family="Helvetica,sans-Serif" font-size="10.00" fill="#000000">+ operator==()</text>
<text text-anchor="start" x="17" y="-102.5" font-family="Helvetica,sans-Serif" font-size="10.00" fill="#000000">+ operator!=()</text>
</a>
</g>
</g>
<!-- Node1&#45;&gt;Node0 -->
<g id="edge1" class="edge">
<title>Node1&#45;&gt;Node0</title>
<path fill="none" stroke="#191970" d="M59.5,-85.3332C59.5,-75.4109 59.5,-65.9934 59.5,-57.7987"/>
<polygon fill="none" stroke="#191970" points="56.0001,-85.397 59.5,-95.397 63.0001,-85.3971 56.0001,-85.397"/>
</g>
<!-- Node2 -->
<g id="node3" class="node">
<title>Node2</title>
<g id="a_node3"><a xlink:href="classL4vbus_1_1Pm.html" target="_top" xlink:title="{L4vbus::Pm\&lt; Device \&gt;\n||+ pm_suspend()\l+ pm_resume()\l}">
<polygon fill="#ffffff" stroke="#000000" points="0,-311.5 0,-379.5 119,-379.5 119,-311.5 0,-311.5"/>
<text text-anchor="middle" x="59.5" y="-367.5" font-family="Helvetica,sans-Serif" font-size="10.00" fill="#000000">L4vbus::Pm&lt; Device &gt;</text>
<polyline fill="none" stroke="#000000" points="0,-360.5 119,-360.5 "/>
<text text-anchor="middle" x="59.5" y="-348.5" font-family="Helvetica,sans-Serif" font-size="10.00" fill="#000000"> </text>
<polyline fill="none" stroke="#000000" points="0,-341.5 119,-341.5 "/>
<text text-anchor="start" x="8" y="-329.5" font-family="Helvetica,sans-Serif" font-size="10.00" fill="#000000">+ pm_suspend()</text>
<text text-anchor="start" x="8" y="-318.5" font-family="Helvetica,sans-Serif" font-size="10.00" fill="#000000">+ pm_resume()</text>
</a>
</g>
</g>
<!-- Node2&#45;&gt;Node1 -->
<g id="edge2" class="edge">
<title>Node2&#45;&gt;Node1</title>
<path fill="none" stroke="#191970" d="M59.5,-301.1668C59.5,-292.4962 59.5,-283.1188 59.5,-273.5789"/>
<polygon fill="none" stroke="#191970" points="56.0001,-301.356 59.5,-311.356 63.0001,-301.3561 56.0001,-301.356"/>
</g>
<!-- Node3 -->
<g id="node4" class="node">
<title>Node3</title>
<g id="a_node4"><a xlink:href="classL4vbus_1_1Pm.html" target="_top" xlink:title="Power&#45;management API mixin. ">
<polygon fill="#ffffff" stroke="#000000" points="5,-427.5 5,-495.5 114,-495.5 114,-427.5 5,-427.5"/>
<text text-anchor="middle" x="59.5" y="-483.5" font-family="Helvetica,sans-Serif" font-size="10.00" fill="#000000">L4vbus::Pm&lt; DEC &gt;</text>
<polyline fill="none" stroke="#000000" points="5,-476.5 114,-476.5 "/>
<text text-anchor="middle" x="59.5" y="-464.5" font-family="Helvetica,sans-Serif" font-size="10.00" fill="#000000"> </text>
<polyline fill="none" stroke="#000000" points="5,-457.5 114,-457.5 "/>
<text text-anchor="start" x="13" y="-445.5" font-family="Helvetica,sans-Serif" font-size="10.00" fill="#000000">+ pm_suspend()</text>
<text text-anchor="start" x="13" y="-434.5" font-family="Helvetica,sans-Serif" font-size="10.00" fill="#000000">+ pm_resume()</text>
</a>
</g>
</g>
<!-- Node3&#45;&gt;Node2 -->
<g id="edge3" class="edge">
<title>Node3&#45;&gt;Node2</title>
<path fill="none" stroke="#ffa500" d="M59.5,-417.1851C59.5,-404.8048 59.5,-391.5422 59.5,-379.833"/>
<polygon fill="#ffa500" stroke="#ffa500" points="56.0001,-417.3235 59.5,-427.3236 63.0001,-417.3236 56.0001,-417.3235"/>
<text text-anchor="middle" x="86.5" y="-401" font-family="Helvetica,sans-Serif" font-size="10.00" fill="#000000"> &lt; Device &gt;</text>
</g>
</g>
</svg>
