<?xml version="1.0" encoding="UTF-8" standalone="no"?>
<!DOCTYPE svg PUBLIC "-//W3C//DTD SVG 1.1//EN"
 "http://www.w3.org/Graphics/SVG/1.1/DTD/svg11.dtd">
<!-- Generated by graphviz version 2.40.1 (20161225.0304)
 -->
<!-- Title: cxx::List_item::remove_me Pages: 1 -->
<svg width="437pt" height="39pt"
 viewBox="0.00 0.00 437.00 39.00" xmlns="http://www.w3.org/2000/svg" xmlns:xlink="http://www.w3.org/1999/xlink">
<g id="graph0" class="graph" transform="scale(1 1) rotate(0) translate(4 35)">
<title>cxx::List_item::remove_me</title>
<polygon fill="#ffffff" stroke="transparent" points="-4,4 -4,-35 433,-35 433,4 -4,4"/>
<!-- Node31 -->
<g id="node1" class="node">
<title>Node31</title>
<polygon fill="#bfbfbf" stroke="#000000" points="0,-6 0,-25 139,-25 139,-6 0,-6"/>
<text text-anchor="middle" x="69.5" y="-13" font-family="Helvetica,sans-Serif" font-size="10.00" fill="#000000">cxx::List_item::remove_me</text>
</g>
<!-- Node32 -->
<g id="node2" class="node">
<title>Node32</title>
<g id="a_node2"><a xlink:href="classcxx_1_1List__item_1_1Iter.html#a0ef357e10b4f813b7289fbe689688f6e" target="_top" xlink:title="Remove item pointed to by iterator, and return pointer to element. ">
<polygon fill="#ffffff" stroke="#000000" points="175,-.5 175,-30.5 274,-30.5 274,-.5 175,-.5"/>
<text text-anchor="start" x="183" y="-18.5" font-family="Helvetica,sans-Serif" font-size="10.00" fill="#000000">cxx::List_item::Iter</text>
<text text-anchor="middle" x="224.5" y="-7.5" font-family="Helvetica,sans-Serif" font-size="10.00" fill="#000000">::remove_me</text>
</a>
</g>
</g>
<!-- Node31&#45;&gt;Node32 -->
<g id="edge1" class="edge">
<title>Node31&#45;&gt;Node32</title>
<path fill="none" stroke="#191970" d="M149.3585,-15.5C157.9405,-15.5 166.4838,-15.5 174.5671,-15.5"/>
<polygon fill="#191970" stroke="#191970" points="149.2917,-12.0001 139.2916,-15.5 149.2916,-19.0001 149.2917,-12.0001"/>
</g>
<!-- Node33 -->
<g id="node3" class="node">
<title>Node33</title>
<g id="a_node3"><a xlink:href="classcxx_1_1List__item.html#a242fb5c7f48eeea6c4117c213f2d0120" target="_top" xlink:title="Remove item from a list. ">
<polygon fill="#ffffff" stroke="#000000" points="310,-6 310,-25 429,-25 429,-6 310,-6"/>
<text text-anchor="middle" x="369.5" y="-13" font-family="Helvetica,sans-Serif" font-size="10.00" fill="#000000">cxx::List_item::remove</text>
</a>
</g>
</g>
<!-- Node32&#45;&gt;Node33 -->
<g id="edge2" class="edge">
<title>Node32&#45;&gt;Node33</title>
<path fill="none" stroke="#191970" d="M284.4515,-15.5C292.81,-15.5 301.3981,-15.5 309.7529,-15.5"/>
<polygon fill="#191970" stroke="#191970" points="284.4008,-12.0001 274.4008,-15.5 284.4007,-19.0001 284.4008,-12.0001"/>
</g>
</g>
</svg>
