<?xml version="1.0" encoding="UTF-8" standalone="no"?>
<!DOCTYPE svg PUBLIC "-//W3C//DTD SVG 1.1//EN"
 "http://www.w3.org/Graphics/SVG/1.1/DTD/svg11.dtd">
<!-- Generated by graphviz version 2.40.1 (20161225.0304)
 -->
<!-- Title: cxx::Bitfield::val_dirty Pages: 1 -->
<svg width="467pt" height="116pt"
 viewBox="0.00 0.00 467.00 115.50" xmlns="http://www.w3.org/2000/svg" xmlns:xlink="http://www.w3.org/1999/xlink">
<g id="graph0" class="graph" transform="scale(1 1) rotate(0) translate(4 111.5)">
<title>cxx::Bitfield::val_dirty</title>
<polygon fill="#ffffff" stroke="transparent" points="-4,4 -4,-111.5 463,-111.5 463,4 -4,4"/>
<!-- Node32 -->
<g id="node1" class="node">
<title>Node32</title>
<polygon fill="#bfbfbf" stroke="#000000" points="0,-44.5 0,-74.5 86,-74.5 86,-44.5 0,-44.5"/>
<text text-anchor="start" x="8" y="-62.5" font-family="Helvetica,sans-Serif" font-size="10.00" fill="#000000">cxx::Bitfield::val</text>
<text text-anchor="middle" x="43" y="-51.5" font-family="Helvetica,sans-Serif" font-size="10.00" fill="#000000">_dirty</text>
</g>
<!-- Node33 -->
<g id="node2" class="node">
<title>Node33</title>
<g id="a_node2"><a xlink:href="classcxx_1_1Bitfield.html#a3384706160a84e15a283e2c639071a26" target="_top" xlink:title="Get the shifted bits for val. ">
<polygon fill="#ffffff" stroke="#000000" points="122,-50 122,-69 208,-69 208,-50 122,-50"/>
<text text-anchor="middle" x="165" y="-57" font-family="Helvetica,sans-Serif" font-size="10.00" fill="#000000">cxx::Bitfield::val</text>
</a>
</g>
</g>
<!-- Node32&#45;&gt;Node33 -->
<g id="edge1" class="edge">
<title>Node32&#45;&gt;Node33</title>
<path fill="none" stroke="#191970" d="M96.0386,-59.5C104.701,-59.5 113.5813,-59.5 121.9646,-59.5"/>
<polygon fill="#191970" stroke="#191970" points="96.0127,-56.0001 86.0126,-59.5 96.0126,-63.0001 96.0127,-56.0001"/>
</g>
<!-- Node34 -->
<g id="node3" class="node">
<title>Node34</title>
<g id="a_node3"><a xlink:href="classcxx_1_1Bitfield.html#a50d93d103f4b31798399bc349cb4d210" target="_top" xlink:title="Get the bits out of val. ">
<polygon fill="#ffffff" stroke="#000000" points="246,-88 246,-107 334,-107 334,-88 246,-88"/>
<text text-anchor="middle" x="290" y="-95" font-family="Helvetica,sans-Serif" font-size="10.00" fill="#000000">cxx::Bitfield::get</text>
</a>
</g>
</g>
<!-- Node33&#45;&gt;Node34 -->
<g id="edge2" class="edge">
<title>Node33&#45;&gt;Node34</title>
<path fill="none" stroke="#191970" d="M206.2345,-72.0353C223.2393,-77.2048 242.6286,-83.0991 258.4673,-87.9141"/>
<polygon fill="#191970" stroke="#191970" points="207.1285,-68.649 196.5428,-69.089 205.0924,-75.3463 207.1285,-68.649"/>
</g>
<!-- Node35 -->
<g id="node4" class="node">
<title>Node35</title>
<g id="a_node4"><a xlink:href="classcxx_1_1Bitfield.html#a0ecb232dbd24976e50f5a6674b504517" target="_top" xlink:title="Set the bits corresponding to val. ">
<polygon fill="#ffffff" stroke="#000000" points="246.5,-50 246.5,-69 333.5,-69 333.5,-50 246.5,-50"/>
<text text-anchor="middle" x="290" y="-57" font-family="Helvetica,sans-Serif" font-size="10.00" fill="#000000">cxx::Bitfield::set</text>
</a>
</g>
</g>
<!-- Node33&#45;&gt;Node35 -->
<g id="edge3" class="edge">
<title>Node33&#45;&gt;Node35</title>
<path fill="none" stroke="#191970" d="M218.122,-59.5C227.5787,-59.5 237.3284,-59.5 246.4785,-59.5"/>
<polygon fill="#191970" stroke="#191970" points="218.0179,-56.0001 208.0179,-59.5 218.0179,-63.0001 218.0179,-56.0001"/>
</g>
<!-- Node36 -->
<g id="node5" class="node">
<title>Node36</title>
<g id="a_node5"><a xlink:href="classcxx_1_1Bitfield.html#ae6e85dede315b549dfec835d92525948" target="_top" xlink:title="Set the bits corresponding to val. ">
<polygon fill="#ffffff" stroke="#000000" points="244,-.5 244,-30.5 336,-30.5 336,-.5 244,-.5"/>
<text text-anchor="start" x="252" y="-18.5" font-family="Helvetica,sans-Serif" font-size="10.00" fill="#000000">cxx::Bitfield::set</text>
<text text-anchor="middle" x="290" y="-7.5" font-family="Helvetica,sans-Serif" font-size="10.00" fill="#000000">_unshifted_dirty</text>
</a>
</g>
</g>
<!-- Node33&#45;&gt;Node36 -->
<g id="edge4" class="edge">
<title>Node33&#45;&gt;Node36</title>
<path fill="none" stroke="#191970" d="M201.6148,-46.6116C215.8987,-41.5837 232.3736,-35.7845 247.2007,-30.5654"/>
<polygon fill="#191970" stroke="#191970" points="200.3937,-43.3308 192.1231,-49.9527 202.718,-49.9337 200.3937,-43.3308"/>
</g>
<!-- Node37 -->
<g id="node6" class="node">
<title>Node37</title>
<g id="a_node6"><a xlink:href="classcxx_1_1Bitfield.html#ae9c4c45aeb034031a6d5cd5484e571bb" target="_top" xlink:title="Set the bits corresponding to val. ">
<polygon fill="#ffffff" stroke="#000000" points="372,-.5 372,-30.5 459,-30.5 459,-.5 372,-.5"/>
<text text-anchor="start" x="380" y="-18.5" font-family="Helvetica,sans-Serif" font-size="10.00" fill="#000000">cxx::Bitfield::set</text>
<text text-anchor="middle" x="415.5" y="-7.5" font-family="Helvetica,sans-Serif" font-size="10.00" fill="#000000">_unshifted</text>
</a>
</g>
</g>
<!-- Node36&#45;&gt;Node37 -->
<g id="edge5" class="edge">
<title>Node36&#45;&gt;Node37</title>
<path fill="none" stroke="#191970" d="M346.0952,-15.5C354.7805,-15.5 363.6378,-15.5 371.9914,-15.5"/>
<polygon fill="#191970" stroke="#191970" points="346.019,-12.0001 336.0189,-15.5 346.0189,-19.0001 346.019,-12.0001"/>
</g>
</g>
</svg>
