<?xml version="1.0" encoding="UTF-8" standalone="no"?>
<!DOCTYPE svg PUBLIC "-//W3C//DTD SVG 1.1//EN"
 "http://www.w3.org/Graphics/SVG/1.1/DTD/svg11.dtd">
<!-- Generated by graphviz version 2.40.1 (20161225.0304)
 -->
<!-- Title: L4::Poll_timeout_kipclock::set Pages: 1 -->
<svg width="350pt" height="66pt"
 viewBox="0.00 0.00 350.00 66.00" xmlns="http://www.w3.org/2000/svg" xmlns:xlink="http://www.w3.org/1999/xlink">
<g id="graph0" class="graph" transform="scale(1 1) rotate(0) translate(4 62)">
<title>L4::Poll_timeout_kipclock::set</title>
<polygon fill="#ffffff" stroke="transparent" points="-4,4 -4,-62 346,-62 346,4 -4,4"/>
<!-- Node2 -->
<g id="node1" class="node">
<title>Node2</title>
<polygon fill="#bfbfbf" stroke="#000000" points="0,-19.5 0,-38.5 152,-38.5 152,-19.5 0,-19.5"/>
<text text-anchor="middle" x="76" y="-26.5" font-family="Helvetica,sans-Serif" font-size="10.00" fill="#000000">L4::Poll_timeout_kipclock::set</text>
</g>
<!-- Node3 -->
<g id="node2" class="node">
<title>Node3</title>
<g id="a_node2"><a xlink:href="group__l4__kip__api.html#ga833b0dd3ac6cf62453707f89d695a96f" target="_top" xlink:title="Return clock value from the KIP. ">
<polygon fill="#ffffff" stroke="#000000" points="188,-38.5 188,-57.5 262,-57.5 262,-38.5 188,-38.5"/>
<text text-anchor="middle" x="225" y="-45.5" font-family="Helvetica,sans-Serif" font-size="10.00" fill="#000000">l4_kip_clock</text>
</a>
</g>
</g>
<!-- Node2&#45;&gt;Node3 -->
<g id="edge1" class="edge">
<title>Node2&#45;&gt;Node3</title>
<path fill="none" stroke="#191970" d="M150.9365,-38.5557C160.0042,-39.7119 169.0632,-40.8671 177.5762,-41.9527"/>
<polygon fill="#191970" stroke="#191970" points="177.2909,-45.4446 187.6534,-43.2377 178.1765,-38.5008 177.2909,-45.4446"/>
</g>
<!-- Node5 -->
<g id="node4" class="node">
<title>Node5</title>
<g id="a_node4"><a xlink:href="group__api__l4re__env.html#gae222fd7f694a90a34b8bde0edd265f4b" target="_top" xlink:title="Get Kernel Info Page. ">
<polygon fill="#ffffff" stroke="#000000" points="198,-.5 198,-19.5 252,-19.5 252,-.5 198,-.5"/>
<text text-anchor="middle" x="225" y="-7.5" font-family="Helvetica,sans-Serif" font-size="10.00" fill="#000000">l4re_kip</text>
</a>
</g>
</g>
<!-- Node2&#45;&gt;Node5 -->
<g id="edge3" class="edge">
<title>Node2&#45;&gt;Node5</title>
<path fill="none" stroke="#191970" d="M150.9365,-19.4443C163.6774,-17.8197 176.4013,-16.1972 187.6175,-14.7669"/>
<polygon fill="#191970" stroke="#191970" points="188.3837,-18.1976 197.8606,-13.4607 187.4982,-11.2539 188.3837,-18.1976"/>
</g>
<!-- Node4 -->
<g id="node3" class="node">
<title>Node4</title>
<g id="a_node3"><a xlink:href="group__l4sys__defines.html#ga5d5bbbe36a0d144d1f465dbca715718e" target="_top" xlink:title="Memory barrier. ">
<polygon fill="#ffffff" stroke="#000000" points="298,-38.5 298,-57.5 342,-57.5 342,-38.5 298,-38.5"/>
<text text-anchor="middle" x="320" y="-45.5" font-family="Helvetica,sans-Serif" font-size="10.00" fill="#000000">l4_mb</text>
</a>
</g>
</g>
<!-- Node3&#45;&gt;Node4 -->
<g id="edge2" class="edge">
<title>Node3&#45;&gt;Node4</title>
<path fill="none" stroke="#191970" d="M262.0015,-48C270.5001,-48 279.4706,-48 287.7497,-48"/>
<polygon fill="#191970" stroke="#191970" points="287.7792,-51.5001 297.7792,-48 287.7792,-44.5001 287.7792,-51.5001"/>
</g>
</g>
</svg>
