<?xml version="1.0" encoding="UTF-8" standalone="no"?>
<!DOCTYPE svg PUBLIC "-//W3C//DTD SVG 1.1//EN"
 "http://www.w3.org/Graphics/SVG/1.1/DTD/svg11.dtd">
<!-- Generated by graphviz version 2.40.1 (20161225.0304)
 -->
<!-- Title: L4::Ipc::Ostream::send Pages: 1 -->
<svg width="318pt" height="28pt"
 viewBox="0.00 0.00 318.00 28.00" xmlns="http://www.w3.org/2000/svg" xmlns:xlink="http://www.w3.org/1999/xlink">
<g id="graph0" class="graph" transform="scale(1 1) rotate(0) translate(4 24)">
<title>L4::Ipc::Ostream::send</title>
<polygon fill="#ffffff" stroke="transparent" points="-4,4 -4,-24 314,-24 314,4 -4,4"/>
<!-- Node7 -->
<g id="node1" class="node">
<title>Node7</title>
<polygon fill="#bfbfbf" stroke="#000000" points="0,-.5 0,-19.5 120,-19.5 120,-.5 0,-.5"/>
<text text-anchor="middle" x="60" y="-7.5" font-family="Helvetica,sans-Serif" font-size="10.00" fill="#000000">L4::Ipc::Ostream::send</text>
</g>
<!-- Node8 -->
<g id="node2" class="node">
<title>Node8</title>
<g id="a_node2"><a xlink:href="group__l4__ipc__api.html#ga7de45eb59ce852466362ea85da00299e" target="_top" xlink:title="Send a message to an object (do not wait for a reply). ">
<polygon fill="#ffffff" stroke="#000000" points="156,-.5 156,-19.5 230,-19.5 230,-.5 156,-.5"/>
<text text-anchor="middle" x="193" y="-7.5" font-family="Helvetica,sans-Serif" font-size="10.00" fill="#000000">l4_ipc_send</text>
</a>
</g>
</g>
<!-- Node7&#45;&gt;Node8 -->
<g id="edge1" class="edge">
<title>Node7&#45;&gt;Node8</title>
<path fill="none" stroke="#191970" d="M120.2737,-10C128.7792,-10 137.4216,-10 145.638,-10"/>
<polygon fill="#191970" stroke="#191970" points="145.7753,-13.5001 155.7752,-10 145.7752,-6.5001 145.7753,-13.5001"/>
</g>
<!-- Node9 -->
<g id="node3" class="node">
<title>Node9</title>
<g id="a_node3"><a xlink:href="group__l4__ipc__api.html#ga0e7e5b18d784b1d3439ea6e5b4bea4e2" target="_top" xlink:title="Generic L4 object invocation. ">
<polygon fill="#ffffff" stroke="#000000" points="266,-.5 266,-19.5 310,-19.5 310,-.5 266,-.5"/>
<text text-anchor="middle" x="288" y="-7.5" font-family="Helvetica,sans-Serif" font-size="10.00" fill="#000000">l4_ipc</text>
</a>
</g>
</g>
<!-- Node8&#45;&gt;Node9 -->
<g id="edge2" class="edge">
<title>Node8&#45;&gt;Node9</title>
<path fill="none" stroke="#191970" d="M230.0015,-10C238.5001,-10 247.4706,-10 255.7497,-10"/>
<polygon fill="#191970" stroke="#191970" points="255.7792,-13.5001 265.7792,-10 255.7792,-6.5001 255.7792,-13.5001"/>
</g>
</g>
</svg>
