<?xml version="1.0" encoding="UTF-8" standalone="no"?>
<!DOCTYPE svg PUBLIC "-//W3C//DTD SVG 1.1//EN"
 "http://www.w3.org/Graphics/SVG/1.1/DTD/svg11.dtd">
<!-- Generated by graphviz version 2.40.1 (20161225.0304)
 -->
<!-- Title: L4Re::Util::Object_registry::register_irq_obj Pages: 1 -->
<svg width="243pt" height="50pt"
 viewBox="0.00 0.00 243.00 50.00" xmlns="http://www.w3.org/2000/svg" xmlns:xlink="http://www.w3.org/1999/xlink">
<g id="graph0" class="graph" transform="scale(1 1) rotate(0) translate(4 46)">
<title>L4Re::Util::Object_registry::register_irq_obj</title>
<polygon fill="#ffffff" stroke="transparent" points="-4,4 -4,-46 239,-46 239,4 -4,4"/>
<!-- Node5 -->
<g id="node1" class="node">
<title>Node5</title>
<polygon fill="#bfbfbf" stroke="#000000" points="0,-.5 0,-41.5 98,-41.5 98,-.5 0,-.5"/>
<text text-anchor="start" x="8" y="-29.5" font-family="Helvetica,sans-Serif" font-size="10.00" fill="#000000">L4Re::Util::Object</text>
<text text-anchor="start" x="8" y="-18.5" font-family="Helvetica,sans-Serif" font-size="10.00" fill="#000000">_registry::register</text>
<text text-anchor="middle" x="49" y="-7.5" font-family="Helvetica,sans-Serif" font-size="10.00" fill="#000000">_irq_obj</text>
</g>
<!-- Node6 -->
<g id="node2" class="node">
<title>Node6</title>
<g id="a_node2"><a xlink:href="classL4_1_1Registry__iface.html#ab2b05d116e522ebe06ebabe32bd7283a" target="_top" xlink:title="Register o as server&#45;side object for asynchronous IRQs. ">
<polygon fill="#ffffff" stroke="#000000" points="134,-6 134,-36 235,-36 235,-6 134,-6"/>
<text text-anchor="start" x="142" y="-24" font-family="Helvetica,sans-Serif" font-size="10.00" fill="#000000">L4::Registry_iface</text>
<text text-anchor="middle" x="184.5" y="-13" font-family="Helvetica,sans-Serif" font-size="10.00" fill="#000000">::register_irq_obj</text>
</a>
</g>
</g>
<!-- Node5&#45;&gt;Node6 -->
<g id="edge1" class="edge">
<title>Node5&#45;&gt;Node6</title>
<path fill="none" stroke="#191970" d="M98.3019,-21C106.479,-21 115.0441,-21 123.4693,-21"/>
<polygon fill="#191970" stroke="#191970" points="123.6412,-24.5001 133.6412,-21 123.6412,-17.5001 123.6412,-24.5001"/>
</g>
</g>
</svg>
