<?xml version="1.0" encoding="UTF-8" standalone="no"?>
<!DOCTYPE svg PUBLIC "-//W3C//DTD SVG 1.1//EN"
 "http://www.w3.org/Graphics/SVG/1.1/DTD/svg11.dtd">
<!-- Generated by graphviz version 2.40.1 (20161225.0304)
 -->
<!-- Title: cxx::String::find Pages: 1 -->
<svg width="217pt" height="66pt"
 viewBox="0.00 0.00 217.00 66.00" xmlns="http://www.w3.org/2000/svg" xmlns:xlink="http://www.w3.org/1999/xlink">
<g id="graph0" class="graph" transform="scale(1 1) rotate(0) translate(4 62)">
<title>cxx::String::find</title>
<polygon fill="#ffffff" stroke="transparent" points="-4,4 -4,-62 213,-62 213,4 -4,4"/>
<!-- Node2 -->
<g id="node1" class="node">
<title>Node2</title>
<polygon fill="#bfbfbf" stroke="#000000" points="0,-19.5 0,-38.5 86,-38.5 86,-19.5 0,-19.5"/>
<text text-anchor="middle" x="43" y="-26.5" font-family="Helvetica,sans-Serif" font-size="10.00" fill="#000000">cxx::String::find</text>
</g>
<!-- Node3 -->
<g id="node2" class="node">
<title>Node3</title>
<g id="a_node2"><a xlink:href="classcxx_1_1String.html#a21ab9dc0ee0f3971d9f858c54dcec286" target="_top" xlink:title="Pointer to first byte behind the string. ">
<polygon fill="#ffffff" stroke="#000000" points="122,-38.5 122,-57.5 209,-57.5 209,-38.5 122,-38.5"/>
<text text-anchor="middle" x="165.5" y="-45.5" font-family="Helvetica,sans-Serif" font-size="10.00" fill="#000000">cxx::String::end</text>
</a>
</g>
</g>
<!-- Node2&#45;&gt;Node3 -->
<g id="edge1" class="edge">
<title>Node2&#45;&gt;Node3</title>
<path fill="none" stroke="#191970" d="M86.1889,-35.6987C94.5066,-36.9888 103.3124,-38.3546 111.9133,-39.6886"/>
<polygon fill="#191970" stroke="#191970" points="111.4561,-43.1595 121.8744,-41.2336 112.5291,-36.2422 111.4561,-43.1595"/>
</g>
<!-- Node4 -->
<g id="node3" class="node">
<title>Node4</title>
<g id="a_node3"><a xlink:href="classcxx_1_1String.html#a5368753551d0792f7a6688831f11c8ea" target="_top" xlink:title="Check if pointer s points behind string. ">
<polygon fill="#ffffff" stroke="#000000" points="123.5,-.5 123.5,-19.5 207.5,-19.5 207.5,-.5 123.5,-.5"/>
<text text-anchor="middle" x="165.5" y="-7.5" font-family="Helvetica,sans-Serif" font-size="10.00" fill="#000000">cxx::String::eof</text>
</a>
</g>
</g>
<!-- Node2&#45;&gt;Node4 -->
<g id="edge2" class="edge">
<title>Node2&#45;&gt;Node4</title>
<path fill="none" stroke="#191970" d="M86.1889,-22.3013C94.8973,-20.9506 104.1407,-19.517 113.1239,-18.1236"/>
<polygon fill="#191970" stroke="#191970" points="113.7679,-21.5657 123.1133,-16.5743 112.6949,-14.6484 113.7679,-21.5657"/>
</g>
</g>
</svg>
