<?xml version="1.0" encoding="UTF-8" standalone="no"?>
<!DOCTYPE svg PUBLIC "-//W3C//DTD SVG 1.1//EN"
 "http://www.w3.org/Graphics/SVG/1.1/DTD/svg11.dtd">
<!-- Generated by graphviz version 2.40.1 (20161225.0304)
 -->
<!-- Title: cxx::Base_slab::alloc Pages: 1 -->
<svg width="275pt" height="61pt"
 viewBox="0.00 0.00 275.00 61.00" xmlns="http://www.w3.org/2000/svg" xmlns:xlink="http://www.w3.org/1999/xlink">
<g id="graph0" class="graph" transform="scale(1 1) rotate(0) translate(4 57)">
<title>cxx::Base_slab::alloc</title>
<polygon fill="#ffffff" stroke="transparent" points="-4,4 -4,-57 271,-57 271,4 -4,4"/>
<!-- Node1 -->
<g id="node1" class="node">
<title>Node1</title>
<polygon fill="#bfbfbf" stroke="#000000" points="0,-17 0,-36 112,-36 112,-17 0,-17"/>
<text text-anchor="middle" x="56" y="-24" font-family="Helvetica,sans-Serif" font-size="10.00" fill="#000000">cxx::Base_slab::alloc</text>
</g>
<!-- Node2 -->
<g id="node2" class="node">
<title>Node2</title>
<g id="a_node2"><a xlink:href="classcxx_1_1Base__slab__static.html#ac14d1b49aa4cae0545c3965f63bb9892" target="_top" xlink:title="Allocate an object. ">
<polygon fill="#ffffff" stroke="#000000" points="148,-.5 148,-52.5 267,-52.5 267,-.5 148,-.5"/>
<text text-anchor="start" x="156" y="-40.5" font-family="Helvetica,sans-Serif" font-size="10.00" fill="#000000">cxx::Base_slab_static</text>
<text text-anchor="start" x="156" y="-29.5" font-family="Helvetica,sans-Serif" font-size="10.00" fill="#000000">&lt; sizeof(Type), Slab</text>
<text text-anchor="start" x="156" y="-18.5" font-family="Helvetica,sans-Serif" font-size="10.00" fill="#000000">_size, Max_free, Alloc</text>
<text text-anchor="middle" x="207.5" y="-7.5" font-family="Helvetica,sans-Serif" font-size="10.00" fill="#000000"> &gt;::alloc</text>
</a>
</g>
</g>
<!-- Node1&#45;&gt;Node2 -->
<g id="edge1" class="edge">
<title>Node1&#45;&gt;Node2</title>
<path fill="none" stroke="#191970" d="M122.6147,-26.5C131.0645,-26.5 139.6682,-26.5 147.9969,-26.5"/>
<polygon fill="#191970" stroke="#191970" points="122.413,-23.0001 112.413,-26.5 122.413,-30.0001 122.413,-23.0001"/>
</g>
</g>
</svg>
