<?xml version="1.0" encoding="UTF-8" standalone="no"?>
<!DOCTYPE svg PUBLIC "-//W3C//DTD SVG 1.1//EN"
 "http://www.w3.org/Graphics/SVG/1.1/DTD/svg11.dtd">
<!-- Generated by graphviz version 2.40.1 (20161225.0304)
 -->
<!-- Title: L4virtio::Virtqueue Pages: 1 -->
<svg width="588pt" height="821pt"
 viewBox="0.00 0.00 588.00 821.00" xmlns="http://www.w3.org/2000/svg" xmlns:xlink="http://www.w3.org/1999/xlink">
<g id="graph0" class="graph" transform="scale(1 1) rotate(0) translate(4 817)">
<title>L4virtio::Virtqueue</title>
<polygon fill="#ffffff" stroke="transparent" points="-4,4 -4,-817 584,-817 584,4 -4,4"/>
<!-- Node3 -->
<g id="node1" class="node">
<title>Node3</title>
<polygon fill="#bfbfbf" stroke="#000000" points="295,-.5 295,-310.5 411,-310.5 411,-.5 295,-.5"/>
<text text-anchor="middle" x="353" y="-298.5" font-family="Helvetica,sans-Serif" font-size="10.00" fill="#000000">L4virtio::Virtqueue</text>
<polyline fill="none" stroke="#000000" points="295,-291.5 411,-291.5 "/>
<text text-anchor="start" x="303" y="-279.5" font-family="Helvetica,sans-Serif" font-size="10.00" fill="#000000"># _current_avail</text>
<text text-anchor="start" x="303" y="-268.5" font-family="Helvetica,sans-Serif" font-size="10.00" fill="#000000"># _idx_mask</text>
<polyline fill="none" stroke="#000000" points="295,-261.5 411,-261.5 "/>
<text text-anchor="start" x="303" y="-249.5" font-family="Helvetica,sans-Serif" font-size="10.00" fill="#000000">+ disable()</text>
<text text-anchor="start" x="303" y="-238.5" font-family="Helvetica,sans-Serif" font-size="10.00" fill="#000000">+ total_size()</text>
<text text-anchor="start" x="303" y="-227.5" font-family="Helvetica,sans-Serif" font-size="10.00" fill="#000000">+ avail_offset()</text>
<text text-anchor="start" x="303" y="-216.5" font-family="Helvetica,sans-Serif" font-size="10.00" fill="#000000">+ used_offset()</text>
<text text-anchor="start" x="303" y="-205.5" font-family="Helvetica,sans-Serif" font-size="10.00" fill="#000000">+ setup()</text>
<text text-anchor="start" x="303" y="-194.5" font-family="Helvetica,sans-Serif" font-size="10.00" fill="#000000">+ setup_simple()</text>
<text text-anchor="start" x="303" y="-183.5" font-family="Helvetica,sans-Serif" font-size="10.00" fill="#000000">+ dump()</text>
<text text-anchor="start" x="303" y="-172.5" font-family="Helvetica,sans-Serif" font-size="10.00" fill="#000000">+ ready()</text>
<text text-anchor="start" x="303" y="-161.5" font-family="Helvetica,sans-Serif" font-size="10.00" fill="#000000">+ num()</text>
<text text-anchor="start" x="303" y="-150.5" font-family="Helvetica,sans-Serif" font-size="10.00" fill="#000000">+ no_notify_guest()</text>
<text text-anchor="start" x="303" y="-139.5" font-family="Helvetica,sans-Serif" font-size="10.00" fill="#000000">+ no_notify_host()</text>
<text text-anchor="start" x="303" y="-128.5" font-family="Helvetica,sans-Serif" font-size="10.00" fill="#000000">+ no_notify_host()</text>
<text text-anchor="start" x="303" y="-117.5" font-family="Helvetica,sans-Serif" font-size="10.00" fill="#000000">+ get_avail_idx()</text>
<text text-anchor="start" x="303" y="-106.5" font-family="Helvetica,sans-Serif" font-size="10.00" fill="#000000">+ get_tail_avail_idx()</text>
<text text-anchor="start" x="303" y="-95.5" font-family="Helvetica,sans-Serif" font-size="10.00" fill="#000000">+ total_size()</text>
<text text-anchor="start" x="303" y="-84.5" font-family="Helvetica,sans-Serif" font-size="10.00" fill="#000000">+ desc_size()</text>
<text text-anchor="start" x="303" y="-73.5" font-family="Helvetica,sans-Serif" font-size="10.00" fill="#000000">+ desc_align()</text>
<text text-anchor="start" x="303" y="-62.5" font-family="Helvetica,sans-Serif" font-size="10.00" fill="#000000">+ avail_size()</text>
<text text-anchor="start" x="303" y="-51.5" font-family="Helvetica,sans-Serif" font-size="10.00" fill="#000000">+ avail_align()</text>
<text text-anchor="start" x="303" y="-40.5" font-family="Helvetica,sans-Serif" font-size="10.00" fill="#000000">+ used_size()</text>
<text text-anchor="start" x="303" y="-29.5" font-family="Helvetica,sans-Serif" font-size="10.00" fill="#000000">+ used_align()</text>
<text text-anchor="start" x="303" y="-18.5" font-family="Helvetica,sans-Serif" font-size="10.00" fill="#000000"># Virtqueue()</text>
<text text-anchor="start" x="303" y="-7.5" font-family="Helvetica,sans-Serif" font-size="10.00" fill="#000000"># Virtqueue()</text>
</g>
<!-- Node4 -->
<g id="node2" class="node">
<title>Node4</title>
<g id="a_node2"><a xlink:href="classL4virtio_1_1Virtqueue_1_1Desc.html" target="_top" xlink:title="Descriptor in the descriptor table. ">
<polygon fill="#ffffff" stroke="#000000" points="122,-358.5 122,-437.5 222,-437.5 222,-358.5 122,-358.5"/>
<text text-anchor="start" x="130" y="-425.5" font-family="Helvetica,sans-Serif" font-size="10.00" fill="#000000">L4virtio::Virtqueue</text>
<text text-anchor="middle" x="172" y="-414.5" font-family="Helvetica,sans-Serif" font-size="10.00" fill="#000000">::Desc</text>
<polyline fill="none" stroke="#000000" points="122,-407.5 222,-407.5 "/>
<text text-anchor="start" x="130" y="-395.5" font-family="Helvetica,sans-Serif" font-size="10.00" fill="#000000">+ len</text>
<text text-anchor="start" x="130" y="-384.5" font-family="Helvetica,sans-Serif" font-size="10.00" fill="#000000">+ next</text>
<polyline fill="none" stroke="#000000" points="122,-377.5 222,-377.5 "/>
<text text-anchor="start" x="130" y="-365.5" font-family="Helvetica,sans-Serif" font-size="10.00" fill="#000000">+ dump()</text>
</a>
</g>
</g>
<!-- Node4&#45;&gt;Node3 -->
<g id="edge1" class="edge">
<title>Node4&#45;&gt;Node3</title>
<path fill="none" stroke="#404040" d="M201.4836,-358.4985C224.8043,-327.2539 258.2432,-282.4532 287.7773,-242.884"/>
<polygon fill="none" stroke="#404040" points="287.8175,-242.8301 288.2008,-235.6292 294.9953,-233.2135 294.6119,-240.4144 287.8175,-242.8301"/>
<text text-anchor="middle" x="240" y="-332" font-family="Helvetica,sans-Serif" font-size="10.00" fill="#000000"> #_desc</text>
</g>
<!-- Node5 -->
<g id="node3" class="node">
<title>Node5</title>
<g id="a_node3"><a xlink:href="structL4virtio_1_1Virtqueue_1_1Desc_1_1Flags.html" target="_top" xlink:title="Type for descriptor flags. ">
<polygon fill="#ffffff" stroke="#000000" points="0,-485.5 0,-663.5 100,-663.5 100,-485.5 0,-485.5"/>
<text text-anchor="start" x="8" y="-651.5" font-family="Helvetica,sans-Serif" font-size="10.00" fill="#000000">L4virtio::Virtqueue</text>
<text text-anchor="middle" x="50" y="-640.5" font-family="Helvetica,sans-Serif" font-size="10.00" fill="#000000">::Desc::Flags</text>
<polyline fill="none" stroke="#000000" points="0,-633.5 100,-633.5 "/>
<text text-anchor="start" x="8" y="-621.5" font-family="Helvetica,sans-Serif" font-size="10.00" fill="#000000">+ raw</text>
<polyline fill="none" stroke="#000000" points="0,-614.5 100,-614.5 "/>
<text text-anchor="start" x="8" y="-602.5" font-family="Helvetica,sans-Serif" font-size="10.00" fill="#000000">+ Flags()</text>
<text text-anchor="start" x="8" y="-591.5" font-family="Helvetica,sans-Serif" font-size="10.00" fill="#000000">+ Flags()</text>
<text text-anchor="start" x="8" y="-580.5" font-family="Helvetica,sans-Serif" font-size="10.00" fill="#000000">* next_bfm_t</text>
<text text-anchor="start" x="8" y="-569.5" font-family="Helvetica,sans-Serif" font-size="10.00" fill="#000000">* next()</text>
<text text-anchor="start" x="8" y="-558.5" font-family="Helvetica,sans-Serif" font-size="10.00" fill="#000000">* next()</text>
<text text-anchor="start" x="8" y="-547.5" font-family="Helvetica,sans-Serif" font-size="10.00" fill="#000000">* write_bfm_t</text>
<text text-anchor="start" x="8" y="-536.5" font-family="Helvetica,sans-Serif" font-size="10.00" fill="#000000">* write()</text>
<text text-anchor="start" x="8" y="-525.5" font-family="Helvetica,sans-Serif" font-size="10.00" fill="#000000">* write()</text>
<text text-anchor="start" x="8" y="-514.5" font-family="Helvetica,sans-Serif" font-size="10.00" fill="#000000">* indirect_bfm_t</text>
<text text-anchor="start" x="8" y="-503.5" font-family="Helvetica,sans-Serif" font-size="10.00" fill="#000000">* indirect()</text>
<text text-anchor="start" x="8" y="-492.5" font-family="Helvetica,sans-Serif" font-size="10.00" fill="#000000">* indirect()</text>
</a>
</g>
</g>
<!-- Node5&#45;&gt;Node4 -->
<g id="edge2" class="edge">
<title>Node5&#45;&gt;Node4</title>
<path fill="none" stroke="#404040" d="M100.311,-497.6996C103.2322,-493.3908 106.1429,-489.1336 109,-485 117.4495,-472.7754 126.743,-459.7315 135.5364,-447.5628"/>
<polygon fill="none" stroke="#404040" points="135.729,-447.2973 136.0147,-440.0918 142.7758,-437.5842 142.4901,-444.7897 135.729,-447.2973"/>
<text text-anchor="middle" x="146.5" y="-459" font-family="Helvetica,sans-Serif" font-size="10.00" fill="#000000"> +flags</text>
</g>
<!-- Node6 -->
<g id="node4" class="node">
<title>Node6</title>
<g id="a_node4"><a xlink:href="classL4virtio_1_1Ptr.html" target="_top" xlink:title="{L4virtio::Ptr\&lt; void \&gt;\n||+ Ptr()\l+ Ptr()\l+ Ptr()\l+ get()\l+ is_valid()\l}">
<polygon fill="#ffffff" stroke="#000000" points="118.5,-524 118.5,-625 225.5,-625 225.5,-524 118.5,-524"/>
<text text-anchor="middle" x="172" y="-613" font-family="Helvetica,sans-Serif" font-size="10.00" fill="#000000">L4virtio::Ptr&lt; void &gt;</text>
<polyline fill="none" stroke="#000000" points="118.5,-606 225.5,-606 "/>
<text text-anchor="middle" x="172" y="-594" font-family="Helvetica,sans-Serif" font-size="10.00" fill="#000000"> </text>
<polyline fill="none" stroke="#000000" points="118.5,-587 225.5,-587 "/>
<text text-anchor="start" x="126.5" y="-575" font-family="Helvetica,sans-Serif" font-size="10.00" fill="#000000">+ Ptr()</text>
<text text-anchor="start" x="126.5" y="-564" font-family="Helvetica,sans-Serif" font-size="10.00" fill="#000000">+ Ptr()</text>
<text text-anchor="start" x="126.5" y="-553" font-family="Helvetica,sans-Serif" font-size="10.00" fill="#000000">+ Ptr()</text>
<text text-anchor="start" x="126.5" y="-542" font-family="Helvetica,sans-Serif" font-size="10.00" fill="#000000">+ get()</text>
<text text-anchor="start" x="126.5" y="-531" font-family="Helvetica,sans-Serif" font-size="10.00" fill="#000000">+ is_valid()</text>
</a>
</g>
</g>
<!-- Node6&#45;&gt;Node4 -->
<g id="edge3" class="edge">
<title>Node6&#45;&gt;Node4</title>
<path fill="none" stroke="#404040" d="M172,-523.9222C172,-500.6947 172,-473.181 172,-449.8055"/>
<polygon fill="none" stroke="#404040" points="172.0001,-449.6521 168,-443.6522 172,-437.6521 176,-443.6521 172.0001,-449.6521"/>
<text text-anchor="middle" x="188" y="-459" font-family="Helvetica,sans-Serif" font-size="10.00" fill="#000000"> +addr</text>
</g>
<!-- Node7 -->
<g id="node5" class="node">
<title>Node7</title>
<g id="a_node5"><a xlink:href="classL4virtio_1_1Ptr.html" target="_top" xlink:title="Pointer used in virtio descriptors. ">
<polygon fill="#ffffff" stroke="#000000" points="125,-711.5 125,-812.5 219,-812.5 219,-711.5 125,-711.5"/>
<text text-anchor="middle" x="172" y="-800.5" font-family="Helvetica,sans-Serif" font-size="10.00" fill="#000000">L4virtio::Ptr&lt; T &gt;</text>
<polyline fill="none" stroke="#000000" points="125,-793.5 219,-793.5 "/>
<text text-anchor="middle" x="172" y="-781.5" font-family="Helvetica,sans-Serif" font-size="10.00" fill="#000000"> </text>
<polyline fill="none" stroke="#000000" points="125,-774.5 219,-774.5 "/>
<text text-anchor="start" x="133" y="-762.5" font-family="Helvetica,sans-Serif" font-size="10.00" fill="#000000">+ Ptr()</text>
<text text-anchor="start" x="133" y="-751.5" font-family="Helvetica,sans-Serif" font-size="10.00" fill="#000000">+ Ptr()</text>
<text text-anchor="start" x="133" y="-740.5" font-family="Helvetica,sans-Serif" font-size="10.00" fill="#000000">+ Ptr()</text>
<text text-anchor="start" x="133" y="-729.5" font-family="Helvetica,sans-Serif" font-size="10.00" fill="#000000">+ get()</text>
<text text-anchor="start" x="133" y="-718.5" font-family="Helvetica,sans-Serif" font-size="10.00" fill="#000000">+ is_valid()</text>
</a>
</g>
</g>
<!-- Node7&#45;&gt;Node6 -->
<g id="edge4" class="edge">
<title>Node7&#45;&gt;Node6</title>
<path fill="none" stroke="#ffa500" d="M172,-700.9999C172,-676.5192 172,-648.6309 172,-625.2808"/>
<polygon fill="#ffa500" stroke="#ffa500" points="168.5001,-701.2598 172,-711.2598 175.5001,-701.2598 168.5001,-701.2598"/>
<text text-anchor="middle" x="192.5" y="-685" font-family="Helvetica,sans-Serif" font-size="10.00" fill="#000000"> &lt; void &gt;</text>
</g>
<!-- Node8 -->
<g id="node6" class="node">
<title>Node8</title>
<g id="a_node6"><a xlink:href="classL4virtio_1_1Virtqueue_1_1Used.html" target="_top" xlink:title="Used ring. ">
<polygon fill="#ffffff" stroke="#000000" points="303,-364 303,-432 403,-432 403,-364 303,-364"/>
<text text-anchor="start" x="311" y="-420" font-family="Helvetica,sans-Serif" font-size="10.00" fill="#000000">L4virtio::Virtqueue</text>
<text text-anchor="middle" x="353" y="-409" font-family="Helvetica,sans-Serif" font-size="10.00" fill="#000000">::Used</text>
<polyline fill="none" stroke="#000000" points="303,-402 403,-402 "/>
<text text-anchor="start" x="311" y="-390" font-family="Helvetica,sans-Serif" font-size="10.00" fill="#000000">+ idx</text>
<polyline fill="none" stroke="#000000" points="303,-383 403,-383 "/>
<text text-anchor="middle" x="353" y="-371" font-family="Helvetica,sans-Serif" font-size="10.00" fill="#000000"> </text>
</a>
</g>
</g>
<!-- Node8&#45;&gt;Node3 -->
<g id="edge5" class="edge">
<title>Node8&#45;&gt;Node3</title>
<path fill="none" stroke="#404040" d="M353,-363.77C353,-352.0775 353,-338.1031 353,-323.0028"/>
<polygon fill="none" stroke="#404040" points="353.0001,-322.6735 349,-316.6735 353,-310.6735 357,-316.6734 353.0001,-322.6735"/>
<text text-anchor="middle" x="372" y="-332" font-family="Helvetica,sans-Serif" font-size="10.00" fill="#000000"> #_used</text>
</g>
<!-- Node9 -->
<g id="node7" class="node">
<title>Node9</title>
<g id="a_node7"><a xlink:href="structL4virtio_1_1Virtqueue_1_1Used_1_1Flags.html" target="_top" xlink:title="flags for the used ring. ">
<polygon fill="#ffffff" stroke="#000000" points="244,-518.5 244,-630.5 344,-630.5 344,-518.5 244,-518.5"/>
<text text-anchor="start" x="252" y="-618.5" font-family="Helvetica,sans-Serif" font-size="10.00" fill="#000000">L4virtio::Virtqueue</text>
<text text-anchor="middle" x="294" y="-607.5" font-family="Helvetica,sans-Serif" font-size="10.00" fill="#000000">::Used::Flags</text>
<polyline fill="none" stroke="#000000" points="244,-600.5 344,-600.5 "/>
<text text-anchor="start" x="252" y="-588.5" font-family="Helvetica,sans-Serif" font-size="10.00" fill="#000000">+ raw</text>
<polyline fill="none" stroke="#000000" points="244,-581.5 344,-581.5 "/>
<text text-anchor="start" x="252" y="-569.5" font-family="Helvetica,sans-Serif" font-size="10.00" fill="#000000">+ Flags()</text>
<text text-anchor="start" x="252" y="-558.5" font-family="Helvetica,sans-Serif" font-size="10.00" fill="#000000">+ Flags()</text>
<text text-anchor="start" x="252" y="-547.5" font-family="Helvetica,sans-Serif" font-size="10.00" fill="#000000">* no_notify_bfm_t</text>
<text text-anchor="start" x="252" y="-536.5" font-family="Helvetica,sans-Serif" font-size="10.00" fill="#000000">* no_notify()</text>
<text text-anchor="start" x="252" y="-525.5" font-family="Helvetica,sans-Serif" font-size="10.00" fill="#000000">* no_notify()</text>
</a>
</g>
</g>
<!-- Node9&#45;&gt;Node8 -->
<g id="edge6" class="edge">
<title>Node9&#45;&gt;Node8</title>
<path fill="none" stroke="#404040" d="M312.8302,-518.169C320.8713,-494.1139 330.1348,-466.402 337.7382,-443.6561"/>
<polygon fill="none" stroke="#404040" points="337.7432,-443.6409 335.8518,-436.6822 341.5477,-432.2599 343.4391,-439.2185 337.7432,-443.6409"/>
<text text-anchor="middle" x="349.5" y="-459" font-family="Helvetica,sans-Serif" font-size="10.00" fill="#000000"> +flags</text>
</g>
<!-- Node10 -->
<g id="node8" class="node">
<title>Node10</title>
<g id="a_node8"><a xlink:href="structL4virtio_1_1Virtqueue_1_1Used__elem.html" target="_top" xlink:title="Type of an element of the used ring. ">
<polygon fill="#ffffff" stroke="#000000" points="362,-529.5 362,-619.5 462,-619.5 462,-529.5 362,-529.5"/>
<text text-anchor="start" x="370" y="-607.5" font-family="Helvetica,sans-Serif" font-size="10.00" fill="#000000">L4virtio::Virtqueue</text>
<text text-anchor="middle" x="412" y="-596.5" font-family="Helvetica,sans-Serif" font-size="10.00" fill="#000000">::Used_elem</text>
<polyline fill="none" stroke="#000000" points="362,-589.5 462,-589.5 "/>
<text text-anchor="start" x="370" y="-577.5" font-family="Helvetica,sans-Serif" font-size="10.00" fill="#000000">+ id</text>
<text text-anchor="start" x="370" y="-566.5" font-family="Helvetica,sans-Serif" font-size="10.00" fill="#000000">+ len</text>
<polyline fill="none" stroke="#000000" points="362,-559.5 462,-559.5 "/>
<text text-anchor="start" x="370" y="-547.5" font-family="Helvetica,sans-Serif" font-size="10.00" fill="#000000">+ Used_elem()</text>
<text text-anchor="start" x="370" y="-536.5" font-family="Helvetica,sans-Serif" font-size="10.00" fill="#000000">+ Used_elem()</text>
</a>
</g>
</g>
<!-- Node10&#45;&gt;Node8 -->
<g id="edge7" class="edge">
<title>Node10&#45;&gt;Node8</title>
<path fill="none" stroke="#404040" d="M396.806,-529.0469C388.0419,-502.8288 377.055,-469.9613 368.277,-443.7014"/>
<polygon fill="none" stroke="#404040" points="368.2196,-443.5296 362.5237,-439.1073 364.4151,-432.1486 370.111,-436.571 368.2196,-443.5296"/>
<text text-anchor="middle" x="390" y="-459" font-family="Helvetica,sans-Serif" font-size="10.00" fill="#000000"> +ring</text>
</g>
<!-- Node11 -->
<g id="node9" class="node">
<title>Node11</title>
<g id="a_node9"><a xlink:href="classL4virtio_1_1Virtqueue_1_1Avail.html" target="_top" xlink:title="Type of available ring, this is read&#45;only for the host. ">
<polygon fill="#ffffff" stroke="#000000" points="451,-358.5 451,-437.5 551,-437.5 551,-358.5 451,-358.5"/>
<text text-anchor="start" x="459" y="-425.5" font-family="Helvetica,sans-Serif" font-size="10.00" fill="#000000">L4virtio::Virtqueue</text>
<text text-anchor="middle" x="501" y="-414.5" font-family="Helvetica,sans-Serif" font-size="10.00" fill="#000000">::Avail</text>
<polyline fill="none" stroke="#000000" points="451,-407.5 551,-407.5 "/>
<text text-anchor="start" x="459" y="-395.5" font-family="Helvetica,sans-Serif" font-size="10.00" fill="#000000">+ idx</text>
<text text-anchor="start" x="459" y="-384.5" font-family="Helvetica,sans-Serif" font-size="10.00" fill="#000000">+ ring</text>
<polyline fill="none" stroke="#000000" points="451,-377.5 551,-377.5 "/>
<text text-anchor="middle" x="501" y="-365.5" font-family="Helvetica,sans-Serif" font-size="10.00" fill="#000000"> </text>
</a>
</g>
</g>
<!-- Node11&#45;&gt;Node3 -->
<g id="edge8" class="edge">
<title>Node11&#45;&gt;Node3</title>
<path fill="none" stroke="#404040" d="M476.8919,-358.4985C460.7468,-332.0445 438.6708,-295.8728 417.6234,-261.3863"/>
<polygon fill="none" stroke="#404040" points="417.3836,-260.9934 410.8436,-257.9557 411.1322,-250.7504 417.6723,-253.7881 417.3836,-260.9934"/>
<text text-anchor="middle" x="484.5" y="-332" font-family="Helvetica,sans-Serif" font-size="10.00" fill="#000000"> #_avail</text>
</g>
<!-- Node12 -->
<g id="node10" class="node">
<title>Node12</title>
<g id="a_node10"><a xlink:href="structL4virtio_1_1Virtqueue_1_1Avail_1_1Flags.html" target="_top" xlink:title="Flags of the available ring. ">
<polygon fill="#ffffff" stroke="#000000" points="480,-518.5 480,-630.5 580,-630.5 580,-518.5 480,-518.5"/>
<text text-anchor="start" x="488" y="-618.5" font-family="Helvetica,sans-Serif" font-size="10.00" fill="#000000">L4virtio::Virtqueue</text>
<text text-anchor="middle" x="530" y="-607.5" font-family="Helvetica,sans-Serif" font-size="10.00" fill="#000000">::Avail::Flags</text>
<polyline fill="none" stroke="#000000" points="480,-600.5 580,-600.5 "/>
<text text-anchor="start" x="488" y="-588.5" font-family="Helvetica,sans-Serif" font-size="10.00" fill="#000000">+ raw</text>
<polyline fill="none" stroke="#000000" points="480,-581.5 580,-581.5 "/>
<text text-anchor="start" x="488" y="-569.5" font-family="Helvetica,sans-Serif" font-size="10.00" fill="#000000">+ Flags()</text>
<text text-anchor="start" x="488" y="-558.5" font-family="Helvetica,sans-Serif" font-size="10.00" fill="#000000">+ Flags()</text>
<text text-anchor="start" x="488" y="-547.5" font-family="Helvetica,sans-Serif" font-size="10.00" fill="#000000">* no_irq_bfm_t</text>
<text text-anchor="start" x="488" y="-536.5" font-family="Helvetica,sans-Serif" font-size="10.00" fill="#000000">* no_irq()</text>
<text text-anchor="start" x="488" y="-525.5" font-family="Helvetica,sans-Serif" font-size="10.00" fill="#000000">* no_irq()</text>
</a>
</g>
</g>
<!-- Node12&#45;&gt;Node11 -->
<g id="edge9" class="edge">
<title>Node12&#45;&gt;Node11</title>
<path fill="none" stroke="#404040" d="M520.7445,-518.169C517.1249,-496.1395 513.0014,-471.0431 509.4622,-449.5027"/>
<polygon fill="none" stroke="#404040" points="509.4544,-449.4547 504.5345,-444.1827 507.5087,-437.6135 512.4286,-442.8855 509.4544,-449.4547"/>
<text text-anchor="middle" x="529.5" y="-459" font-family="Helvetica,sans-Serif" font-size="10.00" fill="#000000"> +flags</text>
</g>
</g>
</svg>
