<?xml version="1.0" encoding="UTF-8" standalone="no"?>
<!DOCTYPE svg PUBLIC "-//W3C//DTD SVG 1.1//EN"
 "http://www.w3.org/Graphics/SVG/1.1/DTD/svg11.dtd">
<!-- Generated by graphviz version 2.40.1 (20161225.0304)
 -->
<!-- Title: L4::Debugger Pages: 1 -->
<svg width="291pt" height="387pt"
 viewBox="0.00 0.00 291.00 387.00" xmlns="http://www.w3.org/2000/svg" xmlns:xlink="http://www.w3.org/1999/xlink">
<g id="graph0" class="graph" transform="scale(1 1) rotate(0) translate(4 383)">
<title>L4::Debugger</title>
<polygon fill="#ffffff" stroke="transparent" points="-4,4 -4,-383 287,-383 287,4 -4,4"/>
<!-- Node0 -->
<g id="node1" class="node">
<title>Node0</title>
<polygon fill="#bfbfbf" stroke="#000000" points="53.5,-.5 53.5,-123.5 168.5,-123.5 168.5,-.5 53.5,-.5"/>
<text text-anchor="middle" x="111" y="-111.5" font-family="Helvetica,sans-Serif" font-size="10.00" fill="#000000">L4::Debugger</text>
<polyline fill="none" stroke="#000000" points="53.5,-104.5 168.5,-104.5 "/>
<text text-anchor="middle" x="111" y="-92.5" font-family="Helvetica,sans-Serif" font-size="10.00" fill="#000000"> </text>
<polyline fill="none" stroke="#000000" points="53.5,-85.5 168.5,-85.5 "/>
<text text-anchor="start" x="61.5" y="-73.5" font-family="Helvetica,sans-Serif" font-size="10.00" fill="#000000">+ set_object_name()</text>
<text text-anchor="start" x="61.5" y="-62.5" font-family="Helvetica,sans-Serif" font-size="10.00" fill="#000000">+ global_id()</text>
<text text-anchor="start" x="61.5" y="-51.5" font-family="Helvetica,sans-Serif" font-size="10.00" fill="#000000">+ kobj_to_id()</text>
<text text-anchor="start" x="61.5" y="-40.5" font-family="Helvetica,sans-Serif" font-size="10.00" fill="#000000">+ query_log_typeid()</text>
<text text-anchor="start" x="61.5" y="-29.5" font-family="Helvetica,sans-Serif" font-size="10.00" fill="#000000">+ query_log_name()</text>
<text text-anchor="start" x="61.5" y="-18.5" font-family="Helvetica,sans-Serif" font-size="10.00" fill="#000000">+ switch_log()</text>
<text text-anchor="start" x="61.5" y="-7.5" font-family="Helvetica,sans-Serif" font-size="10.00" fill="#000000">+ get_object_name()</text>
</g>
<!-- Node1 -->
<g id="node2" class="node">
<title>Node1</title>
<g id="a_node2"><a xlink:href="classL4_1_1Kobject__t.html" target="_top" xlink:title="{L4::Kobject_t\&lt; Debugger,\l Kobject, L4_PROTO_DEBUGGER \&gt;\n||# c()\l# __check_protocols__()\l}">
<polygon fill="#ffffff" stroke="#000000" points="16.5,-161.5 16.5,-240.5 205.5,-240.5 205.5,-161.5 16.5,-161.5"/>
<text text-anchor="start" x="24.5" y="-228.5" font-family="Helvetica,sans-Serif" font-size="10.00" fill="#000000">L4::Kobject_t&lt; Debugger,</text>
<text text-anchor="middle" x="111" y="-217.5" font-family="Helvetica,sans-Serif" font-size="10.00" fill="#000000"> Kobject, L4_PROTO_DEBUGGER &gt;</text>
<polyline fill="none" stroke="#000000" points="16.5,-210.5 205.5,-210.5 "/>
<text text-anchor="middle" x="111" y="-198.5" font-family="Helvetica,sans-Serif" font-size="10.00" fill="#000000"> </text>
<polyline fill="none" stroke="#000000" points="16.5,-191.5 205.5,-191.5 "/>
<text text-anchor="start" x="24.5" y="-179.5" font-family="Helvetica,sans-Serif" font-size="10.00" fill="#000000"># c()</text>
<text text-anchor="start" x="24.5" y="-168.5" font-family="Helvetica,sans-Serif" font-size="10.00" fill="#000000"># __check_protocols__()</text>
</a>
</g>
</g>
<!-- Node1&#45;&gt;Node0 -->
<g id="edge1" class="edge">
<title>Node1&#45;&gt;Node0</title>
<path fill="none" stroke="#191970" d="M111,-150.996C111,-142.1171 111,-132.7763 111,-123.6203"/>
<polygon fill="none" stroke="#191970" points="107.5001,-151.1681 111,-161.1682 114.5001,-151.1682 107.5001,-151.1681"/>
</g>
<!-- Node2 -->
<g id="node3" class="node">
<title>Node2</title>
<g id="a_node3"><a xlink:href="classL4_1_1Kobject.html" target="_top" xlink:title="Base class for all kinds of kernel objects and remote objects, referenced by capabilities. ">
<polygon fill="#ffffff" stroke="#000000" points="0,-305 0,-373 84,-373 84,-305 0,-305"/>
<text text-anchor="middle" x="42" y="-361" font-family="Helvetica,sans-Serif" font-size="10.00" fill="#000000">L4::Kobject</text>
<polyline fill="none" stroke="#000000" points="0,-354 84,-354 "/>
<text text-anchor="middle" x="42" y="-342" font-family="Helvetica,sans-Serif" font-size="10.00" fill="#000000"> </text>
<polyline fill="none" stroke="#000000" points="0,-335 84,-335 "/>
<text text-anchor="start" x="8" y="-323" font-family="Helvetica,sans-Serif" font-size="10.00" fill="#000000">+ dec_refcnt()</text>
<text text-anchor="start" x="8" y="-312" font-family="Helvetica,sans-Serif" font-size="10.00" fill="#000000"># cap()</text>
</a>
</g>
</g>
<!-- Node2&#45;&gt;Node1 -->
<g id="edge2" class="edge">
<title>Node2&#45;&gt;Node1</title>
<path fill="none" stroke="#191970" d="M63.5437,-295.9127C72.3854,-278.2293 82.5553,-257.8893 91.2072,-240.5857"/>
<polygon fill="none" stroke="#191970" points="60.3979,-294.3781 59.0562,-304.8876 66.6589,-297.5086 60.3979,-294.3781"/>
</g>
<!-- Node3 -->
<g id="node4" class="node">
<title>Node3</title>
<g id="a_node4"><a xlink:href="classL4_1_1Kobject__t.html" target="_top" xlink:title="Helper class to create an L4Re interface class that is derived from a single base class...">
<polygon fill="#ffffff" stroke="#000000" points="102,-299.5 102,-378.5 260,-378.5 260,-299.5 102,-299.5"/>
<text text-anchor="start" x="110" y="-366.5" font-family="Helvetica,sans-Serif" font-size="10.00" fill="#000000">L4::Kobject_t&lt; Derived,</text>
<text text-anchor="middle" x="181" y="-355.5" font-family="Helvetica,sans-Serif" font-size="10.00" fill="#000000"> Base, PROTO, S_DEMAND &gt;</text>
<polyline fill="none" stroke="#000000" points="102,-348.5 260,-348.5 "/>
<text text-anchor="middle" x="181" y="-336.5" font-family="Helvetica,sans-Serif" font-size="10.00" fill="#000000"> </text>
<polyline fill="none" stroke="#000000" points="102,-329.5 260,-329.5 "/>
<text text-anchor="start" x="110" y="-317.5" font-family="Helvetica,sans-Serif" font-size="10.00" fill="#000000"># c()</text>
<text text-anchor="start" x="110" y="-306.5" font-family="Helvetica,sans-Serif" font-size="10.00" fill="#000000"># __check_protocols__()</text>
</a>
</g>
</g>
<!-- Node3&#45;&gt;Node1 -->
<g id="edge3" class="edge">
<title>Node3&#45;&gt;Node1</title>
<path fill="none" stroke="#ffa500" d="M156.2011,-290.1107C147.9624,-273.8688 138.8975,-255.998 131.0621,-240.551"/>
<polygon fill="#ffa500" stroke="#ffa500" points="153.2956,-292.1198 160.9408,-299.4547 159.5384,-288.9531 153.2956,-292.1198"/>
<text text-anchor="start" x="150" y="-273" font-family="Helvetica,sans-Serif" font-size="10.00" fill="#000000"> &lt; Debugger, Kobject,</text>
<text text-anchor="middle" x="216.5" y="-262" font-family="Helvetica,sans-Serif" font-size="10.00" fill="#000000"> L4_PROTO_DEBUGGER &gt;</text>
</g>
</g>
</svg>
