<?xml version="1.0" encoding="UTF-8" standalone="no"?>
<!DOCTYPE svg PUBLIC "-//W3C//DTD SVG 1.1//EN"
 "http://www.w3.org/Graphics/SVG/1.1/DTD/svg11.dtd">
<!-- Generated by graphviz version 2.40.1 (20161225.0304)
 -->
<!-- Title: L4Re::Util::Counting_cap_alloc::free Pages: 1 -->
<svg width="241pt" height="66pt"
 viewBox="0.00 0.00 241.00 66.00" xmlns="http://www.w3.org/2000/svg" xmlns:xlink="http://www.w3.org/1999/xlink">
<g id="graph0" class="graph" transform="scale(1 1) rotate(0) translate(4 62)">
<title>L4Re::Util::Counting_cap_alloc::free</title>
<polygon fill="#ffffff" stroke="transparent" points="-4,4 -4,-62 237,-62 237,4 -4,4"/>
<!-- Node12 -->
<g id="node1" class="node">
<title>Node12</title>
<polygon fill="#bfbfbf" stroke="#000000" points="0,-14 0,-44 108,-44 108,-14 0,-14"/>
<text text-anchor="start" x="8" y="-32" font-family="Helvetica,sans-Serif" font-size="10.00" fill="#000000">L4Re::Util::Counting</text>
<text text-anchor="middle" x="54" y="-21" font-family="Helvetica,sans-Serif" font-size="10.00" fill="#000000">_cap_alloc::free</text>
</g>
<!-- Node13 -->
<g id="node2" class="node">
<title>Node13</title>
<g id="a_node2"><a xlink:href="group__l4__cap__api.html#ga539da15c2a1be4803ed7a3f3a5742194" target="_top" xlink:title="Test if a capability selector is a valid selector. ">
<polygon fill="#ffffff" stroke="#000000" points="144,-38.5 144,-57.5 233,-57.5 233,-38.5 144,-38.5"/>
<text text-anchor="middle" x="188.5" y="-45.5" font-family="Helvetica,sans-Serif" font-size="10.00" fill="#000000">l4_is_valid_cap</text>
</a>
</g>
</g>
<!-- Node12&#45;&gt;Node13 -->
<g id="edge1" class="edge">
<title>Node12&#45;&gt;Node13</title>
<path fill="none" stroke="#191970" d="M108.3186,-36.6733C116.7155,-37.8594 125.3919,-39.0851 133.7972,-40.2725"/>
<polygon fill="#191970" stroke="#191970" points="133.4871,-43.7633 143.8784,-41.6966 134.4663,-36.8321 133.4871,-43.7633"/>
</g>
<!-- Node14 -->
<g id="node3" class="node">
<title>Node14</title>
<g id="a_node3"><a xlink:href="group__l4__task__api.html#gaa5558855716b35c1790b61249cf2974b" target="_top" xlink:title="Revoke rights from the task. ">
<polygon fill="#ffffff" stroke="#000000" points="144.5,-.5 144.5,-19.5 232.5,-19.5 232.5,-.5 144.5,-.5"/>
<text text-anchor="middle" x="188.5" y="-7.5" font-family="Helvetica,sans-Serif" font-size="10.00" fill="#000000">l4_task_unmap</text>
</a>
</g>
</g>
<!-- Node12&#45;&gt;Node14 -->
<g id="edge2" class="edge">
<title>Node12&#45;&gt;Node14</title>
<path fill="none" stroke="#191970" d="M108.3186,-21.3267C116.9126,-20.1127 125.7994,-18.8573 134.3886,-17.644"/>
<polygon fill="#191970" stroke="#191970" points="134.8875,-21.1084 144.2996,-16.2439 133.9083,-14.1772 134.8875,-21.1084"/>
</g>
</g>
</svg>
