<?xml version="1.0" encoding="UTF-8" standalone="no"?>
<!DOCTYPE svg PUBLIC "-//W3C//DTD SVG 1.1//EN"
 "http://www.w3.org/Graphics/SVG/1.1/DTD/svg11.dtd">
<!-- Generated by graphviz version 2.40.1 (20161225.0304)
 -->
<!-- Title: cxx::List_item::Iter::remove_me Pages: 1 -->
<svg width="452pt" height="78pt"
 viewBox="0.00 0.00 452.00 77.50" xmlns="http://www.w3.org/2000/svg" xmlns:xlink="http://www.w3.org/1999/xlink">
<g id="graph0" class="graph" transform="scale(1 1) rotate(0) translate(4 73.5)">
<title>cxx::List_item::Iter::remove_me</title>
<polygon fill="#ffffff" stroke="transparent" points="-4,4 -4,-73.5 448,-73.5 448,4 -4,4"/>
<!-- Node0 -->
<g id="node1" class="node">
<title>Node0</title>
<polygon fill="#bfbfbf" stroke="#000000" points="0,-22.5 0,-52.5 99,-52.5 99,-22.5 0,-22.5"/>
<text text-anchor="start" x="8" y="-40.5" font-family="Helvetica,sans-Serif" font-size="10.00" fill="#000000">cxx::List_item::Iter</text>
<text text-anchor="middle" x="49.5" y="-29.5" font-family="Helvetica,sans-Serif" font-size="10.00" fill="#000000">::remove_me</text>
</g>
<!-- Node1 -->
<g id="node2" class="node">
<title>Node1</title>
<g id="a_node2"><a xlink:href="classcxx_1_1List__item.html#a3881b562fd2ed8708a96112fe2057f47" target="_top" xlink:title="Remove this item from the list. ">
<polygon fill="#ffffff" stroke="#000000" points="135,-28 135,-47 274,-47 274,-28 135,-28"/>
<text text-anchor="middle" x="204.5" y="-35" font-family="Helvetica,sans-Serif" font-size="10.00" fill="#000000">cxx::List_item::remove_me</text>
</a>
</g>
</g>
<!-- Node0&#45;&gt;Node1 -->
<g id="edge1" class="edge">
<title>Node0&#45;&gt;Node1</title>
<path fill="none" stroke="#191970" d="M99.3962,-37.5C107.5381,-37.5 116.1475,-37.5 124.7936,-37.5"/>
<polygon fill="#191970" stroke="#191970" points="124.9344,-41.0001 134.9344,-37.5 124.9344,-34.0001 124.9344,-41.0001"/>
</g>
<!-- Node2 -->
<g id="node3" class="node">
<title>Node2</title>
<g id="a_node3"><a xlink:href="classcxx_1_1List__item.html#a9ae69aab6422e2456924b9bf40b0700d" target="_top" xlink:title="Append item to a list. ">
<polygon fill="#ffffff" stroke="#000000" points="310,-50 310,-69 444,-69 444,-50 310,-50"/>
<text text-anchor="middle" x="377" y="-57" font-family="Helvetica,sans-Serif" font-size="10.00" fill="#000000">cxx::List_item::push_back</text>
</a>
</g>
</g>
<!-- Node1&#45;&gt;Node2 -->
<g id="edge2" class="edge">
<title>Node1&#45;&gt;Node2</title>
<path fill="none" stroke="#191970" d="M274.1651,-46.3848C282.6333,-47.4648 291.3231,-48.5731 299.8912,-49.6658"/>
<polygon fill="#191970" stroke="#191970" points="299.5104,-53.1455 309.8729,-50.9389 300.3961,-46.2018 299.5104,-53.1455"/>
</g>
<!-- Node3 -->
<g id="node4" class="node">
<title>Node3</title>
<g id="a_node4"><a xlink:href="classcxx_1_1List__item.html#ad965060436a10864e9d31e7fb3e42b84" target="_top" xlink:title="Prepend item to a list. ">
<polygon fill="#ffffff" stroke="#000000" points="324,-.5 324,-30.5 430,-30.5 430,-.5 324,-.5"/>
<text text-anchor="start" x="332" y="-18.5" font-family="Helvetica,sans-Serif" font-size="10.00" fill="#000000">cxx::List_item::push</text>
<text text-anchor="middle" x="377" y="-7.5" font-family="Helvetica,sans-Serif" font-size="10.00" fill="#000000">_front</text>
</a>
</g>
</g>
<!-- Node1&#45;&gt;Node3 -->
<g id="edge3" class="edge">
<title>Node1&#45;&gt;Node3</title>
<path fill="none" stroke="#191970" d="M274.1651,-28.6152C287.2246,-26.9496 300.8112,-25.2168 313.6656,-23.5774"/>
<polygon fill="#191970" stroke="#191970" points="314.3167,-27.0228 323.7935,-22.2858 313.4311,-20.0791 314.3167,-27.0228"/>
</g>
</g>
</svg>
