<?xml version="1.0" encoding="UTF-8" standalone="no"?>
<!DOCTYPE svg PUBLIC "-//W3C//DTD SVG 1.1//EN"
 "http://www.w3.org/Graphics/SVG/1.1/DTD/svg11.dtd">
<!-- Generated by graphviz version 2.40.1 (20161225.0304)
 -->
<!-- Title: L4::Kip::Mem_desc::all Pages: 1 -->
<svg width="272pt" height="88pt"
 viewBox="0.00 0.00 272.00 88.00" xmlns="http://www.w3.org/2000/svg" xmlns:xlink="http://www.w3.org/1999/xlink">
<g id="graph0" class="graph" transform="scale(1 1) rotate(0) translate(4 84)">
<title>L4::Kip::Mem_desc::all</title>
<polygon fill="#ffffff" stroke="transparent" points="-4,4 -4,-84 268,-84 268,4 -4,4"/>
<!-- Node6 -->
<g id="node1" class="node">
<title>Node6</title>
<polygon fill="#bfbfbf" stroke="#000000" points="0,-30 0,-49 119,-49 119,-30 0,-30"/>
<text text-anchor="middle" x="59.5" y="-37" font-family="Helvetica,sans-Serif" font-size="10.00" fill="#000000">L4::Kip::Mem_desc::all</text>
</g>
<!-- Node7 -->
<g id="node2" class="node">
<title>Node7</title>
<g id="a_node2"><a xlink:href="classL4_1_1Kip_1_1Mem__desc.html#af1dd05e45df7c0e16476f394ce9fb3dd" target="_top" xlink:title="Return number of memory descriptors stored in the kernel info page. ">
<polygon fill="#ffffff" stroke="#000000" points="155,-49.5 155,-79.5 264,-79.5 264,-49.5 155,-49.5"/>
<text text-anchor="start" x="163" y="-67.5" font-family="Helvetica,sans-Serif" font-size="10.00" fill="#000000">L4::Kip::Mem_desc::</text>
<text text-anchor="middle" x="209.5" y="-56.5" font-family="Helvetica,sans-Serif" font-size="10.00" fill="#000000">count</text>
</a>
</g>
</g>
<!-- Node6&#45;&gt;Node7 -->
<g id="edge1" class="edge">
<title>Node6&#45;&gt;Node7</title>
<path fill="none" stroke="#191970" d="M116.6365,-49.0227C125.8782,-50.563 135.5042,-52.1674 144.9076,-53.7346"/>
<polygon fill="#191970" stroke="#191970" points="144.5558,-57.2242 154.9952,-55.4159 145.7067,-50.3194 144.5558,-57.2242"/>
</g>
<!-- Node8 -->
<g id="node3" class="node">
<title>Node8</title>
<g id="a_node3"><a xlink:href="classL4_1_1Kip_1_1Mem__desc.html#ad52dc6bb675e3c30b0f235021bbc1777" target="_top" xlink:title="Get first memory descriptor. ">
<polygon fill="#ffffff" stroke="#000000" points="155,-.5 155,-30.5 264,-30.5 264,-.5 155,-.5"/>
<text text-anchor="start" x="163" y="-18.5" font-family="Helvetica,sans-Serif" font-size="10.00" fill="#000000">L4::Kip::Mem_desc::</text>
<text text-anchor="middle" x="209.5" y="-7.5" font-family="Helvetica,sans-Serif" font-size="10.00" fill="#000000">first</text>
</a>
</g>
</g>
<!-- Node6&#45;&gt;Node8 -->
<g id="edge2" class="edge">
<title>Node6&#45;&gt;Node8</title>
<path fill="none" stroke="#191970" d="M119.215,-29.9456C127.6709,-28.5927 136.3975,-27.1964 144.9398,-25.8296"/>
<polygon fill="#191970" stroke="#191970" points="145.5345,-29.2791 154.8559,-24.2431 144.4285,-22.367 145.5345,-29.2791"/>
</g>
</g>
</svg>
