<?xml version="1.0" encoding="UTF-8" standalone="no"?>
<!DOCTYPE svg PUBLIC "-//W3C//DTD SVG 1.1//EN"
 "http://www.w3.org/Graphics/SVG/1.1/DTD/svg11.dtd">
<!-- Generated by graphviz version 2.40.1 (20161225.0304)
 -->
<!-- Title: cxx::Avl_tree::remove Pages: 1 -->
<svg width="327pt" height="83pt"
 viewBox="0.00 0.00 327.00 83.00" xmlns="http://www.w3.org/2000/svg" xmlns:xlink="http://www.w3.org/1999/xlink">
<g id="graph0" class="graph" transform="scale(1 1) rotate(0) translate(4 79)">
<title>cxx::Avl_tree::remove</title>
<polygon fill="#ffffff" stroke="transparent" points="-4,4 -4,-79 323,-79 323,4 -4,4"/>
<!-- Node4 -->
<g id="node1" class="node">
<title>Node4</title>
<polygon fill="#bfbfbf" stroke="#000000" points="0,-28 0,-47 116,-47 116,-28 0,-28"/>
<text text-anchor="middle" x="58" y="-35" font-family="Helvetica,sans-Serif" font-size="10.00" fill="#000000">cxx::Avl_tree::remove</text>
</g>
<!-- Node5 -->
<g id="node2" class="node">
<title>Node5</title>
<g id="a_node2"><a xlink:href="classcxx_1_1Bits_1_1Base__avl__set.html#a74890468049590443959526dbd52030d" target="_top" xlink:title="Remove an item from the set. ">
<polygon fill="#ffffff" stroke="#000000" points="152,-.5 152,-74.5 319,-74.5 319,-.5 152,-.5"/>
<text text-anchor="start" x="160" y="-62.5" font-family="Helvetica,sans-Serif" font-size="10.00" fill="#000000">cxx::Bits::Base_avl</text>
<text text-anchor="start" x="160" y="-51.5" font-family="Helvetica,sans-Serif" font-size="10.00" fill="#000000">_set&lt; Pair&lt; KEY_TYPE,</text>
<text text-anchor="start" x="160" y="-40.5" font-family="Helvetica,sans-Serif" font-size="10.00" fill="#000000"> DATA_TYPE &gt;, COMPARE</text>
<text text-anchor="start" x="160" y="-29.5" font-family="Helvetica,sans-Serif" font-size="10.00" fill="#000000">&lt; KEY_TYPE &gt;, ALLOC, Bits</text>
<text text-anchor="start" x="160" y="-18.5" font-family="Helvetica,sans-Serif" font-size="10.00" fill="#000000">::Avl_map_get_key&lt; KEY_TYPE</text>
<text text-anchor="middle" x="235.5" y="-7.5" font-family="Helvetica,sans-Serif" font-size="10.00" fill="#000000"> &gt; &gt;::remove</text>
</a>
</g>
</g>
<!-- Node4&#45;&gt;Node5 -->
<g id="edge1" class="edge">
<title>Node4&#45;&gt;Node5</title>
<path fill="none" stroke="#191970" d="M126.1996,-37.5C134.586,-37.5 143.2315,-37.5 151.8137,-37.5"/>
<polygon fill="#191970" stroke="#191970" points="126.1202,-34.0001 116.1201,-37.5 126.1201,-41.0001 126.1202,-34.0001"/>
</g>
</g>
</svg>
