<?xml version="1.0" encoding="UTF-8" standalone="no"?>
<!DOCTYPE svg PUBLIC "-//W3C//DTD SVG 1.1//EN"
 "http://www.w3.org/Graphics/SVG/1.1/DTD/svg11.dtd">
<!-- Generated by graphviz version 2.40.1 (20161225.0304)
 -->
<!-- Title: cxx::Bitfield::set_unshifted_dirty Pages: 1 -->
<svg width="223pt" height="39pt"
 viewBox="0.00 0.00 223.00 39.00" xmlns="http://www.w3.org/2000/svg" xmlns:xlink="http://www.w3.org/1999/xlink">
<g id="graph0" class="graph" transform="scale(1 1) rotate(0) translate(4 35)">
<title>cxx::Bitfield::set_unshifted_dirty</title>
<polygon fill="#ffffff" stroke="transparent" points="-4,4 -4,-35 219,-35 219,4 -4,4"/>
<!-- Node22 -->
<g id="node1" class="node">
<title>Node22</title>
<polygon fill="#bfbfbf" stroke="#000000" points="0,-.5 0,-30.5 92,-30.5 92,-.5 0,-.5"/>
<text text-anchor="start" x="8" y="-18.5" font-family="Helvetica,sans-Serif" font-size="10.00" fill="#000000">cxx::Bitfield::set</text>
<text text-anchor="middle" x="46" y="-7.5" font-family="Helvetica,sans-Serif" font-size="10.00" fill="#000000">_unshifted_dirty</text>
</g>
<!-- Node23 -->
<g id="node2" class="node">
<title>Node23</title>
<g id="a_node2"><a xlink:href="classcxx_1_1Bitfield.html#ae9c4c45aeb034031a6d5cd5484e571bb" target="_top" xlink:title="Set the bits corresponding to val. ">
<polygon fill="#ffffff" stroke="#000000" points="128,-.5 128,-30.5 215,-30.5 215,-.5 128,-.5"/>
<text text-anchor="start" x="136" y="-18.5" font-family="Helvetica,sans-Serif" font-size="10.00" fill="#000000">cxx::Bitfield::set</text>
<text text-anchor="middle" x="171.5" y="-7.5" font-family="Helvetica,sans-Serif" font-size="10.00" fill="#000000">_unshifted</text>
</a>
</g>
</g>
<!-- Node22&#45;&gt;Node23 -->
<g id="edge1" class="edge">
<title>Node22&#45;&gt;Node23</title>
<path fill="none" stroke="#191970" d="M102.0952,-15.5C110.7805,-15.5 119.6378,-15.5 127.9914,-15.5"/>
<polygon fill="#191970" stroke="#191970" points="102.019,-12.0001 92.0189,-15.5 102.0189,-19.0001 102.019,-12.0001"/>
</g>
</g>
</svg>
