<?xml version="1.0" encoding="UTF-8" standalone="no"?>
<!DOCTYPE svg PUBLIC "-//W3C//DTD SVG 1.1//EN"
 "http://www.w3.org/Graphics/SVG/1.1/DTD/svg11.dtd">
<!-- Generated by graphviz version 2.40.1 (20161225.0304)
 -->
<!-- Title: L4Re::Util::Dataspace_svr::clear Pages: 1 -->
<svg width="431pt" height="61pt"
 viewBox="0.00 0.00 431.00 61.00" xmlns="http://www.w3.org/2000/svg" xmlns:xlink="http://www.w3.org/1999/xlink">
<g id="graph0" class="graph" transform="scale(1 1) rotate(0) translate(4 57)">
<title>L4Re::Util::Dataspace_svr::clear</title>
<polygon fill="#ffffff" stroke="transparent" points="-4,4 -4,-57 427,-57 427,4 -4,4"/>
<!-- Node4 -->
<g id="node1" class="node">
<title>Node4</title>
<polygon fill="#bfbfbf" stroke="#000000" points="0,-.5 0,-30.5 117,-30.5 117,-.5 0,-.5"/>
<text text-anchor="start" x="8" y="-18.5" font-family="Helvetica,sans-Serif" font-size="10.00" fill="#000000">L4Re::Util::Dataspace</text>
<text text-anchor="middle" x="58.5" y="-7.5" font-family="Helvetica,sans-Serif" font-size="10.00" fill="#000000">_svr::clear</text>
</g>
<!-- Node5 -->
<g id="node2" class="node">
<title>Node5</title>
<g id="a_node2"><a xlink:href="classL4Re_1_1Util_1_1Dataspace__svr.html#ae43d4d403894536dd261a834e2bcc417" target="_top" xlink:title="Copy from src dataspace to this destination dataspace. ">
<polygon fill="#ffffff" stroke="#000000" points="153,-22.5 153,-52.5 270,-52.5 270,-22.5 153,-22.5"/>
<text text-anchor="start" x="161" y="-40.5" font-family="Helvetica,sans-Serif" font-size="10.00" fill="#000000">L4Re::Util::Dataspace</text>
<text text-anchor="middle" x="211.5" y="-29.5" font-family="Helvetica,sans-Serif" font-size="10.00" fill="#000000">_svr::copy</text>
</a>
</g>
</g>
<!-- Node4&#45;&gt;Node5 -->
<g id="edge1" class="edge">
<title>Node4&#45;&gt;Node5</title>
<path fill="none" stroke="#191970" d="M127.2131,-25.3803C135.8031,-26.6155 144.5255,-27.8697 152.9409,-29.0797"/>
<polygon fill="#191970" stroke="#191970" points="127.6126,-21.9018 117.2162,-23.9429 126.6162,-28.8306 127.6126,-21.9018"/>
</g>
<!-- Node6 -->
<g id="node3" class="node">
<title>Node6</title>
<g id="a_node3"><a xlink:href="classL4Re_1_1Util_1_1Dataspace__svr.html#aed0cd448d94193443020e8975a4a489a" target="_top" xlink:title="Return whether the dataspace is static. ">
<polygon fill="#ffffff" stroke="#000000" points="306,-.5 306,-30.5 423,-30.5 423,-.5 306,-.5"/>
<text text-anchor="start" x="314" y="-18.5" font-family="Helvetica,sans-Serif" font-size="10.00" fill="#000000">L4Re::Util::Dataspace</text>
<text text-anchor="middle" x="364.5" y="-7.5" font-family="Helvetica,sans-Serif" font-size="10.00" fill="#000000">_svr::is_static</text>
</a>
</g>
</g>
<!-- Node4&#45;&gt;Node6 -->
<g id="edge3" class="edge">
<title>Node4&#45;&gt;Node6</title>
<path fill="none" stroke="#191970" d="M127.3117,-13.8738C135.9597,-13.7195 144.6852,-13.588 153,-13.5 204.9971,-12.9498 218.0029,-12.9498 270,-13.5 281.5683,-13.6224 293.9319,-13.8291 305.7754,-14.0643"/>
<polygon fill="#191970" stroke="#191970" points="127.1567,-10.376 117.2246,-14.0643 127.2889,-17.3748 127.1567,-10.376"/>
</g>
<!-- Node5&#45;&gt;Node6 -->
<g id="edge2" class="edge">
<title>Node5&#45;&gt;Node6</title>
<path fill="none" stroke="#191970" d="M280.2131,-27.6197C288.8031,-26.3845 297.5255,-25.1303 305.9409,-23.9203"/>
<polygon fill="#191970" stroke="#191970" points="279.6162,-24.1694 270.2162,-29.0571 280.6126,-31.0982 279.6162,-24.1694"/>
</g>
</g>
</svg>
