<?xml version="1.0" encoding="UTF-8" standalone="no"?>
<!DOCTYPE svg PUBLIC "-//W3C//DTD SVG 1.1//EN"
 "http://www.w3.org/Graphics/SVG/1.1/DTD/svg11.dtd">
<!-- Generated by graphviz version 2.40.1 (20161225.0304)
 -->
<!-- Title: cxx::Bitfield&lt; T, LSB, MSB &gt;::Value_base&lt; TT &gt; Pages: 1 -->
<svg width="272pt" height="270pt"
 viewBox="0.00 0.00 272.00 270.00" xmlns="http://www.w3.org/2000/svg" xmlns:xlink="http://www.w3.org/1999/xlink">
<g id="graph0" class="graph" transform="scale(1 1) rotate(0) translate(4 266)">
<title>cxx::Bitfield&lt; T, LSB, MSB &gt;::Value_base&lt; TT &gt;</title>
<polygon fill="#ffffff" stroke="transparent" points="-4,4 -4,-266 268,-266 268,4 -4,4"/>
<!-- Node0 -->
<g id="node1" class="node">
<title>Node0</title>
<polygon fill="#bfbfbf" stroke="#000000" points="59.5,-127.5 59.5,-261.5 201.5,-261.5 201.5,-127.5 59.5,-127.5"/>
<text text-anchor="start" x="67.5" y="-249.5" font-family="Helvetica,sans-Serif" font-size="10.00" fill="#000000">cxx::Bitfield&lt; T, LSB,</text>
<text text-anchor="middle" x="130.5" y="-238.5" font-family="Helvetica,sans-Serif" font-size="10.00" fill="#000000"> MSB &gt;::Value_base&lt; TT &gt;</text>
<polyline fill="none" stroke="#000000" points="59.5,-231.5 201.5,-231.5 "/>
<text text-anchor="middle" x="130.5" y="-219.5" font-family="Helvetica,sans-Serif" font-size="10.00" fill="#000000"> </text>
<polyline fill="none" stroke="#000000" points="59.5,-212.5 201.5,-212.5 "/>
<text text-anchor="start" x="67.5" y="-200.5" font-family="Helvetica,sans-Serif" font-size="10.00" fill="#000000">+ Value_base()</text>
<text text-anchor="start" x="67.5" y="-189.5" font-family="Helvetica,sans-Serif" font-size="10.00" fill="#000000">+ get()</text>
<text text-anchor="start" x="67.5" y="-178.5" font-family="Helvetica,sans-Serif" font-size="10.00" fill="#000000">+ get_unshifted()</text>
<text text-anchor="start" x="67.5" y="-167.5" font-family="Helvetica,sans-Serif" font-size="10.00" fill="#000000">+ set()</text>
<text text-anchor="start" x="67.5" y="-156.5" font-family="Helvetica,sans-Serif" font-size="10.00" fill="#000000">+ set_dirty()</text>
<text text-anchor="start" x="67.5" y="-145.5" font-family="Helvetica,sans-Serif" font-size="10.00" fill="#000000">+ set_unshifted()</text>
<text text-anchor="start" x="67.5" y="-134.5" font-family="Helvetica,sans-Serif" font-size="10.00" fill="#000000">+ set_unshifted_dirty()</text>
</g>
<!-- Node1 -->
<g id="node2" class="node">
<title>Node1</title>
<g id="a_node2"><a xlink:href="classcxx_1_1Bitfield_1_1Value.html" target="_top" xlink:title="Internal helper type. ">
<polygon fill="#ffffff" stroke="#000000" points="0,-.5 0,-90.5 121,-90.5 121,-.5 0,-.5"/>
<text text-anchor="start" x="8" y="-78.5" font-family="Helvetica,sans-Serif" font-size="10.00" fill="#000000">cxx::Bitfield&lt; TT &gt;</text>
<text text-anchor="middle" x="60.5" y="-67.5" font-family="Helvetica,sans-Serif" font-size="10.00" fill="#000000">::Value</text>
<polyline fill="none" stroke="#000000" points="0,-60.5 121,-60.5 "/>
<text text-anchor="middle" x="60.5" y="-48.5" font-family="Helvetica,sans-Serif" font-size="10.00" fill="#000000"> </text>
<polyline fill="none" stroke="#000000" points="0,-41.5 121,-41.5 "/>
<text text-anchor="start" x="8" y="-29.5" font-family="Helvetica,sans-Serif" font-size="10.00" fill="#000000">+ Value()</text>
<text text-anchor="start" x="8" y="-18.5" font-family="Helvetica,sans-Serif" font-size="10.00" fill="#000000">+ operator Bits_type()</text>
<text text-anchor="start" x="8" y="-7.5" font-family="Helvetica,sans-Serif" font-size="10.00" fill="#000000">+ operator=()</text>
</a>
</g>
</g>
<!-- Node0&#45;&gt;Node1 -->
<g id="edge1" class="edge">
<title>Node0&#45;&gt;Node1</title>
<path fill="none" stroke="#191970" d="M94.6125,-118.1109C90.2398,-108.8033 85.8856,-99.5351 81.8231,-90.8878"/>
<polygon fill="none" stroke="#191970" points="91.5612,-119.8473 98.9812,-127.41 97.8969,-116.8708 91.5612,-119.8473"/>
</g>
<!-- Node2 -->
<g id="node3" class="node">
<title>Node2</title>
<g id="a_node3"><a xlink:href="classcxx_1_1Bitfield_1_1Value__unshifted.html" target="_top" xlink:title="Internal helper type. ">
<polygon fill="#ffffff" stroke="#000000" points="139,-.5 139,-90.5 264,-90.5 264,-.5 139,-.5"/>
<text text-anchor="start" x="147" y="-78.5" font-family="Helvetica,sans-Serif" font-size="10.00" fill="#000000">cxx::Bitfield&lt; TT &gt;</text>
<text text-anchor="middle" x="201.5" y="-67.5" font-family="Helvetica,sans-Serif" font-size="10.00" fill="#000000">::Value_unshifted</text>
<polyline fill="none" stroke="#000000" points="139,-60.5 264,-60.5 "/>
<text text-anchor="middle" x="201.5" y="-48.5" font-family="Helvetica,sans-Serif" font-size="10.00" fill="#000000"> </text>
<polyline fill="none" stroke="#000000" points="139,-41.5 264,-41.5 "/>
<text text-anchor="start" x="147" y="-29.5" font-family="Helvetica,sans-Serif" font-size="10.00" fill="#000000">+ Value_unshifted()</text>
<text text-anchor="start" x="147" y="-18.5" font-family="Helvetica,sans-Serif" font-size="10.00" fill="#000000">+ operator Shift_type()</text>
<text text-anchor="start" x="147" y="-7.5" font-family="Helvetica,sans-Serif" font-size="10.00" fill="#000000">+ operator=()</text>
</a>
</g>
</g>
<!-- Node0&#45;&gt;Node2 -->
<g id="edge2" class="edge">
<title>Node0&#45;&gt;Node2</title>
<path fill="none" stroke="#191970" d="M166.9002,-118.1109C171.3353,-108.8033 175.7517,-99.5351 179.8723,-90.8878"/>
<polygon fill="none" stroke="#191970" points="163.6112,-116.8769 162.4691,-127.41 169.9304,-119.8881 163.6112,-116.8769"/>
</g>
</g>
</svg>
