<?xml version="1.0" encoding="UTF-8" standalone="no"?>
<!DOCTYPE svg PUBLIC "-//W3C//DTD SVG 1.1//EN"
 "http://www.w3.org/Graphics/SVG/1.1/DTD/svg11.dtd">
<!-- Generated by graphviz version 2.40.1 (20161225.0304)
 -->
<!-- Title: L4virtio::Svr::Driver_mem_region_t::local Pages: 1 -->
<svg width="282pt" height="50pt"
 viewBox="0.00 0.00 282.00 50.00" xmlns="http://www.w3.org/2000/svg" xmlns:xlink="http://www.w3.org/1999/xlink">
<g id="graph0" class="graph" transform="scale(1 1) rotate(0) translate(4 46)">
<title>L4virtio::Svr::Driver_mem_region_t::local</title>
<polygon fill="#ffffff" stroke="transparent" points="-4,4 -4,-46 278,-46 278,4 -4,4"/>
<!-- Node17 -->
<g id="node1" class="node">
<title>Node17</title>
<polygon fill="#bfbfbf" stroke="#000000" points="0,-6 0,-36 116,-36 116,-6 0,-6"/>
<text text-anchor="start" x="8" y="-24" font-family="Helvetica,sans-Serif" font-size="10.00" fill="#000000">L4virtio::Svr::Driver</text>
<text text-anchor="middle" x="58" y="-13" font-family="Helvetica,sans-Serif" font-size="10.00" fill="#000000">_mem_region_t::local</text>
</g>
<!-- Node18 -->
<g id="node2" class="node">
<title>Node18</title>
<g id="a_node2"><a xlink:href="classL4virtio_1_1Svr_1_1Driver__mem__list__t.html#a270520dc38853577d41834c95148eb43" target="_top" xlink:title="Default implementation for loading an indirect descriptor. ">
<polygon fill="#ffffff" stroke="#000000" points="152,-.5 152,-41.5 274,-41.5 274,-.5 152,-.5"/>
<text text-anchor="start" x="160" y="-29.5" font-family="Helvetica,sans-Serif" font-size="10.00" fill="#000000">L4virtio::Svr::Driver</text>
<text text-anchor="start" x="160" y="-18.5" font-family="Helvetica,sans-Serif" font-size="10.00" fill="#000000">_mem_list_t&lt; Ds_data</text>
<text text-anchor="middle" x="213" y="-7.5" font-family="Helvetica,sans-Serif" font-size="10.00" fill="#000000"> &gt;::load_desc</text>
</a>
</g>
</g>
<!-- Node17&#45;&gt;Node18 -->
<g id="edge1" class="edge">
<title>Node17&#45;&gt;Node18</title>
<path fill="none" stroke="#191970" d="M126.4174,-21C134.9118,-21 143.5538,-21 151.9276,-21"/>
<polygon fill="#191970" stroke="#191970" points="126.1573,-17.5001 116.1573,-21 126.1572,-24.5001 126.1573,-17.5001"/>
</g>
</g>
</svg>
