<?xml version="1.0" encoding="UTF-8" standalone="no"?>
<!DOCTYPE svg PUBLIC "-//W3C//DTD SVG 1.1//EN"
 "http://www.w3.org/Graphics/SVG/1.1/DTD/svg11.dtd">
<!-- Generated by graphviz version 2.40.1 (20161225.0304)
 -->
<!-- Title: L4vbus::Vbus Pages: 1 -->
<svg width="633pt" height="1297pt"
 viewBox="0.00 0.00 633.00 1297.00" xmlns="http://www.w3.org/2000/svg" xmlns:xlink="http://www.w3.org/1999/xlink">
<g id="graph0" class="graph" transform="scale(1 1) rotate(0) translate(4 1293)">
<title>L4vbus::Vbus</title>
<polygon fill="#ffffff" stroke="transparent" points="-4,4 -4,-1293 629,-1293 629,4 -4,4"/>
<!-- Node14 -->
<g id="node1" class="node">
<title>Node14</title>
<polygon fill="#bfbfbf" stroke="#000000" points="237.5,-.5 237.5,-123.5 368.5,-123.5 368.5,-.5 237.5,-.5"/>
<text text-anchor="middle" x="303" y="-111.5" font-family="Helvetica,sans-Serif" font-size="10.00" fill="#000000">L4vbus::Vbus</text>
<polyline fill="none" stroke="#000000" points="237.5,-104.5 368.5,-104.5 "/>
<text text-anchor="middle" x="303" y="-92.5" font-family="Helvetica,sans-Serif" font-size="10.00" fill="#000000"> </text>
<polyline fill="none" stroke="#000000" points="237.5,-85.5 368.5,-85.5 "/>
<text text-anchor="start" x="245.5" y="-73.5" font-family="Helvetica,sans-Serif" font-size="10.00" fill="#000000">+ request_ioport()</text>
<text text-anchor="start" x="245.5" y="-62.5" font-family="Helvetica,sans-Serif" font-size="10.00" fill="#000000">+ request_resource()</text>
<text text-anchor="start" x="245.5" y="-51.5" font-family="Helvetica,sans-Serif" font-size="10.00" fill="#000000">+ release_ioport()</text>
<text text-anchor="start" x="245.5" y="-40.5" font-family="Helvetica,sans-Serif" font-size="10.00" fill="#000000">+ release_resource()</text>
<text text-anchor="start" x="245.5" y="-29.5" font-family="Helvetica,sans-Serif" font-size="10.00" fill="#000000">+ root()</text>
<text text-anchor="start" x="245.5" y="-18.5" font-family="Helvetica,sans-Serif" font-size="10.00" fill="#000000">+ assign_dma_domain()</text>
<text text-anchor="start" x="245.5" y="-7.5" font-family="Helvetica,sans-Serif" font-size="10.00" fill="#000000">+ assign_dma_domain()</text>
</g>
<!-- Node15 -->
<g id="node2" class="node">
<title>Node15</title>
<g id="a_node2"><a xlink:href="structL4_1_1Kobject__3t.html" target="_top" xlink:title="{L4::Kobject_3t\&lt; Vbus,\l L4Re::Dataspace, L4Re\l::Inhibitor, L4Re::Event \&gt;\n||+ operator Kobject const &amp;()\l+ dec_refcnt()\l# cap()\l# c()\l# __check_protocols__()\l}">
<polygon fill="#ffffff" stroke="#000000" points="227.5,-161.5 227.5,-284.5 378.5,-284.5 378.5,-161.5 227.5,-161.5"/>
<text text-anchor="start" x="235.5" y="-272.5" font-family="Helvetica,sans-Serif" font-size="10.00" fill="#000000">L4::Kobject_3t&lt; Vbus,</text>
<text text-anchor="start" x="235.5" y="-261.5" font-family="Helvetica,sans-Serif" font-size="10.00" fill="#000000"> L4Re::Dataspace, L4Re</text>
<text text-anchor="middle" x="303" y="-250.5" font-family="Helvetica,sans-Serif" font-size="10.00" fill="#000000">::Inhibitor, L4Re::Event &gt;</text>
<polyline fill="none" stroke="#000000" points="227.5,-243.5 378.5,-243.5 "/>
<text text-anchor="middle" x="303" y="-231.5" font-family="Helvetica,sans-Serif" font-size="10.00" fill="#000000"> </text>
<polyline fill="none" stroke="#000000" points="227.5,-224.5 378.5,-224.5 "/>
<text text-anchor="start" x="235.5" y="-212.5" font-family="Helvetica,sans-Serif" font-size="10.00" fill="#000000">+ operator Kobject const &amp;()</text>
<text text-anchor="start" x="235.5" y="-201.5" font-family="Helvetica,sans-Serif" font-size="10.00" fill="#000000">+ dec_refcnt()</text>
<text text-anchor="start" x="235.5" y="-190.5" font-family="Helvetica,sans-Serif" font-size="10.00" fill="#000000"># cap()</text>
<text text-anchor="start" x="235.5" y="-179.5" font-family="Helvetica,sans-Serif" font-size="10.00" fill="#000000"># c()</text>
<text text-anchor="start" x="235.5" y="-168.5" font-family="Helvetica,sans-Serif" font-size="10.00" fill="#000000"># __check_protocols__()</text>
</a>
</g>
</g>
<!-- Node15&#45;&gt;Node14 -->
<g id="edge1" class="edge">
<title>Node15&#45;&gt;Node14</title>
<path fill="none" stroke="#191970" d="M303,-150.9888C303,-141.8545 303,-132.5727 303,-123.621"/>
<polygon fill="none" stroke="#191970" points="299.5001,-151.2136 303,-161.2136 306.5001,-151.2137 299.5001,-151.2136"/>
</g>
<!-- Node16 -->
<g id="node3" class="node">
<title>Node16</title>
<g id="a_node3"><a xlink:href="classL4Re_1_1Dataspace.html" target="_top" xlink:title="Interface for memory&#45;like objects. ">
<polygon fill="#ffffff" stroke="#000000" points="203,-703.5 203,-837.5 301,-837.5 301,-703.5 203,-703.5"/>
<text text-anchor="middle" x="252" y="-825.5" font-family="Helvetica,sans-Serif" font-size="10.00" fill="#000000">L4Re::Dataspace</text>
<polyline fill="none" stroke="#000000" points="203,-818.5 301,-818.5 "/>
<text text-anchor="middle" x="252" y="-806.5" font-family="Helvetica,sans-Serif" font-size="10.00" fill="#000000"> </text>
<polyline fill="none" stroke="#000000" points="203,-799.5 301,-799.5 "/>
<text text-anchor="start" x="211" y="-787.5" font-family="Helvetica,sans-Serif" font-size="10.00" fill="#000000">+ map()</text>
<text text-anchor="start" x="211" y="-776.5" font-family="Helvetica,sans-Serif" font-size="10.00" fill="#000000">+ map_region()</text>
<text text-anchor="start" x="211" y="-765.5" font-family="Helvetica,sans-Serif" font-size="10.00" fill="#000000">+ clear()</text>
<text text-anchor="start" x="211" y="-754.5" font-family="Helvetica,sans-Serif" font-size="10.00" fill="#000000">+ allocate()</text>
<text text-anchor="start" x="211" y="-743.5" font-family="Helvetica,sans-Serif" font-size="10.00" fill="#000000">+ copy_in()</text>
<text text-anchor="start" x="211" y="-732.5" font-family="Helvetica,sans-Serif" font-size="10.00" fill="#000000">+ size()</text>
<text text-anchor="start" x="211" y="-721.5" font-family="Helvetica,sans-Serif" font-size="10.00" fill="#000000">+ flags()</text>
<text text-anchor="start" x="211" y="-710.5" font-family="Helvetica,sans-Serif" font-size="10.00" fill="#000000">+ info()</text>
</a>
</g>
</g>
<!-- Node16&#45;&gt;Node15 -->
<g id="edge2" class="edge">
<title>Node16&#45;&gt;Node15</title>
<path fill="none" stroke="#191970" d="M250.6583,-693.1628C250.2898,-609.2048 252.8603,-471.3901 270,-354 273.3376,-331.1406 278.9923,-306.4784 284.6869,-284.7849"/>
<polygon fill="none" stroke="#191970" points="247.1596,-693.4028 250.7189,-703.3818 254.1595,-693.3612 247.1596,-693.4028"/>
</g>
<!-- Node17 -->
<g id="node4" class="node">
<title>Node17</title>
<g id="a_node4"><a xlink:href="classL4_1_1Kobject__t.html" target="_top" xlink:title="{L4::Kobject_t\&lt; Dataspace,\l L4::Kobject, L4RE_PROTO\l_DATASPACE, L4::Type_info\l::Demand_t\&lt; 1 \&gt; \&gt;\n||# c()\l# __check_protocols__()\l}">
<polygon fill="#ffffff" stroke="#000000" points="175,-1038.5 175,-1139.5 329,-1139.5 329,-1038.5 175,-1038.5"/>
<text text-anchor="start" x="183" y="-1127.5" font-family="Helvetica,sans-Serif" font-size="10.00" fill="#000000">L4::Kobject_t&lt; Dataspace,</text>
<text text-anchor="start" x="183" y="-1116.5" font-family="Helvetica,sans-Serif" font-size="10.00" fill="#000000"> L4::Kobject, L4RE_PROTO</text>
<text text-anchor="start" x="183" y="-1105.5" font-family="Helvetica,sans-Serif" font-size="10.00" fill="#000000">_DATASPACE, L4::Type_info</text>
<text text-anchor="middle" x="252" y="-1094.5" font-family="Helvetica,sans-Serif" font-size="10.00" fill="#000000">::Demand_t&lt; 1 &gt; &gt;</text>
<polyline fill="none" stroke="#000000" points="175,-1087.5 329,-1087.5 "/>
<text text-anchor="middle" x="252" y="-1075.5" font-family="Helvetica,sans-Serif" font-size="10.00" fill="#000000"> </text>
<polyline fill="none" stroke="#000000" points="175,-1068.5 329,-1068.5 "/>
<text text-anchor="start" x="183" y="-1056.5" font-family="Helvetica,sans-Serif" font-size="10.00" fill="#000000"># c()</text>
<text text-anchor="start" x="183" y="-1045.5" font-family="Helvetica,sans-Serif" font-size="10.00" fill="#000000"># __check_protocols__()</text>
</a>
</g>
</g>
<!-- Node17&#45;&gt;Node16 -->
<g id="edge3" class="edge">
<title>Node17&#45;&gt;Node16</title>
<path fill="none" stroke="#191970" d="M252,-1027.9842C252,-973.5626 252,-894.0244 252,-837.7773"/>
<polygon fill="none" stroke="#191970" points="248.5001,-1028.1805 252,-1038.1805 255.5001,-1028.1806 248.5001,-1028.1805"/>
</g>
<!-- Node18 -->
<g id="node5" class="node">
<title>Node18</title>
<g id="a_node5"><a xlink:href="classL4_1_1Kobject.html" target="_top" xlink:title="Base class for all kinds of kernel objects and remote objects, referenced by capabilities. ">
<polygon fill="#ffffff" stroke="#000000" points="0,-1215 0,-1283 84,-1283 84,-1215 0,-1215"/>
<text text-anchor="middle" x="42" y="-1271" font-family="Helvetica,sans-Serif" font-size="10.00" fill="#000000">L4::Kobject</text>
<polyline fill="none" stroke="#000000" points="0,-1264 84,-1264 "/>
<text text-anchor="middle" x="42" y="-1252" font-family="Helvetica,sans-Serif" font-size="10.00" fill="#000000"> </text>
<polyline fill="none" stroke="#000000" points="0,-1245 84,-1245 "/>
<text text-anchor="start" x="8" y="-1233" font-family="Helvetica,sans-Serif" font-size="10.00" fill="#000000">+ dec_refcnt()</text>
<text text-anchor="start" x="8" y="-1222" font-family="Helvetica,sans-Serif" font-size="10.00" fill="#000000"># cap()</text>
</a>
</g>
</g>
<!-- Node18&#45;&gt;Node17 -->
<g id="edge4" class="edge">
<title>Node18&#45;&gt;Node17</title>
<path fill="none" stroke="#191970" d="M44.8794,-1204.7204C48.2228,-1187.8717 54.9025,-1169.889 68,-1158 100.7897,-1128.2356 124.5306,-1155.5364 166,-1140 168.9259,-1138.9038 171.8656,-1137.7096 174.8025,-1136.4367"/>
<polygon fill="none" stroke="#191970" points="41.3583,-1204.5666 43.2013,-1214.9999 48.2668,-1205.6945 41.3583,-1204.5666"/>
</g>
<!-- Node21 -->
<g id="node8" class="node">
<title>Node21</title>
<g id="a_node8"><a xlink:href="classL4_1_1Kobject__t.html" target="_top" xlink:title="{L4::Kobject_t\&lt; Inhibitor,\l L4::Kobject, L4RE_PROTO\l_INHIBITOR \&gt;\n||# c()\l# __check_protocols__()\l}">
<polygon fill="#ffffff" stroke="#000000" points="11,-1044 11,-1134 157,-1134 157,-1044 11,-1044"/>
<text text-anchor="start" x="19" y="-1122" font-family="Helvetica,sans-Serif" font-size="10.00" fill="#000000">L4::Kobject_t&lt; Inhibitor,</text>
<text text-anchor="start" x="19" y="-1111" font-family="Helvetica,sans-Serif" font-size="10.00" fill="#000000"> L4::Kobject, L4RE_PROTO</text>
<text text-anchor="middle" x="84" y="-1100" font-family="Helvetica,sans-Serif" font-size="10.00" fill="#000000">_INHIBITOR &gt;</text>
<polyline fill="none" stroke="#000000" points="11,-1093 157,-1093 "/>
<text text-anchor="middle" x="84" y="-1081" font-family="Helvetica,sans-Serif" font-size="10.00" fill="#000000"> </text>
<polyline fill="none" stroke="#000000" points="11,-1074 157,-1074 "/>
<text text-anchor="start" x="19" y="-1062" font-family="Helvetica,sans-Serif" font-size="10.00" fill="#000000"># c()</text>
<text text-anchor="start" x="19" y="-1051" font-family="Helvetica,sans-Serif" font-size="10.00" fill="#000000"># __check_protocols__()</text>
</a>
</g>
</g>
<!-- Node18&#45;&gt;Node21 -->
<g id="edge8" class="edge">
<title>Node18&#45;&gt;Node21</title>
<path fill="none" stroke="#191970" d="M37.8892,-1204.6017C37.7014,-1189.5658 38.8382,-1172.8317 43,-1158 45.2588,-1149.9503 48.7109,-1141.8836 52.673,-1134.25"/>
<polygon fill="none" stroke="#191970" points="34.394,-1204.8118 38.2099,-1214.6956 41.3905,-1204.5895 34.394,-1204.8118"/>
</g>
<!-- Node19 -->
<g id="node6" class="node">
<title>Node19</title>
<g id="a_node6"><a xlink:href="classL4_1_1Kobject__t.html" target="_top" xlink:title="Helper class to create an L4Re interface class that is derived from a single base class...">
<polygon fill="#ffffff" stroke="#000000" points="257,-1209.5 257,-1288.5 415,-1288.5 415,-1209.5 257,-1209.5"/>
<text text-anchor="start" x="265" y="-1276.5" font-family="Helvetica,sans-Serif" font-size="10.00" fill="#000000">L4::Kobject_t&lt; Derived,</text>
<text text-anchor="middle" x="336" y="-1265.5" font-family="Helvetica,sans-Serif" font-size="10.00" fill="#000000"> Base, PROTO, S_DEMAND &gt;</text>
<polyline fill="none" stroke="#000000" points="257,-1258.5 415,-1258.5 "/>
<text text-anchor="middle" x="336" y="-1246.5" font-family="Helvetica,sans-Serif" font-size="10.00" fill="#000000"> </text>
<polyline fill="none" stroke="#000000" points="257,-1239.5 415,-1239.5 "/>
<text text-anchor="start" x="265" y="-1227.5" font-family="Helvetica,sans-Serif" font-size="10.00" fill="#000000"># c()</text>
<text text-anchor="start" x="265" y="-1216.5" font-family="Helvetica,sans-Serif" font-size="10.00" fill="#000000"># __check_protocols__()</text>
</a>
</g>
</g>
<!-- Node19&#45;&gt;Node17 -->
<g id="edge5" class="edge">
<title>Node19&#45;&gt;Node17</title>
<path fill="none" stroke="#ffa500" d="M259.9622,-1201.707C257.3333,-1198.329 254.9836,-1194.761 253,-1191 244.8211,-1175.4926 242.8185,-1156.7249 243.4384,-1139.5378"/>
<polygon fill="#ffa500" stroke="#ffa500" points="257.3416,-1204.0271 266.5622,-1209.2454 262.6083,-1199.416 257.3416,-1204.0271"/>
<text text-anchor="start" x="253" y="-1183" font-family="Helvetica,sans-Serif" font-size="10.00" fill="#000000"> &lt; Dataspace, L4::Kobject,</text>
<text text-anchor="start" x="253" y="-1172" font-family="Helvetica,sans-Serif" font-size="10.00" fill="#000000"> L4RE_PROTO_DATASPACE,</text>
<text text-anchor="middle" x="330" y="-1161" font-family="Helvetica,sans-Serif" font-size="10.00" fill="#000000"> L4::Type_info::Demand_t&lt; 1 &gt; &gt;</text>
</g>
<!-- Node19&#45;&gt;Node21 -->
<g id="edge9" class="edge">
<title>Node19&#45;&gt;Node21</title>
<path fill="none" stroke="#ffa500" d="M246.8836,-1237.6496C188.3418,-1228.3021 119.013,-1212.9884 99,-1191 85.2053,-1175.8436 80.7497,-1153.8404 80.0386,-1134.147"/>
<polygon fill="#ffa500" stroke="#ffa500" points="246.5045,-1241.1326 256.9238,-1239.2121 247.5809,-1234.2159 246.5045,-1241.1326"/>
<text text-anchor="start" x="99" y="-1177.5" font-family="Helvetica,sans-Serif" font-size="10.00" fill="#000000"> &lt; Inhibitor, L4::Kobject,</text>
<text text-anchor="middle" x="170" y="-1166.5" font-family="Helvetica,sans-Serif" font-size="10.00" fill="#000000"> L4RE_PROTO_INHIBITOR &gt;</text>
</g>
<!-- Node23 -->
<g id="node10" class="node">
<title>Node23</title>
<g id="a_node10"><a xlink:href="classL4_1_1Kobject__t.html" target="_top" xlink:title="{L4::Kobject_t\&lt; Event,\l L4::Icu, L4RE_PROTO\l_EVENT \&gt;\n||# c()\l# __check_protocols__()\l}">
<polygon fill="#ffffff" stroke="#000000" points="354,-594.5 354,-684.5 488,-684.5 488,-594.5 354,-594.5"/>
<text text-anchor="start" x="362" y="-672.5" font-family="Helvetica,sans-Serif" font-size="10.00" fill="#000000">L4::Kobject_t&lt; Event,</text>
<text text-anchor="start" x="362" y="-661.5" font-family="Helvetica,sans-Serif" font-size="10.00" fill="#000000"> L4::Icu, L4RE_PROTO</text>
<text text-anchor="middle" x="421" y="-650.5" font-family="Helvetica,sans-Serif" font-size="10.00" fill="#000000">_EVENT &gt;</text>
<polyline fill="none" stroke="#000000" points="354,-643.5 488,-643.5 "/>
<text text-anchor="middle" x="421" y="-631.5" font-family="Helvetica,sans-Serif" font-size="10.00" fill="#000000"> </text>
<polyline fill="none" stroke="#000000" points="354,-624.5 488,-624.5 "/>
<text text-anchor="start" x="362" y="-612.5" font-family="Helvetica,sans-Serif" font-size="10.00" fill="#000000"># c()</text>
<text text-anchor="start" x="362" y="-601.5" font-family="Helvetica,sans-Serif" font-size="10.00" fill="#000000"># __check_protocols__()</text>
</a>
</g>
</g>
<!-- Node19&#45;&gt;Node23 -->
<g id="edge16" class="edge">
<title>Node19&#45;&gt;Node23</title>
<path fill="none" stroke="#ffa500" d="M400.7803,-1201.341C403.1371,-1198.0445 405.2382,-1194.5956 407,-1191 418.0493,-1168.4499 420.3908,-812.6238 420.8762,-684.7898"/>
<polygon fill="#ffa500" stroke="#ffa500" points="397.9847,-1199.2323 394.4431,-1209.2177 403.4387,-1203.6203 397.9847,-1199.2323"/>
<text text-anchor="start" x="418" y="-1012" font-family="Helvetica,sans-Serif" font-size="10.00" fill="#000000"> &lt; Event, L4::Icu, L4RE</text>
<text text-anchor="middle" x="471" y="-1001" font-family="Helvetica,sans-Serif" font-size="10.00" fill="#000000">_PROTO_EVENT &gt;</text>
</g>
<!-- Node25 -->
<g id="node12" class="node">
<title>Node25</title>
<g id="a_node12"><a xlink:href="classL4_1_1Kobject__t.html" target="_top" xlink:title="{L4::Kobject_t\&lt; Icu,\l Irq_eoi, L4_PROTO_IRQ,\l Type_info::Demand_t\&lt; 1 \&gt; \&gt;\n||# c()\l# __check_protocols__()\l}">
<polygon fill="#ffffff" stroke="#000000" points="465.5,-1044 465.5,-1134 618.5,-1134 618.5,-1044 465.5,-1044"/>
<text text-anchor="start" x="473.5" y="-1122" font-family="Helvetica,sans-Serif" font-size="10.00" fill="#000000">L4::Kobject_t&lt; Icu,</text>
<text text-anchor="start" x="473.5" y="-1111" font-family="Helvetica,sans-Serif" font-size="10.00" fill="#000000"> Irq_eoi, L4_PROTO_IRQ,</text>
<text text-anchor="middle" x="542" y="-1100" font-family="Helvetica,sans-Serif" font-size="10.00" fill="#000000"> Type_info::Demand_t&lt; 1 &gt; &gt;</text>
<polyline fill="none" stroke="#000000" points="465.5,-1093 618.5,-1093 "/>
<text text-anchor="middle" x="542" y="-1081" font-family="Helvetica,sans-Serif" font-size="10.00" fill="#000000"> </text>
<polyline fill="none" stroke="#000000" points="465.5,-1074 618.5,-1074 "/>
<text text-anchor="start" x="473.5" y="-1062" font-family="Helvetica,sans-Serif" font-size="10.00" fill="#000000"># c()</text>
<text text-anchor="start" x="473.5" y="-1051" font-family="Helvetica,sans-Serif" font-size="10.00" fill="#000000"># __check_protocols__()</text>
</a>
</g>
</g>
<!-- Node19&#45;&gt;Node25 -->
<g id="edge15" class="edge">
<title>Node19&#45;&gt;Node25</title>
<path fill="none" stroke="#ffa500" d="M418.7473,-1203.0035C423.4332,-1199.1953 427.8981,-1195.1892 432,-1191 443.8403,-1178.9075 439.8124,-1170.6987 451,-1158 458.3396,-1149.669 466.8227,-1141.6811 475.5977,-1134.2848"/>
<polygon fill="#ffa500" stroke="#ffa500" points="416.4617,-1200.346 410.6777,-1209.2228 420.7349,-1205.8905 416.4617,-1200.346"/>
<text text-anchor="start" x="451" y="-1183" font-family="Helvetica,sans-Serif" font-size="10.00" fill="#000000"> &lt; Icu, Irq_eoi, L4</text>
<text text-anchor="start" x="451" y="-1172" font-family="Helvetica,sans-Serif" font-size="10.00" fill="#000000">_PROTO_IRQ, Type_info</text>
<text text-anchor="middle" x="511.5" y="-1161" font-family="Helvetica,sans-Serif" font-size="10.00" fill="#000000">::Demand_t&lt; 1 &gt; &gt;</text>
</g>
<!-- Node20 -->
<g id="node7" class="node">
<title>Node20</title>
<g id="a_node7"><a xlink:href="classL4Re_1_1Inhibitor.html" target="_top" xlink:title="Set of inhibitor locks, which inhibit specific actions when held. ">
<polygon fill="#ffffff" stroke="#000000" points="110,-496.5 110,-575.5 212,-575.5 212,-496.5 110,-496.5"/>
<text text-anchor="middle" x="161" y="-563.5" font-family="Helvetica,sans-Serif" font-size="10.00" fill="#000000">L4Re::Inhibitor</text>
<polyline fill="none" stroke="#000000" points="110,-556.5 212,-556.5 "/>
<text text-anchor="middle" x="161" y="-544.5" font-family="Helvetica,sans-Serif" font-size="10.00" fill="#000000"> </text>
<polyline fill="none" stroke="#000000" points="110,-537.5 212,-537.5 "/>
<text text-anchor="start" x="118" y="-525.5" font-family="Helvetica,sans-Serif" font-size="10.00" fill="#000000">+ acquire()</text>
<text text-anchor="start" x="118" y="-514.5" font-family="Helvetica,sans-Serif" font-size="10.00" fill="#000000">+ release()</text>
<text text-anchor="start" x="118" y="-503.5" font-family="Helvetica,sans-Serif" font-size="10.00" fill="#000000">+ next_lock_info()</text>
</a>
</g>
</g>
<!-- Node20&#45;&gt;Node15 -->
<g id="edge6" class="edge">
<title>Node20&#45;&gt;Node15</title>
<path fill="none" stroke="#191970" d="M171.8453,-486.3228C183.732,-437.638 205.5391,-362.3142 238,-303 241.3506,-296.8777 245.1888,-290.764 249.2884,-284.7985"/>
<polygon fill="none" stroke="#191970" points="168.3831,-485.7519 169.4591,-496.2919 175.1909,-487.3814 168.3831,-485.7519"/>
</g>
<!-- Node21&#45;&gt;Node20 -->
<g id="edge7" class="edge">
<title>Node21&#45;&gt;Node20</title>
<path fill="none" stroke="#191970" d="M91.6972,-1033.7198C107.2154,-922.2712 141.9266,-672.9814 155.4536,-575.8329"/>
<polygon fill="none" stroke="#191970" points="88.2139,-1033.3585 90.3012,-1043.7457 95.147,-1034.324 88.2139,-1033.3585"/>
</g>
<!-- Node22 -->
<g id="node9" class="node">
<title>Node22</title>
<g id="a_node9"><a xlink:href="classL4Re_1_1Event.html" target="_top" xlink:title="Event class. ">
<polygon fill="#ffffff" stroke="#000000" points="279.5,-360 279.5,-472 428.5,-472 428.5,-360 279.5,-360"/>
<text text-anchor="middle" x="354" y="-460" font-family="Helvetica,sans-Serif" font-size="10.00" fill="#000000">L4Re::Event</text>
<polyline fill="none" stroke="#000000" points="279.5,-453 428.5,-453 "/>
<text text-anchor="middle" x="354" y="-441" font-family="Helvetica,sans-Serif" font-size="10.00" fill="#000000"> </text>
<polyline fill="none" stroke="#000000" points="279.5,-434 428.5,-434 "/>
<text text-anchor="start" x="287.5" y="-422" font-family="Helvetica,sans-Serif" font-size="10.00" fill="#000000">+ get_buffer()</text>
<text text-anchor="start" x="287.5" y="-411" font-family="Helvetica,sans-Serif" font-size="10.00" fill="#000000">+ get_num_streams()</text>
<text text-anchor="start" x="287.5" y="-400" font-family="Helvetica,sans-Serif" font-size="10.00" fill="#000000">+ get_stream_info()</text>
<text text-anchor="start" x="287.5" y="-389" font-family="Helvetica,sans-Serif" font-size="10.00" fill="#000000">+ get_stream_info_for_id()</text>
<text text-anchor="start" x="287.5" y="-378" font-family="Helvetica,sans-Serif" font-size="10.00" fill="#000000">+ get_axis_info()</text>
<text text-anchor="start" x="287.5" y="-367" font-family="Helvetica,sans-Serif" font-size="10.00" fill="#000000">+ get_stream_state_for_id()</text>
</a>
</g>
</g>
<!-- Node22&#45;&gt;Node15 -->
<g id="edge10" class="edge">
<title>Node22&#45;&gt;Node15</title>
<path fill="none" stroke="#191970" d="M336.5695,-350.0376C330.9728,-328.8577 324.7978,-305.4896 319.2863,-284.6323"/>
<polygon fill="none" stroke="#191970" points="333.2415,-351.1432 339.1802,-359.9172 340.0092,-349.3548 333.2415,-351.1432"/>
</g>
<!-- Node23&#45;&gt;Node22 -->
<g id="edge11" class="edge">
<title>Node23&#45;&gt;Node22</title>
<path fill="none" stroke="#191970" d="M404.502,-584.4656C394.2731,-550.3437 381.1665,-506.6226 370.8691,-472.2722"/>
<polygon fill="none" stroke="#191970" points="401.2174,-585.6976 407.4416,-594.2714 407.9226,-583.6875 401.2174,-585.6976"/>
</g>
<!-- Node24 -->
<g id="node11" class="node">
<title>Node24</title>
<g id="a_node11"><a xlink:href="classL4_1_1Icu.html" target="_top" xlink:title="C++ Icu interface. ">
<polygon fill="#ffffff" stroke="#000000" points="475,-856.5 475,-979.5 555,-979.5 555,-856.5 475,-856.5"/>
<text text-anchor="middle" x="515" y="-967.5" font-family="Helvetica,sans-Serif" font-size="10.00" fill="#000000">L4::Icu</text>
<polyline fill="none" stroke="#000000" points="475,-960.5 555,-960.5 "/>
<text text-anchor="middle" x="515" y="-948.5" font-family="Helvetica,sans-Serif" font-size="10.00" fill="#000000"> </text>
<polyline fill="none" stroke="#000000" points="475,-941.5 555,-941.5 "/>
<text text-anchor="start" x="483" y="-929.5" font-family="Helvetica,sans-Serif" font-size="10.00" fill="#000000">+ bind()</text>
<text text-anchor="start" x="483" y="-918.5" font-family="Helvetica,sans-Serif" font-size="10.00" fill="#000000">+ unbind()</text>
<text text-anchor="start" x="483" y="-907.5" font-family="Helvetica,sans-Serif" font-size="10.00" fill="#000000">+ info()</text>
<text text-anchor="start" x="483" y="-896.5" font-family="Helvetica,sans-Serif" font-size="10.00" fill="#000000">+ msi_info()</text>
<text text-anchor="start" x="483" y="-885.5" font-family="Helvetica,sans-Serif" font-size="10.00" fill="#000000">+ control()</text>
<text text-anchor="start" x="483" y="-874.5" font-family="Helvetica,sans-Serif" font-size="10.00" fill="#000000">+ mask()</text>
<text text-anchor="start" x="483" y="-863.5" font-family="Helvetica,sans-Serif" font-size="10.00" fill="#000000">+ set_mode()</text>
</a>
</g>
</g>
<!-- Node24&#45;&gt;Node23 -->
<g id="edge12" class="edge">
<title>Node24&#45;&gt;Node23</title>
<path fill="none" stroke="#191970" d="M490.8806,-846.5397C473.6635,-795.5295 451.0281,-728.4663 436.253,-684.691"/>
<polygon fill="none" stroke="#191970" points="487.6241,-847.8363 494.1384,-856.1918 494.2565,-845.5976 487.6241,-847.8363"/>
</g>
<!-- Node25&#45;&gt;Node24 -->
<g id="edge13" class="edge">
<title>Node25&#45;&gt;Node24</title>
<path fill="none" stroke="#191970" d="M533.5384,-1033.5035C531.7291,-1021.7768 529.8156,-1009.4785 528,-998 527.0547,-992.0237 526.0602,-985.798 525.0597,-979.5753"/>
<polygon fill="none" stroke="#191970" points="530.1159,-1034.2756 535.0966,-1043.6267 537.0345,-1033.2106 530.1159,-1034.2756"/>
</g>
<!-- Node26 -->
<g id="node13" class="node">
<title>Node26</title>
<g id="a_node13"><a xlink:href="classL4_1_1Irq__eoi.html" target="_top" xlink:title="Interface for sending an acknowledge message to an object. ">
<polygon fill="#ffffff" stroke="#000000" points="555,-1220.5 555,-1277.5 625,-1277.5 625,-1220.5 555,-1220.5"/>
<text text-anchor="middle" x="590" y="-1265.5" font-family="Helvetica,sans-Serif" font-size="10.00" fill="#000000">L4::Irq_eoi</text>
<polyline fill="none" stroke="#000000" points="555,-1258.5 625,-1258.5 "/>
<text text-anchor="middle" x="590" y="-1246.5" font-family="Helvetica,sans-Serif" font-size="10.00" fill="#000000"> </text>
<polyline fill="none" stroke="#000000" points="555,-1239.5 625,-1239.5 "/>
<text text-anchor="start" x="563" y="-1227.5" font-family="Helvetica,sans-Serif" font-size="10.00" fill="#000000">+ unmask()</text>
</a>
</g>
</g>
<!-- Node26&#45;&gt;Node25 -->
<g id="edge14" class="edge">
<title>Node26&#45;&gt;Node25</title>
<path fill="none" stroke="#191970" d="M586.6381,-1209.927C584.5575,-1193.6171 581.2409,-1174.6332 576,-1158 573.5117,-1150.1029 570.2344,-1141.9838 566.6963,-1134.2134"/>
<polygon fill="none" stroke="#191970" points="583.2019,-1210.679 587.8346,-1220.2073 590.1549,-1209.8696 583.2019,-1210.679"/>
</g>
<!-- Node27 -->
<g id="node14" class="node">
<title>Node27</title>
<g id="a_node14"><a xlink:href="structL4_1_1Kobject__3t.html" target="_top" xlink:title="Helper class to create an L4Re interface class that is derived from three base classes (see L4::Kobje...">
<polygon fill="#ffffff" stroke="#000000" points="446.5,-354.5 446.5,-477.5 597.5,-477.5 597.5,-354.5 446.5,-354.5"/>
<text text-anchor="start" x="454.5" y="-465.5" font-family="Helvetica,sans-Serif" font-size="10.00" fill="#000000">L4::Kobject_3t&lt; Derived,</text>
<text text-anchor="start" x="454.5" y="-454.5" font-family="Helvetica,sans-Serif" font-size="10.00" fill="#000000"> Base1, Base2, Base3,</text>
<text text-anchor="middle" x="522" y="-443.5" font-family="Helvetica,sans-Serif" font-size="10.00" fill="#000000"> PROTO, S_DEMAND &gt;</text>
<polyline fill="none" stroke="#000000" points="446.5,-436.5 597.5,-436.5 "/>
<text text-anchor="middle" x="522" y="-424.5" font-family="Helvetica,sans-Serif" font-size="10.00" fill="#000000"> </text>
<polyline fill="none" stroke="#000000" points="446.5,-417.5 597.5,-417.5 "/>
<text text-anchor="start" x="454.5" y="-405.5" font-family="Helvetica,sans-Serif" font-size="10.00" fill="#000000">+ operator Kobject const &amp;()</text>
<text text-anchor="start" x="454.5" y="-394.5" font-family="Helvetica,sans-Serif" font-size="10.00" fill="#000000">+ dec_refcnt()</text>
<text text-anchor="start" x="454.5" y="-383.5" font-family="Helvetica,sans-Serif" font-size="10.00" fill="#000000"># cap()</text>
<text text-anchor="start" x="454.5" y="-372.5" font-family="Helvetica,sans-Serif" font-size="10.00" fill="#000000"># c()</text>
<text text-anchor="start" x="454.5" y="-361.5" font-family="Helvetica,sans-Serif" font-size="10.00" fill="#000000"># __check_protocols__()</text>
</a>
</g>
</g>
<!-- Node27&#45;&gt;Node15 -->
<g id="edge17" class="edge">
<title>Node27&#45;&gt;Node15</title>
<path fill="none" stroke="#ffa500" d="M444.3065,-347.5304C421.0544,-327.0388 395.707,-304.7007 372.9822,-284.6738"/>
<polygon fill="#ffa500" stroke="#ffa500" points="442.2884,-350.4171 452.1049,-354.403 446.9166,-345.1654 442.2884,-350.4171"/>
<text text-anchor="start" x="426" y="-328" font-family="Helvetica,sans-Serif" font-size="10.00" fill="#000000"> &lt; Vbus, L4Re::Dataspace,</text>
<text text-anchor="start" x="426" y="-317" font-family="Helvetica,sans-Serif" font-size="10.00" fill="#000000"> L4Re::Inhibitor, L4Re</text>
<text text-anchor="middle" x="488" y="-306" font-family="Helvetica,sans-Serif" font-size="10.00" fill="#000000">::Event &gt;</text>
</g>
</g>
</svg>
