<?xml version="1.0" encoding="UTF-8" standalone="no"?>
<!DOCTYPE svg PUBLIC "-//W3C//DTD SVG 1.1//EN"
 "http://www.w3.org/Graphics/SVG/1.1/DTD/svg11.dtd">
<!-- Generated by graphviz version 2.40.1 (20161225.0304)
 -->
<!-- Title: L4::Ipc_svr::Timeout Pages: 1 -->
<svg width="118pt" height="204pt"
 viewBox="0.00 0.00 118.00 204.00" xmlns="http://www.w3.org/2000/svg" xmlns:xlink="http://www.w3.org/1999/xlink">
<g id="graph0" class="graph" transform="scale(1 1) rotate(0) translate(4 200)">
<title>L4::Ipc_svr::Timeout</title>
<polygon fill="#ffffff" stroke="transparent" points="-4,4 -4,-200 114,-200 114,4 -4,4"/>
<!-- Node2 -->
<g id="node1" class="node">
<title>Node2</title>
<polygon fill="#bfbfbf" stroke="#000000" points="0,-.5 0,-90.5 110,-90.5 110,-.5 0,-.5"/>
<text text-anchor="middle" x="55" y="-78.5" font-family="Helvetica,sans-Serif" font-size="10.00" fill="#000000">L4::Ipc_svr::Timeout</text>
<polyline fill="none" stroke="#000000" points="0,-71.5 110,-71.5 "/>
<text text-anchor="middle" x="55" y="-59.5" font-family="Helvetica,sans-Serif" font-size="10.00" fill="#000000"> </text>
<polyline fill="none" stroke="#000000" points="0,-52.5 110,-52.5 "/>
<text text-anchor="start" x="8" y="-40.5" font-family="Helvetica,sans-Serif" font-size="10.00" fill="#000000">+ Timeout()</text>
<text text-anchor="start" x="8" y="-29.5" font-family="Helvetica,sans-Serif" font-size="10.00" fill="#000000">+ ~Timeout()</text>
<text text-anchor="start" x="8" y="-18.5" font-family="Helvetica,sans-Serif" font-size="10.00" fill="#000000">+ expired()</text>
<text text-anchor="start" x="8" y="-7.5" font-family="Helvetica,sans-Serif" font-size="10.00" fill="#000000">+ timeout()</text>
</g>
<!-- Node3 -->
<g id="node2" class="node">
<title>Node3</title>
<g id="a_node2"><a xlink:href="classcxx_1_1H__list__item__t.html" target="_top" xlink:title="Basic element type for a double&#45;linked H_list. ">
<polygon fill="#ffffff" stroke="#000000" points="4.5,-127.5 4.5,-195.5 105.5,-195.5 105.5,-127.5 4.5,-127.5"/>
<text text-anchor="middle" x="55" y="-183.5" font-family="Helvetica,sans-Serif" font-size="10.00" fill="#000000">cxx::H_list_item</text>
<polyline fill="none" stroke="#000000" points="4.5,-176.5 105.5,-176.5 "/>
<text text-anchor="middle" x="55" y="-164.5" font-family="Helvetica,sans-Serif" font-size="10.00" fill="#000000"> </text>
<polyline fill="none" stroke="#000000" points="4.5,-157.5 105.5,-157.5 "/>
<text text-anchor="start" x="12.5" y="-145.5" font-family="Helvetica,sans-Serif" font-size="10.00" fill="#000000">+ H_list_item_t()</text>
<text text-anchor="start" x="12.5" y="-134.5" font-family="Helvetica,sans-Serif" font-size="10.00" fill="#000000">+ ~H_list_item_t()</text>
</a>
</g>
</g>
<!-- Node3&#45;&gt;Node2 -->
<g id="edge1" class="edge">
<title>Node3&#45;&gt;Node2</title>
<path fill="none" stroke="#191970" d="M55,-117.3177C55,-108.5764 55,-99.3904 55,-90.6185"/>
<polygon fill="none" stroke="#191970" points="51.5001,-117.3235 55,-127.3236 58.5001,-117.3236 51.5001,-117.3235"/>
</g>
</g>
</svg>
