<?xml version="1.0" encoding="UTF-8" standalone="no"?>
<!DOCTYPE svg PUBLIC "-//W3C//DTD SVG 1.1//EN"
 "http://www.w3.org/Graphics/SVG/1.1/DTD/svg11.dtd">
<!-- Generated by graphviz version 2.40.1 (20161225.0304)
 -->
<!-- Title: L4::Registry_iface::register_obj Pages: 1 -->
<svg width="246pt" height="39pt"
 viewBox="0.00 0.00 246.00 39.00" xmlns="http://www.w3.org/2000/svg" xmlns:xlink="http://www.w3.org/1999/xlink">
<g id="graph0" class="graph" transform="scale(1 1) rotate(0) translate(4 35)">
<title>L4::Registry_iface::register_obj</title>
<polygon fill="#ffffff" stroke="transparent" points="-4,4 -4,-35 242,-35 242,4 -4,4"/>
<!-- Node5 -->
<g id="node1" class="node">
<title>Node5</title>
<polygon fill="#bfbfbf" stroke="#000000" points="0,-.5 0,-30.5 101,-30.5 101,-.5 0,-.5"/>
<text text-anchor="start" x="8" y="-18.5" font-family="Helvetica,sans-Serif" font-size="10.00" fill="#000000">L4::Registry_iface</text>
<text text-anchor="middle" x="50.5" y="-7.5" font-family="Helvetica,sans-Serif" font-size="10.00" fill="#000000">::register_obj</text>
</g>
<!-- Node6 -->
<g id="node2" class="node">
<title>Node6</title>
<g id="a_node2"><a xlink:href="classL4virtio_1_1Svr_1_1Block__dev__base.html#aa0d0377a069419b77e4ff9c6ae08b092" target="_top" xlink:title="reset callback, called for doing a device reset ">
<polygon fill="#ffffff" stroke="#000000" points="137,-.5 137,-30.5 238,-30.5 238,-.5 137,-.5"/>
<text text-anchor="start" x="145" y="-18.5" font-family="Helvetica,sans-Serif" font-size="10.00" fill="#000000">L4virtio::Svr::Block</text>
<text text-anchor="middle" x="187.5" y="-7.5" font-family="Helvetica,sans-Serif" font-size="10.00" fill="#000000">_dev_base::reset</text>
</a>
</g>
</g>
<!-- Node5&#45;&gt;Node6 -->
<g id="edge1" class="edge">
<title>Node5&#45;&gt;Node6</title>
<path fill="none" stroke="#191970" d="M111.3203,-15.5C119.7722,-15.5 128.3819,-15.5 136.6262,-15.5"/>
<polygon fill="#191970" stroke="#191970" points="111.1245,-12.0001 101.1245,-15.5 111.1245,-19.0001 111.1245,-12.0001"/>
</g>
</g>
</svg>
