<?xml version="1.0" encoding="UTF-8" standalone="no"?>
<!DOCTYPE svg PUBLIC "-//W3C//DTD SVG 1.1//EN"
 "http://www.w3.org/Graphics/SVG/1.1/DTD/svg11.dtd">
<!-- Generated by graphviz version 2.40.1 (20161225.0304)
 -->
<!-- Title: cxx::Bitmap_base::set_bit Pages: 1 -->
<svg width="302pt" height="88pt"
 viewBox="0.00 0.00 302.00 88.00" xmlns="http://www.w3.org/2000/svg" xmlns:xlink="http://www.w3.org/1999/xlink">
<g id="graph0" class="graph" transform="scale(1 1) rotate(0) translate(4 84)">
<title>cxx::Bitmap_base::set_bit</title>
<polygon fill="#ffffff" stroke="transparent" points="-4,4 -4,-84 298,-84 298,4 -4,4"/>
<!-- Node36 -->
<g id="node1" class="node">
<title>Node36</title>
<polygon fill="#bfbfbf" stroke="#000000" points="0,-30 0,-49 133,-49 133,-30 0,-30"/>
<text text-anchor="middle" x="66.5" y="-37" font-family="Helvetica,sans-Serif" font-size="10.00" fill="#000000">cxx::Bitmap_base::set_bit</text>
</g>
<!-- Node37 -->
<g id="node2" class="node">
<title>Node37</title>
<g id="a_node2"><a xlink:href="classcxx_1_1Bitmap__base.html#a63b497caf4cba8376deb2b8831d3fb4f" target="_top" xlink:title="Get the bit index within word_type for the given bit. ">
<polygon fill="#ffffff" stroke="#000000" points="175,-49.5 175,-79.5 288,-79.5 288,-49.5 175,-49.5"/>
<text text-anchor="start" x="183" y="-67.5" font-family="Helvetica,sans-Serif" font-size="10.00" fill="#000000">cxx::Bitmap_base::bit</text>
<text text-anchor="middle" x="231.5" y="-56.5" font-family="Helvetica,sans-Serif" font-size="10.00" fill="#000000">_index</text>
</a>
</g>
</g>
<!-- Node36&#45;&gt;Node37 -->
<g id="edge1" class="edge">
<title>Node36&#45;&gt;Node37</title>
<path fill="none" stroke="#191970" d="M129.3501,-49.0227C140.902,-50.773 152.9997,-52.606 164.6638,-54.3733"/>
<polygon fill="#191970" stroke="#191970" points="164.3662,-57.8681 174.7777,-55.9057 165.4149,-50.9471 164.3662,-57.8681"/>
</g>
<!-- Node38 -->
<g id="node3" class="node">
<title>Node38</title>
<g id="a_node3"><a xlink:href="classcxx_1_1Bitmap__base.html#a7a9d9e1459ab5508c071f3989c3bbf4e" target="_top" xlink:title="Get the word index for the given bit. ">
<polygon fill="#ffffff" stroke="#000000" points="169,-.5 169,-30.5 294,-30.5 294,-.5 169,-.5"/>
<text text-anchor="start" x="177" y="-18.5" font-family="Helvetica,sans-Serif" font-size="10.00" fill="#000000">cxx::Bitmap_base::word</text>
<text text-anchor="middle" x="231.5" y="-7.5" font-family="Helvetica,sans-Serif" font-size="10.00" fill="#000000">_index</text>
</a>
</g>
</g>
<!-- Node36&#45;&gt;Node38 -->
<g id="edge2" class="edge">
<title>Node36&#45;&gt;Node38</title>
<path fill="none" stroke="#191970" d="M132.1865,-29.9456C141.0014,-28.6634 150.0838,-27.3424 159.0076,-26.0443"/>
<polygon fill="#191970" stroke="#191970" points="159.6008,-29.495 168.9928,-24.5919 158.5932,-22.5679 159.6008,-29.495"/>
</g>
</g>
</svg>
