<?xml version="1.0" encoding="UTF-8" standalone="no"?>
<!DOCTYPE svg PUBLIC "-//W3C//DTD SVG 1.1//EN"
 "http://www.w3.org/Graphics/SVG/1.1/DTD/svg11.dtd">
<!-- Generated by graphviz version 2.40.1 (20161225.0304)
 -->
<!-- Title: L4::Ipc_svr::Server_iface::get_rcv_cap Pages: 1 -->
<svg width="262pt" height="88pt"
 viewBox="0.00 0.00 262.00 88.00" xmlns="http://www.w3.org/2000/svg" xmlns:xlink="http://www.w3.org/1999/xlink">
<g id="graph0" class="graph" transform="scale(1 1) rotate(0) translate(4 84)">
<title>L4::Ipc_svr::Server_iface::get_rcv_cap</title>
<polygon fill="#ffffff" stroke="transparent" points="-4,4 -4,-84 258,-84 258,4 -4,4"/>
<!-- Node8 -->
<g id="node1" class="node">
<title>Node8</title>
<polygon fill="#bfbfbf" stroke="#000000" points="0,-24.5 0,-54.5 108,-54.5 108,-24.5 0,-24.5"/>
<text text-anchor="start" x="8" y="-42.5" font-family="Helvetica,sans-Serif" font-size="10.00" fill="#000000">L4::Ipc_svr::Server</text>
<text text-anchor="middle" x="54" y="-31.5" font-family="Helvetica,sans-Serif" font-size="10.00" fill="#000000">_iface::get_rcv_cap</text>
</g>
<!-- Node9 -->
<g id="node2" class="node">
<title>Node9</title>
<g id="a_node2"><a xlink:href="classL4_1_1Ipc__svr_1_1Server__iface.html#ac44e716be4e47dab6b68cc91801fc7b8" target="_top" xlink:title="Get given receive buffer as typed capability. ">
<polygon fill="#ffffff" stroke="#000000" points="147,-49.5 147,-79.5 251,-79.5 251,-49.5 147,-49.5"/>
<text text-anchor="start" x="155" y="-67.5" font-family="Helvetica,sans-Serif" font-size="10.00" fill="#000000">L4::Ipc_svr::Server</text>
<text text-anchor="middle" x="199" y="-56.5" font-family="Helvetica,sans-Serif" font-size="10.00" fill="#000000">_iface::rcv_cap</text>
</a>
</g>
</g>
<!-- Node8&#45;&gt;Node9 -->
<g id="edge1" class="edge">
<title>Node8&#45;&gt;Node9</title>
<path fill="none" stroke="#191970" d="M118.5275,-50.6254C127.95,-52.25 137.5542,-53.9059 146.6933,-55.4816"/>
<polygon fill="#191970" stroke="#191970" points="118.8545,-47.1302 108.4052,-48.8802 117.6651,-54.0285 118.8545,-47.1302"/>
</g>
<!-- Node10 -->
<g id="node3" class="node">
<title>Node10</title>
<g id="a_node3"><a xlink:href="classL4_1_1Ipc__svr_1_1Server__iface.html#aa17aa10ace494b229a3e0879599e23b9" target="_top" xlink:title="Make a server interface. ">
<polygon fill="#ffffff" stroke="#000000" points="144,-.5 144,-30.5 254,-30.5 254,-.5 144,-.5"/>
<text text-anchor="start" x="152" y="-18.5" font-family="Helvetica,sans-Serif" font-size="10.00" fill="#000000">L4::Ipc_svr::Server</text>
<text text-anchor="middle" x="199" y="-7.5" font-family="Helvetica,sans-Serif" font-size="10.00" fill="#000000">_iface::Server_iface</text>
</a>
</g>
</g>
<!-- Node8&#45;&gt;Node10 -->
<g id="edge2" class="edge">
<title>Node8&#45;&gt;Node10</title>
<path fill="none" stroke="#191970" d="M118.2963,-28.8579C126.8061,-27.4493 135.4687,-26.0155 143.8069,-24.6354"/>
<polygon fill="#191970" stroke="#191970" points="117.6994,-25.4089 108.4052,-30.495 118.8425,-32.315 117.6994,-25.4089"/>
</g>
</g>
</svg>
