<?xml version="1.0" encoding="UTF-8" standalone="no"?>
<!DOCTYPE svg PUBLIC "-//W3C//DTD SVG 1.1//EN"
 "http://www.w3.org/Graphics/SVG/1.1/DTD/svg11.dtd">
<!-- Generated by graphviz version 2.40.1 (20161225.0304)
 -->
<!-- Title: L4::Ipc::Varg::is_nil Pages: 1 -->
<svg width="289pt" height="137pt"
 viewBox="0.00 0.00 289.00 137.00" xmlns="http://www.w3.org/2000/svg" xmlns:xlink="http://www.w3.org/1999/xlink">
<g id="graph0" class="graph" transform="scale(1 1) rotate(0) translate(4 133)">
<title>L4::Ipc::Varg::is_nil</title>
<polygon fill="#ffffff" stroke="transparent" points="-4,4 -4,-133 285,-133 285,4 -4,4"/>
<!-- Node5 -->
<g id="node1" class="node">
<title>Node5</title>
<polygon fill="#bfbfbf" stroke="#000000" points="0,-55 0,-74 103,-74 103,-55 0,-55"/>
<text text-anchor="middle" x="51.5" y="-62" font-family="Helvetica,sans-Serif" font-size="10.00" fill="#000000">L4::Ipc::Varg::is_nil</text>
</g>
<!-- Node6 -->
<g id="node2" class="node">
<title>Node6</title>
<g id="a_node2"><a xlink:href="classL4_1_1Ipc_1_1Varg__list__ref_1_1Iterator.html#a3cb6dc1dcbb065b89962fd9dce378320" target="_top" xlink:title="check for equality ">
<polygon fill="#ffffff" stroke="#000000" points="155,-98.5 155,-128.5 265,-128.5 265,-98.5 155,-98.5"/>
<text text-anchor="start" x="163" y="-116.5" font-family="Helvetica,sans-Serif" font-size="10.00" fill="#000000">L4::Ipc::Varg_list</text>
<text text-anchor="middle" x="210" y="-105.5" font-family="Helvetica,sans-Serif" font-size="10.00" fill="#000000">_ref::Iterator::equals</text>
</a>
</g>
</g>
<!-- Node5&#45;&gt;Node6 -->
<g id="edge1" class="edge">
<title>Node5&#45;&gt;Node6</title>
<path fill="none" stroke="#191970" d="M92.0715,-77.0426C113.1918,-83.5719 139.1679,-91.6024 161.36,-98.463"/>
<polygon fill="#191970" stroke="#191970" points="93.0243,-73.6738 82.4367,-74.064 90.9568,-80.3615 93.0243,-73.6738"/>
</g>
<!-- Node7 -->
<g id="node3" class="node">
<title>Node7</title>
<g id="a_node3"><a xlink:href="classL4_1_1Ipc_1_1Varg__list__ref_1_1Iterator.html#a35b403543cfb66545a5f3465bb2b1251" target="_top" xlink:title="validity check for the iterator ">
<polygon fill="#ffffff" stroke="#000000" points="139,-49.5 139,-79.5 281,-79.5 281,-49.5 139,-49.5"/>
<text text-anchor="start" x="147" y="-67.5" font-family="Helvetica,sans-Serif" font-size="10.00" fill="#000000">L4::Ipc::Varg_list</text>
<text text-anchor="middle" x="210" y="-56.5" font-family="Helvetica,sans-Serif" font-size="10.00" fill="#000000">_ref::Iterator::operator bool</text>
</a>
</g>
</g>
<!-- Node5&#45;&gt;Node7 -->
<g id="edge2" class="edge">
<title>Node5&#45;&gt;Node7</title>
<path fill="none" stroke="#191970" d="M113.4517,-64.5C121.8254,-64.5 130.47,-64.5 138.9863,-64.5"/>
<polygon fill="#191970" stroke="#191970" points="113.3989,-61.0001 103.3988,-64.5 113.3988,-68.0001 113.3989,-61.0001"/>
</g>
<!-- Node8 -->
<g id="node4" class="node">
<title>Node8</title>
<g id="a_node4"><a xlink:href="classL4_1_1Ipc_1_1Varg__list__ref_1_1Iterator.html#a6b30cf3efafe603b779dc0a82331d430" target="_top" xlink:title="increment iterator to the next arg ">
<polygon fill="#ffffff" stroke="#000000" points="143.5,-.5 143.5,-30.5 276.5,-30.5 276.5,-.5 143.5,-.5"/>
<text text-anchor="start" x="151.5" y="-18.5" font-family="Helvetica,sans-Serif" font-size="10.00" fill="#000000">L4::Ipc::Varg_list</text>
<text text-anchor="middle" x="210" y="-7.5" font-family="Helvetica,sans-Serif" font-size="10.00" fill="#000000">_ref::Iterator::operator++</text>
</a>
</g>
</g>
<!-- Node5&#45;&gt;Node8 -->
<g id="edge3" class="edge">
<title>Node5&#45;&gt;Node8</title>
<path fill="none" stroke="#191970" d="M92.0715,-51.9574C113.1918,-45.4281 139.1679,-37.3976 161.36,-30.537"/>
<polygon fill="#191970" stroke="#191970" points="90.9568,-48.6385 82.4367,-54.936 93.0243,-55.3262 90.9568,-48.6385"/>
</g>
</g>
</svg>
