<?xml version="1.0" encoding="UTF-8" standalone="no"?>
<!DOCTYPE svg PUBLIC "-//W3C//DTD SVG 1.1//EN"
 "http://www.w3.org/Graphics/SVG/1.1/DTD/svg11.dtd">
<!-- Generated by graphviz version 2.40.1 (20161225.0304)
 -->
<!-- Title: L4::Factory::create_gate Pages: 1 -->
<svg width="311pt" height="104pt"
 viewBox="0.00 0.00 311.00 104.00" xmlns="http://www.w3.org/2000/svg" xmlns:xlink="http://www.w3.org/1999/xlink">
<g id="graph0" class="graph" transform="scale(1 1) rotate(0) translate(4 100)">
<title>L4::Factory::create_gate</title>
<polygon fill="#ffffff" stroke="transparent" points="-4,4 -4,-100 307,-100 307,4 -4,4"/>
<!-- Node14 -->
<g id="node1" class="node">
<title>Node14</title>
<polygon fill="#bfbfbf" stroke="#000000" points="0,-38.5 0,-57.5 130,-57.5 130,-38.5 0,-38.5"/>
<text text-anchor="middle" x="65" y="-45.5" font-family="Helvetica,sans-Serif" font-size="10.00" fill="#000000">L4::Factory::create_gate</text>
</g>
<!-- Node15 -->
<g id="node2" class="node">
<title>Node15</title>
<g id="a_node2"><a xlink:href="classL4_1_1Cap__base.html#a90ff089ca2442b128c2b2b0e1c22c6d7" target="_top" xlink:title="Return capability selector. ">
<polygon fill="#ffffff" stroke="#000000" points="183,-76.5 183,-95.5 286,-95.5 286,-76.5 183,-76.5"/>
<text text-anchor="middle" x="234.5" y="-83.5" font-family="Helvetica,sans-Serif" font-size="10.00" fill="#000000">L4::Cap_base::cap</text>
</a>
</g>
</g>
<!-- Node14&#45;&gt;Node15 -->
<g id="edge1" class="edge">
<title>Node14&#45;&gt;Node15</title>
<path fill="none" stroke="#191970" d="M107.772,-57.589C130.3409,-62.6487 158.2232,-68.8996 182.0833,-74.2488"/>
<polygon fill="#191970" stroke="#191970" points="181.5121,-77.7075 192.0356,-76.4799 183.0435,-70.8771 181.5121,-77.7075"/>
</g>
<!-- Node16 -->
<g id="node3" class="node">
<title>Node16</title>
<g id="a_node3"><a xlink:href="classL4_1_1Kobject.html#a4f2117ae76762f4084e6a1adb915863c" target="_top" xlink:title="Return capability selector. ">
<polygon fill="#ffffff" stroke="#000000" points="190,-38.5 190,-57.5 279,-57.5 279,-38.5 190,-38.5"/>
<text text-anchor="middle" x="234.5" y="-45.5" font-family="Helvetica,sans-Serif" font-size="10.00" fill="#000000">L4::Kobject::cap</text>
</a>
</g>
</g>
<!-- Node14&#45;&gt;Node16 -->
<g id="edge2" class="edge">
<title>Node14&#45;&gt;Node16</title>
<path fill="none" stroke="#191970" d="M130.0484,-48C146.4373,-48 163.8668,-48 179.6967,-48"/>
<polygon fill="#191970" stroke="#191970" points="179.8412,-51.5001 189.8412,-48 179.8412,-44.5001 179.8412,-51.5001"/>
</g>
<!-- Node17 -->
<g id="node4" class="node">
<title>Node17</title>
<g id="a_node4"><a xlink:href="group__l4__factory__api.html#ga935f08d65381d02d9bc6d3a48abe8a78" target="_top" xlink:title="Create a new IPC gate. ">
<polygon fill="#ffffff" stroke="#000000" points="166,-.5 166,-19.5 303,-19.5 303,-.5 166,-.5"/>
<text text-anchor="middle" x="234.5" y="-7.5" font-family="Helvetica,sans-Serif" font-size="10.00" fill="#000000">l4_factory_create_gate_u</text>
</a>
</g>
</g>
<!-- Node14&#45;&gt;Node17 -->
<g id="edge3" class="edge">
<title>Node14&#45;&gt;Node17</title>
<path fill="none" stroke="#191970" d="M107.772,-38.411C130.3409,-33.3513 158.2232,-27.1004 182.0833,-21.7512"/>
<polygon fill="#191970" stroke="#191970" points="183.0435,-25.1229 192.0356,-19.5201 181.5121,-18.2925 183.0435,-25.1229"/>
</g>
</g>
</svg>
