<?xml version="1.0" encoding="UTF-8" standalone="no"?>
<!DOCTYPE svg PUBLIC "-//W3C//DTD SVG 1.1//EN"
 "http://www.w3.org/Graphics/SVG/1.1/DTD/svg11.dtd">
<!-- Generated by graphviz version 2.40.1 (20161225.0304)
 -->
<!-- Title: L4Re::Video::Goos Pages: 1 -->
<svg width="280pt" height="453pt"
 viewBox="0.00 0.00 280.00 453.00" xmlns="http://www.w3.org/2000/svg" xmlns:xlink="http://www.w3.org/1999/xlink">
<g id="graph0" class="graph" transform="scale(1 1) rotate(0) translate(4 449)">
<title>L4Re::Video::Goos</title>
<polygon fill="#ffffff" stroke="transparent" points="-4,4 -4,-449 276,-449 276,4 -4,4"/>
<!-- Node4 -->
<g id="node1" class="node">
<title>Node4</title>
<polygon fill="#bfbfbf" stroke="#000000" points="55,-.5 55,-178.5 167,-178.5 167,-.5 55,-.5"/>
<text text-anchor="middle" x="111" y="-166.5" font-family="Helvetica,sans-Serif" font-size="10.00" fill="#000000">L4Re::Video::Goos</text>
<polyline fill="none" stroke="#000000" points="55,-159.5 167,-159.5 "/>
<text text-anchor="middle" x="111" y="-147.5" font-family="Helvetica,sans-Serif" font-size="10.00" fill="#000000"> </text>
<polyline fill="none" stroke="#000000" points="55,-140.5 167,-140.5 "/>
<text text-anchor="start" x="63" y="-128.5" font-family="Helvetica,sans-Serif" font-size="10.00" fill="#000000">+ info()</text>
<text text-anchor="start" x="63" y="-117.5" font-family="Helvetica,sans-Serif" font-size="10.00" fill="#000000">+ get_static_buffer()</text>
<text text-anchor="start" x="63" y="-106.5" font-family="Helvetica,sans-Serif" font-size="10.00" fill="#000000">+ create_buffer()</text>
<text text-anchor="start" x="63" y="-95.5" font-family="Helvetica,sans-Serif" font-size="10.00" fill="#000000">+ delete_buffer()</text>
<text text-anchor="start" x="63" y="-84.5" font-family="Helvetica,sans-Serif" font-size="10.00" fill="#000000">+ create_view()</text>
<text text-anchor="start" x="63" y="-73.5" font-family="Helvetica,sans-Serif" font-size="10.00" fill="#000000">+ delete_view()</text>
<text text-anchor="start" x="63" y="-62.5" font-family="Helvetica,sans-Serif" font-size="10.00" fill="#000000">+ view()</text>
<text text-anchor="start" x="63" y="-51.5" font-family="Helvetica,sans-Serif" font-size="10.00" fill="#000000">+ refresh()</text>
<text text-anchor="start" x="63" y="-40.5" font-family="Helvetica,sans-Serif" font-size="10.00" fill="#000000">+ view_info()</text>
<text text-anchor="start" x="63" y="-29.5" font-family="Helvetica,sans-Serif" font-size="10.00" fill="#000000">+ set_view_info()</text>
<text text-anchor="start" x="63" y="-18.5" font-family="Helvetica,sans-Serif" font-size="10.00" fill="#000000">+ view_stack()</text>
<text text-anchor="start" x="63" y="-7.5" font-family="Helvetica,sans-Serif" font-size="10.00" fill="#000000">+ view_refresh()</text>
</g>
<!-- Node5 -->
<g id="node2" class="node">
<title>Node5</title>
<g id="a_node2"><a xlink:href="classL4_1_1Kobject__t.html" target="_top" xlink:title="{L4::Kobject_t\&lt; Goos,\l L4::Kobject, L4RE_PROTO\l_GOOS \&gt;\n||# c()\l# __check_protocols__()\l}">
<polygon fill="#ffffff" stroke="#000000" points="38,-216.5 38,-306.5 184,-306.5 184,-216.5 38,-216.5"/>
<text text-anchor="start" x="46" y="-294.5" font-family="Helvetica,sans-Serif" font-size="10.00" fill="#000000">L4::Kobject_t&lt; Goos,</text>
<text text-anchor="start" x="46" y="-283.5" font-family="Helvetica,sans-Serif" font-size="10.00" fill="#000000"> L4::Kobject, L4RE_PROTO</text>
<text text-anchor="middle" x="111" y="-272.5" font-family="Helvetica,sans-Serif" font-size="10.00" fill="#000000">_GOOS &gt;</text>
<polyline fill="none" stroke="#000000" points="38,-265.5 184,-265.5 "/>
<text text-anchor="middle" x="111" y="-253.5" font-family="Helvetica,sans-Serif" font-size="10.00" fill="#000000"> </text>
<polyline fill="none" stroke="#000000" points="38,-246.5 184,-246.5 "/>
<text text-anchor="start" x="46" y="-234.5" font-family="Helvetica,sans-Serif" font-size="10.00" fill="#000000"># c()</text>
<text text-anchor="start" x="46" y="-223.5" font-family="Helvetica,sans-Serif" font-size="10.00" fill="#000000"># __check_protocols__()</text>
</a>
</g>
</g>
<!-- Node5&#45;&gt;Node4 -->
<g id="edge1" class="edge">
<title>Node5&#45;&gt;Node4</title>
<path fill="none" stroke="#191970" d="M111,-206.2016C111,-197.3745 111,-188.0506 111,-178.6763"/>
<polygon fill="none" stroke="#191970" points="107.5001,-206.309 111,-216.309 114.5001,-206.3091 107.5001,-206.309"/>
</g>
<!-- Node6 -->
<g id="node3" class="node">
<title>Node6</title>
<g id="a_node3"><a xlink:href="classL4_1_1Kobject.html" target="_top" xlink:title="Base class for all kinds of kernel objects and remote objects, referenced by capabilities. ">
<polygon fill="#ffffff" stroke="#000000" points="0,-371 0,-439 84,-439 84,-371 0,-371"/>
<text text-anchor="middle" x="42" y="-427" font-family="Helvetica,sans-Serif" font-size="10.00" fill="#000000">L4::Kobject</text>
<polyline fill="none" stroke="#000000" points="0,-420 84,-420 "/>
<text text-anchor="middle" x="42" y="-408" font-family="Helvetica,sans-Serif" font-size="10.00" fill="#000000"> </text>
<polyline fill="none" stroke="#000000" points="0,-401 84,-401 "/>
<text text-anchor="start" x="8" y="-389" font-family="Helvetica,sans-Serif" font-size="10.00" fill="#000000">+ dec_refcnt()</text>
<text text-anchor="start" x="8" y="-378" font-family="Helvetica,sans-Serif" font-size="10.00" fill="#000000"># cap()</text>
</a>
</g>
</g>
<!-- Node6&#45;&gt;Node5 -->
<g id="edge2" class="edge">
<title>Node6&#45;&gt;Node5</title>
<path fill="none" stroke="#191970" d="M62.8483,-361.6415C71.2059,-344.2603 80.8377,-324.2287 89.2804,-306.6704"/>
<polygon fill="none" stroke="#191970" points="59.5312,-360.4635 58.352,-370.9925 65.8398,-363.4969 59.5312,-360.4635"/>
</g>
<!-- Node7 -->
<g id="node4" class="node">
<title>Node7</title>
<g id="a_node4"><a xlink:href="classL4_1_1Kobject__t.html" target="_top" xlink:title="Helper class to create an L4Re interface class that is derived from a single base class...">
<polygon fill="#ffffff" stroke="#000000" points="102,-365.5 102,-444.5 260,-444.5 260,-365.5 102,-365.5"/>
<text text-anchor="start" x="110" y="-432.5" font-family="Helvetica,sans-Serif" font-size="10.00" fill="#000000">L4::Kobject_t&lt; Derived,</text>
<text text-anchor="middle" x="181" y="-421.5" font-family="Helvetica,sans-Serif" font-size="10.00" fill="#000000"> Base, PROTO, S_DEMAND &gt;</text>
<polyline fill="none" stroke="#000000" points="102,-414.5 260,-414.5 "/>
<text text-anchor="middle" x="181" y="-402.5" font-family="Helvetica,sans-Serif" font-size="10.00" fill="#000000"> </text>
<polyline fill="none" stroke="#000000" points="102,-395.5 260,-395.5 "/>
<text text-anchor="start" x="110" y="-383.5" font-family="Helvetica,sans-Serif" font-size="10.00" fill="#000000"># c()</text>
<text text-anchor="start" x="110" y="-372.5" font-family="Helvetica,sans-Serif" font-size="10.00" fill="#000000"># __check_protocols__()</text>
</a>
</g>
</g>
<!-- Node7&#45;&gt;Node5 -->
<g id="edge3" class="edge">
<title>Node7&#45;&gt;Node5</title>
<path fill="none" stroke="#ffa500" d="M157.1808,-356.1707C149.3402,-340.0974 140.6631,-322.3094 132.9669,-306.5321"/>
<polygon fill="#ffa500" stroke="#ffa500" points="154.1569,-357.9549 161.6869,-365.4081 160.4483,-354.8859 154.1569,-357.9549"/>
<text text-anchor="start" x="152" y="-339" font-family="Helvetica,sans-Serif" font-size="10.00" fill="#000000"> &lt; Goos, L4::Kobject,</text>
<text text-anchor="middle" x="212" y="-328" font-family="Helvetica,sans-Serif" font-size="10.00" fill="#000000"> L4RE_PROTO_GOOS &gt;</text>
</g>
</g>
</svg>
