<?xml version="1.0" encoding="UTF-8" standalone="no"?>
<!DOCTYPE svg PUBLIC "-//W3C//DTD SVG 1.1//EN"
 "http://www.w3.org/Graphics/SVG/1.1/DTD/svg11.dtd">
<!-- Generated by graphviz version 2.40.1 (20161225.0304)
 -->
<!-- Title: L4::Kip::Mem_desc::size Pages: 1 -->
<svg width="299pt" height="78pt"
 viewBox="0.00 0.00 299.00 77.50" xmlns="http://www.w3.org/2000/svg" xmlns:xlink="http://www.w3.org/1999/xlink">
<g id="graph0" class="graph" transform="scale(1 1) rotate(0) translate(4 73.5)">
<title>L4::Kip::Mem_desc::size</title>
<polygon fill="#ffffff" stroke="transparent" points="-4,4 -4,-73.5 295,-73.5 295,4 -4,4"/>
<!-- Node27 -->
<g id="node1" class="node">
<title>Node27</title>
<polygon fill="#bfbfbf" stroke="#000000" points="0,-28 0,-47 128,-47 128,-28 0,-28"/>
<text text-anchor="middle" x="64" y="-35" font-family="Helvetica,sans-Serif" font-size="10.00" fill="#000000">L4::Kip::Mem_desc::size</text>
</g>
<!-- Node28 -->
<g id="node2" class="node">
<title>Node28</title>
<g id="a_node2"><a xlink:href="classL4_1_1Kip_1_1Mem__desc.html#a5fdbd66440b54a05ad1678fcb04ed9e4" target="_top" xlink:title="Return end address of memory descriptor. ">
<polygon fill="#ffffff" stroke="#000000" points="164,-50 164,-69 291,-69 291,-50 164,-50"/>
<text text-anchor="middle" x="227.5" y="-57" font-family="Helvetica,sans-Serif" font-size="10.00" fill="#000000">L4::Kip::Mem_desc::end</text>
</a>
</g>
</g>
<!-- Node27&#45;&gt;Node28 -->
<g id="edge1" class="edge">
<title>Node27&#45;&gt;Node28</title>
<path fill="none" stroke="#191970" d="M128.1503,-46.1318C136.5738,-47.2653 145.2591,-48.434 153.825,-49.5865"/>
<polygon fill="#191970" stroke="#191970" points="153.4255,-53.0642 163.8029,-50.9291 154.359,-46.1268 153.4255,-53.0642"/>
</g>
<!-- Node29 -->
<g id="node3" class="node">
<title>Node29</title>
<g id="a_node3"><a xlink:href="classL4_1_1Kip_1_1Mem__desc.html#a78a483ff068305e31dc15bcbf69c1b64" target="_top" xlink:title="Return start address of memory descriptor. ">
<polygon fill="#ffffff" stroke="#000000" points="173,-.5 173,-30.5 282,-30.5 282,-.5 173,-.5"/>
<text text-anchor="start" x="181" y="-18.5" font-family="Helvetica,sans-Serif" font-size="10.00" fill="#000000">L4::Kip::Mem_desc::</text>
<text text-anchor="middle" x="227.5" y="-7.5" font-family="Helvetica,sans-Serif" font-size="10.00" fill="#000000">start</text>
</a>
</g>
</g>
<!-- Node27&#45;&gt;Node29 -->
<g id="edge2" class="edge">
<title>Node27&#45;&gt;Node29</title>
<path fill="none" stroke="#191970" d="M128.1503,-28.8682C139.4521,-27.3474 151.225,-25.7633 162.5485,-24.2397"/>
<polygon fill="#191970" stroke="#191970" points="163.351,-27.6633 172.7949,-22.8609 162.4174,-20.7258 163.351,-27.6633"/>
</g>
</g>
</svg>
