<?xml version="1.0" encoding="UTF-8" standalone="no"?>
<!DOCTYPE svg PUBLIC "-//W3C//DTD SVG 1.1//EN"
 "http://www.w3.org/Graphics/SVG/1.1/DTD/svg11.dtd">
<!-- Generated by graphviz version 2.40.1 (20161225.0304)
 -->
<!-- Title: L4::Basic_registry Pages: 1 -->
<svg width="115pt" height="270pt"
 viewBox="0.00 0.00 115.00 270.00" xmlns="http://www.w3.org/2000/svg" xmlns:xlink="http://www.w3.org/1999/xlink">
<g id="graph0" class="graph" transform="scale(1 1) rotate(0) translate(4 266)">
<title>L4::Basic_registry</title>
<polygon fill="#ffffff" stroke="transparent" points="-4,4 -4,-266 111,-266 111,4 -4,4"/>
<!-- Node0 -->
<g id="node1" class="node">
<title>Node0</title>
<polygon fill="#bfbfbf" stroke="#000000" points="3.5,-193.5 3.5,-261.5 103.5,-261.5 103.5,-193.5 3.5,-193.5"/>
<text text-anchor="middle" x="53.5" y="-249.5" font-family="Helvetica,sans-Serif" font-size="10.00" fill="#000000">L4::Basic_registry</text>
<polyline fill="none" stroke="#000000" points="3.5,-242.5 103.5,-242.5 "/>
<text text-anchor="middle" x="53.5" y="-230.5" font-family="Helvetica,sans-Serif" font-size="10.00" fill="#000000"> </text>
<polyline fill="none" stroke="#000000" points="3.5,-223.5 103.5,-223.5 "/>
<text text-anchor="start" x="11.5" y="-211.5" font-family="Helvetica,sans-Serif" font-size="10.00" fill="#000000">+ find()</text>
<text text-anchor="start" x="11.5" y="-200.5" font-family="Helvetica,sans-Serif" font-size="10.00" fill="#000000">+ dispatch()</text>
</g>
<!-- Node1 -->
<g id="node2" class="node">
<title>Node1</title>
<g id="a_node2"><a xlink:href="classL4Re_1_1Util_1_1Object__registry.html" target="_top" xlink:title="A registry that manages server objects and their attached IPC gates for a single server loop for a sp...">
<polygon fill="#ffffff" stroke="#000000" points="0,-.5 0,-156.5 107,-156.5 107,-.5 0,-.5"/>
<text text-anchor="start" x="8" y="-144.5" font-family="Helvetica,sans-Serif" font-size="10.00" fill="#000000">L4Re::Util::Object</text>
<text text-anchor="middle" x="53.5" y="-133.5" font-family="Helvetica,sans-Serif" font-size="10.00" fill="#000000">_registry</text>
<polyline fill="none" stroke="#000000" points="0,-126.5 107,-126.5 "/>
<text text-anchor="start" x="8" y="-114.5" font-family="Helvetica,sans-Serif" font-size="10.00" fill="#000000"># _server</text>
<text text-anchor="start" x="8" y="-103.5" font-family="Helvetica,sans-Serif" font-size="10.00" fill="#000000"># _factory</text>
<text text-anchor="start" x="8" y="-92.5" font-family="Helvetica,sans-Serif" font-size="10.00" fill="#000000"># _sif</text>
<polyline fill="none" stroke="#000000" points="0,-85.5 107,-85.5 "/>
<text text-anchor="start" x="8" y="-73.5" font-family="Helvetica,sans-Serif" font-size="10.00" fill="#000000">+ Object_registry()</text>
<text text-anchor="start" x="8" y="-62.5" font-family="Helvetica,sans-Serif" font-size="10.00" fill="#000000">+ Object_registry()</text>
<text text-anchor="start" x="8" y="-51.5" font-family="Helvetica,sans-Serif" font-size="10.00" fill="#000000">+ register_obj()</text>
<text text-anchor="start" x="8" y="-40.5" font-family="Helvetica,sans-Serif" font-size="10.00" fill="#000000">+ register_obj()</text>
<text text-anchor="start" x="8" y="-29.5" font-family="Helvetica,sans-Serif" font-size="10.00" fill="#000000">+ register_irq_obj()</text>
<text text-anchor="start" x="8" y="-18.5" font-family="Helvetica,sans-Serif" font-size="10.00" fill="#000000">+ register_obj()</text>
<text text-anchor="start" x="8" y="-7.5" font-family="Helvetica,sans-Serif" font-size="10.00" fill="#000000">+ unregister_obj()</text>
</a>
</g>
</g>
<!-- Node0&#45;&gt;Node1 -->
<g id="edge1" class="edge">
<title>Node0&#45;&gt;Node1</title>
<path fill="none" stroke="#191970" d="M53.5,-183.3157C53.5,-174.8287 53.5,-165.7088 53.5,-156.5175"/>
<polygon fill="none" stroke="#191970" points="50.0001,-183.3164 53.5,-193.3164 57.0001,-183.3164 50.0001,-183.3164"/>
</g>
</g>
</svg>
