<?xml version="1.0" encoding="UTF-8" standalone="no"?>
<!DOCTYPE svg PUBLIC "-//W3C//DTD SVG 1.1//EN"
 "http://www.w3.org/Graphics/SVG/1.1/DTD/svg11.dtd">
<!-- Generated by graphviz version 2.40.1 (20161225.0304)
 -->
<!-- Title: cxx::String::from_dec Pages: 1 -->
<svg width="247pt" height="66pt"
 viewBox="0.00 0.00 247.00 66.00" xmlns="http://www.w3.org/2000/svg" xmlns:xlink="http://www.w3.org/1999/xlink">
<g id="graph0" class="graph" transform="scale(1 1) rotate(0) translate(4 62)">
<title>cxx::String::from_dec</title>
<polygon fill="#ffffff" stroke="transparent" points="-4,4 -4,-62 243,-62 243,4 -4,4"/>
<!-- Node6 -->
<g id="node1" class="node">
<title>Node6</title>
<polygon fill="#bfbfbf" stroke="#000000" points="0,-19.5 0,-38.5 113,-38.5 113,-19.5 0,-19.5"/>
<text text-anchor="middle" x="56.5" y="-26.5" font-family="Helvetica,sans-Serif" font-size="10.00" fill="#000000">cxx::String::from_dec</text>
</g>
<!-- Node7 -->
<g id="node2" class="node">
<title>Node7</title>
<g id="a_node2"><a xlink:href="classcxx_1_1String.html#a5368753551d0792f7a6688831f11c8ea" target="_top" xlink:title="Check if pointer s points behind string. ">
<polygon fill="#ffffff" stroke="#000000" points="152,-38.5 152,-57.5 236,-57.5 236,-38.5 152,-38.5"/>
<text text-anchor="middle" x="194" y="-45.5" font-family="Helvetica,sans-Serif" font-size="10.00" fill="#000000">cxx::String::eof</text>
</a>
</g>
</g>
<!-- Node6&#45;&gt;Node7 -->
<g id="edge1" class="edge">
<title>Node6&#45;&gt;Node7</title>
<path fill="none" stroke="#191970" d="M113.2204,-36.8377C122.6732,-38.1439 132.4391,-39.4934 141.7732,-40.7832"/>
<polygon fill="#191970" stroke="#191970" points="141.3118,-44.2526 151.6968,-42.1545 142.27,-37.3185 141.3118,-44.2526"/>
</g>
<!-- Node8 -->
<g id="node3" class="node">
<title>Node8</title>
<g id="a_node3"><a xlink:href="classcxx_1_1String.html#a101fd26cc3e799be32f027cd52a5da90" target="_top" xlink:title="Pointer to first character. ">
<polygon fill="#ffffff" stroke="#000000" points="149,-.5 149,-19.5 239,-19.5 239,-.5 149,-.5"/>
<text text-anchor="middle" x="194" y="-7.5" font-family="Helvetica,sans-Serif" font-size="10.00" fill="#000000">cxx::String::start</text>
</a>
</g>
</g>
<!-- Node6&#45;&gt;Node8 -->
<g id="edge2" class="edge">
<title>Node6&#45;&gt;Node8</title>
<path fill="none" stroke="#191970" d="M113.2204,-21.1623C121.6352,-19.9995 130.2982,-18.8024 138.6837,-17.6437"/>
<polygon fill="#191970" stroke="#191970" points="139.3125,-21.0902 148.7393,-16.2542 138.3543,-14.156 139.3125,-21.0902"/>
</g>
</g>
</svg>
