<?xml version="1.0" encoding="UTF-8" standalone="no"?>
<!DOCTYPE svg PUBLIC "-//W3C//DTD SVG 1.1//EN"
 "http://www.w3.org/Graphics/SVG/1.1/DTD/svg11.dtd">
<!-- Generated by graphviz version 2.40.1 (20161225.0304)
 -->
<!-- Title: L4::Icu::unbind Pages: 1 -->
<svg width="229pt" height="104pt"
 viewBox="0.00 0.00 229.00 104.00" xmlns="http://www.w3.org/2000/svg" xmlns:xlink="http://www.w3.org/1999/xlink">
<g id="graph0" class="graph" transform="scale(1 1) rotate(0) translate(4 100)">
<title>L4::Icu::unbind</title>
<polygon fill="#ffffff" stroke="transparent" points="-4,4 -4,-100 225,-100 225,4 -4,4"/>
<!-- Node22 -->
<g id="node1" class="node">
<title>Node22</title>
<polygon fill="#bfbfbf" stroke="#000000" points="0,-38.5 0,-57.5 82,-57.5 82,-38.5 0,-38.5"/>
<text text-anchor="middle" x="41" y="-45.5" font-family="Helvetica,sans-Serif" font-size="10.00" fill="#000000">L4::Icu::unbind</text>
</g>
<!-- Node23 -->
<g id="node2" class="node">
<title>Node23</title>
<g id="a_node2"><a xlink:href="classL4_1_1Cap__base.html#a90ff089ca2442b128c2b2b0e1c22c6d7" target="_top" xlink:title="Return capability selector. ">
<polygon fill="#ffffff" stroke="#000000" points="118,-76.5 118,-95.5 221,-95.5 221,-76.5 118,-76.5"/>
<text text-anchor="middle" x="169.5" y="-83.5" font-family="Helvetica,sans-Serif" font-size="10.00" fill="#000000">L4::Cap_base::cap</text>
</a>
</g>
</g>
<!-- Node22&#45;&gt;Node23 -->
<g id="edge1" class="edge">
<title>Node22&#45;&gt;Node23</title>
<path fill="none" stroke="#191970" d="M73.426,-57.589C89.7097,-62.4044 109.6421,-68.2988 127.122,-73.468"/>
<polygon fill="#191970" stroke="#191970" points="126.5024,-76.9345 137.0844,-76.4141 128.4875,-70.2219 126.5024,-76.9345"/>
</g>
<!-- Node24 -->
<g id="node3" class="node">
<title>Node24</title>
<g id="a_node3"><a xlink:href="classL4_1_1Kobject.html#a4f2117ae76762f4084e6a1adb915863c" target="_top" xlink:title="Return capability selector. ">
<polygon fill="#ffffff" stroke="#000000" points="125,-38.5 125,-57.5 214,-57.5 214,-38.5 125,-38.5"/>
<text text-anchor="middle" x="169.5" y="-45.5" font-family="Helvetica,sans-Serif" font-size="10.00" fill="#000000">L4::Kobject::cap</text>
</a>
</g>
</g>
<!-- Node22&#45;&gt;Node24 -->
<g id="edge2" class="edge">
<title>Node22&#45;&gt;Node24</title>
<path fill="none" stroke="#191970" d="M82.0115,-48C92.3645,-48 103.6479,-48 114.5647,-48"/>
<polygon fill="#191970" stroke="#191970" points="114.8768,-51.5001 124.8767,-48 114.8767,-44.5001 114.8768,-51.5001"/>
</g>
<!-- Node25 -->
<g id="node4" class="node">
<title>Node25</title>
<g id="a_node4"><a xlink:href="group__l4__icu__api.html#gae74204b8f2101e176add646ec2958182" target="_top" xlink:title="Remove binding of an interrupt line from the interrupt controller object. ">
<polygon fill="#ffffff" stroke="#000000" points="123.5,-.5 123.5,-19.5 215.5,-19.5 215.5,-.5 123.5,-.5"/>
<text text-anchor="middle" x="169.5" y="-7.5" font-family="Helvetica,sans-Serif" font-size="10.00" fill="#000000">l4_icu_unbind_u</text>
</a>
</g>
</g>
<!-- Node22&#45;&gt;Node25 -->
<g id="edge3" class="edge">
<title>Node22&#45;&gt;Node25</title>
<path fill="none" stroke="#191970" d="M73.426,-38.411C89.7097,-33.5956 109.6421,-27.7012 127.122,-22.532"/>
<polygon fill="#191970" stroke="#191970" points="128.4875,-25.7781 137.0844,-19.5859 126.5024,-19.0655 128.4875,-25.7781"/>
</g>
</g>
</svg>
