<?xml version="1.0" encoding="UTF-8" standalone="no"?>
<!DOCTYPE svg PUBLIC "-//W3C//DTD SVG 1.1//EN"
 "http://www.w3.org/Graphics/SVG/1.1/DTD/svg11.dtd">
<!-- Generated by graphviz version 2.40.1 (20161225.0304)
 -->
<!-- Title: cxx::Bitmap_base::bit Pages: 1 -->
<svg width="282pt" height="88pt"
 viewBox="0.00 0.00 282.00 88.00" xmlns="http://www.w3.org/2000/svg" xmlns:xlink="http://www.w3.org/1999/xlink">
<g id="graph0" class="graph" transform="scale(1 1) rotate(0) translate(4 84)">
<title>cxx::Bitmap_base::bit</title>
<polygon fill="#ffffff" stroke="transparent" points="-4,4 -4,-84 278,-84 278,4 -4,4"/>
<!-- Node0 -->
<g id="node1" class="node">
<title>Node0</title>
<polygon fill="#bfbfbf" stroke="#000000" points="0,-30 0,-49 113,-49 113,-30 0,-30"/>
<text text-anchor="middle" x="56.5" y="-37" font-family="Helvetica,sans-Serif" font-size="10.00" fill="#000000">cxx::Bitmap_base::bit</text>
</g>
<!-- Node1 -->
<g id="node2" class="node">
<title>Node1</title>
<g id="a_node2"><a xlink:href="classcxx_1_1Bitmap__base.html#a63b497caf4cba8376deb2b8831d3fb4f" target="_top" xlink:title="Get the bit index within word_type for the given bit. ">
<polygon fill="#ffffff" stroke="#000000" points="155,-49.5 155,-79.5 268,-79.5 268,-49.5 155,-49.5"/>
<text text-anchor="start" x="163" y="-67.5" font-family="Helvetica,sans-Serif" font-size="10.00" fill="#000000">cxx::Bitmap_base::bit</text>
<text text-anchor="middle" x="211.5" y="-56.5" font-family="Helvetica,sans-Serif" font-size="10.00" fill="#000000">_index</text>
</a>
</g>
</g>
<!-- Node0&#45;&gt;Node1 -->
<g id="edge1" class="edge">
<title>Node0&#45;&gt;Node1</title>
<path fill="none" stroke="#191970" d="M113.3361,-48.6671C123.6157,-50.3251 134.4186,-52.0675 144.9464,-53.7656"/>
<polygon fill="#191970" stroke="#191970" points="144.5001,-57.2387 154.9298,-55.3758 145.6147,-50.328 144.5001,-57.2387"/>
</g>
<!-- Node2 -->
<g id="node3" class="node">
<title>Node2</title>
<g id="a_node3"><a xlink:href="classcxx_1_1Bitmap__base.html#a7a9d9e1459ab5508c071f3989c3bbf4e" target="_top" xlink:title="Get the word index for the given bit. ">
<polygon fill="#ffffff" stroke="#000000" points="149,-.5 149,-30.5 274,-30.5 274,-.5 149,-.5"/>
<text text-anchor="start" x="157" y="-18.5" font-family="Helvetica,sans-Serif" font-size="10.00" fill="#000000">cxx::Bitmap_base::word</text>
<text text-anchor="middle" x="211.5" y="-7.5" font-family="Helvetica,sans-Serif" font-size="10.00" fill="#000000">_index</text>
</a>
</g>
</g>
<!-- Node0&#45;&gt;Node2 -->
<g id="edge2" class="edge">
<title>Node0&#45;&gt;Node2</title>
<path fill="none" stroke="#191970" d="M113.3361,-30.6996C121.6576,-29.4111 130.3219,-28.0695 138.9056,-26.7404"/>
<polygon fill="#191970" stroke="#191970" points="139.5731,-30.1789 148.9198,-25.1898 138.502,-23.2613 139.5731,-30.1789"/>
</g>
</g>
</svg>
