<?xml version="1.0" encoding="UTF-8" standalone="no"?>
<!DOCTYPE svg PUBLIC "-//W3C//DTD SVG 1.1//EN"
 "http://www.w3.org/Graphics/SVG/1.1/DTD/svg11.dtd">
<!-- Generated by graphviz version 2.40.1 (20161225.0304)
 -->
<!-- Title: L4::Cap&lt; T &gt; Pages: 1 -->
<svg width="1552pt" height="596pt"
 viewBox="0.00 0.00 1552.00 596.00" xmlns="http://www.w3.org/2000/svg" xmlns:xlink="http://www.w3.org/1999/xlink">
<g id="graph0" class="graph" transform="scale(1 1) rotate(0) translate(4 592)">
<title>L4::Cap&lt; T &gt;</title>
<polygon fill="#ffffff" stroke="transparent" points="-4,4 -4,-592 1548,-592 1548,4 -4,4"/>
<!-- Node0 -->
<g id="node1" class="node">
<title>Node0</title>
<polygon fill="#bfbfbf" stroke="#000000" points="699,-193.5 699,-327.5 782,-327.5 782,-193.5 699,-193.5"/>
<text text-anchor="middle" x="740.5" y="-315.5" font-family="Helvetica,sans-Serif" font-size="10.00" fill="#000000">L4::Cap&lt; T &gt;</text>
<polyline fill="none" stroke="#000000" points="699,-308.5 782,-308.5 "/>
<text text-anchor="middle" x="740.5" y="-296.5" font-family="Helvetica,sans-Serif" font-size="10.00" fill="#000000"> </text>
<polyline fill="none" stroke="#000000" points="699,-289.5 782,-289.5 "/>
<text text-anchor="start" x="707" y="-277.5" font-family="Helvetica,sans-Serif" font-size="10.00" fill="#000000">+ Cap()</text>
<text text-anchor="start" x="707" y="-266.5" font-family="Helvetica,sans-Serif" font-size="10.00" fill="#000000">+ Cap()</text>
<text text-anchor="start" x="707" y="-255.5" font-family="Helvetica,sans-Serif" font-size="10.00" fill="#000000">+ Cap()</text>
<text text-anchor="start" x="707" y="-244.5" font-family="Helvetica,sans-Serif" font-size="10.00" fill="#000000">+ Cap()</text>
<text text-anchor="start" x="707" y="-233.5" font-family="Helvetica,sans-Serif" font-size="10.00" fill="#000000">+ Cap()</text>
<text text-anchor="start" x="707" y="-222.5" font-family="Helvetica,sans-Serif" font-size="10.00" fill="#000000">+ move()</text>
<text text-anchor="start" x="707" y="-211.5" font-family="Helvetica,sans-Serif" font-size="10.00" fill="#000000">+ copy()</text>
<text text-anchor="start" x="707" y="-200.5" font-family="Helvetica,sans-Serif" font-size="10.00" fill="#000000">+ operator&#45;&gt;()</text>
</g>
<!-- Node2 -->
<g id="node3" class="node">
<title>Node2</title>
<g id="a_node3"><a xlink:href="classL4_1_1Cap.html" target="_top" xlink:title="{L4::Cap\&lt; L4::Vcon \&gt;\n||+ Cap()\l+ Cap()\l+ Cap()\l+ Cap()\l+ Cap()\l+ move()\l+ copy()\l+ operator&#45;\&gt;()\l}">
<polygon fill="#ffffff" stroke="#000000" points="0,-6 0,-140 111,-140 111,-6 0,-6"/>
<text text-anchor="middle" x="55.5" y="-128" font-family="Helvetica,sans-Serif" font-size="10.00" fill="#000000">L4::Cap&lt; L4::Vcon &gt;</text>
<polyline fill="none" stroke="#000000" points="0,-121 111,-121 "/>
<text text-anchor="middle" x="55.5" y="-109" font-family="Helvetica,sans-Serif" font-size="10.00" fill="#000000"> </text>
<polyline fill="none" stroke="#000000" points="0,-102 111,-102 "/>
<text text-anchor="start" x="8" y="-90" font-family="Helvetica,sans-Serif" font-size="10.00" fill="#000000">+ Cap()</text>
<text text-anchor="start" x="8" y="-79" font-family="Helvetica,sans-Serif" font-size="10.00" fill="#000000">+ Cap()</text>
<text text-anchor="start" x="8" y="-68" font-family="Helvetica,sans-Serif" font-size="10.00" fill="#000000">+ Cap()</text>
<text text-anchor="start" x="8" y="-57" font-family="Helvetica,sans-Serif" font-size="10.00" fill="#000000">+ Cap()</text>
<text text-anchor="start" x="8" y="-46" font-family="Helvetica,sans-Serif" font-size="10.00" fill="#000000">+ Cap()</text>
<text text-anchor="start" x="8" y="-35" font-family="Helvetica,sans-Serif" font-size="10.00" fill="#000000">+ move()</text>
<text text-anchor="start" x="8" y="-24" font-family="Helvetica,sans-Serif" font-size="10.00" fill="#000000">+ copy()</text>
<text text-anchor="start" x="8" y="-13" font-family="Helvetica,sans-Serif" font-size="10.00" fill="#000000">+ operator&#45;&gt;()</text>
</a>
</g>
</g>
<!-- Node0&#45;&gt;Node2 -->
<g id="edge2" class="edge">
<title>Node0&#45;&gt;Node2</title>
<path fill="none" stroke="#ffa500" d="M688.7779,-255.6318C557.8603,-242.5795 216.9237,-203.8271 120.5,-146 117.2983,-144.0799 114.1669,-141.9507 111.1173,-139.6625"/>
<polygon fill="#ffa500" stroke="#ffa500" points="688.6475,-259.1359 698.9431,-256.6356 689.3354,-252.1697 688.6475,-259.1359"/>
<text text-anchor="middle" x="222.5" y="-167" font-family="Helvetica,sans-Serif" font-size="10.00" fill="#000000"> &lt; L4::Vcon &gt;</text>
</g>
<!-- Node3 -->
<g id="node4" class="node">
<title>Node3</title>
<g id="a_node4"><a xlink:href="classL4_1_1Cap.html" target="_top" xlink:title="{L4::Cap\&lt; L4::Factory \&gt;\n||+ Cap()\l+ Cap()\l+ Cap()\l+ Cap()\l+ Cap()\l+ move()\l+ copy()\l+ operator&#45;\&gt;()\l}">
<polygon fill="#ffffff" stroke="#000000" points="129.5,-6 129.5,-140 251.5,-140 251.5,-6 129.5,-6"/>
<text text-anchor="middle" x="190.5" y="-128" font-family="Helvetica,sans-Serif" font-size="10.00" fill="#000000">L4::Cap&lt; L4::Factory &gt;</text>
<polyline fill="none" stroke="#000000" points="129.5,-121 251.5,-121 "/>
<text text-anchor="middle" x="190.5" y="-109" font-family="Helvetica,sans-Serif" font-size="10.00" fill="#000000"> </text>
<polyline fill="none" stroke="#000000" points="129.5,-102 251.5,-102 "/>
<text text-anchor="start" x="137.5" y="-90" font-family="Helvetica,sans-Serif" font-size="10.00" fill="#000000">+ Cap()</text>
<text text-anchor="start" x="137.5" y="-79" font-family="Helvetica,sans-Serif" font-size="10.00" fill="#000000">+ Cap()</text>
<text text-anchor="start" x="137.5" y="-68" font-family="Helvetica,sans-Serif" font-size="10.00" fill="#000000">+ Cap()</text>
<text text-anchor="start" x="137.5" y="-57" font-family="Helvetica,sans-Serif" font-size="10.00" fill="#000000">+ Cap()</text>
<text text-anchor="start" x="137.5" y="-46" font-family="Helvetica,sans-Serif" font-size="10.00" fill="#000000">+ Cap()</text>
<text text-anchor="start" x="137.5" y="-35" font-family="Helvetica,sans-Serif" font-size="10.00" fill="#000000">+ move()</text>
<text text-anchor="start" x="137.5" y="-24" font-family="Helvetica,sans-Serif" font-size="10.00" fill="#000000">+ copy()</text>
<text text-anchor="start" x="137.5" y="-13" font-family="Helvetica,sans-Serif" font-size="10.00" fill="#000000">+ operator&#45;&gt;()</text>
</a>
</g>
</g>
<!-- Node0&#45;&gt;Node3 -->
<g id="edge3" class="edge">
<title>Node0&#45;&gt;Node3</title>
<path fill="none" stroke="#ffa500" d="M688.6132,-252.405C579.9199,-234.7665 332.4265,-190.8382 260.5,-146 257.5199,-144.1422 254.5782,-142.1292 251.687,-139.9964"/>
<polygon fill="#ffa500" stroke="#ffa500" points="688.2585,-255.8929 698.6881,-254.029 689.3725,-248.9821 688.2585,-255.8929"/>
<text text-anchor="middle" x="362" y="-167" font-family="Helvetica,sans-Serif" font-size="10.00" fill="#000000"> &lt; L4::Factory &gt;</text>
</g>
<!-- Node4 -->
<g id="node5" class="node">
<title>Node4</title>
<g id="a_node5"><a xlink:href="classL4_1_1Cap.html" target="_top" xlink:title="{L4::Cap\&lt; L4Re::Rm \&gt;\n||+ Cap()\l+ Cap()\l+ Cap()\l+ Cap()\l+ Cap()\l+ move()\l+ copy()\l+ operator&#45;\&gt;()\l}">
<polygon fill="#ffffff" stroke="#000000" points="269.5,-6 269.5,-140 385.5,-140 385.5,-6 269.5,-6"/>
<text text-anchor="middle" x="327.5" y="-128" font-family="Helvetica,sans-Serif" font-size="10.00" fill="#000000">L4::Cap&lt; L4Re::Rm &gt;</text>
<polyline fill="none" stroke="#000000" points="269.5,-121 385.5,-121 "/>
<text text-anchor="middle" x="327.5" y="-109" font-family="Helvetica,sans-Serif" font-size="10.00" fill="#000000"> </text>
<polyline fill="none" stroke="#000000" points="269.5,-102 385.5,-102 "/>
<text text-anchor="start" x="277.5" y="-90" font-family="Helvetica,sans-Serif" font-size="10.00" fill="#000000">+ Cap()</text>
<text text-anchor="start" x="277.5" y="-79" font-family="Helvetica,sans-Serif" font-size="10.00" fill="#000000">+ Cap()</text>
<text text-anchor="start" x="277.5" y="-68" font-family="Helvetica,sans-Serif" font-size="10.00" fill="#000000">+ Cap()</text>
<text text-anchor="start" x="277.5" y="-57" font-family="Helvetica,sans-Serif" font-size="10.00" fill="#000000">+ Cap()</text>
<text text-anchor="start" x="277.5" y="-46" font-family="Helvetica,sans-Serif" font-size="10.00" fill="#000000">+ Cap()</text>
<text text-anchor="start" x="277.5" y="-35" font-family="Helvetica,sans-Serif" font-size="10.00" fill="#000000">+ move()</text>
<text text-anchor="start" x="277.5" y="-24" font-family="Helvetica,sans-Serif" font-size="10.00" fill="#000000">+ copy()</text>
<text text-anchor="start" x="277.5" y="-13" font-family="Helvetica,sans-Serif" font-size="10.00" fill="#000000">+ operator&#45;&gt;()</text>
</a>
</g>
</g>
<!-- Node0&#45;&gt;Node4 -->
<g id="edge4" class="edge">
<title>Node0&#45;&gt;Node4</title>
<path fill="none" stroke="#ffa500" d="M688.7596,-252.6082C617.4187,-239.7814 487.168,-209.2066 394.5,-146 391.5156,-143.9644 388.57,-141.7716 385.6769,-139.461"/>
<polygon fill="#ffa500" stroke="#ffa500" points="688.3926,-256.0971 698.8463,-254.3737 689.5995,-249.2019 688.3926,-256.0971"/>
<text text-anchor="middle" x="471" y="-167" font-family="Helvetica,sans-Serif" font-size="10.00" fill="#000000"> &lt; L4Re::Rm &gt;</text>
</g>
<!-- Node5 -->
<g id="node6" class="node">
<title>Node5</title>
<g id="a_node6"><a xlink:href="classL4_1_1Cap.html" target="_top" xlink:title="{L4::Cap\&lt; L4::Irq \&gt;\n||+ Cap()\l+ Cap()\l+ Cap()\l+ Cap()\l+ Cap()\l+ move()\l+ copy()\l+ operator&#45;\&gt;()\l}">
<polygon fill="#ffffff" stroke="#000000" points="403.5,-6 403.5,-140 503.5,-140 503.5,-6 403.5,-6"/>
<text text-anchor="middle" x="453.5" y="-128" font-family="Helvetica,sans-Serif" font-size="10.00" fill="#000000">L4::Cap&lt; L4::Irq &gt;</text>
<polyline fill="none" stroke="#000000" points="403.5,-121 503.5,-121 "/>
<text text-anchor="middle" x="453.5" y="-109" font-family="Helvetica,sans-Serif" font-size="10.00" fill="#000000"> </text>
<polyline fill="none" stroke="#000000" points="403.5,-102 503.5,-102 "/>
<text text-anchor="start" x="411.5" y="-90" font-family="Helvetica,sans-Serif" font-size="10.00" fill="#000000">+ Cap()</text>
<text text-anchor="start" x="411.5" y="-79" font-family="Helvetica,sans-Serif" font-size="10.00" fill="#000000">+ Cap()</text>
<text text-anchor="start" x="411.5" y="-68" font-family="Helvetica,sans-Serif" font-size="10.00" fill="#000000">+ Cap()</text>
<text text-anchor="start" x="411.5" y="-57" font-family="Helvetica,sans-Serif" font-size="10.00" fill="#000000">+ Cap()</text>
<text text-anchor="start" x="411.5" y="-46" font-family="Helvetica,sans-Serif" font-size="10.00" fill="#000000">+ Cap()</text>
<text text-anchor="start" x="411.5" y="-35" font-family="Helvetica,sans-Serif" font-size="10.00" fill="#000000">+ move()</text>
<text text-anchor="start" x="411.5" y="-24" font-family="Helvetica,sans-Serif" font-size="10.00" fill="#000000">+ copy()</text>
<text text-anchor="start" x="411.5" y="-13" font-family="Helvetica,sans-Serif" font-size="10.00" fill="#000000">+ operator&#45;&gt;()</text>
</a>
</g>
</g>
<!-- Node0&#45;&gt;Node5 -->
<g id="edge5" class="edge">
<title>Node0&#45;&gt;Node5</title>
<path fill="none" stroke="#ffa500" d="M689.3394,-242.1312C640.6049,-223.0229 566.8238,-189.7709 512.5,-146 509.4546,-143.5462 506.4617,-140.9109 503.5382,-138.1497"/>
<polygon fill="#ffa500" stroke="#ffa500" points="688.1498,-245.4237 698.7392,-245.7633 690.6728,-238.8942 688.1498,-245.4237"/>
<text text-anchor="middle" x="578" y="-167" font-family="Helvetica,sans-Serif" font-size="10.00" fill="#000000"> &lt; L4::Irq &gt;</text>
</g>
<!-- Node6 -->
<g id="node7" class="node">
<title>Node6</title>
<g id="a_node7"><a xlink:href="classL4_1_1Cap.html" target="_top" xlink:title="{L4::Cap\&lt; L4::Thread \&gt;\n||+ Cap()\l+ Cap()\l+ Cap()\l+ Cap()\l+ Cap()\l+ move()\l+ copy()\l+ operator&#45;\&gt;()\l}">
<polygon fill="#ffffff" stroke="#000000" points="521.5,-6 521.5,-140 643.5,-140 643.5,-6 521.5,-6"/>
<text text-anchor="middle" x="582.5" y="-128" font-family="Helvetica,sans-Serif" font-size="10.00" fill="#000000">L4::Cap&lt; L4::Thread &gt;</text>
<polyline fill="none" stroke="#000000" points="521.5,-121 643.5,-121 "/>
<text text-anchor="middle" x="582.5" y="-109" font-family="Helvetica,sans-Serif" font-size="10.00" fill="#000000"> </text>
<polyline fill="none" stroke="#000000" points="521.5,-102 643.5,-102 "/>
<text text-anchor="start" x="529.5" y="-90" font-family="Helvetica,sans-Serif" font-size="10.00" fill="#000000">+ Cap()</text>
<text text-anchor="start" x="529.5" y="-79" font-family="Helvetica,sans-Serif" font-size="10.00" fill="#000000">+ Cap()</text>
<text text-anchor="start" x="529.5" y="-68" font-family="Helvetica,sans-Serif" font-size="10.00" fill="#000000">+ Cap()</text>
<text text-anchor="start" x="529.5" y="-57" font-family="Helvetica,sans-Serif" font-size="10.00" fill="#000000">+ Cap()</text>
<text text-anchor="start" x="529.5" y="-46" font-family="Helvetica,sans-Serif" font-size="10.00" fill="#000000">+ Cap()</text>
<text text-anchor="start" x="529.5" y="-35" font-family="Helvetica,sans-Serif" font-size="10.00" fill="#000000">+ move()</text>
<text text-anchor="start" x="529.5" y="-24" font-family="Helvetica,sans-Serif" font-size="10.00" fill="#000000">+ copy()</text>
<text text-anchor="start" x="529.5" y="-13" font-family="Helvetica,sans-Serif" font-size="10.00" fill="#000000">+ operator&#45;&gt;()</text>
</a>
</g>
</g>
<!-- Node0&#45;&gt;Node6 -->
<g id="edge6" class="edge">
<title>Node0&#45;&gt;Node6</title>
<path fill="none" stroke="#ffa500" d="M691.9286,-207.5924C682.3827,-196.9082 672.5321,-185.6768 663.5,-175 654.0801,-163.8647 644.265,-151.8656 634.8518,-140.1448"/>
<polygon fill="#ffa500" stroke="#ffa500" points="689.5255,-210.155 698.8096,-215.2597 694.7352,-205.4796 689.5255,-210.155"/>
<text text-anchor="middle" x="700" y="-167" font-family="Helvetica,sans-Serif" font-size="10.00" fill="#000000"> &lt; L4::Thread &gt;</text>
</g>
<!-- Node7 -->
<g id="node8" class="node">
<title>Node7</title>
<g id="a_node8"><a xlink:href="classL4_1_1Cap.html" target="_top" xlink:title="{L4::Cap\&lt; L4Re::Namespace \&gt;\n||+ Cap()\l+ Cap()\l+ Cap()\l+ Cap()\l+ Cap()\l+ move()\l+ copy()\l+ operator&#45;\&gt;()\l}">
<polygon fill="#ffffff" stroke="#000000" points="662,-6 662,-140 819,-140 819,-6 662,-6"/>
<text text-anchor="middle" x="740.5" y="-128" font-family="Helvetica,sans-Serif" font-size="10.00" fill="#000000">L4::Cap&lt; L4Re::Namespace &gt;</text>
<polyline fill="none" stroke="#000000" points="662,-121 819,-121 "/>
<text text-anchor="middle" x="740.5" y="-109" font-family="Helvetica,sans-Serif" font-size="10.00" fill="#000000"> </text>
<polyline fill="none" stroke="#000000" points="662,-102 819,-102 "/>
<text text-anchor="start" x="670" y="-90" font-family="Helvetica,sans-Serif" font-size="10.00" fill="#000000">+ Cap()</text>
<text text-anchor="start" x="670" y="-79" font-family="Helvetica,sans-Serif" font-size="10.00" fill="#000000">+ Cap()</text>
<text text-anchor="start" x="670" y="-68" font-family="Helvetica,sans-Serif" font-size="10.00" fill="#000000">+ Cap()</text>
<text text-anchor="start" x="670" y="-57" font-family="Helvetica,sans-Serif" font-size="10.00" fill="#000000">+ Cap()</text>
<text text-anchor="start" x="670" y="-46" font-family="Helvetica,sans-Serif" font-size="10.00" fill="#000000">+ Cap()</text>
<text text-anchor="start" x="670" y="-35" font-family="Helvetica,sans-Serif" font-size="10.00" fill="#000000">+ move()</text>
<text text-anchor="start" x="670" y="-24" font-family="Helvetica,sans-Serif" font-size="10.00" fill="#000000">+ copy()</text>
<text text-anchor="start" x="670" y="-13" font-family="Helvetica,sans-Serif" font-size="10.00" fill="#000000">+ operator&#45;&gt;()</text>
</a>
</g>
</g>
<!-- Node0&#45;&gt;Node7 -->
<g id="edge7" class="edge">
<title>Node0&#45;&gt;Node7</title>
<path fill="none" stroke="#ffa500" d="M740.5,-183.0471C740.5,-168.7609 740.5,-153.9538 740.5,-140.0082"/>
<polygon fill="#ffa500" stroke="#ffa500" points="737.0001,-183.3378 740.5,-193.3378 744.0001,-183.3378 737.0001,-183.3378"/>
<text text-anchor="middle" x="794.5" y="-167" font-family="Helvetica,sans-Serif" font-size="10.00" fill="#000000"> &lt; L4Re::Namespace &gt;</text>
</g>
<!-- Node8 -->
<g id="node9" class="node">
<title>Node8</title>
<g id="a_node9"><a xlink:href="classL4_1_1Cap.html" target="_top" xlink:title="{L4::Cap\&lt; void \&gt;\n||+ Cap()\l+ Cap()\l+ Cap()\l+ Cap()\l+ Cap()\l+ move()\l+ copy()\l+ operator&#45;\&gt;()\l}">
<polygon fill="#ffffff" stroke="#000000" points="837.5,-6 837.5,-140 927.5,-140 927.5,-6 837.5,-6"/>
<text text-anchor="middle" x="882.5" y="-128" font-family="Helvetica,sans-Serif" font-size="10.00" fill="#000000">L4::Cap&lt; void &gt;</text>
<polyline fill="none" stroke="#000000" points="837.5,-121 927.5,-121 "/>
<text text-anchor="middle" x="882.5" y="-109" font-family="Helvetica,sans-Serif" font-size="10.00" fill="#000000"> </text>
<polyline fill="none" stroke="#000000" points="837.5,-102 927.5,-102 "/>
<text text-anchor="start" x="845.5" y="-90" font-family="Helvetica,sans-Serif" font-size="10.00" fill="#000000">+ Cap()</text>
<text text-anchor="start" x="845.5" y="-79" font-family="Helvetica,sans-Serif" font-size="10.00" fill="#000000">+ Cap()</text>
<text text-anchor="start" x="845.5" y="-68" font-family="Helvetica,sans-Serif" font-size="10.00" fill="#000000">+ Cap()</text>
<text text-anchor="start" x="845.5" y="-57" font-family="Helvetica,sans-Serif" font-size="10.00" fill="#000000">+ Cap()</text>
<text text-anchor="start" x="845.5" y="-46" font-family="Helvetica,sans-Serif" font-size="10.00" fill="#000000">+ Cap()</text>
<text text-anchor="start" x="845.5" y="-35" font-family="Helvetica,sans-Serif" font-size="10.00" fill="#000000">+ move()</text>
<text text-anchor="start" x="845.5" y="-24" font-family="Helvetica,sans-Serif" font-size="10.00" fill="#000000">+ copy()</text>
<text text-anchor="start" x="845.5" y="-13" font-family="Helvetica,sans-Serif" font-size="10.00" fill="#000000">+ operator&#45;&gt;()</text>
</a>
</g>
</g>
<!-- Node0&#45;&gt;Node8 -->
<g id="edge8" class="edge">
<title>Node0&#45;&gt;Node8</title>
<path fill="none" stroke="#ffa500" d="M790.6283,-232.2662C812.4378,-217.708 836.5919,-198.1327 852.5,-175 859.6645,-164.5817 865.1428,-152.4359 869.3244,-140.2329"/>
<polygon fill="#ffa500" stroke="#ffa500" points="788.5824,-229.4212 782.0918,-237.7951 792.3878,-235.2966 788.5824,-229.4212"/>
<text text-anchor="middle" x="879" y="-167" font-family="Helvetica,sans-Serif" font-size="10.00" fill="#000000"> &lt; void &gt;</text>
</g>
<!-- Node9 -->
<g id="node10" class="node">
<title>Node9</title>
<g id="a_node10"><a xlink:href="classL4_1_1Cap.html" target="_top" xlink:title="{L4::Cap\&lt; L4Re::Dataspace \&gt;\n||+ Cap()\l+ Cap()\l+ Cap()\l+ Cap()\l+ Cap()\l+ move()\l+ copy()\l+ operator&#45;\&gt;()\l}">
<polygon fill="#ffffff" stroke="#000000" points="945.5,-6 945.5,-140 1097.5,-140 1097.5,-6 945.5,-6"/>
<text text-anchor="middle" x="1021.5" y="-128" font-family="Helvetica,sans-Serif" font-size="10.00" fill="#000000">L4::Cap&lt; L4Re::Dataspace &gt;</text>
<polyline fill="none" stroke="#000000" points="945.5,-121 1097.5,-121 "/>
<text text-anchor="middle" x="1021.5" y="-109" font-family="Helvetica,sans-Serif" font-size="10.00" fill="#000000"> </text>
<polyline fill="none" stroke="#000000" points="945.5,-102 1097.5,-102 "/>
<text text-anchor="start" x="953.5" y="-90" font-family="Helvetica,sans-Serif" font-size="10.00" fill="#000000">+ Cap()</text>
<text text-anchor="start" x="953.5" y="-79" font-family="Helvetica,sans-Serif" font-size="10.00" fill="#000000">+ Cap()</text>
<text text-anchor="start" x="953.5" y="-68" font-family="Helvetica,sans-Serif" font-size="10.00" fill="#000000">+ Cap()</text>
<text text-anchor="start" x="953.5" y="-57" font-family="Helvetica,sans-Serif" font-size="10.00" fill="#000000">+ Cap()</text>
<text text-anchor="start" x="953.5" y="-46" font-family="Helvetica,sans-Serif" font-size="10.00" fill="#000000">+ Cap()</text>
<text text-anchor="start" x="953.5" y="-35" font-family="Helvetica,sans-Serif" font-size="10.00" fill="#000000">+ move()</text>
<text text-anchor="start" x="953.5" y="-24" font-family="Helvetica,sans-Serif" font-size="10.00" fill="#000000">+ copy()</text>
<text text-anchor="start" x="953.5" y="-13" font-family="Helvetica,sans-Serif" font-size="10.00" fill="#000000">+ operator&#45;&gt;()</text>
</a>
</g>
</g>
<!-- Node0&#45;&gt;Node9 -->
<g id="edge9" class="edge">
<title>Node0&#45;&gt;Node9</title>
<path fill="none" stroke="#ffa500" d="M791.6429,-237.4253C824.6569,-221.6352 867.9235,-199.2319 903.5,-175 918.8307,-164.5579 934.4056,-152.401 948.9965,-140.1946"/>
<polygon fill="#ffa500" stroke="#ffa500" points="789.7241,-234.4612 782.1833,-241.9034 792.7192,-240.7881 789.7241,-234.4612"/>
<text text-anchor="middle" x="969" y="-167" font-family="Helvetica,sans-Serif" font-size="10.00" fill="#000000"> &lt; L4Re::Dataspace &gt;</text>
</g>
<!-- Node10 -->
<g id="node11" class="node">
<title>Node10</title>
<g id="a_node11"><a xlink:href="classL4_1_1Cap.html" target="_top" xlink:title="{L4::Cap\&lt; L4::Semaphore \&gt;\n||+ Cap()\l+ Cap()\l+ Cap()\l+ Cap()\l+ Cap()\l+ move()\l+ copy()\l+ operator&#45;\&gt;()\l}">
<polygon fill="#ffffff" stroke="#000000" points="1115.5,-6 1115.5,-140 1257.5,-140 1257.5,-6 1115.5,-6"/>
<text text-anchor="middle" x="1186.5" y="-128" font-family="Helvetica,sans-Serif" font-size="10.00" fill="#000000">L4::Cap&lt; L4::Semaphore &gt;</text>
<polyline fill="none" stroke="#000000" points="1115.5,-121 1257.5,-121 "/>
<text text-anchor="middle" x="1186.5" y="-109" font-family="Helvetica,sans-Serif" font-size="10.00" fill="#000000"> </text>
<polyline fill="none" stroke="#000000" points="1115.5,-102 1257.5,-102 "/>
<text text-anchor="start" x="1123.5" y="-90" font-family="Helvetica,sans-Serif" font-size="10.00" fill="#000000">+ Cap()</text>
<text text-anchor="start" x="1123.5" y="-79" font-family="Helvetica,sans-Serif" font-size="10.00" fill="#000000">+ Cap()</text>
<text text-anchor="start" x="1123.5" y="-68" font-family="Helvetica,sans-Serif" font-size="10.00" fill="#000000">+ Cap()</text>
<text text-anchor="start" x="1123.5" y="-57" font-family="Helvetica,sans-Serif" font-size="10.00" fill="#000000">+ Cap()</text>
<text text-anchor="start" x="1123.5" y="-46" font-family="Helvetica,sans-Serif" font-size="10.00" fill="#000000">+ Cap()</text>
<text text-anchor="start" x="1123.5" y="-35" font-family="Helvetica,sans-Serif" font-size="10.00" fill="#000000">+ move()</text>
<text text-anchor="start" x="1123.5" y="-24" font-family="Helvetica,sans-Serif" font-size="10.00" fill="#000000">+ copy()</text>
<text text-anchor="start" x="1123.5" y="-13" font-family="Helvetica,sans-Serif" font-size="10.00" fill="#000000">+ operator&#45;&gt;()</text>
</a>
</g>
</g>
<!-- Node0&#45;&gt;Node10 -->
<g id="edge10" class="edge">
<title>Node0&#45;&gt;Node10</title>
<path fill="none" stroke="#ffa500" d="M792.075,-252.297C865.9433,-238.8542 1004.2261,-207.2788 1106.5,-146 1109.5644,-144.1639 1112.6147,-142.1982 1115.636,-140.1323"/>
<polygon fill="#ffa500" stroke="#ffa500" points="791.3216,-248.876 782.0899,-254.0747 792.5486,-255.7677 791.3216,-248.876"/>
<text text-anchor="middle" x="1117" y="-167" font-family="Helvetica,sans-Serif" font-size="10.00" fill="#000000"> &lt; L4::Semaphore &gt;</text>
</g>
<!-- Node11 -->
<g id="node12" class="node">
<title>Node11</title>
<g id="a_node12"><a xlink:href="classL4_1_1Cap.html" target="_top" xlink:title="{L4::Cap\&lt; L4vbus::Vbus \&gt;\n||+ Cap()\l+ Cap()\l+ Cap()\l+ Cap()\l+ Cap()\l+ move()\l+ copy()\l+ operator&#45;\&gt;()\l}">
<polygon fill="#ffffff" stroke="#000000" points="1276,-6 1276,-140 1407,-140 1407,-6 1276,-6"/>
<text text-anchor="middle" x="1341.5" y="-128" font-family="Helvetica,sans-Serif" font-size="10.00" fill="#000000">L4::Cap&lt; L4vbus::Vbus &gt;</text>
<polyline fill="none" stroke="#000000" points="1276,-121 1407,-121 "/>
<text text-anchor="middle" x="1341.5" y="-109" font-family="Helvetica,sans-Serif" font-size="10.00" fill="#000000"> </text>
<polyline fill="none" stroke="#000000" points="1276,-102 1407,-102 "/>
<text text-anchor="start" x="1284" y="-90" font-family="Helvetica,sans-Serif" font-size="10.00" fill="#000000">+ Cap()</text>
<text text-anchor="start" x="1284" y="-79" font-family="Helvetica,sans-Serif" font-size="10.00" fill="#000000">+ Cap()</text>
<text text-anchor="start" x="1284" y="-68" font-family="Helvetica,sans-Serif" font-size="10.00" fill="#000000">+ Cap()</text>
<text text-anchor="start" x="1284" y="-57" font-family="Helvetica,sans-Serif" font-size="10.00" fill="#000000">+ Cap()</text>
<text text-anchor="start" x="1284" y="-46" font-family="Helvetica,sans-Serif" font-size="10.00" fill="#000000">+ Cap()</text>
<text text-anchor="start" x="1284" y="-35" font-family="Helvetica,sans-Serif" font-size="10.00" fill="#000000">+ move()</text>
<text text-anchor="start" x="1284" y="-24" font-family="Helvetica,sans-Serif" font-size="10.00" fill="#000000">+ copy()</text>
<text text-anchor="start" x="1284" y="-13" font-family="Helvetica,sans-Serif" font-size="10.00" fill="#000000">+ operator&#45;&gt;()</text>
</a>
</g>
</g>
<!-- Node0&#45;&gt;Node11 -->
<g id="edge11" class="edge">
<title>Node0&#45;&gt;Node11</title>
<path fill="none" stroke="#ffa500" d="M792.2041,-253.397C908.2319,-236.8002 1185.5097,-193.282 1266.5,-146 1269.6384,-144.1678 1272.7442,-142.1763 1275.8033,-140.0617"/>
<polygon fill="#ffa500" stroke="#ffa500" points="791.5572,-249.9537 782.149,-254.8256 792.5419,-256.8841 791.5572,-249.9537"/>
<text text-anchor="middle" x="1258.5" y="-167" font-family="Helvetica,sans-Serif" font-size="10.00" fill="#000000"> &lt; L4vbus::Vbus &gt;</text>
</g>
<!-- Node12 -->
<g id="node13" class="node">
<title>Node12</title>
<g id="a_node13"><a xlink:href="classL4_1_1Cap.html" target="_top" xlink:title="{L4::Cap\&lt; L4Re::Video\l::Goos \&gt;\n||+ Cap()\l+ Cap()\l+ Cap()\l+ Cap()\l+ Cap()\l+ move()\l+ copy()\l+ operator&#45;\&gt;()\l}">
<polygon fill="#ffffff" stroke="#000000" points="1425,-.5 1425,-145.5 1544,-145.5 1544,-.5 1425,-.5"/>
<text text-anchor="start" x="1433" y="-133.5" font-family="Helvetica,sans-Serif" font-size="10.00" fill="#000000">L4::Cap&lt; L4Re::Video</text>
<text text-anchor="middle" x="1484.5" y="-122.5" font-family="Helvetica,sans-Serif" font-size="10.00" fill="#000000">::Goos &gt;</text>
<polyline fill="none" stroke="#000000" points="1425,-115.5 1544,-115.5 "/>
<text text-anchor="middle" x="1484.5" y="-103.5" font-family="Helvetica,sans-Serif" font-size="10.00" fill="#000000"> </text>
<polyline fill="none" stroke="#000000" points="1425,-96.5 1544,-96.5 "/>
<text text-anchor="start" x="1433" y="-84.5" font-family="Helvetica,sans-Serif" font-size="10.00" fill="#000000">+ Cap()</text>
<text text-anchor="start" x="1433" y="-73.5" font-family="Helvetica,sans-Serif" font-size="10.00" fill="#000000">+ Cap()</text>
<text text-anchor="start" x="1433" y="-62.5" font-family="Helvetica,sans-Serif" font-size="10.00" fill="#000000">+ Cap()</text>
<text text-anchor="start" x="1433" y="-51.5" font-family="Helvetica,sans-Serif" font-size="10.00" fill="#000000">+ Cap()</text>
<text text-anchor="start" x="1433" y="-40.5" font-family="Helvetica,sans-Serif" font-size="10.00" fill="#000000">+ Cap()</text>
<text text-anchor="start" x="1433" y="-29.5" font-family="Helvetica,sans-Serif" font-size="10.00" fill="#000000">+ move()</text>
<text text-anchor="start" x="1433" y="-18.5" font-family="Helvetica,sans-Serif" font-size="10.00" fill="#000000">+ copy()</text>
<text text-anchor="start" x="1433" y="-7.5" font-family="Helvetica,sans-Serif" font-size="10.00" fill="#000000">+ operator&#45;&gt;()</text>
</a>
</g>
</g>
<!-- Node0&#45;&gt;Node12 -->
<g id="edge12" class="edge">
<title>Node0&#45;&gt;Node12</title>
<path fill="none" stroke="#ffa500" d="M792.1654,-254.4564C891.683,-242.4179 1116.649,-213.2733 1303.5,-175 1353.8735,-164.6818 1371.2253,-172.1476 1415.5,-146 1418.6533,-144.1377 1421.7537,-142.0897 1424.7884,-139.899"/>
<polygon fill="#ffa500" stroke="#ffa500" points="791.5887,-251.0005 782.0784,-255.6699 792.4249,-257.9504 791.5887,-251.0005"/>
<text text-anchor="middle" x="1428" y="-167" font-family="Helvetica,sans-Serif" font-size="10.00" fill="#000000"> &lt; L4Re::Video::Goos &gt;</text>
</g>
<!-- Node1 -->
<g id="node2" class="node">
<title>Node1</title>
<g id="a_node2"><a xlink:href="classL4_1_1Cap__base.html" target="_top" xlink:title="Base class for all kinds of capabilities. ">
<polygon fill="#ffffff" stroke="#000000" points="653.5,-365.5 653.5,-587.5 827.5,-587.5 827.5,-365.5 653.5,-365.5"/>
<text text-anchor="middle" x="740.5" y="-575.5" font-family="Helvetica,sans-Serif" font-size="10.00" fill="#000000">L4::Cap_base</text>
<polyline fill="none" stroke="#000000" points="653.5,-568.5 827.5,-568.5 "/>
<text text-anchor="start" x="661.5" y="-556.5" font-family="Helvetica,sans-Serif" font-size="10.00" fill="#000000"># _c</text>
<polyline fill="none" stroke="#000000" points="653.5,-549.5 827.5,-549.5 "/>
<text text-anchor="start" x="661.5" y="-537.5" font-family="Helvetica,sans-Serif" font-size="10.00" fill="#000000">+ cap()</text>
<text text-anchor="start" x="661.5" y="-526.5" font-family="Helvetica,sans-Serif" font-size="10.00" fill="#000000">+ is_valid()</text>
<text text-anchor="start" x="661.5" y="-515.5" font-family="Helvetica,sans-Serif" font-size="10.00" fill="#000000">+ operator Invalid_conversion *()</text>
<text text-anchor="start" x="661.5" y="-504.5" font-family="Helvetica,sans-Serif" font-size="10.00" fill="#000000">+ fpage()</text>
<text text-anchor="start" x="661.5" y="-493.5" font-family="Helvetica,sans-Serif" font-size="10.00" fill="#000000">+ snd_base()</text>
<text text-anchor="start" x="661.5" y="-482.5" font-family="Helvetica,sans-Serif" font-size="10.00" fill="#000000">+ operator==()</text>
<text text-anchor="start" x="661.5" y="-471.5" font-family="Helvetica,sans-Serif" font-size="10.00" fill="#000000">+ operator!=()</text>
<text text-anchor="start" x="661.5" y="-460.5" font-family="Helvetica,sans-Serif" font-size="10.00" fill="#000000">+ validate()</text>
<text text-anchor="start" x="661.5" y="-449.5" font-family="Helvetica,sans-Serif" font-size="10.00" fill="#000000">+ validate()</text>
<text text-anchor="start" x="661.5" y="-438.5" font-family="Helvetica,sans-Serif" font-size="10.00" fill="#000000">+ invalidate()</text>
<text text-anchor="start" x="661.5" y="-427.5" font-family="Helvetica,sans-Serif" font-size="10.00" fill="#000000"># Cap_base()</text>
<text text-anchor="start" x="661.5" y="-416.5" font-family="Helvetica,sans-Serif" font-size="10.00" fill="#000000"># Cap_base()</text>
<text text-anchor="start" x="661.5" y="-405.5" font-family="Helvetica,sans-Serif" font-size="10.00" fill="#000000"># Cap_base()</text>
<text text-anchor="start" x="661.5" y="-394.5" font-family="Helvetica,sans-Serif" font-size="10.00" fill="#000000"># Cap_base()</text>
<text text-anchor="start" x="661.5" y="-383.5" font-family="Helvetica,sans-Serif" font-size="10.00" fill="#000000"># move()</text>
<text text-anchor="start" x="661.5" y="-372.5" font-family="Helvetica,sans-Serif" font-size="10.00" fill="#000000"># copy()</text>
</a>
</g>
</g>
<!-- Node1&#45;&gt;Node0 -->
<g id="edge1" class="edge">
<title>Node1&#45;&gt;Node0</title>
<path fill="none" stroke="#191970" d="M740.5,-355.1483C740.5,-345.7959 740.5,-336.5791 740.5,-327.7844"/>
<polygon fill="none" stroke="#191970" points="737.0001,-355.3363 740.5,-365.3363 744.0001,-355.3364 737.0001,-355.3363"/>
</g>
</g>
</svg>
