<?xml version="1.0" encoding="UTF-8" standalone="no"?>
<!DOCTYPE svg PUBLIC "-//W3C//DTD SVG 1.1//EN"
 "http://www.w3.org/Graphics/SVG/1.1/DTD/svg11.dtd">
<!-- Generated by graphviz version 2.40.1 (20161225.0304)
 -->
<!-- Title: L4::Unknown_error Pages: 1 -->
<svg width="124pt" height="320pt"
 viewBox="0.00 0.00 124.00 320.00" xmlns="http://www.w3.org/2000/svg" xmlns:xlink="http://www.w3.org/1999/xlink">
<g id="graph0" class="graph" transform="scale(1 1) rotate(0) translate(4 316)">
<title>L4::Unknown_error</title>
<polygon fill="#ffffff" stroke="transparent" points="-4,4 -4,-316 120,-316 120,4 -4,4"/>
<!-- Node3 -->
<g id="node1" class="node">
<title>Node3</title>
<polygon fill="#bfbfbf" stroke="#000000" points="1.5,-.5 1.5,-79.5 114.5,-79.5 114.5,-.5 1.5,-.5"/>
<text text-anchor="middle" x="58" y="-67.5" font-family="Helvetica,sans-Serif" font-size="10.00" fill="#000000">L4::Unknown_error</text>
<polyline fill="none" stroke="#000000" points="1.5,-60.5 114.5,-60.5 "/>
<text text-anchor="middle" x="58" y="-48.5" font-family="Helvetica,sans-Serif" font-size="10.00" fill="#000000"> </text>
<polyline fill="none" stroke="#000000" points="1.5,-41.5 114.5,-41.5 "/>
<text text-anchor="start" x="9.5" y="-29.5" font-family="Helvetica,sans-Serif" font-size="10.00" fill="#000000">+ Unknown_error()</text>
<text text-anchor="start" x="9.5" y="-18.5" font-family="Helvetica,sans-Serif" font-size="10.00" fill="#000000">+ str()</text>
<text text-anchor="start" x="9.5" y="-7.5" font-family="Helvetica,sans-Serif" font-size="10.00" fill="#000000">+ ~Unknown_error()</text>
</g>
<!-- Node4 -->
<g id="node2" class="node">
<title>Node4</title>
<g id="a_node2"><a xlink:href="classL4_1_1Base__exception.html" target="_top" xlink:title="Base class for all exceptions, thrown by the L4Re framework. ">
<polygon fill="#ffffff" stroke="#000000" points="0,-116.5 0,-195.5 116,-195.5 116,-116.5 0,-116.5"/>
<text text-anchor="middle" x="58" y="-183.5" font-family="Helvetica,sans-Serif" font-size="10.00" fill="#000000">L4::Base_exception</text>
<polyline fill="none" stroke="#000000" points="0,-176.5 116,-176.5 "/>
<text text-anchor="middle" x="58" y="-164.5" font-family="Helvetica,sans-Serif" font-size="10.00" fill="#000000"> </text>
<polyline fill="none" stroke="#000000" points="0,-157.5 116,-157.5 "/>
<text text-anchor="start" x="8" y="-145.5" font-family="Helvetica,sans-Serif" font-size="10.00" fill="#000000">+ str()</text>
<text text-anchor="start" x="8" y="-134.5" font-family="Helvetica,sans-Serif" font-size="10.00" fill="#000000">+ ~Base_exception()</text>
<text text-anchor="start" x="8" y="-123.5" font-family="Helvetica,sans-Serif" font-size="10.00" fill="#000000"># Base_exception()</text>
</a>
</g>
</g>
<!-- Node4&#45;&gt;Node3 -->
<g id="edge1" class="edge">
<title>Node4&#45;&gt;Node3</title>
<path fill="none" stroke="#191970" d="M58,-106.2163C58,-97.394 58,-88.3127 58,-79.8116"/>
<polygon fill="none" stroke="#191970" points="54.5001,-106.4038 58,-116.4038 61.5001,-106.4039 54.5001,-106.4038"/>
</g>
<!-- Node5 -->
<g id="node3" class="node">
<title>Node5</title>
<g id="a_node3"><a xlink:href="classL4_1_1Exception__tracer.html" target="_top" xlink:title="Back&#45;trace support for exceptions. ">
<polygon fill="#ffffff" stroke="#000000" points="1.5,-232.5 1.5,-311.5 114.5,-311.5 114.5,-232.5 1.5,-232.5"/>
<text text-anchor="middle" x="58" y="-299.5" font-family="Helvetica,sans-Serif" font-size="10.00" fill="#000000">L4::Exception_tracer</text>
<polyline fill="none" stroke="#000000" points="1.5,-292.5 114.5,-292.5 "/>
<text text-anchor="middle" x="58" y="-280.5" font-family="Helvetica,sans-Serif" font-size="10.00" fill="#000000"> </text>
<polyline fill="none" stroke="#000000" points="1.5,-273.5 114.5,-273.5 "/>
<text text-anchor="start" x="9.5" y="-261.5" font-family="Helvetica,sans-Serif" font-size="10.00" fill="#000000">+ pc_array()</text>
<text text-anchor="start" x="9.5" y="-250.5" font-family="Helvetica,sans-Serif" font-size="10.00" fill="#000000">+ frame_count()</text>
<text text-anchor="start" x="9.5" y="-239.5" font-family="Helvetica,sans-Serif" font-size="10.00" fill="#000000"># Exception_tracer()</text>
</a>
</g>
</g>
<!-- Node5&#45;&gt;Node4 -->
<g id="edge2" class="edge">
<title>Node5&#45;&gt;Node4</title>
<path fill="none" stroke="#191970" d="M58,-222.2163C58,-213.394 58,-204.3127 58,-195.8116"/>
<polygon fill="none" stroke="#191970" points="54.5001,-222.4038 58,-232.4038 61.5001,-222.4039 54.5001,-222.4038"/>
</g>
</g>
</svg>
