<?xml version="1.0" encoding="UTF-8" standalone="no"?>
<!DOCTYPE svg PUBLIC "-//W3C//DTD SVG 1.1//EN"
 "http://www.w3.org/Graphics/SVG/1.1/DTD/svg11.dtd">
<!-- Generated by graphviz version 2.40.1 (20161225.0304)
 -->
<!-- Title: cxx::Bitfield&lt; T, LSB, MSB &gt;::Value_unshifted&lt; TT &gt; Pages: 1 -->
<svg width="170pt" height="270pt"
 viewBox="0.00 0.00 170.00 270.00" xmlns="http://www.w3.org/2000/svg" xmlns:xlink="http://www.w3.org/1999/xlink">
<g id="graph0" class="graph" transform="scale(1 1) rotate(0) translate(4 266)">
<title>cxx::Bitfield&lt; T, LSB, MSB &gt;::Value_unshifted&lt; TT &gt;</title>
<polygon fill="#ffffff" stroke="transparent" points="-4,4 -4,-266 166,-266 166,4 -4,4"/>
<!-- Node0 -->
<g id="node1" class="node">
<title>Node0</title>
<polygon fill="#bfbfbf" stroke="#000000" points="0,-.5 0,-90.5 162,-90.5 162,-.5 0,-.5"/>
<text text-anchor="start" x="8" y="-78.5" font-family="Helvetica,sans-Serif" font-size="10.00" fill="#000000">cxx::Bitfield&lt; T, LSB,</text>
<text text-anchor="middle" x="81" y="-67.5" font-family="Helvetica,sans-Serif" font-size="10.00" fill="#000000"> MSB &gt;::Value_unshifted&lt; TT &gt;</text>
<polyline fill="none" stroke="#000000" points="0,-60.5 162,-60.5 "/>
<text text-anchor="middle" x="81" y="-48.5" font-family="Helvetica,sans-Serif" font-size="10.00" fill="#000000"> </text>
<polyline fill="none" stroke="#000000" points="0,-41.5 162,-41.5 "/>
<text text-anchor="start" x="8" y="-29.5" font-family="Helvetica,sans-Serif" font-size="10.00" fill="#000000">+ Value_unshifted()</text>
<text text-anchor="start" x="8" y="-18.5" font-family="Helvetica,sans-Serif" font-size="10.00" fill="#000000">+ operator Shift_type()</text>
<text text-anchor="start" x="8" y="-7.5" font-family="Helvetica,sans-Serif" font-size="10.00" fill="#000000">+ operator=()</text>
</g>
<!-- Node1 -->
<g id="node2" class="node">
<title>Node1</title>
<g id="a_node2"><a xlink:href="classcxx_1_1Bitfield_1_1Value__base.html" target="_top" xlink:title="Internal helper type. ">
<polygon fill="#ffffff" stroke="#000000" points="19.5,-127.5 19.5,-261.5 142.5,-261.5 142.5,-127.5 19.5,-127.5"/>
<text text-anchor="start" x="27.5" y="-249.5" font-family="Helvetica,sans-Serif" font-size="10.00" fill="#000000">cxx::Bitfield&lt; TT &gt;</text>
<text text-anchor="middle" x="81" y="-238.5" font-family="Helvetica,sans-Serif" font-size="10.00" fill="#000000">::Value_base</text>
<polyline fill="none" stroke="#000000" points="19.5,-231.5 142.5,-231.5 "/>
<text text-anchor="middle" x="81" y="-219.5" font-family="Helvetica,sans-Serif" font-size="10.00" fill="#000000"> </text>
<polyline fill="none" stroke="#000000" points="19.5,-212.5 142.5,-212.5 "/>
<text text-anchor="start" x="27.5" y="-200.5" font-family="Helvetica,sans-Serif" font-size="10.00" fill="#000000">+ Value_base()</text>
<text text-anchor="start" x="27.5" y="-189.5" font-family="Helvetica,sans-Serif" font-size="10.00" fill="#000000">+ get()</text>
<text text-anchor="start" x="27.5" y="-178.5" font-family="Helvetica,sans-Serif" font-size="10.00" fill="#000000">+ get_unshifted()</text>
<text text-anchor="start" x="27.5" y="-167.5" font-family="Helvetica,sans-Serif" font-size="10.00" fill="#000000">+ set()</text>
<text text-anchor="start" x="27.5" y="-156.5" font-family="Helvetica,sans-Serif" font-size="10.00" fill="#000000">+ set_dirty()</text>
<text text-anchor="start" x="27.5" y="-145.5" font-family="Helvetica,sans-Serif" font-size="10.00" fill="#000000">+ set_unshifted()</text>
<text text-anchor="start" x="27.5" y="-134.5" font-family="Helvetica,sans-Serif" font-size="10.00" fill="#000000">+ set_unshifted_dirty()</text>
</a>
</g>
</g>
<!-- Node1&#45;&gt;Node0 -->
<g id="edge1" class="edge">
<title>Node1&#45;&gt;Node0</title>
<path fill="none" stroke="#191970" d="M81,-117.2384C81,-108.2246 81,-99.2648 81,-90.8878"/>
<polygon fill="none" stroke="#191970" points="77.5001,-117.41 81,-127.41 84.5001,-117.41 77.5001,-117.41"/>
</g>
</g>
</svg>
