<?xml version="1.0" encoding="UTF-8" standalone="no"?>
<!DOCTYPE svg PUBLIC "-//W3C//DTD SVG 1.1//EN"
 "http://www.w3.org/Graphics/SVG/1.1/DTD/svg11.dtd">
<!-- Generated by graphviz version 2.40.1 (20161225.0304)
 -->
<!-- Title: cxx::Bits::Bst::remove_tree Pages: 1 -->
<svg width="321pt" height="57pt"
 viewBox="0.00 0.00 321.00 57.00" xmlns="http://www.w3.org/2000/svg" xmlns:xlink="http://www.w3.org/1999/xlink">
<g id="graph0" class="graph" transform="scale(1 1) rotate(0) translate(4 53)">
<title>cxx::Bits::Bst::remove_tree</title>
<polygon fill="#ffffff" stroke="transparent" points="-4,4 -4,-53 317,-53 317,4 -4,4"/>
<!-- Node39 -->
<g id="node1" class="node">
<title>Node39</title>
<polygon fill="#bfbfbf" stroke="#000000" points="0,-11.5 0,-30.5 138,-30.5 138,-11.5 0,-11.5"/>
<text text-anchor="middle" x="69" y="-18.5" font-family="Helvetica,sans-Serif" font-size="10.00" fill="#000000">cxx::Bits::Bst::remove_tree</text>
</g>
<!-- Node39&#45;&gt;Node39 -->
<g id="edge2" class="edge">
<title>Node39&#45;&gt;Node39</title>
<path fill="none" stroke="#191970" d="M36.4401,-39.2746C37.3684,-44.741 48.2217,-49 69,-49 99.9258,-49 108.8653,-39.5653 95.8185,-30.7571"/>
<polygon fill="#191970" stroke="#191970" points="39.4943,-41.0054 42.1815,-30.7571 33.6898,-37.0928 39.4943,-41.0054"/>
</g>
<!-- Node40 -->
<g id="node2" class="node">
<title>Node40</title>
<g id="a_node2"><a xlink:href="classcxx_1_1Bits_1_1Bst.html#ab86f783914505fd36cf3abddda981d4a" target="_top" xlink:title="Clear the tree. ">
<polygon fill="#ffffff" stroke="#000000" points="174,-.5 174,-41.5 313,-41.5 313,-.5 174,-.5"/>
<text text-anchor="start" x="182" y="-29.5" font-family="Helvetica,sans-Serif" font-size="10.00" fill="#000000">cxx::Bits::Bst&lt; _Node,</text>
<text text-anchor="start" x="182" y="-18.5" font-family="Helvetica,sans-Serif" font-size="10.00" fill="#000000"> GET_KEY, COMPARE &gt;::</text>
<text text-anchor="middle" x="243.5" y="-7.5" font-family="Helvetica,sans-Serif" font-size="10.00" fill="#000000">remove_all</text>
</a>
</g>
</g>
<!-- Node39&#45;&gt;Node40 -->
<g id="edge1" class="edge">
<title>Node39&#45;&gt;Node40</title>
<path fill="none" stroke="#191970" d="M148.4592,-21C156.913,-21 165.4652,-21 173.7949,-21"/>
<polygon fill="#191970" stroke="#191970" points="148.2177,-17.5001 138.2177,-21 148.2176,-24.5001 148.2177,-17.5001"/>
</g>
</g>
</svg>
