<?xml version="1.0" encoding="UTF-8" standalone="no"?>
<!DOCTYPE svg PUBLIC "-//W3C//DTD SVG 1.1//EN"
 "http://www.w3.org/Graphics/SVG/1.1/DTD/svg11.dtd">
<!-- Generated by graphviz version 2.40.1 (20161225.0304)
 -->
<!-- Title: L4Re::Cap_alloc::get_cap_alloc Pages: 1 -->
<svg width="277pt" height="66pt"
 viewBox="0.00 0.00 277.00 66.00" xmlns="http://www.w3.org/2000/svg" xmlns:xlink="http://www.w3.org/1999/xlink">
<g id="graph0" class="graph" transform="scale(1 1) rotate(0) translate(4 62)">
<title>L4Re::Cap_alloc::get_cap_alloc</title>
<polygon fill="#ffffff" stroke="transparent" points="-4,4 -4,-62 273,-62 273,4 -4,4"/>
<!-- Node19 -->
<g id="node1" class="node">
<title>Node19</title>
<polygon fill="#bfbfbf" stroke="#000000" points="0,-14 0,-44 113,-44 113,-14 0,-14"/>
<text text-anchor="start" x="8" y="-32" font-family="Helvetica,sans-Serif" font-size="10.00" fill="#000000">L4Re::Cap_alloc::get</text>
<text text-anchor="middle" x="56.5" y="-21" font-family="Helvetica,sans-Serif" font-size="10.00" fill="#000000">_cap_alloc</text>
</g>
<!-- Node20 -->
<g id="node2" class="node">
<title>Node20</title>
<g id="a_node2"><a xlink:href="classL4Re_1_1Cap__alloc.html#a23f35ffafa315ea6745e7fb781524c28" target="_top" xlink:title="Allocate a capability. ">
<polygon fill="#ffffff" stroke="#000000" points="149,-38.5 149,-57.5 269,-57.5 269,-38.5 149,-38.5"/>
<text text-anchor="middle" x="209" y="-45.5" font-family="Helvetica,sans-Serif" font-size="10.00" fill="#000000">L4Re::Cap_alloc::alloc</text>
</a>
</g>
</g>
<!-- Node19&#45;&gt;Node20 -->
<g id="edge1" class="edge">
<title>Node19&#45;&gt;Node20</title>
<path fill="none" stroke="#191970" d="M113.2854,-36.0749C121.624,-37.1138 130.2956,-38.1942 138.8635,-39.2617"/>
<polygon fill="#191970" stroke="#191970" points="138.4917,-42.7423 148.8477,-40.5056 139.3572,-35.796 138.4917,-42.7423"/>
</g>
<!-- Node21 -->
<g id="node3" class="node">
<title>Node21</title>
<g id="a_node3"><a xlink:href="classL4Re_1_1Cap__alloc.html#ad8e36ca35881e1bc7ec3ff12e3956f10" target="_top" xlink:title="Free a capability. ">
<polygon fill="#ffffff" stroke="#000000" points="150.5,-.5 150.5,-19.5 267.5,-19.5 267.5,-.5 150.5,-.5"/>
<text text-anchor="middle" x="209" y="-7.5" font-family="Helvetica,sans-Serif" font-size="10.00" fill="#000000">L4Re::Cap_alloc::free</text>
</a>
</g>
</g>
<!-- Node19&#45;&gt;Node21 -->
<g id="edge2" class="edge">
<title>Node19&#45;&gt;Node21</title>
<path fill="none" stroke="#191970" d="M113.2854,-21.9251C122.0838,-20.8289 131.2529,-19.6865 140.2798,-18.5619"/>
<polygon fill="#191970" stroke="#191970" points="140.8932,-22.0126 150.3837,-17.303 140.0277,-15.0663 140.8932,-22.0126"/>
</g>
</g>
</svg>
