<?xml version="1.0" encoding="UTF-8" standalone="no"?>
<!DOCTYPE svg PUBLIC "-//W3C//DTD SVG 1.1//EN"
 "http://www.w3.org/Graphics/SVG/1.1/DTD/svg11.dtd">
<!-- Generated by graphviz version 2.40.1 (20161225.0304)
 -->
<!-- Title: L4virtio::Svr::Virtqueue Pages: 1 -->
<svg width="588pt" height="1004pt"
 viewBox="0.00 0.00 588.00 1004.00" xmlns="http://www.w3.org/2000/svg" xmlns:xlink="http://www.w3.org/1999/xlink">
<g id="graph0" class="graph" transform="scale(1 1) rotate(0) translate(4 1000)">
<title>L4virtio::Svr::Virtqueue</title>
<polygon fill="#ffffff" stroke="transparent" points="-4,4 -4,-1000 584,-1000 584,4 -4,4"/>
<!-- Node2 -->
<g id="node1" class="node">
<title>Node2</title>
<polygon fill="#bfbfbf" stroke="#000000" points="293,-.5 293,-145.5 413,-145.5 413,-.5 293,-.5"/>
<text text-anchor="middle" x="353" y="-133.5" font-family="Helvetica,sans-Serif" font-size="10.00" fill="#000000">L4virtio::Svr::Virtqueue</text>
<polyline fill="none" stroke="#000000" points="293,-126.5 413,-126.5 "/>
<text text-anchor="middle" x="353" y="-114.5" font-family="Helvetica,sans-Serif" font-size="10.00" fill="#000000"> </text>
<polyline fill="none" stroke="#000000" points="293,-107.5 413,-107.5 "/>
<text text-anchor="start" x="301" y="-95.5" font-family="Helvetica,sans-Serif" font-size="10.00" fill="#000000">+ next_avail()</text>
<text text-anchor="start" x="301" y="-84.5" font-family="Helvetica,sans-Serif" font-size="10.00" fill="#000000">+ desc_avail()</text>
<text text-anchor="start" x="301" y="-73.5" font-family="Helvetica,sans-Serif" font-size="10.00" fill="#000000">+ consumed()</text>
<text text-anchor="start" x="301" y="-62.5" font-family="Helvetica,sans-Serif" font-size="10.00" fill="#000000">+ consumed()</text>
<text text-anchor="start" x="301" y="-51.5" font-family="Helvetica,sans-Serif" font-size="10.00" fill="#000000">+ finish()</text>
<text text-anchor="start" x="301" y="-40.5" font-family="Helvetica,sans-Serif" font-size="10.00" fill="#000000">+ finish()</text>
<text text-anchor="start" x="301" y="-29.5" font-family="Helvetica,sans-Serif" font-size="10.00" fill="#000000">+ disable_notify()</text>
<text text-anchor="start" x="301" y="-18.5" font-family="Helvetica,sans-Serif" font-size="10.00" fill="#000000">+ enable_notify()</text>
<text text-anchor="start" x="301" y="-7.5" font-family="Helvetica,sans-Serif" font-size="10.00" fill="#000000">+ desc()</text>
</g>
<!-- Node3 -->
<g id="node2" class="node">
<title>Node3</title>
<g id="a_node2"><a xlink:href="classL4virtio_1_1Virtqueue.html" target="_top" xlink:title="Low&#45;level Virtqueue. ">
<polygon fill="#ffffff" stroke="#000000" points="295,-183.5 295,-493.5 411,-493.5 411,-183.5 295,-183.5"/>
<text text-anchor="middle" x="353" y="-481.5" font-family="Helvetica,sans-Serif" font-size="10.00" fill="#000000">L4virtio::Virtqueue</text>
<polyline fill="none" stroke="#000000" points="295,-474.5 411,-474.5 "/>
<text text-anchor="start" x="303" y="-462.5" font-family="Helvetica,sans-Serif" font-size="10.00" fill="#000000"># _current_avail</text>
<text text-anchor="start" x="303" y="-451.5" font-family="Helvetica,sans-Serif" font-size="10.00" fill="#000000"># _idx_mask</text>
<polyline fill="none" stroke="#000000" points="295,-444.5 411,-444.5 "/>
<text text-anchor="start" x="303" y="-432.5" font-family="Helvetica,sans-Serif" font-size="10.00" fill="#000000">+ disable()</text>
<text text-anchor="start" x="303" y="-421.5" font-family="Helvetica,sans-Serif" font-size="10.00" fill="#000000">+ total_size()</text>
<text text-anchor="start" x="303" y="-410.5" font-family="Helvetica,sans-Serif" font-size="10.00" fill="#000000">+ avail_offset()</text>
<text text-anchor="start" x="303" y="-399.5" font-family="Helvetica,sans-Serif" font-size="10.00" fill="#000000">+ used_offset()</text>
<text text-anchor="start" x="303" y="-388.5" font-family="Helvetica,sans-Serif" font-size="10.00" fill="#000000">+ setup()</text>
<text text-anchor="start" x="303" y="-377.5" font-family="Helvetica,sans-Serif" font-size="10.00" fill="#000000">+ setup_simple()</text>
<text text-anchor="start" x="303" y="-366.5" font-family="Helvetica,sans-Serif" font-size="10.00" fill="#000000">+ dump()</text>
<text text-anchor="start" x="303" y="-355.5" font-family="Helvetica,sans-Serif" font-size="10.00" fill="#000000">+ ready()</text>
<text text-anchor="start" x="303" y="-344.5" font-family="Helvetica,sans-Serif" font-size="10.00" fill="#000000">+ num()</text>
<text text-anchor="start" x="303" y="-333.5" font-family="Helvetica,sans-Serif" font-size="10.00" fill="#000000">+ no_notify_guest()</text>
<text text-anchor="start" x="303" y="-322.5" font-family="Helvetica,sans-Serif" font-size="10.00" fill="#000000">+ no_notify_host()</text>
<text text-anchor="start" x="303" y="-311.5" font-family="Helvetica,sans-Serif" font-size="10.00" fill="#000000">+ no_notify_host()</text>
<text text-anchor="start" x="303" y="-300.5" font-family="Helvetica,sans-Serif" font-size="10.00" fill="#000000">+ get_avail_idx()</text>
<text text-anchor="start" x="303" y="-289.5" font-family="Helvetica,sans-Serif" font-size="10.00" fill="#000000">+ get_tail_avail_idx()</text>
<text text-anchor="start" x="303" y="-278.5" font-family="Helvetica,sans-Serif" font-size="10.00" fill="#000000">+ total_size()</text>
<text text-anchor="start" x="303" y="-267.5" font-family="Helvetica,sans-Serif" font-size="10.00" fill="#000000">+ desc_size()</text>
<text text-anchor="start" x="303" y="-256.5" font-family="Helvetica,sans-Serif" font-size="10.00" fill="#000000">+ desc_align()</text>
<text text-anchor="start" x="303" y="-245.5" font-family="Helvetica,sans-Serif" font-size="10.00" fill="#000000">+ avail_size()</text>
<text text-anchor="start" x="303" y="-234.5" font-family="Helvetica,sans-Serif" font-size="10.00" fill="#000000">+ avail_align()</text>
<text text-anchor="start" x="303" y="-223.5" font-family="Helvetica,sans-Serif" font-size="10.00" fill="#000000">+ used_size()</text>
<text text-anchor="start" x="303" y="-212.5" font-family="Helvetica,sans-Serif" font-size="10.00" fill="#000000">+ used_align()</text>
<text text-anchor="start" x="303" y="-201.5" font-family="Helvetica,sans-Serif" font-size="10.00" fill="#000000"># Virtqueue()</text>
<text text-anchor="start" x="303" y="-190.5" font-family="Helvetica,sans-Serif" font-size="10.00" fill="#000000"># Virtqueue()</text>
</a>
</g>
</g>
<!-- Node3&#45;&gt;Node2 -->
<g id="edge1" class="edge">
<title>Node3&#45;&gt;Node2</title>
<path fill="none" stroke="#191970" d="M353,-173.2645C353,-163.719 353,-154.4122 353,-145.5586"/>
<polygon fill="none" stroke="#191970" points="349.5001,-173.2893 353,-183.2894 356.5001,-173.2894 349.5001,-173.2893"/>
</g>
<!-- Node4 -->
<g id="node3" class="node">
<title>Node4</title>
<g id="a_node3"><a xlink:href="classL4virtio_1_1Virtqueue_1_1Desc.html" target="_top" xlink:title="Descriptor in the descriptor table. ">
<polygon fill="#ffffff" stroke="#000000" points="122,-541.5 122,-620.5 222,-620.5 222,-541.5 122,-541.5"/>
<text text-anchor="start" x="130" y="-608.5" font-family="Helvetica,sans-Serif" font-size="10.00" fill="#000000">L4virtio::Virtqueue</text>
<text text-anchor="middle" x="172" y="-597.5" font-family="Helvetica,sans-Serif" font-size="10.00" fill="#000000">::Desc</text>
<polyline fill="none" stroke="#000000" points="122,-590.5 222,-590.5 "/>
<text text-anchor="start" x="130" y="-578.5" font-family="Helvetica,sans-Serif" font-size="10.00" fill="#000000">+ len</text>
<text text-anchor="start" x="130" y="-567.5" font-family="Helvetica,sans-Serif" font-size="10.00" fill="#000000">+ next</text>
<polyline fill="none" stroke="#000000" points="122,-560.5 222,-560.5 "/>
<text text-anchor="start" x="130" y="-548.5" font-family="Helvetica,sans-Serif" font-size="10.00" fill="#000000">+ dump()</text>
</a>
</g>
</g>
<!-- Node4&#45;&gt;Node3 -->
<g id="edge2" class="edge">
<title>Node4&#45;&gt;Node3</title>
<path fill="none" stroke="#404040" d="M201.4836,-541.4985C224.8043,-510.2539 258.2432,-465.4532 287.7773,-425.884"/>
<polygon fill="none" stroke="#404040" points="287.8175,-425.8301 288.2008,-418.6292 294.9953,-416.2135 294.6119,-423.4144 287.8175,-425.8301"/>
<text text-anchor="middle" x="240" y="-515" font-family="Helvetica,sans-Serif" font-size="10.00" fill="#000000"> #_desc</text>
</g>
<!-- Node5 -->
<g id="node4" class="node">
<title>Node5</title>
<g id="a_node4"><a xlink:href="structL4virtio_1_1Virtqueue_1_1Desc_1_1Flags.html" target="_top" xlink:title="Type for descriptor flags. ">
<polygon fill="#ffffff" stroke="#000000" points="0,-668.5 0,-846.5 100,-846.5 100,-668.5 0,-668.5"/>
<text text-anchor="start" x="8" y="-834.5" font-family="Helvetica,sans-Serif" font-size="10.00" fill="#000000">L4virtio::Virtqueue</text>
<text text-anchor="middle" x="50" y="-823.5" font-family="Helvetica,sans-Serif" font-size="10.00" fill="#000000">::Desc::Flags</text>
<polyline fill="none" stroke="#000000" points="0,-816.5 100,-816.5 "/>
<text text-anchor="start" x="8" y="-804.5" font-family="Helvetica,sans-Serif" font-size="10.00" fill="#000000">+ raw</text>
<polyline fill="none" stroke="#000000" points="0,-797.5 100,-797.5 "/>
<text text-anchor="start" x="8" y="-785.5" font-family="Helvetica,sans-Serif" font-size="10.00" fill="#000000">+ Flags()</text>
<text text-anchor="start" x="8" y="-774.5" font-family="Helvetica,sans-Serif" font-size="10.00" fill="#000000">+ Flags()</text>
<text text-anchor="start" x="8" y="-763.5" font-family="Helvetica,sans-Serif" font-size="10.00" fill="#000000">* next_bfm_t</text>
<text text-anchor="start" x="8" y="-752.5" font-family="Helvetica,sans-Serif" font-size="10.00" fill="#000000">* next()</text>
<text text-anchor="start" x="8" y="-741.5" font-family="Helvetica,sans-Serif" font-size="10.00" fill="#000000">* next()</text>
<text text-anchor="start" x="8" y="-730.5" font-family="Helvetica,sans-Serif" font-size="10.00" fill="#000000">* write_bfm_t</text>
<text text-anchor="start" x="8" y="-719.5" font-family="Helvetica,sans-Serif" font-size="10.00" fill="#000000">* write()</text>
<text text-anchor="start" x="8" y="-708.5" font-family="Helvetica,sans-Serif" font-size="10.00" fill="#000000">* write()</text>
<text text-anchor="start" x="8" y="-697.5" font-family="Helvetica,sans-Serif" font-size="10.00" fill="#000000">* indirect_bfm_t</text>
<text text-anchor="start" x="8" y="-686.5" font-family="Helvetica,sans-Serif" font-size="10.00" fill="#000000">* indirect()</text>
<text text-anchor="start" x="8" y="-675.5" font-family="Helvetica,sans-Serif" font-size="10.00" fill="#000000">* indirect()</text>
</a>
</g>
</g>
<!-- Node5&#45;&gt;Node4 -->
<g id="edge3" class="edge">
<title>Node5&#45;&gt;Node4</title>
<path fill="none" stroke="#404040" d="M100.311,-680.6996C103.2322,-676.3908 106.1429,-672.1336 109,-668 117.4495,-655.7754 126.743,-642.7315 135.5364,-630.5628"/>
<polygon fill="none" stroke="#404040" points="135.729,-630.2973 136.0147,-623.0918 142.7758,-620.5842 142.4901,-627.7897 135.729,-630.2973"/>
<text text-anchor="middle" x="146.5" y="-642" font-family="Helvetica,sans-Serif" font-size="10.00" fill="#000000"> +flags</text>
</g>
<!-- Node6 -->
<g id="node5" class="node">
<title>Node6</title>
<g id="a_node5"><a xlink:href="classL4virtio_1_1Ptr.html" target="_top" xlink:title="{L4virtio::Ptr\&lt; void \&gt;\n||+ Ptr()\l+ Ptr()\l+ Ptr()\l+ get()\l+ is_valid()\l}">
<polygon fill="#ffffff" stroke="#000000" points="118.5,-707 118.5,-808 225.5,-808 225.5,-707 118.5,-707"/>
<text text-anchor="middle" x="172" y="-796" font-family="Helvetica,sans-Serif" font-size="10.00" fill="#000000">L4virtio::Ptr&lt; void &gt;</text>
<polyline fill="none" stroke="#000000" points="118.5,-789 225.5,-789 "/>
<text text-anchor="middle" x="172" y="-777" font-family="Helvetica,sans-Serif" font-size="10.00" fill="#000000"> </text>
<polyline fill="none" stroke="#000000" points="118.5,-770 225.5,-770 "/>
<text text-anchor="start" x="126.5" y="-758" font-family="Helvetica,sans-Serif" font-size="10.00" fill="#000000">+ Ptr()</text>
<text text-anchor="start" x="126.5" y="-747" font-family="Helvetica,sans-Serif" font-size="10.00" fill="#000000">+ Ptr()</text>
<text text-anchor="start" x="126.5" y="-736" font-family="Helvetica,sans-Serif" font-size="10.00" fill="#000000">+ Ptr()</text>
<text text-anchor="start" x="126.5" y="-725" font-family="Helvetica,sans-Serif" font-size="10.00" fill="#000000">+ get()</text>
<text text-anchor="start" x="126.5" y="-714" font-family="Helvetica,sans-Serif" font-size="10.00" fill="#000000">+ is_valid()</text>
</a>
</g>
</g>
<!-- Node6&#45;&gt;Node4 -->
<g id="edge4" class="edge">
<title>Node6&#45;&gt;Node4</title>
<path fill="none" stroke="#404040" d="M172,-706.9222C172,-683.6947 172,-656.181 172,-632.8055"/>
<polygon fill="none" stroke="#404040" points="172.0001,-632.6521 168,-626.6522 172,-620.6521 176,-626.6521 172.0001,-632.6521"/>
<text text-anchor="middle" x="188" y="-642" font-family="Helvetica,sans-Serif" font-size="10.00" fill="#000000"> +addr</text>
</g>
<!-- Node7 -->
<g id="node6" class="node">
<title>Node7</title>
<g id="a_node6"><a xlink:href="classL4virtio_1_1Ptr.html" target="_top" xlink:title="Pointer used in virtio descriptors. ">
<polygon fill="#ffffff" stroke="#000000" points="125,-894.5 125,-995.5 219,-995.5 219,-894.5 125,-894.5"/>
<text text-anchor="middle" x="172" y="-983.5" font-family="Helvetica,sans-Serif" font-size="10.00" fill="#000000">L4virtio::Ptr&lt; T &gt;</text>
<polyline fill="none" stroke="#000000" points="125,-976.5 219,-976.5 "/>
<text text-anchor="middle" x="172" y="-964.5" font-family="Helvetica,sans-Serif" font-size="10.00" fill="#000000"> </text>
<polyline fill="none" stroke="#000000" points="125,-957.5 219,-957.5 "/>
<text text-anchor="start" x="133" y="-945.5" font-family="Helvetica,sans-Serif" font-size="10.00" fill="#000000">+ Ptr()</text>
<text text-anchor="start" x="133" y="-934.5" font-family="Helvetica,sans-Serif" font-size="10.00" fill="#000000">+ Ptr()</text>
<text text-anchor="start" x="133" y="-923.5" font-family="Helvetica,sans-Serif" font-size="10.00" fill="#000000">+ Ptr()</text>
<text text-anchor="start" x="133" y="-912.5" font-family="Helvetica,sans-Serif" font-size="10.00" fill="#000000">+ get()</text>
<text text-anchor="start" x="133" y="-901.5" font-family="Helvetica,sans-Serif" font-size="10.00" fill="#000000">+ is_valid()</text>
</a>
</g>
</g>
<!-- Node7&#45;&gt;Node6 -->
<g id="edge5" class="edge">
<title>Node7&#45;&gt;Node6</title>
<path fill="none" stroke="#ffa500" d="M172,-883.9999C172,-859.5192 172,-831.6309 172,-808.2808"/>
<polygon fill="#ffa500" stroke="#ffa500" points="168.5001,-884.2598 172,-894.2598 175.5001,-884.2598 168.5001,-884.2598"/>
<text text-anchor="middle" x="192.5" y="-868" font-family="Helvetica,sans-Serif" font-size="10.00" fill="#000000"> &lt; void &gt;</text>
</g>
<!-- Node8 -->
<g id="node7" class="node">
<title>Node8</title>
<g id="a_node7"><a xlink:href="classL4virtio_1_1Virtqueue_1_1Used.html" target="_top" xlink:title="Used ring. ">
<polygon fill="#ffffff" stroke="#000000" points="303,-547 303,-615 403,-615 403,-547 303,-547"/>
<text text-anchor="start" x="311" y="-603" font-family="Helvetica,sans-Serif" font-size="10.00" fill="#000000">L4virtio::Virtqueue</text>
<text text-anchor="middle" x="353" y="-592" font-family="Helvetica,sans-Serif" font-size="10.00" fill="#000000">::Used</text>
<polyline fill="none" stroke="#000000" points="303,-585 403,-585 "/>
<text text-anchor="start" x="311" y="-573" font-family="Helvetica,sans-Serif" font-size="10.00" fill="#000000">+ idx</text>
<polyline fill="none" stroke="#000000" points="303,-566 403,-566 "/>
<text text-anchor="middle" x="353" y="-554" font-family="Helvetica,sans-Serif" font-size="10.00" fill="#000000"> </text>
</a>
</g>
</g>
<!-- Node8&#45;&gt;Node3 -->
<g id="edge6" class="edge">
<title>Node8&#45;&gt;Node3</title>
<path fill="none" stroke="#404040" d="M353,-546.77C353,-535.0775 353,-521.1031 353,-506.0028"/>
<polygon fill="none" stroke="#404040" points="353.0001,-505.6735 349,-499.6735 353,-493.6735 357,-499.6734 353.0001,-505.6735"/>
<text text-anchor="middle" x="372" y="-515" font-family="Helvetica,sans-Serif" font-size="10.00" fill="#000000"> #_used</text>
</g>
<!-- Node9 -->
<g id="node8" class="node">
<title>Node9</title>
<g id="a_node8"><a xlink:href="structL4virtio_1_1Virtqueue_1_1Used_1_1Flags.html" target="_top" xlink:title="flags for the used ring. ">
<polygon fill="#ffffff" stroke="#000000" points="244,-701.5 244,-813.5 344,-813.5 344,-701.5 244,-701.5"/>
<text text-anchor="start" x="252" y="-801.5" font-family="Helvetica,sans-Serif" font-size="10.00" fill="#000000">L4virtio::Virtqueue</text>
<text text-anchor="middle" x="294" y="-790.5" font-family="Helvetica,sans-Serif" font-size="10.00" fill="#000000">::Used::Flags</text>
<polyline fill="none" stroke="#000000" points="244,-783.5 344,-783.5 "/>
<text text-anchor="start" x="252" y="-771.5" font-family="Helvetica,sans-Serif" font-size="10.00" fill="#000000">+ raw</text>
<polyline fill="none" stroke="#000000" points="244,-764.5 344,-764.5 "/>
<text text-anchor="start" x="252" y="-752.5" font-family="Helvetica,sans-Serif" font-size="10.00" fill="#000000">+ Flags()</text>
<text text-anchor="start" x="252" y="-741.5" font-family="Helvetica,sans-Serif" font-size="10.00" fill="#000000">+ Flags()</text>
<text text-anchor="start" x="252" y="-730.5" font-family="Helvetica,sans-Serif" font-size="10.00" fill="#000000">* no_notify_bfm_t</text>
<text text-anchor="start" x="252" y="-719.5" font-family="Helvetica,sans-Serif" font-size="10.00" fill="#000000">* no_notify()</text>
<text text-anchor="start" x="252" y="-708.5" font-family="Helvetica,sans-Serif" font-size="10.00" fill="#000000">* no_notify()</text>
</a>
</g>
</g>
<!-- Node9&#45;&gt;Node8 -->
<g id="edge7" class="edge">
<title>Node9&#45;&gt;Node8</title>
<path fill="none" stroke="#404040" d="M312.8302,-701.169C320.8713,-677.1139 330.1348,-649.402 337.7382,-626.6561"/>
<polygon fill="none" stroke="#404040" points="337.7432,-626.6409 335.8518,-619.6822 341.5477,-615.2599 343.4391,-622.2185 337.7432,-626.6409"/>
<text text-anchor="middle" x="349.5" y="-642" font-family="Helvetica,sans-Serif" font-size="10.00" fill="#000000"> +flags</text>
</g>
<!-- Node10 -->
<g id="node9" class="node">
<title>Node10</title>
<g id="a_node9"><a xlink:href="structL4virtio_1_1Virtqueue_1_1Used__elem.html" target="_top" xlink:title="Type of an element of the used ring. ">
<polygon fill="#ffffff" stroke="#000000" points="362,-712.5 362,-802.5 462,-802.5 462,-712.5 362,-712.5"/>
<text text-anchor="start" x="370" y="-790.5" font-family="Helvetica,sans-Serif" font-size="10.00" fill="#000000">L4virtio::Virtqueue</text>
<text text-anchor="middle" x="412" y="-779.5" font-family="Helvetica,sans-Serif" font-size="10.00" fill="#000000">::Used_elem</text>
<polyline fill="none" stroke="#000000" points="362,-772.5 462,-772.5 "/>
<text text-anchor="start" x="370" y="-760.5" font-family="Helvetica,sans-Serif" font-size="10.00" fill="#000000">+ id</text>
<text text-anchor="start" x="370" y="-749.5" font-family="Helvetica,sans-Serif" font-size="10.00" fill="#000000">+ len</text>
<polyline fill="none" stroke="#000000" points="362,-742.5 462,-742.5 "/>
<text text-anchor="start" x="370" y="-730.5" font-family="Helvetica,sans-Serif" font-size="10.00" fill="#000000">+ Used_elem()</text>
<text text-anchor="start" x="370" y="-719.5" font-family="Helvetica,sans-Serif" font-size="10.00" fill="#000000">+ Used_elem()</text>
</a>
</g>
</g>
<!-- Node10&#45;&gt;Node8 -->
<g id="edge8" class="edge">
<title>Node10&#45;&gt;Node8</title>
<path fill="none" stroke="#404040" d="M396.806,-712.0469C388.0419,-685.8288 377.055,-652.9613 368.277,-626.7014"/>
<polygon fill="none" stroke="#404040" points="368.2196,-626.5296 362.5237,-622.1073 364.4151,-615.1486 370.111,-619.571 368.2196,-626.5296"/>
<text text-anchor="middle" x="390" y="-642" font-family="Helvetica,sans-Serif" font-size="10.00" fill="#000000"> +ring</text>
</g>
<!-- Node11 -->
<g id="node10" class="node">
<title>Node11</title>
<g id="a_node10"><a xlink:href="classL4virtio_1_1Virtqueue_1_1Avail.html" target="_top" xlink:title="Type of available ring, this is read&#45;only for the host. ">
<polygon fill="#ffffff" stroke="#000000" points="451,-541.5 451,-620.5 551,-620.5 551,-541.5 451,-541.5"/>
<text text-anchor="start" x="459" y="-608.5" font-family="Helvetica,sans-Serif" font-size="10.00" fill="#000000">L4virtio::Virtqueue</text>
<text text-anchor="middle" x="501" y="-597.5" font-family="Helvetica,sans-Serif" font-size="10.00" fill="#000000">::Avail</text>
<polyline fill="none" stroke="#000000" points="451,-590.5 551,-590.5 "/>
<text text-anchor="start" x="459" y="-578.5" font-family="Helvetica,sans-Serif" font-size="10.00" fill="#000000">+ idx</text>
<text text-anchor="start" x="459" y="-567.5" font-family="Helvetica,sans-Serif" font-size="10.00" fill="#000000">+ ring</text>
<polyline fill="none" stroke="#000000" points="451,-560.5 551,-560.5 "/>
<text text-anchor="middle" x="501" y="-548.5" font-family="Helvetica,sans-Serif" font-size="10.00" fill="#000000"> </text>
</a>
</g>
</g>
<!-- Node11&#45;&gt;Node3 -->
<g id="edge9" class="edge">
<title>Node11&#45;&gt;Node3</title>
<path fill="none" stroke="#404040" d="M476.8919,-541.4985C460.7468,-515.0445 438.6708,-478.8728 417.6234,-444.3863"/>
<polygon fill="none" stroke="#404040" points="417.3836,-443.9934 410.8436,-440.9557 411.1322,-433.7504 417.6723,-436.7881 417.3836,-443.9934"/>
<text text-anchor="middle" x="484.5" y="-515" font-family="Helvetica,sans-Serif" font-size="10.00" fill="#000000"> #_avail</text>
</g>
<!-- Node12 -->
<g id="node11" class="node">
<title>Node12</title>
<g id="a_node11"><a xlink:href="structL4virtio_1_1Virtqueue_1_1Avail_1_1Flags.html" target="_top" xlink:title="Flags of the available ring. ">
<polygon fill="#ffffff" stroke="#000000" points="480,-701.5 480,-813.5 580,-813.5 580,-701.5 480,-701.5"/>
<text text-anchor="start" x="488" y="-801.5" font-family="Helvetica,sans-Serif" font-size="10.00" fill="#000000">L4virtio::Virtqueue</text>
<text text-anchor="middle" x="530" y="-790.5" font-family="Helvetica,sans-Serif" font-size="10.00" fill="#000000">::Avail::Flags</text>
<polyline fill="none" stroke="#000000" points="480,-783.5 580,-783.5 "/>
<text text-anchor="start" x="488" y="-771.5" font-family="Helvetica,sans-Serif" font-size="10.00" fill="#000000">+ raw</text>
<polyline fill="none" stroke="#000000" points="480,-764.5 580,-764.5 "/>
<text text-anchor="start" x="488" y="-752.5" font-family="Helvetica,sans-Serif" font-size="10.00" fill="#000000">+ Flags()</text>
<text text-anchor="start" x="488" y="-741.5" font-family="Helvetica,sans-Serif" font-size="10.00" fill="#000000">+ Flags()</text>
<text text-anchor="start" x="488" y="-730.5" font-family="Helvetica,sans-Serif" font-size="10.00" fill="#000000">* no_irq_bfm_t</text>
<text text-anchor="start" x="488" y="-719.5" font-family="Helvetica,sans-Serif" font-size="10.00" fill="#000000">* no_irq()</text>
<text text-anchor="start" x="488" y="-708.5" font-family="Helvetica,sans-Serif" font-size="10.00" fill="#000000">* no_irq()</text>
</a>
</g>
</g>
<!-- Node12&#45;&gt;Node11 -->
<g id="edge10" class="edge">
<title>Node12&#45;&gt;Node11</title>
<path fill="none" stroke="#404040" d="M520.7445,-701.169C517.1249,-679.1395 513.0014,-654.0431 509.4622,-632.5027"/>
<polygon fill="none" stroke="#404040" points="509.4544,-632.4547 504.5345,-627.1827 507.5087,-620.6135 512.4286,-625.8855 509.4544,-632.4547"/>
<text text-anchor="middle" x="529.5" y="-642" font-family="Helvetica,sans-Serif" font-size="10.00" fill="#000000"> +flags</text>
</g>
</g>
</svg>
