<?xml version="1.0" encoding="UTF-8" standalone="no"?>
<!DOCTYPE svg PUBLIC "-//W3C//DTD SVG 1.1//EN"
 "http://www.w3.org/Graphics/SVG/1.1/DTD/svg11.dtd">
<!-- Generated by graphviz version 2.40.1 (20161225.0304)
 -->
<!-- Title: cxx::List_alloc::List_alloc Pages: 1 -->
<svg width="786pt" height="218pt"
 viewBox="0.00 0.00 786.00 218.00" xmlns="http://www.w3.org/2000/svg" xmlns:xlink="http://www.w3.org/1999/xlink">
<g id="graph0" class="graph" transform="scale(1 1) rotate(0) translate(4 214)">
<title>cxx::List_alloc::List_alloc</title>
<polygon fill="#ffffff" stroke="transparent" points="-4,4 -4,-214 782,-214 782,4 -4,4"/>
<!-- Node0 -->
<g id="node1" class="node">
<title>Node0</title>
<polygon fill="#bfbfbf" stroke="#000000" points="0,-90 0,-120 102,-120 102,-90 0,-90"/>
<text text-anchor="start" x="8" y="-108" font-family="Helvetica,sans-Serif" font-size="10.00" fill="#000000">cxx::List_alloc::List</text>
<text text-anchor="middle" x="51" y="-97" font-family="Helvetica,sans-Serif" font-size="10.00" fill="#000000">_alloc</text>
</g>
<!-- Node1 -->
<g id="node2" class="node">
<title>Node1</title>
<g id="a_node2"><a xlink:href="classcxx_1_1List__alloc.html#a4e0c1ba2698a1891f14f7b18dac80f00" target="_top" xlink:title="Allocate a memory block. ">
<polygon fill="#ffffff" stroke="#000000" points="151,-190.5 151,-209.5 258,-209.5 258,-190.5 151,-190.5"/>
<text text-anchor="middle" x="204.5" y="-197.5" font-family="Helvetica,sans-Serif" font-size="10.00" fill="#000000">cxx::List_alloc::alloc</text>
</a>
</g>
</g>
<!-- Node0&#45;&gt;Node1 -->
<g id="edge1" class="edge">
<title>Node0&#45;&gt;Node1</title>
<path fill="none" stroke="#191970" d="M64.2807,-120.0604C80.1832,-137.2015 108.4015,-164.901 138,-181 142.0247,-183.1891 146.3269,-185.1477 150.7346,-186.8959"/>
<polygon fill="#191970" stroke="#191970" points="149.8908,-190.3116 160.4853,-190.3947 152.255,-183.7229 149.8908,-190.3116"/>
</g>
<!-- Node2 -->
<g id="node3" class="node">
<title>Node2</title>
<g id="a_node3"><a xlink:href="classcxx_1_1List__alloc.html#a1b8a24564b209e28166253c4e338f7ba" target="_top" xlink:title="Allocate a memory block of min &lt;= size &lt;= max. ">
<polygon fill="#ffffff" stroke="#000000" points="138,-152.5 138,-171.5 271,-171.5 271,-152.5 138,-152.5"/>
<text text-anchor="middle" x="204.5" y="-159.5" font-family="Helvetica,sans-Serif" font-size="10.00" fill="#000000">cxx::List_alloc::alloc_max</text>
</a>
</g>
</g>
<!-- Node0&#45;&gt;Node2 -->
<g id="edge2" class="edge">
<title>Node0&#45;&gt;Node2</title>
<path fill="none" stroke="#191970" d="M90.3606,-120.0842C105.2641,-125.7551 122.3954,-132.2251 138,-138 147.7556,-141.6103 158.3401,-145.4606 168.1356,-148.9962"/>
<polygon fill="#191970" stroke="#191970" points="167.0136,-152.3121 177.6081,-152.4064 169.3848,-145.7259 167.0136,-152.3121"/>
</g>
<!-- Node7 -->
<g id="node8" class="node">
<title>Node7</title>
<g id="a_node8"><a xlink:href="group__cxx__api.html#ga1d7a566ab5b06016155d693f91a7ee2d" target="_top" xlink:title="Get the maximum of a and b. ">
<polygon fill="#ffffff" stroke="#000000" points="318.5,-114.5 318.5,-133.5 374.5,-133.5 374.5,-114.5 318.5,-114.5"/>
<text text-anchor="middle" x="346.5" y="-121.5" font-family="Helvetica,sans-Serif" font-size="10.00" fill="#000000">cxx::max</text>
</a>
</g>
</g>
<!-- Node0&#45;&gt;Node7 -->
<g id="edge11" class="edge">
<title>Node0&#45;&gt;Node7</title>
<path fill="none" stroke="#191970" d="M102.1348,-108.2879C160.7057,-112.0538 255.3481,-118.1391 308.0112,-121.5253"/>
<polygon fill="#191970" stroke="#191970" points="308.0684,-125.0361 318.2724,-122.185 308.5176,-118.0505 308.0684,-125.0361"/>
</g>
<!-- Node8 -->
<g id="node9" class="node">
<title>Node8</title>
<g id="a_node9"><a xlink:href="classcxx_1_1List__alloc.html#a086c8ed553f575408d7048510561fb0a" target="_top" xlink:title="Get the amount of available memory. ">
<polygon fill="#ffffff" stroke="#000000" points="151,-76.5 151,-95.5 258,-95.5 258,-76.5 151,-76.5"/>
<text text-anchor="middle" x="204.5" y="-83.5" font-family="Helvetica,sans-Serif" font-size="10.00" fill="#000000">cxx::List_alloc::avail</text>
</a>
</g>
</g>
<!-- Node0&#45;&gt;Node8 -->
<g id="edge9" class="edge">
<title>Node0&#45;&gt;Node8</title>
<path fill="none" stroke="#191970" d="M102.1133,-98.6733C114.5003,-97.14 127.8939,-95.4822 140.7824,-93.8869"/>
<polygon fill="#191970" stroke="#191970" points="141.4872,-97.3264 150.9815,-92.6244 140.6273,-90.3794 141.4872,-97.3264"/>
</g>
<!-- Node9 -->
<g id="node10" class="node">
<title>Node9</title>
<g id="a_node10"><a xlink:href="classcxx_1_1List__alloc.html#aec3e78fdc391fd56e161b10c9937e395" target="_top" xlink:title="Return a free memory block to the allocator. ">
<polygon fill="#ffffff" stroke="#000000" points="152.5,-38.5 152.5,-57.5 256.5,-57.5 256.5,-38.5 152.5,-38.5"/>
<text text-anchor="middle" x="204.5" y="-45.5" font-family="Helvetica,sans-Serif" font-size="10.00" fill="#000000">cxx::List_alloc::free</text>
</a>
</g>
</g>
<!-- Node0&#45;&gt;Node9 -->
<g id="edge10" class="edge">
<title>Node0&#45;&gt;Node9</title>
<path fill="none" stroke="#191970" d="M82.8138,-89.8854C99.1078,-82.4578 119.3873,-73.69 138,-67 144.3771,-64.7079 151.1745,-62.5029 157.8968,-60.4582"/>
<polygon fill="#191970" stroke="#191970" points="159.0336,-63.772 167.6346,-57.5854 157.0529,-57.0581 159.0336,-63.772"/>
</g>
<!-- Node10 -->
<g id="node11" class="node">
<title>Node10</title>
<g id="a_node11"><a xlink:href="group__cxx__api.html#ga0bd9662898a7499fcd3feefe594a699b" target="_top" xlink:title="Get the minimum of a and b. ">
<polygon fill="#ffffff" stroke="#000000" points="178,-.5 178,-19.5 231,-19.5 231,-.5 178,-.5"/>
<text text-anchor="middle" x="204.5" y="-7.5" font-family="Helvetica,sans-Serif" font-size="10.00" fill="#000000">cxx::min</text>
</a>
</g>
</g>
<!-- Node0&#45;&gt;Node10 -->
<g id="edge12" class="edge">
<title>Node0&#45;&gt;Node10</title>
<path fill="none" stroke="#191970" d="M64.2807,-89.9396C80.1832,-72.7985 108.4015,-45.099 138,-29 147.2557,-23.9657 157.9795,-20.1503 168.0775,-17.3096"/>
<polygon fill="#191970" stroke="#191970" points="169.077,-20.6665 177.8893,-14.7848 167.3326,-13.8873 169.077,-20.6665"/>
</g>
<!-- Node3 -->
<g id="node4" class="node">
<title>Node3</title>
<g id="a_node4"><a xlink:href="group__l4__memory__api.html#gae876a4c6e0f21b2ecbf17863dc7d11e4" target="_top" xlink:title="Round value up to the next alignment with bits size. ">
<polygon fill="#ffffff" stroke="#000000" points="546,-171.5 546,-190.5 629,-190.5 629,-171.5 546,-171.5"/>
<text text-anchor="middle" x="587.5" y="-178.5" font-family="Helvetica,sans-Serif" font-size="10.00" fill="#000000">l4_round_size</text>
</a>
</g>
</g>
<!-- Node2&#45;&gt;Node3 -->
<g id="edge3" class="edge">
<title>Node2&#45;&gt;Node3</title>
<path fill="none" stroke="#191970" d="M246.1493,-171.5112C264.6727,-175.2764 286.815,-179.145 307,-181 386.4347,-188.3001 479.0582,-186.2581 535.47,-183.8404"/>
<polygon fill="#191970" stroke="#191970" points="535.7377,-187.332 545.5706,-183.3868 535.4236,-180.3391 535.7377,-187.332"/>
</g>
<!-- Node5 -->
<g id="node6" class="node">
<title>Node5</title>
<g id="a_node6"><a xlink:href="group__l4__memory__api.html#ga792959ba1e87fecf90018876f32d7bc9" target="_top" xlink:title="Round an address down to the next lower flex page with size bits. ">
<polygon fill="#ffffff" stroke="#000000" points="307,-152.5 307,-171.5 386,-171.5 386,-152.5 307,-152.5"/>
<text text-anchor="middle" x="346.5" y="-159.5" font-family="Helvetica,sans-Serif" font-size="10.00" fill="#000000">l4_trunc_size</text>
</a>
</g>
</g>
<!-- Node2&#45;&gt;Node5 -->
<g id="edge5" class="edge">
<title>Node2&#45;&gt;Node5</title>
<path fill="none" stroke="#191970" d="M271.342,-162C279.8392,-162 288.4162,-162 296.5837,-162"/>
<polygon fill="#191970" stroke="#191970" points="296.6736,-165.5001 306.6736,-162 296.6735,-158.5001 296.6736,-165.5001"/>
</g>
<!-- Node2&#45;&gt;Node7 -->
<g id="edge8" class="edge">
<title>Node2&#45;&gt;Node7</title>
<path fill="none" stroke="#191970" d="M240.3326,-152.411C261.091,-146.8559 287.2152,-139.8649 308.3545,-134.2079"/>
<polygon fill="#191970" stroke="#191970" points="309.5309,-137.5164 318.2862,-131.5502 307.7213,-130.7543 309.5309,-137.5164"/>
</g>
<!-- Node4 -->
<g id="node5" class="node">
<title>Node4</title>
<g id="a_node5"><a xlink:href="group__l4__memory__api.html#ga2be30f4e5dde3c85d115d2a9c77f6215" target="_top" xlink:title="Determine how many machine words (l4_umword_t) are required to store a buffer of &#39;size&#39; bytes...">
<polygon fill="#ffffff" stroke="#000000" points="665,-171.5 665,-190.5 778,-190.5 778,-171.5 665,-171.5"/>
<text text-anchor="middle" x="721.5" y="-178.5" font-family="Helvetica,sans-Serif" font-size="10.00" fill="#000000">l4_bytes_to_mwords</text>
</a>
</g>
</g>
<!-- Node3&#45;&gt;Node4 -->
<g id="edge4" class="edge">
<title>Node3&#45;&gt;Node4</title>
<path fill="none" stroke="#191970" d="M629.1639,-181C637.2261,-181 645.8622,-181 654.4984,-181"/>
<polygon fill="#191970" stroke="#191970" points="654.6022,-184.5001 664.6021,-181 654.6021,-177.5001 654.6022,-184.5001"/>
</g>
<!-- Node6 -->
<g id="node7" class="node">
<title>Node6</title>
<g id="a_node7"><a xlink:href="group__l4__memory__api.html#ga96e3b2d8e69308aecbb11d1d24f61662" target="_top" xlink:title="Round address up to the next page. ">
<polygon fill="#ffffff" stroke="#000000" points="422,-152.5 422,-171.5 510,-171.5 510,-152.5 422,-152.5"/>
<text text-anchor="middle" x="466" y="-159.5" font-family="Helvetica,sans-Serif" font-size="10.00" fill="#000000">l4_round_page</text>
</a>
</g>
</g>
<!-- Node5&#45;&gt;Node6 -->
<g id="edge6" class="edge">
<title>Node5&#45;&gt;Node6</title>
<path fill="none" stroke="#191970" d="M386.2918,-162C394.4011,-162 403.0645,-162 411.5822,-162"/>
<polygon fill="#191970" stroke="#191970" points="411.8528,-165.5001 421.8527,-162 411.8527,-158.5001 411.8528,-165.5001"/>
</g>
<!-- Node6&#45;&gt;Node3 -->
<g id="edge7" class="edge">
<title>Node6&#45;&gt;Node3</title>
<path fill="none" stroke="#191970" d="M510.208,-168.9132C518.5961,-170.2249 527.4397,-171.6079 536.0297,-172.9512"/>
<polygon fill="#191970" stroke="#191970" points="535.5341,-176.4161 545.9548,-174.5032 536.6156,-169.5001 535.5341,-176.4161"/>
</g>
</g>
</svg>
