<?xml version="1.0" encoding="UTF-8" standalone="no"?>
<!DOCTYPE svg PUBLIC "-//W3C//DTD SVG 1.1//EN"
 "http://www.w3.org/Graphics/SVG/1.1/DTD/svg11.dtd">
<!-- Generated by graphviz version 2.40.1 (20161225.0304)
 -->
<!-- Title: L4vbus::Device::bus_cap Pages: 1 -->
<svg width="312pt" height="274pt"
 viewBox="0.00 0.00 312.00 274.00" xmlns="http://www.w3.org/2000/svg" xmlns:xlink="http://www.w3.org/1999/xlink">
<g id="graph0" class="graph" transform="scale(1 1) rotate(0) translate(4 270)">
<title>L4vbus::Device::bus_cap</title>
<polygon fill="#ffffff" stroke="transparent" points="-4,4 -4,-270 308,-270 308,4 -4,4"/>
<!-- Node1 -->
<g id="node1" class="node">
<title>Node1</title>
<polygon fill="#bfbfbf" stroke="#000000" points="0,-128 0,-147 130,-147 130,-128 0,-128"/>
<text text-anchor="middle" x="65" y="-135" font-family="Helvetica,sans-Serif" font-size="10.00" fill="#000000">L4vbus::Device::bus_cap</text>
</g>
<!-- Node2 -->
<g id="node2" class="node">
<title>Node2</title>
<g id="a_node2"><a xlink:href="classL4vbus_1_1Pci__host__bridge.html#a4441432f00e007ee3a738866238938f0" target="_top" xlink:title="Read from the vPCI configuration space using the PCI root bridge. ">
<polygon fill="#ffffff" stroke="#000000" points="170,-235.5 170,-265.5 300,-265.5 300,-235.5 170,-235.5"/>
<text text-anchor="start" x="178" y="-253.5" font-family="Helvetica,sans-Serif" font-size="10.00" fill="#000000">L4vbus::Pci_host_bridge</text>
<text text-anchor="middle" x="235" y="-242.5" font-family="Helvetica,sans-Serif" font-size="10.00" fill="#000000">::cfg_read</text>
</a>
</g>
</g>
<!-- Node1&#45;&gt;Node2 -->
<g id="edge1" class="edge">
<title>Node1&#45;&gt;Node2</title>
<path fill="none" stroke="#191970" d="M80.6636,-154.5186C99.356,-173.972 132.3318,-205.6752 166,-225.5 172.368,-229.2496 179.3922,-232.5835 186.4486,-235.4975"/>
<polygon fill="#191970" stroke="#191970" points="82.9767,-151.8703 73.5666,-147.0018 77.8868,-156.6759 82.9767,-151.8703"/>
</g>
<!-- Node3 -->
<g id="node3" class="node">
<title>Node3</title>
<g id="a_node3"><a xlink:href="classL4vbus_1_1Pci__dev.html#a20658b5eb70c4773b369a0a3c8c88582" target="_top" xlink:title="Read from the device&#39;s vPCI configuration space. ">
<polygon fill="#ffffff" stroke="#000000" points="166,-197 166,-216 304,-216 304,-197 166,-197"/>
<text text-anchor="middle" x="235" y="-204" font-family="Helvetica,sans-Serif" font-size="10.00" fill="#000000">L4vbus::Pci_dev::cfg_read</text>
</a>
</g>
</g>
<!-- Node1&#45;&gt;Node3 -->
<g id="edge2" class="edge">
<title>Node1&#45;&gt;Node3</title>
<path fill="none" stroke="#191970" d="M90.5339,-151.8423C110.5963,-162.6896 139.4847,-177.3925 166,-187.5 175.2881,-191.0406 185.5094,-194.2238 195.1736,-196.9272"/>
<polygon fill="#191970" stroke="#191970" points="92.163,-148.744 81.7106,-147.0122 88.8017,-154.8842 92.163,-148.744"/>
</g>
<!-- Node4 -->
<g id="node4" class="node">
<title>Node4</title>
<g id="a_node4"><a xlink:href="classL4vbus_1_1Pci__host__bridge.html#ad316f6aeb09ecd36bc7aafa988dd272e" target="_top" xlink:title="Write to the vPCI configuration space using the PCI root bridge. ">
<polygon fill="#ffffff" stroke="#000000" points="170,-147.5 170,-177.5 300,-177.5 300,-147.5 170,-147.5"/>
<text text-anchor="start" x="178" y="-165.5" font-family="Helvetica,sans-Serif" font-size="10.00" fill="#000000">L4vbus::Pci_host_bridge</text>
<text text-anchor="middle" x="235" y="-154.5" font-family="Helvetica,sans-Serif" font-size="10.00" fill="#000000">::cfg_write</text>
</a>
</g>
</g>
<!-- Node1&#45;&gt;Node4 -->
<g id="edge3" class="edge">
<title>Node1&#45;&gt;Node4</title>
<path fill="none" stroke="#191970" d="M139.7143,-148.4874C149.7599,-149.9647 160,-151.4706 169.8622,-152.9209"/>
<polygon fill="#191970" stroke="#191970" points="140.1575,-145.015 129.7547,-147.0227 139.139,-151.9405 140.1575,-145.015"/>
</g>
<!-- Node5 -->
<g id="node5" class="node">
<title>Node5</title>
<g id="a_node5"><a xlink:href="classL4vbus_1_1Pci__dev.html#a1cc8e109638d49502d08484d05c7b244" target="_top" xlink:title="Write to the device&#39;s vPCI configuration space. ">
<polygon fill="#ffffff" stroke="#000000" points="180,-98.5 180,-128.5 290,-128.5 290,-98.5 180,-98.5"/>
<text text-anchor="start" x="188" y="-116.5" font-family="Helvetica,sans-Serif" font-size="10.00" fill="#000000">L4vbus::Pci_dev::cfg</text>
<text text-anchor="middle" x="235" y="-105.5" font-family="Helvetica,sans-Serif" font-size="10.00" fill="#000000">_write</text>
</a>
</g>
</g>
<!-- Node1&#45;&gt;Node5 -->
<g id="edge4" class="edge">
<title>Node1&#45;&gt;Node5</title>
<path fill="none" stroke="#191970" d="M140.3319,-126.8649C153.639,-124.9863 167.2664,-123.0624 179.8866,-121.2807"/>
<polygon fill="#191970" stroke="#191970" points="139.6528,-123.426 130.2402,-128.2896 140.6314,-130.3573 139.6528,-123.426"/>
</g>
<!-- Node6 -->
<g id="node6" class="node">
<title>Node6</title>
<g id="a_node6"><a xlink:href="classL4vbus_1_1Pci__host__bridge.html#a4f405f52b078609d885e5331922447f1" target="_top" xlink:title="Enable PCI interrupt for a specific device using the PCI root bridge. ">
<polygon fill="#ffffff" stroke="#000000" points="170,-49.5 170,-79.5 300,-79.5 300,-49.5 170,-49.5"/>
<text text-anchor="start" x="178" y="-67.5" font-family="Helvetica,sans-Serif" font-size="10.00" fill="#000000">L4vbus::Pci_host_bridge</text>
<text text-anchor="middle" x="235" y="-56.5" font-family="Helvetica,sans-Serif" font-size="10.00" fill="#000000">::irq_enable</text>
</a>
</g>
</g>
<!-- Node1&#45;&gt;Node6 -->
<g id="edge5" class="edge">
<title>Node1&#45;&gt;Node6</title>
<path fill="none" stroke="#191970" d="M92.9369,-123.3339C113.0335,-113.3632 140.9057,-99.9806 166,-89.5 174.1123,-86.1119 182.8643,-82.734 191.3217,-79.607"/>
<polygon fill="#191970" stroke="#191970" points="91.1241,-120.327 83.7422,-127.9269 94.2523,-126.5892 91.1241,-120.327"/>
</g>
<!-- Node7 -->
<g id="node7" class="node">
<title>Node7</title>
<g id="a_node7"><a xlink:href="classL4vbus_1_1Pci__dev.html#ace3784b8e44e44dc14c1cee121500b89" target="_top" xlink:title="Enable the device&#39;s PCI interrupt. ">
<polygon fill="#ffffff" stroke="#000000" points="181,-.5 181,-30.5 289,-30.5 289,-.5 181,-.5"/>
<text text-anchor="start" x="189" y="-18.5" font-family="Helvetica,sans-Serif" font-size="10.00" fill="#000000">L4vbus::Pci_dev::irq</text>
<text text-anchor="middle" x="235" y="-7.5" font-family="Helvetica,sans-Serif" font-size="10.00" fill="#000000">_enable</text>
</a>
</g>
</g>
<!-- Node1&#45;&gt;Node7 -->
<g id="edge6" class="edge">
<title>Node1&#45;&gt;Node7</title>
<path fill="none" stroke="#191970" d="M79.2114,-119.9269C97.3425,-98.5224 130.6179,-62.5059 166,-40.5 172.0588,-36.7317 178.7687,-33.4158 185.5548,-30.5346"/>
<polygon fill="#191970" stroke="#191970" points="76.3127,-117.9389 72.6137,-127.867 81.6966,-122.4125 76.3127,-117.9389"/>
</g>
</g>
</svg>
