<?xml version="1.0" encoding="UTF-8" standalone="no"?>
<!DOCTYPE svg PUBLIC "-//W3C//DTD SVG 1.1//EN"
 "http://www.w3.org/Graphics/SVG/1.1/DTD/svg11.dtd">
<!-- Generated by graphviz version 2.40.1 (20161225.0304)
 -->
<!-- Title: L4::Out_of_memory Pages: 1 -->
<svg width="124pt" height="447pt"
 viewBox="0.00 0.00 124.00 447.00" xmlns="http://www.w3.org/2000/svg" xmlns:xlink="http://www.w3.org/1999/xlink">
<g id="graph0" class="graph" transform="scale(1 1) rotate(0) translate(4 443)">
<title>L4::Out_of_memory</title>
<polygon fill="#ffffff" stroke="transparent" points="-4,4 -4,-443 120,-443 120,4 -4,4"/>
<!-- Node4 -->
<g id="node1" class="node">
<title>Node4</title>
<polygon fill="#bfbfbf" stroke="#000000" points=".5,-.5 .5,-68.5 115.5,-68.5 115.5,-.5 .5,-.5"/>
<text text-anchor="middle" x="58" y="-56.5" font-family="Helvetica,sans-Serif" font-size="10.00" fill="#000000">L4::Out_of_memory</text>
<polyline fill="none" stroke="#000000" points=".5,-49.5 115.5,-49.5 "/>
<text text-anchor="middle" x="58" y="-37.5" font-family="Helvetica,sans-Serif" font-size="10.00" fill="#000000"> </text>
<polyline fill="none" stroke="#000000" points=".5,-30.5 115.5,-30.5 "/>
<text text-anchor="start" x="8.5" y="-18.5" font-family="Helvetica,sans-Serif" font-size="10.00" fill="#000000">+ Out_of_memory()</text>
<text text-anchor="start" x="8.5" y="-7.5" font-family="Helvetica,sans-Serif" font-size="10.00" fill="#000000">+ ~Out_of_memory()</text>
</g>
<!-- Node5 -->
<g id="node2" class="node">
<title>Node5</title>
<g id="a_node2"><a xlink:href="classL4_1_1Runtime__error.html" target="_top" xlink:title="Exception for an abstract runtime error. ">
<polygon fill="#ffffff" stroke="#000000" points="4.5,-105.5 4.5,-206.5 111.5,-206.5 111.5,-105.5 4.5,-105.5"/>
<text text-anchor="middle" x="58" y="-194.5" font-family="Helvetica,sans-Serif" font-size="10.00" fill="#000000">L4::Runtime_error</text>
<polyline fill="none" stroke="#000000" points="4.5,-187.5 111.5,-187.5 "/>
<text text-anchor="middle" x="58" y="-175.5" font-family="Helvetica,sans-Serif" font-size="10.00" fill="#000000"> </text>
<polyline fill="none" stroke="#000000" points="4.5,-168.5 111.5,-168.5 "/>
<text text-anchor="start" x="12.5" y="-156.5" font-family="Helvetica,sans-Serif" font-size="10.00" fill="#000000">+ Runtime_error()</text>
<text text-anchor="start" x="12.5" y="-145.5" font-family="Helvetica,sans-Serif" font-size="10.00" fill="#000000">+ str()</text>
<text text-anchor="start" x="12.5" y="-134.5" font-family="Helvetica,sans-Serif" font-size="10.00" fill="#000000">+ extra_str()</text>
<text text-anchor="start" x="12.5" y="-123.5" font-family="Helvetica,sans-Serif" font-size="10.00" fill="#000000">+ ~Runtime_error()</text>
<text text-anchor="start" x="12.5" y="-112.5" font-family="Helvetica,sans-Serif" font-size="10.00" fill="#000000">+ err_no()</text>
</a>
</g>
</g>
<!-- Node5&#45;&gt;Node4 -->
<g id="edge1" class="edge">
<title>Node5&#45;&gt;Node4</title>
<path fill="none" stroke="#191970" d="M58,-94.9589C58,-85.8735 58,-76.7967 58,-68.5415"/>
<polygon fill="none" stroke="#191970" points="54.5001,-95.177 58,-105.1771 61.5001,-95.1771 54.5001,-95.177"/>
</g>
<!-- Node6 -->
<g id="node3" class="node">
<title>Node6</title>
<g id="a_node3"><a xlink:href="classL4_1_1Base__exception.html" target="_top" xlink:title="Base class for all exceptions, thrown by the L4Re framework. ">
<polygon fill="#ffffff" stroke="#000000" points="0,-243.5 0,-322.5 116,-322.5 116,-243.5 0,-243.5"/>
<text text-anchor="middle" x="58" y="-310.5" font-family="Helvetica,sans-Serif" font-size="10.00" fill="#000000">L4::Base_exception</text>
<polyline fill="none" stroke="#000000" points="0,-303.5 116,-303.5 "/>
<text text-anchor="middle" x="58" y="-291.5" font-family="Helvetica,sans-Serif" font-size="10.00" fill="#000000"> </text>
<polyline fill="none" stroke="#000000" points="0,-284.5 116,-284.5 "/>
<text text-anchor="start" x="8" y="-272.5" font-family="Helvetica,sans-Serif" font-size="10.00" fill="#000000">+ str()</text>
<text text-anchor="start" x="8" y="-261.5" font-family="Helvetica,sans-Serif" font-size="10.00" fill="#000000">+ ~Base_exception()</text>
<text text-anchor="start" x="8" y="-250.5" font-family="Helvetica,sans-Serif" font-size="10.00" fill="#000000"># Base_exception()</text>
</a>
</g>
</g>
<!-- Node6&#45;&gt;Node5 -->
<g id="edge2" class="edge">
<title>Node6&#45;&gt;Node5</title>
<path fill="none" stroke="#191970" d="M58,-232.9396C58,-224.3816 58,-215.4823 58,-206.9026"/>
<polygon fill="none" stroke="#191970" points="54.5001,-233.1648 58,-243.1649 61.5001,-233.1649 54.5001,-233.1648"/>
</g>
<!-- Node7 -->
<g id="node4" class="node">
<title>Node7</title>
<g id="a_node4"><a xlink:href="classL4_1_1Exception__tracer.html" target="_top" xlink:title="Back&#45;trace support for exceptions. ">
<polygon fill="#ffffff" stroke="#000000" points="1.5,-359.5 1.5,-438.5 114.5,-438.5 114.5,-359.5 1.5,-359.5"/>
<text text-anchor="middle" x="58" y="-426.5" font-family="Helvetica,sans-Serif" font-size="10.00" fill="#000000">L4::Exception_tracer</text>
<polyline fill="none" stroke="#000000" points="1.5,-419.5 114.5,-419.5 "/>
<text text-anchor="middle" x="58" y="-407.5" font-family="Helvetica,sans-Serif" font-size="10.00" fill="#000000"> </text>
<polyline fill="none" stroke="#000000" points="1.5,-400.5 114.5,-400.5 "/>
<text text-anchor="start" x="9.5" y="-388.5" font-family="Helvetica,sans-Serif" font-size="10.00" fill="#000000">+ pc_array()</text>
<text text-anchor="start" x="9.5" y="-377.5" font-family="Helvetica,sans-Serif" font-size="10.00" fill="#000000">+ frame_count()</text>
<text text-anchor="start" x="9.5" y="-366.5" font-family="Helvetica,sans-Serif" font-size="10.00" fill="#000000"># Exception_tracer()</text>
</a>
</g>
</g>
<!-- Node7&#45;&gt;Node6 -->
<g id="edge3" class="edge">
<title>Node7&#45;&gt;Node6</title>
<path fill="none" stroke="#191970" d="M58,-349.2163C58,-340.394 58,-331.3127 58,-322.8116"/>
<polygon fill="none" stroke="#191970" points="54.5001,-349.4038 58,-359.4038 61.5001,-349.4039 54.5001,-349.4038"/>
</g>
</g>
</svg>
