<?xml version="1.0" encoding="UTF-8" standalone="no"?>
<!DOCTYPE svg PUBLIC "-//W3C//DTD SVG 1.1//EN"
 "http://www.w3.org/Graphics/SVG/1.1/DTD/svg11.dtd">
<!-- Generated by graphviz version 2.40.1 (20161225.0304)
 -->
<!-- Title: L4::Server_object::dispatch Pages: 1 -->
<svg width="396pt" height="116pt"
 viewBox="0.00 0.00 396.00 116.00" xmlns="http://www.w3.org/2000/svg" xmlns:xlink="http://www.w3.org/1999/xlink">
<g id="graph0" class="graph" transform="scale(1 1) rotate(0) translate(4 112)">
<title>L4::Server_object::dispatch</title>
<polygon fill="#ffffff" stroke="transparent" points="-4,4 -4,-112 392,-112 392,4 -4,4"/>
<!-- Node3 -->
<g id="node1" class="node">
<title>Node3</title>
<polygon fill="#bfbfbf" stroke="#000000" points="0,-39 0,-69 103,-69 103,-39 0,-39"/>
<text text-anchor="start" x="8" y="-57" font-family="Helvetica,sans-Serif" font-size="10.00" fill="#000000">L4::Server_object::</text>
<text text-anchor="middle" x="51.5" y="-46" font-family="Helvetica,sans-Serif" font-size="10.00" fill="#000000">dispatch</text>
</g>
<!-- Node4 -->
<g id="node2" class="node">
<title>Node4</title>
<g id="a_node2"><a xlink:href="namespaceL4.html#ade8c6f7c3471209d45401e564d3fd3b7" target="_top" xlink:title="static_cast for capabilities. ">
<polygon fill="#ffffff" stroke="#000000" points="156,-88.5 156,-107.5 232,-107.5 232,-88.5 156,-88.5"/>
<text text-anchor="middle" x="194" y="-95.5" font-family="Helvetica,sans-Serif" font-size="10.00" fill="#000000">L4::cap_cast</text>
</a>
</g>
</g>
<!-- Node3&#45;&gt;Node4 -->
<g id="edge1" class="edge">
<title>Node3&#45;&gt;Node4</title>
<path fill="none" stroke="#191970" d="M100.1419,-69.0192C117.3684,-74.3383 136.5619,-80.2647 153.081,-85.3654"/>
<polygon fill="#191970" stroke="#191970" points="152.3919,-88.8156 162.9794,-88.4217 154.4572,-82.1272 152.3919,-88.8156"/>
</g>
<!-- Node6 -->
<g id="node4" class="node">
<title>Node6</title>
<g id="a_node4"><a xlink:href="classL4_1_1Server__object.html#a505f2d9c6fc2794613243764095b0cbe" target="_top" xlink:title="The abstract handler for client requests to the object. ">
<polygon fill="#ffffff" stroke="#000000" points="142.5,-39 142.5,-69 245.5,-69 245.5,-39 142.5,-39"/>
<text text-anchor="start" x="150.5" y="-57" font-family="Helvetica,sans-Serif" font-size="10.00" fill="#000000">L4::Server_object::</text>
<text text-anchor="middle" x="194" y="-46" font-family="Helvetica,sans-Serif" font-size="10.00" fill="#000000">dispatch</text>
</a>
</g>
</g>
<!-- Node3&#45;&gt;Node6 -->
<g id="edge3" class="edge">
<title>Node3&#45;&gt;Node6</title>
<path fill="none" stroke="#191970" d="M103.3489,-54C112.6994,-54 122.5324,-54 132.1341,-54"/>
<polygon fill="#191970" stroke="#191970" points="132.4284,-57.5001 142.4283,-54 132.4283,-50.5001 132.4284,-57.5001"/>
</g>
<!-- Node7 -->
<g id="node5" class="node">
<title>Node7</title>
<g id="a_node5"><a xlink:href="structL4_1_1Epiface.html#a0d454b9446bdf9e317b09574a5155fe0" target="_top" xlink:title="Get the capability to the kernel object belonging to this object. ">
<polygon fill="#ffffff" stroke="#000000" points="139,-.5 139,-19.5 249,-19.5 249,-.5 139,-.5"/>
<text text-anchor="middle" x="194" y="-7.5" font-family="Helvetica,sans-Serif" font-size="10.00" fill="#000000">L4::Epiface::obj_cap</text>
</a>
</g>
</g>
<!-- Node3&#45;&gt;Node7 -->
<g id="edge4" class="edge">
<title>Node3&#45;&gt;Node7</title>
<path fill="none" stroke="#191970" d="M100.1419,-38.9808C117.3684,-33.6617 136.5619,-27.7353 153.081,-22.6346"/>
<polygon fill="#191970" stroke="#191970" points="154.4572,-25.8728 162.9794,-19.5783 152.3919,-19.1844 154.4572,-25.8728"/>
</g>
<!-- Node5 -->
<g id="node3" class="node">
<title>Node5</title>
<g id="a_node3"><a xlink:href="classL4_1_1Cap__base.html#a90ff089ca2442b128c2b2b0e1c22c6d7" target="_top" xlink:title="Return capability selector. ">
<polygon fill="#ffffff" stroke="#000000" points="285,-88.5 285,-107.5 388,-107.5 388,-88.5 285,-88.5"/>
<text text-anchor="middle" x="336.5" y="-95.5" font-family="Helvetica,sans-Serif" font-size="10.00" fill="#000000">L4::Cap_base::cap</text>
</a>
</g>
</g>
<!-- Node4&#45;&gt;Node5 -->
<g id="edge2" class="edge">
<title>Node4&#45;&gt;Node5</title>
<path fill="none" stroke="#191970" d="M232.1874,-98C245.19,-98 260.0802,-98 274.4613,-98"/>
<polygon fill="#191970" stroke="#191970" points="274.8087,-101.5001 284.8087,-98 274.8086,-94.5001 274.8087,-101.5001"/>
</g>
</g>
</svg>
