<?xml version="1.0" encoding="UTF-8" standalone="no"?>
<!DOCTYPE svg PUBLIC "-//W3C//DTD SVG 1.1//EN"
 "http://www.w3.org/Graphics/SVG/1.1/DTD/svg11.dtd">
<!-- Generated by graphviz version 2.40.1 (20161225.0304)
 -->
<!-- Title: L4::Irq_eoi::unmask Pages: 1 -->
<svg width="237pt" height="104pt"
 viewBox="0.00 0.00 237.00 104.00" xmlns="http://www.w3.org/2000/svg" xmlns:xlink="http://www.w3.org/1999/xlink">
<g id="graph0" class="graph" transform="scale(1 1) rotate(0) translate(4 100)">
<title>L4::Irq_eoi::unmask</title>
<polygon fill="#ffffff" stroke="transparent" points="-4,4 -4,-100 233,-100 233,4 -4,4"/>
<!-- Node1 -->
<g id="node1" class="node">
<title>Node1</title>
<polygon fill="#bfbfbf" stroke="#000000" points="0,-38.5 0,-57.5 107,-57.5 107,-38.5 0,-38.5"/>
<text text-anchor="middle" x="53.5" y="-45.5" font-family="Helvetica,sans-Serif" font-size="10.00" fill="#000000">L4::Irq_eoi::unmask</text>
</g>
<!-- Node2 -->
<g id="node2" class="node">
<title>Node2</title>
<g id="a_node2"><a xlink:href="classL4_1_1Icu.html#ab58aa015a5216a0dece5d85089b42aaa" target="_top" xlink:title="Mask an IRQ line. ">
<polygon fill="#ffffff" stroke="#000000" points="148,-76.5 148,-95.5 224,-95.5 224,-76.5 148,-76.5"/>
<text text-anchor="middle" x="186" y="-83.5" font-family="Helvetica,sans-Serif" font-size="10.00" fill="#000000">L4::Icu::mask</text>
</a>
</g>
</g>
<!-- Node1&#45;&gt;Node2 -->
<g id="edge1" class="edge">
<title>Node1&#45;&gt;Node2</title>
<path fill="none" stroke="#191970" d="M96.7039,-60.3906C114.8492,-65.5945 135.6294,-71.5541 152.5754,-76.4141"/>
<polygon fill="#191970" stroke="#191970" points="97.5127,-56.9815 86.9353,-57.589 95.5829,-63.7102 97.5127,-56.9815"/>
</g>
<!-- Node3 -->
<g id="node3" class="node">
<title>Node3</title>
<g id="a_node3"><a xlink:href="classL4_1_1Irq.html#a9719b8fca30723b52981bed686764901" target="_top" xlink:title="Unmask IRQ. ">
<polygon fill="#ffffff" stroke="#000000" points="143,-38.5 143,-57.5 229,-57.5 229,-38.5 143,-38.5"/>
<text text-anchor="middle" x="186" y="-45.5" font-family="Helvetica,sans-Serif" font-size="10.00" fill="#000000">L4::Irq::unmask</text>
</a>
</g>
</g>
<!-- Node1&#45;&gt;Node3 -->
<g id="edge2" class="edge">
<title>Node1&#45;&gt;Node3</title>
<path fill="none" stroke="#191970" d="M117.1703,-48C125.8787,-48 134.6466,-48 142.8709,-48"/>
<polygon fill="#191970" stroke="#191970" points="117.0109,-44.5001 107.0109,-48 117.0109,-51.5001 117.0109,-44.5001"/>
</g>
<!-- Node4 -->
<g id="node4" class="node">
<title>Node4</title>
<g id="a_node4"><a xlink:href="classL4_1_1Irq.html#a261be50ec061d893f96b9193af8f393d" target="_top" xlink:title="Unmask IRQ and (open) wait for any message. ">
<polygon fill="#ffffff" stroke="#000000" points="151.5,-.5 151.5,-19.5 220.5,-19.5 220.5,-.5 151.5,-.5"/>
<text text-anchor="middle" x="186" y="-7.5" font-family="Helvetica,sans-Serif" font-size="10.00" fill="#000000">L4::Irq::wait</text>
</a>
</g>
</g>
<!-- Node1&#45;&gt;Node4 -->
<g id="edge3" class="edge">
<title>Node1&#45;&gt;Node4</title>
<path fill="none" stroke="#191970" d="M96.7039,-35.6094C114.8492,-30.4055 135.6294,-24.4459 152.5754,-19.5859"/>
<polygon fill="#191970" stroke="#191970" points="95.5829,-32.2898 86.9353,-38.411 97.5127,-39.0185 95.5829,-32.2898"/>
</g>
</g>
</svg>
