<?xml version="1.0" encoding="UTF-8" standalone="no"?>
<!DOCTYPE svg PUBLIC "-//W3C//DTD SVG 1.1//EN"
 "http://www.w3.org/Graphics/SVG/1.1/DTD/svg11.dtd">
<!-- Generated by graphviz version 2.40.1 (20161225.0304)
 -->
<!-- Title: L4Re::Env::env Pages: 1 -->
<svg width="556pt" height="78pt"
 viewBox="0.00 0.00 556.00 77.50" xmlns="http://www.w3.org/2000/svg" xmlns:xlink="http://www.w3.org/1999/xlink">
<g id="graph0" class="graph" transform="scale(1 1) rotate(0) translate(4 73.5)">
<title>L4Re::Env::env</title>
<polygon fill="#ffffff" stroke="transparent" points="-4,4 -4,-73.5 552,-73.5 552,4 -4,4"/>
<!-- Node1 -->
<g id="node1" class="node">
<title>Node1</title>
<polygon fill="#bfbfbf" stroke="#000000" points="0,-22.5 0,-41.5 86,-41.5 86,-22.5 0,-22.5"/>
<text text-anchor="middle" x="43" y="-29.5" font-family="Helvetica,sans-Serif" font-size="10.00" fill="#000000">L4Re::Env::env</text>
</g>
<!-- Node2 -->
<g id="node2" class="node">
<title>Node2</title>
<g id="a_node2"><a xlink:href="classL4virtio_1_1Svr_1_1Dev__config.html#a663b81f49e6ce03f9b7e136d6646bf89" target="_top" xlink:title="Create a L4&#45;Virtio config data space. ">
<polygon fill="#ffffff" stroke="#000000" points="128,-39 128,-69 237,-69 237,-39 128,-39"/>
<text text-anchor="start" x="136" y="-57" font-family="Helvetica,sans-Serif" font-size="10.00" fill="#000000">L4virtio::Svr::Dev</text>
<text text-anchor="middle" x="182.5" y="-46" font-family="Helvetica,sans-Serif" font-size="10.00" fill="#000000">_config::Dev_config</text>
</a>
</g>
</g>
<!-- Node1&#45;&gt;Node2 -->
<g id="edge1" class="edge">
<title>Node1&#45;&gt;Node2</title>
<path fill="none" stroke="#191970" d="M96.4497,-40.4293C106.7279,-42.0503 117.5062,-43.7501 127.8226,-45.377"/>
<polygon fill="#191970" stroke="#191970" points="96.7972,-36.941 86.374,-38.8403 95.7066,-43.8555 96.7972,-36.941"/>
</g>
<!-- Node5 -->
<g id="node5" class="node">
<title>Node5</title>
<g id="a_node5"><a xlink:href="classL4vcpu_1_1Vcpu.html#a8b80a393ef89fe4b654d957bc61a046a" target="_top" xlink:title="Set vCPU entry instruction pointer. ">
<polygon fill="#ffffff" stroke="#000000" points="122,-.5 122,-19.5 243,-19.5 243,-.5 122,-.5"/>
<text text-anchor="middle" x="182.5" y="-7.5" font-family="Helvetica,sans-Serif" font-size="10.00" fill="#000000">L4vcpu::Vcpu::entry_ip</text>
</a>
</g>
</g>
<!-- Node1&#45;&gt;Node5 -->
<g id="edge4" class="edge">
<title>Node1&#45;&gt;Node5</title>
<path fill="none" stroke="#191970" d="M96.4615,-23.5688C104.8976,-22.2384 113.6705,-20.8548 122.2481,-19.5021"/>
<polygon fill="#191970" stroke="#191970" points="95.7066,-20.1445 86.374,-25.1597 96.7972,-27.059 95.7066,-20.1445"/>
</g>
<!-- Node3 -->
<g id="node3" class="node">
<title>Node3</title>
<g id="a_node3"><a xlink:href="classL4virtio_1_1Svr_1_1Dev__config.html#af87ff434ac162e5843c92ff76f21d24b" target="_top" xlink:title="Return the offset into the config dataspace where the device configuration starts. ">
<polygon fill="#ffffff" stroke="#000000" points="279,-39 279,-69 378,-69 378,-39 279,-39"/>
<text text-anchor="start" x="287" y="-57" font-family="Helvetica,sans-Serif" font-size="10.00" fill="#000000">L4virtio::Svr::Dev</text>
<text text-anchor="middle" x="328.5" y="-46" font-family="Helvetica,sans-Serif" font-size="10.00" fill="#000000">_config::ds_offset</text>
</a>
</g>
</g>
<!-- Node2&#45;&gt;Node3 -->
<g id="edge2" class="edge">
<title>Node2&#45;&gt;Node3</title>
<path fill="none" stroke="#191970" d="M247.2863,-54C257.8269,-54 268.5988,-54 278.708,-54"/>
<polygon fill="#191970" stroke="#191970" points="247.2804,-50.5001 237.2804,-54 247.2804,-57.5001 247.2804,-50.5001"/>
</g>
<!-- Node4 -->
<g id="node4" class="node">
<title>Node4</title>
<g id="a_node4"><a xlink:href="classL4virtio_1_1Svr_1_1Device__t.html#a3fa20bf911056f0d03c8274982b1e167" target="_top" xlink:title="Get the memory region list used for this device. ">
<polygon fill="#ffffff" stroke="#000000" points="414,-39 414,-69 548,-69 548,-39 414,-39"/>
<text text-anchor="start" x="422" y="-57" font-family="Helvetica,sans-Serif" font-size="10.00" fill="#000000">L4virtio::Svr::Device</text>
<text text-anchor="middle" x="481" y="-46" font-family="Helvetica,sans-Serif" font-size="10.00" fill="#000000">_t&lt; Ds_data &gt;::mem_info</text>
</a>
</g>
</g>
<!-- Node3&#45;&gt;Node4 -->
<g id="edge3" class="edge">
<title>Node3&#45;&gt;Node4</title>
<path fill="none" stroke="#191970" d="M388.1699,-54C396.6384,-54 405.3937,-54 413.9899,-54"/>
<polygon fill="#191970" stroke="#191970" points="388.0124,-50.5001 378.0124,-54 388.0123,-57.5001 388.0124,-50.5001"/>
</g>
</g>
</svg>
