<?xml version="1.0" encoding="UTF-8" standalone="no"?>
<!DOCTYPE svg PUBLIC "-//W3C//DTD SVG 1.1//EN"
 "http://www.w3.org/Graphics/SVG/1.1/DTD/svg11.dtd">
<!-- Generated by graphviz version 2.40.1 (20161225.0304)
 -->
<!-- Title: cxx::Weak_ref&lt; T &gt; Pages: 1 -->
<svg width="160pt" height="515pt"
 viewBox="0.00 0.00 159.50 515.00" xmlns="http://www.w3.org/2000/svg" xmlns:xlink="http://www.w3.org/1999/xlink">
<g id="graph0" class="graph" transform="scale(1 1) rotate(0) translate(4 511)">
<title>cxx::Weak_ref&lt; T &gt;</title>
<polygon fill="#ffffff" stroke="transparent" points="-4,4 -4,-511 155.5,-511 155.5,4 -4,4"/>
<!-- Node4 -->
<g id="node1" class="node">
<title>Node4</title>
<polygon fill="#bfbfbf" stroke="#000000" points="2,-.5 2,-145.5 109,-145.5 109,-.5 2,-.5"/>
<text text-anchor="middle" x="55.5" y="-133.5" font-family="Helvetica,sans-Serif" font-size="10.00" fill="#000000">cxx::Weak_ref&lt; T &gt;</text>
<polyline fill="none" stroke="#000000" points="2,-126.5 109,-126.5 "/>
<text text-anchor="middle" x="55.5" y="-114.5" font-family="Helvetica,sans-Serif" font-size="10.00" fill="#000000"> </text>
<polyline fill="none" stroke="#000000" points="2,-107.5 109,-107.5 "/>
<text text-anchor="start" x="10" y="-95.5" font-family="Helvetica,sans-Serif" font-size="10.00" fill="#000000">+ get()</text>
<text text-anchor="start" x="10" y="-84.5" font-family="Helvetica,sans-Serif" font-size="10.00" fill="#000000">+ reset()</text>
<text text-anchor="start" x="10" y="-73.5" font-family="Helvetica,sans-Serif" font-size="10.00" fill="#000000">+ Weak_ref()</text>
<text text-anchor="start" x="10" y="-62.5" font-family="Helvetica,sans-Serif" font-size="10.00" fill="#000000">+ ~Weak_ref()</text>
<text text-anchor="start" x="10" y="-51.5" font-family="Helvetica,sans-Serif" font-size="10.00" fill="#000000">+ operator=()</text>
<text text-anchor="start" x="10" y="-40.5" font-family="Helvetica,sans-Serif" font-size="10.00" fill="#000000">+ Weak_ref()</text>
<text text-anchor="start" x="10" y="-29.5" font-family="Helvetica,sans-Serif" font-size="10.00" fill="#000000">+ operator=()</text>
<text text-anchor="start" x="10" y="-18.5" font-family="Helvetica,sans-Serif" font-size="10.00" fill="#000000">+ operator*()</text>
<text text-anchor="start" x="10" y="-7.5" font-family="Helvetica,sans-Serif" font-size="10.00" fill="#000000">+ operator&#45;&gt;()</text>
</g>
<!-- Node5 -->
<g id="node2" class="node">
<title>Node5</title>
<g id="a_node2"><a xlink:href="classcxx_1_1Weak__ref__base.html" target="_top" xlink:title="Generic (base) weak reference to some object. ">
<polygon fill="#ffffff" stroke="#000000" points="0,-183.5 0,-262.5 111,-262.5 111,-183.5 0,-183.5"/>
<text text-anchor="middle" x="55.5" y="-250.5" font-family="Helvetica,sans-Serif" font-size="10.00" fill="#000000">cxx::Weak_ref_base</text>
<polyline fill="none" stroke="#000000" points="0,-243.5 111,-243.5 "/>
<text text-anchor="start" x="8" y="-231.5" font-family="Helvetica,sans-Serif" font-size="10.00" fill="#000000"># _obj</text>
<polyline fill="none" stroke="#000000" points="0,-224.5 111,-224.5 "/>
<text text-anchor="start" x="8" y="-212.5" font-family="Helvetica,sans-Serif" font-size="10.00" fill="#000000">+ operator bool()</text>
<text text-anchor="start" x="8" y="-201.5" font-family="Helvetica,sans-Serif" font-size="10.00" fill="#000000"># Weak_ref_base()</text>
<text text-anchor="start" x="8" y="-190.5" font-family="Helvetica,sans-Serif" font-size="10.00" fill="#000000"># reset_hard()</text>
</a>
</g>
</g>
<!-- Node5&#45;&gt;Node4 -->
<g id="edge1" class="edge">
<title>Node5&#45;&gt;Node4</title>
<path fill="none" stroke="#191970" d="M55.5,-173.1493C55.5,-164.3575 55.5,-155.0443 55.5,-145.7764"/>
<polygon fill="none" stroke="#191970" points="52.0001,-173.1965 55.5,-183.1966 59.0001,-173.1966 52.0001,-173.1965"/>
</g>
<!-- Node6 -->
<g id="node3" class="node">
<title>Node6</title>
<g id="a_node3"><a xlink:href="classcxx_1_1H__list__item__t.html" target="_top" xlink:title="{cxx::H_list_item_t\l\&lt; Weak_ref_base \&gt;\n||+ H_list_item_t()\l+ ~H_list_item_t()\l}">
<polygon fill="#ffffff" stroke="#000000" points="1,-300.5 1,-379.5 110,-379.5 110,-300.5 1,-300.5"/>
<text text-anchor="start" x="9" y="-367.5" font-family="Helvetica,sans-Serif" font-size="10.00" fill="#000000">cxx::H_list_item_t</text>
<text text-anchor="middle" x="55.5" y="-356.5" font-family="Helvetica,sans-Serif" font-size="10.00" fill="#000000">&lt; Weak_ref_base &gt;</text>
<polyline fill="none" stroke="#000000" points="1,-349.5 110,-349.5 "/>
<text text-anchor="middle" x="55.5" y="-337.5" font-family="Helvetica,sans-Serif" font-size="10.00" fill="#000000"> </text>
<polyline fill="none" stroke="#000000" points="1,-330.5 110,-330.5 "/>
<text text-anchor="start" x="9" y="-318.5" font-family="Helvetica,sans-Serif" font-size="10.00" fill="#000000">+ H_list_item_t()</text>
<text text-anchor="start" x="9" y="-307.5" font-family="Helvetica,sans-Serif" font-size="10.00" fill="#000000">+ ~H_list_item_t()</text>
</a>
</g>
</g>
<!-- Node6&#45;&gt;Node5 -->
<g id="edge2" class="edge">
<title>Node6&#45;&gt;Node5</title>
<path fill="none" stroke="#191970" d="M55.5,-290.1578C55.5,-280.9409 55.5,-271.4308 55.5,-262.5701"/>
<polygon fill="none" stroke="#191970" points="52.0001,-290.3891 55.5,-300.3891 59.0001,-290.3892 52.0001,-290.3891"/>
</g>
<!-- Node7 -->
<g id="node4" class="node">
<title>Node7</title>
<g id="a_node4"><a xlink:href="classcxx_1_1H__list__item__t.html" target="_top" xlink:title="Basic element type for a double&#45;linked H_list. ">
<polygon fill="#ffffff" stroke="#000000" points="5,-427.5 5,-506.5 106,-506.5 106,-427.5 5,-427.5"/>
<text text-anchor="start" x="13" y="-494.5" font-family="Helvetica,sans-Serif" font-size="10.00" fill="#000000">cxx::H_list_item_t</text>
<text text-anchor="middle" x="55.5" y="-483.5" font-family="Helvetica,sans-Serif" font-size="10.00" fill="#000000">&lt; ELEM_TYPE &gt;</text>
<polyline fill="none" stroke="#000000" points="5,-476.5 106,-476.5 "/>
<text text-anchor="middle" x="55.5" y="-464.5" font-family="Helvetica,sans-Serif" font-size="10.00" fill="#000000"> </text>
<polyline fill="none" stroke="#000000" points="5,-457.5 106,-457.5 "/>
<text text-anchor="start" x="13" y="-445.5" font-family="Helvetica,sans-Serif" font-size="10.00" fill="#000000">+ H_list_item_t()</text>
<text text-anchor="start" x="13" y="-434.5" font-family="Helvetica,sans-Serif" font-size="10.00" fill="#000000">+ ~H_list_item_t()</text>
</a>
</g>
</g>
<!-- Node7&#45;&gt;Node6 -->
<g id="edge3" class="edge">
<title>Node7&#45;&gt;Node6</title>
<path fill="none" stroke="#ffa500" d="M55.5,-416.9789C55.5,-404.5999 55.5,-391.5045 55.5,-379.6938"/>
<polygon fill="#ffa500" stroke="#ffa500" points="52.0001,-417.1648 55.5,-427.1649 59.0001,-417.1649 52.0001,-417.1648"/>
<text text-anchor="middle" x="103.5" y="-401" font-family="Helvetica,sans-Serif" font-size="10.00" fill="#000000"> &lt; Weak_ref_base &gt;</text>
</g>
</g>
</svg>
