<?xml version="1.0" encoding="UTF-8" standalone="no"?>
<!DOCTYPE svg PUBLIC "-//W3C//DTD SVG 1.1//EN"
 "http://www.w3.org/Graphics/SVG/1.1/DTD/svg11.dtd">
<!-- Generated by graphviz version 2.40.1 (20161225.0304)
 -->
<!-- Title: l4/re/c/video/colors.h Pages: 1 -->
<svg width="160pt" height="207pt"
 viewBox="0.00 0.00 159.50 207.00" xmlns="http://www.w3.org/2000/svg" xmlns:xlink="http://www.w3.org/1999/xlink">
<g id="graph0" class="graph" transform="scale(1 1) rotate(0) translate(4 203)">
<title>l4/re/c/video/colors.h</title>
<polygon fill="#ffffff" stroke="transparent" points="-4,4 -4,-203 155.5,-203 155.5,4 -4,4"/>
<!-- Node3 -->
<g id="node1" class="node">
<title>Node3</title>
<polygon fill="#bfbfbf" stroke="#000000" points="0,-179.5 0,-198.5 114,-198.5 114,-179.5 0,-179.5"/>
<text text-anchor="middle" x="57" y="-186.5" font-family="Helvetica,sans-Serif" font-size="10.00" fill="#000000">l4/re/c/video/colors.h</text>
</g>
<!-- Node4 -->
<g id="node2" class="node">
<title>Node4</title>
<g id="a_node2"><a xlink:href="goos_8h.html" target="_top" xlink:title="l4/re/c/video/goos.h">
<polygon fill="#ffffff" stroke="#000000" points="2.5,-67.5 2.5,-86.5 111.5,-86.5 111.5,-67.5 2.5,-67.5"/>
<text text-anchor="middle" x="57" y="-74.5" font-family="Helvetica,sans-Serif" font-size="10.00" fill="#000000">l4/re/c/video/goos.h</text>
</a>
</g>
</g>
<!-- Node3&#45;&gt;Node4 -->
<g id="edge1" class="edge">
<title>Node3&#45;&gt;Node4</title>
<path fill="none" stroke="#191970" d="M45.575,-170.3805C38.9126,-157.2971 32.4571,-139.2918 36,-123 38.8729,-109.7892 45.8888,-95.8263 51.0235,-86.7968"/>
<polygon fill="#191970" stroke="#191970" points="42.6267,-172.2802 50.548,-179.3161 48.7433,-168.8761 42.6267,-172.2802"/>
</g>
<!-- Node6 -->
<g id="node4" class="node">
<title>Node6</title>
<g id="a_node4"><a xlink:href="view_8h.html" target="_top" xlink:title="l4/re/c/video/view.h">
<polygon fill="#ffffff" stroke="#000000" points="44.5,-123.5 44.5,-142.5 151.5,-142.5 151.5,-123.5 44.5,-123.5"/>
<text text-anchor="middle" x="98" y="-130.5" font-family="Helvetica,sans-Serif" font-size="10.00" fill="#000000">l4/re/c/video/view.h</text>
</a>
</g>
</g>
<!-- Node3&#45;&gt;Node6 -->
<g id="edge3" class="edge">
<title>Node3&#45;&gt;Node6</title>
<path fill="none" stroke="#191970" d="M70.2364,-170.9209C77.1211,-161.5176 85.2609,-150.3997 90.9402,-142.6427"/>
<polygon fill="#191970" stroke="#191970" points="67.2251,-169.1093 64.1417,-179.2455 72.8731,-173.2445 67.2251,-169.1093"/>
</g>
<!-- Node5 -->
<g id="node3" class="node">
<title>Node5</title>
<g id="a_node3"><a xlink:href="goos__fb_8h.html" target="_top" xlink:title="Framebuffer utility functionality. ">
<polygon fill="#ffffff" stroke="#000000" points="12,-.5 12,-30.5 102,-30.5 102,-.5 12,-.5"/>
<text text-anchor="start" x="20" y="-18.5" font-family="Helvetica,sans-Serif" font-size="10.00" fill="#000000">l4/re/c/util/video</text>
<text text-anchor="middle" x="57" y="-7.5" font-family="Helvetica,sans-Serif" font-size="10.00" fill="#000000">/goos_fb.h</text>
</a>
</g>
</g>
<!-- Node4&#45;&gt;Node5 -->
<g id="edge2" class="edge">
<title>Node4&#45;&gt;Node5</title>
<path fill="none" stroke="#191970" d="M57,-57.3693C57,-48.681 57,-38.6241 57,-30.5446"/>
<polygon fill="#191970" stroke="#191970" points="53.5001,-57.3906 57,-67.3906 60.5001,-57.3907 53.5001,-57.3906"/>
</g>
<!-- Node6&#45;&gt;Node4 -->
<g id="edge4" class="edge">
<title>Node6&#45;&gt;Node4</title>
<path fill="none" stroke="#191970" d="M84.7636,-114.9209C77.8789,-105.5176 69.7391,-94.3997 64.0598,-86.6427"/>
<polygon fill="#191970" stroke="#191970" points="82.1269,-117.2445 90.8583,-123.2455 87.7749,-113.1093 82.1269,-117.2445"/>
</g>
</g>
</svg>
