<?xml version="1.0" encoding="UTF-8" standalone="no"?>
<!DOCTYPE svg PUBLIC "-//W3C//DTD SVG 1.1//EN"
 "http://www.w3.org/Graphics/SVG/1.1/DTD/svg11.dtd">
<!-- Generated by graphviz version 2.40.1 (20161225.0304)
 -->
<!-- Title: l4/re/util/counting_cap_alloc Pages: 1 -->
<svg width="1474pt" height="834pt"
 viewBox="0.00 0.00 1473.83 834.00" xmlns="http://www.w3.org/2000/svg" xmlns:xlink="http://www.w3.org/1999/xlink">
<g id="graph0" class="graph" transform="scale(1 1) rotate(0) translate(4 830)">
<title>l4/re/util/counting_cap_alloc</title>
<polygon fill="#ffffff" stroke="transparent" points="-4,4 -4,-830 1469.832,-830 1469.832,4 -4,4"/>
<!-- Node0 -->
<g id="node1" class="node">
<title>Node0</title>
<polygon fill="#bfbfbf" stroke="#000000" points="195.7535,-795.5 195.7535,-825.5 291.7535,-825.5 291.7535,-795.5 195.7535,-795.5"/>
<text text-anchor="start" x="203.7535" y="-813.5" font-family="Helvetica,sans-Serif" font-size="10.00" fill="#000000">l4/re/util/counting</text>
<text text-anchor="middle" x="243.7535" y="-802.5" font-family="Helvetica,sans-Serif" font-size="10.00" fill="#000000">_cap_alloc</text>
</g>
<!-- Node1 -->
<g id="node2" class="node">
<title>Node1</title>
<g id="a_node2"><a xlink:href="task.html" target="_top" xlink:title="Common task related definitions. ">
<polygon fill="#ffffff" stroke="#000000" points="210.7535,-739.5 210.7535,-758.5 276.7535,-758.5 276.7535,-739.5 210.7535,-739.5"/>
<text text-anchor="middle" x="243.7535" y="-746.5" font-family="Helvetica,sans-Serif" font-size="10.00" fill="#000000">l4/sys/task</text>
</a>
</g>
</g>
<!-- Node0&#45;&gt;Node1 -->
<g id="edge1" class="edge">
<title>Node0&#45;&gt;Node1</title>
<path fill="none" stroke="#191970" d="M243.7535,-795.2977C243.7535,-787.3834 243.7535,-777.6043 243.7535,-769.0759"/>
<polygon fill="#191970" stroke="#191970" points="247.2536,-768.8469 243.7535,-758.8469 240.2536,-768.847 247.2536,-768.8469"/>
</g>
<!-- Node26 -->
<g id="node27" class="node">
<title>Node26</title>
<g id="a_node27"><a xlink:href="sys_2assert_8h.html" target="_top" xlink:title="Low&#45;level assert implementation. ">
<polygon fill="#ffffff" stroke="#000000" points="69.7535,-403.5 69.7535,-422.5 153.7535,-422.5 153.7535,-403.5 69.7535,-403.5"/>
<text text-anchor="middle" x="111.7535" y="-410.5" font-family="Helvetica,sans-Serif" font-size="10.00" fill="#000000">l4/sys/assert.h</text>
</a>
</g>
</g>
<!-- Node0&#45;&gt;Node26 -->
<g id="edge62" class="edge">
<title>Node0&#45;&gt;Node26</title>
<path fill="none" stroke="#191970" d="M222.7423,-795.1908C197.5713,-774.9038 158.7535,-736.5568 158.7535,-693 158.7535,-693 158.7535,-693 158.7535,-525 158.7535,-489.5481 138.4831,-452.3564 124.5664,-430.9999"/>
<polygon fill="#191970" stroke="#191970" points="127.3956,-428.9356 118.8918,-422.6161 121.5986,-432.8593 127.3956,-428.9356"/>
</g>
<!-- Node29 -->
<g id="node30" class="node">
<title>Node29</title>
<g id="a_node30"><a xlink:href="re_2consts.html" target="_top" xlink:title="Constants. ">
<polygon fill="#ffffff" stroke="#000000" points="845.2535,-739.5 845.2535,-758.5 916.2535,-758.5 916.2535,-739.5 845.2535,-739.5"/>
<text text-anchor="middle" x="880.7535" y="-746.5" font-family="Helvetica,sans-Serif" font-size="10.00" fill="#000000">l4/re/consts</text>
</a>
</g>
</g>
<!-- Node0&#45;&gt;Node29 -->
<g id="edge70" class="edge">
<title>Node0&#45;&gt;Node29</title>
<path fill="none" stroke="#191970" d="M291.8931,-805.8523C411.0442,-794.3487 718.4814,-764.6668 835.0355,-753.4139"/>
<polygon fill="#191970" stroke="#191970" points="835.4393,-756.8913 845.0566,-752.4464 834.7665,-749.9237 835.4393,-756.8913"/>
</g>
<!-- Node2 -->
<g id="node3" class="node">
<title>Node2</title>
<g id="a_node3"><a xlink:href="l4_2sys_2task_8h.html" target="_top" xlink:title="Common task related definitions. ">
<polygon fill="#ffffff" stroke="#000000" points="228.7535,-342 228.7535,-361 302.7535,-361 302.7535,-342 228.7535,-342"/>
<text text-anchor="middle" x="265.7535" y="-349" font-family="Helvetica,sans-Serif" font-size="10.00" fill="#000000">l4/sys/task.h</text>
</a>
</g>
</g>
<!-- Node1&#45;&gt;Node2 -->
<g id="edge2" class="edge">
<title>Node1&#45;&gt;Node2</title>
<path fill="none" stroke="#191970" d="M240.3598,-739.2503C233.9619,-719.9723 220.7535,-675.5094 220.7535,-637 220.7535,-637 220.7535,-637 220.7535,-469 220.7535,-431.8948 240.5656,-392.2986 253.8981,-369.8534"/>
<polygon fill="#191970" stroke="#191970" points="257.0385,-371.4287 259.3061,-361.0793 251.0795,-367.7557 257.0385,-371.4287"/>
</g>
<!-- Node13 -->
<g id="node14" class="node">
<title>Node13</title>
<g id="a_node14"><a xlink:href="capability.html" target="_top" xlink:title="L4::Cap related definitions. ">
<polygon fill="#ffffff" stroke="#000000" points="647.7535,-683.5 647.7535,-702.5 737.7535,-702.5 737.7535,-683.5 647.7535,-683.5"/>
<text text-anchor="middle" x="692.7535" y="-690.5" font-family="Helvetica,sans-Serif" font-size="10.00" fill="#000000">l4/sys/capability</text>
</a>
</g>
</g>
<!-- Node1&#45;&gt;Node13 -->
<g id="edge23" class="edge">
<title>Node1&#45;&gt;Node13</title>
<path fill="none" stroke="#191970" d="M276.7695,-744.8822C353.2693,-735.341 543.3108,-711.6387 637.7208,-699.8638"/>
<polygon fill="#191970" stroke="#191970" points="638.16,-703.3362 647.6499,-698.6254 637.2936,-696.39 638.16,-703.3362"/>
</g>
<!-- Node3 -->
<g id="node4" class="node">
<title>Node3</title>
<g id="a_node4"><a xlink:href="l4_2sys_2types_8h.html" target="_top" xlink:title="Common L4 ABI Data Types. ">
<polygon fill="#ffffff" stroke="#000000" points="702.7535,-168.5 702.7535,-187.5 782.7535,-187.5 782.7535,-168.5 702.7535,-168.5"/>
<text text-anchor="middle" x="742.7535" y="-175.5" font-family="Helvetica,sans-Serif" font-size="10.00" fill="#000000">l4/sys/types.h</text>
</a>
</g>
</g>
<!-- Node2&#45;&gt;Node3 -->
<g id="edge3" class="edge">
<title>Node2&#45;&gt;Node3</title>
<path fill="none" stroke="#191970" d="M267.7085,-341.7748C273.1953,-317.2688 291.2045,-252.8862 333.7535,-224 362.9027,-204.2108 589.8962,-187.6106 692.5878,-181.0313"/>
<polygon fill="#191970" stroke="#191970" points="692.9569,-184.515 702.7153,-180.3892 692.5138,-177.5291 692.9569,-184.515"/>
</g>
<!-- Node10 -->
<g id="node11" class="node">
<title>Node10</title>
<g id="a_node11"><a xlink:href="l4_2sys_2utcb_8h.html" target="_top" xlink:title="UTCB definitions. ">
<polygon fill="#ffffff" stroke="#000000" points="428.7535,-224.5 428.7535,-243.5 502.7535,-243.5 502.7535,-224.5 428.7535,-224.5"/>
<text text-anchor="middle" x="465.7535" y="-231.5" font-family="Helvetica,sans-Serif" font-size="10.00" fill="#000000">l4/sys/utcb.h</text>
</a>
</g>
</g>
<!-- Node2&#45;&gt;Node10 -->
<g id="edge14" class="edge">
<title>Node2&#45;&gt;Node10</title>
<path fill="none" stroke="#191970" d="M293.4218,-341.9652C299.4488,-339.9476 305.8028,-337.8654 311.7535,-336 366.5126,-318.8339 392.3596,-337.5527 435.7535,-300 449.5568,-288.0547 457.3488,-268.4611 461.5105,-253.7191"/>
<polygon fill="#191970" stroke="#191970" points="465.0104,-254.1474 464.0246,-243.5985 458.2169,-252.4596 465.0104,-254.1474"/>
</g>
<!-- Node11 -->
<g id="node12" class="node">
<title>Node11</title>
<g id="a_node12"><a xlink:href="l4_2sys_2ipc_8h.html" target="_top" xlink:title="Common IPC interface. ">
<polygon fill="#ffffff" stroke="#000000" points="358.7535,-280.5 358.7535,-299.5 426.7535,-299.5 426.7535,-280.5 358.7535,-280.5"/>
<text text-anchor="middle" x="392.7535" y="-287.5" font-family="Helvetica,sans-Serif" font-size="10.00" fill="#000000">l4/sys/ipc.h</text>
</a>
</g>
</g>
<!-- Node2&#45;&gt;Node11 -->
<g id="edge18" class="edge">
<title>Node2&#45;&gt;Node11</title>
<path fill="none" stroke="#191970" d="M285.5972,-341.8906C306.5671,-331.7359 339.8479,-315.6196 363.7571,-304.0416"/>
<polygon fill="#191970" stroke="#191970" points="365.5743,-307.0504 373.0491,-299.5419 362.5234,-300.7502 365.5743,-307.0504"/>
</g>
<!-- Node4 -->
<g id="node5" class="node">
<title>Node4</title>
<g id="a_node5"><a xlink:href="l4_2sys_2l4int_8h.html" target="_top" xlink:title="Fixed sized integer types, generic version. ">
<polygon fill="#ffffff" stroke="#000000" points="893.7535,-56.5 893.7535,-75.5 967.7535,-75.5 967.7535,-56.5 893.7535,-56.5"/>
<text text-anchor="middle" x="930.7535" y="-63.5" font-family="Helvetica,sans-Serif" font-size="10.00" fill="#000000">l4/sys/l4int.h</text>
</a>
</g>
</g>
<!-- Node3&#45;&gt;Node4 -->
<g id="edge4" class="edge">
<title>Node3&#45;&gt;Node4</title>
<path fill="none" stroke="#191970" d="M782.7752,-169.7035C810.0834,-162.7192 846.1636,-150.7971 873.7535,-132 892.4044,-119.2931 908.6609,-99.0071 918.9879,-84.2764"/>
<polygon fill="#191970" stroke="#191970" points="921.9221,-86.1854 924.6201,-75.9398 916.1218,-82.2667 921.9221,-86.1854"/>
</g>
<!-- Node5 -->
<g id="node6" class="node">
<title>Node5</title>
<g id="a_node6"><a xlink:href="compiler_8h.html" target="_top" xlink:title="L4 compiler related defines. ">
<polygon fill="#ffffff" stroke="#000000" points="611.2535,-56.5 611.2535,-75.5 706.2535,-75.5 706.2535,-56.5 611.2535,-56.5"/>
<text text-anchor="middle" x="658.7535" y="-63.5" font-family="Helvetica,sans-Serif" font-size="10.00" fill="#000000">l4/sys/compiler.h</text>
</a>
</g>
</g>
<!-- Node3&#45;&gt;Node5 -->
<g id="edge5" class="edge">
<title>Node3&#45;&gt;Node5</title>
<path fill="none" stroke="#191970" d="M725.3169,-168.3793C712.0078,-160.2423 694.086,-147.4537 682.7535,-132 672.6267,-118.1906 666.3877,-99.6673 662.8187,-85.7595"/>
<polygon fill="#191970" stroke="#191970" points="666.172,-84.7257 660.5056,-75.7734 659.3525,-86.3053 666.172,-84.7257"/>
</g>
<!-- Node7 -->
<g id="node8" class="node">
<title>Node7</title>
<g id="a_node8"><a xlink:href="l4_2sys_2consts_8h.html" target="_top" xlink:title="Common constants. ">
<polygon fill="#ffffff" stroke="#000000" points="996.7535,-112.5 996.7535,-131.5 1082.7535,-131.5 1082.7535,-112.5 996.7535,-112.5"/>
<text text-anchor="middle" x="1039.7535" y="-119.5" font-family="Helvetica,sans-Serif" font-size="10.00" fill="#000000">l4/sys/consts.h</text>
</a>
</g>
</g>
<!-- Node3&#45;&gt;Node7 -->
<g id="edge7" class="edge">
<title>Node3&#45;&gt;Node7</title>
<path fill="none" stroke="#191970" d="M782.8082,-170.4476C835.3859,-160.534 927.8428,-143.101 986.3351,-132.0721"/>
<polygon fill="#191970" stroke="#191970" points="987.3094,-135.4502 996.4877,-130.1579 986.0123,-128.5714 987.3094,-135.4502"/>
</g>
<!-- Node8 -->
<g id="node9" class="node">
<title>Node8</title>
<g id="a_node9"><a xlink:href="____l4__fpage_8h_source.html" target="_top" xlink:title="l4/sys/__l4_fpage.h">
<polygon fill="#ffffff" stroke="#000000" points="522.7535,-112.5 522.7535,-131.5 630.7535,-131.5 630.7535,-112.5 522.7535,-112.5"/>
<text text-anchor="middle" x="576.7535" y="-119.5" font-family="Helvetica,sans-Serif" font-size="10.00" fill="#000000">l4/sys/__l4_fpage.h</text>
</a>
</g>
</g>
<!-- Node3&#45;&gt;Node8 -->
<g id="edge10" class="edge">
<title>Node3&#45;&gt;Node8</title>
<path fill="none" stroke="#191970" d="M714.2171,-168.3733C686.7333,-159.1016 644.9849,-145.0178 614.7083,-134.804"/>
<polygon fill="#191970" stroke="#191970" points="615.5117,-131.3813 604.9175,-131.5011 613.2741,-138.0141 615.5117,-131.3813"/>
</g>
<!-- Node9 -->
<g id="node10" class="node">
<title>Node9</title>
<g id="a_node10"><a xlink:href="____timeout_8h_source.html" target="_top" xlink:title="l4/sys/__timeout.h">
<polygon fill="#ffffff" stroke="#000000" points="763.2535,-112.5 763.2535,-131.5 864.2535,-131.5 864.2535,-112.5 763.2535,-112.5"/>
<text text-anchor="middle" x="813.7535" y="-119.5" font-family="Helvetica,sans-Serif" font-size="10.00" fill="#000000">l4/sys/__timeout.h</text>
</a>
</g>
</g>
<!-- Node3&#45;&gt;Node9 -->
<g id="edge12" class="edge">
<title>Node3&#45;&gt;Node9</title>
<path fill="none" stroke="#191970" d="M755.1208,-168.2455C765.7089,-159.8943 781.1599,-147.7076 793.5428,-137.9408"/>
<polygon fill="#191970" stroke="#191970" points="795.8438,-140.5837 801.528,-131.6427 791.5088,-135.0875 795.8438,-140.5837"/>
</g>
<!-- Node6 -->
<g id="node7" class="node">
<title>Node6</title>
<polygon fill="#ffffff" stroke="#bfbfbf" points="614.2535,-.5 614.2535,-19.5 703.2535,-19.5 703.2535,-.5 614.2535,-.5"/>
<text text-anchor="middle" x="658.7535" y="-7.5" font-family="Helvetica,sans-Serif" font-size="10.00" fill="#000000">l4/sys/linkage.h</text>
</g>
<!-- Node5&#45;&gt;Node6 -->
<g id="edge6" class="edge">
<title>Node5&#45;&gt;Node6</title>
<path fill="none" stroke="#191970" d="M658.7535,-56.2455C658.7535,-48.9382 658.7535,-38.6944 658.7535,-29.7046"/>
<polygon fill="#191970" stroke="#191970" points="662.2536,-29.6426 658.7535,-19.6427 655.2536,-29.6427 662.2536,-29.6426"/>
</g>
<!-- Node7&#45;&gt;Node4 -->
<g id="edge9" class="edge">
<title>Node7&#45;&gt;Node4</title>
<path fill="none" stroke="#191970" d="M1020.7671,-112.2455C1003.5743,-103.4125 978.0297,-90.2887 958.5403,-80.2758"/>
<polygon fill="#191970" stroke="#191970" points="960.0165,-77.0993 949.5223,-75.6427 956.8176,-83.3257 960.0165,-77.0993"/>
</g>
<!-- Node7&#45;&gt;Node5 -->
<g id="edge8" class="edge">
<title>Node7&#45;&gt;Node5</title>
<path fill="none" stroke="#191970" d="M996.5183,-114.2622C991.8755,-113.4769 987.2188,-112.7085 982.7535,-112 889.6769,-97.2321 781.1896,-82.2892 716.3401,-73.5983"/>
<polygon fill="#191970" stroke="#191970" points="716.6915,-70.1143 706.3158,-72.2582 715.7638,-77.0525 716.6915,-70.1143"/>
</g>
<!-- Node8&#45;&gt;Node5 -->
<g id="edge11" class="edge">
<title>Node8&#45;&gt;Node5</title>
<path fill="none" stroke="#191970" d="M591.0368,-112.2455C603.5005,-103.7337 621.7986,-91.2375 636.2327,-81.3801"/>
<polygon fill="#191970" stroke="#191970" points="638.3497,-84.1726 644.6339,-75.6427 634.402,-78.392 638.3497,-84.1726"/>
</g>
<!-- Node9&#45;&gt;Node4 -->
<g id="edge13" class="edge">
<title>Node9&#45;&gt;Node4</title>
<path fill="none" stroke="#191970" d="M833.8665,-112.3733C852.5638,-103.4241 880.6279,-89.9917 901.7469,-79.8835"/>
<polygon fill="#191970" stroke="#191970" points="903.394,-82.9755 910.9029,-75.5011 900.3718,-76.6614 903.394,-82.9755"/>
</g>
<!-- Node10&#45;&gt;Node3 -->
<g id="edge15" class="edge">
<title>Node10&#45;&gt;Node3</title>
<path fill="none" stroke="#191970" d="M502.8235,-226.5057C551.6754,-216.6295 637.796,-199.2189 692.4798,-188.1636"/>
<polygon fill="#191970" stroke="#191970" points="693.2004,-191.5888 702.3086,-186.1766 691.8133,-184.7277 693.2004,-191.5888"/>
</g>
<!-- Node10&#45;&gt;Node4 -->
<g id="edge17" class="edge">
<title>Node10&#45;&gt;Node4</title>
<path fill="none" stroke="#191970" d="M485.6881,-224.4027C532.0578,-202.3421 651.1067,-147.2179 754.7535,-112 797.6192,-97.4348 847.6644,-84.7579 883.4079,-76.4216"/>
<polygon fill="#191970" stroke="#191970" points="884.5962,-79.7395 893.5541,-74.0822 883.0234,-72.9185 884.5962,-79.7395"/>
</g>
<!-- Node10&#45;&gt;Node5 -->
<g id="edge16" class="edge">
<title>Node10&#45;&gt;Node5</title>
<path fill="none" stroke="#191970" d="M466.7758,-224.1955C469.6964,-201.2034 480.162,-143.3928 513.7535,-112 527.2901,-99.3494 569.5453,-86.7479 604.9726,-77.9417"/>
<polygon fill="#191970" stroke="#191970" points="605.8652,-81.3267 614.7543,-75.5617 604.2103,-74.5252 605.8652,-81.3267"/>
</g>
<!-- Node11&#45;&gt;Node3 -->
<g id="edge19" class="edge">
<title>Node11&#45;&gt;Node3</title>
<path fill="none" stroke="#191970" d="M418.9535,-280.4436C443.1998,-271.4651 480.1601,-257.436 511.7535,-244 531.1495,-235.7513 534.8665,-230.9824 554.7535,-224 600.4461,-207.9571 654.2758,-195.3984 692.5988,-187.4856"/>
<polygon fill="#191970" stroke="#191970" points="693.3818,-190.8981 702.4843,-185.4764 691.9875,-184.0383 693.3818,-190.8981"/>
</g>
<!-- Node11&#45;&gt;Node10 -->
<g id="edge20" class="edge">
<title>Node11&#45;&gt;Node10</title>
<path fill="none" stroke="#191970" d="M405.4691,-280.2455C416.3555,-271.8943 432.2418,-259.7076 444.9735,-249.9408"/>
<polygon fill="#191970" stroke="#191970" points="447.3796,-252.5063 453.1836,-243.6427 443.1189,-246.9523 447.3796,-252.5063"/>
</g>
<!-- Node12 -->
<g id="node13" class="node">
<title>Node12</title>
<g id="a_node13"><a xlink:href="err_8h.html" target="_top" xlink:title="Error codes. ">
<polygon fill="#ffffff" stroke="#000000" points="342.7535,-224.5 342.7535,-243.5 410.7535,-243.5 410.7535,-224.5 342.7535,-224.5"/>
<text text-anchor="middle" x="376.7535" y="-231.5" font-family="Helvetica,sans-Serif" font-size="10.00" fill="#000000">l4/sys/err.h</text>
</a>
</g>
</g>
<!-- Node11&#45;&gt;Node12 -->
<g id="edge21" class="edge">
<title>Node11&#45;&gt;Node12</title>
<path fill="none" stroke="#191970" d="M389.9665,-280.2455C387.8558,-272.8579 384.8875,-262.4689 382.2988,-253.4087"/>
<polygon fill="#191970" stroke="#191970" points="385.6212,-252.2964 379.5085,-243.6427 378.8905,-254.2195 385.6212,-252.2964"/>
</g>
<!-- Node12&#45;&gt;Node5 -->
<g id="edge22" class="edge">
<title>Node12&#45;&gt;Node5</title>
<path fill="none" stroke="#191970" d="M383.1477,-224.4102C399.0154,-201.3767 442.6294,-142.5828 493.7535,-112 526.4795,-92.4231 567.8208,-80.9168 600.9348,-74.3078"/>
<polygon fill="#191970" stroke="#191970" points="601.7571,-77.7143 610.9288,-72.4105 600.4514,-70.8372 601.7571,-77.7143"/>
</g>
<!-- Node13&#45;&gt;Node2 -->
<g id="edge45" class="edge">
<title>Node13&#45;&gt;Node2</title>
<path fill="none" stroke="#191970" d="M647.5361,-690.9093C536.3779,-684.5417 258.7535,-660.6639 258.7535,-581 258.7535,-581 258.7535,-581 258.7535,-469 258.7535,-434.579 261.7839,-394.5863 263.8569,-371.255"/>
<polygon fill="#191970" stroke="#191970" points="267.3476,-371.5163 264.7802,-361.2373 260.3771,-370.8738 267.3476,-371.5163"/>
</g>
<!-- Node13&#45;&gt;Node3 -->
<g id="edge25" class="edge">
<title>Node13&#45;&gt;Node3</title>
<path fill="none" stroke="#191970" d="M738.1366,-687.7092C797.145,-678.0148 892.7535,-651.4389 892.7535,-581 892.7535,-581 892.7535,-581 892.7535,-413 892.7535,-317.229 803.1421,-229.114 762.4447,-194.0344"/>
<polygon fill="#191970" stroke="#191970" points="764.6725,-191.3347 754.7751,-187.5542 760.1547,-196.6817 764.6725,-191.3347"/>
</g>
<!-- Node13&#45;&gt;Node7 -->
<g id="edge24" class="edge">
<title>Node13&#45;&gt;Node7</title>
<path fill="none" stroke="#191970" d="M737.9955,-686.875C776.7199,-680.4649 833.2571,-668.2855 878.7535,-647 923.6824,-625.98 968.7535,-630.6029 968.7535,-581 968.7535,-581 968.7535,-581 968.7535,-290 968.7535,-231.427 1005.8241,-169.7849 1026.3924,-140.0913"/>
<polygon fill="#191970" stroke="#191970" points="1029.4762,-141.7944 1032.4227,-131.6175 1023.7729,-137.7357 1029.4762,-141.7944"/>
</g>
<!-- Node14 -->
<g id="node15" class="node">
<title>Node14</title>
<g id="a_node15"><a xlink:href="kobject_source.html" target="_top" xlink:title="l4/sys/kobject">
<polygon fill="#ffffff" stroke="#000000" points="652.7535,-515.5 652.7535,-534.5 732.7535,-534.5 732.7535,-515.5 652.7535,-515.5"/>
<text text-anchor="middle" x="692.7535" y="-522.5" font-family="Helvetica,sans-Serif" font-size="10.00" fill="#000000">l4/sys/kobject</text>
</a>
</g>
</g>
<!-- Node13&#45;&gt;Node14 -->
<g id="edge26" class="edge">
<title>Node13&#45;&gt;Node14</title>
<path fill="none" stroke="#191970" d="M692.7535,-683.4862C692.7535,-656.9293 692.7535,-581.5651 692.7535,-545.1655"/>
<polygon fill="#191970" stroke="#191970" points="696.2536,-544.8278 692.7535,-534.8279 689.2536,-544.8279 696.2536,-544.8278"/>
</g>
<!-- Node21 -->
<g id="node22" class="node">
<title>Node21</title>
<g id="a_node22"><a xlink:href="sys_2meta.html" target="_top" xlink:title="Meta interface for getting dynamic type information about objects behind capabilities. ">
<polygon fill="#ffffff" stroke="#000000" points="584.7535,-627.5 584.7535,-646.5 654.7535,-646.5 654.7535,-627.5 584.7535,-627.5"/>
<text text-anchor="middle" x="619.7535" y="-634.5" font-family="Helvetica,sans-Serif" font-size="10.00" fill="#000000">l4/sys/meta</text>
</a>
</g>
</g>
<!-- Node13&#45;&gt;Node21 -->
<g id="edge46" class="edge">
<title>Node13&#45;&gt;Node21</title>
<path fill="none" stroke="#191970" d="M680.0379,-683.2455C669.1515,-674.8943 653.2652,-662.7076 640.5335,-652.9408"/>
<polygon fill="#191970" stroke="#191970" points="642.3881,-649.9523 632.3234,-646.6427 638.1274,-655.5063 642.3881,-649.9523"/>
</g>
<!-- Node14&#45;&gt;Node3 -->
<g id="edge34" class="edge">
<title>Node14&#45;&gt;Node3</title>
<path fill="none" stroke="#191970" d="M707.7336,-515.2468C732.3731,-497.8872 778.7535,-459.0891 778.7535,-413 778.7535,-413 778.7535,-413 778.7535,-351.5 778.7535,-294.5366 759.919,-229.206 749.4964,-197.4145"/>
<polygon fill="#191970" stroke="#191970" points="752.7126,-195.9979 746.2053,-187.6369 746.0784,-198.231 752.7126,-195.9979"/>
</g>
<!-- Node15 -->
<g id="node16" class="node">
<title>Node15</title>
<g id="a_node16"><a xlink:href="kernel__object_8h.html" target="_top" xlink:title="Kernel object system calls. ">
<polygon fill="#ffffff" stroke="#000000" points="662.7535,-403.5 662.7535,-422.5 750.7535,-422.5 750.7535,-403.5 662.7535,-403.5"/>
<text text-anchor="middle" x="706.7535" y="-410.5" font-family="Helvetica,sans-Serif" font-size="10.00" fill="#000000">kernel_object.h</text>
</a>
</g>
</g>
<!-- Node14&#45;&gt;Node15 -->
<g id="edge27" class="edge">
<title>Node14&#45;&gt;Node15</title>
<path fill="none" stroke="#191970" d="M693.9471,-515.4509C696.2305,-497.184 701.2591,-456.9553 704.2913,-432.6976"/>
<polygon fill="#191970" stroke="#191970" points="707.7954,-432.8818 705.5629,-422.5249 700.8495,-432.0135 707.7954,-432.8818"/>
</g>
<!-- Node17 -->
<g id="node18" class="node">
<title>Node17</title>
<g id="a_node18"><a xlink:href="____typeinfo_8h.html" target="_top" xlink:title="Type information handling. ">
<polygon fill="#ffffff" stroke="#000000" points="604.7535,-459.5 604.7535,-478.5 678.7535,-478.5 678.7535,-459.5 604.7535,-459.5"/>
<text text-anchor="middle" x="641.7535" y="-466.5" font-family="Helvetica,sans-Serif" font-size="10.00" fill="#000000">__typeinfo.h</text>
</a>
</g>
</g>
<!-- Node14&#45;&gt;Node17 -->
<g id="edge35" class="edge">
<title>Node14&#45;&gt;Node17</title>
<path fill="none" stroke="#191970" d="M683.87,-515.2455C676.5569,-507.2155 666.0144,-495.6394 657.3068,-486.0781"/>
<polygon fill="#191970" stroke="#191970" points="659.8563,-483.6795 650.5352,-478.6427 654.6808,-488.3928 659.8563,-483.6795"/>
</g>
<!-- Node15&#45;&gt;Node3 -->
<g id="edge28" class="edge">
<title>Node15&#45;&gt;Node3</title>
<path fill="none" stroke="#191970" d="M706.9935,-403.4358C707.859,-375.4813 711.6266,-291.6196 726.7535,-224 728.7782,-214.9492 732.0052,-205.2095 735.0325,-197.0328"/>
<polygon fill="#191970" stroke="#191970" points="738.3066,-198.2702 738.6548,-187.681 731.7791,-195.7418 738.3066,-198.2702"/>
</g>
<!-- Node15&#45;&gt;Node5 -->
<g id="edge29" class="edge">
<title>Node15&#45;&gt;Node5</title>
<path fill="none" stroke="#191970" d="M715.4817,-403.3125C744.6854,-369.673 834.7761,-255.2129 791.7535,-168 785.7306,-155.7908 717.4399,-106.9244 681.1377,-81.5194"/>
<polygon fill="#191970" stroke="#191970" points="682.8592,-78.4528 672.6549,-75.6025 678.8545,-84.1941 682.8592,-78.4528"/>
</g>
<!-- Node15&#45;&gt;Node10 -->
<g id="edge30" class="edge">
<title>Node15&#45;&gt;Node10</title>
<path fill="none" stroke="#191970" d="M706.3367,-403.2847C705.164,-387.3942 700.7024,-355.6505 683.7535,-336 639.072,-284.1963 562.3784,-256.9347 512.8932,-244.0121"/>
<polygon fill="#191970" stroke="#191970" points="513.6241,-240.5869 503.0724,-241.542 511.9166,-247.3755 513.6241,-240.5869"/>
</g>
<!-- Node15&#45;&gt;Node11 -->
<g id="edge33" class="edge">
<title>Node15&#45;&gt;Node11</title>
<path fill="none" stroke="#191970" d="M664.4724,-403.4916C631.122,-395.4165 583.7264,-382.6564 543.7535,-367 497.7661,-348.9879 447.1749,-321.4972 417.7829,-304.6984"/>
<polygon fill="#191970" stroke="#191970" points="419.4293,-301.6076 409.0177,-299.6455 415.9333,-307.6721 419.4293,-301.6076"/>
</g>
<!-- Node16 -->
<g id="node17" class="node">
<title>Node16</title>
<g id="a_node17"><a xlink:href="____kernel__object__impl_8h.html" target="_top" xlink:title="Low&#45;level kernel debugger functions. ">
<polygon fill="#ffffff" stroke="#000000" points="552.7535,-336.5 552.7535,-366.5 674.7535,-366.5 674.7535,-336.5 552.7535,-336.5"/>
<text text-anchor="start" x="560.7535" y="-354.5" font-family="Helvetica,sans-Serif" font-size="10.00" fill="#000000">l4/sys/__kernel_object</text>
<text text-anchor="middle" x="613.7535" y="-343.5" font-family="Helvetica,sans-Serif" font-size="10.00" fill="#000000">_impl.h</text>
</a>
</g>
</g>
<!-- Node15&#45;&gt;Node16 -->
<g id="edge31" class="edge">
<title>Node15&#45;&gt;Node16</title>
<path fill="none" stroke="#191970" d="M692.2222,-403.3906C679.6358,-395.0673 660.9928,-382.7389 645.0365,-372.1872"/>
<polygon fill="#191970" stroke="#191970" points="646.7756,-369.1411 636.5039,-366.5446 642.9144,-374.98 646.7756,-369.1411"/>
</g>
<!-- Node16&#45;&gt;Node11 -->
<g id="edge32" class="edge">
<title>Node16&#45;&gt;Node11</title>
<path fill="none" stroke="#191970" d="M559.6908,-336.4554C522.0077,-325.9689 472.3547,-312.1515 437.0205,-302.3187"/>
<polygon fill="#191970" stroke="#191970" points="437.5729,-298.8394 427.0007,-299.5303 435.6962,-305.5832 437.5729,-298.8394"/>
</g>
<!-- Node18 -->
<g id="node19" class="node">
<title>Node18</title>
<g id="a_node19"><a xlink:href="types.html" target="_top" xlink:title="cxx/types">
<polygon fill="#ffffff" stroke="#000000" points="321.2535,-342 321.2535,-361 382.2535,-361 382.2535,-342 321.2535,-342"/>
<text text-anchor="middle" x="351.7535" y="-349" font-family="Helvetica,sans-Serif" font-size="10.00" fill="#000000">cxx/types</text>
</a>
</g>
</g>
<!-- Node17&#45;&gt;Node18 -->
<g id="edge36" class="edge">
<title>Node17&#45;&gt;Node18</title>
<path fill="none" stroke="#191970" d="M621.8642,-459.4762C602.7803,-450.2888 573.1881,-435.9132 547.7535,-423 530.7359,-414.3601 527.3338,-410.4284 509.7535,-403 470.785,-386.5343 424.6215,-372.0352 392.2897,-362.6518"/>
<polygon fill="#191970" stroke="#191970" points="392.8824,-359.1807 382.305,-359.7889 390.953,-365.9096 392.8824,-359.1807"/>
</g>
<!-- Node19 -->
<g id="node20" class="node">
<title>Node19</title>
<g id="a_node20"><a xlink:href="ipc__basics_source.html" target="_top" xlink:title="cxx/ipc_basics">
<polygon fill="#ffffff" stroke="#000000" points="416.7535,-403.5 416.7535,-422.5 500.7535,-422.5 500.7535,-403.5 416.7535,-403.5"/>
<text text-anchor="middle" x="458.7535" y="-410.5" font-family="Helvetica,sans-Serif" font-size="10.00" fill="#000000">cxx/ipc_basics</text>
</a>
</g>
</g>
<!-- Node17&#45;&gt;Node19 -->
<g id="edge37" class="edge">
<title>Node17&#45;&gt;Node19</title>
<path fill="none" stroke="#191970" d="M610.2947,-459.3733C579.7328,-450.021 533.1709,-435.7725 499.7274,-425.5385"/>
<polygon fill="#191970" stroke="#191970" points="500.3883,-422.0806 489.8018,-422.5011 498.3399,-428.7742 500.3883,-422.0806"/>
</g>
<!-- Node20 -->
<g id="node21" class="node">
<title>Node20</title>
<g id="a_node21"><a xlink:href="capability_8h_source.html" target="_top" xlink:title="cxx/capability.h">
<polygon fill="#ffffff" stroke="#000000" points="557.2535,-403.5 557.2535,-422.5 644.2535,-422.5 644.2535,-403.5 557.2535,-403.5"/>
<text text-anchor="middle" x="600.7535" y="-410.5" font-family="Helvetica,sans-Serif" font-size="10.00" fill="#000000">cxx/capability.h</text>
</a>
</g>
</g>
<!-- Node17&#45;&gt;Node20 -->
<g id="edge41" class="edge">
<title>Node17&#45;&gt;Node20</title>
<path fill="none" stroke="#191970" d="M634.6118,-459.2455C628.9091,-451.4564 620.7635,-440.3308 613.891,-430.9439"/>
<polygon fill="#191970" stroke="#191970" points="616.5448,-428.6437 607.8133,-422.6427 610.8967,-432.7789 616.5448,-428.6437"/>
</g>
<!-- Node19&#45;&gt;Node10 -->
<g id="edge39" class="edge">
<title>Node19&#45;&gt;Node10</title>
<path fill="none" stroke="#191970" d="M459.1298,-403.3762C460.2313,-375.2097 463.4653,-292.5126 464.9686,-254.0713"/>
<polygon fill="#191970" stroke="#191970" points="468.4818,-253.8006 465.3753,-243.6714 461.4871,-253.527 468.4818,-253.8006"/>
</g>
<!-- Node19&#45;&gt;Node12 -->
<g id="edge40" class="edge">
<title>Node19&#45;&gt;Node12</title>
<path fill="none" stroke="#191970" d="M450.7543,-403.1631C438.411,-388.1685 413.7383,-358.9193 390.7535,-336 373.5819,-318.8773 359.7548,-322.0912 349.7535,-300 342.4656,-283.9023 351.698,-265.238 361.2943,-251.8734"/>
<polygon fill="#191970" stroke="#191970" points="364.094,-253.9747 367.483,-243.9365 358.5738,-249.6704 364.094,-253.9747"/>
</g>
<!-- Node19&#45;&gt;Node18 -->
<g id="edge38" class="edge">
<title>Node19&#45;&gt;Node18</title>
<path fill="none" stroke="#191970" d="M442.0347,-403.3906C424.6813,-393.4165 397.3212,-377.6908 377.2653,-366.1633"/>
<polygon fill="#191970" stroke="#191970" points="378.7689,-362.9907 368.3548,-361.0419 375.2807,-369.0596 378.7689,-362.9907"/>
</g>
<!-- Node20&#45;&gt;Node2 -->
<g id="edge44" class="edge">
<title>Node20&#45;&gt;Node2</title>
<path fill="none" stroke="#191970" d="M557.2154,-408.3702C500.2538,-401.7909 397.5907,-388.1356 311.7535,-367 308.3781,-366.1689 304.8961,-365.2031 301.4295,-364.1678"/>
<polygon fill="#191970" stroke="#191970" points="302.3922,-360.8014 291.8021,-361.1194 300.2791,-367.4748 302.3922,-360.8014"/>
</g>
<!-- Node20&#45;&gt;Node3 -->
<g id="edge43" class="edge">
<title>Node20&#45;&gt;Node3</title>
<path fill="none" stroke="#191970" d="M581.5435,-403.4505C568.2269,-395.663 551.541,-383.2917 543.7535,-367 537.8116,-354.5693 537.7622,-348.4069 543.7535,-336 578.6595,-263.7153 664.4845,-214.3634 711.2067,-191.8638"/>
<polygon fill="#191970" stroke="#191970" points="712.718,-195.0208 720.2771,-187.5971 709.7384,-188.6866 712.718,-195.0208"/>
</g>
<!-- Node20&#45;&gt;Node7 -->
<g id="edge42" class="edge">
<title>Node20&#45;&gt;Node7</title>
<path fill="none" stroke="#191970" d="M619.1792,-403.447C636.1952,-394.4709 662.0427,-380.4434 683.7535,-367 814.5736,-285.9958 964.2624,-177.5438 1018.6319,-137.6072"/>
<polygon fill="#191970" stroke="#191970" points="1020.827,-140.3374 1026.8062,-131.5909 1016.6777,-134.6997 1020.827,-140.3374"/>
</g>
<!-- Node21&#45;&gt;Node14 -->
<g id="edge47" class="edge">
<title>Node21&#45;&gt;Node14</title>
<path fill="none" stroke="#191970" d="M625.9774,-627.4509C638.153,-608.7707 665.2978,-567.1238 680.9717,-543.0761"/>
<polygon fill="#191970" stroke="#191970" points="684.017,-544.8137 686.5453,-534.5249 678.1527,-540.9913 684.017,-544.8137"/>
</g>
<!-- Node22 -->
<g id="node23" class="node">
<title>Node22</title>
<g id="a_node23"><a xlink:href="ipc__iface.html" target="_top" xlink:title="Interface Definition Language. ">
<polygon fill="#ffffff" stroke="#000000" points="543.2535,-515.5 543.2535,-534.5 620.2535,-534.5 620.2535,-515.5 543.2535,-515.5"/>
<text text-anchor="middle" x="581.7535" y="-522.5" font-family="Helvetica,sans-Serif" font-size="10.00" fill="#000000">cxx/ipc_iface</text>
</a>
</g>
</g>
<!-- Node21&#45;&gt;Node22 -->
<g id="edge48" class="edge">
<title>Node21&#45;&gt;Node22</title>
<path fill="none" stroke="#191970" d="M616.5136,-627.4509C610.2598,-609.0186 596.4193,-568.2254 588.2145,-544.043"/>
<polygon fill="#191970" stroke="#191970" points="591.5126,-542.8701 584.9852,-534.5249 584.8838,-545.1192 591.5126,-542.8701"/>
</g>
<!-- Node24 -->
<g id="node25" class="node">
<title>Node24</title>
<g id="a_node25"><a xlink:href="ipc__string_source.html" target="_top" xlink:title="cxx/ipc_string">
<polygon fill="#ffffff" stroke="#000000" points="328.2535,-571.5 328.2535,-590.5 409.2535,-590.5 409.2535,-571.5 328.2535,-571.5"/>
<text text-anchor="middle" x="368.7535" y="-578.5" font-family="Helvetica,sans-Serif" font-size="10.00" fill="#000000">cxx/ipc_string</text>
</a>
</g>
</g>
<!-- Node21&#45;&gt;Node24 -->
<g id="edge55" class="edge">
<title>Node21&#45;&gt;Node24</title>
<path fill="none" stroke="#191970" d="M584.5887,-629.1545C541.5465,-619.5514 468.3468,-603.22 419.2818,-592.2732"/>
<polygon fill="#191970" stroke="#191970" points="420.0246,-588.853 409.5024,-590.0914 418.5003,-595.685 420.0246,-588.853"/>
</g>
<!-- Node22&#45;&gt;Node17 -->
<g id="edge54" class="edge">
<title>Node22&#45;&gt;Node17</title>
<path fill="none" stroke="#191970" d="M592.2047,-515.2455C600.9804,-507.0549 613.7089,-495.1749 624.0675,-485.5069"/>
<polygon fill="#191970" stroke="#191970" points="626.4996,-488.0246 631.4221,-478.6427 621.7234,-482.9072 626.4996,-488.0246"/>
</g>
<!-- Node22&#45;&gt;Node19 -->
<g id="edge49" class="edge">
<title>Node22&#45;&gt;Node19</title>
<path fill="none" stroke="#191970" d="M580.5863,-515.2792C578.4272,-501.2319 572.5889,-475.1726 557.7535,-459 543.789,-443.7768 523.7685,-433.1778 505.3806,-426.025"/>
<polygon fill="#191970" stroke="#191970" points="506.5485,-422.7255 495.9545,-422.5924 504.1533,-429.303 506.5485,-422.7255"/>
</g>
<!-- Node23 -->
<g id="node24" class="node">
<title>Node23</title>
<g id="a_node24"><a xlink:href="ipc__types.html" target="_top" xlink:title="l4/sys/cxx/ipc_types">
<polygon fill="#ffffff" stroke="#000000" points="438.7535,-459.5 438.7535,-478.5 548.7535,-478.5 548.7535,-459.5 438.7535,-459.5"/>
<text text-anchor="middle" x="493.7535" y="-466.5" font-family="Helvetica,sans-Serif" font-size="10.00" fill="#000000">l4/sys/cxx/ipc_types</text>
</a>
</g>
</g>
<!-- Node22&#45;&gt;Node23 -->
<g id="edge50" class="edge">
<title>Node22&#45;&gt;Node23</title>
<path fill="none" stroke="#191970" d="M566.4251,-515.2455C552.9232,-506.6534 533.0413,-494.0014 517.4849,-484.1018"/>
<polygon fill="#191970" stroke="#191970" points="519.222,-481.0587 508.9063,-478.6427 515.4638,-486.9643 519.222,-481.0587"/>
</g>
<!-- Node23&#45;&gt;Node18 -->
<g id="edge52" class="edge">
<title>Node23&#45;&gt;Node18</title>
<path fill="none" stroke="#191970" d="M469.8716,-459.4628C451.6448,-451.4535 426.5511,-438.7935 407.7535,-423 389.5587,-407.713 373.3773,-385.6429 363.1453,-370.0755"/>
<polygon fill="#191970" stroke="#191970" points="365.9048,-367.8932 357.5784,-361.3418 360.002,-371.6557 365.9048,-367.8932"/>
</g>
<!-- Node23&#45;&gt;Node19 -->
<g id="edge53" class="edge">
<title>Node23&#45;&gt;Node19</title>
<path fill="none" stroke="#191970" d="M487.657,-459.2455C482.839,-451.5367 475.9784,-440.5598 470.1503,-431.2348"/>
<polygon fill="#191970" stroke="#191970" points="473.0482,-429.2677 464.7802,-422.6427 467.1122,-432.9777 473.0482,-429.2677"/>
</g>
<!-- Node23&#45;&gt;Node20 -->
<g id="edge51" class="edge">
<title>Node23&#45;&gt;Node20</title>
<path fill="none" stroke="#191970" d="M512.3915,-459.2455C529.1921,-450.4527 554.1169,-437.4079 573.2153,-427.4125"/>
<polygon fill="#191970" stroke="#191970" points="575.0921,-430.3807 582.3291,-422.6427 571.8462,-424.1787 575.0921,-430.3807"/>
</g>
<!-- Node24&#45;&gt;Node18 -->
<g id="edge56" class="edge">
<title>Node24&#45;&gt;Node18</title>
<path fill="none" stroke="#191970" d="M365.2298,-571.2875C362.0785,-562.0843 357.6704,-547.8036 355.7535,-535 346.9327,-476.0824 348.8622,-405.3522 350.5446,-371.4859"/>
<polygon fill="#191970" stroke="#191970" points="354.0599,-371.3005 351.1113,-361.1242 347.0703,-370.9181 354.0599,-371.3005"/>
</g>
<!-- Node24&#45;&gt;Node19 -->
<g id="edge57" class="edge">
<title>Node24&#45;&gt;Node19</title>
<path fill="none" stroke="#191970" d="M365.1749,-571.2071C360.9238,-557.9601 355.2885,-533.8236 362.7535,-515 377.4595,-477.9177 412.7376,-446.4768 436.1844,-428.6739"/>
<polygon fill="#191970" stroke="#191970" points="438.5452,-431.2821 444.5237,-422.5352 434.3954,-425.6447 438.5452,-431.2821"/>
</g>
<!-- Node25 -->
<g id="node26" class="node">
<title>Node25</title>
<g id="a_node26"><a xlink:href="ipc__array_source.html" target="_top" xlink:title="ipc_array">
<polygon fill="#ffffff" stroke="#000000" points="372.2535,-515.5 372.2535,-534.5 433.2535,-534.5 433.2535,-515.5 372.2535,-515.5"/>
<text text-anchor="middle" x="402.7535" y="-522.5" font-family="Helvetica,sans-Serif" font-size="10.00" fill="#000000">ipc_array</text>
</a>
</g>
</g>
<!-- Node24&#45;&gt;Node25 -->
<g id="edge58" class="edge">
<title>Node24&#45;&gt;Node25</title>
<path fill="none" stroke="#191970" d="M374.6758,-571.2455C379.3562,-563.5367 386.0208,-552.5598 391.6824,-543.2348"/>
<polygon fill="#191970" stroke="#191970" points="394.7009,-545.007 396.899,-534.6427 388.7174,-541.3741 394.7009,-545.007"/>
</g>
<!-- Node25&#45;&gt;Node18 -->
<g id="edge59" class="edge">
<title>Node25&#45;&gt;Node18</title>
<path fill="none" stroke="#191970" d="M399.9389,-515.4248C391.8424,-487.8807 368.3756,-408.0477 357.4608,-370.916"/>
<polygon fill="#191970" stroke="#191970" points="360.8005,-369.8665 354.6223,-361.2595 354.0846,-371.8407 360.8005,-369.8665"/>
</g>
<!-- Node25&#45;&gt;Node19 -->
<g id="edge60" class="edge">
<title>Node25&#45;&gt;Node19</title>
<path fill="none" stroke="#191970" d="M406.094,-515.368C410.7588,-502.3032 419.7807,-478.3727 429.7535,-459 434.6511,-449.4862 440.8967,-439.3796 446.3365,-431.0701"/>
<polygon fill="#191970" stroke="#191970" points="449.3661,-432.8362 452.0211,-422.5794 443.5494,-428.9418 449.3661,-432.8362"/>
</g>
<!-- Node25&#45;&gt;Node23 -->
<g id="edge61" class="edge">
<title>Node25&#45;&gt;Node23</title>
<path fill="none" stroke="#191970" d="M418.6045,-515.2455C432.5667,-506.6534 453.1263,-494.0014 469.2131,-484.1018"/>
<polygon fill="#191970" stroke="#191970" points="471.4019,-486.8645 478.0842,-478.6427 467.7332,-480.9029 471.4019,-486.8645"/>
</g>
<!-- Node26&#45;&gt;Node5 -->
<g id="edge63" class="edge">
<title>Node26&#45;&gt;Node5</title>
<path fill="none" stroke="#191970" d="M76.46,-403.3888C57.0288,-396.3517 34.0288,-384.8517 19.7535,-367 -2.2605,-339.4709 .7535,-325.2487 .7535,-290 .7535,-290 .7535,-290 .7535,-178 .7535,-117.372 440.4991,-81.0205 601.0062,-69.7715"/>
<polygon fill="#191970" stroke="#191970" points="601.4332,-73.2504 611.1671,-69.0668 600.9489,-66.2671 601.4332,-73.2504"/>
</g>
<!-- Node27 -->
<g id="node28" class="node">
<title>Node27</title>
<g id="a_node28"><a xlink:href="l4_2sys_2thread_8h.html" target="_top" xlink:title="Common thread related definitions. ">
<polygon fill="#ffffff" stroke="#000000" points="28.7535,-342 28.7535,-361 114.7535,-361 114.7535,-342 28.7535,-342"/>
<text text-anchor="middle" x="71.7535" y="-349" font-family="Helvetica,sans-Serif" font-size="10.00" fill="#000000">l4/sys/thread.h</text>
</a>
</g>
</g>
<!-- Node26&#45;&gt;Node27 -->
<g id="edge64" class="edge">
<title>Node26&#45;&gt;Node27</title>
<path fill="none" stroke="#191970" d="M105.5035,-403.3906C99.667,-394.417 90.8026,-380.7879 83.6229,-369.7491"/>
<polygon fill="#191970" stroke="#191970" points="86.478,-367.7194 78.0916,-361.2449 80.6099,-371.5361 86.478,-367.7194"/>
</g>
<!-- Node28 -->
<g id="node29" class="node">
<title>Node28</title>
<g id="a_node29"><a xlink:href="vcon_8h.html" target="_top" xlink:title="Virtual console interface. ">
<polygon fill="#ffffff" stroke="#000000" points="133.2535,-342 133.2535,-361 210.2535,-361 210.2535,-342 133.2535,-342"/>
<text text-anchor="middle" x="171.7535" y="-349" font-family="Helvetica,sans-Serif" font-size="10.00" fill="#000000">l4/sys/vcon.h</text>
</a>
</g>
</g>
<!-- Node26&#45;&gt;Node28 -->
<g id="edge68" class="edge">
<title>Node26&#45;&gt;Node28</title>
<path fill="none" stroke="#191970" d="M121.1285,-403.3906C130.2334,-394.0581 144.2509,-379.6902 155.2292,-368.4374"/>
<polygon fill="#191970" stroke="#191970" points="157.7683,-370.8468 162.2463,-361.2449 152.7578,-365.9586 157.7683,-370.8468"/>
</g>
<!-- Node27&#45;&gt;Node3 -->
<g id="edge65" class="edge">
<title>Node27&#45;&gt;Node3</title>
<path fill="none" stroke="#191970" d="M85.1368,-341.8836C120.0702,-317.3472 217.6942,-252.3587 309.7535,-224 380.1411,-202.3172 594.2356,-186.9921 692.4932,-180.9082"/>
<polygon fill="#191970" stroke="#191970" points="692.7108,-184.4016 702.4783,-180.2972 692.2831,-177.4146 692.7108,-184.4016"/>
</g>
<!-- Node27&#45;&gt;Node10 -->
<g id="edge66" class="edge">
<title>Node27&#45;&gt;Node10</title>
<path fill="none" stroke="#191970" d="M103.6624,-341.984C174.5513,-320.8433 345.1078,-269.9794 424.1918,-246.3947"/>
<polygon fill="#191970" stroke="#191970" points="425.2395,-249.7346 433.8221,-243.5227 423.2389,-243.0266 425.2395,-249.7346"/>
</g>
<!-- Node27&#45;&gt;Node11 -->
<g id="edge67" class="edge">
<title>Node27&#45;&gt;Node11</title>
<path fill="none" stroke="#191970" d="M101.561,-341.9455C108.7805,-339.8174 116.5066,-337.6932 123.7535,-336 202.0417,-317.7083 294.7322,-303.4551 348.3354,-295.9232"/>
<polygon fill="#191970" stroke="#191970" points="349.0964,-299.3512 358.519,-294.5073 348.1323,-292.4179 349.0964,-299.3512"/>
</g>
<!-- Node28&#45;&gt;Node11 -->
<g id="edge69" class="edge">
<title>Node28&#45;&gt;Node11</title>
<path fill="none" stroke="#191970" d="M200.3587,-341.9914C206.7239,-339.9515 213.4527,-337.8536 219.7535,-336 263.3072,-323.1871 313.4863,-310.0187 348.5479,-301.0726"/>
<polygon fill="#191970" stroke="#191970" points="349.6385,-304.4068 358.4681,-298.5512 347.914,-297.6225 349.6385,-304.4068"/>
</g>
<!-- Node29&#45;&gt;Node7 -->
<g id="edge72" class="edge">
<title>Node29&#45;&gt;Node7</title>
<path fill="none" stroke="#191970" d="M916.4062,-745.9714C1043.2012,-734.73 1464.7535,-693.1349 1464.7535,-637 1464.7535,-637 1464.7535,-637 1464.7535,-234 1464.7535,-203.4754 1469.0674,-187.7032 1445.7535,-168 1419.3072,-145.6495 1197.0337,-130.634 1093.0271,-124.766"/>
<polygon fill="#191970" stroke="#191970" points="1093.221,-121.2715 1083.0419,-124.2103 1092.832,-128.2607 1093.221,-121.2715"/>
</g>
<!-- Node29&#45;&gt;Node13 -->
<g id="edge71" class="edge">
<title>Node29&#45;&gt;Node13</title>
<path fill="none" stroke="#191970" d="M848.4351,-739.3733C816.9029,-729.9807 768.7914,-715.6496 734.4034,-705.4064"/>
<polygon fill="#191970" stroke="#191970" points="735.2332,-702.0016 724.6501,-702.5011 733.2348,-708.7103 735.2332,-702.0016"/>
</g>
<!-- Node30 -->
<g id="node31" class="node">
<title>Node30</title>
<g id="a_node31"><a xlink:href="env_8h.html" target="_top" xlink:title="Environment interface. ">
<polygon fill="#ffffff" stroke="#000000" points="1066.7535,-342 1066.7535,-361 1132.7535,-361 1132.7535,-342 1066.7535,-342"/>
<text text-anchor="middle" x="1099.7535" y="-349" font-family="Helvetica,sans-Serif" font-size="10.00" fill="#000000">l4/re/env.h</text>
</a>
</g>
</g>
<!-- Node29&#45;&gt;Node30 -->
<g id="edge73" class="edge">
<title>Node29&#45;&gt;Node30</title>
<path fill="none" stroke="#191970" d="M916.3792,-740.5162C962.7008,-727.117 1037.7535,-696.2627 1037.7535,-637 1037.7535,-637 1037.7535,-637 1037.7535,-469 1037.7535,-429.7013 1065.2175,-390.665 1083.5877,-368.9499"/>
<polygon fill="#191970" stroke="#191970" points="1086.3724,-371.083 1090.337,-361.2579 1081.1107,-366.4661 1086.3724,-371.083"/>
</g>
<!-- Node30&#45;&gt;Node3 -->
<g id="edge75" class="edge">
<title>Node30&#45;&gt;Node3</title>
<path fill="none" stroke="#191970" d="M1079.6226,-341.8508C1058.1036,-331.527 1022.9934,-314.6558 992.7535,-300 912.417,-261.0649 817.7501,-214.7479 771.3351,-192.0102"/>
<polygon fill="#191970" stroke="#191970" points="772.7055,-188.7842 762.1855,-187.5272 769.6256,-195.0702 772.7055,-188.7842"/>
</g>
<!-- Node30&#45;&gt;Node5 -->
<g id="edge82" class="edge">
<title>Node30&#45;&gt;Node5</title>
<path fill="none" stroke="#191970" d="M1088.9317,-341.7418C1068.5621,-323.2385 1023.3707,-281.5396 987.7535,-244 934.3994,-187.7663 940.4545,-151.4952 873.7535,-112 847.6027,-96.5155 770.799,-82.4965 716.4747,-74.111"/>
<polygon fill="#191970" stroke="#191970" points="716.6832,-70.6026 706.2709,-72.561 715.6318,-77.5232 716.6832,-70.6026"/>
</g>
<!-- Node30&#45;&gt;Node7 -->
<g id="edge74" class="edge">
<title>Node30&#45;&gt;Node7</title>
<path fill="none" stroke="#191970" d="M1133.0009,-343.0502C1193.2928,-326.0357 1310.9657,-284.0746 1271.7535,-224 1232.3596,-163.6471 1148.3928,-138.768 1093.0229,-128.676"/>
<polygon fill="#191970" stroke="#191970" points="1093.4826,-125.2038 1083.0341,-126.9585 1092.2963,-132.1025 1093.4826,-125.2038"/>
</g>
<!-- Node31 -->
<g id="node32" class="node">
<title>Node31</title>
<g id="a_node32"><a xlink:href="sys_2kip_8h.html" target="_top" xlink:title="Kernel Info Page access functions. ">
<polygon fill="#ffffff" stroke="#000000" points="1096.7535,-280.5 1096.7535,-299.5 1164.7535,-299.5 1164.7535,-280.5 1096.7535,-280.5"/>
<text text-anchor="middle" x="1130.7535" y="-287.5" font-family="Helvetica,sans-Serif" font-size="10.00" fill="#000000">l4/sys/kip.h</text>
</a>
</g>
</g>
<!-- Node30&#45;&gt;Node31 -->
<g id="edge76" class="edge">
<title>Node30&#45;&gt;Node31</title>
<path fill="none" stroke="#191970" d="M1104.5972,-341.8906C1109.0301,-333.0965 1115.7166,-319.8312 1121.2193,-308.9145"/>
<polygon fill="#191970" stroke="#191970" points="1124.4657,-310.25 1125.8415,-299.7449 1118.2149,-307.0992 1124.4657,-310.25"/>
</g>
<!-- Node34 -->
<g id="node35" class="node">
<title>Node34</title>
<g id="a_node35"><a xlink:href="l4_2re_2consts_8h.html" target="_top" xlink:title="Constants. ">
<polygon fill="#ffffff" stroke="#000000" points="1356.7535,-168.5 1356.7535,-187.5 1436.7535,-187.5 1436.7535,-168.5 1356.7535,-168.5"/>
<text text-anchor="middle" x="1396.7535" y="-175.5" font-family="Helvetica,sans-Serif" font-size="10.00" fill="#000000">l4/re/consts.h</text>
</a>
</g>
</g>
<!-- Node30&#45;&gt;Node34 -->
<g id="edge83" class="edge">
<title>Node30&#45;&gt;Node34</title>
<path fill="none" stroke="#191970" d="M1133.0712,-348.1927C1191.8687,-341.7587 1310.8518,-325.8753 1342.7535,-300 1374.8495,-273.9672 1388.4367,-224.9619 1393.7243,-197.6502"/>
<polygon fill="#191970" stroke="#191970" points="1397.187,-198.1674 1395.4639,-187.7136 1390.2918,-196.9602 1397.187,-198.1674"/>
</g>
<!-- Node31&#45;&gt;Node4 -->
<g id="edge78" class="edge">
<title>Node31&#45;&gt;Node4</title>
<path fill="none" stroke="#191970" d="M1164.872,-287.4657C1213.8509,-282.3018 1295.7085,-267.1191 1271.7535,-224 1212.3156,-117.0118 1056.9021,-81.9815 978.0724,-70.8988"/>
<polygon fill="#191970" stroke="#191970" points="978.3082,-67.3993 967.9332,-69.5465 977.3827,-74.3379 978.3082,-67.3993"/>
</g>
<!-- Node31&#45;&gt;Node5 -->
<g id="edge77" class="edge">
<title>Node31&#45;&gt;Node5</title>
<path fill="none" stroke="#191970" d="M1130.2726,-280.4316C1129.1155,-266.574 1125.1744,-240.7489 1111.7535,-224 1046.8321,-142.9798 1004.5729,-146.7912 906.7535,-112 843.8374,-89.6228 767.878,-77.5825 716.7394,-71.5043"/>
<polygon fill="#191970" stroke="#191970" points="716.8701,-67.9964 706.5358,-70.3316 716.0707,-74.9506 716.8701,-67.9964"/>
</g>
<!-- Node32 -->
<g id="node33" class="node">
<title>Node32</title>
<polygon fill="#ffffff" stroke="#bfbfbf" points="1158.7535,-224.5 1158.7535,-243.5 1262.7535,-243.5 1262.7535,-224.5 1158.7535,-224.5"/>
<text text-anchor="middle" x="1210.7535" y="-231.5" font-family="Helvetica,sans-Serif" font-size="10.00" fill="#000000">l4/sys/__kip&#45;arch.h</text>
</g>
<!-- Node31&#45;&gt;Node32 -->
<g id="edge79" class="edge">
<title>Node31&#45;&gt;Node32</title>
<path fill="none" stroke="#191970" d="M1144.6884,-280.2455C1156.8482,-271.7337 1174.6999,-259.2375 1188.782,-249.3801"/>
<polygon fill="#191970" stroke="#191970" points="1190.793,-252.2447 1196.9782,-243.6427 1186.7788,-246.51 1190.793,-252.2447"/>
</g>
<!-- Node33 -->
<g id="node34" class="node">
<title>Node33</title>
<g id="a_node34"><a xlink:href="____kip-64bit_8h_source.html" target="_top" xlink:title="l4/sys/__kip&#45;64bit.h">
<polygon fill="#ffffff" stroke="#000000" points="996.7535,-224.5 996.7535,-243.5 1102.7535,-243.5 1102.7535,-224.5 996.7535,-224.5"/>
<text text-anchor="middle" x="1049.7535" y="-231.5" font-family="Helvetica,sans-Serif" font-size="10.00" fill="#000000">l4/sys/__kip&#45;64bit.h</text>
</a>
</g>
</g>
<!-- Node31&#45;&gt;Node33 -->
<g id="edge80" class="edge">
<title>Node31&#45;&gt;Node33</title>
<path fill="none" stroke="#191970" d="M1116.6444,-280.2455C1104.3326,-271.7337 1086.2577,-259.2375 1071.9997,-249.3801"/>
<polygon fill="#191970" stroke="#191970" points="1073.9169,-246.4506 1063.7009,-243.6427 1069.9361,-252.2085 1073.9169,-246.4506"/>
</g>
<!-- Node33&#45;&gt;Node3 -->
<g id="edge81" class="edge">
<title>Node33&#45;&gt;Node3</title>
<path fill="none" stroke="#191970" d="M997.3271,-224.4369C940.2549,-214.0263 849.6251,-197.4945 793.3021,-187.2206"/>
<polygon fill="#191970" stroke="#191970" points="793.6661,-183.7293 783.2004,-185.3779 792.4099,-190.6157 793.6661,-183.7293"/>
</g>
<!-- Node34&#45;&gt;Node7 -->
<g id="edge84" class="edge">
<title>Node34&#45;&gt;Node7</title>
<path fill="none" stroke="#191970" d="M1356.6746,-170.4284C1351.9854,-169.5869 1347.2664,-168.7602 1342.7535,-168 1255.4604,-153.2951 1153.6522,-138.2745 1093.066,-129.5596"/>
<polygon fill="#191970" stroke="#191970" points="1093.3715,-126.0676 1082.9757,-128.1116 1092.3772,-132.9966 1093.3715,-126.0676"/>
</g>
</g>
</svg>
