<?xml version="1.0" encoding="UTF-8" standalone="no"?>
<!DOCTYPE svg PUBLIC "-//W3C//DTD SVG 1.1//EN"
 "http://www.w3.org/Graphics/SVG/1.1/DTD/svg11.dtd">
<!-- Generated by graphviz version 2.40.1 (20161225.0304)
 -->
<!-- Title: l4/re/dataspace Pages: 1 -->
<svg width="1003pt" height="767pt"
 viewBox="0.00 0.00 1003.00 767.00" xmlns="http://www.w3.org/2000/svg" xmlns:xlink="http://www.w3.org/1999/xlink">
<g id="graph0" class="graph" transform="scale(1 1) rotate(0) translate(4 763)">
<title>l4/re/dataspace</title>
<polygon fill="#ffffff" stroke="transparent" points="-4,4 -4,-763 999,-763 999,4 -4,4"/>
<!-- Node0 -->
<g id="node1" class="node">
<title>Node0</title>
<polygon fill="#bfbfbf" stroke="#000000" points="508,-739.5 508,-758.5 598,-758.5 598,-739.5 508,-739.5"/>
<text text-anchor="middle" x="553" y="-746.5" font-family="Helvetica,sans-Serif" font-size="10.00" fill="#000000">l4/re/dataspace</text>
</g>
<!-- Node1 -->
<g id="node2" class="node">
<title>Node1</title>
<g id="a_node2"><a xlink:href="l4_2sys_2types_8h.html" target="_top" xlink:title="Common L4 ABI Data Types. ">
<polygon fill="#ffffff" stroke="#000000" points="283,-168.5 283,-187.5 363,-187.5 363,-168.5 283,-168.5"/>
<text text-anchor="middle" x="323" y="-175.5" font-family="Helvetica,sans-Serif" font-size="10.00" fill="#000000">l4/sys/types.h</text>
</a>
</g>
</g>
<!-- Node0&#45;&gt;Node1 -->
<g id="edge1" class="edge">
<title>Node0&#45;&gt;Node1</title>
<path fill="none" stroke="#191970" d="M507.7485,-743.9477C382.0791,-729.3111 38,-684.8658 38,-637 38,-637 38,-637 38,-290 38,-251.2415 61.5346,-243.5522 95,-224 124.6022,-206.7048 215.2465,-192.115 272.9305,-184.2508"/>
<polygon fill="#191970" stroke="#191970" points="273.4979,-187.7062 282.944,-182.9079 272.5674,-180.7683 273.4979,-187.7062"/>
</g>
<!-- Node2 -->
<g id="node3" class="node">
<title>Node2</title>
<g id="a_node3"><a xlink:href="l4_2sys_2l4int_8h.html" target="_top" xlink:title="Fixed sized integer types, generic version. ">
<polygon fill="#ffffff" stroke="#000000" points="207,-56.5 207,-75.5 281,-75.5 281,-56.5 207,-56.5"/>
<text text-anchor="middle" x="244" y="-63.5" font-family="Helvetica,sans-Serif" font-size="10.00" fill="#000000">l4/sys/l4int.h</text>
</a>
</g>
</g>
<!-- Node0&#45;&gt;Node2 -->
<g id="edge12" class="edge">
<title>Node0&#45;&gt;Node2</title>
<path fill="none" stroke="#191970" d="M507.7625,-746.0562C414.2132,-739.6408 202.4287,-723.3305 133,-703 69.6702,-684.4554 0,-702.9891 0,-637 0,-637 0,-637 0,-178 0,-135.1292 125.9866,-96.0395 196.9001,-77.4329"/>
<polygon fill="#191970" stroke="#191970" points="198.1353,-80.7288 206.9417,-74.8383 196.384,-73.9514 198.1353,-80.7288"/>
</g>
<!-- Node8 -->
<g id="node9" class="node">
<title>Node8</title>
<g id="a_node9"><a xlink:href="capability.html" target="_top" xlink:title="L4::Cap related definitions. ">
<polygon fill="#ffffff" stroke="#000000" points="344,-683.5 344,-702.5 434,-702.5 434,-683.5 344,-683.5"/>
<text text-anchor="middle" x="389" y="-690.5" font-family="Helvetica,sans-Serif" font-size="10.00" fill="#000000">l4/sys/capability</text>
</a>
</g>
</g>
<!-- Node0&#45;&gt;Node8 -->
<g id="edge13" class="edge">
<title>Node0&#45;&gt;Node8</title>
<path fill="none" stroke="#191970" d="M524.8074,-739.3733C497.6547,-730.1016 456.4093,-716.0178 426.4975,-705.804"/>
<polygon fill="#191970" stroke="#191970" points="427.4192,-702.4204 416.8247,-702.5011 425.1572,-709.0449 427.4192,-702.4204"/>
</g>
<!-- Node16 -->
<g id="node17" class="node">
<title>Node16</title>
<g id="a_node17"><a xlink:href="types.html" target="_top" xlink:title="cxx/types">
<polygon fill="#ffffff" stroke="#000000" points="748.5,-342 748.5,-361 809.5,-361 809.5,-342 748.5,-342"/>
<text text-anchor="middle" x="779" y="-349" font-family="Helvetica,sans-Serif" font-size="10.00" fill="#000000">cxx/types</text>
</a>
</g>
</g>
<!-- Node0&#45;&gt;Node16 -->
<g id="edge65" class="edge">
<title>Node0&#45;&gt;Node16</title>
<path fill="none" stroke="#191970" d="M598.1118,-742.9353C686.7307,-729.7529 875,-694.9302 875,-637 875,-637 875,-637 875,-469 875,-424.0753 832.3952,-386.8602 803.9508,-367.0203"/>
<polygon fill="#191970" stroke="#191970" points="805.5383,-363.8705 795.2851,-361.2016 801.636,-369.6819 805.5383,-363.8705"/>
</g>
<!-- Node21 -->
<g id="node22" class="node">
<title>Node21</title>
<g id="a_node22"><a xlink:href="ipc__iface.html" target="_top" xlink:title="Interface Definition Language. ">
<polygon fill="#ffffff" stroke="#000000" points="489.5,-515.5 489.5,-534.5 566.5,-534.5 566.5,-515.5 489.5,-515.5"/>
<text text-anchor="middle" x="528" y="-522.5" font-family="Helvetica,sans-Serif" font-size="10.00" fill="#000000">cxx/ipc_iface</text>
</a>
</g>
</g>
<!-- Node0&#45;&gt;Node21 -->
<g id="edge64" class="edge">
<title>Node0&#45;&gt;Node21</title>
<path fill="none" stroke="#191970" d="M551.9258,-739.375C548.1354,-705.4133 535.3379,-590.7472 530.1807,-544.5392"/>
<polygon fill="#191970" stroke="#191970" points="533.6579,-544.1392 529.0702,-534.5891 526.7011,-544.9157 533.6579,-544.1392"/>
</g>
<!-- Node22 -->
<g id="node23" class="node">
<title>Node22</title>
<g id="a_node23"><a xlink:href="ipc__types.html" target="_top" xlink:title="l4/sys/cxx/ipc_types">
<polygon fill="#ffffff" stroke="#000000" points="623,-459.5 623,-478.5 733,-478.5 733,-459.5 623,-459.5"/>
<text text-anchor="middle" x="678" y="-466.5" font-family="Helvetica,sans-Serif" font-size="10.00" fill="#000000">l4/sys/cxx/ipc_types</text>
</a>
</g>
</g>
<!-- Node0&#45;&gt;Node22 -->
<g id="edge63" class="edge">
<title>Node0&#45;&gt;Node22</title>
<path fill="none" stroke="#191970" d="M598.0006,-740.9179C678.0809,-725.2449 837,-687.7486 837,-637 837,-637 837,-637 837,-581 837,-526.7808 774.441,-496.5137 727.8043,-481.4832"/>
<polygon fill="#191970" stroke="#191970" points="728.7095,-478.0998 718.1224,-478.5039 726.6508,-484.7903 728.7095,-478.0998"/>
</g>
<!-- Node25 -->
<g id="node26" class="node">
<title>Node25</title>
<g id="a_node26"><a xlink:href="protocols_8h.html" target="_top" xlink:title="L4Re Protocol Constants (C version) ">
<polygon fill="#ffffff" stroke="#000000" points="903,-683.5 903,-702.5 995,-702.5 995,-683.5 903,-683.5"/>
<text text-anchor="middle" x="949" y="-690.5" font-family="Helvetica,sans-Serif" font-size="10.00" fill="#000000">l4/re/protocols.h</text>
</a>
</g>
</g>
<!-- Node0&#45;&gt;Node25 -->
<g id="edge62" class="edge">
<title>Node0&#45;&gt;Node25</title>
<path fill="none" stroke="#191970" d="M598.1681,-743.2405C662.7315,-734.9114 785.0933,-718.7681 889,-703 890.2627,-702.8084 891.54,-702.6126 892.8277,-702.4133"/>
<polygon fill="#191970" stroke="#191970" points="893.502,-705.8503 902.8338,-700.8334 892.4102,-698.936 893.502,-705.8503"/>
</g>
<!-- Node1&#45;&gt;Node2 -->
<g id="edge2" class="edge">
<title>Node1&#45;&gt;Node2</title>
<path fill="none" stroke="#191970" d="M282.656,-170.0942C245.9511,-161.9851 195.7592,-148.2779 184,-132 170.3525,-113.1082 193.4884,-93.6184 214.8753,-80.763"/>
<polygon fill="#191970" stroke="#191970" points="216.8554,-83.6635 223.8216,-75.6809 213.3978,-77.577 216.8554,-83.6635"/>
</g>
<!-- Node3 -->
<g id="node4" class="node">
<title>Node3</title>
<g id="a_node4"><a xlink:href="compiler_8h.html" target="_top" xlink:title="L4 compiler related defines. ">
<polygon fill="#ffffff" stroke="#000000" points="545.5,-56.5 545.5,-75.5 640.5,-75.5 640.5,-56.5 545.5,-56.5"/>
<text text-anchor="middle" x="593" y="-63.5" font-family="Helvetica,sans-Serif" font-size="10.00" fill="#000000">l4/sys/compiler.h</text>
</a>
</g>
</g>
<!-- Node1&#45;&gt;Node3 -->
<g id="edge3" class="edge">
<title>Node1&#45;&gt;Node3</title>
<path fill="none" stroke="#191970" d="M322.8127,-168.2953C323.0972,-153.7798 325.9142,-126.5666 342,-112 369.7422,-86.8779 470.2013,-74.8793 535.3058,-69.6244"/>
<polygon fill="#191970" stroke="#191970" points="535.7356,-73.1017 545.4346,-68.838 535.1937,-66.1227 535.7356,-73.1017"/>
</g>
<!-- Node5 -->
<g id="node6" class="node">
<title>Node5</title>
<g id="a_node6"><a xlink:href="l4_2sys_2consts_8h.html" target="_top" xlink:title="Common constants. ">
<polygon fill="#ffffff" stroke="#000000" points="515,-112.5 515,-131.5 601,-131.5 601,-112.5 515,-112.5"/>
<text text-anchor="middle" x="558" y="-119.5" font-family="Helvetica,sans-Serif" font-size="10.00" fill="#000000">l4/sys/consts.h</text>
</a>
</g>
</g>
<!-- Node1&#45;&gt;Node5 -->
<g id="edge5" class="edge">
<title>Node1&#45;&gt;Node5</title>
<path fill="none" stroke="#191970" d="M363.1309,-168.4369C403.2649,-158.8731 465.0775,-144.1432 508.2933,-133.845"/>
<polygon fill="#191970" stroke="#191970" points="509.1183,-137.2465 518.0346,-131.5237 507.4956,-130.4372 509.1183,-137.2465"/>
</g>
<!-- Node6 -->
<g id="node7" class="node">
<title>Node6</title>
<g id="a_node7"><a xlink:href="____l4__fpage_8h_source.html" target="_top" xlink:title="l4/sys/__l4_fpage.h">
<polygon fill="#ffffff" stroke="#000000" points="351,-112.5 351,-131.5 459,-131.5 459,-112.5 351,-112.5"/>
<text text-anchor="middle" x="405" y="-119.5" font-family="Helvetica,sans-Serif" font-size="10.00" fill="#000000">l4/sys/__l4_fpage.h</text>
</a>
</g>
</g>
<!-- Node1&#45;&gt;Node6 -->
<g id="edge8" class="edge">
<title>Node1&#45;&gt;Node6</title>
<path fill="none" stroke="#191970" d="M337.2833,-168.2455C349.747,-159.7337 368.0451,-147.2375 382.4792,-137.3801"/>
<polygon fill="#191970" stroke="#191970" points="384.5962,-140.1726 390.8804,-131.6427 380.6485,-134.392 384.5962,-140.1726"/>
</g>
<!-- Node7 -->
<g id="node8" class="node">
<title>Node7</title>
<g id="a_node8"><a xlink:href="____timeout_8h_source.html" target="_top" xlink:title="l4/sys/__timeout.h">
<polygon fill="#ffffff" stroke="#000000" points="193.5,-112.5 193.5,-131.5 294.5,-131.5 294.5,-112.5 193.5,-112.5"/>
<text text-anchor="middle" x="244" y="-119.5" font-family="Helvetica,sans-Serif" font-size="10.00" fill="#000000">l4/sys/__timeout.h</text>
</a>
</g>
</g>
<!-- Node1&#45;&gt;Node7 -->
<g id="edge10" class="edge">
<title>Node1&#45;&gt;Node7</title>
<path fill="none" stroke="#191970" d="M309.2393,-168.2455C297.3448,-159.814 279.935,-147.4729 266.0915,-137.6598"/>
<polygon fill="#191970" stroke="#191970" points="267.7854,-134.5704 257.6031,-131.6427 263.7372,-140.2811 267.7854,-134.5704"/>
</g>
<!-- Node4 -->
<g id="node5" class="node">
<title>Node4</title>
<polygon fill="#ffffff" stroke="#bfbfbf" points="548.5,-.5 548.5,-19.5 637.5,-19.5 637.5,-.5 548.5,-.5"/>
<text text-anchor="middle" x="593" y="-7.5" font-family="Helvetica,sans-Serif" font-size="10.00" fill="#000000">l4/sys/linkage.h</text>
</g>
<!-- Node3&#45;&gt;Node4 -->
<g id="edge4" class="edge">
<title>Node3&#45;&gt;Node4</title>
<path fill="none" stroke="#191970" d="M593,-56.2455C593,-48.9382 593,-38.6944 593,-29.7046"/>
<polygon fill="#191970" stroke="#191970" points="596.5001,-29.6426 593,-19.6427 589.5001,-29.6427 596.5001,-29.6426"/>
</g>
<!-- Node5&#45;&gt;Node2 -->
<g id="edge7" class="edge">
<title>Node5&#45;&gt;Node2</title>
<path fill="none" stroke="#191970" d="M514.998,-114.3309C456.4094,-103.8819 351.8671,-85.2375 291.181,-74.4144"/>
<polygon fill="#191970" stroke="#191970" points="291.5656,-70.9279 281.1064,-72.6177 290.3365,-77.8192 291.5656,-70.9279"/>
</g>
<!-- Node5&#45;&gt;Node3 -->
<g id="edge6" class="edge">
<title>Node5&#45;&gt;Node3</title>
<path fill="none" stroke="#191970" d="M564.0965,-112.2455C568.9145,-104.5367 575.7751,-93.5598 581.6032,-84.2348"/>
<polygon fill="#191970" stroke="#191970" points="584.6413,-85.9777 586.9733,-75.6427 578.7053,-82.2677 584.6413,-85.9777"/>
</g>
<!-- Node6&#45;&gt;Node3 -->
<g id="edge9" class="edge">
<title>Node6&#45;&gt;Node3</title>
<path fill="none" stroke="#191970" d="M437.3184,-112.3733C468.8506,-102.9807 516.9621,-88.6496 551.3501,-78.4064"/>
<polygon fill="#191970" stroke="#191970" points="552.5187,-81.7103 561.1034,-75.5011 550.5203,-75.0016 552.5187,-81.7103"/>
</g>
<!-- Node7&#45;&gt;Node2 -->
<g id="edge11" class="edge">
<title>Node7&#45;&gt;Node2</title>
<path fill="none" stroke="#191970" d="M244,-112.2455C244,-104.9382 244,-94.6944 244,-85.7046"/>
<polygon fill="#191970" stroke="#191970" points="247.5001,-85.6426 244,-75.6427 240.5001,-85.6427 247.5001,-85.6426"/>
</g>
<!-- Node8&#45;&gt;Node1 -->
<g id="edge15" class="edge">
<title>Node8&#45;&gt;Node1</title>
<path fill="none" stroke="#191970" d="M343.8214,-686.4851C257.1421,-672.7099 76,-637.1994 76,-581 76,-581 76,-581 76,-290 76,-252.6561 96.5114,-244.0757 128,-224 151.7349,-208.8677 223.4014,-194.4829 272.9053,-185.9488"/>
<polygon fill="#191970" stroke="#191970" points="273.5248,-189.3938 282.7983,-184.27 272.3536,-182.4925 273.5248,-189.3938"/>
</g>
<!-- Node8&#45;&gt;Node5 -->
<g id="edge14" class="edge">
<title>Node8&#45;&gt;Node5</title>
<path fill="none" stroke="#191970" d="M394.607,-683.4834C405.1774,-664.6141 427,-620.8343 427,-581 427,-581 427,-581 427,-469 427,-438.4754 429.6842,-428.7982 446,-403 486.5617,-338.8645 574,-365.8856 574,-290 574,-290 574,-290 574,-234 574,-201.2342 567.2061,-163.6134 562.4725,-141.3778"/>
<polygon fill="#191970" stroke="#191970" points="565.8698,-140.5307 560.2924,-131.5228 559.0351,-142.0428 565.8698,-140.5307"/>
</g>
<!-- Node9 -->
<g id="node10" class="node">
<title>Node9</title>
<g id="a_node10"><a xlink:href="kobject_source.html" target="_top" xlink:title="l4/sys/kobject">
<polygon fill="#ffffff" stroke="#000000" points="243,-515.5 243,-534.5 323,-534.5 323,-515.5 243,-515.5"/>
<text text-anchor="middle" x="283" y="-522.5" font-family="Helvetica,sans-Serif" font-size="10.00" fill="#000000">l4/sys/kobject</text>
</a>
</g>
</g>
<!-- Node8&#45;&gt;Node9 -->
<g id="edge16" class="edge">
<title>Node8&#45;&gt;Node9</title>
<path fill="none" stroke="#191970" d="M375.1279,-683.3764C363.6933,-674.8765 347.6753,-661.5916 337,-647 313.1729,-614.4318 296.7671,-569.6889 288.7168,-544.4256"/>
<polygon fill="#191970" stroke="#191970" points="291.9781,-543.123 285.6948,-534.5924 285.2869,-545.1794 291.9781,-543.123"/>
</g>
<!-- Node19 -->
<g id="node20" class="node">
<title>Node19</title>
<g id="a_node20"><a xlink:href="l4_2sys_2task_8h.html" target="_top" xlink:title="Common task related definitions. ">
<polygon fill="#ffffff" stroke="#000000" points="396,-342 396,-361 470,-361 470,-342 396,-342"/>
<text text-anchor="middle" x="433" y="-349" font-family="Helvetica,sans-Serif" font-size="10.00" fill="#000000">l4/sys/task.h</text>
</a>
</g>
</g>
<!-- Node8&#45;&gt;Node19 -->
<g id="edge45" class="edge">
<title>Node8&#45;&gt;Node19</title>
<path fill="none" stroke="#191970" d="M383.393,-683.4834C372.8226,-664.6141 351,-620.8343 351,-581 351,-581 351,-581 351,-469 351,-426.4986 387.5251,-388.3906 411.8213,-367.743"/>
<polygon fill="#191970" stroke="#191970" points="414.3054,-370.2326 419.8253,-361.1892 409.8707,-364.8165 414.3054,-370.2326"/>
</g>
<!-- Node20 -->
<g id="node21" class="node">
<title>Node20</title>
<g id="a_node21"><a xlink:href="sys_2meta.html" target="_top" xlink:title="Meta interface for getting dynamic type information about objects behind capabilities. ">
<polygon fill="#ffffff" stroke="#000000" points="455,-627.5 455,-646.5 525,-646.5 525,-627.5 455,-627.5"/>
<text text-anchor="middle" x="490" y="-634.5" font-family="Helvetica,sans-Serif" font-size="10.00" fill="#000000">l4/sys/meta</text>
</a>
</g>
</g>
<!-- Node8&#45;&gt;Node20 -->
<g id="edge46" class="edge">
<title>Node8&#45;&gt;Node20</title>
<path fill="none" stroke="#191970" d="M406.5929,-683.2455C422.379,-674.4928 445.7639,-661.527 463.7587,-651.5496"/>
<polygon fill="#191970" stroke="#191970" points="465.5603,-654.5528 472.6087,-646.6427 462.1659,-648.4308 465.5603,-654.5528"/>
</g>
<!-- Node9&#45;&gt;Node1 -->
<g id="edge31" class="edge">
<title>Node9&#45;&gt;Node1</title>
<path fill="none" stroke="#191970" d="M242.9494,-516.9577C192.9738,-504.3173 114,-474.5975 114,-413 114,-413 114,-413 114,-290 114,-218.2484 210.8825,-192.2826 272.7232,-183.017"/>
<polygon fill="#191970" stroke="#191970" points="273.2846,-186.4727 282.7027,-181.6198 272.314,-179.5403 273.2846,-186.4727"/>
</g>
<!-- Node10 -->
<g id="node11" class="node">
<title>Node10</title>
<g id="a_node11"><a xlink:href="kernel__object_8h.html" target="_top" xlink:title="Kernel object system calls. ">
<polygon fill="#ffffff" stroke="#000000" points="235,-403.5 235,-422.5 323,-422.5 323,-403.5 235,-403.5"/>
<text text-anchor="middle" x="279" y="-410.5" font-family="Helvetica,sans-Serif" font-size="10.00" fill="#000000">kernel_object.h</text>
</a>
</g>
</g>
<!-- Node9&#45;&gt;Node10 -->
<g id="edge17" class="edge">
<title>Node9&#45;&gt;Node10</title>
<path fill="none" stroke="#191970" d="M282.659,-515.4509C282.0066,-497.184 280.5698,-456.9553 279.7035,-432.6976"/>
<polygon fill="#191970" stroke="#191970" points="283.195,-432.3936 279.3402,-422.5249 276.1994,-432.6435 283.195,-432.3936"/>
</g>
<!-- Node15 -->
<g id="node16" class="node">
<title>Node15</title>
<g id="a_node16"><a xlink:href="____typeinfo_8h.html" target="_top" xlink:title="Type information handling. ">
<polygon fill="#ffffff" stroke="#000000" points="455,-459.5 455,-478.5 529,-478.5 529,-459.5 455,-459.5"/>
<text text-anchor="middle" x="492" y="-466.5" font-family="Helvetica,sans-Serif" font-size="10.00" fill="#000000">__typeinfo.h</text>
</a>
</g>
</g>
<!-- Node9&#45;&gt;Node15 -->
<g id="edge32" class="edge">
<title>Node9&#45;&gt;Node15</title>
<path fill="none" stroke="#191970" d="M318.9284,-515.3733C354.2837,-505.9001 408.388,-491.4032 446.6788,-481.1435"/>
<polygon fill="#191970" stroke="#191970" points="447.787,-484.4701 456.5405,-478.5011 445.9753,-477.7086 447.787,-484.4701"/>
</g>
<!-- Node10&#45;&gt;Node1 -->
<g id="edge18" class="edge">
<title>Node10&#45;&gt;Node1</title>
<path fill="none" stroke="#191970" d="M248.2809,-403.4362C231.0926,-396.3313 211.1368,-384.7464 201,-367 194.1663,-355.0364 196.7185,-349.0956 201,-336 220.702,-275.7384 274.5476,-220.9179 303.6764,-194.536"/>
<polygon fill="#191970" stroke="#191970" points="306.3641,-196.8306 311.5234,-187.5768 301.7195,-191.5934 306.3641,-196.8306"/>
</g>
<!-- Node10&#45;&gt;Node3 -->
<g id="edge19" class="edge">
<title>Node10&#45;&gt;Node3</title>
<path fill="none" stroke="#191970" d="M323.1843,-406.8454C374.2071,-399.0558 454.2973,-384.5193 479,-367 579.2971,-295.8684 592.647,-250.6275 625,-132 627.3388,-123.4243 627.66,-120.4816 625,-112 621.7504,-101.6383 615.2506,-91.5669 608.9529,-83.5026"/>
<polygon fill="#191970" stroke="#191970" points="611.4619,-81.047 602.3618,-75.6212 606.0921,-85.5376 611.4619,-81.047"/>
</g>
<!-- Node11 -->
<g id="node12" class="node">
<title>Node11</title>
<g id="a_node12"><a xlink:href="l4_2sys_2utcb_8h.html" target="_top" xlink:title="UTCB definitions. ">
<polygon fill="#ffffff" stroke="#000000" points="472,-224.5 472,-243.5 546,-243.5 546,-224.5 472,-224.5"/>
<text text-anchor="middle" x="509" y="-231.5" font-family="Helvetica,sans-Serif" font-size="10.00" fill="#000000">l4/sys/utcb.h</text>
</a>
</g>
</g>
<!-- Node10&#45;&gt;Node11 -->
<g id="edge20" class="edge">
<title>Node10&#45;&gt;Node11</title>
<path fill="none" stroke="#191970" d="M253.115,-403.4647C237.2773,-396.1252 218.3206,-384.2779 209,-367 202.4587,-354.8741 202.2499,-348.011 209,-336 232.4518,-294.2703 256.5861,-297.8539 301,-280 354.0527,-258.6734 418.8889,-246.3287 461.9261,-239.8956"/>
<polygon fill="#191970" stroke="#191970" points="462.4437,-243.3572 471.8392,-238.4607 461.4409,-236.4294 462.4437,-243.3572"/>
</g>
<!-- Node12 -->
<g id="node13" class="node">
<title>Node12</title>
<g id="a_node13"><a xlink:href="____kernel__object__impl_8h.html" target="_top" xlink:title="Low&#45;level kernel debugger functions. ">
<polygon fill="#ffffff" stroke="#000000" points="218,-336.5 218,-366.5 340,-366.5 340,-336.5 218,-336.5"/>
<text text-anchor="start" x="226" y="-354.5" font-family="Helvetica,sans-Serif" font-size="10.00" fill="#000000">l4/sys/__kernel_object</text>
<text text-anchor="middle" x="279" y="-343.5" font-family="Helvetica,sans-Serif" font-size="10.00" fill="#000000">_impl.h</text>
</a>
</g>
</g>
<!-- Node10&#45;&gt;Node12 -->
<g id="edge24" class="edge">
<title>Node10&#45;&gt;Node12</title>
<path fill="none" stroke="#191970" d="M279,-403.3906C279,-396.2234 279,-386.0862 279,-376.671"/>
<polygon fill="#191970" stroke="#191970" points="282.5001,-376.5446 279,-366.5446 275.5001,-376.5446 282.5001,-376.5446"/>
</g>
<!-- Node13 -->
<g id="node14" class="node">
<title>Node13</title>
<g id="a_node14"><a xlink:href="l4_2sys_2ipc_8h.html" target="_top" xlink:title="Common IPC interface. ">
<polygon fill="#ffffff" stroke="#000000" points="310,-280.5 310,-299.5 378,-299.5 378,-280.5 310,-280.5"/>
<text text-anchor="middle" x="344" y="-287.5" font-family="Helvetica,sans-Serif" font-size="10.00" fill="#000000">l4/sys/ipc.h</text>
</a>
</g>
</g>
<!-- Node10&#45;&gt;Node13 -->
<g id="edge30" class="edge">
<title>Node10&#45;&gt;Node13</title>
<path fill="none" stroke="#191970" d="M304.885,-403.4647C320.7227,-396.1252 339.6794,-384.2779 349,-367 358.5999,-349.2043 355.1415,-325.626 350.6859,-309.2701"/>
<polygon fill="#191970" stroke="#191970" points="354.027,-308.2271 347.7412,-299.6983 347.3364,-310.2854 354.027,-308.2271"/>
</g>
<!-- Node11&#45;&gt;Node1 -->
<g id="edge21" class="edge">
<title>Node11&#45;&gt;Node1</title>
<path fill="none" stroke="#191970" d="M477.0255,-224.3733C445.8287,-214.9807 398.229,-200.6496 364.2068,-190.4064"/>
<polygon fill="#191970" stroke="#191970" points="365.1418,-187.0327 354.5573,-187.5011 363.1237,-193.7355 365.1418,-187.0327"/>
</g>
<!-- Node11&#45;&gt;Node2 -->
<g id="edge23" class="edge">
<title>Node11&#45;&gt;Node2</title>
<path fill="none" stroke="#191970" d="M508.823,-224.3436C507.8443,-201.1622 501.9647,-142.0648 468,-112 442.2702,-89.2245 348.9149,-76.2173 291.1552,-70.1817"/>
<polygon fill="#191970" stroke="#191970" points="291.4604,-66.6948 281.1586,-69.1694 290.755,-73.6592 291.4604,-66.6948"/>
</g>
<!-- Node11&#45;&gt;Node3 -->
<g id="edge22" class="edge">
<title>Node11&#45;&gt;Node3</title>
<path fill="none" stroke="#191970" d="M524.3344,-224.3968C548.0114,-208.5474 592.5567,-174.4071 610,-132 616.3128,-116.6528 610.6062,-98.3122 604.1552,-84.8645"/>
<polygon fill="#191970" stroke="#191970" points="607.0489,-82.8515 599.2638,-75.6653 600.8684,-86.1379 607.0489,-82.8515"/>
</g>
<!-- Node12&#45;&gt;Node13 -->
<g id="edge25" class="edge">
<title>Node12&#45;&gt;Node13</title>
<path fill="none" stroke="#191970" d="M295.0674,-336.2977C304.466,-327.4052 316.3527,-316.1586 326.057,-306.9769"/>
<polygon fill="#191970" stroke="#191970" points="328.7342,-309.2621 333.5927,-299.8469 323.9232,-304.1774 328.7342,-309.2621"/>
</g>
<!-- Node13&#45;&gt;Node1 -->
<g id="edge26" class="edge">
<title>Node13&#45;&gt;Node1</title>
<path fill="none" stroke="#191970" d="M342.2096,-280.4509C338.769,-262.1013 331.1733,-221.5908 326.6317,-197.3693"/>
<polygon fill="#191970" stroke="#191970" points="330.0689,-196.7086 324.7859,-187.5249 323.1888,-197.9986 330.0689,-196.7086"/>
</g>
<!-- Node13&#45;&gt;Node11 -->
<g id="edge27" class="edge">
<title>Node13&#45;&gt;Node11</title>
<path fill="none" stroke="#191970" d="M372.3645,-280.3733C399.6827,-271.1016 441.1796,-257.0178 471.2738,-246.804"/>
<polygon fill="#191970" stroke="#191970" points="472.661,-250.0294 481.0056,-243.5011 470.4113,-243.4008 472.661,-250.0294"/>
</g>
<!-- Node14 -->
<g id="node15" class="node">
<title>Node14</title>
<g id="a_node15"><a xlink:href="err_8h.html" target="_top" xlink:title="Error codes. ">
<polygon fill="#ffffff" stroke="#000000" points="678,-224.5 678,-243.5 746,-243.5 746,-224.5 678,-224.5"/>
<text text-anchor="middle" x="712" y="-231.5" font-family="Helvetica,sans-Serif" font-size="10.00" fill="#000000">l4/sys/err.h</text>
</a>
</g>
</g>
<!-- Node13&#45;&gt;Node14 -->
<g id="edge28" class="edge">
<title>Node13&#45;&gt;Node14</title>
<path fill="none" stroke="#191970" d="M378.2901,-284.7819C445.3481,-274.5775 593.7638,-251.9925 667.9684,-240.7005"/>
<polygon fill="#191970" stroke="#191970" points="668.5706,-244.1492 677.9302,-239.1845 667.5175,-237.2289 668.5706,-244.1492"/>
</g>
<!-- Node14&#45;&gt;Node3 -->
<g id="edge29" class="edge">
<title>Node14&#45;&gt;Node3</title>
<path fill="none" stroke="#191970" d="M714.2822,-224.3171C718.9279,-202.0767 727.0489,-146.6003 702,-112 689.6869,-94.9917 669.8261,-84.2319 650.4092,-77.4424"/>
<polygon fill="#191970" stroke="#191970" points="651.235,-74.0322 640.6443,-74.3301 649.1093,-80.7016 651.235,-74.0322"/>
</g>
<!-- Node15&#45;&gt;Node16 -->
<g id="edge33" class="edge">
<title>Node15&#45;&gt;Node16</title>
<path fill="none" stroke="#191970" d="M508.2718,-459.3072C531.8653,-445.526 577.2189,-420.0525 618,-403 658.1174,-386.225 705.731,-371.6159 738.7238,-362.2851"/>
<polygon fill="#191970" stroke="#191970" points="739.7797,-365.6242 748.469,-359.5623 737.896,-358.8824 739.7797,-365.6242"/>
</g>
<!-- Node17 -->
<g id="node18" class="node">
<title>Node17</title>
<g id="a_node18"><a xlink:href="ipc__basics_source.html" target="_top" xlink:title="cxx/ipc_basics">
<polygon fill="#ffffff" stroke="#000000" points="627,-403.5 627,-422.5 711,-422.5 711,-403.5 627,-403.5"/>
<text text-anchor="middle" x="669" y="-410.5" font-family="Helvetica,sans-Serif" font-size="10.00" fill="#000000">cxx/ipc_basics</text>
</a>
</g>
</g>
<!-- Node15&#45;&gt;Node17 -->
<g id="edge34" class="edge">
<title>Node15&#45;&gt;Node17</title>
<path fill="none" stroke="#191970" d="M522.4274,-459.3733C551.9872,-450.021 597.0226,-435.7725 629.3695,-425.5385"/>
<polygon fill="#191970" stroke="#191970" points="630.4913,-428.8546 638.9697,-422.5011 628.3797,-422.1807 630.4913,-428.8546"/>
</g>
<!-- Node18 -->
<g id="node19" class="node">
<title>Node18</title>
<g id="a_node19"><a xlink:href="capability_8h_source.html" target="_top" xlink:title="cxx/capability.h">
<polygon fill="#ffffff" stroke="#000000" points="455.5,-403.5 455.5,-422.5 542.5,-422.5 542.5,-403.5 455.5,-403.5"/>
<text text-anchor="middle" x="499" y="-410.5" font-family="Helvetica,sans-Serif" font-size="10.00" fill="#000000">cxx/capability.h</text>
</a>
</g>
</g>
<!-- Node15&#45;&gt;Node18 -->
<g id="edge38" class="edge">
<title>Node15&#45;&gt;Node18</title>
<path fill="none" stroke="#191970" d="M493.2193,-459.2455C494.1327,-451.9382 495.4132,-441.6944 496.5369,-432.7046"/>
<polygon fill="#191970" stroke="#191970" points="500.0272,-432.9996 497.7947,-422.6427 493.0813,-432.1313 500.0272,-432.9996"/>
</g>
<!-- Node17&#45;&gt;Node11 -->
<g id="edge36" class="edge">
<title>Node17&#45;&gt;Node11</title>
<path fill="none" stroke="#191970" d="M660.3977,-403.3762C634.5698,-374.4812 557.4458,-288.1987 524.3558,-251.1793"/>
<polygon fill="#191970" stroke="#191970" points="526.9187,-248.7946 517.6448,-243.6714 521.6997,-253.4596 526.9187,-248.7946"/>
</g>
<!-- Node17&#45;&gt;Node14 -->
<g id="edge37" class="edge">
<title>Node17&#45;&gt;Node14</title>
<path fill="none" stroke="#191970" d="M671.3119,-403.3762C678.1073,-375.0883 698.1154,-291.7987 707.2972,-253.5767"/>
<polygon fill="#191970" stroke="#191970" points="710.744,-254.2123 709.6767,-243.6714 703.9377,-252.5772 710.744,-254.2123"/>
</g>
<!-- Node17&#45;&gt;Node16 -->
<g id="edge35" class="edge">
<title>Node17&#45;&gt;Node16</title>
<path fill="none" stroke="#191970" d="M686.1875,-403.3906C704.1082,-393.3713 732.4095,-377.5483 753.0523,-366.0071"/>
<polygon fill="#191970" stroke="#191970" points="754.9128,-368.9769 761.9332,-361.0419 751.4967,-362.867 754.9128,-368.9769"/>
</g>
<!-- Node18&#45;&gt;Node1 -->
<g id="edge40" class="edge">
<title>Node18&#45;&gt;Node1</title>
<path fill="none" stroke="#191970" d="M498.0668,-403.4286C496.2606,-388.282 491.3175,-358.2288 479,-336 444.6981,-274.0969 379.3619,-219.72 345.147,-193.9125"/>
<polygon fill="#191970" stroke="#191970" points="346.8809,-190.8408 336.7644,-187.6933 342.7101,-196.4626 346.8809,-190.8408"/>
</g>
<!-- Node18&#45;&gt;Node5 -->
<g id="edge39" class="edge">
<title>Node18&#45;&gt;Node5</title>
<path fill="none" stroke="#191970" d="M529.9215,-403.4042C574.0985,-387.5454 650,-351.3685 650,-290 650,-290 650,-290 650,-234 650,-191.5397 610.0299,-156.3942 582.781,-137.3678"/>
<polygon fill="#191970" stroke="#191970" points="584.7,-134.4405 574.4478,-131.768 580.7957,-140.2506 584.7,-134.4405"/>
</g>
<!-- Node18&#45;&gt;Node19 -->
<g id="edge41" class="edge">
<title>Node18&#45;&gt;Node19</title>
<path fill="none" stroke="#191970" d="M488.6875,-403.3906C478.5758,-393.9683 462.9558,-379.4134 450.8293,-368.1137"/>
<polygon fill="#191970" stroke="#191970" points="453.1601,-365.5015 443.4579,-361.2449 448.388,-370.6228 453.1601,-365.5015"/>
</g>
<!-- Node19&#45;&gt;Node1 -->
<g id="edge42" class="edge">
<title>Node19&#45;&gt;Node1</title>
<path fill="none" stroke="#191970" d="M426.9292,-341.9248C409.3163,-314.1443 357.9802,-233.1733 334.7096,-196.4693"/>
<polygon fill="#191970" stroke="#191970" points="337.4982,-194.331 329.1876,-187.7595 331.5862,-198.0793 337.4982,-194.331"/>
</g>
<!-- Node19&#45;&gt;Node11 -->
<g id="edge43" class="edge">
<title>Node19&#45;&gt;Node11</title>
<path fill="none" stroke="#191970" d="M439.2194,-341.8845C451.8564,-322.3471 480.7208,-277.7211 497.0919,-252.4106"/>
<polygon fill="#191970" stroke="#191970" points="500.2024,-254.0459 502.6947,-243.7484 494.3248,-250.2442 500.2024,-254.0459"/>
</g>
<!-- Node19&#45;&gt;Node13 -->
<g id="edge44" class="edge">
<title>Node19&#45;&gt;Node13</title>
<path fill="none" stroke="#191970" d="M419.0938,-341.8906C404.9862,-332.1421 382.9276,-316.8994 366.3615,-305.4521"/>
<polygon fill="#191970" stroke="#191970" points="368.0253,-302.3474 357.8086,-299.5419 364.0458,-308.1063 368.0253,-302.3474"/>
</g>
<!-- Node20&#45;&gt;Node9 -->
<g id="edge47" class="edge">
<title>Node20&#45;&gt;Node9</title>
<path fill="none" stroke="#191970" d="M472.3513,-627.4509C435.993,-607.7788 352.56,-562.6363 309.6152,-539.4005"/>
<polygon fill="#191970" stroke="#191970" points="311.0648,-536.2054 300.604,-534.5249 307.7336,-542.362 311.0648,-536.2054"/>
</g>
<!-- Node20&#45;&gt;Node21 -->
<g id="edge48" class="edge">
<title>Node20&#45;&gt;Node21</title>
<path fill="none" stroke="#191970" d="M493.2399,-627.4509C499.4937,-609.0186 513.3342,-568.2254 521.539,-544.043"/>
<polygon fill="#191970" stroke="#191970" points="524.8697,-545.1192 524.7683,-534.5249 518.2409,-542.8701 524.8697,-545.1192"/>
</g>
<!-- Node23 -->
<g id="node24" class="node">
<title>Node23</title>
<g id="a_node24"><a xlink:href="ipc__string_source.html" target="_top" xlink:title="cxx/ipc_string">
<polygon fill="#ffffff" stroke="#000000" points="640.5,-571.5 640.5,-590.5 721.5,-590.5 721.5,-571.5 640.5,-571.5"/>
<text text-anchor="middle" x="681" y="-578.5" font-family="Helvetica,sans-Serif" font-size="10.00" fill="#000000">cxx/ipc_string</text>
</a>
</g>
</g>
<!-- Node20&#45;&gt;Node23 -->
<g id="edge55" class="edge">
<title>Node20&#45;&gt;Node23</title>
<path fill="none" stroke="#191970" d="M522.8341,-627.3733C554.8695,-617.9807 603.7487,-603.6496 638.6855,-593.4064"/>
<polygon fill="#191970" stroke="#191970" points="639.9831,-596.6733 648.5944,-590.5011 638.0136,-589.9561 639.9831,-596.6733"/>
</g>
<!-- Node21&#45;&gt;Node15 -->
<g id="edge54" class="edge">
<title>Node21&#45;&gt;Node15</title>
<path fill="none" stroke="#191970" d="M521.7293,-515.2455C516.7736,-507.5367 509.717,-496.5598 503.7224,-487.2348"/>
<polygon fill="#191970" stroke="#191970" points="506.5506,-485.1618 498.1989,-478.6427 500.6624,-488.9471 506.5506,-485.1618"/>
</g>
<!-- Node21&#45;&gt;Node17 -->
<g id="edge49" class="edge">
<title>Node21&#45;&gt;Node17</title>
<path fill="none" stroke="#191970" d="M533.8367,-515.4439C542.6639,-501.6017 560.5643,-475.7955 581,-459 597.1817,-445.7007 617.8257,-434.6637 635.0514,-426.7372"/>
<polygon fill="#191970" stroke="#191970" points="636.5052,-429.9213 644.2196,-422.6591 633.6602,-423.5255 636.5052,-429.9213"/>
</g>
<!-- Node21&#45;&gt;Node22 -->
<g id="edge50" class="edge">
<title>Node21&#45;&gt;Node22</title>
<path fill="none" stroke="#191970" d="M553.7859,-515.3733C578.4047,-506.1822 615.69,-492.2624 642.9875,-482.0713"/>
<polygon fill="#191970" stroke="#191970" points="644.4063,-485.2777 652.5506,-478.5011 641.958,-478.7198 644.4063,-485.2777"/>
</g>
<!-- Node22&#45;&gt;Node16 -->
<g id="edge52" class="edge">
<title>Node22&#45;&gt;Node16</title>
<path fill="none" stroke="#191970" d="M687.1566,-459.258C695.7635,-450.034 708.9404,-435.7392 720,-423 735.5522,-405.0859 752.7559,-384.0959 764.5528,-369.5117"/>
<polygon fill="#191970" stroke="#191970" points="767.586,-371.3258 771.1363,-361.3435 762.1358,-366.9331 767.586,-371.3258"/>
</g>
<!-- Node22&#45;&gt;Node17 -->
<g id="edge53" class="edge">
<title>Node22&#45;&gt;Node17</title>
<path fill="none" stroke="#191970" d="M676.4323,-459.2455C675.2579,-451.9382 673.6116,-441.6944 672.1668,-432.7046"/>
<polygon fill="#191970" stroke="#191970" points="675.5922,-431.9606 670.5497,-422.6427 668.6809,-433.0714 675.5922,-431.9606"/>
</g>
<!-- Node22&#45;&gt;Node18 -->
<g id="edge51" class="edge">
<title>Node22&#45;&gt;Node18</title>
<path fill="none" stroke="#191970" d="M647.2288,-459.3733C617.335,-450.021 571.7907,-435.7725 539.0783,-425.5385"/>
<polygon fill="#191970" stroke="#191970" points="539.9586,-422.1466 529.3697,-422.5011 537.8685,-428.8273 539.9586,-422.1466"/>
</g>
<!-- Node23&#45;&gt;Node16 -->
<g id="edge56" class="edge">
<title>Node23&#45;&gt;Node16</title>
<path fill="none" stroke="#191970" d="M700.7095,-571.43C715.5656,-563.4031 735.6016,-550.7354 749,-535 788.8262,-488.2272 796.4516,-464.0918 790,-403 788.8698,-392.2983 786.4536,-380.5506 784.1728,-370.9809"/>
<polygon fill="#191970" stroke="#191970" points="787.5648,-370.1179 781.731,-361.2739 780.7763,-371.8256 787.5648,-370.1179"/>
</g>
<!-- Node23&#45;&gt;Node17 -->
<g id="edge57" class="edge">
<title>Node23&#45;&gt;Node17</title>
<path fill="none" stroke="#191970" d="M671.7452,-571.3106C656.1964,-554.2826 625.4125,-517.1615 614,-479 611.4532,-470.4838 610.2369,-467.053 614,-459 619.9463,-446.2749 631.3358,-435.8307 642.215,-428.129"/>
<polygon fill="#191970" stroke="#191970" points="644.277,-430.9622 650.7167,-422.5491 640.436,-425.1101 644.277,-430.9622"/>
</g>
<!-- Node24 -->
<g id="node25" class="node">
<title>Node24</title>
<g id="a_node25"><a xlink:href="ipc__array_source.html" target="_top" xlink:title="ipc_array">
<polygon fill="#ffffff" stroke="#000000" points="678.5,-515.5 678.5,-534.5 739.5,-534.5 739.5,-515.5 678.5,-515.5"/>
<text text-anchor="middle" x="709" y="-522.5" font-family="Helvetica,sans-Serif" font-size="10.00" fill="#000000">ipc_array</text>
</a>
</g>
</g>
<!-- Node23&#45;&gt;Node24 -->
<g id="edge58" class="edge">
<title>Node23&#45;&gt;Node24</title>
<path fill="none" stroke="#191970" d="M685.8772,-571.2455C689.6513,-563.6973 694.9921,-553.0158 699.5901,-543.8197"/>
<polygon fill="#191970" stroke="#191970" points="702.837,-545.1522 704.1787,-534.6427 696.576,-542.0217 702.837,-545.1522"/>
</g>
<!-- Node24&#45;&gt;Node16 -->
<g id="edge59" class="edge">
<title>Node24&#45;&gt;Node16</title>
<path fill="none" stroke="#191970" d="M723.1381,-515.3997C734.1894,-507.1002 748.9791,-494.0823 757,-479 775.4668,-444.2755 778.9642,-397.4082 779.3303,-371.2517"/>
<polygon fill="#191970" stroke="#191970" points="782.8303,-371.1049 779.3255,-361.1066 775.8304,-371.1083 782.8303,-371.1049"/>
</g>
<!-- Node24&#45;&gt;Node17 -->
<g id="edge60" class="edge">
<title>Node24&#45;&gt;Node17</title>
<path fill="none" stroke="#191970" d="M719.8453,-515.4758C733.2109,-502.5332 752.8937,-478.7407 742,-459 734.1036,-444.6908 719.6789,-434.2233 705.7246,-426.9219"/>
<polygon fill="#191970" stroke="#191970" points="707.224,-423.7593 696.6959,-422.5725 704.186,-430.0657 707.224,-423.7593"/>
</g>
<!-- Node24&#45;&gt;Node22 -->
<g id="edge61" class="edge">
<title>Node24&#45;&gt;Node22</title>
<path fill="none" stroke="#191970" d="M703.6002,-515.2455C699.3773,-507.617 693.3827,-496.7881 688.2559,-487.5267"/>
<polygon fill="#191970" stroke="#191970" points="691.2432,-485.6965 683.3379,-478.6427 685.119,-489.0867 691.2432,-485.6965"/>
</g>
</g>
</svg>
