<?xml version="1.0" encoding="UTF-8" standalone="no"?>
<!DOCTYPE svg PUBLIC "-//W3C//DTD SVG 1.1//EN"
 "http://www.w3.org/Graphics/SVG/1.1/DTD/svg11.dtd">
<!-- Generated by graphviz version 2.40.1 (20161225.0304)
 -->
<!-- Title: l4/sys/debugger Pages: 1 -->
<svg width="751pt" height="599pt"
 viewBox="0.00 0.00 751.48 599.00" xmlns="http://www.w3.org/2000/svg" xmlns:xlink="http://www.w3.org/1999/xlink">
<g id="graph0" class="graph" transform="scale(1 1) rotate(0) translate(4 595)">
<title>l4/sys/debugger</title>
<polygon fill="#ffffff" stroke="transparent" points="-4,4 -4,-595 747.4799,-595 747.4799,4 -4,4"/>
<!-- Node0 -->
<g id="node1" class="node">
<title>Node0</title>
<polygon fill="#bfbfbf" stroke="#000000" points="274.5,-571.5 274.5,-590.5 365.5,-590.5 365.5,-571.5 274.5,-571.5"/>
<text text-anchor="middle" x="320" y="-578.5" font-family="Helvetica,sans-Serif" font-size="10.00" fill="#000000">l4/sys/debugger</text>
</g>
<!-- Node1 -->
<g id="node2" class="node">
<title>Node1</title>
<g id="a_node2"><a xlink:href="debugger_8h.html" target="_top" xlink:title="Debugger related definitions. ">
<polygon fill="#ffffff" stroke="#000000" points="26.5,-459.5 26.5,-478.5 125.5,-478.5 125.5,-459.5 26.5,-459.5"/>
<text text-anchor="middle" x="76" y="-466.5" font-family="Helvetica,sans-Serif" font-size="10.00" fill="#000000">l4/sys/debugger.h</text>
</a>
</g>
</g>
<!-- Node0&#45;&gt;Node1 -->
<g id="edge1" class="edge">
<title>Node0&#45;&gt;Node1</title>
<path fill="none" stroke="#191970" d="M299.1967,-571.4509C255.9794,-551.6135 156.3366,-505.8758 106.1065,-482.8194"/>
<polygon fill="#191970" stroke="#191970" points="107.2991,-479.5157 96.7506,-478.5249 104.3788,-485.8775 107.2991,-479.5157"/>
</g>
<!-- Node14 -->
<g id="node15" class="node">
<title>Node14</title>
<g id="a_node15"><a xlink:href="kobject_source.html" target="_top" xlink:title="l4/sys/kobject">
<polygon fill="#ffffff" stroke="#000000" points="388,-515.5 388,-534.5 468,-534.5 468,-515.5 388,-515.5"/>
<text text-anchor="middle" x="428" y="-522.5" font-family="Helvetica,sans-Serif" font-size="10.00" fill="#000000">l4/sys/kobject</text>
</a>
</g>
</g>
<!-- Node0&#45;&gt;Node14 -->
<g id="edge29" class="edge">
<title>Node0&#45;&gt;Node14</title>
<path fill="none" stroke="#191970" d="M338.8122,-571.2455C355.8473,-562.4125 381.1575,-549.2887 400.4681,-539.2758"/>
<polygon fill="#191970" stroke="#191970" points="402.137,-542.353 409.4034,-534.6427 398.9147,-536.1388 402.137,-542.353"/>
</g>
<!-- Node2 -->
<g id="node3" class="node">
<title>Node2</title>
<g id="a_node3"><a xlink:href="compiler_8h.html" target="_top" xlink:title="L4 compiler related defines. ">
<polygon fill="#ffffff" stroke="#000000" points="245.5,-56.5 245.5,-75.5 340.5,-75.5 340.5,-56.5 245.5,-56.5"/>
<text text-anchor="middle" x="293" y="-63.5" font-family="Helvetica,sans-Serif" font-size="10.00" fill="#000000">l4/sys/compiler.h</text>
</a>
</g>
</g>
<!-- Node1&#45;&gt;Node2 -->
<g id="edge2" class="edge">
<title>Node1&#45;&gt;Node2</title>
<path fill="none" stroke="#191970" d="M64.125,-459.3867C42.75,-440.9165 0,-398.1455 0,-351.5 0,-351.5 0,-351.5 0,-178 0,-128.1552 149.8194,-92.3269 235.1946,-75.9565"/>
<polygon fill="#191970" stroke="#191970" points="236.0938,-79.3488 245.2724,-74.057 234.7971,-72.4699 236.0938,-79.3488"/>
</g>
<!-- Node4 -->
<g id="node5" class="node">
<title>Node4</title>
<g id="a_node5"><a xlink:href="l4_2sys_2utcb_8h.html" target="_top" xlink:title="UTCB definitions. ">
<polygon fill="#ffffff" stroke="#000000" points="307,-224.5 307,-243.5 381,-243.5 381,-224.5 307,-224.5"/>
<text text-anchor="middle" x="344" y="-231.5" font-family="Helvetica,sans-Serif" font-size="10.00" fill="#000000">l4/sys/utcb.h</text>
</a>
</g>
</g>
<!-- Node1&#45;&gt;Node4 -->
<g id="edge4" class="edge">
<title>Node1&#45;&gt;Node4</title>
<path fill="none" stroke="#191970" d="M75.4011,-459.3724C74.4468,-435.5725 75.2236,-373.209 106,-336 137.238,-298.2328 156.2865,-300.0717 201,-280 232.0728,-266.0516 268.6593,-254.3629 297.0464,-246.2585"/>
<polygon fill="#191970" stroke="#191970" points="298.0402,-249.6149 306.7229,-243.5436 296.1492,-242.8752 298.0402,-249.6149"/>
</g>
<!-- Node10 -->
<g id="node11" class="node">
<title>Node10</title>
<g id="a_node11"><a xlink:href="l4_2sys_2ipc_8h.html" target="_top" xlink:title="Common IPC interface. ">
<polygon fill="#ffffff" stroke="#000000" points="210,-280.5 210,-299.5 278,-299.5 278,-280.5 210,-280.5"/>
<text text-anchor="middle" x="244" y="-287.5" font-family="Helvetica,sans-Serif" font-size="10.00" fill="#000000">l4/sys/ipc.h</text>
</a>
</g>
</g>
<!-- Node1&#45;&gt;Node10 -->
<g id="edge17" class="edge">
<title>Node1&#45;&gt;Node10</title>
<path fill="none" stroke="#191970" d="M77.5876,-459.2251C81.9947,-435.0891 96.5452,-372.0192 133,-336 151.2901,-317.9284 177.7002,-306.5952 200.1708,-299.7009"/>
<polygon fill="#191970" stroke="#191970" points="201.2017,-303.0464 209.8487,-296.9244 199.2712,-296.3179 201.2017,-303.0464"/>
</g>
<!-- Node12 -->
<g id="node13" class="node">
<title>Node12</title>
<g id="a_node13"><a xlink:href="kernel__object_8h.html" target="_top" xlink:title="Kernel object system calls. ">
<polygon fill="#ffffff" stroke="#000000" points="233,-403.5 233,-422.5 351,-422.5 351,-403.5 233,-403.5"/>
<text text-anchor="middle" x="292" y="-410.5" font-family="Helvetica,sans-Serif" font-size="10.00" fill="#000000">l4/sys/kernel_object.h</text>
</a>
</g>
</g>
<!-- Node1&#45;&gt;Node12 -->
<g id="edge22" class="edge">
<title>Node1&#45;&gt;Node12</title>
<path fill="none" stroke="#191970" d="M113.1317,-459.3733C149.8267,-449.8598 206.0639,-435.2797 245.6651,-425.0127"/>
<polygon fill="#191970" stroke="#191970" points="246.5512,-428.3988 255.3528,-422.5011 244.7944,-421.6228 246.5512,-428.3988"/>
</g>
<!-- Node3 -->
<g id="node4" class="node">
<title>Node3</title>
<polygon fill="#ffffff" stroke="#bfbfbf" points="248.5,-.5 248.5,-19.5 337.5,-19.5 337.5,-.5 248.5,-.5"/>
<text text-anchor="middle" x="293" y="-7.5" font-family="Helvetica,sans-Serif" font-size="10.00" fill="#000000">l4/sys/linkage.h</text>
</g>
<!-- Node2&#45;&gt;Node3 -->
<g id="edge3" class="edge">
<title>Node2&#45;&gt;Node3</title>
<path fill="none" stroke="#191970" d="M293,-56.2455C293,-48.9382 293,-38.6944 293,-29.7046"/>
<polygon fill="#191970" stroke="#191970" points="296.5001,-29.6426 293,-19.6427 289.5001,-29.6427 296.5001,-29.6426"/>
</g>
<!-- Node4&#45;&gt;Node2 -->
<g id="edge15" class="edge">
<title>Node4&#45;&gt;Node2</title>
<path fill="none" stroke="#191970" d="M340.9243,-224.4608C335.1315,-206.437 322.263,-166.124 312,-132 307.3317,-116.4781 302.2638,-98.8308 298.537,-85.6919"/>
<polygon fill="#191970" stroke="#191970" points="301.8468,-84.5333 295.7601,-75.8614 295.1104,-86.4362 301.8468,-84.5333"/>
</g>
<!-- Node5 -->
<g id="node6" class="node">
<title>Node5</title>
<g id="a_node6"><a xlink:href="l4_2sys_2types_8h.html" target="_top" xlink:title="Common L4 ABI Data Types. ">
<polygon fill="#ffffff" stroke="#000000" points="455,-168.5 455,-187.5 535,-187.5 535,-168.5 455,-168.5"/>
<text text-anchor="middle" x="495" y="-175.5" font-family="Helvetica,sans-Serif" font-size="10.00" fill="#000000">l4/sys/types.h</text>
</a>
</g>
</g>
<!-- Node4&#45;&gt;Node5 -->
<g id="edge5" class="edge">
<title>Node4&#45;&gt;Node5</title>
<path fill="none" stroke="#191970" d="M369.9578,-224.3733C394.7407,-215.1822 432.2746,-201.2624 459.754,-191.0713"/>
<polygon fill="#191970" stroke="#191970" points="461.2219,-194.26 469.3809,-187.5011 458.7879,-187.6968 461.2219,-194.26"/>
</g>
<!-- Node6 -->
<g id="node7" class="node">
<title>Node6</title>
<g id="a_node7"><a xlink:href="l4_2sys_2l4int_8h.html" target="_top" xlink:title="Fixed sized integer types, generic version. ">
<polygon fill="#ffffff" stroke="#000000" points="593,-56.5 593,-75.5 667,-75.5 667,-56.5 593,-56.5"/>
<text text-anchor="middle" x="630" y="-63.5" font-family="Helvetica,sans-Serif" font-size="10.00" fill="#000000">l4/sys/l4int.h</text>
</a>
</g>
</g>
<!-- Node4&#45;&gt;Node6 -->
<g id="edge16" class="edge">
<title>Node4&#45;&gt;Node6</title>
<path fill="none" stroke="#191970" d="M381.1318,-230.1765C470.7563,-220.0947 694.7306,-189.5262 738,-132 758.431,-104.8372 714.7453,-86.4039 676.964,-76.0675"/>
<polygon fill="#191970" stroke="#191970" points="677.5853,-72.6129 667.0268,-73.49 675.8277,-79.3886 677.5853,-72.6129"/>
</g>
<!-- Node5&#45;&gt;Node2 -->
<g id="edge7" class="edge">
<title>Node5&#45;&gt;Node2</title>
<path fill="none" stroke="#191970" d="M489.2321,-168.4455C480.11,-154.1262 461.006,-127.1656 438,-112 411.7828,-94.7175 378.6405,-83.5659 350.6611,-76.5783"/>
<polygon fill="#191970" stroke="#191970" points="351.1473,-73.0964 340.6089,-74.1886 349.5283,-79.9066 351.1473,-73.0964"/>
</g>
<!-- Node5&#45;&gt;Node6 -->
<g id="edge6" class="edge">
<title>Node5&#45;&gt;Node6</title>
<path fill="none" stroke="#191970" d="M495.3897,-168.2024C496.4628,-154.0593 500.4323,-127.8819 515,-112 532.7421,-92.6572 559.7097,-81.3021 583.0717,-74.715"/>
<polygon fill="#191970" stroke="#191970" points="584.0309,-78.082 592.8259,-72.1745 582.2665,-71.308 584.0309,-78.082"/>
</g>
<!-- Node7 -->
<g id="node8" class="node">
<title>Node7</title>
<g id="a_node8"><a xlink:href="l4_2sys_2consts_8h.html" target="_top" xlink:title="Common constants. ">
<polygon fill="#ffffff" stroke="#000000" points="643,-112.5 643,-131.5 729,-131.5 729,-112.5 643,-112.5"/>
<text text-anchor="middle" x="686" y="-119.5" font-family="Helvetica,sans-Serif" font-size="10.00" fill="#000000">l4/sys/consts.h</text>
</a>
</g>
</g>
<!-- Node5&#45;&gt;Node7 -->
<g id="edge8" class="edge">
<title>Node5&#45;&gt;Node7</title>
<path fill="none" stroke="#191970" d="M527.8341,-168.3733C559.8695,-158.9807 608.7487,-144.6496 643.6855,-134.4064"/>
<polygon fill="#191970" stroke="#191970" points="644.9831,-137.6733 653.5944,-131.5011 643.0136,-130.9561 644.9831,-137.6733"/>
</g>
<!-- Node8 -->
<g id="node9" class="node">
<title>Node8</title>
<g id="a_node9"><a xlink:href="____l4__fpage_8h_source.html" target="_top" xlink:title="l4/sys/__l4_fpage.h">
<polygon fill="#ffffff" stroke="#000000" points="321,-112.5 321,-131.5 429,-131.5 429,-112.5 321,-112.5"/>
<text text-anchor="middle" x="375" y="-119.5" font-family="Helvetica,sans-Serif" font-size="10.00" fill="#000000">l4/sys/__l4_fpage.h</text>
</a>
</g>
</g>
<!-- Node5&#45;&gt;Node8 -->
<g id="edge11" class="edge">
<title>Node5&#45;&gt;Node8</title>
<path fill="none" stroke="#191970" d="M474.3713,-168.3733C455.1081,-159.3838 426.1514,-145.8706 404.4581,-135.7471"/>
<polygon fill="#191970" stroke="#191970" points="405.9015,-132.5584 395.3595,-131.5011 402.9413,-138.9017 405.9015,-132.5584"/>
</g>
<!-- Node9 -->
<g id="node10" class="node">
<title>Node9</title>
<g id="a_node10"><a xlink:href="____timeout_8h_source.html" target="_top" xlink:title="l4/sys/__timeout.h">
<polygon fill="#ffffff" stroke="#000000" points="523.5,-112.5 523.5,-131.5 624.5,-131.5 624.5,-112.5 523.5,-112.5"/>
<text text-anchor="middle" x="574" y="-119.5" font-family="Helvetica,sans-Serif" font-size="10.00" fill="#000000">l4/sys/__timeout.h</text>
</a>
</g>
</g>
<!-- Node5&#45;&gt;Node9 -->
<g id="edge13" class="edge">
<title>Node5&#45;&gt;Node9</title>
<path fill="none" stroke="#191970" d="M508.7607,-168.2455C520.6552,-159.814 538.065,-147.4729 551.9085,-137.6598"/>
<polygon fill="#191970" stroke="#191970" points="554.2628,-140.2811 560.3969,-131.6427 550.2146,-134.5704 554.2628,-140.2811"/>
</g>
<!-- Node7&#45;&gt;Node2 -->
<g id="edge9" class="edge">
<title>Node7&#45;&gt;Node2</title>
<path fill="none" stroke="#191970" d="M642.9029,-113.5198C639.8933,-112.9868 636.9033,-112.4746 634,-112 534.7447,-95.7746 418.5572,-80.9954 350.636,-72.7777"/>
<polygon fill="#191970" stroke="#191970" points="350.9131,-69.2859 340.5663,-71.5647 350.0759,-76.2356 350.9131,-69.2859"/>
</g>
<!-- Node7&#45;&gt;Node6 -->
<g id="edge10" class="edge">
<title>Node7&#45;&gt;Node6</title>
<path fill="none" stroke="#191970" d="M676.2455,-112.2455C668.1352,-104.1352 656.4075,-92.4075 646.7919,-82.7919"/>
<polygon fill="#191970" stroke="#191970" points="649.1887,-80.2389 639.6427,-75.6427 644.2389,-85.1887 649.1887,-80.2389"/>
</g>
<!-- Node8&#45;&gt;Node2 -->
<g id="edge12" class="edge">
<title>Node8&#45;&gt;Node2</title>
<path fill="none" stroke="#191970" d="M360.7167,-112.2455C348.253,-103.7337 329.9549,-91.2375 315.5208,-81.3801"/>
<polygon fill="#191970" stroke="#191970" points="317.3515,-78.392 307.1196,-75.6427 313.4038,-84.1726 317.3515,-78.392"/>
</g>
<!-- Node9&#45;&gt;Node6 -->
<g id="edge14" class="edge">
<title>Node9&#45;&gt;Node6</title>
<path fill="none" stroke="#191970" d="M583.7545,-112.2455C591.8648,-104.1352 603.5925,-92.4075 613.2081,-82.7919"/>
<polygon fill="#191970" stroke="#191970" points="615.7611,-85.1887 620.3573,-75.6427 610.8113,-80.2389 615.7611,-85.1887"/>
</g>
<!-- Node10&#45;&gt;Node4 -->
<g id="edge19" class="edge">
<title>Node10&#45;&gt;Node4</title>
<path fill="none" stroke="#191970" d="M261.4187,-280.2455C277.0485,-271.4928 300.2019,-258.527 318.0185,-248.5496"/>
<polygon fill="#191970" stroke="#191970" points="319.766,-251.5825 326.7809,-243.6427 316.3457,-245.475 319.766,-251.5825"/>
</g>
<!-- Node10&#45;&gt;Node5 -->
<g id="edge18" class="edge">
<title>Node10&#45;&gt;Node5</title>
<path fill="none" stroke="#191970" d="M232.8081,-280.161C218.5215,-266.4296 197.3141,-241.2657 212,-224 226.8923,-206.4916 367.6186,-190.3016 444.8448,-182.642"/>
<polygon fill="#191970" stroke="#191970" points="445.2344,-186.1207 454.8456,-181.6626 444.552,-179.154 445.2344,-186.1207"/>
</g>
<!-- Node11 -->
<g id="node12" class="node">
<title>Node11</title>
<g id="a_node12"><a xlink:href="err_8h.html" target="_top" xlink:title="Error codes. ">
<polygon fill="#ffffff" stroke="#000000" points="221,-224.5 221,-243.5 289,-243.5 289,-224.5 221,-224.5"/>
<text text-anchor="middle" x="255" y="-231.5" font-family="Helvetica,sans-Serif" font-size="10.00" fill="#000000">l4/sys/err.h</text>
</a>
</g>
</g>
<!-- Node10&#45;&gt;Node11 -->
<g id="edge20" class="edge">
<title>Node10&#45;&gt;Node11</title>
<path fill="none" stroke="#191970" d="M245.9161,-280.2455C247.3514,-272.9382 249.3636,-262.6944 251.1295,-253.7046"/>
<polygon fill="#191970" stroke="#191970" points="254.6127,-254.1298 253.1059,-243.6427 247.744,-252.7805 254.6127,-254.1298"/>
</g>
<!-- Node11&#45;&gt;Node2 -->
<g id="edge21" class="edge">
<title>Node11&#45;&gt;Node2</title>
<path fill="none" stroke="#191970" d="M256.5421,-224.4361C259.9484,-203.7706 268.6394,-153.4666 279,-112 281.1949,-103.2153 284.0432,-93.6166 286.5971,-85.4708"/>
<polygon fill="#191970" stroke="#191970" points="289.9807,-86.3813 289.7053,-75.79 283.3158,-84.2414 289.9807,-86.3813"/>
</g>
<!-- Node12&#45;&gt;Node2 -->
<g id="edge24" class="edge">
<title>Node12&#45;&gt;Node2</title>
<path fill="none" stroke="#191970" d="M238.4402,-403.4495C198.2319,-395.2231 147.6853,-382.2801 133,-367 108.575,-341.5856 114,-325.2487 114,-290 114,-290 114,-290 114,-178 114,-119.7986 182.8489,-90.7099 235.1484,-77.0094"/>
<polygon fill="#191970" stroke="#191970" points="236.1733,-80.3612 245.0313,-74.5486 234.4819,-73.5686 236.1733,-80.3612"/>
</g>
<!-- Node12&#45;&gt;Node4 -->
<g id="edge25" class="edge">
<title>Node12&#45;&gt;Node4</title>
<path fill="none" stroke="#191970" d="M294.7957,-403.3762C303.0135,-375.0883 327.2093,-291.7987 338.3129,-253.5767"/>
<polygon fill="#191970" stroke="#191970" points="341.7617,-254.2508 341.1904,-243.6714 335.0396,-252.298 341.7617,-254.2508"/>
</g>
<!-- Node12&#45;&gt;Node5 -->
<g id="edge23" class="edge">
<title>Node12&#45;&gt;Node5</title>
<path fill="none" stroke="#191970" d="M300.2093,-403.4967C331.0041,-367.8474 439.932,-241.7487 480.0356,-195.3233"/>
<polygon fill="#191970" stroke="#191970" points="482.8001,-197.4771 486.6886,-187.6216 477.5029,-192.9011 482.8001,-197.4771"/>
</g>
<!-- Node12&#45;&gt;Node10 -->
<g id="edge28" class="edge">
<title>Node12&#45;&gt;Node10</title>
<path fill="none" stroke="#191970" d="M290.6141,-403.1983C288.2744,-388.2497 282.8096,-359.0598 273,-336 268.865,-326.2797 262.8046,-316.2689 257.2919,-308.0784"/>
<polygon fill="#191970" stroke="#191970" points="260.0376,-305.8976 251.4323,-299.717 254.3051,-309.9149 260.0376,-305.8976"/>
</g>
<!-- Node13 -->
<g id="node14" class="node">
<title>Node13</title>
<g id="a_node14"><a xlink:href="____kernel__object__impl_8h.html" target="_top" xlink:title="Low&#45;level kernel debugger functions. ">
<polygon fill="#ffffff" stroke="#000000" points="142,-336.5 142,-366.5 264,-366.5 264,-336.5 142,-336.5"/>
<text text-anchor="start" x="150" y="-354.5" font-family="Helvetica,sans-Serif" font-size="10.00" fill="#000000">l4/sys/__kernel_object</text>
<text text-anchor="middle" x="203" y="-343.5" font-family="Helvetica,sans-Serif" font-size="10.00" fill="#000000">_impl.h</text>
</a>
</g>
</g>
<!-- Node12&#45;&gt;Node13 -->
<g id="edge26" class="edge">
<title>Node12&#45;&gt;Node13</title>
<path fill="none" stroke="#191970" d="M278.0938,-403.3906C266.1602,-395.1444 248.5374,-382.9669 233.3623,-372.4807"/>
<polygon fill="#191970" stroke="#191970" points="234.9885,-369.3501 224.7718,-366.5446 231.0091,-375.1089 234.9885,-369.3501"/>
</g>
<!-- Node13&#45;&gt;Node10 -->
<g id="edge27" class="edge">
<title>Node13&#45;&gt;Node10</title>
<path fill="none" stroke="#191970" d="M213.1348,-336.2977C218.7668,-327.8498 225.8151,-317.2773 231.754,-308.369"/>
<polygon fill="#191970" stroke="#191970" points="234.8005,-310.1089 237.4354,-299.8469 228.9762,-306.226 234.8005,-310.1089"/>
</g>
<!-- Node14&#45;&gt;Node5 -->
<g id="edge31" class="edge">
<title>Node14&#45;&gt;Node5</title>
<path fill="none" stroke="#191970" d="M468.1033,-518.7781C550.2532,-504.8988 730,-468.221 730,-413 730,-413 730,-413 730,-351.5 730,-259.7823 612.7126,-211.0626 543.8571,-190.3634"/>
<polygon fill="#191970" stroke="#191970" points="544.6492,-186.9487 534.0693,-187.511 542.6906,-193.6692 544.6492,-186.9487"/>
</g>
<!-- Node14&#45;&gt;Node12 -->
<g id="edge30" class="edge">
<title>Node14&#45;&gt;Node12</title>
<path fill="none" stroke="#191970" d="M416.4047,-515.4509C393.019,-496.1921 339.9908,-452.5218 311.2992,-428.8935"/>
<polygon fill="#191970" stroke="#191970" points="313.5102,-426.1802 303.5659,-422.5249 309.0603,-431.5838 313.5102,-426.1802"/>
</g>
<!-- Node15 -->
<g id="node16" class="node">
<title>Node15</title>
<g id="a_node16"><a xlink:href="____typeinfo_8h.html" target="_top" xlink:title="Type information handling. ">
<polygon fill="#ffffff" stroke="#000000" points="437,-459.5 437,-478.5 511,-478.5 511,-459.5 437,-459.5"/>
<text text-anchor="middle" x="474" y="-466.5" font-family="Helvetica,sans-Serif" font-size="10.00" fill="#000000">__typeinfo.h</text>
</a>
</g>
</g>
<!-- Node14&#45;&gt;Node15 -->
<g id="edge32" class="edge">
<title>Node14&#45;&gt;Node15</title>
<path fill="none" stroke="#191970" d="M436.0126,-515.2455C442.4768,-507.3761 451.7385,-496.101 459.4983,-486.6542"/>
<polygon fill="#191970" stroke="#191970" points="462.4364,-488.5916 466.0792,-478.6427 457.0273,-484.1484 462.4364,-488.5916"/>
</g>
<!-- Node16 -->
<g id="node17" class="node">
<title>Node16</title>
<g id="a_node17"><a xlink:href="types.html" target="_top" xlink:title="cxx/types">
<polygon fill="#ffffff" stroke="#000000" points="472.5,-342 472.5,-361 533.5,-361 533.5,-342 472.5,-342"/>
<text text-anchor="middle" x="503" y="-349" font-family="Helvetica,sans-Serif" font-size="10.00" fill="#000000">cxx/types</text>
</a>
</g>
</g>
<!-- Node15&#45;&gt;Node16 -->
<g id="edge33" class="edge">
<title>Node15&#45;&gt;Node16</title>
<path fill="none" stroke="#191970" d="M477.8804,-459.2658C481.4363,-450.0474 486.6435,-435.7562 490,-423 494.5093,-405.8628 497.9837,-386.0077 500.2015,-371.5756"/>
<polygon fill="#191970" stroke="#191970" points="503.7175,-371.7217 501.7064,-361.3195 496.7916,-370.7054 503.7175,-371.7217"/>
</g>
<!-- Node17 -->
<g id="node18" class="node">
<title>Node17</title>
<g id="a_node18"><a xlink:href="ipc__basics_source.html" target="_top" xlink:title="cxx/ipc_basics">
<polygon fill="#ffffff" stroke="#000000" points="397,-403.5 397,-422.5 481,-422.5 481,-403.5 397,-403.5"/>
<text text-anchor="middle" x="439" y="-410.5" font-family="Helvetica,sans-Serif" font-size="10.00" fill="#000000">cxx/ipc_basics</text>
</a>
</g>
</g>
<!-- Node15&#45;&gt;Node17 -->
<g id="edge34" class="edge">
<title>Node15&#45;&gt;Node17</title>
<path fill="none" stroke="#191970" d="M467.9035,-459.2455C463.0855,-451.5367 456.2249,-440.5598 450.3968,-431.2348"/>
<polygon fill="#191970" stroke="#191970" points="453.2947,-429.2677 445.0267,-422.6427 447.3587,-432.9777 453.2947,-429.2677"/>
</g>
<!-- Node18 -->
<g id="node19" class="node">
<title>Node18</title>
<g id="a_node19"><a xlink:href="capability_8h_source.html" target="_top" xlink:title="cxx/capability.h">
<polygon fill="#ffffff" stroke="#000000" points="577.5,-403.5 577.5,-422.5 664.5,-422.5 664.5,-403.5 577.5,-403.5"/>
<text text-anchor="middle" x="621" y="-410.5" font-family="Helvetica,sans-Serif" font-size="10.00" fill="#000000">cxx/capability.h</text>
</a>
</g>
</g>
<!-- Node15&#45;&gt;Node18 -->
<g id="edge38" class="edge">
<title>Node15&#45;&gt;Node18</title>
<path fill="none" stroke="#191970" d="M499.2702,-459.3733C523.3966,-450.1822 559.9362,-436.2624 586.6877,-426.0713"/>
<polygon fill="#191970" stroke="#191970" points="587.9607,-429.3318 596.0596,-422.5011 585.4687,-422.7904 587.9607,-429.3318"/>
</g>
<!-- Node17&#45;&gt;Node4 -->
<g id="edge36" class="edge">
<title>Node17&#45;&gt;Node4</title>
<path fill="none" stroke="#191970" d="M433.8924,-403.3762C418.7504,-374.8455 373.9143,-290.3648 353.8728,-252.6024"/>
<polygon fill="#191970" stroke="#191970" points="356.9124,-250.8637 349.1329,-243.6714 350.7293,-254.1453 356.9124,-250.8637"/>
</g>
<!-- Node17&#45;&gt;Node11 -->
<g id="edge37" class="edge">
<title>Node17&#45;&gt;Node11</title>
<path fill="none" stroke="#191970" d="M429.1074,-403.3762C399.2805,-374.3598 309.9663,-287.4726 272.1822,-250.7153"/>
<polygon fill="#191970" stroke="#191970" points="274.5499,-248.1357 264.9416,-243.6714 269.6688,-253.1532 274.5499,-248.1357"/>
</g>
<!-- Node17&#45;&gt;Node16 -->
<g id="edge35" class="edge">
<title>Node17&#45;&gt;Node16</title>
<path fill="none" stroke="#191970" d="M449,-403.3906C458.7119,-394.0581 473.6639,-379.6902 485.3741,-368.4374"/>
<polygon fill="#191970" stroke="#191970" points="488.0736,-370.6974 492.859,-361.2449 483.2234,-365.65 488.0736,-370.6974"/>
</g>
<!-- Node18&#45;&gt;Node5 -->
<g id="edge40" class="edge">
<title>Node18&#45;&gt;Node5</title>
<path fill="none" stroke="#191970" d="M625.9838,-403.2317C632.884,-388.3266 643.5795,-359.1927 635,-336 611.6552,-272.8931 549.7893,-219.039 516.6608,-193.6236"/>
<polygon fill="#191970" stroke="#191970" points="518.6136,-190.713 508.516,-187.5051 514.4092,-196.3097 518.6136,-190.713"/>
</g>
<!-- Node18&#45;&gt;Node7 -->
<g id="edge39" class="edge">
<title>Node18&#45;&gt;Node7</title>
<path fill="none" stroke="#191970" d="M628.7412,-403.4058C635.4873,-394.5127 644.9575,-380.6362 650,-367 679.5028,-287.2176 684.9057,-184.4087 685.8381,-141.8256"/>
<polygon fill="#191970" stroke="#191970" points="689.3396,-141.7496 685.9969,-131.6959 682.3405,-141.6398 689.3396,-141.7496"/>
</g>
<!-- Node19 -->
<g id="node20" class="node">
<title>Node19</title>
<g id="a_node20"><a xlink:href="l4_2sys_2task_8h.html" target="_top" xlink:title="Common task related definitions. ">
<polygon fill="#ffffff" stroke="#000000" points="552,-342 552,-361 626,-361 626,-342 552,-342"/>
<text text-anchor="middle" x="589" y="-349" font-family="Helvetica,sans-Serif" font-size="10.00" fill="#000000">l4/sys/task.h</text>
</a>
</g>
</g>
<!-- Node18&#45;&gt;Node19 -->
<g id="edge41" class="edge">
<title>Node18&#45;&gt;Node19</title>
<path fill="none" stroke="#191970" d="M616,-403.3906C611.4242,-394.5965 604.5219,-381.3312 598.8417,-370.4145"/>
<polygon fill="#191970" stroke="#191970" points="601.7912,-368.5003 594.0705,-361.2449 595.5815,-371.7314 601.7912,-368.5003"/>
</g>
<!-- Node19&#45;&gt;Node4 -->
<g id="edge43" class="edge">
<title>Node19&#45;&gt;Node4</title>
<path fill="none" stroke="#191970" d="M572.7741,-341.8458C548.3292,-327.4857 500.399,-300.042 458,-280 432.2841,-267.8441 402.4458,-255.8774 379.7475,-247.1977"/>
<polygon fill="#191970" stroke="#191970" points="380.7677,-243.8415 370.1763,-243.5704 378.2869,-250.3871 380.7677,-243.8415"/>
</g>
<!-- Node19&#45;&gt;Node5 -->
<g id="edge42" class="edge">
<title>Node19&#45;&gt;Node5</title>
<path fill="none" stroke="#191970" d="M583.8123,-341.9248C568.8252,-314.2625 525.265,-233.8614 505.2616,-196.9403"/>
<polygon fill="#191970" stroke="#191970" points="508.1287,-194.8847 500.2876,-187.7595 501.9739,-198.2193 508.1287,-194.8847"/>
</g>
<!-- Node19&#45;&gt;Node10 -->
<g id="edge44" class="edge">
<title>Node19&#45;&gt;Node10</title>
<path fill="none" stroke="#191970" d="M562.9573,-341.8565C556.4991,-339.7066 549.5505,-337.5949 543,-336 453.7015,-314.258 346.7741,-300.7461 288.0449,-294.3719"/>
<polygon fill="#191970" stroke="#191970" points="288.3166,-290.8811 278.0018,-293.3007 287.5742,-297.8416 288.3166,-290.8811"/>
</g>
</g>
</svg>
