<?xml version="1.0" encoding="UTF-8" standalone="no"?>
<!DOCTYPE svg PUBLIC "-//W3C//DTD SVG 1.1//EN"
 "http://www.w3.org/Graphics/SVG/1.1/DTD/svg11.dtd">
<!-- Generated by graphviz version 2.40.1 (20161225.0304)
 -->
<!-- Title: x86/l4 Pages: 1 -->
<svg width="254pt" height="159pt"
 viewBox="0.00 0.00 254.00 159.00" xmlns="http://www.w3.org/2000/svg" xmlns:xlink="http://www.w3.org/1999/xlink">
<g id="graph0" class="graph" transform="scale(1 1) rotate(0) translate(4 155)">
<title>x86/l4</title>
<polygon fill="#ffffff" stroke="transparent" points="-4,4 -4,-155 250,-155 250,4 -4,4"/>
<g id="clust1" class="cluster">
<title>clusterdir_d979004d17f5223e5cbcd0eb3b9cd5ac</title>
<g id="a_clust1"><a xlink:href="dir_d979004d17f5223e5cbcd0eb3b9cd5ac.html" target="_top" xlink:title="x86">
<polygon fill="#ddddee" stroke="#000000" points="8,-56 8,-143 238,-143 238,-56 8,-56"/>
<text text-anchor="middle" x="123" y="-131" font-family="Helvetica,sans-Serif" font-size="10.00" fill="#000000">x86</text>
</a>
</g>
</g>
<g id="clust2" class="cluster">
<title>clusterdir_3fa9cbe562e25975b065e1d6353565fc</title>
<g id="a_clust2"><a xlink:href="dir_3fa9cbe562e25975b065e1d6353565fc.html" target="_top">
<polygon fill="#eeeeff" stroke="#000000" points="16,-64 16,-116 230,-116 230,-64 16,-64"/>
</a>
</g>
</g>
<!-- dir_3fa9cbe562e25975b065e1d6353565fc -->
<g id="node1" class="node">
<title>dir_3fa9cbe562e25975b065e1d6353565fc</title>
<text text-anchor="middle" x="195" y="-87.5" font-family="Helvetica,sans-Serif" font-size="10.00" fill="#000000">l4</text>
</g>
<!-- dir_d1a376e4e13c495211e57ea71486fb55 -->
<g id="node2" class="node">
<title>dir_d1a376e4e13c495211e57ea71486fb55</title>
<g id="a_node2"><a xlink:href="dir_d1a376e4e13c495211e57ea71486fb55.html" target="_top" xlink:title="sys">
<polygon fill="#ffffff" stroke="#000000" points="150,-108 96,-108 96,-72 150,-72 150,-108"/>
<text text-anchor="middle" x="123" y="-87.5" font-family="Helvetica,sans-Serif" font-size="10.00" fill="#000000">sys</text>
</a>
</g>
</g>
<!-- dir_1f581fa1f88782a0973f05f5fe437b46 -->
<g id="node4" class="node">
<title>dir_1f581fa1f88782a0973f05f5fe437b46</title>
<g id="a_node4"><a xlink:href="dir_1f581fa1f88782a0973f05f5fe437b46.html" target="_top" xlink:title="l4">
<polygon fill="#ffffff" stroke="#ff0000" points="114,-36 60,-36 60,0 114,0 114,-36"/>
<text text-anchor="middle" x="87" y="-15.5" font-family="Helvetica,sans-Serif" font-size="10.00" fill="#000000">l4</text>
</a>
</g>
</g>
<!-- dir_d1a376e4e13c495211e57ea71486fb55&#45;&gt;dir_1f581fa1f88782a0973f05f5fe437b46 -->
<g id="edge1" class="edge">
<title>dir_d1a376e4e13c495211e57ea71486fb55&#45;&gt;dir_1f581fa1f88782a0973f05f5fe437b46</title>
<path fill="none" stroke="#000000" d="M113.9157,-71.8314C109.9385,-63.8771 105.1845,-54.369 100.7861,-45.5723"/>
<polygon fill="#000000" stroke="#000000" points="103.8093,-43.7923 96.2066,-36.4133 97.5483,-46.9228 103.8093,-43.7923"/>
<g id="a_edge1&#45;headlabel"><a xlink:href="dir_000020_000011.html" target="_top" xlink:title="5">
<text text-anchor="middle" x="107.9563" y="-43.2377" font-family="Helvetica,sans-Serif" font-size="10.00" fill="#000000">5</text>
</a>
</g>
</g>
<!-- dir_f31abfcd54d5dc7edf16e72e22fbbfa1 -->
<g id="node3" class="node">
<title>dir_f31abfcd54d5dc7edf16e72e22fbbfa1</title>
<g id="a_node3"><a xlink:href="dir_f31abfcd54d5dc7edf16e72e22fbbfa1.html" target="_top" xlink:title="util">
<polygon fill="#ffffff" stroke="#000000" points="78,-108 24,-108 24,-72 78,-72 78,-108"/>
<text text-anchor="middle" x="51" y="-87.5" font-family="Helvetica,sans-Serif" font-size="10.00" fill="#000000">util</text>
</a>
</g>
</g>
<!-- dir_f31abfcd54d5dc7edf16e72e22fbbfa1&#45;&gt;dir_1f581fa1f88782a0973f05f5fe437b46 -->
<g id="edge2" class="edge">
<title>dir_f31abfcd54d5dc7edf16e72e22fbbfa1&#45;&gt;dir_1f581fa1f88782a0973f05f5fe437b46</title>
<path fill="none" stroke="#000000" d="M60.0843,-71.8314C64.0615,-63.8771 68.8155,-54.369 73.2139,-45.5723"/>
<polygon fill="#000000" stroke="#000000" points="76.4517,-46.9228 77.7934,-36.4133 70.1907,-43.7923 76.4517,-46.9228"/>
<g id="a_edge2&#45;headlabel"><a xlink:href="dir_000010_000011.html" target="_top" xlink:title="20">
<text text-anchor="middle" x="77.3837" y="-48.9077" font-family="Helvetica,sans-Serif" font-size="10.00" fill="#000000">20</text>
</a>
</g>
</g>
</g>
</svg>
