<?xml version="1.0" encoding="UTF-8" standalone="no"?>
<!DOCTYPE svg PUBLIC "-//W3C//DTD SVG 1.1//EN"
 "http://www.w3.org/Graphics/SVG/1.1/DTD/svg11.dtd">
<!-- Generated by graphviz version 2.40.1 (20161225.0304)
 -->
<!-- Title: amd64/l4f/l4 Pages: 1 -->
<svg width="254pt" height="231pt"
 viewBox="0.00 0.00 254.00 231.00" xmlns="http://www.w3.org/2000/svg" xmlns:xlink="http://www.w3.org/1999/xlink">
<g id="graph0" class="graph" transform="scale(1 1) rotate(0) translate(4 227)">
<title>amd64/l4f/l4</title>
<polygon fill="#ffffff" stroke="transparent" points="-4,4 -4,-227 250,-227 250,4 -4,4"/>
<g id="clust1" class="cluster">
<title>clusterdir_e6be2e03ac70b36b170aaf8da4ea97b0</title>
<g id="a_clust1"><a xlink:href="dir_e6be2e03ac70b36b170aaf8da4ea97b0.html" target="_top" xlink:title="l4f">
<polygon fill="#ddddee" stroke="#000000" points="8,-128 8,-215 238,-215 238,-128 8,-128"/>
<text text-anchor="middle" x="123" y="-203" font-family="Helvetica,sans-Serif" font-size="10.00" fill="#000000">l4f</text>
</a>
</g>
</g>
<g id="clust2" class="cluster">
<title>clusterdir_e2d272e039388fbee58103c579c4291d</title>
<g id="a_clust2"><a xlink:href="dir_e2d272e039388fbee58103c579c4291d.html" target="_top">
<polygon fill="#eeeeff" stroke="#000000" points="16,-136 16,-188 230,-188 230,-136 16,-136"/>
</a>
</g>
</g>
<!-- dir_e2d272e039388fbee58103c579c4291d -->
<g id="node1" class="node">
<title>dir_e2d272e039388fbee58103c579c4291d</title>
<text text-anchor="middle" x="195" y="-159.5" font-family="Helvetica,sans-Serif" font-size="10.00" fill="#000000">l4</text>
</g>
<!-- dir_60e808c1f9c91eeeb28ca552e19f3d64 -->
<g id="node2" class="node">
<title>dir_60e808c1f9c91eeeb28ca552e19f3d64</title>
<g id="a_node2"><a xlink:href="dir_60e808c1f9c91eeeb28ca552e19f3d64.html" target="_top" xlink:title="sys">
<polygon fill="#ffffff" stroke="#000000" points="78,-180 24,-180 24,-144 78,-144 78,-180"/>
<text text-anchor="middle" x="51" y="-159.5" font-family="Helvetica,sans-Serif" font-size="10.00" fill="#000000">sys</text>
</a>
</g>
</g>
<!-- dir_1f581fa1f88782a0973f05f5fe437b46 -->
<g id="node4" class="node">
<title>dir_1f581fa1f88782a0973f05f5fe437b46</title>
<g id="a_node4"><a xlink:href="dir_1f581fa1f88782a0973f05f5fe437b46.html" target="_top" xlink:title="l4">
<polygon fill="#ffffff" stroke="#ff0000" points="113,-36 59,-36 59,0 113,0 113,-36"/>
<text text-anchor="middle" x="86" y="-15.5" font-family="Helvetica,sans-Serif" font-size="10.00" fill="#000000">l4</text>
</a>
</g>
</g>
<!-- dir_60e808c1f9c91eeeb28ca552e19f3d64&#45;&gt;dir_1f581fa1f88782a0973f05f5fe437b46 -->
<g id="edge2" class="edge">
<title>dir_60e808c1f9c91eeeb28ca552e19f3d64&#45;&gt;dir_1f581fa1f88782a0973f05f5fe437b46</title>
<path fill="none" stroke="#000000" d="M55.4328,-143.7623C61.4288,-119.0928 72.1799,-74.8598 79.201,-45.9731"/>
<polygon fill="#000000" stroke="#000000" points="82.6423,-46.6334 81.6032,-36.0896 75.8404,-44.9801 82.6423,-46.6334"/>
<g id="a_edge2&#45;headlabel"><a xlink:href="dir_000015_000011.html" target="_top" xlink:title="1">
<text text-anchor="middle" x="84.5524" y="-48.2968" font-family="Helvetica,sans-Serif" font-size="10.00" fill="#000000">1</text>
</a>
</g>
</g>
<!-- dir_7060edddde9e6bee0ac26ad5048a9d58 -->
<g id="node3" class="node">
<title>dir_7060edddde9e6bee0ac26ad5048a9d58</title>
<g id="a_node3"><a xlink:href="dir_7060edddde9e6bee0ac26ad5048a9d58.html" target="_top" xlink:title="util">
<polygon fill="#ffffff" stroke="#000000" points="150,-180 96,-180 96,-144 150,-144 150,-180"/>
<text text-anchor="middle" x="123" y="-159.5" font-family="Helvetica,sans-Serif" font-size="10.00" fill="#000000">util</text>
</a>
</g>
</g>
<!-- dir_d979004d17f5223e5cbcd0eb3b9cd5ac -->
<g id="node5" class="node">
<title>dir_d979004d17f5223e5cbcd0eb3b9cd5ac</title>
<g id="a_node5"><a xlink:href="dir_d979004d17f5223e5cbcd0eb3b9cd5ac.html" target="_top" xlink:title="x86">
<polygon fill="#ffffff" stroke="#ff0000" points="145,-108 91,-108 91,-72 145,-72 145,-108"/>
<text text-anchor="middle" x="118" y="-87.5" font-family="Helvetica,sans-Serif" font-size="10.00" fill="#000000">x86</text>
</a>
</g>
</g>
<!-- dir_7060edddde9e6bee0ac26ad5048a9d58&#45;&gt;dir_d979004d17f5223e5cbcd0eb3b9cd5ac -->
<g id="edge1" class="edge">
<title>dir_7060edddde9e6bee0ac26ad5048a9d58&#45;&gt;dir_d979004d17f5223e5cbcd0eb3b9cd5ac</title>
<path fill="none" stroke="#000000" d="M121.7383,-143.8314C121.2035,-136.131 120.5677,-126.9743 119.9734,-118.4166"/>
<polygon fill="#000000" stroke="#000000" points="123.4632,-118.1467 119.2787,-108.4133 116.48,-118.6317 123.4632,-118.1467"/>
<g id="a_edge1&#45;headlabel"><a xlink:href="dir_000021_000008.html" target="_top" xlink:title="1">
<text text-anchor="middle" x="126.5445" y="-119.0361" font-family="Helvetica,sans-Serif" font-size="10.00" fill="#000000">1</text>
</a>
</g>
</g>
<!-- dir_d979004d17f5223e5cbcd0eb3b9cd5ac&#45;&gt;dir_1f581fa1f88782a0973f05f5fe437b46 -->
<g id="edge3" class="edge">
<title>dir_d979004d17f5223e5cbcd0eb3b9cd5ac&#45;&gt;dir_1f581fa1f88782a0973f05f5fe437b46</title>
<path fill="none" stroke="#000000" d="M109.925,-71.8314C106.3898,-63.8771 102.164,-54.369 98.2544,-45.5723"/>
<polygon fill="#000000" stroke="#000000" points="101.4435,-44.1299 94.1837,-36.4133 95.0468,-46.9729 101.4435,-44.1299"/>
<g id="a_edge3&#45;headlabel"><a xlink:href="dir_000008_000011.html" target="_top" xlink:title="32">
<text text-anchor="middle" x="105.4979" y="-43.7616" font-family="Helvetica,sans-Serif" font-size="10.00" fill="#000000">32</text>
</a>
</g>
</g>
</g>
</svg>
