<?xml version="1.0" encoding="UTF-8" standalone="no"?>
<!DOCTYPE svg PUBLIC "-//W3C//DTD SVG 1.1//EN"
 "http://www.w3.org/Graphics/SVG/1.1/DTD/svg11.dtd">
<!-- Generated by graphviz version 2.40.1 (20161225.0304)
 -->
<!-- Title: l4/re/c/util Pages: 1 -->
<svg width="182pt" height="231pt"
 viewBox="0.00 0.00 182.00 231.00" xmlns="http://www.w3.org/2000/svg" xmlns:xlink="http://www.w3.org/1999/xlink">
<g id="graph0" class="graph" transform="scale(1 1) rotate(0) translate(4 227)">
<title>l4/re/c/util</title>
<polygon fill="#ffffff" stroke="transparent" points="-4,4 -4,-227 178,-227 178,4 -4,4"/>
<g id="clust1" class="cluster">
<title>clusterdir_9cacc43b47fb52c27eca04eb55cc6fe9</title>
<g id="a_clust1"><a xlink:href="dir_9cacc43b47fb52c27eca04eb55cc6fe9.html" target="_top" xlink:title="c">
<polygon fill="#ddddee" stroke="#000000" points="8,-128 8,-215 166,-215 166,-128 8,-128"/>
<text text-anchor="middle" x="87" y="-203" font-family="Helvetica,sans-Serif" font-size="10.00" fill="#000000">c</text>
</a>
</g>
</g>
<g id="clust2" class="cluster">
<title>clusterdir_62d0de061f5b15d9ae7ef168087326fc</title>
<g id="a_clust2"><a xlink:href="dir_62d0de061f5b15d9ae7ef168087326fc.html" target="_top">
<polygon fill="#eeeeff" stroke="#000000" points="16,-136 16,-188 158,-188 158,-136 16,-136"/>
</a>
</g>
</g>
<!-- dir_62d0de061f5b15d9ae7ef168087326fc -->
<g id="node1" class="node">
<title>dir_62d0de061f5b15d9ae7ef168087326fc</title>
<text text-anchor="middle" x="51" y="-159.5" font-family="Helvetica,sans-Serif" font-size="10.00" fill="#000000">util</text>
</g>
<!-- dir_d458d878e154568f8572c436e514c759 -->
<g id="node4" class="node">
<title>dir_d458d878e154568f8572c436e514c759</title>
<g id="a_node4"><a xlink:href="dir_d458d878e154568f8572c436e514c759.html" target="_top" xlink:title="sys">
<polygon fill="#ffffff" stroke="#ff0000" points="133,-36 79,-36 79,0 133,0 133,-36"/>
<text text-anchor="middle" x="106" y="-15.5" font-family="Helvetica,sans-Serif" font-size="10.00" fill="#000000">sys</text>
</a>
</g>
</g>
<!-- dir_62d0de061f5b15d9ae7ef168087326fc&#45;&gt;dir_d458d878e154568f8572c436e514c759 -->
<g id="edge2" class="edge">
<title>dir_62d0de061f5b15d9ae7ef168087326fc&#45;&gt;dir_d458d878e154568f8572c436e514c759</title>
<path fill="none" stroke="#000000" d="M52.7905,-143.8083C55.0888,-125.1875 60.0345,-95.7008 70,-72 73.9544,-62.5953 79.6152,-53.0879 85.2805,-44.727"/>
<polygon fill="#000000" stroke="#000000" points="88.1959,-46.6664 91.1147,-36.4815 82.4816,-42.6231 88.1959,-46.6664"/>
<g id="a_edge2&#45;headlabel"><a xlink:href="dir_000045_000037.html" target="_top" xlink:title="4">
<text text-anchor="middle" x="88.4374" y="-48.7406" font-family="Helvetica,sans-Serif" font-size="10.00" fill="#000000">4</text>
</a>
</g>
</g>
<!-- dir_d522f9bdd5df459437ea860478049249 -->
<g id="node2" class="node">
<title>dir_d522f9bdd5df459437ea860478049249</title>
<g id="a_node2"><a xlink:href="dir_d522f9bdd5df459437ea860478049249.html" target="_top" xlink:title="video">
<polygon fill="#ffffff" stroke="#000000" points="150,-180 96,-180 96,-144 150,-144 150,-180"/>
<text text-anchor="middle" x="123" y="-159.5" font-family="Helvetica,sans-Serif" font-size="10.00" fill="#000000">video</text>
</a>
</g>
</g>
<!-- dir_5b2b4e7eaf016c405ff23a7e80f5d639 -->
<g id="node3" class="node">
<title>dir_5b2b4e7eaf016c405ff23a7e80f5d639</title>
<g id="a_node3"><a xlink:href="dir_5b2b4e7eaf016c405ff23a7e80f5d639.html" target="_top" xlink:title="video">
<polygon fill="none" stroke="#000000" points="133,-108 79,-108 79,-72 133,-72 133,-108"/>
<text text-anchor="middle" x="106" y="-87.5" font-family="Helvetica,sans-Serif" font-size="10.00" fill="#000000">video</text>
</a>
</g>
</g>
<!-- dir_d522f9bdd5df459437ea860478049249&#45;&gt;dir_5b2b4e7eaf016c405ff23a7e80f5d639 -->
<g id="edge3" class="edge">
<title>dir_d522f9bdd5df459437ea860478049249&#45;&gt;dir_5b2b4e7eaf016c405ff23a7e80f5d639</title>
<path fill="none" stroke="#000000" d="M118.7102,-143.8314C116.892,-136.131 114.7301,-126.9743 112.7095,-118.4166"/>
<polygon fill="#000000" stroke="#000000" points="116.0519,-117.3414 110.3476,-108.4133 109.2392,-118.95 116.0519,-117.3414"/>
<g id="a_edge3&#45;headlabel"><a xlink:href="dir_000046_000047.html" target="_top" xlink:title="1">
<text text-anchor="middle" x="119.6412" y="-117.6874" font-family="Helvetica,sans-Serif" font-size="10.00" fill="#000000">1</text>
</a>
</g>
</g>
<!-- dir_d522f9bdd5df459437ea860478049249&#45;&gt;dir_d458d878e154568f8572c436e514c759 -->
<g id="edge4" class="edge">
<title>dir_d522f9bdd5df459437ea860478049249&#45;&gt;dir_d458d878e154568f8572c436e514c759</title>
<path fill="none" stroke="#000000" d="M132.1354,-143.8403C140.1313,-125.4973 149.4043,-96.4547 142,-72 139.0436,-62.2355 133.6748,-52.6229 127.97,-44.2762"/>
<polygon fill="#000000" stroke="#000000" points="130.7129,-42.0973 121.9905,-36.0831 125.0586,-46.2239 130.7129,-42.0973"/>
<g id="a_edge4&#45;headlabel"><a xlink:href="dir_000046_000037.html" target="_top" xlink:title="2">
<text text-anchor="middle" x="135.1253" y="-40.827" font-family="Helvetica,sans-Serif" font-size="10.00" fill="#000000">2</text>
</a>
</g>
</g>
<!-- dir_5b2b4e7eaf016c405ff23a7e80f5d639&#45;&gt;dir_d458d878e154568f8572c436e514c759 -->
<g id="edge1" class="edge">
<title>dir_5b2b4e7eaf016c405ff23a7e80f5d639&#45;&gt;dir_d458d878e154568f8572c436e514c759</title>
<path fill="none" stroke="#000000" d="M106,-71.8314C106,-64.131 106,-54.9743 106,-46.4166"/>
<polygon fill="#000000" stroke="#000000" points="109.5001,-46.4132 106,-36.4133 102.5001,-46.4133 109.5001,-46.4132"/>
<g id="a_edge1&#45;headlabel"><a xlink:href="dir_000047_000037.html" target="_top" xlink:title="3">
<text text-anchor="middle" x="112.3393" y="-47.5079" font-family="Helvetica,sans-Serif" font-size="10.00" fill="#000000">3</text>
</a>
</g>
</g>
</g>
</svg>
