<?xml version="1.0" encoding="UTF-8" standalone="no"?>
<!DOCTYPE svg PUBLIC "-//W3C//DTD SVG 1.1//EN"
 "http://www.w3.org/Graphics/SVG/1.1/DTD/svg11.dtd">
<!-- Generated by graphviz version 2.40.1 (20161225.0304)
 -->
<!-- Title: l4 Pages: 1 -->
<svg width="502pt" height="364pt"
 viewBox="0.00 0.00 502.00 364.00" xmlns="http://www.w3.org/2000/svg" xmlns:xlink="http://www.w3.org/1999/xlink">
<g id="graph0" class="graph" transform="scale(1 1) rotate(0) translate(4 360)">
<title>l4</title>
<polygon fill="#ffffff" stroke="transparent" points="-4,4 -4,-360 498,-360 498,4 -4,4"/>
<g id="clust1" class="cluster">
<title>clusterdir_1f581fa1f88782a0973f05f5fe437b46</title>
<g id="a_clust1"><a xlink:href="dir_1f581fa1f88782a0973f05f5fe437b46.html" target="_top">
<polygon fill="#eeeeff" stroke="#000000" points="8,-8 8,-348 486,-348 486,-8 8,-8"/>
</a>
</g>
</g>
<!-- dir_1f581fa1f88782a0973f05f5fe437b46 -->
<g id="node1" class="node">
<title>dir_1f581fa1f88782a0973f05f5fe437b46</title>
<text text-anchor="middle" x="395" y="-319.5" font-family="Helvetica,sans-Serif" font-size="10.00" fill="#000000">l4</text>
</g>
<!-- dir_dd3580c6b729ef0dd2be01098f8e55ee -->
<g id="node2" class="node">
<title>dir_dd3580c6b729ef0dd2be01098f8e55ee</title>
<g id="a_node2"><a xlink:href="dir_dd3580c6b729ef0dd2be01098f8e55ee.html" target="_top" xlink:title="cxx">
<polygon fill="#ffffff" stroke="#ff0000" points="130,-196 76,-196 76,-160 130,-160 130,-196"/>
<text text-anchor="middle" x="103" y="-175.5" font-family="Helvetica,sans-Serif" font-size="10.00" fill="#000000">cxx</text>
</a>
</g>
</g>
<!-- dir_d458d878e154568f8572c436e514c759 -->
<g id="node10" class="node">
<title>dir_d458d878e154568f8572c436e514c759</title>
<g id="a_node10"><a xlink:href="dir_d458d878e154568f8572c436e514c759.html" target="_top" xlink:title="sys">
<polygon fill="#ffffff" stroke="#ff0000" points="222,-52 168,-52 168,-16 222,-16 222,-52"/>
<text text-anchor="middle" x="195" y="-31.5" font-family="Helvetica,sans-Serif" font-size="10.00" fill="#000000">sys</text>
</a>
</g>
</g>
<!-- dir_dd3580c6b729ef0dd2be01098f8e55ee&#45;&gt;dir_d458d878e154568f8572c436e514c759 -->
<g id="edge5" class="edge">
<title>dir_dd3580c6b729ef0dd2be01098f8e55ee&#45;&gt;dir_d458d878e154568f8572c436e514c759</title>
<path fill="none" stroke="#000000" d="M109.2446,-159.8432C116.1803,-140.9897 128.475,-111.0796 144,-88 150.7914,-77.9038 159.5052,-67.9139 167.8015,-59.3237"/>
<polygon fill="#000000" stroke="#000000" points="170.3509,-61.7237 174.9259,-52.1675 165.3901,-56.7849 170.3509,-61.7237"/>
<g id="a_edge5&#45;headlabel"><a xlink:href="dir_000034_000037.html" target="_top" xlink:title="16">
<text text-anchor="middle" x="169.827" y="-63.7742" font-family="Helvetica,sans-Serif" font-size="10.00" fill="#000000">16</text>
</a>
</g>
</g>
<!-- dir_b080fbfc44463f036af256b25228453b -->
<g id="node11" class="node">
<title>dir_b080fbfc44463f036af256b25228453b</title>
<g id="a_node11"><a xlink:href="dir_b080fbfc44463f036af256b25228453b.html" target="_top" xlink:title="util">
<polygon fill="#ffffff" stroke="#000000" points="110,-124 56,-124 56,-88 110,-88 110,-124"/>
<text text-anchor="middle" x="83" y="-103.5" font-family="Helvetica,sans-Serif" font-size="10.00" fill="#000000">util</text>
</a>
</g>
</g>
<!-- dir_dd3580c6b729ef0dd2be01098f8e55ee&#45;&gt;dir_b080fbfc44463f036af256b25228453b -->
<g id="edge4" class="edge">
<title>dir_dd3580c6b729ef0dd2be01098f8e55ee&#45;&gt;dir_b080fbfc44463f036af256b25228453b</title>
<path fill="none" stroke="#000000" d="M97.9532,-159.8314C95.7906,-152.0463 93.2147,-142.7729 90.8152,-134.1347"/>
<polygon fill="#000000" stroke="#000000" points="94.1636,-133.1117 88.1148,-124.4133 87.419,-134.9852 94.1636,-133.1117"/>
<g id="a_edge4&#45;headlabel"><a xlink:href="dir_000034_000012.html" target="_top" xlink:title="2">
<text text-anchor="middle" x="97.8613" y="-133.3153" font-family="Helvetica,sans-Serif" font-size="10.00" fill="#000000">2</text>
</a>
</g>
</g>
<!-- dir_df12a0752bdaa80729fd074dc7c2f44a -->
<g id="node3" class="node">
<title>dir_df12a0752bdaa80729fd074dc7c2f44a</title>
<g id="a_node3"><a xlink:href="dir_df12a0752bdaa80729fd074dc7c2f44a.html" target="_top" xlink:title="irq">
<polygon fill="#ffffff" stroke="#000000" points="478,-124 424,-124 424,-88 478,-88 478,-124"/>
<text text-anchor="middle" x="451" y="-103.5" font-family="Helvetica,sans-Serif" font-size="10.00" fill="#000000">irq</text>
</a>
</g>
</g>
<!-- dir_df12a0752bdaa80729fd074dc7c2f44a&#45;&gt;dir_d458d878e154568f8572c436e514c759 -->
<g id="edge6" class="edge">
<title>dir_df12a0752bdaa80729fd074dc7c2f44a&#45;&gt;dir_d458d878e154568f8572c436e514c759</title>
<path fill="none" stroke="#000000" d="M423.9057,-93.3458C419.3159,-91.4221 414.5599,-89.5613 410,-88 348.8195,-67.0523 275.3274,-50.3393 232.0428,-41.3265"/>
<polygon fill="#000000" stroke="#000000" points="232.7372,-37.8961 222.237,-39.3092 231.3265,-44.7525 232.7372,-37.8961"/>
<g id="a_edge6&#45;headlabel"><a xlink:href="dir_000036_000037.html" target="_top" xlink:title="2">
<text text-anchor="middle" x="236.8301" y="-33.3394" font-family="Helvetica,sans-Serif" font-size="10.00" fill="#000000">2</text>
</a>
</g>
</g>
<!-- dir_23b146a426e7ed970afb9c6da946d6da -->
<g id="node4" class="node">
<title>dir_23b146a426e7ed970afb9c6da946d6da</title>
<g id="a_node4"><a xlink:href="dir_23b146a426e7ed970afb9c6da946d6da.html" target="_top" xlink:title="l4re_vfs">
<polygon fill="#ffffff" stroke="#ff0000" points="322,-340 268,-340 268,-304 322,-304 322,-340"/>
<text text-anchor="middle" x="295" y="-319.5" font-family="Helvetica,sans-Serif" font-size="10.00" fill="#000000">l4re_vfs</text>
</a>
</g>
</g>
<!-- dir_30d77a5207eb89e366a23f343e13fefd -->
<g id="node7" class="node">
<title>dir_30d77a5207eb89e366a23f343e13fefd</title>
<g id="a_node7"><a xlink:href="dir_30d77a5207eb89e366a23f343e13fefd.html" target="_top" xlink:title="re">
<polygon fill="#ffffff" stroke="#ff0000" points="176,-268 122,-268 122,-232 176,-232 176,-268"/>
<text text-anchor="middle" x="149" y="-247.5" font-family="Helvetica,sans-Serif" font-size="10.00" fill="#000000">re</text>
</a>
</g>
</g>
<!-- dir_23b146a426e7ed970afb9c6da946d6da&#45;&gt;dir_30d77a5207eb89e366a23f343e13fefd -->
<g id="edge13" class="edge">
<title>dir_23b146a426e7ed970afb9c6da946d6da&#45;&gt;dir_30d77a5207eb89e366a23f343e13fefd</title>
<path fill="none" stroke="#000000" d="M267.8807,-308.6261C244.6719,-297.1807 211.0582,-280.604 185.4908,-267.9955"/>
<polygon fill="#000000" stroke="#000000" points="186.9863,-264.8305 176.4695,-263.5466 183.8902,-271.1086 186.9863,-264.8305"/>
<g id="a_edge13&#45;headlabel"><a xlink:href="dir_000038_000043.html" target="_top" xlink:title="12">
<text text-anchor="middle" x="191.4659" y="-261.3739" font-family="Helvetica,sans-Serif" font-size="10.00" fill="#000000">12</text>
</a>
</g>
</g>
<!-- dir_23b146a426e7ed970afb9c6da946d6da&#45;&gt;dir_d458d878e154568f8572c436e514c759 -->
<g id="edge14" class="edge">
<title>dir_23b146a426e7ed970afb9c6da946d6da&#45;&gt;dir_d458d878e154568f8572c436e514c759</title>
<path fill="none" stroke="#000000" d="M313.2514,-303.9228C353.0503,-262.3057 439.9816,-157.9383 387,-88 368.4067,-63.4559 282.9804,-46.9519 232.5562,-39.1627"/>
<polygon fill="#000000" stroke="#000000" points="232.7729,-35.6561 222.3641,-37.6331 231.7339,-42.5786 232.7729,-35.6561"/>
<g id="a_edge14&#45;headlabel"><a xlink:href="dir_000038_000037.html" target="_top" xlink:title="7">
<text text-anchor="middle" x="236.749" y="-30.8817" font-family="Helvetica,sans-Serif" font-size="10.00" fill="#000000">7</text>
</a>
</g>
</g>
<!-- dir_c7ab25baedb6fe17d19f630d386cbc03 -->
<g id="node5" class="node">
<title>dir_c7ab25baedb6fe17d19f630d386cbc03</title>
<g id="a_node5"><a xlink:href="dir_c7ab25baedb6fe17d19f630d386cbc03.html" target="_top" xlink:title="l4virtio">
<polygon fill="#ffffff" stroke="#ff0000" points="222,-340 168,-340 168,-304 222,-304 222,-340"/>
<text text-anchor="middle" x="195" y="-319.5" font-family="Helvetica,sans-Serif" font-size="10.00" fill="#000000">l4virtio</text>
</a>
</g>
</g>
<!-- dir_c7ab25baedb6fe17d19f630d386cbc03&#45;&gt;dir_dd3580c6b729ef0dd2be01098f8e55ee -->
<g id="edge16" class="edge">
<title>dir_c7ab25baedb6fe17d19f630d386cbc03&#45;&gt;dir_dd3580c6b729ef0dd2be01098f8e55ee</title>
<path fill="none" stroke="#000000" d="M197.2988,-303.6488C198.7786,-284.3641 198.3843,-253.8524 185,-232 174.4081,-214.7068 155.9516,-201.8245 139.2276,-192.9881"/>
<polygon fill="#000000" stroke="#000000" points="140.6889,-189.806 130.1757,-188.4929 137.5754,-196.0755 140.6889,-189.806"/>
<g id="a_edge16&#45;headlabel"><a xlink:href="dir_000040_000034.html" target="_top" xlink:title="2">
<text text-anchor="middle" x="145.1712" y="-186.3618" font-family="Helvetica,sans-Serif" font-size="10.00" fill="#000000">2</text>
</a>
</g>
</g>
<!-- dir_c7ab25baedb6fe17d19f630d386cbc03&#45;&gt;dir_30d77a5207eb89e366a23f343e13fefd -->
<g id="edge15" class="edge">
<title>dir_c7ab25baedb6fe17d19f630d386cbc03&#45;&gt;dir_30d77a5207eb89e366a23f343e13fefd</title>
<path fill="none" stroke="#000000" d="M183.3923,-303.8314C178.2022,-295.7079 171.9768,-285.9637 166.2575,-277.0118"/>
<polygon fill="#000000" stroke="#000000" points="169.0974,-274.9559 160.764,-268.4133 163.1985,-278.7246 169.0974,-274.9559"/>
<g id="a_edge15&#45;headlabel"><a xlink:href="dir_000040_000043.html" target="_top" xlink:title="9">
<text text-anchor="middle" x="173.4253" y="-273.9564" font-family="Helvetica,sans-Serif" font-size="10.00" fill="#000000">9</text>
</a>
</g>
</g>
<!-- dir_c7ab25baedb6fe17d19f630d386cbc03&#45;&gt;dir_d458d878e154568f8572c436e514c759 -->
<g id="edge17" class="edge">
<title>dir_c7ab25baedb6fe17d19f630d386cbc03&#45;&gt;dir_d458d878e154568f8572c436e514c759</title>
<path fill="none" stroke="#000000" d="M222.4613,-307.0705C286.7945,-270.1868 437.2608,-171.6804 375,-88 357.8992,-65.016 279.5549,-48.154 232.0397,-39.8307"/>
<polygon fill="#000000" stroke="#000000" points="232.5609,-36.3692 222.1147,-38.1374 231.3836,-43.2695 232.5609,-36.3692"/>
<g id="a_edge17&#45;headlabel"><a xlink:href="dir_000040_000037.html" target="_top" xlink:title="12">
<text text-anchor="middle" x="236.5818" y="-31.6748" font-family="Helvetica,sans-Serif" font-size="10.00" fill="#000000">12</text>
</a>
</g>
</g>
<!-- dir_d1b90b3109432465c80e270fbf540d28 -->
<g id="node6" class="node">
<title>dir_d1b90b3109432465c80e270fbf540d28</title>
<g id="a_node6"><a xlink:href="dir_d1b90b3109432465c80e270fbf540d28.html" target="_top" xlink:title="libedid">
<polygon fill="#ffffff" stroke="#000000" points="366,-124 312,-124 312,-88 366,-88 366,-124"/>
<text text-anchor="middle" x="339" y="-103.5" font-family="Helvetica,sans-Serif" font-size="10.00" fill="#000000">libedid</text>
</a>
</g>
</g>
<!-- dir_d1b90b3109432465c80e270fbf540d28&#45;&gt;dir_d458d878e154568f8572c436e514c759 -->
<g id="edge7" class="edge">
<title>dir_d1b90b3109432465c80e270fbf540d28&#45;&gt;dir_d458d878e154568f8572c436e514c759</title>
<path fill="none" stroke="#000000" d="M311.9147,-92.4574C289.2307,-81.1153 256.6433,-64.8217 231.6319,-52.316"/>
<polygon fill="#000000" stroke="#000000" points="232.963,-49.0684 222.4534,-47.7267 229.8325,-55.3294 232.963,-49.0684"/>
<g id="a_edge7&#45;headlabel"><a xlink:href="dir_000042_000037.html" target="_top" xlink:title="1">
<text text-anchor="middle" x="237.4478" y="-45.6364" font-family="Helvetica,sans-Serif" font-size="10.00" fill="#000000">1</text>
</a>
</g>
</g>
<!-- dir_30d77a5207eb89e366a23f343e13fefd&#45;&gt;dir_dd3580c6b729ef0dd2be01098f8e55ee -->
<g id="edge1" class="edge">
<title>dir_30d77a5207eb89e366a23f343e13fefd&#45;&gt;dir_dd3580c6b729ef0dd2be01098f8e55ee</title>
<path fill="none" stroke="#000000" d="M137.3923,-231.8314C132.2022,-223.7079 125.9768,-213.9637 120.2575,-205.0118"/>
<polygon fill="#000000" stroke="#000000" points="123.0974,-202.9559 114.764,-196.4133 117.1985,-206.7246 123.0974,-202.9559"/>
<g id="a_edge1&#45;headlabel"><a xlink:href="dir_000043_000034.html" target="_top" xlink:title="4">
<text text-anchor="middle" x="127.4253" y="-201.9564" font-family="Helvetica,sans-Serif" font-size="10.00" fill="#000000">4</text>
</a>
</g>
</g>
<!-- dir_30d77a5207eb89e366a23f343e13fefd&#45;&gt;dir_d458d878e154568f8572c436e514c759 -->
<g id="edge2" class="edge">
<title>dir_30d77a5207eb89e366a23f343e13fefd&#45;&gt;dir_d458d878e154568f8572c436e514c759</title>
<path fill="none" stroke="#000000" d="M147.1227,-231.9213C144.5988,-201.3606 142.1831,-137.9383 159,-88 162.256,-78.3313 167.7124,-68.7466 173.4053,-60.3962"/>
<polygon fill="#000000" stroke="#000000" points="176.3167,-62.3431 179.3413,-52.1891 170.6448,-58.2407 176.3167,-62.3431"/>
<g id="a_edge2&#45;headlabel"><a xlink:href="dir_000043_000037.html" target="_top" xlink:title="109">
<text text-anchor="middle" x="176.5107" y="-64.4196" font-family="Helvetica,sans-Serif" font-size="10.00" fill="#000000">109</text>
</a>
</g>
</g>
<!-- dir_4720fcac3b01e025220c92790c02ac45 -->
<g id="node8" class="node">
<title>dir_4720fcac3b01e025220c92790c02ac45</title>
<g id="a_node8"><a xlink:href="dir_4720fcac3b01e025220c92790c02ac45.html" target="_top" xlink:title="shmc">
<polygon fill="#ffffff" stroke="#000000" points="294,-124 240,-124 240,-88 294,-88 294,-124"/>
<text text-anchor="middle" x="267" y="-103.5" font-family="Helvetica,sans-Serif" font-size="10.00" fill="#000000">shmc</text>
</a>
</g>
</g>
<!-- dir_4720fcac3b01e025220c92790c02ac45&#45;&gt;dir_d458d878e154568f8572c436e514c759 -->
<g id="edge12" class="edge">
<title>dir_4720fcac3b01e025220c92790c02ac45&#45;&gt;dir_d458d878e154568f8572c436e514c759</title>
<path fill="none" stroke="#000000" d="M248.8314,-87.8314C240.2848,-79.2848 229.9443,-68.9443 220.6198,-59.6198"/>
<polygon fill="#000000" stroke="#000000" points="222.9592,-57.0095 213.4133,-52.4133 218.0095,-61.9592 222.9592,-57.0095"/>
<g id="a_edge12&#45;headlabel"><a xlink:href="dir_000052_000037.html" target="_top" xlink:title="2">
<text text-anchor="middle" x="227.5087" y="-55.0436" font-family="Helvetica,sans-Serif" font-size="10.00" fill="#000000">2</text>
</a>
</g>
</g>
<!-- dir_11ec9eaccd0d5da5ddb1d321a08c42f0 -->
<g id="node9" class="node">
<title>dir_11ec9eaccd0d5da5ddb1d321a08c42f0</title>
<g id="a_node9"><a xlink:href="dir_11ec9eaccd0d5da5ddb1d321a08c42f0.html" target="_top" xlink:title="sigma0">
<polygon fill="#ffffff" stroke="#000000" points="222,-124 168,-124 168,-88 222,-88 222,-124"/>
<text text-anchor="middle" x="195" y="-103.5" font-family="Helvetica,sans-Serif" font-size="10.00" fill="#000000">sigma0</text>
</a>
</g>
</g>
<!-- dir_11ec9eaccd0d5da5ddb1d321a08c42f0&#45;&gt;dir_d458d878e154568f8572c436e514c759 -->
<g id="edge8" class="edge">
<title>dir_11ec9eaccd0d5da5ddb1d321a08c42f0&#45;&gt;dir_d458d878e154568f8572c436e514c759</title>
<path fill="none" stroke="#000000" d="M195,-87.8314C195,-80.131 195,-70.9743 195,-62.4166"/>
<polygon fill="#000000" stroke="#000000" points="198.5001,-62.4132 195,-52.4133 191.5001,-62.4133 198.5001,-62.4132"/>
<g id="a_edge8&#45;headlabel"><a xlink:href="dir_000053_000037.html" target="_top" xlink:title="3">
<text text-anchor="middle" x="201.3393" y="-63.5079" font-family="Helvetica,sans-Serif" font-size="10.00" fill="#000000">3</text>
</a>
</g>
</g>
<!-- dir_b080fbfc44463f036af256b25228453b&#45;&gt;dir_d458d878e154568f8572c436e514c759 -->
<g id="edge3" class="edge">
<title>dir_b080fbfc44463f036af256b25228453b&#45;&gt;dir_d458d878e154568f8572c436e514c759</title>
<path fill="none" stroke="#000000" d="M110.1121,-88.5708C124.8606,-79.0896 143.2904,-67.2419 159.2056,-57.0107"/>
<polygon fill="#000000" stroke="#000000" points="161.2303,-59.87 167.7494,-51.5182 157.4449,-53.9817 161.2303,-59.87"/>
<g id="a_edge3&#45;headlabel"><a xlink:href="dir_000012_000037.html" target="_top" xlink:title="26">
<text text-anchor="middle" x="159.7419" y="-61.7021" font-family="Helvetica,sans-Serif" font-size="10.00" fill="#000000">26</text>
</a>
</g>
</g>
<!-- dir_364af192430b60ca4d316aa6a7cd95d2 -->
<g id="node12" class="node">
<title>dir_364af192430b60ca4d316aa6a7cd95d2</title>
<g id="a_node12"><a xlink:href="dir_364af192430b60ca4d316aa6a7cd95d2.html" target="_top" xlink:title="vbus">
<polygon fill="#ffffff" stroke="#000000" points="142,-340 88,-340 88,-304 142,-304 142,-340"/>
<text text-anchor="middle" x="115" y="-319.5" font-family="Helvetica,sans-Serif" font-size="10.00" fill="#000000">vbus</text>
</a>
</g>
</g>
<!-- dir_364af192430b60ca4d316aa6a7cd95d2&#45;&gt;dir_dd3580c6b729ef0dd2be01098f8e55ee -->
<g id="edge10" class="edge">
<title>dir_364af192430b60ca4d316aa6a7cd95d2&#45;&gt;dir_dd3580c6b729ef0dd2be01098f8e55ee</title>
<path fill="none" stroke="#000000" d="M113.4802,-303.7623C111.4334,-279.201 107.7706,-235.2474 105.3628,-206.3541"/>
<polygon fill="#000000" stroke="#000000" points="108.8259,-205.7644 104.5075,-196.0896 101.8501,-206.3458 108.8259,-205.7644"/>
<g id="a_edge10&#45;headlabel"><a xlink:href="dir_000055_000034.html" target="_top" xlink:title="1">
<text text-anchor="middle" x="111.9538" y="-206.6108" font-family="Helvetica,sans-Serif" font-size="10.00" fill="#000000">1</text>
</a>
</g>
</g>
<!-- dir_364af192430b60ca4d316aa6a7cd95d2&#45;&gt;dir_30d77a5207eb89e366a23f343e13fefd -->
<g id="edge9" class="edge">
<title>dir_364af192430b60ca4d316aa6a7cd95d2&#45;&gt;dir_30d77a5207eb89e366a23f343e13fefd</title>
<path fill="none" stroke="#000000" d="M123.5796,-303.8314C127.3358,-295.8771 131.8257,-286.369 135.9798,-277.5723"/>
<polygon fill="#000000" stroke="#000000" points="139.1996,-278.9503 140.3048,-268.4133 132.8699,-275.9612 139.1996,-278.9503"/>
<g id="a_edge9&#45;headlabel"><a xlink:href="dir_000055_000043.html" target="_top" xlink:title="2">
<text text-anchor="middle" x="140.2321" y="-280.9131" font-family="Helvetica,sans-Serif" font-size="10.00" fill="#000000">2</text>
</a>
</g>
</g>
<!-- dir_364af192430b60ca4d316aa6a7cd95d2&#45;&gt;dir_d458d878e154568f8572c436e514c759 -->
<g id="edge11" class="edge">
<title>dir_364af192430b60ca4d316aa6a7cd95d2&#45;&gt;dir_d458d878e154568f8572c436e514c759</title>
<path fill="none" stroke="#000000" d="M100.1824,-303.8864C67.9744,-262.1926 -1.7461,-157.6752 47,-88 60.0534,-69.3421 118.7362,-52.1109 158.1703,-42.3434"/>
<polygon fill="#000000" stroke="#000000" points="159.0925,-45.7214 167.988,-39.9664 157.4452,-38.9179 159.0925,-45.7214"/>
<g id="a_edge11&#45;headlabel"><a xlink:href="dir_000055_000037.html" target="_top" xlink:title="15">
<text text-anchor="middle" x="156.267" y="-46.8267" font-family="Helvetica,sans-Serif" font-size="10.00" fill="#000000">15</text>
</a>
</g>
</g>
<!-- dir_499f942adf6d1e36428e5905faf00190 -->
<g id="node13" class="node">
<title>dir_499f942adf6d1e36428e5905faf00190</title>
<g id="a_node13"><a xlink:href="dir_499f942adf6d1e36428e5905faf00190.html" target="_top" xlink:title="vcpu">
<polygon fill="#ffffff" stroke="#ff0000" points="70,-340 16,-340 16,-304 70,-304 70,-340"/>
<text text-anchor="middle" x="43" y="-319.5" font-family="Helvetica,sans-Serif" font-size="10.00" fill="#000000">vcpu</text>
</a>
</g>
</g>
<!-- dir_499f942adf6d1e36428e5905faf00190&#45;&gt;dir_30d77a5207eb89e366a23f343e13fefd -->
<g id="edge18" class="edge">
<title>dir_499f942adf6d1e36428e5905faf00190&#45;&gt;dir_30d77a5207eb89e366a23f343e13fefd</title>
<path fill="none" stroke="#000000" d="M69.7483,-303.8314C83.0553,-294.7927 99.316,-283.7476 113.6375,-274.0198"/>
<polygon fill="#000000" stroke="#000000" points="115.9547,-276.677 122.2603,-268.1628 112.0215,-270.8864 115.9547,-276.677"/>
<g id="a_edge18&#45;headlabel"><a xlink:href="dir_000056_000043.html" target="_top" xlink:title="1">
<text text-anchor="middle" x="114.5765" y="-278.5454" font-family="Helvetica,sans-Serif" font-size="10.00" fill="#000000">1</text>
</a>
</g>
</g>
<!-- dir_499f942adf6d1e36428e5905faf00190&#45;&gt;dir_d458d878e154568f8572c436e514c759 -->
<g id="edge19" class="edge">
<title>dir_499f942adf6d1e36428e5905faf00190&#45;&gt;dir_d458d878e154568f8572c436e514c759</title>
<path fill="none" stroke="#000000" d="M34.7597,-303.9878C16.7342,-261.6019 -20.8418,-154.1544 28,-88 43.5734,-66.9065 113.678,-49.7697 157.9594,-40.8022"/>
<polygon fill="#000000" stroke="#000000" points="158.6677,-44.2301 167.7992,-38.8574 157.3103,-37.3629 158.6677,-44.2301"/>
<g id="a_edge19&#45;headlabel"><a xlink:href="dir_000056_000037.html" target="_top" xlink:title="2">
<text text-anchor="middle" x="155.6918" y="-45.2124" font-family="Helvetica,sans-Serif" font-size="10.00" fill="#000000">2</text>
</a>
</g>
</g>
</g>
</svg>
