<?xml version="1.0" encoding="UTF-8" standalone="no"?>
<!DOCTYPE svg PUBLIC "-//W3C//DTD SVG 1.1//EN"
 "http://www.w3.org/Graphics/SVG/1.1/DTD/svg11.dtd">
<!-- Generated by graphviz version 2.40.1 (20161225.0304)
 -->
<!-- Title: l4/cxx Pages: 1 -->
<svg width="191pt" height="231pt"
 viewBox="0.00 0.00 191.00 231.00" xmlns="http://www.w3.org/2000/svg" xmlns:xlink="http://www.w3.org/1999/xlink">
<g id="graph0" class="graph" transform="scale(1 1) rotate(0) translate(4 227)">
<title>l4/cxx</title>
<polygon fill="#ffffff" stroke="transparent" points="-4,4 -4,-227 187,-227 187,4 -4,4"/>
<g id="clust1" class="cluster">
<title>clusterdir_1f581fa1f88782a0973f05f5fe437b46</title>
<g id="a_clust1"><a xlink:href="dir_1f581fa1f88782a0973f05f5fe437b46.html" target="_top" xlink:title="l4">
<polygon fill="#ddddee" stroke="#000000" points="8,-56 8,-215 94,-215 94,-56 8,-56"/>
<text text-anchor="middle" x="51" y="-203" font-family="Helvetica,sans-Serif" font-size="10.00" fill="#000000">l4</text>
</a>
</g>
</g>
<g id="clust2" class="cluster">
<title>clusterdir_dd3580c6b729ef0dd2be01098f8e55ee</title>
<g id="a_clust2"><a xlink:href="dir_dd3580c6b729ef0dd2be01098f8e55ee.html" target="_top">
<polygon fill="#eeeeff" stroke="#000000" points="16,-64 16,-188 86,-188 86,-64 16,-64"/>
</a>
</g>
</g>
<!-- dir_dd3580c6b729ef0dd2be01098f8e55ee -->
<g id="node1" class="node">
<title>dir_dd3580c6b729ef0dd2be01098f8e55ee</title>
<text text-anchor="middle" x="51" y="-159.5" font-family="Helvetica,sans-Serif" font-size="10.00" fill="#000000">cxx</text>
</g>
<!-- dir_9ce08663f6888314580f3977af327a46 -->
<g id="node2" class="node">
<title>dir_9ce08663f6888314580f3977af327a46</title>
<g id="a_node2"><a xlink:href="dir_9ce08663f6888314580f3977af327a46.html" target="_top" xlink:title="bits">
<polygon fill="#ffffff" stroke="#000000" points="78,-108 24,-108 24,-72 78,-72 78,-108"/>
<text text-anchor="middle" x="51" y="-87.5" font-family="Helvetica,sans-Serif" font-size="10.00" fill="#000000">bits</text>
</a>
</g>
</g>
<!-- dir_dd3580c6b729ef0dd2be01098f8e55ee&#45;&gt;dir_9ce08663f6888314580f3977af327a46 -->
<g id="edge2" class="edge">
<title>dir_dd3580c6b729ef0dd2be01098f8e55ee&#45;&gt;dir_9ce08663f6888314580f3977af327a46</title>
<path fill="none" stroke="#000000" d="M51,-143.8314C51,-136.131 51,-126.9743 51,-118.4166"/>
<polygon fill="#000000" stroke="#000000" points="54.5001,-118.4132 51,-108.4133 47.5001,-118.4133 54.5001,-118.4132"/>
<g id="a_edge2&#45;headlabel"><a xlink:href="dir_000034_000035.html" target="_top" xlink:title="2">
<text text-anchor="middle" x="57.3393" y="-119.5079" font-family="Helvetica,sans-Serif" font-size="10.00" fill="#000000">2</text>
</a>
</g>
</g>
<!-- dir_b080fbfc44463f036af256b25228453b -->
<g id="node3" class="node">
<title>dir_b080fbfc44463f036af256b25228453b</title>
<g id="a_node3"><a xlink:href="dir_b080fbfc44463f036af256b25228453b.html" target="_top" xlink:title="util">
<polygon fill="none" stroke="#000000" points="156,-108 102,-108 102,-72 156,-72 156,-108"/>
<text text-anchor="middle" x="129" y="-87.5" font-family="Helvetica,sans-Serif" font-size="10.00" fill="#000000">util</text>
</a>
</g>
</g>
<!-- dir_dd3580c6b729ef0dd2be01098f8e55ee&#45;&gt;dir_b080fbfc44463f036af256b25228453b -->
<g id="edge3" class="edge">
<title>dir_dd3580c6b729ef0dd2be01098f8e55ee&#45;&gt;dir_b080fbfc44463f036af256b25228453b</title>
<path fill="none" stroke="#000000" d="M70.6827,-143.8314C80.1051,-135.1337 91.5401,-124.5783 101.7796,-115.1265"/>
<polygon fill="#000000" stroke="#000000" points="104.3495,-117.5175 109.3236,-108.1628 99.6016,-112.3738 104.3495,-117.5175"/>
<g id="a_edge3&#45;headlabel"><a xlink:href="dir_000034_000012.html" target="_top" xlink:title="2">
<text text-anchor="middle" x="103.634" y="-119.5419" font-family="Helvetica,sans-Serif" font-size="10.00" fill="#000000">2</text>
</a>
</g>
</g>
<!-- dir_d458d878e154568f8572c436e514c759 -->
<g id="node4" class="node">
<title>dir_d458d878e154568f8572c436e514c759</title>
<g id="a_node4"><a xlink:href="dir_d458d878e154568f8572c436e514c759.html" target="_top" xlink:title="sys">
<polygon fill="#ffffff" stroke="#ff0000" points="183,-36 129,-36 129,0 183,0 183,-36"/>
<text text-anchor="middle" x="156" y="-15.5" font-family="Helvetica,sans-Serif" font-size="10.00" fill="#000000">sys</text>
</a>
</g>
</g>
<!-- dir_dd3580c6b729ef0dd2be01098f8e55ee&#45;&gt;dir_d458d878e154568f8572c436e514c759 -->
<g id="edge4" class="edge">
<title>dir_dd3580c6b729ef0dd2be01098f8e55ee&#45;&gt;dir_d458d878e154568f8572c436e514c759</title>
<path fill="none" stroke="#000000" d="M78.1495,-157.6307C105.4162,-151.6402 146.0283,-137.979 165,-108 176.6733,-89.5538 173.0148,-64.602 167.2335,-45.6494"/>
<polygon fill="#000000" stroke="#000000" points="170.5155,-44.4293 163.9873,-36.0847 163.8869,-46.6791 170.5155,-44.4293"/>
<g id="a_edge4&#45;headlabel"><a xlink:href="dir_000034_000037.html" target="_top" xlink:title="16">
<text text-anchor="middle" x="174.3594" y="-44.4208" font-family="Helvetica,sans-Serif" font-size="10.00" fill="#000000">16</text>
</a>
</g>
</g>
<!-- dir_b080fbfc44463f036af256b25228453b&#45;&gt;dir_d458d878e154568f8572c436e514c759 -->
<g id="edge1" class="edge">
<title>dir_b080fbfc44463f036af256b25228453b&#45;&gt;dir_d458d878e154568f8572c436e514c759</title>
<path fill="none" stroke="#000000" d="M135.8132,-71.8314C138.7644,-63.9617 142.2858,-54.5712 145.555,-45.8533"/>
<polygon fill="#000000" stroke="#000000" points="148.8609,-47.0055 149.095,-36.4133 142.3066,-44.5476 148.8609,-47.0055"/>
<g id="a_edge1&#45;headlabel"><a xlink:href="dir_000012_000037.html" target="_top" xlink:title="26">
<text text-anchor="middle" x="150.2573" y="-48.8682" font-family="Helvetica,sans-Serif" font-size="10.00" fill="#000000">26</text>
</a>
</g>
</g>
</g>
</svg>
