<?xml version="1.0" encoding="UTF-8" standalone="no"?>
<!DOCTYPE svg PUBLIC "-//W3C//DTD SVG 1.1//EN"
 "http://www.w3.org/Graphics/SVG/1.1/DTD/svg11.dtd">
<!-- Generated by graphviz version 2.40.1 (20161225.0304)
 -->
<!-- Title: l4/vcpu Pages: 1 -->
<svg width="182pt" height="231pt"
 viewBox="0.00 0.00 182.00 231.00" xmlns="http://www.w3.org/2000/svg" xmlns:xlink="http://www.w3.org/1999/xlink">
<g id="graph0" class="graph" transform="scale(1 1) rotate(0) translate(4 227)">
<title>l4/vcpu</title>
<polygon fill="#ffffff" stroke="transparent" points="-4,4 -4,-227 178,-227 178,4 -4,4"/>
<g id="clust1" class="cluster">
<title>clusterdir_1f581fa1f88782a0973f05f5fe437b46</title>
<g id="a_clust1"><a xlink:href="dir_1f581fa1f88782a0973f05f5fe437b46.html" target="_top" xlink:title="l4">
<polygon fill="#ddddee" stroke="#000000" points="8,-128 8,-215 166,-215 166,-128 8,-128"/>
<text text-anchor="middle" x="87" y="-203" font-family="Helvetica,sans-Serif" font-size="10.00" fill="#000000">l4</text>
</a>
</g>
</g>
<g id="clust2" class="cluster">
<title>clusterdir_499f942adf6d1e36428e5905faf00190</title>
<g id="a_clust2"><a xlink:href="dir_499f942adf6d1e36428e5905faf00190.html" target="_top">
<polygon fill="#eeeeff" stroke="#000000" points="16,-136 16,-188 158,-188 158,-136 16,-136"/>
</a>
</g>
</g>
<!-- dir_499f942adf6d1e36428e5905faf00190 -->
<g id="node1" class="node">
<title>dir_499f942adf6d1e36428e5905faf00190</title>
<text text-anchor="middle" x="123" y="-159.5" font-family="Helvetica,sans-Serif" font-size="10.00" fill="#000000">vcpu</text>
</g>
<!-- dir_30d77a5207eb89e366a23f343e13fefd -->
<g id="node3" class="node">
<title>dir_30d77a5207eb89e366a23f343e13fefd</title>
<g id="a_node3"><a xlink:href="dir_30d77a5207eb89e366a23f343e13fefd.html" target="_top" xlink:title="re">
<polygon fill="#ffffff" stroke="#ff0000" points="122,-108 68,-108 68,-72 122,-72 122,-108"/>
<text text-anchor="middle" x="95" y="-87.5" font-family="Helvetica,sans-Serif" font-size="10.00" fill="#000000">re</text>
</a>
</g>
</g>
<!-- dir_499f942adf6d1e36428e5905faf00190&#45;&gt;dir_30d77a5207eb89e366a23f343e13fefd -->
<g id="edge2" class="edge">
<title>dir_499f942adf6d1e36428e5905faf00190&#45;&gt;dir_30d77a5207eb89e366a23f343e13fefd</title>
<path fill="none" stroke="#000000" d="M115.9344,-143.8314C112.874,-135.9617 109.2221,-126.5712 105.8318,-117.8533"/>
<polygon fill="#000000" stroke="#000000" points="109.0473,-116.4647 102.1607,-108.4133 102.5232,-119.0019 109.0473,-116.4647"/>
<g id="a_edge2&#45;headlabel"><a xlink:href="dir_000056_000043.html" target="_top" xlink:title="1">
<text text-anchor="middle" x="112.9963" y="-116.2859" font-family="Helvetica,sans-Serif" font-size="10.00" fill="#000000">1</text>
</a>
</g>
</g>
<!-- dir_d458d878e154568f8572c436e514c759 -->
<g id="node4" class="node">
<title>dir_d458d878e154568f8572c436e514c759</title>
<g id="a_node4"><a xlink:href="dir_d458d878e154568f8572c436e514c759.html" target="_top" xlink:title="sys">
<polygon fill="#ffffff" stroke="#ff0000" points="149,-36 95,-36 95,0 149,0 149,-36"/>
<text text-anchor="middle" x="122" y="-15.5" font-family="Helvetica,sans-Serif" font-size="10.00" fill="#000000">sys</text>
</a>
</g>
</g>
<!-- dir_499f942adf6d1e36428e5905faf00190&#45;&gt;dir_d458d878e154568f8572c436e514c759 -->
<g id="edge3" class="edge">
<title>dir_499f942adf6d1e36428e5905faf00190&#45;&gt;dir_d458d878e154568f8572c436e514c759</title>
<path fill="none" stroke="#000000" d="M126.415,-143.5804C128.1709,-133.1767 130.1226,-119.9092 131,-108 132.1756,-92.0432 132.3197,-87.9455 131,-72 130.3055,-63.6085 129.0138,-54.5578 127.6214,-46.3092"/>
<polygon fill="#000000" stroke="#000000" points="131.0544,-45.6235 125.8413,-36.3999 124.1647,-46.8612 131.0544,-45.6235"/>
<g id="a_edge3&#45;headlabel"><a xlink:href="dir_000056_000037.html" target="_top" xlink:title="2">
<text text-anchor="middle" x="134.4844" y="-46.1595" font-family="Helvetica,sans-Serif" font-size="10.00" fill="#000000">2</text>
</a>
</g>
</g>
<!-- dir_b6f1e38336213cb978a802b35383f165 -->
<g id="node2" class="node">
<title>dir_b6f1e38336213cb978a802b35383f165</title>
<g id="a_node2"><a xlink:href="dir_b6f1e38336213cb978a802b35383f165.html" target="_top" xlink:title="vmx">
<polygon fill="#ffffff" stroke="#000000" points="78,-180 24,-180 24,-144 78,-144 78,-180"/>
<text text-anchor="middle" x="51" y="-159.5" font-family="Helvetica,sans-Serif" font-size="10.00" fill="#000000">vmx</text>
</a>
</g>
</g>
<!-- dir_30d77a5207eb89e366a23f343e13fefd&#45;&gt;dir_d458d878e154568f8572c436e514c759 -->
<g id="edge1" class="edge">
<title>dir_30d77a5207eb89e366a23f343e13fefd&#45;&gt;dir_d458d878e154568f8572c436e514c759</title>
<path fill="none" stroke="#000000" d="M101.8132,-71.8314C104.7644,-63.9617 108.2858,-54.5712 111.555,-45.8533"/>
<polygon fill="#000000" stroke="#000000" points="114.8609,-47.0055 115.095,-36.4133 108.3066,-44.5476 114.8609,-47.0055"/>
<g id="a_edge1&#45;headlabel"><a xlink:href="dir_000043_000037.html" target="_top" xlink:title="109">
<text text-anchor="middle" x="116.2573" y="-48.8682" font-family="Helvetica,sans-Serif" font-size="10.00" fill="#000000">109</text>
</a>
</g>
</g>
</g>
</svg>
