<?xml version="1.0" encoding="UTF-8" standalone="no"?>
<!DOCTYPE svg PUBLIC "-//W3C//DTD SVG 1.1//EN"
 "http://www.w3.org/Graphics/SVG/1.1/DTD/svg11.dtd">
<!-- Generated by graphviz version 2.40.1 (20161225.0304)
 -->
<!-- Title: l4/re Pages: 1 -->
<svg width="431pt" height="231pt"
 viewBox="0.00 0.00 431.46 231.00" xmlns="http://www.w3.org/2000/svg" xmlns:xlink="http://www.w3.org/1999/xlink">
<g id="graph0" class="graph" transform="scale(1 1) rotate(0) translate(4 227)">
<title>l4/re</title>
<polygon fill="#ffffff" stroke="transparent" points="-4,4 -4,-227 427.4612,-227 427.4612,4 -4,4"/>
<g id="clust1" class="cluster">
<title>clusterdir_1f581fa1f88782a0973f05f5fe437b46</title>
<g id="a_clust1"><a xlink:href="dir_1f581fa1f88782a0973f05f5fe437b46.html" target="_top" xlink:title="l4">
<polygon fill="#ddddee" stroke="#000000" points="8,-56 8,-215 310,-215 310,-56 8,-56"/>
<text text-anchor="middle" x="159" y="-203" font-family="Helvetica,sans-Serif" font-size="10.00" fill="#000000">l4</text>
</a>
</g>
</g>
<g id="clust2" class="cluster">
<title>clusterdir_30d77a5207eb89e366a23f343e13fefd</title>
<g id="a_clust2"><a xlink:href="dir_30d77a5207eb89e366a23f343e13fefd.html" target="_top">
<polygon fill="#eeeeff" stroke="#000000" points="16,-64 16,-188 302,-188 302,-64 16,-64"/>
</a>
</g>
</g>
<!-- dir_30d77a5207eb89e366a23f343e13fefd -->
<g id="node1" class="node">
<title>dir_30d77a5207eb89e366a23f343e13fefd</title>
<text text-anchor="middle" x="123" y="-159.5" font-family="Helvetica,sans-Serif" font-size="10.00" fill="#000000">re</text>
</g>
<!-- dir_dd3580c6b729ef0dd2be01098f8e55ee -->
<g id="node6" class="node">
<title>dir_dd3580c6b729ef0dd2be01098f8e55ee</title>
<g id="a_node6"><a xlink:href="dir_dd3580c6b729ef0dd2be01098f8e55ee.html" target="_top" xlink:title="cxx">
<polygon fill="#ffffff" stroke="#ff0000" points="372,-108 318,-108 318,-72 372,-72 372,-108"/>
<text text-anchor="middle" x="345" y="-87.5" font-family="Helvetica,sans-Serif" font-size="10.00" fill="#000000">cxx</text>
</a>
</g>
</g>
<!-- dir_30d77a5207eb89e366a23f343e13fefd&#45;&gt;dir_dd3580c6b729ef0dd2be01098f8e55ee -->
<g id="edge1" class="edge">
<title>dir_30d77a5207eb89e366a23f343e13fefd&#45;&gt;dir_dd3580c6b729ef0dd2be01098f8e55ee</title>
<path fill="none" stroke="#000000" d="M150.2372,-147.5928C153.1563,-146.287 156.1138,-145.0598 159,-144 222.1418,-120.8147 242.5038,-130.1962 306,-108 306.7127,-107.7508 307.4301,-107.4932 308.1506,-107.2283"/>
<polygon fill="#000000" stroke="#000000" points="309.5929,-110.4209 317.5741,-103.4531 306.9897,-103.923 309.5929,-110.4209"/>
<g id="a_edge1&#45;headlabel"><a xlink:href="dir_000043_000034.html" target="_top" xlink:title="4">
<text text-anchor="middle" x="307.3119" y="-111.8933" font-family="Helvetica,sans-Serif" font-size="10.00" fill="#000000">4</text>
</a>
</g>
</g>
<!-- dir_9cacc43b47fb52c27eca04eb55cc6fe9 -->
<g id="node2" class="node">
<title>dir_9cacc43b47fb52c27eca04eb55cc6fe9</title>
<g id="a_node2"><a xlink:href="dir_9cacc43b47fb52c27eca04eb55cc6fe9.html" target="_top" xlink:title="c">
<polygon fill="#ffffff" stroke="#ff0000" points="222,-180 168,-180 168,-144 222,-144 222,-180"/>
<text text-anchor="middle" x="195" y="-159.5" font-family="Helvetica,sans-Serif" font-size="10.00" fill="#000000">c</text>
</a>
</g>
</g>
<!-- dir_d458d878e154568f8572c436e514c759 -->
<g id="node7" class="node">
<title>dir_d458d878e154568f8572c436e514c759</title>
<g id="a_node7"><a xlink:href="dir_d458d878e154568f8572c436e514c759.html" target="_top" xlink:title="sys">
<polygon fill="#ffffff" stroke="#ff0000" points="372,-36 318,-36 318,0 372,0 372,-36"/>
<text text-anchor="middle" x="345" y="-15.5" font-family="Helvetica,sans-Serif" font-size="10.00" fill="#000000">sys</text>
</a>
</g>
</g>
<!-- dir_9cacc43b47fb52c27eca04eb55cc6fe9&#45;&gt;dir_d458d878e154568f8572c436e514c759 -->
<g id="edge5" class="edge">
<title>dir_9cacc43b47fb52c27eca04eb55cc6fe9&#45;&gt;dir_d458d878e154568f8572c436e514c759</title>
<path fill="none" stroke="#000000" d="M222.2322,-147.5791C225.1523,-146.2759 228.1114,-145.0531 231,-144 295.4127,-120.517 338.553,-161.8396 381,-108 395.3086,-89.851 389.555,-77.4694 381,-56 379.2886,-51.7051 376.8356,-47.6164 374.0034,-43.8217"/>
<polygon fill="#000000" stroke="#000000" points="376.4942,-41.3489 367.3382,-36.018 371.1714,-45.8951 376.4942,-41.3489"/>
<g id="a_edge5&#45;headlabel"><a xlink:href="dir_000044_000037.html" target="_top" xlink:title="13">
<text text-anchor="middle" x="380.9877" y="-39.7382" font-family="Helvetica,sans-Serif" font-size="10.00" fill="#000000">13</text>
</a>
</g>
</g>
<!-- dir_36777f7a7a96e008b339783d073d7ed0 -->
<g id="node3" class="node">
<title>dir_36777f7a7a96e008b339783d073d7ed0</title>
<g id="a_node3"><a xlink:href="dir_36777f7a7a96e008b339783d073d7ed0.html" target="_top" xlink:title="impl">
<polygon fill="#ffffff" stroke="#000000" points="294,-180 240,-180 240,-144 294,-144 294,-180"/>
<text text-anchor="middle" x="267" y="-159.5" font-family="Helvetica,sans-Serif" font-size="10.00" fill="#000000">impl</text>
</a>
</g>
</g>
<!-- dir_36777f7a7a96e008b339783d073d7ed0&#45;&gt;dir_d458d878e154568f8572c436e514c759 -->
<g id="edge4" class="edge">
<title>dir_36777f7a7a96e008b339783d073d7ed0&#45;&gt;dir_d458d878e154568f8572c436e514c759</title>
<path fill="none" stroke="#000000" d="M294.1514,-155.9301C332.6373,-146.7134 399.9559,-128.1208 414,-108 427.2278,-89.0488 425.7571,-75.8971 414,-56 406.7929,-43.8031 394.1198,-35.2548 381.5846,-29.3996"/>
<polygon fill="#000000" stroke="#000000" points="382.6942,-26.0697 372.1186,-25.4312 379.9878,-32.5254 382.6942,-26.0697"/>
<g id="a_edge4&#45;headlabel"><a xlink:href="dir_000049_000037.html" target="_top" xlink:title="7">
<text text-anchor="middle" x="387.107" y="-22.341" font-family="Helvetica,sans-Serif" font-size="10.00" fill="#000000">7</text>
</a>
</g>
</g>
<!-- dir_57b23affb30111293db30b1adc1928ce -->
<g id="node4" class="node">
<title>dir_57b23affb30111293db30b1adc1928ce</title>
<g id="a_node4"><a xlink:href="dir_57b23affb30111293db30b1adc1928ce.html" target="_top" xlink:title="util">
<polygon fill="#ffffff" stroke="#ff0000" points="78,-180 24,-180 24,-144 78,-144 78,-180"/>
<text text-anchor="middle" x="51" y="-159.5" font-family="Helvetica,sans-Serif" font-size="10.00" fill="#000000">util</text>
</a>
</g>
</g>
<!-- dir_64a0a8d27b6a136ec43eee79cca0e5fc -->
<g id="node5" class="node">
<title>dir_64a0a8d27b6a136ec43eee79cca0e5fc</title>
<g id="a_node5"><a xlink:href="dir_64a0a8d27b6a136ec43eee79cca0e5fc.html" target="_top" xlink:title="video">
<polygon fill="#ffffff" stroke="#000000" points="124,-108 70,-108 70,-72 124,-72 124,-108"/>
<text text-anchor="middle" x="97" y="-87.5" font-family="Helvetica,sans-Serif" font-size="10.00" fill="#000000">video</text>
</a>
</g>
</g>
<!-- dir_57b23affb30111293db30b1adc1928ce&#45;&gt;dir_64a0a8d27b6a136ec43eee79cca0e5fc -->
<g id="edge6" class="edge">
<title>dir_57b23affb30111293db30b1adc1928ce&#45;&gt;dir_64a0a8d27b6a136ec43eee79cca0e5fc</title>
<path fill="none" stroke="#000000" d="M62.6077,-143.8314C67.7978,-135.7079 74.0232,-125.9637 79.7425,-117.0118"/>
<polygon fill="#000000" stroke="#000000" points="82.8015,-118.7246 85.236,-108.4133 76.9026,-114.9559 82.8015,-118.7246"/>
<g id="a_edge6&#45;headlabel"><a xlink:href="dir_000048_000051.html" target="_top" xlink:title="1">
<text text-anchor="middle" x="83.2589" y="-120.7824" font-family="Helvetica,sans-Serif" font-size="10.00" fill="#000000">1</text>
</a>
</g>
</g>
<!-- dir_57b23affb30111293db30b1adc1928ce&#45;&gt;dir_dd3580c6b729ef0dd2be01098f8e55ee -->
<g id="edge7" class="edge">
<title>dir_57b23affb30111293db30b1adc1928ce&#45;&gt;dir_dd3580c6b729ef0dd2be01098f8e55ee</title>
<path fill="none" stroke="#000000" d="M78.1574,-147.3619C81.0921,-146.1011 84.0751,-144.9476 87,-144 180.8384,-113.6005 211.6982,-136.9301 306,-108 306.7218,-107.7786 307.4476,-107.5465 308.1758,-107.3049"/>
<polygon fill="#000000" stroke="#000000" points="309.5413,-110.5307 317.6647,-103.7291 307.0728,-103.9804 309.5413,-110.5307"/>
<g id="a_edge7&#45;headlabel"><a xlink:href="dir_000048_000034.html" target="_top" xlink:title="3">
<text text-anchor="middle" x="307.1788" y="-111.9551" font-family="Helvetica,sans-Serif" font-size="10.00" fill="#000000">3</text>
</a>
</g>
</g>
<!-- dir_57b23affb30111293db30b1adc1928ce&#45;&gt;dir_d458d878e154568f8572c436e514c759 -->
<g id="edge8" class="edge">
<title>dir_57b23affb30111293db30b1adc1928ce&#45;&gt;dir_d458d878e154568f8572c436e514c759</title>
<path fill="none" stroke="#000000" d="M78.1133,-148.4095C81.1099,-146.9175 84.1183,-145.4241 87,-144 165.9284,-104.9958 258.7517,-59.8373 308.7294,-35.5815"/>
<polygon fill="#000000" stroke="#000000" points="310.3743,-38.6737 317.8433,-31.1594 307.3185,-32.3758 310.3743,-38.6737"/>
<g id="a_edge8&#45;headlabel"><a xlink:href="dir_000048_000037.html" target="_top" xlink:title="29">
<text text-anchor="middle" x="308.3797" y="-40.2972" font-family="Helvetica,sans-Serif" font-size="10.00" fill="#000000">29</text>
</a>
</g>
</g>
<!-- dir_64a0a8d27b6a136ec43eee79cca0e5fc&#45;&gt;dir_d458d878e154568f8572c436e514c759 -->
<g id="edge2" class="edge">
<title>dir_64a0a8d27b6a136ec43eee79cca0e5fc&#45;&gt;dir_d458d878e154568f8572c436e514c759</title>
<path fill="none" stroke="#000000" d="M124.0775,-78.2803C141.0719,-71.2107 163.5639,-62.3702 184,-56 225.8117,-42.9667 274.9398,-31.9769 307.8312,-25.2208"/>
<polygon fill="#000000" stroke="#000000" points="308.804,-28.5949 317.9098,-23.1788 307.4139,-21.7343 308.804,-28.5949"/>
<g id="a_edge2&#45;headlabel"><a xlink:href="dir_000051_000037.html" target="_top" xlink:title="3">
<text text-anchor="middle" x="305.8447" y="-29.5913" font-family="Helvetica,sans-Serif" font-size="10.00" fill="#000000">3</text>
</a>
</g>
</g>
<!-- dir_dd3580c6b729ef0dd2be01098f8e55ee&#45;&gt;dir_d458d878e154568f8572c436e514c759 -->
<g id="edge3" class="edge">
<title>dir_dd3580c6b729ef0dd2be01098f8e55ee&#45;&gt;dir_d458d878e154568f8572c436e514c759</title>
<path fill="none" stroke="#000000" d="M345,-71.8314C345,-64.131 345,-54.9743 345,-46.4166"/>
<polygon fill="#000000" stroke="#000000" points="348.5001,-46.4132 345,-36.4133 341.5001,-46.4133 348.5001,-46.4132"/>
<g id="a_edge3&#45;headlabel"><a xlink:href="dir_000034_000037.html" target="_top" xlink:title="16">
<text text-anchor="middle" x="351.3393" y="-47.5079" font-family="Helvetica,sans-Serif" font-size="10.00" fill="#000000">16</text>
</a>
</g>
</g>
</g>
</svg>
