<?xml version="1.0" encoding="UTF-8" standalone="no"?>
<!DOCTYPE svg PUBLIC "-//W3C//DTD SVG 1.1//EN"
 "http://www.w3.org/Graphics/SVG/1.1/DTD/svg11.dtd">
<!-- Generated by graphviz version 2.40.1 (20161225.0304)
 -->
<!-- Title: x86/l4f/l4 Pages: 1 -->
<svg width="254pt" height="231pt"
 viewBox="0.00 0.00 254.00 231.00" xmlns="http://www.w3.org/2000/svg" xmlns:xlink="http://www.w3.org/1999/xlink">
<g id="graph0" class="graph" transform="scale(1 1) rotate(0) translate(4 227)">
<title>x86/l4f/l4</title>
<polygon fill="#ffffff" stroke="transparent" points="-4,4 -4,-227 250,-227 250,4 -4,4"/>
<g id="clust1" class="cluster">
<title>clusterdir_8d01419ca1aaeec965167f1badeb4efc</title>
<g id="a_clust1"><a xlink:href="dir_8d01419ca1aaeec965167f1badeb4efc.html" target="_top" xlink:title="l4f">
<polygon fill="#ddddee" stroke="#000000" points="8,-128 8,-215 238,-215 238,-128 8,-128"/>
<text text-anchor="middle" x="123" y="-203" font-family="Helvetica,sans-Serif" font-size="10.00" fill="#000000">l4f</text>
</a>
</g>
</g>
<g id="clust2" class="cluster">
<title>clusterdir_b1ef4b33e412106de45c69a6c077bb16</title>
<g id="a_clust2"><a xlink:href="dir_b1ef4b33e412106de45c69a6c077bb16.html" target="_top">
<polygon fill="#eeeeff" stroke="#000000" points="16,-136 16,-188 230,-188 230,-136 16,-136"/>
</a>
</g>
</g>
<!-- dir_b1ef4b33e412106de45c69a6c077bb16 -->
<g id="node1" class="node">
<title>dir_b1ef4b33e412106de45c69a6c077bb16</title>
<text text-anchor="middle" x="195" y="-159.5" font-family="Helvetica,sans-Serif" font-size="10.00" fill="#000000">l4</text>
</g>
<!-- dir_fc28d5f4fe926199ead80cf3928a99e6 -->
<g id="node2" class="node">
<title>dir_fc28d5f4fe926199ead80cf3928a99e6</title>
<g id="a_node2"><a xlink:href="dir_fc28d5f4fe926199ead80cf3928a99e6.html" target="_top" xlink:title="sys">
<polygon fill="#ffffff" stroke="#000000" points="78,-180 24,-180 24,-144 78,-144 78,-180"/>
<text text-anchor="middle" x="51" y="-159.5" font-family="Helvetica,sans-Serif" font-size="10.00" fill="#000000">sys</text>
</a>
</g>
</g>
<!-- dir_1f581fa1f88782a0973f05f5fe437b46 -->
<g id="node5" class="node">
<title>dir_1f581fa1f88782a0973f05f5fe437b46</title>
<g id="a_node5"><a xlink:href="dir_1f581fa1f88782a0973f05f5fe437b46.html" target="_top" xlink:title="l4">
<polygon fill="#ffffff" stroke="#ff0000" points="133,-36 79,-36 79,0 133,0 133,-36"/>
<text text-anchor="middle" x="106" y="-15.5" font-family="Helvetica,sans-Serif" font-size="10.00" fill="#000000">l4</text>
</a>
</g>
</g>
<!-- dir_fc28d5f4fe926199ead80cf3928a99e6&#45;&gt;dir_1f581fa1f88782a0973f05f5fe437b46 -->
<g id="edge1" class="edge">
<title>dir_fc28d5f4fe926199ead80cf3928a99e6&#45;&gt;dir_1f581fa1f88782a0973f05f5fe437b46</title>
<path fill="none" stroke="#000000" d="M52.7905,-143.8083C55.0888,-125.1875 60.0345,-95.7008 70,-72 73.9544,-62.5953 79.6152,-53.0879 85.2805,-44.727"/>
<polygon fill="#000000" stroke="#000000" points="88.1959,-46.6664 91.1147,-36.4815 82.4816,-42.6231 88.1959,-46.6664"/>
<g id="a_edge1&#45;headlabel"><a xlink:href="dir_000019_000011.html" target="_top" xlink:title="3">
<text text-anchor="middle" x="88.4374" y="-48.7406" font-family="Helvetica,sans-Serif" font-size="10.00" fill="#000000">3</text>
</a>
</g>
</g>
<!-- dir_1be68f62509728dc1eed2b689efb1ed4 -->
<g id="node3" class="node">
<title>dir_1be68f62509728dc1eed2b689efb1ed4</title>
<g id="a_node3"><a xlink:href="dir_1be68f62509728dc1eed2b689efb1ed4.html" target="_top" xlink:title="util">
<polygon fill="#ffffff" stroke="#000000" points="150,-180 96,-180 96,-144 150,-144 150,-180"/>
<text text-anchor="middle" x="123" y="-159.5" font-family="Helvetica,sans-Serif" font-size="10.00" fill="#000000">util</text>
</a>
</g>
</g>
<!-- dir_3fa9cbe562e25975b065e1d6353565fc -->
<g id="node4" class="node">
<title>dir_3fa9cbe562e25975b065e1d6353565fc</title>
<g id="a_node4"><a xlink:href="dir_3fa9cbe562e25975b065e1d6353565fc.html" target="_top" xlink:title="l4">
<polygon fill="#ffffff" stroke="#ff0000" points="133,-108 79,-108 79,-72 133,-72 133,-108"/>
<text text-anchor="middle" x="106" y="-87.5" font-family="Helvetica,sans-Serif" font-size="10.00" fill="#000000">l4</text>
</a>
</g>
</g>
<!-- dir_1be68f62509728dc1eed2b689efb1ed4&#45;&gt;dir_3fa9cbe562e25975b065e1d6353565fc -->
<g id="edge3" class="edge">
<title>dir_1be68f62509728dc1eed2b689efb1ed4&#45;&gt;dir_3fa9cbe562e25975b065e1d6353565fc</title>
<path fill="none" stroke="#000000" d="M118.7102,-143.8314C116.892,-136.131 114.7301,-126.9743 112.7095,-118.4166"/>
<polygon fill="#000000" stroke="#000000" points="116.0519,-117.3414 110.3476,-108.4133 109.2392,-118.95 116.0519,-117.3414"/>
<g id="a_edge3&#45;headlabel"><a xlink:href="dir_000022_000009.html" target="_top" xlink:title="1">
<text text-anchor="middle" x="119.6412" y="-117.6874" font-family="Helvetica,sans-Serif" font-size="10.00" fill="#000000">1</text>
</a>
</g>
</g>
<!-- dir_1be68f62509728dc1eed2b689efb1ed4&#45;&gt;dir_1f581fa1f88782a0973f05f5fe437b46 -->
<g id="edge4" class="edge">
<title>dir_1be68f62509728dc1eed2b689efb1ed4&#45;&gt;dir_1f581fa1f88782a0973f05f5fe437b46</title>
<path fill="none" stroke="#000000" d="M132.1354,-143.8403C140.1313,-125.4973 149.4043,-96.4547 142,-72 139.0436,-62.2355 133.6748,-52.6229 127.97,-44.2762"/>
<polygon fill="#000000" stroke="#000000" points="130.7129,-42.0973 121.9905,-36.0831 125.0586,-46.2239 130.7129,-42.0973"/>
<g id="a_edge4&#45;headlabel"><a xlink:href="dir_000022_000011.html" target="_top" xlink:title="4">
<text text-anchor="middle" x="135.1253" y="-40.827" font-family="Helvetica,sans-Serif" font-size="10.00" fill="#000000">4</text>
</a>
</g>
</g>
<!-- dir_3fa9cbe562e25975b065e1d6353565fc&#45;&gt;dir_1f581fa1f88782a0973f05f5fe437b46 -->
<g id="edge2" class="edge">
<title>dir_3fa9cbe562e25975b065e1d6353565fc&#45;&gt;dir_1f581fa1f88782a0973f05f5fe437b46</title>
<path fill="none" stroke="#000000" d="M106,-71.8314C106,-64.131 106,-54.9743 106,-46.4166"/>
<polygon fill="#000000" stroke="#000000" points="109.5001,-46.4132 106,-36.4133 102.5001,-46.4133 109.5001,-46.4132"/>
<g id="a_edge2&#45;headlabel"><a xlink:href="dir_000009_000011.html" target="_top" xlink:title="25">
<text text-anchor="middle" x="112.3393" y="-47.5079" font-family="Helvetica,sans-Serif" font-size="10.00" fill="#000000">25</text>
</a>
</g>
</g>
</g>
</svg>
