<?xml version="1.0" encoding="UTF-8" standalone="no"?>
<!DOCTYPE svg PUBLIC "-//W3C//DTD SVG 1.1//EN"
 "http://www.w3.org/Graphics/SVG/1.1/DTD/svg11.dtd">
<!-- Generated by graphviz version 2.40.1 (20161225.0304)
 -->
<!-- Title: l4/l4virtio/server Pages: 1 -->
<svg width="124pt" height="295pt"
 viewBox="0.00 0.00 124.00 295.00" xmlns="http://www.w3.org/2000/svg" xmlns:xlink="http://www.w3.org/1999/xlink">
<g id="graph0" class="graph" transform="scale(1 1) rotate(0) translate(4 291)">
<title>l4/l4virtio/server</title>
<polygon fill="#ffffff" stroke="transparent" points="-4,4 -4,-291 120,-291 120,4 -4,4"/>
<g id="clust1" class="cluster">
<title>clusterdir_c7ab25baedb6fe17d19f630d386cbc03</title>
<g id="a_clust1"><a xlink:href="dir_c7ab25baedb6fe17d19f630d386cbc03.html" target="_top" xlink:title="l4virtio">
<polygon fill="#ddddee" stroke="#000000" points="38,-208 38,-279 108,-279 108,-208 38,-208"/>
<text text-anchor="middle" x="73" y="-267" font-family="Helvetica,sans-Serif" font-size="10.00" fill="#000000">l4virtio</text>
</a>
</g>
</g>
<!-- dir_2ac49572ec7562e26d3ea1810f9b7733 -->
<g id="node1" class="node">
<title>dir_2ac49572ec7562e26d3ea1810f9b7733</title>
<g id="a_node1"><a xlink:href="dir_2ac49572ec7562e26d3ea1810f9b7733.html" target="_top" xlink:title="server">
<polygon fill="#eeeeff" stroke="#000000" points="100,-252 46,-252 46,-216 100,-216 100,-252"/>
<text text-anchor="middle" x="73" y="-231.5" font-family="Helvetica,sans-Serif" font-size="10.00" fill="#000000">server</text>
</a>
</g>
</g>
<!-- dir_30d77a5207eb89e366a23f343e13fefd -->
<g id="node2" class="node">
<title>dir_30d77a5207eb89e366a23f343e13fefd</title>
<g id="a_node2"><a xlink:href="dir_30d77a5207eb89e366a23f343e13fefd.html" target="_top" xlink:title="re">
<polygon fill="#ffffff" stroke="#ff0000" points="100,-180 46,-180 46,-144 100,-144 100,-180"/>
<text text-anchor="middle" x="73" y="-159.5" font-family="Helvetica,sans-Serif" font-size="10.00" fill="#000000">re</text>
</a>
</g>
</g>
<!-- dir_2ac49572ec7562e26d3ea1810f9b7733&#45;&gt;dir_30d77a5207eb89e366a23f343e13fefd -->
<g id="edge4" class="edge">
<title>dir_2ac49572ec7562e26d3ea1810f9b7733&#45;&gt;dir_30d77a5207eb89e366a23f343e13fefd</title>
<path fill="none" stroke="#000000" d="M73,-215.8314C73,-208.131 73,-198.9743 73,-190.4166"/>
<polygon fill="#000000" stroke="#000000" points="76.5001,-190.4132 73,-180.4133 69.5001,-190.4133 76.5001,-190.4132"/>
<g id="a_edge4&#45;headlabel"><a xlink:href="dir_000041_000043.html" target="_top" xlink:title="8">
<text text-anchor="middle" x="79.3393" y="-191.5079" font-family="Helvetica,sans-Serif" font-size="10.00" fill="#000000">8</text>
</a>
</g>
</g>
<!-- dir_dd3580c6b729ef0dd2be01098f8e55ee -->
<g id="node3" class="node">
<title>dir_dd3580c6b729ef0dd2be01098f8e55ee</title>
<g id="a_node3"><a xlink:href="dir_dd3580c6b729ef0dd2be01098f8e55ee.html" target="_top" xlink:title="cxx">
<polygon fill="#ffffff" stroke="#ff0000" points="54,-108 0,-108 0,-72 54,-72 54,-108"/>
<text text-anchor="middle" x="27" y="-87.5" font-family="Helvetica,sans-Serif" font-size="10.00" fill="#000000">cxx</text>
</a>
</g>
</g>
<!-- dir_2ac49572ec7562e26d3ea1810f9b7733&#45;&gt;dir_dd3580c6b729ef0dd2be01098f8e55ee -->
<g id="edge5" class="edge">
<title>dir_2ac49572ec7562e26d3ea1810f9b7733&#45;&gt;dir_dd3580c6b729ef0dd2be01098f8e55ee</title>
<path fill="none" stroke="#000000" d="M57.6025,-215.7193C50.1014,-205.7854 41.7049,-192.9159 37,-180 29.792,-160.2124 27.3893,-136.4903 26.7367,-118.3693"/>
<polygon fill="#000000" stroke="#000000" points="30.2317,-118.0852 26.5302,-108.158 23.2332,-118.2267 30.2317,-118.0852"/>
<g id="a_edge5&#45;headlabel"><a xlink:href="dir_000041_000034.html" target="_top" xlink:title="1">
<text text-anchor="middle" x="33.143" y="-119.1217" font-family="Helvetica,sans-Serif" font-size="10.00" fill="#000000">1</text>
</a>
</g>
</g>
<!-- dir_d458d878e154568f8572c436e514c759 -->
<g id="node4" class="node">
<title>dir_d458d878e154568f8572c436e514c759</title>
<g id="a_node4"><a xlink:href="dir_d458d878e154568f8572c436e514c759.html" target="_top" xlink:title="sys">
<polygon fill="#ffffff" stroke="#ff0000" points="109,-36 55,-36 55,0 109,0 109,-36"/>
<text text-anchor="middle" x="82" y="-15.5" font-family="Helvetica,sans-Serif" font-size="10.00" fill="#000000">sys</text>
</a>
</g>
</g>
<!-- dir_2ac49572ec7562e26d3ea1810f9b7733&#45;&gt;dir_d458d878e154568f8572c436e514c759 -->
<g id="edge6" class="edge">
<title>dir_2ac49572ec7562e26d3ea1810f9b7733&#45;&gt;dir_d458d878e154568f8572c436e514c759</title>
<path fill="none" stroke="#000000" d="M88.9905,-215.9169C96.6538,-206.0371 105.0166,-193.1563 109,-180 122.9276,-134.0001 106.8081,-78.3417 94.172,-45.6874"/>
<polygon fill="#000000" stroke="#000000" points="97.3842,-44.2943 90.3994,-36.328 90.8918,-46.9113 97.3842,-44.2943"/>
<g id="a_edge6&#45;headlabel"><a xlink:href="dir_000041_000037.html" target="_top" xlink:title="2">
<text text-anchor="middle" x="101.3614" y="-44.0668" font-family="Helvetica,sans-Serif" font-size="10.00" fill="#000000">2</text>
</a>
</g>
</g>
<!-- dir_30d77a5207eb89e366a23f343e13fefd&#45;&gt;dir_dd3580c6b729ef0dd2be01098f8e55ee -->
<g id="edge1" class="edge">
<title>dir_30d77a5207eb89e366a23f343e13fefd&#45;&gt;dir_dd3580c6b729ef0dd2be01098f8e55ee</title>
<path fill="none" stroke="#000000" d="M61.3923,-143.8314C56.2022,-135.7079 49.9768,-125.9637 44.2575,-117.0118"/>
<polygon fill="#000000" stroke="#000000" points="47.0974,-114.9559 38.764,-108.4133 41.1985,-118.7246 47.0974,-114.9559"/>
<g id="a_edge1&#45;headlabel"><a xlink:href="dir_000043_000034.html" target="_top" xlink:title="4">
<text text-anchor="middle" x="51.4253" y="-113.9564" font-family="Helvetica,sans-Serif" font-size="10.00" fill="#000000">4</text>
</a>
</g>
</g>
<!-- dir_30d77a5207eb89e366a23f343e13fefd&#45;&gt;dir_d458d878e154568f8572c436e514c759 -->
<g id="edge2" class="edge">
<title>dir_30d77a5207eb89e366a23f343e13fefd&#45;&gt;dir_d458d878e154568f8572c436e514c759</title>
<path fill="none" stroke="#000000" d="M74.1399,-143.7623C75.6749,-119.201 78.422,-75.2474 80.2279,-46.3541"/>
<polygon fill="#000000" stroke="#000000" points="83.7387,-46.2885 80.8694,-36.0896 76.7523,-45.8518 83.7387,-46.2885"/>
<g id="a_edge2&#45;headlabel"><a xlink:href="dir_000043_000037.html" target="_top" xlink:title="109">
<text text-anchor="middle" x="86.3483" y="-47.5532" font-family="Helvetica,sans-Serif" font-size="10.00" fill="#000000">109</text>
</a>
</g>
</g>
<!-- dir_dd3580c6b729ef0dd2be01098f8e55ee&#45;&gt;dir_d458d878e154568f8572c436e514c759 -->
<g id="edge3" class="edge">
<title>dir_dd3580c6b729ef0dd2be01098f8e55ee&#45;&gt;dir_d458d878e154568f8572c436e514c759</title>
<path fill="none" stroke="#000000" d="M40.8788,-71.8314C47.2136,-63.5386 54.8384,-53.557 61.7926,-44.4533"/>
<polygon fill="#000000" stroke="#000000" points="64.6452,-46.4847 67.9343,-36.4133 59.0825,-42.2353 64.6452,-46.4847"/>
<g id="a_edge3&#45;headlabel"><a xlink:href="dir_000034_000037.html" target="_top" xlink:title="16">
<text text-anchor="middle" x="64.7195" y="-48.5647" font-family="Helvetica,sans-Serif" font-size="10.00" fill="#000000">16</text>
</a>
</g>
</g>
</g>
</svg>
