<?xml version="1.0" encoding="UTF-8" standalone="no"?>
<!DOCTYPE svg PUBLIC "-//W3C//DTD SVG 1.1//EN"
 "http://www.w3.org/Graphics/SVG/1.1/DTD/svg11.dtd">
<!-- Generated by graphviz version 2.40.1 (20161225.0304)
 -->
<!-- Title: l4/re/c Pages: 1 -->
<svg width="182pt" height="231pt"
 viewBox="0.00 0.00 182.00 231.00" xmlns="http://www.w3.org/2000/svg" xmlns:xlink="http://www.w3.org/1999/xlink">
<g id="graph0" class="graph" transform="scale(1 1) rotate(0) translate(4 227)">
<title>l4/re/c</title>
<polygon fill="#ffffff" stroke="transparent" points="-4,4 -4,-227 178,-227 178,4 -4,4"/>
<g id="clust1" class="cluster">
<title>clusterdir_30d77a5207eb89e366a23f343e13fefd</title>
<g id="a_clust1"><a xlink:href="dir_30d77a5207eb89e366a23f343e13fefd.html" target="_top" xlink:title="re">
<polygon fill="#ddddee" stroke="#000000" points="8,-56 8,-215 166,-215 166,-56 8,-56"/>
<text text-anchor="middle" x="87" y="-203" font-family="Helvetica,sans-Serif" font-size="10.00" fill="#000000">re</text>
</a>
</g>
</g>
<g id="clust2" class="cluster">
<title>clusterdir_9cacc43b47fb52c27eca04eb55cc6fe9</title>
<g id="a_clust2"><a xlink:href="dir_9cacc43b47fb52c27eca04eb55cc6fe9.html" target="_top">
<polygon fill="#eeeeff" stroke="#000000" points="16,-64 16,-188 158,-188 158,-64 16,-64"/>
</a>
</g>
</g>
<!-- dir_9cacc43b47fb52c27eca04eb55cc6fe9 -->
<g id="node1" class="node">
<title>dir_9cacc43b47fb52c27eca04eb55cc6fe9</title>
<text text-anchor="middle" x="123" y="-159.5" font-family="Helvetica,sans-Serif" font-size="10.00" fill="#000000">c</text>
</g>
<!-- dir_d458d878e154568f8572c436e514c759 -->
<g id="node4" class="node">
<title>dir_d458d878e154568f8572c436e514c759</title>
<g id="a_node4"><a xlink:href="dir_d458d878e154568f8572c436e514c759.html" target="_top" xlink:title="sys">
<polygon fill="#ffffff" stroke="#ff0000" points="133,-36 79,-36 79,0 133,0 133,-36"/>
<text text-anchor="middle" x="106" y="-15.5" font-family="Helvetica,sans-Serif" font-size="10.00" fill="#000000">sys</text>
</a>
</g>
</g>
<!-- dir_9cacc43b47fb52c27eca04eb55cc6fe9&#45;&gt;dir_d458d878e154568f8572c436e514c759 -->
<g id="edge2" class="edge">
<title>dir_9cacc43b47fb52c27eca04eb55cc6fe9&#45;&gt;dir_d458d878e154568f8572c436e514c759</title>
<path fill="none" stroke="#000000" d="M124.2578,-143.8005C125.3212,-122.5289 125.8607,-86.3687 120,-56 119.3605,-52.6864 118.4687,-49.2795 117.4415,-45.9307"/>
<polygon fill="#000000" stroke="#000000" points="120.6542,-44.5121 114.0715,-36.2103 114.0404,-46.8051 120.6542,-44.5121"/>
<g id="a_edge2&#45;headlabel"><a xlink:href="dir_000044_000037.html" target="_top" xlink:title="13">
<text text-anchor="middle" x="124.5142" y="-44.4783" font-family="Helvetica,sans-Serif" font-size="10.00" fill="#000000">13</text>
</a>
</g>
</g>
<!-- dir_62d0de061f5b15d9ae7ef168087326fc -->
<g id="node2" class="node">
<title>dir_62d0de061f5b15d9ae7ef168087326fc</title>
<g id="a_node2"><a xlink:href="dir_62d0de061f5b15d9ae7ef168087326fc.html" target="_top" xlink:title="util">
<polygon fill="#ffffff" stroke="#ff0000" points="78,-180 24,-180 24,-144 78,-144 78,-180"/>
<text text-anchor="middle" x="51" y="-159.5" font-family="Helvetica,sans-Serif" font-size="10.00" fill="#000000">util</text>
</a>
</g>
</g>
<!-- dir_5b2b4e7eaf016c405ff23a7e80f5d639 -->
<g id="node3" class="node">
<title>dir_5b2b4e7eaf016c405ff23a7e80f5d639</title>
<g id="a_node3"><a xlink:href="dir_5b2b4e7eaf016c405ff23a7e80f5d639.html" target="_top" xlink:title="video">
<polygon fill="#ffffff" stroke="#000000" points="78,-108 24,-108 24,-72 78,-72 78,-108"/>
<text text-anchor="middle" x="51" y="-87.5" font-family="Helvetica,sans-Serif" font-size="10.00" fill="#000000">video</text>
</a>
</g>
</g>
<!-- dir_62d0de061f5b15d9ae7ef168087326fc&#45;&gt;dir_5b2b4e7eaf016c405ff23a7e80f5d639 -->
<g id="edge3" class="edge">
<title>dir_62d0de061f5b15d9ae7ef168087326fc&#45;&gt;dir_5b2b4e7eaf016c405ff23a7e80f5d639</title>
<path fill="none" stroke="#000000" d="M51,-143.8314C51,-136.131 51,-126.9743 51,-118.4166"/>
<polygon fill="#000000" stroke="#000000" points="54.5001,-118.4132 51,-108.4133 47.5001,-118.4133 54.5001,-118.4132"/>
<g id="a_edge3&#45;headlabel"><a xlink:href="dir_000045_000047.html" target="_top" xlink:title="1">
<text text-anchor="middle" x="57.3393" y="-119.5079" font-family="Helvetica,sans-Serif" font-size="10.00" fill="#000000">1</text>
</a>
</g>
</g>
<!-- dir_62d0de061f5b15d9ae7ef168087326fc&#45;&gt;dir_d458d878e154568f8572c436e514c759 -->
<g id="edge4" class="edge">
<title>dir_62d0de061f5b15d9ae7ef168087326fc&#45;&gt;dir_d458d878e154568f8572c436e514c759</title>
<path fill="none" stroke="#000000" d="M65.8853,-143.5185C73.2462,-133.5296 81.672,-120.6716 87,-108 95.3306,-88.1876 100.1533,-64.3321 102.8541,-46.1605"/>
<polygon fill="#000000" stroke="#000000" points="106.3302,-46.5721 104.2095,-36.1917 99.3941,-45.6289 106.3302,-46.5721"/>
<g id="a_edge4&#45;headlabel"><a xlink:href="dir_000045_000037.html" target="_top" xlink:title="4">
<text text-anchor="middle" x="108.6594" y="-48.0164" font-family="Helvetica,sans-Serif" font-size="10.00" fill="#000000">4</text>
</a>
</g>
</g>
<!-- dir_5b2b4e7eaf016c405ff23a7e80f5d639&#45;&gt;dir_d458d878e154568f8572c436e514c759 -->
<g id="edge1" class="edge">
<title>dir_5b2b4e7eaf016c405ff23a7e80f5d639&#45;&gt;dir_d458d878e154568f8572c436e514c759</title>
<path fill="none" stroke="#000000" d="M64.8788,-71.8314C71.2136,-63.5386 78.8384,-53.557 85.7926,-44.4533"/>
<polygon fill="#000000" stroke="#000000" points="88.6452,-46.4847 91.9343,-36.4133 83.0825,-42.2353 88.6452,-46.4847"/>
<g id="a_edge1&#45;headlabel"><a xlink:href="dir_000047_000037.html" target="_top" xlink:title="3">
<text text-anchor="middle" x="88.7195" y="-48.5647" font-family="Helvetica,sans-Serif" font-size="10.00" fill="#000000">3</text>
</a>
</g>
</g>
</g>
</svg>
