<?xml version="1.0" encoding="UTF-8" standalone="no"?>
<!DOCTYPE svg PUBLIC "-//W3C//DTD SVG 1.1//EN"
 "http://www.w3.org/Graphics/SVG/1.1/DTD/svg11.dtd">
<!-- Generated by graphviz version 2.40.1 (20161225.0304)
 -->
<!-- Title: l4/re/dma_space Pages: 1 -->
<svg width="1044pt" height="823pt"
 viewBox="0.00 0.00 1044.00 823.00" xmlns="http://www.w3.org/2000/svg" xmlns:xlink="http://www.w3.org/1999/xlink">
<g id="graph0" class="graph" transform="scale(1 1) rotate(0) translate(4 819)">
<title>l4/re/dma_space</title>
<polygon fill="#ffffff" stroke="transparent" points="-4,4 -4,-819 1040,-819 1040,4 -4,4"/>
<!-- Node0 -->
<g id="node1" class="node">
<title>Node0</title>
<polygon fill="#bfbfbf" stroke="#000000" points="123.5,-795.5 123.5,-814.5 218.5,-814.5 218.5,-795.5 123.5,-795.5"/>
<text text-anchor="middle" x="171" y="-802.5" font-family="Helvetica,sans-Serif" font-size="10.00" fill="#000000">l4/re/dma_space</text>
</g>
<!-- Node1 -->
<g id="node2" class="node">
<title>Node1</title>
<g id="a_node2"><a xlink:href="l4_2sys_2types_8h.html" target="_top" xlink:title="Common L4 ABI Data Types. ">
<polygon fill="#ffffff" stroke="#000000" points="512,-168.5 512,-187.5 592,-187.5 592,-168.5 512,-168.5"/>
<text text-anchor="middle" x="552" y="-175.5" font-family="Helvetica,sans-Serif" font-size="10.00" fill="#000000">l4/sys/types.h</text>
</a>
</g>
</g>
<!-- Node0&#45;&gt;Node1 -->
<g id="edge1" class="edge">
<title>Node0&#45;&gt;Node1</title>
<path fill="none" stroke="#191970" d="M142.4682,-795.4892C103.3884,-780.4482 38,-747.1854 38,-693 38,-693 38,-693 38,-525 38,-446.061 76,-430.439 76,-351.5 76,-351.5 76,-351.5 76,-290 76,-249.1401 103.3149,-241.9926 140,-224 202.5173,-193.3378 405.9042,-182.7475 501.4932,-179.4039"/>
<polygon fill="#191970" stroke="#191970" points="501.8992,-182.8923 511.7758,-179.0578 501.6636,-175.8963 501.8992,-182.8923"/>
</g>
<!-- Node2 -->
<g id="node3" class="node">
<title>Node2</title>
<g id="a_node3"><a xlink:href="l4_2sys_2l4int_8h.html" target="_top" xlink:title="Fixed sized integer types, generic version. ">
<polygon fill="#ffffff" stroke="#000000" points="412,-56.5 412,-75.5 486,-75.5 486,-56.5 412,-56.5"/>
<text text-anchor="middle" x="449" y="-63.5" font-family="Helvetica,sans-Serif" font-size="10.00" fill="#000000">l4/sys/l4int.h</text>
</a>
</g>
</g>
<!-- Node0&#45;&gt;Node2 -->
<g id="edge12" class="edge">
<title>Node0&#45;&gt;Node2</title>
<path fill="none" stroke="#191970" d="M123.8208,-795.4113C73.2059,-782.0471 0,-752.4432 0,-693 0,-693 0,-693 0,-178 0,-132.9267 35.7677,-130.2073 77,-112 134.2043,-86.7398 315.1772,-73.4813 401.8443,-68.4411"/>
<polygon fill="#191970" stroke="#191970" points="402.1464,-71.9296 411.9313,-67.8669 401.7485,-64.9409 402.1464,-71.9296"/>
</g>
<!-- Node8 -->
<g id="node9" class="node">
<title>Node8</title>
<g id="a_node9"><a xlink:href="capability.html" target="_top" xlink:title="L4::Cap related definitions. ">
<polygon fill="#ffffff" stroke="#000000" points="480,-683.5 480,-702.5 570,-702.5 570,-683.5 480,-683.5"/>
<text text-anchor="middle" x="525" y="-690.5" font-family="Helvetica,sans-Serif" font-size="10.00" fill="#000000">l4/sys/capability</text>
</a>
</g>
</g>
<!-- Node0&#45;&gt;Node8 -->
<g id="edge13" class="edge">
<title>Node0&#45;&gt;Node8</title>
<path fill="none" stroke="#191970" d="M218.5262,-801.4876C290.7645,-795.502 424.2188,-781.7175 466,-759 486.5743,-747.8132 503.5589,-726.561 513.938,-711.1888"/>
<polygon fill="#191970" stroke="#191970" points="517.0488,-712.8225 519.5199,-702.5198 511.1634,-709.0328 517.0488,-712.8225"/>
</g>
<!-- Node16 -->
<g id="node17" class="node">
<title>Node16</title>
<g id="a_node17"><a xlink:href="types.html" target="_top" xlink:title="cxx/types">
<polygon fill="#ffffff" stroke="#000000" points="273.5,-342 273.5,-361 334.5,-361 334.5,-342 273.5,-342"/>
<text text-anchor="middle" x="304" y="-349" font-family="Helvetica,sans-Serif" font-size="10.00" fill="#000000">cxx/types</text>
</a>
</g>
</g>
<!-- Node0&#45;&gt;Node16 -->
<g id="edge71" class="edge">
<title>Node0&#45;&gt;Node16</title>
<path fill="none" stroke="#191970" d="M154.0159,-795.368C126.6905,-778.4638 76,-740.6798 76,-693 76,-693 76,-693 76,-581 76,-471.178 209.0215,-395.2288 271.8544,-365.4798"/>
<polygon fill="#191970" stroke="#191970" points="273.7012,-368.4818 281.3049,-361.1039 270.7599,-362.1297 273.7012,-368.4818"/>
</g>
<!-- Node21 -->
<g id="node22" class="node">
<title>Node21</title>
<g id="a_node22"><a xlink:href="ipc__iface.html" target="_top" xlink:title="Interface Definition Language. ">
<polygon fill="#ffffff" stroke="#000000" points="474.5,-571.5 474.5,-590.5 551.5,-590.5 551.5,-571.5 474.5,-571.5"/>
<text text-anchor="middle" x="513" y="-578.5" font-family="Helvetica,sans-Serif" font-size="10.00" fill="#000000">cxx/ipc_iface</text>
</a>
</g>
</g>
<!-- Node0&#45;&gt;Node21 -->
<g id="edge73" class="edge">
<title>Node0&#45;&gt;Node21</title>
<path fill="none" stroke="#191970" d="M218.748,-798.0471C276.4986,-787.2914 373.3645,-761.3994 433,-703 460.7283,-675.8464 454.2105,-659.1153 476,-627 482.7325,-617.0771 491.0395,-606.616 498.0756,-598.1813"/>
<polygon fill="#191970" stroke="#191970" points="500.7786,-600.4054 504.5827,-590.517 495.4424,-595.8749 500.7786,-600.4054"/>
</g>
<!-- Node22 -->
<g id="node23" class="node">
<title>Node22</title>
<g id="a_node23"><a xlink:href="ipc__types.html" target="_top" xlink:title="l4/sys/cxx/ipc_types">
<polygon fill="#ffffff" stroke="#000000" points="332,-459.5 332,-478.5 442,-478.5 442,-459.5 332,-459.5"/>
<text text-anchor="middle" x="387" y="-466.5" font-family="Helvetica,sans-Serif" font-size="10.00" fill="#000000">l4/sys/cxx/ipc_types</text>
</a>
</g>
</g>
<!-- Node0&#45;&gt;Node22 -->
<g id="edge72" class="edge">
<title>Node0&#45;&gt;Node22</title>
<path fill="none" stroke="#191970" d="M169.1344,-795.3035C165.4967,-773.9512 159.1983,-721.6943 176,-683 216.3275,-590.1255 316.7651,-515.0842 363.0048,-484.2093"/>
<polygon fill="#191970" stroke="#191970" points="365.0601,-487.0468 371.4963,-478.631 361.2167,-481.1963 365.0601,-487.0468"/>
</g>
<!-- Node25 -->
<g id="node26" class="node">
<title>Node25</title>
<g id="a_node26"><a xlink:href="dataspace.html" target="_top" xlink:title="Dataspace interface. ">
<polygon fill="#ffffff" stroke="#000000" points="202,-739.5 202,-758.5 292,-758.5 292,-739.5 202,-739.5"/>
<text text-anchor="middle" x="247" y="-746.5" font-family="Helvetica,sans-Serif" font-size="10.00" fill="#000000">l4/re/dataspace</text>
</a>
</g>
</g>
<!-- Node0&#45;&gt;Node25 -->
<g id="edge62" class="edge">
<title>Node0&#45;&gt;Node25</title>
<path fill="none" stroke="#191970" d="M184.2382,-795.2455C195.681,-786.814 212.4296,-774.4729 225.7475,-764.6598"/>
<polygon fill="#191970" stroke="#191970" points="227.9391,-767.3924 233.9135,-758.6427 223.7867,-761.757 227.9391,-767.3924"/>
</g>
<!-- Node26 -->
<g id="node27" class="node">
<title>Node26</title>
<g id="a_node27"><a xlink:href="protocols_8h.html" target="_top" xlink:title="L4Re Protocol Constants (C version) ">
<polygon fill="#ffffff" stroke="#000000" points="332,-683.5 332,-702.5 424,-702.5 424,-683.5 332,-683.5"/>
<text text-anchor="middle" x="378" y="-690.5" font-family="Helvetica,sans-Serif" font-size="10.00" fill="#000000">l4/re/protocols.h</text>
</a>
</g>
</g>
<!-- Node0&#45;&gt;Node26 -->
<g id="edge70" class="edge">
<title>Node0&#45;&gt;Node26</title>
<path fill="none" stroke="#191970" d="M209.3023,-795.4797C236.0851,-787.8777 272.0898,-775.7207 301,-759 324.1476,-745.6122 346.9309,-724.88 361.6351,-710.2297"/>
<polygon fill="#191970" stroke="#191970" points="364.4183,-712.3906 368.924,-702.8016 359.4219,-707.4879 364.4183,-712.3906"/>
</g>
<!-- Node1&#45;&gt;Node2 -->
<g id="edge2" class="edge">
<title>Node1&#45;&gt;Node2</title>
<path fill="none" stroke="#191970" d="M542.1897,-168.2765C532.9683,-159.0655 518.8503,-144.7795 507,-132 492.0255,-115.8513 475.4939,-96.9255 463.9242,-83.4911"/>
<polygon fill="#191970" stroke="#191970" points="466.2714,-80.8517 457.1041,-75.5402 460.9583,-85.4092 466.2714,-80.8517"/>
</g>
<!-- Node3 -->
<g id="node4" class="node">
<title>Node3</title>
<g id="a_node4"><a xlink:href="compiler_8h.html" target="_top" xlink:title="L4 compiler related defines. ">
<polygon fill="#ffffff" stroke="#000000" points="748.5,-56.5 748.5,-75.5 843.5,-75.5 843.5,-56.5 748.5,-56.5"/>
<text text-anchor="middle" x="796" y="-63.5" font-family="Helvetica,sans-Serif" font-size="10.00" fill="#000000">l4/sys/compiler.h</text>
</a>
</g>
</g>
<!-- Node1&#45;&gt;Node3 -->
<g id="edge3" class="edge">
<title>Node1&#45;&gt;Node3</title>
<path fill="none" stroke="#191970" d="M572.8033,-168.4509C616.0206,-148.6135 715.6634,-102.8758 765.8935,-79.8194"/>
<polygon fill="#191970" stroke="#191970" points="767.6212,-82.8775 775.2494,-75.5249 764.7009,-76.5157 767.6212,-82.8775"/>
</g>
<!-- Node5 -->
<g id="node6" class="node">
<title>Node5</title>
<g id="a_node6"><a xlink:href="l4_2sys_2consts_8h.html" target="_top" xlink:title="Common constants. ">
<polygon fill="#ffffff" stroke="#000000" points="718,-112.5 718,-131.5 804,-131.5 804,-112.5 718,-112.5"/>
<text text-anchor="middle" x="761" y="-119.5" font-family="Helvetica,sans-Serif" font-size="10.00" fill="#000000">l4/sys/consts.h</text>
</a>
</g>
</g>
<!-- Node1&#45;&gt;Node5 -->
<g id="edge5" class="edge">
<title>Node1&#45;&gt;Node5</title>
<path fill="none" stroke="#191970" d="M587.9284,-168.3733C623.2837,-158.9001 677.388,-144.4032 715.6788,-134.1435"/>
<polygon fill="#191970" stroke="#191970" points="716.787,-137.4701 725.5405,-131.5011 714.9753,-130.7086 716.787,-137.4701"/>
</g>
<!-- Node6 -->
<g id="node7" class="node">
<title>Node6</title>
<g id="a_node7"><a xlink:href="____l4__fpage_8h_source.html" target="_top" xlink:title="l4/sys/__l4_fpage.h">
<polygon fill="#ffffff" stroke="#000000" points="516,-112.5 516,-131.5 624,-131.5 624,-112.5 516,-112.5"/>
<text text-anchor="middle" x="570" y="-119.5" font-family="Helvetica,sans-Serif" font-size="10.00" fill="#000000">l4/sys/__l4_fpage.h</text>
</a>
</g>
</g>
<!-- Node1&#45;&gt;Node6 -->
<g id="edge8" class="edge">
<title>Node1&#45;&gt;Node6</title>
<path fill="none" stroke="#191970" d="M555.1354,-168.2455C557.51,-160.8579 560.8493,-150.4689 563.7615,-141.4087"/>
<polygon fill="#191970" stroke="#191970" points="567.1725,-142.234 566.9006,-131.6427 560.5083,-140.0919 567.1725,-142.234"/>
</g>
<!-- Node7 -->
<g id="node8" class="node">
<title>Node7</title>
<g id="a_node8"><a xlink:href="____timeout_8h_source.html" target="_top" xlink:title="l4/sys/__timeout.h">
<polygon fill="#ffffff" stroke="#000000" points="358.5,-112.5 358.5,-131.5 459.5,-131.5 459.5,-112.5 358.5,-112.5"/>
<text text-anchor="middle" x="409" y="-119.5" font-family="Helvetica,sans-Serif" font-size="10.00" fill="#000000">l4/sys/__timeout.h</text>
</a>
</g>
</g>
<!-- Node1&#45;&gt;Node7 -->
<g id="edge10" class="edge">
<title>Node1&#45;&gt;Node7</title>
<path fill="none" stroke="#191970" d="M527.4174,-168.3733C504.0504,-159.2226 468.7138,-145.3844 442.7216,-135.2057"/>
<polygon fill="#191970" stroke="#191970" points="443.8495,-131.8886 433.2618,-131.5011 441.297,-138.4066 443.8495,-131.8886"/>
</g>
<!-- Node4 -->
<g id="node5" class="node">
<title>Node4</title>
<polygon fill="#ffffff" stroke="#bfbfbf" points="751.5,-.5 751.5,-19.5 840.5,-19.5 840.5,-.5 751.5,-.5"/>
<text text-anchor="middle" x="796" y="-7.5" font-family="Helvetica,sans-Serif" font-size="10.00" fill="#000000">l4/sys/linkage.h</text>
</g>
<!-- Node3&#45;&gt;Node4 -->
<g id="edge4" class="edge">
<title>Node3&#45;&gt;Node4</title>
<path fill="none" stroke="#191970" d="M796,-56.2455C796,-48.9382 796,-38.6944 796,-29.7046"/>
<polygon fill="#191970" stroke="#191970" points="799.5001,-29.6426 796,-19.6427 792.5001,-29.6427 799.5001,-29.6426"/>
</g>
<!-- Node5&#45;&gt;Node2 -->
<g id="edge7" class="edge">
<title>Node5&#45;&gt;Node2</title>
<path fill="none" stroke="#191970" d="M717.9453,-114.2722C659.7919,-103.8344 556.5056,-85.2959 496.263,-74.4831"/>
<polygon fill="#191970" stroke="#191970" points="496.718,-71.0089 486.2569,-72.6871 495.4813,-77.8988 496.718,-71.0089"/>
</g>
<!-- Node5&#45;&gt;Node3 -->
<g id="edge6" class="edge">
<title>Node5&#45;&gt;Node3</title>
<path fill="none" stroke="#191970" d="M767.0965,-112.2455C771.9145,-104.5367 778.7751,-93.5598 784.6032,-84.2348"/>
<polygon fill="#191970" stroke="#191970" points="787.6413,-85.9777 789.9733,-75.6427 781.7053,-82.2677 787.6413,-85.9777"/>
</g>
<!-- Node6&#45;&gt;Node3 -->
<g id="edge9" class="edge">
<title>Node6&#45;&gt;Node3</title>
<path fill="none" stroke="#191970" d="M608.594,-112.4369C647.0284,-102.9133 706.136,-88.2672 747.671,-77.9753"/>
<polygon fill="#191970" stroke="#191970" points="748.7006,-81.3261 757.5652,-75.5237 747.0169,-74.5316 748.7006,-81.3261"/>
</g>
<!-- Node7&#45;&gt;Node2 -->
<g id="edge11" class="edge">
<title>Node7&#45;&gt;Node2</title>
<path fill="none" stroke="#191970" d="M415.9675,-112.2455C421.5311,-104.4564 429.478,-93.3308 436.1829,-83.9439"/>
<polygon fill="#191970" stroke="#191970" points="439.148,-85.8144 442.1124,-75.6427 433.4519,-81.7457 439.148,-85.8144"/>
</g>
<!-- Node8&#45;&gt;Node1 -->
<g id="edge15" class="edge">
<title>Node8&#45;&gt;Node1</title>
<path fill="none" stroke="#191970" d="M497.5724,-683.3877C411.4327,-651.2626 152,-538.9495 152,-351.5 152,-351.5 152,-351.5 152,-290 152,-218.2022 393.9954,-190.3358 501.5333,-181.4971"/>
<polygon fill="#191970" stroke="#191970" points="502.1252,-184.961 511.815,-180.6765 501.5683,-177.9832 502.1252,-184.961"/>
</g>
<!-- Node8&#45;&gt;Node5 -->
<g id="edge14" class="edge">
<title>Node8&#45;&gt;Node5</title>
<path fill="none" stroke="#191970" d="M570.3532,-691.8607C688.7413,-687.664 998,-668.3424 998,-581 998,-581 998,-581 998,-234 998,-192.522 877.8369,-153.327 808.6353,-134.1938"/>
<polygon fill="#191970" stroke="#191970" points="809.3838,-130.7702 798.8154,-131.5186 807.5438,-137.5241 809.3838,-130.7702"/>
</g>
<!-- Node9 -->
<g id="node10" class="node">
<title>Node9</title>
<g id="a_node10"><a xlink:href="kobject_source.html" target="_top" xlink:title="l4/sys/kobject">
<polygon fill="#ffffff" stroke="#000000" points="612,-515.5 612,-534.5 692,-534.5 692,-515.5 612,-515.5"/>
<text text-anchor="middle" x="652" y="-522.5" font-family="Helvetica,sans-Serif" font-size="10.00" fill="#000000">l4/sys/kobject</text>
</a>
</g>
</g>
<!-- Node8&#45;&gt;Node9 -->
<g id="edge16" class="edge">
<title>Node8&#45;&gt;Node9</title>
<path fill="none" stroke="#191970" d="M533.5955,-683.3145C541.6534,-674.1303 553.9335,-659.8624 564,-647 592.1345,-611.0513 622.8755,-567.3158 639.5469,-543.187"/>
<polygon fill="#191970" stroke="#191970" points="642.6164,-544.9005 645.4031,-534.6787 636.8502,-540.9316 642.6164,-544.9005"/>
</g>
<!-- Node19 -->
<g id="node20" class="node">
<title>Node19</title>
<g id="a_node20"><a xlink:href="l4_2sys_2task_8h.html" target="_top" xlink:title="Common task related definitions. ">
<polygon fill="#ffffff" stroke="#000000" points="604,-342 604,-361 678,-361 678,-342 604,-342"/>
<text text-anchor="middle" x="641" y="-349" font-family="Helvetica,sans-Serif" font-size="10.00" fill="#000000">l4/sys/task.h</text>
</a>
</g>
</g>
<!-- Node8&#45;&gt;Node19 -->
<g id="edge45" class="edge">
<title>Node8&#45;&gt;Node19</title>
<path fill="none" stroke="#191970" d="M560.4688,-683.4102C624.3125,-665.0939 752,-623.1877 752,-581 752,-581 752,-581 752,-469 752,-421.0331 702.5145,-384.7373 669.6258,-365.9116"/>
<polygon fill="#191970" stroke="#191970" points="671.2916,-362.8333 660.8446,-361.0698 667.9117,-368.9633 671.2916,-362.8333"/>
</g>
<!-- Node20 -->
<g id="node21" class="node">
<title>Node20</title>
<g id="a_node21"><a xlink:href="sys_2meta.html" target="_top" xlink:title="Meta interface for getting dynamic type information about objects behind capabilities. ">
<polygon fill="#ffffff" stroke="#000000" points="485,-627.5 485,-646.5 555,-646.5 555,-627.5 485,-627.5"/>
<text text-anchor="middle" x="520" y="-634.5" font-family="Helvetica,sans-Serif" font-size="10.00" fill="#000000">l4/sys/meta</text>
</a>
</g>
</g>
<!-- Node8&#45;&gt;Node20 -->
<g id="edge46" class="edge">
<title>Node8&#45;&gt;Node20</title>
<path fill="none" stroke="#191970" d="M524.1291,-683.2455C523.4766,-675.9382 522.562,-665.6944 521.7593,-656.7046"/>
<polygon fill="#191970" stroke="#191970" points="525.2365,-656.2918 520.861,-646.6427 518.2642,-656.9143 525.2365,-656.2918"/>
</g>
<!-- Node9&#45;&gt;Node1 -->
<g id="edge31" class="edge">
<title>Node9&#45;&gt;Node1</title>
<path fill="none" stroke="#191970" d="M655.5545,-515.297C662.8966,-493.4829 677.3441,-439.6173 656,-403 640.1468,-375.8028 613.5636,-392.4245 595,-367 557.0398,-315.0101 551.8007,-235.1842 551.5773,-198.1539"/>
<polygon fill="#191970" stroke="#191970" points="555.08,-197.7472 551.6459,-187.7244 548.0801,-197.7011 555.08,-197.7472"/>
</g>
<!-- Node10 -->
<g id="node11" class="node">
<title>Node10</title>
<g id="a_node11"><a xlink:href="kernel__object_8h.html" target="_top" xlink:title="Kernel object system calls. ">
<polygon fill="#ffffff" stroke="#000000" points="780,-403.5 780,-422.5 868,-422.5 868,-403.5 780,-403.5"/>
<text text-anchor="middle" x="824" y="-410.5" font-family="Helvetica,sans-Serif" font-size="10.00" fill="#000000">kernel_object.h</text>
</a>
</g>
</g>
<!-- Node9&#45;&gt;Node10 -->
<g id="edge17" class="edge">
<title>Node9&#45;&gt;Node10</title>
<path fill="none" stroke="#191970" d="M666.6646,-515.4509C696.6215,-495.9441 765.039,-451.3932 800.9783,-427.9909"/>
<polygon fill="#191970" stroke="#191970" points="802.9024,-430.9147 809.3725,-422.5249 799.0826,-425.0487 802.9024,-430.9147"/>
</g>
<!-- Node15 -->
<g id="node16" class="node">
<title>Node15</title>
<g id="a_node16"><a xlink:href="____typeinfo_8h.html" target="_top" xlink:title="Type information handling. ">
<polygon fill="#ffffff" stroke="#000000" points="574,-459.5 574,-478.5 648,-478.5 648,-459.5 574,-459.5"/>
<text text-anchor="middle" x="611" y="-466.5" font-family="Helvetica,sans-Serif" font-size="10.00" fill="#000000">__typeinfo.h</text>
</a>
</g>
</g>
<!-- Node9&#45;&gt;Node15 -->
<g id="edge32" class="edge">
<title>Node9&#45;&gt;Node15</title>
<path fill="none" stroke="#191970" d="M644.8583,-515.2455C639.1556,-507.4564 631.01,-496.3308 624.1375,-486.9439"/>
<polygon fill="#191970" stroke="#191970" points="626.7913,-484.6437 618.0598,-478.6427 621.1432,-488.7789 626.7913,-484.6437"/>
</g>
<!-- Node10&#45;&gt;Node1 -->
<g id="edge18" class="edge">
<title>Node10&#45;&gt;Node1</title>
<path fill="none" stroke="#191970" d="M813.0004,-403.4967C771.3959,-367.5516 623.356,-239.6495 570.7321,-194.184"/>
<polygon fill="#191970" stroke="#191970" points="572.9917,-191.5108 563.1365,-187.6216 568.4153,-196.8077 572.9917,-191.5108"/>
</g>
<!-- Node10&#45;&gt;Node3 -->
<g id="edge19" class="edge">
<title>Node10&#45;&gt;Node3</title>
<path fill="none" stroke="#191970" d="M868.1841,-407.3014C930.3152,-396.5331 1036,-366.9122 1036,-290 1036,-290 1036,-290 1036,-178 1036,-136.1471 914.6338,-97.1815 844.5134,-78.1615"/>
<polygon fill="#191970" stroke="#191970" points="845.1247,-74.7022 834.5602,-75.5021 843.3177,-81.4649 845.1247,-74.7022"/>
</g>
<!-- Node11 -->
<g id="node12" class="node">
<title>Node11</title>
<g id="a_node12"><a xlink:href="l4_2sys_2utcb_8h.html" target="_top" xlink:title="UTCB definitions. ">
<polygon fill="#ffffff" stroke="#000000" points="654,-224.5 654,-243.5 728,-243.5 728,-224.5 654,-224.5"/>
<text text-anchor="middle" x="691" y="-231.5" font-family="Helvetica,sans-Serif" font-size="10.00" fill="#000000">l4/sys/utcb.h</text>
</a>
</g>
</g>
<!-- Node10&#45;&gt;Node11 -->
<g id="edge20" class="edge">
<title>Node10&#45;&gt;Node11</title>
<path fill="none" stroke="#191970" d="M818.8259,-403.4846C806.3717,-380.954 773.1442,-323.0117 738,-280 729.3953,-269.4691 718.6232,-258.7797 709.5633,-250.359"/>
<polygon fill="#191970" stroke="#191970" points="711.8917,-247.7455 702.1399,-243.604 707.1805,-252.9229 711.8917,-247.7455"/>
</g>
<!-- Node12 -->
<g id="node13" class="node">
<title>Node12</title>
<g id="a_node13"><a xlink:href="____kernel__object__impl_8h.html" target="_top" xlink:title="Low&#45;level kernel debugger functions. ">
<polygon fill="#ffffff" stroke="#000000" points="848,-336.5 848,-366.5 970,-366.5 970,-336.5 848,-336.5"/>
<text text-anchor="start" x="856" y="-354.5" font-family="Helvetica,sans-Serif" font-size="10.00" fill="#000000">l4/sys/__kernel_object</text>
<text text-anchor="middle" x="909" y="-343.5" font-family="Helvetica,sans-Serif" font-size="10.00" fill="#000000">_impl.h</text>
</a>
</g>
</g>
<!-- Node10&#45;&gt;Node12 -->
<g id="edge24" class="edge">
<title>Node10&#45;&gt;Node12</title>
<path fill="none" stroke="#191970" d="M837.2813,-403.3906C848.6784,-395.1444 865.5092,-382.9669 880.0023,-372.4807"/>
<polygon fill="#191970" stroke="#191970" points="882.1565,-375.2421 888.2067,-366.5446 878.0532,-369.5709 882.1565,-375.2421"/>
</g>
<!-- Node13 -->
<g id="node14" class="node">
<title>Node13</title>
<g id="a_node14"><a xlink:href="l4_2sys_2ipc_8h.html" target="_top" xlink:title="Common IPC interface. ">
<polygon fill="#ffffff" stroke="#000000" points="790,-280.5 790,-299.5 858,-299.5 858,-280.5 790,-280.5"/>
<text text-anchor="middle" x="824" y="-287.5" font-family="Helvetica,sans-Serif" font-size="10.00" fill="#000000">l4/sys/ipc.h</text>
</a>
</g>
</g>
<!-- Node10&#45;&gt;Node13 -->
<g id="edge30" class="edge">
<title>Node10&#45;&gt;Node13</title>
<path fill="none" stroke="#191970" d="M824,-403.3484C824,-383.2295 824,-336.4608 824,-309.7098"/>
<polygon fill="#191970" stroke="#191970" points="827.5001,-309.6067 824,-299.6068 820.5001,-309.6068 827.5001,-309.6067"/>
</g>
<!-- Node11&#45;&gt;Node1 -->
<g id="edge21" class="edge">
<title>Node11&#45;&gt;Node1</title>
<path fill="none" stroke="#191970" d="M667.105,-224.3733C644.4918,-215.2629 610.3458,-201.5062 585.1127,-191.3404"/>
<polygon fill="#191970" stroke="#191970" points="586.1666,-187.9917 575.5831,-187.5011 583.5507,-194.4845 586.1666,-187.9917"/>
</g>
<!-- Node11&#45;&gt;Node2 -->
<g id="edge23" class="edge">
<title>Node11&#45;&gt;Node2</title>
<path fill="none" stroke="#191970" d="M689.3083,-224.3555C684.7239,-201.2005 669.8386,-142.1571 633,-112 612.2892,-95.0456 543.6793,-81.0739 496.3586,-73.1339"/>
<polygon fill="#191970" stroke="#191970" points="496.7482,-69.6511 486.3132,-71.4848 495.6141,-76.5587 496.7482,-69.6511"/>
</g>
<!-- Node11&#45;&gt;Node3 -->
<g id="edge22" class="edge">
<title>Node11&#45;&gt;Node3</title>
<path fill="none" stroke="#191970" d="M711.3095,-224.2718C740.1914,-209.1577 791.9581,-177.0197 813,-132 820.0956,-116.8188 814.1373,-98.2351 807.397,-84.6599"/>
<polygon fill="#191970" stroke="#191970" points="810.4043,-82.8647 802.5262,-75.7805 804.267,-86.2313 810.4043,-82.8647"/>
</g>
<!-- Node12&#45;&gt;Node13 -->
<g id="edge25" class="edge">
<title>Node12&#45;&gt;Node13</title>
<path fill="none" stroke="#191970" d="M887.9888,-336.2977C875.2066,-327.0495 858.9054,-315.2551 845.9552,-305.8853"/>
<polygon fill="#191970" stroke="#191970" points="847.763,-302.8732 837.6096,-299.8469 843.6597,-308.5445 847.763,-302.8732"/>
</g>
<!-- Node13&#45;&gt;Node1 -->
<g id="edge26" class="edge">
<title>Node13&#45;&gt;Node1</title>
<path fill="none" stroke="#191970" d="M814.1962,-280.3776C798.9663,-265.9696 768.1242,-238.8949 737,-224 693.8377,-203.3441 640.4209,-191.3475 602.0994,-184.8177"/>
<polygon fill="#191970" stroke="#191970" points="602.6403,-181.3597 592.2057,-183.1958 601.5078,-188.2675 602.6403,-181.3597"/>
</g>
<!-- Node13&#45;&gt;Node11 -->
<g id="edge27" class="edge">
<title>Node13&#45;&gt;Node11</title>
<path fill="none" stroke="#191970" d="M801.1365,-280.3733C779.595,-271.3032 747.1162,-257.6279 723.0044,-247.4755"/>
<polygon fill="#191970" stroke="#191970" points="724.1397,-244.156 713.5652,-243.5011 721.4233,-250.6075 724.1397,-244.156"/>
</g>
<!-- Node14 -->
<g id="node15" class="node">
<title>Node14</title>
<g id="a_node15"><a xlink:href="err_8h.html" target="_top" xlink:title="Error codes. ">
<polygon fill="#ffffff" stroke="#000000" points="836,-224.5 836,-243.5 904,-243.5 904,-224.5 836,-224.5"/>
<text text-anchor="middle" x="870" y="-231.5" font-family="Helvetica,sans-Serif" font-size="10.00" fill="#000000">l4/sys/err.h</text>
</a>
</g>
</g>
<!-- Node13&#45;&gt;Node14 -->
<g id="edge28" class="edge">
<title>Node13&#45;&gt;Node14</title>
<path fill="none" stroke="#191970" d="M832.0126,-280.2455C838.4768,-272.3761 847.7385,-261.101 855.4983,-251.6542"/>
<polygon fill="#191970" stroke="#191970" points="858.4364,-253.5916 862.0792,-243.6427 853.0273,-249.1484 858.4364,-253.5916"/>
</g>
<!-- Node14&#45;&gt;Node3 -->
<g id="edge29" class="edge">
<title>Node14&#45;&gt;Node3</title>
<path fill="none" stroke="#191970" d="M870.0862,-224.4475C869.8798,-202.9415 867.1002,-149.6655 846,-112 839.3344,-100.1015 828.4902,-89.5673 818.6017,-81.5922"/>
<polygon fill="#191970" stroke="#191970" points="820.7085,-78.7973 810.6328,-75.5213 816.4664,-84.3655 820.7085,-78.7973"/>
</g>
<!-- Node15&#45;&gt;Node16 -->
<g id="edge33" class="edge">
<title>Node15&#45;&gt;Node16</title>
<path fill="none" stroke="#191970" d="M599.724,-459.4355C582.2646,-445.103 547.1315,-418.1256 513,-403 457.2912,-378.3123 387.7596,-364.1807 344.614,-357.1735"/>
<polygon fill="#191970" stroke="#191970" points="344.9246,-353.6794 334.5023,-355.5836 343.8373,-360.5945 344.9246,-353.6794"/>
</g>
<!-- Node17 -->
<g id="node18" class="node">
<title>Node17</title>
<g id="a_node18"><a xlink:href="ipc__basics_source.html" target="_top" xlink:title="cxx/ipc_basics">
<polygon fill="#ffffff" stroke="#000000" points="420,-403.5 420,-422.5 504,-422.5 504,-403.5 420,-403.5"/>
<text text-anchor="middle" x="462" y="-410.5" font-family="Helvetica,sans-Serif" font-size="10.00" fill="#000000">cxx/ipc_basics</text>
</a>
</g>
</g>
<!-- Node15&#45;&gt;Node17 -->
<g id="edge34" class="edge">
<title>Node15&#45;&gt;Node17</title>
<path fill="none" stroke="#191970" d="M585.386,-459.3733C560.9313,-450.1822 523.8946,-436.2624 496.7791,-426.0713"/>
<polygon fill="#191970" stroke="#191970" points="497.8719,-422.7431 487.2798,-422.5011 495.4091,-429.2956 497.8719,-422.7431"/>
</g>
<!-- Node18 -->
<g id="node19" class="node">
<title>Node18</title>
<g id="a_node19"><a xlink:href="capability_8h_source.html" target="_top" xlink:title="cxx/capability.h">
<polygon fill="#ffffff" stroke="#000000" points="560.5,-403.5 560.5,-422.5 647.5,-422.5 647.5,-403.5 560.5,-403.5"/>
<text text-anchor="middle" x="604" y="-410.5" font-family="Helvetica,sans-Serif" font-size="10.00" fill="#000000">cxx/capability.h</text>
</a>
</g>
</g>
<!-- Node15&#45;&gt;Node18 -->
<g id="edge38" class="edge">
<title>Node15&#45;&gt;Node18</title>
<path fill="none" stroke="#191970" d="M609.7807,-459.2455C608.8673,-451.9382 607.5868,-441.6944 606.4631,-432.7046"/>
<polygon fill="#191970" stroke="#191970" points="609.9187,-432.1313 605.2053,-422.6427 602.9728,-432.9996 609.9187,-432.1313"/>
</g>
<!-- Node17&#45;&gt;Node11 -->
<g id="edge36" class="edge">
<title>Node17&#45;&gt;Node11</title>
<path fill="none" stroke="#191970" d="M474.312,-403.3762C511.6665,-374.1777 623.9891,-286.3797 670.4934,-250.0291"/>
<polygon fill="#191970" stroke="#191970" points="672.9039,-252.5874 678.6271,-243.6714 668.5929,-247.0723 672.9039,-252.5874"/>
</g>
<!-- Node17&#45;&gt;Node14 -->
<g id="edge37" class="edge">
<title>Node17&#45;&gt;Node14</title>
<path fill="none" stroke="#191970" d="M504.0647,-407.8026C598.7592,-395.1338 823.7819,-359.2818 867,-300 876.5971,-286.8357 876.4685,-267.9631 874.452,-253.7683"/>
<polygon fill="#191970" stroke="#191970" points="877.8304,-252.7879 872.5796,-243.5857 870.9459,-254.0538 877.8304,-252.7879"/>
</g>
<!-- Node17&#45;&gt;Node16 -->
<g id="edge35" class="edge">
<title>Node17&#45;&gt;Node16</title>
<path fill="none" stroke="#191970" d="M437.3125,-403.3906C410.6443,-393.0103 367.9718,-376.4004 338.1089,-364.7766"/>
<polygon fill="#191970" stroke="#191970" points="339.1027,-361.4076 328.5141,-361.0419 336.5635,-367.9309 339.1027,-361.4076"/>
</g>
<!-- Node18&#45;&gt;Node1 -->
<g id="edge40" class="edge">
<title>Node18&#45;&gt;Node1</title>
<path fill="none" stroke="#191970" d="M572.9044,-403.409C555.4211,-396.2946 534.9625,-384.7091 524,-367 490.5348,-312.9394 500.9739,-284.6669 520,-224 523.2496,-213.6383 529.7494,-203.5669 536.0471,-195.5026"/>
<polygon fill="#191970" stroke="#191970" points="538.9079,-197.5376 542.6382,-187.6212 533.5381,-193.047 538.9079,-197.5376"/>
</g>
<!-- Node18&#45;&gt;Node5 -->
<g id="edge39" class="edge">
<title>Node18&#45;&gt;Node5</title>
<path fill="none" stroke="#191970" d="M599.4578,-403.3167C592.996,-388.0168 583.1717,-357.7573 595,-336 612.9586,-302.9664 715.9228,-275.1365 737,-244 758.0818,-212.8568 761.5848,-167.5993 761.6714,-141.8619"/>
<polygon fill="#191970" stroke="#191970" points="765.1707,-141.7774 761.5314,-131.8272 758.1714,-141.8752 765.1707,-141.7774"/>
</g>
<!-- Node18&#45;&gt;Node19 -->
<g id="edge41" class="edge">
<title>Node18&#45;&gt;Node19</title>
<path fill="none" stroke="#191970" d="M609.7813,-403.3906C615.126,-394.5068 623.2159,-381.0601 629.8211,-370.0811"/>
<polygon fill="#191970" stroke="#191970" points="632.9811,-371.618 635.1372,-361.2449 626.9829,-368.0093 632.9811,-371.618"/>
</g>
<!-- Node19&#45;&gt;Node1 -->
<g id="edge42" class="edge">
<title>Node19&#45;&gt;Node1</title>
<path fill="none" stroke="#191970" d="M636.0882,-341.9248C621.8984,-314.2625 580.6552,-233.8614 561.7157,-196.9403"/>
<polygon fill="#191970" stroke="#191970" points="564.6848,-195.0597 557.0063,-187.7595 558.4564,-198.2547 564.6848,-195.0597"/>
</g>
<!-- Node19&#45;&gt;Node11 -->
<g id="edge43" class="edge">
<title>Node19&#45;&gt;Node11</title>
<path fill="none" stroke="#191970" d="M645.0917,-341.8845C653.3323,-322.5192 672.0615,-278.5055 682.8791,-253.084"/>
<polygon fill="#191970" stroke="#191970" points="686.1567,-254.3204 686.8518,-243.7484 679.7156,-251.5795 686.1567,-254.3204"/>
</g>
<!-- Node19&#45;&gt;Node13 -->
<g id="edge44" class="edge">
<title>Node19&#45;&gt;Node13</title>
<path fill="none" stroke="#191970" d="M669.5938,-341.8906C700.8845,-331.3749 751.1986,-314.466 785.84,-302.8243"/>
<polygon fill="#191970" stroke="#191970" points="787.243,-306.0452 795.607,-299.5419 785.013,-299.4099 787.243,-306.0452"/>
</g>
<!-- Node20&#45;&gt;Node9 -->
<g id="edge47" class="edge">
<title>Node20&#45;&gt;Node9</title>
<path fill="none" stroke="#191970" d="M531.2542,-627.4509C553.8548,-608.2747 604.9794,-564.8962 632.9085,-541.1988"/>
<polygon fill="#191970" stroke="#191970" points="635.4136,-543.6635 640.7742,-534.5249 630.8847,-538.3259 635.4136,-543.6635"/>
</g>
<!-- Node20&#45;&gt;Node21 -->
<g id="edge48" class="edge">
<title>Node20&#45;&gt;Node21</title>
<path fill="none" stroke="#191970" d="M518.7807,-627.2455C517.8673,-619.9382 516.5868,-609.6944 515.4631,-600.7046"/>
<polygon fill="#191970" stroke="#191970" points="518.9187,-600.1313 514.2053,-590.6427 511.9728,-600.9996 518.9187,-600.1313"/>
</g>
<!-- Node23 -->
<g id="node24" class="node">
<title>Node23</title>
<g id="a_node24"><a xlink:href="ipc__string_source.html" target="_top" xlink:title="cxx/ipc_string">
<polygon fill="#ffffff" stroke="#000000" points="375.5,-571.5 375.5,-590.5 456.5,-590.5 456.5,-571.5 375.5,-571.5"/>
<text text-anchor="middle" x="416" y="-578.5" font-family="Helvetica,sans-Serif" font-size="10.00" fill="#000000">cxx/ipc_string</text>
</a>
</g>
</g>
<!-- Node20&#45;&gt;Node23 -->
<g id="edge55" class="edge">
<title>Node20&#45;&gt;Node23</title>
<path fill="none" stroke="#191970" d="M501.8846,-627.2455C485.555,-618.4527 461.329,-605.4079 442.7661,-595.4125"/>
<polygon fill="#191970" stroke="#191970" points="444.3719,-592.3021 433.9078,-590.6427 441.0532,-598.4654 444.3719,-592.3021"/>
</g>
<!-- Node21&#45;&gt;Node15 -->
<g id="edge54" class="edge">
<title>Node21&#45;&gt;Node15</title>
<path fill="none" stroke="#191970" d="M523.8726,-571.1681C533.6791,-562.1151 548.3136,-548.1372 560,-535 573.7631,-519.5283 588.0636,-500.7476 598.0067,-487.1823"/>
<polygon fill="#191970" stroke="#191970" points="601.099,-488.8797 604.134,-478.7289 595.4313,-484.7715 601.099,-488.8797"/>
</g>
<!-- Node21&#45;&gt;Node17 -->
<g id="edge49" class="edge">
<title>Node21&#45;&gt;Node17</title>
<path fill="none" stroke="#191970" d="M511.4208,-571.3092C507.857,-550.3971 498.3647,-499.6422 484,-459 480.7283,-449.7432 476.1622,-439.8735 472.0374,-431.6592"/>
<polygon fill="#191970" stroke="#191970" points="475.0553,-429.876 467.3416,-422.6132 468.8425,-433.1012 475.0553,-429.876"/>
</g>
<!-- Node21&#45;&gt;Node22 -->
<g id="edge50" class="edge">
<title>Node21&#45;&gt;Node22</title>
<path fill="none" stroke="#191970" d="M503.6033,-571.2891C490.7402,-558.135 466.7593,-534.1035 445,-515 432.994,-504.4593 418.9715,-493.3087 407.722,-484.6261"/>
<polygon fill="#191970" stroke="#191970" points="409.8082,-481.8153 399.7393,-478.5184 405.5546,-487.3747 409.8082,-481.8153"/>
</g>
<!-- Node22&#45;&gt;Node16 -->
<g id="edge52" class="edge">
<title>Node22&#45;&gt;Node16</title>
<path fill="none" stroke="#191970" d="M380.2078,-459.3845C366.3461,-439.761 334.6058,-394.8274 316.7694,-369.5772"/>
<polygon fill="#191970" stroke="#191970" points="319.5144,-367.3968 310.8861,-361.2484 313.797,-371.4355 319.5144,-367.3968"/>
</g>
<!-- Node22&#45;&gt;Node17 -->
<g id="edge53" class="edge">
<title>Node22&#45;&gt;Node17</title>
<path fill="none" stroke="#191970" d="M400.064,-459.2455C411.3562,-450.814 427.8845,-438.4729 441.0271,-428.6598"/>
<polygon fill="#191970" stroke="#191970" points="443.1669,-431.4301 449.0857,-422.6427 438.9789,-425.8211 443.1669,-431.4301"/>
</g>
<!-- Node22&#45;&gt;Node18 -->
<g id="edge51" class="edge">
<title>Node22&#45;&gt;Node18</title>
<path fill="none" stroke="#191970" d="M424.3036,-459.3733C461.1685,-449.8598 517.666,-435.2797 557.4506,-425.0127"/>
<polygon fill="#191970" stroke="#191970" points="558.375,-428.3889 567.1831,-422.5011 556.6258,-421.611 558.375,-428.3889"/>
</g>
<!-- Node23&#45;&gt;Node16 -->
<g id="edge56" class="edge">
<title>Node23&#45;&gt;Node16</title>
<path fill="none" stroke="#191970" d="M401.07,-571.4604C377.3686,-555.4539 331.5167,-520.8006 309,-479 290.5232,-444.6993 295.0741,-397.3505 299.7328,-371.0714"/>
<polygon fill="#191970" stroke="#191970" points="303.179,-371.685 301.6692,-361.1983 296.3099,-370.3377 303.179,-371.685"/>
</g>
<!-- Node23&#45;&gt;Node17 -->
<g id="edge57" class="edge">
<title>Node23&#45;&gt;Node17</title>
<path fill="none" stroke="#191970" d="M423.4324,-571.2893C436.1423,-553.9355 461.4163,-515.947 469,-479 472.1494,-463.6564 469.9803,-445.998 467.253,-432.8096"/>
<polygon fill="#191970" stroke="#191970" points="470.6272,-431.8677 464.9353,-422.9316 463.8122,-433.4667 470.6272,-431.8677"/>
</g>
<!-- Node24 -->
<g id="node25" class="node">
<title>Node24</title>
<g id="a_node25"><a xlink:href="ipc__array_source.html" target="_top" xlink:title="ipc_array">
<polygon fill="#ffffff" stroke="#000000" points="375.5,-515.5 375.5,-534.5 436.5,-534.5 436.5,-515.5 375.5,-515.5"/>
<text text-anchor="middle" x="406" y="-522.5" font-family="Helvetica,sans-Serif" font-size="10.00" fill="#000000">ipc_array</text>
</a>
</g>
</g>
<!-- Node23&#45;&gt;Node24 -->
<g id="edge58" class="edge">
<title>Node23&#45;&gt;Node24</title>
<path fill="none" stroke="#191970" d="M414.2581,-571.2455C412.9533,-563.9382 411.124,-553.6944 409.5187,-544.7046"/>
<polygon fill="#191970" stroke="#191970" points="412.9254,-543.8717 407.7219,-534.6427 406.0344,-545.1022 412.9254,-543.8717"/>
</g>
<!-- Node24&#45;&gt;Node16 -->
<g id="edge59" class="edge">
<title>Node24&#45;&gt;Node16</title>
<path fill="none" stroke="#191970" d="M375.1672,-515.6559C357.0723,-508.5418 335.3924,-496.8703 323,-479 300.4587,-446.4947 299.9866,-398.0962 301.8545,-371.2459"/>
<polygon fill="#191970" stroke="#191970" points="305.3513,-371.4353 302.7408,-361.1671 298.3782,-370.822 305.3513,-371.4353"/>
</g>
<!-- Node24&#45;&gt;Node17 -->
<g id="edge60" class="edge">
<title>Node24&#45;&gt;Node17</title>
<path fill="none" stroke="#191970" d="M419.273,-515.2187C429.6442,-506.8142 443.515,-493.7433 451,-479 458.3128,-464.596 460.9266,-446.3655 461.7888,-432.7162"/>
<polygon fill="#191970" stroke="#191970" points="465.294,-432.6351 462.1656,-422.5127 458.2988,-432.3767 465.294,-432.6351"/>
</g>
<!-- Node24&#45;&gt;Node22 -->
<g id="edge61" class="edge">
<title>Node24&#45;&gt;Node22</title>
<path fill="none" stroke="#191970" d="M402.6905,-515.2455C400.1567,-507.7776 396.5823,-497.2427 393.485,-488.1137"/>
<polygon fill="#191970" stroke="#191970" points="396.7991,-486.9879 390.2716,-478.6427 390.1702,-489.237 396.7991,-486.9879"/>
</g>
<!-- Node25&#45;&gt;Node1 -->
<g id="edge63" class="edge">
<title>Node25&#45;&gt;Node1</title>
<path fill="none" stroke="#191970" d="M240.0366,-739.3888C212.6709,-700.6402 114,-551.3352 114,-413 114,-413 114,-413 114,-290 114,-245.2632 149.1649,-242.2723 190,-224 244.6655,-199.5392 416.0325,-186.1188 501.9089,-180.7731"/>
<polygon fill="#191970" stroke="#191970" points="502.1759,-184.2634 511.9442,-180.161 501.7497,-177.2764 502.1759,-184.2634"/>
</g>
<!-- Node25&#45;&gt;Node2 -->
<g id="edge64" class="edge">
<title>Node25&#45;&gt;Node2</title>
<path fill="none" stroke="#191970" d="M235.4594,-739.2176C225.531,-730.4162 211.2328,-716.7839 201,-703 184.1696,-680.329 183.4684,-672.3333 171,-647 107.4014,-517.7801 38,-495.5228 38,-351.5 38,-351.5 38,-351.5 38,-178 38,-103.3854 293.3415,-76.8121 401.501,-68.9029"/>
<polygon fill="#191970" stroke="#191970" points="402.0737,-72.3712 411.8016,-68.1738 401.5794,-65.3887 402.0737,-72.3712"/>
</g>
<!-- Node25&#45;&gt;Node8 -->
<g id="edge65" class="edge">
<title>Node25&#45;&gt;Node8</title>
<path fill="none" stroke="#191970" d="M292.2842,-739.878C340.7491,-730.1153 417.6655,-714.6213 469.6801,-704.1436"/>
<polygon fill="#191970" stroke="#191970" points="470.6233,-707.524 479.7352,-702.1181 469.2409,-700.6618 470.6233,-707.524"/>
</g>
<!-- Node25&#45;&gt;Node16 -->
<g id="edge69" class="edge">
<title>Node25&#45;&gt;Node16</title>
<path fill="none" stroke="#191970" d="M247.4997,-739.3188C248.9525,-712.4921 253.6129,-634.958 262,-571 271.8618,-495.7961 276.722,-477.2932 292,-403 294.1766,-392.4158 296.8884,-380.6775 299.1832,-371.0838"/>
<polygon fill="#191970" stroke="#191970" points="302.5909,-371.8824 301.5461,-361.3393 295.788,-370.2328 302.5909,-371.8824"/>
</g>
<!-- Node25&#45;&gt;Node21 -->
<g id="edge68" class="edge">
<title>Node25&#45;&gt;Node21</title>
<path fill="none" stroke="#191970" d="M256.7359,-739.2718C270.6544,-725.672 297.3955,-700.6635 323,-683 376.126,-646.3505 443.8608,-612.8068 482.4384,-594.8054"/>
<polygon fill="#191970" stroke="#191970" points="483.9849,-597.9464 491.5914,-590.5712 481.0459,-591.5932 483.9849,-597.9464"/>
</g>
<!-- Node25&#45;&gt;Node22 -->
<g id="edge67" class="edge">
<title>Node25&#45;&gt;Node22</title>
<path fill="none" stroke="#191970" d="M251.8191,-739.3618C272.0553,-698.8894 350.3667,-542.2667 377.6011,-487.7977"/>
<polygon fill="#191970" stroke="#191970" points="380.8595,-489.1072 382.2012,-478.5977 374.5985,-485.9767 380.8595,-489.1072"/>
</g>
<!-- Node25&#45;&gt;Node26 -->
<g id="edge66" class="edge">
<title>Node25&#45;&gt;Node26</title>
<path fill="none" stroke="#191970" d="M269.5197,-739.3733C290.7372,-730.3032 322.7276,-716.6279 346.4769,-706.4755"/>
<polygon fill="#191970" stroke="#191970" points="347.9548,-709.6502 355.7742,-702.5011 345.2033,-703.2136 347.9548,-709.6502"/>
</g>
</g>
</svg>
