<?xml version="1.0" encoding="UTF-8" standalone="no"?>
<!DOCTYPE svg PUBLIC "-//W3C//DTD SVG 1.1//EN"
 "http://www.w3.org/Graphics/SVG/1.1/DTD/svg11.dtd">
<!-- Generated by graphviz version 2.40.1 (20161225.0304)
 -->
<!-- Title: l4/re/env Pages: 1 -->
<svg width="1161pt" height="162pt"
 viewBox="0.00 0.00 1160.50 162.00" xmlns="http://www.w3.org/2000/svg" xmlns:xlink="http://www.w3.org/1999/xlink">
<g id="graph0" class="graph" transform="scale(1 1) rotate(0) translate(4 158)">
<title>l4/re/env</title>
<polygon fill="#ffffff" stroke="transparent" points="-4,4 -4,-158 1156.5,-158 1156.5,4 -4,4"/>
<!-- Node50 -->
<g id="node1" class="node">
<title>Node50</title>
<polygon fill="#bfbfbf" stroke="#000000" points="521,-134.5 521,-153.5 579,-153.5 579,-134.5 521,-134.5"/>
<text text-anchor="middle" x="550" y="-141.5" font-family="Helvetica,sans-Serif" font-size="10.00" fill="#000000">l4/re/env</text>
</g>
<!-- Node51 -->
<g id="node2" class="node">
<title>Node51</title>
<g id="a_node2"><a xlink:href="vcpu_source.html" target="_top" xlink:title="l4/vcpu/vcpu">
<polygon fill="#ffffff" stroke="#000000" points="0,-73 0,-92 74,-92 74,-73 0,-73"/>
<text text-anchor="middle" x="37" y="-80" font-family="Helvetica,sans-Serif" font-size="10.00" fill="#000000">l4/vcpu/vcpu</text>
</a>
</g>
</g>
<!-- Node50&#45;&gt;Node51 -->
<g id="edge1" class="edge">
<title>Node50&#45;&gt;Node51</title>
<path fill="none" stroke="#191970" d="M510.7338,-143.1286C429.8337,-140.6798 239.0793,-131.5277 83,-98 76.079,-96.5133 68.7472,-94.3334 62.0194,-92.0753"/>
<polygon fill="#191970" stroke="#191970" points="510.8575,-146.6335 520.9531,-143.4195 511.0568,-139.6363 510.8575,-146.6335"/>
</g>
<!-- Node52 -->
<g id="node3" class="node">
<title>Node52</title>
<g id="a_node3"><a xlink:href="server_2l4virtio_source.html" target="_top" xlink:title="l4/l4virtio/server\l/l4virtio">
<polygon fill="#ffffff" stroke="#000000" points="92,-67.5 92,-97.5 184,-97.5 184,-67.5 92,-67.5"/>
<text text-anchor="start" x="100" y="-85.5" font-family="Helvetica,sans-Serif" font-size="10.00" fill="#000000">l4/l4virtio/server</text>
<text text-anchor="middle" x="138" y="-74.5" font-family="Helvetica,sans-Serif" font-size="10.00" fill="#000000">/l4virtio</text>
</a>
</g>
</g>
<!-- Node50&#45;&gt;Node52 -->
<g id="edge2" class="edge">
<title>Node50&#45;&gt;Node52</title>
<path fill="none" stroke="#191970" d="M510.6217,-140.8273C444.506,-135.0771 307.2038,-121.3191 193,-98 190.084,-97.4046 187.0961,-96.7359 184.0933,-96.0192"/>
<polygon fill="#191970" stroke="#191970" points="510.3452,-144.3163 520.6072,-141.6816 510.942,-137.3418 510.3452,-144.3163"/>
</g>
<!-- Node54 -->
<g id="node5" class="node">
<title>Node54</title>
<g id="a_node5"><a xlink:href="env__ns_source.html" target="_top" xlink:title="l4/re/util/env_ns">
<polygon fill="#ffffff" stroke="#000000" points="202.5,-73 202.5,-92 293.5,-92 293.5,-73 202.5,-73"/>
<text text-anchor="middle" x="248" y="-80" font-family="Helvetica,sans-Serif" font-size="10.00" fill="#000000">l4/re/util/env_ns</text>
</a>
</g>
</g>
<!-- Node50&#45;&gt;Node54 -->
<g id="edge4" class="edge">
<title>Node50&#45;&gt;Node54</title>
<path fill="none" stroke="#191970" d="M510.776,-137.8226C461.8645,-129.8612 375.8139,-115.0036 303,-98 295.4647,-96.2404 287.4153,-94.1141 279.8647,-92.0079"/>
<polygon fill="#191970" stroke="#191970" points="510.4926,-141.3221 520.9229,-139.4618 511.6091,-134.4117 510.4926,-141.3221"/>
</g>
<!-- Node56 -->
<g id="node7" class="node">
<title>Node56</title>
<g id="a_node7"><a xlink:href="ro__file__impl_8h_source.html" target="_top" xlink:title="l4/l4re_vfs/impl/ro\l_file_impl.h">
<polygon fill="#ffffff" stroke="#000000" points="312,-67.5 312,-97.5 412,-97.5 412,-67.5 312,-67.5"/>
<text text-anchor="start" x="320" y="-85.5" font-family="Helvetica,sans-Serif" font-size="10.00" fill="#000000">l4/l4re_vfs/impl/ro</text>
<text text-anchor="middle" x="362" y="-74.5" font-family="Helvetica,sans-Serif" font-size="10.00" fill="#000000">_file_impl.h</text>
</a>
</g>
</g>
<!-- Node50&#45;&gt;Node56 -->
<g id="edge6" class="edge">
<title>Node50&#45;&gt;Node56</title>
<path fill="none" stroke="#191970" d="M510.9357,-131.221C480.9772,-121.4207 439.549,-107.8684 407.99,-97.5446"/>
<polygon fill="#191970" stroke="#191970" points="510.0324,-134.6079 520.625,-134.3906 512.2088,-127.9549 510.0324,-134.6079"/>
</g>
<!-- Node57 -->
<g id="node8" class="node">
<title>Node57</title>
<g id="a_node8"><a xlink:href="vcon__stream__impl_8h_source.html" target="_top" xlink:title="l4/l4re_vfs/impl/vcon\l_stream_impl.h">
<polygon fill="#ffffff" stroke="#000000" points="430.5,-67.5 430.5,-97.5 543.5,-97.5 543.5,-67.5 430.5,-67.5"/>
<text text-anchor="start" x="438.5" y="-85.5" font-family="Helvetica,sans-Serif" font-size="10.00" fill="#000000">l4/l4re_vfs/impl/vcon</text>
<text text-anchor="middle" x="487" y="-74.5" font-family="Helvetica,sans-Serif" font-size="10.00" fill="#000000">_stream_impl.h</text>
</a>
</g>
</g>
<!-- Node50&#45;&gt;Node57 -->
<g id="edge7" class="edge">
<title>Node50&#45;&gt;Node57</title>
<path fill="none" stroke="#191970" d="M532.8006,-127.2101C523.3047,-117.9403 511.6077,-106.5218 502.4115,-97.5446"/>
<polygon fill="#191970" stroke="#191970" points="530.5556,-129.9097 540.1563,-134.3906 535.4454,-124.9007 530.5556,-129.9097"/>
</g>
<!-- Node58 -->
<g id="node9" class="node">
<title>Node58</title>
<g id="a_node9"><a xlink:href="vfs__impl_8h_source.html" target="_top" xlink:title="l4/l4re_vfs/impl/vfs\l_impl.h">
<polygon fill="#ffffff" stroke="#000000" points="562,-67.5 562,-97.5 666,-97.5 666,-67.5 562,-67.5"/>
<text text-anchor="start" x="570" y="-85.5" font-family="Helvetica,sans-Serif" font-size="10.00" fill="#000000">l4/l4re_vfs/impl/vfs</text>
<text text-anchor="middle" x="614" y="-74.5" font-family="Helvetica,sans-Serif" font-size="10.00" fill="#000000">_impl.h</text>
</a>
</g>
</g>
<!-- Node50&#45;&gt;Node58 -->
<g id="edge8" class="edge">
<title>Node50&#45;&gt;Node58</title>
<path fill="none" stroke="#191970" d="M567.4724,-127.2101C577.1191,-117.9403 589.0017,-106.5218 598.3438,-97.5446"/>
<polygon fill="#191970" stroke="#191970" points="564.7854,-124.9381 560,-134.3906 569.6356,-129.9854 564.7854,-124.9381"/>
</g>
<!-- Node59 -->
<g id="node10" class="node">
<title>Node59</title>
<g id="a_node10"><a xlink:href="util_2event.html" target="_top" xlink:title="l4/re/util/event">
<polygon fill="#ffffff" stroke="#000000" points="684.5,-73 684.5,-92 767.5,-92 767.5,-73 684.5,-73"/>
<text text-anchor="middle" x="726" y="-80" font-family="Helvetica,sans-Serif" font-size="10.00" fill="#000000">l4/re/util/event</text>
</a>
</g>
</g>
<!-- Node50&#45;&gt;Node59 -->
<g id="edge9" class="edge">
<title>Node50&#45;&gt;Node59</title>
<path fill="none" stroke="#191970" d="M587.3453,-130.9504C620.7103,-119.2916 668.8066,-102.4852 698.6931,-92.0419"/>
<polygon fill="#191970" stroke="#191970" points="585.7857,-127.7877 577.5,-134.3906 588.0948,-134.3959 585.7857,-127.7877"/>
</g>
<!-- Node60 -->
<g id="node11" class="node">
<title>Node60</title>
<g id="a_node11"><a xlink:href="icu__svr_source.html" target="_top" xlink:title="l4/re/util/icu_svr">
<polygon fill="#ffffff" stroke="#000000" points="785.5,-73 785.5,-92 874.5,-92 874.5,-73 785.5,-73"/>
<text text-anchor="middle" x="830" y="-80" font-family="Helvetica,sans-Serif" font-size="10.00" fill="#000000">l4/re/util/icu_svr</text>
</a>
</g>
</g>
<!-- Node50&#45;&gt;Node60 -->
<g id="edge10" class="edge">
<title>Node50&#45;&gt;Node60</title>
<path fill="none" stroke="#191970" d="M589.2222,-137.0944C634.6519,-128.8552 711.6304,-114.1514 777,-98 784.1663,-96.2294 791.8166,-94.1216 799.0112,-92.0397"/>
<polygon fill="#191970" stroke="#191970" points="588.4217,-133.6821 579.2006,-138.8997 589.6628,-140.5713 588.4217,-133.6821"/>
</g>
<!-- Node62 -->
<g id="node13" class="node">
<title>Node62</title>
<g id="a_node13"><a xlink:href="kumem__alloc.html" target="_top" xlink:title="Kumem allocator helper. ">
<polygon fill="#ffffff" stroke="#000000" points="892.5,-73 892.5,-92 1009.5,-92 1009.5,-73 892.5,-73"/>
<text text-anchor="middle" x="951" y="-80" font-family="Helvetica,sans-Serif" font-size="10.00" fill="#000000">l4/re/util/kumem_alloc</text>
</a>
</g>
</g>
<!-- Node50&#45;&gt;Node62 -->
<g id="edge12" class="edge">
<title>Node50&#45;&gt;Node62</title>
<path fill="none" stroke="#191970" d="M589.4027,-139.7436C652.0622,-132.7124 778.158,-117.4901 884,-98 893.276,-96.2919 903.2074,-94.1619 912.5063,-92.0332"/>
<polygon fill="#191970" stroke="#191970" points="588.7327,-136.2965 579.1811,-140.8809 589.5068,-143.2535 588.7327,-136.2965"/>
</g>
<!-- Node63 -->
<g id="node14" class="node">
<title>Node63</title>
<g id="a_node14"><a xlink:href="object__registry_source.html" target="_top" xlink:title="l4/re/util/object_registry">
<polygon fill="#ffffff" stroke="#000000" points="1027.5,-73 1027.5,-92 1152.5,-92 1152.5,-73 1027.5,-73"/>
<text text-anchor="middle" x="1090" y="-80" font-family="Helvetica,sans-Serif" font-size="10.00" fill="#000000">l4/re/util/object_registry</text>
</a>
</g>
</g>
<!-- Node50&#45;&gt;Node63 -->
<g id="edge13" class="edge">
<title>Node50&#45;&gt;Node63</title>
<path fill="none" stroke="#191970" d="M589.4644,-141.6966C670.3896,-136.6289 860.832,-122.9335 1019,-98 1029.2195,-96.389 1040.1767,-94.2197 1050.3506,-92.0152"/>
<polygon fill="#191970" stroke="#191970" points="589.0049,-138.2182 579.2394,-142.3272 589.4359,-145.2049 589.0049,-138.2182"/>
</g>
<!-- Node53 -->
<g id="node4" class="node">
<title>Node53</title>
<g id="a_node4"><a xlink:href="virtio-block_source.html" target="_top" xlink:title="l4/l4virtio/server\l/virtio&#45;block">
<polygon fill="#ffffff" stroke="#000000" points="90,-.5 90,-30.5 182,-30.5 182,-.5 90,-.5"/>
<text text-anchor="start" x="98" y="-18.5" font-family="Helvetica,sans-Serif" font-size="10.00" fill="#000000">l4/l4virtio/server</text>
<text text-anchor="middle" x="136" y="-7.5" font-family="Helvetica,sans-Serif" font-size="10.00" fill="#000000">/virtio&#45;block</text>
</a>
</g>
</g>
<!-- Node52&#45;&gt;Node53 -->
<g id="edge3" class="edge">
<title>Node52&#45;&gt;Node53</title>
<path fill="none" stroke="#191970" d="M137.2395,-57.0249C136.974,-48.128 136.6844,-38.4287 136.452,-30.6432"/>
<polygon fill="#191970" stroke="#191970" points="133.7493,-57.4056 137.5462,-67.2967 140.7461,-57.1967 133.7493,-57.4056"/>
</g>
<!-- Node55 -->
<g id="node6" class="node">
<title>Node55</title>
<g id="a_node6"><a xlink:href="ns__fs__impl_8h_source.html" target="_top" xlink:title="l4/l4re_vfs/impl/ns\l_fs_impl.h">
<polygon fill="#ffffff" stroke="#000000" points="200.5,-.5 200.5,-30.5 301.5,-30.5 301.5,-.5 200.5,-.5"/>
<text text-anchor="start" x="208.5" y="-18.5" font-family="Helvetica,sans-Serif" font-size="10.00" fill="#000000">l4/l4re_vfs/impl/ns</text>
<text text-anchor="middle" x="251" y="-7.5" font-family="Helvetica,sans-Serif" font-size="10.00" fill="#000000">_fs_impl.h</text>
</a>
</g>
</g>
<!-- Node54&#45;&gt;Node55 -->
<g id="edge5" class="edge">
<title>Node54&#45;&gt;Node55</title>
<path fill="none" stroke="#191970" d="M248.8832,-62.7758C249.3449,-52.4641 249.901,-40.0437 250.3274,-30.5218"/>
<polygon fill="#191970" stroke="#191970" points="245.3807,-62.754 248.4298,-72.9005 252.3737,-63.0671 245.3807,-62.754"/>
</g>
<!-- Node61 -->
<g id="node12" class="node">
<title>Node61</title>
<g id="a_node12"><a xlink:href="event__svr_source.html" target="_top" xlink:title="l4/re/util/event_svr">
<polygon fill="#ffffff" stroke="#000000" points="778.5,-6 778.5,-25 881.5,-25 881.5,-6 778.5,-6"/>
<text text-anchor="middle" x="830" y="-13" font-family="Helvetica,sans-Serif" font-size="10.00" fill="#000000">l4/re/util/event_svr</text>
</a>
</g>
</g>
<!-- Node60&#45;&gt;Node61 -->
<g id="edge11" class="edge">
<title>Node60&#45;&gt;Node61</title>
<path fill="none" stroke="#191970" d="M830,-62.6079C830,-50.214 830,-34.8263 830,-25.0817"/>
<polygon fill="#191970" stroke="#191970" points="826.5001,-62.9005 830,-72.9005 833.5001,-62.9006 826.5001,-62.9005"/>
</g>
</g>
</svg>
