<?xml version="1.0" encoding="UTF-8" standalone="no"?>
<!DOCTYPE svg PUBLIC "-//W3C//DTD SVG 1.1//EN"
 "http://www.w3.org/Graphics/SVG/1.1/DTD/svg11.dtd">
<!-- Generated by graphviz version 2.40.1 (20161225.0304)
 -->
<!-- Title: l4/re/error_helper Pages: 1 -->
<svg width="232pt" height="162pt"
 viewBox="0.00 0.00 231.50 162.00" xmlns="http://www.w3.org/2000/svg" xmlns:xlink="http://www.w3.org/1999/xlink">
<g id="graph0" class="graph" transform="scale(1 1) rotate(0) translate(4 158)">
<title>l4/re/error_helper</title>
<polygon fill="#ffffff" stroke="transparent" points="-4,4 -4,-158 227.5,-158 227.5,4 -4,4"/>
<!-- Node32 -->
<g id="node1" class="node">
<title>Node32</title>
<polygon fill="#bfbfbf" stroke="#000000" points="56,-134.5 56,-153.5 156,-153.5 156,-134.5 56,-134.5"/>
<text text-anchor="middle" x="106" y="-141.5" font-family="Helvetica,sans-Serif" font-size="10.00" fill="#000000">l4/re/error_helper</text>
</g>
<!-- Node33 -->
<g id="node2" class="node">
<title>Node33</title>
<g id="a_node2"><a xlink:href="server_2l4virtio_source.html" target="_top" xlink:title="l4/l4virtio/server\l/l4virtio">
<polygon fill="#ffffff" stroke="#000000" points="0,-67.5 0,-97.5 92,-97.5 92,-67.5 0,-67.5"/>
<text text-anchor="start" x="8" y="-85.5" font-family="Helvetica,sans-Serif" font-size="10.00" fill="#000000">l4/l4virtio/server</text>
<text text-anchor="middle" x="46" y="-74.5" font-family="Helvetica,sans-Serif" font-size="10.00" fill="#000000">/l4virtio</text>
</a>
</g>
</g>
<!-- Node32&#45;&gt;Node33 -->
<g id="edge1" class="edge">
<title>Node32&#45;&gt;Node33</title>
<path fill="none" stroke="#191970" d="M89.6196,-127.2101C80.5759,-117.9403 69.4359,-106.5218 60.6777,-97.5446"/>
<polygon fill="#191970" stroke="#191970" points="87.1365,-129.6769 96.625,-134.3906 92.147,-124.7886 87.1365,-129.6769"/>
</g>
<!-- Node35 -->
<g id="node4" class="node">
<title>Node35</title>
<g id="a_node4"><a xlink:href="mem__alloc__impl_8h.html" target="_top" xlink:title="Memory allocator client stub implementation. ">
<polygon fill="#ffffff" stroke="#000000" points="110.5,-67.5 110.5,-97.5 223.5,-97.5 223.5,-67.5 110.5,-67.5"/>
<text text-anchor="start" x="118.5" y="-85.5" font-family="Helvetica,sans-Serif" font-size="10.00" fill="#000000">l4/re/impl/mem_alloc</text>
<text text-anchor="middle" x="167" y="-74.5" font-family="Helvetica,sans-Serif" font-size="10.00" fill="#000000">_impl.h</text>
</a>
</g>
</g>
<!-- Node32&#45;&gt;Node35 -->
<g id="edge3" class="edge">
<title>Node32&#45;&gt;Node35</title>
<path fill="none" stroke="#191970" d="M122.6534,-127.2101C131.8479,-117.9403 143.1735,-106.5218 152.0777,-97.5446"/>
<polygon fill="#191970" stroke="#191970" points="120.0885,-124.826 115.5313,-134.3906 125.0584,-129.7555 120.0885,-124.826"/>
</g>
<!-- Node34 -->
<g id="node3" class="node">
<title>Node34</title>
<g id="a_node3"><a xlink:href="virtio-block_source.html" target="_top" xlink:title="l4/l4virtio/server\l/virtio&#45;block">
<polygon fill="#ffffff" stroke="#000000" points="0,-.5 0,-30.5 92,-30.5 92,-.5 0,-.5"/>
<text text-anchor="start" x="8" y="-18.5" font-family="Helvetica,sans-Serif" font-size="10.00" fill="#000000">l4/l4virtio/server</text>
<text text-anchor="middle" x="46" y="-7.5" font-family="Helvetica,sans-Serif" font-size="10.00" fill="#000000">/virtio&#45;block</text>
</a>
</g>
</g>
<!-- Node33&#45;&gt;Node34 -->
<g id="edge2" class="edge">
<title>Node33&#45;&gt;Node34</title>
<path fill="none" stroke="#191970" d="M46,-57.0249C46,-48.128 46,-38.4287 46,-30.6432"/>
<polygon fill="#191970" stroke="#191970" points="42.5001,-57.2966 46,-67.2967 49.5001,-57.2967 42.5001,-57.2966"/>
</g>
</g>
</svg>
