<?xml version="1.0" encoding="UTF-8" standalone="no"?>
<!DOCTYPE svg PUBLIC "-//W3C//DTD SVG 1.1//EN"
 "http://www.w3.org/Graphics/SVG/1.1/DTD/svg11.dtd">
<!-- Generated by graphviz version 2.40.1 (20161225.0304)
 -->
<!-- Title: l4/re/error_helper Pages: 1 -->
<svg width="1099pt" height="823pt"
 viewBox="0.00 0.00 1098.61 823.00" xmlns="http://www.w3.org/2000/svg" xmlns:xlink="http://www.w3.org/1999/xlink">
<g id="graph0" class="graph" transform="scale(1 1) rotate(0) translate(4 819)">
<title>l4/re/error_helper</title>
<polygon fill="#ffffff" stroke="transparent" points="-4,4 -4,-819 1094.6137,-819 1094.6137,4 -4,4"/>
<!-- Node0 -->
<g id="node1" class="node">
<title>Node0</title>
<polygon fill="#bfbfbf" stroke="#000000" points="630.6137,-795.5 630.6137,-814.5 730.6137,-814.5 730.6137,-795.5 630.6137,-795.5"/>
<text text-anchor="middle" x="680.6137" y="-802.5" font-family="Helvetica,sans-Serif" font-size="10.00" fill="#000000">l4/re/error_helper</text>
</g>
<!-- Node1 -->
<g id="node2" class="node">
<title>Node1</title>
<g id="a_node2"><a xlink:href="l4_2sys_2types_8h.html" target="_top" xlink:title="Common L4 ABI Data Types. ">
<polygon fill="#ffffff" stroke="#000000" points="268.6137,-168.5 268.6137,-187.5 348.6137,-187.5 348.6137,-168.5 268.6137,-168.5"/>
<text text-anchor="middle" x="308.6137" y="-175.5" font-family="Helvetica,sans-Serif" font-size="10.00" fill="#000000">l4/sys/types.h</text>
</a>
</g>
</g>
<!-- Node0&#45;&gt;Node1 -->
<g id="edge1" class="edge">
<title>Node0&#45;&gt;Node1</title>
<path fill="none" stroke="#191970" d="M630.5516,-802.2835C554.3274,-797.4661 404.9001,-785.3413 280.6137,-759 199.0672,-741.717 175.2035,-742.1548 101.6137,-703 66.4409,-684.2856 48.8727,-682.9094 31.6137,-647 -55.9428,-464.8276 50.9467,-362.0122 198.6137,-224 215.3899,-208.3207 238.2819,-197.5924 258.8393,-190.4684"/>
<polygon fill="#191970" stroke="#191970" points="259.9763,-193.7791 268.3972,-187.3496 257.8047,-187.1244 259.9763,-193.7791"/>
</g>
<!-- Node8 -->
<g id="node9" class="node">
<title>Node8</title>
<g id="a_node9"><a xlink:href="exceptions.html" target="_top" xlink:title="Base exceptions. ">
<polygon fill="#ffffff" stroke="#000000" points="289.6137,-739.5 289.6137,-758.5 387.6137,-758.5 387.6137,-739.5 289.6137,-739.5"/>
<text text-anchor="middle" x="338.6137" y="-746.5" font-family="Helvetica,sans-Serif" font-size="10.00" fill="#000000">l4/cxx/exceptions</text>
</a>
</g>
</g>
<!-- Node0&#45;&gt;Node8 -->
<g id="edge12" class="edge">
<title>Node0&#45;&gt;Node8</title>
<path fill="none" stroke="#191970" d="M630.5177,-796.7971C568.7021,-786.6753 463.7294,-769.4868 397.9433,-758.7148"/>
<polygon fill="#191970" stroke="#191970" points="398.1683,-755.2051 387.7341,-757.0431 397.0371,-762.1131 398.1683,-755.2051"/>
</g>
<!-- Node11 -->
<g id="node12" class="node">
<title>Node11</title>
<g id="a_node12"><a xlink:href="err_8h.html" target="_top" xlink:title="Error codes. ">
<polygon fill="#ffffff" stroke="#000000" points="786.6137,-224.5 786.6137,-243.5 854.6137,-243.5 854.6137,-224.5 786.6137,-224.5"/>
<text text-anchor="middle" x="820.6137" y="-231.5" font-family="Helvetica,sans-Serif" font-size="10.00" fill="#000000">l4/sys/err.h</text>
</a>
</g>
</g>
<!-- Node0&#45;&gt;Node11 -->
<g id="edge71" class="edge">
<title>Node0&#45;&gt;Node11</title>
<path fill="none" stroke="#191970" d="M730.7584,-796.0368C812.782,-779.933 966.6137,-743.0582 966.6137,-693 966.6137,-693 966.6137,-693 966.6137,-351.5 966.6137,-297.2037 904.5732,-263.7658 861.3769,-247.0648"/>
<polygon fill="#191970" stroke="#191970" points="862.5274,-243.7586 851.9344,-243.5609 860.0921,-250.3213 862.5274,-243.7586"/>
</g>
<!-- Node30 -->
<g id="node31" class="node">
<title>Node30</title>
<g id="a_node31"><a xlink:href="type__traits_source.html" target="_top" xlink:title="l4/cxx/type_traits">
<polygon fill="#ffffff" stroke="#000000" points="994.6137,-739.5 994.6137,-758.5 1090.6137,-758.5 1090.6137,-739.5 994.6137,-739.5"/>
<text text-anchor="middle" x="1042.6137" y="-746.5" font-family="Helvetica,sans-Serif" font-size="10.00" fill="#000000">l4/cxx/type_traits</text>
</a>
</g>
</g>
<!-- Node0&#45;&gt;Node30 -->
<g id="edge69" class="edge">
<title>Node0&#45;&gt;Node30</title>
<path fill="none" stroke="#191970" d="M730.7936,-797.4275C790.3847,-788.4065 892.7761,-772.8177 980.6137,-759 981.886,-758.7999 983.1729,-758.5969 984.4703,-758.3918"/>
<polygon fill="#191970" stroke="#191970" points="985.2291,-761.8152 994.5559,-756.789 984.1304,-754.902 985.2291,-761.8152"/>
</g>
<!-- Node2 -->
<g id="node3" class="node">
<title>Node2</title>
<g id="a_node3"><a xlink:href="l4_2sys_2l4int_8h.html" target="_top" xlink:title="Fixed sized integer types, generic version. ">
<polygon fill="#ffffff" stroke="#000000" points="320.6137,-56.5 320.6137,-75.5 394.6137,-75.5 394.6137,-56.5 320.6137,-56.5"/>
<text text-anchor="middle" x="357.6137" y="-63.5" font-family="Helvetica,sans-Serif" font-size="10.00" fill="#000000">l4/sys/l4int.h</text>
</a>
</g>
</g>
<!-- Node1&#45;&gt;Node2 -->
<g id="edge2" class="edge">
<title>Node1&#45;&gt;Node2</title>
<path fill="none" stroke="#191970" d="M312.7915,-168.4509C320.8918,-149.936 338.8629,-108.8591 349.4243,-84.7187"/>
<polygon fill="#191970" stroke="#191970" points="352.6449,-86.0894 353.4466,-75.5249 346.2318,-83.2836 352.6449,-86.0894"/>
</g>
<!-- Node3 -->
<g id="node4" class="node">
<title>Node3</title>
<g id="a_node4"><a xlink:href="compiler_8h.html" target="_top" xlink:title="L4 compiler related defines. ">
<polygon fill="#ffffff" stroke="#000000" points="616.1137,-56.5 616.1137,-75.5 711.1137,-75.5 711.1137,-56.5 616.1137,-56.5"/>
<text text-anchor="middle" x="663.6137" y="-63.5" font-family="Helvetica,sans-Serif" font-size="10.00" fill="#000000">l4/sys/compiler.h</text>
</a>
</g>
</g>
<!-- Node1&#45;&gt;Node3 -->
<g id="edge3" class="edge">
<title>Node1&#45;&gt;Node3</title>
<path fill="none" stroke="#191970" d="M348.6915,-176.4887C423.5835,-172.9773 581.209,-162.135 625.6137,-132 641.7918,-121.0208 651.959,-100.7038 657.6615,-85.5"/>
<polygon fill="#191970" stroke="#191970" points="660.9968,-86.5633 660.9151,-75.9688 654.3721,-84.3019 660.9968,-86.5633"/>
</g>
<!-- Node5 -->
<g id="node6" class="node">
<title>Node5</title>
<g id="a_node6"><a xlink:href="l4_2sys_2consts_8h.html" target="_top" xlink:title="Common constants. ">
<polygon fill="#ffffff" stroke="#000000" points="404.6137,-112.5 404.6137,-131.5 490.6137,-131.5 490.6137,-112.5 404.6137,-112.5"/>
<text text-anchor="middle" x="447.6137" y="-119.5" font-family="Helvetica,sans-Serif" font-size="10.00" fill="#000000">l4/sys/consts.h</text>
</a>
</g>
</g>
<!-- Node1&#45;&gt;Node5 -->
<g id="edge5" class="edge">
<title>Node1&#45;&gt;Node5</title>
<path fill="none" stroke="#191970" d="M332.5087,-168.3733C355.122,-159.2629 389.2679,-145.5062 414.501,-135.3404"/>
<polygon fill="#191970" stroke="#191970" points="416.063,-138.4845 424.0306,-131.5011 413.4471,-131.9917 416.063,-138.4845"/>
</g>
<!-- Node6 -->
<g id="node7" class="node">
<title>Node6</title>
<g id="a_node7"><a xlink:href="____l4__fpage_8h_source.html" target="_top" xlink:title="l4/sys/__l4_fpage.h">
<polygon fill="#ffffff" stroke="#000000" points="508.6137,-112.5 508.6137,-131.5 616.6137,-131.5 616.6137,-112.5 508.6137,-112.5"/>
<text text-anchor="middle" x="562.6137" y="-119.5" font-family="Helvetica,sans-Serif" font-size="10.00" fill="#000000">l4/sys/__l4_fpage.h</text>
</a>
</g>
</g>
<!-- Node1&#45;&gt;Node6 -->
<g id="edge8" class="edge">
<title>Node1&#45;&gt;Node6</title>
<path fill="none" stroke="#191970" d="M348.8608,-169.1266C392.2186,-159.5674 461.4173,-144.311 509.28,-133.7586"/>
<polygon fill="#191970" stroke="#191970" points="510.1407,-137.153 519.1526,-131.582 508.6335,-130.3172 510.1407,-137.153"/>
</g>
<!-- Node7 -->
<g id="node8" class="node">
<title>Node7</title>
<g id="a_node8"><a xlink:href="____timeout_8h_source.html" target="_top" xlink:title="l4/sys/__timeout.h">
<polygon fill="#ffffff" stroke="#000000" points="209.1137,-112.5 209.1137,-131.5 310.1137,-131.5 310.1137,-112.5 209.1137,-112.5"/>
<text text-anchor="middle" x="259.6137" y="-119.5" font-family="Helvetica,sans-Serif" font-size="10.00" fill="#000000">l4/sys/__timeout.h</text>
</a>
</g>
</g>
<!-- Node1&#45;&gt;Node7 -->
<g id="edge10" class="edge">
<title>Node1&#45;&gt;Node7</title>
<path fill="none" stroke="#191970" d="M300.0786,-168.2455C293.1226,-160.2958 283.1255,-148.8706 274.8086,-139.3656"/>
<polygon fill="#191970" stroke="#191970" points="277.2702,-136.8637 268.0511,-131.6427 272.0021,-141.4732 277.2702,-136.8637"/>
</g>
<!-- Node4 -->
<g id="node5" class="node">
<title>Node4</title>
<polygon fill="#ffffff" stroke="#bfbfbf" points="619.1137,-.5 619.1137,-19.5 708.1137,-19.5 708.1137,-.5 619.1137,-.5"/>
<text text-anchor="middle" x="663.6137" y="-7.5" font-family="Helvetica,sans-Serif" font-size="10.00" fill="#000000">l4/sys/linkage.h</text>
</g>
<!-- Node3&#45;&gt;Node4 -->
<g id="edge4" class="edge">
<title>Node3&#45;&gt;Node4</title>
<path fill="none" stroke="#191970" d="M663.6137,-56.2455C663.6137,-48.9382 663.6137,-38.6944 663.6137,-29.7046"/>
<polygon fill="#191970" stroke="#191970" points="667.1138,-29.6426 663.6137,-19.6427 660.1138,-29.6427 667.1138,-29.6426"/>
</g>
<!-- Node5&#45;&gt;Node2 -->
<g id="edge7" class="edge">
<title>Node5&#45;&gt;Node2</title>
<path fill="none" stroke="#191970" d="M431.9369,-112.2455C418.1282,-103.6534 397.7945,-91.0014 381.8845,-81.1018"/>
<polygon fill="#191970" stroke="#191970" points="383.4506,-77.954 373.1109,-75.6427 379.7524,-83.8974 383.4506,-77.954"/>
</g>
<!-- Node5&#45;&gt;Node3 -->
<g id="edge6" class="edge">
<title>Node5&#45;&gt;Node3</title>
<path fill="none" stroke="#191970" d="M484.7455,-112.3733C521.4404,-102.8598 577.6776,-88.2797 617.2789,-78.0127"/>
<polygon fill="#191970" stroke="#191970" points="618.165,-81.3988 626.9666,-75.5011 616.4082,-74.6228 618.165,-81.3988"/>
</g>
<!-- Node6&#45;&gt;Node3 -->
<g id="edge9" class="edge">
<title>Node6&#45;&gt;Node3</title>
<path fill="none" stroke="#191970" d="M580.2066,-112.2455C595.9928,-103.4928 619.3776,-90.527 637.3725,-80.5496"/>
<polygon fill="#191970" stroke="#191970" points="639.174,-83.5528 646.2225,-75.6427 635.7796,-77.4308 639.174,-83.5528"/>
</g>
<!-- Node7&#45;&gt;Node2 -->
<g id="edge11" class="edge">
<title>Node7&#45;&gt;Node2</title>
<path fill="none" stroke="#191970" d="M276.684,-112.2455C291.8608,-103.5731 314.2759,-90.7645 331.67,-80.825"/>
<polygon fill="#191970" stroke="#191970" points="333.7931,-83.643 340.7391,-75.6427 330.3201,-77.5653 333.7931,-83.643"/>
</g>
<!-- Node9 -->
<g id="node10" class="node">
<title>Node9</title>
<g id="a_node10"><a xlink:href="l4types_8h.html" target="_top" xlink:title="L4 Types. ">
<polygon fill="#ffffff" stroke="#000000" points="127.1137,-683.5 127.1137,-702.5 216.1137,-702.5 216.1137,-683.5 127.1137,-683.5"/>
<text text-anchor="middle" x="171.6137" y="-690.5" font-family="Helvetica,sans-Serif" font-size="10.00" fill="#000000">l4/cxx/l4types.h</text>
</a>
</g>
</g>
<!-- Node8&#45;&gt;Node9 -->
<g id="edge13" class="edge">
<title>Node8&#45;&gt;Node9</title>
<path fill="none" stroke="#191970" d="M309.9054,-739.3733C282.2561,-730.1016 240.2562,-716.0178 209.7972,-705.804"/>
<polygon fill="#191970" stroke="#191970" points="210.5414,-702.3621 199.9475,-702.5011 208.3158,-708.9989 210.5414,-702.3621"/>
</g>
<!-- Node10 -->
<g id="node11" class="node">
<title>Node10</title>
<g id="a_node11"><a xlink:href="basic__ostream.html" target="_top" xlink:title="Basic IO stream. ">
<polygon fill="#ffffff" stroke="#000000" points="41.1137,-627.5 41.1137,-646.5 156.1137,-646.5 156.1137,-627.5 41.1137,-627.5"/>
<text text-anchor="middle" x="98.6137" y="-634.5" font-family="Helvetica,sans-Serif" font-size="10.00" fill="#000000">l4/cxx/basic_ostream</text>
</a>
</g>
</g>
<!-- Node8&#45;&gt;Node10 -->
<g id="edge16" class="edge">
<title>Node8&#45;&gt;Node10</title>
<path fill="none" stroke="#191970" d="M289.5741,-744.664C232.2695,-738.6191 142.144,-725.7543 117.6137,-703 104.9354,-691.2395 100.5242,-671.6214 99.0822,-656.8233"/>
<polygon fill="#191970" stroke="#191970" points="102.5648,-656.4283 98.4705,-646.6566 95.5775,-656.8488 102.5648,-656.4283"/>
</g>
<!-- Node8&#45;&gt;Node11 -->
<g id="edge17" class="edge">
<title>Node8&#45;&gt;Node11</title>
<path fill="none" stroke="#191970" d="M387.6497,-744.8657C529.2286,-732.2769 928.6137,-691.8993 928.6137,-637 928.6137,-637 928.6137,-637 928.6137,-351.5 928.6137,-304.2163 880.6207,-267.7583 848.6207,-248.7047"/>
<polygon fill="#191970" stroke="#191970" points="850.0899,-245.5128 839.6734,-243.5774 846.6095,-251.5862 850.0899,-245.5128"/>
</g>
<!-- Node12 -->
<g id="node13" class="node">
<title>Node12</title>
<g id="a_node13"><a xlink:href="capability.html" target="_top" xlink:title="L4::Cap related definitions. ">
<polygon fill="#ffffff" stroke="#000000" points="349.6137,-683.5 349.6137,-702.5 439.6137,-702.5 439.6137,-683.5 349.6137,-683.5"/>
<text text-anchor="middle" x="394.6137" y="-690.5" font-family="Helvetica,sans-Serif" font-size="10.00" fill="#000000">l4/sys/capability</text>
</a>
</g>
</g>
<!-- Node8&#45;&gt;Node12 -->
<g id="edge19" class="edge">
<title>Node8&#45;&gt;Node12</title>
<path fill="none" stroke="#191970" d="M348.3682,-739.2455C356.4785,-731.1352 368.2062,-719.4075 377.8218,-709.7919"/>
<polygon fill="#191970" stroke="#191970" points="380.3749,-712.1887 384.9711,-702.6427 375.4251,-707.2389 380.3749,-712.1887"/>
</g>
<!-- Node28 -->
<g id="node29" class="node">
<title>Node28</title>
<g id="a_node29"><a xlink:href="backtrace_8h.html" target="_top" xlink:title="Backtrace. ">
<polygon fill="#ffffff" stroke="#000000" points="233.6137,-683.5 233.6137,-702.5 331.6137,-702.5 331.6137,-683.5 233.6137,-683.5"/>
<text text-anchor="middle" x="282.6137" y="-690.5" font-family="Helvetica,sans-Serif" font-size="10.00" fill="#000000">l4/util/backtrace.h</text>
</a>
</g>
</g>
<!-- Node8&#45;&gt;Node28 -->
<g id="edge67" class="edge">
<title>Node8&#45;&gt;Node28</title>
<path fill="none" stroke="#191970" d="M328.8593,-739.2455C320.749,-731.1352 309.0213,-719.4075 299.4057,-709.7919"/>
<polygon fill="#191970" stroke="#191970" points="301.8024,-707.2389 292.2564,-702.6427 296.8526,-712.1887 301.8024,-707.2389"/>
</g>
<!-- Node9&#45;&gt;Node1 -->
<g id="edge14" class="edge">
<title>Node9&#45;&gt;Node1</title>
<path fill="none" stroke="#191970" d="M173.4763,-683.455C177.0709,-664.1751 184.6137,-619.1712 184.6137,-581 184.6137,-581 184.6137,-581 184.6137,-290 184.6137,-241.6674 237.1369,-208.8067 273.8164,-191.7513"/>
<polygon fill="#191970" stroke="#191970" points="275.5133,-194.8269 283.2213,-187.5579 272.6627,-188.4336 275.5133,-194.8269"/>
</g>
<!-- Node9&#45;&gt;Node10 -->
<g id="edge15" class="edge">
<title>Node9&#45;&gt;Node10</title>
<path fill="none" stroke="#191970" d="M158.8981,-683.2455C148.0117,-674.8943 132.1255,-662.7076 119.3937,-652.9408"/>
<polygon fill="#191970" stroke="#191970" points="121.2483,-649.9523 111.1837,-646.6427 116.9877,-655.5063 121.2483,-649.9523"/>
</g>
<!-- Node11&#45;&gt;Node3 -->
<g id="edge18" class="edge">
<title>Node11&#45;&gt;Node3</title>
<path fill="none" stroke="#191970" d="M819.3937,-224.3975C816.0459,-201.842 804.7238,-144.9066 772.6137,-112 757.3276,-96.3346 735.8808,-85.7405 716.0509,-78.71"/>
<polygon fill="#191970" stroke="#191970" points="717.0735,-75.3618 706.4801,-75.5384 714.8715,-82.0064 717.0735,-75.3618"/>
</g>
<!-- Node12&#45;&gt;Node1 -->
<g id="edge21" class="edge">
<title>Node12&#45;&gt;Node1</title>
<path fill="none" stroke="#191970" d="M390.7247,-683.4982C373.341,-640.2769 303.1478,-457.5452 292.6137,-300 290.3585,-266.2712 290.0789,-257.3479 295.6137,-224 297.0876,-215.1198 299.6464,-205.5065 302.106,-197.3757"/>
<polygon fill="#191970" stroke="#191970" points="305.4792,-198.3178 305.1829,-187.7271 298.8101,-196.1911 305.4792,-198.3178"/>
</g>
<!-- Node12&#45;&gt;Node5 -->
<g id="edge20" class="edge">
<title>Node12&#45;&gt;Node5</title>
<path fill="none" stroke="#191970" d="M384.5353,-683.3684C334.463,-634.3111 118.0192,-407.395 198.6137,-224 213.4205,-190.3068 227.1642,-185.3636 259.6137,-168 301.7684,-145.4433 355.1399,-133.7506 394.2373,-127.8135"/>
<polygon fill="#191970" stroke="#191970" points="394.9595,-131.2457 404.3586,-126.3561 393.9618,-124.3172 394.9595,-131.2457"/>
</g>
<!-- Node13 -->
<g id="node14" class="node">
<title>Node13</title>
<g id="a_node14"><a xlink:href="kobject_source.html" target="_top" xlink:title="l4/sys/kobject">
<polygon fill="#ffffff" stroke="#000000" points="438.6137,-515.5 438.6137,-534.5 518.6137,-534.5 518.6137,-515.5 438.6137,-515.5"/>
<text text-anchor="middle" x="478.6137" y="-522.5" font-family="Helvetica,sans-Serif" font-size="10.00" fill="#000000">l4/sys/kobject</text>
</a>
</g>
</g>
<!-- Node12&#45;&gt;Node13 -->
<g id="edge22" class="edge">
<title>Node12&#45;&gt;Node13</title>
<path fill="none" stroke="#191970" d="M399.3706,-683.4862C412.764,-656.6994 450.9855,-580.2565 468.9993,-544.2289"/>
<polygon fill="#191970" stroke="#191970" points="472.3581,-545.3374 473.6998,-534.8279 466.0971,-542.2069 472.3581,-545.3374"/>
</g>
<!-- Node22 -->
<g id="node23" class="node">
<title>Node22</title>
<g id="a_node23"><a xlink:href="l4_2sys_2task_8h.html" target="_top" xlink:title="Common task related definitions. ">
<polygon fill="#ffffff" stroke="#000000" points="364.6137,-342 364.6137,-361 438.6137,-361 438.6137,-342 364.6137,-342"/>
<text text-anchor="middle" x="401.6137" y="-349" font-family="Helvetica,sans-Serif" font-size="10.00" fill="#000000">l4/sys/task.h</text>
</a>
</g>
</g>
<!-- Node12&#45;&gt;Node22 -->
<g id="edge50" class="edge">
<title>Node12&#45;&gt;Node22</title>
<path fill="none" stroke="#191970" d="M393.4675,-683.4281C391.2555,-664.0998 386.6137,-619.0133 386.6137,-581 386.6137,-581 386.6137,-581 386.6137,-469 386.6137,-434.3611 393.1074,-394.4372 397.5496,-371.1785"/>
<polygon fill="#191970" stroke="#191970" points="401.0172,-371.6851 399.5281,-361.1955 394.1507,-370.3242 401.0172,-371.6851"/>
</g>
<!-- Node23 -->
<g id="node24" class="node">
<title>Node23</title>
<g id="a_node24"><a xlink:href="sys_2meta.html" target="_top" xlink:title="Meta interface for getting dynamic type information about objects behind capabilities. ">
<polygon fill="#ffffff" stroke="#000000" points="502.6137,-627.5 502.6137,-646.5 572.6137,-646.5 572.6137,-627.5 502.6137,-627.5"/>
<text text-anchor="middle" x="537.6137" y="-634.5" font-family="Helvetica,sans-Serif" font-size="10.00" fill="#000000">l4/sys/meta</text>
</a>
</g>
</g>
<!-- Node12&#45;&gt;Node23 -->
<g id="edge51" class="edge">
<title>Node12&#45;&gt;Node23</title>
<path fill="none" stroke="#191970" d="M419.1963,-683.3733C442.5633,-674.2226 477.9,-660.3844 503.8922,-650.2057"/>
<polygon fill="#191970" stroke="#191970" points="505.3168,-653.4066 513.352,-646.5011 502.7642,-646.8886 505.3168,-653.4066"/>
</g>
<!-- Node13&#45;&gt;Node1 -->
<g id="edge36" class="edge">
<title>Node13&#45;&gt;Node1</title>
<path fill="none" stroke="#191970" d="M464.517,-515.4077C433.116,-493.2461 357.2283,-435.1385 319.6137,-367 288.6285,-310.8704 295.1006,-287.8766 300.6137,-224 301.3613,-215.3385 302.8866,-205.8607 304.4068,-197.7708"/>
<polygon fill="#191970" stroke="#191970" points="307.8704,-198.2991 306.4031,-187.8064 301.0068,-196.924 307.8704,-198.2991"/>
</g>
<!-- Node14 -->
<g id="node15" class="node">
<title>Node14</title>
<g id="a_node15"><a xlink:href="kernel__object_8h.html" target="_top" xlink:title="Kernel object system calls. ">
<polygon fill="#ffffff" stroke="#000000" points="452.6137,-403.5 452.6137,-422.5 540.6137,-422.5 540.6137,-403.5 452.6137,-403.5"/>
<text text-anchor="middle" x="496.6137" y="-410.5" font-family="Helvetica,sans-Serif" font-size="10.00" fill="#000000">kernel_object.h</text>
</a>
</g>
</g>
<!-- Node13&#45;&gt;Node14 -->
<g id="edge23" class="edge">
<title>Node13&#45;&gt;Node14</title>
<path fill="none" stroke="#191970" d="M480.1484,-515.4509C483.0842,-497.184 489.5495,-456.9553 493.4481,-432.6976"/>
<polygon fill="#191970" stroke="#191970" points="496.9518,-432.9536 495.083,-422.5249 490.0404,-431.8428 496.9518,-432.9536"/>
</g>
<!-- Node18 -->
<g id="node19" class="node">
<title>Node18</title>
<g id="a_node19"><a xlink:href="____typeinfo_8h.html" target="_top" xlink:title="Type information handling. ">
<polygon fill="#ffffff" stroke="#000000" points="506.6137,-459.5 506.6137,-478.5 580.6137,-478.5 580.6137,-459.5 506.6137,-459.5"/>
<text text-anchor="middle" x="543.6137" y="-466.5" font-family="Helvetica,sans-Serif" font-size="10.00" fill="#000000">__typeinfo.h</text>
</a>
</g>
</g>
<!-- Node13&#45;&gt;Node18 -->
<g id="edge37" class="edge">
<title>Node13&#45;&gt;Node18</title>
<path fill="none" stroke="#191970" d="M489.9359,-515.2455C499.5361,-506.9746 513.5029,-494.9416 524.7832,-485.2232"/>
<polygon fill="#191970" stroke="#191970" points="527.1297,-487.8214 532.4214,-478.6427 522.5608,-482.5182 527.1297,-487.8214"/>
</g>
<!-- Node14&#45;&gt;Node1 -->
<g id="edge24" class="edge">
<title>Node14&#45;&gt;Node1</title>
<path fill="none" stroke="#191970" d="M452.5679,-405.0335C412.7472,-396.9267 358.1952,-383.2633 343.6137,-367 300.6128,-319.0392 302.5601,-235.9484 306.1198,-197.9742"/>
<polygon fill="#191970" stroke="#191970" points="309.6325,-198.0448 307.2283,-187.7263 302.6731,-197.2919 309.6325,-198.0448"/>
</g>
<!-- Node14&#45;&gt;Node3 -->
<g id="edge25" class="edge">
<title>Node14&#45;&gt;Node3</title>
<path fill="none" stroke="#191970" d="M540.7077,-403.871C562.7736,-397.1597 588.208,-385.8181 604.6137,-367 675.748,-285.4056 654.2649,-239.2932 668.6137,-132 670.6637,-116.6719 669.1765,-99.2201 667.3047,-86.1135"/>
<polygon fill="#191970" stroke="#191970" points="670.6998,-85.1852 665.6399,-75.8767 663.7905,-86.3089 670.6998,-85.1852"/>
</g>
<!-- Node15 -->
<g id="node16" class="node">
<title>Node15</title>
<g id="a_node16"><a xlink:href="l4_2sys_2utcb_8h.html" target="_top" xlink:title="UTCB definitions. ">
<polygon fill="#ffffff" stroke="#000000" points="402.6137,-224.5 402.6137,-243.5 476.6137,-243.5 476.6137,-224.5 402.6137,-224.5"/>
<text text-anchor="middle" x="439.6137" y="-231.5" font-family="Helvetica,sans-Serif" font-size="10.00" fill="#000000">l4/sys/utcb.h</text>
</a>
</g>
</g>
<!-- Node14&#45;&gt;Node15 -->
<g id="edge26" class="edge">
<title>Node14&#45;&gt;Node15</title>
<path fill="none" stroke="#191970" d="M452.4844,-404.4747C415.6019,-396.3469 367.2202,-382.995 355.6137,-367 326.0196,-326.2159 382.7216,-275.1313 416.6975,-249.7808"/>
<polygon fill="#191970" stroke="#191970" points="419.143,-252.3309 425.1838,-243.6269 415.0336,-246.6641 419.143,-252.3309"/>
</g>
<!-- Node16 -->
<g id="node17" class="node">
<title>Node16</title>
<g id="a_node17"><a xlink:href="____kernel__object__impl_8h.html" target="_top" xlink:title="Low&#45;level kernel debugger functions. ">
<polygon fill="#ffffff" stroke="#000000" points="456.6137,-336.5 456.6137,-366.5 578.6137,-366.5 578.6137,-336.5 456.6137,-336.5"/>
<text text-anchor="start" x="464.6137" y="-354.5" font-family="Helvetica,sans-Serif" font-size="10.00" fill="#000000">l4/sys/__kernel_object</text>
<text text-anchor="middle" x="517.6137" y="-343.5" font-family="Helvetica,sans-Serif" font-size="10.00" fill="#000000">_impl.h</text>
</a>
</g>
</g>
<!-- Node14&#45;&gt;Node16 -->
<g id="edge30" class="edge">
<title>Node14&#45;&gt;Node16</title>
<path fill="none" stroke="#191970" d="M499.895,-403.3906C502.395,-396.0692 505.9532,-385.6488 509.2258,-376.0647"/>
<polygon fill="#191970" stroke="#191970" points="512.5573,-377.1391 512.4766,-366.5446 505.9328,-374.8771 512.5573,-377.1391"/>
</g>
<!-- Node17 -->
<g id="node18" class="node">
<title>Node17</title>
<g id="a_node18"><a xlink:href="l4_2sys_2ipc_8h.html" target="_top" xlink:title="Common IPC interface. ">
<polygon fill="#ffffff" stroke="#000000" points="468.6137,-280.5 468.6137,-299.5 536.6137,-299.5 536.6137,-280.5 468.6137,-280.5"/>
<text text-anchor="middle" x="502.6137" y="-287.5" font-family="Helvetica,sans-Serif" font-size="10.00" fill="#000000">l4/sys/ipc.h</text>
</a>
</g>
</g>
<!-- Node14&#45;&gt;Node17 -->
<g id="edge35" class="edge">
<title>Node14&#45;&gt;Node17</title>
<path fill="none" stroke="#191970" d="M536.481,-403.3369C555.4492,-396.5199 576.3926,-385.2455 587.6137,-367 594.8314,-355.2641 594.6664,-347.8359 587.6137,-336 578.4235,-320.5766 562.0664,-310.0102 546.139,-302.9349"/>
<polygon fill="#191970" stroke="#191970" points="547.45,-299.6897 536.8683,-299.1622 544.8114,-306.1734 547.45,-299.6897"/>
</g>
<!-- Node15&#45;&gt;Node1 -->
<g id="edge27" class="edge">
<title>Node15&#45;&gt;Node1</title>
<path fill="none" stroke="#191970" d="M417.094,-224.3733C395.8765,-215.3032 363.8861,-201.6279 340.1369,-191.4755"/>
<polygon fill="#191970" stroke="#191970" points="341.4104,-188.2136 330.8396,-187.5011 338.6589,-194.6502 341.4104,-188.2136"/>
</g>
<!-- Node15&#45;&gt;Node2 -->
<g id="edge29" class="edge">
<title>Node15&#45;&gt;Node2</title>
<path fill="none" stroke="#191970" d="M434.9701,-224.4862C421.8956,-197.6994 384.5842,-121.2565 366.9993,-85.2289"/>
<polygon fill="#191970" stroke="#191970" points="369.9424,-83.2793 362.4107,-75.8279 363.6518,-86.3498 369.9424,-83.2793"/>
</g>
<!-- Node15&#45;&gt;Node3 -->
<g id="edge28" class="edge">
<title>Node15&#45;&gt;Node3</title>
<path fill="none" stroke="#191970" d="M476.6638,-226.5067C524.2937,-214.8626 606.0358,-187.7074 649.6137,-132 659.8642,-118.8965 663.0499,-100.0172 663.8549,-85.8044"/>
<polygon fill="#191970" stroke="#191970" points="667.3584,-85.6808 664.0795,-75.6061 660.3601,-85.5266 667.3584,-85.6808"/>
</g>
<!-- Node16&#45;&gt;Node17 -->
<g id="edge31" class="edge">
<title>Node16&#45;&gt;Node17</title>
<path fill="none" stroke="#191970" d="M513.9059,-336.2977C511.9539,-328.2945 509.5368,-318.3843 507.4403,-309.7889"/>
<polygon fill="#191970" stroke="#191970" points="510.7854,-308.7328 505.0154,-299.8469 503.9848,-310.3915 510.7854,-308.7328"/>
</g>
<!-- Node17&#45;&gt;Node1 -->
<g id="edge32" class="edge">
<title>Node17&#45;&gt;Node1</title>
<path fill="none" stroke="#191970" d="M474.3296,-280.3819C451.7409,-272.1608 419.6681,-259.2582 393.6137,-244 368.9017,-229.5279 343.3095,-208.7248 326.7505,-194.3605"/>
<polygon fill="#191970" stroke="#191970" points="328.7843,-191.4877 318.9672,-187.5034 324.1569,-196.7401 328.7843,-191.4877"/>
</g>
<!-- Node17&#45;&gt;Node11 -->
<g id="edge34" class="edge">
<title>Node17&#45;&gt;Node11</title>
<path fill="none" stroke="#191970" d="M536.6453,-284.007C594.4719,-273.8237 711.8736,-253.1492 776.1286,-241.8339"/>
<polygon fill="#191970" stroke="#191970" points="777.1048,-245.2159 786.3462,-240.0345 775.8907,-238.322 777.1048,-245.2159"/>
</g>
<!-- Node17&#45;&gt;Node15 -->
<g id="edge33" class="edge">
<title>Node17&#45;&gt;Node15</title>
<path fill="none" stroke="#191970" d="M491.64,-280.2455C482.4255,-272.0549 469.0605,-260.1749 458.184,-250.5069"/>
<polygon fill="#191970" stroke="#191970" points="460.2612,-247.6704 450.4618,-243.6427 455.6106,-252.9023 460.2612,-247.6704"/>
</g>
<!-- Node19 -->
<g id="node20" class="node">
<title>Node19</title>
<g id="a_node20"><a xlink:href="types.html" target="_top" xlink:title="cxx/types">
<polygon fill="#ffffff" stroke="#000000" points="825.1137,-342 825.1137,-361 886.1137,-361 886.1137,-342 825.1137,-342"/>
<text text-anchor="middle" x="855.6137" y="-349" font-family="Helvetica,sans-Serif" font-size="10.00" fill="#000000">cxx/types</text>
</a>
</g>
</g>
<!-- Node18&#45;&gt;Node19 -->
<g id="edge38" class="edge">
<title>Node18&#45;&gt;Node19</title>
<path fill="none" stroke="#191970" d="M568.5509,-459.3361C591.2125,-450.3961 625.4588,-436.4898 654.6137,-423 672.2927,-414.82 675.603,-410.4208 693.6137,-403 734.0449,-386.3416 781.9441,-371.7141 815.1217,-362.3471"/>
<polygon fill="#191970" stroke="#191970" points="816.2298,-365.6717 824.921,-359.6126 814.3482,-358.9293 816.2298,-365.6717"/>
</g>
<!-- Node20 -->
<g id="node21" class="node">
<title>Node20</title>
<g id="a_node21"><a xlink:href="ipc__basics_source.html" target="_top" xlink:title="cxx/ipc_basics">
<polygon fill="#ffffff" stroke="#000000" points="702.6137,-403.5 702.6137,-422.5 786.6137,-422.5 786.6137,-403.5 702.6137,-403.5"/>
<text text-anchor="middle" x="744.6137" y="-410.5" font-family="Helvetica,sans-Serif" font-size="10.00" fill="#000000">cxx/ipc_basics</text>
</a>
</g>
</g>
<!-- Node18&#45;&gt;Node20 -->
<g id="edge39" class="edge">
<title>Node18&#45;&gt;Node20</title>
<path fill="none" stroke="#191970" d="M578.1669,-459.3733C612.0242,-449.9404 663.7597,-435.5265 700.5564,-425.2747"/>
<polygon fill="#191970" stroke="#191970" points="701.8178,-428.5566 710.5115,-422.5011 699.939,-421.8135 701.8178,-428.5566"/>
</g>
<!-- Node21 -->
<g id="node22" class="node">
<title>Node21</title>
<g id="a_node22"><a xlink:href="capability_8h_source.html" target="_top" xlink:title="cxx/capability.h">
<polygon fill="#ffffff" stroke="#000000" points="559.1137,-403.5 559.1137,-422.5 646.1137,-422.5 646.1137,-403.5 559.1137,-403.5"/>
<text text-anchor="middle" x="602.6137" y="-410.5" font-family="Helvetica,sans-Serif" font-size="10.00" fill="#000000">cxx/capability.h</text>
</a>
</g>
</g>
<!-- Node18&#45;&gt;Node21 -->
<g id="edge43" class="edge">
<title>Node18&#45;&gt;Node21</title>
<path fill="none" stroke="#191970" d="M553.8908,-459.2455C562.4356,-451.1352 574.7915,-439.4075 584.9223,-429.7919"/>
<polygon fill="#191970" stroke="#191970" points="587.6109,-432.0655 592.4545,-422.6427 582.7919,-426.9884 587.6109,-432.0655"/>
</g>
<!-- Node20&#45;&gt;Node11 -->
<g id="edge42" class="edge">
<title>Node20&#45;&gt;Node11</title>
<path fill="none" stroke="#191970" d="M751.2099,-403.4482C757.2953,-394.3585 766.3149,-380.1545 772.6137,-367 791.2595,-328.0601 806.9408,-279.8505 814.9304,-253.4871"/>
<polygon fill="#191970" stroke="#191970" points="818.37,-254.1997 817.8698,-243.6167 811.6612,-252.2018 818.37,-254.1997"/>
</g>
<!-- Node20&#45;&gt;Node15 -->
<g id="edge41" class="edge">
<title>Node20&#45;&gt;Node15</title>
<path fill="none" stroke="#191970" d="M732.0796,-403.4521C701.4091,-380.3544 619.6709,-320.3903 545.6137,-280 522.6557,-267.4789 495.5939,-255.7821 474.5603,-247.3168"/>
<polygon fill="#191970" stroke="#191970" points="475.6467,-243.9825 465.0608,-243.5475 473.065,-250.489 475.6467,-243.9825"/>
</g>
<!-- Node20&#45;&gt;Node19 -->
<g id="edge40" class="edge">
<title>Node20&#45;&gt;Node19</title>
<path fill="none" stroke="#191970" d="M761.9575,-403.3906C780.0411,-393.3713 808.5997,-377.5483 829.4302,-366.0071"/>
<polygon fill="#191970" stroke="#191970" points="831.3409,-368.9498 838.3918,-361.0419 827.9484,-362.8268 831.3409,-368.9498"/>
</g>
<!-- Node21&#45;&gt;Node1 -->
<g id="edge45" class="edge">
<title>Node21&#45;&gt;Node1</title>
<path fill="none" stroke="#191970" d="M605.3651,-403.2723C609.1004,-388.1706 614.2727,-358.4849 604.6137,-336 575.947,-269.2671 549.2616,-258.9858 485.6137,-224 445.939,-202.1917 395.5471,-190.4063 358.6864,-184.2444"/>
<polygon fill="#191970" stroke="#191970" points="359.0942,-180.7654 348.6687,-182.6519 357.9952,-187.6786 359.0942,-180.7654"/>
</g>
<!-- Node21&#45;&gt;Node5 -->
<g id="edge44" class="edge">
<title>Node21&#45;&gt;Node5</title>
<path fill="none" stroke="#191970" d="M622.8987,-403.4897C656.6366,-386.1037 720.6137,-345.7808 720.6137,-290 720.6137,-290 720.6137,-290 720.6137,-234 720.6137,-186.9598 580.1244,-149.7729 500.7101,-132.5101"/>
<polygon fill="#191970" stroke="#191970" points="501.3824,-129.0748 490.8714,-130.4052 499.9179,-135.9199 501.3824,-129.0748"/>
</g>
<!-- Node21&#45;&gt;Node22 -->
<g id="edge46" class="edge">
<title>Node21&#45;&gt;Node22</title>
<path fill="none" stroke="#191970" d="M569.247,-403.4793C537.7842,-394.4117 489.3585,-380.2226 447.6137,-367 444.827,-366.1173 441.9509,-365.1892 439.0608,-364.2443"/>
<polygon fill="#191970" stroke="#191970" points="439.8838,-360.8299 429.2904,-361.008 437.6827,-367.4749 439.8838,-360.8299"/>
</g>
<!-- Node22&#45;&gt;Node1 -->
<g id="edge47" class="edge">
<title>Node22&#45;&gt;Node1</title>
<path fill="none" stroke="#191970" d="M396.4812,-341.9248C381.6536,-314.2625 338.5568,-233.8614 318.7662,-196.9403"/>
<polygon fill="#191970" stroke="#191970" points="321.6542,-194.9197 313.8451,-187.7595 315.4847,-198.2267 321.6542,-194.9197"/>
</g>
<!-- Node22&#45;&gt;Node15 -->
<g id="edge48" class="edge">
<title>Node22&#45;&gt;Node15</title>
<path fill="none" stroke="#191970" d="M404.7234,-341.8845C410.9584,-322.6053 425.0941,-278.8963 433.3319,-253.4241"/>
<polygon fill="#191970" stroke="#191970" points="436.7141,-254.3402 436.4611,-243.7484 430.0537,-252.1862 436.7141,-254.3402"/>
</g>
<!-- Node22&#45;&gt;Node17 -->
<g id="edge49" class="edge">
<title>Node22&#45;&gt;Node17</title>
<path fill="none" stroke="#191970" d="M417.395,-341.8906C433.7012,-331.9616 459.3677,-316.333 478.2751,-304.8201"/>
<polygon fill="#191970" stroke="#191970" points="480.2224,-307.7322 486.9433,-299.5419 476.5818,-301.7533 480.2224,-307.7322"/>
</g>
<!-- Node23&#45;&gt;Node13 -->
<g id="edge52" class="edge">
<title>Node23&#45;&gt;Node13</title>
<path fill="none" stroke="#191970" d="M532.5834,-627.4509C522.7865,-608.8533 500.9979,-567.4919 488.3047,-543.3964"/>
<polygon fill="#191970" stroke="#191970" points="491.3887,-541.7411 483.6313,-534.5249 485.1955,-545.0036 491.3887,-541.7411"/>
</g>
<!-- Node24 -->
<g id="node25" class="node">
<title>Node24</title>
<g id="a_node25"><a xlink:href="ipc__iface.html" target="_top" xlink:title="Interface Definition Language. ">
<polygon fill="#ffffff" stroke="#000000" points="560.1137,-515.5 560.1137,-534.5 637.1137,-534.5 637.1137,-515.5 560.1137,-515.5"/>
<text text-anchor="middle" x="598.6137" y="-522.5" font-family="Helvetica,sans-Serif" font-size="10.00" fill="#000000">cxx/ipc_iface</text>
</a>
</g>
</g>
<!-- Node23&#45;&gt;Node24 -->
<g id="edge53" class="edge">
<title>Node23&#45;&gt;Node24</title>
<path fill="none" stroke="#191970" d="M542.8146,-627.4509C552.9436,-608.8533 575.4709,-567.4919 588.5943,-543.3964"/>
<polygon fill="#191970" stroke="#191970" points="591.7167,-544.9809 593.4261,-534.5249 585.5693,-541.6328 591.7167,-544.9809"/>
</g>
<!-- Node26 -->
<g id="node27" class="node">
<title>Node26</title>
<g id="a_node27"><a xlink:href="ipc__string_source.html" target="_top" xlink:title="cxx/ipc_string">
<polygon fill="#ffffff" stroke="#000000" points="762.1137,-571.5 762.1137,-590.5 843.1137,-590.5 843.1137,-571.5 762.1137,-571.5"/>
<text text-anchor="middle" x="802.6137" y="-578.5" font-family="Helvetica,sans-Serif" font-size="10.00" fill="#000000">cxx/ipc_string</text>
</a>
</g>
</g>
<!-- Node23&#45;&gt;Node26 -->
<g id="edge60" class="edge">
<title>Node23&#45;&gt;Node26</title>
<path fill="none" stroke="#191970" d="M572.8037,-629.5636C618.7369,-619.857 699.4426,-602.8022 751.9559,-591.7051"/>
<polygon fill="#191970" stroke="#191970" points="753.0037,-595.061 762.0639,-589.569 751.5563,-588.2123 753.0037,-595.061"/>
</g>
<!-- Node24&#45;&gt;Node18 -->
<g id="edge59" class="edge">
<title>Node24&#45;&gt;Node18</title>
<path fill="none" stroke="#191970" d="M589.0335,-515.2455C581.068,-507.1352 569.5497,-495.4075 560.1058,-485.7919"/>
<polygon fill="#191970" stroke="#191970" points="562.5884,-483.3247 553.0842,-478.6427 557.5943,-488.2297 562.5884,-483.3247"/>
</g>
<!-- Node24&#45;&gt;Node20 -->
<g id="edge54" class="edge">
<title>Node24&#45;&gt;Node20</title>
<path fill="none" stroke="#191970" d="M600.4698,-515.1312C603.6338,-500.8996 611.3732,-474.6129 627.6137,-459 645.4317,-441.8706 670.3801,-430.8946 692.664,-423.9799"/>
<polygon fill="#191970" stroke="#191970" points="693.7211,-427.3176 702.3501,-421.1701 691.7709,-420.5947 693.7211,-427.3176"/>
</g>
<!-- Node25 -->
<g id="node26" class="node">
<title>Node25</title>
<g id="a_node26"><a xlink:href="ipc__types.html" target="_top" xlink:title="l4/sys/cxx/ipc_types">
<polygon fill="#ffffff" stroke="#000000" points="636.6137,-459.5 636.6137,-478.5 746.6137,-478.5 746.6137,-459.5 636.6137,-459.5"/>
<text text-anchor="middle" x="691.6137" y="-466.5" font-family="Helvetica,sans-Serif" font-size="10.00" fill="#000000">l4/sys/cxx/ipc_types</text>
</a>
</g>
</g>
<!-- Node24&#45;&gt;Node25 -->
<g id="edge55" class="edge">
<title>Node24&#45;&gt;Node25</title>
<path fill="none" stroke="#191970" d="M614.8131,-515.2455C629.2155,-506.5731 650.487,-493.7645 666.9937,-483.825"/>
<polygon fill="#191970" stroke="#191970" points="668.8387,-486.7996 675.6,-478.6427 665.2277,-480.8028 668.8387,-486.7996"/>
</g>
<!-- Node25&#45;&gt;Node19 -->
<g id="edge57" class="edge">
<title>Node25&#45;&gt;Node19</title>
<path fill="none" stroke="#191970" d="M722.713,-459.4542C744.4867,-451.8073 773.5189,-439.6068 795.6137,-423 815.5383,-408.0244 833.1801,-385.2332 844.0896,-369.4241"/>
<polygon fill="#191970" stroke="#191970" points="847.0505,-371.2926 849.7013,-361.0347 841.2322,-367.4006 847.0505,-371.2926"/>
</g>
<!-- Node25&#45;&gt;Node20 -->
<g id="edge58" class="edge">
<title>Node25&#45;&gt;Node20</title>
<path fill="none" stroke="#191970" d="M700.8456,-459.2455C708.4455,-451.2155 719.4015,-439.6394 728.4505,-430.0781"/>
<polygon fill="#191970" stroke="#191970" points="731.1558,-432.3115 735.4876,-422.6427 726.0717,-427.4998 731.1558,-432.3115"/>
</g>
<!-- Node25&#45;&gt;Node21 -->
<g id="edge56" class="edge">
<title>Node25&#45;&gt;Node21</title>
<path fill="none" stroke="#191970" d="M676.1111,-459.2455C662.4558,-450.6534 642.348,-438.0014 626.6148,-428.1018"/>
<polygon fill="#191970" stroke="#191970" points="628.2666,-425.006 617.9387,-422.6427 624.5387,-430.9307 628.2666,-425.006"/>
</g>
<!-- Node26&#45;&gt;Node19 -->
<g id="edge61" class="edge">
<title>Node26&#45;&gt;Node19</title>
<path fill="none" stroke="#191970" d="M828.1399,-571.3698C843.7559,-563.9914 862.4426,-552.1364 871.6137,-535 900.4673,-481.0866 877.2897,-405.3338 863.7118,-370.4474"/>
<polygon fill="#191970" stroke="#191970" points="866.8811,-368.9492 859.8744,-361.002 860.3958,-371.584 866.8811,-368.9492"/>
</g>
<!-- Node26&#45;&gt;Node20 -->
<g id="edge62" class="edge">
<title>Node26&#45;&gt;Node20</title>
<path fill="none" stroke="#191970" d="M799.3292,-571.4862C790.1211,-544.8144 763.9166,-468.9117 751.4132,-432.695"/>
<polygon fill="#191970" stroke="#191970" points="754.5785,-431.1382 748.0067,-422.8279 747.9618,-433.4226 754.5785,-431.1382"/>
</g>
<!-- Node27 -->
<g id="node28" class="node">
<title>Node27</title>
<g id="a_node28"><a xlink:href="ipc__array_source.html" target="_top" xlink:title="ipc_array">
<polygon fill="#ffffff" stroke="#000000" points="801.1137,-515.5 801.1137,-534.5 862.1137,-534.5 862.1137,-515.5 801.1137,-515.5"/>
<text text-anchor="middle" x="831.6137" y="-522.5" font-family="Helvetica,sans-Serif" font-size="10.00" fill="#000000">ipc_array</text>
</a>
</g>
</g>
<!-- Node26&#45;&gt;Node27 -->
<g id="edge63" class="edge">
<title>Node26&#45;&gt;Node27</title>
<path fill="none" stroke="#191970" d="M807.6652,-571.2455C811.6156,-563.617 817.2235,-552.7881 822.0195,-543.5267"/>
<polygon fill="#191970" stroke="#191970" points="825.1296,-545.1321 826.6202,-534.6427 818.9136,-541.9131 825.1296,-545.1321"/>
</g>
<!-- Node27&#45;&gt;Node19 -->
<g id="edge64" class="edge">
<title>Node27&#45;&gt;Node19</title>
<path fill="none" stroke="#191970" d="M832.9383,-515.4248C836.732,-487.999 847.6969,-408.732 852.8615,-371.3964"/>
<polygon fill="#191970" stroke="#191970" points="856.3604,-371.6448 854.2637,-361.2595 849.4264,-370.6856 856.3604,-371.6448"/>
</g>
<!-- Node27&#45;&gt;Node20 -->
<g id="edge65" class="edge">
<title>Node27&#45;&gt;Node20</title>
<path fill="none" stroke="#191970" d="M826.0212,-515.2182C818.2833,-501.9836 803.5662,-477.8613 788.6137,-459 780.5191,-448.7892 770.5472,-438.2262 762.1444,-429.8014"/>
<polygon fill="#191970" stroke="#191970" points="764.5495,-427.2577 754.9675,-422.7369 759.6389,-432.2463 764.5495,-427.2577"/>
</g>
<!-- Node27&#45;&gt;Node25 -->
<g id="edge66" class="edge">
<title>Node27&#45;&gt;Node25</title>
<path fill="none" stroke="#191970" d="M807.5469,-515.3733C784.7709,-506.2629 750.3793,-492.5062 724.9647,-482.3404"/>
<polygon fill="#191970" stroke="#191970" points="725.9512,-478.9654 715.3666,-478.5011 723.3514,-485.4648 725.9512,-478.9654"/>
</g>
<!-- Node29 -->
<g id="node30" class="node">
<title>Node29</title>
<polygon fill="#ffffff" stroke="#bfbfbf" points="213.1137,-627.5 213.1137,-646.5 282.1137,-646.5 282.1137,-627.5 213.1137,-627.5"/>
<text text-anchor="middle" x="247.6137" y="-634.5" font-family="Helvetica,sans-Serif" font-size="10.00" fill="#000000">sys/cdefs.h</text>
</g>
<!-- Node28&#45;&gt;Node29 -->
<g id="edge68" class="edge">
<title>Node28&#45;&gt;Node29</title>
<path fill="none" stroke="#191970" d="M276.5172,-683.2455C271.6992,-675.5367 264.8386,-664.5598 259.0105,-655.2348"/>
<polygon fill="#191970" stroke="#191970" points="261.9085,-653.2677 253.6404,-646.6427 255.9725,-656.9777 261.9085,-653.2677"/>
</g>
<!-- Node31 -->
<g id="node32" class="node">
<title>Node31</title>
<g id="a_node32"><a xlink:href="type__traits_8h_source.html" target="_top" xlink:title="bits/type_traits.h">
<polygon fill="#ffffff" stroke="#000000" points="996.1137,-683.5 996.1137,-702.5 1089.1137,-702.5 1089.1137,-683.5 996.1137,-683.5"/>
<text text-anchor="middle" x="1042.6137" y="-690.5" font-family="Helvetica,sans-Serif" font-size="10.00" fill="#000000">bits/type_traits.h</text>
</a>
</g>
</g>
<!-- Node30&#45;&gt;Node31 -->
<g id="edge70" class="edge">
<title>Node30&#45;&gt;Node31</title>
<path fill="none" stroke="#191970" d="M1042.6137,-739.2455C1042.6137,-731.9382 1042.6137,-721.6944 1042.6137,-712.7046"/>
<polygon fill="#191970" stroke="#191970" points="1046.1138,-712.6426 1042.6137,-702.6427 1039.1138,-712.6427 1046.1138,-712.6426"/>
</g>
</g>
</svg>
