<?xml version="1.0" encoding="UTF-8" standalone="no"?>
<!DOCTYPE svg PUBLIC "-//W3C//DTD SVG 1.1//EN"
 "http://www.w3.org/Graphics/SVG/1.1/DTD/svg11.dtd">
<!-- Generated by graphviz version 2.40.1 (20161225.0304)
 -->
<!-- Title: l4/re/event.h Pages: 1 -->
<svg width="694pt" height="196pt"
 viewBox="0.00 0.00 694.00 196.00" xmlns="http://www.w3.org/2000/svg" xmlns:xlink="http://www.w3.org/1999/xlink">
<g id="graph0" class="graph" transform="scale(1 1) rotate(0) translate(4 192)">
<title>l4/re/event.h</title>
<polygon fill="#ffffff" stroke="transparent" points="-4,4 -4,-192 690,-192 690,4 -4,4"/>
<!-- Node4 -->
<g id="node1" class="node">
<title>Node4</title>
<polygon fill="#bfbfbf" stroke="#000000" points="134.5,-168.5 134.5,-187.5 209.5,-187.5 209.5,-168.5 134.5,-168.5"/>
<text text-anchor="middle" x="172" y="-175.5" font-family="Helvetica,sans-Serif" font-size="10.00" fill="#000000">l4/re/event.h</text>
</g>
<!-- Node5 -->
<g id="node2" class="node">
<title>Node5</title>
<g id="a_node2"><a xlink:href="c_2event_8h.html" target="_top" xlink:title="Event C interface. ">
<polygon fill="#ffffff" stroke="#000000" points="84.5,-112.5 84.5,-131.5 167.5,-131.5 167.5,-112.5 84.5,-112.5"/>
<text text-anchor="middle" x="126" y="-119.5" font-family="Helvetica,sans-Serif" font-size="10.00" fill="#000000">l4/re/c/event.h</text>
</a>
</g>
</g>
<!-- Node4&#45;&gt;Node5 -->
<g id="edge1" class="edge">
<title>Node4&#45;&gt;Node5</title>
<path fill="none" stroke="#191970" d="M157.6253,-160.5004C149.8029,-150.9775 140.424,-139.5596 133.9208,-131.6427"/>
<polygon fill="#191970" stroke="#191970" points="154.9354,-162.7399 163.9874,-168.2455 160.3445,-158.2967 154.9354,-162.7399"/>
</g>
<!-- Node7 -->
<g id="node4" class="node">
<title>Node7</title>
<g id="a_node4"><a xlink:href="event_source.html" target="_top" xlink:title="l4/re/event">
<polygon fill="#ffffff" stroke="#000000" points="253.5,-112.5 253.5,-131.5 320.5,-131.5 320.5,-112.5 253.5,-112.5"/>
<text text-anchor="middle" x="287" y="-119.5" font-family="Helvetica,sans-Serif" font-size="10.00" fill="#000000">l4/re/event</text>
</a>
</g>
</g>
<!-- Node4&#45;&gt;Node7 -->
<g id="edge3" class="edge">
<title>Node4&#45;&gt;Node7</title>
<path fill="none" stroke="#191970" d="M200.8033,-163.9741C221.625,-153.8348 249.1978,-140.408 267.4888,-131.5011"/>
<polygon fill="#191970" stroke="#191970" points="199.2276,-160.8484 191.7692,-168.3733 202.2922,-167.1419 199.2276,-160.8484"/>
</g>
<!-- Node6 -->
<g id="node3" class="node">
<title>Node6</title>
<g id="a_node3"><a xlink:href="event__buffer_8h_source.html" target="_top" xlink:title="l4/re/c/event_buffer.h">
<polygon fill="#ffffff" stroke="#000000" points="0,-56.5 0,-75.5 116,-75.5 116,-56.5 0,-56.5"/>
<text text-anchor="middle" x="58" y="-63.5" font-family="Helvetica,sans-Serif" font-size="10.00" fill="#000000">l4/re/c/event_buffer.h</text>
</a>
</g>
</g>
<!-- Node5&#45;&gt;Node6 -->
<g id="edge2" class="edge">
<title>Node5&#45;&gt;Node6</title>
<path fill="none" stroke="#191970" d="M106.1404,-105.645C94.3142,-95.9058 79.7108,-83.8795 69.709,-75.6427"/>
<polygon fill="#191970" stroke="#191970" points="104.211,-108.5902 114.1553,-112.2455 108.661,-103.1867 104.211,-108.5902"/>
</g>
<!-- Node8 -->
<g id="node5" class="node">
<title>Node8</title>
<g id="a_node5"><a xlink:href="console_source.html" target="_top" xlink:title="l4/re/console">
<polygon fill="#ffffff" stroke="#000000" points="134.5,-56.5 134.5,-75.5 211.5,-75.5 211.5,-56.5 134.5,-56.5"/>
<text text-anchor="middle" x="173" y="-63.5" font-family="Helvetica,sans-Serif" font-size="10.00" fill="#000000">l4/re/console</text>
</a>
</g>
</g>
<!-- Node7&#45;&gt;Node8 -->
<g id="edge4" class="edge">
<title>Node7&#45;&gt;Node8</title>
<path fill="none" stroke="#191970" d="M258.1679,-107.8368C237.5605,-97.7139 210.3918,-84.3679 192.3416,-75.5011"/>
<polygon fill="#191970" stroke="#191970" points="256.884,-111.1056 267.4027,-112.3733 259.9703,-104.8227 256.884,-111.1056"/>
</g>
<!-- Node9 -->
<g id="node6" class="node">
<title>Node9</title>
<g id="a_node6"><a xlink:href="event__buffer_source.html" target="_top" xlink:title="l4/re/util/event_buffer">
<polygon fill="#ffffff" stroke="#000000" points="229.5,-56.5 229.5,-75.5 344.5,-75.5 344.5,-56.5 229.5,-56.5"/>
<text text-anchor="middle" x="287" y="-63.5" font-family="Helvetica,sans-Serif" font-size="10.00" fill="#000000">l4/re/util/event_buffer</text>
</a>
</g>
</g>
<!-- Node7&#45;&gt;Node9 -->
<g id="edge5" class="edge">
<title>Node7&#45;&gt;Node9</title>
<path fill="none" stroke="#191970" d="M287,-102.1575C287,-93.155 287,-82.9199 287,-75.6427"/>
<polygon fill="#191970" stroke="#191970" points="283.5001,-102.2455 287,-112.2455 290.5001,-102.2456 283.5001,-102.2455"/>
</g>
<!-- Node11 -->
<g id="node8" class="node">
<title>Node11</title>
<g id="a_node8"><a xlink:href="event__svr_source.html" target="_top" xlink:title="l4/re/util/event_svr">
<polygon fill="#ffffff" stroke="#000000" points="362.5,-56.5 362.5,-75.5 465.5,-75.5 465.5,-56.5 362.5,-56.5"/>
<text text-anchor="middle" x="414" y="-63.5" font-family="Helvetica,sans-Serif" font-size="10.00" fill="#000000">l4/re/util/event_svr</text>
</a>
</g>
</g>
<!-- Node7&#45;&gt;Node11 -->
<g id="edge7" class="edge">
<title>Node7&#45;&gt;Node11</title>
<path fill="none" stroke="#191970" d="M318.1892,-108.2473C341.2537,-98.0771 372.0712,-84.4883 392.4528,-75.5011"/>
<polygon fill="#191970" stroke="#191970" points="316.5699,-105.1361 308.8321,-112.3733 319.3942,-111.5411 316.5699,-105.1361"/>
</g>
<!-- Node12 -->
<g id="node9" class="node">
<title>Node12</title>
<g id="a_node9"><a xlink:href="vbus_source.html" target="_top" xlink:title="l4/vbus/vbus">
<polygon fill="#ffffff" stroke="#000000" points="487.5,-56.5 487.5,-75.5 560.5,-75.5 560.5,-56.5 487.5,-56.5"/>
<text text-anchor="middle" x="524" y="-63.5" font-family="Helvetica,sans-Serif" font-size="10.00" fill="#000000">l4/vbus/vbus</text>
</a>
</g>
</g>
<!-- Node7&#45;&gt;Node12 -->
<g id="edge8" class="edge">
<title>Node7&#45;&gt;Node12</title>
<path fill="none" stroke="#191970" d="M330.4702,-111.7286C375.4636,-101.0972 444.9723,-84.6732 487.2962,-74.6726"/>
<polygon fill="#191970" stroke="#191970" points="329.6318,-108.3302 320.7046,-114.036 331.2415,-115.1426 329.6318,-108.3302"/>
</g>
<!-- Node10 -->
<g id="node7" class="node">
<title>Node10</title>
<g id="a_node7"><a xlink:href="util_2event.html" target="_top" xlink:title="l4/re/util/event">
<polygon fill="#ffffff" stroke="#000000" points="242.5,-.5 242.5,-19.5 325.5,-19.5 325.5,-.5 242.5,-.5"/>
<text text-anchor="middle" x="284" y="-7.5" font-family="Helvetica,sans-Serif" font-size="10.00" fill="#000000">l4/re/util/event</text>
</a>
</g>
</g>
<!-- Node9&#45;&gt;Node10 -->
<g id="edge6" class="edge">
<title>Node9&#45;&gt;Node10</title>
<path fill="none" stroke="#191970" d="M285.937,-46.1575C285.4547,-37.155 284.9064,-26.9199 284.5166,-19.6427"/>
<polygon fill="#191970" stroke="#191970" points="282.4474,-46.4471 286.4774,-56.2455 289.4374,-46.0726 282.4474,-46.4471"/>
</g>
<!-- Node13 -->
<g id="node10" class="node">
<title>Node13</title>
<g id="a_node10"><a xlink:href="vbus__generic_source.html" target="_top" xlink:title="l4/vbus/vbus_generic">
<polygon fill="#ffffff" stroke="#000000" points="344,-.5 344,-19.5 458,-19.5 458,-.5 344,-.5"/>
<text text-anchor="middle" x="401" y="-7.5" font-family="Helvetica,sans-Serif" font-size="10.00" fill="#000000">l4/vbus/vbus_generic</text>
</a>
</g>
</g>
<!-- Node12&#45;&gt;Node13 -->
<g id="edge9" class="edge">
<title>Node12&#45;&gt;Node13</title>
<path fill="none" stroke="#191970" d="M493.4935,-52.1109C471.1888,-41.9559 441.5201,-28.4482 421.8685,-19.5011"/>
<polygon fill="#191970" stroke="#191970" points="492.3041,-55.415 502.8555,-56.3733 495.2047,-49.0442 492.3041,-55.415"/>
</g>
<!-- Node14 -->
<g id="node11" class="node">
<title>Node14</title>
<g id="a_node11"><a xlink:href="vbus__gpio_source.html" target="_top" xlink:title="l4/vbus/vbus_gpio">
<polygon fill="#ffffff" stroke="#000000" points="476.5,-.5 476.5,-19.5 575.5,-19.5 575.5,-.5 476.5,-.5"/>
<text text-anchor="middle" x="526" y="-7.5" font-family="Helvetica,sans-Serif" font-size="10.00" fill="#000000">l4/vbus/vbus_gpio</text>
</a>
</g>
</g>
<!-- Node12&#45;&gt;Node14 -->
<g id="edge10" class="edge">
<title>Node12&#45;&gt;Node14</title>
<path fill="none" stroke="#191970" d="M524.7087,-46.1575C525.0302,-37.155 525.3957,-26.9199 525.6556,-19.6427"/>
<polygon fill="#191970" stroke="#191970" points="521.2076,-46.127 524.3484,-56.2455 528.2032,-46.3769 521.2076,-46.127"/>
</g>
<!-- Node15 -->
<g id="node12" class="node">
<title>Node15</title>
<g id="a_node12"><a xlink:href="vbus__pci_source.html" target="_top" xlink:title="l4/vbus/vbus_pci">
<polygon fill="#ffffff" stroke="#000000" points="594,-.5 594,-19.5 686,-19.5 686,-.5 594,-.5"/>
<text text-anchor="middle" x="640" y="-7.5" font-family="Helvetica,sans-Serif" font-size="10.00" fill="#000000">l4/vbus/vbus_pci</text>
</a>
</g>
</g>
<!-- Node12&#45;&gt;Node15 -->
<g id="edge11" class="edge">
<title>Node12&#45;&gt;Node15</title>
<path fill="none" stroke="#191970" d="M553.0537,-51.9741C574.0565,-41.8348 601.8691,-28.408 620.3191,-19.5011"/>
<polygon fill="#191970" stroke="#191970" points="551.425,-48.8738 543.9411,-56.3733 554.4683,-55.1776 551.425,-48.8738"/>
</g>
</g>
</svg>
