<?xml version="1.0" encoding="UTF-8" standalone="no"?>
<!DOCTYPE svg PUBLIC "-//W3C//DTD SVG 1.1//EN"
 "http://www.w3.org/Graphics/SVG/1.1/DTD/svg11.dtd">
<!-- Generated by graphviz version 2.40.1 (20161225.0304)
 -->
<!-- Title: l4/re/event.h Pages: 1 -->
<svg width="196pt" height="140pt"
 viewBox="0.00 0.00 195.50 140.00" xmlns="http://www.w3.org/2000/svg" xmlns:xlink="http://www.w3.org/1999/xlink">
<g id="graph0" class="graph" transform="scale(1 1) rotate(0) translate(4 136)">
<title>l4/re/event.h</title>
<polygon fill="#ffffff" stroke="transparent" points="-4,4 -4,-136 191.5,-136 191.5,4 -4,4"/>
<!-- Node0 -->
<g id="node1" class="node">
<title>Node0</title>
<polygon fill="#bfbfbf" stroke="#000000" points="61,-112.5 61,-131.5 136,-131.5 136,-112.5 61,-112.5"/>
<text text-anchor="middle" x="98.5" y="-119.5" font-family="Helvetica,sans-Serif" font-size="10.00" fill="#000000">l4/re/event.h</text>
</g>
<!-- Node1 -->
<g id="node2" class="node">
<title>Node1</title>
<g id="a_node2"><a xlink:href="compiler_8h.html" target="_top" xlink:title="L4 compiler related defines. ">
<polygon fill="#ffffff" stroke="#000000" points="0,-56.5 0,-75.5 95,-75.5 95,-56.5 0,-56.5"/>
<text text-anchor="middle" x="47.5" y="-63.5" font-family="Helvetica,sans-Serif" font-size="10.00" fill="#000000">l4/sys/compiler.h</text>
</a>
</g>
</g>
<!-- Node0&#45;&gt;Node1 -->
<g id="edge1" class="edge">
<title>Node0&#45;&gt;Node1</title>
<path fill="none" stroke="#191970" d="M89.6165,-112.2455C82.3034,-104.2155 71.7609,-92.6394 63.0533,-83.0781"/>
<polygon fill="#191970" stroke="#191970" points="65.6028,-80.6795 56.2817,-75.6427 60.4273,-85.3928 65.6028,-80.6795"/>
</g>
<!-- Node3 -->
<g id="node4" class="node">
<title>Node3</title>
<g id="a_node4"><a xlink:href="l4_2sys_2l4int_8h.html" target="_top" xlink:title="Fixed sized integer types, generic version. ">
<polygon fill="#ffffff" stroke="#000000" points="113.5,-56.5 113.5,-75.5 187.5,-75.5 187.5,-56.5 113.5,-56.5"/>
<text text-anchor="middle" x="150.5" y="-63.5" font-family="Helvetica,sans-Serif" font-size="10.00" fill="#000000">l4/sys/l4int.h</text>
</a>
</g>
</g>
<!-- Node0&#45;&gt;Node3 -->
<g id="edge3" class="edge">
<title>Node0&#45;&gt;Node3</title>
<path fill="none" stroke="#191970" d="M107.5577,-112.2455C115.0142,-104.2155 125.7634,-92.6394 134.6417,-83.0781"/>
<polygon fill="#191970" stroke="#191970" points="137.3063,-85.3522 141.5461,-75.6427 132.1768,-80.589 137.3063,-85.3522"/>
</g>
<!-- Node2 -->
<g id="node3" class="node">
<title>Node2</title>
<polygon fill="#ffffff" stroke="#bfbfbf" points="3,-.5 3,-19.5 92,-19.5 92,-.5 3,-.5"/>
<text text-anchor="middle" x="47.5" y="-7.5" font-family="Helvetica,sans-Serif" font-size="10.00" fill="#000000">l4/sys/linkage.h</text>
</g>
<!-- Node1&#45;&gt;Node2 -->
<g id="edge2" class="edge">
<title>Node1&#45;&gt;Node2</title>
<path fill="none" stroke="#191970" d="M47.5,-56.2455C47.5,-48.9382 47.5,-38.6944 47.5,-29.7046"/>
<polygon fill="#191970" stroke="#191970" points="51.0001,-29.6426 47.5,-19.6427 44.0001,-29.6427 51.0001,-29.6426"/>
</g>
</g>
</svg>
