<?xml version="1.0" encoding="UTF-8" standalone="no"?>
<!DOCTYPE svg PUBLIC "-//W3C//DTD SVG 1.1//EN"
 "http://www.w3.org/Graphics/SVG/1.1/DTD/svg11.dtd">
<!-- Generated by graphviz version 2.40.1 (20161225.0304)
 -->
<!-- Title: l4/sys/factory.h Pages: 1 -->
<svg width="1160pt" height="341pt"
 viewBox="0.00 0.00 1160.00 341.00" xmlns="http://www.w3.org/2000/svg" xmlns:xlink="http://www.w3.org/1999/xlink">
<g id="graph0" class="graph" transform="scale(1 1) rotate(0) translate(4 337)">
<title>l4/sys/factory.h</title>
<polygon fill="#ffffff" stroke="transparent" points="-4,4 -4,-337 1156,-337 1156,4 -4,4"/>
<!-- Node11 -->
<g id="node1" class="node">
<title>Node11</title>
<polygon fill="#bfbfbf" stroke="#000000" points="480,-313.5 480,-332.5 567,-332.5 567,-313.5 480,-313.5"/>
<text text-anchor="middle" x="523.5" y="-320.5" font-family="Helvetica,sans-Serif" font-size="10.00" fill="#000000">l4/sys/factory.h</text>
</g>
<!-- Node12 -->
<g id="node2" class="node">
<title>Node12</title>
<g id="a_node2"><a xlink:href="factory.html" target="_top" xlink:title="Common factory related definitions. ">
<polygon fill="#ffffff" stroke="#000000" points="484,-257.5 484,-276.5 563,-276.5 563,-257.5 484,-257.5"/>
<text text-anchor="middle" x="523.5" y="-264.5" font-family="Helvetica,sans-Serif" font-size="10.00" fill="#000000">l4/sys/factory</text>
</a>
</g>
</g>
<!-- Node11&#45;&gt;Node12 -->
<g id="edge1" class="edge">
<title>Node11&#45;&gt;Node12</title>
<path fill="none" stroke="#191970" d="M523.5,-303.1575C523.5,-294.155 523.5,-283.9199 523.5,-276.6427"/>
<polygon fill="#191970" stroke="#191970" points="520.0001,-303.2455 523.5,-313.2455 527.0001,-303.2456 520.0001,-303.2455"/>
</g>
<!-- Node13 -->
<g id="node3" class="node">
<title>Node13</title>
<g id="a_node3"><a xlink:href="mem__alloc.html" target="_top" xlink:title="Memory allocator interface. ">
<polygon fill="#ffffff" stroke="#000000" points="478,-201.5 478,-220.5 569,-220.5 569,-201.5 478,-201.5"/>
<text text-anchor="middle" x="523.5" y="-208.5" font-family="Helvetica,sans-Serif" font-size="10.00" fill="#000000">l4/re/mem_alloc</text>
</a>
</g>
</g>
<!-- Node12&#45;&gt;Node13 -->
<g id="edge2" class="edge">
<title>Node12&#45;&gt;Node13</title>
<path fill="none" stroke="#191970" d="M523.5,-247.1575C523.5,-238.155 523.5,-227.9199 523.5,-220.6427"/>
<polygon fill="#191970" stroke="#191970" points="520.0001,-247.2455 523.5,-257.2455 527.0001,-247.2456 520.0001,-247.2455"/>
</g>
<!-- Node21 -->
<g id="node11" class="node">
<title>Node21</title>
<g id="a_node11"><a xlink:href="vcon__stream__impl_8h_source.html" target="_top" xlink:title="l4/l4re_vfs/impl/vcon\l_stream_impl.h">
<polygon fill="#ffffff" stroke="#000000" points="0,-67.5 0,-97.5 113,-97.5 113,-67.5 0,-67.5"/>
<text text-anchor="start" x="8" y="-85.5" font-family="Helvetica,sans-Serif" font-size="10.00" fill="#000000">l4/l4re_vfs/impl/vcon</text>
<text text-anchor="middle" x="56.5" y="-74.5" font-family="Helvetica,sans-Serif" font-size="10.00" fill="#000000">_stream_impl.h</text>
</a>
</g>
</g>
<!-- Node12&#45;&gt;Node21 -->
<g id="edge18" class="edge">
<title>Node12&#45;&gt;Node21</title>
<path fill="none" stroke="#191970" d="M486.5227,-254.0392C461.1087,-245.0256 426.643,-232.5932 396.5,-221 284.6605,-177.9856 153.721,-123.4546 92.0504,-97.52"/>
<polygon fill="#191970" stroke="#191970" points="485.5388,-257.4035 496.1336,-257.4379 487.8727,-250.8041 485.5388,-257.4035"/>
</g>
<!-- Node23 -->
<g id="node13" class="node">
<title>Node23</title>
<g id="a_node13"><a xlink:href="util_2event.html" target="_top" xlink:title="l4/re/util/event">
<polygon fill="#ffffff" stroke="#000000" points="131,-73 131,-92 214,-92 214,-73 131,-73"/>
<text text-anchor="middle" x="172.5" y="-80" font-family="Helvetica,sans-Serif" font-size="10.00" fill="#000000">l4/re/util/event</text>
</a>
</g>
</g>
<!-- Node12&#45;&gt;Node23 -->
<g id="edge20" class="edge">
<title>Node12&#45;&gt;Node23</title>
<path fill="none" stroke="#191970" d="M496.1693,-252.6339C427.3626,-216.4662 248.3704,-122.3806 190.6952,-92.0641"/>
<polygon fill="#191970" stroke="#191970" points="494.6428,-255.7855 505.1229,-257.3402 497.8998,-249.5893 494.6428,-255.7855"/>
</g>
<!-- Node27 -->
<g id="node17" class="node">
<title>Node27</title>
<g id="a_node17"><a xlink:href="object__registry_source.html" target="_top" xlink:title="l4/re/util/object_registry">
<polygon fill="#ffffff" stroke="#000000" points="1027,-73 1027,-92 1152,-92 1152,-73 1027,-73"/>
<text text-anchor="middle" x="1089.5" y="-80" font-family="Helvetica,sans-Serif" font-size="10.00" fill="#000000">l4/re/util/object_registry</text>
</a>
</g>
</g>
<!-- Node12&#45;&gt;Node27 -->
<g id="edge21" class="edge">
<title>Node12&#45;&gt;Node27</title>
<path fill="none" stroke="#191970" d="M562.4813,-254.2932C669.395,-219.4423 965.5648,-122.8994 1060.0964,-92.0847"/>
<polygon fill="#191970" stroke="#191970" points="561.1616,-251.042 552.7388,-257.469 563.3311,-257.6974 561.1616,-251.042"/>
</g>
<!-- Node28 -->
<g id="node18" class="node">
<title>Node28</title>
<g id="a_node18"><a xlink:href="mem__alloc__impl_8h.html" target="_top" xlink:title="Memory allocator client stub implementation. ">
<polygon fill="#ffffff" stroke="#000000" points="559,-134.5 559,-164.5 672,-164.5 672,-134.5 559,-134.5"/>
<text text-anchor="start" x="567" y="-152.5" font-family="Helvetica,sans-Serif" font-size="10.00" fill="#000000">l4/re/impl/mem_alloc</text>
<text text-anchor="middle" x="615.5" y="-141.5" font-family="Helvetica,sans-Serif" font-size="10.00" fill="#000000">_impl.h</text>
</a>
</g>
</g>
<!-- Node12&#45;&gt;Node28 -->
<g id="edge19" class="edge">
<title>Node12&#45;&gt;Node28</title>
<path fill="none" stroke="#191970" d="M545.9395,-251.0161C556.3812,-242.8399 568.4604,-232.2504 577.5,-221 591.5878,-203.4667 602.9096,-179.9203 609.4199,-164.7262"/>
<polygon fill="#191970" stroke="#191970" points="543.5227,-248.4556 537.6563,-257.2781 547.7441,-254.0395 543.5227,-248.4556"/>
</g>
<!-- Node14 -->
<g id="node4" class="node">
<title>Node14</title>
<g id="a_node4"><a xlink:href="env.html" target="_top" xlink:title="Environment interface. ">
<polygon fill="#ffffff" stroke="#000000" points="482.5,-140 482.5,-159 540.5,-159 540.5,-140 482.5,-140"/>
<text text-anchor="middle" x="511.5" y="-147" font-family="Helvetica,sans-Serif" font-size="10.00" fill="#000000">l4/re/env</text>
</a>
</g>
</g>
<!-- Node13&#45;&gt;Node14 -->
<g id="edge3" class="edge">
<title>Node13&#45;&gt;Node14</title>
<path fill="none" stroke="#191970" d="M519.6456,-191.2462C517.5589,-180.5519 515.0735,-167.814 513.4014,-159.2449"/>
<polygon fill="#191970" stroke="#191970" points="516.2746,-192.246 521.625,-201.3906 523.145,-190.9054 516.2746,-192.246"/>
</g>
<!-- Node13&#45;&gt;Node28 -->
<g id="edge17" class="edge">
<title>Node13&#45;&gt;Node28</title>
<path fill="none" stroke="#191970" d="M546.5615,-195.5839C560.7664,-186.0882 578.8934,-173.9707 592.9943,-164.5446"/>
<polygon fill="#191970" stroke="#191970" points="544.2434,-192.9234 537.875,-201.3906 548.1337,-198.7429 544.2434,-192.9234"/>
</g>
<!-- Node15 -->
<g id="node5" class="node">
<title>Node15</title>
<g id="a_node5"><a xlink:href="vcpu_source.html" target="_top" xlink:title="l4/vcpu/vcpu">
<polygon fill="#ffffff" stroke="#000000" points="474.5,-73 474.5,-92 548.5,-92 548.5,-73 474.5,-73"/>
<text text-anchor="middle" x="511.5" y="-80" font-family="Helvetica,sans-Serif" font-size="10.00" fill="#000000">l4/vcpu/vcpu</text>
</a>
</g>
</g>
<!-- Node14&#45;&gt;Node15 -->
<g id="edge4" class="edge">
<title>Node14&#45;&gt;Node15</title>
<path fill="none" stroke="#191970" d="M511.5,-129.6079C511.5,-117.214 511.5,-101.8263 511.5,-92.0817"/>
<polygon fill="#191970" stroke="#191970" points="508.0001,-129.9005 511.5,-139.9005 515.0001,-129.9006 508.0001,-129.9005"/>
</g>
<!-- Node16 -->
<g id="node6" class="node">
<title>Node16</title>
<g id="a_node6"><a xlink:href="server_2l4virtio_source.html" target="_top" xlink:title="l4/l4virtio/server\l/l4virtio">
<polygon fill="#ffffff" stroke="#000000" points="566.5,-67.5 566.5,-97.5 658.5,-97.5 658.5,-67.5 566.5,-67.5"/>
<text text-anchor="start" x="574.5" y="-85.5" font-family="Helvetica,sans-Serif" font-size="10.00" fill="#000000">l4/l4virtio/server</text>
<text text-anchor="middle" x="612.5" y="-74.5" font-family="Helvetica,sans-Serif" font-size="10.00" fill="#000000">/l4virtio</text>
</a>
</g>
</g>
<!-- Node14&#45;&gt;Node16 -->
<g id="edge5" class="edge">
<title>Node14&#45;&gt;Node16</title>
<path fill="none" stroke="#191970" d="M534.5245,-134.2263C551.1039,-123.2281 573.3635,-108.4618 589.8553,-97.5218"/>
<polygon fill="#191970" stroke="#191970" points="532.3692,-131.4559 525.9708,-139.9005 536.2388,-137.2892 532.3692,-131.4559"/>
</g>
<!-- Node18 -->
<g id="node8" class="node">
<title>Node18</title>
<g id="a_node8"><a xlink:href="env__ns_source.html" target="_top" xlink:title="l4/re/util/env_ns">
<polygon fill="#ffffff" stroke="#000000" points="677,-73 677,-92 768,-92 768,-73 677,-73"/>
<text text-anchor="middle" x="722.5" y="-80" font-family="Helvetica,sans-Serif" font-size="10.00" fill="#000000">l4/re/util/env_ns</text>
</a>
</g>
</g>
<!-- Node14&#45;&gt;Node18 -->
<g id="edge7" class="edge">
<title>Node14&#45;&gt;Node18</title>
<path fill="none" stroke="#191970" d="M543.6537,-136.1303C545.6245,-135.39 547.5845,-134.674 549.5,-134 575.2919,-124.9253 646.3039,-104.2933 688.9044,-92.0763"/>
<polygon fill="#191970" stroke="#191970" points="541.9071,-133.0549 533.8652,-139.9527 544.4533,-139.5754 541.9071,-133.0549"/>
</g>
<!-- Node20 -->
<g id="node10" class="node">
<title>Node20</title>
<g id="a_node10"><a xlink:href="ro__file__impl_8h_source.html" target="_top" xlink:title="l4/l4re_vfs/impl/ro\l_file_impl.h">
<polygon fill="#ffffff" stroke="#000000" points="786.5,-67.5 786.5,-97.5 886.5,-97.5 886.5,-67.5 786.5,-67.5"/>
<text text-anchor="start" x="794.5" y="-85.5" font-family="Helvetica,sans-Serif" font-size="10.00" fill="#000000">l4/l4re_vfs/impl/ro</text>
<text text-anchor="middle" x="836.5" y="-74.5" font-family="Helvetica,sans-Serif" font-size="10.00" fill="#000000">_file_impl.h</text>
</a>
</g>
</g>
<!-- Node14&#45;&gt;Node20 -->
<g id="edge9" class="edge">
<title>Node14&#45;&gt;Node20</title>
<path fill="none" stroke="#191970" d="M542.0091,-136.3508C544.5195,-135.4851 547.0379,-134.6866 549.5,-134 648.3185,-106.4438 677.0962,-119.0599 777.5,-98 780.4022,-97.3913 783.3754,-96.7302 786.3693,-96.0357"/>
<polygon fill="#191970" stroke="#191970" points="540.6291,-133.1304 532.5016,-139.9271 543.0937,-139.6822 540.6291,-133.1304"/>
</g>
<!-- Node14&#45;&gt;Node21 -->
<g id="edge10" class="edge">
<title>Node14&#45;&gt;Node21</title>
<path fill="none" stroke="#191970" d="M472.2751,-145.6693C401.7354,-138.4811 248.9412,-121.5448 121.5,-98 118.7621,-97.4942 115.9662,-96.9469 113.1473,-96.3705"/>
<polygon fill="#191970" stroke="#191970" points="472.1727,-149.1767 482.4737,-146.6988 472.8758,-142.2121 472.1727,-149.1767"/>
</g>
<!-- Node22 -->
<g id="node12" class="node">
<title>Node22</title>
<g id="a_node12"><a xlink:href="vfs__impl_8h_source.html" target="_top" xlink:title="l4/l4re_vfs/impl/vfs\l_impl.h">
<polygon fill="#ffffff" stroke="#000000" points="904.5,-67.5 904.5,-97.5 1008.5,-97.5 1008.5,-67.5 904.5,-67.5"/>
<text text-anchor="start" x="912.5" y="-85.5" font-family="Helvetica,sans-Serif" font-size="10.00" fill="#000000">l4/l4re_vfs/impl/vfs</text>
<text text-anchor="middle" x="956.5" y="-74.5" font-family="Helvetica,sans-Serif" font-size="10.00" fill="#000000">_impl.h</text>
</a>
</g>
</g>
<!-- Node14&#45;&gt;Node22 -->
<g id="edge11" class="edge">
<title>Node14&#45;&gt;Node22</title>
<path fill="none" stroke="#191970" d="M541.5101,-136.359C544.181,-135.4648 546.8694,-134.6591 549.5,-134 699.4728,-96.4264 743.2873,-125.1092 895.5,-98 898.4045,-97.4827 901.3749,-96.9021 904.365,-96.2773"/>
<polygon fill="#191970" stroke="#191970" points="540.1995,-133.1122 532.0489,-139.881 542.6417,-139.6724 540.1995,-133.1122"/>
</g>
<!-- Node14&#45;&gt;Node23 -->
<g id="edge12" class="edge">
<title>Node14&#45;&gt;Node23</title>
<path fill="none" stroke="#191970" d="M472.2668,-137.6077C467.3196,-136.2947 462.3084,-135.0539 457.5,-134 354.2872,-111.378 325.4686,-121.7087 222.5,-98 215.3264,-96.3483 207.6866,-94.19 200.5939,-92.0111"/>
<polygon fill="#191970" stroke="#191970" points="471.6751,-141.0753 482.2463,-140.3675 473.541,-134.3286 471.6751,-141.0753"/>
</g>
<!-- Node24 -->
<g id="node14" class="node">
<title>Node24</title>
<g id="a_node14"><a xlink:href="icu__svr_source.html" target="_top" xlink:title="l4/re/util/icu_svr">
<polygon fill="#ffffff" stroke="#000000" points="232,-73 232,-92 321,-92 321,-73 232,-73"/>
<text text-anchor="middle" x="276.5" y="-80" font-family="Helvetica,sans-Serif" font-size="10.00" fill="#000000">l4/re/util/icu_svr</text>
</a>
</g>
</g>
<!-- Node14&#45;&gt;Node24 -->
<g id="edge13" class="edge">
<title>Node14&#45;&gt;Node24</title>
<path fill="none" stroke="#191970" d="M472.6919,-138.3336C467.5836,-136.8717 462.4168,-135.3971 457.5,-134 400.6542,-117.8477 386.3053,-114.2942 329.5,-98 322.8651,-96.0968 315.7699,-94.0381 308.9982,-92.0619"/>
<polygon fill="#191970" stroke="#191970" points="471.7849,-141.7145 482.3622,-141.1055 473.7137,-134.9855 471.7849,-141.7145"/>
</g>
<!-- Node26 -->
<g id="node16" class="node">
<title>Node26</title>
<g id="a_node16"><a xlink:href="kumem__alloc.html" target="_top" xlink:title="Kumem allocator helper. ">
<polygon fill="#ffffff" stroke="#000000" points="339,-73 339,-92 456,-92 456,-73 339,-73"/>
<text text-anchor="middle" x="397.5" y="-80" font-family="Helvetica,sans-Serif" font-size="10.00" fill="#000000">l4/re/util/kumem_alloc</text>
</a>
</g>
</g>
<!-- Node14&#45;&gt;Node26 -->
<g id="edge15" class="edge">
<title>Node14&#45;&gt;Node26</title>
<path fill="none" stroke="#191970" d="M486.3367,-134.711C464.2421,-121.7256 432.7522,-103.2184 413.8031,-92.0817"/>
<polygon fill="#191970" stroke="#191970" points="484.7718,-137.851 495.1666,-139.9005 488.3187,-131.8161 484.7718,-137.851"/>
</g>
<!-- Node14&#45;&gt;Node27 -->
<g id="edge16" class="edge">
<title>Node14&#45;&gt;Node27</title>
<path fill="none" stroke="#191970" d="M541.0172,-136.4386C543.8475,-135.4973 546.7047,-134.6605 549.5,-134 752.5238,-86.0278 811.0569,-128.0207 1017.5,-98 1028.0022,-96.4728 1039.2629,-94.3065 1049.6862,-92.0762"/>
<polygon fill="#191970" stroke="#191970" points="539.7761,-133.1659 531.627,-139.9365 542.2197,-139.7255 539.7761,-133.1659"/>
</g>
<!-- Node17 -->
<g id="node7" class="node">
<title>Node17</title>
<g id="a_node7"><a xlink:href="virtio-block_source.html" target="_top" xlink:title="l4/l4virtio/server\l/virtio&#45;block">
<polygon fill="#ffffff" stroke="#000000" points="563.5,-.5 563.5,-30.5 655.5,-30.5 655.5,-.5 563.5,-.5"/>
<text text-anchor="start" x="571.5" y="-18.5" font-family="Helvetica,sans-Serif" font-size="10.00" fill="#000000">l4/l4virtio/server</text>
<text text-anchor="middle" x="609.5" y="-7.5" font-family="Helvetica,sans-Serif" font-size="10.00" fill="#000000">/virtio&#45;block</text>
</a>
</g>
</g>
<!-- Node16&#45;&gt;Node17 -->
<g id="edge6" class="edge">
<title>Node16&#45;&gt;Node17</title>
<path fill="none" stroke="#191970" d="M611.3593,-57.0249C610.961,-48.128 610.5267,-38.4287 610.1781,-30.6432"/>
<polygon fill="#191970" stroke="#191970" points="607.8754,-57.4633 611.8193,-67.2967 614.8683,-57.1501 607.8754,-57.4633"/>
</g>
<!-- Node19 -->
<g id="node9" class="node">
<title>Node19</title>
<g id="a_node9"><a xlink:href="ns__fs__impl_8h_source.html" target="_top" xlink:title="l4/l4re_vfs/impl/ns\l_fs_impl.h">
<polygon fill="#ffffff" stroke="#000000" points="674,-.5 674,-30.5 775,-30.5 775,-.5 674,-.5"/>
<text text-anchor="start" x="682" y="-18.5" font-family="Helvetica,sans-Serif" font-size="10.00" fill="#000000">l4/l4re_vfs/impl/ns</text>
<text text-anchor="middle" x="724.5" y="-7.5" font-family="Helvetica,sans-Serif" font-size="10.00" fill="#000000">_fs_impl.h</text>
</a>
</g>
</g>
<!-- Node18&#45;&gt;Node19 -->
<g id="edge8" class="edge">
<title>Node18&#45;&gt;Node19</title>
<path fill="none" stroke="#191970" d="M723.0888,-62.7758C723.3966,-52.4641 723.7674,-40.0437 724.0516,-30.5218"/>
<polygon fill="#191970" stroke="#191970" points="719.5866,-62.8005 722.7866,-72.9005 726.5835,-63.0095 719.5866,-62.8005"/>
</g>
<!-- Node25 -->
<g id="node15" class="node">
<title>Node25</title>
<g id="a_node15"><a xlink:href="event__svr_source.html" target="_top" xlink:title="l4/re/util/event_svr">
<polygon fill="#ffffff" stroke="#000000" points="225,-6 225,-25 328,-25 328,-6 225,-6"/>
<text text-anchor="middle" x="276.5" y="-13" font-family="Helvetica,sans-Serif" font-size="10.00" fill="#000000">l4/re/util/event_svr</text>
</a>
</g>
</g>
<!-- Node24&#45;&gt;Node25 -->
<g id="edge14" class="edge">
<title>Node24&#45;&gt;Node25</title>
<path fill="none" stroke="#191970" d="M276.5,-62.6079C276.5,-50.214 276.5,-34.8263 276.5,-25.0817"/>
<polygon fill="#191970" stroke="#191970" points="273.0001,-62.9005 276.5,-72.9005 280.0001,-62.9006 273.0001,-62.9005"/>
</g>
</g>
</svg>
