<?xml version="1.0" encoding="UTF-8" standalone="no"?>
<!DOCTYPE svg PUBLIC "-//W3C//DTD SVG 1.1//EN"
 "http://www.w3.org/Graphics/SVG/1.1/DTD/svg11.dtd">
<!-- Generated by graphviz version 2.40.1 (20161225.0304)
 -->
<!-- Title: l4/sys/factory Pages: 1 -->
<svg width="930pt" height="767pt"
 viewBox="0.00 0.00 930.00 767.00" xmlns="http://www.w3.org/2000/svg" xmlns:xlink="http://www.w3.org/1999/xlink">
<g id="graph0" class="graph" transform="scale(1 1) rotate(0) translate(4 763)">
<title>l4/sys/factory</title>
<polygon fill="#ffffff" stroke="transparent" points="-4,4 -4,-763 926,-763 926,4 -4,4"/>
<!-- Node0 -->
<g id="node1" class="node">
<title>Node0</title>
<polygon fill="#bfbfbf" stroke="#000000" points="332.5,-739.5 332.5,-758.5 411.5,-758.5 411.5,-739.5 332.5,-739.5"/>
<text text-anchor="middle" x="372" y="-746.5" font-family="Helvetica,sans-Serif" font-size="10.00" fill="#000000">l4/sys/factory</text>
</g>
<!-- Node1 -->
<g id="node2" class="node">
<title>Node1</title>
<g id="a_node2"><a xlink:href="factory_8h.html" target="_top" xlink:title="Common factory related definitions. ">
<polygon fill="#ffffff" stroke="#000000" points="66.5,-342 66.5,-361 153.5,-361 153.5,-342 66.5,-342"/>
<text text-anchor="middle" x="110" y="-349" font-family="Helvetica,sans-Serif" font-size="10.00" fill="#000000">l4/sys/factory.h</text>
</a>
</g>
</g>
<!-- Node0&#45;&gt;Node1 -->
<g id="edge1" class="edge">
<title>Node0&#45;&gt;Node1</title>
<path fill="none" stroke="#191970" d="M332.3873,-742.5733C251.73,-728.3644 76,-691.1891 76,-637 76,-637 76,-637 76,-469 76,-433.0893 90.8352,-393.3517 100.9068,-370.5118"/>
<polygon fill="#191970" stroke="#191970" points="104.1521,-371.831 105.1286,-361.2813 97.7863,-368.9194 104.1521,-371.831"/>
</g>
<!-- Node12 -->
<g id="node13" class="node">
<title>Node12</title>
<g id="a_node13"><a xlink:href="capability.html" target="_top" xlink:title="L4::Cap related definitions. ">
<polygon fill="#ffffff" stroke="#000000" points="234,-683.5 234,-702.5 324,-702.5 324,-683.5 234,-683.5"/>
<text text-anchor="middle" x="279" y="-690.5" font-family="Helvetica,sans-Serif" font-size="10.00" fill="#000000">l4/sys/capability</text>
</a>
</g>
</g>
<!-- Node0&#45;&gt;Node12 -->
<g id="edge23" class="edge">
<title>Node0&#45;&gt;Node12</title>
<path fill="none" stroke="#191970" d="M355.8006,-739.2455C341.3982,-730.5731 320.1268,-717.7645 303.6201,-707.825"/>
<polygon fill="#191970" stroke="#191970" points="305.386,-704.8028 295.0137,-702.6427 301.775,-710.7996 305.386,-704.8028"/>
</g>
<!-- Node22 -->
<g id="node23" class="node">
<title>Node22</title>
<g id="a_node23"><a xlink:href="ipc__iface.html" target="_top" xlink:title="Interface Definition Language. ">
<polygon fill="#ffffff" stroke="#000000" points="410.5,-515.5 410.5,-534.5 487.5,-534.5 487.5,-515.5 410.5,-515.5"/>
<text text-anchor="middle" x="449" y="-522.5" font-family="Helvetica,sans-Serif" font-size="10.00" fill="#000000">cxx/ipc_iface</text>
</a>
</g>
</g>
<!-- Node0&#45;&gt;Node22 -->
<g id="edge65" class="edge">
<title>Node0&#45;&gt;Node22</title>
<path fill="none" stroke="#191970" d="M375.7136,-739.4918C382.6947,-721.5198 398.1394,-681.2895 410,-647 422.481,-610.9169 435.7641,-568.354 443.1586,-544.2358"/>
<polygon fill="#191970" stroke="#191970" points="446.5456,-545.1281 446.1177,-534.5419 439.8506,-543.0843 446.5456,-545.1281"/>
</g>
<!-- Node26 -->
<g id="node27" class="node">
<title>Node26</title>
<g id="a_node27"><a xlink:href="ipc__varg_source.html" target="_top" xlink:title="l4/sys/cxx/ipc_varg">
<polygon fill="#ffffff" stroke="#000000" points="816,-459.5 816,-478.5 922,-478.5 922,-459.5 816,-459.5"/>
<text text-anchor="middle" x="869" y="-466.5" font-family="Helvetica,sans-Serif" font-size="10.00" fill="#000000">l4/sys/cxx/ipc_varg</text>
</a>
</g>
</g>
<!-- Node0&#45;&gt;Node26 -->
<g id="edge66" class="edge">
<title>Node0&#45;&gt;Node26</title>
<path fill="none" stroke="#191970" d="M411.6812,-748.0945C525.8426,-744.4244 847,-726.1748 847,-637 847,-637 847,-637 847,-581 847,-548.1132 856.246,-510.7958 862.7499,-488.6138"/>
<polygon fill="#191970" stroke="#191970" points="866.1853,-489.3474 865.7538,-478.7614 859.4896,-487.3059 866.1853,-489.3474"/>
</g>
<!-- Node2 -->
<g id="node3" class="node">
<title>Node2</title>
<g id="a_node3"><a xlink:href="compiler_8h.html" target="_top" xlink:title="L4 compiler related defines. ">
<polygon fill="#ffffff" stroke="#000000" points="250.5,-56.5 250.5,-75.5 345.5,-75.5 345.5,-56.5 250.5,-56.5"/>
<text text-anchor="middle" x="298" y="-63.5" font-family="Helvetica,sans-Serif" font-size="10.00" fill="#000000">l4/sys/compiler.h</text>
</a>
</g>
</g>
<!-- Node1&#45;&gt;Node2 -->
<g id="edge2" class="edge">
<title>Node1&#45;&gt;Node2</title>
<path fill="none" stroke="#191970" d="M109.4438,-341.7549C108.3447,-321.6291 106,-274.0058 106,-234 106,-234 106,-234 106,-178 106,-115.2025 183.5807,-86.9855 240.1119,-74.7604"/>
<polygon fill="#191970" stroke="#191970" points="240.9505,-78.1614 250.0456,-72.7273 239.5468,-71.3036 240.9505,-78.1614"/>
</g>
<!-- Node4 -->
<g id="node5" class="node">
<title>Node4</title>
<g id="a_node5"><a xlink:href="l4_2sys_2types_8h.html" target="_top" xlink:title="Common L4 ABI Data Types. ">
<polygon fill="#ffffff" stroke="#000000" points="294,-168.5 294,-187.5 374,-187.5 374,-168.5 294,-168.5"/>
<text text-anchor="middle" x="334" y="-175.5" font-family="Helvetica,sans-Serif" font-size="10.00" fill="#000000">l4/sys/types.h</text>
</a>
</g>
</g>
<!-- Node1&#45;&gt;Node4 -->
<g id="edge4" class="edge">
<title>Node1&#45;&gt;Node4</title>
<path fill="none" stroke="#191970" d="M111.5387,-341.8444C115.8476,-318.0562 130.2848,-256.2275 168,-224 185.47,-209.0719 241.7872,-195.4896 284.015,-187.017"/>
<polygon fill="#191970" stroke="#191970" points="284.7348,-190.4426 293.8721,-185.0798 283.3848,-183.574 284.7348,-190.4426"/>
</g>
<!-- Node9 -->
<g id="node10" class="node">
<title>Node9</title>
<g id="a_node10"><a xlink:href="l4_2sys_2utcb_8h.html" target="_top" xlink:title="UTCB definitions. ">
<polygon fill="#ffffff" stroke="#000000" points="402,-224.5 402,-243.5 476,-243.5 476,-224.5 402,-224.5"/>
<text text-anchor="middle" x="439" y="-231.5" font-family="Helvetica,sans-Serif" font-size="10.00" fill="#000000">l4/sys/utcb.h</text>
</a>
</g>
</g>
<!-- Node1&#45;&gt;Node9 -->
<g id="edge14" class="edge">
<title>Node1&#45;&gt;Node9</title>
<path fill="none" stroke="#191970" d="M136.6448,-341.984C195.2838,-321.0415 335.5945,-270.9305 402.4175,-247.0652"/>
<polygon fill="#191970" stroke="#191970" points="403.8663,-250.2643 412.1065,-243.6048 401.5119,-243.6721 403.8663,-250.2643"/>
</g>
<!-- Node10 -->
<g id="node11" class="node">
<title>Node10</title>
<g id="a_node11"><a xlink:href="l4_2sys_2ipc_8h.html" target="_top" xlink:title="Common IPC interface. ">
<polygon fill="#ffffff" stroke="#000000" points="405,-280.5 405,-299.5 473,-299.5 473,-280.5 405,-280.5"/>
<text text-anchor="middle" x="439" y="-287.5" font-family="Helvetica,sans-Serif" font-size="10.00" fill="#000000">l4/sys/ipc.h</text>
</a>
</g>
</g>
<!-- Node1&#45;&gt;Node10 -->
<g id="edge18" class="edge">
<title>Node1&#45;&gt;Node10</title>
<path fill="none" stroke="#191970" d="M153.6887,-343.3333C216.442,-331.6028 331.472,-310.1002 394.6114,-298.2976"/>
<polygon fill="#191970" stroke="#191970" points="395.4694,-301.6979 404.6559,-296.4199 394.1831,-294.8171 395.4694,-301.6979"/>
</g>
<!-- Node3 -->
<g id="node4" class="node">
<title>Node3</title>
<polygon fill="#ffffff" stroke="#bfbfbf" points="253.5,-.5 253.5,-19.5 342.5,-19.5 342.5,-.5 253.5,-.5"/>
<text text-anchor="middle" x="298" y="-7.5" font-family="Helvetica,sans-Serif" font-size="10.00" fill="#000000">l4/sys/linkage.h</text>
</g>
<!-- Node2&#45;&gt;Node3 -->
<g id="edge3" class="edge">
<title>Node2&#45;&gt;Node3</title>
<path fill="none" stroke="#191970" d="M298,-56.2455C298,-48.9382 298,-38.6944 298,-29.7046"/>
<polygon fill="#191970" stroke="#191970" points="301.5001,-29.6426 298,-19.6427 294.5001,-29.6427 301.5001,-29.6426"/>
</g>
<!-- Node4&#45;&gt;Node2 -->
<g id="edge6" class="edge">
<title>Node4&#45;&gt;Node2</title>
<path fill="none" stroke="#191970" d="M330.1407,-168.2032C326.5487,-158.9405 321.1421,-144.6195 317,-132 311.9452,-116.5996 306.9012,-98.9448 303.2819,-85.7721"/>
<polygon fill="#191970" stroke="#191970" points="306.6028,-84.6449 300.6078,-75.9092 299.8467,-86.4767 306.6028,-84.6449"/>
</g>
<!-- Node5 -->
<g id="node6" class="node">
<title>Node5</title>
<g id="a_node6"><a xlink:href="l4_2sys_2l4int_8h.html" target="_top" xlink:title="Fixed sized integer types, generic version. ">
<polygon fill="#ffffff" stroke="#000000" points="480,-56.5 480,-75.5 554,-75.5 554,-56.5 480,-56.5"/>
<text text-anchor="middle" x="517" y="-63.5" font-family="Helvetica,sans-Serif" font-size="10.00" fill="#000000">l4/sys/l4int.h</text>
</a>
</g>
</g>
<!-- Node4&#45;&gt;Node5 -->
<g id="edge5" class="edge">
<title>Node4&#45;&gt;Node5</title>
<path fill="none" stroke="#191970" d="M353.7083,-168.4006C371.5798,-159.5041 398.491,-145.6253 421,-132 447.4382,-115.9962 476.5169,-95.5836 495.6651,-81.7269"/>
<polygon fill="#191970" stroke="#191970" points="497.9436,-84.3973 503.9655,-75.6802 493.8219,-78.7394 497.9436,-84.3973"/>
</g>
<!-- Node6 -->
<g id="node7" class="node">
<title>Node6</title>
<g id="a_node7"><a xlink:href="l4_2sys_2consts_8h.html" target="_top" xlink:title="Common constants. ">
<polygon fill="#ffffff" stroke="#000000" points="326,-112.5 326,-131.5 412,-131.5 412,-112.5 326,-112.5"/>
<text text-anchor="middle" x="369" y="-119.5" font-family="Helvetica,sans-Serif" font-size="10.00" fill="#000000">l4/sys/consts.h</text>
</a>
</g>
</g>
<!-- Node4&#45;&gt;Node6 -->
<g id="edge7" class="edge">
<title>Node4&#45;&gt;Node6</title>
<path fill="none" stroke="#191970" d="M340.0965,-168.2455C344.9145,-160.5367 351.7751,-149.5598 357.6032,-140.2348"/>
<polygon fill="#191970" stroke="#191970" points="360.6413,-141.9777 362.9733,-131.6427 354.7053,-138.2677 360.6413,-141.9777"/>
</g>
<!-- Node7 -->
<g id="node8" class="node">
<title>Node7</title>
<g id="a_node8"><a xlink:href="____l4__fpage_8h_source.html" target="_top" xlink:title="l4/sys/__l4_fpage.h">
<polygon fill="#ffffff" stroke="#000000" points="162,-112.5 162,-131.5 270,-131.5 270,-112.5 162,-112.5"/>
<text text-anchor="middle" x="216" y="-119.5" font-family="Helvetica,sans-Serif" font-size="10.00" fill="#000000">l4/sys/__l4_fpage.h</text>
</a>
</g>
</g>
<!-- Node4&#45;&gt;Node7 -->
<g id="edge10" class="edge">
<title>Node4&#45;&gt;Node7</title>
<path fill="none" stroke="#191970" d="M313.7151,-168.3733C294.8579,-159.4241 266.554,-145.9917 245.2545,-135.8835"/>
<polygon fill="#191970" stroke="#191970" points="246.5551,-132.6266 236.0202,-131.5011 243.5539,-138.9506 246.5551,-132.6266"/>
</g>
<!-- Node8 -->
<g id="node9" class="node">
<title>Node8</title>
<g id="a_node9"><a xlink:href="____timeout_8h_source.html" target="_top" xlink:title="l4/sys/__timeout.h">
<polygon fill="#ffffff" stroke="#000000" points="506.5,-112.5 506.5,-131.5 607.5,-131.5 607.5,-112.5 506.5,-112.5"/>
<text text-anchor="middle" x="557" y="-119.5" font-family="Helvetica,sans-Serif" font-size="10.00" fill="#000000">l4/sys/__timeout.h</text>
</a>
</g>
</g>
<!-- Node4&#45;&gt;Node8 -->
<g id="edge12" class="edge">
<title>Node4&#45;&gt;Node8</title>
<path fill="none" stroke="#191970" d="M372.0817,-168.4369C410.0059,-158.9133 468.3289,-144.2672 509.3126,-133.9753"/>
<polygon fill="#191970" stroke="#191970" points="510.229,-137.3539 519.0754,-131.5237 508.524,-130.5647 510.229,-137.3539"/>
</g>
<!-- Node6&#45;&gt;Node2 -->
<g id="edge8" class="edge">
<title>Node6&#45;&gt;Node2</title>
<path fill="none" stroke="#191970" d="M356.6327,-112.2455C346.0446,-103.8943 330.5936,-91.7076 318.2107,-81.9408"/>
<polygon fill="#191970" stroke="#191970" points="320.2447,-79.0875 310.2255,-75.6427 315.9097,-84.5837 320.2447,-79.0875"/>
</g>
<!-- Node6&#45;&gt;Node5 -->
<g id="edge9" class="edge">
<title>Node6&#45;&gt;Node5</title>
<path fill="none" stroke="#191970" d="M394.4421,-112.3733C418.7326,-103.1822 455.5208,-89.2624 482.4543,-79.0713"/>
<polygon fill="#191970" stroke="#191970" points="483.7757,-82.3136 491.8899,-75.5011 481.2984,-75.7666 483.7757,-82.3136"/>
</g>
<!-- Node7&#45;&gt;Node2 -->
<g id="edge11" class="edge">
<title>Node7&#45;&gt;Node2</title>
<path fill="none" stroke="#191970" d="M230.2833,-112.2455C242.747,-103.7337 261.0451,-91.2375 275.4792,-81.3801"/>
<polygon fill="#191970" stroke="#191970" points="277.5962,-84.1726 283.8804,-75.6427 273.6485,-78.392 277.5962,-84.1726"/>
</g>
<!-- Node8&#45;&gt;Node5 -->
<g id="edge13" class="edge">
<title>Node8&#45;&gt;Node5</title>
<path fill="none" stroke="#191970" d="M550.0325,-112.2455C544.4689,-104.4564 536.522,-93.3308 529.8171,-83.9439"/>
<polygon fill="#191970" stroke="#191970" points="532.5481,-81.7457 523.8876,-75.6427 526.852,-85.8144 532.5481,-81.7457"/>
</g>
<!-- Node9&#45;&gt;Node2 -->
<g id="edge16" class="edge">
<title>Node9&#45;&gt;Node2</title>
<path fill="none" stroke="#191970" d="M440.5638,-224.495C443.6754,-202.15 448.1839,-145.6365 421,-112 404.95,-92.1403 379.4008,-80.8531 355.7363,-74.4388"/>
<polygon fill="#191970" stroke="#191970" points="356.2898,-70.9706 345.7429,-71.9774 354.6156,-77.7675 356.2898,-70.9706"/>
</g>
<!-- Node9&#45;&gt;Node4 -->
<g id="edge15" class="edge">
<title>Node9&#45;&gt;Node4</title>
<path fill="none" stroke="#191970" d="M420.7104,-224.2455C404.2238,-215.4527 379.7648,-202.4079 361.0235,-192.4125"/>
<polygon fill="#191970" stroke="#191970" points="362.5506,-189.2604 352.08,-187.6427 359.2565,-195.4368 362.5506,-189.2604"/>
</g>
<!-- Node9&#45;&gt;Node5 -->
<g id="edge17" class="edge">
<title>Node9&#45;&gt;Node5</title>
<path fill="none" stroke="#191970" d="M476.2436,-224.7104C518.913,-211.85 586.8192,-184.0795 617,-132 632.4259,-105.3813 596.6498,-87.4904 563.6852,-77.1273"/>
<polygon fill="#191970" stroke="#191970" points="564.6395,-73.7597 554.0573,-74.2773 562.6526,-80.4718 564.6395,-73.7597"/>
</g>
<!-- Node10&#45;&gt;Node4 -->
<g id="edge19" class="edge">
<title>Node10&#45;&gt;Node4</title>
<path fill="none" stroke="#191970" d="M428.9677,-280.2867C419.5386,-271.083 405.105,-256.8019 393,-244 377.6095,-227.7235 360.6193,-208.5872 348.8396,-195.1233"/>
<polygon fill="#191970" stroke="#191970" points="351.4479,-192.789 342.2393,-187.5494 346.1706,-197.3879 351.4479,-192.789"/>
</g>
<!-- Node10&#45;&gt;Node9 -->
<g id="edge20" class="edge">
<title>Node10&#45;&gt;Node9</title>
<path fill="none" stroke="#191970" d="M439,-280.2455C439,-272.9382 439,-262.6944 439,-253.7046"/>
<polygon fill="#191970" stroke="#191970" points="442.5001,-253.6426 439,-243.6427 435.5001,-253.6427 442.5001,-253.6426"/>
</g>
<!-- Node11 -->
<g id="node12" class="node">
<title>Node11</title>
<g id="a_node12"><a xlink:href="err_8h.html" target="_top" xlink:title="Error codes. ">
<polygon fill="#ffffff" stroke="#000000" points="677,-224.5 677,-243.5 745,-243.5 745,-224.5 677,-224.5"/>
<text text-anchor="middle" x="711" y="-231.5" font-family="Helvetica,sans-Serif" font-size="10.00" fill="#000000">l4/sys/err.h</text>
</a>
</g>
</g>
<!-- Node10&#45;&gt;Node11 -->
<g id="edge21" class="edge">
<title>Node10&#45;&gt;Node11</title>
<path fill="none" stroke="#191970" d="M473.1736,-282.9643C522.2336,-272.8637 612.6586,-254.2468 666.7644,-243.1073"/>
<polygon fill="#191970" stroke="#191970" points="667.6635,-246.4957 676.7523,-241.051 666.2519,-239.6395 667.6635,-246.4957"/>
</g>
<!-- Node11&#45;&gt;Node2 -->
<g id="edge22" class="edge">
<title>Node11&#45;&gt;Node2</title>
<path fill="none" stroke="#191970" d="M706.77,-224.3499C695.8241,-200.6498 664.097,-139.5166 617,-112 573.8838,-86.8092 435.8224,-74.3842 356.1687,-69.1695"/>
<polygon fill="#191970" stroke="#191970" points="356.0091,-65.6523 345.807,-68.5102 355.5645,-72.6382 356.0091,-65.6523"/>
</g>
<!-- Node12&#45;&gt;Node4 -->
<g id="edge25" class="edge">
<title>Node12&#45;&gt;Node4</title>
<path fill="none" stroke="#191970" d="M261.6583,-683.4601C233.7577,-666.6916 182,-629.1023 182,-581 182,-581 182,-581 182,-290 182,-236.8635 242.9479,-206.1127 287.6564,-190.7035"/>
<polygon fill="#191970" stroke="#191970" points="288.8031,-194.0108 297.205,-187.5566 286.612,-187.3626 288.8031,-194.0108"/>
</g>
<!-- Node12&#45;&gt;Node6 -->
<g id="edge24" class="edge">
<title>Node12&#45;&gt;Node6</title>
<path fill="none" stroke="#191970" d="M234.7969,-683.4649C165.2222,-665.5656 38,-619.8655 38,-525 38,-525 38,-525 38,-234 38,-176.1109 221.9555,-142.2887 315.5922,-128.8223"/>
<polygon fill="#191970" stroke="#191970" points="316.3141,-132.2552 325.7275,-127.3934 315.3368,-125.3237 316.3141,-132.2552"/>
</g>
<!-- Node13 -->
<g id="node14" class="node">
<title>Node13</title>
<g id="a_node14"><a xlink:href="kobject_source.html" target="_top" xlink:title="l4/sys/kobject">
<polygon fill="#ffffff" stroke="#000000" points="312,-515.5 312,-534.5 392,-534.5 392,-515.5 312,-515.5"/>
<text text-anchor="middle" x="352" y="-522.5" font-family="Helvetica,sans-Serif" font-size="10.00" fill="#000000">l4/sys/kobject</text>
</a>
</g>
</g>
<!-- Node12&#45;&gt;Node13 -->
<g id="edge26" class="edge">
<title>Node12&#45;&gt;Node13</title>
<path fill="none" stroke="#191970" d="M283.134,-683.4862C294.7735,-656.6994 327.9897,-580.2565 343.6446,-544.2289"/>
<polygon fill="#191970" stroke="#191970" points="346.9543,-545.3943 347.7296,-534.8279 340.5342,-542.6046 346.9543,-545.3943"/>
</g>
<!-- Node20 -->
<g id="node21" class="node">
<title>Node20</title>
<g id="a_node21"><a xlink:href="l4_2sys_2task_8h.html" target="_top" xlink:title="Common task related definitions. ">
<polygon fill="#ffffff" stroke="#000000" points="286,-342 286,-361 360,-361 360,-342 286,-342"/>
<text text-anchor="middle" x="323" y="-349" font-family="Helvetica,sans-Serif" font-size="10.00" fill="#000000">l4/sys/task.h</text>
</a>
</g>
</g>
<!-- Node12&#45;&gt;Node20 -->
<g id="edge48" class="edge">
<title>Node12&#45;&gt;Node20</title>
<path fill="none" stroke="#191970" d="M275.9014,-683.2275C270.0599,-663.9094 258,-619.3796 258,-581 258,-581 258,-581 258,-469 258,-429.1036 287.0482,-390.0386 306.3071,-368.523"/>
<polygon fill="#191970" stroke="#191970" points="308.8924,-370.8825 313.1279,-361.1711 303.7607,-366.1215 308.8924,-370.8825"/>
</g>
<!-- Node21 -->
<g id="node22" class="node">
<title>Node21</title>
<g id="a_node22"><a xlink:href="sys_2meta.html" target="_top" xlink:title="Meta interface for getting dynamic type information about objects behind capabilities. ">
<polygon fill="#ffffff" stroke="#000000" points="331,-627.5 331,-646.5 401,-646.5 401,-627.5 331,-627.5"/>
<text text-anchor="middle" x="366" y="-634.5" font-family="Helvetica,sans-Serif" font-size="10.00" fill="#000000">l4/sys/meta</text>
</a>
</g>
</g>
<!-- Node12&#45;&gt;Node21 -->
<g id="edge49" class="edge">
<title>Node12&#45;&gt;Node21</title>
<path fill="none" stroke="#191970" d="M294.1542,-683.2455C307.5027,-674.6534 327.1586,-662.0014 342.5383,-652.1018"/>
<polygon fill="#191970" stroke="#191970" points="344.5051,-654.9982 351.0194,-646.6427 340.7164,-649.1121 344.5051,-654.9982"/>
</g>
<!-- Node13&#45;&gt;Node4 -->
<g id="edge34" class="edge">
<title>Node13&#45;&gt;Node4</title>
<path fill="none" stroke="#191970" d="M337.1145,-515.4766C302.5932,-492.0941 220,-428.1424 220,-351.5 220,-351.5 220,-351.5 220,-290 220,-243.4628 268.9383,-209.828 302.6864,-192.1659"/>
<polygon fill="#191970" stroke="#191970" points="304.3862,-195.2289 311.749,-187.6105 301.2424,-188.9746 304.3862,-195.2289"/>
</g>
<!-- Node14 -->
<g id="node15" class="node">
<title>Node14</title>
<g id="a_node15"><a xlink:href="kernel__object_8h.html" target="_top" xlink:title="Kernel object system calls. ">
<polygon fill="#ffffff" stroke="#000000" points="340,-403.5 340,-422.5 428,-422.5 428,-403.5 340,-403.5"/>
<text text-anchor="middle" x="384" y="-410.5" font-family="Helvetica,sans-Serif" font-size="10.00" fill="#000000">kernel_object.h</text>
</a>
</g>
</g>
<!-- Node13&#45;&gt;Node14 -->
<g id="edge27" class="edge">
<title>Node13&#45;&gt;Node14</title>
<path fill="none" stroke="#191970" d="M354.7283,-515.4509C359.9711,-497.1013 371.5455,-456.5908 378.4659,-432.3693"/>
<polygon fill="#191970" stroke="#191970" points="381.8967,-433.1017 381.2786,-422.5249 375.166,-431.1786 381.8967,-433.1017"/>
</g>
<!-- Node16 -->
<g id="node17" class="node">
<title>Node16</title>
<g id="a_node17"><a xlink:href="____typeinfo_8h.html" target="_top" xlink:title="Type information handling. ">
<polygon fill="#ffffff" stroke="#000000" points="402,-459.5 402,-478.5 476,-478.5 476,-459.5 402,-459.5"/>
<text text-anchor="middle" x="439" y="-466.5" font-family="Helvetica,sans-Serif" font-size="10.00" fill="#000000">__typeinfo.h</text>
</a>
</g>
</g>
<!-- Node13&#45;&gt;Node16 -->
<g id="edge35" class="edge">
<title>Node13&#45;&gt;Node16</title>
<path fill="none" stroke="#191970" d="M367.1542,-515.2455C380.5027,-506.6534 400.1586,-494.0014 415.5383,-484.1018"/>
<polygon fill="#191970" stroke="#191970" points="417.5051,-486.9982 424.0194,-478.6427 413.7164,-481.1121 417.5051,-486.9982"/>
</g>
<!-- Node14&#45;&gt;Node2 -->
<g id="edge29" class="edge">
<title>Node14&#45;&gt;Node2</title>
<path fill="none" stroke="#191970" d="M339.9507,-410.9899C262.0898,-406.7587 103.9302,-394.9185 57,-367 20.407,-345.231 0,-332.5786 0,-290 0,-290 0,-290 0,-178 0,-127.1615 153.8905,-91.5518 240.4947,-75.5371"/>
<polygon fill="#191970" stroke="#191970" points="241.2387,-78.9593 250.4515,-73.7273 239.9868,-72.0722 241.2387,-78.9593"/>
</g>
<!-- Node14&#45;&gt;Node4 -->
<g id="edge28" class="edge">
<title>Node14&#45;&gt;Node4</title>
<path fill="none" stroke="#191970" d="M339.8139,-405.8481C316.9455,-399.6623 290.9576,-388.1932 277,-367 240.333,-311.3247 292.2953,-231.14 319.3703,-195.835"/>
<polygon fill="#191970" stroke="#191970" points="322.2078,-197.889 325.6485,-187.8684 316.7099,-193.5562 322.2078,-197.889"/>
</g>
<!-- Node14&#45;&gt;Node9 -->
<g id="edge30" class="edge">
<title>Node14&#45;&gt;Node9</title>
<path fill="none" stroke="#191970" d="M428.1293,-404.4747C465.0119,-396.3469 513.3936,-382.995 525,-367 554.9236,-325.7619 496.4726,-274.5414 461.9037,-249.3944"/>
<polygon fill="#191970" stroke="#191970" points="463.8818,-246.5066 453.6978,-243.5848 459.837,-252.2197 463.8818,-246.5066"/>
</g>
<!-- Node14&#45;&gt;Node10 -->
<g id="edge33" class="edge">
<title>Node14&#45;&gt;Node10</title>
<path fill="none" stroke="#191970" d="M424.4718,-403.4445C457.0404,-394.8392 498.9784,-381.3666 509,-367 516.8825,-355.6999 515.5413,-348.1259 509,-336 501.427,-321.9617 487.4927,-311.5084 474.0386,-304.1453"/>
<polygon fill="#191970" stroke="#191970" points="475.3906,-300.9074 464.885,-299.5353 472.242,-307.1593 475.3906,-300.9074"/>
</g>
<!-- Node15 -->
<g id="node16" class="node">
<title>Node15</title>
<g id="a_node16"><a xlink:href="____kernel__object__impl_8h.html" target="_top" xlink:title="Low&#45;level kernel debugger functions. ">
<polygon fill="#ffffff" stroke="#000000" points="378,-336.5 378,-366.5 500,-366.5 500,-336.5 378,-336.5"/>
<text text-anchor="start" x="386" y="-354.5" font-family="Helvetica,sans-Serif" font-size="10.00" fill="#000000">l4/sys/__kernel_object</text>
<text text-anchor="middle" x="439" y="-343.5" font-family="Helvetica,sans-Serif" font-size="10.00" fill="#000000">_impl.h</text>
</a>
</g>
</g>
<!-- Node14&#45;&gt;Node15 -->
<g id="edge31" class="edge">
<title>Node14&#45;&gt;Node15</title>
<path fill="none" stroke="#191970" d="M392.5938,-403.3906C399.5549,-395.6068 409.6486,-384.3202 418.6458,-374.2597"/>
<polygon fill="#191970" stroke="#191970" points="421.4882,-376.3318 425.5455,-366.5446 416.2704,-371.6654 421.4882,-376.3318"/>
</g>
<!-- Node15&#45;&gt;Node10 -->
<g id="edge32" class="edge">
<title>Node15&#45;&gt;Node10</title>
<path fill="none" stroke="#191970" d="M439,-336.2977C439,-328.3834 439,-318.6043 439,-310.0759"/>
<polygon fill="#191970" stroke="#191970" points="442.5001,-309.8469 439,-299.8469 435.5001,-309.847 442.5001,-309.8469"/>
</g>
<!-- Node17 -->
<g id="node18" class="node">
<title>Node17</title>
<g id="a_node18"><a xlink:href="types.html" target="_top" xlink:title="cxx/types">
<polygon fill="#ffffff" stroke="#000000" points="746.5,-342 746.5,-361 807.5,-361 807.5,-342 746.5,-342"/>
<text text-anchor="middle" x="777" y="-349" font-family="Helvetica,sans-Serif" font-size="10.00" fill="#000000">cxx/types</text>
</a>
</g>
</g>
<!-- Node16&#45;&gt;Node17 -->
<g id="edge36" class="edge">
<title>Node16&#45;&gt;Node17</title>
<path fill="none" stroke="#191970" d="M464.6698,-459.4937C487.9833,-450.6598 523.1802,-436.8207 553,-423 570.3159,-414.9745 573.2571,-410.0312 591,-403 639.5464,-383.762 697.9186,-368.8608 736.1613,-360.146"/>
<polygon fill="#191970" stroke="#191970" points="737.3966,-363.4561 746.389,-357.8536 735.8656,-356.6255 737.3966,-363.4561"/>
</g>
<!-- Node18 -->
<g id="node19" class="node">
<title>Node18</title>
<g id="a_node19"><a xlink:href="ipc__basics_source.html" target="_top" xlink:title="cxx/ipc_basics">
<polygon fill="#ffffff" stroke="#000000" points="600,-403.5 600,-422.5 684,-422.5 684,-403.5 600,-403.5"/>
<text text-anchor="middle" x="642" y="-410.5" font-family="Helvetica,sans-Serif" font-size="10.00" fill="#000000">cxx/ipc_basics</text>
</a>
</g>
</g>
<!-- Node16&#45;&gt;Node18 -->
<g id="edge37" class="edge">
<title>Node16&#45;&gt;Node18</title>
<path fill="none" stroke="#191970" d="M473.8969,-459.3733C508.0911,-449.9404 560.3415,-435.5265 597.5042,-425.2747"/>
<polygon fill="#191970" stroke="#191970" points="598.8493,-428.5345 607.5584,-422.5011 596.9877,-421.7865 598.8493,-428.5345"/>
</g>
<!-- Node19 -->
<g id="node20" class="node">
<title>Node19</title>
<g id="a_node20"><a xlink:href="capability_8h_source.html" target="_top" xlink:title="cxx/capability.h">
<polygon fill="#ffffff" stroke="#000000" points="456.5,-403.5 456.5,-422.5 543.5,-422.5 543.5,-403.5 456.5,-403.5"/>
<text text-anchor="middle" x="500" y="-410.5" font-family="Helvetica,sans-Serif" font-size="10.00" fill="#000000">cxx/capability.h</text>
</a>
</g>
</g>
<!-- Node16&#45;&gt;Node19 -->
<g id="edge41" class="edge">
<title>Node16&#45;&gt;Node19</title>
<path fill="none" stroke="#191970" d="M449.6254,-459.2455C458.5473,-451.0549 471.488,-439.1749 482.0192,-429.5069"/>
<polygon fill="#191970" stroke="#191970" points="484.4968,-431.9837 489.4964,-422.6427 479.7629,-426.8271 484.4968,-431.9837"/>
</g>
<!-- Node18&#45;&gt;Node9 -->
<g id="edge39" class="edge">
<title>Node18&#45;&gt;Node9</title>
<path fill="none" stroke="#191970" d="M634.9657,-403.3308C617.6199,-379.9636 570.5943,-319.4465 521,-280 505.195,-267.429 485.5148,-256.2649 469.3963,-248.084"/>
<polygon fill="#191970" stroke="#191970" points="470.8893,-244.9178 460.3737,-243.6238 467.7872,-251.1929 470.8893,-244.9178"/>
</g>
<!-- Node18&#45;&gt;Node11 -->
<g id="edge40" class="edge">
<title>Node18&#45;&gt;Node11</title>
<path fill="none" stroke="#191970" d="M657.9917,-403.4343C670.0116,-395.3277 685.7672,-382.5531 694,-367 713.2486,-330.6362 714.0214,-281.0855 712.6552,-253.8915"/>
<polygon fill="#191970" stroke="#191970" points="716.1344,-253.4584 711.9863,-243.7094 709.1494,-253.9173 716.1344,-253.4584"/>
</g>
<!-- Node18&#45;&gt;Node17 -->
<g id="edge38" class="edge">
<title>Node18&#45;&gt;Node17</title>
<path fill="none" stroke="#191970" d="M663.0938,-403.3906C685.5827,-393.1457 721.3918,-376.8326 746.8524,-365.2339"/>
<polygon fill="#191970" stroke="#191970" points="748.4052,-368.3727 756.0544,-361.0419 745.5032,-362.0025 748.4052,-368.3727"/>
</g>
<!-- Node19&#45;&gt;Node4 -->
<g id="edge43" class="edge">
<title>Node19&#45;&gt;Node4</title>
<path fill="none" stroke="#191970" d="M513.331,-403.3825C523.6173,-395.0729 537.0611,-382.0499 543,-367 568.1749,-303.2032 539.699,-265.3741 485,-224 468.899,-211.8213 421.3157,-198.4244 383.8208,-189.2454"/>
<polygon fill="#191970" stroke="#191970" points="384.5819,-185.8287 374.0403,-186.8896 382.9426,-192.6341 384.5819,-185.8287"/>
</g>
<!-- Node19&#45;&gt;Node6 -->
<g id="edge42" class="edge">
<title>Node19&#45;&gt;Node6</title>
<path fill="none" stroke="#191970" d="M521.1216,-403.4622C535.2503,-395.8191 552.7172,-383.6199 561,-367 566.3114,-356.3424 562.8714,-292.1586 558,-280 529.117,-207.9111 446.1177,-158.5957 400.3045,-136.0164"/>
<polygon fill="#191970" stroke="#191970" points="401.6551,-132.7823 391.1258,-131.6055 398.623,-139.0916 401.6551,-132.7823"/>
</g>
<!-- Node19&#45;&gt;Node20 -->
<g id="edge44" class="edge">
<title>Node19&#45;&gt;Node20</title>
<path fill="none" stroke="#191970" d="M472.3438,-403.3906C442.0789,-392.8749 393.4145,-375.966 359.9089,-364.3243"/>
<polygon fill="#191970" stroke="#191970" points="361.0569,-361.0179 350.462,-361.0419 358.7593,-367.6302 361.0569,-361.0179"/>
</g>
<!-- Node20&#45;&gt;Node4 -->
<g id="edge45" class="edge">
<title>Node20&#45;&gt;Node4</title>
<path fill="none" stroke="#191970" d="M323.6071,-341.9248C325.3459,-314.499 330.3715,-235.232 332.7386,-197.8964"/>
<polygon fill="#191970" stroke="#191970" points="336.2414,-197.961 333.3812,-187.7595 329.2554,-197.518 336.2414,-197.961"/>
</g>
<!-- Node20&#45;&gt;Node9 -->
<g id="edge46" class="edge">
<title>Node20&#45;&gt;Node9</title>
<path fill="none" stroke="#191970" d="M332.4928,-341.8845C352.1207,-322.0028 397.3974,-276.1406 422.1274,-251.0908"/>
<polygon fill="#191970" stroke="#191970" points="424.8413,-253.3237 429.3761,-243.7484 419.8598,-248.4058 424.8413,-253.3237"/>
</g>
<!-- Node20&#45;&gt;Node10 -->
<g id="edge47" class="edge">
<title>Node20&#45;&gt;Node10</title>
<path fill="none" stroke="#191970" d="M341.125,-341.8906C360.1083,-331.8262 390.1373,-315.9057 411.9307,-304.3514"/>
<polygon fill="#191970" stroke="#191970" points="413.8066,-307.3184 421.0023,-299.5419 410.5277,-301.1338 413.8066,-307.3184"/>
</g>
<!-- Node21&#45;&gt;Node13 -->
<g id="edge50" class="edge">
<title>Node21&#45;&gt;Node13</title>
<path fill="none" stroke="#191970" d="M364.8064,-627.4509C362.523,-609.184 357.4944,-568.9553 354.4622,-544.6976"/>
<polygon fill="#191970" stroke="#191970" points="357.904,-544.0135 353.1906,-534.5249 350.9581,-544.8818 357.904,-544.0135"/>
</g>
<!-- Node21&#45;&gt;Node22 -->
<g id="edge51" class="edge">
<title>Node21&#45;&gt;Node22</title>
<path fill="none" stroke="#191970" d="M373.0765,-627.4509C386.9812,-608.688 418.0567,-566.7548 435.8401,-542.758"/>
<polygon fill="#191970" stroke="#191970" points="438.7994,-544.6431 441.9414,-534.5249 433.1753,-540.4753 438.7994,-544.6431"/>
</g>
<!-- Node24 -->
<g id="node25" class="node">
<title>Node24</title>
<g id="a_node25"><a xlink:href="ipc__string_source.html" target="_top" xlink:title="cxx/ipc_string">
<polygon fill="#ffffff" stroke="#000000" points="658.5,-571.5 658.5,-590.5 739.5,-590.5 739.5,-571.5 658.5,-571.5"/>
<text text-anchor="middle" x="699" y="-578.5" font-family="Helvetica,sans-Serif" font-size="10.00" fill="#000000">cxx/ipc_string</text>
</a>
</g>
</g>
<!-- Node21&#45;&gt;Node24 -->
<g id="edge58" class="edge">
<title>Node21&#45;&gt;Node24</title>
<path fill="none" stroke="#191970" d="M401.0074,-631.1129C460.0928,-621.1766 579.8332,-601.0401 648.1738,-589.5473"/>
<polygon fill="#191970" stroke="#191970" points="648.996,-592.9583 658.277,-587.8483 647.835,-586.0553 648.996,-592.9583"/>
</g>
<!-- Node22&#45;&gt;Node16 -->
<g id="edge57" class="edge">
<title>Node22&#45;&gt;Node16</title>
<path fill="none" stroke="#191970" d="M447.2581,-515.2455C445.9533,-507.9382 444.124,-497.6944 442.5187,-488.7046"/>
<polygon fill="#191970" stroke="#191970" points="445.9254,-487.8717 440.7219,-478.6427 439.0344,-489.1022 445.9254,-487.8717"/>
</g>
<!-- Node22&#45;&gt;Node18 -->
<g id="edge52" class="edge">
<title>Node22&#45;&gt;Node18</title>
<path fill="none" stroke="#191970" d="M457.7028,-515.2756C470.7171,-501.2238 496.5605,-475.1589 523,-459 546.3997,-444.6989 575.0006,-433.4711 598.2981,-425.6891"/>
<polygon fill="#191970" stroke="#191970" points="599.495,-428.9805 607.9275,-422.566 597.3354,-422.3219 599.495,-428.9805"/>
</g>
<!-- Node23 -->
<g id="node24" class="node">
<title>Node23</title>
<g id="a_node24"><a xlink:href="ipc__types.html" target="_top" xlink:title="l4/sys/cxx/ipc_types">
<polygon fill="#ffffff" stroke="#000000" points="532,-459.5 532,-478.5 642,-478.5 642,-459.5 532,-459.5"/>
<text text-anchor="middle" x="587" y="-466.5" font-family="Helvetica,sans-Serif" font-size="10.00" fill="#000000">l4/sys/cxx/ipc_types</text>
</a>
</g>
</g>
<!-- Node22&#45;&gt;Node23 -->
<g id="edge53" class="edge">
<title>Node22&#45;&gt;Node23</title>
<path fill="none" stroke="#191970" d="M472.723,-515.3733C495.1737,-506.2629 529.0739,-492.5062 554.1255,-482.3404"/>
<polygon fill="#191970" stroke="#191970" points="555.6365,-485.5045 563.5865,-478.5011 553.0043,-479.0182 555.6365,-485.5045"/>
</g>
<!-- Node23&#45;&gt;Node17 -->
<g id="edge55" class="edge">
<title>Node23&#45;&gt;Node17</title>
<path fill="none" stroke="#191970" d="M615.1259,-459.4C637.1614,-451.2744 668.1431,-438.4911 693,-423 718.1897,-407.3015 743.6669,-384.4049 759.851,-368.7796"/>
<polygon fill="#191970" stroke="#191970" points="762.7352,-370.8526 767.4164,-361.348 757.8298,-365.8589 762.7352,-370.8526"/>
</g>
<!-- Node23&#45;&gt;Node18 -->
<g id="edge56" class="edge">
<title>Node23&#45;&gt;Node18</title>
<path fill="none" stroke="#191970" d="M596.5803,-459.2455C604.5458,-451.1352 616.0641,-439.4075 625.5079,-429.7919"/>
<polygon fill="#191970" stroke="#191970" points="628.0195,-432.2297 632.5295,-422.6427 623.0253,-427.3247 628.0195,-432.2297"/>
</g>
<!-- Node23&#45;&gt;Node19 -->
<g id="edge54" class="edge">
<title>Node23&#45;&gt;Node19</title>
<path fill="none" stroke="#191970" d="M571.8458,-459.2455C558.4973,-450.6534 538.8414,-438.0014 523.4617,-428.1018"/>
<polygon fill="#191970" stroke="#191970" points="525.2836,-425.1121 514.9806,-422.6427 521.4949,-430.9982 525.2836,-425.1121"/>
</g>
<!-- Node24&#45;&gt;Node17 -->
<g id="edge59" class="edge">
<title>Node24&#45;&gt;Node17</title>
<path fill="none" stroke="#191970" d="M724.2792,-571.4862C740.0796,-564.1001 759.2245,-552.1922 769,-535 799.0096,-482.2224 788.8062,-406.4495 781.6057,-371.0788"/>
<polygon fill="#191970" stroke="#191970" points="784.9788,-370.1192 779.4282,-361.0948 778.1396,-371.6109 784.9788,-370.1192"/>
</g>
<!-- Node24&#45;&gt;Node18 -->
<g id="edge60" class="edge">
<title>Node24&#45;&gt;Node18</title>
<path fill="none" stroke="#191970" d="M695.7721,-571.4862C686.7227,-544.8144 660.9701,-468.9117 648.6822,-432.695"/>
<polygon fill="#191970" stroke="#191970" points="651.8619,-431.1731 645.3345,-422.8279 645.2331,-433.4222 651.8619,-431.1731"/>
</g>
<!-- Node25 -->
<g id="node26" class="node">
<title>Node25</title>
<g id="a_node26"><a xlink:href="ipc__array_source.html" target="_top" xlink:title="ipc_array">
<polygon fill="#ffffff" stroke="#000000" points="698.5,-515.5 698.5,-534.5 759.5,-534.5 759.5,-515.5 698.5,-515.5"/>
<text text-anchor="middle" x="729" y="-522.5" font-family="Helvetica,sans-Serif" font-size="10.00" fill="#000000">ipc_array</text>
</a>
</g>
</g>
<!-- Node24&#45;&gt;Node25 -->
<g id="edge61" class="edge">
<title>Node24&#45;&gt;Node25</title>
<path fill="none" stroke="#191970" d="M704.2256,-571.2455C708.3123,-563.617 714.1135,-552.7881 719.075,-543.5267"/>
<polygon fill="#191970" stroke="#191970" points="722.1972,-545.1103 723.8343,-534.6427 716.0268,-541.8047 722.1972,-545.1103"/>
</g>
<!-- Node25&#45;&gt;Node17 -->
<g id="edge62" class="edge">
<title>Node25&#45;&gt;Node17</title>
<path fill="none" stroke="#191970" d="M731.6491,-515.4248C739.2693,-487.8807 761.3557,-408.0477 771.6284,-370.916"/>
<polygon fill="#191970" stroke="#191970" points="775.0068,-371.8308 774.3,-361.2595 768.2602,-369.9642 775.0068,-371.8308"/>
</g>
<!-- Node25&#45;&gt;Node18 -->
<g id="edge63" class="edge">
<title>Node25&#45;&gt;Node18</title>
<path fill="none" stroke="#191970" d="M722.999,-515.3009C714.7331,-502.1602 699.1417,-478.1438 684,-459 676.0691,-448.973 666.5065,-438.3971 658.5105,-429.9177"/>
<polygon fill="#191970" stroke="#191970" points="660.871,-427.322 651.4286,-422.5166 655.8133,-432.1615 660.871,-427.322"/>
</g>
<!-- Node25&#45;&gt;Node23 -->
<g id="edge64" class="edge">
<title>Node25&#45;&gt;Node23</title>
<path fill="none" stroke="#191970" d="M704.5893,-515.3733C681.3858,-506.2226 646.2962,-492.3844 620.4858,-482.2057"/>
<polygon fill="#191970" stroke="#191970" points="621.6789,-478.9139 611.0921,-478.5011 619.1108,-485.4258 621.6789,-478.9139"/>
</g>
<!-- Node26&#45;&gt;Node17 -->
<g id="edge67" class="edge">
<title>Node26&#45;&gt;Node17</title>
<path fill="none" stroke="#191970" d="M861.4713,-459.3845C846.0391,-439.6749 810.6155,-394.4328 790.8948,-369.2461"/>
<polygon fill="#191970" stroke="#191970" points="793.5535,-366.9643 784.6328,-361.2484 788.0419,-371.2798 793.5535,-366.9643"/>
</g>
<!-- Node26&#45;&gt;Node18 -->
<g id="edge68" class="edge">
<title>Node26&#45;&gt;Node18</title>
<path fill="none" stroke="#191970" d="M830.2352,-459.4369C791.6308,-449.9133 732.2616,-435.2672 690.5428,-424.9753"/>
<polygon fill="#191970" stroke="#191970" points="691.1521,-421.5208 680.6049,-422.5237 689.4755,-428.317 691.1521,-421.5208"/>
</g>
</g>
</svg>
