<?xml version="1.0" encoding="UTF-8" standalone="no"?>
<!DOCTYPE svg PUBLIC "-//W3C//DTD SVG 1.1//EN"
 "http://www.w3.org/Graphics/SVG/1.1/DTD/svg11.dtd">
<!-- Generated by graphviz version 2.40.1 (20161225.0304)
 -->
<!-- Title: l4/sys/factory.h Pages: 1 -->
<svg width="531pt" height="364pt"
 viewBox="0.00 0.00 531.00 364.00" xmlns="http://www.w3.org/2000/svg" xmlns:xlink="http://www.w3.org/1999/xlink">
<g id="graph0" class="graph" transform="scale(1 1) rotate(0) translate(4 360)">
<title>l4/sys/factory.h</title>
<polygon fill="#ffffff" stroke="transparent" points="-4,4 -4,-360 527,-360 527,4 -4,4"/>
<!-- Node0 -->
<g id="node1" class="node">
<title>Node0</title>
<polygon fill="#bfbfbf" stroke="#000000" points="313.5,-336.5 313.5,-355.5 400.5,-355.5 400.5,-336.5 313.5,-336.5"/>
<text text-anchor="middle" x="357" y="-343.5" font-family="Helvetica,sans-Serif" font-size="10.00" fill="#000000">l4/sys/factory.h</text>
</g>
<!-- Node1 -->
<g id="node2" class="node">
<title>Node1</title>
<g id="a_node2"><a xlink:href="compiler_8h.html" target="_top" xlink:title="L4 compiler related defines. ">
<polygon fill="#ffffff" stroke="#000000" points="334.5,-56.5 334.5,-75.5 429.5,-75.5 429.5,-56.5 334.5,-56.5"/>
<text text-anchor="middle" x="382" y="-63.5" font-family="Helvetica,sans-Serif" font-size="10.00" fill="#000000">l4/sys/compiler.h</text>
</a>
</g>
</g>
<!-- Node0&#45;&gt;Node1 -->
<g id="edge1" class="edge">
<title>Node0&#45;&gt;Node1</title>
<path fill="none" stroke="#191970" d="M400.6145,-336.5828C449.7975,-323.0985 523,-293.1015 523,-234 523,-234 523,-234 523,-178 523,-126.6649 464.986,-95.1046 423.3831,-79.0721"/>
<polygon fill="#191970" stroke="#191970" points="424.5884,-75.7862 413.9951,-75.6062 422.164,-82.353 424.5884,-75.7862"/>
</g>
<!-- Node3 -->
<g id="node4" class="node">
<title>Node3</title>
<g id="a_node4"><a xlink:href="l4_2sys_2types_8h.html" target="_top" xlink:title="Common L4 ABI Data Types. ">
<polygon fill="#ffffff" stroke="#000000" points="219,-168.5 219,-187.5 299,-187.5 299,-168.5 219,-168.5"/>
<text text-anchor="middle" x="259" y="-175.5" font-family="Helvetica,sans-Serif" font-size="10.00" fill="#000000">l4/sys/types.h</text>
</a>
</g>
</g>
<!-- Node0&#45;&gt;Node3 -->
<g id="edge3" class="edge">
<title>Node0&#45;&gt;Node3</title>
<path fill="none" stroke="#191970" d="M347.5357,-336.4543C331.0882,-319.3556 297.159,-281.7496 278,-244 270.58,-229.3801 265.6495,-211.4251 262.6747,-197.9352"/>
<polygon fill="#191970" stroke="#191970" points="266.0422,-196.9299 260.6242,-187.8252 259.1818,-198.3213 266.0422,-196.9299"/>
</g>
<!-- Node8 -->
<g id="node9" class="node">
<title>Node8</title>
<g id="a_node9"><a xlink:href="l4_2sys_2utcb_8h.html" target="_top" xlink:title="UTCB definitions. ">
<polygon fill="#ffffff" stroke="#000000" points="287,-224.5 287,-243.5 361,-243.5 361,-224.5 287,-224.5"/>
<text text-anchor="middle" x="324" y="-231.5" font-family="Helvetica,sans-Serif" font-size="10.00" fill="#000000">l4/sys/utcb.h</text>
</a>
</g>
</g>
<!-- Node0&#45;&gt;Node8 -->
<g id="edge13" class="edge">
<title>Node0&#45;&gt;Node8</title>
<path fill="none" stroke="#191970" d="M354.1864,-336.4509C348.7798,-318.1013 336.8437,-277.5908 329.707,-253.3693"/>
<polygon fill="#191970" stroke="#191970" points="332.9901,-252.128 326.8064,-243.5249 326.2755,-254.1064 332.9901,-252.128"/>
</g>
<!-- Node9 -->
<g id="node10" class="node">
<title>Node9</title>
<g id="a_node10"><a xlink:href="l4_2sys_2ipc_8h.html" target="_top" xlink:title="Common IPC interface. ">
<polygon fill="#ffffff" stroke="#000000" points="354,-280.5 354,-299.5 422,-299.5 422,-280.5 354,-280.5"/>
<text text-anchor="middle" x="388" y="-287.5" font-family="Helvetica,sans-Serif" font-size="10.00" fill="#000000">l4/sys/ipc.h</text>
</a>
</g>
</g>
<!-- Node0&#45;&gt;Node9 -->
<g id="edge17" class="edge">
<title>Node0&#45;&gt;Node9</title>
<path fill="none" stroke="#191970" d="M362.3998,-336.2455C366.6227,-328.617 372.6173,-317.7881 377.7441,-308.5267"/>
<polygon fill="#191970" stroke="#191970" points="380.881,-310.0867 382.6621,-299.6427 374.7568,-306.6965 380.881,-310.0867"/>
</g>
<!-- Node2 -->
<g id="node3" class="node">
<title>Node2</title>
<polygon fill="#ffffff" stroke="#bfbfbf" points="337.5,-.5 337.5,-19.5 426.5,-19.5 426.5,-.5 337.5,-.5"/>
<text text-anchor="middle" x="382" y="-7.5" font-family="Helvetica,sans-Serif" font-size="10.00" fill="#000000">l4/sys/linkage.h</text>
</g>
<!-- Node1&#45;&gt;Node2 -->
<g id="edge2" class="edge">
<title>Node1&#45;&gt;Node2</title>
<path fill="none" stroke="#191970" d="M382,-56.2455C382,-48.9382 382,-38.6944 382,-29.7046"/>
<polygon fill="#191970" stroke="#191970" points="385.5001,-29.6426 382,-19.6427 378.5001,-29.6427 385.5001,-29.6426"/>
</g>
<!-- Node3&#45;&gt;Node1 -->
<g id="edge5" class="edge">
<title>Node3&#45;&gt;Node1</title>
<path fill="none" stroke="#191970" d="M259.2989,-168.2794C260.2295,-154.2324 263.891,-128.1735 278,-112 291.5939,-96.417 311.4739,-85.8849 330.2203,-78.8794"/>
<polygon fill="#191970" stroke="#191970" points="331.5796,-82.1125 339.8809,-75.5293 329.2861,-75.4989 331.5796,-82.1125"/>
</g>
<!-- Node4 -->
<g id="node5" class="node">
<title>Node4</title>
<g id="a_node5"><a xlink:href="l4_2sys_2l4int_8h.html" target="_top" xlink:title="Fixed sized integer types, generic version. ">
<polygon fill="#ffffff" stroke="#000000" points="0,-56.5 0,-75.5 74,-75.5 74,-56.5 0,-56.5"/>
<text text-anchor="middle" x="37" y="-63.5" font-family="Helvetica,sans-Serif" font-size="10.00" fill="#000000">l4/sys/l4int.h</text>
</a>
</g>
</g>
<!-- Node3&#45;&gt;Node4 -->
<g id="edge4" class="edge">
<title>Node3&#45;&gt;Node4</title>
<path fill="none" stroke="#191970" d="M218.8881,-176.3914C156.6446,-172.9592 41.3035,-162.5429 16,-132 4.6731,-118.3277 13.3987,-98.4706 22.8132,-84.1116"/>
<polygon fill="#191970" stroke="#191970" points="25.9348,-85.7628 28.8955,-75.59 20.2372,-81.6961 25.9348,-85.7628"/>
</g>
<!-- Node5 -->
<g id="node6" class="node">
<title>Node5</title>
<g id="a_node6"><a xlink:href="l4_2sys_2consts_8h.html" target="_top" xlink:title="Common constants. ">
<polygon fill="#ffffff" stroke="#000000" points="145,-112.5 145,-131.5 231,-131.5 231,-112.5 145,-112.5"/>
<text text-anchor="middle" x="188" y="-119.5" font-family="Helvetica,sans-Serif" font-size="10.00" fill="#000000">l4/sys/consts.h</text>
</a>
</g>
</g>
<!-- Node3&#45;&gt;Node5 -->
<g id="edge6" class="edge">
<title>Node3&#45;&gt;Node5</title>
<path fill="none" stroke="#191970" d="M246.6327,-168.2455C236.0446,-159.8943 220.5936,-147.7076 208.2107,-137.9408"/>
<polygon fill="#191970" stroke="#191970" points="210.2447,-135.0875 200.2255,-131.6427 205.9097,-140.5837 210.2447,-135.0875"/>
</g>
<!-- Node6 -->
<g id="node7" class="node">
<title>Node6</title>
<g id="a_node7"><a xlink:href="____l4__fpage_8h_source.html" target="_top" xlink:title="l4/sys/__l4_fpage.h">
<polygon fill="#ffffff" stroke="#000000" points="287,-112.5 287,-131.5 395,-131.5 395,-112.5 287,-112.5"/>
<text text-anchor="middle" x="341" y="-119.5" font-family="Helvetica,sans-Serif" font-size="10.00" fill="#000000">l4/sys/__l4_fpage.h</text>
</a>
</g>
</g>
<!-- Node3&#45;&gt;Node6 -->
<g id="edge9" class="edge">
<title>Node3&#45;&gt;Node6</title>
<path fill="none" stroke="#191970" d="M273.2833,-168.2455C285.747,-159.7337 304.0451,-147.2375 318.4792,-137.3801"/>
<polygon fill="#191970" stroke="#191970" points="320.5962,-140.1726 326.8804,-131.6427 316.6485,-134.392 320.5962,-140.1726"/>
</g>
<!-- Node7 -->
<g id="node8" class="node">
<title>Node7</title>
<g id="a_node8"><a xlink:href="____timeout_8h_source.html" target="_top" xlink:title="l4/sys/__timeout.h">
<polygon fill="#ffffff" stroke="#000000" points="25.5,-112.5 25.5,-131.5 126.5,-131.5 126.5,-112.5 25.5,-112.5"/>
<text text-anchor="middle" x="76" y="-119.5" font-family="Helvetica,sans-Serif" font-size="10.00" fill="#000000">l4/sys/__timeout.h</text>
</a>
</g>
</g>
<!-- Node3&#45;&gt;Node7 -->
<g id="edge11" class="edge">
<title>Node3&#45;&gt;Node7</title>
<path fill="none" stroke="#191970" d="M227.5412,-168.3733C196.9793,-159.021 150.4174,-144.7725 116.9739,-134.5385"/>
<polygon fill="#191970" stroke="#191970" points="117.6348,-131.0806 107.0483,-131.5011 115.5864,-137.7742 117.6348,-131.0806"/>
</g>
<!-- Node5&#45;&gt;Node1 -->
<g id="edge7" class="edge">
<title>Node5&#45;&gt;Node1</title>
<path fill="none" stroke="#191970" d="M221.3498,-112.3733C254.028,-102.9404 303.9618,-88.5265 339.477,-78.2747"/>
<polygon fill="#191970" stroke="#191970" points="340.4484,-81.6373 349.0854,-75.5011 338.507,-74.9119 340.4484,-81.6373"/>
</g>
<!-- Node5&#45;&gt;Node4 -->
<g id="edge8" class="edge">
<title>Node5&#45;&gt;Node4</title>
<path fill="none" stroke="#191970" d="M162.0422,-112.3733C137.2593,-103.1822 99.7254,-89.2624 72.246,-79.0713"/>
<polygon fill="#191970" stroke="#191970" points="73.2121,-75.6968 62.6191,-75.5011 70.7781,-82.26 73.2121,-75.6968"/>
</g>
<!-- Node6&#45;&gt;Node1 -->
<g id="edge10" class="edge">
<title>Node6&#45;&gt;Node1</title>
<path fill="none" stroke="#191970" d="M348.1417,-112.2455C353.8444,-104.4564 361.99,-93.3308 368.8625,-83.9439"/>
<polygon fill="#191970" stroke="#191970" points="371.8568,-85.7789 374.9402,-75.6427 366.2087,-81.6437 371.8568,-85.7789"/>
</g>
<!-- Node7&#45;&gt;Node4 -->
<g id="edge12" class="edge">
<title>Node7&#45;&gt;Node4</title>
<path fill="none" stroke="#191970" d="M69.2067,-112.2455C63.7822,-104.4564 56.0339,-93.3308 49.4967,-83.9439"/>
<polygon fill="#191970" stroke="#191970" points="52.3025,-81.8485 43.7154,-75.6427 46.5583,-85.849 52.3025,-81.8485"/>
</g>
<!-- Node8&#45;&gt;Node1 -->
<g id="edge15" class="edge">
<title>Node8&#45;&gt;Node1</title>
<path fill="none" stroke="#191970" d="M335.3081,-224.434C353.9071,-207.869 390.2612,-171.7791 404,-132 409.5208,-116.0152 402.4215,-97.7726 394.8554,-84.5236"/>
<polygon fill="#191970" stroke="#191970" points="397.708,-82.4841 389.4373,-75.8624 391.7735,-86.1965 397.708,-82.4841"/>
</g>
<!-- Node8&#45;&gt;Node3 -->
<g id="edge14" class="edge">
<title>Node8&#45;&gt;Node3</title>
<path fill="none" stroke="#191970" d="M312.6779,-224.2455C303.0777,-215.9746 289.1108,-203.9416 277.8305,-194.2232"/>
<polygon fill="#191970" stroke="#191970" points="280.053,-191.5182 270.1924,-187.6427 275.484,-196.8214 280.053,-191.5182"/>
</g>
<!-- Node8&#45;&gt;Node4 -->
<g id="edge16" class="edge">
<title>Node8&#45;&gt;Node4</title>
<path fill="none" stroke="#191970" d="M286.8826,-227.6305C210.6102,-213.7061 40.5805,-178.0811 7,-132 -4.0299,-116.8642 7.8974,-97.0261 19.8209,-83.0655"/>
<polygon fill="#191970" stroke="#191970" points="22.4848,-85.3392 26.6673,-75.6048 17.3272,-80.6063 22.4848,-85.3392"/>
</g>
<!-- Node9&#45;&gt;Node3 -->
<g id="edge18" class="edge">
<title>Node9&#45;&gt;Node3</title>
<path fill="none" stroke="#191970" d="M387.9187,-280.2449C387.2886,-266.1548 384.1301,-240.0428 370,-224 354.2176,-206.0811 330.3561,-194.9897 308.7961,-188.2028"/>
<polygon fill="#191970" stroke="#191970" points="309.6691,-184.8117 299.0894,-185.3783 307.7132,-191.5329 309.6691,-184.8117"/>
</g>
<!-- Node9&#45;&gt;Node8 -->
<g id="edge19" class="edge">
<title>Node9&#45;&gt;Node8</title>
<path fill="none" stroke="#191970" d="M376.8521,-280.2455C367.4913,-272.0549 353.9142,-260.1749 342.8651,-250.5069"/>
<polygon fill="#191970" stroke="#191970" points="344.8508,-247.5937 335.0202,-243.6427 340.2412,-252.8618 344.8508,-247.5937"/>
</g>
<!-- Node10 -->
<g id="node11" class="node">
<title>Node10</title>
<g id="a_node11"><a xlink:href="err_8h.html" target="_top" xlink:title="Error codes. ">
<polygon fill="#ffffff" stroke="#000000" points="427,-168.5 427,-187.5 495,-187.5 495,-168.5 427,-168.5"/>
<text text-anchor="middle" x="461" y="-175.5" font-family="Helvetica,sans-Serif" font-size="10.00" fill="#000000">l4/sys/err.h</text>
</a>
</g>
</g>
<!-- Node9&#45;&gt;Node10 -->
<g id="edge20" class="edge">
<title>Node9&#45;&gt;Node10</title>
<path fill="none" stroke="#191970" d="M394.2239,-280.4509C406.3995,-261.7707 433.5443,-220.1238 449.2182,-196.0761"/>
<polygon fill="#191970" stroke="#191970" points="452.2635,-197.8137 454.7918,-187.5249 446.3992,-193.9913 452.2635,-197.8137"/>
</g>
<!-- Node10&#45;&gt;Node1 -->
<g id="edge21" class="edge">
<title>Node10&#45;&gt;Node1</title>
<path fill="none" stroke="#191970" d="M459.1437,-168.3013C456.1957,-154.7366 449.4597,-129.7694 437,-112 428.6541,-100.0975 416.4773,-89.4818 405.7014,-81.4558"/>
<polygon fill="#191970" stroke="#191970" points="407.6386,-78.5387 397.4597,-75.5992 403.5838,-84.2447 407.6386,-78.5387"/>
</g>
</g>
</svg>
