<?xml version="1.0" encoding="UTF-8" standalone="no"?>
<!DOCTYPE svg PUBLIC "-//W3C//DTD SVG 1.1//EN"
 "http://www.w3.org/Graphics/SVG/1.1/DTD/svg11.dtd">
<!-- Generated by graphviz version 2.40.1 (20161225.0304)
 -->
<!-- Title: l4/re/c/util/video/goos_fb.h Pages: 1 -->
<svg width="520pt" height="431pt"
 viewBox="0.00 0.00 519.50 431.00" xmlns="http://www.w3.org/2000/svg" xmlns:xlink="http://www.w3.org/1999/xlink">
<g id="graph0" class="graph" transform="scale(1 1) rotate(0) translate(4 427)">
<title>l4/re/c/util/video/goos_fb.h</title>
<polygon fill="#ffffff" stroke="transparent" points="-4,4 -4,-427 515.5,-427 515.5,4 -4,4"/>
<!-- Node0 -->
<g id="node1" class="node">
<title>Node0</title>
<polygon fill="#bfbfbf" stroke="#000000" points="99,-392.5 99,-422.5 189,-422.5 189,-392.5 99,-392.5"/>
<text text-anchor="start" x="107" y="-410.5" font-family="Helvetica,sans-Serif" font-size="10.00" fill="#000000">l4/re/c/util/video</text>
<text text-anchor="middle" x="144" y="-399.5" font-family="Helvetica,sans-Serif" font-size="10.00" fill="#000000">/goos_fb.h</text>
</g>
<!-- Node1 -->
<g id="node2" class="node">
<title>Node1</title>
<g id="a_node2"><a xlink:href="compiler_8h.html" target="_top" xlink:title="L4 compiler related defines. ">
<polygon fill="#ffffff" stroke="#000000" points="69.5,-56.5 69.5,-75.5 164.5,-75.5 164.5,-56.5 69.5,-56.5"/>
<text text-anchor="middle" x="117" y="-63.5" font-family="Helvetica,sans-Serif" font-size="10.00" fill="#000000">l4/sys/compiler.h</text>
</a>
</g>
</g>
<!-- Node0&#45;&gt;Node1 -->
<g id="edge1" class="edge">
<title>Node0&#45;&gt;Node1</title>
<path fill="none" stroke="#191970" d="M99.2269,-392.4282C56.9553,-375.03 0,-341.9492 0,-290 0,-290 0,-290 0,-178 0,-130.9642 49.9528,-97.5778 84.5789,-80.0853"/>
<polygon fill="#191970" stroke="#191970" points="86.4125,-83.0861 93.8846,-75.5748 83.3593,-76.787 86.4125,-83.0861"/>
</g>
<!-- Node3 -->
<g id="node4" class="node">
<title>Node3</title>
<g id="a_node4"><a xlink:href="goos_8h.html" target="_top" xlink:title="l4/re/c/video/goos.h">
<polygon fill="#ffffff" stroke="#000000" points="131.5,-336.5 131.5,-355.5 240.5,-355.5 240.5,-336.5 131.5,-336.5"/>
<text text-anchor="middle" x="186" y="-343.5" font-family="Helvetica,sans-Serif" font-size="10.00" fill="#000000">l4/re/c/video/goos.h</text>
</a>
</g>
</g>
<!-- Node0&#45;&gt;Node3 -->
<g id="edge3" class="edge">
<title>Node0&#45;&gt;Node3</title>
<path fill="none" stroke="#191970" d="M154.382,-392.2977C160.1513,-383.8498 167.3716,-373.2773 173.4553,-364.369"/>
<polygon fill="#191970" stroke="#191970" points="176.5259,-366.0788 179.2753,-355.8469 170.7453,-362.1311 176.5259,-366.0788"/>
</g>
<!-- Node9 -->
<g id="node10" class="node">
<title>Node9</title>
<g id="a_node10"><a xlink:href="dataspace_8h.html" target="_top" xlink:title="Data space C interface. ">
<polygon fill="#ffffff" stroke="#000000" points="296.5,-224.5 296.5,-243.5 403.5,-243.5 403.5,-224.5 296.5,-224.5"/>
<text text-anchor="middle" x="350" y="-231.5" font-family="Helvetica,sans-Serif" font-size="10.00" fill="#000000">l4/re/c/dataspace.h</text>
</a>
</g>
</g>
<!-- Node0&#45;&gt;Node9 -->
<g id="edge24" class="edge">
<title>Node0&#45;&gt;Node9</title>
<path fill="none" stroke="#191970" d="M189.0303,-398.6297C238.6496,-386.1592 315.9338,-358.1212 350,-300 358.138,-286.1156 357.3462,-267.5997 354.9736,-253.7137"/>
<polygon fill="#191970" stroke="#191970" points="358.3601,-252.8098 352.8723,-243.747 351.5107,-254.2539 358.3601,-252.8098"/>
</g>
<!-- Node12 -->
<g id="node13" class="node">
<title>Node12</title>
<g id="a_node13"><a xlink:href="err_8h.html" target="_top" xlink:title="Error codes. ">
<polygon fill="#ffffff" stroke="#000000" points="51,-280.5 51,-299.5 119,-299.5 119,-280.5 51,-280.5"/>
<text text-anchor="middle" x="85" y="-287.5" font-family="Helvetica,sans-Serif" font-size="10.00" fill="#000000">l4/sys/err.h</text>
</a>
</g>
</g>
<!-- Node0&#45;&gt;Node12 -->
<g id="edge22" class="edge">
<title>Node0&#45;&gt;Node12</title>
<path fill="none" stroke="#191970" d="M136.2868,-392.1389C125.5119,-370.6806 105.9758,-331.7738 94.3748,-308.6702"/>
<polygon fill="#191970" stroke="#191970" points="97.4153,-306.9256 89.8001,-299.5595 91.1596,-310.0667 97.4153,-306.9256"/>
</g>
<!-- Node2 -->
<g id="node3" class="node">
<title>Node2</title>
<polygon fill="#ffffff" stroke="#bfbfbf" points="72.5,-.5 72.5,-19.5 161.5,-19.5 161.5,-.5 72.5,-.5"/>
<text text-anchor="middle" x="117" y="-7.5" font-family="Helvetica,sans-Serif" font-size="10.00" fill="#000000">l4/sys/linkage.h</text>
</g>
<!-- Node1&#45;&gt;Node2 -->
<g id="edge2" class="edge">
<title>Node1&#45;&gt;Node2</title>
<path fill="none" stroke="#191970" d="M117,-56.2455C117,-48.9382 117,-38.6944 117,-29.7046"/>
<polygon fill="#191970" stroke="#191970" points="120.5001,-29.6426 117,-19.6427 113.5001,-29.6427 120.5001,-29.6426"/>
</g>
<!-- Node4 -->
<g id="node5" class="node">
<title>Node4</title>
<g id="a_node5"><a xlink:href="l4_2sys_2types_8h.html" target="_top" xlink:title="Common L4 ABI Data Types. ">
<polygon fill="#ffffff" stroke="#000000" points="249,-168.5 249,-187.5 329,-187.5 329,-168.5 249,-168.5"/>
<text text-anchor="middle" x="289" y="-175.5" font-family="Helvetica,sans-Serif" font-size="10.00" fill="#000000">l4/sys/types.h</text>
</a>
</g>
</g>
<!-- Node3&#45;&gt;Node4 -->
<g id="edge4" class="edge">
<title>Node3&#45;&gt;Node4</title>
<path fill="none" stroke="#191970" d="M187.7406,-336.1434C190.3644,-322.8242 196.1081,-298.6062 206,-280 223.6299,-246.8392 252.8738,-214.1788 271.5265,-195.0679"/>
<polygon fill="#191970" stroke="#191970" points="274.2385,-197.3043 278.8073,-187.7452 269.2746,-192.3688 274.2385,-197.3043"/>
</g>
<!-- Node3&#45;&gt;Node9 -->
<g id="edge14" class="edge">
<title>Node3&#45;&gt;Node9</title>
<path fill="none" stroke="#191970" d="M231.7828,-336.4288C268.825,-327.8135 317.0454,-314.3351 331,-300 342.9299,-287.7448 347.456,-268.5028 349.1297,-253.9509"/>
<polygon fill="#191970" stroke="#191970" points="352.6226,-254.1773 349.929,-243.9306 345.6448,-253.6206 352.6226,-254.1773"/>
</g>
<!-- Node10 -->
<g id="node11" class="node">
<title>Node10</title>
<g id="a_node11"><a xlink:href="colors_8h.html" target="_top" xlink:title="l4/re/c/video/colors.h">
<polygon fill="#ffffff" stroke="#000000" points="66,-224.5 66,-243.5 180,-243.5 180,-224.5 66,-224.5"/>
<text text-anchor="middle" x="123" y="-231.5" font-family="Helvetica,sans-Serif" font-size="10.00" fill="#000000">l4/re/c/video/colors.h</text>
</a>
</g>
</g>
<!-- Node3&#45;&gt;Node10 -->
<g id="edge16" class="edge">
<title>Node3&#45;&gt;Node10</title>
<path fill="none" stroke="#191970" d="M180.6287,-336.4509C170.1675,-317.8533 146.9017,-276.4919 133.348,-252.3964"/>
<polygon fill="#191970" stroke="#191970" points="136.3109,-250.5247 128.3577,-243.5249 130.2099,-253.9566 136.3109,-250.5247"/>
</g>
<!-- Node11 -->
<g id="node12" class="node">
<title>Node11</title>
<g id="a_node12"><a xlink:href="view_8h.html" target="_top" xlink:title="l4/re/c/video/view.h">
<polygon fill="#ffffff" stroke="#000000" points="214.5,-280.5 214.5,-299.5 321.5,-299.5 321.5,-280.5 214.5,-280.5"/>
<text text-anchor="middle" x="268" y="-287.5" font-family="Helvetica,sans-Serif" font-size="10.00" fill="#000000">l4/re/c/video/view.h</text>
</a>
</g>
</g>
<!-- Node3&#45;&gt;Node11 -->
<g id="edge18" class="edge">
<title>Node3&#45;&gt;Node11</title>
<path fill="none" stroke="#191970" d="M200.2833,-336.2455C212.747,-327.7337 231.0451,-315.2375 245.4792,-305.3801"/>
<polygon fill="#191970" stroke="#191970" points="247.5962,-308.1726 253.8804,-299.6427 243.6485,-302.392 247.5962,-308.1726"/>
</g>
<!-- Node4&#45;&gt;Node1 -->
<g id="edge6" class="edge">
<title>Node4&#45;&gt;Node1</title>
<path fill="none" stroke="#191970" d="M281.07,-168.3818C269.1947,-154.4623 245.5499,-128.5607 221,-112 200.7457,-98.337 175.7711,-87.1343 155.3727,-79.2061"/>
<polygon fill="#191970" stroke="#191970" points="156.359,-75.8374 145.7672,-75.5806 153.8871,-82.3864 156.359,-75.8374"/>
</g>
<!-- Node5 -->
<g id="node6" class="node">
<title>Node5</title>
<g id="a_node6"><a xlink:href="l4_2sys_2l4int_8h.html" target="_top" xlink:title="Fixed sized integer types, generic version. ">
<polygon fill="#ffffff" stroke="#000000" points="345,-56.5 345,-75.5 419,-75.5 419,-56.5 345,-56.5"/>
<text text-anchor="middle" x="382" y="-63.5" font-family="Helvetica,sans-Serif" font-size="10.00" fill="#000000">l4/sys/l4int.h</text>
</a>
</g>
</g>
<!-- Node4&#45;&gt;Node5 -->
<g id="edge5" class="edge">
<title>Node4&#45;&gt;Node5</title>
<path fill="none" stroke="#191970" d="M313.2949,-168.4669C329.591,-160.8914 350.3174,-148.7712 363,-132 373.1013,-118.6422 377.8378,-100.075 380.0556,-86.0355"/>
<polygon fill="#191970" stroke="#191970" points="383.5507,-86.2963 381.3486,-75.9328 376.6073,-85.4076 383.5507,-86.2963"/>
</g>
<!-- Node6 -->
<g id="node7" class="node">
<title>Node6</title>
<g id="a_node7"><a xlink:href="l4_2sys_2consts_8h.html" target="_top" xlink:title="Common constants. ">
<polygon fill="#ffffff" stroke="#000000" points="268,-112.5 268,-131.5 354,-131.5 354,-112.5 268,-112.5"/>
<text text-anchor="middle" x="311" y="-119.5" font-family="Helvetica,sans-Serif" font-size="10.00" fill="#000000">l4/sys/consts.h</text>
</a>
</g>
</g>
<!-- Node4&#45;&gt;Node6 -->
<g id="edge7" class="edge">
<title>Node4&#45;&gt;Node6</title>
<path fill="none" stroke="#191970" d="M292.8321,-168.2455C295.7659,-160.7776 299.9047,-150.2427 303.491,-141.1137"/>
<polygon fill="#191970" stroke="#191970" points="306.8129,-142.23 307.2118,-131.6427 300.2976,-139.6704 306.8129,-142.23"/>
</g>
<!-- Node7 -->
<g id="node8" class="node">
<title>Node7</title>
<g id="a_node8"><a xlink:href="____l4__fpage_8h_source.html" target="_top" xlink:title="l4/sys/__l4_fpage.h">
<polygon fill="#ffffff" stroke="#000000" points="104,-112.5 104,-131.5 212,-131.5 212,-112.5 104,-112.5"/>
<text text-anchor="middle" x="158" y="-119.5" font-family="Helvetica,sans-Serif" font-size="10.00" fill="#000000">l4/sys/__l4_fpage.h</text>
</a>
</g>
</g>
<!-- Node4&#45;&gt;Node7 -->
<g id="edge10" class="edge">
<title>Node4&#45;&gt;Node7</title>
<path fill="none" stroke="#191970" d="M266.4803,-168.3733C245.2628,-159.3032 213.2724,-145.6279 189.5231,-135.4755"/>
<polygon fill="#191970" stroke="#191970" points="190.7967,-132.2136 180.2258,-131.5011 188.0452,-138.6502 190.7967,-132.2136"/>
</g>
<!-- Node8 -->
<g id="node9" class="node">
<title>Node8</title>
<g id="a_node9"><a xlink:href="____timeout_8h_source.html" target="_top" xlink:title="l4/sys/__timeout.h">
<polygon fill="#ffffff" stroke="#000000" points="410.5,-112.5 410.5,-131.5 511.5,-131.5 511.5,-112.5 410.5,-112.5"/>
<text text-anchor="middle" x="461" y="-119.5" font-family="Helvetica,sans-Serif" font-size="10.00" fill="#000000">l4/sys/__timeout.h</text>
</a>
</g>
</g>
<!-- Node4&#45;&gt;Node8 -->
<g id="edge12" class="edge">
<title>Node4&#45;&gt;Node8</title>
<path fill="none" stroke="#191970" d="M318.5679,-168.3733C347.1688,-159.0613 390.6788,-144.8953 422.0819,-134.671"/>
<polygon fill="#191970" stroke="#191970" points="423.3928,-137.9251 431.818,-131.5011 421.2257,-131.269 423.3928,-137.9251"/>
</g>
<!-- Node6&#45;&gt;Node1 -->
<g id="edge8" class="edge">
<title>Node6&#45;&gt;Node1</title>
<path fill="none" stroke="#191970" d="M277.6502,-112.3733C244.972,-102.9404 195.0382,-88.5265 159.523,-78.2747"/>
<polygon fill="#191970" stroke="#191970" points="160.493,-74.9119 149.9146,-75.5011 158.5516,-81.6373 160.493,-74.9119"/>
</g>
<!-- Node6&#45;&gt;Node5 -->
<g id="edge9" class="edge">
<title>Node6&#45;&gt;Node5</title>
<path fill="none" stroke="#191970" d="M323.3673,-112.2455C333.9554,-103.8943 349.4064,-91.7076 361.7893,-81.9408"/>
<polygon fill="#191970" stroke="#191970" points="364.0903,-84.5837 369.7745,-75.6427 359.7553,-79.0875 364.0903,-84.5837"/>
</g>
<!-- Node7&#45;&gt;Node1 -->
<g id="edge11" class="edge">
<title>Node7&#45;&gt;Node1</title>
<path fill="none" stroke="#191970" d="M150.8583,-112.2455C145.1556,-104.4564 137.01,-93.3308 130.1375,-83.9439"/>
<polygon fill="#191970" stroke="#191970" points="132.7913,-81.6437 124.0598,-75.6427 127.1432,-85.7789 132.7913,-81.6437"/>
</g>
<!-- Node8&#45;&gt;Node5 -->
<g id="edge13" class="edge">
<title>Node8&#45;&gt;Node5</title>
<path fill="none" stroke="#191970" d="M447.2393,-112.2455C435.3448,-103.814 417.935,-91.4729 404.0915,-81.6598"/>
<polygon fill="#191970" stroke="#191970" points="405.7854,-78.5704 395.6031,-75.6427 401.7372,-84.2811 405.7854,-78.5704"/>
</g>
<!-- Node9&#45;&gt;Node4 -->
<g id="edge15" class="edge">
<title>Node9&#45;&gt;Node4</title>
<path fill="none" stroke="#191970" d="M339.3746,-224.2455C330.4527,-216.0549 317.512,-204.1749 306.9808,-194.5069"/>
<polygon fill="#191970" stroke="#191970" points="309.2371,-191.8271 299.5036,-187.6427 304.5032,-196.9837 309.2371,-191.8271"/>
</g>
<!-- Node10&#45;&gt;Node1 -->
<g id="edge17" class="edge">
<title>Node10&#45;&gt;Node1</title>
<path fill="none" stroke="#191970" d="M117.7148,-224.1993C107.2159,-203.4899 85.53,-153.75 95,-112 97.144,-102.548 101.478,-92.7672 105.7367,-84.6675"/>
<polygon fill="#191970" stroke="#191970" points="108.8961,-86.1895 110.7417,-75.7567 102.7929,-82.7615 108.8961,-86.1895"/>
</g>
<!-- Node11&#45;&gt;Node4 -->
<g id="edge19" class="edge">
<title>Node11&#45;&gt;Node4</title>
<path fill="none" stroke="#191970" d="M269.7904,-280.4509C273.231,-262.1013 280.8267,-221.5908 285.3683,-197.3693"/>
<polygon fill="#191970" stroke="#191970" points="288.8112,-197.9986 287.2141,-187.5249 281.9311,-196.7086 288.8112,-197.9986"/>
</g>
<!-- Node11&#45;&gt;Node9 -->
<g id="edge20" class="edge">
<title>Node11&#45;&gt;Node9</title>
<path fill="none" stroke="#191970" d="M282.2833,-280.2455C294.747,-271.7337 313.0451,-259.2375 327.4792,-249.3801"/>
<polygon fill="#191970" stroke="#191970" points="329.5962,-252.1726 335.8804,-243.6427 325.6485,-246.392 329.5962,-252.1726"/>
</g>
<!-- Node11&#45;&gt;Node10 -->
<g id="edge21" class="edge">
<title>Node11&#45;&gt;Node10</title>
<path fill="none" stroke="#191970" d="M243.0736,-280.3733C219.3798,-271.2226 183.5489,-257.3844 157.1932,-247.2057"/>
<polygon fill="#191970" stroke="#191970" points="158.1906,-243.8389 147.6011,-243.5011 155.6686,-250.3689 158.1906,-243.8389"/>
</g>
<!-- Node12&#45;&gt;Node1 -->
<g id="edge23" class="edge">
<title>Node12&#45;&gt;Node1</title>
<path fill="none" stroke="#191970" d="M76.7911,-280.1677C69.9886,-271.3343 60.8369,-257.6831 57,-244 54.6,-235.4412 55.8035,-232.808 57,-224 63.9522,-172.8207 67.1159,-159.2388 88,-112 92.2712,-102.3388 98.3487,-92.3354 103.8376,-84.1345"/>
<polygon fill="#191970" stroke="#191970" points="106.8271,-85.9657 109.6569,-75.7557 101.0778,-81.9725 106.8271,-85.9657"/>
</g>
</g>
</svg>
