<?xml version="1.0" encoding="UTF-8" standalone="no"?>
<!DOCTYPE svg PUBLIC "-//W3C//DTD SVG 1.1//EN"
 "http://www.w3.org/Graphics/SVG/1.1/DTD/svg11.dtd">
<!-- Generated by graphviz version 2.40.1 (20161225.0304)
 -->
<!-- Title: l4_busy_wait_ns Pages: 1 -->
<svg width="215pt" height="66pt"
 viewBox="0.00 0.00 215.00 66.00" xmlns="http://www.w3.org/2000/svg" xmlns:xlink="http://www.w3.org/1999/xlink">
<g id="graph0" class="graph" transform="scale(1 1) rotate(0) translate(4 62)">
<title>l4_busy_wait_ns</title>
<polygon fill="#ffffff" stroke="transparent" points="-4,4 -4,-62 211,-62 211,4 -4,4"/>
<!-- Node0 -->
<g id="node1" class="node">
<title>Node0</title>
<polygon fill="#bfbfbf" stroke="#000000" points="0,-19.5 0,-38.5 94,-38.5 94,-19.5 0,-19.5"/>
<text text-anchor="middle" x="47" y="-26.5" font-family="Helvetica,sans-Serif" font-size="10.00" fill="#000000">l4_busy_wait_ns</text>
</g>
<!-- Node1 -->
<g id="node2" class="node">
<title>Node1</title>
<g id="a_node2"><a xlink:href="group__l4util__tsc.html#ga8aee7e04f45212bea302d72e1496262b" target="_top" xlink:title="Convert nano seconds into CPU ticks. ">
<polygon fill="#ffffff" stroke="#000000" points="130,-38.5 130,-57.5 207,-57.5 207,-38.5 130,-38.5"/>
<text text-anchor="middle" x="168.5" y="-45.5" font-family="Helvetica,sans-Serif" font-size="10.00" fill="#000000">l4_ns_to_tsc</text>
</a>
</g>
</g>
<!-- Node0&#45;&gt;Node1 -->
<g id="edge1" class="edge">
<title>Node0&#45;&gt;Node1</title>
<path fill="none" stroke="#191970" d="M94.323,-36.4003C102.6602,-37.7041 111.3526,-39.0634 119.7286,-40.3732"/>
<polygon fill="#191970" stroke="#191970" points="119.3228,-43.8522 129.7435,-41.9393 120.4043,-36.9362 119.3228,-43.8522"/>
</g>
<!-- Node2 -->
<g id="node3" class="node">
<title>Node2</title>
<g id="a_node3"><a xlink:href="group__l4util__tsc.html#ga560ae83d3afe878e0aaf8a95b987f923" target="_top" xlink:title="Read current value of CPU&#45;internal time stamp counter. ">
<polygon fill="#ffffff" stroke="#000000" points="141.5,-.5 141.5,-19.5 195.5,-19.5 195.5,-.5 141.5,-.5"/>
<text text-anchor="middle" x="168.5" y="-7.5" font-family="Helvetica,sans-Serif" font-size="10.00" fill="#000000">l4_rdtsc</text>
</a>
</g>
</g>
<!-- Node0&#45;&gt;Node2 -->
<g id="edge2" class="edge">
<title>Node0&#45;&gt;Node2</title>
<path fill="none" stroke="#191970" d="M94.323,-21.5997C106.6914,-19.6655 119.8414,-17.6092 131.5807,-15.7734"/>
<polygon fill="#191970" stroke="#191970" points="132.1395,-19.2286 141.4786,-14.2256 131.0579,-12.3127 132.1395,-19.2286"/>
</g>
</g>
</svg>
