<?xml version="1.0" encoding="UTF-8" standalone="no"?>
<!DOCTYPE svg PUBLIC "-//W3C//DTD SVG 1.1//EN"
 "http://www.w3.org/Graphics/SVG/1.1/DTD/svg11.dtd">
<!-- Generated by graphviz version 2.40.1 (20161225.0304)
 -->
<!-- Title: L4Re C Interface Pages: 1 -->
<svg width="263pt" height="484pt"
 viewBox="0.00 0.00 263.00 484.00" xmlns="http://www.w3.org/2000/svg" xmlns:xlink="http://www.w3.org/1999/xlink">
<g id="graph0" class="graph" transform="scale(1 1) rotate(0) translate(4 480)">
<title>L4Re C Interface</title>
<polygon fill="#ffffff" stroke="transparent" points="-4,4 -4,-480 259,-480 259,4 -4,4"/>
<!-- Node1 -->
<g id="node1" class="node">
<title>Node1</title>
<g id="a_node1"><a xlink:href="group__api__l4re__c__util.html" target="_top" xlink:title="Documentation of the L4 Runtime Environment utility functionality in C. ">
<polygon fill="#ffffff" stroke="#000000" points="136.5,-456.5 136.5,-475.5 252.5,-475.5 252.5,-456.5 136.5,-456.5"/>
<text text-anchor="middle" x="194.5" y="-463.5" font-family="Helvetica,sans-Serif" font-size="10.00" fill="#000000">L4Re Util C Interface</text>
</a>
</g>
</g>
<!-- Node0 -->
<g id="node2" class="node">
<title>Node0</title>
<polygon fill="#bfbfbf" stroke="#000000" points="0,-228.5 0,-247.5 98,-247.5 98,-228.5 0,-228.5"/>
<text text-anchor="middle" x="49" y="-235.5" font-family="Helvetica,sans-Serif" font-size="10.00" fill="#000000">L4Re C Interface</text>
</g>
<!-- Node0&#45;&gt;Node1 -->
<g id="edge1" class="edge">
<title>Node0&#45;&gt;Node1</title>
<path fill="none" stroke="#000000" d="M51.3794,-257.5812C57.4169,-298.7106 77.1191,-394.6006 134,-447 138.2105,-450.8788 143.2067,-453.9658 148.4957,-456.4225"/>
<polygon fill="#000000" stroke="#000000" points="54.8268,-256.9557 50.0193,-247.5144 47.8898,-257.893 54.8268,-256.9557"/>
</g>
<!-- Node8 -->
<g id="node3" class="node">
<title>Node8</title>
<g id="a_node3"><a xlink:href="group__api__l4re__c__ns.html" target="_top" xlink:title="Namespace C interface. ">
<polygon fill="#ffffff" stroke="#000000" points="136,-418.5 136,-437.5 253,-437.5 253,-418.5 136,-418.5"/>
<text text-anchor="middle" x="194.5" y="-425.5" font-family="Helvetica,sans-Serif" font-size="10.00" fill="#000000">Namespace interface</text>
</a>
</g>
</g>
<!-- Node0&#45;&gt;Node8 -->
<g id="edge8" class="edge">
<title>Node0&#45;&gt;Node8</title>
<path fill="none" stroke="#000000" d="M53.4294,-257.858C62.3836,-293.4023 86.0036,-368.0043 134,-409 138.5205,-412.8611 143.8258,-415.9387 149.3837,-418.3916"/>
<polygon fill="#000000" stroke="#000000" points="56.7507,-256.6968 51.0253,-247.7822 49.9418,-258.3215 56.7507,-256.6968"/>
</g>
<!-- Node13 -->
<g id="node4" class="node">
<title>Node13</title>
<g id="a_node4"><a xlink:href="group__api__l4re__env.html" target="_top" xlink:title="C interface of the initial environment that is provided to an L4 task. ">
<polygon fill="#ffffff" stroke="#000000" points="142.5,-380.5 142.5,-399.5 246.5,-399.5 246.5,-380.5 142.5,-380.5"/>
<text text-anchor="middle" x="194.5" y="-387.5" font-family="Helvetica,sans-Serif" font-size="10.00" fill="#000000">Initial Environment</text>
</a>
</g>
</g>
<!-- Node0&#45;&gt;Node13 -->
<g id="edge13" class="edge">
<title>Node0&#45;&gt;Node13</title>
<path fill="none" stroke="#000000" d="M56.1601,-257.0417C67.9741,-285.9084 94.2677,-340.5936 134,-371 139.0709,-374.8806 144.9495,-377.9781 151.0096,-380.4482"/>
<polygon fill="#000000" stroke="#000000" points="59.3884,-255.687 52.4647,-247.6675 52.8761,-258.2543 59.3884,-255.687"/>
</g>
<!-- Node3 -->
<g id="node5" class="node">
<title>Node3</title>
<g id="a_node5"><a xlink:href="group__api__l4re__c__debug.html" target="_top" xlink:title="Debug interface">
<polygon fill="#ffffff" stroke="#000000" points="149,-342.5 149,-361.5 240,-361.5 240,-342.5 149,-342.5"/>
<text text-anchor="middle" x="194.5" y="-349.5" font-family="Helvetica,sans-Serif" font-size="10.00" fill="#000000">Debug interface</text>
</a>
</g>
</g>
<!-- Node0&#45;&gt;Node3 -->
<g id="edge3" class="edge">
<title>Node0&#45;&gt;Node3</title>
<path fill="none" stroke="#000000" d="M60.6621,-256.1102C75.3144,-277.4676 102.4034,-312.6317 134,-333 139.9221,-336.8176 146.6644,-339.9139 153.4466,-342.4109"/>
<polygon fill="#000000" stroke="#000000" points="63.4632,-254.0022 55,-247.6284 57.6412,-257.8887 63.4632,-254.0022"/>
</g>
<!-- Node10 -->
<g id="node6" class="node">
<title>Node10</title>
<g id="a_node6"><a xlink:href="group__api__l4re__c__util__cap.html" target="_top" xlink:title="Capability allocator C interface. ">
<polygon fill="#ffffff" stroke="#000000" points="141.5,-304.5 141.5,-323.5 247.5,-323.5 247.5,-304.5 141.5,-304.5"/>
<text text-anchor="middle" x="194.5" y="-311.5" font-family="Helvetica,sans-Serif" font-size="10.00" fill="#000000">Capability allocator</text>
</a>
</g>
</g>
<!-- Node0&#45;&gt;Node10 -->
<g id="edge10" class="edge">
<title>Node0&#45;&gt;Node10</title>
<path fill="none" stroke="#000000" d="M69.3639,-254.1021C85.9842,-266.6249 110.4833,-283.7124 134,-295 141.5431,-298.6206 149.9397,-301.766 158.0181,-304.3993"/>
<polygon fill="#000000" stroke="#000000" points="71.061,-250.9926 60.9972,-247.6804 66.799,-256.5455 71.061,-250.9926"/>
</g>
<!-- Node4 -->
<g id="node7" class="node">
<title>Node4</title>
<g id="a_node7"><a xlink:href="group__api__l4re__c__dma.html" target="_top" xlink:title="DMA Space C interface. ">
<polygon fill="#ffffff" stroke="#000000" points="135.5,-266.5 135.5,-285.5 253.5,-285.5 253.5,-266.5 135.5,-266.5"/>
<text text-anchor="middle" x="194.5" y="-273.5" font-family="Helvetica,sans-Serif" font-size="10.00" fill="#000000">DMA Space Interface</text>
</a>
</g>
</g>
<!-- Node0&#45;&gt;Node4 -->
<g id="edge4" class="edge">
<title>Node0&#45;&gt;Node4</title>
<path fill="none" stroke="#000000" d="M95.6532,-250.1843C115.8534,-255.46 139.1481,-261.5438 158.0482,-266.4799"/>
<polygon fill="#000000" stroke="#000000" points="96.2757,-246.7296 85.7158,-247.589 94.5068,-253.5024 96.2757,-246.7296"/>
</g>
<!-- Node12 -->
<g id="node8" class="node">
<title>Node12</title>
<g id="a_node8"><a xlink:href="group__api__l4re__c__video.html" target="_top" xlink:title="Video API">
<polygon fill="#ffffff" stroke="#000000" points="163,-228.5 163,-247.5 226,-247.5 226,-228.5 163,-228.5"/>
<text text-anchor="middle" x="194.5" y="-235.5" font-family="Helvetica,sans-Serif" font-size="10.00" fill="#000000">Video API</text>
</a>
</g>
</g>
<!-- Node0&#45;&gt;Node12 -->
<g id="edge12" class="edge">
<title>Node0&#45;&gt;Node12</title>
<path fill="none" stroke="#000000" d="M108.4177,-238C126.9822,-238 146.746,-238 162.6481,-238"/>
<polygon fill="#000000" stroke="#000000" points="108.2597,-234.5001 98.2597,-238 108.2596,-241.5001 108.2597,-234.5001"/>
</g>
<!-- Node9 -->
<g id="node9" class="node">
<title>Node9</title>
<g id="a_node9"><a xlink:href="group__api__l4re__c__rm.html" target="_top" xlink:title="Region map C interface. ">
<polygon fill="#ffffff" stroke="#000000" points="135.5,-190.5 135.5,-209.5 253.5,-209.5 253.5,-190.5 135.5,-190.5"/>
<text text-anchor="middle" x="194.5" y="-197.5" font-family="Helvetica,sans-Serif" font-size="10.00" fill="#000000">Region map interface</text>
</a>
</g>
</g>
<!-- Node0&#45;&gt;Node9 -->
<g id="edge9" class="edge">
<title>Node0&#45;&gt;Node9</title>
<path fill="none" stroke="#000000" d="M95.6532,-225.8157C115.8534,-220.54 139.1481,-214.4562 158.0482,-209.5201"/>
<polygon fill="#000000" stroke="#000000" points="94.5068,-222.4976 85.7158,-228.411 96.2757,-229.2704 94.5068,-222.4976"/>
</g>
<!-- Node11 -->
<g id="node10" class="node">
<title>Node11</title>
<g id="a_node10"><a xlink:href="group__api__l4re__c__util__kumem__alloc.html" target="_top" xlink:title="Kumem allocator utility C interface. ">
<polygon fill="#ffffff" stroke="#000000" points="134,-152.5 134,-171.5 255,-171.5 255,-152.5 134,-152.5"/>
<text text-anchor="middle" x="194.5" y="-159.5" font-family="Helvetica,sans-Serif" font-size="10.00" fill="#000000">Kumem allocator utility</text>
</a>
</g>
</g>
<!-- Node0&#45;&gt;Node11 -->
<g id="edge11" class="edge">
<title>Node0&#45;&gt;Node11</title>
<path fill="none" stroke="#000000" d="M69.3639,-221.8979C85.9842,-209.3751 110.4833,-192.2876 134,-181 141.5431,-177.3794 149.9397,-174.234 158.0181,-171.6007"/>
<polygon fill="#000000" stroke="#000000" points="66.799,-219.4545 60.9972,-228.3196 71.061,-225.0074 66.799,-219.4545"/>
</g>
<!-- Node6 -->
<g id="node11" class="node">
<title>Node6</title>
<g id="a_node11"><a xlink:href="group__api__l4re__c__log.html" target="_top" xlink:title="Log C interface. ">
<polygon fill="#ffffff" stroke="#000000" points="155,-114.5 155,-133.5 234,-133.5 234,-114.5 155,-114.5"/>
<text text-anchor="middle" x="194.5" y="-121.5" font-family="Helvetica,sans-Serif" font-size="10.00" fill="#000000">Log interface</text>
</a>
</g>
</g>
<!-- Node0&#45;&gt;Node6 -->
<g id="edge6" class="edge">
<title>Node0&#45;&gt;Node6</title>
<path fill="none" stroke="#000000" d="M60.6621,-219.8898C75.3144,-198.5324 102.4034,-163.3683 134,-143 140.2922,-138.9438 147.5104,-135.7019 154.7186,-133.1279"/>
<polygon fill="#000000" stroke="#000000" points="57.6412,-218.1113 55,-228.3716 63.4632,-221.9978 57.6412,-218.1113"/>
</g>
<!-- Node5 -->
<g id="node12" class="node">
<title>Node5</title>
<g id="a_node12"><a xlink:href="group__api__l4re__c__event.html" target="_top" xlink:title="Event C interface. ">
<polygon fill="#ffffff" stroke="#000000" points="150.5,-76.5 150.5,-95.5 238.5,-95.5 238.5,-76.5 150.5,-76.5"/>
<text text-anchor="middle" x="194.5" y="-83.5" font-family="Helvetica,sans-Serif" font-size="10.00" fill="#000000">Event interface</text>
</a>
</g>
</g>
<!-- Node0&#45;&gt;Node5 -->
<g id="edge5" class="edge">
<title>Node0&#45;&gt;Node5</title>
<path fill="none" stroke="#000000" d="M56.1601,-218.9583C67.9741,-190.0916 94.2677,-135.4064 134,-105 139.0709,-101.1194 144.9495,-98.0219 151.0096,-95.5518"/>
<polygon fill="#000000" stroke="#000000" points="52.8761,-217.7457 52.4647,-228.3325 59.3884,-220.313 52.8761,-217.7457"/>
</g>
<!-- Node2 -->
<g id="node13" class="node">
<title>Node2</title>
<g id="a_node13"><a xlink:href="group__api__l4re__c__ds.html" target="_top" xlink:title="Dataspace C interface. ">
<polygon fill="#ffffff" stroke="#000000" points="138.5,-38.5 138.5,-57.5 250.5,-57.5 250.5,-38.5 138.5,-38.5"/>
<text text-anchor="middle" x="194.5" y="-45.5" font-family="Helvetica,sans-Serif" font-size="10.00" fill="#000000">Dataspace interface</text>
</a>
</g>
</g>
<!-- Node0&#45;&gt;Node2 -->
<g id="edge2" class="edge">
<title>Node0&#45;&gt;Node2</title>
<path fill="none" stroke="#000000" d="M53.4294,-218.142C62.3836,-182.5977 86.0036,-107.9957 134,-67 138.5205,-63.1389 143.8258,-60.0613 149.3837,-57.6084"/>
<polygon fill="#000000" stroke="#000000" points="49.9418,-217.6785 51.0253,-228.2178 56.7507,-219.3032 49.9418,-217.6785"/>
</g>
<!-- Node7 -->
<g id="node14" class="node">
<title>Node7</title>
<g id="a_node14"><a xlink:href="group__api__l4re__c__mem__alloc.html" target="_top" xlink:title="Memory allocator C interface. ">
<polygon fill="#ffffff" stroke="#000000" points="145.5,-.5 145.5,-19.5 243.5,-19.5 243.5,-.5 145.5,-.5"/>
<text text-anchor="middle" x="194.5" y="-7.5" font-family="Helvetica,sans-Serif" font-size="10.00" fill="#000000">Memory allocator</text>
</a>
</g>
</g>
<!-- Node0&#45;&gt;Node7 -->
<g id="edge7" class="edge">
<title>Node0&#45;&gt;Node7</title>
<path fill="none" stroke="#000000" d="M51.3794,-218.4188C57.4169,-177.2894 77.1191,-81.3994 134,-29 138.2105,-25.1212 143.2067,-22.0342 148.4957,-19.5775"/>
<polygon fill="#000000" stroke="#000000" points="47.8898,-218.107 50.0193,-228.4856 54.8268,-219.0443 47.8898,-218.107"/>
</g>
</g>
</svg>
