<?xml version="1.0" encoding="UTF-8" standalone="no"?>
<!DOCTYPE svg PUBLIC "-//W3C//DTD SVG 1.1//EN"
 "http://www.w3.org/Graphics/SVG/1.1/DTD/svg11.dtd">
<!-- Generated by graphviz version 2.40.1 (20161225.0304)
 -->
<!-- Title: l4_msgtag_is_io_page_fault Pages: 1 -->
<svg width="626pt" height="180pt"
 viewBox="0.00 0.00 626.00 180.00" xmlns="http://www.w3.org/2000/svg" xmlns:xlink="http://www.w3.org/1999/xlink">
<g id="graph0" class="graph" transform="scale(1 1) rotate(0) translate(4 176)">
<title>l4_msgtag_is_io_page_fault</title>
<polygon fill="#ffffff" stroke="transparent" points="-4,4 -4,-176 622,-176 622,4 -4,4"/>
<!-- Node54 -->
<g id="node1" class="node">
<title>Node54</title>
<polygon fill="#bfbfbf" stroke="#000000" points="0,-71 0,-101 123,-101 123,-71 0,-71"/>
<text text-anchor="start" x="8" y="-89" font-family="Helvetica,sans-Serif" font-size="10.00" fill="#000000">l4_msgtag_is_io_page</text>
<text text-anchor="middle" x="61.5" y="-78" font-family="Helvetica,sans-Serif" font-size="10.00" fill="#000000">_fault</text>
</g>
<!-- Node55 -->
<g id="node2" class="node">
<title>Node55</title>
<g id="a_node2"><a xlink:href="structl4__msgtag__t.html#a09c8212b870e6c144fd072dbde5b5262" target="_top" xlink:title="Test if flags indicate an error. ">
<polygon fill="#ffffff" stroke="#000000" points="159,-76.5 159,-95.5 284,-95.5 284,-76.5 159,-76.5"/>
<text text-anchor="middle" x="221.5" y="-83.5" font-family="Helvetica,sans-Serif" font-size="10.00" fill="#000000">l4_msgtag_t::has_error</text>
</a>
</g>
</g>
<!-- Node54&#45;&gt;Node55 -->
<g id="edge1" class="edge">
<title>Node54&#45;&gt;Node55</title>
<path fill="none" stroke="#191970" d="M133.5358,-86C141.9469,-86 150.4766,-86 158.7481,-86"/>
<polygon fill="#191970" stroke="#191970" points="133.3602,-82.5001 123.3602,-86 133.3601,-89.5001 133.3602,-82.5001"/>
</g>
<!-- Node56 -->
<g id="node3" class="node">
<title>Node56</title>
<g id="a_node3"><a xlink:href="namespaceL4.html#aba0849c4b92afdccbe110489e18dadbd" target="_top" xlink:title="Throw an L4 IPC error as exception. ">
<polygon fill="#ffffff" stroke="#000000" points="320,-152.5 320,-171.5 451,-171.5 451,-152.5 320,-152.5"/>
<text text-anchor="middle" x="385.5" y="-159.5" font-family="Helvetica,sans-Serif" font-size="10.00" fill="#000000">L4::throw_ipc_exception</text>
</a>
</g>
</g>
<!-- Node55&#45;&gt;Node56 -->
<g id="edge2" class="edge">
<title>Node55&#45;&gt;Node56</title>
<path fill="none" stroke="#191970" d="M244.0764,-101.1872C263.5288,-113.7456 292.7049,-131.3483 320,-143 328.4939,-146.6259 337.8925,-149.8061 346.8559,-152.4756"/>
<polygon fill="#191970" stroke="#191970" points="245.8953,-98.1946 235.6121,-95.6437 242.0601,-104.0505 245.8953,-98.1946"/>
</g>
<!-- Node58 -->
<g id="node5" class="node">
<title>Node58</title>
<g id="a_node5"><a xlink:href="namespaceL4Re.html#ae0dd5d25abdc1d195edd8ab6b744334c" target="_top" xlink:title="Generate C++ exception on error. ">
<polygon fill="#ffffff" stroke="#000000" points="346,-114.5 346,-133.5 425,-133.5 425,-114.5 346,-114.5"/>
<text text-anchor="middle" x="385.5" y="-121.5" font-family="Helvetica,sans-Serif" font-size="10.00" fill="#000000">L4Re::chksys</text>
</a>
</g>
</g>
<!-- Node55&#45;&gt;Node58 -->
<g id="edge4" class="edge">
<title>Node55&#45;&gt;Node58</title>
<path fill="none" stroke="#191970" d="M272.7195,-97.8679C296.3014,-103.332 323.8563,-109.7167 345.8263,-114.8073"/>
<polygon fill="#191970" stroke="#191970" points="273.4161,-94.4367 262.8841,-95.589 271.836,-101.256 273.4161,-94.4367"/>
</g>
<!-- Node59 -->
<g id="node6" class="node">
<title>Node59</title>
<g id="a_node6"><a xlink:href="namespaceL4Re.html#ae21329b88c6ffc4917048e8d9564ea99" target="_top" xlink:title="Test a message tag for IPC errors. ">
<polygon fill="#ffffff" stroke="#000000" points="347,-76.5 347,-95.5 424,-95.5 424,-76.5 347,-76.5"/>
<text text-anchor="middle" x="385.5" y="-83.5" font-family="Helvetica,sans-Serif" font-size="10.00" fill="#000000">L4Re::chkipc</text>
</a>
</g>
</g>
<!-- Node55&#45;&gt;Node59 -->
<g id="edge5" class="edge">
<title>Node55&#45;&gt;Node59</title>
<path fill="none" stroke="#191970" d="M294.6177,-86C312.5639,-86 331.0844,-86 346.6862,-86"/>
<polygon fill="#191970" stroke="#191970" points="294.4377,-82.5001 284.4377,-86 294.4376,-89.5001 294.4377,-82.5001"/>
</g>
<!-- Node60 -->
<g id="node7" class="node">
<title>Node60</title>
<g id="a_node7"><a xlink:href="classL4_1_1Server.html#a4333dc750dee494087ee92ab058718a1" target="_top" xlink:title="Internal implementation for reply and wait. ">
<polygon fill="#ffffff" stroke="#000000" points="321,-38.5 321,-57.5 450,-57.5 450,-38.5 321,-38.5"/>
<text text-anchor="middle" x="385.5" y="-45.5" font-family="Helvetica,sans-Serif" font-size="10.00" fill="#000000">L4::Server::reply_n_wait</text>
</a>
</g>
</g>
<!-- Node55&#45;&gt;Node60 -->
<g id="edge6" class="edge">
<title>Node55&#45;&gt;Node60</title>
<path fill="none" stroke="#191970" d="M272.841,-74.1039C295.8929,-68.7626 322.7211,-62.5463 344.4135,-57.5201"/>
<polygon fill="#191970" stroke="#191970" points="271.836,-70.744 262.8841,-76.411 273.4161,-77.5633 271.836,-70.744"/>
</g>
<!-- Node61 -->
<g id="node8" class="node">
<title>Node61</title>
<g id="a_node8"><a xlink:href="classL4_1_1Server.html#ac0965dc536f1df5dfe0be1b224feab89" target="_top" xlink:title="The server loop. ">
<polygon fill="#ffffff" stroke="#000000" points="320,-.5 320,-19.5 451,-19.5 451,-.5 320,-.5"/>
<text text-anchor="middle" x="385.5" y="-7.5" font-family="Helvetica,sans-Serif" font-size="10.00" fill="#000000">L4::Server::internal_loop</text>
</a>
</g>
</g>
<!-- Node55&#45;&gt;Node61 -->
<g id="edge7" class="edge">
<title>Node55&#45;&gt;Node61</title>
<path fill="none" stroke="#191970" d="M244.0764,-70.8128C263.5288,-58.2544 292.7049,-40.6517 320,-29 328.4939,-25.3741 337.8925,-22.1939 346.8559,-19.5244"/>
<polygon fill="#191970" stroke="#191970" points="242.0601,-67.9495 235.6121,-76.3563 245.8953,-73.8054 242.0601,-67.9495"/>
</g>
<!-- Node57 -->
<g id="node4" class="node">
<title>Node57</title>
<g id="a_node4"><a xlink:href="namespaceL4.html#a54f8da0e02ff2496f1ad935e38ab17c4" target="_top" xlink:title="Throw an L4 IPC error as exception. ">
<polygon fill="#ffffff" stroke="#000000" points="487,-152.5 487,-171.5 618,-171.5 618,-152.5 487,-152.5"/>
<text text-anchor="middle" x="552.5" y="-159.5" font-family="Helvetica,sans-Serif" font-size="10.00" fill="#000000">L4::throw_ipc_exception</text>
</a>
</g>
</g>
<!-- Node56&#45;&gt;Node57 -->
<g id="edge3" class="edge">
<title>Node56&#45;&gt;Node57</title>
<path fill="none" stroke="#191970" d="M461.0663,-162C469.6848,-162 478.4171,-162 486.8913,-162"/>
<polygon fill="#191970" stroke="#191970" points="461.0235,-158.5001 451.0235,-162 461.0235,-165.5001 461.0235,-158.5001"/>
</g>
</g>
</svg>
