<?xml version="1.0" encoding="UTF-8" standalone="no"?>
<!DOCTYPE svg PUBLIC "-//W3C//DTD SVG 1.1//EN"
 "http://www.w3.org/Graphics/SVG/1.1/DTD/svg11.dtd">
<!-- Generated by graphviz version 2.40.1 (20161225.0304)
 -->
<!-- Title: l4_thread_vcpu_control_ext_u Pages: 1 -->
<svg width="324pt" height="66pt"
 viewBox="0.00 0.00 324.00 66.00" xmlns="http://www.w3.org/2000/svg" xmlns:xlink="http://www.w3.org/1999/xlink">
<g id="graph0" class="graph" transform="scale(1 1) rotate(0) translate(4 62)">
<title>l4_thread_vcpu_control_ext_u</title>
<polygon fill="#ffffff" stroke="transparent" points="-4,4 -4,-62 320,-62 320,4 -4,4"/>
<!-- Node39 -->
<g id="node1" class="node">
<title>Node39</title>
<polygon fill="#bfbfbf" stroke="#000000" points="0,-14 0,-44 128,-44 128,-14 0,-14"/>
<text text-anchor="start" x="8" y="-32" font-family="Helvetica,sans-Serif" font-size="10.00" fill="#000000">l4_thread_vcpu_control</text>
<text text-anchor="middle" x="64" y="-21" font-family="Helvetica,sans-Serif" font-size="10.00" fill="#000000">_ext_u</text>
</g>
<!-- Node40 -->
<g id="node2" class="node">
<title>Node40</title>
<g id="a_node2"><a xlink:href="group__l4__thread__api.html#ga592d99fe80a0091a837f6001d0d5c25b" target="_top" xlink:title="Enable or disable the extended vCPU feature for the thread. ">
<polygon fill="#ffffff" stroke="#000000" points="166,-38.5 166,-57.5 314,-57.5 314,-38.5 166,-38.5"/>
<text text-anchor="middle" x="240" y="-45.5" font-family="Helvetica,sans-Serif" font-size="10.00" fill="#000000">l4_thread_vcpu_control_ext</text>
</a>
</g>
</g>
<!-- Node39&#45;&gt;Node40 -->
<g id="edge1" class="edge">
<title>Node39&#45;&gt;Node40</title>
<path fill="none" stroke="#191970" d="M138.2457,-37.0152C147.3825,-38.0015 156.7221,-39.0098 165.8573,-39.996"/>
<polygon fill="#191970" stroke="#191970" points="138.3558,-33.5068 128.0379,-35.9132 137.6045,-40.4664 138.3558,-33.5068"/>
</g>
<!-- Node41 -->
<g id="node3" class="node">
<title>Node41</title>
<g id="a_node3"><a xlink:href="classL4_1_1Thread.html#ac341b827b00c21bc3753c30163e0f173" target="_top" xlink:title="Enable or disable the extended vCPU feature for the thread. ">
<polygon fill="#ffffff" stroke="#000000" points="164,-.5 164,-19.5 316,-19.5 316,-.5 164,-.5"/>
<text text-anchor="middle" x="240" y="-7.5" font-family="Helvetica,sans-Serif" font-size="10.00" fill="#000000">L4::Thread::vcpu_control_ext</text>
</a>
</g>
</g>
<!-- Node39&#45;&gt;Node41 -->
<g id="edge2" class="edge">
<title>Node39&#45;&gt;Node41</title>
<path fill="none" stroke="#191970" d="M138.2245,-20.9871C146.6638,-20.0761 155.2765,-19.1463 163.7416,-18.2324"/>
<polygon fill="#191970" stroke="#191970" points="137.6045,-17.5336 128.0379,-22.0868 138.3558,-24.4932 137.6045,-17.5336"/>
</g>
</g>
</svg>
