<?xml version="1.0" encoding="UTF-8" standalone="no"?>
<!DOCTYPE svg PUBLIC "-//W3C//DTD SVG 1.1//EN"
 "http://www.w3.org/Graphics/SVG/1.1/DTD/svg11.dtd">
<!-- Generated by graphviz version 2.40.1 (20161225.0304)
 -->
<!-- Title: l4virtio_register_iface Pages: 1 -->
<svg width="414pt" height="39pt"
 viewBox="0.00 0.00 414.00 39.00" xmlns="http://www.w3.org/2000/svg" xmlns:xlink="http://www.w3.org/1999/xlink">
<g id="graph0" class="graph" transform="scale(1 1) rotate(0) translate(4 35)">
<title>l4virtio_register_iface</title>
<polygon fill="#ffffff" stroke="transparent" points="-4,4 -4,-35 410,-35 410,4 -4,4"/>
<!-- Node21 -->
<g id="node1" class="node">
<title>Node21</title>
<polygon fill="#bfbfbf" stroke="#000000" points="0,-6 0,-25 118,-25 118,-6 0,-6"/>
<text text-anchor="middle" x="59" y="-13" font-family="Helvetica,sans-Serif" font-size="10.00" fill="#000000">l4virtio_register_iface</text>
</g>
<!-- Node22 -->
<g id="node2" class="node">
<title>Node22</title>
<g id="a_node2"><a xlink:href="group__l4virtio__transport.html#gae37bcd45875b27b302320e6b9580191d" target="_top" xlink:title="Check if the given bit in a feature map is set. ">
<polygon fill="#ffffff" stroke="#000000" points="154,-6 154,-25 261,-25 261,-6 154,-6"/>
<text text-anchor="middle" x="207.5" y="-13" font-family="Helvetica,sans-Serif" font-size="10.00" fill="#000000">l4virtio_get_feature</text>
</a>
</g>
</g>
<!-- Node21&#45;&gt;Node22 -->
<g id="edge1" class="edge">
<title>Node21&#45;&gt;Node22</title>
<path fill="none" stroke="#191970" d="M128.18,-15.5C136.8113,-15.5 145.5344,-15.5 153.8799,-15.5"/>
<polygon fill="#191970" stroke="#191970" points="128.1179,-12.0001 118.1178,-15.5 128.1178,-19.0001 128.1179,-12.0001"/>
</g>
<!-- Node23 -->
<g id="node3" class="node">
<title>Node23</title>
<g id="a_node3"><a xlink:href="classL4virtio_1_1Svr_1_1Dev__config.html#ac0a15fe6ca82defa26c36e37447275eb" target="_top" xlink:title="Setup an L4&#45;Virtio config space in an existing data space. ">
<polygon fill="#ffffff" stroke="#000000" points="297,-.5 297,-30.5 406,-30.5 406,-.5 297,-.5"/>
<text text-anchor="start" x="305" y="-18.5" font-family="Helvetica,sans-Serif" font-size="10.00" fill="#000000">L4virtio::Svr::Dev</text>
<text text-anchor="middle" x="351.5" y="-7.5" font-family="Helvetica,sans-Serif" font-size="10.00" fill="#000000">_config::Dev_config</text>
</a>
</g>
</g>
<!-- Node22&#45;&gt;Node23 -->
<g id="edge2" class="edge">
<title>Node22&#45;&gt;Node23</title>
<path fill="none" stroke="#191970" d="M271.3851,-15.5C279.8893,-15.5 288.5464,-15.5 296.8737,-15.5"/>
<polygon fill="#191970" stroke="#191970" points="271.1203,-12.0001 261.1203,-15.5 271.1203,-19.0001 271.1203,-12.0001"/>
</g>
</g>
</svg>
