<?xml version="1.0" encoding="UTF-8" standalone="no"?>
<!DOCTYPE svg PUBLIC "-//W3C//DTD SVG 1.1//EN"
 "http://www.w3.org/Graphics/SVG/1.1/DTD/svg11.dtd">
<!-- Generated by graphviz version 2.40.1 (20161225.0304)
 -->
<!-- Title: l4_round_size Pages: 1 -->
<svg width="815pt" height="157pt"
 viewBox="0.00 0.00 815.00 156.98" xmlns="http://www.w3.org/2000/svg" xmlns:xlink="http://www.w3.org/1999/xlink">
<g id="graph0" class="graph" transform="scale(1 1) rotate(0) translate(4 152.9827)">
<title>l4_round_size</title>
<polygon fill="#ffffff" stroke="transparent" points="-4,4 -4,-152.9827 811,-152.9827 811,4 -4,4"/>
<!-- Node30 -->
<g id="node1" class="node">
<title>Node30</title>
<polygon fill="#bfbfbf" stroke="#000000" points="0,-72 0,-91 83,-91 83,-72 0,-72"/>
<text text-anchor="middle" x="41.5" y="-79" font-family="Helvetica,sans-Serif" font-size="10.00" fill="#000000">l4_round_size</text>
</g>
<!-- Node31 -->
<g id="node2" class="node">
<title>Node31</title>
<g id="a_node2"><a xlink:href="classcxx_1_1List__alloc.html#a1b8a24564b209e28166253c4e338f7ba" target="_top" xlink:title="Allocate a memory block of min &lt;= size &lt;= max. ">
<polygon fill="#ffffff" stroke="#000000" points="404,-123 404,-142 537,-142 537,-123 404,-123"/>
<text text-anchor="middle" x="470.5" y="-130" font-family="Helvetica,sans-Serif" font-size="10.00" fill="#000000">cxx::List_alloc::alloc_max</text>
</a>
</g>
</g>
<!-- Node30&#45;&gt;Node31 -->
<g id="edge1" class="edge">
<title>Node30&#45;&gt;Node31</title>
<path fill="none" stroke="#191970" d="M60.8398,-97.2878C75.7334,-108.3887 97.3717,-122.3213 119,-128.5 215.0897,-155.9505 332.0684,-149.9203 403.8978,-142.0097"/>
<polygon fill="#191970" stroke="#191970" points="62.9555,-94.4996 52.9011,-91.1591 58.6779,-100.0405 62.9555,-94.4996"/>
</g>
<!-- Node33 -->
<g id="node4" class="node">
<title>Node33</title>
<g id="a_node4"><a xlink:href="classL4Re_1_1Util_1_1Dataspace__svr.html#aed0cd448d94193443020e8975a4a489a" target="_top" xlink:title="Return whether the dataspace is static. ">
<polygon fill="#ffffff" stroke="#000000" points="119,-88.5 119,-118.5 236,-118.5 236,-88.5 119,-88.5"/>
<text text-anchor="start" x="127" y="-106.5" font-family="Helvetica,sans-Serif" font-size="10.00" fill="#000000">L4Re::Util::Dataspace</text>
<text text-anchor="middle" x="177.5" y="-95.5" font-family="Helvetica,sans-Serif" font-size="10.00" fill="#000000">_svr::is_static</text>
</a>
</g>
</g>
<!-- Node30&#45;&gt;Node33 -->
<g id="edge3" class="edge">
<title>Node30&#45;&gt;Node33</title>
<path fill="none" stroke="#191970" d="M93.0479,-89.8386C101.4242,-91.1936 110.1549,-92.6059 118.6888,-93.9864"/>
<polygon fill="#191970" stroke="#191970" points="93.4741,-86.3622 83.0435,-88.2203 92.3562,-93.2723 93.4741,-86.3622"/>
</g>
<!-- Node34 -->
<g id="node5" class="node">
<title>Node34</title>
<g id="a_node5"><a xlink:href="group__l4__memory__api.html#ga96e3b2d8e69308aecbb11d1d24f61662" target="_top" xlink:title="Round address up to the next page. ">
<polygon fill="#ffffff" stroke="#000000" points="133.5,-50 133.5,-69 221.5,-69 221.5,-50 133.5,-50"/>
<text text-anchor="middle" x="177.5" y="-57" font-family="Helvetica,sans-Serif" font-size="10.00" fill="#000000">l4_round_page</text>
</a>
</g>
</g>
<!-- Node30&#45;&gt;Node34 -->
<g id="edge4" class="edge">
<title>Node30&#45;&gt;Node34</title>
<path fill="none" stroke="#191970" d="M93.0019,-73.1688C106.3007,-71.0175 120.4954,-68.7213 133.3799,-66.6371"/>
<polygon fill="#191970" stroke="#191970" points="92.3562,-69.7277 83.0435,-74.7797 93.4741,-76.6378 92.3562,-69.7277"/>
</g>
<!-- Node42 -->
<g id="node13" class="node">
<title>Node42</title>
<g id="a_node13"><a xlink:href="classL4virtio_1_1Virtqueue.html#a437c0ed2eb83201cc69c41d011503036" target="_top" xlink:title="Enable this queue. ">
<polygon fill="#ffffff" stroke="#000000" points="127.5,-.5 127.5,-30.5 227.5,-30.5 227.5,-.5 127.5,-.5"/>
<text text-anchor="start" x="135.5" y="-18.5" font-family="Helvetica,sans-Serif" font-size="10.00" fill="#000000">L4virtio::Virtqueue</text>
<text text-anchor="middle" x="177.5" y="-7.5" font-family="Helvetica,sans-Serif" font-size="10.00" fill="#000000">::setup_simple</text>
</a>
</g>
</g>
<!-- Node30&#45;&gt;Node42 -->
<g id="edge14" class="edge">
<title>Node30&#45;&gt;Node42</title>
<path fill="none" stroke="#191970" d="M67.6509,-66.9727C82.5465,-58.8736 101.6454,-48.7814 119,-40.5 126.0773,-37.1228 133.7287,-33.6959 141.0914,-30.5066"/>
<polygon fill="#191970" stroke="#191970" points="65.6194,-64.0948 58.53,-71.9682 68.982,-70.2343 65.6194,-64.0948"/>
</g>
<!-- Node32 -->
<g id="node3" class="node">
<title>Node32</title>
<g id="a_node3"><a xlink:href="classcxx_1_1List__alloc.html#a1fdfc49fafa608f60c191916629b61a4" target="_top" xlink:title="Initializes an empty list allocator. ">
<polygon fill="#ffffff" stroke="#000000" points="573,-117.5 573,-147.5 675,-147.5 675,-117.5 573,-117.5"/>
<text text-anchor="start" x="581" y="-135.5" font-family="Helvetica,sans-Serif" font-size="10.00" fill="#000000">cxx::List_alloc::List</text>
<text text-anchor="middle" x="624" y="-124.5" font-family="Helvetica,sans-Serif" font-size="10.00" fill="#000000">_alloc</text>
</a>
</g>
</g>
<!-- Node31&#45;&gt;Node32 -->
<g id="edge2" class="edge">
<title>Node31&#45;&gt;Node32</title>
<path fill="none" stroke="#191970" d="M547.383,-132.5C555.924,-132.5 564.4629,-132.5 572.5765,-132.5"/>
<polygon fill="#191970" stroke="#191970" points="547.3808,-129.0001 537.3808,-132.5 547.3808,-136.0001 547.3808,-129.0001"/>
</g>
<!-- Node35 -->
<g id="node6" class="node">
<title>Node35</title>
<g id="a_node6"><a xlink:href="classL4Re_1_1Rm.html#a81c3edf15190139911ab69211c0a4bc4" target="_top" xlink:title="Attach a data space to a region. ">
<polygon fill="#ffffff" stroke="#000000" points="272,-88 272,-107 368,-107 368,-88 272,-88"/>
<text text-anchor="middle" x="320" y="-95" font-family="Helvetica,sans-Serif" font-size="10.00" fill="#000000">L4Re::Rm::attach</text>
</a>
</g>
</g>
<!-- Node34&#45;&gt;Node35 -->
<g id="edge5" class="edge">
<title>Node34&#45;&gt;Node35</title>
<path fill="none" stroke="#191970" d="M223.1531,-71.6742C242.8577,-76.9287 265.5747,-82.9866 284.0527,-87.9141"/>
<polygon fill="#191970" stroke="#191970" points="224.023,-68.2839 213.4588,-69.089 222.2193,-75.0475 224.023,-68.2839"/>
</g>
<!-- Node36 -->
<g id="node7" class="node">
<title>Node36</title>
<g id="a_node7"><a xlink:href="group__l4__memory__api.html#ga792959ba1e87fecf90018876f32d7bc9" target="_top" xlink:title="Round an address down to the next lower flex page with size bits. ">
<polygon fill="#ffffff" stroke="#000000" points="280.5,-50 280.5,-69 359.5,-69 359.5,-50 280.5,-50"/>
<text text-anchor="middle" x="320" y="-57" font-family="Helvetica,sans-Serif" font-size="10.00" fill="#000000">l4_trunc_size</text>
</a>
</g>
</g>
<!-- Node34&#45;&gt;Node36 -->
<g id="edge6" class="edge">
<title>Node34&#45;&gt;Node36</title>
<path fill="none" stroke="#191970" d="M232.0912,-59.5C248.0556,-59.5 265.202,-59.5 280.0748,-59.5"/>
<polygon fill="#191970" stroke="#191970" points="231.8068,-56.0001 221.8068,-59.5 231.8067,-63.0001 231.8068,-56.0001"/>
</g>
<!-- Node36&#45;&gt;Node31 -->
<g id="edge7" class="edge">
<title>Node36&#45;&gt;Node31</title>
<path fill="none" stroke="#191970" d="M355.0882,-72.8759C359.4663,-74.6951 363.8579,-76.594 368,-78.5 384.4352,-86.0627 387.9952,-89.0647 404,-97.5 420.3892,-106.1378 439.0572,-115.9618 452.4334,-122.9984"/>
<polygon fill="#191970" stroke="#191970" points="356.2097,-69.5541 345.6269,-69.0486 353.5846,-76.0433 356.2097,-69.5541"/>
</g>
<!-- Node37 -->
<g id="node8" class="node">
<title>Node37</title>
<g id="a_node8"><a xlink:href="group__l4__fpage__api.html#ga960465b596caf60adc6c5042e9257f0a" target="_top" xlink:title="Determine maximum flex page size of a region. ">
<polygon fill="#ffffff" stroke="#000000" points="413,-69 413,-88 528,-88 528,-69 413,-69"/>
<text text-anchor="middle" x="470.5" y="-76" font-family="Helvetica,sans-Serif" font-size="10.00" fill="#000000">l4_fpage_max_order</text>
</a>
</g>
</g>
<!-- Node36&#45;&gt;Node37 -->
<g id="edge8" class="edge">
<title>Node36&#45;&gt;Node37</title>
<path fill="none" stroke="#191970" d="M369.79,-65.7858C383.5671,-67.5251 398.635,-69.4273 412.8205,-71.2182"/>
<polygon fill="#191970" stroke="#191970" points="369.9018,-62.2722 359.5421,-64.492 369.0249,-69.2171 369.9018,-62.2722"/>
</g>
<!-- Node38 -->
<g id="node9" class="node">
<title>Node38</title>
<g id="a_node9"><a xlink:href="group__l4__memory__api.html#ga70b72ae96c18cb49a3445198711bba0d" target="_top" xlink:title="Round an address down to the next lower page boundary. ">
<polygon fill="#ffffff" stroke="#000000" points="428.5,-31 428.5,-50 512.5,-50 512.5,-31 428.5,-31"/>
<text text-anchor="middle" x="470.5" y="-38" font-family="Helvetica,sans-Serif" font-size="10.00" fill="#000000">l4_trunc_page</text>
</a>
</g>
</g>
<!-- Node36&#45;&gt;Node38 -->
<g id="edge9" class="edge">
<title>Node36&#45;&gt;Node38</title>
<path fill="none" stroke="#191970" d="M369.5225,-53.248C388.5431,-50.8467 410.0567,-48.1307 428.324,-45.8245"/>
<polygon fill="#191970" stroke="#191970" points="369.0249,-49.7829 359.5421,-54.508 369.9018,-56.7278 369.0249,-49.7829"/>
</g>
<!-- Node39 -->
<g id="node10" class="node">
<title>Node39</title>
<g id="a_node10"><a xlink:href="group__l4util__api.html#gac1e88025beb28c8f090592bf2f046080" target="_top" xlink:title="Touch data area to force mapping (read&#45;only) ">
<polygon fill="#ffffff" stroke="#000000" points="588,-50 588,-69 660,-69 660,-50 588,-50"/>
<text text-anchor="middle" x="624" y="-57" font-family="Helvetica,sans-Serif" font-size="10.00" fill="#000000">l4_touch_ro</text>
</a>
</g>
</g>
<!-- Node38&#45;&gt;Node39 -->
<g id="edge10" class="edge">
<title>Node38&#45;&gt;Node39</title>
<path fill="none" stroke="#191970" d="M523.0609,-47.0059C544.3806,-49.6448 568.4739,-52.6271 587.7738,-55.016"/>
<polygon fill="#191970" stroke="#191970" points="523.2051,-43.4971 512.8509,-45.7421 522.3452,-50.4441 523.2051,-43.4971"/>
</g>
<!-- Node41 -->
<g id="node12" class="node">
<title>Node41</title>
<g id="a_node12"><a xlink:href="group__l4util__api.html#ga8e840257faffbb57a49003cfb7d41594" target="_top" xlink:title="Touch data areas to force mapping (read&#45;write) ">
<polygon fill="#ffffff" stroke="#000000" points="587,-12 587,-31 661,-31 661,-12 587,-12"/>
<text text-anchor="middle" x="624" y="-19" font-family="Helvetica,sans-Serif" font-size="10.00" fill="#000000">l4_touch_rw</text>
</a>
</g>
</g>
<!-- Node38&#45;&gt;Node41 -->
<g id="edge12" class="edge">
<title>Node38&#45;&gt;Node41</title>
<path fill="none" stroke="#191970" d="M522.903,-34.0136C543.8873,-31.4162 567.5803,-28.4835 586.7524,-26.1105"/>
<polygon fill="#191970" stroke="#191970" points="522.3452,-30.5559 512.8509,-35.2579 523.2051,-37.5029 522.3452,-30.5559"/>
</g>
<!-- Node40 -->
<g id="node11" class="node">
<title>Node40</title>
<g id="a_node11"><a xlink:href="group__l4util__api.html#ga3a74b4dee439a339ed5a6368845cad37" target="_top" xlink:title="Go sleep and never wake up. ">
<polygon fill="#ffffff" stroke="#000000" points="711,-31 711,-50 807,-50 807,-31 711,-31"/>
<text text-anchor="middle" x="759" y="-38" font-family="Helvetica,sans-Serif" font-size="10.00" fill="#000000">l4_sleep_forever</text>
</a>
</g>
</g>
<!-- Node39&#45;&gt;Node40 -->
<g id="edge11" class="edge">
<title>Node39&#45;&gt;Node40</title>
<path fill="none" stroke="#191970" d="M670.3502,-52.9766C683.4017,-51.1398 697.6267,-49.1377 710.7846,-47.2859"/>
<polygon fill="#191970" stroke="#191970" points="669.5921,-49.5487 660.1775,-54.4083 670.5677,-56.4804 669.5921,-49.5487"/>
</g>
<!-- Node41&#45;&gt;Node40 -->
<g id="edge13" class="edge">
<title>Node41&#45;&gt;Node40</title>
<path fill="none" stroke="#191970" d="M671.2358,-28.148C684.0271,-29.9483 697.8884,-31.8991 710.7355,-33.7072"/>
<polygon fill="#191970" stroke="#191970" points="671.6369,-24.67 661.2467,-26.7421 670.6613,-31.6017 671.6369,-24.67"/>
</g>
</g>
</svg>
