<?xml version="1.0" encoding="UTF-8" standalone="no"?>
<!DOCTYPE svg PUBLIC "-//W3C//DTD SVG 1.1//EN"
 "http://www.w3.org/Graphics/SVG/1.1/DTD/svg11.dtd">
<!-- Generated by graphviz version 2.40.1 (20161225.0304)
 -->
<!-- Title: L4Re Capability API Pages: 1 -->
<svg width="391pt" height="35pt"
 viewBox="0.00 0.00 391.00 35.28" xmlns="http://www.w3.org/2000/svg" xmlns:xlink="http://www.w3.org/1999/xlink">
<g id="graph0" class="graph" transform="scale(1 1) rotate(0) translate(4 31.2777)">
<title>L4Re Capability API</title>
<polygon fill="#ffffff" stroke="transparent" points="-4,4 -4,-31.2777 387,-31.2777 387,4 -4,4"/>
<!-- Node1 -->
<g id="node1" class="node">
<title>Node1</title>
<g id="a_node1"><a xlink:href="group__api__l4re__util.html" target="_top" xlink:title="Documentation of the L4 Runtime Environment utility functionality in C++. ">
<polygon fill="#ffffff" stroke="#000000" points="0,-7.7777 0,-26.7777 129,-26.7777 129,-7.7777 0,-7.7777"/>
<text text-anchor="middle" x="64.5" y="-14.7777" font-family="Helvetica,sans-Serif" font-size="10.00" fill="#000000">L4Re Util C++ Interface</text>
</a>
</g>
</g>
<!-- Node0 -->
<g id="node2" class="node">
<title>Node0</title>
<polygon fill="#bfbfbf" stroke="#000000" points="273,-7.7777 273,-26.7777 383,-26.7777 383,-7.7777 273,-7.7777"/>
<text text-anchor="middle" x="328" y="-14.7777" font-family="Helvetica,sans-Serif" font-size="10.00" fill="#000000">L4Re Capability API</text>
</g>
<!-- Node1&#45;&gt;Node0 -->
<g id="edge1" class="edge">
<title>Node1&#45;&gt;Node0</title>
<path fill="none" stroke="#000000" d="M139.3149,-17.2777C181.8031,-17.2777 234.0728,-17.2777 272.8151,-17.2777"/>
<polygon fill="#000000" stroke="#000000" points="139.2969,-13.7778 129.2968,-17.2777 139.2968,-20.7778 139.2969,-13.7778"/>
</g>
<!-- Node0&#45;&gt;Node1 -->
<g id="edge2" class="edge">
<title>Node0&#45;&gt;Node1</title>
<path fill="none" stroke="#ffa500" stroke-dasharray="5,2" d="M285.7345,-7.7658C275.7116,-5.9016 265.0204,-4.2299 255,-3.2777 207.2153,1.263 194.8306,.7518 147,-3.2777 135.7084,-4.229 123.6388,-5.9003 112.3135,-7.7645"/>
<text text-anchor="middle" x="201" y="-6.2777" font-family="Helvetica,sans-Serif" font-size="10.00" fill="#000000">L4Re::Smart_cap_auto</text>
</g>
</g>
</svg>
