<?xml version="1.0" encoding="UTF-8" standalone="no"?>
<!DOCTYPE svg PUBLIC "-//W3C//DTD SVG 1.1//EN"
 "http://www.w3.org/Graphics/SVG/1.1/DTD/svg11.dtd">
<!-- Generated by graphviz version 2.40.1 (20161225.0304)
 -->
<!-- Title: l4_irq_detach_u Pages: 1 -->
<svg width="219pt" height="66pt"
 viewBox="0.00 0.00 219.00 66.00" xmlns="http://www.w3.org/2000/svg" xmlns:xlink="http://www.w3.org/1999/xlink">
<g id="graph0" class="graph" transform="scale(1 1) rotate(0) translate(4 62)">
<title>l4_irq_detach_u</title>
<polygon fill="#ffffff" stroke="transparent" points="-4,4 -4,-62 215,-62 215,4 -4,4"/>
<!-- Node13 -->
<g id="node1" class="node">
<title>Node13</title>
<polygon fill="#bfbfbf" stroke="#000000" points="0,-19.5 0,-38.5 92,-38.5 92,-19.5 0,-19.5"/>
<text text-anchor="middle" x="46" y="-26.5" font-family="Helvetica,sans-Serif" font-size="10.00" fill="#000000">l4_irq_detach_u</text>
</g>
<!-- Node14 -->
<g id="node2" class="node">
<title>Node14</title>
<g id="a_node2"><a xlink:href="classL4_1_1Irq.html#a02b43c2e256c30b3c55eccd311bb6f4f" target="_top" xlink:title="Detach from this interrupt. ">
<polygon fill="#ffffff" stroke="#000000" points="128,-38.5 128,-57.5 211,-57.5 211,-38.5 128,-38.5"/>
<text text-anchor="middle" x="169.5" y="-45.5" font-family="Helvetica,sans-Serif" font-size="10.00" fill="#000000">L4::Irq::detach</text>
</a>
</g>
</g>
<!-- Node13&#45;&gt;Node14 -->
<g id="edge1" class="edge">
<title>Node13&#45;&gt;Node14</title>
<path fill="none" stroke="#191970" d="M102.3008,-37.6617C110.8768,-38.981 119.5941,-40.3222 127.7841,-41.5822"/>
<polygon fill="#191970" stroke="#191970" points="102.7542,-34.1903 92.3382,-36.129 101.6897,-41.1089 102.7542,-34.1903"/>
</g>
<!-- Node15 -->
<g id="node3" class="node">
<title>Node15</title>
<g id="a_node3"><a xlink:href="group__l4__irq__api.html#ga1d9b0812f3bc01d6d5ff7010df231e56" target="_top" xlink:title="Detach from an interrupt source. ">
<polygon fill="#ffffff" stroke="#000000" points="129,-.5 129,-19.5 210,-19.5 210,-.5 129,-.5"/>
<text text-anchor="middle" x="169.5" y="-7.5" font-family="Helvetica,sans-Serif" font-size="10.00" fill="#000000">l4_irq_detach</text>
</a>
</g>
</g>
<!-- Node13&#45;&gt;Node15 -->
<g id="edge2" class="edge">
<title>Node13&#45;&gt;Node15</title>
<path fill="none" stroke="#191970" d="M102.3666,-20.3282C111.3425,-18.9473 120.4713,-17.5429 128.9867,-16.2328"/>
<polygon fill="#191970" stroke="#191970" points="101.6897,-16.8911 92.3382,-21.871 102.7542,-23.8097 101.6897,-16.8911"/>
</g>
</g>
</svg>
