<?xml version="1.0" encoding="UTF-8" standalone="no"?>
<!DOCTYPE svg PUBLIC "-//W3C//DTD SVG 1.1//EN"
 "http://www.w3.org/Graphics/SVG/1.1/DTD/svg11.dtd">
<!-- Generated by graphviz version 2.40.1 (20161225.0304)
 -->
<!-- Title: l4_msgtag_is_sigma0 Pages: 1 -->
<svg width="622pt" height="180pt"
 viewBox="0.00 0.00 622.00 180.00" xmlns="http://www.w3.org/2000/svg" xmlns:xlink="http://www.w3.org/1999/xlink">
<g id="graph0" class="graph" transform="scale(1 1) rotate(0) translate(4 176)">
<title>l4_msgtag_is_sigma0</title>
<polygon fill="#ffffff" stroke="transparent" points="-4,4 -4,-176 618,-176 618,4 -4,4"/>
<!-- Node84 -->
<g id="node1" class="node">
<title>Node84</title>
<polygon fill="#bfbfbf" stroke="#000000" points="0,-76.5 0,-95.5 119,-95.5 119,-76.5 0,-76.5"/>
<text text-anchor="middle" x="59.5" y="-83.5" font-family="Helvetica,sans-Serif" font-size="10.00" fill="#000000">l4_msgtag_is_sigma0</text>
</g>
<!-- Node85 -->
<g id="node2" class="node">
<title>Node85</title>
<g id="a_node2"><a xlink:href="structl4__msgtag__t.html#a09c8212b870e6c144fd072dbde5b5262" target="_top" xlink:title="Test if flags indicate an error. ">
<polygon fill="#ffffff" stroke="#000000" points="155,-76.5 155,-95.5 280,-95.5 280,-76.5 155,-76.5"/>
<text text-anchor="middle" x="217.5" y="-83.5" font-family="Helvetica,sans-Serif" font-size="10.00" fill="#000000">l4_msgtag_t::has_error</text>
</a>
</g>
</g>
<!-- Node84&#45;&gt;Node85 -->
<g id="edge1" class="edge">
<title>Node84&#45;&gt;Node85</title>
<path fill="none" stroke="#191970" d="M129.4342,-86C137.8758,-86 146.4574,-86 154.7865,-86"/>
<polygon fill="#191970" stroke="#191970" points="129.2331,-82.5001 119.233,-86 129.233,-89.5001 129.2331,-82.5001"/>
</g>
<!-- Node86 -->
<g id="node3" class="node">
<title>Node86</title>
<g id="a_node3"><a xlink:href="namespaceL4.html#aba0849c4b92afdccbe110489e18dadbd" target="_top" xlink:title="Throw an L4 IPC error as exception. ">
<polygon fill="#ffffff" stroke="#000000" points="316,-152.5 316,-171.5 447,-171.5 447,-152.5 316,-152.5"/>
<text text-anchor="middle" x="381.5" y="-159.5" font-family="Helvetica,sans-Serif" font-size="10.00" fill="#000000">L4::throw_ipc_exception</text>
</a>
</g>
</g>
<!-- Node85&#45;&gt;Node86 -->
<g id="edge2" class="edge">
<title>Node85&#45;&gt;Node86</title>
<path fill="none" stroke="#191970" d="M240.0764,-101.1872C259.5288,-113.7456 288.7049,-131.3483 316,-143 324.4939,-146.6259 333.8925,-149.8061 342.8559,-152.4756"/>
<polygon fill="#191970" stroke="#191970" points="241.8953,-98.1946 231.6121,-95.6437 238.0601,-104.0505 241.8953,-98.1946"/>
</g>
<!-- Node88 -->
<g id="node5" class="node">
<title>Node88</title>
<g id="a_node5"><a xlink:href="namespaceL4Re.html#ae0dd5d25abdc1d195edd8ab6b744334c" target="_top" xlink:title="Generate C++ exception on error. ">
<polygon fill="#ffffff" stroke="#000000" points="342,-114.5 342,-133.5 421,-133.5 421,-114.5 342,-114.5"/>
<text text-anchor="middle" x="381.5" y="-121.5" font-family="Helvetica,sans-Serif" font-size="10.00" fill="#000000">L4Re::chksys</text>
</a>
</g>
</g>
<!-- Node85&#45;&gt;Node88 -->
<g id="edge4" class="edge">
<title>Node85&#45;&gt;Node88</title>
<path fill="none" stroke="#191970" d="M268.7195,-97.8679C292.3014,-103.332 319.8563,-109.7167 341.8263,-114.8073"/>
<polygon fill="#191970" stroke="#191970" points="269.4161,-94.4367 258.8841,-95.589 267.836,-101.256 269.4161,-94.4367"/>
</g>
<!-- Node89 -->
<g id="node6" class="node">
<title>Node89</title>
<g id="a_node6"><a xlink:href="namespaceL4Re.html#ae21329b88c6ffc4917048e8d9564ea99" target="_top" xlink:title="Test a message tag for IPC errors. ">
<polygon fill="#ffffff" stroke="#000000" points="343,-76.5 343,-95.5 420,-95.5 420,-76.5 343,-76.5"/>
<text text-anchor="middle" x="381.5" y="-83.5" font-family="Helvetica,sans-Serif" font-size="10.00" fill="#000000">L4Re::chkipc</text>
</a>
</g>
</g>
<!-- Node85&#45;&gt;Node89 -->
<g id="edge5" class="edge">
<title>Node85&#45;&gt;Node89</title>
<path fill="none" stroke="#191970" d="M290.6177,-86C308.5639,-86 327.0844,-86 342.6862,-86"/>
<polygon fill="#191970" stroke="#191970" points="290.4377,-82.5001 280.4377,-86 290.4376,-89.5001 290.4377,-82.5001"/>
</g>
<!-- Node90 -->
<g id="node7" class="node">
<title>Node90</title>
<g id="a_node7"><a xlink:href="classL4_1_1Server.html#a4333dc750dee494087ee92ab058718a1" target="_top" xlink:title="Internal implementation for reply and wait. ">
<polygon fill="#ffffff" stroke="#000000" points="317,-38.5 317,-57.5 446,-57.5 446,-38.5 317,-38.5"/>
<text text-anchor="middle" x="381.5" y="-45.5" font-family="Helvetica,sans-Serif" font-size="10.00" fill="#000000">L4::Server::reply_n_wait</text>
</a>
</g>
</g>
<!-- Node85&#45;&gt;Node90 -->
<g id="edge6" class="edge">
<title>Node85&#45;&gt;Node90</title>
<path fill="none" stroke="#191970" d="M268.841,-74.1039C291.8929,-68.7626 318.7211,-62.5463 340.4135,-57.5201"/>
<polygon fill="#191970" stroke="#191970" points="267.836,-70.744 258.8841,-76.411 269.4161,-77.5633 267.836,-70.744"/>
</g>
<!-- Node91 -->
<g id="node8" class="node">
<title>Node91</title>
<g id="a_node8"><a xlink:href="classL4_1_1Server.html#ac0965dc536f1df5dfe0be1b224feab89" target="_top" xlink:title="The server loop. ">
<polygon fill="#ffffff" stroke="#000000" points="316,-.5 316,-19.5 447,-19.5 447,-.5 316,-.5"/>
<text text-anchor="middle" x="381.5" y="-7.5" font-family="Helvetica,sans-Serif" font-size="10.00" fill="#000000">L4::Server::internal_loop</text>
</a>
</g>
</g>
<!-- Node85&#45;&gt;Node91 -->
<g id="edge7" class="edge">
<title>Node85&#45;&gt;Node91</title>
<path fill="none" stroke="#191970" d="M240.0764,-70.8128C259.5288,-58.2544 288.7049,-40.6517 316,-29 324.4939,-25.3741 333.8925,-22.1939 342.8559,-19.5244"/>
<polygon fill="#191970" stroke="#191970" points="238.0601,-67.9495 231.6121,-76.3563 241.8953,-73.8054 238.0601,-67.9495"/>
</g>
<!-- Node87 -->
<g id="node4" class="node">
<title>Node87</title>
<g id="a_node4"><a xlink:href="namespaceL4.html#a54f8da0e02ff2496f1ad935e38ab17c4" target="_top" xlink:title="Throw an L4 IPC error as exception. ">
<polygon fill="#ffffff" stroke="#000000" points="483,-152.5 483,-171.5 614,-171.5 614,-152.5 483,-152.5"/>
<text text-anchor="middle" x="548.5" y="-159.5" font-family="Helvetica,sans-Serif" font-size="10.00" fill="#000000">L4::throw_ipc_exception</text>
</a>
</g>
</g>
<!-- Node86&#45;&gt;Node87 -->
<g id="edge3" class="edge">
<title>Node86&#45;&gt;Node87</title>
<path fill="none" stroke="#191970" d="M457.0663,-162C465.6848,-162 474.4171,-162 482.8913,-162"/>
<polygon fill="#191970" stroke="#191970" points="457.0235,-158.5001 447.0235,-162 457.0235,-165.5001 457.0235,-158.5001"/>
</g>
</g>
</svg>
