<?xml version="1.0" encoding="UTF-8" standalone="no"?>
<!DOCTYPE svg PUBLIC "-//W3C//DTD SVG 1.1//EN"
 "http://www.w3.org/Graphics/SVG/1.1/DTD/svg11.dtd">
<!-- Generated by graphviz version 2.40.1 (20161225.0304)
 -->
<!-- Title: l4_irq_unmask Pages: 1 -->
<svg width="225pt" height="66pt"
 viewBox="0.00 0.00 225.00 66.00" xmlns="http://www.w3.org/2000/svg" xmlns:xlink="http://www.w3.org/1999/xlink">
<g id="graph0" class="graph" transform="scale(1 1) rotate(0) translate(4 62)">
<title>l4_irq_unmask</title>
<polygon fill="#ffffff" stroke="transparent" points="-4,4 -4,-62 221,-62 221,4 -4,4"/>
<!-- Node57 -->
<g id="node1" class="node">
<title>Node57</title>
<polygon fill="#bfbfbf" stroke="#000000" points="0,-19.5 0,-38.5 85,-38.5 85,-19.5 0,-19.5"/>
<text text-anchor="middle" x="42.5" y="-26.5" font-family="Helvetica,sans-Serif" font-size="10.00" fill="#000000">l4_irq_unmask</text>
</g>
<!-- Node58 -->
<g id="node2" class="node">
<title>Node58</title>
<g id="a_node2"><a xlink:href="group__l4__irq__api.html#ga1dd27341b8d2a6cd09e9784188109b7c" target="_top" xlink:title="Unmask IRQ. ">
<polygon fill="#ffffff" stroke="#000000" points="121,-38.5 121,-57.5 217,-57.5 217,-38.5 121,-38.5"/>
<text text-anchor="middle" x="169" y="-45.5" font-family="Helvetica,sans-Serif" font-size="10.00" fill="#000000">l4_irq_unmask_u</text>
</a>
</g>
</g>
<!-- Node57&#45;&gt;Node58 -->
<g id="edge1" class="edge">
<title>Node57&#45;&gt;Node58</title>
<path fill="none" stroke="#191970" d="M85.3271,-35.4325C93.57,-36.6706 102.3312,-37.9865 110.9622,-39.2829"/>
<polygon fill="#191970" stroke="#191970" points="110.5864,-42.7656 120.9954,-40.7898 111.6262,-35.8432 110.5864,-42.7656"/>
</g>
<!-- Node59 -->
<g id="node3" class="node">
<title>Node59</title>
<g id="a_node3"><a xlink:href="group__l4__utcb__api.html#gadc099b4a59e1d99638c72c11a8c8b644" target="_top" xlink:title="Get the UTCB address. ">
<polygon fill="#ffffff" stroke="#000000" points="144,-.5 144,-19.5 194,-19.5 194,-.5 144,-.5"/>
<text text-anchor="middle" x="169" y="-7.5" font-family="Helvetica,sans-Serif" font-size="10.00" fill="#000000">l4_utcb</text>
</a>
</g>
</g>
<!-- Node57&#45;&gt;Node59 -->
<g id="edge2" class="edge">
<title>Node57&#45;&gt;Node59</title>
<path fill="none" stroke="#191970" d="M85.3271,-22.5675C101.1677,-20.1882 118.9229,-17.5215 133.9884,-15.2587"/>
<polygon fill="#191970" stroke="#191970" points="134.5629,-18.7117 143.9321,-13.7651 133.5231,-11.7894 134.5629,-18.7117"/>
</g>
</g>
</svg>
