<?xml version="1.0" encoding="UTF-8" standalone="no"?>
<!DOCTYPE svg PUBLIC "-//W3C//DTD SVG 1.1//EN"
 "http://www.w3.org/Graphics/SVG/1.1/DTD/svg11.dtd">
<!-- Generated by graphviz version 2.40.1 (20161225.0304)
 -->
<!-- Title: ARM Virtual Registers (UTCB) Pages: 1 -->
<svg width="494pt" height="88pt"
 viewBox="0.00 0.00 494.00 88.00" xmlns="http://www.w3.org/2000/svg" xmlns:xlink="http://www.w3.org/1999/xlink">
<g id="graph0" class="graph" transform="scale(1 1) rotate(0) translate(4 84)">
<title>ARM Virtual Registers (UTCB)</title>
<polygon fill="#ffffff" stroke="transparent" points="-4,4 -4,-84 490,-84 490,4 -4,4"/>
<!-- Node3 -->
<g id="node1" class="node">
<title>Node3</title>
<g id="a_node1"><a xlink:href="group__l4__utcb__api__x86.html" target="_top" xlink:title="x86 Virtual Registers\l (UTCB)">
<polygon fill="#ffffff" stroke="#000000" points="364.5,-49.5 364.5,-79.5 478.5,-79.5 478.5,-49.5 364.5,-49.5"/>
<text text-anchor="start" x="372.5" y="-67.5" font-family="Helvetica,sans-Serif" font-size="10.00" fill="#000000">x86 Virtual Registers</text>
<text text-anchor="middle" x="421.5" y="-56.5" font-family="Helvetica,sans-Serif" font-size="10.00" fill="#000000"> (UTCB)</text>
</a>
</g>
</g>
<!-- Node1 -->
<g id="node2" class="node">
<title>Node1</title>
<g id="a_node2"><a xlink:href="group__l4__utcb__api.html" target="_top" xlink:title="L4 Virtual Registers (UTCB). ">
<polygon fill="#ffffff" stroke="#000000" points="0,-24.5 0,-54.5 97,-54.5 97,-24.5 0,-24.5"/>
<text text-anchor="start" x="8" y="-42.5" font-family="Helvetica,sans-Serif" font-size="10.00" fill="#000000">Virtual Registers </text>
<text text-anchor="middle" x="48.5" y="-31.5" font-family="Helvetica,sans-Serif" font-size="10.00" fill="#000000">(UTCBs)</text>
</a>
</g>
</g>
<!-- Node0 -->
<g id="node4" class="node">
<title>Node0</title>
<polygon fill="#bfbfbf" stroke="#000000" points="134,-24.5 134,-54.5 254,-54.5 254,-24.5 134,-24.5"/>
<text text-anchor="start" x="142" y="-42.5" font-family="Helvetica,sans-Serif" font-size="10.00" fill="#000000">ARM Virtual Registers</text>
<text text-anchor="middle" x="194" y="-31.5" font-family="Helvetica,sans-Serif" font-size="10.00" fill="#000000"> (UTCB)</text>
</g>
<!-- Node1&#45;&gt;Node0 -->
<g id="edge1" class="edge">
<title>Node1&#45;&gt;Node0</title>
<path fill="none" stroke="#000000" d="M107.435,-39.5C116.1569,-39.5 125.1538,-39.5 133.8991,-39.5"/>
<polygon fill="#000000" stroke="#000000" points="107.3542,-36.0001 97.3542,-39.5 107.3541,-43.0001 107.3542,-36.0001"/>
</g>
<!-- Node2 -->
<g id="node3" class="node">
<title>Node2</title>
<g id="a_node3"><a xlink:href="group__l4__utcb__api__amd64.html" target="_top" xlink:title="amd64 Virtual Registers\l (UTCB)">
<polygon fill="#ffffff" stroke="#000000" points="357,-.5 357,-30.5 486,-30.5 486,-.5 357,-.5"/>
<text text-anchor="start" x="365" y="-18.5" font-family="Helvetica,sans-Serif" font-size="10.00" fill="#000000">amd64 Virtual Registers</text>
<text text-anchor="middle" x="421.5" y="-7.5" font-family="Helvetica,sans-Serif" font-size="10.00" fill="#000000"> (UTCB)</text>
</a>
</g>
</g>
<!-- Node0&#45;&gt;Node3 -->
<g id="edge3" class="edge">
<title>Node0&#45;&gt;Node3</title>
<path fill="none" stroke="#ffa500" stroke-dasharray="5,2" d="M254.0705,-46.1012C288.1663,-49.8479 330.6108,-54.5122 364.2327,-58.2069"/>
<text text-anchor="middle" x="305.5" y="-57.5" font-family="Helvetica,sans-Serif" font-size="10.00" fill="#000000">l4_exc_regs_t</text>
</g>
<!-- Node0&#45;&gt;Node2 -->
<g id="edge2" class="edge">
<title>Node0&#45;&gt;Node2</title>
<path fill="none" stroke="#ffa500" stroke-dasharray="5,2" d="M254.0705,-33.1629C285.665,-29.8298 324.4284,-25.7405 356.6976,-22.3363"/>
<text text-anchor="middle" x="305.5" y="-34.5" font-family="Helvetica,sans-Serif" font-size="10.00" fill="#000000">l4_exc_regs_t</text>
</g>
</g>
</svg>
