<?xml version="1.0" encoding="UTF-8" standalone="no"?>
<!DOCTYPE svg PUBLIC "-//W3C//DTD SVG 1.1//EN"
 "http://www.w3.org/Graphics/SVG/1.1/DTD/svg11.dtd">
<!-- Generated by graphviz version 2.40.1 (20161225.0304)
 -->
<!-- Title: l4re_kip Pages: 1 -->
<svg width="250pt" height="78pt"
 viewBox="0.00 0.00 250.00 77.50" xmlns="http://www.w3.org/2000/svg" xmlns:xlink="http://www.w3.org/1999/xlink">
<g id="graph0" class="graph" transform="scale(1 1) rotate(0) translate(4 73.5)">
<title>l4re_kip</title>
<polygon fill="#ffffff" stroke="transparent" points="-4,4 -4,-73.5 246,-73.5 246,4 -4,4"/>
<!-- Node18 -->
<g id="node1" class="node">
<title>Node18</title>
<polygon fill="#bfbfbf" stroke="#000000" points="0,-28 0,-47 54,-47 54,-28 0,-28"/>
<text text-anchor="middle" x="27" y="-35" font-family="Helvetica,sans-Serif" font-size="10.00" fill="#000000">l4re_kip</text>
</g>
<!-- Node19 -->
<g id="node2" class="node">
<title>Node19</title>
<g id="a_node2"><a xlink:href="classL4_1_1Poll__timeout__kipclock.html#a5a981174ea6408e39c3a80b8cdb92831" target="_top" xlink:title="(Re&#45;)Set relative timeout in microseconds ">
<polygon fill="#ffffff" stroke="#000000" points="90,-50 90,-69 242,-69 242,-50 90,-50"/>
<text text-anchor="middle" x="166" y="-57" font-family="Helvetica,sans-Serif" font-size="10.00" fill="#000000">L4::Poll_timeout_kipclock::set</text>
</a>
</g>
</g>
<!-- Node18&#45;&gt;Node19 -->
<g id="edge1" class="edge">
<title>Node18&#45;&gt;Node19</title>
<path fill="none" stroke="#191970" d="M64.367,-43.4142C77.1348,-45.435 91.7579,-47.7494 105.8576,-49.9811"/>
<polygon fill="#191970" stroke="#191970" points="64.5548,-39.9004 54.1306,-41.794 63.4605,-46.8144 64.5548,-39.9004"/>
</g>
<!-- Node20 -->
<g id="node3" class="node">
<title>Node20</title>
<g id="a_node3"><a xlink:href="classL4_1_1Poll__timeout__kipclock.html#a5901a2c8eefa9640939fd91cb57e4bf2" target="_top" xlink:title="Test whether timeout has expired. ">
<polygon fill="#ffffff" stroke="#000000" points="99,-.5 99,-30.5 233,-30.5 233,-.5 99,-.5"/>
<text text-anchor="start" x="107" y="-18.5" font-family="Helvetica,sans-Serif" font-size="10.00" fill="#000000">L4::Poll_timeout_kipclock</text>
<text text-anchor="middle" x="166" y="-7.5" font-family="Helvetica,sans-Serif" font-size="10.00" fill="#000000">::test</text>
</a>
</g>
</g>
<!-- Node18&#45;&gt;Node20 -->
<g id="edge2" class="edge">
<title>Node18&#45;&gt;Node20</title>
<path fill="none" stroke="#191970" d="M64.326,-31.5923C75.0067,-29.9018 86.9882,-28.0055 98.8769,-26.1238"/>
<polygon fill="#191970" stroke="#191970" points="63.4605,-28.1856 54.1306,-33.206 64.5548,-35.0996 63.4605,-28.1856"/>
</g>
</g>
</svg>
