<?xml version="1.0" encoding="UTF-8" standalone="no"?>
<!DOCTYPE svg PUBLIC "-//W3C//DTD SVG 1.1//EN"
 "http://www.w3.org/Graphics/SVG/1.1/DTD/svg11.dtd">
<!-- Generated by graphviz version 2.40.1 (20161225.0304)
 -->
<!-- Title: IRQ handling library Pages: 1 -->
<svg width="297pt" height="88pt"
 viewBox="0.00 0.00 297.00 88.00" xmlns="http://www.w3.org/2000/svg" xmlns:xlink="http://www.w3.org/1999/xlink">
<g id="graph0" class="graph" transform="scale(1 1) rotate(0) translate(4 84)">
<title>IRQ handling library</title>
<polygon fill="#ffffff" stroke="transparent" points="-4,4 -4,-84 293,-84 293,4 -4,4"/>
<!-- Node2 -->
<g id="node1" class="node">
<title>Node2</title>
<g id="a_node1"><a xlink:href="group__l4irq__api__async.html" target="_top" xlink:title="This interface has just two (main) functions. ">
<polygon fill="#ffffff" stroke="#000000" points="146,-49.5 146,-79.5 289,-79.5 289,-49.5 146,-49.5"/>
<text text-anchor="start" x="154" y="-67.5" font-family="Helvetica,sans-Serif" font-size="10.00" fill="#000000">Interface for asynchronous</text>
<text text-anchor="middle" x="217.5" y="-56.5" font-family="Helvetica,sans-Serif" font-size="10.00" fill="#000000"> ISR handlers.</text>
</a>
</g>
</g>
<!-- Node0 -->
<g id="node2" class="node">
<title>Node0</title>
<polygon fill="#bfbfbf" stroke="#000000" points="0,-30 0,-49 110,-49 110,-30 0,-30"/>
<text text-anchor="middle" x="55" y="-37" font-family="Helvetica,sans-Serif" font-size="10.00" fill="#000000">IRQ handling library</text>
</g>
<!-- Node0&#45;&gt;Node2 -->
<g id="edge2" class="edge">
<title>Node0&#45;&gt;Node2</title>
<path fill="none" stroke="#000000" d="M120.1673,-49.5257C128.6095,-50.8245 137.2931,-52.1605 145.8334,-53.4744"/>
<polygon fill="#000000" stroke="#000000" points="120.431,-46.0252 110.0151,-47.9639 119.3666,-52.9438 120.431,-46.0252"/>
</g>
<!-- Node1 -->
<g id="node3" class="node">
<title>Node1</title>
<g id="a_node3"><a xlink:href="group__l4irq__api__irq.html" target="_top" xlink:title="Interface using direct\l functionality.">
<polygon fill="#ffffff" stroke="#000000" points="159.5,-.5 159.5,-30.5 275.5,-30.5 275.5,-.5 159.5,-.5"/>
<text text-anchor="start" x="167.5" y="-18.5" font-family="Helvetica,sans-Serif" font-size="10.00" fill="#000000">Interface using direct</text>
<text text-anchor="middle" x="217.5" y="-7.5" font-family="Helvetica,sans-Serif" font-size="10.00" fill="#000000"> functionality.</text>
</a>
</g>
</g>
<!-- Node0&#45;&gt;Node1 -->
<g id="edge1" class="edge">
<title>Node0&#45;&gt;Node1</title>
<path fill="none" stroke="#000000" d="M120.2697,-29.8602C133.2408,-27.9444 146.7775,-25.9452 159.4862,-24.0682"/>
<polygon fill="#000000" stroke="#000000" points="119.3964,-26.4511 110.0151,-31.3747 120.4192,-33.376 119.3964,-26.4511"/>
</g>
</g>
</svg>
