<?xml version="1.0" encoding="UTF-8" standalone="no"?>
<!DOCTYPE svg PUBLIC "-//W3C//DTD SVG 1.1//EN"
 "http://www.w3.org/Graphics/SVG/1.1/DTD/svg11.dtd">
<!-- Generated by graphviz version 2.40.1 (20161225.0304)
 -->
<!-- Title: Base API Pages: 1 -->
<svg width="256pt" height="484pt"
 viewBox="0.00 0.00 256.00 484.00" xmlns="http://www.w3.org/2000/svg" xmlns:xlink="http://www.w3.org/1999/xlink">
<g id="graph0" class="graph" transform="scale(1 1) rotate(0) translate(4 480)">
<title>Base API</title>
<polygon fill="#ffffff" stroke="transparent" points="-4,4 -4,-480 252,-480 252,4 -4,4"/>
<!-- Node10 -->
<g id="node1" class="node">
<title>Node10</title>
<g id="a_node1"><a xlink:href="group__l4__kip__api.html" target="_top" xlink:title="Kernel Interface Page. ">
<polygon fill="#ffffff" stroke="#000000" points="112,-456.5 112,-475.5 232,-475.5 232,-456.5 112,-456.5"/>
<text text-anchor="middle" x="172" y="-463.5" font-family="Helvetica,sans-Serif" font-size="10.00" fill="#000000">Kernel Interface Page</text>
</a>
</g>
</g>
<!-- Node7 -->
<g id="node2" class="node">
<title>Node7</title>
<g id="a_node2"><a xlink:href="group__l4__error__api.html" target="_top" xlink:title="Common error codes. ">
<polygon fill="#ffffff" stroke="#000000" points="136,-418.5 136,-437.5 208,-437.5 208,-418.5 136,-418.5"/>
<text text-anchor="middle" x="172" y="-425.5" font-family="Helvetica,sans-Serif" font-size="10.00" fill="#000000">Error codes</text>
</a>
</g>
</g>
<!-- Node13 -->
<g id="node3" class="node">
<title>Node13</title>
<g id="a_node3"><a xlink:href="group__l4__basic__types.html" target="_top" xlink:title="Integer Types">
<polygon fill="#ffffff" stroke="#000000" points="130.5,-380.5 130.5,-399.5 213.5,-399.5 213.5,-380.5 130.5,-380.5"/>
<text text-anchor="middle" x="172" y="-387.5" font-family="Helvetica,sans-Serif" font-size="10.00" fill="#000000">Integer Types</text>
</a>
</g>
</g>
<!-- Node12 -->
<g id="node4" class="node">
<title>Node12</title>
<g id="a_node4"><a xlink:href="group__l4__mem__op__api.html" target="_top" xlink:title="Operations for memory access. ">
<polygon fill="#ffffff" stroke="#000000" points="117,-342.5 117,-361.5 227,-361.5 227,-342.5 117,-342.5"/>
<text text-anchor="middle" x="172" y="-349.5" font-family="Helvetica,sans-Serif" font-size="10.00" fill="#000000">Memory operations.</text>
</a>
</g>
</g>
<!-- Node3 -->
<g id="node5" class="node">
<title>Node3</title>
<g id="a_node5"><a xlink:href="group__l4__fpage__api.html" target="_top" xlink:title="Flex&#45;page related API. ">
<polygon fill="#ffffff" stroke="#000000" points="138,-304.5 138,-323.5 206,-323.5 206,-304.5 138,-304.5"/>
<text text-anchor="middle" x="172" y="-311.5" font-family="Helvetica,sans-Serif" font-size="10.00" fill="#000000">Flex pages</text>
</a>
</g>
</g>
<!-- Node4 -->
<g id="node6" class="node">
<title>Node4</title>
<g id="a_node6"><a xlink:href="group__l4__cxx__ipc__ifaces.html" target="_top" xlink:title="APIs for defining IPC interfaces using C++ as language. ">
<polygon fill="#ffffff" stroke="#000000" points="96,-266.5 96,-285.5 248,-285.5 248,-266.5 96,-266.5"/>
<text text-anchor="middle" x="172" y="-273.5" font-family="Helvetica,sans-Serif" font-size="10.00" fill="#000000">C++ IPC Interface Definition.</text>
</a>
</g>
</g>
<!-- Node0 -->
<g id="node7" class="node">
<title>Node0</title>
<polygon fill="#bfbfbf" stroke="#000000" points="0,-228.5 0,-247.5 60,-247.5 60,-228.5 0,-228.5"/>
<text text-anchor="middle" x="30" y="-235.5" font-family="Helvetica,sans-Serif" font-size="10.00" fill="#000000">Base API</text>
</g>
<!-- Node0&#45;&gt;Node10 -->
<g id="edge10" class="edge">
<title>Node0&#45;&gt;Node10</title>
<path fill="none" stroke="#000000" d="M33.6657,-257.5947C42.7926,-304.3458 67.838,-420.5029 96,-447 100.5565,-451.2871 105.9293,-454.647 111.678,-457.2744"/>
<polygon fill="#000000" stroke="#000000" points="37.0578,-256.6987 31.7399,-247.5352 30.1827,-258.0149 37.0578,-256.6987"/>
</g>
<!-- Node0&#45;&gt;Node7 -->
<g id="edge7" class="edge">
<title>Node0&#45;&gt;Node7</title>
<path fill="none" stroke="#000000" d="M31.8368,-258.0307C36.2232,-293.8516 50.5987,-368.8808 96,-409 106.905,-418.6363 121.9711,-423.5365 135.8149,-425.9763"/>
<polygon fill="#000000" stroke="#000000" points="35.2931,-257.4374 30.737,-247.8722 28.3338,-258.1909 35.2931,-257.4374"/>
</g>
<!-- Node0&#45;&gt;Node13 -->
<g id="edge13" class="edge">
<title>Node0&#45;&gt;Node13</title>
<path fill="none" stroke="#000000" d="M34.2208,-257.6496C41.5545,-286.9086 59.494,-341.6254 96,-371 105.7485,-378.8441 118.3056,-383.5041 130.3938,-386.2555"/>
<polygon fill="#000000" stroke="#000000" points="37.5996,-256.7274 31.9127,-247.7881 30.7838,-258.3226 37.5996,-256.7274"/>
</g>
<!-- Node0&#45;&gt;Node12 -->
<g id="edge12" class="edge">
<title>Node0&#45;&gt;Node12</title>
<path fill="none" stroke="#000000" d="M37.973,-256.6985C48.2061,-278.4066 68.0373,-313.6929 96,-333 102.2675,-337.3274 109.4296,-340.6708 116.7952,-343.2536"/>
<polygon fill="#000000" stroke="#000000" points="41.1382,-255.2032 33.8391,-247.5237 34.7561,-258.0788 41.1382,-255.2032"/>
</g>
<!-- Node0&#45;&gt;Node3 -->
<g id="edge3" class="edge">
<title>Node0&#45;&gt;Node3</title>
<path fill="none" stroke="#000000" d="M45.2815,-254.9545C57.7361,-267.7694 76.4135,-284.8362 96,-295 108.917,-301.7029 124.3132,-306.1218 137.8596,-308.9951"/>
<polygon fill="#000000" stroke="#000000" points="47.7823,-252.5048 38.3784,-247.6245 42.6864,-257.304 47.7823,-252.5048"/>
</g>
<!-- Node0&#45;&gt;Node4 -->
<g id="edge4" class="edge">
<title>Node0&#45;&gt;Node4</title>
<path fill="none" stroke="#000000" d="M69.9647,-249.7504C78.5387,-252.2025 87.5582,-254.7304 96,-257 107.8207,-260.178 120.7233,-263.4698 132.4861,-266.4026"/>
<polygon fill="#000000" stroke="#000000" points="70.7437,-246.3325 60.1655,-246.9267 68.8054,-253.0588 70.7437,-246.3325"/>
</g>
<!-- Node8 -->
<g id="node8" class="node">
<title>Node8</title>
<g id="a_node8"><a xlink:href="group__l4__ipc__api.html" target="_top" xlink:title="API for L4 object invocation. ">
<polygon fill="#ffffff" stroke="#000000" points="123,-228.5 123,-247.5 221,-247.5 221,-228.5 123,-228.5"/>
<text text-anchor="middle" x="172" y="-235.5" font-family="Helvetica,sans-Serif" font-size="10.00" fill="#000000">Object Invocation</text>
</a>
</g>
</g>
<!-- Node0&#45;&gt;Node8 -->
<g id="edge8" class="edge">
<title>Node0&#45;&gt;Node8</title>
<path fill="none" stroke="#000000" d="M70.4258,-238C86.7755,-238 105.799,-238 122.9328,-238"/>
<polygon fill="#000000" stroke="#000000" points="70.1146,-234.5001 60.1145,-238 70.1145,-241.5001 70.1146,-234.5001"/>
</g>
<!-- Node6 -->
<g id="node9" class="node">
<title>Node6</title>
<g id="a_node9"><a xlink:href="group__l4__memory__api.html" target="_top" xlink:title="Memory related constants, data types and functions. ">
<polygon fill="#ffffff" stroke="#000000" points="126.5,-190.5 126.5,-209.5 217.5,-209.5 217.5,-190.5 126.5,-190.5"/>
<text text-anchor="middle" x="172" y="-197.5" font-family="Helvetica,sans-Serif" font-size="10.00" fill="#000000">Memory related</text>
</a>
</g>
</g>
<!-- Node0&#45;&gt;Node6 -->
<g id="edge6" class="edge">
<title>Node0&#45;&gt;Node6</title>
<path fill="none" stroke="#000000" d="M69.9647,-226.2496C78.5387,-223.7975 87.5582,-221.2696 96,-219 107.8207,-215.822 120.7233,-212.5302 132.4861,-209.5974"/>
<polygon fill="#000000" stroke="#000000" points="68.8054,-222.9412 60.1655,-229.0733 70.7437,-229.6675 68.8054,-222.9412"/>
</g>
<!-- Node2 -->
<g id="node10" class="node">
<title>Node2</title>
<g id="a_node10"><a xlink:href="group__api__calls__fiasco.html" target="_top" xlink:title="Kernel debugger extensions of the Fiasco L4 implementation. ">
<polygon fill="#ffffff" stroke="#000000" points="121.5,-152.5 121.5,-171.5 222.5,-171.5 222.5,-152.5 121.5,-152.5"/>
<text text-anchor="middle" x="172" y="-159.5" font-family="Helvetica,sans-Serif" font-size="10.00" fill="#000000">Fiasco extensions</text>
</a>
</g>
</g>
<!-- Node0&#45;&gt;Node2 -->
<g id="edge2" class="edge">
<title>Node0&#45;&gt;Node2</title>
<path fill="none" stroke="#000000" d="M45.2815,-221.0455C57.7361,-208.2306 76.4135,-191.1638 96,-181 103.8468,-176.9282 112.6084,-173.6992 121.3146,-171.1475"/>
<polygon fill="#000000" stroke="#000000" points="42.6864,-218.696 38.3784,-228.3755 47.7823,-223.4952 42.6864,-218.696"/>
</g>
<!-- Node9 -->
<g id="node11" class="node">
<title>Node9</title>
<g id="a_node11"><a xlink:href="group__l4__kernel__object__api.html" target="_top" xlink:title="API of kernel objects. ">
<polygon fill="#ffffff" stroke="#000000" points="129,-114.5 129,-133.5 215,-133.5 215,-114.5 129,-114.5"/>
<text text-anchor="middle" x="172" y="-121.5" font-family="Helvetica,sans-Serif" font-size="10.00" fill="#000000">Kernel Objects</text>
</a>
</g>
</g>
<!-- Node0&#45;&gt;Node9 -->
<g id="edge9" class="edge">
<title>Node0&#45;&gt;Node9</title>
<path fill="none" stroke="#000000" d="M37.973,-219.3015C48.2061,-197.5934 68.0373,-162.3071 96,-143 105.625,-136.3543 117.3602,-132.0294 128.7014,-129.2161"/>
<polygon fill="#000000" stroke="#000000" points="34.7561,-217.9212 33.8391,-228.4763 41.1382,-220.7968 34.7561,-217.9212"/>
</g>
<!-- Node11 -->
<g id="node12" class="node">
<title>Node11</title>
<g id="a_node12"><a xlink:href="group__l4__cap__api.html" target="_top" xlink:title="C interface for capabilities. ">
<polygon fill="#ffffff" stroke="#000000" points="136.5,-76.5 136.5,-95.5 207.5,-95.5 207.5,-76.5 136.5,-76.5"/>
<text text-anchor="middle" x="172" y="-83.5" font-family="Helvetica,sans-Serif" font-size="10.00" fill="#000000">Capabilities</text>
</a>
</g>
</g>
<!-- Node0&#45;&gt;Node11 -->
<g id="edge11" class="edge">
<title>Node0&#45;&gt;Node11</title>
<path fill="none" stroke="#000000" d="M34.2208,-218.3504C41.5545,-189.0914 59.494,-134.3746 96,-105 107.3379,-95.877 122.475,-91.061 136.2548,-88.5454"/>
<polygon fill="#000000" stroke="#000000" points="30.7838,-217.6774 31.9127,-228.2119 37.5996,-219.2726 30.7838,-217.6774"/>
</g>
<!-- Node5 -->
<g id="node13" class="node">
<title>Node5</title>
<g id="a_node13"><a xlink:href="group__l4__cache__api.html" target="_top" xlink:title="Various functions for cache consistency. ">
<polygon fill="#ffffff" stroke="#000000" points="118,-38.5 118,-57.5 226,-57.5 226,-38.5 118,-38.5"/>
<text text-anchor="middle" x="172" y="-45.5" font-family="Helvetica,sans-Serif" font-size="10.00" fill="#000000">Cache Consistency</text>
</a>
</g>
</g>
<!-- Node0&#45;&gt;Node5 -->
<g id="edge5" class="edge">
<title>Node0&#45;&gt;Node5</title>
<path fill="none" stroke="#000000" d="M31.8368,-217.9693C36.2232,-182.1484 50.5987,-107.1192 96,-67 102.2169,-61.5064 109.7861,-57.5521 117.7103,-54.7154"/>
<polygon fill="#000000" stroke="#000000" points="28.3338,-217.8091 30.737,-228.1278 35.2931,-218.5626 28.3338,-217.8091"/>
</g>
<!-- Node1 -->
<g id="node14" class="node">
<title>Node1</title>
<g id="a_node14"><a xlink:href="group__l4sys__defines.html" target="_top" xlink:title="L4 standard macros for header files, function definitions, and public APIs etc. ">
<polygon fill="#ffffff" stroke="#000000" points="132,-.5 132,-19.5 212,-19.5 212,-.5 132,-.5"/>
<text text-anchor="middle" x="172" y="-7.5" font-family="Helvetica,sans-Serif" font-size="10.00" fill="#000000">Basic Macros</text>
</a>
</g>
</g>
<!-- Node0&#45;&gt;Node1 -->
<g id="edge1" class="edge">
<title>Node0&#45;&gt;Node1</title>
<path fill="none" stroke="#000000" d="M33.6657,-218.4053C42.7926,-171.6542 67.838,-55.4971 96,-29 105.7073,-19.8666 119.1198,-14.9416 131.9783,-12.3414"/>
<polygon fill="#000000" stroke="#000000" points="30.1827,-217.9851 31.7399,-228.4648 37.0578,-219.3013 30.1827,-217.9851"/>
</g>
</g>
</svg>
