<?xml version="1.0" encoding="UTF-8" standalone="no"?>
<!DOCTYPE svg PUBLIC "-//W3C//DTD SVG 1.1//EN"
 "http://www.w3.org/Graphics/SVG/1.1/DTD/svg11.dtd">
<!-- Generated by graphviz version 2.40.1 (20161225.0304)
 -->
<!-- Title: l4_irq_trigger_u Pages: 1 -->
<svg width="352pt" height="180pt"
 viewBox="0.00 0.00 352.00 180.00" xmlns="http://www.w3.org/2000/svg" xmlns:xlink="http://www.w3.org/1999/xlink">
<g id="graph0" class="graph" transform="scale(1 1) rotate(0) translate(4 176)">
<title>l4_irq_trigger_u</title>
<polygon fill="#ffffff" stroke="transparent" points="-4,4 -4,-176 348,-176 348,4 -4,4"/>
<!-- Node45 -->
<g id="node1" class="node">
<title>Node45</title>
<polygon fill="#bfbfbf" stroke="#000000" points="0,-95.5 0,-114.5 91,-114.5 91,-95.5 0,-95.5"/>
<text text-anchor="middle" x="45.5" y="-102.5" font-family="Helvetica,sans-Serif" font-size="10.00" fill="#000000">l4_irq_trigger_u</text>
</g>
<!-- Node46 -->
<g id="node2" class="node">
<title>Node46</title>
<g id="a_node2"><a xlink:href="group__l4__ipc__api.html#ga7de45eb59ce852466362ea85da00299e" target="_top" xlink:title="Send a message to an object (do not wait for a reply). ">
<polygon fill="#ffffff" stroke="#000000" points="127,-133.5 127,-152.5 201,-152.5 201,-133.5 127,-133.5"/>
<text text-anchor="middle" x="164" y="-140.5" font-family="Helvetica,sans-Serif" font-size="10.00" fill="#000000">l4_ipc_send</text>
</a>
</g>
</g>
<!-- Node45&#45;&gt;Node46 -->
<g id="edge1" class="edge">
<title>Node45&#45;&gt;Node46</title>
<path fill="none" stroke="#191970" d="M75.4026,-114.589C90.2787,-119.3594 108.4571,-125.1888 124.4674,-130.3229"/>
<polygon fill="#191970" stroke="#191970" points="123.5159,-133.6932 134.107,-133.4141 125.6534,-127.0276 123.5159,-133.6932"/>
</g>
<!-- Node48 -->
<g id="node4" class="node">
<title>Node48</title>
<g id="a_node4"><a xlink:href="group__l4__msgtag__api.html#ga661d71acad9d096fa990f7c94943bc78" target="_top" xlink:title="Create a message tag from the specified values. ">
<polygon fill="#ffffff" stroke="#000000" points="131.5,-76.5 131.5,-95.5 196.5,-95.5 196.5,-76.5 131.5,-76.5"/>
<text text-anchor="middle" x="164" y="-83.5" font-family="Helvetica,sans-Serif" font-size="10.00" fill="#000000">l4_msgtag</text>
</a>
</g>
</g>
<!-- Node45&#45;&gt;Node48 -->
<g id="edge3" class="edge">
<title>Node45&#45;&gt;Node48</title>
<path fill="none" stroke="#191970" d="M91.3152,-97.6541C101.0723,-96.0897 111.3425,-94.443 120.9901,-92.8961"/>
<polygon fill="#191970" stroke="#191970" points="121.841,-96.3045 131.1608,-91.2654 120.7328,-89.3927 121.841,-96.3045"/>
</g>
<!-- Node47 -->
<g id="node3" class="node">
<title>Node47</title>
<g id="a_node3"><a xlink:href="group__l4__ipc__api.html#ga0e7e5b18d784b1d3439ea6e5b4bea4e2" target="_top" xlink:title="Generic L4 object invocation. ">
<polygon fill="#ffffff" stroke="#000000" points="268.5,-152.5 268.5,-171.5 312.5,-171.5 312.5,-152.5 268.5,-152.5"/>
<text text-anchor="middle" x="290.5" y="-159.5" font-family="Helvetica,sans-Serif" font-size="10.00" fill="#000000">l4_ipc</text>
</a>
</g>
</g>
<!-- Node46&#45;&gt;Node47 -->
<g id="edge2" class="edge">
<title>Node46&#45;&gt;Node47</title>
<path fill="none" stroke="#191970" d="M201.27,-148.5979C219.2553,-151.2992 240.6328,-154.5101 257.9541,-157.1117"/>
<polygon fill="#191970" stroke="#191970" points="257.7393,-160.6186 268.1483,-158.6428 258.7791,-153.6963 257.7393,-160.6186"/>
</g>
<!-- Node49 -->
<g id="node5" class="node">
<title>Node49</title>
<g id="a_node5"><a xlink:href="structl4__msgtag__t.html#a002076380a3f6e4f29a1f6b50ce2bde2" target="_top" xlink:title="Get the protocol value. ">
<polygon fill="#ffffff" stroke="#000000" points="240,-114.5 240,-133.5 341,-133.5 341,-114.5 240,-114.5"/>
<text text-anchor="middle" x="290.5" y="-121.5" font-family="Helvetica,sans-Serif" font-size="10.00" fill="#000000">l4_msgtag_t::label</text>
</a>
</g>
</g>
<!-- Node48&#45;&gt;Node49 -->
<g id="edge4" class="edge">
<title>Node48&#45;&gt;Node49</title>
<path fill="none" stroke="#191970" d="M195.9213,-95.589C211.9516,-100.4044 231.5738,-106.2988 248.7816,-111.468"/>
<polygon fill="#191970" stroke="#191970" points="248.0047,-114.8891 258.5889,-114.4141 250.0187,-108.185 248.0047,-114.8891"/>
</g>
<!-- Node50 -->
<g id="node6" class="node">
<title>Node50</title>
<g id="a_node6"><a xlink:href="structl4__msgtag__t.html#a98577ea730d9abcd938b89d5c7adb18c" target="_top" xlink:title="Get the number of untyped words. ">
<polygon fill="#ffffff" stroke="#000000" points="237,-76.5 237,-95.5 344,-95.5 344,-76.5 237,-76.5"/>
<text text-anchor="middle" x="290.5" y="-83.5" font-family="Helvetica,sans-Serif" font-size="10.00" fill="#000000">l4_msgtag_t::words</text>
</a>
</g>
</g>
<!-- Node48&#45;&gt;Node50 -->
<g id="edge5" class="edge">
<title>Node48&#45;&gt;Node50</title>
<path fill="none" stroke="#191970" d="M196.5769,-86C205.8968,-86 216.3891,-86 226.8945,-86"/>
<polygon fill="#191970" stroke="#191970" points="226.9329,-89.5001 236.9328,-86 226.9328,-82.5001 226.9329,-89.5001"/>
</g>
<!-- Node51 -->
<g id="node7" class="node">
<title>Node51</title>
<g id="a_node7"><a xlink:href="structl4__msgtag__t.html#ad014e4a9f4509b068ddda678f6f8d568" target="_top" xlink:title="Get the number of typed items. ">
<polygon fill="#ffffff" stroke="#000000" points="238.5,-38.5 238.5,-57.5 342.5,-57.5 342.5,-38.5 238.5,-38.5"/>
<text text-anchor="middle" x="290.5" y="-45.5" font-family="Helvetica,sans-Serif" font-size="10.00" fill="#000000">l4_msgtag_t::items</text>
</a>
</g>
</g>
<!-- Node48&#45;&gt;Node51 -->
<g id="edge6" class="edge">
<title>Node48&#45;&gt;Node51</title>
<path fill="none" stroke="#191970" d="M195.9213,-76.411C211.9516,-71.5956 231.5738,-65.7012 248.7816,-60.532"/>
<polygon fill="#191970" stroke="#191970" points="250.0187,-63.815 258.5889,-57.5859 248.0047,-57.1109 250.0187,-63.815"/>
</g>
<!-- Node52 -->
<g id="node8" class="node">
<title>Node52</title>
<g id="a_node8"><a xlink:href="structl4__msgtag__t.html#af6b9564a9a16427cec0e81a4628996b8" target="_top" xlink:title="Get the flags value. ">
<polygon fill="#ffffff" stroke="#000000" points="240,-.5 240,-19.5 341,-19.5 341,-.5 240,-.5"/>
<text text-anchor="middle" x="290.5" y="-7.5" font-family="Helvetica,sans-Serif" font-size="10.00" fill="#000000">l4_msgtag_t::flags</text>
</a>
</g>
</g>
<!-- Node48&#45;&gt;Node52 -->
<g id="edge7" class="edge">
<title>Node48&#45;&gt;Node52</title>
<path fill="none" stroke="#191970" d="M174.1224,-76.3464C187.5644,-63.9585 212.4749,-42.4648 237,-29 240.7422,-26.9454 244.7496,-25.0422 248.8253,-23.298"/>
<polygon fill="#191970" stroke="#191970" points="250.3574,-26.4558 258.3665,-19.52 247.7803,-19.9474 250.3574,-26.4558"/>
</g>
</g>
</svg>
