<?xml version="1.0" encoding="UTF-8" standalone="no"?>
<!DOCTYPE svg PUBLIC "-//W3C//DTD SVG 1.1//EN"
 "http://www.w3.org/Graphics/SVG/1.1/DTD/svg11.dtd">
<!-- Generated by graphviz version 2.40.1 (20161225.0304)
 -->
<!-- Title: l4_ipc_wait Pages: 1 -->
<svg width="443pt" height="104pt"
 viewBox="0.00 0.00 443.00 104.00" xmlns="http://www.w3.org/2000/svg" xmlns:xlink="http://www.w3.org/1999/xlink">
<g id="graph0" class="graph" transform="scale(1 1) rotate(0) translate(4 100)">
<title>l4_ipc_wait</title>
<polygon fill="#ffffff" stroke="transparent" points="-4,4 -4,-100 439,-100 439,4 -4,4"/>
<!-- Node65 -->
<g id="node1" class="node">
<title>Node65</title>
<polygon fill="#bfbfbf" stroke="#000000" points="0,-38.5 0,-57.5 69,-57.5 69,-38.5 0,-38.5"/>
<text text-anchor="middle" x="34.5" y="-45.5" font-family="Helvetica,sans-Serif" font-size="10.00" fill="#000000">l4_ipc_wait</text>
</g>
<!-- Node66 -->
<g id="node2" class="node">
<title>Node66</title>
<g id="a_node2"><a xlink:href="group__api__libvcpu.html#gaa1e7797e4ed8b7dabd40c9849f5c362c" target="_top" xlink:title="Disable a vCPU for event delivery and return previous state. ">
<polygon fill="#ffffff" stroke="#000000" points="105,-76.5 105,-95.5 237,-95.5 237,-76.5 105,-76.5"/>
<text text-anchor="middle" x="171" y="-83.5" font-family="Helvetica,sans-Serif" font-size="10.00" fill="#000000">l4vcpu_irq_disable_save</text>
</a>
</g>
</g>
<!-- Node65&#45;&gt;Node66 -->
<g id="edge1" class="edge">
<title>Node65&#45;&gt;Node66</title>
<path fill="none" stroke="#191970" d="M78.7487,-60.3183C97.503,-65.5393 119.028,-71.5316 136.5663,-76.4141"/>
<polygon fill="#191970" stroke="#191970" points="79.5171,-56.8992 68.9447,-57.589 77.6397,-63.6428 79.5171,-56.8992"/>
</g>
<!-- Node68 -->
<g id="node4" class="node">
<title>Node68</title>
<g id="a_node4"><a xlink:href="classL4_1_1Server.html#a4333dc750dee494087ee92ab058718a1" target="_top" xlink:title="Internal implementation for reply and wait. ">
<polygon fill="#ffffff" stroke="#000000" points="106.5,-38.5 106.5,-57.5 235.5,-57.5 235.5,-38.5 106.5,-38.5"/>
<text text-anchor="middle" x="171" y="-45.5" font-family="Helvetica,sans-Serif" font-size="10.00" fill="#000000">L4::Server::reply_n_wait</text>
</a>
</g>
</g>
<!-- Node65&#45;&gt;Node68 -->
<g id="edge3" class="edge">
<title>Node65&#45;&gt;Node68</title>
<path fill="none" stroke="#191970" d="M79.4569,-48C88.0483,-48 97.1993,-48 106.2673,-48"/>
<polygon fill="#191970" stroke="#191970" points="79.2979,-44.5001 69.2979,-48 79.2979,-51.5001 79.2979,-44.5001"/>
</g>
<!-- Node69 -->
<g id="node5" class="node">
<title>Node69</title>
<g id="a_node5"><a xlink:href="classL4_1_1Ipc_1_1Istream.html#aeefe739d106daa026a1d94ade34f1d97" target="_top" xlink:title="Wait for an incoming message from any sender. ">
<polygon fill="#ffffff" stroke="#000000" points="116,-.5 116,-19.5 226,-19.5 226,-.5 116,-.5"/>
<text text-anchor="middle" x="171" y="-7.5" font-family="Helvetica,sans-Serif" font-size="10.00" fill="#000000">L4::Ipc::Istream::wait</text>
</a>
</g>
</g>
<!-- Node65&#45;&gt;Node69 -->
<g id="edge4" class="edge">
<title>Node65&#45;&gt;Node69</title>
<path fill="none" stroke="#191970" d="M78.7487,-35.6817C97.503,-30.4607 119.028,-24.4684 136.5663,-19.5859"/>
<polygon fill="#191970" stroke="#191970" points="77.6397,-32.3572 68.9447,-38.411 79.5171,-39.1008 77.6397,-32.3572"/>
</g>
<!-- Node67 -->
<g id="node3" class="node">
<title>Node67</title>
<g id="a_node3"><a xlink:href="classL4vcpu_1_1Vcpu.html#a05a251f7ecc0852035f2db1cd8b23188" target="_top" xlink:title="Disable the vCPU for event delivery and return previous state. ">
<polygon fill="#ffffff" stroke="#000000" points="273,-76.5 273,-95.5 435,-95.5 435,-76.5 273,-76.5"/>
<text text-anchor="middle" x="354" y="-83.5" font-family="Helvetica,sans-Serif" font-size="10.00" fill="#000000">L4vcpu::Vcpu::irq_disable_save</text>
</a>
</g>
</g>
<!-- Node66&#45;&gt;Node67 -->
<g id="edge2" class="edge">
<title>Node66&#45;&gt;Node67</title>
<path fill="none" stroke="#191970" d="M247.2274,-86C255.6453,-86 264.2408,-86 272.7178,-86"/>
<polygon fill="#191970" stroke="#191970" points="247.0672,-82.5001 237.0672,-86 247.0672,-89.5001 247.0672,-82.5001"/>
</g>
</g>
</svg>
