<?xml version="1.0" encoding="UTF-8" standalone="no"?>
<!DOCTYPE svg PUBLIC "-//W3C//DTD SVG 1.1//EN"
 "http://www.w3.org/Graphics/SVG/1.1/DTD/svg11.dtd">
<!-- Generated by graphviz version 2.40.1 (20161225.0304)
 -->
<!-- Title: l4_thread_ex_regs_ret Pages: 1 -->
<svg width="305pt" height="66pt"
 viewBox="0.00 0.00 305.00 66.00" xmlns="http://www.w3.org/2000/svg" xmlns:xlink="http://www.w3.org/1999/xlink">
<g id="graph0" class="graph" transform="scale(1 1) rotate(0) translate(4 62)">
<title>l4_thread_ex_regs_ret</title>
<polygon fill="#ffffff" stroke="transparent" points="-4,4 -4,-62 301,-62 301,4 -4,4"/>
<!-- Node6 -->
<g id="node1" class="node">
<title>Node6</title>
<polygon fill="#bfbfbf" stroke="#000000" points="0,-19.5 0,-38.5 125,-38.5 125,-19.5 0,-19.5"/>
<text text-anchor="middle" x="62.5" y="-26.5" font-family="Helvetica,sans-Serif" font-size="10.00" fill="#000000">l4_thread_ex_regs_ret</text>
</g>
<!-- Node7 -->
<g id="node2" class="node">
<title>Node7</title>
<g id="a_node2"><a xlink:href="group__l4__thread__api.html#ga5e191cd9b1cbc5d0ac9166fb2bdd5a18" target="_top" xlink:title="Exchange basic thread registers and return previous values. ">
<polygon fill="#ffffff" stroke="#000000" points="161,-38.5 161,-57.5 297,-57.5 297,-38.5 161,-38.5"/>
<text text-anchor="middle" x="229" y="-45.5" font-family="Helvetica,sans-Serif" font-size="10.00" fill="#000000">l4_thread_ex_regs_ret_u</text>
</a>
</g>
</g>
<!-- Node6&#45;&gt;Node7 -->
<g id="edge1" class="edge">
<title>Node6&#45;&gt;Node7</title>
<path fill="none" stroke="#191970" d="M125.4465,-36.1831C133.7864,-37.1348 142.4158,-38.1195 150.9713,-39.0958"/>
<polygon fill="#191970" stroke="#191970" points="150.6267,-42.5791 160.9591,-40.2356 151.4204,-35.6243 150.6267,-42.5791"/>
</g>
<!-- Node8 -->
<g id="node3" class="node">
<title>Node8</title>
<g id="a_node3"><a xlink:href="group__l4__utcb__api.html#gadc099b4a59e1d99638c72c11a8c8b644" target="_top" xlink:title="Get the UTCB address. ">
<polygon fill="#ffffff" stroke="#000000" points="204,-.5 204,-19.5 254,-19.5 254,-.5 204,-.5"/>
<text text-anchor="middle" x="229" y="-7.5" font-family="Helvetica,sans-Serif" font-size="10.00" fill="#000000">l4_utcb</text>
</a>
</g>
</g>
<!-- Node6&#45;&gt;Node8 -->
<g id="edge2" class="edge">
<title>Node6&#45;&gt;Node8</title>
<path fill="none" stroke="#191970" d="M125.4465,-21.8169C148.5524,-19.1802 173.8805,-16.2899 193.704,-14.0278"/>
<polygon fill="#191970" stroke="#191970" points="194.2753,-17.4854 203.814,-12.8741 193.4816,-10.5305 194.2753,-17.4854"/>
</g>
</g>
</svg>
