<?xml version="1.0" encoding="UTF-8" standalone="no"?>
<!DOCTYPE svg PUBLIC "-//W3C//DTD SVG 1.1//EN"
 "http://www.w3.org/Graphics/SVG/1.1/DTD/svg11.dtd">
<!-- Generated by graphviz version 2.40.1 (20161225.0304)
 -->
<!-- Title: l4util_bsf Pages: 1 -->
<svg width="347pt" height="28pt"
 viewBox="0.00 0.00 347.00 28.00" xmlns="http://www.w3.org/2000/svg" xmlns:xlink="http://www.w3.org/1999/xlink">
<g id="graph0" class="graph" transform="scale(1 1) rotate(0) translate(4 24)">
<title>l4util_bsf</title>
<polygon fill="#ffffff" stroke="transparent" points="-4,4 -4,-24 343,-24 343,4 -4,4"/>
<!-- Node1 -->
<g id="node1" class="node">
<title>Node1</title>
<polygon fill="#bfbfbf" stroke="#000000" points="0,-.5 0,-19.5 57,-19.5 57,-.5 0,-.5"/>
<text text-anchor="middle" x="28.5" y="-7.5" font-family="Helvetica,sans-Serif" font-size="10.00" fill="#000000">l4util_bsf</text>
</g>
<!-- Node2 -->
<g id="node2" class="node">
<title>Node2</title>
<g id="a_node2"><a xlink:href="group__l4util__api.html#ga4b64c17b6e4392997addc015b4ed53ab" target="_top" xlink:title="Return log2 base and size aligned length of a range. ">
<polygon fill="#ffffff" stroke="#000000" points="93,-.5 93,-19.5 200,-19.5 200,-.5 93,-.5"/>
<text text-anchor="middle" x="146.5" y="-7.5" font-family="Helvetica,sans-Serif" font-size="10.00" fill="#000000">l4util_splitlog2_size</text>
</a>
</g>
</g>
<!-- Node1&#45;&gt;Node2 -->
<g id="edge1" class="edge">
<title>Node1&#45;&gt;Node2</title>
<path fill="none" stroke="#191970" d="M67.0989,-10C75.3203,-10 84.1444,-10 92.8142,-10"/>
<polygon fill="#191970" stroke="#191970" points="67.0645,-6.5001 57.0645,-10 67.0645,-13.5001 67.0645,-6.5001"/>
</g>
<!-- Node3 -->
<g id="node3" class="node">
<title>Node3</title>
<g id="a_node3"><a xlink:href="group__l4util__api.html#gab91ed7305d923e57c844060ac1b63234" target="_top" xlink:title="Split a range into log2 base and size aligned chunks. ">
<polygon fill="#ffffff" stroke="#000000" points="236,-.5 236,-19.5 339,-19.5 339,-.5 236,-.5"/>
<text text-anchor="middle" x="287.5" y="-7.5" font-family="Helvetica,sans-Serif" font-size="10.00" fill="#000000">l4util_splitlog2_hdl</text>
</a>
</g>
</g>
<!-- Node2&#45;&gt;Node3 -->
<g id="edge2" class="edge">
<title>Node2&#45;&gt;Node3</title>
<path fill="none" stroke="#191970" d="M210.4617,-10C218.9469,-10 227.5595,-10 235.8021,-10"/>
<polygon fill="#191970" stroke="#191970" points="210.2083,-6.5001 200.2083,-10 210.2082,-13.5001 210.2083,-6.5001"/>
</g>
</g>
</svg>
