<?xml version="1.0" encoding="UTF-8" standalone="no"?>
<!DOCTYPE svg PUBLIC "-//W3C//DTD SVG 1.1//EN"
 "http://www.w3.org/Graphics/SVG/1.1/DTD/svg11.dtd">
<!-- Generated by graphviz version 2.40.1 (20161225.0304)
 -->
<!-- Title: l4re_env_get_cap Pages: 1 -->
<svg width="406pt" height="66pt"
 viewBox="0.00 0.00 406.00 66.00" xmlns="http://www.w3.org/2000/svg" xmlns:xlink="http://www.w3.org/1999/xlink">
<g id="graph0" class="graph" transform="scale(1 1) rotate(0) translate(4 62)">
<title>l4re_env_get_cap</title>
<polygon fill="#ffffff" stroke="transparent" points="-4,4 -4,-62 402,-62 402,4 -4,4"/>
<!-- Node3 -->
<g id="node1" class="node">
<title>Node3</title>
<polygon fill="#bfbfbf" stroke="#000000" points="0,-19.5 0,-38.5 102,-38.5 102,-19.5 0,-19.5"/>
<text text-anchor="middle" x="51" y="-26.5" font-family="Helvetica,sans-Serif" font-size="10.00" fill="#000000">l4re_env_get_cap</text>
</g>
<!-- Node4 -->
<g id="node2" class="node">
<title>Node4</title>
<g id="a_node2"><a xlink:href="group__api__l4re__env.html#gac103498c48310ccea751065ca4d1678a" target="_top" xlink:title="Get L4Re initial environment. ">
<polygon fill="#ffffff" stroke="#000000" points="166,-38.5 166,-57.5 224,-57.5 224,-38.5 166,-38.5"/>
<text text-anchor="middle" x="195" y="-45.5" font-family="Helvetica,sans-Serif" font-size="10.00" fill="#000000">l4re_env</text>
</a>
</g>
</g>
<!-- Node3&#45;&gt;Node4 -->
<g id="edge1" class="edge">
<title>Node3&#45;&gt;Node4</title>
<path fill="none" stroke="#191970" d="M102.1745,-35.7522C119.6812,-38.0621 138.9853,-40.6092 155.4342,-42.7795"/>
<polygon fill="#191970" stroke="#191970" points="155.4116,-46.3068 165.7836,-44.1451 156.3273,-39.3669 155.4116,-46.3068"/>
</g>
<!-- Node5 -->
<g id="node3" class="node">
<title>Node5</title>
<g id="a_node3"><a xlink:href="group__api__l4re__env.html#ga788aedd589b464cccbeff610416cced9" target="_top" xlink:title="Get the capability selector for the object named name. ">
<polygon fill="#ffffff" stroke="#000000" points="138,-.5 138,-19.5 252,-19.5 252,-.5 138,-.5"/>
<text text-anchor="middle" x="195" y="-7.5" font-family="Helvetica,sans-Serif" font-size="10.00" fill="#000000">l4re_env_get_cap_e</text>
</a>
</g>
</g>
<!-- Node3&#45;&gt;Node5 -->
<g id="edge2" class="edge">
<title>Node3&#45;&gt;Node5</title>
<path fill="none" stroke="#191970" d="M102.1745,-22.2478C110.4251,-21.1592 119.075,-20.0179 127.637,-18.8882"/>
<polygon fill="#191970" stroke="#191970" points="128.1624,-22.3493 137.6186,-17.5712 127.2467,-15.4094 128.1624,-22.3493"/>
</g>
<!-- Node6 -->
<g id="node4" class="node">
<title>Node6</title>
<g id="a_node4"><a xlink:href="group__api__l4re__env.html#gadb38a15f6070f3c4e264532f3779d3bc" target="_top" xlink:title="Get the full l4re_env_cap_entry_t for the object named name. ">
<polygon fill="#ffffff" stroke="#000000" points="288,-.5 288,-19.5 398,-19.5 398,-.5 288,-.5"/>
<text text-anchor="middle" x="343" y="-7.5" font-family="Helvetica,sans-Serif" font-size="10.00" fill="#000000">l4re_env_get_cap_l</text>
</a>
</g>
</g>
<!-- Node5&#45;&gt;Node6 -->
<g id="edge3" class="edge">
<title>Node5&#45;&gt;Node6</title>
<path fill="none" stroke="#191970" d="M252.2207,-10C260.5481,-10 269.1747,-10 277.648,-10"/>
<polygon fill="#191970" stroke="#191970" points="277.8771,-13.5001 287.8771,-10 277.8771,-6.5001 277.8771,-13.5001"/>
</g>
</g>
</svg>
