<?xml version="1.0" encoding="UTF-8" standalone="no"?>
<!DOCTYPE svg PUBLIC "-//W3C//DTD SVG 1.1//EN"
 "http://www.w3.org/Graphics/SVG/1.1/DTD/svg11.dtd">
<!-- Generated by graphviz version 2.40.1 (20161225.0304)
 -->
<!-- Title: l4_timeout_abs Pages: 1 -->
<svg width="286pt" height="61pt"
 viewBox="0.00 0.00 286.00 61.00" xmlns="http://www.w3.org/2000/svg" xmlns:xlink="http://www.w3.org/1999/xlink">
<g id="graph0" class="graph" transform="scale(1 1) rotate(0) translate(4 57)">
<title>l4_timeout_abs</title>
<polygon fill="#ffffff" stroke="transparent" points="-4,4 -4,-57 282,-57 282,4 -4,4"/>
<!-- Node10 -->
<g id="node1" class="node">
<title>Node10</title>
<polygon fill="#bfbfbf" stroke="#000000" points="0,-17 0,-36 87,-36 87,-17 0,-17"/>
<text text-anchor="middle" x="43.5" y="-24" font-family="Helvetica,sans-Serif" font-size="10.00" fill="#000000">l4_timeout_abs</text>
</g>
<!-- Node11 -->
<g id="node2" class="node">
<title>Node11</title>
<g id="a_node2"><a xlink:href="classL4_1_1Ipc__svr_1_1Timeout__queue__hooks.html#ae4a6bd9781bf97a37dbff039db58d47d" target="_top" xlink:title="get the time for the next timeout ">
<polygon fill="#ffffff" stroke="#000000" points="123,-.5 123,-52.5 278,-52.5 278,-.5 123,-.5"/>
<text text-anchor="start" x="131" y="-40.5" font-family="Helvetica,sans-Serif" font-size="10.00" fill="#000000">L4::Ipc_svr::Timeout</text>
<text text-anchor="start" x="131" y="-29.5" font-family="Helvetica,sans-Serif" font-size="10.00" fill="#000000">_queue_hooks&lt; Br_manager</text>
<text text-anchor="start" x="131" y="-18.5" font-family="Helvetica,sans-Serif" font-size="10.00" fill="#000000">_timeout_hooks, Br_manager</text>
<text text-anchor="middle" x="200.5" y="-7.5" font-family="Helvetica,sans-Serif" font-size="10.00" fill="#000000"> &gt;::timeout</text>
</a>
</g>
</g>
<!-- Node10&#45;&gt;Node11 -->
<g id="edge1" class="edge">
<title>Node10&#45;&gt;Node11</title>
<path fill="none" stroke="#191970" d="M97.3666,-26.5C105.5592,-26.5 114.1502,-26.5 122.7295,-26.5"/>
<polygon fill="#191970" stroke="#191970" points="97.2333,-23.0001 87.2333,-26.5 97.2332,-30.0001 97.2333,-23.0001"/>
</g>
</g>
</svg>
