<?xml version="1.0" encoding="UTF-8" standalone="no"?>
<!DOCTYPE svg PUBLIC "-//W3C//DTD SVG 1.1//EN"
 "http://www.w3.org/Graphics/SVG/1.1/DTD/svg11.dtd">
<!-- Generated by graphviz version 2.40.1 (20161225.0304)
 -->
<!-- Title: L4Re Util C++ Interface Pages: 1 -->
<svg width="539pt" height="74pt"
 viewBox="0.00 0.00 539.00 74.21" xmlns="http://www.w3.org/2000/svg" xmlns:xlink="http://www.w3.org/1999/xlink">
<g id="graph0" class="graph" transform="scale(1 1) rotate(0) translate(4 70.2135)">
<title>L4Re Util C++ Interface</title>
<polygon fill="#ffffff" stroke="transparent" points="-4,4 -4,-70.2135 535,-70.2135 535,4 -4,4"/>
<!-- Node0 -->
<g id="node1" class="node">
<title>Node0</title>
<polygon fill="#bfbfbf" stroke="#000000" points="148,-21.7135 148,-40.7135 277,-40.7135 277,-21.7135 148,-21.7135"/>
<text text-anchor="middle" x="212.5" y="-28.7135" font-family="Helvetica,sans-Serif" font-size="10.00" fill="#000000">L4Re Util C++ Interface</text>
</g>
<!-- Node3 -->
<g id="node3" class="node">
<title>Node3</title>
<g id="a_node3"><a xlink:href="group__l4re__util__kumem.html" target="_top" xlink:title="Kumem utiltities">
<polygon fill="#ffffff" stroke="#000000" points="431.5,-46.7135 431.5,-65.7135 520.5,-65.7135 520.5,-46.7135 431.5,-46.7135"/>
<text text-anchor="middle" x="476" y="-53.7135" font-family="Helvetica,sans-Serif" font-size="10.00" fill="#000000">Kumem utiltities</text>
</a>
</g>
</g>
<!-- Node0&#45;&gt;Node3 -->
<g id="edge3" class="edge">
<title>Node0&#45;&gt;Node3</title>
<path fill="none" stroke="#000000" d="M287.3224,-38.3124C333.7794,-42.7201 391.9284,-48.237 431.302,-51.9727"/>
<polygon fill="#000000" stroke="#000000" points="287.5827,-34.8214 277.2968,-37.3612 286.9215,-41.7901 287.5827,-34.8214"/>
</g>
<!-- Node2 -->
<g id="node4" class="node">
<title>Node2</title>
<g id="a_node4"><a xlink:href="group__l4re__cap__api.html" target="_top" xlink:title="L4Re Capability API">
<polygon fill="#ffffff" stroke="#000000" points="421,-2.7135 421,-21.7135 531,-21.7135 531,-2.7135 421,-2.7135"/>
<text text-anchor="middle" x="476" y="-9.7135" font-family="Helvetica,sans-Serif" font-size="10.00" fill="#000000">L4Re Capability API</text>
</a>
</g>
</g>
<!-- Node0&#45;&gt;Node2 -->
<g id="edge2" class="edge">
<title>Node0&#45;&gt;Node2</title>
<path fill="none" stroke="#000000" d="M287.3149,-25.8188C329.8031,-22.7552 382.0728,-18.9862 420.8151,-16.1926"/>
<polygon fill="#000000" stroke="#000000" points="287.0192,-22.331 277.2968,-26.5412 287.5227,-29.3129 287.0192,-22.331"/>
</g>
<!-- Node0&#45;&gt;Node2 -->
<g id="edge4" class="edge">
<title>Node0&#45;&gt;Node2</title>
<path fill="none" stroke="#ffa500" stroke-dasharray="5,2" d="M235.1323,-21.653C251.4445,-15.2996 274.1646,-7.5362 295,-4.2135 336.7781,2.4491 384.6189,-.0975 420.6197,-4.0156"/>
<text text-anchor="middle" x="349" y="-7.2135" font-family="Helvetica,sans-Serif" font-size="10.00" fill="#000000">L4Re::Smart_cap_auto</text>
</g>
<!-- Node1 -->
<g id="node2" class="node">
<title>Node1</title>
<g id="a_node2"><a xlink:href="group__api__l4re.html" target="_top" xlink:title="Documentation of the L4 Runtime Environment C++ API. ">
<polygon fill="#ffffff" stroke="#000000" points="0,-21.7135 0,-40.7135 111,-40.7135 111,-21.7135 0,-21.7135"/>
<text text-anchor="middle" x="55.5" y="-28.7135" font-family="Helvetica,sans-Serif" font-size="10.00" fill="#000000">L4Re C++ Interface</text>
</a>
</g>
</g>
<!-- Node1&#45;&gt;Node0 -->
<g id="edge1" class="edge">
<title>Node1&#45;&gt;Node0</title>
<path fill="none" stroke="#000000" d="M121.4107,-31.2135C130.1344,-31.2135 139.0712,-31.2135 147.7746,-31.2135"/>
<polygon fill="#000000" stroke="#000000" points="121.2944,-27.7136 111.2944,-31.2135 121.2944,-34.7136 121.2944,-27.7136"/>
</g>
</g>
</svg>
