<?xml version="1.0" encoding="UTF-8" standalone="no"?>
<!DOCTYPE svg PUBLIC "-//W3C//DTD SVG 1.1//EN"
 "http://www.w3.org/Graphics/SVG/1.1/DTD/svg11.dtd">
<!-- Generated by graphviz version 2.40.1 (20161225.0304)
 -->
<!-- Title: l4re_rm_detach_srv Pages: 1 -->
<svg width="301pt" height="142pt"
 viewBox="0.00 0.00 301.00 142.00" xmlns="http://www.w3.org/2000/svg" xmlns:xlink="http://www.w3.org/1999/xlink">
<g id="graph0" class="graph" transform="scale(1 1) rotate(0) translate(4 138)">
<title>l4re_rm_detach_srv</title>
<polygon fill="#ffffff" stroke="transparent" points="-4,4 -4,-138 297,-138 297,4 -4,4"/>
<!-- Node16 -->
<g id="node1" class="node">
<title>Node16</title>
<polygon fill="#bfbfbf" stroke="#000000" points="0,-57.5 0,-76.5 111,-76.5 111,-57.5 0,-57.5"/>
<text text-anchor="middle" x="55.5" y="-64.5" font-family="Helvetica,sans-Serif" font-size="10.00" fill="#000000">l4re_rm_detach_srv</text>
</g>
<!-- Node17 -->
<g id="node2" class="node">
<title>Node17</title>
<g id="a_node2"><a xlink:href="group__api__l4re__c__rm.html#ga5d553540131111a12f66712bb6d4d449" target="_top" xlink:title="Detach and unmap in current task. ">
<polygon fill="#ffffff" stroke="#000000" points="174.5,-114.5 174.5,-133.5 265.5,-133.5 265.5,-114.5 174.5,-114.5"/>
<text text-anchor="middle" x="220" y="-121.5" font-family="Helvetica,sans-Serif" font-size="10.00" fill="#000000">l4re_rm_detach</text>
</a>
</g>
</g>
<!-- Node16&#45;&gt;Node17 -->
<g id="edge1" class="edge">
<title>Node16&#45;&gt;Node17</title>
<path fill="none" stroke="#191970" d="M85.4936,-80.6956C103.165,-88.4509 126.0886,-97.9743 147,-105 157.3036,-108.4617 168.5995,-111.676 179.1613,-114.4394"/>
<polygon fill="#191970" stroke="#191970" points="86.8225,-77.4562 76.2627,-76.5961 83.9814,-83.8537 86.8225,-77.4562"/>
</g>
<!-- Node18 -->
<g id="node3" class="node">
<title>Node18</title>
<g id="a_node3"><a xlink:href="group__api__l4re__c__rm.html#gab808c5167e7464afa8be55a1650c938a" target="_top" xlink:title="Detach, unmap and return affected dataspace in current task. ">
<polygon fill="#ffffff" stroke="#000000" points="166,-76.5 166,-95.5 274,-95.5 274,-76.5 166,-76.5"/>
<text text-anchor="middle" x="220" y="-83.5" font-family="Helvetica,sans-Serif" font-size="10.00" fill="#000000">l4re_rm_detach_ds</text>
</a>
</g>
</g>
<!-- Node16&#45;&gt;Node18 -->
<g id="edge2" class="edge">
<title>Node16&#45;&gt;Node18</title>
<path fill="none" stroke="#191970" d="M121.2688,-74.5964C136.0299,-76.3013 151.5295,-78.0916 165.7591,-79.7351"/>
<polygon fill="#191970" stroke="#191970" points="121.5278,-71.1031 111.1922,-73.4325 120.7245,-78.0569 121.5278,-71.1031"/>
</g>
<!-- Node19 -->
<g id="node4" class="node">
<title>Node19</title>
<g id="a_node4"><a xlink:href="group__api__l4re__c__rm.html#gaf909259f07302cc9f7d4798192aa58f4" target="_top" xlink:title="Detach and unmap in specified task. ">
<polygon fill="#ffffff" stroke="#000000" points="147,-38.5 147,-57.5 293,-57.5 293,-38.5 147,-38.5"/>
<text text-anchor="middle" x="220" y="-45.5" font-family="Helvetica,sans-Serif" font-size="10.00" fill="#000000">l4re_rm_detach_ds_unmap</text>
</a>
</g>
</g>
<!-- Node16&#45;&gt;Node19 -->
<g id="edge3" class="edge">
<title>Node16&#45;&gt;Node19</title>
<path fill="none" stroke="#191970" d="M121.3026,-59.3997C129.7089,-58.4288 138.3541,-57.4302 146.8675,-56.4469"/>
<polygon fill="#191970" stroke="#191970" points="120.7245,-55.9431 111.1922,-60.5675 121.5278,-62.8969 120.7245,-55.9431"/>
</g>
<!-- Node20 -->
<g id="node5" class="node">
<title>Node20</title>
<g id="a_node5"><a xlink:href="group__api__l4re__c__rm.html#gac52716554eaf92c93e3634f1dbde236b" target="_top" xlink:title="Detach and unmap in specified task. ">
<polygon fill="#ffffff" stroke="#000000" points="156,-.5 156,-19.5 284,-19.5 284,-.5 156,-.5"/>
<text text-anchor="middle" x="220" y="-7.5" font-family="Helvetica,sans-Serif" font-size="10.00" fill="#000000">l4re_rm_detach_unmap</text>
</a>
</g>
</g>
<!-- Node16&#45;&gt;Node20 -->
<g id="edge4" class="edge">
<title>Node16&#45;&gt;Node20</title>
<path fill="none" stroke="#191970" d="M85.4936,-53.3044C103.165,-45.5491 126.0886,-36.0257 147,-29 157.3036,-25.5383 168.5995,-22.324 179.1613,-19.5606"/>
<polygon fill="#191970" stroke="#191970" points="83.9814,-50.1463 76.2627,-57.4039 86.8225,-56.5438 83.9814,-50.1463"/>
</g>
</g>
</svg>
