<?xml version="1.0" encoding="UTF-8" standalone="no"?>
<!DOCTYPE svg PUBLIC "-//W3C//DTD SVG 1.1//EN"
 "http://www.w3.org/Graphics/SVG/1.1/DTD/svg11.dtd">
<!-- Generated by graphviz version 2.40.1 (20161225.0304)
 -->
<!-- Title: l4_irq_wait Pages: 1 -->
<svg width="191pt" height="66pt"
 viewBox="0.00 0.00 191.00 66.00" xmlns="http://www.w3.org/2000/svg" xmlns:xlink="http://www.w3.org/1999/xlink">
<g id="graph0" class="graph" transform="scale(1 1) rotate(0) translate(4 62)">
<title>l4_irq_wait</title>
<polygon fill="#ffffff" stroke="transparent" points="-4,4 -4,-62 187,-62 187,4 -4,4"/>
<!-- Node64 -->
<g id="node1" class="node">
<title>Node64</title>
<polygon fill="#bfbfbf" stroke="#000000" points="0,-19.5 0,-38.5 68,-38.5 68,-19.5 0,-19.5"/>
<text text-anchor="middle" x="34" y="-26.5" font-family="Helvetica,sans-Serif" font-size="10.00" fill="#000000">l4_irq_wait</text>
</g>
<!-- Node65 -->
<g id="node2" class="node">
<title>Node65</title>
<g id="a_node2"><a xlink:href="group__l4__irq__api.html#ga1690f577bd2896ec9b1e5a24d00af874" target="_top" xlink:title="Unmask IRQ and (open) wait for any message. ">
<polygon fill="#ffffff" stroke="#000000" points="104,-38.5 104,-57.5 183,-57.5 183,-38.5 104,-38.5"/>
<text text-anchor="middle" x="143.5" y="-45.5" font-family="Helvetica,sans-Serif" font-size="10.00" fill="#000000">l4_irq_wait_u</text>
</a>
</g>
</g>
<!-- Node64&#45;&gt;Node65 -->
<g id="edge1" class="edge">
<title>Node64&#45;&gt;Node65</title>
<path fill="none" stroke="#191970" d="M68.0462,-34.9076C76.1686,-36.3169 85.0038,-37.85 93.6731,-39.3542"/>
<polygon fill="#191970" stroke="#191970" points="93.27,-42.8365 103.7212,-41.0977 94.4668,-35.9396 93.27,-42.8365"/>
</g>
<!-- Node66 -->
<g id="node3" class="node">
<title>Node66</title>
<g id="a_node3"><a xlink:href="group__l4__utcb__api.html#gadc099b4a59e1d99638c72c11a8c8b644" target="_top" xlink:title="Get the UTCB address. ">
<polygon fill="#ffffff" stroke="#000000" points="118.5,-.5 118.5,-19.5 168.5,-19.5 168.5,-.5 118.5,-.5"/>
<text text-anchor="middle" x="143.5" y="-7.5" font-family="Helvetica,sans-Serif" font-size="10.00" fill="#000000">l4_utcb</text>
</a>
</g>
</g>
<!-- Node64&#45;&gt;Node66 -->
<g id="edge2" class="edge">
<title>Node64&#45;&gt;Node66</title>
<path fill="none" stroke="#191970" d="M68.0462,-23.0924C80.8271,-20.8747 95.3733,-18.3508 108.2603,-16.1147"/>
<polygon fill="#191970" stroke="#191970" points="108.9199,-19.5526 118.1743,-14.3944 107.7231,-12.6556 108.9199,-19.5526"/>
</g>
</g>
</svg>
