<?xml version="1.0" encoding="UTF-8" standalone="no"?>
<!DOCTYPE svg PUBLIC "-//W3C//DTD SVG 1.1//EN"
 "http://www.w3.org/Graphics/SVG/1.1/DTD/svg11.dtd">
<!-- Generated by graphviz version 2.40.1 (20161225.0304)
 -->
<!-- Title: l4_ns_to_tsc Pages: 1 -->
<svg width="215pt" height="66pt"
 viewBox="0.00 0.00 215.00 66.00" xmlns="http://www.w3.org/2000/svg" xmlns:xlink="http://www.w3.org/1999/xlink">
<g id="graph0" class="graph" transform="scale(1 1) rotate(0) translate(4 62)">
<title>l4_ns_to_tsc</title>
<polygon fill="#ffffff" stroke="transparent" points="-4,4 -4,-62 211,-62 211,4 -4,4"/>
<!-- Node14 -->
<g id="node1" class="node">
<title>Node14</title>
<polygon fill="#bfbfbf" stroke="#000000" points="0,-19.5 0,-38.5 77,-38.5 77,-19.5 0,-19.5"/>
<text text-anchor="middle" x="38.5" y="-26.5" font-family="Helvetica,sans-Serif" font-size="10.00" fill="#000000">l4_ns_to_tsc</text>
</g>
<!-- Node15 -->
<g id="node2" class="node">
<title>Node15</title>
<g id="a_node2"><a xlink:href="group__l4util__tsc.html#gad36e512741c07634ab67562ff7052543" target="_top" xlink:title="Wait busy for a small amount of time. ">
<polygon fill="#ffffff" stroke="#000000" points="113,-38.5 113,-57.5 207,-57.5 207,-38.5 113,-38.5"/>
<text text-anchor="middle" x="160" y="-45.5" font-family="Helvetica,sans-Serif" font-size="10.00" fill="#000000">l4_busy_wait_ns</text>
</a>
</g>
</g>
<!-- Node14&#45;&gt;Node15 -->
<g id="edge1" class="edge">
<title>Node14&#45;&gt;Node15</title>
<path fill="none" stroke="#191970" d="M87.2802,-36.6282C95.6458,-37.9364 104.3267,-39.2939 112.6539,-40.5961"/>
<polygon fill="#191970" stroke="#191970" points="87.6981,-33.1511 77.2774,-35.064 86.6166,-40.067 87.6981,-33.1511"/>
</g>
<!-- Node16 -->
<g id="node3" class="node">
<title>Node16</title>
<g id="a_node3"><a xlink:href="group__l4util__tsc.html#gab6a2848f2fb0249ac87b87053e34ebbe" target="_top" xlink:title="Wait busy for a small amount of time. ">
<polygon fill="#ffffff" stroke="#000000" points="113.5,-.5 113.5,-19.5 206.5,-19.5 206.5,-.5 113.5,-.5"/>
<text text-anchor="middle" x="160" y="-7.5" font-family="Helvetica,sans-Serif" font-size="10.00" fill="#000000">l4_busy_wait_us</text>
</a>
</g>
</g>
<!-- Node14&#45;&gt;Node16 -->
<g id="edge2" class="edge">
<title>Node14&#45;&gt;Node16</title>
<path fill="none" stroke="#191970" d="M87.4062,-21.3521C95.8782,-20.0273 104.67,-18.6524 113.0874,-17.3361"/>
<polygon fill="#191970" stroke="#191970" points="86.6166,-17.933 77.2774,-22.936 87.6981,-24.8489 86.6166,-17.933"/>
</g>
</g>
</svg>
