<?xml version="1.0" encoding="UTF-8" standalone="no"?>
<!DOCTYPE svg PUBLIC "-//W3C//DTD SVG 1.1//EN"
 "http://www.w3.org/Graphics/SVG/1.1/DTD/svg11.dtd">
<!-- Generated by graphviz version 2.40.1 (20161225.0304)
 -->
<!-- Title: l4_thread_ex_regs_ret_u Pages: 1 -->
<svg width="305pt" height="66pt"
 viewBox="0.00 0.00 305.00 66.00" xmlns="http://www.w3.org/2000/svg" xmlns:xlink="http://www.w3.org/1999/xlink">
<g id="graph0" class="graph" transform="scale(1 1) rotate(0) translate(4 62)">
<title>l4_thread_ex_regs_ret_u</title>
<polygon fill="#ffffff" stroke="transparent" points="-4,4 -4,-62 301,-62 301,4 -4,4"/>
<!-- Node11 -->
<g id="node1" class="node">
<title>Node11</title>
<polygon fill="#bfbfbf" stroke="#000000" points="0,-19.5 0,-38.5 136,-38.5 136,-19.5 0,-19.5"/>
<text text-anchor="middle" x="68" y="-26.5" font-family="Helvetica,sans-Serif" font-size="10.00" fill="#000000">l4_thread_ex_regs_ret_u</text>
</g>
<!-- Node12 -->
<g id="node2" class="node">
<title>Node12</title>
<g id="a_node2"><a xlink:href="classL4_1_1Thread.html#af50335e91a9efefa66b440aefefd9c61" target="_top" xlink:title="Exchange basic thread registers and return previous values. ">
<polygon fill="#ffffff" stroke="#000000" points="179.5,-38.5 179.5,-57.5 289.5,-57.5 289.5,-38.5 179.5,-38.5"/>
<text text-anchor="middle" x="234.5" y="-45.5" font-family="Helvetica,sans-Serif" font-size="10.00" fill="#000000">L4::Thread::ex_regs</text>
</a>
</g>
</g>
<!-- Node11&#45;&gt;Node12 -->
<g id="edge1" class="edge">
<title>Node11&#45;&gt;Node12</title>
<path fill="none" stroke="#191970" d="M146.3845,-37.9448C157.5327,-39.2169 168.7975,-40.5024 179.3758,-41.7096"/>
<polygon fill="#191970" stroke="#191970" points="146.5347,-34.4393 136.2023,-36.7828 145.741,-41.3941 146.5347,-34.4393"/>
</g>
<!-- Node13 -->
<g id="node3" class="node">
<title>Node13</title>
<g id="a_node3"><a xlink:href="group__l4__thread__api.html#ga828e4612273914dcae12c442bcdd2ea1" target="_top" xlink:title="Exchange basic thread registers and return previous values. ">
<polygon fill="#ffffff" stroke="#000000" points="172,-.5 172,-19.5 297,-19.5 297,-.5 172,-.5"/>
<text text-anchor="middle" x="234.5" y="-7.5" font-family="Helvetica,sans-Serif" font-size="10.00" fill="#000000">l4_thread_ex_regs_ret</text>
</a>
</g>
</g>
<!-- Node11&#45;&gt;Node13 -->
<g id="edge2" class="edge">
<title>Node11&#45;&gt;Node13</title>
<path fill="none" stroke="#191970" d="M146.2054,-20.0757C154.7731,-19.098 163.4123,-18.1121 171.7583,-17.1597"/>
<polygon fill="#191970" stroke="#191970" points="145.741,-16.6058 136.2023,-21.2172 146.5347,-23.5607 145.741,-16.6058"/>
</g>
</g>
</svg>
