<?xml version="1.0" encoding="UTF-8" standalone="no"?>
<!DOCTYPE svg PUBLIC "-//W3C//DTD SVG 1.1//EN"
 "http://www.w3.org/Graphics/SVG/1.1/DTD/svg11.dtd">
<!-- Generated by graphviz version 2.40.1 (20161225.0304)
 -->
<!-- Title: l4_msgtag_is_preemption Pages: 1 -->
<svg width="641pt" height="180pt"
 viewBox="0.00 0.00 641.00 180.00" xmlns="http://www.w3.org/2000/svg" xmlns:xlink="http://www.w3.org/1999/xlink">
<g id="graph0" class="graph" transform="scale(1 1) rotate(0) translate(4 176)">
<title>l4_msgtag_is_preemption</title>
<polygon fill="#ffffff" stroke="transparent" points="-4,4 -4,-176 637,-176 637,4 -4,4"/>
<!-- Node74 -->
<g id="node1" class="node">
<title>Node74</title>
<polygon fill="#bfbfbf" stroke="#000000" points="0,-76.5 0,-95.5 138,-95.5 138,-76.5 0,-76.5"/>
<text text-anchor="middle" x="69" y="-83.5" font-family="Helvetica,sans-Serif" font-size="10.00" fill="#000000">l4_msgtag_is_preemption</text>
</g>
<!-- Node75 -->
<g id="node2" class="node">
<title>Node75</title>
<g id="a_node2"><a xlink:href="structl4__msgtag__t.html#a09c8212b870e6c144fd072dbde5b5262" target="_top" xlink:title="Test if flags indicate an error. ">
<polygon fill="#ffffff" stroke="#000000" points="174,-76.5 174,-95.5 299,-95.5 299,-76.5 174,-76.5"/>
<text text-anchor="middle" x="236.5" y="-83.5" font-family="Helvetica,sans-Serif" font-size="10.00" fill="#000000">l4_msgtag_t::has_error</text>
</a>
</g>
</g>
<!-- Node74&#45;&gt;Node75 -->
<g id="edge1" class="edge">
<title>Node74&#45;&gt;Node75</title>
<path fill="none" stroke="#191970" d="M148.1298,-86C156.7214,-86 165.378,-86 173.7364,-86"/>
<polygon fill="#191970" stroke="#191970" points="148.0957,-82.5001 138.0957,-86 148.0957,-89.5001 148.0957,-82.5001"/>
</g>
<!-- Node76 -->
<g id="node3" class="node">
<title>Node76</title>
<g id="a_node3"><a xlink:href="namespaceL4.html#aba0849c4b92afdccbe110489e18dadbd" target="_top" xlink:title="Throw an L4 IPC error as exception. ">
<polygon fill="#ffffff" stroke="#000000" points="335,-152.5 335,-171.5 466,-171.5 466,-152.5 335,-152.5"/>
<text text-anchor="middle" x="400.5" y="-159.5" font-family="Helvetica,sans-Serif" font-size="10.00" fill="#000000">L4::throw_ipc_exception</text>
</a>
</g>
</g>
<!-- Node75&#45;&gt;Node76 -->
<g id="edge2" class="edge">
<title>Node75&#45;&gt;Node76</title>
<path fill="none" stroke="#191970" d="M259.0764,-101.1872C278.5288,-113.7456 307.7049,-131.3483 335,-143 343.4939,-146.6259 352.8925,-149.8061 361.8559,-152.4756"/>
<polygon fill="#191970" stroke="#191970" points="260.8953,-98.1946 250.6121,-95.6437 257.0601,-104.0505 260.8953,-98.1946"/>
</g>
<!-- Node78 -->
<g id="node5" class="node">
<title>Node78</title>
<g id="a_node5"><a xlink:href="namespaceL4Re.html#ae0dd5d25abdc1d195edd8ab6b744334c" target="_top" xlink:title="Generate C++ exception on error. ">
<polygon fill="#ffffff" stroke="#000000" points="361,-114.5 361,-133.5 440,-133.5 440,-114.5 361,-114.5"/>
<text text-anchor="middle" x="400.5" y="-121.5" font-family="Helvetica,sans-Serif" font-size="10.00" fill="#000000">L4Re::chksys</text>
</a>
</g>
</g>
<!-- Node75&#45;&gt;Node78 -->
<g id="edge4" class="edge">
<title>Node75&#45;&gt;Node78</title>
<path fill="none" stroke="#191970" d="M287.7195,-97.8679C311.3014,-103.332 338.8563,-109.7167 360.8263,-114.8073"/>
<polygon fill="#191970" stroke="#191970" points="288.4161,-94.4367 277.8841,-95.589 286.836,-101.256 288.4161,-94.4367"/>
</g>
<!-- Node79 -->
<g id="node6" class="node">
<title>Node79</title>
<g id="a_node6"><a xlink:href="namespaceL4Re.html#ae21329b88c6ffc4917048e8d9564ea99" target="_top" xlink:title="Test a message tag for IPC errors. ">
<polygon fill="#ffffff" stroke="#000000" points="362,-76.5 362,-95.5 439,-95.5 439,-76.5 362,-76.5"/>
<text text-anchor="middle" x="400.5" y="-83.5" font-family="Helvetica,sans-Serif" font-size="10.00" fill="#000000">L4Re::chkipc</text>
</a>
</g>
</g>
<!-- Node75&#45;&gt;Node79 -->
<g id="edge5" class="edge">
<title>Node75&#45;&gt;Node79</title>
<path fill="none" stroke="#191970" d="M309.6177,-86C327.5639,-86 346.0844,-86 361.6862,-86"/>
<polygon fill="#191970" stroke="#191970" points="309.4377,-82.5001 299.4377,-86 309.4376,-89.5001 309.4377,-82.5001"/>
</g>
<!-- Node80 -->
<g id="node7" class="node">
<title>Node80</title>
<g id="a_node7"><a xlink:href="classL4_1_1Server.html#a4333dc750dee494087ee92ab058718a1" target="_top" xlink:title="Internal implementation for reply and wait. ">
<polygon fill="#ffffff" stroke="#000000" points="336,-38.5 336,-57.5 465,-57.5 465,-38.5 336,-38.5"/>
<text text-anchor="middle" x="400.5" y="-45.5" font-family="Helvetica,sans-Serif" font-size="10.00" fill="#000000">L4::Server::reply_n_wait</text>
</a>
</g>
</g>
<!-- Node75&#45;&gt;Node80 -->
<g id="edge6" class="edge">
<title>Node75&#45;&gt;Node80</title>
<path fill="none" stroke="#191970" d="M287.841,-74.1039C310.8929,-68.7626 337.7211,-62.5463 359.4135,-57.5201"/>
<polygon fill="#191970" stroke="#191970" points="286.836,-70.744 277.8841,-76.411 288.4161,-77.5633 286.836,-70.744"/>
</g>
<!-- Node81 -->
<g id="node8" class="node">
<title>Node81</title>
<g id="a_node8"><a xlink:href="classL4_1_1Server.html#ac0965dc536f1df5dfe0be1b224feab89" target="_top" xlink:title="The server loop. ">
<polygon fill="#ffffff" stroke="#000000" points="335,-.5 335,-19.5 466,-19.5 466,-.5 335,-.5"/>
<text text-anchor="middle" x="400.5" y="-7.5" font-family="Helvetica,sans-Serif" font-size="10.00" fill="#000000">L4::Server::internal_loop</text>
</a>
</g>
</g>
<!-- Node75&#45;&gt;Node81 -->
<g id="edge7" class="edge">
<title>Node75&#45;&gt;Node81</title>
<path fill="none" stroke="#191970" d="M259.0764,-70.8128C278.5288,-58.2544 307.7049,-40.6517 335,-29 343.4939,-25.3741 352.8925,-22.1939 361.8559,-19.5244"/>
<polygon fill="#191970" stroke="#191970" points="257.0601,-67.9495 250.6121,-76.3563 260.8953,-73.8054 257.0601,-67.9495"/>
</g>
<!-- Node77 -->
<g id="node4" class="node">
<title>Node77</title>
<g id="a_node4"><a xlink:href="namespaceL4.html#a54f8da0e02ff2496f1ad935e38ab17c4" target="_top" xlink:title="Throw an L4 IPC error as exception. ">
<polygon fill="#ffffff" stroke="#000000" points="502,-152.5 502,-171.5 633,-171.5 633,-152.5 502,-152.5"/>
<text text-anchor="middle" x="567.5" y="-159.5" font-family="Helvetica,sans-Serif" font-size="10.00" fill="#000000">L4::throw_ipc_exception</text>
</a>
</g>
</g>
<!-- Node76&#45;&gt;Node77 -->
<g id="edge3" class="edge">
<title>Node76&#45;&gt;Node77</title>
<path fill="none" stroke="#191970" d="M476.0663,-162C484.6848,-162 493.4171,-162 501.8913,-162"/>
<polygon fill="#191970" stroke="#191970" points="476.0235,-158.5001 466.0235,-162 476.0235,-165.5001 476.0235,-158.5001"/>
</g>
</g>
</svg>
