<?xml version="1.0" encoding="UTF-8" standalone="no"?>
<!DOCTYPE svg PUBLIC "-//W3C//DTD SVG 1.1//EN"
 "http://www.w3.org/Graphics/SVG/1.1/DTD/svg11.dtd">
<!-- Generated by graphviz version 2.40.1 (20161225.0304)
 -->
<!-- Title: Virtual Machines Pages: 1 -->
<svg width="354pt" height="104pt"
 viewBox="0.00 0.00 354.00 104.00" xmlns="http://www.w3.org/2000/svg" xmlns:xlink="http://www.w3.org/1999/xlink">
<g id="graph0" class="graph" transform="scale(1 1) rotate(0) translate(4 100)">
<title>Virtual Machines</title>
<polygon fill="#ffffff" stroke="transparent" points="-4,4 -4,-100 350,-100 350,4 -4,4"/>
<!-- Node4 -->
<g id="node1" class="node">
<title>Node4</title>
<g id="a_node1"><a xlink:href="group__l4__vm__tz__api.html" target="_top" xlink:title="Virtual Machine API for ARM TrustZone. ">
<polygon fill="#ffffff" stroke="#000000" points="257.5,-76.5 257.5,-95.5 341.5,-95.5 341.5,-76.5 257.5,-76.5"/>
<text text-anchor="middle" x="299.5" y="-83.5" font-family="Helvetica,sans-Serif" font-size="10.00" fill="#000000">VM API for TZ</text>
</a>
</g>
</g>
<!-- Node3 -->
<g id="node2" class="node">
<title>Node3</title>
<g id="a_node2"><a xlink:href="group__l4__vm__vmx__api.html" target="_top" xlink:title="Virtual machine API for VMX. ">
<polygon fill="#ffffff" stroke="#000000" points="253,-38.5 253,-57.5 346,-57.5 346,-38.5 253,-38.5"/>
<text text-anchor="middle" x="299.5" y="-45.5" font-family="Helvetica,sans-Serif" font-size="10.00" fill="#000000">VM API for VMX</text>
</a>
</g>
</g>
<!-- Node0 -->
<g id="node3" class="node">
<title>Node0</title>
<polygon fill="#bfbfbf" stroke="#000000" points="122,-38.5 122,-57.5 217,-57.5 217,-38.5 122,-38.5"/>
<text text-anchor="middle" x="169.5" y="-45.5" font-family="Helvetica,sans-Serif" font-size="10.00" fill="#000000">Virtual Machines</text>
</g>
<!-- Node0&#45;&gt;Node4 -->
<g id="edge4" class="edge">
<title>Node0&#45;&gt;Node4</title>
<path fill="none" stroke="#000000" d="M212.3839,-60.5353C230.0689,-65.7048 250.2337,-71.5991 266.706,-76.4141"/>
<polygon fill="#000000" stroke="#000000" points="212.8848,-57.0353 202.3045,-57.589 210.9208,-63.7542 212.8848,-57.0353"/>
</g>
<!-- Node0&#45;&gt;Node3 -->
<g id="edge3" class="edge">
<title>Node0&#45;&gt;Node3</title>
<path fill="none" stroke="#000000" d="M227.3831,-48C235.8555,-48 244.491,-48 252.7048,-48"/>
<polygon fill="#000000" stroke="#000000" points="227.1691,-44.5001 217.169,-48 227.169,-51.5001 227.1691,-44.5001"/>
</g>
<!-- Node2 -->
<g id="node4" class="node">
<title>Node2</title>
<g id="a_node4"><a xlink:href="group__l4__vm__svm__api.html" target="_top" xlink:title="Virtual machine API for SVM. ">
<polygon fill="#ffffff" stroke="#000000" points="253,-.5 253,-19.5 346,-19.5 346,-.5 253,-.5"/>
<text text-anchor="middle" x="299.5" y="-7.5" font-family="Helvetica,sans-Serif" font-size="10.00" fill="#000000">VM API for SVM</text>
</a>
</g>
</g>
<!-- Node0&#45;&gt;Node2 -->
<g id="edge2" class="edge">
<title>Node0&#45;&gt;Node2</title>
<path fill="none" stroke="#000000" d="M212.3839,-35.4647C230.0689,-30.2952 250.2337,-24.4009 266.706,-19.5859"/>
<polygon fill="#000000" stroke="#000000" points="210.9208,-32.2458 202.3045,-38.411 212.8848,-38.9647 210.9208,-32.2458"/>
</g>
<!-- Node1 -->
<g id="node5" class="node">
<title>Node1</title>
<g id="a_node5"><a xlink:href="group__l4__kernel__object__api.html" target="_top" xlink:title="API of kernel objects. ">
<polygon fill="#ffffff" stroke="#000000" points="0,-38.5 0,-57.5 86,-57.5 86,-38.5 0,-38.5"/>
<text text-anchor="middle" x="43" y="-45.5" font-family="Helvetica,sans-Serif" font-size="10.00" fill="#000000">Kernel Objects</text>
</a>
</g>
</g>
<!-- Node1&#45;&gt;Node0 -->
<g id="edge1" class="edge">
<title>Node1&#45;&gt;Node0</title>
<path fill="none" stroke="#000000" d="M96.3149,-48C104.7562,-48 113.4396,-48 121.7434,-48"/>
<polygon fill="#000000" stroke="#000000" points="96.1804,-44.5001 86.1803,-48 96.1803,-51.5001 96.1804,-44.5001"/>
</g>
</g>
</svg>
