<?xml version="1.0" encoding="UTF-8" standalone="no"?>
<!DOCTYPE svg PUBLIC "-//W3C//DTD SVG 1.1//EN"
 "http://www.w3.org/Graphics/SVG/1.1/DTD/svg11.dtd">
<!-- Generated by graphviz version 2.40.1 (20161225.0304)
 -->
<!-- Title: l4_icu_unbind_u Pages: 1 -->
<svg width="218pt" height="66pt"
 viewBox="0.00 0.00 218.00 66.00" xmlns="http://www.w3.org/2000/svg" xmlns:xlink="http://www.w3.org/1999/xlink">
<g id="graph0" class="graph" transform="scale(1 1) rotate(0) translate(4 62)">
<title>l4_icu_unbind_u</title>
<polygon fill="#ffffff" stroke="transparent" points="-4,4 -4,-62 214,-62 214,4 -4,4"/>
<!-- Node42 -->
<g id="node1" class="node">
<title>Node42</title>
<polygon fill="#bfbfbf" stroke="#000000" points="0,-19.5 0,-38.5 92,-38.5 92,-19.5 0,-19.5"/>
<text text-anchor="middle" x="46" y="-26.5" font-family="Helvetica,sans-Serif" font-size="10.00" fill="#000000">l4_icu_unbind_u</text>
</g>
<!-- Node43 -->
<g id="node2" class="node">
<title>Node43</title>
<g id="a_node2"><a xlink:href="group__l4__icu__api.html#ga77d613300601861b13605e7687146dc5" target="_top" xlink:title="Remove binding of an interrupt line from the interrupt controller object. ">
<polygon fill="#ffffff" stroke="#000000" points="129,-38.5 129,-57.5 209,-57.5 209,-38.5 129,-38.5"/>
<text text-anchor="middle" x="169" y="-45.5" font-family="Helvetica,sans-Serif" font-size="10.00" fill="#000000">l4_icu_unbind</text>
</a>
</g>
</g>
<!-- Node42&#45;&gt;Node43 -->
<g id="edge1" class="edge">
<title>Node42&#45;&gt;Node43</title>
<path fill="none" stroke="#191970" d="M102.1384,-37.6718C111.078,-39.0527 120.1698,-40.4571 128.6507,-41.7672"/>
<polygon fill="#191970" stroke="#191970" points="102.5677,-34.1967 92.1506,-36.129 101.4991,-41.1146 102.5677,-34.1967"/>
</g>
<!-- Node44 -->
<g id="node3" class="node">
<title>Node44</title>
<g id="a_node3"><a xlink:href="classL4_1_1Icu.html#aa34e56cdac798b1949fcc00553386b8b" target="_top" xlink:title="Remove binding of an interrupt line from the interrupt controller object. ">
<polygon fill="#ffffff" stroke="#000000" points="128,-.5 128,-19.5 210,-19.5 210,-.5 128,-.5"/>
<text text-anchor="middle" x="169" y="-7.5" font-family="Helvetica,sans-Serif" font-size="10.00" fill="#000000">L4::Icu::unbind</text>
</a>
</g>
</g>
<!-- Node42&#45;&gt;Node44 -->
<g id="edge2" class="edge">
<title>Node42&#45;&gt;Node44</title>
<path fill="none" stroke="#191970" d="M102.1908,-20.3201C110.8339,-18.985 119.6179,-17.6281 127.8531,-16.356"/>
<polygon fill="#191970" stroke="#191970" points="101.4991,-16.8854 92.1506,-21.871 102.5677,-23.8033 101.4991,-16.8854"/>
</g>
</g>
</svg>
