<?xml version="1.0" encoding="UTF-8" standalone="no"?>
<!DOCTYPE svg PUBLIC "-//W3C//DTD SVG 1.1//EN"
 "http://www.w3.org/Graphics/SVG/1.1/DTD/svg11.dtd">
<!-- Generated by graphviz version 2.40.1 (20161225.0304)
 -->
<!-- Title: l4_irq_receive Pages: 1 -->
<svg width="222pt" height="66pt"
 viewBox="0.00 0.00 222.00 66.00" xmlns="http://www.w3.org/2000/svg" xmlns:xlink="http://www.w3.org/1999/xlink">
<g id="graph0" class="graph" transform="scale(1 1) rotate(0) translate(4 62)">
<title>l4_irq_receive</title>
<polygon fill="#ffffff" stroke="transparent" points="-4,4 -4,-62 218,-62 218,4 -4,4"/>
<!-- Node24 -->
<g id="node1" class="node">
<title>Node24</title>
<polygon fill="#bfbfbf" stroke="#000000" points="0,-19.5 0,-38.5 83,-38.5 83,-19.5 0,-19.5"/>
<text text-anchor="middle" x="41.5" y="-26.5" font-family="Helvetica,sans-Serif" font-size="10.00" fill="#000000">l4_irq_receive</text>
</g>
<!-- Node25 -->
<g id="node2" class="node">
<title>Node25</title>
<g id="a_node2"><a xlink:href="group__l4__irq__api.html#ga430999e1f8f6eb5f7e3f957b854b7446" target="_top" xlink:title="Unmask and wait for this IRQ. ">
<polygon fill="#ffffff" stroke="#000000" points="119,-38.5 119,-57.5 214,-57.5 214,-38.5 119,-38.5"/>
<text text-anchor="middle" x="166.5" y="-45.5" font-family="Helvetica,sans-Serif" font-size="10.00" fill="#000000">l4_irq_receive_u</text>
</a>
</g>
</g>
<!-- Node24&#45;&gt;Node25 -->
<g id="edge1" class="edge">
<title>Node24&#45;&gt;Node25</title>
<path fill="none" stroke="#191970" d="M83.1232,-35.3267C91.2906,-36.5682 99.9953,-37.8913 108.584,-39.1968"/>
<polygon fill="#191970" stroke="#191970" points="108.1615,-42.6727 118.5739,-40.7152 109.2134,-35.7522 108.1615,-42.6727"/>
</g>
<!-- Node26 -->
<g id="node3" class="node">
<title>Node26</title>
<g id="a_node3"><a xlink:href="group__l4__utcb__api.html#gadc099b4a59e1d99638c72c11a8c8b644" target="_top" xlink:title="Get the UTCB address. ">
<polygon fill="#ffffff" stroke="#000000" points="141.5,-.5 141.5,-19.5 191.5,-19.5 191.5,-.5 141.5,-.5"/>
<text text-anchor="middle" x="166.5" y="-7.5" font-family="Helvetica,sans-Serif" font-size="10.00" fill="#000000">l4_utcb</text>
</a>
</g>
</g>
<!-- Node24&#45;&gt;Node26 -->
<g id="edge2" class="edge">
<title>Node24&#45;&gt;Node26</title>
<path fill="none" stroke="#191970" d="M83.1232,-22.6733C98.8188,-20.2875 116.4989,-17.6002 131.526,-15.316"/>
<polygon fill="#191970" stroke="#191970" points="132.0881,-18.7709 141.4486,-13.8078 131.0361,-11.8504 132.0881,-18.7709"/>
</g>
</g>
</svg>
