<?xml version="1.0" encoding="UTF-8" standalone="no"?>
<!DOCTYPE svg PUBLIC "-//W3C//DTD SVG 1.1//EN"
 "http://www.w3.org/Graphics/SVG/1.1/DTD/svg11.dtd">
<!-- Generated by graphviz version 2.40.1 (20161225.0304)
 -->
<!-- Title: l4_irq_mux_chain Pages: 1 -->
<svg width="253pt" height="66pt"
 viewBox="0.00 0.00 253.00 66.00" xmlns="http://www.w3.org/2000/svg" xmlns:xlink="http://www.w3.org/1999/xlink">
<g id="graph0" class="graph" transform="scale(1 1) rotate(0) translate(4 62)">
<title>l4_irq_mux_chain</title>
<polygon fill="#ffffff" stroke="transparent" points="-4,4 -4,-62 249,-62 249,4 -4,4"/>
<!-- Node16 -->
<g id="node1" class="node">
<title>Node16</title>
<polygon fill="#bfbfbf" stroke="#000000" points="0,-19.5 0,-38.5 99,-38.5 99,-19.5 0,-19.5"/>
<text text-anchor="middle" x="49.5" y="-26.5" font-family="Helvetica,sans-Serif" font-size="10.00" fill="#000000">l4_irq_mux_chain</text>
</g>
<!-- Node17 -->
<g id="node2" class="node">
<title>Node17</title>
<g id="a_node2"><a xlink:href="group__l4__irq__api.html#ga0bfe3132479962ae237087568fc2c94f" target="_top" xlink:title="Attach an IRQ to this multiplexer. ">
<polygon fill="#ffffff" stroke="#000000" points="135,-38.5 135,-57.5 245,-57.5 245,-38.5 135,-38.5"/>
<text text-anchor="middle" x="190" y="-45.5" font-family="Helvetica,sans-Serif" font-size="10.00" fill="#000000">l4_irq_mux_chain_u</text>
</a>
</g>
</g>
<!-- Node16&#45;&gt;Node17 -->
<g id="edge1" class="edge">
<title>Node16&#45;&gt;Node17</title>
<path fill="none" stroke="#191970" d="M99.035,-35.6987C107.3257,-36.8198 116.039,-37.9982 124.6536,-39.1631"/>
<polygon fill="#191970" stroke="#191970" points="124.3108,-42.6485 134.6897,-40.5203 125.249,-35.7117 124.3108,-42.6485"/>
</g>
<!-- Node18 -->
<g id="node3" class="node">
<title>Node18</title>
<g id="a_node3"><a xlink:href="group__l4__utcb__api.html#gadc099b4a59e1d99638c72c11a8c8b644" target="_top" xlink:title="Get the UTCB address. ">
<polygon fill="#ffffff" stroke="#000000" points="165,-.5 165,-19.5 215,-19.5 215,-.5 165,-.5"/>
<text text-anchor="middle" x="190" y="-7.5" font-family="Helvetica,sans-Serif" font-size="10.00" fill="#000000">l4_utcb</text>
</a>
</g>
</g>
<!-- Node16&#45;&gt;Node18 -->
<g id="edge2" class="edge">
<title>Node16&#45;&gt;Node18</title>
<path fill="none" stroke="#191970" d="M99.035,-22.3013C117.4853,-19.8063 138.0291,-17.0281 154.9183,-14.7441"/>
<polygon fill="#191970" stroke="#191970" points="155.4698,-18.2015 164.9105,-13.3929 154.5317,-11.2647 155.4698,-18.2015"/>
</g>
</g>
</svg>
