<?xml version="1.0" encoding="UTF-8" standalone="no"?>
<!DOCTYPE svg PUBLIC "-//W3C//DTD SVG 1.1//EN"
 "http://www.w3.org/Graphics/SVG/1.1/DTD/svg11.dtd">
<!-- Generated by graphviz version 2.40.1 (20161225.0304)
 -->
<!-- Title: l4_is_valid_cap Pages: 1 -->
<svg width="411pt" height="112pt"
 viewBox="0.00 0.00 411.00 112.00" xmlns="http://www.w3.org/2000/svg" xmlns:xlink="http://www.w3.org/1999/xlink">
<g id="graph0" class="graph" transform="scale(1 1) rotate(0) translate(4 108)">
<title>l4_is_valid_cap</title>
<polygon fill="#ffffff" stroke="transparent" points="-4,4 -4,-108 407,-108 407,4 -4,4"/>
<!-- Node5 -->
<g id="node1" class="node">
<title>Node5</title>
<polygon fill="#bfbfbf" stroke="#000000" points="0,-54 0,-73 89,-73 89,-54 0,-54"/>
<text text-anchor="middle" x="44.5" y="-61" font-family="Helvetica,sans-Serif" font-size="10.00" fill="#000000">l4_is_valid_cap</text>
</g>
<!-- Node6 -->
<g id="node2" class="node">
<title>Node6</title>
<g id="a_node2"><a xlink:href="classL4Re_1_1Util_1_1Cap__alloc__base.html#afe4cbd695e9050e2827d17e7e960e67d" target="_top" xlink:title="Free a capability slot. ">
<polygon fill="#ffffff" stroke="#000000" points="125,-73.5 125,-103.5 238,-103.5 238,-73.5 125,-73.5"/>
<text text-anchor="start" x="133" y="-91.5" font-family="Helvetica,sans-Serif" font-size="10.00" fill="#000000">L4Re::Util::Cap_alloc</text>
<text text-anchor="middle" x="181.5" y="-80.5" font-family="Helvetica,sans-Serif" font-size="10.00" fill="#000000">_base::free</text>
</a>
</g>
</g>
<!-- Node5&#45;&gt;Node6 -->
<g id="edge1" class="edge">
<title>Node5&#45;&gt;Node6</title>
<path fill="none" stroke="#191970" d="M99.3117,-73.5021C107.6133,-75.017 116.1945,-76.5829 124.5403,-78.1059"/>
<polygon fill="#191970" stroke="#191970" points="99.8248,-70.038 89.3589,-71.6859 98.5681,-76.9243 99.8248,-70.038"/>
</g>
<!-- Node7 -->
<g id="node3" class="node">
<title>Node7</title>
<g id="a_node3"><a xlink:href="classL4Re_1_1Util_1_1Counting__cap__alloc.html#a4f65c951a2cc3aae899c67e1ef325a8a" target="_top" xlink:title="Free the capability. ">
<polygon fill="#ffffff" stroke="#000000" points="127.5,-24.5 127.5,-54.5 235.5,-54.5 235.5,-24.5 127.5,-24.5"/>
<text text-anchor="start" x="135.5" y="-42.5" font-family="Helvetica,sans-Serif" font-size="10.00" fill="#000000">L4Re::Util::Counting</text>
<text text-anchor="middle" x="181.5" y="-31.5" font-family="Helvetica,sans-Serif" font-size="10.00" fill="#000000">_cap_alloc::free</text>
</a>
</g>
</g>
<!-- Node5&#45;&gt;Node7 -->
<g id="edge2" class="edge">
<title>Node5&#45;&gt;Node7</title>
<path fill="none" stroke="#191970" d="M99.2661,-53.9059C108.5548,-52.2787 118.1948,-50.59 127.4646,-48.9661"/>
<polygon fill="#191970" stroke="#191970" points="98.605,-50.4684 89.3589,-55.6415 99.8129,-57.3634 98.605,-50.4684"/>
</g>
<!-- Node8 -->
<g id="node4" class="node">
<title>Node8</title>
<g id="a_node4"><a xlink:href="classL4Re_1_1Util_1_1Br__manager.html#a9a58e2029692a47257671d53c6bca492" target="_top" xlink:title="Make a buffer&#45;register (BR) manager. ">
<polygon fill="#ffffff" stroke="#000000" points="276,-49.5 276,-79.5 401,-79.5 401,-49.5 276,-49.5"/>
<text text-anchor="start" x="284" y="-67.5" font-family="Helvetica,sans-Serif" font-size="10.00" fill="#000000">L4Re::Util::Br_manager</text>
<text text-anchor="middle" x="338.5" y="-56.5" font-family="Helvetica,sans-Serif" font-size="10.00" fill="#000000">::Br_manager</text>
</a>
</g>
</g>
<!-- Node7&#45;&gt;Node8 -->
<g id="edge3" class="edge">
<title>Node7&#45;&gt;Node8</title>
<path fill="none" stroke="#191970" d="M245.7158,-49.7255C255.6254,-51.3034 265.8493,-52.9314 275.7267,-54.5043"/>
<polygon fill="#191970" stroke="#191970" points="245.9565,-46.2198 235.5305,-48.1036 244.8557,-53.1327 245.9565,-46.2198"/>
</g>
<!-- Node9 -->
<g id="node5" class="node">
<title>Node9</title>
<g id="a_node5"><a xlink:href="classL4Re_1_1Util_1_1Object__registry.html#aeeea59583ffddfef4e7c1c3e6eed41b6" target="_top" xlink:title="Remove a server object from the handler list. ">
<polygon fill="#ffffff" stroke="#000000" points="274,-.5 274,-30.5 403,-30.5 403,-.5 274,-.5"/>
<text text-anchor="start" x="282" y="-18.5" font-family="Helvetica,sans-Serif" font-size="10.00" fill="#000000">L4Re::Util::Object</text>
<text text-anchor="middle" x="338.5" y="-7.5" font-family="Helvetica,sans-Serif" font-size="10.00" fill="#000000">_registry::unregister_obj</text>
</a>
</g>
</g>
<!-- Node7&#45;&gt;Node9 -->
<g id="edge4" class="edge">
<title>Node7&#45;&gt;Node9</title>
<path fill="none" stroke="#191970" d="M245.5187,-29.7137C254.8499,-28.2873 264.4639,-26.8176 273.8083,-25.3892"/>
<polygon fill="#191970" stroke="#191970" points="244.8867,-26.2696 235.5305,-31.2406 245.9446,-33.1892 244.8867,-26.2696"/>
</g>
</g>
</svg>
