<?xml version="1.0" encoding="UTF-8" standalone="no"?>
<!DOCTYPE svg PUBLIC "-//W3C//DTD SVG 1.1//EN"
 "http://www.w3.org/Graphics/SVG/1.1/DTD/svg11.dtd">
<!-- Generated by graphviz version 2.40.1 (20161225.0304)
 -->
<!-- Title: l4_ipc_error Pages: 1 -->
<svg width="243pt" height="78pt"
 viewBox="0.00 0.00 243.00 77.50" xmlns="http://www.w3.org/2000/svg" xmlns:xlink="http://www.w3.org/1999/xlink">
<g id="graph0" class="graph" transform="scale(1 1) rotate(0) translate(4 73.5)">
<title>l4_ipc_error</title>
<polygon fill="#ffffff" stroke="transparent" points="-4,4 -4,-73.5 239,-73.5 239,4 -4,4"/>
<!-- Node14 -->
<g id="node1" class="node">
<title>Node14</title>
<polygon fill="#bfbfbf" stroke="#000000" points="0,-28 0,-47 74,-47 74,-28 0,-28"/>
<text text-anchor="middle" x="37" y="-35" font-family="Helvetica,sans-Serif" font-size="10.00" fill="#000000">l4_ipc_error</text>
</g>
<!-- Node15 -->
<g id="node2" class="node">
<title>Node15</title>
<g id="a_node2"><a xlink:href="x86_2l4f_2l4_2util_2port__io_8h.html#a38a37fdbed4dd2dca75ce192d506a2d4" target="_top" xlink:title="Map a range of I/O ports. ">
<polygon fill="#ffffff" stroke="#000000" points="124,-50 124,-69 221,-69 221,-50 124,-50"/>
<text text-anchor="middle" x="172.5" y="-57" font-family="Helvetica,sans-Serif" font-size="10.00" fill="#000000">l4util_ioport_map</text>
</a>
</g>
</g>
<!-- Node14&#45;&gt;Node15 -->
<g id="edge1" class="edge">
<title>Node14&#45;&gt;Node15</title>
<path fill="none" stroke="#191970" d="M84.0611,-45.1409C96.9184,-47.2284 110.8752,-49.4945 123.8207,-51.5963"/>
<polygon fill="#191970" stroke="#191970" points="84.4577,-41.6595 74.026,-43.5116 83.3358,-48.5691 84.4577,-41.6595"/>
</g>
<!-- Node16 -->
<g id="node3" class="node">
<title>Node16</title>
<g id="a_node3"><a xlink:href="classL4Re_1_1Util_1_1Event__buffer__consumer__t.html#a4ed22b41ce4c7e6b93efae878b1415ef" target="_top" xlink:title="Continuously wait for events and process them. ">
<polygon fill="#ffffff" stroke="#000000" points="110,-.5 110,-30.5 235,-30.5 235,-.5 110,-.5"/>
<text text-anchor="start" x="118" y="-18.5" font-family="Helvetica,sans-Serif" font-size="10.00" fill="#000000">L4Re::Util::Event_buffer</text>
<text text-anchor="middle" x="172.5" y="-7.5" font-family="Helvetica,sans-Serif" font-size="10.00" fill="#000000">_consumer_t::process</text>
</a>
</g>
</g>
<!-- Node14&#45;&gt;Node16 -->
<g id="edge2" class="edge">
<title>Node14&#45;&gt;Node16</title>
<path fill="none" stroke="#191970" d="M83.9871,-29.8711C92.377,-28.5089 101.2372,-27.0703 109.9804,-25.6508"/>
<polygon fill="#191970" stroke="#191970" points="83.3358,-26.4309 74.026,-31.4884 84.4577,-33.3405 83.3358,-26.4309"/>
</g>
</g>
</svg>
