<?xml version="1.0" encoding="UTF-8" standalone="no"?>
<!DOCTYPE svg PUBLIC "-//W3C//DTD SVG 1.1//EN"
 "http://www.w3.org/Graphics/SVG/1.1/DTD/svg11.dtd">
<!-- Generated by graphviz version 2.40.1 (20161225.0304)
 -->
<!-- Title: l4_fpage_max_order Pages: 1 -->
<svg width="630pt" height="28pt"
 viewBox="0.00 0.00 630.00 28.00" xmlns="http://www.w3.org/2000/svg" xmlns:xlink="http://www.w3.org/1999/xlink">
<g id="graph0" class="graph" transform="scale(1 1) rotate(0) translate(4 24)">
<title>l4_fpage_max_order</title>
<polygon fill="#ffffff" stroke="transparent" points="-4,4 -4,-24 626,-24 626,4 -4,4"/>
<!-- Node12 -->
<g id="node1" class="node">
<title>Node12</title>
<polygon fill="#bfbfbf" stroke="#000000" points="0,-.5 0,-19.5 115,-19.5 115,-.5 0,-.5"/>
<text text-anchor="middle" x="57.5" y="-7.5" font-family="Helvetica,sans-Serif" font-size="10.00" fill="#000000">l4_fpage_max_order</text>
</g>
<!-- Node13 -->
<g id="node2" class="node">
<title>Node13</title>
<g id="a_node2"><a xlink:href="group__l4__memory__api.html#ga792959ba1e87fecf90018876f32d7bc9" target="_top" xlink:title="Round an address down to the next lower flex page with size bits. ">
<polygon fill="#ffffff" stroke="#000000" points="151,-.5 151,-19.5 230,-19.5 230,-.5 151,-.5"/>
<text text-anchor="middle" x="190.5" y="-7.5" font-family="Helvetica,sans-Serif" font-size="10.00" fill="#000000">l4_trunc_size</text>
</a>
</g>
</g>
<!-- Node12&#45;&gt;Node13 -->
<g id="edge1" class="edge">
<title>Node12&#45;&gt;Node13</title>
<path fill="none" stroke="#191970" d="M115.0622,-10C123.6469,-10 132.434,-10 140.8372,-10"/>
<polygon fill="#191970" stroke="#191970" points="140.8574,-13.5001 150.8573,-10 140.8573,-6.5001 140.8574,-13.5001"/>
</g>
<!-- Node14 -->
<g id="node3" class="node">
<title>Node14</title>
<g id="a_node3"><a xlink:href="group__l4__memory__api.html#ga96e3b2d8e69308aecbb11d1d24f61662" target="_top" xlink:title="Round address up to the next page. ">
<polygon fill="#ffffff" stroke="#000000" points="266,-.5 266,-19.5 354,-19.5 354,-.5 266,-.5"/>
<text text-anchor="middle" x="310" y="-7.5" font-family="Helvetica,sans-Serif" font-size="10.00" fill="#000000">l4_round_page</text>
</a>
</g>
</g>
<!-- Node13&#45;&gt;Node14 -->
<g id="edge2" class="edge">
<title>Node13&#45;&gt;Node14</title>
<path fill="none" stroke="#191970" d="M230.2918,-10C238.4011,-10 247.0645,-10 255.5822,-10"/>
<polygon fill="#191970" stroke="#191970" points="255.8528,-13.5001 265.8527,-10 255.8527,-6.5001 255.8528,-13.5001"/>
</g>
<!-- Node15 -->
<g id="node4" class="node">
<title>Node15</title>
<g id="a_node4"><a xlink:href="group__l4__memory__api.html#gae876a4c6e0f21b2ecbf17863dc7d11e4" target="_top" xlink:title="Round value up to the next alignment with bits size. ">
<polygon fill="#ffffff" stroke="#000000" points="390,-.5 390,-19.5 473,-19.5 473,-.5 390,-.5"/>
<text text-anchor="middle" x="431.5" y="-7.5" font-family="Helvetica,sans-Serif" font-size="10.00" fill="#000000">l4_round_size</text>
</a>
</g>
</g>
<!-- Node14&#45;&gt;Node15 -->
<g id="edge3" class="edge">
<title>Node14&#45;&gt;Node15</title>
<path fill="none" stroke="#191970" d="M354.208,-10C362.5049,-10 371.2475,-10 379.7495,-10"/>
<polygon fill="#191970" stroke="#191970" points="379.9548,-13.5001 389.9548,-10 379.9547,-6.5001 379.9548,-13.5001"/>
</g>
<!-- Node16 -->
<g id="node5" class="node">
<title>Node16</title>
<g id="a_node5"><a xlink:href="group__l4__memory__api.html#ga2be30f4e5dde3c85d115d2a9c77f6215" target="_top" xlink:title="Determine how many machine words (l4_umword_t) are required to store a buffer of &#39;size&#39; bytes...">
<polygon fill="#ffffff" stroke="#000000" points="509,-.5 509,-19.5 622,-19.5 622,-.5 509,-.5"/>
<text text-anchor="middle" x="565.5" y="-7.5" font-family="Helvetica,sans-Serif" font-size="10.00" fill="#000000">l4_bytes_to_mwords</text>
</a>
</g>
</g>
<!-- Node15&#45;&gt;Node16 -->
<g id="edge4" class="edge">
<title>Node15&#45;&gt;Node16</title>
<path fill="none" stroke="#191970" d="M473.1639,-10C481.2261,-10 489.8622,-10 498.4984,-10"/>
<polygon fill="#191970" stroke="#191970" points="498.6022,-13.5001 508.6021,-10 498.6021,-6.5001 498.6022,-13.5001"/>
</g>
</g>
</svg>
