<?xml version="1.0" encoding="UTF-8" standalone="no"?>
<!DOCTYPE svg PUBLIC "-//W3C//DTD SVG 1.1//EN"
 "http://www.w3.org/Graphics/SVG/1.1/DTD/svg11.dtd">
<!-- Generated by graphviz version 2.40.1 (20161225.0304)
 -->
<!-- Title: l4_vcon_send Pages: 1 -->
<svg width="221pt" height="66pt"
 viewBox="0.00 0.00 221.00 66.00" xmlns="http://www.w3.org/2000/svg" xmlns:xlink="http://www.w3.org/1999/xlink">
<g id="graph0" class="graph" transform="scale(1 1) rotate(0) translate(4 62)">
<title>l4_vcon_send</title>
<polygon fill="#ffffff" stroke="transparent" points="-4,4 -4,-62 217,-62 217,4 -4,4"/>
<!-- Node18 -->
<g id="node1" class="node">
<title>Node18</title>
<polygon fill="#bfbfbf" stroke="#000000" points="0,-19.5 0,-38.5 83,-38.5 83,-19.5 0,-19.5"/>
<text text-anchor="middle" x="41.5" y="-26.5" font-family="Helvetica,sans-Serif" font-size="10.00" fill="#000000">l4_vcon_send</text>
</g>
<!-- Node19 -->
<g id="node2" class="node">
<title>Node19</title>
<g id="a_node2"><a xlink:href="group__l4__utcb__api.html#gadc099b4a59e1d99638c72c11a8c8b644" target="_top" xlink:title="Get the UTCB address. ">
<polygon fill="#ffffff" stroke="#000000" points="141,-38.5 141,-57.5 191,-57.5 191,-38.5 141,-38.5"/>
<text text-anchor="middle" x="166" y="-45.5" font-family="Helvetica,sans-Serif" font-size="10.00" fill="#000000">l4_utcb</text>
</a>
</g>
</g>
<!-- Node18&#45;&gt;Node19 -->
<g id="edge1" class="edge">
<title>Node18&#45;&gt;Node19</title>
<path fill="none" stroke="#191970" d="M83.303,-35.3796C98.6511,-37.7218 115.8646,-40.3488 130.5966,-42.5971"/>
<polygon fill="#191970" stroke="#191970" points="130.4095,-46.109 140.8231,-44.1577 131.4656,-39.1891 130.4095,-46.109"/>
</g>
<!-- Node20 -->
<g id="node3" class="node">
<title>Node20</title>
<g id="a_node3"><a xlink:href="group__l4__vcon__api.html#ga05df63a45bb7ade1e0e19caaa6e35f5f" target="_top" xlink:title="Send data to this virtual console. ">
<polygon fill="#ffffff" stroke="#000000" points="119,-.5 119,-19.5 213,-19.5 213,-.5 119,-.5"/>
<text text-anchor="middle" x="166" y="-7.5" font-family="Helvetica,sans-Serif" font-size="10.00" fill="#000000">l4_vcon_send_u</text>
</a>
</g>
</g>
<!-- Node18&#45;&gt;Node20 -->
<g id="edge2" class="edge">
<title>Node18&#45;&gt;Node20</title>
<path fill="none" stroke="#191970" d="M83.303,-22.6204C91.5284,-21.3651 100.2895,-20.0281 108.9174,-18.7114"/>
<polygon fill="#191970" stroke="#191970" points="109.5869,-22.1498 118.9444,-17.1812 108.5308,-15.23 109.5869,-22.1498"/>
</g>
</g>
</svg>
