<?xml version="1.0" encoding="UTF-8" standalone="no"?>
<!DOCTYPE svg PUBLIC "-//W3C//DTD SVG 1.1//EN"
 "http://www.w3.org/Graphics/SVG/1.1/DTD/svg11.dtd">
<!-- Generated by graphviz version 2.40.1 (20161225.0304)
 -->
<!-- Title: l4_icu_set_mode_u Pages: 1 -->
<svg width="249pt" height="66pt"
 viewBox="0.00 0.00 249.00 66.00" xmlns="http://www.w3.org/2000/svg" xmlns:xlink="http://www.w3.org/1999/xlink">
<g id="graph0" class="graph" transform="scale(1 1) rotate(0) translate(4 62)">
<title>l4_icu_set_mode_u</title>
<polygon fill="#ffffff" stroke="transparent" points="-4,4 -4,-62 245,-62 245,4 -4,4"/>
<!-- Node34 -->
<g id="node1" class="node">
<title>Node34</title>
<polygon fill="#bfbfbf" stroke="#000000" points="0,-19.5 0,-38.5 107,-38.5 107,-19.5 0,-19.5"/>
<text text-anchor="middle" x="53.5" y="-26.5" font-family="Helvetica,sans-Serif" font-size="10.00" fill="#000000">l4_icu_set_mode_u</text>
</g>
<!-- Node35 -->
<g id="node2" class="node">
<title>Node35</title>
<g id="a_node2"><a xlink:href="group__l4__icu__api.html#gad387684dcc6b4838f1d4f466e1aeef6f" target="_top" xlink:title="Set interrupt mode. ">
<polygon fill="#ffffff" stroke="#000000" points="144,-38.5 144,-57.5 240,-57.5 240,-38.5 144,-38.5"/>
<text text-anchor="middle" x="192" y="-45.5" font-family="Helvetica,sans-Serif" font-size="10.00" fill="#000000">l4_icu_set_mode</text>
</a>
</g>
</g>
<!-- Node34&#45;&gt;Node35 -->
<g id="edge1" class="edge">
<title>Node34&#45;&gt;Node35</title>
<path fill="none" stroke="#191970" d="M117.0315,-37.7155C125.9504,-38.939 134.9966,-40.18 143.5731,-41.3566"/>
<polygon fill="#191970" stroke="#191970" points="117.4306,-34.2376 107.0477,-36.3459 116.4792,-41.1726 117.4306,-34.2376"/>
</g>
<!-- Node36 -->
<g id="node3" class="node">
<title>Node36</title>
<g id="a_node3"><a xlink:href="classL4_1_1Icu.html#a4258b1c32fc968b66a1ce15191f51b8b" target="_top" xlink:title="Set interrupt mode. ">
<polygon fill="#ffffff" stroke="#000000" points="143,-.5 143,-19.5 241,-19.5 241,-.5 143,-.5"/>
<text text-anchor="middle" x="192" y="-7.5" font-family="Helvetica,sans-Serif" font-size="10.00" fill="#000000">L4::Icu::set_mode</text>
</a>
</g>
</g>
<!-- Node34&#45;&gt;Node36 -->
<g id="edge2" class="edge">
<title>Node34&#45;&gt;Node36</title>
<path fill="none" stroke="#191970" d="M117.057,-20.281C125.6568,-19.1012 134.3746,-17.9053 142.6749,-16.7666"/>
<polygon fill="#191970" stroke="#191970" points="116.4792,-16.8274 107.0477,-21.6541 117.4306,-23.7624 116.4792,-16.8274"/>
</g>
</g>
</svg>
