<?xml version="1.0" encoding="UTF-8" standalone="no"?>
<!DOCTYPE svg PUBLIC "-//W3C//DTD SVG 1.1//EN"
 "http://www.w3.org/Graphics/SVG/1.1/DTD/svg11.dtd">
<!-- Generated by graphviz version 2.40.1 (20161225.0304)
 -->
<!-- Title: l4_msgtag_is_exception Pages: 1 -->
<svg width="634pt" height="180pt"
 viewBox="0.00 0.00 634.00 180.00" xmlns="http://www.w3.org/2000/svg" xmlns:xlink="http://www.w3.org/1999/xlink">
<g id="graph0" class="graph" transform="scale(1 1) rotate(0) translate(4 176)">
<title>l4_msgtag_is_exception</title>
<polygon fill="#ffffff" stroke="transparent" points="-4,4 -4,-176 630,-176 630,4 -4,4"/>
<!-- Node44 -->
<g id="node1" class="node">
<title>Node44</title>
<polygon fill="#bfbfbf" stroke="#000000" points="0,-76.5 0,-95.5 131,-95.5 131,-76.5 0,-76.5"/>
<text text-anchor="middle" x="65.5" y="-83.5" font-family="Helvetica,sans-Serif" font-size="10.00" fill="#000000">l4_msgtag_is_exception</text>
</g>
<!-- Node45 -->
<g id="node2" class="node">
<title>Node45</title>
<g id="a_node2"><a xlink:href="structl4__msgtag__t.html#a09c8212b870e6c144fd072dbde5b5262" target="_top" xlink:title="Test if flags indicate an error. ">
<polygon fill="#ffffff" stroke="#000000" points="167,-76.5 167,-95.5 292,-95.5 292,-76.5 167,-76.5"/>
<text text-anchor="middle" x="229.5" y="-83.5" font-family="Helvetica,sans-Serif" font-size="10.00" fill="#000000">l4_msgtag_t::has_error</text>
</a>
</g>
</g>
<!-- Node44&#45;&gt;Node45 -->
<g id="edge1" class="edge">
<title>Node44&#45;&gt;Node45</title>
<path fill="none" stroke="#191970" d="M141.2726,-86C149.857,-86 158.5328,-86 166.9211,-86"/>
<polygon fill="#191970" stroke="#191970" points="141.2601,-82.5001 131.2601,-86 141.2601,-89.5001 141.2601,-82.5001"/>
</g>
<!-- Node46 -->
<g id="node3" class="node">
<title>Node46</title>
<g id="a_node3"><a xlink:href="namespaceL4.html#aba0849c4b92afdccbe110489e18dadbd" target="_top" xlink:title="Throw an L4 IPC error as exception. ">
<polygon fill="#ffffff" stroke="#000000" points="328,-152.5 328,-171.5 459,-171.5 459,-152.5 328,-152.5"/>
<text text-anchor="middle" x="393.5" y="-159.5" font-family="Helvetica,sans-Serif" font-size="10.00" fill="#000000">L4::throw_ipc_exception</text>
</a>
</g>
</g>
<!-- Node45&#45;&gt;Node46 -->
<g id="edge2" class="edge">
<title>Node45&#45;&gt;Node46</title>
<path fill="none" stroke="#191970" d="M252.0764,-101.1872C271.5288,-113.7456 300.7049,-131.3483 328,-143 336.4939,-146.6259 345.8925,-149.8061 354.8559,-152.4756"/>
<polygon fill="#191970" stroke="#191970" points="253.8953,-98.1946 243.6121,-95.6437 250.0601,-104.0505 253.8953,-98.1946"/>
</g>
<!-- Node48 -->
<g id="node5" class="node">
<title>Node48</title>
<g id="a_node5"><a xlink:href="namespaceL4Re.html#ae0dd5d25abdc1d195edd8ab6b744334c" target="_top" xlink:title="Generate C++ exception on error. ">
<polygon fill="#ffffff" stroke="#000000" points="354,-114.5 354,-133.5 433,-133.5 433,-114.5 354,-114.5"/>
<text text-anchor="middle" x="393.5" y="-121.5" font-family="Helvetica,sans-Serif" font-size="10.00" fill="#000000">L4Re::chksys</text>
</a>
</g>
</g>
<!-- Node45&#45;&gt;Node48 -->
<g id="edge4" class="edge">
<title>Node45&#45;&gt;Node48</title>
<path fill="none" stroke="#191970" d="M280.7195,-97.8679C304.3014,-103.332 331.8563,-109.7167 353.8263,-114.8073"/>
<polygon fill="#191970" stroke="#191970" points="281.4161,-94.4367 270.8841,-95.589 279.836,-101.256 281.4161,-94.4367"/>
</g>
<!-- Node49 -->
<g id="node6" class="node">
<title>Node49</title>
<g id="a_node6"><a xlink:href="namespaceL4Re.html#ae21329b88c6ffc4917048e8d9564ea99" target="_top" xlink:title="Test a message tag for IPC errors. ">
<polygon fill="#ffffff" stroke="#000000" points="355,-76.5 355,-95.5 432,-95.5 432,-76.5 355,-76.5"/>
<text text-anchor="middle" x="393.5" y="-83.5" font-family="Helvetica,sans-Serif" font-size="10.00" fill="#000000">L4Re::chkipc</text>
</a>
</g>
</g>
<!-- Node45&#45;&gt;Node49 -->
<g id="edge5" class="edge">
<title>Node45&#45;&gt;Node49</title>
<path fill="none" stroke="#191970" d="M302.6177,-86C320.5639,-86 339.0844,-86 354.6862,-86"/>
<polygon fill="#191970" stroke="#191970" points="302.4377,-82.5001 292.4377,-86 302.4376,-89.5001 302.4377,-82.5001"/>
</g>
<!-- Node50 -->
<g id="node7" class="node">
<title>Node50</title>
<g id="a_node7"><a xlink:href="classL4_1_1Server.html#a4333dc750dee494087ee92ab058718a1" target="_top" xlink:title="Internal implementation for reply and wait. ">
<polygon fill="#ffffff" stroke="#000000" points="329,-38.5 329,-57.5 458,-57.5 458,-38.5 329,-38.5"/>
<text text-anchor="middle" x="393.5" y="-45.5" font-family="Helvetica,sans-Serif" font-size="10.00" fill="#000000">L4::Server::reply_n_wait</text>
</a>
</g>
</g>
<!-- Node45&#45;&gt;Node50 -->
<g id="edge6" class="edge">
<title>Node45&#45;&gt;Node50</title>
<path fill="none" stroke="#191970" d="M280.841,-74.1039C303.8929,-68.7626 330.7211,-62.5463 352.4135,-57.5201"/>
<polygon fill="#191970" stroke="#191970" points="279.836,-70.744 270.8841,-76.411 281.4161,-77.5633 279.836,-70.744"/>
</g>
<!-- Node51 -->
<g id="node8" class="node">
<title>Node51</title>
<g id="a_node8"><a xlink:href="classL4_1_1Server.html#ac0965dc536f1df5dfe0be1b224feab89" target="_top" xlink:title="The server loop. ">
<polygon fill="#ffffff" stroke="#000000" points="328,-.5 328,-19.5 459,-19.5 459,-.5 328,-.5"/>
<text text-anchor="middle" x="393.5" y="-7.5" font-family="Helvetica,sans-Serif" font-size="10.00" fill="#000000">L4::Server::internal_loop</text>
</a>
</g>
</g>
<!-- Node45&#45;&gt;Node51 -->
<g id="edge7" class="edge">
<title>Node45&#45;&gt;Node51</title>
<path fill="none" stroke="#191970" d="M252.0764,-70.8128C271.5288,-58.2544 300.7049,-40.6517 328,-29 336.4939,-25.3741 345.8925,-22.1939 354.8559,-19.5244"/>
<polygon fill="#191970" stroke="#191970" points="250.0601,-67.9495 243.6121,-76.3563 253.8953,-73.8054 250.0601,-67.9495"/>
</g>
<!-- Node47 -->
<g id="node4" class="node">
<title>Node47</title>
<g id="a_node4"><a xlink:href="namespaceL4.html#a54f8da0e02ff2496f1ad935e38ab17c4" target="_top" xlink:title="Throw an L4 IPC error as exception. ">
<polygon fill="#ffffff" stroke="#000000" points="495,-152.5 495,-171.5 626,-171.5 626,-152.5 495,-152.5"/>
<text text-anchor="middle" x="560.5" y="-159.5" font-family="Helvetica,sans-Serif" font-size="10.00" fill="#000000">L4::throw_ipc_exception</text>
</a>
</g>
</g>
<!-- Node46&#45;&gt;Node47 -->
<g id="edge3" class="edge">
<title>Node46&#45;&gt;Node47</title>
<path fill="none" stroke="#191970" d="M469.0663,-162C477.6848,-162 486.4171,-162 494.8913,-162"/>
<polygon fill="#191970" stroke="#191970" points="469.0235,-158.5001 459.0235,-162 469.0235,-165.5001 469.0235,-158.5001"/>
</g>
</g>
</svg>
