<?xml version="1.0" encoding="UTF-8" standalone="no"?>
<!DOCTYPE svg PUBLIC "-//W3C//DTD SVG 1.1//EN"
 "http://www.w3.org/Graphics/SVG/1.1/DTD/svg11.dtd">
<!-- Generated by graphviz version 2.40.1 (20161225.0304)
 -->
<!-- Title: l4virtio_device_config_ds Pages: 1 -->
<svg width="432pt" height="39pt"
 viewBox="0.00 0.00 432.00 39.00" xmlns="http://www.w3.org/2000/svg" xmlns:xlink="http://www.w3.org/1999/xlink">
<g id="graph0" class="graph" transform="scale(1 1) rotate(0) translate(4 35)">
<title>l4virtio_device_config_ds</title>
<polygon fill="#ffffff" stroke="transparent" points="-4,4 -4,-35 428,-35 428,4 -4,4"/>
<!-- Node9 -->
<g id="node1" class="node">
<title>Node9</title>
<polygon fill="#bfbfbf" stroke="#000000" points="0,-6 0,-25 136,-25 136,-6 0,-6"/>
<text text-anchor="middle" x="68" y="-13" font-family="Helvetica,sans-Serif" font-size="10.00" fill="#000000">l4virtio_device_config_ds</text>
</g>
<!-- Node10 -->
<g id="node2" class="node">
<title>Node10</title>
<g id="a_node2"><a xlink:href="group__l4virtio__transport.html#gae37bcd45875b27b302320e6b9580191d" target="_top" xlink:title="Check if the given bit in a feature map is set. ">
<polygon fill="#ffffff" stroke="#000000" points="172,-6 172,-25 279,-25 279,-6 172,-6"/>
<text text-anchor="middle" x="225.5" y="-13" font-family="Helvetica,sans-Serif" font-size="10.00" fill="#000000">l4virtio_get_feature</text>
</a>
</g>
</g>
<!-- Node9&#45;&gt;Node10 -->
<g id="edge1" class="edge">
<title>Node9&#45;&gt;Node10</title>
<path fill="none" stroke="#191970" d="M146.3206,-15.5C154.9952,-15.5 163.6767,-15.5 171.9442,-15.5"/>
<polygon fill="#191970" stroke="#191970" points="146.1658,-12.0001 136.1658,-15.5 146.1657,-19.0001 146.1658,-12.0001"/>
</g>
<!-- Node11 -->
<g id="node3" class="node">
<title>Node11</title>
<g id="a_node3"><a xlink:href="classL4virtio_1_1Svr_1_1Dev__config.html#ac0a15fe6ca82defa26c36e37447275eb" target="_top" xlink:title="Setup an L4&#45;Virtio config space in an existing data space. ">
<polygon fill="#ffffff" stroke="#000000" points="315,-.5 315,-30.5 424,-30.5 424,-.5 315,-.5"/>
<text text-anchor="start" x="323" y="-18.5" font-family="Helvetica,sans-Serif" font-size="10.00" fill="#000000">L4virtio::Svr::Dev</text>
<text text-anchor="middle" x="369.5" y="-7.5" font-family="Helvetica,sans-Serif" font-size="10.00" fill="#000000">_config::Dev_config</text>
</a>
</g>
</g>
<!-- Node10&#45;&gt;Node11 -->
<g id="edge2" class="edge">
<title>Node10&#45;&gt;Node11</title>
<path fill="none" stroke="#191970" d="M289.3851,-15.5C297.8893,-15.5 306.5464,-15.5 314.8737,-15.5"/>
<polygon fill="#191970" stroke="#191970" points="289.1203,-12.0001 279.1203,-15.5 289.1203,-19.0001 289.1203,-12.0001"/>
</g>
</g>
</svg>
