<?xml version="1.0" encoding="UTF-8" standalone="no"?>
<!DOCTYPE svg PUBLIC "-//W3C//DTD SVG 1.1//EN"
 "http://www.w3.org/Graphics/SVG/1.1/DTD/svg11.dtd">
<!-- Generated by graphviz version 2.40.1 (20161225.0304)
 -->
<!-- Title: l4_factory_create_thread_u Pages: 1 -->
<svg width="327pt" height="78pt"
 viewBox="0.00 0.00 327.00 77.50" xmlns="http://www.w3.org/2000/svg" xmlns:xlink="http://www.w3.org/1999/xlink">
<g id="graph0" class="graph" transform="scale(1 1) rotate(0) translate(4 73.5)">
<title>l4_factory_create_thread_u</title>
<polygon fill="#ffffff" stroke="transparent" points="-4,4 -4,-73.5 323,-73.5 323,4 -4,4"/>
<!-- Node37 -->
<g id="node1" class="node">
<title>Node37</title>
<polygon fill="#bfbfbf" stroke="#000000" points="0,-22.5 0,-41.5 147,-41.5 147,-22.5 0,-22.5"/>
<text text-anchor="middle" x="73.5" y="-29.5" font-family="Helvetica,sans-Serif" font-size="10.00" fill="#000000">l4_factory_create_thread_u</text>
</g>
<!-- Node38 -->
<g id="node2" class="node">
<title>Node38</title>
<g id="a_node2"><a xlink:href="classL4_1_1Factory.html#a0a5a8f18ac13a39f583c37ea42657246" target="_top" xlink:title="Create a new thread. ">
<polygon fill="#ffffff" stroke="#000000" points="199.5,-39 199.5,-69 302.5,-69 302.5,-39 199.5,-39"/>
<text text-anchor="start" x="207.5" y="-57" font-family="Helvetica,sans-Serif" font-size="10.00" fill="#000000">L4::Factory::create</text>
<text text-anchor="middle" x="251" y="-46" font-family="Helvetica,sans-Serif" font-size="10.00" fill="#000000">_thread</text>
</a>
</g>
</g>
<!-- Node37&#45;&gt;Node38 -->
<g id="edge1" class="edge">
<title>Node37&#45;&gt;Node38</title>
<path fill="none" stroke="#191970" d="M157.1584,-42.3689C171.5623,-44.1542 186.1455,-45.9617 199.3839,-47.6025"/>
<polygon fill="#191970" stroke="#191970" points="157.5885,-38.8955 147.2339,-41.1389 156.7275,-45.8424 157.5885,-38.8955"/>
</g>
<!-- Node39 -->
<g id="node3" class="node">
<title>Node39</title>
<g id="a_node3"><a xlink:href="group__l4__factory__api.html#ga26aad57304812d2a73597b591f1b3630" target="_top" xlink:title="Create a new thread. ">
<polygon fill="#ffffff" stroke="#000000" points="183,-.5 183,-19.5 319,-19.5 319,-.5 183,-.5"/>
<text text-anchor="middle" x="251" y="-7.5" font-family="Helvetica,sans-Serif" font-size="10.00" fill="#000000">l4_factory_create_thread</text>
</a>
</g>
</g>
<!-- Node37&#45;&gt;Node39 -->
<g id="edge2" class="edge">
<title>Node37&#45;&gt;Node39</title>
<path fill="none" stroke="#191970" d="M157.2668,-21.6176C165.8543,-20.5533 174.5041,-19.4812 182.8934,-18.4414"/>
<polygon fill="#191970" stroke="#191970" points="156.7275,-18.1576 147.2339,-22.8611 157.5885,-25.1045 156.7275,-18.1576"/>
</g>
</g>
</svg>
