<?xml version="1.0" encoding="UTF-8" standalone="no"?>
<!DOCTYPE svg PUBLIC "-//W3C//DTD SVG 1.1//EN"
 "http://www.w3.org/Graphics/SVG/1.1/DTD/svg11.dtd">
<!-- Generated by graphviz version 2.40.1 (20161225.0304)
 -->
<!-- Title: Kernel Objects Pages: 1 -->
<svg width="349pt" height="420pt"
 viewBox="0.00 0.00 349.00 420.00" xmlns="http://www.w3.org/2000/svg" xmlns:xlink="http://www.w3.org/1999/xlink">
<g id="graph0" class="graph" transform="scale(1 1) rotate(0) translate(4 416)">
<title>Kernel Objects</title>
<polygon fill="#ffffff" stroke="transparent" points="-4,4 -4,-416 345,-416 345,4 -4,4"/>
<!-- Node8 -->
<g id="node1" class="node">
<title>Node8</title>
<g id="a_node1"><a xlink:href="group__l4__platform__control__api.html" target="_top" xlink:title="C interface for controlling platform&#45;wide properties. ">
<polygon fill="#ffffff" stroke="#000000" points="218,-392.5 218,-411.5 341,-411.5 341,-392.5 218,-392.5"/>
<text text-anchor="middle" x="279.5" y="-399.5" font-family="Helvetica,sans-Serif" font-size="10.00" fill="#000000">Platform Control C API</text>
</a>
</g>
</g>
<!-- Node9 -->
<g id="node2" class="node">
<title>Node9</title>
<g id="a_node2"><a xlink:href="group__l4__scheduler__api.html" target="_top" xlink:title="C interface of the Scheduler kernel object. ">
<polygon fill="#ffffff" stroke="#000000" points="247.5,-354.5 247.5,-373.5 311.5,-373.5 311.5,-354.5 247.5,-354.5"/>
<text text-anchor="middle" x="279.5" y="-361.5" font-family="Helvetica,sans-Serif" font-size="10.00" fill="#000000">Scheduler</text>
</a>
</g>
</g>
<!-- Node7 -->
<g id="node3" class="node">
<title>Node7</title>
<g id="a_node3"><a xlink:href="group__l4__irq__api.html" target="_top" xlink:title="C IRQ interface. ">
<polygon fill="#ffffff" stroke="#000000" points="259,-316.5 259,-335.5 300,-335.5 300,-316.5 259,-316.5"/>
<text text-anchor="middle" x="279.5" y="-323.5" font-family="Helvetica,sans-Serif" font-size="10.00" fill="#000000">IRQs</text>
</a>
</g>
</g>
<!-- Node11 -->
<g id="node4" class="node">
<title>Node11</title>
<g id="a_node4"><a xlink:href="group__l4__thread__api.html" target="_top" xlink:title="Thread object. ">
<polygon fill="#ffffff" stroke="#000000" points="254,-278.5 254,-297.5 305,-297.5 305,-278.5 254,-278.5"/>
<text text-anchor="middle" x="279.5" y="-285.5" font-family="Helvetica,sans-Serif" font-size="10.00" fill="#000000">Thread</text>
</a>
</g>
</g>
<!-- Node6 -->
<g id="node5" class="node">
<title>Node6</title>
<g id="a_node5"><a xlink:href="group__l4__icu__api.html" target="_top" xlink:title="The C Icu interface. ">
<polygon fill="#ffffff" stroke="#000000" points="227.5,-240.5 227.5,-259.5 331.5,-259.5 331.5,-240.5 227.5,-240.5"/>
<text text-anchor="middle" x="279.5" y="-247.5" font-family="Helvetica,sans-Serif" font-size="10.00" fill="#000000">Interrupt controller</text>
</a>
</g>
</g>
<!-- Node5 -->
<g id="node6" class="node">
<title>Node5</title>
<g id="a_node6"><a xlink:href="group__l4__vm__api.html" target="_top" xlink:title="Virtual Machine API. ">
<polygon fill="#ffffff" stroke="#000000" points="232,-202.5 232,-221.5 327,-221.5 327,-202.5 232,-202.5"/>
<text text-anchor="middle" x="279.5" y="-209.5" font-family="Helvetica,sans-Serif" font-size="10.00" fill="#000000">Virtual Machines</text>
</a>
</g>
</g>
<!-- Node2 -->
<g id="node7" class="node">
<title>Node2</title>
<g id="a_node7"><a xlink:href="group__l4__kernel__object__gate__api.html" target="_top" xlink:title="Secure communication object. ">
<polygon fill="#ffffff" stroke="#000000" points="239.5,-164.5 239.5,-183.5 319.5,-183.5 319.5,-164.5 239.5,-164.5"/>
<text text-anchor="middle" x="279.5" y="-171.5" font-family="Helvetica,sans-Serif" font-size="10.00" fill="#000000">IPC&#45;Gate API</text>
</a>
</g>
</g>
<!-- Node4 -->
<g id="node8" class="node">
<title>Node4</title>
<g id="a_node8"><a xlink:href="group__l4__factory__api.html" target="_top" xlink:title="C factory interface to create kernel objects. ">
<polygon fill="#ffffff" stroke="#000000" points="253.5,-126.5 253.5,-145.5 305.5,-145.5 305.5,-126.5 253.5,-126.5"/>
<text text-anchor="middle" x="279.5" y="-133.5" font-family="Helvetica,sans-Serif" font-size="10.00" fill="#000000">Factory</text>
</a>
</g>
</g>
<!-- Node12 -->
<g id="node9" class="node">
<title>Node12</title>
<g id="a_node9"><a xlink:href="group__l4__vcon__api.html" target="_top" xlink:title="Virtual console for simple character based input and output. ">
<polygon fill="#ffffff" stroke="#000000" points="235.5,-88.5 235.5,-107.5 323.5,-107.5 323.5,-88.5 235.5,-88.5"/>
<text text-anchor="middle" x="279.5" y="-95.5" font-family="Helvetica,sans-Serif" font-size="10.00" fill="#000000">Virtual Console</text>
</a>
</g>
</g>
<!-- Node1 -->
<g id="node10" class="node">
<title>Node1</title>
<g id="a_node10"><a xlink:href="group__l4__api.html" target="_top" xlink:title="Interfaces for all kinds of base functionality. ">
<polygon fill="#ffffff" stroke="#000000" points="0,-202.5 0,-221.5 60,-221.5 60,-202.5 0,-202.5"/>
<text text-anchor="middle" x="30" y="-209.5" font-family="Helvetica,sans-Serif" font-size="10.00" fill="#000000">Base API</text>
</a>
</g>
</g>
<!-- Node0 -->
<g id="node11" class="node">
<title>Node0</title>
<polygon fill="#bfbfbf" stroke="#000000" points="96,-202.5 96,-221.5 182,-221.5 182,-202.5 96,-202.5"/>
<text text-anchor="middle" x="139" y="-209.5" font-family="Helvetica,sans-Serif" font-size="10.00" fill="#000000">Kernel Objects</text>
</g>
<!-- Node1&#45;&gt;Node0 -->
<g id="edge1" class="edge">
<title>Node1&#45;&gt;Node0</title>
<path fill="none" stroke="#000000" d="M70.3358,-212C78.6905,-212 87.5223,-212 95.9692,-212"/>
<polygon fill="#000000" stroke="#000000" points="70.0733,-208.5001 60.0733,-212 70.0732,-215.5001 70.0733,-208.5001"/>
</g>
<!-- Node0&#45;&gt;Node8 -->
<g id="edge8" class="edge">
<title>Node0&#45;&gt;Node8</title>
<path fill="none" stroke="#000000" d="M142.6735,-231.857C150.2856,-267.3996 171.1416,-341.999 218,-383 222.4573,-386.9002 227.7051,-389.9998 233.2249,-392.4632"/>
<polygon fill="#000000" stroke="#000000" points="146.0507,-230.8973 140.6512,-221.7816 139.1876,-232.2749 146.0507,-230.8973"/>
</g>
<!-- Node0&#45;&gt;Node9 -->
<g id="edge9" class="edge">
<title>Node0&#45;&gt;Node9</title>
<path fill="none" stroke="#000000" d="M145.4006,-231.439C155.9311,-260.4244 179.6507,-314.7904 218,-345 226.4273,-351.6386 237.1826,-355.9701 247.3347,-358.7913"/>
<polygon fill="#000000" stroke="#000000" points="148.5965,-229.9727 142.0075,-221.676 141.9844,-232.2708 148.5965,-229.9727"/>
</g>
<!-- Node0&#45;&gt;Node7 -->
<g id="edge7" class="edge">
<title>Node0&#45;&gt;Node7</title>
<path fill="none" stroke="#000000" d="M149.6981,-230.4485C163.045,-251.8812 187.8261,-286.8681 218,-307 230.2706,-315.1869 246.2381,-319.9825 258.8277,-322.7076"/>
<polygon fill="#000000" stroke="#000000" points="152.5558,-228.4099 144.392,-221.6569 146.5627,-232.027 152.5558,-228.4099"/>
</g>
<!-- Node0&#45;&gt;Node11 -->
<g id="edge11" class="edge">
<title>Node0&#45;&gt;Node11</title>
<path fill="none" stroke="#000000" d="M157.4629,-228.0015C172.8,-240.6092 195.6492,-257.8613 218,-269 229.302,-274.6324 242.6091,-278.9944 253.9491,-282.1101"/>
<polygon fill="#000000" stroke="#000000" points="159.6763,-225.2898 149.766,-221.5433 155.1769,-230.6523 159.6763,-225.2898"/>
</g>
<!-- Node0&#45;&gt;Node6 -->
<g id="edge6" class="edge">
<title>Node0&#45;&gt;Node6</title>
<path fill="none" stroke="#000000" d="M184.2787,-224.2462C203.6449,-229.484 225.9218,-235.5091 244.0573,-240.4141"/>
<polygon fill="#000000" stroke="#000000" points="185.0211,-220.8213 174.4541,-221.589 183.1934,-227.5785 185.0211,-220.8213"/>
</g>
<!-- Node0&#45;&gt;Node5 -->
<g id="edge5" class="edge">
<title>Node0&#45;&gt;Node5</title>
<path fill="none" stroke="#000000" d="M192.444,-212C205.3513,-212 219.0627,-212 231.6926,-212"/>
<polygon fill="#000000" stroke="#000000" points="192.3011,-208.5001 182.3011,-212 192.301,-215.5001 192.3011,-208.5001"/>
</g>
<!-- Node0&#45;&gt;Node2 -->
<g id="edge2" class="edge">
<title>Node0&#45;&gt;Node2</title>
<path fill="none" stroke="#000000" d="M184.2787,-199.7538C203.6449,-194.516 225.9218,-188.4909 244.0573,-183.5859"/>
<polygon fill="#000000" stroke="#000000" points="183.1934,-196.4215 174.4541,-202.411 185.0211,-203.1787 183.1934,-196.4215"/>
</g>
<!-- Node0&#45;&gt;Node4 -->
<g id="edge4" class="edge">
<title>Node0&#45;&gt;Node4</title>
<path fill="none" stroke="#000000" d="M157.4629,-195.9985C172.8,-183.3908 195.6492,-166.1387 218,-155 229.102,-149.4672 242.1387,-145.1604 253.3451,-142.0565"/>
<polygon fill="#000000" stroke="#000000" points="155.1769,-193.3477 149.766,-202.4567 159.6763,-198.7102 155.1769,-193.3477"/>
</g>
<!-- Node0&#45;&gt;Node12 -->
<g id="edge12" class="edge">
<title>Node0&#45;&gt;Node12</title>
<path fill="none" stroke="#000000" d="M149.6981,-193.5515C163.045,-172.1188 187.8261,-137.1319 218,-117 223.7635,-113.1547 230.3425,-110.0575 237.0041,-107.5716"/>
<polygon fill="#000000" stroke="#000000" points="146.5627,-191.973 144.392,-202.3431 152.5558,-195.5901 146.5627,-191.973"/>
</g>
<!-- Node3 -->
<g id="node12" class="node">
<title>Node3</title>
<g id="a_node12"><a xlink:href="group__l4__kobject__rtti.html" target="_top" xlink:title="Type information for L4 server objects that can be called via IPC. ">
<polygon fill="#ffffff" stroke="#000000" points="222,-39 222,-69 337,-69 337,-39 222,-39"/>
<text text-anchor="start" x="230" y="-57" font-family="Helvetica,sans-Serif" font-size="10.00" fill="#000000">L4 kernel object type</text>
<text text-anchor="middle" x="279.5" y="-46" font-family="Helvetica,sans-Serif" font-size="10.00" fill="#000000"> information</text>
</a>
</g>
</g>
<!-- Node0&#45;&gt;Node3 -->
<g id="edge3" class="edge">
<title>Node0&#45;&gt;Node3</title>
<path fill="none" stroke="#000000" d="M145.9004,-192.5537C156.9461,-163.997 181.1726,-110.6834 218,-79 222.4559,-75.1665 227.5773,-71.8682 232.922,-69.044"/>
<polygon fill="#000000" stroke="#000000" points="142.5221,-191.5967 142.3136,-202.1894 149.0823,-194.0387 142.5221,-191.5967"/>
</g>
<!-- Node10 -->
<g id="node13" class="node">
<title>Node10</title>
<g id="a_node13"><a xlink:href="group__l4__task__api.html" target="_top" xlink:title="C interface of the Task kernel object. ">
<polygon fill="#ffffff" stroke="#000000" points="259.5,-.5 259.5,-19.5 299.5,-19.5 299.5,-.5 259.5,-.5"/>
<text text-anchor="middle" x="279.5" y="-7.5" font-family="Helvetica,sans-Serif" font-size="10.00" fill="#000000">Task</text>
</a>
</g>
</g>
<!-- Node0&#45;&gt;Node10 -->
<g id="edge10" class="edge">
<title>Node0&#45;&gt;Node10</title>
<path fill="none" stroke="#000000" d="M141.9647,-192.3296C148.6287,-154.9958 168.2886,-73.618 218,-29 229.3936,-18.7738 246.2056,-14.0514 259.3736,-11.8707"/>
<polygon fill="#000000" stroke="#000000" points="138.4759,-191.9749 140.295,-202.4124 145.3818,-193.1186 138.4759,-191.9749"/>
</g>
</g>
</svg>
