<?xml version="1.0" encoding="UTF-8" standalone="no"?>
<!DOCTYPE svg PUBLIC "-//W3C//DTD SVG 1.1//EN"
 "http://www.w3.org/Graphics/SVG/1.1/DTD/svg11.dtd">
<!-- Generated by graphviz version 2.40.1 (20161225.0304)
 -->
<!-- Title: l4_irq_trigger_u Pages: 1 -->
<svg width="397pt" height="66pt"
 viewBox="0.00 0.00 397.00 66.00" xmlns="http://www.w3.org/2000/svg" xmlns:xlink="http://www.w3.org/1999/xlink">
<g id="graph0" class="graph" transform="scale(1 1) rotate(0) translate(4 62)">
<title>l4_irq_trigger_u</title>
<polygon fill="#ffffff" stroke="transparent" points="-4,4 -4,-62 393,-62 393,4 -4,4"/>
<!-- Node53 -->
<g id="node1" class="node">
<title>Node53</title>
<polygon fill="#bfbfbf" stroke="#000000" points="0,-19.5 0,-38.5 91,-38.5 91,-19.5 0,-19.5"/>
<text text-anchor="middle" x="45.5" y="-26.5" font-family="Helvetica,sans-Serif" font-size="10.00" fill="#000000">l4_irq_trigger_u</text>
</g>
<!-- Node54 -->
<g id="node2" class="node">
<title>Node54</title>
<g id="a_node2"><a xlink:href="group__l4__irq__api.html#gab24e0fc21a207fd566ece1e6fafbac48" target="_top" xlink:title="Trigger an IRQ. ">
<polygon fill="#ffffff" stroke="#000000" points="148,-38.5 148,-57.5 228,-57.5 228,-38.5 148,-38.5"/>
<text text-anchor="middle" x="188" y="-45.5" font-family="Helvetica,sans-Serif" font-size="10.00" fill="#000000">l4_irq_trigger</text>
</a>
</g>
</g>
<!-- Node53&#45;&gt;Node54 -->
<g id="edge1" class="edge">
<title>Node53&#45;&gt;Node54</title>
<path fill="none" stroke="#191970" d="M101.4104,-36.4547C116.9604,-38.5281 133.5337,-40.7378 147.974,-42.6632"/>
<polygon fill="#191970" stroke="#191970" points="101.7472,-32.9687 91.3723,-35.1163 100.822,-39.9073 101.7472,-32.9687"/>
</g>
<!-- Node55 -->
<g id="node3" class="node">
<title>Node55</title>
<g id="a_node3"><a xlink:href="structL4_1_1Triggerable.html#a7109ca8b4aeac0169639f973c91a3a6b" target="_top" xlink:title="Trigger. ">
<polygon fill="#ffffff" stroke="#000000" points="127,-.5 127,-19.5 249,-19.5 249,-.5 127,-.5"/>
<text text-anchor="middle" x="188" y="-7.5" font-family="Helvetica,sans-Serif" font-size="10.00" fill="#000000">L4::Triggerable::trigger</text>
</a>
</g>
</g>
<!-- Node53&#45;&gt;Node55 -->
<g id="edge2" class="edge">
<title>Node53&#45;&gt;Node55</title>
<path fill="none" stroke="#191970" d="M101.3925,-21.5477C109.7549,-20.4327 118.4135,-19.2782 126.8776,-18.1497"/>
<polygon fill="#191970" stroke="#191970" points="100.822,-18.0927 91.3723,-22.8837 101.7472,-25.0313 100.822,-18.0927"/>
</g>
<!-- Node56 -->
<g id="node4" class="node">
<title>Node56</title>
<g id="a_node4"><a xlink:href="structL4_1_1Semaphore.html#a3de7e4e35ff4dadab9a26f3b87fb76bc" target="_top" xlink:title="Semaphore up operation (wrapper for trigger()). ">
<polygon fill="#ffffff" stroke="#000000" points="285,-.5 285,-19.5 389,-19.5 389,-.5 285,-.5"/>
<text text-anchor="middle" x="337" y="-7.5" font-family="Helvetica,sans-Serif" font-size="10.00" fill="#000000">L4::Semaphore::up</text>
</a>
</g>
</g>
<!-- Node55&#45;&gt;Node56 -->
<g id="edge3" class="edge">
<title>Node55&#45;&gt;Node56</title>
<path fill="none" stroke="#191970" d="M259.1541,-10C267.8227,-10 276.5518,-10 284.8707,-10"/>
<polygon fill="#191970" stroke="#191970" points="259.034,-6.5001 249.0339,-10 259.0339,-13.5001 259.034,-6.5001"/>
</g>
</g>
</svg>
