<?xml version="1.0" encoding="UTF-8" standalone="no"?>
<!DOCTYPE svg PUBLIC "-//W3C//DTD SVG 1.1//EN"
 "http://www.w3.org/Graphics/SVG/1.1/DTD/svg11.dtd">
<!-- Generated by graphviz version 2.40.1 (20161225.0304)
 -->
<!-- Title: Shared Memory Library Pages: 1 -->
<svg width="224pt" height="66pt"
 viewBox="0.00 0.00 224.00 66.00" xmlns="http://www.w3.org/2000/svg" xmlns:xlink="http://www.w3.org/1999/xlink">
<g id="graph0" class="graph" transform="scale(1 1) rotate(0) translate(4 62)">
<title>Shared Memory Library</title>
<polygon fill="#ffffff" stroke="transparent" points="-4,4 -4,-62 220,-62 220,4 -4,4"/>
<!-- Node0 -->
<g id="node1" class="node">
<title>Node0</title>
<polygon fill="#bfbfbf" stroke="#000000" points="0,-19.5 0,-38.5 128,-38.5 128,-19.5 0,-19.5"/>
<text text-anchor="middle" x="64" y="-26.5" font-family="Helvetica,sans-Serif" font-size="10.00" fill="#000000">Shared Memory Library</text>
</g>
<!-- Node1 -->
<g id="node2" class="node">
<title>Node1</title>
<g id="a_node2"><a xlink:href="group__api__l4shmc__chunk.html" target="_top" xlink:title="Chunks">
<polygon fill="#ffffff" stroke="#000000" points="164,-38.5 164,-57.5 216,-57.5 216,-38.5 164,-38.5"/>
<text text-anchor="middle" x="190" y="-45.5" font-family="Helvetica,sans-Serif" font-size="10.00" fill="#000000">Chunks</text>
</a>
</g>
</g>
<!-- Node0&#45;&gt;Node1 -->
<g id="edge1" class="edge">
<title>Node0&#45;&gt;Node1</title>
<path fill="none" stroke="#000000" d="M137.2818,-40.0504C146.7194,-41.4736 155.8406,-42.849 163.7672,-44.0443"/>
<polygon fill="#000000" stroke="#000000" points="137.7793,-36.586 127.3691,-38.5557 136.7354,-43.5077 137.7793,-36.586"/>
</g>
<!-- Node2 -->
<g id="node3" class="node">
<title>Node2</title>
<g id="a_node3"><a xlink:href="group__api__l4shmc__signal.html" target="_top" xlink:title="Signals">
<polygon fill="#ffffff" stroke="#000000" points="164.5,-.5 164.5,-19.5 215.5,-19.5 215.5,-.5 164.5,-.5"/>
<text text-anchor="middle" x="190" y="-7.5" font-family="Helvetica,sans-Serif" font-size="10.00" fill="#000000">Signals</text>
</a>
</g>
</g>
<!-- Node0&#45;&gt;Node2 -->
<g id="edge2" class="edge">
<title>Node0&#45;&gt;Node2</title>
<path fill="none" stroke="#000000" d="M137.4691,-17.9213C147.0821,-16.4717 156.3606,-15.0726 164.3751,-13.8641"/>
<polygon fill="#000000" stroke="#000000" points="136.7354,-14.4923 127.3691,-19.4443 137.7793,-21.414 136.7354,-14.4923"/>
</g>
</g>
</svg>
