<?xml version="1.0" encoding="UTF-8" standalone="no"?>
<!DOCTYPE svg PUBLIC "-//W3C//DTD SVG 1.1//EN"
 "http://www.w3.org/Graphics/SVG/1.1/DTD/svg11.dtd">
<!-- Generated by graphviz version 2.40.1 (20161225.0304)
 -->
<!-- Title: l4_msgtag_has_error Pages: 1 -->
<svg width="659pt" height="382pt"
 viewBox="0.00 0.00 659.00 382.00" xmlns="http://www.w3.org/2000/svg" xmlns:xlink="http://www.w3.org/1999/xlink">
<g id="graph0" class="graph" transform="scale(1 1) rotate(0) translate(4 378)">
<title>l4_msgtag_has_error</title>
<polygon fill="#ffffff" stroke="transparent" points="-4,4 -4,-378 655,-378 655,4 -4,4"/>
<!-- Node26 -->
<g id="node1" class="node">
<title>Node26</title>
<polygon fill="#bfbfbf" stroke="#000000" points="0,-98.5 0,-117.5 118,-117.5 118,-98.5 0,-98.5"/>
<text text-anchor="middle" x="59" y="-105.5" font-family="Helvetica,sans-Serif" font-size="10.00" fill="#000000">l4_msgtag_has_error</text>
</g>
<!-- Node27 -->
<g id="node2" class="node">
<title>Node27</title>
<g id="a_node2"><a xlink:href="structl4__msgtag__t.html#a09c8212b870e6c144fd072dbde5b5262" target="_top" xlink:title="Test if flags indicate an error. ">
<polygon fill="#ffffff" stroke="#000000" points="157.5,-259.5 157.5,-278.5 282.5,-278.5 282.5,-259.5 157.5,-259.5"/>
<text text-anchor="middle" x="220" y="-266.5" font-family="Helvetica,sans-Serif" font-size="10.00" fill="#000000">l4_msgtag_t::has_error</text>
</a>
</g>
</g>
<!-- Node26&#45;&gt;Node27 -->
<g id="edge1" class="edge">
<title>Node26&#45;&gt;Node27</title>
<path fill="none" stroke="#191970" d="M75.826,-124.826C109.3691,-158.3691 183.6264,-232.6264 210.2576,-259.2576"/>
<polygon fill="#191970" stroke="#191970" points="78.1351,-122.1853 68.5891,-117.5891 73.1853,-127.1351 78.1351,-122.1853"/>
</g>
<!-- Node34 -->
<g id="node9" class="node">
<title>Node34</title>
<g id="a_node9"><a xlink:href="group__l4__ipc__err__api.html#gad40f404217497793e95a10d77a47db39" target="_top" xlink:title="Get the error code for an object invocation. ">
<polygon fill="#ffffff" stroke="#000000" points="183,-120.5 183,-139.5 257,-139.5 257,-120.5 183,-120.5"/>
<text text-anchor="middle" x="220" y="-127.5" font-family="Helvetica,sans-Serif" font-size="10.00" fill="#000000">l4_ipc_error</text>
</a>
</g>
</g>
<!-- Node26&#45;&gt;Node34 -->
<g id="edge8" class="edge">
<title>Node26&#45;&gt;Node34</title>
<path fill="none" stroke="#191970" d="M128.0941,-117.4414C146.9471,-120.0176 166.6521,-122.7102 182.9592,-124.9385"/>
<polygon fill="#191970" stroke="#191970" points="128.4181,-113.9533 118.0363,-116.0671 127.4703,-120.8888 128.4181,-113.9533"/>
</g>
<!-- Node37 -->
<g id="node12" class="node">
<title>Node37</title>
<g id="a_node12"><a xlink:href="group__l4__vcon__api.html#ga899728ba23baf18f59f62142534e039c" target="_top" xlink:title="Write data to this virtual console. ">
<polygon fill="#ffffff" stroke="#000000" points="173.5,-76.5 173.5,-95.5 266.5,-95.5 266.5,-76.5 173.5,-76.5"/>
<text text-anchor="middle" x="220" y="-83.5" font-family="Helvetica,sans-Serif" font-size="10.00" fill="#000000">l4_vcon_write_u</text>
</a>
</g>
</g>
<!-- Node26&#45;&gt;Node37 -->
<g id="edge11" class="edge">
<title>Node26&#45;&gt;Node37</title>
<path fill="none" stroke="#191970" d="M127.9864,-98.5733C143.2883,-96.4823 159.157,-94.3139 173.319,-92.3788"/>
<polygon fill="#191970" stroke="#191970" points="127.4703,-95.1112 118.0363,-99.9329 128.4181,-102.0467 127.4703,-95.1112"/>
</g>
<!-- Node40 -->
<g id="node15" class="node">
<title>Node40</title>
<g id="a_node15"><a xlink:href="group__api__libvcpu.html#gaa1e7797e4ed8b7dabd40c9849f5c362c" target="_top" xlink:title="Disable a vCPU for event delivery and return previous state. ">
<polygon fill="#ffffff" stroke="#000000" points="154,-19.5 154,-38.5 286,-38.5 286,-19.5 154,-19.5"/>
<text text-anchor="middle" x="220" y="-26.5" font-family="Helvetica,sans-Serif" font-size="10.00" fill="#000000">l4vcpu_irq_disable_save</text>
</a>
</g>
</g>
<!-- Node26&#45;&gt;Node40 -->
<g id="edge14" class="edge">
<title>Node26&#45;&gt;Node40</title>
<path fill="none" stroke="#191970" d="M87.426,-94.0518C119.9393,-78.0981 172.3066,-52.4023 200.5108,-38.563"/>
<polygon fill="#191970" stroke="#191970" points="85.856,-90.9235 78.4204,-98.4708 88.9397,-97.2077 85.856,-90.9235"/>
</g>
<!-- Node28 -->
<g id="node3" class="node">
<title>Node28</title>
<g id="a_node3"><a xlink:href="namespaceL4.html#aba0849c4b92afdccbe110489e18dadbd" target="_top" xlink:title="Throw an L4 IPC error as exception. ">
<polygon fill="#ffffff" stroke="#000000" points="337.5,-354.5 337.5,-373.5 468.5,-373.5 468.5,-354.5 337.5,-354.5"/>
<text text-anchor="middle" x="403" y="-361.5" font-family="Helvetica,sans-Serif" font-size="10.00" fill="#000000">L4::throw_ipc_exception</text>
</a>
</g>
</g>
<!-- Node27&#45;&gt;Node28 -->
<g id="edge2" class="edge">
<title>Node27&#45;&gt;Node28</title>
<path fill="none" stroke="#191970" d="M237.1532,-285.3148C256.3378,-302.6668 289.0617,-329.6788 322,-345 330.2509,-348.8379 339.3464,-351.9375 348.371,-354.4298"/>
<polygon fill="#191970" stroke="#191970" points="239.5228,-282.7389 229.799,-278.5319 234.7769,-287.8845 239.5228,-282.7389"/>
</g>
<!-- Node30 -->
<g id="node5" class="node">
<title>Node30</title>
<g id="a_node5"><a xlink:href="namespaceL4Re.html#ae0dd5d25abdc1d195edd8ab6b744334c" target="_top" xlink:title="Generate C++ exception on error. ">
<polygon fill="#ffffff" stroke="#000000" points="363.5,-316.5 363.5,-335.5 442.5,-335.5 442.5,-316.5 363.5,-316.5"/>
<text text-anchor="middle" x="403" y="-323.5" font-family="Helvetica,sans-Serif" font-size="10.00" fill="#000000">L4Re::chksys</text>
</a>
</g>
</g>
<!-- Node27&#45;&gt;Node30 -->
<g id="edge4" class="edge">
<title>Node27&#45;&gt;Node30</title>
<path fill="none" stroke="#191970" d="M252.7004,-282.3838C272.536,-290.1997 298.4785,-299.8908 322,-307 335.2734,-311.0118 349.9824,-314.6866 363.1837,-317.713"/>
<polygon fill="#191970" stroke="#191970" points="253.7962,-279.0529 243.2108,-278.6043 251.2061,-285.5561 253.7962,-279.0529"/>
</g>
<!-- Node31 -->
<g id="node6" class="node">
<title>Node31</title>
<g id="a_node6"><a xlink:href="namespaceL4Re.html#ae21329b88c6ffc4917048e8d9564ea99" target="_top" xlink:title="Test a message tag for IPC errors. ">
<polygon fill="#ffffff" stroke="#000000" points="364.5,-278.5 364.5,-297.5 441.5,-297.5 441.5,-278.5 364.5,-278.5"/>
<text text-anchor="middle" x="403" y="-285.5" font-family="Helvetica,sans-Serif" font-size="10.00" fill="#000000">L4Re::chkipc</text>
</a>
</g>
</g>
<!-- Node27&#45;&gt;Node31 -->
<g id="edge5" class="edge">
<title>Node27&#45;&gt;Node31</title>
<path fill="none" stroke="#191970" d="M292.7157,-276.5497C317.199,-279.0917 343.5573,-281.8284 364.3643,-283.9886"/>
<polygon fill="#191970" stroke="#191970" points="293.0302,-273.0636 282.7222,-275.5121 292.3072,-280.0262 293.0302,-273.0636"/>
</g>
<!-- Node32 -->
<g id="node7" class="node">
<title>Node32</title>
<g id="a_node7"><a xlink:href="classL4_1_1Server.html#a4333dc750dee494087ee92ab058718a1" target="_top" xlink:title="Internal implementation for reply and wait. ">
<polygon fill="#ffffff" stroke="#000000" points="338.5,-240.5 338.5,-259.5 467.5,-259.5 467.5,-240.5 338.5,-240.5"/>
<text text-anchor="middle" x="403" y="-247.5" font-family="Helvetica,sans-Serif" font-size="10.00" fill="#000000">L4::Server::reply_n_wait</text>
</a>
</g>
</g>
<!-- Node27&#45;&gt;Node32 -->
<g id="edge6" class="edge">
<title>Node27&#45;&gt;Node32</title>
<path fill="none" stroke="#191970" d="M293.0024,-261.4205C308.0426,-259.859 323.7787,-258.2252 338.4921,-256.6975"/>
<polygon fill="#191970" stroke="#191970" points="292.3072,-257.9738 282.7222,-262.4879 293.0302,-264.9364 292.3072,-257.9738"/>
</g>
<!-- Node33 -->
<g id="node8" class="node">
<title>Node33</title>
<g id="a_node8"><a xlink:href="classL4_1_1Server.html#ac0965dc536f1df5dfe0be1b224feab89" target="_top" xlink:title="The server loop. ">
<polygon fill="#ffffff" stroke="#000000" points="337.5,-202.5 337.5,-221.5 468.5,-221.5 468.5,-202.5 337.5,-202.5"/>
<text text-anchor="middle" x="403" y="-209.5" font-family="Helvetica,sans-Serif" font-size="10.00" fill="#000000">L4::Server::internal_loop</text>
</a>
</g>
</g>
<!-- Node27&#45;&gt;Node33 -->
<g id="edge7" class="edge">
<title>Node27&#45;&gt;Node33</title>
<path fill="none" stroke="#191970" d="M252.7004,-255.6162C272.536,-247.8003 298.4785,-238.1092 322,-231 333.476,-227.5315 346.025,-224.3149 357.745,-221.5514"/>
<polygon fill="#191970" stroke="#191970" points="251.2061,-252.4439 243.2108,-259.3957 253.7962,-258.9471 251.2061,-252.4439"/>
</g>
<!-- Node29 -->
<g id="node4" class="node">
<title>Node29</title>
<g id="a_node4"><a xlink:href="namespaceL4.html#a54f8da0e02ff2496f1ad935e38ab17c4" target="_top" xlink:title="Throw an L4 IPC error as exception. ">
<polygon fill="#ffffff" stroke="#000000" points="520,-354.5 520,-373.5 651,-373.5 651,-354.5 520,-354.5"/>
<text text-anchor="middle" x="585.5" y="-361.5" font-family="Helvetica,sans-Serif" font-size="10.00" fill="#000000">L4::throw_ipc_exception</text>
</a>
</g>
</g>
<!-- Node28&#45;&gt;Node29 -->
<g id="edge3" class="edge">
<title>Node28&#45;&gt;Node29</title>
<path fill="none" stroke="#191970" d="M478.9118,-364C492.505,-364 506.5658,-364 519.8404,-364"/>
<polygon fill="#191970" stroke="#191970" points="478.6289,-360.5001 468.6289,-364 478.6288,-367.5001 478.6289,-360.5001"/>
</g>
<!-- Node35 -->
<g id="node10" class="node">
<title>Node35</title>
<g id="a_node10"><a xlink:href="x86_2l4f_2l4_2util_2port__io_8h.html#a38a37fdbed4dd2dca75ce192d506a2d4" target="_top" xlink:title="Map a range of I/O ports. ">
<polygon fill="#ffffff" stroke="#000000" points="354.5,-164.5 354.5,-183.5 451.5,-183.5 451.5,-164.5 354.5,-164.5"/>
<text text-anchor="middle" x="403" y="-171.5" font-family="Helvetica,sans-Serif" font-size="10.00" fill="#000000">l4util_ioport_map</text>
</a>
</g>
</g>
<!-- Node34&#45;&gt;Node35 -->
<g id="edge9" class="edge">
<title>Node34&#45;&gt;Node35</title>
<path fill="none" stroke="#191970" d="M267.1277,-141.6547C284.3811,-145.8941 304.0667,-150.6991 322,-155 334.9222,-158.0991 349.0178,-161.4246 361.7744,-164.4135"/>
<polygon fill="#191970" stroke="#191970" points="267.8284,-138.2228 257.2818,-139.232 266.1559,-145.02 267.8284,-138.2228"/>
</g>
<!-- Node36 -->
<g id="node11" class="node">
<title>Node36</title>
<g id="a_node11"><a xlink:href="classL4Re_1_1Util_1_1Event__buffer__consumer__t.html#a4ed22b41ce4c7e6b93efae878b1415ef" target="_top" xlink:title="Continuously wait for events and process them. ">
<polygon fill="#ffffff" stroke="#000000" points="340.5,-115 340.5,-145 465.5,-145 465.5,-115 340.5,-115"/>
<text text-anchor="start" x="348.5" y="-133" font-family="Helvetica,sans-Serif" font-size="10.00" fill="#000000">L4Re::Util::Event_buffer</text>
<text text-anchor="middle" x="403" y="-122" font-family="Helvetica,sans-Serif" font-size="10.00" fill="#000000">_consumer_t::process</text>
</a>
</g>
</g>
<!-- Node34&#45;&gt;Node36 -->
<g id="edge10" class="edge">
<title>Node34&#45;&gt;Node36</title>
<path fill="none" stroke="#191970" d="M267.25,-130C289.5496,-130 316.4677,-130 340.4337,-130"/>
<polygon fill="#191970" stroke="#191970" points="267.0328,-126.5001 257.0328,-130 267.0327,-133.5001 267.0328,-126.5001"/>
</g>
<!-- Node38 -->
<g id="node13" class="node">
<title>Node38</title>
<g id="a_node13"><a xlink:href="classL4_1_1Vcon.html#a83407df2f5b674126d33505d73f5d34b" target="_top" xlink:title="Write data to this virtual console. ">
<polygon fill="#ffffff" stroke="#000000" points="361,-76.5 361,-95.5 445,-95.5 445,-76.5 361,-76.5"/>
<text text-anchor="middle" x="403" y="-83.5" font-family="Helvetica,sans-Serif" font-size="10.00" fill="#000000">L4::Vcon::write</text>
</a>
</g>
</g>
<!-- Node37&#45;&gt;Node38 -->
<g id="edge12" class="edge">
<title>Node37&#45;&gt;Node38</title>
<path fill="none" stroke="#191970" d="M276.796,-86C303.9384,-86 335.8636,-86 360.8133,-86"/>
<polygon fill="#191970" stroke="#191970" points="276.6522,-82.5001 266.6521,-86 276.6521,-89.5001 276.6522,-82.5001"/>
</g>
<!-- Node39 -->
<g id="node14" class="node">
<title>Node39</title>
<g id="a_node14"><a xlink:href="group__l4__vcon__api.html#ga9f083a69c2c51329da6778a3af0331bc" target="_top" xlink:title="Write data to virtual console. ">
<polygon fill="#ffffff" stroke="#000000" points="362,-38.5 362,-57.5 444,-57.5 444,-38.5 362,-38.5"/>
<text text-anchor="middle" x="403" y="-45.5" font-family="Helvetica,sans-Serif" font-size="10.00" fill="#000000">l4_vcon_write</text>
</a>
</g>
</g>
<!-- Node37&#45;&gt;Node39 -->
<g id="edge13" class="edge">
<title>Node37&#45;&gt;Node39</title>
<path fill="none" stroke="#191970" d="M276.1144,-74.3478C303.7721,-68.6047 336.5289,-61.8027 361.8314,-56.5487"/>
<polygon fill="#191970" stroke="#191970" points="275.2581,-70.9509 266.1786,-76.411 276.6814,-77.8047 275.2581,-70.9509"/>
</g>
<!-- Node41 -->
<g id="node16" class="node">
<title>Node41</title>
<g id="a_node16"><a xlink:href="classL4vcpu_1_1Vcpu.html#a05a251f7ecc0852035f2db1cd8b23188" target="_top" xlink:title="Disable the vCPU for event delivery and return previous state. ">
<polygon fill="#ffffff" stroke="#000000" points="322,-.5 322,-19.5 484,-19.5 484,-.5 322,-.5"/>
<text text-anchor="middle" x="403" y="-7.5" font-family="Helvetica,sans-Serif" font-size="10.00" fill="#000000">L4vcpu::Vcpu::irq_disable_save</text>
</a>
</g>
</g>
<!-- Node40&#45;&gt;Node41 -->
<g id="edge15" class="edge">
<title>Node40&#45;&gt;Node41</title>
<path fill="none" stroke="#191970" d="M296.2274,-21.0857C304.6453,-20.2117 313.2408,-19.3193 321.7178,-18.4391"/>
<polygon fill="#191970" stroke="#191970" points="295.6523,-17.6265 286.0672,-22.1406 296.3752,-24.5891 295.6523,-17.6265"/>
</g>
</g>
</svg>
