<?xml version="1.0" encoding="UTF-8" standalone="no"?>
<!DOCTYPE svg PUBLIC "-//W3C//DTD SVG 1.1//EN"
 "http://www.w3.org/Graphics/SVG/1.1/DTD/svg11.dtd">
<!-- Generated by graphviz version 2.40.1 (20161225.0304)
 -->
<!-- Title: l4_sched_cpu_set Pages: 1 -->
<svg width="257pt" height="88pt"
 viewBox="0.00 0.00 257.00 88.00" xmlns="http://www.w3.org/2000/svg" xmlns:xlink="http://www.w3.org/1999/xlink">
<g id="graph0" class="graph" transform="scale(1 1) rotate(0) translate(4 84)">
<title>l4_sched_cpu_set</title>
<polygon fill="#ffffff" stroke="transparent" points="-4,4 -4,-84 253,-84 253,4 -4,4"/>
<!-- Node0 -->
<g id="node1" class="node">
<title>Node0</title>
<polygon fill="#bfbfbf" stroke="#000000" points="0,-30 0,-49 102,-49 102,-30 0,-30"/>
<text text-anchor="middle" x="51" y="-37" font-family="Helvetica,sans-Serif" font-size="10.00" fill="#000000">l4_sched_cpu_set</text>
</g>
<!-- Node1 -->
<g id="node2" class="node">
<title>Node1</title>
<g id="a_node2"><a xlink:href="structl4__sched__cpu__set__t.html#a8e4373ef5c99b90c1d305975cd694895" target="_top" xlink:title="l4_sched_cpu_set_t\l::granularity">
<polygon fill="#ffffff" stroke="#000000" points="138,-49.5 138,-79.5 249,-79.5 249,-49.5 138,-49.5"/>
<text text-anchor="start" x="146" y="-67.5" font-family="Helvetica,sans-Serif" font-size="10.00" fill="#000000">l4_sched_cpu_set_t</text>
<text text-anchor="middle" x="193.5" y="-56.5" font-family="Helvetica,sans-Serif" font-size="10.00" fill="#000000">::granularity</text>
</a>
</g>
</g>
<!-- Node0&#45;&gt;Node1 -->
<g id="edge1" class="edge">
<title>Node0&#45;&gt;Node1</title>
<path fill="none" stroke="#191970" d="M102.0433,-48.455C110.4237,-49.9252 119.2107,-51.4668 127.8856,-52.9887"/>
<polygon fill="#191970" stroke="#191970" points="127.5322,-56.4801 137.9866,-54.7608 128.7418,-49.5854 127.5322,-56.4801"/>
</g>
<!-- Node2 -->
<g id="node3" class="node">
<title>Node2</title>
<g id="a_node3"><a xlink:href="structl4__sched__cpu__set__t.html#a23f6f4962b55dc6b0d581c6c5ad4d8a2" target="_top" xlink:title="l4_sched_cpu_set_t\l::offset">
<polygon fill="#ffffff" stroke="#000000" points="138,-.5 138,-30.5 249,-30.5 249,-.5 138,-.5"/>
<text text-anchor="start" x="146" y="-18.5" font-family="Helvetica,sans-Serif" font-size="10.00" fill="#000000">l4_sched_cpu_set_t</text>
<text text-anchor="middle" x="193.5" y="-7.5" font-family="Helvetica,sans-Serif" font-size="10.00" fill="#000000">::offset</text>
</a>
</g>
</g>
<!-- Node0&#45;&gt;Node2 -->
<g id="edge2" class="edge">
<title>Node0&#45;&gt;Node2</title>
<path fill="none" stroke="#191970" d="M102.0433,-30.9032C110.4237,-29.4918 119.2107,-28.0119 127.8856,-26.5508"/>
<polygon fill="#191970" stroke="#191970" points="128.7068,-29.9619 137.9866,-24.8496 127.5441,-23.0591 128.7068,-29.9619"/>
</g>
</g>
</svg>
