<?xml version="1.0" encoding="UTF-8" standalone="no"?>
<!DOCTYPE svg PUBLIC "-//W3C//DTD SVG 1.1//EN"
 "http://www.w3.org/Graphics/SVG/1.1/DTD/svg11.dtd">
<!-- Generated by graphviz version 2.40.1 (20161225.0304)
 -->
<!-- Title: amd64 Virtual Registers (UTCB) Pages: 1 -->
<svg width="494pt" height="88pt"
 viewBox="0.00 0.00 494.00 88.00" xmlns="http://www.w3.org/2000/svg" xmlns:xlink="http://www.w3.org/1999/xlink">
<g id="graph0" class="graph" transform="scale(1 1) rotate(0) translate(4 84)">
<title>amd64 Virtual Registers (UTCB)</title>
<polygon fill="#ffffff" stroke="transparent" points="-4,4 -4,-84 490,-84 490,4 -4,4"/>
<!-- Node3 -->
<g id="node1" class="node">
<title>Node3</title>
<g id="a_node1"><a xlink:href="group__l4__utcb__api__x86.html" target="_top" xlink:title="x86 Virtual Registers\l (UTCB)">
<polygon fill="#ffffff" stroke="#000000" points="369,-49.5 369,-79.5 483,-79.5 483,-49.5 369,-49.5"/>
<text text-anchor="start" x="377" y="-67.5" font-family="Helvetica,sans-Serif" font-size="10.00" fill="#000000">x86 Virtual Registers</text>
<text text-anchor="middle" x="426" y="-56.5" font-family="Helvetica,sans-Serif" font-size="10.00" fill="#000000"> (UTCB)</text>
</a>
</g>
</g>
<!-- Node1 -->
<g id="node2" class="node">
<title>Node1</title>
<g id="a_node2"><a xlink:href="group__l4__utcb__api.html" target="_top" xlink:title="L4 Virtual Registers (UTCB). ">
<polygon fill="#ffffff" stroke="#000000" points="0,-24.5 0,-54.5 97,-54.5 97,-24.5 0,-24.5"/>
<text text-anchor="start" x="8" y="-42.5" font-family="Helvetica,sans-Serif" font-size="10.00" fill="#000000">Virtual Registers </text>
<text text-anchor="middle" x="48.5" y="-31.5" font-family="Helvetica,sans-Serif" font-size="10.00" fill="#000000">(UTCBs)</text>
</a>
</g>
</g>
<!-- Node0 -->
<g id="node3" class="node">
<title>Node0</title>
<polygon fill="#bfbfbf" stroke="#000000" points="134,-24.5 134,-54.5 263,-54.5 263,-24.5 134,-24.5"/>
<text text-anchor="start" x="142" y="-42.5" font-family="Helvetica,sans-Serif" font-size="10.00" fill="#000000">amd64 Virtual Registers</text>
<text text-anchor="middle" x="198.5" y="-31.5" font-family="Helvetica,sans-Serif" font-size="10.00" fill="#000000"> (UTCB)</text>
</g>
<!-- Node1&#45;&gt;Node0 -->
<g id="edge1" class="edge">
<title>Node1&#45;&gt;Node0</title>
<path fill="none" stroke="#000000" d="M107.2916,-39.5C116.0342,-39.5 125.0853,-39.5 133.9386,-39.5"/>
<polygon fill="#000000" stroke="#000000" points="107.2007,-36.0001 97.2007,-39.5 107.2007,-43.0001 107.2007,-36.0001"/>
</g>
<!-- Node0&#45;&gt;Node3 -->
<g id="edge3" class="edge">
<title>Node0&#45;&gt;Node3</title>
<path fill="none" stroke="#ffa500" stroke-dasharray="5,2" d="M263.0838,-46.5971C296.3192,-50.2494 336.4887,-54.6636 368.6243,-58.195"/>
<text text-anchor="middle" x="314.5" y="-58.5" font-family="Helvetica,sans-Serif" font-size="10.00" fill="#000000">l4_exc_regs_t</text>
</g>
<!-- Node2 -->
<g id="node4" class="node">
<title>Node2</title>
<g id="a_node4"><a xlink:href="group__l4__utcb__api__arm.html" target="_top" xlink:title="ARM Virtual Registers\l (UTCB)">
<polygon fill="#ffffff" stroke="#000000" points="366,-.5 366,-30.5 486,-30.5 486,-.5 366,-.5"/>
<text text-anchor="start" x="374" y="-18.5" font-family="Helvetica,sans-Serif" font-size="10.00" fill="#000000">ARM Virtual Registers</text>
<text text-anchor="middle" x="426" y="-7.5" font-family="Helvetica,sans-Serif" font-size="10.00" fill="#000000"> (UTCB)</text>
</a>
</g>
</g>
<!-- Node0&#45;&gt;Node2 -->
<g id="edge2" class="edge">
<title>Node0&#45;&gt;Node2</title>
<path fill="none" stroke="#ffa500" stroke-dasharray="5,2" d="M263.0838,-32.6868C295.3997,-29.2776 334.2712,-25.1769 365.9388,-21.8361"/>
<text text-anchor="middle" x="314.5" y="-33.5" font-family="Helvetica,sans-Serif" font-size="10.00" fill="#000000">l4_exc_regs_t</text>
</g>
</g>
</svg>
