<?xml version="1.0" encoding="UTF-8" standalone="no"?>
<!DOCTYPE svg PUBLIC "-//W3C//DTD SVG 1.1//EN"
 "http://www.w3.org/Graphics/SVG/1.1/DTD/svg11.dtd">
<!-- Generated by graphviz version 2.40.1 (20161225.0304)
 -->
<!-- Title: l4_timeout_get Pages: 1 -->
<svg width="253pt" height="66pt"
 viewBox="0.00 0.00 253.00 66.00" xmlns="http://www.w3.org/2000/svg" xmlns:xlink="http://www.w3.org/1999/xlink">
<g id="graph0" class="graph" transform="scale(1 1) rotate(0) translate(4 62)">
<title>l4_timeout_get</title>
<polygon fill="#ffffff" stroke="transparent" points="-4,4 -4,-62 249,-62 249,4 -4,4"/>
<!-- Node12 -->
<g id="node1" class="node">
<title>Node12</title>
<polygon fill="#bfbfbf" stroke="#000000" points="0,-19.5 0,-38.5 86,-38.5 86,-19.5 0,-19.5"/>
<text text-anchor="middle" x="43" y="-26.5" font-family="Helvetica,sans-Serif" font-size="10.00" fill="#000000">l4_timeout_get</text>
</g>
<!-- Node13 -->
<g id="node2" class="node">
<title>Node13</title>
<g id="a_node2"><a xlink:href="group__l4__timeout__api.html#ga798ef6a9ba1e7bad24a4c67ad0560fe3" target="_top" xlink:title="Return whether the given timeout is absolute or not. ">
<polygon fill="#ffffff" stroke="#000000" points="122,-38.5 122,-57.5 245,-57.5 245,-38.5 122,-38.5"/>
<text text-anchor="middle" x="183.5" y="-45.5" font-family="Helvetica,sans-Serif" font-size="10.00" fill="#000000">l4_timeout_is_absolute</text>
</a>
</g>
</g>
<!-- Node12&#45;&gt;Node13 -->
<g id="edge1" class="edge">
<title>Node12&#45;&gt;Node13</title>
<path fill="none" stroke="#191970" d="M86.3011,-34.8557C94.3564,-35.945 102.969,-37.1097 111.6147,-38.2789"/>
<polygon fill="#191970" stroke="#191970" points="111.3688,-41.7774 121.7477,-39.6492 112.3069,-34.8405 111.3688,-41.7774"/>
</g>
<!-- Node14 -->
<g id="node3" class="node">
<title>Node14</title>
<g id="a_node3"><a xlink:href="group__l4__timeout__api.html#ga714e1ab76379fbf3de89dbc2a72656e2" target="_top" xlink:title="Get clock value of out timeout. ">
<polygon fill="#ffffff" stroke="#000000" points="131.5,-.5 131.5,-19.5 235.5,-19.5 235.5,-.5 131.5,-.5"/>
<text text-anchor="middle" x="183.5" y="-7.5" font-family="Helvetica,sans-Serif" font-size="10.00" fill="#000000">l4_timeout_rel_get</text>
</a>
</g>
</g>
<!-- Node12&#45;&gt;Node14 -->
<g id="edge2" class="edge">
<title>Node12&#45;&gt;Node14</title>
<path fill="none" stroke="#191970" d="M86.3011,-23.1443C97.3391,-21.6517 109.4234,-20.0175 121.2053,-18.4242"/>
<polygon fill="#191970" stroke="#191970" points="122.0066,-21.8478 131.4474,-17.0391 121.0685,-14.9109 122.0066,-21.8478"/>
</g>
</g>
</svg>
