<?xml version="1.0" encoding="UTF-8" standalone="no"?>
<!DOCTYPE svg PUBLIC "-//W3C//DTD SVG 1.1//EN"
 "http://www.w3.org/Graphics/SVG/1.1/DTD/svg11.dtd">
<!-- Generated by graphviz version 2.40.1 (20161225.0304)
 -->
<!-- Title: l4util_splitlog2_size Pages: 1 -->
<svg width="209pt" height="66pt"
 viewBox="0.00 0.00 209.00 66.00" xmlns="http://www.w3.org/2000/svg" xmlns:xlink="http://www.w3.org/1999/xlink">
<g id="graph0" class="graph" transform="scale(1 1) rotate(0) translate(4 62)">
<title>l4util_splitlog2_size</title>
<polygon fill="#ffffff" stroke="transparent" points="-4,4 -4,-62 205,-62 205,4 -4,4"/>
<!-- Node27 -->
<g id="node1" class="node">
<title>Node27</title>
<polygon fill="#bfbfbf" stroke="#000000" points="0,-19.5 0,-38.5 107,-38.5 107,-19.5 0,-19.5"/>
<text text-anchor="middle" x="53.5" y="-26.5" font-family="Helvetica,sans-Serif" font-size="10.00" fill="#000000">l4util_splitlog2_size</text>
</g>
<!-- Node28 -->
<g id="node2" class="node">
<title>Node28</title>
<g id="a_node2"><a xlink:href="group__l4util__bitops.html#ga3906818d29569abd0c82fc7ec35687f7" target="_top" xlink:title="Bit scan forward. ">
<polygon fill="#ffffff" stroke="#000000" points="143.5,-38.5 143.5,-57.5 200.5,-57.5 200.5,-38.5 143.5,-38.5"/>
<text text-anchor="middle" x="172" y="-45.5" font-family="Helvetica,sans-Serif" font-size="10.00" fill="#000000">l4util_bsf</text>
</a>
</g>
</g>
<!-- Node27&#45;&gt;Node28 -->
<g id="edge1" class="edge">
<title>Node27&#45;&gt;Node28</title>
<path fill="none" stroke="#191970" d="M107.2025,-37.6105C116.0839,-39.0345 125.133,-40.4855 133.5421,-41.8338"/>
<polygon fill="#191970" stroke="#191970" points="132.9997,-45.2914 143.4278,-43.4188 134.108,-38.3797 132.9997,-45.2914"/>
</g>
<!-- Node29 -->
<g id="node3" class="node">
<title>Node29</title>
<g id="a_node3"><a xlink:href="group__l4util__bitops.html#ga530be11fa91000db4c4539558e115bd2" target="_top" xlink:title="Bit scan reverse. ">
<polygon fill="#ffffff" stroke="#000000" points="143,-.5 143,-19.5 201,-19.5 201,-.5 143,-.5"/>
<text text-anchor="middle" x="172" y="-7.5" font-family="Helvetica,sans-Serif" font-size="10.00" fill="#000000">l4util_bsr</text>
</a>
</g>
</g>
<!-- Node27&#45;&gt;Node29 -->
<g id="edge2" class="edge">
<title>Node27&#45;&gt;Node29</title>
<path fill="none" stroke="#191970" d="M107.2025,-20.3895C115.8141,-19.0087 124.5833,-17.6027 132.7739,-16.2894"/>
<polygon fill="#191970" stroke="#191970" points="133.4641,-19.7235 142.7839,-14.6844 132.3559,-12.8118 133.4641,-19.7235"/>
</g>
</g>
</svg>
