<?xml version="1.0" encoding="UTF-8" standalone="no"?>
<!DOCTYPE svg PUBLIC "-//W3C//DTD SVG 1.1//EN"
 "http://www.w3.org/Graphics/SVG/1.1/DTD/svg11.dtd">
<!-- Generated by graphviz version 2.40.1 (20161225.0304)
 -->
<!-- Title: Kernel Interface Page Pages: 1 -->
<svg width="396pt" height="78pt"
 viewBox="0.00 0.00 396.00 77.50" xmlns="http://www.w3.org/2000/svg" xmlns:xlink="http://www.w3.org/1999/xlink">
<g id="graph0" class="graph" transform="scale(1 1) rotate(0) translate(4 73.5)">
<title>Kernel Interface Page</title>
<polygon fill="#ffffff" stroke="transparent" points="-4,4 -4,-73.5 392,-73.5 392,4 -4,4"/>
<!-- Node2 -->
<g id="node1" class="node">
<title>Node2</title>
<g id="a_node1"><a xlink:href="group__l4__kip__memdesc__api.html" target="_top" xlink:title="C Interface for KIP memory descriptors. ">
<polygon fill="#ffffff" stroke="#000000" points="265,-39 265,-69 375,-69 375,-39 265,-39"/>
<text text-anchor="start" x="273" y="-57" font-family="Helvetica,sans-Serif" font-size="10.00" fill="#000000">Memory descriptors</text>
<text text-anchor="middle" x="320" y="-46" font-family="Helvetica,sans-Serif" font-size="10.00" fill="#000000"> (C version)</text>
</a>
</g>
</g>
<!-- Node0 -->
<g id="node2" class="node">
<title>Node0</title>
<polygon fill="#bfbfbf" stroke="#000000" points="96,-22.5 96,-41.5 216,-41.5 216,-22.5 96,-22.5"/>
<text text-anchor="middle" x="156" y="-29.5" font-family="Helvetica,sans-Serif" font-size="10.00" fill="#000000">Kernel Interface Page</text>
</g>
<!-- Node0&#45;&gt;Node2 -->
<g id="edge2" class="edge">
<title>Node0&#45;&gt;Node2</title>
<path fill="none" stroke="#000000" d="M226.3354,-41.4352C239.1881,-43.1594 252.4311,-44.9359 264.7664,-46.5906"/>
<polygon fill="#000000" stroke="#000000" points="226.5129,-37.9278 216.1363,-40.0671 225.5822,-44.8656 226.5129,-37.9278"/>
</g>
<!-- Node3 -->
<g id="node3" class="node">
<title>Node3</title>
<g id="a_node3"><a xlink:href="group__l4__kip__vhw__api.html" target="_top" xlink:title="Virtual hardware devices, provided by Fiasco&#45;UX. ">
<polygon fill="#ffffff" stroke="#000000" points="252,-.5 252,-19.5 388,-19.5 388,-.5 252,-.5"/>
<text text-anchor="middle" x="320" y="-7.5" font-family="Helvetica,sans-Serif" font-size="10.00" fill="#000000">Fiasco&#45;UX Virtual devices</text>
</a>
</g>
</g>
<!-- Node0&#45;&gt;Node3 -->
<g id="edge3" class="edge">
<title>Node0&#45;&gt;Node3</title>
<path fill="none" stroke="#000000" d="M226.0591,-22.6018C234.6004,-21.4561 243.3183,-20.2866 251.8314,-19.1446"/>
<polygon fill="#000000" stroke="#000000" points="225.5822,-19.1344 216.1363,-23.9329 226.5129,-26.0722 225.5822,-19.1344"/>
</g>
<!-- Node1 -->
<g id="node4" class="node">
<title>Node1</title>
<g id="a_node4"><a xlink:href="group__l4__api.html" target="_top" xlink:title="Interfaces for all kinds of base functionality. ">
<polygon fill="#ffffff" stroke="#000000" points="0,-22.5 0,-41.5 60,-41.5 60,-22.5 0,-22.5"/>
<text text-anchor="middle" x="30" y="-29.5" font-family="Helvetica,sans-Serif" font-size="10.00" fill="#000000">Base API</text>
</a>
</g>
</g>
<!-- Node1&#45;&gt;Node0 -->
<g id="edge1" class="edge">
<title>Node1&#45;&gt;Node0</title>
<path fill="none" stroke="#000000" d="M70.1961,-32C78.3948,-32 87.1891,-32 95.9089,-32"/>
<polygon fill="#000000" stroke="#000000" points="70.1802,-28.5001 60.1801,-32 70.1801,-35.5001 70.1802,-28.5001"/>
</g>
</g>
</svg>
