<?xml version="1.0" encoding="UTF-8" standalone="no"?>
<!DOCTYPE svg PUBLIC "-//W3C//DTD SVG 1.1//EN"
 "http://www.w3.org/Graphics/SVG/1.1/DTD/svg11.dtd">
<!-- Generated by graphviz version 2.40.1 (20161225.0304)
 -->
<!-- Title: C++ IPC Interface Definition. Pages: 1 -->
<svg width="384pt" height="28pt"
 viewBox="0.00 0.00 384.00 28.00" xmlns="http://www.w3.org/2000/svg" xmlns:xlink="http://www.w3.org/1999/xlink">
<g id="graph0" class="graph" transform="scale(1 1) rotate(0) translate(4 24)">
<title>C++ IPC Interface Definition.</title>
<polygon fill="#ffffff" stroke="transparent" points="-4,4 -4,-24 380,-24 380,4 -4,4"/>
<!-- Node2 -->
<g id="node1" class="node">
<title>Node2</title>
<g id="a_node1"><a xlink:href="group__l4__cxx__ipc__internal.html" target="_top" xlink:title="Internal Helpers">
<polygon fill="#ffffff" stroke="#000000" points="284,-.5 284,-19.5 376,-19.5 376,-.5 284,-.5"/>
<text text-anchor="middle" x="330" y="-7.5" font-family="Helvetica,sans-Serif" font-size="10.00" fill="#000000">Internal Helpers</text>
</a>
</g>
</g>
<!-- Node0 -->
<g id="node2" class="node">
<title>Node0</title>
<polygon fill="#bfbfbf" stroke="#000000" points="96,-.5 96,-19.5 248,-19.5 248,-.5 96,-.5"/>
<text text-anchor="middle" x="172" y="-7.5" font-family="Helvetica,sans-Serif" font-size="10.00" fill="#000000">C++ IPC Interface Definition.</text>
</g>
<!-- Node0&#45;&gt;Node2 -->
<g id="edge2" class="edge">
<title>Node0&#45;&gt;Node2</title>
<path fill="none" stroke="#000000" d="M258.4721,-10C267.1768,-10 275.7594,-10 283.792,-10"/>
<polygon fill="#000000" stroke="#000000" points="258.2232,-6.5001 248.2232,-10 258.2231,-13.5001 258.2232,-6.5001"/>
</g>
<!-- Node1 -->
<g id="node3" class="node">
<title>Node1</title>
<g id="a_node3"><a xlink:href="group__l4__api.html" target="_top" xlink:title="Interfaces for all kinds of base functionality. ">
<polygon fill="#ffffff" stroke="#000000" points="0,-.5 0,-19.5 60,-19.5 60,-.5 0,-.5"/>
<text text-anchor="middle" x="30" y="-7.5" font-family="Helvetica,sans-Serif" font-size="10.00" fill="#000000">Base API</text>
</a>
</g>
</g>
<!-- Node1&#45;&gt;Node0 -->
<g id="edge1" class="edge">
<title>Node1&#45;&gt;Node0</title>
<path fill="none" stroke="#000000" d="M70.2549,-10C78.2885,-10 86.9729,-10 95.765,-10"/>
<polygon fill="#000000" stroke="#000000" points="70.1146,-6.5001 60.1145,-10 70.1145,-13.5001 70.1146,-6.5001"/>
</g>
</g>
</svg>
