<?xml version="1.0" encoding="UTF-8" standalone="no"?>
<!DOCTYPE svg PUBLIC "-//W3C//DTD SVG 1.1//EN"
 "http://www.w3.org/Graphics/SVG/1.1/DTD/svg11.dtd">
<!-- Generated by graphviz version 2.40.1 (20161225.0304)
 -->
<!-- Title: Object Invocation Pages: 1 -->
<svg width="335pt" height="230pt"
 viewBox="0.00 0.00 335.00 230.00" xmlns="http://www.w3.org/2000/svg" xmlns:xlink="http://www.w3.org/1999/xlink">
<g id="graph0" class="graph" transform="scale(1 1) rotate(0) translate(4 226)">
<title>Object Invocation</title>
<polygon fill="#ffffff" stroke="transparent" points="-4,4 -4,-226 331,-226 331,4 -4,4"/>
<!-- Node5 -->
<g id="node1" class="node">
<title>Node5</title>
<g id="a_node1"><a xlink:href="group__l4__ipc__rt__api.html" target="_top" xlink:title="Realtime API">
<polygon fill="#ffffff" stroke="#000000" points="240,-202.5 240,-221.5 317,-221.5 317,-202.5 240,-202.5"/>
<text text-anchor="middle" x="278.5" y="-209.5" font-family="Helvetica,sans-Serif" font-size="10.00" fill="#000000">Realtime API</text>
</a>
</g>
</g>
<!-- Node7 -->
<g id="node2" class="node">
<title>Node7</title>
<g id="a_node2"><a xlink:href="group__l4__utcb__api.html" target="_top" xlink:title="L4 Virtual Registers (UTCB). ">
<polygon fill="#ffffff" stroke="#000000" points="230,-153 230,-183 327,-183 327,-153 230,-153"/>
<text text-anchor="start" x="238" y="-171" font-family="Helvetica,sans-Serif" font-size="10.00" fill="#000000">Virtual Registers </text>
<text text-anchor="middle" x="278.5" y="-160" font-family="Helvetica,sans-Serif" font-size="10.00" fill="#000000">(UTCBs)</text>
</a>
</g>
</g>
<!-- Node4 -->
<g id="node3" class="node">
<title>Node4</title>
<g id="a_node3"><a xlink:href="group__l4__ipc__err__api.html" target="_top" xlink:title="Error handling for L4 object invocation. ">
<polygon fill="#ffffff" stroke="#000000" points="235.5,-114.5 235.5,-133.5 321.5,-133.5 321.5,-114.5 235.5,-114.5"/>
<text text-anchor="middle" x="278.5" y="-121.5" font-family="Helvetica,sans-Serif" font-size="10.00" fill="#000000">Error Handling</text>
</a>
</g>
</g>
<!-- Node3 -->
<g id="node4" class="node">
<title>Node3</title>
<g id="a_node4"><a xlink:href="group__l4__timeout__api.html" target="_top" xlink:title="All kinds of timeouts and time related functions. ">
<polygon fill="#ffffff" stroke="#000000" points="249,-76.5 249,-95.5 308,-95.5 308,-76.5 249,-76.5"/>
<text text-anchor="middle" x="278.5" y="-83.5" font-family="Helvetica,sans-Serif" font-size="10.00" fill="#000000">Timeouts</text>
</a>
</g>
</g>
<!-- Node2 -->
<g id="node5" class="node">
<title>Node2</title>
<g id="a_node5"><a xlink:href="group__l4__msgitem__api.html" target="_top" xlink:title="Message item related functions. ">
<polygon fill="#ffffff" stroke="#000000" points="234,-38.5 234,-57.5 323,-57.5 323,-38.5 234,-38.5"/>
<text text-anchor="middle" x="278.5" y="-45.5" font-family="Helvetica,sans-Serif" font-size="10.00" fill="#000000">Message Items</text>
</a>
</g>
</g>
<!-- Node1 -->
<g id="node6" class="node">
<title>Node1</title>
<g id="a_node6"><a xlink:href="group__l4__api.html" target="_top" xlink:title="Interfaces for all kinds of base functionality. ">
<polygon fill="#ffffff" stroke="#000000" points="0,-95.5 0,-114.5 60,-114.5 60,-95.5 0,-95.5"/>
<text text-anchor="middle" x="30" y="-102.5" font-family="Helvetica,sans-Serif" font-size="10.00" fill="#000000">Base API</text>
</a>
</g>
</g>
<!-- Node0 -->
<g id="node7" class="node">
<title>Node0</title>
<polygon fill="#bfbfbf" stroke="#000000" points="96,-95.5 96,-114.5 194,-114.5 194,-95.5 96,-95.5"/>
<text text-anchor="middle" x="145" y="-102.5" font-family="Helvetica,sans-Serif" font-size="10.00" fill="#000000">Object Invocation</text>
</g>
<!-- Node1&#45;&gt;Node0 -->
<g id="edge1" class="edge">
<title>Node1&#45;&gt;Node0</title>
<path fill="none" stroke="#000000" d="M70.3285,-105C78.5779,-105 87.3465,-105 95.8648,-105"/>
<polygon fill="#000000" stroke="#000000" points="70.2149,-101.5001 60.2149,-105 70.2149,-108.5001 70.2149,-101.5001"/>
</g>
<!-- Node0&#45;&gt;Node5 -->
<g id="edge5" class="edge">
<title>Node0&#45;&gt;Node5</title>
<path fill="none" stroke="#000000" d="M158.1137,-122.5531C173.4695,-142.0572 200.5746,-173.3808 230,-193 235.5679,-196.7123 241.9693,-199.8661 248.2572,-202.4739"/>
<polygon fill="#000000" stroke="#000000" points="160.7931,-120.296 151.919,-114.508 155.2468,-124.5667 160.7931,-120.296"/>
</g>
<!-- Node0&#45;&gt;Node7 -->
<g id="edge7" class="edge">
<title>Node0&#45;&gt;Node7</title>
<path fill="none" stroke="#000000" d="M174.5081,-118.9252C195.8597,-129.0012 224.688,-142.6056 246.5765,-152.935"/>
<polygon fill="#000000" stroke="#000000" points="175.8131,-115.6709 165.2758,-114.5683 172.8256,-122.0014 175.8131,-115.6709"/>
</g>
<!-- Node0&#45;&gt;Node4 -->
<g id="edge4" class="edge">
<title>Node0&#45;&gt;Node4</title>
<path fill="none" stroke="#000000" d="M204.5095,-113.4695C214.8022,-114.9344 225.3272,-116.4323 235.0901,-117.8218"/>
<polygon fill="#000000" stroke="#000000" points="204.7246,-109.9649 194.3312,-112.0209 203.7382,-116.8951 204.7246,-109.9649"/>
</g>
<!-- Node0&#45;&gt;Node3 -->
<g id="edge3" class="edge">
<title>Node0&#45;&gt;Node3</title>
<path fill="none" stroke="#000000" d="M204.3273,-96.5564C219.7085,-94.3673 235.622,-92.1025 248.7464,-90.2346"/>
<polygon fill="#000000" stroke="#000000" points="203.7382,-93.1049 194.3312,-97.9791 204.7246,-100.0351 203.7382,-93.1049"/>
</g>
<!-- Node0&#45;&gt;Node2 -->
<g id="edge2" class="edge">
<title>Node0&#45;&gt;Node2</title>
<path fill="none" stroke="#000000" d="M175.3138,-91.0321C191.4693,-83.6936 211.7284,-74.6582 230,-67 237.5062,-63.8539 245.7291,-60.5716 253.2369,-57.6376"/>
<polygon fill="#000000" stroke="#000000" points="173.4846,-88.0195 165.8395,-95.3545 176.3901,-94.388 173.4846,-88.0195"/>
</g>
<!-- Node6 -->
<g id="node8" class="node">
<title>Node6</title>
<g id="a_node8"><a xlink:href="group__l4__msgtag__api.html" target="_top" xlink:title="API related to the message tag data type. ">
<polygon fill="#ffffff" stroke="#000000" points="237.5,-.5 237.5,-19.5 319.5,-19.5 319.5,-.5 237.5,-.5"/>
<text text-anchor="middle" x="278.5" y="-7.5" font-family="Helvetica,sans-Serif" font-size="10.00" fill="#000000">Message Tag</text>
</a>
</g>
</g>
<!-- Node0&#45;&gt;Node6 -->
<g id="edge6" class="edge">
<title>Node0&#45;&gt;Node6</title>
<path fill="none" stroke="#000000" d="M160.5604,-87.9046C176.6154,-71.0835 203.0488,-45.5783 230,-29 235.931,-25.3517 242.6819,-22.1791 249.2229,-19.5262"/>
<polygon fill="#000000" stroke="#000000" points="157.8346,-85.6951 153.5558,-95.3875 162.945,-90.4788 157.8346,-85.6951"/>
</g>
</g>
</svg>
