<?xml version="1.0" encoding="UTF-8" standalone="no"?>
<!DOCTYPE svg PUBLIC "-//W3C//DTD SVG 1.1//EN"
 "http://www.w3.org/Graphics/SVG/1.1/DTD/svg11.dtd">
<!-- Generated by graphviz version 2.40.1 (20161225.0304)
 -->
<!-- Title: l4_thread_vcpu_control_u Pages: 1 -->
<svg width="315pt" height="66pt"
 viewBox="0.00 0.00 315.00 66.00" xmlns="http://www.w3.org/2000/svg" xmlns:xlink="http://www.w3.org/1999/xlink">
<g id="graph0" class="graph" transform="scale(1 1) rotate(0) translate(4 62)">
<title>l4_thread_vcpu_control_u</title>
<polygon fill="#ffffff" stroke="transparent" points="-4,4 -4,-62 311,-62 311,4 -4,4"/>
<!-- Node43 -->
<g id="node1" class="node">
<title>Node43</title>
<polygon fill="#bfbfbf" stroke="#000000" points="0,-19.5 0,-38.5 139,-38.5 139,-19.5 0,-19.5"/>
<text text-anchor="middle" x="69.5" y="-26.5" font-family="Helvetica,sans-Serif" font-size="10.00" fill="#000000">l4_thread_vcpu_control_u</text>
</g>
<!-- Node44 -->
<g id="node2" class="node">
<title>Node44</title>
<g id="a_node2"><a xlink:href="group__l4__thread__api.html#gac3263f4949c90adda83dba763b195988" target="_top" xlink:title="Enable or disable the vCPU feature for the thread. ">
<polygon fill="#ffffff" stroke="#000000" points="177,-38.5 177,-57.5 305,-57.5 305,-38.5 177,-38.5"/>
<text text-anchor="middle" x="241" y="-45.5" font-family="Helvetica,sans-Serif" font-size="10.00" fill="#000000">l4_thread_vcpu_control</text>
</a>
</g>
</g>
<!-- Node43&#45;&gt;Node44 -->
<g id="edge1" class="edge">
<title>Node43&#45;&gt;Node44</title>
<path fill="none" stroke="#191970" d="M149.2359,-37.8337C158.4862,-38.8585 167.8304,-39.8937 176.8348,-40.8913"/>
<polygon fill="#191970" stroke="#191970" points="149.5802,-34.3505 139.2556,-36.728 148.8094,-41.308 149.5802,-34.3505"/>
</g>
<!-- Node45 -->
<g id="node3" class="node">
<title>Node45</title>
<g id="a_node3"><a xlink:href="classL4_1_1Thread.html#a94a6d8a5a7a78fa99ef3c6358e0a0459" target="_top" xlink:title="Enable or disable the vCPU feature for the thread. ">
<polygon fill="#ffffff" stroke="#000000" points="175,-.5 175,-19.5 307,-19.5 307,-.5 175,-.5"/>
<text text-anchor="middle" x="241" y="-7.5" font-family="Helvetica,sans-Serif" font-size="10.00" fill="#000000">L4::Thread::vcpu_control</text>
</a>
</g>
</g>
<!-- Node43&#45;&gt;Node45 -->
<g id="edge2" class="edge">
<title>Node43&#45;&gt;Node45</title>
<path fill="none" stroke="#191970" d="M149.2711,-20.1624C157.8519,-19.2117 166.513,-18.2522 174.9083,-17.3221"/>
<polygon fill="#191970" stroke="#191970" points="148.8094,-16.692 139.2556,-21.272 149.5802,-23.6495 148.8094,-16.692"/>
</g>
</g>
</svg>
