<?xml version="1.0" encoding="UTF-8" standalone="no"?>
<!DOCTYPE svg PUBLIC "-//W3C//DTD SVG 1.1//EN"
 "http://www.w3.org/Graphics/SVG/1.1/DTD/svg11.dtd">
<!-- Generated by graphviz version 2.40.1 (20161225.0304)
 -->
<!-- Title: l4_round_page Pages: 1 -->
<svg width="667pt" height="132pt"
 viewBox="0.00 0.00 667.00 131.50" xmlns="http://www.w3.org/2000/svg" xmlns:xlink="http://www.w3.org/1999/xlink">
<g id="graph0" class="graph" transform="scale(1 1) rotate(0) translate(4 127.5)">
<title>l4_round_page</title>
<polygon fill="#ffffff" stroke="transparent" points="-4,4 -4,-127.5 663,-127.5 663,4 -4,4"/>
<!-- Node18 -->
<g id="node1" class="node">
<title>Node18</title>
<polygon fill="#bfbfbf" stroke="#000000" points="0,-79.5 0,-98.5 88,-98.5 88,-79.5 0,-79.5"/>
<text text-anchor="middle" x="44" y="-86.5" font-family="Helvetica,sans-Serif" font-size="10.00" fill="#000000">l4_round_page</text>
</g>
<!-- Node19 -->
<g id="node2" class="node">
<title>Node19</title>
<g id="a_node2"><a xlink:href="classL4Re_1_1Rm.html#a81c3edf15190139911ab69211c0a4bc4" target="_top" xlink:title="Attach a data space to a region. ">
<polygon fill="#ffffff" stroke="#000000" points="124,-98.5 124,-117.5 220,-117.5 220,-98.5 124,-98.5"/>
<text text-anchor="middle" x="172" y="-105.5" font-family="Helvetica,sans-Serif" font-size="10.00" fill="#000000">L4Re::Rm::attach</text>
</a>
</g>
</g>
<!-- Node18&#45;&gt;Node19 -->
<g id="edge1" class="edge">
<title>Node18&#45;&gt;Node19</title>
<path fill="none" stroke="#191970" d="M98.0038,-97.0162C106.6124,-98.294 115.4683,-99.6086 123.9278,-100.8643"/>
<polygon fill="#191970" stroke="#191970" points="98.4559,-93.545 88.0503,-95.5387 97.428,-100.4692 98.4559,-93.545"/>
</g>
<!-- Node20 -->
<g id="node3" class="node">
<title>Node20</title>
<g id="a_node3"><a xlink:href="group__l4__memory__api.html#ga792959ba1e87fecf90018876f32d7bc9" target="_top" xlink:title="Round an address down to the next lower flex page with size bits. ">
<polygon fill="#ffffff" stroke="#000000" points="132.5,-60.5 132.5,-79.5 211.5,-79.5 211.5,-60.5 132.5,-60.5"/>
<text text-anchor="middle" x="172" y="-67.5" font-family="Helvetica,sans-Serif" font-size="10.00" fill="#000000">l4_trunc_size</text>
</a>
</g>
</g>
<!-- Node18&#45;&gt;Node20 -->
<g id="edge2" class="edge">
<title>Node18&#45;&gt;Node20</title>
<path fill="none" stroke="#191970" d="M97.9722,-80.9885C109.4351,-79.287 121.338,-77.5201 132.1606,-75.9137"/>
<polygon fill="#191970" stroke="#191970" points="97.428,-77.5308 88.0503,-82.4613 98.4559,-84.455 97.428,-77.5308"/>
</g>
<!-- Node21 -->
<g id="node4" class="node">
<title>Node21</title>
<g id="a_node4"><a xlink:href="classcxx_1_1List__alloc.html#a1b8a24564b209e28166253c4e338f7ba" target="_top" xlink:title="Allocate a memory block of min &lt;= size &lt;= max. ">
<polygon fill="#ffffff" stroke="#000000" points="256,-98.5 256,-117.5 389,-117.5 389,-98.5 256,-98.5"/>
<text text-anchor="middle" x="322.5" y="-105.5" font-family="Helvetica,sans-Serif" font-size="10.00" fill="#000000">cxx::List_alloc::alloc_max</text>
</a>
</g>
</g>
<!-- Node20&#45;&gt;Node21 -->
<g id="edge3" class="edge">
<title>Node20&#45;&gt;Node21</title>
<path fill="none" stroke="#191970" d="M219.6847,-82.04C240.7103,-87.3488 265.0674,-93.4988 284.7956,-98.4799"/>
<polygon fill="#191970" stroke="#191970" points="220.5301,-78.6437 209.9775,-79.589 218.8164,-85.4307 220.5301,-78.6437"/>
</g>
<!-- Node23 -->
<g id="node6" class="node">
<title>Node23</title>
<g id="a_node6"><a xlink:href="group__l4__fpage__api.html#ga960465b596caf60adc6c5042e9257f0a" target="_top" xlink:title="Determine maximum flex page size of a region. ">
<polygon fill="#ffffff" stroke="#000000" points="265,-60.5 265,-79.5 380,-79.5 380,-60.5 265,-60.5"/>
<text text-anchor="middle" x="322.5" y="-67.5" font-family="Helvetica,sans-Serif" font-size="10.00" fill="#000000">l4_fpage_max_order</text>
</a>
</g>
</g>
<!-- Node20&#45;&gt;Node23 -->
<g id="edge5" class="edge">
<title>Node20&#45;&gt;Node23</title>
<path fill="none" stroke="#191970" d="M221.79,-70C235.5671,-70 250.635,-70 264.8205,-70"/>
<polygon fill="#191970" stroke="#191970" points="221.5421,-66.5001 211.5421,-70 221.5421,-73.5001 221.5421,-66.5001"/>
</g>
<!-- Node24 -->
<g id="node7" class="node">
<title>Node24</title>
<g id="a_node7"><a xlink:href="group__l4__memory__api.html#ga70b72ae96c18cb49a3445198711bba0d" target="_top" xlink:title="Round an address down to the next lower page boundary. ">
<polygon fill="#ffffff" stroke="#000000" points="280.5,-22.5 280.5,-41.5 364.5,-41.5 364.5,-22.5 280.5,-22.5"/>
<text text-anchor="middle" x="322.5" y="-29.5" font-family="Helvetica,sans-Serif" font-size="10.00" fill="#000000">l4_trunc_page</text>
</a>
</g>
</g>
<!-- Node20&#45;&gt;Node24 -->
<g id="edge6" class="edge">
<title>Node20&#45;&gt;Node24</title>
<path fill="none" stroke="#191970" d="M219.6847,-57.96C240.7103,-52.6512 265.0674,-46.5012 284.7956,-41.5201"/>
<polygon fill="#191970" stroke="#191970" points="218.8164,-54.5693 209.9775,-60.411 220.5301,-61.3563 218.8164,-54.5693"/>
</g>
<!-- Node22 -->
<g id="node5" class="node">
<title>Node22</title>
<g id="a_node5"><a xlink:href="classcxx_1_1List__alloc.html#a1fdfc49fafa608f60c191916629b61a4" target="_top" xlink:title="Initializes an empty list allocator. ">
<polygon fill="#ffffff" stroke="#000000" points="425,-93 425,-123 527,-123 527,-93 425,-93"/>
<text text-anchor="start" x="433" y="-111" font-family="Helvetica,sans-Serif" font-size="10.00" fill="#000000">cxx::List_alloc::List</text>
<text text-anchor="middle" x="476" y="-100" font-family="Helvetica,sans-Serif" font-size="10.00" fill="#000000">_alloc</text>
</a>
</g>
</g>
<!-- Node21&#45;&gt;Node22 -->
<g id="edge4" class="edge">
<title>Node21&#45;&gt;Node22</title>
<path fill="none" stroke="#191970" d="M399.383,-108C407.924,-108 416.4629,-108 424.5765,-108"/>
<polygon fill="#191970" stroke="#191970" points="399.3808,-104.5001 389.3808,-108 399.3808,-111.5001 399.3808,-104.5001"/>
</g>
<!-- Node25 -->
<g id="node8" class="node">
<title>Node25</title>
<g id="a_node8"><a xlink:href="group__l4util__api.html#gac1e88025beb28c8f090592bf2f046080" target="_top" xlink:title="Touch data area to force mapping (read&#45;only) ">
<polygon fill="#ffffff" stroke="#000000" points="440,-38.5 440,-57.5 512,-57.5 512,-38.5 440,-38.5"/>
<text text-anchor="middle" x="476" y="-45.5" font-family="Helvetica,sans-Serif" font-size="10.00" fill="#000000">l4_touch_ro</text>
</a>
</g>
</g>
<!-- Node24&#45;&gt;Node25 -->
<g id="edge7" class="edge">
<title>Node24&#45;&gt;Node25</title>
<path fill="none" stroke="#191970" d="M375.0609,-37.4787C396.3806,-39.7009 420.4739,-42.2123 439.7738,-44.224"/>
<polygon fill="#191970" stroke="#191970" points="375.1599,-33.9701 364.8509,-36.4144 374.4341,-40.9324 375.1599,-33.9701"/>
</g>
<!-- Node27 -->
<g id="node10" class="node">
<title>Node27</title>
<g id="a_node10"><a xlink:href="group__l4util__api.html#ga8e840257faffbb57a49003cfb7d41594" target="_top" xlink:title="Touch data areas to force mapping (read&#45;write) ">
<polygon fill="#ffffff" stroke="#000000" points="439,-.5 439,-19.5 513,-19.5 513,-.5 439,-.5"/>
<text text-anchor="middle" x="476" y="-7.5" font-family="Helvetica,sans-Serif" font-size="10.00" fill="#000000">l4_touch_rw</text>
</a>
</g>
</g>
<!-- Node24&#45;&gt;Node27 -->
<g id="edge9" class="edge">
<title>Node24&#45;&gt;Node27</title>
<path fill="none" stroke="#191970" d="M374.903,-24.4895C395.8873,-21.482 419.5803,-18.0862 438.7524,-15.3384"/>
<polygon fill="#191970" stroke="#191970" points="374.2532,-21.0468 364.8509,-25.9302 375.2463,-27.976 374.2532,-21.0468"/>
</g>
<!-- Node26 -->
<g id="node9" class="node">
<title>Node26</title>
<g id="a_node9"><a xlink:href="group__l4util__api.html#ga3a74b4dee439a339ed5a6368845cad37" target="_top" xlink:title="Go sleep and never wake up. ">
<polygon fill="#ffffff" stroke="#000000" points="563,-19.5 563,-38.5 659,-38.5 659,-19.5 563,-19.5"/>
<text text-anchor="middle" x="611" y="-26.5" font-family="Helvetica,sans-Serif" font-size="10.00" fill="#000000">l4_sleep_forever</text>
</a>
</g>
</g>
<!-- Node25&#45;&gt;Node26 -->
<g id="edge8" class="edge">
<title>Node25&#45;&gt;Node26</title>
<path fill="none" stroke="#191970" d="M522.3502,-41.4766C535.4017,-39.6398 549.6267,-37.6377 562.7846,-35.7859"/>
<polygon fill="#191970" stroke="#191970" points="521.5921,-38.0487 512.1775,-42.9083 522.5677,-44.9804 521.5921,-38.0487"/>
</g>
<!-- Node27&#45;&gt;Node26 -->
<g id="edge10" class="edge">
<title>Node27&#45;&gt;Node26</title>
<path fill="none" stroke="#191970" d="M523.2358,-16.648C536.0271,-18.4483 549.8884,-20.3991 562.7355,-22.2072"/>
<polygon fill="#191970" stroke="#191970" points="523.6369,-13.17 513.2467,-15.2421 522.6613,-20.1017 523.6369,-13.17"/>
</g>
</g>
</svg>
