<?xml version="1.0" encoding="UTF-8" standalone="no"?>
<!DOCTYPE svg PUBLIC "-//W3C//DTD SVG 1.1//EN"
 "http://www.w3.org/Graphics/SVG/1.1/DTD/svg11.dtd">
<!-- Generated by graphviz version 2.40.1 (20161225.0304)
 -->
<!-- Title: l4vbus_release_ioport Pages: 1 -->
<svg width="280pt" height="88pt"
 viewBox="0.00 0.00 280.00 88.00" xmlns="http://www.w3.org/2000/svg" xmlns:xlink="http://www.w3.org/1999/xlink">
<g id="graph0" class="graph" transform="scale(1 1) rotate(0) translate(4 84)">
<title>l4vbus_release_ioport</title>
<polygon fill="#ffffff" stroke="transparent" points="-4,4 -4,-84 276,-84 276,4 -4,4"/>
<!-- Node19 -->
<g id="node1" class="node">
<title>Node19</title>
<polygon fill="#bfbfbf" stroke="#000000" points="0,-30 0,-49 120,-49 120,-30 0,-30"/>
<text text-anchor="middle" x="60" y="-37" font-family="Helvetica,sans-Serif" font-size="10.00" fill="#000000">l4vbus_release_ioport</text>
</g>
<!-- Node20 -->
<g id="node2" class="node">
<title>Node20</title>
<g id="a_node2"><a xlink:href="classL4vbus_1_1Vbus.html#aa7a0641bf41be1fee81d4d6a871d5ef9" target="_top" xlink:title="Release the given IO port resource from the bus. ">
<polygon fill="#ffffff" stroke="#000000" points="156,-49.5 156,-79.5 272,-79.5 272,-49.5 156,-49.5"/>
<text text-anchor="start" x="164" y="-67.5" font-family="Helvetica,sans-Serif" font-size="10.00" fill="#000000">L4vbus::Vbus::release</text>
<text text-anchor="middle" x="214" y="-56.5" font-family="Helvetica,sans-Serif" font-size="10.00" fill="#000000">_ioport</text>
</a>
</g>
</g>
<!-- Node19&#45;&gt;Node20 -->
<g id="edge1" class="edge">
<title>Node19&#45;&gt;Node20</title>
<path fill="none" stroke="#191970" d="M128.7495,-50.6606C137.767,-52.1245 146.9372,-53.6132 155.7578,-55.0451"/>
<polygon fill="#191970" stroke="#191970" points="129.0918,-47.1705 118.6601,-49.0227 127.97,-54.08 129.0918,-47.1705"/>
</g>
<!-- Node21 -->
<g id="node3" class="node">
<title>Node21</title>
<g id="a_node3"><a xlink:href="classL4vbus_1_1Vbus.html#af4047b9cc293b2c78f324a29ec0d3ce1" target="_top" xlink:title="Release the given resource from the bus. ">
<polygon fill="#ffffff" stroke="#000000" points="156,-.5 156,-30.5 272,-30.5 272,-.5 156,-.5"/>
<text text-anchor="start" x="164" y="-18.5" font-family="Helvetica,sans-Serif" font-size="10.00" fill="#000000">L4vbus::Vbus::release</text>
<text text-anchor="middle" x="214" y="-7.5" font-family="Helvetica,sans-Serif" font-size="10.00" fill="#000000">_resource</text>
</a>
</g>
</g>
<!-- Node19&#45;&gt;Node21 -->
<g id="edge2" class="edge">
<title>Node19&#45;&gt;Node21</title>
<path fill="none" stroke="#191970" d="M130.3351,-28.5387C138.843,-27.2128 147.4603,-25.8698 155.7672,-24.5752"/>
<polygon fill="#191970" stroke="#191970" points="129.7646,-25.0853 120.4229,-30.0834 130.8426,-32.0018 129.7646,-25.0853"/>
</g>
</g>
</svg>
