<?xml version="1.0" encoding="UTF-8" standalone="no"?>
<!DOCTYPE svg PUBLIC "-//W3C//DTD SVG 1.1//EN"
 "http://www.w3.org/Graphics/SVG/1.1/DTD/svg11.dtd">
<!-- Generated by graphviz version 2.40.1 (20161225.0304)
 -->
<!-- Title: l4re_ma_alloc_align_srv Pages: 1 -->
<svg width="286pt" height="66pt"
 viewBox="0.00 0.00 286.00 66.00" xmlns="http://www.w3.org/2000/svg" xmlns:xlink="http://www.w3.org/1999/xlink">
<g id="graph0" class="graph" transform="scale(1 1) rotate(0) translate(4 62)">
<title>l4re_ma_alloc_align_srv</title>
<polygon fill="#ffffff" stroke="transparent" points="-4,4 -4,-62 282,-62 282,4 -4,4"/>
<!-- Node7 -->
<g id="node1" class="node">
<title>Node7</title>
<polygon fill="#bfbfbf" stroke="#000000" points="0,-19.5 0,-38.5 131,-38.5 131,-19.5 0,-19.5"/>
<text text-anchor="middle" x="65.5" y="-26.5" font-family="Helvetica,sans-Serif" font-size="10.00" fill="#000000">l4re_ma_alloc_align_srv</text>
</g>
<!-- Node8 -->
<g id="node2" class="node">
<title>Node8</title>
<g id="a_node2"><a xlink:href="group__api__l4re__c__mem__alloc.html#gab076f7bcca238a6f29bc1d3cf816929e" target="_top" xlink:title="Allocate memory. ">
<polygon fill="#ffffff" stroke="#000000" points="181,-38.5 181,-57.5 264,-57.5 264,-38.5 181,-38.5"/>
<text text-anchor="middle" x="222.5" y="-45.5" font-family="Helvetica,sans-Serif" font-size="10.00" fill="#000000">l4re_ma_alloc</text>
</a>
</g>
</g>
<!-- Node7&#45;&gt;Node8 -->
<g id="edge1" class="edge">
<title>Node7&#45;&gt;Node8</title>
<path fill="none" stroke="#191970" d="M141.4863,-38.1958C155.0342,-39.8353 168.6819,-41.487 180.8133,-42.9551"/>
<polygon fill="#191970" stroke="#191970" points="141.5205,-34.6745 131.1725,-36.9476 140.6795,-41.6238 141.5205,-34.6745"/>
</g>
<!-- Node9 -->
<g id="node3" class="node">
<title>Node9</title>
<g id="a_node3"><a xlink:href="group__api__l4re__c__mem__alloc.html#gad500c9bdd19d15e86ae85e595162307b" target="_top" xlink:title="Allocate memory. ">
<polygon fill="#ffffff" stroke="#000000" points="167,-.5 167,-19.5 278,-19.5 278,-.5 167,-.5"/>
<text text-anchor="middle" x="222.5" y="-7.5" font-family="Helvetica,sans-Serif" font-size="10.00" fill="#000000">l4re_ma_alloc_align</text>
</a>
</g>
</g>
<!-- Node7&#45;&gt;Node9 -->
<g id="edge2" class="edge">
<title>Node7&#45;&gt;Node9</title>
<path fill="none" stroke="#191970" d="M141.1676,-19.8428C149.7203,-18.8077 158.3178,-17.7673 166.5535,-16.7706"/>
<polygon fill="#191970" stroke="#191970" points="140.6795,-16.3762 131.1725,-21.0524 141.5205,-23.3255 140.6795,-16.3762"/>
</g>
</g>
</svg>
