<?xml version="1.0" encoding="UTF-8" standalone="no"?>
<!DOCTYPE svg PUBLIC "-//W3C//DTD SVG 1.1//EN"
 "http://www.w3.org/Graphics/SVG/1.1/DTD/svg11.dtd">
<!-- Generated by graphviz version 2.40.1 (20161225.0304)
 -->
<!-- Title: l4_irq_attach_u Pages: 1 -->
<svg width="213pt" height="66pt"
 viewBox="0.00 0.00 213.00 66.00" xmlns="http://www.w3.org/2000/svg" xmlns:xlink="http://www.w3.org/1999/xlink">
<g id="graph0" class="graph" transform="scale(1 1) rotate(0) translate(4 62)">
<title>l4_irq_attach_u</title>
<polygon fill="#ffffff" stroke="transparent" points="-4,4 -4,-62 209,-62 209,4 -4,4"/>
<!-- Node5 -->
<g id="node1" class="node">
<title>Node5</title>
<polygon fill="#bfbfbf" stroke="#000000" points="0,-19.5 0,-38.5 89,-38.5 89,-19.5 0,-19.5"/>
<text text-anchor="middle" x="44.5" y="-26.5" font-family="Helvetica,sans-Serif" font-size="10.00" fill="#000000">l4_irq_attach_u</text>
</g>
<!-- Node6 -->
<g id="node2" class="node">
<title>Node6</title>
<g id="a_node2"><a xlink:href="classL4_1_1Irq.html#a8ef25fd1e3d8176ddde06aef3812c7e4" target="_top" xlink:title="Attach a thread to this interrupt. ">
<polygon fill="#ffffff" stroke="#000000" points="125,-38.5 125,-57.5 205,-57.5 205,-38.5 125,-38.5"/>
<text text-anchor="middle" x="165" y="-45.5" font-family="Helvetica,sans-Serif" font-size="10.00" fill="#000000">L4::Irq::attach</text>
</a>
</g>
</g>
<!-- Node5&#45;&gt;Node6 -->
<g id="edge1" class="edge">
<title>Node5&#45;&gt;Node6</title>
<path fill="none" stroke="#191970" d="M99.028,-37.5978C107.6451,-38.9565 116.4198,-40.34 124.6383,-41.6359"/>
<polygon fill="#191970" stroke="#191970" points="99.4505,-34.1212 89.0274,-36.0209 98.3602,-41.0358 99.4505,-34.1212"/>
</g>
<!-- Node7 -->
<g id="node3" class="node">
<title>Node7</title>
<g id="a_node3"><a xlink:href="group__l4__irq__api.html#ga33a90f914ea574aec2d9795288bd1f3e" target="_top" xlink:title="Attach a thread to an interrupt source. ">
<polygon fill="#ffffff" stroke="#000000" points="126,-.5 126,-19.5 204,-19.5 204,-.5 126,-.5"/>
<text text-anchor="middle" x="165" y="-7.5" font-family="Helvetica,sans-Serif" font-size="10.00" fill="#000000">l4_irq_attach</text>
</a>
</g>
</g>
<!-- Node5&#45;&gt;Node7 -->
<g id="edge2" class="edge">
<title>Node5&#45;&gt;Node7</title>
<path fill="none" stroke="#191970" d="M99.0861,-20.3931C108.098,-18.9721 117.2804,-17.5242 125.8173,-16.1782"/>
<polygon fill="#191970" stroke="#191970" points="98.3602,-16.9642 89.0274,-21.9791 99.4505,-23.8788 98.3602,-16.9642"/>
</g>
</g>
</svg>
