<?xml version="1.0" encoding="UTF-8" standalone="no"?>
<!DOCTYPE svg PUBLIC "-//W3C//DTD SVG 1.1//EN"
 "http://www.w3.org/Graphics/SVG/1.1/DTD/svg11.dtd">
<!-- Generated by graphviz version 2.40.1 (20161225.0304)
 -->
<!-- Title: l4util_splitlog2_hdl Pages: 1 -->
<svg width="348pt" height="66pt"
 viewBox="0.00 0.00 348.00 66.00" xmlns="http://www.w3.org/2000/svg" xmlns:xlink="http://www.w3.org/1999/xlink">
<g id="graph0" class="graph" transform="scale(1 1) rotate(0) translate(4 62)">
<title>l4util_splitlog2_hdl</title>
<polygon fill="#ffffff" stroke="transparent" points="-4,4 -4,-62 344,-62 344,4 -4,4"/>
<!-- Node22 -->
<g id="node1" class="node">
<title>Node22</title>
<polygon fill="#bfbfbf" stroke="#000000" points="0,-19.5 0,-38.5 103,-38.5 103,-19.5 0,-19.5"/>
<text text-anchor="middle" x="51.5" y="-26.5" font-family="Helvetica,sans-Serif" font-size="10.00" fill="#000000">l4util_splitlog2_hdl</text>
</g>
<!-- Node23 -->
<g id="node2" class="node">
<title>Node23</title>
<g id="a_node2"><a xlink:href="group__l4util__api.html#ga4b64c17b6e4392997addc015b4ed53ab" target="_top" xlink:title="Return log2 base and size aligned length of a range. ">
<polygon fill="#ffffff" stroke="#000000" points="139,-19.5 139,-38.5 246,-38.5 246,-19.5 139,-19.5"/>
<text text-anchor="middle" x="192.5" y="-26.5" font-family="Helvetica,sans-Serif" font-size="10.00" fill="#000000">l4util_splitlog2_size</text>
</a>
</g>
</g>
<!-- Node22&#45;&gt;Node23 -->
<g id="edge1" class="edge">
<title>Node22&#45;&gt;Node23</title>
<path fill="none" stroke="#191970" d="M103.2026,-29C111.5632,-29 120.3044,-29 128.9071,-29"/>
<polygon fill="#191970" stroke="#191970" points="128.9112,-32.5001 138.9112,-29 128.9111,-25.5001 128.9112,-32.5001"/>
</g>
<!-- Node24 -->
<g id="node3" class="node">
<title>Node24</title>
<g id="a_node3"><a xlink:href="group__l4util__bitops.html#ga3906818d29569abd0c82fc7ec35687f7" target="_top" xlink:title="Bit scan forward. ">
<polygon fill="#ffffff" stroke="#000000" points="282.5,-38.5 282.5,-57.5 339.5,-57.5 339.5,-38.5 282.5,-38.5"/>
<text text-anchor="middle" x="311" y="-45.5" font-family="Helvetica,sans-Serif" font-size="10.00" fill="#000000">l4util_bsf</text>
</a>
</g>
</g>
<!-- Node23&#45;&gt;Node24 -->
<g id="edge2" class="edge">
<title>Node23&#45;&gt;Node24</title>
<path fill="none" stroke="#191970" d="M246.2025,-37.6105C255.0839,-39.0345 264.133,-40.4855 272.5421,-41.8338"/>
<polygon fill="#191970" stroke="#191970" points="271.9997,-45.2914 282.4278,-43.4188 273.108,-38.3797 271.9997,-45.2914"/>
</g>
<!-- Node25 -->
<g id="node4" class="node">
<title>Node25</title>
<g id="a_node4"><a xlink:href="group__l4util__bitops.html#ga530be11fa91000db4c4539558e115bd2" target="_top" xlink:title="Bit scan reverse. ">
<polygon fill="#ffffff" stroke="#000000" points="282,-.5 282,-19.5 340,-19.5 340,-.5 282,-.5"/>
<text text-anchor="middle" x="311" y="-7.5" font-family="Helvetica,sans-Serif" font-size="10.00" fill="#000000">l4util_bsr</text>
</a>
</g>
</g>
<!-- Node23&#45;&gt;Node25 -->
<g id="edge3" class="edge">
<title>Node23&#45;&gt;Node25</title>
<path fill="none" stroke="#191970" d="M246.2025,-20.3895C254.8141,-19.0087 263.5833,-17.6027 271.7739,-16.2894"/>
<polygon fill="#191970" stroke="#191970" points="272.4641,-19.7235 281.7839,-14.6844 271.3559,-12.8118 272.4641,-19.7235"/>
</g>
</g>
</svg>
