<?xml version="1.0" encoding="UTF-8" standalone="no"?>
<!DOCTYPE svg PUBLIC "-//W3C//DTD SVG 1.1//EN"
 "http://www.w3.org/Graphics/SVG/1.1/DTD/svg11.dtd">
<!-- Generated by graphviz version 2.40.1 (20161225.0304)
 -->
<!-- Title: l4_sched_cpu_set Pages: 1 -->
<svg width="276pt" height="66pt"
 viewBox="0.00 0.00 276.00 66.00" xmlns="http://www.w3.org/2000/svg" xmlns:xlink="http://www.w3.org/1999/xlink">
<g id="graph0" class="graph" transform="scale(1 1) rotate(0) translate(4 62)">
<title>l4_sched_cpu_set</title>
<polygon fill="#ffffff" stroke="transparent" points="-4,4 -4,-62 272,-62 272,4 -4,4"/>
<!-- Node3 -->
<g id="node1" class="node">
<title>Node3</title>
<polygon fill="#bfbfbf" stroke="#000000" points="0,-19.5 0,-38.5 102,-38.5 102,-19.5 0,-19.5"/>
<text text-anchor="middle" x="51" y="-26.5" font-family="Helvetica,sans-Serif" font-size="10.00" fill="#000000">l4_sched_cpu_set</text>
</g>
<!-- Node4 -->
<g id="node2" class="node">
<title>Node4</title>
<g id="a_node2"><a xlink:href="group__l4__scheduler__api.html#gac103c1b3ebcc60ee673fdf2f89b62cfc" target="_top" xlink:title="Construct scheduler parameter. ">
<polygon fill="#ffffff" stroke="#000000" points="155.5,-38.5 155.5,-57.5 250.5,-57.5 250.5,-38.5 155.5,-38.5"/>
<text text-anchor="middle" x="203" y="-45.5" font-family="Helvetica,sans-Serif" font-size="10.00" fill="#000000">l4_sched_param</text>
</a>
</g>
</g>
<!-- Node3&#45;&gt;Node4 -->
<g id="edge1" class="edge">
<title>Node3&#45;&gt;Node4</title>
<path fill="none" stroke="#191970" d="M112.3335,-36.6667C126.6932,-38.4617 141.779,-40.3474 155.4339,-42.0542"/>
<polygon fill="#191970" stroke="#191970" points="112.3936,-33.147 102.0366,-35.3796 111.5253,-40.093 112.3936,-33.147"/>
</g>
<!-- Node5 -->
<g id="node3" class="node">
<title>Node5</title>
<g id="a_node3"><a xlink:href="structl4__sched__cpu__set__t.html#a6368caa2f62739bf7a4ca310dcd0dd8c" target="_top" xlink:title="Set offset and granularity. ">
<polygon fill="#ffffff" stroke="#000000" points="138,-.5 138,-19.5 268,-19.5 268,-.5 138,-.5"/>
<text text-anchor="middle" x="203" y="-7.5" font-family="Helvetica,sans-Serif" font-size="10.00" fill="#000000">l4_sched_cpu_set_t::set</text>
</a>
</g>
</g>
<!-- Node3&#45;&gt;Node5 -->
<g id="edge2" class="edge">
<title>Node3&#45;&gt;Node5</title>
<path fill="none" stroke="#191970" d="M112.1684,-21.354C120.6017,-20.2998 129.2886,-19.2139 137.7915,-18.1511"/>
<polygon fill="#191970" stroke="#191970" points="111.5253,-17.907 102.0366,-22.6204 112.3936,-24.853 111.5253,-17.907"/>
</g>
</g>
</svg>
