<?xml version="1.0" encoding="UTF-8" standalone="no"?>
<!DOCTYPE svg PUBLIC "-//W3C//DTD SVG 1.1//EN"
 "http://www.w3.org/Graphics/SVG/1.1/DTD/svg11.dtd">
<!-- Generated by graphviz version 2.40.1 (20161225.0304)
 -->
<!-- Title: l4_msgtag_is_page_fault Pages: 1 -->
<svg width="637pt" height="180pt"
 viewBox="0.00 0.00 637.00 180.00" xmlns="http://www.w3.org/2000/svg" xmlns:xlink="http://www.w3.org/1999/xlink">
<g id="graph0" class="graph" transform="scale(1 1) rotate(0) translate(4 176)">
<title>l4_msgtag_is_page_fault</title>
<polygon fill="#ffffff" stroke="transparent" points="-4,4 -4,-176 633,-176 633,4 -4,4"/>
<!-- Node64 -->
<g id="node1" class="node">
<title>Node64</title>
<polygon fill="#bfbfbf" stroke="#000000" points="0,-76.5 0,-95.5 134,-95.5 134,-76.5 0,-76.5"/>
<text text-anchor="middle" x="67" y="-83.5" font-family="Helvetica,sans-Serif" font-size="10.00" fill="#000000">l4_msgtag_is_page_fault</text>
</g>
<!-- Node65 -->
<g id="node2" class="node">
<title>Node65</title>
<g id="a_node2"><a xlink:href="structl4__msgtag__t.html#a09c8212b870e6c144fd072dbde5b5262" target="_top" xlink:title="Test if flags indicate an error. ">
<polygon fill="#ffffff" stroke="#000000" points="170,-76.5 170,-95.5 295,-95.5 295,-76.5 170,-76.5"/>
<text text-anchor="middle" x="232.5" y="-83.5" font-family="Helvetica,sans-Serif" font-size="10.00" fill="#000000">l4_msgtag_t::has_error</text>
</a>
</g>
</g>
<!-- Node64&#45;&gt;Node65 -->
<g id="edge1" class="edge">
<title>Node64&#45;&gt;Node65</title>
<path fill="none" stroke="#191970" d="M144.5651,-86C153.0172,-86 161.5417,-86 169.7841,-86"/>
<polygon fill="#191970" stroke="#191970" points="144.3152,-82.5001 134.3152,-86 144.3152,-89.5001 144.3152,-82.5001"/>
</g>
<!-- Node66 -->
<g id="node3" class="node">
<title>Node66</title>
<g id="a_node3"><a xlink:href="namespaceL4.html#aba0849c4b92afdccbe110489e18dadbd" target="_top" xlink:title="Throw an L4 IPC error as exception. ">
<polygon fill="#ffffff" stroke="#000000" points="331,-152.5 331,-171.5 462,-171.5 462,-152.5 331,-152.5"/>
<text text-anchor="middle" x="396.5" y="-159.5" font-family="Helvetica,sans-Serif" font-size="10.00" fill="#000000">L4::throw_ipc_exception</text>
</a>
</g>
</g>
<!-- Node65&#45;&gt;Node66 -->
<g id="edge2" class="edge">
<title>Node65&#45;&gt;Node66</title>
<path fill="none" stroke="#191970" d="M255.0764,-101.1872C274.5288,-113.7456 303.7049,-131.3483 331,-143 339.4939,-146.6259 348.8925,-149.8061 357.8559,-152.4756"/>
<polygon fill="#191970" stroke="#191970" points="256.8953,-98.1946 246.6121,-95.6437 253.0601,-104.0505 256.8953,-98.1946"/>
</g>
<!-- Node68 -->
<g id="node5" class="node">
<title>Node68</title>
<g id="a_node5"><a xlink:href="namespaceL4Re.html#ae0dd5d25abdc1d195edd8ab6b744334c" target="_top" xlink:title="Generate C++ exception on error. ">
<polygon fill="#ffffff" stroke="#000000" points="357,-114.5 357,-133.5 436,-133.5 436,-114.5 357,-114.5"/>
<text text-anchor="middle" x="396.5" y="-121.5" font-family="Helvetica,sans-Serif" font-size="10.00" fill="#000000">L4Re::chksys</text>
</a>
</g>
</g>
<!-- Node65&#45;&gt;Node68 -->
<g id="edge4" class="edge">
<title>Node65&#45;&gt;Node68</title>
<path fill="none" stroke="#191970" d="M283.7195,-97.8679C307.3014,-103.332 334.8563,-109.7167 356.8263,-114.8073"/>
<polygon fill="#191970" stroke="#191970" points="284.4161,-94.4367 273.8841,-95.589 282.836,-101.256 284.4161,-94.4367"/>
</g>
<!-- Node69 -->
<g id="node6" class="node">
<title>Node69</title>
<g id="a_node6"><a xlink:href="namespaceL4Re.html#ae21329b88c6ffc4917048e8d9564ea99" target="_top" xlink:title="Test a message tag for IPC errors. ">
<polygon fill="#ffffff" stroke="#000000" points="358,-76.5 358,-95.5 435,-95.5 435,-76.5 358,-76.5"/>
<text text-anchor="middle" x="396.5" y="-83.5" font-family="Helvetica,sans-Serif" font-size="10.00" fill="#000000">L4Re::chkipc</text>
</a>
</g>
</g>
<!-- Node65&#45;&gt;Node69 -->
<g id="edge5" class="edge">
<title>Node65&#45;&gt;Node69</title>
<path fill="none" stroke="#191970" d="M305.6177,-86C323.5639,-86 342.0844,-86 357.6862,-86"/>
<polygon fill="#191970" stroke="#191970" points="305.4377,-82.5001 295.4377,-86 305.4376,-89.5001 305.4377,-82.5001"/>
</g>
<!-- Node70 -->
<g id="node7" class="node">
<title>Node70</title>
<g id="a_node7"><a xlink:href="classL4_1_1Server.html#a4333dc750dee494087ee92ab058718a1" target="_top" xlink:title="Internal implementation for reply and wait. ">
<polygon fill="#ffffff" stroke="#000000" points="332,-38.5 332,-57.5 461,-57.5 461,-38.5 332,-38.5"/>
<text text-anchor="middle" x="396.5" y="-45.5" font-family="Helvetica,sans-Serif" font-size="10.00" fill="#000000">L4::Server::reply_n_wait</text>
</a>
</g>
</g>
<!-- Node65&#45;&gt;Node70 -->
<g id="edge6" class="edge">
<title>Node65&#45;&gt;Node70</title>
<path fill="none" stroke="#191970" d="M283.841,-74.1039C306.8929,-68.7626 333.7211,-62.5463 355.4135,-57.5201"/>
<polygon fill="#191970" stroke="#191970" points="282.836,-70.744 273.8841,-76.411 284.4161,-77.5633 282.836,-70.744"/>
</g>
<!-- Node71 -->
<g id="node8" class="node">
<title>Node71</title>
<g id="a_node8"><a xlink:href="classL4_1_1Server.html#ac0965dc536f1df5dfe0be1b224feab89" target="_top" xlink:title="The server loop. ">
<polygon fill="#ffffff" stroke="#000000" points="331,-.5 331,-19.5 462,-19.5 462,-.5 331,-.5"/>
<text text-anchor="middle" x="396.5" y="-7.5" font-family="Helvetica,sans-Serif" font-size="10.00" fill="#000000">L4::Server::internal_loop</text>
</a>
</g>
</g>
<!-- Node65&#45;&gt;Node71 -->
<g id="edge7" class="edge">
<title>Node65&#45;&gt;Node71</title>
<path fill="none" stroke="#191970" d="M255.0764,-70.8128C274.5288,-58.2544 303.7049,-40.6517 331,-29 339.4939,-25.3741 348.8925,-22.1939 357.8559,-19.5244"/>
<polygon fill="#191970" stroke="#191970" points="253.0601,-67.9495 246.6121,-76.3563 256.8953,-73.8054 253.0601,-67.9495"/>
</g>
<!-- Node67 -->
<g id="node4" class="node">
<title>Node67</title>
<g id="a_node4"><a xlink:href="namespaceL4.html#a54f8da0e02ff2496f1ad935e38ab17c4" target="_top" xlink:title="Throw an L4 IPC error as exception. ">
<polygon fill="#ffffff" stroke="#000000" points="498,-152.5 498,-171.5 629,-171.5 629,-152.5 498,-152.5"/>
<text text-anchor="middle" x="563.5" y="-159.5" font-family="Helvetica,sans-Serif" font-size="10.00" fill="#000000">L4::throw_ipc_exception</text>
</a>
</g>
</g>
<!-- Node66&#45;&gt;Node67 -->
<g id="edge3" class="edge">
<title>Node66&#45;&gt;Node67</title>
<path fill="none" stroke="#191970" d="M472.0663,-162C480.6848,-162 489.4171,-162 497.8913,-162"/>
<polygon fill="#191970" stroke="#191970" points="472.0235,-158.5001 462.0235,-162 472.0235,-165.5001 472.0235,-158.5001"/>
</g>
</g>
</svg>
