<?xml version="1.0" encoding="UTF-8" standalone="no"?>
<!DOCTYPE svg PUBLIC "-//W3C//DTD SVG 1.1//EN"
 "http://www.w3.org/Graphics/SVG/1.1/DTD/svg11.dtd">
<!-- Generated by graphviz version 2.40.1 (20161225.0304)
 -->
<!-- Title: l4_vm_vmx_read Pages: 1 -->
<svg width="259pt" height="142pt"
 viewBox="0.00 0.00 259.00 142.00" xmlns="http://www.w3.org/2000/svg" xmlns:xlink="http://www.w3.org/1999/xlink">
<g id="graph0" class="graph" transform="scale(1 1) rotate(0) translate(4 138)">
<title>l4_vm_vmx_read</title>
<polygon fill="#ffffff" stroke="transparent" points="-4,4 -4,-138 255,-138 255,4 -4,4"/>
<!-- Node18 -->
<g id="node1" class="node">
<title>Node18</title>
<polygon fill="#bfbfbf" stroke="#000000" points="0,-57.5 0,-76.5 97,-76.5 97,-57.5 0,-57.5"/>
<text text-anchor="middle" x="48.5" y="-64.5" font-family="Helvetica,sans-Serif" font-size="10.00" fill="#000000">l4_vm_vmx_read</text>
</g>
<!-- Node19 -->
<g id="node2" class="node">
<title>Node19</title>
<g id="a_node2"><a xlink:href="group__l4__vm__vmx__api.html#ga0e2bcaaaab669770cccebfe57bf9a0c7" target="_top" xlink:title="Read a 16bit VMCS field. ">
<polygon fill="#ffffff" stroke="#000000" points="134.5,-114.5 134.5,-133.5 249.5,-133.5 249.5,-114.5 134.5,-114.5"/>
<text text-anchor="middle" x="192" y="-121.5" font-family="Helvetica,sans-Serif" font-size="10.00" fill="#000000">l4_vm_vmx_read_16</text>
</a>
</g>
</g>
<!-- Node18&#45;&gt;Node19 -->
<g id="edge1" class="edge">
<title>Node18&#45;&gt;Node19</title>
<path fill="none" stroke="#191970" d="M68.0433,-76.5347C85.0041,-84.6286 110.3293,-96.283 133,-105 138.5981,-107.1525 144.5551,-109.2683 150.4495,-111.2614"/>
<polygon fill="#191970" stroke="#191970" points="149.6427,-114.6805 160.2357,-114.4845 151.8325,-108.0319 149.6427,-114.6805"/>
</g>
<!-- Node20 -->
<g id="node3" class="node">
<title>Node20</title>
<g id="a_node3"><a xlink:href="group__l4__vm__vmx__api.html#ga61ff297f992665a110c3693a4683d02b" target="_top" xlink:title="Read a 32bit VMCS field. ">
<polygon fill="#ffffff" stroke="#000000" points="134.5,-76.5 134.5,-95.5 249.5,-95.5 249.5,-76.5 134.5,-76.5"/>
<text text-anchor="middle" x="192" y="-83.5" font-family="Helvetica,sans-Serif" font-size="10.00" fill="#000000">l4_vm_vmx_read_32</text>
</a>
</g>
</g>
<!-- Node18&#45;&gt;Node20 -->
<g id="edge2" class="edge">
<title>Node18&#45;&gt;Node20</title>
<path fill="none" stroke="#191970" d="M97.0826,-73.4325C105.8602,-74.5947 115.156,-75.8255 124.3613,-77.0443"/>
<polygon fill="#191970" stroke="#191970" points="123.9127,-80.5154 134.2856,-78.3584 124.8316,-73.576 123.9127,-80.5154"/>
</g>
<!-- Node21 -->
<g id="node4" class="node">
<title>Node21</title>
<g id="a_node4"><a xlink:href="group__l4__vm__vmx__api.html#gabc2c4aa13e806afb4c1701f366eb2c88" target="_top" xlink:title="Read a 64bit VMCS field. ">
<polygon fill="#ffffff" stroke="#000000" points="134.5,-38.5 134.5,-57.5 249.5,-57.5 249.5,-38.5 134.5,-38.5"/>
<text text-anchor="middle" x="192" y="-45.5" font-family="Helvetica,sans-Serif" font-size="10.00" fill="#000000">l4_vm_vmx_read_64</text>
</a>
</g>
</g>
<!-- Node18&#45;&gt;Node21 -->
<g id="edge3" class="edge">
<title>Node18&#45;&gt;Node21</title>
<path fill="none" stroke="#191970" d="M97.0826,-60.5675C105.8602,-59.4053 115.156,-58.1745 124.3613,-56.9557"/>
<polygon fill="#191970" stroke="#191970" points="124.8316,-60.424 134.2856,-55.6416 123.9127,-53.4846 124.8316,-60.424"/>
</g>
<!-- Node22 -->
<g id="node5" class="node">
<title>Node22</title>
<g id="a_node5"><a xlink:href="group__l4__vm__vmx__api.html#gabc0002470856bad7a0e0038f539b56bb" target="_top" xlink:title="Read a natural width VMCS field. ">
<polygon fill="#ffffff" stroke="#000000" points="133,-.5 133,-19.5 251,-19.5 251,-.5 133,-.5"/>
<text text-anchor="middle" x="192" y="-7.5" font-family="Helvetica,sans-Serif" font-size="10.00" fill="#000000">l4_vm_vmx_read_nat</text>
</a>
</g>
</g>
<!-- Node18&#45;&gt;Node22 -->
<g id="edge4" class="edge">
<title>Node18&#45;&gt;Node22</title>
<path fill="none" stroke="#191970" d="M68.0433,-57.4653C85.0041,-49.3714 110.3293,-37.717 133,-29 138.5981,-26.8475 144.5551,-24.7317 150.4495,-22.7386"/>
<polygon fill="#191970" stroke="#191970" points="151.8325,-25.9681 160.2357,-19.5155 149.6427,-19.3195 151.8325,-25.9681"/>
</g>
</g>
</svg>
