<?xml version="1.0" encoding="UTF-8" standalone="no"?>
<!DOCTYPE svg PUBLIC "-//W3C//DTD SVG 1.1//EN"
 "http://www.w3.org/Graphics/SVG/1.1/DTD/svg11.dtd">
<!-- Generated by graphviz version 2.40.1 (20161225.0304)
 -->
<!-- Title: l4_icu_set_mode Pages: 1 -->
<svg width="247pt" height="66pt"
 viewBox="0.00 0.00 247.00 66.00" xmlns="http://www.w3.org/2000/svg" xmlns:xlink="http://www.w3.org/1999/xlink">
<g id="graph0" class="graph" transform="scale(1 1) rotate(0) translate(4 62)">
<title>l4_icu_set_mode</title>
<polygon fill="#ffffff" stroke="transparent" points="-4,4 -4,-62 243,-62 243,4 -4,4"/>
<!-- Node29 -->
<g id="node1" class="node">
<title>Node29</title>
<polygon fill="#bfbfbf" stroke="#000000" points="0,-19.5 0,-38.5 96,-38.5 96,-19.5 0,-19.5"/>
<text text-anchor="middle" x="48" y="-26.5" font-family="Helvetica,sans-Serif" font-size="10.00" fill="#000000">l4_icu_set_mode</text>
</g>
<!-- Node30 -->
<g id="node2" class="node">
<title>Node30</title>
<g id="a_node2"><a xlink:href="group__l4__icu__api.html#gac43905e779ca41f20c9cd23fb28ac095" target="_top" xlink:title="Set interrupt mode. ">
<polygon fill="#ffffff" stroke="#000000" points="132,-38.5 132,-57.5 239,-57.5 239,-38.5 132,-38.5"/>
<text text-anchor="middle" x="185.5" y="-45.5" font-family="Helvetica,sans-Serif" font-size="10.00" fill="#000000">l4_icu_set_mode_u</text>
</a>
</g>
</g>
<!-- Node29&#45;&gt;Node30 -->
<g id="edge1" class="edge">
<title>Node29&#45;&gt;Node30</title>
<path fill="none" stroke="#191970" d="M96.0908,-35.6453C104.3289,-36.7836 113.0032,-37.9823 121.5769,-39.167"/>
<polygon fill="#191970" stroke="#191970" points="121.1783,-42.6451 131.5633,-40.5469 122.1366,-35.711 121.1783,-42.6451"/>
</g>
<!-- Node31 -->
<g id="node3" class="node">
<title>Node31</title>
<g id="a_node3"><a xlink:href="group__l4__utcb__api.html#gadc099b4a59e1d99638c72c11a8c8b644" target="_top" xlink:title="Get the UTCB address. ">
<polygon fill="#ffffff" stroke="#000000" points="160.5,-.5 160.5,-19.5 210.5,-19.5 210.5,-.5 160.5,-.5"/>
<text text-anchor="middle" x="185.5" y="-7.5" font-family="Helvetica,sans-Serif" font-size="10.00" fill="#000000">l4_utcb</text>
</a>
</g>
</g>
<!-- Node29&#45;&gt;Node31 -->
<g id="edge2" class="edge">
<title>Node29&#45;&gt;Node31</title>
<path fill="none" stroke="#191970" d="M96.0908,-22.3547C113.8786,-19.8968 133.7004,-17.1578 150.1516,-14.8845"/>
<polygon fill="#191970" stroke="#191970" points="150.9935,-18.3015 160.4203,-13.4656 150.0353,-11.3674 150.9935,-18.3015"/>
</g>
</g>
</svg>
