<?xml version="1.0" encoding="UTF-8" standalone="no"?>
<!DOCTYPE svg PUBLIC "-//W3C//DTD SVG 1.1//EN"
 "http://www.w3.org/Graphics/SVG/1.1/DTD/svg11.dtd">
<!-- Generated by graphviz version 2.40.1 (20161225.0304)
 -->
<!-- Title: l4_touch_ro Pages: 1 -->
<svg width="707pt" height="28pt"
 viewBox="0.00 0.00 707.00 28.00" xmlns="http://www.w3.org/2000/svg" xmlns:xlink="http://www.w3.org/1999/xlink">
<g id="graph0" class="graph" transform="scale(1 1) rotate(0) translate(4 24)">
<title>l4_touch_ro</title>
<polygon fill="#ffffff" stroke="transparent" points="-4,4 -4,-24 703,-24 703,4 -4,4"/>
<!-- Node2 -->
<g id="node1" class="node">
<title>Node2</title>
<polygon fill="#bfbfbf" stroke="#000000" points="0,-.5 0,-19.5 72,-19.5 72,-.5 0,-.5"/>
<text text-anchor="middle" x="36" y="-7.5" font-family="Helvetica,sans-Serif" font-size="10.00" fill="#000000">l4_touch_ro</text>
</g>
<!-- Node3 -->
<g id="node2" class="node">
<title>Node3</title>
<g id="a_node2"><a xlink:href="group__l4__memory__api.html#ga70b72ae96c18cb49a3445198711bba0d" target="_top" xlink:title="Round an address down to the next lower page boundary. ">
<polygon fill="#ffffff" stroke="#000000" points="108,-.5 108,-19.5 192,-19.5 192,-.5 108,-.5"/>
<text text-anchor="middle" x="150" y="-7.5" font-family="Helvetica,sans-Serif" font-size="10.00" fill="#000000">l4_trunc_page</text>
</a>
</g>
</g>
<!-- Node2&#45;&gt;Node3 -->
<g id="edge1" class="edge">
<title>Node2&#45;&gt;Node3</title>
<path fill="none" stroke="#191970" d="M72.0703,-10C80.2283,-10 89.0505,-10 97.7257,-10"/>
<polygon fill="#191970" stroke="#191970" points="97.7936,-13.5001 107.7936,-10 97.7935,-6.5001 97.7936,-13.5001"/>
</g>
<!-- Node4 -->
<g id="node3" class="node">
<title>Node4</title>
<g id="a_node3"><a xlink:href="group__l4__memory__api.html#ga792959ba1e87fecf90018876f32d7bc9" target="_top" xlink:title="Round an address down to the next lower flex page with size bits. ">
<polygon fill="#ffffff" stroke="#000000" points="228,-.5 228,-19.5 307,-19.5 307,-.5 228,-.5"/>
<text text-anchor="middle" x="267.5" y="-7.5" font-family="Helvetica,sans-Serif" font-size="10.00" fill="#000000">l4_trunc_size</text>
</a>
</g>
</g>
<!-- Node3&#45;&gt;Node4 -->
<g id="edge2" class="edge">
<title>Node3&#45;&gt;Node4</title>
<path fill="none" stroke="#191970" d="M192.0883,-10C200.3278,-10 209.044,-10 217.5118,-10"/>
<polygon fill="#191970" stroke="#191970" points="217.6687,-13.5001 227.6686,-10 217.6686,-6.5001 217.6687,-13.5001"/>
</g>
<!-- Node5 -->
<g id="node4" class="node">
<title>Node5</title>
<g id="a_node4"><a xlink:href="group__l4__memory__api.html#ga96e3b2d8e69308aecbb11d1d24f61662" target="_top" xlink:title="Round address up to the next page. ">
<polygon fill="#ffffff" stroke="#000000" points="343,-.5 343,-19.5 431,-19.5 431,-.5 343,-.5"/>
<text text-anchor="middle" x="387" y="-7.5" font-family="Helvetica,sans-Serif" font-size="10.00" fill="#000000">l4_round_page</text>
</a>
</g>
</g>
<!-- Node4&#45;&gt;Node5 -->
<g id="edge3" class="edge">
<title>Node4&#45;&gt;Node5</title>
<path fill="none" stroke="#191970" d="M307.2918,-10C315.4011,-10 324.0645,-10 332.5822,-10"/>
<polygon fill="#191970" stroke="#191970" points="332.8528,-13.5001 342.8527,-10 332.8527,-6.5001 332.8528,-13.5001"/>
</g>
<!-- Node6 -->
<g id="node5" class="node">
<title>Node6</title>
<g id="a_node5"><a xlink:href="group__l4__memory__api.html#gae876a4c6e0f21b2ecbf17863dc7d11e4" target="_top" xlink:title="Round value up to the next alignment with bits size. ">
<polygon fill="#ffffff" stroke="#000000" points="467,-.5 467,-19.5 550,-19.5 550,-.5 467,-.5"/>
<text text-anchor="middle" x="508.5" y="-7.5" font-family="Helvetica,sans-Serif" font-size="10.00" fill="#000000">l4_round_size</text>
</a>
</g>
</g>
<!-- Node5&#45;&gt;Node6 -->
<g id="edge4" class="edge">
<title>Node5&#45;&gt;Node6</title>
<path fill="none" stroke="#191970" d="M431.208,-10C439.5049,-10 448.2475,-10 456.7495,-10"/>
<polygon fill="#191970" stroke="#191970" points="456.9548,-13.5001 466.9548,-10 456.9547,-6.5001 456.9548,-13.5001"/>
</g>
<!-- Node7 -->
<g id="node6" class="node">
<title>Node7</title>
<g id="a_node6"><a xlink:href="group__l4__memory__api.html#ga2be30f4e5dde3c85d115d2a9c77f6215" target="_top" xlink:title="Determine how many machine words (l4_umword_t) are required to store a buffer of &#39;size&#39; bytes...">
<polygon fill="#ffffff" stroke="#000000" points="586,-.5 586,-19.5 699,-19.5 699,-.5 586,-.5"/>
<text text-anchor="middle" x="642.5" y="-7.5" font-family="Helvetica,sans-Serif" font-size="10.00" fill="#000000">l4_bytes_to_mwords</text>
</a>
</g>
</g>
<!-- Node6&#45;&gt;Node7 -->
<g id="edge5" class="edge">
<title>Node6&#45;&gt;Node7</title>
<path fill="none" stroke="#191970" d="M550.1639,-10C558.2261,-10 566.8622,-10 575.4984,-10"/>
<polygon fill="#191970" stroke="#191970" points="575.6022,-13.5001 585.6021,-10 575.6021,-6.5001 575.6022,-13.5001"/>
</g>
</g>
</svg>
