<?xml version="1.0" encoding="UTF-8" standalone="no"?>
<!DOCTYPE svg PUBLIC "-//W3C//DTD SVG 1.1//EN"
 "http://www.w3.org/Graphics/SVG/1.1/DTD/svg11.dtd">
<!-- Generated by graphviz version 2.40.1 (20161225.0304)
 -->
<!-- Title: l4_msgtag_label Pages: 1 -->
<svg width="784pt" height="261pt"
 viewBox="0.00 0.00 784.00 260.52" xmlns="http://www.w3.org/2000/svg" xmlns:xlink="http://www.w3.org/1999/xlink">
<g id="graph0" class="graph" transform="scale(1 1) rotate(0) translate(4 256.5215)">
<title>l4_msgtag_label</title>
<polygon fill="#ffffff" stroke="transparent" points="-4,4 -4,-256.5215 780,-256.5215 780,4 -4,4"/>
<!-- Node113 -->
<g id="node1" class="node">
<title>Node113</title>
<polygon fill="#bfbfbf" stroke="#000000" points="0,-114.5 0,-133.5 93,-133.5 93,-114.5 0,-114.5"/>
<text text-anchor="middle" x="46.5" y="-121.5" font-family="Helvetica,sans-Serif" font-size="10.00" fill="#000000">l4_msgtag_label</text>
</g>
<!-- Node114 -->
<g id="node2" class="node">
<title>Node114</title>
<g id="a_node2"><a xlink:href="structl4__msgtag__t.html#a09c8212b870e6c144fd072dbde5b5262" target="_top" xlink:title="Test if flags indicate an error. ">
<polygon fill="#ffffff" stroke="#000000" points="317,-114.5 317,-133.5 442,-133.5 442,-114.5 317,-114.5"/>
<text text-anchor="middle" x="379.5" y="-121.5" font-family="Helvetica,sans-Serif" font-size="10.00" fill="#000000">l4_msgtag_t::has_error</text>
</a>
</g>
</g>
<!-- Node113&#45;&gt;Node114 -->
<g id="edge1" class="edge">
<title>Node113&#45;&gt;Node114</title>
<path fill="none" stroke="#191970" d="M54.6454,-143.1932C66.6628,-168.712 91.8131,-212.7152 129,-231 189.6234,-260.8086 219.1345,-258.1368 281,-231 327.7073,-210.5122 362.0327,-155.7364 374.4355,-133.5395"/>
<polygon fill="#191970" stroke="#191970" points="57.7214,-141.4994 50.4289,-133.8137 51.3368,-144.3695 57.7214,-141.4994"/>
</g>
<!-- Node121 -->
<g id="node9" class="node">
<title>Node121</title>
<g id="a_node9"><a xlink:href="group__l4__msgtag__api.html#ga0f2cf0a5f8d4a733f69b94dcc388c2ef" target="_top" xlink:title="Test for exception protocol. ">
<polygon fill="#ffffff" stroke="#000000" points="139.5,-202.5 139.5,-221.5 270.5,-221.5 270.5,-202.5 139.5,-202.5"/>
<text text-anchor="middle" x="205" y="-209.5" font-family="Helvetica,sans-Serif" font-size="10.00" fill="#000000">l4_msgtag_is_exception</text>
</a>
</g>
</g>
<!-- Node113&#45;&gt;Node121 -->
<g id="edge8" class="edge">
<title>Node113&#45;&gt;Node121</title>
<path fill="none" stroke="#191970" d="M62.3423,-141.1048C77.8634,-156.8557 102.9255,-179.7304 129,-193 136.5151,-196.8245 144.8479,-199.911 153.1614,-202.3926"/>
<polygon fill="#191970" stroke="#191970" points="64.5918,-138.3942 55.1407,-133.6061 59.543,-143.243 64.5918,-138.3942"/>
</g>
<!-- Node122 -->
<g id="node10" class="node">
<title>Node122</title>
<g id="a_node10"><a xlink:href="group__l4__msgtag__api.html#ga463384faf9cb37d3f65f24913e34d687" target="_top" xlink:title="Test for IO&#45;page&#45;fault protocol. ">
<polygon fill="#ffffff" stroke="#000000" points="143.5,-153 143.5,-183 266.5,-183 266.5,-153 143.5,-153"/>
<text text-anchor="start" x="151.5" y="-171" font-family="Helvetica,sans-Serif" font-size="10.00" fill="#000000">l4_msgtag_is_io_page</text>
<text text-anchor="middle" x="205" y="-160" font-family="Helvetica,sans-Serif" font-size="10.00" fill="#000000">_fault</text>
</a>
</g>
</g>
<!-- Node113&#45;&gt;Node122 -->
<g id="edge10" class="edge">
<title>Node113&#45;&gt;Node122</title>
<path fill="none" stroke="#191970" d="M90.5925,-136.2402C109.2278,-141.4134 131.1162,-147.4897 150.7305,-152.9346"/>
<polygon fill="#191970" stroke="#191970" points="91.464,-132.8498 80.8921,-133.5473 89.5915,-139.5948 91.464,-132.8498"/>
</g>
<!-- Node123 -->
<g id="node11" class="node">
<title>Node123</title>
<g id="a_node11"><a xlink:href="group__l4__msgtag__api.html#gaf949daa8e7aa7d20743502de15e86dcd" target="_top" xlink:title="Test for page&#45;fault protocol. ">
<polygon fill="#ffffff" stroke="#000000" points="138,-114.5 138,-133.5 272,-133.5 272,-114.5 138,-114.5"/>
<text text-anchor="middle" x="205" y="-121.5" font-family="Helvetica,sans-Serif" font-size="10.00" fill="#000000">l4_msgtag_is_page_fault</text>
</a>
</g>
</g>
<!-- Node113&#45;&gt;Node123 -->
<g id="edge12" class="edge">
<title>Node113&#45;&gt;Node123</title>
<path fill="none" stroke="#191970" d="M103.2621,-124C114.4517,-124 126.2933,-124 137.7889,-124"/>
<polygon fill="#191970" stroke="#191970" points="103.198,-120.5001 93.198,-124 103.1979,-127.5001 103.198,-120.5001"/>
</g>
<!-- Node124 -->
<g id="node12" class="node">
<title>Node124</title>
<g id="a_node12"><a xlink:href="group__l4__msgtag__api.html#gafb02742f6231ff4568412fed96e7e272" target="_top" xlink:title="Test for preemption protocol. ">
<polygon fill="#ffffff" stroke="#000000" points="136,-76.5 136,-95.5 274,-95.5 274,-76.5 136,-76.5"/>
<text text-anchor="middle" x="205" y="-83.5" font-family="Helvetica,sans-Serif" font-size="10.00" fill="#000000">l4_msgtag_is_preemption</text>
</a>
</g>
</g>
<!-- Node113&#45;&gt;Node124 -->
<g id="edge14" class="edge">
<title>Node113&#45;&gt;Node124</title>
<path fill="none" stroke="#191970" d="M96.4191,-112.032C118.6304,-106.7069 144.4205,-100.5238 165.2914,-95.5201"/>
<polygon fill="#191970" stroke="#191970" points="95.4047,-108.676 86.4962,-114.411 97.0367,-115.4831 95.4047,-108.676"/>
</g>
<!-- Node125 -->
<g id="node13" class="node">
<title>Node125</title>
<g id="a_node13"><a xlink:href="group__l4__msgtag__api.html#ga047100a8ec6216015fbd1385f5443760" target="_top" xlink:title="Test for sigma0 protocol. ">
<polygon fill="#ffffff" stroke="#000000" points="145.5,-38.5 145.5,-57.5 264.5,-57.5 264.5,-38.5 145.5,-38.5"/>
<text text-anchor="middle" x="205" y="-45.5" font-family="Helvetica,sans-Serif" font-size="10.00" fill="#000000">l4_msgtag_is_sigma0</text>
</a>
</g>
</g>
<!-- Node113&#45;&gt;Node125 -->
<g id="edge16" class="edge">
<title>Node113&#45;&gt;Node125</title>
<path fill="none" stroke="#191970" d="M65.4645,-107.9244C81.4572,-95.1281 105.4452,-77.6545 129,-67 137.4264,-63.1885 146.7386,-60.0613 155.8715,-57.5237"/>
<polygon fill="#191970" stroke="#191970" points="62.9775,-105.4371 57.4558,-114.4793 67.4111,-110.854 62.9775,-105.4371"/>
</g>
<!-- Node126 -->
<g id="node14" class="node">
<title>Node126</title>
<g id="a_node14"><a xlink:href="group__l4__msgtag__api.html#gafc73bad60b56767f6eb04cf4b71838ee" target="_top" xlink:title="Test for system&#45;exception protocol. ">
<polygon fill="#ffffff" stroke="#000000" points="129,-.5 129,-19.5 281,-19.5 281,-.5 129,-.5"/>
<text text-anchor="middle" x="205" y="-7.5" font-family="Helvetica,sans-Serif" font-size="10.00" fill="#000000">l4_msgtag_is_sys_exception</text>
</a>
</g>
</g>
<!-- Node113&#45;&gt;Node126 -->
<g id="edge18" class="edge">
<title>Node113&#45;&gt;Node126</title>
<path fill="none" stroke="#191970" d="M57.2804,-105.8951C71.1286,-84.2486 97.2114,-48.5047 129,-29 135.3758,-25.088 142.52,-21.9799 149.8081,-19.5109"/>
<polygon fill="#191970" stroke="#191970" points="54.2522,-104.1372 51.9574,-114.4806 60.2015,-107.8258 54.2522,-104.1372"/>
</g>
<!-- Node115 -->
<g id="node3" class="node">
<title>Node115</title>
<g id="a_node3"><a xlink:href="namespaceL4.html#aba0849c4b92afdccbe110489e18dadbd" target="_top" xlink:title="Throw an L4 IPC error as exception. ">
<polygon fill="#ffffff" stroke="#000000" points="478,-190.5 478,-209.5 609,-209.5 609,-190.5 478,-190.5"/>
<text text-anchor="middle" x="543.5" y="-197.5" font-family="Helvetica,sans-Serif" font-size="10.00" fill="#000000">L4::throw_ipc_exception</text>
</a>
</g>
</g>
<!-- Node114&#45;&gt;Node115 -->
<g id="edge2" class="edge">
<title>Node114&#45;&gt;Node115</title>
<path fill="none" stroke="#191970" d="M402.0764,-139.1872C421.5288,-151.7456 450.7049,-169.3483 478,-181 486.4939,-184.6259 495.8925,-187.8061 504.8559,-190.4756"/>
<polygon fill="#191970" stroke="#191970" points="403.8953,-136.1946 393.6121,-133.6437 400.0601,-142.0505 403.8953,-136.1946"/>
</g>
<!-- Node117 -->
<g id="node5" class="node">
<title>Node117</title>
<g id="a_node5"><a xlink:href="namespaceL4Re.html#ae0dd5d25abdc1d195edd8ab6b744334c" target="_top" xlink:title="Generate C++ exception on error. ">
<polygon fill="#ffffff" stroke="#000000" points="504,-152.5 504,-171.5 583,-171.5 583,-152.5 504,-152.5"/>
<text text-anchor="middle" x="543.5" y="-159.5" font-family="Helvetica,sans-Serif" font-size="10.00" fill="#000000">L4Re::chksys</text>
</a>
</g>
</g>
<!-- Node114&#45;&gt;Node117 -->
<g id="edge4" class="edge">
<title>Node114&#45;&gt;Node117</title>
<path fill="none" stroke="#191970" d="M430.7195,-135.8679C454.3014,-141.332 481.8563,-147.7167 503.8263,-152.8073"/>
<polygon fill="#191970" stroke="#191970" points="431.4161,-132.4367 420.8841,-133.589 429.836,-139.256 431.4161,-132.4367"/>
</g>
<!-- Node118 -->
<g id="node6" class="node">
<title>Node118</title>
<g id="a_node6"><a xlink:href="namespaceL4Re.html#ae21329b88c6ffc4917048e8d9564ea99" target="_top" xlink:title="Test a message tag for IPC errors. ">
<polygon fill="#ffffff" stroke="#000000" points="505,-114.5 505,-133.5 582,-133.5 582,-114.5 505,-114.5"/>
<text text-anchor="middle" x="543.5" y="-121.5" font-family="Helvetica,sans-Serif" font-size="10.00" fill="#000000">L4Re::chkipc</text>
</a>
</g>
</g>
<!-- Node114&#45;&gt;Node118 -->
<g id="edge5" class="edge">
<title>Node114&#45;&gt;Node118</title>
<path fill="none" stroke="#191970" d="M452.6177,-124C470.5639,-124 489.0844,-124 504.6862,-124"/>
<polygon fill="#191970" stroke="#191970" points="452.4377,-120.5001 442.4377,-124 452.4376,-127.5001 452.4377,-120.5001"/>
</g>
<!-- Node119 -->
<g id="node7" class="node">
<title>Node119</title>
<g id="a_node7"><a xlink:href="classL4_1_1Server.html#a4333dc750dee494087ee92ab058718a1" target="_top" xlink:title="Internal implementation for reply and wait. ">
<polygon fill="#ffffff" stroke="#000000" points="479,-76.5 479,-95.5 608,-95.5 608,-76.5 479,-76.5"/>
<text text-anchor="middle" x="543.5" y="-83.5" font-family="Helvetica,sans-Serif" font-size="10.00" fill="#000000">L4::Server::reply_n_wait</text>
</a>
</g>
</g>
<!-- Node114&#45;&gt;Node119 -->
<g id="edge6" class="edge">
<title>Node114&#45;&gt;Node119</title>
<path fill="none" stroke="#191970" d="M430.841,-112.1039C453.8929,-106.7626 480.7211,-100.5463 502.4135,-95.5201"/>
<polygon fill="#191970" stroke="#191970" points="429.836,-108.744 420.8841,-114.411 431.4161,-115.5633 429.836,-108.744"/>
</g>
<!-- Node120 -->
<g id="node8" class="node">
<title>Node120</title>
<g id="a_node8"><a xlink:href="classL4_1_1Server.html#ac0965dc536f1df5dfe0be1b224feab89" target="_top" xlink:title="The server loop. ">
<polygon fill="#ffffff" stroke="#000000" points="478,-38.5 478,-57.5 609,-57.5 609,-38.5 478,-38.5"/>
<text text-anchor="middle" x="543.5" y="-45.5" font-family="Helvetica,sans-Serif" font-size="10.00" fill="#000000">L4::Server::internal_loop</text>
</a>
</g>
</g>
<!-- Node114&#45;&gt;Node120 -->
<g id="edge7" class="edge">
<title>Node114&#45;&gt;Node120</title>
<path fill="none" stroke="#191970" d="M402.0764,-108.8128C421.5288,-96.2544 450.7049,-78.6517 478,-67 486.4939,-63.3741 495.8925,-60.1939 504.8559,-57.5244"/>
<polygon fill="#191970" stroke="#191970" points="400.0601,-105.9495 393.6121,-114.3563 403.8953,-111.8054 400.0601,-105.9495"/>
</g>
<!-- Node116 -->
<g id="node4" class="node">
<title>Node116</title>
<g id="a_node4"><a xlink:href="namespaceL4.html#a54f8da0e02ff2496f1ad935e38ab17c4" target="_top" xlink:title="Throw an L4 IPC error as exception. ">
<polygon fill="#ffffff" stroke="#000000" points="645,-190.5 645,-209.5 776,-209.5 776,-190.5 645,-190.5"/>
<text text-anchor="middle" x="710.5" y="-197.5" font-family="Helvetica,sans-Serif" font-size="10.00" fill="#000000">L4::throw_ipc_exception</text>
</a>
</g>
</g>
<!-- Node115&#45;&gt;Node116 -->
<g id="edge3" class="edge">
<title>Node115&#45;&gt;Node116</title>
<path fill="none" stroke="#191970" d="M619.0663,-200C627.6848,-200 636.4171,-200 644.8913,-200"/>
<polygon fill="#191970" stroke="#191970" points="619.0235,-196.5001 609.0235,-200 619.0235,-203.5001 619.0235,-196.5001"/>
</g>
<!-- Node121&#45;&gt;Node114 -->
<g id="edge9" class="edge">
<title>Node121&#45;&gt;Node114</title>
<path fill="none" stroke="#191970" d="M264.269,-199.4591C270.0225,-197.5677 275.689,-195.423 281,-193 315.9517,-177.054 351.5456,-148.3849 368.8024,-133.5198"/>
<polygon fill="#191970" stroke="#191970" points="263.1044,-196.1549 254.5515,-202.4078 265.137,-202.8533 263.1044,-196.1549"/>
</g>
<!-- Node122&#45;&gt;Node114 -->
<g id="edge11" class="edge">
<title>Node122&#45;&gt;Node114</title>
<path fill="none" stroke="#191970" d="M274.3005,-150.5259C297.3118,-144.7237 322.0641,-138.4824 341.7746,-133.5124"/>
<polygon fill="#191970" stroke="#191970" points="273.4057,-147.1419 264.5649,-152.9808 275.1172,-153.9295 273.4057,-147.1419"/>
</g>
<!-- Node123&#45;&gt;Node114 -->
<g id="edge13" class="edge">
<title>Node123&#45;&gt;Node114</title>
<path fill="none" stroke="#191970" d="M282.4741,-124C293.9524,-124 305.6592,-124 316.7865,-124"/>
<polygon fill="#191970" stroke="#191970" points="282.4663,-120.5001 272.4663,-124 282.4662,-127.5001 282.4663,-120.5001"/>
</g>
<!-- Node124&#45;&gt;Node114 -->
<g id="edge15" class="edge">
<title>Node124&#45;&gt;Node114</title>
<path fill="none" stroke="#191970" d="M258.9691,-97.7526C283.6433,-103.1258 312.4948,-109.4086 335.7829,-114.4799"/>
<polygon fill="#191970" stroke="#191970" points="259.5495,-94.297 249.0337,-95.589 258.06,-101.1367 259.5495,-94.297"/>
</g>
<!-- Node125&#45;&gt;Node114 -->
<g id="edge17" class="edge">
<title>Node125&#45;&gt;Node114</title>
<path fill="none" stroke="#191970" d="M261.5779,-60.2659C268.2137,-62.2542 274.8171,-64.4961 281,-67 313.0475,-79.9784 347.3091,-101.849 365.782,-114.3897"/>
<polygon fill="#191970" stroke="#191970" points="262.452,-56.8759 251.8775,-57.5331 260.5538,-63.6137 262.452,-56.8759"/>
</g>
<!-- Node126&#45;&gt;Node114 -->
<g id="edge19" class="edge">
<title>Node126&#45;&gt;Node114</title>
<path fill="none" stroke="#191970" d="M267.8061,-22.8672C272.3832,-24.6567 276.8329,-26.6902 281,-29 321.5199,-51.4605 357.4615,-94.8243 372.2893,-114.2146"/>
<polygon fill="#191970" stroke="#191970" points="268.877,-19.5338 258.2822,-19.5264 266.5599,-26.1392 268.877,-19.5338"/>
</g>
</g>
</svg>
