<?xml version="1.0" encoding="UTF-8" standalone="no"?>
<!DOCTYPE svg PUBLIC "-//W3C//DTD SVG 1.1//EN"
 "http://www.w3.org/Graphics/SVG/1.1/DTD/svg11.dtd">
<!-- Generated by graphviz version 2.40.1 (20161225.0304)
 -->
<!-- Title: Interface using direct functionality. Pages: 1 -->
<svg width="422pt" height="39pt"
 viewBox="0.00 0.00 422.00 39.00" xmlns="http://www.w3.org/2000/svg" xmlns:xlink="http://www.w3.org/1999/xlink">
<g id="graph0" class="graph" transform="scale(1 1) rotate(0) translate(4 35)">
<title>Interface using direct functionality.</title>
<polygon fill="#ffffff" stroke="transparent" points="-4,4 -4,-35 418,-35 418,4 -4,4"/>
<!-- Node2 -->
<g id="node1" class="node">
<title>Node2</title>
<g id="a_node1"><a xlink:href="group__l4irq__api__irq__cap.html" target="_top" xlink:title="Interface using direct\l functionality.">
<polygon fill="#ffffff" stroke="#000000" points="298,-.5 298,-30.5 414,-30.5 414,-.5 298,-.5"/>
<text text-anchor="start" x="306" y="-18.5" font-family="Helvetica,sans-Serif" font-size="10.00" fill="#000000">Interface using direct</text>
<text text-anchor="middle" x="356" y="-7.5" font-family="Helvetica,sans-Serif" font-size="10.00" fill="#000000"> functionality.</text>
</a>
</g>
</g>
<!-- Node1 -->
<g id="node2" class="node">
<title>Node1</title>
<g id="a_node2"><a xlink:href="group__l4irq__api.html" target="_top" xlink:title="IRQ handling library">
<polygon fill="#ffffff" stroke="#000000" points="0,-6 0,-25 110,-25 110,-6 0,-6"/>
<text text-anchor="middle" x="55" y="-13" font-family="Helvetica,sans-Serif" font-size="10.00" fill="#000000">IRQ handling library</text>
</a>
</g>
</g>
<!-- Node0 -->
<g id="node3" class="node">
<title>Node0</title>
<polygon fill="#bfbfbf" stroke="#000000" points="146,-.5 146,-30.5 262,-30.5 262,-.5 146,-.5"/>
<text text-anchor="start" x="154" y="-18.5" font-family="Helvetica,sans-Serif" font-size="10.00" fill="#000000">Interface using direct</text>
<text text-anchor="middle" x="204" y="-7.5" font-family="Helvetica,sans-Serif" font-size="10.00" fill="#000000"> functionality.</text>
</g>
<!-- Node1&#45;&gt;Node0 -->
<g id="edge1" class="edge">
<title>Node1&#45;&gt;Node0</title>
<path fill="none" stroke="#000000" d="M120.3367,-15.5C128.8538,-15.5 137.5331,-15.5 145.9202,-15.5"/>
<polygon fill="#000000" stroke="#000000" points="120.0588,-12.0001 110.0588,-15.5 120.0587,-19.0001 120.0588,-12.0001"/>
</g>
<!-- Node0&#45;&gt;Node2 -->
<g id="edge2" class="edge">
<title>Node0&#45;&gt;Node2</title>
<path fill="none" stroke="#000000" d="M272.5423,-15.5C280.9862,-15.5 289.5541,-15.5 297.8236,-15.5"/>
<polygon fill="#000000" stroke="#000000" points="272.3325,-12.0001 262.3325,-15.5 272.3324,-19.0001 272.3325,-12.0001"/>
</g>
</g>
</svg>
