<?xml version="1.0" encoding="UTF-8" standalone="no"?>
<!DOCTYPE svg PUBLIC "-//W3C//DTD SVG 1.1//EN"
 "http://www.w3.org/Graphics/SVG/1.1/DTD/svg11.dtd">
<!-- Generated by graphviz version 2.40.1 (20161225.0304)
 -->
<!-- Title: l4_thread_yield Pages: 1 -->
<svg width="298pt" height="28pt"
 viewBox="0.00 0.00 298.00 28.00" xmlns="http://www.w3.org/2000/svg" xmlns:xlink="http://www.w3.org/1999/xlink">
<g id="graph0" class="graph" transform="scale(1 1) rotate(0) translate(4 24)">
<title>l4_thread_yield</title>
<polygon fill="#ffffff" stroke="transparent" points="-4,4 -4,-24 294,-24 294,4 -4,4"/>
<!-- Node50 -->
<g id="node1" class="node">
<title>Node50</title>
<polygon fill="#bfbfbf" stroke="#000000" points="0,-.5 0,-19.5 89,-19.5 89,-.5 0,-.5"/>
<text text-anchor="middle" x="44.5" y="-7.5" font-family="Helvetica,sans-Serif" font-size="10.00" fill="#000000">l4_thread_yield</text>
</g>
<!-- Node51 -->
<g id="node2" class="node">
<title>Node51</title>
<g id="a_node2"><a xlink:href="group__l4__ipc__api.html#ga3a8617092651c67f9ef1670b53fce66c" target="_top" xlink:title="Wait for a message from a specific source. ">
<polygon fill="#ffffff" stroke="#000000" points="125,-.5 125,-19.5 210,-19.5 210,-.5 125,-.5"/>
<text text-anchor="middle" x="167.5" y="-7.5" font-family="Helvetica,sans-Serif" font-size="10.00" fill="#000000">l4_ipc_receive</text>
</a>
</g>
</g>
<!-- Node50&#45;&gt;Node51 -->
<g id="edge1" class="edge">
<title>Node50&#45;&gt;Node51</title>
<path fill="none" stroke="#191970" d="M89.2538,-10C97.4578,-10 106.0922,-10 114.5098,-10"/>
<polygon fill="#191970" stroke="#191970" points="114.6263,-13.5001 124.6263,-10 114.6262,-6.5001 114.6263,-13.5001"/>
</g>
<!-- Node52 -->
<g id="node3" class="node">
<title>Node52</title>
<g id="a_node3"><a xlink:href="group__l4__ipc__api.html#ga0e7e5b18d784b1d3439ea6e5b4bea4e2" target="_top" xlink:title="Generic L4 object invocation. ">
<polygon fill="#ffffff" stroke="#000000" points="246,-.5 246,-19.5 290,-19.5 290,-.5 246,-.5"/>
<text text-anchor="middle" x="268" y="-7.5" font-family="Helvetica,sans-Serif" font-size="10.00" fill="#000000">l4_ipc</text>
</a>
</g>
</g>
<!-- Node51&#45;&gt;Node52 -->
<g id="edge2" class="edge">
<title>Node51&#45;&gt;Node52</title>
<path fill="none" stroke="#191970" d="M210.121,-10C218.6766,-10 227.5343,-10 235.6707,-10"/>
<polygon fill="#191970" stroke="#191970" points="235.8652,-13.5001 245.8652,-10 235.8651,-6.5001 235.8652,-13.5001"/>
</g>
</g>
</svg>
