<?xml version="1.0" encoding="UTF-8" standalone="no"?>
<!DOCTYPE svg PUBLIC "-//W3C//DTD SVG 1.1//EN"
 "http://www.w3.org/Graphics/SVG/1.1/DTD/svg11.dtd">
<!-- Generated by graphviz version 2.40.1 (20161225.0304)
 -->
<!-- Title: l4_vcon_write_u Pages: 1 -->
<svg width="221pt" height="66pt"
 viewBox="0.00 0.00 221.00 66.00" xmlns="http://www.w3.org/2000/svg" xmlns:xlink="http://www.w3.org/1999/xlink">
<g id="graph0" class="graph" transform="scale(1 1) rotate(0) translate(4 62)">
<title>l4_vcon_write_u</title>
<polygon fill="#ffffff" stroke="transparent" points="-4,4 -4,-62 217,-62 217,4 -4,4"/>
<!-- Node48 -->
<g id="node1" class="node">
<title>Node48</title>
<polygon fill="#bfbfbf" stroke="#000000" points="0,-19.5 0,-38.5 93,-38.5 93,-19.5 0,-19.5"/>
<text text-anchor="middle" x="46.5" y="-26.5" font-family="Helvetica,sans-Serif" font-size="10.00" fill="#000000">l4_vcon_write_u</text>
</g>
<!-- Node49 -->
<g id="node2" class="node">
<title>Node49</title>
<g id="a_node2"><a xlink:href="group__l4__vcon__api.html#ga9f083a69c2c51329da6778a3af0331bc" target="_top" xlink:title="Write data to virtual console. ">
<polygon fill="#ffffff" stroke="#000000" points="130,-38.5 130,-57.5 212,-57.5 212,-38.5 130,-38.5"/>
<text text-anchor="middle" x="171" y="-45.5" font-family="Helvetica,sans-Serif" font-size="10.00" fill="#000000">l4_vcon_write</text>
</a>
</g>
</g>
<!-- Node48&#45;&gt;Node49 -->
<g id="edge1" class="edge">
<title>Node48&#45;&gt;Node49</title>
<path fill="none" stroke="#191970" d="M103.2069,-37.6541C112.1514,-39.0191 121.2497,-40.4076 129.7554,-41.7056"/>
<polygon fill="#191970" stroke="#191970" points="103.627,-34.1777 93.2134,-36.129 102.5709,-41.0976 103.627,-34.1777"/>
</g>
<!-- Node50 -->
<g id="node3" class="node">
<title>Node50</title>
<g id="a_node3"><a xlink:href="classL4_1_1Vcon.html#a83407df2f5b674126d33505d73f5d34b" target="_top" xlink:title="Write data to this virtual console. ">
<polygon fill="#ffffff" stroke="#000000" points="129,-.5 129,-19.5 213,-19.5 213,-.5 129,-.5"/>
<text text-anchor="middle" x="171" y="-7.5" font-family="Helvetica,sans-Serif" font-size="10.00" fill="#000000">L4::Vcon::write</text>
</a>
</g>
</g>
<!-- Node48&#45;&gt;Node50 -->
<g id="edge2" class="edge">
<title>Node48&#45;&gt;Node50</title>
<path fill="none" stroke="#191970" d="M103.2566,-20.3383C111.9021,-19.019 120.69,-17.6778 128.9463,-16.4178"/>
<polygon fill="#191970" stroke="#191970" points="102.5709,-16.9024 93.2134,-21.871 103.627,-23.8223 102.5709,-16.9024"/>
</g>
</g>
</svg>
