<?xml version="1.0" encoding="UTF-8" standalone="no"?>
<!DOCTYPE svg PUBLIC "-//W3C//DTD SVG 1.1//EN"
 "http://www.w3.org/Graphics/SVG/1.1/DTD/svg11.dtd">
<!-- Generated by graphviz version 2.40.1 (20161225.0304)
 -->
<!-- Title: l4_msgtag Pages: 1 -->
<svg width="216pt" height="142pt"
 viewBox="0.00 0.00 216.00 142.00" xmlns="http://www.w3.org/2000/svg" xmlns:xlink="http://www.w3.org/1999/xlink">
<g id="graph0" class="graph" transform="scale(1 1) rotate(0) translate(4 138)">
<title>l4_msgtag</title>
<polygon fill="#ffffff" stroke="transparent" points="-4,4 -4,-138 212,-138 212,4 -4,4"/>
<!-- Node0 -->
<g id="node1" class="node">
<title>Node0</title>
<polygon fill="#bfbfbf" stroke="#000000" points="0,-57.5 0,-76.5 65,-76.5 65,-57.5 0,-57.5"/>
<text text-anchor="middle" x="32.5" y="-64.5" font-family="Helvetica,sans-Serif" font-size="10.00" fill="#000000">l4_msgtag</text>
</g>
<!-- Node1 -->
<g id="node2" class="node">
<title>Node1</title>
<g id="a_node2"><a xlink:href="structl4__msgtag__t.html#af6b9564a9a16427cec0e81a4628996b8" target="_top" xlink:title="Get the flags value. ">
<polygon fill="#ffffff" stroke="#000000" points="104,-114.5 104,-133.5 205,-133.5 205,-114.5 104,-114.5"/>
<text text-anchor="middle" x="154.5" y="-121.5" font-family="Helvetica,sans-Serif" font-size="10.00" fill="#000000">l4_msgtag_t::flags</text>
</a>
</g>
</g>
<!-- Node0&#45;&gt;Node1 -->
<g id="edge1" class="edge">
<title>Node0&#45;&gt;Node1</title>
<path fill="none" stroke="#191970" d="M47.901,-76.5094C61.5417,-84.6957 82.1578,-96.4981 101,-105 105.4809,-107.0219 110.2465,-108.9771 115.0158,-110.8149"/>
<polygon fill="#191970" stroke="#191970" points="114.1274,-114.218 124.7206,-114.406 116.5567,-107.6531 114.1274,-114.218"/>
</g>
<!-- Node2 -->
<g id="node3" class="node">
<title>Node2</title>
<g id="a_node3"><a xlink:href="structl4__msgtag__t.html#ad014e4a9f4509b068ddda678f6f8d568" target="_top" xlink:title="Get the number of typed items. ">
<polygon fill="#ffffff" stroke="#000000" points="102.5,-76.5 102.5,-95.5 206.5,-95.5 206.5,-76.5 102.5,-76.5"/>
<text text-anchor="middle" x="154.5" y="-83.5" font-family="Helvetica,sans-Serif" font-size="10.00" fill="#000000">l4_msgtag_t::items</text>
</a>
</g>
</g>
<!-- Node0&#45;&gt;Node2 -->
<g id="edge2" class="edge">
<title>Node0&#45;&gt;Node2</title>
<path fill="none" stroke="#191970" d="M65.1938,-72.0917C73.5908,-73.3994 82.9073,-74.8503 92.2627,-76.3073"/>
<polygon fill="#191970" stroke="#191970" points="91.9683,-79.8036 102.3878,-77.8842 93.0455,-72.8869 91.9683,-79.8036"/>
</g>
<!-- Node3 -->
<g id="node4" class="node">
<title>Node3</title>
<g id="a_node4"><a xlink:href="structl4__msgtag__t.html#a002076380a3f6e4f29a1f6b50ce2bde2" target="_top" xlink:title="Get the protocol value. ">
<polygon fill="#ffffff" stroke="#000000" points="104,-38.5 104,-57.5 205,-57.5 205,-38.5 104,-38.5"/>
<text text-anchor="middle" x="154.5" y="-45.5" font-family="Helvetica,sans-Serif" font-size="10.00" fill="#000000">l4_msgtag_t::label</text>
</a>
</g>
</g>
<!-- Node0&#45;&gt;Node3 -->
<g id="edge3" class="edge">
<title>Node0&#45;&gt;Node3</title>
<path fill="none" stroke="#191970" d="M65.1938,-61.9083C73.9944,-60.5378 83.8051,-59.0099 93.612,-57.4826"/>
<polygon fill="#191970" stroke="#191970" points="94.4455,-60.895 103.7878,-55.8978 93.3683,-53.9784 94.4455,-60.895"/>
</g>
<!-- Node4 -->
<g id="node5" class="node">
<title>Node4</title>
<g id="a_node5"><a xlink:href="structl4__msgtag__t.html#a98577ea730d9abcd938b89d5c7adb18c" target="_top" xlink:title="Get the number of untyped words. ">
<polygon fill="#ffffff" stroke="#000000" points="101,-.5 101,-19.5 208,-19.5 208,-.5 101,-.5"/>
<text text-anchor="middle" x="154.5" y="-7.5" font-family="Helvetica,sans-Serif" font-size="10.00" fill="#000000">l4_msgtag_t::words</text>
</a>
</g>
</g>
<!-- Node0&#45;&gt;Node4 -->
<g id="edge4" class="edge">
<title>Node0&#45;&gt;Node4</title>
<path fill="none" stroke="#191970" d="M47.901,-57.4906C61.5417,-49.3043 82.1578,-37.5019 101,-29 105.4809,-26.9781 110.2465,-25.0229 115.0158,-23.1851"/>
<polygon fill="#191970" stroke="#191970" points="116.5567,-26.3469 124.7206,-19.594 114.1274,-19.782 116.5567,-26.3469"/>
</g>
</g>
</svg>
