<?xml version="1.0" encoding="UTF-8" standalone="no"?>
<!DOCTYPE svg PUBLIC "-//W3C//DTD SVG 1.1//EN"
 "http://www.w3.org/Graphics/SVG/1.1/DTD/svg11.dtd">
<!-- Generated by graphviz version 2.40.1 (20161225.0304)
 -->
<!-- Title: l4_factory_create_thread Pages: 1 -->
<svg width="327pt" height="66pt"
 viewBox="0.00 0.00 327.00 66.00" xmlns="http://www.w3.org/2000/svg" xmlns:xlink="http://www.w3.org/1999/xlink">
<g id="graph0" class="graph" transform="scale(1 1) rotate(0) translate(4 62)">
<title>l4_factory_create_thread</title>
<polygon fill="#ffffff" stroke="transparent" points="-4,4 -4,-62 323,-62 323,4 -4,4"/>
<!-- Node32 -->
<g id="node1" class="node">
<title>Node32</title>
<polygon fill="#bfbfbf" stroke="#000000" points="0,-19.5 0,-38.5 136,-38.5 136,-19.5 0,-19.5"/>
<text text-anchor="middle" x="68" y="-26.5" font-family="Helvetica,sans-Serif" font-size="10.00" fill="#000000">l4_factory_create_thread</text>
</g>
<!-- Node33 -->
<g id="node2" class="node">
<title>Node33</title>
<g id="a_node2"><a xlink:href="group__l4__factory__api.html#gae2d74a5b658a47fcd6bd74eee6409fdb" target="_top" xlink:title="Create a new thread. ">
<polygon fill="#ffffff" stroke="#000000" points="172,-38.5 172,-57.5 319,-57.5 319,-38.5 172,-38.5"/>
<text text-anchor="middle" x="245.5" y="-45.5" font-family="Helvetica,sans-Serif" font-size="10.00" fill="#000000">l4_factory_create_thread_u</text>
</a>
</g>
</g>
<!-- Node32&#45;&gt;Node33 -->
<g id="edge1" class="edge">
<title>Node32&#45;&gt;Node33</title>
<path fill="none" stroke="#191970" d="M136.1185,-36.2916C144.5508,-37.1942 153.2461,-38.1249 161.8766,-39.0488"/>
<polygon fill="#191970" stroke="#191970" points="161.6428,-42.5436 171.9585,-40.128 162.3879,-35.5834 161.6428,-42.5436"/>
</g>
<!-- Node34 -->
<g id="node3" class="node">
<title>Node34</title>
<g id="a_node3"><a xlink:href="group__l4__utcb__api.html#gadc099b4a59e1d99638c72c11a8c8b644" target="_top" xlink:title="Get the UTCB address. ">
<polygon fill="#ffffff" stroke="#000000" points="220.5,-.5 220.5,-19.5 270.5,-19.5 270.5,-.5 220.5,-.5"/>
<text text-anchor="middle" x="245.5" y="-7.5" font-family="Helvetica,sans-Serif" font-size="10.00" fill="#000000">l4_utcb</text>
</a>
</g>
</g>
<!-- Node32&#45;&gt;Node34 -->
<g id="edge2" class="edge">
<title>Node32&#45;&gt;Node34</title>
<path fill="none" stroke="#191970" d="M136.1185,-21.7084C161.3764,-19.0048 188.9944,-16.0485 210.1598,-13.7829"/>
<polygon fill="#191970" stroke="#191970" points="210.7217,-17.2428 220.2924,-12.6983 209.9766,-10.2826 210.7217,-17.2428"/>
</g>
</g>
</svg>
