<?xml version="1.0" encoding="UTF-8" standalone="no"?>
<!DOCTYPE svg PUBLIC "-//W3C//DTD SVG 1.1//EN"
 "http://www.w3.org/Graphics/SVG/1.1/DTD/svg11.dtd">
<!-- Generated by graphviz version 2.40.1 (20161225.0304)
 -->
<!-- Title: l4_task_map Pages: 1 -->
<svg width="387pt" height="137pt"
 viewBox="0.00 0.00 387.00 137.00" xmlns="http://www.w3.org/2000/svg" xmlns:xlink="http://www.w3.org/1999/xlink">
<g id="graph0" class="graph" transform="scale(1 1) rotate(0) translate(4 133)">
<title>l4_task_map</title>
<polygon fill="#ffffff" stroke="transparent" points="-4,4 -4,-133 383,-133 383,4 -4,4"/>
<!-- Node9 -->
<g id="node1" class="node">
<title>Node9</title>
<polygon fill="#bfbfbf" stroke="#000000" points="0,-55 0,-74 77,-74 77,-55 0,-55"/>
<text text-anchor="middle" x="38.5" y="-62" font-family="Helvetica,sans-Serif" font-size="10.00" fill="#000000">l4_task_map</text>
</g>
<!-- Node10 -->
<g id="node2" class="node">
<title>Node10</title>
<g id="a_node2"><a xlink:href="classL4_1_1Cap__base.html#a1501f9852fda4c01a1591a7c53585d5f" target="_top" xlink:title="Copy a capability. ">
<polygon fill="#ffffff" stroke="#000000" points="114.5,-74 114.5,-93 222.5,-93 222.5,-74 114.5,-74"/>
<text text-anchor="middle" x="168.5" y="-81" font-family="Helvetica,sans-Serif" font-size="10.00" fill="#000000">L4::Cap_base::copy</text>
</a>
</g>
</g>
<!-- Node9&#45;&gt;Node10 -->
<g id="edge1" class="edge">
<title>Node9&#45;&gt;Node10</title>
<path fill="none" stroke="#191970" d="M87.2851,-71.6301C96.1201,-72.9214 105.3821,-74.2751 114.3596,-75.5872"/>
<polygon fill="#191970" stroke="#191970" points="87.5534,-68.1322 77.1523,-70.1492 86.541,-75.0586 87.5534,-68.1322"/>
</g>
<!-- Node13 -->
<g id="node5" class="node">
<title>Node13</title>
<g id="a_node5"><a xlink:href="classL4_1_1Cap__base.html#ab6cd8e73ebbdb5dfa45355b7c1fde1c2" target="_top" xlink:title="Replace this capability with the contents of src. ">
<polygon fill="#ffffff" stroke="#000000" points="113,-36 113,-55 224,-55 224,-36 113,-36"/>
<text text-anchor="middle" x="168.5" y="-43" font-family="Helvetica,sans-Serif" font-size="10.00" fill="#000000">L4::Cap_base::move</text>
</a>
</g>
</g>
<!-- Node9&#45;&gt;Node13 -->
<g id="edge4" class="edge">
<title>Node9&#45;&gt;Node13</title>
<path fill="none" stroke="#191970" d="M87.1632,-57.3877C95.5624,-56.1601 104.3506,-54.8757 112.9161,-53.6238"/>
<polygon fill="#191970" stroke="#191970" points="86.541,-53.9414 77.1523,-58.8508 87.5534,-60.8678 86.541,-53.9414"/>
</g>
<!-- Node11 -->
<g id="node3" class="node">
<title>Node11</title>
<g id="a_node3"><a xlink:href="classL4_1_1Cap.html#a03750491e2cb888d26e2fbdfcc0b7dbc" target="_top" xlink:title="Copy a capability to this cap slot. ">
<polygon fill="#ffffff" stroke="#000000" points="260,-98.5 260,-128.5 379,-128.5 379,-98.5 260,-98.5"/>
<text text-anchor="start" x="268" y="-116.5" font-family="Helvetica,sans-Serif" font-size="10.00" fill="#000000">L4::Cap&lt; L4Re::Video</text>
<text text-anchor="middle" x="319.5" y="-105.5" font-family="Helvetica,sans-Serif" font-size="10.00" fill="#000000">::Goos &gt;::copy</text>
</a>
</g>
</g>
<!-- Node10&#45;&gt;Node11 -->
<g id="edge2" class="edge">
<title>Node10&#45;&gt;Node11</title>
<path fill="none" stroke="#191970" d="M226.5429,-95.0317C237.4572,-97.2001 248.8864,-99.4708 259.8487,-101.6488"/>
<polygon fill="#191970" stroke="#191970" points="227.1829,-91.5905 216.6925,-93.0747 225.8187,-98.4563 227.1829,-91.5905"/>
</g>
<!-- Node12 -->
<g id="node4" class="node">
<title>Node12</title>
<g id="a_node4"><a xlink:href="classL4_1_1Cap.html#ab183360065af90ee45b808e8c9e626aa" target="_top" xlink:title="Member access of a T. ">
<polygon fill="#ffffff" stroke="#000000" points="260,-49.5 260,-79.5 379,-79.5 379,-49.5 260,-49.5"/>
<text text-anchor="start" x="268" y="-67.5" font-family="Helvetica,sans-Serif" font-size="10.00" fill="#000000">L4::Cap&lt; L4Re::Video</text>
<text text-anchor="middle" x="319.5" y="-56.5" font-family="Helvetica,sans-Serif" font-size="10.00" fill="#000000">::Goos &gt;::operator&#45;&gt;</text>
</a>
</g>
</g>
<!-- Node10&#45;&gt;Node12 -->
<g id="edge3" class="edge">
<title>Node10&#45;&gt;Node12</title>
<path fill="none" stroke="#191970" d="M232.6659,-75.4262C241.7006,-74.2893 250.9569,-73.1246 259.9013,-71.9992"/>
<polygon fill="#191970" stroke="#191970" points="232.0727,-71.9731 222.588,-76.6942 232.9467,-78.9183 232.0727,-71.9731"/>
</g>
<!-- Node13&#45;&gt;Node12 -->
<g id="edge6" class="edge">
<title>Node13&#45;&gt;Node12</title>
<path fill="none" stroke="#191970" d="M234.4898,-53.8033C242.9347,-54.866 251.5409,-55.9489 259.8767,-56.9977"/>
<polygon fill="#191970" stroke="#191970" points="234.6566,-50.2968 224.2978,-52.5209 233.7826,-57.2421 234.6566,-50.2968"/>
</g>
<!-- Node14 -->
<g id="node6" class="node">
<title>Node14</title>
<g id="a_node6"><a xlink:href="classL4_1_1Cap.html#ae097fe17d218b76dc368a5383372168f" target="_top" xlink:title="Move a capability to this cap slot. ">
<polygon fill="#ffffff" stroke="#000000" points="260,-.5 260,-30.5 379,-30.5 379,-.5 260,-.5"/>
<text text-anchor="start" x="268" y="-18.5" font-family="Helvetica,sans-Serif" font-size="10.00" fill="#000000">L4::Cap&lt; L4Re::Video</text>
<text text-anchor="middle" x="319.5" y="-7.5" font-family="Helvetica,sans-Serif" font-size="10.00" fill="#000000">::Goos &gt;::move</text>
</a>
</g>
</g>
<!-- Node13&#45;&gt;Node14 -->
<g id="edge5" class="edge">
<title>Node13&#45;&gt;Node14</title>
<path fill="none" stroke="#191970" d="M226.5429,-33.9683C237.4572,-31.7999 248.8864,-29.5292 259.8487,-27.3512"/>
<polygon fill="#191970" stroke="#191970" points="225.8187,-30.5437 216.6925,-35.9253 227.1829,-37.4095 225.8187,-30.5437"/>
</g>
</g>
</svg>
