<?xml version="1.0" encoding="UTF-8" standalone="no"?>
<!DOCTYPE svg PUBLIC "-//W3C//DTD SVG 1.1//EN"
 "http://www.w3.org/Graphics/SVG/1.1/DTD/svg11.dtd">
<!-- Generated by graphviz version 2.40.1 (20161225.0304)
 -->
<!-- Title: l4virtio_config_queue Pages: 1 -->
<svg width="412pt" height="39pt"
 viewBox="0.00 0.00 412.00 39.00" xmlns="http://www.w3.org/2000/svg" xmlns:xlink="http://www.w3.org/1999/xlink">
<g id="graph0" class="graph" transform="scale(1 1) rotate(0) translate(4 35)">
<title>l4virtio_config_queue</title>
<polygon fill="#ffffff" stroke="transparent" points="-4,4 -4,-35 408,-35 408,4 -4,4"/>
<!-- Node1 -->
<g id="node1" class="node">
<title>Node1</title>
<polygon fill="#bfbfbf" stroke="#000000" points="0,-6 0,-25 116,-25 116,-6 0,-6"/>
<text text-anchor="middle" x="58" y="-13" font-family="Helvetica,sans-Serif" font-size="10.00" fill="#000000">l4virtio_config_queue</text>
</g>
<!-- Node2 -->
<g id="node2" class="node">
<title>Node2</title>
<g id="a_node2"><a xlink:href="group__l4virtio__transport.html#gae37bcd45875b27b302320e6b9580191d" target="_top" xlink:title="Check if the given bit in a feature map is set. ">
<polygon fill="#ffffff" stroke="#000000" points="152,-6 152,-25 259,-25 259,-6 152,-6"/>
<text text-anchor="middle" x="205.5" y="-13" font-family="Helvetica,sans-Serif" font-size="10.00" fill="#000000">l4virtio_get_feature</text>
</a>
</g>
</g>
<!-- Node1&#45;&gt;Node2 -->
<g id="edge1" class="edge">
<title>Node1&#45;&gt;Node2</title>
<path fill="none" stroke="#191970" d="M126.3175,-15.5C134.9173,-15.5 143.6161,-15.5 151.9428,-15.5"/>
<polygon fill="#191970" stroke="#191970" points="126.2959,-12.0001 116.2959,-15.5 126.2959,-19.0001 126.2959,-12.0001"/>
</g>
<!-- Node3 -->
<g id="node3" class="node">
<title>Node3</title>
<g id="a_node3"><a xlink:href="classL4virtio_1_1Svr_1_1Dev__config.html#ac0a15fe6ca82defa26c36e37447275eb" target="_top" xlink:title="Setup an L4&#45;Virtio config space in an existing data space. ">
<polygon fill="#ffffff" stroke="#000000" points="295,-.5 295,-30.5 404,-30.5 404,-.5 295,-.5"/>
<text text-anchor="start" x="303" y="-18.5" font-family="Helvetica,sans-Serif" font-size="10.00" fill="#000000">L4virtio::Svr::Dev</text>
<text text-anchor="middle" x="349.5" y="-7.5" font-family="Helvetica,sans-Serif" font-size="10.00" fill="#000000">_config::Dev_config</text>
</a>
</g>
</g>
<!-- Node2&#45;&gt;Node3 -->
<g id="edge2" class="edge">
<title>Node2&#45;&gt;Node3</title>
<path fill="none" stroke="#191970" d="M269.3851,-15.5C277.8893,-15.5 286.5464,-15.5 294.8737,-15.5"/>
<polygon fill="#191970" stroke="#191970" points="269.1203,-12.0001 259.1203,-15.5 269.1203,-19.0001 269.1203,-12.0001"/>
</g>
</g>
</svg>
