<?xml version="1.0" encoding="UTF-8" standalone="no"?>
<!DOCTYPE svg PUBLIC "-//W3C//DTD SVG 1.1//EN"
 "http://www.w3.org/Graphics/SVG/1.1/DTD/svg11.dtd">
<!-- Generated by graphviz version 2.40.1 (20161225.0304)
 -->
<!-- Title: Virtual Registers (UTCBs) Pages: 1 -->
<svg width="415pt" height="264pt"
 viewBox="0.00 0.00 415.00 264.00" xmlns="http://www.w3.org/2000/svg" xmlns:xlink="http://www.w3.org/1999/xlink">
<g id="graph0" class="graph" transform="scale(1 1) rotate(0) translate(4 260)">
<title>Virtual Registers (UTCBs)</title>
<polygon fill="#ffffff" stroke="transparent" points="-4,4 -4,-260 411,-260 411,4 -4,4"/>
<!-- Node7 -->
<g id="node1" class="node">
<title>Node7</title>
<g id="a_node1"><a xlink:href="group__l4__utcb__api__x86.html" target="_top" xlink:title="x86 Virtual Registers\l (UTCB)">
<polygon fill="#ffffff" stroke="#000000" points="280,-225.5 280,-255.5 394,-255.5 394,-225.5 280,-225.5"/>
<text text-anchor="start" x="288" y="-243.5" font-family="Helvetica,sans-Serif" font-size="10.00" fill="#000000">x86 Virtual Registers</text>
<text text-anchor="middle" x="337" y="-232.5" font-family="Helvetica,sans-Serif" font-size="10.00" fill="#000000"> (UTCB)</text>
</a>
</g>
</g>
<!-- Node3 -->
<g id="node2" class="node">
<title>Node3</title>
<g id="a_node2"><a xlink:href="group__l4__utcb__br__api.html" target="_top" xlink:title="Buffer Registers (BRs)">
<polygon fill="#ffffff" stroke="#000000" points="276,-187 276,-206 398,-206 398,-187 276,-187"/>
<text text-anchor="middle" x="337" y="-194" font-family="Helvetica,sans-Serif" font-size="10.00" fill="#000000">Buffer Registers (BRs)</text>
</a>
</g>
</g>
<!-- Node0 -->
<g id="node3" class="node">
<title>Node0</title>
<polygon fill="#bfbfbf" stroke="#000000" points="134,-112.5 134,-142.5 231,-142.5 231,-112.5 134,-112.5"/>
<text text-anchor="start" x="142" y="-130.5" font-family="Helvetica,sans-Serif" font-size="10.00" fill="#000000">Virtual Registers </text>
<text text-anchor="middle" x="182.5" y="-119.5" font-family="Helvetica,sans-Serif" font-size="10.00" fill="#000000">(UTCBs)</text>
</g>
<!-- Node0&#45;&gt;Node7 -->
<g id="edge7" class="edge">
<title>Node0&#45;&gt;Node7</title>
<path fill="none" stroke="#000000" d="M199.7567,-150.7767C215.3893,-170.4218 240.0476,-198.0583 267,-215.5 272.8503,-219.2859 279.3472,-222.587 285.9575,-225.4394"/>
<polygon fill="#000000" stroke="#000000" points="202.332,-148.3867 193.4315,-142.6393 196.8052,-152.6827 202.332,-148.3867"/>
</g>
<!-- Node0&#45;&gt;Node3 -->
<g id="edge3" class="edge">
<title>Node0&#45;&gt;Node3</title>
<path fill="none" stroke="#000000" d="M212.9324,-148.2164C228.564,-158.1449 248.2293,-169.5711 267,-177.5 275.7,-181.175 285.3105,-184.3274 294.5513,-186.9481"/>
<polygon fill="#000000" stroke="#000000" points="214.5281,-145.0799 204.2321,-142.5814 210.7228,-150.9553 214.5281,-145.0799"/>
</g>
<!-- Node6 -->
<g id="node4" class="node">
<title>Node6</title>
<g id="a_node4"><a xlink:href="group__l4__utcb__api__amd64.html" target="_top" xlink:title="amd64 Virtual Registers\l (UTCB)">
<polygon fill="#ffffff" stroke="#000000" points="272.5,-137.5 272.5,-167.5 401.5,-167.5 401.5,-137.5 272.5,-137.5"/>
<text text-anchor="start" x="280.5" y="-155.5" font-family="Helvetica,sans-Serif" font-size="10.00" fill="#000000">amd64 Virtual Registers</text>
<text text-anchor="middle" x="337" y="-144.5" font-family="Helvetica,sans-Serif" font-size="10.00" fill="#000000"> (UTCB)</text>
</a>
</g>
</g>
<!-- Node0&#45;&gt;Node6 -->
<g id="edge6" class="edge">
<title>Node0&#45;&gt;Node6</title>
<path fill="none" stroke="#000000" d="M241.3368,-137.0205C251.4662,-138.6596 262.0441,-140.3712 272.3174,-142.0336"/>
<polygon fill="#000000" stroke="#000000" points="241.8155,-133.5525 231.3848,-135.4102 240.6973,-140.4626 241.8155,-133.5525"/>
</g>
<!-- Node4 -->
<g id="node5" class="node">
<title>Node4</title>
<g id="a_node5"><a xlink:href="group__l4__utcb__tcr__api.html" target="_top" xlink:title="Thread Control Registers\l (TCRs)">
<polygon fill="#ffffff" stroke="#000000" points="268.5,-88.5 268.5,-118.5 405.5,-118.5 405.5,-88.5 268.5,-88.5"/>
<text text-anchor="start" x="276.5" y="-106.5" font-family="Helvetica,sans-Serif" font-size="10.00" fill="#000000">Thread Control Registers</text>
<text text-anchor="middle" x="337" y="-95.5" font-family="Helvetica,sans-Serif" font-size="10.00" fill="#000000"> (TCRs)</text>
</a>
</g>
</g>
<!-- Node0&#45;&gt;Node4 -->
<g id="edge4" class="edge">
<title>Node0&#45;&gt;Node4</title>
<path fill="none" stroke="#000000" d="M241.5177,-118.3322C250.3052,-116.9672 259.4265,-115.5503 268.3906,-114.1578"/>
<polygon fill="#000000" stroke="#000000" points="240.729,-114.9127 231.3848,-119.9063 241.8035,-121.8297 240.729,-114.9127"/>
</g>
<!-- Node2 -->
<g id="node7" class="node">
<title>Node2</title>
<g id="a_node7"><a xlink:href="group__l4__utcb__mr__api.html" target="_top" xlink:title="Message Registers (MRs)">
<polygon fill="#ffffff" stroke="#000000" points="267,-50 267,-69 407,-69 407,-50 267,-50"/>
<text text-anchor="middle" x="337" y="-57" font-family="Helvetica,sans-Serif" font-size="10.00" fill="#000000">Message Registers (MRs)</text>
</a>
</g>
</g>
<!-- Node0&#45;&gt;Node2 -->
<g id="edge2" class="edge">
<title>Node0&#45;&gt;Node2</title>
<path fill="none" stroke="#000000" d="M213.6441,-106.8194C229.18,-97.1931 248.5531,-86.1966 267,-78.5 275.8324,-74.8149 285.5899,-71.6433 294.9449,-69.005"/>
<polygon fill="#000000" stroke="#000000" points="211.5623,-103.9945 204.9762,-112.2935 215.3001,-109.913 211.5623,-103.9945"/>
</g>
<!-- Node5 -->
<g id="node8" class="node">
<title>Node5</title>
<g id="a_node8"><a xlink:href="group__l4__utcb__api__arm.html" target="_top" xlink:title="ARM Virtual Registers\l (UTCB)">
<polygon fill="#ffffff" stroke="#000000" points="277,-.5 277,-30.5 397,-30.5 397,-.5 277,-.5"/>
<text text-anchor="start" x="285" y="-18.5" font-family="Helvetica,sans-Serif" font-size="10.00" fill="#000000">ARM Virtual Registers</text>
<text text-anchor="middle" x="337" y="-7.5" font-family="Helvetica,sans-Serif" font-size="10.00" fill="#000000"> (UTCB)</text>
</a>
</g>
</g>
<!-- Node0&#45;&gt;Node5 -->
<g id="edge5" class="edge">
<title>Node0&#45;&gt;Node5</title>
<path fill="none" stroke="#000000" d="M200.0824,-104.1616C215.7624,-84.7676 240.3113,-57.6631 267,-40.5 272.8611,-36.7308 279.3642,-33.4394 285.9776,-30.5918"/>
<polygon fill="#000000" stroke="#000000" points="197.1786,-102.1913 193.7258,-112.2078 202.6713,-106.5307 197.1786,-102.1913"/>
</g>
<!-- Node1 -->
<g id="node6" class="node">
<title>Node1</title>
<g id="a_node6"><a xlink:href="group__l4__ipc__api.html" target="_top" xlink:title="API for L4 object invocation. ">
<polygon fill="#ffffff" stroke="#000000" points="0,-118 0,-137 98,-137 98,-118 0,-118"/>
<text text-anchor="middle" x="49" y="-125" font-family="Helvetica,sans-Serif" font-size="10.00" fill="#000000">Object Invocation</text>
</a>
</g>
</g>
<!-- Node1&#45;&gt;Node0 -->
<g id="edge1" class="edge">
<title>Node1&#45;&gt;Node0</title>
<path fill="none" stroke="#000000" d="M108.531,-127.5C116.9869,-127.5 125.5992,-127.5 133.8165,-127.5"/>
<polygon fill="#000000" stroke="#000000" points="108.3312,-124.0001 98.3312,-127.5 108.3311,-131.0001 108.3312,-124.0001"/>
</g>
</g>
</svg>
