<?xml version="1.0" encoding="UTF-8" standalone="no"?>
<!DOCTYPE svg PUBLIC "-//W3C//DTD SVG 1.1//EN"
 "http://www.w3.org/Graphics/SVG/1.1/DTD/svg11.dtd">
<!-- Generated by graphviz version 2.40.1 (20161225.0304)
 -->
<!-- Title: cxx::max Pages: 1 -->
<svg width="371pt" height="264pt"
 viewBox="0.00 0.00 371.00 263.50" xmlns="http://www.w3.org/2000/svg" xmlns:xlink="http://www.w3.org/1999/xlink">
<g id="graph0" class="graph" transform="scale(1 1) rotate(0) translate(4 259.5)">
<title>cxx::max</title>
<polygon fill="#ffffff" stroke="transparent" points="-4,4 -4,-259.5 367,-259.5 367,4 -4,4"/>
<!-- Node1 -->
<g id="node1" class="node">
<title>Node1</title>
<polygon fill="#bfbfbf" stroke="#000000" points="0,-132 0,-151 56,-151 56,-132 0,-132"/>
<text text-anchor="middle" x="28" y="-139" font-family="Helvetica,sans-Serif" font-size="10.00" fill="#000000">cxx::max</text>
</g>
<!-- Node2 -->
<g id="node2" class="node">
<title>Node2</title>
<g id="a_node2"><a xlink:href="classcxx_1_1List__alloc.html#a1b8a24564b209e28166253c4e338f7ba" target="_top" xlink:title="Allocate a memory block of min &lt;= size &lt;= max. ">
<polygon fill="#ffffff" stroke="#000000" points="92,-236 92,-255 225,-255 225,-236 92,-236"/>
<text text-anchor="middle" x="158.5" y="-243" font-family="Helvetica,sans-Serif" font-size="10.00" fill="#000000">cxx::List_alloc::alloc_max</text>
</a>
</g>
</g>
<!-- Node1&#45;&gt;Node2 -->
<g id="edge1" class="edge">
<title>Node1&#45;&gt;Node2</title>
<path fill="none" stroke="#191970" d="M38.5985,-160.0045C49.7714,-178.0075 68.9352,-204.9918 92,-221.5 100.5836,-227.6435 110.9049,-232.3679 120.8277,-235.9332"/>
<polygon fill="#191970" stroke="#191970" points="41.3782,-157.8336 33.2394,-151.0504 35.3718,-161.4285 41.3782,-157.8336"/>
</g>
<!-- Node3 -->
<g id="node3" class="node">
<title>Node3</title>
<g id="a_node3"><a xlink:href="classcxx_1_1List__alloc.html#a1fdfc49fafa608f60c191916629b61a4" target="_top" xlink:title="Initializes an empty list allocator. ">
<polygon fill="#ffffff" stroke="#000000" points="261,-211.5 261,-241.5 363,-241.5 363,-211.5 261,-211.5"/>
<text text-anchor="start" x="269" y="-229.5" font-family="Helvetica,sans-Serif" font-size="10.00" fill="#000000">cxx::List_alloc::List</text>
<text text-anchor="middle" x="312" y="-218.5" font-family="Helvetica,sans-Serif" font-size="10.00" fill="#000000">_alloc</text>
</a>
</g>
</g>
<!-- Node1&#45;&gt;Node3 -->
<g id="edge6" class="edge">
<title>Node1&#45;&gt;Node3</title>
<path fill="none" stroke="#191970" d="M45.4982,-157.8472C57.639,-168.2604 74.6847,-181.1336 92,-188.5 146.7482,-211.7914 214.9382,-220.8135 260.7667,-224.3043"/>
<polygon fill="#191970" stroke="#191970" points="47.7348,-155.1525 37.9337,-151.129 43.0865,-160.3864 47.7348,-155.1525"/>
</g>
<!-- Node4 -->
<g id="node4" class="node">
<title>Node4</title>
<g id="a_node4"><a xlink:href="structL4virtio_1_1Svr_1_1Data__buffer.html#a0ae0d4405b3a3ae5aa554b3adece0138" target="_top" xlink:title="Copy contents from this buffer to the destination buffer. ">
<polygon fill="#ffffff" stroke="#000000" points="109.5,-148.5 109.5,-178.5 207.5,-178.5 207.5,-148.5 109.5,-148.5"/>
<text text-anchor="start" x="117.5" y="-166.5" font-family="Helvetica,sans-Serif" font-size="10.00" fill="#000000">L4virtio::Svr::Data</text>
<text text-anchor="middle" x="158.5" y="-155.5" font-family="Helvetica,sans-Serif" font-size="10.00" fill="#000000">_buffer::copy_to</text>
</a>
</g>
</g>
<!-- Node1&#45;&gt;Node4 -->
<g id="edge3" class="edge">
<title>Node1&#45;&gt;Node4</title>
<path fill="none" stroke="#191970" d="M66.2374,-147.9461C79.7541,-150.2248 95.1489,-152.8201 109.4381,-155.229"/>
<polygon fill="#191970" stroke="#191970" points="66.7593,-144.4848 56.3166,-146.2737 65.5956,-151.3874 66.7593,-144.4848"/>
</g>
<!-- Node5 -->
<g id="node5" class="node">
<title>Node5</title>
<g id="a_node5"><a xlink:href="classL4_1_1Scheduler.html#abb665b2f094984fe782c78d2293a79c6" target="_top" xlink:title="Get scheduler information. ">
<polygon fill="#ffffff" stroke="#000000" points="107.5,-110 107.5,-129 209.5,-129 209.5,-110 107.5,-110"/>
<text text-anchor="middle" x="158.5" y="-117" font-family="Helvetica,sans-Serif" font-size="10.00" fill="#000000">L4::Scheduler::info</text>
</a>
</g>
</g>
<!-- Node1&#45;&gt;Node5 -->
<g id="edge4" class="edge">
<title>Node1&#45;&gt;Node5</title>
<path fill="none" stroke="#191970" d="M66.2201,-135.0568C79.0855,-132.8879 93.6539,-130.4319 107.3516,-128.1227"/>
<polygon fill="#191970" stroke="#191970" points="65.5956,-131.6126 56.3166,-136.7263 66.7593,-138.5152 65.5956,-131.6126"/>
</g>
<!-- Node6 -->
<g id="node6" class="node">
<title>Node6</title>
<g id="a_node6"><a xlink:href="classL4virtio_1_1Svr_1_1Driver__mem__list__t.html#a8b6a1e1abadf68d73ceb813ac4cbc703" target="_top" xlink:title="Make a fresh list with capacity max. ">
<polygon fill="#ffffff" stroke="#000000" points="97.5,-50 97.5,-91 219.5,-91 219.5,-50 97.5,-50"/>
<text text-anchor="start" x="105.5" y="-79" font-family="Helvetica,sans-Serif" font-size="10.00" fill="#000000">L4virtio::Svr::Driver</text>
<text text-anchor="start" x="105.5" y="-68" font-family="Helvetica,sans-Serif" font-size="10.00" fill="#000000">_mem_list_t&lt; Ds_data</text>
<text text-anchor="middle" x="158.5" y="-57" font-family="Helvetica,sans-Serif" font-size="10.00" fill="#000000"> &gt;::init</text>
</a>
</g>
</g>
<!-- Node1&#45;&gt;Node6 -->
<g id="edge5" class="edge">
<title>Node1&#45;&gt;Node6</title>
<path fill="none" stroke="#191970" d="M50.4031,-126.0077C62.4696,-117.9577 77.7639,-108.2177 92,-100.5 97.9014,-97.3008 104.2095,-94.1403 110.503,-91.1398"/>
<polygon fill="#191970" stroke="#191970" points="48.1999,-123.2723 41.8758,-131.7727 52.1205,-129.0714 48.1999,-123.2723"/>
</g>
<!-- Node7 -->
<g id="node7" class="node">
<title>Node7</title>
<g id="a_node7"><a xlink:href="classL4_1_1Type__info_1_1Demand.html#af012ede0c0b8f60b8be1846e68d66400" target="_top" xlink:title="get the combined demand of this and rhs ">
<polygon fill="#ffffff" stroke="#000000" points="96,-.5 96,-30.5 221,-30.5 221,-.5 96,-.5"/>
<text text-anchor="start" x="104" y="-18.5" font-family="Helvetica,sans-Serif" font-size="10.00" fill="#000000">L4::Type_info::Demand</text>
<text text-anchor="middle" x="158.5" y="-7.5" font-family="Helvetica,sans-Serif" font-size="10.00" fill="#000000">::operator|</text>
</a>
</g>
</g>
<!-- Node1&#45;&gt;Node7 -->
<g id="edge7" class="edge">
<title>Node1&#45;&gt;Node7</title>
<path fill="none" stroke="#191970" d="M35.5345,-122.5284C45.3675,-100.0283 64.611,-62.7752 92,-40.5 96.6888,-36.6867 102.0189,-33.4172 107.5732,-30.6232"/>
<polygon fill="#191970" stroke="#191970" points="32.2067,-121.4143 31.5758,-131.9903 38.6643,-124.1161 32.2067,-121.4143"/>
</g>
<!-- Node2&#45;&gt;Node3 -->
<g id="edge2" class="edge">
<title>Node2&#45;&gt;Node3</title>
<path fill="none" stroke="#191970" d="M235.383,-235.9835C243.924,-234.9263 252.4629,-233.8694 260.5765,-232.8651"/>
<polygon fill="#191970" stroke="#191970" points="234.8751,-232.5196 225.3808,-237.2216 235.735,-239.4666 234.8751,-232.5196"/>
</g>
</g>
</svg>
