<?xml version="1.0" encoding="UTF-8" standalone="no"?>
<!DOCTYPE svg PUBLIC "-//W3C//DTD SVG 1.1//EN"
 "http://www.w3.org/Graphics/SVG/1.1/DTD/svg11.dtd">
<!-- Generated by graphviz version 2.40.1 (20161225.0304)
 -->
<!-- Title: l4_trunc_page Pages: 1 -->
<svg width="599pt" height="28pt"
 viewBox="0.00 0.00 599.00 28.00" xmlns="http://www.w3.org/2000/svg" xmlns:xlink="http://www.w3.org/1999/xlink">
<g id="graph0" class="graph" transform="scale(1 1) rotate(0) translate(4 24)">
<title>l4_trunc_page</title>
<polygon fill="#ffffff" stroke="transparent" points="-4,4 -4,-24 595,-24 595,4 -4,4"/>
<!-- Node43 -->
<g id="node1" class="node">
<title>Node43</title>
<polygon fill="#bfbfbf" stroke="#000000" points="0,-.5 0,-19.5 84,-19.5 84,-.5 0,-.5"/>
<text text-anchor="middle" x="42" y="-7.5" font-family="Helvetica,sans-Serif" font-size="10.00" fill="#000000">l4_trunc_page</text>
</g>
<!-- Node44 -->
<g id="node2" class="node">
<title>Node44</title>
<g id="a_node2"><a xlink:href="group__l4__memory__api.html#ga792959ba1e87fecf90018876f32d7bc9" target="_top" xlink:title="Round an address down to the next lower flex page with size bits. ">
<polygon fill="#ffffff" stroke="#000000" points="120,-.5 120,-19.5 199,-19.5 199,-.5 120,-.5"/>
<text text-anchor="middle" x="159.5" y="-7.5" font-family="Helvetica,sans-Serif" font-size="10.00" fill="#000000">l4_trunc_size</text>
</a>
</g>
</g>
<!-- Node43&#45;&gt;Node44 -->
<g id="edge1" class="edge">
<title>Node43&#45;&gt;Node44</title>
<path fill="none" stroke="#191970" d="M84.0883,-10C92.3278,-10 101.044,-10 109.5118,-10"/>
<polygon fill="#191970" stroke="#191970" points="109.6687,-13.5001 119.6686,-10 109.6686,-6.5001 109.6687,-13.5001"/>
</g>
<!-- Node45 -->
<g id="node3" class="node">
<title>Node45</title>
<g id="a_node3"><a xlink:href="group__l4__memory__api.html#ga96e3b2d8e69308aecbb11d1d24f61662" target="_top" xlink:title="Round address up to the next page. ">
<polygon fill="#ffffff" stroke="#000000" points="235,-.5 235,-19.5 323,-19.5 323,-.5 235,-.5"/>
<text text-anchor="middle" x="279" y="-7.5" font-family="Helvetica,sans-Serif" font-size="10.00" fill="#000000">l4_round_page</text>
</a>
</g>
</g>
<!-- Node44&#45;&gt;Node45 -->
<g id="edge2" class="edge">
<title>Node44&#45;&gt;Node45</title>
<path fill="none" stroke="#191970" d="M199.2918,-10C207.4011,-10 216.0645,-10 224.5822,-10"/>
<polygon fill="#191970" stroke="#191970" points="224.8528,-13.5001 234.8527,-10 224.8527,-6.5001 224.8528,-13.5001"/>
</g>
<!-- Node46 -->
<g id="node4" class="node">
<title>Node46</title>
<g id="a_node4"><a xlink:href="group__l4__memory__api.html#gae876a4c6e0f21b2ecbf17863dc7d11e4" target="_top" xlink:title="Round value up to the next alignment with bits size. ">
<polygon fill="#ffffff" stroke="#000000" points="359,-.5 359,-19.5 442,-19.5 442,-.5 359,-.5"/>
<text text-anchor="middle" x="400.5" y="-7.5" font-family="Helvetica,sans-Serif" font-size="10.00" fill="#000000">l4_round_size</text>
</a>
</g>
</g>
<!-- Node45&#45;&gt;Node46 -->
<g id="edge3" class="edge">
<title>Node45&#45;&gt;Node46</title>
<path fill="none" stroke="#191970" d="M323.208,-10C331.5049,-10 340.2475,-10 348.7495,-10"/>
<polygon fill="#191970" stroke="#191970" points="348.9548,-13.5001 358.9548,-10 348.9547,-6.5001 348.9548,-13.5001"/>
</g>
<!-- Node47 -->
<g id="node5" class="node">
<title>Node47</title>
<g id="a_node5"><a xlink:href="group__l4__memory__api.html#ga2be30f4e5dde3c85d115d2a9c77f6215" target="_top" xlink:title="Determine how many machine words (l4_umword_t) are required to store a buffer of &#39;size&#39; bytes...">
<polygon fill="#ffffff" stroke="#000000" points="478,-.5 478,-19.5 591,-19.5 591,-.5 478,-.5"/>
<text text-anchor="middle" x="534.5" y="-7.5" font-family="Helvetica,sans-Serif" font-size="10.00" fill="#000000">l4_bytes_to_mwords</text>
</a>
</g>
</g>
<!-- Node46&#45;&gt;Node47 -->
<g id="edge4" class="edge">
<title>Node46&#45;&gt;Node47</title>
<path fill="none" stroke="#191970" d="M442.1639,-10C450.2261,-10 458.8622,-10 467.4984,-10"/>
<polygon fill="#191970" stroke="#191970" points="467.6022,-13.5001 477.6021,-10 467.6021,-6.5001 467.6022,-13.5001"/>
</g>
</g>
</svg>
