<?xml version="1.0" encoding="UTF-8" standalone="no"?>
<!DOCTYPE svg PUBLIC "-//W3C//DTD SVG 1.1//EN"
 "http://www.w3.org/Graphics/SVG/1.1/DTD/svg11.dtd">
<!-- Generated by graphviz version 2.40.1 (20161225.0304)
 -->
<!-- Title: l4_bytes_to_mwords Pages: 1 -->
<svg width="964pt" height="178pt"
 viewBox="0.00 0.00 964.00 178.09" xmlns="http://www.w3.org/2000/svg" xmlns:xlink="http://www.w3.org/1999/xlink">
<g id="graph0" class="graph" transform="scale(1 1) rotate(0) translate(4 174.0914)">
<title>l4_bytes_to_mwords</title>
<polygon fill="#ffffff" stroke="transparent" points="-4,4 -4,-174.0914 960,-174.0914 960,4 -4,4"/>
<!-- Node1 -->
<g id="node1" class="node">
<title>Node1</title>
<polygon fill="#bfbfbf" stroke="#000000" points="0,-98.5 0,-117.5 113,-117.5 113,-98.5 0,-98.5"/>
<text text-anchor="middle" x="56.5" y="-105.5" font-family="Helvetica,sans-Serif" font-size="10.00" fill="#000000">l4_bytes_to_mwords</text>
</g>
<!-- Node2 -->
<g id="node2" class="node">
<title>Node2</title>
<g id="a_node2"><a xlink:href="group__l4__memory__api.html#gae876a4c6e0f21b2ecbf17863dc7d11e4" target="_top" xlink:title="Round value up to the next alignment with bits size. ">
<polygon fill="#ffffff" stroke="#000000" points="149,-98.5 149,-117.5 232,-117.5 232,-98.5 149,-98.5"/>
<text text-anchor="middle" x="190.5" y="-105.5" font-family="Helvetica,sans-Serif" font-size="10.00" fill="#000000">l4_round_size</text>
</a>
</g>
</g>
<!-- Node1&#45;&gt;Node2 -->
<g id="edge1" class="edge">
<title>Node1&#45;&gt;Node2</title>
<path fill="none" stroke="#191970" d="M123.388,-108C131.9874,-108 140.5893,-108 148.627,-108"/>
<polygon fill="#191970" stroke="#191970" points="123.3281,-104.5001 113.3281,-108 123.328,-111.5001 123.3281,-104.5001"/>
</g>
<!-- Node3 -->
<g id="node3" class="node">
<title>Node3</title>
<g id="a_node3"><a xlink:href="classcxx_1_1List__alloc.html#a1b8a24564b209e28166253c4e338f7ba" target="_top" xlink:title="Allocate a memory block of min &lt;= size &lt;= max. ">
<polygon fill="#ffffff" stroke="#000000" points="553,-98.5 553,-117.5 686,-117.5 686,-98.5 553,-98.5"/>
<text text-anchor="middle" x="619.5" y="-105.5" font-family="Helvetica,sans-Serif" font-size="10.00" fill="#000000">cxx::List_alloc::alloc_max</text>
</a>
</g>
</g>
<!-- Node2&#45;&gt;Node3 -->
<g id="edge2" class="edge">
<title>Node2&#45;&gt;Node3</title>
<path fill="none" stroke="#191970" d="M208.8758,-124.2368C223.6866,-136.1749 245.6592,-151.4187 268,-158 388.9136,-193.6195 540.9502,-140.425 597.2279,-117.581"/>
<polygon fill="#191970" stroke="#191970" points="210.9512,-121.4098 201.0345,-117.6803 206.461,-126.78 210.9512,-121.4098"/>
</g>
<!-- Node5 -->
<g id="node5" class="node">
<title>Node5</title>
<g id="a_node5"><a xlink:href="classL4virtio_1_1Virtqueue.html#a437c0ed2eb83201cc69c41d011503036" target="_top" xlink:title="Enable this queue. ">
<polygon fill="#ffffff" stroke="#000000" points="276.5,-118 276.5,-148 376.5,-148 376.5,-118 276.5,-118"/>
<text text-anchor="start" x="284.5" y="-136" font-family="Helvetica,sans-Serif" font-size="10.00" fill="#000000">L4virtio::Virtqueue</text>
<text text-anchor="middle" x="326.5" y="-125" font-family="Helvetica,sans-Serif" font-size="10.00" fill="#000000">::setup_simple</text>
</a>
</g>
</g>
<!-- Node2&#45;&gt;Node5 -->
<g id="edge4" class="edge">
<title>Node2&#45;&gt;Node5</title>
<path fill="none" stroke="#191970" d="M242.071,-117.48C253.2223,-119.5298 265.0007,-121.695 276.1062,-123.7364"/>
<polygon fill="#191970" stroke="#191970" points="242.5115,-114.0024 232.0435,-115.6367 241.2459,-120.887 242.5115,-114.0024"/>
</g>
<!-- Node6 -->
<g id="node6" class="node">
<title>Node6</title>
<g id="a_node6"><a xlink:href="classL4Re_1_1Util_1_1Dataspace__svr.html#aed0cd448d94193443020e8975a4a489a" target="_top" xlink:title="Return whether the dataspace is static. ">
<polygon fill="#ffffff" stroke="#000000" points="268,-69 268,-99 385,-99 385,-69 268,-69"/>
<text text-anchor="start" x="276" y="-87" font-family="Helvetica,sans-Serif" font-size="10.00" fill="#000000">L4Re::Util::Dataspace</text>
<text text-anchor="middle" x="326.5" y="-76" font-family="Helvetica,sans-Serif" font-size="10.00" fill="#000000">_svr::is_static</text>
</a>
</g>
</g>
<!-- Node2&#45;&gt;Node6 -->
<g id="edge5" class="edge">
<title>Node2&#45;&gt;Node6</title>
<path fill="none" stroke="#191970" d="M242.0479,-98.9033C250.4242,-97.4251 259.1549,-95.8844 267.6888,-94.3784"/>
<polygon fill="#191970" stroke="#191970" points="241.283,-95.4841 232.0435,-100.6688 242.4996,-102.3776 241.283,-95.4841"/>
</g>
<!-- Node7 -->
<g id="node7" class="node">
<title>Node7</title>
<g id="a_node7"><a xlink:href="group__l4__memory__api.html#ga96e3b2d8e69308aecbb11d1d24f61662" target="_top" xlink:title="Round address up to the next page. ">
<polygon fill="#ffffff" stroke="#000000" points="282.5,-30.5 282.5,-49.5 370.5,-49.5 370.5,-30.5 282.5,-30.5"/>
<text text-anchor="middle" x="326.5" y="-37.5" font-family="Helvetica,sans-Serif" font-size="10.00" fill="#000000">l4_round_page</text>
</a>
</g>
</g>
<!-- Node2&#45;&gt;Node7 -->
<g id="edge6" class="edge">
<title>Node2&#45;&gt;Node7</title>
<path fill="none" stroke="#191970" d="M211.9461,-92.3831C227.0574,-81.9031 248.0719,-68.3555 268,-59 275.6364,-55.415 284.1306,-52.2333 292.2261,-49.5473"/>
<polygon fill="#191970" stroke="#191970" points="209.5105,-89.8184 203.3625,-98.4471 213.5495,-95.5356 209.5105,-89.8184"/>
</g>
<!-- Node4 -->
<g id="node4" class="node">
<title>Node4</title>
<g id="a_node4"><a xlink:href="classcxx_1_1List__alloc.html#a1fdfc49fafa608f60c191916629b61a4" target="_top" xlink:title="Initializes an empty list allocator. ">
<polygon fill="#ffffff" stroke="#000000" points="722,-93 722,-123 824,-123 824,-93 722,-93"/>
<text text-anchor="start" x="730" y="-111" font-family="Helvetica,sans-Serif" font-size="10.00" fill="#000000">cxx::List_alloc::List</text>
<text text-anchor="middle" x="773" y="-100" font-family="Helvetica,sans-Serif" font-size="10.00" fill="#000000">_alloc</text>
</a>
</g>
</g>
<!-- Node3&#45;&gt;Node4 -->
<g id="edge3" class="edge">
<title>Node3&#45;&gt;Node4</title>
<path fill="none" stroke="#191970" d="M696.383,-108C704.924,-108 713.4629,-108 721.5765,-108"/>
<polygon fill="#191970" stroke="#191970" points="696.3808,-104.5001 686.3808,-108 696.3808,-111.5001 696.3808,-104.5001"/>
</g>
<!-- Node8 -->
<g id="node8" class="node">
<title>Node8</title>
<g id="a_node8"><a xlink:href="classL4Re_1_1Rm.html#a81c3edf15190139911ab69211c0a4bc4" target="_top" xlink:title="Attach a data space to a region. ">
<polygon fill="#ffffff" stroke="#000000" points="421,-68.5 421,-87.5 517,-87.5 517,-68.5 421,-68.5"/>
<text text-anchor="middle" x="469" y="-75.5" font-family="Helvetica,sans-Serif" font-size="10.00" fill="#000000">L4Re::Rm::attach</text>
</a>
</g>
</g>
<!-- Node7&#45;&gt;Node8 -->
<g id="edge7" class="edge">
<title>Node7&#45;&gt;Node8</title>
<path fill="none" stroke="#191970" d="M372.1531,-52.1742C391.8577,-57.4287 414.5747,-63.4866 433.0527,-68.4141"/>
<polygon fill="#191970" stroke="#191970" points="373.023,-48.7839 362.4588,-49.589 371.2193,-55.5475 373.023,-48.7839"/>
</g>
<!-- Node9 -->
<g id="node9" class="node">
<title>Node9</title>
<g id="a_node9"><a xlink:href="group__l4__memory__api.html#ga792959ba1e87fecf90018876f32d7bc9" target="_top" xlink:title="Round an address down to the next lower flex page with size bits. ">
<polygon fill="#ffffff" stroke="#000000" points="429.5,-30.5 429.5,-49.5 508.5,-49.5 508.5,-30.5 429.5,-30.5"/>
<text text-anchor="middle" x="469" y="-37.5" font-family="Helvetica,sans-Serif" font-size="10.00" fill="#000000">l4_trunc_size</text>
</a>
</g>
</g>
<!-- Node7&#45;&gt;Node9 -->
<g id="edge8" class="edge">
<title>Node7&#45;&gt;Node9</title>
<path fill="none" stroke="#191970" d="M381.0912,-40C397.0556,-40 414.202,-40 429.0748,-40"/>
<polygon fill="#191970" stroke="#191970" points="380.8068,-36.5001 370.8068,-40 380.8067,-43.5001 380.8068,-36.5001"/>
</g>
<!-- Node9&#45;&gt;Node3 -->
<g id="edge9" class="edge">
<title>Node9&#45;&gt;Node3</title>
<path fill="none" stroke="#191970" d="M504.0882,-53.3759C508.4663,-55.1951 512.8579,-57.094 517,-59 533.4352,-66.5627 536.7466,-70.0542 553,-78 567.6784,-85.1759 584.4495,-92.7375 597.4771,-98.4739"/>
<polygon fill="#191970" stroke="#191970" points="505.2097,-50.0541 494.6269,-49.5486 502.5846,-56.5433 505.2097,-50.0541"/>
</g>
<!-- Node10 -->
<g id="node10" class="node">
<title>Node10</title>
<g id="a_node10"><a xlink:href="group__l4__fpage__api.html#ga960465b596caf60adc6c5042e9257f0a" target="_top" xlink:title="Determine maximum flex page size of a region. ">
<polygon fill="#ffffff" stroke="#000000" points="562,-49.5 562,-68.5 677,-68.5 677,-49.5 562,-49.5"/>
<text text-anchor="middle" x="619.5" y="-56.5" font-family="Helvetica,sans-Serif" font-size="10.00" fill="#000000">l4_fpage_max_order</text>
</a>
</g>
</g>
<!-- Node9&#45;&gt;Node10 -->
<g id="edge10" class="edge">
<title>Node9&#45;&gt;Node10</title>
<path fill="none" stroke="#191970" d="M518.79,-46.2858C532.5671,-48.0251 547.635,-49.9273 561.8205,-51.7182"/>
<polygon fill="#191970" stroke="#191970" points="518.9018,-42.7722 508.5421,-44.992 518.0249,-49.7171 518.9018,-42.7722"/>
</g>
<!-- Node11 -->
<g id="node11" class="node">
<title>Node11</title>
<g id="a_node11"><a xlink:href="group__l4__memory__api.html#ga70b72ae96c18cb49a3445198711bba0d" target="_top" xlink:title="Round an address down to the next lower page boundary. ">
<polygon fill="#ffffff" stroke="#000000" points="577.5,-11.5 577.5,-30.5 661.5,-30.5 661.5,-11.5 577.5,-11.5"/>
<text text-anchor="middle" x="619.5" y="-18.5" font-family="Helvetica,sans-Serif" font-size="10.00" fill="#000000">l4_trunc_page</text>
</a>
</g>
</g>
<!-- Node9&#45;&gt;Node11 -->
<g id="edge11" class="edge">
<title>Node9&#45;&gt;Node11</title>
<path fill="none" stroke="#191970" d="M518.5225,-33.748C537.5431,-31.3467 559.0567,-28.6307 577.324,-26.3245"/>
<polygon fill="#191970" stroke="#191970" points="518.0249,-30.2829 508.5421,-35.008 518.9018,-37.2278 518.0249,-30.2829"/>
</g>
<!-- Node12 -->
<g id="node12" class="node">
<title>Node12</title>
<g id="a_node12"><a xlink:href="group__l4util__api.html#gac1e88025beb28c8f090592bf2f046080" target="_top" xlink:title="Touch data area to force mapping (read&#45;only) ">
<polygon fill="#ffffff" stroke="#000000" points="737,-38.5 737,-57.5 809,-57.5 809,-38.5 737,-38.5"/>
<text text-anchor="middle" x="773" y="-45.5" font-family="Helvetica,sans-Serif" font-size="10.00" fill="#000000">l4_touch_ro</text>
</a>
</g>
</g>
<!-- Node11&#45;&gt;Node12 -->
<g id="edge12" class="edge">
<title>Node11&#45;&gt;Node12</title>
<path fill="none" stroke="#191970" d="M671.7704,-30.1941C693.1614,-33.9567 717.3862,-38.2178 736.7738,-41.628"/>
<polygon fill="#191970" stroke="#191970" points="672.306,-26.7347 661.8509,-28.4493 671.0933,-33.6289 672.306,-26.7347"/>
</g>
<!-- Node14 -->
<g id="node14" class="node">
<title>Node14</title>
<g id="a_node14"><a xlink:href="group__l4util__api.html#ga8e840257faffbb57a49003cfb7d41594" target="_top" xlink:title="Touch data areas to force mapping (read&#45;write) ">
<polygon fill="#ffffff" stroke="#000000" points="736,-.5 736,-19.5 810,-19.5 810,-.5 736,-.5"/>
<text text-anchor="middle" x="773" y="-7.5" font-family="Helvetica,sans-Serif" font-size="10.00" fill="#000000">l4_touch_rw</text>
</a>
</g>
</g>
<!-- Node11&#45;&gt;Node14 -->
<g id="edge14" class="edge">
<title>Node11&#45;&gt;Node14</title>
<path fill="none" stroke="#191970" d="M671.903,-17.2447C692.8873,-15.741 716.5803,-14.0431 735.7524,-12.6692"/>
<polygon fill="#191970" stroke="#191970" points="671.5751,-13.7592 661.8509,-17.9651 672.0755,-20.7413 671.5751,-13.7592"/>
</g>
<!-- Node13 -->
<g id="node13" class="node">
<title>Node13</title>
<g id="a_node13"><a xlink:href="group__l4util__api.html#ga3a74b4dee439a339ed5a6368845cad37" target="_top" xlink:title="Go sleep and never wake up. ">
<polygon fill="#ffffff" stroke="#000000" points="860,-19.5 860,-38.5 956,-38.5 956,-19.5 860,-19.5"/>
<text text-anchor="middle" x="908" y="-26.5" font-family="Helvetica,sans-Serif" font-size="10.00" fill="#000000">l4_sleep_forever</text>
</a>
</g>
</g>
<!-- Node12&#45;&gt;Node13 -->
<g id="edge13" class="edge">
<title>Node12&#45;&gt;Node13</title>
<path fill="none" stroke="#191970" d="M819.3502,-41.4766C832.4017,-39.6398 846.6267,-37.6377 859.7846,-35.7859"/>
<polygon fill="#191970" stroke="#191970" points="818.5921,-38.0487 809.1775,-42.9083 819.5677,-44.9804 818.5921,-38.0487"/>
</g>
<!-- Node14&#45;&gt;Node13 -->
<g id="edge15" class="edge">
<title>Node14&#45;&gt;Node13</title>
<path fill="none" stroke="#191970" d="M820.2358,-16.648C833.0271,-18.4483 846.8884,-20.3991 859.7355,-22.2072"/>
<polygon fill="#191970" stroke="#191970" points="820.6369,-13.17 810.2467,-15.2421 819.6613,-20.1017 820.6369,-13.17"/>
</g>
</g>
</svg>
