<?xml version="1.0" encoding="UTF-8" standalone="no"?>
<!DOCTYPE svg PUBLIC "-//W3C//DTD SVG 1.1//EN"
 "http://www.w3.org/Graphics/SVG/1.1/DTD/svg11.dtd">
<!-- Generated by graphviz version 2.40.1 (20161225.0304)
 -->
<!-- Title: l4util_cmpxchg Pages: 1 -->
<svg width="213pt" height="142pt"
 viewBox="0.00 0.00 213.00 142.00" xmlns="http://www.w3.org/2000/svg" xmlns:xlink="http://www.w3.org/1999/xlink">
<g id="graph0" class="graph" transform="scale(1 1) rotate(0) translate(4 138)">
<title>l4util_cmpxchg</title>
<polygon fill="#ffffff" stroke="transparent" points="-4,4 -4,-138 209,-138 209,4 -4,4"/>
<!-- Node9 -->
<g id="node1" class="node">
<title>Node9</title>
<polygon fill="#bfbfbf" stroke="#000000" points="0,-57.5 0,-76.5 86,-76.5 86,-57.5 0,-57.5"/>
<text text-anchor="middle" x="43" y="-64.5" font-family="Helvetica,sans-Serif" font-size="10.00" fill="#000000">l4util_cmpxchg</text>
</g>
<!-- Node10 -->
<g id="node2" class="node">
<title>Node10</title>
<g id="a_node2"><a xlink:href="group__l4util__bitops.html#ga54de534dc4cb8daba99590f38edfd12c" target="_top" xlink:title="Bit test and reset. ">
<polygon fill="#ffffff" stroke="#000000" points="135.5,-114.5 135.5,-133.5 191.5,-133.5 191.5,-114.5 135.5,-114.5"/>
<text text-anchor="middle" x="163.5" y="-121.5" font-family="Helvetica,sans-Serif" font-size="10.00" fill="#000000">l4util_btr</text>
</a>
</g>
</g>
<!-- Node9&#45;&gt;Node10 -->
<g id="edge1" class="edge">
<title>Node9&#45;&gt;Node10</title>
<path fill="none" stroke="#191970" d="M71.9827,-81.1034C86.8959,-88.3191 105.3865,-97.2021 122,-105 128.5994,-108.0975 135.8152,-111.4226 142.352,-114.4116"/>
<polygon fill="#191970" stroke="#191970" points="73.2801,-77.8428 62.7549,-76.6306 70.2269,-84.1419 73.2801,-77.8428"/>
</g>
<!-- Node11 -->
<g id="node3" class="node">
<title>Node11</title>
<g id="a_node3"><a xlink:href="group__l4util__bitops.html#gaa19a970e0ccba655837ac519d5adfdf0" target="_top" xlink:title="Bit test and set. ">
<polygon fill="#ffffff" stroke="#000000" points="135,-76.5 135,-95.5 192,-95.5 192,-76.5 135,-76.5"/>
<text text-anchor="middle" x="163.5" y="-83.5" font-family="Helvetica,sans-Serif" font-size="10.00" fill="#000000">l4util_bts</text>
</a>
</g>
</g>
<!-- Node9&#45;&gt;Node11 -->
<g id="edge2" class="edge">
<title>Node9&#45;&gt;Node11</title>
<path fill="none" stroke="#191970" d="M96.218,-75.3912C109.5431,-77.4923 123.3334,-79.6667 134.9336,-81.4958"/>
<polygon fill="#191970" stroke="#191970" points="96.586,-71.9061 86.1629,-73.8058 95.4957,-78.8207 96.586,-71.9061"/>
</g>
<!-- Node12 -->
<g id="node4" class="node">
<title>Node12</title>
<g id="a_node4"><a xlink:href="group__l4util__bitops.html#gab1ab1fd14748d27abd7862942b5ae46b" target="_top" xlink:title="Clear bit in memory. ">
<polygon fill="#ffffff" stroke="#000000" points="122,-38.5 122,-57.5 205,-57.5 205,-38.5 122,-38.5"/>
<text text-anchor="middle" x="163.5" y="-45.5" font-family="Helvetica,sans-Serif" font-size="10.00" fill="#000000">l4util_clear_bit</text>
</a>
</g>
</g>
<!-- Node9&#45;&gt;Node12 -->
<g id="edge3" class="edge">
<title>Node9&#45;&gt;Node12</title>
<path fill="none" stroke="#191970" d="M96.1397,-58.6211C104.7519,-57.2632 113.5607,-55.8743 121.8488,-54.5674"/>
<polygon fill="#191970" stroke="#191970" points="95.4957,-55.1793 86.1629,-60.1942 96.586,-62.0939 95.4957,-55.1793"/>
</g>
<!-- Node13 -->
<g id="node5" class="node">
<title>Node13</title>
<g id="a_node5"><a xlink:href="group__l4util__bitops.html#ga1e5017ce33e0af71dc00a526ffa46f0b" target="_top" xlink:title="Set bit in memory. ">
<polygon fill="#ffffff" stroke="#000000" points="126.5,-.5 126.5,-19.5 200.5,-19.5 200.5,-.5 126.5,-.5"/>
<text text-anchor="middle" x="163.5" y="-7.5" font-family="Helvetica,sans-Serif" font-size="10.00" fill="#000000">l4util_set_bit</text>
</a>
</g>
</g>
<!-- Node9&#45;&gt;Node13 -->
<g id="edge4" class="edge">
<title>Node9&#45;&gt;Node13</title>
<path fill="none" stroke="#191970" d="M71.9827,-52.8966C86.8959,-45.6809 105.3865,-36.7979 122,-29 128.5994,-25.9025 135.8152,-22.5774 142.352,-19.5884"/>
<polygon fill="#191970" stroke="#191970" points="70.2269,-49.8581 62.7549,-57.3694 73.2801,-56.1572 70.2269,-49.8581"/>
</g>
</g>
</svg>
