<?xml version="1.0" encoding="UTF-8" standalone="no"?>
<!DOCTYPE svg PUBLIC "-//W3C//DTD SVG 1.1//EN"
 "http://www.w3.org/Graphics/SVG/1.1/DTD/svg11.dtd">
<!-- Generated by graphviz version 2.40.1 (20161225.0304)
 -->
<!-- Title: l4_trunc_size Pages: 1 -->
<svg width="526pt" height="132pt"
 viewBox="0.00 0.00 526.00 131.50" xmlns="http://www.w3.org/2000/svg" xmlns:xlink="http://www.w3.org/1999/xlink">
<g id="graph0" class="graph" transform="scale(1 1) rotate(0) translate(4 127.5)">
<title>l4_trunc_size</title>
<polygon fill="#ffffff" stroke="transparent" points="-4,4 -4,-127.5 522,-127.5 522,4 -4,4"/>
<!-- Node56 -->
<g id="node1" class="node">
<title>Node56</title>
<polygon fill="#bfbfbf" stroke="#000000" points="0,-60.5 0,-79.5 79,-79.5 79,-60.5 0,-60.5"/>
<text text-anchor="middle" x="39.5" y="-67.5" font-family="Helvetica,sans-Serif" font-size="10.00" fill="#000000">l4_trunc_size</text>
</g>
<!-- Node57 -->
<g id="node2" class="node">
<title>Node57</title>
<g id="a_node2"><a xlink:href="classcxx_1_1List__alloc.html#a1b8a24564b209e28166253c4e338f7ba" target="_top" xlink:title="Allocate a memory block of min &lt;= size &lt;= max. ">
<polygon fill="#ffffff" stroke="#000000" points="115,-98.5 115,-117.5 248,-117.5 248,-98.5 115,-98.5"/>
<text text-anchor="middle" x="181.5" y="-105.5" font-family="Helvetica,sans-Serif" font-size="10.00" fill="#000000">cxx::List_alloc::alloc_max</text>
</a>
</g>
</g>
<!-- Node56&#45;&gt;Node57 -->
<g id="edge1" class="edge">
<title>Node56&#45;&gt;Node57</title>
<path fill="none" stroke="#191970" d="M84.9929,-82.1742C104.6284,-87.4287 127.2657,-93.4866 145.6789,-98.4141"/>
<polygon fill="#191970" stroke="#191970" points="85.8975,-78.7931 75.3326,-79.589 84.0879,-85.5552 85.8975,-78.7931"/>
</g>
<!-- Node59 -->
<g id="node4" class="node">
<title>Node59</title>
<g id="a_node4"><a xlink:href="group__l4__fpage__api.html#ga960465b596caf60adc6c5042e9257f0a" target="_top" xlink:title="Determine maximum flex page size of a region. ">
<polygon fill="#ffffff" stroke="#000000" points="124,-60.5 124,-79.5 239,-79.5 239,-60.5 124,-60.5"/>
<text text-anchor="middle" x="181.5" y="-67.5" font-family="Helvetica,sans-Serif" font-size="10.00" fill="#000000">l4_fpage_max_order</text>
</a>
</g>
</g>
<!-- Node56&#45;&gt;Node59 -->
<g id="edge3" class="edge">
<title>Node56&#45;&gt;Node59</title>
<path fill="none" stroke="#191970" d="M89.1005,-70C100.3194,-70 112.3247,-70 123.8439,-70"/>
<polygon fill="#191970" stroke="#191970" points="89.055,-66.5001 79.0549,-70 89.0549,-73.5001 89.055,-66.5001"/>
</g>
<!-- Node60 -->
<g id="node5" class="node">
<title>Node60</title>
<g id="a_node5"><a xlink:href="group__l4__memory__api.html#ga70b72ae96c18cb49a3445198711bba0d" target="_top" xlink:title="Round an address down to the next lower page boundary. ">
<polygon fill="#ffffff" stroke="#000000" points="139.5,-22.5 139.5,-41.5 223.5,-41.5 223.5,-22.5 139.5,-22.5"/>
<text text-anchor="middle" x="181.5" y="-29.5" font-family="Helvetica,sans-Serif" font-size="10.00" fill="#000000">l4_trunc_page</text>
</a>
</g>
</g>
<!-- Node56&#45;&gt;Node60 -->
<g id="edge4" class="edge">
<title>Node56&#45;&gt;Node60</title>
<path fill="none" stroke="#191970" d="M84.9929,-57.8258C104.6284,-52.5713 127.2657,-46.5134 145.6789,-41.5859"/>
<polygon fill="#191970" stroke="#191970" points="84.0879,-54.4448 75.3326,-60.411 85.8975,-61.2069 84.0879,-54.4448"/>
</g>
<!-- Node58 -->
<g id="node3" class="node">
<title>Node58</title>
<g id="a_node3"><a xlink:href="classcxx_1_1List__alloc.html#a1fdfc49fafa608f60c191916629b61a4" target="_top" xlink:title="Initializes an empty list allocator. ">
<polygon fill="#ffffff" stroke="#000000" points="284,-93 284,-123 386,-123 386,-93 284,-93"/>
<text text-anchor="start" x="292" y="-111" font-family="Helvetica,sans-Serif" font-size="10.00" fill="#000000">cxx::List_alloc::List</text>
<text text-anchor="middle" x="335" y="-100" font-family="Helvetica,sans-Serif" font-size="10.00" fill="#000000">_alloc</text>
</a>
</g>
</g>
<!-- Node57&#45;&gt;Node58 -->
<g id="edge2" class="edge">
<title>Node57&#45;&gt;Node58</title>
<path fill="none" stroke="#191970" d="M258.383,-108C266.924,-108 275.4629,-108 283.5765,-108"/>
<polygon fill="#191970" stroke="#191970" points="258.3808,-104.5001 248.3808,-108 258.3808,-111.5001 258.3808,-104.5001"/>
</g>
<!-- Node61 -->
<g id="node6" class="node">
<title>Node61</title>
<g id="a_node6"><a xlink:href="group__l4util__api.html#gac1e88025beb28c8f090592bf2f046080" target="_top" xlink:title="Touch data area to force mapping (read&#45;only) ">
<polygon fill="#ffffff" stroke="#000000" points="299,-38.5 299,-57.5 371,-57.5 371,-38.5 299,-38.5"/>
<text text-anchor="middle" x="335" y="-45.5" font-family="Helvetica,sans-Serif" font-size="10.00" fill="#000000">l4_touch_ro</text>
</a>
</g>
</g>
<!-- Node60&#45;&gt;Node61 -->
<g id="edge5" class="edge">
<title>Node60&#45;&gt;Node61</title>
<path fill="none" stroke="#191970" d="M234.0609,-37.4787C255.3806,-39.7009 279.4739,-42.2123 298.7738,-44.224"/>
<polygon fill="#191970" stroke="#191970" points="234.1599,-33.9701 223.8509,-36.4144 233.4341,-40.9324 234.1599,-33.9701"/>
</g>
<!-- Node63 -->
<g id="node8" class="node">
<title>Node63</title>
<g id="a_node8"><a xlink:href="group__l4util__api.html#ga8e840257faffbb57a49003cfb7d41594" target="_top" xlink:title="Touch data areas to force mapping (read&#45;write) ">
<polygon fill="#ffffff" stroke="#000000" points="298,-.5 298,-19.5 372,-19.5 372,-.5 298,-.5"/>
<text text-anchor="middle" x="335" y="-7.5" font-family="Helvetica,sans-Serif" font-size="10.00" fill="#000000">l4_touch_rw</text>
</a>
</g>
</g>
<!-- Node60&#45;&gt;Node63 -->
<g id="edge7" class="edge">
<title>Node60&#45;&gt;Node63</title>
<path fill="none" stroke="#191970" d="M233.903,-24.4895C254.8873,-21.482 278.5803,-18.0862 297.7524,-15.3384"/>
<polygon fill="#191970" stroke="#191970" points="233.2532,-21.0468 223.8509,-25.9302 234.2463,-27.976 233.2532,-21.0468"/>
</g>
<!-- Node62 -->
<g id="node7" class="node">
<title>Node62</title>
<g id="a_node7"><a xlink:href="group__l4util__api.html#ga3a74b4dee439a339ed5a6368845cad37" target="_top" xlink:title="Go sleep and never wake up. ">
<polygon fill="#ffffff" stroke="#000000" points="422,-19.5 422,-38.5 518,-38.5 518,-19.5 422,-19.5"/>
<text text-anchor="middle" x="470" y="-26.5" font-family="Helvetica,sans-Serif" font-size="10.00" fill="#000000">l4_sleep_forever</text>
</a>
</g>
</g>
<!-- Node61&#45;&gt;Node62 -->
<g id="edge6" class="edge">
<title>Node61&#45;&gt;Node62</title>
<path fill="none" stroke="#191970" d="M381.3502,-41.4766C394.4017,-39.6398 408.6267,-37.6377 421.7846,-35.7859"/>
<polygon fill="#191970" stroke="#191970" points="380.5921,-38.0487 371.1775,-42.9083 381.5677,-44.9804 380.5921,-38.0487"/>
</g>
<!-- Node63&#45;&gt;Node62 -->
<g id="edge8" class="edge">
<title>Node63&#45;&gt;Node62</title>
<path fill="none" stroke="#191970" d="M382.2358,-16.648C395.0271,-18.4483 408.8884,-20.3991 421.7355,-22.2072"/>
<polygon fill="#191970" stroke="#191970" points="382.6369,-13.17 372.2467,-15.2421 381.6613,-20.1017 382.6369,-13.17"/>
</g>
</g>
</svg>
