<?xml version="1.0" encoding="UTF-8" standalone="no"?>
<!DOCTYPE svg PUBLIC "-//W3C//DTD SVG 1.1//EN"
 "http://www.w3.org/Graphics/SVG/1.1/DTD/svg11.dtd">
<!-- Generated by graphviz version 2.40.1 (20161225.0304)
 -->
<!-- Title: l4_irq_receive_u Pages: 1 -->
<svg width="385pt" height="72pt"
 viewBox="0.00 0.00 385.00 71.50" xmlns="http://www.w3.org/2000/svg" xmlns:xlink="http://www.w3.org/1999/xlink">
<g id="graph0" class="graph" transform="scale(1 1) rotate(0) translate(4 67.5)">
<title>l4_irq_receive_u</title>
<polygon fill="#ffffff" stroke="transparent" points="-4,4 -4,-67.5 381,-67.5 381,4 -4,4"/>
<!-- Node30 -->
<g id="node1" class="node">
<title>Node30</title>
<polygon fill="#bfbfbf" stroke="#000000" points="0,-19.5 0,-38.5 95,-38.5 95,-19.5 0,-19.5"/>
<text text-anchor="middle" x="47.5" y="-26.5" font-family="Helvetica,sans-Serif" font-size="10.00" fill="#000000">l4_irq_receive_u</text>
</g>
<!-- Node31 -->
<g id="node2" class="node">
<title>Node31</title>
<g id="a_node2"><a xlink:href="group__l4__irq__api.html#ga997f18b89d6235214d2f9c381ed6c6a5" target="_top" xlink:title="Unmask and wait for specified IRQ. ">
<polygon fill="#ffffff" stroke="#000000" points="132,-38.5 132,-57.5 215,-57.5 215,-38.5 132,-38.5"/>
<text text-anchor="middle" x="173.5" y="-45.5" font-family="Helvetica,sans-Serif" font-size="10.00" fill="#000000">l4_irq_receive</text>
</a>
</g>
</g>
<!-- Node30&#45;&gt;Node31 -->
<g id="edge1" class="edge">
<title>Node30&#45;&gt;Node31</title>
<path fill="none" stroke="#191970" d="M105.2238,-37.7044C114.2495,-39.0654 123.4206,-40.4484 131.9892,-41.7404"/>
<polygon fill="#191970" stroke="#191970" points="105.5453,-34.2134 95.1352,-36.1831 104.5015,-41.1351 105.5453,-34.2134"/>
</g>
<!-- Node33 -->
<g id="node4" class="node">
<title>Node33</title>
<g id="a_node4"><a xlink:href="classL4_1_1Irq.html#ad6e4134fba0e3d985f4ef988a524fa6d" target="_top" xlink:title="Unmask and wait for this IRQ. ">
<polygon fill="#ffffff" stroke="#000000" points="131,-.5 131,-19.5 216,-19.5 216,-.5 131,-.5"/>
<text text-anchor="middle" x="173.5" y="-7.5" font-family="Helvetica,sans-Serif" font-size="10.00" fill="#000000">L4::Irq::receive</text>
</a>
</g>
</g>
<!-- Node30&#45;&gt;Node33 -->
<g id="edge3" class="edge">
<title>Node30&#45;&gt;Node33</title>
<path fill="none" stroke="#191970" d="M105.1535,-20.3062C113.7736,-19.0064 122.5281,-17.6862 130.7652,-16.4441"/>
<polygon fill="#191970" stroke="#191970" points="104.5015,-16.8649 95.1352,-21.8169 105.5453,-23.7866 104.5015,-16.8649"/>
</g>
<!-- Node32 -->
<g id="node3" class="node">
<title>Node32</title>
<g id="a_node3"><a xlink:href="classL4Re_1_1Util_1_1Event__buffer__consumer__t.html#a4ed22b41ce4c7e6b93efae878b1415ef" target="_top" xlink:title="Continuously wait for events and process them. ">
<polygon fill="#ffffff" stroke="#000000" points="252,-33 252,-63 377,-63 377,-33 252,-33"/>
<text text-anchor="start" x="260" y="-51" font-family="Helvetica,sans-Serif" font-size="10.00" fill="#000000">L4Re::Util::Event_buffer</text>
<text text-anchor="middle" x="314.5" y="-40" font-family="Helvetica,sans-Serif" font-size="10.00" fill="#000000">_consumer_t::process</text>
</a>
</g>
</g>
<!-- Node31&#45;&gt;Node32 -->
<g id="edge2" class="edge">
<title>Node31&#45;&gt;Node32</title>
<path fill="none" stroke="#191970" d="M225.3208,-48C233.9421,-48 242.9651,-48 251.8214,-48"/>
<polygon fill="#191970" stroke="#191970" points="225.0421,-44.5001 215.042,-48 225.042,-51.5001 225.0421,-44.5001"/>
</g>
</g>
</svg>
