<?xml version="1.0" encoding="UTF-8" standalone="no"?>
<!DOCTYPE svg PUBLIC "-//W3C//DTD SVG 1.1//EN"
 "http://www.w3.org/Graphics/SVG/1.1/DTD/svg11.dtd">
<!-- Generated by graphviz version 2.40.1 (20161225.0304)
 -->
<!-- Title: l4_msgtag_words Pages: 1 -->
<svg width="603pt" height="180pt"
 viewBox="0.00 0.00 603.00 180.00" xmlns="http://www.w3.org/2000/svg" xmlns:xlink="http://www.w3.org/1999/xlink">
<g id="graph0" class="graph" transform="scale(1 1) rotate(0) translate(4 176)">
<title>l4_msgtag_words</title>
<polygon fill="#ffffff" stroke="transparent" points="-4,4 -4,-176 599,-176 599,4 -4,4"/>
<!-- Node128 -->
<g id="node1" class="node">
<title>Node128</title>
<polygon fill="#bfbfbf" stroke="#000000" points="0,-76.5 0,-95.5 100,-95.5 100,-76.5 0,-76.5"/>
<text text-anchor="middle" x="50" y="-83.5" font-family="Helvetica,sans-Serif" font-size="10.00" fill="#000000">l4_msgtag_words</text>
</g>
<!-- Node129 -->
<g id="node2" class="node">
<title>Node129</title>
<g id="a_node2"><a xlink:href="structl4__msgtag__t.html#a09c8212b870e6c144fd072dbde5b5262" target="_top" xlink:title="Test if flags indicate an error. ">
<polygon fill="#ffffff" stroke="#000000" points="136,-76.5 136,-95.5 261,-95.5 261,-76.5 136,-76.5"/>
<text text-anchor="middle" x="198.5" y="-83.5" font-family="Helvetica,sans-Serif" font-size="10.00" fill="#000000">l4_msgtag_t::has_error</text>
</a>
</g>
</g>
<!-- Node128&#45;&gt;Node129 -->
<g id="edge1" class="edge">
<title>Node128&#45;&gt;Node129</title>
<path fill="none" stroke="#191970" d="M110.3818,-86C118.7923,-86 127.449,-86 135.8992,-86"/>
<polygon fill="#191970" stroke="#191970" points="110.2754,-82.5001 100.2753,-86 110.2753,-89.5001 110.2754,-82.5001"/>
</g>
<!-- Node130 -->
<g id="node3" class="node">
<title>Node130</title>
<g id="a_node3"><a xlink:href="namespaceL4.html#aba0849c4b92afdccbe110489e18dadbd" target="_top" xlink:title="Throw an L4 IPC error as exception. ">
<polygon fill="#ffffff" stroke="#000000" points="297,-152.5 297,-171.5 428,-171.5 428,-152.5 297,-152.5"/>
<text text-anchor="middle" x="362.5" y="-159.5" font-family="Helvetica,sans-Serif" font-size="10.00" fill="#000000">L4::throw_ipc_exception</text>
</a>
</g>
</g>
<!-- Node129&#45;&gt;Node130 -->
<g id="edge2" class="edge">
<title>Node129&#45;&gt;Node130</title>
<path fill="none" stroke="#191970" d="M221.0764,-101.1872C240.5288,-113.7456 269.7049,-131.3483 297,-143 305.4939,-146.6259 314.8925,-149.8061 323.8559,-152.4756"/>
<polygon fill="#191970" stroke="#191970" points="222.8953,-98.1946 212.6121,-95.6437 219.0601,-104.0505 222.8953,-98.1946"/>
</g>
<!-- Node132 -->
<g id="node5" class="node">
<title>Node132</title>
<g id="a_node5"><a xlink:href="namespaceL4Re.html#ae0dd5d25abdc1d195edd8ab6b744334c" target="_top" xlink:title="Generate C++ exception on error. ">
<polygon fill="#ffffff" stroke="#000000" points="323,-114.5 323,-133.5 402,-133.5 402,-114.5 323,-114.5"/>
<text text-anchor="middle" x="362.5" y="-121.5" font-family="Helvetica,sans-Serif" font-size="10.00" fill="#000000">L4Re::chksys</text>
</a>
</g>
</g>
<!-- Node129&#45;&gt;Node132 -->
<g id="edge4" class="edge">
<title>Node129&#45;&gt;Node132</title>
<path fill="none" stroke="#191970" d="M249.7195,-97.8679C273.3014,-103.332 300.8563,-109.7167 322.8263,-114.8073"/>
<polygon fill="#191970" stroke="#191970" points="250.4161,-94.4367 239.8841,-95.589 248.836,-101.256 250.4161,-94.4367"/>
</g>
<!-- Node133 -->
<g id="node6" class="node">
<title>Node133</title>
<g id="a_node6"><a xlink:href="namespaceL4Re.html#ae21329b88c6ffc4917048e8d9564ea99" target="_top" xlink:title="Test a message tag for IPC errors. ">
<polygon fill="#ffffff" stroke="#000000" points="324,-76.5 324,-95.5 401,-95.5 401,-76.5 324,-76.5"/>
<text text-anchor="middle" x="362.5" y="-83.5" font-family="Helvetica,sans-Serif" font-size="10.00" fill="#000000">L4Re::chkipc</text>
</a>
</g>
</g>
<!-- Node129&#45;&gt;Node133 -->
<g id="edge5" class="edge">
<title>Node129&#45;&gt;Node133</title>
<path fill="none" stroke="#191970" d="M271.6177,-86C289.5639,-86 308.0844,-86 323.6862,-86"/>
<polygon fill="#191970" stroke="#191970" points="271.4377,-82.5001 261.4377,-86 271.4376,-89.5001 271.4377,-82.5001"/>
</g>
<!-- Node134 -->
<g id="node7" class="node">
<title>Node134</title>
<g id="a_node7"><a xlink:href="classL4_1_1Server.html#a4333dc750dee494087ee92ab058718a1" target="_top" xlink:title="Internal implementation for reply and wait. ">
<polygon fill="#ffffff" stroke="#000000" points="298,-38.5 298,-57.5 427,-57.5 427,-38.5 298,-38.5"/>
<text text-anchor="middle" x="362.5" y="-45.5" font-family="Helvetica,sans-Serif" font-size="10.00" fill="#000000">L4::Server::reply_n_wait</text>
</a>
</g>
</g>
<!-- Node129&#45;&gt;Node134 -->
<g id="edge6" class="edge">
<title>Node129&#45;&gt;Node134</title>
<path fill="none" stroke="#191970" d="M249.841,-74.1039C272.8929,-68.7626 299.7211,-62.5463 321.4135,-57.5201"/>
<polygon fill="#191970" stroke="#191970" points="248.836,-70.744 239.8841,-76.411 250.4161,-77.5633 248.836,-70.744"/>
</g>
<!-- Node135 -->
<g id="node8" class="node">
<title>Node135</title>
<g id="a_node8"><a xlink:href="classL4_1_1Server.html#ac0965dc536f1df5dfe0be1b224feab89" target="_top" xlink:title="The server loop. ">
<polygon fill="#ffffff" stroke="#000000" points="297,-.5 297,-19.5 428,-19.5 428,-.5 297,-.5"/>
<text text-anchor="middle" x="362.5" y="-7.5" font-family="Helvetica,sans-Serif" font-size="10.00" fill="#000000">L4::Server::internal_loop</text>
</a>
</g>
</g>
<!-- Node129&#45;&gt;Node135 -->
<g id="edge7" class="edge">
<title>Node129&#45;&gt;Node135</title>
<path fill="none" stroke="#191970" d="M221.0764,-70.8128C240.5288,-58.2544 269.7049,-40.6517 297,-29 305.4939,-25.3741 314.8925,-22.1939 323.8559,-19.5244"/>
<polygon fill="#191970" stroke="#191970" points="219.0601,-67.9495 212.6121,-76.3563 222.8953,-73.8054 219.0601,-67.9495"/>
</g>
<!-- Node131 -->
<g id="node4" class="node">
<title>Node131</title>
<g id="a_node4"><a xlink:href="namespaceL4.html#a54f8da0e02ff2496f1ad935e38ab17c4" target="_top" xlink:title="Throw an L4 IPC error as exception. ">
<polygon fill="#ffffff" stroke="#000000" points="464,-152.5 464,-171.5 595,-171.5 595,-152.5 464,-152.5"/>
<text text-anchor="middle" x="529.5" y="-159.5" font-family="Helvetica,sans-Serif" font-size="10.00" fill="#000000">L4::throw_ipc_exception</text>
</a>
</g>
</g>
<!-- Node130&#45;&gt;Node131 -->
<g id="edge3" class="edge">
<title>Node130&#45;&gt;Node131</title>
<path fill="none" stroke="#191970" d="M438.0663,-162C446.6848,-162 455.4171,-162 463.8913,-162"/>
<polygon fill="#191970" stroke="#191970" points="438.0235,-158.5001 428.0235,-162 438.0235,-165.5001 438.0235,-158.5001"/>
</g>
</g>
</svg>
