<?xml version="1.0" encoding="UTF-8" standalone="no"?>
<!DOCTYPE svg PUBLIC "-//W3C//DTD SVG 1.1//EN"
 "http://www.w3.org/Graphics/SVG/1.1/DTD/svg11.dtd">
<!-- Generated by graphviz version 2.40.1 (20161225.0304)
 -->
<!-- Title: l4_msgtag Pages: 1 -->
<svg width="578pt" height="442pt"
 viewBox="0.00 0.00 578.00 442.00" xmlns="http://www.w3.org/2000/svg" xmlns:xlink="http://www.w3.org/1999/xlink">
<g id="graph0" class="graph" transform="scale(1 1) rotate(0) translate(4 438)">
<title>l4_msgtag</title>
<polygon fill="#ffffff" stroke="transparent" points="-4,4 -4,-438 574,-438 574,4 -4,4"/>
<!-- Node5 -->
<g id="node1" class="node">
<title>Node5</title>
<polygon fill="#bfbfbf" stroke="#000000" points="0,-164.5 0,-183.5 65,-183.5 65,-164.5 0,-164.5"/>
<text text-anchor="middle" x="32.5" y="-171.5" font-family="Helvetica,sans-Serif" font-size="10.00" fill="#000000">l4_msgtag</text>
</g>
<!-- Node6 -->
<g id="node2" class="node">
<title>Node6</title>
<g id="a_node2"><a xlink:href="structl4__msgtag__t.html#a09c8212b870e6c144fd072dbde5b5262" target="_top" xlink:title="Test if flags indicate an error. ">
<polygon fill="#ffffff" stroke="#000000" points="106,-319.5 106,-338.5 231,-338.5 231,-319.5 106,-319.5"/>
<text text-anchor="middle" x="168.5" y="-326.5" font-family="Helvetica,sans-Serif" font-size="10.00" fill="#000000">l4_msgtag_t::has_error</text>
</a>
</g>
</g>
<!-- Node5&#45;&gt;Node6 -->
<g id="edge1" class="edge">
<title>Node5&#45;&gt;Node6</title>
<path fill="none" stroke="#191970" d="M40.8215,-193.029C51.9342,-216.8567 73.4575,-257.9488 101,-286 114.8232,-300.0785 134.0796,-311.7688 148.4886,-319.3887"/>
<polygon fill="#191970" stroke="#191970" points="43.9019,-191.3468 36.5862,-183.6832 37.526,-194.2362 43.9019,-191.3468"/>
</g>
<!-- Node12 -->
<g id="node8" class="node">
<title>Node12</title>
<g id="a_node8"><a xlink:href="classL4_1_1Server.html#ac0965dc536f1df5dfe0be1b224feab89" target="_top" xlink:title="The server loop. ">
<polygon fill="#ffffff" stroke="#000000" points="272,-262.5 272,-281.5 403,-281.5 403,-262.5 272,-262.5"/>
<text text-anchor="middle" x="337.5" y="-269.5" font-family="Helvetica,sans-Serif" font-size="10.00" fill="#000000">L4::Server::internal_loop</text>
</a>
</g>
</g>
<!-- Node5&#45;&gt;Node12 -->
<g id="edge8" class="edge">
<title>Node5&#45;&gt;Node12</title>
<path fill="none" stroke="#191970" d="M42.6727,-192.5367C54.1341,-211.3907 74.6532,-239.6725 101,-253 154.0209,-279.8205 222.3798,-282.4482 271.9572,-279.6315"/>
<polygon fill="#191970" stroke="#191970" points="45.57,-190.5562 37.5219,-183.6658 39.5165,-194.0712 45.57,-190.5562"/>
</g>
<!-- Node13 -->
<g id="node9" class="node">
<title>Node13</title>
<g id="a_node9"><a xlink:href="group__l4__irq__api.html#ga180cfaf342ce9ff484a6aa7c276e1597" target="_top" xlink:title="Trigger. ">
<polygon fill="#ffffff" stroke="#000000" points="123,-224.5 123,-243.5 214,-243.5 214,-224.5 123,-224.5"/>
<text text-anchor="middle" x="168.5" y="-231.5" font-family="Helvetica,sans-Serif" font-size="10.00" fill="#000000">l4_irq_trigger_u</text>
</a>
</g>
</g>
<!-- Node5&#45;&gt;Node13 -->
<g id="edge9" class="edge">
<title>Node5&#45;&gt;Node13</title>
<path fill="none" stroke="#191970" d="M54.4161,-189.16C67.4823,-197.6694 84.6599,-207.9589 101,-215 109.4971,-218.6614 118.8981,-221.8235 127.9175,-224.4599"/>
<polygon fill="#191970" stroke="#191970" points="56.3515,-186.2438 46.088,-183.6151 52.4721,-192.0705 56.3515,-186.2438"/>
</g>
<!-- Node17 -->
<g id="node13" class="node">
<title>Node17</title>
<g id="a_node13"><a xlink:href="x86_2l4f_2l4_2util_2port__io_8h.html#a38a37fdbed4dd2dca75ce192d506a2d4" target="_top" xlink:title="Map a range of I/O ports. ">
<polygon fill="#ffffff" stroke="#000000" points="120,-186.5 120,-205.5 217,-205.5 217,-186.5 120,-186.5"/>
<text text-anchor="middle" x="168.5" y="-193.5" font-family="Helvetica,sans-Serif" font-size="10.00" fill="#000000">l4util_ioport_map</text>
</a>
</g>
</g>
<!-- Node5&#45;&gt;Node17 -->
<g id="edge13" class="edge">
<title>Node5&#45;&gt;Node17</title>
<path fill="none" stroke="#191970" d="M75.0928,-180.89C89.3313,-183.1933 105.3056,-185.7774 119.9626,-188.1484"/>
<polygon fill="#191970" stroke="#191970" points="75.506,-177.4114 65.0754,-179.2695 74.3881,-184.3216 75.506,-177.4114"/>
</g>
<!-- Node18 -->
<g id="node14" class="node">
<title>Node18</title>
<g id="a_node14"><a xlink:href="classL4_1_1Thread.html#a9bcade7e8db8d775cc1f2a2a6225c845" target="_top" xlink:title="Apply sender modification rules. ">
<polygon fill="#ffffff" stroke="#000000" points="117,-137 117,-167 220,-167 220,-137 117,-137"/>
<text text-anchor="start" x="125" y="-155" font-family="Helvetica,sans-Serif" font-size="10.00" fill="#000000">L4::Thread::modify</text>
<text text-anchor="middle" x="168.5" y="-144" font-family="Helvetica,sans-Serif" font-size="10.00" fill="#000000">_senders</text>
</a>
</g>
</g>
<!-- Node5&#45;&gt;Node18 -->
<g id="edge14" class="edge">
<title>Node5&#45;&gt;Node18</title>
<path fill="none" stroke="#191970" d="M75.2794,-167.0798C88.4538,-164.9487 103.0996,-162.5795 116.8062,-160.3622"/>
<polygon fill="#191970" stroke="#191970" points="74.3881,-163.6784 65.0754,-168.7305 75.506,-170.5886 74.3881,-163.6784"/>
</g>
<!-- Node20 -->
<g id="node16" class="node">
<title>Node20</title>
<g id="a_node16"><a xlink:href="structL4_1_1Irqep__t.html#ae85f0bf482d9ad400c55e8d8a8c9451a" target="_top" xlink:title="Get the (typed) capability to this object. ">
<polygon fill="#ffffff" stroke="#000000" points="107.5,-88 107.5,-118 229.5,-118 229.5,-88 107.5,-88"/>
<text text-anchor="start" x="115.5" y="-106" font-family="Helvetica,sans-Serif" font-size="10.00" fill="#000000">L4::Irqep_t&lt; Irq_object</text>
<text text-anchor="middle" x="168.5" y="-95" font-family="Helvetica,sans-Serif" font-size="10.00" fill="#000000"> &gt;::obj_cap</text>
</a>
</g>
</g>
<!-- Node5&#45;&gt;Node20 -->
<g id="edge16" class="edge">
<title>Node5&#45;&gt;Node20</title>
<path fill="none" stroke="#191970" d="M52.8348,-157.9657C66.0224,-148.1046 83.8788,-135.729 101,-127 107.3159,-123.7799 114.1656,-120.804 120.9982,-118.1231"/>
<polygon fill="#191970" stroke="#191970" points="50.3422,-155.4653 44.5173,-164.3152 54.5897,-161.0293 50.3422,-155.4653"/>
</g>
<!-- Node21 -->
<g id="node17" class="node">
<title>Node21</title>
<g id="a_node17"><a xlink:href="structL4_1_1Ipc__svr_1_1Exc__dispatch.html#a551ccfbe372009fa7319689dedfc4ded" target="_top" xlink:title="Dispatch the call via Direct_dispatch&lt;R&gt;() and handle exceptions. ">
<polygon fill="#ffffff" stroke="#000000" points="101,-39 101,-69 236,-69 236,-39 101,-39"/>
<text text-anchor="start" x="109" y="-57" font-family="Helvetica,sans-Serif" font-size="10.00" fill="#000000">L4::Ipc_svr::Exc_dispatch</text>
<text text-anchor="middle" x="168.5" y="-46" font-family="Helvetica,sans-Serif" font-size="10.00" fill="#000000">::operator()</text>
</a>
</g>
</g>
<!-- Node5&#45;&gt;Node21 -->
<g id="edge17" class="edge">
<title>Node5&#45;&gt;Node21</title>
<path fill="none" stroke="#191970" d="M41.4163,-155.2417C52.5366,-133.7271 73.4851,-98.7579 101,-78 105.468,-74.6292 110.4509,-71.7019 115.6296,-69.1663"/>
<polygon fill="#191970" stroke="#191970" points="38.2097,-153.8295 36.8854,-164.3413 44.4759,-156.9497 38.2097,-153.8295"/>
</g>
<!-- Node22 -->
<g id="node18" class="node">
<title>Node22</title>
<g id="a_node18"><a xlink:href="classL4_1_1Ipc_1_1Ostream.html#aef4ef51d0dbf137e37e854237e498dd7" target="_top" xlink:title="Return utcb pointer. ">
<polygon fill="#ffffff" stroke="#000000" points="110.5,-.5 110.5,-19.5 226.5,-19.5 226.5,-.5 110.5,-.5"/>
<text text-anchor="middle" x="168.5" y="-7.5" font-family="Helvetica,sans-Serif" font-size="10.00" fill="#000000">L4::Ipc::Ostream::utcb</text>
</a>
</g>
</g>
<!-- Node5&#45;&gt;Node22 -->
<g id="edge18" class="edge">
<title>Node5&#45;&gt;Node22</title>
<path fill="none" stroke="#191970" d="M36.3827,-154.0754C43.5377,-122.7493 61.8057,-62.1418 101,-29 105.5551,-25.1483 110.8395,-22.0749 116.407,-19.6231"/>
<polygon fill="#191970" stroke="#191970" points="32.8891,-153.6772 34.2312,-164.1867 39.7358,-155.1341 32.8891,-153.6772"/>
</g>
<!-- Node7 -->
<g id="node3" class="node">
<title>Node7</title>
<g id="a_node3"><a xlink:href="namespaceL4.html#aba0849c4b92afdccbe110489e18dadbd" target="_top" xlink:title="Throw an L4 IPC error as exception. ">
<polygon fill="#ffffff" stroke="#000000" points="272,-414.5 272,-433.5 403,-433.5 403,-414.5 272,-414.5"/>
<text text-anchor="middle" x="337.5" y="-421.5" font-family="Helvetica,sans-Serif" font-size="10.00" fill="#000000">L4::throw_ipc_exception</text>
</a>
</g>
</g>
<!-- Node6&#45;&gt;Node7 -->
<g id="edge2" class="edge">
<title>Node6&#45;&gt;Node7</title>
<path fill="none" stroke="#191970" d="M186.4224,-345.2473C206.1045,-362.3161 239.2803,-388.8765 272,-405 279.5408,-408.7159 287.937,-411.8321 296.1341,-414.3955"/>
<polygon fill="#191970" stroke="#191970" points="188.6687,-342.5617 178.8541,-338.5713 184.0381,-347.8112 188.6687,-342.5617"/>
</g>
<!-- Node9 -->
<g id="node5" class="node">
<title>Node9</title>
<g id="a_node5"><a xlink:href="namespaceL4Re.html#ae0dd5d25abdc1d195edd8ab6b744334c" target="_top" xlink:title="Generate C++ exception on error. ">
<polygon fill="#ffffff" stroke="#000000" points="298,-376.5 298,-395.5 377,-395.5 377,-376.5 298,-376.5"/>
<text text-anchor="middle" x="337.5" y="-383.5" font-family="Helvetica,sans-Serif" font-size="10.00" fill="#000000">L4Re::chksys</text>
</a>
</g>
</g>
<!-- Node6&#45;&gt;Node9 -->
<g id="edge4" class="edge">
<title>Node6&#45;&gt;Node9</title>
<path fill="none" stroke="#191970" d="M202.3652,-342.1093C222.4788,-349.7256 248.5555,-359.3062 272,-367 282.0125,-370.2858 292.9798,-373.5834 303.0279,-376.4874"/>
<polygon fill="#191970" stroke="#191970" points="203.5988,-338.8339 193.0079,-338.545 201.107,-345.3754 203.5988,-338.8339"/>
</g>
<!-- Node10 -->
<g id="node6" class="node">
<title>Node10</title>
<g id="a_node6"><a xlink:href="namespaceL4Re.html#ae21329b88c6ffc4917048e8d9564ea99" target="_top" xlink:title="Test a message tag for IPC errors. ">
<polygon fill="#ffffff" stroke="#000000" points="299,-338.5 299,-357.5 376,-357.5 376,-338.5 299,-338.5"/>
<text text-anchor="middle" x="337.5" y="-345.5" font-family="Helvetica,sans-Serif" font-size="10.00" fill="#000000">L4Re::chkipc</text>
</a>
</g>
</g>
<!-- Node6&#45;&gt;Node10 -->
<g id="edge5" class="edge">
<title>Node6&#45;&gt;Node10</title>
<path fill="none" stroke="#191970" d="M241.5811,-337.2162C261.1834,-339.42 281.6208,-341.7177 298.5689,-343.6231"/>
<polygon fill="#191970" stroke="#191970" points="241.7578,-333.7141 231.4294,-336.0749 240.9757,-340.6703 241.7578,-333.7141"/>
</g>
<!-- Node11 -->
<g id="node7" class="node">
<title>Node11</title>
<g id="a_node7"><a xlink:href="classL4_1_1Server.html#a4333dc750dee494087ee92ab058718a1" target="_top" xlink:title="Internal implementation for reply and wait. ">
<polygon fill="#ffffff" stroke="#000000" points="273,-300.5 273,-319.5 402,-319.5 402,-300.5 273,-300.5"/>
<text text-anchor="middle" x="337.5" y="-307.5" font-family="Helvetica,sans-Serif" font-size="10.00" fill="#000000">L4::Server::reply_n_wait</text>
</a>
</g>
</g>
<!-- Node6&#45;&gt;Node11 -->
<g id="edge6" class="edge">
<title>Node6&#45;&gt;Node11</title>
<path fill="none" stroke="#191970" d="M241.689,-320.7717C252.0493,-319.6069 262.6405,-318.4162 272.8246,-317.2712"/>
<polygon fill="#191970" stroke="#191970" points="240.9757,-317.3297 231.4294,-321.9251 241.7578,-324.2859 240.9757,-317.3297"/>
</g>
<!-- Node6&#45;&gt;Node12 -->
<g id="edge7" class="edge">
<title>Node6&#45;&gt;Node12</title>
<path fill="none" stroke="#191970" d="M202.3652,-315.8907C222.4788,-308.2744 248.5555,-298.6938 272,-291 282.0125,-287.7142 292.9798,-284.4166 303.0279,-281.5126"/>
<polygon fill="#191970" stroke="#191970" points="201.107,-312.6246 193.0079,-319.455 203.5988,-319.1661 201.107,-312.6246"/>
</g>
<!-- Node8 -->
<g id="node4" class="node">
<title>Node8</title>
<g id="a_node4"><a xlink:href="namespaceL4.html#a54f8da0e02ff2496f1ad935e38ab17c4" target="_top" xlink:title="Throw an L4 IPC error as exception. ">
<polygon fill="#ffffff" stroke="#000000" points="439,-414.5 439,-433.5 570,-433.5 570,-414.5 439,-414.5"/>
<text text-anchor="middle" x="504.5" y="-421.5" font-family="Helvetica,sans-Serif" font-size="10.00" fill="#000000">L4::throw_ipc_exception</text>
</a>
</g>
</g>
<!-- Node7&#45;&gt;Node8 -->
<g id="edge3" class="edge">
<title>Node7&#45;&gt;Node8</title>
<path fill="none" stroke="#191970" d="M413.0663,-424C421.6848,-424 430.4171,-424 438.8913,-424"/>
<polygon fill="#191970" stroke="#191970" points="413.0235,-420.5001 403.0235,-424 413.0235,-427.5001 413.0235,-420.5001"/>
</g>
<!-- Node14 -->
<g id="node10" class="node">
<title>Node14</title>
<g id="a_node10"><a xlink:href="group__l4__irq__api.html#gab24e0fc21a207fd566ece1e6fafbac48" target="_top" xlink:title="Trigger an IRQ. ">
<polygon fill="#ffffff" stroke="#000000" points="297.5,-224.5 297.5,-243.5 377.5,-243.5 377.5,-224.5 297.5,-224.5"/>
<text text-anchor="middle" x="337.5" y="-231.5" font-family="Helvetica,sans-Serif" font-size="10.00" fill="#000000">l4_irq_trigger</text>
</a>
</g>
</g>
<!-- Node13&#45;&gt;Node14 -->
<g id="edge10" class="edge">
<title>Node13&#45;&gt;Node14</title>
<path fill="none" stroke="#191970" d="M224.2515,-234C248.1868,-234 275.6159,-234 297.4845,-234"/>
<polygon fill="#191970" stroke="#191970" points="224.2339,-230.5001 214.2338,-234 224.2338,-237.5001 224.2339,-230.5001"/>
</g>
<!-- Node15 -->
<g id="node11" class="node">
<title>Node15</title>
<g id="a_node11"><a xlink:href="structL4_1_1Triggerable.html#a7109ca8b4aeac0169639f973c91a3a6b" target="_top" xlink:title="Trigger. ">
<polygon fill="#ffffff" stroke="#000000" points="276.5,-186.5 276.5,-205.5 398.5,-205.5 398.5,-186.5 276.5,-186.5"/>
<text text-anchor="middle" x="337.5" y="-193.5" font-family="Helvetica,sans-Serif" font-size="10.00" fill="#000000">L4::Triggerable::trigger</text>
</a>
</g>
</g>
<!-- Node13&#45;&gt;Node15 -->
<g id="edge11" class="edge">
<title>Node13&#45;&gt;Node15</title>
<path fill="none" stroke="#191970" d="M221.0869,-222.1757C244.9129,-216.8184 272.7069,-210.5689 295.1608,-205.5201"/>
<polygon fill="#191970" stroke="#191970" points="220.1344,-218.8024 211.1458,-224.411 221.6701,-225.6319 220.1344,-218.8024"/>
</g>
<!-- Node16 -->
<g id="node12" class="node">
<title>Node16</title>
<g id="a_node12"><a xlink:href="structL4_1_1Semaphore.html#a3de7e4e35ff4dadab9a26f3b87fb76bc" target="_top" xlink:title="Semaphore up operation (wrapper for trigger()). ">
<polygon fill="#ffffff" stroke="#000000" points="452.5,-186.5 452.5,-205.5 556.5,-205.5 556.5,-186.5 452.5,-186.5"/>
<text text-anchor="middle" x="504.5" y="-193.5" font-family="Helvetica,sans-Serif" font-size="10.00" fill="#000000">L4::Semaphore::up</text>
</a>
</g>
</g>
<!-- Node15&#45;&gt;Node16 -->
<g id="edge12" class="edge">
<title>Node15&#45;&gt;Node16</title>
<path fill="none" stroke="#191970" d="M408.7602,-196C423.3902,-196 438.5326,-196 452.3382,-196"/>
<polygon fill="#191970" stroke="#191970" points="408.7364,-192.5001 398.7364,-196 408.7363,-199.5001 408.7364,-192.5001"/>
</g>
<!-- Node19 -->
<g id="node15" class="node">
<title>Node19</title>
<g id="a_node15"><a xlink:href="classL4Re_1_1Util_1_1Object__registry.html#aeeea59583ffddfef4e7c1c3e6eed41b6" target="_top" xlink:title="Remove a server object from the handler list. ">
<polygon fill="#ffffff" stroke="#000000" points="273,-137 273,-167 402,-167 402,-137 273,-137"/>
<text text-anchor="start" x="281" y="-155" font-family="Helvetica,sans-Serif" font-size="10.00" fill="#000000">L4Re::Util::Object</text>
<text text-anchor="middle" x="337.5" y="-144" font-family="Helvetica,sans-Serif" font-size="10.00" fill="#000000">_registry::unregister_obj</text>
</a>
</g>
</g>
<!-- Node18&#45;&gt;Node19 -->
<g id="edge15" class="edge">
<title>Node18&#45;&gt;Node19</title>
<path fill="none" stroke="#191970" d="M230.4603,-152C244.2318,-152 258.8651,-152 272.7454,-152"/>
<polygon fill="#191970" stroke="#191970" points="230.1239,-148.5001 220.1239,-152 230.1238,-155.5001 230.1239,-148.5001"/>
</g>
</g>
</svg>
