<?xml version="1.0" encoding="UTF-8" standalone="no"?>
<!DOCTYPE svg PUBLIC "-//W3C//DTD SVG 1.1//EN"
 "http://www.w3.org/Graphics/SVG/1.1/DTD/svg11.dtd">
<!-- Generated by graphviz version 2.40.1 (20161225.0304)
 -->
<!-- Title: l4_factory_create_task_u Pages: 1 -->
<svg width="308pt" height="66pt"
 viewBox="0.00 0.00 308.00 66.00" xmlns="http://www.w3.org/2000/svg" xmlns:xlink="http://www.w3.org/1999/xlink">
<g id="graph0" class="graph" transform="scale(1 1) rotate(0) translate(4 62)">
<title>l4_factory_create_task_u</title>
<polygon fill="#ffffff" stroke="transparent" points="-4,4 -4,-62 304,-62 304,4 -4,4"/>
<!-- Node29 -->
<g id="node1" class="node">
<title>Node29</title>
<polygon fill="#bfbfbf" stroke="#000000" points="0,-19.5 0,-38.5 136,-38.5 136,-19.5 0,-19.5"/>
<text text-anchor="middle" x="68" y="-26.5" font-family="Helvetica,sans-Serif" font-size="10.00" fill="#000000">l4_factory_create_task_u</text>
</g>
<!-- Node30 -->
<g id="node2" class="node">
<title>Node30</title>
<g id="a_node2"><a xlink:href="classL4_1_1Factory.html#a5a2119bba3ea97bfb0f10897c1c64ecb" target="_top" xlink:title="Create a new task. ">
<polygon fill="#ffffff" stroke="#000000" points="172,-38.5 172,-57.5 300,-57.5 300,-38.5 172,-38.5"/>
<text text-anchor="middle" x="236" y="-45.5" font-family="Helvetica,sans-Serif" font-size="10.00" fill="#000000">L4::Factory::create_task</text>
</a>
</g>
</g>
<!-- Node29&#45;&gt;Node30 -->
<g id="edge1" class="edge">
<title>Node29&#45;&gt;Node30</title>
<path fill="none" stroke="#191970" d="M146.2986,-37.8552C154.8376,-38.8209 163.4555,-39.7956 171.7973,-40.739"/>
<polygon fill="#191970" stroke="#191970" points="146.662,-34.3741 136.332,-36.728 145.8753,-41.3297 146.662,-34.3741"/>
</g>
<!-- Node31 -->
<g id="node3" class="node">
<title>Node31</title>
<g id="a_node3"><a xlink:href="group__l4__factory__api.html#gaa68cf0ef0a5f11b15e5f77e241ff0b2a" target="_top" xlink:title="Create a new task. ">
<polygon fill="#ffffff" stroke="#000000" points="173.5,-.5 173.5,-19.5 298.5,-19.5 298.5,-.5 173.5,-.5"/>
<text text-anchor="middle" x="236" y="-7.5" font-family="Helvetica,sans-Serif" font-size="10.00" fill="#000000">l4_factory_create_task</text>
</a>
</g>
</g>
<!-- Node29&#45;&gt;Node31 -->
<g id="edge2" class="edge">
<title>Node29&#45;&gt;Node31</title>
<path fill="none" stroke="#191970" d="M146.4734,-20.125C155.5079,-19.1033 164.6279,-18.0718 173.4131,-17.0783"/>
<polygon fill="#191970" stroke="#191970" points="145.8753,-16.6703 136.332,-21.272 146.662,-23.6259 145.8753,-16.6703"/>
</g>
</g>
</svg>
