<?xml version="1.0" encoding="UTF-8" standalone="no"?>
<!DOCTYPE svg PUBLIC "-//W3C//DTD SVG 1.1//EN"
 "http://www.w3.org/Graphics/SVG/1.1/DTD/svg11.dtd">
<!-- Generated by graphviz version 2.40.1 (20161225.0304)
 -->
<!-- Title: l4vcpu_irq_restore Pages: 1 -->
<svg width="350pt" height="66pt"
 viewBox="0.00 0.00 350.00 66.00" xmlns="http://www.w3.org/2000/svg" xmlns:xlink="http://www.w3.org/1999/xlink">
<g id="graph0" class="graph" transform="scale(1 1) rotate(0) translate(4 62)">
<title>l4vcpu_irq_restore</title>
<polygon fill="#ffffff" stroke="transparent" points="-4,4 -4,-62 346,-62 346,4 -4,4"/>
<!-- Node22 -->
<g id="node1" class="node">
<title>Node22</title>
<polygon fill="#bfbfbf" stroke="#000000" points="0,-19.5 0,-38.5 104,-38.5 104,-19.5 0,-19.5"/>
<text text-anchor="middle" x="52" y="-26.5" font-family="Helvetica,sans-Serif" font-size="10.00" fill="#000000">l4vcpu_irq_restore</text>
</g>
<!-- Node23 -->
<g id="node2" class="node">
<title>Node23</title>
<g id="a_node2"><a xlink:href="group__api__libvcpu.html#gac8dd177f5382328e3922754cc9d36b28" target="_top" xlink:title="Disable a vCPU for event delivery. ">
<polygon fill="#ffffff" stroke="#000000" points="140,-38.5 140,-57.5 244,-57.5 244,-38.5 140,-38.5"/>
<text text-anchor="middle" x="192" y="-45.5" font-family="Helvetica,sans-Serif" font-size="10.00" fill="#000000">l4vcpu_irq_disable</text>
</a>
</g>
</g>
<!-- Node22&#45;&gt;Node23 -->
<g id="edge1" class="edge">
<title>Node22&#45;&gt;Node23</title>
<path fill="none" stroke="#191970" d="M104.1308,-36.0749C112.5124,-37.2124 121.2603,-38.3996 129.8486,-39.5652"/>
<polygon fill="#191970" stroke="#191970" points="129.4458,-43.0425 139.8256,-40.9192 130.3872,-36.1061 129.4458,-43.0425"/>
</g>
<!-- Node25 -->
<g id="node4" class="node">
<title>Node25</title>
<g id="a_node4"><a xlink:href="group__api__libvcpu.html#ga58a61ec0b02bed0a03f708e1594cf8a5" target="_top" xlink:title="Enable a vCPU for event delivery. ">
<polygon fill="#ffffff" stroke="#000000" points="141,-.5 141,-19.5 243,-19.5 243,-.5 141,-.5"/>
<text text-anchor="middle" x="192" y="-7.5" font-family="Helvetica,sans-Serif" font-size="10.00" fill="#000000">l4vcpu_irq_enable</text>
</a>
</g>
</g>
<!-- Node22&#45;&gt;Node25 -->
<g id="edge3" class="edge">
<title>Node22&#45;&gt;Node25</title>
<path fill="none" stroke="#191970" d="M104.1308,-21.9251C112.8295,-20.7446 121.9226,-19.5105 130.8224,-18.3027"/>
<polygon fill="#191970" stroke="#191970" points="131.3187,-21.7675 140.7571,-16.9544 130.3773,-14.8311 131.3187,-21.7675"/>
</g>
<!-- Node24 -->
<g id="node3" class="node">
<title>Node24</title>
<g id="a_node3"><a xlink:href="group__l4sys__defines.html#ga4accdcabe8bddb4964f8986855e7c728" target="_top" xlink:title="Memory barrier. ">
<polygon fill="#ffffff" stroke="#000000" points="280,-19.5 280,-38.5 342,-38.5 342,-19.5 280,-19.5"/>
<text text-anchor="middle" x="311" y="-26.5" font-family="Helvetica,sans-Serif" font-size="10.00" fill="#000000">l4_barrier</text>
</a>
</g>
</g>
<!-- Node23&#45;&gt;Node24 -->
<g id="edge2" class="edge">
<title>Node23&#45;&gt;Node24</title>
<path fill="none" stroke="#191970" d="M244.1951,-39.6663C252.7135,-38.3062 261.4348,-36.9138 269.6461,-35.6027"/>
<polygon fill="#191970" stroke="#191970" points="270.3977,-39.0271 279.7208,-33.9942 269.294,-32.1147 270.3977,-39.0271"/>
</g>
<!-- Node25&#45;&gt;Node24 -->
<g id="edge4" class="edge">
<title>Node25&#45;&gt;Node24</title>
<path fill="none" stroke="#191970" d="M243.1573,-18.168C252.0248,-19.5838 261.1444,-21.0399 269.7073,-22.407"/>
<polygon fill="#191970" stroke="#191970" points="269.3948,-25.9014 279.8216,-24.0219 270.4985,-18.989 269.3948,-25.9014"/>
</g>
</g>
</svg>
