<?xml version="1.0" encoding="UTF-8" standalone="no"?>
<!DOCTYPE svg PUBLIC "-//W3C//DTD SVG 1.1//EN"
 "http://www.w3.org/Graphics/SVG/1.1/DTD/svg11.dtd">
<!-- Generated by graphviz version 2.40.1 (20161225.0304)
 -->
<!-- Title: l4vcpu_irq_enable Pages: 1 -->
<svg width="448pt" height="66pt"
 viewBox="0.00 0.00 448.00 66.00" xmlns="http://www.w3.org/2000/svg" xmlns:xlink="http://www.w3.org/1999/xlink">
<g id="graph0" class="graph" transform="scale(1 1) rotate(0) translate(4 62)">
<title>l4vcpu_irq_enable</title>
<polygon fill="#ffffff" stroke="transparent" points="-4,4 -4,-62 444,-62 444,4 -4,4"/>
<!-- Node18 -->
<g id="node1" class="node">
<title>Node18</title>
<polygon fill="#bfbfbf" stroke="#000000" points="0,-19.5 0,-38.5 102,-38.5 102,-19.5 0,-19.5"/>
<text text-anchor="middle" x="51" y="-26.5" font-family="Helvetica,sans-Serif" font-size="10.00" fill="#000000">l4vcpu_irq_enable</text>
</g>
<!-- Node19 -->
<g id="node2" class="node">
<title>Node19</title>
<g id="a_node2"><a xlink:href="classL4vcpu_1_1Vcpu.html#a9776fe5423e6215779e321a921a9ac90" target="_top" xlink:title="Enable the vCPU for event delivery. ">
<polygon fill="#ffffff" stroke="#000000" points="138,-38.5 138,-57.5 270,-57.5 270,-38.5 138,-38.5"/>
<text text-anchor="middle" x="204" y="-45.5" font-family="Helvetica,sans-Serif" font-size="10.00" fill="#000000">L4vcpu::Vcpu::irq_enable</text>
</a>
</g>
</g>
<!-- Node18&#45;&gt;Node19 -->
<g id="edge1" class="edge">
<title>Node18&#45;&gt;Node19</title>
<path fill="none" stroke="#191970" d="M112.4151,-36.6267C120.7732,-37.6646 129.3815,-38.7336 137.8192,-39.7815"/>
<polygon fill="#191970" stroke="#191970" points="112.7275,-33.1387 102.3724,-35.3796 111.8648,-40.0854 112.7275,-33.1387"/>
</g>
<!-- Node20 -->
<g id="node3" class="node">
<title>Node20</title>
<g id="a_node3"><a xlink:href="group__api__libvcpu.html#ga68cccc12b6542f9413afb281d8bdffcc" target="_top" xlink:title="Restore a previously saved IRQ/event state. ">
<polygon fill="#ffffff" stroke="#000000" points="152,-.5 152,-19.5 256,-19.5 256,-.5 152,-.5"/>
<text text-anchor="middle" x="204" y="-7.5" font-family="Helvetica,sans-Serif" font-size="10.00" fill="#000000">l4vcpu_irq_restore</text>
</a>
</g>
</g>
<!-- Node18&#45;&gt;Node20 -->
<g id="edge2" class="edge">
<title>Node18&#45;&gt;Node20</title>
<path fill="none" stroke="#191970" d="M112.6697,-21.3417C125.7072,-19.7226 139.3424,-18.0294 151.981,-16.4599"/>
<polygon fill="#191970" stroke="#191970" points="111.8648,-17.9146 102.3724,-22.6204 112.7275,-24.8613 111.8648,-17.9146"/>
</g>
<!-- Node21 -->
<g id="node4" class="node">
<title>Node21</title>
<g id="a_node4"><a xlink:href="classL4vcpu_1_1Vcpu.html#af180fbb0106c7727a255eb8185dbe981" target="_top" xlink:title="Restore a previously saved IRQ/event state. ">
<polygon fill="#ffffff" stroke="#000000" points="306,-.5 306,-19.5 440,-19.5 440,-.5 306,-.5"/>
<text text-anchor="middle" x="373" y="-7.5" font-family="Helvetica,sans-Serif" font-size="10.00" fill="#000000">L4vcpu::Vcpu::irq_restore</text>
</a>
</g>
</g>
<!-- Node20&#45;&gt;Node21 -->
<g id="edge3" class="edge">
<title>Node20&#45;&gt;Node21</title>
<path fill="none" stroke="#191970" d="M266.237,-10C279.1267,-10 292.7605,-10 305.8179,-10"/>
<polygon fill="#191970" stroke="#191970" points="266.0846,-6.5001 256.0846,-10 266.0845,-13.5001 266.0846,-6.5001"/>
</g>
</g>
</svg>
