<?xml version="1.0" encoding="UTF-8" standalone="no"?>
<!DOCTYPE svg PUBLIC "-//W3C//DTD SVG 1.1//EN"
 "http://www.w3.org/Graphics/SVG/1.1/DTD/svg11.dtd">
<!-- Generated by graphviz version 2.40.1 (20161225.0304)
 -->
<!-- Title: l4_ipc_call Pages: 1 -->
<svg width="388pt" height="116pt"
 viewBox="0.00 0.00 388.00 115.50" xmlns="http://www.w3.org/2000/svg" xmlns:xlink="http://www.w3.org/1999/xlink">
<g id="graph0" class="graph" transform="scale(1 1) rotate(0) translate(4 111.5)">
<title>l4_ipc_call</title>
<polygon fill="#ffffff" stroke="transparent" points="-4,4 -4,-111.5 384,-111.5 384,4 -4,4"/>
<!-- Node27 -->
<g id="node1" class="node">
<title>Node27</title>
<polygon fill="#bfbfbf" stroke="#000000" points="0,-50 0,-69 66,-69 66,-50 0,-50"/>
<text text-anchor="middle" x="33" y="-57" font-family="Helvetica,sans-Serif" font-size="10.00" fill="#000000">l4_ipc_call</text>
</g>
<!-- Node28 -->
<g id="node2" class="node">
<title>Node28</title>
<g id="a_node2"><a xlink:href="classL4_1_1Ipc_1_1Iostream.html#a18ac55dddefc29f84d47935dbc86b7ca" target="_top" xlink:title="Do an IPC call using the message in the output stream and receive the reply in the input stream...">
<polygon fill="#ffffff" stroke="#000000" points="102,-88 102,-107 215,-107 215,-88 102,-88"/>
<text text-anchor="middle" x="158.5" y="-95" font-family="Helvetica,sans-Serif" font-size="10.00" fill="#000000">L4::Ipc::Iostream::call</text>
</a>
</g>
</g>
<!-- Node27&#45;&gt;Node28 -->
<g id="edge1" class="edge">
<title>Node27&#45;&gt;Node28</title>
<path fill="none" stroke="#191970" d="M74.3995,-72.0353C91.4723,-77.2048 110.9391,-83.0991 126.8412,-87.9141"/>
<polygon fill="#191970" stroke="#191970" points="75.2541,-68.6372 64.6689,-69.089 73.2255,-75.3368 75.2541,-68.6372"/>
</g>
<!-- Node29 -->
<g id="node3" class="node">
<title>Node29</title>
<g id="a_node3"><a xlink:href="x86_2l4f_2l4_2util_2port__io_8h.html#a38a37fdbed4dd2dca75ce192d506a2d4" target="_top" xlink:title="Map a range of I/O ports. ">
<polygon fill="#ffffff" stroke="#000000" points="110,-50 110,-69 207,-69 207,-50 110,-50"/>
<text text-anchor="middle" x="158.5" y="-57" font-family="Helvetica,sans-Serif" font-size="10.00" fill="#000000">l4util_ioport_map</text>
</a>
</g>
</g>
<!-- Node27&#45;&gt;Node29 -->
<g id="edge2" class="edge">
<title>Node27&#45;&gt;Node29</title>
<path fill="none" stroke="#191970" d="M76.3676,-59.5C87.1884,-59.5 98.862,-59.5 109.9167,-59.5"/>
<polygon fill="#191970" stroke="#191970" points="76.3022,-56.0001 66.3022,-59.5 76.3022,-63.0001 76.3022,-56.0001"/>
</g>
<!-- Node30 -->
<g id="node4" class="node">
<title>Node30</title>
<g id="a_node4"><a xlink:href="classL4_1_1Thread.html#a9bcade7e8db8d775cc1f2a2a6225c845" target="_top" xlink:title="Apply sender modification rules. ">
<polygon fill="#ffffff" stroke="#000000" points="107,-.5 107,-30.5 210,-30.5 210,-.5 107,-.5"/>
<text text-anchor="start" x="115" y="-18.5" font-family="Helvetica,sans-Serif" font-size="10.00" fill="#000000">L4::Thread::modify</text>
<text text-anchor="middle" x="158.5" y="-7.5" font-family="Helvetica,sans-Serif" font-size="10.00" fill="#000000">_senders</text>
</a>
</g>
</g>
<!-- Node27&#45;&gt;Node30 -->
<g id="edge3" class="edge">
<title>Node27&#45;&gt;Node30</title>
<path fill="none" stroke="#191970" d="M69.7613,-46.6116C84.1023,-41.5837 100.6431,-35.7845 115.5295,-30.5654"/>
<polygon fill="#191970" stroke="#191970" points="68.5105,-43.3412 60.2316,-49.9527 70.8265,-49.947 68.5105,-43.3412"/>
</g>
<!-- Node31 -->
<g id="node5" class="node">
<title>Node31</title>
<g id="a_node5"><a xlink:href="classL4Re_1_1Util_1_1Object__registry.html#aeeea59583ffddfef4e7c1c3e6eed41b6" target="_top" xlink:title="Remove a server object from the handler list. ">
<polygon fill="#ffffff" stroke="#000000" points="251,-.5 251,-30.5 380,-30.5 380,-.5 251,-.5"/>
<text text-anchor="start" x="259" y="-18.5" font-family="Helvetica,sans-Serif" font-size="10.00" fill="#000000">L4Re::Util::Object</text>
<text text-anchor="middle" x="315.5" y="-7.5" font-family="Helvetica,sans-Serif" font-size="10.00" fill="#000000">_registry::unregister_obj</text>
</a>
</g>
</g>
<!-- Node30&#45;&gt;Node31 -->
<g id="edge4" class="edge">
<title>Node30&#45;&gt;Node31</title>
<path fill="none" stroke="#191970" d="M220.5502,-15.5C230.5007,-15.5 240.8205,-15.5 250.8305,-15.5"/>
<polygon fill="#191970" stroke="#191970" points="220.3428,-12.0001 210.3428,-15.5 220.3428,-19.0001 220.3428,-12.0001"/>
</g>
</g>
</svg>
