<?xml version="1.0" encoding="UTF-8" standalone="no"?>
<!DOCTYPE svg PUBLIC "-//W3C//DTD SVG 1.1//EN"
 "http://www.w3.org/Graphics/SVG/1.1/DTD/svg11.dtd">
<!-- Generated by graphviz version 2.40.1 (20161225.0304)
 -->
<!-- Title: l4_thread_ex_regs_u Pages: 1 -->
<svg width="271pt" height="66pt"
 viewBox="0.00 0.00 271.00 66.00" xmlns="http://www.w3.org/2000/svg" xmlns:xlink="http://www.w3.org/1999/xlink">
<g id="graph0" class="graph" transform="scale(1 1) rotate(0) translate(4 62)">
<title>l4_thread_ex_regs_u</title>
<polygon fill="#ffffff" stroke="transparent" points="-4,4 -4,-62 267,-62 267,4 -4,4"/>
<!-- Node15 -->
<g id="node1" class="node">
<title>Node15</title>
<polygon fill="#bfbfbf" stroke="#000000" points="0,-19.5 0,-38.5 117,-38.5 117,-19.5 0,-19.5"/>
<text text-anchor="middle" x="58.5" y="-26.5" font-family="Helvetica,sans-Serif" font-size="10.00" fill="#000000">l4_thread_ex_regs_u</text>
</g>
<!-- Node16 -->
<g id="node2" class="node">
<title>Node16</title>
<g id="a_node2"><a xlink:href="classL4_1_1Thread.html#aacd56bbf983577cfc591f21fd511d3b6" target="_top" xlink:title="Exchange basic thread registers. ">
<polygon fill="#ffffff" stroke="#000000" points="153,-38.5 153,-57.5 263,-57.5 263,-38.5 153,-38.5"/>
<text text-anchor="middle" x="208" y="-45.5" font-family="Helvetica,sans-Serif" font-size="10.00" fill="#000000">L4::Thread::ex_regs</text>
</a>
</g>
</g>
<!-- Node15&#45;&gt;Node16 -->
<g id="edge1" class="edge">
<title>Node15&#45;&gt;Node16</title>
<path fill="none" stroke="#191970" d="M127.2015,-37.7313C135.8235,-38.8271 144.5536,-39.9366 152.9289,-41.001"/>
<polygon fill="#191970" stroke="#191970" points="127.5188,-34.2435 117.1573,-36.4548 126.6362,-41.1877 127.5188,-34.2435"/>
</g>
<!-- Node17 -->
<g id="node3" class="node">
<title>Node17</title>
<g id="a_node3"><a xlink:href="group__l4__thread__api.html#ga1ea29499c679caeae810516d16f4347c" target="_top" xlink:title="Exchange basic thread registers. ">
<polygon fill="#ffffff" stroke="#000000" points="155,-.5 155,-19.5 261,-19.5 261,-.5 155,-.5"/>
<text text-anchor="middle" x="208" y="-7.5" font-family="Helvetica,sans-Serif" font-size="10.00" fill="#000000">l4_thread_ex_regs</text>
</a>
</g>
</g>
<!-- Node15&#45;&gt;Node17 -->
<g id="edge2" class="edge">
<title>Node15&#45;&gt;Node17</title>
<path fill="none" stroke="#191970" d="M127.1702,-20.2727C136.4689,-19.0909 145.8938,-17.8931 154.8644,-16.753"/>
<polygon fill="#191970" stroke="#191970" points="126.6362,-16.8123 117.1573,-21.5452 127.5188,-23.7565 126.6362,-16.8123"/>
</g>
</g>
</svg>
