<?xml version="1.0" encoding="UTF-8" standalone="no"?>
<!DOCTYPE svg PUBLIC "-//W3C//DTD SVG 1.1//EN"
 "http://www.w3.org/Graphics/SVG/1.1/DTD/svg11.dtd">
<!-- Generated by graphviz version 2.40.1 (20161225.0304)
 -->
<!-- Title: l4_ipc_send Pages: 1 -->
<svg width="545pt" height="173pt"
 viewBox="0.00 0.00 545.00 173.00" xmlns="http://www.w3.org/2000/svg" xmlns:xlink="http://www.w3.org/1999/xlink">
<g id="graph0" class="graph" transform="scale(1 1) rotate(0) translate(4 169)">
<title>l4_ipc_send</title>
<polygon fill="#ffffff" stroke="transparent" points="-4,4 -4,-169 541,-169 541,4 -4,4"/>
<!-- Node46 -->
<g id="node1" class="node">
<title>Node46</title>
<polygon fill="#bfbfbf" stroke="#000000" points="0,-60.5 0,-79.5 74,-79.5 74,-60.5 0,-60.5"/>
<text text-anchor="middle" x="37" y="-67.5" font-family="Helvetica,sans-Serif" font-size="10.00" fill="#000000">l4_ipc_send</text>
</g>
<!-- Node47 -->
<g id="node2" class="node">
<title>Node47</title>
<g id="a_node2"><a xlink:href="group__l4__irq__api.html#ga180cfaf342ce9ff484a6aa7c276e1597" target="_top" xlink:title="Trigger. ">
<polygon fill="#ffffff" stroke="#000000" points="129,-126.5 129,-145.5 220,-145.5 220,-126.5 129,-126.5"/>
<text text-anchor="middle" x="174.5" y="-133.5" font-family="Helvetica,sans-Serif" font-size="10.00" fill="#000000">l4_irq_trigger_u</text>
</a>
</g>
</g>
<!-- Node46&#45;&gt;Node47 -->
<g id="edge1" class="edge">
<title>Node46&#45;&gt;Node47</title>
<path fill="none" stroke="#191970" d="M58.3449,-85.5486C72.4685,-95.2983 91.6944,-107.5718 110,-116 118.7325,-120.0206 128.4884,-123.5175 137.7162,-126.4136"/>
<polygon fill="#191970" stroke="#191970" points="60.0522,-82.4701 49.8614,-79.5719 56.0206,-88.1926 60.0522,-82.4701"/>
</g>
<!-- Node51 -->
<g id="node6" class="node">
<title>Node51</title>
<g id="a_node6"><a xlink:href="classL4_1_1Ipc_1_1Iostream.html#a38428e61e86208016e9653937da01f6d" target="_top" xlink:title="Do an IPC reply and wait. ">
<polygon fill="#ffffff" stroke="#000000" points="125.5,-77 125.5,-107 223.5,-107 223.5,-77 125.5,-77"/>
<text text-anchor="start" x="133.5" y="-95" font-family="Helvetica,sans-Serif" font-size="10.00" fill="#000000">L4::Ipc::Iostream::</text>
<text text-anchor="middle" x="174.5" y="-84" font-family="Helvetica,sans-Serif" font-size="10.00" fill="#000000">reply_and_wait</text>
</a>
</g>
</g>
<!-- Node46&#45;&gt;Node51 -->
<g id="edge5" class="edge">
<title>Node46&#45;&gt;Node51</title>
<path fill="none" stroke="#191970" d="M84.1166,-77.5387C97.4289,-79.6686 111.9462,-81.9914 125.3735,-84.1398"/>
<polygon fill="#191970" stroke="#191970" points="84.6369,-74.0775 74.2095,-75.9535 83.5309,-80.9895 84.6369,-74.0775"/>
</g>
<!-- Node52 -->
<g id="node7" class="node">
<title>Node52</title>
<g id="a_node7"><a xlink:href="classL4_1_1Server.html#a4333dc750dee494087ee92ab058718a1" target="_top" xlink:title="Internal implementation for reply and wait. ">
<polygon fill="#ffffff" stroke="#000000" points="110,-38.5 110,-57.5 239,-57.5 239,-38.5 110,-38.5"/>
<text text-anchor="middle" x="174.5" y="-45.5" font-family="Helvetica,sans-Serif" font-size="10.00" fill="#000000">L4::Server::reply_n_wait</text>
</a>
</g>
</g>
<!-- Node46&#45;&gt;Node52 -->
<g id="edge6" class="edge">
<title>Node46&#45;&gt;Node52</title>
<path fill="none" stroke="#191970" d="M84.2472,-62.4405C94.1469,-60.8565 104.7081,-59.1667 114.9886,-57.5218"/>
<polygon fill="#191970" stroke="#191970" points="83.5309,-59.0105 74.2095,-64.0465 84.6369,-65.9225 83.5309,-59.0105"/>
</g>
<!-- Node53 -->
<g id="node8" class="node">
<title>Node53</title>
<g id="a_node8"><a xlink:href="classL4_1_1Ipc_1_1Ostream.html#a0ac15ba65285ed66a3b2ae7f9dc612d1" target="_top" xlink:title="Send the message via IPC to the given receiver. ">
<polygon fill="#ffffff" stroke="#000000" points="114.5,-.5 114.5,-19.5 234.5,-19.5 234.5,-.5 114.5,-.5"/>
<text text-anchor="middle" x="174.5" y="-7.5" font-family="Helvetica,sans-Serif" font-size="10.00" fill="#000000">L4::Ipc::Ostream::send</text>
</a>
</g>
</g>
<!-- Node46&#45;&gt;Node53 -->
<g id="edge7" class="edge">
<title>Node46&#45;&gt;Node53</title>
<path fill="none" stroke="#191970" d="M60.1177,-55.2401C74.1474,-46.7383 92.641,-36.321 110,-29 118.4974,-25.4163 127.8927,-22.2351 136.8224,-19.5491"/>
<polygon fill="#191970" stroke="#191970" points="58.2702,-52.2674 51.5996,-60.4987 61.9473,-58.2238 58.2702,-52.2674"/>
</g>
<!-- Node48 -->
<g id="node3" class="node">
<title>Node48</title>
<g id="a_node3"><a xlink:href="group__l4__irq__api.html#gab24e0fc21a207fd566ece1e6fafbac48" target="_top" xlink:title="Trigger an IRQ. ">
<polygon fill="#ffffff" stroke="#000000" points="296,-145.5 296,-164.5 376,-164.5 376,-145.5 296,-145.5"/>
<text text-anchor="middle" x="336" y="-152.5" font-family="Helvetica,sans-Serif" font-size="10.00" fill="#000000">l4_irq_trigger</text>
</a>
</g>
</g>
<!-- Node47&#45;&gt;Node48 -->
<g id="edge2" class="edge">
<title>Node47&#45;&gt;Node48</title>
<path fill="none" stroke="#191970" d="M230.3535,-142.571C251.8872,-145.1044 276.0391,-147.9458 295.8095,-150.2717"/>
<polygon fill="#191970" stroke="#191970" points="230.6879,-139.0863 220.3474,-141.3938 229.87,-146.0383 230.6879,-139.0863"/>
</g>
<!-- Node49 -->
<g id="node4" class="node">
<title>Node49</title>
<g id="a_node4"><a xlink:href="structL4_1_1Triggerable.html#a7109ca8b4aeac0169639f973c91a3a6b" target="_top" xlink:title="Trigger. ">
<polygon fill="#ffffff" stroke="#000000" points="275,-107.5 275,-126.5 397,-126.5 397,-107.5 275,-107.5"/>
<text text-anchor="middle" x="336" y="-114.5" font-family="Helvetica,sans-Serif" font-size="10.00" fill="#000000">L4::Triggerable::trigger</text>
</a>
</g>
</g>
<!-- Node47&#45;&gt;Node49 -->
<g id="edge3" class="edge">
<title>Node47&#45;&gt;Node49</title>
<path fill="none" stroke="#191970" d="M230.5542,-129.4054C244.891,-127.7187 260.3769,-125.8968 274.951,-124.1822"/>
<polygon fill="#191970" stroke="#191970" points="229.87,-125.9617 220.3474,-130.6062 230.6879,-132.9137 229.87,-125.9617"/>
</g>
<!-- Node50 -->
<g id="node5" class="node">
<title>Node50</title>
<g id="a_node5"><a xlink:href="structL4_1_1Semaphore.html#a3de7e4e35ff4dadab9a26f3b87fb76bc" target="_top" xlink:title="Semaphore up operation (wrapper for trigger()). ">
<polygon fill="#ffffff" stroke="#000000" points="433,-107.5 433,-126.5 537,-126.5 537,-107.5 433,-107.5"/>
<text text-anchor="middle" x="485" y="-114.5" font-family="Helvetica,sans-Serif" font-size="10.00" fill="#000000">L4::Semaphore::up</text>
</a>
</g>
</g>
<!-- Node49&#45;&gt;Node50 -->
<g id="edge4" class="edge">
<title>Node49&#45;&gt;Node50</title>
<path fill="none" stroke="#191970" d="M407.1541,-117C415.8227,-117 424.5518,-117 432.8707,-117"/>
<polygon fill="#191970" stroke="#191970" points="407.034,-113.5001 397.0339,-117 407.0339,-120.5001 407.034,-113.5001"/>
</g>
</g>
</svg>
