<?xml version="1.0" encoding="UTF-8" standalone="no"?>
<!DOCTYPE svg PUBLIC "-//W3C//DTD SVG 1.1//EN"
 "http://www.w3.org/Graphics/SVG/1.1/DTD/svg11.dtd">
<!-- Generated by graphviz version 2.40.1 (20161225.0304)
 -->
<!-- Title: l4vcpu_irq_disable_save Pages: 1 -->
<svg width="392pt" height="104pt"
 viewBox="0.00 0.00 392.00 104.00" xmlns="http://www.w3.org/2000/svg" xmlns:xlink="http://www.w3.org/1999/xlink">
<g id="graph0" class="graph" transform="scale(1 1) rotate(0) translate(4 100)">
<title>l4vcpu_irq_disable_save</title>
<polygon fill="#ffffff" stroke="transparent" points="-4,4 -4,-100 388,-100 388,4 -4,4"/>
<!-- Node8 -->
<g id="node1" class="node">
<title>Node8</title>
<polygon fill="#bfbfbf" stroke="#000000" points="0,-38.5 0,-57.5 132,-57.5 132,-38.5 0,-38.5"/>
<text text-anchor="middle" x="66" y="-45.5" font-family="Helvetica,sans-Serif" font-size="10.00" fill="#000000">l4vcpu_irq_disable_save</text>
</g>
<!-- Node9 -->
<g id="node2" class="node">
<title>Node9</title>
<g id="a_node2"><a xlink:href="group__l4__ipc__api.html#gade81ef7ed9cb9e08bec716e640eabe04" target="_top" xlink:title="Wait for an incoming message from any possible sender. ">
<polygon fill="#ffffff" stroke="#000000" points="192.5,-76.5 192.5,-95.5 261.5,-95.5 261.5,-76.5 192.5,-76.5"/>
<text text-anchor="middle" x="227" y="-83.5" font-family="Helvetica,sans-Serif" font-size="10.00" fill="#000000">l4_ipc_wait</text>
</a>
</g>
</g>
<!-- Node8&#45;&gt;Node9 -->
<g id="edge1" class="edge">
<title>Node8&#45;&gt;Node9</title>
<path fill="none" stroke="#191970" d="M106.6271,-57.589C129.7759,-63.0527 158.8099,-69.9054 182.5632,-75.5118"/>
<polygon fill="#191970" stroke="#191970" points="181.8507,-78.9397 192.3873,-77.8305 183.4587,-72.1269 181.8507,-78.9397"/>
</g>
<!-- Node11 -->
<g id="node4" class="node">
<title>Node11</title>
<g id="a_node4"><a xlink:href="group__l4__msgtag__api.html#ga52e71bb66855f4d78fa5c82b5f0c5a87" target="_top" xlink:title="Test for error indicator flag. ">
<polygon fill="#ffffff" stroke="#000000" points="168,-38.5 168,-57.5 286,-57.5 286,-38.5 168,-38.5"/>
<text text-anchor="middle" x="227" y="-45.5" font-family="Helvetica,sans-Serif" font-size="10.00" fill="#000000">l4_msgtag_has_error</text>
</a>
</g>
</g>
<!-- Node8&#45;&gt;Node11 -->
<g id="edge3" class="edge">
<title>Node8&#45;&gt;Node11</title>
<path fill="none" stroke="#191970" d="M132.4144,-48C140.7894,-48 149.3744,-48 157.7914,-48"/>
<polygon fill="#191970" stroke="#191970" points="157.9495,-51.5001 167.9495,-48 157.9494,-44.5001 157.9495,-51.5001"/>
</g>
<!-- Node12 -->
<g id="node5" class="node">
<title>Node12</title>
<g id="a_node5"><a xlink:href="group__api__libvcpu.html#gac8dd177f5382328e3922754cc9d36b28" target="_top" xlink:title="Disable a vCPU for event delivery. ">
<polygon fill="#ffffff" stroke="#000000" points="175,-.5 175,-19.5 279,-19.5 279,-.5 175,-.5"/>
<text text-anchor="middle" x="227" y="-7.5" font-family="Helvetica,sans-Serif" font-size="10.00" fill="#000000">l4vcpu_irq_disable</text>
</a>
</g>
</g>
<!-- Node8&#45;&gt;Node12 -->
<g id="edge4" class="edge">
<title>Node8&#45;&gt;Node12</title>
<path fill="none" stroke="#191970" d="M106.6271,-38.411C127.9685,-33.3739 154.3119,-27.1562 176.9081,-21.8229"/>
<polygon fill="#191970" stroke="#191970" points="177.7365,-25.2237 186.665,-19.5201 176.1284,-18.4109 177.7365,-25.2237"/>
</g>
<!-- Node10 -->
<g id="node3" class="node">
<title>Node10</title>
<g id="a_node3"><a xlink:href="group__l4__ipc__api.html#ga0e7e5b18d784b1d3439ea6e5b4bea4e2" target="_top" xlink:title="Generic L4 object invocation. ">
<polygon fill="#ffffff" stroke="#000000" points="331,-76.5 331,-95.5 375,-95.5 375,-76.5 331,-76.5"/>
<text text-anchor="middle" x="353" y="-83.5" font-family="Helvetica,sans-Serif" font-size="10.00" fill="#000000">l4_ipc</text>
</a>
</g>
</g>
<!-- Node9&#45;&gt;Node10 -->
<g id="edge2" class="edge">
<title>Node9&#45;&gt;Node10</title>
<path fill="none" stroke="#191970" d="M261.7636,-86C280.1529,-86 302.5891,-86 320.6106,-86"/>
<polygon fill="#191970" stroke="#191970" points="320.6473,-89.5001 330.6472,-86 320.6472,-82.5001 320.6473,-89.5001"/>
</g>
<!-- Node13 -->
<g id="node6" class="node">
<title>Node13</title>
<g id="a_node6"><a xlink:href="group__l4sys__defines.html#ga4accdcabe8bddb4964f8986855e7c728" target="_top" xlink:title="Memory barrier. ">
<polygon fill="#ffffff" stroke="#000000" points="322,-.5 322,-19.5 384,-19.5 384,-.5 322,-.5"/>
<text text-anchor="middle" x="353" y="-7.5" font-family="Helvetica,sans-Serif" font-size="10.00" fill="#000000">l4_barrier</text>
</a>
</g>
</g>
<!-- Node12&#45;&gt;Node13 -->
<g id="edge5" class="edge">
<title>Node12&#45;&gt;Node13</title>
<path fill="none" stroke="#191970" d="M279.3407,-10C290.1928,-10 301.4794,-10 311.8617,-10"/>
<polygon fill="#191970" stroke="#191970" points="311.8931,-13.5001 321.8931,-10 311.8931,-6.5001 311.8931,-13.5001"/>
</g>
</g>
</svg>
