<?xml version="1.0" encoding="UTF-8" standalone="no"?>
<!DOCTYPE svg PUBLIC "-//W3C//DTD SVG 1.1//EN"
 "http://www.w3.org/Graphics/SVG/1.1/DTD/svg11.dtd">
<!-- Generated by graphviz version 2.40.1 (20161225.0304)
 -->
<!-- Title: l4_vcon_write Pages: 1 -->
<svg width="373pt" height="104pt"
 viewBox="0.00 0.00 373.00 104.00" xmlns="http://www.w3.org/2000/svg" xmlns:xlink="http://www.w3.org/1999/xlink">
<g id="graph0" class="graph" transform="scale(1 1) rotate(0) translate(4 100)">
<title>l4_vcon_write</title>
<polygon fill="#ffffff" stroke="transparent" points="-4,4 -4,-100 369,-100 369,4 -4,4"/>
<!-- Node37 -->
<g id="node1" class="node">
<title>Node37</title>
<polygon fill="#bfbfbf" stroke="#000000" points="0,-57.5 0,-76.5 82,-76.5 82,-57.5 0,-57.5"/>
<text text-anchor="middle" x="41" y="-64.5" font-family="Helvetica,sans-Serif" font-size="10.00" fill="#000000">l4_vcon_write</text>
</g>
<!-- Node38 -->
<g id="node2" class="node">
<title>Node38</title>
<g id="a_node2"><a xlink:href="group__l4__utcb__api.html#gadc099b4a59e1d99638c72c11a8c8b644" target="_top" xlink:title="Get the UTCB address. ">
<polygon fill="#ffffff" stroke="#000000" points="139.5,-76.5 139.5,-95.5 189.5,-95.5 189.5,-76.5 139.5,-76.5"/>
<text text-anchor="middle" x="164.5" y="-83.5" font-family="Helvetica,sans-Serif" font-size="10.00" fill="#000000">l4_utcb</text>
</a>
</g>
</g>
<!-- Node37&#45;&gt;Node38 -->
<g id="edge1" class="edge">
<title>Node37&#45;&gt;Node38</title>
<path fill="none" stroke="#191970" d="M82.1237,-73.3267C97.3689,-75.6721 114.5091,-78.3091 129.1908,-80.5678"/>
<polygon fill="#191970" stroke="#191970" points="128.9687,-84.0748 139.3847,-82.1361 130.0332,-77.1561 128.9687,-84.0748"/>
</g>
<!-- Node39 -->
<g id="node3" class="node">
<title>Node39</title>
<g id="a_node3"><a xlink:href="group__l4__vcon__api.html#ga899728ba23baf18f59f62142534e039c" target="_top" xlink:title="Write data to this virtual console. ">
<polygon fill="#ffffff" stroke="#000000" points="118,-38.5 118,-57.5 211,-57.5 211,-38.5 118,-38.5"/>
<text text-anchor="middle" x="164.5" y="-45.5" font-family="Helvetica,sans-Serif" font-size="10.00" fill="#000000">l4_vcon_write_u</text>
</a>
</g>
</g>
<!-- Node37&#45;&gt;Node39 -->
<g id="edge2" class="edge">
<title>Node37&#45;&gt;Node39</title>
<path fill="none" stroke="#191970" d="M82.1237,-60.6733C90.2939,-59.4163 99.0085,-58.0756 107.5971,-56.7543"/>
<polygon fill="#191970" stroke="#191970" points="108.2301,-60.1982 117.5815,-55.2182 107.1656,-53.2796 108.2301,-60.1982"/>
</g>
<!-- Node40 -->
<g id="node4" class="node">
<title>Node40</title>
<g id="a_node4"><a xlink:href="group__l4__vcon__api.html#ga05df63a45bb7ade1e0e19caaa6e35f5f" target="_top" xlink:title="Send data to this virtual console. ">
<polygon fill="#ffffff" stroke="#000000" points="259,-76.5 259,-95.5 353,-95.5 353,-76.5 259,-76.5"/>
<text text-anchor="middle" x="306" y="-83.5" font-family="Helvetica,sans-Serif" font-size="10.00" fill="#000000">l4_vcon_send_u</text>
</a>
</g>
</g>
<!-- Node39&#45;&gt;Node40 -->
<g id="edge3" class="edge">
<title>Node39&#45;&gt;Node40</title>
<path fill="none" stroke="#191970" d="M200.2064,-57.589C218.4727,-62.4944 240.9084,-68.5196 260.4112,-73.7571"/>
<polygon fill="#191970" stroke="#191970" points="259.7394,-77.2006 270.305,-76.4141 261.555,-70.4401 259.7394,-77.2006"/>
</g>
<!-- Node41 -->
<g id="node5" class="node">
<title>Node41</title>
<g id="a_node5"><a xlink:href="group__l4__msgtag__api.html#ga52e71bb66855f4d78fa5c82b5f0c5a87" target="_top" xlink:title="Test for error indicator flag. ">
<polygon fill="#ffffff" stroke="#000000" points="247,-38.5 247,-57.5 365,-57.5 365,-38.5 247,-38.5"/>
<text text-anchor="middle" x="306" y="-45.5" font-family="Helvetica,sans-Serif" font-size="10.00" fill="#000000">l4_msgtag_has_error</text>
</a>
</g>
</g>
<!-- Node39&#45;&gt;Node41 -->
<g id="edge4" class="edge">
<title>Node39&#45;&gt;Node41</title>
<path fill="none" stroke="#191970" d="M211.2245,-48C219.4405,-48 228.147,-48 236.822,-48"/>
<polygon fill="#191970" stroke="#191970" points="236.9599,-51.5001 246.9599,-48 236.9599,-44.5001 236.9599,-51.5001"/>
</g>
<!-- Node42 -->
<g id="node6" class="node">
<title>Node42</title>
<g id="a_node6"><a xlink:href="group__l4__ipc__err__api.html#ga05c11e3e10b6c2aa941396ac2018899f" target="_top" xlink:title="Return error code of a system call return message tag or the tag label. ">
<polygon fill="#ffffff" stroke="#000000" points="279,-.5 279,-19.5 333,-19.5 333,-.5 279,-.5"/>
<text text-anchor="middle" x="306" y="-7.5" font-family="Helvetica,sans-Serif" font-size="10.00" fill="#000000">l4_error</text>
</a>
</g>
</g>
<!-- Node39&#45;&gt;Node42 -->
<g id="edge5" class="edge">
<title>Node39&#45;&gt;Node42</title>
<path fill="none" stroke="#191970" d="M200.2064,-38.411C221.1732,-32.7803 247.6333,-25.6745 268.8458,-19.9778"/>
<polygon fill="#191970" stroke="#191970" points="270.0407,-23.281 278.7907,-17.3071 268.2251,-16.5206 270.0407,-23.281"/>
</g>
</g>
</svg>
