<?xml version="1.0" encoding="UTF-8" standalone="no"?>
<!DOCTYPE svg PUBLIC "-//W3C//DTD SVG 1.1//EN"
 "http://www.w3.org/Graphics/SVG/1.1/DTD/svg11.dtd">
<!-- Generated by graphviz version 2.40.1 (20161225.0304)
 -->
<!-- Title: l4/sys/icu.h Pages: 1 -->
<svg width="1195pt" height="453pt"
 viewBox="0.00 0.00 1195.00 453.00" xmlns="http://www.w3.org/2000/svg" xmlns:xlink="http://www.w3.org/1999/xlink">
<g id="graph0" class="graph" transform="scale(1 1) rotate(0) translate(4 449)">
<title>l4/sys/icu.h</title>
<polygon fill="#ffffff" stroke="transparent" points="-4,4 -4,-449 1191,-449 1191,4 -4,4"/>
<!-- Node13 -->
<g id="node1" class="node">
<title>Node13</title>
<polygon fill="#bfbfbf" stroke="#000000" points="328,-425.5 328,-444.5 396,-444.5 396,-425.5 328,-425.5"/>
<text text-anchor="middle" x="362" y="-432.5" font-family="Helvetica,sans-Serif" font-size="10.00" fill="#000000">l4/sys/icu.h</text>
</g>
<!-- Node14 -->
<g id="node2" class="node">
<title>Node14</title>
<g id="a_node2"><a xlink:href="irq.html" target="_top" xlink:title="C++ Irq interface. ">
<polygon fill="#ffffff" stroke="#000000" points="332.5,-369.5 332.5,-388.5 391.5,-388.5 391.5,-369.5 332.5,-369.5"/>
<text text-anchor="middle" x="362" y="-376.5" font-family="Helvetica,sans-Serif" font-size="10.00" fill="#000000">l4/sys/irq</text>
</a>
</g>
</g>
<!-- Node13&#45;&gt;Node14 -->
<g id="edge1" class="edge">
<title>Node13&#45;&gt;Node14</title>
<path fill="none" stroke="#191970" d="M362,-415.1575C362,-406.155 362,-395.9199 362,-388.6427"/>
<polygon fill="#191970" stroke="#191970" points="358.5001,-415.2455 362,-425.2455 365.5001,-415.2456 358.5001,-415.2455"/>
</g>
<!-- Node15 -->
<g id="node3" class="node">
<title>Node15</title>
<g id="a_node3"><a xlink:href="icu.html" target="_top" xlink:title="Interrupt controller. ">
<polygon fill="#ffffff" stroke="#000000" points="463.5,-313.5 463.5,-332.5 522.5,-332.5 522.5,-313.5 463.5,-313.5"/>
<text text-anchor="middle" x="493" y="-320.5" font-family="Helvetica,sans-Serif" font-size="10.00" fill="#000000">l4/sys/icu</text>
</a>
</g>
</g>
<!-- Node14&#45;&gt;Node15 -->
<g id="edge2" class="edge">
<title>Node14&#45;&gt;Node15</title>
<path fill="none" stroke="#191970" d="M393.8534,-365.3833C417.6785,-355.1985 449.6568,-341.5284 470.7742,-332.5011"/>
<polygon fill="#191970" stroke="#191970" points="392.339,-362.2242 384.5197,-369.3733 395.0906,-368.6608 392.339,-362.2242"/>
</g>
<!-- Node40 -->
<g id="node28" class="node">
<title>Node40</title>
<g id="a_node28"><a xlink:href="l4virtio_source.html" target="_top" xlink:title="l4/l4virtio/l4virtio">
<polygon fill="#ffffff" stroke="#000000" points="964,-140 964,-159 1056,-159 1056,-140 964,-140"/>
<text text-anchor="middle" x="1010" y="-147" font-family="Helvetica,sans-Serif" font-size="10.00" fill="#000000">l4/l4virtio/l4virtio</text>
</a>
</g>
</g>
<!-- Node14&#45;&gt;Node40 -->
<g id="edge30" class="edge">
<title>Node14&#45;&gt;Node40</title>
<path fill="none" stroke="#191970" d="M401.8059,-375.4377C483.9484,-366.9833 676.9381,-341.3763 825,-277 897.9749,-245.271 972.1229,-183.1464 999.2345,-159.2173"/>
<polygon fill="#191970" stroke="#191970" points="401.2586,-371.9749 391.6564,-376.4524 401.955,-378.9402 401.2586,-371.9749"/>
</g>
<!-- Node41 -->
<g id="node29" class="node">
<title>Node41</title>
<g id="a_node29"><a xlink:href="semaphore.html" target="_top" xlink:title="Semaphore class definition. ">
<polygon fill="#ffffff" stroke="#000000" points="232,-313.5 232,-332.5 332,-332.5 332,-313.5 232,-313.5"/>
<text text-anchor="middle" x="282" y="-320.5" font-family="Helvetica,sans-Serif" font-size="10.00" fill="#000000">l4/sys/semaphore</text>
</a>
</g>
</g>
<!-- Node14&#45;&gt;Node41 -->
<g id="edge32" class="edge">
<title>Node14&#45;&gt;Node41</title>
<path fill="none" stroke="#191970" d="M339.8429,-363.49C325.728,-353.6096 307.8849,-341.1194 295.7752,-332.6427"/>
<polygon fill="#191970" stroke="#191970" points="337.8656,-366.3782 348.0651,-369.2455 341.8799,-360.6436 337.8656,-366.3782"/>
</g>
<!-- Node42 -->
<g id="node30" class="node">
<title>Node42</title>
<g id="a_node30"><a xlink:href="event_source.html" target="_top" xlink:title="l4/re/event">
<polygon fill="#ffffff" stroke="#000000" points="115.5,-313.5 115.5,-332.5 182.5,-332.5 182.5,-313.5 115.5,-313.5"/>
<text text-anchor="middle" x="149" y="-320.5" font-family="Helvetica,sans-Serif" font-size="10.00" fill="#000000">l4/re/event</text>
</a>
</g>
</g>
<!-- Node14&#45;&gt;Node42 -->
<g id="edge34" class="edge">
<title>Node14&#45;&gt;Node42</title>
<path fill="none" stroke="#191970" d="M322.6464,-368.6535C282.4092,-358.0747 220.5753,-341.8179 182.5742,-331.827"/>
<polygon fill="#191970" stroke="#191970" points="321.822,-372.0556 332.3833,-371.2134 323.6019,-365.2857 321.822,-372.0556"/>
</g>
<!-- Node16 -->
<g id="node4" class="node">
<title>Node16</title>
<g id="a_node4"><a xlink:href="vcon.html" target="_top" xlink:title="Virtual console interface. ">
<polygon fill="#ffffff" stroke="#000000" points="540.5,-257.5 540.5,-276.5 609.5,-276.5 609.5,-257.5 540.5,-257.5"/>
<text text-anchor="middle" x="575" y="-264.5" font-family="Helvetica,sans-Serif" font-size="10.00" fill="#000000">l4/sys/vcon</text>
</a>
</g>
</g>
<!-- Node15&#45;&gt;Node16 -->
<g id="edge3" class="edge">
<title>Node15&#45;&gt;Node16</title>
<path fill="none" stroke="#191970" d="M515.711,-307.49C530.1788,-297.6096 548.468,-285.1194 560.8804,-276.6427"/>
<polygon fill="#191970" stroke="#191970" points="513.5675,-304.7156 507.2833,-313.2455 517.5152,-310.4962 513.5675,-304.7156"/>
</g>
<!-- Node28 -->
<g id="node16" class="node">
<title>Node28</title>
<g id="a_node16"><a xlink:href="icu__svr_source.html" target="_top" xlink:title="l4/re/util/icu_svr">
<polygon fill="#ffffff" stroke="#000000" points="133.5,-73 133.5,-92 222.5,-92 222.5,-73 133.5,-73"/>
<text text-anchor="middle" x="178" y="-80" font-family="Helvetica,sans-Serif" font-size="10.00" fill="#000000">l4/re/util/icu_svr</text>
</a>
</g>
</g>
<!-- Node15&#45;&gt;Node28 -->
<g id="edge25" class="edge">
<title>Node15&#45;&gt;Node28</title>
<path fill="none" stroke="#191970" d="M453.3037,-317.5264C397.3595,-307.8023 295.4192,-282.4135 235,-221 197.6174,-183.0022 183.5541,-117.047 179.4344,-92.2761"/>
<polygon fill="#191970" stroke="#191970" points="452.7565,-320.9833 463.1941,-319.1649 453.9007,-314.0775 452.7565,-320.9833"/>
</g>
<!-- Node34 -->
<g id="node22" class="node">
<title>Node34</title>
<g id="a_node22"><a xlink:href="scheduler.html" target="_top" xlink:title="Scheduler object functions. ">
<polygon fill="#ffffff" stroke="#000000" points="628,-257.5 628,-276.5 720,-276.5 720,-257.5 628,-257.5"/>
<text text-anchor="middle" x="674" y="-264.5" font-family="Helvetica,sans-Serif" font-size="10.00" fill="#000000">l4/sys/scheduler</text>
</a>
</g>
</g>
<!-- Node15&#45;&gt;Node34 -->
<g id="edge23" class="edge">
<title>Node15&#45;&gt;Node34</title>
<path fill="none" stroke="#191970" d="M532.7351,-310.7063C565.9656,-300.425 612.6941,-285.9676 643.158,-276.5423"/>
<polygon fill="#191970" stroke="#191970" points="531.4072,-307.4534 522.8885,-313.7527 533.4762,-314.1406 531.4072,-307.4534"/>
</g>
<!-- Node35 -->
<g id="node23" class="node">
<title>Node35</title>
<g id="a_node23"><a xlink:href="random_source.html" target="_top" xlink:title="l4/re/random">
<polygon fill="#ffffff" stroke="#000000" points="738.5,-257.5 738.5,-276.5 815.5,-276.5 815.5,-257.5 738.5,-257.5"/>
<text text-anchor="middle" x="777" y="-264.5" font-family="Helvetica,sans-Serif" font-size="10.00" fill="#000000">l4/re/random</text>
</a>
</g>
</g>
<!-- Node15&#45;&gt;Node35 -->
<g id="edge24" class="edge">
<title>Node15&#45;&gt;Node35</title>
<path fill="none" stroke="#191970" d="M532.8892,-315.3875C579.8399,-306.3898 660.1427,-290.8827 729,-277 732.0874,-276.3775 735.2851,-275.7261 738.4966,-275.0671"/>
<polygon fill="#191970" stroke="#191970" points="531.9916,-311.9957 522.8282,-317.3138 533.308,-318.8708 531.9916,-311.9957"/>
</g>
<!-- Node36 -->
<g id="node24" class="node">
<title>Node36</title>
<g id="a_node24"><a xlink:href="vbus_source.html" target="_top" xlink:title="l4/vbus/vbus">
<polygon fill="#ffffff" stroke="#000000" points="374.5,-257.5 374.5,-276.5 447.5,-276.5 447.5,-257.5 374.5,-257.5"/>
<text text-anchor="middle" x="411" y="-264.5" font-family="Helvetica,sans-Serif" font-size="10.00" fill="#000000">l4/vbus/vbus</text>
</a>
</g>
</g>
<!-- Node15&#45;&gt;Node36 -->
<g id="edge26" class="edge">
<title>Node15&#45;&gt;Node36</title>
<path fill="none" stroke="#191970" d="M470.289,-307.49C455.8212,-297.6096 437.532,-285.1194 425.1196,-276.6427"/>
<polygon fill="#191970" stroke="#191970" points="468.4848,-310.4962 478.7167,-313.2455 472.4325,-304.7156 468.4848,-310.4962"/>
</g>
<!-- Node17 -->
<g id="node5" class="node">
<title>Node17</title>
<g id="a_node5"><a xlink:href="log.html" target="_top" xlink:title="Log interface. ">
<polygon fill="#ffffff" stroke="#000000" points="759.5,-201.5 759.5,-220.5 814.5,-220.5 814.5,-201.5 759.5,-201.5"/>
<text text-anchor="middle" x="787" y="-208.5" font-family="Helvetica,sans-Serif" font-size="10.00" fill="#000000">l4/re/log</text>
</a>
</g>
</g>
<!-- Node16&#45;&gt;Node17 -->
<g id="edge4" class="edge">
<title>Node16&#45;&gt;Node17</title>
<path fill="none" stroke="#191970" d="M619.8416,-255.4818C655.4391,-246.2895 706.455,-233.0073 751,-221 753.7558,-220.2572 756.6277,-219.4743 759.4945,-218.687"/>
<polygon fill="#191970" stroke="#191970" points="618.5805,-252.1925 609.7716,-258.0793 620.3289,-258.9706 618.5805,-252.1925"/>
</g>
<!-- Node32 -->
<g id="node20" class="node">
<title>Node32</title>
<g id="a_node20"><a xlink:href="vcon__stream_8h_source.html" target="_top" xlink:title="l4/l4re_vfs/impl/vcon\l_stream.h">
<polygon fill="#ffffff" stroke="#000000" points="299.5,-134.5 299.5,-164.5 412.5,-164.5 412.5,-134.5 299.5,-134.5"/>
<text text-anchor="start" x="307.5" y="-152.5" font-family="Helvetica,sans-Serif" font-size="10.00" fill="#000000">l4/l4re_vfs/impl/vcon</text>
<text text-anchor="middle" x="356" y="-141.5" font-family="Helvetica,sans-Serif" font-size="10.00" fill="#000000">_stream.h</text>
</a>
</g>
</g>
<!-- Node16&#45;&gt;Node32 -->
<g id="edge19" class="edge">
<title>Node16&#45;&gt;Node32</title>
<path fill="none" stroke="#191970" d="M588.6825,-248.9325C597.7472,-234.599 606.1063,-214.7545 595,-201 572.5009,-173.1363 475.8139,-159.6293 412.5216,-153.659"/>
<polygon fill="#191970" stroke="#191970" points="585.6145,-247.2164 582.8213,-257.4365 591.3781,-251.189 585.6145,-247.2164"/>
</g>
<!-- Node33 -->
<g id="node21" class="node">
<title>Node33</title>
<g id="a_node21"><a xlink:href="vcon__svr_source.html" target="_top" xlink:title="l4/re/util/vcon_svr">
<polygon fill="#ffffff" stroke="#000000" points="642.5,-201.5 642.5,-220.5 741.5,-220.5 741.5,-201.5 642.5,-201.5"/>
<text text-anchor="middle" x="692" y="-208.5" font-family="Helvetica,sans-Serif" font-size="10.00" fill="#000000">l4/re/util/vcon_svr</text>
</a>
</g>
</g>
<!-- Node16&#45;&gt;Node33 -->
<g id="edge22" class="edge">
<title>Node16&#45;&gt;Node33</title>
<path fill="none" stroke="#191970" d="M604.3042,-252.9741C625.488,-242.8348 653.5403,-229.408 672.1494,-220.5011"/>
<polygon fill="#191970" stroke="#191970" points="602.622,-249.8989 595.113,-257.3733 605.6441,-256.2129 602.622,-249.8989"/>
</g>
<!-- Node18 -->
<g id="node6" class="node">
<title>Node18</title>
<g id="a_node6"><a xlink:href="env.html" target="_top" xlink:title="Environment interface. ">
<polygon fill="#ffffff" stroke="#000000" points="663,-140 663,-159 721,-159 721,-140 663,-140"/>
<text text-anchor="middle" x="692" y="-147" font-family="Helvetica,sans-Serif" font-size="10.00" fill="#000000">l4/re/env</text>
</a>
</g>
</g>
<!-- Node17&#45;&gt;Node18 -->
<g id="edge5" class="edge">
<title>Node17&#45;&gt;Node18</title>
<path fill="none" stroke="#191970" d="M763.4987,-195.786C745.7351,-184.2864 721.8979,-168.855 706.7395,-159.0419"/>
<polygon fill="#191970" stroke="#191970" points="761.8597,-198.8943 772.1563,-201.3906 765.6638,-193.0182 761.8597,-198.8943"/>
</g>
<!-- Node19 -->
<g id="node7" class="node">
<title>Node19</title>
<g id="a_node7"><a xlink:href="vcpu_source.html" target="_top" xlink:title="l4/vcpu/vcpu">
<polygon fill="#ffffff" stroke="#000000" points="773,-73 773,-92 847,-92 847,-73 773,-73"/>
<text text-anchor="middle" x="810" y="-80" font-family="Helvetica,sans-Serif" font-size="10.00" fill="#000000">l4/vcpu/vcpu</text>
</a>
</g>
</g>
<!-- Node18&#45;&gt;Node19 -->
<g id="edge6" class="edge">
<title>Node18&#45;&gt;Node19</title>
<path fill="none" stroke="#191970" d="M717.7405,-134.8846C740.6247,-121.891 773.4233,-103.2681 793.1248,-92.0817"/>
<polygon fill="#191970" stroke="#191970" points="715.8744,-131.9193 708.9065,-139.9005 719.3307,-138.0065 715.8744,-131.9193"/>
</g>
<!-- Node20 -->
<g id="node8" class="node">
<title>Node20</title>
<g id="a_node8"><a xlink:href="server_2l4virtio_source.html" target="_top" xlink:title="l4/l4virtio/server\l/l4virtio">
<polygon fill="#ffffff" stroke="#000000" points="1093,-67.5 1093,-97.5 1185,-97.5 1185,-67.5 1093,-67.5"/>
<text text-anchor="start" x="1101" y="-85.5" font-family="Helvetica,sans-Serif" font-size="10.00" fill="#000000">l4/l4virtio/server</text>
<text text-anchor="middle" x="1139" y="-74.5" font-family="Helvetica,sans-Serif" font-size="10.00" fill="#000000">/l4virtio</text>
</a>
</g>
</g>
<!-- Node18&#45;&gt;Node20 -->
<g id="edge7" class="edge">
<title>Node18&#45;&gt;Node20</title>
<path fill="none" stroke="#191970" d="M731.5283,-146.206C802.5911,-139.8637 956.4146,-124.2166 1084,-98 1086.9153,-97.401 1089.9026,-96.7295 1092.905,-96.0107"/>
<polygon fill="#191970" stroke="#191970" points="730.9084,-142.7469 721.2534,-147.1093 731.5215,-149.72 730.9084,-142.7469"/>
</g>
<!-- Node22 -->
<g id="node10" class="node">
<title>Node22</title>
<g id="a_node10"><a xlink:href="env__ns_source.html" target="_top" xlink:title="l4/re/util/env_ns">
<polygon fill="#ffffff" stroke="#000000" points="983.5,-73 983.5,-92 1074.5,-92 1074.5,-73 983.5,-73"/>
<text text-anchor="middle" x="1029" y="-80" font-family="Helvetica,sans-Serif" font-size="10.00" fill="#000000">l4/re/util/env_ns</text>
</a>
</g>
</g>
<!-- Node18&#45;&gt;Node22 -->
<g id="edge9" class="edge">
<title>Node18&#45;&gt;Node22</title>
<path fill="none" stroke="#191970" d="M730.9581,-143.5749C785.5857,-134.9971 887.9137,-117.9445 974,-98 981.5384,-96.2535 989.5889,-94.1324 997.1398,-92.027"/>
<polygon fill="#191970" stroke="#191970" points="730.3489,-140.1275 721.0075,-145.1263 731.4273,-147.0439 730.3489,-140.1275"/>
</g>
<!-- Node24 -->
<g id="node12" class="node">
<title>Node24</title>
<g id="a_node12"><a xlink:href="ro__file__impl_8h_source.html" target="_top" xlink:title="l4/l4re_vfs/impl/ro\l_file_impl.h">
<polygon fill="#ffffff" stroke="#000000" points="865,-67.5 865,-97.5 965,-97.5 965,-67.5 865,-67.5"/>
<text text-anchor="start" x="873" y="-85.5" font-family="Helvetica,sans-Serif" font-size="10.00" fill="#000000">l4/l4re_vfs/impl/ro</text>
<text text-anchor="middle" x="915" y="-74.5" font-family="Helvetica,sans-Serif" font-size="10.00" fill="#000000">_file_impl.h</text>
</a>
</g>
</g>
<!-- Node18&#45;&gt;Node24 -->
<g id="edge11" class="edge">
<title>Node18&#45;&gt;Node24</title>
<path fill="none" stroke="#191970" d="M731.1184,-137.7469C768.3323,-126.5661 824.4902,-109.6935 864.9501,-97.5374"/>
<polygon fill="#191970" stroke="#191970" points="729.7233,-134.5115 721.1534,-140.7409 731.7376,-141.2154 729.7233,-134.5115"/>
</g>
<!-- Node25 -->
<g id="node13" class="node">
<title>Node25</title>
<g id="a_node13"><a xlink:href="vcon__stream__impl_8h_source.html" target="_top" xlink:title="l4/l4re_vfs/impl/vcon\l_stream_impl.h">
<polygon fill="#ffffff" stroke="#000000" points="363.5,-67.5 363.5,-97.5 476.5,-97.5 476.5,-67.5 363.5,-67.5"/>
<text text-anchor="start" x="371.5" y="-85.5" font-family="Helvetica,sans-Serif" font-size="10.00" fill="#000000">l4/l4re_vfs/impl/vcon</text>
<text text-anchor="middle" x="420" y="-74.5" font-family="Helvetica,sans-Serif" font-size="10.00" fill="#000000">_stream_impl.h</text>
</a>
</g>
</g>
<!-- Node18&#45;&gt;Node25 -->
<g id="edge12" class="edge">
<title>Node18&#45;&gt;Node25</title>
<path fill="none" stroke="#191970" d="M652.9724,-139.8866C606.8001,-128.5133 529.5509,-109.485 476.7614,-96.4817"/>
<polygon fill="#191970" stroke="#191970" points="652.3443,-143.3364 662.8912,-142.3298 654.0186,-136.5396 652.3443,-143.3364"/>
</g>
<!-- Node26 -->
<g id="node14" class="node">
<title>Node26</title>
<g id="a_node14"><a xlink:href="vfs__impl_8h_source.html" target="_top" xlink:title="l4/l4re_vfs/impl/vfs\l_impl.h">
<polygon fill="#ffffff" stroke="#000000" points="241,-67.5 241,-97.5 345,-97.5 345,-67.5 241,-67.5"/>
<text text-anchor="start" x="249" y="-85.5" font-family="Helvetica,sans-Serif" font-size="10.00" fill="#000000">l4/l4re_vfs/impl/vfs</text>
<text text-anchor="middle" x="293" y="-74.5" font-family="Helvetica,sans-Serif" font-size="10.00" fill="#000000">_impl.h</text>
</a>
</g>
</g>
<!-- Node18&#45;&gt;Node26 -->
<g id="edge13" class="edge">
<title>Node18&#45;&gt;Node26</title>
<path fill="none" stroke="#191970" d="M652.9696,-144.8119C589.8177,-136.9446 461.4579,-119.7848 354,-98 351.1086,-97.4138 348.1485,-96.7789 345.1665,-96.112"/>
<polygon fill="#191970" stroke="#191970" points="652.5417,-148.2855 662.8955,-146.0386 653.4003,-141.3384 652.5417,-148.2855"/>
</g>
<!-- Node27 -->
<g id="node15" class="node">
<title>Node27</title>
<g id="a_node15"><a xlink:href="util_2event.html" target="_top" xlink:title="l4/re/util/event">
<polygon fill="#ffffff" stroke="#000000" points="32.5,-73 32.5,-92 115.5,-92 115.5,-73 32.5,-73"/>
<text text-anchor="middle" x="74" y="-80" font-family="Helvetica,sans-Serif" font-size="10.00" fill="#000000">l4/re/util/event</text>
</a>
</g>
</g>
<!-- Node18&#45;&gt;Node27 -->
<g id="edge14" class="edge">
<title>Node18&#45;&gt;Node27</title>
<path fill="none" stroke="#191970" d="M652.6454,-147.0134C541.3342,-139.8085 225.739,-118.1488 124,-98 116.5114,-96.5169 108.554,-94.3383 101.2415,-92.0803"/>
<polygon fill="#191970" stroke="#191970" points="652.5614,-150.5151 662.7657,-147.665 653.0113,-143.5296 652.5614,-150.5151"/>
</g>
<!-- Node18&#45;&gt;Node28 -->
<g id="edge15" class="edge">
<title>Node18&#45;&gt;Node28</title>
<path fill="none" stroke="#191970" d="M652.8583,-147.3422C573.0606,-142.4561 386.0902,-128.5155 232,-98 224.0588,-96.4273 215.5906,-94.2451 207.7719,-92.0139"/>
<polygon fill="#191970" stroke="#191970" points="652.7544,-150.8422 662.9458,-147.9463 653.1729,-143.8547 652.7544,-150.8422"/>
</g>
<!-- Node30 -->
<g id="node18" class="node">
<title>Node30</title>
<g id="a_node18"><a xlink:href="kumem__alloc.html" target="_top" xlink:title="Kumem allocator helper. ">
<polygon fill="#ffffff" stroke="#000000" points="494.5,-73 494.5,-92 611.5,-92 611.5,-73 494.5,-73"/>
<text text-anchor="middle" x="553" y="-80" font-family="Helvetica,sans-Serif" font-size="10.00" fill="#000000">l4/re/util/kumem_alloc</text>
</a>
</g>
</g>
<!-- Node18&#45;&gt;Node30 -->
<g id="edge17" class="edge">
<title>Node18&#45;&gt;Node30</title>
<path fill="none" stroke="#191970" d="M662.7505,-135.4013C635.7547,-122.389 596.3956,-103.4173 572.8784,-92.0817"/>
<polygon fill="#191970" stroke="#191970" points="661.5568,-138.7113 672.0847,-139.9005 664.5963,-132.4056 661.5568,-138.7113"/>
</g>
<!-- Node31 -->
<g id="node19" class="node">
<title>Node31</title>
<g id="a_node19"><a xlink:href="object__registry_source.html" target="_top" xlink:title="l4/re/util/object_registry">
<polygon fill="#ffffff" stroke="#000000" points="629.5,-73 629.5,-92 754.5,-92 754.5,-73 629.5,-73"/>
<text text-anchor="middle" x="692" y="-80" font-family="Helvetica,sans-Serif" font-size="10.00" fill="#000000">l4/re/util/object_registry</text>
</a>
</g>
</g>
<!-- Node18&#45;&gt;Node31 -->
<g id="edge18" class="edge">
<title>Node18&#45;&gt;Node31</title>
<path fill="none" stroke="#191970" d="M692,-129.6079C692,-117.214 692,-101.8263 692,-92.0817"/>
<polygon fill="#191970" stroke="#191970" points="688.5001,-129.9005 692,-139.9005 695.5001,-129.9006 688.5001,-129.9005"/>
</g>
<!-- Node21 -->
<g id="node9" class="node">
<title>Node21</title>
<g id="a_node9"><a xlink:href="virtio-block_source.html" target="_top" xlink:title="l4/l4virtio/server\l/virtio&#45;block">
<polygon fill="#ffffff" stroke="#000000" points="1095,-.5 1095,-30.5 1187,-30.5 1187,-.5 1095,-.5"/>
<text text-anchor="start" x="1103" y="-18.5" font-family="Helvetica,sans-Serif" font-size="10.00" fill="#000000">l4/l4virtio/server</text>
<text text-anchor="middle" x="1141" y="-7.5" font-family="Helvetica,sans-Serif" font-size="10.00" fill="#000000">/virtio&#45;block</text>
</a>
</g>
</g>
<!-- Node20&#45;&gt;Node21 -->
<g id="edge8" class="edge">
<title>Node20&#45;&gt;Node21</title>
<path fill="none" stroke="#191970" d="M1139.7605,-57.0249C1140.026,-48.128 1140.3156,-38.4287 1140.548,-30.6432"/>
<polygon fill="#191970" stroke="#191970" points="1136.2539,-57.1967 1139.4538,-67.2967 1143.2507,-57.4056 1136.2539,-57.1967"/>
</g>
<!-- Node23 -->
<g id="node11" class="node">
<title>Node23</title>
<g id="a_node11"><a xlink:href="ns__fs__impl_8h_source.html" target="_top" xlink:title="l4/l4re_vfs/impl/ns\l_fs_impl.h">
<polygon fill="#ffffff" stroke="#000000" points="975.5,-.5 975.5,-30.5 1076.5,-30.5 1076.5,-.5 975.5,-.5"/>
<text text-anchor="start" x="983.5" y="-18.5" font-family="Helvetica,sans-Serif" font-size="10.00" fill="#000000">l4/l4re_vfs/impl/ns</text>
<text text-anchor="middle" x="1026" y="-7.5" font-family="Helvetica,sans-Serif" font-size="10.00" fill="#000000">_fs_impl.h</text>
</a>
</g>
</g>
<!-- Node22&#45;&gt;Node23 -->
<g id="edge10" class="edge">
<title>Node22&#45;&gt;Node23</title>
<path fill="none" stroke="#191970" d="M1028.1168,-62.7758C1027.6551,-52.4641 1027.099,-40.0437 1026.6726,-30.5218"/>
<polygon fill="#191970" stroke="#191970" points="1024.6263,-63.0671 1028.5702,-72.9005 1031.6193,-62.754 1024.6263,-63.0671"/>
</g>
<!-- Node29 -->
<g id="node17" class="node">
<title>Node29</title>
<g id="a_node17"><a xlink:href="event__svr_source.html" target="_top" xlink:title="l4/re/util/event_svr">
<polygon fill="#ffffff" stroke="#000000" points="39.5,-6 39.5,-25 142.5,-25 142.5,-6 39.5,-6"/>
<text text-anchor="middle" x="91" y="-13" font-family="Helvetica,sans-Serif" font-size="10.00" fill="#000000">l4/re/util/event_svr</text>
</a>
</g>
</g>
<!-- Node28&#45;&gt;Node29 -->
<g id="edge16" class="edge">
<title>Node28&#45;&gt;Node29</title>
<path fill="none" stroke="#191970" d="M157.4263,-66.6559C140.6542,-53.7395 117.5157,-35.9201 103.4419,-25.0817"/>
<polygon fill="#191970" stroke="#191970" points="155.4766,-69.572 165.535,-72.9005 159.7477,-64.026 155.4766,-69.572"/>
</g>
<!-- Node32&#45;&gt;Node25 -->
<g id="edge20" class="edge">
<title>Node32&#45;&gt;Node25</title>
<path fill="none" stroke="#191970" d="M377.5639,-126.9253C386.7746,-117.2828 397.2807,-106.2843 405.5349,-97.6432"/>
<polygon fill="#191970" stroke="#191970" points="374.899,-124.648 370.5226,-134.2967 379.9608,-129.4831 374.899,-124.648"/>
</g>
<!-- Node32&#45;&gt;Node26 -->
<g id="edge21" class="edge">
<title>Node32&#45;&gt;Node26</title>
<path fill="none" stroke="#191970" d="M334.773,-126.9253C325.7062,-117.2828 315.3643,-106.2843 307.2391,-97.6432"/>
<polygon fill="#191970" stroke="#191970" points="332.3042,-129.409 341.7043,-134.2967 337.4039,-124.6138 332.3042,-129.409"/>
</g>
<!-- Node37 -->
<g id="node25" class="node">
<title>Node37</title>
<g id="a_node25"><a xlink:href="vbus__generic_source.html" target="_top" xlink:title="l4/vbus/vbus_generic">
<polygon fill="#ffffff" stroke="#000000" points="354,-201.5 354,-220.5 468,-220.5 468,-201.5 354,-201.5"/>
<text text-anchor="middle" x="411" y="-208.5" font-family="Helvetica,sans-Serif" font-size="10.00" fill="#000000">l4/vbus/vbus_generic</text>
</a>
</g>
</g>
<!-- Node36&#45;&gt;Node37 -->
<g id="edge27" class="edge">
<title>Node36&#45;&gt;Node37</title>
<path fill="none" stroke="#191970" d="M411,-247.1575C411,-238.155 411,-227.9199 411,-220.6427"/>
<polygon fill="#191970" stroke="#191970" points="407.5001,-247.2455 411,-257.2455 414.5001,-247.2456 407.5001,-247.2455"/>
</g>
<!-- Node38 -->
<g id="node26" class="node">
<title>Node38</title>
<g id="a_node26"><a xlink:href="vbus__gpio_source.html" target="_top" xlink:title="l4/vbus/vbus_gpio">
<polygon fill="#ffffff" stroke="#000000" points="486.5,-201.5 486.5,-220.5 585.5,-220.5 585.5,-201.5 486.5,-201.5"/>
<text text-anchor="middle" x="536" y="-208.5" font-family="Helvetica,sans-Serif" font-size="10.00" fill="#000000">l4/vbus/vbus_gpio</text>
</a>
</g>
</g>
<!-- Node36&#45;&gt;Node38 -->
<g id="edge28" class="edge">
<title>Node36&#45;&gt;Node38</title>
<path fill="none" stroke="#191970" d="M441.698,-253.2473C464.3993,-243.0771 494.7315,-229.4883 514.7921,-220.5011"/>
<polygon fill="#191970" stroke="#191970" points="440.1833,-250.0906 432.4883,-257.3733 443.0453,-256.4789 440.1833,-250.0906"/>
</g>
<!-- Node39 -->
<g id="node27" class="node">
<title>Node39</title>
<g id="a_node27"><a xlink:href="vbus__pci_source.html" target="_top" xlink:title="l4/vbus/vbus_pci">
<polygon fill="#ffffff" stroke="#000000" points="244,-201.5 244,-220.5 336,-220.5 336,-201.5 244,-201.5"/>
<text text-anchor="middle" x="290" y="-208.5" font-family="Helvetica,sans-Serif" font-size="10.00" fill="#000000">l4/vbus/vbus_pci</text>
</a>
</g>
</g>
<!-- Node36&#45;&gt;Node39 -->
<g id="edge29" class="edge">
<title>Node36&#45;&gt;Node39</title>
<path fill="none" stroke="#191970" d="M380.9896,-253.1109C359.0475,-242.9559 329.8612,-229.4482 310.5292,-220.5011"/>
<polygon fill="#191970" stroke="#191970" points="379.6541,-256.3494 390.1994,-257.3733 382.5942,-249.9968 379.6541,-256.3494"/>
</g>
<!-- Node40&#45;&gt;Node20 -->
<g id="edge31" class="edge">
<title>Node40&#45;&gt;Node20</title>
<path fill="none" stroke="#191970" d="M1037.3722,-135.2834C1058.7328,-124.1892 1088.3312,-108.8164 1110.0775,-97.5218"/>
<polygon fill="#191970" stroke="#191970" points="1035.7437,-132.1852 1028.4826,-139.9005 1038.9702,-138.3973 1035.7437,-132.1852"/>
</g>
<!-- Node41&#45;&gt;Node32 -->
<g id="edge33" class="edge">
<title>Node41&#45;&gt;Node32</title>
<path fill="none" stroke="#191970" d="M265.9639,-306.0097C244.7445,-281.3889 212.5055,-235.0213 235,-201 249.4805,-179.0992 275.3687,-166.4824 299.4933,-159.2279"/>
<polygon fill="#191970" stroke="#191970" points="263.3671,-308.3564 272.6427,-313.4764 268.5845,-303.6896 263.3671,-308.3564"/>
</g>
<!-- Node42&#45;&gt;Node29 -->
<g id="edge38" class="edge">
<title>Node42&#45;&gt;Node29</title>
<path fill="none" stroke="#191970" d="M105.5463,-310.7213C61.564,-295.3202 0,-264.2518 0,-211 0,-211 0,-211 0,-149.5 0,-111.4351 1.5936,-98.4754 23,-67 35.5756,-48.5092 56.9742,-33.9141 72.4121,-25.0523"/>
<polygon fill="#191970" stroke="#191970" points="104.5957,-314.0939 115.1896,-313.9496 106.818,-307.456 104.5957,-314.0939"/>
</g>
<!-- Node42&#45;&gt;Node36 -->
<g id="edge39" class="edge">
<title>Node42&#45;&gt;Node36</title>
<path fill="none" stroke="#191970" d="M192.7594,-313.6468C243.6843,-302.7621 326.8566,-284.9848 374.4677,-274.8084"/>
<polygon fill="#191970" stroke="#191970" points="191.7631,-310.2807 182.7156,-315.7936 193.2263,-317.126 191.7631,-310.2807"/>
</g>
<!-- Node43 -->
<g id="node31" class="node">
<title>Node43</title>
<g id="a_node31"><a xlink:href="console_source.html" target="_top" xlink:title="l4/re/console">
<polygon fill="#ffffff" stroke="#000000" points="110.5,-257.5 110.5,-276.5 187.5,-276.5 187.5,-257.5 110.5,-257.5"/>
<text text-anchor="middle" x="149" y="-264.5" font-family="Helvetica,sans-Serif" font-size="10.00" fill="#000000">l4/re/console</text>
</a>
</g>
</g>
<!-- Node42&#45;&gt;Node43 -->
<g id="edge35" class="edge">
<title>Node42&#45;&gt;Node43</title>
<path fill="none" stroke="#191970" d="M149,-303.1575C149,-294.155 149,-283.9199 149,-276.6427"/>
<polygon fill="#191970" stroke="#191970" points="145.5001,-303.2455 149,-313.2455 152.5001,-303.2456 145.5001,-303.2455"/>
</g>
<!-- Node44 -->
<g id="node32" class="node">
<title>Node44</title>
<g id="a_node32"><a xlink:href="event__buffer_source.html" target="_top" xlink:title="l4/re/util/event_buffer">
<polygon fill="#ffffff" stroke="#000000" points="28.5,-140 28.5,-159 143.5,-159 143.5,-140 28.5,-140"/>
<text text-anchor="middle" x="86" y="-147" font-family="Helvetica,sans-Serif" font-size="10.00" fill="#000000">l4/re/util/event_buffer</text>
</a>
</g>
</g>
<!-- Node42&#45;&gt;Node44 -->
<g id="edge36" class="edge">
<title>Node42&#45;&gt;Node44</title>
<path fill="none" stroke="#191970" d="M126.2219,-306.8888C116.8319,-298.9926 106.8083,-288.6679 101,-277 81.0357,-236.8954 83.1745,-181.1676 85.0151,-159.0732"/>
<polygon fill="#191970" stroke="#191970" points="124.1704,-309.7284 134.1887,-313.1755 128.5066,-304.2332 124.1704,-309.7284"/>
</g>
<!-- Node44&#45;&gt;Node27 -->
<g id="edge37" class="edge">
<title>Node44&#45;&gt;Node27</title>
<path fill="none" stroke="#191970" d="M82.505,-129.9863C80.2738,-117.5286 77.4792,-101.9258 75.7161,-92.0817"/>
<polygon fill="#191970" stroke="#191970" points="79.0724,-130.6742 84.2807,-139.9005 85.9628,-129.4401 79.0724,-130.6742"/>
</g>
</g>
</svg>
