<?xml version="1.0" encoding="UTF-8" standalone="no"?>
<!DOCTYPE svg PUBLIC "-//W3C//DTD SVG 1.1//EN"
 "http://www.w3.org/Graphics/SVG/1.1/DTD/svg11.dtd">
<!-- Generated by graphviz version 2.40.1 (20161225.0304)
 -->
<!-- Title: l4/sys/icu Pages: 1 -->
<svg width="1180pt" height="341pt"
 viewBox="0.00 0.00 1179.50 341.00" xmlns="http://www.w3.org/2000/svg" xmlns:xlink="http://www.w3.org/1999/xlink">
<g id="graph0" class="graph" transform="scale(1 1) rotate(0) translate(4 337)">
<title>l4/sys/icu</title>
<polygon fill="#ffffff" stroke="transparent" points="-4,4 -4,-337 1175.5,-337 1175.5,4 -4,4"/>
<!-- Node30 -->
<g id="node1" class="node">
<title>Node30</title>
<polygon fill="#bfbfbf" stroke="#000000" points="727.5,-313.5 727.5,-332.5 786.5,-332.5 786.5,-313.5 727.5,-313.5"/>
<text text-anchor="middle" x="757" y="-320.5" font-family="Helvetica,sans-Serif" font-size="10.00" fill="#000000">l4/sys/icu</text>
</g>
<!-- Node31 -->
<g id="node2" class="node">
<title>Node31</title>
<g id="a_node2"><a xlink:href="vcon.html" target="_top" xlink:title="Virtual console interface. ">
<polygon fill="#ffffff" stroke="#000000" points="541.5,-257.5 541.5,-276.5 610.5,-276.5 610.5,-257.5 541.5,-257.5"/>
<text text-anchor="middle" x="576" y="-264.5" font-family="Helvetica,sans-Serif" font-size="10.00" fill="#000000">l4/sys/vcon</text>
</a>
</g>
</g>
<!-- Node30&#45;&gt;Node31 -->
<g id="edge1" class="edge">
<title>Node30&#45;&gt;Node31</title>
<path fill="none" stroke="#191970" d="M717.2649,-310.7063C684.0344,-300.425 637.3059,-285.9676 606.842,-276.5423"/>
<polygon fill="#191970" stroke="#191970" points="716.5238,-314.1406 727.1115,-313.7527 718.5928,-307.4534 716.5238,-314.1406"/>
</g>
<!-- Node43 -->
<g id="node14" class="node">
<title>Node43</title>
<g id="a_node14"><a xlink:href="icu__svr_source.html" target="_top" xlink:title="l4/re/util/icu_svr">
<polygon fill="#ffffff" stroke="#000000" points="1063.5,-73 1063.5,-92 1152.5,-92 1152.5,-73 1063.5,-73"/>
<text text-anchor="middle" x="1108" y="-80" font-family="Helvetica,sans-Serif" font-size="10.00" fill="#000000">l4/re/util/icu_svr</text>
</a>
</g>
</g>
<!-- Node30&#45;&gt;Node43 -->
<g id="edge23" class="edge">
<title>Node30&#45;&gt;Node43</title>
<path fill="none" stroke="#191970" d="M730.0428,-307.8414C711.547,-295.3119 692.0073,-276.4756 702,-257 721.4818,-219.0303 742.2393,-220.8838 780,-201 834.3099,-172.4018 1008.3323,-114.7734 1078.3785,-92.0364"/>
<polygon fill="#191970" stroke="#191970" points="728.313,-310.8889 738.6305,-313.2972 732.0667,-304.9805 728.313,-310.8889"/>
</g>
<!-- Node49 -->
<g id="node20" class="node">
<title>Node49</title>
<g id="a_node20"><a xlink:href="scheduler.html" target="_top" xlink:title="Scheduler object functions. ">
<polygon fill="#ffffff" stroke="#000000" points="711,-257.5 711,-276.5 803,-276.5 803,-257.5 711,-257.5"/>
<text text-anchor="middle" x="757" y="-264.5" font-family="Helvetica,sans-Serif" font-size="10.00" fill="#000000">l4/sys/scheduler</text>
</a>
</g>
</g>
<!-- Node30&#45;&gt;Node49 -->
<g id="edge21" class="edge">
<title>Node30&#45;&gt;Node49</title>
<path fill="none" stroke="#191970" d="M757,-303.1575C757,-294.155 757,-283.9199 757,-276.6427"/>
<polygon fill="#191970" stroke="#191970" points="753.5001,-303.2455 757,-313.2455 760.5001,-303.2456 753.5001,-303.2455"/>
</g>
<!-- Node50 -->
<g id="node21" class="node">
<title>Node50</title>
<g id="a_node21"><a xlink:href="random_source.html" target="_top" xlink:title="l4/re/random">
<polygon fill="#ffffff" stroke="#000000" points="821.5,-257.5 821.5,-276.5 898.5,-276.5 898.5,-257.5 821.5,-257.5"/>
<text text-anchor="middle" x="860" y="-264.5" font-family="Helvetica,sans-Serif" font-size="10.00" fill="#000000">l4/re/random</text>
</a>
</g>
</g>
<!-- Node30&#45;&gt;Node50 -->
<g id="edge22" class="edge">
<title>Node30&#45;&gt;Node50</title>
<path fill="none" stroke="#191970" d="M783.7432,-308.46C802.175,-298.4388 826.1584,-285.3993 842.2644,-276.6427"/>
<polygon fill="#191970" stroke="#191970" points="782.0549,-305.394 774.9412,-313.2455 785.3985,-311.5438 782.0549,-305.394"/>
</g>
<!-- Node51 -->
<g id="node22" class="node">
<title>Node51</title>
<g id="a_node22"><a xlink:href="vbus_source.html" target="_top" xlink:title="l4/vbus/vbus">
<polygon fill="#ffffff" stroke="#000000" points="916.5,-257.5 916.5,-276.5 989.5,-276.5 989.5,-257.5 916.5,-257.5"/>
<text text-anchor="middle" x="953" y="-264.5" font-family="Helvetica,sans-Serif" font-size="10.00" fill="#000000">l4/vbus/vbus</text>
</a>
</g>
</g>
<!-- Node30&#45;&gt;Node51 -->
<g id="edge24" class="edge">
<title>Node30&#45;&gt;Node51</title>
<path fill="none" stroke="#191970" d="M796.4935,-311.7162C832.6552,-301.3842 885.5829,-286.262 919.6645,-276.5244"/>
<polygon fill="#191970" stroke="#191970" points="795.4219,-308.3822 786.7682,-314.4948 797.345,-315.1129 795.4219,-308.3822"/>
</g>
<!-- Node32 -->
<g id="node3" class="node">
<title>Node32</title>
<g id="a_node3"><a xlink:href="log.html" target="_top" xlink:title="Log interface. ">
<polygon fill="#ffffff" stroke="#000000" points="573.5,-201.5 573.5,-220.5 628.5,-220.5 628.5,-201.5 573.5,-201.5"/>
<text text-anchor="middle" x="601" y="-208.5" font-family="Helvetica,sans-Serif" font-size="10.00" fill="#000000">l4/re/log</text>
</a>
</g>
</g>
<!-- Node31&#45;&gt;Node32 -->
<g id="edge2" class="edge">
<title>Node31&#45;&gt;Node32</title>
<path fill="none" stroke="#191970" d="M584.4626,-248.0437C588.5745,-238.8331 593.3394,-228.1598 596.6952,-220.6427"/>
<polygon fill="#191970" stroke="#191970" points="581.2352,-246.6874 580.3547,-257.2455 587.6272,-249.541 581.2352,-246.6874"/>
</g>
<!-- Node47 -->
<g id="node18" class="node">
<title>Node47</title>
<g id="a_node18"><a xlink:href="vcon__stream_8h_source.html" target="_top" xlink:title="l4/l4re_vfs/impl/vcon\l_stream.h">
<polygon fill="#ffffff" stroke="#000000" points="122.5,-134.5 122.5,-164.5 235.5,-164.5 235.5,-134.5 122.5,-134.5"/>
<text text-anchor="start" x="130.5" y="-152.5" font-family="Helvetica,sans-Serif" font-size="10.00" fill="#000000">l4/l4re_vfs/impl/vcon</text>
<text text-anchor="middle" x="179" y="-141.5" font-family="Helvetica,sans-Serif" font-size="10.00" fill="#000000">_stream.h</text>
</a>
</g>
</g>
<!-- Node31&#45;&gt;Node47 -->
<g id="edge17" class="edge">
<title>Node31&#45;&gt;Node47</title>
<path fill="none" stroke="#191970" d="M534.0197,-254.5751C460.5845,-232.8405 309.0976,-188.005 229.847,-164.5492"/>
<polygon fill="#191970" stroke="#191970" points="533.2659,-258.002 543.8481,-257.484 535.2526,-251.2898 533.2659,-258.002"/>
</g>
<!-- Node48 -->
<g id="node19" class="node">
<title>Node48</title>
<g id="a_node19"><a xlink:href="vcon__svr_source.html" target="_top" xlink:title="l4/re/util/vcon_svr">
<polygon fill="#ffffff" stroke="#000000" points="456.5,-201.5 456.5,-220.5 555.5,-220.5 555.5,-201.5 456.5,-201.5"/>
<text text-anchor="middle" x="506" y="-208.5" font-family="Helvetica,sans-Serif" font-size="10.00" fill="#000000">l4/re/util/vcon_svr</text>
</a>
</g>
</g>
<!-- Node31&#45;&gt;Node48 -->
<g id="edge20" class="edge">
<title>Node31&#45;&gt;Node48</title>
<path fill="none" stroke="#191970" d="M555.91,-250.928C543.6747,-241.1397 528.4493,-228.9595 518.0533,-220.6427"/>
<polygon fill="#191970" stroke="#191970" points="553.8118,-253.7316 563.8069,-257.2455 558.1847,-248.2655 553.8118,-253.7316"/>
</g>
<!-- Node33 -->
<g id="node4" class="node">
<title>Node33</title>
<g id="a_node4"><a xlink:href="env.html" target="_top" xlink:title="Environment interface. ">
<polygon fill="#ffffff" stroke="#000000" points="572,-140 572,-159 630,-159 630,-140 572,-140"/>
<text text-anchor="middle" x="601" y="-147" font-family="Helvetica,sans-Serif" font-size="10.00" fill="#000000">l4/re/env</text>
</a>
</g>
</g>
<!-- Node32&#45;&gt;Node33 -->
<g id="edge3" class="edge">
<title>Node32&#45;&gt;Node33</title>
<path fill="none" stroke="#191970" d="M601,-191.2462C601,-180.5519 601,-167.814 601,-159.2449"/>
<polygon fill="#191970" stroke="#191970" points="597.5001,-191.3906 601,-201.3906 604.5001,-191.3907 597.5001,-191.3906"/>
</g>
<!-- Node34 -->
<g id="node5" class="node">
<title>Node34</title>
<g id="a_node5"><a xlink:href="vcpu_source.html" target="_top" xlink:title="l4/vcpu/vcpu">
<polygon fill="#ffffff" stroke="#000000" points="752,-73 752,-92 826,-92 826,-73 752,-73"/>
<text text-anchor="middle" x="789" y="-80" font-family="Helvetica,sans-Serif" font-size="10.00" fill="#000000">l4/vcpu/vcpu</text>
</a>
</g>
</g>
<!-- Node33&#45;&gt;Node34 -->
<g id="edge4" class="edge">
<title>Node33&#45;&gt;Node34</title>
<path fill="none" stroke="#191970" d="M637.7134,-136.416C674.2561,-123.3928 729.4697,-103.7156 762.1142,-92.0817"/>
<polygon fill="#191970" stroke="#191970" points="636.1805,-133.2466 627.9358,-139.9005 638.5305,-139.8403 636.1805,-133.2466"/>
</g>
<!-- Node35 -->
<g id="node6" class="node">
<title>Node35</title>
<g id="a_node6"><a xlink:href="server_2l4virtio_source.html" target="_top" xlink:title="l4/l4virtio/server\l/l4virtio">
<polygon fill="#ffffff" stroke="#000000" points="844,-67.5 844,-97.5 936,-97.5 936,-67.5 844,-67.5"/>
<text text-anchor="start" x="852" y="-85.5" font-family="Helvetica,sans-Serif" font-size="10.00" fill="#000000">l4/l4virtio/server</text>
<text text-anchor="middle" x="890" y="-74.5" font-family="Helvetica,sans-Serif" font-size="10.00" fill="#000000">/l4virtio</text>
</a>
</g>
</g>
<!-- Node33&#45;&gt;Node35 -->
<g id="edge5" class="edge">
<title>Node33&#45;&gt;Node35</title>
<path fill="none" stroke="#191970" d="M640.0667,-140.5208C649.5329,-138.3656 659.6256,-136.0848 669,-134 742.6923,-117.611 761.7457,-116.2473 835,-98 837.8879,-97.2806 840.8543,-96.517 843.8411,-95.7294"/>
<polygon fill="#191970" stroke="#191970" points="639.0747,-137.1572 630.1045,-142.7949 640.6326,-143.9816 639.0747,-137.1572"/>
</g>
<!-- Node37 -->
<g id="node8" class="node">
<title>Node37</title>
<g id="a_node8"><a xlink:href="env__ns_source.html" target="_top" xlink:title="l4/re/util/env_ns">
<polygon fill="#ffffff" stroke="#000000" points="954.5,-73 954.5,-92 1045.5,-92 1045.5,-73 954.5,-73"/>
<text text-anchor="middle" x="1000" y="-80" font-family="Helvetica,sans-Serif" font-size="10.00" fill="#000000">l4/re/util/env_ns</text>
</a>
</g>
</g>
<!-- Node33&#45;&gt;Node37 -->
<g id="edge7" class="edge">
<title>Node33&#45;&gt;Node37</title>
<path fill="none" stroke="#191970" d="M640.2168,-139.8973C649.611,-137.7813 659.634,-135.6744 669,-134 790.775,-112.2295 823.8145,-122.843 945,-98 952.8719,-96.3863 961.2686,-94.242 969.0699,-92.0644"/>
<polygon fill="#191970" stroke="#191970" points="639.2885,-136.5195 630.3307,-142.1771 640.8615,-143.3405 639.2885,-136.5195"/>
</g>
<!-- Node39 -->
<g id="node10" class="node">
<title>Node39</title>
<g id="a_node10"><a xlink:href="ro__file__impl_8h_source.html" target="_top" xlink:title="l4/l4re_vfs/impl/ro\l_file_impl.h">
<polygon fill="#ffffff" stroke="#000000" points="254,-67.5 254,-97.5 354,-97.5 354,-67.5 254,-67.5"/>
<text text-anchor="start" x="262" y="-85.5" font-family="Helvetica,sans-Serif" font-size="10.00" fill="#000000">l4/l4re_vfs/impl/ro</text>
<text text-anchor="middle" x="304" y="-74.5" font-family="Helvetica,sans-Serif" font-size="10.00" fill="#000000">_file_impl.h</text>
</a>
</g>
</g>
<!-- Node33&#45;&gt;Node39 -->
<g id="edge9" class="edge">
<title>Node33&#45;&gt;Node39</title>
<path fill="none" stroke="#191970" d="M562.1519,-141.6388C514.9361,-131.9588 432.9034,-114.7368 363,-98 360.1161,-97.3095 357.1573,-96.5847 354.1744,-95.8412"/>
<polygon fill="#191970" stroke="#191970" points="561.466,-145.0709 571.9644,-143.6446 562.8679,-138.2127 561.466,-145.0709"/>
</g>
<!-- Node40 -->
<g id="node11" class="node">
<title>Node40</title>
<g id="a_node11"><a xlink:href="vcon__stream__impl_8h_source.html" target="_top" xlink:title="l4/l4re_vfs/impl/vcon\l_stream_impl.h">
<polygon fill="#ffffff" stroke="#000000" points="122.5,-67.5 122.5,-97.5 235.5,-97.5 235.5,-67.5 122.5,-67.5"/>
<text text-anchor="start" x="130.5" y="-85.5" font-family="Helvetica,sans-Serif" font-size="10.00" fill="#000000">l4/l4re_vfs/impl/vcon</text>
<text text-anchor="middle" x="179" y="-74.5" font-family="Helvetica,sans-Serif" font-size="10.00" fill="#000000">_stream_impl.h</text>
</a>
</g>
</g>
<!-- Node33&#45;&gt;Node40 -->
<g id="edge10" class="edge">
<title>Node33&#45;&gt;Node40</title>
<path fill="none" stroke="#191970" d="M561.4495,-144.9197C495.5445,-137.0322 359.2109,-119.6297 245,-98 241.9932,-97.4306 238.9164,-96.8169 235.8148,-96.1739"/>
<polygon fill="#191970" stroke="#191970" points="561.4425,-148.4434 571.7856,-146.1476 562.2683,-141.4922 561.4425,-148.4434"/>
</g>
<!-- Node41 -->
<g id="node12" class="node">
<title>Node41</title>
<g id="a_node12"><a xlink:href="vfs__impl_8h_source.html" target="_top" xlink:title="l4/l4re_vfs/impl/vfs\l_impl.h">
<polygon fill="#ffffff" stroke="#000000" points="0,-67.5 0,-97.5 104,-97.5 104,-67.5 0,-67.5"/>
<text text-anchor="start" x="8" y="-85.5" font-family="Helvetica,sans-Serif" font-size="10.00" fill="#000000">l4/l4re_vfs/impl/vfs</text>
<text text-anchor="middle" x="52" y="-74.5" font-family="Helvetica,sans-Serif" font-size="10.00" fill="#000000">_impl.h</text>
</a>
</g>
</g>
<!-- Node33&#45;&gt;Node41 -->
<g id="edge11" class="edge">
<title>Node33&#45;&gt;Node41</title>
<path fill="none" stroke="#191970" d="M561.9057,-147.2873C478.7649,-142.1634 278.4687,-127.5956 113,-98 110.0958,-97.4806 107.1257,-96.8983 104.1359,-96.2722"/>
<polygon fill="#191970" stroke="#191970" points="561.7254,-150.7827 571.9186,-147.8934 562.1484,-143.7955 561.7254,-150.7827"/>
</g>
<!-- Node42 -->
<g id="node13" class="node">
<title>Node42</title>
<g id="a_node13"><a xlink:href="util_2event.html" target="_top" xlink:title="l4/re/util/event">
<polygon fill="#ffffff" stroke="#000000" points="372.5,-73 372.5,-92 455.5,-92 455.5,-73 372.5,-73"/>
<text text-anchor="middle" x="414" y="-80" font-family="Helvetica,sans-Serif" font-size="10.00" fill="#000000">l4/re/util/event</text>
</a>
</g>
</g>
<!-- Node33&#45;&gt;Node42 -->
<g id="edge12" class="edge">
<title>Node33&#45;&gt;Node42</title>
<path fill="none" stroke="#191970" d="M564.4819,-136.416C528.1335,-123.3928 473.2137,-103.7156 440.7428,-92.0817"/>
<polygon fill="#191970" stroke="#191970" points="563.6129,-139.8224 574.2075,-139.9005 565.974,-133.2326 563.6129,-139.8224"/>
</g>
<!-- Node33&#45;&gt;Node43 -->
<g id="edge13" class="edge">
<title>Node33&#45;&gt;Node43</title>
<path fill="none" stroke="#191970" d="M640.1748,-139.6492C649.5706,-137.5426 659.6048,-135.5023 669,-134 839.1388,-106.7955 885.7603,-130.33 1055,-98 1062.9099,-96.489 1071.3352,-94.3007 1079.0861,-92.0424"/>
<polygon fill="#191970" stroke="#191970" points="639.2426,-136.2724 630.2904,-141.9388 640.8223,-143.0919 639.2426,-136.2724"/>
</g>
<!-- Node45 -->
<g id="node16" class="node">
<title>Node45</title>
<g id="a_node16"><a xlink:href="kumem__alloc.html" target="_top" xlink:title="Kumem allocator helper. ">
<polygon fill="#ffffff" stroke="#000000" points="473.5,-73 473.5,-92 590.5,-92 590.5,-73 473.5,-73"/>
<text text-anchor="middle" x="532" y="-80" font-family="Helvetica,sans-Serif" font-size="10.00" fill="#000000">l4/re/util/kumem_alloc</text>
</a>
</g>
</g>
<!-- Node33&#45;&gt;Node45 -->
<g id="edge15" class="edge">
<title>Node33&#45;&gt;Node45</title>
<path fill="none" stroke="#191970" d="M583.5734,-132.5785C570.3762,-119.7639 552.7225,-102.6218 541.8677,-92.0817"/>
<polygon fill="#191970" stroke="#191970" points="581.5015,-135.4452 591.114,-139.9005 586.3779,-130.4232 581.5015,-135.4452"/>
</g>
<!-- Node46 -->
<g id="node17" class="node">
<title>Node46</title>
<g id="a_node17"><a xlink:href="object__registry_source.html" target="_top" xlink:title="l4/re/util/object_registry">
<polygon fill="#ffffff" stroke="#000000" points="608.5,-73 608.5,-92 733.5,-92 733.5,-73 608.5,-73"/>
<text text-anchor="middle" x="671" y="-80" font-family="Helvetica,sans-Serif" font-size="10.00" fill="#000000">l4/re/util/object_registry</text>
</a>
</g>
</g>
<!-- Node33&#45;&gt;Node46 -->
<g id="edge16" class="edge">
<title>Node33&#45;&gt;Node46</title>
<path fill="none" stroke="#191970" d="M618.3014,-132.94C631.7291,-120.0879 649.8733,-102.7212 660.9893,-92.0817"/>
<polygon fill="#191970" stroke="#191970" points="615.8334,-130.4575 611.0293,-139.9005 620.6736,-135.5144 615.8334,-130.4575"/>
</g>
<!-- Node36 -->
<g id="node7" class="node">
<title>Node36</title>
<g id="a_node7"><a xlink:href="virtio-block_source.html" target="_top" xlink:title="l4/l4virtio/server\l/virtio&#45;block">
<polygon fill="#ffffff" stroke="#000000" points="839,-.5 839,-30.5 931,-30.5 931,-.5 839,-.5"/>
<text text-anchor="start" x="847" y="-18.5" font-family="Helvetica,sans-Serif" font-size="10.00" fill="#000000">l4/l4virtio/server</text>
<text text-anchor="middle" x="885" y="-7.5" font-family="Helvetica,sans-Serif" font-size="10.00" fill="#000000">/virtio&#45;block</text>
</a>
</g>
</g>
<!-- Node35&#45;&gt;Node36 -->
<g id="edge6" class="edge">
<title>Node35&#45;&gt;Node36</title>
<path fill="none" stroke="#191970" d="M888.1207,-57.3179C887.4509,-48.3414 886.7175,-38.5143 886.1301,-30.6432"/>
<polygon fill="#191970" stroke="#191970" points="884.6308,-57.5849 888.8654,-67.2967 891.6114,-57.0639 884.6308,-57.5849"/>
</g>
<!-- Node38 -->
<g id="node9" class="node">
<title>Node38</title>
<g id="a_node9"><a xlink:href="ns__fs__impl_8h_source.html" target="_top" xlink:title="l4/l4re_vfs/impl/ns\l_fs_impl.h">
<polygon fill="#ffffff" stroke="#000000" points="949.5,-.5 949.5,-30.5 1050.5,-30.5 1050.5,-.5 949.5,-.5"/>
<text text-anchor="start" x="957.5" y="-18.5" font-family="Helvetica,sans-Serif" font-size="10.00" fill="#000000">l4/l4re_vfs/impl/ns</text>
<text text-anchor="middle" x="1000" y="-7.5" font-family="Helvetica,sans-Serif" font-size="10.00" fill="#000000">_fs_impl.h</text>
</a>
</g>
</g>
<!-- Node37&#45;&gt;Node38 -->
<g id="edge8" class="edge">
<title>Node37&#45;&gt;Node38</title>
<path fill="none" stroke="#191970" d="M1000,-62.7758C1000,-52.4641 1000,-40.0437 1000,-30.5218"/>
<polygon fill="#191970" stroke="#191970" points="996.5001,-62.9005 1000,-72.9005 1003.5001,-62.9006 996.5001,-62.9005"/>
</g>
<!-- Node44 -->
<g id="node15" class="node">
<title>Node44</title>
<g id="a_node15"><a xlink:href="event__svr_source.html" target="_top" xlink:title="l4/re/util/event_svr">
<polygon fill="#ffffff" stroke="#000000" points="1068.5,-6 1068.5,-25 1171.5,-25 1171.5,-6 1068.5,-6"/>
<text text-anchor="middle" x="1120" y="-13" font-family="Helvetica,sans-Serif" font-size="10.00" fill="#000000">l4/re/util/event_svr</text>
</a>
</g>
</g>
<!-- Node43&#45;&gt;Node44 -->
<g id="edge14" class="edge">
<title>Node43&#45;&gt;Node44</title>
<path fill="none" stroke="#191970" d="M1111.495,-62.9863C1113.7262,-50.5286 1116.5208,-34.9258 1118.2839,-25.0817"/>
<polygon fill="#191970" stroke="#191970" points="1108.0372,-62.4401 1109.7193,-72.9005 1114.9276,-63.6742 1108.0372,-62.4401"/>
</g>
<!-- Node47&#45;&gt;Node40 -->
<g id="edge18" class="edge">
<title>Node47&#45;&gt;Node40</title>
<path fill="none" stroke="#191970" d="M179,-124.0249C179,-115.128 179,-105.4287 179,-97.6432"/>
<polygon fill="#191970" stroke="#191970" points="175.5001,-124.2966 179,-134.2967 182.5001,-124.2967 175.5001,-124.2966"/>
</g>
<!-- Node47&#45;&gt;Node41 -->
<g id="edge19" class="edge">
<title>Node47&#45;&gt;Node41</title>
<path fill="none" stroke="#191970" d="M141.6095,-129.7743C122.1978,-119.5335 98.8444,-107.2132 80.8456,-97.7177"/>
<polygon fill="#191970" stroke="#191970" points="140.0209,-132.8934 150.4987,-134.4639 143.2872,-126.7021 140.0209,-132.8934"/>
</g>
<!-- Node52 -->
<g id="node23" class="node">
<title>Node52</title>
<g id="a_node23"><a xlink:href="vbus__generic_source.html" target="_top" xlink:title="l4/vbus/vbus_generic">
<polygon fill="#ffffff" stroke="#000000" points="1017,-201.5 1017,-220.5 1131,-220.5 1131,-201.5 1017,-201.5"/>
<text text-anchor="middle" x="1074" y="-208.5" font-family="Helvetica,sans-Serif" font-size="10.00" fill="#000000">l4/vbus/vbus_generic</text>
</a>
</g>
</g>
<!-- Node51&#45;&gt;Node52 -->
<g id="edge25" class="edge">
<title>Node51&#45;&gt;Node52</title>
<path fill="none" stroke="#191970" d="M983.0104,-253.1109C1004.9525,-242.9559 1034.1388,-229.4482 1053.4708,-220.5011"/>
<polygon fill="#191970" stroke="#191970" points="981.4058,-249.9968 973.8006,-257.3733 984.3459,-256.3494 981.4058,-249.9968"/>
</g>
<!-- Node53 -->
<g id="node24" class="node">
<title>Node53</title>
<g id="a_node24"><a xlink:href="vbus__gpio_source.html" target="_top" xlink:title="l4/vbus/vbus_gpio">
<polygon fill="#ffffff" stroke="#000000" points="789.5,-201.5 789.5,-220.5 888.5,-220.5 888.5,-201.5 789.5,-201.5"/>
<text text-anchor="middle" x="839" y="-208.5" font-family="Helvetica,sans-Serif" font-size="10.00" fill="#000000">l4/vbus/vbus_gpio</text>
</a>
</g>
</g>
<!-- Node51&#45;&gt;Node53 -->
<g id="edge26" class="edge">
<title>Node51&#45;&gt;Node53</title>
<path fill="none" stroke="#191970" d="M924.1679,-252.8368C903.5605,-242.7139 876.3918,-229.3679 858.3416,-220.5011"/>
<polygon fill="#191970" stroke="#191970" points="922.884,-256.1056 933.4027,-257.3733 925.9703,-249.8227 922.884,-256.1056"/>
</g>
<!-- Node54 -->
<g id="node25" class="node">
<title>Node54</title>
<g id="a_node25"><a xlink:href="vbus__pci_source.html" target="_top" xlink:title="l4/vbus/vbus_pci">
<polygon fill="#ffffff" stroke="#000000" points="907,-201.5 907,-220.5 999,-220.5 999,-201.5 907,-201.5"/>
<text text-anchor="middle" x="953" y="-208.5" font-family="Helvetica,sans-Serif" font-size="10.00" fill="#000000">l4/vbus/vbus_pci</text>
</a>
</g>
</g>
<!-- Node51&#45;&gt;Node54 -->
<g id="edge27" class="edge">
<title>Node51&#45;&gt;Node54</title>
<path fill="none" stroke="#191970" d="M953,-247.1575C953,-238.155 953,-227.9199 953,-220.6427"/>
<polygon fill="#191970" stroke="#191970" points="949.5001,-247.2455 953,-257.2455 956.5001,-247.2456 949.5001,-247.2455"/>
</g>
</g>
</svg>
