<?xml version="1.0" encoding="UTF-8" standalone="no"?>
<!DOCTYPE svg PUBLIC "-//W3C//DTD SVG 1.1//EN"
 "http://www.w3.org/Graphics/SVG/1.1/DTD/svg11.dtd">
<!-- Generated by graphviz version 2.40.1 (20161225.0304)
 -->
<!-- Title: l4/sys/icu.h Pages: 1 -->
<svg width="537pt" height="487pt"
 viewBox="0.00 0.00 537.00 487.00" xmlns="http://www.w3.org/2000/svg" xmlns:xlink="http://www.w3.org/1999/xlink">
<g id="graph0" class="graph" transform="scale(1 1) rotate(0) translate(4 483)">
<title>l4/sys/icu.h</title>
<polygon fill="#ffffff" stroke="transparent" points="-4,4 -4,-483 533,-483 533,4 -4,4"/>
<!-- Node0 -->
<g id="node1" class="node">
<title>Node0</title>
<polygon fill="#bfbfbf" stroke="#000000" points="204,-459.5 204,-478.5 272,-478.5 272,-459.5 204,-459.5"/>
<text text-anchor="middle" x="238" y="-466.5" font-family="Helvetica,sans-Serif" font-size="10.00" fill="#000000">l4/sys/icu.h</text>
</g>
<!-- Node1 -->
<g id="node2" class="node">
<title>Node1</title>
<g id="a_node2"><a xlink:href="kernel__object_8h.html" target="_top" xlink:title="Kernel object system calls. ">
<polygon fill="#ffffff" stroke="#000000" points="287,-403.5 287,-422.5 405,-422.5 405,-403.5 287,-403.5"/>
<text text-anchor="middle" x="346" y="-410.5" font-family="Helvetica,sans-Serif" font-size="10.00" fill="#000000">l4/sys/kernel_object.h</text>
</a>
</g>
</g>
<!-- Node0&#45;&gt;Node1 -->
<g id="edge1" class="edge">
<title>Node0&#45;&gt;Node1</title>
<path fill="none" stroke="#191970" d="M256.8122,-459.2455C273.8473,-450.4125 299.1575,-437.2887 318.4681,-427.2758"/>
<polygon fill="#191970" stroke="#191970" points="320.137,-430.353 327.4034,-422.6427 316.9147,-424.1388 320.137,-430.353"/>
</g>
<!-- Node11 -->
<g id="node12" class="node">
<title>Node11</title>
<g id="a_node12"><a xlink:href="l4_2sys_2ipc_8h.html" target="_top" xlink:title="Common IPC interface. ">
<polygon fill="#ffffff" stroke="#000000" points="266,-280.5 266,-299.5 334,-299.5 334,-280.5 266,-280.5"/>
<text text-anchor="middle" x="300" y="-287.5" font-family="Helvetica,sans-Serif" font-size="10.00" fill="#000000">l4/sys/ipc.h</text>
</a>
</g>
</g>
<!-- Node0&#45;&gt;Node11 -->
<g id="edge25" class="edge">
<title>Node0&#45;&gt;Node11</title>
<path fill="none" stroke="#191970" d="M233.0543,-459.1884C222.1318,-436.0179 198.699,-376.7929 222,-336 230.3154,-321.4424 245.238,-311.0309 259.8203,-303.8375"/>
<polygon fill="#191970" stroke="#191970" points="261.6085,-306.8703 269.2809,-299.5638 258.7267,-300.491 261.6085,-306.8703"/>
</g>
<!-- Node2 -->
<g id="node3" class="node">
<title>Node2</title>
<g id="a_node3"><a xlink:href="l4_2sys_2types_8h.html" target="_top" xlink:title="Common L4 ABI Data Types. ">
<polygon fill="#ffffff" stroke="#000000" points="261,-168.5 261,-187.5 341,-187.5 341,-168.5 261,-168.5"/>
<text text-anchor="middle" x="301" y="-175.5" font-family="Helvetica,sans-Serif" font-size="10.00" fill="#000000">l4/sys/types.h</text>
</a>
</g>
</g>
<!-- Node1&#45;&gt;Node2 -->
<g id="edge2" class="edge">
<title>Node1&#45;&gt;Node2</title>
<path fill="none" stroke="#191970" d="M357.9466,-403.3529C367.6351,-394.8388 380.8207,-381.546 388,-367 416.4599,-309.3376 445.5472,-277.5846 410,-224 396.7565,-204.0365 372.9543,-192.7154 350.9639,-186.3057"/>
<polygon fill="#191970" stroke="#191970" points="351.5936,-182.8523 341.0321,-183.6928 349.8126,-189.6219 351.5936,-182.8523"/>
</g>
<!-- Node4 -->
<g id="node5" class="node">
<title>Node4</title>
<g id="a_node5"><a xlink:href="compiler_8h.html" target="_top" xlink:title="L4 compiler related defines. ">
<polygon fill="#ffffff" stroke="#000000" points="356.5,-56.5 356.5,-75.5 451.5,-75.5 451.5,-56.5 356.5,-56.5"/>
<text text-anchor="middle" x="404" y="-63.5" font-family="Helvetica,sans-Serif" font-size="10.00" fill="#000000">l4/sys/compiler.h</text>
</a>
</g>
</g>
<!-- Node1&#45;&gt;Node4 -->
<g id="edge13" class="edge">
<title>Node1&#45;&gt;Node4</title>
<path fill="none" stroke="#191970" d="M391.236,-403.4798C445.4275,-389.1145 529,-356.225 529,-290 529,-290 529,-290 529,-178 529,-151.1382 464.1613,-104.8735 427.8795,-81.0878"/>
<polygon fill="#191970" stroke="#191970" points="429.6238,-78.0477 419.3275,-75.5505 425.8192,-83.9235 429.6238,-78.0477"/>
</g>
<!-- Node9 -->
<g id="node10" class="node">
<title>Node9</title>
<g id="a_node10"><a xlink:href="l4_2sys_2utcb_8h.html" target="_top" xlink:title="UTCB definitions. ">
<polygon fill="#ffffff" stroke="#000000" points="327,-224.5 327,-243.5 401,-243.5 401,-224.5 327,-224.5"/>
<text text-anchor="middle" x="364" y="-231.5" font-family="Helvetica,sans-Serif" font-size="10.00" fill="#000000">l4/sys/utcb.h</text>
</a>
</g>
</g>
<!-- Node1&#45;&gt;Node9 -->
<g id="edge14" class="edge">
<title>Node1&#45;&gt;Node9</title>
<path fill="none" stroke="#191970" d="M353.3819,-403.4183C359.7273,-394.5336 368.4061,-380.6624 372,-367 382.3498,-327.6551 374.7029,-279.597 368.9022,-253.368"/>
<polygon fill="#191970" stroke="#191970" points="372.2893,-252.482 366.587,-243.5526 365.4762,-254.089 372.2893,-252.482"/>
</g>
<!-- Node10 -->
<g id="node11" class="node">
<title>Node10</title>
<g id="a_node11"><a xlink:href="____kernel__object__impl_8h.html" target="_top" xlink:title="Low&#45;level kernel debugger functions. ">
<polygon fill="#ffffff" stroke="#000000" points="241,-336.5 241,-366.5 363,-366.5 363,-336.5 241,-336.5"/>
<text text-anchor="start" x="249" y="-354.5" font-family="Helvetica,sans-Serif" font-size="10.00" fill="#000000">l4/sys/__kernel_object</text>
<text text-anchor="middle" x="302" y="-343.5" font-family="Helvetica,sans-Serif" font-size="10.00" fill="#000000">_impl.h</text>
</a>
</g>
</g>
<!-- Node1&#45;&gt;Node10 -->
<g id="edge18" class="edge">
<title>Node1&#45;&gt;Node10</title>
<path fill="none" stroke="#191970" d="M339.125,-403.3906C333.6664,-395.761 325.7999,-384.7658 318.712,-374.8588"/>
<polygon fill="#191970" stroke="#191970" points="321.4288,-372.6409 312.7636,-366.5446 315.7358,-376.714 321.4288,-372.6409"/>
</g>
<!-- Node1&#45;&gt;Node11 -->
<g id="edge24" class="edge">
<title>Node1&#45;&gt;Node11</title>
<path fill="none" stroke="#191970" d="M287.4833,-403.4429C266.3747,-396.8619 244.6546,-385.7523 232,-367 224.293,-355.5794 225.5399,-348.1694 232,-336 239.3846,-322.0889 253.0636,-311.6166 266.2272,-304.2062"/>
<polygon fill="#191970" stroke="#191970" points="267.9124,-307.275 275.1745,-299.5605 264.6866,-301.0625 267.9124,-307.275"/>
</g>
<!-- Node3 -->
<g id="node4" class="node">
<title>Node3</title>
<g id="a_node4"><a xlink:href="l4_2sys_2l4int_8h.html" target="_top" xlink:title="Fixed sized integer types, generic version. ">
<polygon fill="#ffffff" stroke="#000000" points="0,-56.5 0,-75.5 74,-75.5 74,-56.5 0,-56.5"/>
<text text-anchor="middle" x="37" y="-63.5" font-family="Helvetica,sans-Serif" font-size="10.00" fill="#000000">l4/sys/l4int.h</text>
</a>
</g>
</g>
<!-- Node2&#45;&gt;Node3 -->
<g id="edge3" class="edge">
<title>Node2&#45;&gt;Node3</title>
<path fill="none" stroke="#191970" d="M260.8537,-174.3865C186.1027,-167.2508 31.6986,-150.4356 16,-132 4.3795,-118.3535 13.4116,-98.2221 22.9852,-83.7846"/>
<polygon fill="#191970" stroke="#191970" points="25.8443,-85.8035 28.8362,-75.6398 20.1592,-81.7193 25.8443,-85.8035"/>
</g>
<!-- Node2&#45;&gt;Node4 -->
<g id="edge4" class="edge">
<title>Node2&#45;&gt;Node4</title>
<path fill="none" stroke="#191970" d="M318.5892,-168.4241C332.6515,-160.1387 352.2239,-147.1279 366,-132 378.7511,-117.9977 389.1294,-99.0029 395.7984,-84.9857"/>
<polygon fill="#191970" stroke="#191970" points="399.0216,-86.3528 399.9797,-75.8013 392.6508,-83.4523 399.0216,-86.3528"/>
</g>
<!-- Node6 -->
<g id="node7" class="node">
<title>Node6</title>
<g id="a_node7"><a xlink:href="l4_2sys_2consts_8h.html" target="_top" xlink:title="Common constants. ">
<polygon fill="#ffffff" stroke="#000000" points="145,-112.5 145,-131.5 231,-131.5 231,-112.5 145,-112.5"/>
<text text-anchor="middle" x="188" y="-119.5" font-family="Helvetica,sans-Serif" font-size="10.00" fill="#000000">l4/sys/consts.h</text>
</a>
</g>
</g>
<!-- Node2&#45;&gt;Node6 -->
<g id="edge6" class="edge">
<title>Node2&#45;&gt;Node6</title>
<path fill="none" stroke="#191970" d="M281.5746,-168.3733C263.5979,-159.4644 236.6559,-146.1127 216.291,-136.0203"/>
<polygon fill="#191970" stroke="#191970" points="217.6861,-132.8055 207.1719,-131.5011 214.5778,-139.0776 217.6861,-132.8055"/>
</g>
<!-- Node7 -->
<g id="node8" class="node">
<title>Node7</title>
<g id="a_node8"><a xlink:href="____l4__fpage_8h_source.html" target="_top" xlink:title="l4/sys/__l4_fpage.h">
<polygon fill="#ffffff" stroke="#000000" points="249,-112.5 249,-131.5 357,-131.5 357,-112.5 249,-112.5"/>
<text text-anchor="middle" x="303" y="-119.5" font-family="Helvetica,sans-Serif" font-size="10.00" fill="#000000">l4/sys/__l4_fpage.h</text>
</a>
</g>
</g>
<!-- Node2&#45;&gt;Node7 -->
<g id="edge9" class="edge">
<title>Node2&#45;&gt;Node7</title>
<path fill="none" stroke="#191970" d="M301.3484,-168.2455C301.6093,-160.9382 301.9752,-150.6944 302.2963,-141.7046"/>
<polygon fill="#191970" stroke="#191970" points="305.7964,-141.7613 302.6556,-131.6427 298.8008,-141.5113 305.7964,-141.7613"/>
</g>
<!-- Node8 -->
<g id="node9" class="node">
<title>Node8</title>
<g id="a_node9"><a xlink:href="____timeout_8h_source.html" target="_top" xlink:title="l4/sys/__timeout.h">
<polygon fill="#ffffff" stroke="#000000" points="25.5,-112.5 25.5,-131.5 126.5,-131.5 126.5,-112.5 25.5,-112.5"/>
<text text-anchor="middle" x="76" y="-119.5" font-family="Helvetica,sans-Serif" font-size="10.00" fill="#000000">l4/sys/__timeout.h</text>
</a>
</g>
</g>
<!-- Node2&#45;&gt;Node8 -->
<g id="edge11" class="edge">
<title>Node2&#45;&gt;Node8</title>
<path fill="none" stroke="#191970" d="M262.5768,-168.4369C224.3125,-158.9133 165.4663,-144.2672 124.1151,-133.9753"/>
<polygon fill="#191970" stroke="#191970" points="124.8141,-130.5426 114.2647,-131.5237 123.1234,-137.3353 124.8141,-130.5426"/>
</g>
<!-- Node5 -->
<g id="node6" class="node">
<title>Node5</title>
<polygon fill="#ffffff" stroke="#bfbfbf" points="359.5,-.5 359.5,-19.5 448.5,-19.5 448.5,-.5 359.5,-.5"/>
<text text-anchor="middle" x="404" y="-7.5" font-family="Helvetica,sans-Serif" font-size="10.00" fill="#000000">l4/sys/linkage.h</text>
</g>
<!-- Node4&#45;&gt;Node5 -->
<g id="edge5" class="edge">
<title>Node4&#45;&gt;Node5</title>
<path fill="none" stroke="#191970" d="M404,-56.2455C404,-48.9382 404,-38.6944 404,-29.7046"/>
<polygon fill="#191970" stroke="#191970" points="407.5001,-29.6426 404,-19.6427 400.5001,-29.6427 407.5001,-29.6426"/>
</g>
<!-- Node6&#45;&gt;Node3 -->
<g id="edge8" class="edge">
<title>Node6&#45;&gt;Node3</title>
<path fill="none" stroke="#191970" d="M162.0422,-112.3733C137.2593,-103.1822 99.7254,-89.2624 72.246,-79.0713"/>
<polygon fill="#191970" stroke="#191970" points="73.2121,-75.6968 62.6191,-75.5011 70.7781,-82.26 73.2121,-75.6968"/>
</g>
<!-- Node6&#45;&gt;Node4 -->
<g id="edge7" class="edge">
<title>Node6&#45;&gt;Node4</title>
<path fill="none" stroke="#191970" d="M225.1317,-112.3733C261.8267,-102.8598 318.0639,-88.2797 357.6651,-78.0127"/>
<polygon fill="#191970" stroke="#191970" points="358.5512,-81.3988 367.3528,-75.5011 356.7944,-74.6228 358.5512,-81.3988"/>
</g>
<!-- Node7&#45;&gt;Node4 -->
<g id="edge10" class="edge">
<title>Node7&#45;&gt;Node4</title>
<path fill="none" stroke="#191970" d="M320.5929,-112.2455C336.379,-103.4928 359.7639,-90.527 377.7587,-80.5496"/>
<polygon fill="#191970" stroke="#191970" points="379.5603,-83.5528 386.6087,-75.6427 376.1659,-77.4308 379.5603,-83.5528"/>
</g>
<!-- Node8&#45;&gt;Node3 -->
<g id="edge12" class="edge">
<title>Node8&#45;&gt;Node3</title>
<path fill="none" stroke="#191970" d="M69.2067,-112.2455C63.7822,-104.4564 56.0339,-93.3308 49.4967,-83.9439"/>
<polygon fill="#191970" stroke="#191970" points="52.3025,-81.8485 43.7154,-75.6427 46.5583,-85.849 52.3025,-81.8485"/>
</g>
<!-- Node9&#45;&gt;Node2 -->
<g id="edge15" class="edge">
<title>Node9&#45;&gt;Node2</title>
<path fill="none" stroke="#191970" d="M353.0262,-224.2455C343.8118,-216.0549 330.4468,-204.1749 319.5703,-194.5069"/>
<polygon fill="#191970" stroke="#191970" points="321.6474,-191.6704 311.848,-187.6427 316.9968,-196.9023 321.6474,-191.6704"/>
</g>
<!-- Node9&#45;&gt;Node3 -->
<g id="edge17" class="edge">
<title>Node9&#45;&gt;Node3</title>
<path fill="none" stroke="#191970" d="M326.7365,-229.0156C243.3507,-217.0196 45.9627,-183.654 7,-132 -4.2781,-117.0483 7.6894,-97.1803 19.6903,-83.1623"/>
<polygon fill="#191970" stroke="#191970" points="22.3913,-85.3959 26.5846,-75.6662 17.239,-80.6573 22.3913,-85.3959"/>
</g>
<!-- Node9&#45;&gt;Node4 -->
<g id="edge16" class="edge">
<title>Node9&#45;&gt;Node4</title>
<path fill="none" stroke="#191970" d="M366.2652,-224.4862C372.6156,-197.8144 390.6877,-121.9117 399.3107,-85.695"/>
<polygon fill="#191970" stroke="#191970" points="402.7486,-86.3666 401.66,-75.8279 395.9389,-84.7452 402.7486,-86.3666"/>
</g>
<!-- Node10&#45;&gt;Node11 -->
<g id="edge19" class="edge">
<title>Node10&#45;&gt;Node11</title>
<path fill="none" stroke="#191970" d="M301.5056,-336.2977C301.2482,-328.3834 300.9302,-318.6043 300.6529,-310.0759"/>
<polygon fill="#191970" stroke="#191970" points="304.1435,-309.7279 300.3202,-299.8469 297.1472,-309.9554 304.1435,-309.7279"/>
</g>
<!-- Node11&#45;&gt;Node2 -->
<g id="edge20" class="edge">
<title>Node11&#45;&gt;Node2</title>
<path fill="none" stroke="#191970" d="M300.0853,-280.4509C300.2484,-262.184 300.6075,-221.9553 300.8241,-197.6976"/>
<polygon fill="#191970" stroke="#191970" points="304.3254,-197.5558 300.915,-187.5249 297.3257,-197.4932 304.3254,-197.5558"/>
</g>
<!-- Node11&#45;&gt;Node9 -->
<g id="edge21" class="edge">
<title>Node11&#45;&gt;Node9</title>
<path fill="none" stroke="#191970" d="M311.1479,-280.2455C320.5087,-272.0549 334.0858,-260.1749 345.1349,-250.5069"/>
<polygon fill="#191970" stroke="#191970" points="347.7588,-252.8618 352.9798,-243.6427 343.1492,-247.5937 347.7588,-252.8618"/>
</g>
<!-- Node12 -->
<g id="node13" class="node">
<title>Node12</title>
<g id="a_node13"><a xlink:href="err_8h.html" target="_top" xlink:title="Error codes. ">
<polygon fill="#ffffff" stroke="#000000" points="433,-168.5 433,-187.5 501,-187.5 501,-168.5 433,-168.5"/>
<text text-anchor="middle" x="467" y="-175.5" font-family="Helvetica,sans-Serif" font-size="10.00" fill="#000000">l4/sys/err.h</text>
</a>
</g>
</g>
<!-- Node11&#45;&gt;Node12 -->
<g id="edge22" class="edge">
<title>Node11&#45;&gt;Node12</title>
<path fill="none" stroke="#191970" d="M333.8263,-280.3763C356.7142,-272.8233 386.8721,-260.766 410,-244 428.272,-230.7541 444.5909,-210.5568 455.0361,-195.9943"/>
<polygon fill="#191970" stroke="#191970" points="457.9193,-197.9786 460.7457,-187.7677 452.1686,-193.9874 457.9193,-197.9786"/>
</g>
<!-- Node12&#45;&gt;Node4 -->
<g id="edge23" class="edge">
<title>Node12&#45;&gt;Node4</title>
<path fill="none" stroke="#191970" d="M463.2918,-168.31C458.1127,-155.1796 448.0927,-131.1748 437,-112 431.4339,-102.3785 424.3453,-92.2805 418.1657,-84.0048"/>
<polygon fill="#191970" stroke="#191970" points="420.7854,-81.6686 411.9321,-75.8488 415.2238,-85.9193 420.7854,-81.6686"/>
</g>
</g>
</svg>
