<?xml version="1.0" encoding="UTF-8" standalone="no"?>
<!DOCTYPE svg PUBLIC "-//W3C//DTD SVG 1.1//EN"
 "http://www.w3.org/Graphics/SVG/1.1/DTD/svg11.dtd">
<!-- Generated by graphviz version 2.40.1 (20161225.0304)
 -->
<!-- Title: Graphical Class Hierarchy Pages: 1 -->
<svg width="572pt" height="241pt"
 viewBox="0.00 0.00 572.00 241.00" xmlns="http://www.w3.org/2000/svg" xmlns:xlink="http://www.w3.org/1999/xlink">
<g id="graph0" class="graph" transform="scale(1 1) rotate(0) translate(4 237)">
<title>Graphical Class Hierarchy</title>
<polygon fill="#ffffff" stroke="transparent" points="-4,4 -4,-237 568,-237 568,4 -4,4"/>
<!-- Node349 -->
<g id="node1" class="node">
<title>Node349</title>
<g id="a_node1"><a xlink:href="structL4_1_1Epiface.html" target="_top" xlink:title="Base class for interface implementations. ">
<polygon fill="#ffffff" stroke="#000000" points="0,-128 0,-147 68,-147 68,-128 0,-128"/>
<text text-anchor="middle" x="34" y="-135" font-family="Helvetica,sans-Serif" font-size="10.00" fill="#000000">L4::Epiface</text>
</a>
</g>
</g>
<!-- Node350 -->
<g id="node2" class="node">
<title>Node350</title>
<g id="a_node2"><a xlink:href="structL4_1_1Epiface__t0.html" target="_top" xlink:title="L4::Epiface_t0\&lt; L4\l::Kobject, L4::Epiface \&gt;">
<polygon fill="#ffffff" stroke="#000000" points="106.5,-199.5 106.5,-229.5 228.5,-229.5 228.5,-199.5 106.5,-199.5"/>
<text text-anchor="start" x="114.5" y="-217.5" font-family="Helvetica,sans-Serif" font-size="10.00" fill="#000000">L4::Epiface_t0&lt; L4</text>
<text text-anchor="middle" x="167.5" y="-206.5" font-family="Helvetica,sans-Serif" font-size="10.00" fill="#000000">::Kobject, L4::Epiface &gt;</text>
</a>
</g>
</g>
<!-- Node349&#45;&gt;Node350 -->
<g id="edge1" class="edge">
<title>Node349&#45;&gt;Node350</title>
<path fill="none" stroke="#191970" d="M53.9941,-153.5703C67.5892,-164.0399 86.2626,-177.5518 104,-187.5 111.6273,-191.7778 120.0681,-195.8115 128.2382,-199.3923"/>
<polygon fill="#191970" stroke="#191970" points="55.886,-150.6063 45.8545,-147.1976 51.5708,-156.1181 55.886,-150.6063"/>
</g>
<!-- Node352 -->
<g id="node4" class="node">
<title>Node352</title>
<g id="a_node4"><a xlink:href="structL4_1_1Epiface__t0.html" target="_top" xlink:title="L4::Epiface_t0\&lt; L4virtio\l::Device, L4::Epiface \&gt;">
<polygon fill="#ffffff" stroke="#000000" points="104,-147.5 104,-177.5 231,-177.5 231,-147.5 104,-147.5"/>
<text text-anchor="start" x="112" y="-165.5" font-family="Helvetica,sans-Serif" font-size="10.00" fill="#000000">L4::Epiface_t0&lt; L4virtio</text>
<text text-anchor="middle" x="167.5" y="-154.5" font-family="Helvetica,sans-Serif" font-size="10.00" fill="#000000">::Device, L4::Epiface &gt;</text>
</a>
</g>
</g>
<!-- Node349&#45;&gt;Node352 -->
<g id="edge3" class="edge">
<title>Node349&#45;&gt;Node352</title>
<path fill="none" stroke="#191970" d="M77.8971,-145.7204C86.2379,-147.2824 95.1201,-148.9457 103.9283,-150.5952"/>
<polygon fill="#191970" stroke="#191970" points="78.5065,-142.2738 68.0331,-143.8732 77.218,-149.1542 78.5065,-142.2738"/>
</g>
<!-- Node354 -->
<g id="node6" class="node">
<title>Node354</title>
<g id="a_node6"><a xlink:href="structL4_1_1Epiface__t0.html" target="_top" xlink:title="L4::Epiface_t0\&lt; void,\l Epiface \&gt;">
<polygon fill="#ffffff" stroke="#000000" points="110.5,-98.5 110.5,-128.5 224.5,-128.5 224.5,-98.5 110.5,-98.5"/>
<text text-anchor="start" x="118.5" y="-116.5" font-family="Helvetica,sans-Serif" font-size="10.00" fill="#000000">L4::Epiface_t0&lt; void,</text>
<text text-anchor="middle" x="167.5" y="-105.5" font-family="Helvetica,sans-Serif" font-size="10.00" fill="#000000"> Epiface &gt;</text>
</a>
</g>
</g>
<!-- Node349&#45;&gt;Node354 -->
<g id="edge5" class="edge">
<title>Node349&#45;&gt;Node354</title>
<path fill="none" stroke="#191970" d="M78.0715,-129.577C88.429,-127.715 99.6132,-125.7044 110.4491,-123.7563"/>
<polygon fill="#191970" stroke="#191970" points="77.256,-126.1674 68.0331,-131.3817 78.4946,-133.057 77.256,-126.1674"/>
</g>
<!-- Node356 -->
<g id="node8" class="node">
<title>Node356</title>
<g id="a_node8"><a xlink:href="classL4_1_1Server__object.html" target="_top" xlink:title="Abstract server object to be used with L4::Server and L4::Basic_registry. ">
<polygon fill="#ffffff" stroke="#000000" points="118.5,-11 118.5,-30 216.5,-30 216.5,-11 118.5,-11"/>
<text text-anchor="middle" x="167.5" y="-18" font-family="Helvetica,sans-Serif" font-size="10.00" fill="#000000">L4::Server_object</text>
</a>
</g>
</g>
<!-- Node349&#45;&gt;Node356 -->
<g id="edge7" class="edge">
<title>Node349&#45;&gt;Node356</title>
<path fill="none" stroke="#191970" d="M42.6081,-118.7379C53.7117,-96.5909 75.0898,-60.1672 104,-39.5 109.4295,-35.6186 115.6582,-32.5207 122.0454,-30.0504"/>
<polygon fill="#191970" stroke="#191970" points="39.4288,-117.2731 38.2393,-127.801 45.7344,-120.3128 39.4288,-117.2731"/>
</g>
<!-- Node351 -->
<g id="node3" class="node">
<title>Node351</title>
<g id="a_node3"><a xlink:href="structL4_1_1Epiface__t.html" target="_top" xlink:title="L4::Epiface_t\&lt; Null\l_handler, L4::Kobject \&gt;">
<polygon fill="#ffffff" stroke="#000000" points="274.5,-202.5 274.5,-232.5 398.5,-232.5 398.5,-202.5 274.5,-202.5"/>
<text text-anchor="start" x="282.5" y="-220.5" font-family="Helvetica,sans-Serif" font-size="10.00" fill="#000000">L4::Epiface_t&lt; Null</text>
<text text-anchor="middle" x="336.5" y="-209.5" font-family="Helvetica,sans-Serif" font-size="10.00" fill="#000000">_handler, L4::Kobject &gt;</text>
</a>
</g>
</g>
<!-- Node350&#45;&gt;Node351 -->
<g id="edge2" class="edge">
<title>Node350&#45;&gt;Node351</title>
<path fill="none" stroke="#191970" d="M238.806,-215.7658C250.6502,-215.976 262.849,-216.1926 274.4404,-216.3984"/>
<polygon fill="#191970" stroke="#191970" points="238.5735,-212.2612 228.5129,-215.5831 238.4491,-219.2601 238.5735,-212.2612"/>
</g>
<!-- Node353 -->
<g id="node5" class="node">
<title>Node353</title>
<g id="a_node5"><a xlink:href="structL4_1_1Epiface__t.html" target="_top" xlink:title="L4::Epiface_t\&lt; Block\l_dev\&lt; Ds_data \&gt;, L4virtio\l::Device \&gt;">
<polygon fill="#ffffff" stroke="#000000" points="268,-142 268,-183 405,-183 405,-142 268,-142"/>
<text text-anchor="start" x="276" y="-171" font-family="Helvetica,sans-Serif" font-size="10.00" fill="#000000">L4::Epiface_t&lt; Block</text>
<text text-anchor="start" x="276" y="-160" font-family="Helvetica,sans-Serif" font-size="10.00" fill="#000000">_dev&lt; Ds_data &gt;, L4virtio</text>
<text text-anchor="middle" x="336.5" y="-149" font-family="Helvetica,sans-Serif" font-size="10.00" fill="#000000">::Device &gt;</text>
</a>
</g>
</g>
<!-- Node352&#45;&gt;Node353 -->
<g id="edge4" class="edge">
<title>Node352&#45;&gt;Node353</title>
<path fill="none" stroke="#191970" d="M241.5223,-162.5C250.2304,-162.5 259.0893,-162.5 267.7212,-162.5"/>
<polygon fill="#191970" stroke="#191970" points="241.3917,-159.0001 231.3917,-162.5 241.3916,-166.0001 241.3917,-159.0001"/>
</g>
<!-- Node355 -->
<g id="node7" class="node">
<title>Node355</title>
<g id="a_node7"><a xlink:href="structL4_1_1Irqep__t.html" target="_top" xlink:title="L4::Irqep_t\&lt; Irq_object \&gt;">
<polygon fill="#ffffff" stroke="#000000" points="271,-104 271,-123 402,-123 402,-104 271,-104"/>
<text text-anchor="middle" x="336.5" y="-111" font-family="Helvetica,sans-Serif" font-size="10.00" fill="#000000">L4::Irqep_t&lt; Irq_object &gt;</text>
</a>
</g>
</g>
<!-- Node354&#45;&gt;Node355 -->
<g id="edge6" class="edge">
<title>Node354&#45;&gt;Node355</title>
<path fill="none" stroke="#191970" d="M234.973,-113.5C246.8095,-113.5 259.1109,-113.5 270.8956,-113.5"/>
<polygon fill="#191970" stroke="#191970" points="234.7157,-110.0001 224.7157,-113.5 234.7157,-117.0001 234.7157,-110.0001"/>
</g>
<!-- Node1 -->
<g id="node9" class="node">
<title>Node1</title>
<g id="a_node9"><a xlink:href="structL4_1_1Server__object__x.html" target="_top" xlink:title="Helper class to implement p_dispatch based server objects. ">
<polygon fill="#ffffff" stroke="#000000" points="267,-49.5 267,-79.5 406,-79.5 406,-49.5 267,-49.5"/>
<text text-anchor="start" x="275" y="-67.5" font-family="Helvetica,sans-Serif" font-size="10.00" fill="#000000">L4::Server_object_x</text>
<text text-anchor="middle" x="336.5" y="-56.5" font-family="Helvetica,sans-Serif" font-size="10.00" fill="#000000">&lt; Derived, IFACE, BASE &gt;</text>
</a>
</g>
</g>
<!-- Node356&#45;&gt;Node1 -->
<g id="edge8" class="edge">
<title>Node356&#45;&gt;Node1</title>
<path fill="none" stroke="#191970" d="M213.9649,-32.5974C233.9529,-37.8013 257.5289,-43.9395 278.6353,-49.4346"/>
<polygon fill="#191970" stroke="#191970" points="214.7297,-29.1799 204.1705,-30.0473 212.966,-35.9541 214.7297,-29.1799"/>
</g>
<!-- Node357 -->
<g id="node10" class="node">
<title>Node357</title>
<g id="a_node10"><a xlink:href="structL4_1_1Server__object__t.html" target="_top" xlink:title="L4::Server_object_t\l\&lt; Kobject \&gt;">
<polygon fill="#ffffff" stroke="#000000" points="283,-.5 283,-30.5 390,-30.5 390,-.5 283,-.5"/>
<text text-anchor="start" x="291" y="-18.5" font-family="Helvetica,sans-Serif" font-size="10.00" fill="#000000">L4::Server_object_t</text>
<text text-anchor="middle" x="336.5" y="-7.5" font-family="Helvetica,sans-Serif" font-size="10.00" fill="#000000">&lt; Kobject &gt;</text>
</a>
</g>
</g>
<!-- Node356&#45;&gt;Node357 -->
<g id="edge9" class="edge">
<title>Node356&#45;&gt;Node357</title>
<path fill="none" stroke="#191970" d="M227.0453,-18.7383C245.261,-18.1994 265.1764,-17.6102 282.9666,-17.0838"/>
<polygon fill="#191970" stroke="#191970" points="226.7282,-15.2461 216.8361,-19.0404 226.9353,-22.243 226.7282,-15.2461"/>
</g>
<!-- Node358 -->
<g id="node11" class="node">
<title>Node358</title>
<g id="a_node11"><a xlink:href="structL4_1_1Irq__handler__object.html" target="_top" xlink:title="Server object base class for handling IRQ messages. ">
<polygon fill="#ffffff" stroke="#000000" points="442,-6 442,-25 564,-25 564,-6 442,-6"/>
<text text-anchor="middle" x="503" y="-13" font-family="Helvetica,sans-Serif" font-size="10.00" fill="#000000">L4::Irq_handler_object</text>
</a>
</g>
</g>
<!-- Node357&#45;&gt;Node358 -->
<g id="edge10" class="edge">
<title>Node357&#45;&gt;Node358</title>
<path fill="none" stroke="#191970" d="M400.3741,-15.5C414.0341,-15.5 428.431,-15.5 441.9802,-15.5"/>
<polygon fill="#191970" stroke="#191970" points="400.0982,-12.0001 390.0981,-15.5 400.0981,-19.0001 400.0982,-12.0001"/>
</g>
<!-- Node0 -->
<g id="node12" class="node">
<title>Node0</title>
<g id="a_node12"><a xlink:href="structL4_1_1Server__object__t.html" target="_top" xlink:title="Base class (template) for server implementing server objects. ">
<polygon fill="#ffffff" stroke="#000000" points="114,-49.5 114,-79.5 221,-79.5 221,-49.5 114,-49.5"/>
<text text-anchor="start" x="122" y="-67.5" font-family="Helvetica,sans-Serif" font-size="10.00" fill="#000000">L4::Server_object_t</text>
<text text-anchor="middle" x="167.5" y="-56.5" font-family="Helvetica,sans-Serif" font-size="10.00" fill="#000000">&lt; IFACE, BASE &gt;</text>
</a>
</g>
</g>
<!-- Node0&#45;&gt;Node1 -->
<g id="edge11" class="edge">
<title>Node0&#45;&gt;Node1</title>
<path fill="none" stroke="#191970" d="M231.757,-64.5C243.1829,-64.5 255.1334,-64.5 266.7044,-64.5"/>
<polygon fill="#191970" stroke="#191970" points="231.4373,-61.0001 221.4373,-64.5 231.4373,-68.0001 231.4373,-61.0001"/>
</g>
</g>
</svg>
