<?xml version="1.0" encoding="UTF-8" standalone="no"?>
<!DOCTYPE svg PUBLIC "-//W3C//DTD SVG 1.1//EN"
 "http://www.w3.org/Graphics/SVG/1.1/DTD/svg11.dtd">
<!-- Generated by graphviz version 2.40.1 (20161225.0304)
 -->
<!-- Title: Graphical Class Hierarchy Pages: 1 -->
<svg width="431pt" height="28pt"
 viewBox="0.00 0.00 431.00 28.00" xmlns="http://www.w3.org/2000/svg" xmlns:xlink="http://www.w3.org/1999/xlink">
<g id="graph0" class="graph" transform="scale(1 1) rotate(0) translate(4 24)">
<title>Graphical Class Hierarchy</title>
<polygon fill="#ffffff" stroke="transparent" points="-4,4 -4,-24 427,-24 427,4 -4,4"/>
<!-- Node0 -->
<g id="node1" class="node">
<title>Node0</title>
<g id="a_node1"><a xlink:href="structL4_1_1Types_1_1Bool.html" target="_top" xlink:title="L4::Types::Bool\&lt; false \&gt;">
<polygon fill="#ffffff" stroke="#000000" points="0,-.5 0,-19.5 128,-19.5 128,-.5 0,-.5"/>
<text text-anchor="middle" x="64" y="-7.5" font-family="Helvetica,sans-Serif" font-size="10.00" fill="#000000">L4::Types::Bool&lt; false &gt;</text>
</a>
</g>
</g>
<!-- Node1 -->
<g id="node2" class="node">
<title>Node1</title>
<g id="a_node2"><a xlink:href="structL4_1_1Types_1_1False.html" target="_top" xlink:title="False meta value. ">
<polygon fill="#ffffff" stroke="#000000" points="164,-.5 164,-19.5 256,-19.5 256,-.5 164,-.5"/>
<text text-anchor="middle" x="210" y="-7.5" font-family="Helvetica,sans-Serif" font-size="10.00" fill="#000000">L4::Types::False</text>
</a>
</g>
</g>
<!-- Node0&#45;&gt;Node1 -->
<g id="edge1" class="edge">
<title>Node0&#45;&gt;Node1</title>
<path fill="none" stroke="#191970" d="M138.3008,-10C147.0595,-10 155.7931,-10 163.9973,-10"/>
<polygon fill="#191970" stroke="#191970" points="138.0378,-6.5001 128.0377,-10 138.0377,-13.5001 138.0378,-6.5001"/>
</g>
<!-- Node2 -->
<g id="node3" class="node">
<title>Node2</title>
<g id="a_node3"><a xlink:href="structL4_1_1Types_1_1Same.html" target="_top" xlink:title="Compare two data types for equality. ">
<polygon fill="#ffffff" stroke="#000000" points="292,-.5 292,-19.5 423,-19.5 423,-.5 292,-.5"/>
<text text-anchor="middle" x="357.5" y="-7.5" font-family="Helvetica,sans-Serif" font-size="10.00" fill="#000000">L4::Types::Same&lt; A, B &gt;</text>
</a>
</g>
</g>
<!-- Node1&#45;&gt;Node2 -->
<g id="edge2" class="edge">
<title>Node1&#45;&gt;Node2</title>
<path fill="none" stroke="#191970" d="M266.3041,-10C274.6897,-10 283.3946,-10 291.9504,-10"/>
<polygon fill="#191970" stroke="#191970" points="266.2653,-6.5001 256.2652,-10 266.2652,-13.5001 266.2653,-6.5001"/>
</g>
</g>
</svg>
