<?xml version="1.0" encoding="UTF-8" standalone="no"?>
<!DOCTYPE svg PUBLIC "-//W3C//DTD SVG 1.1//EN"
 "http://www.w3.org/Graphics/SVG/1.1/DTD/svg11.dtd">
<!-- Generated by graphviz version 2.40.1 (20161225.0304)
 -->
<!-- Title: Graphical Class Hierarchy Pages: 1 -->
<svg width="484pt" height="72pt"
 viewBox="0.00 0.00 484.00 72.00" xmlns="http://www.w3.org/2000/svg" xmlns:xlink="http://www.w3.org/1999/xlink">
<g id="graph0" class="graph" transform="scale(1 1) rotate(0) translate(4 68)">
<title>Graphical Class Hierarchy</title>
<polygon fill="#ffffff" stroke="transparent" points="-4,4 -4,-68 480,-68 480,4 -4,4"/>
<!-- Node0 -->
<g id="node1" class="node">
<title>Node0</title>
<g id="a_node1"><a xlink:href="classcxx_1_1Bits_1_1Basic__list.html" target="_top" xlink:title="cxx::Bits::Basic_list\l\&lt; Bits::Basic_list_policy\l\&lt; Weak_ref_base, H_list\l_item_t\&lt; Weak_ref_base \&gt; \&gt; \&gt;">
<polygon fill="#ffffff" stroke="#000000" points="0,-6 0,-58 161,-58 161,-6 0,-6"/>
<text text-anchor="start" x="8" y="-46" font-family="Helvetica,sans-Serif" font-size="10.00" fill="#000000">cxx::Bits::Basic_list</text>
<text text-anchor="start" x="8" y="-35" font-family="Helvetica,sans-Serif" font-size="10.00" fill="#000000">&lt; Bits::Basic_list_policy</text>
<text text-anchor="start" x="8" y="-24" font-family="Helvetica,sans-Serif" font-size="10.00" fill="#000000">&lt; Weak_ref_base, H_list</text>
<text text-anchor="middle" x="80.5" y="-13" font-family="Helvetica,sans-Serif" font-size="10.00" fill="#000000">_item_t&lt; Weak_ref_base &gt; &gt; &gt;</text>
</a>
</g>
</g>
<!-- Node1 -->
<g id="node2" class="node">
<title>Node1</title>
<g id="a_node2"><a xlink:href="classcxx_1_1H__list.html" target="_top" xlink:title="cxx::H_list\&lt; Weak_ref\l_base, Bits::Basic_list\l_policy\&lt; Weak_ref_base,\l H_list_item_t\&lt; Weak_ref\l_base \&gt; \&gt; \&gt;">
<polygon fill="#ffffff" stroke="#000000" points="197,-.5 197,-63.5 332,-63.5 332,-.5 197,-.5"/>
<text text-anchor="start" x="205" y="-51.5" font-family="Helvetica,sans-Serif" font-size="10.00" fill="#000000">cxx::H_list&lt; Weak_ref</text>
<text text-anchor="start" x="205" y="-40.5" font-family="Helvetica,sans-Serif" font-size="10.00" fill="#000000">_base, Bits::Basic_list</text>
<text text-anchor="start" x="205" y="-29.5" font-family="Helvetica,sans-Serif" font-size="10.00" fill="#000000">_policy&lt; Weak_ref_base,</text>
<text text-anchor="start" x="205" y="-18.5" font-family="Helvetica,sans-Serif" font-size="10.00" fill="#000000"> H_list_item_t&lt; Weak_ref</text>
<text text-anchor="middle" x="264.5" y="-7.5" font-family="Helvetica,sans-Serif" font-size="10.00" fill="#000000">_base &gt; &gt; &gt;</text>
</a>
</g>
</g>
<!-- Node0&#45;&gt;Node1 -->
<g id="edge1" class="edge">
<title>Node0&#45;&gt;Node1</title>
<path fill="none" stroke="#191970" d="M171.2687,-32C179.8623,-32 188.4702,-32 196.7925,-32"/>
<polygon fill="#191970" stroke="#191970" points="171.2051,-28.5001 161.2051,-32 171.205,-35.5001 171.2051,-28.5001"/>
</g>
<!-- Node2 -->
<g id="node3" class="node">
<title>Node2</title>
<g id="a_node3"><a xlink:href="structcxx_1_1H__list__t.html" target="_top" xlink:title="cxx::H_list_t\&lt; Weak\l_ref_base \&gt;">
<polygon fill="#ffffff" stroke="#000000" points="368,-17 368,-47 476,-47 476,-17 368,-17"/>
<text text-anchor="start" x="376" y="-35" font-family="Helvetica,sans-Serif" font-size="10.00" fill="#000000">cxx::H_list_t&lt; Weak</text>
<text text-anchor="middle" x="422" y="-24" font-family="Helvetica,sans-Serif" font-size="10.00" fill="#000000">_ref_base &gt;</text>
</a>
</g>
</g>
<!-- Node1&#45;&gt;Node2 -->
<g id="edge2" class="edge">
<title>Node1&#45;&gt;Node2</title>
<path fill="none" stroke="#191970" d="M342.2537,-32C350.838,-32 359.4381,-32 367.6458,-32"/>
<polygon fill="#191970" stroke="#191970" points="342.2083,-28.5001 332.2082,-32 342.2082,-35.5001 342.2083,-28.5001"/>
</g>
</g>
</svg>
