<?xml version="1.0" encoding="UTF-8" standalone="no"?>
<!DOCTYPE svg PUBLIC "-//W3C//DTD SVG 1.1//EN"
 "http://www.w3.org/Graphics/SVG/1.1/DTD/svg11.dtd">
<!-- Generated by graphviz version 2.40.1 (20161225.0304)
 -->
<!-- Title: Graphical Class Hierarchy Pages: 1 -->
<svg width="473pt" height="345pt"
 viewBox="0.00 0.00 473.00 345.00" xmlns="http://www.w3.org/2000/svg" xmlns:xlink="http://www.w3.org/1999/xlink">
<g id="graph0" class="graph" transform="scale(1 1) rotate(0) translate(4 341)">
<title>Graphical Class Hierarchy</title>
<polygon fill="#ffffff" stroke="transparent" points="-4,4 -4,-341 469,-341 469,4 -4,4"/>
<!-- Node285 -->
<g id="node1" class="node">
<title>Node285</title>
<g id="a_node1"><a xlink:href="structL4_1_1Ipc__svr_1_1Compound__reply.html" target="_top" xlink:title="Mix in for LOOP_HOOKS to always use compound reply and wait. ">
<polygon fill="#ffffff" stroke="#000000" points="160.5,-159 160.5,-189 283.5,-189 283.5,-159 160.5,-159"/>
<text text-anchor="start" x="168.5" y="-177" font-family="Helvetica,sans-Serif" font-size="10.00" fill="#000000">L4::Ipc_svr::Compound</text>
<text text-anchor="middle" x="222" y="-166" font-family="Helvetica,sans-Serif" font-size="10.00" fill="#000000">_reply</text>
</a>
</g>
</g>
<!-- Node2 -->
<g id="node2" class="node">
<title>Node2</title>
<g id="a_node2"><a xlink:href="structL4_1_1Ipc__svr_1_1Default__loop__hooks.html" target="_top" xlink:title="Default LOOP_HOOKS. ">
<polygon fill="#ffffff" stroke="#000000" points="350,-122 350,-152 455,-152 455,-122 350,-122"/>
<text text-anchor="start" x="358" y="-140" font-family="Helvetica,sans-Serif" font-size="10.00" fill="#000000">L4::Ipc_svr::Default</text>
<text text-anchor="middle" x="402.5" y="-129" font-family="Helvetica,sans-Serif" font-size="10.00" fill="#000000">_loop_hooks</text>
</a>
</g>
</g>
<!-- Node285&#45;&gt;Node2 -->
<g id="edge1" class="edge">
<title>Node285&#45;&gt;Node2</title>
<path fill="none" stroke="#191970" d="M293.6107,-159.3208C312.3931,-155.4707 332.3015,-151.3897 349.8873,-147.7849"/>
<polygon fill="#191970" stroke="#191970" points="292.7065,-155.9333 283.613,-161.3702 294.1122,-162.7907 292.7065,-155.9333"/>
</g>
<!-- Node5 -->
<g id="node3" class="node">
<title>Node5</title>
<g id="a_node3"><a xlink:href="structL4Re_1_1Util_1_1Br__manager__hooks.html" target="_top" xlink:title="Predefined server&#45;loop hooks for a server loop using the Br_manager. ">
<polygon fill="#ffffff" stroke="#000000" points="340,-183 340,-213 465,-213 465,-183 340,-183"/>
<text text-anchor="start" x="348" y="-201" font-family="Helvetica,sans-Serif" font-size="10.00" fill="#000000">L4Re::Util::Br_manager</text>
<text text-anchor="middle" x="402.5" y="-190" font-family="Helvetica,sans-Serif" font-size="10.00" fill="#000000">_hooks</text>
</a>
</g>
</g>
<!-- Node285&#45;&gt;Node5 -->
<g id="edge2" class="edge">
<title>Node285&#45;&gt;Node5</title>
<path fill="none" stroke="#191970" d="M293.5603,-183.5149C308.8923,-185.5535 324.977,-187.6922 339.9377,-189.6815"/>
<polygon fill="#191970" stroke="#191970" points="293.9871,-180.041 283.613,-182.1923 293.0644,-186.9799 293.9871,-180.041"/>
</g>
<!-- Node283 -->
<g id="node4" class="node">
<title>Node283</title>
<g id="a_node4"><a xlink:href="structL4_1_1Ipc__svr_1_1Default__timeout.html" target="_top" xlink:title="Mix in for LOOP_HOOKS to use a 0 send and a infinite receive timeout. ">
<polygon fill="#ffffff" stroke="#000000" points="169.5,-208 169.5,-238 274.5,-238 274.5,-208 169.5,-208"/>
<text text-anchor="start" x="177.5" y="-226" font-family="Helvetica,sans-Serif" font-size="10.00" fill="#000000">L4::Ipc_svr::Default</text>
<text text-anchor="middle" x="222" y="-215" font-family="Helvetica,sans-Serif" font-size="10.00" fill="#000000">_timeout</text>
</a>
</g>
</g>
<!-- Node283&#45;&gt;Node2 -->
<g id="edge3" class="edge">
<title>Node283&#45;&gt;Node2</title>
<path fill="none" stroke="#191970" d="M284.4244,-207.0421C291.1492,-204.6439 297.7956,-201.9654 304,-199 321.5753,-190.5997 323.608,-184.5242 340,-174 351.6719,-166.5063 364.8528,-158.6211 376.0908,-152.0645"/>
<polygon fill="#191970" stroke="#191970" points="282.9232,-203.8541 274.558,-210.3559 285.152,-210.4898 282.9232,-203.8541"/>
</g>
<!-- Node283&#45;&gt;Node5 -->
<g id="edge4" class="edge">
<title>Node283&#45;&gt;Node5</title>
<path fill="none" stroke="#191970" d="M284.9593,-214.2799C302.7417,-211.8169 322.0845,-209.1379 339.8487,-206.6775"/>
<polygon fill="#191970" stroke="#191970" points="284.1185,-210.8628 274.6933,-215.7018 285.0789,-217.7966 284.1185,-210.8628"/>
</g>
<!-- Node279 -->
<g id="node5" class="node">
<title>Node279</title>
<g id="a_node5"><a xlink:href="structL4_1_1Ipc__svr_1_1Ignore__errors.html" target="_top" xlink:title="Mix in for LOOP_HOOKS to ignore IPC errors. ">
<polygon fill="#ffffff" stroke="#000000" points="170.5,-61 170.5,-91 273.5,-91 273.5,-61 170.5,-61"/>
<text text-anchor="start" x="178.5" y="-79" font-family="Helvetica,sans-Serif" font-size="10.00" fill="#000000">L4::Ipc_svr::Ignore</text>
<text text-anchor="middle" x="222" y="-68" font-family="Helvetica,sans-Serif" font-size="10.00" fill="#000000">_errors</text>
</a>
</g>
</g>
<!-- Node279&#45;&gt;Node2 -->
<g id="edge5" class="edge">
<title>Node279&#45;&gt;Node2</title>
<path fill="none" stroke="#191970" d="M283.7831,-93.5453C290.6272,-95.6484 297.4768,-97.8236 304,-100 324.1009,-106.7065 346.2096,-114.9322 364.3793,-121.9232"/>
<polygon fill="#191970" stroke="#191970" points="284.3836,-90.0704 273.7985,-90.524 282.3562,-96.7703 284.3836,-90.0704"/>
</g>
<!-- Node279&#45;&gt;Node5 -->
<g id="edge6" class="edge">
<title>Node279&#45;&gt;Node5</title>
<path fill="none" stroke="#191970" d="M283.3181,-88.2797C290.7163,-91.3539 297.8262,-95.1967 304,-100 328.8463,-119.3306 317.7552,-138.7249 340,-161 348.6429,-169.6547 359.7092,-177.0628 370.1216,-182.9265"/>
<polygon fill="#191970" stroke="#191970" points="284.4348,-84.9612 273.8415,-84.7824 282.0112,-91.5282 284.4348,-84.9612"/>
</g>
<!-- Node7 -->
<g id="node6" class="node">
<title>Node7</title>
<g id="a_node6"><a xlink:href="structL4Re_1_1Util_1_1Br__manager__timeout__hooks.html" target="_top" xlink:title="Predefined server&#45;loop hooks for a server with using the Br_manager and a timeout queue...">
<polygon fill="#ffffff" stroke="#000000" points="340,-34 340,-64 465,-64 465,-34 340,-34"/>
<text text-anchor="start" x="348" y="-52" font-family="Helvetica,sans-Serif" font-size="10.00" fill="#000000">L4Re::Util::Br_manager</text>
<text text-anchor="middle" x="402.5" y="-41" font-family="Helvetica,sans-Serif" font-size="10.00" fill="#000000">_timeout_hooks</text>
</a>
</g>
</g>
<!-- Node279&#45;&gt;Node7 -->
<g id="edge7" class="edge">
<title>Node279&#45;&gt;Node7</title>
<path fill="none" stroke="#191970" d="M283.8656,-66.7459C301.9564,-64.0398 321.7412,-61.0803 339.8784,-58.3672"/>
<polygon fill="#191970" stroke="#191970" points="283.0962,-63.3219 273.7241,-68.2629 284.1318,-70.2449 283.0962,-63.3219"/>
</g>
<!-- Node0 -->
<g id="node7" class="node">
<title>Node0</title>
<g id="a_node7"><a xlink:href="classL4_1_1Ipc__svr_1_1Server__iface.html" target="_top" xlink:title="Interface for server&#45;loop related functions. ">
<polygon fill="#ffffff" stroke="#000000" points="0,-181 0,-211 104,-211 104,-181 0,-181"/>
<text text-anchor="start" x="8" y="-199" font-family="Helvetica,sans-Serif" font-size="10.00" fill="#000000">L4::Ipc_svr::Server</text>
<text text-anchor="middle" x="52" y="-188" font-family="Helvetica,sans-Serif" font-size="10.00" fill="#000000">_iface</text>
</a>
</g>
</g>
<!-- Node1 -->
<g id="node8" class="node">
<title>Node1</title>
<g id="a_node8"><a xlink:href="classL4_1_1Ipc__svr_1_1Br__manager__no__buffers.html" target="_top" xlink:title="Empty implementation of Server_iface. ">
<polygon fill="#ffffff" stroke="#000000" points="156.5,-110 156.5,-140 287.5,-140 287.5,-110 156.5,-110"/>
<text text-anchor="start" x="164.5" y="-128" font-family="Helvetica,sans-Serif" font-size="10.00" fill="#000000">L4::Ipc_svr::Br_manager</text>
<text text-anchor="middle" x="222" y="-117" font-family="Helvetica,sans-Serif" font-size="10.00" fill="#000000">_no_buffers</text>
</a>
</g>
</g>
<!-- Node0&#45;&gt;Node1 -->
<g id="edge8" class="edge">
<title>Node0&#45;&gt;Node1</title>
<path fill="none" stroke="#191970" d="M86.8875,-175.8538C102.7659,-167.1866 121.9973,-157.3747 140,-150 148.8143,-146.3893 158.3464,-143.0214 167.6865,-140.0006"/>
<polygon fill="#191970" stroke="#191970" points="85.013,-172.8909 77.9606,-180.7975 88.4043,-179.0146 85.013,-172.8909"/>
</g>
<!-- Node3 -->
<g id="node9" class="node">
<title>Node3</title>
<g id="a_node9"><a xlink:href="classL4_1_1Ipc__svr_1_1Timeout__queue__hooks.html" target="_top" xlink:title="Loop hooks mixin for integrating a timeout queue into the server loop. ">
<polygon fill="#ffffff" stroke="#000000" points="155,-295.5 155,-336.5 289,-336.5 289,-295.5 155,-295.5"/>
<text text-anchor="start" x="163" y="-324.5" font-family="Helvetica,sans-Serif" font-size="10.00" fill="#000000">L4::Ipc_svr::Timeout</text>
<text text-anchor="start" x="163" y="-313.5" font-family="Helvetica,sans-Serif" font-size="10.00" fill="#000000">_queue_hooks&lt; HOOKS,</text>
<text text-anchor="middle" x="222" y="-302.5" font-family="Helvetica,sans-Serif" font-size="10.00" fill="#000000"> BR_MAN &gt;</text>
</a>
</g>
</g>
<!-- Node0&#45;&gt;Node3 -->
<g id="edge10" class="edge">
<title>Node0&#45;&gt;Node3</title>
<path fill="none" stroke="#191970" d="M69.5953,-219.1224C85.9271,-239.204 111.8947,-267.8391 140,-286 145.3475,-289.4554 151.1475,-292.5845 157.1076,-295.4014"/>
<polygon fill="#191970" stroke="#191970" points="72.1731,-216.7408 63.2078,-211.0951 66.6956,-221.0994 72.1731,-216.7408"/>
</g>
<!-- Node4 -->
<g id="node10" class="node">
<title>Node4</title>
<g id="a_node10"><a xlink:href="classL4Re_1_1Util_1_1Br__manager.html" target="_top" xlink:title="Buffer&#45;register (BR) manager for L4::Server. ">
<polygon fill="#ffffff" stroke="#000000" points="159.5,-257.5 159.5,-276.5 284.5,-276.5 284.5,-257.5 159.5,-257.5"/>
<text text-anchor="middle" x="222" y="-264.5" font-family="Helvetica,sans-Serif" font-size="10.00" fill="#000000">L4Re::Util::Br_manager</text>
</a>
</g>
</g>
<!-- Node0&#45;&gt;Node4 -->
<g id="edge11" class="edge">
<title>Node0&#45;&gt;Node4</title>
<path fill="none" stroke="#191970" d="M82.0926,-216.9069C98.5647,-227.5311 119.7046,-239.8773 140,-248 149.3613,-251.7466 159.6333,-254.8538 169.645,-257.3942"/>
<polygon fill="#191970" stroke="#191970" points="83.7333,-213.7966 73.4566,-211.2195 79.8832,-219.6427 83.7333,-213.7966"/>
</g>
<!-- Node6 -->
<g id="node11" class="node">
<title>Node6</title>
<g id="a_node11"><a xlink:href="classL4_1_1Ipc__svr_1_1Timeout__queue__hooks.html" target="_top" xlink:title="L4::Ipc_svr::Timeout\l_queue_hooks\&lt; Br_manager\l_timeout_hooks, Br_manager \&gt;">
<polygon fill="#ffffff" stroke="#000000" points="140,-.5 140,-41.5 304,-41.5 304,-.5 140,-.5"/>
<text text-anchor="start" x="148" y="-29.5" font-family="Helvetica,sans-Serif" font-size="10.00" fill="#000000">L4::Ipc_svr::Timeout</text>
<text text-anchor="start" x="148" y="-18.5" font-family="Helvetica,sans-Serif" font-size="10.00" fill="#000000">_queue_hooks&lt; Br_manager</text>
<text text-anchor="middle" x="222" y="-7.5" font-family="Helvetica,sans-Serif" font-size="10.00" fill="#000000">_timeout_hooks, Br_manager &gt;</text>
</a>
</g>
</g>
<!-- Node0&#45;&gt;Node6 -->
<g id="edge13" class="edge">
<title>Node0&#45;&gt;Node6</title>
<path fill="none" stroke="#191970" d="M60.8867,-171.4952C73.6696,-139.5013 100.1789,-83.7338 140,-51 144.2157,-47.5346 148.8673,-44.4506 153.7489,-41.7092"/>
<polygon fill="#191970" stroke="#191970" points="57.5582,-170.3987 57.2193,-180.9881 64.0879,-172.9214 57.5582,-170.3987"/>
</g>
<!-- Node1&#45;&gt;Node2 -->
<g id="edge9" class="edge">
<title>Node1&#45;&gt;Node2</title>
<path fill="none" stroke="#191970" d="M297.8733,-130.0442C315.374,-131.2077 333.615,-132.4204 349.8722,-133.5012"/>
<polygon fill="#191970" stroke="#191970" points="297.8854,-126.5374 287.6752,-129.3662 297.421,-133.522 297.8854,-126.5374"/>
</g>
<!-- Node4&#45;&gt;Node5 -->
<g id="edge12" class="edge">
<title>Node4&#45;&gt;Node5</title>
<path fill="none" stroke="#191970" d="M281.8599,-254.9145C289.3951,-252.873 296.9335,-250.5691 304,-248 329.7737,-238.6297 357.488,-224.1264 376.9328,-213.1485"/>
<polygon fill="#191970" stroke="#191970" points="280.8112,-251.5702 271.996,-257.4475 282.5523,-258.3502 280.8112,-251.5702"/>
</g>
<!-- Node6&#45;&gt;Node7 -->
<g id="edge14" class="edge">
<title>Node6&#45;&gt;Node7</title>
<path fill="none" stroke="#191970" d="M314.2271,-35.3067C322.8917,-36.6508 331.5321,-37.9911 339.8285,-39.2781"/>
<polygon fill="#191970" stroke="#191970" points="314.4818,-31.8044 304.0635,-33.7301 313.4087,-38.7217 314.4818,-31.8044"/>
</g>
</g>
</svg>
