<?xml version="1.0" encoding="UTF-8" standalone="no"?>
<!DOCTYPE svg PUBLIC "-//W3C//DTD SVG 1.1//EN"
 "http://www.w3.org/Graphics/SVG/1.1/DTD/svg11.dtd">
<!-- Generated by graphviz version 2.40.1 (20161225.0304)
 -->
<!-- Title: Graphical Class Hierarchy Pages: 1 -->
<svg width="364pt" height="61pt"
 viewBox="0.00 0.00 364.00 61.00" xmlns="http://www.w3.org/2000/svg" xmlns:xlink="http://www.w3.org/1999/xlink">
<g id="graph0" class="graph" transform="scale(1 1) rotate(0) translate(4 57)">
<title>Graphical Class Hierarchy</title>
<polygon fill="#ffffff" stroke="transparent" points="-4,4 -4,-57 360,-57 360,4 -4,4"/>
<!-- Node0 -->
<g id="node1" class="node">
<title>Node0</title>
<g id="a_node1"><a xlink:href="classcxx_1_1Bits_1_1Base__avl__set.html" target="_top" xlink:title="cxx::Bits::Base_avl\l_set\&lt; ITEM_TYPE, COMPARE,\l ALLOC, Bits::Avl_set_get\l_key\&lt; ITEM_TYPE \&gt; \&gt;">
<polygon fill="#ffffff" stroke="#000000" points="0,-.5 0,-52.5 164,-52.5 164,-.5 0,-.5"/>
<text text-anchor="start" x="8" y="-40.5" font-family="Helvetica,sans-Serif" font-size="10.00" fill="#000000">cxx::Bits::Base_avl</text>
<text text-anchor="start" x="8" y="-29.5" font-family="Helvetica,sans-Serif" font-size="10.00" fill="#000000">_set&lt; ITEM_TYPE, COMPARE,</text>
<text text-anchor="start" x="8" y="-18.5" font-family="Helvetica,sans-Serif" font-size="10.00" fill="#000000"> ALLOC, Bits::Avl_set_get</text>
<text text-anchor="middle" x="82" y="-7.5" font-family="Helvetica,sans-Serif" font-size="10.00" fill="#000000">_key&lt; ITEM_TYPE &gt; &gt;</text>
</a>
</g>
</g>
<!-- Node1 -->
<g id="node2" class="node">
<title>Node1</title>
<g id="a_node2"><a xlink:href="classcxx_1_1Avl__set.html" target="_top" xlink:title="AVL set for simple compareable items. ">
<polygon fill="#ffffff" stroke="#000000" points="200,-11.5 200,-41.5 356,-41.5 356,-11.5 200,-11.5"/>
<text text-anchor="start" x="208" y="-29.5" font-family="Helvetica,sans-Serif" font-size="10.00" fill="#000000">cxx::Avl_set&lt; ITEM</text>
<text text-anchor="middle" x="278" y="-18.5" font-family="Helvetica,sans-Serif" font-size="10.00" fill="#000000">_TYPE, COMPARE, ALLOC &gt;</text>
</a>
</g>
</g>
<!-- Node0&#45;&gt;Node1 -->
<g id="edge1" class="edge">
<title>Node0&#45;&gt;Node1</title>
<path fill="none" stroke="#191970" d="M174.5052,-26.5C182.9324,-26.5 191.4139,-26.5 199.6994,-26.5"/>
<polygon fill="#191970" stroke="#191970" points="174.2698,-23.0001 164.2697,-26.5 174.2697,-30.0001 174.2698,-23.0001"/>
</g>
</g>
</svg>
