<?xml version="1.0" encoding="UTF-8" standalone="no"?>
<!DOCTYPE svg PUBLIC "-//W3C//DTD SVG 1.1//EN"
 "http://www.w3.org/Graphics/SVG/1.1/DTD/svg11.dtd">
<!-- Generated by graphviz version 2.40.1 (20161225.0304)
 -->
<!-- Title: Graphical Class Hierarchy Pages: 1 -->
<svg width="301pt" height="50pt"
 viewBox="0.00 0.00 301.00 50.00" xmlns="http://www.w3.org/2000/svg" xmlns:xlink="http://www.w3.org/1999/xlink">
<g id="graph0" class="graph" transform="scale(1 1) rotate(0) translate(4 46)">
<title>Graphical Class Hierarchy</title>
<polygon fill="#ffffff" stroke="transparent" points="-4,4 -4,-46 297,-46 297,4 -4,4"/>
<!-- Node0 -->
<g id="node1" class="node">
<title>Node0</title>
<g id="a_node1"><a xlink:href="classcxx_1_1Bits_1_1Basic__list.html" target="_top" xlink:title="cxx::Bits::Basic_list\l\&lt; Bits::Basic_list_policy\l\&lt; Timeout, H_list_item \&gt; \&gt;">
<polygon fill="#ffffff" stroke="#000000" points="0,-.5 0,-41.5 138,-41.5 138,-.5 0,-.5"/>
<text text-anchor="start" x="8" y="-29.5" font-family="Helvetica,sans-Serif" font-size="10.00" fill="#000000">cxx::Bits::Basic_list</text>
<text text-anchor="start" x="8" y="-18.5" font-family="Helvetica,sans-Serif" font-size="10.00" fill="#000000">&lt; Bits::Basic_list_policy</text>
<text text-anchor="middle" x="69" y="-7.5" font-family="Helvetica,sans-Serif" font-size="10.00" fill="#000000">&lt; Timeout, H_list_item &gt; &gt;</text>
</a>
</g>
</g>
<!-- Node1 -->
<g id="node2" class="node">
<title>Node1</title>
<g id="a_node2"><a xlink:href="classcxx_1_1H__list.html" target="_top" xlink:title="cxx::H_list\&lt; Timeout \&gt;">
<polygon fill="#ffffff" stroke="#000000" points="174,-11.5 174,-30.5 293,-30.5 293,-11.5 174,-11.5"/>
<text text-anchor="middle" x="233.5" y="-18.5" font-family="Helvetica,sans-Serif" font-size="10.00" fill="#000000">cxx::H_list&lt; Timeout &gt;</text>
</a>
</g>
</g>
<!-- Node0&#45;&gt;Node1 -->
<g id="edge1" class="edge">
<title>Node0&#45;&gt;Node1</title>
<path fill="none" stroke="#191970" d="M148.3525,-21C156.9635,-21 165.6169,-21 173.9346,-21"/>
<polygon fill="#191970" stroke="#191970" points="148.2861,-17.5001 138.286,-21 148.286,-24.5001 148.2861,-17.5001"/>
</g>
</g>
</svg>
