<?xml version="1.0" encoding="UTF-8" standalone="no"?>
<!DOCTYPE svg PUBLIC "-//W3C//DTD SVG 1.1//EN"
 "http://www.w3.org/Graphics/SVG/1.1/DTD/svg11.dtd">
<!-- Generated by graphviz version 2.40.1 (20161225.0304)
 -->
<!-- Title: Graphical Class Hierarchy Pages: 1 -->
<svg width="384pt" height="142pt"
 viewBox="0.00 0.00 384.00 142.00" xmlns="http://www.w3.org/2000/svg" xmlns:xlink="http://www.w3.org/1999/xlink">
<g id="graph0" class="graph" transform="scale(1 1) rotate(0) translate(4 138)">
<title>Graphical Class Hierarchy</title>
<polygon fill="#ffffff" stroke="transparent" points="-4,4 -4,-138 380,-138 380,4 -4,4"/>
<!-- Node94 -->
<g id="node1" class="node">
<title>Node94</title>
<g id="a_node1"><a xlink:href="classL4Re_1_1Vfs_1_1Directory.html" target="_top" xlink:title="Interface for a POSIX file that is a directory. ">
<polygon fill="#ffffff" stroke="#000000" points="7,-114.5 7,-133.5 116,-133.5 116,-114.5 7,-114.5"/>
<text text-anchor="middle" x="61.5" y="-121.5" font-family="Helvetica,sans-Serif" font-size="10.00" fill="#000000">L4Re::Vfs::Directory</text>
</a>
</g>
</g>
<!-- Node1 -->
<g id="node2" class="node">
<title>Node1</title>
<g id="a_node2"><a xlink:href="classL4Re_1_1Vfs_1_1File.html" target="_top" xlink:title="The basic interface for an open POSIX file. ">
<polygon fill="#ffffff" stroke="#000000" points="159,-57.5 159,-76.5 242,-76.5 242,-57.5 159,-57.5"/>
<text text-anchor="middle" x="200.5" y="-64.5" font-family="Helvetica,sans-Serif" font-size="10.00" fill="#000000">L4Re::Vfs::File</text>
</a>
</g>
</g>
<!-- Node94&#45;&gt;Node1 -->
<g id="edge1" class="edge">
<title>Node94&#45;&gt;Node1</title>
<path fill="none" stroke="#191970" d="M105.5302,-111.3163C111.4533,-109.3431 117.4104,-107.218 123,-105 144.1716,-96.5988 167.5237,-84.7775 183.0031,-76.5593"/>
<polygon fill="#191970" stroke="#191970" points="104.1165,-108.0941 95.6649,-114.4833 106.2562,-114.7591 104.1165,-108.0941"/>
</g>
<!-- Node2 -->
<g id="node3" class="node">
<title>Node2</title>
<g id="a_node3"><a xlink:href="classL4Re_1_1Vfs_1_1Be__file.html" target="_top" xlink:title="Boiler plate class for implementing an open file for L4Re::Vfs. ">
<polygon fill="#ffffff" stroke="#000000" points="278,-57.5 278,-76.5 376,-76.5 376,-57.5 278,-57.5"/>
<text text-anchor="middle" x="327" y="-64.5" font-family="Helvetica,sans-Serif" font-size="10.00" fill="#000000">L4Re::Vfs::Be_file</text>
</a>
</g>
</g>
<!-- Node1&#45;&gt;Node2 -->
<g id="edge2" class="edge">
<title>Node1&#45;&gt;Node2</title>
<path fill="none" stroke="#191970" d="M252.3535,-67C260.7664,-67 269.4575,-67 277.8046,-67"/>
<polygon fill="#191970" stroke="#191970" points="252.2715,-63.5001 242.2714,-67 252.2714,-70.5001 252.2715,-63.5001"/>
</g>
<!-- Node90 -->
<g id="node4" class="node">
<title>Node90</title>
<g id="a_node4"><a xlink:href="classL4Re_1_1Vfs_1_1Generic__file.html" target="_top" xlink:title="The common interface for an open POSIX file. ">
<polygon fill="#ffffff" stroke="#000000" points="0,-76.5 0,-95.5 123,-95.5 123,-76.5 0,-76.5"/>
<text text-anchor="middle" x="61.5" y="-83.5" font-family="Helvetica,sans-Serif" font-size="10.00" fill="#000000">L4Re::Vfs::Generic_file</text>
</a>
</g>
</g>
<!-- Node90&#45;&gt;Node1 -->
<g id="edge3" class="edge">
<title>Node90&#45;&gt;Node1</title>
<path fill="none" stroke="#191970" d="M133.1904,-76.2006C141.98,-74.9991 150.7228,-73.8041 158.8557,-72.6924"/>
<polygon fill="#191970" stroke="#191970" points="132.7107,-72.7335 123.2769,-77.5557 133.6588,-79.669 132.7107,-72.7335"/>
</g>
<!-- Node87 -->
<g id="node5" class="node">
<title>Node87</title>
<g id="a_node5"><a xlink:href="classL4Re_1_1Vfs_1_1Regular__file.html" target="_top" xlink:title="Interface for a POSIX file that provides regular file semantics. ">
<polygon fill="#ffffff" stroke="#000000" points=".5,-38.5 .5,-57.5 122.5,-57.5 122.5,-38.5 .5,-38.5"/>
<text text-anchor="middle" x="61.5" y="-45.5" font-family="Helvetica,sans-Serif" font-size="10.00" fill="#000000">L4Re::Vfs::Regular_file</text>
</a>
</g>
</g>
<!-- Node87&#45;&gt;Node1 -->
<g id="edge4" class="edge">
<title>Node87&#45;&gt;Node1</title>
<path fill="none" stroke="#191970" d="M132.8195,-57.7487C141.6422,-58.9547 150.4258,-60.1553 158.601,-61.2728"/>
<polygon fill="#191970" stroke="#191970" points="133.2539,-54.2756 122.872,-56.389 132.3059,-61.2111 133.2539,-54.2756"/>
</g>
<!-- Node0 -->
<g id="node6" class="node">
<title>Node0</title>
<g id="a_node6"><a xlink:href="classL4Re_1_1Vfs_1_1Special__file.html" target="_top" xlink:title="Interface for a POSIX file that provides special file semantics. ">
<polygon fill="#ffffff" stroke="#000000" points="1.5,-.5 1.5,-19.5 121.5,-19.5 121.5,-.5 1.5,-.5"/>
<text text-anchor="middle" x="61.5" y="-7.5" font-family="Helvetica,sans-Serif" font-size="10.00" fill="#000000">L4Re::Vfs::Special_file</text>
</a>
</g>
</g>
<!-- Node0&#45;&gt;Node1 -->
<g id="edge5" class="edge">
<title>Node0&#45;&gt;Node1</title>
<path fill="none" stroke="#191970" d="M105.5302,-22.6837C111.4533,-24.6569 117.4104,-26.782 123,-29 144.1716,-37.4012 167.5237,-49.2225 183.0031,-57.4407"/>
<polygon fill="#191970" stroke="#191970" points="106.2562,-19.2409 95.6649,-19.5167 104.1165,-25.9059 106.2562,-19.2409"/>
</g>
</g>
</svg>
