<?xml version="1.0" encoding="UTF-8" standalone="no"?>
<!DOCTYPE svg PUBLIC "-//W3C//DTD SVG 1.1//EN"
 "http://www.w3.org/Graphics/SVG/1.1/DTD/svg11.dtd">
<!-- Generated by graphviz version 2.40.1 (20161225.0304)
 -->
<!-- Title: Graphical Class Hierarchy Pages: 1 -->
<svg width="584pt" height="341pt"
 viewBox="0.00 0.00 584.00 340.50" xmlns="http://www.w3.org/2000/svg" xmlns:xlink="http://www.w3.org/1999/xlink">
<g id="graph0" class="graph" transform="scale(1 1) rotate(0) translate(4 336.5)">
<title>Graphical Class Hierarchy</title>
<polygon fill="#ffffff" stroke="transparent" points="-4,4 -4,-336.5 580,-336.5 580,4 -4,4"/>
<!-- Node0 -->
<g id="node1" class="node">
<title>Node0</title>
<g id="a_node1"><a xlink:href="classL4_1_1Type__info_1_1Demand.html" target="_top" xlink:title="Data type for expressing the needed receive buffers at the server&#45;side of an interface. ">
<polygon fill="#ffffff" stroke="#000000" points="0,-109.5 0,-128.5 125,-128.5 125,-109.5 0,-109.5"/>
<text text-anchor="middle" x="62.5" y="-116.5" font-family="Helvetica,sans-Serif" font-size="10.00" fill="#000000">L4::Type_info::Demand</text>
</a>
</g>
</g>
<!-- Node1 -->
<g id="node2" class="node">
<title>Node1</title>
<g id="a_node2"><a xlink:href="structL4_1_1Type__info_1_1Demand__t.html" target="_top" xlink:title="L4::Type_info::Demand\l_t\&lt; __I::Max\&lt; D1::Caps,\l D2::Caps \&gt;::Res, D1::Flags\|\lD2::Flags, __I::Max\&lt; D1::Mem,\l D2::Mem \&gt;::Res, __I::Max\&lt; D1\l::Ports, D2::Ports \&gt;::Res \&gt;">
<polygon fill="#ffffff" stroke="#000000" points="202.5,-258 202.5,-332 363.5,-332 363.5,-258 202.5,-258"/>
<text text-anchor="start" x="210.5" y="-320" font-family="Helvetica,sans-Serif" font-size="10.00" fill="#000000">L4::Type_info::Demand</text>
<text text-anchor="start" x="210.5" y="-309" font-family="Helvetica,sans-Serif" font-size="10.00" fill="#000000">_t&lt; __I::Max&lt; D1::Caps,</text>
<text text-anchor="start" x="210.5" y="-298" font-family="Helvetica,sans-Serif" font-size="10.00" fill="#000000"> D2::Caps &gt;::Res, D1::Flags|</text>
<text text-anchor="start" x="210.5" y="-287" font-family="Helvetica,sans-Serif" font-size="10.00" fill="#000000">D2::Flags, __I::Max&lt; D1::Mem,</text>
<text text-anchor="start" x="210.5" y="-276" font-family="Helvetica,sans-Serif" font-size="10.00" fill="#000000"> D2::Mem &gt;::Res, __I::Max&lt; D1</text>
<text text-anchor="middle" x="283" y="-265" font-family="Helvetica,sans-Serif" font-size="10.00" fill="#000000">::Ports, D2::Ports &gt;::Res &gt;</text>
</a>
</g>
</g>
<!-- Node0&#45;&gt;Node1 -->
<g id="edge1" class="edge">
<title>Node0&#45;&gt;Node1</title>
<path fill="none" stroke="#191970" d="M72.1612,-137.7211C87.4547,-165.6465 119.7799,-218.215 161,-249 173.3327,-258.2106 187.7216,-265.7737 202.2041,-271.9146"/>
<polygon fill="#191970" stroke="#191970" points="75.108,-135.8088 67.3124,-128.6338 68.9321,-139.1041 75.108,-135.8088"/>
</g>
<!-- Node3 -->
<g id="node4" class="node">
<title>Node3</title>
<g id="a_node4"><a xlink:href="structL4_1_1Type__info_1_1Demand__t.html" target="_top" xlink:title="L4::Type_info::Demand\l_t\&lt; __I::Max\&lt; Kobject\l_typeid\&lt; T1 \&gt;::Demand\l ::Caps, Kobject_demand\l\&lt; T2... \&gt; ::Caps \&gt;::Res,\l Kobject_typeid\&lt; T1 \&gt;::Demand\l ::Flags\|Kobject_demand\&lt; T2...\l \&gt; ::Flags, __I::Max\&lt; Kobject\l_typeid\&lt; T1 \&gt;::Demand ::Mem, Kobject\l_demand\&lt; T2... \&gt; ::Mem \&gt;::Res, __I\l::Max\&lt; Kobject_typeid\&lt; T1 \&gt;::Demand\l ::Ports, Kobject_demand\&lt; T2... \&gt; ::Ports \&gt;::Res \&gt;">
<polygon fill="#ffffff" stroke="#000000" points="161,-99 161,-239 405,-239 405,-99 161,-99"/>
<text text-anchor="start" x="169" y="-227" font-family="Helvetica,sans-Serif" font-size="10.00" fill="#000000">L4::Type_info::Demand</text>
<text text-anchor="start" x="169" y="-216" font-family="Helvetica,sans-Serif" font-size="10.00" fill="#000000">_t&lt; __I::Max&lt; Kobject</text>
<text text-anchor="start" x="169" y="-205" font-family="Helvetica,sans-Serif" font-size="10.00" fill="#000000">_typeid&lt; T1 &gt;::Demand</text>
<text text-anchor="start" x="169" y="-194" font-family="Helvetica,sans-Serif" font-size="10.00" fill="#000000"> ::Caps, Kobject_demand</text>
<text text-anchor="start" x="169" y="-183" font-family="Helvetica,sans-Serif" font-size="10.00" fill="#000000">&lt; T2... &gt; ::Caps &gt;::Res,</text>
<text text-anchor="start" x="169" y="-172" font-family="Helvetica,sans-Serif" font-size="10.00" fill="#000000"> Kobject_typeid&lt; T1 &gt;::Demand</text>
<text text-anchor="start" x="169" y="-161" font-family="Helvetica,sans-Serif" font-size="10.00" fill="#000000"> ::Flags|Kobject_demand&lt; T2...</text>
<text text-anchor="start" x="169" y="-150" font-family="Helvetica,sans-Serif" font-size="10.00" fill="#000000"> &gt; ::Flags, __I::Max&lt; Kobject</text>
<text text-anchor="start" x="169" y="-139" font-family="Helvetica,sans-Serif" font-size="10.00" fill="#000000">_typeid&lt; T1 &gt;::Demand ::Mem, Kobject</text>
<text text-anchor="start" x="169" y="-128" font-family="Helvetica,sans-Serif" font-size="10.00" fill="#000000">_demand&lt; T2... &gt; ::Mem &gt;::Res, __I</text>
<text text-anchor="start" x="169" y="-117" font-family="Helvetica,sans-Serif" font-size="10.00" fill="#000000">::Max&lt; Kobject_typeid&lt; T1 &gt;::Demand</text>
<text text-anchor="middle" x="283" y="-106" font-family="Helvetica,sans-Serif" font-size="10.00" fill="#000000"> ::Ports, Kobject_demand&lt; T2... &gt; ::Ports &gt;::Res &gt;</text>
</a>
</g>
</g>
<!-- Node0&#45;&gt;Node3 -->
<g id="edge3" class="edge">
<title>Node0&#45;&gt;Node3</title>
<path fill="none" stroke="#191970" d="M114.4427,-130.7784C128.5699,-133.9818 144.4904,-137.5919 160.7634,-141.2819"/>
<polygon fill="#191970" stroke="#191970" points="115.0198,-127.3205 104.4934,-128.5223 113.4718,-134.1472 115.0198,-127.3205"/>
</g>
<!-- Node5 -->
<g id="node6" class="node">
<title>Node5</title>
<g id="a_node6"><a xlink:href="structL4_1_1Type__info_1_1Demand__t.html" target="_top" xlink:title="L4::Type_info::Demand_t\&lt;\&gt;">
<polygon fill="#ffffff" stroke="#000000" points="210,-60.5 210,-79.5 356,-79.5 356,-60.5 210,-60.5"/>
<text text-anchor="middle" x="283" y="-67.5" font-family="Helvetica,sans-Serif" font-size="10.00" fill="#000000">L4::Type_info::Demand_t&lt;&gt;</text>
</a>
</g>
</g>
<!-- Node0&#45;&gt;Node5 -->
<g id="edge5" class="edge">
<title>Node0&#45;&gt;Node5</title>
<path fill="none" stroke="#191970" d="M99.9198,-106.2418C118.1784,-100.3673 140.5633,-93.679 161,-89 176.9849,-85.3403 194.3106,-82.1712 210.7485,-79.5262"/>
<polygon fill="#191970" stroke="#191970" points="98.6582,-102.9718 90.2391,-109.4038 100.8317,-109.6259 98.6582,-102.9718"/>
</g>
<!-- Node6 -->
<g id="node7" class="node">
<title>Node6</title>
<g id="a_node7"><a xlink:href="structL4_1_1Type__info_1_1Demand__t.html" target="_top" xlink:title="Template type statically describing demand of receive buffers. ">
<polygon fill="#ffffff" stroke="#000000" points="216,-.5 216,-41.5 350,-41.5 350,-.5 216,-.5"/>
<text text-anchor="start" x="224" y="-29.5" font-family="Helvetica,sans-Serif" font-size="10.00" fill="#000000">L4::Type_info::Demand</text>
<text text-anchor="start" x="224" y="-18.5" font-family="Helvetica,sans-Serif" font-size="10.00" fill="#000000">_t&lt; CAPS, FLAGS, MEM,</text>
<text text-anchor="middle" x="283" y="-7.5" font-family="Helvetica,sans-Serif" font-size="10.00" fill="#000000"> PORTS &gt;</text>
</a>
</g>
</g>
<!-- Node0&#45;&gt;Node6 -->
<g id="edge6" class="edge">
<title>Node0&#45;&gt;Node6</title>
<path fill="none" stroke="#191970" d="M81.3389,-102.8586C100.2858,-87.4142 130.9253,-64.527 161,-51 178.1072,-43.3056 197.4886,-37.3952 215.6858,-32.9386"/>
<polygon fill="#191970" stroke="#191970" points="78.9557,-100.2882 73.5003,-109.3706 83.4289,-105.6725 78.9557,-100.2882"/>
</g>
<!-- Node2 -->
<g id="node3" class="node">
<title>Node2</title>
<g id="a_node3"><a xlink:href="structL4_1_1Type__info_1_1Demand__union__t.html" target="_top" xlink:title="Template type statically describing the combination of two Demand object. ">
<polygon fill="#ffffff" stroke="#000000" points="446,-280 446,-310 571,-310 571,-280 446,-280"/>
<text text-anchor="start" x="454" y="-298" font-family="Helvetica,sans-Serif" font-size="10.00" fill="#000000">L4::Type_info::Demand</text>
<text text-anchor="middle" x="508.5" y="-287" font-family="Helvetica,sans-Serif" font-size="10.00" fill="#000000">_union_t&lt; D1, D2 &gt;</text>
</a>
</g>
</g>
<!-- Node1&#45;&gt;Node2 -->
<g id="edge2" class="edge">
<title>Node1&#45;&gt;Node2</title>
<path fill="none" stroke="#191970" d="M374.0273,-295C398.1815,-295 423.7181,-295 445.9734,-295"/>
<polygon fill="#191970" stroke="#191970" points="373.7738,-291.5001 363.7737,-295 373.7737,-298.5001 373.7738,-291.5001"/>
</g>
<!-- Node4 -->
<g id="node5" class="node">
<title>Node4</title>
<g id="a_node5"><a xlink:href="structL4_1_1Type__info_1_1Demand__union__t.html" target="_top" xlink:title="L4::Type_info::Demand\l_union_t\&lt; Kobject_typeid\l\&lt; T1 \&gt;::Demand, Kobject\l_demand\&lt; T2... \&gt; \&gt;">
<polygon fill="#ffffff" stroke="#000000" points="441,-143 441,-195 576,-195 576,-143 441,-143"/>
<text text-anchor="start" x="449" y="-183" font-family="Helvetica,sans-Serif" font-size="10.00" fill="#000000">L4::Type_info::Demand</text>
<text text-anchor="start" x="449" y="-172" font-family="Helvetica,sans-Serif" font-size="10.00" fill="#000000">_union_t&lt; Kobject_typeid</text>
<text text-anchor="start" x="449" y="-161" font-family="Helvetica,sans-Serif" font-size="10.00" fill="#000000">&lt; T1 &gt;::Demand, Kobject</text>
<text text-anchor="middle" x="508.5" y="-150" font-family="Helvetica,sans-Serif" font-size="10.00" fill="#000000">_demand&lt; T2... &gt; &gt;</text>
</a>
</g>
</g>
<!-- Node3&#45;&gt;Node4 -->
<g id="edge4" class="edge">
<title>Node3&#45;&gt;Node4</title>
<path fill="none" stroke="#191970" d="M415.5789,-169C424.2662,-169 432.7914,-169 440.9392,-169"/>
<polygon fill="#191970" stroke="#191970" points="415.3191,-165.5001 405.3191,-169 415.3191,-172.5001 415.3191,-165.5001"/>
</g>
</g>
</svg>
