<?xml version="1.0" encoding="UTF-8" standalone="no"?>
<!DOCTYPE svg PUBLIC "-//W3C//DTD SVG 1.1//EN"
 "http://www.w3.org/Graphics/SVG/1.1/DTD/svg11.dtd">
<!-- Generated by graphviz version 2.40.1 (20161225.0304)
 -->
<!-- Title: Graphical Class Hierarchy Pages: 1 -->
<svg width="279pt" height="78pt"
 viewBox="0.00 0.00 279.00 77.50" xmlns="http://www.w3.org/2000/svg" xmlns:xlink="http://www.w3.org/1999/xlink">
<g id="graph0" class="graph" transform="scale(1 1) rotate(0) translate(4 73.5)">
<title>Graphical Class Hierarchy</title>
<polygon fill="#ffffff" stroke="transparent" points="-4,4 -4,-73.5 275,-73.5 275,4 -4,4"/>
<!-- Node0 -->
<g id="node1" class="node">
<title>Node0</title>
<g id="a_node1"><a xlink:href="classcxx_1_1List__item_1_1Iter.html" target="_top" xlink:title="Iterator for a list of ListItem&#45;s. ">
<polygon fill="#ffffff" stroke="#000000" points="0,-22.5 0,-41.5 99,-41.5 99,-22.5 0,-22.5"/>
<text text-anchor="middle" x="49.5" y="-29.5" font-family="Helvetica,sans-Serif" font-size="10.00" fill="#000000">cxx::List_item::Iter</text>
</a>
</g>
</g>
<!-- Node1 -->
<g id="node2" class="node">
<title>Node1</title>
<g id="a_node2"><a xlink:href="classcxx_1_1List__item_1_1T__iter.html" target="_top" xlink:title="Iterator for derived classes from ListItem. ">
<polygon fill="#ffffff" stroke="#000000" points="147.5,-39 147.5,-69 258.5,-69 258.5,-39 147.5,-39"/>
<text text-anchor="start" x="155.5" y="-57" font-family="Helvetica,sans-Serif" font-size="10.00" fill="#000000">cxx::List_item::T_iter</text>
<text text-anchor="middle" x="203" y="-46" font-family="Helvetica,sans-Serif" font-size="10.00" fill="#000000">&lt; T, Poly &gt;</text>
</a>
</g>
</g>
<!-- Node0&#45;&gt;Node1 -->
<g id="edge1" class="edge">
<title>Node0&#45;&gt;Node1</title>
<path fill="none" stroke="#191970" d="M109.5953,-40.613C122.0149,-42.393 135.0458,-44.2606 147.3006,-46.017"/>
<polygon fill="#191970" stroke="#191970" points="109.7325,-37.097 99.3371,-39.1428 108.7393,-44.0262 109.7325,-37.097"/>
</g>
<!-- Node2 -->
<g id="node3" class="node">
<title>Node2</title>
<g id="a_node3"><a xlink:href="classcxx_1_1List__item_1_1T__iter.html" target="_top" xlink:title="cxx::List_item::T_iter\&lt; E \&gt;">
<polygon fill="#ffffff" stroke="#000000" points="135,-.5 135,-19.5 271,-19.5 271,-.5 135,-.5"/>
<text text-anchor="middle" x="203" y="-7.5" font-family="Helvetica,sans-Serif" font-size="10.00" fill="#000000">cxx::List_item::T_iter&lt; E &gt;</text>
</a>
</g>
</g>
<!-- Node0&#45;&gt;Node2 -->
<g id="edge2" class="edge">
<title>Node0&#45;&gt;Node2</title>
<path fill="none" stroke="#191970" d="M109.2973,-23.4297C118.2664,-22.1442 127.5605,-20.8122 136.656,-19.5086"/>
<polygon fill="#191970" stroke="#191970" points="108.7393,-19.9738 99.3371,-24.8572 109.7325,-26.903 108.7393,-19.9738"/>
</g>
</g>
</svg>
