<?xml version="1.0" encoding="UTF-8" standalone="no"?>
<!DOCTYPE svg PUBLIC "-//W3C//DTD SVG 1.1//EN"
 "http://www.w3.org/Graphics/SVG/1.1/DTD/svg11.dtd">
<!-- Generated by graphviz version 2.40.1 (20161225.0304)
 -->
<!-- Title: Graphical Class Hierarchy Pages: 1 -->
<svg width="277pt" height="66pt"
 viewBox="0.00 0.00 277.00 66.00" xmlns="http://www.w3.org/2000/svg" xmlns:xlink="http://www.w3.org/1999/xlink">
<g id="graph0" class="graph" transform="scale(1 1) rotate(0) translate(4 62)">
<title>Graphical Class Hierarchy</title>
<polygon fill="#ffffff" stroke="transparent" points="-4,4 -4,-62 273,-62 273,4 -4,4"/>
<!-- Node0 -->
<g id="node1" class="node">
<title>Node0</title>
<g id="a_node1"><a xlink:href="classL4virtio_1_1Virtqueue.html" target="_top" xlink:title="Low&#45;level Virtqueue. ">
<polygon fill="#ffffff" stroke="#000000" points="0,-19.5 0,-38.5 100,-38.5 100,-19.5 0,-19.5"/>
<text text-anchor="middle" x="50" y="-26.5" font-family="Helvetica,sans-Serif" font-size="10.00" fill="#000000">L4virtio::Virtqueue</text>
</a>
</g>
</g>
<!-- Node1 -->
<g id="node2" class="node">
<title>Node1</title>
<g id="a_node2"><a xlink:href="classL4virtio_1_1Driver_1_1Virtqueue.html" target="_top" xlink:title="Driver&#45;side implementation of a Virtqueue. ">
<polygon fill="#ffffff" stroke="#000000" points="136,-38.5 136,-57.5 269,-57.5 269,-38.5 136,-38.5"/>
<text text-anchor="middle" x="202.5" y="-45.5" font-family="Helvetica,sans-Serif" font-size="10.00" fill="#000000">L4virtio::Driver::Virtqueue</text>
</a>
</g>
</g>
<!-- Node0&#45;&gt;Node1 -->
<g id="edge1" class="edge">
<title>Node0&#45;&gt;Node1</title>
<path fill="none" stroke="#191970" d="M110.4022,-36.5255C118.7695,-37.568 127.4031,-38.6437 135.8756,-39.6993"/>
<polygon fill="#191970" stroke="#191970" points="110.7129,-33.0372 100.3568,-35.274 109.8474,-39.9835 110.7129,-33.0372"/>
</g>
<!-- Node2 -->
<g id="node3" class="node">
<title>Node2</title>
<g id="a_node3"><a xlink:href="classL4virtio_1_1Svr_1_1Virtqueue.html" target="_top" xlink:title="Virtqueue implementation for the device. ">
<polygon fill="#ffffff" stroke="#000000" points="142.5,-.5 142.5,-19.5 262.5,-19.5 262.5,-.5 142.5,-.5"/>
<text text-anchor="middle" x="202.5" y="-7.5" font-family="Helvetica,sans-Serif" font-size="10.00" fill="#000000">L4virtio::Svr::Virtqueue</text>
</a>
</g>
</g>
<!-- Node0&#45;&gt;Node2 -->
<g id="edge2" class="edge">
<title>Node0&#45;&gt;Node2</title>
<path fill="none" stroke="#191970" d="M110.3138,-21.4855C120.8644,-20.171 131.841,-18.8034 142.3862,-17.4896"/>
<polygon fill="#191970" stroke="#191970" points="109.8474,-18.0165 100.3568,-22.726 110.7129,-24.9627 109.8474,-18.0165"/>
</g>
</g>
</svg>
