<?xml version="1.0" encoding="UTF-8" standalone="no"?>
<!DOCTYPE svg PUBLIC "-//W3C//DTD SVG 1.1//EN"
 "http://www.w3.org/Graphics/SVG/1.1/DTD/svg11.dtd">
<!-- Generated by graphviz version 2.40.1 (20161225.0304)
 -->
<!-- Title: Graphical Class Hierarchy Pages: 1 -->
<svg width="364pt" height="50pt"
 viewBox="0.00 0.00 364.00 50.00" xmlns="http://www.w3.org/2000/svg" xmlns:xlink="http://www.w3.org/1999/xlink">
<g id="graph0" class="graph" transform="scale(1 1) rotate(0) translate(4 46)">
<title>Graphical Class Hierarchy</title>
<polygon fill="#ffffff" stroke="transparent" points="-4,4 -4,-46 360,-46 360,4 -4,4"/>
<!-- Node0 -->
<g id="node1" class="node">
<title>Node0</title>
<g id="a_node1"><a xlink:href="classcxx_1_1Bits_1_1Bst.html" target="_top" xlink:title="cxx::Bits::Bst\&lt; _Node,\l Bits::Avl_set_get_key\l\&lt; ITEM_TYPE \&gt;, COMPARE \&gt;">
<polygon fill="#ffffff" stroke="#000000" points="0,-.5 0,-41.5 160,-41.5 160,-.5 0,-.5"/>
<text text-anchor="start" x="8" y="-29.5" font-family="Helvetica,sans-Serif" font-size="10.00" fill="#000000">cxx::Bits::Bst&lt; _Node,</text>
<text text-anchor="start" x="8" y="-18.5" font-family="Helvetica,sans-Serif" font-size="10.00" fill="#000000"> Bits::Avl_set_get_key</text>
<text text-anchor="middle" x="80" y="-7.5" font-family="Helvetica,sans-Serif" font-size="10.00" fill="#000000">&lt; ITEM_TYPE &gt;, COMPARE &gt;</text>
</a>
</g>
</g>
<!-- Node1 -->
<g id="node2" class="node">
<title>Node1</title>
<g id="a_node2"><a xlink:href="classcxx_1_1Avl__tree.html" target="_top" xlink:title="cxx::Avl_tree\&lt; _Node,\l Bits::Avl_set_get_key\l\&lt; ITEM_TYPE \&gt;, COMPARE \&gt;">
<polygon fill="#ffffff" stroke="#000000" points="196,-.5 196,-41.5 356,-41.5 356,-.5 196,-.5"/>
<text text-anchor="start" x="204" y="-29.5" font-family="Helvetica,sans-Serif" font-size="10.00" fill="#000000">cxx::Avl_tree&lt; _Node,</text>
<text text-anchor="start" x="204" y="-18.5" font-family="Helvetica,sans-Serif" font-size="10.00" fill="#000000"> Bits::Avl_set_get_key</text>
<text text-anchor="middle" x="276" y="-7.5" font-family="Helvetica,sans-Serif" font-size="10.00" fill="#000000">&lt; ITEM_TYPE &gt;, COMPARE &gt;</text>
</a>
</g>
</g>
<!-- Node0&#45;&gt;Node1 -->
<g id="edge1" class="edge">
<title>Node0&#45;&gt;Node1</title>
<path fill="none" stroke="#191970" d="M170.0766,-21C178.7035,-21 187.4128,-21 195.9347,-21"/>
<polygon fill="#191970" stroke="#191970" points="170.0034,-17.5001 160.0034,-21 170.0034,-24.5001 170.0034,-17.5001"/>
</g>
</g>
</svg>
