<?xml version="1.0" encoding="UTF-8" standalone="no"?>
<!DOCTYPE svg PUBLIC "-//W3C//DTD SVG 1.1//EN"
 "http://www.w3.org/Graphics/SVG/1.1/DTD/svg11.dtd">
<!-- Generated by graphviz version 2.40.1 (20161225.0304)
 -->
<!-- Title: Graphical Class Hierarchy Pages: 1 -->
<svg width="406pt" height="88pt"
 viewBox="0.00 0.00 406.00 88.00" xmlns="http://www.w3.org/2000/svg" xmlns:xlink="http://www.w3.org/1999/xlink">
<g id="graph0" class="graph" transform="scale(1 1) rotate(0) translate(4 84)">
<title>Graphical Class Hierarchy</title>
<polygon fill="#ffffff" stroke="transparent" points="-4,4 -4,-84 402,-84 402,4 -4,4"/>
<!-- Node0 -->
<g id="node1" class="node">
<title>Node0</title>
<g id="a_node1"><a xlink:href="structL4_1_1Types_1_1Bool.html" target="_top" xlink:title="L4::Types::Bool\&lt; true \&gt;">
<polygon fill="#ffffff" stroke="#000000" points="0,-30 0,-49 124,-49 124,-30 0,-30"/>
<text text-anchor="middle" x="62" y="-37" font-family="Helvetica,sans-Serif" font-size="10.00" fill="#000000">L4::Types::Bool&lt; true &gt;</text>
</a>
</g>
</g>
<!-- Node1 -->
<g id="node2" class="node">
<title>Node1</title>
<g id="a_node2"><a xlink:href="structL4_1_1Types_1_1True.html" target="_top" xlink:title="True meta value. ">
<polygon fill="#ffffff" stroke="#000000" points="160,-30 160,-49 249,-49 249,-30 160,-30"/>
<text text-anchor="middle" x="204.5" y="-37" font-family="Helvetica,sans-Serif" font-size="10.00" fill="#000000">L4::Types::True</text>
</a>
</g>
</g>
<!-- Node0&#45;&gt;Node1 -->
<g id="edge1" class="edge">
<title>Node0&#45;&gt;Node1</title>
<path fill="none" stroke="#191970" d="M134.2659,-39.5C142.9545,-39.5 151.6229,-39.5 159.7543,-39.5"/>
<polygon fill="#191970" stroke="#191970" points="134.0881,-36.0001 124.088,-39.5 134.088,-43.0001 134.0881,-36.0001"/>
</g>
<!-- Node2 -->
<g id="node3" class="node">
<title>Node2</title>
<g id="a_node3"><a xlink:href="structL4_1_1Ipc_1_1Msg_1_1Is__valid__rpc__type.html" target="_top" xlink:title="L4::Ipc::Msg::Is_valid\l_rpc_type\&lt; A *\&gt;">
<polygon fill="#ffffff" stroke="#000000" points="285,-49.5 285,-79.5 398,-79.5 398,-49.5 285,-49.5"/>
<text text-anchor="start" x="293" y="-67.5" font-family="Helvetica,sans-Serif" font-size="10.00" fill="#000000">L4::Ipc::Msg::Is_valid</text>
<text text-anchor="middle" x="341.5" y="-56.5" font-family="Helvetica,sans-Serif" font-size="10.00" fill="#000000">_rpc_type&lt; A *&gt;</text>
</a>
</g>
</g>
<!-- Node1&#45;&gt;Node2 -->
<g id="edge2" class="edge">
<title>Node1&#45;&gt;Node2</title>
<path fill="none" stroke="#191970" d="M259.3117,-49.5021C267.6133,-51.017 276.1945,-52.5829 284.5403,-54.1059"/>
<polygon fill="#191970" stroke="#191970" points="259.8248,-46.038 249.3589,-47.6859 258.5681,-52.9243 259.8248,-46.038"/>
</g>
<!-- Node3 -->
<g id="node4" class="node">
<title>Node3</title>
<g id="a_node4"><a xlink:href="structL4_1_1Ipc_1_1Msg_1_1Is__valid__rpc__type.html" target="_top" xlink:title="Type trait defining a valid RPC parameter type. ">
<polygon fill="#ffffff" stroke="#000000" points="285,-.5 285,-30.5 398,-30.5 398,-.5 285,-.5"/>
<text text-anchor="start" x="293" y="-18.5" font-family="Helvetica,sans-Serif" font-size="10.00" fill="#000000">L4::Ipc::Msg::Is_valid</text>
<text text-anchor="middle" x="341.5" y="-7.5" font-family="Helvetica,sans-Serif" font-size="10.00" fill="#000000">_rpc_type&lt; T &gt;</text>
</a>
</g>
</g>
<!-- Node1&#45;&gt;Node3 -->
<g id="edge3" class="edge">
<title>Node1&#45;&gt;Node3</title>
<path fill="none" stroke="#191970" d="M259.3117,-29.8979C267.6133,-28.4437 276.1945,-26.9404 284.5403,-25.4783"/>
<polygon fill="#191970" stroke="#191970" points="258.605,-26.4684 249.3589,-31.6415 259.8129,-33.3634 258.605,-26.4684"/>
</g>
</g>
</svg>
