<?xml version="1.0" encoding="UTF-8" standalone="no"?>
<!DOCTYPE svg PUBLIC "-//W3C//DTD SVG 1.1//EN"
 "http://www.w3.org/Graphics/SVG/1.1/DTD/svg11.dtd">
<!-- Generated by graphviz version 2.40.1 (20161225.0304)
 -->
<!-- Title: Graphical Class Hierarchy Pages: 1 -->
<svg width="229pt" height="66pt"
 viewBox="0.00 0.00 229.00 66.00" xmlns="http://www.w3.org/2000/svg" xmlns:xlink="http://www.w3.org/1999/xlink">
<g id="graph0" class="graph" transform="scale(1 1) rotate(0) translate(4 62)">
<title>Graphical Class Hierarchy</title>
<polygon fill="#ffffff" stroke="transparent" points="-4,4 -4,-62 225,-62 225,4 -4,4"/>
<!-- Node316 -->
<g id="node1" class="node">
<title>Node316</title>
<g id="a_node1"><a xlink:href="classL4_1_1Ipc_1_1Istream.html" target="_top" xlink:title="Input stream for IPC unmarshalling. ">
<polygon fill="#ffffff" stroke="#000000" points="2.5,-38.5 2.5,-57.5 89.5,-57.5 89.5,-38.5 2.5,-38.5"/>
<text text-anchor="middle" x="46" y="-45.5" font-family="Helvetica,sans-Serif" font-size="10.00" fill="#000000">L4::Ipc::Istream</text>
</a>
</g>
</g>
<!-- Node1 -->
<g id="node2" class="node">
<title>Node1</title>
<g id="a_node2"><a xlink:href="classL4_1_1Ipc_1_1Iostream.html" target="_top" xlink:title="Input/Output stream for IPC [un]marshalling. ">
<polygon fill="#ffffff" stroke="#000000" points="128,-19.5 128,-38.5 221,-38.5 221,-19.5 128,-19.5"/>
<text text-anchor="middle" x="174.5" y="-26.5" font-family="Helvetica,sans-Serif" font-size="10.00" fill="#000000">L4::Ipc::Iostream</text>
</a>
</g>
</g>
<!-- Node316&#45;&gt;Node1 -->
<g id="edge1" class="edge">
<title>Node316&#45;&gt;Node1</title>
<path fill="none" stroke="#191970" d="M99.5714,-40.0789C109,-38.6848 118.7442,-37.2441 127.9609,-35.8813"/>
<polygon fill="#191970" stroke="#191970" points="98.8847,-36.6423 89.5042,-41.5675 99.9087,-43.567 98.8847,-36.6423"/>
</g>
<!-- Node0 -->
<g id="node3" class="node">
<title>Node0</title>
<g id="a_node3"><a xlink:href="classL4_1_1Ipc_1_1Ostream.html" target="_top" xlink:title="Output stream for IPC marshalling. ">
<polygon fill="#ffffff" stroke="#000000" points="0,-.5 0,-19.5 92,-19.5 92,-.5 0,-.5"/>
<text text-anchor="middle" x="46" y="-7.5" font-family="Helvetica,sans-Serif" font-size="10.00" fill="#000000">L4::Ipc::Ostream</text>
</a>
</g>
</g>
<!-- Node0&#45;&gt;Node1 -->
<g id="edge2" class="edge">
<title>Node0&#45;&gt;Node1</title>
<path fill="none" stroke="#191970" d="M102.0411,-18.2862C110.6818,-19.5638 119.5239,-20.8712 127.9283,-22.1139"/>
<polygon fill="#191970" stroke="#191970" points="102.4329,-14.8062 92.0285,-16.8058 101.409,-21.7309 102.4329,-14.8062"/>
</g>
</g>
</svg>
