<?xml version="1.0" encoding="UTF-8" standalone="no"?>
<!DOCTYPE svg PUBLIC "-//W3C//DTD SVG 1.1//EN"
 "http://www.w3.org/Graphics/SVG/1.1/DTD/svg11.dtd">
<!-- Generated by graphviz version 2.40.1 (20161225.0304)
 -->
<!-- Title: Graphical Class Hierarchy Pages: 1 -->
<svg width="514pt" height="269pt"
 viewBox="0.00 0.00 514.00 268.50" xmlns="http://www.w3.org/2000/svg" xmlns:xlink="http://www.w3.org/1999/xlink">
<g id="graph0" class="graph" transform="scale(1 1) rotate(0) translate(4 264.5)">
<title>Graphical Class Hierarchy</title>
<polygon fill="#ffffff" stroke="transparent" points="-4,4 -4,-264.5 510,-264.5 510,4 -4,4"/>
<!-- Node0 -->
<g id="node1" class="node">
<title>Node0</title>
<g id="a_node1"><a xlink:href="structL4_1_1Typeid_1_1Detail_1_1Rpcs__end.html" target="_top" xlink:title="Internal end&#45;of&#45;list marker. ">
<polygon fill="#ffffff" stroke="#000000" points="0,-104.5 0,-134.5 97,-134.5 97,-104.5 0,-104.5"/>
<text text-anchor="start" x="8" y="-122.5" font-family="Helvetica,sans-Serif" font-size="10.00" fill="#000000">L4::Typeid::Detail</text>
<text text-anchor="middle" x="48.5" y="-111.5" font-family="Helvetica,sans-Serif" font-size="10.00" fill="#000000">::Rpcs_end</text>
</a>
</g>
</g>
<!-- Node1 -->
<g id="node2" class="node">
<title>Node1</title>
<g id="a_node2"><a xlink:href="structL4_1_1Typeid_1_1Detail_1_1__Rpcs.html" target="_top" xlink:title="L4::Typeid::Detail\l::_Rpcs\&lt; L4::Opcode,\l 0, RPCS... \&gt;">
<polygon fill="#ffffff" stroke="#000000" points="158.5,-219 158.5,-260 274.5,-260 274.5,-219 158.5,-219"/>
<text text-anchor="start" x="166.5" y="-248" font-family="Helvetica,sans-Serif" font-size="10.00" fill="#000000">L4::Typeid::Detail</text>
<text text-anchor="start" x="166.5" y="-237" font-family="Helvetica,sans-Serif" font-size="10.00" fill="#000000">::_Rpcs&lt; L4::Opcode,</text>
<text text-anchor="middle" x="216.5" y="-226" font-family="Helvetica,sans-Serif" font-size="10.00" fill="#000000"> 0, RPCS... &gt;</text>
</a>
</g>
</g>
<!-- Node0&#45;&gt;Node1 -->
<g id="edge1" class="edge">
<title>Node0&#45;&gt;Node1</title>
<path fill="none" stroke="#191970" d="M65.1787,-142.6953C80.718,-162.8249 105.5649,-191.4896 133,-209.5 140.7262,-214.572 149.4175,-218.9145 158.1972,-222.5908"/>
<polygon fill="#191970" stroke="#191970" points="67.9243,-140.5231 59.1084,-134.6468 62.3356,-144.7382 67.9243,-140.5231"/>
</g>
<!-- Node3 -->
<g id="node4" class="node">
<title>Node3</title>
<g id="a_node4"><a xlink:href="structL4_1_1Typeid_1_1Detail_1_1__Rpcs.html" target="_top" xlink:title="L4::Typeid::Detail\l::_Rpcs\&lt; l4_umword_t,\l 0, ARG... \&gt;">
<polygon fill="#ffffff" stroke="#000000" points="155.5,-159 155.5,-200 277.5,-200 277.5,-159 155.5,-159"/>
<text text-anchor="start" x="163.5" y="-188" font-family="Helvetica,sans-Serif" font-size="10.00" fill="#000000">L4::Typeid::Detail</text>
<text text-anchor="start" x="163.5" y="-177" font-family="Helvetica,sans-Serif" font-size="10.00" fill="#000000">::_Rpcs&lt; l4_umword_t,</text>
<text text-anchor="middle" x="216.5" y="-166" font-family="Helvetica,sans-Serif" font-size="10.00" fill="#000000"> 0, ARG... &gt;</text>
</a>
</g>
</g>
<!-- Node0&#45;&gt;Node3 -->
<g id="edge3" class="edge">
<title>Node0&#45;&gt;Node3</title>
<path fill="none" stroke="#191970" d="M100.342,-138.015C118.8846,-144.6373 139.8896,-152.1391 158.8896,-158.9249"/>
<polygon fill="#191970" stroke="#191970" points="101.4881,-134.7079 90.8935,-134.6405 99.1337,-141.3001 101.4881,-134.7079"/>
</g>
<!-- Node5 -->
<g id="node6" class="node">
<title>Node5</title>
<g id="a_node6"><a xlink:href="structL4_1_1Typeid_1_1Detail_1_1__Rpcs.html" target="_top" xlink:title="L4::Typeid::Detail\l::_Rpcs\&lt; OPCODE_TYPE,\l 0, RPCS... \&gt;">
<polygon fill="#ffffff" stroke="#000000" points="146.5,-99 146.5,-140 286.5,-140 286.5,-99 146.5,-99"/>
<text text-anchor="start" x="154.5" y="-128" font-family="Helvetica,sans-Serif" font-size="10.00" fill="#000000">L4::Typeid::Detail</text>
<text text-anchor="start" x="154.5" y="-117" font-family="Helvetica,sans-Serif" font-size="10.00" fill="#000000">::_Rpcs&lt; OPCODE_TYPE,</text>
<text text-anchor="middle" x="216.5" y="-106" font-family="Helvetica,sans-Serif" font-size="10.00" fill="#000000"> 0, RPCS... &gt;</text>
</a>
</g>
</g>
<!-- Node0&#45;&gt;Node5 -->
<g id="edge5" class="edge">
<title>Node0&#45;&gt;Node5</title>
<path fill="none" stroke="#191970" d="M107.4554,-119.5C120.0574,-119.5 133.4872,-119.5 146.4599,-119.5"/>
<polygon fill="#191970" stroke="#191970" points="107.0926,-116.0001 97.0926,-119.5 107.0925,-123.0001 107.0926,-116.0001"/>
</g>
<!-- Node7 -->
<g id="node8" class="node">
<title>Node7</title>
<g id="a_node8"><a xlink:href="structL4_1_1Typeid_1_1Detail_1_1__Rpcs.html" target="_top" xlink:title="L4::Typeid::Detail\l::_Rpcs\&lt; void, 0, OPERATION \&gt;">
<polygon fill="#ffffff" stroke="#000000" points="133,-49.5 133,-79.5 300,-79.5 300,-49.5 133,-49.5"/>
<text text-anchor="start" x="141" y="-67.5" font-family="Helvetica,sans-Serif" font-size="10.00" fill="#000000">L4::Typeid::Detail</text>
<text text-anchor="middle" x="216.5" y="-56.5" font-family="Helvetica,sans-Serif" font-size="10.00" fill="#000000">::_Rpcs&lt; void, 0, OPERATION &gt;</text>
</a>
</g>
</g>
<!-- Node0&#45;&gt;Node7 -->
<g id="edge7" class="edge">
<title>Node0&#45;&gt;Node7</title>
<path fill="none" stroke="#191970" d="M99.1856,-101.0392C110.292,-97.1246 122.0137,-93.0924 133,-89.5 143.2119,-86.1608 154.1821,-82.7509 164.7046,-79.5663"/>
<polygon fill="#191970" stroke="#191970" points="97.8711,-97.7918 89.6178,-104.4352 100.2125,-104.3886 97.8711,-97.7918"/>
</g>
<!-- Node9 -->
<g id="node10" class="node">
<title>Node9</title>
<g id="a_node10"><a xlink:href="structL4_1_1Typeid_1_1Detail_1_1__Rpcs.html" target="_top" xlink:title="Empty list of RPCs. ">
<polygon fill="#ffffff" stroke="#000000" points="146.5,-.5 146.5,-30.5 286.5,-30.5 286.5,-.5 146.5,-.5"/>
<text text-anchor="start" x="154.5" y="-18.5" font-family="Helvetica,sans-Serif" font-size="10.00" fill="#000000">L4::Typeid::Detail</text>
<text text-anchor="middle" x="216.5" y="-7.5" font-family="Helvetica,sans-Serif" font-size="10.00" fill="#000000">::_Rpcs&lt; OPCODE, O, X &gt;</text>
</a>
</g>
</g>
<!-- Node0&#45;&gt;Node9 -->
<g id="edge9" class="edge">
<title>Node0&#45;&gt;Node9</title>
<path fill="none" stroke="#191970" d="M67.2516,-96.5057C83.0412,-78.5598 107.1394,-54.2713 133,-39.5 139.0248,-36.0587 145.5805,-33.0792 152.2817,-30.5067"/>
<polygon fill="#191970" stroke="#191970" points="64.4632,-94.3805 60.605,-104.2479 69.7745,-98.9401 64.4632,-94.3805"/>
</g>
<!-- Node2 -->
<g id="node3" class="node">
<title>Node2</title>
<g id="a_node3"><a xlink:href="structL4_1_1Typeid_1_1Rpcs.html" target="_top" xlink:title="Standard list of RPCs of an interface. ">
<polygon fill="#ffffff" stroke="#000000" points="351,-230 351,-249 491,-249 491,-230 351,-230"/>
<text text-anchor="middle" x="421" y="-237" font-family="Helvetica,sans-Serif" font-size="10.00" fill="#000000">L4::Typeid::Rpcs&lt; RPCS &gt;</text>
</a>
</g>
</g>
<!-- Node1&#45;&gt;Node2 -->
<g id="edge2" class="edge">
<title>Node1&#45;&gt;Node2</title>
<path fill="none" stroke="#191970" d="M284.7823,-239.5C306.0157,-239.5 329.454,-239.5 350.815,-239.5"/>
<polygon fill="#191970" stroke="#191970" points="284.5545,-236.0001 274.5545,-239.5 284.5544,-243.0001 284.5545,-236.0001"/>
</g>
<!-- Node4 -->
<g id="node5" class="node">
<title>Node4</title>
<g id="a_node5"><a xlink:href="structL4_1_1Typeid_1_1Rpcs__sys.html" target="_top" xlink:title="List of RPCs typically used for kernel interfaces. ">
<polygon fill="#ffffff" stroke="#000000" points="363,-164.5 363,-194.5 479,-194.5 479,-164.5 363,-164.5"/>
<text text-anchor="start" x="371" y="-182.5" font-family="Helvetica,sans-Serif" font-size="10.00" fill="#000000">L4::Typeid::Rpcs_sys</text>
<text text-anchor="middle" x="421" y="-171.5" font-family="Helvetica,sans-Serif" font-size="10.00" fill="#000000">&lt; ARG &gt;</text>
</a>
</g>
</g>
<!-- Node3&#45;&gt;Node4 -->
<g id="edge4" class="edge">
<title>Node3&#45;&gt;Node4</title>
<path fill="none" stroke="#191970" d="M287.8829,-179.5C312.3383,-179.5 339.393,-179.5 362.6898,-179.5"/>
<polygon fill="#191970" stroke="#191970" points="287.5798,-176.0001 277.5797,-179.5 287.5797,-183.0001 287.5798,-176.0001"/>
</g>
<!-- Node6 -->
<g id="node7" class="node">
<title>Node6</title>
<g id="a_node7"><a xlink:href="structL4_1_1Typeid_1_1Rpcs__code_1_1F.html" target="_top" xlink:title="L4::Typeid::Rpcs_code\l\&lt; OPCODE_TYPE \&gt;::F\&lt; RPCS \&gt;">
<polygon fill="#ffffff" stroke="#000000" points="336,-104.5 336,-134.5 506,-134.5 506,-104.5 336,-104.5"/>
<text text-anchor="start" x="344" y="-122.5" font-family="Helvetica,sans-Serif" font-size="10.00" fill="#000000">L4::Typeid::Rpcs_code</text>
<text text-anchor="middle" x="421" y="-111.5" font-family="Helvetica,sans-Serif" font-size="10.00" fill="#000000">&lt; OPCODE_TYPE &gt;::F&lt; RPCS &gt;</text>
</a>
</g>
</g>
<!-- Node5&#45;&gt;Node6 -->
<g id="edge6" class="edge">
<title>Node5&#45;&gt;Node6</title>
<path fill="none" stroke="#191970" d="M296.7517,-119.5C309.5709,-119.5 322.8744,-119.5 335.8035,-119.5"/>
<polygon fill="#191970" stroke="#191970" points="296.5912,-116.0001 286.5912,-119.5 296.5912,-123.0001 296.5912,-116.0001"/>
</g>
<!-- Node8 -->
<g id="node9" class="node">
<title>Node8</title>
<g id="a_node9"><a xlink:href="structL4_1_1Typeid_1_1Rpc__nocode.html" target="_top" xlink:title="List of RPCs of an interface using a single operation without an opcode. ">
<polygon fill="#ffffff" stroke="#000000" points="356,-49.5 356,-79.5 486,-79.5 486,-49.5 356,-49.5"/>
<text text-anchor="start" x="364" y="-67.5" font-family="Helvetica,sans-Serif" font-size="10.00" fill="#000000">L4::Typeid::Rpc_nocode</text>
<text text-anchor="middle" x="421" y="-56.5" font-family="Helvetica,sans-Serif" font-size="10.00" fill="#000000">&lt; OPERATION &gt;</text>
</a>
</g>
</g>
<!-- Node7&#45;&gt;Node8 -->
<g id="edge8" class="edge">
<title>Node7&#45;&gt;Node8</title>
<path fill="none" stroke="#191970" d="M310.3238,-64.5C325.7046,-64.5 341.3414,-64.5 355.8294,-64.5"/>
<polygon fill="#191970" stroke="#191970" points="310.2681,-61.0001 300.268,-64.5 310.268,-68.0001 310.2681,-61.0001"/>
</g>
</g>
</svg>
