<?xml version="1.0" encoding="UTF-8" standalone="no"?>
<!DOCTYPE svg PUBLIC "-//W3C//DTD SVG 1.1//EN"
 "http://www.w3.org/Graphics/SVG/1.1/DTD/svg11.dtd">
<!-- Generated by graphviz version 2.40.1 (20161225.0304)
 -->
<!-- Title: Graphical Class Hierarchy Pages: 1 -->
<svg width="305pt" height="215pt"
 viewBox="0.00 0.00 305.00 215.00" xmlns="http://www.w3.org/2000/svg" xmlns:xlink="http://www.w3.org/1999/xlink">
<g id="graph0" class="graph" transform="scale(1 1) rotate(0) translate(4 211)">
<title>Graphical Class Hierarchy</title>
<polygon fill="#ffffff" stroke="transparent" points="-4,4 -4,-211 301,-211 301,4 -4,4"/>
<!-- Node314 -->
<g id="node1" class="node">
<title>Node314</title>
<g id="a_node1"><a xlink:href="structL4_1_1Ipc_1_1Msg_1_1Cls__buffer.html" target="_top" xlink:title="Marker type for receive buffer values. ">
<polygon fill="#ffffff" stroke="#000000" points="0,-182 0,-201 124,-201 124,-182 0,-182"/>
<text text-anchor="middle" x="62" y="-189" font-family="Helvetica,sans-Serif" font-size="10.00" fill="#000000">L4::Ipc::Msg::Cls_buffer</text>
</a>
</g>
</g>
<!-- Node311 -->
<g id="node2" class="node">
<title>Node311</title>
<g id="a_node2"><a xlink:href="structL4_1_1Ipc_1_1Msg_1_1Do__rcv__buffers.html" target="_top" xlink:title="Marker for receive buffers. ">
<polygon fill="#ffffff" stroke="#000000" points="173.5,-176.5 173.5,-206.5 283.5,-206.5 283.5,-176.5 173.5,-176.5"/>
<text text-anchor="start" x="181.5" y="-194.5" font-family="Helvetica,sans-Serif" font-size="10.00" fill="#000000">L4::Ipc::Msg::Do_rcv</text>
<text text-anchor="middle" x="228.5" y="-183.5" font-family="Helvetica,sans-Serif" font-size="10.00" fill="#000000">_buffers</text>
</a>
</g>
</g>
<!-- Node314&#45;&gt;Node311 -->
<g id="edge1" class="edge">
<title>Node314&#45;&gt;Node311</title>
<path fill="none" stroke="#191970" d="M134.7552,-191.5C147.6996,-191.5 160.988,-191.5 173.3415,-191.5"/>
<polygon fill="#191970" stroke="#191970" points="134.4722,-188.0001 124.4722,-191.5 134.4721,-195.0001 134.4722,-188.0001"/>
</g>
<!-- Node313 -->
<g id="node3" class="node">
<title>Node313</title>
<g id="a_node3"><a xlink:href="structL4_1_1Ipc_1_1Msg_1_1Cls__data.html" target="_top" xlink:title="Marker type for data values. ">
<polygon fill="#ffffff" stroke="#000000" points="2.5,-98 2.5,-117 121.5,-117 121.5,-98 2.5,-98"/>
<text text-anchor="middle" x="62" y="-105" font-family="Helvetica,sans-Serif" font-size="10.00" fill="#000000">L4::Ipc::Msg::Cls_data</text>
</a>
</g>
</g>
<!-- Node309 -->
<g id="node4" class="node">
<title>Node309</title>
<g id="a_node4"><a xlink:href="structL4_1_1Ipc_1_1Msg_1_1Do__in__data.html" target="_top" xlink:title="Marker for Input data. ">
<polygon fill="#ffffff" stroke="#000000" points="163,-138 163,-157 294,-157 294,-138 163,-138"/>
<text text-anchor="middle" x="228.5" y="-145" font-family="Helvetica,sans-Serif" font-size="10.00" fill="#000000">L4::Ipc::Msg::Do_in_data</text>
</a>
</g>
</g>
<!-- Node313&#45;&gt;Node309 -->
<g id="edge2" class="edge">
<title>Node313&#45;&gt;Node309</title>
<path fill="none" stroke="#191970" d="M111.7825,-119.4598C136.4559,-125.3873 165.8347,-132.4453 188.9445,-137.9972"/>
<polygon fill="#191970" stroke="#191970" points="112.4218,-116.0138 101.8809,-117.081 110.7866,-122.8202 112.4218,-116.0138"/>
</g>
<!-- Node1 -->
<g id="node5" class="node">
<title>Node1</title>
<g id="a_node5"><a xlink:href="structL4_1_1Ipc_1_1Msg_1_1Do__out__data.html" target="_top" xlink:title="Marker for Output data. ">
<polygon fill="#ffffff" stroke="#000000" points="160,-50 160,-69 297,-69 297,-50 160,-50"/>
<text text-anchor="middle" x="228.5" y="-57" font-family="Helvetica,sans-Serif" font-size="10.00" fill="#000000">L4::Ipc::Msg::Do_out_data</text>
</a>
</g>
</g>
<!-- Node313&#45;&gt;Node1 -->
<g id="edge3" class="edge">
<title>Node313&#45;&gt;Node1</title>
<path fill="none" stroke="#191970" d="M105.2503,-95.0314C133.3464,-86.9317 169.416,-76.5332 195.2641,-69.0815"/>
<polygon fill="#191970" stroke="#191970" points="103.9327,-91.7687 95.2936,-97.9018 105.8718,-98.4947 103.9327,-91.7687"/>
</g>
<!-- Node312 -->
<g id="node6" class="node">
<title>Node312</title>
<g id="a_node6"><a xlink:href="structL4_1_1Ipc_1_1Msg_1_1Cls__item.html" target="_top" xlink:title="Marker type for item values. ">
<polygon fill="#ffffff" stroke="#000000" points="3.5,-56 3.5,-75 120.5,-75 120.5,-56 3.5,-56"/>
<text text-anchor="middle" x="62" y="-63" font-family="Helvetica,sans-Serif" font-size="10.00" fill="#000000">L4::Ipc::Msg::Cls_item</text>
</a>
</g>
</g>
<!-- Node310 -->
<g id="node7" class="node">
<title>Node310</title>
<g id="a_node7"><a xlink:href="structL4_1_1Ipc_1_1Msg_1_1Do__in__items.html" target="_top" xlink:title="Marker for Input items. ">
<polygon fill="#ffffff" stroke="#000000" points="176.5,-88.5 176.5,-118.5 280.5,-118.5 280.5,-88.5 176.5,-88.5"/>
<text text-anchor="start" x="184.5" y="-106.5" font-family="Helvetica,sans-Serif" font-size="10.00" fill="#000000">L4::Ipc::Msg::Do_in</text>
<text text-anchor="middle" x="228.5" y="-95.5" font-family="Helvetica,sans-Serif" font-size="10.00" fill="#000000">_items</text>
</a>
</g>
</g>
<!-- Node312&#45;&gt;Node310 -->
<g id="edge4" class="edge">
<title>Node312&#45;&gt;Node310</title>
<path fill="none" stroke="#191970" d="M113.8329,-77.3297C133.7306,-81.8709 156.4344,-87.0526 176.3607,-91.6003"/>
<polygon fill="#191970" stroke="#191970" points="114.5431,-73.9019 104.015,-75.089 112.9855,-80.7264 114.5431,-73.9019"/>
</g>
<!-- Node2 -->
<g id="node8" class="node">
<title>Node2</title>
<g id="a_node8"><a xlink:href="structL4_1_1Ipc_1_1Msg_1_1Do__out__items.html" target="_top" xlink:title="Marker for Output items. ">
<polygon fill="#ffffff" stroke="#000000" points="173.5,-.5 173.5,-30.5 283.5,-30.5 283.5,-.5 173.5,-.5"/>
<text text-anchor="start" x="181.5" y="-18.5" font-family="Helvetica,sans-Serif" font-size="10.00" fill="#000000">L4::Ipc::Msg::Do_out</text>
<text text-anchor="middle" x="228.5" y="-7.5" font-family="Helvetica,sans-Serif" font-size="10.00" fill="#000000">_items</text>
</a>
</g>
</g>
<!-- Node312&#45;&gt;Node2 -->
<g id="edge5" class="edge">
<title>Node312&#45;&gt;Node2</title>
<path fill="none" stroke="#191970" d="M103.3732,-53.0756C126.0428,-46.2679 154.3141,-37.778 178.2455,-30.5915"/>
<polygon fill="#191970" stroke="#191970" points="102.2801,-49.7494 93.7093,-55.9777 104.2934,-56.4536 102.2801,-49.7494"/>
</g>
<!-- Node308 -->
<g id="node9" class="node">
<title>Node308</title>
<g id="a_node9"><a xlink:href="structL4_1_1Ipc_1_1Msg_1_1Dir__in.html" target="_top" xlink:title="Marker type for input values. ">
<polygon fill="#ffffff" stroke="#000000" points="10,-138 10,-157 114,-157 114,-138 10,-138"/>
<text text-anchor="middle" x="62" y="-145" font-family="Helvetica,sans-Serif" font-size="10.00" fill="#000000">L4::Ipc::Msg::Dir_in</text>
</a>
</g>
</g>
<!-- Node308&#45;&gt;Node311 -->
<g id="edge8" class="edge">
<title>Node308&#45;&gt;Node311</title>
<path fill="none" stroke="#191970" d="M108.0451,-159.6681C128.2976,-165.0201 152.2485,-171.3495 173.4372,-176.9489"/>
<polygon fill="#191970" stroke="#191970" points="108.6904,-156.2185 98.128,-157.0473 106.9019,-162.9862 108.6904,-156.2185"/>
</g>
<!-- Node308&#45;&gt;Node309 -->
<g id="edge6" class="edge">
<title>Node308&#45;&gt;Node309</title>
<path fill="none" stroke="#191970" d="M124.5754,-147.5C137.1169,-147.5 150.3268,-147.5 162.9655,-147.5"/>
<polygon fill="#191970" stroke="#191970" points="124.2248,-144.0001 114.2248,-147.5 124.2248,-151.0001 124.2248,-144.0001"/>
</g>
<!-- Node308&#45;&gt;Node310 -->
<g id="edge7" class="edge">
<title>Node308&#45;&gt;Node310</title>
<path fill="none" stroke="#191970" d="M107.8703,-135.3781C129.0851,-129.7718 154.3871,-123.0854 176.3269,-117.2875"/>
<polygon fill="#191970" stroke="#191970" points="106.9019,-132.0138 98.128,-137.9527 108.6904,-138.7815 106.9019,-132.0138"/>
</g>
<!-- Node0 -->
<g id="node10" class="node">
<title>Node0</title>
<g id="a_node10"><a xlink:href="structL4_1_1Ipc_1_1Msg_1_1Dir__out.html" target="_top" xlink:title="Marker type for output values. ">
<polygon fill="#ffffff" stroke="#000000" points="7,-9 7,-28 117,-28 117,-9 7,-9"/>
<text text-anchor="middle" x="62" y="-16" font-family="Helvetica,sans-Serif" font-size="10.00" fill="#000000">L4::Ipc::Msg::Dir_out</text>
</a>
</g>
</g>
<!-- Node0&#45;&gt;Node1 -->
<g id="edge9" class="edge">
<title>Node0&#45;&gt;Node1</title>
<path fill="none" stroke="#191970" d="M110.3725,-30.4116C135.6349,-36.6323 166.1278,-44.1411 189.8044,-49.9714"/>
<polygon fill="#191970" stroke="#191970" points="111.1638,-27.0019 100.6169,-28.0093 109.49,-33.7989 111.1638,-27.0019"/>
</g>
<!-- Node0&#45;&gt;Node2 -->
<g id="edge10" class="edge">
<title>Node0&#45;&gt;Node2</title>
<path fill="none" stroke="#191970" d="M127.7326,-17.3156C142.8196,-17.0438 158.7105,-16.7575 173.3,-16.4946"/>
<polygon fill="#191970" stroke="#191970" points="127.3774,-13.8214 117.4421,-17.501 127.5036,-20.8202 127.3774,-13.8214"/>
</g>
</g>
</svg>
