<?xml version="1.0" encoding="UTF-8" standalone="no"?>
<!DOCTYPE svg PUBLIC "-//W3C//DTD SVG 1.1//EN"
 "http://www.w3.org/Graphics/SVG/1.1/DTD/svg11.dtd">
<!-- Generated by graphviz version 2.40.1 (20161225.0304)
 -->
<!-- Title: Graphical Class Hierarchy Pages: 1 -->
<svg width="348pt" height="88pt"
 viewBox="0.00 0.00 348.00 88.00" xmlns="http://www.w3.org/2000/svg" xmlns:xlink="http://www.w3.org/1999/xlink">
<g id="graph0" class="graph" transform="scale(1 1) rotate(0) translate(4 84)">
<title>Graphical Class Hierarchy</title>
<polygon fill="#ffffff" stroke="transparent" points="-4,4 -4,-84 344,-84 344,4 -4,4"/>
<!-- Node0 -->
<g id="node1" class="node">
<title>Node0</title>
<g id="a_node1"><a xlink:href="classcxx_1_1Bitfield_1_1Value__base.html" target="_top" xlink:title="Internal helper type. ">
<polygon fill="#ffffff" stroke="#000000" points="0,-24.5 0,-54.5 142,-54.5 142,-24.5 0,-24.5"/>
<text text-anchor="start" x="8" y="-42.5" font-family="Helvetica,sans-Serif" font-size="10.00" fill="#000000">cxx::Bitfield&lt; T, LSB,</text>
<text text-anchor="middle" x="71" y="-31.5" font-family="Helvetica,sans-Serif" font-size="10.00" fill="#000000"> MSB &gt;::Value_base&lt; TT &gt;</text>
</a>
</g>
</g>
<!-- Node1 -->
<g id="node2" class="node">
<title>Node1</title>
<g id="a_node2"><a xlink:href="classcxx_1_1Bitfield_1_1Value.html" target="_top" xlink:title="Internal helper type. ">
<polygon fill="#ffffff" stroke="#000000" points="202.5,-49.5 202.5,-79.5 315.5,-79.5 315.5,-49.5 202.5,-49.5"/>
<text text-anchor="start" x="210.5" y="-67.5" font-family="Helvetica,sans-Serif" font-size="10.00" fill="#000000">cxx::Bitfield&lt; T, LSB,</text>
<text text-anchor="middle" x="259" y="-56.5" font-family="Helvetica,sans-Serif" font-size="10.00" fill="#000000"> MSB &gt;::Value&lt; TT &gt;</text>
</a>
</g>
</g>
<!-- Node0&#45;&gt;Node1 -->
<g id="edge1" class="edge">
<title>Node0&#45;&gt;Node1</title>
<path fill="none" stroke="#191970" d="M152.0023,-50.2716C169.0064,-52.5328 186.5889,-54.8709 202.4664,-56.9822"/>
<polygon fill="#191970" stroke="#191970" points="152.4489,-46.8002 142.0747,-48.9514 151.5261,-53.7392 152.4489,-46.8002"/>
</g>
<!-- Node2 -->
<g id="node3" class="node">
<title>Node2</title>
<g id="a_node3"><a xlink:href="classcxx_1_1Bitfield_1_1Value__unshifted.html" target="_top" xlink:title="Internal helper type. ">
<polygon fill="#ffffff" stroke="#000000" points="178,-.5 178,-30.5 340,-30.5 340,-.5 178,-.5"/>
<text text-anchor="start" x="186" y="-18.5" font-family="Helvetica,sans-Serif" font-size="10.00" fill="#000000">cxx::Bitfield&lt; T, LSB,</text>
<text text-anchor="middle" x="259" y="-7.5" font-family="Helvetica,sans-Serif" font-size="10.00" fill="#000000"> MSB &gt;::Value_unshifted&lt; TT &gt;</text>
</a>
</g>
</g>
<!-- Node0&#45;&gt;Node2 -->
<g id="edge2" class="edge">
<title>Node0&#45;&gt;Node2</title>
<path fill="none" stroke="#191970" d="M152.0023,-29.1593C160.5308,-28.0705 169.2049,-26.9632 177.7363,-25.8741"/>
<polygon fill="#191970" stroke="#191970" points="151.551,-25.6884 142.0747,-30.4266 152.4375,-32.632 151.551,-25.6884"/>
</g>
</g>
</svg>
