<?xml version="1.0" encoding="UTF-8" standalone="no"?>
<!DOCTYPE svg PUBLIC "-//W3C//DTD SVG 1.1//EN"
 "http://www.w3.org/Graphics/SVG/1.1/DTD/svg11.dtd">
<!-- Generated by graphviz version 2.40.1 (20161225.0304)
 -->
<!-- Title: Graphical Class Hierarchy Pages: 1 -->
<svg width="241pt" height="66pt"
 viewBox="0.00 0.00 241.00 66.00" xmlns="http://www.w3.org/2000/svg" xmlns:xlink="http://www.w3.org/1999/xlink">
<g id="graph0" class="graph" transform="scale(1 1) rotate(0) translate(4 62)">
<title>Graphical Class Hierarchy</title>
<polygon fill="#ffffff" stroke="transparent" points="-4,4 -4,-62 237,-62 237,4 -4,4"/>
<!-- Node373 -->
<g id="node1" class="node">
<title>Node373</title>
<g id="a_node1"><a xlink:href="classL4_1_1Basic__registry.html" target="_top" xlink:title="This registry returns the corresponding server object based on the label of an Ipc_gate. ">
<polygon fill="#ffffff" stroke="#000000" points=".5,-38.5 .5,-57.5 100.5,-57.5 100.5,-38.5 .5,-38.5"/>
<text text-anchor="middle" x="50.5" y="-45.5" font-family="Helvetica,sans-Serif" font-size="10.00" fill="#000000">L4::Basic_registry</text>
</a>
</g>
</g>
<!-- Node1 -->
<g id="node2" class="node">
<title>Node1</title>
<g id="a_node2"><a xlink:href="classL4Re_1_1Util_1_1Object__registry.html" target="_top" xlink:title="A registry that manages server objects and their attached IPC gates for a single server loop for a sp...">
<polygon fill="#ffffff" stroke="#000000" points="137,-14 137,-44 233,-44 233,-14 137,-14"/>
<text text-anchor="start" x="145" y="-32" font-family="Helvetica,sans-Serif" font-size="10.00" fill="#000000">L4Re::Util::Object</text>
<text text-anchor="middle" x="185" y="-21" font-family="Helvetica,sans-Serif" font-size="10.00" fill="#000000">_registry</text>
</a>
</g>
</g>
<!-- Node373&#45;&gt;Node1 -->
<g id="edge1" class="edge">
<title>Node373&#45;&gt;Node1</title>
<path fill="none" stroke="#191970" d="M110.6837,-39.4982C119.3806,-38.2697 128.2369,-37.0186 136.6621,-35.8284"/>
<polygon fill="#191970" stroke="#191970" points="109.9949,-36.0607 100.5828,-40.9251 110.9741,-42.9919 109.9949,-36.0607"/>
</g>
<!-- Node0 -->
<g id="node3" class="node">
<title>Node0</title>
<g id="a_node3"><a xlink:href="classL4_1_1Registry__iface.html" target="_top" xlink:title="Abstract interface for object registries. ">
<polygon fill="#ffffff" stroke="#000000" points="0,-.5 0,-19.5 101,-19.5 101,-.5 0,-.5"/>
<text text-anchor="middle" x="50.5" y="-7.5" font-family="Helvetica,sans-Serif" font-size="10.00" fill="#000000">L4::Registry_iface</text>
</a>
</g>
</g>
<!-- Node0&#45;&gt;Node1 -->
<g id="edge2" class="edge">
<title>Node0&#45;&gt;Node1</title>
<path fill="none" stroke="#191970" d="M111.2717,-18.5848C119.808,-19.7907 128.4849,-21.0164 136.7452,-22.1833"/>
<polygon fill="#191970" stroke="#191970" points="111.74,-15.1163 101.3487,-17.1831 110.7608,-22.0475 111.74,-15.1163"/>
</g>
</g>
</svg>
