<?xml version="1.0" encoding="UTF-8" standalone="no"?>
<!DOCTYPE svg PUBLIC "-//W3C//DTD SVG 1.1//EN"
 "http://www.w3.org/Graphics/SVG/1.1/DTD/svg11.dtd">
<!-- Generated by graphviz version 2.40.1 (20161225.0304)
 -->
<!-- Title: Graphical Class Hierarchy Pages: 1 -->
<svg width="453pt" height="50pt"
 viewBox="0.00 0.00 453.00 50.00" xmlns="http://www.w3.org/2000/svg" xmlns:xlink="http://www.w3.org/1999/xlink">
<g id="graph0" class="graph" transform="scale(1 1) rotate(0) translate(4 46)">
<title>Graphical Class Hierarchy</title>
<polygon fill="#ffffff" stroke="transparent" points="-4,4 -4,-46 449,-46 449,4 -4,4"/>
<!-- Node0 -->
<g id="node1" class="node">
<title>Node0</title>
<g id="a_node1"><a xlink:href="classcxx_1_1Bits_1_1Basic__list.html" target="_top" xlink:title="cxx::Bits::Basic_list\l\&lt; Bits::Basic_list_policy\l\&lt; T, H_list_item_t\&lt; T \&gt; \&gt; \&gt;">
<polygon fill="#ffffff" stroke="#000000" points="0,-.5 0,-41.5 141,-41.5 141,-.5 0,-.5"/>
<text text-anchor="start" x="8" y="-29.5" font-family="Helvetica,sans-Serif" font-size="10.00" fill="#000000">cxx::Bits::Basic_list</text>
<text text-anchor="start" x="8" y="-18.5" font-family="Helvetica,sans-Serif" font-size="10.00" fill="#000000">&lt; Bits::Basic_list_policy</text>
<text text-anchor="middle" x="70.5" y="-7.5" font-family="Helvetica,sans-Serif" font-size="10.00" fill="#000000">&lt; T, H_list_item_t&lt; T &gt; &gt; &gt;</text>
</a>
</g>
</g>
<!-- Node1 -->
<g id="node2" class="node">
<title>Node1</title>
<g id="a_node2"><a xlink:href="classcxx_1_1H__list.html" target="_top" xlink:title="cxx::H_list\&lt; T, Bits\l::Basic_list_policy\&lt;\l T, H_list_item_t\&lt; T \&gt; \&gt; \&gt;">
<polygon fill="#ffffff" stroke="#000000" points="177,-.5 177,-41.5 312,-41.5 312,-.5 177,-.5"/>
<text text-anchor="start" x="185" y="-29.5" font-family="Helvetica,sans-Serif" font-size="10.00" fill="#000000">cxx::H_list&lt; T, Bits</text>
<text text-anchor="start" x="185" y="-18.5" font-family="Helvetica,sans-Serif" font-size="10.00" fill="#000000">::Basic_list_policy&lt;</text>
<text text-anchor="middle" x="244.5" y="-7.5" font-family="Helvetica,sans-Serif" font-size="10.00" fill="#000000"> T, H_list_item_t&lt; T &gt; &gt; &gt;</text>
</a>
</g>
</g>
<!-- Node0&#45;&gt;Node1 -->
<g id="edge1" class="edge">
<title>Node0&#45;&gt;Node1</title>
<path fill="none" stroke="#191970" d="M151.1168,-21C159.7671,-21 168.5021,-21 176.977,-21"/>
<polygon fill="#191970" stroke="#191970" points="151.0217,-17.5001 141.0216,-21 151.0216,-24.5001 151.0217,-17.5001"/>
</g>
<!-- Node2 -->
<g id="node3" class="node">
<title>Node2</title>
<g id="a_node3"><a xlink:href="structcxx_1_1H__list__t.html" target="_top" xlink:title="Double&#45;linked list of typed H_list_item_t elements. ">
<polygon fill="#ffffff" stroke="#000000" points="348,-11.5 348,-30.5 445,-30.5 445,-11.5 348,-11.5"/>
<text text-anchor="middle" x="396.5" y="-18.5" font-family="Helvetica,sans-Serif" font-size="10.00" fill="#000000">cxx::H_list_t&lt; T &gt;</text>
</a>
</g>
</g>
<!-- Node1&#45;&gt;Node2 -->
<g id="edge2" class="edge">
<title>Node1&#45;&gt;Node2</title>
<path fill="none" stroke="#191970" d="M322.2639,-21C330.972,-21 339.6493,-21 347.8379,-21"/>
<polygon fill="#191970" stroke="#191970" points="322.0546,-17.5001 312.0546,-21 322.0546,-24.5001 322.0546,-17.5001"/>
</g>
</g>
</svg>
