<?xml version="1.0" encoding="UTF-8" standalone="no"?>
<!DOCTYPE svg PUBLIC "-//W3C//DTD SVG 1.1//EN"
 "http://www.w3.org/Graphics/SVG/1.1/DTD/svg11.dtd">
<!-- Generated by graphviz version 2.40.1 (20161225.0304)
 -->
<!-- Title: Graphical Class Hierarchy Pages: 1 -->
<svg width="258pt" height="39pt"
 viewBox="0.00 0.00 258.00 39.00" xmlns="http://www.w3.org/2000/svg" xmlns:xlink="http://www.w3.org/1999/xlink">
<g id="graph0" class="graph" transform="scale(1 1) rotate(0) translate(4 35)">
<title>Graphical Class Hierarchy</title>
<polygon fill="#ffffff" stroke="transparent" points="-4,4 -4,-35 254,-35 254,4 -4,4"/>
<!-- Node0 -->
<g id="node1" class="node">
<title>Node0</title>
<g id="a_node1"><a xlink:href="structL4_1_1Ipc_1_1Array__ref.html" target="_top" xlink:title="L4::Ipc::Array_ref\l\&lt; CHAR, LEN \&gt;">
<polygon fill="#ffffff" stroke="#000000" points="0,-.5 0,-30.5 96,-30.5 96,-.5 0,-.5"/>
<text text-anchor="start" x="8" y="-18.5" font-family="Helvetica,sans-Serif" font-size="10.00" fill="#000000">L4::Ipc::Array_ref</text>
<text text-anchor="middle" x="48" y="-7.5" font-family="Helvetica,sans-Serif" font-size="10.00" fill="#000000">&lt; CHAR, LEN &gt;</text>
</a>
</g>
</g>
<!-- Node1 -->
<g id="node2" class="node">
<title>Node1</title>
<g id="a_node2"><a xlink:href="structL4_1_1Ipc_1_1Array.html" target="_top" xlink:title="L4::Ipc::Array\&lt; CHAR,\l LEN \&gt;">
<polygon fill="#ffffff" stroke="#000000" points="132,-.5 132,-30.5 250,-30.5 250,-.5 132,-.5"/>
<text text-anchor="start" x="140" y="-18.5" font-family="Helvetica,sans-Serif" font-size="10.00" fill="#000000">L4::Ipc::Array&lt; CHAR,</text>
<text text-anchor="middle" x="191" y="-7.5" font-family="Helvetica,sans-Serif" font-size="10.00" fill="#000000"> LEN &gt;</text>
</a>
</g>
</g>
<!-- Node0&#45;&gt;Node1 -->
<g id="edge1" class="edge">
<title>Node0&#45;&gt;Node1</title>
<path fill="none" stroke="#191970" d="M106.202,-15.5C114.6866,-15.5 123.4301,-15.5 131.9317,-15.5"/>
<polygon fill="#191970" stroke="#191970" points="106.0148,-12.0001 96.0147,-15.5 106.0147,-19.0001 106.0148,-12.0001"/>
</g>
</g>
</svg>
