<?xml version="1.0" encoding="UTF-8" standalone="no"?>
<!DOCTYPE svg PUBLIC "-//W3C//DTD SVG 1.1//EN"
 "http://www.w3.org/Graphics/SVG/1.1/DTD/svg11.dtd">
<!-- Generated by graphviz version 2.40.1 (20161225.0304)
 -->
<!-- Title: operator&gt;&gt; Pages: 1 -->
<svg width="367pt" height="66pt"
 viewBox="0.00 0.00 367.00 66.00" xmlns="http://www.w3.org/2000/svg" xmlns:xlink="http://www.w3.org/1999/xlink">
<g id="graph0" class="graph" transform="scale(1 1) rotate(0) translate(4 62)">
<title>operator&gt;&gt;</title>
<polygon fill="#ffffff" stroke="transparent" points="-4,4 -4,-62 363,-62 363,4 -4,4"/>
<!-- Node14 -->
<g id="node1" class="node">
<title>Node14</title>
<polygon fill="#bfbfbf" stroke="#000000" points="0,-19.5 0,-38.5 69,-38.5 69,-19.5 0,-19.5"/>
<text text-anchor="middle" x="34.5" y="-26.5" font-family="Helvetica,sans-Serif" font-size="10.00" fill="#000000">operator&gt;&gt;</text>
</g>
<!-- Node15 -->
<g id="node2" class="node">
<title>Node15</title>
<g id="a_node2"><a xlink:href="classL4_1_1Ipc_1_1Istream.html#af4d28aa64235c822f624891154109a0c" target="_top" xlink:title="Copy out an array of type T with size elements. ">
<polygon fill="#ffffff" stroke="#000000" points="105,-38.5 105,-57.5 212,-57.5 212,-38.5 105,-38.5"/>
<text text-anchor="middle" x="158.5" y="-45.5" font-family="Helvetica,sans-Serif" font-size="10.00" fill="#000000">L4::Ipc::Istream::get</text>
</a>
</g>
</g>
<!-- Node14&#45;&gt;Node15 -->
<g id="edge1" class="edge">
<title>Node14&#45;&gt;Node15</title>
<path fill="none" stroke="#191970" d="M69.0409,-34.2926C77.0591,-35.5212 85.8452,-36.8674 94.6806,-38.2212"/>
<polygon fill="#191970" stroke="#191970" points="94.2239,-41.692 104.6387,-39.7471 95.2842,-34.7728 94.2239,-41.692"/>
</g>
<!-- Node16 -->
<g id="node3" class="node">
<title>Node16</title>
<g id="a_node3"><a xlink:href="ipc__stream.html#aabb21a8717620197539698c340d2b977" target="_top" xlink:title="Insert an element to type T into the stream s. ">
<polygon fill="#ffffff" stroke="#000000" points="124,-.5 124,-19.5 193,-19.5 193,-.5 124,-.5"/>
<text text-anchor="middle" x="158.5" y="-7.5" font-family="Helvetica,sans-Serif" font-size="10.00" fill="#000000">operator&lt;&lt;</text>
</a>
</g>
</g>
<!-- Node14&#45;&gt;Node16 -->
<g id="edge2" class="edge">
<title>Node14&#45;&gt;Node16</title>
<path fill="none" stroke="#191970" d="M69.0409,-23.7074C82.8984,-21.5841 99.0494,-19.1094 113.7847,-16.8515"/>
<polygon fill="#191970" stroke="#191970" points="114.3598,-20.3044 123.7143,-15.3301 113.2995,-13.3851 114.3598,-20.3044"/>
</g>
<!-- Node17 -->
<g id="node4" class="node">
<title>Node17</title>
<g id="a_node4"><a xlink:href="classL4_1_1Ipc_1_1Ostream.html#a0bb12677e48b2b08456b30a928aed8e7" target="_top" xlink:title="Put an array with size elements of type T into the stream. ">
<polygon fill="#ffffff" stroke="#000000" points="248,-.5 248,-19.5 359,-19.5 359,-.5 248,-.5"/>
<text text-anchor="middle" x="303.5" y="-7.5" font-family="Helvetica,sans-Serif" font-size="10.00" fill="#000000">L4::Ipc::Ostream::put</text>
</a>
</g>
</g>
<!-- Node16&#45;&gt;Node17 -->
<g id="edge3" class="edge">
<title>Node16&#45;&gt;Node17</title>
<path fill="none" stroke="#191970" d="M193.2311,-10C206.6331,-10 222.4241,-10 237.8032,-10"/>
<polygon fill="#191970" stroke="#191970" points="237.8208,-13.5001 247.8207,-10 237.8207,-6.5001 237.8208,-13.5001"/>
</g>
</g>
</svg>
