<?xml version="1.0" encoding="UTF-8" standalone="no"?>
<!DOCTYPE svg PUBLIC "-//W3C//DTD SVG 1.1//EN"
 "http://www.w3.org/Graphics/SVG/1.1/DTD/svg11.dtd">
<!-- Generated by graphviz version 2.40.1 (20161225.0304)
 -->
<!-- Title: l4/sys/cxx/ipc_client Pages: 1 -->
<svg width="491pt" height="229pt"
 viewBox="0.00 0.00 490.50 229.00" xmlns="http://www.w3.org/2000/svg" xmlns:xlink="http://www.w3.org/1999/xlink">
<g id="graph0" class="graph" transform="scale(1 1) rotate(0) translate(4 225)">
<title>l4/sys/cxx/ipc_client</title>
<polygon fill="#ffffff" stroke="transparent" points="-4,4 -4,-225 486.5,-225 486.5,4 -4,4"/>
<!-- Node18 -->
<g id="node1" class="node">
<title>Node18</title>
<polygon fill="#bfbfbf" stroke="#000000" points="177,-201.5 177,-220.5 287,-220.5 287,-201.5 177,-201.5"/>
<text text-anchor="middle" x="232" y="-208.5" font-family="Helvetica,sans-Serif" font-size="10.00" fill="#000000">l4/sys/cxx/ipc_client</text>
</g>
<!-- Node19 -->
<g id="node2" class="node">
<title>Node19</title>
<g id="a_node2"><a xlink:href="l4virtio_source.html" target="_top" xlink:title="l4/l4virtio/l4virtio">
<polygon fill="#ffffff" stroke="#000000" points="0,-140 0,-159 92,-159 92,-140 0,-140"/>
<text text-anchor="middle" x="46" y="-147" font-family="Helvetica,sans-Serif" font-size="10.00" fill="#000000">l4/l4virtio/l4virtio</text>
</a>
</g>
</g>
<!-- Node18&#45;&gt;Node19 -->
<g id="edge1" class="edge">
<title>Node18&#45;&gt;Node19</title>
<path fill="none" stroke="#191970" d="M193.4413,-198.2507C158.1499,-186.5818 106.7153,-169.5752 74.8584,-159.0419"/>
<polygon fill="#191970" stroke="#191970" points="192.3443,-201.5743 202.9375,-201.3906 194.5418,-194.9282 192.3443,-201.5743"/>
</g>
<!-- Node22 -->
<g id="node5" class="node">
<title>Node22</title>
<g id="a_node5"><a xlink:href="dataspace__impl_8h.html" target="_top" xlink:title="Dataspace client stub implementation. ">
<polygon fill="#ffffff" stroke="#000000" points="110,-134.5 110,-164.5 222,-164.5 222,-134.5 110,-134.5"/>
<text text-anchor="start" x="118" y="-152.5" font-family="Helvetica,sans-Serif" font-size="10.00" fill="#000000">l4/re/impl/dataspace</text>
<text text-anchor="middle" x="166" y="-141.5" font-family="Helvetica,sans-Serif" font-size="10.00" fill="#000000">_impl.h</text>
</a>
</g>
</g>
<!-- Node18&#45;&gt;Node22 -->
<g id="edge4" class="edge">
<title>Node18&#45;&gt;Node22</title>
<path fill="none" stroke="#191970" d="M214.2793,-194.4875C204.2788,-185.1689 191.8759,-173.6116 182.1454,-164.5446"/>
<polygon fill="#191970" stroke="#191970" points="211.9853,-197.134 221.6875,-201.3906 216.7574,-192.0127 211.9853,-197.134"/>
</g>
<!-- Node23 -->
<g id="node6" class="node">
<title>Node23</title>
<g id="a_node6"><a xlink:href="namespace__impl_8h.html" target="_top" xlink:title="Namespace client stub implementation. ">
<polygon fill="#ffffff" stroke="#000000" points="240.5,-134.5 240.5,-164.5 357.5,-164.5 357.5,-134.5 240.5,-134.5"/>
<text text-anchor="start" x="248.5" y="-152.5" font-family="Helvetica,sans-Serif" font-size="10.00" fill="#000000">l4/re/impl/namespace</text>
<text text-anchor="middle" x="299" y="-141.5" font-family="Helvetica,sans-Serif" font-size="10.00" fill="#000000">_impl.h</text>
</a>
</g>
</g>
<!-- Node18&#45;&gt;Node23 -->
<g id="edge5" class="edge">
<title>Node18&#45;&gt;Node23</title>
<path fill="none" stroke="#191970" d="M249.9892,-194.4875C260.1412,-185.1689 272.7321,-173.6116 282.61,-164.5446"/>
<polygon fill="#191970" stroke="#191970" points="247.469,-192.0499 242.4688,-201.3906 252.2025,-197.2068 247.469,-192.0499"/>
</g>
<!-- Node24 -->
<g id="node7" class="node">
<title>Node24</title>
<g id="a_node7"><a xlink:href="rm__impl_8h.html" target="_top" xlink:title="Region map client stub implementation. ">
<polygon fill="#ffffff" stroke="#000000" points="375.5,-140 375.5,-159 482.5,-159 482.5,-140 375.5,-140"/>
<text text-anchor="middle" x="429" y="-147" font-family="Helvetica,sans-Serif" font-size="10.00" fill="#000000">l4/re/impl/rm_impl.h</text>
</a>
</g>
</g>
<!-- Node18&#45;&gt;Node24 -->
<g id="edge6" class="edge">
<title>Node18&#45;&gt;Node24</title>
<path fill="none" stroke="#191970" d="M272.3608,-198.4001C309.7516,-186.7273 364.5498,-169.6202 398.4349,-159.0419"/>
<polygon fill="#191970" stroke="#191970" points="271.2839,-195.0696 262.7813,-201.3906 273.3699,-201.7515 271.2839,-195.0696"/>
</g>
<!-- Node20 -->
<g id="node3" class="node">
<title>Node20</title>
<g id="a_node3"><a xlink:href="server_2l4virtio_source.html" target="_top" xlink:title="l4/l4virtio/server\l/l4virtio">
<polygon fill="#ffffff" stroke="#000000" points="0,-67.5 0,-97.5 92,-97.5 92,-67.5 0,-67.5"/>
<text text-anchor="start" x="8" y="-85.5" font-family="Helvetica,sans-Serif" font-size="10.00" fill="#000000">l4/l4virtio/server</text>
<text text-anchor="middle" x="46" y="-74.5" font-family="Helvetica,sans-Serif" font-size="10.00" fill="#000000">/l4virtio</text>
</a>
</g>
</g>
<!-- Node19&#45;&gt;Node20 -->
<g id="edge2" class="edge">
<title>Node19&#45;&gt;Node20</title>
<path fill="none" stroke="#191970" d="M46,-129.7758C46,-119.4641 46,-107.0437 46,-97.5218"/>
<polygon fill="#191970" stroke="#191970" points="42.5001,-129.9005 46,-139.9005 49.5001,-129.9006 42.5001,-129.9005"/>
</g>
<!-- Node21 -->
<g id="node4" class="node">
<title>Node21</title>
<g id="a_node4"><a xlink:href="virtio-block_source.html" target="_top" xlink:title="l4/l4virtio/server\l/virtio&#45;block">
<polygon fill="#ffffff" stroke="#000000" points="0,-.5 0,-30.5 92,-30.5 92,-.5 0,-.5"/>
<text text-anchor="start" x="8" y="-18.5" font-family="Helvetica,sans-Serif" font-size="10.00" fill="#000000">l4/l4virtio/server</text>
<text text-anchor="middle" x="46" y="-7.5" font-family="Helvetica,sans-Serif" font-size="10.00" fill="#000000">/virtio&#45;block</text>
</a>
</g>
</g>
<!-- Node20&#45;&gt;Node21 -->
<g id="edge3" class="edge">
<title>Node20&#45;&gt;Node21</title>
<path fill="none" stroke="#191970" d="M46,-57.0249C46,-48.128 46,-38.4287 46,-30.6432"/>
<polygon fill="#191970" stroke="#191970" points="42.5001,-57.2966 46,-67.2967 49.5001,-57.2967 42.5001,-57.2966"/>
</g>
</g>
</svg>
