<?xml version="1.0" encoding="UTF-8" standalone="no"?>
<!DOCTYPE svg PUBLIC "-//W3C//DTD SVG 1.1//EN"
 "http://www.w3.org/Graphics/SVG/1.1/DTD/svg11.dtd">
<!-- Generated by graphviz version 2.40.1 (20161225.0304)
 -->
<!-- Title: l4/sys/cxx/ipc_iface Pages: 1 -->
<svg width="531pt" height="532pt"
 viewBox="0.00 0.00 531.42 532.00" xmlns="http://www.w3.org/2000/svg" xmlns:xlink="http://www.w3.org/1999/xlink">
<g id="graph0" class="graph" transform="scale(1 1) rotate(0) translate(4 528)">
<title>l4/sys/cxx/ipc_iface</title>
<polygon fill="#ffffff" stroke="transparent" points="-4,4 -4,-528 527.4162,-528 527.4162,4 -4,4"/>
<!-- Node0 -->
<g id="node1" class="node">
<title>Node0</title>
<polygon fill="#bfbfbf" stroke="#000000" points="327.9162,-504.5 327.9162,-523.5 434.9162,-523.5 434.9162,-504.5 327.9162,-504.5"/>
<text text-anchor="middle" x="381.4162" y="-511.5" font-family="Helvetica,sans-Serif" font-size="10.00" fill="#000000">l4/sys/cxx/ipc_iface</text>
</g>
<!-- Node1 -->
<g id="node2" class="node">
<title>Node1</title>
<g id="a_node2"><a xlink:href="ipc__basics_source.html" target="_top" xlink:title="l4/sys/cxx/ipc_basics">
<polygon fill="#ffffff" stroke="#000000" points="399.4162,-392.5 399.4162,-411.5 513.4162,-411.5 513.4162,-392.5 399.4162,-392.5"/>
<text text-anchor="middle" x="456.4162" y="-399.5" font-family="Helvetica,sans-Serif" font-size="10.00" fill="#000000">l4/sys/cxx/ipc_basics</text>
</a>
</g>
</g>
<!-- Node0&#45;&gt;Node1 -->
<g id="edge1" class="edge">
<title>Node0&#45;&gt;Node1</title>
<path fill="none" stroke="#191970" d="M400.626,-504.3773C414.391,-496.479 432.2311,-484.0009 442.4162,-468 451.1629,-454.2588 454.5381,-435.9711 455.7965,-422.1311"/>
<polygon fill="#191970" stroke="#191970" points="459.3143,-421.9429 456.4272,-411.749 452.3272,-421.5184 459.3143,-421.9429"/>
</g>
<!-- Node12 -->
<g id="node13" class="node">
<title>Node12</title>
<g id="a_node13"><a xlink:href="ipc__types.html" target="_top" xlink:title="l4/sys/cxx/ipc_types">
<polygon fill="#ffffff" stroke="#000000" points="201.4162,-448.5 201.4162,-467.5 311.4162,-467.5 311.4162,-448.5 201.4162,-448.5"/>
<text text-anchor="middle" x="256.4162" y="-455.5" font-family="Helvetica,sans-Serif" font-size="10.00" fill="#000000">l4/sys/cxx/ipc_types</text>
</a>
</g>
</g>
<!-- Node0&#45;&gt;Node12 -->
<g id="edge19" class="edge">
<title>Node0&#45;&gt;Node12</title>
<path fill="none" stroke="#191970" d="M359.9279,-504.3733C339.7722,-495.3435 309.4281,-481.7494 286.7981,-471.6111"/>
<polygon fill="#191970" stroke="#191970" points="288.1811,-468.3955 277.624,-467.5011 285.3191,-474.7838 288.1811,-468.3955"/>
</g>
<!-- Node16 -->
<g id="node17" class="node">
<title>Node16</title>
<g id="a_node17"><a xlink:href="____typeinfo_8h.html" target="_top" xlink:title="Type information handling. ">
<polygon fill="#ffffff" stroke="#000000" points="329.4162,-448.5 329.4162,-467.5 433.4162,-467.5 433.4162,-448.5 329.4162,-448.5"/>
<text text-anchor="middle" x="381.4162" y="-455.5" font-family="Helvetica,sans-Serif" font-size="10.00" fill="#000000">l4/sys/__typeinfo.h</text>
</a>
</g>
</g>
<!-- Node0&#45;&gt;Node16 -->
<g id="edge32" class="edge">
<title>Node0&#45;&gt;Node16</title>
<path fill="none" stroke="#191970" d="M381.4162,-504.2455C381.4162,-496.9382 381.4162,-486.6944 381.4162,-477.7046"/>
<polygon fill="#191970" stroke="#191970" points="384.9163,-477.6426 381.4162,-467.6427 377.9163,-477.6427 384.9163,-477.6426"/>
</g>
<!-- Node2 -->
<g id="node3" class="node">
<title>Node2</title>
<g id="a_node3"><a xlink:href="types.html" target="_top" xlink:title="types">
<polygon fill="#ffffff" stroke="#000000" points="360.4162,-336.5 360.4162,-355.5 402.4162,-355.5 402.4162,-336.5 360.4162,-336.5"/>
<text text-anchor="middle" x="381.4162" y="-343.5" font-family="Helvetica,sans-Serif" font-size="10.00" fill="#000000">types</text>
</a>
</g>
</g>
<!-- Node1&#45;&gt;Node2 -->
<g id="edge2" class="edge">
<title>Node1&#45;&gt;Node2</title>
<path fill="none" stroke="#191970" d="M443.3522,-392.2455C432.06,-383.814 415.5317,-371.4729 402.3891,-361.6598"/>
<polygon fill="#191970" stroke="#191970" points="404.4373,-358.8211 394.3305,-355.6427 400.2493,-364.4301 404.4373,-358.8211"/>
</g>
<!-- Node3 -->
<g id="node4" class="node">
<title>Node3</title>
<g id="a_node4"><a xlink:href="l4_2sys_2utcb_8h.html" target="_top" xlink:title="UTCB definitions. ">
<polygon fill="#ffffff" stroke="#000000" points="363.4162,-224.5 363.4162,-243.5 437.4162,-243.5 437.4162,-224.5 363.4162,-224.5"/>
<text text-anchor="middle" x="400.4162" y="-231.5" font-family="Helvetica,sans-Serif" font-size="10.00" fill="#000000">l4/sys/utcb.h</text>
</a>
</g>
</g>
<!-- Node1&#45;&gt;Node3 -->
<g id="edge3" class="edge">
<title>Node1&#45;&gt;Node3</title>
<path fill="none" stroke="#191970" d="M453.2449,-392.4862C444.3543,-365.8144 419.0534,-289.9117 406.9812,-253.695"/>
<polygon fill="#191970" stroke="#191970" points="410.1749,-252.2079 403.6921,-243.8279 403.5341,-254.4215 410.1749,-252.2079"/>
</g>
<!-- Node11 -->
<g id="node12" class="node">
<title>Node11</title>
<g id="a_node12"><a xlink:href="err_8h.html" target="_top" xlink:title="Error codes. ">
<polygon fill="#ffffff" stroke="#000000" points="455.4162,-224.5 455.4162,-243.5 523.4162,-243.5 523.4162,-224.5 455.4162,-224.5"/>
<text text-anchor="middle" x="489.4162" y="-231.5" font-family="Helvetica,sans-Serif" font-size="10.00" fill="#000000">l4/sys/err.h</text>
</a>
</g>
</g>
<!-- Node1&#45;&gt;Node11 -->
<g id="edge17" class="edge">
<title>Node1&#45;&gt;Node11</title>
<path fill="none" stroke="#191970" d="M458.285,-392.4862C463.5241,-365.8144 478.4335,-289.9117 485.5475,-253.695"/>
<polygon fill="#191970" stroke="#191970" points="488.9925,-254.315 487.4857,-243.8279 482.1238,-252.9657 488.9925,-254.315"/>
</g>
<!-- Node4 -->
<g id="node5" class="node">
<title>Node4</title>
<g id="a_node5"><a xlink:href="l4_2sys_2types_8h.html" target="_top" xlink:title="Common L4 ABI Data Types. ">
<polygon fill="#ffffff" stroke="#000000" points="238.4162,-168.5 238.4162,-187.5 318.4162,-187.5 318.4162,-168.5 238.4162,-168.5"/>
<text text-anchor="middle" x="278.4162" y="-175.5" font-family="Helvetica,sans-Serif" font-size="10.00" fill="#000000">l4/sys/types.h</text>
</a>
</g>
</g>
<!-- Node3&#45;&gt;Node4 -->
<g id="edge4" class="edge">
<title>Node3&#45;&gt;Node4</title>
<path fill="none" stroke="#191970" d="M379.4436,-224.3733C359.8595,-215.3838 330.4201,-201.8706 308.3652,-191.7471"/>
<polygon fill="#191970" stroke="#191970" points="309.6635,-188.4919 299.1151,-187.5011 306.7433,-194.8538 309.6635,-188.4919"/>
</g>
<!-- Node5 -->
<g id="node6" class="node">
<title>Node5</title>
<g id="a_node6"><a xlink:href="l4_2sys_2l4int_8h.html" target="_top" xlink:title="Fixed sized integer types, generic version. ">
<polygon fill="#ffffff" stroke="#000000" points="85.4162,-56.5 85.4162,-75.5 159.4162,-75.5 159.4162,-56.5 85.4162,-56.5"/>
<text text-anchor="middle" x="122.4162" y="-63.5" font-family="Helvetica,sans-Serif" font-size="10.00" fill="#000000">l4/sys/l4int.h</text>
</a>
</g>
</g>
<!-- Node3&#45;&gt;Node5 -->
<g id="edge16" class="edge">
<title>Node3&#45;&gt;Node5</title>
<path fill="none" stroke="#191970" d="M399.9988,-224.306C398.4435,-201.0411 391.0973,-141.7722 356.4162,-112 328.9467,-88.4186 229.8061,-75.5888 169.7359,-69.8258"/>
<polygon fill="#191970" stroke="#191970" points="170.0051,-66.3358 159.7243,-68.8958 169.3577,-73.3058 170.0051,-66.3358"/>
</g>
<!-- Node6 -->
<g id="node7" class="node">
<title>Node6</title>
<g id="a_node7"><a xlink:href="compiler_8h.html" target="_top" xlink:title="L4 compiler related defines. ">
<polygon fill="#ffffff" stroke="#000000" points="327.9162,-56.5 327.9162,-75.5 422.9162,-75.5 422.9162,-56.5 327.9162,-56.5"/>
<text text-anchor="middle" x="375.4162" y="-63.5" font-family="Helvetica,sans-Serif" font-size="10.00" fill="#000000">l4/sys/compiler.h</text>
</a>
</g>
</g>
<!-- Node3&#45;&gt;Node6 -->
<g id="edge15" class="edge">
<title>Node3&#45;&gt;Node6</title>
<path fill="none" stroke="#191970" d="M408.0781,-224.4654C414.6649,-215.6125 423.6759,-201.7614 427.4162,-188 436.2755,-155.4047 441.2903,-142.7969 427.4162,-112 421.8465,-99.6369 411.1299,-89.2563 400.8656,-81.5033"/>
<polygon fill="#191970" stroke="#191970" points="402.6711,-78.4948 392.4729,-75.623 398.6544,-84.2277 402.6711,-78.4948"/>
</g>
<!-- Node4&#45;&gt;Node5 -->
<g id="edge5" class="edge">
<title>Node4&#45;&gt;Node5</title>
<path fill="none" stroke="#191970" d="M238.1354,-174.0463C166.078,-166.5652 21.2158,-149.5127 6.4162,-132 -17.4676,-103.7378 33.588,-85.0528 75.3804,-74.9942"/>
<polygon fill="#191970" stroke="#191970" points="76.2447,-78.387 85.2097,-72.7409 74.6805,-71.564 76.2447,-78.387"/>
</g>
<!-- Node4&#45;&gt;Node6 -->
<g id="edge6" class="edge">
<title>Node4&#45;&gt;Node6</title>
<path fill="none" stroke="#191970" d="M304.7591,-168.4589C321.8146,-161.0032 343.2258,-149.0264 356.4162,-132 366.7878,-118.6121 371.4994,-99.764 373.6388,-85.6354"/>
<polygon fill="#191970" stroke="#191970" points="377.1372,-85.8585 374.8622,-75.5108 370.1878,-85.0187 377.1372,-85.8585"/>
</g>
<!-- Node8 -->
<g id="node9" class="node">
<title>Node8</title>
<g id="a_node9"><a xlink:href="l4_2sys_2consts_8h.html" target="_top" xlink:title="Common constants. ">
<polygon fill="#ffffff" stroke="#000000" points="135.4162,-112.5 135.4162,-131.5 221.4162,-131.5 221.4162,-112.5 135.4162,-112.5"/>
<text text-anchor="middle" x="178.4162" y="-119.5" font-family="Helvetica,sans-Serif" font-size="10.00" fill="#000000">l4/sys/consts.h</text>
</a>
</g>
</g>
<!-- Node4&#45;&gt;Node8 -->
<g id="edge8" class="edge">
<title>Node4&#45;&gt;Node8</title>
<path fill="none" stroke="#191970" d="M260.9975,-168.2455C245.3677,-159.4928 222.2143,-146.527 204.3977,-136.5496"/>
<polygon fill="#191970" stroke="#191970" points="206.0704,-133.475 195.6352,-131.6427 202.6502,-139.5825 206.0704,-133.475"/>
</g>
<!-- Node9 -->
<g id="node10" class="node">
<title>Node9</title>
<g id="a_node10"><a xlink:href="____l4__fpage_8h_source.html" target="_top" xlink:title="l4/sys/__l4_fpage.h">
<polygon fill="#ffffff" stroke="#000000" points="239.4162,-112.5 239.4162,-131.5 347.4162,-131.5 347.4162,-112.5 239.4162,-112.5"/>
<text text-anchor="middle" x="293.4162" y="-119.5" font-family="Helvetica,sans-Serif" font-size="10.00" fill="#000000">l4/sys/__l4_fpage.h</text>
</a>
</g>
</g>
<!-- Node4&#45;&gt;Node9 -->
<g id="edge11" class="edge">
<title>Node4&#45;&gt;Node9</title>
<path fill="none" stroke="#191970" d="M281.029,-168.2455C283.0078,-160.8579 285.7906,-150.4689 288.2174,-141.4087"/>
<polygon fill="#191970" stroke="#191970" points="291.6267,-142.2078 290.8333,-131.6427 284.8651,-140.3966 291.6267,-142.2078"/>
</g>
<!-- Node10 -->
<g id="node11" class="node">
<title>Node10</title>
<g id="a_node11"><a xlink:href="____timeout_8h_source.html" target="_top" xlink:title="l4/sys/__timeout.h">
<polygon fill="#ffffff" stroke="#000000" points="15.9162,-112.5 15.9162,-131.5 116.9162,-131.5 116.9162,-112.5 15.9162,-112.5"/>
<text text-anchor="middle" x="66.4162" y="-119.5" font-family="Helvetica,sans-Serif" font-size="10.00" fill="#000000">l4/sys/__timeout.h</text>
</a>
</g>
</g>
<!-- Node4&#45;&gt;Node10 -->
<g id="edge13" class="edge">
<title>Node4&#45;&gt;Node10</title>
<path fill="none" stroke="#191970" d="M241.9721,-168.3733C206.1093,-158.9001 151.2283,-144.4032 112.388,-134.1435"/>
<polygon fill="#191970" stroke="#191970" points="112.947,-130.6712 102.3847,-131.5011 111.1592,-137.439 112.947,-130.6712"/>
</g>
<!-- Node7 -->
<g id="node8" class="node">
<title>Node7</title>
<polygon fill="#ffffff" stroke="#bfbfbf" points="330.9162,-.5 330.9162,-19.5 419.9162,-19.5 419.9162,-.5 330.9162,-.5"/>
<text text-anchor="middle" x="375.4162" y="-7.5" font-family="Helvetica,sans-Serif" font-size="10.00" fill="#000000">l4/sys/linkage.h</text>
</g>
<!-- Node6&#45;&gt;Node7 -->
<g id="edge7" class="edge">
<title>Node6&#45;&gt;Node7</title>
<path fill="none" stroke="#191970" d="M375.4162,-56.2455C375.4162,-48.9382 375.4162,-38.6944 375.4162,-29.7046"/>
<polygon fill="#191970" stroke="#191970" points="378.9163,-29.6426 375.4162,-19.6427 371.9163,-29.6427 378.9163,-29.6426"/>
</g>
<!-- Node8&#45;&gt;Node5 -->
<g id="edge10" class="edge">
<title>Node8&#45;&gt;Node5</title>
<path fill="none" stroke="#191970" d="M168.6617,-112.2455C160.5514,-104.1352 148.8237,-92.4075 139.2081,-82.7919"/>
<polygon fill="#191970" stroke="#191970" points="141.6048,-80.2389 132.0589,-75.6427 136.6551,-85.1887 141.6048,-80.2389"/>
</g>
<!-- Node8&#45;&gt;Node6 -->
<g id="edge9" class="edge">
<title>Node8&#45;&gt;Node6</title>
<path fill="none" stroke="#191970" d="M212.2817,-112.3733C245.4652,-102.9404 296.1712,-88.5265 332.2356,-78.2747"/>
<polygon fill="#191970" stroke="#191970" points="333.3307,-81.6021 341.9926,-75.5011 331.4166,-74.8689 333.3307,-81.6021"/>
</g>
<!-- Node9&#45;&gt;Node6 -->
<g id="edge12" class="edge">
<title>Node9&#45;&gt;Node6</title>
<path fill="none" stroke="#191970" d="M307.6995,-112.2455C320.1632,-103.7337 338.4613,-91.2375 352.8954,-81.3801"/>
<polygon fill="#191970" stroke="#191970" points="355.0124,-84.1726 361.2966,-75.6427 351.0646,-78.392 355.0124,-84.1726"/>
</g>
<!-- Node10&#45;&gt;Node5 -->
<g id="edge14" class="edge">
<title>Node10&#45;&gt;Node5</title>
<path fill="none" stroke="#191970" d="M76.1706,-112.2455C84.281,-104.1352 96.0087,-92.4075 105.6243,-82.7919"/>
<polygon fill="#191970" stroke="#191970" points="108.1773,-85.1887 112.7735,-75.6427 103.2275,-80.2389 108.1773,-85.1887"/>
</g>
<!-- Node11&#45;&gt;Node6 -->
<g id="edge18" class="edge">
<title>Node11&#45;&gt;Node6</title>
<path fill="none" stroke="#191970" d="M487.9699,-224.4585C484.2359,-202.5154 472.5262,-147.6212 444.4162,-112 434.0537,-98.8686 418.8843,-88.1813 405.4059,-80.4246"/>
<polygon fill="#191970" stroke="#191970" points="406.88,-77.242 396.4246,-75.5287 403.5296,-83.3881 406.88,-77.242"/>
</g>
<!-- Node12&#45;&gt;Node1 -->
<g id="edge31" class="edge">
<title>Node12&#45;&gt;Node1</title>
<path fill="none" stroke="#191970" d="M290.7974,-448.3733C324.4863,-438.9404 375.9644,-424.5265 412.578,-414.2747"/>
<polygon fill="#191970" stroke="#191970" points="413.7977,-417.5679 422.4836,-411.5011 411.9102,-410.8271 413.7977,-417.5679"/>
</g>
<!-- Node12&#45;&gt;Node2 -->
<g id="edge30" class="edge">
<title>Node12&#45;&gt;Node2</title>
<path fill="none" stroke="#191970" d="M267.0736,-448.4509C288.4756,-429.2747 336.8891,-385.8962 363.3371,-362.1988"/>
<polygon fill="#191970" stroke="#191970" points="365.6736,-364.8048 370.7857,-355.5249 361.0023,-359.5914 365.6736,-364.8048"/>
</g>
<!-- Node13 -->
<g id="node14" class="node">
<title>Node13</title>
<g id="a_node14"><a xlink:href="capability_8h_source.html" target="_top" xlink:title="capability.h">
<polygon fill="#ffffff" stroke="#000000" points="222.4162,-392.5 222.4162,-411.5 290.4162,-411.5 290.4162,-392.5 222.4162,-392.5"/>
<text text-anchor="middle" x="256.4162" y="-399.5" font-family="Helvetica,sans-Serif" font-size="10.00" fill="#000000">capability.h</text>
</a>
</g>
</g>
<!-- Node12&#45;&gt;Node13 -->
<g id="edge20" class="edge">
<title>Node12&#45;&gt;Node13</title>
<path fill="none" stroke="#191970" d="M256.4162,-448.2455C256.4162,-440.9382 256.4162,-430.6944 256.4162,-421.7046"/>
<polygon fill="#191970" stroke="#191970" points="259.9163,-421.6426 256.4162,-411.6427 252.9163,-421.6427 259.9163,-421.6426"/>
</g>
<!-- Node13&#45;&gt;Node4 -->
<g id="edge22" class="edge">
<title>Node13&#45;&gt;Node4</title>
<path fill="none" stroke="#191970" d="M256.6359,-392.1454C256.976,-379.2325 257.7705,-355.8901 259.4162,-336 263.5573,-285.9493 271.3972,-227.3143 275.5952,-197.5213"/>
<polygon fill="#191970" stroke="#191970" points="279.0641,-197.987 277.0105,-187.5931 272.1342,-196.9991 279.0641,-197.987"/>
</g>
<!-- Node13&#45;&gt;Node8 -->
<g id="edge21" class="edge">
<title>Node13&#45;&gt;Node8</title>
<path fill="none" stroke="#191970" d="M244.692,-392.2278C224.526,-374.249 185.4162,-333.7424 185.4162,-290 185.4162,-290 185.4162,-290 185.4162,-234 185.4162,-201.6486 182.4709,-164.1429 180.4013,-141.7814"/>
<polygon fill="#191970" stroke="#191970" points="183.8611,-141.1945 179.4191,-131.5758 176.8933,-141.8651 183.8611,-141.1945"/>
</g>
<!-- Node14 -->
<g id="node15" class="node">
<title>Node14</title>
<g id="a_node15"><a xlink:href="l4_2sys_2task_8h.html" target="_top" xlink:title="Common task related definitions. ">
<polygon fill="#ffffff" stroke="#000000" points="268.4162,-336.5 268.4162,-355.5 342.4162,-355.5 342.4162,-336.5 268.4162,-336.5"/>
<text text-anchor="middle" x="305.4162" y="-343.5" font-family="Helvetica,sans-Serif" font-size="10.00" fill="#000000">l4/sys/task.h</text>
</a>
</g>
</g>
<!-- Node13&#45;&gt;Node14 -->
<g id="edge23" class="edge">
<title>Node13&#45;&gt;Node14</title>
<path fill="none" stroke="#191970" d="M264.9513,-392.2455C271.9073,-384.2958 281.9044,-372.8706 290.2213,-363.3656"/>
<polygon fill="#191970" stroke="#191970" points="293.0278,-365.4732 296.9788,-355.6427 287.7597,-360.8637 293.0278,-365.4732"/>
</g>
<!-- Node14&#45;&gt;Node3 -->
<g id="edge25" class="edge">
<title>Node14&#45;&gt;Node3</title>
<path fill="none" stroke="#191970" d="M332.2913,-336.4156C349.3514,-328.9997 370.5617,-317.0851 383.4162,-300 393.4078,-286.7201 397.5529,-268.1454 399.2592,-254.0831"/>
<polygon fill="#191970" stroke="#191970" points="402.7597,-254.2338 400.1699,-243.9603 395.7879,-253.6065 402.7597,-254.2338"/>
</g>
<!-- Node14&#45;&gt;Node4 -->
<g id="edge24" class="edge">
<title>Node14&#45;&gt;Node4</title>
<path fill="none" stroke="#191970" d="M303.7123,-336.4936C302.0581,-327.1975 299.4989,-312.637 297.4162,-300 291.4578,-263.8474 284.9857,-221.5831 281.3422,-197.486"/>
<polygon fill="#191970" stroke="#191970" points="284.7886,-196.8672 279.8373,-187.5005 277.8667,-197.9105 284.7886,-196.8672"/>
</g>
<!-- Node15 -->
<g id="node16" class="node">
<title>Node15</title>
<g id="a_node16"><a xlink:href="l4_2sys_2ipc_8h.html" target="_top" xlink:title="Common IPC interface. ">
<polygon fill="#ffffff" stroke="#000000" points="306.4162,-280.5 306.4162,-299.5 374.4162,-299.5 374.4162,-280.5 306.4162,-280.5"/>
<text text-anchor="middle" x="340.4162" y="-287.5" font-family="Helvetica,sans-Serif" font-size="10.00" fill="#000000">l4/sys/ipc.h</text>
</a>
</g>
</g>
<!-- Node14&#45;&gt;Node15 -->
<g id="edge26" class="edge">
<title>Node14&#45;&gt;Node15</title>
<path fill="none" stroke="#191970" d="M311.5127,-336.2455C316.3307,-328.5367 323.1913,-317.5598 329.0194,-308.2348"/>
<polygon fill="#191970" stroke="#191970" points="332.0575,-309.9777 334.3895,-299.6427 326.1215,-306.2677 332.0575,-309.9777"/>
</g>
<!-- Node15&#45;&gt;Node3 -->
<g id="edge28" class="edge">
<title>Node15&#45;&gt;Node3</title>
<path fill="none" stroke="#191970" d="M350.8674,-280.2455C359.6431,-272.0549 372.3716,-260.1749 382.7302,-250.5069"/>
<polygon fill="#191970" stroke="#191970" points="385.1623,-253.0246 390.0847,-243.6427 380.386,-247.9072 385.1623,-253.0246"/>
</g>
<!-- Node15&#45;&gt;Node4 -->
<g id="edge27" class="edge">
<title>Node15&#45;&gt;Node4</title>
<path fill="none" stroke="#191970" d="M335.1301,-280.4509C324.835,-261.8533 301.9385,-220.4919 288.5999,-196.3964"/>
<polygon fill="#191970" stroke="#191970" points="291.5942,-194.5787 283.6889,-187.5249 285.47,-197.969 291.5942,-194.5787"/>
</g>
<!-- Node15&#45;&gt;Node11 -->
<g id="edge29" class="edge">
<title>Node15&#45;&gt;Node11</title>
<path fill="none" stroke="#191970" d="M366.0302,-280.3733C390.4849,-271.1822 427.5216,-257.2624 454.6371,-247.0713"/>
<polygon fill="#191970" stroke="#191970" points="456.0071,-250.2956 464.1364,-243.5011 453.5443,-243.7431 456.0071,-250.2956"/>
</g>
<!-- Node16&#45;&gt;Node1 -->
<g id="edge34" class="edge">
<title>Node16&#45;&gt;Node1</title>
<path fill="none" stroke="#191970" d="M394.4802,-448.2455C405.7724,-439.814 422.3007,-427.4729 435.4433,-417.6598"/>
<polygon fill="#191970" stroke="#191970" points="437.5831,-420.4301 443.5019,-411.6427 433.395,-414.8211 437.5831,-420.4301"/>
</g>
<!-- Node16&#45;&gt;Node2 -->
<g id="edge33" class="edge">
<title>Node16&#45;&gt;Node2</title>
<path fill="none" stroke="#191970" d="M381.4162,-448.4509C381.4162,-430.184 381.4162,-389.9553 381.4162,-365.6976"/>
<polygon fill="#191970" stroke="#191970" points="384.9163,-365.5249 381.4162,-355.5249 377.9163,-365.5249 384.9163,-365.5249"/>
</g>
<!-- Node16&#45;&gt;Node13 -->
<g id="edge35" class="edge">
<title>Node16&#45;&gt;Node13</title>
<path fill="none" stroke="#191970" d="M359.9279,-448.3733C339.7722,-439.3435 309.4281,-425.7494 286.7981,-415.6111"/>
<polygon fill="#191970" stroke="#191970" points="288.1811,-412.3955 277.624,-411.5011 285.3191,-418.7838 288.1811,-412.3955"/>
</g>
</g>
</svg>
