<?xml version="1.0" encoding="UTF-8" standalone="no"?>
<!DOCTYPE svg PUBLIC "-//W3C//DTD SVG 1.1//EN"
 "http://www.w3.org/Graphics/SVG/1.1/DTD/svg11.dtd">
<!-- Generated by graphviz version 2.40.1 (20161225.0304)
 -->
<!-- Title: l4/sys/cxx/ipc_types Pages: 1 -->
<svg width="554pt" height="476pt"
 viewBox="0.00 0.00 554.00 476.00" xmlns="http://www.w3.org/2000/svg" xmlns:xlink="http://www.w3.org/1999/xlink">
<g id="graph0" class="graph" transform="scale(1 1) rotate(0) translate(4 472)">
<title>l4/sys/cxx/ipc_types</title>
<polygon fill="#ffffff" stroke="transparent" points="-4,4 -4,-472 550,-472 550,4 -4,4"/>
<!-- Node0 -->
<g id="node1" class="node">
<title>Node0</title>
<polygon fill="#bfbfbf" stroke="#000000" points="272,-448.5 272,-467.5 382,-467.5 382,-448.5 272,-448.5"/>
<text text-anchor="middle" x="327" y="-455.5" font-family="Helvetica,sans-Serif" font-size="10.00" fill="#000000">l4/sys/cxx/ipc_types</text>
</g>
<!-- Node1 -->
<g id="node2" class="node">
<title>Node1</title>
<g id="a_node2"><a xlink:href="capability_8h_source.html" target="_top" xlink:title="capability.h">
<polygon fill="#ffffff" stroke="#000000" points="197,-392.5 197,-411.5 265,-411.5 265,-392.5 197,-392.5"/>
<text text-anchor="middle" x="231" y="-399.5" font-family="Helvetica,sans-Serif" font-size="10.00" fill="#000000">capability.h</text>
</a>
</g>
</g>
<!-- Node0&#45;&gt;Node1 -->
<g id="edge1" class="edge">
<title>Node0&#45;&gt;Node1</title>
<path fill="none" stroke="#191970" d="M310.2781,-448.2455C295.4111,-439.5731 273.4534,-426.7645 256.4142,-416.825"/>
<polygon fill="#191970" stroke="#191970" points="257.9317,-413.6582 247.5303,-411.6427 254.4045,-419.7047 257.9317,-413.6582"/>
</g>
<!-- Node13 -->
<g id="node14" class="node">
<title>Node13</title>
<g id="a_node14"><a xlink:href="types.html" target="_top" xlink:title="types">
<polygon fill="#ffffff" stroke="#000000" points="318,-336.5 318,-355.5 360,-355.5 360,-336.5 318,-336.5"/>
<text text-anchor="middle" x="339" y="-343.5" font-family="Helvetica,sans-Serif" font-size="10.00" fill="#000000">types</text>
</a>
</g>
</g>
<!-- Node0&#45;&gt;Node13 -->
<g id="edge25" class="edge">
<title>Node0&#45;&gt;Node13</title>
<path fill="none" stroke="#191970" d="M328.0231,-448.4509C329.9803,-430.184 334.2905,-389.9553 336.8895,-365.6976"/>
<polygon fill="#191970" stroke="#191970" points="340.3941,-365.8409 337.9795,-355.5249 333.434,-365.0951 340.3941,-365.8409"/>
</g>
<!-- Node14 -->
<g id="node15" class="node">
<title>Node14</title>
<g id="a_node15"><a xlink:href="ipc__basics_source.html" target="_top" xlink:title="ipc_basics">
<polygon fill="#ffffff" stroke="#000000" points="355.5,-392.5 355.5,-411.5 420.5,-411.5 420.5,-392.5 355.5,-392.5"/>
<text text-anchor="middle" x="388" y="-399.5" font-family="Helvetica,sans-Serif" font-size="10.00" fill="#000000">ipc_basics</text>
</a>
</g>
</g>
<!-- Node0&#45;&gt;Node14 -->
<g id="edge26" class="edge">
<title>Node0&#45;&gt;Node14</title>
<path fill="none" stroke="#191970" d="M337.6254,-448.2455C346.5473,-440.0549 359.488,-428.1749 370.0192,-418.5069"/>
<polygon fill="#191970" stroke="#191970" points="372.4968,-420.9837 377.4964,-411.6427 367.7629,-415.8271 372.4968,-420.9837"/>
</g>
<!-- Node2 -->
<g id="node3" class="node">
<title>Node2</title>
<g id="a_node3"><a xlink:href="l4_2sys_2consts_8h.html" target="_top" xlink:title="Common constants. ">
<polygon fill="#ffffff" stroke="#000000" points="0,-112.5 0,-131.5 86,-131.5 86,-112.5 0,-112.5"/>
<text text-anchor="middle" x="43" y="-119.5" font-family="Helvetica,sans-Serif" font-size="10.00" fill="#000000">l4/sys/consts.h</text>
</a>
</g>
</g>
<!-- Node1&#45;&gt;Node2 -->
<g id="edge2" class="edge">
<title>Node1&#45;&gt;Node2</title>
<path fill="none" stroke="#191970" d="M203.9574,-392.4903C166.1304,-377.2562 102,-343.5346 102,-290 102,-290 102,-290 102,-234 102,-196.9131 76.3634,-160.0541 58.8885,-139.2374"/>
<polygon fill="#191970" stroke="#191970" points="61.4288,-136.8251 52.2188,-131.5881 56.1528,-141.4255 61.4288,-136.8251"/>
</g>
<!-- Node6 -->
<g id="node7" class="node">
<title>Node6</title>
<g id="a_node7"><a xlink:href="l4_2sys_2types_8h.html" target="_top" xlink:title="Common L4 ABI Data Types. ">
<polygon fill="#ffffff" stroke="#000000" points="223,-168.5 223,-187.5 303,-187.5 303,-168.5 223,-168.5"/>
<text text-anchor="middle" x="263" y="-175.5" font-family="Helvetica,sans-Serif" font-size="10.00" fill="#000000">l4/sys/types.h</text>
</a>
</g>
</g>
<!-- Node1&#45;&gt;Node6 -->
<g id="edge6" class="edge">
<title>Node1&#45;&gt;Node6</title>
<path fill="none" stroke="#191970" d="M227.1376,-392.3228C223.6962,-383.1446 218.9167,-368.8807 217,-356 215.6917,-347.2079 215.7451,-344.7999 217,-336 224.3283,-284.6128 244.4247,-226.582 255.4744,-197.2214"/>
<polygon fill="#191970" stroke="#191970" points="258.7873,-198.3573 259.0957,-187.767 252.2504,-195.8535 258.7873,-198.3573"/>
</g>
<!-- Node9 -->
<g id="node10" class="node">
<title>Node9</title>
<g id="a_node10"><a xlink:href="l4_2sys_2task_8h.html" target="_top" xlink:title="Common task related definitions. ">
<polygon fill="#ffffff" stroke="#000000" points="226,-336.5 226,-355.5 300,-355.5 300,-336.5 226,-336.5"/>
<text text-anchor="middle" x="263" y="-343.5" font-family="Helvetica,sans-Serif" font-size="10.00" fill="#000000">l4/sys/task.h</text>
</a>
</g>
</g>
<!-- Node1&#45;&gt;Node9 -->
<g id="edge14" class="edge">
<title>Node1&#45;&gt;Node9</title>
<path fill="none" stroke="#191970" d="M236.574,-392.2455C240.9331,-384.617 247.1211,-373.7881 252.4133,-364.5267"/>
<polygon fill="#191970" stroke="#191970" points="255.5673,-366.0616 257.4899,-355.6427 249.4896,-362.5886 255.5673,-366.0616"/>
</g>
<!-- Node3 -->
<g id="node4" class="node">
<title>Node3</title>
<g id="a_node4"><a xlink:href="compiler_8h.html" target="_top" xlink:title="L4 compiler related defines. ">
<polygon fill="#ffffff" stroke="#000000" points="306.5,-56.5 306.5,-75.5 401.5,-75.5 401.5,-56.5 306.5,-56.5"/>
<text text-anchor="middle" x="354" y="-63.5" font-family="Helvetica,sans-Serif" font-size="10.00" fill="#000000">l4/sys/compiler.h</text>
</a>
</g>
</g>
<!-- Node2&#45;&gt;Node3 -->
<g id="edge3" class="edge">
<title>Node2&#45;&gt;Node3</title>
<path fill="none" stroke="#191970" d="M86.2432,-114.2134C140.9124,-104.3695 235.2193,-87.3882 296.0728,-76.4306"/>
<polygon fill="#191970" stroke="#191970" points="297.0627,-79.8087 306.2842,-74.5919 295.8222,-72.9195 297.0627,-79.8087"/>
</g>
<!-- Node5 -->
<g id="node6" class="node">
<title>Node5</title>
<g id="a_node6"><a xlink:href="l4_2sys_2l4int_8h.html" target="_top" xlink:title="Fixed sized integer types, generic version. ">
<polygon fill="#ffffff" stroke="#000000" points="117,-56.5 117,-75.5 191,-75.5 191,-56.5 117,-56.5"/>
<text text-anchor="middle" x="154" y="-63.5" font-family="Helvetica,sans-Serif" font-size="10.00" fill="#000000">l4/sys/l4int.h</text>
</a>
</g>
</g>
<!-- Node2&#45;&gt;Node5 -->
<g id="edge5" class="edge">
<title>Node2&#45;&gt;Node5</title>
<path fill="none" stroke="#191970" d="M62.0816,-112.3733C79.7402,-103.4644 106.2053,-90.1127 126.2098,-80.0203"/>
<polygon fill="#191970" stroke="#191970" points="127.8158,-83.1303 135.1674,-75.5011 124.6628,-76.8806 127.8158,-83.1303"/>
</g>
<!-- Node4 -->
<g id="node5" class="node">
<title>Node4</title>
<polygon fill="#ffffff" stroke="#bfbfbf" points="309.5,-.5 309.5,-19.5 398.5,-19.5 398.5,-.5 309.5,-.5"/>
<text text-anchor="middle" x="354" y="-7.5" font-family="Helvetica,sans-Serif" font-size="10.00" fill="#000000">l4/sys/linkage.h</text>
</g>
<!-- Node3&#45;&gt;Node4 -->
<g id="edge4" class="edge">
<title>Node3&#45;&gt;Node4</title>
<path fill="none" stroke="#191970" d="M354,-56.2455C354,-48.9382 354,-38.6944 354,-29.7046"/>
<polygon fill="#191970" stroke="#191970" points="357.5001,-29.6426 354,-19.6427 350.5001,-29.6427 357.5001,-29.6426"/>
</g>
<!-- Node6&#45;&gt;Node2 -->
<g id="edge9" class="edge">
<title>Node6&#45;&gt;Node2</title>
<path fill="none" stroke="#191970" d="M225.1807,-168.3733C187.8062,-158.8598 130.5276,-144.2797 90.1929,-134.0127"/>
<polygon fill="#191970" stroke="#191970" points="90.8802,-130.5761 80.3258,-131.5011 89.1534,-137.3598 90.8802,-130.5761"/>
</g>
<!-- Node6&#45;&gt;Node3 -->
<g id="edge8" class="edge">
<title>Node6&#45;&gt;Node3</title>
<path fill="none" stroke="#191970" d="M265.3792,-168.1863C269.0721,-154.485 277.2302,-129.3566 291,-112 300.8887,-99.5355 314.9695,-88.8234 327.3121,-80.8805"/>
<polygon fill="#191970" stroke="#191970" points="329.2185,-83.8171 335.9074,-75.6007 325.5546,-77.8525 329.2185,-83.8171"/>
</g>
<!-- Node6&#45;&gt;Node5 -->
<g id="edge7" class="edge">
<title>Node6&#45;&gt;Node5</title>
<path fill="none" stroke="#191970" d="M222.9318,-169.1626C188.8155,-160.7299 143.6757,-147.1018 133,-132 122.8651,-117.6631 131.1234,-98.2094 140.09,-84.1401"/>
<polygon fill="#191970" stroke="#191970" points="143.067,-85.9895 145.8985,-75.78 137.3183,-81.9954 143.067,-85.9895"/>
</g>
<!-- Node7 -->
<g id="node8" class="node">
<title>Node7</title>
<g id="a_node8"><a xlink:href="____l4__fpage_8h_source.html" target="_top" xlink:title="l4/sys/__l4_fpage.h">
<polygon fill="#ffffff" stroke="#000000" points="300,-112.5 300,-131.5 408,-131.5 408,-112.5 300,-112.5"/>
<text text-anchor="middle" x="354" y="-119.5" font-family="Helvetica,sans-Serif" font-size="10.00" fill="#000000">l4/sys/__l4_fpage.h</text>
</a>
</g>
</g>
<!-- Node6&#45;&gt;Node7 -->
<g id="edge10" class="edge">
<title>Node6&#45;&gt;Node7</title>
<path fill="none" stroke="#191970" d="M278.851,-168.2455C292.8132,-159.6534 313.3728,-147.0014 329.4596,-137.1018"/>
<polygon fill="#191970" stroke="#191970" points="331.6484,-139.8645 338.3307,-131.6427 327.9797,-133.9029 331.6484,-139.8645"/>
</g>
<!-- Node8 -->
<g id="node9" class="node">
<title>Node8</title>
<g id="a_node9"><a xlink:href="____timeout_8h_source.html" target="_top" xlink:title="l4/sys/__timeout.h">
<polygon fill="#ffffff" stroke="#000000" points="142.5,-112.5 142.5,-131.5 243.5,-131.5 243.5,-112.5 142.5,-112.5"/>
<text text-anchor="middle" x="193" y="-119.5" font-family="Helvetica,sans-Serif" font-size="10.00" fill="#000000">l4/sys/__timeout.h</text>
</a>
</g>
</g>
<!-- Node6&#45;&gt;Node8 -->
<g id="edge12" class="edge">
<title>Node6&#45;&gt;Node8</title>
<path fill="none" stroke="#191970" d="M250.8069,-168.2455C240.3679,-159.8943 225.1345,-147.7076 212.926,-137.9408"/>
<polygon fill="#191970" stroke="#191970" points="215.0485,-135.1566 205.0533,-131.6427 210.6756,-140.6227 215.0485,-135.1566"/>
</g>
<!-- Node7&#45;&gt;Node3 -->
<g id="edge11" class="edge">
<title>Node7&#45;&gt;Node3</title>
<path fill="none" stroke="#191970" d="M354,-112.2455C354,-104.9382 354,-94.6944 354,-85.7046"/>
<polygon fill="#191970" stroke="#191970" points="357.5001,-85.6426 354,-75.6427 350.5001,-85.6427 357.5001,-85.6426"/>
</g>
<!-- Node8&#45;&gt;Node5 -->
<g id="edge13" class="edge">
<title>Node8&#45;&gt;Node5</title>
<path fill="none" stroke="#191970" d="M186.2067,-112.2455C180.7822,-104.4564 173.0339,-93.3308 166.4967,-83.9439"/>
<polygon fill="#191970" stroke="#191970" points="169.3025,-81.8485 160.7154,-75.6427 163.5583,-85.849 169.3025,-81.8485"/>
</g>
<!-- Node9&#45;&gt;Node6 -->
<g id="edge15" class="edge">
<title>Node9&#45;&gt;Node6</title>
<path fill="none" stroke="#191970" d="M263,-336.4862C263,-309.9293 263,-234.5651 263,-198.1655"/>
<polygon fill="#191970" stroke="#191970" points="266.5001,-197.8278 263,-187.8279 259.5001,-197.8279 266.5001,-197.8278"/>
</g>
<!-- Node10 -->
<g id="node11" class="node">
<title>Node10</title>
<g id="a_node11"><a xlink:href="l4_2sys_2utcb_8h.html" target="_top" xlink:title="UTCB definitions. ">
<polygon fill="#ffffff" stroke="#000000" points="348,-224.5 348,-243.5 422,-243.5 422,-224.5 348,-224.5"/>
<text text-anchor="middle" x="385" y="-231.5" font-family="Helvetica,sans-Serif" font-size="10.00" fill="#000000">l4/sys/utcb.h</text>
</a>
</g>
</g>
<!-- Node9&#45;&gt;Node10 -->
<g id="edge16" class="edge">
<title>Node9&#45;&gt;Node10</title>
<path fill="none" stroke="#191970" d="M273.4017,-336.4509C294.2,-317.3574 341.1347,-274.2697 367.0199,-250.5063"/>
<polygon fill="#191970" stroke="#191970" points="369.6251,-252.8659 374.6247,-243.5249 364.8912,-247.7093 369.6251,-252.8659"/>
</g>
<!-- Node11 -->
<g id="node12" class="node">
<title>Node11</title>
<g id="a_node12"><a xlink:href="l4_2sys_2ipc_8h.html" target="_top" xlink:title="Common IPC interface. ">
<polygon fill="#ffffff" stroke="#000000" points="416,-280.5 416,-299.5 484,-299.5 484,-280.5 416,-280.5"/>
<text text-anchor="middle" x="450" y="-287.5" font-family="Helvetica,sans-Serif" font-size="10.00" fill="#000000">l4/sys/ipc.h</text>
</a>
</g>
</g>
<!-- Node9&#45;&gt;Node11 -->
<g id="edge20" class="edge">
<title>Node9&#45;&gt;Node11</title>
<path fill="none" stroke="#191970" d="M295.1464,-336.3733C326.5109,-326.9807 374.3665,-312.6496 408.5716,-302.4064"/>
<polygon fill="#191970" stroke="#191970" points="409.6975,-305.7229 418.273,-299.5011 407.6893,-299.0171 409.6975,-305.7229"/>
</g>
<!-- Node10&#45;&gt;Node3 -->
<g id="edge18" class="edge">
<title>Node10&#45;&gt;Node3</title>
<path fill="none" stroke="#191970" d="M408.1112,-224.4901C423.0298,-216.9878 441.2331,-204.9445 450,-188 465.5218,-157.9998 467.9988,-140.5829 450,-112 440.286,-96.5737 423.805,-86.2059 407.214,-79.2886"/>
<polygon fill="#191970" stroke="#191970" points="408.0746,-75.8719 397.4832,-75.6024 405.5948,-82.418 408.0746,-75.8719"/>
</g>
<!-- Node10&#45;&gt;Node5 -->
<g id="edge19" class="edge">
<title>Node10&#45;&gt;Node5</title>
<path fill="none" stroke="#191970" d="M392.7173,-224.192C409.4392,-201.6883 445.3143,-145.6964 417,-112 403.2687,-95.6586 273.1477,-79.0193 201.2295,-70.9703"/>
<polygon fill="#191970" stroke="#191970" points="201.3859,-67.4663 191.0618,-69.8461 200.6166,-74.4239 201.3859,-67.4663"/>
</g>
<!-- Node10&#45;&gt;Node6 -->
<g id="edge17" class="edge">
<title>Node10&#45;&gt;Node6</title>
<path fill="none" stroke="#191970" d="M364.0275,-224.3733C344.4433,-215.3838 315.0039,-201.8706 292.949,-191.7471"/>
<polygon fill="#191970" stroke="#191970" points="294.2473,-188.4919 283.6989,-187.5011 291.3271,-194.8538 294.2473,-188.4919"/>
</g>
<!-- Node11&#45;&gt;Node6 -->
<g id="edge21" class="edge">
<title>Node11&#45;&gt;Node6</title>
<path fill="none" stroke="#191970" d="M450.0266,-280.4653C449.5322,-266.1718 446.4447,-239.2446 431,-224 414.3629,-207.5784 356.5466,-194.2142 313.3576,-186.2039"/>
<polygon fill="#191970" stroke="#191970" points="313.7444,-182.7172 303.2812,-184.3818 312.4988,-189.6055 313.7444,-182.7172"/>
</g>
<!-- Node11&#45;&gt;Node10 -->
<g id="edge22" class="edge">
<title>Node11&#45;&gt;Node10</title>
<path fill="none" stroke="#191970" d="M438.6779,-280.2455C429.0777,-271.9746 415.1108,-259.9416 403.8305,-250.2232"/>
<polygon fill="#191970" stroke="#191970" points="406.053,-247.5182 396.1924,-243.6427 401.484,-252.8214 406.053,-247.5182"/>
</g>
<!-- Node12 -->
<g id="node13" class="node">
<title>Node12</title>
<g id="a_node13"><a xlink:href="err_8h.html" target="_top" xlink:title="Error codes. ">
<polygon fill="#ffffff" stroke="#000000" points="478,-224.5 478,-243.5 546,-243.5 546,-224.5 478,-224.5"/>
<text text-anchor="middle" x="512" y="-231.5" font-family="Helvetica,sans-Serif" font-size="10.00" fill="#000000">l4/sys/err.h</text>
</a>
</g>
</g>
<!-- Node11&#45;&gt;Node12 -->
<g id="edge23" class="edge">
<title>Node11&#45;&gt;Node12</title>
<path fill="none" stroke="#191970" d="M460.7996,-280.2455C469.8678,-272.0549 483.0206,-260.1749 493.7245,-250.5069"/>
<polygon fill="#191970" stroke="#191970" points="496.2491,-252.9429 501.3242,-243.6427 491.5571,-247.7482 496.2491,-252.9429"/>
</g>
<!-- Node12&#45;&gt;Node3 -->
<g id="edge24" class="edge">
<title>Node12&#45;&gt;Node3</title>
<path fill="none" stroke="#191970" d="M511.1646,-224.3775C508.7071,-201.7787 499.5539,-144.7564 468,-112 452.7309,-96.149 431.2643,-85.604 411.0712,-78.6623"/>
<polygon fill="#191970" stroke="#191970" points="411.8841,-75.2478 401.2932,-75.5366 409.7526,-81.9154 411.8841,-75.2478"/>
</g>
<!-- Node14&#45;&gt;Node10 -->
<g id="edge28" class="edge">
<title>Node14&#45;&gt;Node10</title>
<path fill="none" stroke="#191970" d="M387.8301,-392.4862C387.3559,-365.9293 386.0101,-290.5651 385.3601,-254.1655"/>
<polygon fill="#191970" stroke="#191970" points="388.8536,-253.7638 385.1755,-243.8279 381.8547,-253.8888 388.8536,-253.7638"/>
</g>
<!-- Node14&#45;&gt;Node12 -->
<g id="edge29" class="edge">
<title>Node14&#45;&gt;Node12</title>
<path fill="none" stroke="#191970" d="M401.8064,-392.3854C424.2781,-376.0166 468.6926,-340.5421 493,-300 501.5264,-285.7788 506.396,-267.5326 509.0657,-253.8306"/>
<polygon fill="#191970" stroke="#191970" points="512.5833,-254.0254 510.8228,-243.5779 505.6839,-252.843 512.5833,-254.0254"/>
</g>
<!-- Node14&#45;&gt;Node13 -->
<g id="edge27" class="edge">
<title>Node14&#45;&gt;Node13</title>
<path fill="none" stroke="#191970" d="M379.4649,-392.2455C372.5088,-384.2958 362.5117,-372.8706 354.1949,-363.3656"/>
<polygon fill="#191970" stroke="#191970" points="356.6564,-360.8637 347.4373,-355.6427 351.3884,-365.4732 356.6564,-360.8637"/>
</g>
</g>
</svg>
