<?xml version="1.0" encoding="UTF-8" standalone="no"?>
<!DOCTYPE svg PUBLIC "-//W3C//DTD SVG 1.1//EN"
 "http://www.w3.org/Graphics/SVG/1.1/DTD/svg11.dtd">
<!-- Generated by graphviz version 2.40.1 (20161225.0304)
 -->
<!-- Title: l4/cxx/ipc_stream Pages: 1 -->
<svg width="1019pt" height="767pt"
 viewBox="0.00 0.00 1018.50 767.00" xmlns="http://www.w3.org/2000/svg" xmlns:xlink="http://www.w3.org/1999/xlink">
<g id="graph0" class="graph" transform="scale(1 1) rotate(0) translate(4 763)">
<title>l4/cxx/ipc_stream</title>
<polygon fill="#ffffff" stroke="transparent" points="-4,4 -4,-763 1014.5,-763 1014.5,4 -4,4"/>
<!-- Node0 -->
<g id="node1" class="node">
<title>Node0</title>
<polygon fill="#bfbfbf" stroke="#000000" points="533,-739.5 533,-758.5 631,-758.5 631,-739.5 533,-739.5"/>
<text text-anchor="middle" x="582" y="-746.5" font-family="Helvetica,sans-Serif" font-size="10.00" fill="#000000">l4/cxx/ipc_stream</text>
</g>
<!-- Node1 -->
<g id="node2" class="node">
<title>Node1</title>
<g id="a_node2"><a xlink:href="l4_2sys_2ipc_8h.html" target="_top" xlink:title="Common IPC interface. ">
<polygon fill="#ffffff" stroke="#000000" points="440,-280.5 440,-299.5 508,-299.5 508,-280.5 440,-280.5"/>
<text text-anchor="middle" x="474" y="-287.5" font-family="Helvetica,sans-Serif" font-size="10.00" fill="#000000">l4/sys/ipc.h</text>
</a>
</g>
</g>
<!-- Node0&#45;&gt;Node1 -->
<g id="edge1" class="edge">
<title>Node0&#45;&gt;Node1</title>
<path fill="none" stroke="#191970" d="M576.393,-739.4834C565.8226,-720.6141 544,-676.8343 544,-637 544,-637 544,-637 544,-525 544,-494.4754 544.1705,-482.7539 525,-459 503.7699,-432.6941 479.4193,-449.152 458,-423 441.519,-402.8774 444.8192,-392.7285 441,-367 438.977,-353.3716 436.7819,-349.1162 441,-336 444.3946,-325.4445 451.2058,-315.2592 457.7631,-307.1676"/>
<polygon fill="#191970" stroke="#191970" points="460.447,-309.4149 464.3508,-299.5654 455.1569,-304.8307 460.447,-309.4149"/>
</g>
<!-- Node11 -->
<g id="node12" class="node">
<title>Node11</title>
<g id="a_node12"><a xlink:href="capability.html" target="_top" xlink:title="L4::Cap related definitions. ">
<polygon fill="#ffffff" stroke="#000000" points="575,-683.5 575,-702.5 665,-702.5 665,-683.5 575,-683.5"/>
<text text-anchor="middle" x="620" y="-690.5" font-family="Helvetica,sans-Serif" font-size="10.00" fill="#000000">l4/sys/capability</text>
</a>
</g>
</g>
<!-- Node0&#45;&gt;Node11 -->
<g id="edge19" class="edge">
<title>Node0&#45;&gt;Node11</title>
<path fill="none" stroke="#191970" d="M588.6191,-739.2455C593.9046,-731.4564 601.4541,-720.3308 607.8238,-710.9439"/>
<polygon fill="#191970" stroke="#191970" points="610.7379,-712.8827 613.4568,-702.6427 604.9455,-708.9522 610.7379,-712.8827"/>
</g>
<!-- Node22 -->
<g id="node23" class="node">
<title>Node22</title>
<g id="a_node23"><a xlink:href="ipc__types.html" target="_top" xlink:title="l4/sys/cxx/ipc_types">
<polygon fill="#ffffff" stroke="#000000" points="276,-459.5 276,-478.5 386,-478.5 386,-459.5 276,-459.5"/>
<text text-anchor="middle" x="331" y="-466.5" font-family="Helvetica,sans-Serif" font-size="10.00" fill="#000000">l4/sys/cxx/ipc_types</text>
</a>
</g>
</g>
<!-- Node0&#45;&gt;Node22 -->
<g id="edge61" class="edge">
<title>Node0&#45;&gt;Node22</title>
<path fill="none" stroke="#191970" d="M545.6521,-739.4516C480.5993,-721.285 351,-679.7309 351,-637 351,-637 351,-637 351,-581 351,-548.2193 342.5945,-510.8705 336.6819,-488.6533"/>
<polygon fill="#191970" stroke="#191970" points="339.991,-487.4878 333.9511,-478.7832 333.2445,-489.3545 339.991,-487.4878"/>
</g>
<!-- Node25 -->
<g id="node26" class="node">
<title>Node25</title>
<g id="a_node26"><a xlink:href="ipc__varg_source.html" target="_top" xlink:title="l4/sys/cxx/ipc_varg">
<polygon fill="#ffffff" stroke="#000000" points="0,-459.5 0,-478.5 106,-478.5 106,-459.5 0,-459.5"/>
<text text-anchor="middle" x="53" y="-466.5" font-family="Helvetica,sans-Serif" font-size="10.00" fill="#000000">l4/sys/cxx/ipc_varg</text>
</a>
</g>
</g>
<!-- Node0&#45;&gt;Node25 -->
<g id="edge62" class="edge">
<title>Node0&#45;&gt;Node25</title>
<path fill="none" stroke="#191970" d="M532.926,-743.3325C405.6885,-727.9787 75,-683.5926 75,-637 75,-637 75,-637 75,-581 75,-548.1132 65.754,-510.7958 59.2501,-488.6138"/>
<polygon fill="#191970" stroke="#191970" points="62.5104,-487.3059 56.2462,-478.7614 55.8147,-489.3474 62.5104,-487.3059"/>
</g>
<!-- Node26 -->
<g id="node27" class="node">
<title>Node26</title>
<g id="a_node27"><a xlink:href="type__traits_source.html" target="_top" xlink:title="l4/cxx/type_traits">
<polygon fill="#ffffff" stroke="#000000" points="683,-683.5 683,-702.5 779,-702.5 779,-683.5 683,-683.5"/>
<text text-anchor="middle" x="731" y="-690.5" font-family="Helvetica,sans-Serif" font-size="10.00" fill="#000000">l4/cxx/type_traits</text>
</a>
</g>
</g>
<!-- Node0&#45;&gt;Node26 -->
<g id="edge65" class="edge">
<title>Node0&#45;&gt;Node26</title>
<path fill="none" stroke="#191970" d="M607.614,-739.3733C632.0687,-730.1822 669.1054,-716.2624 696.2209,-706.0713"/>
<polygon fill="#191970" stroke="#191970" points="697.5909,-709.2956 705.7202,-702.5011 695.1281,-702.7431 697.5909,-709.2956"/>
</g>
<!-- Node28 -->
<g id="node29" class="node">
<title>Node28</title>
<g id="a_node29"><a xlink:href="minmax_source.html" target="_top" xlink:title="l4/cxx/minmax">
<polygon fill="#ffffff" stroke="#000000" points="797.5,-683.5 797.5,-702.5 880.5,-702.5 880.5,-683.5 797.5,-683.5"/>
<text text-anchor="middle" x="839" y="-690.5" font-family="Helvetica,sans-Serif" font-size="10.00" fill="#000000">l4/cxx/minmax</text>
</a>
</g>
</g>
<!-- Node0&#45;&gt;Node28 -->
<g id="edge67" class="edge">
<title>Node0&#45;&gt;Node28</title>
<path fill="none" stroke="#191970" d="M625.8879,-739.4369C670.6316,-729.6873 740.0137,-714.569 787.3708,-704.2499"/>
<polygon fill="#191970" stroke="#191970" points="788.3957,-707.6088 797.4212,-702.06 786.9053,-700.7693 788.3957,-707.6088"/>
</g>
<!-- Node2 -->
<g id="node3" class="node">
<title>Node2</title>
<g id="a_node3"><a xlink:href="l4_2sys_2types_8h.html" target="_top" xlink:title="Common L4 ABI Data Types. ">
<polygon fill="#ffffff" stroke="#000000" points="619,-168.5 619,-187.5 699,-187.5 699,-168.5 619,-168.5"/>
<text text-anchor="middle" x="659" y="-175.5" font-family="Helvetica,sans-Serif" font-size="10.00" fill="#000000">l4/sys/types.h</text>
</a>
</g>
</g>
<!-- Node1&#45;&gt;Node2 -->
<g id="edge2" class="edge">
<title>Node1&#45;&gt;Node2</title>
<path fill="none" stroke="#191970" d="M489.773,-280.4509C521.9941,-260.9441 595.5826,-216.3932 634.2383,-192.9909"/>
<polygon fill="#191970" stroke="#191970" points="636.5251,-195.6979 643.2669,-187.5249 632.8998,-189.7098 636.5251,-195.6979"/>
</g>
<!-- Node9 -->
<g id="node10" class="node">
<title>Node9</title>
<g id="a_node10"><a xlink:href="l4_2sys_2utcb_8h.html" target="_top" xlink:title="UTCB definitions. ">
<polygon fill="#ffffff" stroke="#000000" points="437,-224.5 437,-243.5 511,-243.5 511,-224.5 437,-224.5"/>
<text text-anchor="middle" x="474" y="-231.5" font-family="Helvetica,sans-Serif" font-size="10.00" fill="#000000">l4/sys/utcb.h</text>
</a>
</g>
</g>
<!-- Node1&#45;&gt;Node9 -->
<g id="edge13" class="edge">
<title>Node1&#45;&gt;Node9</title>
<path fill="none" stroke="#191970" d="M474,-280.2455C474,-272.9382 474,-262.6944 474,-253.7046"/>
<polygon fill="#191970" stroke="#191970" points="477.5001,-253.6426 474,-243.6427 470.5001,-253.6427 477.5001,-253.6426"/>
</g>
<!-- Node10 -->
<g id="node11" class="node">
<title>Node10</title>
<g id="a_node11"><a xlink:href="err_8h.html" target="_top" xlink:title="Error codes. ">
<polygon fill="#ffffff" stroke="#000000" points="219,-224.5 219,-243.5 287,-243.5 287,-224.5 219,-224.5"/>
<text text-anchor="middle" x="253" y="-231.5" font-family="Helvetica,sans-Serif" font-size="10.00" fill="#000000">l4/sys/err.h</text>
</a>
</g>
</g>
<!-- Node1&#45;&gt;Node10 -->
<g id="edge17" class="edge">
<title>Node1&#45;&gt;Node10</title>
<path fill="none" stroke="#191970" d="M439.9531,-281.3727C401.5054,-271.6303 338.8369,-255.7505 296.78,-245.0936"/>
<polygon fill="#191970" stroke="#191970" points="297.639,-241.7007 287.0856,-242.6371 295.9195,-248.4862 297.639,-241.7007"/>
</g>
<!-- Node3 -->
<g id="node4" class="node">
<title>Node3</title>
<g id="a_node4"><a xlink:href="l4_2sys_2l4int_8h.html" target="_top" xlink:title="Fixed sized integer types, generic version. ">
<polygon fill="#ffffff" stroke="#000000" points="595,-56.5 595,-75.5 669,-75.5 669,-56.5 595,-56.5"/>
<text text-anchor="middle" x="632" y="-63.5" font-family="Helvetica,sans-Serif" font-size="10.00" fill="#000000">l4/sys/l4int.h</text>
</a>
</g>
</g>
<!-- Node2&#45;&gt;Node3 -->
<g id="edge3" class="edge">
<title>Node2&#45;&gt;Node3</title>
<path fill="none" stroke="#191970" d="M644.3148,-168.2577C633.3846,-160.0536 619.3102,-147.2342 613,-132 606.5377,-116.3985 613.0406,-97.8596 620.1413,-84.4082"/>
<polygon fill="#191970" stroke="#191970" points="623.2452,-86.0327 625.2405,-75.6275 617.1919,-82.5174 623.2452,-86.0327"/>
</g>
<!-- Node4 -->
<g id="node5" class="node">
<title>Node4</title>
<g id="a_node5"><a xlink:href="compiler_8h.html" target="_top" xlink:title="L4 compiler related defines. ">
<polygon fill="#ffffff" stroke="#000000" points="324.5,-56.5 324.5,-75.5 419.5,-75.5 419.5,-56.5 324.5,-56.5"/>
<text text-anchor="middle" x="372" y="-63.5" font-family="Helvetica,sans-Serif" font-size="10.00" fill="#000000">l4/sys/compiler.h</text>
</a>
</g>
</g>
<!-- Node2&#45;&gt;Node4 -->
<g id="edge4" class="edge">
<title>Node2&#45;&gt;Node4</title>
<path fill="none" stroke="#191970" d="M618.8263,-174.6723C557.208,-168.8992 443.0209,-155.3521 410,-132 394.0367,-120.7109 383.8361,-100.4419 378.0671,-85.3341"/>
<polygon fill="#191970" stroke="#191970" points="381.3649,-84.1612 374.7649,-75.8732 374.7559,-86.468 381.3649,-84.1612"/>
</g>
<!-- Node6 -->
<g id="node7" class="node">
<title>Node6</title>
<g id="a_node7"><a xlink:href="l4_2sys_2consts_8h.html" target="_top" xlink:title="Common constants. ">
<polygon fill="#ffffff" stroke="#000000" points="741,-112.5 741,-131.5 827,-131.5 827,-112.5 741,-112.5"/>
<text text-anchor="middle" x="784" y="-119.5" font-family="Helvetica,sans-Serif" font-size="10.00" fill="#000000">l4/sys/consts.h</text>
</a>
</g>
</g>
<!-- Node2&#45;&gt;Node6 -->
<g id="edge6" class="edge">
<title>Node2&#45;&gt;Node6</title>
<path fill="none" stroke="#191970" d="M680.4883,-168.3733C700.644,-159.3435 730.988,-145.7494 753.618,-135.6111"/>
<polygon fill="#191970" stroke="#191970" points="755.0971,-138.7838 762.7921,-131.5011 752.2351,-132.3955 755.0971,-138.7838"/>
</g>
<!-- Node7 -->
<g id="node8" class="node">
<title>Node7</title>
<g id="a_node8"><a xlink:href="____l4__fpage_8h_source.html" target="_top" xlink:title="l4/sys/__l4_fpage.h">
<polygon fill="#ffffff" stroke="#000000" points="419,-112.5 419,-131.5 527,-131.5 527,-112.5 419,-112.5"/>
<text text-anchor="middle" x="473" y="-119.5" font-family="Helvetica,sans-Serif" font-size="10.00" fill="#000000">l4/sys/__l4_fpage.h</text>
</a>
</g>
</g>
<!-- Node2&#45;&gt;Node7 -->
<g id="edge9" class="edge">
<title>Node2&#45;&gt;Node7</title>
<path fill="none" stroke="#191970" d="M627.0255,-168.3733C595.8287,-158.9807 548.229,-144.6496 514.2068,-134.4064"/>
<polygon fill="#191970" stroke="#191970" points="515.1418,-131.0327 504.5573,-131.5011 513.1237,-137.7355 515.1418,-131.0327"/>
</g>
<!-- Node8 -->
<g id="node9" class="node">
<title>Node8</title>
<g id="a_node9"><a xlink:href="____timeout_8h_source.html" target="_top" xlink:title="l4/sys/__timeout.h">
<polygon fill="#ffffff" stroke="#000000" points="621.5,-112.5 621.5,-131.5 722.5,-131.5 722.5,-112.5 621.5,-112.5"/>
<text text-anchor="middle" x="672" y="-119.5" font-family="Helvetica,sans-Serif" font-size="10.00" fill="#000000">l4/sys/__timeout.h</text>
</a>
</g>
</g>
<!-- Node2&#45;&gt;Node8 -->
<g id="edge11" class="edge">
<title>Node2&#45;&gt;Node8</title>
<path fill="none" stroke="#191970" d="M661.2644,-168.2455C662.9794,-160.8579 665.3912,-150.4689 667.4944,-141.4087"/>
<polygon fill="#191970" stroke="#191970" points="670.9095,-142.1751 669.7615,-131.6427 664.0908,-140.5922 670.9095,-142.1751"/>
</g>
<!-- Node5 -->
<g id="node6" class="node">
<title>Node5</title>
<polygon fill="#ffffff" stroke="#bfbfbf" points="327.5,-.5 327.5,-19.5 416.5,-19.5 416.5,-.5 327.5,-.5"/>
<text text-anchor="middle" x="372" y="-7.5" font-family="Helvetica,sans-Serif" font-size="10.00" fill="#000000">l4/sys/linkage.h</text>
</g>
<!-- Node4&#45;&gt;Node5 -->
<g id="edge5" class="edge">
<title>Node4&#45;&gt;Node5</title>
<path fill="none" stroke="#191970" d="M372,-56.2455C372,-48.9382 372,-38.6944 372,-29.7046"/>
<polygon fill="#191970" stroke="#191970" points="375.5001,-29.6426 372,-19.6427 368.5001,-29.6427 375.5001,-29.6426"/>
</g>
<!-- Node6&#45;&gt;Node3 -->
<g id="edge8" class="edge">
<title>Node6&#45;&gt;Node3</title>
<path fill="none" stroke="#191970" d="M757.8703,-112.3733C732.9232,-103.1822 695.1408,-89.2624 667.4794,-79.0713"/>
<polygon fill="#191970" stroke="#191970" points="668.3822,-75.674 657.7888,-75.5011 665.9622,-82.2424 668.3822,-75.674"/>
</g>
<!-- Node6&#45;&gt;Node4 -->
<g id="edge7" class="edge">
<title>Node6&#45;&gt;Node4</title>
<path fill="none" stroke="#191970" d="M740.9066,-113.4965C737.8961,-112.969 734.9049,-112.4644 732,-112 625.702,-95.005 500.9455,-80.2062 429.7117,-72.2416"/>
<polygon fill="#191970" stroke="#191970" points="429.9244,-68.7438 419.5987,-71.1166 429.1504,-75.7008 429.9244,-68.7438"/>
</g>
<!-- Node7&#45;&gt;Node4 -->
<g id="edge10" class="edge">
<title>Node7&#45;&gt;Node4</title>
<path fill="none" stroke="#191970" d="M455.4071,-112.2455C439.621,-103.4928 416.2361,-90.527 398.2413,-80.5496"/>
<polygon fill="#191970" stroke="#191970" points="399.8341,-77.4308 389.3913,-75.6427 396.4397,-83.5528 399.8341,-77.4308"/>
</g>
<!-- Node8&#45;&gt;Node3 -->
<g id="edge12" class="edge">
<title>Node8&#45;&gt;Node3</title>
<path fill="none" stroke="#191970" d="M665.0325,-112.2455C659.4689,-104.4564 651.522,-93.3308 644.8171,-83.9439"/>
<polygon fill="#191970" stroke="#191970" points="647.5481,-81.7457 638.8876,-75.6427 641.852,-85.8144 647.5481,-81.7457"/>
</g>
<!-- Node9&#45;&gt;Node2 -->
<g id="edge14" class="edge">
<title>Node9&#45;&gt;Node2</title>
<path fill="none" stroke="#191970" d="M505.8026,-224.3733C536.8317,-214.9807 584.1754,-200.6496 618.0147,-190.4064"/>
<polygon fill="#191970" stroke="#191970" points="619.0553,-193.7483 627.6124,-187.5011 617.0272,-187.0485 619.0553,-193.7483"/>
</g>
<!-- Node9&#45;&gt;Node3 -->
<g id="edge16" class="edge">
<title>Node9&#45;&gt;Node3</title>
<path fill="none" stroke="#191970" d="M482.9475,-224.4862C508.5723,-197.2396 582.5148,-118.6172 615.6267,-83.4096"/>
<polygon fill="#191970" stroke="#191970" points="618.4557,-85.5103 622.7571,-75.8279 613.3565,-80.7146 618.4557,-85.5103"/>
</g>
<!-- Node9&#45;&gt;Node4 -->
<g id="edge15" class="edge">
<title>Node9&#45;&gt;Node4</title>
<path fill="none" stroke="#191970" d="M463.1875,-224.4543C444.8401,-207.6432 407.6889,-170.8404 388,-132 380.6701,-117.5402 376.5983,-99.5733 374.3993,-86.0381"/>
<polygon fill="#191970" stroke="#191970" points="377.8292,-85.2959 372.9622,-75.8852 370.8983,-86.277 377.8292,-85.2959"/>
</g>
<!-- Node10&#45;&gt;Node4 -->
<g id="edge18" class="edge">
<title>Node10&#45;&gt;Node4</title>
<path fill="none" stroke="#191970" d="M254.6848,-224.4304C258.9667,-202.4282 272.0423,-147.4184 301,-112 311.7259,-98.8811 327.205,-88.2438 340.9744,-80.516"/>
<polygon fill="#191970" stroke="#191970" points="342.9674,-83.4204 350.1544,-75.636 339.6816,-77.2394 342.9674,-83.4204"/>
</g>
<!-- Node11&#45;&gt;Node2 -->
<g id="edge21" class="edge">
<title>Node11&#45;&gt;Node2</title>
<path fill="none" stroke="#191970" d="M665.0925,-683.7871C695.5853,-676.4459 736.1302,-664.4723 769,-647 810.3094,-625.0416 851,-627.7829 851,-581 851,-581 851,-581 851,-290 851,-224.2901 766.0565,-196.4427 709.1685,-185.1609"/>
<polygon fill="#191970" stroke="#191970" points="709.7229,-181.7039 699.2495,-183.3033 708.4343,-188.5843 709.7229,-181.7039"/>
</g>
<!-- Node11&#45;&gt;Node6 -->
<g id="edge20" class="edge">
<title>Node11&#45;&gt;Node6</title>
<path fill="none" stroke="#191970" d="M665.3167,-684.1119C712.0732,-674.5315 781.5237,-659.0391 806,-647 848.291,-626.1984 889,-628.13 889,-581 889,-581 889,-581 889,-234 889,-189.1218 843.5761,-154.8269 812.4816,-136.6081"/>
<polygon fill="#191970" stroke="#191970" points="814.18,-133.5478 803.7497,-131.688 810.7438,-139.6463 814.18,-133.5478"/>
</g>
<!-- Node12 -->
<g id="node13" class="node">
<title>Node12</title>
<g id="a_node13"><a xlink:href="kobject_source.html" target="_top" xlink:title="l4/sys/kobject">
<polygon fill="#ffffff" stroke="#000000" points="572,-515.5 572,-534.5 652,-534.5 652,-515.5 572,-515.5"/>
<text text-anchor="middle" x="612" y="-522.5" font-family="Helvetica,sans-Serif" font-size="10.00" fill="#000000">l4/sys/kobject</text>
</a>
</g>
</g>
<!-- Node11&#45;&gt;Node12 -->
<g id="edge22" class="edge">
<title>Node11&#45;&gt;Node12</title>
<path fill="none" stroke="#191970" d="M619.547,-683.4862C618.2823,-656.9293 614.6936,-581.5651 612.9603,-545.1655"/>
<polygon fill="#191970" stroke="#191970" points="616.4398,-544.6501 612.468,-534.8279 609.4477,-544.9831 616.4398,-544.6501"/>
</g>
<!-- Node19 -->
<g id="node20" class="node">
<title>Node19</title>
<g id="a_node20"><a xlink:href="l4_2sys_2task_8h.html" target="_top" xlink:title="Common task related definitions. ">
<polygon fill="#ffffff" stroke="#000000" points="597,-342 597,-361 671,-361 671,-342 597,-342"/>
<text text-anchor="middle" x="634" y="-349" font-family="Helvetica,sans-Serif" font-size="10.00" fill="#000000">l4/sys/task.h</text>
</a>
</g>
</g>
<!-- Node11&#45;&gt;Node19 -->
<g id="edge44" class="edge">
<title>Node11&#45;&gt;Node19</title>
<path fill="none" stroke="#191970" d="M647.6522,-683.3869C701.0184,-663.9847 813,-618.7717 813,-581 813,-581 813,-581 813,-469 813,-405.7897 734.0267,-374.7108 680.9918,-360.9663"/>
<polygon fill="#191970" stroke="#191970" points="681.6364,-357.5205 671.0889,-358.5209 679.9582,-364.3163 681.6364,-357.5205"/>
</g>
<!-- Node20 -->
<g id="node21" class="node">
<title>Node20</title>
<g id="a_node21"><a xlink:href="sys_2meta.html" target="_top" xlink:title="Meta interface for getting dynamic type information about objects behind capabilities. ">
<polygon fill="#ffffff" stroke="#000000" points="440,-627.5 440,-646.5 510,-646.5 510,-627.5 440,-627.5"/>
<text text-anchor="middle" x="475" y="-634.5" font-family="Helvetica,sans-Serif" font-size="10.00" fill="#000000">l4/sys/meta</text>
</a>
</g>
</g>
<!-- Node11&#45;&gt;Node20 -->
<g id="edge45" class="edge">
<title>Node11&#45;&gt;Node20</title>
<path fill="none" stroke="#191970" d="M595.0736,-683.3733C571.3798,-674.2226 535.5489,-660.3844 509.1932,-650.2057"/>
<polygon fill="#191970" stroke="#191970" points="510.1906,-646.8389 499.6011,-646.5011 507.6686,-653.3689 510.1906,-646.8389"/>
</g>
<!-- Node12&#45;&gt;Node2 -->
<g id="edge30" class="edge">
<title>Node12&#45;&gt;Node2</title>
<path fill="none" stroke="#191970" d="M627.8724,-515.4349C661.768,-493.9527 740.5321,-438.1419 770,-367 795.1226,-306.3487 778.2317,-271.5796 733,-224 720.6884,-211.0493 703.9829,-200.2561 689.5598,-192.3868"/>
<polygon fill="#191970" stroke="#191970" points="690.9647,-189.1719 680.4805,-187.6445 687.7238,-195.3765 690.9647,-189.1719"/>
</g>
<!-- Node13 -->
<g id="node14" class="node">
<title>Node13</title>
<g id="a_node14"><a xlink:href="kernel__object_8h.html" target="_top" xlink:title="Kernel object system calls. ">
<polygon fill="#ffffff" stroke="#000000" points="467,-403.5 467,-422.5 555,-422.5 555,-403.5 467,-403.5"/>
<text text-anchor="middle" x="511" y="-410.5" font-family="Helvetica,sans-Serif" font-size="10.00" fill="#000000">kernel_object.h</text>
</a>
</g>
</g>
<!-- Node12&#45;&gt;Node13 -->
<g id="edge23" class="edge">
<title>Node12&#45;&gt;Node13</title>
<path fill="none" stroke="#191970" d="M604.6282,-515.3248C594.5158,-502.2112 575.5877,-478.2254 558,-459 548.7015,-448.8357 537.7276,-438.0342 528.7231,-429.4541"/>
<polygon fill="#191970" stroke="#191970" points="531.0857,-426.8712 521.4087,-422.5577 526.2836,-431.9644 531.0857,-426.8712"/>
</g>
<!-- Node15 -->
<g id="node16" class="node">
<title>Node15</title>
<g id="a_node16"><a xlink:href="____typeinfo_8h.html" target="_top" xlink:title="Type information handling. ">
<polygon fill="#ffffff" stroke="#000000" points="442,-459.5 442,-478.5 516,-478.5 516,-459.5 442,-459.5"/>
<text text-anchor="middle" x="479" y="-466.5" font-family="Helvetica,sans-Serif" font-size="10.00" fill="#000000">__typeinfo.h</text>
</a>
</g>
</g>
<!-- Node12&#45;&gt;Node15 -->
<g id="edge31" class="edge">
<title>Node12&#45;&gt;Node15</title>
<path fill="none" stroke="#191970" d="M589.1365,-515.3733C567.595,-506.3032 535.1162,-492.6279 511.0044,-482.4755"/>
<polygon fill="#191970" stroke="#191970" points="512.1397,-479.156 501.5652,-478.5011 509.4233,-485.6075 512.1397,-479.156"/>
</g>
<!-- Node13&#45;&gt;Node1 -->
<g id="edge29" class="edge">
<title>Node13&#45;&gt;Node1</title>
<path fill="none" stroke="#191970" d="M488.8934,-403.4742C474.3669,-395.902 456.5263,-383.7828 448,-367 438.2771,-347.8618 449.2938,-324.2755 459.8331,-308.2875"/>
<polygon fill="#191970" stroke="#191970" points="462.892,-310.0246 465.8229,-299.8432 457.1825,-305.9746 462.892,-310.0246"/>
</g>
<!-- Node13&#45;&gt;Node2 -->
<g id="edge24" class="edge">
<title>Node13&#45;&gt;Node2</title>
<path fill="none" stroke="#191970" d="M555.3362,-407.0591C600.157,-400.0369 664.9062,-386.7513 680,-367 718.8456,-316.1678 686.8495,-233.997 669.0022,-197.0578"/>
<polygon fill="#191970" stroke="#191970" points="672.0234,-195.2743 664.4141,-187.9021 665.7652,-198.4104 672.0234,-195.2743"/>
</g>
<!-- Node13&#45;&gt;Node4 -->
<g id="edge25" class="edge">
<title>Node13&#45;&gt;Node4</title>
<path fill="none" stroke="#191970" d="M466.5246,-405.4039C408.6964,-392.6854 315,-361.1067 315,-290 315,-290 315,-290 315,-178 315,-141.1826 339.7675,-104.2377 356.6501,-83.3313"/>
<polygon fill="#191970" stroke="#191970" points="359.3511,-85.5574 363.0938,-75.6456 353.9869,-81.06 359.3511,-85.5574"/>
</g>
<!-- Node13&#45;&gt;Node9 -->
<g id="edge26" class="edge">
<title>Node13&#45;&gt;Node9</title>
<path fill="none" stroke="#191970" d="M486.9826,-403.467C471.3055,-395.9544 451.8088,-383.9083 441,-367 420.0366,-334.2067 416.7134,-316.2044 431,-280 435.5469,-268.4774 444.4932,-258.143 453.0534,-250.2024"/>
<polygon fill="#191970" stroke="#191970" points="455.3938,-252.8057 460.669,-243.6175 450.8153,-247.5106 455.3938,-252.8057"/>
</g>
<!-- Node14 -->
<g id="node15" class="node">
<title>Node14</title>
<g id="a_node15"><a xlink:href="____kernel__object__impl_8h.html" target="_top" xlink:title="Low&#45;level kernel debugger functions. ">
<polygon fill="#ffffff" stroke="#000000" points="457,-336.5 457,-366.5 579,-366.5 579,-336.5 457,-336.5"/>
<text text-anchor="start" x="465" y="-354.5" font-family="Helvetica,sans-Serif" font-size="10.00" fill="#000000">l4/sys/__kernel_object</text>
<text text-anchor="middle" x="518" y="-343.5" font-family="Helvetica,sans-Serif" font-size="10.00" fill="#000000">_impl.h</text>
</a>
</g>
</g>
<!-- Node13&#45;&gt;Node14 -->
<g id="edge27" class="edge">
<title>Node13&#45;&gt;Node14</title>
<path fill="none" stroke="#191970" d="M512.0938,-403.3906C512.9095,-396.2234 514.0634,-386.0862 515.135,-376.671"/>
<polygon fill="#191970" stroke="#191970" points="518.6342,-376.8763 516.2876,-366.5446 511.6791,-376.0846 518.6342,-376.8763"/>
</g>
<!-- Node14&#45;&gt;Node1 -->
<g id="edge28" class="edge">
<title>Node14&#45;&gt;Node1</title>
<path fill="none" stroke="#191970" d="M507.1236,-336.2977C501.0159,-327.7609 493.3561,-317.0545 486.9412,-308.0883"/>
<polygon fill="#191970" stroke="#191970" points="489.7101,-305.9433 481.045,-299.8469 484.0171,-310.0163 489.7101,-305.9433"/>
</g>
<!-- Node16 -->
<g id="node17" class="node">
<title>Node16</title>
<g id="a_node17"><a xlink:href="types.html" target="_top" xlink:title="cxx/types">
<polygon fill="#ffffff" stroke="#000000" points="146.5,-342 146.5,-361 207.5,-361 207.5,-342 146.5,-342"/>
<text text-anchor="middle" x="177" y="-349" font-family="Helvetica,sans-Serif" font-size="10.00" fill="#000000">cxx/types</text>
</a>
</g>
</g>
<!-- Node15&#45;&gt;Node16 -->
<g id="edge32" class="edge">
<title>Node15&#45;&gt;Node16</title>
<path fill="none" stroke="#191970" d="M459.1515,-459.4102C430.9909,-445.9747 377.6689,-421.1603 331,-403 292.9506,-388.1938 248.6651,-373.6577 217.3769,-363.8248"/>
<polygon fill="#191970" stroke="#191970" points="218.2882,-360.4428 207.6995,-360.8032 216.2019,-367.1246 218.2882,-360.4428"/>
</g>
<!-- Node17 -->
<g id="node18" class="node">
<title>Node17</title>
<g id="a_node18"><a xlink:href="ipc__basics_source.html" target="_top" xlink:title="cxx/ipc_basics">
<polygon fill="#ffffff" stroke="#000000" points="238,-403.5 238,-422.5 322,-422.5 322,-403.5 238,-403.5"/>
<text text-anchor="middle" x="280" y="-410.5" font-family="Helvetica,sans-Serif" font-size="10.00" fill="#000000">cxx/ipc_basics</text>
</a>
</g>
</g>
<!-- Node15&#45;&gt;Node17 -->
<g id="edge33" class="edge">
<title>Node15&#45;&gt;Node17</title>
<path fill="none" stroke="#191970" d="M444.7907,-459.3733C411.2703,-449.9404 360.0495,-435.5265 323.619,-425.2747"/>
<polygon fill="#191970" stroke="#191970" points="324.3372,-421.8409 313.7629,-422.5011 322.4409,-428.5792 324.3372,-421.8409"/>
</g>
<!-- Node18 -->
<g id="node19" class="node">
<title>Node18</title>
<g id="a_node19"><a xlink:href="capability_8h_source.html" target="_top" xlink:title="cxx/capability.h">
<polygon fill="#ffffff" stroke="#000000" points="590.5,-403.5 590.5,-422.5 677.5,-422.5 677.5,-403.5 590.5,-403.5"/>
<text text-anchor="middle" x="634" y="-410.5" font-family="Helvetica,sans-Serif" font-size="10.00" fill="#000000">cxx/capability.h</text>
</a>
</g>
</g>
<!-- Node15&#45;&gt;Node18 -->
<g id="edge37" class="edge">
<title>Node15&#45;&gt;Node18</title>
<path fill="none" stroke="#191970" d="M505.6454,-459.3733C531.1964,-450.1419 569.9512,-436.1402 598.1909,-425.9375"/>
<polygon fill="#191970" stroke="#191970" points="599.4865,-429.1909 607.7022,-422.5011 597.1079,-422.6074 599.4865,-429.1909"/>
</g>
<!-- Node17&#45;&gt;Node9 -->
<g id="edge35" class="edge">
<title>Node17&#45;&gt;Node9</title>
<path fill="none" stroke="#191970" d="M290.1255,-403.1741C313.1075,-380.9331 371.0963,-325.1573 421,-280 432.0103,-270.0369 444.5495,-259.1344 454.6663,-250.4451"/>
<polygon fill="#191970" stroke="#191970" points="457.185,-252.8963 462.508,-243.7357 452.6342,-247.5775 457.185,-252.8963"/>
</g>
<!-- Node17&#45;&gt;Node10 -->
<g id="edge36" class="edge">
<title>Node17&#45;&gt;Node10</title>
<path fill="none" stroke="#191970" d="M275.5389,-403.3671C271.5217,-394.2202 265.8275,-379.9774 263,-367 254.4122,-327.5835 252.8817,-280.2189 252.7803,-253.9795"/>
<polygon fill="#191970" stroke="#191970" points="256.2807,-253.8232 252.8109,-243.8127 249.2807,-253.802 256.2807,-253.8232"/>
</g>
<!-- Node17&#45;&gt;Node16 -->
<g id="edge34" class="edge">
<title>Node17&#45;&gt;Node16</title>
<path fill="none" stroke="#191970" d="M263.9063,-403.3906C247.2772,-393.4616 221.1024,-377.833 201.8206,-366.3201"/>
<polygon fill="#191970" stroke="#191970" points="203.361,-363.1634 192.9807,-361.0419 199.7724,-369.1736 203.361,-363.1634"/>
</g>
<!-- Node18&#45;&gt;Node2 -->
<g id="edge39" class="edge">
<title>Node18&#45;&gt;Node2</title>
<path fill="none" stroke="#191970" d="M670.7135,-403.44C701.3816,-394.6241 741.5677,-380.8435 751,-367 775.688,-330.7661 752.0959,-281.6195 713,-224 704.9249,-212.0989 692.9799,-201.4833 682.3761,-193.457"/>
<polygon fill="#191970" stroke="#191970" points="684.4165,-190.6133 674.2592,-187.6001 680.3205,-196.2899 684.4165,-190.6133"/>
</g>
<!-- Node18&#45;&gt;Node6 -->
<g id="edge38" class="edge">
<title>Node18&#45;&gt;Node6</title>
<path fill="none" stroke="#191970" d="M653.4032,-403.3565C668.0319,-395.29 687.7694,-382.605 701,-367 725.4306,-338.185 737,-327.7778 737,-290 737,-290 737,-290 737,-234 737,-198.5481 757.2704,-161.3564 771.1871,-139.9999"/>
<polygon fill="#191970" stroke="#191970" points="774.1549,-141.8593 776.8617,-131.6161 768.3579,-137.9356 774.1549,-141.8593"/>
</g>
<!-- Node18&#45;&gt;Node19 -->
<g id="edge40" class="edge">
<title>Node18&#45;&gt;Node19</title>
<path fill="none" stroke="#191970" d="M634,-403.3906C634,-394.8657 634,-382.1392 634,-371.4235"/>
<polygon fill="#191970" stroke="#191970" points="637.5001,-371.2448 634,-361.2449 630.5001,-371.2449 637.5001,-371.2448"/>
</g>
<!-- Node19&#45;&gt;Node1 -->
<g id="edge43" class="edge">
<title>Node19&#45;&gt;Node1</title>
<path fill="none" stroke="#191970" d="M609,-341.8906C581.9942,-331.5103 538.7815,-314.9004 508.5406,-303.2766"/>
<polygon fill="#191970" stroke="#191970" points="509.4144,-299.8628 498.8244,-299.5419 506.9029,-306.3968 509.4144,-299.8628"/>
</g>
<!-- Node19&#45;&gt;Node2 -->
<g id="edge41" class="edge">
<title>Node19&#45;&gt;Node2</title>
<path fill="none" stroke="#191970" d="M635.3797,-341.9248C639.3316,-314.499 650.7533,-235.232 656.1331,-197.8964"/>
<polygon fill="#191970" stroke="#191970" points="659.6317,-198.1565 657.5937,-187.7595 652.7032,-197.1581 659.6317,-198.1565"/>
</g>
<!-- Node19&#45;&gt;Node9 -->
<g id="edge42" class="edge">
<title>Node19&#45;&gt;Node9</title>
<path fill="none" stroke="#191970" d="M620.9065,-341.8845C593.3648,-321.6585 529.2095,-274.5445 495.5264,-249.8085"/>
<polygon fill="#191970" stroke="#191970" points="497.4062,-246.8465 487.2744,-243.7484 493.2628,-252.4885 497.4062,-246.8465"/>
</g>
<!-- Node20&#45;&gt;Node12 -->
<g id="edge46" class="edge">
<title>Node20&#45;&gt;Node12</title>
<path fill="none" stroke="#191970" d="M486.6805,-627.4509C510.2383,-608.1921 563.6563,-564.5218 592.5589,-540.8935"/>
<polygon fill="#191970" stroke="#191970" points="594.8222,-543.564 600.349,-534.5249 590.3916,-538.1445 594.8222,-543.564"/>
</g>
<!-- Node21 -->
<g id="node22" class="node">
<title>Node21</title>
<g id="a_node22"><a xlink:href="ipc__iface.html" target="_top" xlink:title="Interface Definition Language. ">
<polygon fill="#ffffff" stroke="#000000" points="418.5,-515.5 418.5,-534.5 495.5,-534.5 495.5,-515.5 418.5,-515.5"/>
<text text-anchor="middle" x="457" y="-522.5" font-family="Helvetica,sans-Serif" font-size="10.00" fill="#000000">cxx/ipc_iface</text>
</a>
</g>
</g>
<!-- Node20&#45;&gt;Node21 -->
<g id="edge47" class="edge">
<title>Node20&#45;&gt;Node21</title>
<path fill="none" stroke="#191970" d="M473.4653,-627.4509C470.5296,-609.184 464.0642,-568.9553 460.1657,-544.6976"/>
<polygon fill="#191970" stroke="#191970" points="463.5733,-543.8428 458.5308,-534.5249 456.662,-544.9536 463.5733,-543.8428"/>
</g>
<!-- Node23 -->
<g id="node24" class="node">
<title>Node23</title>
<g id="a_node24"><a xlink:href="ipc__string_source.html" target="_top" xlink:title="cxx/ipc_string">
<polygon fill="#ffffff" stroke="#000000" points="198.5,-571.5 198.5,-590.5 279.5,-590.5 279.5,-571.5 198.5,-571.5"/>
<text text-anchor="middle" x="239" y="-578.5" font-family="Helvetica,sans-Serif" font-size="10.00" fill="#000000">cxx/ipc_string</text>
</a>
</g>
</g>
<!-- Node20&#45;&gt;Node23 -->
<g id="edge54" class="edge">
<title>Node20&#45;&gt;Node23</title>
<path fill="none" stroke="#191970" d="M439.9232,-628.6767C400.0521,-619.2158 334.6406,-603.6944 289.333,-592.9434"/>
<polygon fill="#191970" stroke="#191970" points="289.9558,-589.4941 279.4179,-590.5907 288.3396,-596.305 289.9558,-589.4941"/>
</g>
<!-- Node21&#45;&gt;Node15 -->
<g id="edge53" class="edge">
<title>Node21&#45;&gt;Node15</title>
<path fill="none" stroke="#191970" d="M460.8321,-515.2455C463.7659,-507.7776 467.9047,-497.2427 471.491,-488.1137"/>
<polygon fill="#191970" stroke="#191970" points="474.8129,-489.23 475.2118,-478.6427 468.2976,-486.6704 474.8129,-489.23"/>
</g>
<!-- Node21&#45;&gt;Node17 -->
<g id="edge48" class="edge">
<title>Node21&#45;&gt;Node17</title>
<path fill="none" stroke="#191970" d="M450.0327,-515.219C439.5327,-501.0967 418.3782,-474.9449 395,-459 373.5675,-444.3821 346.7946,-433.3257 324.4752,-425.7205"/>
<polygon fill="#191970" stroke="#191970" points="325.4838,-422.3679 314.8909,-422.5706 323.2982,-429.018 325.4838,-422.3679"/>
</g>
<!-- Node21&#45;&gt;Node22 -->
<g id="edge49" class="edge">
<title>Node21&#45;&gt;Node22</title>
<path fill="none" stroke="#191970" d="M435.3398,-515.3733C415.0228,-506.3435 384.436,-492.7494 361.625,-482.6111"/>
<polygon fill="#191970" stroke="#191970" points="362.9372,-479.3642 352.3775,-478.5011 360.0941,-485.7609 362.9372,-479.3642"/>
</g>
<!-- Node22&#45;&gt;Node16 -->
<g id="edge51" class="edge">
<title>Node22&#45;&gt;Node16</title>
<path fill="none" stroke="#191970" d="M299.2202,-459.4716C277.8123,-451.961 249.797,-439.9155 229,-423 210.856,-408.2424 195.8886,-385.7216 186.7443,-369.9075"/>
<polygon fill="#191970" stroke="#191970" points="189.7432,-368.0985 181.8268,-361.057 183.6242,-371.4983 189.7432,-368.0985"/>
</g>
<!-- Node22&#45;&gt;Node17 -->
<g id="edge52" class="edge">
<title>Node22&#45;&gt;Node17</title>
<path fill="none" stroke="#191970" d="M322.1165,-459.2455C314.8034,-451.2155 304.2609,-439.6394 295.5533,-430.0781"/>
<polygon fill="#191970" stroke="#191970" points="298.1028,-427.6795 288.7817,-422.6427 292.9273,-432.3928 298.1028,-427.6795"/>
</g>
<!-- Node22&#45;&gt;Node18 -->
<g id="edge50" class="edge">
<title>Node22&#45;&gt;Node18</title>
<path fill="none" stroke="#191970" d="M382.7433,-459.4369C437.799,-449.2616 524.4949,-433.2386 580.2902,-422.9266"/>
<polygon fill="#191970" stroke="#191970" points="581.1369,-426.3294 590.3342,-421.0702 579.8646,-419.446 581.1369,-426.3294"/>
</g>
<!-- Node23&#45;&gt;Node16 -->
<g id="edge55" class="edge">
<title>Node23&#45;&gt;Node16</title>
<path fill="none" stroke="#191970" d="M235.6281,-571.1772C232.4824,-561.896 227.7278,-547.5625 224,-535 206.433,-475.8002 189.3501,-404.721 181.4923,-371.0391"/>
<polygon fill="#191970" stroke="#191970" points="184.8612,-370.073 179.1938,-361.1214 178.042,-371.6534 184.8612,-370.073"/>
</g>
<!-- Node23&#45;&gt;Node17 -->
<g id="edge56" class="edge">
<title>Node23&#45;&gt;Node17</title>
<path fill="none" stroke="#191970" d="M235.1532,-571.064C230.6517,-558.063 224.367,-534.6256 229,-515 236.4273,-483.5375 255.1274,-450.7149 267.6989,-431.0666"/>
<polygon fill="#191970" stroke="#191970" points="270.7335,-432.8218 273.3017,-422.5429 264.8841,-428.9767 270.7335,-432.8218"/>
</g>
<!-- Node24 -->
<g id="node25" class="node">
<title>Node24</title>
<g id="a_node25"><a xlink:href="ipc__array_source.html" target="_top" xlink:title="ipc_array">
<polygon fill="#ffffff" stroke="#000000" points="238.5,-515.5 238.5,-534.5 299.5,-534.5 299.5,-515.5 238.5,-515.5"/>
<text text-anchor="middle" x="269" y="-522.5" font-family="Helvetica,sans-Serif" font-size="10.00" fill="#000000">ipc_array</text>
</a>
</g>
</g>
<!-- Node23&#45;&gt;Node24 -->
<g id="edge57" class="edge">
<title>Node23&#45;&gt;Node24</title>
<path fill="none" stroke="#191970" d="M244.2256,-571.2455C248.3123,-563.617 254.1135,-552.7881 259.075,-543.5267"/>
<polygon fill="#191970" stroke="#191970" points="262.1972,-545.1103 263.8343,-534.6427 256.0268,-541.8047 262.1972,-545.1103"/>
</g>
<!-- Node24&#45;&gt;Node16 -->
<g id="edge58" class="edge">
<title>Node24&#45;&gt;Node16</title>
<path fill="none" stroke="#191970" d="M262.5173,-515.4311C250.6464,-497.6835 224.9864,-458.2584 207,-423 198.2381,-405.8242 189.8894,-385.4853 184.2345,-370.8998"/>
<polygon fill="#191970" stroke="#191970" points="187.4555,-369.5231 180.6255,-361.4236 180.9138,-372.0145 187.4555,-369.5231"/>
</g>
<!-- Node24&#45;&gt;Node17 -->
<g id="edge59" class="edge">
<title>Node24&#45;&gt;Node17</title>
<path fill="none" stroke="#191970" d="M267.673,-515.1047C266.1698,-502.1477 264.2618,-478.7578 267,-459 268.2357,-450.0835 270.7581,-440.4647 273.255,-432.3395"/>
<polygon fill="#191970" stroke="#191970" points="276.6247,-433.296 276.4124,-422.7033 269.9726,-431.1164 276.6247,-433.296"/>
</g>
<!-- Node24&#45;&gt;Node22 -->
<g id="edge60" class="edge">
<title>Node24&#45;&gt;Node22</title>
<path fill="none" stroke="#191970" d="M279.7996,-515.2455C288.8678,-507.0549 302.0206,-495.1749 312.7245,-485.5069"/>
<polygon fill="#191970" stroke="#191970" points="315.2491,-487.9429 320.3242,-478.6427 310.5571,-482.7482 315.2491,-487.9429"/>
</g>
<!-- Node25&#45;&gt;Node16 -->
<g id="edge63" class="edge">
<title>Node25&#45;&gt;Node16</title>
<path fill="none" stroke="#191970" d="M62.4158,-459.4699C75.2681,-446.5206 99.0977,-422.7205 120,-403 132.6458,-391.0691 147.1929,-377.9351 158.4259,-367.9168"/>
<polygon fill="#191970" stroke="#191970" points="160.7952,-370.4936 165.9449,-361.2344 156.1451,-365.2613 160.7952,-370.4936"/>
</g>
<!-- Node25&#45;&gt;Node17 -->
<g id="edge64" class="edge">
<title>Node25&#45;&gt;Node17</title>
<path fill="none" stroke="#191970" d="M91.7648,-459.4369C130.3692,-449.9133 189.7384,-435.2672 231.4572,-424.9753"/>
<polygon fill="#191970" stroke="#191970" points="232.5245,-428.317 241.3951,-422.5237 230.8479,-421.5208 232.5245,-428.317"/>
</g>
<!-- Node27 -->
<g id="node28" class="node">
<title>Node27</title>
<g id="a_node28"><a xlink:href="type__traits_8h_source.html" target="_top" xlink:title="bits/type_traits.h">
<polygon fill="#ffffff" stroke="#000000" points="917.5,-627.5 917.5,-646.5 1010.5,-646.5 1010.5,-627.5 917.5,-627.5"/>
<text text-anchor="middle" x="964" y="-634.5" font-family="Helvetica,sans-Serif" font-size="10.00" fill="#000000">bits/type_traits.h</text>
</a>
</g>
</g>
<!-- Node26&#45;&gt;Node27 -->
<g id="edge66" class="edge">
<title>Node26&#45;&gt;Node27</title>
<path fill="none" stroke="#191970" d="M770.7894,-683.4369C810.498,-673.8932 871.6104,-659.2052 914.4455,-648.9101"/>
<polygon fill="#191970" stroke="#191970" points="915.4695,-652.2637 924.3747,-646.5237 913.8337,-645.4575 915.4695,-652.2637"/>
</g>
</g>
</svg>
