<?xml version="1.0" encoding="UTF-8" standalone="no"?>
<!DOCTYPE svg PUBLIC "-//W3C//DTD SVG 1.1//EN"
 "http://www.w3.org/Graphics/SVG/1.1/DTD/svg11.dtd">
<!-- Generated by graphviz version 2.40.1 (20161225.0304)
 -->
<!-- Title: operator&gt;&gt; Pages: 1 -->
<svg width="220pt" height="66pt"
 viewBox="0.00 0.00 220.00 66.00" xmlns="http://www.w3.org/2000/svg" xmlns:xlink="http://www.w3.org/1999/xlink">
<g id="graph0" class="graph" transform="scale(1 1) rotate(0) translate(4 62)">
<title>operator&gt;&gt;</title>
<polygon fill="#ffffff" stroke="transparent" points="-4,4 -4,-62 216,-62 216,4 -4,4"/>
<!-- Node33 -->
<g id="node1" class="node">
<title>Node33</title>
<polygon fill="#bfbfbf" stroke="#000000" points="0,-19.5 0,-38.5 69,-38.5 69,-19.5 0,-19.5"/>
<text text-anchor="middle" x="34.5" y="-26.5" font-family="Helvetica,sans-Serif" font-size="10.00" fill="#000000">operator&gt;&gt;</text>
</g>
<!-- Node34 -->
<g id="node2" class="node">
<title>Node34</title>
<g id="a_node2"><a xlink:href="classL4_1_1Ipc_1_1Istream.html#af4d28aa64235c822f624891154109a0c" target="_top" xlink:title="Copy out an array of type T with size elements. ">
<polygon fill="#ffffff" stroke="#000000" points="105,-38.5 105,-57.5 212,-57.5 212,-38.5 105,-38.5"/>
<text text-anchor="middle" x="158.5" y="-45.5" font-family="Helvetica,sans-Serif" font-size="10.00" fill="#000000">L4::Ipc::Istream::get</text>
</a>
</g>
</g>
<!-- Node33&#45;&gt;Node34 -->
<g id="edge1" class="edge">
<title>Node33&#45;&gt;Node34</title>
<path fill="none" stroke="#191970" d="M69.0409,-34.2926C77.0591,-35.5212 85.8452,-36.8674 94.6806,-38.2212"/>
<polygon fill="#191970" stroke="#191970" points="94.2239,-41.692 104.6387,-39.7471 95.2842,-34.7728 94.2239,-41.692"/>
</g>
<!-- Node35 -->
<g id="node3" class="node">
<title>Node35</title>
<g id="a_node3"><a xlink:href="group__cxx__api.html#ga0bd9662898a7499fcd3feefe594a699b" target="_top" xlink:title="Get the minimum of a and b. ">
<polygon fill="#ffffff" stroke="#000000" points="132,-.5 132,-19.5 185,-19.5 185,-.5 132,-.5"/>
<text text-anchor="middle" x="158.5" y="-7.5" font-family="Helvetica,sans-Serif" font-size="10.00" fill="#000000">cxx::min</text>
</a>
</g>
</g>
<!-- Node33&#45;&gt;Node35 -->
<g id="edge2" class="edge">
<title>Node33&#45;&gt;Node35</title>
<path fill="none" stroke="#191970" d="M69.0409,-23.7074C85.42,-21.1977 105.0031,-18.1971 121.6656,-15.644"/>
<polygon fill="#191970" stroke="#191970" points="122.2537,-19.0948 131.6082,-14.1205 121.1934,-12.1756 122.2537,-19.0948"/>
</g>
</g>
</svg>
