<?xml version="1.0" encoding="UTF-8" standalone="no"?>
<!DOCTYPE svg PUBLIC "-//W3C//DTD SVG 1.1//EN"
 "http://www.w3.org/Graphics/SVG/1.1/DTD/svg11.dtd">
<!-- Generated by graphviz version 2.40.1 (20161225.0304)
 -->
<!-- Title: l4/sys/cxx/ipc_client Pages: 1 -->
<svg width="539pt" height="588pt"
 viewBox="0.00 0.00 539.00 588.00" xmlns="http://www.w3.org/2000/svg" xmlns:xlink="http://www.w3.org/1999/xlink">
<g id="graph0" class="graph" transform="scale(1 1) rotate(0) translate(4 584)">
<title>l4/sys/cxx/ipc_client</title>
<polygon fill="#ffffff" stroke="transparent" points="-4,4 -4,-584 535,-584 535,4 -4,4"/>
<!-- Node0 -->
<g id="node1" class="node">
<title>Node0</title>
<polygon fill="#bfbfbf" stroke="#000000" points="336,-560.5 336,-579.5 446,-579.5 446,-560.5 336,-560.5"/>
<text text-anchor="middle" x="391" y="-567.5" font-family="Helvetica,sans-Serif" font-size="10.00" fill="#000000">l4/sys/cxx/ipc_client</text>
</g>
<!-- Node1 -->
<g id="node2" class="node">
<title>Node1</title>
<g id="a_node2"><a xlink:href="ipc__basics_source.html" target="_top" xlink:title="l4/sys/cxx/ipc_basics">
<polygon fill="#ffffff" stroke="#000000" points="374,-392.5 374,-411.5 488,-411.5 488,-392.5 374,-392.5"/>
<text text-anchor="middle" x="431" y="-399.5" font-family="Helvetica,sans-Serif" font-size="10.00" fill="#000000">l4/sys/cxx/ipc_basics</text>
</a>
</g>
</g>
<!-- Node0&#45;&gt;Node1 -->
<g id="edge1" class="edge">
<title>Node0&#45;&gt;Node1</title>
<path fill="none" stroke="#191970" d="M412.7658,-560.3857C427.0664,-552.773 444.6252,-540.6416 453,-524 469.9215,-490.375 453.4519,-445.749 441.319,-420.8495"/>
<polygon fill="#191970" stroke="#191970" points="444.3329,-419.0566 436.6498,-411.7614 438.1066,-422.2556 444.3329,-419.0566"/>
</g>
<!-- Node11 -->
<g id="node12" class="node">
<title>Node11</title>
<g id="a_node12"><a xlink:href="err_8h.html" target="_top" xlink:title="Error codes. ">
<polygon fill="#ffffff" stroke="#000000" points="463,-224.5 463,-243.5 531,-243.5 531,-224.5 463,-224.5"/>
<text text-anchor="middle" x="497" y="-231.5" font-family="Helvetica,sans-Serif" font-size="10.00" fill="#000000">l4/sys/err.h</text>
</a>
</g>
</g>
<!-- Node0&#45;&gt;Node11 -->
<g id="edge40" class="edge">
<title>Node0&#45;&gt;Node11</title>
<path fill="none" stroke="#191970" d="M416.9001,-560.3737C453.5134,-544.8905 516,-510.7402 516,-458 516,-458 516,-458 516,-346 516,-313.2688 508.0148,-275.9052 502.3978,-253.6716"/>
<polygon fill="#191970" stroke="#191970" points="505.7289,-252.5763 499.8035,-243.7934 498.9585,-254.3545 505.7289,-252.5763"/>
</g>
<!-- Node12 -->
<g id="node13" class="node">
<title>Node12</title>
<g id="a_node13"><a xlink:href="ipc__types.html" target="_top" xlink:title="l4/sys/cxx/ipc_types">
<polygon fill="#ffffff" stroke="#000000" points="175,-448.5 175,-467.5 285,-467.5 285,-448.5 175,-448.5"/>
<text text-anchor="middle" x="230" y="-455.5" font-family="Helvetica,sans-Serif" font-size="10.00" fill="#000000">l4/sys/cxx/ipc_types</text>
</a>
</g>
</g>
<!-- Node0&#45;&gt;Node12 -->
<g id="edge19" class="edge">
<title>Node0&#45;&gt;Node12</title>
<path fill="none" stroke="#191970" d="M375.8459,-560.328C361.5765,-551.1535 339.6661,-536.8921 321,-524 296.7114,-507.2247 269.358,-487.2333 251.0396,-473.6817"/>
<polygon fill="#191970" stroke="#191970" points="252.9425,-470.7355 242.8258,-467.5888 248.7721,-476.3576 252.9425,-470.7355"/>
</g>
<!-- Node16 -->
<g id="node17" class="node">
<title>Node16</title>
<g id="a_node17"><a xlink:href="ipc__iface.html" target="_top" xlink:title="Interface Definition Language. ">
<polygon fill="#ffffff" stroke="#000000" points="337.5,-504.5 337.5,-523.5 444.5,-523.5 444.5,-504.5 337.5,-504.5"/>
<text text-anchor="middle" x="391" y="-511.5" font-family="Helvetica,sans-Serif" font-size="10.00" fill="#000000">l4/sys/cxx/ipc_iface</text>
</a>
</g>
</g>
<!-- Node0&#45;&gt;Node16 -->
<g id="edge32" class="edge">
<title>Node0&#45;&gt;Node16</title>
<path fill="none" stroke="#191970" d="M391,-560.2455C391,-552.9382 391,-542.6944 391,-533.7046"/>
<polygon fill="#191970" stroke="#191970" points="394.5001,-533.6426 391,-523.6427 387.5001,-533.6427 394.5001,-533.6426"/>
</g>
<!-- Node17 -->
<g id="node18" class="node">
<title>Node17</title>
<g id="a_node18"><a xlink:href="____typeinfo_8h.html" target="_top" xlink:title="Type information handling. ">
<polygon fill="#ffffff" stroke="#000000" points="303,-448.5 303,-467.5 407,-467.5 407,-448.5 303,-448.5"/>
<text text-anchor="middle" x="355" y="-455.5" font-family="Helvetica,sans-Serif" font-size="10.00" fill="#000000">l4/sys/__typeinfo.h</text>
</a>
</g>
</g>
<!-- Node0&#45;&gt;Node17 -->
<g id="edge39" class="edge">
<title>Node0&#45;&gt;Node17</title>
<path fill="none" stroke="#191970" d="M368.8934,-560.4742C354.3669,-552.902 336.5263,-540.7828 328,-524 319.9043,-508.0648 329.5275,-489.1117 339.4588,-475.6129"/>
<polygon fill="#191970" stroke="#191970" points="342.3398,-477.6142 345.8465,-467.6165 336.8705,-473.2453 342.3398,-477.6142"/>
</g>
<!-- Node2 -->
<g id="node3" class="node">
<title>Node2</title>
<g id="a_node3"><a xlink:href="types.html" target="_top" xlink:title="types">
<polygon fill="#ffffff" stroke="#000000" points="325,-336.5 325,-355.5 367,-355.5 367,-336.5 325,-336.5"/>
<text text-anchor="middle" x="346" y="-343.5" font-family="Helvetica,sans-Serif" font-size="10.00" fill="#000000">types</text>
</a>
</g>
</g>
<!-- Node1&#45;&gt;Node2 -->
<g id="edge2" class="edge">
<title>Node1&#45;&gt;Node2</title>
<path fill="none" stroke="#191970" d="M416.1941,-392.2455C403.2744,-383.7337 384.3069,-371.2375 369.3448,-361.3801"/>
<polygon fill="#191970" stroke="#191970" points="370.9124,-358.2216 360.6362,-355.6427 367.0613,-364.067 370.9124,-358.2216"/>
</g>
<!-- Node3 -->
<g id="node4" class="node">
<title>Node3</title>
<g id="a_node4"><a xlink:href="l4_2sys_2utcb_8h.html" target="_top" xlink:title="UTCB definitions. ">
<polygon fill="#ffffff" stroke="#000000" points="363,-224.5 363,-243.5 437,-243.5 437,-224.5 363,-224.5"/>
<text text-anchor="middle" x="400" y="-231.5" font-family="Helvetica,sans-Serif" font-size="10.00" fill="#000000">l4/sys/utcb.h</text>
</a>
</g>
</g>
<!-- Node1&#45;&gt;Node3 -->
<g id="edge3" class="edge">
<title>Node1&#45;&gt;Node3</title>
<path fill="none" stroke="#191970" d="M429.2445,-392.4862C424.3229,-365.8144 410.317,-289.9117 403.6342,-253.695"/>
<polygon fill="#191970" stroke="#191970" points="407.0701,-253.0267 401.8135,-243.8279 400.1863,-254.297 407.0701,-253.0267"/>
</g>
<!-- Node1&#45;&gt;Node11 -->
<g id="edge17" class="edge">
<title>Node1&#45;&gt;Node11</title>
<path fill="none" stroke="#191970" d="M434.7375,-392.4862C445.2609,-365.6994 475.2921,-289.2565 489.4458,-253.2289"/>
<polygon fill="#191970" stroke="#191970" points="492.7401,-254.4152 493.139,-243.8279 486.2248,-251.8556 492.7401,-254.4152"/>
</g>
<!-- Node4 -->
<g id="node5" class="node">
<title>Node4</title>
<g id="a_node5"><a xlink:href="l4_2sys_2types_8h.html" target="_top" xlink:title="Common L4 ABI Data Types. ">
<polygon fill="#ffffff" stroke="#000000" points="232,-168.5 232,-187.5 312,-187.5 312,-168.5 232,-168.5"/>
<text text-anchor="middle" x="272" y="-175.5" font-family="Helvetica,sans-Serif" font-size="10.00" fill="#000000">l4/sys/types.h</text>
</a>
</g>
</g>
<!-- Node3&#45;&gt;Node4 -->
<g id="edge4" class="edge">
<title>Node3&#45;&gt;Node4</title>
<path fill="none" stroke="#191970" d="M377.996,-224.3733C357.3565,-215.3435 326.2842,-201.7494 303.1111,-191.6111"/>
<polygon fill="#191970" stroke="#191970" points="304.2813,-188.3028 293.7169,-187.5011 301.4755,-194.7159 304.2813,-188.3028"/>
</g>
<!-- Node5 -->
<g id="node6" class="node">
<title>Node5</title>
<g id="a_node6"><a xlink:href="l4_2sys_2l4int_8h.html" target="_top" xlink:title="Fixed sized integer types, generic version. ">
<polygon fill="#ffffff" stroke="#000000" points="117,-56.5 117,-75.5 191,-75.5 191,-56.5 117,-56.5"/>
<text text-anchor="middle" x="154" y="-63.5" font-family="Helvetica,sans-Serif" font-size="10.00" fill="#000000">l4/sys/l4int.h</text>
</a>
</g>
</g>
<!-- Node3&#45;&gt;Node5 -->
<g id="edge16" class="edge">
<title>Node3&#45;&gt;Node5</title>
<path fill="none" stroke="#191970" d="M405.6596,-224.4197C418.1394,-201.9121 444.79,-145.0725 417,-112 403.2687,-95.6586 273.1477,-79.0193 201.2295,-70.9703"/>
<polygon fill="#191970" stroke="#191970" points="201.3859,-67.4663 191.0618,-69.8461 200.6166,-74.4239 201.3859,-67.4663"/>
</g>
<!-- Node6 -->
<g id="node7" class="node">
<title>Node6</title>
<g id="a_node7"><a xlink:href="compiler_8h.html" target="_top" xlink:title="L4 compiler related defines. ">
<polygon fill="#ffffff" stroke="#000000" points="306.5,-56.5 306.5,-75.5 401.5,-75.5 401.5,-56.5 306.5,-56.5"/>
<text text-anchor="middle" x="354" y="-63.5" font-family="Helvetica,sans-Serif" font-size="10.00" fill="#000000">l4/sys/compiler.h</text>
</a>
</g>
</g>
<!-- Node3&#45;&gt;Node6 -->
<g id="edge15" class="edge">
<title>Node3&#45;&gt;Node6</title>
<path fill="none" stroke="#191970" d="M405.0199,-224.1915C415.3111,-202.6157 436.2755,-149.941 417,-112 410.139,-98.4951 397.2468,-88.0099 384.9034,-80.4839"/>
<polygon fill="#191970" stroke="#191970" points="386.5367,-77.3868 376.1066,-75.5258 383.0997,-83.4849 386.5367,-77.3868"/>
</g>
<!-- Node4&#45;&gt;Node5 -->
<g id="edge5" class="edge">
<title>Node4&#45;&gt;Node5</title>
<path fill="none" stroke="#191970" d="M231.656,-170.0942C194.9511,-161.9851 144.7592,-148.2779 133,-132 122.7186,-117.7677 130.9975,-98.2994 140.0089,-84.1981"/>
<polygon fill="#191970" stroke="#191970" points="143.0043,-86.0214 145.8488,-75.8156 137.2607,-82.02 143.0043,-86.0214"/>
</g>
<!-- Node4&#45;&gt;Node6 -->
<g id="edge6" class="edge">
<title>Node4&#45;&gt;Node6</title>
<path fill="none" stroke="#191970" d="M272.8295,-168.1967C274.4029,-154.5077 278.8378,-129.3938 291,-112 299.9925,-99.1394 313.7518,-88.4967 326.1202,-80.6989"/>
<polygon fill="#191970" stroke="#191970" points="327.9926,-83.6575 334.7925,-75.5327 324.4101,-77.6437 327.9926,-83.6575"/>
</g>
<!-- Node8 -->
<g id="node9" class="node">
<title>Node8</title>
<g id="a_node9"><a xlink:href="l4_2sys_2consts_8h.html" target="_top" xlink:title="Common constants. ">
<polygon fill="#ffffff" stroke="#000000" points="0,-112.5 0,-131.5 86,-131.5 86,-112.5 0,-112.5"/>
<text text-anchor="middle" x="43" y="-119.5" font-family="Helvetica,sans-Serif" font-size="10.00" fill="#000000">l4/sys/consts.h</text>
</a>
</g>
</g>
<!-- Node4&#45;&gt;Node8 -->
<g id="edge8" class="edge">
<title>Node4&#45;&gt;Node8</title>
<path fill="none" stroke="#191970" d="M232.8937,-168.4369C193.8668,-158.8932 133.8035,-144.2052 91.7038,-133.9101"/>
<polygon fill="#191970" stroke="#191970" points="92.4902,-130.4993 81.945,-131.5237 90.8274,-137.299 92.4902,-130.4993"/>
</g>
<!-- Node9 -->
<g id="node10" class="node">
<title>Node9</title>
<g id="a_node10"><a xlink:href="____l4__fpage_8h_source.html" target="_top" xlink:title="l4/sys/__l4_fpage.h">
<polygon fill="#ffffff" stroke="#000000" points="300,-112.5 300,-131.5 408,-131.5 408,-112.5 300,-112.5"/>
<text text-anchor="middle" x="354" y="-119.5" font-family="Helvetica,sans-Serif" font-size="10.00" fill="#000000">l4/sys/__l4_fpage.h</text>
</a>
</g>
</g>
<!-- Node4&#45;&gt;Node9 -->
<g id="edge11" class="edge">
<title>Node4&#45;&gt;Node9</title>
<path fill="none" stroke="#191970" d="M286.2833,-168.2455C298.747,-159.7337 317.0451,-147.2375 331.4792,-137.3801"/>
<polygon fill="#191970" stroke="#191970" points="333.5962,-140.1726 339.8804,-131.6427 329.6485,-134.392 333.5962,-140.1726"/>
</g>
<!-- Node10 -->
<g id="node11" class="node">
<title>Node10</title>
<g id="a_node11"><a xlink:href="____timeout_8h_source.html" target="_top" xlink:title="l4/sys/__timeout.h">
<polygon fill="#ffffff" stroke="#000000" points="142.5,-112.5 142.5,-131.5 243.5,-131.5 243.5,-112.5 142.5,-112.5"/>
<text text-anchor="middle" x="193" y="-119.5" font-family="Helvetica,sans-Serif" font-size="10.00" fill="#000000">l4/sys/__timeout.h</text>
</a>
</g>
</g>
<!-- Node4&#45;&gt;Node10 -->
<g id="edge13" class="edge">
<title>Node4&#45;&gt;Node10</title>
<path fill="none" stroke="#191970" d="M258.2393,-168.2455C246.3448,-159.814 228.935,-147.4729 215.0915,-137.6598"/>
<polygon fill="#191970" stroke="#191970" points="216.7854,-134.5704 206.6031,-131.6427 212.7372,-140.2811 216.7854,-134.5704"/>
</g>
<!-- Node7 -->
<g id="node8" class="node">
<title>Node7</title>
<polygon fill="#ffffff" stroke="#bfbfbf" points="309.5,-.5 309.5,-19.5 398.5,-19.5 398.5,-.5 309.5,-.5"/>
<text text-anchor="middle" x="354" y="-7.5" font-family="Helvetica,sans-Serif" font-size="10.00" fill="#000000">l4/sys/linkage.h</text>
</g>
<!-- Node6&#45;&gt;Node7 -->
<g id="edge7" class="edge">
<title>Node6&#45;&gt;Node7</title>
<path fill="none" stroke="#191970" d="M354,-56.2455C354,-48.9382 354,-38.6944 354,-29.7046"/>
<polygon fill="#191970" stroke="#191970" points="357.5001,-29.6426 354,-19.6427 350.5001,-29.6427 357.5001,-29.6426"/>
</g>
<!-- Node8&#45;&gt;Node5 -->
<g id="edge10" class="edge">
<title>Node8&#45;&gt;Node5</title>
<path fill="none" stroke="#191970" d="M62.0816,-112.3733C79.7402,-103.4644 106.2053,-90.1127 126.2098,-80.0203"/>
<polygon fill="#191970" stroke="#191970" points="127.8158,-83.1303 135.1674,-75.5011 124.6628,-76.8806 127.8158,-83.1303"/>
</g>
<!-- Node8&#45;&gt;Node6 -->
<g id="edge9" class="edge">
<title>Node8&#45;&gt;Node6</title>
<path fill="none" stroke="#191970" d="M86.2432,-114.2134C140.9124,-104.3695 235.2193,-87.3882 296.0728,-76.4306"/>
<polygon fill="#191970" stroke="#191970" points="297.0627,-79.8087 306.2842,-74.5919 295.8222,-72.9195 297.0627,-79.8087"/>
</g>
<!-- Node9&#45;&gt;Node6 -->
<g id="edge12" class="edge">
<title>Node9&#45;&gt;Node6</title>
<path fill="none" stroke="#191970" d="M354,-112.2455C354,-104.9382 354,-94.6944 354,-85.7046"/>
<polygon fill="#191970" stroke="#191970" points="357.5001,-85.6426 354,-75.6427 350.5001,-85.6427 357.5001,-85.6426"/>
</g>
<!-- Node10&#45;&gt;Node5 -->
<g id="edge14" class="edge">
<title>Node10&#45;&gt;Node5</title>
<path fill="none" stroke="#191970" d="M186.2067,-112.2455C180.7822,-104.4564 173.0339,-93.3308 166.4967,-83.9439"/>
<polygon fill="#191970" stroke="#191970" points="169.3025,-81.8485 160.7154,-75.6427 163.5583,-85.849 169.3025,-81.8485"/>
</g>
<!-- Node11&#45;&gt;Node6 -->
<g id="edge18" class="edge">
<title>Node11&#45;&gt;Node6</title>
<path fill="none" stroke="#191970" d="M499.5419,-224.207C504.7492,-201.7351 514.0677,-145.8052 488,-112 477.7572,-98.7169 440.3927,-86.5305 407.7135,-78.0427"/>
<polygon fill="#191970" stroke="#191970" points="408.3098,-74.5835 397.7574,-75.5301 406.5969,-81.3707 408.3098,-74.5835"/>
</g>
<!-- Node12&#45;&gt;Node1 -->
<g id="edge31" class="edge">
<title>Node12&#45;&gt;Node1</title>
<path fill="none" stroke="#191970" d="M264.5531,-448.3733C298.4104,-438.9404 350.146,-424.5265 386.9426,-414.2747"/>
<polygon fill="#191970" stroke="#191970" points="388.204,-417.5566 396.8978,-411.5011 386.3253,-410.8135 388.204,-417.5566"/>
</g>
<!-- Node12&#45;&gt;Node2 -->
<g id="edge30" class="edge">
<title>Node12&#45;&gt;Node2</title>
<path fill="none" stroke="#191970" d="M239.8901,-448.4509C259.6656,-429.3574 304.2921,-386.2697 328.9041,-362.5063"/>
<polygon fill="#191970" stroke="#191970" points="331.372,-364.9888 336.1349,-355.5249 326.5098,-359.9529 331.372,-364.9888"/>
</g>
<!-- Node13 -->
<g id="node14" class="node">
<title>Node13</title>
<g id="a_node14"><a xlink:href="capability_8h_source.html" target="_top" xlink:title="capability.h">
<polygon fill="#ffffff" stroke="#000000" points="196,-392.5 196,-411.5 264,-411.5 264,-392.5 196,-392.5"/>
<text text-anchor="middle" x="230" y="-399.5" font-family="Helvetica,sans-Serif" font-size="10.00" fill="#000000">capability.h</text>
</a>
</g>
</g>
<!-- Node12&#45;&gt;Node13 -->
<g id="edge20" class="edge">
<title>Node12&#45;&gt;Node13</title>
<path fill="none" stroke="#191970" d="M230,-448.2455C230,-440.9382 230,-430.6944 230,-421.7046"/>
<polygon fill="#191970" stroke="#191970" points="233.5001,-421.6426 230,-411.6427 226.5001,-421.6427 233.5001,-421.6426"/>
</g>
<!-- Node13&#45;&gt;Node4 -->
<g id="edge22" class="edge">
<title>Node13&#45;&gt;Node4</title>
<path fill="none" stroke="#191970" d="M217.5788,-392.18C207.9984,-383.7529 195.4865,-370.6707 190,-356 186.8864,-347.6743 187.8926,-344.6355 190,-336 203.3631,-281.2421 239.3055,-224.3123 258.8722,-196.0982"/>
<polygon fill="#191970" stroke="#191970" points="261.9114,-197.8621 264.8238,-187.6754 256.1946,-193.8225 261.9114,-197.8621"/>
</g>
<!-- Node13&#45;&gt;Node8 -->
<g id="edge21" class="edge">
<title>Node13&#45;&gt;Node8</title>
<path fill="none" stroke="#191970" d="M226.1636,-392.2883C218.9313,-373.0769 204,-328.7253 204,-290 204,-290 204,-290 204,-234 204,-179.6419 141.3885,-149.5246 94.256,-134.5539"/>
<polygon fill="#191970" stroke="#191970" points="95.0468,-131.1364 84.4615,-131.5859 93.0167,-137.8356 95.0468,-131.1364"/>
</g>
<!-- Node14 -->
<g id="node15" class="node">
<title>Node14</title>
<g id="a_node15"><a xlink:href="l4_2sys_2task_8h.html" target="_top" xlink:title="Common task related definitions. ">
<polygon fill="#ffffff" stroke="#000000" points="233,-336.5 233,-355.5 307,-355.5 307,-336.5 233,-336.5"/>
<text text-anchor="middle" x="270" y="-343.5" font-family="Helvetica,sans-Serif" font-size="10.00" fill="#000000">l4/sys/task.h</text>
</a>
</g>
</g>
<!-- Node13&#45;&gt;Node14 -->
<g id="edge23" class="edge">
<title>Node13&#45;&gt;Node14</title>
<path fill="none" stroke="#191970" d="M236.9675,-392.2455C242.5311,-384.4564 250.478,-373.3308 257.1829,-363.9439"/>
<polygon fill="#191970" stroke="#191970" points="260.148,-365.8144 263.1124,-355.6427 254.4519,-361.7457 260.148,-365.8144"/>
</g>
<!-- Node14&#45;&gt;Node3 -->
<g id="edge25" class="edge">
<title>Node14&#45;&gt;Node3</title>
<path fill="none" stroke="#191970" d="M307.0489,-337.5577C329.344,-330.7649 356.8335,-319.1141 375,-300 387.1077,-287.2608 393.4959,-268.0772 396.7729,-253.6702"/>
<polygon fill="#191970" stroke="#191970" points="400.2244,-254.2568 398.7155,-243.77 393.3554,-252.9089 400.2244,-254.2568"/>
</g>
<!-- Node14&#45;&gt;Node4 -->
<g id="edge24" class="edge">
<title>Node14&#45;&gt;Node4</title>
<path fill="none" stroke="#191970" d="M270.1133,-336.4862C270.4294,-309.9293 271.3266,-234.5651 271.7599,-198.1655"/>
<polygon fill="#191970" stroke="#191970" points="275.2636,-197.8689 271.883,-187.8279 268.2641,-197.7855 275.2636,-197.8689"/>
</g>
<!-- Node15 -->
<g id="node16" class="node">
<title>Node15</title>
<g id="a_node16"><a xlink:href="l4_2sys_2ipc_8h.html" target="_top" xlink:title="Common IPC interface. ">
<polygon fill="#ffffff" stroke="#000000" points="298,-280.5 298,-299.5 366,-299.5 366,-280.5 298,-280.5"/>
<text text-anchor="middle" x="332" y="-287.5" font-family="Helvetica,sans-Serif" font-size="10.00" fill="#000000">l4/sys/ipc.h</text>
</a>
</g>
</g>
<!-- Node14&#45;&gt;Node15 -->
<g id="edge26" class="edge">
<title>Node14&#45;&gt;Node15</title>
<path fill="none" stroke="#191970" d="M280.7996,-336.2455C289.8678,-328.0549 303.0206,-316.1749 313.7245,-306.5069"/>
<polygon fill="#191970" stroke="#191970" points="316.2491,-308.9429 321.3242,-299.6427 311.5571,-303.7482 316.2491,-308.9429"/>
</g>
<!-- Node15&#45;&gt;Node3 -->
<g id="edge28" class="edge">
<title>Node15&#45;&gt;Node3</title>
<path fill="none" stroke="#191970" d="M343.8447,-280.2455C353.888,-271.9746 368.4995,-259.9416 380.3004,-250.2232"/>
<polygon fill="#191970" stroke="#191970" points="382.7967,-252.7015 388.291,-243.6427 378.3467,-247.298 382.7967,-252.7015"/>
</g>
<!-- Node15&#45;&gt;Node4 -->
<g id="edge27" class="edge">
<title>Node15&#45;&gt;Node4</title>
<path fill="none" stroke="#191970" d="M326.8844,-280.4509C316.9214,-261.8533 294.7635,-220.4919 281.8552,-196.3964"/>
<polygon fill="#191970" stroke="#191970" points="284.9101,-194.6869 277.1026,-187.5249 278.7397,-197.9925 284.9101,-194.6869"/>
</g>
<!-- Node15&#45;&gt;Node11 -->
<g id="edge29" class="edge">
<title>Node15&#45;&gt;Node11</title>
<path fill="none" stroke="#191970" d="M360.3645,-280.3733C387.6827,-271.1016 429.1796,-257.0178 459.2738,-246.804"/>
<polygon fill="#191970" stroke="#191970" points="460.661,-250.0294 469.0056,-243.5011 458.4113,-243.4008 460.661,-250.0294"/>
</g>
<!-- Node16&#45;&gt;Node1 -->
<g id="edge33" class="edge">
<title>Node16&#45;&gt;Node1</title>
<path fill="none" stroke="#191970" d="M397.1734,-504.4997C402.8075,-495.4465 410.9964,-481.2672 416,-468 421.7015,-452.8824 425.6056,-434.9643 427.9984,-421.6153"/>
<polygon fill="#191970" stroke="#191970" points="431.4695,-422.0775 429.6591,-411.6385 424.5645,-420.9281 431.4695,-422.0775"/>
</g>
<!-- Node16&#45;&gt;Node12 -->
<g id="edge34" class="edge">
<title>Node16&#45;&gt;Node12</title>
<path fill="none" stroke="#191970" d="M363.3231,-504.3733C336.6672,-495.1016 296.1762,-481.0178 266.8116,-470.804"/>
<polygon fill="#191970" stroke="#191970" points="267.9105,-467.4807 257.3157,-467.5011 265.6109,-474.0921 267.9105,-467.4807"/>
</g>
<!-- Node16&#45;&gt;Node17 -->
<g id="edge35" class="edge">
<title>Node16&#45;&gt;Node17</title>
<path fill="none" stroke="#191970" d="M384.7293,-504.2455C379.7736,-496.5367 372.717,-485.5598 366.7224,-476.2348"/>
<polygon fill="#191970" stroke="#191970" points="369.5506,-474.1618 361.1989,-467.6427 363.6624,-477.9471 369.5506,-474.1618"/>
</g>
<!-- Node17&#45;&gt;Node1 -->
<g id="edge37" class="edge">
<title>Node17&#45;&gt;Node1</title>
<path fill="none" stroke="#191970" d="M368.2382,-448.2455C379.681,-439.814 396.4296,-427.4729 409.7475,-417.6598"/>
<polygon fill="#191970" stroke="#191970" points="411.9391,-420.3924 417.9135,-411.6427 407.7867,-414.757 411.9391,-420.3924"/>
</g>
<!-- Node17&#45;&gt;Node2 -->
<g id="edge36" class="edge">
<title>Node17&#45;&gt;Node2</title>
<path fill="none" stroke="#191970" d="M354.2327,-448.4509C352.7648,-430.184 349.5321,-389.9553 347.5828,-365.6976"/>
<polygon fill="#191970" stroke="#191970" points="351.0552,-365.2124 346.7654,-355.5249 344.0777,-365.7731 351.0552,-365.2124"/>
</g>
<!-- Node17&#45;&gt;Node13 -->
<g id="edge38" class="edge">
<title>Node17&#45;&gt;Node13</title>
<path fill="none" stroke="#191970" d="M333.5117,-448.3733C313.356,-439.3435 283.012,-425.7494 260.382,-415.6111"/>
<polygon fill="#191970" stroke="#191970" points="261.7649,-412.3955 251.2079,-411.5011 258.9029,-418.7838 261.7649,-412.3955"/>
</g>
</g>
</svg>
