<?xml version="1.0" encoding="UTF-8" standalone="no"?>
<!DOCTYPE svg PUBLIC "-//W3C//DTD SVG 1.1//EN"
 "http://www.w3.org/Graphics/SVG/1.1/DTD/svg11.dtd">
<!-- Generated by graphviz version 2.40.1 (20161225.0304)
 -->
<!-- Title: l4/sys/ipc_gate.h Pages: 1 -->
<svg width="133pt" height="140pt"
 viewBox="0.00 0.00 133.00 140.00" xmlns="http://www.w3.org/2000/svg" xmlns:xlink="http://www.w3.org/1999/xlink">
<g id="graph0" class="graph" transform="scale(1 1) rotate(0) translate(4 136)">
<title>l4/sys/ipc_gate.h</title>
<polygon fill="#ffffff" stroke="transparent" points="-4,4 -4,-136 129,-136 129,4 -4,4"/>
<!-- Node12 -->
<g id="node1" class="node">
<title>Node12</title>
<polygon fill="#bfbfbf" stroke="#000000" points="15,-112.5 15,-131.5 110,-131.5 110,-112.5 15,-112.5"/>
<text text-anchor="middle" x="62.5" y="-119.5" font-family="Helvetica,sans-Serif" font-size="10.00" fill="#000000">l4/sys/ipc_gate.h</text>
</g>
<!-- Node13 -->
<g id="node2" class="node">
<title>Node13</title>
<g id="a_node2"><a xlink:href="ipc__gate.html" target="_top" xlink:title="The C++ IPC gate interface. ">
<polygon fill="#ffffff" stroke="#000000" points="19,-56.5 19,-75.5 106,-75.5 106,-56.5 19,-56.5"/>
<text text-anchor="middle" x="62.5" y="-63.5" font-family="Helvetica,sans-Serif" font-size="10.00" fill="#000000">l4/sys/ipc_gate</text>
</a>
</g>
</g>
<!-- Node12&#45;&gt;Node13 -->
<g id="edge1" class="edge">
<title>Node12&#45;&gt;Node13</title>
<path fill="none" stroke="#191970" d="M62.5,-102.1575C62.5,-93.155 62.5,-82.9199 62.5,-75.6427"/>
<polygon fill="#191970" stroke="#191970" points="59.0001,-102.2455 62.5,-112.2455 66.0001,-102.2456 59.0001,-102.2455"/>
</g>
<!-- Node14 -->
<g id="node3" class="node">
<title>Node14</title>
<g id="a_node3"><a xlink:href="object__registry_source.html" target="_top" xlink:title="l4/re/util/object_registry">
<polygon fill="#ffffff" stroke="#000000" points="0,-.5 0,-19.5 125,-19.5 125,-.5 0,-.5"/>
<text text-anchor="middle" x="62.5" y="-7.5" font-family="Helvetica,sans-Serif" font-size="10.00" fill="#000000">l4/re/util/object_registry</text>
</a>
</g>
</g>
<!-- Node13&#45;&gt;Node14 -->
<g id="edge2" class="edge">
<title>Node13&#45;&gt;Node14</title>
<path fill="none" stroke="#191970" d="M62.5,-46.1575C62.5,-37.155 62.5,-26.9199 62.5,-19.6427"/>
<polygon fill="#191970" stroke="#191970" points="59.0001,-46.2455 62.5,-56.2455 66.0001,-46.2456 59.0001,-46.2455"/>
</g>
</g>
</svg>
