<?xml version="1.0" encoding="UTF-8" standalone="no"?>
<!DOCTYPE svg PUBLIC "-//W3C//DTD SVG 1.1//EN"
 "http://www.w3.org/Graphics/SVG/1.1/DTD/svg11.dtd">
<!-- Generated by graphviz version 2.40.1 (20161225.0304)
 -->
<!-- Title: l4/sys/ipc_gate.h Pages: 1 -->
<svg width="480pt" height="420pt"
 viewBox="0.00 0.00 479.81 420.00" xmlns="http://www.w3.org/2000/svg" xmlns:xlink="http://www.w3.org/1999/xlink">
<g id="graph0" class="graph" transform="scale(1 1) rotate(0) translate(4 416)">
<title>l4/sys/ipc_gate.h</title>
<polygon fill="#ffffff" stroke="transparent" points="-4,4 -4,-416 475.8106,-416 475.8106,4 -4,4"/>
<!-- Node0 -->
<g id="node1" class="node">
<title>Node0</title>
<polygon fill="#bfbfbf" stroke="#000000" points="203.0646,-392.5 203.0646,-411.5 298.0646,-411.5 298.0646,-392.5 203.0646,-392.5"/>
<text text-anchor="middle" x="250.5646" y="-399.5" font-family="Helvetica,sans-Serif" font-size="10.00" fill="#000000">l4/sys/ipc_gate.h</text>
</g>
<!-- Node1 -->
<g id="node2" class="node">
<title>Node1</title>
<g id="a_node2"><a xlink:href="l4_2sys_2utcb_8h.html" target="_top" xlink:title="UTCB definitions. ">
<polygon fill="#ffffff" stroke="#000000" points="105.5646,-224.5 105.5646,-243.5 179.5646,-243.5 179.5646,-224.5 105.5646,-224.5"/>
<text text-anchor="middle" x="142.5646" y="-231.5" font-family="Helvetica,sans-Serif" font-size="10.00" fill="#000000">l4/sys/utcb.h</text>
</a>
</g>
</g>
<!-- Node0&#45;&gt;Node1 -->
<g id="edge1" class="edge">
<title>Node0&#45;&gt;Node1</title>
<path fill="none" stroke="#191970" d="M202.9204,-394.5862C179.9877,-388.3601 154.502,-376.9353 140.5646,-356 119.9186,-324.9876 128.5846,-279.0048 136.0319,-253.2586"/>
<polygon fill="#191970" stroke="#191970" points="139.4187,-254.155 139.06,-243.5662 132.7371,-252.0675 139.4187,-254.155"/>
</g>
<!-- Node2 -->
<g id="node3" class="node">
<title>Node2</title>
<g id="a_node3"><a xlink:href="l4_2sys_2types_8h.html" target="_top" xlink:title="Common L4 ABI Data Types. ">
<polygon fill="#ffffff" stroke="#000000" points="211.5646,-168.5 211.5646,-187.5 291.5646,-187.5 291.5646,-168.5 211.5646,-168.5"/>
<text text-anchor="middle" x="251.5646" y="-175.5" font-family="Helvetica,sans-Serif" font-size="10.00" fill="#000000">l4/sys/types.h</text>
</a>
</g>
</g>
<!-- Node0&#45;&gt;Node2 -->
<g id="edge15" class="edge">
<title>Node0&#45;&gt;Node2</title>
<path fill="none" stroke="#191970" d="M261.2286,-392.4335C282.0329,-372.5546 324.9626,-324.8864 312.5646,-280 303.561,-247.4027 281.0827,-214.7358 266.074,-195.4498"/>
<polygon fill="#191970" stroke="#191970" points="268.7581,-193.2022 259.7789,-187.5786 263.2914,-197.5743 268.7581,-193.2022"/>
</g>
<!-- Node9 -->
<g id="node10" class="node">
<title>Node9</title>
<g id="a_node10"><a xlink:href="rcv__endpoint_8h.html" target="_top" xlink:title="Receive endpoint C interface. ">
<polygon fill="#ffffff" stroke="#000000" points="149.5646,-336.5 149.5646,-355.5 265.5646,-355.5 265.5646,-336.5 149.5646,-336.5"/>
<text text-anchor="middle" x="207.5646" y="-343.5" font-family="Helvetica,sans-Serif" font-size="10.00" fill="#000000">l4/sys/rcv_endpoint.h</text>
</a>
</g>
</g>
<!-- Node0&#45;&gt;Node9 -->
<g id="edge16" class="edge">
<title>Node0&#45;&gt;Node9</title>
<path fill="none" stroke="#191970" d="M243.0746,-392.2455C237.032,-384.3761 228.3743,-373.101 221.1205,-363.6542"/>
<polygon fill="#191970" stroke="#191970" points="223.8352,-361.4426 214.9688,-355.6427 218.2831,-365.7058 223.8352,-361.4426"/>
</g>
<!-- Node10 -->
<g id="node11" class="node">
<title>Node10</title>
<g id="a_node11"><a xlink:href="l4_2sys_2ipc_8h.html" target="_top" xlink:title="Common IPC interface. ">
<polygon fill="#ffffff" stroke="#000000" points="235.5646,-280.5 235.5646,-299.5 303.5646,-299.5 303.5646,-280.5 235.5646,-280.5"/>
<text text-anchor="middle" x="269.5646" y="-287.5" font-family="Helvetica,sans-Serif" font-size="10.00" fill="#000000">l4/sys/ipc.h</text>
</a>
</g>
</g>
<!-- Node0&#45;&gt;Node10 -->
<g id="edge24" class="edge">
<title>Node0&#45;&gt;Node10</title>
<path fill="none" stroke="#191970" d="M257.3854,-392.328C263.2472,-383.3825 271.2613,-369.4728 274.5646,-356 278.3272,-340.6542 276.6055,-322.753 274.2054,-309.4686"/>
<polygon fill="#191970" stroke="#191970" points="277.6052,-308.6266 272.1353,-299.5529 270.7529,-310.0572 277.6052,-308.6266"/>
</g>
<!-- Node1&#45;&gt;Node2 -->
<g id="edge2" class="edge">
<title>Node1&#45;&gt;Node2</title>
<path fill="none" stroke="#191970" d="M161.551,-224.2455C178.7438,-215.4125 204.2884,-202.2887 223.7778,-192.2758"/>
<polygon fill="#191970" stroke="#191970" points="225.5005,-195.3257 232.7959,-187.6427 222.3016,-189.0993 225.5005,-195.3257"/>
</g>
<!-- Node3 -->
<g id="node4" class="node">
<title>Node3</title>
<g id="a_node4"><a xlink:href="l4_2sys_2l4int_8h.html" target="_top" xlink:title="Fixed sized integer types, generic version. ">
<polygon fill="#ffffff" stroke="#000000" points="85.5646,-56.5 85.5646,-75.5 159.5646,-75.5 159.5646,-56.5 85.5646,-56.5"/>
<text text-anchor="middle" x="122.5646" y="-63.5" font-family="Helvetica,sans-Serif" font-size="10.00" fill="#000000">l4/sys/l4int.h</text>
</a>
</g>
</g>
<!-- Node1&#45;&gt;Node3 -->
<g id="edge14" class="edge">
<title>Node1&#45;&gt;Node3</title>
<path fill="none" stroke="#191970" d="M118.1426,-224.4789C85.1122,-210.1032 27.5727,-179.3959 3.5646,-132 -13.2149,-98.8744 35.4703,-81.5456 75.5573,-73.1031"/>
<polygon fill="#191970" stroke="#191970" points="76.382,-76.5081 85.5185,-71.144 75.0311,-69.6396 76.382,-76.5081"/>
</g>
<!-- Node4 -->
<g id="node5" class="node">
<title>Node4</title>
<g id="a_node5"><a xlink:href="compiler_8h.html" target="_top" xlink:title="L4 compiler related defines. ">
<polygon fill="#ffffff" stroke="#000000" points="275.0646,-56.5 275.0646,-75.5 370.0646,-75.5 370.0646,-56.5 275.0646,-56.5"/>
<text text-anchor="middle" x="322.5646" y="-63.5" font-family="Helvetica,sans-Serif" font-size="10.00" fill="#000000">l4/sys/compiler.h</text>
</a>
</g>
</g>
<!-- Node1&#45;&gt;Node4 -->
<g id="edge13" class="edge">
<title>Node1&#45;&gt;Node4</title>
<path fill="none" stroke="#191970" d="M144.4729,-224.2825C149.4412,-201.4783 164.8764,-144.0444 199.5646,-112 217.7266,-95.2223 242.575,-84.4044 265.1851,-77.5077"/>
<polygon fill="#191970" stroke="#191970" points="266.3892,-80.804 275.0468,-74.697 264.4704,-74.0721 266.3892,-80.804"/>
</g>
<!-- Node2&#45;&gt;Node3 -->
<g id="edge3" class="edge">
<title>Node2&#45;&gt;Node3</title>
<path fill="none" stroke="#191970" d="M240.5662,-168.4509C218.4793,-149.2747 168.5165,-105.8962 141.2222,-82.1988"/>
<polygon fill="#191970" stroke="#191970" points="143.381,-79.438 133.5353,-75.5249 138.7918,-84.7238 143.381,-79.438"/>
</g>
<!-- Node2&#45;&gt;Node4 -->
<g id="edge4" class="edge">
<title>Node2&#45;&gt;Node4</title>
<path fill="none" stroke="#191970" d="M266.4335,-168.3992C278.1461,-160.0994 294.0373,-147.0814 303.5646,-132 312.509,-117.8414 317.358,-99.3521 319.9131,-85.5461"/>
<polygon fill="#191970" stroke="#191970" points="323.3723,-86.0791 321.5049,-75.6502 316.4611,-84.9674 323.3723,-86.0791"/>
</g>
<!-- Node6 -->
<g id="node7" class="node">
<title>Node6</title>
<g id="a_node7"><a xlink:href="l4_2sys_2consts_8h.html" target="_top" xlink:title="Common constants. ">
<polygon fill="#ffffff" stroke="#000000" points="208.5646,-112.5 208.5646,-131.5 294.5646,-131.5 294.5646,-112.5 208.5646,-112.5"/>
<text text-anchor="middle" x="251.5646" y="-119.5" font-family="Helvetica,sans-Serif" font-size="10.00" fill="#000000">l4/sys/consts.h</text>
</a>
</g>
</g>
<!-- Node2&#45;&gt;Node6 -->
<g id="edge6" class="edge">
<title>Node2&#45;&gt;Node6</title>
<path fill="none" stroke="#191970" d="M251.5646,-168.2455C251.5646,-160.9382 251.5646,-150.6944 251.5646,-141.7046"/>
<polygon fill="#191970" stroke="#191970" points="255.0647,-141.6426 251.5646,-131.6427 248.0647,-141.6427 255.0647,-141.6426"/>
</g>
<!-- Node7 -->
<g id="node8" class="node">
<title>Node7</title>
<g id="a_node8"><a xlink:href="____l4__fpage_8h_source.html" target="_top" xlink:title="l4/sys/__l4_fpage.h">
<polygon fill="#ffffff" stroke="#000000" points="350.5646,-112.5 350.5646,-131.5 458.5646,-131.5 458.5646,-112.5 350.5646,-112.5"/>
<text text-anchor="middle" x="404.5646" y="-119.5" font-family="Helvetica,sans-Serif" font-size="10.00" fill="#000000">l4/sys/__l4_fpage.h</text>
</a>
</g>
</g>
<!-- Node2&#45;&gt;Node7 -->
<g id="edge9" class="edge">
<title>Node2&#45;&gt;Node7</title>
<path fill="none" stroke="#191970" d="M277.8663,-168.3733C302.9774,-159.1822 341.0084,-145.2624 368.8518,-135.0713"/>
<polygon fill="#191970" stroke="#191970" points="370.4185,-138.2251 378.6062,-131.5011 368.0124,-131.6516 370.4185,-138.2251"/>
</g>
<!-- Node8 -->
<g id="node9" class="node">
<title>Node8</title>
<g id="a_node9"><a xlink:href="____timeout_8h_source.html" target="_top" xlink:title="l4/sys/__timeout.h">
<polygon fill="#ffffff" stroke="#000000" points="13.0646,-112.5 13.0646,-131.5 114.0646,-131.5 114.0646,-112.5 13.0646,-112.5"/>
<text text-anchor="middle" x="63.5646" y="-119.5" font-family="Helvetica,sans-Serif" font-size="10.00" fill="#000000">l4/sys/__timeout.h</text>
</a>
</g>
</g>
<!-- Node2&#45;&gt;Node8 -->
<g id="edge11" class="edge">
<title>Node2&#45;&gt;Node8</title>
<path fill="none" stroke="#191970" d="M219.2463,-168.3733C187.7141,-158.9807 139.6026,-144.6496 105.2145,-134.4064"/>
<polygon fill="#191970" stroke="#191970" points="106.0443,-131.0016 95.4613,-131.5011 104.0459,-137.7103 106.0443,-131.0016"/>
</g>
<!-- Node5 -->
<g id="node6" class="node">
<title>Node5</title>
<polygon fill="#ffffff" stroke="#bfbfbf" points="278.0646,-.5 278.0646,-19.5 367.0646,-19.5 367.0646,-.5 278.0646,-.5"/>
<text text-anchor="middle" x="322.5646" y="-7.5" font-family="Helvetica,sans-Serif" font-size="10.00" fill="#000000">l4/sys/linkage.h</text>
</g>
<!-- Node4&#45;&gt;Node5 -->
<g id="edge5" class="edge">
<title>Node4&#45;&gt;Node5</title>
<path fill="none" stroke="#191970" d="M322.5646,-56.2455C322.5646,-48.9382 322.5646,-38.6944 322.5646,-29.7046"/>
<polygon fill="#191970" stroke="#191970" points="326.0647,-29.6426 322.5646,-19.6427 319.0647,-29.6427 326.0647,-29.6426"/>
</g>
<!-- Node6&#45;&gt;Node3 -->
<g id="edge8" class="edge">
<title>Node6&#45;&gt;Node3</title>
<path fill="none" stroke="#191970" d="M229.3887,-112.3733C208.588,-103.3435 177.273,-89.7494 153.9188,-79.6111"/>
<polygon fill="#191970" stroke="#191970" points="155.0179,-76.2727 144.4511,-75.5011 152.2304,-82.6938 155.0179,-76.2727"/>
</g>
<!-- Node6&#45;&gt;Node4 -->
<g id="edge7" class="edge">
<title>Node6&#45;&gt;Node4</title>
<path fill="none" stroke="#191970" d="M263.9319,-112.2455C274.52,-103.8943 289.971,-91.7076 302.3539,-81.9408"/>
<polygon fill="#191970" stroke="#191970" points="304.6549,-84.5837 310.3391,-75.6427 300.3199,-79.0875 304.6549,-84.5837"/>
</g>
<!-- Node7&#45;&gt;Node4 -->
<g id="edge10" class="edge">
<title>Node7&#45;&gt;Node4</title>
<path fill="none" stroke="#191970" d="M390.2813,-112.2455C377.8176,-103.7337 359.5195,-91.2375 345.0855,-81.3801"/>
<polygon fill="#191970" stroke="#191970" points="346.9162,-78.392 336.6843,-75.6427 342.9684,-84.1726 346.9162,-78.392"/>
</g>
<!-- Node8&#45;&gt;Node3 -->
<g id="edge12" class="edge">
<title>Node8&#45;&gt;Node3</title>
<path fill="none" stroke="#191970" d="M73.8416,-112.2455C82.3864,-104.1352 94.7424,-92.4075 104.8731,-82.7919"/>
<polygon fill="#191970" stroke="#191970" points="107.5618,-85.0655 112.4054,-75.6427 102.7428,-79.9884 107.5618,-85.0655"/>
</g>
<!-- Node9&#45;&gt;Node1 -->
<g id="edge17" class="edge">
<title>Node9&#45;&gt;Node1</title>
<path fill="none" stroke="#191970" d="M202.0228,-336.4509C191.2295,-317.8533 167.2251,-276.4919 153.2411,-252.3964"/>
<polygon fill="#191970" stroke="#191970" points="156.1391,-250.417 148.0925,-243.5249 150.0849,-253.9307 156.1391,-250.417"/>
</g>
<!-- Node9&#45;&gt;Node2 -->
<g id="edge18" class="edge">
<title>Node9&#45;&gt;Node2</title>
<path fill="none" stroke="#191970" d="M210.0563,-336.4862C217.0418,-309.8144 236.9211,-233.9117 246.4064,-197.695"/>
<polygon fill="#191970" stroke="#191970" points="249.8428,-198.3884 248.9907,-187.8279 243.0712,-196.6148 249.8428,-198.3884"/>
</g>
<!-- Node9&#45;&gt;Node10 -->
<g id="edge19" class="edge">
<title>Node9&#45;&gt;Node10</title>
<path fill="none" stroke="#191970" d="M218.3642,-336.2455C227.4324,-328.0549 240.5852,-316.1749 251.2891,-306.5069"/>
<polygon fill="#191970" stroke="#191970" points="253.8138,-308.9429 258.8888,-299.6427 249.1217,-303.7482 253.8138,-308.9429"/>
</g>
<!-- Node10&#45;&gt;Node1 -->
<g id="edge21" class="edge">
<title>Node10&#45;&gt;Node1</title>
<path fill="none" stroke="#191970" d="M247.7326,-280.3733C227.2543,-271.3435 196.4248,-257.7494 173.4327,-247.6111"/>
<polygon fill="#191970" stroke="#191970" points="174.6739,-244.3333 164.1118,-243.5011 171.8496,-250.7383 174.6739,-244.3333"/>
</g>
<!-- Node10&#45;&gt;Node2 -->
<g id="edge20" class="edge">
<title>Node10&#45;&gt;Node2</title>
<path fill="none" stroke="#191970" d="M268.03,-280.4509C265.0942,-262.184 258.6289,-221.9553 254.7303,-197.6976"/>
<polygon fill="#191970" stroke="#191970" points="258.1379,-196.8428 253.0954,-187.5249 251.2266,-197.9536 258.1379,-196.8428"/>
</g>
<!-- Node11 -->
<g id="node12" class="node">
<title>Node11</title>
<g id="a_node12"><a xlink:href="err_8h.html" target="_top" xlink:title="Error codes. ">
<polygon fill="#ffffff" stroke="#000000" points="380.5646,-168.5 380.5646,-187.5 448.5646,-187.5 448.5646,-168.5 380.5646,-168.5"/>
<text text-anchor="middle" x="414.5646" y="-175.5" font-family="Helvetica,sans-Serif" font-size="10.00" fill="#000000">l4/sys/err.h</text>
</a>
</g>
</g>
<!-- Node10&#45;&gt;Node11 -->
<g id="edge22" class="edge">
<title>Node10&#45;&gt;Node11</title>
<path fill="none" stroke="#191970" d="M281.9272,-280.4509C306.8606,-261.1921 363.398,-217.5218 393.9882,-193.8935"/>
<polygon fill="#191970" stroke="#191970" points="396.4588,-196.4078 402.2333,-187.5249 392.1797,-190.8679 396.4588,-196.4078"/>
</g>
<!-- Node11&#45;&gt;Node4 -->
<g id="edge23" class="edge">
<title>Node11&#45;&gt;Node4</title>
<path fill="none" stroke="#191970" d="M432.0428,-168.3745C452.7545,-155.7092 482.6663,-132.6343 467.5646,-112 456.836,-97.3409 415.7669,-85.1533 380.0634,-77.014"/>
<polygon fill="#191970" stroke="#191970" points="380.6848,-73.567 370.1651,-74.827 379.1745,-80.4021 380.6848,-73.567"/>
</g>
</g>
</svg>
