<?xml version="1.0" encoding="UTF-8" standalone="no"?>
<!DOCTYPE svg PUBLIC "-//W3C//DTD SVG 1.1//EN"
 "http://www.w3.org/Graphics/SVG/1.1/DTD/svg11.dtd">
<!-- Generated by graphviz version 2.40.1 (20161225.0304)
 -->
<!-- Title: l4/cxx/ipc_helper Pages: 1 -->
<svg width="1146pt" height="823pt"
 viewBox="0.00 0.00 1145.63 823.00" xmlns="http://www.w3.org/2000/svg" xmlns:xlink="http://www.w3.org/1999/xlink">
<g id="graph0" class="graph" transform="scale(1 1) rotate(0) translate(4 819)">
<title>l4/cxx/ipc_helper</title>
<polygon fill="#ffffff" stroke="transparent" points="-4,4 -4,-819 1141.6339,-819 1141.6339,4 -4,4"/>
<!-- Node0 -->
<g id="node1" class="node">
<title>Node0</title>
<polygon fill="#bfbfbf" stroke="#000000" points="402,-795.5 402,-814.5 498,-814.5 498,-795.5 402,-795.5"/>
<text text-anchor="middle" x="450" y="-802.5" font-family="Helvetica,sans-Serif" font-size="10.00" fill="#000000">l4/cxx/ipc_helper</text>
</g>
<!-- Node1 -->
<g id="node2" class="node">
<title>Node1</title>
<g id="a_node2"><a xlink:href="exceptions.html" target="_top" xlink:title="Base exceptions. ">
<polygon fill="#ffffff" stroke="#000000" points="888,-739.5 888,-758.5 986,-758.5 986,-739.5 888,-739.5"/>
<text text-anchor="middle" x="937" y="-746.5" font-family="Helvetica,sans-Serif" font-size="10.00" fill="#000000">l4/cxx/exceptions</text>
</a>
</g>
</g>
<!-- Node0&#45;&gt;Node1 -->
<g id="edge1" class="edge">
<title>Node0&#45;&gt;Node1</title>
<path fill="none" stroke="#191970" d="M498.0282,-799.4772C587.721,-789.1635 780.4016,-767.0072 877.9023,-755.7956"/>
<polygon fill="#191970" stroke="#191970" points="878.3527,-759.267 887.8874,-754.6474 877.553,-752.3128 878.3527,-759.267"/>
</g>
<!-- Node15 -->
<g id="node16" class="node">
<title>Node15</title>
<g id="a_node16"><a xlink:href="l4_2sys_2utcb_8h.html" target="_top" xlink:title="UTCB definitions. ">
<polygon fill="#ffffff" stroke="#000000" points="250,-224.5 250,-243.5 324,-243.5 324,-224.5 250,-224.5"/>
<text text-anchor="middle" x="287" y="-231.5" font-family="Helvetica,sans-Serif" font-size="10.00" fill="#000000">l4/sys/utcb.h</text>
</a>
</g>
</g>
<!-- Node0&#45;&gt;Node15 -->
<g id="edge68" class="edge">
<title>Node0&#45;&gt;Node15</title>
<path fill="none" stroke="#191970" d="M401.8421,-803.1786C285.7544,-797.4818 0,-775.1186 0,-693 0,-693 0,-693 0,-581 0,-504.4471 38,-489.5529 38,-413 38,-413 38,-413 38,-351.5 38,-307.2734 168.101,-265.591 240.2193,-245.8829"/>
<polygon fill="#191970" stroke="#191970" points="241.2461,-249.2311 249.9911,-243.2499 239.4248,-242.4722 241.2461,-249.2311"/>
</g>
<!-- Node2 -->
<g id="node3" class="node">
<title>Node2</title>
<g id="a_node3"><a xlink:href="l4types_8h.html" target="_top" xlink:title="L4 Types. ">
<polygon fill="#ffffff" stroke="#000000" points="856.5,-683.5 856.5,-702.5 945.5,-702.5 945.5,-683.5 856.5,-683.5"/>
<text text-anchor="middle" x="901" y="-690.5" font-family="Helvetica,sans-Serif" font-size="10.00" fill="#000000">l4/cxx/l4types.h</text>
</a>
</g>
</g>
<!-- Node1&#45;&gt;Node2 -->
<g id="edge2" class="edge">
<title>Node1&#45;&gt;Node2</title>
<path fill="none" stroke="#191970" d="M930.7293,-739.2455C925.7736,-731.5367 918.717,-720.5598 912.7224,-711.2348"/>
<polygon fill="#191970" stroke="#191970" points="915.5506,-709.1618 907.1989,-702.6427 909.6624,-712.9471 915.5506,-709.1618"/>
</g>
<!-- Node10 -->
<g id="node11" class="node">
<title>Node10</title>
<g id="a_node11"><a xlink:href="basic__ostream.html" target="_top" xlink:title="Basic IO stream. ">
<polygon fill="#ffffff" stroke="#000000" points="916.5,-627.5 916.5,-646.5 1031.5,-646.5 1031.5,-627.5 916.5,-627.5"/>
<text text-anchor="middle" x="974" y="-634.5" font-family="Helvetica,sans-Serif" font-size="10.00" fill="#000000">l4/cxx/basic_ostream</text>
</a>
</g>
</g>
<!-- Node1&#45;&gt;Node10 -->
<g id="edge15" class="edge">
<title>Node1&#45;&gt;Node10</title>
<path fill="none" stroke="#191970" d="M940.8191,-739.1899C944.3827,-729.9177 949.7701,-715.5903 954,-703 959.1833,-687.5718 964.5012,-669.9187 968.3493,-656.7538"/>
<polygon fill="#191970" stroke="#191970" points="971.7835,-657.4771 971.2007,-646.8983 965.0593,-655.5316 971.7835,-657.4771"/>
</g>
<!-- Node11 -->
<g id="node12" class="node">
<title>Node11</title>
<g id="a_node12"><a xlink:href="err_8h.html" target="_top" xlink:title="Error codes. ">
<polygon fill="#ffffff" stroke="#000000" points="685,-224.5 685,-243.5 753,-243.5 753,-224.5 685,-224.5"/>
<text text-anchor="middle" x="719" y="-231.5" font-family="Helvetica,sans-Serif" font-size="10.00" fill="#000000">l4/sys/err.h</text>
</a>
</g>
</g>
<!-- Node1&#45;&gt;Node11 -->
<g id="edge16" class="edge">
<title>Node1&#45;&gt;Node11</title>
<path fill="none" stroke="#191970" d="M986.2695,-742.6921C1033.8667,-735.5564 1101.2846,-722.3513 1119,-703 1141.9675,-677.9115 1141.3293,-658.2933 1128,-627 1085.7328,-527.769 816.3265,-310.6014 739.4527,-249.9906"/>
<polygon fill="#191970" stroke="#191970" points="741.4711,-247.1253 731.4466,-243.6962 737.1447,-252.6283 741.4711,-247.1253"/>
</g>
<!-- Node12 -->
<g id="node13" class="node">
<title>Node12</title>
<g id="a_node13"><a xlink:href="capability.html" target="_top" xlink:title="L4::Cap related definitions. ">
<polygon fill="#ffffff" stroke="#000000" points="498,-683.5 498,-702.5 588,-702.5 588,-683.5 498,-683.5"/>
<text text-anchor="middle" x="543" y="-690.5" font-family="Helvetica,sans-Serif" font-size="10.00" fill="#000000">l4/sys/capability</text>
</a>
</g>
</g>
<!-- Node1&#45;&gt;Node12 -->
<g id="edge18" class="edge">
<title>Node1&#45;&gt;Node12</title>
<path fill="none" stroke="#191970" d="M887.8963,-742.0208C814.1589,-731.5404 675.275,-711.8005 598.1485,-700.8384"/>
<polygon fill="#191970" stroke="#191970" points="598.5381,-697.3586 588.145,-699.4166 597.553,-704.289 598.5381,-697.3586"/>
</g>
<!-- Node28 -->
<g id="node29" class="node">
<title>Node28</title>
<g id="a_node29"><a xlink:href="backtrace_8h.html" target="_top" xlink:title="Backtrace. ">
<polygon fill="#ffffff" stroke="#000000" points="1012,-683.5 1012,-702.5 1110,-702.5 1110,-683.5 1012,-683.5"/>
<text text-anchor="middle" x="1061" y="-690.5" font-family="Helvetica,sans-Serif" font-size="10.00" fill="#000000">l4/util/backtrace.h</text>
</a>
</g>
</g>
<!-- Node1&#45;&gt;Node28 -->
<g id="edge66" class="edge">
<title>Node1&#45;&gt;Node28</title>
<path fill="none" stroke="#191970" d="M958.3164,-739.3733C978.2216,-730.3838 1008.1436,-716.8706 1030.56,-706.7471"/>
<polygon fill="#191970" stroke="#191970" points="1032.2887,-709.8068 1039.9618,-702.5011 1029.4075,-703.4272 1032.2887,-709.8068"/>
</g>
<!-- Node3 -->
<g id="node4" class="node">
<title>Node3</title>
<g id="a_node4"><a xlink:href="l4_2sys_2types_8h.html" target="_top" xlink:title="Common L4 ABI Data Types. ">
<polygon fill="#ffffff" stroke="#000000" points="479,-168.5 479,-187.5 559,-187.5 559,-168.5 479,-168.5"/>
<text text-anchor="middle" x="519" y="-175.5" font-family="Helvetica,sans-Serif" font-size="10.00" fill="#000000">l4/sys/types.h</text>
</a>
</g>
</g>
<!-- Node2&#45;&gt;Node3 -->
<g id="edge3" class="edge">
<title>Node2&#45;&gt;Node3</title>
<path fill="none" stroke="#191970" d="M901.8606,-683.4908C906.2566,-634.8991 926,-416.4697 926,-413 926,-413 926,-413 926,-290 926,-216.7853 678.0719,-189.6309 569.225,-181.2374"/>
<polygon fill="#191970" stroke="#191970" points="569.3719,-177.7387 559.1386,-180.4827 568.8496,-184.7192 569.3719,-177.7387"/>
</g>
<!-- Node2&#45;&gt;Node10 -->
<g id="edge14" class="edge">
<title>Node2&#45;&gt;Node10</title>
<path fill="none" stroke="#191970" d="M913.7156,-683.2455C924.602,-674.8943 940.4883,-662.7076 953.22,-652.9408"/>
<polygon fill="#191970" stroke="#191970" points="955.6261,-655.5063 961.4301,-646.6427 951.3654,-649.9523 955.6261,-655.5063"/>
</g>
<!-- Node4 -->
<g id="node5" class="node">
<title>Node4</title>
<g id="a_node5"><a xlink:href="l4_2sys_2l4int_8h.html" target="_top" xlink:title="Fixed sized integer types, generic version. ">
<polygon fill="#ffffff" stroke="#000000" points="349,-56.5 349,-75.5 423,-75.5 423,-56.5 349,-56.5"/>
<text text-anchor="middle" x="386" y="-63.5" font-family="Helvetica,sans-Serif" font-size="10.00" fill="#000000">l4/sys/l4int.h</text>
</a>
</g>
</g>
<!-- Node3&#45;&gt;Node4 -->
<g id="edge4" class="edge">
<title>Node3&#45;&gt;Node4</title>
<path fill="none" stroke="#191970" d="M505.8884,-168.426C493.5711,-159.3206 474.7323,-145.106 459,-132 439.5062,-115.7603 418.0644,-96.1528 403.4941,-82.5492"/>
<polygon fill="#191970" stroke="#191970" points="405.8495,-79.9598 396.1625,-75.6688 401.0593,-85.0641 405.8495,-79.9598"/>
</g>
<!-- Node5 -->
<g id="node6" class="node">
<title>Node5</title>
<g id="a_node6"><a xlink:href="compiler_8h.html" target="_top" xlink:title="L4 compiler related defines. ">
<polygon fill="#ffffff" stroke="#000000" points="591.5,-56.5 591.5,-75.5 686.5,-75.5 686.5,-56.5 591.5,-56.5"/>
<text text-anchor="middle" x="639" y="-63.5" font-family="Helvetica,sans-Serif" font-size="10.00" fill="#000000">l4/sys/compiler.h</text>
</a>
</g>
</g>
<!-- Node3&#45;&gt;Node5 -->
<g id="edge5" class="edge">
<title>Node3&#45;&gt;Node5</title>
<path fill="none" stroke="#191970" d="M532.623,-168.3593C544.9161,-159.4349 563.2761,-145.5385 578,-132 594.7401,-116.6076 612.1915,-97.3486 624.118,-83.6152"/>
<polygon fill="#191970" stroke="#191970" points="626.9158,-85.7295 630.7743,-75.8622 621.6046,-81.1696 626.9158,-85.7295"/>
</g>
<!-- Node7 -->
<g id="node8" class="node">
<title>Node7</title>
<g id="a_node8"><a xlink:href="l4_2sys_2consts_8h.html" target="_top" xlink:title="Common constants. ">
<polygon fill="#ffffff" stroke="#000000" points="288,-112.5 288,-131.5 374,-131.5 374,-112.5 288,-112.5"/>
<text text-anchor="middle" x="331" y="-119.5" font-family="Helvetica,sans-Serif" font-size="10.00" fill="#000000">l4/sys/consts.h</text>
</a>
</g>
</g>
<!-- Node3&#45;&gt;Node7 -->
<g id="edge7" class="edge">
<title>Node3&#45;&gt;Node7</title>
<path fill="none" stroke="#191970" d="M486.6816,-168.3733C455.1494,-158.9807 407.0379,-144.6496 372.6499,-134.4064"/>
<polygon fill="#191970" stroke="#191970" points="373.4797,-131.0016 362.8966,-131.5011 371.4813,-137.7103 373.4797,-131.0016"/>
</g>
<!-- Node8 -->
<g id="node9" class="node">
<title>Node8</title>
<g id="a_node9"><a xlink:href="____l4__fpage_8h_source.html" target="_top" xlink:title="l4/sys/__l4_fpage.h">
<polygon fill="#ffffff" stroke="#000000" points="626,-112.5 626,-131.5 734,-131.5 734,-112.5 626,-112.5"/>
<text text-anchor="middle" x="680" y="-119.5" font-family="Helvetica,sans-Serif" font-size="10.00" fill="#000000">l4/sys/__l4_fpage.h</text>
</a>
</g>
</g>
<!-- Node3&#45;&gt;Node8 -->
<g id="edge10" class="edge">
<title>Node3&#45;&gt;Node8</title>
<path fill="none" stroke="#191970" d="M546.6769,-168.3733C573.3328,-159.1016 613.8238,-145.0178 643.1884,-134.804"/>
<polygon fill="#191970" stroke="#191970" points="644.3891,-138.0921 652.6843,-131.5011 642.0895,-131.4807 644.3891,-138.0921"/>
</g>
<!-- Node9 -->
<g id="node10" class="node">
<title>Node9</title>
<g id="a_node10"><a xlink:href="____timeout_8h_source.html" target="_top" xlink:title="l4/sys/__timeout.h">
<polygon fill="#ffffff" stroke="#000000" points="468.5,-112.5 468.5,-131.5 569.5,-131.5 569.5,-112.5 468.5,-112.5"/>
<text text-anchor="middle" x="519" y="-119.5" font-family="Helvetica,sans-Serif" font-size="10.00" fill="#000000">l4/sys/__timeout.h</text>
</a>
</g>
</g>
<!-- Node3&#45;&gt;Node9 -->
<g id="edge12" class="edge">
<title>Node3&#45;&gt;Node9</title>
<path fill="none" stroke="#191970" d="M519,-168.2455C519,-160.9382 519,-150.6944 519,-141.7046"/>
<polygon fill="#191970" stroke="#191970" points="522.5001,-141.6426 519,-131.6427 515.5001,-141.6427 522.5001,-141.6426"/>
</g>
<!-- Node6 -->
<g id="node7" class="node">
<title>Node6</title>
<polygon fill="#ffffff" stroke="#bfbfbf" points="594.5,-.5 594.5,-19.5 683.5,-19.5 683.5,-.5 594.5,-.5"/>
<text text-anchor="middle" x="639" y="-7.5" font-family="Helvetica,sans-Serif" font-size="10.00" fill="#000000">l4/sys/linkage.h</text>
</g>
<!-- Node5&#45;&gt;Node6 -->
<g id="edge6" class="edge">
<title>Node5&#45;&gt;Node6</title>
<path fill="none" stroke="#191970" d="M639,-56.2455C639,-48.9382 639,-38.6944 639,-29.7046"/>
<polygon fill="#191970" stroke="#191970" points="642.5001,-29.6426 639,-19.6427 635.5001,-29.6427 642.5001,-29.6426"/>
</g>
<!-- Node7&#45;&gt;Node4 -->
<g id="edge9" class="edge">
<title>Node7&#45;&gt;Node4</title>
<path fill="none" stroke="#191970" d="M340.5803,-112.2455C348.5458,-104.1352 360.0641,-92.4075 369.5079,-82.7919"/>
<polygon fill="#191970" stroke="#191970" points="372.0195,-85.2297 376.5295,-75.6427 367.0253,-80.3247 372.0195,-85.2297"/>
</g>
<!-- Node7&#45;&gt;Node5 -->
<g id="edge8" class="edge">
<title>Node7&#45;&gt;Node5</title>
<path fill="none" stroke="#191970" d="M374.1504,-114.1545C428.2227,-104.3231 521.0815,-87.4397 581.2399,-76.5018"/>
<polygon fill="#191970" stroke="#191970" points="582.1259,-79.8982 591.3384,-74.6657 580.8736,-73.0111 582.1259,-79.8982"/>
</g>
<!-- Node8&#45;&gt;Node5 -->
<g id="edge11" class="edge">
<title>Node8&#45;&gt;Node5</title>
<path fill="none" stroke="#191970" d="M672.8583,-112.2455C667.1556,-104.4564 659.01,-93.3308 652.1375,-83.9439"/>
<polygon fill="#191970" stroke="#191970" points="654.7913,-81.6437 646.0598,-75.6427 649.1432,-85.7789 654.7913,-81.6437"/>
</g>
<!-- Node9&#45;&gt;Node4 -->
<g id="edge13" class="edge">
<title>Node9&#45;&gt;Node4</title>
<path fill="none" stroke="#191970" d="M496.1365,-112.3733C474.595,-103.3032 442.1162,-89.6279 418.0044,-79.4755"/>
<polygon fill="#191970" stroke="#191970" points="419.1397,-76.156 408.5652,-75.5011 416.4233,-82.6075 419.1397,-76.156"/>
</g>
<!-- Node11&#45;&gt;Node5 -->
<g id="edge17" class="edge">
<title>Node11&#45;&gt;Node5</title>
<path fill="none" stroke="#191970" d="M725.3247,-224.2341C738.6581,-202.2913 766.5579,-148.1792 743,-112 732.3651,-95.6673 714.4672,-85.0908 696.4892,-78.2596"/>
<polygon fill="#191970" stroke="#191970" points="697.1335,-74.7801 686.5388,-74.8371 694.8566,-81.3994 697.1335,-74.7801"/>
</g>
<!-- Node12&#45;&gt;Node3 -->
<g id="edge20" class="edge">
<title>Node12&#45;&gt;Node3</title>
<path fill="none" stroke="#191970" d="M588.2989,-686.1578C673.6961,-671.9758 850,-636.0327 850,-581 850,-581 850,-581 850,-525 850,-415.5899 876.0187,-377.3073 826,-280 808.7209,-246.3849 795.9846,-240.5406 762,-224 728.7891,-207.8359 630.4636,-192.6218 569.5452,-184.3815"/>
<polygon fill="#191970" stroke="#191970" points="569.7433,-180.8769 559.368,-183.0225 568.8168,-187.8154 569.7433,-180.8769"/>
</g>
<!-- Node12&#45;&gt;Node7 -->
<g id="edge19" class="edge">
<title>Node12&#45;&gt;Node7</title>
<path fill="none" stroke="#191970" d="M497.8921,-687.3957C397.877,-674.2311 161.3483,-638.8009 98,-591 25.9116,-536.604 0,-503.3087 0,-413 0,-413 0,-413 0,-234 0,-176.1109 183.9555,-142.2887 277.5922,-128.8223"/>
<polygon fill="#191970" stroke="#191970" points="278.3141,-132.2552 287.7275,-127.3934 277.3368,-125.3237 278.3141,-132.2552"/>
</g>
<!-- Node13 -->
<g id="node14" class="node">
<title>Node13</title>
<g id="a_node14"><a xlink:href="kobject_source.html" target="_top" xlink:title="l4/sys/kobject">
<polygon fill="#ffffff" stroke="#000000" points="446,-515.5 446,-534.5 526,-534.5 526,-515.5 446,-515.5"/>
<text text-anchor="middle" x="486" y="-522.5" font-family="Helvetica,sans-Serif" font-size="10.00" fill="#000000">l4/sys/kobject</text>
</a>
</g>
</g>
<!-- Node12&#45;&gt;Node13 -->
<g id="edge21" class="edge">
<title>Node12&#45;&gt;Node13</title>
<path fill="none" stroke="#191970" d="M539.7721,-683.4862C530.7227,-656.8144 504.9701,-580.9117 492.6822,-544.695"/>
<polygon fill="#191970" stroke="#191970" points="495.8619,-543.1731 489.3345,-534.8279 489.2331,-545.4222 495.8619,-543.1731"/>
</g>
<!-- Node22 -->
<g id="node23" class="node">
<title>Node22</title>
<g id="a_node23"><a xlink:href="l4_2sys_2task_8h.html" target="_top" xlink:title="Common task related definitions. ">
<polygon fill="#ffffff" stroke="#000000" points="418,-342 418,-361 492,-361 492,-342 418,-342"/>
<text text-anchor="middle" x="455" y="-349" font-family="Helvetica,sans-Serif" font-size="10.00" fill="#000000">l4/sys/task.h</text>
</a>
</g>
</g>
<!-- Node12&#45;&gt;Node22 -->
<g id="edge49" class="edge">
<title>Node12&#45;&gt;Node22</title>
<path fill="none" stroke="#191970" d="M545.8035,-683.2066C551.0887,-663.8521 562,-619.2612 562,-581 562,-581 562,-581 562,-469 562,-422.0419 514.7046,-385.5865 483.0016,-366.4247"/>
<polygon fill="#191970" stroke="#191970" points="484.533,-363.2665 474.1295,-361.2623 481.0125,-369.3168 484.533,-363.2665"/>
</g>
<!-- Node23 -->
<g id="node24" class="node">
<title>Node23</title>
<g id="a_node24"><a xlink:href="sys_2meta.html" target="_top" xlink:title="Meta interface for getting dynamic type information about objects behind capabilities. ">
<polygon fill="#ffffff" stroke="#000000" points="372,-627.5 372,-646.5 442,-646.5 442,-627.5 372,-627.5"/>
<text text-anchor="middle" x="407" y="-634.5" font-family="Helvetica,sans-Serif" font-size="10.00" fill="#000000">l4/sys/meta</text>
</a>
</g>
</g>
<!-- Node12&#45;&gt;Node23 -->
<g id="edge50" class="edge">
<title>Node12&#45;&gt;Node23</title>
<path fill="none" stroke="#191970" d="M519.6208,-683.3733C497.4955,-674.2629 464.0866,-660.5062 439.3981,-650.3404"/>
<polygon fill="#191970" stroke="#191970" points="440.6536,-647.0723 430.0742,-646.5011 437.9883,-653.5451 440.6536,-647.0723"/>
</g>
<!-- Node13&#45;&gt;Node3 -->
<g id="edge35" class="edge">
<title>Node13&#45;&gt;Node3</title>
<path fill="none" stroke="#191970" d="M486.2352,-515.2308C486.3021,-493.2814 483.8467,-439.1566 460,-403 444.7244,-379.839 421.7644,-391.6343 409,-367 402.6613,-354.7669 404.8746,-349.1457 409,-336 427.3205,-277.621 475.688,-221.9408 501.7619,-194.9518"/>
<polygon fill="#191970" stroke="#191970" points="504.5538,-197.1051 509.0801,-187.5258 499.5679,-192.1917 504.5538,-197.1051"/>
</g>
<!-- Node14 -->
<g id="node15" class="node">
<title>Node14</title>
<g id="a_node15"><a xlink:href="kernel__object_8h.html" target="_top" xlink:title="Kernel object system calls. ">
<polygon fill="#ffffff" stroke="#000000" points="618,-403.5 618,-422.5 706,-422.5 706,-403.5 618,-403.5"/>
<text text-anchor="middle" x="662" y="-410.5" font-family="Helvetica,sans-Serif" font-size="10.00" fill="#000000">kernel_object.h</text>
</a>
</g>
</g>
<!-- Node13&#45;&gt;Node14 -->
<g id="edge22" class="edge">
<title>Node13&#45;&gt;Node14</title>
<path fill="none" stroke="#191970" d="M501.0057,-515.4509C531.6592,-495.9441 601.6678,-451.3932 638.4429,-427.9909"/>
<polygon fill="#191970" stroke="#191970" points="640.4748,-430.8465 647.0323,-422.5249 636.7166,-424.9409 640.4748,-430.8465"/>
</g>
<!-- Node18 -->
<g id="node19" class="node">
<title>Node18</title>
<g id="a_node19"><a xlink:href="____typeinfo_8h.html" target="_top" xlink:title="Type information handling. ">
<polygon fill="#ffffff" stroke="#000000" points="384,-459.5 384,-478.5 458,-478.5 458,-459.5 384,-459.5"/>
<text text-anchor="middle" x="421" y="-466.5" font-family="Helvetica,sans-Serif" font-size="10.00" fill="#000000">__typeinfo.h</text>
</a>
</g>
</g>
<!-- Node13&#45;&gt;Node18 -->
<g id="edge36" class="edge">
<title>Node13&#45;&gt;Node18</title>
<path fill="none" stroke="#191970" d="M474.6779,-515.2455C465.0777,-506.9746 451.1108,-494.9416 439.8305,-485.2232"/>
<polygon fill="#191970" stroke="#191970" points="442.053,-482.5182 432.1924,-478.6427 437.484,-487.8214 442.053,-482.5182"/>
</g>
<!-- Node14&#45;&gt;Node3 -->
<g id="edge23" class="edge">
<title>Node14&#45;&gt;Node3</title>
<path fill="none" stroke="#191970" d="M650.1154,-403.3204C639.9115,-394.585 625.2673,-380.9916 615,-367 573.3657,-310.2634 540.3673,-232.8363 526.3327,-197.2834"/>
<polygon fill="#191970" stroke="#191970" points="529.4797,-195.7184 522.5975,-187.6633 522.9544,-198.2521 529.4797,-195.7184"/>
</g>
<!-- Node14&#45;&gt;Node5 -->
<g id="edge24" class="edge">
<title>Node14&#45;&gt;Node5</title>
<path fill="none" stroke="#191970" d="M706.2368,-407.4453C790.1202,-394.1762 964,-352.3922 964,-234 964,-234 964,-234 964,-178 964,-122.1301 790.1559,-88.0742 696.7571,-73.8091"/>
<polygon fill="#191970" stroke="#191970" points="697.0141,-70.3086 686.6058,-72.2882 695.9768,-77.2314 697.0141,-70.3086"/>
</g>
<!-- Node14&#45;&gt;Node15 -->
<g id="edge25" class="edge">
<title>Node14&#45;&gt;Node15</title>
<path fill="none" stroke="#191970" d="M641.9243,-403.3881C611.4649,-388.807 551.7478,-360.2294 501,-336 434.9818,-304.4797 357.4713,-267.5563 316.2551,-247.929"/>
<polygon fill="#191970" stroke="#191970" points="317.6001,-244.693 307.0667,-243.5536 314.5906,-251.013 317.6001,-244.693"/>
</g>
<!-- Node16 -->
<g id="node17" class="node">
<title>Node16</title>
<g id="a_node17"><a xlink:href="____kernel__object__impl_8h.html" target="_top" xlink:title="Low&#45;level kernel debugger functions. ">
<polygon fill="#ffffff" stroke="#000000" points="624,-336.5 624,-366.5 746,-366.5 746,-336.5 624,-336.5"/>
<text text-anchor="start" x="632" y="-354.5" font-family="Helvetica,sans-Serif" font-size="10.00" fill="#000000">l4/sys/__kernel_object</text>
<text text-anchor="middle" x="685" y="-343.5" font-family="Helvetica,sans-Serif" font-size="10.00" fill="#000000">_impl.h</text>
</a>
</g>
</g>
<!-- Node14&#45;&gt;Node16 -->
<g id="edge29" class="edge">
<title>Node14&#45;&gt;Node16</title>
<path fill="none" stroke="#191970" d="M665.5938,-403.3906C668.3318,-396.0692 672.2289,-385.6488 675.8132,-376.0647"/>
<polygon fill="#191970" stroke="#191970" points="679.1489,-377.137 679.3736,-366.5446 672.5924,-374.685 679.1489,-377.137"/>
</g>
<!-- Node17 -->
<g id="node18" class="node">
<title>Node17</title>
<g id="a_node18"><a xlink:href="l4_2sys_2ipc_8h.html" target="_top" xlink:title="Common IPC interface. ">
<polygon fill="#ffffff" stroke="#000000" points="605,-280.5 605,-299.5 673,-299.5 673,-280.5 605,-280.5"/>
<text text-anchor="middle" x="639" y="-287.5" font-family="Helvetica,sans-Serif" font-size="10.00" fill="#000000">l4/sys/ipc.h</text>
</a>
</g>
</g>
<!-- Node14&#45;&gt;Node17 -->
<g id="edge34" class="edge">
<title>Node14&#45;&gt;Node17</title>
<path fill="none" stroke="#191970" d="M703.1985,-403.3939C722.4492,-396.6178 743.5964,-385.3627 755,-367 762.2686,-355.2956 762.7412,-347.3974 755,-336 738.9347,-312.347 708.6026,-300.8562 682.9842,-295.2739"/>
<polygon fill="#191970" stroke="#191970" points="683.5597,-291.8203 673.0757,-293.3486 682.2245,-298.6918 683.5597,-291.8203"/>
</g>
<!-- Node15&#45;&gt;Node3 -->
<g id="edge26" class="edge">
<title>Node15&#45;&gt;Node3</title>
<path fill="none" stroke="#191970" d="M324.0176,-225.0647C363.4209,-215.5536 425.9792,-200.4533 469.5736,-189.9305"/>
<polygon fill="#191970" stroke="#191970" points="470.4962,-193.3084 479.3958,-187.5596 468.8537,-186.5038 470.4962,-193.3084"/>
</g>
<!-- Node15&#45;&gt;Node4 -->
<g id="edge28" class="edge">
<title>Node15&#45;&gt;Node4</title>
<path fill="none" stroke="#191970" d="M282.8014,-224.4599C273.8486,-202.5197 255.5337,-147.6312 279,-112 292.3576,-91.7178 316.7335,-80.3417 338.8489,-73.9792"/>
<polygon fill="#191970" stroke="#191970" points="340.0037,-77.2955 348.8032,-71.3947 338.2445,-70.5201 340.0037,-77.2955"/>
</g>
<!-- Node15&#45;&gt;Node5 -->
<g id="edge27" class="edge">
<title>Node15&#45;&gt;Node5</title>
<path fill="none" stroke="#191970" d="M297.3921,-224.4925C322.9213,-201.6415 391.558,-143.2223 459,-112 497.9278,-93.9784 544.9898,-82.2665 581.2278,-75.1724"/>
<polygon fill="#191970" stroke="#191970" points="581.9727,-78.5936 591.146,-73.2925 580.6691,-71.716 581.9727,-78.5936"/>
</g>
<!-- Node16&#45;&gt;Node17 -->
<g id="edge30" class="edge">
<title>Node16&#45;&gt;Node17</title>
<path fill="none" stroke="#191970" d="M673.6292,-336.2977C667.2439,-327.7609 659.2359,-317.0545 652.5295,-308.0883"/>
<polygon fill="#191970" stroke="#191970" points="655.1575,-305.7584 646.3652,-299.8469 649.5521,-309.9511 655.1575,-305.7584"/>
</g>
<!-- Node17&#45;&gt;Node3 -->
<g id="edge31" class="edge">
<title>Node17&#45;&gt;Node3</title>
<path fill="none" stroke="#191970" d="M633.4611,-280.1671C625.3954,-266.4428 609.362,-241.2874 591,-224 577.8881,-211.6555 561.0194,-200.6739 546.9061,-192.5388"/>
<polygon fill="#191970" stroke="#191970" points="548.5339,-189.4391 538.0967,-187.6183 545.1204,-195.5504 548.5339,-189.4391"/>
</g>
<!-- Node17&#45;&gt;Node11 -->
<g id="edge33" class="edge">
<title>Node17&#45;&gt;Node11</title>
<path fill="none" stroke="#191970" d="M652.9349,-280.2455C665.0947,-271.7337 682.9464,-259.2375 697.0285,-249.3801"/>
<polygon fill="#191970" stroke="#191970" points="699.0395,-252.2447 705.2248,-243.6427 695.0253,-246.51 699.0395,-252.2447"/>
</g>
<!-- Node17&#45;&gt;Node15 -->
<g id="edge32" class="edge">
<title>Node17&#45;&gt;Node15</title>
<path fill="none" stroke="#191970" d="M604.9289,-284.5796C541.7807,-274.5333 406.4525,-253.0038 334.408,-241.5422"/>
<polygon fill="#191970" stroke="#191970" points="334.6795,-238.0414 324.2538,-239.9267 333.5797,-244.9545 334.6795,-238.0414"/>
</g>
<!-- Node19 -->
<g id="node20" class="node">
<title>Node19</title>
<g id="a_node20"><a xlink:href="types.html" target="_top" xlink:title="cxx/types">
<polygon fill="#ffffff" stroke="#000000" points="165.5,-342 165.5,-361 226.5,-361 226.5,-342 165.5,-342"/>
<text text-anchor="middle" x="196" y="-349" font-family="Helvetica,sans-Serif" font-size="10.00" fill="#000000">cxx/types</text>
</a>
</g>
</g>
<!-- Node18&#45;&gt;Node19 -->
<g id="edge37" class="edge">
<title>Node18&#45;&gt;Node19</title>
<path fill="none" stroke="#191970" d="M407.3028,-459.2848C387.8117,-445.7005 350.6934,-420.7102 317,-403 289.1141,-388.3424 256.1349,-374.5234 231.6551,-364.8976"/>
<polygon fill="#191970" stroke="#191970" points="232.6451,-361.5273 222.0564,-361.1665 230.1089,-368.0518 232.6451,-361.5273"/>
</g>
<!-- Node20 -->
<g id="node21" class="node">
<title>Node20</title>
<g id="a_node21"><a xlink:href="ipc__basics_source.html" target="_top" xlink:title="cxx/ipc_basics">
<polygon fill="#ffffff" stroke="#000000" points="224,-403.5 224,-422.5 308,-422.5 308,-403.5 224,-403.5"/>
<text text-anchor="middle" x="266" y="-410.5" font-family="Helvetica,sans-Serif" font-size="10.00" fill="#000000">cxx/ipc_basics</text>
</a>
</g>
</g>
<!-- Node18&#45;&gt;Node20 -->
<g id="edge38" class="edge">
<title>Node18&#45;&gt;Node20</title>
<path fill="none" stroke="#191970" d="M394.3546,-459.3733C368.8036,-450.1419 330.0488,-436.1402 301.8091,-425.9375"/>
<polygon fill="#191970" stroke="#191970" points="302.8921,-422.6074 292.2978,-422.5011 300.5135,-429.1909 302.8921,-422.6074"/>
</g>
<!-- Node21 -->
<g id="node22" class="node">
<title>Node21</title>
<g id="a_node22"><a xlink:href="capability_8h_source.html" target="_top" xlink:title="cxx/capability.h">
<polygon fill="#ffffff" stroke="#000000" points="364.5,-403.5 364.5,-422.5 451.5,-422.5 451.5,-403.5 364.5,-403.5"/>
<text text-anchor="middle" x="408" y="-410.5" font-family="Helvetica,sans-Serif" font-size="10.00" fill="#000000">cxx/capability.h</text>
</a>
</g>
</g>
<!-- Node18&#45;&gt;Node21 -->
<g id="edge42" class="edge">
<title>Node18&#45;&gt;Node21</title>
<path fill="none" stroke="#191970" d="M418.7356,-459.2455C417.0206,-451.8579 414.6088,-441.4689 412.5056,-432.4087"/>
<polygon fill="#191970" stroke="#191970" points="415.9092,-431.5922 410.2385,-422.6427 409.0905,-433.1751 415.9092,-431.5922"/>
</g>
<!-- Node20&#45;&gt;Node11 -->
<g id="edge41" class="edge">
<title>Node20&#45;&gt;Node11</title>
<path fill="none" stroke="#191970" d="M308.1373,-406.2427C402.0928,-390.4503 624.9655,-348.7444 682,-300 696.464,-287.6384 706.4053,-268.1368 712.3114,-253.5321"/>
<polygon fill="#191970" stroke="#191970" points="715.676,-254.5275 715.9058,-243.9351 709.1207,-252.0722 715.676,-254.5275"/>
</g>
<!-- Node20&#45;&gt;Node15 -->
<g id="edge40" class="edge">
<title>Node20&#45;&gt;Node15</title>
<path fill="none" stroke="#191970" d="M267.1291,-403.3762C270.4335,-375.2097 280.1354,-292.5126 284.6453,-254.0713"/>
<polygon fill="#191970" stroke="#191970" points="288.1762,-254.0111 285.8654,-243.6714 281.2239,-253.1954 288.1762,-254.0111"/>
</g>
<!-- Node20&#45;&gt;Node19 -->
<g id="edge39" class="edge">
<title>Node20&#45;&gt;Node19</title>
<path fill="none" stroke="#191970" d="M255.0625,-403.3906C244.338,-393.9683 227.7713,-379.4134 214.9099,-368.1137"/>
<polygon fill="#191970" stroke="#191970" points="216.9143,-365.2158 207.0917,-361.2449 212.2941,-370.4745 216.9143,-365.2158"/>
</g>
<!-- Node21&#45;&gt;Node3 -->
<g id="edge44" class="edge">
<title>Node21&#45;&gt;Node3</title>
<path fill="none" stroke="#191970" d="M398.6382,-403.3788C390.8766,-394.6808 380.425,-381.1096 376,-367 356.9813,-306.3568 338.5676,-275.3627 376,-224 387.232,-208.5881 432.3016,-195.7725 468.881,-187.6166"/>
<polygon fill="#191970" stroke="#191970" points="469.9038,-190.9764 478.9379,-185.4415 468.424,-184.1346 469.9038,-190.9764"/>
</g>
<!-- Node21&#45;&gt;Node7 -->
<g id="edge43" class="edge">
<title>Node21&#45;&gt;Node7</title>
<path fill="none" stroke="#191970" d="M392.2864,-403.4016C357.0633,-380.8366 272.4217,-320.5019 241,-244 223.2673,-200.8266 273.2846,-158.9269 305.7011,-137.2518"/>
<polygon fill="#191970" stroke="#191970" points="307.8075,-140.0577 314.3065,-131.6903 304.008,-134.1786 307.8075,-140.0577"/>
</g>
<!-- Node21&#45;&gt;Node22 -->
<g id="edge45" class="edge">
<title>Node21&#45;&gt;Node22</title>
<path fill="none" stroke="#191970" d="M415.3438,-403.3906C422.2702,-394.3273 432.826,-380.5149 441.306,-369.4188"/>
<polygon fill="#191970" stroke="#191970" points="444.2615,-371.3155 447.5527,-361.2449 438.6997,-367.065 444.2615,-371.3155"/>
</g>
<!-- Node22&#45;&gt;Node3 -->
<g id="edge46" class="edge">
<title>Node22&#45;&gt;Node3</title>
<path fill="none" stroke="#191970" d="M458.5321,-341.9248C468.6924,-314.3807 498.1409,-234.5477 511.8379,-197.416"/>
<polygon fill="#191970" stroke="#191970" points="515.2228,-198.3529 515.3999,-187.7595 508.6553,-195.9303 515.2228,-198.3529"/>
</g>
<!-- Node22&#45;&gt;Node15 -->
<g id="edge47" class="edge">
<title>Node22&#45;&gt;Node15</title>
<path fill="none" stroke="#191970" d="M441.2519,-341.8845C412.21,-321.5724 344.396,-274.1431 309.153,-249.4939"/>
<polygon fill="#191970" stroke="#191970" points="311.1387,-246.6117 300.9381,-243.7484 307.1268,-252.3479 311.1387,-246.6117"/>
</g>
<!-- Node22&#45;&gt;Node17 -->
<g id="edge48" class="edge">
<title>Node22&#45;&gt;Node17</title>
<path fill="none" stroke="#191970" d="M483.75,-341.8906C515.2117,-331.3749 565.8008,-314.466 600.6314,-302.8243"/>
<polygon fill="#191970" stroke="#191970" points="602.0772,-306.0315 610.4519,-299.5419 599.8581,-299.3925 602.0772,-306.0315"/>
</g>
<!-- Node23&#45;&gt;Node13 -->
<g id="edge51" class="edge">
<title>Node23&#45;&gt;Node13</title>
<path fill="none" stroke="#191970" d="M413.7355,-627.4509C426.9701,-608.688 456.548,-566.7548 473.4743,-542.758"/>
<polygon fill="#191970" stroke="#191970" points="476.3776,-544.714 479.2816,-534.5249 470.6574,-540.6792 476.3776,-544.714"/>
</g>
<!-- Node24 -->
<g id="node25" class="node">
<title>Node24</title>
<g id="a_node25"><a xlink:href="ipc__iface.html" target="_top" xlink:title="Interface Definition Language. ">
<polygon fill="#ffffff" stroke="#000000" points="333.5,-515.5 333.5,-534.5 410.5,-534.5 410.5,-515.5 333.5,-515.5"/>
<text text-anchor="middle" x="372" y="-522.5" font-family="Helvetica,sans-Serif" font-size="10.00" fill="#000000">cxx/ipc_iface</text>
</a>
</g>
</g>
<!-- Node23&#45;&gt;Node24 -->
<g id="edge52" class="edge">
<title>Node23&#45;&gt;Node24</title>
<path fill="none" stroke="#191970" d="M404.0159,-627.4509C398.2817,-609.1013 385.6221,-568.5908 378.0529,-544.3693"/>
<polygon fill="#191970" stroke="#191970" points="381.3,-543.0257 374.9765,-534.5249 374.6187,-545.1137 381.3,-543.0257"/>
</g>
<!-- Node26 -->
<g id="node27" class="node">
<title>Node26</title>
<g id="a_node27"><a xlink:href="ipc__string_source.html" target="_top" xlink:title="cxx/ipc_string">
<polygon fill="#ffffff" stroke="#000000" points="107.5,-571.5 107.5,-590.5 188.5,-590.5 188.5,-571.5 107.5,-571.5"/>
<text text-anchor="middle" x="148" y="-578.5" font-family="Helvetica,sans-Serif" font-size="10.00" fill="#000000">cxx/ipc_string</text>
</a>
</g>
</g>
<!-- Node23&#45;&gt;Node26 -->
<g id="edge59" class="edge">
<title>Node23&#45;&gt;Node26</title>
<path fill="none" stroke="#191970" d="M371.8006,-629.3893C327.0655,-619.7169 249.5396,-602.9545 198.5037,-591.9197"/>
<polygon fill="#191970" stroke="#191970" points="199.1812,-588.4854 188.6673,-589.7929 197.7018,-595.3273 199.1812,-588.4854"/>
</g>
<!-- Node24&#45;&gt;Node18 -->
<g id="edge58" class="edge">
<title>Node24&#45;&gt;Node18</title>
<path fill="none" stroke="#191970" d="M380.5351,-515.2455C387.4912,-507.2958 397.4883,-495.8706 405.8051,-486.3656"/>
<polygon fill="#191970" stroke="#191970" points="408.6116,-488.4732 412.5627,-478.6427 403.3436,-483.8637 408.6116,-488.4732"/>
</g>
<!-- Node24&#45;&gt;Node20 -->
<g id="edge53" class="edge">
<title>Node24&#45;&gt;Node20</title>
<path fill="none" stroke="#191970" d="M368.5761,-515.0929C363.4253,-501.2806 352.5966,-476.0212 337,-459 325.3101,-446.2424 309.3427,-435.4847 295.5106,-427.5881"/>
<polygon fill="#191970" stroke="#191970" points="296.8088,-424.3093 286.3546,-422.589 293.4543,-430.4531 296.8088,-424.3093"/>
</g>
<!-- Node25 -->
<g id="node26" class="node">
<title>Node25</title>
<g id="a_node26"><a xlink:href="ipc__types.html" target="_top" xlink:title="l4/sys/cxx/ipc_types">
<polygon fill="#ffffff" stroke="#000000" points="218,-459.5 218,-478.5 328,-478.5 328,-459.5 218,-459.5"/>
<text text-anchor="middle" x="273" y="-466.5" font-family="Helvetica,sans-Serif" font-size="10.00" fill="#000000">l4/sys/cxx/ipc_types</text>
</a>
</g>
</g>
<!-- Node24&#45;&gt;Node25 -->
<g id="edge54" class="edge">
<title>Node24&#45;&gt;Node25</title>
<path fill="none" stroke="#191970" d="M354.7555,-515.2455C339.4239,-506.5731 316.7801,-493.7645 299.2084,-483.825"/>
<polygon fill="#191970" stroke="#191970" points="300.4741,-480.5198 290.0469,-478.6427 297.0276,-486.6126 300.4741,-480.5198"/>
</g>
<!-- Node25&#45;&gt;Node19 -->
<g id="edge56" class="edge">
<title>Node25&#45;&gt;Node19</title>
<path fill="none" stroke="#191970" d="M255.5034,-459.3467C242.4636,-451.275 225.2126,-438.5877 215,-423 204.7915,-407.4186 200.0516,-386.5435 197.8607,-371.3738"/>
<polygon fill="#191970" stroke="#191970" points="201.2914,-370.5837 196.6337,-361.0677 194.3405,-371.4113 201.2914,-370.5837"/>
</g>
<!-- Node25&#45;&gt;Node20 -->
<g id="edge57" class="edge">
<title>Node25&#45;&gt;Node20</title>
<path fill="none" stroke="#191970" d="M271.7807,-459.2455C270.8673,-451.9382 269.5868,-441.6944 268.4631,-432.7046"/>
<polygon fill="#191970" stroke="#191970" points="271.9187,-432.1313 267.2053,-422.6427 264.9728,-432.9996 271.9187,-432.1313"/>
</g>
<!-- Node25&#45;&gt;Node21 -->
<g id="edge55" class="edge">
<title>Node25&#45;&gt;Node21</title>
<path fill="none" stroke="#191970" d="M296.2073,-459.3733C318.1699,-450.2629 351.3332,-436.5062 375.8401,-426.3404"/>
<polygon fill="#191970" stroke="#191970" points="377.1997,-429.5657 385.0955,-422.5011 374.5176,-423.0999 377.1997,-429.5657"/>
</g>
<!-- Node26&#45;&gt;Node19 -->
<g id="edge60" class="edge">
<title>Node26&#45;&gt;Node19</title>
<path fill="none" stroke="#191970" d="M143.7422,-571.1785C138.6937,-558.3013 131.3911,-534.9975 135,-515 144.867,-460.3256 171.8984,-400.0852 186.4407,-370.3075"/>
<polygon fill="#191970" stroke="#191970" points="189.6983,-371.617 191.015,-361.1043 183.4299,-368.5013 189.6983,-371.617"/>
</g>
<!-- Node26&#45;&gt;Node20 -->
<g id="edge61" class="edge">
<title>Node26&#45;&gt;Node20</title>
<path fill="none" stroke="#191970" d="M144.4137,-571.2041C140.154,-557.9536 134.5088,-533.8132 142,-515 158.7281,-472.9891 204.0463,-443.2636 235.0045,-427.1226"/>
<polygon fill="#191970" stroke="#191970" points="236.7395,-430.1679 244.1037,-422.5508 233.5968,-423.913 236.7395,-430.1679"/>
</g>
<!-- Node27 -->
<g id="node28" class="node">
<title>Node27</title>
<g id="a_node28"><a xlink:href="ipc__array_source.html" target="_top" xlink:title="ipc_array">
<polygon fill="#ffffff" stroke="#000000" points="151.5,-515.5 151.5,-534.5 212.5,-534.5 212.5,-515.5 151.5,-515.5"/>
<text text-anchor="middle" x="182" y="-522.5" font-family="Helvetica,sans-Serif" font-size="10.00" fill="#000000">ipc_array</text>
</a>
</g>
</g>
<!-- Node26&#45;&gt;Node27 -->
<g id="edge62" class="edge">
<title>Node26&#45;&gt;Node27</title>
<path fill="none" stroke="#191970" d="M153.9223,-571.2455C158.6027,-563.5367 165.2673,-552.5598 170.9289,-543.2348"/>
<polygon fill="#191970" stroke="#191970" points="173.9475,-545.007 176.1455,-534.6427 167.9639,-541.3741 173.9475,-545.007"/>
</g>
<!-- Node27&#45;&gt;Node19 -->
<g id="edge63" class="edge">
<title>Node27&#45;&gt;Node19</title>
<path fill="none" stroke="#191970" d="M182.7726,-515.4248C184.9857,-487.999 191.3819,-408.732 194.3945,-371.3964"/>
<polygon fill="#191970" stroke="#191970" points="197.8968,-371.5087 195.2125,-361.2595 190.9194,-370.9456 197.8968,-371.5087"/>
</g>
<!-- Node27&#45;&gt;Node20 -->
<g id="edge64" class="edge">
<title>Node27&#45;&gt;Node20</title>
<path fill="none" stroke="#191970" d="M184.3268,-515.2749C187.9266,-501.6788 195.8389,-476.6747 209,-459 217.8692,-447.0891 230.5081,-436.4727 241.6317,-428.4484"/>
<polygon fill="#191970" stroke="#191970" points="243.8792,-431.1502 250.1269,-422.5935 239.9068,-425.3865 243.8792,-431.1502"/>
</g>
<!-- Node27&#45;&gt;Node25 -->
<g id="edge65" class="edge">
<title>Node27&#45;&gt;Node25</title>
<path fill="none" stroke="#191970" d="M197.851,-515.2455C211.8132,-506.6534 232.3728,-494.0014 248.4596,-484.1018"/>
<polygon fill="#191970" stroke="#191970" points="250.6484,-486.8645 257.3307,-478.6427 246.9797,-480.9029 250.6484,-486.8645"/>
</g>
<!-- Node29 -->
<g id="node30" class="node">
<title>Node29</title>
<polygon fill="#ffffff" stroke="#bfbfbf" points="1049.5,-627.5 1049.5,-646.5 1118.5,-646.5 1118.5,-627.5 1049.5,-627.5"/>
<text text-anchor="middle" x="1084" y="-634.5" font-family="Helvetica,sans-Serif" font-size="10.00" fill="#000000">sys/cdefs.h</text>
</g>
<!-- Node28&#45;&gt;Node29 -->
<g id="edge67" class="edge">
<title>Node28&#45;&gt;Node29</title>
<path fill="none" stroke="#191970" d="M1065.0063,-683.2455C1068.0735,-675.7776 1072.4003,-665.2427 1076.1497,-656.1137"/>
<polygon fill="#191970" stroke="#191970" points="1079.4779,-657.2226 1080.0396,-646.6427 1073.0028,-654.5631 1079.4779,-657.2226"/>
</g>
</g>
</svg>
