<?xml version="1.0" encoding="UTF-8" standalone="no"?>
<!DOCTYPE svg PUBLIC "-//W3C//DTD SVG 1.1//EN"
 "http://www.w3.org/Graphics/SVG/1.1/DTD/svg11.dtd">
<!-- Generated by graphviz version 2.40.1 (20161225.0304)
 -->
<!-- Title: operator&lt;&lt; Pages: 1 -->
<svg width="224pt" height="66pt"
 viewBox="0.00 0.00 224.00 66.00" xmlns="http://www.w3.org/2000/svg" xmlns:xlink="http://www.w3.org/1999/xlink">
<g id="graph0" class="graph" transform="scale(1 1) rotate(0) translate(4 62)">
<title>operator&lt;&lt;</title>
<polygon fill="#ffffff" stroke="transparent" points="-4,4 -4,-62 220,-62 220,4 -4,4"/>
<!-- Node10 -->
<g id="node1" class="node">
<title>Node10</title>
<polygon fill="#bfbfbf" stroke="#000000" points="0,-19.5 0,-38.5 69,-38.5 69,-19.5 0,-19.5"/>
<text text-anchor="middle" x="34.5" y="-26.5" font-family="Helvetica,sans-Serif" font-size="10.00" fill="#000000">operator&lt;&lt;</text>
</g>
<!-- Node11 -->
<g id="node2" class="node">
<title>Node11</title>
<g id="a_node2"><a xlink:href="namespaceL4_1_1Ipc.html#a0db6c083862791595d357666b2877149" target="_top" xlink:title="Create an Msg_ptr to adjust the given pointer. ">
<polygon fill="#ffffff" stroke="#000000" points="115.5,-38.5 115.5,-57.5 205.5,-57.5 205.5,-38.5 115.5,-38.5"/>
<text text-anchor="middle" x="160.5" y="-45.5" font-family="Helvetica,sans-Serif" font-size="10.00" fill="#000000">L4::Ipc::msg_ptr</text>
</a>
</g>
</g>
<!-- Node10&#45;&gt;Node11 -->
<g id="edge1" class="edge">
<title>Node10&#45;&gt;Node11</title>
<path fill="none" stroke="#191970" d="M69.2636,-34.2421C80.4176,-35.9241 93.0604,-37.8305 105.3039,-39.6768"/>
<polygon fill="#191970" stroke="#191970" points="105.043,-43.1769 115.4531,-41.2072 106.0868,-36.2552 105.043,-43.1769"/>
</g>
<!-- Node12 -->
<g id="node3" class="node">
<title>Node12</title>
<g id="a_node3"><a xlink:href="classL4_1_1Ipc_1_1Ostream.html#a0bb12677e48b2b08456b30a928aed8e7" target="_top" xlink:title="Put an array with size elements of type T into the stream. ">
<polygon fill="#ffffff" stroke="#000000" points="105,-.5 105,-19.5 216,-19.5 216,-.5 105,-.5"/>
<text text-anchor="middle" x="160.5" y="-7.5" font-family="Helvetica,sans-Serif" font-size="10.00" fill="#000000">L4::Ipc::Ostream::put</text>
</a>
</g>
</g>
<!-- Node10&#45;&gt;Node12 -->
<g id="edge2" class="edge">
<title>Node10&#45;&gt;Node12</title>
<path fill="none" stroke="#191970" d="M69.2636,-23.7579C77.2023,-22.5608 85.8952,-21.2499 94.6615,-19.928"/>
<polygon fill="#191970" stroke="#191970" points="95.1875,-23.3884 104.5539,-18.4363 94.1437,-16.4666 95.1875,-23.3884"/>
</g>
</g>
</svg>
