<?xml version="1.0" encoding="UTF-8" standalone="no"?>
<!DOCTYPE svg PUBLIC "-//W3C//DTD SVG 1.1//EN"
 "http://www.w3.org/Graphics/SVG/1.1/DTD/svg11.dtd">
<!-- Generated by graphviz version 2.40.1 (20161225.0304)
 -->
<!-- Title: l4/sys/irq Pages: 1 -->
<svg width="984pt" height="823pt"
 viewBox="0.00 0.00 984.00 823.00" xmlns="http://www.w3.org/2000/svg" xmlns:xlink="http://www.w3.org/1999/xlink">
<g id="graph0" class="graph" transform="scale(1 1) rotate(0) translate(4 819)">
<title>l4/sys/irq</title>
<polygon fill="#ffffff" stroke="transparent" points="-4,4 -4,-819 980,-819 980,4 -4,4"/>
<!-- Node0 -->
<g id="node1" class="node">
<title>Node0</title>
<polygon fill="#bfbfbf" stroke="#000000" points="389.5,-795.5 389.5,-814.5 448.5,-814.5 448.5,-795.5 389.5,-795.5"/>
<text text-anchor="middle" x="419" y="-802.5" font-family="Helvetica,sans-Serif" font-size="10.00" fill="#000000">l4/sys/irq</text>
</g>
<!-- Node1 -->
<g id="node2" class="node">
<title>Node1</title>
<g id="a_node2"><a xlink:href="icu_8h.html" target="_top" xlink:title="Interrupt controller. ">
<polygon fill="#ffffff" stroke="#000000" points="104,-459.5 104,-478.5 172,-478.5 172,-459.5 104,-459.5"/>
<text text-anchor="middle" x="138" y="-466.5" font-family="Helvetica,sans-Serif" font-size="10.00" fill="#000000">l4/sys/icu.h</text>
</a>
</g>
</g>
<!-- Node0&#45;&gt;Node1 -->
<g id="edge1" class="edge">
<title>Node0&#45;&gt;Node1</title>
<path fill="none" stroke="#191970" d="M389.3384,-797.698C325.5383,-781.1249 181,-738.5518 181,-693 181,-693 181,-693 181,-581 181,-546.1403 162.6207,-508.9899 149.8941,-487.444"/>
<polygon fill="#191970" stroke="#191970" points="152.7451,-485.3983 144.5308,-478.7069 146.7794,-489.0603 152.7451,-485.3983"/>
</g>
<!-- Node14 -->
<g id="node15" class="node">
<title>Node14</title>
<g id="a_node15"><a xlink:href="l4_2sys_2irq_8h.html" target="_top" xlink:title="C Irq interface. ">
<polygon fill="#ffffff" stroke="#000000" points="228.5,-459.5 228.5,-478.5 295.5,-478.5 295.5,-459.5 228.5,-459.5"/>
<text text-anchor="middle" x="262" y="-466.5" font-family="Helvetica,sans-Serif" font-size="10.00" fill="#000000">l4/sys/irq.h</text>
</a>
</g>
</g>
<!-- Node0&#45;&gt;Node14 -->
<g id="edge27" class="edge">
<title>Node0&#45;&gt;Node14</title>
<path fill="none" stroke="#191970" d="M389.3072,-796.7331C346.8855,-782.9001 274,-750.7329 274,-693 274,-693 274,-693 274,-581 274,-548.3778 268.9046,-510.7135 265.3544,-488.4301"/>
<polygon fill="#191970" stroke="#191970" points="268.8053,-487.8456 263.7193,-478.5514 261.8993,-488.9887 268.8053,-487.8456"/>
</g>
<!-- Node16 -->
<g id="node17" class="node">
<title>Node16</title>
<g id="a_node17"><a xlink:href="capability.html" target="_top" xlink:title="L4::Cap related definitions. ">
<polygon fill="#ffffff" stroke="#000000" points="719,-683.5 719,-702.5 809,-702.5 809,-683.5 719,-683.5"/>
<text text-anchor="middle" x="764" y="-690.5" font-family="Helvetica,sans-Serif" font-size="10.00" fill="#000000">l4/sys/capability</text>
</a>
</g>
</g>
<!-- Node0&#45;&gt;Node16 -->
<g id="edge34" class="edge">
<title>Node0&#45;&gt;Node16</title>
<path fill="none" stroke="#191970" d="M448.5306,-797.4429C481.5212,-788.8324 536.4161,-774.0022 583,-759 634.8002,-742.3179 693.8685,-720.181 730.0424,-706.2614"/>
<polygon fill="#191970" stroke="#191970" points="731.5459,-709.4328 739.6131,-702.5647 729.0237,-702.903 731.5459,-709.4328"/>
</g>
<!-- Node24 -->
<g id="node25" class="node">
<title>Node24</title>
<g id="a_node25"><a xlink:href="ipc__iface.html" target="_top" xlink:title="Interface Definition Language. ">
<polygon fill="#ffffff" stroke="#000000" points="472.5,-571.5 472.5,-590.5 549.5,-590.5 549.5,-571.5 472.5,-571.5"/>
<text text-anchor="middle" x="511" y="-578.5" font-family="Helvetica,sans-Serif" font-size="10.00" fill="#000000">cxx/ipc_iface</text>
</a>
</g>
</g>
<!-- Node0&#45;&gt;Node24 -->
<g id="edge75" class="edge">
<title>Node0&#45;&gt;Node24</title>
<path fill="none" stroke="#191970" d="M422.9531,-795.375C436.9607,-761.2697 484.3955,-645.7761 503.2142,-599.9567"/>
<polygon fill="#191970" stroke="#191970" points="506.4999,-601.1691 507.0616,-590.5891 500.0248,-598.5096 506.4999,-601.1691"/>
</g>
<!-- Node25 -->
<g id="node26" class="node">
<title>Node25</title>
<g id="a_node26"><a xlink:href="ipc__types.html" target="_top" xlink:title="l4/sys/cxx/ipc_types">
<polygon fill="#ffffff" stroke="#000000" points="466,-459.5 466,-478.5 576,-478.5 576,-459.5 466,-459.5"/>
<text text-anchor="middle" x="521" y="-466.5" font-family="Helvetica,sans-Serif" font-size="10.00" fill="#000000">l4/sys/cxx/ipc_types</text>
</a>
</g>
</g>
<!-- Node0&#45;&gt;Node25 -->
<g id="edge76" class="edge">
<title>Node0&#45;&gt;Node25</title>
<path fill="none" stroke="#191970" d="M416.1965,-795.2066C410.9113,-775.8521 400,-731.2612 400,-693 400,-693 400,-693 400,-581 400,-533.1765 451.5352,-500.072 487.34,-482.8432"/>
<polygon fill="#191970" stroke="#191970" points="488.9033,-485.9765 496.5138,-478.6056 485.9678,-479.6217 488.9033,-485.9765"/>
</g>
<!-- Node28 -->
<g id="node29" class="node">
<title>Node28</title>
<g id="a_node29"><a xlink:href="rcv__endpoint.html" target="_top" xlink:title="The C++ Receive endpoint interface. ">
<polygon fill="#ffffff" stroke="#000000" points="466,-739.5 466,-758.5 574,-758.5 574,-739.5 466,-739.5"/>
<text text-anchor="middle" x="520" y="-746.5" font-family="Helvetica,sans-Serif" font-size="10.00" fill="#000000">l4/sys/rcv_endpoint</text>
</a>
</g>
</g>
<!-- Node0&#45;&gt;Node28 -->
<g id="edge70" class="edge">
<title>Node0&#45;&gt;Node28</title>
<path fill="none" stroke="#191970" d="M436.5929,-795.2455C452.379,-786.4928 475.7639,-773.527 493.7587,-763.5496"/>
<polygon fill="#191970" stroke="#191970" points="495.5603,-766.5528 502.6087,-758.6427 492.1659,-760.4308 495.5603,-766.5528"/>
</g>
<!-- Node2 -->
<g id="node3" class="node">
<title>Node2</title>
<g id="a_node3"><a xlink:href="kernel__object_8h.html" target="_top" xlink:title="Kernel object system calls. ">
<polygon fill="#ffffff" stroke="#000000" points="110,-403.5 110,-422.5 228,-422.5 228,-403.5 110,-403.5"/>
<text text-anchor="middle" x="169" y="-410.5" font-family="Helvetica,sans-Serif" font-size="10.00" fill="#000000">l4/sys/kernel_object.h</text>
</a>
</g>
</g>
<!-- Node1&#45;&gt;Node2 -->
<g id="edge2" class="edge">
<title>Node1&#45;&gt;Node2</title>
<path fill="none" stroke="#191970" d="M143.3998,-459.2455C147.6227,-451.617 153.6173,-440.7881 158.7441,-431.5267"/>
<polygon fill="#191970" stroke="#191970" points="161.881,-433.0867 163.6621,-422.6427 155.7568,-429.6965 161.881,-433.0867"/>
</g>
<!-- Node12 -->
<g id="node13" class="node">
<title>Node12</title>
<g id="a_node13"><a xlink:href="l4_2sys_2ipc_8h.html" target="_top" xlink:title="Common IPC interface. ">
<polygon fill="#ffffff" stroke="#000000" points="345,-280.5 345,-299.5 413,-299.5 413,-280.5 345,-280.5"/>
<text text-anchor="middle" x="379" y="-287.5" font-family="Helvetica,sans-Serif" font-size="10.00" fill="#000000">l4/sys/ipc.h</text>
</a>
</g>
</g>
<!-- Node1&#45;&gt;Node12 -->
<g id="edge26" class="edge">
<title>Node1&#45;&gt;Node12</title>
<path fill="none" stroke="#191970" d="M126.8498,-459.3293C117.9329,-450.8007 106.1079,-437.5 101,-423 87.3113,-384.1412 100.3279,-361.0982 133,-336 163.9429,-312.2301 272.5582,-299.171 334.6247,-293.4938"/>
<polygon fill="#191970" stroke="#191970" points="335.2535,-296.9519 344.9051,-292.582 334.635,-289.9793 335.2535,-296.9519"/>
</g>
<!-- Node3 -->
<g id="node4" class="node">
<title>Node3</title>
<g id="a_node4"><a xlink:href="l4_2sys_2types_8h.html" target="_top" xlink:title="Common L4 ABI Data Types. ">
<polygon fill="#ffffff" stroke="#000000" points="699,-168.5 699,-187.5 779,-187.5 779,-168.5 699,-168.5"/>
<text text-anchor="middle" x="739" y="-175.5" font-family="Helvetica,sans-Serif" font-size="10.00" fill="#000000">l4/sys/types.h</text>
</a>
</g>
</g>
<!-- Node2&#45;&gt;Node3 -->
<g id="edge3" class="edge">
<title>Node2&#45;&gt;Node3</title>
<path fill="none" stroke="#191970" d="M156.0229,-403.327C137.8175,-388.5464 108.5588,-359.573 124,-336 192.2728,-231.7725 260.8962,-257.1603 381,-224 488.0087,-194.4552 618.3548,-183.7726 688.4939,-179.9949"/>
<polygon fill="#191970" stroke="#191970" points="689.0007,-183.4736 698.8083,-179.4661 688.6422,-176.4828 689.0007,-183.4736"/>
</g>
<!-- Node5 -->
<g id="node6" class="node">
<title>Node5</title>
<g id="a_node6"><a xlink:href="compiler_8h.html" target="_top" xlink:title="L4 compiler related defines. ">
<polygon fill="#ffffff" stroke="#000000" points="440.5,-56.5 440.5,-75.5 535.5,-75.5 535.5,-56.5 440.5,-56.5"/>
<text text-anchor="middle" x="488" y="-63.5" font-family="Helvetica,sans-Serif" font-size="10.00" fill="#000000">l4/sys/compiler.h</text>
</a>
</g>
</g>
<!-- Node2&#45;&gt;Node5 -->
<g id="edge14" class="edge">
<title>Node2&#45;&gt;Node5</title>
<path fill="none" stroke="#191970" d="M130.6513,-403.4394C80.7892,-388.4415 0,-354.2306 0,-290 0,-290 0,-290 0,-178 0,-90.6165 301.0027,-71.4075 430.2101,-67.1872"/>
<polygon fill="#191970" stroke="#191970" points="430.4323,-70.6821 440.32,-66.8763 430.2171,-63.6855 430.4323,-70.6821"/>
</g>
<!-- Node10 -->
<g id="node11" class="node">
<title>Node10</title>
<g id="a_node11"><a xlink:href="l4_2sys_2utcb_8h.html" target="_top" xlink:title="UTCB definitions. ">
<polygon fill="#ffffff" stroke="#000000" points="498,-224.5 498,-243.5 572,-243.5 572,-224.5 498,-224.5"/>
<text text-anchor="middle" x="535" y="-231.5" font-family="Helvetica,sans-Serif" font-size="10.00" fill="#000000">l4/sys/utcb.h</text>
</a>
</g>
</g>
<!-- Node2&#45;&gt;Node10 -->
<g id="edge15" class="edge">
<title>Node2&#45;&gt;Node10</title>
<path fill="none" stroke="#191970" d="M158.1552,-403.28C142.3445,-387.9297 116.5499,-357.6025 133,-336 143.9235,-321.6552 383.9204,-267.3001 487.7854,-244.3379"/>
<polygon fill="#191970" stroke="#191970" points="488.6843,-247.7238 497.6951,-242.1511 487.1758,-240.8883 488.6843,-247.7238"/>
</g>
<!-- Node11 -->
<g id="node12" class="node">
<title>Node11</title>
<g id="a_node12"><a xlink:href="____kernel__object__impl_8h.html" target="_top" xlink:title="Low&#45;level kernel debugger functions. ">
<polygon fill="#ffffff" stroke="#000000" points="142,-336.5 142,-366.5 264,-366.5 264,-336.5 142,-336.5"/>
<text text-anchor="start" x="150" y="-354.5" font-family="Helvetica,sans-Serif" font-size="10.00" fill="#000000">l4/sys/__kernel_object</text>
<text text-anchor="middle" x="203" y="-343.5" font-family="Helvetica,sans-Serif" font-size="10.00" fill="#000000">_impl.h</text>
</a>
</g>
</g>
<!-- Node2&#45;&gt;Node11 -->
<g id="edge19" class="edge">
<title>Node2&#45;&gt;Node11</title>
<path fill="none" stroke="#191970" d="M174.3125,-403.3906C178.4453,-395.9151 184.3643,-385.2087 189.7536,-375.4605"/>
<polygon fill="#191970" stroke="#191970" points="192.9074,-376.9896 194.6827,-366.5446 186.7812,-373.6028 192.9074,-376.9896"/>
</g>
<!-- Node2&#45;&gt;Node12 -->
<g id="edge25" class="edge">
<title>Node2&#45;&gt;Node12</title>
<path fill="none" stroke="#191970" d="M194.5249,-403.4706C216.0403,-395.0282 247.3346,-381.7748 273,-367 275.2315,-365.7154 327.365,-327.7052 357.6718,-305.5795"/>
<polygon fill="#191970" stroke="#191970" points="359.9276,-308.2661 365.9397,-299.5422 355.7995,-302.6128 359.9276,-308.2661"/>
</g>
<!-- Node4 -->
<g id="node5" class="node">
<title>Node4</title>
<g id="a_node5"><a xlink:href="l4_2sys_2l4int_8h.html" target="_top" xlink:title="Fixed sized integer types, generic version. ">
<polygon fill="#ffffff" stroke="#000000" points="711,-56.5 711,-75.5 785,-75.5 785,-56.5 711,-56.5"/>
<text text-anchor="middle" x="748" y="-63.5" font-family="Helvetica,sans-Serif" font-size="10.00" fill="#000000">l4/sys/l4int.h</text>
</a>
</g>
</g>
<!-- Node3&#45;&gt;Node4 -->
<g id="edge4" class="edge">
<title>Node3&#45;&gt;Node4</title>
<path fill="none" stroke="#191970" d="M735.0703,-168.1143C730.445,-155.1677 723.8841,-131.789 728,-112 729.9414,-102.6655 733.8804,-92.9017 737.7531,-84.783"/>
<polygon fill="#191970" stroke="#191970" points="740.8903,-86.3353 742.3055,-75.8354 734.6514,-83.161 740.8903,-86.3353"/>
</g>
<!-- Node3&#45;&gt;Node5 -->
<g id="edge5" class="edge">
<title>Node3&#45;&gt;Node5</title>
<path fill="none" stroke="#191970" d="M698.8486,-173.2608C645.0309,-166.2547 553.1193,-151.7957 526,-132 510.3597,-120.5834 500.1779,-100.6289 494.3279,-85.6417"/>
<polygon fill="#191970" stroke="#191970" points="497.4737,-84.0427 490.8177,-75.7997 490.8805,-86.3943 497.4737,-84.0427"/>
</g>
<!-- Node7 -->
<g id="node8" class="node">
<title>Node7</title>
<g id="a_node8"><a xlink:href="l4_2sys_2consts_8h.html" target="_top" xlink:title="Common constants. ">
<polygon fill="#ffffff" stroke="#000000" points="857,-112.5 857,-131.5 943,-131.5 943,-112.5 857,-112.5"/>
<text text-anchor="middle" x="900" y="-119.5" font-family="Helvetica,sans-Serif" font-size="10.00" fill="#000000">l4/sys/consts.h</text>
</a>
</g>
</g>
<!-- Node3&#45;&gt;Node7 -->
<g id="edge7" class="edge">
<title>Node3&#45;&gt;Node7</title>
<path fill="none" stroke="#191970" d="M766.6769,-168.3733C793.3328,-159.1016 833.8238,-145.0178 863.1884,-134.804"/>
<polygon fill="#191970" stroke="#191970" points="864.3891,-138.0921 872.6843,-131.5011 862.0895,-131.4807 864.3891,-138.0921"/>
</g>
<!-- Node8 -->
<g id="node9" class="node">
<title>Node8</title>
<g id="a_node9"><a xlink:href="____l4__fpage_8h_source.html" target="_top" xlink:title="l4/sys/__l4_fpage.h">
<polygon fill="#ffffff" stroke="#000000" points="535,-112.5 535,-131.5 643,-131.5 643,-112.5 535,-112.5"/>
<text text-anchor="middle" x="589" y="-119.5" font-family="Helvetica,sans-Serif" font-size="10.00" fill="#000000">l4/sys/__l4_fpage.h</text>
</a>
</g>
</g>
<!-- Node3&#45;&gt;Node8 -->
<g id="edge10" class="edge">
<title>Node3&#45;&gt;Node8</title>
<path fill="none" stroke="#191970" d="M713.2141,-168.3733C688.5953,-159.1822 651.31,-145.2624 624.0125,-135.0713"/>
<polygon fill="#191970" stroke="#191970" points="625.042,-131.7198 614.4494,-131.5011 622.5937,-138.2777 625.042,-131.7198"/>
</g>
<!-- Node9 -->
<g id="node10" class="node">
<title>Node9</title>
<g id="a_node10"><a xlink:href="____timeout_8h_source.html" target="_top" xlink:title="l4/sys/__timeout.h">
<polygon fill="#ffffff" stroke="#000000" points="737.5,-112.5 737.5,-131.5 838.5,-131.5 838.5,-112.5 737.5,-112.5"/>
<text text-anchor="middle" x="788" y="-119.5" font-family="Helvetica,sans-Serif" font-size="10.00" fill="#000000">l4/sys/__timeout.h</text>
</a>
</g>
</g>
<!-- Node3&#45;&gt;Node9 -->
<g id="edge12" class="edge">
<title>Node3&#45;&gt;Node9</title>
<path fill="none" stroke="#191970" d="M747.5351,-168.2455C754.4912,-160.2958 764.4883,-148.8706 772.8051,-139.3656"/>
<polygon fill="#191970" stroke="#191970" points="775.6116,-141.4732 779.5627,-131.6427 770.3436,-136.8637 775.6116,-141.4732"/>
</g>
<!-- Node6 -->
<g id="node7" class="node">
<title>Node6</title>
<polygon fill="#ffffff" stroke="#bfbfbf" points="443.5,-.5 443.5,-19.5 532.5,-19.5 532.5,-.5 443.5,-.5"/>
<text text-anchor="middle" x="488" y="-7.5" font-family="Helvetica,sans-Serif" font-size="10.00" fill="#000000">l4/sys/linkage.h</text>
</g>
<!-- Node5&#45;&gt;Node6 -->
<g id="edge6" class="edge">
<title>Node5&#45;&gt;Node6</title>
<path fill="none" stroke="#191970" d="M488,-56.2455C488,-48.9382 488,-38.6944 488,-29.7046"/>
<polygon fill="#191970" stroke="#191970" points="491.5001,-29.6426 488,-19.6427 484.5001,-29.6427 491.5001,-29.6426"/>
</g>
<!-- Node7&#45;&gt;Node4 -->
<g id="edge9" class="edge">
<title>Node7&#45;&gt;Node4</title>
<path fill="none" stroke="#191970" d="M873.8703,-112.3733C848.9232,-103.1822 811.1408,-89.2624 783.4794,-79.0713"/>
<polygon fill="#191970" stroke="#191970" points="784.3822,-75.674 773.7888,-75.5011 781.9622,-82.2424 784.3822,-75.674"/>
</g>
<!-- Node7&#45;&gt;Node5 -->
<g id="edge8" class="edge">
<title>Node7&#45;&gt;Node5</title>
<path fill="none" stroke="#191970" d="M856.9066,-113.4965C853.8961,-112.969 850.9049,-112.4644 848,-112 741.702,-95.005 616.9455,-80.2062 545.7117,-72.2416"/>
<polygon fill="#191970" stroke="#191970" points="545.9244,-68.7438 535.5987,-71.1166 545.1504,-75.7008 545.9244,-68.7438"/>
</g>
<!-- Node8&#45;&gt;Node5 -->
<g id="edge11" class="edge">
<title>Node8&#45;&gt;Node5</title>
<path fill="none" stroke="#191970" d="M571.4071,-112.2455C555.621,-103.4928 532.2361,-90.527 514.2413,-80.5496"/>
<polygon fill="#191970" stroke="#191970" points="515.8341,-77.4308 505.3913,-75.6427 512.4397,-83.5528 515.8341,-77.4308"/>
</g>
<!-- Node9&#45;&gt;Node4 -->
<g id="edge13" class="edge">
<title>Node9&#45;&gt;Node4</title>
<path fill="none" stroke="#191970" d="M781.0325,-112.2455C775.4689,-104.4564 767.522,-93.3308 760.8171,-83.9439"/>
<polygon fill="#191970" stroke="#191970" points="763.5481,-81.7457 754.8876,-75.6427 757.852,-85.8144 763.5481,-81.7457"/>
</g>
<!-- Node10&#45;&gt;Node3 -->
<g id="edge16" class="edge">
<title>Node10&#45;&gt;Node3</title>
<path fill="none" stroke="#191970" d="M570.0689,-224.3733C604.4315,-214.9404 656.9392,-200.5265 694.2851,-190.2747"/>
<polygon fill="#191970" stroke="#191970" points="695.672,-193.5235 704.3888,-187.5011 693.819,-186.7732 695.672,-193.5235"/>
</g>
<!-- Node10&#45;&gt;Node4 -->
<g id="edge18" class="edge">
<title>Node10&#45;&gt;Node4</title>
<path fill="none" stroke="#191970" d="M547.0621,-224.4862C582.1268,-196.8296 684.3034,-116.2396 727.9043,-81.8502"/>
<polygon fill="#191970" stroke="#191970" points="730.122,-84.5586 735.8062,-75.6177 725.787,-79.0625 730.122,-84.5586"/>
</g>
<!-- Node10&#45;&gt;Node5 -->
<g id="edge17" class="edge">
<title>Node10&#45;&gt;Node5</title>
<path fill="none" stroke="#191970" d="M531.9106,-224.4903C526.1158,-206.5158 513.3566,-166.2817 504,-132 499.78,-116.5382 495.5302,-98.8872 492.4722,-85.7316"/>
<polygon fill="#191970" stroke="#191970" points="495.8604,-84.8477 490.2105,-75.8851 489.038,-86.4148 495.8604,-84.8477"/>
</g>
<!-- Node11&#45;&gt;Node12 -->
<g id="edge20" class="edge">
<title>Node11&#45;&gt;Node12</title>
<path fill="none" stroke="#191970" d="M246.0544,-336.4554C275.4205,-326.194 313.9145,-312.7429 341.9195,-302.9571"/>
<polygon fill="#191970" stroke="#191970" points="343.4406,-306.1332 351.7262,-299.5303 341.1314,-299.525 343.4406,-306.1332"/>
</g>
<!-- Node12&#45;&gt;Node3 -->
<g id="edge21" class="edge">
<title>Node12&#45;&gt;Node3</title>
<path fill="none" stroke="#191970" d="M378.7277,-280.1992C378.9012,-265.5582 381.5752,-238.1832 398,-224 419.6098,-205.3395 599.1217,-188.8957 688.6416,-181.7648"/>
<polygon fill="#191970" stroke="#191970" points="689.142,-185.2364 698.8363,-180.9621 688.5924,-178.258 689.142,-185.2364"/>
</g>
<!-- Node12&#45;&gt;Node10 -->
<g id="edge22" class="edge">
<title>Node12&#45;&gt;Node10</title>
<path fill="none" stroke="#191970" d="M405.8174,-280.3733C431.5332,-271.1419 470.538,-257.1402 498.9599,-246.9375"/>
<polygon fill="#191970" stroke="#191970" points="500.3032,-250.174 508.5326,-243.5011 497.9381,-243.5857 500.3032,-250.174"/>
</g>
<!-- Node13 -->
<g id="node14" class="node">
<title>Node13</title>
<g id="a_node14"><a xlink:href="err_8h.html" target="_top" xlink:title="Error codes. ">
<polygon fill="#ffffff" stroke="#000000" points="407,-224.5 407,-243.5 475,-243.5 475,-224.5 407,-224.5"/>
<text text-anchor="middle" x="441" y="-231.5" font-family="Helvetica,sans-Serif" font-size="10.00" fill="#000000">l4/sys/err.h</text>
</a>
</g>
</g>
<!-- Node12&#45;&gt;Node13 -->
<g id="edge23" class="edge">
<title>Node12&#45;&gt;Node13</title>
<path fill="none" stroke="#191970" d="M389.7996,-280.2455C398.8678,-272.0549 412.0206,-260.1749 422.7245,-250.5069"/>
<polygon fill="#191970" stroke="#191970" points="425.2491,-252.9429 430.3242,-243.6427 420.5571,-247.7482 425.2491,-252.9429"/>
</g>
<!-- Node13&#45;&gt;Node5 -->
<g id="edge24" class="edge">
<title>Node13&#45;&gt;Node5</title>
<path fill="none" stroke="#191970" d="M443.6616,-224.4862C451.1234,-197.8144 472.358,-121.9117 482.4901,-85.695"/>
<polygon fill="#191970" stroke="#191970" points="485.9269,-86.4011 485.2505,-75.8279 479.1857,-84.5151 485.9269,-86.4011"/>
</g>
<!-- Node14&#45;&gt;Node2 -->
<g id="edge28" class="edge">
<title>Node14&#45;&gt;Node2</title>
<path fill="none" stroke="#191970" d="M245.8006,-459.2455C231.3982,-450.5731 210.1268,-437.7645 193.6201,-427.825"/>
<polygon fill="#191970" stroke="#191970" points="195.386,-424.8028 185.0137,-422.6427 191.775,-430.7996 195.386,-424.8028"/>
</g>
<!-- Node14&#45;&gt;Node12 -->
<g id="edge29" class="edge">
<title>Node14&#45;&gt;Node12</title>
<path fill="none" stroke="#191970" d="M268.2904,-459.3762C287.0184,-430.7241 342.6288,-345.6448 367.1543,-308.1229"/>
<polygon fill="#191970" stroke="#191970" points="370.1369,-309.9569 372.6785,-299.6714 364.2775,-306.127 370.1369,-309.9569"/>
</g>
<!-- Node15 -->
<g id="node16" class="node">
<title>Node15</title>
<g id="a_node16"><a xlink:href="rcv__endpoint_8h.html" target="_top" xlink:title="Receive endpoint C interface. ">
<polygon fill="#ffffff" stroke="#000000" points="358,-342 358,-361 474,-361 474,-342 358,-342"/>
<text text-anchor="middle" x="416" y="-349" font-family="Helvetica,sans-Serif" font-size="10.00" fill="#000000">l4/sys/rcv_endpoint.h</text>
</a>
</g>
</g>
<!-- Node14&#45;&gt;Node15 -->
<g id="edge30" class="edge">
<title>Node14&#45;&gt;Node15</title>
<path fill="none" stroke="#191970" d="M274.6025,-459.3845C300.9986,-439.2446 362.3359,-392.445 394.8653,-367.6255"/>
<polygon fill="#191970" stroke="#191970" points="397.3963,-370.0969 403.2234,-361.2484 393.1501,-364.5317 397.3963,-370.0969"/>
</g>
<!-- Node15&#45;&gt;Node3 -->
<g id="edge32" class="edge">
<title>Node15&#45;&gt;Node3</title>
<path fill="none" stroke="#191970" d="M433.826,-341.9248C487.5405,-313.0719 648.071,-226.8427 712.1506,-192.4222"/>
<polygon fill="#191970" stroke="#191970" points="714.0758,-195.3611 721.2291,-187.5457 710.7634,-189.1944 714.0758,-195.3611"/>
</g>
<!-- Node15&#45;&gt;Node10 -->
<g id="edge31" class="edge">
<title>Node15&#45;&gt;Node10</title>
<path fill="none" stroke="#191970" d="M425.7383,-341.8845C445.8738,-322.0028 492.3214,-276.1406 517.691,-251.0908"/>
<polygon fill="#191970" stroke="#191970" points="520.4705,-253.265 525.1272,-243.7484 515.5522,-248.284 520.4705,-253.265"/>
</g>
<!-- Node15&#45;&gt;Node12 -->
<g id="edge33" class="edge">
<title>Node15&#45;&gt;Node12</title>
<path fill="none" stroke="#191970" d="M410.2188,-341.8906C404.874,-333.0068 396.7841,-319.5601 390.1789,-308.5811"/>
<polygon fill="#191970" stroke="#191970" points="393.0171,-306.5093 384.8628,-299.7449 387.0189,-310.118 393.0171,-306.5093"/>
</g>
<!-- Node16&#45;&gt;Node3 -->
<g id="edge36" class="edge">
<title>Node16&#45;&gt;Node3</title>
<path fill="none" stroke="#191970" d="M793.8458,-683.4325C833.8796,-668.5095 900,-635.598 900,-581 900,-581 900,-581 900,-351.5 900,-274.8045 814.4219,-217.7192 768.0503,-192.4165"/>
<polygon fill="#191970" stroke="#191970" points="769.5385,-189.2439 759.0652,-187.6435 766.2545,-195.4258 769.5385,-189.2439"/>
</g>
<!-- Node16&#45;&gt;Node7 -->
<g id="edge35" class="edge">
<title>Node16&#45;&gt;Node7</title>
<path fill="none" stroke="#191970" d="M809.2622,-684.3631C860.8176,-671.5955 938,-642.2527 938,-581 938,-581 938,-581 938,-525 938,-446.061 976,-430.439 976,-351.5 976,-351.5 976,-351.5 976,-234 976,-194.2361 942.7929,-158.1042 920.2792,-138.177"/>
<polygon fill="#191970" stroke="#191970" points="922.4317,-135.4128 912.5499,-131.5918 917.8921,-140.7412 922.4317,-135.4128"/>
</g>
<!-- Node17 -->
<g id="node18" class="node">
<title>Node17</title>
<g id="a_node18"><a xlink:href="kobject_source.html" target="_top" xlink:title="l4/sys/kobject">
<polygon fill="#ffffff" stroke="#000000" points="792,-515.5 792,-534.5 872,-534.5 872,-515.5 792,-515.5"/>
<text text-anchor="middle" x="832" y="-522.5" font-family="Helvetica,sans-Serif" font-size="10.00" fill="#000000">l4/sys/kobject</text>
</a>
</g>
</g>
<!-- Node16&#45;&gt;Node17 -->
<g id="edge37" class="edge">
<title>Node16&#45;&gt;Node17</title>
<path fill="none" stroke="#191970" d="M767.8508,-683.4862C778.6931,-656.6994 809.6343,-580.2565 824.2169,-544.2289"/>
<polygon fill="#191970" stroke="#191970" points="827.5144,-545.4106 828.022,-534.8279 821.0257,-542.7842 827.5144,-545.4106"/>
</g>
<!-- Node22 -->
<g id="node23" class="node">
<title>Node22</title>
<g id="a_node23"><a xlink:href="l4_2sys_2task_8h.html" target="_top" xlink:title="Common task related definitions. ">
<polygon fill="#ffffff" stroke="#000000" points="681,-342 681,-361 755,-361 755,-342 681,-342"/>
<text text-anchor="middle" x="718" y="-349" font-family="Helvetica,sans-Serif" font-size="10.00" fill="#000000">l4/sys/task.h</text>
</a>
</g>
</g>
<!-- Node16&#45;&gt;Node22 -->
<g id="edge53" class="edge">
<title>Node16&#45;&gt;Node22</title>
<path fill="none" stroke="#191970" d="M764.7949,-683.4636C767.2148,-651.3029 773.1556,-544.0855 753,-459 748.964,-441.9624 742.8222,-439.5127 737,-423 730.942,-405.8183 725.7641,-385.726 722.3509,-371.2232"/>
<polygon fill="#191970" stroke="#191970" points="725.7379,-370.3332 720.0995,-361.3633 718.9135,-371.8915 725.7379,-370.3332"/>
</g>
<!-- Node23 -->
<g id="node24" class="node">
<title>Node23</title>
<g id="a_node24"><a xlink:href="sys_2meta.html" target="_top" xlink:title="Meta interface for getting dynamic type information about objects behind capabilities. ">
<polygon fill="#ffffff" stroke="#000000" points="620,-627.5 620,-646.5 690,-646.5 690,-627.5 620,-627.5"/>
<text text-anchor="middle" x="655" y="-634.5" font-family="Helvetica,sans-Serif" font-size="10.00" fill="#000000">l4/sys/meta</text>
</a>
</g>
</g>
<!-- Node16&#45;&gt;Node23 -->
<g id="edge54" class="edge">
<title>Node16&#45;&gt;Node23</title>
<path fill="none" stroke="#191970" d="M745.0136,-683.2455C727.8208,-674.4125 702.2762,-661.2887 682.7868,-651.2758"/>
<polygon fill="#191970" stroke="#191970" points="684.263,-648.0993 673.7688,-646.6427 681.0641,-654.3257 684.263,-648.0993"/>
</g>
<!-- Node17&#45;&gt;Node2 -->
<g id="edge38" class="edge">
<title>Node17&#45;&gt;Node2</title>
<path fill="none" stroke="#191970" d="M791.8043,-522.8938C659.4402,-515.8394 244.1887,-492.7176 219,-479 199.9449,-468.6228 185.9782,-447.5389 177.7237,-431.9811"/>
<polygon fill="#191970" stroke="#191970" points="180.7096,-430.1243 173.1281,-422.7235 174.4396,-433.2368 180.7096,-430.1243"/>
</g>
<!-- Node17&#45;&gt;Node3 -->
<g id="edge39" class="edge">
<title>Node17&#45;&gt;Node3</title>
<path fill="none" stroke="#191970" d="M834.7461,-515.4016C840.2687,-494.6688 851.4942,-444.242 843,-403 826.106,-320.9745 774.7965,-233.6334 751.1593,-196.4605"/>
<polygon fill="#191970" stroke="#191970" points="753.8927,-194.2412 745.5297,-187.7364 748.0109,-198.0366 753.8927,-194.2412"/>
</g>
<!-- Node18 -->
<g id="node19" class="node">
<title>Node18</title>
<g id="a_node19"><a xlink:href="____typeinfo_8h.html" target="_top" xlink:title="Type information handling. ">
<polygon fill="#ffffff" stroke="#000000" points="670,-459.5 670,-478.5 744,-478.5 744,-459.5 670,-459.5"/>
<text text-anchor="middle" x="707" y="-466.5" font-family="Helvetica,sans-Serif" font-size="10.00" fill="#000000">__typeinfo.h</text>
</a>
</g>
</g>
<!-- Node17&#45;&gt;Node18 -->
<g id="edge40" class="edge">
<title>Node17&#45;&gt;Node18</title>
<path fill="none" stroke="#191970" d="M810.5117,-515.3733C790.356,-506.3435 760.012,-492.7494 737.382,-482.6111"/>
<polygon fill="#191970" stroke="#191970" points="738.7649,-479.3955 728.2079,-478.5011 735.9029,-485.7838 738.7649,-479.3955"/>
</g>
<!-- Node19 -->
<g id="node20" class="node">
<title>Node19</title>
<g id="a_node20"><a xlink:href="types.html" target="_top" xlink:title="cxx/types">
<polygon fill="#ffffff" stroke="#000000" points="573.5,-342 573.5,-361 634.5,-361 634.5,-342 573.5,-342"/>
<text text-anchor="middle" x="604" y="-349" font-family="Helvetica,sans-Serif" font-size="10.00" fill="#000000">cxx/types</text>
</a>
</g>
</g>
<!-- Node18&#45;&gt;Node19 -->
<g id="edge41" class="edge">
<title>Node18&#45;&gt;Node19</title>
<path fill="none" stroke="#191970" d="M700.1175,-459.2858C690.6571,-446.1279 672.8827,-422.0921 656,-403 645.3738,-390.9831 632.5815,-378.2934 622.3441,-368.5172"/>
<polygon fill="#191970" stroke="#191970" points="624.4465,-365.6888 614.7718,-361.37 619.6416,-370.7794 624.4465,-365.6888"/>
</g>
<!-- Node20 -->
<g id="node21" class="node">
<title>Node20</title>
<g id="a_node21"><a xlink:href="ipc__basics_source.html" target="_top" xlink:title="cxx/ipc_basics">
<polygon fill="#ffffff" stroke="#000000" points="454,-403.5 454,-422.5 538,-422.5 538,-403.5 454,-403.5"/>
<text text-anchor="middle" x="496" y="-410.5" font-family="Helvetica,sans-Serif" font-size="10.00" fill="#000000">cxx/ipc_basics</text>
</a>
</g>
</g>
<!-- Node18&#45;&gt;Node20 -->
<g id="edge42" class="edge">
<title>Node18&#45;&gt;Node20</title>
<path fill="none" stroke="#191970" d="M670.7278,-459.3733C635.0342,-449.9001 580.4121,-435.4032 541.7549,-425.1435"/>
<polygon fill="#191970" stroke="#191970" points="542.3621,-421.6835 531.7989,-422.5011 540.5664,-428.4493 542.3621,-421.6835"/>
</g>
<!-- Node21 -->
<g id="node22" class="node">
<title>Node21</title>
<g id="a_node22"><a xlink:href="capability_8h_source.html" target="_top" xlink:title="cxx/capability.h">
<polygon fill="#ffffff" stroke="#000000" points="746.5,-403.5 746.5,-422.5 833.5,-422.5 833.5,-403.5 746.5,-403.5"/>
<text text-anchor="middle" x="790" y="-410.5" font-family="Helvetica,sans-Serif" font-size="10.00" fill="#000000">cxx/capability.h</text>
</a>
</g>
</g>
<!-- Node18&#45;&gt;Node21 -->
<g id="edge46" class="edge">
<title>Node18&#45;&gt;Node21</title>
<path fill="none" stroke="#191970" d="M721.4575,-459.2455C734.0732,-450.7337 752.5944,-438.2375 767.2045,-428.3801"/>
<polygon fill="#191970" stroke="#191970" points="769.3761,-431.1371 775.7082,-422.6427 765.4609,-425.3343 769.3761,-431.1371"/>
</g>
<!-- Node20&#45;&gt;Node10 -->
<g id="edge44" class="edge">
<title>Node20&#45;&gt;Node10</title>
<path fill="none" stroke="#191970" d="M501.0764,-403.4098C505.6809,-394.2931 512.2978,-380.0707 516,-367 527.1295,-327.7066 531.9229,-279.9474 533.8411,-253.6834"/>
<polygon fill="#191970" stroke="#191970" points="537.3448,-253.7428 534.515,-243.5328 530.3602,-253.279 537.3448,-253.7428"/>
</g>
<!-- Node20&#45;&gt;Node13 -->
<g id="edge45" class="edge">
<title>Node20&#45;&gt;Node13</title>
<path fill="none" stroke="#191970" d="M495.0722,-403.364C493.4981,-388.6317 489.7935,-359.7205 483,-336 474.424,-306.0554 459.7915,-272.9874 450.2604,-252.8525"/>
<polygon fill="#191970" stroke="#191970" points="453.2913,-251.0794 445.8003,-243.5871 446.984,-254.1156 453.2913,-251.0794"/>
</g>
<!-- Node20&#45;&gt;Node19 -->
<g id="edge43" class="edge">
<title>Node20&#45;&gt;Node19</title>
<path fill="none" stroke="#191970" d="M512.875,-403.3906C530.4698,-393.3713 558.2566,-377.5483 578.5241,-366.0071"/>
<polygon fill="#191970" stroke="#191970" points="580.2856,-369.0318 587.2435,-361.0419 576.8217,-362.9489 580.2856,-369.0318"/>
</g>
<!-- Node21&#45;&gt;Node3 -->
<g id="edge48" class="edge">
<title>Node21&#45;&gt;Node3</title>
<path fill="none" stroke="#191970" d="M787.9376,-403.4967C780.3133,-368.3651 753.6255,-245.3922 743.2093,-197.3958"/>
<polygon fill="#191970" stroke="#191970" points="746.6294,-196.6518 741.0881,-187.6216 739.7886,-198.1364 746.6294,-196.6518"/>
</g>
<!-- Node21&#45;&gt;Node7 -->
<g id="edge47" class="edge">
<title>Node21&#45;&gt;Node7</title>
<path fill="none" stroke="#191970" d="M793.6599,-403.3179C809.3846,-361.719 871.3767,-197.7216 892.7279,-141.2381"/>
<polygon fill="#191970" stroke="#191970" points="896.0643,-142.3101 896.3264,-131.7185 889.5165,-139.8349 896.0643,-142.3101"/>
</g>
<!-- Node21&#45;&gt;Node22 -->
<g id="edge49" class="edge">
<title>Node21&#45;&gt;Node22</title>
<path fill="none" stroke="#191970" d="M778.75,-403.3906C767.614,-393.8786 750.354,-379.1357 737.0732,-367.7917"/>
<polygon fill="#191970" stroke="#191970" points="739.2856,-365.0784 729.4086,-361.2449 734.7392,-370.4011 739.2856,-365.0784"/>
</g>
<!-- Node22&#45;&gt;Node3 -->
<g id="edge50" class="edge">
<title>Node22&#45;&gt;Node3</title>
<path fill="none" stroke="#191970" d="M719.159,-341.9248C722.4785,-314.499 732.0728,-235.232 736.5918,-197.8964"/>
<polygon fill="#191970" stroke="#191970" points="740.0917,-198.1077 737.8187,-187.7595 733.1424,-197.2665 740.0917,-198.1077"/>
</g>
<!-- Node22&#45;&gt;Node10 -->
<g id="edge51" class="edge">
<title>Node22&#45;&gt;Node10</title>
<path fill="none" stroke="#191970" d="M703.0243,-341.8845C671.1763,-321.4356 596.5237,-273.5029 558.3601,-248.999"/>
<polygon fill="#191970" stroke="#191970" points="560.2318,-246.0414 549.9259,-243.5836 556.4497,-251.9317 560.2318,-246.0414"/>
</g>
<!-- Node22&#45;&gt;Node12 -->
<g id="edge52" class="edge">
<title>Node22&#45;&gt;Node12</title>
<path fill="none" stroke="#191970" d="M680.6598,-343.5432C668.6509,-341.0485 655.2777,-338.3377 643,-336 565.8765,-321.3152 475.7168,-306.0024 423.2188,-297.2704"/>
<polygon fill="#191970" stroke="#191970" points="423.6745,-293.7982 413.2364,-295.6138 422.5285,-300.7038 423.6745,-293.7982"/>
</g>
<!-- Node23&#45;&gt;Node17 -->
<g id="edge55" class="edge">
<title>Node23&#45;&gt;Node17</title>
<path fill="none" stroke="#191970" d="M670.0909,-627.4509C700.9187,-607.9441 771.325,-563.3932 808.3091,-539.9909"/>
<polygon fill="#191970" stroke="#191970" points="810.3684,-542.8297 816.9473,-534.5249 806.6254,-536.9144 810.3684,-542.8297"/>
</g>
<!-- Node23&#45;&gt;Node24 -->
<g id="edge56" class="edge">
<title>Node23&#45;&gt;Node24</title>
<path fill="none" stroke="#191970" d="M630.2455,-627.3733C606.7151,-618.2226 571.1313,-604.3844 544.9574,-594.2057"/>
<polygon fill="#191970" stroke="#191970" points="546.0201,-590.8636 535.4315,-590.5011 543.4829,-597.3877 546.0201,-590.8636"/>
</g>
<!-- Node26 -->
<g id="node27" class="node">
<title>Node26</title>
<g id="a_node27"><a xlink:href="ipc__string_source.html" target="_top" xlink:title="cxx/ipc_string">
<polygon fill="#ffffff" stroke="#000000" points="584.5,-571.5 584.5,-590.5 665.5,-590.5 665.5,-571.5 584.5,-571.5"/>
<text text-anchor="middle" x="625" y="-578.5" font-family="Helvetica,sans-Serif" font-size="10.00" fill="#000000">cxx/ipc_string</text>
</a>
</g>
</g>
<!-- Node23&#45;&gt;Node26 -->
<g id="edge63" class="edge">
<title>Node23&#45;&gt;Node26</title>
<path fill="none" stroke="#191970" d="M649.7744,-627.2455C645.6877,-619.617 639.8865,-608.7881 634.925,-599.5267"/>
<polygon fill="#191970" stroke="#191970" points="637.9732,-597.8047 630.1657,-590.6427 631.8028,-601.1103 637.9732,-597.8047"/>
</g>
<!-- Node24&#45;&gt;Node18 -->
<g id="edge62" class="edge">
<title>Node24&#45;&gt;Node18</title>
<path fill="none" stroke="#191970" d="M529.8383,-571.4403C547.5758,-562.3451 574.8092,-548.1373 598,-535 627.6425,-518.2079 661.066,-497.7349 682.9945,-484.0862"/>
<polygon fill="#191970" stroke="#191970" points="685.0157,-486.9505 691.6442,-478.6853 681.3082,-481.0129 685.0157,-486.9505"/>
</g>
<!-- Node24&#45;&gt;Node20 -->
<g id="edge57" class="edge">
<title>Node24&#45;&gt;Node20</title>
<path fill="none" stroke="#191970" d="M490.2071,-571.4111C460.635,-556.4704 407.62,-524.5464 386,-479 372.1637,-449.8513 409.2191,-432.5565 443.995,-423.0344"/>
<polygon fill="#191970" stroke="#191970" points="444.8788,-426.4211 453.699,-420.5513 443.1435,-419.6396 444.8788,-426.4211"/>
</g>
<!-- Node24&#45;&gt;Node25 -->
<g id="edge58" class="edge">
<title>Node24&#45;&gt;Node25</title>
<path fill="none" stroke="#191970" d="M511.8526,-571.4509C513.4836,-553.184 517.0754,-512.9553 519.2413,-488.6976"/>
<polygon fill="#191970" stroke="#191970" points="522.7463,-488.7966 520.1496,-478.5249 515.774,-488.174 522.7463,-488.7966"/>
</g>
<!-- Node25&#45;&gt;Node19 -->
<g id="edge60" class="edge">
<title>Node25&#45;&gt;Node19</title>
<path fill="none" stroke="#191970" d="M527.7922,-459.3845C541.6539,-439.761 573.3942,-394.8274 591.2306,-369.5772"/>
<polygon fill="#191970" stroke="#191970" points="594.203,-371.4355 597.1139,-361.2484 588.4856,-367.3968 594.203,-371.4355"/>
</g>
<!-- Node25&#45;&gt;Node20 -->
<g id="edge61" class="edge">
<title>Node25&#45;&gt;Node20</title>
<path fill="none" stroke="#191970" d="M516.6453,-459.2455C513.2756,-451.6973 508.507,-441.0158 504.4017,-431.8197"/>
<polygon fill="#191970" stroke="#191970" points="507.5773,-430.3473 500.3048,-422.6427 501.1853,-433.2009 507.5773,-430.3473"/>
</g>
<!-- Node25&#45;&gt;Node21 -->
<g id="edge59" class="edge">
<title>Node25&#45;&gt;Node21</title>
<path fill="none" stroke="#191970" d="M566.9371,-459.4369C613.9665,-449.6464 687.0012,-434.4421 736.5824,-424.1204"/>
<polygon fill="#191970" stroke="#191970" points="737.403,-427.5247 746.4798,-422.06 735.9763,-420.6716 737.403,-427.5247"/>
</g>
<!-- Node26&#45;&gt;Node19 -->
<g id="edge64" class="edge">
<title>Node26&#45;&gt;Node19</title>
<path fill="none" stroke="#191970" d="M624.8435,-571.311C624.3146,-544.4642 622.1411,-466.8837 614,-403 612.6594,-392.48 610.4695,-380.8757 608.4803,-371.3498"/>
<polygon fill="#191970" stroke="#191970" points="611.8428,-370.3407 606.3002,-361.3113 605.0023,-371.8264 611.8428,-370.3407"/>
</g>
<!-- Node26&#45;&gt;Node20 -->
<g id="edge65" class="edge">
<title>Node26&#45;&gt;Node20</title>
<path fill="none" stroke="#191970" d="M584.2351,-571.4706C540.8347,-558.7803 475.0269,-531.5439 450,-479 441.2031,-460.531 457.5304,-441.5909 473.1123,-428.7645"/>
<polygon fill="#191970" stroke="#191970" points="475.2668,-431.5229 481.0556,-422.6493 470.9966,-425.9762 475.2668,-431.5229"/>
</g>
<!-- Node27 -->
<g id="node28" class="node">
<title>Node27</title>
<g id="a_node28"><a xlink:href="ipc__array_source.html" target="_top" xlink:title="ipc_array">
<polygon fill="#ffffff" stroke="#000000" points="528.5,-515.5 528.5,-534.5 589.5,-534.5 589.5,-515.5 528.5,-515.5"/>
<text text-anchor="middle" x="559" y="-522.5" font-family="Helvetica,sans-Serif" font-size="10.00" fill="#000000">ipc_array</text>
</a>
</g>
</g>
<!-- Node26&#45;&gt;Node27 -->
<g id="edge66" class="edge">
<title>Node26&#45;&gt;Node27</title>
<path fill="none" stroke="#191970" d="M613.5037,-571.2455C603.7558,-562.9746 589.5741,-550.9416 578.1202,-541.2232"/>
<polygon fill="#191970" stroke="#191970" points="580.2541,-538.4437 570.3646,-534.6427 575.7253,-543.7813 580.2541,-538.4437"/>
</g>
<!-- Node27&#45;&gt;Node19 -->
<g id="edge67" class="edge">
<title>Node27&#45;&gt;Node19</title>
<path fill="none" stroke="#191970" d="M565.9057,-515.274C571.9306,-506.2922 580.4063,-492.3595 585,-479 597.6215,-442.2943 601.862,-396.8025 603.2844,-371.2773"/>
<polygon fill="#191970" stroke="#191970" points="606.7912,-371.2095 603.7596,-361.0577 599.7988,-370.8843 606.7912,-371.2095"/>
</g>
<!-- Node27&#45;&gt;Node20 -->
<g id="edge68" class="edge">
<title>Node27&#45;&gt;Node20</title>
<path fill="none" stroke="#191970" d="M528.1856,-520.241C504.2544,-514.7506 472.6007,-503.1494 457,-479 446.2753,-462.3985 461.1161,-442.849 475.4711,-429.3578"/>
<polygon fill="#191970" stroke="#191970" points="478.0265,-431.7718 483.2307,-422.5432 473.4074,-426.5121 478.0265,-431.7718"/>
</g>
<!-- Node27&#45;&gt;Node25 -->
<g id="edge69" class="edge">
<title>Node27&#45;&gt;Node25</title>
<path fill="none" stroke="#191970" d="M552.3809,-515.2455C547.0954,-507.4564 539.5459,-496.3308 533.1762,-486.9439"/>
<polygon fill="#191970" stroke="#191970" points="536.0545,-484.9522 527.5432,-478.6427 530.2621,-488.8827 536.0545,-484.9522"/>
</g>
<!-- Node28&#45;&gt;Node3 -->
<g id="edge72" class="edge">
<title>Node28&#45;&gt;Node3</title>
<path fill="none" stroke="#191970" d="M574.0999,-747.0571C694.8895,-741.2478 976,-718.9272 976,-637 976,-637 976,-637 976,-525 976,-446.061 938,-430.439 938,-351.5 938,-351.5 938,-351.5 938,-290 938,-221.7927 848.1192,-194.6778 789.1679,-184.229"/>
<polygon fill="#191970" stroke="#191970" points="789.7102,-180.7712 779.2706,-182.5781 788.5585,-187.6758 789.7102,-180.7712"/>
</g>
<!-- Node28&#45;&gt;Node15 -->
<g id="edge71" class="edge">
<title>Node28&#45;&gt;Node15</title>
<path fill="none" stroke="#191970" d="M512.791,-739.4007C488.1024,-705.8456 406.9903,-589.8122 380,-479 370.4375,-439.74 390.9533,-394.3197 404.7683,-369.6831"/>
<polygon fill="#191970" stroke="#191970" points="407.7998,-371.4324 409.8296,-361.0338 401.7582,-367.897 407.7998,-371.4324"/>
</g>
<!-- Node28&#45;&gt;Node16 -->
<g id="edge73" class="edge">
<title>Node28&#45;&gt;Node16</title>
<path fill="none" stroke="#191970" d="M561.6679,-739.4369C603.4266,-729.8529 667.7891,-715.0812 712.6728,-704.78"/>
<polygon fill="#191970" stroke="#191970" points="713.5404,-708.172 722.504,-702.5237 711.9745,-701.3494 713.5404,-708.172"/>
</g>
<!-- Node28&#45;&gt;Node24 -->
<g id="edge74" class="edge">
<title>Node28&#45;&gt;Node24</title>
<path fill="none" stroke="#191970" d="M519.4903,-739.4862C518.0676,-712.9293 514.0303,-637.5651 512.0803,-601.1655"/>
<polygon fill="#191970" stroke="#191970" points="515.5565,-600.6263 511.5265,-590.8279 508.5665,-601.0008 515.5565,-600.6263"/>
</g>
</g>
</svg>
