<?xml version="1.0" encoding="UTF-8" standalone="no"?>
<!DOCTYPE svg PUBLIC "-//W3C//DTD SVG 1.1//EN"
 "http://www.w3.org/Graphics/SVG/1.1/DTD/svg11.dtd">
<!-- Generated by graphviz version 2.40.1 (20161225.0304)
 -->
<!-- Title: l4/sys/kernel_object.h Pages: 1 -->
<svg width="549pt" height="431pt"
 viewBox="0.00 0.00 549.00 431.00" xmlns="http://www.w3.org/2000/svg" xmlns:xlink="http://www.w3.org/1999/xlink">
<g id="graph0" class="graph" transform="scale(1 1) rotate(0) translate(4 427)">
<title>l4/sys/kernel_object.h</title>
<polygon fill="#ffffff" stroke="transparent" points="-4,4 -4,-427 545,-427 545,4 -4,4"/>
<!-- Node0 -->
<g id="node1" class="node">
<title>Node0</title>
<polygon fill="#bfbfbf" stroke="#000000" points="355,-403.5 355,-422.5 473,-422.5 473,-403.5 355,-403.5"/>
<text text-anchor="middle" x="414" y="-410.5" font-family="Helvetica,sans-Serif" font-size="10.00" fill="#000000">l4/sys/kernel_object.h</text>
</g>
<!-- Node1 -->
<g id="node2" class="node">
<title>Node1</title>
<g id="a_node2"><a xlink:href="l4_2sys_2types_8h.html" target="_top" xlink:title="Common L4 ABI Data Types. ">
<polygon fill="#ffffff" stroke="#000000" points="257,-168.5 257,-187.5 337,-187.5 337,-168.5 257,-168.5"/>
<text text-anchor="middle" x="297" y="-175.5" font-family="Helvetica,sans-Serif" font-size="10.00" fill="#000000">l4/sys/types.h</text>
</a>
</g>
</g>
<!-- Node0&#45;&gt;Node1 -->
<g id="edge1" class="edge">
<title>Node0&#45;&gt;Node1</title>
<path fill="none" stroke="#191970" d="M382.7194,-403.3493C364.6158,-396.1679 342.9228,-384.5334 330,-367 292.0319,-315.4854 292.4664,-234.842 295.0469,-197.8062"/>
<polygon fill="#191970" stroke="#191970" points="298.5388,-198.0477 295.8765,-187.7929 291.5627,-197.4697 298.5388,-198.0477"/>
</g>
<!-- Node3 -->
<g id="node4" class="node">
<title>Node3</title>
<g id="a_node4"><a xlink:href="compiler_8h.html" target="_top" xlink:title="L4 compiler related defines. ">
<polygon fill="#ffffff" stroke="#000000" points="356.5,-56.5 356.5,-75.5 451.5,-75.5 451.5,-56.5 356.5,-56.5"/>
<text text-anchor="middle" x="404" y="-63.5" font-family="Helvetica,sans-Serif" font-size="10.00" fill="#000000">l4/sys/compiler.h</text>
</a>
</g>
</g>
<!-- Node0&#45;&gt;Node3 -->
<g id="edge12" class="edge">
<title>Node0&#45;&gt;Node3</title>
<path fill="none" stroke="#191970" d="M435.1339,-403.4428C457.2581,-393.1383 490.1317,-376.8869 500,-367 527.3896,-339.5588 541,-328.7713 541,-290 541,-290 541,-290 541,-178 541,-127.2324 483.9134,-95.3381 443.4408,-79.1054"/>
<polygon fill="#191970" stroke="#191970" points="444.6552,-75.8225 434.0652,-75.5016 442.1437,-82.3565 444.6552,-75.8225"/>
</g>
<!-- Node8 -->
<g id="node9" class="node">
<title>Node8</title>
<g id="a_node9"><a xlink:href="l4_2sys_2utcb_8h.html" target="_top" xlink:title="UTCB definitions. ">
<polygon fill="#ffffff" stroke="#000000" points="314,-224.5 314,-243.5 388,-243.5 388,-224.5 314,-224.5"/>
<text text-anchor="middle" x="351" y="-231.5" font-family="Helvetica,sans-Serif" font-size="10.00" fill="#000000">l4/sys/utcb.h</text>
</a>
</g>
</g>
<!-- Node0&#45;&gt;Node8 -->
<g id="edge13" class="edge">
<title>Node0&#45;&gt;Node8</title>
<path fill="none" stroke="#191970" d="M388.115,-403.4647C372.2773,-396.1252 353.3206,-384.2779 344,-367 324.4234,-330.7101 335.5174,-280.4415 344.0515,-253.2786"/>
<polygon fill="#191970" stroke="#191970" points="347.3791,-254.3635 347.237,-243.7697 340.7417,-252.1399 347.3791,-254.3635"/>
</g>
<!-- Node9 -->
<g id="node10" class="node">
<title>Node9</title>
<g id="a_node10"><a xlink:href="____kernel__object__impl_8h.html" target="_top" xlink:title="Low&#45;level kernel debugger functions. ">
<polygon fill="#ffffff" stroke="#000000" points="353,-336.5 353,-366.5 475,-366.5 475,-336.5 353,-336.5"/>
<text text-anchor="start" x="361" y="-354.5" font-family="Helvetica,sans-Serif" font-size="10.00" fill="#000000">l4/sys/__kernel_object</text>
<text text-anchor="middle" x="414" y="-343.5" font-family="Helvetica,sans-Serif" font-size="10.00" fill="#000000">_impl.h</text>
</a>
</g>
</g>
<!-- Node0&#45;&gt;Node9 -->
<g id="edge17" class="edge">
<title>Node0&#45;&gt;Node9</title>
<path fill="none" stroke="#191970" d="M414,-403.3906C414,-396.2234 414,-386.0862 414,-376.671"/>
<polygon fill="#191970" stroke="#191970" points="417.5001,-376.5446 414,-366.5446 410.5001,-376.5446 417.5001,-376.5446"/>
</g>
<!-- Node10 -->
<g id="node11" class="node">
<title>Node10</title>
<g id="a_node11"><a xlink:href="l4_2sys_2ipc_8h.html" target="_top" xlink:title="Common IPC interface. ">
<polygon fill="#ffffff" stroke="#000000" points="382,-280.5 382,-299.5 450,-299.5 450,-280.5 382,-280.5"/>
<text text-anchor="middle" x="416" y="-287.5" font-family="Helvetica,sans-Serif" font-size="10.00" fill="#000000">l4/sys/ipc.h</text>
</a>
</g>
</g>
<!-- Node0&#45;&gt;Node10 -->
<g id="edge23" class="edge">
<title>Node0&#45;&gt;Node10</title>
<path fill="none" stroke="#191970" d="M439.885,-403.4647C455.7227,-396.1252 474.6794,-384.2779 484,-367 490.5413,-354.8741 490.4601,-348.1694 484,-336 476.6154,-322.0889 462.9364,-311.6166 449.7728,-304.2062"/>
<polygon fill="#191970" stroke="#191970" points="451.3134,-301.0625 440.8255,-299.5605 448.0876,-307.275 451.3134,-301.0625"/>
</g>
<!-- Node2 -->
<g id="node3" class="node">
<title>Node2</title>
<g id="a_node3"><a xlink:href="l4_2sys_2l4int_8h.html" target="_top" xlink:title="Fixed sized integer types, generic version. ">
<polygon fill="#ffffff" stroke="#000000" points="0,-56.5 0,-75.5 74,-75.5 74,-56.5 0,-56.5"/>
<text text-anchor="middle" x="37" y="-63.5" font-family="Helvetica,sans-Serif" font-size="10.00" fill="#000000">l4/sys/l4int.h</text>
</a>
</g>
</g>
<!-- Node1&#45;&gt;Node2 -->
<g id="edge2" class="edge">
<title>Node1&#45;&gt;Node2</title>
<path fill="none" stroke="#191970" d="M256.8408,-174.288C182.9212,-167.048 31.4235,-150.1537 16,-132 4.3948,-118.3405 13.4243,-98.2112 22.9932,-83.7778"/>
<polygon fill="#191970" stroke="#191970" points="25.8502,-85.7996 28.8411,-75.6357 20.1647,-81.716 25.8502,-85.7996"/>
</g>
<!-- Node1&#45;&gt;Node3 -->
<g id="edge3" class="edge">
<title>Node1&#45;&gt;Node3</title>
<path fill="none" stroke="#191970" d="M316.007,-168.4851C330.9299,-160.3222 351.5337,-147.4478 366,-132 378.945,-118.1767 389.3002,-99.1606 395.9112,-85.0899"/>
<polygon fill="#191970" stroke="#191970" points="399.1505,-86.4201 400.0468,-75.8633 392.7628,-83.557 399.1505,-86.4201"/>
</g>
<!-- Node5 -->
<g id="node6" class="node">
<title>Node5</title>
<g id="a_node6"><a xlink:href="l4_2sys_2consts_8h.html" target="_top" xlink:title="Common constants. ">
<polygon fill="#ffffff" stroke="#000000" points="145,-112.5 145,-131.5 231,-131.5 231,-112.5 145,-112.5"/>
<text text-anchor="middle" x="188" y="-119.5" font-family="Helvetica,sans-Serif" font-size="10.00" fill="#000000">l4/sys/consts.h</text>
</a>
</g>
</g>
<!-- Node1&#45;&gt;Node5 -->
<g id="edge5" class="edge">
<title>Node1&#45;&gt;Node5</title>
<path fill="none" stroke="#191970" d="M278.0136,-168.2455C260.8208,-159.4125 235.2762,-146.2887 215.7868,-136.2758"/>
<polygon fill="#191970" stroke="#191970" points="217.263,-133.0993 206.7688,-131.6427 214.0641,-139.3257 217.263,-133.0993"/>
</g>
<!-- Node6 -->
<g id="node7" class="node">
<title>Node6</title>
<g id="a_node7"><a xlink:href="____l4__fpage_8h_source.html" target="_top" xlink:title="l4/sys/__l4_fpage.h">
<polygon fill="#ffffff" stroke="#000000" points="249,-112.5 249,-131.5 357,-131.5 357,-112.5 249,-112.5"/>
<text text-anchor="middle" x="303" y="-119.5" font-family="Helvetica,sans-Serif" font-size="10.00" fill="#000000">l4/sys/__l4_fpage.h</text>
</a>
</g>
</g>
<!-- Node1&#45;&gt;Node6 -->
<g id="edge8" class="edge">
<title>Node1&#45;&gt;Node6</title>
<path fill="none" stroke="#191970" d="M298.0451,-168.2455C298.828,-160.9382 299.9256,-150.6944 300.8888,-141.7046"/>
<polygon fill="#191970" stroke="#191970" points="304.3815,-141.9587 301.9669,-131.6427 297.4214,-141.2129 304.3815,-141.9587"/>
</g>
<!-- Node7 -->
<g id="node8" class="node">
<title>Node7</title>
<g id="a_node8"><a xlink:href="____timeout_8h_source.html" target="_top" xlink:title="l4/sys/__timeout.h">
<polygon fill="#ffffff" stroke="#000000" points="25.5,-112.5 25.5,-131.5 126.5,-131.5 126.5,-112.5 25.5,-112.5"/>
<text text-anchor="middle" x="76" y="-119.5" font-family="Helvetica,sans-Serif" font-size="10.00" fill="#000000">l4/sys/__timeout.h</text>
</a>
</g>
</g>
<!-- Node1&#45;&gt;Node7 -->
<g id="edge10" class="edge">
<title>Node1&#45;&gt;Node7</title>
<path fill="none" stroke="#191970" d="M259.2599,-168.4369C221.7552,-158.9335 164.1201,-144.3291 123.5176,-134.0407"/>
<polygon fill="#191970" stroke="#191970" points="124.1379,-130.5873 113.5845,-131.5237 122.4184,-137.3728 124.1379,-130.5873"/>
</g>
<!-- Node4 -->
<g id="node5" class="node">
<title>Node4</title>
<polygon fill="#ffffff" stroke="#bfbfbf" points="359.5,-.5 359.5,-19.5 448.5,-19.5 448.5,-.5 359.5,-.5"/>
<text text-anchor="middle" x="404" y="-7.5" font-family="Helvetica,sans-Serif" font-size="10.00" fill="#000000">l4/sys/linkage.h</text>
</g>
<!-- Node3&#45;&gt;Node4 -->
<g id="edge4" class="edge">
<title>Node3&#45;&gt;Node4</title>
<path fill="none" stroke="#191970" d="M404,-56.2455C404,-48.9382 404,-38.6944 404,-29.7046"/>
<polygon fill="#191970" stroke="#191970" points="407.5001,-29.6426 404,-19.6427 400.5001,-29.6427 407.5001,-29.6426"/>
</g>
<!-- Node5&#45;&gt;Node2 -->
<g id="edge7" class="edge">
<title>Node5&#45;&gt;Node2</title>
<path fill="none" stroke="#191970" d="M162.0422,-112.3733C137.2593,-103.1822 99.7254,-89.2624 72.246,-79.0713"/>
<polygon fill="#191970" stroke="#191970" points="73.2121,-75.6968 62.6191,-75.5011 70.7781,-82.26 73.2121,-75.6968"/>
</g>
<!-- Node5&#45;&gt;Node3 -->
<g id="edge6" class="edge">
<title>Node5&#45;&gt;Node3</title>
<path fill="none" stroke="#191970" d="M225.1317,-112.3733C261.8267,-102.8598 318.0639,-88.2797 357.6651,-78.0127"/>
<polygon fill="#191970" stroke="#191970" points="358.5512,-81.3988 367.3528,-75.5011 356.7944,-74.6228 358.5512,-81.3988"/>
</g>
<!-- Node6&#45;&gt;Node3 -->
<g id="edge9" class="edge">
<title>Node6&#45;&gt;Node3</title>
<path fill="none" stroke="#191970" d="M320.5929,-112.2455C336.379,-103.4928 359.7639,-90.527 377.7587,-80.5496"/>
<polygon fill="#191970" stroke="#191970" points="379.5603,-83.5528 386.6087,-75.6427 376.1659,-77.4308 379.5603,-83.5528"/>
</g>
<!-- Node7&#45;&gt;Node2 -->
<g id="edge11" class="edge">
<title>Node7&#45;&gt;Node2</title>
<path fill="none" stroke="#191970" d="M69.2067,-112.2455C63.7822,-104.4564 56.0339,-93.3308 49.4967,-83.9439"/>
<polygon fill="#191970" stroke="#191970" points="52.3025,-81.8485 43.7154,-75.6427 46.5583,-85.849 52.3025,-81.8485"/>
</g>
<!-- Node8&#45;&gt;Node1 -->
<g id="edge14" class="edge">
<title>Node8&#45;&gt;Node1</title>
<path fill="none" stroke="#191970" d="M341.5939,-224.2455C333.8507,-216.2155 322.688,-204.6394 313.4682,-195.0781"/>
<polygon fill="#191970" stroke="#191970" points="315.7591,-192.4117 306.2983,-187.6427 310.7202,-197.2706 315.7591,-192.4117"/>
</g>
<!-- Node8&#45;&gt;Node2 -->
<g id="edge16" class="edge">
<title>Node8&#45;&gt;Node2</title>
<path fill="none" stroke="#191970" d="M313.8644,-228.6114C232.7917,-216.0091 44.2176,-181.8546 7,-132 -4.2036,-116.9923 7.7519,-97.1334 19.7295,-83.1329"/>
<polygon fill="#191970" stroke="#191970" points="22.4193,-85.3786 26.6094,-75.6475 17.2654,-80.6416 22.4193,-85.3786"/>
</g>
<!-- Node8&#45;&gt;Node3 -->
<g id="edge15" class="edge">
<title>Node8&#45;&gt;Node3</title>
<path fill="none" stroke="#191970" d="M354.7626,-224.2479C361.6527,-206.2025 376.548,-166.3111 387,-132 391.6871,-116.6135 396.1899,-98.9578 399.3825,-85.7813"/>
<polygon fill="#191970" stroke="#191970" points="402.8202,-86.4535 401.7314,-75.9147 396.0106,-84.8322 402.8202,-86.4535"/>
</g>
<!-- Node9&#45;&gt;Node10 -->
<g id="edge18" class="edge">
<title>Node9&#45;&gt;Node10</title>
<path fill="none" stroke="#191970" d="M414.4944,-336.2977C414.7518,-328.3834 415.0698,-318.6043 415.3471,-310.0759"/>
<polygon fill="#191970" stroke="#191970" points="418.8528,-309.9554 415.6798,-299.8469 411.8565,-309.7279 418.8528,-309.9554"/>
</g>
<!-- Node10&#45;&gt;Node1 -->
<g id="edge19" class="edge">
<title>Node10&#45;&gt;Node1</title>
<path fill="none" stroke="#191970" d="M415.6695,-280.3067C414.6997,-266.2937 410.9897,-240.2767 397,-224 383.8019,-208.6442 364.3981,-198.1196 346.1867,-191.0575"/>
<polygon fill="#191970" stroke="#191970" points="347.1205,-187.6738 336.5261,-187.5774 344.748,-194.2595 347.1205,-187.6738"/>
</g>
<!-- Node10&#45;&gt;Node8 -->
<g id="edge20" class="edge">
<title>Node10&#45;&gt;Node8</title>
<path fill="none" stroke="#191970" d="M404.6779,-280.2455C395.0777,-271.9746 381.1108,-259.9416 369.8305,-250.2232"/>
<polygon fill="#191970" stroke="#191970" points="372.053,-247.5182 362.1924,-243.6427 367.484,-252.8214 372.053,-247.5182"/>
</g>
<!-- Node11 -->
<g id="node12" class="node">
<title>Node11</title>
<g id="a_node12"><a xlink:href="err_8h.html" target="_top" xlink:title="Error codes. ">
<polygon fill="#ffffff" stroke="#000000" points="445,-168.5 445,-187.5 513,-187.5 513,-168.5 445,-168.5"/>
<text text-anchor="middle" x="479" y="-175.5" font-family="Helvetica,sans-Serif" font-size="10.00" fill="#000000">l4/sys/err.h</text>
</a>
</g>
</g>
<!-- Node10&#45;&gt;Node11 -->
<g id="edge21" class="edge">
<title>Node10&#45;&gt;Node11</title>
<path fill="none" stroke="#191970" d="M421.3713,-280.4509C431.8325,-261.8533 455.0983,-220.4919 468.652,-196.3964"/>
<polygon fill="#191970" stroke="#191970" points="471.7901,-197.9566 473.6423,-187.5249 465.6891,-194.5247 471.7901,-197.9566"/>
</g>
<!-- Node11&#45;&gt;Node3 -->
<g id="edge22" class="edge">
<title>Node11&#45;&gt;Node3</title>
<path fill="none" stroke="#191970" d="M473.1813,-168.4938C465.2195,-155.5718 450.3887,-131.8023 437,-112 430.6932,-102.6721 423.4224,-92.4807 417.3134,-84.0666"/>
<polygon fill="#191970" stroke="#191970" points="419.9678,-81.7669 411.2411,-75.7591 414.3165,-85.8977 419.9678,-81.7669"/>
</g>
</g>
</svg>
