<?xml version="1.0" encoding="UTF-8" standalone="no"?>
<!DOCTYPE svg PUBLIC "-//W3C//DTD SVG 1.1//EN"
 "http://www.w3.org/Graphics/SVG/1.1/DTD/svg11.dtd">
<!-- Generated by graphviz version 2.40.1 (20161225.0304)
 -->
<!-- Title: l4/sys/ktrace.h Pages: 1 -->
<svg width="559pt" height="476pt"
 viewBox="0.00 0.00 559.43 476.00" xmlns="http://www.w3.org/2000/svg" xmlns:xlink="http://www.w3.org/1999/xlink">
<g id="graph0" class="graph" transform="scale(1 1) rotate(0) translate(4 472)">
<title>l4/sys/ktrace.h</title>
<polygon fill="#ffffff" stroke="transparent" points="-4,4 -4,-472 555.4333,-472 555.4333,4 -4,4"/>
<!-- Node0 -->
<g id="node1" class="node">
<title>Node0</title>
<polygon fill="#bfbfbf" stroke="#000000" points="264,-448.5 264,-467.5 348,-467.5 348,-448.5 264,-448.5"/>
<text text-anchor="middle" x="306" y="-455.5" font-family="Helvetica,sans-Serif" font-size="10.00" fill="#000000">l4/sys/ktrace.h</text>
</g>
<!-- Node1 -->
<g id="node2" class="node">
<title>Node1</title>
<g id="a_node2"><a xlink:href="l4_2sys_2types_8h.html" target="_top" xlink:title="Common L4 ABI Data Types. ">
<polygon fill="#ffffff" stroke="#000000" points="228,-168.5 228,-187.5 308,-187.5 308,-168.5 228,-168.5"/>
<text text-anchor="middle" x="268" y="-175.5" font-family="Helvetica,sans-Serif" font-size="10.00" fill="#000000">l4/sys/types.h</text>
</a>
</g>
</g>
<!-- Node0&#45;&gt;Node1 -->
<g id="edge1" class="edge">
<title>Node0&#45;&gt;Node1</title>
<path fill="none" stroke="#191970" d="M306,-448.4116C306,-429.0538 306,-383.9167 306,-346 306,-346 306,-346 306,-290 306,-255.6118 289.7366,-218.2832 278.489,-196.5791"/>
<polygon fill="#191970" stroke="#191970" points="281.431,-194.6605 273.607,-187.5166 275.2683,-197.9804 281.431,-194.6605"/>
</g>
<!-- Node8 -->
<g id="node9" class="node">
<title>Node8</title>
<polygon fill="#ffffff" stroke="#bfbfbf" points="334,-392.5 334,-411.5 456,-411.5 456,-392.5 334,-392.5"/>
<text text-anchor="middle" x="395" y="-399.5" font-family="Helvetica,sans-Serif" font-size="10.00" fill="#000000">l4/sys/ktrace_events.h</text>
</g>
<!-- Node0&#45;&gt;Node8 -->
<g id="edge12" class="edge">
<title>Node0&#45;&gt;Node8</title>
<path fill="none" stroke="#191970" d="M321.5026,-448.2455C335.158,-439.6534 355.2657,-427.0014 370.9989,-417.1018"/>
<polygon fill="#191970" stroke="#191970" points="373.0751,-419.9307 379.675,-411.6427 369.3471,-414.006 373.0751,-419.9307"/>
</g>
<!-- Node9 -->
<g id="node10" class="node">
<title>Node9</title>
<g id="a_node10"><a xlink:href="____ktrace-impl_8h.html" target="_top" xlink:title="L4 kernel event tracing. ">
<polygon fill="#ffffff" stroke="#000000" points="160,-392.5 160,-411.5 278,-411.5 278,-392.5 160,-392.5"/>
<text text-anchor="middle" x="219" y="-399.5" font-family="Helvetica,sans-Serif" font-size="10.00" fill="#000000">l4/sys/__ktrace&#45;impl.h</text>
</a>
</g>
</g>
<!-- Node0&#45;&gt;Node9 -->
<g id="edge13" class="edge">
<title>Node0&#45;&gt;Node9</title>
<path fill="none" stroke="#191970" d="M290.8458,-448.2455C277.4973,-439.6534 257.8414,-427.0014 242.4617,-417.1018"/>
<polygon fill="#191970" stroke="#191970" points="244.2836,-414.1121 233.9806,-411.6427 240.4949,-419.9982 244.2836,-414.1121"/>
</g>
<!-- Node2 -->
<g id="node3" class="node">
<title>Node2</title>
<g id="a_node3"><a xlink:href="l4_2sys_2l4int_8h.html" target="_top" xlink:title="Fixed sized integer types, generic version. ">
<polygon fill="#ffffff" stroke="#000000" points="392,-56.5 392,-75.5 466,-75.5 466,-56.5 392,-56.5"/>
<text text-anchor="middle" x="429" y="-63.5" font-family="Helvetica,sans-Serif" font-size="10.00" fill="#000000">l4/sys/l4int.h</text>
</a>
</g>
</g>
<!-- Node1&#45;&gt;Node2 -->
<g id="edge2" class="edge">
<title>Node1&#45;&gt;Node2</title>
<path fill="none" stroke="#191970" d="M308.1589,-174.188C381.2362,-166.8441 529.8502,-149.8731 545,-132 568.9258,-103.7733 517.8597,-85.0795 476.0536,-75.0093"/>
<polygon fill="#191970" stroke="#191970" points="476.7504,-71.5783 466.2209,-72.7532 475.1849,-78.401 476.7504,-71.5783"/>
</g>
<!-- Node3 -->
<g id="node4" class="node">
<title>Node3</title>
<g id="a_node4"><a xlink:href="compiler_8h.html" target="_top" xlink:title="L4 compiler related defines. ">
<polygon fill="#ffffff" stroke="#000000" points="71.5,-56.5 71.5,-75.5 166.5,-75.5 166.5,-56.5 71.5,-56.5"/>
<text text-anchor="middle" x="119" y="-63.5" font-family="Helvetica,sans-Serif" font-size="10.00" fill="#000000">l4/sys/compiler.h</text>
</a>
</g>
</g>
<!-- Node1&#45;&gt;Node3 -->
<g id="edge3" class="edge">
<title>Node1&#45;&gt;Node3</title>
<path fill="none" stroke="#191970" d="M251.2892,-168.4611C236.1765,-159.6054 213.5217,-145.7525 195,-132 174.1646,-116.5296 151.9283,-96.7989 136.9272,-82.9562"/>
<polygon fill="#191970" stroke="#191970" points="139.0948,-80.1921 129.3924,-75.9359 134.323,-85.3136 139.0948,-80.1921"/>
</g>
<!-- Node5 -->
<g id="node6" class="node">
<title>Node5</title>
<g id="a_node6"><a xlink:href="l4_2sys_2consts_8h.html" target="_top" xlink:title="Common constants. ">
<polygon fill="#ffffff" stroke="#000000" points="330,-112.5 330,-131.5 416,-131.5 416,-112.5 330,-112.5"/>
<text text-anchor="middle" x="373" y="-119.5" font-family="Helvetica,sans-Serif" font-size="10.00" fill="#000000">l4/sys/consts.h</text>
</a>
</g>
</g>
<!-- Node1&#45;&gt;Node5 -->
<g id="edge5" class="edge">
<title>Node1&#45;&gt;Node5</title>
<path fill="none" stroke="#191970" d="M286.2896,-168.2455C302.7762,-159.4527 327.2352,-146.4079 345.9765,-136.4125"/>
<polygon fill="#191970" stroke="#191970" points="347.7435,-139.4368 354.92,-131.6427 344.4494,-133.2604 347.7435,-139.4368"/>
</g>
<!-- Node6 -->
<g id="node7" class="node">
<title>Node6</title>
<g id="a_node7"><a xlink:href="____l4__fpage_8h_source.html" target="_top" xlink:title="l4/sys/__l4_fpage.h">
<polygon fill="#ffffff" stroke="#000000" points="204,-112.5 204,-131.5 312,-131.5 312,-112.5 204,-112.5"/>
<text text-anchor="middle" x="258" y="-119.5" font-family="Helvetica,sans-Serif" font-size="10.00" fill="#000000">l4/sys/__l4_fpage.h</text>
</a>
</g>
</g>
<!-- Node1&#45;&gt;Node6 -->
<g id="edge8" class="edge">
<title>Node1&#45;&gt;Node6</title>
<path fill="none" stroke="#191970" d="M266.2581,-168.2455C264.9533,-160.9382 263.124,-150.6944 261.5187,-141.7046"/>
<polygon fill="#191970" stroke="#191970" points="264.9254,-140.8717 259.7219,-131.6427 258.0344,-142.1022 264.9254,-140.8717"/>
</g>
<!-- Node7 -->
<g id="node8" class="node">
<title>Node7</title>
<g id="a_node8"><a xlink:href="____timeout_8h_source.html" target="_top" xlink:title="l4/sys/__timeout.h">
<polygon fill="#ffffff" stroke="#000000" points="434.5,-112.5 434.5,-131.5 535.5,-131.5 535.5,-112.5 434.5,-112.5"/>
<text text-anchor="middle" x="485" y="-119.5" font-family="Helvetica,sans-Serif" font-size="10.00" fill="#000000">l4/sys/__timeout.h</text>
</a>
</g>
</g>
<!-- Node1&#45;&gt;Node7 -->
<g id="edge10" class="edge">
<title>Node1&#45;&gt;Node7</title>
<path fill="none" stroke="#191970" d="M305.3036,-168.3733C342.1685,-158.8598 398.666,-144.2797 438.4506,-134.0127"/>
<polygon fill="#191970" stroke="#191970" points="439.375,-137.3889 448.1831,-131.5011 437.6258,-130.611 439.375,-137.3889"/>
</g>
<!-- Node4 -->
<g id="node5" class="node">
<title>Node4</title>
<polygon fill="#ffffff" stroke="#bfbfbf" points="74.5,-.5 74.5,-19.5 163.5,-19.5 163.5,-.5 74.5,-.5"/>
<text text-anchor="middle" x="119" y="-7.5" font-family="Helvetica,sans-Serif" font-size="10.00" fill="#000000">l4/sys/linkage.h</text>
</g>
<!-- Node3&#45;&gt;Node4 -->
<g id="edge4" class="edge">
<title>Node3&#45;&gt;Node4</title>
<path fill="none" stroke="#191970" d="M119,-56.2455C119,-48.9382 119,-38.6944 119,-29.7046"/>
<polygon fill="#191970" stroke="#191970" points="122.5001,-29.6426 119,-19.6427 115.5001,-29.6427 122.5001,-29.6426"/>
</g>
<!-- Node5&#45;&gt;Node2 -->
<g id="edge7" class="edge">
<title>Node5&#45;&gt;Node2</title>
<path fill="none" stroke="#191970" d="M382.7545,-112.2455C390.8648,-104.1352 402.5925,-92.4075 412.2081,-82.7919"/>
<polygon fill="#191970" stroke="#191970" points="414.7611,-85.1887 419.3573,-75.6427 409.8113,-80.2389 414.7611,-85.1887"/>
</g>
<!-- Node5&#45;&gt;Node3 -->
<g id="edge6" class="edge">
<title>Node5&#45;&gt;Node3</title>
<path fill="none" stroke="#191970" d="M329.9124,-112.5004C286.3978,-102.9066 219.0939,-88.0679 172.2602,-77.7424"/>
<polygon fill="#191970" stroke="#191970" points="172.8181,-74.2814 162.299,-75.5462 171.3109,-81.1173 172.8181,-74.2814"/>
</g>
<!-- Node6&#45;&gt;Node3 -->
<g id="edge9" class="edge">
<title>Node6&#45;&gt;Node3</title>
<path fill="none" stroke="#191970" d="M234.105,-112.3733C211.4918,-103.2629 177.3458,-89.5062 152.1127,-79.3404"/>
<polygon fill="#191970" stroke="#191970" points="153.1666,-75.9917 142.5831,-75.5011 150.5507,-82.4845 153.1666,-75.9917"/>
</g>
<!-- Node7&#45;&gt;Node2 -->
<g id="edge11" class="edge">
<title>Node7&#45;&gt;Node2</title>
<path fill="none" stroke="#191970" d="M475.2455,-112.2455C467.1352,-104.1352 455.4075,-92.4075 445.7919,-82.7919"/>
<polygon fill="#191970" stroke="#191970" points="448.1887,-80.2389 438.6427,-75.6427 443.2389,-85.1887 448.1887,-80.2389"/>
</g>
<!-- Node9&#45;&gt;Node1 -->
<g id="edge14" class="edge">
<title>Node9&#45;&gt;Node1</title>
<path fill="none" stroke="#191970" d="M222.295,-392.21C225.3355,-382.9521 229.8439,-368.6343 233,-356 247.2021,-299.1476 259.2485,-230.9085 264.7705,-197.8667"/>
<polygon fill="#191970" stroke="#191970" points="268.2694,-198.1601 266.4445,-187.7236 261.3628,-197.0202 268.2694,-198.1601"/>
</g>
<!-- Node10 -->
<g id="node11" class="node">
<title>Node10</title>
<g id="a_node11"><a xlink:href="kdebug_8h_source.html" target="_top" xlink:title="l4/sys/kdebug.h">
<polygon fill="#ffffff" stroke="#000000" points="135.5,-336.5 135.5,-355.5 224.5,-355.5 224.5,-336.5 135.5,-336.5"/>
<text text-anchor="middle" x="180" y="-343.5" font-family="Helvetica,sans-Serif" font-size="10.00" fill="#000000">l4/sys/kdebug.h</text>
</a>
</g>
</g>
<!-- Node9&#45;&gt;Node10 -->
<g id="edge15" class="edge">
<title>Node9&#45;&gt;Node10</title>
<path fill="none" stroke="#191970" d="M212.2067,-392.2455C206.7822,-384.4564 199.0339,-373.3308 192.4967,-363.9439"/>
<polygon fill="#191970" stroke="#191970" points="195.3025,-361.8485 186.7154,-355.6427 189.5583,-365.849 195.3025,-361.8485"/>
</g>
<!-- Node10&#45;&gt;Node3 -->
<g id="edge16" class="edge">
<title>Node10&#45;&gt;Node3</title>
<path fill="none" stroke="#191970" d="M135.0427,-338.2902C81.728,-326.27 0,-297.4896 0,-234 0,-234 0,-234 0,-178 0,-130.6726 50.5294,-97.4677 85.7357,-80.0761"/>
<polygon fill="#191970" stroke="#191970" points="87.6651,-83.035 95.2046,-75.5915 84.6688,-76.7087 87.6651,-83.035"/>
</g>
<!-- Node10&#45;&gt;Node5 -->
<g id="edge17" class="edge">
<title>Node10&#45;&gt;Node5</title>
<path fill="none" stroke="#191970" d="M188.3759,-336.4126C209.8417,-311.8266 268.5434,-244.4931 317,-188 330.9644,-171.7196 346.7656,-153.0763 358.0142,-139.7661"/>
<polygon fill="#191970" stroke="#191970" points="360.906,-141.7665 364.6837,-131.868 355.5578,-137.2502 360.906,-141.7665"/>
</g>
<!-- Node11 -->
<g id="node12" class="node">
<title>Node11</title>
<g id="a_node12"><a xlink:href="l4_2sys_2ipc_8h.html" target="_top" xlink:title="Common IPC interface. ">
<polygon fill="#ffffff" stroke="#000000" points="138,-280.5 138,-299.5 206,-299.5 206,-280.5 138,-280.5"/>
<text text-anchor="middle" x="172" y="-287.5" font-family="Helvetica,sans-Serif" font-size="10.00" fill="#000000">l4/sys/ipc.h</text>
</a>
</g>
</g>
<!-- Node10&#45;&gt;Node11 -->
<g id="edge18" class="edge">
<title>Node10&#45;&gt;Node11</title>
<path fill="none" stroke="#191970" d="M178.6065,-336.2455C177.5626,-328.9382 176.0992,-318.6944 174.8149,-309.7046"/>
<polygon fill="#191970" stroke="#191970" points="178.2566,-309.0472 173.3775,-299.6427 171.327,-310.0372 178.2566,-309.0472"/>
</g>
<!-- Node11&#45;&gt;Node1 -->
<g id="edge19" class="edge">
<title>Node11&#45;&gt;Node1</title>
<path fill="none" stroke="#191970" d="M180.1849,-280.4509C196.4091,-261.5227 232.8451,-219.014 253.3189,-195.1279"/>
<polygon fill="#191970" stroke="#191970" points="255.9853,-197.3953 259.8358,-187.5249 250.6705,-192.8397 255.9853,-197.3953"/>
</g>
<!-- Node12 -->
<g id="node13" class="node">
<title>Node12</title>
<g id="a_node13"><a xlink:href="l4_2sys_2utcb_8h.html" target="_top" xlink:title="UTCB definitions. ">
<polygon fill="#ffffff" stroke="#000000" points="128,-224.5 128,-243.5 202,-243.5 202,-224.5 128,-224.5"/>
<text text-anchor="middle" x="165" y="-231.5" font-family="Helvetica,sans-Serif" font-size="10.00" fill="#000000">l4/sys/utcb.h</text>
</a>
</g>
</g>
<!-- Node11&#45;&gt;Node12 -->
<g id="edge20" class="edge">
<title>Node11&#45;&gt;Node12</title>
<path fill="none" stroke="#191970" d="M170.7807,-280.2455C169.8673,-272.9382 168.5868,-262.6944 167.4631,-253.7046"/>
<polygon fill="#191970" stroke="#191970" points="170.9187,-253.1313 166.2053,-243.6427 163.9728,-253.9996 170.9187,-253.1313"/>
</g>
<!-- Node13 -->
<g id="node14" class="node">
<title>Node13</title>
<g id="a_node14"><a xlink:href="err_8h.html" target="_top" xlink:title="Error codes. ">
<polygon fill="#ffffff" stroke="#000000" points="28,-168.5 28,-187.5 96,-187.5 96,-168.5 28,-168.5"/>
<text text-anchor="middle" x="62" y="-175.5" font-family="Helvetica,sans-Serif" font-size="10.00" fill="#000000">l4/sys/err.h</text>
</a>
</g>
</g>
<!-- Node11&#45;&gt;Node13 -->
<g id="edge24" class="edge">
<title>Node11&#45;&gt;Node13</title>
<path fill="none" stroke="#191970" d="M159.7741,-280.2379C148.739,-271.2318 132.2511,-257.2837 119,-244 103.5627,-228.5248 87.4084,-209.5128 76.2557,-195.8753"/>
<polygon fill="#191970" stroke="#191970" points="78.7177,-193.3536 69.7069,-187.7808 73.2757,-197.7565 78.7177,-193.3536"/>
</g>
<!-- Node12&#45;&gt;Node1 -->
<g id="edge21" class="edge">
<title>Node12&#45;&gt;Node1</title>
<path fill="none" stroke="#191970" d="M182.9412,-224.2455C199.04,-215.4928 222.8879,-202.527 241.2391,-192.5496"/>
<polygon fill="#191970" stroke="#191970" points="243.1507,-195.4942 250.2644,-187.6427 239.8071,-189.3444 243.1507,-195.4942"/>
</g>
<!-- Node12&#45;&gt;Node2 -->
<g id="edge23" class="edge">
<title>Node12&#45;&gt;Node2</title>
<path fill="none" stroke="#191970" d="M164.2058,-224.4079C162.8711,-201.3691 162.9639,-142.5643 195,-112 221.2647,-86.9419 321.3407,-74.6292 381.7857,-69.3585"/>
<polygon fill="#191970" stroke="#191970" points="382.184,-72.8375 391.8563,-68.5134 381.5986,-65.862 382.184,-72.8375"/>
</g>
<!-- Node12&#45;&gt;Node3 -->
<g id="edge22" class="edge">
<title>Node12&#45;&gt;Node3</title>
<path fill="none" stroke="#191970" d="M162.395,-224.4862C155.092,-197.8144 134.3092,-121.9117 124.3927,-85.695"/>
<polygon fill="#191970" stroke="#191970" points="127.7077,-84.5485 121.691,-75.8279 120.9562,-86.3972 127.7077,-84.5485"/>
</g>
<!-- Node13&#45;&gt;Node3 -->
<g id="edge25" class="edge">
<title>Node13&#45;&gt;Node3</title>
<path fill="none" stroke="#191970" d="M64.6325,-168.2525C68.3973,-155.0569 75.9856,-130.9785 86,-112 91.1874,-102.1692 98.2319,-92.0468 104.4803,-83.8091"/>
<polygon fill="#191970" stroke="#191970" points="107.4109,-85.7436 110.8224,-75.7131 101.9003,-81.4269 107.4109,-85.7436"/>
</g>
</g>
</svg>
