<?xml version="1.0" encoding="UTF-8" standalone="no"?>
<!DOCTYPE svg PUBLIC "-//W3C//DTD SVG 1.1//EN"
 "http://www.w3.org/Graphics/SVG/1.1/DTD/svg11.dtd">
<!-- Generated by graphviz version 2.40.1 (20161225.0304)
 -->
<!-- Title: l4/re/util/kumem_alloc Pages: 1 -->
<svg width="1894pt" height="1114pt"
 viewBox="0.00 0.00 1894.00 1114.00" xmlns="http://www.w3.org/2000/svg" xmlns:xlink="http://www.w3.org/1999/xlink">
<g id="graph0" class="graph" transform="scale(1 1) rotate(0) translate(4 1110)">
<title>l4/re/util/kumem_alloc</title>
<polygon fill="#ffffff" stroke="transparent" points="-4,4 -4,-1110 1890,-1110 1890,4 -4,4"/>
<!-- Node0 -->
<g id="node1" class="node">
<title>Node0</title>
<polygon fill="#bfbfbf" stroke="#000000" points="871.5,-1086.5 871.5,-1105.5 988.5,-1105.5 988.5,-1086.5 871.5,-1086.5"/>
<text text-anchor="middle" x="930" y="-1093.5" font-family="Helvetica,sans-Serif" font-size="10.00" fill="#000000">l4/re/util/kumem_alloc</text>
</g>
<!-- Node1 -->
<g id="node2" class="node">
<title>Node1</title>
<g id="a_node2"><a xlink:href="env.html" target="_top" xlink:title="Environment interface. ">
<polygon fill="#ffffff" stroke="#000000" points="901,-1030.5 901,-1049.5 959,-1049.5 959,-1030.5 901,-1030.5"/>
<text text-anchor="middle" x="930" y="-1037.5" font-family="Helvetica,sans-Serif" font-size="10.00" fill="#000000">l4/re/env</text>
</a>
</g>
</g>
<!-- Node0&#45;&gt;Node1 -->
<g id="edge1" class="edge">
<title>Node0&#45;&gt;Node1</title>
<path fill="none" stroke="#191970" d="M930,-1086.2455C930,-1078.9382 930,-1068.6944 930,-1059.7046"/>
<polygon fill="#191970" stroke="#191970" points="933.5001,-1059.6426 930,-1049.6427 926.5001,-1059.6427 933.5001,-1059.6426"/>
</g>
<!-- Node2 -->
<g id="node3" class="node">
<title>Node2</title>
<g id="a_node3"><a xlink:href="l4_2sys_2types_8h.html" target="_top" xlink:title="Common L4 ABI Data Types. ">
<polygon fill="#ffffff" stroke="#000000" points="831,-168.5 831,-187.5 911,-187.5 911,-168.5 831,-168.5"/>
<text text-anchor="middle" x="871" y="-175.5" font-family="Helvetica,sans-Serif" font-size="10.00" fill="#000000">l4/sys/types.h</text>
</a>
</g>
</g>
<!-- Node1&#45;&gt;Node2 -->
<g id="edge2" class="edge">
<title>Node1&#45;&gt;Node2</title>
<path fill="none" stroke="#191970" d="M900.8896,-1039.6283C743.3609,-1037.2421 0,-1021.052 0,-928 0,-928 0,-928 0,-536 0,-354.9261 86.684,-269.2997 262,-224 367.2187,-196.8126 694.4068,-183.671 820.6252,-179.5131"/>
<polygon fill="#191970" stroke="#191970" points="820.903,-183.006 830.7842,-179.1836 820.676,-176.0097 820.903,-183.006"/>
</g>
<!-- Node9 -->
<g id="node10" class="node">
<title>Node9</title>
<g id="a_node10"><a xlink:href="rm.html" target="_top" xlink:title="Region mapper interface. ">
<polygon fill="#ffffff" stroke="#000000" points="468.5,-806.5 468.5,-825.5 521.5,-825.5 521.5,-806.5 468.5,-806.5"/>
<text text-anchor="middle" x="495" y="-813.5" font-family="Helvetica,sans-Serif" font-size="10.00" fill="#000000">l4/re/rm</text>
</a>
</g>
</g>
<!-- Node1&#45;&gt;Node9 -->
<g id="edge13" class="edge">
<title>Node1&#45;&gt;Node9</title>
<path fill="none" stroke="#191970" d="M900.729,-1034.7107C866.9796,-1027.9675 810.3314,-1014.6458 765,-994 663.66,-947.8455 557.2822,-866.3651 514.5008,-832"/>
<polygon fill="#191970" stroke="#191970" points="516.5618,-829.1654 506.5866,-825.5952 512.1582,-834.6068 516.5618,-829.1654"/>
</g>
<!-- Node30 -->
<g id="node31" class="node">
<title>Node30</title>
<g id="a_node31"><a xlink:href="re_2consts.html" target="_top" xlink:title="Constants. ">
<polygon fill="#ffffff" stroke="#000000" points="1347.5,-750.5 1347.5,-769.5 1418.5,-769.5 1418.5,-750.5 1347.5,-750.5"/>
<text text-anchor="middle" x="1383" y="-757.5" font-family="Helvetica,sans-Serif" font-size="10.00" fill="#000000">l4/re/consts</text>
</a>
</g>
</g>
<!-- Node1&#45;&gt;Node30 -->
<g id="edge141" class="edge">
<title>Node1&#45;&gt;Node30</title>
<path fill="none" stroke="#191970" d="M959.2104,-1038.8707C1057.4825,-1034.2886 1370,-1013.0323 1370,-928 1370,-928 1370,-928 1370,-872 1370,-839.3457 1375.52,-801.6911 1379.3661,-779.4184"/>
<polygon fill="#191970" stroke="#191970" points="1382.8165,-780.0059 1381.1374,-769.545 1375.9265,-778.7698 1382.8165,-780.0059"/>
</g>
<!-- Node31 -->
<g id="node32" class="node">
<title>Node31</title>
<g id="a_node32"><a xlink:href="env_8h.html" target="_top" xlink:title="Environment interface. ">
<polygon fill="#ffffff" stroke="#000000" points="1579,-342 1579,-361 1645,-361 1645,-342 1579,-342"/>
<text text-anchor="middle" x="1612" y="-349" font-family="Helvetica,sans-Serif" font-size="10.00" fill="#000000">l4/re/env.h</text>
</a>
</g>
</g>
<!-- Node1&#45;&gt;Node31 -->
<g id="edge142" class="edge">
<title>Node1&#45;&gt;Node31</title>
<path fill="none" stroke="#191970" d="M959.0618,-1038.4545C1090.9744,-1031.0611 1627,-996.7864 1627,-928 1627,-928 1627,-928 1627,-474.5 1627,-437.729 1620.3128,-395.2262 1615.8684,-371.039"/>
<polygon fill="#191970" stroke="#191970" points="1619.2696,-370.1898 1613.961,-361.0209 1612.3932,-371.4991 1619.2696,-370.1898"/>
</g>
<!-- Node37 -->
<g id="node38" class="node">
<title>Node37</title>
<g id="a_node38"><a xlink:href="parent.html" target="_top" xlink:title="Parent interface. ">
<polygon fill="#ffffff" stroke="#000000" points="632.5,-750.5 632.5,-769.5 703.5,-769.5 703.5,-750.5 632.5,-750.5"/>
<text text-anchor="middle" x="668" y="-757.5" font-family="Helvetica,sans-Serif" font-size="10.00" fill="#000000">l4/re/parent</text>
</a>
</g>
</g>
<!-- Node1&#45;&gt;Node37 -->
<g id="edge99" class="edge">
<title>Node1&#45;&gt;Node37</title>
<path fill="none" stroke="#191970" d="M900.8857,-1032.6569C857.0068,-1019.6411 779,-988.0564 779,-928 779,-928 779,-928 779,-872 779,-826.029 731.2396,-792.1769 698.376,-774.325"/>
<polygon fill="#191970" stroke="#191970" points="699.6249,-771.0291 689.1395,-769.5099 696.3889,-777.2362 699.6249,-771.0291"/>
</g>
<!-- Node38 -->
<g id="node39" class="node">
<title>Node38</title>
<g id="a_node39"><a xlink:href="mem__alloc.html" target="_top" xlink:title="Memory allocator interface. ">
<polygon fill="#ffffff" stroke="#000000" points="884.5,-806.5 884.5,-825.5 975.5,-825.5 975.5,-806.5 884.5,-806.5"/>
<text text-anchor="middle" x="930" y="-813.5" font-family="Helvetica,sans-Serif" font-size="10.00" fill="#000000">l4/re/mem_alloc</text>
</a>
</g>
</g>
<!-- Node1&#45;&gt;Node38 -->
<g id="edge103" class="edge">
<title>Node1&#45;&gt;Node38</title>
<path fill="none" stroke="#191970" d="M930,-1030.375C930,-996.4851 930,-882.2317 930,-835.8332"/>
<polygon fill="#191970" stroke="#191970" points="933.5001,-835.5891 930,-825.5891 926.5001,-835.5892 933.5001,-835.5891"/>
</g>
<!-- Node42 -->
<g id="node43" class="node">
<title>Node42</title>
<g id="a_node43"><a xlink:href="log.html" target="_top" xlink:title="Log interface. ">
<polygon fill="#ffffff" stroke="#000000" points="972.5,-974.5 972.5,-993.5 1027.5,-993.5 1027.5,-974.5 972.5,-974.5"/>
<text text-anchor="middle" x="1000" y="-981.5" font-family="Helvetica,sans-Serif" font-size="10.00" fill="#000000">l4/re/log</text>
</a>
</g>
</g>
<!-- Node1&#45;&gt;Node42 -->
<g id="edge116" class="edge">
<title>Node1&#45;&gt;Node42</title>
<path fill="none" stroke="#191970" d="M942.1931,-1030.2455C952.6321,-1021.8943 967.8655,-1009.7076 980.074,-999.9408"/>
<polygon fill="#191970" stroke="#191970" points="982.3244,-1002.6227 987.9467,-993.6427 977.9515,-997.1566 982.3244,-1002.6227"/>
</g>
<!-- Node3 -->
<g id="node4" class="node">
<title>Node3</title>
<g id="a_node4"><a xlink:href="l4_2sys_2l4int_8h.html" target="_top" xlink:title="Fixed sized integer types, generic version. ">
<polygon fill="#ffffff" stroke="#000000" points="834,-56.5 834,-75.5 908,-75.5 908,-56.5 834,-56.5"/>
<text text-anchor="middle" x="871" y="-63.5" font-family="Helvetica,sans-Serif" font-size="10.00" fill="#000000">l4/sys/l4int.h</text>
</a>
</g>
</g>
<!-- Node2&#45;&gt;Node3 -->
<g id="edge3" class="edge">
<title>Node2&#45;&gt;Node3</title>
<path fill="none" stroke="#191970" d="M871,-168.4509C871,-150.184 871,-109.9553 871,-85.6976"/>
<polygon fill="#191970" stroke="#191970" points="874.5001,-85.5249 871,-75.5249 867.5001,-85.5249 874.5001,-85.5249"/>
</g>
<!-- Node4 -->
<g id="node5" class="node">
<title>Node4</title>
<g id="a_node5"><a xlink:href="compiler_8h.html" target="_top" xlink:title="L4 compiler related defines. ">
<polygon fill="#ffffff" stroke="#000000" points="1452.5,-56.5 1452.5,-75.5 1547.5,-75.5 1547.5,-56.5 1452.5,-56.5"/>
<text text-anchor="middle" x="1500" y="-63.5" font-family="Helvetica,sans-Serif" font-size="10.00" fill="#000000">l4/sys/compiler.h</text>
</a>
</g>
</g>
<!-- Node2&#45;&gt;Node4 -->
<g id="edge4" class="edge">
<title>Node2&#45;&gt;Node4</title>
<path fill="none" stroke="#191970" d="M876.0943,-168.2646C884.5782,-153.1832 903.1547,-124.6 928,-112 973.0305,-89.1633 1305.4217,-73.6493 1441.8322,-68.1807"/>
<polygon fill="#191970" stroke="#191970" points="1442.2326,-71.6677 1452.0859,-67.7738 1441.955,-64.6732 1442.2326,-71.6677"/>
</g>
<!-- Node6 -->
<g id="node7" class="node">
<title>Node6</title>
<g id="a_node7"><a xlink:href="l4_2sys_2consts_8h.html" target="_top" xlink:title="Common constants. ">
<polygon fill="#ffffff" stroke="#000000" points="1262,-112.5 1262,-131.5 1348,-131.5 1348,-112.5 1262,-112.5"/>
<text text-anchor="middle" x="1305" y="-119.5" font-family="Helvetica,sans-Serif" font-size="10.00" fill="#000000">l4/sys/consts.h</text>
</a>
</g>
</g>
<!-- Node2&#45;&gt;Node6 -->
<g id="edge6" class="edge">
<title>Node2&#45;&gt;Node6</title>
<path fill="none" stroke="#191970" d="M911.0518,-172.832C989.5724,-162.7003 1163.7349,-140.2278 1251.8048,-128.8639"/>
<polygon fill="#191970" stroke="#191970" points="1252.3798,-132.3188 1261.8497,-127.5678 1251.484,-125.3764 1252.3798,-132.3188"/>
</g>
<!-- Node7 -->
<g id="node8" class="node">
<title>Node7</title>
<g id="a_node8"><a xlink:href="____l4__fpage_8h_source.html" target="_top" xlink:title="l4/sys/__l4_fpage.h">
<polygon fill="#ffffff" stroke="#000000" points="937,-112.5 937,-131.5 1045,-131.5 1045,-112.5 937,-112.5"/>
<text text-anchor="middle" x="991" y="-119.5" font-family="Helvetica,sans-Serif" font-size="10.00" fill="#000000">l4/sys/__l4_fpage.h</text>
</a>
</g>
</g>
<!-- Node2&#45;&gt;Node7 -->
<g id="edge9" class="edge">
<title>Node2&#45;&gt;Node7</title>
<path fill="none" stroke="#191970" d="M891.6287,-168.3733C910.8919,-159.3838 939.8486,-145.8706 961.5419,-135.7471"/>
<polygon fill="#191970" stroke="#191970" points="963.0587,-138.9017 970.6405,-131.5011 960.0985,-132.5584 963.0587,-138.9017"/>
</g>
<!-- Node8 -->
<g id="node9" class="node">
<title>Node8</title>
<g id="a_node9"><a xlink:href="____timeout_8h_source.html" target="_top" xlink:title="l4/sys/__timeout.h">
<polygon fill="#ffffff" stroke="#000000" points="741.5,-112.5 741.5,-131.5 842.5,-131.5 842.5,-112.5 741.5,-112.5"/>
<text text-anchor="middle" x="792" y="-119.5" font-family="Helvetica,sans-Serif" font-size="10.00" fill="#000000">l4/sys/__timeout.h</text>
</a>
</g>
</g>
<!-- Node2&#45;&gt;Node8 -->
<g id="edge11" class="edge">
<title>Node2&#45;&gt;Node8</title>
<path fill="none" stroke="#191970" d="M857.2393,-168.2455C845.3448,-159.814 827.935,-147.4729 814.0915,-137.6598"/>
<polygon fill="#191970" stroke="#191970" points="815.7854,-134.5704 805.6031,-131.6427 811.7372,-140.2811 815.7854,-134.5704"/>
</g>
<!-- Node5 -->
<g id="node6" class="node">
<title>Node5</title>
<polygon fill="#ffffff" stroke="#bfbfbf" points="1455.5,-.5 1455.5,-19.5 1544.5,-19.5 1544.5,-.5 1455.5,-.5"/>
<text text-anchor="middle" x="1500" y="-7.5" font-family="Helvetica,sans-Serif" font-size="10.00" fill="#000000">l4/sys/linkage.h</text>
</g>
<!-- Node4&#45;&gt;Node5 -->
<g id="edge5" class="edge">
<title>Node4&#45;&gt;Node5</title>
<path fill="none" stroke="#191970" d="M1500,-56.2455C1500,-48.9382 1500,-38.6944 1500,-29.7046"/>
<polygon fill="#191970" stroke="#191970" points="1503.5001,-29.6426 1500,-19.6427 1496.5001,-29.6427 1503.5001,-29.6426"/>
</g>
<!-- Node6&#45;&gt;Node3 -->
<g id="edge8" class="edge">
<title>Node6&#45;&gt;Node3</title>
<path fill="none" stroke="#191970" d="M1261.7997,-116.4258C1179.9862,-105.8692 1003.0531,-83.0391 918.2251,-72.0936"/>
<polygon fill="#191970" stroke="#191970" points="918.4709,-68.5963 908.1051,-70.7878 917.575,-75.5388 918.4709,-68.5963"/>
</g>
<!-- Node6&#45;&gt;Node4 -->
<g id="edge7" class="edge">
<title>Node6&#45;&gt;Node4</title>
<path fill="none" stroke="#191970" d="M1338.5217,-112.3733C1371.3683,-102.9404 1421.5595,-88.5265 1457.2578,-78.2747"/>
<polygon fill="#191970" stroke="#191970" points="1458.2703,-81.6255 1466.9157,-75.5011 1456.3381,-74.8974 1458.2703,-81.6255"/>
</g>
<!-- Node7&#45;&gt;Node4 -->
<g id="edge10" class="edge">
<title>Node7&#45;&gt;Node4</title>
<path fill="none" stroke="#191970" d="M1045.4719,-116.007C1142.197,-105.3654 1343.057,-83.2668 1442.15,-72.3646"/>
<polygon fill="#191970" stroke="#191970" points="1442.7218,-75.8229 1452.279,-71.2502 1441.9562,-68.8649 1442.7218,-75.8229"/>
</g>
<!-- Node8&#45;&gt;Node3 -->
<g id="edge12" class="edge">
<title>Node8&#45;&gt;Node3</title>
<path fill="none" stroke="#191970" d="M805.7607,-112.2455C817.6552,-103.814 835.065,-91.4729 848.9085,-81.6598"/>
<polygon fill="#191970" stroke="#191970" points="851.2628,-84.2811 857.3969,-75.6427 847.2146,-78.5704 851.2628,-84.2811"/>
</g>
<!-- Node9&#45;&gt;Node2 -->
<g id="edge14" class="edge">
<title>Node9&#45;&gt;Node2</title>
<path fill="none" stroke="#191970" d="M468.4718,-814.6637C376.3671,-809.3119 76,-785.6031 76,-704 76,-704 76,-704 76,-648 76,-568.8661 116,-553.6339 116,-474.5 116,-474.5 116,-474.5 116,-351.5 116,-206.4272 652.1679,-182.6502 820.8381,-178.7596"/>
<polygon fill="#191970" stroke="#191970" points="821.0193,-182.2566 830.941,-178.5404 820.8674,-175.2582 821.0193,-182.2566"/>
</g>
<!-- Node9&#45;&gt;Node3 -->
<g id="edge15" class="edge">
<title>Node9&#45;&gt;Node3</title>
<path fill="none" stroke="#191970" d="M468.3277,-814.7472C392.9377,-810.8958 179.6335,-797.7721 116,-770 74.3795,-751.8352 38,-749.4117 38,-704 38,-704 38,-704 38,-536 38,-452.4536 2,-435.0464 2,-351.5 2,-351.5 2,-351.5 2,-178 2,-116.7424 64.1345,-128.9515 123,-112 190.0669,-92.6868 670.1911,-73.433 823.8379,-67.7069"/>
<polygon fill="#191970" stroke="#191970" points="824.0395,-71.2019 833.9029,-67.3338 823.7801,-64.2067 824.0395,-71.2019"/>
</g>
<!-- Node10 -->
<g id="node11" class="node">
<title>Node10</title>
<g id="a_node11"><a xlink:href="capability.html" target="_top" xlink:title="L4::Cap related definitions. ">
<polygon fill="#ffffff" stroke="#000000" points="948,-694.5 948,-713.5 1038,-713.5 1038,-694.5 948,-694.5"/>
<text text-anchor="middle" x="993" y="-701.5" font-family="Helvetica,sans-Serif" font-size="10.00" fill="#000000">l4/sys/capability</text>
</a>
</g>
</g>
<!-- Node9&#45;&gt;Node10 -->
<g id="edge16" class="edge">
<title>Node9&#45;&gt;Node10</title>
<path fill="none" stroke="#191970" d="M521.5208,-811.855C567.4652,-804.515 664.741,-788.2719 746,-770 818.52,-753.6932 901.8568,-730.4783 950.8263,-716.3711"/>
<polygon fill="#191970" stroke="#191970" points="951.809,-719.7304 960.4432,-713.5903 949.8645,-713.0058 951.809,-719.7304"/>
</g>
<!-- Node18 -->
<g id="node19" class="node">
<title>Node18</title>
<g id="a_node19"><a xlink:href="types.html" target="_top" xlink:title="cxx/types">
<polygon fill="#ffffff" stroke="#000000" points="495.5,-342 495.5,-361 556.5,-361 556.5,-342 495.5,-342"/>
<text text-anchor="middle" x="526" y="-349" font-family="Helvetica,sans-Serif" font-size="10.00" fill="#000000">cxx/types</text>
</a>
</g>
</g>
<!-- Node9&#45;&gt;Node18 -->
<g id="edge75" class="edge">
<title>Node9&#45;&gt;Node18</title>
<path fill="none" stroke="#191970" d="M468.1023,-813.4194C409.4651,-807.4581 272.0889,-791.5723 231,-770 194.0836,-750.6183 167.9655,-734.9135 176,-694 203.4376,-554.2819 192.8321,-483.9053 310,-403 338.0888,-383.6045 430.6756,-366.3991 485.0872,-357.6348"/>
<polygon fill="#191970" stroke="#191970" points="485.7755,-361.0695 495.1043,-356.0472 484.6796,-354.1558 485.7755,-361.0695"/>
</g>
<!-- Node23 -->
<g id="node24" class="node">
<title>Node23</title>
<g id="a_node24"><a xlink:href="ipc__iface.html" target="_top" xlink:title="Interface Definition Language. ">
<polygon fill="#ffffff" stroke="#000000" points="603.5,-582.5 603.5,-601.5 680.5,-601.5 680.5,-582.5 603.5,-582.5"/>
<text text-anchor="middle" x="642" y="-589.5" font-family="Helvetica,sans-Serif" font-size="10.00" fill="#000000">cxx/ipc_iface</text>
</a>
</g>
</g>
<!-- Node9&#45;&gt;Node23 -->
<g id="edge71" class="edge">
<title>Node9&#45;&gt;Node23</title>
<path fill="none" stroke="#191970" d="M506.4581,-806.1555C516.3336,-797.3143 530.6004,-783.6585 541,-770 581.7683,-716.4561 617.4981,-644.705 633.3284,-610.9987"/>
<polygon fill="#191970" stroke="#191970" points="636.5523,-612.3662 637.5859,-601.8219 630.2023,-609.4202 636.5523,-612.3662"/>
</g>
<!-- Node27 -->
<g id="node28" class="node">
<title>Node27</title>
<g id="a_node28"><a xlink:href="protocols_8h.html" target="_top" xlink:title="L4Re Protocol Constants (C version) ">
<polygon fill="#ffffff" stroke="#000000" points="332,-694.5 332,-713.5 424,-713.5 424,-694.5 332,-694.5"/>
<text text-anchor="middle" x="378" y="-701.5" font-family="Helvetica,sans-Serif" font-size="10.00" fill="#000000">l4/re/protocols.h</text>
</a>
</g>
</g>
<!-- Node9&#45;&gt;Node27 -->
<g id="edge65" class="edge">
<title>Node9&#45;&gt;Node27</title>
<path fill="none" stroke="#191970" d="M485.0246,-806.4509C465.0787,-787.3574 420.0675,-744.2697 395.2432,-720.5063"/>
<polygon fill="#191970" stroke="#191970" points="397.5941,-717.9116 387.9501,-713.5249 392.7536,-722.9683 397.5941,-717.9116"/>
</g>
<!-- Node28 -->
<g id="node29" class="node">
<title>Node28</title>
<g id="a_node29"><a xlink:href="pager.html" target="_top" xlink:title="Pager and Io_pager C++ interface. ">
<polygon fill="#ffffff" stroke="#000000" points="458,-750.5 458,-769.5 532,-769.5 532,-750.5 458,-750.5"/>
<text text-anchor="middle" x="495" y="-757.5" font-family="Helvetica,sans-Serif" font-size="10.00" fill="#000000">l4/sys/pager</text>
</a>
</g>
</g>
<!-- Node9&#45;&gt;Node28 -->
<g id="edge66" class="edge">
<title>Node9&#45;&gt;Node28</title>
<path fill="none" stroke="#191970" d="M495,-806.2455C495,-798.9382 495,-788.6944 495,-779.7046"/>
<polygon fill="#191970" stroke="#191970" points="498.5001,-779.6426 495,-769.6427 491.5001,-779.6427 498.5001,-779.6426"/>
</g>
<!-- Node29 -->
<g id="node30" class="node">
<title>Node29</title>
<g id="a_node30"><a xlink:href="ipc__ret__array_source.html" target="_top" xlink:title="l4/sys/cxx/ipc_ret\l_array">
<polygon fill="#ffffff" stroke="#000000" points="554,-459.5 554,-489.5 652,-489.5 652,-459.5 554,-459.5"/>
<text text-anchor="start" x="562" y="-477.5" font-family="Helvetica,sans-Serif" font-size="10.00" fill="#000000">l4/sys/cxx/ipc_ret</text>
<text text-anchor="middle" x="603" y="-466.5" font-family="Helvetica,sans-Serif" font-size="10.00" fill="#000000">_array</text>
</a>
</g>
</g>
<!-- Node9&#45;&gt;Node29 -->
<g id="edge72" class="edge">
<title>Node9&#45;&gt;Node29</title>
<path fill="none" stroke="#191970" d="M521.6598,-814.4076C574.2456,-810.6515 688.3016,-799.2486 712,-770 781.4145,-684.3284 673.8454,-550.2778 625.0403,-497.2187"/>
<polygon fill="#191970" stroke="#191970" points="627.405,-494.6229 618.0206,-489.7052 622.29,-499.4017 627.405,-494.6229"/>
</g>
<!-- Node9&#45;&gt;Node30 -->
<g id="edge76" class="edge">
<title>Node9&#45;&gt;Node30</title>
<path fill="none" stroke="#191970" d="M521.5761,-814.324C646.6699,-806.4352 1177.4194,-772.9645 1337.2633,-762.8843"/>
<polygon fill="#191970" stroke="#191970" points="1337.4874,-766.3772 1347.2473,-762.2547 1337.0468,-759.3911 1337.4874,-766.3772"/>
</g>
<!-- Node36 -->
<g id="node37" class="node">
<title>Node36</title>
<g id="a_node37"><a xlink:href="dataspace.html" target="_top" xlink:title="Dataspace interface. ">
<polygon fill="#ffffff" stroke="#000000" points="240,-750.5 240,-769.5 330,-769.5 330,-750.5 240,-750.5"/>
<text text-anchor="middle" x="285" y="-757.5" font-family="Helvetica,sans-Serif" font-size="10.00" fill="#000000">l4/re/dataspace</text>
</a>
</g>
</g>
<!-- Node9&#45;&gt;Node36 -->
<g id="edge91" class="edge">
<title>Node9&#45;&gt;Node36</title>
<path fill="none" stroke="#191970" d="M468.4034,-808.9076C433.7657,-799.6709 372.6814,-783.3817 330.5868,-772.1565"/>
<polygon fill="#191970" stroke="#191970" points="331.4166,-768.7555 320.8524,-769.5606 329.6129,-775.5192 331.4166,-768.7555"/>
</g>
<!-- Node10&#45;&gt;Node2 -->
<g id="edge18" class="edge">
<title>Node10&#45;&gt;Node2</title>
<path fill="none" stroke="#191970" d="M990.9006,-694.3057C981.1681,-649.4319 940.755,-463.8525 937,-459 903.9102,-416.2388 878.2024,-425.4184 829,-403 789.4206,-384.9661 764.7977,-401.2584 738,-367 698.7809,-316.862 702.3107,-270.2946 746,-224 765.6158,-203.2144 795.4266,-191.777 821.0162,-185.5062"/>
<polygon fill="#191970" stroke="#191970" points="821.9615,-188.8812 830.9499,-183.2723 820.4256,-182.0517 821.9615,-188.8812"/>
</g>
<!-- Node10&#45;&gt;Node6 -->
<g id="edge17" class="edge">
<title>Node10&#45;&gt;Node6</title>
<path fill="none" stroke="#191970" d="M1026.9715,-694.4516C1123.8088,-665.099 1400.2785,-565.8969 1494,-367 1541.6292,-265.9208 1365.5039,-336.2888 1307,-244 1287.2406,-212.8299 1293.4491,-167.5821 1299.4324,-141.8537"/>
<polygon fill="#191970" stroke="#191970" points="1302.9107,-142.3775 1301.9889,-131.8228 1296.1275,-140.6486 1302.9107,-142.3775"/>
</g>
<!-- Node11 -->
<g id="node12" class="node">
<title>Node11</title>
<g id="a_node12"><a xlink:href="kobject_source.html" target="_top" xlink:title="l4/sys/kobject">
<polygon fill="#ffffff" stroke="#000000" points="968,-526.5 968,-545.5 1048,-545.5 1048,-526.5 968,-526.5"/>
<text text-anchor="middle" x="1008" y="-533.5" font-family="Helvetica,sans-Serif" font-size="10.00" fill="#000000">l4/sys/kobject</text>
</a>
</g>
</g>
<!-- Node10&#45;&gt;Node11 -->
<g id="edge19" class="edge">
<title>Node10&#45;&gt;Node11</title>
<path fill="none" stroke="#191970" d="M993.8494,-694.4862C996.2206,-667.9293 1002.9495,-592.5651 1006.1995,-556.1655"/>
<polygon fill="#191970" stroke="#191970" points="1009.7192,-556.0996 1007.1225,-545.8279 1002.747,-555.477 1009.7192,-556.0996"/>
</g>
<!-- Node21 -->
<g id="node22" class="node">
<title>Node21</title>
<g id="a_node22"><a xlink:href="l4_2sys_2task_8h.html" target="_top" xlink:title="Common task related definitions. ">
<polygon fill="#ffffff" stroke="#000000" points="803,-342 803,-361 877,-361 877,-342 803,-342"/>
<text text-anchor="middle" x="840" y="-349" font-family="Helvetica,sans-Serif" font-size="10.00" fill="#000000">l4/sys/task.h</text>
</a>
</g>
</g>
<!-- Node10&#45;&gt;Node21 -->
<g id="edge48" class="edge">
<title>Node10&#45;&gt;Node21</title>
<path fill="none" stroke="#191970" d="M1001.4614,-694.3091C1023.8349,-667.4575 1081.2263,-589.8658 1057,-526 1031.0936,-457.7053 1006.355,-446.9318 948,-403 926.3156,-386.6752 898.6314,-373.5985 876.721,-364.707"/>
<polygon fill="#191970" stroke="#191970" points="877.9984,-361.4484 867.4115,-361.0376 875.4315,-367.9608 877.9984,-361.4484"/>
</g>
<!-- Node22 -->
<g id="node23" class="node">
<title>Node22</title>
<g id="a_node23"><a xlink:href="sys_2meta.html" target="_top" xlink:title="Meta interface for getting dynamic type information about objects behind capabilities. ">
<polygon fill="#ffffff" stroke="#000000" points="822,-638.5 822,-657.5 892,-657.5 892,-638.5 822,-638.5"/>
<text text-anchor="middle" x="857" y="-645.5" font-family="Helvetica,sans-Serif" font-size="10.00" fill="#000000">l4/sys/meta</text>
</a>
</g>
</g>
<!-- Node10&#45;&gt;Node22 -->
<g id="edge49" class="edge">
<title>Node10&#45;&gt;Node22</title>
<path fill="none" stroke="#191970" d="M969.6208,-694.3733C947.4955,-685.2629 914.0866,-671.5062 889.3981,-661.3404"/>
<polygon fill="#191970" stroke="#191970" points="890.6536,-658.0723 880.0742,-657.5011 887.9883,-664.5451 890.6536,-658.0723"/>
</g>
<!-- Node11&#45;&gt;Node2 -->
<g id="edge34" class="edge">
<title>Node11&#45;&gt;Node2</title>
<path fill="none" stroke="#191970" d="M1005.0531,-526.4567C996.6734,-501.1367 970.0861,-432.1999 921,-403 858.357,-365.7354 806.5333,-423.9167 761,-367 721.2972,-317.3714 725.7798,-276.9042 761,-224 774.4897,-203.7371 798.7979,-192.3836 821.1387,-186.03"/>
<polygon fill="#191970" stroke="#191970" points="822.0719,-189.4039 830.8861,-183.5251 820.3296,-182.6242 822.0719,-189.4039"/>
</g>
<!-- Node12 -->
<g id="node13" class="node">
<title>Node12</title>
<g id="a_node13"><a xlink:href="kernel__object_8h.html" target="_top" xlink:title="Kernel object system calls. ">
<polygon fill="#ffffff" stroke="#000000" points="1149,-403.5 1149,-422.5 1237,-422.5 1237,-403.5 1149,-403.5"/>
<text text-anchor="middle" x="1193" y="-410.5" font-family="Helvetica,sans-Serif" font-size="10.00" fill="#000000">kernel_object.h</text>
</a>
</g>
</g>
<!-- Node11&#45;&gt;Node12 -->
<g id="edge20" class="edge">
<title>Node11&#45;&gt;Node12</title>
<path fill="none" stroke="#191970" d="M1022.5166,-526.3484C1054.5329,-505.0619 1131.4198,-453.9425 1170.0424,-428.2637"/>
<polygon fill="#191970" stroke="#191970" points="1172.1612,-431.058 1178.5508,-422.6068 1168.2855,-425.2288 1172.1612,-431.058"/>
</g>
<!-- Node17 -->
<g id="node18" class="node">
<title>Node17</title>
<g id="a_node18"><a xlink:href="____typeinfo_8h.html" target="_top" xlink:title="Type information handling. ">
<polygon fill="#ffffff" stroke="#000000" points="424,-465 424,-484 498,-484 498,-465 424,-465"/>
<text text-anchor="middle" x="461" y="-472" font-family="Helvetica,sans-Serif" font-size="10.00" fill="#000000">__typeinfo.h</text>
</a>
</g>
</g>
<!-- Node11&#45;&gt;Node17 -->
<g id="edge35" class="edge">
<title>Node11&#45;&gt;Node17</title>
<path fill="none" stroke="#191970" d="M967.9192,-533.1503C887.4844,-527.1818 700.7589,-512.0689 545,-490 532.9554,-488.2935 520.0049,-486.0891 507.9657,-483.8811"/>
<polygon fill="#191970" stroke="#191970" points="508.5802,-480.4354 498.107,-482.0364 507.2927,-487.316 508.5802,-480.4354"/>
</g>
<!-- Node12&#45;&gt;Node2 -->
<g id="edge21" class="edge">
<title>Node12&#45;&gt;Node2</title>
<path fill="none" stroke="#191970" d="M1148.7833,-408.0414C1076.7685,-399.5848 940.4775,-381.8466 924,-367 898.614,-344.1266 880.4768,-241.1063 873.81,-197.5453"/>
<polygon fill="#191970" stroke="#191970" points="877.2659,-196.9894 872.3326,-187.6132 870.3421,-198.0194 877.2659,-196.9894"/>
</g>
<!-- Node12&#45;&gt;Node4 -->
<g id="edge22" class="edge">
<title>Node12&#45;&gt;Node4</title>
<path fill="none" stroke="#191970" d="M1237.1055,-410.4389C1341.4686,-404.1281 1601.1562,-386.89 1686,-367 1778.7349,-345.26 1886,-385.2491 1886,-290 1886,-290 1886,-290 1886,-178 1886,-110.4872 1665.4514,-81.0455 1557.7751,-70.6945"/>
<polygon fill="#191970" stroke="#191970" points="1558.0014,-67.2005 1547.7183,-69.7518 1557.348,-74.1699 1558.0014,-67.2005"/>
</g>
<!-- Node13 -->
<g id="node14" class="node">
<title>Node13</title>
<g id="a_node14"><a xlink:href="l4_2sys_2utcb_8h.html" target="_top" xlink:title="UTCB definitions. ">
<polygon fill="#ffffff" stroke="#000000" points="1010,-224.5 1010,-243.5 1084,-243.5 1084,-224.5 1010,-224.5"/>
<text text-anchor="middle" x="1047" y="-231.5" font-family="Helvetica,sans-Serif" font-size="10.00" fill="#000000">l4/sys/utcb.h</text>
</a>
</g>
</g>
<!-- Node12&#45;&gt;Node13 -->
<g id="edge23" class="edge">
<title>Node12&#45;&gt;Node13</title>
<path fill="none" stroke="#191970" d="M1154.6618,-403.4657C1122.2378,-394.613 1079.2981,-380.7621 1068,-367 1041.4053,-334.6052 1041.7622,-282.3472 1044.3635,-253.9401"/>
<polygon fill="#191970" stroke="#191970" points="1047.8787,-253.9959 1045.5019,-243.6711 1040.9213,-253.2245 1047.8787,-253.9959"/>
</g>
<!-- Node14 -->
<g id="node15" class="node">
<title>Node14</title>
<g id="a_node15"><a xlink:href="____kernel__object__impl_8h.html" target="_top" xlink:title="Low&#45;level kernel debugger functions. ">
<polygon fill="#ffffff" stroke="#000000" points="1077,-336.5 1077,-366.5 1199,-366.5 1199,-336.5 1077,-336.5"/>
<text text-anchor="start" x="1085" y="-354.5" font-family="Helvetica,sans-Serif" font-size="10.00" fill="#000000">l4/sys/__kernel_object</text>
<text text-anchor="middle" x="1138" y="-343.5" font-family="Helvetica,sans-Serif" font-size="10.00" fill="#000000">_impl.h</text>
</a>
</g>
</g>
<!-- Node12&#45;&gt;Node14 -->
<g id="edge27" class="edge">
<title>Node12&#45;&gt;Node14</title>
<path fill="none" stroke="#191970" d="M1184.4063,-403.3906C1177.4451,-395.6068 1167.3514,-384.3202 1158.3542,-374.2597"/>
<polygon fill="#191970" stroke="#191970" points="1160.7296,-371.6654 1151.4545,-366.5446 1155.5118,-376.3318 1160.7296,-371.6654"/>
</g>
<!-- Node15 -->
<g id="node16" class="node">
<title>Node15</title>
<g id="a_node16"><a xlink:href="l4_2sys_2ipc_8h.html" target="_top" xlink:title="Common IPC interface. ">
<polygon fill="#ffffff" stroke="#000000" points="1078,-280.5 1078,-299.5 1146,-299.5 1146,-280.5 1078,-280.5"/>
<text text-anchor="middle" x="1112" y="-287.5" font-family="Helvetica,sans-Serif" font-size="10.00" fill="#000000">l4/sys/ipc.h</text>
</a>
</g>
</g>
<!-- Node12&#45;&gt;Node15 -->
<g id="edge33" class="edge">
<title>Node12&#45;&gt;Node15</title>
<path fill="none" stroke="#191970" d="M1199.0609,-403.1858C1207.7622,-387.7064 1221.3533,-357.2055 1208,-336 1196.4583,-317.6714 1175.3638,-306.4837 1155.8823,-299.74"/>
<polygon fill="#191970" stroke="#191970" points="1156.7896,-296.3563 1146.2,-296.6895 1154.6861,-303.0328 1156.7896,-296.3563"/>
</g>
<!-- Node13&#45;&gt;Node2 -->
<g id="edge24" class="edge">
<title>Node13&#45;&gt;Node2</title>
<path fill="none" stroke="#191970" d="M1016.7445,-224.3733C987.3517,-215.021 942.5708,-200.7725 910.4066,-190.5385"/>
<polygon fill="#191970" stroke="#191970" points="911.4512,-187.198 900.8607,-187.5011 909.3287,-193.8685 911.4512,-187.198"/>
</g>
<!-- Node13&#45;&gt;Node3 -->
<g id="edge26" class="edge">
<title>Node13&#45;&gt;Node3</title>
<path fill="none" stroke="#191970" d="M1051.4614,-224.1825C1060.9517,-201.659 1080.2214,-145.6283 1054,-112 1037.4506,-90.7758 966.7558,-77.8465 918.2393,-71.3076"/>
<polygon fill="#191970" stroke="#191970" points="918.6184,-67.8276 908.2505,-70.0086 917.7156,-74.7691 918.6184,-67.8276"/>
</g>
<!-- Node13&#45;&gt;Node4 -->
<g id="edge25" class="edge">
<title>Node13&#45;&gt;Node4</title>
<path fill="none" stroke="#191970" d="M1080.0194,-224.494C1137.1632,-207.743 1257.8908,-171.0282 1357,-132 1397.6865,-115.9781 1443.3446,-94.2177 1471.8851,-80.1409"/>
<polygon fill="#191970" stroke="#191970" points="1473.4729,-83.2603 1480.8759,-75.681 1470.3622,-76.9894 1473.4729,-83.2603"/>
</g>
<!-- Node14&#45;&gt;Node15 -->
<g id="edge28" class="edge">
<title>Node14&#45;&gt;Node15</title>
<path fill="none" stroke="#191970" d="M1131.573,-336.2977C1128.1143,-328.1166 1123.8133,-317.943 1120.1246,-309.2179"/>
<polygon fill="#191970" stroke="#191970" points="1123.2807,-307.6947 1116.1629,-299.8469 1116.8332,-310.4205 1123.2807,-307.6947"/>
</g>
<!-- Node15&#45;&gt;Node2 -->
<g id="edge29" class="edge">
<title>Node15&#45;&gt;Node2</title>
<path fill="none" stroke="#191970" d="M1112.1449,-280.3416C1111.8051,-265.8865 1108.9168,-238.7511 1093,-224 1068.4895,-201.2846 978.8221,-188.465 921.2187,-182.4074"/>
<polygon fill="#191970" stroke="#191970" points="921.5138,-178.9194 911.2107,-181.3888 920.8049,-185.8835 921.5138,-178.9194"/>
</g>
<!-- Node15&#45;&gt;Node13 -->
<g id="edge30" class="edge">
<title>Node15&#45;&gt;Node13</title>
<path fill="none" stroke="#191970" d="M1100.6779,-280.2455C1091.0777,-271.9746 1077.1108,-259.9416 1065.8305,-250.2232"/>
<polygon fill="#191970" stroke="#191970" points="1068.053,-247.5182 1058.1924,-243.6427 1063.484,-252.8214 1068.053,-247.5182"/>
</g>
<!-- Node16 -->
<g id="node17" class="node">
<title>Node16</title>
<g id="a_node17"><a xlink:href="err_8h.html" target="_top" xlink:title="Error codes. ">
<polygon fill="#ffffff" stroke="#000000" points="1714,-224.5 1714,-243.5 1782,-243.5 1782,-224.5 1714,-224.5"/>
<text text-anchor="middle" x="1748" y="-231.5" font-family="Helvetica,sans-Serif" font-size="10.00" fill="#000000">l4/sys/err.h</text>
</a>
</g>
</g>
<!-- Node15&#45;&gt;Node16 -->
<g id="edge31" class="edge">
<title>Node15&#45;&gt;Node16</title>
<path fill="none" stroke="#191970" d="M1146.1479,-287.6491C1233.1296,-281.5566 1470.0827,-264.3077 1667,-244 1678.8823,-242.7746 1691.7229,-241.2718 1703.602,-239.8072"/>
<polygon fill="#191970" stroke="#191970" points="1704.2575,-243.2526 1713.7455,-238.5379 1703.3882,-236.3067 1704.2575,-243.2526"/>
</g>
<!-- Node16&#45;&gt;Node4 -->
<g id="edge32" class="edge">
<title>Node16&#45;&gt;Node4</title>
<path fill="none" stroke="#191970" d="M1733.9559,-224.4862C1692.9593,-196.7144 1573.1704,-115.5671 1522.7668,-81.4227"/>
<polygon fill="#191970" stroke="#191970" points="1524.4397,-78.3285 1514.1975,-75.6177 1520.5137,-84.1239 1524.4397,-78.3285"/>
</g>
<!-- Node17&#45;&gt;Node18 -->
<g id="edge36" class="edge">
<title>Node17&#45;&gt;Node18</title>
<path fill="none" stroke="#191970" d="M466.1004,-464.8484C476.8748,-444.4601 502.1121,-396.7033 516.1465,-370.1459"/>
<polygon fill="#191970" stroke="#191970" points="519.3454,-371.5835 520.9233,-361.1068 513.1564,-368.3128 519.3454,-371.5835"/>
</g>
<!-- Node19 -->
<g id="node20" class="node">
<title>Node19</title>
<g id="a_node20"><a xlink:href="ipc__basics_source.html" target="_top" xlink:title="cxx/ipc_basics">
<polygon fill="#ffffff" stroke="#000000" points="708,-403.5 708,-422.5 792,-422.5 792,-403.5 708,-403.5"/>
<text text-anchor="middle" x="750" y="-410.5" font-family="Helvetica,sans-Serif" font-size="10.00" fill="#000000">cxx/ipc_basics</text>
</a>
</g>
</g>
<!-- Node17&#45;&gt;Node19 -->
<g id="edge37" class="edge">
<title>Node17&#45;&gt;Node19</title>
<path fill="none" stroke="#191970" d="M498.1901,-466.5859C548.9567,-455.7826 640.2073,-436.3642 697.8046,-424.1073"/>
<polygon fill="#191970" stroke="#191970" points="698.7468,-427.4853 707.7993,-421.9804 697.2898,-420.6386 698.7468,-427.4853"/>
</g>
<!-- Node20 -->
<g id="node21" class="node">
<title>Node20</title>
<g id="a_node21"><a xlink:href="capability_8h_source.html" target="_top" xlink:title="cxx/capability.h">
<polygon fill="#ffffff" stroke="#000000" points="372.5,-403.5 372.5,-422.5 459.5,-422.5 459.5,-403.5 372.5,-403.5"/>
<text text-anchor="middle" x="416" y="-410.5" font-family="Helvetica,sans-Serif" font-size="10.00" fill="#000000">cxx/capability.h</text>
</a>
</g>
</g>
<!-- Node17&#45;&gt;Node20 -->
<g id="edge41" class="edge">
<title>Node17&#45;&gt;Node20</title>
<path fill="none" stroke="#191970" d="M453.9688,-464.8906C447.337,-455.8273 437.2304,-442.0149 429.1113,-430.9188"/>
<polygon fill="#191970" stroke="#191970" points="431.8601,-428.7484 423.1304,-422.7449 426.2109,-432.882 431.8601,-428.7484"/>
</g>
<!-- Node19&#45;&gt;Node13 -->
<g id="edge39" class="edge">
<title>Node19&#45;&gt;Node13</title>
<path fill="none" stroke="#191970" d="M753.1644,-403.3892C758.8923,-387.3637 772.4255,-355.0659 794,-336 853.9674,-283.0053 945.0034,-255.5299 999.9632,-242.9745"/>
<polygon fill="#191970" stroke="#191970" points="1000.7819,-246.3781 1009.79,-240.8009 999.2701,-239.5433 1000.7819,-246.3781"/>
</g>
<!-- Node19&#45;&gt;Node16 -->
<g id="edge40" class="edge">
<title>Node19&#45;&gt;Node16</title>
<path fill="none" stroke="#191970" d="M792.1646,-411.8781C965.4987,-407.1354 1615.84,-388.0054 1654,-367 1699.8668,-341.7524 1728.5606,-283.4455 1740.9276,-253.1128"/>
<polygon fill="#191970" stroke="#191970" points="1744.2453,-254.2386 1744.6224,-243.6505 1737.7248,-251.6924 1744.2453,-254.2386"/>
</g>
<!-- Node19&#45;&gt;Node18 -->
<g id="edge38" class="edge">
<title>Node19&#45;&gt;Node18</title>
<path fill="none" stroke="#191970" d="M715,-403.3906C674.7882,-392.3503 608.9099,-374.2632 566.5125,-362.6229"/>
<polygon fill="#191970" stroke="#191970" points="567.3636,-359.2271 556.7937,-359.9545 565.5102,-365.9773 567.3636,-359.2271"/>
</g>
<!-- Node20&#45;&gt;Node2 -->
<g id="edge43" class="edge">
<title>Node20&#45;&gt;Node2</title>
<path fill="none" stroke="#191970" d="M423.5681,-403.3575C435.7849,-388.1135 461.0169,-357.9292 486,-336 551.5099,-278.498 566.8908,-258.359 647,-224 703.6475,-199.7037 773.9744,-187.9583 820.5526,-182.4766"/>
<polygon fill="#191970" stroke="#191970" points="821.15,-185.9316 830.697,-181.3376 820.3689,-178.9753 821.15,-185.9316"/>
</g>
<!-- Node20&#45;&gt;Node6 -->
<g id="edge42" class="edge">
<title>Node20&#45;&gt;Node6</title>
<path fill="none" stroke="#191970" d="M418.9391,-403.2036C423.9159,-387.7485 435.1353,-357.2804 452,-336 503.676,-270.7937 526.4765,-258.9067 602,-224 693.5863,-181.6691 722.5948,-185.2788 822,-168 976.6677,-141.1154 1162.1259,-128.9954 1251.569,-124.3912"/>
<polygon fill="#191970" stroke="#191970" points="1251.9226,-127.8779 1261.7338,-123.8792 1251.5703,-120.8868 1251.9226,-127.8779"/>
</g>
<!-- Node20&#45;&gt;Node21 -->
<g id="edge44" class="edge">
<title>Node20&#45;&gt;Node21</title>
<path fill="none" stroke="#191970" d="M459.7785,-406.6501C540.0279,-395.0101 710.0306,-370.3517 792.7751,-358.3498"/>
<polygon fill="#191970" stroke="#191970" points="793.5053,-361.7806 802.8993,-356.8814 792.5004,-354.8531 793.5053,-361.7806"/>
</g>
<!-- Node21&#45;&gt;Node2 -->
<g id="edge45" class="edge">
<title>Node21&#45;&gt;Node2</title>
<path fill="none" stroke="#191970" d="M841.7109,-341.9248C846.6111,-314.499 860.7741,-235.232 867.445,-197.8964"/>
<polygon fill="#191970" stroke="#191970" points="870.9427,-198.2193 869.2562,-187.7595 864.0518,-196.988 870.9427,-198.2193"/>
</g>
<!-- Node21&#45;&gt;Node13 -->
<g id="edge46" class="edge">
<title>Node21&#45;&gt;Node13</title>
<path fill="none" stroke="#191970" d="M856.9397,-341.8845C893.1925,-321.3062 978.4785,-272.8951 1021.3909,-248.5365"/>
<polygon fill="#191970" stroke="#191970" points="1023.1477,-251.5639 1030.1166,-243.5836 1019.6922,-245.4763 1023.1477,-251.5639"/>
</g>
<!-- Node21&#45;&gt;Node15 -->
<g id="edge47" class="edge">
<title>Node21&#45;&gt;Node15</title>
<path fill="none" stroke="#191970" d="M877.2501,-343.0776C927.0041,-331.8281 1015.0148,-311.9287 1067.9851,-299.9519"/>
<polygon fill="#191970" stroke="#191970" points="1068.7887,-303.3586 1077.7706,-297.7394 1067.2449,-296.531 1068.7887,-303.3586"/>
</g>
<!-- Node22&#45;&gt;Node11 -->
<g id="edge50" class="edge">
<title>Node22&#45;&gt;Node11</title>
<path fill="none" stroke="#191970" d="M869.8742,-638.4509C895.9507,-619.1094 955.2221,-575.1465 986.9808,-551.5904"/>
<polygon fill="#191970" stroke="#191970" points="989.2117,-554.2934 995.1584,-545.5249 985.0415,-548.6712 989.2117,-554.2934"/>
</g>
<!-- Node22&#45;&gt;Node23 -->
<g id="edge51" class="edge">
<title>Node22&#45;&gt;Node23</title>
<path fill="none" stroke="#191970" d="M821.978,-638.878C785.6694,-629.4209 728.7127,-614.5856 688.616,-604.1418"/>
<polygon fill="#191970" stroke="#191970" points="689.3674,-600.7208 678.808,-601.5872 687.6029,-607.4948 689.3674,-600.7208"/>
</g>
<!-- Node25 -->
<g id="node26" class="node">
<title>Node25</title>
<g id="a_node26"><a xlink:href="ipc__string_source.html" target="_top" xlink:title="cxx/ipc_string">
<polygon fill="#ffffff" stroke="#000000" points="744.5,-582.5 744.5,-601.5 825.5,-601.5 825.5,-582.5 744.5,-582.5"/>
<text text-anchor="middle" x="785" y="-589.5" font-family="Helvetica,sans-Serif" font-size="10.00" fill="#000000">cxx/ipc_string</text>
</a>
</g>
</g>
<!-- Node22&#45;&gt;Node25 -->
<g id="edge58" class="edge">
<title>Node22&#45;&gt;Node25</title>
<path fill="none" stroke="#191970" d="M844.4586,-638.2455C833.7213,-629.8943 818.0527,-617.7076 805.4953,-607.9408"/>
<polygon fill="#191970" stroke="#191970" points="807.4401,-605.0194 797.3977,-601.6427 803.1425,-610.5449 807.4401,-605.0194"/>
</g>
<!-- Node23&#45;&gt;Node17 -->
<g id="edge57" class="edge">
<title>Node23&#45;&gt;Node17</title>
<path fill="none" stroke="#191970" d="M634.9732,-582.3049C624.3991,-568.2896 603.1533,-542.2698 580,-526 556.0413,-509.1642 525.7065,-496.1411 501.6608,-487.4028"/>
<polygon fill="#191970" stroke="#191970" points="502.7081,-484.0609 492.1133,-484.0362 500.3802,-490.6625 502.7081,-484.0609"/>
</g>
<!-- Node23&#45;&gt;Node19 -->
<g id="edge52" class="edge">
<title>Node23&#45;&gt;Node19</title>
<path fill="none" stroke="#191970" d="M647.8065,-582.3762C665.0206,-553.8455 715.9922,-469.3648 738.7762,-431.6024"/>
<polygon fill="#191970" stroke="#191970" points="741.9954,-433.0418 744.1647,-422.6714 736.0019,-429.4255 741.9954,-433.0418"/>
</g>
<!-- Node24 -->
<g id="node25" class="node">
<title>Node24</title>
<g id="a_node25"><a xlink:href="ipc__types.html" target="_top" xlink:title="l4/sys/cxx/ipc_types">
<polygon fill="#ffffff" stroke="#000000" points="296,-465 296,-484 406,-484 406,-465 296,-465"/>
<text text-anchor="middle" x="351" y="-472" font-family="Helvetica,sans-Serif" font-size="10.00" fill="#000000">l4/sys/cxx/ipc_types</text>
</a>
</g>
</g>
<!-- Node23&#45;&gt;Node24 -->
<g id="edge53" class="edge">
<title>Node23&#45;&gt;Node24</title>
<path fill="none" stroke="#191970" d="M630.1187,-582.3077C612.1025,-568.0564 576.3265,-541.4683 542,-526 528.8732,-520.0848 450.9879,-499.821 398.8165,-486.5448"/>
<polygon fill="#191970" stroke="#191970" points="399.6279,-483.1398 389.074,-484.0707 397.9048,-489.9245 399.6279,-483.1398"/>
</g>
<!-- Node24&#45;&gt;Node18 -->
<g id="edge55" class="edge">
<title>Node24&#45;&gt;Node18</title>
<path fill="none" stroke="#191970" d="M349.7083,-464.8621C348.2546,-449.7694 347.8069,-420.4798 363,-403 379.1314,-384.4408 442.6799,-368.3293 485.4975,-359.2734"/>
<polygon fill="#191970" stroke="#191970" points="486.2766,-362.6864 495.3606,-357.2338 484.859,-355.8314 486.2766,-362.6864"/>
</g>
<!-- Node24&#45;&gt;Node19 -->
<g id="edge56" class="edge">
<title>Node24&#45;&gt;Node19</title>
<path fill="none" stroke="#191970" d="M387.7509,-464.9257C396.6342,-462.7984 406.126,-460.6794 415,-459 514.3757,-440.1933 631.7182,-425.8662 697.8372,-418.5069"/>
<polygon fill="#191970" stroke="#191970" points="698.4426,-421.9614 707.9985,-417.3859 697.675,-415.0036 698.4426,-421.9614"/>
</g>
<!-- Node24&#45;&gt;Node20 -->
<g id="edge54" class="edge">
<title>Node24&#45;&gt;Node20</title>
<path fill="none" stroke="#191970" d="M361.1563,-464.8906C371.0199,-455.5581 386.2055,-441.1902 398.0987,-429.9374"/>
<polygon fill="#191970" stroke="#191970" points="400.8421,-432.1601 405.7006,-422.7449 396.0311,-427.0753 400.8421,-432.1601"/>
</g>
<!-- Node25&#45;&gt;Node18 -->
<g id="edge59" class="edge">
<title>Node25&#45;&gt;Node18</title>
<path fill="none" stroke="#191970" d="M758.4395,-582.4016C698.8892,-560.6464 558.8155,-508.0746 545,-490 518.3262,-455.1031 519.8704,-400.3289 523.0664,-371.2218"/>
<polygon fill="#191970" stroke="#191970" points="526.5647,-371.4576 524.3643,-361.0938 519.6215,-370.5677 526.5647,-371.4576"/>
</g>
<!-- Node25&#45;&gt;Node19 -->
<g id="edge60" class="edge">
<title>Node25&#45;&gt;Node19</title>
<path fill="none" stroke="#191970" d="M794.0741,-582.3243C801.5963,-573.5913 811.7231,-559.9994 816,-546 818.5971,-537.499 818.2677,-534.5948 816,-526 806.2629,-489.0947 780.8819,-451.9626 764.583,-430.7951"/>
<polygon fill="#191970" stroke="#191970" points="767.1713,-428.4253 758.226,-422.748 761.6785,-432.7645 767.1713,-428.4253"/>
</g>
<!-- Node26 -->
<g id="node27" class="node">
<title>Node26</title>
<g id="a_node27"><a xlink:href="ipc__array_source.html" target="_top" xlink:title="ipc_array">
<polygon fill="#ffffff" stroke="#000000" points="746.5,-526.5 746.5,-545.5 807.5,-545.5 807.5,-526.5 746.5,-526.5"/>
<text text-anchor="middle" x="777" y="-533.5" font-family="Helvetica,sans-Serif" font-size="10.00" fill="#000000">ipc_array</text>
</a>
</g>
</g>
<!-- Node25&#45;&gt;Node26 -->
<g id="edge61" class="edge">
<title>Node25&#45;&gt;Node26</title>
<path fill="none" stroke="#191970" d="M783.6065,-582.2455C782.5626,-574.9382 781.0992,-564.6944 779.8149,-555.7046"/>
<polygon fill="#191970" stroke="#191970" points="783.2566,-555.0472 778.3775,-545.6427 776.327,-556.0372 783.2566,-555.0472"/>
</g>
<!-- Node26&#45;&gt;Node18 -->
<g id="edge62" class="edge">
<title>Node26&#45;&gt;Node18</title>
<path fill="none" stroke="#191970" d="M763.8585,-526.3402C722.9414,-496.2637 597.556,-404.0979 547.23,-367.1053"/>
<polygon fill="#191970" stroke="#191970" points="549.1417,-364.1667 539.0114,-361.0641 544.9958,-369.8069 549.1417,-364.1667"/>
</g>
<!-- Node26&#45;&gt;Node19 -->
<g id="edge63" class="edge">
<title>Node26&#45;&gt;Node19</title>
<path fill="none" stroke="#191970" d="M774.8814,-526.3484C770.465,-506.2295 760.1987,-459.4608 754.3265,-432.7098"/>
<polygon fill="#191970" stroke="#191970" points="757.6716,-431.6238 752.1088,-422.6068 750.8343,-433.1247 757.6716,-431.6238"/>
</g>
<!-- Node26&#45;&gt;Node24 -->
<g id="edge64" class="edge">
<title>Node26&#45;&gt;Node24</title>
<path fill="none" stroke="#191970" d="M746.3114,-533.263C683.6901,-527.4228 536.8086,-512.4177 415,-490 409.2377,-488.9395 403.2176,-487.6824 397.2738,-486.3499"/>
<polygon fill="#191970" stroke="#191970" points="397.9344,-482.9103 387.4019,-484.0577 396.3511,-489.7289 397.9344,-482.9103"/>
</g>
<!-- Node28&#45;&gt;Node2 -->
<g id="edge68" class="edge">
<title>Node28&#45;&gt;Node2</title>
<path fill="none" stroke="#191970" d="M486.3961,-750.38C474.6268,-737.3289 452.7153,-713.4137 433,-694 329.7687,-592.3478 192,-619.3788 192,-474.5 192,-474.5 192,-474.5 192,-413 192,-280.0847 662.5124,-205.6132 820.1946,-184.3877"/>
<polygon fill="#191970" stroke="#191970" points="821.1078,-187.7971 830.5589,-183.0088 820.1846,-180.8582 821.1078,-187.7971"/>
</g>
<!-- Node28&#45;&gt;Node10 -->
<g id="edge67" class="edge">
<title>Node28&#45;&gt;Node10</title>
<path fill="none" stroke="#191970" d="M532.0241,-755.8366C618.7606,-746.0831 835.4867,-721.7123 937.8304,-710.2038"/>
<polygon fill="#191970" stroke="#191970" points="938.414,-713.6603 947.9602,-709.0647 937.6317,-706.7042 938.414,-713.6603"/>
</g>
<!-- Node28&#45;&gt;Node23 -->
<g id="edge70" class="edge">
<title>Node28&#45;&gt;Node23</title>
<path fill="none" stroke="#191970" d="M497.2436,-750.2078C502.839,-727.7373 519.3665,-671.8104 552,-638 565.9838,-623.5119 585.5143,-612.7697 602.8092,-605.3264"/>
<polygon fill="#191970" stroke="#191970" points="604.1965,-608.5406 612.1381,-601.5277 601.5565,-602.0575 604.1965,-608.5406"/>
</g>
<!-- Node28&#45;&gt;Node24 -->
<g id="edge69" class="edge">
<title>Node28&#45;&gt;Node24</title>
<path fill="none" stroke="#191970" d="M494.2836,-750.4181C492.9011,-731.0718 490,-685.9544 490,-648 490,-648 490,-648 490,-592 490,-539.0511 430.4463,-505.0761 389.3014,-487.9217"/>
<polygon fill="#191970" stroke="#191970" points="390.3855,-484.5857 379.8009,-484.1191 387.7843,-491.0845 390.3855,-484.5857"/>
</g>
<!-- Node29&#45;&gt;Node18 -->
<g id="edge73" class="edge">
<title>Node29&#45;&gt;Node18</title>
<path fill="none" stroke="#191970" d="M593.5583,-459.4178C579.3773,-436.765 552.6212,-394.0248 537.3817,-369.6811"/>
<polygon fill="#191970" stroke="#191970" points="540.2509,-367.6682 531.978,-361.0493 534.3176,-371.3826 540.2509,-367.6682"/>
</g>
<!-- Node29&#45;&gt;Node19 -->
<g id="edge74" class="edge">
<title>Node29&#45;&gt;Node19</title>
<path fill="none" stroke="#191970" d="M638.9602,-459.4554C663.0573,-449.374 694.513,-436.2139 717.7903,-426.4755"/>
<polygon fill="#191970" stroke="#191970" points="719.3459,-429.6187 727.2202,-422.5303 716.6442,-423.1611 719.3459,-429.6187"/>
</g>
<!-- Node30&#45;&gt;Node6 -->
<g id="edge78" class="edge">
<title>Node30&#45;&gt;Node6</title>
<path fill="none" stroke="#191970" d="M1418.6285,-752.9308C1467.9434,-740.835 1551,-711.0971 1551,-648 1551,-648 1551,-648 1551,-413 1551,-313.499 1500.9511,-294.7621 1431,-224 1412.2528,-205.0355 1403.8541,-204.6197 1383,-188 1362.3995,-171.5824 1339.4525,-152.0034 1323.8132,-138.4551"/>
<polygon fill="#191970" stroke="#191970" points="1325.7806,-135.5277 1315.9379,-131.6071 1321.1874,-140.81 1325.7806,-135.5277"/>
</g>
<!-- Node30&#45;&gt;Node10 -->
<g id="edge77" class="edge">
<title>Node30&#45;&gt;Node10</title>
<path fill="none" stroke="#191970" d="M1347.3562,-754.8819C1279.1026,-745.0814 1129.5277,-723.604 1048.2384,-711.9317"/>
<polygon fill="#191970" stroke="#191970" points="1048.5906,-708.4464 1038.1946,-710.4895 1047.5956,-715.3754 1048.5906,-708.4464"/>
</g>
<!-- Node30&#45;&gt;Node31 -->
<g id="edge79" class="edge">
<title>Node30&#45;&gt;Node31</title>
<path fill="none" stroke="#191970" d="M1418.5804,-755.0255C1465.2329,-747.8422 1543.6599,-733.2826 1565,-714 1588.1587,-693.074 1589,-679.2125 1589,-648 1589,-648 1589,-648 1589,-474.5 1589,-437.3871 1599.2425,-395.032 1606.0573,-370.9586"/>
<polygon fill="#191970" stroke="#191970" points="1609.4433,-371.8496 1608.8981,-361.2688 1602.7261,-369.8802 1609.4433,-371.8496"/>
</g>
<!-- Node31&#45;&gt;Node2 -->
<g id="edge81" class="edge">
<title>Node31&#45;&gt;Node2</title>
<path fill="none" stroke="#191970" d="M1581.9413,-341.917C1509.0418,-318.9476 1316.7758,-259.9914 1153,-224 1072.7256,-206.3589 978.2342,-192.2841 921.5549,-184.5489"/>
<polygon fill="#191970" stroke="#191970" points="921.8025,-181.0506 911.4236,-183.179 920.8644,-187.9875 921.8025,-181.0506"/>
</g>
<!-- Node31&#45;&gt;Node4 -->
<g id="edge88" class="edge">
<title>Node31&#45;&gt;Node4</title>
<path fill="none" stroke="#191970" d="M1645.2995,-345.6919C1706.7843,-333.1067 1829.7998,-298.2666 1806,-224 1773.3894,-122.2397 1637.1656,-85.556 1557.8978,-72.6818"/>
<polygon fill="#191970" stroke="#191970" points="1557.997,-69.1557 1547.5799,-71.088 1556.9283,-76.0737 1557.997,-69.1557"/>
</g>
<!-- Node31&#45;&gt;Node6 -->
<g id="edge80" class="edge">
<title>Node31&#45;&gt;Node6</title>
<path fill="none" stroke="#191970" d="M1622.5278,-341.7586C1645.5144,-319.3103 1695.9053,-262.8896 1667,-224 1630.1045,-174.3602 1449.5674,-142.3304 1358.1939,-129.0318"/>
<polygon fill="#191970" stroke="#191970" points="1358.4352,-125.5307 1348.04,-127.5777 1357.4429,-132.46 1358.4352,-125.5307"/>
</g>
<!-- Node32 -->
<g id="node33" class="node">
<title>Node32</title>
<g id="a_node33"><a xlink:href="sys_2kip_8h.html" target="_top" xlink:title="Kernel Info Page access functions. ">
<polygon fill="#ffffff" stroke="#000000" points="1572,-280.5 1572,-299.5 1640,-299.5 1640,-280.5 1572,-280.5"/>
<text text-anchor="middle" x="1606" y="-287.5" font-family="Helvetica,sans-Serif" font-size="10.00" fill="#000000">l4/sys/kip.h</text>
</a>
</g>
</g>
<!-- Node31&#45;&gt;Node32 -->
<g id="edge82" class="edge">
<title>Node31&#45;&gt;Node32</title>
<path fill="none" stroke="#191970" d="M1611.0625,-341.8906C1610.2308,-333.3657 1608.9892,-320.6392 1607.9438,-309.9235"/>
<polygon fill="#191970" stroke="#191970" points="1611.4053,-309.3577 1606.9507,-299.7449 1604.4383,-310.0375 1611.4053,-309.3577"/>
</g>
<!-- Node35 -->
<g id="node36" class="node">
<title>Node35</title>
<g id="a_node36"><a xlink:href="l4_2re_2consts_8h.html" target="_top" xlink:title="Constants. ">
<polygon fill="#ffffff" stroke="#000000" points="1392,-168.5 1392,-187.5 1472,-187.5 1472,-168.5 1392,-168.5"/>
<text text-anchor="middle" x="1432" y="-175.5" font-family="Helvetica,sans-Serif" font-size="10.00" fill="#000000">l4/re/consts.h</text>
</a>
</g>
</g>
<!-- Node31&#45;&gt;Node35 -->
<g id="edge89" class="edge">
<title>Node31&#45;&gt;Node35</title>
<path fill="none" stroke="#191970" d="M1602.066,-341.9248C1572.8769,-313.7897 1487.0865,-231.0973 1449.7255,-195.0855"/>
<polygon fill="#191970" stroke="#191970" points="1451.754,-192.1795 1442.1252,-187.7595 1446.8961,-197.2194 1451.754,-192.1795"/>
</g>
<!-- Node32&#45;&gt;Node3 -->
<g id="edge84" class="edge">
<title>Node32&#45;&gt;Node3</title>
<path fill="none" stroke="#191970" d="M1591.2233,-280.2591C1578.3952,-271.4843 1559.6342,-257.8677 1545,-244 1512.9466,-213.6255 1516.2197,-194.6382 1481,-168 1432.7708,-131.5221 1415.4493,-127.5038 1357,-112 1274.946,-90.235 1023.7045,-74.3651 918.3127,-68.4921"/>
<polygon fill="#191970" stroke="#191970" points="918.4585,-64.995 908.2809,-67.9388 918.073,-71.9843 918.4585,-64.995"/>
</g>
<!-- Node32&#45;&gt;Node4 -->
<g id="edge83" class="edge">
<title>Node32&#45;&gt;Node4</title>
<path fill="none" stroke="#191970" d="M1640.383,-286.4491C1688.646,-280.6747 1772.6541,-267.4662 1791,-244 1796.4748,-236.9972 1795.4531,-231.693 1791,-224 1741.3163,-138.168 1626.4444,-96.2665 1556.8062,-78.0655"/>
<polygon fill="#191970" stroke="#191970" points="1557.4263,-74.6122 1546.8731,-75.5497 1555.7076,-81.3979 1557.4263,-74.6122"/>
</g>
<!-- Node33 -->
<g id="node34" class="node">
<title>Node33</title>
<polygon fill="#ffffff" stroke="#bfbfbf" points="1554,-224.5 1554,-243.5 1658,-243.5 1658,-224.5 1554,-224.5"/>
<text text-anchor="middle" x="1606" y="-231.5" font-family="Helvetica,sans-Serif" font-size="10.00" fill="#000000">l4/sys/__kip&#45;arch.h</text>
</g>
<!-- Node32&#45;&gt;Node33 -->
<g id="edge85" class="edge">
<title>Node32&#45;&gt;Node33</title>
<path fill="none" stroke="#191970" d="M1606,-280.2455C1606,-272.9382 1606,-262.6944 1606,-253.7046"/>
<polygon fill="#191970" stroke="#191970" points="1609.5001,-253.6426 1606,-243.6427 1602.5001,-253.6427 1609.5001,-253.6426"/>
</g>
<!-- Node34 -->
<g id="node35" class="node">
<title>Node34</title>
<g id="a_node35"><a xlink:href="____kip-64bit_8h_source.html" target="_top" xlink:title="l4/sys/__kip&#45;64bit.h">
<polygon fill="#ffffff" stroke="#000000" points="1316,-224.5 1316,-243.5 1422,-243.5 1422,-224.5 1316,-224.5"/>
<text text-anchor="middle" x="1369" y="-231.5" font-family="Helvetica,sans-Serif" font-size="10.00" fill="#000000">l4/sys/__kip&#45;64bit.h</text>
</a>
</g>
</g>
<!-- Node32&#45;&gt;Node34 -->
<g id="edge86" class="edge">
<title>Node32&#45;&gt;Node34</title>
<path fill="none" stroke="#191970" d="M1571.7913,-281.9169C1531.7837,-272.4636 1465.1987,-256.7305 1419.3037,-245.8861"/>
<polygon fill="#191970" stroke="#191970" points="1420.0908,-242.4758 1409.5539,-243.5824 1418.4811,-249.2882 1420.0908,-242.4758"/>
</g>
<!-- Node34&#45;&gt;Node2 -->
<g id="edge87" class="edge">
<title>Node34&#45;&gt;Node2</title>
<path fill="none" stroke="#191970" d="M1315.7053,-228.007C1218.9643,-217.1285 1015.7532,-194.2775 921.2766,-183.6536"/>
<polygon fill="#191970" stroke="#191970" points="921.4499,-180.1511 911.1214,-182.5116 920.6676,-187.1073 921.4499,-180.1511"/>
</g>
<!-- Node35&#45;&gt;Node6 -->
<g id="edge90" class="edge">
<title>Node35&#45;&gt;Node6</title>
<path fill="none" stroke="#191970" d="M1410.1679,-168.3733C1389.6897,-159.3435 1358.8601,-145.7494 1335.8681,-135.6111"/>
<polygon fill="#191970" stroke="#191970" points="1337.1093,-132.3333 1326.5472,-131.5011 1334.285,-138.7383 1337.1093,-132.3333"/>
</g>
<!-- Node36&#45;&gt;Node2 -->
<g id="edge92" class="edge">
<title>Node36&#45;&gt;Node2</title>
<path fill="none" stroke="#191970" d="M276.8054,-750.3802C248.1263,-715.6946 154,-592.8403 154,-474.5 154,-474.5 154,-474.5 154,-413 154,-319.4996 230.8146,-316.2547 317,-280 393.0548,-248.0068 413.3707,-241.516 494,-224 525.2397,-217.2134 725.5032,-194.3104 820.7735,-183.6038"/>
<polygon fill="#191970" stroke="#191970" points="821.209,-187.077 830.7562,-182.4834 820.4282,-180.1207 821.209,-187.077"/>
</g>
<!-- Node36&#45;&gt;Node3 -->
<g id="edge93" class="edge">
<title>Node36&#45;&gt;Node3</title>
<path fill="none" stroke="#191970" d="M270.4442,-750.2776C223.3266,-717.516 78,-605.8239 78,-474.5 78,-474.5 78,-474.5 78,-413 78,-331.6715 40,-315.3285 40,-234 40,-234 40,-234 40,-178 40,-98.3328 647.6102,-73.0188 823.7073,-67.3552"/>
<polygon fill="#191970" stroke="#191970" points="824.0657,-70.8458 833.9504,-67.0324 823.8451,-63.8492 824.0657,-70.8458"/>
</g>
<!-- Node36&#45;&gt;Node10 -->
<g id="edge94" class="edge">
<title>Node36&#45;&gt;Node10</title>
<path fill="none" stroke="#191970" d="M330.0953,-756.4331C454.4768,-746.5951 802.1466,-719.0957 937.8004,-708.3661"/>
<polygon fill="#191970" stroke="#191970" points="938.2704,-711.8399 947.9632,-707.5622 937.7183,-704.8617 938.2704,-711.8399"/>
</g>
<!-- Node36&#45;&gt;Node18 -->
<g id="edge98" class="edge">
<title>Node36&#45;&gt;Node18</title>
<path fill="none" stroke="#191970" d="M282.3614,-750.2958C272.3276,-711.4175 239.4467,-563.9592 287,-459 321.008,-383.9379 426.5329,-361.2788 485.3516,-354.4453"/>
<polygon fill="#191970" stroke="#191970" points="485.8407,-357.9132 495.4156,-353.3777 485.1021,-350.9523 485.8407,-357.9132"/>
</g>
<!-- Node36&#45;&gt;Node23 -->
<g id="edge97" class="edge">
<title>Node36&#45;&gt;Node23</title>
<path fill="none" stroke="#191970" d="M287.9954,-750.4318C292.9668,-736.0947 304.2726,-709.1112 323,-694 403.321,-629.189 525.622,-605.2162 593.0715,-596.6084"/>
<polygon fill="#191970" stroke="#191970" points="593.9049,-600.0331 603.4109,-595.3549 593.0624,-593.0839 593.9049,-600.0331"/>
</g>
<!-- Node36&#45;&gt;Node24 -->
<g id="edge96" class="edge">
<title>Node36&#45;&gt;Node24</title>
<path fill="none" stroke="#191970" d="M287.2719,-750.1724C296.7721,-709.0766 333.4235,-550.5318 346.4077,-494.3651"/>
<polygon fill="#191970" stroke="#191970" points="349.8953,-494.8176 348.7377,-484.2862 343.0752,-493.2409 349.8953,-494.8176"/>
</g>
<!-- Node36&#45;&gt;Node27 -->
<g id="edge95" class="edge">
<title>Node36&#45;&gt;Node27</title>
<path fill="none" stroke="#191970" d="M301.1994,-750.2455C315.6018,-741.5731 336.8732,-728.7645 353.3799,-718.825"/>
<polygon fill="#191970" stroke="#191970" points="355.225,-721.7996 361.9863,-713.6427 351.614,-715.8028 355.225,-721.7996"/>
</g>
<!-- Node37&#45;&gt;Node10 -->
<g id="edge100" class="edge">
<title>Node37&#45;&gt;Node10</title>
<path fill="none" stroke="#191970" d="M703.7104,-753.8468C760.3308,-744.0907 871.1206,-725.0008 937.956,-713.4845"/>
<polygon fill="#191970" stroke="#191970" points="938.6278,-716.9204 947.8882,-711.7731 937.4391,-710.0221 938.6278,-716.9204"/>
</g>
<!-- Node37&#45;&gt;Node23 -->
<g id="edge102" class="edge">
<title>Node37&#45;&gt;Node23</title>
<path fill="none" stroke="#191970" d="M666.5276,-750.4862C662.4176,-723.9293 650.7541,-648.5651 645.1209,-612.1655"/>
<polygon fill="#191970" stroke="#191970" points="648.5093,-611.1749 643.521,-601.8279 641.5917,-612.2456 648.5093,-611.1749"/>
</g>
<!-- Node37&#45;&gt;Node27 -->
<g id="edge101" class="edge">
<title>Node37&#45;&gt;Node27</title>
<path fill="none" stroke="#191970" d="M632.4403,-753.1333C582.8993,-743.5668 492.6092,-726.1314 433.9843,-714.8108"/>
<polygon fill="#191970" stroke="#191970" points="434.6239,-711.3697 424.1417,-712.9101 433.2966,-718.2427 434.6239,-711.3697"/>
</g>
<!-- Node38&#45;&gt;Node10 -->
<g id="edge104" class="edge">
<title>Node38&#45;&gt;Node10</title>
<path fill="none" stroke="#191970" d="M938.5471,-806.2772C946.1532,-797.2975 957.2433,-783.3662 965,-770 973.6761,-755.0496 981.1789,-736.8969 986.2282,-723.4161"/>
<polygon fill="#191970" stroke="#191970" points="989.6121,-724.3509 989.7272,-713.7567 983.0306,-721.9668 989.6121,-724.3509"/>
</g>
<!-- Node39 -->
<g id="node40" class="node">
<title>Node39</title>
<g id="a_node40"><a xlink:href="factory.html" target="_top" xlink:title="Common factory related definitions. ">
<polygon fill="#ffffff" stroke="#000000" points="877.5,-750.5 877.5,-769.5 956.5,-769.5 956.5,-750.5 877.5,-750.5"/>
<text text-anchor="middle" x="917" y="-757.5" font-family="Helvetica,sans-Serif" font-size="10.00" fill="#000000">l4/sys/factory</text>
</a>
</g>
</g>
<!-- Node38&#45;&gt;Node39 -->
<g id="edge105" class="edge">
<title>Node38&#45;&gt;Node39</title>
<path fill="none" stroke="#191970" d="M927.7356,-806.2455C926.0206,-798.8579 923.6088,-788.4689 921.5056,-779.4087"/>
<polygon fill="#191970" stroke="#191970" points="924.9092,-778.5922 919.2385,-769.6427 918.0905,-780.1751 924.9092,-778.5922"/>
</g>
<!-- Node39&#45;&gt;Node10 -->
<g id="edge111" class="edge">
<title>Node39&#45;&gt;Node10</title>
<path fill="none" stroke="#191970" d="M930.2382,-750.2455C941.681,-741.814 958.4296,-729.4729 971.7475,-719.6598"/>
<polygon fill="#191970" stroke="#191970" points="973.9391,-722.3924 979.9135,-713.6427 969.7867,-716.757 973.9391,-722.3924"/>
</g>
<!-- Node39&#45;&gt;Node23 -->
<g id="edge112" class="edge">
<title>Node39&#45;&gt;Node23</title>
<path fill="none" stroke="#191970" d="M901.4269,-750.4862C855.7783,-722.5991 722.0327,-640.8927 666.5537,-607.0001"/>
<polygon fill="#191970" stroke="#191970" points="668.1014,-603.8442 657.7432,-601.6177 664.4521,-609.8177 668.1014,-603.8442"/>
</g>
<!-- Node40 -->
<g id="node41" class="node">
<title>Node40</title>
<g id="a_node41"><a xlink:href="factory_8h.html" target="_top" xlink:title="Common factory related definitions. ">
<polygon fill="#ffffff" stroke="#000000" points="933.5,-342 933.5,-361 1020.5,-361 1020.5,-342 933.5,-342"/>
<text text-anchor="middle" x="977" y="-349" font-family="Helvetica,sans-Serif" font-size="10.00" fill="#000000">l4/sys/factory.h</text>
</a>
</g>
</g>
<!-- Node39&#45;&gt;Node40 -->
<g id="edge106" class="edge">
<title>Node39&#45;&gt;Node40</title>
<path fill="none" stroke="#191970" d="M956.6163,-754.1953C984.7183,-748.2804 1021.7748,-736.6116 1047,-714 1108.724,-658.6713 1109.5361,-626.8096 1128,-546 1146.428,-465.3475 1050.6999,-395.4823 1002.8807,-366.1864"/>
<polygon fill="#191970" stroke="#191970" points="1004.6533,-363.1684 994.2753,-361.0357 1001.0582,-369.1747 1004.6533,-363.1684"/>
</g>
<!-- Node41 -->
<g id="node42" class="node">
<title>Node41</title>
<g id="a_node42"><a xlink:href="ipc__varg_source.html" target="_top" xlink:title="l4/sys/cxx/ipc_varg">
<polygon fill="#ffffff" stroke="#000000" points="822,-465 822,-484 928,-484 928,-465 822,-465"/>
<text text-anchor="middle" x="875" y="-472" font-family="Helvetica,sans-Serif" font-size="10.00" fill="#000000">l4/sys/cxx/ipc_varg</text>
</a>
</g>
</g>
<!-- Node39&#45;&gt;Node41 -->
<g id="edge113" class="edge">
<title>Node39&#45;&gt;Node41</title>
<path fill="none" stroke="#191970" d="M915.8433,-750.4965C913.3226,-729.9482 907.0719,-679.8585 901,-638 893.4632,-586.0423 883.4446,-524.9892 878.323,-494.2735"/>
<polygon fill="#191970" stroke="#191970" points="881.7179,-493.3542 876.6153,-484.069 874.814,-494.5096 881.7179,-493.3542"/>
</g>
<!-- Node40&#45;&gt;Node2 -->
<g id="edge108" class="edge">
<title>Node40&#45;&gt;Node2</title>
<path fill="none" stroke="#191970" d="M972.9284,-341.7856C963.5385,-319.8606 939.012,-265.236 911,-224 904.0598,-213.7835 895.1345,-203.3221 887.4764,-194.9623"/>
<polygon fill="#191970" stroke="#191970" points="890.0246,-192.563 880.6284,-187.6678 884.9211,-197.3541 890.0246,-192.563"/>
</g>
<!-- Node40&#45;&gt;Node4 -->
<g id="edge107" class="edge">
<title>Node40&#45;&gt;Node4</title>
<path fill="none" stroke="#191970" d="M1017.6368,-341.9896C1054.1737,-332.9128 1109.0078,-317.9786 1155,-300 1225.3457,-272.5015 1235.6403,-248.7485 1307,-224 1381.6114,-198.1238 1426.5586,-245.2064 1481,-188 1507.1193,-160.5541 1506.2287,-112.8506 1503.1742,-85.9456"/>
<polygon fill="#191970" stroke="#191970" points="1506.612,-85.2496 1501.805,-75.808 1499.675,-86.1865 1506.612,-85.2496"/>
</g>
<!-- Node40&#45;&gt;Node13 -->
<g id="edge109" class="edge">
<title>Node40&#45;&gt;Node13</title>
<path fill="none" stroke="#191970" d="M982.7284,-341.8845C994.3677,-322.3471 1020.9534,-277.7211 1036.032,-252.4106"/>
<polygon fill="#191970" stroke="#191970" points="1039.0812,-254.1307 1041.1925,-243.7484 1033.0675,-250.5481 1039.0812,-254.1307"/>
</g>
<!-- Node40&#45;&gt;Node15 -->
<g id="edge110" class="edge">
<title>Node40&#45;&gt;Node15</title>
<path fill="none" stroke="#191970" d="M998.0938,-341.8906C1020.5827,-331.6457 1056.3918,-315.3326 1081.8524,-303.7339"/>
<polygon fill="#191970" stroke="#191970" points="1083.4052,-306.8727 1091.0544,-299.5419 1080.5032,-300.5025 1083.4052,-306.8727"/>
</g>
<!-- Node41&#45;&gt;Node18 -->
<g id="edge114" class="edge">
<title>Node41&#45;&gt;Node18</title>
<path fill="none" stroke="#191970" d="M868.0496,-464.8055C856.2099,-449.0819 830.5238,-418.2458 801,-403 760.7501,-382.2154 633.1666,-364.3789 566.8788,-356.2283"/>
<polygon fill="#191970" stroke="#191970" points="567.1379,-352.7341 556.7891,-355.0043 566.2948,-359.6832 567.1379,-352.7341"/>
</g>
<!-- Node41&#45;&gt;Node19 -->
<g id="edge115" class="edge">
<title>Node41&#45;&gt;Node19</title>
<path fill="none" stroke="#191970" d="M855.4688,-464.8906C834.8292,-454.7359 802.0724,-438.6196 778.5398,-427.0416"/>
<polygon fill="#191970" stroke="#191970" points="779.912,-423.8161 769.3941,-422.5419 776.8218,-430.0971 779.912,-423.8161"/>
</g>
<!-- Node43 -->
<g id="node44" class="node">
<title>Node43</title>
<g id="a_node44"><a xlink:href="vcon.html" target="_top" xlink:title="Virtual console interface. ">
<polygon fill="#ffffff" stroke="#000000" points="1019.5,-918.5 1019.5,-937.5 1088.5,-937.5 1088.5,-918.5 1019.5,-918.5"/>
<text text-anchor="middle" x="1054" y="-925.5" font-family="Helvetica,sans-Serif" font-size="10.00" fill="#000000">l4/sys/vcon</text>
</a>
</g>
</g>
<!-- Node42&#45;&gt;Node43 -->
<g id="edge117" class="edge">
<title>Node42&#45;&gt;Node43</title>
<path fill="none" stroke="#191970" d="M1009.4061,-974.2455C1017.1493,-966.2155 1028.312,-954.6394 1037.5318,-945.0781"/>
<polygon fill="#191970" stroke="#191970" points="1040.2798,-947.2706 1044.7017,-937.6427 1035.2409,-942.4117 1040.2798,-947.2706"/>
</g>
<!-- Node43&#45;&gt;Node10 -->
<g id="edge140" class="edge">
<title>Node43&#45;&gt;Node10</title>
<path fill="none" stroke="#191970" d="M1051.3789,-918.375C1042.1108,-884.3415 1010.7722,-769.262 998.2414,-723.247"/>
<polygon fill="#191970" stroke="#191970" points="1001.616,-722.3181 995.6113,-713.5891 994.8619,-724.1574 1001.616,-722.3181"/>
</g>
<!-- Node44 -->
<g id="node45" class="node">
<title>Node44</title>
<g id="a_node45"><a xlink:href="icu.html" target="_top" xlink:title="Interrupt controller. ">
<polygon fill="#ffffff" stroke="#000000" points="1051.5,-862.5 1051.5,-881.5 1110.5,-881.5 1110.5,-862.5 1051.5,-862.5"/>
<text text-anchor="middle" x="1081" y="-869.5" font-family="Helvetica,sans-Serif" font-size="10.00" fill="#000000">l4/sys/icu</text>
</a>
</g>
</g>
<!-- Node43&#45;&gt;Node44 -->
<g id="edge118" class="edge">
<title>Node43&#45;&gt;Node44</title>
<path fill="none" stroke="#191970" d="M1058.703,-918.2455C1062.3424,-910.6973 1067.4924,-900.0158 1071.9262,-890.8197"/>
<polygon fill="#191970" stroke="#191970" points="1075.1605,-892.1704 1076.3509,-881.6427 1068.8551,-889.1303 1075.1605,-892.1704"/>
</g>
<!-- Node50 -->
<g id="node51" class="node">
<title>Node50</title>
<g id="a_node51"><a xlink:href="vcon_8h.html" target="_top" xlink:title="Virtual console interface. ">
<polygon fill="#ffffff" stroke="#000000" points="1347.5,-638.5 1347.5,-657.5 1424.5,-657.5 1424.5,-638.5 1347.5,-638.5"/>
<text text-anchor="middle" x="1386" y="-645.5" font-family="Helvetica,sans-Serif" font-size="10.00" fill="#000000">l4/sys/vcon.h</text>
</a>
</g>
</g>
<!-- Node43&#45;&gt;Node50 -->
<g id="edge138" class="edge">
<title>Node43&#45;&gt;Node50</title>
<path fill="none" stroke="#191970" d="M1088.6441,-920.9725C1160.4755,-905.405 1319,-865.4478 1319,-816 1319,-816 1319,-816 1319,-760 1319,-721.7946 1348.0669,-685.3286 1367.9102,-664.8854"/>
<polygon fill="#191970" stroke="#191970" points="1370.597,-667.1503 1375.2353,-657.6248 1365.6691,-662.1788 1370.597,-667.1503"/>
</g>
<!-- Node45 -->
<g id="node46" class="node">
<title>Node45</title>
<g id="a_node46"><a xlink:href="irq.html" target="_top" xlink:title="C++ Irq interface. ">
<polygon fill="#ffffff" stroke="#000000" points="1051.5,-806.5 1051.5,-825.5 1110.5,-825.5 1110.5,-806.5 1051.5,-806.5"/>
<text text-anchor="middle" x="1081" y="-813.5" font-family="Helvetica,sans-Serif" font-size="10.00" fill="#000000">l4/sys/irq</text>
</a>
</g>
</g>
<!-- Node44&#45;&gt;Node45 -->
<g id="edge119" class="edge">
<title>Node44&#45;&gt;Node45</title>
<path fill="none" stroke="#191970" d="M1081,-862.2455C1081,-854.9382 1081,-844.6944 1081,-835.7046"/>
<polygon fill="#191970" stroke="#191970" points="1084.5001,-835.6426 1081,-825.6427 1077.5001,-835.6427 1084.5001,-835.6426"/>
</g>
<!-- Node45&#45;&gt;Node10 -->
<g id="edge130" class="edge">
<title>Node45&#45;&gt;Node10</title>
<path fill="none" stroke="#191970" d="M1075.2355,-806.2334C1067.27,-793.0161 1052.157,-768.9133 1037,-750 1028.8515,-739.8321 1018.8754,-729.2725 1010.4837,-720.8389"/>
<polygon fill="#191970" stroke="#191970" points="1012.8945,-718.3007 1003.3203,-713.7636 1007.9755,-723.281 1012.8945,-718.3007"/>
</g>
<!-- Node45&#45;&gt;Node23 -->
<g id="edge136" class="edge">
<title>Node45&#45;&gt;Node23</title>
<path fill="none" stroke="#191970" d="M1051.4989,-813.6577C1009.1889,-809.4212 929.5925,-798.1459 868,-770 778.0454,-728.8935 692.0293,-644.8753 657.6827,-608.9283"/>
<polygon fill="#191970" stroke="#191970" points="660.2075,-606.5042 650.7971,-601.6365 655.1181,-611.3102 660.2075,-606.5042"/>
</g>
<!-- Node45&#45;&gt;Node24 -->
<g id="edge137" class="edge">
<title>Node45&#45;&gt;Node24</title>
<path fill="none" stroke="#191970" d="M1051.2853,-812.9107C1032.0886,-810.9213 1006.5698,-808.2888 984,-806 903.7912,-797.8662 690.9386,-813.4045 623,-770 516.886,-702.206 574.4872,-608.0877 479,-526 457.3521,-507.3899 428.1186,-494.9457 403.0541,-486.9599"/>
<polygon fill="#191970" stroke="#191970" points="403.9059,-483.5609 393.3206,-484.0114 401.8764,-490.2603 403.9059,-483.5609"/>
</g>
<!-- Node46 -->
<g id="node47" class="node">
<title>Node46</title>
<g id="a_node47"><a xlink:href="icu_8h.html" target="_top" xlink:title="Interrupt controller. ">
<polygon fill="#ffffff" stroke="#000000" points="1183,-465 1183,-484 1251,-484 1251,-465 1183,-465"/>
<text text-anchor="middle" x="1217" y="-472" font-family="Helvetica,sans-Serif" font-size="10.00" fill="#000000">l4/sys/icu.h</text>
</a>
</g>
</g>
<!-- Node45&#45;&gt;Node46 -->
<g id="edge120" class="edge">
<title>Node45&#45;&gt;Node46</title>
<path fill="none" stroke="#191970" d="M1110.721,-812.7435C1139.0684,-808.0755 1181.0371,-796.8368 1206,-770 1226.7898,-747.6496 1225,-734.5246 1225,-704 1225,-704 1225,-704 1225,-648 1225,-592.4091 1220.851,-526.9054 1218.5289,-494.597"/>
<polygon fill="#191970" stroke="#191970" points="1221.9938,-493.9908 1217.7671,-484.2756 1215.0127,-494.5062 1221.9938,-493.9908"/>
</g>
<!-- Node47 -->
<g id="node48" class="node">
<title>Node47</title>
<g id="a_node48"><a xlink:href="l4_2sys_2irq_8h.html" target="_top" xlink:title="C Irq interface. ">
<polygon fill="#ffffff" stroke="#000000" points="1269.5,-465 1269.5,-484 1336.5,-484 1336.5,-465 1269.5,-465"/>
<text text-anchor="middle" x="1303" y="-472" font-family="Helvetica,sans-Serif" font-size="10.00" fill="#000000">l4/sys/irq.h</text>
</a>
</g>
</g>
<!-- Node45&#45;&gt;Node47 -->
<g id="edge123" class="edge">
<title>Node45&#45;&gt;Node47</title>
<path fill="none" stroke="#191970" d="M1110.7954,-810.1673C1148.6509,-802.1755 1211.0028,-786.8766 1227,-770 1302.2121,-690.6534 1305.5487,-547.1783 1304.0174,-494.5509"/>
<polygon fill="#191970" stroke="#191970" points="1307.5023,-494.0923 1303.6154,-484.2362 1300.5076,-494.3649 1307.5023,-494.0923"/>
</g>
<!-- Node49 -->
<g id="node50" class="node">
<title>Node49</title>
<g id="a_node50"><a xlink:href="rcv__endpoint.html" target="_top" xlink:title="The C++ Receive endpoint interface. ">
<polygon fill="#ffffff" stroke="#000000" points="1089,-750.5 1089,-769.5 1197,-769.5 1197,-750.5 1089,-750.5"/>
<text text-anchor="middle" x="1143" y="-757.5" font-family="Helvetica,sans-Serif" font-size="10.00" fill="#000000">l4/sys/rcv_endpoint</text>
</a>
</g>
</g>
<!-- Node45&#45;&gt;Node49 -->
<g id="edge131" class="edge">
<title>Node45&#45;&gt;Node49</title>
<path fill="none" stroke="#191970" d="M1091.7996,-806.2455C1100.8678,-798.0549 1114.0206,-786.1749 1124.7245,-776.5069"/>
<polygon fill="#191970" stroke="#191970" points="1127.2491,-778.9429 1132.3242,-769.6427 1122.5571,-773.7482 1127.2491,-778.9429"/>
</g>
<!-- Node46&#45;&gt;Node12 -->
<g id="edge121" class="edge">
<title>Node46&#45;&gt;Node12</title>
<path fill="none" stroke="#191970" d="M1213.25,-464.8906C1209.8532,-456.1862 1204.7469,-443.1015 1200.512,-432.2494"/>
<polygon fill="#191970" stroke="#191970" points="1203.6989,-430.7882 1196.8029,-422.7449 1197.1778,-433.3331 1203.6989,-430.7882"/>
</g>
<!-- Node46&#45;&gt;Node15 -->
<g id="edge122" class="edge">
<title>Node46&#45;&gt;Node15</title>
<path fill="none" stroke="#191970" d="M1224.4191,-464.9048C1231.5489,-455.0279 1241.8361,-438.8809 1246,-423 1256.0885,-384.5234 1251.9376,-365.2675 1225,-336 1214.8311,-324.9516 1181.2646,-312.0313 1153.3367,-302.7015"/>
<polygon fill="#191970" stroke="#191970" points="1154.3337,-299.3452 1143.741,-299.5602 1152.1558,-305.9978 1154.3337,-299.3452"/>
</g>
<!-- Node47&#45;&gt;Node12 -->
<g id="edge124" class="edge">
<title>Node47&#45;&gt;Node12</title>
<path fill="none" stroke="#191970" d="M1285.8125,-464.8906C1267.8918,-454.8713 1239.5905,-439.0483 1218.9477,-427.5071"/>
<polygon fill="#191970" stroke="#191970" points="1220.5033,-424.367 1210.0668,-422.5419 1217.0872,-430.4769 1220.5033,-424.367"/>
</g>
<!-- Node47&#45;&gt;Node15 -->
<g id="edge125" class="edge">
<title>Node47&#45;&gt;Node15</title>
<path fill="none" stroke="#191970" d="M1302.109,-464.9107C1299.2847,-440.0072 1288.313,-372.6732 1250,-336 1242.8825,-329.1871 1193.1619,-313.5868 1155.4238,-302.4442"/>
<polygon fill="#191970" stroke="#191970" points="1156.2136,-299.0285 1145.6328,-299.5733 1154.244,-305.7457 1156.2136,-299.0285"/>
</g>
<!-- Node48 -->
<g id="node49" class="node">
<title>Node48</title>
<g id="a_node49"><a xlink:href="rcv__endpoint_8h.html" target="_top" xlink:title="Receive endpoint C interface. ">
<polygon fill="#ffffff" stroke="#000000" points="1369,-342 1369,-361 1485,-361 1485,-342 1369,-342"/>
<text text-anchor="middle" x="1427" y="-349" font-family="Helvetica,sans-Serif" font-size="10.00" fill="#000000">l4/sys/rcv_endpoint.h</text>
</a>
</g>
</g>
<!-- Node47&#45;&gt;Node48 -->
<g id="edge126" class="edge">
<title>Node47&#45;&gt;Node48</title>
<path fill="none" stroke="#191970" d="M1312.7301,-464.8484C1333.7369,-444.011 1383.5635,-394.5862 1409.94,-368.4224"/>
<polygon fill="#191970" stroke="#191970" points="1412.6803,-370.6341 1417.3151,-361.1068 1407.7506,-365.6643 1412.6803,-370.6341"/>
</g>
<!-- Node48&#45;&gt;Node2 -->
<g id="edge128" class="edge">
<title>Node48&#45;&gt;Node2</title>
<path fill="none" stroke="#191970" d="M1394.952,-341.9316C1363.7147,-332.321 1315.0564,-316.5925 1274,-300 1201.0097,-270.5018 1188.8455,-248.4105 1114,-224 1049.2134,-202.8701 971.359,-190.2594 921.5412,-183.7261"/>
<polygon fill="#191970" stroke="#191970" points="921.7141,-180.2198 911.3509,-182.4233 920.8263,-187.1633 921.7141,-180.2198"/>
</g>
<!-- Node48&#45;&gt;Node13 -->
<g id="edge127" class="edge">
<title>Node48&#45;&gt;Node13</title>
<path fill="none" stroke="#191970" d="M1383.3849,-341.9432C1319.4337,-327.894 1206.7996,-302.9972 1198,-300 1178.0484,-293.2044 1174.2539,-288.5753 1155,-280 1129.8148,-268.783 1101.0883,-256.5756 1079.5963,-247.5568"/>
<polygon fill="#191970" stroke="#191970" points="1080.8452,-244.2854 1070.2693,-243.6524 1078.1422,-250.7424 1080.8452,-244.2854"/>
</g>
<!-- Node48&#45;&gt;Node15 -->
<g id="edge129" class="edge">
<title>Node48&#45;&gt;Node15</title>
<path fill="none" stroke="#191970" d="M1383.639,-341.949C1374.2088,-339.9324 1364.2783,-337.8548 1355,-336 1268.5786,-318.7242 1246.4783,-316.9885 1160,-300 1158.7314,-299.7508 1157.4445,-299.496 1156.1457,-299.237"/>
<polygon fill="#191970" stroke="#191970" points="1156.5645,-295.7509 1146.069,-297.1978 1155.1761,-302.6119 1156.5645,-295.7509"/>
</g>
<!-- Node49&#45;&gt;Node2 -->
<g id="edge133" class="edge">
<title>Node49&#45;&gt;Node2</title>
<path fill="none" stroke="#191970" d="M1140.7622,-750.0629C1132.9496,-716.6351 1104.7365,-605.8787 1057,-526 1019.5297,-463.3 1010.7376,-440.4072 948,-403 887.6274,-367.0029 837.6807,-422.0694 794,-367 750.6034,-312.2888 819.6698,-229.7934 853.7522,-194.7254"/>
<polygon fill="#191970" stroke="#191970" points="856.2528,-197.1745 860.8211,-187.6151 851.2886,-192.2392 856.2528,-197.1745"/>
</g>
<!-- Node49&#45;&gt;Node10 -->
<g id="edge134" class="edge">
<title>Node49&#45;&gt;Node10</title>
<path fill="none" stroke="#191970" d="M1117.2141,-750.3733C1092.5953,-741.1822 1055.31,-727.2624 1028.0125,-717.0713"/>
<polygon fill="#191970" stroke="#191970" points="1029.042,-713.7198 1018.4494,-713.5011 1026.5937,-720.2777 1029.042,-713.7198"/>
</g>
<!-- Node49&#45;&gt;Node23 -->
<g id="edge135" class="edge">
<title>Node49&#45;&gt;Node23</title>
<path fill="none" stroke="#191970" d="M1132.4268,-750.2883C1115.6789,-735.5061 1081.407,-707.6417 1047,-694 949.1841,-655.2179 914.6735,-685.1017 813,-658 762.0658,-644.4232 705.4506,-620.7828 671.8322,-605.787"/>
<polygon fill="#191970" stroke="#191970" points="673.1314,-602.5335 662.5763,-601.6168 670.256,-608.9157 673.1314,-602.5335"/>
</g>
<!-- Node49&#45;&gt;Node48 -->
<g id="edge132" class="edge">
<title>Node49&#45;&gt;Node48</title>
<path fill="none" stroke="#191970" d="M1152.035,-750.2449C1179.0687,-720.7986 1260.9763,-629.6853 1318,-546 1359.8594,-484.5692 1400.2556,-405.85 1417.8274,-370.3511"/>
<polygon fill="#191970" stroke="#191970" points="1421.0747,-371.6788 1422.3433,-361.1602 1414.7921,-368.5918 1421.0747,-371.6788"/>
</g>
<!-- Node50&#45;&gt;Node15 -->
<g id="edge139" class="edge">
<title>Node50&#45;&gt;Node15</title>
<path fill="none" stroke="#191970" d="M1384.9971,-638.4242C1383.0615,-619.0891 1379,-573.9907 1379,-536 1379,-536 1379,-536 1379,-474.5 1379,-397.7883 1339.2085,-379.4669 1276,-336 1270.9208,-332.5072 1202.8658,-314.0449 1156.0378,-301.5982"/>
<polygon fill="#191970" stroke="#191970" points="1156.669,-298.1446 1146.1059,-298.9638 1154.8743,-304.9107 1156.669,-298.1446"/>
</g>
</g>
</svg>
