<?xml version="1.0" encoding="UTF-8" standalone="no"?>
<!DOCTYPE svg PUBLIC "-//W3C//DTD SVG 1.1//EN"
 "http://www.w3.org/Graphics/SVG/1.1/DTD/svg11.dtd">
<!-- Generated by graphviz version 2.40.1 (20161225.0304)
 -->
<!-- Title: l4/sys/irq.h Pages: 1 -->
<svg width="1235pt" height="453pt"
 viewBox="0.00 0.00 1234.50 453.00" xmlns="http://www.w3.org/2000/svg" xmlns:xlink="http://www.w3.org/1999/xlink">
<g id="graph0" class="graph" transform="scale(1 1) rotate(0) translate(4 449)">
<title>l4/sys/irq.h</title>
<polygon fill="#ffffff" stroke="transparent" points="-4,4 -4,-449 1230.5,-449 1230.5,4 -4,4"/>
<!-- Node14 -->
<g id="node1" class="node">
<title>Node14</title>
<polygon fill="#bfbfbf" stroke="#000000" points="342,-425.5 342,-444.5 409,-444.5 409,-425.5 342,-425.5"/>
<text text-anchor="middle" x="375.5" y="-432.5" font-family="Helvetica,sans-Serif" font-size="10.00" fill="#000000">l4/sys/irq.h</text>
</g>
<!-- Node15 -->
<g id="node2" class="node">
<title>Node15</title>
<g id="a_node2"><a xlink:href="internal_8h_source.html" target="_top" xlink:title="l4/shmc/internal.h">
<polygon fill="#ffffff" stroke="#000000" points="155,-369.5 155,-388.5 254,-388.5 254,-369.5 155,-369.5"/>
<text text-anchor="middle" x="204.5" y="-376.5" font-family="Helvetica,sans-Serif" font-size="10.00" fill="#000000">l4/shmc/internal.h</text>
</a>
</g>
</g>
<!-- Node14&#45;&gt;Node15 -->
<g id="edge1" class="edge">
<title>Node14&#45;&gt;Node15</title>
<path fill="none" stroke="#191970" d="M336.3852,-422.1905C305.0568,-411.9309 261.8129,-397.7691 233.5124,-388.5011"/>
<polygon fill="#191970" stroke="#191970" points="335.5114,-425.5872 346.1041,-425.3733 337.69,-418.9348 335.5114,-425.5872"/>
</g>
<!-- Node17 -->
<g id="node4" class="node">
<title>Node17</title>
<g id="a_node4"><a xlink:href="irq.html" target="_top" xlink:title="C++ Irq interface. ">
<polygon fill="#ffffff" stroke="#000000" points="346,-369.5 346,-388.5 405,-388.5 405,-369.5 346,-369.5"/>
<text text-anchor="middle" x="375.5" y="-376.5" font-family="Helvetica,sans-Serif" font-size="10.00" fill="#000000">l4/sys/irq</text>
</a>
</g>
</g>
<!-- Node14&#45;&gt;Node17 -->
<g id="edge3" class="edge">
<title>Node14&#45;&gt;Node17</title>
<path fill="none" stroke="#191970" d="M375.5,-415.1575C375.5,-406.155 375.5,-395.9199 375.5,-388.6427"/>
<polygon fill="#191970" stroke="#191970" points="372.0001,-415.2455 375.5,-425.2455 379.0001,-415.2456 372.0001,-415.2455"/>
</g>
<!-- Node48 -->
<g id="node35" class="node">
<title>Node48</title>
<g id="a_node35"><a xlink:href="semaphore_8h_source.html" target="_top" xlink:title="l4/sys/semaphore.h">
<polygon fill="#ffffff" stroke="#000000" points="596.5,-369.5 596.5,-388.5 704.5,-388.5 704.5,-369.5 596.5,-369.5"/>
<text text-anchor="middle" x="650.5" y="-376.5" font-family="Helvetica,sans-Serif" font-size="10.00" fill="#000000">l4/sys/semaphore.h</text>
</a>
</g>
</g>
<!-- Node14&#45;&gt;Node48 -->
<g id="edge42" class="edge">
<title>Node14&#45;&gt;Node48</title>
<path fill="none" stroke="#191970" d="M419.1477,-426.1117C469.4913,-415.86 551.9429,-399.0698 603.6163,-388.5472"/>
<polygon fill="#191970" stroke="#191970" points="418.3209,-422.7082 409.2204,-428.1333 419.7177,-429.5674 418.3209,-422.7082"/>
</g>
<!-- Node16 -->
<g id="node3" class="node">
<title>Node16</title>
<g id="a_node3"><a xlink:href="shmc_8h.html" target="_top" xlink:title="Shared memory library header file. ">
<polygon fill="#ffffff" stroke="#000000" points="0,-313.5 0,-332.5 89,-332.5 89,-313.5 0,-313.5"/>
<text text-anchor="middle" x="44.5" y="-320.5" font-family="Helvetica,sans-Serif" font-size="10.00" fill="#000000">l4/shmc/shmc.h</text>
</a>
</g>
</g>
<!-- Node15&#45;&gt;Node16 -->
<g id="edge2" class="edge">
<title>Node15&#45;&gt;Node16</title>
<path fill="none" stroke="#191970" d="M167.5201,-366.057C138.2382,-355.8084 98.0115,-341.729 71.6461,-332.5011"/>
<polygon fill="#191970" stroke="#191970" points="166.4002,-369.3732 176.995,-369.3733 168.7127,-362.7662 166.4002,-369.3732"/>
</g>
<!-- Node18 -->
<g id="node5" class="node">
<title>Node18</title>
<g id="a_node5"><a xlink:href="icu.html" target="_top" xlink:title="Interrupt controller. ">
<polygon fill="#ffffff" stroke="#000000" points="610,-313.5 610,-332.5 669,-332.5 669,-313.5 610,-313.5"/>
<text text-anchor="middle" x="639.5" y="-320.5" font-family="Helvetica,sans-Serif" font-size="10.00" fill="#000000">l4/sys/icu</text>
</a>
</g>
</g>
<!-- Node17&#45;&gt;Node18 -->
<g id="edge4" class="edge">
<title>Node17&#45;&gt;Node18</title>
<path fill="none" stroke="#191970" d="M415.1156,-370.5967C468.4316,-359.2872 562.0775,-339.423 609.7705,-329.3063"/>
<polygon fill="#191970" stroke="#191970" points="414.0718,-367.2402 405.0157,-372.7391 415.5243,-374.0878 414.0718,-367.2402"/>
</g>
<!-- Node43 -->
<g id="node30" class="node">
<title>Node43</title>
<g id="a_node30"><a xlink:href="l4virtio_source.html" target="_top" xlink:title="l4/l4virtio/l4virtio">
<polygon fill="#ffffff" stroke="#000000" points="35.5,-140 35.5,-159 127.5,-159 127.5,-140 35.5,-140"/>
<text text-anchor="middle" x="81.5" y="-147" font-family="Helvetica,sans-Serif" font-size="10.00" fill="#000000">l4/l4virtio/l4virtio</text>
</a>
</g>
</g>
<!-- Node17&#45;&gt;Node43 -->
<g id="edge32" class="edge">
<title>Node17&#45;&gt;Node43</title>
<path fill="none" stroke="#191970" d="M335.6379,-371.6024C284.1375,-360.0651 194.789,-333.0288 141.5,-277 107.2747,-241.015 89.6006,-181.928 83.7494,-159.0047"/>
<polygon fill="#191970" stroke="#191970" points="335.2065,-375.0896 345.7189,-373.7707 336.6785,-368.2461 335.2065,-375.0896"/>
</g>
<!-- Node44 -->
<g id="node31" class="node">
<title>Node44</title>
<g id="a_node31"><a xlink:href="semaphore.html" target="_top" xlink:title="Semaphore class definition. ">
<polygon fill="#ffffff" stroke="#000000" points="687.5,-313.5 687.5,-332.5 787.5,-332.5 787.5,-313.5 687.5,-313.5"/>
<text text-anchor="middle" x="737.5" y="-320.5" font-family="Helvetica,sans-Serif" font-size="10.00" fill="#000000">l4/sys/semaphore</text>
</a>
</g>
</g>
<!-- Node17&#45;&gt;Node44 -->
<g id="edge34" class="edge">
<title>Node17&#45;&gt;Node44</title>
<path fill="none" stroke="#191970" d="M415.3964,-373.1668C473.3755,-364.639 584.2877,-348.1344 678.5,-333 681.3721,-332.5386 684.3218,-332.0585 687.2977,-331.5694"/>
<polygon fill="#191970" stroke="#191970" points="414.5875,-369.748 405.2024,-374.6642 415.6049,-376.6737 414.5875,-369.748"/>
</g>
<!-- Node45 -->
<g id="node32" class="node">
<title>Node45</title>
<g id="a_node32"><a xlink:href="event_source.html" target="_top" xlink:title="l4/re/event">
<polygon fill="#ffffff" stroke="#000000" points="256,-313.5 256,-332.5 323,-332.5 323,-313.5 256,-313.5"/>
<text text-anchor="middle" x="289.5" y="-320.5" font-family="Helvetica,sans-Serif" font-size="10.00" fill="#000000">l4/re/event</text>
</a>
</g>
</g>
<!-- Node17&#45;&gt;Node45 -->
<g id="edge36" class="edge">
<title>Node17&#45;&gt;Node45</title>
<path fill="none" stroke="#191970" d="M352.1095,-363.769C336.8701,-353.8456 317.4491,-341.1994 304.3084,-332.6427"/>
<polygon fill="#191970" stroke="#191970" points="350.2301,-366.7218 360.5199,-369.2455 354.0498,-360.8558 350.2301,-366.7218"/>
</g>
<!-- Node19 -->
<g id="node6" class="node">
<title>Node19</title>
<g id="a_node6"><a xlink:href="vcon.html" target="_top" xlink:title="Virtual console interface. ">
<polygon fill="#ffffff" stroke="#000000" points="763,-257.5 763,-276.5 832,-276.5 832,-257.5 763,-257.5"/>
<text text-anchor="middle" x="797.5" y="-264.5" font-family="Helvetica,sans-Serif" font-size="10.00" fill="#000000">l4/sys/vcon</text>
</a>
</g>
</g>
<!-- Node18&#45;&gt;Node19 -->
<g id="edge5" class="edge">
<title>Node18&#45;&gt;Node19</title>
<path fill="none" stroke="#191970" d="M676.3955,-309.9231C705.2787,-299.686 744.7706,-285.6889 770.6933,-276.5011"/>
<polygon fill="#191970" stroke="#191970" points="674.9174,-306.7336 666.6612,-313.3733 677.2559,-313.3314 674.9174,-306.7336"/>
</g>
<!-- Node31 -->
<g id="node18" class="node">
<title>Node31</title>
<g id="a_node18"><a xlink:href="icu__svr_source.html" target="_top" xlink:title="l4/re/util/icu_svr">
<polygon fill="#ffffff" stroke="#000000" points="285,-73 285,-92 374,-92 374,-73 285,-73"/>
<text text-anchor="middle" x="329.5" y="-80" font-family="Helvetica,sans-Serif" font-size="10.00" fill="#000000">l4/re/util/icu_svr</text>
</a>
</g>
</g>
<!-- Node18&#45;&gt;Node31 -->
<g id="edge27" class="edge">
<title>Node18&#45;&gt;Node31</title>
<path fill="none" stroke="#191970" d="M641.9841,-302.9641C644.1071,-276.6754 643.786,-230.435 620.5,-201 603.1339,-179.0481 426.5553,-116.1228 357.2271,-92.0366"/>
<polygon fill="#191970" stroke="#191970" points="638.4724,-302.9034 640.9475,-313.205 645.4369,-303.6084 638.4724,-302.9034"/>
</g>
<!-- Node37 -->
<g id="node24" class="node">
<title>Node37</title>
<g id="a_node24"><a xlink:href="scheduler.html" target="_top" xlink:title="Scheduler object functions. ">
<polygon fill="#ffffff" stroke="#000000" points="850.5,-257.5 850.5,-276.5 942.5,-276.5 942.5,-257.5 850.5,-257.5"/>
<text text-anchor="middle" x="896.5" y="-264.5" font-family="Helvetica,sans-Serif" font-size="10.00" fill="#000000">l4/sys/scheduler</text>
</a>
</g>
</g>
<!-- Node18&#45;&gt;Node37 -->
<g id="edge25" class="edge">
<title>Node18&#45;&gt;Node37</title>
<path fill="none" stroke="#191970" d="M679.2903,-312.8884C744.2771,-297.8146 808.3899,-284.5801 850.441,-276.1196"/>
<polygon fill="#191970" stroke="#191970" points="678.2215,-309.5437 669.2781,-315.224 679.8118,-316.3607 678.2215,-309.5437"/>
</g>
<!-- Node38 -->
<g id="node25" class="node">
<title>Node38</title>
<g id="a_node25"><a xlink:href="random_source.html" target="_top" xlink:title="l4/re/random">
<polygon fill="#ffffff" stroke="#000000" points="668,-257.5 668,-276.5 745,-276.5 745,-257.5 668,-257.5"/>
<text text-anchor="middle" x="706.5" y="-264.5" font-family="Helvetica,sans-Serif" font-size="10.00" fill="#000000">l4/re/random</text>
</a>
</g>
</g>
<!-- Node18&#45;&gt;Node38 -->
<g id="edge26" class="edge">
<title>Node18&#45;&gt;Node38</title>
<path fill="none" stroke="#191970" d="M659.0676,-306.645C670.7198,-296.9058 685.1084,-284.8795 694.9632,-276.6427"/>
<polygon fill="#191970" stroke="#191970" points="656.5988,-304.1469 651.1705,-313.2455 661.0879,-309.5179 656.5988,-304.1469"/>
</g>
<!-- Node39 -->
<g id="node26" class="node">
<title>Node39</title>
<g id="a_node26"><a xlink:href="vbus_source.html" target="_top" xlink:title="l4/vbus/vbus">
<polygon fill="#ffffff" stroke="#000000" points="400,-257.5 400,-276.5 473,-276.5 473,-257.5 400,-257.5"/>
<text text-anchor="middle" x="436.5" y="-264.5" font-family="Helvetica,sans-Serif" font-size="10.00" fill="#000000">l4/vbus/vbus</text>
</a>
</g>
</g>
<!-- Node18&#45;&gt;Node39 -->
<g id="edge28" class="edge">
<title>Node18&#45;&gt;Node39</title>
<path fill="none" stroke="#191970" d="M599.939,-312.0866C562.509,-301.7611 506.8846,-286.4164 471.1564,-276.5604"/>
<polygon fill="#191970" stroke="#191970" points="599.4114,-315.5717 609.9821,-314.8571 601.2729,-308.8238 599.4114,-315.5717"/>
</g>
<!-- Node20 -->
<g id="node7" class="node">
<title>Node20</title>
<g id="a_node7"><a xlink:href="log.html" target="_top" xlink:title="Log interface. ">
<polygon fill="#ffffff" stroke="#000000" points="697,-201.5 697,-220.5 752,-220.5 752,-201.5 697,-201.5"/>
<text text-anchor="middle" x="724.5" y="-208.5" font-family="Helvetica,sans-Serif" font-size="10.00" fill="#000000">l4/re/log</text>
</a>
</g>
</g>
<!-- Node19&#45;&gt;Node20 -->
<g id="edge6" class="edge">
<title>Node19&#45;&gt;Node20</title>
<path fill="none" stroke="#191970" d="M776.549,-250.928C763.7893,-241.1397 747.9115,-228.9595 737.0699,-220.6427"/>
<polygon fill="#191970" stroke="#191970" points="774.7197,-253.9359 784.7844,-257.2455 778.9804,-248.3819 774.7197,-253.9359"/>
</g>
<!-- Node35 -->
<g id="node22" class="node">
<title>Node35</title>
<g id="a_node22"><a xlink:href="vcon__stream_8h_source.html" target="_top" xlink:title="l4/l4re_vfs/impl/vcon\l_stream.h">
<polygon fill="#ffffff" stroke="#000000" points="971,-134.5 971,-164.5 1084,-164.5 1084,-134.5 971,-134.5"/>
<text text-anchor="start" x="979" y="-152.5" font-family="Helvetica,sans-Serif" font-size="10.00" fill="#000000">l4/l4re_vfs/impl/vcon</text>
<text text-anchor="middle" x="1027.5" y="-141.5" font-family="Helvetica,sans-Serif" font-size="10.00" fill="#000000">_stream.h</text>
</a>
</g>
</g>
<!-- Node19&#45;&gt;Node35 -->
<g id="edge21" class="edge">
<title>Node19&#45;&gt;Node35</title>
<path fill="none" stroke="#191970" d="M798.4112,-247.2803C800.154,-232.5379 804.896,-212.9442 817.5,-201 839.3661,-180.2786 916.3589,-165.2968 970.7598,-157.0026"/>
<polygon fill="#191970" stroke="#191970" points="794.9103,-247.1489 797.5825,-257.4012 801.887,-247.7202 794.9103,-247.1489"/>
</g>
<!-- Node36 -->
<g id="node23" class="node">
<title>Node36</title>
<g id="a_node23"><a xlink:href="vcon__svr_source.html" target="_top" xlink:title="l4/re/util/vcon_svr">
<polygon fill="#ffffff" stroke="#000000" points="826,-201.5 826,-220.5 925,-220.5 925,-201.5 826,-201.5"/>
<text text-anchor="middle" x="875.5" y="-208.5" font-family="Helvetica,sans-Serif" font-size="10.00" fill="#000000">l4/re/util/vcon_svr</text>
</a>
</g>
</g>
<!-- Node19&#45;&gt;Node36 -->
<g id="edge24" class="edge">
<title>Node19&#45;&gt;Node36</title>
<path fill="none" stroke="#191970" d="M819.4936,-251.2097C833.1929,-241.3743 850.3736,-229.0394 862.0691,-220.6427"/>
<polygon fill="#191970" stroke="#191970" points="817.1686,-248.5703 811.0866,-257.2455 821.2511,-254.2566 817.1686,-248.5703"/>
</g>
<!-- Node21 -->
<g id="node8" class="node">
<title>Node21</title>
<g id="a_node8"><a xlink:href="env.html" target="_top" xlink:title="Environment interface. ">
<polygon fill="#ffffff" stroke="#000000" points="679.5,-140 679.5,-159 737.5,-159 737.5,-140 679.5,-140"/>
<text text-anchor="middle" x="708.5" y="-147" font-family="Helvetica,sans-Serif" font-size="10.00" fill="#000000">l4/re/env</text>
</a>
</g>
</g>
<!-- Node20&#45;&gt;Node21 -->
<g id="edge7" class="edge">
<title>Node20&#45;&gt;Node21</title>
<path fill="none" stroke="#191970" d="M719.4485,-191.5832C716.6484,-180.8205 713.2881,-167.9042 711.0352,-159.2449"/>
<polygon fill="#191970" stroke="#191970" points="716.0949,-192.594 722,-201.3906 722.8694,-190.8315 716.0949,-192.594"/>
</g>
<!-- Node22 -->
<g id="node9" class="node">
<title>Node22</title>
<g id="a_node9"><a xlink:href="vcpu_source.html" target="_top" xlink:title="l4/vcpu/vcpu">
<polygon fill="#ffffff" stroke="#000000" points="789.5,-73 789.5,-92 863.5,-92 863.5,-73 789.5,-73"/>
<text text-anchor="middle" x="826.5" y="-80" font-family="Helvetica,sans-Serif" font-size="10.00" fill="#000000">l4/vcpu/vcpu</text>
</a>
</g>
</g>
<!-- Node21&#45;&gt;Node22 -->
<g id="edge8" class="edge">
<title>Node21&#45;&gt;Node22</title>
<path fill="none" stroke="#191970" d="M734.2405,-134.8846C757.1247,-121.891 789.9233,-103.2681 809.6248,-92.0817"/>
<polygon fill="#191970" stroke="#191970" points="732.3744,-131.9193 725.4065,-139.9005 735.8307,-138.0065 732.3744,-131.9193"/>
</g>
<!-- Node23 -->
<g id="node10" class="node">
<title>Node23</title>
<g id="a_node10"><a xlink:href="server_2l4virtio_source.html" target="_top" xlink:title="l4/l4virtio/server\l/l4virtio">
<polygon fill="#ffffff" stroke="#000000" points="35.5,-67.5 35.5,-97.5 127.5,-97.5 127.5,-67.5 35.5,-67.5"/>
<text text-anchor="start" x="43.5" y="-85.5" font-family="Helvetica,sans-Serif" font-size="10.00" fill="#000000">l4/l4virtio/server</text>
<text text-anchor="middle" x="81.5" y="-74.5" font-family="Helvetica,sans-Serif" font-size="10.00" fill="#000000">/l4virtio</text>
</a>
</g>
</g>
<!-- Node21&#45;&gt;Node23 -->
<g id="edge9" class="edge">
<title>Node21&#45;&gt;Node23</title>
<path fill="none" stroke="#191970" d="M669.3684,-146.6563C580.9518,-140.0278 359.074,-122.2521 174.5,-98 159.2447,-95.9955 142.6536,-93.3733 127.7646,-90.8572"/>
<polygon fill="#191970" stroke="#191970" points="669.2455,-150.1568 679.4779,-147.4091 669.7654,-143.1761 669.2455,-150.1568"/>
</g>
<!-- Node25 -->
<g id="node12" class="node">
<title>Node25</title>
<g id="a_node12"><a xlink:href="env__ns_source.html" target="_top" xlink:title="l4/re/util/env_ns">
<polygon fill="#ffffff" stroke="#000000" points="882,-73 882,-92 973,-92 973,-73 882,-73"/>
<text text-anchor="middle" x="927.5" y="-80" font-family="Helvetica,sans-Serif" font-size="10.00" fill="#000000">l4/re/util/env_ns</text>
</a>
</g>
</g>
<!-- Node21&#45;&gt;Node25 -->
<g id="edge11" class="edge">
<title>Node21&#45;&gt;Node25</title>
<path fill="none" stroke="#191970" d="M747.2843,-137.6345C789.7264,-124.6499 856.9372,-104.0877 896.1718,-92.0844"/>
<polygon fill="#191970" stroke="#191970" points="746.1201,-134.3305 737.5815,-140.6029 748.168,-141.0242 746.1201,-134.3305"/>
</g>
<!-- Node27 -->
<g id="node14" class="node">
<title>Node27</title>
<g id="a_node14"><a xlink:href="ro__file__impl_8h_source.html" target="_top" xlink:title="l4/l4re_vfs/impl/ro\l_file_impl.h">
<polygon fill="#ffffff" stroke="#000000" points="392.5,-67.5 392.5,-97.5 492.5,-97.5 492.5,-67.5 392.5,-67.5"/>
<text text-anchor="start" x="400.5" y="-85.5" font-family="Helvetica,sans-Serif" font-size="10.00" fill="#000000">l4/l4re_vfs/impl/ro</text>
<text text-anchor="middle" x="442.5" y="-74.5" font-family="Helvetica,sans-Serif" font-size="10.00" fill="#000000">_file_impl.h</text>
</a>
</g>
</g>
<!-- Node21&#45;&gt;Node27 -->
<g id="edge13" class="edge">
<title>Node21&#45;&gt;Node27</title>
<path fill="none" stroke="#191970" d="M669.7914,-138.3781C664.3311,-136.8715 658.7807,-135.373 653.5,-134 586.7279,-116.6393 569.458,-114.6289 502.5,-98 499.2631,-97.1961 495.9304,-96.3597 492.5724,-95.5103"/>
<polygon fill="#191970" stroke="#191970" points="668.8724,-141.7553 679.4453,-141.0737 670.755,-135.0132 668.8724,-141.7553"/>
</g>
<!-- Node28 -->
<g id="node15" class="node">
<title>Node28</title>
<g id="a_node15"><a xlink:href="vcon__stream__impl_8h_source.html" target="_top" xlink:title="l4/l4re_vfs/impl/vcon\l_stream_impl.h">
<polygon fill="#ffffff" stroke="#000000" points="991,-67.5 991,-97.5 1104,-97.5 1104,-67.5 991,-67.5"/>
<text text-anchor="start" x="999" y="-85.5" font-family="Helvetica,sans-Serif" font-size="10.00" fill="#000000">l4/l4re_vfs/impl/vcon</text>
<text text-anchor="middle" x="1047.5" y="-74.5" font-family="Helvetica,sans-Serif" font-size="10.00" fill="#000000">_stream_impl.h</text>
</a>
</g>
</g>
<!-- Node21&#45;&gt;Node28 -->
<g id="edge14" class="edge">
<title>Node21&#45;&gt;Node28</title>
<path fill="none" stroke="#191970" d="M747.8392,-142.7218C801.1628,-133.3936 899.2857,-115.7312 982.5,-98 985.2231,-97.4198 988.007,-96.8121 990.8162,-96.1872"/>
<polygon fill="#191970" stroke="#191970" points="747.0397,-139.3083 737.7894,-144.4738 748.242,-146.2043 747.0397,-139.3083"/>
</g>
<!-- Node29 -->
<g id="node16" class="node">
<title>Node29</title>
<g id="a_node16"><a xlink:href="vfs__impl_8h_source.html" target="_top" xlink:title="l4/l4re_vfs/impl/vfs\l_impl.h">
<polygon fill="#ffffff" stroke="#000000" points="1122.5,-67.5 1122.5,-97.5 1226.5,-97.5 1226.5,-67.5 1122.5,-67.5"/>
<text text-anchor="start" x="1130.5" y="-85.5" font-family="Helvetica,sans-Serif" font-size="10.00" fill="#000000">l4/l4re_vfs/impl/vfs</text>
<text text-anchor="middle" x="1174.5" y="-74.5" font-family="Helvetica,sans-Serif" font-size="10.00" fill="#000000">_impl.h</text>
</a>
</g>
</g>
<!-- Node21&#45;&gt;Node29 -->
<g id="edge15" class="edge">
<title>Node21&#45;&gt;Node29</title>
<path fill="none" stroke="#191970" d="M747.7312,-146.1208C820.3443,-139.5103 980.4277,-123.2693 1113.5,-98 1116.3984,-97.4496 1119.364,-96.8429 1122.3504,-96.1979"/>
<polygon fill="#191970" stroke="#191970" points="747.3123,-142.6442 737.6661,-147.0262 747.9395,-149.6161 747.3123,-142.6442"/>
</g>
<!-- Node30 -->
<g id="node17" class="node">
<title>Node30</title>
<g id="a_node17"><a xlink:href="util_2event.html" target="_top" xlink:title="l4/re/util/event">
<polygon fill="#ffffff" stroke="#000000" points="184,-73 184,-92 267,-92 267,-73 184,-73"/>
<text text-anchor="middle" x="225.5" y="-80" font-family="Helvetica,sans-Serif" font-size="10.00" fill="#000000">l4/re/util/event</text>
</a>
</g>
</g>
<!-- Node21&#45;&gt;Node30 -->
<g id="edge16" class="edge">
<title>Node21&#45;&gt;Node30</title>
<path fill="none" stroke="#191970" d="M669.1819,-147.2299C592.6717,-142.2843 418.7119,-128.4487 275.5,-98 268.1218,-96.4313 260.272,-94.2505 253.032,-92.0194"/>
<polygon fill="#191970" stroke="#191970" points="669.1171,-150.7327 679.3178,-147.8695 669.5581,-143.7466 669.1171,-150.7327"/>
</g>
<!-- Node21&#45;&gt;Node31 -->
<g id="edge17" class="edge">
<title>Node21&#45;&gt;Node31</title>
<path fill="none" stroke="#191970" d="M669.3143,-137.7249C664.027,-136.3514 658.6508,-135.0636 653.5,-134 534.9391,-109.519 502.0014,-122.7671 383.5,-98 375.7667,-96.3837 367.521,-94.2385 359.8614,-92.0609"/>
<polygon fill="#191970" stroke="#191970" points="668.7222,-141.1908 679.29,-140.4356 670.5577,-134.4358 668.7222,-141.1908"/>
</g>
<!-- Node33 -->
<g id="node20" class="node">
<title>Node33</title>
<g id="a_node20"><a xlink:href="kumem__alloc.html" target="_top" xlink:title="Kumem allocator helper. ">
<polygon fill="#ffffff" stroke="#000000" points="511,-73 511,-92 628,-92 628,-73 511,-73"/>
<text text-anchor="middle" x="569.5" y="-80" font-family="Helvetica,sans-Serif" font-size="10.00" fill="#000000">l4/re/util/kumem_alloc</text>
</a>
</g>
</g>
<!-- Node21&#45;&gt;Node33 -->
<g id="edge19" class="edge">
<title>Node21&#45;&gt;Node33</title>
<path fill="none" stroke="#191970" d="M679.2505,-135.4013C652.2547,-122.389 612.8956,-103.4173 589.3784,-92.0817"/>
<polygon fill="#191970" stroke="#191970" points="678.0568,-138.7113 688.5847,-139.9005 681.0963,-132.4056 678.0568,-138.7113"/>
</g>
<!-- Node34 -->
<g id="node21" class="node">
<title>Node34</title>
<g id="a_node21"><a xlink:href="object__registry_source.html" target="_top" xlink:title="l4/re/util/object_registry">
<polygon fill="#ffffff" stroke="#000000" points="646,-73 646,-92 771,-92 771,-73 646,-73"/>
<text text-anchor="middle" x="708.5" y="-80" font-family="Helvetica,sans-Serif" font-size="10.00" fill="#000000">l4/re/util/object_registry</text>
</a>
</g>
</g>
<!-- Node21&#45;&gt;Node34 -->
<g id="edge20" class="edge">
<title>Node21&#45;&gt;Node34</title>
<path fill="none" stroke="#191970" d="M708.5,-129.6079C708.5,-117.214 708.5,-101.8263 708.5,-92.0817"/>
<polygon fill="#191970" stroke="#191970" points="705.0001,-129.9005 708.5,-139.9005 712.0001,-129.9006 705.0001,-129.9005"/>
</g>
<!-- Node24 -->
<g id="node11" class="node">
<title>Node24</title>
<g id="a_node11"><a xlink:href="virtio-block_source.html" target="_top" xlink:title="l4/l4virtio/server\l/virtio&#45;block">
<polygon fill="#ffffff" stroke="#000000" points="35.5,-.5 35.5,-30.5 127.5,-30.5 127.5,-.5 35.5,-.5"/>
<text text-anchor="start" x="43.5" y="-18.5" font-family="Helvetica,sans-Serif" font-size="10.00" fill="#000000">l4/l4virtio/server</text>
<text text-anchor="middle" x="81.5" y="-7.5" font-family="Helvetica,sans-Serif" font-size="10.00" fill="#000000">/virtio&#45;block</text>
</a>
</g>
</g>
<!-- Node23&#45;&gt;Node24 -->
<g id="edge10" class="edge">
<title>Node23&#45;&gt;Node24</title>
<path fill="none" stroke="#191970" d="M81.5,-57.0249C81.5,-48.128 81.5,-38.4287 81.5,-30.6432"/>
<polygon fill="#191970" stroke="#191970" points="78.0001,-57.2966 81.5,-67.2967 85.0001,-57.2967 78.0001,-57.2966"/>
</g>
<!-- Node26 -->
<g id="node13" class="node">
<title>Node26</title>
<g id="a_node13"><a xlink:href="ns__fs__impl_8h_source.html" target="_top" xlink:title="l4/l4re_vfs/impl/ns\l_fs_impl.h">
<polygon fill="#ffffff" stroke="#000000" points="877,-.5 877,-30.5 978,-30.5 978,-.5 877,-.5"/>
<text text-anchor="start" x="885" y="-18.5" font-family="Helvetica,sans-Serif" font-size="10.00" fill="#000000">l4/l4re_vfs/impl/ns</text>
<text text-anchor="middle" x="927.5" y="-7.5" font-family="Helvetica,sans-Serif" font-size="10.00" fill="#000000">_fs_impl.h</text>
</a>
</g>
</g>
<!-- Node25&#45;&gt;Node26 -->
<g id="edge12" class="edge">
<title>Node25&#45;&gt;Node26</title>
<path fill="none" stroke="#191970" d="M927.5,-62.7758C927.5,-52.4641 927.5,-40.0437 927.5,-30.5218"/>
<polygon fill="#191970" stroke="#191970" points="924.0001,-62.9005 927.5,-72.9005 931.0001,-62.9006 924.0001,-62.9005"/>
</g>
<!-- Node32 -->
<g id="node19" class="node">
<title>Node32</title>
<g id="a_node19"><a xlink:href="event__svr_source.html" target="_top" xlink:title="l4/re/util/event_svr">
<polygon fill="#ffffff" stroke="#000000" points="212,-6 212,-25 315,-25 315,-6 212,-6"/>
<text text-anchor="middle" x="263.5" y="-13" font-family="Helvetica,sans-Serif" font-size="10.00" fill="#000000">l4/re/util/event_svr</text>
</a>
</g>
</g>
<!-- Node31&#45;&gt;Node32 -->
<g id="edge18" class="edge">
<title>Node31&#45;&gt;Node32</title>
<path fill="none" stroke="#191970" d="M312.8311,-65.5785C300.2077,-52.7639 283.3215,-35.6218 272.9386,-25.0817"/>
<polygon fill="#191970" stroke="#191970" points="310.5327,-68.2327 320.0438,-72.9005 315.5195,-63.3203 310.5327,-68.2327"/>
</g>
<!-- Node35&#45;&gt;Node28 -->
<g id="edge22" class="edge">
<title>Node35&#45;&gt;Node28</title>
<path fill="none" stroke="#191970" d="M1034.9298,-124.6103C1037.6328,-115.5553 1040.6045,-105.5998 1042.9797,-97.6432"/>
<polygon fill="#191970" stroke="#191970" points="1031.545,-123.7133 1032.0383,-134.2967 1038.2525,-125.7156 1031.545,-123.7133"/>
</g>
<!-- Node35&#45;&gt;Node29 -->
<g id="edge23" class="edge">
<title>Node35&#45;&gt;Node29</title>
<path fill="none" stroke="#191970" d="M1069.5964,-130.3132C1092.3847,-119.9267 1120.1333,-107.2794 1141.3664,-97.6017"/>
<polygon fill="#191970" stroke="#191970" points="1068.1375,-127.1317 1060.4897,-134.4639 1071.0407,-133.5013 1068.1375,-127.1317"/>
</g>
<!-- Node40 -->
<g id="node27" class="node">
<title>Node40</title>
<g id="a_node27"><a xlink:href="vbus__generic_source.html" target="_top" xlink:title="l4/vbus/vbus_generic">
<polygon fill="#ffffff" stroke="#000000" points="379.5,-201.5 379.5,-220.5 493.5,-220.5 493.5,-201.5 379.5,-201.5"/>
<text text-anchor="middle" x="436.5" y="-208.5" font-family="Helvetica,sans-Serif" font-size="10.00" fill="#000000">l4/vbus/vbus_generic</text>
</a>
</g>
</g>
<!-- Node39&#45;&gt;Node40 -->
<g id="edge29" class="edge">
<title>Node39&#45;&gt;Node40</title>
<path fill="none" stroke="#191970" d="M436.5,-247.1575C436.5,-238.155 436.5,-227.9199 436.5,-220.6427"/>
<polygon fill="#191970" stroke="#191970" points="433.0001,-247.2455 436.5,-257.2455 440.0001,-247.2456 433.0001,-247.2455"/>
</g>
<!-- Node41 -->
<g id="node28" class="node">
<title>Node41</title>
<g id="a_node28"><a xlink:href="vbus__gpio_source.html" target="_top" xlink:title="l4/vbus/vbus_gpio">
<polygon fill="#ffffff" stroke="#000000" points="512,-201.5 512,-220.5 611,-220.5 611,-201.5 512,-201.5"/>
<text text-anchor="middle" x="561.5" y="-208.5" font-family="Helvetica,sans-Serif" font-size="10.00" fill="#000000">l4/vbus/vbus_gpio</text>
</a>
</g>
</g>
<!-- Node39&#45;&gt;Node41 -->
<g id="edge30" class="edge">
<title>Node39&#45;&gt;Node41</title>
<path fill="none" stroke="#191970" d="M467.198,-253.2473C489.8993,-243.0771 520.2315,-229.4883 540.2921,-220.5011"/>
<polygon fill="#191970" stroke="#191970" points="465.6833,-250.0906 457.9883,-257.3733 468.5453,-256.4789 465.6833,-250.0906"/>
</g>
<!-- Node42 -->
<g id="node29" class="node">
<title>Node42</title>
<g id="a_node29"><a xlink:href="vbus__pci_source.html" target="_top" xlink:title="l4/vbus/vbus_pci">
<polygon fill="#ffffff" stroke="#000000" points="269.5,-201.5 269.5,-220.5 361.5,-220.5 361.5,-201.5 269.5,-201.5"/>
<text text-anchor="middle" x="315.5" y="-208.5" font-family="Helvetica,sans-Serif" font-size="10.00" fill="#000000">l4/vbus/vbus_pci</text>
</a>
</g>
</g>
<!-- Node39&#45;&gt;Node42 -->
<g id="edge31" class="edge">
<title>Node39&#45;&gt;Node42</title>
<path fill="none" stroke="#191970" d="M406.4896,-253.1109C384.5475,-242.9559 355.3612,-229.4482 336.0292,-220.5011"/>
<polygon fill="#191970" stroke="#191970" points="405.1541,-256.3494 415.6994,-257.3733 408.0942,-249.9968 405.1541,-256.3494"/>
</g>
<!-- Node43&#45;&gt;Node23 -->
<g id="edge33" class="edge">
<title>Node43&#45;&gt;Node23</title>
<path fill="none" stroke="#191970" d="M81.5,-129.7758C81.5,-119.4641 81.5,-107.0437 81.5,-97.5218"/>
<polygon fill="#191970" stroke="#191970" points="78.0001,-129.9005 81.5,-139.9005 85.0001,-129.9006 78.0001,-129.9005"/>
</g>
<!-- Node44&#45;&gt;Node35 -->
<g id="edge35" class="edge">
<title>Node44&#45;&gt;Node35</title>
<path fill="none" stroke="#191970" d="M798.0013,-315.4699C852.3733,-307.7351 927.2817,-294.3812 951.5,-277 991.278,-248.4518 1013.8746,-192.0474 1022.882,-164.8615"/>
<polygon fill="#191970" stroke="#191970" points="797.1855,-312.0496 787.7635,-316.8949 798.1506,-318.9828 797.1855,-312.0496"/>
</g>
<!-- Node45&#45;&gt;Node32 -->
<g id="edge40" class="edge">
<title>Node45&#45;&gt;Node32</title>
<path fill="none" stroke="#191970" d="M245.9536,-315.3377C221.7976,-308.9465 192.9904,-297.4427 174.5,-277 154.0239,-254.3619 155.5,-241.5246 155.5,-211 155.5,-211 155.5,-211 155.5,-149.5 155.5,-111.8735 152.1418,-97.2632 174.5,-67 189.457,-46.7548 214.937,-33.1879 234.8108,-25.0843"/>
<polygon fill="#191970" stroke="#191970" points="245.4339,-318.8132 255.9777,-317.7749 247.0877,-312.0114 245.4339,-318.8132"/>
</g>
<!-- Node45&#45;&gt;Node39 -->
<g id="edge41" class="edge">
<title>Node45&#45;&gt;Node39</title>
<path fill="none" stroke="#191970" d="M324.1794,-309.7888C351.0198,-299.5639 387.547,-285.6488 411.5596,-276.5011"/>
<polygon fill="#191970" stroke="#191970" points="322.8691,-306.5425 314.7702,-313.3733 325.3611,-313.0839 322.8691,-306.5425"/>
</g>
<!-- Node46 -->
<g id="node33" class="node">
<title>Node46</title>
<g id="a_node33"><a xlink:href="console_source.html" target="_top" xlink:title="l4/re/console">
<polygon fill="#ffffff" stroke="#000000" points="184,-257.5 184,-276.5 261,-276.5 261,-257.5 184,-257.5"/>
<text text-anchor="middle" x="222.5" y="-264.5" font-family="Helvetica,sans-Serif" font-size="10.00" fill="#000000">l4/re/console</text>
</a>
</g>
</g>
<!-- Node45&#45;&gt;Node46 -->
<g id="edge37" class="edge">
<title>Node45&#45;&gt;Node46</title>
<path fill="none" stroke="#191970" d="M269.9324,-306.645C258.2802,-296.9058 243.8916,-284.8795 234.0368,-276.6427"/>
<polygon fill="#191970" stroke="#191970" points="267.9121,-309.5179 277.8295,-313.2455 272.4012,-304.1469 267.9121,-309.5179"/>
</g>
<!-- Node47 -->
<g id="node34" class="node">
<title>Node47</title>
<g id="a_node34"><a xlink:href="event__buffer_source.html" target="_top" xlink:title="l4/re/util/event_buffer">
<polygon fill="#ffffff" stroke="#000000" points="184,-140 184,-159 299,-159 299,-140 184,-140"/>
<text text-anchor="middle" x="241.5" y="-147" font-family="Helvetica,sans-Serif" font-size="10.00" fill="#000000">l4/re/util/event_buffer</text>
</a>
</g>
</g>
<!-- Node45&#45;&gt;Node47 -->
<g id="edge38" class="edge">
<title>Node45&#45;&gt;Node47</title>
<path fill="none" stroke="#191970" d="M283.9222,-303.758C278.0088,-283.272 268.4448,-249.89 260.5,-221 254.4379,-198.956 247.6202,-172.9996 244.0284,-159.2289"/>
<polygon fill="#191970" stroke="#191970" points="280.5855,-304.8191 286.7261,-313.4529 287.3099,-302.8742 280.5855,-304.8191"/>
</g>
<!-- Node47&#45;&gt;Node30 -->
<g id="edge39" class="edge">
<title>Node47&#45;&gt;Node30</title>
<path fill="none" stroke="#191970" d="M236.84,-129.9863C233.865,-117.5286 230.139,-101.9258 227.7882,-92.0817"/>
<polygon fill="#191970" stroke="#191970" points="233.4805,-130.987 239.2076,-139.9005 240.289,-129.361 233.4805,-130.987"/>
</g>
<!-- Node48&#45;&gt;Node44 -->
<g id="edge43" class="edge">
<title>Node48&#45;&gt;Node44</title>
<path fill="none" stroke="#191970" d="M674.1625,-363.769C689.5791,-353.8456 709.226,-341.1994 722.5194,-332.6427"/>
<polygon fill="#191970" stroke="#191970" points="672.1685,-360.89 665.6542,-369.2455 675.9573,-366.7761 672.1685,-360.89"/>
</g>
</g>
</svg>
