<?xml version="1.0" encoding="UTF-8" standalone="no"?>
<!DOCTYPE svg PUBLIC "-//W3C//DTD SVG 1.1//EN"
 "http://www.w3.org/Graphics/SVG/1.1/DTD/svg11.dtd">
<!-- Generated by graphviz version 2.40.1 (20161225.0304)
 -->
<!-- Title: l4/sys/thread.h Pages: 1 -->
<svg width="1138pt" height="464pt"
 viewBox="0.00 0.00 1137.50 464.00" xmlns="http://www.w3.org/2000/svg" xmlns:xlink="http://www.w3.org/1999/xlink">
<g id="graph0" class="graph" transform="scale(1 1) rotate(0) translate(4 460)">
<title>l4/sys/thread.h</title>
<polygon fill="#ffffff" stroke="transparent" points="-4,4 -4,-460 1133.5,-460 1133.5,4 -4,4"/>
<!-- Node11 -->
<g id="node1" class="node">
<title>Node11</title>
<polygon fill="#bfbfbf" stroke="#000000" points="767.5,-436.5 767.5,-455.5 853.5,-455.5 853.5,-436.5 767.5,-436.5"/>
<text text-anchor="middle" x="810.5" y="-443.5" font-family="Helvetica,sans-Serif" font-size="10.00" fill="#000000">l4/sys/thread.h</text>
</g>
<!-- Node12 -->
<g id="node2" class="node">
<title>Node12</title>
<g id="a_node2"><a xlink:href="sys_2assert_8h.html" target="_top" xlink:title="Low&#45;level assert implementation. ">
<polygon fill="#ffffff" stroke="#000000" points="574.5,-380.5 574.5,-399.5 658.5,-399.5 658.5,-380.5 574.5,-380.5"/>
<text text-anchor="middle" x="616.5" y="-387.5" font-family="Helvetica,sans-Serif" font-size="10.00" fill="#000000">l4/sys/assert.h</text>
</a>
</g>
</g>
<!-- Node11&#45;&gt;Node12 -->
<g id="edge1" class="edge">
<title>Node11&#45;&gt;Node12</title>
<path fill="none" stroke="#191970" d="M767.502,-433.5882C731.8592,-423.2996 681.9386,-408.8895 649.4146,-399.5011"/>
<polygon fill="#191970" stroke="#191970" points="766.5718,-436.9625 777.1502,-436.3733 768.5132,-430.2371 766.5718,-436.9625"/>
</g>
<!-- Node28 -->
<g id="node18" class="node">
<title>Node28</title>
<g id="a_node18"><a xlink:href="lock_8h.html" target="_top" xlink:title="Simple lock implementation. ">
<polygon fill="#ffffff" stroke="#000000" points="775,-380.5 775,-399.5 846,-399.5 846,-380.5 775,-380.5"/>
<text text-anchor="middle" x="810.5" y="-387.5" font-family="Helvetica,sans-Serif" font-size="10.00" fill="#000000">l4/util/lock.h</text>
</a>
</g>
</g>
<!-- Node11&#45;&gt;Node28 -->
<g id="edge23" class="edge">
<title>Node11&#45;&gt;Node28</title>
<path fill="none" stroke="#191970" d="M810.5,-426.1575C810.5,-417.155 810.5,-406.9199 810.5,-399.6427"/>
<polygon fill="#191970" stroke="#191970" points="807.0001,-426.2455 810.5,-436.2455 814.0001,-426.2456 807.0001,-426.2455"/>
</g>
<!-- Node29 -->
<g id="node19" class="node">
<title>Node29</title>
<g id="a_node19"><a xlink:href="sys_2thread.html" target="_top" xlink:title="Common thread related definitions. ">
<polygon fill="#ffffff" stroke="#000000" points="708,-252 708,-271 785,-271 785,-252 708,-252"/>
<text text-anchor="middle" x="746.5" y="-259" font-family="Helvetica,sans-Serif" font-size="10.00" fill="#000000">l4/sys/thread</text>
</a>
</g>
</g>
<!-- Node11&#45;&gt;Node29 -->
<g id="edge24" class="edge">
<title>Node11&#45;&gt;Node29</title>
<path fill="none" stroke="#191970" d="M789.841,-429.5508C781.2337,-421.5619 771.984,-411.2578 766.5,-400 744.9021,-355.6628 744.9811,-294.5529 745.9396,-271.15"/>
<polygon fill="#191970" stroke="#191970" points="787.6079,-432.2475 797.4387,-436.1978 792.217,-426.9791 787.6079,-432.2475"/>
</g>
<!-- Node30 -->
<g id="node20" class="node">
<title>Node30</title>
<g id="a_node20"><a xlink:href="amd64_2l4_2sys_2segment_8h.html" target="_top" xlink:title="Segment handling. ">
<polygon fill="#ffffff" stroke="#000000" points="864,-380.5 864,-399.5 995,-399.5 995,-380.5 864,-380.5"/>
<text text-anchor="middle" x="929.5" y="-387.5" font-family="Helvetica,sans-Serif" font-size="10.00" fill="#000000">amd64/l4/sys/segment.h</text>
</a>
</g>
</g>
<!-- Node11&#45;&gt;Node30 -->
<g id="edge26" class="edge">
<title>Node11&#45;&gt;Node30</title>
<path fill="none" stroke="#191970" d="M840.0144,-432.1109C861.5938,-421.9559 890.2976,-408.4482 909.3101,-399.5011"/>
<polygon fill="#191970" stroke="#191970" points="838.5147,-428.9484 830.9568,-436.3733 841.4953,-435.2821 838.5147,-428.9484"/>
</g>
<!-- Node31 -->
<g id="node21" class="node">
<title>Node31</title>
<g id="a_node21"><a xlink:href="x86_2l4_2sys_2segment_8h.html" target="_top" xlink:title="Segment handling. ">
<polygon fill="#ffffff" stroke="#000000" points="1013.5,-380.5 1013.5,-399.5 1129.5,-399.5 1129.5,-380.5 1013.5,-380.5"/>
<text text-anchor="middle" x="1071.5" y="-387.5" font-family="Helvetica,sans-Serif" font-size="10.00" fill="#000000">x86/l4/sys/segment.h</text>
</a>
</g>
</g>
<!-- Node11&#45;&gt;Node31 -->
<g id="edge27" class="edge">
<title>Node11&#45;&gt;Node31</title>
<path fill="none" stroke="#191970" d="M863.5145,-434.6252C911.6281,-424.302 981.7721,-409.252 1027.0262,-399.5423"/>
<polygon fill="#191970" stroke="#191970" points="862.642,-431.2327 853.5988,-436.7527 864.1106,-438.0769 862.642,-431.2327"/>
</g>
<!-- Node13 -->
<g id="node3" class="node">
<title>Node13</title>
<g id="a_node3"><a xlink:href="counting__cap__alloc.html" target="_top" xlink:title="Reference&#45;counting capability allocator. ">
<polygon fill="#ffffff" stroke="#000000" points="447.5,-313.5 447.5,-343.5 543.5,-343.5 543.5,-313.5 447.5,-313.5"/>
<text text-anchor="start" x="455.5" y="-331.5" font-family="Helvetica,sans-Serif" font-size="10.00" fill="#000000">l4/re/util/counting</text>
<text text-anchor="middle" x="495.5" y="-320.5" font-family="Helvetica,sans-Serif" font-size="10.00" fill="#000000">_cap_alloc</text>
</a>
</g>
</g>
<!-- Node12&#45;&gt;Node13 -->
<g id="edge2" class="edge">
<title>Node12&#45;&gt;Node13</title>
<path fill="none" stroke="#191970" d="M588.5419,-375.7899C569.5398,-366.1318 544.4404,-353.3747 525.0999,-343.5446"/>
<polygon fill="#191970" stroke="#191970" points="587.0933,-378.9797 597.5938,-380.3906 590.265,-372.7395 587.0933,-378.9797"/>
</g>
<!-- Node24 -->
<g id="node14" class="node">
<title>Node24</title>
<g id="a_node14"><a xlink:href="br__manager_source.html" target="_top" xlink:title="l4/re/util/br_manager">
<polygon fill="#ffffff" stroke="#000000" points="605,-134.5 605,-153.5 718,-153.5 718,-134.5 605,-134.5"/>
<text text-anchor="middle" x="661.5" y="-141.5" font-family="Helvetica,sans-Serif" font-size="10.00" fill="#000000">l4/re/util/br_manager</text>
</a>
</g>
</g>
<!-- Node12&#45;&gt;Node24 -->
<g id="edge22" class="edge">
<title>Node12&#45;&gt;Node24</title>
<path fill="none" stroke="#191970" d="M604.3753,-371.7224C599.6821,-363.5929 594.8743,-353.6836 592.5,-344 589.219,-330.6186 589.8464,-326.5198 592.5,-313 605.0129,-249.2488 641.7319,-179.2278 655.8655,-153.8589"/>
<polygon fill="#191970" stroke="#191970" points="601.4528,-373.6514 609.6792,-380.328 607.4119,-369.9786 601.4528,-373.6514"/>
</g>
<!-- Node27 -->
<g id="node17" class="node">
<title>Node27</title>
<g id="a_node17"><a xlink:href="namespace__impl_8h.html" target="_top" xlink:title="Namespace client stub implementation. ">
<polygon fill="#ffffff" stroke="#000000" points="601,-313.5 601,-343.5 718,-343.5 718,-313.5 601,-313.5"/>
<text text-anchor="start" x="609" y="-331.5" font-family="Helvetica,sans-Serif" font-size="10.00" fill="#000000">l4/re/impl/namespace</text>
<text text-anchor="middle" x="659.5" y="-320.5" font-family="Helvetica,sans-Serif" font-size="10.00" fill="#000000">_impl.h</text>
</a>
</g>
</g>
<!-- Node12&#45;&gt;Node27 -->
<g id="edge21" class="edge">
<title>Node12&#45;&gt;Node27</title>
<path fill="none" stroke="#191970" d="M629.024,-372.0877C635.3566,-363.0307 642.9553,-352.1627 648.981,-343.5446"/>
<polygon fill="#191970" stroke="#191970" points="626.0805,-370.1896 623.2188,-380.3906 631.8174,-374.2007 626.0805,-370.1896"/>
</g>
<!-- Node14 -->
<g id="node4" class="node">
<title>Node14</title>
<g id="a_node4"><a xlink:href="cap__alloc__impl_8h.html" target="_top" xlink:title="Capability allocator implementation. ">
<polygon fill="#ffffff" stroke="#000000" points="378,-246.5 378,-276.5 479,-276.5 479,-246.5 378,-246.5"/>
<text text-anchor="start" x="386" y="-264.5" font-family="Helvetica,sans-Serif" font-size="10.00" fill="#000000">l4/re/util/cap_alloc</text>
<text text-anchor="middle" x="428.5" y="-253.5" font-family="Helvetica,sans-Serif" font-size="10.00" fill="#000000">_impl.h</text>
</a>
</g>
</g>
<!-- Node13&#45;&gt;Node14 -->
<g id="edge3" class="edge">
<title>Node13&#45;&gt;Node14</title>
<path fill="none" stroke="#191970" d="M473.2113,-306.2113C463.5009,-296.5009 452.3698,-285.3698 443.6432,-276.6432"/>
<polygon fill="#191970" stroke="#191970" points="470.7507,-308.7004 480.2967,-313.2967 475.7004,-303.7507 470.7507,-308.7004"/>
</g>
<!-- Node15 -->
<g id="node5" class="node">
<title>Node15</title>
<g id="a_node5"><a xlink:href="util_2cap__alloc.html" target="_top" xlink:title="Capability allocator. ">
<polygon fill="#ffffff" stroke="#000000" points="313,-190.5 313,-209.5 414,-209.5 414,-190.5 313,-190.5"/>
<text text-anchor="middle" x="363.5" y="-197.5" font-family="Helvetica,sans-Serif" font-size="10.00" fill="#000000">l4/re/util/cap_alloc</text>
</a>
</g>
</g>
<!-- Node14&#45;&gt;Node15 -->
<g id="edge4" class="edge">
<title>Node14&#45;&gt;Node15</title>
<path fill="none" stroke="#191970" d="M404.9901,-239.256C394.3288,-229.1688 382.2667,-217.7561 373.9073,-209.8469"/>
<polygon fill="#191970" stroke="#191970" points="402.7631,-241.9673 412.4326,-246.2977 407.5741,-236.8825 402.7631,-241.9673"/>
</g>
<!-- Node16 -->
<g id="node6" class="node">
<title>Node16</title>
<g id="a_node6"><a xlink:href="server_2l4virtio_source.html" target="_top" xlink:title="l4/l4virtio/server\l/l4virtio">
<polygon fill="#ffffff" stroke="#000000" points="356.5,-67.5 356.5,-97.5 448.5,-97.5 448.5,-67.5 356.5,-67.5"/>
<text text-anchor="start" x="364.5" y="-85.5" font-family="Helvetica,sans-Serif" font-size="10.00" fill="#000000">l4/l4virtio/server</text>
<text text-anchor="middle" x="402.5" y="-74.5" font-family="Helvetica,sans-Serif" font-size="10.00" fill="#000000">/l4virtio</text>
</a>
</g>
</g>
<!-- Node15&#45;&gt;Node16 -->
<g id="edge5" class="edge">
<title>Node15&#45;&gt;Node16</title>
<path fill="none" stroke="#191970" d="M332.0941,-185.6028C309.8056,-173.2587 285.9023,-154.2959 298.5,-134 311.2506,-113.4578 334.899,-100.858 356.427,-93.2682"/>
<polygon fill="#191970" stroke="#191970" points="330.6307,-188.7871 341.115,-190.3142 333.8714,-182.5824 330.6307,-188.7871"/>
</g>
<!-- Node18 -->
<g id="node8" class="node">
<title>Node18</title>
<g id="a_node8"><a xlink:href="util_2shared__cap.html" target="_top" xlink:title="Shared_cap / Shared_del_cap. ">
<polygon fill="#ffffff" stroke="#000000" points="307,-134.5 307,-153.5 420,-153.5 420,-134.5 307,-134.5"/>
<text text-anchor="middle" x="363.5" y="-141.5" font-family="Helvetica,sans-Serif" font-size="10.00" fill="#000000">l4/re/util/shared_cap</text>
</a>
</g>
</g>
<!-- Node15&#45;&gt;Node18 -->
<g id="edge7" class="edge">
<title>Node15&#45;&gt;Node18</title>
<path fill="none" stroke="#191970" d="M363.5,-180.1575C363.5,-171.155 363.5,-160.9199 363.5,-153.6427"/>
<polygon fill="#191970" stroke="#191970" points="360.0001,-180.2455 363.5,-190.2455 367.0001,-180.2456 360.0001,-180.2455"/>
</g>
<!-- Node19 -->
<g id="node9" class="node">
<title>Node19</title>
<g id="a_node9"><a xlink:href="util_2unique__cap.html" target="_top" xlink:title="Unique_cap / Unique_del_cap. ">
<polygon fill="#ffffff" stroke="#000000" points="438.5,-134.5 438.5,-153.5 548.5,-153.5 548.5,-134.5 438.5,-134.5"/>
<text text-anchor="middle" x="493.5" y="-141.5" font-family="Helvetica,sans-Serif" font-size="10.00" fill="#000000">l4/re/util/unique_cap</text>
</a>
</g>
</g>
<!-- Node15&#45;&gt;Node19 -->
<g id="edge9" class="edge">
<title>Node15&#45;&gt;Node19</title>
<path fill="none" stroke="#191970" d="M395.1102,-186.3833C418.7535,-176.1985 450.4876,-162.5284 471.4438,-153.5011"/>
<polygon fill="#191970" stroke="#191970" points="393.6472,-183.2025 385.8478,-190.3733 396.4166,-189.6314 393.6472,-183.2025"/>
</g>
<!-- Node20 -->
<g id="node10" class="node">
<title>Node20</title>
<g id="a_node10"><a xlink:href="util_2event.html" target="_top" xlink:title="l4/re/util/event">
<polygon fill="#ffffff" stroke="#000000" points="243,-73 243,-92 326,-92 326,-73 243,-73"/>
<text text-anchor="middle" x="284.5" y="-80" font-family="Helvetica,sans-Serif" font-size="10.00" fill="#000000">l4/re/util/event</text>
</a>
</g>
</g>
<!-- Node15&#45;&gt;Node20 -->
<g id="edge17" class="edge">
<title>Node15&#45;&gt;Node20</title>
<path fill="none" stroke="#191970" d="M327.9849,-186.0691C313.9381,-178.6956 299.1159,-168.1762 290.5,-154 278.7251,-134.6262 280.66,-106.6611 282.7626,-92.1126"/>
<polygon fill="#191970" stroke="#191970" points="326.5067,-189.2421 337.0305,-190.4671 329.5676,-182.9468 326.5067,-189.2421"/>
</g>
<!-- Node21 -->
<g id="node11" class="node">
<title>Node21</title>
<g id="a_node11"><a xlink:href="object__registry_source.html" target="_top" xlink:title="l4/re/util/object_registry">
<polygon fill="#ffffff" stroke="#000000" points="514,-73 514,-92 639,-92 639,-73 514,-73"/>
<text text-anchor="middle" x="576.5" y="-80" font-family="Helvetica,sans-Serif" font-size="10.00" fill="#000000">l4/re/util/object_registry</text>
</a>
</g>
</g>
<!-- Node15&#45;&gt;Node21 -->
<g id="edge20" class="edge">
<title>Node15&#45;&gt;Node21</title>
<path fill="none" stroke="#191970" d="M424.1794,-192.4821C473.7689,-185.1304 538.6462,-172.353 557.5,-154 574.4344,-137.5154 576.841,-107.7904 576.8552,-92.374"/>
<polygon fill="#191970" stroke="#191970" points="423.5667,-189.0341 414.168,-193.9243 424.5649,-195.9626 423.5667,-189.0341"/>
</g>
<!-- Node22 -->
<g id="node12" class="node">
<title>Node22</title>
<g id="a_node12"><a xlink:href="env__ns_source.html" target="_top" xlink:title="l4/re/util/env_ns">
<polygon fill="#ffffff" stroke="#000000" points="11,-134.5 11,-153.5 102,-153.5 102,-134.5 11,-134.5"/>
<text text-anchor="middle" x="56.5" y="-141.5" font-family="Helvetica,sans-Serif" font-size="10.00" fill="#000000">l4/re/util/env_ns</text>
</a>
</g>
</g>
<!-- Node15&#45;&gt;Node22 -->
<g id="edge14" class="edge">
<title>Node15&#45;&gt;Node22</title>
<path fill="none" stroke="#191970" d="M302.8742,-188.9412C243.885,-178.181 155.5737,-162.0721 102.2537,-152.346"/>
<polygon fill="#191970" stroke="#191970" points="302.3394,-192.4013 312.8052,-190.7527 303.5956,-185.515 302.3394,-192.4013"/>
</g>
<!-- Node15&#45;&gt;Node24 -->
<g id="edge16" class="edge">
<title>Node15&#45;&gt;Node24</title>
<path fill="none" stroke="#191970" d="M424.0025,-188.6304C478.9301,-178.3084 559.0216,-163.2577 610.7004,-153.5462"/>
<polygon fill="#191970" stroke="#191970" points="423.2332,-185.2136 414.0516,-190.5004 424.526,-192.0932 423.2332,-185.2136"/>
</g>
<!-- Node25 -->
<g id="node15" class="node">
<title>Node25</title>
<g id="a_node15"><a xlink:href="icu__svr_source.html" target="_top" xlink:title="l4/re/util/icu_svr">
<polygon fill="#ffffff" stroke="#000000" points="123,-134.5 123,-153.5 212,-153.5 212,-134.5 123,-134.5"/>
<text text-anchor="middle" x="167.5" y="-141.5" font-family="Helvetica,sans-Serif" font-size="10.00" fill="#000000">l4/re/util/icu_svr</text>
</a>
</g>
</g>
<!-- Node15&#45;&gt;Node25 -->
<g id="edge18" class="edge">
<title>Node15&#45;&gt;Node25</title>
<path fill="none" stroke="#191970" d="M320.0587,-187.5882C284.0484,-177.2996 233.6132,-162.8895 200.7539,-153.5011"/>
<polygon fill="#191970" stroke="#191970" points="319.2296,-190.9913 329.8064,-190.3733 321.1527,-184.2606 319.2296,-190.9913"/>
</g>
<!-- Node17 -->
<g id="node7" class="node">
<title>Node17</title>
<g id="a_node7"><a xlink:href="virtio-block_source.html" target="_top" xlink:title="l4/l4virtio/server\l/virtio&#45;block">
<polygon fill="#ffffff" stroke="#000000" points="396.5,-.5 396.5,-30.5 488.5,-30.5 488.5,-.5 396.5,-.5"/>
<text text-anchor="start" x="404.5" y="-18.5" font-family="Helvetica,sans-Serif" font-size="10.00" fill="#000000">l4/l4virtio/server</text>
<text text-anchor="middle" x="442.5" y="-7.5" font-family="Helvetica,sans-Serif" font-size="10.00" fill="#000000">/virtio&#45;block</text>
</a>
</g>
</g>
<!-- Node16&#45;&gt;Node17 -->
<g id="edge6" class="edge">
<title>Node16&#45;&gt;Node17</title>
<path fill="none" stroke="#191970" d="M416.8381,-58.4837C422.3808,-49.1996 428.5558,-38.8565 433.4593,-30.6432"/>
<polygon fill="#191970" stroke="#191970" points="413.6976,-56.9163 411.5766,-67.2967 419.7079,-60.5046 413.6976,-56.9163"/>
</g>
<!-- Node18&#45;&gt;Node16 -->
<g id="edge8" class="edge">
<title>Node18&#45;&gt;Node16</title>
<path fill="none" stroke="#191970" d="M375.0389,-125.8041C380.7459,-116.8045 387.5513,-106.073 392.9595,-97.5446"/>
<polygon fill="#191970" stroke="#191970" points="371.9934,-124.0711 369.5938,-134.3906 377.905,-127.8199 371.9934,-124.0711"/>
</g>
<!-- Node19&#45;&gt;Node16 -->
<g id="edge10" class="edge">
<title>Node19&#45;&gt;Node16</title>
<path fill="none" stroke="#191970" d="M470.6892,-128.5839C456.6387,-119.0882 438.7087,-106.9707 424.7611,-97.5446"/>
<polygon fill="#191970" stroke="#191970" points="469.0361,-131.691 479.2813,-134.3906 472.9557,-125.8913 469.0361,-131.691"/>
</g>
<!-- Node19&#45;&gt;Node17 -->
<g id="edge11" class="edge">
<title>Node19&#45;&gt;Node17</title>
<path fill="none" stroke="#191970" d="M485.9433,-124.9602C475.767,-99.3198 457.8612,-54.2041 448.5333,-30.7016"/>
<polygon fill="#191970" stroke="#191970" points="482.7245,-126.3381 489.6667,-134.3416 489.2308,-123.7557 482.7245,-126.3381"/>
</g>
<!-- Node19&#45;&gt;Node20 -->
<g id="edge12" class="edge">
<title>Node19&#45;&gt;Node20</title>
<path fill="none" stroke="#191970" d="M451.1861,-131.5488C411.5074,-119.873 353.029,-102.6652 316.9269,-92.0419"/>
<polygon fill="#191970" stroke="#191970" points="450.2624,-134.9253 460.8438,-134.3906 452.2385,-128.21 450.2624,-134.9253"/>
</g>
<!-- Node19&#45;&gt;Node21 -->
<g id="edge13" class="edge">
<title>Node19&#45;&gt;Node21</title>
<path fill="none" stroke="#191970" d="M514.8923,-128.1491C530.3142,-116.722 550.6216,-101.6749 563.6223,-92.0419"/>
<polygon fill="#191970" stroke="#191970" points="512.4198,-125.625 506.4688,-134.3906 516.5872,-131.2493 512.4198,-125.625"/>
</g>
<!-- Node23 -->
<g id="node13" class="node">
<title>Node23</title>
<g id="a_node13"><a xlink:href="ns__fs__impl_8h_source.html" target="_top" xlink:title="l4/l4re_vfs/impl/ns\l_fs_impl.h">
<polygon fill="#ffffff" stroke="#000000" points="0,-67.5 0,-97.5 101,-97.5 101,-67.5 0,-67.5"/>
<text text-anchor="start" x="8" y="-85.5" font-family="Helvetica,sans-Serif" font-size="10.00" fill="#000000">l4/l4re_vfs/impl/ns</text>
<text text-anchor="middle" x="50.5" y="-74.5" font-family="Helvetica,sans-Serif" font-size="10.00" fill="#000000">_fs_impl.h</text>
</a>
</g>
</g>
<!-- Node22&#45;&gt;Node23 -->
<g id="edge15" class="edge">
<title>Node22&#45;&gt;Node23</title>
<path fill="none" stroke="#191970" d="M54.5848,-124.3693C53.7372,-115.681 52.756,-105.6241 51.9678,-97.5446"/>
<polygon fill="#191970" stroke="#191970" points="51.1079,-124.7778 55.5625,-134.3906 58.0749,-124.098 51.1079,-124.7778"/>
</g>
<!-- Node26 -->
<g id="node16" class="node">
<title>Node26</title>
<g id="a_node16"><a xlink:href="event__svr_source.html" target="_top" xlink:title="l4/re/util/event_svr">
<polygon fill="#ffffff" stroke="#000000" points="119,-73 119,-92 222,-92 222,-73 119,-73"/>
<text text-anchor="middle" x="170.5" y="-80" font-family="Helvetica,sans-Serif" font-size="10.00" fill="#000000">l4/re/util/event_svr</text>
</a>
</g>
</g>
<!-- Node25&#45;&gt;Node26 -->
<g id="edge19" class="edge">
<title>Node25&#45;&gt;Node26</title>
<path fill="none" stroke="#191970" d="M168.4636,-124.2462C168.9853,-113.5519 169.6066,-100.814 170.0246,-92.2449"/>
<polygon fill="#191970" stroke="#191970" points="164.9602,-124.2319 167.9688,-134.3906 171.9519,-124.5731 164.9602,-124.2319"/>
</g>
<!-- Node29&#45;&gt;Node21 -->
<g id="edge25" class="edge">
<title>Node29&#45;&gt;Node21</title>
<path fill="none" stroke="#191970" d="M749.3681,-241.9176C752.2277,-214.5188 753.071,-164.6676 727.5,-134 713.5314,-117.2473 659.5952,-101.6149 620.1576,-92.0653"/>
<polygon fill="#191970" stroke="#191970" points="745.8932,-241.5 748.1352,-251.8549 752.8399,-242.3619 745.8932,-241.5"/>
</g>
</g>
</svg>
