<?xml version="1.0" encoding="UTF-8" standalone="no"?>
<!DOCTYPE svg PUBLIC "-//W3C//DTD SVG 1.1//EN"
 "http://www.w3.org/Graphics/SVG/1.1/DTD/svg11.dtd">
<!-- Generated by graphviz version 2.40.1 (20161225.0304)
 -->
<!-- Title: l4/sys/vm Pages: 1 -->
<svg width="808pt" height="823pt"
 viewBox="0.00 0.00 807.62 823.00" xmlns="http://www.w3.org/2000/svg" xmlns:xlink="http://www.w3.org/1999/xlink">
<g id="graph0" class="graph" transform="scale(1 1) rotate(0) translate(4 819)">
<title>l4/sys/vm</title>
<polygon fill="#ffffff" stroke="transparent" points="-4,4 -4,-819 803.6202,-819 803.6202,4 -4,4"/>
<!-- Node0 -->
<g id="node1" class="node">
<title>Node0</title>
<polygon fill="#bfbfbf" stroke="#000000" points="46,-795.5 46,-814.5 106,-814.5 106,-795.5 46,-795.5"/>
<text text-anchor="middle" x="76" y="-802.5" font-family="Helvetica,sans-Serif" font-size="10.00" fill="#000000">l4/sys/vm</text>
</g>
<!-- Node1 -->
<g id="node2" class="node">
<title>Node1</title>
<polygon fill="#ffffff" stroke="#bfbfbf" points="0,-739.5 0,-758.5 68,-758.5 68,-739.5 0,-739.5"/>
<text text-anchor="middle" x="34" y="-746.5" font-family="Helvetica,sans-Serif" font-size="10.00" fill="#000000">l4/sys/vm.h</text>
</g>
<!-- Node0&#45;&gt;Node1 -->
<g id="edge1" class="edge">
<title>Node0&#45;&gt;Node1</title>
<path fill="none" stroke="#191970" d="M68.6842,-795.2455C62.7821,-787.3761 54.3258,-776.101 47.2406,-766.6542"/>
<polygon fill="#191970" stroke="#191970" points="50.0321,-764.5427 41.232,-758.6427 44.432,-768.7427 50.0321,-764.5427"/>
</g>
<!-- Node2 -->
<g id="node3" class="node">
<title>Node2</title>
<g id="a_node3"><a xlink:href="task.html" target="_top" xlink:title="Common task related definitions. ">
<polygon fill="#ffffff" stroke="#000000" points="86,-739.5 86,-758.5 152,-758.5 152,-739.5 86,-739.5"/>
<text text-anchor="middle" x="119" y="-746.5" font-family="Helvetica,sans-Serif" font-size="10.00" fill="#000000">l4/sys/task</text>
</a>
</g>
</g>
<!-- Node0&#45;&gt;Node2 -->
<g id="edge2" class="edge">
<title>Node0&#45;&gt;Node2</title>
<path fill="none" stroke="#191970" d="M83.49,-795.2455C89.5326,-787.3761 98.1903,-776.101 105.4441,-766.6542"/>
<polygon fill="#191970" stroke="#191970" points="108.2815,-768.7058 111.5958,-758.6427 102.7295,-764.4426 108.2815,-768.7058"/>
</g>
<!-- Node3 -->
<g id="node4" class="node">
<title>Node3</title>
<g id="a_node4"><a xlink:href="l4_2sys_2task_8h.html" target="_top" xlink:title="Common task related definitions. ">
<polygon fill="#ffffff" stroke="#000000" points="223,-342 223,-361 297,-361 297,-342 223,-342"/>
<text text-anchor="middle" x="260" y="-349" font-family="Helvetica,sans-Serif" font-size="10.00" fill="#000000">l4/sys/task.h</text>
</a>
</g>
</g>
<!-- Node2&#45;&gt;Node3 -->
<g id="edge3" class="edge">
<title>Node2&#45;&gt;Node3</title>
<path fill="none" stroke="#191970" d="M119.1077,-739.4759C119.6608,-712.4161 123.0028,-633.0274 143,-571 168.7865,-491.0154 222.9811,-405.7907 247.4906,-369.5154"/>
<polygon fill="#191970" stroke="#191970" points="250.5561,-371.2329 253.3087,-361.0019 244.7768,-367.2833 250.5561,-371.2329"/>
</g>
<!-- Node14 -->
<g id="node15" class="node">
<title>Node14</title>
<g id="a_node15"><a xlink:href="capability.html" target="_top" xlink:title="L4::Cap related definitions. ">
<polygon fill="#ffffff" stroke="#000000" points="157,-683.5 157,-702.5 247,-702.5 247,-683.5 157,-683.5"/>
<text text-anchor="middle" x="202" y="-690.5" font-family="Helvetica,sans-Serif" font-size="10.00" fill="#000000">l4/sys/capability</text>
</a>
</g>
</g>
<!-- Node2&#45;&gt;Node14 -->
<g id="edge24" class="edge">
<title>Node2&#45;&gt;Node14</title>
<path fill="none" stroke="#191970" d="M133.4575,-739.2455C146.0732,-730.7337 164.5944,-718.2375 179.2045,-708.3801"/>
<polygon fill="#191970" stroke="#191970" points="181.3761,-711.1371 187.7082,-702.6427 177.4609,-705.3343 181.3761,-711.1371"/>
</g>
<!-- Node4 -->
<g id="node5" class="node">
<title>Node4</title>
<g id="a_node5"><a xlink:href="l4_2sys_2types_8h.html" target="_top" xlink:title="Common L4 ABI Data Types. ">
<polygon fill="#ffffff" stroke="#000000" points="191,-168.5 191,-187.5 271,-187.5 271,-168.5 191,-168.5"/>
<text text-anchor="middle" x="231" y="-175.5" font-family="Helvetica,sans-Serif" font-size="10.00" fill="#000000">l4/sys/types.h</text>
</a>
</g>
</g>
<!-- Node3&#45;&gt;Node4 -->
<g id="edge4" class="edge">
<title>Node3&#45;&gt;Node4</title>
<path fill="none" stroke="#191970" d="M258.3995,-341.9248C253.8154,-314.499 240.5662,-235.232 234.3256,-197.8964"/>
<polygon fill="#191970" stroke="#191970" points="237.7321,-197.0457 232.6313,-187.7595 230.8278,-198.1997 237.7321,-197.0457"/>
</g>
<!-- Node11 -->
<g id="node12" class="node">
<title>Node11</title>
<g id="a_node12"><a xlink:href="l4_2sys_2utcb_8h.html" target="_top" xlink:title="UTCB definitions. ">
<polygon fill="#ffffff" stroke="#000000" points="300,-224.5 300,-243.5 374,-243.5 374,-224.5 300,-224.5"/>
<text text-anchor="middle" x="337" y="-231.5" font-family="Helvetica,sans-Serif" font-size="10.00" fill="#000000">l4/sys/utcb.h</text>
</a>
</g>
</g>
<!-- Node3&#45;&gt;Node11 -->
<g id="edge15" class="edge">
<title>Node3&#45;&gt;Node11</title>
<path fill="none" stroke="#191970" d="M266.3012,-341.8845C279.1045,-322.3471 308.3487,-277.7211 324.9352,-252.4106"/>
<polygon fill="#191970" stroke="#191970" points="328.058,-254.0309 330.6117,-243.7484 322.2031,-250.194 328.058,-254.0309"/>
</g>
<!-- Node12 -->
<g id="node13" class="node">
<title>Node12</title>
<g id="a_node13"><a xlink:href="l4_2sys_2ipc_8h.html" target="_top" xlink:title="Common IPC interface. ">
<polygon fill="#ffffff" stroke="#000000" points="366,-280.5 366,-299.5 434,-299.5 434,-280.5 366,-280.5"/>
<text text-anchor="middle" x="400" y="-287.5" font-family="Helvetica,sans-Serif" font-size="10.00" fill="#000000">l4/sys/ipc.h</text>
</a>
</g>
</g>
<!-- Node3&#45;&gt;Node12 -->
<g id="edge19" class="edge">
<title>Node3&#45;&gt;Node12</title>
<path fill="none" stroke="#191970" d="M281.875,-341.8906C305.2996,-331.6005 342.6596,-315.1888 369.0841,-303.5809"/>
<polygon fill="#191970" stroke="#191970" points="370.5307,-306.7683 378.2786,-299.5419 367.7154,-300.3594 370.5307,-306.7683"/>
</g>
<!-- Node5 -->
<g id="node6" class="node">
<title>Node5</title>
<g id="a_node6"><a xlink:href="l4_2sys_2l4int_8h.html" target="_top" xlink:title="Fixed sized integer types, generic version. ">
<polygon fill="#ffffff" stroke="#000000" points="159,-56.5 159,-75.5 233,-75.5 233,-56.5 159,-56.5"/>
<text text-anchor="middle" x="196" y="-63.5" font-family="Helvetica,sans-Serif" font-size="10.00" fill="#000000">l4/sys/l4int.h</text>
</a>
</g>
</g>
<!-- Node4&#45;&gt;Node5 -->
<g id="edge5" class="edge">
<title>Node4&#45;&gt;Node5</title>
<path fill="none" stroke="#191970" d="M213.9433,-168.377C201.6911,-160.4014 186.1292,-147.8248 179,-132 172.1169,-116.7213 178.0525,-98.148 184.7302,-84.6015"/>
<polygon fill="#191970" stroke="#191970" points="187.8443,-86.2014 189.5511,-75.745 181.6961,-82.8548 187.8443,-86.2014"/>
</g>
<!-- Node6 -->
<g id="node7" class="node">
<title>Node6</title>
<g id="a_node7"><a xlink:href="compiler_8h.html" target="_top" xlink:title="L4 compiler related defines. ">
<polygon fill="#ffffff" stroke="#000000" points="437.5,-56.5 437.5,-75.5 532.5,-75.5 532.5,-56.5 437.5,-56.5"/>
<text text-anchor="middle" x="485" y="-63.5" font-family="Helvetica,sans-Serif" font-size="10.00" fill="#000000">l4/sys/compiler.h</text>
</a>
</g>
</g>
<!-- Node4&#45;&gt;Node6 -->
<g id="edge6" class="edge">
<title>Node4&#45;&gt;Node6</title>
<path fill="none" stroke="#191970" d="M271.2533,-173.3832C325.7598,-166.4748 419.4095,-152.0791 447,-132 462.6566,-120.6059 472.8361,-100.6481 478.681,-85.654"/>
<polygon fill="#191970" stroke="#191970" points="482.1301,-86.4013 482.1874,-75.8066 475.5357,-84.0532 482.1301,-86.4013"/>
</g>
<!-- Node8 -->
<g id="node9" class="node">
<title>Node8</title>
<g id="a_node9"><a xlink:href="l4_2sys_2consts_8h.html" target="_top" xlink:title="Common constants. ">
<polygon fill="#ffffff" stroke="#000000" points="188,-112.5 188,-131.5 274,-131.5 274,-112.5 188,-112.5"/>
<text text-anchor="middle" x="231" y="-119.5" font-family="Helvetica,sans-Serif" font-size="10.00" fill="#000000">l4/sys/consts.h</text>
</a>
</g>
</g>
<!-- Node4&#45;&gt;Node8 -->
<g id="edge8" class="edge">
<title>Node4&#45;&gt;Node8</title>
<path fill="none" stroke="#191970" d="M231,-168.2455C231,-160.9382 231,-150.6944 231,-141.7046"/>
<polygon fill="#191970" stroke="#191970" points="234.5001,-141.6426 231,-131.6427 227.5001,-141.6427 234.5001,-141.6426"/>
</g>
<!-- Node9 -->
<g id="node10" class="node">
<title>Node9</title>
<g id="a_node10"><a xlink:href="____l4__fpage_8h_source.html" target="_top" xlink:title="l4/sys/__l4_fpage.h">
<polygon fill="#ffffff" stroke="#000000" points="330,-112.5 330,-131.5 438,-131.5 438,-112.5 330,-112.5"/>
<text text-anchor="middle" x="384" y="-119.5" font-family="Helvetica,sans-Serif" font-size="10.00" fill="#000000">l4/sys/__l4_fpage.h</text>
</a>
</g>
</g>
<!-- Node4&#45;&gt;Node9 -->
<g id="edge11" class="edge">
<title>Node4&#45;&gt;Node9</title>
<path fill="none" stroke="#191970" d="M257.3016,-168.3733C282.4128,-159.1822 320.4438,-145.2624 348.2872,-135.0713"/>
<polygon fill="#191970" stroke="#191970" points="349.8538,-138.2251 358.0416,-131.5011 347.4478,-131.6516 349.8538,-138.2251"/>
</g>
<!-- Node10 -->
<g id="node11" class="node">
<title>Node10</title>
<g id="a_node11"><a xlink:href="____timeout_8h_source.html" target="_top" xlink:title="l4/sys/__timeout.h">
<polygon fill="#ffffff" stroke="#000000" points="30.5,-112.5 30.5,-131.5 131.5,-131.5 131.5,-112.5 30.5,-112.5"/>
<text text-anchor="middle" x="81" y="-119.5" font-family="Helvetica,sans-Serif" font-size="10.00" fill="#000000">l4/sys/__timeout.h</text>
</a>
</g>
</g>
<!-- Node4&#45;&gt;Node10 -->
<g id="edge13" class="edge">
<title>Node4&#45;&gt;Node10</title>
<path fill="none" stroke="#191970" d="M205.2141,-168.3733C180.5953,-159.1822 143.31,-145.2624 116.0125,-135.0713"/>
<polygon fill="#191970" stroke="#191970" points="117.042,-131.7198 106.4494,-131.5011 114.5937,-138.2777 117.042,-131.7198"/>
</g>
<!-- Node7 -->
<g id="node8" class="node">
<title>Node7</title>
<polygon fill="#ffffff" stroke="#bfbfbf" points="440.5,-.5 440.5,-19.5 529.5,-19.5 529.5,-.5 440.5,-.5"/>
<text text-anchor="middle" x="485" y="-7.5" font-family="Helvetica,sans-Serif" font-size="10.00" fill="#000000">l4/sys/linkage.h</text>
</g>
<!-- Node6&#45;&gt;Node7 -->
<g id="edge7" class="edge">
<title>Node6&#45;&gt;Node7</title>
<path fill="none" stroke="#191970" d="M485,-56.2455C485,-48.9382 485,-38.6944 485,-29.7046"/>
<polygon fill="#191970" stroke="#191970" points="488.5001,-29.6426 485,-19.6427 481.5001,-29.6427 488.5001,-29.6426"/>
</g>
<!-- Node8&#45;&gt;Node5 -->
<g id="edge10" class="edge">
<title>Node8&#45;&gt;Node5</title>
<path fill="none" stroke="#191970" d="M224.9035,-112.2455C220.0855,-104.5367 213.2249,-93.5598 207.3968,-84.2348"/>
<polygon fill="#191970" stroke="#191970" points="210.2947,-82.2677 202.0267,-75.6427 204.3587,-85.9777 210.2947,-82.2677"/>
</g>
<!-- Node8&#45;&gt;Node6 -->
<g id="edge9" class="edge">
<title>Node8&#45;&gt;Node6</title>
<path fill="none" stroke="#191970" d="M274.0876,-112.5004C317.6022,-102.9066 384.9061,-88.0679 431.7398,-77.7424"/>
<polygon fill="#191970" stroke="#191970" points="432.6891,-81.1173 441.701,-75.5462 431.1819,-74.2814 432.6891,-81.1173"/>
</g>
<!-- Node9&#45;&gt;Node6 -->
<g id="edge12" class="edge">
<title>Node9&#45;&gt;Node6</title>
<path fill="none" stroke="#191970" d="M401.5929,-112.2455C417.379,-103.4928 440.7639,-90.527 458.7587,-80.5496"/>
<polygon fill="#191970" stroke="#191970" points="460.5603,-83.5528 467.6087,-75.6427 457.1659,-77.4308 460.5603,-83.5528"/>
</g>
<!-- Node10&#45;&gt;Node5 -->
<g id="edge14" class="edge">
<title>Node10&#45;&gt;Node5</title>
<path fill="none" stroke="#191970" d="M100.7692,-112.3733C119.1469,-103.4241 146.7312,-89.9917 167.4893,-79.8835"/>
<polygon fill="#191970" stroke="#191970" points="169.0304,-83.026 176.4888,-75.5011 165.9657,-76.7325 169.0304,-83.026"/>
</g>
<!-- Node11&#45;&gt;Node4 -->
<g id="edge16" class="edge">
<title>Node11&#45;&gt;Node4</title>
<path fill="none" stroke="#191970" d="M318.5362,-224.2455C301.8926,-215.4527 277.2007,-202.4079 258.2808,-192.4125"/>
<polygon fill="#191970" stroke="#191970" points="259.7291,-189.2193 249.2522,-187.6427 256.4592,-195.4086 259.7291,-189.2193"/>
</g>
<!-- Node11&#45;&gt;Node5 -->
<g id="edge18" class="edge">
<title>Node11&#45;&gt;Node5</title>
<path fill="none" stroke="#191970" d="M334.9905,-224.2406C329.9338,-201.8391 314.7542,-146.0472 283,-112 269.7518,-97.7951 251.1125,-87.1348 234.4832,-79.6722"/>
<polygon fill="#191970" stroke="#191970" points="235.5533,-76.3245 224.9803,-75.6453 232.8221,-82.7696 235.5533,-76.3245"/>
</g>
<!-- Node11&#45;&gt;Node6 -->
<g id="edge17" class="edge">
<title>Node11&#45;&gt;Node6</title>
<path fill="none" stroke="#191970" d="M357.4739,-224.377C387.4232,-209.184 442.6845,-176.706 471,-132 479.7157,-118.2392 483.0936,-99.9532 484.3609,-86.1188"/>
<polygon fill="#191970" stroke="#191970" points="487.8786,-85.9383 485,-75.742 480.8918,-85.5079 487.8786,-85.9383"/>
</g>
<!-- Node12&#45;&gt;Node4 -->
<g id="edge20" class="edge">
<title>Node12&#45;&gt;Node4</title>
<path fill="none" stroke="#191970" d="M367.5968,-280.4611C344.8663,-272.8175 314.4676,-260.6181 291,-244 272.1619,-230.6601 254.919,-210.4783 243.8006,-195.9451"/>
<polygon fill="#191970" stroke="#191970" points="246.4799,-193.6822 237.7098,-187.7377 240.8587,-197.8538 246.4799,-193.6822"/>
</g>
<!-- Node12&#45;&gt;Node11 -->
<g id="edge21" class="edge">
<title>Node12&#45;&gt;Node11</title>
<path fill="none" stroke="#191970" d="M389.0262,-280.2455C379.8118,-272.0549 366.4468,-260.1749 355.5703,-250.5069"/>
<polygon fill="#191970" stroke="#191970" points="357.6474,-247.6704 347.848,-243.6427 352.9968,-252.9023 357.6474,-247.6704"/>
</g>
<!-- Node13 -->
<g id="node14" class="node">
<title>Node13</title>
<g id="a_node14"><a xlink:href="err_8h.html" target="_top" xlink:title="Error codes. ">
<polygon fill="#ffffff" stroke="#000000" points="645,-224.5 645,-243.5 713,-243.5 713,-224.5 645,-224.5"/>
<text text-anchor="middle" x="679" y="-231.5" font-family="Helvetica,sans-Serif" font-size="10.00" fill="#000000">l4/sys/err.h</text>
</a>
</g>
</g>
<!-- Node12&#45;&gt;Node13 -->
<g id="edge22" class="edge">
<title>Node12&#45;&gt;Node13</title>
<path fill="none" stroke="#191970" d="M434.2109,-283.1333C484.7579,-272.9877 579.3984,-253.9917 635.0316,-242.8252"/>
<polygon fill="#191970" stroke="#191970" points="635.8305,-246.2347 644.9461,-240.8352 634.4529,-239.3716 635.8305,-246.2347"/>
</g>
<!-- Node13&#45;&gt;Node6 -->
<g id="edge23" class="edge">
<title>Node13&#45;&gt;Node6</title>
<path fill="none" stroke="#191970" d="M670.6427,-224.4575C651.5682,-202.9721 602.8455,-149.7354 556,-112 541.6444,-100.4362 524.2994,-89.1545 510.3467,-80.6578"/>
<polygon fill="#191970" stroke="#191970" points="512.1109,-77.6347 501.7331,-75.5014 508.5155,-83.6408 512.1109,-77.6347"/>
</g>
<!-- Node14&#45;&gt;Node3 -->
<g id="edge46" class="edge">
<title>Node14&#45;&gt;Node3</title>
<path fill="none" stroke="#191970" d="M208.8345,-683.3377C221.4231,-664.5638 247,-621.4436 247,-581 247,-581 247,-581 247,-469 247,-434.4303 252.6278,-394.4845 256.4777,-371.2028"/>
<polygon fill="#191970" stroke="#191970" points="259.9509,-371.6566 258.1924,-361.2087 253.0517,-370.4728 259.9509,-371.6566"/>
</g>
<!-- Node14&#45;&gt;Node4 -->
<g id="edge26" class="edge">
<title>Node14&#45;&gt;Node4</title>
<path fill="none" stroke="#191970" d="M195.1655,-683.3377C182.5769,-664.5638 157,-621.4436 157,-581 157,-581 157,-581 157,-525 157,-446.061 119,-430.439 119,-351.5 119,-351.5 119,-351.5 119,-290 119,-243.7508 167.3421,-209.9293 200.5065,-192.1683"/>
<polygon fill="#191970" stroke="#191970" points="202.1159,-195.2764 209.4053,-187.5877 198.9122,-189.0526 202.1159,-195.2764"/>
</g>
<!-- Node14&#45;&gt;Node8 -->
<g id="edge25" class="edge">
<title>Node14&#45;&gt;Node8</title>
<path fill="none" stroke="#191970" d="M192.0981,-683.3143C163.1997,-653.9588 81,-562.2619 81,-469 81,-469 81,-469 81,-234 81,-181.275 141.2388,-150.3967 185.3682,-134.85"/>
<polygon fill="#191970" stroke="#191970" points="186.711,-138.091 195.0713,-131.5829 184.4772,-131.457 186.711,-138.091"/>
</g>
<!-- Node15 -->
<g id="node16" class="node">
<title>Node15</title>
<g id="a_node16"><a xlink:href="kobject_source.html" target="_top" xlink:title="l4/sys/kobject">
<polygon fill="#ffffff" stroke="#000000" points="353,-515.5 353,-534.5 433,-534.5 433,-515.5 353,-515.5"/>
<text text-anchor="middle" x="393" y="-522.5" font-family="Helvetica,sans-Serif" font-size="10.00" fill="#000000">l4/sys/kobject</text>
</a>
</g>
</g>
<!-- Node14&#45;&gt;Node15 -->
<g id="edge27" class="edge">
<title>Node14&#45;&gt;Node15</title>
<path fill="none" stroke="#191970" d="M214.9054,-683.431C227.0262,-674.3292 245.5569,-660.117 261,-647 303.4936,-610.9069 350.9678,-565.7701 375.7731,-541.7928"/>
<polygon fill="#191970" stroke="#191970" points="378.2525,-544.2639 382.9952,-534.7898 373.3795,-539.2385 378.2525,-544.2639"/>
</g>
<!-- Node22 -->
<g id="node23" class="node">
<title>Node22</title>
<g id="a_node23"><a xlink:href="sys_2meta.html" target="_top" xlink:title="Meta interface for getting dynamic type information about objects behind capabilities. ">
<polygon fill="#ffffff" stroke="#000000" points="422,-627.5 422,-646.5 492,-646.5 492,-627.5 422,-627.5"/>
<text text-anchor="middle" x="457" y="-634.5" font-family="Helvetica,sans-Serif" font-size="10.00" fill="#000000">l4/sys/meta</text>
</a>
</g>
</g>
<!-- Node14&#45;&gt;Node22 -->
<g id="edge47" class="edge">
<title>Node14&#45;&gt;Node22</title>
<path fill="none" stroke="#191970" d="M245.5463,-683.4369C291.9298,-673.2507 364.998,-657.2044 411.9489,-646.8936"/>
<polygon fill="#191970" stroke="#191970" points="412.8249,-650.2847 421.8413,-644.7211 411.3233,-643.4476 412.8249,-650.2847"/>
</g>
<!-- Node15&#45;&gt;Node4 -->
<g id="edge35" class="edge">
<title>Node15&#45;&gt;Node4</title>
<path fill="none" stroke="#191970" d="M353.4989,-515.4679C286.3155,-496.6342 157,-447.8665 157,-351.5 157,-351.5 157,-351.5 157,-290 157,-250.563 189.3332,-214.3258 211.2544,-194.2897"/>
<polygon fill="#191970" stroke="#191970" points="213.5867,-196.8995 218.7804,-187.665 208.9616,-191.6451 213.5867,-196.8995"/>
</g>
<!-- Node16 -->
<g id="node17" class="node">
<title>Node16</title>
<g id="a_node17"><a xlink:href="kernel__object_8h.html" target="_top" xlink:title="Kernel object system calls. ">
<polygon fill="#ffffff" stroke="#000000" points="357,-403.5 357,-422.5 445,-422.5 445,-403.5 357,-403.5"/>
<text text-anchor="middle" x="401" y="-410.5" font-family="Helvetica,sans-Serif" font-size="10.00" fill="#000000">kernel_object.h</text>
</a>
</g>
</g>
<!-- Node15&#45;&gt;Node16 -->
<g id="edge28" class="edge">
<title>Node15&#45;&gt;Node16</title>
<path fill="none" stroke="#191970" d="M393.6821,-515.4509C394.9869,-497.184 397.8603,-456.9553 399.593,-432.6976"/>
<polygon fill="#191970" stroke="#191970" points="403.0982,-432.7489 400.3197,-422.5249 396.116,-432.2501 403.0982,-432.7489"/>
</g>
<!-- Node18 -->
<g id="node19" class="node">
<title>Node18</title>
<g id="a_node19"><a xlink:href="____typeinfo_8h.html" target="_top" xlink:title="Type information handling. ">
<polygon fill="#ffffff" stroke="#000000" points="421,-459.5 421,-478.5 495,-478.5 495,-459.5 421,-459.5"/>
<text text-anchor="middle" x="458" y="-466.5" font-family="Helvetica,sans-Serif" font-size="10.00" fill="#000000">__typeinfo.h</text>
</a>
</g>
</g>
<!-- Node15&#45;&gt;Node18 -->
<g id="edge36" class="edge">
<title>Node15&#45;&gt;Node18</title>
<path fill="none" stroke="#191970" d="M404.3221,-515.2455C413.9223,-506.9746 427.8892,-494.9416 439.1695,-485.2232"/>
<polygon fill="#191970" stroke="#191970" points="441.516,-487.8214 446.8076,-478.6427 436.947,-482.5182 441.516,-487.8214"/>
</g>
<!-- Node16&#45;&gt;Node4 -->
<g id="edge29" class="edge">
<title>Node16&#45;&gt;Node4</title>
<path fill="none" stroke="#191970" d="M356.9259,-408.3767C307.3414,-402.1597 231.428,-389.2347 214,-367 174.4306,-316.5173 204.8814,-233.5034 221.7347,-196.6395"/>
<polygon fill="#191970" stroke="#191970" points="224.9319,-198.0659 226.0582,-187.5311 218.6081,-195.0642 224.9319,-198.0659"/>
</g>
<!-- Node16&#45;&gt;Node6 -->
<g id="edge30" class="edge">
<title>Node16&#45;&gt;Node6</title>
<path fill="none" stroke="#191970" d="M445.0334,-403.9969C465.4372,-397.384 487.8182,-386.0928 500,-367 558.1964,-275.7875 512.5857,-135.53 492.9006,-84.9789"/>
<polygon fill="#191970" stroke="#191970" points="496.1114,-83.5818 489.1402,-75.6034 489.6144,-86.1876 496.1114,-83.5818"/>
</g>
<!-- Node16&#45;&gt;Node11 -->
<g id="edge31" class="edge">
<title>Node16&#45;&gt;Node11</title>
<path fill="none" stroke="#191970" d="M382.3213,-403.4905C369.0872,-395.65 352.2709,-383.1946 344,-367 325.4115,-330.6035 329.1543,-281.0652 333.253,-253.8821"/>
<polygon fill="#191970" stroke="#191970" points="336.7576,-254.1469 334.9673,-243.7044 329.8548,-252.9841 336.7576,-254.1469"/>
</g>
<!-- Node16&#45;&gt;Node12 -->
<g id="edge34" class="edge">
<title>Node16&#45;&gt;Node12</title>
<path fill="none" stroke="#191970" d="M434.8965,-403.4632C452.8701,-396.4893 473.3802,-385.0275 484,-367 490.9932,-355.1289 491.0232,-347.8534 484,-336 475.0862,-320.9557 459.319,-310.5088 443.834,-303.421"/>
<polygon fill="#191970" stroke="#191970" points="444.8688,-300.06 434.2926,-299.4308 442.168,-306.5181 444.8688,-300.06"/>
</g>
<!-- Node17 -->
<g id="node18" class="node">
<title>Node17</title>
<g id="a_node18"><a xlink:href="____kernel__object__impl_8h.html" target="_top" xlink:title="Low&#45;level kernel debugger functions. ">
<polygon fill="#ffffff" stroke="#000000" points="353,-336.5 353,-366.5 475,-366.5 475,-336.5 353,-336.5"/>
<text text-anchor="start" x="361" y="-354.5" font-family="Helvetica,sans-Serif" font-size="10.00" fill="#000000">l4/sys/__kernel_object</text>
<text text-anchor="middle" x="414" y="-343.5" font-family="Helvetica,sans-Serif" font-size="10.00" fill="#000000">_impl.h</text>
</a>
</g>
</g>
<!-- Node16&#45;&gt;Node17 -->
<g id="edge32" class="edge">
<title>Node16&#45;&gt;Node17</title>
<path fill="none" stroke="#191970" d="M403.0313,-403.3906C404.5626,-396.1463 406.7352,-385.8679 408.7434,-376.3676"/>
<polygon fill="#191970" stroke="#191970" points="412.176,-377.0523 410.8198,-366.5446 405.3273,-375.6045 412.176,-377.0523"/>
</g>
<!-- Node17&#45;&gt;Node12 -->
<g id="edge33" class="edge">
<title>Node17&#45;&gt;Node12</title>
<path fill="none" stroke="#191970" d="M410.5393,-336.2977C408.7174,-328.2945 406.4615,-318.3843 404.5048,-309.7889"/>
<polygon fill="#191970" stroke="#191970" points="407.874,-308.8206 402.2416,-299.8469 401.0486,-310.3744 407.874,-308.8206"/>
</g>
<!-- Node19 -->
<g id="node20" class="node">
<title>Node19</title>
<g id="a_node20"><a xlink:href="types.html" target="_top" xlink:title="cxx/types">
<polygon fill="#ffffff" stroke="#000000" points="721.5,-342 721.5,-361 782.5,-361 782.5,-342 721.5,-342"/>
<text text-anchor="middle" x="752" y="-349" font-family="Helvetica,sans-Serif" font-size="10.00" fill="#000000">cxx/types</text>
</a>
</g>
</g>
<!-- Node18&#45;&gt;Node19 -->
<g id="edge37" class="edge">
<title>Node18&#45;&gt;Node19</title>
<path fill="none" stroke="#191970" d="M482.7385,-459.3819C505.2135,-450.4727 539.1624,-436.586 568,-423 585.2651,-414.866 588.5102,-410.639 606,-403 640.9645,-387.7286 682.0444,-373.5584 711.707,-363.9637"/>
<polygon fill="#191970" stroke="#191970" points="712.8475,-367.2736 721.3035,-360.8902 710.7124,-360.6071 712.8475,-367.2736"/>
</g>
<!-- Node20 -->
<g id="node21" class="node">
<title>Node20</title>
<g id="a_node21"><a xlink:href="ipc__basics_source.html" target="_top" xlink:title="cxx/ipc_basics">
<polygon fill="#ffffff" stroke="#000000" points="615,-403.5 615,-422.5 699,-422.5 699,-403.5 615,-403.5"/>
<text text-anchor="middle" x="657" y="-410.5" font-family="Helvetica,sans-Serif" font-size="10.00" fill="#000000">cxx/ipc_basics</text>
</a>
</g>
</g>
<!-- Node18&#45;&gt;Node20 -->
<g id="edge38" class="edge">
<title>Node18&#45;&gt;Node20</title>
<path fill="none" stroke="#191970" d="M492.2093,-459.3733C525.7297,-449.9404 576.9505,-435.5265 613.381,-425.2747"/>
<polygon fill="#191970" stroke="#191970" points="614.5591,-428.5792 623.2371,-422.5011 612.6628,-421.8409 614.5591,-428.5792"/>
</g>
<!-- Node21 -->
<g id="node22" class="node">
<title>Node21</title>
<g id="a_node22"><a xlink:href="capability_8h_source.html" target="_top" xlink:title="cxx/capability.h">
<polygon fill="#ffffff" stroke="#000000" points="471.5,-403.5 471.5,-422.5 558.5,-422.5 558.5,-403.5 471.5,-403.5"/>
<text text-anchor="middle" x="515" y="-410.5" font-family="Helvetica,sans-Serif" font-size="10.00" fill="#000000">cxx/capability.h</text>
</a>
</g>
</g>
<!-- Node18&#45;&gt;Node21 -->
<g id="edge42" class="edge">
<title>Node18&#45;&gt;Node21</title>
<path fill="none" stroke="#191970" d="M467.9286,-459.2455C476.1838,-451.1352 488.1209,-439.4075 497.9082,-429.7919"/>
<polygon fill="#191970" stroke="#191970" points="500.5046,-432.1476 505.1851,-422.6427 495.5989,-427.1542 500.5046,-432.1476"/>
</g>
<!-- Node20&#45;&gt;Node11 -->
<g id="edge40" class="edge">
<title>Node20&#45;&gt;Node11</title>
<path fill="none" stroke="#191970" d="M642.8984,-403.2187C609.2581,-380.1135 521.2637,-321.0195 443,-280 419.6846,-267.78 392.4214,-256.0016 371.3831,-247.4227"/>
<polygon fill="#191970" stroke="#191970" points="372.4798,-244.0912 361.8964,-243.5985 369.8626,-250.5835 372.4798,-244.0912"/>
</g>
<!-- Node20&#45;&gt;Node13 -->
<g id="edge41" class="edge">
<title>Node20&#45;&gt;Node13</title>
<path fill="none" stroke="#191970" d="M660.0939,-403.2402C662.8906,-394.0035 666.8838,-379.7002 669,-367 675.6307,-327.2075 677.8678,-279.9787 678.6205,-253.8644"/>
<polygon fill="#191970" stroke="#191970" points="682.1222,-253.8329 678.8665,-243.7507 675.1243,-253.6626 682.1222,-253.8329"/>
</g>
<!-- Node20&#45;&gt;Node19 -->
<g id="edge39" class="edge">
<title>Node20&#45;&gt;Node19</title>
<path fill="none" stroke="#191970" d="M671.8438,-403.3906C687.0418,-393.5519 710.8848,-378.1167 728.6206,-366.6351"/>
<polygon fill="#191970" stroke="#191970" points="730.768,-369.4144 737.2605,-361.0419 726.9639,-363.5382 730.768,-369.4144"/>
</g>
<!-- Node21&#45;&gt;Node3 -->
<g id="edge45" class="edge">
<title>Node21&#45;&gt;Node3</title>
<path fill="none" stroke="#191970" d="M475.436,-403.4581C429.9864,-392.4967 355.4704,-374.5252 307.0769,-362.8538"/>
<polygon fill="#191970" stroke="#191970" points="307.7085,-359.4059 297.1666,-360.4637 306.0672,-366.2108 307.7085,-359.4059"/>
</g>
<!-- Node21&#45;&gt;Node4 -->
<g id="edge44" class="edge">
<title>Node21&#45;&gt;Node4</title>
<path fill="none" stroke="#191970" d="M527.4212,-403.18C537.0016,-394.7529 549.5135,-381.6707 555,-367 559.8261,-354.0951 561.5667,-348.1122 555,-336 511.5217,-255.8051 465.7067,-262.4861 383,-224 350.3233,-208.7945 311.3845,-197.1235 281.0994,-189.3421"/>
<polygon fill="#191970" stroke="#191970" points="281.7334,-185.8927 271.1821,-186.8528 280.0292,-192.6821 281.7334,-185.8927"/>
</g>
<!-- Node21&#45;&gt;Node8 -->
<g id="edge43" class="edge">
<title>Node21&#45;&gt;Node8</title>
<path fill="none" stroke="#191970" d="M533.8824,-403.3676C546.97,-395.5389 563.3649,-383.1524 571,-367 588.9566,-329.012 565.2044,-308.1393 534,-280 452.8258,-206.7993 331.5495,-157.1247 269.9396,-135.0284"/>
<polygon fill="#191970" stroke="#191970" points="270.8169,-131.6264 260.2221,-131.5952 268.485,-138.2266 270.8169,-131.6264"/>
</g>
<!-- Node22&#45;&gt;Node15 -->
<g id="edge48" class="edge">
<title>Node22&#45;&gt;Node15</title>
<path fill="none" stroke="#191970" d="M451.5434,-627.4509C440.9162,-608.8533 417.2811,-567.4919 403.5122,-543.3964"/>
<polygon fill="#191970" stroke="#191970" points="406.4431,-541.4708 398.4428,-534.5249 400.3654,-544.9438 406.4431,-541.4708"/>
</g>
<!-- Node23 -->
<g id="node24" class="node">
<title>Node23</title>
<g id="a_node24"><a xlink:href="ipc__iface.html" target="_top" xlink:title="Interface Definition Language. ">
<polygon fill="#ffffff" stroke="#000000" points="468.5,-515.5 468.5,-534.5 545.5,-534.5 545.5,-515.5 468.5,-515.5"/>
<text text-anchor="middle" x="507" y="-522.5" font-family="Helvetica,sans-Serif" font-size="10.00" fill="#000000">cxx/ipc_iface</text>
</a>
</g>
</g>
<!-- Node22&#45;&gt;Node23 -->
<g id="edge49" class="edge">
<title>Node22&#45;&gt;Node23</title>
<path fill="none" stroke="#191970" d="M461.263,-627.4509C469.5286,-608.936 487.8665,-567.8591 498.6434,-543.7187"/>
<polygon fill="#191970" stroke="#191970" points="501.8672,-545.0831 502.7478,-534.5249 495.4753,-542.2295 501.8672,-545.0831"/>
</g>
<!-- Node25 -->
<g id="node26" class="node">
<title>Node25</title>
<g id="a_node26"><a xlink:href="ipc__string_source.html" target="_top" xlink:title="cxx/ipc_string">
<polygon fill="#ffffff" stroke="#000000" points="677.5,-571.5 677.5,-590.5 758.5,-590.5 758.5,-571.5 677.5,-571.5"/>
<text text-anchor="middle" x="718" y="-578.5" font-family="Helvetica,sans-Serif" font-size="10.00" fill="#000000">cxx/ipc_string</text>
</a>
</g>
</g>
<!-- Node22&#45;&gt;Node25 -->
<g id="edge56" class="edge">
<title>Node22&#45;&gt;Node25</title>
<path fill="none" stroke="#191970" d="M492.1996,-629.4476C537.3345,-619.7635 615.911,-602.9041 667.4394,-591.8483"/>
<polygon fill="#191970" stroke="#191970" points="668.3233,-595.2383 677.3665,-589.7183 666.8548,-588.3941 668.3233,-595.2383"/>
</g>
<!-- Node23&#45;&gt;Node18 -->
<g id="edge55" class="edge">
<title>Node23&#45;&gt;Node18</title>
<path fill="none" stroke="#191970" d="M498.4649,-515.2455C491.5088,-507.2958 481.5117,-495.8706 473.1949,-486.3656"/>
<polygon fill="#191970" stroke="#191970" points="475.6564,-483.8637 466.4373,-478.6427 470.3884,-488.4732 475.6564,-483.8637"/>
</g>
<!-- Node23&#45;&gt;Node20 -->
<g id="edge50" class="edge">
<title>Node23&#45;&gt;Node20</title>
<path fill="none" stroke="#191970" d="M509.8305,-515.128C514.3845,-500.8923 524.6323,-474.6007 542,-459 559.7567,-443.0498 583.7355,-432.2832 605.2022,-425.2038"/>
<polygon fill="#191970" stroke="#191970" points="606.3453,-428.5138 614.8572,-422.2052 604.269,-421.8288 606.3453,-428.5138"/>
</g>
<!-- Node24 -->
<g id="node25" class="node">
<title>Node24</title>
<g id="a_node25"><a xlink:href="ipc__types.html" target="_top" xlink:title="l4/sys/cxx/ipc_types">
<polygon fill="#ffffff" stroke="#000000" points="551,-459.5 551,-478.5 661,-478.5 661,-459.5 551,-459.5"/>
<text text-anchor="middle" x="606" y="-466.5" font-family="Helvetica,sans-Serif" font-size="10.00" fill="#000000">l4/sys/cxx/ipc_types</text>
</a>
</g>
</g>
<!-- Node23&#45;&gt;Node24 -->
<g id="edge51" class="edge">
<title>Node23&#45;&gt;Node24</title>
<path fill="none" stroke="#191970" d="M524.2445,-515.2455C539.5761,-506.5731 562.2199,-493.7645 579.7916,-483.825"/>
<polygon fill="#191970" stroke="#191970" points="581.9724,-486.6126 588.9531,-478.6427 578.5259,-480.5198 581.9724,-486.6126"/>
</g>
<!-- Node24&#45;&gt;Node19 -->
<g id="edge53" class="edge">
<title>Node24&#45;&gt;Node19</title>
<path fill="none" stroke="#191970" d="M639.623,-459.4929C661.0199,-452.165 688.3083,-440.32 708,-423 724.519,-408.4706 736.8545,-386.2188 744.1971,-370.4018"/>
<polygon fill="#191970" stroke="#191970" points="747.4735,-371.6457 748.2951,-361.0828 741.0657,-368.8279 747.4735,-371.6457"/>
</g>
<!-- Node24&#45;&gt;Node20 -->
<g id="edge54" class="edge">
<title>Node24&#45;&gt;Node20</title>
<path fill="none" stroke="#191970" d="M614.8835,-459.2455C622.1966,-451.2155 632.7391,-439.6394 641.4467,-430.0781"/>
<polygon fill="#191970" stroke="#191970" points="644.0727,-432.3928 648.2183,-422.6427 638.8972,-427.6795 644.0727,-432.3928"/>
</g>
<!-- Node24&#45;&gt;Node21 -->
<g id="edge52" class="edge">
<title>Node24&#45;&gt;Node21</title>
<path fill="none" stroke="#191970" d="M590.149,-459.2455C576.1868,-450.6534 555.6272,-438.0014 539.5404,-428.1018"/>
<polygon fill="#191970" stroke="#191970" points="541.0203,-424.9029 530.6693,-422.6427 537.3516,-430.8645 541.0203,-424.9029"/>
</g>
<!-- Node25&#45;&gt;Node19 -->
<g id="edge57" class="edge">
<title>Node25&#45;&gt;Node19</title>
<path fill="none" stroke="#191970" d="M743.885,-571.4647C759.7227,-564.1252 778.6794,-552.2779 788,-535 817.4603,-480.3883 782.8623,-405.0357 763.4373,-370.3553"/>
<polygon fill="#191970" stroke="#191970" points="766.2494,-368.2275 758.2046,-361.3331 760.1941,-371.7395 766.2494,-368.2275"/>
</g>
<!-- Node25&#45;&gt;Node20 -->
<g id="edge58" class="edge">
<title>Node25&#45;&gt;Node20</title>
<path fill="none" stroke="#191970" d="M714.5456,-571.4862C704.8194,-544.6994 677.0634,-468.2565 663.9819,-432.2289"/>
<polygon fill="#191970" stroke="#191970" points="667.2713,-431.0329 660.5685,-422.8279 660.6916,-433.422 667.2713,-431.0329"/>
</g>
<!-- Node26 -->
<g id="node27" class="node">
<title>Node26</title>
<g id="a_node27"><a xlink:href="ipc__array_source.html" target="_top" xlink:title="ipc_array">
<polygon fill="#ffffff" stroke="#000000" points="717.5,-515.5 717.5,-534.5 778.5,-534.5 778.5,-515.5 717.5,-515.5"/>
<text text-anchor="middle" x="748" y="-522.5" font-family="Helvetica,sans-Serif" font-size="10.00" fill="#000000">ipc_array</text>
</a>
</g>
</g>
<!-- Node25&#45;&gt;Node26 -->
<g id="edge59" class="edge">
<title>Node25&#45;&gt;Node26</title>
<path fill="none" stroke="#191970" d="M723.2256,-571.2455C727.3123,-563.617 733.1135,-552.7881 738.075,-543.5267"/>
<polygon fill="#191970" stroke="#191970" points="741.1972,-545.1103 742.8343,-534.6427 735.0268,-541.8047 741.1972,-545.1103"/>
</g>
<!-- Node26&#45;&gt;Node19 -->
<g id="edge60" class="edge">
<title>Node26&#45;&gt;Node19</title>
<path fill="none" stroke="#191970" d="M748.2208,-515.4248C748.853,-487.999 750.6805,-408.732 751.5413,-371.3964"/>
<polygon fill="#191970" stroke="#191970" points="755.0435,-371.3376 751.775,-361.2595 748.0453,-371.1762 755.0435,-371.3376"/>
</g>
<!-- Node26&#45;&gt;Node20 -->
<g id="edge61" class="edge">
<title>Node26&#45;&gt;Node20</title>
<path fill="none" stroke="#191970" d="M742.1253,-515.1987C734.0024,-501.9422 718.5726,-477.795 703,-459 694.504,-448.746 684.0763,-438.1796 675.2984,-429.7637"/>
<polygon fill="#191970" stroke="#191970" points="677.4845,-427.0149 667.8036,-422.71 672.687,-432.1124 677.4845,-427.0149"/>
</g>
<!-- Node26&#45;&gt;Node24 -->
<g id="edge62" class="edge">
<title>Node26&#45;&gt;Node24</title>
<path fill="none" stroke="#191970" d="M723.5893,-515.3733C700.3858,-506.2226 665.2962,-492.3844 639.4858,-482.2057"/>
<polygon fill="#191970" stroke="#191970" points="640.6789,-478.9139 630.0921,-478.5011 638.1108,-485.4258 640.6789,-478.9139"/>
</g>
</g>
</svg>
