<?xml version="1.0" encoding="UTF-8" standalone="no"?>
<!DOCTYPE svg PUBLIC "-//W3C//DTD SVG 1.1//EN"
 "http://www.w3.org/Graphics/SVG/1.1/DTD/svg11.dtd">
<!-- Generated by graphviz version 2.40.1 (20161225.0304)
 -->
<!-- Title: l4/sys/irq.h Pages: 1 -->
<svg width="576pt" height="487pt"
 viewBox="0.00 0.00 576.00 487.00" xmlns="http://www.w3.org/2000/svg" xmlns:xlink="http://www.w3.org/1999/xlink">
<g id="graph0" class="graph" transform="scale(1 1) rotate(0) translate(4 483)">
<title>l4/sys/irq.h</title>
<polygon fill="#ffffff" stroke="transparent" points="-4,4 -4,-483 571.9997,-483 571.9997,4 -4,4"/>
<!-- Node0 -->
<g id="node1" class="node">
<title>Node0</title>
<polygon fill="#bfbfbf" stroke="#000000" points="242.4997,-459.5 242.4997,-478.5 309.4997,-478.5 309.4997,-459.5 242.4997,-459.5"/>
<text text-anchor="middle" x="275.9997" y="-466.5" font-family="Helvetica,sans-Serif" font-size="10.00" fill="#000000">l4/sys/irq.h</text>
</g>
<!-- Node1 -->
<g id="node2" class="node">
<title>Node1</title>
<g id="a_node2"><a xlink:href="kernel__object_8h.html" target="_top" xlink:title="Kernel object system calls. ">
<polygon fill="#ffffff" stroke="#000000" points="387.9997,-403.5 387.9997,-422.5 505.9997,-422.5 505.9997,-403.5 387.9997,-403.5"/>
<text text-anchor="middle" x="446.9997" y="-410.5" font-family="Helvetica,sans-Serif" font-size="10.00" fill="#000000">l4/sys/kernel_object.h</text>
</a>
</g>
</g>
<!-- Node0&#45;&gt;Node1 -->
<g id="edge1" class="edge">
<title>Node0&#45;&gt;Node1</title>
<path fill="none" stroke="#191970" d="M305.3957,-459.3733C333.8304,-450.0613 377.0874,-435.8953 408.3079,-425.671"/>
<polygon fill="#191970" stroke="#191970" points="409.5733,-428.9396 417.9874,-422.5011 407.3947,-422.2872 409.5733,-428.9396"/>
</g>
<!-- Node11 -->
<g id="node12" class="node">
<title>Node11</title>
<g id="a_node12"><a xlink:href="l4_2sys_2ipc_8h.html" target="_top" xlink:title="Common IPC interface. ">
<polygon fill="#ffffff" stroke="#000000" points="342.9997,-280.5 342.9997,-299.5 410.9997,-299.5 410.9997,-280.5 342.9997,-280.5"/>
<text text-anchor="middle" x="376.9997" y="-287.5" font-family="Helvetica,sans-Serif" font-size="10.00" fill="#000000">l4/sys/ipc.h</text>
</a>
</g>
</g>
<!-- Node0&#45;&gt;Node11 -->
<g id="edge25" class="edge">
<title>Node0&#45;&gt;Node11</title>
<path fill="none" stroke="#191970" d="M278.8034,-459.3941C285.706,-436.6681 305.019,-378.334 332.9997,-336 340.0912,-325.2709 349.8279,-314.7904 358.3394,-306.5498"/>
<polygon fill="#191970" stroke="#191970" points="360.7855,-309.0544 365.7007,-299.6687 356.0052,-303.9407 360.7855,-309.0544"/>
</g>
<!-- Node13 -->
<g id="node14" class="node">
<title>Node13</title>
<g id="a_node14"><a xlink:href="rcv__endpoint_8h.html" target="_top" xlink:title="Receive endpoint C interface. ">
<polygon fill="#ffffff" stroke="#000000" points="131.9997,-342 131.9997,-361 247.9997,-361 247.9997,-342 131.9997,-342"/>
<text text-anchor="middle" x="189.9997" y="-349" font-family="Helvetica,sans-Serif" font-size="10.00" fill="#000000">l4/sys/rcv_endpoint.h</text>
</a>
</g>
</g>
<!-- Node0&#45;&gt;Node13 -->
<g id="edge26" class="edge">
<title>Node0&#45;&gt;Node13</title>
<path fill="none" stroke="#191970" d="M268.962,-459.3845C254.5993,-439.761 221.7117,-394.8274 203.2307,-369.5772"/>
<polygon fill="#191970" stroke="#191970" points="205.8653,-367.2507 197.1347,-361.2484 200.2166,-371.3851 205.8653,-367.2507"/>
</g>
<!-- Node2 -->
<g id="node3" class="node">
<title>Node2</title>
<g id="a_node3"><a xlink:href="l4_2sys_2types_8h.html" target="_top" xlink:title="Common L4 ABI Data Types. ">
<polygon fill="#ffffff" stroke="#000000" points="271.9997,-168.5 271.9997,-187.5 351.9997,-187.5 351.9997,-168.5 271.9997,-168.5"/>
<text text-anchor="middle" x="311.9997" y="-175.5" font-family="Helvetica,sans-Serif" font-size="10.00" fill="#000000">l4/sys/types.h</text>
</a>
</g>
</g>
<!-- Node1&#45;&gt;Node2 -->
<g id="edge2" class="edge">
<title>Node1&#45;&gt;Node2</title>
<path fill="none" stroke="#191970" d="M460.0278,-403.3141C470.079,-394.9649 483.2123,-381.922 488.9997,-367 493.9818,-354.1545 494.3005,-348.7173 488.9997,-336 460.0485,-266.5426 382.2822,-215.7566 340.1134,-192.3641"/>
<polygon fill="#191970" stroke="#191970" points="341.6527,-189.2174 331.193,-187.5304 338.3177,-195.3719 341.6527,-189.2174"/>
</g>
<!-- Node4 -->
<g id="node5" class="node">
<title>Node4</title>
<g id="a_node5"><a xlink:href="compiler_8h.html" target="_top" xlink:title="L4 compiler related defines. ">
<polygon fill="#ffffff" stroke="#000000" points="383.4997,-56.5 383.4997,-75.5 478.4997,-75.5 478.4997,-56.5 383.4997,-56.5"/>
<text text-anchor="middle" x="430.9997" y="-63.5" font-family="Helvetica,sans-Serif" font-size="10.00" fill="#000000">l4/sys/compiler.h</text>
</a>
</g>
</g>
<!-- Node1&#45;&gt;Node4 -->
<g id="edge13" class="edge">
<title>Node1&#45;&gt;Node4</title>
<path fill="none" stroke="#191970" d="M468.0763,-403.4952C502.7436,-386.2521 567.9997,-346.3151 567.9997,-290 567.9997,-290 567.9997,-290 567.9997,-178 567.9997,-127.2324 510.9132,-95.3381 470.4406,-79.1054"/>
<polygon fill="#191970" stroke="#191970" points="471.6549,-75.8225 461.065,-75.5016 469.1434,-82.3565 471.6549,-75.8225"/>
</g>
<!-- Node9 -->
<g id="node10" class="node">
<title>Node9</title>
<g id="a_node10"><a xlink:href="l4_2sys_2utcb_8h.html" target="_top" xlink:title="UTCB definitions. ">
<polygon fill="#ffffff" stroke="#000000" points="274.9997,-224.5 274.9997,-243.5 348.9997,-243.5 348.9997,-224.5 274.9997,-224.5"/>
<text text-anchor="middle" x="311.9997" y="-231.5" font-family="Helvetica,sans-Serif" font-size="10.00" fill="#000000">l4/sys/utcb.h</text>
</a>
</g>
</g>
<!-- Node1&#45;&gt;Node9 -->
<g id="edge14" class="edge">
<title>Node1&#45;&gt;Node9</title>
<path fill="none" stroke="#191970" d="M393.4921,-403.4671C371.5598,-396.8502 347.8795,-385.7071 332.9997,-367 306.9088,-334.1981 307.0638,-282.1032 309.4989,-253.8304"/>
<polygon fill="#191970" stroke="#191970" points="313.0082,-253.9248 310.5726,-243.6137 306.0465,-253.1931 313.0082,-253.9248"/>
</g>
<!-- Node10 -->
<g id="node11" class="node">
<title>Node10</title>
<g id="a_node11"><a xlink:href="____kernel__object__impl_8h.html" target="_top" xlink:title="Low&#45;level kernel debugger functions. ">
<polygon fill="#ffffff" stroke="#000000" points="341.9997,-336.5 341.9997,-366.5 463.9997,-366.5 463.9997,-336.5 341.9997,-336.5"/>
<text text-anchor="start" x="349.9997" y="-354.5" font-family="Helvetica,sans-Serif" font-size="10.00" fill="#000000">l4/sys/__kernel_object</text>
<text text-anchor="middle" x="402.9997" y="-343.5" font-family="Helvetica,sans-Serif" font-size="10.00" fill="#000000">_impl.h</text>
</a>
</g>
</g>
<!-- Node1&#45;&gt;Node10 -->
<g id="edge18" class="edge">
<title>Node1&#45;&gt;Node10</title>
<path fill="none" stroke="#191970" d="M440.1247,-403.3906C434.6661,-395.761 426.7997,-384.7658 419.7117,-374.8588"/>
<polygon fill="#191970" stroke="#191970" points="422.4285,-372.6409 413.7633,-366.5446 416.7355,-376.714 422.4285,-372.6409"/>
</g>
<!-- Node1&#45;&gt;Node11 -->
<g id="edge24" class="edge">
<title>Node1&#45;&gt;Node11</title>
<path fill="none" stroke="#191970" d="M455.2957,-403.3669C467.3497,-388.1358 486.8336,-357.9688 472.9997,-336 461.4581,-317.6714 440.3636,-306.4837 420.882,-299.74"/>
<polygon fill="#191970" stroke="#191970" points="421.7894,-296.3563 411.1998,-296.6895 419.6858,-303.0328 421.7894,-296.3563"/>
</g>
<!-- Node3 -->
<g id="node4" class="node">
<title>Node3</title>
<g id="a_node4"><a xlink:href="l4_2sys_2l4int_8h.html" target="_top" xlink:title="Fixed sized integer types, generic version. ">
<polygon fill="#ffffff" stroke="#000000" points="67.9997,-56.5 67.9997,-75.5 141.9997,-75.5 141.9997,-56.5 67.9997,-56.5"/>
<text text-anchor="middle" x="104.9997" y="-63.5" font-family="Helvetica,sans-Serif" font-size="10.00" fill="#000000">l4/sys/l4int.h</text>
</a>
</g>
</g>
<!-- Node2&#45;&gt;Node3 -->
<g id="edge3" class="edge">
<title>Node2&#45;&gt;Node3</title>
<path fill="none" stroke="#191970" d="M271.8114,-171.7837C240.2754,-165.5059 196.2913,-153.5572 162.9997,-132 143.7015,-119.5039 127.0227,-98.8449 116.5682,-83.9661"/>
<polygon fill="#191970" stroke="#191970" points="119.3952,-81.8984 110.8954,-75.5735 113.5958,-85.8185 119.3952,-81.8984"/>
</g>
<!-- Node2&#45;&gt;Node4 -->
<g id="edge4" class="edge">
<title>Node2&#45;&gt;Node4</title>
<path fill="none" stroke="#191970" d="M336.1929,-168.39C353.573,-160.5724 376.7136,-148.19 392.9997,-132 406.5816,-118.4983 416.9591,-99.1468 423.4103,-84.8873"/>
<polygon fill="#191970" stroke="#191970" points="426.6851,-86.131 427.4036,-75.5605 420.2501,-83.3758 426.6851,-86.131"/>
</g>
<!-- Node6 -->
<g id="node7" class="node">
<title>Node6</title>
<g id="a_node7"><a xlink:href="l4_2sys_2consts_8h.html" target="_top" xlink:title="Common constants. ">
<polygon fill="#ffffff" stroke="#000000" points="171.9997,-112.5 171.9997,-131.5 257.9997,-131.5 257.9997,-112.5 171.9997,-112.5"/>
<text text-anchor="middle" x="214.9997" y="-119.5" font-family="Helvetica,sans-Serif" font-size="10.00" fill="#000000">l4/sys/consts.h</text>
</a>
</g>
</g>
<!-- Node2&#45;&gt;Node6 -->
<g id="edge6" class="edge">
<title>Node2&#45;&gt;Node6</title>
<path fill="none" stroke="#191970" d="M295.1036,-168.2455C280.0818,-159.5731 257.8954,-146.7645 240.6787,-136.825"/>
<polygon fill="#191970" stroke="#191970" points="242.1126,-133.6114 231.7022,-131.6427 238.6127,-139.6737 242.1126,-133.6114"/>
</g>
<!-- Node7 -->
<g id="node8" class="node">
<title>Node7</title>
<g id="a_node8"><a xlink:href="____l4__fpage_8h_source.html" target="_top" xlink:title="l4/sys/__l4_fpage.h">
<polygon fill="#ffffff" stroke="#000000" points="275.9997,-112.5 275.9997,-131.5 383.9997,-131.5 383.9997,-112.5 275.9997,-112.5"/>
<text text-anchor="middle" x="329.9997" y="-119.5" font-family="Helvetica,sans-Serif" font-size="10.00" fill="#000000">l4/sys/__l4_fpage.h</text>
</a>
</g>
</g>
<!-- Node2&#45;&gt;Node7 -->
<g id="edge9" class="edge">
<title>Node2&#45;&gt;Node7</title>
<path fill="none" stroke="#191970" d="M315.1351,-168.2455C317.5097,-160.8579 320.849,-150.4689 323.7612,-141.4087"/>
<polygon fill="#191970" stroke="#191970" points="327.1722,-142.234 326.9003,-131.6427 320.508,-140.0919 327.1722,-142.234"/>
</g>
<!-- Node8 -->
<g id="node9" class="node">
<title>Node8</title>
<g id="a_node9"><a xlink:href="____timeout_8h_source.html" target="_top" xlink:title="l4/sys/__timeout.h">
<polygon fill="#ffffff" stroke="#000000" points="14.4997,-112.5 14.4997,-131.5 115.4997,-131.5 115.4997,-112.5 14.4997,-112.5"/>
<text text-anchor="middle" x="64.9997" y="-119.5" font-family="Helvetica,sans-Serif" font-size="10.00" fill="#000000">l4/sys/__timeout.h</text>
</a>
</g>
</g>
<!-- Node2&#45;&gt;Node8 -->
<g id="edge11" class="edge">
<title>Node2&#45;&gt;Node8</title>
<path fill="none" stroke="#191970" d="M271.7652,-168.878C229.6106,-159.3207 163.2296,-144.2707 117.0966,-133.8114"/>
<polygon fill="#191970" stroke="#191970" points="117.8126,-130.385 107.2862,-131.5872 116.2647,-137.2117 117.8126,-130.385"/>
</g>
<!-- Node5 -->
<g id="node6" class="node">
<title>Node5</title>
<polygon fill="#ffffff" stroke="#bfbfbf" points="386.4997,-.5 386.4997,-19.5 475.4997,-19.5 475.4997,-.5 386.4997,-.5"/>
<text text-anchor="middle" x="430.9997" y="-7.5" font-family="Helvetica,sans-Serif" font-size="10.00" fill="#000000">l4/sys/linkage.h</text>
</g>
<!-- Node4&#45;&gt;Node5 -->
<g id="edge5" class="edge">
<title>Node4&#45;&gt;Node5</title>
<path fill="none" stroke="#191970" d="M430.9997,-56.2455C430.9997,-48.9382 430.9997,-38.6944 430.9997,-29.7046"/>
<polygon fill="#191970" stroke="#191970" points="434.4998,-29.6426 430.9997,-19.6427 427.4998,-29.6427 434.4998,-29.6426"/>
</g>
<!-- Node6&#45;&gt;Node3 -->
<g id="edge8" class="edge">
<title>Node6&#45;&gt;Node3</title>
<path fill="none" stroke="#191970" d="M195.8392,-112.2455C178.4886,-103.4125 152.7097,-90.2887 133.0414,-80.2758"/>
<polygon fill="#191970" stroke="#191970" points="134.4403,-77.0605 123.9407,-75.6427 131.2644,-83.2986 134.4403,-77.0605"/>
</g>
<!-- Node6&#45;&gt;Node4 -->
<g id="edge7" class="edge">
<title>Node6&#45;&gt;Node4</title>
<path fill="none" stroke="#191970" d="M252.1315,-112.3733C288.8264,-102.8598 345.0636,-88.2797 384.6649,-78.0127"/>
<polygon fill="#191970" stroke="#191970" points="385.551,-81.3988 394.3526,-75.5011 383.7942,-74.6228 385.551,-81.3988"/>
</g>
<!-- Node7&#45;&gt;Node4 -->
<g id="edge10" class="edge">
<title>Node7&#45;&gt;Node4</title>
<path fill="none" stroke="#191970" d="M347.5926,-112.2455C363.3788,-103.4928 386.7636,-90.527 404.7585,-80.5496"/>
<polygon fill="#191970" stroke="#191970" points="406.56,-83.5528 413.6085,-75.6427 403.1656,-77.4308 406.56,-83.5528"/>
</g>
<!-- Node8&#45;&gt;Node3 -->
<g id="edge12" class="edge">
<title>Node8&#45;&gt;Node3</title>
<path fill="none" stroke="#191970" d="M71.9672,-112.2455C77.5309,-104.4564 85.4778,-93.3308 92.1826,-83.9439"/>
<polygon fill="#191970" stroke="#191970" points="95.1478,-85.8144 98.1121,-75.6427 89.4516,-81.7457 95.1478,-85.8144"/>
</g>
<!-- Node9&#45;&gt;Node2 -->
<g id="edge15" class="edge">
<title>Node9&#45;&gt;Node2</title>
<path fill="none" stroke="#191970" d="M311.9997,-224.2455C311.9997,-216.9382 311.9997,-206.6944 311.9997,-197.7046"/>
<polygon fill="#191970" stroke="#191970" points="315.4998,-197.6426 311.9997,-187.6427 308.4998,-197.6427 315.4998,-197.6426"/>
</g>
<!-- Node9&#45;&gt;Node3 -->
<g id="edge17" class="edge">
<title>Node9&#45;&gt;Node3</title>
<path fill="none" stroke="#191970" d="M274.9047,-227.2282C200.4689,-212.8053 37.2452,-176.6921 4.9997,-132 -13.1675,-106.8202 23.8477,-88.5656 57.8713,-77.7207"/>
<polygon fill="#191970" stroke="#191970" points="59.2396,-80.9639 67.8036,-74.7262 57.2189,-74.2619 59.2396,-80.9639"/>
</g>
<!-- Node9&#45;&gt;Node4 -->
<g id="edge16" class="edge">
<title>Node9&#45;&gt;Node4</title>
<path fill="none" stroke="#191970" d="M325.6533,-224.4357C347.8305,-208.1392 391.4641,-172.7665 413.9997,-132 421.9603,-117.5995 426.2887,-99.3688 428.582,-85.7184"/>
<polygon fill="#191970" stroke="#191970" points="432.0903,-85.9134 430.0647,-75.514 425.163,-84.9067 432.0903,-85.9134"/>
</g>
<!-- Node10&#45;&gt;Node11 -->
<g id="edge19" class="edge">
<title>Node10&#45;&gt;Node11</title>
<path fill="none" stroke="#191970" d="M396.5728,-336.2977C393.1141,-328.1166 388.813,-317.943 385.1244,-309.2179"/>
<polygon fill="#191970" stroke="#191970" points="388.2804,-307.6947 381.1627,-299.8469 381.8329,-310.4205 388.2804,-307.6947"/>
</g>
<!-- Node11&#45;&gt;Node2 -->
<g id="edge20" class="edge">
<title>Node11&#45;&gt;Node2</title>
<path fill="none" stroke="#191970" d="M375.7857,-280.444C373.7555,-267.0487 368.7814,-242.2817 357.9997,-224 351.4108,-212.8277 341.4761,-202.4219 332.5236,-194.3433"/>
<polygon fill="#191970" stroke="#191970" points="334.5679,-191.4853 324.7021,-187.6232 330.0061,-196.7948 334.5679,-191.4853"/>
</g>
<!-- Node11&#45;&gt;Node9 -->
<g id="edge21" class="edge">
<title>Node11&#45;&gt;Node9</title>
<path fill="none" stroke="#191970" d="M365.6776,-280.2455C356.0774,-271.9746 342.1106,-259.9416 330.8303,-250.2232"/>
<polygon fill="#191970" stroke="#191970" points="333.0527,-247.5182 323.1921,-243.6427 328.4837,-252.8214 333.0527,-247.5182"/>
</g>
<!-- Node12 -->
<g id="node13" class="node">
<title>Node12</title>
<g id="a_node13"><a xlink:href="err_8h.html" target="_top" xlink:title="Error codes. ">
<polygon fill="#ffffff" stroke="#000000" points="471.9997,-168.5 471.9997,-187.5 539.9997,-187.5 539.9997,-168.5 471.9997,-168.5"/>
<text text-anchor="middle" x="505.9997" y="-175.5" font-family="Helvetica,sans-Serif" font-size="10.00" fill="#000000">l4/sys/err.h</text>
</a>
</g>
</g>
<!-- Node11&#45;&gt;Node12 -->
<g id="edge22" class="edge">
<title>Node11&#45;&gt;Node12</title>
<path fill="none" stroke="#191970" d="M387.9982,-280.4509C410.0851,-261.2747 460.0478,-217.8962 487.3422,-194.1988"/>
<polygon fill="#191970" stroke="#191970" points="489.7726,-196.7238 495.0291,-187.5249 485.1834,-191.438 489.7726,-196.7238"/>
</g>
<!-- Node12&#45;&gt;Node4 -->
<g id="edge23" class="edge">
<title>Node12&#45;&gt;Node4</title>
<path fill="none" stroke="#191970" d="M500.181,-168.4938C492.2192,-155.5718 477.3884,-131.8023 463.9997,-112 457.693,-102.6721 450.4222,-92.4807 444.3131,-84.0666"/>
<polygon fill="#191970" stroke="#191970" points="446.9676,-81.7669 438.2408,-75.7591 441.3163,-85.8977 446.9676,-81.7669"/>
</g>
<!-- Node13&#45;&gt;Node2 -->
<g id="edge28" class="edge">
<title>Node13&#45;&gt;Node2</title>
<path fill="none" stroke="#191970" d="M194.774,-341.7042C205.7622,-319.6126 234.3406,-264.6692 265.9997,-224 274.1797,-213.4921 284.5825,-202.9057 293.4255,-194.5421"/>
<polygon fill="#191970" stroke="#191970" points="296.0244,-196.9063 300.9995,-187.5521 291.277,-191.7621 296.0244,-196.9063"/>
</g>
<!-- Node13&#45;&gt;Node9 -->
<g id="edge27" class="edge">
<title>Node13&#45;&gt;Node9</title>
<path fill="none" stroke="#191970" d="M199.9835,-341.8845C220.716,-321.9167 268.658,-275.743 294.5909,-250.7667"/>
<polygon fill="#191970" stroke="#191970" points="297.1033,-253.2063 301.878,-243.7484 292.2474,-248.1645 297.1033,-253.2063"/>
</g>
<!-- Node13&#45;&gt;Node11 -->
<g id="edge29" class="edge">
<title>Node13&#45;&gt;Node11</title>
<path fill="none" stroke="#191970" d="M219.2185,-341.8906C251.3304,-331.3298 303.0487,-314.3208 338.4605,-302.6747"/>
<polygon fill="#191970" stroke="#191970" points="339.5802,-305.9909 347.9862,-299.5419 337.3932,-299.3413 339.5802,-305.9909"/>
</g>
</g>
</svg>
