<?xml version="1.0" encoding="UTF-8" standalone="no"?>
<!DOCTYPE svg PUBLIC "-//W3C//DTD SVG 1.1//EN"
 "http://www.w3.org/Graphics/SVG/1.1/DTD/svg11.dtd">
<!-- Generated by graphviz version 2.40.1 (20161225.0304)
 -->
<!-- Title: l4/util/thread.h Pages: 1 -->
<svg width="606pt" height="543pt"
 viewBox="0.00 0.00 605.50 543.00" xmlns="http://www.w3.org/2000/svg" xmlns:xlink="http://www.w3.org/1999/xlink">
<g id="graph0" class="graph" transform="scale(1 1) rotate(0) translate(4 539)">
<title>l4/util/thread.h</title>
<polygon fill="#ffffff" stroke="transparent" points="-4,4 -4,-539 601.5,-539 601.5,4 -4,4"/>
<!-- Node0 -->
<g id="node1" class="node">
<title>Node0</title>
<polygon fill="#bfbfbf" stroke="#000000" points="167.5,-515.5 167.5,-534.5 250.5,-534.5 250.5,-515.5 167.5,-515.5"/>
<text text-anchor="middle" x="209" y="-522.5" font-family="Helvetica,sans-Serif" font-size="10.00" fill="#000000">l4/util/thread.h</text>
</g>
<!-- Node1 -->
<g id="node2" class="node">
<title>Node1</title>
<g id="a_node2"><a xlink:href="l4_2sys_2types_8h.html" target="_top" xlink:title="Common L4 ABI Data Types. ">
<polygon fill="#ffffff" stroke="#000000" points="242,-168.5 242,-187.5 322,-187.5 322,-168.5 242,-168.5"/>
<text text-anchor="middle" x="282" y="-175.5" font-family="Helvetica,sans-Serif" font-size="10.00" fill="#000000">l4/sys/types.h</text>
</a>
</g>
</g>
<!-- Node0&#45;&gt;Node1 -->
<g id="edge1" class="edge">
<title>Node0&#45;&gt;Node1</title>
<path fill="none" stroke="#191970" d="M223.0798,-515.4001C246.7601,-497.9894 292,-458.7414 292,-413 292,-413 292,-413 292,-290 292,-257.5831 287.7925,-220.0969 284.8359,-197.7572"/>
<polygon fill="#191970" stroke="#191970" points="288.2637,-196.992 283.4328,-187.5627 281.3291,-197.9466 288.2637,-196.992"/>
</g>
<!-- Node8 -->
<g id="node9" class="node">
<title>Node8</title>
<g id="a_node9"><a xlink:href="scheduler_8h.html" target="_top" xlink:title="Scheduler object functions. ">
<polygon fill="#ffffff" stroke="#000000" points="76.5,-459.5 76.5,-478.5 177.5,-478.5 177.5,-459.5 76.5,-459.5"/>
<text text-anchor="middle" x="127" y="-466.5" font-family="Helvetica,sans-Serif" font-size="10.00" fill="#000000">l4/sys/scheduler.h</text>
</a>
</g>
</g>
<!-- Node0&#45;&gt;Node8 -->
<g id="edge12" class="edge">
<title>Node0&#45;&gt;Node8</title>
<path fill="none" stroke="#191970" d="M194.7167,-515.2455C182.253,-506.7337 163.9549,-494.2375 149.5208,-484.3801"/>
<polygon fill="#191970" stroke="#191970" points="151.3515,-481.392 141.1196,-478.6427 147.4038,-487.1726 151.3515,-481.392"/>
</g>
<!-- Node2 -->
<g id="node3" class="node">
<title>Node2</title>
<g id="a_node3"><a xlink:href="l4_2sys_2l4int_8h.html" target="_top" xlink:title="Fixed sized integer types, generic version. ">
<polygon fill="#ffffff" stroke="#000000" points="395,-56.5 395,-75.5 469,-75.5 469,-56.5 395,-56.5"/>
<text text-anchor="middle" x="432" y="-63.5" font-family="Helvetica,sans-Serif" font-size="10.00" fill="#000000">l4/sys/l4int.h</text>
</a>
</g>
</g>
<!-- Node1&#45;&gt;Node2 -->
<g id="edge2" class="edge">
<title>Node1&#45;&gt;Node2</title>
<path fill="none" stroke="#191970" d="M322.2069,-172.5537C366.5549,-165.6256 433.692,-152.0946 449,-132 459.4865,-118.2345 452.443,-98.6566 444.4765,-84.4002"/>
<polygon fill="#191970" stroke="#191970" points="447.2354,-82.2047 439.0178,-75.5173 441.2715,-85.8697 447.2354,-82.2047"/>
</g>
<!-- Node3 -->
<g id="node4" class="node">
<title>Node3</title>
<g id="a_node4"><a xlink:href="compiler_8h.html" target="_top" xlink:title="L4 compiler related defines. ">
<polygon fill="#ffffff" stroke="#000000" points="114.5,-56.5 114.5,-75.5 209.5,-75.5 209.5,-56.5 114.5,-56.5"/>
<text text-anchor="middle" x="162" y="-63.5" font-family="Helvetica,sans-Serif" font-size="10.00" fill="#000000">l4/sys/compiler.h</text>
</a>
</g>
</g>
<!-- Node1&#45;&gt;Node3 -->
<g id="edge3" class="edge">
<title>Node1&#45;&gt;Node3</title>
<path fill="none" stroke="#191970" d="M267.0111,-168.4716C253.7646,-159.7296 234.2375,-146.0412 219,-132 202.7429,-117.0193 186.4875,-97.6563 175.5207,-83.7837"/>
<polygon fill="#191970" stroke="#191970" points="178.0307,-81.3097 169.1307,-75.5615 172.5035,-85.6051 178.0307,-81.3097"/>
</g>
<!-- Node5 -->
<g id="node6" class="node">
<title>Node5</title>
<g id="a_node6"><a xlink:href="l4_2sys_2consts_8h.html" target="_top" xlink:title="Common constants. ">
<polygon fill="#ffffff" stroke="#000000" points="354,-112.5 354,-131.5 440,-131.5 440,-112.5 354,-112.5"/>
<text text-anchor="middle" x="397" y="-119.5" font-family="Helvetica,sans-Serif" font-size="10.00" fill="#000000">l4/sys/consts.h</text>
</a>
</g>
</g>
<!-- Node1&#45;&gt;Node5 -->
<g id="edge5" class="edge">
<title>Node1&#45;&gt;Node5</title>
<path fill="none" stroke="#191970" d="M301.7692,-168.3733C320.1469,-159.4241 347.7312,-145.9917 368.4893,-135.8835"/>
<polygon fill="#191970" stroke="#191970" points="370.0304,-139.026 377.4888,-131.5011 366.9657,-132.7325 370.0304,-139.026"/>
</g>
<!-- Node6 -->
<g id="node7" class="node">
<title>Node6</title>
<g id="a_node7"><a xlink:href="____l4__fpage_8h_source.html" target="_top" xlink:title="l4/sys/__l4_fpage.h">
<polygon fill="#ffffff" stroke="#000000" points="228,-112.5 228,-131.5 336,-131.5 336,-112.5 228,-112.5"/>
<text text-anchor="middle" x="282" y="-119.5" font-family="Helvetica,sans-Serif" font-size="10.00" fill="#000000">l4/sys/__l4_fpage.h</text>
</a>
</g>
</g>
<!-- Node1&#45;&gt;Node6 -->
<g id="edge8" class="edge">
<title>Node1&#45;&gt;Node6</title>
<path fill="none" stroke="#191970" d="M282,-168.2455C282,-160.9382 282,-150.6944 282,-141.7046"/>
<polygon fill="#191970" stroke="#191970" points="285.5001,-141.6426 282,-131.6427 278.5001,-141.6427 285.5001,-141.6426"/>
</g>
<!-- Node7 -->
<g id="node8" class="node">
<title>Node7</title>
<g id="a_node8"><a xlink:href="____timeout_8h_source.html" target="_top" xlink:title="l4/sys/__timeout.h">
<polygon fill="#ffffff" stroke="#000000" points="496.5,-112.5 496.5,-131.5 597.5,-131.5 597.5,-112.5 496.5,-112.5"/>
<text text-anchor="middle" x="547" y="-119.5" font-family="Helvetica,sans-Serif" font-size="10.00" fill="#000000">l4/sys/__timeout.h</text>
</a>
</g>
</g>
<!-- Node1&#45;&gt;Node7 -->
<g id="edge10" class="edge">
<title>Node1&#45;&gt;Node7</title>
<path fill="none" stroke="#191970" d="M322.2478,-169.4948C367.5854,-159.914 441.5306,-144.2879 492.1349,-133.5941"/>
<polygon fill="#191970" stroke="#191970" points="492.8688,-137.0164 501.9291,-131.5244 491.4215,-130.1677 492.8688,-137.0164"/>
</g>
<!-- Node4 -->
<g id="node5" class="node">
<title>Node4</title>
<polygon fill="#ffffff" stroke="#bfbfbf" points="117.5,-.5 117.5,-19.5 206.5,-19.5 206.5,-.5 117.5,-.5"/>
<text text-anchor="middle" x="162" y="-7.5" font-family="Helvetica,sans-Serif" font-size="10.00" fill="#000000">l4/sys/linkage.h</text>
</g>
<!-- Node3&#45;&gt;Node4 -->
<g id="edge4" class="edge">
<title>Node3&#45;&gt;Node4</title>
<path fill="none" stroke="#191970" d="M162,-56.2455C162,-48.9382 162,-38.6944 162,-29.7046"/>
<polygon fill="#191970" stroke="#191970" points="165.5001,-29.6426 162,-19.6427 158.5001,-29.6427 165.5001,-29.6426"/>
</g>
<!-- Node5&#45;&gt;Node2 -->
<g id="edge7" class="edge">
<title>Node5&#45;&gt;Node2</title>
<path fill="none" stroke="#191970" d="M403.0965,-112.2455C407.9145,-104.5367 414.7751,-93.5598 420.6032,-84.2348"/>
<polygon fill="#191970" stroke="#191970" points="423.6413,-85.9777 425.9733,-75.6427 417.7053,-82.2677 423.6413,-85.9777"/>
</g>
<!-- Node5&#45;&gt;Node3 -->
<g id="edge6" class="edge">
<title>Node5&#45;&gt;Node3</title>
<path fill="none" stroke="#191970" d="M356.8691,-112.4369C316.7351,-102.8731 254.9225,-88.1432 211.7067,-77.845"/>
<polygon fill="#191970" stroke="#191970" points="212.5044,-74.4372 201.9654,-75.5237 210.8817,-81.2465 212.5044,-74.4372"/>
</g>
<!-- Node6&#45;&gt;Node3 -->
<g id="edge9" class="edge">
<title>Node6&#45;&gt;Node3</title>
<path fill="none" stroke="#191970" d="M261.3713,-112.3733C242.1081,-103.3838 213.1514,-89.8706 191.4581,-79.7471"/>
<polygon fill="#191970" stroke="#191970" points="192.9015,-76.5584 182.3595,-75.5011 189.9413,-82.9017 192.9015,-76.5584"/>
</g>
<!-- Node7&#45;&gt;Node2 -->
<g id="edge11" class="edge">
<title>Node7&#45;&gt;Node2</title>
<path fill="none" stroke="#191970" d="M527.2308,-112.3733C508.8531,-103.4241 481.2688,-89.9917 460.5107,-79.8835"/>
<polygon fill="#191970" stroke="#191970" points="462.0343,-76.7325 451.5112,-75.5011 458.9696,-83.026 462.0343,-76.7325"/>
</g>
<!-- Node9 -->
<g id="node10" class="node">
<title>Node9</title>
<g id="a_node10"><a xlink:href="kernel__object_8h.html" target="_top" xlink:title="Kernel object system calls. ">
<polygon fill="#ffffff" stroke="#000000" points="68,-403.5 68,-422.5 186,-422.5 186,-403.5 68,-403.5"/>
<text text-anchor="middle" x="127" y="-410.5" font-family="Helvetica,sans-Serif" font-size="10.00" fill="#000000">l4/sys/kernel_object.h</text>
</a>
</g>
</g>
<!-- Node8&#45;&gt;Node9 -->
<g id="edge13" class="edge">
<title>Node8&#45;&gt;Node9</title>
<path fill="none" stroke="#191970" d="M127,-459.2455C127,-451.9382 127,-441.6944 127,-432.7046"/>
<polygon fill="#191970" stroke="#191970" points="130.5001,-432.6426 127,-422.6427 123.5001,-432.6427 130.5001,-432.6426"/>
</g>
<!-- Node12 -->
<g id="node13" class="node">
<title>Node12</title>
<g id="a_node13"><a xlink:href="l4_2sys_2ipc_8h.html" target="_top" xlink:title="Common IPC interface. ">
<polygon fill="#ffffff" stroke="#000000" points="61,-280.5 61,-299.5 129,-299.5 129,-280.5 61,-280.5"/>
<text text-anchor="middle" x="95" y="-287.5" font-family="Helvetica,sans-Serif" font-size="10.00" fill="#000000">l4/sys/ipc.h</text>
</a>
</g>
</g>
<!-- Node8&#45;&gt;Node12 -->
<g id="edge27" class="edge">
<title>Node8&#45;&gt;Node12</title>
<path fill="none" stroke="#191970" d="M104.1379,-459.3666C88.9167,-451.745 69.7971,-439.611 59,-423 37.7884,-390.3667 34.1055,-371.9586 49,-336 53.8312,-324.3363 63.2137,-314.0881 72.2518,-306.243"/>
<polygon fill="#191970" stroke="#191970" points="74.7266,-308.7436 80.3148,-299.7423 70.333,-303.2942 74.7266,-308.7436"/>
</g>
<!-- Node9&#45;&gt;Node1 -->
<g id="edge14" class="edge">
<title>Node9&#45;&gt;Node1</title>
<path fill="none" stroke="#191970" d="M158.0139,-403.338C176.8044,-396.0539 199.9696,-384.3143 215,-367 258.8461,-316.4914 274.6168,-235.3441 279.7571,-197.9941"/>
<polygon fill="#191970" stroke="#191970" points="283.2524,-198.2504 281.0304,-187.8912 276.3073,-197.3751 283.2524,-198.2504"/>
</g>
<!-- Node9&#45;&gt;Node3 -->
<g id="edge15" class="edge">
<title>Node9&#45;&gt;Node3</title>
<path fill="none" stroke="#191970" d="M104.0013,-403.3831C67.4033,-386.3626 0,-347.2449 0,-290 0,-290 0,-290 0,-178 0,-123.4141 63.0004,-93.3532 110.4256,-78.4571"/>
<polygon fill="#191970" stroke="#191970" points="111.7057,-81.7274 120.281,-75.5052 109.6972,-75.0217 111.7057,-81.7274"/>
</g>
<!-- Node10 -->
<g id="node11" class="node">
<title>Node10</title>
<g id="a_node11"><a xlink:href="l4_2sys_2utcb_8h.html" target="_top" xlink:title="UTCB definitions. ">
<polygon fill="#ffffff" stroke="#000000" points="114,-224.5 114,-243.5 188,-243.5 188,-224.5 114,-224.5"/>
<text text-anchor="middle" x="151" y="-231.5" font-family="Helvetica,sans-Serif" font-size="10.00" fill="#000000">l4/sys/utcb.h</text>
</a>
</g>
</g>
<!-- Node9&#45;&gt;Node10 -->
<g id="edge16" class="edge">
<title>Node9&#45;&gt;Node10</title>
<path fill="none" stroke="#191970" d="M152.885,-403.4647C168.7227,-396.1252 187.6794,-384.2779 197,-367 217.9477,-328.1685 186.4518,-277.9396 166.0774,-251.716"/>
<polygon fill="#191970" stroke="#191970" points="168.6893,-249.3792 159.6861,-243.7941 163.2413,-253.7747 168.6893,-249.3792"/>
</g>
<!-- Node11 -->
<g id="node12" class="node">
<title>Node11</title>
<g id="a_node12"><a xlink:href="____kernel__object__impl_8h.html" target="_top" xlink:title="Low&#45;level kernel debugger functions. ">
<polygon fill="#ffffff" stroke="#000000" points="66,-336.5 66,-366.5 188,-366.5 188,-336.5 66,-336.5"/>
<text text-anchor="start" x="74" y="-354.5" font-family="Helvetica,sans-Serif" font-size="10.00" fill="#000000">l4/sys/__kernel_object</text>
<text text-anchor="middle" x="127" y="-343.5" font-family="Helvetica,sans-Serif" font-size="10.00" fill="#000000">_impl.h</text>
</a>
</g>
</g>
<!-- Node9&#45;&gt;Node11 -->
<g id="edge20" class="edge">
<title>Node9&#45;&gt;Node11</title>
<path fill="none" stroke="#191970" d="M127,-403.3906C127,-396.2234 127,-386.0862 127,-376.671"/>
<polygon fill="#191970" stroke="#191970" points="130.5001,-376.5446 127,-366.5446 123.5001,-376.5446 130.5001,-376.5446"/>
</g>
<!-- Node9&#45;&gt;Node12 -->
<g id="edge26" class="edge">
<title>Node9&#45;&gt;Node12</title>
<path fill="none" stroke="#191970" d="M101.115,-403.4647C85.2773,-396.1252 66.3206,-384.2779 57,-367 50.4587,-354.8741 52.3375,-348.9649 57,-336 60.9436,-325.0341 68.7597,-314.8227 76.2831,-306.8204"/>
<polygon fill="#191970" stroke="#191970" points="78.9193,-309.1354 83.5547,-299.6084 73.9899,-304.1653 78.9193,-309.1354"/>
</g>
<!-- Node10&#45;&gt;Node1 -->
<g id="edge17" class="edge">
<title>Node10&#45;&gt;Node1</title>
<path fill="none" stroke="#191970" d="M173.5197,-224.3733C194.7372,-215.3032 226.7276,-201.6279 250.4769,-191.4755"/>
<polygon fill="#191970" stroke="#191970" points="251.9548,-194.6502 259.7742,-187.5011 249.2033,-188.2136 251.9548,-194.6502"/>
</g>
<!-- Node10&#45;&gt;Node2 -->
<g id="edge19" class="edge">
<title>Node10&#45;&gt;Node2</title>
<path fill="none" stroke="#191970" d="M153.4507,-224.245C159.863,-200.8447 179.444,-141.2978 219,-112 244.8471,-92.8559 330.3316,-78.8489 384.8249,-71.6008"/>
<polygon fill="#191970" stroke="#191970" points="385.4855,-75.0445 394.9506,-70.2841 384.5827,-68.1029 385.4855,-75.0445"/>
</g>
<!-- Node10&#45;&gt;Node3 -->
<g id="edge18" class="edge">
<title>Node10&#45;&gt;Node3</title>
<path fill="none" stroke="#191970" d="M149.657,-224.4403C146.9968,-203.7827 141.8256,-153.4933 148,-112 149.3327,-103.0439 152.0494,-93.419 154.7381,-85.3"/>
<polygon fill="#191970" stroke="#191970" points="158.1067,-86.272 158.1376,-75.6772 151.5064,-83.9402 158.1067,-86.272"/>
</g>
<!-- Node11&#45;&gt;Node12 -->
<g id="edge21" class="edge">
<title>Node11&#45;&gt;Node12</title>
<path fill="none" stroke="#191970" d="M119.0899,-336.2977C114.7868,-328.0277 109.4242,-317.7215 104.8518,-308.9339"/>
<polygon fill="#191970" stroke="#191970" points="107.8443,-307.1024 100.1236,-299.8469 101.6346,-310.3335 107.8443,-307.1024"/>
</g>
<!-- Node12&#45;&gt;Node1 -->
<g id="edge22" class="edge">
<title>Node12&#45;&gt;Node1</title>
<path fill="none" stroke="#191970" d="M120.5659,-280.434C141.7178,-272.0633 172.2031,-258.9298 197,-244 221.3978,-229.3105 246.8768,-208.7148 263.4996,-194.4542"/>
<polygon fill="#191970" stroke="#191970" points="266.0855,-196.8437 271.3323,-187.6392 261.4907,-191.5628 266.0855,-196.8437"/>
</g>
<!-- Node12&#45;&gt;Node10 -->
<g id="edge23" class="edge">
<title>Node12&#45;&gt;Node10</title>
<path fill="none" stroke="#191970" d="M104.7545,-280.2455C112.8648,-272.1352 124.5925,-260.4075 134.2081,-250.7919"/>
<polygon fill="#191970" stroke="#191970" points="136.7611,-253.1887 141.3573,-243.6427 131.8113,-248.2389 136.7611,-253.1887"/>
</g>
<!-- Node13 -->
<g id="node14" class="node">
<title>Node13</title>
<g id="a_node14"><a xlink:href="err_8h.html" target="_top" xlink:title="Error codes. ">
<polygon fill="#ffffff" stroke="#000000" points="28,-168.5 28,-187.5 96,-187.5 96,-168.5 28,-168.5"/>
<text text-anchor="middle" x="62" y="-175.5" font-family="Helvetica,sans-Serif" font-size="10.00" fill="#000000">l4/sys/err.h</text>
</a>
</g>
</g>
<!-- Node12&#45;&gt;Node13 -->
<g id="edge24" class="edge">
<title>Node12&#45;&gt;Node13</title>
<path fill="none" stroke="#191970" d="M92.1864,-280.4509C86.7798,-262.1013 74.8437,-221.5908 67.707,-197.3693"/>
<polygon fill="#191970" stroke="#191970" points="70.9901,-196.128 64.8064,-187.5249 64.2755,-198.1064 70.9901,-196.128"/>
</g>
<!-- Node13&#45;&gt;Node3 -->
<g id="edge25" class="edge">
<title>Node13&#45;&gt;Node3</title>
<path fill="none" stroke="#191970" d="M68.2194,-168.0987C76.8305,-154.7288 93.2289,-130.4536 110,-112 119.7532,-101.2684 131.8243,-90.4637 141.8805,-82.025"/>
<polygon fill="#191970" stroke="#191970" points="144.2578,-84.6015 149.7586,-75.5465 139.8117,-79.1948 144.2578,-84.6015"/>
</g>
</g>
</svg>
