<?xml version="1.0" encoding="UTF-8" standalone="no"?>
<!DOCTYPE svg PUBLIC "-//W3C//DTD SVG 1.1//EN"
 "http://www.w3.org/Graphics/SVG/1.1/DTD/svg11.dtd">
<!-- Generated by graphviz version 2.40.1 (20161225.0304)
 -->
<!-- Title: l4/irq/irq.h Pages: 1 -->
<svg width="415pt" height="252pt"
 viewBox="0.00 0.00 415.00 252.00" xmlns="http://www.w3.org/2000/svg" xmlns:xlink="http://www.w3.org/1999/xlink">
<g id="graph0" class="graph" transform="scale(1 1) rotate(0) translate(4 248)">
<title>l4/irq/irq.h</title>
<polygon fill="#ffffff" stroke="transparent" points="-4,4 -4,-248 411,-248 411,4 -4,4"/>
<!-- Node0 -->
<g id="node1" class="node">
<title>Node0</title>
<polygon fill="#bfbfbf" stroke="#000000" points="0,-224.5 0,-243.5 63,-243.5 63,-224.5 0,-224.5"/>
<text text-anchor="middle" x="31.5" y="-231.5" font-family="Helvetica,sans-Serif" font-size="10.00" fill="#000000">l4/irq/irq.h</text>
</g>
<!-- Node1 -->
<g id="node2" class="node">
<title>Node1</title>
<g id="a_node2"><a xlink:href="compiler_8h.html" target="_top" xlink:title="L4 compiler related defines. ">
<polygon fill="#ffffff" stroke="#000000" points="3,-56.5 3,-75.5 98,-75.5 98,-56.5 3,-56.5"/>
<text text-anchor="middle" x="50.5" y="-63.5" font-family="Helvetica,sans-Serif" font-size="10.00" fill="#000000">l4/sys/compiler.h</text>
</a>
</g>
</g>
<!-- Node0&#45;&gt;Node1 -->
<g id="edge1" class="edge">
<title>Node0&#45;&gt;Node1</title>
<path fill="none" stroke="#191970" d="M28.2143,-224.266C21.6435,-203.2701 8.5016,-152.362 20.5,-112 23.5326,-101.7984 29.6244,-91.7475 35.5309,-83.6555"/>
<polygon fill="#191970" stroke="#191970" points="38.323,-85.7667 41.7139,-75.7291 32.8036,-81.4613 38.323,-85.7667"/>
</g>
<!-- Node3 -->
<g id="node4" class="node">
<title>Node3</title>
<g id="a_node4"><a xlink:href="l4_2sys_2types_8h.html" target="_top" xlink:title="Common L4 ABI Data Types. ">
<polygon fill="#ffffff" stroke="#000000" points="108.5,-168.5 108.5,-187.5 188.5,-187.5 188.5,-168.5 108.5,-168.5"/>
<text text-anchor="middle" x="148.5" y="-175.5" font-family="Helvetica,sans-Serif" font-size="10.00" fill="#000000">l4/sys/types.h</text>
</a>
</g>
</g>
<!-- Node0&#45;&gt;Node3 -->
<g id="edge3" class="edge">
<title>Node0&#45;&gt;Node3</title>
<path fill="none" stroke="#191970" d="M51.613,-224.3733C70.3103,-215.4241 98.3744,-201.9917 119.4934,-191.8835"/>
<polygon fill="#191970" stroke="#191970" points="121.1405,-194.9755 128.6494,-187.5011 118.1183,-188.6614 121.1405,-194.9755"/>
</g>
<!-- Node2 -->
<g id="node3" class="node">
<title>Node2</title>
<polygon fill="#ffffff" stroke="#bfbfbf" points="6,-.5 6,-19.5 95,-19.5 95,-.5 6,-.5"/>
<text text-anchor="middle" x="50.5" y="-7.5" font-family="Helvetica,sans-Serif" font-size="10.00" fill="#000000">l4/sys/linkage.h</text>
</g>
<!-- Node1&#45;&gt;Node2 -->
<g id="edge2" class="edge">
<title>Node1&#45;&gt;Node2</title>
<path fill="none" stroke="#191970" d="M50.5,-56.2455C50.5,-48.9382 50.5,-38.6944 50.5,-29.7046"/>
<polygon fill="#191970" stroke="#191970" points="54.0001,-29.6426 50.5,-19.6427 47.0001,-29.6427 54.0001,-29.6426"/>
</g>
<!-- Node3&#45;&gt;Node1 -->
<g id="edge5" class="edge">
<title>Node3&#45;&gt;Node1</title>
<path fill="none" stroke="#191970" d="M110.5512,-168.4828C79.1452,-159.7482 38.1709,-146.0642 28.5,-132 18.5075,-117.468 27.0711,-98.0419 36.2738,-84.0321"/>
<polygon fill="#191970" stroke="#191970" points="39.2529,-85.8833 42.2249,-75.7138 33.5598,-81.8103 39.2529,-85.8833"/>
</g>
<!-- Node4 -->
<g id="node5" class="node">
<title>Node4</title>
<g id="a_node5"><a xlink:href="l4_2sys_2l4int_8h.html" target="_top" xlink:title="Fixed sized integer types, generic version. ">
<polygon fill="#ffffff" stroke="#000000" points="240.5,-56.5 240.5,-75.5 314.5,-75.5 314.5,-56.5 240.5,-56.5"/>
<text text-anchor="middle" x="277.5" y="-63.5" font-family="Helvetica,sans-Serif" font-size="10.00" fill="#000000">l4/sys/l4int.h</text>
</a>
</g>
</g>
<!-- Node3&#45;&gt;Node4 -->
<g id="edge4" class="edge">
<title>Node3&#45;&gt;Node4</title>
<path fill="none" stroke="#191970" d="M188.6686,-170.2936C212.0856,-163.8224 240.4671,-152.2517 258.5,-132 269.7622,-119.3521 274.3761,-100.4228 276.2521,-86.0753"/>
<polygon fill="#191970" stroke="#191970" points="279.7708,-86.0479 277.2444,-75.7588 272.803,-85.3777 279.7708,-86.0479"/>
</g>
<!-- Node5 -->
<g id="node6" class="node">
<title>Node5</title>
<g id="a_node6"><a xlink:href="l4_2sys_2consts_8h.html" target="_top" xlink:title="Common constants. ">
<polygon fill="#ffffff" stroke="#000000" points="163.5,-112.5 163.5,-131.5 249.5,-131.5 249.5,-112.5 163.5,-112.5"/>
<text text-anchor="middle" x="206.5" y="-119.5" font-family="Helvetica,sans-Serif" font-size="10.00" fill="#000000">l4/sys/consts.h</text>
</a>
</g>
</g>
<!-- Node3&#45;&gt;Node5 -->
<g id="edge6" class="edge">
<title>Node3&#45;&gt;Node5</title>
<path fill="none" stroke="#191970" d="M158.6028,-168.2455C167.0028,-160.1352 179.1494,-148.4075 189.1084,-138.7919"/>
<polygon fill="#191970" stroke="#191970" points="191.75,-141.1066 196.5129,-131.6427 186.8878,-136.0707 191.75,-141.1066"/>
</g>
<!-- Node6 -->
<g id="node7" class="node">
<title>Node6</title>
<g id="a_node7"><a xlink:href="____l4__fpage_8h_source.html" target="_top" xlink:title="l4/sys/__l4_fpage.h">
<polygon fill="#ffffff" stroke="#000000" points="37.5,-112.5 37.5,-131.5 145.5,-131.5 145.5,-112.5 37.5,-112.5"/>
<text text-anchor="middle" x="91.5" y="-119.5" font-family="Helvetica,sans-Serif" font-size="10.00" fill="#000000">l4/sys/__l4_fpage.h</text>
</a>
</g>
</g>
<!-- Node3&#45;&gt;Node6 -->
<g id="edge9" class="edge">
<title>Node3&#45;&gt;Node6</title>
<path fill="none" stroke="#191970" d="M138.5714,-168.2455C130.3162,-160.1352 118.3791,-148.4075 108.5918,-138.7919"/>
<polygon fill="#191970" stroke="#191970" points="110.9011,-136.1542 101.3149,-131.6427 105.9954,-141.1476 110.9011,-136.1542"/>
</g>
<!-- Node7 -->
<g id="node8" class="node">
<title>Node7</title>
<g id="a_node8"><a xlink:href="____timeout_8h_source.html" target="_top" xlink:title="l4/sys/__timeout.h">
<polygon fill="#ffffff" stroke="#000000" points="306,-112.5 306,-131.5 407,-131.5 407,-112.5 306,-112.5"/>
<text text-anchor="middle" x="356.5" y="-119.5" font-family="Helvetica,sans-Serif" font-size="10.00" fill="#000000">l4/sys/__timeout.h</text>
</a>
</g>
</g>
<!-- Node3&#45;&gt;Node7 -->
<g id="edge11" class="edge">
<title>Node3&#45;&gt;Node7</title>
<path fill="none" stroke="#191970" d="M184.2565,-168.3733C219.4426,-158.9001 273.2881,-144.4032 311.3956,-134.1435"/>
<polygon fill="#191970" stroke="#191970" points="312.4639,-137.4806 321.2101,-131.5011 310.644,-130.7213 312.4639,-137.4806"/>
</g>
<!-- Node5&#45;&gt;Node1 -->
<g id="edge7" class="edge">
<title>Node5&#45;&gt;Node1</title>
<path fill="none" stroke="#191970" d="M179.6826,-112.3733C153.9668,-103.1419 114.962,-89.1402 86.5401,-78.9375"/>
<polygon fill="#191970" stroke="#191970" points="87.5619,-75.5857 76.9674,-75.5011 85.1968,-82.174 87.5619,-75.5857"/>
</g>
<!-- Node5&#45;&gt;Node4 -->
<g id="edge8" class="edge">
<title>Node5&#45;&gt;Node4</title>
<path fill="none" stroke="#191970" d="M218.8673,-112.2455C229.4554,-103.8943 244.9064,-91.7076 257.2893,-81.9408"/>
<polygon fill="#191970" stroke="#191970" points="259.5903,-84.5837 265.2745,-75.6427 255.2553,-79.0875 259.5903,-84.5837"/>
</g>
<!-- Node6&#45;&gt;Node1 -->
<g id="edge10" class="edge">
<title>Node6&#45;&gt;Node1</title>
<path fill="none" stroke="#191970" d="M84.3583,-112.2455C78.6556,-104.4564 70.51,-93.3308 63.6375,-83.9439"/>
<polygon fill="#191970" stroke="#191970" points="66.2913,-81.6437 57.5598,-75.6427 60.6432,-85.7789 66.2913,-81.6437"/>
</g>
<!-- Node7&#45;&gt;Node4 -->
<g id="edge12" class="edge">
<title>Node7&#45;&gt;Node4</title>
<path fill="none" stroke="#191970" d="M342.7393,-112.2455C330.8448,-103.814 313.435,-91.4729 299.5915,-81.6598"/>
<polygon fill="#191970" stroke="#191970" points="301.2854,-78.5704 291.1031,-75.6427 297.2372,-84.2811 301.2854,-78.5704"/>
</g>
</g>
</svg>
