<?xml version="1.0" encoding="UTF-8" standalone="no"?>
<!DOCTYPE svg PUBLIC "-//W3C//DTD SVG 1.1//EN"
 "http://www.w3.org/Graphics/SVG/1.1/DTD/svg11.dtd">
<!-- Generated by graphviz version 2.40.1 (20161225.0304)
 -->
<!-- Title: l4/re/consts.h Pages: 1 -->
<svg width="1952pt" height="553pt"
 viewBox="0.00 0.00 1952.05 553.00" xmlns="http://www.w3.org/2000/svg" xmlns:xlink="http://www.w3.org/1999/xlink">
<g id="graph0" class="graph" transform="scale(1 1) rotate(0) translate(4 549)">
<title>l4/re/consts.h</title>
<polygon fill="#ffffff" stroke="transparent" points="-4,4 -4,-549 1948.0483,-549 1948.0483,4 -4,4"/>
<!-- Node5 -->
<g id="node1" class="node">
<title>Node5</title>
<polygon fill="#bfbfbf" stroke="#000000" points="1284,-525.5 1284,-544.5 1364,-544.5 1364,-525.5 1284,-525.5"/>
<text text-anchor="middle" x="1324" y="-532.5" font-family="Helvetica,sans-Serif" font-size="10.00" fill="#000000">l4/re/consts.h</text>
</g>
<!-- Node6 -->
<g id="node2" class="node">
<title>Node6</title>
<g id="a_node2"><a xlink:href="env_8h.html" target="_top" xlink:title="Environment interface. ">
<polygon fill="#ffffff" stroke="#000000" points="1291,-469.5 1291,-488.5 1357,-488.5 1357,-469.5 1291,-469.5"/>
<text text-anchor="middle" x="1324" y="-476.5" font-family="Helvetica,sans-Serif" font-size="10.00" fill="#000000">l4/re/env.h</text>
</a>
</g>
</g>
<!-- Node5&#45;&gt;Node6 -->
<g id="edge1" class="edge">
<title>Node5&#45;&gt;Node6</title>
<path fill="none" stroke="#191970" d="M1324,-515.1575C1324,-506.155 1324,-495.9199 1324,-488.6427"/>
<polygon fill="#191970" stroke="#191970" points="1320.5001,-515.2455 1324,-525.2455 1327.5001,-515.2456 1320.5001,-515.2455"/>
</g>
<!-- Node7 -->
<g id="node3" class="node">
<title>Node7</title>
<g id="a_node3"><a xlink:href="re_2consts.html" target="_top" xlink:title="Constants. ">
<polygon fill="#ffffff" stroke="#000000" points="489.5,-408 489.5,-427 560.5,-427 560.5,-408 489.5,-408"/>
<text text-anchor="middle" x="525" y="-415" font-family="Helvetica,sans-Serif" font-size="10.00" fill="#000000">l4/re/consts</text>
</a>
</g>
</g>
<!-- Node6&#45;&gt;Node7 -->
<g id="edge2" class="edge">
<title>Node6&#45;&gt;Node7</title>
<path fill="none" stroke="#191970" d="M1280.904,-475.6829C1139.4455,-464.7946 690.9294,-430.2718 560.7473,-420.2515"/>
<polygon fill="#191970" stroke="#191970" points="1280.6982,-479.1773 1290.9374,-476.4551 1281.2355,-472.1979 1280.6982,-479.1773"/>
</g>
<!-- Node9 -->
<g id="node5" class="node">
<title>Node9</title>
<g id="a_node5"><a xlink:href="env.html" target="_top" xlink:title="Environment interface. ">
<polygon fill="#ffffff" stroke="#000000" points="1173,-140 1173,-159 1231,-159 1231,-140 1173,-140"/>
<text text-anchor="middle" x="1202" y="-147" font-family="Helvetica,sans-Serif" font-size="10.00" fill="#000000">l4/re/env</text>
</a>
</g>
</g>
<!-- Node6&#45;&gt;Node9 -->
<g id="edge68" class="edge">
<title>Node6&#45;&gt;Node9</title>
<path fill="none" stroke="#191970" d="M1280.9159,-470.8233C1241.7361,-462.5363 1187.8374,-448.7219 1173,-433 1147.1047,-405.5611 1153,-388.2287 1153,-350.5 1153,-350.5 1153,-350.5 1153,-283.5 1153,-234.2067 1182.6089,-180.5778 1195.7941,-159.1399"/>
<polygon fill="#191970" stroke="#191970" points="1280.2763,-474.265 1290.7775,-472.8593 1281.6917,-467.4096 1280.2763,-474.265"/>
</g>
<!-- Node43 -->
<g id="node39" class="node">
<title>Node43</title>
<g id="a_node39"><a xlink:href="log_8h.html" target="_top" xlink:title="Log C interface. ">
<polygon fill="#ffffff" stroke="#000000" points="1181.5,-408 1181.5,-427 1252.5,-427 1252.5,-408 1181.5,-408"/>
<text text-anchor="middle" x="1217" y="-415" font-family="Helvetica,sans-Serif" font-size="10.00" fill="#000000">l4/re/c/log.h</text>
</a>
</g>
</g>
<!-- Node6&#45;&gt;Node43 -->
<g id="edge69" class="edge">
<title>Node6&#45;&gt;Node43</title>
<path fill="none" stroke="#191970" d="M1298.3522,-464.2585C1278.2634,-452.7122 1250.9095,-436.99 1233.6013,-427.0419"/>
<polygon fill="#191970" stroke="#191970" points="1296.8672,-467.4419 1307.2813,-469.3906 1300.3554,-461.3729 1296.8672,-467.4419"/>
</g>
<!-- Node44 -->
<g id="node40" class="node">
<title>Node44</title>
<g id="a_node40"><a xlink:href="mem__alloc_8h.html" target="_top" xlink:title="Memory allocator C interface. ">
<polygon fill="#ffffff" stroke="#000000" points="1270.5,-408 1270.5,-427 1377.5,-427 1377.5,-408 1270.5,-408"/>
<text text-anchor="middle" x="1324" y="-415" font-family="Helvetica,sans-Serif" font-size="10.00" fill="#000000">l4/re/c/mem_alloc.h</text>
</a>
</g>
</g>
<!-- Node6&#45;&gt;Node44 -->
<g id="edge70" class="edge">
<title>Node6&#45;&gt;Node44</title>
<path fill="none" stroke="#191970" d="M1324,-459.2462C1324,-448.5519 1324,-435.814 1324,-427.2449"/>
<polygon fill="#191970" stroke="#191970" points="1320.5001,-459.3906 1324,-469.3906 1327.5001,-459.3907 1320.5001,-459.3906"/>
</g>
<!-- Node45 -->
<g id="node41" class="node">
<title>Node45</title>
<g id="a_node41"><a xlink:href="namespace_8h.html" target="_top" xlink:title="Namespace functions, C interface. ">
<polygon fill="#ffffff" stroke="#000000" points="1396,-408 1396,-427 1508,-427 1508,-408 1396,-408"/>
<text text-anchor="middle" x="1452" y="-415" font-family="Helvetica,sans-Serif" font-size="10.00" fill="#000000">l4/re/c/namespace.h</text>
</a>
</g>
</g>
<!-- Node6&#45;&gt;Node45 -->
<g id="edge71" class="edge">
<title>Node6&#45;&gt;Node45</title>
<path fill="none" stroke="#191970" d="M1353.0639,-465.0357C1377.2261,-453.4265 1410.967,-437.2151 1432.1404,-427.0419"/>
<polygon fill="#191970" stroke="#191970" points="1351.4978,-461.9051 1344,-469.3906 1354.5294,-468.2146 1351.4978,-461.9051"/>
</g>
<!-- Node46 -->
<g id="node42" class="node">
<title>Node46</title>
<g id="a_node42"><a xlink:href="rm_8h.html" target="_top" xlink:title="Region map interface, C interface. ">
<polygon fill="#ffffff" stroke="#000000" points="1526.5,-408 1526.5,-427 1595.5,-427 1595.5,-408 1526.5,-408"/>
<text text-anchor="middle" x="1561" y="-415" font-family="Helvetica,sans-Serif" font-size="10.00" fill="#000000">l4/re/c/rm.h</text>
</a>
</g>
</g>
<!-- Node6&#45;&gt;Node46 -->
<g id="edge72" class="edge">
<title>Node6&#45;&gt;Node46</title>
<path fill="none" stroke="#191970" d="M1366.8487,-470.1368C1406.1849,-461.682 1465.933,-448.0356 1517,-433 1522.9046,-431.2615 1529.1813,-429.1892 1535.0888,-427.1344"/>
<polygon fill="#191970" stroke="#191970" points="1366.1096,-466.7157 1357.0594,-472.2243 1367.5695,-473.5618 1366.1096,-466.7157"/>
</g>
<!-- Node47 -->
<g id="node43" class="node">
<title>Node47</title>
<g id="a_node43"><a xlink:href="poll__timeout__kipclock_source.html" target="_top" xlink:title="l4/re/util/poll_timeout\l_kipclock">
<polygon fill="#ffffff" stroke="#000000" points="1613.5,-402.5 1613.5,-432.5 1726.5,-432.5 1726.5,-402.5 1613.5,-402.5"/>
<text text-anchor="start" x="1621.5" y="-420.5" font-family="Helvetica,sans-Serif" font-size="10.00" fill="#000000">l4/re/util/poll_timeout</text>
<text text-anchor="middle" x="1670" y="-409.5" font-family="Helvetica,sans-Serif" font-size="10.00" fill="#000000">_kipclock</text>
</a>
</g>
</g>
<!-- Node6&#45;&gt;Node47 -->
<g id="edge73" class="edge">
<title>Node6&#45;&gt;Node47</title>
<path fill="none" stroke="#191970" d="M1367.1541,-472.9194C1422.4639,-464.9008 1521.2211,-449.8238 1605,-433 1607.7298,-432.4518 1610.519,-431.8702 1613.3326,-431.2662"/>
<polygon fill="#191970" stroke="#191970" points="1366.4156,-469.4896 1357.0172,-474.3804 1367.4142,-476.418 1366.4156,-469.4896"/>
</g>
<!-- Node8 -->
<g id="node4" class="node">
<title>Node8</title>
<g id="a_node4"><a xlink:href="rm.html" target="_top" xlink:title="Region mapper interface. ">
<polygon fill="#ffffff" stroke="#000000" points="884.5,-207 884.5,-226 937.5,-226 937.5,-207 884.5,-207"/>
<text text-anchor="middle" x="911" y="-214" font-family="Helvetica,sans-Serif" font-size="10.00" fill="#000000">l4/re/rm</text>
</a>
</g>
</g>
<!-- Node7&#45;&gt;Node8 -->
<g id="edge3" class="edge">
<title>Node7&#45;&gt;Node8</title>
<path fill="none" stroke="#191970" d="M552.5681,-403.1446C626.9139,-364.4309 830.1302,-258.611 892.5297,-226.118"/>
<polygon fill="#191970" stroke="#191970" points="550.6109,-400.2176 543.3579,-407.9406 553.844,-406.4263 550.6109,-400.2176"/>
</g>
<!-- Node7&#45;&gt;Node9 -->
<g id="edge27" class="edge">
<title>Node7&#45;&gt;Node9</title>
<path fill="none" stroke="#191970" d="M562.2354,-404.5416C591.182,-394.359 632.2849,-379.6618 668,-366 867.7183,-289.6035 1106.2059,-189.8481 1179.4856,-159.0019"/>
<polygon fill="#191970" stroke="#191970" points="560.8097,-401.3325 552.5324,-407.9459 563.1273,-407.9378 560.8097,-401.3325"/>
</g>
<!-- Node22 -->
<g id="node18" class="node">
<title>Node22</title>
<g id="a_node18"><a xlink:href="object__registry_source.html" target="_top" xlink:title="l4/re/util/object_registry">
<polygon fill="#ffffff" stroke="#000000" points="17.5,-73 17.5,-92 142.5,-92 142.5,-73 17.5,-73"/>
<text text-anchor="middle" x="80" y="-80" font-family="Helvetica,sans-Serif" font-size="10.00" fill="#000000">l4/re/util/object_registry</text>
</a>
</g>
</g>
<!-- Node7&#45;&gt;Node22 -->
<g id="edge67" class="edge">
<title>Node7&#45;&gt;Node22</title>
<path fill="none" stroke="#191970" d="M479.0795,-415.5831C351.1434,-409.0027 0,-381.9723 0,-283.5 0,-283.5 0,-283.5 0,-216.5 0,-163.1239 47.3743,-112.5451 69.2108,-92.0665"/>
<polygon fill="#191970" stroke="#191970" points="479.1664,-419.0916 489.3274,-416.0907 479.5128,-412.1002 479.1664,-419.0916"/>
</g>
<!-- Node27 -->
<g id="node23" class="node">
<title>Node27</title>
<g id="a_node23"><a xlink:href="counting__cap__alloc.html" target="_top" xlink:title="Reference&#45;counting capability allocator. ">
<polygon fill="#ffffff" stroke="#000000" points="362,-335.5 362,-365.5 458,-365.5 458,-335.5 362,-335.5"/>
<text text-anchor="start" x="370" y="-353.5" font-family="Helvetica,sans-Serif" font-size="10.00" fill="#000000">l4/re/util/counting</text>
<text text-anchor="middle" x="410" y="-342.5" font-family="Helvetica,sans-Serif" font-size="10.00" fill="#000000">_cap_alloc</text>
</a>
</g>
</g>
<!-- Node7&#45;&gt;Node27 -->
<g id="edge28" class="edge">
<title>Node7&#45;&gt;Node27</title>
<path fill="none" stroke="#191970" d="M499.826,-402.8334C480.8474,-391.7763 454.9091,-376.6644 435.7836,-365.5218"/>
<polygon fill="#191970" stroke="#191970" points="498.1208,-405.8906 508.5233,-407.9005 501.6447,-399.8423 498.1208,-405.8906"/>
</g>
<!-- Node29 -->
<g id="node25" class="node">
<title>Node29</title>
<g id="a_node25"><a xlink:href="util_2cap__alloc.html" target="_top" xlink:title="Capability allocator. ">
<polygon fill="#ffffff" stroke="#000000" points="361.5,-207 361.5,-226 462.5,-226 462.5,-207 361.5,-207"/>
<text text-anchor="middle" x="412" y="-214" font-family="Helvetica,sans-Serif" font-size="10.00" fill="#000000">l4/re/util/cap_alloc</text>
</a>
</g>
</g>
<!-- Node7&#45;&gt;Node29 -->
<g id="edge44" class="edge">
<title>Node7&#45;&gt;Node29</title>
<path fill="none" stroke="#191970" d="M518.7655,-398.3615C507.1386,-363.2617 481.9715,-290.1601 467,-268 455.576,-251.0908 437.6514,-235.6658 425.391,-226.1951"/>
<polygon fill="#191970" stroke="#191970" points="515.4651,-399.5292 521.9129,-407.936 522.115,-397.3431 515.4651,-399.5292"/>
</g>
<!-- Node33 -->
<g id="node29" class="node">
<title>Node33</title>
<g id="a_node29"><a xlink:href="cap__alloc.html" target="_top" xlink:title="Abstract capability&#45;allocator interface. ">
<polygon fill="#ffffff" stroke="#000000" points="1365,-341 1365,-360 1451,-360 1451,-341 1365,-341"/>
<text text-anchor="middle" x="1408" y="-348" font-family="Helvetica,sans-Serif" font-size="10.00" fill="#000000">l4/re/cap_alloc</text>
</a>
</g>
</g>
<!-- Node7&#45;&gt;Node33 -->
<g id="edge45" class="edge">
<title>Node7&#45;&gt;Node33</title>
<path fill="none" stroke="#191970" d="M570.6976,-414.0326C723.5306,-402.436 1215.5973,-365.0991 1364.7477,-353.7819"/>
<polygon fill="#191970" stroke="#191970" points="570.4148,-410.5439 560.7083,-414.7905 570.9445,-417.5238 570.4148,-410.5439"/>
</g>
<!-- Node8&#45;&gt;Node9 -->
<g id="edge4" class="edge">
<title>Node8&#45;&gt;Node9</title>
<path fill="none" stroke="#191970" d="M947.696,-209.9025C1007.6479,-198.9774 1123.9342,-177.1332 1164,-165 1169.4553,-163.348 1175.212,-161.2148 1180.5489,-159.0625"/>
<polygon fill="#191970" stroke="#191970" points="946.7487,-206.5172 937.5351,-211.7479 947.9996,-213.4046 946.7487,-206.5172"/>
</g>
<!-- Node11 -->
<g id="node7" class="node">
<title>Node11</title>
<g id="a_node7"><a xlink:href="server_2l4virtio_source.html" target="_top" xlink:title="l4/l4virtio/server\l/l4virtio">
<polygon fill="#ffffff" stroke="#000000" points="320,-67.5 320,-97.5 412,-97.5 412,-67.5 320,-67.5"/>
<text text-anchor="start" x="328" y="-85.5" font-family="Helvetica,sans-Serif" font-size="10.00" fill="#000000">l4/l4virtio/server</text>
<text text-anchor="middle" x="366" y="-74.5" font-family="Helvetica,sans-Serif" font-size="10.00" fill="#000000">/l4virtio</text>
</a>
</g>
</g>
<!-- Node8&#45;&gt;Node11 -->
<g id="edge18" class="edge">
<title>Node8&#45;&gt;Node11</title>
<path fill="none" stroke="#191970" d="M874.2466,-210.8623C821.5659,-202.4888 721.7052,-185.5259 638,-165 556.7643,-145.0797 463.8607,-115.3711 410.3528,-97.569"/>
<polygon fill="#191970" stroke="#191970" points="874.0192,-214.3696 884.4422,-212.4689 875.1089,-207.4549 874.0192,-214.3696"/>
</g>
<!-- Node17 -->
<g id="node13" class="node">
<title>Node17</title>
<g id="a_node13"><a xlink:href="vfs__impl_8h_source.html" target="_top" xlink:title="l4/l4re_vfs/impl/vfs\l_impl.h">
<polygon fill="#ffffff" stroke="#000000" points="1575,-67.5 1575,-97.5 1679,-97.5 1679,-67.5 1575,-67.5"/>
<text text-anchor="start" x="1583" y="-85.5" font-family="Helvetica,sans-Serif" font-size="10.00" fill="#000000">l4/l4re_vfs/impl/vfs</text>
<text text-anchor="middle" x="1627" y="-74.5" font-family="Helvetica,sans-Serif" font-size="10.00" fill="#000000">_impl.h</text>
</a>
</g>
</g>
<!-- Node8&#45;&gt;Node17 -->
<g id="edge19" class="edge">
<title>Node8&#45;&gt;Node17</title>
<path fill="none" stroke="#191970" d="M947.881,-213.5379C1009.3579,-207.9794 1136.2733,-193.8507 1240,-165 1275.1455,-155.2246 1280.7952,-143.5598 1316,-134 1424.334,-104.582 1455.8905,-119.8535 1566,-98 1568.8938,-97.4257 1571.8557,-96.8001 1574.8392,-96.1404"/>
<polygon fill="#191970" stroke="#191970" points="947.5402,-210.0543 937.8856,-214.4177 948.154,-217.0273 947.5402,-210.0543"/>
</g>
<!-- Node18 -->
<g id="node14" class="node">
<title>Node18</title>
<g id="a_node14"><a xlink:href="util_2event.html" target="_top" xlink:title="l4/re/util/event">
<polygon fill="#ffffff" stroke="#000000" points="565.5,-73 565.5,-92 648.5,-92 648.5,-73 565.5,-73"/>
<text text-anchor="middle" x="607" y="-80" font-family="Helvetica,sans-Serif" font-size="10.00" fill="#000000">l4/re/util/event</text>
</a>
</g>
</g>
<!-- Node8&#45;&gt;Node18 -->
<g id="edge21" class="edge">
<title>Node8&#45;&gt;Node18</title>
<path fill="none" stroke="#191970" d="M888.9608,-201.3593C862.072,-183.4038 814.7729,-153.4632 771,-134 729.6875,-115.6308 679.8356,-100.9667 646.02,-92.0558"/>
<polygon fill="#191970" stroke="#191970" points="887.0145,-204.2682 897.2626,-206.9566 890.9278,-198.4642 887.0145,-204.2682"/>
</g>
<!-- Node23 -->
<g id="node19" class="node">
<title>Node23</title>
<g id="a_node19"><a xlink:href="rm__impl_8h.html" target="_top" xlink:title="Region map client stub implementation. ">
<polygon fill="#ffffff" stroke="#000000" points="857.5,-140 857.5,-159 964.5,-159 964.5,-140 857.5,-140"/>
<text text-anchor="middle" x="911" y="-147" font-family="Helvetica,sans-Serif" font-size="10.00" fill="#000000">l4/re/impl/rm_impl.h</text>
</a>
</g>
</g>
<!-- Node8&#45;&gt;Node23 -->
<g id="edge20" class="edge">
<title>Node8&#45;&gt;Node23</title>
<path fill="none" stroke="#191970" d="M911,-196.6079C911,-184.214 911,-168.8263 911,-159.0817"/>
<polygon fill="#191970" stroke="#191970" points="907.5001,-196.9005 911,-206.9005 914.5001,-196.9006 907.5001,-196.9005"/>
</g>
<!-- Node24 -->
<g id="node20" class="node">
<title>Node24</title>
<g id="a_node20"><a xlink:href="event__buffer_source.html" target="_top" xlink:title="l4/re/util/event_buffer">
<polygon fill="#ffffff" stroke="#000000" points="647.5,-140 647.5,-159 762.5,-159 762.5,-140 647.5,-140"/>
<text text-anchor="middle" x="705" y="-147" font-family="Helvetica,sans-Serif" font-size="10.00" fill="#000000">l4/re/util/event_buffer</text>
</a>
</g>
</g>
<!-- Node8&#45;&gt;Node24 -->
<g id="edge22" class="edge">
<title>Node8&#45;&gt;Node24</title>
<path fill="none" stroke="#191970" d="M874.8795,-204.7521C834.953,-191.7663 771.4066,-171.0983 734.3993,-159.0619"/>
<polygon fill="#191970" stroke="#191970" points="873.8986,-208.1135 884.4908,-207.8781 876.0637,-201.4567 873.8986,-208.1135"/>
</g>
<!-- Node25 -->
<g id="node21" class="node">
<title>Node25</title>
<g id="a_node21"><a xlink:href="region__mapping.html" target="_top" xlink:title="Region handling. ">
<polygon fill="#ffffff" stroke="#000000" points="1021.5,-140 1021.5,-159 1154.5,-159 1154.5,-140 1021.5,-140"/>
<text text-anchor="middle" x="1088" y="-147" font-family="Helvetica,sans-Serif" font-size="10.00" fill="#000000">l4/re/util/region_mapping</text>
</a>
</g>
</g>
<!-- Node8&#45;&gt;Node25 -->
<g id="edge24" class="edge">
<title>Node8&#45;&gt;Node25</title>
<path fill="none" stroke="#191970" d="M946.0073,-203.2487C980.4138,-190.2247 1032.0842,-170.6659 1062.6873,-159.0817"/>
<polygon fill="#191970" stroke="#191970" points="944.4731,-200.087 936.3598,-206.9005 946.9513,-206.6336 944.4731,-200.087"/>
</g>
<!-- Node26 -->
<g id="node22" class="node">
<title>Node26</title>
<g id="a_node22"><a xlink:href="region__mapping__svr__2_source.html" target="_top" xlink:title="l4/re/util/region_mapping\l_svr_2">
<polygon fill="#ffffff" stroke="#000000" points="729.5,-67.5 729.5,-97.5 862.5,-97.5 862.5,-67.5 729.5,-67.5"/>
<text text-anchor="start" x="737.5" y="-85.5" font-family="Helvetica,sans-Serif" font-size="10.00" fill="#000000">l4/re/util/region_mapping</text>
<text text-anchor="middle" x="796" y="-74.5" font-family="Helvetica,sans-Serif" font-size="10.00" fill="#000000">_svr_2</text>
</a>
</g>
</g>
<!-- Node8&#45;&gt;Node26 -->
<g id="edge26" class="edge">
<title>Node8&#45;&gt;Node26</title>
<path fill="none" stroke="#191970" d="M936.4979,-201.3093C960.9558,-184.7971 991.7451,-157.6071 974,-134 966.9204,-124.5818 909.6508,-109.0774 861.9537,-97.537"/>
<polygon fill="#191970" stroke="#191970" points="934.3733,-198.5151 927.8752,-206.8832 938.1734,-204.3938 934.3733,-198.5151"/>
</g>
<!-- Node10 -->
<g id="node6" class="node">
<title>Node10</title>
<g id="a_node6"><a xlink:href="vcpu_source.html" target="_top" xlink:title="l4/vcpu/vcpu">
<polygon fill="#ffffff" stroke="#000000" points="988,-73 988,-92 1062,-92 1062,-73 988,-73"/>
<text text-anchor="middle" x="1025" y="-80" font-family="Helvetica,sans-Serif" font-size="10.00" fill="#000000">l4/vcpu/vcpu</text>
</a>
</g>
</g>
<!-- Node9&#45;&gt;Node10 -->
<g id="edge5" class="edge">
<title>Node9&#45;&gt;Node10</title>
<path fill="none" stroke="#191970" d="M1169.0199,-135.9719C1167.3242,-135.3001 1165.6434,-134.6394 1164,-134 1125.0266,-118.8362 1079.5243,-102.1726 1051.4851,-92.0231"/>
<polygon fill="#191970" stroke="#191970" points="1168.152,-139.3949 1178.7361,-139.8714 1170.7593,-132.8986 1168.152,-139.3949"/>
</g>
<!-- Node9&#45;&gt;Node11 -->
<g id="edge6" class="edge">
<title>Node9&#45;&gt;Node11</title>
<path fill="none" stroke="#191970" d="M1172.495,-136.386C1169.6621,-135.4558 1166.801,-134.6358 1164,-134 900.0204,-74.0766 826.0274,-117.0061 556,-98 506.8091,-94.5377 450.515,-89.8549 412.0502,-86.5453"/>
<polygon fill="#191970" stroke="#191970" points="1171.2961,-139.6743 1181.8892,-139.8669 1173.7283,-133.1104 1171.2961,-139.6743"/>
</g>
<!-- Node13 -->
<g id="node9" class="node">
<title>Node13</title>
<g id="a_node9"><a xlink:href="env__ns_source.html" target="_top" xlink:title="l4/re/util/env_ns">
<polygon fill="#ffffff" stroke="#000000" points="1215.5,-73 1215.5,-92 1306.5,-92 1306.5,-73 1215.5,-73"/>
<text text-anchor="middle" x="1261" y="-80" font-family="Helvetica,sans-Serif" font-size="10.00" fill="#000000">l4/re/util/env_ns</text>
</a>
</g>
</g>
<!-- Node9&#45;&gt;Node13 -->
<g id="edge8" class="edge">
<title>Node9&#45;&gt;Node13</title>
<path fill="none" stroke="#191970" d="M1217.2214,-132.2147C1228.4698,-119.441 1243.3684,-102.5224 1252.5624,-92.0817"/>
<polygon fill="#191970" stroke="#191970" points="1214.4354,-130.0825 1210.4533,-139.9005 1219.6888,-134.7087 1214.4354,-130.0825"/>
</g>
<!-- Node15 -->
<g id="node11" class="node">
<title>Node15</title>
<g id="a_node11"><a xlink:href="ro__file__impl_8h_source.html" target="_top" xlink:title="l4/l4re_vfs/impl/ro\l_file_impl.h">
<polygon fill="#ffffff" stroke="#000000" points="1325,-67.5 1325,-97.5 1425,-97.5 1425,-67.5 1325,-67.5"/>
<text text-anchor="start" x="1333" y="-85.5" font-family="Helvetica,sans-Serif" font-size="10.00" fill="#000000">l4/l4re_vfs/impl/ro</text>
<text text-anchor="middle" x="1375" y="-74.5" font-family="Helvetica,sans-Serif" font-size="10.00" fill="#000000">_file_impl.h</text>
</a>
</g>
</g>
<!-- Node9&#45;&gt;Node15 -->
<g id="edge10" class="edge">
<title>Node9&#45;&gt;Node15</title>
<path fill="none" stroke="#191970" d="M1236.4206,-136.1695C1265.2112,-125.0194 1306.2641,-109.1203 1336.2125,-97.5218"/>
<polygon fill="#191970" stroke="#191970" points="1234.8478,-133.0252 1226.7867,-139.9005 1237.3758,-139.5528 1234.8478,-133.0252"/>
</g>
<!-- Node16 -->
<g id="node12" class="node">
<title>Node16</title>
<g id="a_node12"><a xlink:href="vcon__stream__impl_8h_source.html" target="_top" xlink:title="l4/l4re_vfs/impl/vcon\l_stream_impl.h">
<polygon fill="#ffffff" stroke="#000000" points="1443.5,-67.5 1443.5,-97.5 1556.5,-97.5 1556.5,-67.5 1443.5,-67.5"/>
<text text-anchor="start" x="1451.5" y="-85.5" font-family="Helvetica,sans-Serif" font-size="10.00" fill="#000000">l4/l4re_vfs/impl/vcon</text>
<text text-anchor="middle" x="1500" y="-74.5" font-family="Helvetica,sans-Serif" font-size="10.00" fill="#000000">_stream_impl.h</text>
</a>
</g>
</g>
<!-- Node9&#45;&gt;Node16 -->
<g id="edge11" class="edge">
<title>Node9&#45;&gt;Node16</title>
<path fill="none" stroke="#191970" d="M1235.9346,-136.7113C1238.9808,-135.7326 1242.034,-134.8116 1245,-134 1327.4782,-111.4313 1350.3585,-115.779 1434,-98 1436.9933,-97.3637 1440.0595,-96.6968 1443.1527,-96.0121"/>
<polygon fill="#191970" stroke="#191970" points="1234.686,-133.439 1226.3442,-139.9708 1236.9386,-140.0667 1234.686,-133.439"/>
</g>
<!-- Node9&#45;&gt;Node17 -->
<g id="edge12" class="edge">
<title>Node9&#45;&gt;Node17</title>
<path fill="none" stroke="#191970" d="M1235.1027,-136.6996C1238.4156,-135.6812 1241.754,-134.756 1245,-134 1384.8189,-101.4356 1424.765,-123.738 1566,-98 1568.9024,-97.4711 1571.8712,-96.8813 1574.86,-96.2494"/>
<polygon fill="#191970" stroke="#191970" points="1233.7309,-133.4678 1225.3574,-139.959 1235.9513,-140.1063 1233.7309,-133.4678"/>
</g>
<!-- Node9&#45;&gt;Node18 -->
<g id="edge13" class="edge">
<title>Node9&#45;&gt;Node18</title>
<path fill="none" stroke="#191970" d="M1172.4799,-136.4509C1169.6502,-135.507 1166.7939,-134.6663 1164,-134 971.4193,-88.0751 916.8143,-119.4606 720,-98 696.2795,-95.4135 669.8532,-91.8278 648.5239,-88.7565"/>
<polygon fill="#191970" stroke="#191970" points="1171.2765,-139.7375 1181.8692,-139.9528 1173.7228,-133.1788 1171.2765,-139.7375"/>
</g>
<!-- Node19 -->
<g id="node15" class="node">
<title>Node19</title>
<g id="a_node15"><a xlink:href="icu__svr_source.html" target="_top" xlink:title="l4/re/util/icu_svr">
<polygon fill="#ffffff" stroke="#000000" points="880.5,-73 880.5,-92 969.5,-92 969.5,-73 880.5,-73"/>
<text text-anchor="middle" x="925" y="-80" font-family="Helvetica,sans-Serif" font-size="10.00" fill="#000000">l4/re/util/icu_svr</text>
</a>
</g>
</g>
<!-- Node9&#45;&gt;Node19 -->
<g id="edge14" class="edge">
<title>Node9&#45;&gt;Node19</title>
<path fill="none" stroke="#191970" d="M1171.0179,-136.2906C1168.6617,-135.4623 1166.3044,-134.687 1164,-134 1083.727,-110.068 1060.4454,-117.5738 979,-98 971.6977,-96.245 963.9028,-94.1435 956.5723,-92.0627"/>
<polygon fill="#191970" stroke="#191970" points="1169.9675,-139.6354 1180.5589,-139.9041 1172.4468,-133.0891 1169.9675,-139.6354"/>
</g>
<!-- Node21 -->
<g id="node17" class="node">
<title>Node21</title>
<g id="a_node17"><a xlink:href="kumem__alloc.html" target="_top" xlink:title="Kumem allocator helper. ">
<polygon fill="#ffffff" stroke="#000000" points="1080.5,-73 1080.5,-92 1197.5,-92 1197.5,-73 1080.5,-73"/>
<text text-anchor="middle" x="1139" y="-80" font-family="Helvetica,sans-Serif" font-size="10.00" fill="#000000">l4/re/util/kumem_alloc</text>
</a>
</g>
</g>
<!-- Node9&#45;&gt;Node21 -->
<g id="edge16" class="edge">
<title>Node9&#45;&gt;Node21</title>
<path fill="none" stroke="#191970" d="M1186.0888,-132.5785C1174.0392,-119.7639 1157.9205,-102.6218 1148.0096,-92.0817"/>
<polygon fill="#191970" stroke="#191970" points="1183.5735,-135.0129 1192.9736,-139.9005 1188.6732,-130.2177 1183.5735,-135.0129"/>
</g>
<!-- Node9&#45;&gt;Node22 -->
<g id="edge17" class="edge">
<title>Node9&#45;&gt;Node22</title>
<path fill="none" stroke="#191970" d="M1172.704,-136.3998C1169.8043,-135.4532 1166.8715,-134.6263 1164,-134 978.6332,-93.5717 500.4417,-108.3517 311,-98 254.009,-94.8858 189.1688,-90.4574 142.7219,-87.1309"/>
<polygon fill="#191970" stroke="#191970" points="1171.7054,-139.7624 1182.2983,-139.9616 1174.1417,-133.2 1171.7054,-139.7624"/>
</g>
<!-- Node12 -->
<g id="node8" class="node">
<title>Node12</title>
<g id="a_node8"><a xlink:href="virtio-block_source.html" target="_top" xlink:title="l4/l4virtio/server\l/virtio&#45;block">
<polygon fill="#ffffff" stroke="#000000" points="250,-.5 250,-30.5 342,-30.5 342,-.5 250,-.5"/>
<text text-anchor="start" x="258" y="-18.5" font-family="Helvetica,sans-Serif" font-size="10.00" fill="#000000">l4/l4virtio/server</text>
<text text-anchor="middle" x="296" y="-7.5" font-family="Helvetica,sans-Serif" font-size="10.00" fill="#000000">/virtio&#45;block</text>
</a>
</g>
</g>
<!-- Node11&#45;&gt;Node12 -->
<g id="edge7" class="edge">
<title>Node11&#45;&gt;Node12</title>
<path fill="none" stroke="#191970" d="M342.7133,-60.2113C332.5681,-50.5009 320.9386,-39.3698 311.8212,-30.6432"/>
<polygon fill="#191970" stroke="#191970" points="340.4716,-62.9105 350.1159,-67.2967 345.3118,-57.8536 340.4716,-62.9105"/>
</g>
<!-- Node14 -->
<g id="node10" class="node">
<title>Node14</title>
<g id="a_node10"><a xlink:href="ns__fs__impl_8h_source.html" target="_top" xlink:title="l4/l4re_vfs/impl/ns\l_fs_impl.h">
<polygon fill="#ffffff" stroke="#000000" points="1818.5,-.5 1818.5,-30.5 1919.5,-30.5 1919.5,-.5 1818.5,-.5"/>
<text text-anchor="start" x="1826.5" y="-18.5" font-family="Helvetica,sans-Serif" font-size="10.00" fill="#000000">l4/l4re_vfs/impl/ns</text>
<text text-anchor="middle" x="1869" y="-7.5" font-family="Helvetica,sans-Serif" font-size="10.00" fill="#000000">_fs_impl.h</text>
</a>
</g>
</g>
<!-- Node13&#45;&gt;Node14 -->
<g id="edge9" class="edge">
<title>Node13&#45;&gt;Node14</title>
<path fill="none" stroke="#191970" d="M1300.6957,-70.3932C1305.8125,-69.1046 1311.0074,-67.928 1316,-67 1498.9614,-32.9921 1720.3625,-20.9905 1818.2528,-17.143"/>
<polygon fill="#191970" stroke="#191970" points="1299.7854,-67.0136 1291.0259,-72.9736 1301.5903,-73.7769 1299.7854,-67.0136"/>
</g>
<!-- Node20 -->
<g id="node16" class="node">
<title>Node20</title>
<g id="a_node16"><a xlink:href="event__svr_source.html" target="_top" xlink:title="l4/re/util/event_svr">
<polygon fill="#ffffff" stroke="#000000" points="873.5,-6 873.5,-25 976.5,-25 976.5,-6 873.5,-6"/>
<text text-anchor="middle" x="925" y="-13" font-family="Helvetica,sans-Serif" font-size="10.00" fill="#000000">l4/re/util/event_svr</text>
</a>
</g>
</g>
<!-- Node19&#45;&gt;Node20 -->
<g id="edge15" class="edge">
<title>Node19&#45;&gt;Node20</title>
<path fill="none" stroke="#191970" d="M925,-62.6079C925,-50.214 925,-34.8263 925,-25.0817"/>
<polygon fill="#191970" stroke="#191970" points="921.5001,-62.9005 925,-72.9005 928.5001,-62.9006 921.5001,-62.9005"/>
</g>
<!-- Node24&#45;&gt;Node18 -->
<g id="edge23" class="edge">
<title>Node24&#45;&gt;Node18</title>
<path fill="none" stroke="#191970" d="M682.6009,-134.1864C663.6517,-121.2312 637.0864,-103.0693 621.015,-92.0817"/>
<polygon fill="#191970" stroke="#191970" points="680.7285,-137.146 690.959,-139.9005 684.6792,-131.3674 680.7285,-137.146"/>
</g>
<!-- Node25&#45;&gt;Node26 -->
<g id="edge25" class="edge">
<title>Node25&#45;&gt;Node26</title>
<path fill="none" stroke="#191970" d="M1036.4696,-137.6762C987.7637,-126.5006 914.4758,-109.6845 861.6144,-97.5553"/>
<polygon fill="#191970" stroke="#191970" points="1035.9441,-141.1466 1046.4736,-139.9717 1037.5097,-134.3239 1035.9441,-141.1466"/>
</g>
<!-- Node28 -->
<g id="node24" class="node">
<title>Node28</title>
<g id="a_node24"><a xlink:href="cap__alloc__impl_8h.html" target="_top" xlink:title="Capability allocator implementation. ">
<polygon fill="#ffffff" stroke="#000000" points="357.5,-268.5 357.5,-298.5 458.5,-298.5 458.5,-268.5 357.5,-268.5"/>
<text text-anchor="start" x="365.5" y="-286.5" font-family="Helvetica,sans-Serif" font-size="10.00" fill="#000000">l4/re/util/cap_alloc</text>
<text text-anchor="middle" x="408" y="-275.5" font-family="Helvetica,sans-Serif" font-size="10.00" fill="#000000">_impl.h</text>
</a>
</g>
</g>
<!-- Node27&#45;&gt;Node28 -->
<g id="edge29" class="edge">
<title>Node27&#45;&gt;Node28</title>
<path fill="none" stroke="#191970" d="M409.2395,-325.0249C408.974,-316.128 408.6844,-306.4287 408.452,-298.6432"/>
<polygon fill="#191970" stroke="#191970" points="405.7493,-325.4056 409.5462,-335.2967 412.7461,-325.1967 405.7493,-325.4056"/>
</g>
<!-- Node28&#45;&gt;Node29 -->
<g id="edge30" class="edge">
<title>Node28&#45;&gt;Node29</title>
<path fill="none" stroke="#191970" d="M409.5152,-258.1199C410.1846,-246.9072 410.9312,-234.4031 411.4296,-226.055"/>
<polygon fill="#191970" stroke="#191970" points="406.0099,-258.1058 408.9077,-268.2967 412.9975,-258.5231 406.0099,-258.1058"/>
</g>
<!-- Node29&#45;&gt;Node11 -->
<g id="edge31" class="edge">
<title>Node29&#45;&gt;Node11</title>
<path fill="none" stroke="#191970" d="M351.5612,-208.0807C302.401,-199.8485 238.6938,-185.5424 223,-165 193.1589,-125.9396 267.478,-102.1884 319.7914,-90.7646"/>
<polygon fill="#191970" stroke="#191970" points="351.0619,-211.5454 361.494,-209.6957 352.1854,-204.6362 351.0619,-211.5454"/>
</g>
<!-- Node29&#45;&gt;Node13 -->
<g id="edge39" class="edge">
<title>Node29&#45;&gt;Node13</title>
<path fill="none" stroke="#191970" d="M472.9596,-212.1587C545.0921,-206.0165 668.3578,-192.3477 771,-165 807.0467,-155.3958 812.7584,-142.8404 849,-134 1004.3583,-96.1034 1049.9603,-128.181 1207,-98 1214.95,-96.4721 1223.4212,-94.3056 1231.2401,-92.0753"/>
<polygon fill="#191970" stroke="#191970" points="472.3726,-208.6953 462.6966,-213.0111 472.952,-215.6713 472.3726,-208.6953"/>
</g>
<!-- Node29&#45;&gt;Node18 -->
<g id="edge41" class="edge">
<title>Node29&#45;&gt;Node18</title>
<path fill="none" stroke="#191970" d="M433.7219,-201.1707C466.8987,-177.7594 526.6326,-135.6157 529,-134 550.8473,-119.0901 576.4955,-102.2884 592.2472,-92.0486"/>
<polygon fill="#191970" stroke="#191970" points="431.6763,-198.3305 425.5238,-206.9559 435.7123,-204.0499 431.6763,-198.3305"/>
</g>
<!-- Node29&#45;&gt;Node19 -->
<g id="edge42" class="edge">
<title>Node29&#45;&gt;Node19</title>
<path fill="none" stroke="#191970" d="M443.0196,-202.9496C486.0098,-184.6886 566.5001,-152.3584 638,-134 739.9177,-107.8315 769.2802,-120.8175 872,-98 879.487,-96.3369 887.4703,-94.1996 894.9087,-92.0468"/>
<polygon fill="#191970" stroke="#191970" points="441.4943,-199.7953 433.678,-206.9476 444.2485,-206.2307 441.4943,-199.7953"/>
</g>
<!-- Node29&#45;&gt;Node22 -->
<g id="edge43" class="edge">
<title>Node29&#45;&gt;Node22</title>
<path fill="none" stroke="#191970" d="M351.0971,-211.9625C254.7147,-204.1569 75.9475,-186.8945 57,-165 38.6101,-143.7498 59.9104,-108.9095 72.3194,-92.1283"/>
<polygon fill="#191970" stroke="#191970" points="351.0458,-215.4695 361.293,-212.7779 351.6039,-208.4918 351.0458,-215.4695"/>
</g>
<!-- Node30 -->
<g id="node26" class="node">
<title>Node30</title>
<g id="a_node26"><a xlink:href="util_2shared__cap.html" target="_top" xlink:title="Shared_cap / Shared_del_cap. ">
<polygon fill="#ffffff" stroke="#000000" points="363.5,-140 363.5,-159 476.5,-159 476.5,-140 363.5,-140"/>
<text text-anchor="middle" x="420" y="-147" font-family="Helvetica,sans-Serif" font-size="10.00" fill="#000000">l4/re/util/shared_cap</text>
</a>
</g>
</g>
<!-- Node29&#45;&gt;Node30 -->
<g id="edge32" class="edge">
<title>Node29&#45;&gt;Node30</title>
<path fill="none" stroke="#191970" d="M414.3752,-196.6079C415.855,-184.214 417.6924,-168.8263 418.8559,-159.0817"/>
<polygon fill="#191970" stroke="#191970" points="410.8566,-196.5561 413.1462,-206.9005 417.8072,-197.3861 410.8566,-196.5561"/>
</g>
<!-- Node31 -->
<g id="node27" class="node">
<title>Node31</title>
<g id="a_node27"><a xlink:href="util_2unique__cap.html" target="_top" xlink:title="Unique_cap / Unique_del_cap. ">
<polygon fill="#ffffff" stroke="#000000" points="66,-140 66,-159 176,-159 176,-140 66,-140"/>
<text text-anchor="middle" x="121" y="-147" font-family="Helvetica,sans-Serif" font-size="10.00" fill="#000000">l4/re/util/unique_cap</text>
</a>
</g>
</g>
<!-- Node29&#45;&gt;Node31 -->
<g id="edge34" class="edge">
<title>Node29&#45;&gt;Node31</title>
<path fill="none" stroke="#191970" d="M360.8411,-204.7211C304.4976,-191.7486 214.9744,-171.1367 162.7125,-159.1039"/>
<polygon fill="#191970" stroke="#191970" points="360.0855,-208.1387 370.6158,-206.9717 361.6561,-201.3171 360.0855,-208.1387"/>
</g>
<!-- Node32 -->
<g id="node28" class="node">
<title>Node32</title>
<g id="a_node28"><a xlink:href="br__manager_source.html" target="_top" xlink:title="l4/re/util/br_manager">
<polygon fill="#ffffff" stroke="#000000" points="232.5,-140 232.5,-159 345.5,-159 345.5,-140 232.5,-140"/>
<text text-anchor="middle" x="289" y="-147" font-family="Helvetica,sans-Serif" font-size="10.00" fill="#000000">l4/re/util/br_manager</text>
</a>
</g>
</g>
<!-- Node29&#45;&gt;Node32 -->
<g id="edge40" class="edge">
<title>Node29&#45;&gt;Node32</title>
<path fill="none" stroke="#191970" d="M385.4862,-202.0575C361.619,-189.0567 327.2178,-170.3179 306.5902,-159.0817"/>
<polygon fill="#191970" stroke="#191970" points="383.9212,-205.1906 394.3771,-206.9005 387.2697,-199.0434 383.9212,-205.1906"/>
</g>
<!-- Node30&#45;&gt;Node11 -->
<g id="edge33" class="edge">
<title>Node30&#45;&gt;Node11</title>
<path fill="none" stroke="#191970" d="M405.9297,-132.0423C397.2958,-121.33 386.353,-107.7528 378.1071,-97.5218"/>
<polygon fill="#191970" stroke="#191970" points="403.2627,-134.3109 412.2631,-139.9005 408.7129,-129.9182 403.2627,-134.3109"/>
</g>
<!-- Node31&#45;&gt;Node11 -->
<g id="edge35" class="edge">
<title>Node31&#45;&gt;Node11</title>
<path fill="none" stroke="#191970" d="M165.6337,-137.294C209.3876,-125.3287 275.7783,-107.1729 319.9971,-95.0804"/>
<polygon fill="#191970" stroke="#191970" points="164.5649,-133.9577 155.8423,-139.9717 166.4114,-140.7098 164.5649,-133.9577"/>
</g>
<!-- Node31&#45;&gt;Node12 -->
<g id="edge36" class="edge">
<title>Node31&#45;&gt;Node12</title>
<path fill="none" stroke="#191970" d="M141.877,-133.5142C175.9304,-107.439 242.9666,-56.1085 276.2655,-30.611"/>
<polygon fill="#191970" stroke="#191970" points="139.3974,-131.0046 133.5856,-139.8631 143.6532,-136.5624 139.3974,-131.0046"/>
</g>
<!-- Node31&#45;&gt;Node18 -->
<g id="edge37" class="edge">
<title>Node31&#45;&gt;Node18</title>
<path fill="none" stroke="#191970" d="M186.1689,-139.4232C198.4011,-137.5811 211.0869,-135.7039 223,-134 347.5157,-116.191 495.0182,-96.9202 565.4856,-87.8258"/>
<polygon fill="#191970" stroke="#191970" points="185.3912,-136.0009 176.0275,-140.9577 186.4386,-142.9221 185.3912,-136.0009"/>
</g>
<!-- Node31&#45;&gt;Node22 -->
<g id="edge38" class="edge">
<title>Node31&#45;&gt;Node22</title>
<path fill="none" stroke="#191970" d="M109.7464,-131.1099C102.0173,-118.4795 92.0699,-102.2241 85.8634,-92.0817"/>
<polygon fill="#191970" stroke="#191970" points="106.9206,-133.1977 115.1257,-139.9005 112.8914,-129.544 106.9206,-133.1977"/>
</g>
<!-- Node33&#45;&gt;Node13 -->
<g id="edge63" class="edge">
<title>Node33&#45;&gt;Node13</title>
<path fill="none" stroke="#191970" d="M1397.9089,-332.1026C1369.2289,-279.8152 1287.921,-131.5804 1266.3227,-92.204"/>
<polygon fill="#191970" stroke="#191970" points="1394.8903,-333.8773 1402.7682,-340.9617 1401.0277,-330.5108 1394.8903,-333.8773"/>
</g>
<!-- Node33&#45;&gt;Node18 -->
<g id="edge66" class="edge">
<title>Node33&#45;&gt;Node18</title>
<path fill="none" stroke="#191970" d="M1354.6786,-344.39C1198.2393,-325.4577 744.7967,-263.0817 638,-165 616.5884,-145.3357 609.8835,-109.4161 607.8495,-92.2021"/>
<polygon fill="#191970" stroke="#191970" points="1354.6382,-347.9101 1364.9839,-345.6261 1355.472,-340.96 1354.6382,-347.9101"/>
</g>
<!-- Node34 -->
<g id="node30" class="node">
<title>Node34</title>
<g id="a_node30"><a xlink:href="vfs_8h_source.html" target="_top" xlink:title="l4/l4re_vfs/vfs.h">
<polygon fill="#ffffff" stroke="#000000" points="1475,-274 1475,-293 1565,-293 1565,-274 1475,-274"/>
<text text-anchor="middle" x="1520" y="-281" font-family="Helvetica,sans-Serif" font-size="10.00" fill="#000000">l4/l4re_vfs/vfs.h</text>
</a>
</g>
</g>
<!-- Node33&#45;&gt;Node34 -->
<g id="edge46" class="edge">
<title>Node33&#45;&gt;Node34</title>
<path fill="none" stroke="#191970" d="M1432.7219,-335.711C1454.4288,-322.7256 1485.3662,-304.2184 1503.9829,-293.0817"/>
<polygon fill="#191970" stroke="#191970" points="1430.8318,-332.7632 1424.0469,-340.9005 1434.4254,-338.7704 1430.8318,-332.7632"/>
</g>
<!-- Node41 -->
<g id="node37" class="node">
<title>Node41</title>
<g id="a_node37"><a xlink:href="unique__cap.html" target="_top" xlink:title="Unique_cap / Unique_del_cap. ">
<polygon fill="#ffffff" stroke="#000000" points="1821.5,-207 1821.5,-226 1916.5,-226 1916.5,-207 1821.5,-207"/>
<text text-anchor="middle" x="1869" y="-214" font-family="Helvetica,sans-Serif" font-size="10.00" fill="#000000">l4/re/unique_cap</text>
</a>
</g>
</g>
<!-- Node33&#45;&gt;Node41 -->
<g id="edge60" class="edge">
<title>Node33&#45;&gt;Node41</title>
<path fill="none" stroke="#191970" d="M1461.2448,-346.6805C1548.6888,-339.7963 1718.4612,-323.686 1773,-299 1811.4388,-281.6014 1846.2194,-243.8944 1861.2073,-226.1284"/>
<polygon fill="#191970" stroke="#191970" points="1460.9571,-343.1922 1451.2575,-347.4548 1461.4982,-350.1713 1460.9571,-343.1922"/>
</g>
<!-- Node42 -->
<g id="node38" class="node">
<title>Node42</title>
<g id="a_node38"><a xlink:href="shared__cap.html" target="_top" xlink:title="Shared_cap / Shared_del_cap. ">
<polygon fill="#ffffff" stroke="#000000" points="1666.5,-274 1666.5,-293 1763.5,-293 1763.5,-274 1666.5,-274"/>
<text text-anchor="middle" x="1715" y="-281" font-family="Helvetica,sans-Serif" font-size="10.00" fill="#000000">l4/re/shared_cap</text>
</a>
</g>
</g>
<!-- Node33&#45;&gt;Node42 -->
<g id="edge64" class="edge">
<title>Node33&#45;&gt;Node42</title>
<path fill="none" stroke="#191970" d="M1460.9578,-338.9424C1520.4396,-325.9611 1615.8822,-305.1316 1671.2889,-293.0396"/>
<polygon fill="#191970" stroke="#191970" points="1460.034,-335.5616 1451.0103,-341.1134 1461.5266,-342.4006 1460.034,-335.5616"/>
</g>
<!-- Node35 -->
<g id="node31" class="node">
<title>Node35</title>
<g id="a_node31"><a xlink:href="backend_source.html" target="_top" xlink:title="l4/l4re_vfs/backend">
<polygon fill="#ffffff" stroke="#000000" points="1466,-207 1466,-226 1574,-226 1574,-207 1466,-207"/>
<text text-anchor="middle" x="1520" y="-214" font-family="Helvetica,sans-Serif" font-size="10.00" fill="#000000">l4/l4re_vfs/backend</text>
</a>
</g>
</g>
<!-- Node34&#45;&gt;Node35 -->
<g id="edge47" class="edge">
<title>Node34&#45;&gt;Node35</title>
<path fill="none" stroke="#191970" d="M1520,-263.6079C1520,-251.214 1520,-235.8263 1520,-226.0817"/>
<polygon fill="#191970" stroke="#191970" points="1516.5001,-263.9005 1520,-273.9005 1523.5001,-263.9006 1516.5001,-263.9005"/>
</g>
<!-- Node39 -->
<g id="node35" class="node">
<title>Node39</title>
<g id="a_node35"><a xlink:href="fd__store_8h_source.html" target="_top" xlink:title="l4/l4re_vfs/impl/fd\l_store.h">
<polygon fill="#ffffff" stroke="#000000" points="1613.5,-201.5 1613.5,-231.5 1712.5,-231.5 1712.5,-201.5 1613.5,-201.5"/>
<text text-anchor="start" x="1621.5" y="-219.5" font-family="Helvetica,sans-Serif" font-size="10.00" fill="#000000">l4/l4re_vfs/impl/fd</text>
<text text-anchor="middle" x="1663" y="-208.5" font-family="Helvetica,sans-Serif" font-size="10.00" fill="#000000">_store.h</text>
</a>
</g>
</g>
<!-- Node34&#45;&gt;Node39 -->
<g id="edge57" class="edge">
<title>Node34&#45;&gt;Node39</title>
<path fill="none" stroke="#191970" d="M1549.7079,-269.5809C1573.4324,-258.4653 1606.616,-242.9177 1630.9386,-231.5218"/>
<polygon fill="#191970" stroke="#191970" points="1548.0588,-266.4884 1540.4884,-273.9005 1551.0287,-272.8271 1548.0588,-266.4884"/>
</g>
<!-- Node35&#45;&gt;Node17 -->
<g id="edge56" class="edge">
<title>Node35&#45;&gt;Node17</title>
<path fill="none" stroke="#191970" d="M1536.0446,-199.3435C1545.0751,-189.4901 1556.4258,-176.7705 1566,-165 1584.5464,-142.1991 1604.526,-114.5178 1616.3867,-97.7192"/>
<polygon fill="#191970" stroke="#191970" points="1533.3122,-197.1433 1529.0946,-206.8625 1538.4526,-201.8947 1533.3122,-197.1433"/>
</g>
<!-- Node36 -->
<g id="node32" class="node">
<title>Node36</title>
<g id="a_node32"><a xlink:href="ns__fs_8h_source.html" target="_top" xlink:title="l4/l4re_vfs/impl/ns_fs.h">
<polygon fill="#ffffff" stroke="#000000" points="1807,-140 1807,-159 1931,-159 1931,-140 1807,-140"/>
<text text-anchor="middle" x="1869" y="-147" font-family="Helvetica,sans-Serif" font-size="10.00" fill="#000000">l4/l4re_vfs/impl/ns_fs.h</text>
</a>
</g>
</g>
<!-- Node35&#45;&gt;Node36 -->
<g id="edge48" class="edge">
<title>Node35&#45;&gt;Node36</title>
<path fill="none" stroke="#191970" d="M1579.6997,-205.039C1647.2642,-192.0682 1756.1054,-171.1732 1819.2564,-159.0496"/>
<polygon fill="#191970" stroke="#191970" points="1578.7933,-201.649 1569.6326,-206.9717 1580.1131,-208.5235 1578.7933,-201.649"/>
</g>
<!-- Node37 -->
<g id="node33" class="node">
<title>Node37</title>
<g id="a_node33"><a xlink:href="ro__file_8h_source.html" target="_top" xlink:title="l4/l4re_vfs/impl/ro\l_file.h">
<polygon fill="#ffffff" stroke="#000000" points="1325,-134.5 1325,-164.5 1425,-164.5 1425,-134.5 1325,-134.5"/>
<text text-anchor="start" x="1333" y="-152.5" font-family="Helvetica,sans-Serif" font-size="10.00" fill="#000000">l4/l4re_vfs/impl/ro</text>
<text text-anchor="middle" x="1375" y="-141.5" font-family="Helvetica,sans-Serif" font-size="10.00" fill="#000000">_file.h</text>
</a>
</g>
</g>
<!-- Node35&#45;&gt;Node37 -->
<g id="edge51" class="edge">
<title>Node35&#45;&gt;Node37</title>
<path fill="none" stroke="#191970" d="M1489.8766,-202.5809C1465.8203,-191.4653 1432.1726,-175.9177 1407.5098,-164.5218"/>
<polygon fill="#191970" stroke="#191970" points="1488.6792,-205.8831 1499.225,-206.9005 1491.6154,-199.5287 1488.6792,-205.8831"/>
</g>
<!-- Node38 -->
<g id="node34" class="node">
<title>Node38</title>
<g id="a_node34"><a xlink:href="vcon__stream_8h_source.html" target="_top" xlink:title="l4/l4re_vfs/impl/vcon\l_stream.h">
<polygon fill="#ffffff" stroke="#000000" points="1443.5,-134.5 1443.5,-164.5 1556.5,-164.5 1556.5,-134.5 1443.5,-134.5"/>
<text text-anchor="start" x="1451.5" y="-152.5" font-family="Helvetica,sans-Serif" font-size="10.00" fill="#000000">l4/l4re_vfs/impl/vcon</text>
<text text-anchor="middle" x="1500" y="-141.5" font-family="Helvetica,sans-Serif" font-size="10.00" fill="#000000">_stream.h</text>
</a>
</g>
</g>
<!-- Node35&#45;&gt;Node38 -->
<g id="edge53" class="edge">
<title>Node35&#45;&gt;Node38</title>
<path fill="none" stroke="#191970" d="M1514.2102,-197.1042C1511.113,-186.7287 1507.3567,-174.145 1504.4841,-164.5218"/>
<polygon fill="#191970" stroke="#191970" points="1510.9203,-198.3195 1517.1345,-206.9005 1517.6278,-196.3172 1510.9203,-198.3195"/>
</g>
<!-- Node36&#45;&gt;Node14 -->
<g id="edge49" class="edge">
<title>Node36&#45;&gt;Node14</title>
<path fill="none" stroke="#191970" d="M1869,-129.6918C1869,-102.6902 1869,-54.915 1869,-30.611"/>
<polygon fill="#191970" stroke="#191970" points="1865.5001,-129.863 1869,-139.8631 1872.5001,-129.8631 1865.5001,-129.863"/>
</g>
<!-- Node36&#45;&gt;Node17 -->
<g id="edge50" class="edge">
<title>Node36&#45;&gt;Node17</title>
<path fill="none" stroke="#191970" d="M1824.8567,-137.2785C1783.7824,-125.9067 1722.547,-108.9531 1679.0945,-96.9229"/>
<polygon fill="#191970" stroke="#191970" points="1824.0129,-140.6765 1834.5843,-139.9717 1825.8807,-133.9303 1824.0129,-140.6765"/>
</g>
<!-- Node37&#45;&gt;Node15 -->
<g id="edge52" class="edge">
<title>Node37&#45;&gt;Node15</title>
<path fill="none" stroke="#191970" d="M1375,-124.0249C1375,-115.128 1375,-105.4287 1375,-97.6432"/>
<polygon fill="#191970" stroke="#191970" points="1371.5001,-124.2966 1375,-134.2967 1378.5001,-124.2967 1371.5001,-124.2966"/>
</g>
<!-- Node38&#45;&gt;Node16 -->
<g id="edge54" class="edge">
<title>Node38&#45;&gt;Node16</title>
<path fill="none" stroke="#191970" d="M1500,-124.0249C1500,-115.128 1500,-105.4287 1500,-97.6432"/>
<polygon fill="#191970" stroke="#191970" points="1496.5001,-124.2966 1500,-134.2967 1503.5001,-124.2967 1496.5001,-124.2966"/>
</g>
<!-- Node38&#45;&gt;Node17 -->
<g id="edge55" class="edge">
<title>Node38&#45;&gt;Node17</title>
<path fill="none" stroke="#191970" d="M1537.3905,-129.7743C1556.8022,-119.5335 1580.1556,-107.2132 1598.1544,-97.7177"/>
<polygon fill="#191970" stroke="#191970" points="1535.7128,-126.7021 1528.5013,-134.4639 1538.9791,-132.8934 1535.7128,-126.7021"/>
</g>
<!-- Node39&#45;&gt;Node17 -->
<g id="edge59" class="edge">
<title>Node39&#45;&gt;Node17</title>
<path fill="none" stroke="#191970" d="M1696.9206,-195.2875C1706.8989,-187.1522 1716.5844,-176.9157 1722,-165 1727.7007,-152.4569 1729.0484,-145.8384 1722,-134 1712.0186,-117.2353 1694.4684,-105.5925 1677.1463,-97.6767"/>
<polygon fill="#191970" stroke="#191970" points="1694.7794,-192.5186 1688.9313,-201.3533 1699.0123,-198.0938 1694.7794,-192.5186"/>
</g>
<!-- Node40 -->
<g id="node36" class="node">
<title>Node40</title>
<g id="a_node36"><a xlink:href="fd__store__impl_8h_source.html" target="_top" xlink:title="l4/l4re_vfs/impl/fd\l_store_impl.h">
<polygon fill="#ffffff" stroke="#000000" points="1613.5,-134.5 1613.5,-164.5 1712.5,-164.5 1712.5,-134.5 1613.5,-134.5"/>
<text text-anchor="start" x="1621.5" y="-152.5" font-family="Helvetica,sans-Serif" font-size="10.00" fill="#000000">l4/l4re_vfs/impl/fd</text>
<text text-anchor="middle" x="1663" y="-141.5" font-family="Helvetica,sans-Serif" font-size="10.00" fill="#000000">_store_impl.h</text>
</a>
</g>
</g>
<!-- Node39&#45;&gt;Node40 -->
<g id="edge58" class="edge">
<title>Node39&#45;&gt;Node40</title>
<path fill="none" stroke="#191970" d="M1663,-191.0249C1663,-182.128 1663,-172.4287 1663,-164.6432"/>
<polygon fill="#191970" stroke="#191970" points="1659.5001,-191.2966 1663,-201.2967 1666.5001,-191.2967 1659.5001,-191.2966"/>
</g>
<!-- Node41&#45;&gt;Node14 -->
<g id="edge62" class="edge">
<title>Node41&#45;&gt;Node14</title>
<path fill="none" stroke="#191970" d="M1900.7656,-202.1382C1915.5573,-193.6276 1931.6924,-181.2889 1940,-165 1946.2598,-152.7263 1943.6736,-147.279 1940,-134 1928.6814,-93.0869 1899.0733,-52.1009 1881.8774,-30.701"/>
<polygon fill="#191970" stroke="#191970" points="1898.9676,-199.1309 1891.8113,-206.9436 1902.2777,-205.2988 1898.9676,-199.1309"/>
</g>
<!-- Node41&#45;&gt;Node36 -->
<g id="edge61" class="edge">
<title>Node41&#45;&gt;Node36</title>
<path fill="none" stroke="#191970" d="M1869,-196.6079C1869,-184.214 1869,-168.8263 1869,-159.0817"/>
<polygon fill="#191970" stroke="#191970" points="1865.5001,-196.9005 1869,-206.9005 1872.5001,-196.9006 1865.5001,-196.9005"/>
</g>
<!-- Node42&#45;&gt;Node17 -->
<g id="edge65" class="edge">
<title>Node42&#45;&gt;Node17</title>
<path fill="none" stroke="#191970" d="M1725.3395,-264.8673C1740.4694,-234.8376 1764.1533,-174.9653 1738,-134 1724.9108,-113.4977 1701.3251,-101.0329 1679.2509,-93.5173"/>
<polygon fill="#191970" stroke="#191970" points="1722.1792,-263.3573 1720.6208,-273.8369 1728.3742,-266.6164 1722.1792,-263.3573"/>
</g>
</g>
</svg>
