<?xml version="1.0" encoding="UTF-8" standalone="no"?>
<!DOCTYPE svg PUBLIC "-//W3C//DTD SVG 1.1//EN"
 "http://www.w3.org/Graphics/SVG/1.1/DTD/svg11.dtd">
<!-- Generated by graphviz version 2.40.1 (20161225.0304)
 -->
<!-- Title: l4/cxx/atomic.h Pages: 1 -->
<svg width="196pt" height="196pt"
 viewBox="0.00 0.00 195.50 196.00" xmlns="http://www.w3.org/2000/svg" xmlns:xlink="http://www.w3.org/1999/xlink">
<g id="graph0" class="graph" transform="scale(1 1) rotate(0) translate(4 192)">
<title>l4/cxx/atomic.h</title>
<polygon fill="#ffffff" stroke="transparent" points="-4,4 -4,-192 191.5,-192 191.5,4 -4,4"/>
<!-- Node0 -->
<g id="node1" class="node">
<title>Node0</title>
<polygon fill="#bfbfbf" stroke="#000000" points="45,-168.5 45,-187.5 131,-187.5 131,-168.5 45,-168.5"/>
<text text-anchor="middle" x="88" y="-175.5" font-family="Helvetica,sans-Serif" font-size="10.00" fill="#000000">l4/cxx/atomic.h</text>
</g>
<!-- Node1 -->
<g id="node2" class="node">
<title>Node1</title>
<g id="a_node2"><a xlink:href="l4_2util_2atomic_8h.html" target="_top" xlink:title="atomic operations header and generic implementations ">
<polygon fill="#ffffff" stroke="#000000" points="46.5,-112.5 46.5,-131.5 129.5,-131.5 129.5,-112.5 46.5,-112.5"/>
<text text-anchor="middle" x="88" y="-119.5" font-family="Helvetica,sans-Serif" font-size="10.00" fill="#000000">l4/util/atomic.h</text>
</a>
</g>
</g>
<!-- Node0&#45;&gt;Node1 -->
<g id="edge1" class="edge">
<title>Node0&#45;&gt;Node1</title>
<path fill="none" stroke="#191970" d="M88,-168.2455C88,-160.9382 88,-150.6944 88,-141.7046"/>
<polygon fill="#191970" stroke="#191970" points="91.5001,-141.6426 88,-131.6427 84.5001,-141.6427 91.5001,-141.6426"/>
</g>
<!-- Node2 -->
<g id="node3" class="node">
<title>Node2</title>
<g id="a_node3"><a xlink:href="l4_2sys_2l4int_8h.html" target="_top" xlink:title="Fixed sized integer types, generic version. ">
<polygon fill="#ffffff" stroke="#000000" points="0,-56.5 0,-75.5 74,-75.5 74,-56.5 0,-56.5"/>
<text text-anchor="middle" x="37" y="-63.5" font-family="Helvetica,sans-Serif" font-size="10.00" fill="#000000">l4/sys/l4int.h</text>
</a>
</g>
</g>
<!-- Node1&#45;&gt;Node2 -->
<g id="edge2" class="edge">
<title>Node1&#45;&gt;Node2</title>
<path fill="none" stroke="#191970" d="M79.1165,-112.2455C71.8034,-104.2155 61.2609,-92.6394 52.5533,-83.0781"/>
<polygon fill="#191970" stroke="#191970" points="55.1028,-80.6795 45.7817,-75.6427 49.9273,-85.3928 55.1028,-80.6795"/>
</g>
<!-- Node3 -->
<g id="node4" class="node">
<title>Node3</title>
<g id="a_node4"><a xlink:href="compiler_8h.html" target="_top" xlink:title="L4 compiler related defines. ">
<polygon fill="#ffffff" stroke="#000000" points="92.5,-56.5 92.5,-75.5 187.5,-75.5 187.5,-56.5 92.5,-56.5"/>
<text text-anchor="middle" x="140" y="-63.5" font-family="Helvetica,sans-Serif" font-size="10.00" fill="#000000">l4/sys/compiler.h</text>
</a>
</g>
</g>
<!-- Node1&#45;&gt;Node3 -->
<g id="edge3" class="edge">
<title>Node1&#45;&gt;Node3</title>
<path fill="none" stroke="#191970" d="M97.0577,-112.2455C104.5142,-104.2155 115.2634,-92.6394 124.1417,-83.0781"/>
<polygon fill="#191970" stroke="#191970" points="126.8063,-85.3522 131.0461,-75.6427 121.6768,-80.589 126.8063,-85.3522"/>
</g>
<!-- Node4 -->
<g id="node5" class="node">
<title>Node4</title>
<polygon fill="#ffffff" stroke="#bfbfbf" points="95.5,-.5 95.5,-19.5 184.5,-19.5 184.5,-.5 95.5,-.5"/>
<text text-anchor="middle" x="140" y="-7.5" font-family="Helvetica,sans-Serif" font-size="10.00" fill="#000000">l4/sys/linkage.h</text>
</g>
<!-- Node3&#45;&gt;Node4 -->
<g id="edge4" class="edge">
<title>Node3&#45;&gt;Node4</title>
<path fill="none" stroke="#191970" d="M140,-56.2455C140,-48.9382 140,-38.6944 140,-29.7046"/>
<polygon fill="#191970" stroke="#191970" points="143.5001,-29.6426 140,-19.6427 136.5001,-29.6427 143.5001,-29.6426"/>
</g>
</g>
</svg>
