<?xml version="1.0" encoding="UTF-8" standalone="no"?>
<!DOCTYPE svg PUBLIC "-//W3C//DTD SVG 1.1//EN"
 "http://www.w3.org/Graphics/SVG/1.1/DTD/svg11.dtd">
<!-- Generated by graphviz version 2.40.1 (20161225.0304)
 -->
<!-- Title: l4/util/lock.h Pages: 1 -->
<svg width="614pt" height="420pt"
 viewBox="0.00 0.00 613.52 420.00" xmlns="http://www.w3.org/2000/svg" xmlns:xlink="http://www.w3.org/1999/xlink">
<g id="graph0" class="graph" transform="scale(1 1) rotate(0) translate(4 416)">
<title>l4/util/lock.h</title>
<polygon fill="#ffffff" stroke="transparent" points="-4,4 -4,-416 609.5198,-416 609.5198,4 -4,4"/>
<!-- Node0 -->
<g id="node1" class="node">
<title>Node0</title>
<polygon fill="#bfbfbf" stroke="#000000" points="88.5,-392.5 88.5,-411.5 159.5,-411.5 159.5,-392.5 88.5,-392.5"/>
<text text-anchor="middle" x="124" y="-399.5" font-family="Helvetica,sans-Serif" font-size="10.00" fill="#000000">l4/util/lock.h</text>
</g>
<!-- Node1 -->
<g id="node2" class="node">
<title>Node1</title>
<g id="a_node2"><a xlink:href="l4_2sys_2thread_8h.html" target="_top" xlink:title="Common thread related definitions. ">
<polygon fill="#ffffff" stroke="#000000" points="202,-336.5 202,-355.5 288,-355.5 288,-336.5 202,-336.5"/>
<text text-anchor="middle" x="245" y="-343.5" font-family="Helvetica,sans-Serif" font-size="10.00" fill="#000000">l4/sys/thread.h</text>
</a>
</g>
</g>
<!-- Node0&#45;&gt;Node1 -->
<g id="edge1" class="edge">
<title>Node0&#45;&gt;Node1</title>
<path fill="none" stroke="#191970" d="M144.8006,-392.3733C164.2243,-383.3838 193.4224,-369.8706 215.2964,-359.7471"/>
<polygon fill="#191970" stroke="#191970" points="216.8656,-362.8776 224.4708,-355.5011 213.9255,-356.5249 216.8656,-362.8776"/>
</g>
<!-- Node4 -->
<g id="node5" class="node">
<title>Node4</title>
<g id="a_node5"><a xlink:href="compiler_8h.html" target="_top" xlink:title="L4 compiler related defines. ">
<polygon fill="#ffffff" stroke="#000000" points="130.5,-56.5 130.5,-75.5 225.5,-75.5 225.5,-56.5 130.5,-56.5"/>
<text text-anchor="middle" x="178" y="-63.5" font-family="Helvetica,sans-Serif" font-size="10.00" fill="#000000">l4/sys/compiler.h</text>
</a>
</g>
</g>
<!-- Node0&#45;&gt;Node4 -->
<g id="edge22" class="edge">
<title>Node0&#45;&gt;Node4</title>
<path fill="none" stroke="#191970" d="M98.6075,-392.4421C62.3297,-376.9427 0,-342.6516 0,-290 0,-290 0,-290 0,-178 0,-120.032 68.4642,-90.8873 120.4716,-77.1105"/>
<polygon fill="#191970" stroke="#191970" points="121.4573,-80.4716 130.2993,-74.6347 119.7472,-73.6837 121.4573,-80.4716"/>
</g>
<!-- Node12 -->
<g id="node13" class="node">
<title>Node12</title>
<g id="a_node13"><a xlink:href="l4_2util_2atomic_8h.html" target="_top" xlink:title="atomic operations header and generic implementations ">
<polygon fill="#ffffff" stroke="#000000" points="66.5,-112.5 66.5,-131.5 149.5,-131.5 149.5,-112.5 66.5,-112.5"/>
<text text-anchor="middle" x="108" y="-119.5" font-family="Helvetica,sans-Serif" font-size="10.00" fill="#000000">l4/util/atomic.h</text>
</a>
</g>
</g>
<!-- Node0&#45;&gt;Node12 -->
<g id="edge23" class="edge">
<title>Node0&#45;&gt;Node12</title>
<path fill="none" stroke="#191970" d="M124,-392.4116C124,-373.0538 124,-327.9167 124,-290 124,-290 124,-290 124,-234 124,-201.2342 117.2061,-163.6134 112.4725,-141.3778"/>
<polygon fill="#191970" stroke="#191970" points="115.8698,-140.5307 110.2924,-131.5228 109.0351,-142.0428 115.8698,-140.5307"/>
</g>
<!-- Node2 -->
<g id="node3" class="node">
<title>Node2</title>
<g id="a_node3"><a xlink:href="l4_2sys_2types_8h.html" target="_top" xlink:title="Common L4 ABI Data Types. ">
<polygon fill="#ffffff" stroke="#000000" points="302,-168.5 302,-187.5 382,-187.5 382,-168.5 302,-168.5"/>
<text text-anchor="middle" x="342" y="-175.5" font-family="Helvetica,sans-Serif" font-size="10.00" fill="#000000">l4/sys/types.h</text>
</a>
</g>
</g>
<!-- Node1&#45;&gt;Node2 -->
<g id="edge2" class="edge">
<title>Node1&#45;&gt;Node2</title>
<path fill="none" stroke="#191970" d="M254.3371,-336.4296C270.5648,-319.2928 304.0473,-281.6297 323,-244 330.375,-229.3573 335.3088,-211.404 338.2963,-197.9206"/>
<polygon fill="#191970" stroke="#191970" points="341.788,-198.3146 340.3589,-187.8166 334.9294,-196.9145 341.788,-198.3146"/>
</g>
<!-- Node9 -->
<g id="node10" class="node">
<title>Node9</title>
<g id="a_node10"><a xlink:href="l4_2sys_2utcb_8h.html" target="_top" xlink:title="UTCB definitions. ">
<polygon fill="#ffffff" stroke="#000000" points="240,-224.5 240,-243.5 314,-243.5 314,-224.5 240,-224.5"/>
<text text-anchor="middle" x="277" y="-231.5" font-family="Helvetica,sans-Serif" font-size="10.00" fill="#000000">l4/sys/utcb.h</text>
</a>
</g>
</g>
<!-- Node1&#45;&gt;Node9 -->
<g id="edge13" class="edge">
<title>Node1&#45;&gt;Node9</title>
<path fill="none" stroke="#191970" d="M247.7283,-336.4509C252.9711,-318.1013 264.5455,-277.5908 271.4659,-253.3693"/>
<polygon fill="#191970" stroke="#191970" points="274.8967,-254.1017 274.2786,-243.5249 268.166,-252.1786 274.8967,-254.1017"/>
</g>
<!-- Node10 -->
<g id="node11" class="node">
<title>Node10</title>
<g id="a_node11"><a xlink:href="l4_2sys_2ipc_8h.html" target="_top" xlink:title="Common IPC interface. ">
<polygon fill="#ffffff" stroke="#000000" points="179,-280.5 179,-299.5 247,-299.5 247,-280.5 179,-280.5"/>
<text text-anchor="middle" x="213" y="-287.5" font-family="Helvetica,sans-Serif" font-size="10.00" fill="#000000">l4/sys/ipc.h</text>
</a>
</g>
</g>
<!-- Node1&#45;&gt;Node10 -->
<g id="edge17" class="edge">
<title>Node1&#45;&gt;Node10</title>
<path fill="none" stroke="#191970" d="M239.426,-336.2455C235.0669,-328.617 228.8789,-317.7881 223.5867,-308.5267"/>
<polygon fill="#191970" stroke="#191970" points="226.5104,-306.5886 218.5101,-299.6427 220.4327,-310.0616 226.5104,-306.5886"/>
</g>
<!-- Node3 -->
<g id="node4" class="node">
<title>Node3</title>
<g id="a_node4"><a xlink:href="l4_2sys_2l4int_8h.html" target="_top" xlink:title="Fixed sized integer types, generic version. ">
<polygon fill="#ffffff" stroke="#000000" points="488,-56.5 488,-75.5 562,-75.5 562,-56.5 488,-56.5"/>
<text text-anchor="middle" x="525" y="-63.5" font-family="Helvetica,sans-Serif" font-size="10.00" fill="#000000">l4/sys/l4int.h</text>
</a>
</g>
</g>
<!-- Node2&#45;&gt;Node3 -->
<g id="edge3" class="edge">
<title>Node2&#45;&gt;Node3</title>
<path fill="none" stroke="#191970" d="M382.1119,-176.3914C444.3554,-172.9592 559.6965,-162.5429 585,-132 600.1083,-113.7634 575.7538,-93.7622 553.6937,-80.6126"/>
<polygon fill="#191970" stroke="#191970" points="555.2425,-77.4676 544.8154,-75.5902 551.7959,-83.5603 555.2425,-77.4676"/>
</g>
<!-- Node2&#45;&gt;Node4 -->
<g id="edge4" class="edge">
<title>Node2&#45;&gt;Node4</title>
<path fill="none" stroke="#191970" d="M341.929,-168.0694C341.2823,-153.7607 337.9709,-127.3791 323,-112 310.2447,-98.8969 268.8598,-86.5094 233.5515,-77.8976"/>
<polygon fill="#191970" stroke="#191970" points="234.3216,-74.4831 223.7828,-75.5712 232.6999,-81.2927 234.3216,-74.4831"/>
</g>
<!-- Node6 -->
<g id="node7" class="node">
<title>Node6</title>
<g id="a_node7"><a xlink:href="l4_2sys_2consts_8h.html" target="_top" xlink:title="Common constants. ">
<polygon fill="#ffffff" stroke="#000000" points="370,-112.5 370,-131.5 456,-131.5 456,-112.5 370,-112.5"/>
<text text-anchor="middle" x="413" y="-119.5" font-family="Helvetica,sans-Serif" font-size="10.00" fill="#000000">l4/sys/consts.h</text>
</a>
</g>
</g>
<!-- Node2&#45;&gt;Node6 -->
<g id="edge6" class="edge">
<title>Node2&#45;&gt;Node6</title>
<path fill="none" stroke="#191970" d="M354.3673,-168.2455C364.9554,-159.8943 380.4064,-147.7076 392.7893,-137.9408"/>
<polygon fill="#191970" stroke="#191970" points="395.0903,-140.5837 400.7745,-131.6427 390.7553,-135.0875 395.0903,-140.5837"/>
</g>
<!-- Node7 -->
<g id="node8" class="node">
<title>Node7</title>
<g id="a_node8"><a xlink:href="____l4__fpage_8h_source.html" target="_top" xlink:title="l4/sys/__l4_fpage.h">
<polygon fill="#ffffff" stroke="#000000" points="206,-112.5 206,-131.5 314,-131.5 314,-112.5 206,-112.5"/>
<text text-anchor="middle" x="260" y="-119.5" font-family="Helvetica,sans-Serif" font-size="10.00" fill="#000000">l4/sys/__l4_fpage.h</text>
</a>
</g>
</g>
<!-- Node2&#45;&gt;Node7 -->
<g id="edge9" class="edge">
<title>Node2&#45;&gt;Node7</title>
<path fill="none" stroke="#191970" d="M327.7167,-168.2455C315.253,-159.7337 296.9549,-147.2375 282.5208,-137.3801"/>
<polygon fill="#191970" stroke="#191970" points="284.3515,-134.392 274.1196,-131.6427 280.4038,-140.1726 284.3515,-134.392"/>
</g>
<!-- Node8 -->
<g id="node9" class="node">
<title>Node8</title>
<g id="a_node9"><a xlink:href="____timeout_8h_source.html" target="_top" xlink:title="l4/sys/__timeout.h">
<polygon fill="#ffffff" stroke="#000000" points="474.5,-112.5 474.5,-131.5 575.5,-131.5 575.5,-112.5 474.5,-112.5"/>
<text text-anchor="middle" x="525" y="-119.5" font-family="Helvetica,sans-Serif" font-size="10.00" fill="#000000">l4/sys/__timeout.h</text>
</a>
</g>
</g>
<!-- Node2&#45;&gt;Node8 -->
<g id="edge11" class="edge">
<title>Node2&#45;&gt;Node8</title>
<path fill="none" stroke="#191970" d="M373.4588,-168.3733C404.0207,-159.021 450.5826,-144.7725 484.0261,-134.5385"/>
<polygon fill="#191970" stroke="#191970" points="485.4136,-137.7742 493.9517,-131.5011 483.3652,-131.0806 485.4136,-137.7742"/>
</g>
<!-- Node5 -->
<g id="node6" class="node">
<title>Node5</title>
<polygon fill="#ffffff" stroke="#bfbfbf" points="133.5,-.5 133.5,-19.5 222.5,-19.5 222.5,-.5 133.5,-.5"/>
<text text-anchor="middle" x="178" y="-7.5" font-family="Helvetica,sans-Serif" font-size="10.00" fill="#000000">l4/sys/linkage.h</text>
</g>
<!-- Node4&#45;&gt;Node5 -->
<g id="edge5" class="edge">
<title>Node4&#45;&gt;Node5</title>
<path fill="none" stroke="#191970" d="M178,-56.2455C178,-48.9382 178,-38.6944 178,-29.7046"/>
<polygon fill="#191970" stroke="#191970" points="181.5001,-29.6426 178,-19.6427 174.5001,-29.6427 181.5001,-29.6426"/>
</g>
<!-- Node6&#45;&gt;Node3 -->
<g id="edge8" class="edge">
<title>Node6&#45;&gt;Node3</title>
<path fill="none" stroke="#191970" d="M432.2535,-112.3733C450.0712,-103.4644 476.7747,-90.1127 496.9594,-80.0203"/>
<polygon fill="#191970" stroke="#191970" points="498.6187,-83.1038 505.9978,-75.5011 495.4882,-76.8428 498.6187,-83.1038"/>
</g>
<!-- Node6&#45;&gt;Node4 -->
<g id="edge7" class="edge">
<title>Node6&#45;&gt;Node4</title>
<path fill="none" stroke="#191970" d="M372.8691,-112.4369C332.7351,-102.8731 270.9225,-88.1432 227.7067,-77.845"/>
<polygon fill="#191970" stroke="#191970" points="228.5044,-74.4372 217.9654,-75.5237 226.8817,-81.2465 228.5044,-74.4372"/>
</g>
<!-- Node7&#45;&gt;Node4 -->
<g id="edge10" class="edge">
<title>Node7&#45;&gt;Node4</title>
<path fill="none" stroke="#191970" d="M245.7167,-112.2455C233.253,-103.7337 214.9549,-91.2375 200.5208,-81.3801"/>
<polygon fill="#191970" stroke="#191970" points="202.3515,-78.392 192.1196,-75.6427 198.4038,-84.1726 202.3515,-78.392"/>
</g>
<!-- Node8&#45;&gt;Node3 -->
<g id="edge12" class="edge">
<title>Node8&#45;&gt;Node3</title>
<path fill="none" stroke="#191970" d="M525,-112.2455C525,-104.9382 525,-94.6944 525,-85.7046"/>
<polygon fill="#191970" stroke="#191970" points="528.5001,-85.6426 525,-75.6427 521.5001,-85.6427 528.5001,-85.6426"/>
</g>
<!-- Node9&#45;&gt;Node2 -->
<g id="edge14" class="edge">
<title>Node9&#45;&gt;Node2</title>
<path fill="none" stroke="#191970" d="M288.3221,-224.2455C297.9223,-215.9746 311.8892,-203.9416 323.1695,-194.2232"/>
<polygon fill="#191970" stroke="#191970" points="325.516,-196.8214 330.8076,-187.6427 320.947,-191.5182 325.516,-196.8214"/>
</g>
<!-- Node9&#45;&gt;Node3 -->
<g id="edge16" class="edge">
<title>Node9&#45;&gt;Node3</title>
<path fill="none" stroke="#191970" d="M314.0397,-227.9143C391.534,-214.3474 566.4679,-179.0741 601,-132 616.5799,-110.7614 587.4669,-91.6528 560.8887,-79.5286"/>
<polygon fill="#191970" stroke="#191970" points="562.2385,-76.299 551.6709,-75.5393 559.4582,-82.7232 562.2385,-76.299"/>
</g>
<!-- Node9&#45;&gt;Node4 -->
<g id="edge15" class="edge">
<title>Node9&#45;&gt;Node4</title>
<path fill="none" stroke="#191970" d="M267.4086,-224.4791C250.7415,-207.4189 216.3658,-169.8706 197,-132 189.5354,-117.4028 184.6082,-99.4461 181.6461,-85.9498"/>
<polygon fill="#191970" stroke="#191970" points="185.0141,-84.9452 179.6075,-75.8337 178.152,-86.328 185.0141,-84.9452"/>
</g>
<!-- Node10&#45;&gt;Node2 -->
<g id="edge18" class="edge">
<title>Node10&#45;&gt;Node2</title>
<path fill="none" stroke="#191970" d="M213.0813,-280.2449C213.7114,-266.1548 216.8699,-240.0428 231,-224 246.7824,-206.0811 270.6439,-194.9897 292.2039,-188.2028"/>
<polygon fill="#191970" stroke="#191970" points="293.2868,-191.5329 301.9106,-185.3783 291.3309,-184.8117 293.2868,-191.5329"/>
</g>
<!-- Node10&#45;&gt;Node9 -->
<g id="edge19" class="edge">
<title>Node10&#45;&gt;Node9</title>
<path fill="none" stroke="#191970" d="M224.1479,-280.2455C233.5087,-272.0549 247.0858,-260.1749 258.1349,-250.5069"/>
<polygon fill="#191970" stroke="#191970" points="260.7588,-252.8618 265.9798,-243.6427 256.1492,-247.5937 260.7588,-252.8618"/>
</g>
<!-- Node11 -->
<g id="node12" class="node">
<title>Node11</title>
<g id="a_node12"><a xlink:href="err_8h.html" target="_top" xlink:title="Error codes. ">
<polygon fill="#ffffff" stroke="#000000" points="28,-168.5 28,-187.5 96,-187.5 96,-168.5 28,-168.5"/>
<text text-anchor="middle" x="62" y="-175.5" font-family="Helvetica,sans-Serif" font-size="10.00" fill="#000000">l4/sys/err.h</text>
</a>
</g>
</g>
<!-- Node10&#45;&gt;Node11 -->
<g id="edge20" class="edge">
<title>Node10&#45;&gt;Node11</title>
<path fill="none" stroke="#191970" d="M200.1258,-280.4509C174.0493,-261.1094 114.7779,-217.1465 83.0192,-193.5904"/>
<polygon fill="#191970" stroke="#191970" points="84.9585,-190.6712 74.8416,-187.5249 80.7883,-196.2934 84.9585,-190.6712"/>
</g>
<!-- Node11&#45;&gt;Node4 -->
<g id="edge21" class="edge">
<title>Node11&#45;&gt;Node4</title>
<path fill="none" stroke="#191970" d="M57.6562,-168.042C52.3409,-154.1691 45.3874,-128.8382 57,-112 65.7408,-99.326 99.7848,-87.042 129.5436,-78.3609"/>
<polygon fill="#191970" stroke="#191970" points="130.7618,-81.6536 139.4287,-75.5596 128.8533,-74.9188 130.7618,-81.6536"/>
</g>
<!-- Node12&#45;&gt;Node3 -->
<g id="edge24" class="edge">
<title>Node12&#45;&gt;Node3</title>
<path fill="none" stroke="#191970" d="M149.5081,-116.4258C227.543,-105.9463 395.6423,-83.3718 477.8256,-72.3352"/>
<polygon fill="#191970" stroke="#191970" points="478.4401,-75.7842 487.8852,-70.9842 477.5083,-68.8464 478.4401,-75.7842"/>
</g>
<!-- Node12&#45;&gt;Node4 -->
<g id="edge25" class="edge">
<title>Node12&#45;&gt;Node4</title>
<path fill="none" stroke="#191970" d="M120.1931,-112.2455C130.6321,-103.8943 145.8655,-91.7076 158.074,-81.9408"/>
<polygon fill="#191970" stroke="#191970" points="160.3244,-84.6227 165.9467,-75.6427 155.9515,-79.1566 160.3244,-84.6227"/>
</g>
</g>
</svg>
