<?xml version="1.0" encoding="UTF-8" standalone="no"?>
<!DOCTYPE svg PUBLIC "-//W3C//DTD SVG 1.1//EN"
 "http://www.w3.org/Graphics/SVG/1.1/DTD/svg11.dtd">
<!-- Generated by graphviz version 2.40.1 (20161225.0304)
 -->
<!-- Title: l4/re/log Pages: 1 -->
<svg width="1022pt" height="991pt"
 viewBox="0.00 0.00 1022.00 991.00" xmlns="http://www.w3.org/2000/svg" xmlns:xlink="http://www.w3.org/1999/xlink">
<g id="graph0" class="graph" transform="scale(1 1) rotate(0) translate(4 987)">
<title>l4/re/log</title>
<polygon fill="#ffffff" stroke="transparent" points="-4,4 -4,-987 1018,-987 1018,4 -4,4"/>
<!-- Node0 -->
<g id="node1" class="node">
<title>Node0</title>
<polygon fill="#bfbfbf" stroke="#000000" points="523.5,-963.5 523.5,-982.5 578.5,-982.5 578.5,-963.5 523.5,-963.5"/>
<text text-anchor="middle" x="551" y="-970.5" font-family="Helvetica,sans-Serif" font-size="10.00" fill="#000000">l4/re/log</text>
</g>
<!-- Node1 -->
<g id="node2" class="node">
<title>Node1</title>
<g id="a_node2"><a xlink:href="vcon.html" target="_top" xlink:title="Virtual console interface. ">
<polygon fill="#ffffff" stroke="#000000" points="516.5,-907.5 516.5,-926.5 585.5,-926.5 585.5,-907.5 516.5,-907.5"/>
<text text-anchor="middle" x="551" y="-914.5" font-family="Helvetica,sans-Serif" font-size="10.00" fill="#000000">l4/sys/vcon</text>
</a>
</g>
</g>
<!-- Node0&#45;&gt;Node1 -->
<g id="edge1" class="edge">
<title>Node0&#45;&gt;Node1</title>
<path fill="none" stroke="#191970" d="M551,-963.2455C551,-955.9382 551,-945.6944 551,-936.7046"/>
<polygon fill="#191970" stroke="#191970" points="554.5001,-936.6426 551,-926.6427 547.5001,-936.6427 554.5001,-936.6426"/>
</g>
<!-- Node2 -->
<g id="node3" class="node">
<title>Node2</title>
<g id="a_node3"><a xlink:href="icu.html" target="_top" xlink:title="Interrupt controller. ">
<polygon fill="#ffffff" stroke="#000000" points="521.5,-851.5 521.5,-870.5 580.5,-870.5 580.5,-851.5 521.5,-851.5"/>
<text text-anchor="middle" x="551" y="-858.5" font-family="Helvetica,sans-Serif" font-size="10.00" fill="#000000">l4/sys/icu</text>
</a>
</g>
</g>
<!-- Node1&#45;&gt;Node2 -->
<g id="edge2" class="edge">
<title>Node1&#45;&gt;Node2</title>
<path fill="none" stroke="#191970" d="M551,-907.2455C551,-899.9382 551,-889.6944 551,-880.7046"/>
<polygon fill="#191970" stroke="#191970" points="554.5001,-880.6426 551,-870.6427 547.5001,-880.6427 554.5001,-880.6426"/>
</g>
<!-- Node19 -->
<g id="node20" class="node">
<title>Node19</title>
<g id="a_node20"><a xlink:href="capability.html" target="_top" xlink:title="L4::Cap related definitions. ">
<polygon fill="#ffffff" stroke="#000000" points="352,-683.5 352,-702.5 442,-702.5 442,-683.5 352,-683.5"/>
<text text-anchor="middle" x="397" y="-690.5" font-family="Helvetica,sans-Serif" font-size="10.00" fill="#000000">l4/sys/capability</text>
</a>
</g>
</g>
<!-- Node1&#45;&gt;Node19 -->
<g id="edge82" class="edge">
<title>Node1&#45;&gt;Node19</title>
<path fill="none" stroke="#191970" d="M527.8532,-907.3491C483.3346,-887.3448 386.8427,-836.6436 349,-759 339.9081,-740.3457 356.9327,-721.4323 373.1652,-708.6627"/>
<polygon fill="#191970" stroke="#191970" points="375.4559,-711.3227 381.439,-702.579 371.3091,-705.6832 375.4559,-711.3227"/>
</g>
<!-- Node32 -->
<g id="node33" class="node">
<title>Node32</title>
<g id="a_node33"><a xlink:href="vcon_8h.html" target="_top" xlink:title="Virtual console interface. ">
<polygon fill="#ffffff" stroke="#000000" points="796.5,-795.5 796.5,-814.5 873.5,-814.5 873.5,-795.5 796.5,-795.5"/>
<text text-anchor="middle" x="835" y="-802.5" font-family="Helvetica,sans-Serif" font-size="10.00" fill="#000000">l4/sys/vcon.h</text>
</a>
</g>
</g>
<!-- Node1&#45;&gt;Node32 -->
<g id="edge80" class="edge">
<title>Node1&#45;&gt;Node32</title>
<path fill="none" stroke="#191970" d="M575.2137,-907.4509C625.935,-887.4482 743.4309,-841.1117 801.4076,-818.2477"/>
<polygon fill="#191970" stroke="#191970" points="802.8289,-821.4496 810.8476,-814.5249 800.2608,-814.9377 802.8289,-821.4496"/>
</g>
<!-- Node3 -->
<g id="node4" class="node">
<title>Node3</title>
<g id="a_node4"><a xlink:href="irq.html" target="_top" xlink:title="C++ Irq interface. ">
<polygon fill="#ffffff" stroke="#000000" points="521.5,-795.5 521.5,-814.5 580.5,-814.5 580.5,-795.5 521.5,-795.5"/>
<text text-anchor="middle" x="551" y="-802.5" font-family="Helvetica,sans-Serif" font-size="10.00" fill="#000000">l4/sys/irq</text>
</a>
</g>
</g>
<!-- Node2&#45;&gt;Node3 -->
<g id="edge3" class="edge">
<title>Node2&#45;&gt;Node3</title>
<path fill="none" stroke="#191970" d="M551,-851.2455C551,-843.9382 551,-833.6944 551,-824.7046"/>
<polygon fill="#191970" stroke="#191970" points="554.5001,-824.6426 551,-814.6427 547.5001,-824.6427 554.5001,-824.6426"/>
</g>
<!-- Node4 -->
<g id="node5" class="node">
<title>Node4</title>
<g id="a_node5"><a xlink:href="icu_8h.html" target="_top" xlink:title="Interrupt controller. ">
<polygon fill="#ffffff" stroke="#000000" points="760,-459.5 760,-478.5 828,-478.5 828,-459.5 760,-459.5"/>
<text text-anchor="middle" x="794" y="-466.5" font-family="Helvetica,sans-Serif" font-size="10.00" fill="#000000">l4/sys/icu.h</text>
</a>
</g>
</g>
<!-- Node3&#45;&gt;Node4 -->
<g id="edge4" class="edge">
<title>Node3&#45;&gt;Node4</title>
<path fill="none" stroke="#191970" d="M580.7892,-801.1087C633.8001,-792.3337 739,-765.7545 739,-693 739,-693 739,-693 739,-581 739,-544.6071 762.6865,-507.7455 778.971,-486.7035"/>
<polygon fill="#191970" stroke="#191970" points="781.8667,-488.6876 785.4063,-478.7015 776.4118,-484.3008 781.8667,-488.6876"/>
</g>
<!-- Node17 -->
<g id="node18" class="node">
<title>Node17</title>
<g id="a_node18"><a xlink:href="l4_2sys_2irq_8h.html" target="_top" xlink:title="C Irq interface. ">
<polygon fill="#ffffff" stroke="#000000" points="636.5,-459.5 636.5,-478.5 703.5,-478.5 703.5,-459.5 636.5,-459.5"/>
<text text-anchor="middle" x="670" y="-466.5" font-family="Helvetica,sans-Serif" font-size="10.00" fill="#000000">l4/sys/irq.h</text>
</a>
</g>
</g>
<!-- Node3&#45;&gt;Node17 -->
<g id="edge30" class="edge">
<title>Node3&#45;&gt;Node17</title>
<path fill="none" stroke="#191970" d="M571.1259,-795.4139C602.1212,-779.0856 658,-742.7498 658,-693 658,-693 658,-693 658,-581 658,-548.3778 663.0954,-510.7135 666.6456,-488.4301"/>
<polygon fill="#191970" stroke="#191970" points="670.1007,-488.9887 668.2807,-478.5514 663.1947,-487.8456 670.1007,-488.9887"/>
</g>
<!-- Node3&#45;&gt;Node19 -->
<g id="edge37" class="edge">
<title>Node3&#45;&gt;Node19</title>
<path fill="none" stroke="#191970" d="M541.1639,-795.414C527.1264,-781.9831 500.2446,-757.174 475,-739 458.8342,-727.362 439.5636,-715.976 424.2214,-707.4433"/>
<polygon fill="#191970" stroke="#191970" points="425.6911,-704.2576 415.2393,-702.5225 422.3278,-710.3967 425.6911,-704.2576"/>
</g>
<!-- Node27 -->
<g id="node28" class="node">
<title>Node27</title>
<g id="a_node28"><a xlink:href="ipc__iface.html" target="_top" xlink:title="Interface Definition Language. ">
<polygon fill="#ffffff" stroke="#000000" points="290.5,-571.5 290.5,-590.5 367.5,-590.5 367.5,-571.5 290.5,-571.5"/>
<text text-anchor="middle" x="329" y="-578.5" font-family="Helvetica,sans-Serif" font-size="10.00" fill="#000000">cxx/ipc_iface</text>
</a>
</g>
</g>
<!-- Node3&#45;&gt;Node27 -->
<g id="edge78" class="edge">
<title>Node3&#45;&gt;Node27</title>
<path fill="none" stroke="#191970" d="M545.665,-795.3615C529.3657,-766.6117 477.5094,-680.1622 415,-627 399.4736,-613.7953 379.5339,-602.838 362.7643,-594.9342"/>
<polygon fill="#191970" stroke="#191970" points="363.8662,-591.5906 353.3142,-590.6395 360.97,-597.9633 363.8662,-591.5906"/>
</g>
<!-- Node28 -->
<g id="node29" class="node">
<title>Node28</title>
<g id="a_node29"><a xlink:href="ipc__types.html" target="_top" xlink:title="l4/sys/cxx/ipc_types">
<polygon fill="#ffffff" stroke="#000000" points="386,-459.5 386,-478.5 496,-478.5 496,-459.5 386,-459.5"/>
<text text-anchor="middle" x="441" y="-466.5" font-family="Helvetica,sans-Serif" font-size="10.00" fill="#000000">l4/sys/cxx/ipc_types</text>
</a>
</g>
</g>
<!-- Node3&#45;&gt;Node28 -->
<g id="edge79" class="edge">
<title>Node3&#45;&gt;Node28</title>
<path fill="none" stroke="#191970" d="M553.8035,-795.2066C559.0887,-775.8521 570,-731.2612 570,-693 570,-693 570,-693 570,-581 570,-550.4754 571.2992,-537.7968 551,-515 536.9277,-499.1962 516.5532,-488.6789 497.154,-481.7461"/>
<polygon fill="#191970" stroke="#191970" points="498.0334,-478.3505 487.4401,-478.531 495.8338,-484.9959 498.0334,-478.3505"/>
</g>
<!-- Node31 -->
<g id="node32" class="node">
<title>Node31</title>
<g id="a_node32"><a xlink:href="rcv__endpoint.html" target="_top" xlink:title="The C++ Receive endpoint interface. ">
<polygon fill="#ffffff" stroke="#000000" points="358,-739.5 358,-758.5 466,-758.5 466,-739.5 358,-739.5"/>
<text text-anchor="middle" x="412" y="-746.5" font-family="Helvetica,sans-Serif" font-size="10.00" fill="#000000">l4/sys/rcv_endpoint</text>
</a>
</g>
</g>
<!-- Node3&#45;&gt;Node31 -->
<g id="edge73" class="edge">
<title>Node3&#45;&gt;Node31</title>
<path fill="none" stroke="#191970" d="M527.105,-795.3733C504.4918,-786.2629 470.3458,-772.5062 445.1127,-762.3404"/>
<polygon fill="#191970" stroke="#191970" points="446.1666,-758.9917 435.5831,-758.5011 443.5507,-765.4845 446.1666,-758.9917"/>
</g>
<!-- Node5 -->
<g id="node6" class="node">
<title>Node5</title>
<g id="a_node6"><a xlink:href="kernel__object_8h.html" target="_top" xlink:title="Kernel object system calls. ">
<polygon fill="#ffffff" stroke="#000000" points="725,-403.5 725,-422.5 843,-422.5 843,-403.5 725,-403.5"/>
<text text-anchor="middle" x="784" y="-410.5" font-family="Helvetica,sans-Serif" font-size="10.00" fill="#000000">l4/sys/kernel_object.h</text>
</a>
</g>
</g>
<!-- Node4&#45;&gt;Node5 -->
<g id="edge5" class="edge">
<title>Node4&#45;&gt;Node5</title>
<path fill="none" stroke="#191970" d="M792.2581,-459.2455C790.9533,-451.9382 789.124,-441.6944 787.5187,-432.7046"/>
<polygon fill="#191970" stroke="#191970" points="790.9254,-431.8717 785.7219,-422.6427 784.0344,-433.1022 790.9254,-431.8717"/>
</g>
<!-- Node15 -->
<g id="node16" class="node">
<title>Node15</title>
<g id="a_node16"><a xlink:href="l4_2sys_2ipc_8h.html" target="_top" xlink:title="Common IPC interface. ">
<polygon fill="#ffffff" stroke="#000000" points="683,-280.5 683,-299.5 751,-299.5 751,-280.5 683,-280.5"/>
<text text-anchor="middle" x="717" y="-287.5" font-family="Helvetica,sans-Serif" font-size="10.00" fill="#000000">l4/sys/ipc.h</text>
</a>
</g>
</g>
<!-- Node4&#45;&gt;Node15 -->
<g id="edge29" class="edge">
<title>Node4&#45;&gt;Node15</title>
<path fill="none" stroke="#191970" d="M812.6598,-459.3877C825.9492,-451.4947 842.9911,-439.0187 852,-423 871.0155,-389.1888 881.815,-367.373 859,-336 847.2977,-319.9081 798.5397,-306.5698 761.3927,-298.4719"/>
<polygon fill="#191970" stroke="#191970" points="761.7716,-294.9747 751.2637,-296.3289 760.3227,-301.8231 761.7716,-294.9747"/>
</g>
<!-- Node6 -->
<g id="node7" class="node">
<title>Node6</title>
<g id="a_node7"><a xlink:href="l4_2sys_2types_8h.html" target="_top" xlink:title="Common L4 ABI Data Types. ">
<polygon fill="#ffffff" stroke="#000000" points="355,-168.5 355,-187.5 435,-187.5 435,-168.5 355,-168.5"/>
<text text-anchor="middle" x="395" y="-175.5" font-family="Helvetica,sans-Serif" font-size="10.00" fill="#000000">l4/sys/types.h</text>
</a>
</g>
</g>
<!-- Node5&#45;&gt;Node6 -->
<g id="edge6" class="edge">
<title>Node5&#45;&gt;Node6</title>
<path fill="none" stroke="#191970" d="M812.8108,-403.4613C829.519,-396.274 849.1515,-384.5938 859,-367 865.7298,-354.9776 864.8802,-348.46 859,-336 825.5814,-265.1865 794.6838,-255.5086 723,-224 674.3213,-202.6033 524.7854,-188.1138 445.527,-181.7189"/>
<polygon fill="#191970" stroke="#191970" points="445.5375,-178.2088 435.2919,-180.9066 444.9836,-185.1869 445.5375,-178.2088"/>
</g>
<!-- Node8 -->
<g id="node9" class="node">
<title>Node8</title>
<g id="a_node9"><a xlink:href="compiler_8h.html" target="_top" xlink:title="L4 compiler related defines. ">
<polygon fill="#ffffff" stroke="#000000" points="502.5,-56.5 502.5,-75.5 597.5,-75.5 597.5,-56.5 502.5,-56.5"/>
<text text-anchor="middle" x="550" y="-63.5" font-family="Helvetica,sans-Serif" font-size="10.00" fill="#000000">l4/sys/compiler.h</text>
</a>
</g>
</g>
<!-- Node5&#45;&gt;Node8 -->
<g id="edge17" class="edge">
<title>Node5&#45;&gt;Node8</title>
<path fill="none" stroke="#191970" d="M834.4457,-403.4676C891.332,-389.4559 976,-357.2975 976,-290 976,-290 976,-290 976,-178 976,-102.748 724.2182,-77.0057 607.789,-69.1248"/>
<polygon fill="#191970" stroke="#191970" points="607.835,-65.6204 597.6276,-68.4592 607.3774,-72.6054 607.835,-65.6204"/>
</g>
<!-- Node13 -->
<g id="node14" class="node">
<title>Node13</title>
<g id="a_node14"><a xlink:href="l4_2sys_2utcb_8h.html" target="_top" xlink:title="UTCB definitions. ">
<polygon fill="#ffffff" stroke="#000000" points="535,-224.5 535,-243.5 609,-243.5 609,-224.5 535,-224.5"/>
<text text-anchor="middle" x="572" y="-231.5" font-family="Helvetica,sans-Serif" font-size="10.00" fill="#000000">l4/sys/utcb.h</text>
</a>
</g>
</g>
<!-- Node5&#45;&gt;Node13 -->
<g id="edge18" class="edge">
<title>Node5&#45;&gt;Node13</title>
<path fill="none" stroke="#191970" d="M763.7354,-403.469C746.7437,-395.0257 722.2417,-381.7717 703,-367 655.9091,-330.8487 609.1383,-278.3383 586.3392,-251.3885"/>
<polygon fill="#191970" stroke="#191970" points="588.9127,-249.0101 579.8093,-243.5899 583.5457,-253.504 588.9127,-249.0101"/>
</g>
<!-- Node14 -->
<g id="node15" class="node">
<title>Node14</title>
<g id="a_node15"><a xlink:href="____kernel__object__impl_8h.html" target="_top" xlink:title="Low&#45;level kernel debugger functions. ">
<polygon fill="#ffffff" stroke="#000000" points="712,-336.5 712,-366.5 834,-366.5 834,-336.5 712,-336.5"/>
<text text-anchor="start" x="720" y="-354.5" font-family="Helvetica,sans-Serif" font-size="10.00" fill="#000000">l4/sys/__kernel_object</text>
<text text-anchor="middle" x="773" y="-343.5" font-family="Helvetica,sans-Serif" font-size="10.00" fill="#000000">_impl.h</text>
</a>
</g>
</g>
<!-- Node5&#45;&gt;Node14 -->
<g id="edge22" class="edge">
<title>Node5&#45;&gt;Node14</title>
<path fill="none" stroke="#191970" d="M782.2813,-403.3906C780.9993,-396.2234 779.1862,-386.0862 777.5021,-376.671"/>
<polygon fill="#191970" stroke="#191970" points="780.897,-375.7721 775.6909,-366.5446 774.0063,-377.0046 780.897,-375.7721"/>
</g>
<!-- Node5&#45;&gt;Node15 -->
<g id="edge28" class="edge">
<title>Node5&#45;&gt;Node15</title>
<path fill="none" stroke="#191970" d="M804.1561,-403.4543C817.8815,-395.7394 834.9635,-383.4561 843,-367 849.046,-354.6197 850.8971,-347.29 843,-336 833.202,-321.9924 793.2023,-308.9224 760.8639,-300.3214"/>
<polygon fill="#191970" stroke="#191970" points="761.6736,-296.9157 751.1157,-297.7996 759.9204,-303.6926 761.6736,-296.9157"/>
</g>
<!-- Node7 -->
<g id="node8" class="node">
<title>Node7</title>
<g id="a_node8"><a xlink:href="l4_2sys_2l4int_8h.html" target="_top" xlink:title="Fixed sized integer types, generic version. ">
<polygon fill="#ffffff" stroke="#000000" points="253,-56.5 253,-75.5 327,-75.5 327,-56.5 253,-56.5"/>
<text text-anchor="middle" x="290" y="-63.5" font-family="Helvetica,sans-Serif" font-size="10.00" fill="#000000">l4/sys/l4int.h</text>
</a>
</g>
</g>
<!-- Node6&#45;&gt;Node7 -->
<g id="edge7" class="edge">
<title>Node6&#45;&gt;Node7</title>
<path fill="none" stroke="#191970" d="M354.8578,-168.6578C321.9422,-160.0889 279.1776,-146.5502 269,-132 258.9365,-117.6128 267.1847,-98.1663 276.1296,-84.1123"/>
<polygon fill="#191970" stroke="#191970" points="279.0977,-85.9742 281.9228,-75.763 273.3465,-81.9837 279.0977,-85.9742"/>
</g>
<!-- Node6&#45;&gt;Node8 -->
<g id="edge8" class="edge">
<title>Node6&#45;&gt;Node8</title>
<path fill="none" stroke="#191970" d="M397.3052,-168.0834C401.1167,-153.7922 410.0518,-127.4321 427,-112 445.2086,-95.4202 469.9492,-84.6422 492.4679,-77.7218"/>
<polygon fill="#191970" stroke="#191970" points="493.6477,-81.0245 502.2907,-74.8966 491.7128,-74.2972 493.6477,-81.0245"/>
</g>
<!-- Node10 -->
<g id="node11" class="node">
<title>Node10</title>
<g id="a_node11"><a xlink:href="l4_2sys_2consts_8h.html" target="_top" xlink:title="Common constants. ">
<polygon fill="#ffffff" stroke="#000000" points="136,-112.5 136,-131.5 222,-131.5 222,-112.5 136,-112.5"/>
<text text-anchor="middle" x="179" y="-119.5" font-family="Helvetica,sans-Serif" font-size="10.00" fill="#000000">l4/sys/consts.h</text>
</a>
</g>
</g>
<!-- Node6&#45;&gt;Node10 -->
<g id="edge10" class="edge">
<title>Node6&#45;&gt;Node10</title>
<path fill="none" stroke="#191970" d="M357.8683,-168.3733C321.1733,-158.8598 264.9361,-144.2797 225.3349,-134.0127"/>
<polygon fill="#191970" stroke="#191970" points="226.2056,-130.6228 215.6472,-131.5011 224.4488,-137.3988 226.2056,-130.6228"/>
</g>
<!-- Node11 -->
<g id="node12" class="node">
<title>Node11</title>
<g id="a_node12"><a xlink:href="____l4__fpage_8h_source.html" target="_top" xlink:title="l4/sys/__l4_fpage.h">
<polygon fill="#ffffff" stroke="#000000" points="436,-112.5 436,-131.5 544,-131.5 544,-112.5 436,-112.5"/>
<text text-anchor="middle" x="490" y="-119.5" font-family="Helvetica,sans-Serif" font-size="10.00" fill="#000000">l4/sys/__l4_fpage.h</text>
</a>
</g>
</g>
<!-- Node6&#45;&gt;Node11 -->
<g id="edge13" class="edge">
<title>Node6&#45;&gt;Node11</title>
<path fill="none" stroke="#191970" d="M411.5477,-168.2455C426.2599,-159.5731 447.9888,-146.7645 464.8505,-136.825"/>
<polygon fill="#191970" stroke="#191970" points="466.8046,-139.736 473.6419,-131.6427 463.2498,-133.7057 466.8046,-139.736"/>
</g>
<!-- Node12 -->
<g id="node13" class="node">
<title>Node12</title>
<g id="a_node13"><a xlink:href="____timeout_8h_source.html" target="_top" xlink:title="l4/sys/__timeout.h">
<polygon fill="#ffffff" stroke="#000000" points="278.5,-112.5 278.5,-131.5 379.5,-131.5 379.5,-112.5 278.5,-112.5"/>
<text text-anchor="middle" x="329" y="-119.5" font-family="Helvetica,sans-Serif" font-size="10.00" fill="#000000">l4/sys/__timeout.h</text>
</a>
</g>
</g>
<!-- Node6&#45;&gt;Node12 -->
<g id="edge15" class="edge">
<title>Node6&#45;&gt;Node12</title>
<path fill="none" stroke="#191970" d="M383.5037,-168.2455C373.7558,-159.9746 359.5741,-147.9416 348.1202,-138.2232"/>
<polygon fill="#191970" stroke="#191970" points="350.2541,-135.4437 340.3646,-131.6427 345.7253,-140.7813 350.2541,-135.4437"/>
</g>
<!-- Node9 -->
<g id="node10" class="node">
<title>Node9</title>
<polygon fill="#ffffff" stroke="#bfbfbf" points="505.5,-.5 505.5,-19.5 594.5,-19.5 594.5,-.5 505.5,-.5"/>
<text text-anchor="middle" x="550" y="-7.5" font-family="Helvetica,sans-Serif" font-size="10.00" fill="#000000">l4/sys/linkage.h</text>
</g>
<!-- Node8&#45;&gt;Node9 -->
<g id="edge9" class="edge">
<title>Node8&#45;&gt;Node9</title>
<path fill="none" stroke="#191970" d="M550,-56.2455C550,-48.9382 550,-38.6944 550,-29.7046"/>
<polygon fill="#191970" stroke="#191970" points="553.5001,-29.6426 550,-19.6427 546.5001,-29.6427 553.5001,-29.6426"/>
</g>
<!-- Node10&#45;&gt;Node7 -->
<g id="edge12" class="edge">
<title>Node10&#45;&gt;Node7</title>
<path fill="none" stroke="#191970" d="M198.0816,-112.3733C215.7402,-103.4644 242.2053,-90.1127 262.2098,-80.0203"/>
<polygon fill="#191970" stroke="#191970" points="263.8158,-83.1303 271.1674,-75.5011 260.6628,-76.8806 263.8158,-83.1303"/>
</g>
<!-- Node10&#45;&gt;Node8 -->
<g id="edge11" class="edge">
<title>Node10&#45;&gt;Node8</title>
<path fill="none" stroke="#191970" d="M222.2845,-115.4665C289.1005,-105.3811 417.4373,-86.0095 492.146,-74.7327"/>
<polygon fill="#191970" stroke="#191970" points="492.9543,-78.1504 502.3198,-73.197 491.9094,-71.2288 492.9543,-78.1504"/>
</g>
<!-- Node11&#45;&gt;Node8 -->
<g id="edge14" class="edge">
<title>Node11&#45;&gt;Node8</title>
<path fill="none" stroke="#191970" d="M500.4512,-112.2455C509.2269,-104.0549 521.9554,-92.1749 532.314,-82.5069"/>
<polygon fill="#191970" stroke="#191970" points="534.7461,-85.0246 539.6686,-75.6427 529.9699,-79.9072 534.7461,-85.0246"/>
</g>
<!-- Node12&#45;&gt;Node7 -->
<g id="edge16" class="edge">
<title>Node12&#45;&gt;Node7</title>
<path fill="none" stroke="#191970" d="M322.2067,-112.2455C316.7822,-104.4564 309.0339,-93.3308 302.4967,-83.9439"/>
<polygon fill="#191970" stroke="#191970" points="305.3025,-81.8485 296.7154,-75.6427 299.5583,-85.849 305.3025,-81.8485"/>
</g>
<!-- Node13&#45;&gt;Node6 -->
<g id="edge19" class="edge">
<title>Node13&#45;&gt;Node6</title>
<path fill="none" stroke="#191970" d="M541.5726,-224.3733C512.0128,-215.021 466.9774,-200.7725 434.6305,-190.5385"/>
<polygon fill="#191970" stroke="#191970" points="435.6203,-187.1807 425.0303,-187.5011 433.5087,-193.8546 435.6203,-187.1807"/>
</g>
<!-- Node13&#45;&gt;Node7 -->
<g id="edge21" class="edge">
<title>Node13&#45;&gt;Node7</title>
<path fill="none" stroke="#191970" d="M573.8135,-224.471C577.5683,-201.5724 583.4813,-143.0553 553,-112 523.6821,-82.1299 404.852,-71.5113 337.3874,-67.8473"/>
<polygon fill="#191970" stroke="#191970" points="337.1881,-64.3326 327.0224,-67.3171 336.8305,-71.3235 337.1881,-64.3326"/>
</g>
<!-- Node13&#45;&gt;Node8 -->
<g id="edge20" class="edge">
<title>Node13&#45;&gt;Node8</title>
<path fill="none" stroke="#191970" d="M575.9491,-224.196C583.8599,-203.0641 599.7595,-151.9073 586,-112 582.2813,-101.2144 574.8787,-91.0249 567.7481,-82.9904"/>
<polygon fill="#191970" stroke="#191970" points="570.2791,-80.5729 560.8548,-75.7321 565.2033,-85.3934 570.2791,-80.5729"/>
</g>
<!-- Node14&#45;&gt;Node15 -->
<g id="edge23" class="edge">
<title>Node14&#45;&gt;Node15</title>
<path fill="none" stroke="#191970" d="M759.1573,-336.2977C751.141,-327.4941 741.0238,-316.3833 732.71,-307.2529"/>
<polygon fill="#191970" stroke="#191970" points="735.2869,-304.8845 725.9663,-299.8469 730.1112,-309.5974 735.2869,-304.8845"/>
</g>
<!-- Node15&#45;&gt;Node6 -->
<g id="edge24" class="edge">
<title>Node15&#45;&gt;Node6</title>
<path fill="none" stroke="#191970" d="M718.2236,-280.3224C719.46,-265.8422 719.3762,-238.6745 704,-224 685.5863,-206.4267 528.0258,-189.8913 445.2884,-182.321"/>
<polygon fill="#191970" stroke="#191970" points="445.3744,-178.8146 435.0998,-181.3995 444.7438,-185.7861 445.3744,-178.8146"/>
</g>
<!-- Node15&#45;&gt;Node13 -->
<g id="edge25" class="edge">
<title>Node15&#45;&gt;Node13</title>
<path fill="none" stroke="#191970" d="M692.0736,-280.3733C668.3798,-271.2226 632.5489,-257.3844 606.1932,-247.2057"/>
<polygon fill="#191970" stroke="#191970" points="607.1906,-243.8389 596.6011,-243.5011 604.6686,-250.3689 607.1906,-243.8389"/>
</g>
<!-- Node16 -->
<g id="node17" class="node">
<title>Node16</title>
<g id="a_node17"><a xlink:href="err_8h.html" target="_top" xlink:title="Error codes. ">
<polygon fill="#ffffff" stroke="#000000" points="627,-224.5 627,-243.5 695,-243.5 695,-224.5 627,-224.5"/>
<text text-anchor="middle" x="661" y="-231.5" font-family="Helvetica,sans-Serif" font-size="10.00" fill="#000000">l4/sys/err.h</text>
</a>
</g>
</g>
<!-- Node15&#45;&gt;Node16 -->
<g id="edge26" class="edge">
<title>Node15&#45;&gt;Node16</title>
<path fill="none" stroke="#191970" d="M707.2455,-280.2455C699.1352,-272.1352 687.4075,-260.4075 677.7919,-250.7919"/>
<polygon fill="#191970" stroke="#191970" points="680.1887,-248.2389 670.6427,-243.6427 675.2389,-253.1887 680.1887,-248.2389"/>
</g>
<!-- Node16&#45;&gt;Node8 -->
<g id="edge27" class="edge">
<title>Node16&#45;&gt;Node8</title>
<path fill="none" stroke="#191970" d="M657.8453,-224.424C650.4447,-202.8701 630.4205,-149.5022 602,-112 593.4688,-100.7426 581.8516,-90.1525 571.7615,-81.9777"/>
<polygon fill="#191970" stroke="#191970" points="573.7817,-79.1145 563.7463,-75.7173 569.4728,-84.6312 573.7817,-79.1145"/>
</g>
<!-- Node17&#45;&gt;Node5 -->
<g id="edge31" class="edge">
<title>Node17&#45;&gt;Node5</title>
<path fill="none" stroke="#191970" d="M689.5973,-459.3733C707.7331,-450.4644 734.9135,-437.1127 755.4587,-427.0203"/>
<polygon fill="#191970" stroke="#191970" points="757.2261,-430.0517 764.6584,-422.5011 754.1397,-423.7688 757.2261,-430.0517"/>
</g>
<!-- Node17&#45;&gt;Node15 -->
<g id="edge32" class="edge">
<title>Node17&#45;&gt;Node15</title>
<path fill="none" stroke="#191970" d="M672.229,-459.2758C677.3195,-437.243 690.3397,-381.8656 703,-336 705.4093,-327.2717 708.2903,-317.6816 710.8107,-309.527"/>
<polygon fill="#191970" stroke="#191970" points="714.1998,-310.4161 713.8464,-299.8271 707.5194,-308.3253 714.1998,-310.4161"/>
</g>
<!-- Node18 -->
<g id="node19" class="node">
<title>Node18</title>
<g id="a_node19"><a xlink:href="rcv__endpoint_8h.html" target="_top" xlink:title="Receive endpoint C interface. ">
<polygon fill="#ffffff" stroke="#000000" points="502,-342 502,-361 618,-361 618,-342 502,-342"/>
<text text-anchor="middle" x="560" y="-349" font-family="Helvetica,sans-Serif" font-size="10.00" fill="#000000">l4/sys/rcv_endpoint.h</text>
</a>
</g>
</g>
<!-- Node17&#45;&gt;Node18 -->
<g id="edge33" class="edge">
<title>Node17&#45;&gt;Node18</title>
<path fill="none" stroke="#191970" d="M664.1514,-459.4762C655.7177,-446.1192 639.2499,-421.3973 622,-403 609.6354,-389.8129 593.9612,-376.8203 581.4664,-367.184"/>
<polygon fill="#191970" stroke="#191970" points="583.4914,-364.3273 573.4039,-361.0879 579.2696,-369.9109 583.4914,-364.3273"/>
</g>
<!-- Node18&#45;&gt;Node6 -->
<g id="edge35" class="edge">
<title>Node18&#45;&gt;Node6</title>
<path fill="none" stroke="#191970" d="M550.8939,-341.9248C524.1372,-313.7897 445.496,-231.0973 411.2484,-195.0855"/>
<polygon fill="#191970" stroke="#191970" points="413.709,-192.5939 404.2814,-187.7595 408.6365,-197.4179 413.709,-192.5939"/>
</g>
<!-- Node18&#45;&gt;Node13 -->
<g id="edge34" class="edge">
<title>Node18&#45;&gt;Node13</title>
<path fill="none" stroke="#191970" d="M560.982,-341.8845C562.9422,-322.6913 567.375,-279.286 569.9813,-253.7663"/>
<polygon fill="#191970" stroke="#191970" points="573.4702,-254.0523 571.0044,-243.7484 566.5065,-253.341 573.4702,-254.0523"/>
</g>
<!-- Node18&#45;&gt;Node15 -->
<g id="edge36" class="edge">
<title>Node18&#45;&gt;Node15</title>
<path fill="none" stroke="#191970" d="M584.5313,-341.8906C611.0307,-331.5103 653.4331,-314.9004 683.107,-303.2766"/>
<polygon fill="#191970" stroke="#191970" points="684.6065,-306.4482 692.641,-299.5419 682.0533,-299.9304 684.6065,-306.4482"/>
</g>
<!-- Node19&#45;&gt;Node6 -->
<g id="edge39" class="edge">
<title>Node19&#45;&gt;Node6</title>
<path fill="none" stroke="#191970" d="M351.6894,-686.8578C263.2055,-673.5881 76,-638.6959 76,-581 76,-581 76,-581 76,-413 76,-280.8937 255.532,-214.7419 345.2271,-189.9357"/>
<polygon fill="#191970" stroke="#191970" points="346.1791,-193.3041 354.9214,-187.319 344.3548,-186.546 346.1791,-193.3041"/>
</g>
<!-- Node19&#45;&gt;Node10 -->
<g id="edge38" class="edge">
<title>Node19&#45;&gt;Node10</title>
<path fill="none" stroke="#191970" d="M351.7515,-688.3723C283.9878,-680.9624 159.7454,-665.384 119,-647 76.6715,-627.9017 38,-627.4375 38,-581 38,-581 38,-581 38,-525 38,-446.061 0,-430.439 0,-351.5 0,-351.5 0,-351.5 0,-234 0,-174.0766 72.983,-145.0142 125.7447,-131.8335"/>
<polygon fill="#191970" stroke="#191970" points="126.7472,-135.1929 135.6691,-129.4789 125.1312,-128.3819 126.7472,-135.1929"/>
</g>
<!-- Node20 -->
<g id="node21" class="node">
<title>Node20</title>
<g id="a_node21"><a xlink:href="kobject_source.html" target="_top" xlink:title="l4/sys/kobject">
<polygon fill="#ffffff" stroke="#000000" points="462,-515.5 462,-534.5 542,-534.5 542,-515.5 462,-515.5"/>
<text text-anchor="middle" x="502" y="-522.5" font-family="Helvetica,sans-Serif" font-size="10.00" fill="#000000">l4/sys/kobject</text>
</a>
</g>
</g>
<!-- Node19&#45;&gt;Node20 -->
<g id="edge40" class="edge">
<title>Node19&#45;&gt;Node20</title>
<path fill="none" stroke="#191970" d="M410.5946,-683.3219C421.8028,-674.7888 437.5091,-661.4856 448,-647 471.6697,-614.3173 488.1324,-569.6157 496.2351,-544.3906"/>
<polygon fill="#191970" stroke="#191970" points="499.6603,-545.1615 499.2793,-534.5735 492.9744,-543.0882 499.6603,-545.1615"/>
</g>
<!-- Node25 -->
<g id="node26" class="node">
<title>Node25</title>
<g id="a_node26"><a xlink:href="l4_2sys_2task_8h.html" target="_top" xlink:title="Common task related definitions. ">
<polygon fill="#ffffff" stroke="#000000" points="372,-342 372,-361 446,-361 446,-342 372,-342"/>
<text text-anchor="middle" x="409" y="-349" font-family="Helvetica,sans-Serif" font-size="10.00" fill="#000000">l4/sys/task.h</text>
</a>
</g>
</g>
<!-- Node19&#45;&gt;Node25 -->
<g id="edge56" class="edge">
<title>Node19&#45;&gt;Node25</title>
<path fill="none" stroke="#191970" d="M401.129,-683.2267C404.9623,-673.9806 410.7074,-659.6708 415,-647 434.5886,-589.1787 417.3905,-564.588 453,-515 469.3958,-492.168 491.9544,-503.8985 505,-479 528.295,-434.5398 470.5539,-389.1597 434.7967,-366.4234"/>
<polygon fill="#191970" stroke="#191970" points="436.5905,-363.4176 426.2422,-361.1452 432.9148,-369.3749 436.5905,-363.4176"/>
</g>
<!-- Node26 -->
<g id="node27" class="node">
<title>Node26</title>
<g id="a_node27"><a xlink:href="sys_2meta.html" target="_top" xlink:title="Meta interface for getting dynamic type information about objects behind capabilities. ">
<polygon fill="#ffffff" stroke="#000000" points="336,-627.5 336,-646.5 406,-646.5 406,-627.5 336,-627.5"/>
<text text-anchor="middle" x="371" y="-634.5" font-family="Helvetica,sans-Serif" font-size="10.00" fill="#000000">l4/sys/meta</text>
</a>
</g>
</g>
<!-- Node19&#45;&gt;Node26 -->
<g id="edge57" class="edge">
<title>Node19&#45;&gt;Node26</title>
<path fill="none" stroke="#191970" d="M392.4711,-683.2455C388.9666,-675.6973 384.0073,-665.0158 379.7377,-655.8197"/>
<polygon fill="#191970" stroke="#191970" points="382.8627,-654.2389 375.477,-646.6427 376.5136,-657.1867 382.8627,-654.2389"/>
</g>
<!-- Node20&#45;&gt;Node5 -->
<g id="edge41" class="edge">
<title>Node20&#45;&gt;Node5</title>
<path fill="none" stroke="#191970" d="M542.2489,-522.5609C586.3723,-518.4881 658.1794,-507.6646 713,-479 735.902,-467.025 756.8759,-445.6681 769.9941,-430.4937"/>
<polygon fill="#191970" stroke="#191970" points="772.7008,-432.7129 776.4361,-422.7984 767.3333,-428.2196 772.7008,-432.7129"/>
</g>
<!-- Node20&#45;&gt;Node6 -->
<g id="edge42" class="edge">
<title>Node20&#45;&gt;Node6</title>
<path fill="none" stroke="#191970" d="M507.2318,-515.4788C511.8953,-506.4109 518.3769,-492.2215 521,-479 522.7298,-470.281 522.3767,-467.7816 521,-459 512.3071,-403.548 433.1128,-250.0276 404.9135,-196.6104"/>
<polygon fill="#191970" stroke="#191970" points="407.9045,-194.7798 400.1292,-187.5828 401.7194,-198.0577 407.9045,-194.7798"/>
</g>
<!-- Node21 -->
<g id="node22" class="node">
<title>Node21</title>
<g id="a_node22"><a xlink:href="____typeinfo_8h.html" target="_top" xlink:title="Type information handling. ">
<polygon fill="#ffffff" stroke="#000000" points="294,-459.5 294,-478.5 368,-478.5 368,-459.5 294,-459.5"/>
<text text-anchor="middle" x="331" y="-466.5" font-family="Helvetica,sans-Serif" font-size="10.00" fill="#000000">__typeinfo.h</text>
</a>
</g>
</g>
<!-- Node20&#45;&gt;Node21 -->
<g id="edge43" class="edge">
<title>Node20&#45;&gt;Node21</title>
<path fill="none" stroke="#191970" d="M472.6041,-515.3733C444.1693,-506.0613 400.9123,-491.8953 369.6919,-481.671"/>
<polygon fill="#191970" stroke="#191970" points="370.605,-478.2872 360.0124,-478.5011 368.4264,-484.9396 370.605,-478.2872"/>
</g>
<!-- Node22 -->
<g id="node23" class="node">
<title>Node22</title>
<g id="a_node23"><a xlink:href="types.html" target="_top" xlink:title="cxx/types">
<polygon fill="#ffffff" stroke="#000000" points="112.5,-342 112.5,-361 173.5,-361 173.5,-342 112.5,-342"/>
<text text-anchor="middle" x="143" y="-349" font-family="Helvetica,sans-Serif" font-size="10.00" fill="#000000">cxx/types</text>
</a>
</g>
</g>
<!-- Node21&#45;&gt;Node22 -->
<g id="edge44" class="edge">
<title>Node21&#45;&gt;Node22</title>
<path fill="none" stroke="#191970" d="M325.7275,-459.098C317.6617,-444.825 300.9652,-418.4873 280,-403 271.6512,-396.8326 218.1469,-377.5573 180.5317,-364.4196"/>
<polygon fill="#191970" stroke="#191970" points="181.4666,-361.0392 170.8718,-361.0584 179.1661,-367.6504 181.4666,-361.0392"/>
</g>
<!-- Node23 -->
<g id="node24" class="node">
<title>Node23</title>
<g id="a_node24"><a xlink:href="ipc__basics_source.html" target="_top" xlink:title="cxx/ipc_basics">
<polygon fill="#ffffff" stroke="#000000" points="187,-403.5 187,-422.5 271,-422.5 271,-403.5 187,-403.5"/>
<text text-anchor="middle" x="229" y="-410.5" font-family="Helvetica,sans-Serif" font-size="10.00" fill="#000000">cxx/ipc_basics</text>
</a>
</g>
</g>
<!-- Node21&#45;&gt;Node23 -->
<g id="edge45" class="edge">
<title>Node21&#45;&gt;Node23</title>
<path fill="none" stroke="#191970" d="M313.233,-459.2455C297.2905,-450.4928 273.6741,-437.527 255.5011,-427.5496"/>
<polygon fill="#191970" stroke="#191970" points="257.0137,-424.3873 246.5634,-422.6427 253.6448,-430.5233 257.0137,-424.3873"/>
</g>
<!-- Node24 -->
<g id="node25" class="node">
<title>Node24</title>
<g id="a_node25"><a xlink:href="capability_8h_source.html" target="_top" xlink:title="cxx/capability.h">
<polygon fill="#ffffff" stroke="#000000" points="365.5,-403.5 365.5,-422.5 452.5,-422.5 452.5,-403.5 365.5,-403.5"/>
<text text-anchor="middle" x="409" y="-410.5" font-family="Helvetica,sans-Serif" font-size="10.00" fill="#000000">cxx/capability.h</text>
</a>
</g>
</g>
<!-- Node21&#45;&gt;Node24 -->
<g id="edge49" class="edge">
<title>Node21&#45;&gt;Node24</title>
<path fill="none" stroke="#191970" d="M344.5866,-459.2455C356.3305,-450.814 373.5199,-438.4729 387.1882,-428.6598"/>
<polygon fill="#191970" stroke="#191970" points="389.4871,-431.3179 395.5691,-422.6427 385.4046,-425.6316 389.4871,-431.3179"/>
</g>
<!-- Node23&#45;&gt;Node13 -->
<g id="edge47" class="edge">
<title>Node23&#45;&gt;Node13</title>
<path fill="none" stroke="#191970" d="M234.5226,-403.308C244.1852,-387.163 265.66,-354.6935 292,-336 364.4379,-284.5909 465.6553,-256.2595 524.4668,-243.1744"/>
<polygon fill="#191970" stroke="#191970" points="525.5547,-246.52 534.5862,-240.9807 524.0716,-239.6789 525.5547,-246.52"/>
</g>
<!-- Node23&#45;&gt;Node16 -->
<g id="edge48" class="edge">
<title>Node23&#45;&gt;Node16</title>
<path fill="none" stroke="#191970" d="M243.3825,-403.4994C267.4055,-387.9176 317.5474,-356.6077 363,-336 450.3324,-296.4045 557.8443,-263.1949 616.9141,-246.2011"/>
<polygon fill="#191970" stroke="#191970" points="618.0116,-249.5277 626.6662,-243.4164 616.0896,-242.7967 618.0116,-249.5277"/>
</g>
<!-- Node23&#45;&gt;Node22 -->
<g id="edge46" class="edge">
<title>Node23&#45;&gt;Node22</title>
<path fill="none" stroke="#191970" d="M215.5625,-403.3906C201.9305,-393.6421 180.6154,-378.3994 164.6078,-366.9521"/>
<polygon fill="#191970" stroke="#191970" points="166.5132,-364.0118 156.3431,-361.0419 162.4414,-369.7057 166.5132,-364.0118"/>
</g>
<!-- Node24&#45;&gt;Node6 -->
<g id="edge51" class="edge">
<title>Node24&#45;&gt;Node6</title>
<path fill="none" stroke="#191970" d="M394.3148,-403.2577C383.3846,-395.0536 369.3102,-382.2342 363,-367 338.6583,-308.2339 368.502,-231.8645 385.1889,-196.9355"/>
<polygon fill="#191970" stroke="#191970" points="388.3817,-198.3747 389.6811,-187.8599 382.1082,-195.2694 388.3817,-198.3747"/>
</g>
<!-- Node24&#45;&gt;Node10 -->
<g id="edge50" class="edge">
<title>Node24&#45;&gt;Node10</title>
<path fill="none" stroke="#191970" d="M394.9681,-403.3736C382.8376,-394.6723 365.222,-381.0991 352,-367 280.2929,-290.5363 214.3792,-182.8206 189.4925,-140.2931"/>
<polygon fill="#191970" stroke="#191970" points="192.4869,-138.4797 184.4404,-131.5873 186.4325,-141.9932 192.4869,-138.4797"/>
</g>
<!-- Node24&#45;&gt;Node25 -->
<g id="edge52" class="edge">
<title>Node24&#45;&gt;Node25</title>
<path fill="none" stroke="#191970" d="M409,-403.3906C409,-394.8657 409,-382.1392 409,-371.4235"/>
<polygon fill="#191970" stroke="#191970" points="412.5001,-371.2448 409,-361.2449 405.5001,-371.2449 412.5001,-371.2448"/>
</g>
<!-- Node25&#45;&gt;Node6 -->
<g id="edge53" class="edge">
<title>Node25&#45;&gt;Node6</title>
<path fill="none" stroke="#191970" d="M408.2274,-341.9248C406.0143,-314.499 399.6181,-235.232 396.6055,-197.8964"/>
<polygon fill="#191970" stroke="#191970" points="400.0806,-197.4456 395.7875,-187.7595 393.1032,-198.0087 400.0806,-197.4456"/>
</g>
<!-- Node25&#45;&gt;Node13 -->
<g id="edge54" class="edge">
<title>Node25&#45;&gt;Node13</title>
<path fill="none" stroke="#191970" d="M422.339,-341.8845C450.3971,-321.6585 515.7553,-274.5445 550.0699,-249.8085"/>
<polygon fill="#191970" stroke="#191970" points="552.4113,-252.4353 558.4767,-243.7484 548.318,-246.7568 552.4113,-252.4353"/>
</g>
<!-- Node25&#45;&gt;Node15 -->
<g id="edge55" class="edge">
<title>Node25&#45;&gt;Node15</title>
<path fill="none" stroke="#191970" d="M446.152,-344.0817C503.021,-332.7263 611.4621,-311.0733 672.4641,-298.8927"/>
<polygon fill="#191970" stroke="#191970" points="673.4347,-302.2681 682.5557,-296.8777 672.0639,-295.4036 673.4347,-302.2681"/>
</g>
<!-- Node26&#45;&gt;Node20 -->
<g id="edge58" class="edge">
<title>Node26&#45;&gt;Node20</title>
<path fill="none" stroke="#191970" d="M382.169,-627.4509C404.5983,-608.2747 455.3357,-564.8962 483.0532,-541.1988"/>
<polygon fill="#191970" stroke="#191970" points="485.5329,-543.6835 490.8593,-534.5249 480.9841,-538.363 485.5329,-543.6835"/>
</g>
<!-- Node26&#45;&gt;Node27 -->
<g id="edge59" class="edge">
<title>Node26&#45;&gt;Node27</title>
<path fill="none" stroke="#191970" d="M363.6842,-627.2455C357.7821,-619.3761 349.3258,-608.101 342.2406,-598.6542"/>
<polygon fill="#191970" stroke="#191970" points="345.0321,-596.5427 336.232,-590.6427 339.432,-600.7427 345.0321,-596.5427"/>
</g>
<!-- Node29 -->
<g id="node30" class="node">
<title>Node29</title>
<g id="a_node30"><a xlink:href="ipc__string_source.html" target="_top" xlink:title="cxx/ipc_string">
<polygon fill="#ffffff" stroke="#000000" points="161.5,-571.5 161.5,-590.5 242.5,-590.5 242.5,-571.5 161.5,-571.5"/>
<text text-anchor="middle" x="202" y="-578.5" font-family="Helvetica,sans-Serif" font-size="10.00" fill="#000000">cxx/ipc_string</text>
</a>
</g>
</g>
<!-- Node26&#45;&gt;Node29 -->
<g id="edge66" class="edge">
<title>Node26&#45;&gt;Node29</title>
<path fill="none" stroke="#191970" d="M341.9479,-627.3733C313.8457,-618.0613 271.0946,-603.8953 240.2393,-593.671"/>
<polygon fill="#191970" stroke="#191970" points="241.2664,-590.3243 230.673,-590.5011 239.0645,-596.969 241.2664,-590.3243"/>
</g>
<!-- Node27&#45;&gt;Node21 -->
<g id="edge65" class="edge">
<title>Node27&#45;&gt;Node21</title>
<path fill="none" stroke="#191970" d="M329.1705,-571.4509C329.4967,-553.184 330.2151,-512.9553 330.6483,-488.6976"/>
<polygon fill="#191970" stroke="#191970" points="334.1507,-488.5858 330.8299,-478.5249 327.1518,-488.4608 334.1507,-488.5858"/>
</g>
<!-- Node27&#45;&gt;Node23 -->
<g id="edge60" class="edge">
<title>Node27&#45;&gt;Node23</title>
<path fill="none" stroke="#191970" d="M323.337,-571.4862C307.3241,-544.5845 261.4996,-467.5994 240.171,-431.7673"/>
<polygon fill="#191970" stroke="#191970" points="242.9723,-429.6306 234.8499,-422.8279 236.9573,-433.211 242.9723,-429.6306"/>
</g>
<!-- Node27&#45;&gt;Node28 -->
<g id="edge61" class="edge">
<title>Node27&#45;&gt;Node28</title>
<path fill="none" stroke="#191970" d="M338.5491,-571.4509C357.5599,-552.4401 400.3577,-509.6423 424.184,-485.816"/>
<polygon fill="#191970" stroke="#191970" points="426.8789,-488.0709 431.4751,-478.5249 421.9291,-483.1211 426.8789,-488.0709"/>
</g>
<!-- Node28&#45;&gt;Node22 -->
<g id="edge63" class="edge">
<title>Node28&#45;&gt;Node22</title>
<path fill="none" stroke="#191970" d="M423.2081,-459.376C397.4338,-445.6786 347.9747,-420.3061 304,-403 253.7687,-383.2316 239.3031,-383.7919 188,-367 185.438,-366.1614 182.7981,-365.2848 180.1418,-364.3936"/>
<polygon fill="#191970" stroke="#191970" points="181.155,-361.0414 170.5607,-361.1433 178.9062,-367.6704 181.155,-361.0414"/>
</g>
<!-- Node28&#45;&gt;Node23 -->
<g id="edge64" class="edge">
<title>Node28&#45;&gt;Node23</title>
<path fill="none" stroke="#191970" d="M404.5559,-459.3733C368.6931,-449.9001 313.8122,-435.4032 274.9718,-425.1435"/>
<polygon fill="#191970" stroke="#191970" points="275.5308,-421.6712 264.9685,-422.5011 273.743,-428.439 275.5308,-421.6712"/>
</g>
<!-- Node28&#45;&gt;Node24 -->
<g id="edge62" class="edge">
<title>Node28&#45;&gt;Node24</title>
<path fill="none" stroke="#191970" d="M435.426,-459.2455C431.0669,-451.617 424.8789,-440.7881 419.5867,-431.5267"/>
<polygon fill="#191970" stroke="#191970" points="422.5104,-429.5886 414.5101,-422.6427 416.4327,-433.0616 422.5104,-429.5886"/>
</g>
<!-- Node29&#45;&gt;Node22 -->
<g id="edge67" class="edge">
<title>Node29&#45;&gt;Node22</title>
<path fill="none" stroke="#191970" d="M176.4738,-571.3698C160.8579,-563.9914 142.1711,-552.1364 133,-535 104.2128,-481.2106 124.01,-405.3966 135.8728,-370.4712"/>
<polygon fill="#191970" stroke="#191970" points="139.1828,-371.6094 139.2371,-361.0147 132.5877,-369.263 139.1828,-371.6094"/>
</g>
<!-- Node29&#45;&gt;Node23 -->
<g id="edge68" class="edge">
<title>Node29&#45;&gt;Node23</title>
<path fill="none" stroke="#191970" d="M204.3622,-571.1723C206.5401,-561.8876 209.7645,-547.5518 212,-535 218.4095,-499.0127 223.8387,-456.6929 226.7392,-432.5407"/>
<polygon fill="#191970" stroke="#191970" points="230.2244,-432.8713 227.9209,-422.53 223.2727,-432.0507 230.2244,-432.8713"/>
</g>
<!-- Node30 -->
<g id="node31" class="node">
<title>Node30</title>
<g id="a_node31"><a xlink:href="ipc__array_source.html" target="_top" xlink:title="ipc_array">
<polygon fill="#ffffff" stroke="#000000" points="142.5,-515.5 142.5,-534.5 203.5,-534.5 203.5,-515.5 142.5,-515.5"/>
<text text-anchor="middle" x="173" y="-522.5" font-family="Helvetica,sans-Serif" font-size="10.00" fill="#000000">ipc_array</text>
</a>
</g>
</g>
<!-- Node29&#45;&gt;Node30 -->
<g id="edge69" class="edge">
<title>Node29&#45;&gt;Node30</title>
<path fill="none" stroke="#191970" d="M196.9486,-571.2455C192.9981,-563.617 187.3903,-552.7881 182.5942,-543.5267"/>
<polygon fill="#191970" stroke="#191970" points="185.7001,-541.9131 177.9935,-534.6427 179.4841,-545.1321 185.7001,-541.9131"/>
</g>
<!-- Node30&#45;&gt;Node22 -->
<g id="edge70" class="edge">
<title>Node30&#45;&gt;Node22</title>
<path fill="none" stroke="#191970" d="M171.3443,-515.4248C166.6021,-487.999 152.896,-408.732 146.4403,-371.3964"/>
<polygon fill="#191970" stroke="#191970" points="149.8403,-370.5169 144.6875,-361.2595 142.9426,-371.7097 149.8403,-370.5169"/>
</g>
<!-- Node30&#45;&gt;Node23 -->
<g id="edge71" class="edge">
<title>Node30&#45;&gt;Node23</title>
<path fill="none" stroke="#191970" d="M177.7745,-515.4509C187.032,-496.936 207.5705,-455.8591 219.6407,-431.7187"/>
<polygon fill="#191970" stroke="#191970" points="222.8959,-433.0344 224.2376,-422.5249 216.6349,-429.9039 222.8959,-433.0344"/>
</g>
<!-- Node30&#45;&gt;Node28 -->
<g id="edge72" class="edge">
<title>Node30&#45;&gt;Node28</title>
<path fill="none" stroke="#191970" d="M203.743,-518.5761C248.0094,-509.3264 330.4216,-492.1059 385.501,-480.5968"/>
<polygon fill="#191970" stroke="#191970" points="386.3794,-483.9889 395.4521,-478.5175 384.9476,-477.1369 386.3794,-483.9889"/>
</g>
<!-- Node31&#45;&gt;Node6 -->
<g id="edge75" class="edge">
<title>Node31&#45;&gt;Node6</title>
<path fill="none" stroke="#191970" d="M357.7145,-745.6263C245.8387,-737.1825 0,-710.2897 0,-637 0,-637 0,-637 0,-525 0,-362.8923 57.9126,-289.9471 206,-224 250.8857,-204.0113 305.8011,-191.8847 344.8463,-185.1402"/>
<polygon fill="#191970" stroke="#191970" points="345.628,-188.5582 354.9151,-183.4593 344.4752,-181.6538 345.628,-188.5582"/>
</g>
<!-- Node31&#45;&gt;Node18 -->
<g id="edge74" class="edge">
<title>Node31&#45;&gt;Node18</title>
<path fill="none" stroke="#191970" d="M466.0767,-741.6351C524.0915,-730.3356 608,-702.6458 608,-637 608,-637 608,-637 608,-469 608,-431.4014 586.6771,-391.7253 572.4549,-369.4434"/>
<polygon fill="#191970" stroke="#191970" points="575.315,-367.4231 566.8772,-361.0157 569.4776,-371.2865 575.315,-367.4231"/>
</g>
<!-- Node31&#45;&gt;Node19 -->
<g id="edge76" class="edge">
<title>Node31&#45;&gt;Node19</title>
<path fill="none" stroke="#191970" d="M409.3872,-739.2455C407.4084,-731.8579 404.6256,-721.4689 402.1988,-712.4087"/>
<polygon fill="#191970" stroke="#191970" points="405.5511,-711.3966 399.5829,-702.6427 398.7895,-713.2078 405.5511,-711.3966"/>
</g>
<!-- Node31&#45;&gt;Node27 -->
<g id="edge77" class="edge">
<title>Node31&#45;&gt;Node27</title>
<path fill="none" stroke="#191970" d="M389.9835,-739.4181C374.6849,-731.6857 354.9686,-719.3964 343,-703 320.9917,-672.8497 322.5394,-626.8725 325.7161,-600.8215"/>
<polygon fill="#191970" stroke="#191970" points="329.2153,-601.0753 327.1624,-590.6812 322.2854,-600.0868 329.2153,-601.0753"/>
</g>
<!-- Node32&#45;&gt;Node15 -->
<g id="edge81" class="edge">
<title>Node32&#45;&gt;Node15</title>
<path fill="none" stroke="#191970" d="M873.8403,-798.507C926.4857,-787.2311 1014,-758.6183 1014,-693 1014,-693 1014,-693 1014,-413 1014,-358.8894 843.5934,-316.1806 760.9357,-298.647"/>
<polygon fill="#191970" stroke="#191970" points="761.5742,-295.2049 751.0697,-296.5855 760.1424,-302.0569 761.5742,-295.2049"/>
</g>
</g>
</svg>
