<?xml version="1.0" encoding="UTF-8" standalone="no"?>
<!DOCTYPE svg PUBLIC "-//W3C//DTD SVG 1.1//EN"
 "http://www.w3.org/Graphics/SVG/1.1/DTD/svg11.dtd">
<!-- Generated by graphviz version 2.40.1 (20161225.0304)
 -->
<!-- Title: l4/cxx/main_thread Pages: 1 -->
<svg width="835pt" height="823pt"
 viewBox="0.00 0.00 834.72 823.00" xmlns="http://www.w3.org/2000/svg" xmlns:xlink="http://www.w3.org/1999/xlink">
<g id="graph0" class="graph" transform="scale(1 1) rotate(0) translate(4 819)">
<title>l4/cxx/main_thread</title>
<polygon fill="#ffffff" stroke="transparent" points="-4,4 -4,-819 830.7158,-819 830.7158,4 -4,4"/>
<!-- Node0 -->
<g id="node1" class="node">
<title>Node0</title>
<polygon fill="#bfbfbf" stroke="#000000" points="107,-795.5 107,-814.5 213,-814.5 213,-795.5 107,-795.5"/>
<text text-anchor="middle" x="160" y="-802.5" font-family="Helvetica,sans-Serif" font-size="10.00" fill="#000000">l4/cxx/main_thread</text>
</g>
<!-- Node1 -->
<g id="node2" class="node">
<title>Node1</title>
<g id="a_node2"><a xlink:href="cxx_2thread.html" target="_top" xlink:title="Thread implementation. ">
<polygon fill="#ffffff" stroke="#000000" points="121.5,-739.5 121.5,-758.5 198.5,-758.5 198.5,-739.5 121.5,-739.5"/>
<text text-anchor="middle" x="160" y="-746.5" font-family="Helvetica,sans-Serif" font-size="10.00" fill="#000000">l4/cxx/thread</text>
</a>
</g>
</g>
<!-- Node0&#45;&gt;Node1 -->
<g id="edge1" class="edge">
<title>Node0&#45;&gt;Node1</title>
<path fill="none" stroke="#191970" d="M160,-795.2455C160,-787.9382 160,-777.6944 160,-768.7046"/>
<polygon fill="#191970" stroke="#191970" points="163.5001,-768.6426 160,-758.6427 156.5001,-768.6427 163.5001,-768.6426"/>
</g>
<!-- Node2 -->
<g id="node3" class="node">
<title>Node2</title>
<g id="a_node3"><a xlink:href="capability.html" target="_top" xlink:title="L4::Cap related definitions. ">
<polygon fill="#ffffff" stroke="#000000" points="327,-683.5 327,-702.5 417,-702.5 417,-683.5 327,-683.5"/>
<text text-anchor="middle" x="372" y="-690.5" font-family="Helvetica,sans-Serif" font-size="10.00" fill="#000000">l4/sys/capability</text>
</a>
</g>
</g>
<!-- Node1&#45;&gt;Node2 -->
<g id="edge2" class="edge">
<title>Node1&#45;&gt;Node2</title>
<path fill="none" stroke="#191970" d="M196.4441,-739.3733C232.3069,-729.9001 287.1878,-715.4032 326.0282,-705.1435"/>
<polygon fill="#191970" stroke="#191970" points="327.257,-708.439 336.0315,-702.5011 325.4692,-701.6712 327.257,-708.439"/>
</g>
<!-- Node7 -->
<g id="node8" class="node">
<title>Node7</title>
<g id="a_node8"><a xlink:href="l4_2sys_2types_8h.html" target="_top" xlink:title="Common L4 ABI Data Types. ">
<polygon fill="#ffffff" stroke="#000000" points="205,-168.5 205,-187.5 285,-187.5 285,-168.5 205,-168.5"/>
<text text-anchor="middle" x="245" y="-175.5" font-family="Helvetica,sans-Serif" font-size="10.00" fill="#000000">l4/sys/types.h</text>
</a>
</g>
</g>
<!-- Node1&#45;&gt;Node7 -->
<g id="edge61" class="edge">
<title>Node1&#45;&gt;Node7</title>
<path fill="none" stroke="#191970" d="M121.2685,-740.0476C73.916,-726.537 0,-695.9984 0,-637 0,-637 0,-637 0,-290 0,-252.9295 19.8477,-244.0936 51,-224 74.4906,-208.8483 145.5605,-194.5053 194.8235,-185.9815"/>
<polygon fill="#191970" stroke="#191970" points="195.7088,-189.3813 204.9797,-184.2528 194.5341,-182.4805 195.7088,-189.3813"/>
</g>
<!-- Node3 -->
<g id="node4" class="node">
<title>Node3</title>
<g id="a_node4"><a xlink:href="l4_2sys_2consts_8h.html" target="_top" xlink:title="Common constants. ">
<polygon fill="#ffffff" stroke="#000000" points="498,-112.5 498,-131.5 584,-131.5 584,-112.5 498,-112.5"/>
<text text-anchor="middle" x="541" y="-119.5" font-family="Helvetica,sans-Serif" font-size="10.00" fill="#000000">l4/sys/consts.h</text>
</a>
</g>
</g>
<!-- Node2&#45;&gt;Node3 -->
<g id="edge3" class="edge">
<title>Node2&#45;&gt;Node3</title>
<path fill="none" stroke="#191970" d="M380.9063,-683.3544C396.9375,-664.945 429,-622.8901 429,-581 429,-581 429,-581 429,-469 429,-438.3494 434.9774,-430.2548 449,-403 477.9975,-346.6393 536,-353.3828 536,-290 536,-290 536,-290 536,-234 536,-201.6794 538.1037,-164.1646 539.582,-141.7929"/>
<polygon fill="#191970" stroke="#191970" points="543.0898,-141.7984 540.2836,-131.5819 536.1063,-141.3185 543.0898,-141.7984"/>
</g>
<!-- Node2&#45;&gt;Node7 -->
<g id="edge7" class="edge">
<title>Node2&#45;&gt;Node7</title>
<path fill="none" stroke="#191970" d="M326.9553,-687.4946C235.7876,-675.0918 38,-641.242 38,-581 38,-581 38,-581 38,-290 38,-219.1212 133.0415,-192.8735 194.3248,-183.3162"/>
<polygon fill="#191970" stroke="#191970" points="195.206,-186.7249 204.5969,-181.8197 194.1968,-179.798 195.206,-186.7249"/>
</g>
<!-- Node10 -->
<g id="node11" class="node">
<title>Node10</title>
<g id="a_node11"><a xlink:href="kobject_source.html" target="_top" xlink:title="l4/sys/kobject">
<polygon fill="#ffffff" stroke="#000000" points="283,-515.5 283,-534.5 363,-534.5 363,-515.5 283,-515.5"/>
<text text-anchor="middle" x="323" y="-522.5" font-family="Helvetica,sans-Serif" font-size="10.00" fill="#000000">l4/sys/kobject</text>
</a>
</g>
</g>
<!-- Node2&#45;&gt;Node10 -->
<g id="edge15" class="edge">
<title>Node2&#45;&gt;Node10</title>
<path fill="none" stroke="#191970" d="M369.2252,-683.4862C361.4459,-656.8144 339.3076,-580.9117 328.7444,-544.695"/>
<polygon fill="#191970" stroke="#191970" points="332.0265,-543.4479 325.8665,-534.8279 325.3065,-545.4079 332.0265,-543.4479"/>
</g>
<!-- Node20 -->
<g id="node21" class="node">
<title>Node20</title>
<g id="a_node21"><a xlink:href="l4_2sys_2task_8h.html" target="_top" xlink:title="Common task related definitions. ">
<polygon fill="#ffffff" stroke="#000000" points="358,-342 358,-361 432,-361 432,-342 358,-342"/>
<text text-anchor="middle" x="395" y="-349" font-family="Helvetica,sans-Serif" font-size="10.00" fill="#000000">l4/sys/task.h</text>
</a>
</g>
</g>
<!-- Node2&#45;&gt;Node20 -->
<g id="edge44" class="edge">
<title>Node2&#45;&gt;Node20</title>
<path fill="none" stroke="#191970" d="M374.8035,-683.2066C380.0887,-663.8521 391,-619.2612 391,-581 391,-581 391,-581 391,-469 391,-434.62 392.7316,-394.6143 393.9162,-371.2694"/>
<polygon fill="#191970" stroke="#191970" points="397.4133,-371.4153 394.4438,-361.2451 390.423,-371.0473 397.4133,-371.4153"/>
</g>
<!-- Node21 -->
<g id="node22" class="node">
<title>Node21</title>
<g id="a_node22"><a xlink:href="sys_2meta.html" target="_top" xlink:title="Meta interface for getting dynamic type information about objects behind capabilities. ">
<polygon fill="#ffffff" stroke="#000000" points="466,-627.5 466,-646.5 536,-646.5 536,-627.5 466,-627.5"/>
<text text-anchor="middle" x="501" y="-634.5" font-family="Helvetica,sans-Serif" font-size="10.00" fill="#000000">l4/sys/meta</text>
</a>
</g>
</g>
<!-- Node2&#45;&gt;Node21 -->
<g id="edge45" class="edge">
<title>Node2&#45;&gt;Node21</title>
<path fill="none" stroke="#191970" d="M394.1759,-683.3733C414.9766,-674.3435 446.2917,-660.7494 469.6458,-650.6111"/>
<polygon fill="#191970" stroke="#191970" points="471.3343,-653.6938 479.1135,-646.5011 468.5468,-647.2727 471.3343,-653.6938"/>
</g>
<!-- Node4 -->
<g id="node5" class="node">
<title>Node4</title>
<g id="a_node5"><a xlink:href="compiler_8h.html" target="_top" xlink:title="L4 compiler related defines. ">
<polygon fill="#ffffff" stroke="#000000" points="528.5,-56.5 528.5,-75.5 623.5,-75.5 623.5,-56.5 528.5,-56.5"/>
<text text-anchor="middle" x="576" y="-63.5" font-family="Helvetica,sans-Serif" font-size="10.00" fill="#000000">l4/sys/compiler.h</text>
</a>
</g>
</g>
<!-- Node3&#45;&gt;Node4 -->
<g id="edge4" class="edge">
<title>Node3&#45;&gt;Node4</title>
<path fill="none" stroke="#191970" d="M547.0965,-112.2455C551.9145,-104.5367 558.7751,-93.5598 564.6032,-84.2348"/>
<polygon fill="#191970" stroke="#191970" points="567.6413,-85.9777 569.9733,-75.6427 561.7053,-82.2677 567.6413,-85.9777"/>
</g>
<!-- Node6 -->
<g id="node7" class="node">
<title>Node6</title>
<g id="a_node7"><a xlink:href="l4_2sys_2l4int_8h.html" target="_top" xlink:title="Fixed sized integer types, generic version. ">
<polygon fill="#ffffff" stroke="#000000" points="250,-56.5 250,-75.5 324,-75.5 324,-56.5 250,-56.5"/>
<text text-anchor="middle" x="287" y="-63.5" font-family="Helvetica,sans-Serif" font-size="10.00" fill="#000000">l4/sys/l4int.h</text>
</a>
</g>
</g>
<!-- Node3&#45;&gt;Node6 -->
<g id="edge6" class="edge">
<title>Node3&#45;&gt;Node6</title>
<path fill="none" stroke="#191970" d="M497.9124,-112.5004C452.4199,-102.4705 380.9262,-86.7081 334.0048,-76.3633"/>
<polygon fill="#191970" stroke="#191970" points="334.6121,-72.9132 324.0931,-74.178 333.105,-79.749 334.6121,-72.9132"/>
</g>
<!-- Node5 -->
<g id="node6" class="node">
<title>Node5</title>
<polygon fill="#ffffff" stroke="#bfbfbf" points="531.5,-.5 531.5,-19.5 620.5,-19.5 620.5,-.5 531.5,-.5"/>
<text text-anchor="middle" x="576" y="-7.5" font-family="Helvetica,sans-Serif" font-size="10.00" fill="#000000">l4/sys/linkage.h</text>
</g>
<!-- Node4&#45;&gt;Node5 -->
<g id="edge5" class="edge">
<title>Node4&#45;&gt;Node5</title>
<path fill="none" stroke="#191970" d="M576,-56.2455C576,-48.9382 576,-38.6944 576,-29.7046"/>
<polygon fill="#191970" stroke="#191970" points="579.5001,-29.6426 576,-19.6427 572.5001,-29.6427 579.5001,-29.6426"/>
</g>
<!-- Node7&#45;&gt;Node3 -->
<g id="edge10" class="edge">
<title>Node7&#45;&gt;Node3</title>
<path fill="none" stroke="#191970" d="M285.1625,-170.4749C331.5437,-161.7743 410.4165,-146.947 487.9357,-132.1979"/>
<polygon fill="#191970" stroke="#191970" points="488.7031,-135.6148 497.8721,-130.3064 487.394,-128.7383 488.7031,-135.6148"/>
</g>
<!-- Node7&#45;&gt;Node4 -->
<g id="edge9" class="edge">
<title>Node7&#45;&gt;Node4</title>
<path fill="none" stroke="#191970" d="M258.8617,-168.4297C280.256,-154.0898 323.0381,-127.1027 363,-112 413.7815,-92.8083 474.5574,-80.6787 518.168,-73.7241"/>
<polygon fill="#191970" stroke="#191970" points="518.9666,-77.1422 528.3117,-72.1503 517.8933,-70.2249 518.9666,-77.1422"/>
</g>
<!-- Node7&#45;&gt;Node6 -->
<g id="edge8" class="edge">
<title>Node7&#45;&gt;Node6</title>
<path fill="none" stroke="#191970" d="M248.5809,-168.4509C255.493,-150.0186 270.7905,-109.2254 279.8589,-85.043"/>
<polygon fill="#191970" stroke="#191970" points="283.194,-86.1171 283.4282,-75.5249 276.6397,-83.6592 283.194,-86.1171"/>
</g>
<!-- Node8 -->
<g id="node9" class="node">
<title>Node8</title>
<g id="a_node9"><a xlink:href="____l4__fpage_8h_source.html" target="_top" xlink:title="l4/sys/__l4_fpage.h">
<polygon fill="#ffffff" stroke="#000000" points="372,-112.5 372,-131.5 480,-131.5 480,-112.5 372,-112.5"/>
<text text-anchor="middle" x="426" y="-119.5" font-family="Helvetica,sans-Serif" font-size="10.00" fill="#000000">l4/sys/__l4_fpage.h</text>
</a>
</g>
</g>
<!-- Node7&#45;&gt;Node8 -->
<g id="edge11" class="edge">
<title>Node7&#45;&gt;Node8</title>
<path fill="none" stroke="#191970" d="M276.115,-168.3733C306.3429,-159.021 352.396,-144.7725 385.4739,-134.5385"/>
<polygon fill="#191970" stroke="#191970" points="386.7723,-137.8005 395.291,-131.5011 384.7033,-131.1133 386.7723,-137.8005"/>
</g>
<!-- Node9 -->
<g id="node10" class="node">
<title>Node9</title>
<g id="a_node10"><a xlink:href="____timeout_8h_source.html" target="_top" xlink:title="l4/sys/__timeout.h">
<polygon fill="#ffffff" stroke="#000000" points="138.5,-112.5 138.5,-131.5 239.5,-131.5 239.5,-112.5 138.5,-112.5"/>
<text text-anchor="middle" x="189" y="-119.5" font-family="Helvetica,sans-Serif" font-size="10.00" fill="#000000">l4/sys/__timeout.h</text>
</a>
</g>
</g>
<!-- Node7&#45;&gt;Node9 -->
<g id="edge13" class="edge">
<title>Node7&#45;&gt;Node9</title>
<path fill="none" stroke="#191970" d="M235.2455,-168.2455C227.1352,-160.1352 215.4075,-148.4075 205.7919,-138.7919"/>
<polygon fill="#191970" stroke="#191970" points="208.1887,-136.2389 198.6427,-131.6427 203.2389,-141.1887 208.1887,-136.2389"/>
</g>
<!-- Node8&#45;&gt;Node4 -->
<g id="edge12" class="edge">
<title>Node8&#45;&gt;Node4</title>
<path fill="none" stroke="#191970" d="M451.7859,-112.3733C476.4047,-103.1822 513.69,-89.2624 540.9875,-79.0713"/>
<polygon fill="#191970" stroke="#191970" points="542.4063,-82.2777 550.5506,-75.5011 539.958,-75.7198 542.4063,-82.2777"/>
</g>
<!-- Node9&#45;&gt;Node6 -->
<g id="edge14" class="edge">
<title>Node9&#45;&gt;Node6</title>
<path fill="none" stroke="#191970" d="M206.0703,-112.2455C221.247,-103.5731 243.6621,-90.7645 261.0563,-80.825"/>
<polygon fill="#191970" stroke="#191970" points="263.1794,-83.643 270.1253,-75.6427 259.7064,-77.5653 263.1794,-83.643"/>
</g>
<!-- Node10&#45;&gt;Node7 -->
<g id="edge30" class="edge">
<title>Node10&#45;&gt;Node7</title>
<path fill="none" stroke="#191970" d="M282.7655,-515.5638C212.7751,-497.969 76,-457.848 76,-413 76,-413 76,-413 76,-290 76,-232.2524 145.4105,-202.5222 195.2655,-188.6162"/>
<polygon fill="#191970" stroke="#191970" points="196.1839,-191.9936 204.9494,-186.0423 194.3858,-185.2285 196.1839,-191.9936"/>
</g>
<!-- Node11 -->
<g id="node12" class="node">
<title>Node11</title>
<g id="a_node12"><a xlink:href="kernel__object_8h.html" target="_top" xlink:title="Kernel object system calls. ">
<polygon fill="#ffffff" stroke="#000000" points="238,-403.5 238,-422.5 326,-422.5 326,-403.5 238,-403.5"/>
<text text-anchor="middle" x="282" y="-410.5" font-family="Helvetica,sans-Serif" font-size="10.00" fill="#000000">kernel_object.h</text>
</a>
</g>
</g>
<!-- Node10&#45;&gt;Node11 -->
<g id="edge16" class="edge">
<title>Node10&#45;&gt;Node11</title>
<path fill="none" stroke="#191970" d="M319.5044,-515.4509C312.7568,-497.0186 297.8236,-456.2254 288.9711,-432.043"/>
<polygon fill="#191970" stroke="#191970" points="292.2112,-430.7123 285.4868,-422.5249 285.6378,-433.1187 292.2112,-430.7123"/>
</g>
<!-- Node16 -->
<g id="node17" class="node">
<title>Node16</title>
<g id="a_node17"><a xlink:href="____typeinfo_8h.html" target="_top" xlink:title="Type information handling. ">
<polygon fill="#ffffff" stroke="#000000" points="457,-459.5 457,-478.5 531,-478.5 531,-459.5 457,-459.5"/>
<text text-anchor="middle" x="494" y="-466.5" font-family="Helvetica,sans-Serif" font-size="10.00" fill="#000000">__typeinfo.h</text>
</a>
</g>
</g>
<!-- Node10&#45;&gt;Node16 -->
<g id="edge31" class="edge">
<title>Node10&#45;&gt;Node16</title>
<path fill="none" stroke="#191970" d="M352.3959,-515.3733C380.8307,-506.0613 424.0877,-491.8953 455.3081,-481.671"/>
<polygon fill="#191970" stroke="#191970" points="456.5736,-484.9396 464.9876,-478.5011 454.395,-478.2872 456.5736,-484.9396"/>
</g>
<!-- Node11&#45;&gt;Node4 -->
<g id="edge18" class="edge">
<title>Node11&#45;&gt;Node4</title>
<path fill="none" stroke="#191970" d="M326.2409,-408.2146C360.2044,-402.7522 406.9052,-391.2015 441,-367 545.4843,-292.8339 569.0449,-254.0659 608,-132 613.4624,-114.8835 603.1832,-96.586 592.855,-83.6087"/>
<polygon fill="#191970" stroke="#191970" points="595.4048,-81.2061 586.2258,-75.9149 590.1018,-85.7753 595.4048,-81.2061"/>
</g>
<!-- Node11&#45;&gt;Node7 -->
<g id="edge17" class="edge">
<title>Node11&#45;&gt;Node7</title>
<path fill="none" stroke="#191970" d="M244.0512,-403.4828C212.6452,-394.7482 171.6709,-381.0642 162,-367 122.1685,-309.0735 192.1146,-228.9473 226.9882,-194.6555"/>
<polygon fill="#191970" stroke="#191970" points="229.4506,-197.1434 234.2362,-187.6909 224.6005,-192.0959 229.4506,-197.1434"/>
</g>
<!-- Node12 -->
<g id="node13" class="node">
<title>Node12</title>
<g id="a_node13"><a xlink:href="l4_2sys_2utcb_8h.html" target="_top" xlink:title="UTCB definitions. ">
<polygon fill="#ffffff" stroke="#000000" points="396,-224.5 396,-243.5 470,-243.5 470,-224.5 396,-224.5"/>
<text text-anchor="middle" x="433" y="-231.5" font-family="Helvetica,sans-Serif" font-size="10.00" fill="#000000">l4/sys/utcb.h</text>
</a>
</g>
</g>
<!-- Node11&#45;&gt;Node12 -->
<g id="edge19" class="edge">
<title>Node11&#45;&gt;Node12</title>
<path fill="none" stroke="#191970" d="M237.9058,-406.7212C213.7993,-400.7919 185.8903,-389.289 171,-367 163.3465,-355.5435 165.8434,-348.7764 171,-336 183.9405,-303.9376 194.8349,-296.8974 225,-280 252.0733,-264.8344 333.0309,-249.7851 385.595,-241.2163"/>
<polygon fill="#191970" stroke="#191970" points="386.3873,-244.634 395.7049,-239.5909 385.2761,-237.7227 386.3873,-244.634"/>
</g>
<!-- Node13 -->
<g id="node14" class="node">
<title>Node13</title>
<g id="a_node14"><a xlink:href="____kernel__object__impl_8h.html" target="_top" xlink:title="Low&#45;level kernel debugger functions. ">
<polygon fill="#ffffff" stroke="#000000" points="180,-336.5 180,-366.5 302,-366.5 302,-336.5 180,-336.5"/>
<text text-anchor="start" x="188" y="-354.5" font-family="Helvetica,sans-Serif" font-size="10.00" fill="#000000">l4/sys/__kernel_object</text>
<text text-anchor="middle" x="241" y="-343.5" font-family="Helvetica,sans-Serif" font-size="10.00" fill="#000000">_impl.h</text>
</a>
</g>
</g>
<!-- Node11&#45;&gt;Node13 -->
<g id="edge23" class="edge">
<title>Node11&#45;&gt;Node13</title>
<path fill="none" stroke="#191970" d="M275.5938,-403.3906C270.5587,-395.838 263.3251,-384.9876 256.7729,-375.1593"/>
<polygon fill="#191970" stroke="#191970" points="259.489,-372.9236 251.0297,-366.5446 253.6646,-376.8066 259.489,-372.9236"/>
</g>
<!-- Node14 -->
<g id="node15" class="node">
<title>Node14</title>
<g id="a_node15"><a xlink:href="l4_2sys_2ipc_8h.html" target="_top" xlink:title="Common IPC interface. ">
<polygon fill="#ffffff" stroke="#000000" points="234,-280.5 234,-299.5 302,-299.5 302,-280.5 234,-280.5"/>
<text text-anchor="middle" x="268" y="-287.5" font-family="Helvetica,sans-Serif" font-size="10.00" fill="#000000">l4/sys/ipc.h</text>
</a>
</g>
</g>
<!-- Node11&#45;&gt;Node14 -->
<g id="edge29" class="edge">
<title>Node11&#45;&gt;Node14</title>
<path fill="none" stroke="#191970" d="M290.4977,-403.2186C297.5403,-394.4179 307.0171,-380.786 311,-367 314.8241,-353.7636 316.0573,-348.816 311,-336 306.4531,-324.4774 297.5068,-314.143 288.9466,-306.2024"/>
<polygon fill="#191970" stroke="#191970" points="291.1847,-303.5106 281.331,-299.6175 286.6062,-308.8057 291.1847,-303.5106"/>
</g>
<!-- Node12&#45;&gt;Node4 -->
<g id="edge21" class="edge">
<title>Node12&#45;&gt;Node4</title>
<path fill="none" stroke="#191970" d="M464.2409,-224.4264C502.5278,-210.8152 565.6753,-181.8245 593,-132 601.1495,-117.14 594.8577,-98.2473 587.7335,-84.4865"/>
<polygon fill="#191970" stroke="#191970" points="590.5981,-82.4454 582.5934,-75.5045 584.5226,-85.9222 590.5981,-82.4454"/>
</g>
<!-- Node12&#45;&gt;Node6 -->
<g id="edge22" class="edge">
<title>Node12&#45;&gt;Node6</title>
<path fill="none" stroke="#191970" d="M424.7321,-224.4862C401.0534,-197.2396 332.7269,-118.6172 302.1298,-83.4096"/>
<polygon fill="#191970" stroke="#191970" points="304.7423,-81.08 295.5409,-75.8279 299.4587,-85.6718 304.7423,-81.08"/>
</g>
<!-- Node12&#45;&gt;Node7 -->
<g id="edge20" class="edge">
<title>Node12&#45;&gt;Node7</title>
<path fill="none" stroke="#191970" d="M400.6816,-224.3733C369.1494,-214.9807 321.0379,-200.6496 286.6499,-190.4064"/>
<polygon fill="#191970" stroke="#191970" points="287.4797,-187.0016 276.8966,-187.5011 285.4813,-193.7103 287.4797,-187.0016"/>
</g>
<!-- Node13&#45;&gt;Node14 -->
<g id="edge24" class="edge">
<title>Node13&#45;&gt;Node14</title>
<path fill="none" stroke="#191970" d="M247.6742,-336.2977C251.2659,-328.1166 255.7324,-317.943 259.5629,-309.2179"/>
<polygon fill="#191970" stroke="#191970" points="262.8618,-310.4104 263.677,-299.8469 256.4522,-307.5964 262.8618,-310.4104"/>
</g>
<!-- Node14&#45;&gt;Node7 -->
<g id="edge25" class="edge">
<title>Node14&#45;&gt;Node7</title>
<path fill="none" stroke="#191970" d="M266.039,-280.4509C262.2708,-262.1013 253.9517,-221.5908 248.9776,-197.3693"/>
<polygon fill="#191970" stroke="#191970" points="252.3961,-196.6164 246.956,-187.5249 245.5392,-198.0246 252.3961,-196.6164"/>
</g>
<!-- Node14&#45;&gt;Node12 -->
<g id="edge26" class="edge">
<title>Node14&#45;&gt;Node12</title>
<path fill="none" stroke="#191970" d="M296.3645,-280.3733C323.6827,-271.1016 365.1796,-257.0178 395.2738,-246.804"/>
<polygon fill="#191970" stroke="#191970" points="396.661,-250.0294 405.0056,-243.5011 394.4113,-243.4008 396.661,-250.0294"/>
</g>
<!-- Node15 -->
<g id="node16" class="node">
<title>Node15</title>
<g id="a_node16"><a xlink:href="err_8h.html" target="_top" xlink:title="Error codes. ">
<polygon fill="#ffffff" stroke="#000000" points="616,-224.5 616,-243.5 684,-243.5 684,-224.5 616,-224.5"/>
<text text-anchor="middle" x="650" y="-231.5" font-family="Helvetica,sans-Serif" font-size="10.00" fill="#000000">l4/sys/err.h</text>
</a>
</g>
</g>
<!-- Node14&#45;&gt;Node15 -->
<g id="edge27" class="edge">
<title>Node14&#45;&gt;Node15</title>
<path fill="none" stroke="#191970" d="M302.2361,-284.9811C371.5852,-274.8147 528.5925,-251.798 605.6523,-240.5012"/>
<polygon fill="#191970" stroke="#191970" points="606.5912,-243.9011 615.9778,-238.9876 605.5758,-236.9751 606.5912,-243.9011"/>
</g>
<!-- Node15&#45;&gt;Node4 -->
<g id="edge28" class="edge">
<title>Node15&#45;&gt;Node4</title>
<path fill="none" stroke="#191970" d="M654.8877,-224.2761C665.119,-202.4192 686.0891,-148.4715 664,-112 654.8174,-96.8386 638.8152,-86.4355 622.9528,-79.4143"/>
<polygon fill="#191970" stroke="#191970" points="624.2647,-76.1695 613.682,-75.6607 621.6376,-82.6579 624.2647,-76.1695"/>
</g>
<!-- Node17 -->
<g id="node18" class="node">
<title>Node17</title>
<g id="a_node18"><a xlink:href="types.html" target="_top" xlink:title="cxx/types">
<polygon fill="#ffffff" stroke="#000000" points="682.5,-342 682.5,-361 743.5,-361 743.5,-342 682.5,-342"/>
<text text-anchor="middle" x="713" y="-349" font-family="Helvetica,sans-Serif" font-size="10.00" fill="#000000">cxx/types</text>
</a>
</g>
</g>
<!-- Node16&#45;&gt;Node17 -->
<g id="edge32" class="edge">
<title>Node16&#45;&gt;Node17</title>
<path fill="none" stroke="#191970" d="M506.5074,-459.4352C524.6773,-445.8098 559.7343,-420.5242 592,-403 619.5075,-388.0601 652.2587,-374.3506 676.7462,-364.839"/>
<polygon fill="#191970" stroke="#191970" points="678.2763,-368.0009 686.3618,-361.1543 675.7714,-361.4644 678.2763,-368.0009"/>
</g>
<!-- Node18 -->
<g id="node19" class="node">
<title>Node18</title>
<g id="a_node19"><a xlink:href="ipc__basics_source.html" target="_top" xlink:title="cxx/ipc_basics">
<polygon fill="#ffffff" stroke="#000000" points="601,-403.5 601,-422.5 685,-422.5 685,-403.5 601,-403.5"/>
<text text-anchor="middle" x="643" y="-410.5" font-family="Helvetica,sans-Serif" font-size="10.00" fill="#000000">cxx/ipc_basics</text>
</a>
</g>
</g>
<!-- Node16&#45;&gt;Node18 -->
<g id="edge33" class="edge">
<title>Node16&#45;&gt;Node18</title>
<path fill="none" stroke="#191970" d="M519.614,-459.3733C544.0687,-450.1822 581.1054,-436.2624 608.2209,-426.0713"/>
<polygon fill="#191970" stroke="#191970" points="609.5909,-429.2956 617.7202,-422.5011 607.1281,-422.7431 609.5909,-429.2956"/>
</g>
<!-- Node19 -->
<g id="node20" class="node">
<title>Node19</title>
<g id="a_node20"><a xlink:href="capability_8h_source.html" target="_top" xlink:title="cxx/capability.h">
<polygon fill="#ffffff" stroke="#000000" points="457.5,-403.5 457.5,-422.5 544.5,-422.5 544.5,-403.5 457.5,-403.5"/>
<text text-anchor="middle" x="501" y="-410.5" font-family="Helvetica,sans-Serif" font-size="10.00" fill="#000000">cxx/capability.h</text>
</a>
</g>
</g>
<!-- Node16&#45;&gt;Node19 -->
<g id="edge37" class="edge">
<title>Node16&#45;&gt;Node19</title>
<path fill="none" stroke="#191970" d="M495.2193,-459.2455C496.1327,-451.9382 497.4132,-441.6944 498.5369,-432.7046"/>
<polygon fill="#191970" stroke="#191970" points="502.0272,-432.9996 499.7947,-422.6427 495.0813,-432.1313 502.0272,-432.9996"/>
</g>
<!-- Node18&#45;&gt;Node12 -->
<g id="edge35" class="edge">
<title>Node18&#45;&gt;Node12</title>
<path fill="none" stroke="#191970" d="M631.7095,-403.3762C597.5255,-374.2384 494.8791,-286.7445 452.0719,-250.2565"/>
<polygon fill="#191970" stroke="#191970" points="454.2273,-247.4948 444.3463,-243.6714 449.6863,-252.8221 454.2273,-247.4948"/>
</g>
<!-- Node18&#45;&gt;Node15 -->
<g id="edge36" class="edge">
<title>Node18&#45;&gt;Node15</title>
<path fill="none" stroke="#191970" d="M643.3764,-403.3762C644.4778,-375.2097 647.7118,-292.5126 649.2151,-254.0713"/>
<polygon fill="#191970" stroke="#191970" points="652.7283,-253.8006 649.6218,-243.6714 645.7336,-253.527 652.7283,-253.8006"/>
</g>
<!-- Node18&#45;&gt;Node17 -->
<g id="edge34" class="edge">
<title>Node18&#45;&gt;Node17</title>
<path fill="none" stroke="#191970" d="M653.9375,-403.3906C664.662,-393.9683 681.2287,-379.4134 694.0901,-368.1137"/>
<polygon fill="#191970" stroke="#191970" points="696.7059,-370.4745 701.9083,-361.2449 692.0857,-365.2158 696.7059,-370.4745"/>
</g>
<!-- Node19&#45;&gt;Node3 -->
<g id="edge38" class="edge">
<title>Node19&#45;&gt;Node3</title>
<path fill="none" stroke="#191970" d="M514.9102,-403.161C525.8886,-394.723 540.8335,-381.6352 550,-367 569.0274,-336.6208 574,-325.846 574,-290 574,-290 574,-290 574,-234 574,-200.051 559.8765,-162.5869 550.1089,-140.7366"/>
<polygon fill="#191970" stroke="#191970" points="553.2552,-139.202 545.8693,-131.6061 546.9063,-142.1501 553.2552,-139.202"/>
</g>
<!-- Node19&#45;&gt;Node7 -->
<g id="edge39" class="edge">
<title>Node19&#45;&gt;Node7</title>
<path fill="none" stroke="#191970" d="M494.5735,-403.475C484.1848,-388.392 462.6688,-358.4243 441,-336 387.0634,-280.183 367.9711,-272.0335 307,-224 293.7837,-213.5881 278.621,-202.3266 266.5985,-193.5523"/>
<polygon fill="#191970" stroke="#191970" points="268.6201,-190.6948 258.472,-187.6505 264.5066,-196.3588 268.6201,-190.6948"/>
</g>
<!-- Node19&#45;&gt;Node20 -->
<g id="edge40" class="edge">
<title>Node19&#45;&gt;Node20</title>
<path fill="none" stroke="#191970" d="M484.4375,-403.3906C467.2463,-393.4165 440.1418,-377.6908 420.2734,-366.1633"/>
<polygon fill="#191970" stroke="#191970" points="421.8523,-363.033 411.4462,-361.0419 418.3394,-369.0877 421.8523,-363.033"/>
</g>
<!-- Node20&#45;&gt;Node7 -->
<g id="edge41" class="edge">
<title>Node20&#45;&gt;Node7</title>
<path fill="none" stroke="#191970" d="M386.7217,-341.9248C362.4996,-313.9079 291.5054,-231.7912 260.1659,-195.5418"/>
<polygon fill="#191970" stroke="#191970" points="262.6255,-193.0353 253.4376,-187.7595 257.3301,-197.6134 262.6255,-193.0353"/>
</g>
<!-- Node20&#45;&gt;Node12 -->
<g id="edge42" class="edge">
<title>Node20&#45;&gt;Node12</title>
<path fill="none" stroke="#191970" d="M398.1097,-341.8845C404.3447,-322.6053 418.4804,-278.8963 426.7182,-253.4241"/>
<polygon fill="#191970" stroke="#191970" points="430.1003,-254.3402 429.8473,-243.7484 423.44,-252.1862 430.1003,-254.3402"/>
</g>
<!-- Node20&#45;&gt;Node14 -->
<g id="edge43" class="edge">
<title>Node20&#45;&gt;Node14</title>
<path fill="none" stroke="#191970" d="M375.1563,-341.8906C354.1864,-331.7359 320.9056,-315.6196 296.9964,-304.0416"/>
<polygon fill="#191970" stroke="#191970" points="298.2301,-300.7502 287.7044,-299.5419 295.1792,-307.0504 298.2301,-300.7502"/>
</g>
<!-- Node21&#45;&gt;Node10 -->
<g id="edge46" class="edge">
<title>Node21&#45;&gt;Node10</title>
<path fill="none" stroke="#191970" d="M485.8238,-627.4509C454.8219,-607.9441 384.0178,-563.3932 346.8248,-539.9909"/>
<polygon fill="#191970" stroke="#191970" points="348.4657,-536.8882 338.1378,-534.5249 344.7377,-542.8129 348.4657,-536.8882"/>
</g>
<!-- Node22 -->
<g id="node23" class="node">
<title>Node22</title>
<g id="a_node23"><a xlink:href="ipc__iface.html" target="_top" xlink:title="Interface Definition Language. ">
<polygon fill="#ffffff" stroke="#000000" points="512.5,-515.5 512.5,-534.5 589.5,-534.5 589.5,-515.5 512.5,-515.5"/>
<text text-anchor="middle" x="551" y="-522.5" font-family="Helvetica,sans-Serif" font-size="10.00" fill="#000000">cxx/ipc_iface</text>
</a>
</g>
</g>
<!-- Node21&#45;&gt;Node22 -->
<g id="edge47" class="edge">
<title>Node21&#45;&gt;Node22</title>
<path fill="none" stroke="#191970" d="M505.263,-627.4509C513.5286,-608.936 531.8665,-567.8591 542.6434,-543.7187"/>
<polygon fill="#191970" stroke="#191970" points="545.8672,-545.0831 546.7478,-534.5249 539.4753,-542.2295 545.8672,-545.0831"/>
</g>
<!-- Node24 -->
<g id="node25" class="node">
<title>Node24</title>
<g id="a_node25"><a xlink:href="ipc__string_source.html" target="_top" xlink:title="cxx/ipc_string">
<polygon fill="#ffffff" stroke="#000000" points="713.5,-571.5 713.5,-590.5 794.5,-590.5 794.5,-571.5 713.5,-571.5"/>
<text text-anchor="middle" x="754" y="-578.5" font-family="Helvetica,sans-Serif" font-size="10.00" fill="#000000">cxx/ipc_string</text>
</a>
</g>
</g>
<!-- Node21&#45;&gt;Node24 -->
<g id="edge54" class="edge">
<title>Node21&#45;&gt;Node24</title>
<path fill="none" stroke="#191970" d="M536.1786,-629.2134C579.6212,-619.5977 653.8314,-603.1717 703.3898,-592.2023"/>
<polygon fill="#191970" stroke="#191970" points="704.2561,-595.5953 713.2634,-590.0168 702.7433,-588.7607 704.2561,-595.5953"/>
</g>
<!-- Node22&#45;&gt;Node16 -->
<g id="edge53" class="edge">
<title>Node22&#45;&gt;Node16</title>
<path fill="none" stroke="#191970" d="M541.0714,-515.2455C532.8162,-507.1352 520.8791,-495.4075 511.0918,-485.7919"/>
<polygon fill="#191970" stroke="#191970" points="513.4011,-483.1542 503.8149,-478.6427 508.4954,-488.1476 513.4011,-483.1542"/>
</g>
<!-- Node22&#45;&gt;Node18 -->
<g id="edge48" class="edge">
<title>Node22&#45;&gt;Node18</title>
<path fill="none" stroke="#191970" d="M553.1732,-515.1568C556.5906,-501.4203 564.2876,-476.2505 578,-459 588.0374,-446.3727 602.4279,-435.7001 615.1183,-427.8236"/>
<polygon fill="#191970" stroke="#191970" points="617.1415,-430.6936 623.9718,-422.5944 613.5815,-424.6663 617.1415,-430.6936"/>
</g>
<!-- Node23 -->
<g id="node24" class="node">
<title>Node23</title>
<g id="a_node24"><a xlink:href="ipc__types.html" target="_top" xlink:title="l4/sys/cxx/ipc_types">
<polygon fill="#ffffff" stroke="#000000" points="587,-459.5 587,-478.5 697,-478.5 697,-459.5 587,-459.5"/>
<text text-anchor="middle" x="642" y="-466.5" font-family="Helvetica,sans-Serif" font-size="10.00" fill="#000000">l4/sys/cxx/ipc_types</text>
</a>
</g>
</g>
<!-- Node22&#45;&gt;Node23 -->
<g id="edge49" class="edge">
<title>Node22&#45;&gt;Node23</title>
<path fill="none" stroke="#191970" d="M566.851,-515.2455C580.8132,-506.6534 601.3728,-494.0014 617.4596,-484.1018"/>
<polygon fill="#191970" stroke="#191970" points="619.6484,-486.8645 626.3307,-478.6427 615.9797,-480.9029 619.6484,-486.8645"/>
</g>
<!-- Node23&#45;&gt;Node17 -->
<g id="edge51" class="edge">
<title>Node23&#45;&gt;Node17</title>
<path fill="none" stroke="#191970" d="M656.9519,-459.4511C668.7127,-451.1814 684.6283,-438.1786 694,-423 703.6788,-407.3242 708.4763,-386.7681 710.824,-371.7219"/>
<polygon fill="#191970" stroke="#191970" points="714.3395,-371.8349 712.182,-361.462 707.4,-370.9163 714.3395,-371.8349"/>
</g>
<!-- Node23&#45;&gt;Node18 -->
<g id="edge52" class="edge">
<title>Node23&#45;&gt;Node18</title>
<path fill="none" stroke="#191970" d="M642.1742,-459.2455C642.3047,-451.9382 642.4876,-441.6944 642.6481,-432.7046"/>
<polygon fill="#191970" stroke="#191970" points="646.1486,-432.7036 642.8278,-422.6427 639.1497,-432.5786 646.1486,-432.7036"/>
</g>
<!-- Node23&#45;&gt;Node19 -->
<g id="edge50" class="edge">
<title>Node23&#45;&gt;Node19</title>
<path fill="none" stroke="#191970" d="M617.7612,-459.3733C594.7211,-450.2226 559.8786,-436.3844 534.2499,-426.2057"/>
<polygon fill="#191970" stroke="#191970" points="535.5082,-422.9395 524.9225,-422.5011 532.9244,-429.4452 535.5082,-422.9395"/>
</g>
<!-- Node24&#45;&gt;Node17 -->
<g id="edge55" class="edge">
<title>Node24&#45;&gt;Node17</title>
<path fill="none" stroke="#191970" d="M779.885,-571.4647C795.7227,-564.1252 814.6794,-552.2779 824,-535 828.2202,-527.1768 826.423,-523.5523 824,-515 806.7211,-454.0108 756.5649,-395.8914 729.9886,-368.2679"/>
<polygon fill="#191970" stroke="#191970" points="732.3641,-365.6916 722.8619,-361.0056 727.3679,-370.5945 732.3641,-365.6916"/>
</g>
<!-- Node24&#45;&gt;Node18 -->
<g id="edge56" class="edge">
<title>Node24&#45;&gt;Node18</title>
<path fill="none" stroke="#191970" d="M752.1079,-571.213C747.4679,-549.227 733.8194,-495.0322 706,-459 696.2766,-446.4061 682.2094,-435.6834 669.8331,-427.7668"/>
<polygon fill="#191970" stroke="#191970" points="671.5674,-424.7251 661.2063,-422.5116 667.9256,-430.7032 671.5674,-424.7251"/>
</g>
<!-- Node25 -->
<g id="node26" class="node">
<title>Node25</title>
<g id="a_node26"><a xlink:href="ipc__array_source.html" target="_top" xlink:title="ipc_array">
<polygon fill="#ffffff" stroke="#000000" points="753.5,-515.5 753.5,-534.5 814.5,-534.5 814.5,-515.5 753.5,-515.5"/>
<text text-anchor="middle" x="784" y="-522.5" font-family="Helvetica,sans-Serif" font-size="10.00" fill="#000000">ipc_array</text>
</a>
</g>
</g>
<!-- Node24&#45;&gt;Node25 -->
<g id="edge57" class="edge">
<title>Node24&#45;&gt;Node25</title>
<path fill="none" stroke="#191970" d="M759.2256,-571.2455C763.3123,-563.617 769.1135,-552.7881 774.075,-543.5267"/>
<polygon fill="#191970" stroke="#191970" points="777.1972,-545.1103 778.8343,-534.6427 771.0268,-541.8047 777.1972,-545.1103"/>
</g>
<!-- Node25&#45;&gt;Node17 -->
<g id="edge58" class="edge">
<title>Node25&#45;&gt;Node17</title>
<path fill="none" stroke="#191970" d="M780.8286,-515.0641C776.6127,-502.0631 768.7851,-478.6258 761,-459 748.5001,-427.4884 732.0489,-391.6847 722.0133,-370.3778"/>
<polygon fill="#191970" stroke="#191970" points="725.0927,-368.7028 717.6475,-361.1649 718.767,-371.7004 725.0927,-368.7028"/>
</g>
<!-- Node25&#45;&gt;Node18 -->
<g id="edge59" class="edge">
<title>Node25&#45;&gt;Node18</title>
<path fill="none" stroke="#191970" d="M779.4637,-515.3034C772.4913,-501.2863 757.9372,-475.2643 739,-459 722.4047,-444.7471 700.6322,-433.8403 682.0179,-426.2323"/>
<polygon fill="#191970" stroke="#191970" points="683.2038,-422.938 672.6159,-422.5543 680.6536,-429.457 683.2038,-422.938"/>
</g>
<!-- Node25&#45;&gt;Node23 -->
<g id="edge60" class="edge">
<title>Node25&#45;&gt;Node23</title>
<path fill="none" stroke="#191970" d="M759.5893,-515.3733C736.3858,-506.2226 701.2962,-492.3844 675.4858,-482.2057"/>
<polygon fill="#191970" stroke="#191970" points="676.6789,-478.9139 666.0921,-478.5011 674.1108,-485.4258 676.6789,-478.9139"/>
</g>
</g>
</svg>
