<?xml version="1.0" encoding="UTF-8" standalone="no"?>
<!DOCTYPE svg PUBLIC "-//W3C//DTD SVG 1.1//EN"
 "http://www.w3.org/Graphics/SVG/1.1/DTD/svg11.dtd">
<!-- Generated by graphviz version 2.40.1 (20161225.0304)
 -->
<!-- Title: l4/util/mb_info.h Pages: 1 -->
<svg width="272pt" height="140pt"
 viewBox="0.00 0.00 272.00 140.00" xmlns="http://www.w3.org/2000/svg" xmlns:xlink="http://www.w3.org/1999/xlink">
<g id="graph0" class="graph" transform="scale(1 1) rotate(0) translate(4 136)">
<title>l4/util/mb_info.h</title>
<polygon fill="#ffffff" stroke="transparent" points="-4,4 -4,-136 268,-136 268,4 -4,4"/>
<!-- Node2 -->
<g id="node1" class="node">
<title>Node2</title>
<polygon fill="#bfbfbf" stroke="#000000" points="83.5,-112.5 83.5,-131.5 172.5,-131.5 172.5,-112.5 83.5,-112.5"/>
<text text-anchor="middle" x="128" y="-119.5" font-family="Helvetica,sans-Serif" font-size="10.00" fill="#000000">l4/util/mb_info.h</text>
</g>
<!-- Node3 -->
<g id="node2" class="node">
<title>Node3</title>
<g id="a_node2"><a xlink:href="x86_2l4_2util_2mbi__argv_8h.html" target="_top" xlink:title="command line handling ">
<polygon fill="#ffffff" stroke="#000000" points=".5,-56.5 .5,-75.5 115.5,-75.5 115.5,-56.5 .5,-56.5"/>
<text text-anchor="middle" x="58" y="-63.5" font-family="Helvetica,sans-Serif" font-size="10.00" fill="#000000">x86/l4/util/mbi_argv.h</text>
</a>
</g>
</g>
<!-- Node2&#45;&gt;Node3 -->
<g id="edge1" class="edge">
<title>Node2&#45;&gt;Node3</title>
<path fill="none" stroke="#191970" d="M107.91,-105.928C95.6747,-96.1397 80.4493,-83.9595 70.0533,-75.6427"/>
<polygon fill="#191970" stroke="#191970" points="105.8118,-108.7316 115.8069,-112.2455 110.1847,-103.2655 105.8118,-108.7316"/>
</g>
<!-- Node5 -->
<g id="node4" class="node">
<title>Node5</title>
<g id="a_node4"><a xlink:href="amd64_2l4_2util_2mbi__argv_8h.html" target="_top" xlink:title="command line handling ">
<polygon fill="#ffffff" stroke="#000000" points="134,-56.5 134,-75.5 264,-75.5 264,-56.5 134,-56.5"/>
<text text-anchor="middle" x="199" y="-63.5" font-family="Helvetica,sans-Serif" font-size="10.00" fill="#000000">amd64/l4/util/mbi_argv.h</text>
</a>
</g>
</g>
<!-- Node2&#45;&gt;Node5 -->
<g id="edge3" class="edge">
<title>Node2&#45;&gt;Node5</title>
<path fill="none" stroke="#191970" d="M148.377,-105.928C160.7871,-96.1397 176.23,-83.9595 186.7745,-75.6427"/>
<polygon fill="#191970" stroke="#191970" points="146.0514,-103.3046 140.3673,-112.2455 150.3864,-108.8007 146.0514,-103.3046"/>
</g>
<!-- Node4 -->
<g id="node3" class="node">
<title>Node4</title>
<g id="a_node3"><a xlink:href="arm_2l4_2util_2mbi__argv_8h.html" target="_top" xlink:title="Multiboot. ">
<polygon fill="#ffffff" stroke="#000000" points="0,-.5 0,-19.5 116,-19.5 116,-.5 0,-.5"/>
<text text-anchor="middle" x="58" y="-7.5" font-family="Helvetica,sans-Serif" font-size="10.00" fill="#000000">arm/l4/util/mbi_argv.h</text>
</a>
</g>
</g>
<!-- Node3&#45;&gt;Node4 -->
<g id="edge2" class="edge">
<title>Node3&#45;&gt;Node4</title>
<path fill="none" stroke="#191970" d="M58,-46.1575C58,-37.155 58,-26.9199 58,-19.6427"/>
<polygon fill="#191970" stroke="#191970" points="54.5001,-46.2455 58,-56.2455 61.5001,-46.2456 54.5001,-46.2455"/>
</g>
</g>
</svg>
