<?xml version="1.0" encoding="UTF-8" standalone="no"?>
<!DOCTYPE svg PUBLIC "-//W3C//DTD SVG 1.1//EN"
 "http://www.w3.org/Graphics/SVG/1.1/DTD/svg11.dtd">
<!-- Generated by graphviz version 2.40.1 (20161225.0304)
 -->
<!-- Title: l4/re/mem_alloc Pages: 1 -->
<svg width="880pt" height="823pt"
 viewBox="0.00 0.00 879.63 823.00" xmlns="http://www.w3.org/2000/svg" xmlns:xlink="http://www.w3.org/1999/xlink">
<g id="graph0" class="graph" transform="scale(1 1) rotate(0) translate(4 819)">
<title>l4/re/mem_alloc</title>
<polygon fill="#ffffff" stroke="transparent" points="-4,4 -4,-819 875.6266,-819 875.6266,4 -4,4"/>
<!-- Node0 -->
<g id="node1" class="node">
<title>Node0</title>
<polygon fill="#bfbfbf" stroke="#000000" points="445.5,-795.5 445.5,-814.5 536.5,-814.5 536.5,-795.5 445.5,-795.5"/>
<text text-anchor="middle" x="491" y="-802.5" font-family="Helvetica,sans-Serif" font-size="10.00" fill="#000000">l4/re/mem_alloc</text>
</g>
<!-- Node1 -->
<g id="node2" class="node">
<title>Node1</title>
<g id="a_node2"><a xlink:href="capability.html" target="_top" xlink:title="L4::Cap related definitions. ">
<polygon fill="#ffffff" stroke="#000000" points="485,-683.5 485,-702.5 575,-702.5 575,-683.5 485,-683.5"/>
<text text-anchor="middle" x="530" y="-690.5" font-family="Helvetica,sans-Serif" font-size="10.00" fill="#000000">l4/sys/capability</text>
</a>
</g>
</g>
<!-- Node0&#45;&gt;Node1 -->
<g id="edge1" class="edge">
<title>Node0&#45;&gt;Node1</title>
<path fill="none" stroke="#191970" d="M494.3251,-795.4509C500.7435,-777.0186 514.9483,-736.2254 523.369,-712.043"/>
<polygon fill="#191970" stroke="#191970" points="526.7001,-713.1197 526.6833,-702.5249 520.0894,-710.8177 526.7001,-713.1197"/>
</g>
<!-- Node25 -->
<g id="node26" class="node">
<title>Node25</title>
<g id="a_node26"><a xlink:href="factory.html" target="_top" xlink:title="Common factory related definitions. ">
<polygon fill="#ffffff" stroke="#000000" points="417.5,-739.5 417.5,-758.5 496.5,-758.5 496.5,-739.5 417.5,-739.5"/>
<text text-anchor="middle" x="457" y="-746.5" font-family="Helvetica,sans-Serif" font-size="10.00" fill="#000000">l4/sys/factory</text>
</a>
</g>
</g>
<!-- Node0&#45;&gt;Node25 -->
<g id="edge60" class="edge">
<title>Node0&#45;&gt;Node25</title>
<path fill="none" stroke="#191970" d="M485.0777,-795.2455C480.3973,-787.5367 473.7327,-776.5598 468.0711,-767.2348"/>
<polygon fill="#191970" stroke="#191970" points="471.0361,-765.3741 462.8545,-758.6427 465.0525,-769.007 471.0361,-765.3741"/>
</g>
<!-- Node2 -->
<g id="node3" class="node">
<title>Node2</title>
<g id="a_node3"><a xlink:href="l4_2sys_2consts_8h.html" target="_top" xlink:title="Common constants. ">
<polygon fill="#ffffff" stroke="#000000" points="435,-112.5 435,-131.5 521,-131.5 521,-112.5 435,-112.5"/>
<text text-anchor="middle" x="478" y="-119.5" font-family="Helvetica,sans-Serif" font-size="10.00" fill="#000000">l4/sys/consts.h</text>
</a>
</g>
</g>
<!-- Node1&#45;&gt;Node2 -->
<g id="edge2" class="edge">
<title>Node1&#45;&gt;Node2</title>
<path fill="none" stroke="#191970" d="M484.8125,-688.4937C356.6437,-674.4728 0,-626.3522 0,-525 0,-525 0,-525 0,-234 0,-147.5735 299.9707,-127.7922 424.6488,-123.303"/>
<polygon fill="#191970" stroke="#191970" points="424.8626,-126.7978 434.7376,-122.9595 424.6243,-119.8019 424.8626,-126.7978"/>
</g>
<!-- Node6 -->
<g id="node7" class="node">
<title>Node6</title>
<g id="a_node7"><a xlink:href="l4_2sys_2types_8h.html" target="_top" xlink:title="Common L4 ABI Data Types. ">
<polygon fill="#ffffff" stroke="#000000" points="629,-168.5 629,-187.5 709,-187.5 709,-168.5 629,-168.5"/>
<text text-anchor="middle" x="669" y="-175.5" font-family="Helvetica,sans-Serif" font-size="10.00" fill="#000000">l4/sys/types.h</text>
</a>
</g>
</g>
<!-- Node1&#45;&gt;Node6 -->
<g id="edge6" class="edge">
<title>Node1&#45;&gt;Node6</title>
<path fill="none" stroke="#191970" d="M575.2822,-687.7671C668.0408,-675.784 871,-642.5339 871,-581 871,-581 871,-581 871,-290 871,-220.8209 779.2623,-194.0175 719.4317,-183.893"/>
<polygon fill="#191970" stroke="#191970" points="719.8175,-180.4105 709.3922,-182.2983 718.7193,-187.3238 719.8175,-180.4105"/>
</g>
<!-- Node9 -->
<g id="node10" class="node">
<title>Node9</title>
<g id="a_node10"><a xlink:href="kobject_source.html" target="_top" xlink:title="l4/sys/kobject">
<polygon fill="#ffffff" stroke="#000000" points="566,-515.5 566,-534.5 646,-534.5 646,-515.5 566,-515.5"/>
<text text-anchor="middle" x="606" y="-522.5" font-family="Helvetica,sans-Serif" font-size="10.00" fill="#000000">l4/sys/kobject</text>
</a>
</g>
</g>
<!-- Node1&#45;&gt;Node9 -->
<g id="edge14" class="edge">
<title>Node1&#45;&gt;Node9</title>
<path fill="none" stroke="#191970" d="M540.3102,-683.3122C549.0648,-674.5715 561.3863,-660.9751 569,-647 587.2731,-613.4593 597.7237,-569.6998 602.5945,-544.7399"/>
<polygon fill="#191970" stroke="#191970" points="606.0745,-545.1682 604.4479,-534.699 599.1908,-543.8975 606.0745,-545.1682"/>
</g>
<!-- Node19 -->
<g id="node20" class="node">
<title>Node19</title>
<g id="a_node20"><a xlink:href="l4_2sys_2task_8h.html" target="_top" xlink:title="Common task related definitions. ">
<polygon fill="#ffffff" stroke="#000000" points="655,-342 655,-361 729,-361 729,-342 655,-342"/>
<text text-anchor="middle" x="692" y="-349" font-family="Helvetica,sans-Serif" font-size="10.00" fill="#000000">l4/sys/task.h</text>
</a>
</g>
</g>
<!-- Node1&#45;&gt;Node19 -->
<g id="edge43" class="edge">
<title>Node1&#45;&gt;Node19</title>
<path fill="none" stroke="#191970" d="M575.254,-683.6325C650.9412,-666.6509 795,-628.1377 795,-581 795,-581 795,-581 795,-469 795,-422.7817 749.3786,-386.0386 718.8603,-366.63"/>
<polygon fill="#191970" stroke="#191970" points="720.2978,-363.4063 709.9412,-361.1719 716.6439,-369.3771 720.2978,-363.4063"/>
</g>
<!-- Node20 -->
<g id="node21" class="node">
<title>Node20</title>
<g id="a_node21"><a xlink:href="sys_2meta.html" target="_top" xlink:title="Meta interface for getting dynamic type information about objects behind capabilities. ">
<polygon fill="#ffffff" stroke="#000000" points="490,-627.5 490,-646.5 560,-646.5 560,-627.5 490,-627.5"/>
<text text-anchor="middle" x="525" y="-634.5" font-family="Helvetica,sans-Serif" font-size="10.00" fill="#000000">l4/sys/meta</text>
</a>
</g>
</g>
<!-- Node1&#45;&gt;Node20 -->
<g id="edge44" class="edge">
<title>Node1&#45;&gt;Node20</title>
<path fill="none" stroke="#191970" d="M529.1291,-683.2455C528.4766,-675.9382 527.562,-665.6944 526.7593,-656.7046"/>
<polygon fill="#191970" stroke="#191970" points="530.2365,-656.2918 525.861,-646.6427 523.2642,-656.9143 530.2365,-656.2918"/>
</g>
<!-- Node3 -->
<g id="node4" class="node">
<title>Node3</title>
<g id="a_node4"><a xlink:href="compiler_8h.html" target="_top" xlink:title="L4 compiler related defines. ">
<polygon fill="#ffffff" stroke="#000000" points="430.5,-56.5 430.5,-75.5 525.5,-75.5 525.5,-56.5 430.5,-56.5"/>
<text text-anchor="middle" x="478" y="-63.5" font-family="Helvetica,sans-Serif" font-size="10.00" fill="#000000">l4/sys/compiler.h</text>
</a>
</g>
</g>
<!-- Node2&#45;&gt;Node3 -->
<g id="edge3" class="edge">
<title>Node2&#45;&gt;Node3</title>
<path fill="none" stroke="#191970" d="M478,-112.2455C478,-104.9382 478,-94.6944 478,-85.7046"/>
<polygon fill="#191970" stroke="#191970" points="481.5001,-85.6426 478,-75.6427 474.5001,-85.6427 481.5001,-85.6426"/>
</g>
<!-- Node5 -->
<g id="node6" class="node">
<title>Node5</title>
<g id="a_node6"><a xlink:href="l4_2sys_2l4int_8h.html" target="_top" xlink:title="Fixed sized integer types, generic version. ">
<polygon fill="#ffffff" stroke="#000000" points="794,-56.5 794,-75.5 868,-75.5 868,-56.5 794,-56.5"/>
<text text-anchor="middle" x="831" y="-63.5" font-family="Helvetica,sans-Serif" font-size="10.00" fill="#000000">l4/sys/l4int.h</text>
</a>
</g>
</g>
<!-- Node2&#45;&gt;Node5 -->
<g id="edge5" class="edge">
<title>Node2&#45;&gt;Node5</title>
<path fill="none" stroke="#191970" d="M521.2847,-115.1333C587.8282,-104.5768 714.7697,-84.4388 783.6707,-73.5083"/>
<polygon fill="#191970" stroke="#191970" points="784.4788,-76.924 793.8069,-71.9003 783.382,-70.0104 784.4788,-76.924"/>
</g>
<!-- Node4 -->
<g id="node5" class="node">
<title>Node4</title>
<polygon fill="#ffffff" stroke="#bfbfbf" points="433.5,-.5 433.5,-19.5 522.5,-19.5 522.5,-.5 433.5,-.5"/>
<text text-anchor="middle" x="478" y="-7.5" font-family="Helvetica,sans-Serif" font-size="10.00" fill="#000000">l4/sys/linkage.h</text>
</g>
<!-- Node3&#45;&gt;Node4 -->
<g id="edge4" class="edge">
<title>Node3&#45;&gt;Node4</title>
<path fill="none" stroke="#191970" d="M478,-56.2455C478,-48.9382 478,-38.6944 478,-29.7046"/>
<polygon fill="#191970" stroke="#191970" points="481.5001,-29.6426 478,-19.6427 474.5001,-29.6427 481.5001,-29.6426"/>
</g>
<!-- Node6&#45;&gt;Node2 -->
<g id="edge9" class="edge">
<title>Node6&#45;&gt;Node2</title>
<path fill="none" stroke="#191970" d="M636.1659,-168.3733C604.1305,-158.9807 555.2513,-144.6496 520.3145,-134.4064"/>
<polygon fill="#191970" stroke="#191970" points="520.9864,-130.9561 510.4056,-131.5011 519.0169,-137.6733 520.9864,-130.9561"/>
</g>
<!-- Node6&#45;&gt;Node3 -->
<g id="edge8" class="edge">
<title>Node6&#45;&gt;Node3</title>
<path fill="none" stroke="#191970" d="M654.0793,-168.3092C633.7187,-155.1778 595.9875,-131.1719 563,-112 544.0818,-101.0049 522.381,-89.2752 505.6415,-80.4124"/>
<polygon fill="#191970" stroke="#191970" points="506.8961,-77.1173 496.4174,-75.5526 503.6332,-83.3104 506.8961,-77.1173"/>
</g>
<!-- Node6&#45;&gt;Node5 -->
<g id="edge7" class="edge">
<title>Node6&#45;&gt;Node5</title>
<path fill="none" stroke="#191970" d="M709.3642,-173.5351C757.5415,-167.2776 833.7797,-154.1142 851,-132 861.8617,-118.0515 853.5402,-98.2368 844.5511,-83.9632"/>
<polygon fill="#191970" stroke="#191970" points="847.2873,-81.7649 838.7424,-75.501 841.5161,-85.7264 847.2873,-81.7649"/>
</g>
<!-- Node7 -->
<g id="node8" class="node">
<title>Node7</title>
<g id="a_node8"><a xlink:href="____l4__fpage_8h_source.html" target="_top" xlink:title="l4/sys/__l4_fpage.h">
<polygon fill="#ffffff" stroke="#000000" points="615,-112.5 615,-131.5 723,-131.5 723,-112.5 615,-112.5"/>
<text text-anchor="middle" x="669" y="-119.5" font-family="Helvetica,sans-Serif" font-size="10.00" fill="#000000">l4/sys/__l4_fpage.h</text>
</a>
</g>
</g>
<!-- Node6&#45;&gt;Node7 -->
<g id="edge10" class="edge">
<title>Node6&#45;&gt;Node7</title>
<path fill="none" stroke="#191970" d="M669,-168.2455C669,-160.9382 669,-150.6944 669,-141.7046"/>
<polygon fill="#191970" stroke="#191970" points="672.5001,-141.6426 669,-131.6427 665.5001,-141.6427 672.5001,-141.6426"/>
</g>
<!-- Node8 -->
<g id="node9" class="node">
<title>Node8</title>
<g id="a_node9"><a xlink:href="____timeout_8h_source.html" target="_top" xlink:title="l4/sys/__timeout.h">
<polygon fill="#ffffff" stroke="#000000" points="741.5,-112.5 741.5,-131.5 842.5,-131.5 842.5,-112.5 741.5,-112.5"/>
<text text-anchor="middle" x="792" y="-119.5" font-family="Helvetica,sans-Serif" font-size="10.00" fill="#000000">l4/sys/__timeout.h</text>
</a>
</g>
</g>
<!-- Node6&#45;&gt;Node8 -->
<g id="edge12" class="edge">
<title>Node6&#45;&gt;Node8</title>
<path fill="none" stroke="#191970" d="M690.1445,-168.3733C709.8892,-159.3838 739.5698,-145.8706 761.8055,-135.7471"/>
<polygon fill="#191970" stroke="#191970" points="763.4806,-138.8302 771.1315,-131.5011 760.58,-132.4594 763.4806,-138.8302"/>
</g>
<!-- Node7&#45;&gt;Node3 -->
<g id="edge11" class="edge">
<title>Node7&#45;&gt;Node3</title>
<path fill="none" stroke="#191970" d="M636.1659,-112.3733C604.1305,-102.9807 555.2513,-88.6496 520.3145,-78.4064"/>
<polygon fill="#191970" stroke="#191970" points="520.9864,-74.9561 510.4056,-75.5011 519.0169,-81.6733 520.9864,-74.9561"/>
</g>
<!-- Node8&#45;&gt;Node5 -->
<g id="edge13" class="edge">
<title>Node8&#45;&gt;Node5</title>
<path fill="none" stroke="#191970" d="M798.7933,-112.2455C804.2178,-104.4564 811.9661,-93.3308 818.5033,-83.9439"/>
<polygon fill="#191970" stroke="#191970" points="821.4417,-85.849 824.2846,-75.6427 815.6975,-81.8485 821.4417,-85.849"/>
</g>
<!-- Node9&#45;&gt;Node6 -->
<g id="edge29" class="edge">
<title>Node9&#45;&gt;Node6</title>
<path fill="none" stroke="#191970" d="M642.4715,-515.4477C706.6391,-496.1906 833,-446.2412 833,-351.5 833,-351.5 833,-351.5 833,-290 833,-234.0357 767.0683,-204.0135 718.8133,-189.535"/>
<polygon fill="#191970" stroke="#191970" points="719.696,-186.1472 709.1189,-186.7605 717.7699,-192.877 719.696,-186.1472"/>
</g>
<!-- Node10 -->
<g id="node11" class="node">
<title>Node10</title>
<g id="a_node11"><a xlink:href="kernel__object_8h.html" target="_top" xlink:title="Kernel object system calls. ">
<polygon fill="#ffffff" stroke="#000000" points="558,-403.5 558,-422.5 646,-422.5 646,-403.5 558,-403.5"/>
<text text-anchor="middle" x="602" y="-410.5" font-family="Helvetica,sans-Serif" font-size="10.00" fill="#000000">kernel_object.h</text>
</a>
</g>
</g>
<!-- Node9&#45;&gt;Node10 -->
<g id="edge15" class="edge">
<title>Node9&#45;&gt;Node10</title>
<path fill="none" stroke="#191970" d="M605.659,-515.4509C605.0066,-497.184 603.5698,-456.9553 602.7035,-432.6976"/>
<polygon fill="#191970" stroke="#191970" points="606.195,-432.3936 602.3402,-422.5249 599.1994,-432.6435 606.195,-432.3936"/>
</g>
<!-- Node15 -->
<g id="node16" class="node">
<title>Node15</title>
<g id="a_node16"><a xlink:href="____typeinfo_8h.html" target="_top" xlink:title="Type information handling. ">
<polygon fill="#ffffff" stroke="#000000" points="508,-459.5 508,-478.5 582,-478.5 582,-459.5 508,-459.5"/>
<text text-anchor="middle" x="545" y="-466.5" font-family="Helvetica,sans-Serif" font-size="10.00" fill="#000000">__typeinfo.h</text>
</a>
</g>
</g>
<!-- Node9&#45;&gt;Node15 -->
<g id="edge30" class="edge">
<title>Node9&#45;&gt;Node15</title>
<path fill="none" stroke="#191970" d="M595.3746,-515.2455C586.4527,-507.0549 573.512,-495.1749 562.9808,-485.5069"/>
<polygon fill="#191970" stroke="#191970" points="565.2371,-482.8271 555.5036,-478.6427 560.5032,-487.9837 565.2371,-482.8271"/>
</g>
<!-- Node10&#45;&gt;Node3 -->
<g id="edge17" class="edge">
<title>Node10&#45;&gt;Node3</title>
<path fill="none" stroke="#191970" d="M559.5795,-403.4811C538.1187,-396.6466 513.2449,-385.3121 497,-367 424.5943,-285.3801 441.9491,-239.9353 426,-132 424.7006,-123.2066 422.3489,-120.1044 426,-112 431.5697,-99.6369 442.2863,-89.2563 452.5506,-81.5033"/>
<polygon fill="#191970" stroke="#191970" points="454.7618,-84.2277 460.9433,-75.623 450.7451,-78.4948 454.7618,-84.2277"/>
</g>
<!-- Node10&#45;&gt;Node6 -->
<g id="edge16" class="edge">
<title>Node10&#45;&gt;Node6</title>
<path fill="none" stroke="#191970" d="M646.1474,-405.8948C687.0929,-398.2974 743.6527,-384.8838 757,-367 781.246,-334.5133 767.4276,-290.2262 724,-224 716.0823,-211.9257 704.0484,-201.3495 693.2537,-193.3925"/>
<polygon fill="#191970" stroke="#191970" points="695.165,-190.4582 684.9646,-187.5942 691.1526,-196.1941 695.165,-190.4582"/>
</g>
<!-- Node11 -->
<g id="node12" class="node">
<title>Node11</title>
<g id="a_node12"><a xlink:href="l4_2sys_2utcb_8h.html" target="_top" xlink:title="UTCB definitions. ">
<polygon fill="#ffffff" stroke="#000000" points="624,-224.5 624,-243.5 698,-243.5 698,-224.5 624,-224.5"/>
<text text-anchor="middle" x="661" y="-231.5" font-family="Helvetica,sans-Serif" font-size="10.00" fill="#000000">l4/sys/utcb.h</text>
</a>
</g>
</g>
<!-- Node10&#45;&gt;Node11 -->
<g id="edge18" class="edge">
<title>Node10&#45;&gt;Node11</title>
<path fill="none" stroke="#191970" d="M646.3329,-403.8494C681.6849,-395.5471 727.0303,-382.2905 738,-367 766.6968,-326.9999 714.0273,-275.5691 682.3735,-249.9642"/>
<polygon fill="#191970" stroke="#191970" points="684.4885,-247.1748 674.4641,-243.7452 680.1618,-252.6776 684.4885,-247.1748"/>
</g>
<!-- Node12 -->
<g id="node13" class="node">
<title>Node12</title>
<g id="a_node13"><a xlink:href="____kernel__object__impl_8h.html" target="_top" xlink:title="Low&#45;level kernel debugger functions. ">
<polygon fill="#ffffff" stroke="#000000" points="515,-336.5 515,-366.5 637,-366.5 637,-336.5 515,-336.5"/>
<text text-anchor="start" x="523" y="-354.5" font-family="Helvetica,sans-Serif" font-size="10.00" fill="#000000">l4/sys/__kernel_object</text>
<text text-anchor="middle" x="576" y="-343.5" font-family="Helvetica,sans-Serif" font-size="10.00" fill="#000000">_impl.h</text>
</a>
</g>
</g>
<!-- Node10&#45;&gt;Node12 -->
<g id="edge22" class="edge">
<title>Node10&#45;&gt;Node12</title>
<path fill="none" stroke="#191970" d="M597.9375,-403.3906C594.8097,-395.9922 590.344,-385.4291 586.2572,-375.7623"/>
<polygon fill="#191970" stroke="#191970" points="589.4781,-374.3924 582.3603,-366.5446 583.0306,-377.1182 589.4781,-374.3924"/>
</g>
<!-- Node13 -->
<g id="node14" class="node">
<title>Node13</title>
<g id="a_node14"><a xlink:href="l4_2sys_2ipc_8h.html" target="_top" xlink:title="Common IPC interface. ">
<polygon fill="#ffffff" stroke="#000000" points="542,-280.5 542,-299.5 610,-299.5 610,-280.5 542,-280.5"/>
<text text-anchor="middle" x="576" y="-287.5" font-family="Helvetica,sans-Serif" font-size="10.00" fill="#000000">l4/sys/ipc.h</text>
</a>
</g>
</g>
<!-- Node10&#45;&gt;Node13 -->
<g id="edge28" class="edge">
<title>Node10&#45;&gt;Node13</title>
<path fill="none" stroke="#191970" d="M558.5168,-403.3976C538.9249,-396.6689 517.6205,-385.4539 506,-367 498.6584,-355.3412 499.4587,-348.1259 506,-336 513.573,-321.9617 527.5073,-311.5084 540.9614,-304.1453"/>
<polygon fill="#191970" stroke="#191970" points="542.758,-307.1593 550.115,-299.5353 539.6094,-300.9074 542.758,-307.1593"/>
</g>
<!-- Node11&#45;&gt;Node3 -->
<g id="edge20" class="edge">
<title>Node11&#45;&gt;Node3</title>
<path fill="none" stroke="#191970" d="M650.8905,-224.4194C629.0112,-203.7214 575.5641,-153.3579 530,-112 519.1228,-102.1269 506.8167,-91.2288 496.9075,-82.5192"/>
<polygon fill="#191970" stroke="#191970" points="499.0579,-79.7498 489.2315,-75.7885 494.4428,-85.0131 499.0579,-79.7498"/>
</g>
<!-- Node11&#45;&gt;Node5 -->
<g id="edge21" class="edge">
<title>Node11&#45;&gt;Node5</title>
<path fill="none" stroke="#191970" d="M698.0988,-227.8837C746.8824,-217.6315 830.7555,-191.873 868,-132 878.3037,-115.4362 864.2033,-95.8806 850.5443,-82.3777"/>
<polygon fill="#191970" stroke="#191970" points="852.8799,-79.7704 843.1592,-75.5563 848.1303,-84.9125 852.8799,-79.7704"/>
</g>
<!-- Node11&#45;&gt;Node6 -->
<g id="edge19" class="edge">
<title>Node11&#45;&gt;Node6</title>
<path fill="none" stroke="#191970" d="M662.3935,-224.2455C663.4374,-216.9382 664.9008,-206.6944 666.1851,-197.7046"/>
<polygon fill="#191970" stroke="#191970" points="669.673,-198.0372 667.6225,-187.6427 662.7434,-197.0472 669.673,-198.0372"/>
</g>
<!-- Node12&#45;&gt;Node13 -->
<g id="edge23" class="edge">
<title>Node12&#45;&gt;Node13</title>
<path fill="none" stroke="#191970" d="M576,-336.2977C576,-328.3834 576,-318.6043 576,-310.0759"/>
<polygon fill="#191970" stroke="#191970" points="579.5001,-309.8469 576,-299.8469 572.5001,-309.847 579.5001,-309.8469"/>
</g>
<!-- Node13&#45;&gt;Node6 -->
<g id="edge24" class="edge">
<title>Node13&#45;&gt;Node6</title>
<path fill="none" stroke="#191970" d="M580.4076,-280.4011C586.8507,-266.9549 599.7478,-242.1277 615,-224 624.5096,-212.6976 636.9614,-201.8888 647.5113,-193.5919"/>
<polygon fill="#191970" stroke="#191970" points="649.6468,-196.365 655.4718,-187.5151 645.3993,-190.8009 649.6468,-196.365"/>
</g>
<!-- Node13&#45;&gt;Node11 -->
<g id="edge25" class="edge">
<title>Node13&#45;&gt;Node11</title>
<path fill="none" stroke="#191970" d="M590.8059,-280.2455C603.7256,-271.7337 622.6931,-259.2375 637.6552,-249.3801"/>
<polygon fill="#191970" stroke="#191970" points="639.9387,-252.067 646.3638,-243.6427 636.0876,-246.2216 639.9387,-252.067"/>
</g>
<!-- Node14 -->
<g id="node15" class="node">
<title>Node14</title>
<g id="a_node15"><a xlink:href="err_8h.html" target="_top" xlink:title="Error codes. ">
<polygon fill="#ffffff" stroke="#000000" points="277,-224.5 277,-243.5 345,-243.5 345,-224.5 277,-224.5"/>
<text text-anchor="middle" x="311" y="-231.5" font-family="Helvetica,sans-Serif" font-size="10.00" fill="#000000">l4/sys/err.h</text>
</a>
</g>
</g>
<!-- Node13&#45;&gt;Node14 -->
<g id="edge26" class="edge">
<title>Node13&#45;&gt;Node14</title>
<path fill="none" stroke="#191970" d="M541.8984,-282.7936C494.3262,-272.7406 407.9853,-254.495 355.4296,-243.3889"/>
<polygon fill="#191970" stroke="#191970" points="355.8981,-239.9107 345.3905,-241.2674 354.4507,-246.7594 355.8981,-239.9107"/>
</g>
<!-- Node14&#45;&gt;Node3 -->
<g id="edge27" class="edge">
<title>Node14&#45;&gt;Node3</title>
<path fill="none" stroke="#191970" d="M315.4713,-224.3025C326.1361,-202.0312 355.0345,-146.4945 393,-112 407.8454,-98.5118 427.3603,-87.5903 443.9469,-79.7795"/>
<polygon fill="#191970" stroke="#191970" points="445.6462,-82.8524 453.317,-75.5441 442.763,-76.4737 445.6462,-82.8524"/>
</g>
<!-- Node16 -->
<g id="node17" class="node">
<title>Node16</title>
<g id="a_node17"><a xlink:href="types.html" target="_top" xlink:title="cxx/types">
<polygon fill="#ffffff" stroke="#000000" points="207.5,-342 207.5,-361 268.5,-361 268.5,-342 207.5,-342"/>
<text text-anchor="middle" x="238" y="-349" font-family="Helvetica,sans-Serif" font-size="10.00" fill="#000000">cxx/types</text>
</a>
</g>
</g>
<!-- Node15&#45;&gt;Node16 -->
<g id="edge31" class="edge">
<title>Node15&#45;&gt;Node16</title>
<path fill="none" stroke="#191970" d="M520.2615,-459.3819C497.7865,-450.4727 463.8376,-436.586 435,-423 417.7349,-414.866 414.5872,-410.4121 397,-403 357.6235,-386.4049 310.9339,-371.8603 278.3755,-362.4987"/>
<polygon fill="#191970" stroke="#191970" points="279.3244,-359.1299 268.7486,-359.7633 277.4111,-365.8633 279.3244,-359.1299"/>
</g>
<!-- Node17 -->
<g id="node18" class="node">
<title>Node17</title>
<g id="a_node18"><a xlink:href="ipc__basics_source.html" target="_top" xlink:title="cxx/ipc_basics">
<polygon fill="#ffffff" stroke="#000000" points="304,-403.5 304,-422.5 388,-422.5 388,-403.5 304,-403.5"/>
<text text-anchor="middle" x="346" y="-410.5" font-family="Helvetica,sans-Serif" font-size="10.00" fill="#000000">cxx/ipc_basics</text>
</a>
</g>
</g>
<!-- Node15&#45;&gt;Node17 -->
<g id="edge32" class="edge">
<title>Node15&#45;&gt;Node17</title>
<path fill="none" stroke="#191970" d="M510.7907,-459.3733C477.2703,-449.9404 426.0495,-435.5265 389.619,-425.2747"/>
<polygon fill="#191970" stroke="#191970" points="390.3372,-421.8409 379.7629,-422.5011 388.4409,-428.5792 390.3372,-421.8409"/>
</g>
<!-- Node18 -->
<g id="node19" class="node">
<title>Node18</title>
<g id="a_node19"><a xlink:href="capability_8h_source.html" target="_top" xlink:title="cxx/capability.h">
<polygon fill="#ffffff" stroke="#000000" points="444.5,-403.5 444.5,-422.5 531.5,-422.5 531.5,-403.5 444.5,-403.5"/>
<text text-anchor="middle" x="488" y="-410.5" font-family="Helvetica,sans-Serif" font-size="10.00" fill="#000000">cxx/capability.h</text>
</a>
</g>
</g>
<!-- Node15&#45;&gt;Node18 -->
<g id="edge36" class="edge">
<title>Node15&#45;&gt;Node18</title>
<path fill="none" stroke="#191970" d="M535.0714,-459.2455C526.8162,-451.1352 514.8791,-439.4075 505.0918,-429.7919"/>
<polygon fill="#191970" stroke="#191970" points="507.4011,-427.1542 497.8149,-422.6427 502.4954,-432.1476 507.4011,-427.1542"/>
</g>
<!-- Node17&#45;&gt;Node11 -->
<g id="edge34" class="edge">
<title>Node17&#45;&gt;Node11</title>
<path fill="none" stroke="#191970" d="M357.0968,-403.4264C384.9922,-379.7499 460.9729,-317.6458 533,-280 559.6966,-266.0467 591.5706,-254.5772 616.8331,-246.5809"/>
<polygon fill="#191970" stroke="#191970" points="617.9992,-249.8838 626.5163,-243.5824 615.9285,-243.1971 617.9992,-249.8838"/>
</g>
<!-- Node17&#45;&gt;Node14 -->
<g id="edge35" class="edge">
<title>Node17&#45;&gt;Node14</title>
<path fill="none" stroke="#191970" d="M339.1397,-403.3063C333.1984,-394.3462 324.9548,-380.4273 321,-367 309.5453,-328.109 309.0815,-280.2018 309.9326,-253.804"/>
<polygon fill="#191970" stroke="#191970" points="313.4386,-253.7362 310.3655,-243.5968 306.4449,-253.4395 313.4386,-253.7362"/>
</g>
<!-- Node17&#45;&gt;Node16 -->
<g id="edge33" class="edge">
<title>Node17&#45;&gt;Node16</title>
<path fill="none" stroke="#191970" d="M329.125,-403.3906C311.5302,-393.3713 283.7434,-377.5483 263.4759,-366.0071"/>
<polygon fill="#191970" stroke="#191970" points="265.1783,-362.9489 254.7565,-361.0419 261.7144,-369.0318 265.1783,-362.9489"/>
</g>
<!-- Node18&#45;&gt;Node2 -->
<g id="edge37" class="edge">
<title>Node18&#45;&gt;Node2</title>
<path fill="none" stroke="#191970" d="M468.4918,-403.4884C435.6818,-385.9631 373,-345.2518 373,-290 373,-290 373,-290 373,-234 373,-189.1218 418.4239,-154.8269 449.5184,-136.6081"/>
<polygon fill="#191970" stroke="#191970" points="451.2562,-139.6463 458.2503,-131.688 447.82,-133.5478 451.2562,-139.6463"/>
</g>
<!-- Node18&#45;&gt;Node6 -->
<g id="edge38" class="edge">
<title>Node18&#45;&gt;Node6</title>
<path fill="none" stroke="#191970" d="M487.7513,-403.1988C487.6771,-388.2508 488.7423,-359.0616 497,-336 506.9745,-308.1438 513.5906,-302.3323 533,-280 565.3196,-242.8134 613.3181,-210.7526 642.8048,-192.9449"/>
<polygon fill="#191970" stroke="#191970" points="644.8709,-195.7888 651.6846,-187.6756 641.2986,-189.7689 644.8709,-195.7888"/>
</g>
<!-- Node18&#45;&gt;Node19 -->
<g id="edge39" class="edge">
<title>Node18&#45;&gt;Node19</title>
<path fill="none" stroke="#191970" d="M522.3353,-403.4497C554.4242,-394.4187 603.6137,-380.305 646,-367 648.789,-366.1245 651.6668,-365.2017 654.5581,-364.2605"/>
<polygon fill="#191970" stroke="#191970" points="655.9337,-367.4921 664.3307,-361.0314 653.7375,-360.8456 655.9337,-367.4921"/>
</g>
<!-- Node19&#45;&gt;Node6 -->
<g id="edge40" class="edge">
<title>Node19&#45;&gt;Node6</title>
<path fill="none" stroke="#191970" d="M696.0048,-341.8876C704.4444,-320.1713 722.0849,-265.9462 707,-224 703.0564,-213.0341 695.2403,-202.8227 687.7169,-194.8204"/>
<polygon fill="#191970" stroke="#191970" points="690.0101,-192.1653 680.4453,-187.6084 685.0807,-197.1354 690.0101,-192.1653"/>
</g>
<!-- Node19&#45;&gt;Node11 -->
<g id="edge41" class="edge">
<title>Node19&#45;&gt;Node11</title>
<path fill="none" stroke="#191970" d="M689.4631,-341.8845C684.3767,-322.6053 672.845,-278.8963 666.1247,-253.4241"/>
<polygon fill="#191970" stroke="#191970" points="669.5072,-252.5246 663.5719,-243.7484 662.7388,-254.3104 669.5072,-252.5246"/>
</g>
<!-- Node19&#45;&gt;Node13 -->
<g id="edge42" class="edge">
<title>Node19&#45;&gt;Node13</title>
<path fill="none" stroke="#191970" d="M673.875,-341.8906C654.8917,-331.8262 624.8627,-315.9057 603.0693,-304.3514"/>
<polygon fill="#191970" stroke="#191970" points="604.4723,-301.1338 593.9977,-299.5419 601.1934,-307.3184 604.4723,-301.1338"/>
</g>
<!-- Node20&#45;&gt;Node9 -->
<g id="edge45" class="edge">
<title>Node20&#45;&gt;Node9</title>
<path fill="none" stroke="#191970" d="M531.906,-627.4509C545.4756,-608.688 575.8024,-566.7548 593.1572,-542.758"/>
<polygon fill="#191970" stroke="#191970" points="596.0873,-544.679 599.1115,-534.5249 590.4152,-540.5768 596.0873,-544.679"/>
</g>
<!-- Node21 -->
<g id="node22" class="node">
<title>Node21</title>
<g id="a_node22"><a xlink:href="ipc__iface.html" target="_top" xlink:title="Interface Definition Language. ">
<polygon fill="#ffffff" stroke="#000000" points="470.5,-515.5 470.5,-534.5 547.5,-534.5 547.5,-515.5 470.5,-515.5"/>
<text text-anchor="middle" x="509" y="-522.5" font-family="Helvetica,sans-Serif" font-size="10.00" fill="#000000">cxx/ipc_iface</text>
</a>
</g>
</g>
<!-- Node20&#45;&gt;Node21 -->
<g id="edge46" class="edge">
<title>Node20&#45;&gt;Node21</title>
<path fill="none" stroke="#191970" d="M523.6358,-627.4509C521.0263,-609.184 515.2793,-568.9553 511.8139,-544.6976"/>
<polygon fill="#191970" stroke="#191970" points="515.2398,-543.9294 510.3607,-534.5249 508.3102,-544.9194 515.2398,-543.9294"/>
</g>
<!-- Node23 -->
<g id="node24" class="node">
<title>Node23</title>
<g id="a_node24"><a xlink:href="ipc__string_source.html" target="_top" xlink:title="cxx/ipc_string">
<polygon fill="#ffffff" stroke="#000000" points="319.5,-571.5 319.5,-590.5 400.5,-590.5 400.5,-571.5 319.5,-571.5"/>
<text text-anchor="middle" x="360" y="-578.5" font-family="Helvetica,sans-Serif" font-size="10.00" fill="#000000">cxx/ipc_string</text>
</a>
</g>
</g>
<!-- Node20&#45;&gt;Node23 -->
<g id="edge53" class="edge">
<title>Node20&#45;&gt;Node23</title>
<path fill="none" stroke="#191970" d="M496.6355,-627.3733C469.3173,-618.1016 427.8204,-604.0178 397.7262,-593.804"/>
<polygon fill="#191970" stroke="#191970" points="398.5887,-590.4008 387.9944,-590.5011 396.339,-597.0294 398.5887,-590.4008"/>
</g>
<!-- Node21&#45;&gt;Node15 -->
<g id="edge52" class="edge">
<title>Node21&#45;&gt;Node15</title>
<path fill="none" stroke="#191970" d="M515.2707,-515.2455C520.2264,-507.5367 527.283,-496.5598 533.2776,-487.2348"/>
<polygon fill="#191970" stroke="#191970" points="536.3376,-488.9471 538.8011,-478.6427 530.4494,-485.1618 536.3376,-488.9471"/>
</g>
<!-- Node21&#45;&gt;Node17 -->
<g id="edge47" class="edge">
<title>Node21&#45;&gt;Node17</title>
<path fill="none" stroke="#191970" d="M503.3484,-515.2087C494.7516,-501.0736 477.1354,-474.906 456,-459 436.4389,-444.2789 411.4741,-433.3418 390.2734,-425.8343"/>
<polygon fill="#191970" stroke="#191970" points="391.1147,-422.4238 380.5203,-422.5241 388.8649,-429.0524 391.1147,-422.4238"/>
</g>
<!-- Node22 -->
<g id="node23" class="node">
<title>Node22</title>
<g id="a_node23"><a xlink:href="ipc__types.html" target="_top" xlink:title="l4/sys/cxx/ipc_types">
<polygon fill="#ffffff" stroke="#000000" points="304,-459.5 304,-478.5 414,-478.5 414,-459.5 304,-459.5"/>
<text text-anchor="middle" x="359" y="-466.5" font-family="Helvetica,sans-Serif" font-size="10.00" fill="#000000">l4/sys/cxx/ipc_types</text>
</a>
</g>
</g>
<!-- Node21&#45;&gt;Node22 -->
<g id="edge48" class="edge">
<title>Node21&#45;&gt;Node22</title>
<path fill="none" stroke="#191970" d="M483.2141,-515.3733C458.5953,-506.1822 421.31,-492.2624 394.0125,-482.0713"/>
<polygon fill="#191970" stroke="#191970" points="395.042,-478.7198 384.4494,-478.5011 392.5937,-485.2777 395.042,-478.7198"/>
</g>
<!-- Node22&#45;&gt;Node16 -->
<g id="edge50" class="edge">
<title>Node22&#45;&gt;Node16</title>
<path fill="none" stroke="#191970" d="M343.3553,-459.4909C329.8059,-450.8648 310.0688,-437.3359 295,-423 277.8556,-406.6894 261.3512,-385.1316 250.5542,-369.9673"/>
<polygon fill="#191970" stroke="#191970" points="253.2074,-367.6533 244.6144,-361.4556 247.4669,-371.6592 253.2074,-367.6533"/>
</g>
<!-- Node22&#45;&gt;Node17 -->
<g id="edge51" class="edge">
<title>Node22&#45;&gt;Node17</title>
<path fill="none" stroke="#191970" d="M356.7356,-459.2455C355.0206,-451.8579 352.6088,-441.4689 350.5056,-432.4087"/>
<polygon fill="#191970" stroke="#191970" points="353.9092,-431.5922 348.2385,-422.6427 347.0905,-433.1751 353.9092,-431.5922"/>
</g>
<!-- Node22&#45;&gt;Node18 -->
<g id="edge49" class="edge">
<title>Node22&#45;&gt;Node18</title>
<path fill="none" stroke="#191970" d="M381.1759,-459.3733C401.9766,-450.3435 433.2917,-436.7494 456.6458,-426.6111"/>
<polygon fill="#191970" stroke="#191970" points="458.3343,-429.6938 466.1135,-422.5011 455.5468,-423.2727 458.3343,-429.6938"/>
</g>
<!-- Node23&#45;&gt;Node16 -->
<g id="edge54" class="edge">
<title>Node23&#45;&gt;Node16</title>
<path fill="none" stroke="#191970" d="M319.5812,-571.3333C299.7537,-564.487 277.3263,-553.1874 264,-535 227.6204,-485.3503 231.0923,-407.4383 235.1713,-371.2259"/>
<polygon fill="#191970" stroke="#191970" points="238.6792,-371.384 236.4672,-361.0226 231.735,-370.5019 238.6792,-371.384"/>
</g>
<!-- Node23&#45;&gt;Node17 -->
<g id="edge55" class="edge">
<title>Node23&#45;&gt;Node17</title>
<path fill="none" stroke="#191970" d="M371.8233,-571.372C395.8682,-550.582 446.2942,-500.0503 423,-459 414.7414,-444.4463 399.8484,-434.0054 385.3459,-426.7891"/>
<polygon fill="#191970" stroke="#191970" points="386.4966,-423.4671 375.9458,-422.5017 383.5917,-429.8359 386.4966,-423.4671"/>
</g>
<!-- Node24 -->
<g id="node25" class="node">
<title>Node24</title>
<g id="a_node25"><a xlink:href="ipc__array_source.html" target="_top" xlink:title="ipc_array">
<polygon fill="#ffffff" stroke="#000000" points="273.5,-515.5 273.5,-534.5 334.5,-534.5 334.5,-515.5 273.5,-515.5"/>
<text text-anchor="middle" x="304" y="-522.5" font-family="Helvetica,sans-Serif" font-size="10.00" fill="#000000">ipc_array</text>
</a>
</g>
</g>
<!-- Node23&#45;&gt;Node24 -->
<g id="edge56" class="edge">
<title>Node23&#45;&gt;Node24</title>
<path fill="none" stroke="#191970" d="M350.2455,-571.2455C342.1352,-563.1352 330.4075,-551.4075 320.7919,-541.7919"/>
<polygon fill="#191970" stroke="#191970" points="323.1887,-539.2389 313.6427,-534.6427 318.2389,-544.1887 323.1887,-539.2389"/>
</g>
<!-- Node24&#45;&gt;Node16 -->
<g id="edge57" class="edge">
<title>Node24&#45;&gt;Node16</title>
<path fill="none" stroke="#191970" d="M300.3575,-515.4248C289.8797,-487.8807 259.5109,-408.0477 245.3859,-370.916"/>
<polygon fill="#191970" stroke="#191970" points="248.5394,-369.3617 241.7126,-361.2595 241.9968,-371.8506 248.5394,-369.3617"/>
</g>
<!-- Node24&#45;&gt;Node17 -->
<g id="edge58" class="edge">
<title>Node24&#45;&gt;Node17</title>
<path fill="none" stroke="#191970" d="M299.4896,-515.1408C294.0849,-501.8186 286.7296,-477.5972 295,-459 300.4508,-446.7432 310.9599,-436.3755 321.0289,-428.6036"/>
<polygon fill="#191970" stroke="#191970" points="323.1744,-431.3721 329.2627,-422.7012 319.096,-425.6828 323.1744,-431.3721"/>
</g>
<!-- Node24&#45;&gt;Node22 -->
<g id="edge59" class="edge">
<title>Node24&#45;&gt;Node22</title>
<path fill="none" stroke="#191970" d="M313.5803,-515.2455C321.5458,-507.1352 333.0641,-495.4075 342.5079,-485.7919"/>
<polygon fill="#191970" stroke="#191970" points="345.0195,-488.2297 349.5295,-478.6427 340.0253,-483.3247 345.0195,-488.2297"/>
</g>
<!-- Node25&#45;&gt;Node1 -->
<g id="edge66" class="edge">
<title>Node25&#45;&gt;Node1</title>
<path fill="none" stroke="#191970" d="M469.7156,-739.2455C480.602,-730.8943 496.4883,-718.7076 509.22,-708.9408"/>
<polygon fill="#191970" stroke="#191970" points="511.6261,-711.5063 517.4301,-702.6427 507.3654,-705.9523 511.6261,-711.5063"/>
</g>
<!-- Node25&#45;&gt;Node21 -->
<g id="edge67" class="edge">
<title>Node25&#45;&gt;Node21</title>
<path fill="none" stroke="#191970" d="M458.6302,-739.4575C462.2075,-718.8335 471.2112,-668.6052 481,-627 487.8447,-597.9079 497.3032,-564.5808 503.2857,-544.1615"/>
<polygon fill="#191970" stroke="#191970" points="506.6625,-545.0843 506.139,-534.5024 499.9493,-543.1011 506.6625,-545.0843"/>
</g>
<!-- Node26 -->
<g id="node27" class="node">
<title>Node26</title>
<g id="a_node27"><a xlink:href="factory_8h.html" target="_top" xlink:title="Common factory related definitions. ">
<polygon fill="#ffffff" stroke="#000000" points="102.5,-342 102.5,-361 189.5,-361 189.5,-342 102.5,-342"/>
<text text-anchor="middle" x="146" y="-349" font-family="Helvetica,sans-Serif" font-size="10.00" fill="#000000">l4/sys/factory.h</text>
</a>
</g>
</g>
<!-- Node25&#45;&gt;Node26 -->
<g id="edge61" class="edge">
<title>Node25&#45;&gt;Node26</title>
<path fill="none" stroke="#191970" d="M417.4264,-746.2664C340.3018,-740.5053 172.8096,-725.7448 120,-703 77.0328,-684.4943 38,-683.7829 38,-637 38,-637 38,-637 38,-469 38,-421.7163 85.993,-385.2583 117.993,-366.2047"/>
<polygon fill="#191970" stroke="#191970" points="120.0043,-369.0862 126.9404,-361.0774 116.5238,-363.0128 120.0043,-369.0862"/>
</g>
<!-- Node27 -->
<g id="node28" class="node">
<title>Node27</title>
<g id="a_node28"><a xlink:href="ipc__varg_source.html" target="_top" xlink:title="l4/sys/cxx/ipc_varg">
<polygon fill="#ffffff" stroke="#000000" points="66,-459.5 66,-478.5 172,-478.5 172,-459.5 66,-459.5"/>
<text text-anchor="middle" x="119" y="-466.5" font-family="Helvetica,sans-Serif" font-size="10.00" fill="#000000">l4/sys/cxx/ipc_varg</text>
</a>
</g>
</g>
<!-- Node25&#45;&gt;Node27 -->
<g id="edge68" class="edge">
<title>Node25&#45;&gt;Node27</title>
<path fill="none" stroke="#191970" d="M417.3045,-745.8174C319.721,-736.9054 76,-707.582 76,-637 76,-637 76,-637 76,-581 76,-546.1403 94.3793,-508.9899 107.1059,-487.444"/>
<polygon fill="#191970" stroke="#191970" points="110.2206,-489.0603 112.4692,-478.7069 104.2549,-485.3983 110.2206,-489.0603"/>
</g>
<!-- Node26&#45;&gt;Node3 -->
<g id="edge62" class="edge">
<title>Node26&#45;&gt;Node3</title>
<path fill="none" stroke="#191970" d="M146.6952,-341.757C148.0691,-321.6352 151,-274.0188 151,-234 151,-234 151,-234 151,-178 151,-121.6934 326.7199,-87.7531 420.535,-73.6451"/>
<polygon fill="#191970" stroke="#191970" points="421.0695,-77.1042 430.4514,-72.1818 420.0475,-70.1792 421.0695,-77.1042"/>
</g>
<!-- Node26&#45;&gt;Node6 -->
<g id="edge63" class="edge">
<title>Node26&#45;&gt;Node6</title>
<path fill="none" stroke="#191970" d="M151.8989,-341.6608C167.354,-316.8872 211.7467,-251.9285 268,-224 328.4969,-193.9646 525.2664,-183.0799 618.7719,-179.5354"/>
<polygon fill="#191970" stroke="#191970" points="618.9744,-183.0305 628.8397,-179.1671 618.7184,-176.0351 618.9744,-183.0305"/>
</g>
<!-- Node26&#45;&gt;Node11 -->
<g id="edge64" class="edge">
<title>Node26&#45;&gt;Node11</title>
<path fill="none" stroke="#191970" d="M164.8694,-341.9215C196.3668,-326.3647 262.0251,-295.7629 321,-280 423.2821,-252.662 547.4336,-241.1111 613.7809,-236.6037"/>
<polygon fill="#191970" stroke="#191970" points="614.171,-240.0858 623.9208,-235.9394 613.7133,-233.1007 614.171,-240.0858"/>
</g>
<!-- Node26&#45;&gt;Node13 -->
<g id="edge65" class="edge">
<title>Node26&#45;&gt;Node13</title>
<path fill="none" stroke="#191970" d="M174.9315,-341.9356C182.3848,-339.732 190.4377,-337.5755 198,-336 317.1175,-311.1839 460.3407,-298.274 531.437,-292.9775"/>
<polygon fill="#191970" stroke="#191970" points="532.084,-296.4397 541.8029,-292.2214 531.5747,-289.4582 532.084,-296.4397"/>
</g>
<!-- Node27&#45;&gt;Node16 -->
<g id="edge69" class="edge">
<title>Node27&#45;&gt;Node16</title>
<path fill="none" stroke="#191970" d="M128.7383,-459.3845C148.8738,-439.5028 195.3214,-393.6406 220.691,-368.5908"/>
<polygon fill="#191970" stroke="#191970" points="223.4705,-370.765 228.1272,-361.2484 218.5522,-365.784 223.4705,-370.765"/>
</g>
<!-- Node27&#45;&gt;Node17 -->
<g id="edge70" class="edge">
<title>Node27&#45;&gt;Node17</title>
<path fill="none" stroke="#191970" d="M157.7648,-459.4369C196.3692,-449.9133 255.7384,-435.2672 297.4572,-424.9753"/>
<polygon fill="#191970" stroke="#191970" points="298.5245,-428.317 307.3951,-422.5237 296.8479,-421.5208 298.5245,-428.317"/>
</g>
</g>
</svg>
