<?xml version="1.0" encoding="UTF-8" standalone="no"?>
<!DOCTYPE svg PUBLIC "-//W3C//DTD SVG 1.1//EN"
 "http://www.w3.org/Graphics/SVG/1.1/DTD/svg11.dtd">
<!-- Generated by graphviz version 2.40.1 (20161225.0304)
 -->
<!-- Title: l4/re/c/mem_alloc.h Pages: 1 -->
<svg width="558pt" height="420pt"
 viewBox="0.00 0.00 557.87 420.00" xmlns="http://www.w3.org/2000/svg" xmlns:xlink="http://www.w3.org/1999/xlink">
<g id="graph0" class="graph" transform="scale(1 1) rotate(0) translate(4 416)">
<title>l4/re/c/mem_alloc.h</title>
<polygon fill="#ffffff" stroke="transparent" points="-4,4 -4,-416 553.8664,-416 553.8664,4 -4,4"/>
<!-- Node0 -->
<g id="node1" class="node">
<title>Node0</title>
<polygon fill="#bfbfbf" stroke="#000000" points="158.5189,-392.5 158.5189,-411.5 265.5189,-411.5 265.5189,-392.5 158.5189,-392.5"/>
<text text-anchor="middle" x="212.0189" y="-399.5" font-family="Helvetica,sans-Serif" font-size="10.00" fill="#000000">l4/re/c/mem_alloc.h</text>
</g>
<!-- Node1 -->
<g id="node2" class="node">
<title>Node1</title>
<g id="a_node2"><a xlink:href="env_8h.html" target="_top" xlink:title="Environment interface. ">
<polygon fill="#ffffff" stroke="#000000" points="179.0189,-336.5 179.0189,-355.5 245.0189,-355.5 245.0189,-336.5 179.0189,-336.5"/>
<text text-anchor="middle" x="212.0189" y="-343.5" font-family="Helvetica,sans-Serif" font-size="10.00" fill="#000000">l4/re/env.h</text>
</a>
</g>
</g>
<!-- Node0&#45;&gt;Node1 -->
<g id="edge1" class="edge">
<title>Node0&#45;&gt;Node1</title>
<path fill="none" stroke="#191970" d="M212.0189,-392.2455C212.0189,-384.9382 212.0189,-374.6944 212.0189,-365.7046"/>
<polygon fill="#191970" stroke="#191970" points="215.519,-365.6426 212.0189,-355.6427 208.519,-365.6427 215.519,-365.6426"/>
</g>
<!-- Node2 -->
<g id="node3" class="node">
<title>Node2</title>
<g id="a_node3"><a xlink:href="l4_2sys_2consts_8h.html" target="_top" xlink:title="Common constants. ">
<polygon fill="#ffffff" stroke="#000000" points="60.0189,-112.5 60.0189,-131.5 146.0189,-131.5 146.0189,-112.5 60.0189,-112.5"/>
<text text-anchor="middle" x="103.0189" y="-119.5" font-family="Helvetica,sans-Serif" font-size="10.00" fill="#000000">l4/sys/consts.h</text>
</a>
</g>
</g>
<!-- Node0&#45;&gt;Node2 -->
<g id="edge23" class="edge">
<title>Node0&#45;&gt;Node2</title>
<path fill="none" stroke="#191970" d="M158.2483,-396.8226C95.4411,-387.4686 .0189,-361.4929 .0189,-290 .0189,-290 .0189,-290 .0189,-234 .0189,-203.4754 -.0568,-191.83 19.0189,-168 30.658,-153.4601 48.1941,-142.8372 64.2382,-135.4873"/>
<polygon fill="#191970" stroke="#191970" points="65.646,-138.6919 73.4564,-131.5332 62.8864,-132.2588 65.646,-138.6919"/>
</g>
<!-- Node13 -->
<g id="node14" class="node">
<title>Node13</title>
<g id="a_node14"><a xlink:href="dataspace_8h.html" target="_top" xlink:title="Data space C interface. ">
<polygon fill="#ffffff" stroke="#000000" points="371.5189,-336.5 371.5189,-355.5 478.5189,-355.5 478.5189,-336.5 371.5189,-336.5"/>
<text text-anchor="middle" x="425.0189" y="-343.5" font-family="Helvetica,sans-Serif" font-size="10.00" fill="#000000">l4/re/c/dataspace.h</text>
</a>
</g>
</g>
<!-- Node0&#45;&gt;Node13 -->
<g id="edge24" class="edge">
<title>Node0&#45;&gt;Node13</title>
<path fill="none" stroke="#191970" d="M248.6349,-392.3733C284.6669,-382.9001 339.8067,-368.4032 378.8303,-358.1435"/>
<polygon fill="#191970" stroke="#191970" points="380.0994,-361.4289 388.8807,-355.5011 378.3194,-354.6589 380.0994,-361.4289"/>
</g>
<!-- Node1&#45;&gt;Node2 -->
<g id="edge2" class="edge">
<title>Node1&#45;&gt;Node2</title>
<path fill="none" stroke="#191970" d="M207.3353,-336.375C190.7045,-302.1979 134.3026,-186.2894 112.1031,-140.6683"/>
<polygon fill="#191970" stroke="#191970" points="115.2078,-139.0496 107.6851,-131.5891 108.9135,-142.1125 115.2078,-139.0496"/>
</g>
<!-- Node3 -->
<g id="node4" class="node">
<title>Node3</title>
<g id="a_node4"><a xlink:href="compiler_8h.html" target="_top" xlink:title="L4 compiler related defines. ">
<polygon fill="#ffffff" stroke="#000000" points="404.5189,-56.5 404.5189,-75.5 499.5189,-75.5 499.5189,-56.5 404.5189,-56.5"/>
<text text-anchor="middle" x="452.0189" y="-63.5" font-family="Helvetica,sans-Serif" font-size="10.00" fill="#000000">l4/sys/compiler.h</text>
</a>
</g>
</g>
<!-- Node1&#45;&gt;Node3 -->
<g id="edge20" class="edge">
<title>Node1&#45;&gt;Node3</title>
<path fill="none" stroke="#191970" d="M245.0213,-341.2101C302.1362,-331.5256 420.8767,-305.1049 500.0189,-244 547.8844,-207.0435 565.7372,-162.8567 533.0189,-112 523.5992,-97.3582 507.7775,-86.8962 492.6041,-79.6877"/>
<polygon fill="#191970" stroke="#191970" points="493.8672,-76.42 483.3033,-75.6117 491.0574,-82.8313 493.8672,-76.42"/>
</g>
<!-- Node6 -->
<g id="node7" class="node">
<title>Node6</title>
<g id="a_node7"><a xlink:href="l4_2sys_2types_8h.html" target="_top" xlink:title="Common L4 ABI Data Types. ">
<polygon fill="#ffffff" stroke="#000000" points="311.0189,-168.5 311.0189,-187.5 391.0189,-187.5 391.0189,-168.5 311.0189,-168.5"/>
<text text-anchor="middle" x="351.0189" y="-175.5" font-family="Helvetica,sans-Serif" font-size="10.00" fill="#000000">l4/sys/types.h</text>
</a>
</g>
</g>
<!-- Node1&#45;&gt;Node6 -->
<g id="edge6" class="edge">
<title>Node1&#45;&gt;Node6</title>
<path fill="none" stroke="#191970" d="M210.5233,-336.1666C207.6703,-313.6095 203.9395,-257.5129 231.0189,-224 248.1502,-202.7987 276.2593,-191.3568 300.9671,-185.1879"/>
<polygon fill="#191970" stroke="#191970" points="301.9689,-188.5497 310.9483,-182.9266 300.4221,-181.7227 301.9689,-188.5497"/>
</g>
<!-- Node9 -->
<g id="node10" class="node">
<title>Node9</title>
<g id="a_node10"><a xlink:href="sys_2kip_8h.html" target="_top" xlink:title="Kernel Info Page access functions. ">
<polygon fill="#ffffff" stroke="#000000" points="258.0189,-280.5 258.0189,-299.5 326.0189,-299.5 326.0189,-280.5 258.0189,-280.5"/>
<text text-anchor="middle" x="292.0189" y="-287.5" font-family="Helvetica,sans-Serif" font-size="10.00" fill="#000000">l4/sys/kip.h</text>
</a>
</g>
</g>
<!-- Node1&#45;&gt;Node9 -->
<g id="edge14" class="edge">
<title>Node1&#45;&gt;Node9</title>
<path fill="none" stroke="#191970" d="M225.9539,-336.2455C238.1136,-327.7337 255.9654,-315.2375 270.0474,-305.3801"/>
<polygon fill="#191970" stroke="#191970" points="272.0585,-308.2447 278.2437,-299.6427 268.0442,-302.51 272.0585,-308.2447"/>
</g>
<!-- Node12 -->
<g id="node13" class="node">
<title>Node12</title>
<g id="a_node13"><a xlink:href="l4_2re_2consts_8h.html" target="_top" xlink:title="Constants. ">
<polygon fill="#ffffff" stroke="#000000" points="28.0189,-168.5 28.0189,-187.5 108.0189,-187.5 108.0189,-168.5 28.0189,-168.5"/>
<text text-anchor="middle" x="68.0189" y="-175.5" font-family="Helvetica,sans-Serif" font-size="10.00" fill="#000000">l4/re/consts.h</text>
</a>
</g>
</g>
<!-- Node1&#45;&gt;Node12 -->
<g id="edge21" class="edge">
<title>Node1&#45;&gt;Node12</title>
<path fill="none" stroke="#191970" d="M181.6158,-336.4202C162.4341,-329.0625 138.296,-317.2116 122.0189,-300 94.0281,-270.4021 79.0101,-223.8902 72.3513,-197.6744"/>
<polygon fill="#191970" stroke="#191970" points="75.7187,-196.7063 69.9958,-187.7901 68.9093,-198.329 75.7187,-196.7063"/>
</g>
<!-- Node2&#45;&gt;Node3 -->
<g id="edge3" class="edge">
<title>Node2&#45;&gt;Node3</title>
<path fill="none" stroke="#191970" d="M146.1632,-115.0771C208.7401,-105.0361 324.8099,-86.4118 394.5696,-75.2182"/>
<polygon fill="#191970" stroke="#191970" points="395.195,-78.6627 404.5141,-73.6225 394.0859,-71.7512 395.195,-78.6627"/>
</g>
<!-- Node5 -->
<g id="node6" class="node">
<title>Node5</title>
<g id="a_node6"><a xlink:href="l4_2sys_2l4int_8h.html" target="_top" xlink:title="Fixed sized integer types, generic version. ">
<polygon fill="#ffffff" stroke="#000000" points="177.0189,-56.5 177.0189,-75.5 251.0189,-75.5 251.0189,-56.5 177.0189,-56.5"/>
<text text-anchor="middle" x="214.0189" y="-63.5" font-family="Helvetica,sans-Serif" font-size="10.00" fill="#000000">l4/sys/l4int.h</text>
</a>
</g>
</g>
<!-- Node2&#45;&gt;Node5 -->
<g id="edge5" class="edge">
<title>Node2&#45;&gt;Node5</title>
<path fill="none" stroke="#191970" d="M122.1005,-112.3733C139.7591,-103.4644 166.2242,-90.1127 186.2287,-80.0203"/>
<polygon fill="#191970" stroke="#191970" points="187.8347,-83.1303 195.1864,-75.5011 184.6817,-76.8806 187.8347,-83.1303"/>
</g>
<!-- Node4 -->
<g id="node5" class="node">
<title>Node4</title>
<polygon fill="#ffffff" stroke="#bfbfbf" points="407.5189,-.5 407.5189,-19.5 496.5189,-19.5 496.5189,-.5 407.5189,-.5"/>
<text text-anchor="middle" x="452.0189" y="-7.5" font-family="Helvetica,sans-Serif" font-size="10.00" fill="#000000">l4/sys/linkage.h</text>
</g>
<!-- Node3&#45;&gt;Node4 -->
<g id="edge4" class="edge">
<title>Node3&#45;&gt;Node4</title>
<path fill="none" stroke="#191970" d="M452.0189,-56.2455C452.0189,-48.9382 452.0189,-38.6944 452.0189,-29.7046"/>
<polygon fill="#191970" stroke="#191970" points="455.519,-29.6426 452.0189,-19.6427 448.519,-29.6427 455.519,-29.6426"/>
</g>
<!-- Node6&#45;&gt;Node2 -->
<g id="edge9" class="edge">
<title>Node6&#45;&gt;Node2</title>
<path fill="none" stroke="#191970" d="M310.8978,-168.9404C268.4957,-159.3657 201.4594,-144.2285 155.0271,-133.7438"/>
<polygon fill="#191970" stroke="#191970" points="155.6821,-130.3036 145.1568,-131.515 154.1402,-137.1317 155.6821,-130.3036"/>
</g>
<!-- Node6&#45;&gt;Node3 -->
<g id="edge8" class="edge">
<title>Node6&#45;&gt;Node3</title>
<path fill="none" stroke="#191970" d="M355.0752,-168.2312C361.0701,-154.5832 373.3022,-129.5178 389.0189,-112 399.8625,-99.9138 414.3682,-89.0585 426.7271,-80.9323"/>
<polygon fill="#191970" stroke="#191970" points="428.693,-83.8301 435.2638,-75.5189 424.9442,-77.9185 428.693,-83.8301"/>
</g>
<!-- Node6&#45;&gt;Node5 -->
<g id="edge7" class="edge">
<title>Node6&#45;&gt;Node5</title>
<path fill="none" stroke="#191970" d="M347.5999,-168.2539C342.2247,-154.1752 330.567,-128.0771 313.0189,-112 296.9541,-97.2818 275.3532,-86.5061 256.4281,-79.1001"/>
<polygon fill="#191970" stroke="#191970" points="257.4118,-75.7319 246.8188,-75.5314 254.9747,-82.294 257.4118,-75.7319"/>
</g>
<!-- Node7 -->
<g id="node8" class="node">
<title>Node7</title>
<g id="a_node8"><a xlink:href="____l4__fpage_8h_source.html" target="_top" xlink:title="l4/sys/__l4_fpage.h">
<polygon fill="#ffffff" stroke="#000000" points="398.0189,-112.5 398.0189,-131.5 506.0189,-131.5 506.0189,-112.5 398.0189,-112.5"/>
<text text-anchor="middle" x="452.0189" y="-119.5" font-family="Helvetica,sans-Serif" font-size="10.00" fill="#000000">l4/sys/__l4_fpage.h</text>
</a>
</g>
</g>
<!-- Node6&#45;&gt;Node7 -->
<g id="edge10" class="edge">
<title>Node6&#45;&gt;Node7</title>
<path fill="none" stroke="#191970" d="M368.6118,-168.2455C384.398,-159.4928 407.7828,-146.527 425.7777,-136.5496"/>
<polygon fill="#191970" stroke="#191970" points="427.5792,-139.5528 434.6277,-131.6427 424.1848,-133.4308 427.5792,-139.5528"/>
</g>
<!-- Node8 -->
<g id="node9" class="node">
<title>Node8</title>
<g id="a_node9"><a xlink:href="____timeout_8h_source.html" target="_top" xlink:title="l4/sys/__timeout.h">
<polygon fill="#ffffff" stroke="#000000" points="202.5189,-112.5 202.5189,-131.5 303.5189,-131.5 303.5189,-112.5 202.5189,-112.5"/>
<text text-anchor="middle" x="253.0189" y="-119.5" font-family="Helvetica,sans-Serif" font-size="10.00" fill="#000000">l4/sys/__timeout.h</text>
</a>
</g>
</g>
<!-- Node6&#45;&gt;Node8 -->
<g id="edge12" class="edge">
<title>Node6&#45;&gt;Node8</title>
<path fill="none" stroke="#191970" d="M333.9486,-168.2455C318.7719,-159.5731 296.3568,-146.7645 278.9626,-136.825"/>
<polygon fill="#191970" stroke="#191970" points="280.3126,-133.5653 269.8936,-131.6427 276.8396,-139.643 280.3126,-133.5653"/>
</g>
<!-- Node7&#45;&gt;Node3 -->
<g id="edge11" class="edge">
<title>Node7&#45;&gt;Node3</title>
<path fill="none" stroke="#191970" d="M452.0189,-112.2455C452.0189,-104.9382 452.0189,-94.6944 452.0189,-85.7046"/>
<polygon fill="#191970" stroke="#191970" points="455.519,-85.6426 452.0189,-75.6427 448.519,-85.6427 455.519,-85.6426"/>
</g>
<!-- Node8&#45;&gt;Node5 -->
<g id="edge13" class="edge">
<title>Node8&#45;&gt;Node5</title>
<path fill="none" stroke="#191970" d="M246.2257,-112.2455C240.8011,-104.4564 233.0529,-93.3308 226.5156,-83.9439"/>
<polygon fill="#191970" stroke="#191970" points="229.3215,-81.8485 220.7344,-75.6427 223.5772,-85.849 229.3215,-81.8485"/>
</g>
<!-- Node9&#45;&gt;Node3 -->
<g id="edge15" class="edge">
<title>Node9&#45;&gt;Node3</title>
<path fill="none" stroke="#191970" d="M326.2445,-285.4615C373.4571,-278.5534 455.2189,-264.0539 477.0189,-244 521.9492,-202.6686 542.6704,-166.428 515.0189,-112 508.1579,-98.4951 495.2657,-88.0099 482.9223,-80.4839"/>
<polygon fill="#191970" stroke="#191970" points="484.5556,-77.3868 474.1255,-75.5258 481.1186,-83.4849 484.5556,-77.3868"/>
</g>
<!-- Node9&#45;&gt;Node5 -->
<g id="edge16" class="edge">
<title>Node9&#45;&gt;Node5</title>
<path fill="none" stroke="#191970" d="M273.8787,-280.3718C260.3048,-272.3135 242.2231,-259.6321 231.0189,-244 195.5249,-194.4786 181.6122,-171.6512 194.0189,-112 195.9604,-102.6655 199.8993,-92.9017 203.7721,-84.783"/>
<polygon fill="#191970" stroke="#191970" points="206.9092,-86.3353 208.3245,-75.8354 200.6703,-83.161 206.9092,-86.3353"/>
</g>
<!-- Node10 -->
<g id="node11" class="node">
<title>Node10</title>
<polygon fill="#ffffff" stroke="#bfbfbf" points="240.0189,-224.5 240.0189,-243.5 344.0189,-243.5 344.0189,-224.5 240.0189,-224.5"/>
<text text-anchor="middle" x="292.0189" y="-231.5" font-family="Helvetica,sans-Serif" font-size="10.00" fill="#000000">l4/sys/__kip&#45;arch.h</text>
</g>
<!-- Node9&#45;&gt;Node10 -->
<g id="edge17" class="edge">
<title>Node9&#45;&gt;Node10</title>
<path fill="none" stroke="#191970" d="M292.0189,-280.2455C292.0189,-272.9382 292.0189,-262.6944 292.0189,-253.7046"/>
<polygon fill="#191970" stroke="#191970" points="295.519,-253.6426 292.0189,-243.6427 288.519,-253.6427 295.519,-253.6426"/>
</g>
<!-- Node11 -->
<g id="node12" class="node">
<title>Node11</title>
<g id="a_node12"><a xlink:href="____kip-64bit_8h_source.html" target="_top" xlink:title="l4/sys/__kip&#45;64bit.h">
<polygon fill="#ffffff" stroke="#000000" points="362.0189,-224.5 362.0189,-243.5 468.0189,-243.5 468.0189,-224.5 362.0189,-224.5"/>
<text text-anchor="middle" x="415.0189" y="-231.5" font-family="Helvetica,sans-Serif" font-size="10.00" fill="#000000">l4/sys/__kip&#45;64bit.h</text>
</a>
</g>
</g>
<!-- Node9&#45;&gt;Node11 -->
<g id="edge18" class="edge">
<title>Node9&#45;&gt;Node11</title>
<path fill="none" stroke="#191970" d="M313.1634,-280.3733C332.9081,-271.3838 362.5888,-257.8706 384.8244,-247.7471"/>
<polygon fill="#191970" stroke="#191970" points="386.4995,-250.8302 394.1504,-243.5011 383.599,-244.4594 386.4995,-250.8302"/>
</g>
<!-- Node11&#45;&gt;Node6 -->
<g id="edge19" class="edge">
<title>Node11&#45;&gt;Node6</title>
<path fill="none" stroke="#191970" d="M403.871,-224.2455C394.5103,-216.0549 380.9331,-204.1749 369.884,-194.5069"/>
<polygon fill="#191970" stroke="#191970" points="371.8697,-191.5937 362.0391,-187.6427 367.2601,-196.8618 371.8697,-191.5937"/>
</g>
<!-- Node12&#45;&gt;Node2 -->
<g id="edge22" class="edge">
<title>Node12&#45;&gt;Node2</title>
<path fill="none" stroke="#191970" d="M74.1155,-168.2455C78.9335,-160.5367 85.7941,-149.5598 91.6222,-140.2348"/>
<polygon fill="#191970" stroke="#191970" points="94.6602,-141.9777 96.9923,-131.6427 88.7242,-138.2677 94.6602,-141.9777"/>
</g>
<!-- Node13&#45;&gt;Node6 -->
<g id="edge25" class="edge">
<title>Node13&#45;&gt;Node6</title>
<path fill="none" stroke="#191970" d="M435.1841,-336.4573C456.828,-314.9714 503.4128,-261.7337 477.0189,-224 467.8353,-210.8707 432.1185,-198.565 401.0467,-189.9911"/>
<polygon fill="#191970" stroke="#191970" points="401.7263,-186.5498 391.1612,-187.3422 399.9145,-193.3113 401.7263,-186.5498"/>
</g>
</g>
</svg>
