<?xml version="1.0" encoding="UTF-8" standalone="no"?>
<!DOCTYPE svg PUBLIC "-//W3C//DTD SVG 1.1//EN"
 "http://www.w3.org/Graphics/SVG/1.1/DTD/svg11.dtd">
<!-- Generated by graphviz version 2.40.1 (20161225.0304)
 -->
<!-- Title: L4::trunc_order Pages: 1 -->
<svg width="514pt" height="53pt"
 viewBox="0.00 0.00 514.00 52.50" xmlns="http://www.w3.org/2000/svg" xmlns:xlink="http://www.w3.org/1999/xlink">
<g id="graph0" class="graph" transform="scale(1 1) rotate(0) translate(4 48.5)">
<title>L4::trunc_order</title>
<polygon fill="#ffffff" stroke="transparent" points="-4,4 -4,-48.5 510,-48.5 510,4 -4,4"/>
<!-- Node68 -->
<g id="node1" class="node">
<title>Node68</title>
<polygon fill="#bfbfbf" stroke="#000000" points="0,-19.5 0,-38.5 88,-38.5 88,-19.5 0,-19.5"/>
<text text-anchor="middle" x="44" y="-26.5" font-family="Helvetica,sans-Serif" font-size="10.00" fill="#000000">L4::trunc_order</text>
</g>
<!-- Node69 -->
<g id="node2" class="node">
<title>Node69</title>
<g id="a_node2"><a xlink:href="classL4Re_1_1Dataspace.html#a7caf317574ca8fa0f43bcd333f7bb860" target="_top" xlink:title="Map a part of a dataspace into a local memory area. ">
<polygon fill="#ffffff" stroke="#000000" points="252,-14 252,-44 374,-44 374,-14 252,-14"/>
<text text-anchor="start" x="260" y="-32" font-family="Helvetica,sans-Serif" font-size="10.00" fill="#000000">L4Re::Dataspace::map</text>
<text text-anchor="middle" x="313" y="-21" font-family="Helvetica,sans-Serif" font-size="10.00" fill="#000000">_region</text>
</a>
</g>
</g>
<!-- Node68&#45;&gt;Node69 -->
<g id="edge1" class="edge">
<title>Node68&#45;&gt;Node69</title>
<path fill="none" stroke="#191970" d="M98.15,-29C142.5868,-29 205.4963,-29 251.7619,-29"/>
<polygon fill="#191970" stroke="#191970" points="98.1187,-25.5001 88.1187,-29 98.1186,-32.5001 98.1187,-25.5001"/>
</g>
<!-- Node71 -->
<g id="node4" class="node">
<title>Node71</title>
<g id="a_node4"><a xlink:href="namespaceL4.html#a92c0d3febc3cd6b35aa072d1bf2d9d11" target="_top" xlink:title="Round a value up so the given number of lsb is zero. ">
<polygon fill="#ffffff" stroke="#000000" points="124,-.5 124,-19.5 216,-19.5 216,-.5 124,-.5"/>
<text text-anchor="middle" x="170" y="-7.5" font-family="Helvetica,sans-Serif" font-size="10.00" fill="#000000">L4::round_order</text>
</a>
</g>
</g>
<!-- Node68&#45;&gt;Node71 -->
<g id="edge3" class="edge">
<title>Node68&#45;&gt;Node71</title>
<path fill="none" stroke="#191970" d="M98.2288,-20.8226C106.68,-19.5483 115.346,-18.2415 123.6023,-16.9965"/>
<polygon fill="#191970" stroke="#191970" points="97.435,-17.4027 88.0687,-22.3547 98.4788,-24.3244 97.435,-17.4027"/>
</g>
<!-- Node70 -->
<g id="node3" class="node">
<title>Node70</title>
<g id="a_node3"><a xlink:href="classL4Re_1_1Rm.html#a81c3edf15190139911ab69211c0a4bc4" target="_top" xlink:title="Attach a data space to a region. ">
<polygon fill="#ffffff" stroke="#000000" points="410,-19.5 410,-38.5 506,-38.5 506,-19.5 410,-19.5"/>
<text text-anchor="middle" x="458" y="-26.5" font-family="Helvetica,sans-Serif" font-size="10.00" fill="#000000">L4Re::Rm::attach</text>
</a>
</g>
</g>
<!-- Node69&#45;&gt;Node70 -->
<g id="edge2" class="edge">
<title>Node69&#45;&gt;Node70</title>
<path fill="none" stroke="#191970" d="M384.2003,-29C392.8623,-29 401.5492,-29 409.7659,-29"/>
<polygon fill="#191970" stroke="#191970" points="384.0728,-25.5001 374.0728,-29 384.0728,-32.5001 384.0728,-25.5001"/>
</g>
<!-- Node71&#45;&gt;Node69 -->
<g id="edge4" class="edge">
<title>Node71&#45;&gt;Node69</title>
<path fill="none" stroke="#191970" d="M226.1623,-17.4621C234.6161,-18.5854 243.3701,-19.7485 251.9209,-20.8846"/>
<polygon fill="#191970" stroke="#191970" points="226.4071,-13.964 216.0332,-16.1163 225.4851,-20.903 226.4071,-13.964"/>
</g>
</g>
</svg>
