<?xml version="1.0" encoding="UTF-8" standalone="no"?>
<!DOCTYPE svg PUBLIC "-//W3C//DTD SVG 1.1//EN"
 "http://www.w3.org/Graphics/SVG/1.1/DTD/svg11.dtd">
<!-- Generated by graphviz version 2.40.1 (20161225.0304)
 -->
<!-- Title: L4Re::throw_error Pages: 1 -->
<svg width="715pt" height="635pt"
 viewBox="0.00 0.00 715.00 635.00" xmlns="http://www.w3.org/2000/svg" xmlns:xlink="http://www.w3.org/1999/xlink">
<g id="graph0" class="graph" transform="scale(1 1) rotate(0) translate(4 631)">
<title>L4Re::throw_error</title>
<polygon fill="#ffffff" stroke="transparent" points="-4,4 -4,-631 711,-631 711,4 -4,4"/>
<!-- Node81 -->
<g id="node1" class="node">
<title>Node81</title>
<polygon fill="#bfbfbf" stroke="#000000" points="0,-421 0,-440 102,-440 102,-421 0,-421"/>
<text text-anchor="middle" x="51" y="-428" font-family="Helvetica,sans-Serif" font-size="10.00" fill="#000000">L4Re::throw_error</text>
</g>
<!-- Node82 -->
<g id="node2" class="node">
<title>Node82</title>
<g id="a_node2"><a xlink:href="namespaceL4Re.html#a64b057254a760643ba67a9ed452fede8" target="_top" xlink:title="Check for valid capability or raise C++ exception. ">
<polygon fill="#ffffff" stroke="#000000" points="138,-519 138,-538 218,-538 218,-519 138,-519"/>
<text text-anchor="middle" x="178" y="-526" font-family="Helvetica,sans-Serif" font-size="10.00" fill="#000000">L4Re::chkcap</text>
</a>
</g>
</g>
<!-- Node81&#45;&gt;Node82 -->
<g id="edge1" class="edge">
<title>Node81&#45;&gt;Node82</title>
<path fill="none" stroke="#191970" d="M71.8889,-446.619C98.478,-467.1365 143.5749,-501.9357 165.4096,-518.7846"/>
<polygon fill="#191970" stroke="#191970" points="73.6967,-443.5931 63.6415,-440.2549 69.4203,-449.135 73.6967,-443.5931"/>
</g>
<!-- Node88 -->
<g id="node8" class="node">
<title>Node88</title>
<g id="a_node8"><a xlink:href="namespaceL4Re.html#a3f17984019f06676a7e3eecb41bbb0bb" target="_top" xlink:title="Generate C++ exception on error. ">
<polygon fill="#ffffff" stroke="#000000" points="138.5,-350 138.5,-369 217.5,-369 217.5,-350 138.5,-350"/>
<text text-anchor="middle" x="178" y="-357" font-family="Helvetica,sans-Serif" font-size="10.00" fill="#000000">L4Re::chksys</text>
</a>
</g>
</g>
<!-- Node81&#45;&gt;Node88 -->
<g id="edge7" class="edge">
<title>Node81&#45;&gt;Node88</title>
<path fill="none" stroke="#191970" d="M77.0707,-415.925C102.0954,-401.9348 139.1803,-381.2024 160.738,-369.1504"/>
<polygon fill="#191970" stroke="#191970" points="75.1484,-412.9898 68.1278,-420.9246 78.5643,-419.0998 75.1484,-412.9898"/>
</g>
<!-- Node83 -->
<g id="node3" class="node">
<title>Node83</title>
<g id="a_node3"><a xlink:href="classL4virtio_1_1Svr_1_1Dev__config.html#a663b81f49e6ce03f9b7e136d6646bf89" target="_top" xlink:title="Create a L4&#45;Virtio config data space. ">
<polygon fill="#ffffff" stroke="#000000" points="273.5,-596.5 273.5,-626.5 382.5,-626.5 382.5,-596.5 273.5,-596.5"/>
<text text-anchor="start" x="281.5" y="-614.5" font-family="Helvetica,sans-Serif" font-size="10.00" fill="#000000">L4virtio::Svr::Dev</text>
<text text-anchor="middle" x="328" y="-603.5" font-family="Helvetica,sans-Serif" font-size="10.00" fill="#000000">_config::Dev_config</text>
</a>
</g>
</g>
<!-- Node82&#45;&gt;Node83 -->
<g id="edge2" class="edge">
<title>Node82&#45;&gt;Node83</title>
<path fill="none" stroke="#191970" d="M196.3524,-545.2633C211.0571,-557.985 232.6855,-575.163 254,-586.5 260.944,-590.1934 268.5399,-593.4966 276.136,-596.3966"/>
<polygon fill="#191970" stroke="#191970" points="198.3598,-542.3664 188.5493,-538.3658 193.7237,-547.6111 198.3598,-542.3664"/>
</g>
<!-- Node86 -->
<g id="node6" class="node">
<title>Node86</title>
<g id="a_node6"><a xlink:href="classL4virtio_1_1Svr_1_1Device__t.html#a460f5dc2b32e33a616eb822ffd2f88f0" target="_top" xlink:title="Check for a value in the cmd register and handle a write. ">
<polygon fill="#ffffff" stroke="#000000" points="268,-536 268,-577 388,-577 388,-536 268,-536"/>
<text text-anchor="start" x="276" y="-565" font-family="Helvetica,sans-Serif" font-size="10.00" fill="#000000">L4virtio::Svr::Device</text>
<text text-anchor="start" x="276" y="-554" font-family="Helvetica,sans-Serif" font-size="10.00" fill="#000000">_t&lt; Ds_data &gt;::handle</text>
<text text-anchor="middle" x="328" y="-543" font-family="Helvetica,sans-Serif" font-size="10.00" fill="#000000">_mem_cmd_write</text>
</a>
</g>
</g>
<!-- Node82&#45;&gt;Node86 -->
<g id="edge5" class="edge">
<title>Node82&#45;&gt;Node86</title>
<path fill="none" stroke="#191970" d="M228.1598,-537.8632C240.9121,-540.2436 254.7444,-542.8256 267.9345,-545.2878"/>
<polygon fill="#191970" stroke="#191970" points="228.6697,-534.398 218.1972,-536.0035 227.3852,-541.2791 228.6697,-534.398"/>
</g>
<!-- Node87 -->
<g id="node7" class="node">
<title>Node87</title>
<g id="a_node7"><a xlink:href="classL4virtio_1_1Svr_1_1Block__dev__base.html#aa0d0377a069419b77e4ff9c6ae08b092" target="_top" xlink:title="reset callback, called for doing a device reset ">
<polygon fill="#ffffff" stroke="#000000" points="277.5,-486.5 277.5,-516.5 378.5,-516.5 378.5,-486.5 277.5,-486.5"/>
<text text-anchor="start" x="285.5" y="-504.5" font-family="Helvetica,sans-Serif" font-size="10.00" fill="#000000">L4virtio::Svr::Block</text>
<text text-anchor="middle" x="328" y="-493.5" font-family="Helvetica,sans-Serif" font-size="10.00" fill="#000000">_dev_base::reset</text>
</a>
</g>
</g>
<!-- Node82&#45;&gt;Node87 -->
<g id="edge6" class="edge">
<title>Node82&#45;&gt;Node87</title>
<path fill="none" stroke="#191970" d="M228.3278,-519.441C244.1578,-516.5916 261.6382,-513.4451 277.4815,-510.5933"/>
<polygon fill="#191970" stroke="#191970" points="227.419,-516.0482 218.1972,-521.2645 228.6591,-522.9375 227.419,-516.0482"/>
</g>
<!-- Node84 -->
<g id="node4" class="node">
<title>Node84</title>
<g id="a_node4"><a xlink:href="classL4virtio_1_1Svr_1_1Dev__config.html#af87ff434ac162e5843c92ff76f21d24b" target="_top" xlink:title="Return the offset into the config dataspace where the device configuration starts. ">
<polygon fill="#ffffff" stroke="#000000" points="438,-596.5 438,-626.5 537,-626.5 537,-596.5 438,-596.5"/>
<text text-anchor="start" x="446" y="-614.5" font-family="Helvetica,sans-Serif" font-size="10.00" fill="#000000">L4virtio::Svr::Dev</text>
<text text-anchor="middle" x="487.5" y="-603.5" font-family="Helvetica,sans-Serif" font-size="10.00" fill="#000000">_config::ds_offset</text>
</a>
</g>
</g>
<!-- Node83&#45;&gt;Node84 -->
<g id="edge3" class="edge">
<title>Node83&#45;&gt;Node84</title>
<path fill="none" stroke="#191970" d="M393.0947,-611.5C408.0366,-611.5 423.6893,-611.5 437.8564,-611.5"/>
<polygon fill="#191970" stroke="#191970" points="392.8909,-608.0001 382.8909,-611.5 392.8908,-615.0001 392.8909,-608.0001"/>
</g>
<!-- Node85 -->
<g id="node5" class="node">
<title>Node85</title>
<g id="a_node5"><a xlink:href="classL4virtio_1_1Svr_1_1Device__t.html#a3fa20bf911056f0d03c8274982b1e167" target="_top" xlink:title="Get the memory region list used for this device. ">
<polygon fill="#ffffff" stroke="#000000" points="573,-596.5 573,-626.5 707,-626.5 707,-596.5 573,-596.5"/>
<text text-anchor="start" x="581" y="-614.5" font-family="Helvetica,sans-Serif" font-size="10.00" fill="#000000">L4virtio::Svr::Device</text>
<text text-anchor="middle" x="640" y="-603.5" font-family="Helvetica,sans-Serif" font-size="10.00" fill="#000000">_t&lt; Ds_data &gt;::mem_info</text>
</a>
</g>
</g>
<!-- Node84&#45;&gt;Node85 -->
<g id="edge4" class="edge">
<title>Node84&#45;&gt;Node85</title>
<path fill="none" stroke="#191970" d="M547.1699,-611.5C555.6384,-611.5 564.3937,-611.5 572.9899,-611.5"/>
<polygon fill="#191970" stroke="#191970" points="547.0124,-608.0001 537.0124,-611.5 547.0123,-615.0001 547.0124,-608.0001"/>
</g>
<!-- Node88&#45;&gt;Node83 -->
<g id="edge11" class="edge">
<title>Node88&#45;&gt;Node83</title>
<path fill="none" stroke="#191970" d="M183.3636,-378.6913C198.0306,-430.6479 238.7254,-571.1837 254,-586.5 259.4581,-591.973 266.1543,-596.2483 273.2666,-599.5878"/>
<polygon fill="#191970" stroke="#191970" points="186.7224,-377.7059 180.6474,-369.0257 179.9834,-379.5998 186.7224,-377.7059"/>
</g>
<!-- Node88&#45;&gt;Node86 -->
<g id="edge14" class="edge">
<title>Node88&#45;&gt;Node86</title>
<path fill="none" stroke="#191970" d="M182.0887,-379.2763C190.1165,-413.4573 211.0292,-483.9093 254,-525.5 258.1036,-529.4718 262.7908,-532.9665 267.7695,-536.0351"/>
<polygon fill="#191970" stroke="#191970" points="185.4293,-378.1739 179.8469,-369.1691 178.5954,-379.6897 185.4293,-378.1739"/>
</g>
<!-- Node88&#45;&gt;Node87 -->
<g id="edge18" class="edge">
<title>Node88&#45;&gt;Node87</title>
<path fill="none" stroke="#191970" d="M185.6362,-378.6858C196.8593,-404.5164 220.203,-450.2559 254,-476.5 260.8548,-481.8229 268.9072,-486.0468 277.1299,-489.3886"/>
<polygon fill="#191970" stroke="#191970" points="188.7767,-377.1236 181.6919,-369.2461 182.3179,-379.8224 188.7767,-377.1236"/>
</g>
<!-- Node89 -->
<g id="node9" class="node">
<title>Node89</title>
<g id="a_node9"><a xlink:href="classL4virtio_1_1Svr_1_1Driver__mem__list__t.html#a6749bd65e419d7f814dd4c27e0567f28" target="_top" xlink:title="Add a new region to the list. ">
<polygon fill="#ffffff" stroke="#000000" points="267,-426 267,-467 389,-467 389,-426 267,-426"/>
<text text-anchor="start" x="275" y="-455" font-family="Helvetica,sans-Serif" font-size="10.00" fill="#000000">L4virtio::Svr::Driver</text>
<text text-anchor="start" x="275" y="-444" font-family="Helvetica,sans-Serif" font-size="10.00" fill="#000000">_mem_list_t&lt; Ds_data</text>
<text text-anchor="middle" x="328" y="-433" font-family="Helvetica,sans-Serif" font-size="10.00" fill="#000000"> &gt;::add</text>
</a>
</g>
</g>
<!-- Node88&#45;&gt;Node89 -->
<g id="edge8" class="edge">
<title>Node88&#45;&gt;Node89</title>
<path fill="none" stroke="#191970" d="M197.1064,-376.0309C211.9257,-388.2918 233.3541,-404.8339 254,-416.5 259.914,-419.8417 266.2751,-423.0033 272.6955,-425.9312"/>
<polygon fill="#191970" stroke="#191970" points="199.1049,-373.1383 189.2006,-369.3758 194.5969,-378.4935 199.1049,-373.1383"/>
</g>
<!-- Node90 -->
<g id="node10" class="node">
<title>Node90</title>
<g id="a_node10"><a xlink:href="namespaceL4Re.html#ae21329b88c6ffc4917048e8d9564ea99" target="_top" xlink:title="Test a message tag for IPC errors. ">
<polygon fill="#ffffff" stroke="#000000" points="289.5,-388 289.5,-407 366.5,-407 366.5,-388 289.5,-388"/>
<text text-anchor="middle" x="328" y="-395" font-family="Helvetica,sans-Serif" font-size="10.00" fill="#000000">L4Re::chkipc</text>
</a>
</g>
</g>
<!-- Node88&#45;&gt;Node90 -->
<g id="edge9" class="edge">
<title>Node88&#45;&gt;Node90</title>
<path fill="none" stroke="#191970" d="M225.811,-371.6121C246.7016,-376.9044 270.8472,-383.0213 290.4209,-387.9799"/>
<polygon fill="#191970" stroke="#191970" points="226.4047,-368.152 215.8513,-369.089 224.6856,-374.9377 226.4047,-368.152"/>
</g>
<!-- Node91 -->
<g id="node11" class="node">
<title>Node91</title>
<g id="a_node11"><a xlink:href="namespaceL4Re.html#ad17a205e6270588606dd85399b0f9b6c" target="_top" xlink:title="Generate C++ exception on error. ">
<polygon fill="#ffffff" stroke="#000000" points="288.5,-350 288.5,-369 367.5,-369 367.5,-350 288.5,-350"/>
<text text-anchor="middle" x="328" y="-357" font-family="Helvetica,sans-Serif" font-size="10.00" fill="#000000">L4Re::chksys</text>
</a>
</g>
</g>
<!-- Node88&#45;&gt;Node91 -->
<g id="edge10" class="edge">
<title>Node88&#45;&gt;Node91</title>
<path fill="none" stroke="#191970" d="M227.8098,-359.5C247.464,-359.5 269.7296,-359.5 288.271,-359.5"/>
<polygon fill="#191970" stroke="#191970" points="227.8035,-356.0001 217.8034,-359.5 227.8034,-363.0001 227.8035,-356.0001"/>
</g>
<!-- Node92 -->
<g id="node12" class="node">
<title>Node92</title>
<g id="a_node12"><a xlink:href="classL4virtio_1_1Svr_1_1Device__t.html#ae602028544a9b03a349af6522035dcac" target="_top" xlink:title="callback to gather the device notification IRQ (old&#45;style) ">
<polygon fill="#ffffff" stroke="#000000" points="268.5,-290 268.5,-331 387.5,-331 387.5,-290 268.5,-290"/>
<text text-anchor="start" x="276.5" y="-319" font-family="Helvetica,sans-Serif" font-size="10.00" fill="#000000">L4virtio::Svr::Device</text>
<text text-anchor="start" x="276.5" y="-308" font-family="Helvetica,sans-Serif" font-size="10.00" fill="#000000">_t&lt; Ds_data &gt;::device</text>
<text text-anchor="middle" x="328" y="-297" font-family="Helvetica,sans-Serif" font-size="10.00" fill="#000000">_notify_irq</text>
</a>
</g>
</g>
<!-- Node88&#45;&gt;Node92 -->
<g id="edge12" class="edge">
<title>Node88&#45;&gt;Node92</title>
<path fill="none" stroke="#191970" d="M217.1268,-346.7186C232.7732,-341.6074 251.1444,-335.6062 268.3827,-329.975"/>
<polygon fill="#191970" stroke="#191970" points="215.6964,-343.5037 207.2776,-349.936 217.8701,-350.1577 215.6964,-343.5037"/>
</g>
<!-- Node93 -->
<g id="node13" class="node">
<title>Node93</title>
<g id="a_node13"><a xlink:href="classL4virtio_1_1Svr_1_1Driver__mem__region__t.html#abdad88a18e5428fb2276148ceccf0434" target="_top" xlink:title="Make a local memory region for the given driver values. ">
<polygon fill="#ffffff" stroke="#000000" points="258.5,-230 258.5,-271 397.5,-271 397.5,-230 258.5,-230"/>
<text text-anchor="start" x="266.5" y="-259" font-family="Helvetica,sans-Serif" font-size="10.00" fill="#000000">L4virtio::Svr::Driver</text>
<text text-anchor="start" x="266.5" y="-248" font-family="Helvetica,sans-Serif" font-size="10.00" fill="#000000">_mem_region_t&lt; Ds_data</text>
<text text-anchor="middle" x="328" y="-237" font-family="Helvetica,sans-Serif" font-size="10.00" fill="#000000"> &gt;::Driver_mem_region_t</text>
</a>
</g>
</g>
<!-- Node88&#45;&gt;Node93 -->
<g id="edge13" class="edge">
<title>Node88&#45;&gt;Node93</title>
<path fill="none" stroke="#191970" d="M191.3833,-341.7347C205.3713,-324.1905 228.7668,-297.5767 254,-280.5 259.0516,-277.0813 264.5527,-273.9516 270.1996,-271.1125"/>
<polygon fill="#191970" stroke="#191970" points="188.3437,-339.9419 184.9661,-349.9839 193.8688,-344.24 188.3437,-339.9419"/>
</g>
<!-- Node94 -->
<g id="node14" class="node">
<title>Node94</title>
<g id="a_node14"><a xlink:href="classL4virtio_1_1Svr_1_1Device__t.html#a66d09e200e34ccad61e5843d2b5bb0a0" target="_top" xlink:title="Callback for registering an notification IRQ (multi IRQ). ">
<polygon fill="#ffffff" stroke="#000000" points="266,-170 266,-211 390,-211 390,-170 266,-170"/>
<text text-anchor="start" x="274" y="-199" font-family="Helvetica,sans-Serif" font-size="10.00" fill="#000000">L4virtio::Svr::Device</text>
<text text-anchor="start" x="274" y="-188" font-family="Helvetica,sans-Serif" font-size="10.00" fill="#000000">_t&lt; Ds_data &gt;::register</text>
<text text-anchor="middle" x="328" y="-177" font-family="Helvetica,sans-Serif" font-size="10.00" fill="#000000">_driver_irq</text>
</a>
</g>
</g>
<!-- Node88&#45;&gt;Node94 -->
<g id="edge15" class="edge">
<title>Node88&#45;&gt;Node94</title>
<path fill="none" stroke="#191970" d="M183.7722,-340.4325C193.6157,-310.9147 216.3243,-254.0677 254,-220.5 257.9332,-216.9957 262.3292,-213.8707 266.964,-211.0896"/>
<polygon fill="#191970" stroke="#191970" points="180.4322,-339.3864 180.7239,-349.9773 187.1004,-341.5161 180.4322,-339.3864"/>
</g>
<!-- Node95 -->
<g id="node15" class="node">
<title>Node95</title>
<g id="a_node15"><a xlink:href="classL4virtio_1_1Svr_1_1Device__t.html#a8047b37ac63d6b5f84bcb1886a06f1b2" target="_top" xlink:title="callback for registering a single guest IRQ for all queues (old&#45;style) ">
<polygon fill="#ffffff" stroke="#000000" points="266,-110 266,-151 390,-151 390,-110 266,-110"/>
<text text-anchor="start" x="274" y="-139" font-family="Helvetica,sans-Serif" font-size="10.00" fill="#000000">L4virtio::Svr::Device</text>
<text text-anchor="start" x="274" y="-128" font-family="Helvetica,sans-Serif" font-size="10.00" fill="#000000">_t&lt; Ds_data &gt;::register</text>
<text text-anchor="middle" x="328" y="-117" font-family="Helvetica,sans-Serif" font-size="10.00" fill="#000000">_single_driver_irq</text>
</a>
</g>
</g>
<!-- Node88&#45;&gt;Node95 -->
<g id="edge16" class="edge">
<title>Node88&#45;&gt;Node95</title>
<path fill="none" stroke="#191970" d="M180.3112,-339.625C185.8916,-300.3048 203.5864,-211.9497 254,-160.5 257.4928,-156.9354 261.4667,-153.7801 265.7172,-150.9894"/>
<polygon fill="#191970" stroke="#191970" points="176.813,-339.3849 178.993,-349.7531 183.7545,-340.2885 176.813,-339.3849"/>
</g>
<!-- Node96 -->
<g id="node16" class="node">
<title>Node96</title>
<g id="a_node16"><a xlink:href="classL4virtio_1_1Svr_1_1Driver__mem__list__t.html#a36efa2f3d99ee6e3e7d07e1dec0343d8" target="_top" xlink:title="Remove the given region from the list. ">
<polygon fill="#ffffff" stroke="#000000" points="267,-50 267,-91 389,-91 389,-50 267,-50"/>
<text text-anchor="start" x="275" y="-79" font-family="Helvetica,sans-Serif" font-size="10.00" fill="#000000">L4virtio::Svr::Driver</text>
<text text-anchor="start" x="275" y="-68" font-family="Helvetica,sans-Serif" font-size="10.00" fill="#000000">_mem_list_t&lt; Ds_data</text>
<text text-anchor="middle" x="328" y="-57" font-family="Helvetica,sans-Serif" font-size="10.00" fill="#000000"> &gt;::remove</text>
</a>
</g>
</g>
<!-- Node88&#45;&gt;Node96 -->
<g id="edge17" class="edge">
<title>Node88&#45;&gt;Node96</title>
<path fill="none" stroke="#191970" d="M181.4704,-339.9228C191.3772,-285.9718 221.1958,-136.7506 254,-100.5 257.7207,-96.3884 262.0853,-92.8293 266.8018,-89.7504"/>
<polygon fill="#191970" stroke="#191970" points="177.999,-339.4513 179.6647,-349.9143 184.8874,-340.6962 177.999,-339.4513"/>
</g>
<!-- Node97 -->
<g id="node17" class="node">
<title>Node97</title>
<g id="a_node17"><a xlink:href="classL4virtio_1_1Svr_1_1Device__t.html#ab906b4cc61026fd815a8056f07bef10e" target="_top" xlink:title="Enable/disable the specified queue. ">
<polygon fill="#ffffff" stroke="#000000" points="254,-.5 254,-30.5 402,-30.5 402,-.5 254,-.5"/>
<text text-anchor="start" x="262" y="-18.5" font-family="Helvetica,sans-Serif" font-size="10.00" fill="#000000">L4virtio::Svr::Device</text>
<text text-anchor="middle" x="328" y="-7.5" font-family="Helvetica,sans-Serif" font-size="10.00" fill="#000000">_t&lt; Ds_data &gt;::setup_queue</text>
</a>
</g>
</g>
<!-- Node88&#45;&gt;Node97 -->
<g id="edge19" class="edge">
<title>Node88&#45;&gt;Node97</title>
<path fill="none" stroke="#191970" d="M180.1817,-339.9305C187.4939,-277.6416 213.0071,-85.4452 254,-40.5 257.5639,-36.5925 261.7593,-33.2954 266.3112,-30.5133"/>
<polygon fill="#191970" stroke="#191970" points="176.6909,-339.6509 179.0285,-349.9846 183.6453,-340.4486 176.6909,-339.6509"/>
</g>
</g>
</svg>
