<?xml version="1.0" encoding="UTF-8" standalone="no"?>
<!DOCTYPE svg PUBLIC "-//W3C//DTD SVG 1.1//EN"
 "http://www.w3.org/Graphics/SVG/1.1/DTD/svg11.dtd">
<!-- Generated by graphviz version 2.40.1 (20161225.0304)
 -->
<!-- Title: l4/re/impl/namespace_impl.h Pages: 1 -->
<svg width="1090pt" height="834pt"
 viewBox="0.00 0.00 1090.48 834.00" xmlns="http://www.w3.org/2000/svg" xmlns:xlink="http://www.w3.org/1999/xlink">
<g id="graph0" class="graph" transform="scale(1 1) rotate(0) translate(4 830)">
<title>l4/re/impl/namespace_impl.h</title>
<polygon fill="#ffffff" stroke="transparent" points="-4,4 -4,-830 1086.4795,-830 1086.4795,4 -4,4"/>
<!-- Node0 -->
<g id="node1" class="node">
<title>Node0</title>
<polygon fill="#bfbfbf" stroke="#000000" points="817.5,-795.5 817.5,-825.5 934.5,-825.5 934.5,-795.5 817.5,-795.5"/>
<text text-anchor="start" x="825.5" y="-813.5" font-family="Helvetica,sans-Serif" font-size="10.00" fill="#000000">l4/re/impl/namespace</text>
<text text-anchor="middle" x="876" y="-802.5" font-family="Helvetica,sans-Serif" font-size="10.00" fill="#000000">_impl.h</text>
</g>
<!-- Node1 -->
<g id="node2" class="node">
<title>Node1</title>
<g id="a_node2"><a xlink:href="namespace.html" target="_top" xlink:title="Namespace interface. ">
<polygon fill="#ffffff" stroke="#000000" points="400.5,-739.5 400.5,-758.5 495.5,-758.5 495.5,-739.5 400.5,-739.5"/>
<text text-anchor="middle" x="448" y="-746.5" font-family="Helvetica,sans-Serif" font-size="10.00" fill="#000000">l4/re/namespace</text>
</a>
</g>
</g>
<!-- Node0&#45;&gt;Node1 -->
<g id="edge1" class="edge">
<title>Node0&#45;&gt;Node1</title>
<path fill="none" stroke="#191970" d="M817.3858,-802.0776C735.3832,-790.2945 587.3364,-769.0215 505.7828,-757.3029"/>
<polygon fill="#191970" stroke="#191970" points="506.0901,-753.8112 495.694,-755.8532 505.0945,-760.74 506.0901,-753.8112"/>
</g>
<!-- Node27 -->
<g id="node28" class="node">
<title>Node27</title>
<g id="a_node28"><a xlink:href="l4_2util_2util_8h_source.html" target="_top" xlink:title="l4/util/util.h">
<polygon fill="#ffffff" stroke="#000000" points="987.5,-342 987.5,-361 1052.5,-361 1052.5,-342 987.5,-342"/>
<text text-anchor="middle" x="1020" y="-349" font-family="Helvetica,sans-Serif" font-size="10.00" fill="#000000">l4/util/util.h</text>
</a>
</g>
</g>
<!-- Node0&#45;&gt;Node27 -->
<g id="edge65" class="edge">
<title>Node0&#45;&gt;Node27</title>
<path fill="none" stroke="#191970" d="M892.2354,-795.4913C912.9141,-774.6565 946,-734.7911 946,-693 946,-693 946,-693 946,-469 946,-427.7758 979.0175,-389.1981 1000.9432,-368.1249"/>
<polygon fill="#191970" stroke="#191970" points="1003.4812,-370.5447 1008.4375,-361.1806 998.7235,-365.4101 1003.4812,-370.5447"/>
</g>
<!-- Node28 -->
<g id="node29" class="node">
<title>Node28</title>
<g id="a_node29"><a xlink:href="ipc__client.html" target="_top" xlink:title="l4/sys/cxx/ipc_client">
<polygon fill="#ffffff" stroke="#000000" points="168,-571.5 168,-590.5 278,-590.5 278,-571.5 168,-571.5"/>
<text text-anchor="middle" x="223" y="-578.5" font-family="Helvetica,sans-Serif" font-size="10.00" fill="#000000">l4/sys/cxx/ipc_client</text>
</a>
</g>
</g>
<!-- Node0&#45;&gt;Node28 -->
<g id="edge69" class="edge">
<title>Node0&#45;&gt;Node28</title>
<path fill="none" stroke="#191970" d="M817.2035,-808.501C725.421,-804.4307 542.9633,-792.5151 392,-759 317.2201,-742.3982 275.0219,-764.2343 229,-703 206.5922,-673.1854 212.1413,-626.7546 217.8101,-600.6107"/>
<polygon fill="#191970" stroke="#191970" points="221.2449,-601.2955 220.1657,-590.7558 214.4367,-599.6681 221.2449,-601.2955"/>
</g>
<!-- Node29 -->
<g id="node30" class="node">
<title>Node29</title>
<g id="a_node30"><a xlink:href="sys_2assert_8h.html" target="_top" xlink:title="Low&#45;level assert implementation. ">
<polygon fill="#ffffff" stroke="#000000" points="834,-403.5 834,-422.5 918,-422.5 918,-403.5 834,-403.5"/>
<text text-anchor="middle" x="876" y="-410.5" font-family="Helvetica,sans-Serif" font-size="10.00" fill="#000000">l4/sys/assert.h</text>
</a>
</g>
</g>
<!-- Node0&#45;&gt;Node29 -->
<g id="edge75" class="edge">
<title>Node0&#45;&gt;Node29</title>
<path fill="none" stroke="#191970" d="M876,-795.2899C876,-772.892 876,-729.7188 876,-693 876,-693 876,-693 876,-525 876,-492.7116 876,-455.1872 876,-432.8048"/>
<polygon fill="#191970" stroke="#191970" points="879.5001,-432.5883 876,-422.5884 872.5001,-432.5884 879.5001,-432.5883"/>
</g>
<!-- Node32 -->
<g id="node33" class="node">
<title>Node32</title>
<polygon fill="#ffffff" stroke="#bfbfbf" points="974,-739.5 974,-758.5 1022,-758.5 1022,-739.5 974,-739.5"/>
<text text-anchor="middle" x="998" y="-746.5" font-family="Helvetica,sans-Serif" font-size="10.00" fill="#000000">cstring</text>
</g>
<!-- Node0&#45;&gt;Node32 -->
<g id="edge83" class="edge">
<title>Node0&#45;&gt;Node32</title>
<path fill="none" stroke="#191970" d="M905.8446,-795.4554C925.397,-785.599 950.7872,-772.7999 969.9645,-763.1327"/>
<polygon fill="#191970" stroke="#191970" points="971.7402,-766.1571 979.0943,-758.5303 968.5892,-759.9064 971.7402,-766.1571"/>
</g>
<!-- Node2 -->
<g id="node3" class="node">
<title>Node2</title>
<g id="a_node3"><a xlink:href="capability.html" target="_top" xlink:title="L4::Cap related definitions. ">
<polygon fill="#ffffff" stroke="#000000" points="56,-683.5 56,-702.5 146,-702.5 146,-683.5 56,-683.5"/>
<text text-anchor="middle" x="101" y="-690.5" font-family="Helvetica,sans-Serif" font-size="10.00" fill="#000000">l4/sys/capability</text>
</a>
</g>
</g>
<!-- Node1&#45;&gt;Node2 -->
<g id="edge2" class="edge">
<title>Node1&#45;&gt;Node2</title>
<path fill="none" stroke="#191970" d="M400.4787,-741.3309C336.6555,-731.0309 223.4864,-712.7673 156.0363,-701.8819"/>
<polygon fill="#191970" stroke="#191970" points="156.4529,-698.404 146.023,-700.266 155.3376,-705.3146 156.4529,-698.404"/>
</g>
<!-- Node22 -->
<g id="node23" class="node">
<title>Node22</title>
<g id="a_node23"><a xlink:href="ipc__iface.html" target="_top" xlink:title="Interface Definition Language. ">
<polygon fill="#ffffff" stroke="#000000" points="301.5,-515.5 301.5,-534.5 378.5,-534.5 378.5,-515.5 301.5,-515.5"/>
<text text-anchor="middle" x="340" y="-522.5" font-family="Helvetica,sans-Serif" font-size="10.00" fill="#000000">cxx/ipc_iface</text>
</a>
</g>
</g>
<!-- Node1&#45;&gt;Node22 -->
<g id="edge62" class="edge">
<title>Node1&#45;&gt;Node22</title>
<path fill="none" stroke="#191970" d="M438.6685,-739.4649C422.4723,-722.3826 389.1544,-684.8012 371,-647 354.6733,-613.0044 346.2715,-569.4033 342.5293,-544.595"/>
<polygon fill="#191970" stroke="#191970" points="345.9852,-544.0358 341.126,-534.621 339.0534,-545.0111 345.9852,-544.0358"/>
</g>
<!-- Node24 -->
<g id="node25" class="node">
<title>Node24</title>
<g id="a_node25"><a xlink:href="ipc__string_source.html" target="_top" xlink:title="cxx/ipc_string">
<polygon fill="#ffffff" stroke="#000000" points="506.5,-571.5 506.5,-590.5 587.5,-590.5 587.5,-571.5 506.5,-571.5"/>
<text text-anchor="middle" x="547" y="-578.5" font-family="Helvetica,sans-Serif" font-size="10.00" fill="#000000">cxx/ipc_string</text>
</a>
</g>
</g>
<!-- Node1&#45;&gt;Node24 -->
<g id="edge64" class="edge">
<title>Node1&#45;&gt;Node24</title>
<path fill="none" stroke="#191970" d="M453.6063,-739.4862C469.4592,-712.5845 514.8254,-635.5994 535.9407,-599.7673"/>
<polygon fill="#191970" stroke="#191970" points="539.147,-601.2202 541.2086,-590.8279 533.1162,-597.6663 539.147,-601.2202"/>
</g>
<!-- Node25 -->
<g id="node26" class="node">
<title>Node25</title>
<g id="a_node26"><a xlink:href="ipc__array_source.html" target="_top" xlink:title="ipc_array">
<polygon fill="#ffffff" stroke="#000000" points="587.5,-515.5 587.5,-534.5 648.5,-534.5 648.5,-515.5 587.5,-515.5"/>
<text text-anchor="middle" x="618" y="-522.5" font-family="Helvetica,sans-Serif" font-size="10.00" fill="#000000">ipc_array</text>
</a>
</g>
</g>
<!-- Node1&#45;&gt;Node25 -->
<g id="edge63" class="edge">
<title>Node1&#45;&gt;Node25</title>
<path fill="none" stroke="#191970" d="M460.4102,-739.3315C488.8017,-716.5674 558.9626,-656.5479 597,-591 605.3813,-576.5569 610.8492,-558.3611 614.0982,-544.7347"/>
<polygon fill="#191970" stroke="#191970" points="617.5217,-545.4622 616.2413,-534.9451 610.6836,-543.9652 617.5217,-545.4622"/>
</g>
<!-- Node26 -->
<g id="node27" class="node">
<title>Node26</title>
<g id="a_node27"><a xlink:href="protocols_8h.html" target="_top" xlink:title="L4Re Protocol Constants (C version) ">
<polygon fill="#ffffff" stroke="#000000" points="238,-683.5 238,-702.5 330,-702.5 330,-683.5 238,-683.5"/>
<text text-anchor="middle" x="284" y="-690.5" font-family="Helvetica,sans-Serif" font-size="10.00" fill="#000000">l4/re/protocols.h</text>
</a>
</g>
</g>
<!-- Node1&#45;&gt;Node26 -->
<g id="edge61" class="edge">
<title>Node1&#45;&gt;Node26</title>
<path fill="none" stroke="#191970" d="M419.8074,-739.3733C392.6547,-730.1016 351.4093,-716.0178 321.4975,-705.804"/>
<polygon fill="#191970" stroke="#191970" points="322.4192,-702.4204 311.8247,-702.5011 320.1572,-709.0449 322.4192,-702.4204"/>
</g>
<!-- Node3 -->
<g id="node4" class="node">
<title>Node3</title>
<g id="a_node4"><a xlink:href="l4_2sys_2consts_8h.html" target="_top" xlink:title="Common constants. ">
<polygon fill="#ffffff" stroke="#000000" points="127,-112.5 127,-131.5 213,-131.5 213,-112.5 127,-112.5"/>
<text text-anchor="middle" x="170" y="-119.5" font-family="Helvetica,sans-Serif" font-size="10.00" fill="#000000">l4/sys/consts.h</text>
</a>
</g>
</g>
<!-- Node2&#45;&gt;Node3 -->
<g id="edge3" class="edge">
<title>Node2&#45;&gt;Node3</title>
<path fill="none" stroke="#191970" d="M82.475,-683.3812C53.3172,-666.7571 0,-629.7005 0,-581 0,-581 0,-581 0,-234 0,-177.1744 67.0563,-147.5494 116.9393,-133.373"/>
<polygon fill="#191970" stroke="#191970" points="117.9244,-136.7323 126.662,-130.7402 116.0947,-129.9757 117.9244,-136.7323"/>
</g>
<!-- Node7 -->
<g id="node8" class="node">
<title>Node7</title>
<g id="a_node8"><a xlink:href="l4_2sys_2types_8h.html" target="_top" xlink:title="Common L4 ABI Data Types. ">
<polygon fill="#ffffff" stroke="#000000" points="389,-168.5 389,-187.5 469,-187.5 469,-168.5 389,-168.5"/>
<text text-anchor="middle" x="429" y="-175.5" font-family="Helvetica,sans-Serif" font-size="10.00" fill="#000000">l4/sys/types.h</text>
</a>
</g>
</g>
<!-- Node2&#45;&gt;Node7 -->
<g id="edge7" class="edge">
<title>Node2&#45;&gt;Node7</title>
<path fill="none" stroke="#191970" d="M90.878,-683.2465C73.0693,-664.984 38,-623.6112 38,-581 38,-581 38,-581 38,-351.5 38,-273.3773 90.0753,-260.7769 159,-224 196.21,-204.1455 311.4973,-189.7192 378.7884,-182.7318"/>
<polygon fill="#191970" stroke="#191970" points="379.1619,-186.212 388.755,-181.7148 378.4513,-179.2481 379.1619,-186.212"/>
</g>
<!-- Node10 -->
<g id="node11" class="node">
<title>Node10</title>
<g id="a_node11"><a xlink:href="kobject_source.html" target="_top" xlink:title="l4/sys/kobject">
<polygon fill="#ffffff" stroke="#000000" points="397,-515.5 397,-534.5 477,-534.5 477,-515.5 397,-515.5"/>
<text text-anchor="middle" x="437" y="-522.5" font-family="Helvetica,sans-Serif" font-size="10.00" fill="#000000">l4/sys/kobject</text>
</a>
</g>
</g>
<!-- Node2&#45;&gt;Node10 -->
<g id="edge15" class="edge">
<title>Node2&#45;&gt;Node10</title>
<path fill="none" stroke="#191970" d="M146.2247,-688.7795C240.2006,-679.7939 448.7559,-658.6446 459,-647 484.4627,-618.0562 463.5241,-569.8902 448.6507,-543.57"/>
<polygon fill="#191970" stroke="#191970" points="451.4663,-541.4559 443.3568,-534.6378 445.4445,-545.0249 451.4663,-541.4559"/>
</g>
<!-- Node20 -->
<g id="node21" class="node">
<title>Node20</title>
<g id="a_node21"><a xlink:href="l4_2sys_2task_8h.html" target="_top" xlink:title="Common task related definitions. ">
<polygon fill="#ffffff" stroke="#000000" points="247,-342 247,-361 321,-361 321,-342 247,-342"/>
<text text-anchor="middle" x="284" y="-349" font-family="Helvetica,sans-Serif" font-size="10.00" fill="#000000">l4/sys/task.h</text>
</a>
</g>
</g>
<!-- Node2&#45;&gt;Node20 -->
<g id="edge44" class="edge">
<title>Node2&#45;&gt;Node20</title>
<path fill="none" stroke="#191970" d="M101.2466,-683.2639C102.5161,-649.555 110.3046,-535.6949 158,-459 171.1625,-437.8344 182.002,-439.1341 201,-423 223.0974,-404.2337 248.3063,-382.4661 265.0871,-367.9247"/>
<polygon fill="#191970" stroke="#191970" points="267.7717,-370.2294 273.0331,-361.0333 263.1853,-364.9412 267.7717,-370.2294"/>
</g>
<!-- Node21 -->
<g id="node22" class="node">
<title>Node21</title>
<g id="a_node22"><a xlink:href="sys_2meta.html" target="_top" xlink:title="Meta interface for getting dynamic type information about objects behind capabilities. ">
<polygon fill="#ffffff" stroke="#000000" points="380,-627.5 380,-646.5 450,-646.5 450,-627.5 380,-627.5"/>
<text text-anchor="middle" x="415" y="-634.5" font-family="Helvetica,sans-Serif" font-size="10.00" fill="#000000">l4/sys/meta</text>
</a>
</g>
</g>
<!-- Node2&#45;&gt;Node21 -->
<g id="edge45" class="edge">
<title>Node2&#45;&gt;Node21</title>
<path fill="none" stroke="#191970" d="M146.323,-684.9169C206.047,-674.2655 310.4746,-655.6415 370.0246,-645.0211"/>
<polygon fill="#191970" stroke="#191970" points="370.6617,-648.4628 379.8918,-643.2613 369.4326,-641.5715 370.6617,-648.4628"/>
</g>
<!-- Node4 -->
<g id="node5" class="node">
<title>Node4</title>
<g id="a_node5"><a xlink:href="compiler_8h.html" target="_top" xlink:title="L4 compiler related defines. ">
<polygon fill="#ffffff" stroke="#000000" points="550.5,-56.5 550.5,-75.5 645.5,-75.5 645.5,-56.5 550.5,-56.5"/>
<text text-anchor="middle" x="598" y="-63.5" font-family="Helvetica,sans-Serif" font-size="10.00" fill="#000000">l4/sys/compiler.h</text>
</a>
</g>
</g>
<!-- Node3&#45;&gt;Node4 -->
<g id="edge4" class="edge">
<title>Node3&#45;&gt;Node4</title>
<path fill="none" stroke="#191970" d="M213.0586,-113.6356C216.418,-113.0564 219.7616,-112.5036 223,-112 334.8872,-94.6007 466.399,-79.7498 540.1897,-71.9223"/>
<polygon fill="#191970" stroke="#191970" points="540.6333,-75.395 550.2108,-70.8649 539.8987,-68.4337 540.6333,-75.395"/>
</g>
<!-- Node6 -->
<g id="node7" class="node">
<title>Node6</title>
<g id="a_node7"><a xlink:href="l4_2sys_2l4int_8h.html" target="_top" xlink:title="Fixed sized integer types, generic version. ">
<polygon fill="#ffffff" stroke="#000000" points="304,-56.5 304,-75.5 378,-75.5 378,-56.5 304,-56.5"/>
<text text-anchor="middle" x="341" y="-63.5" font-family="Helvetica,sans-Serif" font-size="10.00" fill="#000000">l4/sys/l4int.h</text>
</a>
</g>
</g>
<!-- Node3&#45;&gt;Node6 -->
<g id="edge6" class="edge">
<title>Node3&#45;&gt;Node6</title>
<path fill="none" stroke="#191970" d="M199.3959,-112.3733C227.8307,-103.0613 271.0877,-88.8953 302.3081,-78.671"/>
<polygon fill="#191970" stroke="#191970" points="303.5736,-81.9396 311.9876,-75.5011 301.395,-75.2872 303.5736,-81.9396"/>
</g>
<!-- Node5 -->
<g id="node6" class="node">
<title>Node5</title>
<polygon fill="#ffffff" stroke="#bfbfbf" points="553.5,-.5 553.5,-19.5 642.5,-19.5 642.5,-.5 553.5,-.5"/>
<text text-anchor="middle" x="598" y="-7.5" font-family="Helvetica,sans-Serif" font-size="10.00" fill="#000000">l4/sys/linkage.h</text>
</g>
<!-- Node4&#45;&gt;Node5 -->
<g id="edge5" class="edge">
<title>Node4&#45;&gt;Node5</title>
<path fill="none" stroke="#191970" d="M598,-56.2455C598,-48.9382 598,-38.6944 598,-29.7046"/>
<polygon fill="#191970" stroke="#191970" points="601.5001,-29.6426 598,-19.6427 594.5001,-29.6427 601.5001,-29.6426"/>
</g>
<!-- Node7&#45;&gt;Node3 -->
<g id="edge10" class="edge">
<title>Node7&#45;&gt;Node3</title>
<path fill="none" stroke="#191970" d="M388.8154,-169.3114C344.2844,-159.6831 272.2809,-144.1148 223.1238,-133.4862"/>
<polygon fill="#191970" stroke="#191970" points="223.8196,-130.0559 213.3058,-131.3634 222.3402,-136.8978 223.8196,-130.0559"/>
</g>
<!-- Node7&#45;&gt;Node4 -->
<g id="edge9" class="edge">
<title>Node7&#45;&gt;Node4</title>
<path fill="none" stroke="#191970" d="M436.4883,-168.3547C447.7253,-154.4015 470.1858,-128.4582 494,-112 513.9593,-98.2059 538.7218,-87.055 559.0765,-79.1884"/>
<polygon fill="#191970" stroke="#191970" points="560.5376,-82.3787 568.6744,-75.5932 558.0821,-75.8235 560.5376,-82.3787"/>
</g>
<!-- Node7&#45;&gt;Node6 -->
<g id="edge8" class="edge">
<title>Node7&#45;&gt;Node6</title>
<path fill="none" stroke="#191970" d="M421.4972,-168.4509C406.6899,-149.6054 373.5167,-107.3849 354.7043,-83.4419"/>
<polygon fill="#191970" stroke="#191970" points="357.4142,-81.2257 348.4838,-75.5249 351.91,-85.5505 357.4142,-81.2257"/>
</g>
<!-- Node8 -->
<g id="node9" class="node">
<title>Node8</title>
<g id="a_node9"><a xlink:href="____l4__fpage_8h_source.html" target="_top" xlink:title="l4/sys/__l4_fpage.h">
<polygon fill="#ffffff" stroke="#000000" points="503,-112.5 503,-131.5 611,-131.5 611,-112.5 503,-112.5"/>
<text text-anchor="middle" x="557" y="-119.5" font-family="Helvetica,sans-Serif" font-size="10.00" fill="#000000">l4/sys/__l4_fpage.h</text>
</a>
</g>
</g>
<!-- Node7&#45;&gt;Node8 -->
<g id="edge11" class="edge">
<title>Node7&#45;&gt;Node8</title>
<path fill="none" stroke="#191970" d="M451.004,-168.3733C471.6435,-159.3435 502.7158,-145.7494 525.8889,-135.6111"/>
<polygon fill="#191970" stroke="#191970" points="527.5245,-138.7159 535.2831,-131.5011 524.7187,-132.3028 527.5245,-138.7159"/>
</g>
<!-- Node9 -->
<g id="node10" class="node">
<title>Node9</title>
<g id="a_node10"><a xlink:href="____timeout_8h_source.html" target="_top" xlink:title="l4/sys/__timeout.h">
<polygon fill="#ffffff" stroke="#000000" points="231.5,-112.5 231.5,-131.5 332.5,-131.5 332.5,-112.5 231.5,-112.5"/>
<text text-anchor="middle" x="282" y="-119.5" font-family="Helvetica,sans-Serif" font-size="10.00" fill="#000000">l4/sys/__timeout.h</text>
</a>
</g>
</g>
<!-- Node7&#45;&gt;Node9 -->
<g id="edge13" class="edge">
<title>Node7&#45;&gt;Node9</title>
<path fill="none" stroke="#191970" d="M403.7298,-168.3733C379.6034,-159.1822 343.0638,-145.2624 316.3123,-135.0713"/>
<polygon fill="#191970" stroke="#191970" points="317.5313,-131.7904 306.9404,-131.5011 315.0393,-138.3318 317.5313,-131.7904"/>
</g>
<!-- Node8&#45;&gt;Node4 -->
<g id="edge12" class="edge">
<title>Node8&#45;&gt;Node4</title>
<path fill="none" stroke="#191970" d="M564.1417,-112.2455C569.8444,-104.4564 577.99,-93.3308 584.8625,-83.9439"/>
<polygon fill="#191970" stroke="#191970" points="587.8568,-85.7789 590.9402,-75.6427 582.2087,-81.6437 587.8568,-85.7789"/>
</g>
<!-- Node9&#45;&gt;Node6 -->
<g id="edge14" class="edge">
<title>Node9&#45;&gt;Node6</title>
<path fill="none" stroke="#191970" d="M292.277,-112.2455C300.8218,-104.1352 313.1778,-92.4075 323.3085,-82.7919"/>
<polygon fill="#191970" stroke="#191970" points="325.9972,-85.0655 330.8408,-75.6427 321.1782,-79.9884 325.9972,-85.0655"/>
</g>
<!-- Node10&#45;&gt;Node7 -->
<g id="edge30" class="edge">
<title>Node10&#45;&gt;Node7</title>
<path fill="none" stroke="#191970" d="M438.3916,-515.1614C442.1768,-487.1506 452.1082,-404.5712 448,-336 444.9966,-285.8681 436.6787,-227.2673 432.1079,-197.5009"/>
<polygon fill="#191970" stroke="#191970" points="435.56,-196.9222 430.5585,-187.5822 428.6439,-198.0026 435.56,-196.9222"/>
</g>
<!-- Node11 -->
<g id="node12" class="node">
<title>Node11</title>
<g id="a_node12"><a xlink:href="kernel__object_8h.html" target="_top" xlink:title="Kernel object system calls. ">
<polygon fill="#ffffff" stroke="#000000" points="590,-403.5 590,-422.5 678,-422.5 678,-403.5 590,-403.5"/>
<text text-anchor="middle" x="634" y="-410.5" font-family="Helvetica,sans-Serif" font-size="10.00" fill="#000000">kernel_object.h</text>
</a>
</g>
</g>
<!-- Node10&#45;&gt;Node11 -->
<g id="edge16" class="edge">
<title>Node10&#45;&gt;Node11</title>
<path fill="none" stroke="#191970" d="M461.2551,-515.3624C482.0878,-506.7556 512.6771,-493.3256 538,-479 565.0507,-463.6969 594.2159,-442.9854 613.2107,-428.8719"/>
<polygon fill="#191970" stroke="#191970" points="615.5236,-431.5122 621.4213,-422.7106 611.3221,-425.9133 615.5236,-431.5122"/>
</g>
<!-- Node16 -->
<g id="node17" class="node">
<title>Node16</title>
<g id="a_node17"><a xlink:href="____typeinfo_8h.html" target="_top" xlink:title="Type information handling. ">
<polygon fill="#ffffff" stroke="#000000" points="308,-459.5 308,-478.5 382,-478.5 382,-459.5 308,-459.5"/>
<text text-anchor="middle" x="345" y="-466.5" font-family="Helvetica,sans-Serif" font-size="10.00" fill="#000000">__typeinfo.h</text>
</a>
</g>
</g>
<!-- Node10&#45;&gt;Node16 -->
<g id="edge31" class="edge">
<title>Node10&#45;&gt;Node16</title>
<path fill="none" stroke="#191970" d="M420.9748,-515.2455C406.8592,-506.6534 386.0737,-494.0014 369.8101,-484.1018"/>
<polygon fill="#191970" stroke="#191970" points="371.2034,-480.8525 360.8415,-478.6427 367.5637,-486.8319 371.2034,-480.8525"/>
</g>
<!-- Node11&#45;&gt;Node4 -->
<g id="edge18" class="edge">
<title>Node11&#45;&gt;Node4</title>
<path fill="none" stroke="#191970" d="M630.0016,-403.2455C622.3288,-383.9397 605.7874,-339.3209 600,-300 598.7056,-291.2059 598.1547,-288.6952 600,-280 603.6347,-262.8723 611.0136,-260.784 616,-244 630.3582,-195.6712 629.9873,-182.2566 634,-132 634.7075,-123.1393 636.8974,-120.4034 634,-112 630.2813,-101.2144 622.8787,-91.0249 615.7481,-82.9904"/>
<polygon fill="#191970" stroke="#191970" points="618.2791,-80.5729 608.8548,-75.7321 613.2033,-85.3934 618.2791,-80.5729"/>
</g>
<!-- Node11&#45;&gt;Node7 -->
<g id="edge17" class="edge">
<title>Node11&#45;&gt;Node7</title>
<path fill="none" stroke="#191970" d="M610.8082,-403.4375C593.4921,-395.4936 569.9865,-382.9302 553,-367 497.7661,-315.2007 455.3501,-234.1155 437.808,-197.3183"/>
<polygon fill="#191970" stroke="#191970" points="440.7577,-195.3633 433.3519,-187.7868 434.4165,-198.328 440.7577,-195.3633"/>
</g>
<!-- Node12 -->
<g id="node13" class="node">
<title>Node12</title>
<g id="a_node13"><a xlink:href="l4_2sys_2utcb_8h.html" target="_top" xlink:title="UTCB definitions. ">
<polygon fill="#ffffff" stroke="#000000" points="533,-224.5 533,-243.5 607,-243.5 607,-224.5 533,-224.5"/>
<text text-anchor="middle" x="570" y="-231.5" font-family="Helvetica,sans-Serif" font-size="10.00" fill="#000000">l4/sys/utcb.h</text>
</a>
</g>
</g>
<!-- Node11&#45;&gt;Node12 -->
<g id="edge19" class="edge">
<title>Node11&#45;&gt;Node12</title>
<path fill="none" stroke="#191970" d="M609.5288,-403.3462C594.2893,-395.9011 575.9388,-383.9799 567,-367 547.8988,-330.716 556.7343,-280.7912 563.9445,-253.5969"/>
<polygon fill="#191970" stroke="#191970" points="567.377,-254.3227 566.7549,-243.7462 560.6456,-252.4022 567.377,-254.3227"/>
</g>
<!-- Node13 -->
<g id="node14" class="node">
<title>Node13</title>
<g id="a_node14"><a xlink:href="____kernel__object__impl_8h.html" target="_top" xlink:title="Low&#45;level kernel debugger functions. ">
<polygon fill="#ffffff" stroke="#000000" points="647,-336.5 647,-366.5 769,-366.5 769,-336.5 647,-336.5"/>
<text text-anchor="start" x="655" y="-354.5" font-family="Helvetica,sans-Serif" font-size="10.00" fill="#000000">l4/sys/__kernel_object</text>
<text text-anchor="middle" x="708" y="-343.5" font-family="Helvetica,sans-Serif" font-size="10.00" fill="#000000">_impl.h</text>
</a>
</g>
</g>
<!-- Node11&#45;&gt;Node13 -->
<g id="edge23" class="edge">
<title>Node11&#45;&gt;Node13</title>
<path fill="none" stroke="#191970" d="M645.5625,-403.3906C655.2993,-395.2986 669.5913,-383.4207 682.0453,-373.0705"/>
<polygon fill="#191970" stroke="#191970" points="684.4439,-375.628 689.8976,-366.5446 679.9697,-370.2445 684.4439,-375.628"/>
</g>
<!-- Node14 -->
<g id="node15" class="node">
<title>Node14</title>
<g id="a_node15"><a xlink:href="l4_2sys_2ipc_8h.html" target="_top" xlink:title="Common IPC interface. ">
<polygon fill="#ffffff" stroke="#000000" points="609,-280.5 609,-299.5 677,-299.5 677,-280.5 609,-280.5"/>
<text text-anchor="middle" x="643" y="-287.5" font-family="Helvetica,sans-Serif" font-size="10.00" fill="#000000">l4/sys/ipc.h</text>
</a>
</g>
</g>
<!-- Node11&#45;&gt;Node14 -->
<g id="edge29" class="edge">
<title>Node11&#45;&gt;Node14</title>
<path fill="none" stroke="#191970" d="M634.3386,-403.0207C634.8779,-388.3281 636.0724,-360.0177 638,-336 638.6892,-327.4121 639.6786,-317.9462 640.5955,-309.8453"/>
<polygon fill="#191970" stroke="#191970" points="644.0785,-310.1947 641.7662,-299.8553 637.126,-309.38 644.0785,-310.1947"/>
</g>
<!-- Node12&#45;&gt;Node4 -->
<g id="edge21" class="edge">
<title>Node12&#45;&gt;Node4</title>
<path fill="none" stroke="#191970" d="M576.5685,-224.4354C588.0929,-207.0073 611.5346,-168.5021 620,-132 623.7835,-115.6859 617.0146,-97.6824 610.0143,-84.6054"/>
<polygon fill="#191970" stroke="#191970" points="612.8594,-82.5373 604.787,-75.6753 606.8182,-86.0736 612.8594,-82.5373"/>
</g>
<!-- Node12&#45;&gt;Node6 -->
<g id="edge22" class="edge">
<title>Node12&#45;&gt;Node6</title>
<path fill="none" stroke="#191970" d="M557.0318,-224.4862C519.2546,-196.772 409.0233,-115.9036 362.3131,-81.6358"/>
<polygon fill="#191970" stroke="#191970" points="364.243,-78.7108 354.1098,-75.6177 360.1024,-84.3549 364.243,-78.7108"/>
</g>
<!-- Node12&#45;&gt;Node7 -->
<g id="edge20" class="edge">
<title>Node12&#45;&gt;Node7</title>
<path fill="none" stroke="#191970" d="M545.7612,-224.3733C522.7211,-215.2226 487.8786,-201.3844 462.2499,-191.2057"/>
<polygon fill="#191970" stroke="#191970" points="463.5082,-187.9395 452.9225,-187.5011 460.9244,-194.4452 463.5082,-187.9395"/>
</g>
<!-- Node13&#45;&gt;Node14 -->
<g id="edge24" class="edge">
<title>Node13&#45;&gt;Node14</title>
<path fill="none" stroke="#191970" d="M691.9326,-336.2977C682.534,-327.4052 670.6473,-316.1586 660.943,-306.9769"/>
<polygon fill="#191970" stroke="#191970" points="663.0768,-304.1774 653.4073,-299.8469 658.2658,-309.2621 663.0768,-304.1774"/>
</g>
<!-- Node14&#45;&gt;Node7 -->
<g id="edge25" class="edge">
<title>Node14&#45;&gt;Node7</title>
<path fill="none" stroke="#191970" d="M612.5421,-280.4703C587.9654,-272.2557 552.8567,-259.3186 524,-244 496.4364,-229.3678 467.3327,-208.1817 448.7141,-193.7892"/>
<polygon fill="#191970" stroke="#191970" points="450.7356,-190.9267 440.7049,-187.5154 446.4189,-196.4373 450.7356,-190.9267"/>
</g>
<!-- Node14&#45;&gt;Node12 -->
<g id="edge26" class="edge">
<title>Node14&#45;&gt;Node12</title>
<path fill="none" stroke="#191970" d="M630.2844,-280.2455C619.398,-271.8943 603.5117,-259.7076 590.78,-249.9408"/>
<polygon fill="#191970" stroke="#191970" points="592.6346,-246.9523 582.5699,-243.6427 588.3739,-252.5063 592.6346,-246.9523"/>
</g>
<!-- Node15 -->
<g id="node16" class="node">
<title>Node15</title>
<g id="a_node16"><a xlink:href="err_8h.html" target="_top" xlink:title="Error codes. ">
<polygon fill="#ffffff" stroke="#000000" points="186,-224.5 186,-243.5 254,-243.5 254,-224.5 186,-224.5"/>
<text text-anchor="middle" x="220" y="-231.5" font-family="Helvetica,sans-Serif" font-size="10.00" fill="#000000">l4/sys/err.h</text>
</a>
</g>
</g>
<!-- Node14&#45;&gt;Node15 -->
<g id="edge27" class="edge">
<title>Node14&#45;&gt;Node15</title>
<path fill="none" stroke="#191970" d="M608.7424,-285.4647C532.5584,-275.3789 349.1527,-251.0982 264.3617,-239.8729"/>
<polygon fill="#191970" stroke="#191970" points="264.6545,-236.3813 254.2817,-238.5385 263.7358,-243.3207 264.6545,-236.3813"/>
</g>
<!-- Node15&#45;&gt;Node4 -->
<g id="edge28" class="edge">
<title>Node15&#45;&gt;Node4</title>
<path fill="none" stroke="#191970" d="M237.5464,-224.3434C277.3986,-202.6243 378.103,-148.9404 466,-112 496.1543,-99.327 531.146,-87.2476 557.5229,-78.6496"/>
<polygon fill="#191970" stroke="#191970" points="558.7414,-81.9342 567.1823,-75.5309 556.5906,-75.2728 558.7414,-81.9342"/>
</g>
<!-- Node17 -->
<g id="node18" class="node">
<title>Node17</title>
<g id="a_node18"><a xlink:href="types.html" target="_top" xlink:title="cxx/types">
<polygon fill="#ffffff" stroke="#000000" points="377.5,-342 377.5,-361 438.5,-361 438.5,-342 377.5,-342"/>
<text text-anchor="middle" x="408" y="-349" font-family="Helvetica,sans-Serif" font-size="10.00" fill="#000000">cxx/types</text>
</a>
</g>
</g>
<!-- Node16&#45;&gt;Node17 -->
<g id="edge32" class="edge">
<title>Node16&#45;&gt;Node17</title>
<path fill="none" stroke="#191970" d="M360.5202,-459.2743C372.2186,-451.0794 387.6296,-438.2642 396,-423 404.6808,-407.1697 407.4012,-386.6323 408.1151,-371.6323"/>
<polygon fill="#191970" stroke="#191970" points="411.619,-371.4839 408.3354,-361.4108 404.6206,-371.333 411.619,-371.4839"/>
</g>
<!-- Node18 -->
<g id="node19" class="node">
<title>Node18</title>
<g id="a_node19"><a xlink:href="ipc__basics_source.html" target="_top" xlink:title="cxx/ipc_basics">
<polygon fill="#ffffff" stroke="#000000" points="303,-403.5 303,-422.5 387,-422.5 387,-403.5 303,-403.5"/>
<text text-anchor="middle" x="345" y="-410.5" font-family="Helvetica,sans-Serif" font-size="10.00" fill="#000000">cxx/ipc_basics</text>
</a>
</g>
</g>
<!-- Node16&#45;&gt;Node18 -->
<g id="edge33" class="edge">
<title>Node16&#45;&gt;Node18</title>
<path fill="none" stroke="#191970" d="M345,-459.2455C345,-451.9382 345,-441.6944 345,-432.7046"/>
<polygon fill="#191970" stroke="#191970" points="348.5001,-432.6426 345,-422.6427 341.5001,-432.6427 348.5001,-432.6426"/>
</g>
<!-- Node19 -->
<g id="node20" class="node">
<title>Node19</title>
<g id="a_node20"><a xlink:href="capability_8h_source.html" target="_top" xlink:title="cxx/capability.h">
<polygon fill="#ffffff" stroke="#000000" points="104.5,-403.5 104.5,-422.5 191.5,-422.5 191.5,-403.5 104.5,-403.5"/>
<text text-anchor="middle" x="148" y="-410.5" font-family="Helvetica,sans-Serif" font-size="10.00" fill="#000000">cxx/capability.h</text>
</a>
</g>
</g>
<!-- Node16&#45;&gt;Node19 -->
<g id="edge37" class="edge">
<title>Node16&#45;&gt;Node19</title>
<path fill="none" stroke="#191970" d="M311.1345,-459.3733C277.951,-449.9404 227.245,-435.5265 191.1806,-425.2747"/>
<polygon fill="#191970" stroke="#191970" points="191.9995,-421.8689 181.4236,-422.5011 190.0855,-428.6021 191.9995,-421.8689"/>
</g>
<!-- Node18&#45;&gt;Node12 -->
<g id="edge35" class="edge">
<title>Node18&#45;&gt;Node12</title>
<path fill="none" stroke="#191970" d="M345.5707,-403.2871C346.9895,-387.3999 351.9193,-355.6611 369,-336 393.5121,-307.7849 411.5775,-316.7295 445,-300 479.248,-282.8573 518.1939,-262.0877 543.3822,-248.4841"/>
<polygon fill="#191970" stroke="#191970" points="545.1958,-251.4823 552.3237,-243.6437 541.8633,-245.3264 545.1958,-251.4823"/>
</g>
<!-- Node18&#45;&gt;Node15 -->
<g id="edge36" class="edge">
<title>Node18&#45;&gt;Node15</title>
<path fill="none" stroke="#191970" d="M302.9744,-405.3827C280.1974,-399.0197 253.595,-387.5292 238,-367 212.7285,-333.7327 214.0267,-281.8243 217.0733,-253.7051"/>
<polygon fill="#191970" stroke="#191970" points="220.5754,-253.9103 218.3672,-243.5482 213.6315,-253.0257 220.5754,-253.9103"/>
</g>
<!-- Node18&#45;&gt;Node17 -->
<g id="edge34" class="edge">
<title>Node18&#45;&gt;Node17</title>
<path fill="none" stroke="#191970" d="M354.8438,-403.3906C364.4039,-394.0581 379.1223,-379.6902 390.6495,-368.4374"/>
<polygon fill="#191970" stroke="#191970" points="393.3066,-370.7348 398.0175,-361.2449 388.4168,-365.7257 393.3066,-370.7348"/>
</g>
<!-- Node19&#45;&gt;Node3 -->
<g id="edge38" class="edge">
<title>Node19&#45;&gt;Node3</title>
<path fill="none" stroke="#191970" d="M144.6873,-403.2724C141.736,-394.0586 137.6383,-379.7706 136,-367 134.2468,-353.3342 135.6313,-349.7728 136,-336 136.6669,-311.0843 135.9264,-304.7343 139,-280 145.2661,-229.5746 158.2636,-171.0971 165.2736,-141.4269"/>
<polygon fill="#191970" stroke="#191970" points="168.7154,-142.083 167.6406,-131.5428 161.9079,-140.4527 168.7154,-142.083"/>
</g>
<!-- Node19&#45;&gt;Node7 -->
<g id="edge39" class="edge">
<title>Node19&#45;&gt;Node7</title>
<path fill="none" stroke="#191970" d="M146.0081,-403.0856C140.367,-371.8725 127.7139,-274.701 177,-224 204.3283,-195.8871 313.5518,-184.6785 378.898,-180.4245"/>
<polygon fill="#191970" stroke="#191970" points="379.225,-183.9111 388.9896,-179.8 378.7925,-176.9245 379.225,-183.9111"/>
</g>
<!-- Node19&#45;&gt;Node20 -->
<g id="edge40" class="edge">
<title>Node19&#45;&gt;Node20</title>
<path fill="none" stroke="#191970" d="M169.25,-403.3906C191.9055,-393.1457 227.9798,-376.8326 253.6291,-365.2339"/>
<polygon fill="#191970" stroke="#191970" points="255.2297,-368.3514 262.8992,-361.0419 252.3454,-361.9732 255.2297,-368.3514"/>
</g>
<!-- Node20&#45;&gt;Node7 -->
<g id="edge41" class="edge">
<title>Node20&#45;&gt;Node7</title>
<path fill="none" stroke="#191970" d="M292.0024,-341.9248C315.417,-313.9079 384.0448,-231.7912 414.3397,-195.5418"/>
<polygon fill="#191970" stroke="#191970" points="417.1165,-197.6772 420.8436,-187.7595 411.7453,-193.1882 417.1165,-197.6772"/>
</g>
<!-- Node20&#45;&gt;Node12 -->
<g id="edge42" class="edge">
<title>Node20&#45;&gt;Node12</title>
<path fill="none" stroke="#191970" d="M307.4046,-341.8845C358.228,-321.0042 478.8008,-271.4682 537.1895,-247.4799"/>
<polygon fill="#191970" stroke="#191970" points="538.7534,-250.6213 546.6731,-243.5836 536.0933,-244.1464 538.7534,-250.6213"/>
</g>
<!-- Node20&#45;&gt;Node14 -->
<g id="edge43" class="edge">
<title>Node20&#45;&gt;Node14</title>
<path fill="none" stroke="#191970" d="M321.2178,-344.5964C336.073,-341.8714 353.338,-338.7426 369,-336 450.0134,-321.8138 544.663,-306.1182 598.8436,-297.2173"/>
<polygon fill="#191970" stroke="#191970" points="599.4993,-300.6566 608.8005,-295.5832 598.3657,-293.749 599.4993,-300.6566"/>
</g>
<!-- Node21&#45;&gt;Node10 -->
<g id="edge46" class="edge">
<title>Node21&#45;&gt;Node10</title>
<path fill="none" stroke="#191970" d="M416.8757,-627.4509C420.4801,-609.1013 428.4375,-568.5908 433.1953,-544.3693"/>
<polygon fill="#191970" stroke="#191970" points="436.6359,-545.012 435.129,-534.5249 429.7671,-543.6627 436.6359,-545.012"/>
</g>
<!-- Node21&#45;&gt;Node22 -->
<g id="edge47" class="edge">
<title>Node21&#45;&gt;Node22</title>
<path fill="none" stroke="#191970" d="M408.6055,-627.4509C396.0964,-608.7707 368.2079,-567.1238 352.1046,-543.0761"/>
<polygon fill="#191970" stroke="#191970" points="354.8506,-540.8865 346.3783,-534.5249 349.0342,-544.7814 354.8506,-540.8865"/>
</g>
<!-- Node21&#45;&gt;Node24 -->
<g id="edge54" class="edge">
<title>Node21&#45;&gt;Node24</title>
<path fill="none" stroke="#191970" d="M437.6916,-627.3733C459.0711,-618.3032 491.3057,-604.6279 515.2362,-594.4755"/>
<polygon fill="#191970" stroke="#191970" points="516.7656,-597.6287 524.6045,-590.5011 514.0317,-591.1846 516.7656,-597.6287"/>
</g>
<!-- Node22&#45;&gt;Node16 -->
<g id="edge53" class="edge">
<title>Node22&#45;&gt;Node16</title>
<path fill="none" stroke="#191970" d="M340.8709,-515.2455C341.5234,-507.9382 342.438,-497.6944 343.2407,-488.7046"/>
<polygon fill="#191970" stroke="#191970" points="346.7358,-488.9143 344.139,-478.6427 339.7635,-488.2918 346.7358,-488.9143"/>
</g>
<!-- Node22&#45;&gt;Node18 -->
<g id="edge48" class="edge">
<title>Node22&#45;&gt;Node18</title>
<path fill="none" stroke="#191970" d="M356.7373,-515.2988C368.7584,-507.2823 384.023,-494.6887 391,-479 399.2363,-460.4795 383.3514,-441.747 368.0467,-428.9947"/>
<polygon fill="#191970" stroke="#191970" points="369.8068,-425.9303 359.7607,-422.5647 365.5153,-431.4605 369.8068,-425.9303"/>
</g>
<!-- Node23 -->
<g id="node24" class="node">
<title>Node23</title>
<g id="a_node24"><a xlink:href="ipc__types.html" target="_top" xlink:title="l4/sys/cxx/ipc_types">
<polygon fill="#ffffff" stroke="#000000" points="180,-459.5 180,-478.5 290,-478.5 290,-459.5 180,-459.5"/>
<text text-anchor="middle" x="235" y="-466.5" font-family="Helvetica,sans-Serif" font-size="10.00" fill="#000000">l4/sys/cxx/ipc_types</text>
</a>
</g>
</g>
<!-- Node22&#45;&gt;Node23 -->
<g id="edge49" class="edge">
<title>Node22&#45;&gt;Node23</title>
<path fill="none" stroke="#191970" d="M321.7104,-515.2455C305.2238,-506.4527 280.7648,-493.4079 262.0235,-483.4125"/>
<polygon fill="#191970" stroke="#191970" points="263.5506,-480.2604 253.08,-478.6427 260.2565,-486.4368 263.5506,-480.2604"/>
</g>
<!-- Node23&#45;&gt;Node17 -->
<g id="edge51" class="edge">
<title>Node23&#45;&gt;Node17</title>
<path fill="none" stroke="#191970" d="M241.6141,-459.3292C251.5861,-445.3441 271.6924,-419.3616 294,-403 316.6782,-386.3666 345.5843,-373.383 368.6143,-364.613"/>
<polygon fill="#191970" stroke="#191970" points="369.9209,-367.8616 378.0892,-361.1141 367.4959,-361.2951 369.9209,-367.8616"/>
</g>
<!-- Node23&#45;&gt;Node18 -->
<g id="edge52" class="edge">
<title>Node23&#45;&gt;Node18</title>
<path fill="none" stroke="#191970" d="M254.1605,-459.2455C271.5111,-450.4125 297.2901,-437.2887 316.9583,-427.2758"/>
<polygon fill="#191970" stroke="#191970" points="318.7353,-430.2986 326.059,-422.6427 315.5595,-424.0605 318.7353,-430.2986"/>
</g>
<!-- Node23&#45;&gt;Node19 -->
<g id="edge50" class="edge">
<title>Node23&#45;&gt;Node19</title>
<path fill="none" stroke="#191970" d="M219.8458,-459.2455C206.4973,-450.6534 186.8414,-438.0014 171.4617,-428.1018"/>
<polygon fill="#191970" stroke="#191970" points="173.2836,-425.1121 162.9806,-422.6427 169.4949,-430.9982 173.2836,-425.1121"/>
</g>
<!-- Node24&#45;&gt;Node17 -->
<g id="edge55" class="edge">
<title>Node24&#45;&gt;Node17</title>
<path fill="none" stroke="#191970" d="M541.6264,-571.0778C534.5504,-558.0917 521.6408,-534.6704 510,-515 478.4812,-461.7401 439.2557,-400.0823 419.9175,-369.9711"/>
<polygon fill="#191970" stroke="#191970" points="422.7272,-367.8695 414.3727,-361.3539 416.8406,-371.6573 422.7272,-367.8695"/>
</g>
<!-- Node24&#45;&gt;Node18 -->
<g id="edge56" class="edge">
<title>Node24&#45;&gt;Node18</title>
<path fill="none" stroke="#191970" d="M539.2491,-571.4846C528.1531,-558.1377 506.7788,-533.4277 486,-515 447.4502,-480.8119 397.687,-446.9073 368.7592,-428.0811"/>
<polygon fill="#191970" stroke="#191970" points="370.4397,-425 360.1398,-422.5173 366.6433,-430.8812 370.4397,-425"/>
</g>
<!-- Node24&#45;&gt;Node25 -->
<g id="edge57" class="edge">
<title>Node24&#45;&gt;Node25</title>
<path fill="none" stroke="#191970" d="M559.3673,-571.2455C569.9554,-562.8943 585.4064,-550.7076 597.7893,-540.9408"/>
<polygon fill="#191970" stroke="#191970" points="600.0903,-543.5837 605.7745,-534.6427 595.7553,-538.0875 600.0903,-543.5837"/>
</g>
<!-- Node25&#45;&gt;Node17 -->
<g id="edge58" class="edge">
<title>Node25&#45;&gt;Node17</title>
<path fill="none" stroke="#191970" d="M613.2744,-515.2731C606.3606,-501.6749 592.501,-476.6683 576,-459 535.9713,-416.1396 475.375,-382.9388 438.9456,-365.3759"/>
<polygon fill="#191970" stroke="#191970" points="440.3268,-362.1575 429.7903,-361.0465 437.3342,-368.4856 440.3268,-362.1575"/>
</g>
<!-- Node25&#45;&gt;Node18 -->
<g id="edge59" class="edge">
<title>Node25&#45;&gt;Node18</title>
<path fill="none" stroke="#191970" d="M595.8578,-515.4211C565.6852,-502.4165 509.9213,-478.5539 462,-459 434.2387,-447.6722 402.5804,-435.2556 379.2017,-426.1808"/>
<polygon fill="#191970" stroke="#191970" points="380.3138,-422.8582 369.7247,-422.509 377.7849,-429.3854 380.3138,-422.8582"/>
</g>
<!-- Node25&#45;&gt;Node23 -->
<g id="edge60" class="edge">
<title>Node25&#45;&gt;Node23</title>
<path fill="none" stroke="#191970" d="M587.1877,-520.6799C531.9111,-512.9031 411.9857,-495.9105 300.2447,-479.1741"/>
<polygon fill="#191970" stroke="#191970" points="300.5603,-475.6823 290.1517,-477.6597 299.5216,-482.6049 300.5603,-475.6823"/>
</g>
<!-- Node27&#45;&gt;Node4 -->
<g id="edge67" class="edge">
<title>Node27&#45;&gt;Node4</title>
<path fill="none" stroke="#191970" d="M1012.6223,-341.7305C998.714,-322.3102 970,-277.0087 970,-234 970,-234 970,-234 970,-178 970,-113.2162 760.5254,-82.5926 655.9567,-71.3414"/>
<polygon fill="#191970" stroke="#191970" points="656.182,-67.8459 645.8709,-70.2813 655.4503,-74.8076 656.182,-67.8459"/>
</g>
<!-- Node27&#45;&gt;Node7 -->
<g id="edge66" class="edge">
<title>Node27&#45;&gt;Node7</title>
<path fill="none" stroke="#191970" d="M996.5816,-341.9749C939.4035,-319.0063 787.7757,-259.8264 657,-224 596.7145,-207.4846 525.9735,-194.1234 479.4623,-186.1402"/>
<polygon fill="#191970" stroke="#191970" points="479.7848,-182.6449 469.3401,-184.4221 478.6134,-189.5462 479.7848,-182.6449"/>
</g>
<!-- Node27&#45;&gt;Node14 -->
<g id="edge68" class="edge">
<title>Node27&#45;&gt;Node14</title>
<path fill="none" stroke="#191970" d="M996.7362,-341.8946C990.7142,-339.6918 984.183,-337.5459 978,-336 875.7666,-310.4392 752.1924,-298.1076 687.4718,-293.0202"/>
<polygon fill="#191970" stroke="#191970" points="687.4615,-289.5093 677.2238,-292.2369 686.9279,-296.489 687.4615,-289.5093"/>
</g>
<!-- Node28&#45;&gt;Node15 -->
<g id="edge74" class="edge">
<title>Node28&#45;&gt;Node15</title>
<path fill="none" stroke="#191970" d="M208.2827,-571.2134C196.0466,-562.6142 178.6518,-549.2748 166,-535 127.0652,-491.0704 112.1827,-479.4256 96,-423 75.1357,-350.2505 156.075,-279.8527 197.277,-249.548"/>
<polygon fill="#191970" stroke="#191970" points="199.5654,-252.2138 205.6489,-243.5396 195.4839,-246.5268 199.5654,-252.2138"/>
</g>
<!-- Node28&#45;&gt;Node16 -->
<g id="edge73" class="edge">
<title>Node28&#45;&gt;Node16</title>
<path fill="none" stroke="#191970" d="M233.3398,-571.0559C246.9142,-558.0462 271.5404,-534.5994 293,-515 303.8467,-505.0935 316.1514,-494.1937 326.0674,-485.4917"/>
<polygon fill="#191970" stroke="#191970" points="328.5296,-487.988 333.7507,-478.7689 323.9201,-482.7199 328.5296,-487.988"/>
</g>
<!-- Node28&#45;&gt;Node18 -->
<g id="edge70" class="edge">
<title>Node28&#45;&gt;Node18</title>
<path fill="none" stroke="#191970" d="M212.5908,-571.2781C190.4473,-549.4254 142.9064,-495.4858 171,-459 185.8426,-439.7236 247.0112,-426.8777 292.6543,-419.7716"/>
<polygon fill="#191970" stroke="#191970" points="293.3493,-423.2066 302.7172,-418.2576 292.3077,-416.2845 293.3493,-423.2066"/>
</g>
<!-- Node28&#45;&gt;Node22 -->
<g id="edge72" class="edge">
<title>Node28&#45;&gt;Node22</title>
<path fill="none" stroke="#191970" d="M243.113,-571.3733C261.8103,-562.4241 289.8744,-548.9917 310.9934,-538.8835"/>
<polygon fill="#191970" stroke="#191970" points="312.6405,-541.9755 320.1494,-534.5011 309.6183,-535.6614 312.6405,-541.9755"/>
</g>
<!-- Node28&#45;&gt;Node23 -->
<g id="edge71" class="edge">
<title>Node28&#45;&gt;Node23</title>
<path fill="none" stroke="#191970" d="M224.0231,-571.4509C225.9803,-553.184 230.2905,-512.9553 232.8895,-488.6976"/>
<polygon fill="#191970" stroke="#191970" points="236.3941,-488.8409 233.9795,-478.5249 229.434,-488.0951 236.3941,-488.8409"/>
</g>
<!-- Node29&#45;&gt;Node4 -->
<g id="edge76" class="edge">
<title>Node29&#45;&gt;Node4</title>
<path fill="none" stroke="#191970" d="M918.1021,-407.6848C966.5484,-400.7216 1042.0119,-386.9986 1062,-367 1086.918,-342.0689 1081,-325.2487 1081,-290 1081,-290 1081,-290 1081,-178 1081,-91.5715 783.8022,-71.8203 655.663,-67.321"/>
<polygon fill="#191970" stroke="#191970" points="655.7444,-63.8219 645.6338,-66.988 655.5121,-70.818 655.7444,-63.8219"/>
</g>
<!-- Node30 -->
<g id="node31" class="node">
<title>Node30</title>
<g id="a_node31"><a xlink:href="l4_2sys_2thread_8h.html" target="_top" xlink:title="Common thread related definitions. ">
<polygon fill="#ffffff" stroke="#000000" points="883,-342 883,-361 969,-361 969,-342 883,-342"/>
<text text-anchor="middle" x="926" y="-349" font-family="Helvetica,sans-Serif" font-size="10.00" fill="#000000">l4/sys/thread.h</text>
</a>
</g>
</g>
<!-- Node29&#45;&gt;Node30 -->
<g id="edge77" class="edge">
<title>Node29&#45;&gt;Node30</title>
<path fill="none" stroke="#191970" d="M883.8125,-403.3906C891.254,-394.2376 902.6334,-380.2409 911.6992,-369.09"/>
<polygon fill="#191970" stroke="#191970" points="914.4847,-371.212 918.0774,-361.2449 909.0533,-366.7962 914.4847,-371.212"/>
</g>
<!-- Node31 -->
<g id="node32" class="node">
<title>Node31</title>
<g id="a_node32"><a xlink:href="vcon_8h.html" target="_top" xlink:title="Virtual console interface. ">
<polygon fill="#ffffff" stroke="#000000" points="787.5,-342 787.5,-361 864.5,-361 864.5,-342 787.5,-342"/>
<text text-anchor="middle" x="826" y="-349" font-family="Helvetica,sans-Serif" font-size="10.00" fill="#000000">l4/sys/vcon.h</text>
</a>
</g>
</g>
<!-- Node29&#45;&gt;Node31 -->
<g id="edge81" class="edge">
<title>Node29&#45;&gt;Node31</title>
<path fill="none" stroke="#191970" d="M868.1875,-403.3906C860.746,-394.2376 849.3666,-380.2409 840.3008,-369.09"/>
<polygon fill="#191970" stroke="#191970" points="842.9467,-366.7962 833.9226,-361.2449 837.5153,-371.212 842.9467,-366.7962"/>
</g>
<!-- Node30&#45;&gt;Node7 -->
<g id="edge78" class="edge">
<title>Node30&#45;&gt;Node7</title>
<path fill="none" stroke="#191970" d="M905.7187,-341.9159C856.789,-319.0701 728.0184,-260.588 616,-224 570.343,-209.0873 517.039,-196.4256 479.0491,-188.1847"/>
<polygon fill="#191970" stroke="#191970" points="479.7594,-184.7576 469.2478,-186.083 478.2917,-191.602 479.7594,-184.7576"/>
</g>
<!-- Node30&#45;&gt;Node12 -->
<g id="edge79" class="edge">
<title>Node30&#45;&gt;Node12</title>
<path fill="none" stroke="#191970" d="M894.7199,-341.9206C887.9069,-339.9057 880.7249,-337.836 874,-336 809.9435,-318.5114 791.6141,-322.1034 729,-300 709.1249,-292.9839 705.3601,-288.3327 686,-280 659.0111,-268.3838 628.0609,-256.1649 604.9216,-247.2422"/>
<polygon fill="#191970" stroke="#191970" points="606.1075,-243.9484 595.5174,-243.6313 603.5983,-250.4833 606.1075,-243.9484"/>
</g>
<!-- Node30&#45;&gt;Node14 -->
<g id="edge80" class="edge">
<title>Node30&#45;&gt;Node14</title>
<path fill="none" stroke="#191970" d="M895.8872,-341.9935C888.7478,-339.8873 881.1338,-337.7606 874,-336 793.5226,-316.138 772.2428,-316.4534 691,-300 689.7329,-299.7434 688.4472,-299.482 687.1496,-299.2174"/>
<polygon fill="#191970" stroke="#191970" points="687.5785,-295.7325 677.0788,-297.1487 686.17,-302.5893 687.5785,-295.7325"/>
</g>
<!-- Node31&#45;&gt;Node14 -->
<g id="edge82" class="edge">
<title>Node31&#45;&gt;Node14</title>
<path fill="none" stroke="#191970" d="M797.4063,-341.8906C766.1155,-331.3749 715.8014,-314.466 681.16,-302.8243"/>
<polygon fill="#191970" stroke="#191970" points="681.987,-299.4099 671.393,-299.5419 679.757,-306.0452 681.987,-299.4099"/>
</g>
</g>
</svg>
