<?xml version="1.0" encoding="UTF-8" standalone="no"?>
<!DOCTYPE svg PUBLIC "-//W3C//DTD SVG 1.1//EN"
 "http://www.w3.org/Graphics/SVG/1.1/DTD/svg11.dtd">
<!-- Generated by graphviz version 2.40.1 (20161225.0304)
 -->
<!-- Title: L4::round_order Pages: 1 -->
<svg width="390pt" height="39pt"
 viewBox="0.00 0.00 390.00 39.00" xmlns="http://www.w3.org/2000/svg" xmlns:xlink="http://www.w3.org/1999/xlink">
<g id="graph0" class="graph" transform="scale(1 1) rotate(0) translate(4 35)">
<title>L4::round_order</title>
<polygon fill="#ffffff" stroke="transparent" points="-4,4 -4,-35 386,-35 386,4 -4,4"/>
<!-- Node26 -->
<g id="node1" class="node">
<title>Node26</title>
<polygon fill="#bfbfbf" stroke="#000000" points="0,-6 0,-25 92,-25 92,-6 0,-6"/>
<text text-anchor="middle" x="46" y="-13" font-family="Helvetica,sans-Serif" font-size="10.00" fill="#000000">L4::round_order</text>
</g>
<!-- Node27 -->
<g id="node2" class="node">
<title>Node27</title>
<g id="a_node2"><a xlink:href="classL4Re_1_1Dataspace.html#a7caf317574ca8fa0f43bcd333f7bb860" target="_top" xlink:title="Map a part of a dataspace into a local memory area. ">
<polygon fill="#ffffff" stroke="#000000" points="128,-.5 128,-30.5 250,-30.5 250,-.5 128,-.5"/>
<text text-anchor="start" x="136" y="-18.5" font-family="Helvetica,sans-Serif" font-size="10.00" fill="#000000">L4Re::Dataspace::map</text>
<text text-anchor="middle" x="189" y="-7.5" font-family="Helvetica,sans-Serif" font-size="10.00" fill="#000000">_region</text>
</a>
</g>
</g>
<!-- Node26&#45;&gt;Node27 -->
<g id="edge1" class="edge">
<title>Node26&#45;&gt;Node27</title>
<path fill="none" stroke="#191970" d="M102.1623,-15.5C110.6161,-15.5 119.3701,-15.5 127.9209,-15.5"/>
<polygon fill="#191970" stroke="#191970" points="102.0333,-12.0001 92.0332,-15.5 102.0332,-19.0001 102.0333,-12.0001"/>
</g>
<!-- Node28 -->
<g id="node3" class="node">
<title>Node28</title>
<g id="a_node3"><a xlink:href="classL4Re_1_1Rm.html#a81c3edf15190139911ab69211c0a4bc4" target="_top" xlink:title="Attach a data space to a region. ">
<polygon fill="#ffffff" stroke="#000000" points="286,-6 286,-25 382,-25 382,-6 286,-6"/>
<text text-anchor="middle" x="334" y="-13" font-family="Helvetica,sans-Serif" font-size="10.00" fill="#000000">L4Re::Rm::attach</text>
</a>
</g>
</g>
<!-- Node27&#45;&gt;Node28 -->
<g id="edge2" class="edge">
<title>Node27&#45;&gt;Node28</title>
<path fill="none" stroke="#191970" d="M260.2003,-15.5C268.8623,-15.5 277.5492,-15.5 285.7659,-15.5"/>
<polygon fill="#191970" stroke="#191970" points="260.0728,-12.0001 250.0728,-15.5 260.0728,-19.0001 260.0728,-12.0001"/>
</g>
</g>
</svg>
