<?xml version="1.0" encoding="UTF-8" standalone="no"?>
<!DOCTYPE svg PUBLIC "-//W3C//DTD SVG 1.1//EN"
 "http://www.w3.org/Graphics/SVG/1.1/DTD/svg11.dtd">
<!-- Generated by graphviz version 2.40.1 (20161225.0304)
 -->
<!-- Title: L4::cap_dynamic_cast Pages: 1 -->
<svg width="435pt" height="104pt"
 viewBox="0.00 0.00 435.00 104.00" xmlns="http://www.w3.org/2000/svg" xmlns:xlink="http://www.w3.org/1999/xlink">
<g id="graph0" class="graph" transform="scale(1 1) rotate(0) translate(4 100)">
<title>L4::cap_dynamic_cast</title>
<polygon fill="#ffffff" stroke="transparent" points="-4,4 -4,-100 431,-100 431,4 -4,4"/>
<!-- Node12 -->
<g id="node1" class="node">
<title>Node12</title>
<polygon fill="#bfbfbf" stroke="#000000" points="0,-38.5 0,-57.5 121,-57.5 121,-38.5 0,-38.5"/>
<text text-anchor="middle" x="60.5" y="-45.5" font-family="Helvetica,sans-Serif" font-size="10.00" fill="#000000">L4::cap_dynamic_cast</text>
</g>
<!-- Node13 -->
<g id="node2" class="node">
<title>Node13</title>
<g id="a_node2"><a xlink:href="namespaceL4.html#a0118f233567805e8d15e6fd3eb3b64fb" target="_top" xlink:title="reinterpret_cast for capabilities. ">
<polygon fill="#ffffff" stroke="#000000" points="157,-76.5 157,-95.5 288,-95.5 288,-76.5 157,-76.5"/>
<text text-anchor="middle" x="222.5" y="-83.5" font-family="Helvetica,sans-Serif" font-size="10.00" fill="#000000">L4::cap_reinterpret_cast</text>
</a>
</g>
</g>
<!-- Node12&#45;&gt;Node13 -->
<g id="edge1" class="edge">
<title>Node12&#45;&gt;Node13</title>
<path fill="none" stroke="#191970" d="M101.3794,-57.589C122.8534,-62.6261 149.3605,-68.8438 172.097,-74.1771"/>
<polygon fill="#191970" stroke="#191970" points="171.3795,-77.6037 181.9145,-76.4799 172.9781,-70.7887 171.3795,-77.6037"/>
</g>
<!-- Node15 -->
<g id="node4" class="node">
<title>Node15</title>
<g id="a_node4"><a xlink:href="group__l4__ipc__err__api.html#ga05c11e3e10b6c2aa941396ac2018899f" target="_top" xlink:title="Return error code of a system call return message tag or the tag label. ">
<polygon fill="#ffffff" stroke="#000000" points="195.5,-38.5 195.5,-57.5 249.5,-57.5 249.5,-38.5 195.5,-38.5"/>
<text text-anchor="middle" x="222.5" y="-45.5" font-family="Helvetica,sans-Serif" font-size="10.00" fill="#000000">l4_error</text>
</a>
</g>
</g>
<!-- Node12&#45;&gt;Node15 -->
<g id="edge3" class="edge">
<title>Node12&#45;&gt;Node15</title>
<path fill="none" stroke="#191970" d="M121.2837,-48C142.7976,-48 166.3442,-48 185.3084,-48"/>
<polygon fill="#191970" stroke="#191970" points="185.3307,-51.5001 195.3306,-48 185.3306,-44.5001 185.3307,-51.5001"/>
</g>
<!-- Node16 -->
<g id="node5" class="node">
<title>Node16</title>
<g id="a_node5"><a xlink:href="classL4_1_1Meta.html#addf2185549b0b361b8990011f35d1247" target="_top" xlink:title="Figure out if the object supports the given protocol (number). ">
<polygon fill="#ffffff" stroke="#000000" points="171.5,-.5 171.5,-19.5 273.5,-19.5 273.5,-.5 171.5,-.5"/>
<text text-anchor="middle" x="222.5" y="-7.5" font-family="Helvetica,sans-Serif" font-size="10.00" fill="#000000">L4::Meta::supports</text>
</a>
</g>
</g>
<!-- Node12&#45;&gt;Node16 -->
<g id="edge4" class="edge">
<title>Node12&#45;&gt;Node16</title>
<path fill="none" stroke="#191970" d="M101.3794,-38.411C122.8534,-33.3739 149.3605,-27.1562 172.097,-21.8229"/>
<polygon fill="#191970" stroke="#191970" points="172.9781,-25.2113 181.9145,-19.5201 171.3795,-18.3963 172.9781,-25.2113"/>
</g>
<!-- Node14 -->
<g id="node3" class="node">
<title>Node14</title>
<g id="a_node3"><a xlink:href="classL4_1_1Cap__base.html#a90ff089ca2442b128c2b2b0e1c22c6d7" target="_top" xlink:title="Return capability selector. ">
<polygon fill="#ffffff" stroke="#000000" points="324,-76.5 324,-95.5 427,-95.5 427,-76.5 324,-76.5"/>
<text text-anchor="middle" x="375.5" y="-83.5" font-family="Helvetica,sans-Serif" font-size="10.00" fill="#000000">L4::Cap_base::cap</text>
</a>
</g>
</g>
<!-- Node13&#45;&gt;Node14 -->
<g id="edge2" class="edge">
<title>Node13&#45;&gt;Node14</title>
<path fill="none" stroke="#191970" d="M288.2737,-86C296.6805,-86 305.2636,-86 313.606,-86"/>
<polygon fill="#191970" stroke="#191970" points="313.6345,-89.5001 323.6345,-86 313.6344,-82.5001 313.6345,-89.5001"/>
</g>
</g>
</svg>
