<?xml version="1.0" encoding="UTF-8" standalone="no"?>
<!DOCTYPE svg PUBLIC "-//W3C//DTD SVG 1.1//EN"
 "http://www.w3.org/Graphics/SVG/1.1/DTD/svg11.dtd">
<!-- Generated by graphviz version 2.40.1 (20161225.0304)
 -->
<!-- Title: L4::Ipc::make_cap_rw Pages: 1 -->
<svg width="287pt" height="137pt"
 viewBox="0.00 0.00 287.00 137.00" xmlns="http://www.w3.org/2000/svg" xmlns:xlink="http://www.w3.org/1999/xlink">
<g id="graph0" class="graph" transform="scale(1 1) rotate(0) translate(4 133)">
<title>L4::Ipc::make_cap_rw</title>
<polygon fill="#ffffff" stroke="transparent" points="-4,4 -4,-133 283,-133 283,4 -4,4"/>
<!-- Node16 -->
<g id="node1" class="node">
<title>Node16</title>
<polygon fill="#bfbfbf" stroke="#000000" points="0,-55 0,-74 118,-74 118,-55 0,-55"/>
<text text-anchor="middle" x="59" y="-62" font-family="Helvetica,sans-Serif" font-size="10.00" fill="#000000">L4::Ipc::make_cap_rw</text>
</g>
<!-- Node17 -->
<g id="node2" class="node">
<title>Node17</title>
<g id="a_node2"><a xlink:href="classL4Re_1_1Util_1_1Event__buffer__t.html#a7ccb828618951c13cd1ccd7ebe1959e2" target="_top" xlink:title="Attach event buffer from address space. ">
<polygon fill="#ffffff" stroke="#000000" points="154,-98.5 154,-128.5 279,-128.5 279,-98.5 154,-98.5"/>
<text text-anchor="start" x="162" y="-116.5" font-family="Helvetica,sans-Serif" font-size="10.00" fill="#000000">L4Re::Util::Event_buffer</text>
<text text-anchor="middle" x="216.5" y="-105.5" font-family="Helvetica,sans-Serif" font-size="10.00" fill="#000000">_t::attach</text>
</a>
</g>
</g>
<!-- Node16&#45;&gt;Node17 -->
<g id="edge1" class="edge">
<title>Node16&#45;&gt;Node17</title>
<path fill="none" stroke="#191970" d="M99.3155,-77.0426C120.3026,-83.5719 146.1147,-91.6024 168.1669,-98.463"/>
<polygon fill="#191970" stroke="#191970" points="100.3298,-73.6928 89.7415,-74.064 98.2503,-80.3768 100.3298,-73.6928"/>
</g>
<!-- Node18 -->
<g id="node3" class="node">
<title>Node18</title>
<g id="a_node3"><a xlink:href="classL4Re_1_1Util_1_1Event__t.html#a6052908f83d35a7bb1ba9371cbfc9834" target="_top" xlink:title="Initialise an event object. ">
<polygon fill="#ffffff" stroke="#000000" points="165.5,-49.5 165.5,-79.5 267.5,-79.5 267.5,-49.5 165.5,-49.5"/>
<text text-anchor="start" x="173.5" y="-67.5" font-family="Helvetica,sans-Serif" font-size="10.00" fill="#000000">L4Re::Util::Event_t</text>
<text text-anchor="middle" x="216.5" y="-56.5" font-family="Helvetica,sans-Serif" font-size="10.00" fill="#000000">::init</text>
</a>
</g>
</g>
<!-- Node16&#45;&gt;Node18 -->
<g id="edge2" class="edge">
<title>Node16&#45;&gt;Node18</title>
<path fill="none" stroke="#191970" d="M128.4205,-64.5C140.8331,-64.5 153.5593,-64.5 165.3422,-64.5"/>
<polygon fill="#191970" stroke="#191970" points="128.0953,-61.0001 118.0953,-64.5 128.0953,-68.0001 128.0953,-61.0001"/>
</g>
<!-- Node19 -->
<g id="node4" class="node">
<title>Node19</title>
<g id="a_node4"><a xlink:href="classL4Re_1_1Util_1_1Event__t.html#a2161b185b3f69aa9ef597a03fdbde247" target="_top" xlink:title="Initialise an event object in polling mode. ">
<polygon fill="#ffffff" stroke="#000000" points="165.5,-.5 165.5,-30.5 267.5,-30.5 267.5,-.5 165.5,-.5"/>
<text text-anchor="start" x="173.5" y="-18.5" font-family="Helvetica,sans-Serif" font-size="10.00" fill="#000000">L4Re::Util::Event_t</text>
<text text-anchor="middle" x="216.5" y="-7.5" font-family="Helvetica,sans-Serif" font-size="10.00" fill="#000000">::init_poll</text>
</a>
</g>
</g>
<!-- Node16&#45;&gt;Node19 -->
<g id="edge3" class="edge">
<title>Node16&#45;&gt;Node19</title>
<path fill="none" stroke="#191970" d="M99.3155,-51.9574C120.3026,-45.4281 146.1147,-37.3976 168.1669,-30.537"/>
<polygon fill="#191970" stroke="#191970" points="98.2503,-48.6232 89.7415,-54.936 100.3298,-55.3072 98.2503,-48.6232"/>
</g>
</g>
</svg>
