<?xml version="1.0" encoding="UTF-8" standalone="no"?>
<!DOCTYPE svg PUBLIC "-//W3C//DTD SVG 1.1//EN"
 "http://www.w3.org/Graphics/SVG/1.1/DTD/svg11.dtd">
<!-- Generated by graphviz version 2.40.1 (20161225.0304)
 -->
<!-- Title: L4::throw_ipc_exception Pages: 1 -->
<svg width="798pt" height="569pt"
 viewBox="0.00 0.00 798.00 569.09" xmlns="http://www.w3.org/2000/svg" xmlns:xlink="http://www.w3.org/1999/xlink">
<g id="graph0" class="graph" transform="scale(1 1) rotate(0) translate(4 565.0919)">
<title>L4::throw_ipc_exception</title>
<polygon fill="#ffffff" stroke="transparent" points="-4,4 -4,-565.0919 794,-565.0919 794,4 -4,4"/>
<!-- Node48 -->
<g id="node1" class="node">
<title>Node48</title>
<polygon fill="#bfbfbf" stroke="#000000" points="0,-272.5 0,-291.5 131,-291.5 131,-272.5 0,-272.5"/>
<text text-anchor="middle" x="65.5" y="-279.5" font-family="Helvetica,sans-Serif" font-size="10.00" fill="#000000">L4::throw_ipc_exception</text>
</g>
<!-- Node49 -->
<g id="node2" class="node">
<title>Node49</title>
<g id="a_node2"><a xlink:href="namespaceL4.html#aba0849c4b92afdccbe110489e18dadbd" target="_top" xlink:title="Throw an L4 IPC error as exception. ">
<polygon fill="#ffffff" stroke="#000000" points="167,-272.5 167,-291.5 298,-291.5 298,-272.5 167,-272.5"/>
<text text-anchor="middle" x="232.5" y="-279.5" font-family="Helvetica,sans-Serif" font-size="10.00" fill="#000000">L4::throw_ipc_exception</text>
</a>
</g>
</g>
<!-- Node48&#45;&gt;Node49 -->
<g id="edge1" class="edge">
<title>Node48&#45;&gt;Node49</title>
<path fill="none" stroke="#191970" d="M131.0235,-282C139.496,-282 148.2278,-282 156.8471,-282"/>
<polygon fill="#191970" stroke="#191970" points="156.8914,-285.5001 166.8913,-282 156.8913,-278.5001 156.8914,-285.5001"/>
</g>
<!-- Node50 -->
<g id="node3" class="node">
<title>Node50</title>
<g id="a_node3"><a xlink:href="structl4__msgtag__t.html#a09c8212b870e6c144fd072dbde5b5262" target="_top" xlink:title="Test if flags indicate an error. ">
<polygon fill="#ffffff" stroke="#000000" points="334,-272.5 334,-291.5 459,-291.5 459,-272.5 334,-272.5"/>
<text text-anchor="middle" x="396.5" y="-279.5" font-family="Helvetica,sans-Serif" font-size="10.00" fill="#000000">l4_msgtag_t::has_error</text>
</a>
</g>
</g>
<!-- Node49&#45;&gt;Node50 -->
<g id="edge2" class="edge">
<title>Node49&#45;&gt;Node50</title>
<path fill="none" stroke="#191970" d="M298.2601,-282C306.6228,-282 315.2203,-282 323.6856,-282"/>
<polygon fill="#191970" stroke="#191970" points="323.9211,-285.5001 333.9211,-282 323.921,-278.5001 323.9211,-285.5001"/>
</g>
<!-- Node51 -->
<g id="node4" class="node">
<title>Node51</title>
<g id="a_node4"><a xlink:href="group__l4__msgtag__api.html#ga661d71acad9d096fa990f7c94943bc78" target="_top" xlink:title="Create a message tag from the specified values. ">
<polygon fill="#ffffff" stroke="#000000" points="538.5,-468.5 538.5,-487.5 603.5,-487.5 603.5,-468.5 538.5,-468.5"/>
<text text-anchor="middle" x="571" y="-475.5" font-family="Helvetica,sans-Serif" font-size="10.00" fill="#000000">l4_msgtag</text>
</a>
</g>
</g>
<!-- Node50&#45;&gt;Node51 -->
<g id="edge3" class="edge">
<title>Node50&#45;&gt;Node51</title>
<path fill="none" stroke="#191970" d="M399.32,-291.8523C408.2097,-321.1374 438.4648,-408.4414 495,-454 504.5955,-461.7325 516.713,-466.9895 528.4364,-470.5576"/>
<polygon fill="#191970" stroke="#191970" points="527.5607,-473.9464 538.1274,-473.1749 529.3859,-467.1886 527.5607,-473.9464"/>
</g>
<!-- Node52 -->
<g id="node5" class="node">
<title>Node52</title>
<g id="a_node5"><a xlink:href="structl4__msgtag__t.html#af6b9564a9a16427cec0e81a4628996b8" target="_top" xlink:title="Get the flags value. ">
<polygon fill="#ffffff" stroke="#000000" points="686,-539.5 686,-558.5 787,-558.5 787,-539.5 686,-539.5"/>
<text text-anchor="middle" x="736.5" y="-546.5" font-family="Helvetica,sans-Serif" font-size="10.00" fill="#000000">l4_msgtag_t::flags</text>
</a>
</g>
</g>
<!-- Node50&#45;&gt;Node52 -->
<g id="edge11" class="edge">
<title>Node50&#45;&gt;Node52</title>
<path fill="none" stroke="#191970" d="M397.0791,-291.7114C399.8752,-329.0485 415.3584,-464.244 495,-524 546.5221,-562.6576 622.5854,-564.0719 675.5333,-558.9313"/>
<polygon fill="#191970" stroke="#191970" points="676.2331,-562.3762 685.8005,-557.8248 675.4831,-555.4165 676.2331,-562.3762"/>
</g>
<!-- Node53 -->
<g id="node6" class="node">
<title>Node53</title>
<g id="a_node6"><a xlink:href="structl4__msgtag__t.html#ad014e4a9f4509b068ddda678f6f8d568" target="_top" xlink:title="Get the number of typed items. ">
<polygon fill="#ffffff" stroke="#000000" points="684.5,-492.5 684.5,-511.5 788.5,-511.5 788.5,-492.5 684.5,-492.5"/>
<text text-anchor="middle" x="736.5" y="-499.5" font-family="Helvetica,sans-Serif" font-size="10.00" fill="#000000">l4_msgtag_t::items</text>
</a>
</g>
</g>
<!-- Node50&#45;&gt;Node53 -->
<g id="edge10" class="edge">
<title>Node50&#45;&gt;Node53</title>
<path fill="none" stroke="#191970" d="M397.4209,-291.5584C401.3594,-326.5079 420.1792,-447.8784 495,-497 554.6502,-536.1618 641.697,-525.473 693.3679,-513.901"/>
<polygon fill="#191970" stroke="#191970" points="694.2768,-517.2828 703.2118,-511.5893 692.6765,-510.4682 694.2768,-517.2828"/>
</g>
<!-- Node54 -->
<g id="node7" class="node">
<title>Node54</title>
<g id="a_node7"><a xlink:href="structl4__msgtag__t.html#a002076380a3f6e4f29a1f6b50ce2bde2" target="_top" xlink:title="Get the protocol value. ">
<polygon fill="#ffffff" stroke="#000000" points="686,-435.5 686,-454.5 787,-454.5 787,-435.5 686,-435.5"/>
<text text-anchor="middle" x="736.5" y="-442.5" font-family="Helvetica,sans-Serif" font-size="10.00" fill="#000000">l4_msgtag_t::label</text>
</a>
</g>
</g>
<!-- Node50&#45;&gt;Node54 -->
<g id="edge8" class="edge">
<title>Node50&#45;&gt;Node54</title>
<path fill="none" stroke="#191970" d="M400.7631,-291.7596C412.069,-316.353 445.3866,-380.9694 495,-410 550.0759,-442.2269 623.9443,-448.6474 675.425,-448.4726"/>
<polygon fill="#191970" stroke="#191970" points="675.7756,-451.9687 685.7329,-448.3488 675.6915,-444.9692 675.7756,-451.9687"/>
</g>
<!-- Node55 -->
<g id="node8" class="node">
<title>Node55</title>
<g id="a_node8"><a xlink:href="structl4__msgtag__t.html#a98577ea730d9abcd938b89d5c7adb18c" target="_top" xlink:title="Get the number of untyped words. ">
<polygon fill="#ffffff" stroke="#000000" points="683,-392.5 683,-411.5 790,-411.5 790,-392.5 683,-392.5"/>
<text text-anchor="middle" x="736.5" y="-399.5" font-family="Helvetica,sans-Serif" font-size="10.00" fill="#000000">l4_msgtag_t::words</text>
</a>
</g>
</g>
<!-- Node50&#45;&gt;Node55 -->
<g id="edge9" class="edge">
<title>Node50&#45;&gt;Node55</title>
<path fill="none" stroke="#191970" d="M402.411,-291.7157C415.8261,-312.7594 450.8648,-362.3179 495,-383 550.9361,-409.2122 622.1852,-411.6004 672.7618,-408.8739"/>
<polygon fill="#191970" stroke="#191970" points="673.1451,-412.3569 682.9089,-408.2437 672.7111,-405.3704 673.1451,-412.3569"/>
</g>
<!-- Node56 -->
<g id="node9" class="node">
<title>Node56</title>
<g id="a_node9"><a xlink:href="group__l4__msgtag__api.html#gab0c4422a230cf5ef5793dbab1faeb3af" target="_top" xlink:title="Get the protocol of tag. ">
<polygon fill="#ffffff" stroke="#000000" points="690,-228.5 690,-247.5 783,-247.5 783,-228.5 690,-228.5"/>
<text text-anchor="middle" x="736.5" y="-235.5" font-family="Helvetica,sans-Serif" font-size="10.00" fill="#000000">l4_msgtag_label</text>
</a>
</g>
</g>
<!-- Node50&#45;&gt;Node56 -->
<g id="edge12" class="edge">
<title>Node50&#45;&gt;Node56</title>
<path fill="none" stroke="#191970" d="M428.5932,-272.3823C447.7085,-267.0245 472.5443,-260.7054 495,-257 557.7587,-246.6442 630.6544,-241.893 679.8046,-239.7386"/>
<polygon fill="#191970" stroke="#191970" points="680.0744,-243.2305 689.9201,-239.3172 679.783,-236.2366 680.0744,-243.2305"/>
</g>
<!-- Node57 -->
<g id="node10" class="node">
<title>Node57</title>
<g id="a_node10"><a xlink:href="group__l4__msgtag__api.html#ga6d29d688c50ece7ec55f3c6ed749d375" target="_top" xlink:title="Get the number of untyped words. ">
<polygon fill="#ffffff" stroke="#000000" points="521,-76.5 521,-95.5 621,-95.5 621,-76.5 521,-76.5"/>
<text text-anchor="middle" x="571" y="-83.5" font-family="Helvetica,sans-Serif" font-size="10.00" fill="#000000">l4_msgtag_words</text>
</a>
</g>
</g>
<!-- Node50&#45;&gt;Node57 -->
<g id="edge13" class="edge">
<title>Node50&#45;&gt;Node57</title>
<path fill="none" stroke="#191970" d="M398.9852,-272.1306C407.1095,-241.9757 435.8288,-150.3548 495,-105 499.9586,-101.1992 505.5849,-98.1506 511.4795,-95.7068"/>
<polygon fill="#191970" stroke="#191970" points="512.664,-99.0003 520.9059,-92.3429 510.3112,-92.4075 512.664,-99.0003"/>
</g>
<!-- Node58 -->
<g id="node11" class="node">
<title>Node58</title>
<g id="a_node11"><a xlink:href="group__l4__msgtag__api.html#ga2f57b9cb540e4cbb6a77363828b9a671" target="_top" xlink:title="Get the number of typed items. ">
<polygon fill="#ffffff" stroke="#000000" points="523,-38.5 523,-57.5 619,-57.5 619,-38.5 523,-38.5"/>
<text text-anchor="middle" x="571" y="-45.5" font-family="Helvetica,sans-Serif" font-size="10.00" fill="#000000">l4_msgtag_items</text>
</a>
</g>
</g>
<!-- Node50&#45;&gt;Node58 -->
<g id="edge14" class="edge">
<title>Node50&#45;&gt;Node58</title>
<path fill="none" stroke="#191970" d="M397.9661,-272.0432C403.557,-237.7681 426.7777,-123.6612 495,-67 500.3425,-62.5629 506.5774,-59.1399 513.1361,-56.5031"/>
<polygon fill="#191970" stroke="#191970" points="514.5723,-59.7115 522.911,-53.1757 512.3166,-53.0849 514.5723,-59.7115"/>
</g>
<!-- Node59 -->
<g id="node12" class="node">
<title>Node59</title>
<g id="a_node12"><a xlink:href="group__l4__msgtag__api.html#ga52e71bb66855f4d78fa5c82b5f0c5a87" target="_top" xlink:title="Test for error indicator flag. ">
<polygon fill="#ffffff" stroke="#000000" points="512,-.5 512,-19.5 630,-19.5 630,-.5 512,-.5"/>
<text text-anchor="middle" x="571" y="-7.5" font-family="Helvetica,sans-Serif" font-size="10.00" fill="#000000">l4_msgtag_has_error</text>
</a>
</g>
</g>
<!-- Node50&#45;&gt;Node59 -->
<g id="edge15" class="edge">
<title>Node50&#45;&gt;Node59</title>
<path fill="none" stroke="#191970" d="M397.1799,-272.4645C400.3723,-235.1271 417.194,-97.5517 495,-29 497.3726,-26.9096 499.9411,-25.0422 502.6504,-23.3745"/>
<polygon fill="#191970" stroke="#191970" points="504.4314,-26.3941 511.7145,-18.6995 501.2226,-20.1728 504.4314,-26.3941"/>
</g>
<!-- Node60 -->
<g id="node13" class="node">
<title>Node60</title>
<g id="a_node13"><a xlink:href="group__l4__msgtag__api.html#gaf949daa8e7aa7d20743502de15e86dcd" target="_top" xlink:title="Test for page&#45;fault protocol. ">
<polygon fill="#ffffff" stroke="#000000" points="504,-190.5 504,-209.5 638,-209.5 638,-190.5 504,-190.5"/>
<text text-anchor="middle" x="571" y="-197.5" font-family="Helvetica,sans-Serif" font-size="10.00" fill="#000000">l4_msgtag_is_page_fault</text>
</a>
</g>
</g>
<!-- Node50&#45;&gt;Node60 -->
<g id="edge16" class="edge">
<title>Node50&#45;&gt;Node60</title>
<path fill="none" stroke="#191970" d="M410.3151,-272.4986C428.8953,-260.0451 463.2756,-238.1301 495,-224 504.4797,-219.7777 514.9281,-215.9695 524.9638,-212.6951"/>
<polygon fill="#191970" stroke="#191970" points="526.3187,-215.9382 534.8109,-209.6031 524.2216,-209.2597 526.3187,-215.9382"/>
</g>
<!-- Node61 -->
<g id="node14" class="node">
<title>Node61</title>
<g id="a_node14"><a xlink:href="group__l4__msgtag__api.html#gafb02742f6231ff4568412fed96e7e272" target="_top" xlink:title="Test for preemption protocol. ">
<polygon fill="#ffffff" stroke="#000000" points="502,-152.5 502,-171.5 640,-171.5 640,-152.5 502,-152.5"/>
<text text-anchor="middle" x="571" y="-159.5" font-family="Helvetica,sans-Serif" font-size="10.00" fill="#000000">l4_msgtag_is_preemption</text>
</a>
</g>
</g>
<!-- Node50&#45;&gt;Node61 -->
<g id="edge18" class="edge">
<title>Node50&#45;&gt;Node61</title>
<path fill="none" stroke="#191970" d="M403.1173,-272.2087C417.3856,-251.889 453.1618,-205.0358 495,-181 498.8861,-178.7674 503.0311,-176.7948 507.3039,-175.0522"/>
<polygon fill="#191970" stroke="#191970" points="508.6104,-178.3014 516.811,-171.5931 506.217,-171.7232 508.6104,-178.3014"/>
</g>
<!-- Node62 -->
<g id="node15" class="node">
<title>Node62</title>
<g id="a_node15"><a xlink:href="group__l4__msgtag__api.html#gafc73bad60b56767f6eb04cf4b71838ee" target="_top" xlink:title="Test for system&#45;exception protocol. ">
<polygon fill="#ffffff" stroke="#000000" points="495,-114.5 495,-133.5 647,-133.5 647,-114.5 495,-114.5"/>
<text text-anchor="middle" x="571" y="-121.5" font-family="Helvetica,sans-Serif" font-size="10.00" fill="#000000">l4_msgtag_is_sys_exception</text>
</a>
</g>
</g>
<!-- Node50&#45;&gt;Node62 -->
<g id="edge20" class="edge">
<title>Node50&#45;&gt;Node62</title>
<path fill="none" stroke="#191970" d="M400.3895,-272.4696C411.25,-247.1082 444.4573,-177.5514 495,-143 497.9526,-140.9816 501.1005,-139.1774 504.3724,-137.5647"/>
<polygon fill="#191970" stroke="#191970" points="506.0434,-140.6568 513.8628,-133.5078 503.2919,-134.2202 506.0434,-140.6568"/>
</g>
<!-- Node63 -->
<g id="node16" class="node">
<title>Node63</title>
<g id="a_node16"><a xlink:href="group__l4__msgtag__api.html#ga0f2cf0a5f8d4a733f69b94dcc388c2ef" target="_top" xlink:title="Test for exception protocol. ">
<polygon fill="#ffffff" stroke="#000000" points="505.5,-354.5 505.5,-373.5 636.5,-373.5 636.5,-354.5 505.5,-354.5"/>
<text text-anchor="middle" x="571" y="-361.5" font-family="Helvetica,sans-Serif" font-size="10.00" fill="#000000">l4_msgtag_is_exception</text>
</a>
</g>
</g>
<!-- Node50&#45;&gt;Node63 -->
<g id="edge22" class="edge">
<title>Node50&#45;&gt;Node63</title>
<path fill="none" stroke="#191970" d="M408.5175,-291.5363C426.3804,-305.2657 461.446,-330.5358 495,-345 500.7374,-347.4732 506.8629,-349.6706 513.0525,-351.6116"/>
<polygon fill="#191970" stroke="#191970" points="512.205,-355.0102 522.7851,-354.4533 514.1669,-348.2908 512.205,-355.0102"/>
</g>
<!-- Node64 -->
<g id="node17" class="node">
<title>Node64</title>
<g id="a_node17"><a xlink:href="group__l4__msgtag__api.html#ga047100a8ec6216015fbd1385f5443760" target="_top" xlink:title="Test for sigma0 protocol. ">
<polygon fill="#ffffff" stroke="#000000" points="511.5,-316.5 511.5,-335.5 630.5,-335.5 630.5,-316.5 511.5,-316.5"/>
<text text-anchor="middle" x="571" y="-323.5" font-family="Helvetica,sans-Serif" font-size="10.00" fill="#000000">l4_msgtag_is_sigma0</text>
</a>
</g>
</g>
<!-- Node50&#45;&gt;Node64 -->
<g id="edge24" class="edge">
<title>Node50&#45;&gt;Node64</title>
<path fill="none" stroke="#191970" d="M433.9106,-291.5286C452.3072,-296.2057 474.812,-301.9146 495,-307 504.0073,-309.269 513.6179,-311.6796 522.8687,-313.9948"/>
<polygon fill="#191970" stroke="#191970" points="522.1696,-317.4277 532.72,-316.4584 523.8679,-310.6368 522.1696,-317.4277"/>
</g>
<!-- Node65 -->
<g id="node18" class="node">
<title>Node65</title>
<g id="a_node18"><a xlink:href="group__l4__msgtag__api.html#ga463384faf9cb37d3f65f24913e34d687" target="_top" xlink:title="Test for IO&#45;page&#45;fault protocol. ">
<polygon fill="#ffffff" stroke="#000000" points="509.5,-267 509.5,-297 632.5,-297 632.5,-267 509.5,-267"/>
<text text-anchor="start" x="517.5" y="-285" font-family="Helvetica,sans-Serif" font-size="10.00" fill="#000000">l4_msgtag_is_io_page</text>
<text text-anchor="middle" x="571" y="-274" font-family="Helvetica,sans-Serif" font-size="10.00" fill="#000000">_fault</text>
</a>
</g>
</g>
<!-- Node50&#45;&gt;Node65 -->
<g id="edge26" class="edge">
<title>Node50&#45;&gt;Node65</title>
<path fill="none" stroke="#191970" d="M459.0056,-282C472.02,-282 485.835,-282 499.1554,-282"/>
<polygon fill="#191970" stroke="#191970" points="499.2237,-285.5001 509.2236,-282 499.2236,-278.5001 499.2237,-285.5001"/>
</g>
<!-- Node51&#45;&gt;Node52 -->
<g id="edge4" class="edge">
<title>Node51&#45;&gt;Node52</title>
<path fill="none" stroke="#191970" d="M593.3201,-487.5754C622.0256,-499.8901 672.0632,-521.3564 704.7318,-535.3714"/>
<polygon fill="#191970" stroke="#191970" points="703.7,-538.7371 714.2699,-539.4632 706.4598,-532.3041 703.7,-538.7371"/>
</g>
<!-- Node51&#45;&gt;Node53 -->
<g id="edge5" class="edge">
<title>Node51&#45;&gt;Node53</title>
<path fill="none" stroke="#191970" d="M603.6975,-482.7416C623.8097,-485.6582 650.2407,-489.4911 674.2235,-492.969"/>
<polygon fill="#191970" stroke="#191970" points="673.9276,-496.4626 684.3264,-494.434 674.9323,-489.5351 673.9276,-496.4626"/>
</g>
<!-- Node51&#45;&gt;Node54 -->
<g id="edge6" class="edge">
<title>Node51&#45;&gt;Node54</title>
<path fill="none" stroke="#191970" d="M603.6975,-471.4803C625.1536,-467.202 653.8011,-461.4898 678.9956,-456.4661"/>
<polygon fill="#191970" stroke="#191970" points="679.6989,-459.8949 688.8214,-454.5069 678.33,-453.03 679.6989,-459.8949"/>
</g>
<!-- Node51&#45;&gt;Node55 -->
<g id="edge7" class="edge">
<title>Node51&#45;&gt;Node55</title>
<path fill="none" stroke="#191970" d="M591.6056,-468.3356C614.0464,-457.8333 651.0157,-440.5982 683,-426 690.4232,-422.6119 698.4429,-418.9926 705.9578,-415.619"/>
<polygon fill="#191970" stroke="#191970" points="707.4284,-418.7954 715.1238,-411.5131 704.5667,-412.4071 707.4284,-418.7954"/>
</g>
<!-- Node60&#45;&gt;Node56 -->
<g id="edge17" class="edge">
<title>Node60&#45;&gt;Node56</title>
<path fill="none" stroke="#191970" d="M612.7626,-209.589C634.7005,-214.6261 661.7803,-220.8438 685.008,-226.1771"/>
<polygon fill="#191970" stroke="#191970" points="684.508,-229.6533 695.0377,-228.4799 686.0746,-222.8308 684.508,-229.6533"/>
</g>
<!-- Node61&#45;&gt;Node56 -->
<g id="edge19" class="edge">
<title>Node61&#45;&gt;Node56</title>
<path fill="none" stroke="#191970" d="M619.2091,-171.5601C628.6082,-174.1153 638.2537,-177.2397 647,-181 672.2207,-191.843 698.4069,-209.3775 715.8881,-222.1386"/>
<polygon fill="#191970" stroke="#191970" points="714.0737,-225.1513 724.1849,-228.316 718.2542,-219.5367 714.0737,-225.1513"/>
</g>
<!-- Node62&#45;&gt;Node56 -->
<g id="edge21" class="edge">
<title>Node62&#45;&gt;Node56</title>
<path fill="none" stroke="#191970" d="M625.649,-133.6191C633.096,-136.0738 640.429,-139.1491 647,-143 680.5279,-162.6486 709.3009,-198.6067 724.6426,-220.2039"/>
<polygon fill="#191970" stroke="#191970" points="721.8052,-222.2546 730.37,-228.4912 727.5638,-218.2747 721.8052,-222.2546"/>
</g>
<!-- Node63&#45;&gt;Node56 -->
<g id="edge23" class="edge">
<title>Node63&#45;&gt;Node56</title>
<path fill="none" stroke="#191970" d="M626.6562,-354.4618C633.7961,-351.998 640.776,-348.8987 647,-345 682.8971,-322.5143 711.5202,-280.8083 726.0527,-256.6409"/>
<polygon fill="#191970" stroke="#191970" points="729.2253,-258.1483 731.2392,-247.7466 723.1783,-254.6221 729.2253,-258.1483"/>
</g>
<!-- Node64&#45;&gt;Node56 -->
<g id="edge25" class="edge">
<title>Node64&#45;&gt;Node56</title>
<path fill="none" stroke="#191970" d="M621.5015,-316.4858C630.2272,-313.9731 639.0431,-310.8522 647,-307 674.9234,-293.4812 702.498,-270.3378 719.5011,-254.6172"/>
<polygon fill="#191970" stroke="#191970" points="722.0921,-256.9842 726.9542,-247.5709 717.2831,-251.8977 722.0921,-256.9842"/>
</g>
<!-- Node65&#45;&gt;Node56 -->
<g id="edge27" class="edge">
<title>Node65&#45;&gt;Node56</title>
<path fill="none" stroke="#191970" d="M627.4928,-266.9808C648.066,-261.5112 671.0548,-255.3993 690.5979,-250.2036"/>
<polygon fill="#191970" stroke="#191970" points="691.7076,-253.5302 700.4726,-247.5783 689.909,-246.7652 691.7076,-253.5302"/>
</g>
</g>
</svg>
