<?xml version="1.0" encoding="UTF-8" standalone="no"?>
<!DOCTYPE svg PUBLIC "-//W3C//DTD SVG 1.1//EN"
 "http://www.w3.org/Graphics/SVG/1.1/DTD/svg11.dtd">
<!-- Generated by graphviz version 2.40.1 (20161225.0304)
 -->
<!-- Title: L4::throw_ipc_exception Pages: 1 -->
<svg width="631pt" height="569pt"
 viewBox="0.00 0.00 631.00 569.09" xmlns="http://www.w3.org/2000/svg" xmlns:xlink="http://www.w3.org/1999/xlink">
<g id="graph0" class="graph" transform="scale(1 1) rotate(0) translate(4 565.0919)">
<title>L4::throw_ipc_exception</title>
<polygon fill="#ffffff" stroke="transparent" points="-4,4 -4,-565.0919 627,-565.0919 627,4 -4,4"/>
<!-- Node29 -->
<g id="node1" class="node">
<title>Node29</title>
<polygon fill="#bfbfbf" stroke="#000000" points="0,-272.5 0,-291.5 131,-291.5 131,-272.5 0,-272.5"/>
<text text-anchor="middle" x="65.5" y="-279.5" font-family="Helvetica,sans-Serif" font-size="10.00" fill="#000000">L4::throw_ipc_exception</text>
</g>
<!-- Node30 -->
<g id="node2" class="node">
<title>Node30</title>
<g id="a_node2"><a xlink:href="structl4__msgtag__t.html#a09c8212b870e6c144fd072dbde5b5262" target="_top" xlink:title="Test if flags indicate an error. ">
<polygon fill="#ffffff" stroke="#000000" points="167,-272.5 167,-291.5 292,-291.5 292,-272.5 167,-272.5"/>
<text text-anchor="middle" x="229.5" y="-279.5" font-family="Helvetica,sans-Serif" font-size="10.00" fill="#000000">l4_msgtag_t::has_error</text>
</a>
</g>
</g>
<!-- Node29&#45;&gt;Node30 -->
<g id="edge1" class="edge">
<title>Node29&#45;&gt;Node30</title>
<path fill="none" stroke="#191970" d="M131.2601,-282C139.6228,-282 148.2203,-282 156.6856,-282"/>
<polygon fill="#191970" stroke="#191970" points="156.9211,-285.5001 166.9211,-282 156.921,-278.5001 156.9211,-285.5001"/>
</g>
<!-- Node31 -->
<g id="node3" class="node">
<title>Node31</title>
<g id="a_node3"><a xlink:href="group__l4__msgtag__api.html#ga661d71acad9d096fa990f7c94943bc78" target="_top" xlink:title="Create a message tag from the specified values. ">
<polygon fill="#ffffff" stroke="#000000" points="371.5,-468.5 371.5,-487.5 436.5,-487.5 436.5,-468.5 371.5,-468.5"/>
<text text-anchor="middle" x="404" y="-475.5" font-family="Helvetica,sans-Serif" font-size="10.00" fill="#000000">l4_msgtag</text>
</a>
</g>
</g>
<!-- Node30&#45;&gt;Node31 -->
<g id="edge2" class="edge">
<title>Node30&#45;&gt;Node31</title>
<path fill="none" stroke="#191970" d="M232.32,-291.8523C241.2097,-321.1374 271.4648,-408.4414 328,-454 337.5955,-461.7325 349.713,-466.9895 361.4364,-470.5576"/>
<polygon fill="#191970" stroke="#191970" points="360.5607,-473.9464 371.1274,-473.1749 362.3859,-467.1886 360.5607,-473.9464"/>
</g>
<!-- Node32 -->
<g id="node4" class="node">
<title>Node32</title>
<g id="a_node4"><a xlink:href="structl4__msgtag__t.html#af6b9564a9a16427cec0e81a4628996b8" target="_top" xlink:title="Get the flags value. ">
<polygon fill="#ffffff" stroke="#000000" points="519,-539.5 519,-558.5 620,-558.5 620,-539.5 519,-539.5"/>
<text text-anchor="middle" x="569.5" y="-546.5" font-family="Helvetica,sans-Serif" font-size="10.00" fill="#000000">l4_msgtag_t::flags</text>
</a>
</g>
</g>
<!-- Node30&#45;&gt;Node32 -->
<g id="edge10" class="edge">
<title>Node30&#45;&gt;Node32</title>
<path fill="none" stroke="#191970" d="M230.0791,-291.7114C232.8752,-329.0485 248.3584,-464.244 328,-524 379.5221,-562.6576 455.5854,-564.0719 508.5333,-558.9313"/>
<polygon fill="#191970" stroke="#191970" points="509.2331,-562.3762 518.8005,-557.8248 508.4831,-555.4165 509.2331,-562.3762"/>
</g>
<!-- Node33 -->
<g id="node5" class="node">
<title>Node33</title>
<g id="a_node5"><a xlink:href="structl4__msgtag__t.html#ad014e4a9f4509b068ddda678f6f8d568" target="_top" xlink:title="Get the number of typed items. ">
<polygon fill="#ffffff" stroke="#000000" points="517.5,-492.5 517.5,-511.5 621.5,-511.5 621.5,-492.5 517.5,-492.5"/>
<text text-anchor="middle" x="569.5" y="-499.5" font-family="Helvetica,sans-Serif" font-size="10.00" fill="#000000">l4_msgtag_t::items</text>
</a>
</g>
</g>
<!-- Node30&#45;&gt;Node33 -->
<g id="edge9" class="edge">
<title>Node30&#45;&gt;Node33</title>
<path fill="none" stroke="#191970" d="M230.4209,-291.5584C234.3594,-326.5079 253.1792,-447.8784 328,-497 387.6502,-536.1618 474.697,-525.473 526.3679,-513.901"/>
<polygon fill="#191970" stroke="#191970" points="527.2768,-517.2828 536.2118,-511.5893 525.6765,-510.4682 527.2768,-517.2828"/>
</g>
<!-- Node34 -->
<g id="node6" class="node">
<title>Node34</title>
<g id="a_node6"><a xlink:href="structl4__msgtag__t.html#a002076380a3f6e4f29a1f6b50ce2bde2" target="_top" xlink:title="Get the protocol value. ">
<polygon fill="#ffffff" stroke="#000000" points="519,-435.5 519,-454.5 620,-454.5 620,-435.5 519,-435.5"/>
<text text-anchor="middle" x="569.5" y="-442.5" font-family="Helvetica,sans-Serif" font-size="10.00" fill="#000000">l4_msgtag_t::label</text>
</a>
</g>
</g>
<!-- Node30&#45;&gt;Node34 -->
<g id="edge7" class="edge">
<title>Node30&#45;&gt;Node34</title>
<path fill="none" stroke="#191970" d="M233.7631,-291.7596C245.069,-316.353 278.3866,-380.9694 328,-410 383.0759,-442.2269 456.9443,-448.6474 508.425,-448.4726"/>
<polygon fill="#191970" stroke="#191970" points="508.7756,-451.9687 518.7329,-448.3488 508.6915,-444.9692 508.7756,-451.9687"/>
</g>
<!-- Node35 -->
<g id="node7" class="node">
<title>Node35</title>
<g id="a_node7"><a xlink:href="structl4__msgtag__t.html#a98577ea730d9abcd938b89d5c7adb18c" target="_top" xlink:title="Get the number of untyped words. ">
<polygon fill="#ffffff" stroke="#000000" points="516,-392.5 516,-411.5 623,-411.5 623,-392.5 516,-392.5"/>
<text text-anchor="middle" x="569.5" y="-399.5" font-family="Helvetica,sans-Serif" font-size="10.00" fill="#000000">l4_msgtag_t::words</text>
</a>
</g>
</g>
<!-- Node30&#45;&gt;Node35 -->
<g id="edge8" class="edge">
<title>Node30&#45;&gt;Node35</title>
<path fill="none" stroke="#191970" d="M235.411,-291.7157C248.8261,-312.7594 283.8648,-362.3179 328,-383 383.9361,-409.2122 455.1852,-411.6004 505.7618,-408.8739"/>
<polygon fill="#191970" stroke="#191970" points="506.1451,-412.3569 515.9089,-408.2437 505.7111,-405.3704 506.1451,-412.3569"/>
</g>
<!-- Node36 -->
<g id="node8" class="node">
<title>Node36</title>
<g id="a_node8"><a xlink:href="group__l4__msgtag__api.html#gab0c4422a230cf5ef5793dbab1faeb3af" target="_top" xlink:title="Get the protocol of tag. ">
<polygon fill="#ffffff" stroke="#000000" points="523,-228.5 523,-247.5 616,-247.5 616,-228.5 523,-228.5"/>
<text text-anchor="middle" x="569.5" y="-235.5" font-family="Helvetica,sans-Serif" font-size="10.00" fill="#000000">l4_msgtag_label</text>
</a>
</g>
</g>
<!-- Node30&#45;&gt;Node36 -->
<g id="edge11" class="edge">
<title>Node30&#45;&gt;Node36</title>
<path fill="none" stroke="#191970" d="M261.5932,-272.3823C280.7085,-267.0245 305.5443,-260.7054 328,-257 390.7587,-246.6442 463.6544,-241.893 512.8046,-239.7386"/>
<polygon fill="#191970" stroke="#191970" points="513.0744,-243.2305 522.9201,-239.3172 512.783,-236.2366 513.0744,-243.2305"/>
</g>
<!-- Node37 -->
<g id="node9" class="node">
<title>Node37</title>
<g id="a_node9"><a xlink:href="group__l4__msgtag__api.html#ga6d29d688c50ece7ec55f3c6ed749d375" target="_top" xlink:title="Get the number of untyped words. ">
<polygon fill="#ffffff" stroke="#000000" points="354,-76.5 354,-95.5 454,-95.5 454,-76.5 354,-76.5"/>
<text text-anchor="middle" x="404" y="-83.5" font-family="Helvetica,sans-Serif" font-size="10.00" fill="#000000">l4_msgtag_words</text>
</a>
</g>
</g>
<!-- Node30&#45;&gt;Node37 -->
<g id="edge12" class="edge">
<title>Node30&#45;&gt;Node37</title>
<path fill="none" stroke="#191970" d="M231.9852,-272.1306C240.1095,-241.9757 268.8288,-150.3548 328,-105 332.9586,-101.1992 338.5849,-98.1506 344.4795,-95.7068"/>
<polygon fill="#191970" stroke="#191970" points="345.664,-99.0003 353.9059,-92.3429 343.3112,-92.4075 345.664,-99.0003"/>
</g>
<!-- Node38 -->
<g id="node10" class="node">
<title>Node38</title>
<g id="a_node10"><a xlink:href="group__l4__msgtag__api.html#ga2f57b9cb540e4cbb6a77363828b9a671" target="_top" xlink:title="Get the number of typed items. ">
<polygon fill="#ffffff" stroke="#000000" points="356,-38.5 356,-57.5 452,-57.5 452,-38.5 356,-38.5"/>
<text text-anchor="middle" x="404" y="-45.5" font-family="Helvetica,sans-Serif" font-size="10.00" fill="#000000">l4_msgtag_items</text>
</a>
</g>
</g>
<!-- Node30&#45;&gt;Node38 -->
<g id="edge13" class="edge">
<title>Node30&#45;&gt;Node38</title>
<path fill="none" stroke="#191970" d="M230.9661,-272.0432C236.557,-237.7681 259.7777,-123.6612 328,-67 333.3425,-62.5629 339.5774,-59.1399 346.1361,-56.5031"/>
<polygon fill="#191970" stroke="#191970" points="347.5723,-59.7115 355.911,-53.1757 345.3166,-53.0849 347.5723,-59.7115"/>
</g>
<!-- Node39 -->
<g id="node11" class="node">
<title>Node39</title>
<g id="a_node11"><a xlink:href="group__l4__msgtag__api.html#ga52e71bb66855f4d78fa5c82b5f0c5a87" target="_top" xlink:title="Test for error indicator flag. ">
<polygon fill="#ffffff" stroke="#000000" points="345,-.5 345,-19.5 463,-19.5 463,-.5 345,-.5"/>
<text text-anchor="middle" x="404" y="-7.5" font-family="Helvetica,sans-Serif" font-size="10.00" fill="#000000">l4_msgtag_has_error</text>
</a>
</g>
</g>
<!-- Node30&#45;&gt;Node39 -->
<g id="edge14" class="edge">
<title>Node30&#45;&gt;Node39</title>
<path fill="none" stroke="#191970" d="M230.1799,-272.4645C233.3723,-235.1271 250.194,-97.5517 328,-29 330.3726,-26.9096 332.9411,-25.0422 335.6504,-23.3745"/>
<polygon fill="#191970" stroke="#191970" points="337.4314,-26.3941 344.7145,-18.6995 334.2226,-20.1728 337.4314,-26.3941"/>
</g>
<!-- Node40 -->
<g id="node12" class="node">
<title>Node40</title>
<g id="a_node12"><a xlink:href="group__l4__msgtag__api.html#gaf949daa8e7aa7d20743502de15e86dcd" target="_top" xlink:title="Test for page&#45;fault protocol. ">
<polygon fill="#ffffff" stroke="#000000" points="337,-190.5 337,-209.5 471,-209.5 471,-190.5 337,-190.5"/>
<text text-anchor="middle" x="404" y="-197.5" font-family="Helvetica,sans-Serif" font-size="10.00" fill="#000000">l4_msgtag_is_page_fault</text>
</a>
</g>
</g>
<!-- Node30&#45;&gt;Node40 -->
<g id="edge15" class="edge">
<title>Node30&#45;&gt;Node40</title>
<path fill="none" stroke="#191970" d="M243.3151,-272.4986C261.8953,-260.0451 296.2756,-238.1301 328,-224 337.4797,-219.7777 347.9281,-215.9695 357.9638,-212.6951"/>
<polygon fill="#191970" stroke="#191970" points="359.3187,-215.9382 367.8109,-209.6031 357.2216,-209.2597 359.3187,-215.9382"/>
</g>
<!-- Node41 -->
<g id="node13" class="node">
<title>Node41</title>
<g id="a_node13"><a xlink:href="group__l4__msgtag__api.html#gafb02742f6231ff4568412fed96e7e272" target="_top" xlink:title="Test for preemption protocol. ">
<polygon fill="#ffffff" stroke="#000000" points="335,-152.5 335,-171.5 473,-171.5 473,-152.5 335,-152.5"/>
<text text-anchor="middle" x="404" y="-159.5" font-family="Helvetica,sans-Serif" font-size="10.00" fill="#000000">l4_msgtag_is_preemption</text>
</a>
</g>
</g>
<!-- Node30&#45;&gt;Node41 -->
<g id="edge17" class="edge">
<title>Node30&#45;&gt;Node41</title>
<path fill="none" stroke="#191970" d="M236.1173,-272.2087C250.3856,-251.889 286.1618,-205.0358 328,-181 331.8861,-178.7674 336.0311,-176.7948 340.3039,-175.0522"/>
<polygon fill="#191970" stroke="#191970" points="341.6104,-178.3014 349.811,-171.5931 339.217,-171.7232 341.6104,-178.3014"/>
</g>
<!-- Node42 -->
<g id="node14" class="node">
<title>Node42</title>
<g id="a_node14"><a xlink:href="group__l4__msgtag__api.html#gafc73bad60b56767f6eb04cf4b71838ee" target="_top" xlink:title="Test for system&#45;exception protocol. ">
<polygon fill="#ffffff" stroke="#000000" points="328,-114.5 328,-133.5 480,-133.5 480,-114.5 328,-114.5"/>
<text text-anchor="middle" x="404" y="-121.5" font-family="Helvetica,sans-Serif" font-size="10.00" fill="#000000">l4_msgtag_is_sys_exception</text>
</a>
</g>
</g>
<!-- Node30&#45;&gt;Node42 -->
<g id="edge19" class="edge">
<title>Node30&#45;&gt;Node42</title>
<path fill="none" stroke="#191970" d="M233.3895,-272.4696C244.25,-247.1082 277.4573,-177.5514 328,-143 330.9526,-140.9816 334.1005,-139.1774 337.3724,-137.5647"/>
<polygon fill="#191970" stroke="#191970" points="339.0434,-140.6568 346.8628,-133.5078 336.2919,-134.2202 339.0434,-140.6568"/>
</g>
<!-- Node43 -->
<g id="node15" class="node">
<title>Node43</title>
<g id="a_node15"><a xlink:href="group__l4__msgtag__api.html#ga0f2cf0a5f8d4a733f69b94dcc388c2ef" target="_top" xlink:title="Test for exception protocol. ">
<polygon fill="#ffffff" stroke="#000000" points="338.5,-354.5 338.5,-373.5 469.5,-373.5 469.5,-354.5 338.5,-354.5"/>
<text text-anchor="middle" x="404" y="-361.5" font-family="Helvetica,sans-Serif" font-size="10.00" fill="#000000">l4_msgtag_is_exception</text>
</a>
</g>
</g>
<!-- Node30&#45;&gt;Node43 -->
<g id="edge21" class="edge">
<title>Node30&#45;&gt;Node43</title>
<path fill="none" stroke="#191970" d="M241.5175,-291.5363C259.3804,-305.2657 294.446,-330.5358 328,-345 333.7374,-347.4732 339.8629,-349.6706 346.0525,-351.6116"/>
<polygon fill="#191970" stroke="#191970" points="345.205,-355.0102 355.7851,-354.4533 347.1669,-348.2908 345.205,-355.0102"/>
</g>
<!-- Node44 -->
<g id="node16" class="node">
<title>Node44</title>
<g id="a_node16"><a xlink:href="group__l4__msgtag__api.html#ga047100a8ec6216015fbd1385f5443760" target="_top" xlink:title="Test for sigma0 protocol. ">
<polygon fill="#ffffff" stroke="#000000" points="344.5,-316.5 344.5,-335.5 463.5,-335.5 463.5,-316.5 344.5,-316.5"/>
<text text-anchor="middle" x="404" y="-323.5" font-family="Helvetica,sans-Serif" font-size="10.00" fill="#000000">l4_msgtag_is_sigma0</text>
</a>
</g>
</g>
<!-- Node30&#45;&gt;Node44 -->
<g id="edge23" class="edge">
<title>Node30&#45;&gt;Node44</title>
<path fill="none" stroke="#191970" d="M266.9106,-291.5286C285.3072,-296.2057 307.812,-301.9146 328,-307 337.0073,-309.269 346.6179,-311.6796 355.8687,-313.9948"/>
<polygon fill="#191970" stroke="#191970" points="355.1696,-317.4277 365.72,-316.4584 356.8679,-310.6368 355.1696,-317.4277"/>
</g>
<!-- Node45 -->
<g id="node17" class="node">
<title>Node45</title>
<g id="a_node17"><a xlink:href="group__l4__msgtag__api.html#ga463384faf9cb37d3f65f24913e34d687" target="_top" xlink:title="Test for IO&#45;page&#45;fault protocol. ">
<polygon fill="#ffffff" stroke="#000000" points="342.5,-267 342.5,-297 465.5,-297 465.5,-267 342.5,-267"/>
<text text-anchor="start" x="350.5" y="-285" font-family="Helvetica,sans-Serif" font-size="10.00" fill="#000000">l4_msgtag_is_io_page</text>
<text text-anchor="middle" x="404" y="-274" font-family="Helvetica,sans-Serif" font-size="10.00" fill="#000000">_fault</text>
</a>
</g>
</g>
<!-- Node30&#45;&gt;Node45 -->
<g id="edge25" class="edge">
<title>Node30&#45;&gt;Node45</title>
<path fill="none" stroke="#191970" d="M292.0056,-282C305.02,-282 318.835,-282 332.1554,-282"/>
<polygon fill="#191970" stroke="#191970" points="332.2237,-285.5001 342.2236,-282 332.2236,-278.5001 332.2237,-285.5001"/>
</g>
<!-- Node31&#45;&gt;Node32 -->
<g id="edge3" class="edge">
<title>Node31&#45;&gt;Node32</title>
<path fill="none" stroke="#191970" d="M426.3201,-487.5754C455.0256,-499.8901 505.0632,-521.3564 537.7318,-535.3714"/>
<polygon fill="#191970" stroke="#191970" points="536.7,-538.7371 547.2699,-539.4632 539.4598,-532.3041 536.7,-538.7371"/>
</g>
<!-- Node31&#45;&gt;Node33 -->
<g id="edge4" class="edge">
<title>Node31&#45;&gt;Node33</title>
<path fill="none" stroke="#191970" d="M436.6975,-482.7416C456.8097,-485.6582 483.2407,-489.4911 507.2235,-492.969"/>
<polygon fill="#191970" stroke="#191970" points="506.9276,-496.4626 517.3264,-494.434 507.9323,-489.5351 506.9276,-496.4626"/>
</g>
<!-- Node31&#45;&gt;Node34 -->
<g id="edge5" class="edge">
<title>Node31&#45;&gt;Node34</title>
<path fill="none" stroke="#191970" d="M436.6975,-471.4803C458.1536,-467.202 486.8011,-461.4898 511.9956,-456.4661"/>
<polygon fill="#191970" stroke="#191970" points="512.6989,-459.8949 521.8214,-454.5069 511.33,-453.03 512.6989,-459.8949"/>
</g>
<!-- Node31&#45;&gt;Node35 -->
<g id="edge6" class="edge">
<title>Node31&#45;&gt;Node35</title>
<path fill="none" stroke="#191970" d="M424.6056,-468.3356C447.0464,-457.8333 484.0157,-440.5982 516,-426 523.4232,-422.6119 531.4429,-418.9926 538.9578,-415.619"/>
<polygon fill="#191970" stroke="#191970" points="540.4284,-418.7954 548.1238,-411.5131 537.5667,-412.4071 540.4284,-418.7954"/>
</g>
<!-- Node40&#45;&gt;Node36 -->
<g id="edge16" class="edge">
<title>Node40&#45;&gt;Node36</title>
<path fill="none" stroke="#191970" d="M445.7626,-209.589C467.7005,-214.6261 494.7803,-220.8438 518.008,-226.1771"/>
<polygon fill="#191970" stroke="#191970" points="517.508,-229.6533 528.0377,-228.4799 519.0746,-222.8308 517.508,-229.6533"/>
</g>
<!-- Node41&#45;&gt;Node36 -->
<g id="edge18" class="edge">
<title>Node41&#45;&gt;Node36</title>
<path fill="none" stroke="#191970" d="M452.2091,-171.5601C461.6082,-174.1153 471.2537,-177.2397 480,-181 505.2207,-191.843 531.4069,-209.3775 548.8881,-222.1386"/>
<polygon fill="#191970" stroke="#191970" points="547.0737,-225.1513 557.1849,-228.316 551.2542,-219.5367 547.0737,-225.1513"/>
</g>
<!-- Node42&#45;&gt;Node36 -->
<g id="edge20" class="edge">
<title>Node42&#45;&gt;Node36</title>
<path fill="none" stroke="#191970" d="M458.649,-133.6191C466.096,-136.0738 473.429,-139.1491 480,-143 513.5279,-162.6486 542.3009,-198.6067 557.6426,-220.2039"/>
<polygon fill="#191970" stroke="#191970" points="554.8052,-222.2546 563.37,-228.4912 560.5638,-218.2747 554.8052,-222.2546"/>
</g>
<!-- Node43&#45;&gt;Node36 -->
<g id="edge22" class="edge">
<title>Node43&#45;&gt;Node36</title>
<path fill="none" stroke="#191970" d="M459.6562,-354.4618C466.7961,-351.998 473.776,-348.8987 480,-345 515.8971,-322.5143 544.5202,-280.8083 559.0527,-256.6409"/>
<polygon fill="#191970" stroke="#191970" points="562.2253,-258.1483 564.2392,-247.7466 556.1783,-254.6221 562.2253,-258.1483"/>
</g>
<!-- Node44&#45;&gt;Node36 -->
<g id="edge24" class="edge">
<title>Node44&#45;&gt;Node36</title>
<path fill="none" stroke="#191970" d="M454.5015,-316.4858C463.2272,-313.9731 472.0431,-310.8522 480,-307 507.9234,-293.4812 535.498,-270.3378 552.5011,-254.6172"/>
<polygon fill="#191970" stroke="#191970" points="555.0921,-256.9842 559.9542,-247.5709 550.2831,-251.8977 555.0921,-256.9842"/>
</g>
<!-- Node45&#45;&gt;Node36 -->
<g id="edge26" class="edge">
<title>Node45&#45;&gt;Node36</title>
<path fill="none" stroke="#191970" d="M460.4928,-266.9808C481.066,-261.5112 504.0548,-255.3993 523.5979,-250.2036"/>
<polygon fill="#191970" stroke="#191970" points="524.7076,-253.5302 533.4726,-247.5783 522.909,-246.7652 524.7076,-253.5302"/>
</g>
</g>
</svg>
