<?xml version="1.0" encoding="UTF-8" standalone="no"?>
<!DOCTYPE svg PUBLIC "-//W3C//DTD SVG 1.1//EN"
 "http://www.w3.org/Graphics/SVG/1.1/DTD/svg11.dtd">
<!-- Generated by graphviz version 2.40.1 (20161225.0304)
 -->
<!-- Title: l4/re/c/namespace.h Pages: 1 -->
<svg width="642pt" height="420pt"
 viewBox="0.00 0.00 642.00 420.00" xmlns="http://www.w3.org/2000/svg" xmlns:xlink="http://www.w3.org/1999/xlink">
<g id="graph0" class="graph" transform="scale(1 1) rotate(0) translate(4 416)">
<title>l4/re/c/namespace.h</title>
<polygon fill="#ffffff" stroke="transparent" points="-4,4 -4,-416 638,-416 638,4 -4,4"/>
<!-- Node0 -->
<g id="node1" class="node">
<title>Node0</title>
<polygon fill="#bfbfbf" stroke="#000000" points="96,-392.5 96,-411.5 208,-411.5 208,-392.5 96,-392.5"/>
<text text-anchor="middle" x="152" y="-399.5" font-family="Helvetica,sans-Serif" font-size="10.00" fill="#000000">l4/re/c/namespace.h</text>
</g>
<!-- Node1 -->
<g id="node2" class="node">
<title>Node1</title>
<g id="a_node2"><a xlink:href="env_8h.html" target="_top" xlink:title="Environment interface. ">
<polygon fill="#ffffff" stroke="#000000" points="119,-336.5 119,-355.5 185,-355.5 185,-336.5 119,-336.5"/>
<text text-anchor="middle" x="152" y="-343.5" font-family="Helvetica,sans-Serif" font-size="10.00" fill="#000000">l4/re/env.h</text>
</a>
</g>
</g>
<!-- Node0&#45;&gt;Node1 -->
<g id="edge1" class="edge">
<title>Node0&#45;&gt;Node1</title>
<path fill="none" stroke="#191970" d="M152,-392.2455C152,-384.9382 152,-374.6944 152,-365.7046"/>
<polygon fill="#191970" stroke="#191970" points="155.5001,-365.6426 152,-355.6427 148.5001,-365.6427 155.5001,-365.6426"/>
</g>
<!-- Node2 -->
<g id="node3" class="node">
<title>Node2</title>
<g id="a_node3"><a xlink:href="l4_2sys_2consts_8h.html" target="_top" xlink:title="Common constants. ">
<polygon fill="#ffffff" stroke="#000000" points="66,-112.5 66,-131.5 152,-131.5 152,-112.5 66,-112.5"/>
<text text-anchor="middle" x="109" y="-119.5" font-family="Helvetica,sans-Serif" font-size="10.00" fill="#000000">l4/sys/consts.h</text>
</a>
</g>
</g>
<!-- Node1&#45;&gt;Node2 -->
<g id="edge2" class="edge">
<title>Node1&#45;&gt;Node2</title>
<path fill="none" stroke="#191970" d="M147.5052,-336.3016C136.5188,-311.9962 108.5097,-246.2516 99,-188 96.4617,-172.4519 99.4388,-154.8062 102.7896,-141.6747"/>
<polygon fill="#191970" stroke="#191970" points="106.2143,-142.4268 105.5792,-131.851 99.4806,-140.5146 106.2143,-142.4268"/>
</g>
<!-- Node3 -->
<g id="node4" class="node">
<title>Node3</title>
<g id="a_node4"><a xlink:href="compiler_8h.html" target="_top" xlink:title="L4 compiler related defines. ">
<polygon fill="#ffffff" stroke="#000000" points="61.5,-56.5 61.5,-75.5 156.5,-75.5 156.5,-56.5 61.5,-56.5"/>
<text text-anchor="middle" x="109" y="-63.5" font-family="Helvetica,sans-Serif" font-size="10.00" fill="#000000">l4/sys/compiler.h</text>
</a>
</g>
</g>
<!-- Node1&#45;&gt;Node3 -->
<g id="edge20" class="edge">
<title>Node1&#45;&gt;Node3</title>
<path fill="none" stroke="#191970" d="M118.643,-337.5082C73.8993,-323.8783 0,-292.5104 0,-234 0,-234 0,-234 0,-178 0,-132.4375 46.8998,-98.4581 79.1714,-80.4701"/>
<polygon fill="#191970" stroke="#191970" points="81.0768,-83.4201 88.2414,-75.6149 77.7732,-77.2486 81.0768,-83.4201"/>
</g>
<!-- Node6 -->
<g id="node7" class="node">
<title>Node6</title>
<g id="a_node7"><a xlink:href="l4_2sys_2types_8h.html" target="_top" xlink:title="Common L4 ABI Data Types. ">
<polygon fill="#ffffff" stroke="#000000" points="249,-168.5 249,-187.5 329,-187.5 329,-168.5 249,-168.5"/>
<text text-anchor="middle" x="289" y="-175.5" font-family="Helvetica,sans-Serif" font-size="10.00" fill="#000000">l4/sys/types.h</text>
</a>
</g>
</g>
<!-- Node1&#45;&gt;Node6 -->
<g id="edge6" class="edge">
<title>Node1&#45;&gt;Node6</title>
<path fill="none" stroke="#191970" d="M156.3735,-336.303C166.5251,-314.5013 193.4033,-260.6591 227,-224 237.9304,-212.0733 252.3367,-201.1672 264.5112,-192.9706"/>
<polygon fill="#191970" stroke="#191970" points="266.4319,-195.8966 272.9,-187.5053 262.6108,-190.0315 266.4319,-195.8966"/>
</g>
<!-- Node9 -->
<g id="node10" class="node">
<title>Node9</title>
<g id="a_node10"><a xlink:href="sys_2kip_8h.html" target="_top" xlink:title="Kernel Info Page access functions. ">
<polygon fill="#ffffff" stroke="#000000" points="255,-280.5 255,-299.5 323,-299.5 323,-280.5 255,-280.5"/>
<text text-anchor="middle" x="289" y="-287.5" font-family="Helvetica,sans-Serif" font-size="10.00" fill="#000000">l4/sys/kip.h</text>
</a>
</g>
</g>
<!-- Node1&#45;&gt;Node9 -->
<g id="edge14" class="edge">
<title>Node1&#45;&gt;Node9</title>
<path fill="none" stroke="#191970" d="M175.5511,-336.3733C197.8391,-327.2629 231.4937,-313.5062 256.3637,-303.3404"/>
<polygon fill="#191970" stroke="#191970" points="257.8239,-306.5247 265.7562,-299.5011 255.1753,-300.0451 257.8239,-306.5247"/>
</g>
<!-- Node12 -->
<g id="node13" class="node">
<title>Node12</title>
<g id="a_node13"><a xlink:href="l4_2re_2consts_8h.html" target="_top" xlink:title="Constants. ">
<polygon fill="#ffffff" stroke="#000000" points="108,-168.5 108,-187.5 188,-187.5 188,-168.5 108,-168.5"/>
<text text-anchor="middle" x="148" y="-175.5" font-family="Helvetica,sans-Serif" font-size="10.00" fill="#000000">l4/re/consts.h</text>
</a>
</g>
</g>
<!-- Node1&#45;&gt;Node12 -->
<g id="edge21" class="edge">
<title>Node1&#45;&gt;Node12</title>
<path fill="none" stroke="#191970" d="M151.7735,-336.4862C151.1412,-309.9293 149.3468,-234.5651 148.4801,-198.1655"/>
<polygon fill="#191970" stroke="#191970" points="151.9711,-197.7417 148.234,-187.8279 144.9731,-197.9084 151.9711,-197.7417"/>
</g>
<!-- Node2&#45;&gt;Node3 -->
<g id="edge3" class="edge">
<title>Node2&#45;&gt;Node3</title>
<path fill="none" stroke="#191970" d="M109,-112.2455C109,-104.9382 109,-94.6944 109,-85.7046"/>
<polygon fill="#191970" stroke="#191970" points="112.5001,-85.6426 109,-75.6427 105.5001,-85.6427 112.5001,-85.6426"/>
</g>
<!-- Node5 -->
<g id="node6" class="node">
<title>Node5</title>
<g id="a_node6"><a xlink:href="l4_2sys_2l4int_8h.html" target="_top" xlink:title="Fixed sized integer types, generic version. ">
<polygon fill="#ffffff" stroke="#000000" points="387,-56.5 387,-75.5 461,-75.5 461,-56.5 387,-56.5"/>
<text text-anchor="middle" x="424" y="-63.5" font-family="Helvetica,sans-Serif" font-size="10.00" fill="#000000">l4/sys/l4int.h</text>
</a>
</g>
</g>
<!-- Node2&#45;&gt;Node5 -->
<g id="edge5" class="edge">
<title>Node2&#45;&gt;Node5</title>
<path fill="none" stroke="#191970" d="M152.1197,-113.6498C155.1239,-113.0859 158.1065,-112.5312 161,-112 236.4387,-98.15 324.2332,-82.9862 376.8937,-73.9932"/>
<polygon fill="#191970" stroke="#191970" points="377.6742,-77.4107 386.9433,-72.2791 376.4972,-70.5104 377.6742,-77.4107"/>
</g>
<!-- Node4 -->
<g id="node5" class="node">
<title>Node4</title>
<polygon fill="#ffffff" stroke="#bfbfbf" points="64.5,-.5 64.5,-19.5 153.5,-19.5 153.5,-.5 64.5,-.5"/>
<text text-anchor="middle" x="109" y="-7.5" font-family="Helvetica,sans-Serif" font-size="10.00" fill="#000000">l4/sys/linkage.h</text>
</g>
<!-- Node3&#45;&gt;Node4 -->
<g id="edge4" class="edge">
<title>Node3&#45;&gt;Node4</title>
<path fill="none" stroke="#191970" d="M109,-56.2455C109,-48.9382 109,-38.6944 109,-29.7046"/>
<polygon fill="#191970" stroke="#191970" points="112.5001,-29.6426 109,-19.6427 105.5001,-29.6427 112.5001,-29.6426"/>
</g>
<!-- Node6&#45;&gt;Node2 -->
<g id="edge9" class="edge">
<title>Node6&#45;&gt;Node2</title>
<path fill="none" stroke="#191970" d="M258.0569,-168.3733C227.9961,-159.021 182.1974,-144.7725 149.3022,-134.5385"/>
<polygon fill="#191970" stroke="#191970" points="150.1277,-131.1299 139.5393,-131.5011 148.0481,-137.8139 150.1277,-131.1299"/>
</g>
<!-- Node6&#45;&gt;Node3 -->
<g id="edge8" class="edge">
<title>Node6&#45;&gt;Node3</title>
<path fill="none" stroke="#191970" d="M291.9813,-168.2656C295.6362,-154.2013 299.8799,-128.1211 287,-112 271.9655,-93.1821 212.7902,-80.5642 166.7464,-73.3763"/>
<polygon fill="#191970" stroke="#191970" points="167.2562,-69.9137 156.8457,-71.8815 166.2111,-76.8353 167.2562,-69.9137"/>
</g>
<!-- Node6&#45;&gt;Node5 -->
<g id="edge7" class="edge">
<title>Node6&#45;&gt;Node5</title>
<path fill="none" stroke="#191970" d="M329.2111,-171.6997C370.6451,-164.2898 431.0929,-150.6 445,-132 455.5137,-117.9385 447.2021,-98.4461 438.1197,-84.2927"/>
<polygon fill="#191970" stroke="#191970" points="440.8302,-82.0613 432.2301,-75.8735 435.0944,-86.0739 440.8302,-82.0613"/>
</g>
<!-- Node7 -->
<g id="node8" class="node">
<title>Node7</title>
<g id="a_node8"><a xlink:href="____l4__fpage_8h_source.html" target="_top" xlink:title="l4/sys/__l4_fpage.h">
<polygon fill="#ffffff" stroke="#000000" points="170,-112.5 170,-131.5 278,-131.5 278,-112.5 170,-112.5"/>
<text text-anchor="middle" x="224" y="-119.5" font-family="Helvetica,sans-Serif" font-size="10.00" fill="#000000">l4/sys/__l4_fpage.h</text>
</a>
</g>
</g>
<!-- Node6&#45;&gt;Node7 -->
<g id="edge10" class="edge">
<title>Node6&#45;&gt;Node7</title>
<path fill="none" stroke="#191970" d="M277.6779,-168.2455C268.0777,-159.9746 254.1108,-147.9416 242.8305,-138.2232"/>
<polygon fill="#191970" stroke="#191970" points="245.053,-135.5182 235.1924,-131.6427 240.484,-140.8214 245.053,-135.5182"/>
</g>
<!-- Node8 -->
<g id="node9" class="node">
<title>Node8</title>
<g id="a_node9"><a xlink:href="____timeout_8h_source.html" target="_top" xlink:title="l4/sys/__timeout.h">
<polygon fill="#ffffff" stroke="#000000" points="334.5,-112.5 334.5,-131.5 435.5,-131.5 435.5,-112.5 334.5,-112.5"/>
<text text-anchor="middle" x="385" y="-119.5" font-family="Helvetica,sans-Serif" font-size="10.00" fill="#000000">l4/sys/__timeout.h</text>
</a>
</g>
</g>
<!-- Node6&#45;&gt;Node8 -->
<g id="edge12" class="edge">
<title>Node6&#45;&gt;Node8</title>
<path fill="none" stroke="#191970" d="M305.7219,-168.2455C320.5889,-159.5731 342.5466,-146.7645 359.5858,-136.825"/>
<polygon fill="#191970" stroke="#191970" points="361.5955,-139.7047 368.4697,-131.6427 358.0683,-133.6582 361.5955,-139.7047"/>
</g>
<!-- Node7&#45;&gt;Node3 -->
<g id="edge11" class="edge">
<title>Node7&#45;&gt;Node3</title>
<path fill="none" stroke="#191970" d="M204.2308,-112.3733C185.8531,-103.4241 158.2688,-89.9917 137.5107,-79.8835"/>
<polygon fill="#191970" stroke="#191970" points="139.0343,-76.7325 128.5112,-75.5011 135.9696,-83.026 139.0343,-76.7325"/>
</g>
<!-- Node8&#45;&gt;Node5 -->
<g id="edge13" class="edge">
<title>Node8&#45;&gt;Node5</title>
<path fill="none" stroke="#191970" d="M391.7933,-112.2455C397.2178,-104.4564 404.9661,-93.3308 411.5033,-83.9439"/>
<polygon fill="#191970" stroke="#191970" points="414.4417,-85.849 417.2846,-75.6427 408.6975,-81.8485 414.4417,-85.849"/>
</g>
<!-- Node9&#45;&gt;Node3 -->
<g id="edge15" class="edge">
<title>Node9&#45;&gt;Node3</title>
<path fill="none" stroke="#191970" d="M263.5039,-280.4923C224.9063,-265.2313 150.6743,-232.4146 99,-188 69.7327,-162.8444 41.1482,-147.1867 57,-112 62.5697,-99.6369 73.2863,-89.2563 83.5506,-81.5033"/>
<polygon fill="#191970" stroke="#191970" points="85.7618,-84.2277 91.9433,-75.623 81.7451,-78.4948 85.7618,-84.2277"/>
</g>
<!-- Node9&#45;&gt;Node5 -->
<g id="edge16" class="edge">
<title>Node9&#45;&gt;Node5</title>
<path fill="none" stroke="#191970" d="M307.3787,-280.4729C345.2086,-259.6439 430.7643,-205.9356 461,-132 468.0823,-114.6815 455.8291,-96.2028 443.5643,-83.2164"/>
<polygon fill="#191970" stroke="#191970" points="445.6907,-80.3997 436.099,-75.8998 440.791,-85.399 445.6907,-80.3997"/>
</g>
<!-- Node10 -->
<g id="node11" class="node">
<title>Node10</title>
<polygon fill="#ffffff" stroke="#bfbfbf" points="530,-224.5 530,-243.5 634,-243.5 634,-224.5 530,-224.5"/>
<text text-anchor="middle" x="582" y="-231.5" font-family="Helvetica,sans-Serif" font-size="10.00" fill="#000000">l4/sys/__kip&#45;arch.h</text>
</g>
<!-- Node9&#45;&gt;Node10 -->
<g id="edge17" class="edge">
<title>Node9&#45;&gt;Node10</title>
<path fill="none" stroke="#191970" d="M323.1843,-283.4665C371.917,-274.1524 462.0885,-256.9182 522.0694,-245.4543"/>
<polygon fill="#191970" stroke="#191970" points="522.9972,-248.8404 532.1624,-243.5253 521.6831,-241.9649 522.9972,-248.8404"/>
</g>
<!-- Node11 -->
<g id="node12" class="node">
<title>Node11</title>
<g id="a_node12"><a xlink:href="____kip-64bit_8h_source.html" target="_top" xlink:title="l4/sys/__kip&#45;64bit.h">
<polygon fill="#ffffff" stroke="#000000" points="236,-224.5 236,-243.5 342,-243.5 342,-224.5 236,-224.5"/>
<text text-anchor="middle" x="289" y="-231.5" font-family="Helvetica,sans-Serif" font-size="10.00" fill="#000000">l4/sys/__kip&#45;64bit.h</text>
</a>
</g>
</g>
<!-- Node9&#45;&gt;Node11 -->
<g id="edge18" class="edge">
<title>Node9&#45;&gt;Node11</title>
<path fill="none" stroke="#191970" d="M289,-280.2455C289,-272.9382 289,-262.6944 289,-253.7046"/>
<polygon fill="#191970" stroke="#191970" points="292.5001,-253.6426 289,-243.6427 285.5001,-253.6427 292.5001,-253.6426"/>
</g>
<!-- Node11&#45;&gt;Node6 -->
<g id="edge19" class="edge">
<title>Node11&#45;&gt;Node6</title>
<path fill="none" stroke="#191970" d="M289,-224.2455C289,-216.9382 289,-206.6944 289,-197.7046"/>
<polygon fill="#191970" stroke="#191970" points="292.5001,-197.6426 289,-187.6427 285.5001,-197.6427 292.5001,-197.6426"/>
</g>
<!-- Node12&#45;&gt;Node2 -->
<g id="edge22" class="edge">
<title>Node12&#45;&gt;Node2</title>
<path fill="none" stroke="#191970" d="M141.2067,-168.2455C135.7822,-160.4564 128.0339,-149.3308 121.4967,-139.9439"/>
<polygon fill="#191970" stroke="#191970" points="124.3025,-137.8485 115.7154,-131.6427 118.5583,-141.849 124.3025,-137.8485"/>
</g>
</g>
</svg>
