<?xml version="1.0" encoding="UTF-8" standalone="no"?>
<!DOCTYPE svg PUBLIC "-//W3C//DTD SVG 1.1//EN"
 "http://www.w3.org/Graphics/SVG/1.1/DTD/svg11.dtd">
<!-- Generated by graphviz version 2.40.1 (20161225.0304)
 -->
<!-- Title: L4Re::chkipc Pages: 1 -->
<svg width="577pt" height="607pt"
 viewBox="0.00 0.00 577.00 606.67" xmlns="http://www.w3.org/2000/svg" xmlns:xlink="http://www.w3.org/1999/xlink">
<g id="graph0" class="graph" transform="scale(1 1) rotate(0) translate(4 602.668)">
<title>L4Re::chkipc</title>
<polygon fill="#ffffff" stroke="transparent" points="-4,4 -4,-602.668 573,-602.668 573,4 -4,4"/>
<!-- Node8 -->
<g id="node1" class="node">
<title>Node8</title>
<polygon fill="#bfbfbf" stroke="#000000" points="0,-313.168 0,-332.168 77,-332.168 77,-313.168 0,-313.168"/>
<text text-anchor="middle" x="38.5" y="-320.168" font-family="Helvetica,sans-Serif" font-size="10.00" fill="#000000">L4Re::chkipc</text>
</g>
<!-- Node9 -->
<g id="node2" class="node">
<title>Node9</title>
<g id="a_node2"><a xlink:href="namespaceL4Re.html#a3f17984019f06676a7e3eecb41bbb0bb" target="_top" xlink:title="Generate C++ exception on error. ">
<polygon fill="#ffffff" stroke="#000000" points="136,-455.168 136,-474.168 215,-474.168 215,-455.168 136,-455.168"/>
<text text-anchor="middle" x="175.5" y="-462.168" font-family="Helvetica,sans-Serif" font-size="10.00" fill="#000000">L4Re::chksys</text>
</a>
</g>
</g>
<!-- Node8&#45;&gt;Node9 -->
<g id="edge1" class="edge">
<title>Node8&#45;&gt;Node9</title>
<path fill="none" stroke="#191970" d="M47.9166,-332.4282C70.8913,-356.2414 130.0522,-417.5615 159.0219,-447.5884"/>
<polygon fill="#191970" stroke="#191970" points="156.5554,-450.0729 166.0175,-454.8394 161.5931,-445.2126 156.5554,-450.0729"/>
</g>
<!-- Node11 -->
<g id="node4" class="node">
<title>Node11</title>
<g id="a_node4"><a xlink:href="structl4__msgtag__t.html#a09c8212b870e6c144fd072dbde5b5262" target="_top" xlink:title="Test if flags indicate an error. ">
<polygon fill="#ffffff" stroke="#000000" points="113,-294.168 113,-313.168 238,-313.168 238,-294.168 113,-294.168"/>
<text text-anchor="middle" x="175.5" y="-301.168" font-family="Helvetica,sans-Serif" font-size="10.00" fill="#000000">l4_msgtag_t::has_error</text>
</a>
</g>
</g>
<!-- Node8&#45;&gt;Node11 -->
<g id="edge3" class="edge">
<title>Node8&#45;&gt;Node11</title>
<path fill="none" stroke="#191970" d="M77.0267,-317.3249C85.1345,-316.2004 93.9402,-314.9792 102.8399,-313.7449"/>
<polygon fill="#191970" stroke="#191970" points="103.4713,-317.191 112.8956,-312.3503 102.5096,-310.2573 103.4713,-317.191"/>
</g>
<!-- Node10 -->
<g id="node3" class="node">
<title>Node10</title>
<g id="a_node3"><a xlink:href="namespaceL4Re.html#ae27ac6f274f4ad1267d0d1c0c033c00b" target="_top" xlink:title="Generate C++ exception. ">
<polygon fill="#ffffff" stroke="#000000" points="299,-579.168 299,-598.168 401,-598.168 401,-579.168 299,-579.168"/>
<text text-anchor="middle" x="350" y="-586.168" font-family="Helvetica,sans-Serif" font-size="10.00" fill="#000000">L4Re::throw_error</text>
</a>
</g>
</g>
<!-- Node9&#45;&gt;Node10 -->
<g id="edge2" class="edge">
<title>Node9&#45;&gt;Node10</title>
<path fill="none" stroke="#191970" d="M181.5967,-474.2192C195.3821,-495.0009 231.1134,-544.4735 274,-569.668 278.764,-572.4667 283.9298,-574.8556 289.2501,-576.8943"/>
<polygon fill="#191970" stroke="#191970" points="288.3453,-580.2836 298.9398,-580.1986 290.6047,-573.6582 288.3453,-580.2836"/>
</g>
<!-- Node12 -->
<g id="node5" class="node">
<title>Node12</title>
<g id="a_node5"><a xlink:href="group__l4__msgtag__api.html#ga661d71acad9d096fa990f7c94943bc78" target="_top" xlink:title="Create a message tag from the specified values. ">
<polygon fill="#ffffff" stroke="#000000" points="317.5,-351.168 317.5,-370.168 382.5,-370.168 382.5,-351.168 317.5,-351.168"/>
<text text-anchor="middle" x="350" y="-358.168" font-family="Helvetica,sans-Serif" font-size="10.00" fill="#000000">l4_msgtag</text>
</a>
</g>
</g>
<!-- Node11&#45;&gt;Node12 -->
<g id="edge4" class="edge">
<title>Node11&#45;&gt;Node12</title>
<path fill="none" stroke="#191970" d="M203.4791,-313.1858C223.171,-319.8491 250.1617,-328.9115 274,-336.668 285.4996,-340.4097 298.0054,-344.3939 309.49,-348.0189"/>
<polygon fill="#191970" stroke="#191970" points="308.6792,-351.4329 319.2687,-351.0969 310.781,-344.7559 308.6792,-351.4329"/>
</g>
<!-- Node13 -->
<g id="node6" class="node">
<title>Node13</title>
<g id="a_node6"><a xlink:href="structl4__msgtag__t.html#af6b9564a9a16427cec0e81a4628996b8" target="_top" xlink:title="Get the flags value. ">
<polygon fill="#ffffff" stroke="#000000" points="465,-422.168 465,-441.168 566,-441.168 566,-422.168 465,-422.168"/>
<text text-anchor="middle" x="515.5" y="-429.168" font-family="Helvetica,sans-Serif" font-size="10.00" fill="#000000">l4_msgtag_t::flags</text>
</a>
</g>
</g>
<!-- Node11&#45;&gt;Node13 -->
<g id="edge12" class="edge">
<title>Node11&#45;&gt;Node13</title>
<path fill="none" stroke="#191970" d="M181.7646,-313.2592C195.6192,-333.5673 231.0591,-380.7543 274,-401.668 330.8571,-429.3594 403.791,-434.9244 454.5618,-434.7708"/>
<polygon fill="#191970" stroke="#191970" points="454.7647,-438.2689 464.727,-434.663 454.6904,-431.2693 454.7647,-438.2689"/>
</g>
<!-- Node14 -->
<g id="node7" class="node">
<title>Node14</title>
<g id="a_node7"><a xlink:href="structl4__msgtag__t.html#ad014e4a9f4509b068ddda678f6f8d568" target="_top" xlink:title="Get the number of typed items. ">
<polygon fill="#ffffff" stroke="#000000" points="463.5,-375.168 463.5,-394.168 567.5,-394.168 567.5,-375.168 463.5,-375.168"/>
<text text-anchor="middle" x="515.5" y="-382.168" font-family="Helvetica,sans-Serif" font-size="10.00" fill="#000000">l4_msgtag_t::items</text>
</a>
</g>
</g>
<!-- Node11&#45;&gt;Node14 -->
<g id="edge11" class="edge">
<title>Node11&#45;&gt;Node14</title>
<path fill="none" stroke="#191970" d="M183.8008,-313.2259C199.4116,-330.3968 235.0924,-365.9516 274,-379.668 332.2769,-400.2127 403.4749,-398.7636 453.4131,-393.8328"/>
<polygon fill="#191970" stroke="#191970" points="453.8459,-397.3066 463.4204,-392.7702 453.1067,-390.3458 453.8459,-397.3066"/>
</g>
<!-- Node15 -->
<g id="node8" class="node">
<title>Node15</title>
<g id="a_node8"><a xlink:href="structl4__msgtag__t.html#a002076380a3f6e4f29a1f6b50ce2bde2" target="_top" xlink:title="Get the protocol value. ">
<polygon fill="#ffffff" stroke="#000000" points="465,-318.168 465,-337.168 566,-337.168 566,-318.168 465,-318.168"/>
<text text-anchor="middle" x="515.5" y="-325.168" font-family="Helvetica,sans-Serif" font-size="10.00" fill="#000000">l4_msgtag_t::label</text>
</a>
</g>
</g>
<!-- Node11&#45;&gt;Node15 -->
<g id="edge9" class="edge">
<title>Node11&#45;&gt;Node15</title>
<path fill="none" stroke="#191970" d="M238.2575,-308.0979C299.9279,-312.4511 393.4234,-319.0508 454.4855,-323.3611"/>
<polygon fill="#191970" stroke="#191970" points="454.5233,-326.8724 464.745,-324.0853 455.0163,-319.8897 454.5233,-326.8724"/>
</g>
<!-- Node16 -->
<g id="node9" class="node">
<title>Node16</title>
<g id="a_node9"><a xlink:href="structl4__msgtag__t.html#a98577ea730d9abcd938b89d5c7adb18c" target="_top" xlink:title="Get the number of untyped words. ">
<polygon fill="#ffffff" stroke="#000000" points="462,-275.168 462,-294.168 569,-294.168 569,-275.168 462,-275.168"/>
<text text-anchor="middle" x="515.5" y="-282.168" font-family="Helvetica,sans-Serif" font-size="10.00" fill="#000000">l4_msgtag_t::words</text>
</a>
</g>
</g>
<!-- Node11&#45;&gt;Node16 -->
<g id="edge10" class="edge">
<title>Node11&#45;&gt;Node16</title>
<path fill="none" stroke="#191970" d="M238.2575,-300.1609C298.9303,-296.7704 390.4068,-291.6585 451.497,-288.2446"/>
<polygon fill="#191970" stroke="#191970" points="451.9934,-291.7224 461.7825,-287.6698 451.6027,-284.7333 451.9934,-291.7224"/>
</g>
<!-- Node17 -->
<g id="node10" class="node">
<title>Node17</title>
<g id="a_node10"><a xlink:href="group__l4__msgtag__api.html#gab0c4422a230cf5ef5793dbab1faeb3af" target="_top" xlink:title="Get the protocol of tag. ">
<polygon fill="#ffffff" stroke="#000000" points="469,-123.168 469,-142.168 562,-142.168 562,-123.168 469,-123.168"/>
<text text-anchor="middle" x="515.5" y="-130.168" font-family="Helvetica,sans-Serif" font-size="10.00" fill="#000000">l4_msgtag_label</text>
</a>
</g>
</g>
<!-- Node11&#45;&gt;Node17 -->
<g id="edge13" class="edge">
<title>Node11&#45;&gt;Node17</title>
<path fill="none" stroke="#191970" d="M177.4138,-293.8881C186.5174,-248.4671 226.955,-58.9099 274,-25.668 329.1721,13.3165 364.7961,2.9299 426,-25.668 465.1272,-43.9504 493.1721,-88.683 506.5882,-114.1443"/>
<polygon fill="#191970" stroke="#191970" points="503.5113,-115.8156 511.1494,-123.1581 509.7572,-112.6551 503.5113,-115.8156"/>
</g>
<!-- Node18 -->
<g id="node11" class="node">
<title>Node18</title>
<g id="a_node11"><a xlink:href="group__l4__msgtag__api.html#ga6d29d688c50ece7ec55f3c6ed749d375" target="_top" xlink:title="Get the number of untyped words. ">
<polygon fill="#ffffff" stroke="#000000" points="300,-541.168 300,-560.168 400,-560.168 400,-541.168 300,-541.168"/>
<text text-anchor="middle" x="350" y="-548.168" font-family="Helvetica,sans-Serif" font-size="10.00" fill="#000000">l4_msgtag_words</text>
</a>
</g>
</g>
<!-- Node11&#45;&gt;Node18 -->
<g id="edge14" class="edge">
<title>Node11&#45;&gt;Node18</title>
<path fill="none" stroke="#191970" d="M179.8043,-313.2836C190.0308,-336.164 216.5353,-395.6722 238,-445.668 254.3468,-483.7432 242.5676,-504.6691 274,-531.668 278.8071,-535.797 284.382,-539.0525 290.2859,-541.6155"/>
<polygon fill="#191970" stroke="#191970" points="289.1777,-544.937 299.7713,-545.0992 291.591,-538.3662 289.1777,-544.937"/>
</g>
<!-- Node19 -->
<g id="node12" class="node">
<title>Node19</title>
<g id="a_node12"><a xlink:href="group__l4__msgtag__api.html#ga2f57b9cb540e4cbb6a77363828b9a671" target="_top" xlink:title="Get the number of typed items. ">
<polygon fill="#ffffff" stroke="#000000" points="302,-503.168 302,-522.168 398,-522.168 398,-503.168 302,-503.168"/>
<text text-anchor="middle" x="350" y="-510.168" font-family="Helvetica,sans-Serif" font-size="10.00" fill="#000000">l4_msgtag_items</text>
</a>
</g>
</g>
<!-- Node11&#45;&gt;Node19 -->
<g id="edge15" class="edge">
<title>Node11&#45;&gt;Node19</title>
<path fill="none" stroke="#191970" d="M179.2662,-313.3246C193.1385,-348.4334 242.2244,-468.5582 274,-493.668 279.3772,-497.9171 285.5821,-501.2296 292.0806,-503.8096"/>
<polygon fill="#191970" stroke="#191970" points="291.1551,-507.1915 301.7495,-507.0892 293.4037,-500.5625 291.1551,-507.1915"/>
</g>
<!-- Node20 -->
<g id="node13" class="node">
<title>Node20</title>
<g id="a_node13"><a xlink:href="group__l4__msgtag__api.html#ga52e71bb66855f4d78fa5c82b5f0c5a87" target="_top" xlink:title="Test for error indicator flag. ">
<polygon fill="#ffffff" stroke="#000000" points="291,-465.168 291,-484.168 409,-484.168 409,-465.168 291,-465.168"/>
<text text-anchor="middle" x="350" y="-472.168" font-family="Helvetica,sans-Serif" font-size="10.00" fill="#000000">l4_msgtag_has_error</text>
</a>
</g>
</g>
<!-- Node11&#45;&gt;Node20 -->
<g id="edge16" class="edge">
<title>Node11&#45;&gt;Node20</title>
<path fill="none" stroke="#191970" d="M179.1973,-313.1922C189.8001,-339.2544 222.8681,-412.3462 274,-450.668 279.7852,-455.0038 286.3749,-458.5695 293.1996,-461.4989"/>
<polygon fill="#191970" stroke="#191970" points="292.0082,-464.7905 302.5982,-465.1115 294.5198,-458.2566 292.0082,-464.7905"/>
</g>
<!-- Node21 -->
<g id="node14" class="node">
<title>Node21</title>
<g id="a_node14"><a xlink:href="group__l4__msgtag__api.html#gaf949daa8e7aa7d20743502de15e86dcd" target="_top" xlink:title="Test for page&#45;fault protocol. ">
<polygon fill="#ffffff" stroke="#000000" points="283,-237.168 283,-256.168 417,-256.168 417,-237.168 283,-237.168"/>
<text text-anchor="middle" x="350" y="-244.168" font-family="Helvetica,sans-Serif" font-size="10.00" fill="#000000">l4_msgtag_is_page_fault</text>
</a>
</g>
</g>
<!-- Node11&#45;&gt;Node21 -->
<g id="edge17" class="edge">
<title>Node11&#45;&gt;Node21</title>
<path fill="none" stroke="#191970" d="M203.4791,-294.1502C223.171,-287.4868 250.1617,-278.4245 274,-270.668 285.4996,-266.9262 298.0054,-262.942 309.49,-259.3171"/>
<polygon fill="#191970" stroke="#191970" points="310.781,-262.5801 319.2687,-256.2391 308.6792,-255.9031 310.781,-262.5801"/>
</g>
<!-- Node22 -->
<g id="node15" class="node">
<title>Node22</title>
<g id="a_node15"><a xlink:href="group__l4__msgtag__api.html#gafb02742f6231ff4568412fed96e7e272" target="_top" xlink:title="Test for preemption protocol. ">
<polygon fill="#ffffff" stroke="#000000" points="281,-199.168 281,-218.168 419,-218.168 419,-199.168 281,-199.168"/>
<text text-anchor="middle" x="350" y="-206.168" font-family="Helvetica,sans-Serif" font-size="10.00" fill="#000000">l4_msgtag_is_preemption</text>
</a>
</g>
</g>
<!-- Node11&#45;&gt;Node22 -->
<g id="edge19" class="edge">
<title>Node11&#45;&gt;Node22</title>
<path fill="none" stroke="#191970" d="M185.1875,-293.9181C201.8466,-277.712 237.6493,-245.2755 274,-227.668 278.9726,-225.2594 284.2809,-223.1367 289.6931,-221.27"/>
<polygon fill="#191970" stroke="#191970" points="291.012,-224.5241 299.4972,-218.1796 288.9076,-217.8479 291.012,-224.5241"/>
</g>
<!-- Node23 -->
<g id="node16" class="node">
<title>Node23</title>
<g id="a_node16"><a xlink:href="group__l4__msgtag__api.html#gafc73bad60b56767f6eb04cf4b71838ee" target="_top" xlink:title="Test for system&#45;exception protocol. ">
<polygon fill="#ffffff" stroke="#000000" points="274,-161.168 274,-180.168 426,-180.168 426,-161.168 274,-161.168"/>
<text text-anchor="middle" x="350" y="-168.168" font-family="Helvetica,sans-Serif" font-size="10.00" fill="#000000">l4_msgtag_is_sys_exception</text>
</a>
</g>
</g>
<!-- Node11&#45;&gt;Node23 -->
<g id="edge21" class="edge">
<title>Node11&#45;&gt;Node23</title>
<path fill="none" stroke="#191970" d="M180.9857,-293.9581C194.0377,-271.784 229.2234,-217.2191 274,-189.668 277.4207,-187.5632 281.0636,-185.6912 284.8318,-184.0262"/>
<polygon fill="#191970" stroke="#191970" points="286.3534,-187.1898 294.4017,-180.2995 283.8133,-180.6669 286.3534,-187.1898"/>
</g>
<!-- Node24 -->
<g id="node17" class="node">
<title>Node24</title>
<g id="a_node17"><a xlink:href="group__l4__msgtag__api.html#ga0f2cf0a5f8d4a733f69b94dcc388c2ef" target="_top" xlink:title="Test for exception protocol. ">
<polygon fill="#ffffff" stroke="#000000" points="284.5,-123.168 284.5,-142.168 415.5,-142.168 415.5,-123.168 284.5,-123.168"/>
<text text-anchor="middle" x="350" y="-130.168" font-family="Helvetica,sans-Serif" font-size="10.00" fill="#000000">l4_msgtag_is_exception</text>
</a>
</g>
</g>
<!-- Node11&#45;&gt;Node24 -->
<g id="edge23" class="edge">
<title>Node11&#45;&gt;Node24</title>
<path fill="none" stroke="#191970" d="M178.834,-294.0425C188.713,-267.0081 220.5264,-189.8751 274,-151.668 276.7112,-149.7308 279.5995,-147.9904 282.6063,-146.4269"/>
<polygon fill="#191970" stroke="#191970" points="284.232,-149.5337 291.923,-142.2468 281.3665,-143.147 284.232,-149.5337"/>
</g>
<!-- Node25 -->
<g id="node18" class="node">
<title>Node25</title>
<g id="a_node18"><a xlink:href="group__l4__msgtag__api.html#ga047100a8ec6216015fbd1385f5443760" target="_top" xlink:title="Test for sigma0 protocol. ">
<polygon fill="#ffffff" stroke="#000000" points="290.5,-85.168 290.5,-104.168 409.5,-104.168 409.5,-85.168 290.5,-85.168"/>
<text text-anchor="middle" x="350" y="-92.168" font-family="Helvetica,sans-Serif" font-size="10.00" fill="#000000">l4_msgtag_is_sigma0</text>
</a>
</g>
</g>
<!-- Node11&#45;&gt;Node25 -->
<g id="edge25" class="edge">
<title>Node11&#45;&gt;Node25</title>
<path fill="none" stroke="#191970" d="M177.5463,-293.9844C184.6989,-262.6143 211.6148,-162.9661 274,-113.668 276.3009,-111.8497 278.7534,-110.203 281.3156,-108.7118"/>
<polygon fill="#191970" stroke="#191970" points="282.9815,-111.7925 290.389,-104.2176 279.8744,-105.5198 282.9815,-111.7925"/>
</g>
<!-- Node26 -->
<g id="node19" class="node">
<title>Node26</title>
<g id="a_node19"><a xlink:href="group__l4__msgtag__api.html#ga463384faf9cb37d3f65f24913e34d687" target="_top" xlink:title="Test for IO&#45;page&#45;fault protocol. ">
<polygon fill="#ffffff" stroke="#000000" points="288.5,-35.668 288.5,-65.668 411.5,-65.668 411.5,-35.668 288.5,-35.668"/>
<text text-anchor="start" x="296.5" y="-53.668" font-family="Helvetica,sans-Serif" font-size="10.00" fill="#000000">l4_msgtag_is_io_page</text>
<text text-anchor="middle" x="350" y="-42.668" font-family="Helvetica,sans-Serif" font-size="10.00" fill="#000000">_fault</text>
</a>
</g>
</g>
<!-- Node11&#45;&gt;Node26 -->
<g id="edge27" class="edge">
<title>Node11&#45;&gt;Node26</title>
<path fill="none" stroke="#191970" d="M176.8524,-293.8003C182.1801,-258.7226 204.9274,-138.7878 274,-75.668 275.7495,-74.0692 277.6034,-72.5726 279.5401,-71.1714"/>
<polygon fill="#191970" stroke="#191970" points="281.8391,-73.8642 288.4938,-65.62 278.1505,-67.9149 281.8391,-73.8642"/>
</g>
<!-- Node12&#45;&gt;Node13 -->
<g id="edge5" class="edge">
<title>Node12&#45;&gt;Node13</title>
<path fill="none" stroke="#191970" d="M372.3201,-370.2434C401.0256,-382.5581 451.0632,-404.0244 483.7318,-418.0393"/>
<polygon fill="#191970" stroke="#191970" points="482.7,-421.4051 493.2699,-422.1312 485.4598,-414.9721 482.7,-421.4051"/>
</g>
<!-- Node12&#45;&gt;Node14 -->
<g id="edge6" class="edge">
<title>Node12&#45;&gt;Node14</title>
<path fill="none" stroke="#191970" d="M382.6975,-365.4096C402.8097,-368.3262 429.2407,-372.1591 453.2235,-375.637"/>
<polygon fill="#191970" stroke="#191970" points="452.9276,-379.1306 463.3264,-377.102 453.9323,-372.203 452.9276,-379.1306"/>
</g>
<!-- Node12&#45;&gt;Node15 -->
<g id="edge7" class="edge">
<title>Node12&#45;&gt;Node15</title>
<path fill="none" stroke="#191970" d="M382.6975,-354.1482C404.1536,-349.87 432.8011,-344.1578 457.9956,-339.1341"/>
<polygon fill="#191970" stroke="#191970" points="458.6989,-342.5629 467.8214,-337.1749 457.33,-335.698 458.6989,-342.5629"/>
</g>
<!-- Node12&#45;&gt;Node16 -->
<g id="edge8" class="edge">
<title>Node12&#45;&gt;Node16</title>
<path fill="none" stroke="#191970" d="M370.6056,-351.0036C393.0464,-340.5013 430.0157,-323.2662 462,-308.668 469.4232,-305.2799 477.4429,-301.6606 484.9578,-298.287"/>
<polygon fill="#191970" stroke="#191970" points="486.4284,-301.4634 494.1238,-294.1811 483.5667,-295.0751 486.4284,-301.4634"/>
</g>
<!-- Node21&#45;&gt;Node17 -->
<g id="edge18" class="edge">
<title>Node21&#45;&gt;Node17</title>
<path fill="none" stroke="#191970" d="M404.649,-237.0489C412.096,-234.5942 419.429,-231.5189 426,-227.668 459.5279,-208.0194 488.3009,-172.0613 503.6426,-150.4641"/>
<polygon fill="#191970" stroke="#191970" points="506.5638,-152.3932 509.37,-142.1768 500.8052,-148.4134 506.5638,-152.3932"/>
</g>
<!-- Node22&#45;&gt;Node17 -->
<g id="edge20" class="edge">
<title>Node22&#45;&gt;Node17</title>
<path fill="none" stroke="#191970" d="M398.2091,-199.1079C407.6082,-196.5527 417.2537,-193.4282 426,-189.668 451.2207,-178.825 477.4069,-161.2905 494.8881,-148.5294"/>
<polygon fill="#191970" stroke="#191970" points="497.2542,-151.1313 503.1849,-142.3519 493.0737,-145.5167 497.2542,-151.1313"/>
</g>
<!-- Node23&#45;&gt;Node17 -->
<g id="edge22" class="edge">
<title>Node23&#45;&gt;Node17</title>
<path fill="none" stroke="#191970" d="M391.7626,-161.079C413.7005,-156.0419 440.7803,-149.8242 464.008,-144.4909"/>
<polygon fill="#191970" stroke="#191970" points="465.0746,-147.8372 474.0377,-142.188 463.508,-141.0147 465.0746,-147.8372"/>
</g>
<!-- Node24&#45;&gt;Node17 -->
<g id="edge24" class="edge">
<title>Node24&#45;&gt;Node17</title>
<path fill="none" stroke="#191970" d="M415.8855,-132.668C430.0364,-132.668 444.8744,-132.668 458.6478,-132.668"/>
<polygon fill="#191970" stroke="#191970" points="458.944,-136.1681 468.944,-132.668 458.9439,-129.1681 458.944,-136.1681"/>
</g>
<!-- Node25&#45;&gt;Node17 -->
<g id="edge26" class="edge">
<title>Node25&#45;&gt;Node17</title>
<path fill="none" stroke="#191970" d="M391.7626,-104.257C413.7005,-109.2941 440.7803,-115.5118 464.008,-120.845"/>
<polygon fill="#191970" stroke="#191970" points="463.508,-124.3213 474.0377,-123.1479 465.0746,-117.4988 463.508,-124.3213"/>
</g>
<!-- Node26&#45;&gt;Node17 -->
<g id="edge28" class="edge">
<title>Node26&#45;&gt;Node17</title>
<path fill="none" stroke="#191970" d="M401.7829,-65.7716C410.0199,-68.722 418.343,-72.0403 426,-75.668 450.6676,-87.3547 476.7631,-104.6083 494.3698,-117.0694"/>
<polygon fill="#191970" stroke="#191970" points="492.588,-120.099 502.7507,-123.0941 496.6739,-114.4152 492.588,-120.099"/>
</g>
</g>
</svg>
