<?xml version="1.0" encoding="UTF-8" standalone="no"?>
<!DOCTYPE svg PUBLIC "-//W3C//DTD SVG 1.1//EN"
 "http://www.w3.org/Graphics/SVG/1.1/DTD/svg11.dtd">
<!-- Generated by graphviz version 2.40.1 (20161225.0304)
 -->
<!-- Title: l4/sys/pager Pages: 1 -->
<svg width="904pt" height="767pt"
 viewBox="0.00 0.00 903.50 767.00" xmlns="http://www.w3.org/2000/svg" xmlns:xlink="http://www.w3.org/1999/xlink">
<g id="graph0" class="graph" transform="scale(1 1) rotate(0) translate(4 763)">
<title>l4/sys/pager</title>
<polygon fill="#ffffff" stroke="transparent" points="-4,4 -4,-763 899.5,-763 899.5,4 -4,4"/>
<!-- Node0 -->
<g id="node1" class="node">
<title>Node0</title>
<polygon fill="#bfbfbf" stroke="#000000" points="333.5,-739.5 333.5,-758.5 407.5,-758.5 407.5,-739.5 333.5,-739.5"/>
<text text-anchor="middle" x="370.5" y="-746.5" font-family="Helvetica,sans-Serif" font-size="10.00" fill="#000000">l4/sys/pager</text>
</g>
<!-- Node1 -->
<g id="node2" class="node">
<title>Node1</title>
<g id="a_node2"><a xlink:href="capability.html" target="_top" xlink:title="L4::Cap related definitions. ">
<polygon fill="#ffffff" stroke="#000000" points="389.5,-683.5 389.5,-702.5 479.5,-702.5 479.5,-683.5 389.5,-683.5"/>
<text text-anchor="middle" x="434.5" y="-690.5" font-family="Helvetica,sans-Serif" font-size="10.00" fill="#000000">l4/sys/capability</text>
</a>
</g>
</g>
<!-- Node0&#45;&gt;Node1 -->
<g id="edge1" class="edge">
<title>Node0&#45;&gt;Node1</title>
<path fill="none" stroke="#191970" d="M381.6479,-739.2455C391.0087,-731.0549 404.5858,-719.1749 415.6349,-709.5069"/>
<polygon fill="#191970" stroke="#191970" points="418.2588,-711.8618 423.4798,-702.6427 413.6492,-706.5937 418.2588,-711.8618"/>
</g>
<!-- Node6 -->
<g id="node7" class="node">
<title>Node6</title>
<g id="a_node7"><a xlink:href="l4_2sys_2types_8h.html" target="_top" xlink:title="Common L4 ABI Data Types. ">
<polygon fill="#ffffff" stroke="#000000" points="457.5,-168.5 457.5,-187.5 537.5,-187.5 537.5,-168.5 457.5,-168.5"/>
<text text-anchor="middle" x="497.5" y="-175.5" font-family="Helvetica,sans-Serif" font-size="10.00" fill="#000000">l4/sys/types.h</text>
</a>
</g>
</g>
<!-- Node0&#45;&gt;Node6 -->
<g id="edge60" class="edge">
<title>Node0&#45;&gt;Node6</title>
<path fill="none" stroke="#191970" d="M407.5039,-748.3921C521.1525,-745.5357 857.5,-729.2864 857.5,-637 857.5,-637 857.5,-637 857.5,-525 857.5,-446.061 819.5,-430.439 819.5,-351.5 819.5,-351.5 819.5,-351.5 819.5,-290 819.5,-239.3158 773.0296,-244.0969 726.5,-224 668.2337,-198.8339 595.6147,-187.2457 547.973,-182.0397"/>
<polygon fill="#191970" stroke="#191970" points="548.2129,-178.5458 537.9048,-180.9939 547.4896,-185.5084 548.2129,-178.5458"/>
</g>
<!-- Node21 -->
<g id="node22" class="node">
<title>Node21</title>
<g id="a_node22"><a xlink:href="ipc__iface.html" target="_top" xlink:title="Interface Definition Language. ">
<polygon fill="#ffffff" stroke="#000000" points="247,-515.5 247,-534.5 324,-534.5 324,-515.5 247,-515.5"/>
<text text-anchor="middle" x="285.5" y="-522.5" font-family="Helvetica,sans-Serif" font-size="10.00" fill="#000000">cxx/ipc_iface</text>
</a>
</g>
</g>
<!-- Node0&#45;&gt;Node21 -->
<g id="edge62" class="edge">
<title>Node0&#45;&gt;Node21</title>
<path fill="none" stroke="#191970" d="M362.5445,-739.2803C348.7741,-721.9124 320.6187,-683.9028 306.5,-647 293.3066,-612.5159 288.3636,-569.3738 286.5392,-544.7231"/>
<polygon fill="#191970" stroke="#191970" points="290.0173,-544.2669 285.8867,-534.5104 283.0315,-544.7133 290.0173,-544.2669"/>
</g>
<!-- Node22 -->
<g id="node23" class="node">
<title>Node22</title>
<g id="a_node23"><a xlink:href="ipc__types.html" target="_top" xlink:title="l4/sys/cxx/ipc_types">
<polygon fill="#ffffff" stroke="#000000" points="110.5,-459.5 110.5,-478.5 220.5,-478.5 220.5,-459.5 110.5,-459.5"/>
<text text-anchor="middle" x="165.5" y="-466.5" font-family="Helvetica,sans-Serif" font-size="10.00" fill="#000000">l4/sys/cxx/ipc_types</text>
</a>
</g>
</g>
<!-- Node0&#45;&gt;Node22 -->
<g id="edge61" class="edge">
<title>Node0&#45;&gt;Node22</title>
<path fill="none" stroke="#191970" d="M333.2039,-742.9471C280.4808,-732.0221 190.5,-703.6181 190.5,-637 190.5,-637 190.5,-637 190.5,-581 190.5,-547.7847 179.897,-510.3305 172.5013,-488.2459"/>
<polygon fill="#191970" stroke="#191970" points="175.7805,-487.0195 169.1888,-478.7249 169.1692,-489.3197 175.7805,-487.0195"/>
</g>
<!-- Node2 -->
<g id="node3" class="node">
<title>Node2</title>
<g id="a_node3"><a xlink:href="l4_2sys_2consts_8h.html" target="_top" xlink:title="Common constants. ">
<polygon fill="#ffffff" stroke="#000000" points="541.5,-112.5 541.5,-131.5 627.5,-131.5 627.5,-112.5 541.5,-112.5"/>
<text text-anchor="middle" x="584.5" y="-119.5" font-family="Helvetica,sans-Serif" font-size="10.00" fill="#000000">l4/sys/consts.h</text>
</a>
</g>
</g>
<!-- Node1&#45;&gt;Node2 -->
<g id="edge2" class="edge">
<title>Node1&#45;&gt;Node2</title>
<path fill="none" stroke="#191970" d="M479.6829,-688.7684C551.4123,-681.5931 687.7995,-665.9557 732.5,-647 777.1825,-628.0519 819.5,-629.5341 819.5,-581 819.5,-581 819.5,-581 819.5,-525 819.5,-446.061 857.5,-430.439 857.5,-351.5 857.5,-351.5 857.5,-351.5 857.5,-290 857.5,-234.7428 693.2251,-164.1214 619.5376,-135.2229"/>
<polygon fill="#191970" stroke="#191970" points="620.7719,-131.9476 610.1832,-131.5879 618.2365,-138.4724 620.7719,-131.9476"/>
</g>
<!-- Node1&#45;&gt;Node6 -->
<g id="edge6" class="edge">
<title>Node1&#45;&gt;Node6</title>
<path fill="none" stroke="#191970" d="M479.5085,-688.0525C573.3982,-676.4791 781.5,-643.7494 781.5,-581 781.5,-581 781.5,-581 781.5,-290 781.5,-240.3163 629.1807,-203.3347 547.644,-187.0975"/>
<polygon fill="#191970" stroke="#191970" points="548.0741,-183.6154 537.5879,-185.1286 546.729,-190.4849 548.0741,-183.6154"/>
</g>
<!-- Node9 -->
<g id="node10" class="node">
<title>Node9</title>
<g id="a_node10"><a xlink:href="kobject_source.html" target="_top" xlink:title="l4/sys/kobject">
<polygon fill="#ffffff" stroke="#000000" points="342.5,-515.5 342.5,-534.5 422.5,-534.5 422.5,-515.5 342.5,-515.5"/>
<text text-anchor="middle" x="382.5" y="-522.5" font-family="Helvetica,sans-Serif" font-size="10.00" fill="#000000">l4/sys/kobject</text>
</a>
</g>
</g>
<!-- Node1&#45;&gt;Node9 -->
<g id="edge14" class="edge">
<title>Node1&#45;&gt;Node9</title>
<path fill="none" stroke="#191970" d="M431.5553,-683.4862C423.2997,-656.8144 399.806,-580.9117 388.5961,-544.695"/>
<polygon fill="#191970" stroke="#191970" points="391.8424,-543.3458 385.542,-534.8279 385.1554,-545.4157 391.8424,-543.3458"/>
</g>
<!-- Node19 -->
<g id="node20" class="node">
<title>Node19</title>
<g id="a_node20"><a xlink:href="l4_2sys_2task_8h.html" target="_top" xlink:title="Common task related definitions. ">
<polygon fill="#ffffff" stroke="#000000" points="349.5,-342 349.5,-361 423.5,-361 423.5,-342 349.5,-342"/>
<text text-anchor="middle" x="386.5" y="-349" font-family="Helvetica,sans-Serif" font-size="10.00" fill="#000000">l4/sys/task.h</text>
</a>
</g>
</g>
<!-- Node1&#45;&gt;Node19 -->
<g id="edge43" class="edge">
<title>Node1&#45;&gt;Node19</title>
<path fill="none" stroke="#191970" d="M437.4511,-683.2168C443.0144,-663.8801 454.5,-619.3189 454.5,-581 454.5,-581 454.5,-581 454.5,-469 454.5,-428.6646 424.1111,-389.7476 403.9634,-368.3783"/>
<polygon fill="#191970" stroke="#191970" points="406.3217,-365.7839 396.8277,-361.0811 401.3168,-370.6779 406.3217,-365.7839"/>
</g>
<!-- Node20 -->
<g id="node21" class="node">
<title>Node20</title>
<g id="a_node21"><a xlink:href="sys_2meta.html" target="_top" xlink:title="Meta interface for getting dynamic type information about objects behind capabilities. ">
<polygon fill="#ffffff" stroke="#000000" points="315.5,-627.5 315.5,-646.5 385.5,-646.5 385.5,-627.5 315.5,-627.5"/>
<text text-anchor="middle" x="350.5" y="-634.5" font-family="Helvetica,sans-Serif" font-size="10.00" fill="#000000">l4/sys/meta</text>
</a>
</g>
</g>
<!-- Node1&#45;&gt;Node20 -->
<g id="edge44" class="edge">
<title>Node1&#45;&gt;Node20</title>
<path fill="none" stroke="#191970" d="M419.8683,-683.2455C407.1006,-674.7337 388.3562,-662.2375 373.5701,-652.3801"/>
<polygon fill="#191970" stroke="#191970" points="375.226,-649.2775 364.964,-646.6427 371.3431,-655.1019 375.226,-649.2775"/>
</g>
<!-- Node3 -->
<g id="node4" class="node">
<title>Node3</title>
<g id="a_node4"><a xlink:href="compiler_8h.html" target="_top" xlink:title="L4 compiler related defines. ">
<polygon fill="#ffffff" stroke="#000000" points="753,-56.5 753,-75.5 848,-75.5 848,-56.5 753,-56.5"/>
<text text-anchor="middle" x="800.5" y="-63.5" font-family="Helvetica,sans-Serif" font-size="10.00" fill="#000000">l4/sys/compiler.h</text>
</a>
</g>
</g>
<!-- Node2&#45;&gt;Node3 -->
<g id="edge3" class="edge">
<title>Node2&#45;&gt;Node3</title>
<path fill="none" stroke="#191970" d="M621.6317,-112.3733C658.3267,-102.8598 714.5639,-88.2797 754.1651,-78.0127"/>
<polygon fill="#191970" stroke="#191970" points="755.0512,-81.3988 763.8528,-75.5011 753.2944,-74.6228 755.0512,-81.3988"/>
</g>
<!-- Node5 -->
<g id="node6" class="node">
<title>Node5</title>
<g id="a_node6"><a xlink:href="l4_2sys_2l4int_8h.html" target="_top" xlink:title="Fixed sized integer types, generic version. ">
<polygon fill="#ffffff" stroke="#000000" points="396.5,-56.5 396.5,-75.5 470.5,-75.5 470.5,-56.5 396.5,-56.5"/>
<text text-anchor="middle" x="433.5" y="-63.5" font-family="Helvetica,sans-Serif" font-size="10.00" fill="#000000">l4/sys/l4int.h</text>
</a>
</g>
</g>
<!-- Node2&#45;&gt;Node5 -->
<g id="edge5" class="edge">
<title>Node2&#45;&gt;Node5</title>
<path fill="none" stroke="#191970" d="M558.5422,-112.3733C533.7593,-103.1822 496.2254,-89.2624 468.746,-79.0713"/>
<polygon fill="#191970" stroke="#191970" points="469.7121,-75.6968 459.1191,-75.5011 467.2781,-82.26 469.7121,-75.6968"/>
</g>
<!-- Node4 -->
<g id="node5" class="node">
<title>Node4</title>
<polygon fill="#ffffff" stroke="#bfbfbf" points="756,-.5 756,-19.5 845,-19.5 845,-.5 756,-.5"/>
<text text-anchor="middle" x="800.5" y="-7.5" font-family="Helvetica,sans-Serif" font-size="10.00" fill="#000000">l4/sys/linkage.h</text>
</g>
<!-- Node3&#45;&gt;Node4 -->
<g id="edge4" class="edge">
<title>Node3&#45;&gt;Node4</title>
<path fill="none" stroke="#191970" d="M800.5,-56.2455C800.5,-48.9382 800.5,-38.6944 800.5,-29.7046"/>
<polygon fill="#191970" stroke="#191970" points="804.0001,-29.6426 800.5,-19.6427 797.0001,-29.6427 804.0001,-29.6426"/>
</g>
<!-- Node6&#45;&gt;Node2 -->
<g id="edge9" class="edge">
<title>Node6&#45;&gt;Node2</title>
<path fill="none" stroke="#191970" d="M512.6542,-168.2455C526.0027,-159.6534 545.6586,-147.0014 561.0383,-137.1018"/>
<polygon fill="#191970" stroke="#191970" points="563.0051,-139.9982 569.5194,-131.6427 559.2164,-134.1121 563.0051,-139.9982"/>
</g>
<!-- Node6&#45;&gt;Node3 -->
<g id="edge8" class="edge">
<title>Node6&#45;&gt;Node3</title>
<path fill="none" stroke="#191970" d="M537.5988,-175.1863C602.4785,-169.9604 726.8134,-156.9491 762.5,-132 778.5241,-120.7973 788.7152,-100.5149 794.4654,-85.3804"/>
<polygon fill="#191970" stroke="#191970" points="797.7834,-86.4946 797.7539,-75.8998 791.1699,-84.2006 797.7834,-86.4946"/>
</g>
<!-- Node6&#45;&gt;Node5 -->
<g id="edge7" class="edge">
<title>Node6&#45;&gt;Node5</title>
<path fill="none" stroke="#191970" d="M461.9402,-168.3459C443.7535,-161.4075 423.2363,-150.0179 412.5,-132 403.5982,-117.0608 411.4567,-97.9367 419.9795,-84.1241"/>
<polygon fill="#191970" stroke="#191970" points="423.0898,-85.7723 425.7881,-75.5268 417.2896,-81.8534 423.0898,-85.7723"/>
</g>
<!-- Node7 -->
<g id="node8" class="node">
<title>Node7</title>
<g id="a_node8"><a xlink:href="____l4__fpage_8h_source.html" target="_top" xlink:title="l4/sys/__l4_fpage.h">
<polygon fill="#ffffff" stroke="#000000" points="645.5,-112.5 645.5,-131.5 753.5,-131.5 753.5,-112.5 645.5,-112.5"/>
<text text-anchor="middle" x="699.5" y="-119.5" font-family="Helvetica,sans-Serif" font-size="10.00" fill="#000000">l4/sys/__l4_fpage.h</text>
</a>
</g>
</g>
<!-- Node6&#45;&gt;Node7 -->
<g id="edge10" class="edge">
<title>Node6&#45;&gt;Node7</title>
<path fill="none" stroke="#191970" d="M532.225,-168.3733C566.2508,-158.9404 618.2437,-144.5265 655.2234,-134.2747"/>
<polygon fill="#191970" stroke="#191970" points="656.5266,-137.5455 665.2281,-131.5011 654.6565,-130.7999 656.5266,-137.5455"/>
</g>
<!-- Node8 -->
<g id="node9" class="node">
<title>Node8</title>
<g id="a_node9"><a xlink:href="____timeout_8h_source.html" target="_top" xlink:title="l4/sys/__timeout.h">
<polygon fill="#ffffff" stroke="#000000" points="422,-112.5 422,-131.5 523,-131.5 523,-112.5 422,-112.5"/>
<text text-anchor="middle" x="472.5" y="-119.5" font-family="Helvetica,sans-Serif" font-size="10.00" fill="#000000">l4/sys/__timeout.h</text>
</a>
</g>
</g>
<!-- Node6&#45;&gt;Node8 -->
<g id="edge12" class="edge">
<title>Node6&#45;&gt;Node8</title>
<path fill="none" stroke="#191970" d="M493.1453,-168.2455C489.7756,-160.6973 485.007,-150.0158 480.9017,-140.8197"/>
<polygon fill="#191970" stroke="#191970" points="484.0773,-139.3473 476.8048,-131.6427 477.6853,-142.2009 484.0773,-139.3473"/>
</g>
<!-- Node7&#45;&gt;Node3 -->
<g id="edge11" class="edge">
<title>Node7&#45;&gt;Node3</title>
<path fill="none" stroke="#191970" d="M717.0929,-112.2455C732.879,-103.4928 756.2639,-90.527 774.2587,-80.5496"/>
<polygon fill="#191970" stroke="#191970" points="776.0603,-83.5528 783.1087,-75.6427 772.6659,-77.4308 776.0603,-83.5528"/>
</g>
<!-- Node8&#45;&gt;Node5 -->
<g id="edge13" class="edge">
<title>Node8&#45;&gt;Node5</title>
<path fill="none" stroke="#191970" d="M465.7067,-112.2455C460.2822,-104.4564 452.5339,-93.3308 445.9967,-83.9439"/>
<polygon fill="#191970" stroke="#191970" points="448.8025,-81.8485 440.2154,-75.6427 443.0583,-85.849 448.8025,-81.8485"/>
</g>
<!-- Node9&#45;&gt;Node6 -->
<g id="edge29" class="edge">
<title>Node9&#45;&gt;Node6</title>
<path fill="none" stroke="#191970" d="M381.4886,-515.2795C379.1134,-494.3098 372.3073,-443.4497 358.5,-403 352.7212,-386.0706 344.6099,-384.41 340.5,-367 325.5142,-303.5189 328.9894,-271.6784 373.5,-224 392.7967,-203.33 422.2239,-191.9017 447.5691,-185.607"/>
<polygon fill="#191970" stroke="#191970" points="448.4418,-188.9979 457.4132,-183.362 446.8853,-182.1731 448.4418,-188.9979"/>
</g>
<!-- Node10 -->
<g id="node11" class="node">
<title>Node10</title>
<g id="a_node11"><a xlink:href="kernel__object_8h.html" target="_top" xlink:title="Kernel object system calls. ">
<polygon fill="#ffffff" stroke="#000000" points="500.5,-403.5 500.5,-422.5 588.5,-422.5 588.5,-403.5 500.5,-403.5"/>
<text text-anchor="middle" x="544.5" y="-410.5" font-family="Helvetica,sans-Serif" font-size="10.00" fill="#000000">kernel_object.h</text>
</a>
</g>
</g>
<!-- Node9&#45;&gt;Node10 -->
<g id="edge15" class="edge">
<title>Node9&#45;&gt;Node10</title>
<path fill="none" stroke="#191970" d="M396.312,-515.4509C424.4077,-496.0268 488.4215,-451.7703 522.3848,-428.2895"/>
<polygon fill="#191970" stroke="#191970" points="524.4877,-431.0907 530.7229,-422.5249 520.5069,-425.3328 524.4877,-431.0907"/>
</g>
<!-- Node15 -->
<g id="node16" class="node">
<title>Node15</title>
<g id="a_node16"><a xlink:href="____typeinfo_8h.html" target="_top" xlink:title="Type information handling. ">
<polygon fill="#ffffff" stroke="#000000" points="276.5,-459.5 276.5,-478.5 350.5,-478.5 350.5,-459.5 276.5,-459.5"/>
<text text-anchor="middle" x="313.5" y="-466.5" font-family="Helvetica,sans-Serif" font-size="10.00" fill="#000000">__typeinfo.h</text>
</a>
</g>
</g>
<!-- Node9&#45;&gt;Node15 -->
<g id="edge30" class="edge">
<title>Node9&#45;&gt;Node15</title>
<path fill="none" stroke="#191970" d="M370.4811,-515.2455C360.2902,-506.9746 345.4638,-494.9416 333.4893,-485.2232"/>
<polygon fill="#191970" stroke="#191970" points="335.3514,-482.2268 325.3812,-478.6427 330.9402,-487.662 335.3514,-482.2268"/>
</g>
<!-- Node10&#45;&gt;Node3 -->
<g id="edge17" class="edge">
<title>Node10&#45;&gt;Node3</title>
<path fill="none" stroke="#191970" d="M588.599,-410.6042C682.8703,-402.8628 895.5,-370.2952 895.5,-234 895.5,-234 895.5,-234 895.5,-178 895.5,-134.9765 854.2265,-100.0102 826.0891,-81.1715"/>
<polygon fill="#191970" stroke="#191970" points="827.787,-78.102 817.4841,-75.632 823.9979,-83.9879 827.787,-78.102"/>
</g>
<!-- Node10&#45;&gt;Node6 -->
<g id="edge16" class="edge">
<title>Node10&#45;&gt;Node6</title>
<path fill="none" stroke="#191970" d="M588.5755,-404.5972C625.7615,-396.5062 674.7643,-383.1378 686.5,-367 694.6033,-355.8571 690.8569,-349.0707 686.5,-336 666.8236,-276.9708 651.2672,-262.6441 602.5,-224 584.1356,-209.4477 560.4544,-198.5512 540.2311,-191.0259"/>
<polygon fill="#191970" stroke="#191970" points="541.2141,-187.6607 530.6195,-187.6012 538.8646,-194.2546 541.2141,-187.6607"/>
</g>
<!-- Node11 -->
<g id="node12" class="node">
<title>Node11</title>
<g id="a_node12"><a xlink:href="l4_2sys_2utcb_8h.html" target="_top" xlink:title="UTCB definitions. ">
<polygon fill="#ffffff" stroke="#000000" points="395.5,-224.5 395.5,-243.5 469.5,-243.5 469.5,-224.5 395.5,-224.5"/>
<text text-anchor="middle" x="432.5" y="-231.5" font-family="Helvetica,sans-Serif" font-size="10.00" fill="#000000">l4/sys/utcb.h</text>
</a>
</g>
</g>
<!-- Node10&#45;&gt;Node11 -->
<g id="edge18" class="edge">
<title>Node10&#45;&gt;Node11</title>
<path fill="none" stroke="#191970" d="M534.7437,-403.2795C516.6081,-384.7246 477.4662,-342.3241 454.5,-300 446.5001,-285.2571 440.7055,-267.0869 437.0778,-253.5464"/>
<polygon fill="#191970" stroke="#191970" points="440.4681,-252.6765 434.6323,-243.8338 433.68,-254.3857 440.4681,-252.6765"/>
</g>
<!-- Node12 -->
<g id="node13" class="node">
<title>Node12</title>
<g id="a_node13"><a xlink:href="____kernel__object__impl_8h.html" target="_top" xlink:title="Low&#45;level kernel debugger functions. ">
<polygon fill="#ffffff" stroke="#000000" points="555.5,-336.5 555.5,-366.5 677.5,-366.5 677.5,-336.5 555.5,-336.5"/>
<text text-anchor="start" x="563.5" y="-354.5" font-family="Helvetica,sans-Serif" font-size="10.00" fill="#000000">l4/sys/__kernel_object</text>
<text text-anchor="middle" x="616.5" y="-343.5" font-family="Helvetica,sans-Serif" font-size="10.00" fill="#000000">_impl.h</text>
</a>
</g>
</g>
<!-- Node10&#45;&gt;Node12 -->
<g id="edge22" class="edge">
<title>Node10&#45;&gt;Node12</title>
<path fill="none" stroke="#191970" d="M555.75,-403.3906C565.2236,-395.2986 579.1294,-383.4207 591.2468,-373.0705"/>
<polygon fill="#191970" stroke="#191970" points="593.5563,-375.7008 598.8868,-366.5446 589.0098,-370.3782 593.5563,-375.7008"/>
</g>
<!-- Node13 -->
<g id="node14" class="node">
<title>Node13</title>
<g id="a_node14"><a xlink:href="l4_2sys_2ipc_8h.html" target="_top" xlink:title="Common IPC interface. ">
<polygon fill="#ffffff" stroke="#000000" points="463.5,-280.5 463.5,-299.5 531.5,-299.5 531.5,-280.5 463.5,-280.5"/>
<text text-anchor="middle" x="497.5" y="-287.5" font-family="Helvetica,sans-Serif" font-size="10.00" fill="#000000">l4/sys/ipc.h</text>
</a>
</g>
</g>
<!-- Node10&#45;&gt;Node13 -->
<g id="edge28" class="edge">
<title>Node10&#45;&gt;Node13</title>
<path fill="none" stroke="#191970" d="M540.812,-403.3484C533.0556,-383.0499 514.9334,-335.6235 504.7594,-308.9981"/>
<polygon fill="#191970" stroke="#191970" points="508.0098,-307.6987 501.1709,-299.6068 501.4709,-310.1974 508.0098,-307.6987"/>
</g>
<!-- Node11&#45;&gt;Node3 -->
<g id="edge20" class="edge">
<title>Node11&#45;&gt;Node3</title>
<path fill="none" stroke="#191970" d="M469.6512,-228.2131C551.3693,-214.7368 742.9201,-178.8135 786.5,-132 797.948,-119.7026 800.9624,-100.4658 801.4,-85.9265"/>
<polygon fill="#191970" stroke="#191970" points="804.9,-85.8916 801.3294,-75.9166 797.9002,-85.9411 804.9,-85.8916"/>
</g>
<!-- Node11&#45;&gt;Node5 -->
<g id="edge21" class="edge">
<title>Node11&#45;&gt;Node5</title>
<path fill="none" stroke="#191970" d="M427.1844,-224.4193C416.3966,-203.721 393.9028,-153.357 405.5,-112 408.2878,-102.0584 413.8812,-92.1336 419.3407,-84.0613"/>
<polygon fill="#191970" stroke="#191970" points="422.2676,-85.9866 425.2911,-75.8323 416.5952,-81.8849 422.2676,-85.9866"/>
</g>
<!-- Node11&#45;&gt;Node6 -->
<g id="edge19" class="edge">
<title>Node11&#45;&gt;Node6</title>
<path fill="none" stroke="#191970" d="M443.8221,-224.2455C453.4223,-215.9746 467.3892,-203.9416 478.6695,-194.2232"/>
<polygon fill="#191970" stroke="#191970" points="481.016,-196.8214 486.3076,-187.6427 476.447,-191.5182 481.016,-196.8214"/>
</g>
<!-- Node12&#45;&gt;Node13 -->
<g id="edge23" class="edge">
<title>Node12&#45;&gt;Node13</title>
<path fill="none" stroke="#191970" d="M587.3893,-336.4554C568.3176,-326.599 543.5518,-313.7999 524.8461,-304.1327"/>
<polygon fill="#191970" stroke="#191970" points="526.4315,-301.0122 515.9408,-299.5303 523.2176,-307.2309 526.4315,-301.0122"/>
</g>
<!-- Node13&#45;&gt;Node6 -->
<g id="edge24" class="edge">
<title>Node13&#45;&gt;Node6</title>
<path fill="none" stroke="#191970" d="M497.5,-280.4509C497.5,-262.184 497.5,-221.9553 497.5,-197.6976"/>
<polygon fill="#191970" stroke="#191970" points="501.0001,-197.5249 497.5,-187.5249 494.0001,-197.5249 501.0001,-197.5249"/>
</g>
<!-- Node13&#45;&gt;Node11 -->
<g id="edge25" class="edge">
<title>Node13&#45;&gt;Node11</title>
<path fill="none" stroke="#191970" d="M486.1779,-280.2455C476.5777,-271.9746 462.6108,-259.9416 451.3305,-250.2232"/>
<polygon fill="#191970" stroke="#191970" points="453.553,-247.5182 443.6924,-243.6427 448.984,-252.8214 453.553,-247.5182"/>
</g>
<!-- Node14 -->
<g id="node15" class="node">
<title>Node14</title>
<g id="a_node15"><a xlink:href="err_8h.html" target="_top" xlink:title="Error codes. ">
<polygon fill="#ffffff" stroke="#000000" points="525.5,-224.5 525.5,-243.5 593.5,-243.5 593.5,-224.5 525.5,-224.5"/>
<text text-anchor="middle" x="559.5" y="-231.5" font-family="Helvetica,sans-Serif" font-size="10.00" fill="#000000">l4/sys/err.h</text>
</a>
</g>
</g>
<!-- Node13&#45;&gt;Node14 -->
<g id="edge26" class="edge">
<title>Node13&#45;&gt;Node14</title>
<path fill="none" stroke="#191970" d="M508.2996,-280.2455C517.3678,-272.0549 530.5206,-260.1749 541.2245,-250.5069"/>
<polygon fill="#191970" stroke="#191970" points="543.7491,-252.9429 548.8242,-243.6427 539.0571,-247.7482 543.7491,-252.9429"/>
</g>
<!-- Node14&#45;&gt;Node3 -->
<g id="edge27" class="edge">
<title>Node14&#45;&gt;Node3</title>
<path fill="none" stroke="#191970" d="M593.7411,-230.713C663.7793,-223.6437 818.1361,-206.1583 833.5,-188 855.3179,-162.214 843.8412,-144.1558 833.5,-112 830.1054,-101.4445 823.2942,-91.2592 816.7369,-83.1676"/>
<polygon fill="#191970" stroke="#191970" points="819.3431,-80.8307 810.1492,-75.5654 814.053,-85.4149 819.3431,-80.8307"/>
</g>
<!-- Node16 -->
<g id="node17" class="node">
<title>Node16</title>
<g id="a_node17"><a xlink:href="types.html" target="_top" xlink:title="cxx/types">
<polygon fill="#ffffff" stroke="#000000" points="64,-342 64,-361 125,-361 125,-342 64,-342"/>
<text text-anchor="middle" x="94.5" y="-349" font-family="Helvetica,sans-Serif" font-size="10.00" fill="#000000">cxx/types</text>
</a>
</g>
</g>
<!-- Node15&#45;&gt;Node16 -->
<g id="edge31" class="edge">
<title>Node15&#45;&gt;Node16</title>
<path fill="none" stroke="#191970" d="M300.9926,-459.4352C282.8227,-445.8098 247.7657,-420.5242 215.5,-403 187.9925,-388.0601 155.2413,-374.3506 130.7538,-364.839"/>
<polygon fill="#191970" stroke="#191970" points="131.7286,-361.4644 121.1382,-361.1543 129.2237,-368.0009 131.7286,-361.4644"/>
</g>
<!-- Node17 -->
<g id="node18" class="node">
<title>Node17</title>
<g id="a_node18"><a xlink:href="ipc__basics_source.html" target="_top" xlink:title="cxx/ipc_basics">
<polygon fill="#ffffff" stroke="#000000" points="122.5,-403.5 122.5,-422.5 206.5,-422.5 206.5,-403.5 122.5,-403.5"/>
<text text-anchor="middle" x="164.5" y="-410.5" font-family="Helvetica,sans-Serif" font-size="10.00" fill="#000000">cxx/ipc_basics</text>
</a>
</g>
</g>
<!-- Node15&#45;&gt;Node17 -->
<g id="edge32" class="edge">
<title>Node15&#45;&gt;Node17</title>
<path fill="none" stroke="#191970" d="M287.886,-459.3733C263.4313,-450.1822 226.3946,-436.2624 199.2791,-426.0713"/>
<polygon fill="#191970" stroke="#191970" points="200.3719,-422.7431 189.7798,-422.5011 197.9091,-429.2956 200.3719,-422.7431"/>
</g>
<!-- Node18 -->
<g id="node19" class="node">
<title>Node18</title>
<g id="a_node19"><a xlink:href="capability_8h_source.html" target="_top" xlink:title="cxx/capability.h">
<polygon fill="#ffffff" stroke="#000000" points="263,-403.5 263,-422.5 350,-422.5 350,-403.5 263,-403.5"/>
<text text-anchor="middle" x="306.5" y="-410.5" font-family="Helvetica,sans-Serif" font-size="10.00" fill="#000000">cxx/capability.h</text>
</a>
</g>
</g>
<!-- Node15&#45;&gt;Node18 -->
<g id="edge36" class="edge">
<title>Node15&#45;&gt;Node18</title>
<path fill="none" stroke="#191970" d="M312.2807,-459.2455C311.3673,-451.9382 310.0868,-441.6944 308.9631,-432.7046"/>
<polygon fill="#191970" stroke="#191970" points="312.4187,-432.1313 307.7053,-422.6427 305.4728,-432.9996 312.4187,-432.1313"/>
</g>
<!-- Node17&#45;&gt;Node11 -->
<g id="edge34" class="edge">
<title>Node17&#45;&gt;Node11</title>
<path fill="none" stroke="#191970" d="M178.9088,-403.3762C222.8976,-373.9956 355.7199,-285.2823 409.5104,-249.355"/>
<polygon fill="#191970" stroke="#191970" points="411.6481,-252.1361 418.0199,-243.6714 407.7602,-246.3151 411.6481,-252.1361"/>
</g>
<!-- Node17&#45;&gt;Node14 -->
<g id="edge35" class="edge">
<title>Node17&#45;&gt;Node14</title>
<path fill="none" stroke="#191970" d="M206.5368,-407.7868C271.2093,-399.4298 391.8929,-382.4064 432.5,-367 485.3131,-346.9626 506.409,-345.0391 540.5,-300 550.6074,-286.6467 555.3432,-268.0791 557.5593,-254.0383"/>
<polygon fill="#191970" stroke="#191970" points="561.0545,-254.2975 558.8507,-243.9344 554.111,-253.41 561.0545,-254.2975"/>
</g>
<!-- Node17&#45;&gt;Node16 -->
<g id="edge33" class="edge">
<title>Node17&#45;&gt;Node16</title>
<path fill="none" stroke="#191970" d="M153.5625,-403.3906C142.838,-393.9683 126.2713,-379.4134 113.4099,-368.1137"/>
<polygon fill="#191970" stroke="#191970" points="115.4143,-365.2158 105.5917,-361.2449 110.7941,-370.4745 115.4143,-365.2158"/>
</g>
<!-- Node18&#45;&gt;Node2 -->
<g id="edge37" class="edge">
<title>Node18&#45;&gt;Node2</title>
<path fill="none" stroke="#191970" d="M290.5939,-403.364C262.6089,-385.056 207.5,-342.3567 207.5,-290 207.5,-290 207.5,-290 207.5,-234 207.5,-200.6305 427.3424,-152.9139 531.2691,-132.221"/>
<polygon fill="#191970" stroke="#191970" points="532.123,-135.62 541.2533,-130.2452 530.7641,-128.7531 532.123,-135.62"/>
</g>
<!-- Node18&#45;&gt;Node6 -->
<g id="edge38" class="edge">
<title>Node18&#45;&gt;Node6</title>
<path fill="none" stroke="#191970" d="M295.3498,-403.3293C286.4329,-394.8007 274.6079,-381.5 269.5,-367 248.3834,-307.0551 229.2479,-273.1841 269.5,-224 291.5002,-197.1178 386.9086,-185.592 447.1193,-180.9234"/>
<polygon fill="#191970" stroke="#191970" points="447.4792,-184.4065 457.1947,-180.1804 446.9643,-177.4254 447.4792,-184.4065"/>
</g>
<!-- Node18&#45;&gt;Node19 -->
<g id="edge39" class="edge">
<title>Node18&#45;&gt;Node19</title>
<path fill="none" stroke="#191970" d="M319,-403.3906C331.5636,-393.7324 351.1423,-378.6812 365.9849,-367.271"/>
<polygon fill="#191970" stroke="#191970" points="368.2928,-369.9115 374.0878,-361.0419 364.0265,-364.3618 368.2928,-369.9115"/>
</g>
<!-- Node19&#45;&gt;Node6 -->
<g id="edge40" class="edge">
<title>Node19&#45;&gt;Node6</title>
<path fill="none" stroke="#191970" d="M383.1845,-341.8371C376.0213,-319.0693 361.6617,-261.1801 386.5,-224 400.1774,-203.5265 424.8391,-192.1535 447.4485,-185.8415"/>
<polygon fill="#191970" stroke="#191970" points="448.4662,-189.1946 457.3088,-183.3586 446.7569,-182.4064 448.4662,-189.1946"/>
</g>
<!-- Node19&#45;&gt;Node11 -->
<g id="edge41" class="edge">
<title>Node19&#45;&gt;Node11</title>
<path fill="none" stroke="#191970" d="M390.2644,-341.8845C397.8457,-322.5192 415.0766,-278.5055 425.0288,-253.084"/>
<polygon fill="#191970" stroke="#191970" points="428.2972,-254.3362 428.6836,-243.7484 421.7789,-251.7843 428.2972,-254.3362"/>
</g>
<!-- Node19&#45;&gt;Node13 -->
<g id="edge42" class="edge">
<title>Node19&#45;&gt;Node13</title>
<path fill="none" stroke="#191970" d="M403.8438,-341.8906C421.9273,-331.8713 450.4859,-316.0483 471.3165,-304.5071"/>
<polygon fill="#191970" stroke="#191970" points="473.2271,-307.4498 480.278,-299.5419 469.8346,-301.3268 473.2271,-307.4498"/>
</g>
<!-- Node20&#45;&gt;Node9 -->
<g id="edge45" class="edge">
<title>Node20&#45;&gt;Node9</title>
<path fill="none" stroke="#191970" d="M353.2283,-627.4509C358.4711,-609.1013 370.0455,-568.5908 376.9659,-544.3693"/>
<polygon fill="#191970" stroke="#191970" points="380.3967,-545.1017 379.7786,-534.5249 373.666,-543.1786 380.3967,-545.1017"/>
</g>
<!-- Node20&#45;&gt;Node21 -->
<g id="edge46" class="edge">
<title>Node20&#45;&gt;Node21</title>
<path fill="none" stroke="#191970" d="M344.9581,-627.4509C334.1649,-608.8533 310.1605,-567.4919 296.1765,-543.3964"/>
<polygon fill="#191970" stroke="#191970" points="299.0745,-541.417 291.0278,-534.5249 293.0202,-544.9307 299.0745,-541.417"/>
</g>
<!-- Node23 -->
<g id="node24" class="node">
<title>Node23</title>
<g id="a_node24"><a xlink:href="ipc__string_source.html" target="_top" xlink:title="cxx/ipc_string">
<polygon fill="#ffffff" stroke="#000000" points="0,-571.5 0,-590.5 81,-590.5 81,-571.5 0,-571.5"/>
<text text-anchor="middle" x="40.5" y="-578.5" font-family="Helvetica,sans-Serif" font-size="10.00" fill="#000000">cxx/ipc_string</text>
</a>
</g>
</g>
<!-- Node20&#45;&gt;Node23 -->
<g id="edge53" class="edge">
<title>Node20&#45;&gt;Node23</title>
<path fill="none" stroke="#191970" d="M315.2409,-630.6306C260.3725,-620.7189 154.3201,-601.561 91.2339,-590.1648"/>
<polygon fill="#191970" stroke="#191970" points="91.5765,-586.6701 81.1135,-588.3366 90.332,-593.5587 91.5765,-586.6701"/>
</g>
<!-- Node21&#45;&gt;Node15 -->
<g id="edge52" class="edge">
<title>Node21&#45;&gt;Node15</title>
<path fill="none" stroke="#191970" d="M290.3772,-515.2455C294.1513,-507.6973 299.4921,-497.0158 304.0901,-487.8197"/>
<polygon fill="#191970" stroke="#191970" points="307.337,-489.1522 308.6787,-478.6427 301.076,-486.0217 307.337,-489.1522"/>
</g>
<!-- Node21&#45;&gt;Node17 -->
<g id="edge47" class="edge">
<title>Node21&#45;&gt;Node17</title>
<path fill="none" stroke="#191970" d="M278.5653,-515.384C268.5938,-501.9174 249.2252,-477.0662 229.5,-459 217.0304,-447.5792 201.6383,-436.571 188.9629,-428.1882"/>
<polygon fill="#191970" stroke="#191970" points="190.5914,-425.0732 180.294,-422.5799 186.789,-430.9505 190.5914,-425.0732"/>
</g>
<!-- Node21&#45;&gt;Node22 -->
<g id="edge48" class="edge">
<title>Node21&#45;&gt;Node22</title>
<path fill="none" stroke="#191970" d="M264.8713,-515.3733C245.6081,-506.3838 216.6514,-492.8706 194.9581,-482.7471"/>
<polygon fill="#191970" stroke="#191970" points="196.4015,-479.5584 185.8595,-478.5011 193.4413,-485.9017 196.4015,-479.5584"/>
</g>
<!-- Node22&#45;&gt;Node16 -->
<g id="edge50" class="edge">
<title>Node22&#45;&gt;Node16</title>
<path fill="none" stroke="#191970" d="M150.5481,-459.4511C138.7873,-451.1814 122.8717,-438.1786 113.5,-423 103.8212,-407.3242 99.0237,-386.7681 96.676,-371.7219"/>
<polygon fill="#191970" stroke="#191970" points="100.1,-370.9163 95.318,-361.462 93.1605,-371.8349 100.1,-370.9163"/>
</g>
<!-- Node22&#45;&gt;Node17 -->
<g id="edge51" class="edge">
<title>Node22&#45;&gt;Node17</title>
<path fill="none" stroke="#191970" d="M165.3258,-459.2455C165.1953,-451.9382 165.0124,-441.6944 164.8519,-432.7046"/>
<polygon fill="#191970" stroke="#191970" points="168.3503,-432.5786 164.6722,-422.6427 161.3514,-432.7036 168.3503,-432.5786"/>
</g>
<!-- Node22&#45;&gt;Node18 -->
<g id="edge49" class="edge">
<title>Node22&#45;&gt;Node18</title>
<path fill="none" stroke="#191970" d="M189.7388,-459.3733C212.7789,-450.2226 247.6214,-436.3844 273.2501,-426.2057"/>
<polygon fill="#191970" stroke="#191970" points="274.5756,-429.4452 282.5775,-422.5011 271.9918,-422.9395 274.5756,-429.4452"/>
</g>
<!-- Node23&#45;&gt;Node16 -->
<g id="edge54" class="edge">
<title>Node23&#45;&gt;Node16</title>
<path fill="none" stroke="#191970" d="M36.1444,-571.16C30.9902,-558.2629 23.5734,-534.9376 27.5,-515 38.3701,-459.8064 68.0462,-399.7907 84.0083,-370.1822"/>
<polygon fill="#191970" stroke="#191970" points="87.2854,-371.4855 89.029,-361.0352 81.149,-368.1173 87.2854,-371.4855"/>
</g>
<!-- Node23&#45;&gt;Node17 -->
<g id="edge55" class="edge">
<title>Node23&#45;&gt;Node17</title>
<path fill="none" stroke="#191970" d="M36.9667,-571.2249C32.7669,-557.9979 27.1896,-533.8842 34.5,-515 51.184,-471.902 98.3503,-442.6538 131.0277,-426.8913"/>
<polygon fill="#191970" stroke="#191970" points="132.6403,-430.0015 140.238,-422.6173 129.6937,-423.6519 132.6403,-430.0015"/>
</g>
<!-- Node24 -->
<g id="node25" class="node">
<title>Node24</title>
<g id="a_node25"><a xlink:href="ipc__array_source.html" target="_top" xlink:title="ipc_array">
<polygon fill="#ffffff" stroke="#000000" points="44,-515.5 44,-534.5 105,-534.5 105,-515.5 44,-515.5"/>
<text text-anchor="middle" x="74.5" y="-522.5" font-family="Helvetica,sans-Serif" font-size="10.00" fill="#000000">ipc_array</text>
</a>
</g>
</g>
<!-- Node23&#45;&gt;Node24 -->
<g id="edge56" class="edge">
<title>Node23&#45;&gt;Node24</title>
<path fill="none" stroke="#191970" d="M46.4223,-571.2455C51.1027,-563.5367 57.7673,-552.5598 63.4289,-543.2348"/>
<polygon fill="#191970" stroke="#191970" points="66.4475,-545.007 68.6455,-534.6427 60.4639,-541.3741 66.4475,-545.007"/>
</g>
<!-- Node24&#45;&gt;Node16 -->
<g id="edge57" class="edge">
<title>Node24&#45;&gt;Node16</title>
<path fill="none" stroke="#191970" d="M75.6038,-515.4248C78.7652,-487.999 87.9027,-408.732 92.2065,-371.3964"/>
<polygon fill="#191970" stroke="#191970" points="95.7067,-371.5946 93.375,-361.2595 88.7528,-370.7929 95.7067,-371.5946"/>
</g>
<!-- Node24&#45;&gt;Node17 -->
<g id="edge58" class="edge">
<title>Node24&#45;&gt;Node17</title>
<path fill="none" stroke="#191970" d="M76.7089,-515.1849C80.1687,-501.4819 87.9157,-476.3516 101.5,-459 111.308,-446.472 125.3822,-435.7546 137.7413,-427.8246"/>
<polygon fill="#191970" stroke="#191970" points="139.6481,-430.7612 146.3519,-422.5569 135.9951,-424.7899 139.6481,-430.7612"/>
</g>
<!-- Node24&#45;&gt;Node22 -->
<g id="edge59" class="edge">
<title>Node24&#45;&gt;Node22</title>
<path fill="none" stroke="#191970" d="M90.351,-515.2455C104.3132,-506.6534 124.8728,-494.0014 140.9596,-484.1018"/>
<polygon fill="#191970" stroke="#191970" points="143.1484,-486.8645 149.8307,-478.6427 139.4797,-480.9029 143.1484,-486.8645"/>
</g>
</g>
</svg>
