<?xml version="1.0" encoding="UTF-8" standalone="no"?>
<!DOCTYPE svg PUBLIC "-//W3C//DTD SVG 1.1//EN"
 "http://www.w3.org/Graphics/SVG/1.1/DTD/svg11.dtd">
<!-- Generated by graphviz version 2.40.1 (20161225.0304)
 -->
<!-- Title: l4/cxx/pair Pages: 1 -->
<svg width="304pt" height="319pt"
 viewBox="0.00 0.00 304.00 319.00" xmlns="http://www.w3.org/2000/svg" xmlns:xlink="http://www.w3.org/1999/xlink">
<g id="graph0" class="graph" transform="scale(1 1) rotate(0) translate(4 315)">
<title>l4/cxx/pair</title>
<polygon fill="#ffffff" stroke="transparent" points="-4,4 -4,-315 300,-315 300,4 -4,4"/>
<!-- Node1 -->
<g id="node1" class="node">
<title>Node1</title>
<polygon fill="#bfbfbf" stroke="#000000" points="195,-291.5 195,-310.5 260,-310.5 260,-291.5 195,-291.5"/>
<text text-anchor="middle" x="227.5" y="-298.5" font-family="Helvetica,sans-Serif" font-size="10.00" fill="#000000">l4/cxx/pair</text>
</g>
<!-- Node2 -->
<g id="node2" class="node">
<title>Node2</title>
<g id="a_node2"><a xlink:href="avl__tree.html" target="_top" xlink:title="AVL tree. ">
<polygon fill="#ffffff" stroke="#000000" points="150,-235.5 150,-254.5 235,-254.5 235,-235.5 150,-235.5"/>
<text text-anchor="middle" x="192.5" y="-242.5" font-family="Helvetica,sans-Serif" font-size="10.00" fill="#000000">l4/cxx/avl_tree</text>
</a>
</g>
</g>
<!-- Node1&#45;&gt;Node2 -->
<g id="edge1" class="edge">
<title>Node1&#45;&gt;Node2</title>
<path fill="none" stroke="#191970" d="M216.0185,-282.6296C210.1804,-273.2887 203.3248,-262.3197 198.5267,-254.6427"/>
<polygon fill="#191970" stroke="#191970" points="213.1354,-284.6206 221.4035,-291.2455 219.0714,-280.9105 213.1354,-284.6206"/>
</g>
<!-- Node5 -->
<g id="node5" class="node">
<title>Node5</title>
<g id="a_node5"><a xlink:href="avl__map.html" target="_top" xlink:title="AVL map. ">
<polygon fill="#ffffff" stroke="#000000" points="186.5,-123.5 186.5,-142.5 272.5,-142.5 272.5,-123.5 186.5,-123.5"/>
<text text-anchor="middle" x="229.5" y="-130.5" font-family="Helvetica,sans-Serif" font-size="10.00" fill="#000000">l4/cxx/avl_map</text>
</a>
</g>
</g>
<!-- Node1&#45;&gt;Node5 -->
<g id="edge7" class="edge">
<title>Node1&#45;&gt;Node5</title>
<path fill="none" stroke="#191970" d="M235.6111,-282.0456C238.7033,-273.8819 241.8734,-264.1308 243.5,-255 249.4246,-221.7429 249.8021,-212.362 244.5,-179 242.4433,-166.0584 237.3231,-151.8079 233.6368,-142.6493"/>
<polygon fill="#191970" stroke="#191970" points="232.3447,-280.7874 231.8579,-291.371 238.8385,-283.401 232.3447,-280.7874"/>
</g>
<!-- Node3 -->
<g id="node3" class="node">
<title>Node3</title>
<g id="a_node3"><a xlink:href="name__space__svr_source.html" target="_top" xlink:title="l4/re/util/name_space_svr">
<polygon fill="#ffffff" stroke="#000000" points="0,-179.5 0,-198.5 137,-198.5 137,-179.5 0,-179.5"/>
<text text-anchor="middle" x="68.5" y="-186.5" font-family="Helvetica,sans-Serif" font-size="10.00" fill="#000000">l4/re/util/name_space_svr</text>
</a>
</g>
</g>
<!-- Node2&#45;&gt;Node3 -->
<g id="edge2" class="edge">
<title>Node2&#45;&gt;Node3</title>
<path fill="none" stroke="#191970" d="M162.0476,-231.2473C139.5278,-221.0771 109.4383,-207.4883 89.5382,-198.5011"/>
<polygon fill="#191970" stroke="#191970" points="160.6294,-234.4471 171.1836,-235.3733 163.5105,-228.0675 160.6294,-234.4471"/>
</g>
<!-- Node4 -->
<g id="node4" class="node">
<title>Node4</title>
<g id="a_node4"><a xlink:href="avl__set.html" target="_top" xlink:title="AVL set. ">
<polygon fill="#ffffff" stroke="#000000" points="155.5,-179.5 155.5,-198.5 235.5,-198.5 235.5,-179.5 155.5,-179.5"/>
<text text-anchor="middle" x="195.5" y="-186.5" font-family="Helvetica,sans-Serif" font-size="10.00" fill="#000000">l4/cxx/avl_set</text>
</a>
</g>
</g>
<!-- Node2&#45;&gt;Node4 -->
<g id="edge3" class="edge">
<title>Node2&#45;&gt;Node4</title>
<path fill="none" stroke="#191970" d="M193.563,-225.1575C194.0453,-216.155 194.5936,-205.9199 194.9834,-198.6427"/>
<polygon fill="#191970" stroke="#191970" points="190.0626,-225.0726 193.0226,-235.2455 197.0526,-225.4471 190.0626,-225.0726"/>
</g>
<!-- Node4&#45;&gt;Node5 -->
<g id="edge4" class="edge">
<title>Node4&#45;&gt;Node5</title>
<path fill="none" stroke="#191970" d="M206.6535,-170.6296C212.3247,-161.2887 218.9845,-150.3197 223.6455,-142.6427"/>
<polygon fill="#191970" stroke="#191970" points="203.6204,-168.8812 201.4223,-179.2455 209.6039,-172.5141 203.6204,-168.8812"/>
</g>
<!-- Node6 -->
<g id="node6" class="node">
<title>Node6</title>
<g id="a_node6"><a xlink:href="region__mapping.html" target="_top" xlink:title="Region handling. ">
<polygon fill="#ffffff" stroke="#000000" points="163,-67.5 163,-86.5 296,-86.5 296,-67.5 163,-67.5"/>
<text text-anchor="middle" x="229.5" y="-74.5" font-family="Helvetica,sans-Serif" font-size="10.00" fill="#000000">l4/re/util/region_mapping</text>
</a>
</g>
</g>
<!-- Node5&#45;&gt;Node6 -->
<g id="edge5" class="edge">
<title>Node5&#45;&gt;Node6</title>
<path fill="none" stroke="#191970" d="M229.5,-113.1575C229.5,-104.155 229.5,-93.9199 229.5,-86.6427"/>
<polygon fill="#191970" stroke="#191970" points="226.0001,-113.2455 229.5,-123.2455 233.0001,-113.2456 226.0001,-113.2455"/>
</g>
<!-- Node7 -->
<g id="node7" class="node">
<title>Node7</title>
<g id="a_node7"><a xlink:href="region__mapping__svr__2_source.html" target="_top" xlink:title="l4/re/util/region_mapping\l_svr_2">
<polygon fill="#ffffff" stroke="#000000" points="163,-.5 163,-30.5 296,-30.5 296,-.5 163,-.5"/>
<text text-anchor="start" x="171" y="-18.5" font-family="Helvetica,sans-Serif" font-size="10.00" fill="#000000">l4/re/util/region_mapping</text>
<text text-anchor="middle" x="229.5" y="-7.5" font-family="Helvetica,sans-Serif" font-size="10.00" fill="#000000">_svr_2</text>
</a>
</g>
</g>
<!-- Node6&#45;&gt;Node7 -->
<g id="edge6" class="edge">
<title>Node6&#45;&gt;Node7</title>
<path fill="none" stroke="#191970" d="M229.5,-57.3693C229.5,-48.681 229.5,-38.6241 229.5,-30.5446"/>
<polygon fill="#191970" stroke="#191970" points="226.0001,-57.3906 229.5,-67.3906 233.0001,-57.3907 226.0001,-57.3906"/>
</g>
</g>
</svg>
