<?xml version="1.0" encoding="UTF-8" standalone="no"?>
<!DOCTYPE svg PUBLIC "-//W3C//DTD SVG 1.1//EN"
 "http://www.w3.org/Graphics/SVG/1.1/DTD/svg11.dtd">
<!-- Generated by graphviz version 2.40.1 (20161225.0304)
 -->
<!-- Title: l4/sys/platform_control Pages: 1 -->
<svg width="881pt" height="767pt"
 viewBox="0.00 0.00 881.00 767.00" xmlns="http://www.w3.org/2000/svg" xmlns:xlink="http://www.w3.org/1999/xlink">
<g id="graph0" class="graph" transform="scale(1 1) rotate(0) translate(4 763)">
<title>l4/sys/platform_control</title>
<polygon fill="#ffffff" stroke="transparent" points="-4,4 -4,-763 877,-763 877,4 -4,4"/>
<!-- Node0 -->
<g id="node1" class="node">
<title>Node0</title>
<polygon fill="#bfbfbf" stroke="#000000" points="363.5,-739.5 363.5,-758.5 486.5,-758.5 486.5,-739.5 363.5,-739.5"/>
<text text-anchor="middle" x="425" y="-746.5" font-family="Helvetica,sans-Serif" font-size="10.00" fill="#000000">l4/sys/platform_control</text>
</g>
<!-- Node1 -->
<g id="node2" class="node">
<title>Node1</title>
<g id="a_node2"><a xlink:href="capability.html" target="_top" xlink:title="L4::Cap related definitions. ">
<polygon fill="#ffffff" stroke="#000000" points="380,-683.5 380,-702.5 470,-702.5 470,-683.5 380,-683.5"/>
<text text-anchor="middle" x="425" y="-690.5" font-family="Helvetica,sans-Serif" font-size="10.00" fill="#000000">l4/sys/capability</text>
</a>
</g>
</g>
<!-- Node0&#45;&gt;Node1 -->
<g id="edge1" class="edge">
<title>Node0&#45;&gt;Node1</title>
<path fill="none" stroke="#191970" d="M425,-739.2455C425,-731.9382 425,-721.6944 425,-712.7046"/>
<polygon fill="#191970" stroke="#191970" points="428.5001,-712.6426 425,-702.6427 421.5001,-712.6427 428.5001,-712.6426"/>
</g>
<!-- Node21 -->
<g id="node22" class="node">
<title>Node21</title>
<g id="a_node22"><a xlink:href="ipc__iface.html" target="_top" xlink:title="Interface Definition Language. ">
<polygon fill="#ffffff" stroke="#000000" points="487.5,-515.5 487.5,-534.5 564.5,-534.5 564.5,-515.5 487.5,-515.5"/>
<text text-anchor="middle" x="526" y="-522.5" font-family="Helvetica,sans-Serif" font-size="10.00" fill="#000000">cxx/ipc_iface</text>
</a>
</g>
</g>
<!-- Node0&#45;&gt;Node21 -->
<g id="edge64" class="edge">
<title>Node0&#45;&gt;Node21</title>
<path fill="none" stroke="#191970" d="M444.5153,-739.4319C472.8414,-724.3091 524.2274,-691.9194 545,-647 560.6666,-613.1219 546.231,-568.8879 535.3948,-544.0591"/>
<polygon fill="#191970" stroke="#191970" points="538.4396,-542.3041 531.0693,-534.693 532.0845,-545.2391 538.4396,-542.3041"/>
</g>
<!-- Node25 -->
<g id="node26" class="node">
<title>Node25</title>
<g id="a_node26"><a xlink:href="platform__control_8h.html" target="_top" xlink:title="Platform control object. ">
<polygon fill="#ffffff" stroke="#000000" points="142.5,-342 142.5,-361 273.5,-361 273.5,-342 142.5,-342"/>
<text text-anchor="middle" x="208" y="-349" font-family="Helvetica,sans-Serif" font-size="10.00" fill="#000000">l4/sys/platform_control.h</text>
</a>
</g>
</g>
<!-- Node0&#45;&gt;Node25 -->
<g id="edge60" class="edge">
<title>Node0&#45;&gt;Node25</title>
<path fill="none" stroke="#191970" d="M363.2508,-743.9659C253.9901,-733.3429 38,-703.8845 38,-637 38,-637 38,-637 38,-525 38,-446.5228 127.8323,-390.4585 176.8936,-365.6912"/>
<polygon fill="#191970" stroke="#191970" points="178.6908,-368.7079 186.1235,-361.1577 175.6047,-362.4249 178.6908,-368.7079"/>
</g>
<!-- Node2 -->
<g id="node3" class="node">
<title>Node2</title>
<g id="a_node3"><a xlink:href="l4_2sys_2consts_8h.html" target="_top" xlink:title="Common constants. ">
<polygon fill="#ffffff" stroke="#000000" points="707,-112.5 707,-131.5 793,-131.5 793,-112.5 707,-112.5"/>
<text text-anchor="middle" x="750" y="-119.5" font-family="Helvetica,sans-Serif" font-size="10.00" fill="#000000">l4/sys/consts.h</text>
</a>
</g>
</g>
<!-- Node1&#45;&gt;Node2 -->
<g id="edge2" class="edge">
<title>Node1&#45;&gt;Node2</title>
<path fill="none" stroke="#191970" d="M470.0072,-691.1771C583.6138,-683.9318 873,-647.9165 873,-469 873,-469 873,-469 873,-234 873,-185.8817 820.9004,-152.9564 784.5167,-135.8297"/>
<polygon fill="#191970" stroke="#191970" points="785.742,-132.5428 775.1877,-131.6172 782.8612,-138.9225 785.742,-132.5428"/>
</g>
<!-- Node6 -->
<g id="node7" class="node">
<title>Node6</title>
<g id="a_node7"><a xlink:href="l4_2sys_2types_8h.html" target="_top" xlink:title="Common L4 ABI Data Types. ">
<polygon fill="#ffffff" stroke="#000000" points="375,-168.5 375,-187.5 455,-187.5 455,-168.5 375,-168.5"/>
<text text-anchor="middle" x="415" y="-175.5" font-family="Helvetica,sans-Serif" font-size="10.00" fill="#000000">l4/sys/types.h</text>
</a>
</g>
</g>
<!-- Node1&#45;&gt;Node6 -->
<g id="edge6" class="edge">
<title>Node1&#45;&gt;Node6</title>
<path fill="none" stroke="#191970" d="M379.9199,-685.1133C270.541,-664.7019 0,-606.0263 0,-525 0,-525 0,-525 0,-290 0,-243.9062 37.7841,-242.5057 80,-224 129.9125,-202.1205 283.6329,-187.7818 364.3343,-181.5543"/>
<polygon fill="#191970" stroke="#191970" points="365.0401,-185.0109 374.7468,-180.7646 364.5107,-178.0309 365.0401,-185.0109"/>
</g>
<!-- Node9 -->
<g id="node10" class="node">
<title>Node9</title>
<g id="a_node10"><a xlink:href="kobject_source.html" target="_top" xlink:title="l4/sys/kobject">
<polygon fill="#ffffff" stroke="#000000" points="317,-515.5 317,-534.5 397,-534.5 397,-515.5 317,-515.5"/>
<text text-anchor="middle" x="357" y="-522.5" font-family="Helvetica,sans-Serif" font-size="10.00" fill="#000000">l4/sys/kobject</text>
</a>
</g>
</g>
<!-- Node1&#45;&gt;Node9 -->
<g id="edge14" class="edge">
<title>Node1&#45;&gt;Node9</title>
<path fill="none" stroke="#191970" d="M421.1492,-683.4862C410.3069,-656.6994 379.3657,-580.2565 364.7831,-544.2289"/>
<polygon fill="#191970" stroke="#191970" points="367.9743,-542.7842 360.978,-534.8279 361.4856,-545.4106 367.9743,-542.7842"/>
</g>
<!-- Node19 -->
<g id="node20" class="node">
<title>Node19</title>
<g id="a_node20"><a xlink:href="l4_2sys_2task_8h.html" target="_top" xlink:title="Common task related definitions. ">
<polygon fill="#ffffff" stroke="#000000" points="508,-342 508,-361 582,-361 582,-342 508,-342"/>
<text text-anchor="middle" x="545" y="-349" font-family="Helvetica,sans-Serif" font-size="10.00" fill="#000000">l4/sys/task.h</text>
</a>
</g>
</g>
<!-- Node1&#45;&gt;Node19 -->
<g id="edge43" class="edge">
<title>Node1&#45;&gt;Node19</title>
<path fill="none" stroke="#191970" d="M425,-683.4116C425,-664.0538 425,-618.9167 425,-581 425,-581 425,-581 425,-469 425,-419.3497 478.0939,-383.7632 513.649,-365.4987"/>
<polygon fill="#191970" stroke="#191970" points="515.2966,-368.5886 522.7102,-361.0196 512.1946,-362.3134 515.2966,-368.5886"/>
</g>
<!-- Node20 -->
<g id="node21" class="node">
<title>Node20</title>
<g id="a_node21"><a xlink:href="sys_2meta.html" target="_top" xlink:title="Meta interface for getting dynamic type information about objects behind capabilities. ">
<polygon fill="#ffffff" stroke="#000000" points="466,-627.5 466,-646.5 536,-646.5 536,-627.5 466,-627.5"/>
<text text-anchor="middle" x="501" y="-634.5" font-family="Helvetica,sans-Serif" font-size="10.00" fill="#000000">l4/sys/meta</text>
</a>
</g>
</g>
<!-- Node1&#45;&gt;Node20 -->
<g id="edge44" class="edge">
<title>Node1&#45;&gt;Node20</title>
<path fill="none" stroke="#191970" d="M438.2382,-683.2455C449.681,-674.814 466.4296,-662.4729 479.7475,-652.6598"/>
<polygon fill="#191970" stroke="#191970" points="481.9391,-655.3924 487.9135,-646.6427 477.7867,-649.757 481.9391,-655.3924"/>
</g>
<!-- Node3 -->
<g id="node4" class="node">
<title>Node3</title>
<g id="a_node4"><a xlink:href="compiler_8h.html" target="_top" xlink:title="L4 compiler related defines. ">
<polygon fill="#ffffff" stroke="#000000" points="394.5,-56.5 394.5,-75.5 489.5,-75.5 489.5,-56.5 394.5,-56.5"/>
<text text-anchor="middle" x="442" y="-63.5" font-family="Helvetica,sans-Serif" font-size="10.00" fill="#000000">l4/sys/compiler.h</text>
</a>
</g>
</g>
<!-- Node2&#45;&gt;Node3 -->
<g id="edge3" class="edge">
<title>Node2&#45;&gt;Node3</title>
<path fill="none" stroke="#191970" d="M706.8496,-114.1545C652.7773,-104.3231 559.9185,-87.4397 499.7601,-76.5018"/>
<polygon fill="#191970" stroke="#191970" points="500.1264,-73.0111 489.6616,-74.6657 498.8741,-79.8982 500.1264,-73.0111"/>
</g>
<!-- Node5 -->
<g id="node6" class="node">
<title>Node5</title>
<g id="a_node6"><a xlink:href="l4_2sys_2l4int_8h.html" target="_top" xlink:title="Fixed sized integer types, generic version. ">
<polygon fill="#ffffff" stroke="#000000" points="638,-56.5 638,-75.5 712,-75.5 712,-56.5 638,-56.5"/>
<text text-anchor="middle" x="675" y="-63.5" font-family="Helvetica,sans-Serif" font-size="10.00" fill="#000000">l4/sys/l4int.h</text>
</a>
</g>
</g>
<!-- Node2&#45;&gt;Node5 -->
<g id="edge5" class="edge">
<title>Node2&#45;&gt;Node5</title>
<path fill="none" stroke="#191970" d="M736.936,-112.2455C725.6438,-103.814 709.1155,-91.4729 695.9729,-81.6598"/>
<polygon fill="#191970" stroke="#191970" points="698.0211,-78.8211 687.9143,-75.6427 693.8331,-84.4301 698.0211,-78.8211"/>
</g>
<!-- Node4 -->
<g id="node5" class="node">
<title>Node4</title>
<polygon fill="#ffffff" stroke="#bfbfbf" points="397.5,-.5 397.5,-19.5 486.5,-19.5 486.5,-.5 397.5,-.5"/>
<text text-anchor="middle" x="442" y="-7.5" font-family="Helvetica,sans-Serif" font-size="10.00" fill="#000000">l4/sys/linkage.h</text>
</g>
<!-- Node3&#45;&gt;Node4 -->
<g id="edge4" class="edge">
<title>Node3&#45;&gt;Node4</title>
<path fill="none" stroke="#191970" d="M442,-56.2455C442,-48.9382 442,-38.6944 442,-29.7046"/>
<polygon fill="#191970" stroke="#191970" points="445.5001,-29.6426 442,-19.6427 438.5001,-29.6427 445.5001,-29.6426"/>
</g>
<!-- Node6&#45;&gt;Node2 -->
<g id="edge9" class="edge">
<title>Node6&#45;&gt;Node2</title>
<path fill="none" stroke="#191970" d="M455.0761,-171.3007C515.4535,-161.2078 629.8133,-142.0909 697.009,-130.8582"/>
<polygon fill="#191970" stroke="#191970" points="697.6848,-134.2939 706.9708,-129.1929 696.5306,-127.3897 697.6848,-134.2939"/>
</g>
<!-- Node6&#45;&gt;Node3 -->
<g id="edge8" class="edge">
<title>Node6&#45;&gt;Node3</title>
<path fill="none" stroke="#191970" d="M387.4808,-168.4477C359.3868,-157.0958 322.0038,-136.5664 338,-112 348.6349,-95.6673 366.5328,-85.0908 384.5108,-78.2596"/>
<polygon fill="#191970" stroke="#191970" points="386.1434,-81.3994 394.4612,-74.8371 383.8665,-74.7801 386.1434,-81.3994"/>
</g>
<!-- Node6&#45;&gt;Node5 -->
<g id="edge7" class="edge">
<title>Node6&#45;&gt;Node5</title>
<path fill="none" stroke="#191970" d="M431.3212,-168.4236C454.9749,-154.7841 500.4009,-129.4816 541,-112 571.1482,-99.0185 606.2784,-87.071 633.0037,-78.6071"/>
<polygon fill="#191970" stroke="#191970" points="634.3089,-81.8661 642.807,-75.5389 632.2181,-75.1856 634.3089,-81.8661"/>
</g>
<!-- Node7 -->
<g id="node8" class="node">
<title>Node7</title>
<g id="a_node8"><a xlink:href="____l4__fpage_8h_source.html" target="_top" xlink:title="l4/sys/__l4_fpage.h">
<polygon fill="#ffffff" stroke="#000000" points="347,-112.5 347,-131.5 455,-131.5 455,-112.5 347,-112.5"/>
<text text-anchor="middle" x="401" y="-119.5" font-family="Helvetica,sans-Serif" font-size="10.00" fill="#000000">l4/sys/__l4_fpage.h</text>
</a>
</g>
</g>
<!-- Node6&#45;&gt;Node7 -->
<g id="edge10" class="edge">
<title>Node6&#45;&gt;Node7</title>
<path fill="none" stroke="#191970" d="M412.5614,-168.2455C410.7145,-160.8579 408.1172,-150.4689 405.8522,-141.4087"/>
<polygon fill="#191970" stroke="#191970" points="409.2316,-140.4952 403.4107,-131.6427 402.4406,-142.193 409.2316,-140.4952"/>
</g>
<!-- Node8 -->
<g id="node9" class="node">
<title>Node8</title>
<g id="a_node9"><a xlink:href="____timeout_8h_source.html" target="_top" xlink:title="l4/sys/__timeout.h">
<polygon fill="#ffffff" stroke="#000000" points="549.5,-112.5 549.5,-131.5 650.5,-131.5 650.5,-112.5 549.5,-112.5"/>
<text text-anchor="middle" x="600" y="-119.5" font-family="Helvetica,sans-Serif" font-size="10.00" fill="#000000">l4/sys/__timeout.h</text>
</a>
</g>
</g>
<!-- Node6&#45;&gt;Node8 -->
<g id="edge12" class="edge">
<title>Node6&#45;&gt;Node8</title>
<path fill="none" stroke="#191970" d="M446.8026,-168.3733C477.8317,-158.9807 525.1754,-144.6496 559.0147,-134.4064"/>
<polygon fill="#191970" stroke="#191970" points="560.0553,-137.7483 568.6124,-131.5011 558.0272,-131.0485 560.0553,-137.7483"/>
</g>
<!-- Node7&#45;&gt;Node3 -->
<g id="edge11" class="edge">
<title>Node7&#45;&gt;Node3</title>
<path fill="none" stroke="#191970" d="M408.1417,-112.2455C413.8444,-104.4564 421.99,-93.3308 428.8625,-83.9439"/>
<polygon fill="#191970" stroke="#191970" points="431.8568,-85.7789 434.9402,-75.6427 426.2087,-81.6437 431.8568,-85.7789"/>
</g>
<!-- Node8&#45;&gt;Node5 -->
<g id="edge13" class="edge">
<title>Node8&#45;&gt;Node5</title>
<path fill="none" stroke="#191970" d="M613.064,-112.2455C624.3562,-103.814 640.8845,-91.4729 654.0271,-81.6598"/>
<polygon fill="#191970" stroke="#191970" points="656.1669,-84.4301 662.0857,-75.6427 651.9789,-78.8211 656.1669,-84.4301"/>
</g>
<!-- Node9&#45;&gt;Node6 -->
<g id="edge29" class="edge">
<title>Node9&#45;&gt;Node6</title>
<path fill="none" stroke="#191970" d="M316.9214,-521.7205C231.2446,-512.2954 38,-477.1139 38,-351.5 38,-351.5 38,-351.5 38,-290 38,-222.6682 261.765,-192.6068 364.5107,-182.3526"/>
<polygon fill="#191970" stroke="#191970" points="365.0404,-185.8176 374.6544,-181.3655 364.3624,-178.8506 365.0404,-185.8176"/>
</g>
<!-- Node10 -->
<g id="node11" class="node">
<title>Node10</title>
<g id="a_node11"><a xlink:href="kernel__object_8h.html" target="_top" xlink:title="Kernel object system calls. ">
<polygon fill="#ffffff" stroke="#000000" points="309,-403.5 309,-422.5 397,-422.5 397,-403.5 309,-403.5"/>
<text text-anchor="middle" x="353" y="-410.5" font-family="Helvetica,sans-Serif" font-size="10.00" fill="#000000">kernel_object.h</text>
</a>
</g>
</g>
<!-- Node9&#45;&gt;Node10 -->
<g id="edge15" class="edge">
<title>Node9&#45;&gt;Node10</title>
<path fill="none" stroke="#191970" d="M356.659,-515.4509C356.0066,-497.184 354.5698,-456.9553 353.7035,-432.6976"/>
<polygon fill="#191970" stroke="#191970" points="357.195,-432.3936 353.3402,-422.5249 350.1994,-432.6435 357.195,-432.3936"/>
</g>
<!-- Node15 -->
<g id="node16" class="node">
<title>Node15</title>
<g id="a_node16"><a xlink:href="____typeinfo_8h.html" target="_top" xlink:title="Type information handling. ">
<polygon fill="#ffffff" stroke="#000000" points="453,-459.5 453,-478.5 527,-478.5 527,-459.5 453,-459.5"/>
<text text-anchor="middle" x="490" y="-466.5" font-family="Helvetica,sans-Serif" font-size="10.00" fill="#000000">__typeinfo.h</text>
</a>
</g>
</g>
<!-- Node9&#45;&gt;Node15 -->
<g id="edge30" class="edge">
<title>Node9&#45;&gt;Node15</title>
<path fill="none" stroke="#191970" d="M379.8635,-515.3733C401.405,-506.3032 433.8838,-492.6279 457.9956,-482.4755"/>
<polygon fill="#191970" stroke="#191970" points="459.5767,-485.6075 467.4348,-478.5011 456.8603,-479.156 459.5767,-485.6075"/>
</g>
<!-- Node10&#45;&gt;Node3 -->
<g id="edge17" class="edge">
<title>Node10&#45;&gt;Node3</title>
<path fill="none" stroke="#191970" d="M308.9739,-408.3422C251.1255,-401.5222 153.4181,-387.3775 124,-367 90.8493,-344.037 76,-330.3271 76,-290 76,-290 76,-290 76,-178 76,-114.3343 281.059,-83.2274 384.1987,-71.608"/>
<polygon fill="#191970" stroke="#191970" points="384.5953,-75.0856 394.1519,-70.5116 383.8288,-68.1277 384.5953,-75.0856"/>
</g>
<!-- Node10&#45;&gt;Node6 -->
<g id="edge16" class="edge">
<title>Node10&#45;&gt;Node6</title>
<path fill="none" stroke="#191970" d="M308.5193,-410.1075C250.9788,-405.3319 155.5474,-393.5435 134,-367 125.3165,-356.3031 127.0458,-347.8939 134,-336 183.9109,-250.6366 298.7741,-207.8434 365.1616,-189.5203"/>
<polygon fill="#191970" stroke="#191970" points="366.2325,-192.8569 374.987,-186.8894 364.4219,-186.0951 366.2325,-192.8569"/>
</g>
<!-- Node11 -->
<g id="node12" class="node">
<title>Node11</title>
<g id="a_node12"><a xlink:href="l4_2sys_2utcb_8h.html" target="_top" xlink:title="UTCB definitions. ">
<polygon fill="#ffffff" stroke="#000000" points="445,-224.5 445,-243.5 519,-243.5 519,-224.5 445,-224.5"/>
<text text-anchor="middle" x="482" y="-231.5" font-family="Helvetica,sans-Serif" font-size="10.00" fill="#000000">l4/sys/utcb.h</text>
</a>
</g>
</g>
<!-- Node10&#45;&gt;Node11 -->
<g id="edge18" class="edge">
<title>Node10&#45;&gt;Node11</title>
<path fill="none" stroke="#191970" d="M383.8727,-403.4325C402.5316,-396.1851 425.4454,-384.4508 440,-367 467.8076,-333.6589 477.2658,-281.7801 480.4372,-253.6852"/>
<polygon fill="#191970" stroke="#191970" points="483.9395,-253.829 481.4215,-243.5378 476.9722,-253.1531 483.9395,-253.829"/>
</g>
<!-- Node12 -->
<g id="node13" class="node">
<title>Node12</title>
<g id="a_node13"><a xlink:href="____kernel__object__impl_8h.html" target="_top" xlink:title="Low&#45;level kernel debugger functions. ">
<polygon fill="#ffffff" stroke="#000000" points="292,-336.5 292,-366.5 414,-366.5 414,-336.5 292,-336.5"/>
<text text-anchor="start" x="300" y="-354.5" font-family="Helvetica,sans-Serif" font-size="10.00" fill="#000000">l4/sys/__kernel_object</text>
<text text-anchor="middle" x="353" y="-343.5" font-family="Helvetica,sans-Serif" font-size="10.00" fill="#000000">_impl.h</text>
</a>
</g>
</g>
<!-- Node10&#45;&gt;Node12 -->
<g id="edge22" class="edge">
<title>Node10&#45;&gt;Node12</title>
<path fill="none" stroke="#191970" d="M353,-403.3906C353,-396.2234 353,-386.0862 353,-376.671"/>
<polygon fill="#191970" stroke="#191970" points="356.5001,-376.5446 353,-366.5446 349.5001,-376.5446 356.5001,-376.5446"/>
</g>
<!-- Node13 -->
<g id="node14" class="node">
<title>Node13</title>
<g id="a_node14"><a xlink:href="l4_2sys_2ipc_8h.html" target="_top" xlink:title="Common IPC interface. ">
<polygon fill="#ffffff" stroke="#000000" points="384,-280.5 384,-299.5 452,-299.5 452,-280.5 384,-280.5"/>
<text text-anchor="middle" x="418" y="-287.5" font-family="Helvetica,sans-Serif" font-size="10.00" fill="#000000">l4/sys/ipc.h</text>
</a>
</g>
</g>
<!-- Node10&#45;&gt;Node13 -->
<g id="edge28" class="edge">
<title>Node10&#45;&gt;Node13</title>
<path fill="none" stroke="#191970" d="M378.885,-403.4647C394.7227,-396.1252 413.6794,-384.2779 423,-367 432.5999,-349.2043 429.1415,-325.626 424.6859,-309.2701"/>
<polygon fill="#191970" stroke="#191970" points="428.027,-308.2271 421.7412,-299.6983 421.3364,-310.2854 428.027,-308.2271"/>
</g>
<!-- Node11&#45;&gt;Node3 -->
<g id="edge20" class="edge">
<title>Node11&#45;&gt;Node3</title>
<path fill="none" stroke="#191970" d="M481.5528,-224.2941C480.3762,-203.3527 476.3774,-152.5443 464,-112 461.1334,-102.6099 456.6215,-92.7223 452.4278,-84.5307"/>
<polygon fill="#191970" stroke="#191970" points="455.4112,-82.6879 447.6024,-75.5273 449.2415,-85.9946 455.4112,-82.6879"/>
</g>
<!-- Node11&#45;&gt;Node5 -->
<g id="edge21" class="edge">
<title>Node11&#45;&gt;Node5</title>
<path fill="none" stroke="#191970" d="M519.171,-227.7381C596.0121,-213.9561 768.0248,-178.489 802,-132 825.99,-99.174 767.4303,-81.3474 722.0454,-72.7565"/>
<polygon fill="#191970" stroke="#191970" points="722.4754,-69.278 712.0154,-70.9633 721.2433,-76.1687 722.4754,-69.278"/>
</g>
<!-- Node11&#45;&gt;Node6 -->
<g id="edge19" class="edge">
<title>Node11&#45;&gt;Node6</title>
<path fill="none" stroke="#191970" d="M470.3295,-224.2455C460.4339,-215.9746 446.0373,-203.9416 434.4099,-194.2232"/>
<polygon fill="#191970" stroke="#191970" points="436.4542,-191.3703 426.5368,-187.6427 431.965,-196.7413 436.4542,-191.3703"/>
</g>
<!-- Node12&#45;&gt;Node13 -->
<g id="edge23" class="edge">
<title>Node12&#45;&gt;Node13</title>
<path fill="none" stroke="#191970" d="M369.0674,-336.2977C378.466,-327.4052 390.3527,-316.1586 400.057,-306.9769"/>
<polygon fill="#191970" stroke="#191970" points="402.7342,-309.2621 407.5927,-299.8469 397.9232,-304.1774 402.7342,-309.2621"/>
</g>
<!-- Node13&#45;&gt;Node6 -->
<g id="edge24" class="edge">
<title>Node13&#45;&gt;Node6</title>
<path fill="none" stroke="#191970" d="M417.7442,-280.4509C417.2549,-262.184 416.1774,-221.9553 415.5276,-197.6976"/>
<polygon fill="#191970" stroke="#191970" points="419.0217,-197.4276 415.2551,-187.5249 412.0242,-197.6151 419.0217,-197.4276"/>
</g>
<!-- Node13&#45;&gt;Node11 -->
<g id="edge25" class="edge">
<title>Node13&#45;&gt;Node11</title>
<path fill="none" stroke="#191970" d="M429.1479,-280.2455C438.5087,-272.0549 452.0858,-260.1749 463.1349,-250.5069"/>
<polygon fill="#191970" stroke="#191970" points="465.7588,-252.8618 470.9798,-243.6427 461.1492,-247.5937 465.7588,-252.8618"/>
</g>
<!-- Node14 -->
<g id="node15" class="node">
<title>Node14</title>
<g id="a_node15"><a xlink:href="err_8h.html" target="_top" xlink:title="Error codes. ">
<polygon fill="#ffffff" stroke="#000000" points="656,-224.5 656,-243.5 724,-243.5 724,-224.5 656,-224.5"/>
<text text-anchor="middle" x="690" y="-231.5" font-family="Helvetica,sans-Serif" font-size="10.00" fill="#000000">l4/sys/err.h</text>
</a>
</g>
</g>
<!-- Node13&#45;&gt;Node14 -->
<g id="edge26" class="edge">
<title>Node13&#45;&gt;Node14</title>
<path fill="none" stroke="#191970" d="M452.1736,-282.9643C501.2336,-272.8637 591.6586,-254.2468 645.7644,-243.1073"/>
<polygon fill="#191970" stroke="#191970" points="646.6635,-246.4957 655.7523,-241.051 645.2519,-239.6395 646.6635,-246.4957"/>
</g>
<!-- Node14&#45;&gt;Node3 -->
<g id="edge27" class="edge">
<title>Node14&#45;&gt;Node3</title>
<path fill="none" stroke="#191970" d="M690.7669,-224.4363C692.0409,-201.4606 691.8236,-142.7855 660,-112 637.5575,-90.2896 556.7146,-77.6671 500.0602,-71.3048"/>
<polygon fill="#191970" stroke="#191970" points="500.1021,-67.7889 489.7827,-70.1889 499.3464,-74.748 500.1021,-67.7889"/>
</g>
<!-- Node16 -->
<g id="node17" class="node">
<title>Node16</title>
<g id="a_node17"><a xlink:href="types.html" target="_top" xlink:title="cxx/types">
<polygon fill="#ffffff" stroke="#000000" points="759.5,-342 759.5,-361 820.5,-361 820.5,-342 759.5,-342"/>
<text text-anchor="middle" x="790" y="-349" font-family="Helvetica,sans-Serif" font-size="10.00" fill="#000000">cxx/types</text>
</a>
</g>
</g>
<!-- Node15&#45;&gt;Node16 -->
<g id="edge31" class="edge">
<title>Node15&#45;&gt;Node16</title>
<path fill="none" stroke="#191970" d="M513.8441,-459.4999C535.8946,-450.5604 569.4681,-436.5568 598,-423 615.2383,-414.8093 618.4482,-410.4954 636,-403 673.6652,-386.9153 718.176,-372.5011 749.633,-363.0414"/>
<polygon fill="#191970" stroke="#191970" points="750.7747,-366.3535 759.3623,-360.1484 748.7795,-359.6438 750.7747,-366.3535"/>
</g>
<!-- Node17 -->
<g id="node18" class="node">
<title>Node17</title>
<g id="a_node18"><a xlink:href="ipc__basics_source.html" target="_top" xlink:title="cxx/ipc_basics">
<polygon fill="#ffffff" stroke="#000000" points="645,-403.5 645,-422.5 729,-422.5 729,-403.5 645,-403.5"/>
<text text-anchor="middle" x="687" y="-410.5" font-family="Helvetica,sans-Serif" font-size="10.00" fill="#000000">cxx/ipc_basics</text>
</a>
</g>
</g>
<!-- Node15&#45;&gt;Node17 -->
<g id="edge32" class="edge">
<title>Node15&#45;&gt;Node17</title>
<path fill="none" stroke="#191970" d="M523.8655,-459.3733C557.049,-449.9404 607.755,-435.5265 643.8194,-425.2747"/>
<polygon fill="#191970" stroke="#191970" points="644.9145,-428.6021 653.5764,-422.5011 643.0005,-421.8689 644.9145,-428.6021"/>
</g>
<!-- Node18 -->
<g id="node19" class="node">
<title>Node18</title>
<g id="a_node19"><a xlink:href="capability_8h_source.html" target="_top" xlink:title="cxx/capability.h">
<polygon fill="#ffffff" stroke="#000000" points="501.5,-403.5 501.5,-422.5 588.5,-422.5 588.5,-403.5 501.5,-403.5"/>
<text text-anchor="middle" x="545" y="-410.5" font-family="Helvetica,sans-Serif" font-size="10.00" fill="#000000">cxx/capability.h</text>
</a>
</g>
</g>
<!-- Node15&#45;&gt;Node18 -->
<g id="edge36" class="edge">
<title>Node15&#45;&gt;Node18</title>
<path fill="none" stroke="#191970" d="M499.5803,-459.2455C507.5458,-451.1352 519.0641,-439.4075 528.5079,-429.7919"/>
<polygon fill="#191970" stroke="#191970" points="531.0195,-432.2297 535.5295,-422.6427 526.0253,-427.3247 531.0195,-432.2297"/>
</g>
<!-- Node17&#45;&gt;Node11 -->
<g id="edge34" class="edge">
<title>Node17&#45;&gt;Node11</title>
<path fill="none" stroke="#191970" d="M675.9783,-403.3762C642.6083,-374.2384 542.4058,-286.7445 500.6178,-250.2565"/>
<polygon fill="#191970" stroke="#191970" points="502.9108,-247.6123 493.0762,-243.6714 498.3068,-252.8851 502.9108,-247.6123"/>
</g>
<!-- Node17&#45;&gt;Node14 -->
<g id="edge35" class="edge">
<title>Node17&#45;&gt;Node14</title>
<path fill="none" stroke="#191970" d="M687.1613,-403.3762C687.6334,-375.2097 689.0193,-292.5126 689.6636,-254.0713"/>
<polygon fill="#191970" stroke="#191970" points="693.1697,-253.7287 689.8379,-243.6714 686.1707,-253.6113 693.1697,-253.7287"/>
</g>
<!-- Node17&#45;&gt;Node16 -->
<g id="edge33" class="edge">
<title>Node17&#45;&gt;Node16</title>
<path fill="none" stroke="#191970" d="M703.0938,-403.3906C719.7228,-393.4616 745.8976,-377.833 765.1794,-366.3201"/>
<polygon fill="#191970" stroke="#191970" points="767.2276,-369.1736 774.0193,-361.0419 763.639,-363.1634 767.2276,-369.1736"/>
</g>
<!-- Node18&#45;&gt;Node2 -->
<g id="edge37" class="edge">
<title>Node18&#45;&gt;Node2</title>
<path fill="none" stroke="#191970" d="M562.6591,-403.3568C601.3945,-381.1274 693.5071,-322.1437 733,-244 749.646,-211.0629 751.5748,-167.0932 751.0641,-141.9322"/>
<polygon fill="#191970" stroke="#191970" points="754.5571,-141.671 750.7018,-131.8025 747.5615,-141.9212 754.5571,-141.671"/>
</g>
<!-- Node18&#45;&gt;Node6 -->
<g id="edge38" class="edge">
<title>Node18&#45;&gt;Node6</title>
<path fill="none" stroke="#191970" d="M559.6852,-403.2577C570.6154,-395.0536 584.6898,-382.2342 591,-367 611.3864,-317.7829 562.4295,-238.839 547,-224 524.8979,-202.7437 492.4558,-191.2642 465.2656,-185.0887"/>
<polygon fill="#191970" stroke="#191970" points="465.6388,-181.5912 455.1344,-182.9723 464.2073,-188.4433 465.6388,-181.5912"/>
</g>
<!-- Node18&#45;&gt;Node19 -->
<g id="edge39" class="edge">
<title>Node18&#45;&gt;Node19</title>
<path fill="none" stroke="#191970" d="M545,-403.3906C545,-394.8657 545,-382.1392 545,-371.4235"/>
<polygon fill="#191970" stroke="#191970" points="548.5001,-371.2448 545,-361.2449 541.5001,-371.2449 548.5001,-371.2448"/>
</g>
<!-- Node19&#45;&gt;Node6 -->
<g id="edge40" class="edge">
<title>Node19&#45;&gt;Node6</title>
<path fill="none" stroke="#191970" d="M546.6822,-341.9789C550.174,-319.0192 555.736,-259.8574 528,-224 512.76,-204.2976 487.6766,-192.9896 465.0091,-186.5214"/>
<polygon fill="#191970" stroke="#191970" points="465.7034,-183.0856 455.1444,-183.9563 463.9417,-189.8603 465.7034,-183.0856"/>
</g>
<!-- Node19&#45;&gt;Node11 -->
<g id="edge41" class="edge">
<title>Node19&#45;&gt;Node11</title>
<path fill="none" stroke="#191970" d="M539.8444,-341.8845C529.4152,-322.4331 505.6525,-278.1138 492.0512,-252.7462"/>
<polygon fill="#191970" stroke="#191970" points="495.0368,-250.9076 487.2268,-243.7484 488.8676,-254.2154 495.0368,-250.9076"/>
</g>
<!-- Node19&#45;&gt;Node13 -->
<g id="edge42" class="edge">
<title>Node19&#45;&gt;Node13</title>
<path fill="none" stroke="#191970" d="M525.1563,-341.8906C504.1864,-331.7359 470.9056,-315.6196 446.9964,-304.0416"/>
<polygon fill="#191970" stroke="#191970" points="448.2301,-300.7502 437.7044,-299.5419 445.1792,-307.0504 448.2301,-300.7502"/>
</g>
<!-- Node20&#45;&gt;Node9 -->
<g id="edge45" class="edge">
<title>Node20&#45;&gt;Node9</title>
<path fill="none" stroke="#191970" d="M488.7226,-627.4509C463.9613,-608.1921 407.8138,-564.5218 377.4345,-540.8935"/>
<polygon fill="#191970" stroke="#191970" points="379.2886,-537.9016 369.2463,-534.5249 374.991,-543.4271 379.2886,-537.9016"/>
</g>
<!-- Node20&#45;&gt;Node21 -->
<g id="edge46" class="edge">
<title>Node20&#45;&gt;Node21</title>
<path fill="none" stroke="#191970" d="M503.1315,-627.4509C507.2274,-609.1013 516.2699,-568.5908 521.6765,-544.3693"/>
<polygon fill="#191970" stroke="#191970" points="525.1112,-545.0472 523.8739,-534.5249 518.2794,-543.5222 525.1112,-545.0472"/>
</g>
<!-- Node23 -->
<g id="node24" class="node">
<title>Node23</title>
<g id="a_node24"><a xlink:href="ipc__string_source.html" target="_top" xlink:title="cxx/ipc_string">
<polygon fill="#ffffff" stroke="#000000" points="718.5,-571.5 718.5,-590.5 799.5,-590.5 799.5,-571.5 718.5,-571.5"/>
<text text-anchor="middle" x="759" y="-578.5" font-family="Helvetica,sans-Serif" font-size="10.00" fill="#000000">cxx/ipc_string</text>
</a>
</g>
</g>
<!-- Node20&#45;&gt;Node23 -->
<g id="edge53" class="edge">
<title>Node20&#45;&gt;Node23</title>
<path fill="none" stroke="#191970" d="M536.0635,-629.3893C580.6259,-619.7169 657.8525,-602.9545 708.6913,-591.9197"/>
<polygon fill="#191970" stroke="#191970" points="709.4597,-595.3345 718.4897,-589.7929 707.9748,-588.4938 709.4597,-595.3345"/>
</g>
<!-- Node21&#45;&gt;Node15 -->
<g id="edge52" class="edge">
<title>Node21&#45;&gt;Node15</title>
<path fill="none" stroke="#191970" d="M519.7293,-515.2455C514.7736,-507.5367 507.717,-496.5598 501.7224,-487.2348"/>
<polygon fill="#191970" stroke="#191970" points="504.5506,-485.1618 496.1989,-478.6427 498.6624,-488.9471 504.5506,-485.1618"/>
</g>
<!-- Node21&#45;&gt;Node17 -->
<g id="edge47" class="edge">
<title>Node21&#45;&gt;Node17</title>
<path fill="none" stroke="#191970" d="M531.6655,-515.227C540.2795,-501.1148 557.9169,-474.9753 579,-459 598.211,-444.4432 622.7224,-433.5185 643.5364,-425.977"/>
<polygon fill="#191970" stroke="#191970" points="644.8158,-429.2378 653.1115,-422.6475 642.5167,-422.6261 644.8158,-429.2378"/>
</g>
<!-- Node22 -->
<g id="node23" class="node">
<title>Node22</title>
<g id="a_node23"><a xlink:href="ipc__types.html" target="_top" xlink:title="l4/sys/cxx/ipc_types">
<polygon fill="#ffffff" stroke="#000000" points="621,-459.5 621,-478.5 731,-478.5 731,-459.5 621,-459.5"/>
<text text-anchor="middle" x="676" y="-466.5" font-family="Helvetica,sans-Serif" font-size="10.00" fill="#000000">l4/sys/cxx/ipc_types</text>
</a>
</g>
</g>
<!-- Node21&#45;&gt;Node22 -->
<g id="edge48" class="edge">
<title>Node21&#45;&gt;Node22</title>
<path fill="none" stroke="#191970" d="M551.7859,-515.3733C576.4047,-506.1822 613.69,-492.2624 640.9875,-482.0713"/>
<polygon fill="#191970" stroke="#191970" points="642.4063,-485.2777 650.5506,-478.5011 639.958,-478.7198 642.4063,-485.2777"/>
</g>
<!-- Node22&#45;&gt;Node16 -->
<g id="edge50" class="edge">
<title>Node22&#45;&gt;Node16</title>
<path fill="none" stroke="#191970" d="M691.5465,-459.3892C704.746,-450.7992 723.7575,-437.3787 738,-423 754.101,-406.7449 769.0819,-385.178 778.7881,-369.9964"/>
<polygon fill="#191970" stroke="#191970" points="781.7827,-371.8088 784.1129,-361.4734 775.846,-368.0999 781.7827,-371.8088"/>
</g>
<!-- Node22&#45;&gt;Node17 -->
<g id="edge51" class="edge">
<title>Node22&#45;&gt;Node17</title>
<path fill="none" stroke="#191970" d="M677.9161,-459.2455C679.3514,-451.9382 681.3636,-441.6944 683.1295,-432.7046"/>
<polygon fill="#191970" stroke="#191970" points="686.6127,-433.1298 685.1059,-422.6427 679.744,-431.7805 686.6127,-433.1298"/>
</g>
<!-- Node22&#45;&gt;Node18 -->
<g id="edge49" class="edge">
<title>Node22&#45;&gt;Node18</title>
<path fill="none" stroke="#191970" d="M653.4803,-459.3733C632.2628,-450.3032 600.2724,-436.6279 576.5231,-426.4755"/>
<polygon fill="#191970" stroke="#191970" points="577.7967,-423.2136 567.2258,-422.5011 575.0452,-429.6502 577.7967,-423.2136"/>
</g>
<!-- Node23&#45;&gt;Node16 -->
<g id="edge54" class="edge">
<title>Node23&#45;&gt;Node16</title>
<path fill="none" stroke="#191970" d="M771.4212,-571.18C781.0016,-562.7529 793.5135,-549.6707 799,-535 820.1711,-478.3889 805.0692,-405.0454 795.7935,-370.7575"/>
<polygon fill="#191970" stroke="#191970" points="799.1403,-369.7305 793.04,-361.0681 792.4069,-371.6441 799.1403,-369.7305"/>
</g>
<!-- Node23&#45;&gt;Node17 -->
<g id="edge55" class="edge">
<title>Node23&#45;&gt;Node17</title>
<path fill="none" stroke="#191970" d="M732.0327,-571.4139C696.982,-557.3147 637.2753,-527.3019 612,-479 600.3058,-456.6519 626.0989,-438.3964 650.5632,-426.7953"/>
<polygon fill="#191970" stroke="#191970" points="652.0852,-429.9489 659.7934,-422.6802 649.2348,-423.5555 652.0852,-429.9489"/>
</g>
<!-- Node24 -->
<g id="node25" class="node">
<title>Node24</title>
<g id="a_node25"><a xlink:href="ipc__array_source.html" target="_top" xlink:title="ipc_array">
<polygon fill="#ffffff" stroke="#000000" points="728.5,-515.5 728.5,-534.5 789.5,-534.5 789.5,-515.5 728.5,-515.5"/>
<text text-anchor="middle" x="759" y="-522.5" font-family="Helvetica,sans-Serif" font-size="10.00" fill="#000000">ipc_array</text>
</a>
</g>
</g>
<!-- Node23&#45;&gt;Node24 -->
<g id="edge56" class="edge">
<title>Node23&#45;&gt;Node24</title>
<path fill="none" stroke="#191970" d="M759,-571.2455C759,-563.9382 759,-553.6944 759,-544.7046"/>
<polygon fill="#191970" stroke="#191970" points="762.5001,-544.6426 759,-534.6427 755.5001,-544.6427 762.5001,-544.6426"/>
</g>
<!-- Node24&#45;&gt;Node16 -->
<g id="edge57" class="edge">
<title>Node24&#45;&gt;Node16</title>
<path fill="none" stroke="#191970" d="M760.7109,-515.4248C765.6111,-487.999 779.7741,-408.732 786.445,-371.3964"/>
<polygon fill="#191970" stroke="#191970" points="789.9427,-371.7193 788.2562,-361.2595 783.0518,-370.488 789.9427,-371.7193"/>
</g>
<!-- Node24&#45;&gt;Node17 -->
<g id="edge58" class="edge">
<title>Node24&#45;&gt;Node17</title>
<path fill="none" stroke="#191970" d="M757.9638,-515.3349C756.1448,-501.81 751.42,-476.8899 740,-459 732.42,-447.1257 720.8753,-436.5938 710.4936,-428.6141"/>
<polygon fill="#191970" stroke="#191970" points="712.3016,-425.6008 702.1591,-422.5379 708.1779,-431.2572 712.3016,-425.6008"/>
</g>
<!-- Node24&#45;&gt;Node22 -->
<g id="edge59" class="edge">
<title>Node24&#45;&gt;Node22</title>
<path fill="none" stroke="#191970" d="M744.5425,-515.2455C731.9268,-506.7337 713.4056,-494.2375 698.7955,-484.3801"/>
<polygon fill="#191970" stroke="#191970" points="700.5391,-481.3343 690.2918,-478.6427 696.6239,-487.1371 700.5391,-481.3343"/>
</g>
<!-- Node25&#45;&gt;Node6 -->
<g id="edge61" class="edge">
<title>Node25&#45;&gt;Node6</title>
<path fill="none" stroke="#191970" d="M219.4241,-341.9248C253.2824,-313.5459 353.3651,-229.6602 395.7198,-194.1599"/>
<polygon fill="#191970" stroke="#191970" points="398.1955,-196.6518 403.6112,-187.5457 393.6989,-191.287 398.1955,-196.6518"/>
</g>
<!-- Node25&#45;&gt;Node11 -->
<g id="edge62" class="edge">
<title>Node25&#45;&gt;Node11</title>
<path fill="none" stroke="#191970" d="M230.4226,-341.8845C279.013,-321.0474 394.1503,-271.6728 450.2186,-247.6289"/>
<polygon fill="#191970" stroke="#191970" points="451.8407,-250.7416 459.6519,-243.5836 449.0818,-244.3082 451.8407,-250.7416"/>
</g>
<!-- Node25&#45;&gt;Node13 -->
<g id="edge63" class="edge">
<title>Node25&#45;&gt;Node13</title>
<path fill="none" stroke="#191970" d="M240.8125,-341.8906C277.1822,-331.2395 335.9478,-314.0296 375.7363,-302.3772"/>
<polygon fill="#191970" stroke="#191970" points="376.8047,-305.7114 385.4179,-299.5419 374.8373,-298.9936 376.8047,-305.7114"/>
</g>
</g>
</svg>
