<?xml version="1.0" encoding="UTF-8" standalone="no"?>
<!DOCTYPE svg PUBLIC "-//W3C//DTD SVG 1.1//EN"
 "http://www.w3.org/Graphics/SVG/1.1/DTD/svg11.dtd">
<!-- Generated by graphviz version 2.40.1 (20161225.0304)
 -->
<!-- Title: l4/sys/rcv_endpoint.h Pages: 1 -->
<svg width="1226pt" height="509pt"
 viewBox="0.00 0.00 1226.00 509.00" xmlns="http://www.w3.org/2000/svg" xmlns:xlink="http://www.w3.org/1999/xlink">
<g id="graph0" class="graph" transform="scale(1 1) rotate(0) translate(4 505)">
<title>l4/sys/rcv_endpoint.h</title>
<polygon fill="#ffffff" stroke="transparent" points="-4,4 -4,-505 1222,-505 1222,4 -4,4"/>
<!-- Node11 -->
<g id="node1" class="node">
<title>Node11</title>
<polygon fill="#bfbfbf" stroke="#000000" points="312,-481.5 312,-500.5 428,-500.5 428,-481.5 312,-481.5"/>
<text text-anchor="middle" x="370" y="-488.5" font-family="Helvetica,sans-Serif" font-size="10.00" fill="#000000">l4/sys/rcv_endpoint.h</text>
</g>
<!-- Node12 -->
<g id="node2" class="node">
<title>Node12</title>
<g id="a_node2"><a xlink:href="l4_2sys_2irq_8h.html" target="_top" xlink:title="C Irq interface. ">
<polygon fill="#ffffff" stroke="#000000" points="230.5,-425.5 230.5,-444.5 297.5,-444.5 297.5,-425.5 230.5,-425.5"/>
<text text-anchor="middle" x="264" y="-432.5" font-family="Helvetica,sans-Serif" font-size="10.00" fill="#000000">l4/sys/irq.h</text>
</a>
</g>
</g>
<!-- Node11&#45;&gt;Node12 -->
<g id="edge1" class="edge">
<title>Node11&#45;&gt;Node12</title>
<path fill="none" stroke="#191970" d="M342.4778,-476.46C323.5092,-466.4388 298.8273,-453.3993 282.2522,-444.6427"/>
<polygon fill="#191970" stroke="#191970" points="341.0593,-479.669 351.5362,-481.2455 344.3292,-473.4796 341.0593,-479.669"/>
</g>
<!-- Node47 -->
<g id="node37" class="node">
<title>Node47</title>
<g id="a_node37"><a xlink:href="rcv__endpoint.html" target="_top" xlink:title="The C++ Receive endpoint interface. ">
<polygon fill="#ffffff" stroke="#000000" points="316,-425.5 316,-444.5 424,-444.5 424,-425.5 316,-425.5"/>
<text text-anchor="middle" x="370" y="-432.5" font-family="Helvetica,sans-Serif" font-size="10.00" fill="#000000">l4/sys/rcv_endpoint</text>
</a>
</g>
</g>
<!-- Node11&#45;&gt;Node47 -->
<g id="edge45" class="edge">
<title>Node11&#45;&gt;Node47</title>
<path fill="none" stroke="#191970" d="M370,-471.1575C370,-462.155 370,-451.9199 370,-444.6427"/>
<polygon fill="#191970" stroke="#191970" points="366.5001,-471.2455 370,-481.2455 373.5001,-471.2456 366.5001,-471.2455"/>
</g>
<!-- Node49 -->
<g id="node39" class="node">
<title>Node49</title>
<g id="a_node39"><a xlink:href="ipc__gate_8h.html" target="_top" xlink:title="The C IPC gate interface. ">
<polygon fill="#ffffff" stroke="#000000" points="442.5,-425.5 442.5,-444.5 537.5,-444.5 537.5,-425.5 442.5,-425.5"/>
<text text-anchor="middle" x="490" y="-432.5" font-family="Helvetica,sans-Serif" font-size="10.00" fill="#000000">l4/sys/ipc_gate.h</text>
</a>
</g>
</g>
<!-- Node11&#45;&gt;Node49 -->
<g id="edge49" class="edge">
<title>Node11&#45;&gt;Node49</title>
<path fill="none" stroke="#191970" d="M399.7624,-477.1109C421.5232,-466.9559 450.4682,-453.4482 469.6405,-444.5011"/>
<polygon fill="#191970" stroke="#191970" points="398.2105,-473.9727 390.6287,-481.3733 401.1707,-480.316 398.2105,-473.9727"/>
</g>
<!-- Node13 -->
<g id="node3" class="node">
<title>Node13</title>
<g id="a_node3"><a xlink:href="internal_8h_source.html" target="_top" xlink:title="l4/shmc/internal.h">
<polygon fill="#ffffff" stroke="#000000" points="92.5,-369.5 92.5,-388.5 191.5,-388.5 191.5,-369.5 92.5,-369.5"/>
<text text-anchor="middle" x="142" y="-376.5" font-family="Helvetica,sans-Serif" font-size="10.00" fill="#000000">l4/shmc/internal.h</text>
</a>
</g>
</g>
<!-- Node12&#45;&gt;Node13 -->
<g id="edge2" class="edge">
<title>Node12&#45;&gt;Node13</title>
<path fill="none" stroke="#191970" d="M233.7416,-421.1109C211.6181,-410.9559 182.1906,-397.4482 162.6989,-388.5011"/>
<polygon fill="#191970" stroke="#191970" points="232.479,-424.3824 243.0275,-425.3733 235.3993,-418.0206 232.479,-424.3824"/>
</g>
<!-- Node15 -->
<g id="node5" class="node">
<title>Node15</title>
<g id="a_node5"><a xlink:href="irq.html" target="_top" xlink:title="C++ Irq interface. ">
<polygon fill="#ffffff" stroke="#000000" points="338.5,-369.5 338.5,-388.5 397.5,-388.5 397.5,-369.5 338.5,-369.5"/>
<text text-anchor="middle" x="368" y="-376.5" font-family="Helvetica,sans-Serif" font-size="10.00" fill="#000000">l4/sys/irq</text>
</a>
</g>
</g>
<!-- Node12&#45;&gt;Node15 -->
<g id="edge4" class="edge">
<title>Node12&#45;&gt;Node15</title>
<path fill="none" stroke="#191970" d="M291.0029,-420.46C309.6136,-410.4388 333.8299,-397.3993 350.0922,-388.6427"/>
<polygon fill="#191970" stroke="#191970" points="289.2608,-417.4228 282.1154,-425.2455 292.5795,-423.5861 289.2608,-417.4228"/>
</g>
<!-- Node46 -->
<g id="node36" class="node">
<title>Node46</title>
<g id="a_node36"><a xlink:href="semaphore_8h_source.html" target="_top" xlink:title="l4/sys/semaphore.h">
<polygon fill="#ffffff" stroke="#000000" points="210,-369.5 210,-388.5 318,-388.5 318,-369.5 210,-369.5"/>
<text text-anchor="middle" x="264" y="-376.5" font-family="Helvetica,sans-Serif" font-size="10.00" fill="#000000">l4/sys/semaphore.h</text>
</a>
</g>
</g>
<!-- Node12&#45;&gt;Node46 -->
<g id="edge43" class="edge">
<title>Node12&#45;&gt;Node46</title>
<path fill="none" stroke="#191970" d="M264,-415.1575C264,-406.155 264,-395.9199 264,-388.6427"/>
<polygon fill="#191970" stroke="#191970" points="260.5001,-415.2455 264,-425.2455 267.5001,-415.2456 260.5001,-415.2455"/>
</g>
<!-- Node14 -->
<g id="node4" class="node">
<title>Node14</title>
<g id="a_node4"><a xlink:href="shmc_8h.html" target="_top" xlink:title="Shared memory library header file. ">
<polygon fill="#ffffff" stroke="#000000" points="97.5,-313.5 97.5,-332.5 186.5,-332.5 186.5,-313.5 97.5,-313.5"/>
<text text-anchor="middle" x="142" y="-320.5" font-family="Helvetica,sans-Serif" font-size="10.00" fill="#000000">l4/shmc/shmc.h</text>
</a>
</g>
</g>
<!-- Node13&#45;&gt;Node14 -->
<g id="edge3" class="edge">
<title>Node13&#45;&gt;Node14</title>
<path fill="none" stroke="#191970" d="M142,-359.1575C142,-350.155 142,-339.9199 142,-332.6427"/>
<polygon fill="#191970" stroke="#191970" points="138.5001,-359.2455 142,-369.2455 145.5001,-359.2456 138.5001,-359.2455"/>
</g>
<!-- Node16 -->
<g id="node6" class="node">
<title>Node16</title>
<g id="a_node6"><a xlink:href="icu.html" target="_top" xlink:title="Interrupt controller. ">
<polygon fill="#ffffff" stroke="#000000" points="492.5,-313.5 492.5,-332.5 551.5,-332.5 551.5,-313.5 492.5,-313.5"/>
<text text-anchor="middle" x="522" y="-320.5" font-family="Helvetica,sans-Serif" font-size="10.00" fill="#000000">l4/sys/icu</text>
</a>
</g>
</g>
<!-- Node15&#45;&gt;Node16 -->
<g id="edge5" class="edge">
<title>Node15&#45;&gt;Node16</title>
<path fill="none" stroke="#191970" d="M403.9614,-365.9231C432.1134,-355.686 470.6055,-341.6889 495.8719,-332.5011"/>
<polygon fill="#191970" stroke="#191970" points="402.6754,-362.6665 394.4735,-369.3733 405.0676,-369.245 402.6754,-362.6665"/>
</g>
<!-- Node41 -->
<g id="node31" class="node">
<title>Node41</title>
<g id="a_node31"><a xlink:href="l4virtio_source.html" target="_top" xlink:title="l4/l4virtio/l4virtio">
<polygon fill="#ffffff" stroke="#000000" points="59,-140 59,-159 151,-159 151,-140 59,-140"/>
<text text-anchor="middle" x="105" y="-147" font-family="Helvetica,sans-Serif" font-size="10.00" fill="#000000">l4/l4virtio/l4virtio</text>
</a>
</g>
</g>
<!-- Node15&#45;&gt;Node41 -->
<g id="edge33" class="edge">
<title>Node15&#45;&gt;Node41</title>
<path fill="none" stroke="#191970" d="M356.1642,-360.767C346.7087,-346.8964 332.6541,-327.7474 318,-313 251.4608,-246.0375 156.9134,-182.7089 120.3016,-159.1641"/>
<polygon fill="#191970" stroke="#191970" points="353.4662,-363.0297 361.9264,-369.4075 359.29,-359.1459 353.4662,-363.0297"/>
</g>
<!-- Node42 -->
<g id="node32" class="node">
<title>Node42</title>
<g id="a_node32"><a xlink:href="semaphore.html" target="_top" xlink:title="Semaphore class definition. ">
<polygon fill="#ffffff" stroke="#000000" points="209,-313.5 209,-332.5 309,-332.5 309,-313.5 209,-313.5"/>
<text text-anchor="middle" x="259" y="-320.5" font-family="Helvetica,sans-Serif" font-size="10.00" fill="#000000">l4/sys/semaphore</text>
</a>
</g>
</g>
<!-- Node15&#45;&gt;Node42 -->
<g id="edge35" class="edge">
<title>Node15&#45;&gt;Node42</title>
<path fill="none" stroke="#191970" d="M339.9658,-364.5971C320.4254,-354.558 294.8908,-341.4393 277.7688,-332.6427"/>
<polygon fill="#191970" stroke="#191970" points="338.5194,-367.7889 349.0136,-369.2455 341.7183,-361.5625 338.5194,-367.7889"/>
</g>
<!-- Node43 -->
<g id="node33" class="node">
<title>Node43</title>
<g id="a_node33"><a xlink:href="event_source.html" target="_top" xlink:title="l4/re/event">
<polygon fill="#ffffff" stroke="#000000" points="1012.5,-313.5 1012.5,-332.5 1079.5,-332.5 1079.5,-313.5 1012.5,-313.5"/>
<text text-anchor="middle" x="1046" y="-320.5" font-family="Helvetica,sans-Serif" font-size="10.00" fill="#000000">l4/re/event</text>
</a>
</g>
</g>
<!-- Node15&#45;&gt;Node43 -->
<g id="edge37" class="edge">
<title>Node15&#45;&gt;Node43</title>
<path fill="none" stroke="#191970" d="M407.5905,-372.877C417.5041,-371.4726 428.1274,-370.0775 438,-369 656.3572,-345.1694 920.1845,-329.7491 1012.313,-324.7616"/>
<polygon fill="#191970" stroke="#191970" points="406.9708,-369.4301 397.5776,-374.3309 407.9768,-376.3575 406.9708,-369.4301"/>
</g>
<!-- Node17 -->
<g id="node7" class="node">
<title>Node17</title>
<g id="a_node7"><a xlink:href="vcon.html" target="_top" xlink:title="Virtual console interface. ">
<polygon fill="#ffffff" stroke="#000000" points="345.5,-257.5 345.5,-276.5 414.5,-276.5 414.5,-257.5 345.5,-257.5"/>
<text text-anchor="middle" x="380" y="-264.5" font-family="Helvetica,sans-Serif" font-size="10.00" fill="#000000">l4/sys/vcon</text>
</a>
</g>
</g>
<!-- Node16&#45;&gt;Node17 -->
<g id="edge6" class="edge">
<title>Node16&#45;&gt;Node17</title>
<path fill="none" stroke="#191970" d="M488.1585,-309.6541C462.2634,-299.4419 427.1862,-285.6086 404.0921,-276.5011"/>
<polygon fill="#191970" stroke="#191970" points="487.0025,-312.9605 497.5893,-313.3733 489.5707,-306.4486 487.0025,-312.9605"/>
</g>
<!-- Node29 -->
<g id="node19" class="node">
<title>Node29</title>
<g id="a_node19"><a xlink:href="icu__svr_source.html" target="_top" xlink:title="l4/re/util/icu_svr">
<polygon fill="#ffffff" stroke="#000000" points="818.5,-73 818.5,-92 907.5,-92 907.5,-73 818.5,-73"/>
<text text-anchor="middle" x="863" y="-80" font-family="Helvetica,sans-Serif" font-size="10.00" fill="#000000">l4/re/util/icu_svr</text>
</a>
</g>
</g>
<!-- Node16&#45;&gt;Node29 -->
<g id="edge28" class="edge">
<title>Node16&#45;&gt;Node29</title>
<path fill="none" stroke="#191970" d="M561.6549,-313.238C583.6477,-306.1723 610.256,-294.6938 629,-277 656.4619,-251.0767 641.3875,-228.752 667,-201 717.1606,-146.6493 797.8986,-108.7216 838.3018,-92.0436"/>
<polygon fill="#191970" stroke="#191970" points="560.4795,-309.9368 551.9198,-316.1804 562.5048,-316.6375 560.4795,-309.9368"/>
</g>
<!-- Node35 -->
<g id="node25" class="node">
<title>Node35</title>
<g id="a_node25"><a xlink:href="scheduler.html" target="_top" xlink:title="Scheduler object functions. ">
<polygon fill="#ffffff" stroke="#000000" points="528,-257.5 528,-276.5 620,-276.5 620,-257.5 528,-257.5"/>
<text text-anchor="middle" x="574" y="-264.5" font-family="Helvetica,sans-Serif" font-size="10.00" fill="#000000">l4/sys/scheduler</text>
</a>
</g>
</g>
<!-- Node16&#45;&gt;Node35 -->
<g id="edge26" class="edge">
<title>Node16&#45;&gt;Node35</title>
<path fill="none" stroke="#191970" d="M537.9822,-305.7884C546.8778,-296.2085 557.6204,-284.6396 565.0461,-276.6427"/>
<polygon fill="#191970" stroke="#191970" points="535.2975,-303.536 531.0577,-313.2455 540.427,-308.2992 535.2975,-303.536"/>
</g>
<!-- Node36 -->
<g id="node26" class="node">
<title>Node36</title>
<g id="a_node26"><a xlink:href="random_source.html" target="_top" xlink:title="l4/re/random">
<polygon fill="#ffffff" stroke="#000000" points="432.5,-257.5 432.5,-276.5 509.5,-276.5 509.5,-257.5 432.5,-257.5"/>
<text text-anchor="middle" x="471" y="-264.5" font-family="Helvetica,sans-Serif" font-size="10.00" fill="#000000">l4/re/random</text>
</a>
</g>
</g>
<!-- Node16&#45;&gt;Node36 -->
<g id="edge27" class="edge">
<title>Node16&#45;&gt;Node36</title>
<path fill="none" stroke="#191970" d="M506.3251,-305.7884C497.6006,-296.2085 487.0646,-284.6396 479.7817,-276.6427"/>
<polygon fill="#191970" stroke="#191970" points="503.7954,-308.2088 513.1165,-313.2455 508.9709,-303.4954 503.7954,-308.2088"/>
</g>
<!-- Node37 -->
<g id="node27" class="node">
<title>Node37</title>
<g id="a_node27"><a xlink:href="vbus_source.html" target="_top" xlink:title="l4/vbus/vbus">
<polygon fill="#ffffff" stroke="#000000" points="821.5,-257.5 821.5,-276.5 894.5,-276.5 894.5,-257.5 821.5,-257.5"/>
<text text-anchor="middle" x="858" y="-264.5" font-family="Helvetica,sans-Serif" font-size="10.00" fill="#000000">l4/vbus/vbus</text>
</a>
</g>
</g>
<!-- Node16&#45;&gt;Node37 -->
<g id="edge29" class="edge">
<title>Node16&#45;&gt;Node37</title>
<path fill="none" stroke="#191970" d="M561.4774,-316.4204C627.101,-305.4832 757.7008,-283.7165 821.3809,-273.1032"/>
<polygon fill="#191970" stroke="#191970" points="560.8118,-312.983 551.5233,-318.0795 561.9626,-319.8878 560.8118,-312.983"/>
</g>
<!-- Node18 -->
<g id="node8" class="node">
<title>Node18</title>
<g id="a_node8"><a xlink:href="log.html" target="_top" xlink:title="Log interface. ">
<polygon fill="#ffffff" stroke="#000000" points="352.5,-201.5 352.5,-220.5 407.5,-220.5 407.5,-201.5 352.5,-201.5"/>
<text text-anchor="middle" x="380" y="-208.5" font-family="Helvetica,sans-Serif" font-size="10.00" fill="#000000">l4/re/log</text>
</a>
</g>
</g>
<!-- Node17&#45;&gt;Node18 -->
<g id="edge7" class="edge">
<title>Node17&#45;&gt;Node18</title>
<path fill="none" stroke="#191970" d="M380,-247.1575C380,-238.155 380,-227.9199 380,-220.6427"/>
<polygon fill="#191970" stroke="#191970" points="376.5001,-247.2455 380,-257.2455 383.5001,-247.2456 376.5001,-247.2455"/>
</g>
<!-- Node33 -->
<g id="node23" class="node">
<title>Node33</title>
<g id="a_node23"><a xlink:href="vcon__stream_8h_source.html" target="_top" xlink:title="l4/l4re_vfs/impl/vcon\l_stream.h">
<polygon fill="#ffffff" stroke="#000000" points="228.5,-134.5 228.5,-164.5 341.5,-164.5 341.5,-134.5 228.5,-134.5"/>
<text text-anchor="start" x="236.5" y="-152.5" font-family="Helvetica,sans-Serif" font-size="10.00" fill="#000000">l4/l4re_vfs/impl/vcon</text>
<text text-anchor="middle" x="285" y="-141.5" font-family="Helvetica,sans-Serif" font-size="10.00" fill="#000000">_stream.h</text>
</a>
</g>
</g>
<!-- Node17&#45;&gt;Node33 -->
<g id="edge22" class="edge">
<title>Node17&#45;&gt;Node33</title>
<path fill="none" stroke="#191970" d="M365.8323,-249.4768C347.2411,-226.4825 314.9146,-186.4996 297.3009,-164.7143"/>
<polygon fill="#191970" stroke="#191970" points="363.2168,-251.8087 372.2258,-257.3845 368.6602,-247.4076 363.2168,-251.8087"/>
</g>
<!-- Node34 -->
<g id="node24" class="node">
<title>Node34</title>
<g id="a_node24"><a xlink:href="vcon__svr_source.html" target="_top" xlink:title="l4/re/util/vcon_svr">
<polygon fill="#ffffff" stroke="#000000" points="425.5,-201.5 425.5,-220.5 524.5,-220.5 524.5,-201.5 425.5,-201.5"/>
<text text-anchor="middle" x="475" y="-208.5" font-family="Helvetica,sans-Serif" font-size="10.00" fill="#000000">l4/re/util/vcon_svr</text>
</a>
</g>
</g>
<!-- Node17&#45;&gt;Node34 -->
<g id="edge25" class="edge">
<title>Node17&#45;&gt;Node34</title>
<path fill="none" stroke="#191970" d="M405.3676,-252.0465C422.271,-242.0824 443.9904,-229.2794 458.6419,-220.6427"/>
<polygon fill="#191970" stroke="#191970" points="403.3851,-249.1522 396.5477,-257.2455 406.9398,-255.1825 403.3851,-249.1522"/>
</g>
<!-- Node19 -->
<g id="node9" class="node">
<title>Node19</title>
<g id="a_node9"><a xlink:href="env.html" target="_top" xlink:title="Environment interface. ">
<polygon fill="#ffffff" stroke="#000000" points="481,-140 481,-159 539,-159 539,-140 481,-140"/>
<text text-anchor="middle" x="510" y="-147" font-family="Helvetica,sans-Serif" font-size="10.00" fill="#000000">l4/re/env</text>
</a>
</g>
</g>
<!-- Node18&#45;&gt;Node19 -->
<g id="edge8" class="edge">
<title>Node18&#45;&gt;Node19</title>
<path fill="none" stroke="#191970" d="M409.5181,-197.0357C434.0577,-185.4265 468.3258,-169.2151 489.8301,-159.0419"/>
<polygon fill="#191970" stroke="#191970" points="407.8553,-193.9504 400.3125,-201.3906 410.8488,-200.278 407.8553,-193.9504"/>
</g>
<!-- Node20 -->
<g id="node10" class="node">
<title>Node20</title>
<g id="a_node10"><a xlink:href="vcpu_source.html" target="_top" xlink:title="l4/vcpu/vcpu">
<polygon fill="#ffffff" stroke="#000000" points="473,-73 473,-92 547,-92 547,-73 473,-73"/>
<text text-anchor="middle" x="510" y="-80" font-family="Helvetica,sans-Serif" font-size="10.00" fill="#000000">l4/vcpu/vcpu</text>
</a>
</g>
</g>
<!-- Node19&#45;&gt;Node20 -->
<g id="edge9" class="edge">
<title>Node19&#45;&gt;Node20</title>
<path fill="none" stroke="#191970" d="M510,-129.6079C510,-117.214 510,-101.8263 510,-92.0817"/>
<polygon fill="#191970" stroke="#191970" points="506.5001,-129.9005 510,-139.9005 513.5001,-129.9006 506.5001,-129.9005"/>
</g>
<!-- Node21 -->
<g id="node11" class="node">
<title>Node21</title>
<g id="a_node11"><a xlink:href="server_2l4virtio_source.html" target="_top" xlink:title="l4/l4virtio/server\l/l4virtio">
<polygon fill="#ffffff" stroke="#000000" points="0,-67.5 0,-97.5 92,-97.5 92,-67.5 0,-67.5"/>
<text text-anchor="start" x="8" y="-85.5" font-family="Helvetica,sans-Serif" font-size="10.00" fill="#000000">l4/l4virtio/server</text>
<text text-anchor="middle" x="46" y="-74.5" font-family="Helvetica,sans-Serif" font-size="10.00" fill="#000000">/l4virtio</text>
</a>
</g>
</g>
<!-- Node19&#45;&gt;Node21 -->
<g id="edge10" class="edge">
<title>Node19&#45;&gt;Node21</title>
<path fill="none" stroke="#191970" d="M470.7061,-145.3111C382.5739,-135.7926 171.3503,-112.2589 101,-98 98.0831,-97.4088 95.0946,-96.7433 92.0913,-96.029"/>
<polygon fill="#191970" stroke="#191970" points="470.5087,-148.81 480.826,-146.4009 471.2582,-141.8502 470.5087,-148.81"/>
</g>
<!-- Node23 -->
<g id="node13" class="node">
<title>Node23</title>
<g id="a_node13"><a xlink:href="env__ns_source.html" target="_top" xlink:title="l4/re/util/env_ns">
<polygon fill="#ffffff" stroke="#000000" points="363.5,-73 363.5,-92 454.5,-92 454.5,-73 363.5,-73"/>
<text text-anchor="middle" x="409" y="-80" font-family="Helvetica,sans-Serif" font-size="10.00" fill="#000000">l4/re/util/env_ns</text>
</a>
</g>
</g>
<!-- Node19&#45;&gt;Node23 -->
<g id="edge12" class="edge">
<title>Node19&#45;&gt;Node23</title>
<path fill="none" stroke="#191970" d="M487.1799,-134.3619C467.6339,-121.3957 440.0823,-103.119 423.444,-92.0817"/>
<polygon fill="#191970" stroke="#191970" points="485.2612,-137.2892 495.5292,-139.9005 489.1308,-131.4559 485.2612,-137.2892"/>
</g>
<!-- Node25 -->
<g id="node15" class="node">
<title>Node25</title>
<g id="a_node15"><a xlink:href="ro__file__impl_8h_source.html" target="_top" xlink:title="l4/l4re_vfs/impl/ro\l_file_impl.h">
<polygon fill="#ffffff" stroke="#000000" points="565,-67.5 565,-97.5 665,-97.5 665,-67.5 565,-67.5"/>
<text text-anchor="start" x="573" y="-85.5" font-family="Helvetica,sans-Serif" font-size="10.00" fill="#000000">l4/l4re_vfs/impl/ro</text>
<text text-anchor="middle" x="615" y="-74.5" font-family="Helvetica,sans-Serif" font-size="10.00" fill="#000000">_file_impl.h</text>
</a>
</g>
</g>
<!-- Node19&#45;&gt;Node25 -->
<g id="edge14" class="edge">
<title>Node19&#45;&gt;Node25</title>
<path fill="none" stroke="#191970" d="M533.9364,-134.2263C551.1724,-123.2281 574.3135,-108.4618 591.4584,-97.5218"/>
<polygon fill="#191970" stroke="#191970" points="531.5912,-131.5708 525.0439,-139.9005 535.3567,-137.4719 531.5912,-131.5708"/>
</g>
<!-- Node26 -->
<g id="node16" class="node">
<title>Node26</title>
<g id="a_node16"><a xlink:href="vcon__stream__impl_8h_source.html" target="_top" xlink:title="l4/l4re_vfs/impl/vcon\l_stream_impl.h">
<polygon fill="#ffffff" stroke="#000000" points="232.5,-67.5 232.5,-97.5 345.5,-97.5 345.5,-67.5 232.5,-67.5"/>
<text text-anchor="start" x="240.5" y="-85.5" font-family="Helvetica,sans-Serif" font-size="10.00" fill="#000000">l4/l4re_vfs/impl/vcon</text>
<text text-anchor="middle" x="289" y="-74.5" font-family="Helvetica,sans-Serif" font-size="10.00" fill="#000000">_stream_impl.h</text>
</a>
</g>
</g>
<!-- Node19&#45;&gt;Node26 -->
<g id="edge15" class="edge">
<title>Node19&#45;&gt;Node26</title>
<path fill="none" stroke="#191970" d="M470.7849,-137.6112C433.9668,-126.4492 378.727,-109.7023 338.8076,-97.6001"/>
<polygon fill="#191970" stroke="#191970" points="470.0676,-141.051 480.6529,-140.6029 472.0985,-134.3521 470.0676,-141.051"/>
</g>
<!-- Node27 -->
<g id="node17" class="node">
<title>Node27</title>
<g id="a_node17"><a xlink:href="vfs__impl_8h_source.html" target="_top" xlink:title="l4/l4re_vfs/impl/vfs\l_impl.h">
<polygon fill="#ffffff" stroke="#000000" points="110,-67.5 110,-97.5 214,-97.5 214,-67.5 110,-67.5"/>
<text text-anchor="start" x="118" y="-85.5" font-family="Helvetica,sans-Serif" font-size="10.00" fill="#000000">l4/l4re_vfs/impl/vfs</text>
<text text-anchor="middle" x="162" y="-74.5" font-family="Helvetica,sans-Serif" font-size="10.00" fill="#000000">_impl.h</text>
</a>
</g>
</g>
<!-- Node19&#45;&gt;Node27 -->
<g id="edge16" class="edge">
<title>Node19&#45;&gt;Node27</title>
<path fill="none" stroke="#191970" d="M470.8571,-143.3841C415.45,-134.5211 311.0806,-117.0679 223,-98 220.1166,-97.3758 217.1628,-96.7108 214.1856,-96.0207"/>
<polygon fill="#191970" stroke="#191970" points="470.5166,-146.8739 480.9424,-144.9888 471.6166,-139.9608 470.5166,-146.8739"/>
</g>
<!-- Node28 -->
<g id="node18" class="node">
<title>Node28</title>
<g id="a_node18"><a xlink:href="util_2event.html" target="_top" xlink:title="l4/re/util/event">
<polygon fill="#ffffff" stroke="#000000" points="925.5,-73 925.5,-92 1008.5,-92 1008.5,-73 925.5,-73"/>
<text text-anchor="middle" x="967" y="-80" font-family="Helvetica,sans-Serif" font-size="10.00" fill="#000000">l4/re/util/event</text>
</a>
</g>
</g>
<!-- Node19&#45;&gt;Node28 -->
<g id="edge17" class="edge">
<title>Node19&#45;&gt;Node28</title>
<path fill="none" stroke="#191970" d="M549.2872,-146.8228C622.3513,-141.3385 783.8083,-126.8397 917,-98 924.2834,-96.4229 932.0309,-94.2659 939.1979,-92.0622"/>
<polygon fill="#191970" stroke="#191970" points="548.879,-143.3433 539.1625,-147.5672 549.3923,-150.3244 548.879,-143.3433"/>
</g>
<!-- Node19&#45;&gt;Node29 -->
<g id="edge18" class="edge">
<title>Node19&#45;&gt;Node29</title>
<path fill="none" stroke="#191970" d="M549.3022,-144.2192C606.8939,-136.1505 717.4231,-119.4093 810,-98 817.3788,-96.2936 825.2507,-94.1643 832.6087,-92.0356"/>
<polygon fill="#191970" stroke="#191970" points="548.6048,-140.7823 539.1809,-145.624 549.5672,-147.7159 548.6048,-140.7823"/>
</g>
<!-- Node31 -->
<g id="node21" class="node">
<title>Node31</title>
<g id="a_node21"><a xlink:href="kumem__alloc.html" target="_top" xlink:title="Kumem allocator helper. ">
<polygon fill="#ffffff" stroke="#000000" points="683.5,-73 683.5,-92 800.5,-92 800.5,-73 683.5,-73"/>
<text text-anchor="middle" x="742" y="-80" font-family="Helvetica,sans-Serif" font-size="10.00" fill="#000000">l4/re/util/kumem_alloc</text>
</a>
</g>
</g>
<!-- Node19&#45;&gt;Node31 -->
<g id="edge20" class="edge">
<title>Node19&#45;&gt;Node31</title>
<path fill="none" stroke="#191970" d="M549.0426,-138.2248C593.8376,-125.2883 666.5288,-104.2956 708.7389,-92.1056"/>
<polygon fill="#191970" stroke="#191970" points="548.0192,-134.8772 539.383,-141.0144 549.9615,-141.6024 548.0192,-134.8772"/>
</g>
<!-- Node32 -->
<g id="node22" class="node">
<title>Node32</title>
<g id="a_node22"><a xlink:href="object__registry_source.html" target="_top" xlink:title="l4/re/util/object_registry">
<polygon fill="#ffffff" stroke="#000000" points="1026.5,-73 1026.5,-92 1151.5,-92 1151.5,-73 1026.5,-73"/>
<text text-anchor="middle" x="1089" y="-80" font-family="Helvetica,sans-Serif" font-size="10.00" fill="#000000">l4/re/util/object_registry</text>
</a>
</g>
</g>
<!-- Node19&#45;&gt;Node32 -->
<g id="edge21" class="edge">
<title>Node19&#45;&gt;Node32</title>
<path fill="none" stroke="#191970" d="M549.1084,-147.0602C634.5726,-141.3951 844.2527,-125.6802 1018,-98 1028.0923,-96.3922 1038.906,-94.25 1048.9744,-92.0727"/>
<polygon fill="#191970" stroke="#191970" points="548.8245,-143.5712 539.0744,-147.7168 549.2816,-150.5563 548.8245,-143.5712"/>
</g>
<!-- Node22 -->
<g id="node12" class="node">
<title>Node22</title>
<g id="a_node12"><a xlink:href="virtio-block_source.html" target="_top" xlink:title="l4/l4virtio/server\l/virtio&#45;block">
<polygon fill="#ffffff" stroke="#000000" points="0,-.5 0,-30.5 92,-30.5 92,-.5 0,-.5"/>
<text text-anchor="start" x="8" y="-18.5" font-family="Helvetica,sans-Serif" font-size="10.00" fill="#000000">l4/l4virtio/server</text>
<text text-anchor="middle" x="46" y="-7.5" font-family="Helvetica,sans-Serif" font-size="10.00" fill="#000000">/virtio&#45;block</text>
</a>
</g>
</g>
<!-- Node21&#45;&gt;Node22 -->
<g id="edge11" class="edge">
<title>Node21&#45;&gt;Node22</title>
<path fill="none" stroke="#191970" d="M46,-57.0249C46,-48.128 46,-38.4287 46,-30.6432"/>
<polygon fill="#191970" stroke="#191970" points="42.5001,-57.2966 46,-67.2967 49.5001,-57.2967 42.5001,-57.2966"/>
</g>
<!-- Node24 -->
<g id="node14" class="node">
<title>Node24</title>
<g id="a_node14"><a xlink:href="ns__fs__impl_8h_source.html" target="_top" xlink:title="l4/l4re_vfs/impl/ns\l_fs_impl.h">
<polygon fill="#ffffff" stroke="#000000" points="358.5,-.5 358.5,-30.5 459.5,-30.5 459.5,-.5 358.5,-.5"/>
<text text-anchor="start" x="366.5" y="-18.5" font-family="Helvetica,sans-Serif" font-size="10.00" fill="#000000">l4/l4re_vfs/impl/ns</text>
<text text-anchor="middle" x="409" y="-7.5" font-family="Helvetica,sans-Serif" font-size="10.00" fill="#000000">_fs_impl.h</text>
</a>
</g>
</g>
<!-- Node23&#45;&gt;Node24 -->
<g id="edge13" class="edge">
<title>Node23&#45;&gt;Node24</title>
<path fill="none" stroke="#191970" d="M409,-62.7758C409,-52.4641 409,-40.0437 409,-30.5218"/>
<polygon fill="#191970" stroke="#191970" points="405.5001,-62.9005 409,-72.9005 412.5001,-62.9006 405.5001,-62.9005"/>
</g>
<!-- Node30 -->
<g id="node20" class="node">
<title>Node30</title>
<g id="a_node20"><a xlink:href="event__svr_source.html" target="_top" xlink:title="l4/re/util/event_svr">
<polygon fill="#ffffff" stroke="#000000" points="969.5,-6 969.5,-25 1072.5,-25 1072.5,-6 969.5,-6"/>
<text text-anchor="middle" x="1021" y="-13" font-family="Helvetica,sans-Serif" font-size="10.00" fill="#000000">l4/re/util/event_svr</text>
</a>
</g>
</g>
<!-- Node29&#45;&gt;Node30 -->
<g id="edge19" class="edge">
<title>Node29&#45;&gt;Node30</title>
<path fill="none" stroke="#191970" d="M895.0437,-68.9118C925.753,-55.8895 971.3209,-36.5664 998.4044,-25.0817"/>
<polygon fill="#191970" stroke="#191970" points="893.4776,-65.7742 885.6375,-72.9005 896.2104,-72.2187 893.4776,-65.7742"/>
</g>
<!-- Node33&#45;&gt;Node26 -->
<g id="edge23" class="edge">
<title>Node33&#45;&gt;Node26</title>
<path fill="none" stroke="#191970" d="M286.5209,-124.0249C287.0521,-115.128 287.6311,-105.4287 288.0959,-97.6432"/>
<polygon fill="#191970" stroke="#191970" points="283.0099,-124.1058 285.9077,-134.2967 289.9975,-124.5231 283.0099,-124.1058"/>
</g>
<!-- Node33&#45;&gt;Node27 -->
<g id="edge24" class="edge">
<title>Node33&#45;&gt;Node27</title>
<path fill="none" stroke="#191970" d="M248.5317,-129.6352C229.7823,-119.422 207.2901,-107.1702 189.937,-97.7177"/>
<polygon fill="#191970" stroke="#191970" points="246.9405,-132.7539 257.3964,-134.4639 250.289,-126.6067 246.9405,-132.7539"/>
</g>
<!-- Node38 -->
<g id="node28" class="node">
<title>Node38</title>
<g id="a_node28"><a xlink:href="vbus__generic_source.html" target="_top" xlink:title="l4/vbus/vbus_generic">
<polygon fill="#ffffff" stroke="#000000" points="676,-201.5 676,-220.5 790,-220.5 790,-201.5 676,-201.5"/>
<text text-anchor="middle" x="733" y="-208.5" font-family="Helvetica,sans-Serif" font-size="10.00" fill="#000000">l4/vbus/vbus_generic</text>
</a>
</g>
</g>
<!-- Node37&#45;&gt;Node38 -->
<g id="edge30" class="edge">
<title>Node37&#45;&gt;Node38</title>
<path fill="none" stroke="#191970" d="M827.302,-253.2473C804.6007,-243.0771 774.2685,-229.4883 754.2079,-220.5011"/>
<polygon fill="#191970" stroke="#191970" points="825.9547,-256.4789 836.5117,-257.3733 828.8167,-250.0906 825.9547,-256.4789"/>
</g>
<!-- Node39 -->
<g id="node29" class="node">
<title>Node39</title>
<g id="a_node29"><a xlink:href="vbus__gpio_source.html" target="_top" xlink:title="l4/vbus/vbus_gpio">
<polygon fill="#ffffff" stroke="#000000" points="808.5,-201.5 808.5,-220.5 907.5,-220.5 907.5,-201.5 808.5,-201.5"/>
<text text-anchor="middle" x="858" y="-208.5" font-family="Helvetica,sans-Serif" font-size="10.00" fill="#000000">l4/vbus/vbus_gpio</text>
</a>
</g>
</g>
<!-- Node37&#45;&gt;Node39 -->
<g id="edge31" class="edge">
<title>Node37&#45;&gt;Node39</title>
<path fill="none" stroke="#191970" d="M858,-247.1575C858,-238.155 858,-227.9199 858,-220.6427"/>
<polygon fill="#191970" stroke="#191970" points="854.5001,-247.2455 858,-257.2455 861.5001,-247.2456 854.5001,-247.2455"/>
</g>
<!-- Node40 -->
<g id="node30" class="node">
<title>Node40</title>
<g id="a_node30"><a xlink:href="vbus__pci_source.html" target="_top" xlink:title="l4/vbus/vbus_pci">
<polygon fill="#ffffff" stroke="#000000" points="926,-201.5 926,-220.5 1018,-220.5 1018,-201.5 926,-201.5"/>
<text text-anchor="middle" x="972" y="-208.5" font-family="Helvetica,sans-Serif" font-size="10.00" fill="#000000">l4/vbus/vbus_pci</text>
</a>
</g>
</g>
<!-- Node37&#45;&gt;Node40 -->
<g id="edge32" class="edge">
<title>Node37&#45;&gt;Node40</title>
<path fill="none" stroke="#191970" d="M886.8321,-252.8368C907.4395,-242.7139 934.6082,-229.3679 952.6584,-220.5011"/>
<polygon fill="#191970" stroke="#191970" points="885.0297,-249.8227 877.5973,-257.3733 888.116,-256.1056 885.0297,-249.8227"/>
</g>
<!-- Node41&#45;&gt;Node21 -->
<g id="edge34" class="edge">
<title>Node41&#45;&gt;Node21</title>
<path fill="none" stroke="#191970" d="M89.9063,-132.3597C80.4306,-121.5992 68.3267,-107.8541 59.2281,-97.5218"/>
<polygon fill="#191970" stroke="#191970" points="87.3112,-134.7087 96.5467,-139.9005 92.5646,-130.0825 87.3112,-134.7087"/>
</g>
<!-- Node42&#45;&gt;Node33 -->
<g id="edge36" class="edge">
<title>Node42&#45;&gt;Node33</title>
<path fill="none" stroke="#191970" d="M261.9191,-303.5205C267.1448,-268.6495 277.9921,-196.2644 282.7173,-164.7325"/>
<polygon fill="#191970" stroke="#191970" points="258.4557,-303.0164 260.4349,-313.4248 265.3784,-304.0539 258.4557,-303.0164"/>
</g>
<!-- Node43&#45;&gt;Node30 -->
<g id="edge41" class="edge">
<title>Node43&#45;&gt;Node30</title>
<path fill="none" stroke="#191970" d="M1089.5464,-315.3377C1113.7024,-308.9465 1142.5096,-297.4427 1161,-277 1181.4761,-254.3619 1180,-241.5246 1180,-211 1180,-211 1180,-211 1180,-149.5 1180,-111.8735 1185.8762,-95.2299 1161,-67 1138.6558,-41.6434 1102.7117,-28.7558 1072.8396,-22.2139"/>
<polygon fill="#191970" stroke="#191970" points="1088.4123,-312.0114 1079.5223,-317.7749 1090.0661,-318.8132 1088.4123,-312.0114"/>
</g>
<!-- Node43&#45;&gt;Node37 -->
<g id="edge42" class="edge">
<title>Node43&#45;&gt;Node37</title>
<path fill="none" stroke="#191970" d="M1003.8883,-310.4561C969.3782,-300.1765 921.2801,-285.8494 889.8966,-276.5011"/>
<polygon fill="#191970" stroke="#191970" points="1003.0986,-313.8728 1013.6816,-313.3733 1005.097,-307.1641 1003.0986,-313.8728"/>
</g>
<!-- Node44 -->
<g id="node34" class="node">
<title>Node44</title>
<g id="a_node34"><a xlink:href="console_source.html" target="_top" xlink:title="l4/re/console">
<polygon fill="#ffffff" stroke="#000000" points="1074.5,-257.5 1074.5,-276.5 1151.5,-276.5 1151.5,-257.5 1074.5,-257.5"/>
<text text-anchor="middle" x="1113" y="-264.5" font-family="Helvetica,sans-Serif" font-size="10.00" fill="#000000">l4/re/console</text>
</a>
</g>
</g>
<!-- Node43&#45;&gt;Node44 -->
<g id="edge38" class="edge">
<title>Node43&#45;&gt;Node44</title>
<path fill="none" stroke="#191970" d="M1065.5676,-306.645C1077.2198,-296.9058 1091.6084,-284.8795 1101.4632,-276.6427"/>
<polygon fill="#191970" stroke="#191970" points="1063.0988,-304.1469 1057.6705,-313.2455 1067.5879,-309.5179 1063.0988,-304.1469"/>
</g>
<!-- Node45 -->
<g id="node35" class="node">
<title>Node45</title>
<g id="a_node35"><a xlink:href="event__buffer_source.html" target="_top" xlink:title="l4/re/util/event_buffer">
<polygon fill="#ffffff" stroke="#000000" points="948.5,-140 948.5,-159 1063.5,-159 1063.5,-140 948.5,-140"/>
<text text-anchor="middle" x="1006" y="-147" font-family="Helvetica,sans-Serif" font-size="10.00" fill="#000000">l4/re/util/event_buffer</text>
</a>
</g>
</g>
<!-- Node43&#45;&gt;Node45 -->
<g id="edge39" class="edge">
<title>Node43&#45;&gt;Node45</title>
<path fill="none" stroke="#191970" d="M1044.3476,-303.2331C1041.9855,-278.8533 1036.8028,-236.3046 1027,-201 1022.815,-185.9279 1015.5172,-169.3082 1010.7221,-159.1352"/>
<polygon fill="#191970" stroke="#191970" points="1040.8759,-303.7052 1045.2647,-313.3482 1047.8473,-303.073 1040.8759,-303.7052"/>
</g>
<!-- Node45&#45;&gt;Node28 -->
<g id="edge40" class="edge">
<title>Node45&#45;&gt;Node28</title>
<path fill="none" stroke="#191970" d="M995.2953,-131.1099C987.9433,-118.4795 978.4812,-102.2241 972.5774,-92.0817"/>
<polygon fill="#191970" stroke="#191970" points="992.3566,-133.0188 1000.4123,-139.9005 998.4064,-129.4973 992.3566,-133.0188"/>
</g>
<!-- Node46&#45;&gt;Node42 -->
<g id="edge44" class="edge">
<title>Node46&#45;&gt;Node42</title>
<path fill="none" stroke="#191970" d="M262.2283,-359.1575C261.4246,-350.155 260.5107,-339.9199 259.861,-332.6427"/>
<polygon fill="#191970" stroke="#191970" points="258.7535,-359.5965 263.1291,-369.2455 265.7258,-358.9739 258.7535,-359.5965"/>
</g>
<!-- Node47&#45;&gt;Node15 -->
<g id="edge46" class="edge">
<title>Node47&#45;&gt;Node15</title>
<path fill="none" stroke="#191970" d="M369.2913,-415.1575C368.9698,-406.155 368.6043,-395.9199 368.3444,-388.6427"/>
<polygon fill="#191970" stroke="#191970" points="365.7968,-415.3769 369.6516,-425.2455 372.7924,-415.127 365.7968,-415.3769"/>
</g>
<!-- Node48 -->
<g id="node38" class="node">
<title>Node48</title>
<g id="a_node38"><a xlink:href="ipc__gate.html" target="_top" xlink:title="The C++ IPC gate interface. ">
<polygon fill="#ffffff" stroke="#000000" points="446.5,-369.5 446.5,-388.5 533.5,-388.5 533.5,-369.5 446.5,-369.5"/>
<text text-anchor="middle" x="490" y="-376.5" font-family="Helvetica,sans-Serif" font-size="10.00" fill="#000000">l4/sys/ipc_gate</text>
</a>
</g>
</g>
<!-- Node47&#45;&gt;Node48 -->
<g id="edge47" class="edge">
<title>Node47&#45;&gt;Node48</title>
<path fill="none" stroke="#191970" d="M399.7624,-421.1109C421.5232,-410.9559 450.4682,-397.4482 469.6405,-388.5011"/>
<polygon fill="#191970" stroke="#191970" points="398.2105,-417.9727 390.6287,-425.3733 401.1707,-424.316 398.2105,-417.9727"/>
</g>
<!-- Node48&#45;&gt;Node32 -->
<g id="edge48" class="edge">
<title>Node48&#45;&gt;Node32</title>
<path fill="none" stroke="#191970" d="M544.126,-377.57C671.5458,-373.7653 987.3306,-361.6612 1089,-333 1150.9856,-315.5259 1218,-331.4015 1218,-267 1218,-267 1218,-267 1218,-211 1218,-151.2549 1147.6874,-109.6871 1110.8831,-92.0212"/>
<polygon fill="#191970" stroke="#191970" points="543.7286,-374.0801 533.8353,-377.8714 543.9335,-381.0771 543.7286,-374.0801"/>
</g>
<!-- Node49&#45;&gt;Node48 -->
<g id="edge50" class="edge">
<title>Node49&#45;&gt;Node48</title>
<path fill="none" stroke="#191970" d="M490,-415.1575C490,-406.155 490,-395.9199 490,-388.6427"/>
<polygon fill="#191970" stroke="#191970" points="486.5001,-415.2455 490,-425.2455 493.5001,-415.2456 486.5001,-415.2455"/>
</g>
</g>
</svg>
