<?xml version="1.0" encoding="UTF-8" standalone="no"?>
<!DOCTYPE svg PUBLIC "-//W3C//DTD SVG 1.1//EN"
 "http://www.w3.org/Graphics/SVG/1.1/DTD/svg11.dtd">
<!-- Generated by graphviz version 2.40.1 (20161225.0304)
 -->
<!-- Title: l4/sys/rcv_endpoint Pages: 1 -->
<svg width="931pt" height="767pt"
 viewBox="0.00 0.00 930.50 767.00" xmlns="http://www.w3.org/2000/svg" xmlns:xlink="http://www.w3.org/1999/xlink">
<g id="graph0" class="graph" transform="scale(1 1) rotate(0) translate(4 763)">
<title>l4/sys/rcv_endpoint</title>
<polygon fill="#ffffff" stroke="transparent" points="-4,4 -4,-763 926.5,-763 926.5,4 -4,4"/>
<!-- Node0 -->
<g id="node1" class="node">
<title>Node0</title>
<polygon fill="#bfbfbf" stroke="#000000" points="102,-739.5 102,-758.5 210,-758.5 210,-739.5 102,-739.5"/>
<text text-anchor="middle" x="156" y="-746.5" font-family="Helvetica,sans-Serif" font-size="10.00" fill="#000000">l4/sys/rcv_endpoint</text>
</g>
<!-- Node1 -->
<g id="node2" class="node">
<title>Node1</title>
<g id="a_node2"><a xlink:href="rcv__endpoint_8h.html" target="_top" xlink:title="Receive endpoint C interface. ">
<polygon fill="#ffffff" stroke="#000000" points="166,-342 166,-361 282,-361 282,-342 166,-342"/>
<text text-anchor="middle" x="224" y="-349" font-family="Helvetica,sans-Serif" font-size="10.00" fill="#000000">l4/sys/rcv_endpoint.h</text>
</a>
</g>
</g>
<!-- Node0&#45;&gt;Node1 -->
<g id="edge1" class="edge">
<title>Node0&#45;&gt;Node1</title>
<path fill="none" stroke="#191970" d="M132.687,-739.4813C98.2982,-723.7105 38,-688.6879 38,-637 38,-637 38,-637 38,-469 38,-408.9513 108.1488,-378.3424 162.2867,-363.6612"/>
<polygon fill="#191970" stroke="#191970" points="163.3828,-366.993 172.1886,-361.1018 161.6309,-360.2158 163.3828,-366.993"/>
</g>
<!-- Node3 -->
<g id="node4" class="node">
<title>Node3</title>
<g id="a_node4"><a xlink:href="l4_2sys_2types_8h.html" target="_top" xlink:title="Common L4 ABI Data Types. ">
<polygon fill="#ffffff" stroke="#000000" points="664,-168.5 664,-187.5 744,-187.5 744,-168.5 664,-168.5"/>
<text text-anchor="middle" x="704" y="-175.5" font-family="Helvetica,sans-Serif" font-size="10.00" fill="#000000">l4/sys/types.h</text>
</a>
</g>
</g>
<!-- Node0&#45;&gt;Node3 -->
<g id="edge22" class="edge">
<title>Node0&#45;&gt;Node3</title>
<path fill="none" stroke="#191970" d="M210.123,-746.4227C379.4681,-737.6458 888,-705.5799 888,-637 888,-637 888,-637 888,-290 888,-227.1577 808.7191,-198.5582 754.2389,-186.3239"/>
<polygon fill="#191970" stroke="#191970" points="754.8892,-182.8839 744.3796,-184.2254 753.4318,-189.7306 754.8892,-182.8839"/>
</g>
<!-- Node12 -->
<g id="node13" class="node">
<title>Node12</title>
<g id="a_node13"><a xlink:href="capability.html" target="_top" xlink:title="L4::Cap related definitions. ">
<polygon fill="#ffffff" stroke="#000000" points="390,-683.5 390,-702.5 480,-702.5 480,-683.5 390,-683.5"/>
<text text-anchor="middle" x="435" y="-690.5" font-family="Helvetica,sans-Serif" font-size="10.00" fill="#000000">l4/sys/capability</text>
</a>
</g>
</g>
<!-- Node0&#45;&gt;Node12 -->
<g id="edge23" class="edge">
<title>Node0&#45;&gt;Node12</title>
<path fill="none" stroke="#191970" d="M203.6448,-739.4369C252.5243,-729.6259 328.4886,-714.3786 379.9184,-704.0558"/>
<polygon fill="#191970" stroke="#191970" points="380.7463,-707.4595 389.8619,-702.06 379.3687,-700.5964 380.7463,-707.4595"/>
</g>
<!-- Node22 -->
<g id="node23" class="node">
<title>Node22</title>
<g id="a_node23"><a xlink:href="ipc__iface.html" target="_top" xlink:title="Interface Definition Language. ">
<polygon fill="#ffffff" stroke="#000000" points="66.5,-515.5 66.5,-534.5 143.5,-534.5 143.5,-515.5 66.5,-515.5"/>
<text text-anchor="middle" x="105" y="-522.5" font-family="Helvetica,sans-Serif" font-size="10.00" fill="#000000">cxx/ipc_iface</text>
</a>
</g>
</g>
<!-- Node0&#45;&gt;Node22 -->
<g id="edge65" class="edge">
<title>Node0&#45;&gt;Node22</title>
<path fill="none" stroke="#191970" d="M153.8086,-739.375C146.0762,-705.4133 119.9692,-590.7472 109.4487,-544.5392"/>
<polygon fill="#191970" stroke="#191970" points="112.816,-543.5626 107.1832,-534.5891 105.9906,-545.1166 112.816,-543.5626"/>
</g>
<!-- Node2 -->
<g id="node3" class="node">
<title>Node2</title>
<g id="a_node3"><a xlink:href="l4_2sys_2utcb_8h.html" target="_top" xlink:title="UTCB definitions. ">
<polygon fill="#ffffff" stroke="#000000" points="422,-224.5 422,-243.5 496,-243.5 496,-224.5 422,-224.5"/>
<text text-anchor="middle" x="459" y="-231.5" font-family="Helvetica,sans-Serif" font-size="10.00" fill="#000000">l4/sys/utcb.h</text>
</a>
</g>
</g>
<!-- Node1&#45;&gt;Node2 -->
<g id="edge2" class="edge">
<title>Node1&#45;&gt;Node2</title>
<path fill="none" stroke="#191970" d="M231.2397,-341.5926C243.0592,-326.1305 268.008,-296.344 296,-280 331.8985,-259.0395 377.8584,-247.2008 411.8188,-240.8014"/>
<polygon fill="#191970" stroke="#191970" points="412.7229,-244.1952 421.9486,-238.9859 411.488,-237.305 412.7229,-244.1952"/>
</g>
<!-- Node1&#45;&gt;Node3 -->
<g id="edge16" class="edge">
<title>Node1&#45;&gt;Node3</title>
<path fill="none" stroke="#191970" d="M227.2976,-341.7725C232.924,-326.5569 245.7711,-297.102 266,-280 319.3902,-234.8626 345.4431,-241.999 413,-224 495.9919,-201.8887 595.311,-188.9931 653.8316,-182.7368"/>
<polygon fill="#191970" stroke="#191970" points="654.3376,-186.203 663.919,-181.6811 653.609,-179.241 654.3376,-186.203"/>
</g>
<!-- Node10 -->
<g id="node11" class="node">
<title>Node10</title>
<g id="a_node11"><a xlink:href="l4_2sys_2ipc_8h.html" target="_top" xlink:title="Common IPC interface. ">
<polygon fill="#ffffff" stroke="#000000" points="483,-280.5 483,-299.5 551,-299.5 551,-280.5 483,-280.5"/>
<text text-anchor="middle" x="517" y="-287.5" font-family="Helvetica,sans-Serif" font-size="10.00" fill="#000000">l4/sys/ipc.h</text>
</a>
</g>
</g>
<!-- Node1&#45;&gt;Node10 -->
<g id="edge17" class="edge">
<title>Node1&#45;&gt;Node10</title>
<path fill="none" stroke="#191970" d="M269.4598,-341.9581C324.8792,-330.3257 417.9105,-310.7986 472.7676,-299.2843"/>
<polygon fill="#191970" stroke="#191970" points="473.8104,-302.6418 482.8781,-297.1621 472.3723,-295.791 473.8104,-302.6418"/>
</g>
<!-- Node2&#45;&gt;Node3 -->
<g id="edge3" class="edge">
<title>Node2&#45;&gt;Node3</title>
<path fill="none" stroke="#191970" d="M496.2102,-225.4948C538.363,-215.8599 607.264,-200.1111 654.0667,-189.4133"/>
<polygon fill="#191970" stroke="#191970" points="655.0243,-192.7848 663.993,-187.1445 653.4645,-185.9608 655.0243,-192.7848"/>
</g>
<!-- Node4 -->
<g id="node5" class="node">
<title>Node4</title>
<g id="a_node5"><a xlink:href="l4_2sys_2l4int_8h.html" target="_top" xlink:title="Fixed sized integer types, generic version. ">
<polygon fill="#ffffff" stroke="#000000" points="674,-56.5 674,-75.5 748,-75.5 748,-56.5 674,-56.5"/>
<text text-anchor="middle" x="711" y="-63.5" font-family="Helvetica,sans-Serif" font-size="10.00" fill="#000000">l4/sys/l4int.h</text>
</a>
</g>
</g>
<!-- Node2&#45;&gt;Node4 -->
<g id="edge15" class="edge">
<title>Node2&#45;&gt;Node4</title>
<path fill="none" stroke="#191970" d="M473.2706,-224.4862C515.0149,-196.6567 637.1548,-115.2301 688.1838,-81.2108"/>
<polygon fill="#191970" stroke="#191970" points="690.1945,-84.0769 696.5735,-75.6177 686.3115,-78.2525 690.1945,-84.0769"/>
</g>
<!-- Node5 -->
<g id="node6" class="node">
<title>Node5</title>
<g id="a_node6"><a xlink:href="compiler_8h.html" target="_top" xlink:title="L4 compiler related defines. ">
<polygon fill="#ffffff" stroke="#000000" points="437.5,-56.5 437.5,-75.5 532.5,-75.5 532.5,-56.5 437.5,-56.5"/>
<text text-anchor="middle" x="485" y="-63.5" font-family="Helvetica,sans-Serif" font-size="10.00" fill="#000000">l4/sys/compiler.h</text>
</a>
</g>
</g>
<!-- Node2&#45;&gt;Node5 -->
<g id="edge14" class="edge">
<title>Node2&#45;&gt;Node5</title>
<path fill="none" stroke="#191970" d="M453.3931,-224.399C441.8155,-203.2371 417.7383,-151.3364 435,-112 440.3323,-99.8487 450.6339,-89.4938 460.5076,-81.7031"/>
<polygon fill="#191970" stroke="#191970" points="462.59,-84.5162 468.5823,-75.7788 458.4491,-78.8723 462.59,-84.5162"/>
</g>
<!-- Node3&#45;&gt;Node4 -->
<g id="edge4" class="edge">
<title>Node3&#45;&gt;Node4</title>
<path fill="none" stroke="#191970" d="M729.885,-168.4647C745.7227,-161.1252 764.6794,-149.2779 774,-132 785.1212,-111.3842 762.3735,-92.5635 741.1741,-80.3427"/>
<polygon fill="#191970" stroke="#191970" points="742.7458,-77.2136 732.2866,-75.5234 739.4089,-83.3671 742.7458,-77.2136"/>
</g>
<!-- Node3&#45;&gt;Node5 -->
<g id="edge5" class="edge">
<title>Node3&#45;&gt;Node5</title>
<path fill="none" stroke="#191970" d="M685.3282,-168.4509C646.7005,-148.6961 557.8498,-103.2565 512.5877,-80.1088"/>
<polygon fill="#191970" stroke="#191970" points="514.1215,-76.9621 503.6246,-75.5249 510.9342,-83.1943 514.1215,-76.9621"/>
</g>
<!-- Node7 -->
<g id="node8" class="node">
<title>Node7</title>
<g id="a_node8"><a xlink:href="l4_2sys_2consts_8h.html" target="_top" xlink:title="Common constants. ">
<polygon fill="#ffffff" stroke="#000000" points="477,-112.5 477,-131.5 563,-131.5 563,-112.5 477,-112.5"/>
<text text-anchor="middle" x="520" y="-119.5" font-family="Helvetica,sans-Serif" font-size="10.00" fill="#000000">l4/sys/consts.h</text>
</a>
</g>
</g>
<!-- Node3&#45;&gt;Node7 -->
<g id="edge7" class="edge">
<title>Node3&#45;&gt;Node7</title>
<path fill="none" stroke="#191970" d="M672.3693,-168.3733C641.6404,-159.021 594.824,-144.7725 561.1978,-134.5385"/>
<polygon fill="#191970" stroke="#191970" points="561.8038,-131.0644 551.218,-131.5011 559.7656,-137.7612 561.8038,-131.0644"/>
</g>
<!-- Node8 -->
<g id="node9" class="node">
<title>Node8</title>
<g id="a_node9"><a xlink:href="____l4__fpage_8h_source.html" target="_top" xlink:title="l4/sys/__l4_fpage.h">
<polygon fill="#ffffff" stroke="#000000" points="657,-112.5 657,-131.5 765,-131.5 765,-112.5 657,-112.5"/>
<text text-anchor="middle" x="711" y="-119.5" font-family="Helvetica,sans-Serif" font-size="10.00" fill="#000000">l4/sys/__l4_fpage.h</text>
</a>
</g>
</g>
<!-- Node3&#45;&gt;Node8 -->
<g id="edge10" class="edge">
<title>Node3&#45;&gt;Node8</title>
<path fill="none" stroke="#191970" d="M705.2193,-168.2455C706.1327,-160.9382 707.4132,-150.6944 708.5369,-141.7046"/>
<polygon fill="#191970" stroke="#191970" points="712.0272,-141.9996 709.7947,-131.6427 705.0813,-141.1313 712.0272,-141.9996"/>
</g>
<!-- Node9 -->
<g id="node10" class="node">
<title>Node9</title>
<g id="a_node10"><a xlink:href="____timeout_8h_source.html" target="_top" xlink:title="l4/sys/__timeout.h">
<polygon fill="#ffffff" stroke="#000000" points="821.5,-112.5 821.5,-131.5 922.5,-131.5 922.5,-112.5 821.5,-112.5"/>
<text text-anchor="middle" x="872" y="-119.5" font-family="Helvetica,sans-Serif" font-size="10.00" fill="#000000">l4/sys/__timeout.h</text>
</a>
</g>
</g>
<!-- Node3&#45;&gt;Node9 -->
<g id="edge12" class="edge">
<title>Node3&#45;&gt;Node9</title>
<path fill="none" stroke="#191970" d="M732.8802,-168.3733C760.8161,-159.0613 803.3142,-144.8953 833.9869,-134.671"/>
<polygon fill="#191970" stroke="#191970" points="835.1166,-137.9839 843.4966,-131.5011 832.903,-131.3431 835.1166,-137.9839"/>
</g>
<!-- Node6 -->
<g id="node7" class="node">
<title>Node6</title>
<polygon fill="#ffffff" stroke="#bfbfbf" points="440.5,-.5 440.5,-19.5 529.5,-19.5 529.5,-.5 440.5,-.5"/>
<text text-anchor="middle" x="485" y="-7.5" font-family="Helvetica,sans-Serif" font-size="10.00" fill="#000000">l4/sys/linkage.h</text>
</g>
<!-- Node5&#45;&gt;Node6 -->
<g id="edge6" class="edge">
<title>Node5&#45;&gt;Node6</title>
<path fill="none" stroke="#191970" d="M485,-56.2455C485,-48.9382 485,-38.6944 485,-29.7046"/>
<polygon fill="#191970" stroke="#191970" points="488.5001,-29.6426 485,-19.6427 481.5001,-29.6427 488.5001,-29.6426"/>
</g>
<!-- Node7&#45;&gt;Node4 -->
<g id="edge9" class="edge">
<title>Node7&#45;&gt;Node4</title>
<path fill="none" stroke="#191970" d="M552.8341,-112.3733C584.8695,-102.9807 633.7487,-88.6496 668.6855,-78.4064"/>
<polygon fill="#191970" stroke="#191970" points="669.9831,-81.6733 678.5944,-75.5011 668.0136,-74.9561 669.9831,-81.6733"/>
</g>
<!-- Node7&#45;&gt;Node5 -->
<g id="edge8" class="edge">
<title>Node7&#45;&gt;Node5</title>
<path fill="none" stroke="#191970" d="M513.9035,-112.2455C509.0855,-104.5367 502.2249,-93.5598 496.3968,-84.2348"/>
<polygon fill="#191970" stroke="#191970" points="499.2947,-82.2677 491.0267,-75.6427 493.3587,-85.9777 499.2947,-82.2677"/>
</g>
<!-- Node8&#45;&gt;Node5 -->
<g id="edge11" class="edge">
<title>Node8&#45;&gt;Node5</title>
<path fill="none" stroke="#191970" d="M672.406,-112.4369C633.9716,-102.9133 574.864,-88.2672 533.329,-77.9753"/>
<polygon fill="#191970" stroke="#191970" points="533.9831,-74.5316 523.4348,-75.5237 532.2994,-81.3261 533.9831,-74.5316"/>
</g>
<!-- Node9&#45;&gt;Node4 -->
<g id="edge13" class="edge">
<title>Node9&#45;&gt;Node4</title>
<path fill="none" stroke="#191970" d="M844.3231,-112.3733C817.6672,-103.1016 777.1762,-89.0178 747.8116,-78.804"/>
<polygon fill="#191970" stroke="#191970" points="748.9105,-75.4807 738.3157,-75.5011 746.6109,-82.0921 748.9105,-75.4807"/>
</g>
<!-- Node10&#45;&gt;Node2 -->
<g id="edge19" class="edge">
<title>Node10&#45;&gt;Node2</title>
<path fill="none" stroke="#191970" d="M506.8972,-280.2455C498.4972,-272.1352 486.3506,-260.4075 476.3916,-250.7919"/>
<polygon fill="#191970" stroke="#191970" points="478.6122,-248.0707 468.9871,-243.6427 473.75,-253.1066 478.6122,-248.0707"/>
</g>
<!-- Node10&#45;&gt;Node3 -->
<g id="edge18" class="edge">
<title>Node10&#45;&gt;Node3</title>
<path fill="none" stroke="#191970" d="M532.9435,-280.4509C565.651,-260.8615 640.5281,-216.0152 679.4654,-192.6945"/>
<polygon fill="#191970" stroke="#191970" points="681.3162,-195.6658 688.0968,-187.5249 677.7195,-189.6605 681.3162,-195.6658"/>
</g>
<!-- Node11 -->
<g id="node12" class="node">
<title>Node11</title>
<g id="a_node12"><a xlink:href="err_8h.html" target="_top" xlink:title="Error codes. ">
<polygon fill="#ffffff" stroke="#000000" points="28,-224.5 28,-243.5 96,-243.5 96,-224.5 28,-224.5"/>
<text text-anchor="middle" x="62" y="-231.5" font-family="Helvetica,sans-Serif" font-size="10.00" fill="#000000">l4/sys/err.h</text>
</a>
</g>
</g>
<!-- Node10&#45;&gt;Node11 -->
<g id="edge20" class="edge">
<title>Node10&#45;&gt;Node11</title>
<path fill="none" stroke="#191970" d="M482.801,-285.7909C401.509,-275.7857 196.765,-250.5865 106.2299,-239.4437"/>
<polygon fill="#191970" stroke="#191970" points="106.6376,-235.9675 96.2849,-238.2197 105.7824,-242.9151 106.6376,-235.9675"/>
</g>
<!-- Node11&#45;&gt;Node5 -->
<g id="edge21" class="edge">
<title>Node11&#45;&gt;Node5</title>
<path fill="none" stroke="#191970" d="M66.3925,-224.3139C73.4675,-209.8225 88.7731,-182.6404 110,-168 207.9359,-100.4525 348.8726,-77.565 427.1068,-69.8615"/>
<polygon fill="#191970" stroke="#191970" points="427.6248,-73.3284 437.2557,-68.913 426.9734,-66.3588 427.6248,-73.3284"/>
</g>
<!-- Node12&#45;&gt;Node3 -->
<g id="edge25" class="edge">
<title>Node12&#45;&gt;Node3</title>
<path fill="none" stroke="#191970" d="M480.2023,-690.3813C587.7612,-682.917 850,-656.9323 850,-581 850,-581 850,-581 850,-290 850,-237.7278 790.3552,-206.5213 747.3108,-190.8064"/>
<polygon fill="#191970" stroke="#191970" points="748.4571,-187.4995 737.8623,-187.5042 746.1477,-194.1075 748.4571,-187.4995"/>
</g>
<!-- Node12&#45;&gt;Node7 -->
<g id="edge24" class="edge">
<title>Node12&#45;&gt;Node7</title>
<path fill="none" stroke="#191970" d="M389.6784,-685.4615C278.2641,-665.6519 0,-607.8801 0,-525 0,-525 0,-525 0,-234 0,-186.6358 333.9556,-143.2569 466.611,-127.8941"/>
<polygon fill="#191970" stroke="#191970" points="467.0245,-131.3697 476.5595,-126.7508 466.2253,-124.4154 467.0245,-131.3697"/>
</g>
<!-- Node13 -->
<g id="node14" class="node">
<title>Node13</title>
<g id="a_node14"><a xlink:href="kobject_source.html" target="_top" xlink:title="l4/sys/kobject">
<polygon fill="#ffffff" stroke="#000000" points="462,-515.5 462,-534.5 542,-534.5 542,-515.5 462,-515.5"/>
<text text-anchor="middle" x="502" y="-522.5" font-family="Helvetica,sans-Serif" font-size="10.00" fill="#000000">l4/sys/kobject</text>
</a>
</g>
</g>
<!-- Node12&#45;&gt;Node13 -->
<g id="edge26" class="edge">
<title>Node12&#45;&gt;Node13</title>
<path fill="none" stroke="#191970" d="M438.7942,-683.4862C449.477,-656.6994 479.9632,-580.2565 494.3313,-544.2289"/>
<polygon fill="#191970" stroke="#191970" points="497.6271,-545.413 498.0805,-534.8279 491.1251,-542.8199 497.6271,-545.413"/>
</g>
<!-- Node20 -->
<g id="node21" class="node">
<title>Node20</title>
<g id="a_node21"><a xlink:href="l4_2sys_2task_8h.html" target="_top" xlink:title="Common task related definitions. ">
<polygon fill="#ffffff" stroke="#000000" points="418,-342 418,-361 492,-361 492,-342 418,-342"/>
<text text-anchor="middle" x="455" y="-349" font-family="Helvetica,sans-Serif" font-size="10.00" fill="#000000">l4/sys/task.h</text>
</a>
</g>
</g>
<!-- Node12&#45;&gt;Node20 -->
<g id="edge48" class="edge">
<title>Node12&#45;&gt;Node20</title>
<path fill="none" stroke="#191970" d="M464.293,-683.4925C503.9976,-668.5496 570,-635.5114 570,-581 570,-581 570,-581 570,-469 570,-420.3408 519.005,-384.3832 484.9311,-365.7882"/>
<polygon fill="#191970" stroke="#191970" points="486.3065,-362.5573 475.8256,-361.0077 483.0526,-368.7551 486.3065,-362.5573"/>
</g>
<!-- Node21 -->
<g id="node22" class="node">
<title>Node21</title>
<g id="a_node22"><a xlink:href="sys_2meta.html" target="_top" xlink:title="Meta interface for getting dynamic type information about objects behind capabilities. ">
<polygon fill="#ffffff" stroke="#000000" points="304,-627.5 304,-646.5 374,-646.5 374,-627.5 304,-627.5"/>
<text text-anchor="middle" x="339" y="-634.5" font-family="Helvetica,sans-Serif" font-size="10.00" fill="#000000">l4/sys/meta</text>
</a>
</g>
</g>
<!-- Node12&#45;&gt;Node21 -->
<g id="edge49" class="edge">
<title>Node12&#45;&gt;Node21</title>
<path fill="none" stroke="#191970" d="M418.2781,-683.2455C403.4111,-674.5731 381.4534,-661.7645 364.4142,-651.825"/>
<polygon fill="#191970" stroke="#191970" points="365.9317,-648.6582 355.5303,-646.6427 362.4045,-654.7047 365.9317,-648.6582"/>
</g>
<!-- Node13&#45;&gt;Node3 -->
<g id="edge34" class="edge">
<title>Node13&#45;&gt;Node3</title>
<path fill="none" stroke="#191970" d="M542.2093,-519.1326C626.0877,-505.7604 812,-469.7236 812,-413 812,-413 812,-413 812,-290 812,-244.5175 765.2782,-210.4132 733.2953,-192.3957"/>
<polygon fill="#191970" stroke="#191970" points="734.7745,-189.2165 724.314,-187.5348 731.4426,-195.3728 734.7745,-189.2165"/>
</g>
<!-- Node14 -->
<g id="node15" class="node">
<title>Node14</title>
<g id="a_node15"><a xlink:href="kernel__object_8h.html" target="_top" xlink:title="Kernel object system calls. ">
<polygon fill="#ffffff" stroke="#000000" points="635,-403.5 635,-422.5 723,-422.5 723,-403.5 635,-403.5"/>
<text text-anchor="middle" x="679" y="-410.5" font-family="Helvetica,sans-Serif" font-size="10.00" fill="#000000">kernel_object.h</text>
</a>
</g>
</g>
<!-- Node13&#45;&gt;Node14 -->
<g id="edge27" class="edge">
<title>Node13&#45;&gt;Node14</title>
<path fill="none" stroke="#191970" d="M517.0909,-515.4509C547.9187,-495.9441 618.325,-451.3932 655.3091,-427.9909"/>
<polygon fill="#191970" stroke="#191970" points="657.3684,-430.8297 663.9473,-422.5249 653.6254,-424.9144 657.3684,-430.8297"/>
</g>
<!-- Node16 -->
<g id="node17" class="node">
<title>Node16</title>
<g id="a_node17"><a xlink:href="____typeinfo_8h.html" target="_top" xlink:title="Type information handling. ">
<polygon fill="#ffffff" stroke="#000000" points="309,-459.5 309,-478.5 383,-478.5 383,-459.5 309,-459.5"/>
<text text-anchor="middle" x="346" y="-466.5" font-family="Helvetica,sans-Serif" font-size="10.00" fill="#000000">__typeinfo.h</text>
</a>
</g>
</g>
<!-- Node13&#45;&gt;Node16 -->
<g id="edge35" class="edge">
<title>Node13&#45;&gt;Node16</title>
<path fill="none" stroke="#191970" d="M475.1826,-515.3733C449.4668,-506.1419 410.462,-492.1402 382.0401,-481.9375"/>
<polygon fill="#191970" stroke="#191970" points="383.0619,-478.5857 372.4674,-478.5011 380.6968,-485.174 383.0619,-478.5857"/>
</g>
<!-- Node14&#45;&gt;Node2 -->
<g id="edge30" class="edge">
<title>Node14&#45;&gt;Node2</title>
<path fill="none" stroke="#191970" d="M679.7734,-403.4563C680.5368,-387.8125 679.8961,-356.4155 665,-336 626.7885,-283.63 554.1242,-256.652 506.1173,-243.9281"/>
<polygon fill="#191970" stroke="#191970" points="506.8228,-240.4962 496.2687,-241.4253 505.0986,-247.2805 506.8228,-240.4962"/>
</g>
<!-- Node14&#45;&gt;Node3 -->
<g id="edge28" class="edge">
<title>Node14&#45;&gt;Node3</title>
<path fill="none" stroke="#191970" d="M705.601,-403.397C721.5873,-396.0839 740.5998,-384.291 750,-367 781.1089,-309.7775 739.2344,-231.5014 716.6889,-196.3738"/>
<polygon fill="#191970" stroke="#191970" points="719.3595,-194.0676 710.9192,-187.6636 713.5237,-197.9333 719.3595,-194.0676"/>
</g>
<!-- Node14&#45;&gt;Node5 -->
<g id="edge29" class="edge">
<title>Node14&#45;&gt;Node5</title>
<path fill="none" stroke="#191970" d="M682.5005,-403.3072C687.3465,-388.2522 694.4904,-358.6281 685,-336 633.8034,-213.9308 521.0274,-253.2851 468,-132 461.287,-116.6458 467.2045,-98.0806 473.8321,-84.5563"/>
<polygon fill="#191970" stroke="#191970" points="476.9338,-86.1784 478.6131,-75.7175 470.7768,-82.848 476.9338,-86.1784"/>
</g>
<!-- Node14&#45;&gt;Node10 -->
<g id="edge33" class="edge">
<title>Node14&#45;&gt;Node10</title>
<path fill="none" stroke="#191970" d="M676.7183,-403.3026C672.4361,-387.1497 661.7023,-354.6688 641,-336 618.7205,-315.909 586.8829,-304.3436 561.047,-297.8348"/>
<polygon fill="#191970" stroke="#191970" points="561.6474,-294.3806 551.1121,-295.5019 560.0472,-301.1953 561.6474,-294.3806"/>
</g>
<!-- Node15 -->
<g id="node16" class="node">
<title>Node15</title>
<g id="a_node16"><a xlink:href="____kernel__object__impl_8h.html" target="_top" xlink:title="Low&#45;level kernel debugger functions. ">
<polygon fill="#ffffff" stroke="#000000" points="510,-336.5 510,-366.5 632,-366.5 632,-336.5 510,-336.5"/>
<text text-anchor="start" x="518" y="-354.5" font-family="Helvetica,sans-Serif" font-size="10.00" fill="#000000">l4/sys/__kernel_object</text>
<text text-anchor="middle" x="571" y="-343.5" font-family="Helvetica,sans-Serif" font-size="10.00" fill="#000000">_impl.h</text>
</a>
</g>
</g>
<!-- Node14&#45;&gt;Node15 -->
<g id="edge31" class="edge">
<title>Node14&#45;&gt;Node15</title>
<path fill="none" stroke="#191970" d="M662.125,-403.3906C647.2378,-394.9132 625.0543,-382.2809 606.3025,-371.6028"/>
<polygon fill="#191970" stroke="#191970" points="607.8416,-368.4516 597.4198,-366.5446 604.3777,-374.5345 607.8416,-368.4516"/>
</g>
<!-- Node15&#45;&gt;Node10 -->
<g id="edge32" class="edge">
<title>Node15&#45;&gt;Node10</title>
<path fill="none" stroke="#191970" d="M557.6517,-336.2977C549.9998,-327.5831 540.3627,-316.6075 532.3924,-307.5302"/>
<polygon fill="#191970" stroke="#191970" points="534.8742,-305.052 525.6461,-299.8469 529.6141,-309.6707 534.8742,-305.052"/>
</g>
<!-- Node17 -->
<g id="node18" class="node">
<title>Node17</title>
<g id="a_node18"><a xlink:href="types.html" target="_top" xlink:title="cxx/types">
<polygon fill="#ffffff" stroke="#000000" points="338.5,-342 338.5,-361 399.5,-361 399.5,-342 338.5,-342"/>
<text text-anchor="middle" x="369" y="-349" font-family="Helvetica,sans-Serif" font-size="10.00" fill="#000000">cxx/types</text>
</a>
</g>
</g>
<!-- Node16&#45;&gt;Node17 -->
<g id="edge36" class="edge">
<title>Node16&#45;&gt;Node17</title>
<path fill="none" stroke="#191970" d="M347.8822,-459.3845C351.6391,-440.1913 360.1355,-396.786 365.1308,-371.2663"/>
<polygon fill="#191970" stroke="#191970" points="368.6056,-371.7345 367.0918,-361.2484 361.7359,-370.3898 368.6056,-371.7345"/>
</g>
<!-- Node18 -->
<g id="node19" class="node">
<title>Node18</title>
<g id="a_node19"><a xlink:href="ipc__basics_source.html" target="_top" xlink:title="cxx/ipc_basics">
<polygon fill="#ffffff" stroke="#000000" points="112,-403.5 112,-422.5 196,-422.5 196,-403.5 112,-403.5"/>
<text text-anchor="middle" x="154" y="-410.5" font-family="Helvetica,sans-Serif" font-size="10.00" fill="#000000">cxx/ipc_basics</text>
</a>
</g>
</g>
<!-- Node16&#45;&gt;Node18 -->
<g id="edge37" class="edge">
<title>Node16&#45;&gt;Node18</title>
<path fill="none" stroke="#191970" d="M312.994,-459.3733C280.7909,-449.9807 231.6558,-435.6496 196.5361,-425.4064"/>
<polygon fill="#191970" stroke="#191970" points="197.1553,-421.9412 186.5753,-422.5011 195.1953,-428.6612 197.1553,-421.9412"/>
</g>
<!-- Node19 -->
<g id="node20" class="node">
<title>Node19</title>
<g id="a_node20"><a xlink:href="capability_8h_source.html" target="_top" xlink:title="cxx/capability.h">
<polygon fill="#ffffff" stroke="#000000" points="253.5,-403.5 253.5,-422.5 340.5,-422.5 340.5,-403.5 253.5,-403.5"/>
<text text-anchor="middle" x="297" y="-410.5" font-family="Helvetica,sans-Serif" font-size="10.00" fill="#000000">cxx/capability.h</text>
</a>
</g>
</g>
<!-- Node16&#45;&gt;Node19 -->
<g id="edge41" class="edge">
<title>Node16&#45;&gt;Node19</title>
<path fill="none" stroke="#191970" d="M337.4649,-459.2455C330.5088,-451.2958 320.5117,-439.8706 312.1949,-430.3656"/>
<polygon fill="#191970" stroke="#191970" points="314.6564,-427.8637 305.4373,-422.6427 309.3884,-432.4732 314.6564,-427.8637"/>
</g>
<!-- Node18&#45;&gt;Node2 -->
<g id="edge39" class="edge">
<title>Node18&#45;&gt;Node2</title>
<path fill="none" stroke="#191970" d="M194.1871,-403.4739C222.3294,-395.8693 260.2472,-383.7115 291,-367 310.4551,-356.4278 312.649,-349.7556 330,-336 368.4258,-305.5367 413.3555,-270.0383 438.7665,-249.9725"/>
<polygon fill="#191970" stroke="#191970" points="441.2185,-252.4961 446.8981,-243.5522 436.8806,-247.0021 441.2185,-252.4961"/>
</g>
<!-- Node18&#45;&gt;Node11 -->
<g id="edge40" class="edge">
<title>Node18&#45;&gt;Node11</title>
<path fill="none" stroke="#191970" d="M131.1473,-403.3604C115.9305,-395.736 96.8122,-383.6012 86,-367 63.2551,-332.0772 60.519,-281.5872 60.9755,-253.9451"/>
<polygon fill="#191970" stroke="#191970" points="64.4848,-253.7198 61.3176,-243.6094 57.4886,-253.4881 64.4848,-253.7198"/>
</g>
<!-- Node18&#45;&gt;Node17 -->
<g id="edge38" class="edge">
<title>Node18&#45;&gt;Node17</title>
<path fill="none" stroke="#191970" d="M192.021,-403.4954C226.6129,-394.6626 278.9892,-380.8243 324,-367 326.7399,-366.1585 329.5635,-365.2604 332.3978,-364.3366"/>
<polygon fill="#191970" stroke="#191970" points="333.5923,-367.6278 341.9693,-361.1412 331.3756,-360.988 333.5923,-367.6278"/>
</g>
<!-- Node19&#45;&gt;Node3 -->
<g id="edge43" class="edge">
<title>Node19&#45;&gt;Node3</title>
<path fill="none" stroke="#191970" d="M253.1794,-404.4313C216.5557,-396.2746 168.5153,-382.9046 157,-367 148.92,-355.8402 150.5156,-348.1565 157,-336 199.0606,-257.1478 240.2228,-255.1151 324,-224 383.3242,-201.9668 564.7089,-187.2568 653.6965,-181.1689"/>
<polygon fill="#191970" stroke="#191970" points="654.0769,-184.6513 663.8188,-180.4864 653.6059,-177.6672 654.0769,-184.6513"/>
</g>
<!-- Node19&#45;&gt;Node7 -->
<g id="edge42" class="edge">
<title>Node19&#45;&gt;Node7</title>
<path fill="none" stroke="#191970" d="M253.4208,-405.4297C214.1392,-397.6132 160.658,-384.1554 148,-367 123.7162,-334.0882 150.3393,-310.1293 178,-280 256.9989,-193.9506 392.2289,-151.0646 466.7796,-132.9979"/>
<polygon fill="#191970" stroke="#191970" points="467.9565,-136.3164 476.8842,-130.6114 466.3474,-129.5038 467.9565,-136.3164"/>
</g>
<!-- Node19&#45;&gt;Node20 -->
<g id="edge44" class="edge">
<title>Node19&#45;&gt;Node20</title>
<path fill="none" stroke="#191970" d="M321.6875,-403.3906C348.3557,-393.0103 391.0282,-376.4004 420.8911,-364.7766"/>
<polygon fill="#191970" stroke="#191970" points="422.4365,-367.9309 430.4859,-361.0419 419.8973,-361.4076 422.4365,-367.9309"/>
</g>
<!-- Node20&#45;&gt;Node2 -->
<g id="edge46" class="edge">
<title>Node20&#45;&gt;Node2</title>
<path fill="none" stroke="#191970" d="M455.3273,-341.8845C455.9807,-322.6913 457.4583,-279.286 458.3271,-253.7663"/>
<polygon fill="#191970" stroke="#191970" points="461.8258,-253.8617 458.6681,-243.7484 454.8298,-253.6235 461.8258,-253.8617"/>
</g>
<!-- Node20&#45;&gt;Node3 -->
<g id="edge45" class="edge">
<title>Node20&#45;&gt;Node3</title>
<path fill="none" stroke="#191970" d="M478.8381,-341.8234C500.7287,-332.4767 533.6661,-317.232 560,-300 609.6945,-267.4815 661.2044,-219.8542 687.0485,-194.813"/>
<polygon fill="#191970" stroke="#191970" points="689.5099,-197.3014 694.2146,-187.8085 684.6169,-192.2955 689.5099,-197.3014"/>
</g>
<!-- Node20&#45;&gt;Node10 -->
<g id="edge47" class="edge">
<title>Node20&#45;&gt;Node10</title>
<path fill="none" stroke="#191970" d="M464.6875,-341.8906C474.0959,-332.5581 488.5807,-318.1902 499.9249,-306.9374"/>
<polygon fill="#191970" stroke="#191970" points="502.5411,-309.2722 507.1759,-299.7449 497.6114,-304.3024 502.5411,-309.2722"/>
</g>
<!-- Node21&#45;&gt;Node13 -->
<g id="edge50" class="edge">
<title>Node21&#45;&gt;Node13</title>
<path fill="none" stroke="#191970" d="M352.8973,-627.4509C381.1664,-608.0268 445.5753,-563.7703 479.7483,-540.2895"/>
<polygon fill="#191970" stroke="#191970" points="481.8781,-543.0727 488.1379,-534.5249 477.9139,-537.3034 481.8781,-543.0727"/>
</g>
<!-- Node21&#45;&gt;Node22 -->
<g id="edge51" class="edge">
<title>Node21&#45;&gt;Node22</title>
<path fill="none" stroke="#191970" d="M318.3151,-627.3855C298.4558,-618.1324 267.63,-603.7109 241,-591 203.9231,-573.3026 161.3368,-552.5698 133.8432,-539.1314"/>
<polygon fill="#191970" stroke="#191970" points="135.3024,-535.9489 124.7815,-534.6992 132.2267,-542.237 135.3024,-535.9489"/>
</g>
<!-- Node24 -->
<g id="node25" class="node">
<title>Node24</title>
<g id="a_node25"><a xlink:href="ipc__string_source.html" target="_top" xlink:title="cxx/ipc_string">
<polygon fill="#ffffff" stroke="#000000" points="250.5,-571.5 250.5,-590.5 331.5,-590.5 331.5,-571.5 250.5,-571.5"/>
<text text-anchor="middle" x="291" y="-578.5" font-family="Helvetica,sans-Serif" font-size="10.00" fill="#000000">cxx/ipc_string</text>
</a>
</g>
</g>
<!-- Node21&#45;&gt;Node24 -->
<g id="edge58" class="edge">
<title>Node21&#45;&gt;Node24</title>
<path fill="none" stroke="#191970" d="M330.639,-627.2455C323.825,-619.2958 314.0319,-607.8706 305.8848,-598.3656"/>
<polygon fill="#191970" stroke="#191970" points="308.4305,-595.9575 299.2651,-590.6427 303.1157,-600.513 308.4305,-595.9575"/>
</g>
<!-- Node22&#45;&gt;Node16 -->
<g id="edge57" class="edge">
<title>Node22&#45;&gt;Node16</title>
<path fill="none" stroke="#191970" d="M143.7208,-516.0026C186.0267,-506.1722 253.7962,-490.425 299.0884,-479.9006"/>
<polygon fill="#191970" stroke="#191970" points="300.01,-483.2798 308.9583,-477.6072 298.4256,-476.4615 300.01,-483.2798"/>
</g>
<!-- Node22&#45;&gt;Node18 -->
<g id="edge52" class="edge">
<title>Node22&#45;&gt;Node18</title>
<path fill="none" stroke="#191970" d="M101.6156,-515.0775C97.6497,-501.6836 92.6145,-477.3813 101,-459 106.6889,-446.5296 117.6131,-436.1361 128.0726,-428.4023"/>
<polygon fill="#191970" stroke="#191970" points="130.3523,-431.0832 136.6242,-422.5442 126.3963,-425.3082 130.3523,-431.0832"/>
</g>
<!-- Node23 -->
<g id="node24" class="node">
<title>Node23</title>
<g id="a_node24"><a xlink:href="ipc__types.html" target="_top" xlink:title="l4/sys/cxx/ipc_types">
<polygon fill="#ffffff" stroke="#000000" points="181,-459.5 181,-478.5 291,-478.5 291,-459.5 181,-459.5"/>
<text text-anchor="middle" x="236" y="-466.5" font-family="Helvetica,sans-Serif" font-size="10.00" fill="#000000">l4/sys/cxx/ipc_types</text>
</a>
</g>
</g>
<!-- Node22&#45;&gt;Node23 -->
<g id="edge53" class="edge">
<title>Node22&#45;&gt;Node23</title>
<path fill="none" stroke="#191970" d="M127.5197,-515.3733C148.7372,-506.3032 180.7276,-492.6279 204.4769,-482.4755"/>
<polygon fill="#191970" stroke="#191970" points="205.9548,-485.6502 213.7742,-478.5011 203.2033,-479.2136 205.9548,-485.6502"/>
</g>
<!-- Node23&#45;&gt;Node17 -->
<g id="edge55" class="edge">
<title>Node23&#45;&gt;Node17</title>
<path fill="none" stroke="#191970" d="M234.3708,-459.3752C232.5765,-445.4474 231.4216,-419.5356 244,-403 249.7151,-395.4869 297.6109,-377.0787 332.4162,-364.4358"/>
<polygon fill="#191970" stroke="#191970" points="333.6209,-367.722 341.8401,-361.0365 331.2457,-361.1373 333.6209,-367.722"/>
</g>
<!-- Node23&#45;&gt;Node18 -->
<g id="edge56" class="edge">
<title>Node23&#45;&gt;Node18</title>
<path fill="none" stroke="#191970" d="M221.7167,-459.2455C209.253,-450.7337 190.9549,-438.2375 176.5208,-428.3801"/>
<polygon fill="#191970" stroke="#191970" points="178.3515,-425.392 168.1196,-422.6427 174.4038,-431.1726 178.3515,-425.392"/>
</g>
<!-- Node23&#45;&gt;Node19 -->
<g id="edge54" class="edge">
<title>Node23&#45;&gt;Node19</title>
<path fill="none" stroke="#191970" d="M246.6254,-459.2455C255.5473,-451.0549 268.488,-439.1749 279.0192,-429.5069"/>
<polygon fill="#191970" stroke="#191970" points="281.4968,-431.9837 286.4964,-422.6427 276.7629,-426.8271 281.4968,-431.9837"/>
</g>
<!-- Node24&#45;&gt;Node17 -->
<g id="edge59" class="edge">
<title>Node24&#45;&gt;Node17</title>
<path fill="none" stroke="#191970" d="M310.2551,-571.3393C338.2206,-556.0982 389.0215,-523.5596 410,-479 424.3889,-448.437 422.3313,-434.8235 411,-403 406.2834,-389.7536 396.5385,-377.4474 387.6221,-368.1885"/>
<polygon fill="#191970" stroke="#191970" points="390.0503,-365.6677 380.4556,-361.174 385.1538,-370.6702 390.0503,-365.6677"/>
</g>
<!-- Node24&#45;&gt;Node18 -->
<g id="edge60" class="edge">
<title>Node24&#45;&gt;Node18</title>
<path fill="none" stroke="#191970" d="M272.1258,-571.4266C256.0041,-562.8599 232.5473,-549.4528 214,-535 186.2359,-513.3651 172.4477,-511.0964 158,-479 151.5212,-464.6068 150.8481,-446.635 151.6131,-433.081"/>
<polygon fill="#191970" stroke="#191970" points="155.118,-433.176 152.4982,-422.9102 148.1444,-432.5691 155.118,-433.176"/>
</g>
<!-- Node25 -->
<g id="node26" class="node">
<title>Node25</title>
<g id="a_node26"><a xlink:href="ipc__array_source.html" target="_top" xlink:title="ipc_array">
<polygon fill="#ffffff" stroke="#000000" points="223.5,-515.5 223.5,-534.5 284.5,-534.5 284.5,-515.5 223.5,-515.5"/>
<text text-anchor="middle" x="254" y="-522.5" font-family="Helvetica,sans-Serif" font-size="10.00" fill="#000000">ipc_array</text>
</a>
</g>
</g>
<!-- Node24&#45;&gt;Node25 -->
<g id="edge61" class="edge">
<title>Node24&#45;&gt;Node25</title>
<path fill="none" stroke="#191970" d="M284.5551,-571.2455C279.4618,-563.5367 272.2092,-552.5598 266.048,-543.2348"/>
<polygon fill="#191970" stroke="#191970" points="268.8038,-541.0566 260.3711,-534.6427 262.9635,-544.9155 268.8038,-541.0566"/>
</g>
<!-- Node25&#45;&gt;Node17 -->
<g id="edge62" class="edge">
<title>Node25&#45;&gt;Node17</title>
<path fill="none" stroke="#191970" d="M284.7214,-519.0832C321.3708,-511.3277 379.3009,-496.6191 392,-479 415.6607,-446.1725 394.7069,-396.5162 380.1597,-369.8968"/>
<polygon fill="#191970" stroke="#191970" points="383.1902,-368.1456 375.1846,-361.2058 377.1151,-371.6233 383.1902,-368.1456"/>
</g>
<!-- Node25&#45;&gt;Node18 -->
<g id="edge63" class="edge">
<title>Node25&#45;&gt;Node18</title>
<path fill="none" stroke="#191970" d="M225.0521,-515.3625C207.2969,-508.0357 185.4609,-496.2404 172,-479 161.6187,-465.7039 157.2161,-446.8457 155.3535,-432.69"/>
<polygon fill="#191970" stroke="#191970" points="158.8165,-432.1436 154.3387,-422.5416 151.8512,-432.8402 158.8165,-432.1436"/>
</g>
<!-- Node25&#45;&gt;Node23 -->
<g id="edge64" class="edge">
<title>Node25&#45;&gt;Node23</title>
<path fill="none" stroke="#191970" d="M250.8646,-515.2455C248.49,-507.8579 245.1507,-497.4689 242.2385,-488.4087"/>
<polygon fill="#191970" stroke="#191970" points="245.4917,-487.0919 239.0994,-478.6427 238.8275,-489.234 245.4917,-487.0919"/>
</g>
</g>
</svg>
