<?xml version="1.0" encoding="UTF-8" standalone="no"?>
<!DOCTYPE svg PUBLIC "-//W3C//DTD SVG 1.1//EN"
 "http://www.w3.org/Graphics/SVG/1.1/DTD/svg11.dtd">
<!-- Generated by graphviz version 2.40.1 (20161225.0304)
 -->
<!-- Title: l4/sys/rcv_endpoint Pages: 1 -->
<svg width="1192pt" height="453pt"
 viewBox="0.00 0.00 1191.98 453.00" xmlns="http://www.w3.org/2000/svg" xmlns:xlink="http://www.w3.org/1999/xlink">
<g id="graph0" class="graph" transform="scale(1 1) rotate(0) translate(4 449)">
<title>l4/sys/rcv_endpoint</title>
<polygon fill="#ffffff" stroke="transparent" points="-4,4 -4,-449 1187.9764,-449 1187.9764,4 -4,4"/>
<!-- Node26 -->
<g id="node1" class="node">
<title>Node26</title>
<polygon fill="#bfbfbf" stroke="#000000" points="643.4764,-425.5 643.4764,-444.5 751.4764,-444.5 751.4764,-425.5 643.4764,-425.5"/>
<text text-anchor="middle" x="697.4764" y="-432.5" font-family="Helvetica,sans-Serif" font-size="10.00" fill="#000000">l4/sys/rcv_endpoint</text>
</g>
<!-- Node27 -->
<g id="node2" class="node">
<title>Node27</title>
<g id="a_node2"><a xlink:href="irq.html" target="_top" xlink:title="C++ Irq interface. ">
<polygon fill="#ffffff" stroke="#000000" points="622.9764,-369.5 622.9764,-388.5 681.9764,-388.5 681.9764,-369.5 622.9764,-369.5"/>
<text text-anchor="middle" x="652.4764" y="-376.5" font-family="Helvetica,sans-Serif" font-size="10.00" fill="#000000">l4/sys/irq</text>
</a>
</g>
</g>
<!-- Node26&#45;&gt;Node27 -->
<g id="edge1" class="edge">
<title>Node26&#45;&gt;Node27</title>
<path fill="none" stroke="#191970" d="M683.1818,-417.2112C675.5768,-407.7472 666.5226,-396.4797 660.225,-388.6427"/>
<polygon fill="#191970" stroke="#191970" points="680.6458,-419.6428 689.638,-425.2455 686.1023,-415.2581 680.6458,-419.6428"/>
</g>
<!-- Node58 -->
<g id="node33" class="node">
<title>Node58</title>
<g id="a_node33"><a xlink:href="ipc__gate.html" target="_top" xlink:title="The C++ IPC gate interface. ">
<polygon fill="#ffffff" stroke="#000000" points="829.9764,-369.5 829.9764,-388.5 916.9764,-388.5 916.9764,-369.5 829.9764,-369.5"/>
<text text-anchor="middle" x="873.4764" y="-376.5" font-family="Helvetica,sans-Serif" font-size="10.00" fill="#000000">l4/sys/ipc_gate</text>
</a>
</g>
</g>
<!-- Node26&#45;&gt;Node58 -->
<g id="edge40" class="edge">
<title>Node26&#45;&gt;Node58</title>
<path fill="none" stroke="#191970" d="M737.3168,-422.3235C769.5937,-412.0536 814.3616,-397.8093 843.6157,-388.5011"/>
<polygon fill="#191970" stroke="#191970" points="736.1999,-419.0059 727.7319,-425.3733 738.3224,-425.6764 736.1999,-419.0059"/>
</g>
<!-- Node28 -->
<g id="node3" class="node">
<title>Node28</title>
<g id="a_node3"><a xlink:href="icu.html" target="_top" xlink:title="Interrupt controller. ">
<polygon fill="#ffffff" stroke="#000000" points="622.9764,-313.5 622.9764,-332.5 681.9764,-332.5 681.9764,-313.5 622.9764,-313.5"/>
<text text-anchor="middle" x="652.4764" y="-320.5" font-family="Helvetica,sans-Serif" font-size="10.00" fill="#000000">l4/sys/icu</text>
</a>
</g>
</g>
<!-- Node27&#45;&gt;Node28 -->
<g id="edge2" class="edge">
<title>Node27&#45;&gt;Node28</title>
<path fill="none" stroke="#191970" d="M652.4764,-359.1575C652.4764,-350.155 652.4764,-339.9199 652.4764,-332.6427"/>
<polygon fill="#191970" stroke="#191970" points="648.9765,-359.2455 652.4764,-369.2455 655.9765,-359.2456 648.9765,-359.2455"/>
</g>
<!-- Node53 -->
<g id="node28" class="node">
<title>Node53</title>
<g id="a_node28"><a xlink:href="l4virtio_source.html" target="_top" xlink:title="l4/l4virtio/l4virtio">
<polygon fill="#ffffff" stroke="#000000" points="923.4764,-140 923.4764,-159 1015.4764,-159 1015.4764,-140 923.4764,-140"/>
<text text-anchor="middle" x="969.4764" y="-147" font-family="Helvetica,sans-Serif" font-size="10.00" fill="#000000">l4/l4virtio/l4virtio</text>
</a>
</g>
</g>
<!-- Node27&#45;&gt;Node53 -->
<g id="edge30" class="edge">
<title>Node27&#45;&gt;Node53</title>
<path fill="none" stroke="#191970" d="M677.4893,-364.2758C709.4808,-345.1692 766.2719,-310.3223 812.4764,-277 869.4349,-235.922 933.2209,-181.2086 958.4018,-159.2371"/>
<polygon fill="#191970" stroke="#191970" points="675.5813,-361.3382 668.7744,-369.4572 679.1587,-367.3551 675.5813,-361.3382"/>
</g>
<!-- Node54 -->
<g id="node29" class="node">
<title>Node54</title>
<g id="a_node29"><a xlink:href="semaphore.html" target="_top" xlink:title="Semaphore class definition. ">
<polygon fill="#ffffff" stroke="#000000" points="373.4764,-313.5 373.4764,-332.5 473.4764,-332.5 473.4764,-313.5 373.4764,-313.5"/>
<text text-anchor="middle" x="423.4764" y="-320.5" font-family="Helvetica,sans-Serif" font-size="10.00" fill="#000000">l4/sys/semaphore</text>
</a>
</g>
</g>
<!-- Node27&#45;&gt;Node54 -->
<g id="edge32" class="edge">
<title>Node27&#45;&gt;Node54</title>
<path fill="none" stroke="#191970" d="M612.6332,-369.2567C570.5084,-358.9554 504.4825,-342.8093 462.6233,-332.573"/>
<polygon fill="#191970" stroke="#191970" points="611.9935,-372.7033 622.5386,-371.679 613.6563,-365.9037 611.9935,-372.7033"/>
</g>
<!-- Node55 -->
<g id="node30" class="node">
<title>Node55</title>
<g id="a_node30"><a xlink:href="event_source.html" target="_top" xlink:title="l4/re/event">
<polygon fill="#ffffff" stroke="#000000" points="125.9764,-313.5 125.9764,-332.5 192.9764,-332.5 192.9764,-313.5 125.9764,-313.5"/>
<text text-anchor="middle" x="159.4764" y="-320.5" font-family="Helvetica,sans-Serif" font-size="10.00" fill="#000000">l4/re/event</text>
</a>
</g>
</g>
<!-- Node27&#45;&gt;Node55 -->
<g id="edge34" class="edge">
<title>Node27&#45;&gt;Node55</title>
<path fill="none" stroke="#191970" d="M612.7284,-374.485C518.165,-363.7435 281.1398,-336.8198 193.0956,-326.8188"/>
<polygon fill="#191970" stroke="#191970" points="612.4161,-377.972 622.7473,-375.6231 613.2062,-371.0167 612.4161,-377.972"/>
</g>
<!-- Node29 -->
<g id="node4" class="node">
<title>Node29</title>
<g id="a_node4"><a xlink:href="vcon.html" target="_top" xlink:title="Virtual console interface. ">
<polygon fill="#ffffff" stroke="#000000" points="708.9764,-257.5 708.9764,-276.5 777.9764,-276.5 777.9764,-257.5 708.9764,-257.5"/>
<text text-anchor="middle" x="743.4764" y="-264.5" font-family="Helvetica,sans-Serif" font-size="10.00" fill="#000000">l4/sys/vcon</text>
</a>
</g>
</g>
<!-- Node28&#45;&gt;Node29 -->
<g id="edge3" class="edge">
<title>Node28&#45;&gt;Node29</title>
<path fill="none" stroke="#191970" d="M677.2268,-307.769C693.3522,-297.8456 713.9024,-285.1994 727.8071,-276.6427"/>
<polygon fill="#191970" stroke="#191970" points="675.0096,-305.0237 668.3274,-313.2455 678.6783,-310.9853 675.0096,-305.0237"/>
</g>
<!-- Node41 -->
<g id="node16" class="node">
<title>Node41</title>
<g id="a_node16"><a xlink:href="icu__svr_source.html" target="_top" xlink:title="l4/re/util/icu_svr">
<polygon fill="#ffffff" stroke="#000000" points="840.9764,-73 840.9764,-92 929.9764,-92 929.9764,-73 840.9764,-73"/>
<text text-anchor="middle" x="885.4764" y="-80" font-family="Helvetica,sans-Serif" font-size="10.00" fill="#000000">l4/re/util/icu_svr</text>
</a>
</g>
</g>
<!-- Node28&#45;&gt;Node41 -->
<g id="edge25" class="edge">
<title>Node28&#45;&gt;Node41</title>
<path fill="none" stroke="#191970" d="M692.042,-315.1549C720.1085,-308.2764 757.7415,-296.2947 786.4764,-277 854.1076,-231.5875 877.9679,-125.2657 883.876,-92.3743"/>
<polygon fill="#191970" stroke="#191970" points="691.1098,-311.7783 682.1687,-317.4623 692.7028,-318.5947 691.1098,-311.7783"/>
</g>
<!-- Node47 -->
<g id="node22" class="node">
<title>Node47</title>
<g id="a_node22"><a xlink:href="scheduler.html" target="_top" xlink:title="Scheduler object functions. ">
<polygon fill="#ffffff" stroke="#000000" points="503.4764,-257.5 503.4764,-276.5 595.4764,-276.5 595.4764,-257.5 503.4764,-257.5"/>
<text text-anchor="middle" x="549.4764" y="-264.5" font-family="Helvetica,sans-Serif" font-size="10.00" fill="#000000">l4/sys/scheduler</text>
</a>
</g>
</g>
<!-- Node28&#45;&gt;Node47 -->
<g id="edge23" class="edge">
<title>Node28&#45;&gt;Node47</title>
<path fill="none" stroke="#191970" d="M625.7332,-308.46C607.3014,-298.4388 583.318,-285.3993 567.212,-276.6427"/>
<polygon fill="#191970" stroke="#191970" points="624.0779,-311.5438 634.5352,-313.2455 627.4215,-305.394 624.0779,-311.5438"/>
</g>
<!-- Node48 -->
<g id="node23" class="node">
<title>Node48</title>
<g id="a_node23"><a xlink:href="random_source.html" target="_top" xlink:title="l4/re/random">
<polygon fill="#ffffff" stroke="#000000" points="613.9764,-257.5 613.9764,-276.5 690.9764,-276.5 690.9764,-257.5 613.9764,-257.5"/>
<text text-anchor="middle" x="652.4764" y="-264.5" font-family="Helvetica,sans-Serif" font-size="10.00" fill="#000000">l4/re/random</text>
</a>
</g>
</g>
<!-- Node28&#45;&gt;Node48 -->
<g id="edge24" class="edge">
<title>Node28&#45;&gt;Node48</title>
<path fill="none" stroke="#191970" d="M652.4764,-303.1575C652.4764,-294.155 652.4764,-283.9199 652.4764,-276.6427"/>
<polygon fill="#191970" stroke="#191970" points="648.9765,-303.2455 652.4764,-313.2455 655.9765,-303.2456 648.9765,-303.2455"/>
</g>
<!-- Node49 -->
<g id="node24" class="node">
<title>Node49</title>
<g id="a_node24"><a xlink:href="vbus_source.html" target="_top" xlink:title="l4/vbus/vbus">
<polygon fill="#ffffff" stroke="#000000" points="382.9764,-257.5 382.9764,-276.5 455.9764,-276.5 455.9764,-257.5 382.9764,-257.5"/>
<text text-anchor="middle" x="419.4764" y="-264.5" font-family="Helvetica,sans-Serif" font-size="10.00" fill="#000000">l4/vbus/vbus</text>
</a>
</g>
</g>
<!-- Node28&#45;&gt;Node49 -->
<g id="edge26" class="edge">
<title>Node28&#45;&gt;Node49</title>
<path fill="none" stroke="#191970" d="M613.2184,-313.5646C569.3174,-303.0133 498.7804,-286.0602 456.0167,-275.7822"/>
<polygon fill="#191970" stroke="#191970" points="612.4257,-316.9737 622.9668,-315.9076 614.0616,-310.1675 612.4257,-316.9737"/>
</g>
<!-- Node30 -->
<g id="node5" class="node">
<title>Node30</title>
<g id="a_node5"><a xlink:href="log.html" target="_top" xlink:title="Log interface. ">
<polygon fill="#ffffff" stroke="#000000" points="771.9764,-201.5 771.9764,-220.5 826.9764,-220.5 826.9764,-201.5 771.9764,-201.5"/>
<text text-anchor="middle" x="799.4764" y="-208.5" font-family="Helvetica,sans-Serif" font-size="10.00" fill="#000000">l4/re/log</text>
</a>
</g>
</g>
<!-- Node29&#45;&gt;Node30 -->
<g id="edge4" class="edge">
<title>Node29&#45;&gt;Node30</title>
<path fill="none" stroke="#191970" d="M760.4013,-250.0751C770.0362,-240.4402 781.7568,-228.7196 789.8337,-220.6427"/>
<polygon fill="#191970" stroke="#191970" points="757.8271,-247.6996 753.2309,-257.2455 762.7768,-252.6493 757.8271,-247.6996"/>
</g>
<!-- Node45 -->
<g id="node20" class="node">
<title>Node45</title>
<g id="a_node20"><a xlink:href="vcon__stream_8h_source.html" target="_top" xlink:title="l4/l4re_vfs/impl/vcon\l_stream.h">
<polygon fill="#ffffff" stroke="#000000" points="246.9764,-134.5 246.9764,-164.5 359.9764,-164.5 359.9764,-134.5 246.9764,-134.5"/>
<text text-anchor="start" x="254.9764" y="-152.5" font-family="Helvetica,sans-Serif" font-size="10.00" fill="#000000">l4/l4re_vfs/impl/vcon</text>
<text text-anchor="middle" x="303.4764" y="-141.5" font-family="Helvetica,sans-Serif" font-size="10.00" fill="#000000">_stream.h</text>
</a>
</g>
</g>
<!-- Node29&#45;&gt;Node45 -->
<g id="edge19" class="edge">
<title>Node29&#45;&gt;Node45</title>
<path fill="none" stroke="#191970" d="M742.9514,-246.8478C741.4163,-231.8728 736.7654,-212.177 723.4764,-201 696.174,-178.0368 468.4856,-160.2704 360.2322,-153.0355"/>
<polygon fill="#191970" stroke="#191970" points="739.4796,-247.403 743.6094,-257.1598 746.4654,-246.9572 739.4796,-247.403"/>
</g>
<!-- Node46 -->
<g id="node21" class="node">
<title>Node46</title>
<g id="a_node21"><a xlink:href="vcon__svr_source.html" target="_top" xlink:title="l4/re/util/vcon_svr">
<polygon fill="#ffffff" stroke="#000000" points="615.9764,-201.5 615.9764,-220.5 714.9764,-220.5 714.9764,-201.5 615.9764,-201.5"/>
<text text-anchor="middle" x="665.4764" y="-208.5" font-family="Helvetica,sans-Serif" font-size="10.00" fill="#000000">l4/re/util/vcon_svr</text>
</a>
</g>
</g>
<!-- Node29&#45;&gt;Node46 -->
<g id="edge22" class="edge">
<title>Node29&#45;&gt;Node46</title>
<path fill="none" stroke="#191970" d="M721.4828,-251.2097C707.7835,-241.3743 690.6028,-229.0394 678.9073,-220.6427"/>
<polygon fill="#191970" stroke="#191970" points="719.7253,-254.2566 729.8898,-257.2455 723.8078,-248.5703 719.7253,-254.2566"/>
</g>
<!-- Node31 -->
<g id="node6" class="node">
<title>Node31</title>
<g id="a_node6"><a xlink:href="env.html" target="_top" xlink:title="Environment interface. ">
<polygon fill="#ffffff" stroke="#000000" points="647.4764,-140 647.4764,-159 705.4764,-159 705.4764,-140 647.4764,-140"/>
<text text-anchor="middle" x="676.4764" y="-147" font-family="Helvetica,sans-Serif" font-size="10.00" fill="#000000">l4/re/env</text>
</a>
</g>
</g>
<!-- Node30&#45;&gt;Node31 -->
<g id="edge5" class="edge">
<title>Node30&#45;&gt;Node31</title>
<path fill="none" stroke="#191970" d="M771.239,-196.8813C748.0428,-185.2832 715.8166,-169.1701 695.5602,-159.0419"/>
<polygon fill="#191970" stroke="#191970" points="769.7481,-200.0489 780.2577,-201.3906 772.8786,-193.7879 769.7481,-200.0489"/>
</g>
<!-- Node32 -->
<g id="node7" class="node">
<title>Node32</title>
<g id="a_node7"><a xlink:href="vcpu_source.html" target="_top" xlink:title="l4/vcpu/vcpu">
<polygon fill="#ffffff" stroke="#000000" points="639.4764,-73 639.4764,-92 713.4764,-92 713.4764,-73 639.4764,-73"/>
<text text-anchor="middle" x="676.4764" y="-80" font-family="Helvetica,sans-Serif" font-size="10.00" fill="#000000">l4/vcpu/vcpu</text>
</a>
</g>
</g>
<!-- Node31&#45;&gt;Node32 -->
<g id="edge6" class="edge">
<title>Node31&#45;&gt;Node32</title>
<path fill="none" stroke="#191970" d="M676.4764,-129.6079C676.4764,-117.214 676.4764,-101.8263 676.4764,-92.0817"/>
<polygon fill="#191970" stroke="#191970" points="672.9765,-129.9005 676.4764,-139.9005 679.9765,-129.9006 672.9765,-129.9005"/>
</g>
<!-- Node33 -->
<g id="node8" class="node">
<title>Node33</title>
<g id="a_node8"><a xlink:href="server_2l4virtio_source.html" target="_top" xlink:title="l4/l4virtio/server\l/l4virtio">
<polygon fill="#ffffff" stroke="#000000" points="948.4764,-67.5 948.4764,-97.5 1040.4764,-97.5 1040.4764,-67.5 948.4764,-67.5"/>
<text text-anchor="start" x="956.4764" y="-85.5" font-family="Helvetica,sans-Serif" font-size="10.00" fill="#000000">l4/l4virtio/server</text>
<text text-anchor="middle" x="994.4764" y="-74.5" font-family="Helvetica,sans-Serif" font-size="10.00" fill="#000000">/l4virtio</text>
</a>
</g>
</g>
<!-- Node31&#45;&gt;Node33 -->
<g id="edge7" class="edge">
<title>Node31&#45;&gt;Node33</title>
<path fill="none" stroke="#191970" d="M715.7271,-142.7449C767.1385,-133.6778 859.9729,-116.5516 938.4764,-98 941.7161,-97.2344 945.0512,-96.4086 948.4031,-95.5509"/>
<polygon fill="#191970" stroke="#191970" points="714.9544,-139.3269 705.7094,-144.502 716.1638,-146.2217 714.9544,-139.3269"/>
</g>
<!-- Node35 -->
<g id="node10" class="node">
<title>Node35</title>
<g id="a_node10"><a xlink:href="env__ns_source.html" target="_top" xlink:title="l4/re/util/env_ns">
<polygon fill="#ffffff" stroke="#000000" points="731.9764,-73 731.9764,-92 822.9764,-92 822.9764,-73 731.9764,-73"/>
<text text-anchor="middle" x="777.4764" y="-80" font-family="Helvetica,sans-Serif" font-size="10.00" fill="#000000">l4/re/util/env_ns</text>
</a>
</g>
</g>
<!-- Node31&#45;&gt;Node35 -->
<g id="edge9" class="edge">
<title>Node31&#45;&gt;Node35</title>
<path fill="none" stroke="#191970" d="M699.2965,-134.3619C718.8425,-121.3957 746.3941,-103.119 763.0324,-92.0817"/>
<polygon fill="#191970" stroke="#191970" points="697.3456,-131.4559 690.9472,-139.9005 701.2152,-137.2892 697.3456,-131.4559"/>
</g>
<!-- Node37 -->
<g id="node12" class="node">
<title>Node37</title>
<g id="a_node12"><a xlink:href="ro__file__impl_8h_source.html" target="_top" xlink:title="l4/l4re_vfs/impl/ro\l_file_impl.h">
<polygon fill="#ffffff" stroke="#000000" points="385.4764,-67.5 385.4764,-97.5 485.4764,-97.5 485.4764,-67.5 385.4764,-67.5"/>
<text text-anchor="start" x="393.4764" y="-85.5" font-family="Helvetica,sans-Serif" font-size="10.00" fill="#000000">l4/l4re_vfs/impl/ro</text>
<text text-anchor="middle" x="435.4764" y="-74.5" font-family="Helvetica,sans-Serif" font-size="10.00" fill="#000000">_file_impl.h</text>
</a>
</g>
</g>
<!-- Node31&#45;&gt;Node37 -->
<g id="edge11" class="edge">
<title>Node31&#45;&gt;Node37</title>
<path fill="none" stroke="#191970" d="M637.7071,-138.7218C596.3968,-127.2372 530.8467,-109.0137 485.6313,-96.4435"/>
<polygon fill="#191970" stroke="#191970" points="636.8341,-142.1118 647.4062,-141.4182 638.7091,-135.3675 636.8341,-142.1118"/>
</g>
<!-- Node38 -->
<g id="node13" class="node">
<title>Node38</title>
<g id="a_node13"><a xlink:href="vcon__stream__impl_8h_source.html" target="_top" xlink:title="l4/l4re_vfs/impl/vcon\l_stream_impl.h">
<polygon fill="#ffffff" stroke="#000000" points="131.9764,-67.5 131.9764,-97.5 244.9764,-97.5 244.9764,-67.5 131.9764,-67.5"/>
<text text-anchor="start" x="139.9764" y="-85.5" font-family="Helvetica,sans-Serif" font-size="10.00" fill="#000000">l4/l4re_vfs/impl/vcon</text>
<text text-anchor="middle" x="188.4764" y="-74.5" font-family="Helvetica,sans-Serif" font-size="10.00" fill="#000000">_stream_impl.h</text>
</a>
</g>
</g>
<!-- Node31&#45;&gt;Node38 -->
<g id="edge12" class="edge">
<title>Node31&#45;&gt;Node38</title>
<path fill="none" stroke="#191970" d="M637.0419,-146.1376C562.1229,-139.4292 394.2091,-122.8577 254.4764,-98 251.4635,-97.464 248.3818,-96.877 245.2763,-96.2549"/>
<polygon fill="#191970" stroke="#191970" points="637.1365,-149.6596 647.4064,-147.0556 637.7542,-142.6869 637.1365,-149.6596"/>
</g>
<!-- Node39 -->
<g id="node14" class="node">
<title>Node39</title>
<g id="a_node14"><a xlink:href="vfs__impl_8h_source.html" target="_top" xlink:title="l4/l4re_vfs/impl/vfs\l_impl.h">
<polygon fill="#ffffff" stroke="#000000" points="263.4764,-67.5 263.4764,-97.5 367.4764,-97.5 367.4764,-67.5 263.4764,-67.5"/>
<text text-anchor="start" x="271.4764" y="-85.5" font-family="Helvetica,sans-Serif" font-size="10.00" fill="#000000">l4/l4re_vfs/impl/vfs</text>
<text text-anchor="middle" x="315.4764" y="-74.5" font-family="Helvetica,sans-Serif" font-size="10.00" fill="#000000">_impl.h</text>
</a>
</g>
</g>
<!-- Node31&#45;&gt;Node39 -->
<g id="edge13" class="edge">
<title>Node31&#45;&gt;Node39</title>
<path fill="none" stroke="#191970" d="M637.2718,-143.7793C579.8011,-135.1652 469.4206,-117.7541 376.4764,-98 373.5906,-97.3867 370.635,-96.7303 367.6564,-96.0468"/>
<polygon fill="#191970" stroke="#191970" points="636.9643,-147.2721 647.3709,-145.284 637.9959,-140.3485 636.9643,-147.2721"/>
</g>
<!-- Node40 -->
<g id="node15" class="node">
<title>Node40</title>
<g id="a_node15"><a xlink:href="util_2event.html" target="_top" xlink:title="l4/re/util/event">
<polygon fill="#ffffff" stroke="#000000" points="30.9764,-73 30.9764,-92 113.9764,-92 113.9764,-73 30.9764,-73"/>
<text text-anchor="middle" x="72.4764" y="-80" font-family="Helvetica,sans-Serif" font-size="10.00" fill="#000000">l4/re/util/event</text>
</a>
</g>
</g>
<!-- Node31&#45;&gt;Node40 -->
<g id="edge14" class="edge">
<title>Node31&#45;&gt;Node40</title>
<path fill="none" stroke="#191970" d="M637.1717,-148.6446C545.9124,-146.0525 312.9287,-135.9428 122.4764,-98 114.9895,-96.5084 107.0326,-94.3269 99.7202,-92.0687"/>
<polygon fill="#191970" stroke="#191970" points="637.243,-152.1477 647.3337,-148.9184 637.4316,-145.1502 637.243,-152.1477"/>
</g>
<!-- Node31&#45;&gt;Node41 -->
<g id="edge15" class="edge">
<title>Node31&#45;&gt;Node41</title>
<path fill="none" stroke="#191970" d="M715.096,-137.1195C755.6983,-124.1035 818.7077,-103.9043 855.6498,-92.0616"/>
<polygon fill="#191970" stroke="#191970" points="713.9911,-133.7982 705.537,-140.1839 716.1281,-140.4641 713.9911,-133.7982"/>
</g>
<!-- Node43 -->
<g id="node18" class="node">
<title>Node43</title>
<g id="a_node18"><a xlink:href="kumem__alloc.html" target="_top" xlink:title="Kumem allocator helper. ">
<polygon fill="#ffffff" stroke="#000000" points="503.9764,-73 503.9764,-92 620.9764,-92 620.9764,-73 503.9764,-73"/>
<text text-anchor="middle" x="562.4764" y="-80" font-family="Helvetica,sans-Serif" font-size="10.00" fill="#000000">l4/re/util/kumem_alloc</text>
</a>
</g>
</g>
<!-- Node31&#45;&gt;Node43 -->
<g id="edge17" class="edge">
<title>Node31&#45;&gt;Node43</title>
<path fill="none" stroke="#191970" d="M651.3131,-134.711C629.2185,-121.7256 597.7286,-103.2184 578.7795,-92.0817"/>
<polygon fill="#191970" stroke="#191970" points="649.7483,-137.851 660.143,-139.9005 653.2951,-131.8161 649.7483,-137.851"/>
</g>
<!-- Node44 -->
<g id="node19" class="node">
<title>Node44</title>
<g id="a_node19"><a xlink:href="object__registry_source.html" target="_top" xlink:title="l4/re/util/object_registry">
<polygon fill="#ffffff" stroke="#000000" points="1058.9764,-73 1058.9764,-92 1183.9764,-92 1183.9764,-73 1058.9764,-73"/>
<text text-anchor="middle" x="1121.4764" y="-80" font-family="Helvetica,sans-Serif" font-size="10.00" fill="#000000">l4/re/util/object_registry</text>
</a>
</g>
</g>
<!-- Node31&#45;&gt;Node44 -->
<g id="edge18" class="edge">
<title>Node31&#45;&gt;Node44</title>
<path fill="none" stroke="#191970" d="M715.8894,-145.042C784.1024,-137.1071 928.4826,-119.3456 1049.4764,-98 1059.2981,-96.2673 1069.8188,-94.1515 1079.7007,-92.0469"/>
<polygon fill="#191970" stroke="#191970" points="715.1427,-141.6049 705.6108,-146.2302 715.9466,-148.5586 715.1427,-141.6049"/>
</g>
<!-- Node34 -->
<g id="node9" class="node">
<title>Node34</title>
<g id="a_node9"><a xlink:href="virtio-block_source.html" target="_top" xlink:title="l4/l4virtio/server\l/virtio&#45;block">
<polygon fill="#ffffff" stroke="#000000" points="951.4764,-.5 951.4764,-30.5 1043.4764,-30.5 1043.4764,-.5 951.4764,-.5"/>
<text text-anchor="start" x="959.4764" y="-18.5" font-family="Helvetica,sans-Serif" font-size="10.00" fill="#000000">l4/l4virtio/server</text>
<text text-anchor="middle" x="997.4764" y="-7.5" font-family="Helvetica,sans-Serif" font-size="10.00" fill="#000000">/virtio&#45;block</text>
</a>
</g>
</g>
<!-- Node33&#45;&gt;Node34 -->
<g id="edge8" class="edge">
<title>Node33&#45;&gt;Node34</title>
<path fill="none" stroke="#191970" d="M995.6171,-57.0249C996.0154,-48.128 996.4497,-38.4287 996.7983,-30.6432"/>
<polygon fill="#191970" stroke="#191970" points="992.1081,-57.1501 995.1571,-67.2967 999.101,-57.4633 992.1081,-57.1501"/>
</g>
<!-- Node36 -->
<g id="node11" class="node">
<title>Node36</title>
<g id="a_node11"><a xlink:href="ns__fs__impl_8h_source.html" target="_top" xlink:title="l4/l4re_vfs/impl/ns\l_fs_impl.h">
<polygon fill="#ffffff" stroke="#000000" points="710.9764,-.5 710.9764,-30.5 811.9764,-30.5 811.9764,-.5 710.9764,-.5"/>
<text text-anchor="start" x="718.9764" y="-18.5" font-family="Helvetica,sans-Serif" font-size="10.00" fill="#000000">l4/l4re_vfs/impl/ns</text>
<text text-anchor="middle" x="761.4764" y="-7.5" font-family="Helvetica,sans-Serif" font-size="10.00" fill="#000000">_fs_impl.h</text>
</a>
</g>
</g>
<!-- Node35&#45;&gt;Node36 -->
<g id="edge10" class="edge">
<title>Node35&#45;&gt;Node36</title>
<path fill="none" stroke="#191970" d="M772.8446,-63.1042C770.3668,-52.7287 767.3618,-40.145 765.0637,-30.5218"/>
<polygon fill="#191970" stroke="#191970" points="769.4569,-63.987 775.184,-72.9005 776.2654,-62.361 769.4569,-63.987"/>
</g>
<!-- Node42 -->
<g id="node17" class="node">
<title>Node42</title>
<g id="a_node17"><a xlink:href="event__svr_source.html" target="_top" xlink:title="l4/re/util/event_svr">
<polygon fill="#ffffff" stroke="#000000" points="829.9764,-6 829.9764,-25 932.9764,-25 932.9764,-6 829.9764,-6"/>
<text text-anchor="middle" x="881.4764" y="-13" font-family="Helvetica,sans-Serif" font-size="10.00" fill="#000000">l4/re/util/event_svr</text>
</a>
</g>
</g>
<!-- Node41&#45;&gt;Node42 -->
<g id="edge16" class="edge">
<title>Node41&#45;&gt;Node42</title>
<path fill="none" stroke="#191970" d="M884.2888,-62.6079C883.5489,-50.214 882.6302,-34.8263 882.0484,-25.0817"/>
<polygon fill="#191970" stroke="#191970" points="880.8135,-63.1269 884.9033,-72.9005 887.801,-62.7097 880.8135,-63.1269"/>
</g>
<!-- Node45&#45;&gt;Node38 -->
<g id="edge20" class="edge">
<title>Node45&#45;&gt;Node38</title>
<path fill="none" stroke="#191970" d="M268.9011,-129.3561C251.4681,-119.1995 230.6733,-107.0843 214.5964,-97.7177"/>
<polygon fill="#191970" stroke="#191970" points="267.2657,-132.454 277.6682,-134.4639 270.7896,-126.4056 267.2657,-132.454"/>
</g>
<!-- Node45&#45;&gt;Node39 -->
<g id="edge21" class="edge">
<title>Node45&#45;&gt;Node39</title>
<path fill="none" stroke="#191970" d="M307.9866,-124.3179C309.5944,-115.3414 311.3544,-105.5143 312.7642,-97.6432"/>
<polygon fill="#191970" stroke="#191970" points="304.5173,-123.8362 306.1994,-134.2967 311.4076,-125.0704 304.5173,-123.8362"/>
</g>
<!-- Node50 -->
<g id="node25" class="node">
<title>Node50</title>
<g id="a_node25"><a xlink:href="vbus__generic_source.html" target="_top" xlink:title="l4/vbus/vbus_generic">
<polygon fill="#ffffff" stroke="#000000" points="483.4764,-201.5 483.4764,-220.5 597.4764,-220.5 597.4764,-201.5 483.4764,-201.5"/>
<text text-anchor="middle" x="540.4764" y="-208.5" font-family="Helvetica,sans-Serif" font-size="10.00" fill="#000000">l4/vbus/vbus_generic</text>
</a>
</g>
</g>
<!-- Node49&#45;&gt;Node50 -->
<g id="edge27" class="edge">
<title>Node49&#45;&gt;Node50</title>
<path fill="none" stroke="#191970" d="M449.4868,-253.1109C471.4289,-242.9559 500.6152,-229.4482 519.9472,-220.5011"/>
<polygon fill="#191970" stroke="#191970" points="447.8822,-249.9968 440.277,-257.3733 450.8223,-256.3494 447.8822,-249.9968"/>
</g>
<!-- Node51 -->
<g id="node26" class="node">
<title>Node51</title>
<g id="a_node26"><a xlink:href="vbus__gpio_source.html" target="_top" xlink:title="l4/vbus/vbus_gpio">
<polygon fill="#ffffff" stroke="#000000" points="255.9764,-201.5 255.9764,-220.5 354.9764,-220.5 354.9764,-201.5 255.9764,-201.5"/>
<text text-anchor="middle" x="305.4764" y="-208.5" font-family="Helvetica,sans-Serif" font-size="10.00" fill="#000000">l4/vbus/vbus_gpio</text>
</a>
</g>
</g>
<!-- Node49&#45;&gt;Node51 -->
<g id="edge28" class="edge">
<title>Node49&#45;&gt;Node51</title>
<path fill="none" stroke="#191970" d="M390.6443,-252.8368C370.0369,-242.7139 342.8682,-229.3679 324.818,-220.5011"/>
<polygon fill="#191970" stroke="#191970" points="389.3604,-256.1056 399.8791,-257.3733 392.4467,-249.8227 389.3604,-256.1056"/>
</g>
<!-- Node52 -->
<g id="node27" class="node">
<title>Node52</title>
<g id="a_node27"><a xlink:href="vbus__pci_source.html" target="_top" xlink:title="l4/vbus/vbus_pci">
<polygon fill="#ffffff" stroke="#000000" points="373.4764,-201.5 373.4764,-220.5 465.4764,-220.5 465.4764,-201.5 373.4764,-201.5"/>
<text text-anchor="middle" x="419.4764" y="-208.5" font-family="Helvetica,sans-Serif" font-size="10.00" fill="#000000">l4/vbus/vbus_pci</text>
</a>
</g>
</g>
<!-- Node49&#45;&gt;Node52 -->
<g id="edge29" class="edge">
<title>Node49&#45;&gt;Node52</title>
<path fill="none" stroke="#191970" d="M419.4764,-247.1575C419.4764,-238.155 419.4764,-227.9199 419.4764,-220.6427"/>
<polygon fill="#191970" stroke="#191970" points="415.9765,-247.2455 419.4764,-257.2455 422.9765,-247.2456 415.9765,-247.2455"/>
</g>
<!-- Node53&#45;&gt;Node33 -->
<g id="edge31" class="edge">
<title>Node53&#45;&gt;Node33</title>
<path fill="none" stroke="#191970" d="M976.5917,-130.4311C980.4861,-119.9939 985.2427,-107.2463 988.8713,-97.5218"/>
<polygon fill="#191970" stroke="#191970" points="973.2751,-129.3079 973.0583,-139.9005 979.8334,-131.7551 973.2751,-129.3079"/>
</g>
<!-- Node54&#45;&gt;Node45 -->
<g id="edge33" class="edge">
<title>Node54&#45;&gt;Node45</title>
<path fill="none" stroke="#191970" d="M376.1099,-310.358C333.7232,-296.252 274.1346,-268.8607 246.4764,-221 234.3235,-199.9703 257.0571,-178.5383 277.3179,-164.6966"/>
<polygon fill="#191970" stroke="#191970" points="375.0879,-313.7057 385.6787,-313.4159 377.2187,-307.0379 375.0879,-313.7057"/>
</g>
<!-- Node55&#45;&gt;Node42 -->
<g id="edge38" class="edge">
<title>Node55&#45;&gt;Node42</title>
<path fill="none" stroke="#191970" d="M115.9345,-312.1359C69.4719,-297.6241 2.4764,-266.9914 2.4764,-211 2.4764,-211 2.4764,-211 2.4764,-149.5 2.4764,-111.8735 -7.4292,-91.0877 21.4764,-67 89.7469,-10.1086 732.5661,-44.0103 820.4764,-31 829.8803,-29.6083 839.9376,-27.3723 849.1181,-25.0267"/>
<polygon fill="#191970" stroke="#191970" points="115.2129,-315.5729 125.796,-315.0736 117.2114,-308.8642 115.2129,-315.5729"/>
</g>
<!-- Node55&#45;&gt;Node49 -->
<g id="edge39" class="edge">
<title>Node55&#45;&gt;Node49</title>
<path fill="none" stroke="#191970" d="M203.1524,-313.5929C253.5886,-302.7297 335.6567,-285.0535 382.8814,-274.882"/>
<polygon fill="#191970" stroke="#191970" points="202.2392,-310.2092 193.2003,-315.7364 203.7131,-317.0523 202.2392,-310.2092"/>
</g>
<!-- Node56 -->
<g id="node31" class="node">
<title>Node56</title>
<g id="a_node31"><a xlink:href="console_source.html" target="_top" xlink:title="l4/re/console">
<polygon fill="#ffffff" stroke="#000000" points="53.9764,-257.5 53.9764,-276.5 130.9764,-276.5 130.9764,-257.5 53.9764,-257.5"/>
<text text-anchor="middle" x="92.4764" y="-264.5" font-family="Helvetica,sans-Serif" font-size="10.00" fill="#000000">l4/re/console</text>
</a>
</g>
</g>
<!-- Node55&#45;&gt;Node56 -->
<g id="edge35" class="edge">
<title>Node55&#45;&gt;Node56</title>
<path fill="none" stroke="#191970" d="M139.9088,-306.645C128.2566,-296.9058 113.868,-284.8795 104.0132,-276.6427"/>
<polygon fill="#191970" stroke="#191970" points="137.8885,-309.5179 147.8059,-313.2455 142.3776,-304.1469 137.8885,-309.5179"/>
</g>
<!-- Node57 -->
<g id="node32" class="node">
<title>Node57</title>
<g id="a_node32"><a xlink:href="event__buffer_source.html" target="_top" xlink:title="l4/re/util/event_buffer">
<polygon fill="#ffffff" stroke="#000000" points="66.9764,-140 66.9764,-159 181.9764,-159 181.9764,-140 66.9764,-140"/>
<text text-anchor="middle" x="124.4764" y="-147" font-family="Helvetica,sans-Serif" font-size="10.00" fill="#000000">l4/re/util/event_buffer</text>
</a>
</g>
</g>
<!-- Node55&#45;&gt;Node57 -->
<g id="edge36" class="edge">
<title>Node55&#45;&gt;Node57</title>
<path fill="none" stroke="#191970" d="M155.513,-303.3528C148.0191,-266.2047 132.0243,-186.9161 126.4452,-159.2595"/>
<polygon fill="#191970" stroke="#191970" points="152.1364,-304.3144 157.5448,-313.4248 158.9981,-302.9301 152.1364,-304.3144"/>
</g>
<!-- Node57&#45;&gt;Node40 -->
<g id="edge37" class="edge">
<title>Node57&#45;&gt;Node40</title>
<path fill="none" stroke="#191970" d="M110.7768,-131.8486C100.8974,-119.1194 87.939,-102.4229 79.9129,-92.0817"/>
<polygon fill="#191970" stroke="#191970" points="108.1298,-134.1466 117.0261,-139.9005 113.6598,-129.8547 108.1298,-134.1466"/>
</g>
<!-- Node58&#45;&gt;Node44 -->
<g id="edge41" class="edge">
<title>Node58&#45;&gt;Node44</title>
<path fill="none" stroke="#191970" d="M927.0621,-373.4762C988.9861,-363.7858 1082.4764,-337.4843 1082.4764,-267 1082.4764,-267 1082.4764,-267 1082.4764,-211 1082.4764,-164.8385 1105.8064,-113.2137 1116.3778,-92.1906"/>
<polygon fill="#191970" stroke="#191970" points="926.4224,-370.0325 917.0352,-374.9449 927.437,-376.9586 926.4224,-370.0325"/>
</g>
</g>
</svg>
