<?xml version="1.0" encoding="UTF-8" standalone="no"?>
<!DOCTYPE svg PUBLIC "-//W3C//DTD SVG 1.1//EN"
 "http://www.w3.org/Graphics/SVG/1.1/DTD/svg11.dtd">
<!-- Generated by graphviz version 2.40.1 (20161225.0304)
 -->
<!-- Title: l4/re/consts Pages: 1 -->
<svg width="1095pt" height="767pt"
 viewBox="0.00 0.00 1095.12 767.00" xmlns="http://www.w3.org/2000/svg" xmlns:xlink="http://www.w3.org/1999/xlink">
<g id="graph0" class="graph" transform="scale(1 1) rotate(0) translate(4 763)">
<title>l4/re/consts</title>
<polygon fill="#ffffff" stroke="transparent" points="-4,4 -4,-763 1091.1211,-763 1091.1211,4 -4,4"/>
<!-- Node0 -->
<g id="node1" class="node">
<title>Node0</title>
<polygon fill="#bfbfbf" stroke="#000000" points="790.5,-739.5 790.5,-758.5 861.5,-758.5 861.5,-739.5 790.5,-739.5"/>
<text text-anchor="middle" x="826" y="-746.5" font-family="Helvetica,sans-Serif" font-size="10.00" fill="#000000">l4/re/consts</text>
</g>
<!-- Node1 -->
<g id="node2" class="node">
<title>Node1</title>
<g id="a_node2"><a xlink:href="capability.html" target="_top" xlink:title="L4::Cap related definitions. ">
<polygon fill="#ffffff" stroke="#000000" points="334,-683.5 334,-702.5 424,-702.5 424,-683.5 334,-683.5"/>
<text text-anchor="middle" x="379" y="-690.5" font-family="Helvetica,sans-Serif" font-size="10.00" fill="#000000">l4/sys/capability</text>
</a>
</g>
</g>
<!-- Node0&#45;&gt;Node1 -->
<g id="edge1" class="edge">
<title>Node0&#45;&gt;Node1</title>
<path fill="none" stroke="#191970" d="M790.1757,-744.5119C712.2985,-734.7555 527.134,-711.5582 434.2011,-699.9156"/>
<polygon fill="#191970" stroke="#191970" points="434.5066,-696.4266 424.1491,-698.6563 433.6364,-703.3723 434.5066,-696.4266"/>
</g>
<!-- Node2 -->
<g id="node3" class="node">
<title>Node2</title>
<g id="a_node3"><a xlink:href="l4_2sys_2consts_8h.html" target="_top" xlink:title="Common constants. ">
<polygon fill="#ffffff" stroke="#000000" points="632,-112.5 632,-131.5 718,-131.5 718,-112.5 632,-112.5"/>
<text text-anchor="middle" x="675" y="-119.5" font-family="Helvetica,sans-Serif" font-size="10.00" fill="#000000">l4/sys/consts.h</text>
</a>
</g>
</g>
<!-- Node0&#45;&gt;Node2 -->
<g id="edge60" class="edge">
<title>Node0&#45;&gt;Node2</title>
<path fill="none" stroke="#191970" d="M826,-739.4116C826,-720.0538 826,-674.9167 826,-637 826,-637 826,-637 826,-290 826,-232.6598 790.1282,-225.787 747,-188 728.2354,-171.5593 707.2583,-152.2167 692.8096,-138.7379"/>
<polygon fill="#191970" stroke="#191970" points="694.8162,-135.8223 685.1228,-131.5457 690.0336,-140.9337 694.8162,-135.8223"/>
</g>
<!-- Node25 -->
<g id="node26" class="node">
<title>Node25</title>
<g id="a_node26"><a xlink:href="env_8h.html" target="_top" xlink:title="Environment interface. ">
<polygon fill="#ffffff" stroke="#000000" points="878,-342 878,-361 944,-361 944,-342 878,-342"/>
<text text-anchor="middle" x="911" y="-349" font-family="Helvetica,sans-Serif" font-size="10.00" fill="#000000">l4/re/env.h</text>
</a>
</g>
</g>
<!-- Node0&#45;&gt;Node25 -->
<g id="edge61" class="edge">
<title>Node0&#45;&gt;Node25</title>
<path fill="none" stroke="#191970" d="M837.086,-739.4418C856.5907,-721.4968 895,-680.6211 895,-637 895,-637 895,-637 895,-469 895,-434.3228 901.9266,-394.411 906.6649,-371.1651"/>
<polygon fill="#191970" stroke="#191970" points="910.13,-371.696 908.7753,-361.1881 903.2815,-370.2473 910.13,-371.696"/>
</g>
<!-- Node1&#45;&gt;Node2 -->
<g id="edge2" class="edge">
<title>Node1&#45;&gt;Node2</title>
<path fill="none" stroke="#191970" d="M424.3329,-690.1947C530.821,-682.3665 788,-655.7255 788,-581 788,-581 788,-581 788,-290 788,-259.4754 787.1253,-248.5606 769,-224 751.6522,-200.4929 734.1793,-209.1265 714,-188 700.8327,-174.2146 690.1908,-155.194 683.3705,-141.112"/>
<polygon fill="#191970" stroke="#191970" points="686.4733,-139.4828 679.0981,-131.8764 680.1201,-142.4218 686.4733,-139.4828"/>
</g>
<!-- Node6 -->
<g id="node7" class="node">
<title>Node6</title>
<g id="a_node7"><a xlink:href="l4_2sys_2types_8h.html" target="_top" xlink:title="Common L4 ABI Data Types. ">
<polygon fill="#ffffff" stroke="#000000" points="342,-168.5 342,-187.5 422,-187.5 422,-168.5 342,-168.5"/>
<text text-anchor="middle" x="382" y="-175.5" font-family="Helvetica,sans-Serif" font-size="10.00" fill="#000000">l4/sys/types.h</text>
</a>
</g>
</g>
<!-- Node1&#45;&gt;Node6 -->
<g id="edge6" class="edge">
<title>Node1&#45;&gt;Node6</title>
<path fill="none" stroke="#191970" d="M333.7178,-687.7671C240.9592,-675.784 38,-642.5339 38,-581 38,-581 38,-581 38,-290 38,-244.2481 75.4883,-243.2358 117,-224 154.3505,-206.6924 265.9575,-191.405 331.8165,-183.5651"/>
<polygon fill="#191970" stroke="#191970" points="332.452,-187.0146 341.9753,-182.3716 331.6352,-180.0624 332.452,-187.0146"/>
</g>
<!-- Node9 -->
<g id="node10" class="node">
<title>Node9</title>
<g id="a_node10"><a xlink:href="kobject_source.html" target="_top" xlink:title="l4/sys/kobject">
<polygon fill="#ffffff" stroke="#000000" points="229,-515.5 229,-534.5 309,-534.5 309,-515.5 229,-515.5"/>
<text text-anchor="middle" x="269" y="-522.5" font-family="Helvetica,sans-Serif" font-size="10.00" fill="#000000">l4/sys/kobject</text>
</a>
</g>
</g>
<!-- Node1&#45;&gt;Node9 -->
<g id="edge14" class="edge">
<title>Node1&#45;&gt;Node9</title>
<path fill="none" stroke="#191970" d="M363.5254,-683.2622C351.2241,-674.8829 334.2679,-661.8248 323,-647 298.5813,-614.873 282.3891,-569.9708 274.5356,-544.5607"/>
<polygon fill="#191970" stroke="#191970" points="277.7991,-543.2552 271.5973,-534.6651 271.0887,-545.2477 277.7991,-543.2552"/>
</g>
<!-- Node19 -->
<g id="node20" class="node">
<title>Node19</title>
<g id="a_node20"><a xlink:href="l4_2sys_2task_8h.html" target="_top" xlink:title="Common task related definitions. ">
<polygon fill="#ffffff" stroke="#000000" points="358,-342 358,-361 432,-361 432,-342 358,-342"/>
<text text-anchor="middle" x="395" y="-349" font-family="Helvetica,sans-Serif" font-size="10.00" fill="#000000">l4/sys/task.h</text>
</a>
</g>
</g>
<!-- Node1&#45;&gt;Node19 -->
<g id="edge43" class="edge">
<title>Node1&#45;&gt;Node19</title>
<path fill="none" stroke="#191970" d="M372.6211,-683.2715C360.8717,-664.3847 337,-621.0797 337,-581 337,-581 337,-581 337,-469 337,-438.4754 342.3333,-430.2942 356,-403 362.214,-390.5898 371.5336,-378.1435 379.5043,-368.596"/>
<polygon fill="#191970" stroke="#191970" points="382.1568,-370.8795 386.0496,-361.0257 376.8616,-366.3012 382.1568,-370.8795"/>
</g>
<!-- Node20 -->
<g id="node21" class="node">
<title>Node20</title>
<g id="a_node21"><a xlink:href="sys_2meta.html" target="_top" xlink:title="Meta interface for getting dynamic type information about objects behind capabilities. ">
<polygon fill="#ffffff" stroke="#000000" points="450,-627.5 450,-646.5 520,-646.5 520,-627.5 450,-627.5"/>
<text text-anchor="middle" x="485" y="-634.5" font-family="Helvetica,sans-Serif" font-size="10.00" fill="#000000">l4/sys/meta</text>
</a>
</g>
</g>
<!-- Node1&#45;&gt;Node20 -->
<g id="edge44" class="edge">
<title>Node1&#45;&gt;Node20</title>
<path fill="none" stroke="#191970" d="M397.4638,-683.2455C414.1074,-674.4527 438.7993,-661.4079 457.7192,-651.4125"/>
<polygon fill="#191970" stroke="#191970" points="459.5408,-654.4086 466.7478,-646.6427 456.2709,-648.2193 459.5408,-654.4086"/>
</g>
<!-- Node3 -->
<g id="node4" class="node">
<title>Node3</title>
<g id="a_node4"><a xlink:href="compiler_8h.html" target="_top" xlink:title="L4 compiler related defines. ">
<polygon fill="#ffffff" stroke="#000000" points="358.5,-56.5 358.5,-75.5 453.5,-75.5 453.5,-56.5 358.5,-56.5"/>
<text text-anchor="middle" x="406" y="-63.5" font-family="Helvetica,sans-Serif" font-size="10.00" fill="#000000">l4/sys/compiler.h</text>
</a>
</g>
</g>
<!-- Node2&#45;&gt;Node3 -->
<g id="edge3" class="edge">
<title>Node2&#45;&gt;Node3</title>
<path fill="none" stroke="#191970" d="M631.7805,-113.0026C585.6513,-103.3995 512.3991,-88.15 461.9082,-77.6389"/>
<polygon fill="#191970" stroke="#191970" points="462.3166,-74.1489 451.8131,-75.5373 460.8899,-81.002 462.3166,-74.1489"/>
</g>
<!-- Node5 -->
<g id="node6" class="node">
<title>Node5</title>
<g id="a_node6"><a xlink:href="l4_2sys_2l4int_8h.html" target="_top" xlink:title="Fixed sized integer types, generic version. ">
<polygon fill="#ffffff" stroke="#000000" points="559,-56.5 559,-75.5 633,-75.5 633,-56.5 559,-56.5"/>
<text text-anchor="middle" x="596" y="-63.5" font-family="Helvetica,sans-Serif" font-size="10.00" fill="#000000">l4/sys/l4int.h</text>
</a>
</g>
</g>
<!-- Node2&#45;&gt;Node5 -->
<g id="edge5" class="edge">
<title>Node2&#45;&gt;Node5</title>
<path fill="none" stroke="#191970" d="M661.2393,-112.2455C649.3448,-103.814 631.935,-91.4729 618.0915,-81.6598"/>
<polygon fill="#191970" stroke="#191970" points="619.7854,-78.5704 609.6031,-75.6427 615.7372,-84.2811 619.7854,-78.5704"/>
</g>
<!-- Node4 -->
<g id="node5" class="node">
<title>Node4</title>
<polygon fill="#ffffff" stroke="#bfbfbf" points="361.5,-.5 361.5,-19.5 450.5,-19.5 450.5,-.5 361.5,-.5"/>
<text text-anchor="middle" x="406" y="-7.5" font-family="Helvetica,sans-Serif" font-size="10.00" fill="#000000">l4/sys/linkage.h</text>
</g>
<!-- Node3&#45;&gt;Node4 -->
<g id="edge4" class="edge">
<title>Node3&#45;&gt;Node4</title>
<path fill="none" stroke="#191970" d="M406,-56.2455C406,-48.9382 406,-38.6944 406,-29.7046"/>
<polygon fill="#191970" stroke="#191970" points="409.5001,-29.6426 406,-19.6427 402.5001,-29.6427 409.5001,-29.6426"/>
</g>
<!-- Node6&#45;&gt;Node2 -->
<g id="edge9" class="edge">
<title>Node6&#45;&gt;Node2</title>
<path fill="none" stroke="#191970" d="M422.126,-170.3309C473.8742,-160.4404 564.0412,-143.2071 621.5562,-132.2145"/>
<polygon fill="#191970" stroke="#191970" points="622.3824,-135.62 631.5475,-130.3049 621.0683,-128.7445 622.3824,-135.62"/>
</g>
<!-- Node6&#45;&gt;Node3 -->
<g id="edge8" class="edge">
<title>Node6&#45;&gt;Node3</title>
<path fill="none" stroke="#191970" d="M341.7357,-172.4382C295.6353,-164.3312 229.5607,-146.3433 255,-112 266.455,-96.5356 310.7911,-84.1939 348.4813,-76.2032"/>
<polygon fill="#191970" stroke="#191970" points="349.3069,-79.6068 358.398,-74.1661 347.8983,-72.75 349.3069,-79.6068"/>
</g>
<!-- Node6&#45;&gt;Node5 -->
<g id="edge7" class="edge">
<title>Node6&#45;&gt;Node5</title>
<path fill="none" stroke="#191970" d="M384.7423,-168.3043C389.3551,-153.8006 400.0701,-126.6025 419,-112 439.1582,-96.45 503.5219,-82.3304 548.7952,-73.9515"/>
<polygon fill="#191970" stroke="#191970" points="549.4986,-77.3811 558.7124,-72.1507 548.2479,-70.4937 549.4986,-77.3811"/>
</g>
<!-- Node7 -->
<g id="node8" class="node">
<title>Node7</title>
<g id="a_node8"><a xlink:href="____l4__fpage_8h_source.html" target="_top" xlink:title="l4/sys/__l4_fpage.h">
<polygon fill="#ffffff" stroke="#000000" points="264,-112.5 264,-131.5 372,-131.5 372,-112.5 264,-112.5"/>
<text text-anchor="middle" x="318" y="-119.5" font-family="Helvetica,sans-Serif" font-size="10.00" fill="#000000">l4/sys/__l4_fpage.h</text>
</a>
</g>
</g>
<!-- Node6&#45;&gt;Node7 -->
<g id="edge10" class="edge">
<title>Node6&#45;&gt;Node7</title>
<path fill="none" stroke="#191970" d="M370.8521,-168.2455C361.4913,-160.0549 347.9142,-148.1749 336.8651,-138.5069"/>
<polygon fill="#191970" stroke="#191970" points="338.8508,-135.5937 329.0202,-131.6427 334.2412,-140.8618 338.8508,-135.5937"/>
</g>
<!-- Node8 -->
<g id="node9" class="node">
<title>Node8</title>
<g id="a_node9"><a xlink:href="____timeout_8h_source.html" target="_top" xlink:title="l4/sys/__timeout.h">
<polygon fill="#ffffff" stroke="#000000" points="428.5,-112.5 428.5,-131.5 529.5,-131.5 529.5,-112.5 428.5,-112.5"/>
<text text-anchor="middle" x="479" y="-119.5" font-family="Helvetica,sans-Serif" font-size="10.00" fill="#000000">l4/sys/__timeout.h</text>
</a>
</g>
</g>
<!-- Node6&#45;&gt;Node8 -->
<g id="edge12" class="edge">
<title>Node6&#45;&gt;Node8</title>
<path fill="none" stroke="#191970" d="M398.8961,-168.2455C413.918,-159.5731 436.1043,-146.7645 453.321,-136.825"/>
<polygon fill="#191970" stroke="#191970" points="455.3871,-139.6737 462.2975,-131.6427 451.8872,-133.6114 455.3871,-139.6737"/>
</g>
<!-- Node7&#45;&gt;Node3 -->
<g id="edge11" class="edge">
<title>Node7&#45;&gt;Node3</title>
<path fill="none" stroke="#191970" d="M333.3284,-112.2455C346.8303,-103.6534 366.7122,-91.0014 382.2686,-81.1018"/>
<polygon fill="#191970" stroke="#191970" points="384.2897,-83.9643 390.8472,-75.6427 380.5315,-78.0587 384.2897,-83.9643"/>
</g>
<!-- Node8&#45;&gt;Node5 -->
<g id="edge13" class="edge">
<title>Node8&#45;&gt;Node5</title>
<path fill="none" stroke="#191970" d="M499.113,-112.3733C517.8103,-103.4241 545.8744,-89.9917 566.9934,-79.8835"/>
<polygon fill="#191970" stroke="#191970" points="568.6405,-82.9755 576.1494,-75.5011 565.6183,-76.6614 568.6405,-82.9755"/>
</g>
<!-- Node9&#45;&gt;Node6 -->
<g id="edge29" class="edge">
<title>Node9&#45;&gt;Node6</title>
<path fill="none" stroke="#191970" d="M228.5409,-519.7674C171.9471,-509.9246 76,-482.926 76,-413 76,-413 76,-413 76,-290 76,-236.1271 245.3731,-200.4222 332.0988,-185.671"/>
<polygon fill="#191970" stroke="#191970" points="332.7093,-189.1176 341.9958,-184.0176 331.5558,-182.2133 332.7093,-189.1176"/>
</g>
<!-- Node10 -->
<g id="node11" class="node">
<title>Node10</title>
<g id="a_node11"><a xlink:href="kernel__object_8h.html" target="_top" xlink:title="Kernel object system calls. ">
<polygon fill="#ffffff" stroke="#000000" points="175,-403.5 175,-422.5 263,-422.5 263,-403.5 175,-403.5"/>
<text text-anchor="middle" x="219" y="-410.5" font-family="Helvetica,sans-Serif" font-size="10.00" fill="#000000">kernel_object.h</text>
</a>
</g>
</g>
<!-- Node9&#45;&gt;Node10 -->
<g id="edge15" class="edge">
<title>Node9&#45;&gt;Node10</title>
<path fill="none" stroke="#191970" d="M264.737,-515.4509C256.4714,-496.936 238.1335,-455.8591 227.3566,-431.7187"/>
<polygon fill="#191970" stroke="#191970" points="230.5247,-430.2295 223.2522,-422.5249 224.1328,-433.0831 230.5247,-430.2295"/>
</g>
<!-- Node15 -->
<g id="node16" class="node">
<title>Node15</title>
<g id="a_node16"><a xlink:href="____typeinfo_8h.html" target="_top" xlink:title="Type information handling. ">
<polygon fill="#ffffff" stroke="#000000" points="368,-459.5 368,-478.5 442,-478.5 442,-459.5 368,-459.5"/>
<text text-anchor="middle" x="405" y="-466.5" font-family="Helvetica,sans-Serif" font-size="10.00" fill="#000000">__typeinfo.h</text>
</a>
</g>
</g>
<!-- Node9&#45;&gt;Node15 -->
<g id="edge30" class="edge">
<title>Node9&#45;&gt;Node15</title>
<path fill="none" stroke="#191970" d="M292.3792,-515.3733C314.5045,-506.2629 347.9134,-492.5062 372.6019,-482.3404"/>
<polygon fill="#191970" stroke="#191970" points="374.0117,-485.5451 381.9258,-478.5011 371.3464,-479.0723 374.0117,-485.5451"/>
</g>
<!-- Node10&#45;&gt;Node3 -->
<g id="edge17" class="edge">
<title>Node10&#45;&gt;Node3</title>
<path fill="none" stroke="#191970" d="M174.9455,-408.0446C110.9939,-398.1298 0,-369.474 0,-290 0,-290 0,-290 0,-178 0,-106.6515 235.9481,-78.9966 348.1018,-69.8815"/>
<polygon fill="#191970" stroke="#191970" points="348.5394,-73.3579 358.2328,-69.0813 347.9882,-66.3797 348.5394,-73.3579"/>
</g>
<!-- Node10&#45;&gt;Node6 -->
<g id="edge16" class="edge">
<title>Node10&#45;&gt;Node6</title>
<path fill="none" stroke="#191970" d="M183.0343,-403.454C164.6374,-396.5484 143.8785,-385.1556 133,-367 125.9185,-355.1814 126.748,-348.2776 133,-336 174.2635,-254.968 278.1275,-210.3215 337.8654,-190.5773"/>
<polygon fill="#191970" stroke="#191970" points="338.9636,-193.9007 347.4135,-187.5094 336.8222,-187.2363 338.9636,-193.9007"/>
</g>
<!-- Node11 -->
<g id="node12" class="node">
<title>Node11</title>
<g id="a_node12"><a xlink:href="l4_2sys_2utcb_8h.html" target="_top" xlink:title="UTCB definitions. ">
<polygon fill="#ffffff" stroke="#000000" points="318,-224.5 318,-243.5 392,-243.5 392,-224.5 318,-224.5"/>
<text text-anchor="middle" x="355" y="-231.5" font-family="Helvetica,sans-Serif" font-size="10.00" fill="#000000">l4/sys/utcb.h</text>
</a>
</g>
</g>
<!-- Node10&#45;&gt;Node11 -->
<g id="edge18" class="edge">
<title>Node10&#45;&gt;Node11</title>
<path fill="none" stroke="#191970" d="M239.1817,-403.4565C254.4169,-395.4438 275.0168,-382.7824 289,-367 319.6346,-332.4237 339.7221,-281.0792 349.0165,-253.3879"/>
<polygon fill="#191970" stroke="#191970" points="352.4009,-254.2971 352.1467,-243.7053 345.7403,-252.1438 352.4009,-254.2971"/>
</g>
<!-- Node12 -->
<g id="node13" class="node">
<title>Node12</title>
<g id="a_node13"><a xlink:href="____kernel__object__impl_8h.html" target="_top" xlink:title="Low&#45;level kernel debugger functions. ">
<polygon fill="#ffffff" stroke="#000000" points="142,-336.5 142,-366.5 264,-366.5 264,-336.5 142,-336.5"/>
<text text-anchor="start" x="150" y="-354.5" font-family="Helvetica,sans-Serif" font-size="10.00" fill="#000000">l4/sys/__kernel_object</text>
<text text-anchor="middle" x="203" y="-343.5" font-family="Helvetica,sans-Serif" font-size="10.00" fill="#000000">_impl.h</text>
</a>
</g>
</g>
<!-- Node10&#45;&gt;Node12 -->
<g id="edge22" class="edge">
<title>Node10&#45;&gt;Node12</title>
<path fill="none" stroke="#191970" d="M216.5,-403.3906C214.6153,-396.1463 211.9412,-385.8679 209.4696,-376.3676"/>
<polygon fill="#191970" stroke="#191970" points="212.8192,-375.3412 206.914,-366.5446 206.0447,-377.1037 212.8192,-375.3412"/>
</g>
<!-- Node13 -->
<g id="node14" class="node">
<title>Node13</title>
<g id="a_node14"><a xlink:href="l4_2sys_2ipc_8h.html" target="_top" xlink:title="Common IPC interface. ">
<polygon fill="#ffffff" stroke="#000000" points="221,-280.5 221,-299.5 289,-299.5 289,-280.5 221,-280.5"/>
<text text-anchor="middle" x="255" y="-287.5" font-family="Helvetica,sans-Serif" font-size="10.00" fill="#000000">l4/sys/ipc.h</text>
</a>
</g>
</g>
<!-- Node10&#45;&gt;Node13 -->
<g id="edge28" class="edge">
<title>Node10&#45;&gt;Node13</title>
<path fill="none" stroke="#191970" d="M236.9599,-403.3701C249.6324,-395.4681 265.6167,-382.9885 273,-367 281.7224,-348.1117 273.8099,-324.6025 265.9009,-308.5625"/>
<polygon fill="#191970" stroke="#191970" points="268.9331,-306.8107 261.1256,-299.6488 262.7627,-310.1163 268.9331,-306.8107"/>
</g>
<!-- Node11&#45;&gt;Node3 -->
<g id="edge20" class="edge">
<title>Node11&#45;&gt;Node3</title>
<path fill="none" stroke="#191970" d="M334.3255,-224.3651C294.1967,-204.3601 212.5128,-156.4713 246,-112 258.5684,-95.3091 307.9735,-82.7989 348.5986,-75.071"/>
<polygon fill="#191970" stroke="#191970" points="349.2425,-78.5114 358.4428,-73.2573 347.9742,-71.6272 349.2425,-78.5114"/>
</g>
<!-- Node11&#45;&gt;Node5 -->
<g id="edge21" class="edge">
<title>Node11&#45;&gt;Node5</title>
<path fill="none" stroke="#191970" d="M377.6319,-224.4391C413.7796,-208.5264 485.7834,-174.1528 538,-132 555.496,-117.876 572.0734,-98.1349 582.9893,-83.9283"/>
<polygon fill="#191970" stroke="#191970" points="585.8122,-85.9977 589.0119,-75.8976 580.2121,-81.7979 585.8122,-85.9977"/>
</g>
<!-- Node11&#45;&gt;Node6 -->
<g id="edge19" class="edge">
<title>Node11&#45;&gt;Node6</title>
<path fill="none" stroke="#191970" d="M359.703,-224.2455C363.3424,-216.6973 368.4924,-206.0158 372.9262,-196.8197"/>
<polygon fill="#191970" stroke="#191970" points="376.1605,-198.1704 377.3509,-187.6427 369.8551,-195.1303 376.1605,-198.1704"/>
</g>
<!-- Node12&#45;&gt;Node13 -->
<g id="edge23" class="edge">
<title>Node12&#45;&gt;Node13</title>
<path fill="none" stroke="#191970" d="M215.8539,-336.2977C223.2224,-327.5831 232.5026,-316.6075 240.1777,-307.5302"/>
<polygon fill="#191970" stroke="#191970" points="242.8902,-309.743 246.6741,-299.8469 237.5448,-305.2233 242.8902,-309.743"/>
</g>
<!-- Node13&#45;&gt;Node6 -->
<g id="edge24" class="edge">
<title>Node13&#45;&gt;Node6</title>
<path fill="none" stroke="#191970" d="M261.4844,-280.2121C270.8592,-266.5415 289.2519,-241.4492 309,-224 322.7207,-211.8765 339.9804,-200.8437 354.2719,-192.6237"/>
<polygon fill="#191970" stroke="#191970" points="356.1509,-195.583 363.1679,-187.645 352.7322,-189.4746 356.1509,-195.583"/>
</g>
<!-- Node13&#45;&gt;Node11 -->
<g id="edge25" class="edge">
<title>Node13&#45;&gt;Node11</title>
<path fill="none" stroke="#191970" d="M272.4187,-280.2455C288.0485,-271.4928 311.2019,-258.527 329.0185,-248.5496"/>
<polygon fill="#191970" stroke="#191970" points="330.766,-251.5825 337.7809,-243.6427 327.3457,-245.475 330.766,-251.5825"/>
</g>
<!-- Node14 -->
<g id="node15" class="node">
<title>Node14</title>
<g id="a_node15"><a xlink:href="err_8h.html" target="_top" xlink:title="Error codes. ">
<polygon fill="#ffffff" stroke="#000000" points="492,-224.5 492,-243.5 560,-243.5 560,-224.5 492,-224.5"/>
<text text-anchor="middle" x="526" y="-231.5" font-family="Helvetica,sans-Serif" font-size="10.00" fill="#000000">l4/sys/err.h</text>
</a>
</g>
</g>
<!-- Node13&#45;&gt;Node14 -->
<g id="edge26" class="edge">
<title>Node13&#45;&gt;Node14</title>
<path fill="none" stroke="#191970" d="M289.0479,-282.9643C337.9276,-272.8637 428.0202,-254.2468 481.9271,-243.1073"/>
<polygon fill="#191970" stroke="#191970" points="482.7934,-246.5023 491.8782,-241.051 481.3768,-239.6472 482.7934,-246.5023"/>
</g>
<!-- Node14&#45;&gt;Node3 -->
<g id="edge27" class="edge">
<title>Node14&#45;&gt;Node3</title>
<path fill="none" stroke="#191970" d="M530.8546,-224.3548C541.2487,-202.1937 562.7768,-146.8726 538,-112 528.4782,-98.5983 492.063,-86.4978 459.8872,-78.0748"/>
<polygon fill="#191970" stroke="#191970" points="460.6262,-74.6515 450.0722,-75.5815 458.9026,-81.436 460.6262,-74.6515"/>
</g>
<!-- Node16 -->
<g id="node17" class="node">
<title>Node16</title>
<g id="a_node17"><a xlink:href="types.html" target="_top" xlink:title="cxx/types">
<polygon fill="#ffffff" stroke="#000000" points="526.5,-342 526.5,-361 587.5,-361 587.5,-342 526.5,-342"/>
<text text-anchor="middle" x="557" y="-349" font-family="Helvetica,sans-Serif" font-size="10.00" fill="#000000">cxx/types</text>
</a>
</g>
</g>
<!-- Node15&#45;&gt;Node16 -->
<g id="edge31" class="edge">
<title>Node15&#45;&gt;Node16</title>
<path fill="none" stroke="#191970" d="M417.4388,-459.3845C443.4921,-439.2446 504.0329,-392.445 536.1398,-367.6255"/>
<polygon fill="#191970" stroke="#191970" points="538.6182,-370.1335 544.3893,-361.2484 534.337,-364.5953 538.6182,-370.1335"/>
</g>
<!-- Node17 -->
<g id="node18" class="node">
<title>Node17</title>
<g id="a_node18"><a xlink:href="ipc__basics_source.html" target="_top" xlink:title="cxx/ipc_basics">
<polygon fill="#ffffff" stroke="#000000" points="590,-403.5 590,-422.5 674,-422.5 674,-403.5 590,-403.5"/>
<text text-anchor="middle" x="632" y="-410.5" font-family="Helvetica,sans-Serif" font-size="10.00" fill="#000000">cxx/ipc_basics</text>
</a>
</g>
</g>
<!-- Node15&#45;&gt;Node17 -->
<g id="edge32" class="edge">
<title>Node15&#45;&gt;Node17</title>
<path fill="none" stroke="#191970" d="M442.2302,-459.8154C480.7734,-450.307 541.1568,-435.4106 583.4312,-424.9817"/>
<polygon fill="#191970" stroke="#191970" points="584.3581,-428.3581 593.2287,-422.5647 582.6814,-421.5618 584.3581,-428.3581"/>
</g>
<!-- Node18 -->
<g id="node19" class="node">
<title>Node18</title>
<g id="a_node19"><a xlink:href="capability_8h_source.html" target="_top" xlink:title="cxx/capability.h">
<polygon fill="#ffffff" stroke="#000000" points="365.5,-403.5 365.5,-422.5 452.5,-422.5 452.5,-403.5 365.5,-403.5"/>
<text text-anchor="middle" x="409" y="-410.5" font-family="Helvetica,sans-Serif" font-size="10.00" fill="#000000">cxx/capability.h</text>
</a>
</g>
</g>
<!-- Node15&#45;&gt;Node18 -->
<g id="edge36" class="edge">
<title>Node15&#45;&gt;Node18</title>
<path fill="none" stroke="#191970" d="M405.6967,-459.2455C406.2187,-451.9382 406.9504,-441.6944 407.5925,-432.7046"/>
<polygon fill="#191970" stroke="#191970" points="411.0898,-432.8667 408.3112,-422.6427 404.1076,-432.3679 411.0898,-432.8667"/>
</g>
<!-- Node17&#45;&gt;Node11 -->
<g id="edge34" class="edge">
<title>Node17&#45;&gt;Node11</title>
<path fill="none" stroke="#191970" d="M629.8945,-403.4073C625.9203,-387.4085 615.8702,-355.149 596,-336 541.294,-283.2796 455.2256,-255.9124 402.1099,-243.2714"/>
<polygon fill="#191970" stroke="#191970" points="402.798,-239.8384 392.268,-241.008 401.2291,-246.6603 402.798,-239.8384"/>
</g>
<!-- Node17&#45;&gt;Node14 -->
<g id="edge35" class="edge">
<title>Node17&#45;&gt;Node14</title>
<path fill="none" stroke="#191970" d="M633.9874,-403.2609C636.5921,-388.144 639.7667,-358.4383 630,-336 613.387,-297.833 575.1452,-266.58 549.9543,-249.1278"/>
<polygon fill="#191970" stroke="#191970" points="551.8968,-246.2162 541.6451,-243.5415 547.9912,-252.0255 551.8968,-246.2162"/>
</g>
<!-- Node17&#45;&gt;Node16 -->
<g id="edge33" class="edge">
<title>Node17&#45;&gt;Node16</title>
<path fill="none" stroke="#191970" d="M620.2813,-403.3906C608.6812,-393.8786 590.7021,-379.1357 576.8679,-367.7917"/>
<polygon fill="#191970" stroke="#191970" points="578.836,-364.8792 568.884,-361.2449 574.3974,-370.2921 578.836,-364.8792"/>
</g>
<!-- Node18&#45;&gt;Node2 -->
<g id="edge37" class="edge">
<title>Node18&#45;&gt;Node2</title>
<path fill="none" stroke="#191970" d="M419.4971,-403.3286C429.3565,-394.1545 444.4313,-379.8933 457,-367 537.1436,-284.7862 626.2953,-180.0722 660.5341,-139.3195"/>
<polygon fill="#191970" stroke="#191970" points="663.242,-141.5374 666.9838,-131.6253 657.8774,-137.0405 663.242,-141.5374"/>
</g>
<!-- Node18&#45;&gt;Node6 -->
<g id="edge38" class="edge">
<title>Node18&#45;&gt;Node6</title>
<path fill="none" stroke="#191970" d="M418.3618,-403.3788C426.1234,-394.6808 436.575,-381.1096 441,-367 445.1229,-353.8536 442.4515,-349.7011 441,-336 435.6368,-285.3755 438.257,-270.2574 417,-224 412.2729,-213.7135 404.9153,-203.56 398.1635,-195.42"/>
<polygon fill="#191970" stroke="#191970" points="400.6881,-192.9894 391.4824,-187.7448 395.4082,-197.5855 400.6881,-192.9894"/>
</g>
<!-- Node18&#45;&gt;Node19 -->
<g id="edge39" class="edge">
<title>Node18&#45;&gt;Node19</title>
<path fill="none" stroke="#191970" d="M406.8125,-403.3906C404.8514,-394.776 401.9137,-381.8708 399.4585,-371.0858"/>
<polygon fill="#191970" stroke="#191970" points="402.8507,-370.2185 397.2183,-361.2449 396.0254,-371.7723 402.8507,-370.2185"/>
</g>
<!-- Node19&#45;&gt;Node6 -->
<g id="edge40" class="edge">
<title>Node19&#45;&gt;Node6</title>
<path fill="none" stroke="#191970" d="M397.0362,-341.7853C401.1959,-320.3056 409.5815,-267.2552 401,-224 399.1352,-214.6003 395.3201,-204.7115 391.5946,-196.5215"/>
<polygon fill="#191970" stroke="#191970" points="394.7433,-194.993 387.2318,-187.5212 388.4443,-198.0464 394.7433,-194.993"/>
</g>
<!-- Node19&#45;&gt;Node11 -->
<g id="edge41" class="edge">
<title>Node19&#45;&gt;Node11</title>
<path fill="none" stroke="#191970" d="M391.7266,-341.8845C385.1635,-322.6053 370.2838,-278.8963 361.6125,-253.4241"/>
<polygon fill="#191970" stroke="#191970" points="364.8546,-252.0869 358.3186,-243.7484 358.228,-254.3428 364.8546,-252.0869"/>
</g>
<!-- Node19&#45;&gt;Node13 -->
<g id="edge42" class="edge">
<title>Node19&#45;&gt;Node13</title>
<path fill="none" stroke="#191970" d="M373.125,-341.8906C349.7004,-331.6005 312.3404,-315.1888 285.9159,-303.5809"/>
<polygon fill="#191970" stroke="#191970" points="287.2846,-300.3594 276.7214,-299.5419 284.4693,-306.7683 287.2846,-300.3594"/>
</g>
<!-- Node20&#45;&gt;Node9 -->
<g id="edge45" class="edge">
<title>Node20&#45;&gt;Node9</title>
<path fill="none" stroke="#191970" d="M466.584,-627.4509C428.5651,-607.7375 341.2183,-562.4465 296.4905,-539.2543"/>
<polygon fill="#191970" stroke="#191970" points="297.8581,-536.021 287.3694,-534.5249 294.6359,-542.2353 297.8581,-536.021"/>
</g>
<!-- Node21 -->
<g id="node22" class="node">
<title>Node21</title>
<g id="a_node22"><a xlink:href="ipc__iface.html" target="_top" xlink:title="Interface Definition Language. ">
<polygon fill="#ffffff" stroke="#000000" points="506.5,-515.5 506.5,-534.5 583.5,-534.5 583.5,-515.5 506.5,-515.5"/>
<text text-anchor="middle" x="545" y="-522.5" font-family="Helvetica,sans-Serif" font-size="10.00" fill="#000000">cxx/ipc_iface</text>
</a>
</g>
</g>
<!-- Node20&#45;&gt;Node21 -->
<g id="edge46" class="edge">
<title>Node20&#45;&gt;Node21</title>
<path fill="none" stroke="#191970" d="M490.1156,-627.4509C500.0786,-608.8533 522.2365,-567.4919 535.1448,-543.3964"/>
<polygon fill="#191970" stroke="#191970" points="538.2603,-544.9925 539.8974,-534.5249 532.0899,-541.6869 538.2603,-544.9925"/>
</g>
<!-- Node23 -->
<g id="node24" class="node">
<title>Node23</title>
<g id="a_node24"><a xlink:href="ipc__string_source.html" target="_top" xlink:title="cxx/ipc_string">
<polygon fill="#ffffff" stroke="#000000" points="582.5,-571.5 582.5,-590.5 663.5,-590.5 663.5,-571.5 582.5,-571.5"/>
<text text-anchor="middle" x="623" y="-578.5" font-family="Helvetica,sans-Serif" font-size="10.00" fill="#000000">cxx/ipc_string</text>
</a>
</g>
</g>
<!-- Node20&#45;&gt;Node23 -->
<g id="edge53" class="edge">
<title>Node20&#45;&gt;Node23</title>
<path fill="none" stroke="#191970" d="M508.723,-627.3733C531.1737,-618.2629 565.0739,-604.5062 590.1255,-594.3404"/>
<polygon fill="#191970" stroke="#191970" points="591.6365,-597.5045 599.5865,-590.5011 589.0043,-591.0182 591.6365,-597.5045"/>
</g>
<!-- Node21&#45;&gt;Node15 -->
<g id="edge52" class="edge">
<title>Node21&#45;&gt;Node15</title>
<path fill="none" stroke="#191970" d="M520.9331,-515.3733C498.1572,-506.2629 463.7656,-492.5062 438.351,-482.3404"/>
<polygon fill="#191970" stroke="#191970" points="439.3375,-478.9654 428.7528,-478.5011 436.7377,-485.4648 439.3375,-478.9654"/>
</g>
<!-- Node21&#45;&gt;Node17 -->
<g id="edge47" class="edge">
<title>Node21&#45;&gt;Node17</title>
<path fill="none" stroke="#191970" d="M569.2847,-515.3626C585.2228,-507.8033 605.2252,-495.7444 617,-479 626.4934,-465.4998 630.085,-446.9465 631.3931,-432.9485"/>
<polygon fill="#191970" stroke="#191970" points="634.8915,-433.0813 632.0218,-422.8826 627.9052,-432.6449 634.8915,-433.0813"/>
</g>
<!-- Node22 -->
<g id="node23" class="node">
<title>Node22</title>
<g id="a_node23"><a xlink:href="ipc__types.html" target="_top" xlink:title="l4/sys/cxx/ipc_types">
<polygon fill="#ffffff" stroke="#000000" points="498,-459.5 498,-478.5 608,-478.5 608,-459.5 498,-459.5"/>
<text text-anchor="middle" x="553" y="-466.5" font-family="Helvetica,sans-Serif" font-size="10.00" fill="#000000">l4/sys/cxx/ipc_types</text>
</a>
</g>
</g>
<!-- Node21&#45;&gt;Node22 -->
<g id="edge48" class="edge">
<title>Node21&#45;&gt;Node22</title>
<path fill="none" stroke="#191970" d="M546.3935,-515.2455C547.4374,-507.9382 548.9008,-497.6944 550.1851,-488.7046"/>
<polygon fill="#191970" stroke="#191970" points="553.673,-489.0372 551.6225,-478.6427 546.7434,-488.0472 553.673,-489.0372"/>
</g>
<!-- Node22&#45;&gt;Node16 -->
<g id="edge50" class="edge">
<title>Node22&#45;&gt;Node16</title>
<path fill="none" stroke="#191970" d="M553.3273,-459.3845C553.9807,-440.1913 555.4583,-396.786 556.3271,-371.2663"/>
<polygon fill="#191970" stroke="#191970" points="559.8258,-371.3617 556.6681,-361.2484 552.8298,-371.1235 559.8258,-371.3617"/>
</g>
<!-- Node22&#45;&gt;Node17 -->
<g id="edge51" class="edge">
<title>Node22&#45;&gt;Node17</title>
<path fill="none" stroke="#191970" d="M566.7607,-459.2455C578.6552,-450.814 596.065,-438.4729 609.9085,-428.6598"/>
<polygon fill="#191970" stroke="#191970" points="612.2628,-431.2811 618.3969,-422.6427 608.2146,-425.5704 612.2628,-431.2811"/>
</g>
<!-- Node22&#45;&gt;Node18 -->
<g id="edge49" class="edge">
<title>Node22&#45;&gt;Node18</title>
<path fill="none" stroke="#191970" d="M528.2455,-459.3733C504.7151,-450.2226 469.1313,-436.3844 442.9574,-426.2057"/>
<polygon fill="#191970" stroke="#191970" points="444.0201,-422.8636 433.4315,-422.5011 441.4829,-429.3877 444.0201,-422.8636"/>
</g>
<!-- Node23&#45;&gt;Node16 -->
<g id="edge54" class="edge">
<title>Node23&#45;&gt;Node16</title>
<path fill="none" stroke="#191970" d="M583.9909,-571.4588C551.3152,-562.6554 508.2568,-548.8826 497,-535 455.7431,-484.1192 512.4489,-403.9782 541.5879,-368.9076"/>
<polygon fill="#191970" stroke="#191970" points="544.4994,-370.8874 548.3257,-361.0076 539.1734,-366.3449 544.4994,-370.8874"/>
</g>
<!-- Node23&#45;&gt;Node17 -->
<g id="edge55" class="edge">
<title>Node23&#45;&gt;Node17</title>
<path fill="none" stroke="#191970" d="M648.5262,-571.3698C664.1421,-563.9914 682.8289,-552.1364 692,-535 711.8987,-497.819 674.7981,-453.1128 650.5665,-429.495"/>
<polygon fill="#191970" stroke="#191970" points="652.9221,-426.9057 643.2398,-422.6042 648.1263,-432.0048 652.9221,-426.9057"/>
</g>
<!-- Node24 -->
<g id="node25" class="node">
<title>Node24</title>
<g id="a_node25"><a xlink:href="ipc__array_source.html" target="_top" xlink:title="ipc_array">
<polygon fill="#ffffff" stroke="#000000" points="622.5,-515.5 622.5,-534.5 683.5,-534.5 683.5,-515.5 622.5,-515.5"/>
<text text-anchor="middle" x="653" y="-522.5" font-family="Helvetica,sans-Serif" font-size="10.00" fill="#000000">ipc_array</text>
</a>
</g>
</g>
<!-- Node23&#45;&gt;Node24 -->
<g id="edge56" class="edge">
<title>Node23&#45;&gt;Node24</title>
<path fill="none" stroke="#191970" d="M628.2256,-571.2455C632.3123,-563.617 638.1135,-552.7881 643.075,-543.5267"/>
<polygon fill="#191970" stroke="#191970" points="646.1972,-545.1103 647.8343,-534.6427 640.0268,-541.8047 646.1972,-545.1103"/>
</g>
<!-- Node24&#45;&gt;Node16 -->
<g id="edge57" class="edge">
<title>Node24&#45;&gt;Node16</title>
<path fill="none" stroke="#191970" d="M660.1699,-515.2391C675.3297,-493.3067 707.3206,-439.2143 683,-403 664.0842,-374.8337 626.7548,-362.0621 597.6151,-356.2768"/>
<polygon fill="#191970" stroke="#191970" points="598.1523,-352.8174 587.6932,-354.508 596.9237,-359.7088 598.1523,-352.8174"/>
</g>
<!-- Node24&#45;&gt;Node17 -->
<g id="edge58" class="edge">
<title>Node24&#45;&gt;Node17</title>
<path fill="none" stroke="#191970" d="M653.5325,-515.4777C654.0383,-502.5374 654.1926,-478.7473 650,-459 648.0464,-449.7986 644.4624,-440.0373 641.0038,-431.8852"/>
<polygon fill="#191970" stroke="#191970" points="644.1146,-430.2687 636.8221,-422.583 637.73,-433.1389 644.1146,-430.2687"/>
</g>
<!-- Node24&#45;&gt;Node22 -->
<g id="edge59" class="edge">
<title>Node24&#45;&gt;Node22</title>
<path fill="none" stroke="#191970" d="M635.5813,-515.2455C619.9515,-506.4928 596.7981,-493.527 578.9815,-483.5496"/>
<polygon fill="#191970" stroke="#191970" points="580.6543,-480.475 570.2191,-478.6427 577.234,-486.5825 580.6543,-480.475"/>
</g>
<!-- Node25&#45;&gt;Node2 -->
<g id="edge62" class="edge">
<title>Node25&#45;&gt;Node2</title>
<path fill="none" stroke="#191970" d="M944.2352,-345.7707C972.7774,-339.2467 1013.2761,-325.9355 1039,-300 1063.763,-275.0333 1082.455,-251.8609 1061,-224 1020.5021,-171.4105 824.5556,-140.4193 728.4189,-128.144"/>
<polygon fill="#191970" stroke="#191970" points="728.6779,-124.6491 718.3199,-126.8766 727.8062,-131.5946 728.6779,-124.6491"/>
</g>
<!-- Node25&#45;&gt;Node3 -->
<g id="edge70" class="edge">
<title>Node25&#45;&gt;Node3</title>
<path fill="none" stroke="#191970" d="M904.266,-341.9627C891.2701,-322.5926 864,-276.8429 864,-234 864,-234 864,-234 864,-178 864,-171.7356 877.3276,-157.305 727,-112 637.4588,-85.0145 528.965,-73.6816 463.8155,-69.0501"/>
<polygon fill="#191970" stroke="#191970" points="463.9561,-65.5517 453.7411,-68.363 463.4797,-72.5355 463.9561,-65.5517"/>
</g>
<!-- Node25&#45;&gt;Node6 -->
<g id="edge63" class="edge">
<title>Node25&#45;&gt;Node6</title>
<path fill="none" stroke="#191970" d="M888.0961,-341.9075C833.5401,-319.2919 691.3211,-261.7075 569,-224 523.1007,-209.8508 469.8263,-197.0956 431.9091,-188.6258"/>
<polygon fill="#191970" stroke="#191970" points="432.6484,-185.2048 422.1282,-186.4599 431.1349,-192.0392 432.6484,-185.2048"/>
</g>
<!-- Node26 -->
<g id="node27" class="node">
<title>Node26</title>
<g id="a_node27"><a xlink:href="sys_2kip_8h.html" target="_top" xlink:title="Kernel Info Page access functions. ">
<polygon fill="#ffffff" stroke="#000000" points="892,-280.5 892,-299.5 960,-299.5 960,-280.5 892,-280.5"/>
<text text-anchor="middle" x="926" y="-287.5" font-family="Helvetica,sans-Serif" font-size="10.00" fill="#000000">l4/sys/kip.h</text>
</a>
</g>
</g>
<!-- Node25&#45;&gt;Node26 -->
<g id="edge64" class="edge">
<title>Node25&#45;&gt;Node26</title>
<path fill="none" stroke="#191970" d="M913.3438,-341.8906C915.4449,-333.276 918.5925,-320.3708 921.223,-309.5858"/>
<polygon fill="#191970" stroke="#191970" points="924.6539,-310.2894 923.6232,-299.7449 917.8532,-308.6307 924.6539,-310.2894"/>
</g>
<!-- Node29 -->
<g id="node30" class="node">
<title>Node29</title>
<g id="a_node30"><a xlink:href="l4_2re_2consts_8h.html" target="_top" xlink:title="Constants. ">
<polygon fill="#ffffff" stroke="#000000" points="756,-168.5 756,-187.5 836,-187.5 836,-168.5 756,-168.5"/>
<text text-anchor="middle" x="796" y="-175.5" font-family="Helvetica,sans-Serif" font-size="10.00" fill="#000000">l4/re/consts.h</text>
</a>
</g>
</g>
<!-- Node25&#45;&gt;Node29 -->
<g id="edge71" class="edge">
<title>Node25&#45;&gt;Node29</title>
<path fill="none" stroke="#191970" d="M935.1943,-341.9973C983.3229,-321.7546 1083.1148,-272.2753 1043,-224 1018.4899,-194.5038 911.1135,-183.8253 846.2743,-180.0299"/>
<polygon fill="#191970" stroke="#191970" points="846.4298,-176.5333 836.2524,-179.4781 846.0448,-183.5227 846.4298,-176.5333"/>
</g>
<!-- Node26&#45;&gt;Node3 -->
<g id="edge65" class="edge">
<title>Node26&#45;&gt;Node3</title>
<path fill="none" stroke="#191970" d="M924.8432,-280.4272C920.5662,-246.7316 904.5099,-134.4323 878,-112 862.3888,-98.79 586.6353,-78.3726 463.9927,-69.8956"/>
<polygon fill="#191970" stroke="#191970" points="463.8863,-66.3801 453.6696,-69.1853 463.4057,-73.3636 463.8863,-66.3801"/>
</g>
<!-- Node26&#45;&gt;Node5 -->
<g id="edge66" class="edge">
<title>Node26&#45;&gt;Node5</title>
<path fill="none" stroke="#191970" d="M960.0418,-281.2024C990.999,-272.432 1033.2912,-258.2494 1043,-244 1091.2972,-173.1155 1148.9103,-219.5924 916,-112 868.4919,-90.0537 720.3998,-75.6719 643.4698,-69.4792"/>
<polygon fill="#191970" stroke="#191970" points="643.3496,-65.9589 633.1048,-68.6598 642.7978,-72.9371 643.3496,-65.9589"/>
</g>
<!-- Node27 -->
<g id="node28" class="node">
<title>Node27</title>
<polygon fill="#ffffff" stroke="#bfbfbf" points="930,-224.5 930,-243.5 1034,-243.5 1034,-224.5 930,-224.5"/>
<text text-anchor="middle" x="982" y="-231.5" font-family="Helvetica,sans-Serif" font-size="10.00" fill="#000000">l4/sys/__kip&#45;arch.h</text>
</g>
<!-- Node26&#45;&gt;Node27 -->
<g id="edge67" class="edge">
<title>Node26&#45;&gt;Node27</title>
<path fill="none" stroke="#191970" d="M935.7545,-280.2455C943.8648,-272.1352 955.5925,-260.4075 965.2081,-250.7919"/>
<polygon fill="#191970" stroke="#191970" points="967.7611,-253.1887 972.3573,-243.6427 962.8113,-248.2389 967.7611,-253.1887"/>
</g>
<!-- Node28 -->
<g id="node29" class="node">
<title>Node28</title>
<g id="a_node29"><a xlink:href="____kip-64bit_8h_source.html" target="_top" xlink:title="l4/sys/__kip&#45;64bit.h">
<polygon fill="#ffffff" stroke="#000000" points="654,-224.5 654,-243.5 760,-243.5 760,-224.5 654,-224.5"/>
<text text-anchor="middle" x="707" y="-231.5" font-family="Helvetica,sans-Serif" font-size="10.00" fill="#000000">l4/sys/__kip&#45;64bit.h</text>
</a>
</g>
</g>
<!-- Node26&#45;&gt;Node28 -->
<g id="edge68" class="edge">
<title>Node26&#45;&gt;Node28</title>
<path fill="none" stroke="#191970" d="M891.7813,-281.25C854.7727,-271.7866 795.5276,-256.6372 754.1284,-246.0511"/>
<polygon fill="#191970" stroke="#191970" points="754.8298,-242.6179 744.2744,-243.5314 753.0956,-249.3997 754.8298,-242.6179"/>
</g>
<!-- Node28&#45;&gt;Node6 -->
<g id="edge69" class="edge">
<title>Node28&#45;&gt;Node6</title>
<path fill="none" stroke="#191970" d="M653.6968,-224.8154C592.4129,-214.2558 492.5635,-197.0509 432.4902,-186.6998"/>
<polygon fill="#191970" stroke="#191970" points="432.9279,-183.2238 422.4788,-184.9748 431.7392,-190.1221 432.9279,-183.2238"/>
</g>
<!-- Node29&#45;&gt;Node2 -->
<g id="edge72" class="edge">
<title>Node29&#45;&gt;Node2</title>
<path fill="none" stroke="#191970" d="M775.1994,-168.3733C755.7757,-159.3838 726.5776,-145.8706 704.7036,-135.7471"/>
<polygon fill="#191970" stroke="#191970" points="706.0745,-132.5249 695.5292,-131.5011 703.1344,-138.8776 706.0745,-132.5249"/>
</g>
</g>
</svg>
