<?xml version="1.0" encoding="UTF-8" standalone="no"?>
<!DOCTYPE svg PUBLIC "-//W3C//DTD SVG 1.1//EN"
 "http://www.w3.org/Graphics/SVG/1.1/DTD/svg11.dtd">
<!-- Generated by graphviz version 2.40.1 (20161225.0304)
 -->
<!-- Title: l4/re/consts Pages: 1 -->
<svg width="1971pt" height="430pt"
 viewBox="0.00 0.00 1970.55 430.00" xmlns="http://www.w3.org/2000/svg" xmlns:xlink="http://www.w3.org/1999/xlink">
<g id="graph0" class="graph" transform="scale(1 1) rotate(0) translate(4 426)">
<title>l4/re/consts</title>
<polygon fill="#ffffff" stroke="transparent" points="-4,4 -4,-426 1966.5483,-426 1966.5483,4 -4,4"/>
<!-- Node30 -->
<g id="node1" class="node">
<title>Node30</title>
<polygon fill="#bfbfbf" stroke="#000000" points="623,-402.5 623,-421.5 694,-421.5 694,-402.5 623,-402.5"/>
<text text-anchor="middle" x="658.5" y="-409.5" font-family="Helvetica,sans-Serif" font-size="10.00" fill="#000000">l4/re/consts</text>
</g>
<!-- Node31 -->
<g id="node2" class="node">
<title>Node31</title>
<g id="a_node2"><a xlink:href="rm.html" target="_top" xlink:title="Region mapper interface. ">
<polygon fill="#ffffff" stroke="#000000" points="397,-207 397,-226 450,-226 450,-207 397,-207"/>
<text text-anchor="middle" x="423.5" y="-214" font-family="Helvetica,sans-Serif" font-size="10.00" fill="#000000">l4/re/rm</text>
</a>
</g>
</g>
<!-- Node30&#45;&gt;Node31 -->
<g id="edge1" class="edge">
<title>Node30&#45;&gt;Node31</title>
<path fill="none" stroke="#191970" d="M624.9655,-398.3291C607.0711,-390.2456 585.1624,-379.0432 567.5,-366 507.7826,-321.9001 450.9297,-251.969 430.9996,-226.3344"/>
<polygon fill="#191970" stroke="#191970" points="623.8781,-401.6742 634.4414,-402.491 626.693,-395.2651 623.8781,-401.6742"/>
</g>
<!-- Node32 -->
<g id="node3" class="node">
<title>Node32</title>
<g id="a_node3"><a xlink:href="env.html" target="_top" xlink:title="Environment interface. ">
<polygon fill="#ffffff" stroke="#000000" points="983.5,-140 983.5,-159 1041.5,-159 1041.5,-140 983.5,-140"/>
<text text-anchor="middle" x="1012.5" y="-147" font-family="Helvetica,sans-Serif" font-size="10.00" fill="#000000">l4/re/env</text>
</a>
</g>
</g>
<!-- Node30&#45;&gt;Node32 -->
<g id="edge25" class="edge">
<title>Node30&#45;&gt;Node32</title>
<path fill="none" stroke="#191970" d="M692.0864,-398.3935C711.0346,-390.1144 734.7896,-378.7034 754.5,-366 860.1707,-297.8949 970.3247,-191.4795 1002.898,-159.1402"/>
<polygon fill="#191970" stroke="#191970" points="690.4783,-395.2746 682.6627,-402.4277 693.2332,-401.7098 690.4783,-395.2746"/>
</g>
<!-- Node45 -->
<g id="node16" class="node">
<title>Node45</title>
<g id="a_node16"><a xlink:href="object__registry_source.html" target="_top" xlink:title="l4/re/util/object_registry">
<polygon fill="#ffffff" stroke="#000000" points="566,-73 566,-92 691,-92 691,-73 566,-73"/>
<text text-anchor="middle" x="628.5" y="-80" font-family="Helvetica,sans-Serif" font-size="10.00" fill="#000000">l4/re/util/object_registry</text>
</a>
</g>
</g>
<!-- Node30&#45;&gt;Node45 -->
<g id="edge65" class="edge">
<title>Node30&#45;&gt;Node45</title>
<path fill="none" stroke="#191970" d="M640.0306,-394.994C617.2496,-372.069 581.5,-328.8661 581.5,-283.5 581.5,-283.5 581.5,-283.5 581.5,-216.5 581.5,-167.4398 609.9004,-113.6816 622.5474,-92.1746"/>
<polygon fill="#191970" stroke="#191970" points="637.8589,-397.7643 647.4678,-402.2275 642.7395,-392.7463 637.8589,-397.7643"/>
</g>
<!-- Node50 -->
<g id="node21" class="node">
<title>Node50</title>
<g id="a_node21"><a xlink:href="counting__cap__alloc.html" target="_top" xlink:title="Reference&#45;counting capability allocator. ">
<polygon fill="#ffffff" stroke="#000000" points="649.5,-335.5 649.5,-365.5 745.5,-365.5 745.5,-335.5 649.5,-335.5"/>
<text text-anchor="start" x="657.5" y="-353.5" font-family="Helvetica,sans-Serif" font-size="10.00" fill="#000000">l4/re/util/counting</text>
<text text-anchor="middle" x="697.5" y="-342.5" font-family="Helvetica,sans-Serif" font-size="10.00" fill="#000000">_cap_alloc</text>
</a>
</g>
</g>
<!-- Node30&#45;&gt;Node50 -->
<g id="edge26" class="edge">
<title>Node30&#45;&gt;Node50</title>
<path fill="none" stroke="#191970" d="M670.0389,-393.8041C675.7459,-384.8045 682.5513,-374.073 687.9595,-365.5446"/>
<polygon fill="#191970" stroke="#191970" points="666.9934,-392.0711 664.5938,-402.3906 672.905,-395.8199 666.9934,-392.0711"/>
</g>
<!-- Node52 -->
<g id="node23" class="node">
<title>Node52</title>
<g id="a_node23"><a xlink:href="util_2cap__alloc.html" target="_top" xlink:title="Capability allocator. ">
<polygon fill="#ffffff" stroke="#000000" points="712,-207 712,-226 813,-226 813,-207 712,-207"/>
<text text-anchor="middle" x="762.5" y="-214" font-family="Helvetica,sans-Serif" font-size="10.00" fill="#000000">l4/re/util/cap_alloc</text>
</a>
</g>
</g>
<!-- Node30&#45;&gt;Node52 -->
<g id="edge42" class="edge">
<title>Node30&#45;&gt;Node52</title>
<path fill="none" stroke="#191970" d="M648.5961,-393.1045C634.7153,-363.7311 613.8828,-306.4979 639.5,-268 655.5952,-243.8119 685.4701,-230.9625 711.746,-224.1476"/>
<polygon fill="#191970" stroke="#191970" points="645.5539,-394.8482 653.1285,-402.256 651.8268,-391.7414 645.5539,-394.8482"/>
</g>
<!-- Node56 -->
<g id="node27" class="node">
<title>Node56</title>
<g id="a_node27"><a xlink:href="cap__alloc.html" target="_top" xlink:title="Abstract capability&#45;allocator interface. ">
<polygon fill="#ffffff" stroke="#000000" points="1432.5,-341 1432.5,-360 1518.5,-360 1518.5,-341 1432.5,-341"/>
<text text-anchor="middle" x="1475.5" y="-348" font-family="Helvetica,sans-Serif" font-size="10.00" fill="#000000">l4/re/cap_alloc</text>
</a>
</g>
</g>
<!-- Node30&#45;&gt;Node56 -->
<g id="edge43" class="edge">
<title>Node30&#45;&gt;Node56</title>
<path fill="none" stroke="#191970" d="M704.3955,-408.5452C848.7317,-397.6802 1292.1465,-364.302 1432.4581,-353.74"/>
<polygon fill="#191970" stroke="#191970" points="703.8398,-405.077 694.1308,-409.3179 704.3654,-412.0573 703.8398,-405.077"/>
</g>
<!-- Node31&#45;&gt;Node32 -->
<g id="edge2" class="edge">
<title>Node31&#45;&gt;Node32</title>
<path fill="none" stroke="#191970" d="M460.2365,-214.4771C567.0718,-208.3713 876.2879,-189.0596 974.5,-165 980.3131,-163.5759 986.4026,-161.4176 991.9613,-159.1602"/>
<polygon fill="#191970" stroke="#191970" points="460.0382,-210.9826 450.2523,-215.0428 460.4343,-217.9714 460.0382,-210.9826"/>
</g>
<!-- Node34 -->
<g id="node5" class="node">
<title>Node34</title>
<g id="a_node5"><a xlink:href="server_2l4virtio_source.html" target="_top" xlink:title="l4/l4virtio/server\l/l4virtio">
<polygon fill="#ffffff" stroke="#000000" points="750.5,-67.5 750.5,-97.5 842.5,-97.5 842.5,-67.5 750.5,-67.5"/>
<text text-anchor="start" x="758.5" y="-85.5" font-family="Helvetica,sans-Serif" font-size="10.00" fill="#000000">l4/l4virtio/server</text>
<text text-anchor="middle" x="796.5" y="-74.5" font-family="Helvetica,sans-Serif" font-size="10.00" fill="#000000">/l4virtio</text>
</a>
</g>
</g>
<!-- Node31&#45;&gt;Node34 -->
<g id="edge16" class="edge">
<title>Node31&#45;&gt;Node34</title>
<path fill="none" stroke="#191970" d="M460.4513,-215.6053C539.2112,-212.9759 720.2008,-202.8656 766.5,-165 786.9096,-148.3081 793.4347,-116.5002 795.5205,-97.6294"/>
<polygon fill="#191970" stroke="#191970" points="459.9275,-212.1198 450.041,-215.9288 460.1449,-219.1164 459.9275,-212.1198"/>
</g>
<!-- Node40 -->
<g id="node11" class="node">
<title>Node40</title>
<g id="a_node11"><a xlink:href="vfs__impl_8h_source.html" target="_top" xlink:title="l4/l4re_vfs/impl/vfs\l_impl.h">
<polygon fill="#ffffff" stroke="#000000" points="1555.5,-67.5 1555.5,-97.5 1659.5,-97.5 1659.5,-67.5 1555.5,-67.5"/>
<text text-anchor="start" x="1563.5" y="-85.5" font-family="Helvetica,sans-Serif" font-size="10.00" fill="#000000">l4/l4re_vfs/impl/vfs</text>
<text text-anchor="middle" x="1607.5" y="-74.5" font-family="Helvetica,sans-Serif" font-size="10.00" fill="#000000">_impl.h</text>
</a>
</g>
</g>
<!-- Node31&#45;&gt;Node40 -->
<g id="edge17" class="edge">
<title>Node31&#45;&gt;Node40</title>
<path fill="none" stroke="#191970" d="M460.4278,-214.4514C630.8119,-204.9953 1332.9955,-165.984 1338.5,-165 1382.078,-157.2094 1498.7918,-119.0952 1563.2355,-97.5014"/>
<polygon fill="#191970" stroke="#191970" points="460.002,-210.9695 450.2113,-215.0183 460.3899,-217.9587 460.002,-210.9695"/>
</g>
<!-- Node41 -->
<g id="node12" class="node">
<title>Node41</title>
<g id="a_node12"><a xlink:href="util_2event.html" target="_top" xlink:title="l4/re/util/event">
<polygon fill="#ffffff" stroke="#000000" points="464,-73 464,-92 547,-92 547,-73 464,-73"/>
<text text-anchor="middle" x="505.5" y="-80" font-family="Helvetica,sans-Serif" font-size="10.00" fill="#000000">l4/re/util/event</text>
</a>
</g>
</g>
<!-- Node31&#45;&gt;Node41 -->
<g id="edge19" class="edge">
<title>Node31&#45;&gt;Node41</title>
<path fill="none" stroke="#191970" d="M398.6226,-201.4634C374.7369,-185.0826 344.5919,-158.0038 361.5,-134 373.5789,-116.852 425.6004,-101.2537 463.6593,-91.8241"/>
<polygon fill="#191970" stroke="#191970" points="396.7601,-204.4275 407.0407,-206.9889 400.6013,-198.5755 396.7601,-204.4275"/>
</g>
<!-- Node46 -->
<g id="node17" class="node">
<title>Node46</title>
<g id="a_node17"><a xlink:href="rm__impl_8h.html" target="_top" xlink:title="Region map client stub implementation. ">
<polygon fill="#ffffff" stroke="#000000" points="370,-140 370,-159 477,-159 477,-140 370,-140"/>
<text text-anchor="middle" x="423.5" y="-147" font-family="Helvetica,sans-Serif" font-size="10.00" fill="#000000">l4/re/impl/rm_impl.h</text>
</a>
</g>
</g>
<!-- Node31&#45;&gt;Node46 -->
<g id="edge18" class="edge">
<title>Node31&#45;&gt;Node46</title>
<path fill="none" stroke="#191970" d="M423.5,-196.6079C423.5,-184.214 423.5,-168.8263 423.5,-159.0817"/>
<polygon fill="#191970" stroke="#191970" points="420.0001,-196.9005 423.5,-206.9005 427.0001,-196.9006 420.0001,-196.9005"/>
</g>
<!-- Node47 -->
<g id="node18" class="node">
<title>Node47</title>
<g id="a_node18"><a xlink:href="event__buffer_source.html" target="_top" xlink:title="l4/re/util/event_buffer">
<polygon fill="#ffffff" stroke="#000000" points="198,-140 198,-159 313,-159 313,-140 198,-140"/>
<text text-anchor="middle" x="255.5" y="-147" font-family="Helvetica,sans-Serif" font-size="10.00" fill="#000000">l4/re/util/event_buffer</text>
</a>
</g>
</g>
<!-- Node31&#45;&gt;Node47 -->
<g id="edge20" class="edge">
<title>Node31&#45;&gt;Node47</title>
<path fill="none" stroke="#191970" d="M389.8514,-203.0806C357.1951,-190.057 308.448,-170.6162 279.5257,-159.0817"/>
<polygon fill="#191970" stroke="#191970" points="388.8446,-206.4471 399.4297,-206.9005 391.4377,-199.9451 388.8446,-206.4471"/>
</g>
<!-- Node48 -->
<g id="node19" class="node">
<title>Node48</title>
<g id="a_node19"><a xlink:href="region__mapping.html" target="_top" xlink:title="Region handling. ">
<polygon fill="#ffffff" stroke="#000000" points="47,-140 47,-159 180,-159 180,-140 47,-140"/>
<text text-anchor="middle" x="113.5" y="-147" font-family="Helvetica,sans-Serif" font-size="10.00" fill="#000000">l4/re/util/region_mapping</text>
</a>
</g>
</g>
<!-- Node31&#45;&gt;Node48 -->
<g id="edge22" class="edge">
<title>Node31&#45;&gt;Node48</title>
<path fill="none" stroke="#191970" d="M386.7517,-208.5576C329.498,-196.1834 219.2087,-172.3467 157.699,-159.0527"/>
<polygon fill="#191970" stroke="#191970" points="386.2875,-212.0381 396.8013,-210.7296 387.7664,-205.196 386.2875,-212.0381"/>
</g>
<!-- Node49 -->
<g id="node20" class="node">
<title>Node49</title>
<g id="a_node20"><a xlink:href="region__mapping__svr__2_source.html" target="_top" xlink:title="l4/re/util/region_mapping\l_svr_2">
<polygon fill="#ffffff" stroke="#000000" points="0,-67.5 0,-97.5 133,-97.5 133,-67.5 0,-67.5"/>
<text text-anchor="start" x="8" y="-85.5" font-family="Helvetica,sans-Serif" font-size="10.00" fill="#000000">l4/re/util/region_mapping</text>
<text text-anchor="middle" x="66.5" y="-74.5" font-family="Helvetica,sans-Serif" font-size="10.00" fill="#000000">_svr_2</text>
</a>
</g>
</g>
<!-- Node31&#45;&gt;Node49 -->
<g id="edge24" class="edge">
<title>Node31&#45;&gt;Node49</title>
<path fill="none" stroke="#191970" d="M386.5353,-214.2976C294.4087,-208.4335 60.3373,-191.0866 37.5,-165 20.4995,-145.5806 38.8662,-115.5719 53.1249,-97.6012"/>
<polygon fill="#191970" stroke="#191970" points="386.5895,-217.8078 396.7888,-214.94 387.0273,-210.8215 386.5895,-217.8078"/>
</g>
<!-- Node33 -->
<g id="node4" class="node">
<title>Node33</title>
<g id="a_node4"><a xlink:href="vcpu_source.html" target="_top" xlink:title="l4/vcpu/vcpu">
<polygon fill="#ffffff" stroke="#000000" points="861.5,-73 861.5,-92 935.5,-92 935.5,-73 861.5,-73"/>
<text text-anchor="middle" x="898.5" y="-80" font-family="Helvetica,sans-Serif" font-size="10.00" fill="#000000">l4/vcpu/vcpu</text>
</a>
</g>
</g>
<!-- Node32&#45;&gt;Node33 -->
<g id="edge3" class="edge">
<title>Node32&#45;&gt;Node33</title>
<path fill="none" stroke="#191970" d="M987.3367,-134.711C965.2421,-121.7256 933.7522,-103.2184 914.8031,-92.0817"/>
<polygon fill="#191970" stroke="#191970" points="985.7718,-137.851 996.1666,-139.9005 989.3187,-131.8161 985.7718,-137.851"/>
</g>
<!-- Node32&#45;&gt;Node34 -->
<g id="edge4" class="edge">
<title>Node32&#45;&gt;Node34</title>
<path fill="none" stroke="#191970" d="M980.3524,-136.1128C978.3801,-135.3768 976.4181,-134.6666 974.5,-134 950.19,-125.5518 886.7362,-107.5466 842.5645,-95.2308"/>
<polygon fill="#191970" stroke="#191970" points="979.5564,-139.5587 990.145,-139.9235 982.095,-133.0352 979.5564,-139.5587"/>
</g>
<!-- Node36 -->
<g id="node7" class="node">
<title>Node36</title>
<g id="a_node7"><a xlink:href="env__ns_source.html" target="_top" xlink:title="l4/re/util/env_ns">
<polygon fill="#ffffff" stroke="#000000" points="1315,-73 1315,-92 1406,-92 1406,-73 1315,-73"/>
<text text-anchor="middle" x="1360.5" y="-80" font-family="Helvetica,sans-Serif" font-size="10.00" fill="#000000">l4/re/util/env_ns</text>
</a>
</g>
</g>
<!-- Node32&#45;&gt;Node36 -->
<g id="edge6" class="edge">
<title>Node32&#45;&gt;Node36</title>
<path fill="none" stroke="#191970" d="M1043.5374,-136.408C1046.2049,-135.5144 1048.8835,-134.6948 1051.5,-134 1161.6983,-104.7386 1193.9344,-121.5164 1305.5,-98 1313.3629,-96.3426 1321.7562,-94.1823 1329.5572,-92.0032"/>
<polygon fill="#191970" stroke="#191970" points="1042.2447,-133.154 1034.0563,-139.8772 1044.6501,-139.7277 1042.2447,-133.154"/>
</g>
<!-- Node38 -->
<g id="node9" class="node">
<title>Node38</title>
<g id="a_node9"><a xlink:href="ro__file__impl_8h_source.html" target="_top" xlink:title="l4/l4re_vfs/impl/ro\l_file_impl.h">
<polygon fill="#ffffff" stroke="#000000" points="1196.5,-67.5 1196.5,-97.5 1296.5,-97.5 1296.5,-67.5 1196.5,-67.5"/>
<text text-anchor="start" x="1204.5" y="-85.5" font-family="Helvetica,sans-Serif" font-size="10.00" fill="#000000">l4/l4re_vfs/impl/ro</text>
<text text-anchor="middle" x="1246.5" y="-74.5" font-family="Helvetica,sans-Serif" font-size="10.00" fill="#000000">_file_impl.h</text>
</a>
</g>
</g>
<!-- Node32&#45;&gt;Node38 -->
<g id="edge8" class="edge">
<title>Node32&#45;&gt;Node38</title>
<path fill="none" stroke="#191970" d="M1044.9781,-136.255C1047.1749,-135.4635 1049.3634,-134.7039 1051.5,-134 1055.0335,-132.8359 1139.865,-110.5074 1196.4624,-95.6369"/>
<polygon fill="#191970" stroke="#191970" points="1043.5501,-133.0529 1035.4288,-139.857 1046.0206,-139.6025 1043.5501,-133.0529"/>
</g>
<!-- Node39 -->
<g id="node10" class="node">
<title>Node39</title>
<g id="a_node10"><a xlink:href="vcon__stream__impl_8h_source.html" target="_top" xlink:title="l4/l4re_vfs/impl/vcon\l_stream_impl.h">
<polygon fill="#ffffff" stroke="#000000" points="1424,-67.5 1424,-97.5 1537,-97.5 1537,-67.5 1424,-67.5"/>
<text text-anchor="start" x="1432" y="-85.5" font-family="Helvetica,sans-Serif" font-size="10.00" fill="#000000">l4/l4re_vfs/impl/vcon</text>
<text text-anchor="middle" x="1480.5" y="-74.5" font-family="Helvetica,sans-Serif" font-size="10.00" fill="#000000">_stream_impl.h</text>
</a>
</g>
</g>
<!-- Node32&#45;&gt;Node39 -->
<g id="edge9" class="edge">
<title>Node32&#45;&gt;Node39</title>
<path fill="none" stroke="#191970" d="M1043.0276,-136.4428C1045.8595,-135.5134 1048.7123,-134.6776 1051.5,-134 1209.4678,-95.6042 1255.1767,-124.9161 1415.5,-98 1418.2458,-97.539 1421.0481,-97.0282 1423.8721,-96.481"/>
<polygon fill="#191970" stroke="#191970" points="1041.8069,-133.1624 1033.6048,-139.8689 1044.1989,-139.741 1041.8069,-133.1624"/>
</g>
<!-- Node32&#45;&gt;Node40 -->
<g id="edge10" class="edge">
<title>Node32&#45;&gt;Node40</title>
<path fill="none" stroke="#191970" d="M1042.8067,-136.4302C1045.7089,-135.4907 1048.6372,-134.6566 1051.5,-134 1266.4991,-84.6909 1328.7616,-133.2985 1546.5,-98 1549.4122,-97.5279 1552.3887,-96.9829 1555.3835,-96.3858"/>
<polygon fill="#191970" stroke="#191970" points="1041.3801,-133.2245 1033.1735,-139.9255 1043.7677,-139.8048 1041.3801,-133.2245"/>
</g>
<!-- Node32&#45;&gt;Node41 -->
<g id="edge11" class="edge">
<title>Node32&#45;&gt;Node41</title>
<path fill="none" stroke="#191970" d="M982.9762,-136.4664C980.1472,-135.5193 977.2921,-134.6735 974.5,-134 793.6644,-90.3774 740.2483,-132.7492 557.5,-98 549.6337,-96.5042 541.2584,-94.293 533.5793,-92.0062"/>
<polygon fill="#191970" stroke="#191970" points="981.7717,-139.7526 992.3642,-139.9734 984.2213,-133.1952 981.7717,-139.7526"/>
</g>
<!-- Node42 -->
<g id="node13" class="node">
<title>Node42</title>
<g id="a_node13"><a xlink:href="icu__svr_source.html" target="_top" xlink:title="l4/re/util/icu_svr">
<polygon fill="#ffffff" stroke="#000000" points="1089,-73 1089,-92 1178,-92 1178,-73 1089,-73"/>
<text text-anchor="middle" x="1133.5" y="-80" font-family="Helvetica,sans-Serif" font-size="10.00" fill="#000000">l4/re/util/icu_svr</text>
</a>
</g>
</g>
<!-- Node32&#45;&gt;Node42 -->
<g id="edge12" class="edge">
<title>Node32&#45;&gt;Node42</title>
<path fill="none" stroke="#191970" d="M1038.895,-134.8846C1062.361,-121.891 1095.9934,-103.2681 1116.1958,-92.0817"/>
<polygon fill="#191970" stroke="#191970" points="1036.8893,-131.9944 1029.8363,-139.9005 1040.2802,-138.1183 1036.8893,-131.9944"/>
</g>
<!-- Node44 -->
<g id="node15" class="node">
<title>Node44</title>
<g id="a_node15"><a xlink:href="kumem__alloc.html" target="_top" xlink:title="Kumem allocator helper. ">
<polygon fill="#ffffff" stroke="#000000" points="954,-73 954,-92 1071,-92 1071,-73 954,-73"/>
<text text-anchor="middle" x="1012.5" y="-80" font-family="Helvetica,sans-Serif" font-size="10.00" fill="#000000">l4/re/util/kumem_alloc</text>
</a>
</g>
</g>
<!-- Node32&#45;&gt;Node44 -->
<g id="edge14" class="edge">
<title>Node32&#45;&gt;Node44</title>
<path fill="none" stroke="#191970" d="M1012.5,-129.6079C1012.5,-117.214 1012.5,-101.8263 1012.5,-92.0817"/>
<polygon fill="#191970" stroke="#191970" points="1009.0001,-129.9005 1012.5,-139.9005 1016.0001,-129.9006 1009.0001,-129.9005"/>
</g>
<!-- Node32&#45;&gt;Node45 -->
<g id="edge15" class="edge">
<title>Node32&#45;&gt;Node45</title>
<path fill="none" stroke="#191970" d="M981.9975,-136.3266C979.4856,-135.4664 976.9651,-134.6757 974.5,-134 960.9921,-130.2975 787.2377,-105.1821 691.2332,-91.4415"/>
<polygon fill="#191970" stroke="#191970" points="980.9156,-139.6588 991.5079,-139.8926 983.3733,-133.1044 980.9156,-139.6588"/>
</g>
<!-- Node35 -->
<g id="node6" class="node">
<title>Node35</title>
<g id="a_node6"><a xlink:href="virtio-block_source.html" target="_top" xlink:title="l4/l4virtio/server\l/virtio&#45;block">
<polygon fill="#ffffff" stroke="#000000" points="713.5,-.5 713.5,-30.5 805.5,-30.5 805.5,-.5 713.5,-.5"/>
<text text-anchor="start" x="721.5" y="-18.5" font-family="Helvetica,sans-Serif" font-size="10.00" fill="#000000">l4/l4virtio/server</text>
<text text-anchor="middle" x="759.5" y="-7.5" font-family="Helvetica,sans-Serif" font-size="10.00" fill="#000000">/virtio&#45;block</text>
</a>
</g>
</g>
<!-- Node34&#45;&gt;Node35 -->
<g id="edge5" class="edge">
<title>Node34&#45;&gt;Node35</title>
<path fill="none" stroke="#191970" d="M783.2373,-58.4837C778.1103,-49.1996 772.3984,-38.8565 767.8626,-30.6432"/>
<polygon fill="#191970" stroke="#191970" points="780.206,-60.2348 788.1041,-67.2967 786.3337,-56.8508 780.206,-60.2348"/>
</g>
<!-- Node37 -->
<g id="node8" class="node">
<title>Node37</title>
<g id="a_node8"><a xlink:href="ns__fs__impl_8h_source.html" target="_top" xlink:title="l4/l4re_vfs/impl/ns\l_fs_impl.h">
<polygon fill="#ffffff" stroke="#000000" points="1837,-.5 1837,-30.5 1938,-30.5 1938,-.5 1837,-.5"/>
<text text-anchor="start" x="1845" y="-18.5" font-family="Helvetica,sans-Serif" font-size="10.00" fill="#000000">l4/l4re_vfs/impl/ns</text>
<text text-anchor="middle" x="1887.5" y="-7.5" font-family="Helvetica,sans-Serif" font-size="10.00" fill="#000000">_fs_impl.h</text>
</a>
</g>
</g>
<!-- Node36&#45;&gt;Node37 -->
<g id="edge7" class="edge">
<title>Node36&#45;&gt;Node37</title>
<path fill="none" stroke="#191970" d="M1400.7818,-70.3241C1405.7108,-69.0786 1410.7006,-67.9314 1415.5,-67 1567.2269,-37.5544 1749.8981,-23.6152 1836.7924,-18.2639"/>
<polygon fill="#191970" stroke="#191970" points="1399.589,-67.0198 1390.8301,-72.9807 1401.3945,-73.783 1399.589,-67.0198"/>
</g>
<!-- Node43 -->
<g id="node14" class="node">
<title>Node43</title>
<g id="a_node14"><a xlink:href="event__svr_source.html" target="_top" xlink:title="l4/re/util/event_svr">
<polygon fill="#ffffff" stroke="#000000" points="1082,-6 1082,-25 1185,-25 1185,-6 1082,-6"/>
<text text-anchor="middle" x="1133.5" y="-13" font-family="Helvetica,sans-Serif" font-size="10.00" fill="#000000">l4/re/util/event_svr</text>
</a>
</g>
</g>
<!-- Node42&#45;&gt;Node43 -->
<g id="edge13" class="edge">
<title>Node42&#45;&gt;Node43</title>
<path fill="none" stroke="#191970" d="M1133.5,-62.6079C1133.5,-50.214 1133.5,-34.8263 1133.5,-25.0817"/>
<polygon fill="#191970" stroke="#191970" points="1130.0001,-62.9005 1133.5,-72.9005 1137.0001,-62.9006 1130.0001,-62.9005"/>
</g>
<!-- Node47&#45;&gt;Node41 -->
<g id="edge21" class="edge">
<title>Node47&#45;&gt;Node41</title>
<path fill="none" stroke="#191970" d="M300.9633,-137.3158C349.4449,-124.3228 425.2308,-104.0122 469.6645,-92.1039"/>
<polygon fill="#191970" stroke="#191970" points="299.8065,-134.0023 291.0534,-139.9717 301.6186,-140.7637 299.8065,-134.0023"/>
</g>
<!-- Node48&#45;&gt;Node49 -->
<g id="edge23" class="edge">
<title>Node48&#45;&gt;Node49</title>
<path fill="none" stroke="#191970" d="M100.8048,-131.4026C93.3627,-120.7936 84.0725,-107.5502 77.0377,-97.5218"/>
<polygon fill="#191970" stroke="#191970" points="98.1579,-133.7239 106.766,-139.9005 103.8885,-129.7039 98.1579,-133.7239"/>
</g>
<!-- Node51 -->
<g id="node22" class="node">
<title>Node51</title>
<g id="a_node22"><a xlink:href="cap__alloc__impl_8h.html" target="_top" xlink:title="Capability allocator implementation. ">
<polygon fill="#ffffff" stroke="#000000" points="648,-268.5 648,-298.5 749,-298.5 749,-268.5 648,-268.5"/>
<text text-anchor="start" x="656" y="-286.5" font-family="Helvetica,sans-Serif" font-size="10.00" fill="#000000">l4/re/util/cap_alloc</text>
<text text-anchor="middle" x="698.5" y="-275.5" font-family="Helvetica,sans-Serif" font-size="10.00" fill="#000000">_impl.h</text>
</a>
</g>
</g>
<!-- Node50&#45;&gt;Node51 -->
<g id="edge27" class="edge">
<title>Node50&#45;&gt;Node51</title>
<path fill="none" stroke="#191970" d="M697.8802,-325.0249C698.013,-316.128 698.1578,-306.4287 698.274,-298.6432"/>
<polygon fill="#191970" stroke="#191970" points="694.3766,-325.2455 697.7269,-335.2967 701.3759,-325.35 694.3766,-325.2455"/>
</g>
<!-- Node51&#45;&gt;Node52 -->
<g id="edge28" class="edge">
<title>Node51&#45;&gt;Node52</title>
<path fill="none" stroke="#191970" d="M720.1217,-260.8648C731.4571,-248.998 744.7409,-235.0916 753.3729,-226.055"/>
<polygon fill="#191970" stroke="#191970" points="717.399,-258.648 713.0226,-268.2967 722.4608,-263.4831 717.399,-258.648"/>
</g>
<!-- Node52&#45;&gt;Node34 -->
<g id="edge29" class="edge">
<title>Node52&#45;&gt;Node34</title>
<path fill="none" stroke="#191970" d="M779.116,-199.2113C786.9324,-189.8726 795.4183,-177.6768 799.5,-165 806.7919,-142.3532 803.3657,-114.3876 800.0554,-97.5233"/>
<polygon fill="#191970" stroke="#191970" points="776.2961,-197.1156 772.2714,-206.9163 781.5294,-201.7645 776.2961,-197.1156"/>
</g>
<!-- Node52&#45;&gt;Node36 -->
<g id="edge37" class="edge">
<title>Node52&#45;&gt;Node36</title>
<path fill="none" stroke="#191970" d="M823.5086,-214.9473C963.6858,-210.8323 1299.7214,-197.6418 1338.5,-165 1360.1606,-146.7673 1361.7459,-109.8171 1361.1546,-92.2288"/>
<polygon fill="#191970" stroke="#191970" points="823.2557,-211.4531 813.3605,-215.2394 823.4571,-218.4502 823.2557,-211.4531"/>
</g>
<!-- Node52&#45;&gt;Node41 -->
<g id="edge39" class="edge">
<title>Node52&#45;&gt;Node41</title>
<path fill="none" stroke="#191970" d="M718.9763,-203.941C690.4358,-194.9071 652.7582,-181.4406 621.5,-165 580.162,-143.2578 536.6353,-108.6519 516.6833,-92.0272"/>
<polygon fill="#191970" stroke="#191970" points="718.0768,-207.3264 728.6649,-206.9491 720.1524,-200.6413 718.0768,-207.3264"/>
</g>
<!-- Node52&#45;&gt;Node42 -->
<g id="edge40" class="edge">
<title>Node52&#45;&gt;Node42</title>
<path fill="none" stroke="#191970" d="M823.3142,-213.4287C933.9851,-207.2134 1159.1022,-191.442 1182.5,-165 1203.1438,-141.6703 1167.4826,-108.4031 1146.7593,-92.1648"/>
<polygon fill="#191970" stroke="#191970" points="823.0849,-209.936 813.2935,-213.9829 823.4716,-216.9253 823.0849,-209.936"/>
</g>
<!-- Node52&#45;&gt;Node45 -->
<g id="edge41" class="edge">
<title>Node52&#45;&gt;Node45</title>
<path fill="none" stroke="#191970" d="M701.9448,-205.0713C678.5851,-197.5718 653.8456,-185.2329 638.5,-165 622.0217,-143.2737 624.424,-108.6602 626.8102,-92.0305"/>
<polygon fill="#191970" stroke="#191970" points="701.2582,-208.518 711.8402,-207.998 703.2435,-201.8054 701.2582,-208.518"/>
</g>
<!-- Node53 -->
<g id="node24" class="node">
<title>Node53</title>
<g id="a_node24"><a xlink:href="util_2shared__cap.html" target="_top" xlink:title="Shared_cap / Shared_del_cap. ">
<polygon fill="#ffffff" stroke="#000000" points="852,-140 852,-159 965,-159 965,-140 852,-140"/>
<text text-anchor="middle" x="908.5" y="-147" font-family="Helvetica,sans-Serif" font-size="10.00" fill="#000000">l4/re/util/shared_cap</text>
</a>
</g>
</g>
<!-- Node52&#45;&gt;Node53 -->
<g id="edge30" class="edge">
<title>Node52&#45;&gt;Node53</title>
<path fill="none" stroke="#191970" d="M792.8502,-202.5722C821.2148,-189.5555 862.8107,-170.467 887.6206,-159.0817"/>
<polygon fill="#191970" stroke="#191970" points="791.0471,-199.5486 783.4182,-206.9005 793.9667,-205.9107 791.0471,-199.5486"/>
</g>
<!-- Node54 -->
<g id="node25" class="node">
<title>Node54</title>
<g id="a_node25"><a xlink:href="util_2unique__cap.html" target="_top" xlink:title="Unique_cap / Unique_del_cap. ">
<polygon fill="#ffffff" stroke="#000000" points="647.5,-140 647.5,-159 757.5,-159 757.5,-140 647.5,-140"/>
<text text-anchor="middle" x="702.5" y="-147" font-family="Helvetica,sans-Serif" font-size="10.00" fill="#000000">l4/re/util/unique_cap</text>
</a>
</g>
</g>
<!-- Node52&#45;&gt;Node54 -->
<g id="edge32" class="edge">
<title>Node52&#45;&gt;Node54</title>
<path fill="none" stroke="#191970" d="M747.0206,-199.2147C735.5815,-186.441 720.4305,-169.5224 711.0806,-159.0817"/>
<polygon fill="#191970" stroke="#191970" points="744.6249,-201.7859 753.9035,-206.9005 749.8396,-197.1161 744.6249,-201.7859"/>
</g>
<!-- Node55 -->
<g id="node26" class="node">
<title>Node55</title>
<g id="a_node26"><a xlink:href="br__manager_source.html" target="_top" xlink:title="l4/re/util/br_manager">
<polygon fill="#ffffff" stroke="#000000" points="1060,-140 1060,-159 1173,-159 1173,-140 1060,-140"/>
<text text-anchor="middle" x="1116.5" y="-147" font-family="Helvetica,sans-Serif" font-size="10.00" fill="#000000">l4/re/util/br_manager</text>
</a>
</g>
</g>
<!-- Node52&#45;&gt;Node55 -->
<g id="edge38" class="edge">
<title>Node52&#45;&gt;Node55</title>
<path fill="none" stroke="#191970" d="M823.2849,-206.6056C881.6978,-196.8674 972.3708,-181.1476 1050.5,-165 1059.2601,-163.1895 1068.6358,-161.0879 1077.4895,-159.0276"/>
<polygon fill="#191970" stroke="#191970" points="822.4132,-203.2024 813.122,-208.2938 823.5604,-210.1078 822.4132,-203.2024"/>
</g>
<!-- Node53&#45;&gt;Node34 -->
<g id="edge31" class="edge">
<title>Node53&#45;&gt;Node34</title>
<path fill="none" stroke="#191970" d="M883.7302,-134.6824C865.2697,-123.639 840.1529,-108.6138 821.611,-97.5218"/>
<polygon fill="#191970" stroke="#191970" points="882.0746,-137.7704 892.4531,-139.9005 885.6682,-131.7632 882.0746,-137.7704"/>
</g>
<!-- Node54&#45;&gt;Node34 -->
<g id="edge33" class="edge">
<title>Node54&#45;&gt;Node34</title>
<path fill="none" stroke="#191970" d="M724.3587,-133.9198C739.7423,-122.955 760.2181,-108.3605 775.4247,-97.5218"/>
<polygon fill="#191970" stroke="#191970" points="722.0796,-131.2462 715.9679,-139.9005 726.1426,-136.9464 722.0796,-131.2462"/>
</g>
<!-- Node54&#45;&gt;Node35 -->
<g id="edge34" class="edge">
<title>Node54&#45;&gt;Node35</title>
<path fill="none" stroke="#191970" d="M710.6203,-130.4101C722.0479,-103.5452 742.6416,-55.132 753.0722,-30.611"/>
<polygon fill="#191970" stroke="#191970" points="707.2929,-129.2909 706.5993,-139.8631 713.7344,-132.031 707.2929,-129.2909"/>
</g>
<!-- Node54&#45;&gt;Node41 -->
<g id="edge35" class="edge">
<title>Node54&#45;&gt;Node41</title>
<path fill="none" stroke="#191970" d="M664.5189,-136.5826C626.2319,-123.5611 568.0264,-103.7653 533.6729,-92.0817"/>
<polygon fill="#191970" stroke="#191970" points="663.6803,-139.9942 674.2747,-139.9005 665.9342,-133.367 663.6803,-139.9942"/>
</g>
<!-- Node54&#45;&gt;Node45 -->
<g id="edge36" class="edge">
<title>Node54&#45;&gt;Node45</title>
<path fill="none" stroke="#191970" d="M684.2099,-132.94C670.015,-120.0879 650.8339,-102.7212 639.0827,-92.0817"/>
<polygon fill="#191970" stroke="#191970" points="682.1355,-135.7833 691.8976,-139.9005 686.8337,-130.5942 682.1355,-135.7833"/>
</g>
<!-- Node56&#45;&gt;Node36 -->
<g id="edge61" class="edge">
<title>Node56&#45;&gt;Node36</title>
<path fill="none" stroke="#191970" d="M1467.3236,-331.4454C1444.6407,-278.5844 1381.4904,-131.4167 1364.664,-92.204"/>
<polygon fill="#191970" stroke="#191970" points="1464.2473,-333.1522 1471.4071,-340.9617 1470.6801,-330.3919 1464.2473,-333.1522"/>
</g>
<!-- Node56&#45;&gt;Node41 -->
<g id="edge64" class="edge">
<title>Node56&#45;&gt;Node41</title>
<path fill="none" stroke="#191970" d="M1421.9473,-347.8945C1294.609,-340.5018 964.8527,-314.288 703.5,-232 639.2291,-211.764 619.3801,-207.9965 567.5,-165 541.4276,-143.3921 520.0591,-108.7222 510.6598,-92.0548"/>
<polygon fill="#191970" stroke="#191970" points="1422.0191,-351.4041 1432.2008,-348.4742 1422.4143,-344.4152 1422.0191,-351.4041"/>
</g>
<!-- Node57 -->
<g id="node28" class="node">
<title>Node57</title>
<g id="a_node28"><a xlink:href="vfs_8h_source.html" target="_top" xlink:title="l4/l4re_vfs/vfs.h">
<polygon fill="#ffffff" stroke="#000000" points="1473.5,-274 1473.5,-293 1563.5,-293 1563.5,-274 1473.5,-274"/>
<text text-anchor="middle" x="1518.5" y="-281" font-family="Helvetica,sans-Serif" font-size="10.00" fill="#000000">l4/l4re_vfs/vfs.h</text>
</a>
</g>
</g>
<!-- Node56&#45;&gt;Node57 -->
<g id="edge44" class="edge">
<title>Node56&#45;&gt;Node57</title>
<path fill="none" stroke="#191970" d="M1487.0649,-332.4803C1495.2037,-319.7989 1505.7775,-303.3235 1512.3506,-293.0817"/>
<polygon fill="#191970" stroke="#191970" points="1484.1166,-330.5942 1481.6609,-340.9005 1490.0077,-334.3751 1484.1166,-330.5942"/>
</g>
<!-- Node64 -->
<g id="node35" class="node">
<title>Node64</title>
<g id="a_node35"><a xlink:href="unique__cap.html" target="_top" xlink:title="Unique_cap / Unique_del_cap. ">
<polygon fill="#ffffff" stroke="#000000" points="1840,-207 1840,-226 1935,-226 1935,-207 1840,-207"/>
<text text-anchor="middle" x="1887.5" y="-214" font-family="Helvetica,sans-Serif" font-size="10.00" fill="#000000">l4/re/unique_cap</text>
</a>
</g>
</g>
<!-- Node56&#45;&gt;Node64 -->
<g id="edge58" class="edge">
<title>Node56&#45;&gt;Node64</title>
<path fill="none" stroke="#191970" d="M1528.7106,-348.3216C1589.5361,-344.2478 1691.0664,-332.5559 1771.5,-299 1815.0624,-280.8263 1858.1936,-243.8471 1877.2878,-226.2402"/>
<polygon fill="#191970" stroke="#191970" points="1528.3371,-344.838 1518.5748,-348.9549 1528.7736,-351.8244 1528.3371,-344.838"/>
</g>
<!-- Node65 -->
<g id="node36" class="node">
<title>Node65</title>
<g id="a_node36"><a xlink:href="shared__cap.html" target="_top" xlink:title="Shared_cap / Shared_del_cap. ">
<polygon fill="#ffffff" stroke="#000000" points="1665,-274 1665,-293 1762,-293 1762,-274 1665,-274"/>
<text text-anchor="middle" x="1713.5" y="-281" font-family="Helvetica,sans-Serif" font-size="10.00" fill="#000000">l4/re/shared_cap</text>
</a>
</g>
</g>
<!-- Node56&#45;&gt;Node65 -->
<g id="edge62" class="edge">
<title>Node56&#45;&gt;Node65</title>
<path fill="none" stroke="#191970" d="M1519.0711,-338.2342C1565.2373,-325.2378 1637.1722,-304.9872 1679.3846,-293.1039"/>
<polygon fill="#191970" stroke="#191970" points="1518.0242,-334.8928 1509.3468,-340.9717 1519.9212,-341.6309 1518.0242,-334.8928"/>
</g>
<!-- Node58 -->
<g id="node29" class="node">
<title>Node58</title>
<g id="a_node29"><a xlink:href="backend_source.html" target="_top" xlink:title="l4/l4re_vfs/backend">
<polygon fill="#ffffff" stroke="#000000" points="1464.5,-207 1464.5,-226 1572.5,-226 1572.5,-207 1464.5,-207"/>
<text text-anchor="middle" x="1518.5" y="-214" font-family="Helvetica,sans-Serif" font-size="10.00" fill="#000000">l4/l4re_vfs/backend</text>
</a>
</g>
</g>
<!-- Node57&#45;&gt;Node58 -->
<g id="edge45" class="edge">
<title>Node57&#45;&gt;Node58</title>
<path fill="none" stroke="#191970" d="M1518.5,-263.6079C1518.5,-251.214 1518.5,-235.8263 1518.5,-226.0817"/>
<polygon fill="#191970" stroke="#191970" points="1515.0001,-263.9005 1518.5,-273.9005 1522.0001,-263.9006 1515.0001,-263.9005"/>
</g>
<!-- Node62 -->
<g id="node33" class="node">
<title>Node62</title>
<g id="a_node33"><a xlink:href="fd__store_8h_source.html" target="_top" xlink:title="l4/l4re_vfs/impl/fd\l_store.h">
<polygon fill="#ffffff" stroke="#000000" points="1592,-201.5 1592,-231.5 1691,-231.5 1691,-201.5 1592,-201.5"/>
<text text-anchor="start" x="1600" y="-219.5" font-family="Helvetica,sans-Serif" font-size="10.00" fill="#000000">l4/l4re_vfs/impl/fd</text>
<text text-anchor="middle" x="1641.5" y="-208.5" font-family="Helvetica,sans-Serif" font-size="10.00" fill="#000000">_store.h</text>
</a>
</g>
</g>
<!-- Node57&#45;&gt;Node62 -->
<g id="edge55" class="edge">
<title>Node57&#45;&gt;Node62</title>
<path fill="none" stroke="#191970" d="M1545.1489,-268.9839C1565.4717,-257.9138 1593.3738,-242.7151 1613.9227,-231.5218"/>
<polygon fill="#191970" stroke="#191970" points="1543.2303,-266.0434 1536.1229,-273.9005 1546.5788,-272.1906 1543.2303,-266.0434"/>
</g>
<!-- Node58&#45;&gt;Node40 -->
<g id="edge54" class="edge">
<title>Node58&#45;&gt;Node40</title>
<path fill="none" stroke="#191970" d="M1544.8221,-201.6362C1558.4992,-192.6649 1574.4171,-180.0579 1584.5,-165 1598.3986,-144.2435 1603.9606,-115.2001 1606.1421,-97.6855"/>
<polygon fill="#191970" stroke="#191970" points="1542.8689,-198.7295 1536.2418,-206.9959 1546.5774,-204.6665 1542.8689,-198.7295"/>
</g>
<!-- Node59 -->
<g id="node30" class="node">
<title>Node59</title>
<g id="a_node30"><a xlink:href="ns__fs_8h_source.html" target="_top" xlink:title="l4/l4re_vfs/impl/ns_fs.h">
<polygon fill="#ffffff" stroke="#000000" points="1825.5,-140 1825.5,-159 1949.5,-159 1949.5,-140 1825.5,-140"/>
<text text-anchor="middle" x="1887.5" y="-147" font-family="Helvetica,sans-Serif" font-size="10.00" fill="#000000">l4/l4re_vfs/impl/ns_fs.h</text>
</a>
</g>
</g>
<!-- Node58&#45;&gt;Node59 -->
<g id="edge46" class="edge">
<title>Node58&#45;&gt;Node59</title>
<path fill="none" stroke="#191970" d="M1566.6509,-204.6417C1572.3184,-203.3576 1578.0293,-202.1144 1583.5,-201 1666.7685,-184.0381 1763.6663,-168.3088 1825.2694,-158.8061"/>
<polygon fill="#191970" stroke="#191970" points="1565.5105,-201.3131 1556.5576,-206.9785 1567.0894,-208.1327 1565.5105,-201.3131"/>
</g>
<!-- Node60 -->
<g id="node31" class="node">
<title>Node60</title>
<g id="a_node31"><a xlink:href="ro__file_8h_source.html" target="_top" xlink:title="l4/l4re_vfs/impl/ro\l_file.h">
<polygon fill="#ffffff" stroke="#000000" points="1229.5,-134.5 1229.5,-164.5 1329.5,-164.5 1329.5,-134.5 1229.5,-134.5"/>
<text text-anchor="start" x="1237.5" y="-152.5" font-family="Helvetica,sans-Serif" font-size="10.00" fill="#000000">l4/l4re_vfs/impl/ro</text>
<text text-anchor="middle" x="1279.5" y="-141.5" font-family="Helvetica,sans-Serif" font-size="10.00" fill="#000000">_file.h</text>
</a>
</g>
</g>
<!-- Node58&#45;&gt;Node60 -->
<g id="edge49" class="edge">
<title>Node58&#45;&gt;Node60</title>
<path fill="none" stroke="#191970" d="M1474.8071,-204.2514C1433.8187,-192.7609 1372.5635,-175.5889 1329.6102,-163.5476"/>
<polygon fill="#191970" stroke="#191970" points="1473.9374,-207.6424 1484.5109,-206.9717 1475.8269,-200.9022 1473.9374,-207.6424"/>
</g>
<!-- Node61 -->
<g id="node32" class="node">
<title>Node61</title>
<g id="a_node32"><a xlink:href="vcon__stream_8h_source.html" target="_top" xlink:title="l4/l4re_vfs/impl/vcon\l_stream.h">
<polygon fill="#ffffff" stroke="#000000" points="1462,-134.5 1462,-164.5 1575,-164.5 1575,-134.5 1462,-134.5"/>
<text text-anchor="start" x="1470" y="-152.5" font-family="Helvetica,sans-Serif" font-size="10.00" fill="#000000">l4/l4re_vfs/impl/vcon</text>
<text text-anchor="middle" x="1518.5" y="-141.5" font-family="Helvetica,sans-Serif" font-size="10.00" fill="#000000">_stream.h</text>
</a>
</g>
</g>
<!-- Node58&#45;&gt;Node61 -->
<g id="edge51" class="edge">
<title>Node58&#45;&gt;Node61</title>
<path fill="none" stroke="#191970" d="M1518.5,-196.7758C1518.5,-186.4641 1518.5,-174.0437 1518.5,-164.5218"/>
<polygon fill="#191970" stroke="#191970" points="1515.0001,-196.9005 1518.5,-206.9005 1522.0001,-196.9006 1515.0001,-196.9005"/>
</g>
<!-- Node59&#45;&gt;Node37 -->
<g id="edge47" class="edge">
<title>Node59&#45;&gt;Node37</title>
<path fill="none" stroke="#191970" d="M1887.5,-129.6918C1887.5,-102.6902 1887.5,-54.915 1887.5,-30.611"/>
<polygon fill="#191970" stroke="#191970" points="1884.0001,-129.863 1887.5,-139.8631 1891.0001,-129.8631 1884.0001,-129.863"/>
</g>
<!-- Node59&#45;&gt;Node40 -->
<g id="edge48" class="edge">
<title>Node59&#45;&gt;Node40</title>
<path fill="none" stroke="#191970" d="M1837.7161,-137.5874C1787.5689,-125.5879 1710.5218,-107.1517 1659.5742,-94.9606"/>
<polygon fill="#191970" stroke="#191970" points="1837.1402,-141.0484 1847.6802,-139.9717 1838.7693,-134.2405 1837.1402,-141.0484"/>
</g>
<!-- Node60&#45;&gt;Node38 -->
<g id="edge50" class="edge">
<title>Node60&#45;&gt;Node38</title>
<path fill="none" stroke="#191970" d="M1267.528,-125.1932C1262.9923,-115.9844 1257.9618,-105.771 1253.9586,-97.6432"/>
<polygon fill="#191970" stroke="#191970" points="1264.4534,-126.8723 1272.0118,-134.2967 1270.7331,-123.7793 1264.4534,-126.8723"/>
</g>
<!-- Node61&#45;&gt;Node39 -->
<g id="edge52" class="edge">
<title>Node61&#45;&gt;Node39</title>
<path fill="none" stroke="#191970" d="M1504.8788,-125.4837C1499.6132,-116.1996 1493.747,-105.8565 1489.0887,-97.6432"/>
<polygon fill="#191970" stroke="#191970" points="1501.8993,-127.325 1509.8772,-134.2967 1507.9882,-123.8716 1501.8993,-127.325"/>
</g>
<!-- Node61&#45;&gt;Node40 -->
<g id="edge53" class="edge">
<title>Node61&#45;&gt;Node40</title>
<path fill="none" stroke="#191970" d="M1546.9743,-128.0643C1560.1338,-118.1577 1575.4513,-106.6265 1587.3844,-97.6432"/>
<polygon fill="#191970" stroke="#191970" points="1544.5797,-125.486 1538.6955,-134.2967 1548.7897,-131.0785 1544.5797,-125.486"/>
</g>
<!-- Node62&#45;&gt;Node40 -->
<g id="edge57" class="edge">
<title>Node62&#45;&gt;Node40</title>
<path fill="none" stroke="#191970" d="M1635.1165,-191.3415C1628.1317,-163.8131 1617.1599,-120.5714 1611.3723,-97.7614"/>
<polygon fill="#191970" stroke="#191970" points="1631.8139,-192.5569 1637.6659,-201.389 1638.5989,-190.8353 1631.8139,-192.5569"/>
</g>
<!-- Node63 -->
<g id="node34" class="node">
<title>Node63</title>
<g id="a_node34"><a xlink:href="fd__store__impl_8h_source.html" target="_top" xlink:title="l4/l4re_vfs/impl/fd\l_store_impl.h">
<polygon fill="#ffffff" stroke="#000000" points="1670,-134.5 1670,-164.5 1769,-164.5 1769,-134.5 1670,-134.5"/>
<text text-anchor="start" x="1678" y="-152.5" font-family="Helvetica,sans-Serif" font-size="10.00" fill="#000000">l4/l4re_vfs/impl/fd</text>
<text text-anchor="middle" x="1719.5" y="-141.5" font-family="Helvetica,sans-Serif" font-size="10.00" fill="#000000">_store_impl.h</text>
</a>
</g>
</g>
<!-- Node62&#45;&gt;Node63 -->
<g id="edge56" class="edge">
<title>Node62&#45;&gt;Node63</title>
<path fill="none" stroke="#191970" d="M1667.116,-194.4965C1678.4984,-184.7193 1691.6116,-173.4554 1701.8706,-164.6432"/>
<polygon fill="#191970" stroke="#191970" points="1664.5045,-192.1257 1659.1994,-201.2967 1669.0657,-197.4357 1664.5045,-192.1257"/>
</g>
<!-- Node64&#45;&gt;Node37 -->
<g id="edge60" class="edge">
<title>Node64&#45;&gt;Node37</title>
<path fill="none" stroke="#191970" d="M1919.2656,-202.1382C1934.0573,-193.6276 1950.1924,-181.2889 1958.5,-165 1964.7598,-152.7263 1962.1736,-147.279 1958.5,-134 1947.1814,-93.0869 1917.5733,-52.1009 1900.3774,-30.701"/>
<polygon fill="#191970" stroke="#191970" points="1917.4676,-199.1309 1910.3113,-206.9436 1920.7777,-205.2988 1917.4676,-199.1309"/>
</g>
<!-- Node64&#45;&gt;Node59 -->
<g id="edge59" class="edge">
<title>Node64&#45;&gt;Node59</title>
<path fill="none" stroke="#191970" d="M1887.5,-196.6079C1887.5,-184.214 1887.5,-168.8263 1887.5,-159.0817"/>
<polygon fill="#191970" stroke="#191970" points="1884.0001,-196.9005 1887.5,-206.9005 1891.0001,-196.9006 1884.0001,-196.9005"/>
</g>
<!-- Node65&#45;&gt;Node40 -->
<g id="edge63" class="edge">
<title>Node65&#45;&gt;Node40</title>
<path fill="none" stroke="#191970" d="M1731.4041,-266.6365C1760.1482,-237.5049 1810.2885,-176.7726 1778.5,-134 1764.1669,-114.7143 1704.503,-99.9029 1659.6555,-91.2176"/>
<polygon fill="#191970" stroke="#191970" points="1728.6213,-264.4645 1723.95,-273.9739 1733.5319,-269.4531 1728.6213,-264.4645"/>
</g>
</g>
</svg>
