<?xml version="1.0" encoding="UTF-8" standalone="no"?>
<!DOCTYPE svg PUBLIC "-//W3C//DTD SVG 1.1//EN"
 "http://www.w3.org/Graphics/SVG/1.1/DTD/svg11.dtd">
<!-- Generated by graphviz version 2.40.1 (20161225.0304)
 -->
<!-- Title: l4/re/c/rm.h Pages: 1 -->
<svg width="538pt" height="420pt"
 viewBox="0.00 0.00 538.02 420.00" xmlns="http://www.w3.org/2000/svg" xmlns:xlink="http://www.w3.org/1999/xlink">
<g id="graph0" class="graph" transform="scale(1 1) rotate(0) translate(4 416)">
<title>l4/re/c/rm.h</title>
<polygon fill="#ffffff" stroke="transparent" points="-4,4 -4,-416 534.0164,-416 534.0164,4 -4,4"/>
<!-- Node0 -->
<g id="node1" class="node">
<title>Node0</title>
<polygon fill="#bfbfbf" stroke="#000000" points="194.5164,-392.5 194.5164,-411.5 263.5164,-411.5 263.5164,-392.5 194.5164,-392.5"/>
<text text-anchor="middle" x="229.0164" y="-399.5" font-family="Helvetica,sans-Serif" font-size="10.00" fill="#000000">l4/re/c/rm.h</text>
</g>
<!-- Node1 -->
<g id="node2" class="node">
<title>Node1</title>
<g id="a_node2"><a xlink:href="env_8h.html" target="_top" xlink:title="Environment interface. ">
<polygon fill="#ffffff" stroke="#000000" points="338.0164,-336.5 338.0164,-355.5 404.0164,-355.5 404.0164,-336.5 338.0164,-336.5"/>
<text text-anchor="middle" x="371.0164" y="-343.5" font-family="Helvetica,sans-Serif" font-size="10.00" fill="#000000">l4/re/env.h</text>
</a>
</g>
</g>
<!-- Node0&#45;&gt;Node1 -->
<g id="edge1" class="edge">
<title>Node0&#45;&gt;Node1</title>
<path fill="none" stroke="#191970" d="M253.4271,-392.3733C276.6307,-383.2226 311.7203,-369.3844 337.5307,-359.2057"/>
<polygon fill="#191970" stroke="#191970" points="338.9056,-362.4258 346.9243,-355.5011 336.3375,-355.9139 338.9056,-362.4258"/>
</g>
<!-- Node13 -->
<g id="node14" class="node">
<title>Node13</title>
<g id="a_node14"><a xlink:href="dataspace_8h.html" target="_top" xlink:title="Data space C interface. ">
<polygon fill="#ffffff" stroke="#000000" points="123.5164,-336.5 123.5164,-355.5 230.5164,-355.5 230.5164,-336.5 123.5164,-336.5"/>
<text text-anchor="middle" x="177.0164" y="-343.5" font-family="Helvetica,sans-Serif" font-size="10.00" fill="#000000">l4/re/c/dataspace.h</text>
</a>
</g>
</g>
<!-- Node0&#45;&gt;Node13 -->
<g id="edge23" class="edge">
<title>Node0&#45;&gt;Node13</title>
<path fill="none" stroke="#191970" d="M219.9587,-392.2455C212.5023,-384.2155 201.753,-372.6394 192.8747,-363.0781"/>
<polygon fill="#191970" stroke="#191970" points="195.3397,-360.589 185.9704,-355.6427 190.2101,-365.3522 195.3397,-360.589"/>
</g>
<!-- Node2 -->
<g id="node3" class="node">
<title>Node2</title>
<g id="a_node3"><a xlink:href="l4_2sys_2consts_8h.html" target="_top" xlink:title="Common constants. ">
<polygon fill="#ffffff" stroke="#000000" points="384.0164,-112.5 384.0164,-131.5 470.0164,-131.5 470.0164,-112.5 384.0164,-112.5"/>
<text text-anchor="middle" x="427.0164" y="-119.5" font-family="Helvetica,sans-Serif" font-size="10.00" fill="#000000">l4/sys/consts.h</text>
</a>
</g>
</g>
<!-- Node1&#45;&gt;Node2 -->
<g id="edge2" class="edge">
<title>Node1&#45;&gt;Node2</title>
<path fill="none" stroke="#191970" d="M380.2901,-336.3379C401.8387,-313.1196 454.8344,-251.3972 473.0164,-188 475.467,-179.4556 476.4181,-176.2123 473.0164,-168 468.1852,-156.3363 458.8027,-146.0881 449.7647,-138.243"/>
<polygon fill="#191970" stroke="#191970" points="451.6834,-135.2942 441.7017,-131.7423 447.2898,-140.7436 451.6834,-135.2942"/>
</g>
<!-- Node3 -->
<g id="node4" class="node">
<title>Node3</title>
<g id="a_node4"><a xlink:href="compiler_8h.html" target="_top" xlink:title="L4 compiler related defines. ">
<polygon fill="#ffffff" stroke="#000000" points="308.5164,-56.5 308.5164,-75.5 403.5164,-75.5 403.5164,-56.5 308.5164,-56.5"/>
<text text-anchor="middle" x="356.0164" y="-63.5" font-family="Helvetica,sans-Serif" font-size="10.00" fill="#000000">l4/sys/compiler.h</text>
</a>
</g>
</g>
<!-- Node1&#45;&gt;Node3 -->
<g id="edge20" class="edge">
<title>Node1&#45;&gt;Node3</title>
<path fill="none" stroke="#191970" d="M404.3481,-338.4241C450.972,-325.6277 530.0164,-294.9459 530.0164,-234 530.0164,-234 530.0164,-234 530.0164,-178 530.0164,-121.4176 464.1551,-92.0646 413.4728,-77.8532"/>
<polygon fill="#191970" stroke="#191970" points="414.127,-74.4054 403.5627,-75.2093 412.3225,-81.1688 414.127,-74.4054"/>
</g>
<!-- Node6 -->
<g id="node7" class="node">
<title>Node6</title>
<g id="a_node7"><a xlink:href="l4_2sys_2types_8h.html" target="_top" xlink:title="Common L4 ABI Data Types. ">
<polygon fill="#ffffff" stroke="#000000" points="196.0164,-168.5 196.0164,-187.5 276.0164,-187.5 276.0164,-168.5 196.0164,-168.5"/>
<text text-anchor="middle" x="236.0164" y="-175.5" font-family="Helvetica,sans-Serif" font-size="10.00" fill="#000000">l4/sys/types.h</text>
</a>
</g>
</g>
<!-- Node1&#45;&gt;Node6 -->
<g id="edge6" class="edge">
<title>Node1&#45;&gt;Node6</title>
<path fill="none" stroke="#191970" d="M366.9315,-336.2709C357.4187,-314.4033 332.0609,-260.4352 299.0164,-224 288.108,-211.9723 273.5983,-201.1207 261.2533,-192.9819"/>
<polygon fill="#191970" stroke="#191970" points="263.045,-189.9734 252.7294,-187.557 259.2865,-195.8789 263.045,-189.9734"/>
</g>
<!-- Node9 -->
<g id="node10" class="node">
<title>Node9</title>
<g id="a_node10"><a xlink:href="sys_2kip_8h.html" target="_top" xlink:title="Kernel Info Page access functions. ">
<polygon fill="#ffffff" stroke="#000000" points="203.0164,-280.5 203.0164,-299.5 271.0164,-299.5 271.0164,-280.5 203.0164,-280.5"/>
<text text-anchor="middle" x="237.0164" y="-287.5" font-family="Helvetica,sans-Serif" font-size="10.00" fill="#000000">l4/sys/kip.h</text>
</a>
</g>
</g>
<!-- Node1&#45;&gt;Node9 -->
<g id="edge14" class="edge">
<title>Node1&#45;&gt;Node9</title>
<path fill="none" stroke="#191970" d="M347.981,-336.3733C326.2776,-327.3032 293.5546,-313.6279 269.2615,-303.4755"/>
<polygon fill="#191970" stroke="#191970" points="270.3276,-300.1278 259.7513,-299.5011 267.6284,-306.5865 270.3276,-300.1278"/>
</g>
<!-- Node12 -->
<g id="node13" class="node">
<title>Node12</title>
<g id="a_node13"><a xlink:href="l4_2re_2consts_8h.html" target="_top" xlink:title="Constants. ">
<polygon fill="#ffffff" stroke="#000000" points="384.0164,-168.5 384.0164,-187.5 464.0164,-187.5 464.0164,-168.5 384.0164,-168.5"/>
<text text-anchor="middle" x="424.0164" y="-175.5" font-family="Helvetica,sans-Serif" font-size="10.00" fill="#000000">l4/re/consts.h</text>
</a>
</g>
</g>
<!-- Node1&#45;&gt;Node12 -->
<g id="edge21" class="edge">
<title>Node1&#45;&gt;Node12</title>
<path fill="none" stroke="#191970" d="M374.0178,-336.4862C382.4321,-309.8144 406.3776,-233.9117 417.8031,-197.695"/>
<polygon fill="#191970" stroke="#191970" points="421.2452,-198.4176 420.916,-187.8279 414.5695,-196.3115 421.2452,-198.4176"/>
</g>
<!-- Node2&#45;&gt;Node3 -->
<g id="edge3" class="edge">
<title>Node2&#45;&gt;Node3</title>
<path fill="none" stroke="#191970" d="M414.6492,-112.2455C404.061,-103.8943 388.61,-91.7076 376.2271,-81.9408"/>
<polygon fill="#191970" stroke="#191970" points="378.2612,-79.0875 368.242,-75.6427 373.9261,-84.5837 378.2612,-79.0875"/>
</g>
<!-- Node5 -->
<g id="node6" class="node">
<title>Node5</title>
<g id="a_node6"><a xlink:href="l4_2sys_2l4int_8h.html" target="_top" xlink:title="Fixed sized integer types, generic version. ">
<polygon fill="#ffffff" stroke="#000000" points="78.0164,-56.5 78.0164,-75.5 152.0164,-75.5 152.0164,-56.5 78.0164,-56.5"/>
<text text-anchor="middle" x="115.0164" y="-63.5" font-family="Helvetica,sans-Serif" font-size="10.00" fill="#000000">l4/sys/l4int.h</text>
</a>
</g>
</g>
<!-- Node2&#45;&gt;Node5 -->
<g id="edge5" class="edge">
<title>Node2&#45;&gt;Node5</title>
<path fill="none" stroke="#191970" d="M383.9618,-114.2722C325.8083,-103.8344 222.522,-85.2959 162.2795,-74.4831"/>
<polygon fill="#191970" stroke="#191970" points="162.7344,-71.0089 152.2734,-72.6871 161.4977,-77.8988 162.7344,-71.0089"/>
</g>
<!-- Node4 -->
<g id="node5" class="node">
<title>Node4</title>
<polygon fill="#ffffff" stroke="#bfbfbf" points="311.5164,-.5 311.5164,-19.5 400.5164,-19.5 400.5164,-.5 311.5164,-.5"/>
<text text-anchor="middle" x="356.0164" y="-7.5" font-family="Helvetica,sans-Serif" font-size="10.00" fill="#000000">l4/sys/linkage.h</text>
</g>
<!-- Node3&#45;&gt;Node4 -->
<g id="edge4" class="edge">
<title>Node3&#45;&gt;Node4</title>
<path fill="none" stroke="#191970" d="M356.0164,-56.2455C356.0164,-48.9382 356.0164,-38.6944 356.0164,-29.7046"/>
<polygon fill="#191970" stroke="#191970" points="359.5165,-29.6426 356.0164,-19.6427 352.5165,-29.6427 359.5165,-29.6426"/>
</g>
<!-- Node6&#45;&gt;Node2 -->
<g id="edge9" class="edge">
<title>Node6&#45;&gt;Node2</title>
<path fill="none" stroke="#191970" d="M268.8505,-168.3733C300.8859,-158.9807 349.7651,-144.6496 384.7019,-134.4064"/>
<polygon fill="#191970" stroke="#191970" points="385.9995,-137.6733 394.6108,-131.5011 384.03,-130.9561 385.9995,-137.6733"/>
</g>
<!-- Node6&#45;&gt;Node3 -->
<g id="edge8" class="edge">
<title>Node6&#45;&gt;Node3</title>
<path fill="none" stroke="#191970" d="M251.0053,-168.4716C264.2518,-159.7296 283.7789,-146.0412 299.0164,-132 315.2735,-117.0193 331.5289,-97.6563 342.4958,-83.7837"/>
<polygon fill="#191970" stroke="#191970" points="345.5129,-85.6051 348.8857,-75.5615 339.9858,-81.3097 345.5129,-85.6051"/>
</g>
<!-- Node6&#45;&gt;Node5 -->
<g id="edge7" class="edge">
<title>Node6&#45;&gt;Node5</title>
<path fill="none" stroke="#191970" d="M221.0569,-168.4396C207.8296,-159.6767 188.3143,-145.9754 173.0164,-132 156.5721,-116.9772 140.0177,-97.6201 128.8285,-83.7603"/>
<polygon fill="#191970" stroke="#191970" points="131.2656,-81.2012 122.3055,-75.5472 125.7841,-85.5547 131.2656,-81.2012"/>
</g>
<!-- Node7 -->
<g id="node8" class="node">
<title>Node7</title>
<g id="a_node8"><a xlink:href="____l4__fpage_8h_source.html" target="_top" xlink:title="l4/sys/__l4_fpage.h">
<polygon fill="#ffffff" stroke="#000000" points="182.0164,-112.5 182.0164,-131.5 290.0164,-131.5 290.0164,-112.5 182.0164,-112.5"/>
<text text-anchor="middle" x="236.0164" y="-119.5" font-family="Helvetica,sans-Serif" font-size="10.00" fill="#000000">l4/sys/__l4_fpage.h</text>
</a>
</g>
</g>
<!-- Node6&#45;&gt;Node7 -->
<g id="edge10" class="edge">
<title>Node6&#45;&gt;Node7</title>
<path fill="none" stroke="#191970" d="M236.0164,-168.2455C236.0164,-160.9382 236.0164,-150.6944 236.0164,-141.7046"/>
<polygon fill="#191970" stroke="#191970" points="239.5165,-141.6426 236.0164,-131.6427 232.5165,-141.6427 239.5165,-141.6426"/>
</g>
<!-- Node8 -->
<g id="node9" class="node">
<title>Node8</title>
<g id="a_node9"><a xlink:href="____timeout_8h_source.html" target="_top" xlink:title="l4/sys/__timeout.h">
<polygon fill="#ffffff" stroke="#000000" points="24.5164,-112.5 24.5164,-131.5 125.5164,-131.5 125.5164,-112.5 24.5164,-112.5"/>
<text text-anchor="middle" x="75.0164" y="-119.5" font-family="Helvetica,sans-Serif" font-size="10.00" fill="#000000">l4/sys/__timeout.h</text>
</a>
</g>
</g>
<!-- Node6&#45;&gt;Node8 -->
<g id="edge12" class="edge">
<title>Node6&#45;&gt;Node8</title>
<path fill="none" stroke="#191970" d="M208.3396,-168.3733C181.6836,-159.1016 141.1927,-145.0178 111.828,-134.804"/>
<polygon fill="#191970" stroke="#191970" points="112.927,-131.4807 102.3322,-131.5011 110.6273,-138.0921 112.927,-131.4807"/>
</g>
<!-- Node7&#45;&gt;Node3 -->
<g id="edge11" class="edge">
<title>Node7&#45;&gt;Node3</title>
<path fill="none" stroke="#191970" d="M256.6452,-112.3733C275.9083,-103.3838 304.8651,-89.8706 326.5584,-79.7471"/>
<polygon fill="#191970" stroke="#191970" points="328.0752,-82.9017 335.6569,-75.5011 325.1149,-76.5584 328.0752,-82.9017"/>
</g>
<!-- Node8&#45;&gt;Node5 -->
<g id="edge13" class="edge">
<title>Node8&#45;&gt;Node5</title>
<path fill="none" stroke="#191970" d="M81.9839,-112.2455C87.5476,-104.4564 95.4945,-93.3308 102.1993,-83.9439"/>
<polygon fill="#191970" stroke="#191970" points="105.1645,-85.8144 108.1288,-75.6427 99.4683,-81.7457 105.1645,-85.8144"/>
</g>
<!-- Node9&#45;&gt;Node3 -->
<g id="edge15" class="edge">
<title>Node9&#45;&gt;Node3</title>
<path fill="none" stroke="#191970" d="M255.4975,-280.4685C269.3172,-272.4623 287.7056,-259.8037 299.0164,-244 334.6475,-194.2157 348.719,-121.1295 353.6561,-86.1296"/>
<polygon fill="#191970" stroke="#191970" points="357.1793,-86.1767 354.9981,-75.8088 350.2378,-85.274 357.1793,-86.1767"/>
</g>
<!-- Node9&#45;&gt;Node5 -->
<g id="edge16" class="edge">
<title>Node9&#45;&gt;Node5</title>
<path fill="none" stroke="#191970" d="M202.9743,-285.4375C156.015,-278.5003 74.6928,-263.9656 53.0164,-244 8.1125,-202.64 -17.9189,-163.4031 15.0164,-112 26.8885,-93.4709 48.3144,-82.3038 68.2967,-75.6246"/>
<polygon fill="#191970" stroke="#191970" points="69.3916,-78.95 77.942,-72.6937 67.3563,-72.2524 69.3916,-78.95"/>
</g>
<!-- Node10 -->
<g id="node11" class="node">
<title>Node10</title>
<polygon fill="#ffffff" stroke="#bfbfbf" points="62.0164,-224.5 62.0164,-243.5 166.0164,-243.5 166.0164,-224.5 62.0164,-224.5"/>
<text text-anchor="middle" x="114.0164" y="-231.5" font-family="Helvetica,sans-Serif" font-size="10.00" fill="#000000">l4/sys/__kip&#45;arch.h</text>
</g>
<!-- Node9&#45;&gt;Node10 -->
<g id="edge17" class="edge">
<title>Node9&#45;&gt;Node10</title>
<path fill="none" stroke="#191970" d="M215.872,-280.3733C196.1273,-271.3838 166.4466,-257.8706 144.211,-247.7471"/>
<polygon fill="#191970" stroke="#191970" points="145.4364,-244.4594 134.885,-243.5011 142.5358,-250.8302 145.4364,-244.4594"/>
</g>
<!-- Node11 -->
<g id="node12" class="node">
<title>Node11</title>
<g id="a_node12"><a xlink:href="____kip-64bit_8h_source.html" target="_top" xlink:title="l4/sys/__kip&#45;64bit.h">
<polygon fill="#ffffff" stroke="#000000" points="184.0164,-224.5 184.0164,-243.5 290.0164,-243.5 290.0164,-224.5 184.0164,-224.5"/>
<text text-anchor="middle" x="237.0164" y="-231.5" font-family="Helvetica,sans-Serif" font-size="10.00" fill="#000000">l4/sys/__kip&#45;64bit.h</text>
</a>
</g>
</g>
<!-- Node9&#45;&gt;Node11 -->
<g id="edge18" class="edge">
<title>Node9&#45;&gt;Node11</title>
<path fill="none" stroke="#191970" d="M237.0164,-280.2455C237.0164,-272.9382 237.0164,-262.6944 237.0164,-253.7046"/>
<polygon fill="#191970" stroke="#191970" points="240.5165,-253.6426 237.0164,-243.6427 233.5165,-253.6427 240.5165,-253.6426"/>
</g>
<!-- Node11&#45;&gt;Node6 -->
<g id="edge19" class="edge">
<title>Node11&#45;&gt;Node6</title>
<path fill="none" stroke="#191970" d="M236.8423,-224.2455C236.7118,-216.9382 236.5288,-206.6944 236.3683,-197.7046"/>
<polygon fill="#191970" stroke="#191970" points="239.8667,-197.5786 236.1886,-187.6427 232.8678,-197.7036 239.8667,-197.5786"/>
</g>
<!-- Node12&#45;&gt;Node2 -->
<g id="edge22" class="edge">
<title>Node12&#45;&gt;Node2</title>
<path fill="none" stroke="#191970" d="M424.539,-168.2455C424.9305,-160.9382 425.4792,-150.6944 425.9608,-141.7046"/>
<polygon fill="#191970" stroke="#191970" points="429.4598,-141.8156 426.4999,-131.6427 422.4698,-141.4411 429.4598,-141.8156"/>
</g>
<!-- Node13&#45;&gt;Node6 -->
<g id="edge24" class="edge">
<title>Node13&#45;&gt;Node6</title>
<path fill="none" stroke="#191970" d="M153.0821,-336.4309C107.7058,-316.9184 16.8042,-270.4412 53.0164,-224 69.2367,-203.1979 137.4704,-190.364 185.857,-183.7053"/>
<polygon fill="#191970" stroke="#191970" points="186.4029,-187.1637 195.855,-182.3775 185.4813,-180.2246 186.4029,-187.1637"/>
</g>
</g>
</svg>
