<?xml version="1.0" encoding="UTF-8" standalone="no"?>
<!DOCTYPE svg PUBLIC "-//W3C//DTD SVG 1.1//EN"
 "http://www.w3.org/Graphics/SVG/1.1/DTD/svg11.dtd">
<!-- Generated by graphviz version 2.40.1 (20161225.0304)
 -->
<!-- Title: l4/re/rm Pages: 1 -->
<svg width="1493pt" height="218pt"
 viewBox="0.00 0.00 1492.50 218.00" xmlns="http://www.w3.org/2000/svg" xmlns:xlink="http://www.w3.org/1999/xlink">
<g id="graph0" class="graph" transform="scale(1 1) rotate(0) translate(4 214)">
<title>l4/re/rm</title>
<polygon fill="#ffffff" stroke="transparent" points="-4,4 -4,-214 1488.5,-214 1488.5,4 -4,4"/>
<!-- Node35 -->
<g id="node1" class="node">
<title>Node35</title>
<polygon fill="#bfbfbf" stroke="#000000" points="1042.5,-190.5 1042.5,-209.5 1095.5,-209.5 1095.5,-190.5 1042.5,-190.5"/>
<text text-anchor="middle" x="1069" y="-197.5" font-family="Helvetica,sans-Serif" font-size="10.00" fill="#000000">l4/re/rm</text>
</g>
<!-- Node36 -->
<g id="node2" class="node">
<title>Node36</title>
<g id="a_node2"><a xlink:href="env.html" target="_top" xlink:title="Environment interface. ">
<polygon fill="#ffffff" stroke="#000000" points="612,-134.5 612,-153.5 670,-153.5 670,-134.5 612,-134.5"/>
<text text-anchor="middle" x="641" y="-141.5" font-family="Helvetica,sans-Serif" font-size="10.00" fill="#000000">l4/re/env</text>
</a>
</g>
</g>
<!-- Node35&#45;&gt;Node36 -->
<g id="edge1" class="edge">
<title>Node35&#45;&gt;Node36</title>
<path fill="none" stroke="#191970" d="M1032.1788,-195.1823C948.6298,-184.2506 746.0853,-157.7495 670.2826,-147.8314"/>
<polygon fill="#191970" stroke="#191970" points="1031.8571,-198.6699 1042.2267,-196.4969 1032.7653,-191.7291 1031.8571,-198.6699"/>
</g>
<!-- Node38 -->
<g id="node4" class="node">
<title>Node38</title>
<g id="a_node4"><a xlink:href="server_2l4virtio_source.html" target="_top" xlink:title="l4/l4virtio/server\l/l4virtio">
<polygon fill="#ffffff" stroke="#000000" points="0,-67.5 0,-97.5 92,-97.5 92,-67.5 0,-67.5"/>
<text text-anchor="start" x="8" y="-85.5" font-family="Helvetica,sans-Serif" font-size="10.00" fill="#000000">l4/l4virtio/server</text>
<text text-anchor="middle" x="46" y="-74.5" font-family="Helvetica,sans-Serif" font-size="10.00" fill="#000000">/l4virtio</text>
</a>
</g>
</g>
<!-- Node35&#45;&gt;Node38 -->
<g id="edge15" class="edge">
<title>Node35&#45;&gt;Node38</title>
<path fill="none" stroke="#191970" d="M1032.0357,-198.4467C902.7916,-192.5208 459.5267,-168.0284 101,-98 98.079,-97.4295 95.0874,-96.7798 92.0817,-96.0774"/>
<polygon fill="#191970" stroke="#191970" points="1032.0353,-201.9501 1042.1825,-198.903 1032.3498,-194.9572 1032.0353,-201.9501"/>
</g>
<!-- Node44 -->
<g id="node10" class="node">
<title>Node44</title>
<g id="a_node10"><a xlink:href="vfs__impl_8h_source.html" target="_top" xlink:title="l4/l4re_vfs/impl/vfs\l_impl.h">
<polygon fill="#ffffff" stroke="#000000" points="948,-67.5 948,-97.5 1052,-97.5 1052,-67.5 948,-67.5"/>
<text text-anchor="start" x="956" y="-85.5" font-family="Helvetica,sans-Serif" font-size="10.00" fill="#000000">l4/l4re_vfs/impl/vfs</text>
<text text-anchor="middle" x="1000" y="-74.5" font-family="Helvetica,sans-Serif" font-size="10.00" fill="#000000">_impl.h</text>
</a>
</g>
</g>
<!-- Node35&#45;&gt;Node44 -->
<g id="edge16" class="edge">
<title>Node35&#45;&gt;Node44</title>
<path fill="none" stroke="#191970" d="M1056.2691,-182.0531C1050.4839,-173.6638 1043.6795,-163.4586 1038,-154 1026.5663,-134.9583 1014.7711,-112.1854 1007.416,-97.5404"/>
<polygon fill="#191970" stroke="#191970" points="1053.4494,-184.1284 1062.045,-190.3224 1059.1881,-180.12 1053.4494,-184.1284"/>
</g>
<!-- Node45 -->
<g id="node11" class="node">
<title>Node45</title>
<g id="a_node11"><a xlink:href="util_2event.html" target="_top" xlink:title="l4/re/util/event">
<polygon fill="#ffffff" stroke="#000000" points="1070.5,-73 1070.5,-92 1153.5,-92 1153.5,-73 1070.5,-73"/>
<text text-anchor="middle" x="1112" y="-80" font-family="Helvetica,sans-Serif" font-size="10.00" fill="#000000">l4/re/util/event</text>
</a>
</g>
</g>
<!-- Node35&#45;&gt;Node45 -->
<g id="edge18" class="edge">
<title>Node35&#45;&gt;Node45</title>
<path fill="none" stroke="#191970" d="M1054.5961,-181.9163C1045.6867,-168.4012 1037.2952,-149.6403 1045,-134 1054.5306,-114.6535 1075.2076,-100.5443 1091.0876,-92.0368"/>
<polygon fill="#191970" stroke="#191970" points="1051.9719,-184.2617 1060.6554,-190.3319 1057.6527,-180.1715 1051.9719,-184.2617"/>
</g>
<!-- Node50 -->
<g id="node16" class="node">
<title>Node50</title>
<g id="a_node16"><a xlink:href="rm__impl_8h.html" target="_top" xlink:title="Region map client stub implementation. ">
<polygon fill="#ffffff" stroke="#000000" points="1187.5,-134.5 1187.5,-153.5 1294.5,-153.5 1294.5,-134.5 1187.5,-134.5"/>
<text text-anchor="middle" x="1241" y="-141.5" font-family="Helvetica,sans-Serif" font-size="10.00" fill="#000000">l4/re/impl/rm_impl.h</text>
</a>
</g>
</g>
<!-- Node35&#45;&gt;Node50 -->
<g id="edge17" class="edge">
<title>Node35&#45;&gt;Node50</title>
<path fill="none" stroke="#191970" d="M1105.6408,-188.0704C1137.2938,-177.7648 1182.4334,-163.0682 1211.7251,-153.5314"/>
<polygon fill="#191970" stroke="#191970" points="1104.3001,-184.826 1095.875,-191.25 1106.4673,-191.4821 1104.3001,-184.826"/>
</g>
<!-- Node51 -->
<g id="node17" class="node">
<title>Node51</title>
<g id="a_node17"><a xlink:href="event__buffer_source.html" target="_top" xlink:title="l4/re/util/event_buffer">
<polygon fill="#ffffff" stroke="#000000" points="1054.5,-134.5 1054.5,-153.5 1169.5,-153.5 1169.5,-134.5 1054.5,-134.5"/>
<text text-anchor="middle" x="1112" y="-141.5" font-family="Helvetica,sans-Serif" font-size="10.00" fill="#000000">l4/re/util/event_buffer</text>
</a>
</g>
</g>
<!-- Node35&#45;&gt;Node51 -->
<g id="edge19" class="edge">
<title>Node35&#45;&gt;Node51</title>
<path fill="none" stroke="#191970" d="M1082.6592,-182.2112C1089.9263,-172.7472 1098.5781,-161.4797 1104.5958,-153.6427"/>
<polygon fill="#191970" stroke="#191970" points="1079.8043,-180.1824 1076.49,-190.2455 1085.3564,-184.4456 1079.8043,-180.1824"/>
</g>
<!-- Node52 -->
<g id="node18" class="node">
<title>Node52</title>
<g id="a_node18"><a xlink:href="region__mapping.html" target="_top" xlink:title="Region handling. ">
<polygon fill="#ffffff" stroke="#000000" points="1351.5,-134.5 1351.5,-153.5 1484.5,-153.5 1484.5,-134.5 1351.5,-134.5"/>
<text text-anchor="middle" x="1418" y="-141.5" font-family="Helvetica,sans-Serif" font-size="10.00" fill="#000000">l4/re/util/region_mapping</text>
</a>
</g>
</g>
<!-- Node35&#45;&gt;Node52 -->
<g id="edge21" class="edge">
<title>Node35&#45;&gt;Node52</title>
<path fill="none" stroke="#191970" d="M1105.6885,-194.113C1165.8885,-184.4534 1286.1686,-165.1535 1358.6267,-153.527"/>
<polygon fill="#191970" stroke="#191970" points="1104.8373,-190.7047 1095.5182,-195.7449 1105.9464,-197.6163 1104.8373,-190.7047"/>
</g>
<!-- Node53 -->
<g id="node19" class="node">
<title>Node53</title>
<g id="a_node19"><a xlink:href="region__mapping__svr__2_source.html" target="_top" xlink:title="l4/re/util/region_mapping\l_svr_2">
<polygon fill="#ffffff" stroke="#000000" points="1304.5,-67.5 1304.5,-97.5 1437.5,-97.5 1437.5,-67.5 1304.5,-67.5"/>
<text text-anchor="start" x="1312.5" y="-85.5" font-family="Helvetica,sans-Serif" font-size="10.00" fill="#000000">l4/re/util/region_mapping</text>
<text text-anchor="middle" x="1371" y="-74.5" font-family="Helvetica,sans-Serif" font-size="10.00" fill="#000000">_svr_2</text>
</a>
</g>
</g>
<!-- Node35&#45;&gt;Node53 -->
<g id="edge23" class="edge">
<title>Node35&#45;&gt;Node53</title>
<path fill="none" stroke="#191970" d="M1105.7158,-195.5445C1162.7397,-188.1671 1269.521,-172.3895 1303,-154 1327.9243,-140.3094 1349.117,-114.3101 1360.9375,-97.7215"/>
<polygon fill="#191970" stroke="#191970" points="1105.1539,-192.0877 1095.6761,-196.823 1106.0382,-199.0316 1105.1539,-192.0877"/>
</g>
<!-- Node37 -->
<g id="node3" class="node">
<title>Node37</title>
<g id="a_node3"><a xlink:href="vcpu_source.html" target="_top" xlink:title="l4/vcpu/vcpu">
<polygon fill="#ffffff" stroke="#000000" points="389,-73 389,-92 463,-92 463,-73 389,-73"/>
<text text-anchor="middle" x="426" y="-80" font-family="Helvetica,sans-Serif" font-size="10.00" fill="#000000">l4/vcpu/vcpu</text>
</a>
</g>
</g>
<!-- Node36&#45;&gt;Node37 -->
<g id="edge2" class="edge">
<title>Node36&#45;&gt;Node37</title>
<path fill="none" stroke="#191970" d="M601.7423,-134.0189C567.3692,-125.1121 516.159,-111.4367 472,-98 466.0339,-96.1846 459.6733,-94.1236 453.6448,-92.1107"/>
<polygon fill="#191970" stroke="#191970" points="601.2856,-137.5156 611.8429,-136.6244 603.0341,-130.7374 601.2856,-137.5156"/>
</g>
<!-- Node36&#45;&gt;Node38 -->
<g id="edge3" class="edge">
<title>Node36&#45;&gt;Node38</title>
<path fill="none" stroke="#191970" d="M601.5188,-143.1956C511.8503,-140.8127 286.251,-131.6788 101,-98 98.0718,-97.4677 95.0746,-96.8472 92.0648,-96.1666"/>
<polygon fill="#191970" stroke="#191970" points="601.6832,-146.7008 611.7683,-143.4539 601.8596,-139.703 601.6832,-146.7008"/>
</g>
<!-- Node40 -->
<g id="node6" class="node">
<title>Node40</title>
<g id="a_node6"><a xlink:href="env__ns_source.html" target="_top" xlink:title="l4/re/util/env_ns">
<polygon fill="#ffffff" stroke="#000000" points="481.5,-73 481.5,-92 572.5,-92 572.5,-73 481.5,-73"/>
<text text-anchor="middle" x="527" y="-80" font-family="Helvetica,sans-Serif" font-size="10.00" fill="#000000">l4/re/util/env_ns</text>
</a>
</g>
</g>
<!-- Node36&#45;&gt;Node40 -->
<g id="edge5" class="edge">
<title>Node36&#45;&gt;Node40</title>
<path fill="none" stroke="#191970" d="M614.2535,-129.571C592.7997,-117.9972 563.2947,-102.0801 544.6874,-92.0419"/>
<polygon fill="#191970" stroke="#191970" points="612.7247,-132.723 623.1875,-134.3906 616.0483,-126.5623 612.7247,-132.723"/>
</g>
<!-- Node42 -->
<g id="node8" class="node">
<title>Node42</title>
<g id="a_node8"><a xlink:href="ro__file__impl_8h_source.html" target="_top" xlink:title="l4/l4re_vfs/impl/ro\l_file_impl.h">
<polygon fill="#ffffff" stroke="#000000" points="591,-67.5 591,-97.5 691,-97.5 691,-67.5 591,-67.5"/>
<text text-anchor="start" x="599" y="-85.5" font-family="Helvetica,sans-Serif" font-size="10.00" fill="#000000">l4/l4re_vfs/impl/ro</text>
<text text-anchor="middle" x="641" y="-74.5" font-family="Helvetica,sans-Serif" font-size="10.00" fill="#000000">_file_impl.h</text>
</a>
</g>
</g>
<!-- Node36&#45;&gt;Node42 -->
<g id="edge7" class="edge">
<title>Node36&#45;&gt;Node42</title>
<path fill="none" stroke="#191970" d="M641,-124.3693C641,-115.681 641,-105.6241 641,-97.5446"/>
<polygon fill="#191970" stroke="#191970" points="637.5001,-124.3906 641,-134.3906 644.5001,-124.3907 637.5001,-124.3906"/>
</g>
<!-- Node43 -->
<g id="node9" class="node">
<title>Node43</title>
<g id="a_node9"><a xlink:href="vcon__stream__impl_8h_source.html" target="_top" xlink:title="l4/l4re_vfs/impl/vcon\l_stream_impl.h">
<polygon fill="#ffffff" stroke="#000000" points="709.5,-67.5 709.5,-97.5 822.5,-97.5 822.5,-67.5 709.5,-67.5"/>
<text text-anchor="start" x="717.5" y="-85.5" font-family="Helvetica,sans-Serif" font-size="10.00" fill="#000000">l4/l4re_vfs/impl/vcon</text>
<text text-anchor="middle" x="766" y="-74.5" font-family="Helvetica,sans-Serif" font-size="10.00" fill="#000000">_stream_impl.h</text>
</a>
</g>
</g>
<!-- Node36&#45;&gt;Node43 -->
<g id="edge8" class="edge">
<title>Node36&#45;&gt;Node43</title>
<path fill="none" stroke="#191970" d="M669.6138,-129.922C689.2756,-120.2484 715.3505,-107.4196 735.4216,-97.5446"/>
<polygon fill="#191970" stroke="#191970" points="667.9589,-126.8355 660.5313,-134.3906 671.0492,-133.1164 667.9589,-126.8355"/>
</g>
<!-- Node36&#45;&gt;Node44 -->
<g id="edge9" class="edge">
<title>Node36&#45;&gt;Node44</title>
<path fill="none" stroke="#191970" d="M680.2747,-139.0798C737.3121,-131.6714 846.279,-116.5278 938,-98 941.2626,-97.3409 944.6121,-96.6235 947.9831,-95.8704"/>
<polygon fill="#191970" stroke="#191970" points="679.7155,-135.6228 670.2447,-140.3721 680.6101,-142.5654 679.7155,-135.6228"/>
</g>
<!-- Node36&#45;&gt;Node45 -->
<g id="edge10" class="edge">
<title>Node36&#45;&gt;Node45</title>
<path fill="none" stroke="#191970" d="M680.4126,-142.131C755.2537,-138.0436 922.8179,-126.3088 1061,-98 1068.5246,-96.4585 1076.531,-94.2872 1083.9157,-92.0566"/>
<polygon fill="#191970" stroke="#191970" points="679.8586,-138.6554 670.0578,-142.6797 680.229,-145.6456 679.8586,-138.6554"/>
</g>
<!-- Node46 -->
<g id="node12" class="node">
<title>Node46</title>
<g id="a_node12"><a xlink:href="icu__svr_source.html" target="_top" xlink:title="l4/re/util/icu_svr">
<polygon fill="#ffffff" stroke="#000000" points="840.5,-73 840.5,-92 929.5,-92 929.5,-73 840.5,-73"/>
<text text-anchor="middle" x="885" y="-80" font-family="Helvetica,sans-Serif" font-size="10.00" fill="#000000">l4/re/util/icu_svr</text>
</a>
</g>
</g>
<!-- Node36&#45;&gt;Node46 -->
<g id="edge11" class="edge">
<title>Node36&#45;&gt;Node46</title>
<path fill="none" stroke="#191970" d="M679.8321,-135.1019C718.3172,-126.165 778.893,-111.7795 831,-98 837.9778,-96.1548 845.4336,-94.0812 852.5081,-92.0654"/>
<polygon fill="#191970" stroke="#191970" points="679.0187,-131.6976 670.0658,-137.3629 680.5975,-138.5172 679.0187,-131.6976"/>
</g>
<!-- Node48 -->
<g id="node14" class="node">
<title>Node48</title>
<g id="a_node14"><a xlink:href="kumem__alloc.html" target="_top" xlink:title="Kumem allocator helper. ">
<polygon fill="#ffffff" stroke="#000000" points="110.5,-73 110.5,-92 227.5,-92 227.5,-73 110.5,-73"/>
<text text-anchor="middle" x="169" y="-80" font-family="Helvetica,sans-Serif" font-size="10.00" fill="#000000">l4/re/util/kumem_alloc</text>
</a>
</g>
</g>
<!-- Node36&#45;&gt;Node48 -->
<g id="edge13" class="edge">
<title>Node36&#45;&gt;Node48</title>
<path fill="none" stroke="#191970" d="M601.8084,-141.0468C529.2598,-135.2483 369.2778,-120.9082 236,-98 226.469,-96.3618 216.2618,-94.2085 206.7605,-92.0301"/>
<polygon fill="#191970" stroke="#191970" points="601.6199,-144.5427 611.8643,-141.8403 602.1706,-137.5644 601.6199,-144.5427"/>
</g>
<!-- Node49 -->
<g id="node15" class="node">
<title>Node49</title>
<g id="a_node15"><a xlink:href="object__registry_source.html" target="_top" xlink:title="l4/re/util/object_registry">
<polygon fill="#ffffff" stroke="#000000" points="245.5,-73 245.5,-92 370.5,-92 370.5,-73 245.5,-73"/>
<text text-anchor="middle" x="308" y="-80" font-family="Helvetica,sans-Serif" font-size="10.00" fill="#000000">l4/re/util/object_registry</text>
</a>
</g>
</g>
<!-- Node36&#45;&gt;Node49 -->
<g id="edge14" class="edge">
<title>Node36&#45;&gt;Node49</title>
<path fill="none" stroke="#191970" d="M602.013,-137.5989C550.921,-129.1026 458.574,-113.3761 380,-98 370.5887,-96.1583 360.5121,-94.0654 350.9677,-92.0264"/>
<polygon fill="#191970" stroke="#191970" points="601.5294,-141.0664 611.9673,-139.2494 602.6745,-134.1607 601.5294,-141.0664"/>
</g>
<!-- Node39 -->
<g id="node5" class="node">
<title>Node39</title>
<g id="a_node5"><a xlink:href="virtio-block_source.html" target="_top" xlink:title="l4/l4virtio/server\l/virtio&#45;block">
<polygon fill="#ffffff" stroke="#000000" points="0,-.5 0,-30.5 92,-30.5 92,-.5 0,-.5"/>
<text text-anchor="start" x="8" y="-18.5" font-family="Helvetica,sans-Serif" font-size="10.00" fill="#000000">l4/l4virtio/server</text>
<text text-anchor="middle" x="46" y="-7.5" font-family="Helvetica,sans-Serif" font-size="10.00" fill="#000000">/virtio&#45;block</text>
</a>
</g>
</g>
<!-- Node38&#45;&gt;Node39 -->
<g id="edge4" class="edge">
<title>Node38&#45;&gt;Node39</title>
<path fill="none" stroke="#191970" d="M46,-57.0249C46,-48.128 46,-38.4287 46,-30.6432"/>
<polygon fill="#191970" stroke="#191970" points="42.5001,-57.2966 46,-67.2967 49.5001,-57.2967 42.5001,-57.2966"/>
</g>
<!-- Node41 -->
<g id="node7" class="node">
<title>Node41</title>
<g id="a_node7"><a xlink:href="ns__fs__impl_8h_source.html" target="_top" xlink:title="l4/l4re_vfs/impl/ns\l_fs_impl.h">
<polygon fill="#ffffff" stroke="#000000" points="476.5,-.5 476.5,-30.5 577.5,-30.5 577.5,-.5 476.5,-.5"/>
<text text-anchor="start" x="484.5" y="-18.5" font-family="Helvetica,sans-Serif" font-size="10.00" fill="#000000">l4/l4re_vfs/impl/ns</text>
<text text-anchor="middle" x="527" y="-7.5" font-family="Helvetica,sans-Serif" font-size="10.00" fill="#000000">_fs_impl.h</text>
</a>
</g>
</g>
<!-- Node40&#45;&gt;Node41 -->
<g id="edge6" class="edge">
<title>Node40&#45;&gt;Node41</title>
<path fill="none" stroke="#191970" d="M527,-62.7758C527,-52.4641 527,-40.0437 527,-30.5218"/>
<polygon fill="#191970" stroke="#191970" points="523.5001,-62.9005 527,-72.9005 530.5001,-62.9006 523.5001,-62.9005"/>
</g>
<!-- Node47 -->
<g id="node13" class="node">
<title>Node47</title>
<g id="a_node13"><a xlink:href="event__svr_source.html" target="_top" xlink:title="l4/re/util/event_svr">
<polygon fill="#ffffff" stroke="#000000" points="833.5,-6 833.5,-25 936.5,-25 936.5,-6 833.5,-6"/>
<text text-anchor="middle" x="885" y="-13" font-family="Helvetica,sans-Serif" font-size="10.00" fill="#000000">l4/re/util/event_svr</text>
</a>
</g>
</g>
<!-- Node46&#45;&gt;Node47 -->
<g id="edge12" class="edge">
<title>Node46&#45;&gt;Node47</title>
<path fill="none" stroke="#191970" d="M885,-62.6079C885,-50.214 885,-34.8263 885,-25.0817"/>
<polygon fill="#191970" stroke="#191970" points="881.5001,-62.9005 885,-72.9005 888.5001,-62.9006 881.5001,-62.9005"/>
</g>
<!-- Node51&#45;&gt;Node45 -->
<g id="edge20" class="edge">
<title>Node51&#45;&gt;Node45</title>
<path fill="none" stroke="#191970" d="M1112,-124.2462C1112,-113.5519 1112,-100.814 1112,-92.2449"/>
<polygon fill="#191970" stroke="#191970" points="1108.5001,-124.3906 1112,-134.3906 1115.5001,-124.3907 1108.5001,-124.3906"/>
</g>
<!-- Node52&#45;&gt;Node53 -->
<g id="edge22" class="edge">
<title>Node52&#45;&gt;Node53</title>
<path fill="none" stroke="#191970" d="M1404.5268,-126.3701C1397.5625,-117.2574 1389.1523,-106.2525 1382.4975,-97.5446"/>
<polygon fill="#191970" stroke="#191970" points="1401.8032,-128.5704 1410.6563,-134.3906 1407.365,-124.3199 1401.8032,-128.5704"/>
</g>
</g>
</svg>
