<?xml version="1.0" encoding="UTF-8" standalone="no"?>
<!DOCTYPE svg PUBLIC "-//W3C//DTD SVG 1.1//EN"
 "http://www.w3.org/Graphics/SVG/1.1/DTD/svg11.dtd">
<!-- Generated by graphviz version 2.40.1 (20161225.0304)
 -->
<!-- Title: l4/sys/scheduler.h Pages: 1 -->
<svg width="202pt" height="84pt"
 viewBox="0.00 0.00 201.50 84.00" xmlns="http://www.w3.org/2000/svg" xmlns:xlink="http://www.w3.org/1999/xlink">
<g id="graph0" class="graph" transform="scale(1 1) rotate(0) translate(4 80)">
<title>l4/sys/scheduler.h</title>
<polygon fill="#ffffff" stroke="transparent" points="-4,4 -4,-80 197.5,-80 197.5,4 -4,4"/>
<!-- Node13 -->
<g id="node1" class="node">
<title>Node13</title>
<polygon fill="#bfbfbf" stroke="#000000" points="44,-56.5 44,-75.5 145,-75.5 145,-56.5 44,-56.5"/>
<text text-anchor="middle" x="94.5" y="-63.5" font-family="Helvetica,sans-Serif" font-size="10.00" fill="#000000">l4/sys/scheduler.h</text>
</g>
<!-- Node14 -->
<g id="node2" class="node">
<title>Node14</title>
<g id="a_node2"><a xlink:href="l4_2util_2thread_8h.html" target="_top" xlink:title="Low&#45;level Thread Functions. ">
<polygon fill="#ffffff" stroke="#000000" points="0,-.5 0,-19.5 83,-19.5 83,-.5 0,-.5"/>
<text text-anchor="middle" x="41.5" y="-7.5" font-family="Helvetica,sans-Serif" font-size="10.00" fill="#000000">l4/util/thread.h</text>
</a>
</g>
</g>
<!-- Node13&#45;&gt;Node14 -->
<g id="edge1" class="edge">
<title>Node13&#45;&gt;Node14</title>
<path fill="none" stroke="#191970" d="M78.2104,-48.7884C69.1438,-39.2085 58.1946,-27.6396 50.6261,-19.6427"/>
<polygon fill="#191970" stroke="#191970" points="75.8522,-51.3884 85.2681,-56.2455 80.9363,-46.5767 75.8522,-51.3884"/>
</g>
<!-- Node15 -->
<g id="node3" class="node">
<title>Node15</title>
<g id="a_node3"><a xlink:href="scheduler.html" target="_top" xlink:title="Scheduler object functions. ">
<polygon fill="#ffffff" stroke="#000000" points="101.5,-.5 101.5,-19.5 193.5,-19.5 193.5,-.5 101.5,-.5"/>
<text text-anchor="middle" x="147.5" y="-7.5" font-family="Helvetica,sans-Serif" font-size="10.00" fill="#000000">l4/sys/scheduler</text>
</a>
</g>
</g>
<!-- Node13&#45;&gt;Node15 -->
<g id="edge2" class="edge">
<title>Node13&#45;&gt;Node15</title>
<path fill="none" stroke="#191970" d="M110.7896,-48.7884C119.8562,-39.2085 130.8054,-27.6396 138.3739,-19.6427"/>
<polygon fill="#191970" stroke="#191970" points="108.0637,-46.5767 103.7319,-56.2455 113.1478,-51.3884 108.0637,-46.5767"/>
</g>
</g>
</svg>
