<?xml version="1.0" encoding="UTF-8" standalone="no"?>
<!DOCTYPE svg PUBLIC "-//W3C//DTD SVG 1.1//EN"
 "http://www.w3.org/Graphics/SVG/1.1/DTD/svg11.dtd">
<!-- Generated by graphviz version 2.40.1 (20161225.0304)
 -->
<!-- Title: l4/sys/semaphore Pages: 1 -->
<svg width="1173pt" height="879pt"
 viewBox="0.00 0.00 1173.00 879.00" xmlns="http://www.w3.org/2000/svg" xmlns:xlink="http://www.w3.org/1999/xlink">
<g id="graph0" class="graph" transform="scale(1 1) rotate(0) translate(4 875)">
<title>l4/sys/semaphore</title>
<polygon fill="#ffffff" stroke="transparent" points="-4,4 -4,-875 1169,-875 1169,4 -4,4"/>
<!-- Node0 -->
<g id="node1" class="node">
<title>Node0</title>
<polygon fill="#bfbfbf" stroke="#000000" points="373,-851.5 373,-870.5 473,-870.5 473,-851.5 373,-851.5"/>
<text text-anchor="middle" x="423" y="-858.5" font-family="Helvetica,sans-Serif" font-size="10.00" fill="#000000">l4/sys/semaphore</text>
</g>
<!-- Node1 -->
<g id="node2" class="node">
<title>Node1</title>
<g id="a_node2"><a xlink:href="irq.html" target="_top" xlink:title="C++ Irq interface. ">
<polygon fill="#ffffff" stroke="#000000" points="472.5,-795.5 472.5,-814.5 531.5,-814.5 531.5,-795.5 472.5,-795.5"/>
<text text-anchor="middle" x="502" y="-802.5" font-family="Helvetica,sans-Serif" font-size="10.00" fill="#000000">l4/sys/irq</text>
</a>
</g>
</g>
<!-- Node0&#45;&gt;Node1 -->
<g id="edge1" class="edge">
<title>Node0&#45;&gt;Node1</title>
<path fill="none" stroke="#191970" d="M436.7607,-851.2455C448.6552,-842.814 466.065,-830.4729 479.9085,-820.6598"/>
<polygon fill="#191970" stroke="#191970" points="482.2628,-823.2811 488.3969,-814.6427 478.2146,-817.5704 482.2628,-823.2811"/>
</g>
<!-- Node30 -->
<g id="node31" class="node">
<title>Node30</title>
<g id="a_node31"><a xlink:href="semaphore_8h_source.html" target="_top" xlink:title="l4/sys/semaphore.h">
<polygon fill="#ffffff" stroke="#000000" points="318,-795.5 318,-814.5 426,-814.5 426,-795.5 318,-795.5"/>
<text text-anchor="middle" x="372" y="-802.5" font-family="Helvetica,sans-Serif" font-size="10.00" fill="#000000">l4/sys/semaphore.h</text>
</a>
</g>
</g>
<!-- Node0&#45;&gt;Node30 -->
<g id="edge78" class="edge">
<title>Node0&#45;&gt;Node30</title>
<path fill="none" stroke="#191970" d="M414.1165,-851.2455C406.8034,-843.2155 396.2609,-831.6394 387.5533,-822.0781"/>
<polygon fill="#191970" stroke="#191970" points="390.1028,-819.6795 380.7817,-814.6427 384.9273,-824.3928 390.1028,-819.6795"/>
</g>
<!-- Node2 -->
<g id="node3" class="node">
<title>Node2</title>
<g id="a_node3"><a xlink:href="icu_8h.html" target="_top" xlink:title="Interrupt controller. ">
<polygon fill="#ffffff" stroke="#000000" points="305,-459.5 305,-478.5 373,-478.5 373,-459.5 305,-459.5"/>
<text text-anchor="middle" x="339" y="-466.5" font-family="Helvetica,sans-Serif" font-size="10.00" fill="#000000">l4/sys/icu.h</text>
</a>
</g>
</g>
<!-- Node1&#45;&gt;Node2 -->
<g id="edge2" class="edge">
<title>Node1&#45;&gt;Node2</title>
<path fill="none" stroke="#191970" d="M483.8419,-795.2847C455.2614,-778.5219 403,-741.2704 403,-693 403,-693 403,-693 403,-581 403,-543.2379 375.2346,-506.6312 356.2798,-486.0404"/>
<polygon fill="#191970" stroke="#191970" points="358.7231,-483.5312 349.2827,-478.7219 353.6635,-488.3686 358.7231,-483.5312"/>
</g>
<!-- Node15 -->
<g id="node16" class="node">
<title>Node15</title>
<g id="a_node16"><a xlink:href="l4_2sys_2irq_8h.html" target="_top" xlink:title="C Irq interface. ">
<polygon fill="#ffffff" stroke="#000000" points="181.5,-459.5 181.5,-478.5 248.5,-478.5 248.5,-459.5 181.5,-459.5"/>
<text text-anchor="middle" x="215" y="-466.5" font-family="Helvetica,sans-Serif" font-size="10.00" fill="#000000">l4/sys/irq.h</text>
</a>
</g>
</g>
<!-- Node1&#45;&gt;Node15 -->
<g id="edge28" class="edge">
<title>Node1&#45;&gt;Node15</title>
<path fill="none" stroke="#191970" d="M472.2141,-799.6134C423.2214,-788.8465 331,-759.7184 331,-693 331,-693 331,-693 331,-581 331,-534.0456 281.2031,-500.5403 246.8629,-483.0171"/>
<polygon fill="#191970" stroke="#191970" points="248.1616,-479.756 237.6413,-478.5006 245.0826,-486.0425 248.1616,-479.756"/>
</g>
<!-- Node17 -->
<g id="node18" class="node">
<title>Node17</title>
<g id="a_node18"><a xlink:href="capability.html" target="_top" xlink:title="L4::Cap related definitions. ">
<polygon fill="#ffffff" stroke="#000000" points="539,-683.5 539,-702.5 629,-702.5 629,-683.5 539,-683.5"/>
<text text-anchor="middle" x="584" y="-690.5" font-family="Helvetica,sans-Serif" font-size="10.00" fill="#000000">l4/sys/capability</text>
</a>
</g>
</g>
<!-- Node1&#45;&gt;Node17 -->
<g id="edge35" class="edge">
<title>Node1&#45;&gt;Node17</title>
<path fill="none" stroke="#191970" d="M521.2075,-795.4673C535.2882,-787.5391 553.8249,-774.9821 565,-759 574.5968,-745.2752 579.3823,-726.7437 581.7472,-712.8112"/>
<polygon fill="#191970" stroke="#191970" points="585.2275,-713.1965 583.1705,-702.8033 578.2973,-712.2108 585.2275,-713.1965"/>
</g>
<!-- Node25 -->
<g id="node26" class="node">
<title>Node25</title>
<g id="a_node26"><a xlink:href="ipc__iface.html" target="_top" xlink:title="Interface Definition Language. ">
<polygon fill="#ffffff" stroke="#000000" points="784.5,-571.5 784.5,-590.5 861.5,-590.5 861.5,-571.5 784.5,-571.5"/>
<text text-anchor="middle" x="823" y="-578.5" font-family="Helvetica,sans-Serif" font-size="10.00" fill="#000000">cxx/ipc_iface</text>
</a>
</g>
</g>
<!-- Node1&#45;&gt;Node25 -->
<g id="edge76" class="edge">
<title>Node1&#45;&gt;Node25</title>
<path fill="none" stroke="#191970" d="M521.1033,-795.4382C565.2168,-772.8984 676.6227,-713.3181 758,-647 776.3767,-632.024 795.1415,-612.4121 807.7546,-598.4683"/>
<polygon fill="#191970" stroke="#191970" points="810.7159,-600.4059 814.7546,-590.611 805.4892,-595.7495 810.7159,-600.4059"/>
</g>
<!-- Node26 -->
<g id="node27" class="node">
<title>Node26</title>
<g id="a_node27"><a xlink:href="ipc__types.html" target="_top" xlink:title="l4/sys/cxx/ipc_types">
<polygon fill="#ffffff" stroke="#000000" points="951,-459.5 951,-478.5 1061,-478.5 1061,-459.5 951,-459.5"/>
<text text-anchor="middle" x="1006" y="-466.5" font-family="Helvetica,sans-Serif" font-size="10.00" fill="#000000">l4/sys/cxx/ipc_types</text>
</a>
</g>
</g>
<!-- Node1&#45;&gt;Node26 -->
<g id="edge77" class="edge">
<title>Node1&#45;&gt;Node26</title>
<path fill="none" stroke="#191970" d="M531.7757,-803.1689C660.7841,-794.8467 1165,-758.1527 1165,-693 1165,-693 1165,-693 1165,-581 1165,-526.7808 1102.441,-496.5137 1055.8043,-481.4832"/>
<polygon fill="#191970" stroke="#191970" points="1056.7095,-478.0998 1046.1224,-478.5039 1054.6508,-484.7903 1056.7095,-478.0998"/>
</g>
<!-- Node29 -->
<g id="node30" class="node">
<title>Node29</title>
<g id="a_node30"><a xlink:href="rcv__endpoint.html" target="_top" xlink:title="The C++ Receive endpoint interface. ">
<polygon fill="#ffffff" stroke="#000000" points="448,-739.5 448,-758.5 556,-758.5 556,-739.5 448,-739.5"/>
<text text-anchor="middle" x="502" y="-746.5" font-family="Helvetica,sans-Serif" font-size="10.00" fill="#000000">l4/sys/rcv_endpoint</text>
</a>
</g>
</g>
<!-- Node1&#45;&gt;Node29 -->
<g id="edge71" class="edge">
<title>Node1&#45;&gt;Node29</title>
<path fill="none" stroke="#191970" d="M502,-795.2455C502,-787.9382 502,-777.6944 502,-768.7046"/>
<polygon fill="#191970" stroke="#191970" points="505.5001,-768.6426 502,-758.6427 498.5001,-768.6427 505.5001,-768.6426"/>
</g>
<!-- Node3 -->
<g id="node4" class="node">
<title>Node3</title>
<g id="a_node4"><a xlink:href="kernel__object_8h.html" target="_top" xlink:title="Kernel object system calls. ">
<polygon fill="#ffffff" stroke="#000000" points="145,-403.5 145,-422.5 263,-422.5 263,-403.5 145,-403.5"/>
<text text-anchor="middle" x="204" y="-410.5" font-family="Helvetica,sans-Serif" font-size="10.00" fill="#000000">l4/sys/kernel_object.h</text>
</a>
</g>
</g>
<!-- Node2&#45;&gt;Node3 -->
<g id="edge3" class="edge">
<title>Node2&#45;&gt;Node3</title>
<path fill="none" stroke="#191970" d="M315.7927,-459.3733C293.8301,-450.2629 260.6668,-436.5062 236.1599,-426.3404"/>
<polygon fill="#191970" stroke="#191970" points="237.4824,-423.0999 226.9045,-422.5011 234.8003,-429.5657 237.4824,-423.0999"/>
</g>
<!-- Node13 -->
<g id="node14" class="node">
<title>Node13</title>
<g id="a_node14"><a xlink:href="l4_2sys_2ipc_8h.html" target="_top" xlink:title="Common IPC interface. ">
<polygon fill="#ffffff" stroke="#000000" points="302,-280.5 302,-299.5 370,-299.5 370,-280.5 302,-280.5"/>
<text text-anchor="middle" x="336" y="-287.5" font-family="Helvetica,sans-Serif" font-size="10.00" fill="#000000">l4/sys/ipc.h</text>
</a>
</g>
</g>
<!-- Node2&#45;&gt;Node13 -->
<g id="edge27" class="edge">
<title>Node2&#45;&gt;Node13</title>
<path fill="none" stroke="#191970" d="M338.8387,-459.3762C338.3666,-431.2097 336.9807,-348.5126 336.3364,-310.0713"/>
<polygon fill="#191970" stroke="#191970" points="339.8293,-309.6113 336.1621,-299.6714 332.8303,-309.7287 339.8293,-309.6113"/>
</g>
<!-- Node4 -->
<g id="node5" class="node">
<title>Node4</title>
<g id="a_node5"><a xlink:href="l4_2sys_2types_8h.html" target="_top" xlink:title="Common L4 ABI Data Types. ">
<polygon fill="#ffffff" stroke="#000000" points="573,-168.5 573,-187.5 653,-187.5 653,-168.5 573,-168.5"/>
<text text-anchor="middle" x="613" y="-175.5" font-family="Helvetica,sans-Serif" font-size="10.00" fill="#000000">l4/sys/types.h</text>
</a>
</g>
</g>
<!-- Node3&#45;&gt;Node4 -->
<g id="edge4" class="edge">
<title>Node3&#45;&gt;Node4</title>
<path fill="none" stroke="#191970" d="M172.11,-403.4777C154.5823,-396.43 134.3495,-384.8893 124,-367 117.1006,-355.0742 117.5325,-348.1655 124,-336 166.2981,-256.4363 208.6674,-255.7413 293,-224 341.3239,-205.8117 485.4795,-190.0067 562.7554,-182.5542"/>
<polygon fill="#191970" stroke="#191970" points="563.1223,-186.0351 572.7448,-181.6014 562.4577,-179.0668 563.1223,-186.0351"/>
</g>
<!-- Node6 -->
<g id="node7" class="node">
<title>Node6</title>
<g id="a_node7"><a xlink:href="compiler_8h.html" target="_top" xlink:title="L4 compiler related defines. ">
<polygon fill="#ffffff" stroke="#000000" points="345.5,-56.5 345.5,-75.5 440.5,-75.5 440.5,-56.5 345.5,-56.5"/>
<text text-anchor="middle" x="393" y="-63.5" font-family="Helvetica,sans-Serif" font-size="10.00" fill="#000000">l4/sys/compiler.h</text>
</a>
</g>
</g>
<!-- Node3&#45;&gt;Node6 -->
<g id="edge15" class="edge">
<title>Node3&#45;&gt;Node6</title>
<path fill="none" stroke="#191970" d="M145.8148,-403.476C85.518,-389.894 0,-358.548 0,-290 0,-290 0,-290 0,-178 0,-109.1854 225.6738,-80.3495 334.9983,-70.4178"/>
<polygon fill="#191970" stroke="#191970" points="335.5508,-73.8827 345.2034,-69.5149 334.9338,-66.9099 335.5508,-73.8827"/>
</g>
<!-- Node11 -->
<g id="node12" class="node">
<title>Node11</title>
<g id="a_node12"><a xlink:href="l4_2sys_2utcb_8h.html" target="_top" xlink:title="UTCB definitions. ">
<polygon fill="#ffffff" stroke="#000000" points="388,-224.5 388,-243.5 462,-243.5 462,-224.5 388,-224.5"/>
<text text-anchor="middle" x="425" y="-231.5" font-family="Helvetica,sans-Serif" font-size="10.00" fill="#000000">l4/sys/utcb.h</text>
</a>
</g>
</g>
<!-- Node3&#45;&gt;Node11 -->
<g id="edge16" class="edge">
<title>Node3&#45;&gt;Node11</title>
<path fill="none" stroke="#191970" d="M177.399,-403.397C161.4127,-396.0839 142.4002,-384.291 133,-367 126.4193,-354.8954 125.0276,-347.2369 133,-336 147.8313,-315.0956 302.9604,-268.6367 380.8663,-246.3688"/>
<polygon fill="#191970" stroke="#191970" points="382.2134,-249.6244 390.873,-243.5202 380.2968,-242.8919 382.2134,-249.6244"/>
</g>
<!-- Node12 -->
<g id="node13" class="node">
<title>Node12</title>
<g id="a_node13"><a xlink:href="____kernel__object__impl_8h.html" target="_top" xlink:title="Low&#45;level kernel debugger functions. ">
<polygon fill="#ffffff" stroke="#000000" points="142,-336.5 142,-366.5 264,-366.5 264,-336.5 142,-336.5"/>
<text text-anchor="start" x="150" y="-354.5" font-family="Helvetica,sans-Serif" font-size="10.00" fill="#000000">l4/sys/__kernel_object</text>
<text text-anchor="middle" x="203" y="-343.5" font-family="Helvetica,sans-Serif" font-size="10.00" fill="#000000">_impl.h</text>
</a>
</g>
</g>
<!-- Node3&#45;&gt;Node12 -->
<g id="edge20" class="edge">
<title>Node3&#45;&gt;Node12</title>
<path fill="none" stroke="#191970" d="M203.8438,-403.3906C203.7272,-396.2234 203.5624,-386.0862 203.4093,-376.671"/>
<polygon fill="#191970" stroke="#191970" points="206.9068,-376.4863 203.2446,-366.5446 199.9078,-376.6002 206.9068,-376.4863"/>
</g>
<!-- Node3&#45;&gt;Node13 -->
<g id="edge26" class="edge">
<title>Node3&#45;&gt;Node13</title>
<path fill="none" stroke="#191970" d="M221.4645,-403.3326C236.0623,-394.806 257.0019,-381.5064 273,-367 292.8648,-348.9875 311.8057,-324.5034 323.6374,-308.0217"/>
<polygon fill="#191970" stroke="#191970" points="326.5448,-309.972 329.4399,-299.7804 320.8211,-305.942 326.5448,-309.972"/>
</g>
<!-- Node5 -->
<g id="node6" class="node">
<title>Node5</title>
<g id="a_node6"><a xlink:href="l4_2sys_2l4int_8h.html" target="_top" xlink:title="Fixed sized integer types, generic version. ">
<polygon fill="#ffffff" stroke="#000000" points="657,-56.5 657,-75.5 731,-75.5 731,-56.5 657,-56.5"/>
<text text-anchor="middle" x="694" y="-63.5" font-family="Helvetica,sans-Serif" font-size="10.00" fill="#000000">l4/sys/l4int.h</text>
</a>
</g>
</g>
<!-- Node4&#45;&gt;Node5 -->
<g id="edge5" class="edge">
<title>Node4&#45;&gt;Node5</title>
<path fill="none" stroke="#191970" d="M653.1041,-170.8831C675.4082,-164.6542 701.3494,-153.1307 715,-132 724.5272,-117.2522 716.3544,-97.8564 707.5734,-83.9126"/>
<polygon fill="#191970" stroke="#191970" points="710.4401,-81.9043 701.8951,-75.6405 704.6689,-85.8658 710.4401,-81.9043"/>
</g>
<!-- Node4&#45;&gt;Node6 -->
<g id="edge6" class="edge">
<title>Node4&#45;&gt;Node6</title>
<path fill="none" stroke="#191970" d="M572.7205,-169.7746C542.8127,-162.5894 501.7145,-150.3914 469,-132 445.8647,-118.9938 423.431,-98.1904 409.0092,-83.4191"/>
<polygon fill="#191970" stroke="#191970" points="411.299,-80.7484 401.8678,-75.9212 406.2302,-85.5762 411.299,-80.7484"/>
</g>
<!-- Node8 -->
<g id="node9" class="node">
<title>Node8</title>
<g id="a_node9"><a xlink:href="l4_2sys_2consts_8h.html" target="_top" xlink:title="Common constants. ">
<polygon fill="#ffffff" stroke="#000000" points="762,-112.5 762,-131.5 848,-131.5 848,-112.5 762,-112.5"/>
<text text-anchor="middle" x="805" y="-119.5" font-family="Helvetica,sans-Serif" font-size="10.00" fill="#000000">l4/sys/consts.h</text>
</a>
</g>
</g>
<!-- Node4&#45;&gt;Node8 -->
<g id="edge8" class="edge">
<title>Node4&#45;&gt;Node8</title>
<path fill="none" stroke="#191970" d="M646.006,-168.3733C678.2091,-158.9807 727.3442,-144.6496 762.4639,-134.4064"/>
<polygon fill="#191970" stroke="#191970" points="763.8047,-137.6612 772.4247,-131.5011 761.8447,-130.9412 763.8047,-137.6612"/>
</g>
<!-- Node9 -->
<g id="node10" class="node">
<title>Node9</title>
<g id="a_node10"><a xlink:href="____l4__fpage_8h_source.html" target="_top" xlink:title="l4/sys/__l4_fpage.h">
<polygon fill="#ffffff" stroke="#000000" points="478,-112.5 478,-131.5 586,-131.5 586,-112.5 478,-112.5"/>
<text text-anchor="middle" x="532" y="-119.5" font-family="Helvetica,sans-Serif" font-size="10.00" fill="#000000">l4/sys/__l4_fpage.h</text>
</a>
</g>
</g>
<!-- Node4&#45;&gt;Node9 -->
<g id="edge11" class="edge">
<title>Node4&#45;&gt;Node9</title>
<path fill="none" stroke="#191970" d="M598.8909,-168.2455C586.5791,-159.7337 568.5042,-147.2375 554.2462,-137.3801"/>
<polygon fill="#191970" stroke="#191970" points="556.1634,-134.4506 545.9474,-131.6427 552.1826,-140.2085 556.1634,-134.4506"/>
</g>
<!-- Node10 -->
<g id="node11" class="node">
<title>Node10</title>
<g id="a_node11"><a xlink:href="____timeout_8h_source.html" target="_top" xlink:title="l4/sys/__timeout.h">
<polygon fill="#ffffff" stroke="#000000" points="604.5,-112.5 604.5,-131.5 705.5,-131.5 705.5,-112.5 604.5,-112.5"/>
<text text-anchor="middle" x="655" y="-119.5" font-family="Helvetica,sans-Serif" font-size="10.00" fill="#000000">l4/sys/__timeout.h</text>
</a>
</g>
</g>
<!-- Node4&#45;&gt;Node10 -->
<g id="edge13" class="edge">
<title>Node4&#45;&gt;Node10</title>
<path fill="none" stroke="#191970" d="M620.3158,-168.2455C626.2179,-160.3761 634.6742,-149.101 641.7594,-139.6542"/>
<polygon fill="#191970" stroke="#191970" points="644.568,-141.7427 647.768,-131.6427 638.9679,-137.5427 644.568,-141.7427"/>
</g>
<!-- Node7 -->
<g id="node8" class="node">
<title>Node7</title>
<polygon fill="#ffffff" stroke="#bfbfbf" points="348.5,-.5 348.5,-19.5 437.5,-19.5 437.5,-.5 348.5,-.5"/>
<text text-anchor="middle" x="393" y="-7.5" font-family="Helvetica,sans-Serif" font-size="10.00" fill="#000000">l4/sys/linkage.h</text>
</g>
<!-- Node6&#45;&gt;Node7 -->
<g id="edge7" class="edge">
<title>Node6&#45;&gt;Node7</title>
<path fill="none" stroke="#191970" d="M393,-56.2455C393,-48.9382 393,-38.6944 393,-29.7046"/>
<polygon fill="#191970" stroke="#191970" points="396.5001,-29.6426 393,-19.6427 389.5001,-29.6427 396.5001,-29.6426"/>
</g>
<!-- Node8&#45;&gt;Node5 -->
<g id="edge10" class="edge">
<title>Node8&#45;&gt;Node5</title>
<path fill="none" stroke="#191970" d="M785.9184,-112.3733C768.2598,-103.4644 741.7947,-90.1127 721.7902,-80.0203"/>
<polygon fill="#191970" stroke="#191970" points="723.3372,-76.8806 712.8326,-75.5011 720.1842,-83.1303 723.3372,-76.8806"/>
</g>
<!-- Node8&#45;&gt;Node6 -->
<g id="edge9" class="edge">
<title>Node8&#45;&gt;Node6</title>
<path fill="none" stroke="#191970" d="M761.6875,-116.1129C687.116,-105.9769 534.4541,-85.2268 450.8656,-73.8652"/>
<polygon fill="#191970" stroke="#191970" points="451.1579,-70.3729 440.7776,-72.494 450.215,-77.3091 451.1579,-70.3729"/>
</g>
<!-- Node9&#45;&gt;Node6 -->
<g id="edge12" class="edge">
<title>Node9&#45;&gt;Node6</title>
<path fill="none" stroke="#191970" d="M508.105,-112.3733C485.4918,-103.2629 451.3458,-89.5062 426.1127,-79.3404"/>
<polygon fill="#191970" stroke="#191970" points="427.1666,-75.9917 416.5831,-75.5011 424.5507,-82.4845 427.1666,-75.9917"/>
</g>
<!-- Node10&#45;&gt;Node5 -->
<g id="edge14" class="edge">
<title>Node10&#45;&gt;Node5</title>
<path fill="none" stroke="#191970" d="M661.7933,-112.2455C667.2178,-104.4564 674.9661,-93.3308 681.5033,-83.9439"/>
<polygon fill="#191970" stroke="#191970" points="684.4417,-85.849 687.2846,-75.6427 678.6975,-81.8485 684.4417,-85.849"/>
</g>
<!-- Node11&#45;&gt;Node4 -->
<g id="edge17" class="edge">
<title>Node11&#45;&gt;Node4</title>
<path fill="none" stroke="#191970" d="M457.3184,-224.3733C488.8506,-214.9807 536.9621,-200.6496 571.3501,-190.4064"/>
<polygon fill="#191970" stroke="#191970" points="572.5187,-193.7103 581.1034,-187.5011 570.5203,-187.0016 572.5187,-193.7103"/>
</g>
<!-- Node11&#45;&gt;Node5 -->
<g id="edge19" class="edge">
<title>Node11&#45;&gt;Node5</title>
<path fill="none" stroke="#191970" d="M425.4319,-224.3228C427.0194,-201.0953 434.4317,-141.9031 469,-112 495.0992,-89.4231 588.7815,-76.3459 646.7143,-70.2442"/>
<polygon fill="#191970" stroke="#191970" points="647.1479,-73.7182 656.7404,-69.22 646.4365,-66.7544 647.1479,-73.7182"/>
</g>
<!-- Node11&#45;&gt;Node6 -->
<g id="edge18" class="edge">
<title>Node11&#45;&gt;Node6</title>
<path fill="none" stroke="#191970" d="M423.1879,-224.4862C418.1075,-197.8144 403.6499,-121.9117 396.7514,-85.695"/>
<polygon fill="#191970" stroke="#191970" points="400.1814,-84.9963 394.872,-75.8279 393.305,-86.3062 400.1814,-84.9963"/>
</g>
<!-- Node12&#45;&gt;Node13 -->
<g id="edge21" class="edge">
<title>Node12&#45;&gt;Node13</title>
<path fill="none" stroke="#191970" d="M235.5355,-336.4554C257.1429,-326.464 285.2898,-313.4487 306.292,-303.7372"/>
<polygon fill="#191970" stroke="#191970" points="307.7821,-306.9043 315.3897,-299.5303 304.8441,-300.5506 307.7821,-306.9043"/>
</g>
<!-- Node13&#45;&gt;Node4 -->
<g id="edge22" class="edge">
<title>Node13&#45;&gt;Node4</title>
<path fill="none" stroke="#191970" d="M367.1742,-280.4232C394.7604,-271.7021 435.9599,-258.0718 471,-244 490.5589,-236.1453 494.8872,-232.8852 514,-224 537.3353,-213.1519 563.7674,-200.8706 583.4465,-191.7283"/>
<polygon fill="#191970" stroke="#191970" points="584.9269,-194.8999 592.5215,-187.5125 581.9777,-188.5514 584.9269,-194.8999"/>
</g>
<!-- Node13&#45;&gt;Node11 -->
<g id="edge23" class="edge">
<title>Node13&#45;&gt;Node11</title>
<path fill="none" stroke="#191970" d="M351.5026,-280.2455C365.158,-271.6534 385.2657,-259.0014 400.9989,-249.1018"/>
<polygon fill="#191970" stroke="#191970" points="403.0751,-251.9307 409.675,-243.6427 399.3471,-246.006 403.0751,-251.9307"/>
</g>
<!-- Node14 -->
<g id="node15" class="node">
<title>Node14</title>
<g id="a_node15"><a xlink:href="err_8h.html" target="_top" xlink:title="Error codes. ">
<polygon fill="#ffffff" stroke="#000000" points="302,-224.5 302,-243.5 370,-243.5 370,-224.5 302,-224.5"/>
<text text-anchor="middle" x="336" y="-231.5" font-family="Helvetica,sans-Serif" font-size="10.00" fill="#000000">l4/sys/err.h</text>
</a>
</g>
</g>
<!-- Node13&#45;&gt;Node14 -->
<g id="edge24" class="edge">
<title>Node13&#45;&gt;Node14</title>
<path fill="none" stroke="#191970" d="M336,-280.2455C336,-272.9382 336,-262.6944 336,-253.7046"/>
<polygon fill="#191970" stroke="#191970" points="339.5001,-253.6426 336,-243.6427 332.5001,-253.6427 339.5001,-253.6426"/>
</g>
<!-- Node14&#45;&gt;Node6 -->
<g id="edge25" class="edge">
<title>Node14&#45;&gt;Node6</title>
<path fill="none" stroke="#191970" d="M339.2279,-224.4862C348.2773,-197.8144 374.0299,-121.9117 386.3178,-85.695"/>
<polygon fill="#191970" stroke="#191970" points="389.7669,-86.4222 389.6655,-75.8279 383.1381,-84.1731 389.7669,-86.4222"/>
</g>
<!-- Node15&#45;&gt;Node3 -->
<g id="edge29" class="edge">
<title>Node15&#45;&gt;Node3</title>
<path fill="none" stroke="#191970" d="M213.0839,-459.2455C211.6486,-451.9382 209.6364,-441.6944 207.8705,-432.7046"/>
<polygon fill="#191970" stroke="#191970" points="211.256,-431.7805 205.8941,-422.6427 204.3873,-433.1298 211.256,-431.7805"/>
</g>
<!-- Node15&#45;&gt;Node13 -->
<g id="edge30" class="edge">
<title>Node15&#45;&gt;Node13</title>
<path fill="none" stroke="#191970" d="M184.6424,-459.4977C167.2734,-452.3705 146.8408,-440.7409 136,-423 115.8264,-389.9861 108.8538,-366.2299 133,-336 152.4518,-311.6472 237.8603,-299.2276 291.5065,-293.7165"/>
<polygon fill="#191970" stroke="#191970" points="292.1743,-297.1678 301.7833,-292.705 291.4885,-290.2015 292.1743,-297.1678"/>
</g>
<!-- Node16 -->
<g id="node17" class="node">
<title>Node16</title>
<g id="a_node17"><a xlink:href="rcv__endpoint_8h.html" target="_top" xlink:title="Receive endpoint C interface. ">
<polygon fill="#ffffff" stroke="#000000" points="358,-342 358,-361 474,-361 474,-342 358,-342"/>
<text text-anchor="middle" x="416" y="-349" font-family="Helvetica,sans-Serif" font-size="10.00" fill="#000000">l4/sys/rcv_endpoint.h</text>
</a>
</g>
</g>
<!-- Node15&#45;&gt;Node16 -->
<g id="edge31" class="edge">
<title>Node15&#45;&gt;Node16</title>
<path fill="none" stroke="#191970" d="M231.4487,-459.3845C266.5769,-438.8494 349.1176,-390.5979 390.8706,-366.1901"/>
<polygon fill="#191970" stroke="#191970" points="392.7392,-369.152 399.6059,-361.0836 389.2064,-363.1088 392.7392,-369.152"/>
</g>
<!-- Node16&#45;&gt;Node4 -->
<g id="edge33" class="edge">
<title>Node16&#45;&gt;Node4</title>
<path fill="none" stroke="#191970" d="M426.8722,-341.9248C459.0194,-313.6124 553.8969,-230.0528 594.3672,-194.4101"/>
<polygon fill="#191970" stroke="#191970" points="596.7273,-196.9954 601.9186,-187.7595 592.1008,-191.7423 596.7273,-196.9954"/>
</g>
<!-- Node16&#45;&gt;Node11 -->
<g id="edge32" class="edge">
<title>Node16&#45;&gt;Node11</title>
<path fill="none" stroke="#191970" d="M416.7365,-341.8845C418.2066,-322.6913 421.5313,-279.286 423.486,-253.7663"/>
<polygon fill="#191970" stroke="#191970" points="426.9793,-253.9865 424.2533,-243.7484 419.9997,-253.4518 426.9793,-253.9865"/>
</g>
<!-- Node16&#45;&gt;Node13 -->
<g id="edge34" class="edge">
<title>Node16&#45;&gt;Node13</title>
<path fill="none" stroke="#191970" d="M403.5,-341.8906C390.9364,-332.2324 371.3577,-317.1812 356.5151,-305.771"/>
<polygon fill="#191970" stroke="#191970" points="358.4735,-302.8618 348.4122,-299.5419 354.2072,-308.4115 358.4735,-302.8618"/>
</g>
<!-- Node17&#45;&gt;Node4 -->
<g id="edge37" class="edge">
<title>Node17&#45;&gt;Node4</title>
<path fill="none" stroke="#191970" d="M584.0527,-683.2293C584.3748,-656.1737 586.4994,-578.109 600,-515 617.3047,-434.1086 660.4141,-418.1842 651,-336 645.1921,-285.2974 628.619,-227.3604 619.394,-197.728"/>
<polygon fill="#191970" stroke="#191970" points="622.6147,-196.3055 616.2559,-187.8311 615.9421,-198.4212 622.6147,-196.3055"/>
</g>
<!-- Node17&#45;&gt;Node8 -->
<g id="edge36" class="edge">
<title>Node17&#45;&gt;Node8</title>
<path fill="none" stroke="#191970" d="M629.3619,-688.444C759.8664,-674.7316 1127,-631.6543 1127,-581 1127,-581 1127,-581 1127,-234 1127,-177.7352 949.3994,-143.2683 857.9945,-129.2553"/>
<polygon fill="#191970" stroke="#191970" points="858.5017,-125.7923 848.0922,-127.7655 857.4602,-132.7144 858.5017,-125.7923"/>
</g>
<!-- Node18 -->
<g id="node19" class="node">
<title>Node18</title>
<g id="a_node19"><a xlink:href="kobject_source.html" target="_top" xlink:title="l4/sys/kobject">
<polygon fill="#ffffff" stroke="#000000" points="609,-515.5 609,-534.5 689,-534.5 689,-515.5 609,-515.5"/>
<text text-anchor="middle" x="649" y="-522.5" font-family="Helvetica,sans-Serif" font-size="10.00" fill="#000000">l4/sys/kobject</text>
</a>
</g>
</g>
<!-- Node17&#45;&gt;Node18 -->
<g id="edge38" class="edge">
<title>Node17&#45;&gt;Node18</title>
<path fill="none" stroke="#191970" d="M587.6809,-683.4862C598.0449,-656.6994 627.621,-580.2565 641.5602,-544.2289"/>
<polygon fill="#191970" stroke="#191970" points="644.8533,-545.4171 645.1975,-534.8279 638.3249,-542.8912 644.8533,-545.4171"/>
</g>
<!-- Node23 -->
<g id="node24" class="node">
<title>Node23</title>
<g id="a_node24"><a xlink:href="l4_2sys_2task_8h.html" target="_top" xlink:title="Common task related definitions. ">
<polygon fill="#ffffff" stroke="#000000" points="568,-342 568,-361 642,-361 642,-342 568,-342"/>
<text text-anchor="middle" x="605" y="-349" font-family="Helvetica,sans-Serif" font-size="10.00" fill="#000000">l4/sys/task.h</text>
</a>
</g>
</g>
<!-- Node17&#45;&gt;Node23 -->
<g id="edge54" class="edge">
<title>Node17&#45;&gt;Node23</title>
<path fill="none" stroke="#191970" d="M577.773,-683.2504C566.3034,-664.3274 543,-620.9633 543,-581 543,-581 543,-581 543,-469 543,-429.7013 570.464,-390.665 588.8342,-368.9499"/>
<polygon fill="#191970" stroke="#191970" points="591.6189,-371.083 595.5835,-361.2579 586.3572,-366.4661 591.6189,-371.083"/>
</g>
<!-- Node24 -->
<g id="node25" class="node">
<title>Node24</title>
<g id="a_node25"><a xlink:href="sys_2meta.html" target="_top" xlink:title="Meta interface for getting dynamic type information about objects behind capabilities. ">
<polygon fill="#ffffff" stroke="#000000" points="652,-627.5 652,-646.5 722,-646.5 722,-627.5 652,-627.5"/>
<text text-anchor="middle" x="687" y="-634.5" font-family="Helvetica,sans-Serif" font-size="10.00" fill="#000000">l4/sys/meta</text>
</a>
</g>
</g>
<!-- Node17&#45;&gt;Node24 -->
<g id="edge55" class="edge">
<title>Node17&#45;&gt;Node24</title>
<path fill="none" stroke="#191970" d="M601.9412,-683.2455C618.04,-674.4928 641.8879,-661.527 660.2391,-651.5496"/>
<polygon fill="#191970" stroke="#191970" points="662.1507,-654.4942 669.2644,-646.6427 658.8071,-648.3444 662.1507,-654.4942"/>
</g>
<!-- Node18&#45;&gt;Node3 -->
<g id="edge39" class="edge">
<title>Node18&#45;&gt;Node3</title>
<path fill="none" stroke="#191970" d="M608.8948,-522.2459C528.8788,-516.3493 352.2651,-501.2087 296,-479 267.0878,-467.5879 238.7922,-445.0932 221.3821,-429.5608"/>
<polygon fill="#191970" stroke="#191970" points="223.4929,-426.7479 213.7548,-422.5742 218.7647,-431.9097 223.4929,-426.7479"/>
</g>
<!-- Node18&#45;&gt;Node4 -->
<g id="edge40" class="edge">
<title>Node18&#45;&gt;Node4</title>
<path fill="none" stroke="#191970" d="M651.9739,-515.1435C659.2417,-490.4775 677.7651,-423.9747 684,-367 690.9138,-303.8216 714.356,-279.8375 684,-224 676.3623,-209.9511 662.3791,-199.5317 648.8292,-192.1958"/>
<polygon fill="#191970" stroke="#191970" points="650.113,-188.9253 639.601,-187.603 646.9941,-195.1921 650.113,-188.9253"/>
</g>
<!-- Node19 -->
<g id="node20" class="node">
<title>Node19</title>
<g id="a_node20"><a xlink:href="____typeinfo_8h.html" target="_top" xlink:title="Type information handling. ">
<polygon fill="#ffffff" stroke="#000000" points="783,-459.5 783,-478.5 857,-478.5 857,-459.5 783,-459.5"/>
<text text-anchor="middle" x="820" y="-466.5" font-family="Helvetica,sans-Serif" font-size="10.00" fill="#000000">__typeinfo.h</text>
</a>
</g>
</g>
<!-- Node18&#45;&gt;Node19 -->
<g id="edge41" class="edge">
<title>Node18&#45;&gt;Node19</title>
<path fill="none" stroke="#191970" d="M678.3959,-515.3733C706.8307,-506.0613 750.0877,-491.8953 781.3081,-481.671"/>
<polygon fill="#191970" stroke="#191970" points="782.5736,-484.9396 790.9876,-478.5011 780.395,-478.2872 782.5736,-484.9396"/>
</g>
<!-- Node20 -->
<g id="node21" class="node">
<title>Node20</title>
<g id="a_node21"><a xlink:href="types.html" target="_top" xlink:title="cxx/types">
<polygon fill="#ffffff" stroke="#000000" points="915.5,-342 915.5,-361 976.5,-361 976.5,-342 915.5,-342"/>
<text text-anchor="middle" x="946" y="-349" font-family="Helvetica,sans-Serif" font-size="10.00" fill="#000000">cxx/types</text>
</a>
</g>
</g>
<!-- Node19&#45;&gt;Node20 -->
<g id="edge42" class="edge">
<title>Node19&#45;&gt;Node20</title>
<path fill="none" stroke="#191970" d="M837.512,-459.3847C852.1388,-450.8898 873.0943,-437.6077 889,-423 906.6224,-406.8157 923.252,-384.9049 933.9495,-369.6203"/>
<polygon fill="#191970" stroke="#191970" points="937.0413,-371.2997 939.7995,-361.0702 931.2641,-367.3469 937.0413,-371.2997"/>
</g>
<!-- Node21 -->
<g id="node22" class="node">
<title>Node21</title>
<g id="a_node22"><a xlink:href="ipc__basics_source.html" target="_top" xlink:title="cxx/ipc_basics">
<polygon fill="#ffffff" stroke="#000000" points="690,-403.5 690,-422.5 774,-422.5 774,-403.5 690,-403.5"/>
<text text-anchor="middle" x="732" y="-410.5" font-family="Helvetica,sans-Serif" font-size="10.00" fill="#000000">cxx/ipc_basics</text>
</a>
</g>
</g>
<!-- Node19&#45;&gt;Node21 -->
<g id="edge43" class="edge">
<title>Node19&#45;&gt;Node21</title>
<path fill="none" stroke="#191970" d="M804.6716,-459.2455C791.1697,-450.6534 771.2878,-438.0014 755.7314,-428.1018"/>
<polygon fill="#191970" stroke="#191970" points="757.4685,-425.0587 747.1528,-422.6427 753.7103,-430.9643 757.4685,-425.0587"/>
</g>
<!-- Node22 -->
<g id="node23" class="node">
<title>Node22</title>
<g id="a_node23"><a xlink:href="capability_8h_source.html" target="_top" xlink:title="cxx/capability.h">
<polygon fill="#ffffff" stroke="#000000" points="792.5,-403.5 792.5,-422.5 879.5,-422.5 879.5,-403.5 792.5,-403.5"/>
<text text-anchor="middle" x="836" y="-410.5" font-family="Helvetica,sans-Serif" font-size="10.00" fill="#000000">cxx/capability.h</text>
</a>
</g>
</g>
<!-- Node19&#45;&gt;Node22 -->
<g id="edge47" class="edge">
<title>Node19&#45;&gt;Node22</title>
<path fill="none" stroke="#191970" d="M822.787,-459.2455C824.8977,-451.8579 827.866,-441.4689 830.4547,-432.4087"/>
<polygon fill="#191970" stroke="#191970" points="833.863,-433.2195 833.245,-422.6427 827.1323,-431.2964 833.863,-433.2195"/>
</g>
<!-- Node21&#45;&gt;Node11 -->
<g id="edge45" class="edge">
<title>Node21&#45;&gt;Node11</title>
<path fill="none" stroke="#191970" d="M723.86,-403.3951C710.1353,-387.6632 680.9445,-356.1425 651,-336 590.2702,-295.1495 510.5189,-263.5686 463.8009,-246.9637"/>
<polygon fill="#191970" stroke="#191970" points="464.666,-243.5582 454.0711,-243.5527 462.3501,-250.164 464.666,-243.5582"/>
</g>
<!-- Node21&#45;&gt;Node14 -->
<g id="edge46" class="edge">
<title>Node21&#45;&gt;Node14</title>
<path fill="none" stroke="#191970" d="M689.6767,-405.1827C653.9701,-397.7848 601.9588,-385.1035 559,-367 480.5475,-333.9389 396.4814,-277.2732 357.7821,-249.8241"/>
<polygon fill="#191970" stroke="#191970" points="359.5458,-246.7826 349.3756,-243.813 355.4742,-252.4766 359.5458,-246.7826"/>
</g>
<!-- Node21&#45;&gt;Node20 -->
<g id="edge44" class="edge">
<title>Node21&#45;&gt;Node20</title>
<path fill="none" stroke="#191970" d="M765.4375,-403.3906C803.2586,-392.5215 864.8459,-374.8223 905.3963,-363.1688"/>
<polygon fill="#191970" stroke="#191970" points="906.5809,-366.4701 915.2251,-360.3442 904.6474,-359.7424 906.5809,-366.4701"/>
</g>
<!-- Node22&#45;&gt;Node4 -->
<g id="edge49" class="edge">
<title>Node22&#45;&gt;Node4</title>
<path fill="none" stroke="#191970" d="M832.6538,-403.3167C821.647,-372.7897 783.7006,-277.4311 722,-224 704.3735,-208.736 680.9458,-197.9639 660.3279,-190.7014"/>
<polygon fill="#191970" stroke="#191970" points="661.3715,-187.36 650.7777,-187.5111 659.1535,-193.9993 661.3715,-187.36"/>
</g>
<!-- Node22&#45;&gt;Node8 -->
<g id="edge48" class="edge">
<title>Node22&#45;&gt;Node8</title>
<path fill="none" stroke="#191970" d="M835.6078,-403.4328C834.7946,-382.7437 833,-332.2938 833,-290 833,-290 833,-290 833,-234 833,-200.5848 821.1246,-163.1911 812.8415,-141.1729"/>
<polygon fill="#191970" stroke="#191970" points="816.0326,-139.7229 809.1315,-131.6839 809.5132,-142.2719 816.0326,-139.7229"/>
</g>
<!-- Node22&#45;&gt;Node23 -->
<g id="edge50" class="edge">
<title>Node22&#45;&gt;Node23</title>
<path fill="none" stroke="#191970" d="M800.1597,-403.4581C759.9515,-392.7533 694.6309,-375.3628 650.7631,-363.6837"/>
<polygon fill="#191970" stroke="#191970" points="651.4882,-360.2549 640.9244,-361.0643 649.6873,-367.0193 651.4882,-360.2549"/>
</g>
<!-- Node23&#45;&gt;Node4 -->
<g id="edge51" class="edge">
<title>Node23&#45;&gt;Node4</title>
<path fill="none" stroke="#191970" d="M605.6256,-341.6298C606.2707,-331.2652 607.281,-314.4911 608,-300 609.7865,-263.993 611.406,-221.985 612.2919,-197.8399"/>
<polygon fill="#191970" stroke="#191970" points="615.791,-197.9274 612.6554,-187.8072 608.7956,-197.6739 615.791,-197.9274"/>
</g>
<!-- Node23&#45;&gt;Node11 -->
<g id="edge52" class="edge">
<title>Node23&#45;&gt;Node11</title>
<path fill="none" stroke="#191970" d="M590.2698,-341.8845C559.0761,-321.5219 486.134,-273.9069 448.4542,-249.3104"/>
<polygon fill="#191970" stroke="#191970" points="449.9682,-246.119 439.6812,-243.5836 446.1419,-251.9807 449.9682,-246.119"/>
</g>
<!-- Node23&#45;&gt;Node13 -->
<g id="edge53" class="edge">
<title>Node23&#45;&gt;Node13</title>
<path fill="none" stroke="#191970" d="M567.8791,-343.0133C518.8304,-331.7995 432.5425,-312.072 380.1884,-300.1026"/>
<polygon fill="#191970" stroke="#191970" points="380.7197,-296.6338 370.1911,-297.8169 379.1595,-303.4577 380.7197,-296.6338"/>
</g>
<!-- Node24&#45;&gt;Node18 -->
<g id="edge56" class="edge">
<title>Node24&#45;&gt;Node18</title>
<path fill="none" stroke="#191970" d="M683.7601,-627.4509C677.5063,-609.0186 663.6658,-568.2254 655.461,-544.043"/>
<polygon fill="#191970" stroke="#191970" points="658.7591,-542.8701 652.2317,-534.5249 652.1303,-545.1192 658.7591,-542.8701"/>
</g>
<!-- Node24&#45;&gt;Node25 -->
<g id="edge57" class="edge">
<title>Node24&#45;&gt;Node25</title>
<path fill="none" stroke="#191970" d="M710.3792,-627.3733C732.5045,-618.2629 765.9134,-604.5062 790.6019,-594.3404"/>
<polygon fill="#191970" stroke="#191970" points="792.0117,-597.5451 799.9258,-590.5011 789.3464,-591.0723 792.0117,-597.5451"/>
</g>
<!-- Node27 -->
<g id="node28" class="node">
<title>Node27</title>
<g id="a_node28"><a xlink:href="ipc__string_source.html" target="_top" xlink:title="cxx/ipc_string">
<polygon fill="#ffffff" stroke="#000000" points="685.5,-571.5 685.5,-590.5 766.5,-590.5 766.5,-571.5 685.5,-571.5"/>
<text text-anchor="middle" x="726" y="-578.5" font-family="Helvetica,sans-Serif" font-size="10.00" fill="#000000">cxx/ipc_string</text>
</a>
</g>
</g>
<!-- Node24&#45;&gt;Node27 -->
<g id="edge64" class="edge">
<title>Node24&#45;&gt;Node27</title>
<path fill="none" stroke="#191970" d="M693.7933,-627.2455C699.2178,-619.4564 706.9661,-608.3308 713.5033,-598.9439"/>
<polygon fill="#191970" stroke="#191970" points="716.4417,-600.849 719.2846,-590.6427 710.6975,-596.8485 716.4417,-600.849"/>
</g>
<!-- Node25&#45;&gt;Node19 -->
<g id="edge63" class="edge">
<title>Node25&#45;&gt;Node19</title>
<path fill="none" stroke="#191970" d="M822.7442,-571.4509C822.2549,-553.184 821.1774,-512.9553 820.5276,-488.6976"/>
<polygon fill="#191970" stroke="#191970" points="824.0217,-488.4276 820.2551,-478.5249 817.0242,-488.6151 824.0217,-488.4276"/>
</g>
<!-- Node25&#45;&gt;Node21 -->
<g id="edge58" class="edge">
<title>Node25&#45;&gt;Node21</title>
<path fill="none" stroke="#191970" d="M817.8467,-571.4862C803.2749,-544.5845 761.5747,-467.5994 742.1656,-431.7673"/>
<polygon fill="#191970" stroke="#191970" points="745.1638,-429.9538 737.3234,-422.8279 739.0088,-433.2878 745.1638,-429.9538"/>
</g>
<!-- Node25&#45;&gt;Node26 -->
<g id="edge59" class="edge">
<title>Node25&#45;&gt;Node26</title>
<path fill="none" stroke="#191970" d="M860.819,-571.4439C885.8007,-564.0111 918.5089,-552.0664 944,-535 963.473,-521.9627 981.2895,-501.7311 992.7763,-487.1035"/>
<polygon fill="#191970" stroke="#191970" points="995.7984,-488.9118 999.0688,-478.8344 990.2278,-484.6728 995.7984,-488.9118"/>
</g>
<!-- Node26&#45;&gt;Node20 -->
<g id="edge61" class="edge">
<title>Node26&#45;&gt;Node20</title>
<path fill="none" stroke="#191970" d="M1001.0899,-459.3845C991.1573,-439.9331 968.5262,-395.6138 955.5725,-370.2462"/>
<polygon fill="#191970" stroke="#191970" points="958.6428,-368.5627 950.9779,-361.2484 952.4086,-371.7462 958.6428,-368.5627"/>
</g>
<!-- Node26&#45;&gt;Node21 -->
<g id="edge62" class="edge">
<title>Node26&#45;&gt;Node21</title>
<path fill="none" stroke="#191970" d="M959.209,-459.4369C910.5906,-449.5003 834.6867,-433.9871 784.1653,-423.6615"/>
<polygon fill="#191970" stroke="#191970" points="784.6005,-420.1782 774.1021,-421.6048 783.1987,-427.0364 784.6005,-420.1782"/>
</g>
<!-- Node26&#45;&gt;Node22 -->
<g id="edge60" class="edge">
<title>Node26&#45;&gt;Node22</title>
<path fill="none" stroke="#191970" d="M976.776,-459.3733C948.5075,-450.0613 905.5035,-435.8953 874.4656,-425.671"/>
<polygon fill="#191970" stroke="#191970" points="875.4357,-422.3056 864.8427,-422.5011 873.2456,-428.9542 875.4357,-422.3056"/>
</g>
<!-- Node27&#45;&gt;Node20 -->
<g id="edge65" class="edge">
<title>Node27&#45;&gt;Node20</title>
<path fill="none" stroke="#191970" d="M766.5191,-572.6791C827.211,-560.1825 935.559,-537.7327 944,-535 1002.3026,-516.1251 1036.6067,-530.3843 1070,-479 1100.7096,-431.7452 1024.5993,-387.0622 978.3755,-365.304"/>
<polygon fill="#191970" stroke="#191970" points="979.5639,-361.9987 969.0147,-361.0163 976.6488,-368.3629 979.5639,-361.9987"/>
</g>
<!-- Node27&#45;&gt;Node21 -->
<g id="edge66" class="edge">
<title>Node27&#45;&gt;Node21</title>
<path fill="none" stroke="#191970" d="M726.3398,-571.4862C727.2882,-544.9293 729.9798,-469.5651 731.2798,-433.1655"/>
<polygon fill="#191970" stroke="#191970" points="734.7898,-432.9465 731.649,-422.8279 727.7942,-432.6966 734.7898,-432.9465"/>
</g>
<!-- Node28 -->
<g id="node29" class="node">
<title>Node28</title>
<g id="a_node29"><a xlink:href="ipc__array_source.html" target="_top" xlink:title="ipc_array">
<polygon fill="#ffffff" stroke="#000000" points="873.5,-515.5 873.5,-534.5 934.5,-534.5 934.5,-515.5 873.5,-515.5"/>
<text text-anchor="middle" x="904" y="-522.5" font-family="Helvetica,sans-Serif" font-size="10.00" fill="#000000">ipc_array</text>
</a>
</g>
</g>
<!-- Node27&#45;&gt;Node28 -->
<g id="edge67" class="edge">
<title>Node27&#45;&gt;Node28</title>
<path fill="none" stroke="#191970" d="M756.5993,-571.3733C786.3261,-562.021 831.6159,-547.7725 864.1456,-537.5385"/>
<polygon fill="#191970" stroke="#191970" points="865.3113,-540.8409 873.8,-534.5011 863.2105,-534.1636 865.3113,-540.8409"/>
</g>
<!-- Node28&#45;&gt;Node20 -->
<g id="edge68" class="edge">
<title>Node28&#45;&gt;Node20</title>
<path fill="none" stroke="#191970" d="M906.3179,-515.4248C912.957,-487.999 932.1456,-408.732 941.1836,-371.3964"/>
<polygon fill="#191970" stroke="#191970" points="944.6863,-371.8023 943.6375,-361.2595 937.8828,-370.1553 944.6863,-371.8023"/>
</g>
<!-- Node28&#45;&gt;Node21 -->
<g id="edge69" class="edge">
<title>Node28&#45;&gt;Node21</title>
<path fill="none" stroke="#191970" d="M900.9641,-515.4814C895.94,-501.2089 884.5662,-474.3088 866,-459 852.3705,-447.7617 811.8489,-434.6528 778.9042,-425.3106"/>
<polygon fill="#191970" stroke="#191970" points="779.534,-421.8528 768.9614,-422.5385 777.654,-428.5956 779.534,-421.8528"/>
</g>
<!-- Node28&#45;&gt;Node26 -->
<g id="edge70" class="edge">
<title>Node28&#45;&gt;Node26</title>
<path fill="none" stroke="#191970" d="M921.767,-515.2455C937.7095,-506.4928 961.3259,-493.527 979.4989,-483.5496"/>
<polygon fill="#191970" stroke="#191970" points="981.3552,-486.5233 988.4366,-478.6427 977.9863,-480.3873 981.3552,-486.5233"/>
</g>
<!-- Node29&#45;&gt;Node4 -->
<g id="edge73" class="edge">
<title>Node29&#45;&gt;Node4</title>
<path fill="none" stroke="#191970" d="M502,-739.4116C502,-720.0538 502,-674.9167 502,-637 502,-637 502,-637 502,-413 502,-366.663 573.4503,-243.4103 601.7008,-196.4889"/>
<polygon fill="#191970" stroke="#191970" points="604.8433,-198.0564 607.0322,-187.6901 598.8566,-194.4288 604.8433,-198.0564"/>
</g>
<!-- Node29&#45;&gt;Node16 -->
<g id="edge72" class="edge">
<title>Node29&#45;&gt;Node16</title>
<path fill="none" stroke="#191970" d="M492.9375,-739.3829C476.625,-721.0212 444,-679.0423 444,-637 444,-637 444,-637 444,-469 444,-433.5173 431.7681,-393.6087 423.4736,-370.6256"/>
<polygon fill="#191970" stroke="#191970" points="426.6779,-369.202 419.8933,-361.0644 420.1224,-371.6568 426.6779,-369.202"/>
</g>
<!-- Node29&#45;&gt;Node17 -->
<g id="edge74" class="edge">
<title>Node29&#45;&gt;Node17</title>
<path fill="none" stroke="#191970" d="M516.2833,-739.2455C528.747,-730.7337 547.0451,-718.2375 561.4792,-708.3801"/>
<polygon fill="#191970" stroke="#191970" points="563.5962,-711.1726 569.8804,-702.6427 559.6485,-705.392 563.5962,-711.1726"/>
</g>
<!-- Node29&#45;&gt;Node25 -->
<g id="edge75" class="edge">
<title>Node29&#45;&gt;Node25</title>
<path fill="none" stroke="#191970" d="M536.8913,-739.4644C564.8495,-731.2899 604.7581,-718.4098 638,-703 681.7737,-682.708 690.699,-673.528 731,-647 755.9753,-630.5601 783.7514,-610.3555 802.1825,-596.6641"/>
<polygon fill="#191970" stroke="#191970" points="804.506,-599.2974 810.4266,-590.5111 800.3191,-593.6875 804.506,-599.2974"/>
</g>
<!-- Node30&#45;&gt;Node15 -->
<g id="edge79" class="edge">
<title>Node30&#45;&gt;Node15</title>
<path fill="none" stroke="#191970" d="M336.9261,-795.3935C293.1605,-781.0216 224,-749.3894 224,-693 224,-693 224,-693 224,-581 224,-548.6075 220.2133,-511.1141 217.5523,-488.7662"/>
<polygon fill="#191970" stroke="#191970" points="220.9919,-488.0616 216.2895,-478.5676 214.045,-488.9219 220.9919,-488.0616"/>
</g>
</g>
</svg>
