<?xml version="1.0" encoding="UTF-8" standalone="no"?>
<!DOCTYPE svg PUBLIC "-//W3C//DTD SVG 1.1//EN"
 "http://www.w3.org/Graphics/SVG/1.1/DTD/svg11.dtd">
<!-- Generated by graphviz version 2.40.1 (20161225.0304)
 -->
<!-- Title: l4/shmc/shmc.h Pages: 1 -->
<svg width="495pt" height="252pt"
 viewBox="0.00 0.00 494.88 252.00" xmlns="http://www.w3.org/2000/svg" xmlns:xlink="http://www.w3.org/1999/xlink">
<g id="graph0" class="graph" transform="scale(1 1) rotate(0) translate(4 248)">
<title>l4/shmc/shmc.h</title>
<polygon fill="#ffffff" stroke="transparent" points="-4,4 -4,-248 490.8848,-248 490.8848,4 -4,4"/>
<!-- Node0 -->
<g id="node1" class="node">
<title>Node0</title>
<polygon fill="#bfbfbf" stroke="#000000" points="207.8848,-224.5 207.8848,-243.5 296.8848,-243.5 296.8848,-224.5 207.8848,-224.5"/>
<text text-anchor="middle" x="252.3848" y="-231.5" font-family="Helvetica,sans-Serif" font-size="10.00" fill="#000000">l4/shmc/shmc.h</text>
</g>
<!-- Node1 -->
<g id="node2" class="node">
<title>Node1</title>
<polygon fill="#ffffff" stroke="#bfbfbf" points="60.8848,-.5 60.8848,-19.5 149.8848,-19.5 149.8848,-.5 60.8848,-.5"/>
<text text-anchor="middle" x="105.3848" y="-7.5" font-family="Helvetica,sans-Serif" font-size="10.00" fill="#000000">l4/sys/linkage.h</text>
</g>
<!-- Node0&#45;&gt;Node1 -->
<g id="edge1" class="edge">
<title>Node0&#45;&gt;Node1</title>
<path fill="none" stroke="#191970" d="M207.5913,-230.3133C149.2448,-222.822 49.3935,-200.1891 4.3848,-132 -9.9629,-110.263 15.806,-68.3345 26.3848,-56 38.2782,-42.1327 55.4483,-31.4358 70.7451,-23.8619"/>
<polygon fill="#191970" stroke="#191970" points="72.389,-26.957 79.9636,-19.5492 69.4227,-20.6165 72.389,-26.957"/>
</g>
<!-- Node2 -->
<g id="node3" class="node">
<title>Node2</title>
<g id="a_node3"><a xlink:href="l4_2sys_2types_8h.html" target="_top" xlink:title="Common L4 ABI Data Types. ">
<polygon fill="#ffffff" stroke="#000000" points="144.3848,-168.5 144.3848,-187.5 224.3848,-187.5 224.3848,-168.5 144.3848,-168.5"/>
<text text-anchor="middle" x="184.3848" y="-175.5" font-family="Helvetica,sans-Serif" font-size="10.00" fill="#000000">l4/sys/types.h</text>
</a>
</g>
</g>
<!-- Node0&#45;&gt;Node2 -->
<g id="edge2" class="edge">
<title>Node0&#45;&gt;Node2</title>
<path fill="none" stroke="#191970" d="M240.5401,-224.2455C230.4968,-215.9746 215.8853,-203.9416 204.0844,-194.2232"/>
<polygon fill="#191970" stroke="#191970" points="206.0381,-191.298 196.0938,-187.6427 201.5881,-196.7015 206.0381,-191.298"/>
</g>
<!-- Node8 -->
<g id="node9" class="node">
<title>Node8</title>
<g id="a_node9"><a xlink:href="err_8h.html" target="_top" xlink:title="Error codes. ">
<polygon fill="#ffffff" stroke="#000000" points="409.3848,-112.5 409.3848,-131.5 477.3848,-131.5 477.3848,-112.5 409.3848,-112.5"/>
<text text-anchor="middle" x="443.3848" y="-119.5" font-family="Helvetica,sans-Serif" font-size="10.00" fill="#000000">l4/sys/err.h</text>
</a>
</g>
</g>
<!-- Node0&#45;&gt;Node8 -->
<g id="edge13" class="edge">
<title>Node0&#45;&gt;Node8</title>
<path fill="none" stroke="#191970" d="M252.5094,-224.4451C253.2293,-210.1253 256.7361,-183.1641 272.3848,-168 277.0579,-163.4716 350.3666,-144.8075 399.4667,-132.6895"/>
<polygon fill="#191970" stroke="#191970" points="400.3655,-136.0728 409.2397,-130.2849 398.693,-129.2755 400.3655,-136.0728"/>
</g>
<!-- Node9 -->
<g id="node10" class="node">
<title>Node9</title>
<polygon fill="#ffffff" stroke="#bfbfbf" points="280.8848,-168.5 280.8848,-187.5 369.8848,-187.5 369.8848,-168.5 280.8848,-168.5"/>
<text text-anchor="middle" x="325.3848" y="-175.5" font-family="Helvetica,sans-Serif" font-size="10.00" fill="#000000">l4/shmc/types.h</text>
</g>
<!-- Node0&#45;&gt;Node9 -->
<g id="edge15" class="edge">
<title>Node0&#45;&gt;Node9</title>
<path fill="none" stroke="#191970" d="M265.1004,-224.2455C275.9868,-215.8943 291.8731,-203.7076 304.6048,-193.9408"/>
<polygon fill="#191970" stroke="#191970" points="307.0109,-196.5063 312.8149,-187.6427 302.7502,-190.9523 307.0109,-196.5063"/>
</g>
<!-- Node10 -->
<g id="node11" class="node">
<title>Node10</title>
<polygon fill="#ffffff" stroke="#bfbfbf" points="387.8848,-168.5 387.8848,-187.5 486.8848,-187.5 486.8848,-168.5 387.8848,-168.5"/>
<text text-anchor="middle" x="437.3848" y="-175.5" font-family="Helvetica,sans-Serif" font-size="10.00" fill="#000000">l4/shmc/internal.h</text>
</g>
<!-- Node0&#45;&gt;Node10 -->
<g id="edge16" class="edge">
<title>Node0&#45;&gt;Node10</title>
<path fill="none" stroke="#191970" d="M284.1874,-224.3733C315.2165,-214.9807 362.5602,-200.6496 396.3995,-190.4064"/>
<polygon fill="#191970" stroke="#191970" points="397.4401,-193.7483 405.9972,-187.5011 395.412,-187.0485 397.4401,-193.7483"/>
</g>
<!-- Node3 -->
<g id="node4" class="node">
<title>Node3</title>
<g id="a_node4"><a xlink:href="l4_2sys_2l4int_8h.html" target="_top" xlink:title="Fixed sized integer types, generic version. ">
<polygon fill="#ffffff" stroke="#000000" points="35.3848,-56.5 35.3848,-75.5 109.3848,-75.5 109.3848,-56.5 35.3848,-56.5"/>
<text text-anchor="middle" x="72.3848" y="-63.5" font-family="Helvetica,sans-Serif" font-size="10.00" fill="#000000">l4/sys/l4int.h</text>
</a>
</g>
</g>
<!-- Node2&#45;&gt;Node3 -->
<g id="edge3" class="edge">
<title>Node2&#45;&gt;Node3</title>
<path fill="none" stroke="#191970" d="M144.2074,-172.9108C98.5681,-166.2083 28.3373,-152.7795 12.3848,-132 -1.9534,-113.3232 21.9072,-93.5494 43.6485,-80.5704"/>
<polygon fill="#191970" stroke="#191970" points="45.4292,-83.5843 52.4088,-75.6134 41.9818,-77.4921 45.4292,-83.5843"/>
</g>
<!-- Node4 -->
<g id="node5" class="node">
<title>Node4</title>
<g id="a_node5"><a xlink:href="compiler_8h.html" target="_top" xlink:title="L4 compiler related defines. ">
<polygon fill="#ffffff" stroke="#000000" points="207.8848,-56.5 207.8848,-75.5 302.8848,-75.5 302.8848,-56.5 207.8848,-56.5"/>
<text text-anchor="middle" x="255.3848" y="-63.5" font-family="Helvetica,sans-Serif" font-size="10.00" fill="#000000">l4/sys/compiler.h</text>
</a>
</g>
</g>
<!-- Node2&#45;&gt;Node4 -->
<g id="edge4" class="edge">
<title>Node2&#45;&gt;Node4</title>
<path fill="none" stroke="#191970" d="M199.2537,-168.3992C210.9662,-160.0994 226.8575,-147.0814 236.3848,-132 245.3292,-117.8414 250.1782,-99.3521 252.7333,-85.5461"/>
<polygon fill="#191970" stroke="#191970" points="256.1925,-86.0791 254.3251,-75.6502 249.2813,-84.9674 256.1925,-86.0791"/>
</g>
<!-- Node5 -->
<g id="node6" class="node">
<title>Node5</title>
<g id="a_node6"><a xlink:href="l4_2sys_2consts_8h.html" target="_top" xlink:title="Common constants. ">
<polygon fill="#ffffff" stroke="#000000" points="141.3848,-112.5 141.3848,-131.5 227.3848,-131.5 227.3848,-112.5 141.3848,-112.5"/>
<text text-anchor="middle" x="184.3848" y="-119.5" font-family="Helvetica,sans-Serif" font-size="10.00" fill="#000000">l4/sys/consts.h</text>
</a>
</g>
</g>
<!-- Node2&#45;&gt;Node5 -->
<g id="edge6" class="edge">
<title>Node2&#45;&gt;Node5</title>
<path fill="none" stroke="#191970" d="M184.3848,-168.2455C184.3848,-160.9382 184.3848,-150.6944 184.3848,-141.7046"/>
<polygon fill="#191970" stroke="#191970" points="187.8849,-141.6426 184.3848,-131.6427 180.8849,-141.6427 187.8849,-141.6426"/>
</g>
<!-- Node6 -->
<g id="node7" class="node">
<title>Node6</title>
<g id="a_node7"><a xlink:href="____l4__fpage_8h_source.html" target="_top" xlink:title="l4/sys/__l4_fpage.h">
<polygon fill="#ffffff" stroke="#000000" points="283.3848,-112.5 283.3848,-131.5 391.3848,-131.5 391.3848,-112.5 283.3848,-112.5"/>
<text text-anchor="middle" x="337.3848" y="-119.5" font-family="Helvetica,sans-Serif" font-size="10.00" fill="#000000">l4/sys/__l4_fpage.h</text>
</a>
</g>
</g>
<!-- Node2&#45;&gt;Node6 -->
<g id="edge9" class="edge">
<title>Node2&#45;&gt;Node6</title>
<path fill="none" stroke="#191970" d="M210.6864,-168.3733C235.7976,-159.1822 273.8286,-145.2624 301.672,-135.0713"/>
<polygon fill="#191970" stroke="#191970" points="303.2386,-138.2251 311.4264,-131.5011 300.8326,-131.6516 303.2386,-138.2251"/>
</g>
<!-- Node7 -->
<g id="node8" class="node">
<title>Node7</title>
<g id="a_node8"><a xlink:href="____timeout_8h_source.html" target="_top" xlink:title="l4/sys/__timeout.h">
<polygon fill="#ffffff" stroke="#000000" points="21.8848,-112.5 21.8848,-131.5 122.8848,-131.5 122.8848,-112.5 21.8848,-112.5"/>
<text text-anchor="middle" x="72.3848" y="-119.5" font-family="Helvetica,sans-Serif" font-size="10.00" fill="#000000">l4/sys/__timeout.h</text>
</a>
</g>
</g>
<!-- Node2&#45;&gt;Node7 -->
<g id="edge11" class="edge">
<title>Node2&#45;&gt;Node7</title>
<path fill="none" stroke="#191970" d="M165.1313,-168.3733C147.3136,-159.4644 120.6101,-146.1127 100.4254,-136.0203"/>
<polygon fill="#191970" stroke="#191970" points="101.8966,-132.8428 91.387,-131.5011 98.7661,-139.1038 101.8966,-132.8428"/>
</g>
<!-- Node4&#45;&gt;Node1 -->
<g id="edge5" class="edge">
<title>Node4&#45;&gt;Node1</title>
<path fill="none" stroke="#191970" d="M229.5989,-56.3733C204.9801,-47.1822 167.6948,-33.2624 140.3973,-23.0713"/>
<polygon fill="#191970" stroke="#191970" points="141.4268,-19.7198 130.8342,-19.5011 138.9785,-26.2777 141.4268,-19.7198"/>
</g>
<!-- Node5&#45;&gt;Node3 -->
<g id="edge8" class="edge">
<title>Node5&#45;&gt;Node3</title>
<path fill="none" stroke="#191970" d="M165.1313,-112.3733C147.3136,-103.4644 120.6101,-90.1127 100.4254,-80.0203"/>
<polygon fill="#191970" stroke="#191970" points="101.8966,-76.8428 91.387,-75.5011 98.7661,-83.1038 101.8966,-76.8428"/>
</g>
<!-- Node5&#45;&gt;Node4 -->
<g id="edge7" class="edge">
<title>Node5&#45;&gt;Node4</title>
<path fill="none" stroke="#191970" d="M196.7521,-112.2455C207.3402,-103.8943 222.7912,-91.7076 235.1741,-81.9408"/>
<polygon fill="#191970" stroke="#191970" points="237.4751,-84.5837 243.1593,-75.6427 233.1401,-79.0875 237.4751,-84.5837"/>
</g>
<!-- Node6&#45;&gt;Node4 -->
<g id="edge10" class="edge">
<title>Node6&#45;&gt;Node4</title>
<path fill="none" stroke="#191970" d="M323.1015,-112.2455C310.6378,-103.7337 292.3397,-91.2375 277.9056,-81.3801"/>
<polygon fill="#191970" stroke="#191970" points="279.7363,-78.392 269.5044,-75.6427 275.7886,-84.1726 279.7363,-78.392"/>
</g>
<!-- Node7&#45;&gt;Node3 -->
<g id="edge12" class="edge">
<title>Node7&#45;&gt;Node3</title>
<path fill="none" stroke="#191970" d="M72.3848,-112.2455C72.3848,-104.9382 72.3848,-94.6944 72.3848,-85.7046"/>
<polygon fill="#191970" stroke="#191970" points="75.8849,-85.6426 72.3848,-75.6427 68.8849,-85.6427 75.8849,-85.6426"/>
</g>
<!-- Node8&#45;&gt;Node4 -->
<g id="edge14" class="edge">
<title>Node8&#45;&gt;Node4</title>
<path fill="none" stroke="#191970" d="M411.0664,-112.3733C379.5342,-102.9807 331.4227,-88.6496 297.0347,-78.4064"/>
<polygon fill="#191970" stroke="#191970" points="297.8645,-75.0016 287.2814,-75.5011 295.8661,-81.7103 297.8645,-75.0016"/>
</g>
</g>
</svg>
