<?xml version="1.0" encoding="UTF-8" standalone="no"?>
<!DOCTYPE svg PUBLIC "-//W3C//DTD SVG 1.1//EN"
 "http://www.w3.org/Graphics/SVG/1.1/DTD/svg11.dtd">
<!-- Generated by graphviz version 2.40.1 (20161225.0304)
 -->
<!-- Title: l4/sigma0/sigma0.h Pages: 1 -->
<svg width="548pt" height="364pt"
 viewBox="0.00 0.00 548.22 364.00" xmlns="http://www.w3.org/2000/svg" xmlns:xlink="http://www.w3.org/1999/xlink">
<g id="graph0" class="graph" transform="scale(1 1) rotate(0) translate(4 360)">
<title>l4/sigma0/sigma0.h</title>
<polygon fill="#ffffff" stroke="transparent" points="-4,4 -4,-360 544.2217,-360 544.2217,4 -4,4"/>
<!-- Node0 -->
<g id="node1" class="node">
<title>Node0</title>
<polygon fill="#bfbfbf" stroke="#000000" points="433.2217,-336.5 433.2217,-355.5 540.2217,-355.5 540.2217,-336.5 433.2217,-336.5"/>
<text text-anchor="middle" x="486.7217" y="-343.5" font-family="Helvetica,sans-Serif" font-size="10.00" fill="#000000">l4/sigma0/sigma0.h</text>
</g>
<!-- Node1 -->
<g id="node2" class="node">
<title>Node1</title>
<g id="a_node2"><a xlink:href="compiler_8h.html" target="_top" xlink:title="L4 compiler related defines. ">
<polygon fill="#ffffff" stroke="#000000" points="319.2217,-56.5 319.2217,-75.5 414.2217,-75.5 414.2217,-56.5 319.2217,-56.5"/>
<text text-anchor="middle" x="366.7217" y="-63.5" font-family="Helvetica,sans-Serif" font-size="10.00" fill="#000000">l4/sys/compiler.h</text>
</a>
</g>
</g>
<!-- Node0&#45;&gt;Node1 -->
<g id="edge1" class="edge">
<title>Node0&#45;&gt;Node1</title>
<path fill="none" stroke="#191970" d="M492.3287,-336.4834C502.899,-317.6141 524.7217,-273.8343 524.7217,-234 524.7217,-234 524.7217,-234 524.7217,-178 524.7217,-124.0084 462.5561,-93.6835 416.2127,-78.5781"/>
<polygon fill="#191970" stroke="#191970" points="417.1802,-75.2136 406.5917,-75.5827 415.0993,-81.8972 417.1802,-75.2136"/>
</g>
<!-- Node3 -->
<g id="node4" class="node">
<title>Node3</title>
<g id="a_node4"><a xlink:href="l4_2sys_2types_8h.html" target="_top" xlink:title="Common L4 ABI Data Types. ">
<polygon fill="#ffffff" stroke="#000000" points="205.7217,-168.5 205.7217,-187.5 285.7217,-187.5 285.7217,-168.5 205.7217,-168.5"/>
<text text-anchor="middle" x="245.7217" y="-175.5" font-family="Helvetica,sans-Serif" font-size="10.00" fill="#000000">l4/sys/types.h</text>
</a>
</g>
</g>
<!-- Node0&#45;&gt;Node3 -->
<g id="edge3" class="edge">
<title>Node0&#45;&gt;Node3</title>
<path fill="none" stroke="#191970" d="M485.1129,-336.3591C480.7268,-313.212 466.343,-254.1849 429.7217,-224 409.4822,-207.3177 343.1761,-193.5842 295.9766,-185.5899"/>
<polygon fill="#191970" stroke="#191970" points="296.3588,-182.1055 285.9212,-183.9239 295.2146,-189.0114 296.3588,-182.1055"/>
</g>
<!-- Node8 -->
<g id="node9" class="node">
<title>Node8</title>
<g id="a_node9"><a xlink:href="sys_2kip_8h.html" target="_top" xlink:title="Kernel Info Page access functions. ">
<polygon fill="#ffffff" stroke="#000000" points="334.7217,-280.5 334.7217,-299.5 402.7217,-299.5 402.7217,-280.5 334.7217,-280.5"/>
<text text-anchor="middle" x="368.7217" y="-287.5" font-family="Helvetica,sans-Serif" font-size="10.00" fill="#000000">l4/sys/kip.h</text>
</a>
</g>
</g>
<!-- Node0&#45;&gt;Node8 -->
<g id="edge13" class="edge">
<title>Node0&#45;&gt;Node8</title>
<path fill="none" stroke="#191970" d="M466.4368,-336.3733C447.5796,-327.4241 419.2757,-313.9917 397.9762,-303.8835"/>
<polygon fill="#191970" stroke="#191970" points="399.2768,-300.6266 388.7419,-299.5011 396.2755,-306.9506 399.2768,-300.6266"/>
</g>
<!-- Node2 -->
<g id="node3" class="node">
<title>Node2</title>
<polygon fill="#ffffff" stroke="#bfbfbf" points="322.2217,-.5 322.2217,-19.5 411.2217,-19.5 411.2217,-.5 322.2217,-.5"/>
<text text-anchor="middle" x="366.7217" y="-7.5" font-family="Helvetica,sans-Serif" font-size="10.00" fill="#000000">l4/sys/linkage.h</text>
</g>
<!-- Node1&#45;&gt;Node2 -->
<g id="edge2" class="edge">
<title>Node1&#45;&gt;Node2</title>
<path fill="none" stroke="#191970" d="M366.7217,-56.2455C366.7217,-48.9382 366.7217,-38.6944 366.7217,-29.7046"/>
<polygon fill="#191970" stroke="#191970" points="370.2218,-29.6426 366.7217,-19.6427 363.2218,-29.6427 370.2218,-29.6426"/>
</g>
<!-- Node3&#45;&gt;Node1 -->
<g id="edge5" class="edge">
<title>Node3&#45;&gt;Node1</title>
<path fill="none" stroke="#191970" d="M253.0107,-168.4528C263.4652,-155.0681 283.6752,-130.3135 303.7217,-112 316.0317,-100.7542 331.0726,-89.6858 343.3704,-81.2253"/>
<polygon fill="#191970" stroke="#191970" points="345.4322,-84.0564 351.7621,-75.5604 341.5156,-78.2546 345.4322,-84.0564"/>
</g>
<!-- Node4 -->
<g id="node5" class="node">
<title>Node4</title>
<g id="a_node5"><a xlink:href="l4_2sys_2l4int_8h.html" target="_top" xlink:title="Fixed sized integer types, generic version. ">
<polygon fill="#ffffff" stroke="#000000" points="66.7217,-56.5 66.7217,-75.5 140.7217,-75.5 140.7217,-56.5 66.7217,-56.5"/>
<text text-anchor="middle" x="103.7217" y="-63.5" font-family="Helvetica,sans-Serif" font-size="10.00" fill="#000000">l4/sys/l4int.h</text>
</a>
</g>
</g>
<!-- Node3&#45;&gt;Node4 -->
<g id="edge4" class="edge">
<title>Node3&#45;&gt;Node4</title>
<path fill="none" stroke="#191970" d="M223.379,-168.3946C205.6625,-160.1805 180.7969,-147.2814 161.7217,-132 144.173,-117.9415 127.6036,-98.1905 116.7039,-83.9637"/>
<polygon fill="#191970" stroke="#191970" points="119.4821,-81.8344 110.692,-75.9196 113.8751,-86.025 119.4821,-81.8344"/>
</g>
<!-- Node5 -->
<g id="node6" class="node">
<title>Node5</title>
<g id="a_node6"><a xlink:href="l4_2sys_2consts_8h.html" target="_top" xlink:title="Common constants. ">
<polygon fill="#ffffff" stroke="#000000" points="170.7217,-112.5 170.7217,-131.5 256.7217,-131.5 256.7217,-112.5 170.7217,-112.5"/>
<text text-anchor="middle" x="213.7217" y="-119.5" font-family="Helvetica,sans-Serif" font-size="10.00" fill="#000000">l4/sys/consts.h</text>
</a>
</g>
</g>
<!-- Node3&#45;&gt;Node5 -->
<g id="edge6" class="edge">
<title>Node3&#45;&gt;Node5</title>
<path fill="none" stroke="#191970" d="M240.1477,-168.2455C235.7885,-160.617 229.6006,-149.7881 224.3084,-140.5267"/>
<polygon fill="#191970" stroke="#191970" points="227.2321,-138.5886 219.2318,-131.6427 221.1544,-142.0616 227.2321,-138.5886"/>
</g>
<!-- Node6 -->
<g id="node7" class="node">
<title>Node6</title>
<g id="a_node7"><a xlink:href="____l4__fpage_8h_source.html" target="_top" xlink:title="l4/sys/__l4_fpage.h">
<polygon fill="#ffffff" stroke="#000000" points="312.7217,-112.5 312.7217,-131.5 420.7217,-131.5 420.7217,-112.5 312.7217,-112.5"/>
<text text-anchor="middle" x="366.7217" y="-119.5" font-family="Helvetica,sans-Serif" font-size="10.00" fill="#000000">l4/sys/__l4_fpage.h</text>
</a>
</g>
</g>
<!-- Node3&#45;&gt;Node6 -->
<g id="edge9" class="edge">
<title>Node3&#45;&gt;Node6</title>
<path fill="none" stroke="#191970" d="M266.5223,-168.3733C285.946,-159.3838 315.144,-145.8706 337.0181,-135.7471"/>
<polygon fill="#191970" stroke="#191970" points="338.5873,-138.8776 346.1925,-131.5011 335.6472,-132.5249 338.5873,-138.8776"/>
</g>
<!-- Node7 -->
<g id="node8" class="node">
<title>Node7</title>
<g id="a_node8"><a xlink:href="____timeout_8h_source.html" target="_top" xlink:title="l4/sys/__timeout.h">
<polygon fill="#ffffff" stroke="#000000" points="13.2217,-112.5 13.2217,-131.5 114.2217,-131.5 114.2217,-112.5 13.2217,-112.5"/>
<text text-anchor="middle" x="63.7217" y="-119.5" font-family="Helvetica,sans-Serif" font-size="10.00" fill="#000000">l4/sys/__timeout.h</text>
</a>
</g>
</g>
<!-- Node3&#45;&gt;Node7 -->
<g id="edge11" class="edge">
<title>Node3&#45;&gt;Node7</title>
<path fill="none" stroke="#191970" d="M214.4348,-168.3733C184.0399,-159.021 137.7324,-144.7725 104.4717,-134.5385"/>
<polygon fill="#191970" stroke="#191970" points="105.1874,-131.0968 94.6003,-131.5011 103.1288,-137.7873 105.1874,-131.0968"/>
</g>
<!-- Node5&#45;&gt;Node1 -->
<g id="edge7" class="edge">
<title>Node5&#45;&gt;Node1</title>
<path fill="none" stroke="#191970" d="M240.0233,-112.3733C265.1345,-103.1822 303.1655,-89.2624 331.0089,-79.0713"/>
<polygon fill="#191970" stroke="#191970" points="332.5755,-82.2251 340.7633,-75.5011 330.1695,-75.6516 332.5755,-82.2251"/>
</g>
<!-- Node5&#45;&gt;Node4 -->
<g id="edge8" class="edge">
<title>Node5&#45;&gt;Node4</title>
<path fill="none" stroke="#191970" d="M194.5611,-112.2455C177.2106,-103.4125 151.4316,-90.2887 131.7634,-80.2758"/>
<polygon fill="#191970" stroke="#191970" points="133.1622,-77.0605 122.6626,-75.6427 129.9864,-83.2986 133.1622,-77.0605"/>
</g>
<!-- Node6&#45;&gt;Node1 -->
<g id="edge10" class="edge">
<title>Node6&#45;&gt;Node1</title>
<path fill="none" stroke="#191970" d="M366.7217,-112.2455C366.7217,-104.9382 366.7217,-94.6944 366.7217,-85.7046"/>
<polygon fill="#191970" stroke="#191970" points="370.2218,-85.6426 366.7217,-75.6427 363.2218,-85.6427 370.2218,-85.6426"/>
</g>
<!-- Node7&#45;&gt;Node4 -->
<g id="edge12" class="edge">
<title>Node7&#45;&gt;Node4</title>
<path fill="none" stroke="#191970" d="M70.6891,-112.2455C76.2528,-104.4564 84.1997,-93.3308 90.9046,-83.9439"/>
<polygon fill="#191970" stroke="#191970" points="93.8697,-85.8144 96.8341,-75.6427 88.1736,-81.7457 93.8697,-85.8144"/>
</g>
<!-- Node8&#45;&gt;Node1 -->
<g id="edge14" class="edge">
<title>Node8&#45;&gt;Node1</title>
<path fill="none" stroke="#191970" d="M389.8433,-280.4622C403.972,-272.8191 421.4389,-260.6199 429.7217,-244 455.8895,-191.4926 456.294,-164.3038 429.7217,-112 422.8607,-98.4951 409.9684,-88.0099 397.6251,-80.4839"/>
<polygon fill="#191970" stroke="#191970" points="399.2584,-77.3868 388.8283,-75.5258 395.8213,-83.4849 399.2584,-77.3868"/>
</g>
<!-- Node8&#45;&gt;Node4 -->
<g id="edge15" class="edge">
<title>Node8&#45;&gt;Node4</title>
<path fill="none" stroke="#191970" d="M334.4635,-288.0308C257.2316,-281.464 71.0408,-253.1744 3.7217,-132 -11.1095,-105.304 23.959,-87.521 56.5713,-77.2081"/>
<polygon fill="#191970" stroke="#191970" points="57.9642,-80.4457 66.5555,-74.2457 55.973,-73.7348 57.9642,-80.4457"/>
</g>
<!-- Node9 -->
<g id="node10" class="node">
<title>Node9</title>
<polygon fill="#ffffff" stroke="#bfbfbf" points="316.7217,-224.5 316.7217,-243.5 420.7217,-243.5 420.7217,-224.5 316.7217,-224.5"/>
<text text-anchor="middle" x="368.7217" y="-231.5" font-family="Helvetica,sans-Serif" font-size="10.00" fill="#000000">l4/sys/__kip&#45;arch.h</text>
</g>
<!-- Node8&#45;&gt;Node9 -->
<g id="edge16" class="edge">
<title>Node8&#45;&gt;Node9</title>
<path fill="none" stroke="#191970" d="M368.7217,-280.2455C368.7217,-272.9382 368.7217,-262.6944 368.7217,-253.7046"/>
<polygon fill="#191970" stroke="#191970" points="372.2218,-253.6426 368.7217,-243.6427 365.2218,-253.6427 372.2218,-253.6426"/>
</g>
<!-- Node10 -->
<g id="node11" class="node">
<title>Node10</title>
<g id="a_node11"><a xlink:href="____kip-64bit_8h_source.html" target="_top" xlink:title="l4/sys/__kip&#45;64bit.h">
<polygon fill="#ffffff" stroke="#000000" points="192.7217,-224.5 192.7217,-243.5 298.7217,-243.5 298.7217,-224.5 192.7217,-224.5"/>
<text text-anchor="middle" x="245.7217" y="-231.5" font-family="Helvetica,sans-Serif" font-size="10.00" fill="#000000">l4/sys/__kip&#45;64bit.h</text>
</a>
</g>
</g>
<!-- Node8&#45;&gt;Node10 -->
<g id="edge17" class="edge">
<title>Node8&#45;&gt;Node10</title>
<path fill="none" stroke="#191970" d="M347.5772,-280.3733C327.8325,-271.3838 298.1518,-257.8706 275.9162,-247.7471"/>
<polygon fill="#191970" stroke="#191970" points="277.1416,-244.4594 266.5902,-243.5011 274.2411,-250.8302 277.1416,-244.4594"/>
</g>
<!-- Node10&#45;&gt;Node3 -->
<g id="edge18" class="edge">
<title>Node10&#45;&gt;Node3</title>
<path fill="none" stroke="#191970" d="M245.7217,-224.2455C245.7217,-216.9382 245.7217,-206.6944 245.7217,-197.7046"/>
<polygon fill="#191970" stroke="#191970" points="249.2218,-197.6426 245.7217,-187.6427 242.2218,-197.6427 249.2218,-197.6426"/>
</g>
</g>
</svg>
