<?xml version="1.0" encoding="UTF-8" standalone="no"?>
<!DOCTYPE svg PUBLIC "-//W3C//DTD SVG 1.1//EN"
 "http://www.w3.org/Graphics/SVG/1.1/DTD/svg11.dtd">
<!-- Generated by graphviz version 2.40.1 (20161225.0304)
 -->
<!-- Title: l4/sys/smart_capability Pages: 1 -->
<svg width="1413pt" height="341pt"
 viewBox="0.00 0.00 1413.00 341.00" xmlns="http://www.w3.org/2000/svg" xmlns:xlink="http://www.w3.org/1999/xlink">
<g id="graph0" class="graph" transform="scale(1 1) rotate(0) translate(4 337)">
<title>l4/sys/smart_capability</title>
<polygon fill="#ffffff" stroke="transparent" points="-4,4 -4,-337 1409,-337 1409,4 -4,4"/>
<!-- Node25 -->
<g id="node1" class="node">
<title>Node25</title>
<polygon fill="#bfbfbf" stroke="#000000" points="535.5,-313.5 535.5,-332.5 657.5,-332.5 657.5,-313.5 535.5,-313.5"/>
<text text-anchor="middle" x="596.5" y="-320.5" font-family="Helvetica,sans-Serif" font-size="10.00" fill="#000000">l4/sys/smart_capability</text>
</g>
<!-- Node26 -->
<g id="node2" class="node">
<title>Node26</title>
<g id="a_node2"><a xlink:href="util_2cap__alloc.html" target="_top" xlink:title="Capability allocator. ">
<polygon fill="#ffffff" stroke="#000000" points="412,-257.5 412,-276.5 513,-276.5 513,-257.5 412,-257.5"/>
<text text-anchor="middle" x="462.5" y="-264.5" font-family="Helvetica,sans-Serif" font-size="10.00" fill="#000000">l4/re/util/cap_alloc</text>
</a>
</g>
</g>
<!-- Node25&#45;&gt;Node26 -->
<g id="edge1" class="edge">
<title>Node25&#45;&gt;Node26</title>
<path fill="none" stroke="#191970" d="M563.9172,-309.3833C539.5464,-299.1985 506.8358,-285.5284 485.2348,-276.5011"/>
<polygon fill="#191970" stroke="#191970" points="562.8883,-312.7466 573.4646,-313.3733 565.5875,-306.2879 562.8883,-312.7466"/>
</g>
<!-- Node38 -->
<g id="node14" class="node">
<title>Node38</title>
<g id="a_node14"><a xlink:href="cap__alloc.html" target="_top" xlink:title="Abstract capability&#45;allocator interface. ">
<polygon fill="#ffffff" stroke="#000000" points="707.5,-257.5 707.5,-276.5 793.5,-276.5 793.5,-257.5 707.5,-257.5"/>
<text text-anchor="middle" x="750.5" y="-264.5" font-family="Helvetica,sans-Serif" font-size="10.00" fill="#000000">l4/re/cap_alloc</text>
</a>
</g>
</g>
<!-- Node25&#45;&gt;Node38 -->
<g id="edge18" class="edge">
<title>Node25&#45;&gt;Node38</title>
<path fill="none" stroke="#191970" d="M632.4614,-309.9231C660.6134,-299.686 699.1055,-285.6889 724.3719,-276.5011"/>
<polygon fill="#191970" stroke="#191970" points="631.1754,-306.6665 622.9735,-313.3733 633.5676,-313.245 631.1754,-306.6665"/>
</g>
<!-- Node27 -->
<g id="node3" class="node">
<title>Node27</title>
<g id="a_node3"><a xlink:href="server_2l4virtio_source.html" target="_top" xlink:title="l4/l4virtio/server\l/l4virtio">
<polygon fill="#ffffff" stroke="#000000" points="252.5,-134.5 252.5,-164.5 344.5,-164.5 344.5,-134.5 252.5,-134.5"/>
<text text-anchor="start" x="260.5" y="-152.5" font-family="Helvetica,sans-Serif" font-size="10.00" fill="#000000">l4/l4virtio/server</text>
<text text-anchor="middle" x="298.5" y="-141.5" font-family="Helvetica,sans-Serif" font-size="10.00" fill="#000000">/l4virtio</text>
</a>
</g>
</g>
<!-- Node26&#45;&gt;Node27 -->
<g id="edge2" class="edge">
<title>Node26&#45;&gt;Node27</title>
<path fill="none" stroke="#191970" d="M440.9182,-251.5374C409.2916,-228.8781 350.7284,-186.9197 319.4595,-164.5167"/>
<polygon fill="#191970" stroke="#191970" points="438.9118,-254.4055 449.0792,-257.3845 442.9887,-248.7152 438.9118,-254.4055"/>
</g>
<!-- Node29 -->
<g id="node5" class="node">
<title>Node29</title>
<g id="a_node5"><a xlink:href="util_2shared__cap.html" target="_top" xlink:title="Shared_cap / Shared_del_cap. ">
<polygon fill="#ffffff" stroke="#000000" points="238,-201.5 238,-220.5 351,-220.5 351,-201.5 238,-201.5"/>
<text text-anchor="middle" x="294.5" y="-208.5" font-family="Helvetica,sans-Serif" font-size="10.00" fill="#000000">l4/re/util/shared_cap</text>
</a>
</g>
</g>
<!-- Node26&#45;&gt;Node29 -->
<g id="edge4" class="edge">
<title>Node26&#45;&gt;Node29</title>
<path fill="none" stroke="#191970" d="M424.0714,-254.1905C393.2927,-243.9309 350.8074,-229.7691 323.0034,-220.5011"/>
<polygon fill="#191970" stroke="#191970" points="423.0261,-257.5313 433.6198,-257.3733 425.2398,-250.8905 423.0261,-257.5313"/>
</g>
<!-- Node30 -->
<g id="node6" class="node">
<title>Node30</title>
<g id="a_node6"><a xlink:href="util_2unique__cap.html" target="_top" xlink:title="Unique_cap / Unique_del_cap. ">
<polygon fill="#ffffff" stroke="#000000" points="407.5,-201.5 407.5,-220.5 517.5,-220.5 517.5,-201.5 407.5,-201.5"/>
<text text-anchor="middle" x="462.5" y="-208.5" font-family="Helvetica,sans-Serif" font-size="10.00" fill="#000000">l4/re/util/unique_cap</text>
</a>
</g>
</g>
<!-- Node26&#45;&gt;Node30 -->
<g id="edge6" class="edge">
<title>Node26&#45;&gt;Node30</title>
<path fill="none" stroke="#191970" d="M462.5,-247.1575C462.5,-238.155 462.5,-227.9199 462.5,-220.6427"/>
<polygon fill="#191970" stroke="#191970" points="459.0001,-247.2455 462.5,-257.2455 466.0001,-247.2456 459.0001,-247.2455"/>
</g>
<!-- Node31 -->
<g id="node7" class="node">
<title>Node31</title>
<g id="a_node7"><a xlink:href="util_2event.html" target="_top" xlink:title="l4/re/util/event">
<polygon fill="#ffffff" stroke="#000000" points="544,-140 544,-159 627,-159 627,-140 544,-140"/>
<text text-anchor="middle" x="585.5" y="-147" font-family="Helvetica,sans-Serif" font-size="10.00" fill="#000000">l4/re/util/event</text>
</a>
</g>
</g>
<!-- Node26&#45;&gt;Node31 -->
<g id="edge14" class="edge">
<title>Node26&#45;&gt;Node31</title>
<path fill="none" stroke="#191970" d="M494.449,-252.9611C509.8872,-245.1038 527.9552,-234.2187 541.5,-221 560.4846,-202.4724 574.7145,-174.1504 581.3548,-159.3248"/>
<polygon fill="#191970" stroke="#191970" points="492.6918,-249.9241 485.2404,-257.4559 495.7623,-256.2147 492.6918,-249.9241"/>
</g>
<!-- Node32 -->
<g id="node8" class="node">
<title>Node32</title>
<g id="a_node8"><a xlink:href="object__registry_source.html" target="_top" xlink:title="l4/re/util/object_registry">
<polygon fill="#ffffff" stroke="#000000" points="401,-140 401,-159 526,-159 526,-140 401,-140"/>
<text text-anchor="middle" x="463.5" y="-147" font-family="Helvetica,sans-Serif" font-size="10.00" fill="#000000">l4/re/util/object_registry</text>
</a>
</g>
</g>
<!-- Node26&#45;&gt;Node32 -->
<g id="edge17" class="edge">
<title>Node26&#45;&gt;Node32</title>
<path fill="none" stroke="#191970" d="M494.1519,-252.4623C506.6064,-244.9674 519.567,-234.5211 526.5,-221 539.5592,-195.5312 506.1972,-171.8324 483.1913,-159.1425"/>
<polygon fill="#191970" stroke="#191970" points="492.3072,-249.4832 485.266,-257.3999 495.7072,-255.6021 492.3072,-249.4832"/>
</g>
<!-- Node33 -->
<g id="node9" class="node">
<title>Node33</title>
<g id="a_node9"><a xlink:href="env__ns_source.html" target="_top" xlink:title="l4/re/util/env_ns">
<polygon fill="#ffffff" stroke="#000000" points="612,-201.5 612,-220.5 703,-220.5 703,-201.5 612,-201.5"/>
<text text-anchor="middle" x="657.5" y="-208.5" font-family="Helvetica,sans-Serif" font-size="10.00" fill="#000000">l4/re/util/env_ns</text>
</a>
</g>
</g>
<!-- Node26&#45;&gt;Node33 -->
<g id="edge11" class="edge">
<title>Node26&#45;&gt;Node33</title>
<path fill="none" stroke="#191970" d="M505.7196,-254.5882C541.5462,-244.2996 591.7241,-229.8895 624.4157,-220.5011"/>
<polygon fill="#191970" stroke="#191970" points="504.6671,-251.2489 496.0217,-257.3733 506.5993,-257.977 504.6671,-251.2489"/>
</g>
<!-- Node35 -->
<g id="node11" class="node">
<title>Node35</title>
<g id="a_node11"><a xlink:href="br__manager_source.html" target="_top" xlink:title="l4/re/util/br_manager">
<polygon fill="#ffffff" stroke="#000000" points="0,-201.5 0,-220.5 113,-220.5 113,-201.5 0,-201.5"/>
<text text-anchor="middle" x="56.5" y="-208.5" font-family="Helvetica,sans-Serif" font-size="10.00" fill="#000000">l4/re/util/br_manager</text>
</a>
</g>
</g>
<!-- Node26&#45;&gt;Node35 -->
<g id="edge13" class="edge">
<title>Node26&#45;&gt;Node35</title>
<path fill="none" stroke="#191970" d="M401.7683,-259.1532C333.5348,-250.2567 219.4943,-235.1464 121.5,-221 118.7879,-220.6085 116.0131,-220.2025 113.211,-219.7882"/>
<polygon fill="#191970" stroke="#191970" points="401.5378,-262.6527 411.9061,-260.4732 402.4417,-255.7113 401.5378,-262.6527"/>
</g>
<!-- Node36 -->
<g id="node12" class="node">
<title>Node36</title>
<g id="a_node12"><a xlink:href="icu__svr_source.html" target="_top" xlink:title="l4/re/util/icu_svr">
<polygon fill="#ffffff" stroke="#000000" points="131,-201.5 131,-220.5 220,-220.5 220,-201.5 131,-201.5"/>
<text text-anchor="middle" x="175.5" y="-208.5" font-family="Helvetica,sans-Serif" font-size="10.00" fill="#000000">l4/re/util/icu_svr</text>
</a>
</g>
</g>
<!-- Node26&#45;&gt;Node36 -->
<g id="edge15" class="edge">
<title>Node26&#45;&gt;Node36</title>
<path fill="none" stroke="#191970" d="M403.6279,-255.5128C349.1691,-244.8866 269.4089,-229.3237 220.0626,-219.6951"/>
<polygon fill="#191970" stroke="#191970" points="403.0038,-258.9569 413.489,-257.4369 404.3444,-252.0865 403.0038,-258.9569"/>
</g>
<!-- Node28 -->
<g id="node4" class="node">
<title>Node28</title>
<g id="a_node4"><a xlink:href="virtio-block_source.html" target="_top" xlink:title="l4/l4virtio/server\l/virtio&#45;block">
<polygon fill="#ffffff" stroke="#000000" points="289.5,-67.5 289.5,-97.5 381.5,-97.5 381.5,-67.5 289.5,-67.5"/>
<text text-anchor="start" x="297.5" y="-85.5" font-family="Helvetica,sans-Serif" font-size="10.00" fill="#000000">l4/l4virtio/server</text>
<text text-anchor="middle" x="335.5" y="-74.5" font-family="Helvetica,sans-Serif" font-size="10.00" fill="#000000">/virtio&#45;block</text>
</a>
</g>
</g>
<!-- Node27&#45;&gt;Node28 -->
<g id="edge3" class="edge">
<title>Node27&#45;&gt;Node28</title>
<path fill="none" stroke="#191970" d="M311.7627,-125.4837C316.8897,-116.1996 322.6016,-105.8565 327.1374,-97.6432"/>
<polygon fill="#191970" stroke="#191970" points="308.6663,-123.8508 306.8959,-134.2967 314.794,-127.2348 308.6663,-123.8508"/>
</g>
<!-- Node29&#45;&gt;Node27 -->
<g id="edge5" class="edge">
<title>Node29&#45;&gt;Node27</title>
<path fill="none" stroke="#191970" d="M295.7768,-191.3693C296.3419,-182.681 296.996,-172.6241 297.5215,-164.5446"/>
<polygon fill="#191970" stroke="#191970" points="292.2815,-191.1845 295.125,-201.3906 299.2667,-191.6389 292.2815,-191.1845"/>
</g>
<!-- Node30&#45;&gt;Node27 -->
<g id="edge7" class="edge">
<title>Node30&#45;&gt;Node27</title>
<path fill="none" stroke="#191970" d="M427.3949,-197.8356C401.3473,-188.0678 365.79,-174.7338 338.6189,-164.5446"/>
<polygon fill="#191970" stroke="#191970" points="426.2827,-201.1565 436.875,-201.3906 428.7407,-194.6022 426.2827,-201.1565"/>
</g>
<!-- Node30&#45;&gt;Node28 -->
<g id="edge8" class="edge">
<title>Node30&#45;&gt;Node28</title>
<path fill="none" stroke="#191970" d="M434.8763,-196.2226C421.21,-188.1101 405.0077,-177.2206 392.5,-165 371.5805,-144.5606 353.57,-115.4182 343.6597,-97.7979"/>
<polygon fill="#191970" stroke="#191970" points="433.4407,-199.4342 443.8558,-201.3775 436.9258,-193.3634 433.4407,-199.4342"/>
</g>
<!-- Node30&#45;&gt;Node31 -->
<g id="edge9" class="edge">
<title>Node30&#45;&gt;Node31</title>
<path fill="none" stroke="#191970" d="M490.7374,-196.8813C513.9336,-185.2832 546.1598,-169.1701 566.4162,-159.0419"/>
<polygon fill="#191970" stroke="#191970" points="489.0978,-193.7879 481.7188,-201.3906 492.2283,-200.0489 489.0978,-193.7879"/>
</g>
<!-- Node30&#45;&gt;Node32 -->
<g id="edge10" class="edge">
<title>Node30&#45;&gt;Node32</title>
<path fill="none" stroke="#191970" d="M462.8212,-191.2462C462.9951,-180.5519 463.2022,-167.814 463.3415,-159.2449"/>
<polygon fill="#191970" stroke="#191970" points="459.3194,-191.335 462.6563,-201.3906 466.3185,-191.4489 459.3194,-191.335"/>
</g>
<!-- Node34 -->
<g id="node10" class="node">
<title>Node34</title>
<g id="a_node10"><a xlink:href="ns__fs__impl_8h_source.html" target="_top" xlink:title="l4/l4re_vfs/impl/ns\l_fs_impl.h">
<polygon fill="#ffffff" stroke="#000000" points="643,-.5 643,-30.5 744,-30.5 744,-.5 643,-.5"/>
<text text-anchor="start" x="651" y="-18.5" font-family="Helvetica,sans-Serif" font-size="10.00" fill="#000000">l4/l4re_vfs/impl/ns</text>
<text text-anchor="middle" x="693.5" y="-7.5" font-family="Helvetica,sans-Serif" font-size="10.00" fill="#000000">_fs_impl.h</text>
</a>
</g>
</g>
<!-- Node33&#45;&gt;Node34 -->
<g id="edge12" class="edge">
<title>Node33&#45;&gt;Node34</title>
<path fill="none" stroke="#191970" d="M661.1003,-191.4481C668.2829,-152.4428 684.2553,-65.7037 690.7117,-30.6418"/>
<polygon fill="#191970" stroke="#191970" points="657.6542,-190.8366 659.2852,-201.3051 664.5384,-192.1043 657.6542,-190.8366"/>
</g>
<!-- Node37 -->
<g id="node13" class="node">
<title>Node37</title>
<g id="a_node13"><a xlink:href="event__svr_source.html" target="_top" xlink:title="l4/re/util/event_svr">
<polygon fill="#ffffff" stroke="#000000" points="124,-140 124,-159 227,-159 227,-140 124,-140"/>
<text text-anchor="middle" x="175.5" y="-147" font-family="Helvetica,sans-Serif" font-size="10.00" fill="#000000">l4/re/util/event_svr</text>
</a>
</g>
</g>
<!-- Node36&#45;&gt;Node37 -->
<g id="edge16" class="edge">
<title>Node36&#45;&gt;Node37</title>
<path fill="none" stroke="#191970" d="M175.5,-191.2462C175.5,-180.5519 175.5,-167.814 175.5,-159.2449"/>
<polygon fill="#191970" stroke="#191970" points="172.0001,-191.3906 175.5,-201.3906 179.0001,-191.3907 172.0001,-191.3906"/>
</g>
<!-- Node38&#45;&gt;Node31 -->
<g id="edge39" class="edge">
<title>Node38&#45;&gt;Node31</title>
<path fill="none" stroke="#191970" d="M743.3948,-247.5926C737.2027,-233.0546 726.9379,-213.582 712.5,-201 688.1952,-179.8194 654.0396,-166.6324 627.2703,-158.911"/>
<polygon fill="#191970" stroke="#191970" points="740.2414,-249.1351 747.1852,-257.1373 746.7472,-246.5515 740.2414,-249.1351"/>
</g>
<!-- Node38&#45;&gt;Node33 -->
<g id="edge36" class="edge">
<title>Node38&#45;&gt;Node33</title>
<path fill="none" stroke="#191970" d="M725.6665,-252.0465C709.1189,-242.0824 687.8568,-229.2794 673.5137,-220.6427"/>
<polygon fill="#191970" stroke="#191970" points="723.9283,-255.0854 734.3006,-257.2455 727.5393,-249.0886 723.9283,-255.0854"/>
</g>
<!-- Node39 -->
<g id="node15" class="node">
<title>Node39</title>
<g id="a_node15"><a xlink:href="vfs_8h_source.html" target="_top" xlink:title="l4/l4re_vfs/vfs.h">
<polygon fill="#ffffff" stroke="#000000" points="989.5,-201.5 989.5,-220.5 1079.5,-220.5 1079.5,-201.5 989.5,-201.5"/>
<text text-anchor="middle" x="1034.5" y="-208.5" font-family="Helvetica,sans-Serif" font-size="10.00" fill="#000000">l4/l4re_vfs/vfs.h</text>
</a>
</g>
</g>
<!-- Node38&#45;&gt;Node39 -->
<g id="edge19" class="edge">
<title>Node38&#45;&gt;Node39</title>
<path fill="none" stroke="#191970" d="M803.5983,-256.5299C857.0292,-245.9943 938.5539,-229.919 989.0772,-219.9566"/>
<polygon fill="#191970" stroke="#191970" points="802.7674,-253.1263 793.6335,-258.4948 804.1217,-259.994 802.7674,-253.1263"/>
</g>
<!-- Node49 -->
<g id="node25" class="node">
<title>Node49</title>
<g id="a_node25"><a xlink:href="unique__cap.html" target="_top" xlink:title="Unique_cap / Unique_del_cap. ">
<polygon fill="#ffffff" stroke="#000000" points="722,-140 722,-159 817,-159 817,-140 722,-140"/>
<text text-anchor="middle" x="769.5" y="-147" font-family="Helvetica,sans-Serif" font-size="10.00" fill="#000000">l4/re/unique_cap</text>
</a>
</g>
</g>
<!-- Node38&#45;&gt;Node49 -->
<g id="edge33" class="edge">
<title>Node38&#45;&gt;Node49</title>
<path fill="none" stroke="#191970" d="M753.6678,-247.4095C757.7811,-221.9723 764.8021,-178.5527 767.9237,-159.2484"/>
<polygon fill="#191970" stroke="#191970" points="750.1961,-246.954 752.0548,-257.3845 757.1063,-248.0714 750.1961,-246.954"/>
</g>
<!-- Node50 -->
<g id="node26" class="node">
<title>Node50</title>
<g id="a_node26"><a xlink:href="shared__cap.html" target="_top" xlink:title="Shared_cap / Shared_del_cap. ">
<polygon fill="#ffffff" stroke="#000000" points="864,-73 864,-92 961,-92 961,-73 864,-73"/>
<text text-anchor="middle" x="912.5" y="-80" font-family="Helvetica,sans-Serif" font-size="10.00" fill="#000000">l4/re/shared_cap</text>
</a>
</g>
</g>
<!-- Node38&#45;&gt;Node50 -->
<g id="edge37" class="edge">
<title>Node38&#45;&gt;Node50</title>
<path fill="none" stroke="#191970" d="M765.7527,-249.6288C799.224,-211.5088 878.1905,-121.5747 904.1022,-92.0641"/>
<polygon fill="#191970" stroke="#191970" points="762.9497,-247.5165 758.9817,-257.3402 768.2098,-252.1351 762.9497,-247.5165"/>
</g>
<!-- Node40 -->
<g id="node16" class="node">
<title>Node40</title>
<g id="a_node16"><a xlink:href="backend_source.html" target="_top" xlink:title="l4/l4re_vfs/backend">
<polygon fill="#ffffff" stroke="#000000" points="980.5,-140 980.5,-159 1088.5,-159 1088.5,-140 980.5,-140"/>
<text text-anchor="middle" x="1034.5" y="-147" font-family="Helvetica,sans-Serif" font-size="10.00" fill="#000000">l4/l4re_vfs/backend</text>
</a>
</g>
</g>
<!-- Node39&#45;&gt;Node40 -->
<g id="edge20" class="edge">
<title>Node39&#45;&gt;Node40</title>
<path fill="none" stroke="#191970" d="M1034.5,-191.2462C1034.5,-180.5519 1034.5,-167.814 1034.5,-159.2449"/>
<polygon fill="#191970" stroke="#191970" points="1031.0001,-191.3906 1034.5,-201.3906 1038.0001,-191.3907 1031.0001,-191.3906"/>
</g>
<!-- Node47 -->
<g id="node23" class="node">
<title>Node47</title>
<g id="a_node23"><a xlink:href="fd__store_8h_source.html" target="_top" xlink:title="l4/l4re_vfs/impl/fd\l_store.h">
<polygon fill="#ffffff" stroke="#000000" points="1228,-134.5 1228,-164.5 1327,-164.5 1327,-134.5 1228,-134.5"/>
<text text-anchor="start" x="1236" y="-152.5" font-family="Helvetica,sans-Serif" font-size="10.00" fill="#000000">l4/l4re_vfs/impl/fd</text>
<text text-anchor="middle" x="1277.5" y="-141.5" font-family="Helvetica,sans-Serif" font-size="10.00" fill="#000000">_store.h</text>
</a>
</g>
</g>
<!-- Node39&#45;&gt;Node47 -->
<g id="edge30" class="edge">
<title>Node39&#45;&gt;Node47</title>
<path fill="none" stroke="#191970" d="M1081.9304,-198.996C1123.9961,-188.3498 1185.2163,-172.8558 1227.919,-162.0483"/>
<polygon fill="#191970" stroke="#191970" points="1081.0377,-195.6115 1072.2021,-201.4581 1082.7552,-202.3975 1081.0377,-195.6115"/>
</g>
<!-- Node41 -->
<g id="node17" class="node">
<title>Node41</title>
<g id="a_node17"><a xlink:href="ns__fs_8h_source.html" target="_top" xlink:title="l4/l4re_vfs/impl/ns_fs.h">
<polygon fill="#ffffff" stroke="#000000" points="721.5,-73 721.5,-92 845.5,-92 845.5,-73 721.5,-73"/>
<text text-anchor="middle" x="783.5" y="-80" font-family="Helvetica,sans-Serif" font-size="10.00" fill="#000000">l4/l4re_vfs/impl/ns_fs.h</text>
</a>
</g>
</g>
<!-- Node40&#45;&gt;Node41 -->
<g id="edge21" class="edge">
<title>Node40&#45;&gt;Node41</title>
<path fill="none" stroke="#191970" d="M988.8548,-137.3158C940.1793,-124.3228 864.0903,-104.0122 819.4789,-92.1039"/>
<polygon fill="#191970" stroke="#191970" points="988.24,-140.7742 998.8044,-139.9717 990.0454,-134.011 988.24,-140.7742"/>
</g>
<!-- Node42 -->
<g id="node18" class="node">
<title>Node42</title>
<g id="a_node18"><a xlink:href="vfs__impl_8h_source.html" target="_top" xlink:title="l4/l4re_vfs/impl/vfs\l_impl.h">
<polygon fill="#ffffff" stroke="#000000" points="895.5,-.5 895.5,-30.5 999.5,-30.5 999.5,-.5 895.5,-.5"/>
<text text-anchor="start" x="903.5" y="-18.5" font-family="Helvetica,sans-Serif" font-size="10.00" fill="#000000">l4/l4re_vfs/impl/vfs</text>
<text text-anchor="middle" x="947.5" y="-7.5" font-family="Helvetica,sans-Serif" font-size="10.00" fill="#000000">_impl.h</text>
</a>
</g>
</g>
<!-- Node40&#45;&gt;Node42 -->
<g id="edge29" class="edge">
<title>Node40&#45;&gt;Node42</title>
<path fill="none" stroke="#191970" d="M1022.7929,-131.4684C1005.5009,-104.8347 973.4425,-55.4575 957.3109,-30.611"/>
<polygon fill="#191970" stroke="#191970" points="1019.8621,-133.3817 1028.2432,-139.8631 1025.7332,-129.5698 1019.8621,-133.3817"/>
</g>
<!-- Node43 -->
<g id="node19" class="node">
<title>Node43</title>
<g id="a_node19"><a xlink:href="ro__file_8h_source.html" target="_top" xlink:title="l4/l4re_vfs/impl/ro\l_file.h">
<polygon fill="#ffffff" stroke="#000000" points="1149.5,-67.5 1149.5,-97.5 1249.5,-97.5 1249.5,-67.5 1149.5,-67.5"/>
<text text-anchor="start" x="1157.5" y="-85.5" font-family="Helvetica,sans-Serif" font-size="10.00" fill="#000000">l4/l4re_vfs/impl/ro</text>
<text text-anchor="middle" x="1199.5" y="-74.5" font-family="Helvetica,sans-Serif" font-size="10.00" fill="#000000">_file.h</text>
</a>
</g>
</g>
<!-- Node40&#45;&gt;Node43 -->
<g id="edge24" class="edge">
<title>Node40&#45;&gt;Node43</title>
<path fill="none" stroke="#191970" d="M1067.6893,-136.0231C1095.1299,-124.8806 1134.0674,-109.0696 1162.5061,-97.5218"/>
<polygon fill="#191970" stroke="#191970" points="1066.0889,-132.8954 1058.1405,-139.9005 1068.7226,-139.3811 1066.0889,-132.8954"/>
</g>
<!-- Node45 -->
<g id="node21" class="node">
<title>Node45</title>
<g id="a_node21"><a xlink:href="vcon__stream_8h_source.html" target="_top" xlink:title="l4/l4re_vfs/impl/vcon\l_stream.h">
<polygon fill="#ffffff" stroke="#000000" points="1018,-67.5 1018,-97.5 1131,-97.5 1131,-67.5 1018,-67.5"/>
<text text-anchor="start" x="1026" y="-85.5" font-family="Helvetica,sans-Serif" font-size="10.00" fill="#000000">l4/l4re_vfs/impl/vcon</text>
<text text-anchor="middle" x="1074.5" y="-74.5" font-family="Helvetica,sans-Serif" font-size="10.00" fill="#000000">_stream.h</text>
</a>
</g>
</g>
<!-- Node40&#45;&gt;Node45 -->
<g id="edge26" class="edge">
<title>Node40&#45;&gt;Node45</title>
<path fill="none" stroke="#191970" d="M1045.4968,-131.0804C1051.7977,-120.5264 1059.6052,-107.4489 1065.5318,-97.5218"/>
<polygon fill="#191970" stroke="#191970" points="1042.352,-129.5202 1040.231,-139.9005 1048.3624,-133.1085 1042.352,-129.5202"/>
</g>
<!-- Node41&#45;&gt;Node34 -->
<g id="edge22" class="edge">
<title>Node41&#45;&gt;Node34</title>
<path fill="none" stroke="#191970" d="M762.5714,-66.9198C747.8425,-55.955 728.238,-41.3605 713.6785,-30.5218"/>
<polygon fill="#191970" stroke="#191970" points="760.4938,-69.7365 770.6052,-72.9005 764.6739,-64.1216 760.4938,-69.7365"/>
</g>
<!-- Node41&#45;&gt;Node42 -->
<g id="edge23" class="edge">
<title>Node41&#45;&gt;Node42</title>
<path fill="none" stroke="#191970" d="M816.4881,-69.0231C843.7624,-57.8806 882.4639,-42.0696 910.7303,-30.5218"/>
<polygon fill="#191970" stroke="#191970" points="814.9308,-65.8785 806.9972,-72.9005 817.5782,-72.3586 814.9308,-65.8785"/>
</g>
<!-- Node44 -->
<g id="node20" class="node">
<title>Node44</title>
<g id="a_node20"><a xlink:href="ro__file__impl_8h_source.html" target="_top" xlink:title="l4/l4re_vfs/impl/ro\l_file_impl.h">
<polygon fill="#ffffff" stroke="#000000" points="1149.5,-.5 1149.5,-30.5 1249.5,-30.5 1249.5,-.5 1149.5,-.5"/>
<text text-anchor="start" x="1157.5" y="-18.5" font-family="Helvetica,sans-Serif" font-size="10.00" fill="#000000">l4/l4re_vfs/impl/ro</text>
<text text-anchor="middle" x="1199.5" y="-7.5" font-family="Helvetica,sans-Serif" font-size="10.00" fill="#000000">_file_impl.h</text>
</a>
</g>
</g>
<!-- Node43&#45;&gt;Node44 -->
<g id="edge25" class="edge">
<title>Node43&#45;&gt;Node44</title>
<path fill="none" stroke="#191970" d="M1199.5,-57.0249C1199.5,-48.128 1199.5,-38.4287 1199.5,-30.6432"/>
<polygon fill="#191970" stroke="#191970" points="1196.0001,-57.2966 1199.5,-67.2967 1203.0001,-57.2967 1196.0001,-57.2966"/>
</g>
<!-- Node45&#45;&gt;Node42 -->
<g id="edge28" class="edge">
<title>Node45&#45;&gt;Node42</title>
<path fill="none" stroke="#191970" d="M1037.1095,-62.7743C1017.6978,-52.5335 994.3444,-40.2132 976.3456,-30.7177"/>
<polygon fill="#191970" stroke="#191970" points="1035.5209,-65.8934 1045.9987,-67.4639 1038.7872,-59.7021 1035.5209,-65.8934"/>
</g>
<!-- Node46 -->
<g id="node22" class="node">
<title>Node46</title>
<g id="a_node22"><a xlink:href="vcon__stream__impl_8h_source.html" target="_top" xlink:title="l4/l4re_vfs/impl/vcon\l_stream_impl.h">
<polygon fill="#ffffff" stroke="#000000" points="1018,-.5 1018,-30.5 1131,-30.5 1131,-.5 1018,-.5"/>
<text text-anchor="start" x="1026" y="-18.5" font-family="Helvetica,sans-Serif" font-size="10.00" fill="#000000">l4/l4re_vfs/impl/vcon</text>
<text text-anchor="middle" x="1074.5" y="-7.5" font-family="Helvetica,sans-Serif" font-size="10.00" fill="#000000">_stream_impl.h</text>
</a>
</g>
</g>
<!-- Node45&#45;&gt;Node46 -->
<g id="edge27" class="edge">
<title>Node45&#45;&gt;Node46</title>
<path fill="none" stroke="#191970" d="M1074.5,-57.0249C1074.5,-48.128 1074.5,-38.4287 1074.5,-30.6432"/>
<polygon fill="#191970" stroke="#191970" points="1071.0001,-57.2966 1074.5,-67.2967 1078.0001,-57.2967 1071.0001,-57.2966"/>
</g>
<!-- Node47&#45;&gt;Node42 -->
<g id="edge32" class="edge">
<title>Node47&#45;&gt;Node42</title>
<path fill="none" stroke="#191970" d="M1278.7112,-124.0904C1278.125,-105.5718 1274.0486,-81.3121 1258.5,-67 1217.3648,-29.1361 1064.3568,-41.7938 1009.5,-31 1006.2341,-30.3574 1002.8822,-29.6525 999.5093,-28.9088"/>
<polygon fill="#191970" stroke="#191970" points="1275.2111,-124.2126 1278.7133,-134.2118 1282.2111,-124.211 1275.2111,-124.2126"/>
</g>
<!-- Node48 -->
<g id="node24" class="node">
<title>Node48</title>
<g id="a_node24"><a xlink:href="fd__store__impl_8h_source.html" target="_top" xlink:title="l4/l4re_vfs/impl/fd\l_store_impl.h">
<polygon fill="#ffffff" stroke="#000000" points="1306,-67.5 1306,-97.5 1405,-97.5 1405,-67.5 1306,-67.5"/>
<text text-anchor="start" x="1314" y="-85.5" font-family="Helvetica,sans-Serif" font-size="10.00" fill="#000000">l4/l4re_vfs/impl/fd</text>
<text text-anchor="middle" x="1355.5" y="-74.5" font-family="Helvetica,sans-Serif" font-size="10.00" fill="#000000">_store_impl.h</text>
</a>
</g>
</g>
<!-- Node47&#45;&gt;Node48 -->
<g id="edge31" class="edge">
<title>Node47&#45;&gt;Node48</title>
<path fill="none" stroke="#191970" d="M1303.116,-127.4965C1314.4984,-117.7193 1327.6116,-106.4554 1337.8706,-97.6432"/>
<polygon fill="#191970" stroke="#191970" points="1300.5045,-125.1257 1295.1994,-134.2967 1305.0657,-130.4357 1300.5045,-125.1257"/>
</g>
<!-- Node49&#45;&gt;Node34 -->
<g id="edge35" class="edge">
<title>Node49&#45;&gt;Node34</title>
<path fill="none" stroke="#191970" d="M746.324,-133.8989C734.4953,-124.7713 720.8721,-112.2497 712.5,-98 700.066,-76.837 695.769,-48.177 694.2841,-30.8072"/>
<polygon fill="#191970" stroke="#191970" points="744.3885,-136.82 754.5192,-139.9215 748.5338,-131.1794 744.3885,-136.82"/>
</g>
<!-- Node49&#45;&gt;Node41 -->
<g id="edge34" class="edge">
<title>Node49&#45;&gt;Node41</title>
<path fill="none" stroke="#191970" d="M773.5775,-129.9863C776.1806,-117.5286 779.4409,-101.9258 781.4979,-92.0817"/>
<polygon fill="#191970" stroke="#191970" points="770.1253,-129.396 771.5059,-139.9005 776.9773,-130.8279 770.1253,-129.396"/>
</g>
<!-- Node50&#45;&gt;Node42 -->
<g id="edge38" class="edge">
<title>Node50&#45;&gt;Node42</title>
<path fill="none" stroke="#191970" d="M922.2914,-63.7565C927.7747,-53.2598 934.5199,-40.3476 939.6528,-30.5218"/>
<polygon fill="#191970" stroke="#191970" points="919.0427,-62.4165 917.5146,-72.9005 925.2471,-65.6576 919.0427,-62.4165"/>
</g>
</g>
</svg>
