<?xml version="1.0" encoding="UTF-8" standalone="no"?>
<!DOCTYPE svg PUBLIC "-//W3C//DTD SVG 1.1//EN"
 "http://www.w3.org/Graphics/SVG/1.1/DTD/svg11.dtd">
<!-- Generated by graphviz version 2.40.1 (20161225.0304)
 -->
<!-- Title: l4/sys/cxx/smart_capability_1x Pages: 1 -->
<svg width="632pt" height="218pt"
 viewBox="0.00 0.00 631.50 218.00" xmlns="http://www.w3.org/2000/svg" xmlns:xlink="http://www.w3.org/1999/xlink">
<g id="graph0" class="graph" transform="scale(1 1) rotate(0) translate(4 214)">
<title>l4/sys/cxx/smart_capability_1x</title>
<polygon fill="#ffffff" stroke="transparent" points="-4,4 -4,-214 627.5,-214 627.5,4 -4,4"/>
<!-- Node25 -->
<g id="node1" class="node">
<title>Node25</title>
<polygon fill="#bfbfbf" stroke="#000000" points="220.5,-190.5 220.5,-209.5 378.5,-209.5 378.5,-190.5 220.5,-190.5"/>
<text text-anchor="middle" x="299.5" y="-197.5" font-family="Helvetica,sans-Serif" font-size="10.00" fill="#000000">l4/sys/cxx/smart_capability_1x</text>
</g>
<!-- Node26 -->
<g id="node2" class="node">
<title>Node26</title>
<g id="a_node2"><a xlink:href="util_2shared__cap.html" target="_top" xlink:title="Shared_cap / Shared_del_cap. ">
<polygon fill="#ffffff" stroke="#000000" points="0,-134.5 0,-153.5 113,-153.5 113,-134.5 0,-134.5"/>
<text text-anchor="middle" x="56.5" y="-141.5" font-family="Helvetica,sans-Serif" font-size="10.00" fill="#000000">l4/re/util/shared_cap</text>
</a>
</g>
</g>
<!-- Node25&#45;&gt;Node26 -->
<g id="edge1" class="edge">
<title>Node25&#45;&gt;Node26</title>
<path fill="none" stroke="#191970" d="M248.1989,-188.1775C203.446,-177.8641 139.3516,-163.0934 97.8259,-153.5237"/>
<polygon fill="#191970" stroke="#191970" points="247.4723,-191.6017 258.0029,-190.4369 249.0443,-184.7805 247.4723,-191.6017"/>
</g>
<!-- Node29 -->
<g id="node5" class="node">
<title>Node29</title>
<g id="a_node5"><a xlink:href="util_2unique__cap.html" target="_top" xlink:title="Unique_cap / Unique_del_cap. ">
<polygon fill="#ffffff" stroke="#000000" points="138.5,-134.5 138.5,-153.5 248.5,-153.5 248.5,-134.5 138.5,-134.5"/>
<text text-anchor="middle" x="193.5" y="-141.5" font-family="Helvetica,sans-Serif" font-size="10.00" fill="#000000">l4/re/util/unique_cap</text>
</a>
</g>
</g>
<!-- Node25&#45;&gt;Node29 -->
<g id="edge4" class="edge">
<title>Node25&#45;&gt;Node29</title>
<path fill="none" stroke="#191970" d="M271.9778,-185.46C253.0092,-175.4388 228.3273,-162.3993 211.7522,-153.6427"/>
<polygon fill="#191970" stroke="#191970" points="270.5593,-188.669 281.0362,-190.2455 273.8292,-182.4796 270.5593,-188.669"/>
</g>
<!-- Node32 -->
<g id="node8" class="node">
<title>Node32</title>
<g id="a_node8"><a xlink:href="unique__cap.html" target="_top" xlink:title="Unique_cap / Unique_del_cap. ">
<polygon fill="#ffffff" stroke="#000000" points="359,-134.5 359,-153.5 454,-153.5 454,-134.5 359,-134.5"/>
<text text-anchor="middle" x="406.5" y="-141.5" font-family="Helvetica,sans-Serif" font-size="10.00" fill="#000000">l4/re/unique_cap</text>
</a>
</g>
</g>
<!-- Node25&#45;&gt;Node32 -->
<g id="edge9" class="edge">
<title>Node25&#45;&gt;Node32</title>
<path fill="none" stroke="#191970" d="M327.0199,-185.5971C346.2017,-175.558 371.2678,-162.4393 388.0756,-153.6427"/>
<polygon fill="#191970" stroke="#191970" points="325.375,-182.5075 318.138,-190.2455 328.6209,-188.7095 325.375,-182.5075"/>
</g>
<!-- Node36 -->
<g id="node12" class="node">
<title>Node36</title>
<g id="a_node12"><a xlink:href="shared__cap.html" target="_top" xlink:title="Shared_cap / Shared_del_cap. ">
<polygon fill="#ffffff" stroke="#000000" points="505,-134.5 505,-153.5 602,-153.5 602,-134.5 505,-134.5"/>
<text text-anchor="middle" x="553.5" y="-141.5" font-family="Helvetica,sans-Serif" font-size="10.00" fill="#000000">l4/re/shared_cap</text>
</a>
</g>
</g>
<!-- Node25&#45;&gt;Node36 -->
<g id="edge14" class="edge">
<title>Node25&#45;&gt;Node36</title>
<path fill="none" stroke="#191970" d="M352.8288,-188.2425C399.6205,-177.9262 466.8067,-163.1135 510.3034,-153.5237"/>
<polygon fill="#191970" stroke="#191970" points="351.8874,-184.8659 342.8756,-190.4369 353.3946,-191.7017 351.8874,-184.8659"/>
</g>
<!-- Node27 -->
<g id="node3" class="node">
<title>Node27</title>
<g id="a_node3"><a xlink:href="server_2l4virtio_source.html" target="_top" xlink:title="l4/l4virtio/server\l/l4virtio">
<polygon fill="#ffffff" stroke="#000000" points="3.5,-67.5 3.5,-97.5 95.5,-97.5 95.5,-67.5 3.5,-67.5"/>
<text text-anchor="start" x="11.5" y="-85.5" font-family="Helvetica,sans-Serif" font-size="10.00" fill="#000000">l4/l4virtio/server</text>
<text text-anchor="middle" x="49.5" y="-74.5" font-family="Helvetica,sans-Serif" font-size="10.00" fill="#000000">/l4virtio</text>
</a>
</g>
</g>
<!-- Node26&#45;&gt;Node27 -->
<g id="edge2" class="edge">
<title>Node26&#45;&gt;Node27</title>
<path fill="none" stroke="#191970" d="M54.2656,-124.3693C53.2767,-115.681 52.132,-105.6241 51.2124,-97.5446"/>
<polygon fill="#191970" stroke="#191970" points="50.7977,-124.8506 55.4063,-134.3906 57.7528,-124.0589 50.7977,-124.8506"/>
</g>
<!-- Node28 -->
<g id="node4" class="node">
<title>Node28</title>
<g id="a_node4"><a xlink:href="virtio-block_source.html" target="_top" xlink:title="l4/l4virtio/server\l/virtio&#45;block">
<polygon fill="#ffffff" stroke="#000000" points="40.5,-.5 40.5,-30.5 132.5,-30.5 132.5,-.5 40.5,-.5"/>
<text text-anchor="start" x="48.5" y="-18.5" font-family="Helvetica,sans-Serif" font-size="10.00" fill="#000000">l4/l4virtio/server</text>
<text text-anchor="middle" x="86.5" y="-7.5" font-family="Helvetica,sans-Serif" font-size="10.00" fill="#000000">/virtio&#45;block</text>
</a>
</g>
</g>
<!-- Node27&#45;&gt;Node28 -->
<g id="edge3" class="edge">
<title>Node27&#45;&gt;Node28</title>
<path fill="none" stroke="#191970" d="M62.7627,-58.4837C67.8897,-49.1996 73.6016,-38.8565 78.1374,-30.6432"/>
<polygon fill="#191970" stroke="#191970" points="59.6663,-56.8508 57.8959,-67.2967 65.794,-60.2348 59.6663,-56.8508"/>
</g>
<!-- Node29&#45;&gt;Node27 -->
<g id="edge5" class="edge">
<title>Node29&#45;&gt;Node27</title>
<path fill="none" stroke="#191970" d="M161.7649,-130.4465C138.981,-120.7159 108.2686,-107.5991 84.7264,-97.5446"/>
<polygon fill="#191970" stroke="#191970" points="160.4289,-133.6817 171,-134.3906 163.1783,-127.2442 160.4289,-133.6817"/>
</g>
<!-- Node29&#45;&gt;Node28 -->
<g id="edge6" class="edge">
<title>Node29&#45;&gt;Node28</title>
<path fill="none" stroke="#191970" d="M173.2606,-127.7177C163.4464,-119.3461 151.8005,-108.6766 142.5,-98 123.5112,-76.2016 105.4659,-47.7353 95.2139,-30.5769"/>
<polygon fill="#191970" stroke="#191970" points="171.0611,-130.4408 180.982,-134.1592 175.5453,-125.0657 171.0611,-130.4408"/>
</g>
<!-- Node30 -->
<g id="node6" class="node">
<title>Node30</title>
<g id="a_node6"><a xlink:href="util_2event.html" target="_top" xlink:title="l4/re/util/event">
<polygon fill="#ffffff" stroke="#000000" points="152,-73 152,-92 235,-92 235,-73 152,-73"/>
<text text-anchor="middle" x="193.5" y="-80" font-family="Helvetica,sans-Serif" font-size="10.00" fill="#000000">l4/re/util/event</text>
</a>
</g>
</g>
<!-- Node29&#45;&gt;Node30 -->
<g id="edge7" class="edge">
<title>Node29&#45;&gt;Node30</title>
<path fill="none" stroke="#191970" d="M193.5,-124.2462C193.5,-113.5519 193.5,-100.814 193.5,-92.2449"/>
<polygon fill="#191970" stroke="#191970" points="190.0001,-124.3906 193.5,-134.3906 197.0001,-124.3907 190.0001,-124.3906"/>
</g>
<!-- Node31 -->
<g id="node7" class="node">
<title>Node31</title>
<g id="a_node7"><a xlink:href="object__registry_source.html" target="_top" xlink:title="l4/re/util/object_registry">
<polygon fill="#ffffff" stroke="#000000" points="253,-73 253,-92 378,-92 378,-73 253,-73"/>
<text text-anchor="middle" x="315.5" y="-80" font-family="Helvetica,sans-Serif" font-size="10.00" fill="#000000">l4/re/util/object_registry</text>
</a>
</g>
</g>
<!-- Node29&#45;&gt;Node31 -->
<g id="edge8" class="edge">
<title>Node29&#45;&gt;Node31</title>
<path fill="none" stroke="#191970" d="M221.5078,-129.8813C244.5155,-118.2832 276.4797,-102.1701 296.5714,-92.0419"/>
<polygon fill="#191970" stroke="#191970" points="219.9166,-126.7638 212.5625,-134.3906 223.0676,-133.0145 219.9166,-126.7638"/>
</g>
<!-- Node33 -->
<g id="node9" class="node">
<title>Node33</title>
<g id="a_node9"><a xlink:href="ns__fs_8h_source.html" target="_top" xlink:title="l4/l4re_vfs/impl/ns_fs.h">
<polygon fill="#ffffff" stroke="#000000" points="434.5,-73 434.5,-92 558.5,-92 558.5,-73 434.5,-73"/>
<text text-anchor="middle" x="496.5" y="-80" font-family="Helvetica,sans-Serif" font-size="10.00" fill="#000000">l4/l4re_vfs/impl/ns_fs.h</text>
</a>
</g>
</g>
<!-- Node32&#45;&gt;Node33 -->
<g id="edge10" class="edge">
<title>Node32&#45;&gt;Node33</title>
<path fill="none" stroke="#191970" d="M429.229,-128.4685C446.0068,-117.0037 468.3074,-101.765 482.5362,-92.0419"/>
<polygon fill="#191970" stroke="#191970" points="426.8443,-125.8589 420.5625,-134.3906 430.7936,-131.6384 426.8443,-125.8589"/>
</g>
<!-- Node34 -->
<g id="node10" class="node">
<title>Node34</title>
<g id="a_node10"><a xlink:href="ns__fs__impl_8h_source.html" target="_top" xlink:title="l4/l4re_vfs/impl/ns\l_fs_impl.h">
<polygon fill="#ffffff" stroke="#000000" points="371,-.5 371,-30.5 472,-30.5 472,-.5 371,-.5"/>
<text text-anchor="start" x="379" y="-18.5" font-family="Helvetica,sans-Serif" font-size="10.00" fill="#000000">l4/l4re_vfs/impl/ns</text>
<text text-anchor="middle" x="421.5" y="-7.5" font-family="Helvetica,sans-Serif" font-size="10.00" fill="#000000">_fs_impl.h</text>
</a>
</g>
</g>
<!-- Node32&#45;&gt;Node34 -->
<g id="edge13" class="edge">
<title>Node32&#45;&gt;Node34</title>
<path fill="none" stroke="#191970" d="M408.8029,-124.2718C411.809,-98.5195 417.0064,-53.9952 419.7255,-30.7016"/>
<polygon fill="#191970" stroke="#191970" points="405.3106,-124.0032 407.6274,-134.3416 412.2634,-124.8149 405.3106,-124.0032"/>
</g>
<!-- Node33&#45;&gt;Node34 -->
<g id="edge11" class="edge">
<title>Node33&#45;&gt;Node34</title>
<path fill="none" stroke="#191970" d="M478.0177,-65.9892C465.8726,-55.1395 450.1082,-41.0566 438.3154,-30.5218"/>
<polygon fill="#191970" stroke="#191970" points="475.9649,-68.8485 485.7543,-72.9005 480.6284,-63.6282 475.9649,-68.8485"/>
</g>
<!-- Node35 -->
<g id="node11" class="node">
<title>Node35</title>
<g id="a_node11"><a xlink:href="vfs__impl_8h_source.html" target="_top" xlink:title="l4/l4re_vfs/impl/vfs\l_impl.h">
<polygon fill="#ffffff" stroke="#000000" points="519.5,-.5 519.5,-30.5 623.5,-30.5 623.5,-.5 519.5,-.5"/>
<text text-anchor="start" x="527.5" y="-18.5" font-family="Helvetica,sans-Serif" font-size="10.00" fill="#000000">l4/l4re_vfs/impl/vfs</text>
<text text-anchor="middle" x="571.5" y="-7.5" font-family="Helvetica,sans-Serif" font-size="10.00" fill="#000000">_impl.h</text>
</a>
</g>
</g>
<!-- Node33&#45;&gt;Node35 -->
<g id="edge12" class="edge">
<title>Node33&#45;&gt;Node35</title>
<path fill="none" stroke="#191970" d="M514.9823,-65.9892C527.1274,-55.1395 542.8918,-41.0566 554.6846,-30.5218"/>
<polygon fill="#191970" stroke="#191970" points="512.3716,-63.6282 507.2457,-72.9005 517.0351,-68.8485 512.3716,-63.6282"/>
</g>
<!-- Node36&#45;&gt;Node35 -->
<g id="edge15" class="edge">
<title>Node36&#45;&gt;Node35</title>
<path fill="none" stroke="#191970" d="M560.5462,-124.6652C563.201,-116.5407 565.9508,-106.9212 567.5,-98 571.5483,-74.6883 572.0398,-47.1547 571.8776,-30.5256"/>
<polygon fill="#191970" stroke="#191970" points="557.175,-123.7051 557.2198,-134.2998 563.7917,-125.9896 557.175,-123.7051"/>
</g>
</g>
</svg>
