<?xml version="1.0" encoding="UTF-8" standalone="no"?>
<!DOCTYPE svg PUBLIC "-//W3C//DTD SVG 1.1//EN"
 "http://www.w3.org/Graphics/SVG/1.1/DTD/svg11.dtd">
<!-- Generated by graphviz version 2.40.1 (20161225.0304)
 -->
<!-- Title: l4/util/splitlog2.h Pages: 1 -->
<svg width="336pt" height="252pt"
 viewBox="0.00 0.00 335.50 252.00" xmlns="http://www.w3.org/2000/svg" xmlns:xlink="http://www.w3.org/1999/xlink">
<g id="graph0" class="graph" transform="scale(1 1) rotate(0) translate(4 248)">
<title>l4/util/splitlog2.h</title>
<polygon fill="#ffffff" stroke="transparent" points="-4,4 -4,-248 331.5,-248 331.5,4 -4,4"/>
<!-- Node0 -->
<g id="node1" class="node">
<title>Node0</title>
<polygon fill="#bfbfbf" stroke="#000000" points="0,-224.5 0,-243.5 91,-243.5 91,-224.5 0,-224.5"/>
<text text-anchor="middle" x="45.5" y="-231.5" font-family="Helvetica,sans-Serif" font-size="10.00" fill="#000000">l4/util/splitlog2.h</text>
</g>
<!-- Node1 -->
<g id="node2" class="node">
<title>Node1</title>
<polygon fill="#ffffff" stroke="#bfbfbf" points="23,-.5 23,-19.5 112,-19.5 112,-.5 23,-.5"/>
<text text-anchor="middle" x="67.5" y="-7.5" font-family="Helvetica,sans-Serif" font-size="10.00" fill="#000000">l4/sys/linkage.h</text>
</g>
<!-- Node0&#45;&gt;Node1 -->
<g id="edge1" class="edge">
<title>Node0&#45;&gt;Node1</title>
<path fill="none" stroke="#191970" d="M32.169,-224.3825C21.8827,-216.0729 8.4389,-203.0499 2.5,-188 -.7628,-179.7316 .7764,-176.7202 2.5,-168 12.9956,-114.9005 41.5563,-57.2189 57.0943,-28.4689"/>
<polygon fill="#191970" stroke="#191970" points="60.2413,-30.0097 61.9962,-19.5612 54.1085,-26.6348 60.2413,-30.0097"/>
</g>
<!-- Node2 -->
<g id="node3" class="node">
<title>Node2</title>
<g id="a_node3"><a xlink:href="err_8h.html" target="_top" xlink:title="Error codes. ">
<polygon fill="#ffffff" stroke="#000000" points="11.5,-168.5 11.5,-187.5 79.5,-187.5 79.5,-168.5 11.5,-168.5"/>
<text text-anchor="middle" x="45.5" y="-175.5" font-family="Helvetica,sans-Serif" font-size="10.00" fill="#000000">l4/sys/err.h</text>
</a>
</g>
</g>
<!-- Node0&#45;&gt;Node2 -->
<g id="edge2" class="edge">
<title>Node0&#45;&gt;Node2</title>
<path fill="none" stroke="#191970" d="M45.5,-224.2455C45.5,-216.9382 45.5,-206.6944 45.5,-197.7046"/>
<polygon fill="#191970" stroke="#191970" points="49.0001,-197.6426 45.5,-187.6427 42.0001,-197.6427 49.0001,-197.6426"/>
</g>
<!-- Node4 -->
<g id="node5" class="node">
<title>Node4</title>
<g id="a_node5"><a xlink:href="bitops_8h.html" target="_top" xlink:title="bit manipulation functions ">
<polygon fill="#ffffff" stroke="#000000" points="145.5,-168.5 145.5,-187.5 225.5,-187.5 225.5,-168.5 145.5,-168.5"/>
<text text-anchor="middle" x="185.5" y="-175.5" font-family="Helvetica,sans-Serif" font-size="10.00" fill="#000000">l4/util/bitops.h</text>
</a>
</g>
</g>
<!-- Node0&#45;&gt;Node4 -->
<g id="edge5" class="edge">
<title>Node0&#45;&gt;Node4</title>
<path fill="none" stroke="#191970" d="M69.5669,-224.3733C92.3428,-215.2629 126.7344,-201.5062 152.149,-191.3404"/>
<polygon fill="#191970" stroke="#191970" points="153.7623,-194.4648 161.7472,-187.5011 151.1625,-187.9654 153.7623,-194.4648"/>
</g>
<!-- Node3 -->
<g id="node4" class="node">
<title>Node3</title>
<g id="a_node4"><a xlink:href="compiler_8h.html" target="_top" xlink:title="L4 compiler related defines. ">
<polygon fill="#ffffff" stroke="#000000" points="98,-56.5 98,-75.5 193,-75.5 193,-56.5 98,-56.5"/>
<text text-anchor="middle" x="145.5" y="-63.5" font-family="Helvetica,sans-Serif" font-size="10.00" fill="#000000">l4/sys/compiler.h</text>
</a>
</g>
</g>
<!-- Node2&#45;&gt;Node3 -->
<g id="edge3" class="edge">
<title>Node2&#45;&gt;Node3</title>
<path fill="none" stroke="#191970" d="M41.2735,-168.1207C36.0976,-154.3415 29.3087,-129.1211 40.5,-112 51.3954,-95.3316 69.8143,-84.6658 88.2111,-77.8566"/>
<polygon fill="#191970" stroke="#191970" points="89.4263,-81.1406 97.7894,-74.636 87.1954,-74.5056 89.4263,-81.1406"/>
</g>
<!-- Node3&#45;&gt;Node1 -->
<g id="edge4" class="edge">
<title>Node3&#45;&gt;Node1</title>
<path fill="none" stroke="#191970" d="M131.9134,-56.2455C120.1695,-47.814 102.9801,-35.4729 89.3118,-25.6598"/>
<polygon fill="#191970" stroke="#191970" points="91.0954,-22.6316 80.9309,-19.6427 87.0129,-28.3179 91.0954,-22.6316"/>
</g>
<!-- Node4&#45;&gt;Node3 -->
<g id="edge7" class="edge">
<title>Node4&#45;&gt;Node3</title>
<path fill="none" stroke="#191970" d="M182.9909,-168.487C179.4961,-155.5571 172.7688,-131.7789 165.5,-112 162.1685,-102.9347 157.9699,-93.0906 154.2807,-84.8438"/>
<polygon fill="#191970" stroke="#191970" points="157.4608,-83.3818 150.126,-75.7365 151.0922,-86.2872 157.4608,-83.3818"/>
</g>
<!-- Node5 -->
<g id="node6" class="node">
<title>Node5</title>
<g id="a_node6"><a xlink:href="l4_2sys_2l4int_8h.html" target="_top" xlink:title="Fixed sized integer types, generic version. ">
<polygon fill="#ffffff" stroke="#000000" points="253.5,-56.5 253.5,-75.5 327.5,-75.5 327.5,-56.5 253.5,-56.5"/>
<text text-anchor="middle" x="290.5" y="-63.5" font-family="Helvetica,sans-Serif" font-size="10.00" fill="#000000">l4/sys/l4int.h</text>
</a>
</g>
</g>
<!-- Node4&#45;&gt;Node5 -->
<g id="edge6" class="edge">
<title>Node4&#45;&gt;Node5</title>
<path fill="none" stroke="#191970" d="M224.0713,-168.4404C255.695,-159.7303 296.7711,-146.1067 306.5,-132 316.1808,-117.9629 309.8169,-98.7216 302.4472,-84.6363"/>
<polygon fill="#191970" stroke="#191970" points="305.3987,-82.7482 297.3692,-75.836 299.3356,-86.2468 305.3987,-82.7482"/>
</g>
<!-- Node6 -->
<g id="node7" class="node">
<title>Node6</title>
<polygon fill="#ffffff" stroke="#bfbfbf" points="50,-112.5 50,-131.5 157,-131.5 157,-112.5 50,-112.5"/>
<text text-anchor="middle" x="103.5" y="-119.5" font-family="Helvetica,sans-Serif" font-size="10.00" fill="#000000">l4/util/bitops_arch.h</text>
</g>
<!-- Node4&#45;&gt;Node6 -->
<g id="edge8" class="edge">
<title>Node4&#45;&gt;Node6</title>
<path fill="none" stroke="#191970" d="M171.2167,-168.2455C158.753,-159.7337 140.4549,-147.2375 126.0208,-137.3801"/>
<polygon fill="#191970" stroke="#191970" points="127.8515,-134.392 117.6196,-131.6427 123.9038,-140.1726 127.8515,-134.392"/>
</g>
<!-- Node7 -->
<g id="node8" class="node">
<title>Node7</title>
<g id="a_node8"><a xlink:href="l4_2util_2atomic_8h.html" target="_top" xlink:title="atomic operations header and generic implementations ">
<polygon fill="#ffffff" stroke="#000000" points="214,-112.5 214,-131.5 297,-131.5 297,-112.5 214,-112.5"/>
<text text-anchor="middle" x="255.5" y="-119.5" font-family="Helvetica,sans-Serif" font-size="10.00" fill="#000000">l4/util/atomic.h</text>
</a>
</g>
</g>
<!-- Node4&#45;&gt;Node7 -->
<g id="edge9" class="edge">
<title>Node4&#45;&gt;Node7</title>
<path fill="none" stroke="#191970" d="M197.6931,-168.2455C208.1321,-159.8943 223.3655,-147.7076 235.574,-137.9408"/>
<polygon fill="#191970" stroke="#191970" points="237.8244,-140.6227 243.4467,-131.6427 233.4515,-135.1566 237.8244,-140.6227"/>
</g>
<!-- Node7&#45;&gt;Node3 -->
<g id="edge11" class="edge">
<title>Node7&#45;&gt;Node3</title>
<path fill="none" stroke="#191970" d="M236.3395,-112.2455C218.9889,-103.4125 193.2099,-90.2887 173.5417,-80.2758"/>
<polygon fill="#191970" stroke="#191970" points="174.9405,-77.0605 164.441,-75.6427 171.7647,-83.2986 174.9405,-77.0605"/>
</g>
<!-- Node7&#45;&gt;Node5 -->
<g id="edge10" class="edge">
<title>Node7&#45;&gt;Node5</title>
<path fill="none" stroke="#191970" d="M261.5965,-112.2455C266.4145,-104.5367 273.2751,-93.5598 279.1032,-84.2348"/>
<polygon fill="#191970" stroke="#191970" points="282.1413,-85.9777 284.4733,-75.6427 276.2053,-82.2677 282.1413,-85.9777"/>
</g>
</g>
</svg>
