<?xml version="1.0" encoding="UTF-8" standalone="no"?>
<!DOCTYPE svg PUBLIC "-//W3C//DTD SVG 1.1//EN"
 "http://www.w3.org/Graphics/SVG/1.1/DTD/svg11.dtd">
<!-- Generated by graphviz version 2.40.1 (20161225.0304)
 -->
<!-- Title: l4/cxx/std_exc_io Pages: 1 -->
<svg width="951pt" height="823pt"
 viewBox="0.00 0.00 950.50 823.00" xmlns="http://www.w3.org/2000/svg" xmlns:xlink="http://www.w3.org/1999/xlink">
<g id="graph0" class="graph" transform="scale(1 1) rotate(0) translate(4 819)">
<title>l4/cxx/std_exc_io</title>
<polygon fill="#ffffff" stroke="transparent" points="-4,4 -4,-819 946.5,-819 946.5,4 -4,4"/>
<!-- Node0 -->
<g id="node1" class="node">
<title>Node0</title>
<polygon fill="#bfbfbf" stroke="#000000" points="742,-795.5 742,-814.5 840,-814.5 840,-795.5 742,-795.5"/>
<text text-anchor="middle" x="791" y="-802.5" font-family="Helvetica,sans-Serif" font-size="10.00" fill="#000000">l4/cxx/std_exc_io</text>
</g>
<!-- Node1 -->
<g id="node2" class="node">
<title>Node1</title>
<g id="a_node2"><a xlink:href="exceptions.html" target="_top" xlink:title="Base exceptions. ">
<polygon fill="#ffffff" stroke="#000000" points="694,-739.5 694,-758.5 792,-758.5 792,-739.5 694,-739.5"/>
<text text-anchor="middle" x="743" y="-746.5" font-family="Helvetica,sans-Serif" font-size="10.00" fill="#000000">l4/cxx/exceptions</text>
</a>
</g>
</g>
<!-- Node0&#45;&gt;Node1 -->
<g id="edge1" class="edge">
<title>Node0&#45;&gt;Node1</title>
<path fill="none" stroke="#191970" d="M782.639,-795.2455C775.825,-787.2958 766.0319,-775.8706 757.8848,-766.3656"/>
<polygon fill="#191970" stroke="#191970" points="760.4305,-763.9575 751.2651,-758.6427 755.1157,-768.513 760.4305,-763.9575"/>
</g>
<!-- Node30 -->
<g id="node31" class="node">
<title>Node30</title>
<g id="a_node31"><a xlink:href="iostream.html" target="_top" xlink:title="IO Stream. ">
<polygon fill="#ffffff" stroke="#000000" points="845.5,-739.5 845.5,-758.5 902.5,-758.5 902.5,-739.5 845.5,-739.5"/>
<text text-anchor="middle" x="874" y="-746.5" font-family="Helvetica,sans-Serif" font-size="10.00" fill="#000000">iostream</text>
</a>
</g>
</g>
<!-- Node0&#45;&gt;Node30 -->
<g id="edge68" class="edge">
<title>Node0&#45;&gt;Node30</title>
<path fill="none" stroke="#191970" d="M805.4575,-795.2455C818.0732,-786.7337 836.5944,-774.2375 851.2045,-764.3801"/>
<polygon fill="#191970" stroke="#191970" points="853.3761,-767.1371 859.7082,-758.6427 849.4609,-761.3343 853.3761,-767.1371"/>
</g>
<!-- Node2 -->
<g id="node3" class="node">
<title>Node2</title>
<g id="a_node3"><a xlink:href="l4types_8h.html" target="_top" xlink:title="L4 Types. ">
<polygon fill="#ffffff" stroke="#000000" points="754.5,-683.5 754.5,-702.5 843.5,-702.5 843.5,-683.5 754.5,-683.5"/>
<text text-anchor="middle" x="799" y="-690.5" font-family="Helvetica,sans-Serif" font-size="10.00" fill="#000000">l4/cxx/l4types.h</text>
</a>
</g>
</g>
<!-- Node1&#45;&gt;Node2 -->
<g id="edge2" class="edge">
<title>Node1&#45;&gt;Node2</title>
<path fill="none" stroke="#191970" d="M752.7545,-739.2455C760.8648,-731.1352 772.5925,-719.4075 782.2081,-709.7919"/>
<polygon fill="#191970" stroke="#191970" points="784.7611,-712.1887 789.3573,-702.6427 779.8113,-707.2389 784.7611,-712.1887"/>
</g>
<!-- Node10 -->
<g id="node11" class="node">
<title>Node10</title>
<g id="a_node11"><a xlink:href="basic__ostream.html" target="_top" xlink:title="Basic IO stream. ">
<polygon fill="#ffffff" stroke="#000000" points="827.5,-627.5 827.5,-646.5 942.5,-646.5 942.5,-627.5 827.5,-627.5"/>
<text text-anchor="middle" x="885" y="-634.5" font-family="Helvetica,sans-Serif" font-size="10.00" fill="#000000">l4/cxx/basic_ostream</text>
</a>
</g>
</g>
<!-- Node1&#45;&gt;Node10 -->
<g id="edge15" class="edge">
<title>Node1&#45;&gt;Node10</title>
<path fill="none" stroke="#191970" d="M784.0975,-739.4935C806.6824,-732.5294 833.9036,-721.0672 853,-703 866.2682,-690.4468 874.7141,-671.2408 879.5761,-656.7781"/>
<polygon fill="#191970" stroke="#191970" points="883.0403,-657.4181 882.616,-646.8317 876.3459,-655.372 883.0403,-657.4181"/>
</g>
<!-- Node11 -->
<g id="node12" class="node">
<title>Node11</title>
<g id="a_node12"><a xlink:href="err_8h.html" target="_top" xlink:title="Error codes. ">
<polygon fill="#ffffff" stroke="#000000" points="131,-224.5 131,-243.5 199,-243.5 199,-224.5 131,-224.5"/>
<text text-anchor="middle" x="165" y="-231.5" font-family="Helvetica,sans-Serif" font-size="10.00" fill="#000000">l4/sys/err.h</text>
</a>
</g>
</g>
<!-- Node1&#45;&gt;Node11 -->
<g id="edge16" class="edge">
<title>Node1&#45;&gt;Node11</title>
<path fill="none" stroke="#191970" d="M693.8804,-745.9539C539.614,-735.739 75,-699.7642 75,-637 75,-637 75,-637 75,-469 75,-383.2139 127.95,-290.7703 152.6216,-252.353"/>
<polygon fill="#191970" stroke="#191970" points="155.6815,-254.0693 158.2354,-243.7869 149.8267,-250.2324 155.6815,-254.0693"/>
</g>
<!-- Node12 -->
<g id="node13" class="node">
<title>Node12</title>
<g id="a_node13"><a xlink:href="capability.html" target="_top" xlink:title="L4::Cap related definitions. ">
<polygon fill="#ffffff" stroke="#000000" points="431,-683.5 431,-702.5 521,-702.5 521,-683.5 431,-683.5"/>
<text text-anchor="middle" x="476" y="-690.5" font-family="Helvetica,sans-Serif" font-size="10.00" fill="#000000">l4/sys/capability</text>
</a>
</g>
</g>
<!-- Node1&#45;&gt;Node12 -->
<g id="edge18" class="edge">
<title>Node1&#45;&gt;Node12</title>
<path fill="none" stroke="#191970" d="M697.4044,-739.4369C651.4215,-729.7925 580.3912,-714.8948 531.2394,-704.5858"/>
<polygon fill="#191970" stroke="#191970" points="531.913,-701.151 521.4075,-702.5237 530.4761,-708.0019 531.913,-701.151"/>
</g>
<!-- Node28 -->
<g id="node29" class="node">
<title>Node28</title>
<g id="a_node29"><a xlink:href="backtrace_8h.html" target="_top" xlink:title="Backtrace. ">
<polygon fill="#ffffff" stroke="#000000" points="638,-683.5 638,-702.5 736,-702.5 736,-683.5 638,-683.5"/>
<text text-anchor="middle" x="687" y="-690.5" font-family="Helvetica,sans-Serif" font-size="10.00" fill="#000000">l4/util/backtrace.h</text>
</a>
</g>
</g>
<!-- Node1&#45;&gt;Node28 -->
<g id="edge66" class="edge">
<title>Node1&#45;&gt;Node28</title>
<path fill="none" stroke="#191970" d="M733.2455,-739.2455C725.1352,-731.1352 713.4075,-719.4075 703.7919,-709.7919"/>
<polygon fill="#191970" stroke="#191970" points="706.1887,-707.2389 696.6427,-702.6427 701.2389,-712.1887 706.1887,-707.2389"/>
</g>
<!-- Node3 -->
<g id="node4" class="node">
<title>Node3</title>
<g id="a_node4"><a xlink:href="l4_2sys_2types_8h.html" target="_top" xlink:title="Common L4 ABI Data Types. ">
<polygon fill="#ffffff" stroke="#000000" points="366,-168.5 366,-187.5 446,-187.5 446,-168.5 366,-168.5"/>
<text text-anchor="middle" x="406" y="-175.5" font-family="Helvetica,sans-Serif" font-size="10.00" fill="#000000">l4/sys/types.h</text>
</a>
</g>
</g>
<!-- Node2&#45;&gt;Node3 -->
<g id="edge3" class="edge">
<title>Node2&#45;&gt;Node3</title>
<path fill="none" stroke="#191970" d="M797.3464,-683.2084C792.2301,-652.0305 777,-552.2319 777,-469 777,-469 777,-469 777,-413 777,-262.811 557.3356,-204.614 456.0581,-185.7634"/>
<polygon fill="#191970" stroke="#191970" points="456.5187,-182.2901 446.056,-183.9583 455.2754,-189.1788 456.5187,-182.2901"/>
</g>
<!-- Node2&#45;&gt;Node10 -->
<g id="edge14" class="edge">
<title>Node2&#45;&gt;Node10</title>
<path fill="none" stroke="#191970" d="M813.9801,-683.2455C827.1751,-674.6534 846.6051,-662.0014 861.8079,-652.1018"/>
<polygon fill="#191970" stroke="#191970" points="863.7215,-655.0325 870.1916,-646.6427 859.9017,-649.1665 863.7215,-655.0325"/>
</g>
<!-- Node4 -->
<g id="node5" class="node">
<title>Node4</title>
<g id="a_node5"><a xlink:href="l4_2sys_2l4int_8h.html" target="_top" xlink:title="Fixed sized integer types, generic version. ">
<polygon fill="#ffffff" stroke="#000000" points="499,-56.5 499,-75.5 573,-75.5 573,-56.5 499,-56.5"/>
<text text-anchor="middle" x="536" y="-63.5" font-family="Helvetica,sans-Serif" font-size="10.00" fill="#000000">l4/sys/l4int.h</text>
</a>
</g>
</g>
<!-- Node3&#45;&gt;Node4 -->
<g id="edge4" class="edge">
<title>Node3&#45;&gt;Node4</title>
<path fill="none" stroke="#191970" d="M446.1469,-171.1955C485.9504,-163.5342 542.8433,-149.7961 556,-132 566.3928,-117.9423 558.4236,-98.4494 549.6576,-84.2948"/>
<polygon fill="#191970" stroke="#191970" points="552.4665,-82.2003 543.9671,-75.8748 546.6668,-86.1199 552.4665,-82.2003"/>
</g>
<!-- Node5 -->
<g id="node6" class="node">
<title>Node5</title>
<g id="a_node6"><a xlink:href="compiler_8h.html" target="_top" xlink:title="L4 compiler related defines. ">
<polygon fill="#ffffff" stroke="#000000" points="187.5,-56.5 187.5,-75.5 282.5,-75.5 282.5,-56.5 187.5,-56.5"/>
<text text-anchor="middle" x="235" y="-63.5" font-family="Helvetica,sans-Serif" font-size="10.00" fill="#000000">l4/sys/compiler.h</text>
</a>
</g>
</g>
<!-- Node3&#45;&gt;Node5 -->
<g id="edge5" class="edge">
<title>Node3&#45;&gt;Node5</title>
<path fill="none" stroke="#191970" d="M382.0305,-168.4875C362.2362,-160.1488 333.7936,-147.032 311,-132 289.0899,-117.5506 266.73,-97.3393 251.9891,-83.0999"/>
<polygon fill="#191970" stroke="#191970" points="254.2222,-80.3874 244.6348,-75.8781 249.3176,-85.3819 254.2222,-80.3874"/>
</g>
<!-- Node7 -->
<g id="node8" class="node">
<title>Node7</title>
<g id="a_node8"><a xlink:href="l4_2sys_2consts_8h.html" target="_top" xlink:title="Common constants. ">
<polygon fill="#ffffff" stroke="#000000" points="604,-112.5 604,-131.5 690,-131.5 690,-112.5 604,-112.5"/>
<text text-anchor="middle" x="647" y="-119.5" font-family="Helvetica,sans-Serif" font-size="10.00" fill="#000000">l4/sys/consts.h</text>
</a>
</g>
</g>
<!-- Node3&#45;&gt;Node7 -->
<g id="edge7" class="edge">
<title>Node3&#45;&gt;Node7</title>
<path fill="none" stroke="#191970" d="M446.0668,-168.6899C487.2549,-159.1192 551.5167,-144.187 596.2377,-133.7954"/>
<polygon fill="#191970" stroke="#191970" points="597.0824,-137.1924 606.0307,-131.5198 595.498,-130.3741 597.0824,-137.1924"/>
</g>
<!-- Node8 -->
<g id="node9" class="node">
<title>Node8</title>
<g id="a_node9"><a xlink:href="____l4__fpage_8h_source.html" target="_top" xlink:title="l4/sys/__l4_fpage.h">
<polygon fill="#ffffff" stroke="#000000" points="320,-112.5 320,-131.5 428,-131.5 428,-112.5 320,-112.5"/>
<text text-anchor="middle" x="374" y="-119.5" font-family="Helvetica,sans-Serif" font-size="10.00" fill="#000000">l4/sys/__l4_fpage.h</text>
</a>
</g>
</g>
<!-- Node3&#45;&gt;Node8 -->
<g id="edge10" class="edge">
<title>Node3&#45;&gt;Node8</title>
<path fill="none" stroke="#191970" d="M400.426,-168.2455C396.0669,-160.617 389.8789,-149.7881 384.5867,-140.5267"/>
<polygon fill="#191970" stroke="#191970" points="387.5104,-138.5886 379.5101,-131.6427 381.4327,-142.0616 387.5104,-138.5886"/>
</g>
<!-- Node9 -->
<g id="node10" class="node">
<title>Node9</title>
<g id="a_node10"><a xlink:href="____timeout_8h_source.html" target="_top" xlink:title="l4/sys/__timeout.h">
<polygon fill="#ffffff" stroke="#000000" points="446.5,-112.5 446.5,-131.5 547.5,-131.5 547.5,-112.5 446.5,-112.5"/>
<text text-anchor="middle" x="497" y="-119.5" font-family="Helvetica,sans-Serif" font-size="10.00" fill="#000000">l4/sys/__timeout.h</text>
</a>
</g>
</g>
<!-- Node3&#45;&gt;Node9 -->
<g id="edge12" class="edge">
<title>Node3&#45;&gt;Node9</title>
<path fill="none" stroke="#191970" d="M421.851,-168.2455C435.8132,-159.6534 456.3728,-147.0014 472.4596,-137.1018"/>
<polygon fill="#191970" stroke="#191970" points="474.6484,-139.8645 481.3307,-131.6427 470.9797,-133.9029 474.6484,-139.8645"/>
</g>
<!-- Node6 -->
<g id="node7" class="node">
<title>Node6</title>
<polygon fill="#ffffff" stroke="#bfbfbf" points="190.5,-.5 190.5,-19.5 279.5,-19.5 279.5,-.5 190.5,-.5"/>
<text text-anchor="middle" x="235" y="-7.5" font-family="Helvetica,sans-Serif" font-size="10.00" fill="#000000">l4/sys/linkage.h</text>
</g>
<!-- Node5&#45;&gt;Node6 -->
<g id="edge6" class="edge">
<title>Node5&#45;&gt;Node6</title>
<path fill="none" stroke="#191970" d="M235,-56.2455C235,-48.9382 235,-38.6944 235,-29.7046"/>
<polygon fill="#191970" stroke="#191970" points="238.5001,-29.6426 235,-19.6427 231.5001,-29.6427 238.5001,-29.6426"/>
</g>
<!-- Node7&#45;&gt;Node4 -->
<g id="edge9" class="edge">
<title>Node7&#45;&gt;Node4</title>
<path fill="none" stroke="#191970" d="M627.9184,-112.3733C610.2598,-103.4644 583.7947,-90.1127 563.7902,-80.0203"/>
<polygon fill="#191970" stroke="#191970" points="565.3372,-76.8806 554.8326,-75.5011 562.1842,-83.1303 565.3372,-76.8806"/>
</g>
<!-- Node7&#45;&gt;Node5 -->
<g id="edge8" class="edge">
<title>Node7&#45;&gt;Node5</title>
<path fill="none" stroke="#191970" d="M603.6875,-116.1129C529.116,-105.9769 376.4541,-85.2268 292.8656,-73.8652"/>
<polygon fill="#191970" stroke="#191970" points="293.1579,-70.3729 282.7776,-72.494 292.215,-77.3091 293.1579,-70.3729"/>
</g>
<!-- Node8&#45;&gt;Node5 -->
<g id="edge11" class="edge">
<title>Node8&#45;&gt;Node5</title>
<path fill="none" stroke="#191970" d="M350.105,-112.3733C327.4918,-103.2629 293.3458,-89.5062 268.1127,-79.3404"/>
<polygon fill="#191970" stroke="#191970" points="269.1666,-75.9917 258.5831,-75.5011 266.5507,-82.4845 269.1666,-75.9917"/>
</g>
<!-- Node9&#45;&gt;Node4 -->
<g id="edge13" class="edge">
<title>Node9&#45;&gt;Node4</title>
<path fill="none" stroke="#191970" d="M503.7933,-112.2455C509.2178,-104.4564 516.9661,-93.3308 523.5033,-83.9439"/>
<polygon fill="#191970" stroke="#191970" points="526.4417,-85.849 529.2846,-75.6427 520.6975,-81.8485 526.4417,-85.849"/>
</g>
<!-- Node11&#45;&gt;Node5 -->
<g id="edge17" class="edge">
<title>Node11&#45;&gt;Node5</title>
<path fill="none" stroke="#191970" d="M168.9641,-224.4862C180.1252,-197.6994 211.9765,-121.2565 226.988,-85.2289"/>
<polygon fill="#191970" stroke="#191970" points="230.2896,-86.4048 230.905,-75.8279 223.8281,-83.7125 230.2896,-86.4048"/>
</g>
<!-- Node12&#45;&gt;Node3 -->
<g id="edge20" class="edge">
<title>Node12&#45;&gt;Node3</title>
<path fill="none" stroke="#191970" d="M489.3604,-683.2992C545.2007,-641.5413 753.4291,-473.0233 675,-336 627.6253,-253.2318 518.1602,-209.574 454.4302,-190.3818"/>
<polygon fill="#191970" stroke="#191970" points="455.1916,-186.9579 444.6111,-187.5094 453.2262,-193.6764 455.1916,-186.9579"/>
</g>
<!-- Node12&#45;&gt;Node7 -->
<g id="edge19" class="edge">
<title>Node12&#45;&gt;Node7</title>
<path fill="none" stroke="#191970" d="M506.1694,-683.4762C575.251,-659.5778 739,-590.1521 739,-469 739,-469 739,-469 739,-234 739,-191.5397 699.0299,-156.3942 671.781,-137.3678"/>
<polygon fill="#191970" stroke="#191970" points="673.7,-134.4405 663.4478,-131.768 669.7957,-140.2506 673.7,-134.4405"/>
</g>
<!-- Node13 -->
<g id="node14" class="node">
<title>Node13</title>
<g id="a_node14"><a xlink:href="kobject_source.html" target="_top" xlink:title="l4/sys/kobject">
<polygon fill="#ffffff" stroke="#000000" points="145,-515.5 145,-534.5 225,-534.5 225,-515.5 145,-515.5"/>
<text text-anchor="middle" x="185" y="-522.5" font-family="Helvetica,sans-Serif" font-size="10.00" fill="#000000">l4/sys/kobject</text>
</a>
</g>
</g>
<!-- Node12&#45;&gt;Node13 -->
<g id="edge21" class="edge">
<title>Node12&#45;&gt;Node13</title>
<path fill="none" stroke="#191970" d="M430.7636,-689.1917C370.4882,-683.2957 268.0488,-670.1515 239,-647 206.6822,-621.2431 193.1823,-572.1291 187.968,-544.7262"/>
<polygon fill="#191970" stroke="#191970" points="191.3978,-544.0181 186.2571,-534.754 184.4986,-545.2018 191.3978,-544.0181"/>
</g>
<!-- Node22 -->
<g id="node23" class="node">
<title>Node22</title>
<g id="a_node23"><a xlink:href="l4_2sys_2task_8h.html" target="_top" xlink:title="Common task related definitions. ">
<polygon fill="#ffffff" stroke="#000000" points="358,-342 358,-361 432,-361 432,-342 358,-342"/>
<text text-anchor="middle" x="395" y="-349" font-family="Helvetica,sans-Serif" font-size="10.00" fill="#000000">l4/sys/task.h</text>
</a>
</g>
</g>
<!-- Node12&#45;&gt;Node22 -->
<g id="edge49" class="edge">
<title>Node12&#45;&gt;Node22</title>
<path fill="none" stroke="#191970" d="M430.8726,-690.1004C365.7114,-683.1933 253,-659.8495 253,-581 253,-581 253,-581 253,-525 253,-462.7064 275.5044,-444.4566 322,-403 337.2431,-389.4089 356.118,-376.1745 370.856,-366.5254"/>
<polygon fill="#191970" stroke="#191970" points="372.9127,-369.364 379.4285,-361.0096 369.125,-363.4772 372.9127,-369.364"/>
</g>
<!-- Node23 -->
<g id="node24" class="node">
<title>Node23</title>
<g id="a_node24"><a xlink:href="sys_2meta.html" target="_top" xlink:title="Meta interface for getting dynamic type information about objects behind capabilities. ">
<polygon fill="#ffffff" stroke="#000000" points="405,-627.5 405,-646.5 475,-646.5 475,-627.5 405,-627.5"/>
<text text-anchor="middle" x="440" y="-634.5" font-family="Helvetica,sans-Serif" font-size="10.00" fill="#000000">l4/sys/meta</text>
</a>
</g>
</g>
<!-- Node12&#45;&gt;Node23 -->
<g id="edge50" class="edge">
<title>Node12&#45;&gt;Node23</title>
<path fill="none" stroke="#191970" d="M469.7293,-683.2455C464.7736,-675.5367 457.717,-664.5598 451.7224,-655.2348"/>
<polygon fill="#191970" stroke="#191970" points="454.5506,-653.1618 446.1989,-646.6427 448.6624,-656.9471 454.5506,-653.1618"/>
</g>
<!-- Node13&#45;&gt;Node3 -->
<g id="edge35" class="edge">
<title>Node13&#45;&gt;Node3</title>
<path fill="none" stroke="#191970" d="M177.8964,-515.2585C148.9722,-474.3318 45.1824,-314.261 122,-224 136.9678,-206.4128 278.5365,-190.2285 355.9693,-182.5993"/>
<polygon fill="#191970" stroke="#191970" points="356.3798,-186.076 365.9939,-181.6241 355.7019,-179.1089 356.3798,-186.076"/>
</g>
<!-- Node14 -->
<g id="node15" class="node">
<title>Node14</title>
<g id="a_node15"><a xlink:href="kernel__object_8h.html" target="_top" xlink:title="Kernel object system calls. ">
<polygon fill="#ffffff" stroke="#000000" points="141,-403.5 141,-422.5 229,-422.5 229,-403.5 141,-403.5"/>
<text text-anchor="middle" x="185" y="-410.5" font-family="Helvetica,sans-Serif" font-size="10.00" fill="#000000">kernel_object.h</text>
</a>
</g>
</g>
<!-- Node13&#45;&gt;Node14 -->
<g id="edge22" class="edge">
<title>Node13&#45;&gt;Node14</title>
<path fill="none" stroke="#191970" d="M185,-515.4509C185,-497.184 185,-456.9553 185,-432.6976"/>
<polygon fill="#191970" stroke="#191970" points="188.5001,-432.5249 185,-422.5249 181.5001,-432.5249 188.5001,-432.5249"/>
</g>
<!-- Node18 -->
<g id="node19" class="node">
<title>Node18</title>
<g id="a_node19"><a xlink:href="____typeinfo_8h.html" target="_top" xlink:title="Type information handling. ">
<polygon fill="#ffffff" stroke="#000000" points="281,-459.5 281,-478.5 355,-478.5 355,-459.5 281,-459.5"/>
<text text-anchor="middle" x="318" y="-466.5" font-family="Helvetica,sans-Serif" font-size="10.00" fill="#000000">__typeinfo.h</text>
</a>
</g>
</g>
<!-- Node13&#45;&gt;Node18 -->
<g id="edge36" class="edge">
<title>Node13&#45;&gt;Node18</title>
<path fill="none" stroke="#191970" d="M207.8635,-515.3733C229.405,-506.3032 261.8838,-492.6279 285.9956,-482.4755"/>
<polygon fill="#191970" stroke="#191970" points="287.5767,-485.6075 295.4348,-478.5011 284.8603,-479.156 287.5767,-485.6075"/>
</g>
<!-- Node14&#45;&gt;Node3 -->
<g id="edge23" class="edge">
<title>Node14&#45;&gt;Node3</title>
<path fill="none" stroke="#191970" d="M223.7199,-403.4857C246.467,-396.3765 274.6544,-384.7699 295,-367 350.5621,-318.472 385.6275,-235.0565 399.3763,-197.4219"/>
<polygon fill="#191970" stroke="#191970" points="402.7828,-198.2876 402.824,-187.6928 396.1848,-195.9495 402.7828,-198.2876"/>
</g>
<!-- Node14&#45;&gt;Node5 -->
<g id="edge24" class="edge">
<title>Node14&#45;&gt;Node5</title>
<path fill="none" stroke="#191970" d="M161.1932,-403.3918C111.2277,-381.4715 0,-322.7122 0,-234 0,-234 0,-234 0,-178 0,-136.754 119.4607,-97.3889 188.0355,-78.1897"/>
<polygon fill="#191970" stroke="#191970" points="189.0547,-81.5393 197.7636,-75.5055 187.1928,-74.7914 189.0547,-81.5393"/>
</g>
<!-- Node15 -->
<g id="node16" class="node">
<title>Node15</title>
<g id="a_node16"><a xlink:href="l4_2sys_2utcb_8h.html" target="_top" xlink:title="UTCB definitions. ">
<polygon fill="#ffffff" stroke="#000000" points="255,-224.5 255,-243.5 329,-243.5 329,-224.5 255,-224.5"/>
<text text-anchor="middle" x="292" y="-231.5" font-family="Helvetica,sans-Serif" font-size="10.00" fill="#000000">l4/sys/utcb.h</text>
</a>
</g>
</g>
<!-- Node14&#45;&gt;Node15 -->
<g id="edge25" class="edge">
<title>Node14&#45;&gt;Node15</title>
<path fill="none" stroke="#191970" d="M219.8862,-403.3476C238.6027,-396.3364 260.359,-384.8757 273,-367 297.0279,-333.022 296.7925,-281.8031 294.443,-253.8796"/>
<polygon fill="#191970" stroke="#191970" points="297.9085,-253.3626 293.4094,-243.7704 290.9448,-254.0746 297.9085,-253.3626"/>
</g>
<!-- Node16 -->
<g id="node17" class="node">
<title>Node16</title>
<g id="a_node17"><a xlink:href="____kernel__object__impl_8h.html" target="_top" xlink:title="Low&#45;level kernel debugger functions. ">
<polygon fill="#ffffff" stroke="#000000" points="142,-336.5 142,-366.5 264,-366.5 264,-336.5 142,-336.5"/>
<text text-anchor="start" x="150" y="-354.5" font-family="Helvetica,sans-Serif" font-size="10.00" fill="#000000">l4/sys/__kernel_object</text>
<text text-anchor="middle" x="203" y="-343.5" font-family="Helvetica,sans-Serif" font-size="10.00" fill="#000000">_impl.h</text>
</a>
</g>
</g>
<!-- Node14&#45;&gt;Node16 -->
<g id="edge29" class="edge">
<title>Node14&#45;&gt;Node16</title>
<path fill="none" stroke="#191970" d="M187.8125,-403.3906C189.9328,-396.1463 192.9411,-385.8679 195.7217,-376.3676"/>
<polygon fill="#191970" stroke="#191970" points="199.1467,-377.1251 198.5967,-366.5446 192.4286,-375.1588 199.1467,-377.1251"/>
</g>
<!-- Node17 -->
<g id="node18" class="node">
<title>Node17</title>
<g id="a_node18"><a xlink:href="l4_2sys_2ipc_8h.html" target="_top" xlink:title="Common IPC interface. ">
<polygon fill="#ffffff" stroke="#000000" points="181,-280.5 181,-299.5 249,-299.5 249,-280.5 181,-280.5"/>
<text text-anchor="middle" x="215" y="-287.5" font-family="Helvetica,sans-Serif" font-size="10.00" fill="#000000">l4/sys/ipc.h</text>
</a>
</g>
</g>
<!-- Node14&#45;&gt;Node17 -->
<g id="edge34" class="edge">
<title>Node14&#45;&gt;Node17</title>
<path fill="none" stroke="#191970" d="M167.9433,-403.377C155.6911,-395.4014 140.1292,-382.8248 133,-367 127.3408,-354.4381 126.0375,-347.8891 133,-336 141.6755,-321.186 157.0626,-310.7802 172.1825,-303.6608"/>
<polygon fill="#191970" stroke="#191970" points="173.7033,-306.8166 181.4998,-299.6426 170.9313,-300.3888 173.7033,-306.8166"/>
</g>
<!-- Node15&#45;&gt;Node3 -->
<g id="edge26" class="edge">
<title>Node15&#45;&gt;Node3</title>
<path fill="none" stroke="#191970" d="M311.5973,-224.3733C329.7331,-215.4644 356.9135,-202.1127 377.4587,-192.0203"/>
<polygon fill="#191970" stroke="#191970" points="379.2261,-195.0517 386.6584,-187.5011 376.1397,-188.7688 379.2261,-195.0517"/>
</g>
<!-- Node15&#45;&gt;Node4 -->
<g id="edge28" class="edge">
<title>Node15&#45;&gt;Node4</title>
<path fill="none" stroke="#191970" d="M290.19,-224.1873C286.5614,-201.1776 281.1125,-143.3316 311,-112 334.8844,-86.9616 429.8206,-74.7293 488.4762,-69.4481"/>
<polygon fill="#191970" stroke="#191970" points="488.9645,-72.9191 498.6259,-68.5708 488.3616,-65.9451 488.9645,-72.9191"/>
</g>
<!-- Node15&#45;&gt;Node5 -->
<g id="edge27" class="edge">
<title>Node15&#45;&gt;Node5</title>
<path fill="none" stroke="#191970" d="M288.7721,-224.4862C279.7227,-197.8144 253.9701,-121.9117 241.6822,-85.695"/>
<polygon fill="#191970" stroke="#191970" points="244.8619,-84.1731 238.3345,-75.8279 238.2331,-86.4222 244.8619,-84.1731"/>
</g>
<!-- Node16&#45;&gt;Node17 -->
<g id="edge30" class="edge">
<title>Node16&#45;&gt;Node17</title>
<path fill="none" stroke="#191970" d="M205.9663,-336.2977C207.5279,-328.2945 209.4616,-318.3843 211.1388,-309.7889"/>
<polygon fill="#191970" stroke="#191970" points="214.5987,-310.3322 213.0786,-299.8469 207.7282,-308.9915 214.5987,-310.3322"/>
</g>
<!-- Node17&#45;&gt;Node3 -->
<g id="edge31" class="edge">
<title>Node17&#45;&gt;Node3</title>
<path fill="none" stroke="#191970" d="M216.8777,-280.3902C220.194,-265.9986 228.4647,-238.945 246,-224 262.6288,-209.8276 315.4213,-196.3511 355.8628,-187.6915"/>
<polygon fill="#191970" stroke="#191970" points="356.7808,-191.0752 365.8489,-185.5963 355.3433,-184.2244 356.7808,-191.0752"/>
</g>
<!-- Node17&#45;&gt;Node11 -->
<g id="edge33" class="edge">
<title>Node17&#45;&gt;Node11</title>
<path fill="none" stroke="#191970" d="M206.2907,-280.2455C199.1927,-272.2958 188.9916,-260.8706 180.505,-251.3656"/>
<polygon fill="#191970" stroke="#191970" points="182.8805,-248.771 173.6095,-243.6427 177.6589,-253.4331 182.8805,-248.771"/>
</g>
<!-- Node17&#45;&gt;Node15 -->
<g id="edge32" class="edge">
<title>Node17&#45;&gt;Node15</title>
<path fill="none" stroke="#191970" d="M228.4124,-280.2455C240.0057,-271.814 256.9748,-259.4729 270.4678,-249.6598"/>
<polygon fill="#191970" stroke="#191970" points="272.7126,-252.355 278.7413,-243.6427 268.5953,-246.6938 272.7126,-252.355"/>
</g>
<!-- Node19 -->
<g id="node20" class="node">
<title>Node19</title>
<g id="a_node20"><a xlink:href="types.html" target="_top" xlink:title="cxx/types">
<polygon fill="#ffffff" stroke="#000000" points="604.5,-342 604.5,-361 665.5,-361 665.5,-342 604.5,-342"/>
<text text-anchor="middle" x="635" y="-349" font-family="Helvetica,sans-Serif" font-size="10.00" fill="#000000">cxx/types</text>
</a>
</g>
</g>
<!-- Node18&#45;&gt;Node19 -->
<g id="edge37" class="edge">
<title>Node18&#45;&gt;Node19</title>
<path fill="none" stroke="#191970" d="M342.0396,-459.4559C364.2768,-450.4859 398.1498,-436.4624 427,-423 444.6524,-414.7629 447.897,-410.1929 466,-403 519.3312,-381.8099 535.2988,-384.3497 590,-367 592.7321,-366.1335 595.55,-365.2172 598.3803,-364.2805"/>
<polygon fill="#191970" stroke="#191970" points="599.5838,-367.5684 607.9441,-361.0603 597.35,-360.9344 599.5838,-367.5684"/>
</g>
<!-- Node20 -->
<g id="node21" class="node">
<title>Node20</title>
<g id="a_node21"><a xlink:href="ipc__basics_source.html" target="_top" xlink:title="cxx/ipc_basics">
<polygon fill="#ffffff" stroke="#000000" points="475,-403.5 475,-422.5 559,-422.5 559,-403.5 475,-403.5"/>
<text text-anchor="middle" x="517" y="-410.5" font-family="Helvetica,sans-Serif" font-size="10.00" fill="#000000">cxx/ipc_basics</text>
</a>
</g>
</g>
<!-- Node18&#45;&gt;Node20 -->
<g id="edge38" class="edge">
<title>Node18&#45;&gt;Node20</title>
<path fill="none" stroke="#191970" d="M352.2093,-459.3733C385.7297,-449.9404 436.9505,-435.5265 473.381,-425.2747"/>
<polygon fill="#191970" stroke="#191970" points="474.5591,-428.5792 483.2371,-422.5011 472.6628,-421.8409 474.5591,-428.5792"/>
</g>
<!-- Node21 -->
<g id="node22" class="node">
<title>Node21</title>
<g id="a_node22"><a xlink:href="capability_8h_source.html" target="_top" xlink:title="cxx/capability.h">
<polygon fill="#ffffff" stroke="#000000" points="331.5,-403.5 331.5,-422.5 418.5,-422.5 418.5,-403.5 331.5,-403.5"/>
<text text-anchor="middle" x="375" y="-410.5" font-family="Helvetica,sans-Serif" font-size="10.00" fill="#000000">cxx/capability.h</text>
</a>
</g>
</g>
<!-- Node18&#45;&gt;Node21 -->
<g id="edge42" class="edge">
<title>Node18&#45;&gt;Node21</title>
<path fill="none" stroke="#191970" d="M327.9286,-459.2455C336.1838,-451.1352 348.1209,-439.4075 357.9082,-429.7919"/>
<polygon fill="#191970" stroke="#191970" points="360.5046,-432.1476 365.1851,-422.6427 355.5989,-427.1542 360.5046,-432.1476"/>
</g>
<!-- Node20&#45;&gt;Node11 -->
<g id="edge41" class="edge">
<title>Node20&#45;&gt;Node11</title>
<path fill="none" stroke="#191970" d="M509.8452,-403.3839C497.4627,-387.3507 470.5146,-355.0417 441,-336 366.2876,-287.7985 265.5883,-257.9912 208.7732,-243.847"/>
<polygon fill="#191970" stroke="#191970" points="209.574,-240.4398 199.0292,-241.4681 207.9137,-247.2401 209.574,-240.4398"/>
</g>
<!-- Node20&#45;&gt;Node15 -->
<g id="edge40" class="edge">
<title>Node20&#45;&gt;Node15</title>
<path fill="none" stroke="#191970" d="M520.2287,-403.225C527.528,-379.0888 542.4073,-316.0185 512,-280 490.2135,-254.1932 397.2976,-242.2542 339.409,-237.2282"/>
<polygon fill="#191970" stroke="#191970" points="339.6389,-233.7354 329.3836,-236.3962 339.0599,-240.7114 339.6389,-233.7354"/>
</g>
<!-- Node20&#45;&gt;Node19 -->
<g id="edge39" class="edge">
<title>Node20&#45;&gt;Node19</title>
<path fill="none" stroke="#191970" d="M535.4375,-403.3906C554.8347,-393.2811 585.569,-377.2628 607.7617,-365.6962"/>
<polygon fill="#191970" stroke="#191970" points="609.4418,-368.7675 616.692,-361.0419 606.2064,-362.56 609.4418,-368.7675"/>
</g>
<!-- Node21&#45;&gt;Node3 -->
<g id="edge44" class="edge">
<title>Node21&#45;&gt;Node3</title>
<path fill="none" stroke="#191970" d="M398.7859,-403.4178C413.8669,-395.9442 432.1462,-383.9629 441,-367 470.6532,-310.1877 436.1203,-232.2528 417.0147,-196.8576"/>
<polygon fill="#191970" stroke="#191970" points="419.819,-194.7012 411.8843,-187.6805 413.709,-198.117 419.819,-194.7012"/>
</g>
<!-- Node21&#45;&gt;Node7 -->
<g id="edge43" class="edge">
<title>Node21&#45;&gt;Node7</title>
<path fill="none" stroke="#191970" d="M398.6537,-403.4733C416.6952,-395.4695 441.5087,-382.812 460,-367 542.4222,-296.5202 611.5449,-184.078 636.7666,-140.2901"/>
<polygon fill="#191970" stroke="#191970" points="639.8186,-142.0034 641.7226,-131.581 633.7347,-138.5413 639.8186,-142.0034"/>
</g>
<!-- Node21&#45;&gt;Node22 -->
<g id="edge45" class="edge">
<title>Node21&#45;&gt;Node22</title>
<path fill="none" stroke="#191970" d="M378.125,-403.3906C380.9265,-394.776 385.1233,-381.8708 388.6306,-371.0858"/>
<polygon fill="#191970" stroke="#191970" points="392.0667,-371.8371 391.8309,-361.2449 385.4098,-369.6722 392.0667,-371.8371"/>
</g>
<!-- Node22&#45;&gt;Node3 -->
<g id="edge46" class="edge">
<title>Node22&#45;&gt;Node3</title>
<path fill="none" stroke="#191970" d="M395.6071,-341.9248C397.3459,-314.499 402.3715,-235.232 404.7386,-197.8964"/>
<polygon fill="#191970" stroke="#191970" points="408.2414,-197.961 405.3812,-187.7595 401.2554,-197.518 408.2414,-197.961"/>
</g>
<!-- Node22&#45;&gt;Node15 -->
<g id="edge47" class="edge">
<title>Node22&#45;&gt;Node15</title>
<path fill="none" stroke="#191970" d="M386.5711,-341.8845C369.2183,-322.0889 329.2879,-276.5372 307.2679,-251.4173"/>
<polygon fill="#191970" stroke="#191970" points="309.7692,-248.9611 300.5454,-243.7484 304.5053,-253.5754 309.7692,-248.9611"/>
</g>
<!-- Node22&#45;&gt;Node17 -->
<g id="edge48" class="edge">
<title>Node22&#45;&gt;Node17</title>
<path fill="none" stroke="#191970" d="M366.875,-341.8906C336.0972,-331.3749 286.6079,-314.466 252.5345,-302.8243"/>
<polygon fill="#191970" stroke="#191970" points="253.522,-299.4631 242.9275,-299.5419 251.2588,-306.0871 253.522,-299.4631"/>
</g>
<!-- Node23&#45;&gt;Node13 -->
<g id="edge51" class="edge">
<title>Node23&#45;&gt;Node13</title>
<path fill="none" stroke="#191970" d="M418.2588,-627.4509C372.9991,-607.5722 268.5242,-561.6852 216.1363,-538.6756"/>
<polygon fill="#191970" stroke="#191970" points="217.2494,-535.3418 206.6861,-534.5249 214.4344,-541.7508 217.2494,-535.3418"/>
</g>
<!-- Node24 -->
<g id="node25" class="node">
<title>Node24</title>
<g id="a_node25"><a xlink:href="ipc__iface.html" target="_top" xlink:title="Interface Definition Language. ">
<polygon fill="#ffffff" stroke="#000000" points="315.5,-515.5 315.5,-534.5 392.5,-534.5 392.5,-515.5 315.5,-515.5"/>
<text text-anchor="middle" x="354" y="-522.5" font-family="Helvetica,sans-Serif" font-size="10.00" fill="#000000">cxx/ipc_iface</text>
</a>
</g>
</g>
<!-- Node23&#45;&gt;Node24 -->
<g id="edge52" class="edge">
<title>Node23&#45;&gt;Node24</title>
<path fill="none" stroke="#191970" d="M432.6677,-627.4509C418.2604,-608.688 386.0617,-566.7548 367.6356,-542.758"/>
<polygon fill="#191970" stroke="#191970" points="370.1801,-540.3248 361.3138,-534.5249 364.628,-544.588 370.1801,-540.3248"/>
</g>
<!-- Node26 -->
<g id="node27" class="node">
<title>Node26</title>
<g id="a_node27"><a xlink:href="ipc__string_source.html" target="_top" xlink:title="cxx/ipc_string">
<polygon fill="#ffffff" stroke="#000000" points="469.5,-571.5 469.5,-590.5 550.5,-590.5 550.5,-571.5 469.5,-571.5"/>
<text text-anchor="middle" x="510" y="-578.5" font-family="Helvetica,sans-Serif" font-size="10.00" fill="#000000">cxx/ipc_string</text>
</a>
</g>
</g>
<!-- Node23&#45;&gt;Node26 -->
<g id="edge59" class="edge">
<title>Node23&#45;&gt;Node26</title>
<path fill="none" stroke="#191970" d="M452.1931,-627.2455C462.6321,-618.8943 477.8655,-606.7076 490.074,-596.9408"/>
<polygon fill="#191970" stroke="#191970" points="492.3244,-599.6227 497.9467,-590.6427 487.9515,-594.1566 492.3244,-599.6227"/>
</g>
<!-- Node24&#45;&gt;Node18 -->
<g id="edge58" class="edge">
<title>Node24&#45;&gt;Node18</title>
<path fill="none" stroke="#191970" d="M347.7293,-515.2455C342.7736,-507.5367 335.717,-496.5598 329.7224,-487.2348"/>
<polygon fill="#191970" stroke="#191970" points="332.5506,-485.1618 324.1989,-478.6427 326.6624,-488.9471 332.5506,-485.1618"/>
</g>
<!-- Node24&#45;&gt;Node20 -->
<g id="edge53" class="edge">
<title>Node24&#45;&gt;Node20</title>
<path fill="none" stroke="#191970" d="M359.6516,-515.2087C368.2484,-501.0736 385.8646,-474.906 407,-459 426.5611,-444.2789 451.5259,-433.3418 472.7266,-425.8343"/>
<polygon fill="#191970" stroke="#191970" points="474.1351,-429.0524 482.4797,-422.5241 471.8853,-422.4238 474.1351,-429.0524"/>
</g>
<!-- Node25 -->
<g id="node26" class="node">
<title>Node25</title>
<g id="a_node26"><a xlink:href="ipc__types.html" target="_top" xlink:title="l4/sys/cxx/ipc_types">
<polygon fill="#ffffff" stroke="#000000" points="449,-459.5 449,-478.5 559,-478.5 559,-459.5 449,-459.5"/>
<text text-anchor="middle" x="504" y="-466.5" font-family="Helvetica,sans-Serif" font-size="10.00" fill="#000000">l4/sys/cxx/ipc_types</text>
</a>
</g>
</g>
<!-- Node24&#45;&gt;Node25 -->
<g id="edge54" class="edge">
<title>Node24&#45;&gt;Node25</title>
<path fill="none" stroke="#191970" d="M379.7859,-515.3733C404.4047,-506.1822 441.69,-492.2624 468.9875,-482.0713"/>
<polygon fill="#191970" stroke="#191970" points="470.4063,-485.2777 478.5506,-478.5011 467.958,-478.7198 470.4063,-485.2777"/>
</g>
<!-- Node25&#45;&gt;Node19 -->
<g id="edge56" class="edge">
<title>Node25&#45;&gt;Node19</title>
<path fill="none" stroke="#191970" d="M519.1041,-459.3608C532.4803,-450.5461 552.268,-436.8131 568,-423 587.2348,-406.1114 607.005,-384.3748 620.0361,-369.3236"/>
<polygon fill="#191970" stroke="#191970" points="623.0388,-371.1975 626.8749,-361.3215 617.7173,-366.6496 623.0388,-371.1975"/>
</g>
<!-- Node25&#45;&gt;Node20 -->
<g id="edge57" class="edge">
<title>Node25&#45;&gt;Node20</title>
<path fill="none" stroke="#191970" d="M506.2644,-459.2455C507.9794,-451.8579 510.3912,-441.4689 512.4944,-432.4087"/>
<polygon fill="#191970" stroke="#191970" points="515.9095,-433.1751 514.7615,-422.6427 509.0908,-431.5922 515.9095,-433.1751"/>
</g>
<!-- Node25&#45;&gt;Node21 -->
<g id="edge55" class="edge">
<title>Node25&#45;&gt;Node21</title>
<path fill="none" stroke="#191970" d="M481.8241,-459.3733C461.0234,-450.3435 429.7083,-436.7494 406.3542,-426.6111"/>
<polygon fill="#191970" stroke="#191970" points="407.4532,-423.2727 396.8865,-422.5011 404.6657,-429.6938 407.4532,-423.2727"/>
</g>
<!-- Node26&#45;&gt;Node19 -->
<g id="edge60" class="edge">
<title>Node26&#45;&gt;Node19</title>
<path fill="none" stroke="#191970" d="M533.8208,-571.3537C550.1798,-563.6595 571.3285,-551.4437 585,-535 625.3818,-486.4298 633.3321,-407.984 634.7713,-371.4328"/>
<polygon fill="#191970" stroke="#191970" points="638.2781,-371.2174 635.0427,-361.1286 631.2805,-371.033 638.2781,-371.2174"/>
</g>
<!-- Node26&#45;&gt;Node20 -->
<g id="edge61" class="edge">
<title>Node26&#45;&gt;Node20</title>
<path fill="none" stroke="#191970" d="M496.7763,-571.2135C470.509,-550.5311 416.2581,-500.8393 440,-459 448.2586,-444.4463 463.1516,-434.0054 477.6541,-426.7891"/>
<polygon fill="#191970" stroke="#191970" points="479.4083,-429.8359 487.0542,-422.5017 476.5034,-423.4671 479.4083,-429.8359"/>
</g>
<!-- Node27 -->
<g id="node28" class="node">
<title>Node27</title>
<g id="a_node28"><a xlink:href="ipc__array_source.html" target="_top" xlink:title="ipc_array">
<polygon fill="#ffffff" stroke="#000000" points="515.5,-515.5 515.5,-534.5 576.5,-534.5 576.5,-515.5 515.5,-515.5"/>
<text text-anchor="middle" x="546" y="-522.5" font-family="Helvetica,sans-Serif" font-size="10.00" fill="#000000">ipc_array</text>
</a>
</g>
</g>
<!-- Node26&#45;&gt;Node27 -->
<g id="edge62" class="edge">
<title>Node26&#45;&gt;Node27</title>
<path fill="none" stroke="#191970" d="M516.2707,-571.2455C521.2264,-563.5367 528.283,-552.5598 534.2776,-543.2348"/>
<polygon fill="#191970" stroke="#191970" points="537.3376,-544.9471 539.8011,-534.6427 531.4494,-541.1618 537.3376,-544.9471"/>
</g>
<!-- Node27&#45;&gt;Node19 -->
<g id="edge63" class="edge">
<title>Node27&#45;&gt;Node19</title>
<path fill="none" stroke="#191970" d="M555.414,-515.4454C563.7624,-506.579 575.8603,-492.7194 584,-479 605.2882,-443.1189 621.3037,-396.7132 629.3074,-370.9392"/>
<polygon fill="#191970" stroke="#191970" points="632.6938,-371.8323 632.239,-361.2473 625.9936,-369.8056 632.6938,-371.8323"/>
</g>
<!-- Node27&#45;&gt;Node20 -->
<g id="edge64" class="edge">
<title>Node27&#45;&gt;Node20</title>
<path fill="none" stroke="#191970" d="M553.6332,-515.3828C563.0002,-502.335 576.6379,-478.4234 568,-459 562.5492,-446.7432 552.0401,-436.3755 541.9711,-428.6036"/>
<polygon fill="#191970" stroke="#191970" points="543.904,-425.6828 533.7373,-422.7012 539.8256,-431.3721 543.904,-425.6828"/>
</g>
<!-- Node27&#45;&gt;Node25 -->
<g id="edge65" class="edge">
<title>Node27&#45;&gt;Node25</title>
<path fill="none" stroke="#191970" d="M538.6842,-515.2455C532.7821,-507.3761 524.3258,-496.101 517.2406,-486.6542"/>
<polygon fill="#191970" stroke="#191970" points="520.0321,-484.5427 511.232,-478.6427 514.432,-488.7427 520.0321,-484.5427"/>
</g>
<!-- Node29 -->
<g id="node30" class="node">
<title>Node29</title>
<polygon fill="#ffffff" stroke="#bfbfbf" points="701.5,-627.5 701.5,-646.5 770.5,-646.5 770.5,-627.5 701.5,-627.5"/>
<text text-anchor="middle" x="736" y="-634.5" font-family="Helvetica,sans-Serif" font-size="10.00" fill="#000000">sys/cdefs.h</text>
</g>
<!-- Node28&#45;&gt;Node29 -->
<g id="edge67" class="edge">
<title>Node28&#45;&gt;Node29</title>
<path fill="none" stroke="#191970" d="M695.5351,-683.2455C702.4912,-675.2958 712.4883,-663.8706 720.8051,-654.3656"/>
<polygon fill="#191970" stroke="#191970" points="723.6116,-656.4732 727.5627,-646.6427 718.3436,-651.8637 723.6116,-656.4732"/>
</g>
<!-- Node30&#45;&gt;Node10 -->
<g id="edge69" class="edge">
<title>Node30&#45;&gt;Node10</title>
<path fill="none" stroke="#191970" d="M877.3127,-739.2724C880.264,-730.0586 884.3617,-715.7706 886,-703 887.9624,-687.7032 887.5852,-670.2498 886.7859,-657.1346"/>
<polygon fill="#191970" stroke="#191970" points="890.256,-656.6017 886.023,-646.8892 883.2753,-657.1215 890.256,-656.6017"/>
</g>
</g>
</svg>
