<?xml version="1.0" encoding="UTF-8" standalone="no"?>
<!DOCTYPE svg PUBLIC "-//W3C//DTD SVG 1.1//EN"
 "http://www.w3.org/Graphics/SVG/1.1/DTD/svg11.dtd">
<!-- Generated by graphviz version 2.40.1 (20161225.0304)
 -->
<!-- Title: l4_snd_fpage_t Pages: 1 -->
<svg width="98pt" height="182pt"
 viewBox="0.00 0.00 98.00 182.00" xmlns="http://www.w3.org/2000/svg" xmlns:xlink="http://www.w3.org/1999/xlink">
<g id="graph0" class="graph" transform="scale(1 1) rotate(0) translate(4 178)">
<title>l4_snd_fpage_t</title>
<polygon fill="#ffffff" stroke="transparent" points="-4,4 -4,-178 94,-178 94,4 -4,4"/>
<!-- Node1 -->
<g id="node1" class="node">
<title>Node1</title>
<polygon fill="#bfbfbf" stroke="#000000" points="0,-.5 0,-57.5 90,-57.5 90,-.5 0,-.5"/>
<text text-anchor="middle" x="45" y="-45.5" font-family="Helvetica,sans-Serif" font-size="10.00" fill="#000000">l4_snd_fpage_t</text>
<polyline fill="none" stroke="#000000" points="0,-38.5 90,-38.5 "/>
<text text-anchor="start" x="8" y="-26.5" font-family="Helvetica,sans-Serif" font-size="10.00" fill="#000000">+ snd_base</text>
<polyline fill="none" stroke="#000000" points="0,-19.5 90,-19.5 "/>
<text text-anchor="middle" x="45" y="-7.5" font-family="Helvetica,sans-Serif" font-size="10.00" fill="#000000"> </text>
</g>
<!-- Node2 -->
<g id="node2" class="node">
<title>Node2</title>
<g id="a_node2"><a xlink:href="unionl4__fpage__t.html" target="_top" xlink:title="L4 flexpage type. ">
<polygon fill="#ffffff" stroke="#000000" points="11.5,-105.5 11.5,-173.5 78.5,-173.5 78.5,-105.5 11.5,-105.5"/>
<text text-anchor="middle" x="45" y="-161.5" font-family="Helvetica,sans-Serif" font-size="10.00" fill="#000000">l4_fpage_t</text>
<polyline fill="none" stroke="#000000" points="11.5,-154.5 78.5,-154.5 "/>
<text text-anchor="start" x="19.5" y="-142.5" font-family="Helvetica,sans-Serif" font-size="10.00" fill="#000000">+ fpage</text>
<text text-anchor="start" x="19.5" y="-131.5" font-family="Helvetica,sans-Serif" font-size="10.00" fill="#000000">+ raw</text>
<polyline fill="none" stroke="#000000" points="11.5,-124.5 78.5,-124.5 "/>
<text text-anchor="middle" x="45" y="-112.5" font-family="Helvetica,sans-Serif" font-size="10.00" fill="#000000"> </text>
</a>
</g>
</g>
<!-- Node2&#45;&gt;Node1 -->
<g id="edge1" class="edge">
<title>Node2&#45;&gt;Node1</title>
<path fill="none" stroke="#404040" d="M45,-105.4447C45,-94.175 45,-81.5186 45,-69.7959"/>
<polygon fill="none" stroke="#404040" points="45.0001,-69.5519 41,-63.5519 45,-57.5519 49,-63.5519 45.0001,-69.5519"/>
<text text-anchor="middle" x="63.5" y="-79" font-family="Helvetica,sans-Serif" font-size="10.00" fill="#000000"> +fpage</text>
</g>
</g>
</svg>
