<?xml version="1.0" encoding="UTF-8" standalone="no"?>
<!DOCTYPE svg PUBLIC "-//W3C//DTD SVG 1.1//EN"
 "http://www.w3.org/Graphics/SVG/1.1/DTD/svg11.dtd">
<!-- Generated by graphviz version 2.40.1 (20161225.0304)
 -->
<!-- Title: L4::Kobject_typeid::proto_dispatch Pages: 1 -->
<svg width="290pt" height="39pt"
 viewBox="0.00 0.00 290.00 39.00" xmlns="http://www.w3.org/2000/svg" xmlns:xlink="http://www.w3.org/1999/xlink">
<g id="graph0" class="graph" transform="scale(1 1) rotate(0) translate(4 35)">
<title>L4::Kobject_typeid::proto_dispatch</title>
<polygon fill="#ffffff" stroke="transparent" points="-4,4 -4,-35 286,-35 286,4 -4,4"/>
<!-- Node6 -->
<g id="node1" class="node">
<title>Node6</title>
<polygon fill="#bfbfbf" stroke="#000000" points="0,-.5 0,-30.5 102,-30.5 102,-.5 0,-.5"/>
<text text-anchor="start" x="8" y="-18.5" font-family="Helvetica,sans-Serif" font-size="10.00" fill="#000000">L4::Kobject_typeid</text>
<text text-anchor="middle" x="51" y="-7.5" font-family="Helvetica,sans-Serif" font-size="10.00" fill="#000000">::proto_dispatch</text>
</g>
<!-- Node7 -->
<g id="node2" class="node">
<title>Node7</title>
<g id="a_node2"><a xlink:href="structL4_1_1Server__object__t.html#a0272837ace7417acf9497fc9b1c40fc2" target="_top" xlink:title="Implementation of protocol&#45;based dispatch for this server object. ">
<polygon fill="#ffffff" stroke="#000000" points="138,-.5 138,-30.5 282,-30.5 282,-.5 138,-.5"/>
<text text-anchor="start" x="146" y="-18.5" font-family="Helvetica,sans-Serif" font-size="10.00" fill="#000000">L4::Server_object_t</text>
<text text-anchor="middle" x="210" y="-7.5" font-family="Helvetica,sans-Serif" font-size="10.00" fill="#000000">&lt; Kobject &gt;::proto_dispatch</text>
</a>
</g>
</g>
<!-- Node6&#45;&gt;Node7 -->
<g id="edge1" class="edge">
<title>Node6&#45;&gt;Node7</title>
<path fill="none" stroke="#191970" d="M112.2197,-15.5C120.5853,-15.5 129.2365,-15.5 137.7748,-15.5"/>
<polygon fill="#191970" stroke="#191970" points="112.1838,-12.0001 102.1838,-15.5 112.1838,-19.0001 112.1838,-12.0001"/>
</g>
</g>
</svg>
