<?xml version="1.0" encoding="UTF-8" standalone="no"?>
<!DOCTYPE svg PUBLIC "-//W3C//DTD SVG 1.1//EN"
 "http://www.w3.org/Graphics/SVG/1.1/DTD/svg11.dtd">
<!-- Generated by graphviz version 2.40.1 (20161225.0304)
 -->
<!-- Title: L4virtio::Virtqueue::Desc::Flags::indirect Pages: 1 -->
<svg width="417pt" height="88pt"
 viewBox="0.00 0.00 417.00 88.00" xmlns="http://www.w3.org/2000/svg" xmlns:xlink="http://www.w3.org/1999/xlink">
<g id="graph0" class="graph" transform="scale(1 1) rotate(0) translate(4 84)">
<title>L4virtio::Virtqueue::Desc::Flags::indirect</title>
<polygon fill="#ffffff" stroke="transparent" points="-4,4 -4,-84 413,-84 413,4 -4,4"/>
<!-- Node1 -->
<g id="node1" class="node">
<title>Node1</title>
<polygon fill="#bfbfbf" stroke="#000000" points="0,-24.5 0,-54.5 114,-54.5 114,-24.5 0,-24.5"/>
<text text-anchor="start" x="8" y="-42.5" font-family="Helvetica,sans-Serif" font-size="10.00" fill="#000000">L4virtio::Virtqueue</text>
<text text-anchor="middle" x="57" y="-31.5" font-family="Helvetica,sans-Serif" font-size="10.00" fill="#000000">::Desc::Flags::indirect</text>
</g>
<!-- Node2 -->
<g id="node2" class="node">
<title>Node2</title>
<g id="a_node2"><a xlink:href="classL4virtio_1_1Svr_1_1Request__processor.html#a0bb9280caa7b899486ccd83bcf0588cd" target="_top" xlink:title="Switch to the next descriptor in a descriptor chain. ">
<polygon fill="#ffffff" stroke="#000000" points="150,-49.5 150,-79.5 265,-79.5 265,-49.5 150,-49.5"/>
<text text-anchor="start" x="158" y="-67.5" font-family="Helvetica,sans-Serif" font-size="10.00" fill="#000000">L4virtio::Svr::Request</text>
<text text-anchor="middle" x="207.5" y="-56.5" font-family="Helvetica,sans-Serif" font-size="10.00" fill="#000000">_processor::next</text>
</a>
</g>
</g>
<!-- Node1&#45;&gt;Node2 -->
<g id="edge1" class="edge">
<title>Node1&#45;&gt;Node2</title>
<path fill="none" stroke="#191970" d="M124.2566,-50.6722C132.7923,-52.0901 141.4667,-53.531 149.8339,-54.9209"/>
<polygon fill="#191970" stroke="#191970" points="124.7653,-47.2088 114.3269,-49.0227 123.6182,-54.1142 124.7653,-47.2088"/>
</g>
<!-- Node4 -->
<g id="node4" class="node">
<title>Node4</title>
<g id="a_node4"><a xlink:href="classL4virtio_1_1Svr_1_1Request__processor.html#abcf6a6b8bf80e0d73d45b5eb9e817abd" target="_top" xlink:title="Start processing a new request. ">
<polygon fill="#ffffff" stroke="#000000" points="150,-.5 150,-30.5 265,-30.5 265,-.5 150,-.5"/>
<text text-anchor="start" x="158" y="-18.5" font-family="Helvetica,sans-Serif" font-size="10.00" fill="#000000">L4virtio::Svr::Request</text>
<text text-anchor="middle" x="207.5" y="-7.5" font-family="Helvetica,sans-Serif" font-size="10.00" fill="#000000">_processor::start</text>
</a>
</g>
</g>
<!-- Node1&#45;&gt;Node4 -->
<g id="edge3" class="edge">
<title>Node1&#45;&gt;Node4</title>
<path fill="none" stroke="#191970" d="M124.2566,-28.7747C132.7923,-27.4135 141.4667,-26.0302 149.8339,-24.6959"/>
<polygon fill="#191970" stroke="#191970" points="123.6509,-25.327 114.3269,-30.3582 124.7534,-32.2396 123.6509,-25.327"/>
</g>
<!-- Node3 -->
<g id="node3" class="node">
<title>Node3</title>
<g id="a_node3"><a xlink:href="classL4virtio_1_1Svr_1_1Block__request.html#a5f6bf664cda7dfe4f82d8726f6c33099" target="_top" xlink:title="Compute the total size of the data in the request. ">
<polygon fill="#ffffff" stroke="#000000" points="301,-24.5 301,-54.5 409,-54.5 409,-24.5 301,-24.5"/>
<text text-anchor="start" x="309" y="-42.5" font-family="Helvetica,sans-Serif" font-size="10.00" fill="#000000">L4virtio::Svr::Block</text>
<text text-anchor="middle" x="355" y="-31.5" font-family="Helvetica,sans-Serif" font-size="10.00" fill="#000000">_request::data_size</text>
</a>
</g>
</g>
<!-- Node2&#45;&gt;Node3 -->
<g id="edge2" class="edge">
<title>Node2&#45;&gt;Node3</title>
<path fill="none" stroke="#191970" d="M275.2824,-53.0115C283.7891,-51.5696 292.4024,-50.1098 300.6656,-48.7092"/>
<polygon fill="#191970" stroke="#191970" points="274.647,-49.5691 265.3726,-54.6911 275.8169,-56.4707 274.647,-49.5691"/>
</g>
<!-- Node4&#45;&gt;Node3 -->
<g id="edge4" class="edge">
<title>Node4&#45;&gt;Node3</title>
<path fill="none" stroke="#191970" d="M275.2824,-26.529C283.7891,-27.9131 292.4024,-29.3146 300.6656,-30.6591"/>
<polygon fill="#191970" stroke="#191970" points="275.8049,-23.0681 265.3726,-24.9166 274.6806,-29.9772 275.8049,-23.0681"/>
</g>
</g>
</svg>
