<?xml version="1.0" encoding="UTF-8" standalone="no"?>
<!DOCTYPE svg PUBLIC "-//W3C//DTD SVG 1.1//EN"
 "http://www.w3.org/Graphics/SVG/1.1/DTD/svg11.dtd">
<!-- Generated by graphviz version 2.40.1 (20161225.0304)
 -->
<!-- Title: L4::Types::Flags_t&lt; DT, T &gt; Pages: 1 -->
<svg width="169pt" height="376pt"
 viewBox="0.00 0.00 169.00 376.00" xmlns="http://www.w3.org/2000/svg" xmlns:xlink="http://www.w3.org/1999/xlink">
<g id="graph0" class="graph" transform="scale(1 1) rotate(0) translate(4 372)">
<title>L4::Types::Flags_t&lt; DT, T &gt;</title>
<polygon fill="#ffffff" stroke="transparent" points="-4,4 -4,-372 165,-372 165,4 -4,4"/>
<!-- Node0 -->
<g id="node1" class="node">
<title>Node0</title>
<polygon fill="#bfbfbf" stroke="#000000" points="10.5,-.5 10.5,-79.5 111.5,-79.5 111.5,-.5 10.5,-.5"/>
<text text-anchor="start" x="18.5" y="-67.5" font-family="Helvetica,sans-Serif" font-size="10.00" fill="#000000">L4::Types::Flags_t</text>
<text text-anchor="middle" x="61" y="-56.5" font-family="Helvetica,sans-Serif" font-size="10.00" fill="#000000">&lt; DT, T &gt;</text>
<polyline fill="none" stroke="#000000" points="10.5,-49.5 111.5,-49.5 "/>
<text text-anchor="start" x="18.5" y="-37.5" font-family="Helvetica,sans-Serif" font-size="10.00" fill="#000000">+ raw</text>
<polyline fill="none" stroke="#000000" points="10.5,-30.5 111.5,-30.5 "/>
<text text-anchor="start" x="18.5" y="-18.5" font-family="Helvetica,sans-Serif" font-size="10.00" fill="#000000">+ Flags_t()</text>
<text text-anchor="start" x="18.5" y="-7.5" font-family="Helvetica,sans-Serif" font-size="10.00" fill="#000000">+ Flags_t()</text>
</g>
<!-- Node1 -->
<g id="node2" class="node">
<title>Node1</title>
<g id="a_node2"><a xlink:href="structL4_1_1Types_1_1Flags__ops__t.html" target="_top" xlink:title="{L4::Types::Flags_ops\l_t\&lt; Flags_t\&lt; DT, T \&gt; \&gt;\n||+ operator\|=()\l+ operator &amp;=()\l+ operator bool()\l+ operator~()\l}">
<polygon fill="#ffffff" stroke="#000000" points="0,-117.5 0,-218.5 122,-218.5 122,-117.5 0,-117.5"/>
<text text-anchor="start" x="8" y="-206.5" font-family="Helvetica,sans-Serif" font-size="10.00" fill="#000000">L4::Types::Flags_ops</text>
<text text-anchor="middle" x="61" y="-195.5" font-family="Helvetica,sans-Serif" font-size="10.00" fill="#000000">_t&lt; Flags_t&lt; DT, T &gt; &gt;</text>
<polyline fill="none" stroke="#000000" points="0,-188.5 122,-188.5 "/>
<text text-anchor="middle" x="61" y="-176.5" font-family="Helvetica,sans-Serif" font-size="10.00" fill="#000000"> </text>
<polyline fill="none" stroke="#000000" points="0,-169.5 122,-169.5 "/>
<text text-anchor="start" x="8" y="-157.5" font-family="Helvetica,sans-Serif" font-size="10.00" fill="#000000">+ operator|=()</text>
<text text-anchor="start" x="8" y="-146.5" font-family="Helvetica,sans-Serif" font-size="10.00" fill="#000000">+ operator &amp;=()</text>
<text text-anchor="start" x="8" y="-135.5" font-family="Helvetica,sans-Serif" font-size="10.00" fill="#000000">+ operator bool()</text>
<text text-anchor="start" x="8" y="-124.5" font-family="Helvetica,sans-Serif" font-size="10.00" fill="#000000">+ operator~()</text>
</a>
</g>
</g>
<!-- Node1&#45;&gt;Node0 -->
<g id="edge1" class="edge">
<title>Node1&#45;&gt;Node0</title>
<path fill="none" stroke="#191970" d="M61,-107.2732C61,-97.8606 61,-88.3534 61,-79.5688"/>
<polygon fill="none" stroke="#191970" points="57.5001,-107.411 61,-117.411 64.5001,-107.411 57.5001,-107.411"/>
</g>
<!-- Node2 -->
<g id="node3" class="node">
<title>Node2</title>
<g id="a_node3"><a xlink:href="structL4_1_1Types_1_1Flags__ops__t.html" target="_top" xlink:title="Mixin class to define a set of friend bitwise operators on DT. ">
<polygon fill="#ffffff" stroke="#000000" points="3,-266.5 3,-367.5 119,-367.5 119,-266.5 3,-266.5"/>
<text text-anchor="start" x="11" y="-355.5" font-family="Helvetica,sans-Serif" font-size="10.00" fill="#000000">L4::Types::Flags_ops</text>
<text text-anchor="middle" x="61" y="-344.5" font-family="Helvetica,sans-Serif" font-size="10.00" fill="#000000">_t&lt; DT &gt;</text>
<polyline fill="none" stroke="#000000" points="3,-337.5 119,-337.5 "/>
<text text-anchor="middle" x="61" y="-325.5" font-family="Helvetica,sans-Serif" font-size="10.00" fill="#000000"> </text>
<polyline fill="none" stroke="#000000" points="3,-318.5 119,-318.5 "/>
<text text-anchor="start" x="11" y="-306.5" font-family="Helvetica,sans-Serif" font-size="10.00" fill="#000000">+ operator|=()</text>
<text text-anchor="start" x="11" y="-295.5" font-family="Helvetica,sans-Serif" font-size="10.00" fill="#000000">+ operator&amp;=()</text>
<text text-anchor="start" x="11" y="-284.5" font-family="Helvetica,sans-Serif" font-size="10.00" fill="#000000">+ operator bool()</text>
<text text-anchor="start" x="11" y="-273.5" font-family="Helvetica,sans-Serif" font-size="10.00" fill="#000000">+ operator~()</text>
</a>
</g>
</g>
<!-- Node2&#45;&gt;Node1 -->
<g id="edge2" class="edge">
<title>Node2&#45;&gt;Node1</title>
<path fill="none" stroke="#ffa500" d="M61,-255.8874C61,-243.5023 61,-230.6068 61,-218.6314"/>
<polygon fill="#ffa500" stroke="#ffa500" points="57.5001,-256.1394 61,-266.1394 64.5001,-256.1394 57.5001,-256.1394"/>
<text text-anchor="middle" x="111" y="-240" font-family="Helvetica,sans-Serif" font-size="10.00" fill="#000000"> &lt; Flags_t&lt; DT, T &gt; &gt;</text>
</g>
</g>
</svg>
