<?xml version="1.0" encoding="UTF-8" standalone="no"?>
<!DOCTYPE svg PUBLIC "-//W3C//DTD SVG 1.1//EN"
 "http://www.w3.org/Graphics/SVG/1.1/DTD/svg11.dtd">
<!-- Generated by graphviz version 2.40.1 (20161225.0304)
 -->
<!-- Title: L4::Ipc::Msg::Do_out_data Pages: 1 -->
<svg width="256pt" height="160pt"
 viewBox="0.00 0.00 255.50 160.00" xmlns="http://www.w3.org/2000/svg" xmlns:xlink="http://www.w3.org/1999/xlink">
<g id="graph0" class="graph" transform="scale(1 1) rotate(0) translate(4 156)">
<title>L4::Ipc::Msg::Do_out_data</title>
<polygon fill="#ffffff" stroke="transparent" points="-4,4 -4,-156 251.5,-156 251.5,4 -4,4"/>
<!-- Node0 -->
<g id="node1" class="node">
<title>Node0</title>
<polygon fill="#bfbfbf" stroke="#000000" points="52.5,-.5 52.5,-57.5 189.5,-57.5 189.5,-.5 52.5,-.5"/>
<text text-anchor="middle" x="121" y="-45.5" font-family="Helvetica,sans-Serif" font-size="10.00" fill="#000000">L4::Ipc::Msg::Do_out_data</text>
<polyline fill="none" stroke="#000000" points="52.5,-38.5 189.5,-38.5 "/>
<text text-anchor="middle" x="121" y="-26.5" font-family="Helvetica,sans-Serif" font-size="10.00" fill="#000000"> </text>
<polyline fill="none" stroke="#000000" points="52.5,-19.5 189.5,-19.5 "/>
<text text-anchor="middle" x="121" y="-7.5" font-family="Helvetica,sans-Serif" font-size="10.00" fill="#000000"> </text>
</g>
<!-- Node1 -->
<g id="node2" class="node">
<title>Node1</title>
<g id="a_node2"><a xlink:href="structL4_1_1Ipc_1_1Msg_1_1Dir__out.html" target="_top" xlink:title="Marker type for output values. ">
<polygon fill="#ffffff" stroke="#000000" points="0,-94.5 0,-151.5 110,-151.5 110,-94.5 0,-94.5"/>
<text text-anchor="middle" x="55" y="-139.5" font-family="Helvetica,sans-Serif" font-size="10.00" fill="#000000">L4::Ipc::Msg::Dir_out</text>
<polyline fill="none" stroke="#000000" points="0,-132.5 110,-132.5 "/>
<text text-anchor="middle" x="55" y="-120.5" font-family="Helvetica,sans-Serif" font-size="10.00" fill="#000000"> </text>
<polyline fill="none" stroke="#000000" points="0,-113.5 110,-113.5 "/>
<text text-anchor="middle" x="55" y="-101.5" font-family="Helvetica,sans-Serif" font-size="10.00" fill="#000000"> </text>
</a>
</g>
</g>
<!-- Node1&#45;&gt;Node0 -->
<g id="edge1" class="edge">
<title>Node1&#45;&gt;Node0</title>
<path fill="none" stroke="#191970" d="M81.0918,-85.839C87.7038,-76.4219 94.7031,-66.4531 100.9627,-57.538"/>
<polygon fill="none" stroke="#191970" points="78.0427,-84.0908 75.1608,-94.2861 83.7716,-88.1132 78.0427,-84.0908"/>
</g>
<!-- Node2 -->
<g id="node3" class="node">
<title>Node2</title>
<g id="a_node3"><a xlink:href="structL4_1_1Ipc_1_1Msg_1_1Cls__data.html" target="_top" xlink:title="Marker type for data values. ">
<polygon fill="#ffffff" stroke="#000000" points="128.5,-94.5 128.5,-151.5 247.5,-151.5 247.5,-94.5 128.5,-94.5"/>
<text text-anchor="middle" x="188" y="-139.5" font-family="Helvetica,sans-Serif" font-size="10.00" fill="#000000">L4::Ipc::Msg::Cls_data</text>
<polyline fill="none" stroke="#000000" points="128.5,-132.5 247.5,-132.5 "/>
<text text-anchor="middle" x="188" y="-120.5" font-family="Helvetica,sans-Serif" font-size="10.00" fill="#000000"> </text>
<polyline fill="none" stroke="#000000" points="128.5,-113.5 247.5,-113.5 "/>
<text text-anchor="middle" x="188" y="-101.5" font-family="Helvetica,sans-Serif" font-size="10.00" fill="#000000"> </text>
</a>
</g>
</g>
<!-- Node2&#45;&gt;Node0 -->
<g id="edge2" class="edge">
<title>Node2&#45;&gt;Node0</title>
<path fill="none" stroke="#191970" d="M161.7182,-86.1271C154.9458,-76.6254 147.7601,-66.5441 141.3409,-57.538"/>
<polygon fill="none" stroke="#191970" points="158.8794,-88.1744 167.5337,-94.2861 164.5796,-84.1115 158.8794,-88.1744"/>
</g>
</g>
</svg>
