<?xml version="1.0" encoding="UTF-8" standalone="no"?>
<!DOCTYPE svg PUBLIC "-//W3C//DTD SVG 1.1//EN"
 "http://www.w3.org/Graphics/SVG/1.1/DTD/svg11.dtd">
<!-- Generated by graphviz version 2.40.1 (20161225.0304)
 -->
<!-- Title: L4::Epiface_t&lt; Derived, IFACE, BASE, bool &gt; Pages: 1 -->
<svg width="303pt" height="459pt"
 viewBox="0.00 0.00 302.50 459.00" xmlns="http://www.w3.org/2000/svg" xmlns:xlink="http://www.w3.org/1999/xlink">
<g id="graph0" class="graph" transform="scale(1 1) rotate(0) translate(4 455)">
<title>L4::Epiface_t&lt; Derived, IFACE, BASE, bool &gt;</title>
<polygon fill="#ffffff" stroke="transparent" points="-4,4 -4,-455 298.5,-455 298.5,4 -4,4"/>
<!-- Node0 -->
<g id="node1" class="node">
<title>Node0</title>
<polygon fill="#bfbfbf" stroke="#000000" points="80,-138.5 80,-206.5 205,-206.5 205,-138.5 80,-138.5"/>
<text text-anchor="start" x="88" y="-194.5" font-family="Helvetica,sans-Serif" font-size="10.00" fill="#000000">L4::Epiface_t&lt; Derived,</text>
<text text-anchor="middle" x="142.5" y="-183.5" font-family="Helvetica,sans-Serif" font-size="10.00" fill="#000000"> IFACE, BASE, bool &gt;</text>
<polyline fill="none" stroke="#000000" points="80,-176.5 205,-176.5 "/>
<text text-anchor="middle" x="142.5" y="-164.5" font-family="Helvetica,sans-Serif" font-size="10.00" fill="#000000"> </text>
<polyline fill="none" stroke="#000000" points="80,-157.5 205,-157.5 "/>
<text text-anchor="start" x="88" y="-145.5" font-family="Helvetica,sans-Serif" font-size="10.00" fill="#000000">+ dispatch()</text>
</g>
<!-- Node3 -->
<g id="node4" class="node">
<title>Node3</title>
<g id="a_node4"><a xlink:href="structL4_1_1Epiface__t.html" target="_top" xlink:title="{L4::Epiface_t\&lt; Block\l_dev\&lt; Ds_data \&gt;, L4virtio\l::Device \&gt;\n||+ dispatch()\l}">
<polygon fill="#ffffff" stroke="#000000" points="0,-.5 0,-79.5 137,-79.5 137,-.5 0,-.5"/>
<text text-anchor="start" x="8" y="-67.5" font-family="Helvetica,sans-Serif" font-size="10.00" fill="#000000">L4::Epiface_t&lt; Block</text>
<text text-anchor="start" x="8" y="-56.5" font-family="Helvetica,sans-Serif" font-size="10.00" fill="#000000">_dev&lt; Ds_data &gt;, L4virtio</text>
<text text-anchor="middle" x="68.5" y="-45.5" font-family="Helvetica,sans-Serif" font-size="10.00" fill="#000000">::Device &gt;</text>
<polyline fill="none" stroke="#000000" points="0,-38.5 137,-38.5 "/>
<text text-anchor="middle" x="68.5" y="-26.5" font-family="Helvetica,sans-Serif" font-size="10.00" fill="#000000"> </text>
<polyline fill="none" stroke="#000000" points="0,-19.5 137,-19.5 "/>
<text text-anchor="start" x="8" y="-7.5" font-family="Helvetica,sans-Serif" font-size="10.00" fill="#000000">+ dispatch()</text>
</a>
</g>
</g>
<!-- Node0&#45;&gt;Node3 -->
<g id="edge3" class="edge">
<title>Node0&#45;&gt;Node3</title>
<path fill="none" stroke="#ffa500" d="M92.7173,-130.6842C90.0429,-127.253 87.5981,-123.6821 85.5,-120 78.5406,-107.7866 74.4215,-93.0554 71.9867,-79.5803"/>
<polygon fill="#ffa500" stroke="#ffa500" points="90.1665,-133.0869 99.3191,-138.4236 95.4921,-128.544 90.1665,-133.0869"/>
<text text-anchor="start" x="85.5" y="-112" font-family="Helvetica,sans-Serif" font-size="10.00" fill="#000000"> &lt; Block_dev&lt; Ds_data</text>
<text text-anchor="middle" x="140.5" y="-101" font-family="Helvetica,sans-Serif" font-size="10.00" fill="#000000"> &gt;, L4virtio::Device &gt;</text>
</g>
<!-- Node4 -->
<g id="node5" class="node">
<title>Node4</title>
<g id="a_node5"><a xlink:href="structL4_1_1Epiface__t.html" target="_top" xlink:title="{L4::Epiface_t\&lt; Null\l_handler, L4::Kobject \&gt;\n||+ dispatch()\l}">
<polygon fill="#ffffff" stroke="#000000" points="155.5,-6 155.5,-74 279.5,-74 279.5,-6 155.5,-6"/>
<text text-anchor="start" x="163.5" y="-62" font-family="Helvetica,sans-Serif" font-size="10.00" fill="#000000">L4::Epiface_t&lt; Null</text>
<text text-anchor="middle" x="217.5" y="-51" font-family="Helvetica,sans-Serif" font-size="10.00" fill="#000000">_handler, L4::Kobject &gt;</text>
<polyline fill="none" stroke="#000000" points="155.5,-44 279.5,-44 "/>
<text text-anchor="middle" x="217.5" y="-32" font-family="Helvetica,sans-Serif" font-size="10.00" fill="#000000"> </text>
<polyline fill="none" stroke="#000000" points="155.5,-25 279.5,-25 "/>
<text text-anchor="start" x="163.5" y="-13" font-family="Helvetica,sans-Serif" font-size="10.00" fill="#000000">+ dispatch()</text>
</a>
</g>
</g>
<!-- Node0&#45;&gt;Node4 -->
<g id="edge4" class="edge">
<title>Node0&#45;&gt;Node4</title>
<path fill="none" stroke="#ffa500" d="M188.2643,-130.6714C190.9162,-127.2177 193.3666,-123.6473 195.5,-120 203.6454,-106.0742 208.8745,-89.021 212.18,-74.2423"/>
<polygon fill="#ffa500" stroke="#ffa500" points="185.4597,-128.5703 181.7648,-138.5 190.8455,-133.0417 185.4597,-128.5703"/>
<text text-anchor="start" x="205.5" y="-112" font-family="Helvetica,sans-Serif" font-size="10.00" fill="#000000"> &lt; Null_handler, L4</text>
<text text-anchor="middle" x="250" y="-101" font-family="Helvetica,sans-Serif" font-size="10.00" fill="#000000">::Kobject &gt;</text>
</g>
<!-- Node1 -->
<g id="node2" class="node">
<title>Node1</title>
<g id="a_node2"><a xlink:href="structL4_1_1Epiface__t0.html" target="_top" xlink:title="{L4::Epiface_t0\&lt; IFACE,\l BASE \&gt;\n||+ get_buffer_demand()\l+ obj_cap()\l}">
<polygon fill="#ffffff" stroke="#000000" points="80,-244.5 80,-323.5 205,-323.5 205,-244.5 80,-244.5"/>
<text text-anchor="start" x="88" y="-311.5" font-family="Helvetica,sans-Serif" font-size="10.00" fill="#000000">L4::Epiface_t0&lt; IFACE,</text>
<text text-anchor="middle" x="142.5" y="-300.5" font-family="Helvetica,sans-Serif" font-size="10.00" fill="#000000"> BASE &gt;</text>
<polyline fill="none" stroke="#000000" points="80,-293.5 205,-293.5 "/>
<text text-anchor="middle" x="142.5" y="-281.5" font-family="Helvetica,sans-Serif" font-size="10.00" fill="#000000"> </text>
<polyline fill="none" stroke="#000000" points="80,-274.5 205,-274.5 "/>
<text text-anchor="start" x="88" y="-262.5" font-family="Helvetica,sans-Serif" font-size="10.00" fill="#000000">+ get_buffer_demand()</text>
<text text-anchor="start" x="88" y="-251.5" font-family="Helvetica,sans-Serif" font-size="10.00" fill="#000000">+ obj_cap()</text>
</a>
</g>
</g>
<!-- Node1&#45;&gt;Node0 -->
<g id="edge1" class="edge">
<title>Node1&#45;&gt;Node0</title>
<path fill="none" stroke="#191970" d="M142.5,-234.1102C142.5,-224.8885 142.5,-215.4506 142.5,-206.8207"/>
<polygon fill="none" stroke="#191970" points="139.0001,-234.3753 142.5,-244.3753 146.0001,-234.3754 139.0001,-234.3753"/>
</g>
<!-- Node2 -->
<g id="node3" class="node">
<title>Node2</title>
<g id="a_node3"><a xlink:href="structL4_1_1Epiface__t0.html" target="_top" xlink:title="Epiface mixin for generic Kobject&#45;based interfaces. ">
<polygon fill="#ffffff" stroke="#000000" points="80,-371.5 80,-450.5 205,-450.5 205,-371.5 80,-371.5"/>
<text text-anchor="start" x="88" y="-438.5" font-family="Helvetica,sans-Serif" font-size="10.00" fill="#000000">L4::Epiface_t0&lt; RPC</text>
<text text-anchor="middle" x="142.5" y="-427.5" font-family="Helvetica,sans-Serif" font-size="10.00" fill="#000000">_IFACE, BASE &gt;</text>
<polyline fill="none" stroke="#000000" points="80,-420.5 205,-420.5 "/>
<text text-anchor="middle" x="142.5" y="-408.5" font-family="Helvetica,sans-Serif" font-size="10.00" fill="#000000"> </text>
<polyline fill="none" stroke="#000000" points="80,-401.5 205,-401.5 "/>
<text text-anchor="start" x="88" y="-389.5" font-family="Helvetica,sans-Serif" font-size="10.00" fill="#000000">+ get_buffer_demand()</text>
<text text-anchor="start" x="88" y="-378.5" font-family="Helvetica,sans-Serif" font-size="10.00" fill="#000000">+ obj_cap()</text>
</a>
</g>
</g>
<!-- Node2&#45;&gt;Node1 -->
<g id="edge2" class="edge">
<title>Node2&#45;&gt;Node1</title>
<path fill="none" stroke="#ffa500" d="M142.5,-360.9789C142.5,-348.5999 142.5,-335.5045 142.5,-323.6938"/>
<polygon fill="#ffa500" stroke="#ffa500" points="139.0001,-361.1648 142.5,-371.1649 146.0001,-361.1649 139.0001,-361.1648"/>
<text text-anchor="middle" x="184.5" y="-345" font-family="Helvetica,sans-Serif" font-size="10.00" fill="#000000"> &lt; IFACE, BASE &gt;</text>
</g>
</g>
</svg>
