<?xml version="1.0" encoding="UTF-8" standalone="no"?>
<!DOCTYPE svg PUBLIC "-//W3C//DTD SVG 1.1//EN"
 "http://www.w3.org/Graphics/SVG/1.1/DTD/svg11.dtd">
<!-- Generated by graphviz version 2.40.1 (20161225.0304)
 -->
<!-- Title: L4::Typeid::Rpcs&lt; RPCS &gt; Pages: 1 -->
<svg width="250pt" height="405pt"
 viewBox="0.00 0.00 250.00 405.00" xmlns="http://www.w3.org/2000/svg" xmlns:xlink="http://www.w3.org/1999/xlink">
<g id="graph0" class="graph" transform="scale(1 1) rotate(0) translate(4 401)">
<title>L4::Typeid::Rpcs&lt; RPCS &gt;</title>
<polygon fill="#ffffff" stroke="transparent" points="-4,4 -4,-401 246,-401 246,4 -4,4"/>
<!-- Node0 -->
<g id="node1" class="node">
<title>Node0</title>
<polygon fill="#bfbfbf" stroke="#000000" points="0,-.5 0,-57.5 140,-57.5 140,-.5 0,-.5"/>
<text text-anchor="middle" x="70" y="-45.5" font-family="Helvetica,sans-Serif" font-size="10.00" fill="#000000">L4::Typeid::Rpcs&lt; RPCS &gt;</text>
<polyline fill="none" stroke="#000000" points="0,-38.5 140,-38.5 "/>
<text text-anchor="middle" x="70" y="-26.5" font-family="Helvetica,sans-Serif" font-size="10.00" fill="#000000"> </text>
<polyline fill="none" stroke="#000000" points="0,-19.5 140,-19.5 "/>
<text text-anchor="middle" x="70" y="-7.5" font-family="Helvetica,sans-Serif" font-size="10.00" fill="#000000"> </text>
</g>
<!-- Node1 -->
<g id="node2" class="node">
<title>Node1</title>
<g id="a_node2"><a xlink:href="structL4_1_1Typeid_1_1Detail_1_1__Rpcs.html" target="_top" xlink:title="{L4::Typeid::Detail\l::_Rpcs\&lt; L4::Opcode,\l 0, RPCS... \&gt;\n||}">
<polygon fill="#ffffff" stroke="#000000" points="12,-95.5 12,-174.5 128,-174.5 128,-95.5 12,-95.5"/>
<text text-anchor="start" x="20" y="-162.5" font-family="Helvetica,sans-Serif" font-size="10.00" fill="#000000">L4::Typeid::Detail</text>
<text text-anchor="start" x="20" y="-151.5" font-family="Helvetica,sans-Serif" font-size="10.00" fill="#000000">::_Rpcs&lt; L4::Opcode,</text>
<text text-anchor="middle" x="70" y="-140.5" font-family="Helvetica,sans-Serif" font-size="10.00" fill="#000000"> 0, RPCS... &gt;</text>
<polyline fill="none" stroke="#000000" points="12,-133.5 128,-133.5 "/>
<text text-anchor="middle" x="70" y="-121.5" font-family="Helvetica,sans-Serif" font-size="10.00" fill="#000000"> </text>
<polyline fill="none" stroke="#000000" points="12,-114.5 128,-114.5 "/>
<text text-anchor="middle" x="70" y="-102.5" font-family="Helvetica,sans-Serif" font-size="10.00" fill="#000000"> </text>
</a>
</g>
</g>
<!-- Node1&#45;&gt;Node0 -->
<g id="edge1" class="edge">
<title>Node1&#45;&gt;Node0</title>
<path fill="none" stroke="#191970" d="M70,-85.1394C70,-75.7425 70,-66.2136 70,-57.7397"/>
<polygon fill="none" stroke="#191970" points="66.5001,-85.2279 70,-95.2279 73.5001,-85.228 66.5001,-85.2279"/>
</g>
<!-- Node2 -->
<g id="node3" class="node">
<title>Node2</title>
<g id="a_node3"><a xlink:href="structL4_1_1Typeid_1_1Detail_1_1Rpcs__end.html" target="_top" xlink:title="Internal end&#45;of&#45;list marker. ">
<polygon fill="#ffffff" stroke="#000000" points="17.5,-328.5 17.5,-396.5 114.5,-396.5 114.5,-328.5 17.5,-328.5"/>
<text text-anchor="start" x="25.5" y="-384.5" font-family="Helvetica,sans-Serif" font-size="10.00" fill="#000000">L4::Typeid::Detail</text>
<text text-anchor="middle" x="66" y="-373.5" font-family="Helvetica,sans-Serif" font-size="10.00" fill="#000000">::Rpcs_end</text>
<polyline fill="none" stroke="#000000" points="17.5,-366.5 114.5,-366.5 "/>
<text text-anchor="middle" x="66" y="-354.5" font-family="Helvetica,sans-Serif" font-size="10.00" fill="#000000"> </text>
<polyline fill="none" stroke="#000000" points="17.5,-347.5 114.5,-347.5 "/>
<text text-anchor="middle" x="66" y="-335.5" font-family="Helvetica,sans-Serif" font-size="10.00" fill="#000000"> </text>
</a>
</g>
</g>
<!-- Node2&#45;&gt;Node1 -->
<g id="edge2" class="edge">
<title>Node2&#45;&gt;Node1</title>
<path fill="none" stroke="#191970" d="M66.777,-318.3092C67.5095,-276.6444 68.5975,-214.7694 69.3028,-174.6559"/>
<polygon fill="none" stroke="#191970" points="63.2753,-318.3809 66.5988,-328.441 70.2742,-318.5041 63.2753,-318.3809"/>
</g>
<!-- Node3 -->
<g id="node4" class="node">
<title>Node3</title>
<g id="a_node4"><a xlink:href="structL4_1_1Typeid_1_1Detail_1_1__Rpcs.html" target="_top" xlink:title="Empty list of RPCs. ">
<polygon fill="#ffffff" stroke="#000000" points="82,-222.5 82,-290.5 222,-290.5 222,-222.5 82,-222.5"/>
<text text-anchor="start" x="90" y="-278.5" font-family="Helvetica,sans-Serif" font-size="10.00" fill="#000000">L4::Typeid::Detail</text>
<text text-anchor="middle" x="152" y="-267.5" font-family="Helvetica,sans-Serif" font-size="10.00" fill="#000000">::_Rpcs&lt; OPCODE, O, X &gt;</text>
<polyline fill="none" stroke="#000000" points="82,-260.5 222,-260.5 "/>
<text text-anchor="middle" x="152" y="-248.5" font-family="Helvetica,sans-Serif" font-size="10.00" fill="#000000"> </text>
<polyline fill="none" stroke="#000000" points="82,-241.5 222,-241.5 "/>
<text text-anchor="middle" x="152" y="-229.5" font-family="Helvetica,sans-Serif" font-size="10.00" fill="#000000"> </text>
</a>
</g>
</g>
<!-- Node2&#45;&gt;Node3 -->
<g id="edge4" class="edge">
<title>Node2&#45;&gt;Node3</title>
<path fill="none" stroke="#191970" d="M100.0395,-320.5444C108.1103,-310.5965 116.622,-300.1055 124.3675,-290.5586"/>
<polygon fill="none" stroke="#191970" points="97.2668,-318.4067 93.6843,-328.3775 102.7027,-322.817 97.2668,-318.4067"/>
</g>
<!-- Node3&#45;&gt;Node1 -->
<g id="edge3" class="edge">
<title>Node3&#45;&gt;Node1</title>
<path fill="none" stroke="#ffa500" d="M123.18,-213.7972C114.6516,-201.1606 105.3499,-187.3782 96.9448,-174.9243"/>
<polygon fill="#ffa500" stroke="#ffa500" points="120.4449,-216.0012 128.9402,-222.3321 126.2471,-212.0853 120.4449,-216.0012"/>
<text text-anchor="middle" x="178.5" y="-196" font-family="Helvetica,sans-Serif" font-size="10.00" fill="#000000"> &lt; L4::Opcode, 0, RPCS... &gt;</text>
</g>
</g>
</svg>
