<?xml version="1.0" encoding="UTF-8" standalone="no"?>
<!DOCTYPE svg PUBLIC "-//W3C//DTD SVG 1.1//EN"
 "http://www.w3.org/Graphics/SVG/1.1/DTD/svg11.dtd">
<!-- Generated by graphviz version 2.40.1 (20161225.0304)
 -->
<!-- Title: L4::Ipc::Msg::Cls_item Pages: 1 -->
<svg width="240pt" height="171pt"
 viewBox="0.00 0.00 240.00 171.00" xmlns="http://www.w3.org/2000/svg" xmlns:xlink="http://www.w3.org/1999/xlink">
<g id="graph0" class="graph" transform="scale(1 1) rotate(0) translate(4 167)">
<title>L4::Ipc::Msg::Cls_item</title>
<polygon fill="#ffffff" stroke="transparent" points="-4,4 -4,-167 236,-167 236,4 -4,4"/>
<!-- Node0 -->
<g id="node1" class="node">
<title>Node0</title>
<polygon fill="#bfbfbf" stroke="#000000" points="55.5,-105.5 55.5,-162.5 172.5,-162.5 172.5,-105.5 55.5,-105.5"/>
<text text-anchor="middle" x="114" y="-150.5" font-family="Helvetica,sans-Serif" font-size="10.00" fill="#000000">L4::Ipc::Msg::Cls_item</text>
<polyline fill="none" stroke="#000000" points="55.5,-143.5 172.5,-143.5 "/>
<text text-anchor="middle" x="114" y="-131.5" font-family="Helvetica,sans-Serif" font-size="10.00" fill="#000000"> </text>
<polyline fill="none" stroke="#000000" points="55.5,-124.5 172.5,-124.5 "/>
<text text-anchor="middle" x="114" y="-112.5" font-family="Helvetica,sans-Serif" font-size="10.00" fill="#000000"> </text>
</g>
<!-- Node1 -->
<g id="node2" class="node">
<title>Node1</title>
<g id="a_node2"><a xlink:href="structL4_1_1Ipc_1_1Msg_1_1Do__in__items.html" target="_top" xlink:title="Marker for Input items. ">
<polygon fill="#ffffff" stroke="#000000" points="0,-.5 0,-68.5 104,-68.5 104,-.5 0,-.5"/>
<text text-anchor="start" x="8" y="-56.5" font-family="Helvetica,sans-Serif" font-size="10.00" fill="#000000">L4::Ipc::Msg::Do_in</text>
<text text-anchor="middle" x="52" y="-45.5" font-family="Helvetica,sans-Serif" font-size="10.00" fill="#000000">_items</text>
<polyline fill="none" stroke="#000000" points="0,-38.5 104,-38.5 "/>
<text text-anchor="middle" x="52" y="-26.5" font-family="Helvetica,sans-Serif" font-size="10.00" fill="#000000"> </text>
<polyline fill="none" stroke="#000000" points="0,-19.5 104,-19.5 "/>
<text text-anchor="middle" x="52" y="-7.5" font-family="Helvetica,sans-Serif" font-size="10.00" fill="#000000"> </text>
</a>
</g>
</g>
<!-- Node0&#45;&gt;Node1 -->
<g id="edge1" class="edge">
<title>Node0&#45;&gt;Node1</title>
<path fill="none" stroke="#191970" d="M90.8581,-96.861C85.0983,-87.6175 78.951,-77.7521 73.2854,-68.6596"/>
<polygon fill="none" stroke="#191970" points="87.9742,-98.8511 96.2333,-105.4873 93.9153,-95.1491 87.9742,-98.8511"/>
</g>
<!-- Node2 -->
<g id="node3" class="node">
<title>Node2</title>
<g id="a_node3"><a xlink:href="structL4_1_1Ipc_1_1Msg_1_1Do__out__items.html" target="_top" xlink:title="Marker for Output items. ">
<polygon fill="#ffffff" stroke="#000000" points="122,-.5 122,-68.5 232,-68.5 232,-.5 122,-.5"/>
<text text-anchor="start" x="130" y="-56.5" font-family="Helvetica,sans-Serif" font-size="10.00" fill="#000000">L4::Ipc::Msg::Do_out</text>
<text text-anchor="middle" x="177" y="-45.5" font-family="Helvetica,sans-Serif" font-size="10.00" fill="#000000">_items</text>
<polyline fill="none" stroke="#000000" points="122,-38.5 232,-38.5 "/>
<text text-anchor="middle" x="177" y="-26.5" font-family="Helvetica,sans-Serif" font-size="10.00" fill="#000000"> </text>
<polyline fill="none" stroke="#000000" points="122,-19.5 232,-19.5 "/>
<text text-anchor="middle" x="177" y="-7.5" font-family="Helvetica,sans-Serif" font-size="10.00" fill="#000000"> </text>
</a>
</g>
</g>
<!-- Node0&#45;&gt;Node2 -->
<g id="edge2" class="edge">
<title>Node0&#45;&gt;Node2</title>
<path fill="none" stroke="#191970" d="M137.5151,-96.861C143.3678,-87.6175 149.6143,-77.7521 155.3713,-68.6596"/>
<polygon fill="none" stroke="#191970" points="134.4457,-95.1661 132.0533,-105.4873 140.3599,-98.9108 134.4457,-95.1661"/>
</g>
</g>
</svg>
