<?xml version="1.0" encoding="UTF-8" standalone="no"?>
<!DOCTYPE svg PUBLIC "-//W3C//DTD SVG 1.1//EN"
 "http://www.w3.org/Graphics/SVG/1.1/DTD/svg11.dtd">
<!-- Generated by graphviz version 2.40.1 (20161225.0304)
 -->
<!-- Title: L4::Ipc::Msg::Cls_buffer Pages: 1 -->
<svg width="132pt" height="171pt"
 viewBox="0.00 0.00 132.00 171.00" xmlns="http://www.w3.org/2000/svg" xmlns:xlink="http://www.w3.org/1999/xlink">
<g id="graph0" class="graph" transform="scale(1 1) rotate(0) translate(4 167)">
<title>L4::Ipc::Msg::Cls_buffer</title>
<polygon fill="#ffffff" stroke="transparent" points="-4,4 -4,-167 128,-167 128,4 -4,4"/>
<!-- Node0 -->
<g id="node1" class="node">
<title>Node0</title>
<polygon fill="#bfbfbf" stroke="#000000" points="0,-105.5 0,-162.5 124,-162.5 124,-105.5 0,-105.5"/>
<text text-anchor="middle" x="62" y="-150.5" font-family="Helvetica,sans-Serif" font-size="10.00" fill="#000000">L4::Ipc::Msg::Cls_buffer</text>
<polyline fill="none" stroke="#000000" points="0,-143.5 124,-143.5 "/>
<text text-anchor="middle" x="62" y="-131.5" font-family="Helvetica,sans-Serif" font-size="10.00" fill="#000000"> </text>
<polyline fill="none" stroke="#000000" points="0,-124.5 124,-124.5 "/>
<text text-anchor="middle" x="62" y="-112.5" font-family="Helvetica,sans-Serif" font-size="10.00" fill="#000000"> </text>
</g>
<!-- Node1 -->
<g id="node2" class="node">
<title>Node1</title>
<g id="a_node2"><a xlink:href="structL4_1_1Ipc_1_1Msg_1_1Do__rcv__buffers.html" target="_top" xlink:title="Marker for receive buffers. ">
<polygon fill="#ffffff" stroke="#000000" points="7,-.5 7,-68.5 117,-68.5 117,-.5 7,-.5"/>
<text text-anchor="start" x="15" y="-56.5" font-family="Helvetica,sans-Serif" font-size="10.00" fill="#000000">L4::Ipc::Msg::Do_rcv</text>
<text text-anchor="middle" x="62" y="-45.5" font-family="Helvetica,sans-Serif" font-size="10.00" fill="#000000">_buffers</text>
<polyline fill="none" stroke="#000000" points="7,-38.5 117,-38.5 "/>
<text text-anchor="middle" x="62" y="-26.5" font-family="Helvetica,sans-Serif" font-size="10.00" fill="#000000"> </text>
<polyline fill="none" stroke="#000000" points="7,-19.5 117,-19.5 "/>
<text text-anchor="middle" x="62" y="-7.5" font-family="Helvetica,sans-Serif" font-size="10.00" fill="#000000"> </text>
</a>
</g>
</g>
<!-- Node0&#45;&gt;Node1 -->
<g id="edge1" class="edge">
<title>Node0&#45;&gt;Node1</title>
<path fill="none" stroke="#191970" d="M62,-95.4268C62,-86.6025 62,-77.2834 62,-68.6596"/>
<polygon fill="none" stroke="#191970" points="58.5001,-95.4873 62,-105.4873 65.5001,-95.4873 58.5001,-95.4873"/>
</g>
</g>
</svg>
