<?xml version="1.0" encoding="UTF-8" standalone="no"?>
<!DOCTYPE svg PUBLIC "-//W3C//DTD SVG 1.1//EN"
 "http://www.w3.org/Graphics/SVG/1.1/DTD/svg11.dtd">
<!-- Generated by graphviz version 2.40.1 (20161225.0304)
 -->
<!-- Title: L4::Ipc::Array&lt; ELEM_TYPE, LEN_TYPE &gt; Pages: 1 -->
<svg width="163pt" height="376pt"
 viewBox="0.00 0.00 163.00 376.00" xmlns="http://www.w3.org/2000/svg" xmlns:xlink="http://www.w3.org/1999/xlink">
<g id="graph0" class="graph" transform="scale(1 1) rotate(0) translate(4 372)">
<title>L4::Ipc::Array&lt; ELEM_TYPE, LEN_TYPE &gt;</title>
<polygon fill="#ffffff" stroke="transparent" points="-4,4 -4,-372 159,-372 159,4 -4,4"/>
<!-- Node0 -->
<g id="node1" class="node">
<title>Node0</title>
<polygon fill="#bfbfbf" stroke="#000000" points="19,-138.5 19,-228.5 136,-228.5 136,-138.5 19,-138.5"/>
<text text-anchor="start" x="27" y="-216.5" font-family="Helvetica,sans-Serif" font-size="10.00" fill="#000000">L4::Ipc::Array&lt; ELEM</text>
<text text-anchor="middle" x="77.5" y="-205.5" font-family="Helvetica,sans-Serif" font-size="10.00" fill="#000000">_TYPE, LEN_TYPE &gt;</text>
<polyline fill="none" stroke="#000000" points="19,-198.5 136,-198.5 "/>
<text text-anchor="middle" x="77.5" y="-186.5" font-family="Helvetica,sans-Serif" font-size="10.00" fill="#000000"> </text>
<polyline fill="none" stroke="#000000" points="19,-179.5 136,-179.5 "/>
<text text-anchor="start" x="27" y="-167.5" font-family="Helvetica,sans-Serif" font-size="10.00" fill="#000000">+ Array()</text>
<text text-anchor="start" x="27" y="-156.5" font-family="Helvetica,sans-Serif" font-size="10.00" fill="#000000">+ Array()</text>
<text text-anchor="start" x="27" y="-145.5" font-family="Helvetica,sans-Serif" font-size="10.00" fill="#000000">+ Array()</text>
</g>
<!-- Node2 -->
<g id="node3" class="node">
<title>Node2</title>
<g id="a_node3"><a xlink:href="structL4_1_1Ipc_1_1Array.html" target="_top" xlink:title="{L4::Ipc::Array\&lt; CHAR,\l LEN \&gt;\n||+ Array()\l+ Array()\l+ Array()\l}">
<polygon fill="#ffffff" stroke="#000000" points="18.5,-.5 18.5,-90.5 136.5,-90.5 136.5,-.5 18.5,-.5"/>
<text text-anchor="start" x="26.5" y="-78.5" font-family="Helvetica,sans-Serif" font-size="10.00" fill="#000000">L4::Ipc::Array&lt; CHAR,</text>
<text text-anchor="middle" x="77.5" y="-67.5" font-family="Helvetica,sans-Serif" font-size="10.00" fill="#000000"> LEN &gt;</text>
<polyline fill="none" stroke="#000000" points="18.5,-60.5 136.5,-60.5 "/>
<text text-anchor="middle" x="77.5" y="-48.5" font-family="Helvetica,sans-Serif" font-size="10.00" fill="#000000"> </text>
<polyline fill="none" stroke="#000000" points="18.5,-41.5 136.5,-41.5 "/>
<text text-anchor="start" x="26.5" y="-29.5" font-family="Helvetica,sans-Serif" font-size="10.00" fill="#000000">+ Array()</text>
<text text-anchor="start" x="26.5" y="-18.5" font-family="Helvetica,sans-Serif" font-size="10.00" fill="#000000">+ Array()</text>
<text text-anchor="start" x="26.5" y="-7.5" font-family="Helvetica,sans-Serif" font-size="10.00" fill="#000000">+ Array()</text>
</a>
</g>
</g>
<!-- Node0&#45;&gt;Node2 -->
<g id="edge2" class="edge">
<title>Node0&#45;&gt;Node2</title>
<path fill="none" stroke="#ffa500" d="M77.5,-128.089C77.5,-115.7026 77.5,-102.7078 77.5,-90.7879"/>
<polygon fill="#ffa500" stroke="#ffa500" points="74.0001,-128.3136 77.5,-138.3136 81.0001,-128.3137 74.0001,-128.3136"/>
<text text-anchor="middle" x="115.5" y="-112" font-family="Helvetica,sans-Serif" font-size="10.00" fill="#000000"> &lt; CHAR, LEN &gt;</text>
</g>
<!-- Node1 -->
<g id="node2" class="node">
<title>Node1</title>
<g id="a_node2"><a xlink:href="structL4_1_1Ipc_1_1Array__ref.html" target="_top" xlink:title="Array reference data type for arrays located in the message. ">
<polygon fill="#ffffff" stroke="#000000" points="0,-266.5 0,-367.5 155,-367.5 155,-266.5 0,-266.5"/>
<text text-anchor="start" x="8" y="-355.5" font-family="Helvetica,sans-Serif" font-size="10.00" fill="#000000">L4::Ipc::Array_ref</text>
<text text-anchor="middle" x="77.5" y="-344.5" font-family="Helvetica,sans-Serif" font-size="10.00" fill="#000000">&lt; ELEM_TYPE, LEN_TYPE &gt;</text>
<polyline fill="none" stroke="#000000" points="0,-337.5 155,-337.5 "/>
<text text-anchor="start" x="8" y="-325.5" font-family="Helvetica,sans-Serif" font-size="10.00" fill="#000000">+ length</text>
<text text-anchor="start" x="8" y="-314.5" font-family="Helvetica,sans-Serif" font-size="10.00" fill="#000000">+ data</text>
<polyline fill="none" stroke="#000000" points="0,-307.5 155,-307.5 "/>
<text text-anchor="start" x="8" y="-295.5" font-family="Helvetica,sans-Serif" font-size="10.00" fill="#000000">+ Array_ref()</text>
<text text-anchor="start" x="8" y="-284.5" font-family="Helvetica,sans-Serif" font-size="10.00" fill="#000000">+ Array_ref()</text>
<text text-anchor="start" x="8" y="-273.5" font-family="Helvetica,sans-Serif" font-size="10.00" fill="#000000">+ Array_ref()</text>
</a>
</g>
</g>
<!-- Node1&#45;&gt;Node0 -->
<g id="edge1" class="edge">
<title>Node1&#45;&gt;Node0</title>
<path fill="none" stroke="#191970" d="M77.5,-255.8576C77.5,-246.6556 77.5,-237.3105 77.5,-228.5283"/>
<polygon fill="none" stroke="#191970" points="74.0001,-256.1485 77.5,-266.1485 81.0001,-256.1486 74.0001,-256.1485"/>
</g>
</g>
</svg>
