<?xml version="1.0" encoding="UTF-8" standalone="no"?>
<!DOCTYPE svg PUBLIC "-//W3C//DTD SVG 1.1//EN"
 "http://www.w3.org/Graphics/SVG/1.1/DTD/svg11.dtd">
<!-- Generated by graphviz version 2.40.1 (20161225.0304)
 -->
<!-- Title: L4Re::Util::Br_manager_timeout_hooks Pages: 1 -->
<svg width="294pt" height="614pt"
 viewBox="0.00 0.00 293.50 614.00" xmlns="http://www.w3.org/2000/svg" xmlns:xlink="http://www.w3.org/1999/xlink">
<g id="graph0" class="graph" transform="scale(1 1) rotate(0) translate(4 610)">
<title>L4Re::Util::Br_manager_timeout_hooks</title>
<polygon fill="#ffffff" stroke="transparent" points="-4,4 -4,-610 289.5,-610 289.5,4 -4,4"/>
<!-- Node0 -->
<g id="node1" class="node">
<title>Node0</title>
<polygon fill="#bfbfbf" stroke="#000000" points="95.5,-.5 95.5,-68.5 220.5,-68.5 220.5,-.5 95.5,-.5"/>
<text text-anchor="start" x="103.5" y="-56.5" font-family="Helvetica,sans-Serif" font-size="10.00" fill="#000000">L4Re::Util::Br_manager</text>
<text text-anchor="middle" x="158" y="-45.5" font-family="Helvetica,sans-Serif" font-size="10.00" fill="#000000">_timeout_hooks</text>
<polyline fill="none" stroke="#000000" points="95.5,-38.5 220.5,-38.5 "/>
<text text-anchor="middle" x="158" y="-26.5" font-family="Helvetica,sans-Serif" font-size="10.00" fill="#000000"> </text>
<polyline fill="none" stroke="#000000" points="95.5,-19.5 220.5,-19.5 "/>
<text text-anchor="start" x="103.5" y="-7.5" font-family="Helvetica,sans-Serif" font-size="10.00" fill="#000000">+ now()</text>
</g>
<!-- Node1 -->
<g id="node2" class="node">
<title>Node1</title>
<g id="a_node2"><a xlink:href="classL4_1_1Ipc__svr_1_1Timeout__queue__hooks.html" target="_top" xlink:title="{L4::Ipc_svr::Timeout\l_queue_hooks\&lt; Br_manager\l_timeout_hooks, Br_manager \&gt;\n|+ queue\l|+ timeout()\l+ setup_wait()\l+ before_reply()\l+ add_timeout()\l+ remove_timeout()\l}">
<polygon fill="#ffffff" stroke="#000000" points="0,-106.5 0,-229.5 164,-229.5 164,-106.5 0,-106.5"/>
<text text-anchor="start" x="8" y="-217.5" font-family="Helvetica,sans-Serif" font-size="10.00" fill="#000000">L4::Ipc_svr::Timeout</text>
<text text-anchor="start" x="8" y="-206.5" font-family="Helvetica,sans-Serif" font-size="10.00" fill="#000000">_queue_hooks&lt; Br_manager</text>
<text text-anchor="middle" x="82" y="-195.5" font-family="Helvetica,sans-Serif" font-size="10.00" fill="#000000">_timeout_hooks, Br_manager &gt;</text>
<polyline fill="none" stroke="#000000" points="0,-188.5 164,-188.5 "/>
<text text-anchor="start" x="8" y="-176.5" font-family="Helvetica,sans-Serif" font-size="10.00" fill="#000000">+ queue</text>
<polyline fill="none" stroke="#000000" points="0,-169.5 164,-169.5 "/>
<text text-anchor="start" x="8" y="-157.5" font-family="Helvetica,sans-Serif" font-size="10.00" fill="#000000">+ timeout()</text>
<text text-anchor="start" x="8" y="-146.5" font-family="Helvetica,sans-Serif" font-size="10.00" fill="#000000">+ setup_wait()</text>
<text text-anchor="start" x="8" y="-135.5" font-family="Helvetica,sans-Serif" font-size="10.00" fill="#000000">+ before_reply()</text>
<text text-anchor="start" x="8" y="-124.5" font-family="Helvetica,sans-Serif" font-size="10.00" fill="#000000">+ add_timeout()</text>
<text text-anchor="start" x="8" y="-113.5" font-family="Helvetica,sans-Serif" font-size="10.00" fill="#000000">+ remove_timeout()</text>
</a>
</g>
</g>
<!-- Node1&#45;&gt;Node0 -->
<g id="edge1" class="edge">
<title>Node1&#45;&gt;Node0</title>
<path fill="none" stroke="#191970" d="M122.1401,-97.4907C127.8623,-87.4392 133.5196,-77.5018 138.5907,-68.5939"/>
<polygon fill="none" stroke="#191970" points="119.0137,-95.9081 117.108,-106.3301 125.097,-99.3713 119.0137,-95.9081"/>
</g>
<!-- Node2 -->
<g id="node3" class="node">
<title>Node2</title>
<g id="a_node3"><a xlink:href="classL4_1_1Ipc__svr_1_1Server__iface.html" target="_top" xlink:title="Interface for server&#45;loop related functions. ">
<polygon fill="#ffffff" stroke="#000000" points="12,-449.5 12,-605.5 144,-605.5 144,-449.5 12,-449.5"/>
<text text-anchor="start" x="20" y="-593.5" font-family="Helvetica,sans-Serif" font-size="10.00" fill="#000000">L4::Ipc_svr::Server</text>
<text text-anchor="middle" x="78" y="-582.5" font-family="Helvetica,sans-Serif" font-size="10.00" fill="#000000">_iface</text>
<polyline fill="none" stroke="#000000" points="12,-575.5 144,-575.5 "/>
<text text-anchor="middle" x="78" y="-563.5" font-family="Helvetica,sans-Serif" font-size="10.00" fill="#000000"> </text>
<polyline fill="none" stroke="#000000" points="12,-556.5 144,-556.5 "/>
<text text-anchor="start" x="20" y="-544.5" font-family="Helvetica,sans-Serif" font-size="10.00" fill="#000000">+ Server_iface()</text>
<text text-anchor="start" x="20" y="-533.5" font-family="Helvetica,sans-Serif" font-size="10.00" fill="#000000">+ ~Server_iface()</text>
<text text-anchor="start" x="20" y="-522.5" font-family="Helvetica,sans-Serif" font-size="10.00" fill="#000000">+ alloc_buffer_demand()</text>
<text text-anchor="start" x="20" y="-511.5" font-family="Helvetica,sans-Serif" font-size="10.00" fill="#000000">+ get_rcv_cap()</text>
<text text-anchor="start" x="20" y="-500.5" font-family="Helvetica,sans-Serif" font-size="10.00" fill="#000000">+ realloc_rcv_cap()</text>
<text text-anchor="start" x="20" y="-489.5" font-family="Helvetica,sans-Serif" font-size="10.00" fill="#000000">+ add_timeout()</text>
<text text-anchor="start" x="20" y="-478.5" font-family="Helvetica,sans-Serif" font-size="10.00" fill="#000000">+ remove_timeout()</text>
<text text-anchor="start" x="20" y="-467.5" font-family="Helvetica,sans-Serif" font-size="10.00" fill="#000000">+ rcv_cap()</text>
<text text-anchor="start" x="20" y="-456.5" font-family="Helvetica,sans-Serif" font-size="10.00" fill="#000000">+ rcv_cap()</text>
</a>
</g>
</g>
<!-- Node2&#45;&gt;Node1 -->
<g id="edge2" class="edge">
<title>Node2&#45;&gt;Node1</title>
<path fill="none" stroke="#191970" d="M78.9819,-439.2556C79.7051,-374.2497 80.6707,-287.4698 81.3128,-229.7587"/>
<polygon fill="none" stroke="#191970" points="75.4795,-439.4555 78.8679,-449.4939 82.4791,-439.5334 75.4795,-439.4555"/>
</g>
<!-- Node3 -->
<g id="node4" class="node">
<title>Node3</title>
<g id="a_node4"><a xlink:href="classL4_1_1Ipc__svr_1_1Timeout__queue__hooks.html" target="_top" xlink:title="Loop hooks mixin for integrating a timeout queue into the server loop. ">
<polygon fill="#ffffff" stroke="#000000" points="94,-288.5 94,-411.5 228,-411.5 228,-288.5 94,-288.5"/>
<text text-anchor="start" x="102" y="-399.5" font-family="Helvetica,sans-Serif" font-size="10.00" fill="#000000">L4::Ipc_svr::Timeout</text>
<text text-anchor="start" x="102" y="-388.5" font-family="Helvetica,sans-Serif" font-size="10.00" fill="#000000">_queue_hooks&lt; HOOKS,</text>
<text text-anchor="middle" x="161" y="-377.5" font-family="Helvetica,sans-Serif" font-size="10.00" fill="#000000"> BR_MAN &gt;</text>
<polyline fill="none" stroke="#000000" points="94,-370.5 228,-370.5 "/>
<text text-anchor="start" x="102" y="-358.5" font-family="Helvetica,sans-Serif" font-size="10.00" fill="#000000">+ queue</text>
<polyline fill="none" stroke="#000000" points="94,-351.5 228,-351.5 "/>
<text text-anchor="start" x="102" y="-339.5" font-family="Helvetica,sans-Serif" font-size="10.00" fill="#000000">+ timeout()</text>
<text text-anchor="start" x="102" y="-328.5" font-family="Helvetica,sans-Serif" font-size="10.00" fill="#000000">+ setup_wait()</text>
<text text-anchor="start" x="102" y="-317.5" font-family="Helvetica,sans-Serif" font-size="10.00" fill="#000000">+ before_reply()</text>
<text text-anchor="start" x="102" y="-306.5" font-family="Helvetica,sans-Serif" font-size="10.00" fill="#000000">+ add_timeout()</text>
<text text-anchor="start" x="102" y="-295.5" font-family="Helvetica,sans-Serif" font-size="10.00" fill="#000000">+ remove_timeout()</text>
</a>
</g>
</g>
<!-- Node2&#45;&gt;Node3 -->
<g id="edge4" class="edge">
<title>Node2&#45;&gt;Node3</title>
<path fill="none" stroke="#191970" d="M118.8405,-440.1605C123.3513,-430.5139 127.8725,-420.845 132.1908,-411.61"/>
<polygon fill="none" stroke="#191970" points="115.5912,-438.8465 114.5258,-449.3876 121.9322,-441.8116 115.5912,-438.8465"/>
</g>
<!-- Node3&#45;&gt;Node1 -->
<g id="edge3" class="edge">
<title>Node3&#45;&gt;Node1</title>
<path fill="none" stroke="#ffa500" d="M130.1408,-278.9066C123.0657,-262.6071 115.6018,-245.4117 108.7183,-229.5534"/>
<polygon fill="#ffa500" stroke="#ffa500" points="127.0618,-280.6036 134.2542,-288.3831 133.483,-277.8164 127.0618,-280.6036"/>
<text text-anchor="start" x="127" y="-262" font-family="Helvetica,sans-Serif" font-size="10.00" fill="#000000"> &lt; Br_manager_timeout</text>
<text text-anchor="middle" x="182.5" y="-251" font-family="Helvetica,sans-Serif" font-size="10.00" fill="#000000">_hooks, Br_manager &gt;</text>
</g>
<!-- Node4 -->
<g id="node5" class="node">
<title>Node4</title>
<g id="a_node5"><a xlink:href="structL4_1_1Ipc__svr_1_1Ignore__errors.html" target="_top" xlink:title="Mix in for LOOP_HOOKS to ignore IPC errors. ">
<polygon fill="#ffffff" stroke="#000000" points="182.5,-134 182.5,-202 285.5,-202 285.5,-134 182.5,-134"/>
<text text-anchor="start" x="190.5" y="-190" font-family="Helvetica,sans-Serif" font-size="10.00" fill="#000000">L4::Ipc_svr::Ignore</text>
<text text-anchor="middle" x="234" y="-179" font-family="Helvetica,sans-Serif" font-size="10.00" fill="#000000">_errors</text>
<polyline fill="none" stroke="#000000" points="182.5,-172 285.5,-172 "/>
<text text-anchor="middle" x="234" y="-160" font-family="Helvetica,sans-Serif" font-size="10.00" fill="#000000"> </text>
<polyline fill="none" stroke="#000000" points="182.5,-153 285.5,-153 "/>
<text text-anchor="start" x="190.5" y="-141" font-family="Helvetica,sans-Serif" font-size="10.00" fill="#000000">+ error()</text>
</a>
</g>
</g>
<!-- Node4&#45;&gt;Node0 -->
<g id="edge5" class="edge">
<title>Node4&#45;&gt;Node0</title>
<path fill="none" stroke="#191970" d="M209.3972,-124.7833C199.1007,-106.6965 187.2991,-85.9662 177.6035,-68.9352"/>
<polygon fill="none" stroke="#191970" points="206.6363,-127.008 214.6253,-133.9669 212.7196,-123.5449 206.6363,-127.008"/>
</g>
</g>
</svg>
