<?xml version="1.0" encoding="UTF-8" standalone="no"?>
<!DOCTYPE svg PUBLIC "-//W3C//DTD SVG 1.1//EN"
 "http://www.w3.org/Graphics/SVG/1.1/DTD/svg11.dtd">
<!-- Generated by graphviz version 2.40.1 (20161225.0304)
 -->
<!-- Title: L4::Ipc_svr::Exc_dispatch&lt; R, Exc &gt; Pages: 1 -->
<svg width="143pt" height="204pt"
 viewBox="0.00 0.00 143.00 204.00" xmlns="http://www.w3.org/2000/svg" xmlns:xlink="http://www.w3.org/1999/xlink">
<g id="graph0" class="graph" transform="scale(1 1) rotate(0) translate(4 200)">
<title>L4::Ipc_svr::Exc_dispatch&lt; R, Exc &gt;</title>
<polygon fill="#ffffff" stroke="transparent" points="-4,4 -4,-200 139,-200 139,4 -4,4"/>
<!-- Node0 -->
<g id="node1" class="node">
<title>Node0</title>
<polygon fill="#bfbfbf" stroke="#000000" points="0,-.5 0,-79.5 135,-79.5 135,-.5 0,-.5"/>
<text text-anchor="start" x="8" y="-67.5" font-family="Helvetica,sans-Serif" font-size="10.00" fill="#000000">L4::Ipc_svr::Exc_dispatch</text>
<text text-anchor="middle" x="67.5" y="-56.5" font-family="Helvetica,sans-Serif" font-size="10.00" fill="#000000">&lt; R, Exc &gt;</text>
<polyline fill="none" stroke="#000000" points="0,-49.5 135,-49.5 "/>
<text text-anchor="middle" x="67.5" y="-37.5" font-family="Helvetica,sans-Serif" font-size="10.00" fill="#000000"> </text>
<polyline fill="none" stroke="#000000" points="0,-30.5 135,-30.5 "/>
<text text-anchor="start" x="8" y="-18.5" font-family="Helvetica,sans-Serif" font-size="10.00" fill="#000000">+ Exc_dispatch()</text>
<text text-anchor="start" x="8" y="-7.5" font-family="Helvetica,sans-Serif" font-size="10.00" fill="#000000">+ operator()()</text>
</g>
<!-- Node1 -->
<g id="node2" class="node">
<title>Node1</title>
<g id="a_node2"><a xlink:href="structL4_1_1Ipc__svr_1_1Direct__dispatch.html" target="_top" xlink:title="Direct dispatch helper, for forwarding dispatch calls to a registry R. ">
<polygon fill="#ffffff" stroke="#000000" points="14,-116.5 14,-195.5 121,-195.5 121,-116.5 14,-116.5"/>
<text text-anchor="start" x="22" y="-183.5" font-family="Helvetica,sans-Serif" font-size="10.00" fill="#000000">L4::Ipc_svr::Direct</text>
<text text-anchor="middle" x="67.5" y="-172.5" font-family="Helvetica,sans-Serif" font-size="10.00" fill="#000000">_dispatch&lt; R &gt;</text>
<polyline fill="none" stroke="#000000" points="14,-165.5 121,-165.5 "/>
<text text-anchor="start" x="22" y="-153.5" font-family="Helvetica,sans-Serif" font-size="10.00" fill="#000000">+ r</text>
<polyline fill="none" stroke="#000000" points="14,-146.5 121,-146.5 "/>
<text text-anchor="start" x="22" y="-134.5" font-family="Helvetica,sans-Serif" font-size="10.00" fill="#000000">+ Direct_dispatch()</text>
<text text-anchor="start" x="22" y="-123.5" font-family="Helvetica,sans-Serif" font-size="10.00" fill="#000000">+ operator()()</text>
</a>
</g>
</g>
<!-- Node1&#45;&gt;Node0 -->
<g id="edge1" class="edge">
<title>Node1&#45;&gt;Node0</title>
<path fill="none" stroke="#8b1a1a" d="M67.5,-106.2163C67.5,-97.394 67.5,-88.3127 67.5,-79.8116"/>
<polygon fill="none" stroke="#8b1a1a" points="64.0001,-106.4038 67.5,-116.4038 71.0001,-106.4039 64.0001,-106.4038"/>
</g>
</g>
</svg>
