<?xml version="1.0" encoding="UTF-8" standalone="no"?>
<!DOCTYPE svg PUBLIC "-//W3C//DTD SVG 1.1//EN"
 "http://www.w3.org/Graphics/SVG/1.1/DTD/svg11.dtd">
<!-- Generated by graphviz version 2.40.1 (20161225.0304)
 -->
<!-- Title: L4::Ipc::Msg::Do_rcv_buffers Pages: 1 -->
<svg width="254pt" height="171pt"
 viewBox="0.00 0.00 254.00 171.00" xmlns="http://www.w3.org/2000/svg" xmlns:xlink="http://www.w3.org/1999/xlink">
<g id="graph0" class="graph" transform="scale(1 1) rotate(0) translate(4 167)">
<title>L4::Ipc::Msg::Do_rcv_buffers</title>
<polygon fill="#ffffff" stroke="transparent" points="-4,4 -4,-167 250,-167 250,4 -4,4"/>
<!-- Node3 -->
<g id="node1" class="node">
<title>Node3</title>
<polygon fill="#bfbfbf" stroke="#000000" points="63,-.5 63,-68.5 173,-68.5 173,-.5 63,-.5"/>
<text text-anchor="start" x="71" y="-56.5" font-family="Helvetica,sans-Serif" font-size="10.00" fill="#000000">L4::Ipc::Msg::Do_rcv</text>
<text text-anchor="middle" x="118" y="-45.5" font-family="Helvetica,sans-Serif" font-size="10.00" fill="#000000">_buffers</text>
<polyline fill="none" stroke="#000000" points="63,-38.5 173,-38.5 "/>
<text text-anchor="middle" x="118" y="-26.5" font-family="Helvetica,sans-Serif" font-size="10.00" fill="#000000"> </text>
<polyline fill="none" stroke="#000000" points="63,-19.5 173,-19.5 "/>
<text text-anchor="middle" x="118" y="-7.5" font-family="Helvetica,sans-Serif" font-size="10.00" fill="#000000"> </text>
</g>
<!-- Node4 -->
<g id="node2" class="node">
<title>Node4</title>
<g id="a_node2"><a xlink:href="structL4_1_1Ipc_1_1Msg_1_1Dir__in.html" target="_top" xlink:title="Marker type for input values. ">
<polygon fill="#ffffff" stroke="#000000" points="0,-105.5 0,-162.5 104,-162.5 104,-105.5 0,-105.5"/>
<text text-anchor="middle" x="52" y="-150.5" font-family="Helvetica,sans-Serif" font-size="10.00" fill="#000000">L4::Ipc::Msg::Dir_in</text>
<polyline fill="none" stroke="#000000" points="0,-143.5 104,-143.5 "/>
<text text-anchor="middle" x="52" y="-131.5" font-family="Helvetica,sans-Serif" font-size="10.00" fill="#000000"> </text>
<polyline fill="none" stroke="#000000" points="0,-124.5 104,-124.5 "/>
<text text-anchor="middle" x="52" y="-112.5" font-family="Helvetica,sans-Serif" font-size="10.00" fill="#000000"> </text>
</a>
</g>
</g>
<!-- Node4&#45;&gt;Node3 -->
<g id="edge1" class="edge">
<title>Node4&#45;&gt;Node3</title>
<path fill="none" stroke="#191970" d="M76.4454,-97.1467C82.6313,-87.821 89.248,-77.8458 95.3414,-68.6596"/>
<polygon fill="none" stroke="#191970" points="73.524,-95.2192 70.913,-105.4873 79.3573,-99.0886 73.524,-95.2192"/>
</g>
<!-- Node5 -->
<g id="node3" class="node">
<title>Node5</title>
<g id="a_node3"><a xlink:href="structL4_1_1Ipc_1_1Msg_1_1Cls__buffer.html" target="_top" xlink:title="Marker type for receive buffer values. ">
<polygon fill="#ffffff" stroke="#000000" points="122,-105.5 122,-162.5 246,-162.5 246,-105.5 122,-105.5"/>
<text text-anchor="middle" x="184" y="-150.5" font-family="Helvetica,sans-Serif" font-size="10.00" fill="#000000">L4::Ipc::Msg::Cls_buffer</text>
<polyline fill="none" stroke="#000000" points="122,-143.5 246,-143.5 "/>
<text text-anchor="middle" x="184" y="-131.5" font-family="Helvetica,sans-Serif" font-size="10.00" fill="#000000"> </text>
<polyline fill="none" stroke="#000000" points="122,-124.5 246,-124.5 "/>
<text text-anchor="middle" x="184" y="-112.5" font-family="Helvetica,sans-Serif" font-size="10.00" fill="#000000"> </text>
</a>
</g>
</g>
<!-- Node5&#45;&gt;Node3 -->
<g id="edge2" class="edge">
<title>Node5&#45;&gt;Node3</title>
<path fill="none" stroke="#191970" d="M159.5546,-97.1467C153.3687,-87.821 146.752,-77.8458 140.6586,-68.6596"/>
<polygon fill="none" stroke="#191970" points="156.6427,-99.0886 165.087,-105.4873 162.476,-95.2192 156.6427,-99.0886"/>
</g>
</g>
</svg>
