<?xml version="1.0" encoding="UTF-8" standalone="no"?>
<!DOCTYPE svg PUBLIC "-//W3C//DTD SVG 1.1//EN"
 "http://www.w3.org/Graphics/SVG/1.1/DTD/svg11.dtd">
<!-- Generated by graphviz version 2.40.1 (20161225.0304)
 -->
<!-- Title: L4::Server_object_x&lt; Derived, IFACE, BASE &gt; Pages: 1 -->
<svg width="282pt" height="397pt"
 viewBox="0.00 0.00 281.50 397.00" xmlns="http://www.w3.org/2000/svg" xmlns:xlink="http://www.w3.org/1999/xlink">
<g id="graph0" class="graph" transform="scale(1 1) rotate(0) translate(4 393)">
<title>L4::Server_object_x&lt; Derived, IFACE, BASE &gt;</title>
<polygon fill="#ffffff" stroke="transparent" points="-4,4 -4,-393 277.5,-393 277.5,4 -4,4"/>
<!-- Node0 -->
<g id="node1" class="node">
<title>Node0</title>
<polygon fill="#bfbfbf" stroke="#000000" points="62,-.5 62,-68.5 201,-68.5 201,-.5 62,-.5"/>
<text text-anchor="start" x="70" y="-56.5" font-family="Helvetica,sans-Serif" font-size="10.00" fill="#000000">L4::Server_object_x</text>
<text text-anchor="middle" x="131.5" y="-45.5" font-family="Helvetica,sans-Serif" font-size="10.00" fill="#000000">&lt; Derived, IFACE, BASE &gt;</text>
<polyline fill="none" stroke="#000000" points="62,-38.5 201,-38.5 "/>
<text text-anchor="middle" x="131.5" y="-26.5" font-family="Helvetica,sans-Serif" font-size="10.00" fill="#000000"> </text>
<polyline fill="none" stroke="#000000" points="62,-19.5 201,-19.5 "/>
<text text-anchor="start" x="70" y="-7.5" font-family="Helvetica,sans-Serif" font-size="10.00" fill="#000000">+ dispatch()</text>
</g>
<!-- Node1 -->
<g id="node2" class="node">
<title>Node1</title>
<g id="a_node2"><a xlink:href="classL4_1_1Server__object.html" target="_top" xlink:title="Abstract server object to be used with L4::Server and L4::Basic_registry. ">
<polygon fill="#ffffff" stroke="#000000" points="13.5,-111 13.5,-190 111.5,-190 111.5,-111 13.5,-111"/>
<text text-anchor="middle" x="62.5" y="-178" font-family="Helvetica,sans-Serif" font-size="10.00" fill="#000000">L4::Server_object</text>
<polyline fill="none" stroke="#000000" points="13.5,-171 111.5,-171 "/>
<text text-anchor="middle" x="62.5" y="-159" font-family="Helvetica,sans-Serif" font-size="10.00" fill="#000000"> </text>
<polyline fill="none" stroke="#000000" points="13.5,-152 111.5,-152 "/>
<text text-anchor="start" x="21.5" y="-140" font-family="Helvetica,sans-Serif" font-size="10.00" fill="#000000">+ dispatch()</text>
<text text-anchor="start" x="21.5" y="-129" font-family="Helvetica,sans-Serif" font-size="10.00" fill="#000000">+ dispatch()</text>
<text text-anchor="start" x="21.5" y="-118" font-family="Helvetica,sans-Serif" font-size="10.00" fill="#000000">+ obj_cap()</text>
</a>
</g>
</g>
<!-- Node1&#45;&gt;Node0 -->
<g id="edge1" class="edge">
<title>Node1&#45;&gt;Node0</title>
<path fill="none" stroke="#191970" d="M91.3438,-102.0089C98.0443,-90.7443 105.0375,-78.9877 111.2748,-68.5017"/>
<polygon fill="none" stroke="#191970" points="88.1571,-100.52 86.0529,-110.9038 94.1733,-104.0986 88.1571,-100.52"/>
</g>
<!-- Node2 -->
<g id="node3" class="node">
<title>Node2</title>
<g id="a_node3"><a xlink:href="structL4_1_1Epiface.html" target="_top" xlink:title="Base class for interface implementations. ">
<polygon fill="#ffffff" stroke="#000000" points="0,-232.5 0,-388.5 125,-388.5 125,-232.5 0,-232.5"/>
<text text-anchor="middle" x="62.5" y="-376.5" font-family="Helvetica,sans-Serif" font-size="10.00" fill="#000000">L4::Epiface</text>
<polyline fill="none" stroke="#000000" points="0,-369.5 125,-369.5 "/>
<text text-anchor="middle" x="62.5" y="-357.5" font-family="Helvetica,sans-Serif" font-size="10.00" fill="#000000"> </text>
<polyline fill="none" stroke="#000000" points="0,-350.5 125,-350.5 "/>
<text text-anchor="start" x="8" y="-338.5" font-family="Helvetica,sans-Serif" font-size="10.00" fill="#000000">+ Epiface()</text>
<text text-anchor="start" x="8" y="-327.5" font-family="Helvetica,sans-Serif" font-size="10.00" fill="#000000">+ operator=()</text>
<text text-anchor="start" x="8" y="-316.5" font-family="Helvetica,sans-Serif" font-size="10.00" fill="#000000">+ Epiface()</text>
<text text-anchor="start" x="8" y="-305.5" font-family="Helvetica,sans-Serif" font-size="10.00" fill="#000000">+ dispatch()</text>
<text text-anchor="start" x="8" y="-294.5" font-family="Helvetica,sans-Serif" font-size="10.00" fill="#000000">+ get_buffer_demand()</text>
<text text-anchor="start" x="8" y="-283.5" font-family="Helvetica,sans-Serif" font-size="10.00" fill="#000000">+ ~Epiface()</text>
<text text-anchor="start" x="8" y="-272.5" font-family="Helvetica,sans-Serif" font-size="10.00" fill="#000000">+ obj_cap()</text>
<text text-anchor="start" x="8" y="-261.5" font-family="Helvetica,sans-Serif" font-size="10.00" fill="#000000">+ server_iface()</text>
<text text-anchor="start" x="8" y="-250.5" font-family="Helvetica,sans-Serif" font-size="10.00" fill="#000000">+ set_server()</text>
<text text-anchor="start" x="8" y="-239.5" font-family="Helvetica,sans-Serif" font-size="10.00" fill="#000000">+ set_obj_cap()</text>
</a>
</g>
</g>
<!-- Node2&#45;&gt;Node1 -->
<g id="edge2" class="edge">
<title>Node2&#45;&gt;Node1</title>
<path fill="none" stroke="#191970" d="M62.5,-222.1233C62.5,-211.0001 62.5,-200.0954 62.5,-190.2819"/>
<polygon fill="none" stroke="#191970" points="59.0001,-222.3748 62.5,-232.3748 66.0001,-222.3749 59.0001,-222.3748"/>
</g>
<!-- Node3 -->
<g id="node4" class="node">
<title>Node3</title>
<g id="a_node4"><a xlink:href="structL4_1_1Server__object__t.html" target="_top" xlink:title="Base class (template) for server implementing server objects. ">
<polygon fill="#ffffff" stroke="#000000" points="129.5,-105.5 129.5,-195.5 273.5,-195.5 273.5,-105.5 129.5,-105.5"/>
<text text-anchor="start" x="137.5" y="-183.5" font-family="Helvetica,sans-Serif" font-size="10.00" fill="#000000">L4::Server_object_t</text>
<text text-anchor="middle" x="201.5" y="-172.5" font-family="Helvetica,sans-Serif" font-size="10.00" fill="#000000">&lt; IFACE, BASE &gt;</text>
<polyline fill="none" stroke="#000000" points="129.5,-165.5 273.5,-165.5 "/>
<text text-anchor="middle" x="201.5" y="-153.5" font-family="Helvetica,sans-Serif" font-size="10.00" fill="#000000"> </text>
<polyline fill="none" stroke="#000000" points="129.5,-146.5 273.5,-146.5 "/>
<text text-anchor="start" x="137.5" y="-134.5" font-family="Helvetica,sans-Serif" font-size="10.00" fill="#000000">+ get_buffer_demand()</text>
<text text-anchor="start" x="137.5" y="-123.5" font-family="Helvetica,sans-Serif" font-size="10.00" fill="#000000">+ dispatch_meta_request()</text>
<text text-anchor="start" x="137.5" y="-112.5" font-family="Helvetica,sans-Serif" font-size="10.00" fill="#000000">+ proto_dispatch()</text>
</a>
</g>
</g>
<!-- Node3&#45;&gt;Node0 -->
<g id="edge3" class="edge">
<title>Node3&#45;&gt;Node0</title>
<path fill="none" stroke="#191970" d="M168.9919,-96.6294C163.2347,-87.0889 157.3871,-77.3987 152.0765,-68.5982"/>
<polygon fill="none" stroke="#191970" points="166.0724,-98.5657 174.2357,-105.3192 172.0657,-94.949 166.0724,-98.5657"/>
</g>
</g>
</svg>
