<?xml version="1.0" encoding="UTF-8" standalone="no"?>
<!DOCTYPE svg PUBLIC "-//W3C//DTD SVG 1.1//EN"
 "http://www.w3.org/Graphics/SVG/1.1/DTD/svg11.dtd">
<!-- Generated by graphviz version 2.40.1 (20161225.0304)
 -->
<!-- Title: l4re_video_view_info_t Pages: 1 -->
<svg width="171pt" height="408pt"
 viewBox="0.00 0.00 171.00 408.00" xmlns="http://www.w3.org/2000/svg" xmlns:xlink="http://www.w3.org/1999/xlink">
<g id="graph0" class="graph" transform="scale(1 1) rotate(0) translate(4 404)">
<title>l4re_video_view_info_t</title>
<polygon fill="#ffffff" stroke="transparent" points="-4,4 -4,-404 167,-404 167,4 -4,4"/>
<!-- Node1 -->
<g id="node1" class="node">
<title>Node1</title>
<polygon fill="#bfbfbf" stroke="#000000" points="19,-.5 19,-145.5 144,-145.5 144,-.5 19,-.5"/>
<text text-anchor="middle" x="81.5" y="-133.5" font-family="Helvetica,sans-Serif" font-size="10.00" fill="#000000">l4re_video_view_info_t</text>
<polyline fill="none" stroke="#000000" points="19,-126.5 144,-126.5 "/>
<text text-anchor="start" x="27" y="-114.5" font-family="Helvetica,sans-Serif" font-size="10.00" fill="#000000">+ flags</text>
<text text-anchor="start" x="27" y="-103.5" font-family="Helvetica,sans-Serif" font-size="10.00" fill="#000000">+ view_index</text>
<text text-anchor="start" x="27" y="-92.5" font-family="Helvetica,sans-Serif" font-size="10.00" fill="#000000">+ xpos</text>
<text text-anchor="start" x="27" y="-81.5" font-family="Helvetica,sans-Serif" font-size="10.00" fill="#000000">+ ypos</text>
<text text-anchor="start" x="27" y="-70.5" font-family="Helvetica,sans-Serif" font-size="10.00" fill="#000000">+ width</text>
<text text-anchor="start" x="27" y="-59.5" font-family="Helvetica,sans-Serif" font-size="10.00" fill="#000000">+ height</text>
<text text-anchor="start" x="27" y="-48.5" font-family="Helvetica,sans-Serif" font-size="10.00" fill="#000000">+ buffer_offset</text>
<text text-anchor="start" x="27" y="-37.5" font-family="Helvetica,sans-Serif" font-size="10.00" fill="#000000">+ bytes_per_line</text>
<text text-anchor="start" x="27" y="-26.5" font-family="Helvetica,sans-Serif" font-size="10.00" fill="#000000">+ buffer_index</text>
<polyline fill="none" stroke="#000000" points="19,-19.5 144,-19.5 "/>
<text text-anchor="middle" x="81.5" y="-7.5" font-family="Helvetica,sans-Serif" font-size="10.00" fill="#000000"> </text>
</g>
<!-- Node2 -->
<g id="node2" class="node">
<title>Node2</title>
<g id="a_node2"><a xlink:href="structl4re__video__pixel__info__t.html" target="_top" xlink:title="Pixel_info structure. ">
<polygon fill="#ffffff" stroke="#000000" points="18.5,-193.5 18.5,-250.5 144.5,-250.5 144.5,-193.5 18.5,-193.5"/>
<text text-anchor="middle" x="81.5" y="-238.5" font-family="Helvetica,sans-Serif" font-size="10.00" fill="#000000">l4re_video_pixel_info_t</text>
<polyline fill="none" stroke="#000000" points="18.5,-231.5 144.5,-231.5 "/>
<text text-anchor="start" x="26.5" y="-219.5" font-family="Helvetica,sans-Serif" font-size="10.00" fill="#000000">+ bytes_per_pixel</text>
<polyline fill="none" stroke="#000000" points="18.5,-212.5 144.5,-212.5 "/>
<text text-anchor="middle" x="81.5" y="-200.5" font-family="Helvetica,sans-Serif" font-size="10.00" fill="#000000"> </text>
</a>
</g>
</g>
<!-- Node2&#45;&gt;Node1 -->
<g id="edge1" class="edge">
<title>Node2&#45;&gt;Node1</title>
<path fill="none" stroke="#404040" d="M81.5,-193.2713C81.5,-182.8895 81.5,-170.5716 81.5,-157.843"/>
<polygon fill="none" stroke="#404040" points="81.5001,-157.5631 77.5,-151.5632 81.5,-145.5631 85.5,-151.5631 81.5001,-157.5631"/>
<text text-anchor="middle" x="109" y="-167" font-family="Helvetica,sans-Serif" font-size="10.00" fill="#000000"> +pixel_info</text>
</g>
<!-- Node3 -->
<g id="node3" class="node">
<title>Node3</title>
<g id="a_node3"><a xlink:href="structl4re__video__color__component__t.html" target="_top" xlink:title="Color component structure. ">
<polygon fill="#ffffff" stroke="#000000" points="0,-331.5 0,-399.5 163,-399.5 163,-331.5 0,-331.5"/>
<text text-anchor="middle" x="81.5" y="-387.5" font-family="Helvetica,sans-Serif" font-size="10.00" fill="#000000">l4re_video_color_component_t</text>
<polyline fill="none" stroke="#000000" points="0,-380.5 163,-380.5 "/>
<text text-anchor="start" x="8" y="-368.5" font-family="Helvetica,sans-Serif" font-size="10.00" fill="#000000">+ size</text>
<text text-anchor="start" x="8" y="-357.5" font-family="Helvetica,sans-Serif" font-size="10.00" fill="#000000">+ shift</text>
<polyline fill="none" stroke="#000000" points="0,-350.5 163,-350.5 "/>
<text text-anchor="middle" x="81.5" y="-338.5" font-family="Helvetica,sans-Serif" font-size="10.00" fill="#000000"> </text>
</a>
</g>
</g>
<!-- Node3&#45;&gt;Node2 -->
<g id="edge2" class="edge">
<title>Node3&#45;&gt;Node2</title>
<path fill="none" stroke="#404040" d="M81.5,-331.4925C81.5,-310.9847 81.5,-284.7262 81.5,-263.065"/>
<polygon fill="none" stroke="#404040" points="81.5001,-262.9207 77.5,-256.9207 81.5,-250.9207 85.5,-256.9206 81.5001,-262.9207"/>
<text text-anchor="middle" x="89.5" y="-305" font-family="Helvetica,sans-Serif" font-size="10.00" fill="#000000"> +a</text>
<text text-anchor="middle" x="89.5" y="-294" font-family="Helvetica,sans-Serif" font-size="10.00" fill="#000000">+r</text>
<text text-anchor="middle" x="89.5" y="-283" font-family="Helvetica,sans-Serif" font-size="10.00" fill="#000000">+b</text>
<text text-anchor="middle" x="89.5" y="-272" font-family="Helvetica,sans-Serif" font-size="10.00" fill="#000000">+g</text>
</g>
</g>
</svg>
