<?xml version="1.0" encoding="UTF-8" standalone="no"?>
<!DOCTYPE svg PUBLIC "-//W3C//DTD SVG 1.1//EN"
 "http://www.w3.org/Graphics/SVG/1.1/DTD/svg11.dtd">
<!-- Generated by graphviz version 2.40.1 (20161225.0304)
 -->
<!-- Title: L4::Types::Same&lt; A, B &gt; Pages: 1 -->
<svg width="139pt" height="361pt"
 viewBox="0.00 0.00 139.00 361.00" xmlns="http://www.w3.org/2000/svg" xmlns:xlink="http://www.w3.org/1999/xlink">
<g id="graph0" class="graph" transform="scale(1 1) rotate(0) translate(4 357)">
<title>L4::Types::Same&lt; A, B &gt;</title>
<polygon fill="#ffffff" stroke="transparent" points="-4,4 -4,-357 135,-357 135,4 -4,4"/>
<!-- Node4 -->
<g id="node1" class="node">
<title>Node4</title>
<polygon fill="#bfbfbf" stroke="#000000" points="0,-.5 0,-57.5 131,-57.5 131,-.5 0,-.5"/>
<text text-anchor="middle" x="65.5" y="-45.5" font-family="Helvetica,sans-Serif" font-size="10.00" fill="#000000">L4::Types::Same&lt; A, B &gt;</text>
<polyline fill="none" stroke="#000000" points="0,-38.5 131,-38.5 "/>
<text text-anchor="middle" x="65.5" y="-26.5" font-family="Helvetica,sans-Serif" font-size="10.00" fill="#000000"> </text>
<polyline fill="none" stroke="#000000" points="0,-19.5 131,-19.5 "/>
<text text-anchor="middle" x="65.5" y="-7.5" font-family="Helvetica,sans-Serif" font-size="10.00" fill="#000000"> </text>
</g>
<!-- Node5 -->
<g id="node2" class="node">
<title>Node5</title>
<g id="a_node2"><a xlink:href="structL4_1_1Types_1_1False.html" target="_top" xlink:title="False meta value. ">
<polygon fill="#ffffff" stroke="#000000" points="19.5,-95.5 19.5,-152.5 111.5,-152.5 111.5,-95.5 19.5,-95.5"/>
<text text-anchor="middle" x="65.5" y="-140.5" font-family="Helvetica,sans-Serif" font-size="10.00" fill="#000000">L4::Types::False</text>
<polyline fill="none" stroke="#000000" points="19.5,-133.5 111.5,-133.5 "/>
<text text-anchor="middle" x="65.5" y="-121.5" font-family="Helvetica,sans-Serif" font-size="10.00" fill="#000000"> </text>
<polyline fill="none" stroke="#000000" points="19.5,-114.5 111.5,-114.5 "/>
<text text-anchor="middle" x="65.5" y="-102.5" font-family="Helvetica,sans-Serif" font-size="10.00" fill="#000000"> </text>
</a>
</g>
</g>
<!-- Node5&#45;&gt;Node4 -->
<g id="edge1" class="edge">
<title>Node5&#45;&gt;Node4</title>
<path fill="none" stroke="#191970" d="M65.5,-85.3724C65.5,-76.1627 65.5,-66.4917 65.5,-57.8114"/>
<polygon fill="none" stroke="#191970" points="62.0001,-85.4968 65.5,-95.4969 69.0001,-85.4969 62.0001,-85.4968"/>
</g>
<!-- Node6 -->
<g id="node3" class="node">
<title>Node6</title>
<g id="a_node3"><a xlink:href="structL4_1_1Types_1_1Bool.html" target="_top" xlink:title="{L4::Types::Bool\&lt; false \&gt;\n||}">
<polygon fill="#ffffff" stroke="#000000" points="1.5,-190.5 1.5,-247.5 129.5,-247.5 129.5,-190.5 1.5,-190.5"/>
<text text-anchor="middle" x="65.5" y="-235.5" font-family="Helvetica,sans-Serif" font-size="10.00" fill="#000000">L4::Types::Bool&lt; false &gt;</text>
<polyline fill="none" stroke="#000000" points="1.5,-228.5 129.5,-228.5 "/>
<text text-anchor="middle" x="65.5" y="-216.5" font-family="Helvetica,sans-Serif" font-size="10.00" fill="#000000"> </text>
<polyline fill="none" stroke="#000000" points="1.5,-209.5 129.5,-209.5 "/>
<text text-anchor="middle" x="65.5" y="-197.5" font-family="Helvetica,sans-Serif" font-size="10.00" fill="#000000"> </text>
</a>
</g>
</g>
<!-- Node6&#45;&gt;Node5 -->
<g id="edge2" class="edge">
<title>Node6&#45;&gt;Node5</title>
<path fill="none" stroke="#191970" d="M65.5,-180.3724C65.5,-171.1627 65.5,-161.4917 65.5,-152.8114"/>
<polygon fill="none" stroke="#191970" points="62.0001,-180.4968 65.5,-190.4969 69.0001,-180.4969 62.0001,-180.4968"/>
</g>
<!-- Node7 -->
<g id="node4" class="node">
<title>Node7</title>
<g id="a_node4"><a xlink:href="structL4_1_1Types_1_1Bool.html" target="_top" xlink:title="Boolean meta type. ">
<polygon fill="#ffffff" stroke="#000000" points="9,-295.5 9,-352.5 122,-352.5 122,-295.5 9,-295.5"/>
<text text-anchor="middle" x="65.5" y="-340.5" font-family="Helvetica,sans-Serif" font-size="10.00" fill="#000000">L4::Types::Bool&lt; V &gt;</text>
<polyline fill="none" stroke="#000000" points="9,-333.5 122,-333.5 "/>
<text text-anchor="middle" x="65.5" y="-321.5" font-family="Helvetica,sans-Serif" font-size="10.00" fill="#000000"> </text>
<polyline fill="none" stroke="#000000" points="9,-314.5 122,-314.5 "/>
<text text-anchor="middle" x="65.5" y="-302.5" font-family="Helvetica,sans-Serif" font-size="10.00" fill="#000000"> </text>
</a>
</g>
</g>
<!-- Node7&#45;&gt;Node6 -->
<g id="edge3" class="edge">
<title>Node7&#45;&gt;Node6</title>
<path fill="none" stroke="#ffa500" d="M65.5,-285.192C65.5,-272.7605 65.5,-259.2278 65.5,-247.657"/>
<polygon fill="#ffa500" stroke="#ffa500" points="62.0001,-285.3083 65.5,-295.3083 69.0001,-285.3083 62.0001,-285.3083"/>
<text text-anchor="middle" x="87.5" y="-269" font-family="Helvetica,sans-Serif" font-size="10.00" fill="#000000"> &lt; false &gt;</text>
</g>
</g>
</svg>
