<?xml version="1.0" encoding="UTF-8" standalone="no"?>
<!DOCTYPE svg PUBLIC "-//W3C//DTD SVG 1.1//EN"
 "http://www.w3.org/Graphics/SVG/1.1/DTD/svg11.dtd">
<!-- Generated by graphviz version 2.40.1 (20161225.0304)
 -->
<!-- Title: l4virtio_input_config_t Pages: 1 -->
<svg width="274pt" height="281pt"
 viewBox="0.00 0.00 273.50 281.00" xmlns="http://www.w3.org/2000/svg" xmlns:xlink="http://www.w3.org/1999/xlink">
<g id="graph0" class="graph" transform="scale(1 1) rotate(0) translate(4 277)">
<title>l4virtio_input_config_t</title>
<polygon fill="#ffffff" stroke="transparent" points="-4,4 -4,-277 269.5,-277 269.5,4 -4,4"/>
<!-- Node1 -->
<g id="node1" class="node">
<title>Node1</title>
<polygon fill="#bfbfbf" stroke="#000000" points="74,-.5 74,-123.5 193,-123.5 193,-.5 74,-.5"/>
<text text-anchor="middle" x="133.5" y="-111.5" font-family="Helvetica,sans-Serif" font-size="10.00" fill="#000000">l4virtio_input_config_t</text>
<polyline fill="none" stroke="#000000" points="74,-104.5 193,-104.5 "/>
<text text-anchor="start" x="82" y="-92.5" font-family="Helvetica,sans-Serif" font-size="10.00" fill="#000000">+ select</text>
<text text-anchor="start" x="82" y="-81.5" font-family="Helvetica,sans-Serif" font-size="10.00" fill="#000000">+ subsel</text>
<text text-anchor="start" x="82" y="-70.5" font-family="Helvetica,sans-Serif" font-size="10.00" fill="#000000">+ size</text>
<text text-anchor="start" x="82" y="-59.5" font-family="Helvetica,sans-Serif" font-size="10.00" fill="#000000">+ reserved</text>
<text text-anchor="start" x="82" y="-48.5" font-family="Helvetica,sans-Serif" font-size="10.00" fill="#000000">+ string</text>
<text text-anchor="start" x="82" y="-37.5" font-family="Helvetica,sans-Serif" font-size="10.00" fill="#000000">+ bitmap</text>
<text text-anchor="start" x="82" y="-26.5" font-family="Helvetica,sans-Serif" font-size="10.00" fill="#000000">+ u</text>
<polyline fill="none" stroke="#000000" points="74,-19.5 193,-19.5 "/>
<text text-anchor="middle" x="133.5" y="-7.5" font-family="Helvetica,sans-Serif" font-size="10.00" fill="#000000"> </text>
</g>
<!-- Node2 -->
<g id="node2" class="node">
<title>Node2</title>
<g id="a_node2"><a xlink:href="structl4virtio__input__absinfo__t.html" target="_top" xlink:title="Information about the absolute axis in the underlying evdev implementation. ">
<polygon fill="#ffffff" stroke="#000000" points="0,-171.5 0,-272.5 125,-272.5 125,-171.5 0,-171.5"/>
<text text-anchor="middle" x="62.5" y="-260.5" font-family="Helvetica,sans-Serif" font-size="10.00" fill="#000000">l4virtio_input_absinfo_t</text>
<polyline fill="none" stroke="#000000" points="0,-253.5 125,-253.5 "/>
<text text-anchor="start" x="8" y="-241.5" font-family="Helvetica,sans-Serif" font-size="10.00" fill="#000000">+ min</text>
<text text-anchor="start" x="8" y="-230.5" font-family="Helvetica,sans-Serif" font-size="10.00" fill="#000000">+ max</text>
<text text-anchor="start" x="8" y="-219.5" font-family="Helvetica,sans-Serif" font-size="10.00" fill="#000000">+ fuzz</text>
<text text-anchor="start" x="8" y="-208.5" font-family="Helvetica,sans-Serif" font-size="10.00" fill="#000000">+ flat</text>
<text text-anchor="start" x="8" y="-197.5" font-family="Helvetica,sans-Serif" font-size="10.00" fill="#000000">+ res</text>
<polyline fill="none" stroke="#000000" points="0,-190.5 125,-190.5 "/>
<text text-anchor="middle" x="62.5" y="-178.5" font-family="Helvetica,sans-Serif" font-size="10.00" fill="#000000"> </text>
</a>
</g>
</g>
<!-- Node2&#45;&gt;Node1 -->
<g id="edge1" class="edge">
<title>Node2&#45;&gt;Node1</title>
<path fill="none" stroke="#404040" d="M84.9648,-171.375C90.1282,-159.7392 95.7188,-147.1407 101.2064,-134.7743"/>
<polygon fill="none" stroke="#404040" points="101.3345,-134.4855 100.112,-127.3788 106.2019,-123.5169 107.4244,-130.6237 101.3345,-134.4855"/>
<text text-anchor="middle" x="112" y="-145" font-family="Helvetica,sans-Serif" font-size="10.00" fill="#000000"> +abs</text>
</g>
<!-- Node3 -->
<g id="node3" class="node">
<title>Node3</title>
<g id="a_node3"><a xlink:href="structl4virtio__input__devids__t.html" target="_top" xlink:title="Device ID information for the device. ">
<polygon fill="#ffffff" stroke="#000000" points="143.5,-177 143.5,-267 265.5,-267 265.5,-177 143.5,-177"/>
<text text-anchor="middle" x="204.5" y="-255" font-family="Helvetica,sans-Serif" font-size="10.00" fill="#000000">l4virtio_input_devids_t</text>
<polyline fill="none" stroke="#000000" points="143.5,-248 265.5,-248 "/>
<text text-anchor="start" x="151.5" y="-236" font-family="Helvetica,sans-Serif" font-size="10.00" fill="#000000">+ bustype</text>
<text text-anchor="start" x="151.5" y="-225" font-family="Helvetica,sans-Serif" font-size="10.00" fill="#000000">+ vendor</text>
<text text-anchor="start" x="151.5" y="-214" font-family="Helvetica,sans-Serif" font-size="10.00" fill="#000000">+ product</text>
<text text-anchor="start" x="151.5" y="-203" font-family="Helvetica,sans-Serif" font-size="10.00" fill="#000000">+ version</text>
<polyline fill="none" stroke="#000000" points="143.5,-196 265.5,-196 "/>
<text text-anchor="middle" x="204.5" y="-184" font-family="Helvetica,sans-Serif" font-size="10.00" fill="#000000"> </text>
</a>
</g>
</g>
<!-- Node3&#45;&gt;Node1 -->
<g id="edge2" class="edge">
<title>Node3&#45;&gt;Node1</title>
<path fill="none" stroke="#404040" d="M184.3442,-176.5784C178.5859,-163.6021 172.1608,-149.1229 165.8679,-134.9417"/>
<polygon fill="none" stroke="#404040" points="165.7321,-134.6356 159.6422,-130.7738 160.8648,-123.6671 166.9546,-127.5289 165.7321,-134.6356"/>
<text text-anchor="middle" x="184.5" y="-145" font-family="Helvetica,sans-Serif" font-size="10.00" fill="#000000"> +ids</text>
</g>
</g>
</svg>
