<?xml version="1.0" encoding="UTF-8" standalone="no"?>
<!DOCTYPE svg PUBLIC "-//W3C//DTD SVG 1.1//EN"
 "http://www.w3.org/Graphics/SVG/1.1/DTD/svg11.dtd">
<!-- Generated by graphviz version 2.40.1 (20161225.0304)
 -->
<!-- Title: L4::Types::False Pages: 1 -->
<svg width="136pt" height="266pt"
 viewBox="0.00 0.00 136.00 266.00" xmlns="http://www.w3.org/2000/svg" xmlns:xlink="http://www.w3.org/1999/xlink">
<g id="graph0" class="graph" transform="scale(1 1) rotate(0) translate(4 262)">
<title>L4::Types::False</title>
<polygon fill="#ffffff" stroke="transparent" points="-4,4 -4,-262 132,-262 132,4 -4,4"/>
<!-- Node4 -->
<g id="node1" class="node">
<title>Node4</title>
<polygon fill="#bfbfbf" stroke="#000000" points="18,-.5 18,-57.5 110,-57.5 110,-.5 18,-.5"/>
<text text-anchor="middle" x="64" y="-45.5" font-family="Helvetica,sans-Serif" font-size="10.00" fill="#000000">L4::Types::False</text>
<polyline fill="none" stroke="#000000" points="18,-38.5 110,-38.5 "/>
<text text-anchor="middle" x="64" y="-26.5" font-family="Helvetica,sans-Serif" font-size="10.00" fill="#000000"> </text>
<polyline fill="none" stroke="#000000" points="18,-19.5 110,-19.5 "/>
<text text-anchor="middle" x="64" y="-7.5" font-family="Helvetica,sans-Serif" font-size="10.00" fill="#000000"> </text>
</g>
<!-- Node5 -->
<g id="node2" class="node">
<title>Node5</title>
<g id="a_node2"><a xlink:href="structL4_1_1Types_1_1Bool.html" target="_top" xlink:title="{L4::Types::Bool\&lt; false \&gt;\n||}">
<polygon fill="#ffffff" stroke="#000000" points="0,-95.5 0,-152.5 128,-152.5 128,-95.5 0,-95.5"/>
<text text-anchor="middle" x="64" y="-140.5" font-family="Helvetica,sans-Serif" font-size="10.00" fill="#000000">L4::Types::Bool&lt; false &gt;</text>
<polyline fill="none" stroke="#000000" points="0,-133.5 128,-133.5 "/>
<text text-anchor="middle" x="64" y="-121.5" font-family="Helvetica,sans-Serif" font-size="10.00" fill="#000000"> </text>
<polyline fill="none" stroke="#000000" points="0,-114.5 128,-114.5 "/>
<text text-anchor="middle" x="64" y="-102.5" font-family="Helvetica,sans-Serif" font-size="10.00" fill="#000000"> </text>
</a>
</g>
</g>
<!-- Node5&#45;&gt;Node4 -->
<g id="edge1" class="edge">
<title>Node5&#45;&gt;Node4</title>
<path fill="none" stroke="#191970" d="M64,-85.3724C64,-76.1627 64,-66.4917 64,-57.8114"/>
<polygon fill="none" stroke="#191970" points="60.5001,-85.4968 64,-95.4969 67.5001,-85.4969 60.5001,-85.4968"/>
</g>
<!-- Node6 -->
<g id="node3" class="node">
<title>Node6</title>
<g id="a_node3"><a xlink:href="structL4_1_1Types_1_1Bool.html" target="_top" xlink:title="Boolean meta type. ">
<polygon fill="#ffffff" stroke="#000000" points="7.5,-200.5 7.5,-257.5 120.5,-257.5 120.5,-200.5 7.5,-200.5"/>
<text text-anchor="middle" x="64" y="-245.5" font-family="Helvetica,sans-Serif" font-size="10.00" fill="#000000">L4::Types::Bool&lt; V &gt;</text>
<polyline fill="none" stroke="#000000" points="7.5,-238.5 120.5,-238.5 "/>
<text text-anchor="middle" x="64" y="-226.5" font-family="Helvetica,sans-Serif" font-size="10.00" fill="#000000"> </text>
<polyline fill="none" stroke="#000000" points="7.5,-219.5 120.5,-219.5 "/>
<text text-anchor="middle" x="64" y="-207.5" font-family="Helvetica,sans-Serif" font-size="10.00" fill="#000000"> </text>
</a>
</g>
</g>
<!-- Node6&#45;&gt;Node5 -->
<g id="edge2" class="edge">
<title>Node6&#45;&gt;Node5</title>
<path fill="none" stroke="#ffa500" d="M64,-190.192C64,-177.7605 64,-164.2278 64,-152.657"/>
<polygon fill="#ffa500" stroke="#ffa500" points="60.5001,-190.3083 64,-200.3083 67.5001,-190.3083 60.5001,-190.3083"/>
<text text-anchor="middle" x="86" y="-174" font-family="Helvetica,sans-Serif" font-size="10.00" fill="#000000"> &lt; false &gt;</text>
</g>
</g>
</svg>
