<?xml version="1.0" encoding="UTF-8" standalone="no"?>
<!DOCTYPE svg PUBLIC "-//W3C//DTD SVG 1.1//EN"
 "http://www.w3.org/Graphics/SVG/1.1/DTD/svg11.dtd">
<!-- Generated by graphviz version 2.40.1 (20161225.0304)
 -->
<!-- Title: L4::Irqep_t&lt; Derived, BASE, bool &gt; Pages: 1 -->
<svg width="147pt" height="448pt"
 viewBox="0.00 0.00 146.50 448.00" xmlns="http://www.w3.org/2000/svg" xmlns:xlink="http://www.w3.org/1999/xlink">
<g id="graph0" class="graph" transform="scale(1 1) rotate(0) translate(4 444)">
<title>L4::Irqep_t&lt; Derived, BASE, bool &gt;</title>
<polygon fill="#ffffff" stroke="transparent" points="-4,4 -4,-444 142.5,-444 142.5,4 -4,4"/>
<!-- Node0 -->
<g id="node1" class="node">
<title>Node0</title>
<polygon fill="#bfbfbf" stroke="#000000" points="8,-116.5 8,-195.5 123,-195.5 123,-116.5 8,-116.5"/>
<text text-anchor="start" x="16" y="-183.5" font-family="Helvetica,sans-Serif" font-size="10.00" fill="#000000">L4::Irqep_t&lt; Derived,</text>
<text text-anchor="middle" x="65.5" y="-172.5" font-family="Helvetica,sans-Serif" font-size="10.00" fill="#000000"> BASE, bool &gt;</text>
<polyline fill="none" stroke="#000000" points="8,-165.5 123,-165.5 "/>
<text text-anchor="middle" x="65.5" y="-153.5" font-family="Helvetica,sans-Serif" font-size="10.00" fill="#000000"> </text>
<polyline fill="none" stroke="#000000" points="8,-146.5 123,-146.5 "/>
<text text-anchor="start" x="16" y="-134.5" font-family="Helvetica,sans-Serif" font-size="10.00" fill="#000000">+ dispatch()</text>
<text text-anchor="start" x="16" y="-123.5" font-family="Helvetica,sans-Serif" font-size="10.00" fill="#000000">+ obj_cap()</text>
</g>
<!-- Node3 -->
<g id="node4" class="node">
<title>Node3</title>
<g id="a_node4"><a xlink:href="structL4_1_1Irqep__t.html" target="_top" xlink:title="{L4::Irqep_t\&lt; Irq_object \&gt;\n||+ dispatch()\l+ obj_cap()\l}">
<polygon fill="#ffffff" stroke="#000000" points="0,-.5 0,-68.5 131,-68.5 131,-.5 0,-.5"/>
<text text-anchor="middle" x="65.5" y="-56.5" font-family="Helvetica,sans-Serif" font-size="10.00" fill="#000000">L4::Irqep_t&lt; Irq_object &gt;</text>
<polyline fill="none" stroke="#000000" points="0,-49.5 131,-49.5 "/>
<text text-anchor="middle" x="65.5" y="-37.5" font-family="Helvetica,sans-Serif" font-size="10.00" fill="#000000"> </text>
<polyline fill="none" stroke="#000000" points="0,-30.5 131,-30.5 "/>
<text text-anchor="start" x="8" y="-18.5" font-family="Helvetica,sans-Serif" font-size="10.00" fill="#000000">+ dispatch()</text>
<text text-anchor="start" x="8" y="-7.5" font-family="Helvetica,sans-Serif" font-size="10.00" fill="#000000">+ obj_cap()</text>
</a>
</g>
</g>
<!-- Node0&#45;&gt;Node3 -->
<g id="edge3" class="edge">
<title>Node0&#45;&gt;Node3</title>
<path fill="none" stroke="#ffa500" d="M65.5,-105.8896C65.5,-93.3634 65.5,-80.2142 65.5,-68.6628"/>
<polygon fill="#ffa500" stroke="#ffa500" points="62.0001,-106.2163 65.5,-116.2164 69.0001,-106.2164 62.0001,-106.2163"/>
<text text-anchor="middle" x="99.5" y="-90" font-family="Helvetica,sans-Serif" font-size="10.00" fill="#000000"> &lt; Irq_object &gt;</text>
</g>
<!-- Node1 -->
<g id="node2" class="node">
<title>Node1</title>
<g id="a_node2"><a xlink:href="structL4_1_1Epiface__t0.html" target="_top" xlink:title="{L4::Epiface_t0\&lt; void,\l BASE \&gt;\n||+ get_buffer_demand()\l+ obj_cap()\l}">
<polygon fill="#ffffff" stroke="#000000" points="3,-233.5 3,-312.5 128,-312.5 128,-233.5 3,-233.5"/>
<text text-anchor="start" x="11" y="-300.5" font-family="Helvetica,sans-Serif" font-size="10.00" fill="#000000">L4::Epiface_t0&lt; void,</text>
<text text-anchor="middle" x="65.5" y="-289.5" font-family="Helvetica,sans-Serif" font-size="10.00" fill="#000000"> BASE &gt;</text>
<polyline fill="none" stroke="#000000" points="3,-282.5 128,-282.5 "/>
<text text-anchor="middle" x="65.5" y="-270.5" font-family="Helvetica,sans-Serif" font-size="10.00" fill="#000000"> </text>
<polyline fill="none" stroke="#000000" points="3,-263.5 128,-263.5 "/>
<text text-anchor="start" x="11" y="-251.5" font-family="Helvetica,sans-Serif" font-size="10.00" fill="#000000">+ get_buffer_demand()</text>
<text text-anchor="start" x="11" y="-240.5" font-family="Helvetica,sans-Serif" font-size="10.00" fill="#000000">+ obj_cap()</text>
</a>
</g>
</g>
<!-- Node1&#45;&gt;Node0 -->
<g id="edge1" class="edge">
<title>Node1&#45;&gt;Node0</title>
<path fill="none" stroke="#191970" d="M65.5,-223.1578C65.5,-213.9409 65.5,-204.4308 65.5,-195.5701"/>
<polygon fill="none" stroke="#191970" points="62.0001,-223.3891 65.5,-233.3891 69.0001,-223.3892 62.0001,-223.3891"/>
</g>
<!-- Node2 -->
<g id="node3" class="node">
<title>Node2</title>
<g id="a_node3"><a xlink:href="structL4_1_1Epiface__t0.html" target="_top" xlink:title="Epiface mixin for generic Kobject&#45;based interfaces. ">
<polygon fill="#ffffff" stroke="#000000" points="3,-360.5 3,-439.5 128,-439.5 128,-360.5 3,-360.5"/>
<text text-anchor="start" x="11" y="-427.5" font-family="Helvetica,sans-Serif" font-size="10.00" fill="#000000">L4::Epiface_t0&lt; RPC</text>
<text text-anchor="middle" x="65.5" y="-416.5" font-family="Helvetica,sans-Serif" font-size="10.00" fill="#000000">_IFACE, BASE &gt;</text>
<polyline fill="none" stroke="#000000" points="3,-409.5 128,-409.5 "/>
<text text-anchor="middle" x="65.5" y="-397.5" font-family="Helvetica,sans-Serif" font-size="10.00" fill="#000000"> </text>
<polyline fill="none" stroke="#000000" points="3,-390.5 128,-390.5 "/>
<text text-anchor="start" x="11" y="-378.5" font-family="Helvetica,sans-Serif" font-size="10.00" fill="#000000">+ get_buffer_demand()</text>
<text text-anchor="start" x="11" y="-367.5" font-family="Helvetica,sans-Serif" font-size="10.00" fill="#000000">+ obj_cap()</text>
</a>
</g>
</g>
<!-- Node2&#45;&gt;Node1 -->
<g id="edge2" class="edge">
<title>Node2&#45;&gt;Node1</title>
<path fill="none" stroke="#ffa500" d="M65.5,-349.9789C65.5,-337.5999 65.5,-324.5045 65.5,-312.6938"/>
<polygon fill="#ffa500" stroke="#ffa500" points="62.0001,-350.1648 65.5,-360.1649 69.0001,-350.1649 62.0001,-350.1648"/>
<text text-anchor="middle" x="102" y="-334" font-family="Helvetica,sans-Serif" font-size="10.00" fill="#000000"> &lt; void, BASE &gt;</text>
</g>
</g>
</svg>
