<?xml version="1.0" encoding="UTF-8" standalone="no"?>
<!DOCTYPE svg PUBLIC "-//W3C//DTD SVG 1.1//EN"
 "http://www.w3.org/Graphics/SVG/1.1/DTD/svg11.dtd">
<!-- Generated by graphviz version 2.40.1 (20161225.0304)
 -->
<!-- Title: l4_sched_param_t Pages: 1 -->
<svg width="119pt" height="215pt"
 viewBox="0.00 0.00 119.00 215.00" xmlns="http://www.w3.org/2000/svg" xmlns:xlink="http://www.w3.org/1999/xlink">
<g id="graph0" class="graph" transform="scale(1 1) rotate(0) translate(4 211)">
<title>l4_sched_param_t</title>
<polygon fill="#ffffff" stroke="transparent" points="-4,4 -4,-211 115,-211 115,4 -4,4"/>
<!-- Node1 -->
<g id="node1" class="node">
<title>Node1</title>
<polygon fill="#bfbfbf" stroke="#000000" points="3.5,-.5 3.5,-68.5 107.5,-68.5 107.5,-.5 3.5,-.5"/>
<text text-anchor="middle" x="55.5" y="-56.5" font-family="Helvetica,sans-Serif" font-size="10.00" fill="#000000">l4_sched_param_t</text>
<polyline fill="none" stroke="#000000" points="3.5,-49.5 107.5,-49.5 "/>
<text text-anchor="start" x="11.5" y="-37.5" font-family="Helvetica,sans-Serif" font-size="10.00" fill="#000000">+ prio</text>
<text text-anchor="start" x="11.5" y="-26.5" font-family="Helvetica,sans-Serif" font-size="10.00" fill="#000000">+ quantum</text>
<polyline fill="none" stroke="#000000" points="3.5,-19.5 107.5,-19.5 "/>
<text text-anchor="middle" x="55.5" y="-7.5" font-family="Helvetica,sans-Serif" font-size="10.00" fill="#000000"> </text>
</g>
<!-- Node2 -->
<g id="node2" class="node">
<title>Node2</title>
<g id="a_node2"><a xlink:href="structl4__sched__cpu__set__t.html" target="_top" xlink:title="CPU sets. ">
<polygon fill="#ffffff" stroke="#000000" points="0,-116.5 0,-206.5 111,-206.5 111,-116.5 0,-116.5"/>
<text text-anchor="middle" x="55.5" y="-194.5" font-family="Helvetica,sans-Serif" font-size="10.00" fill="#000000">l4_sched_cpu_set_t</text>
<polyline fill="none" stroke="#000000" points="0,-187.5 111,-187.5 "/>
<text text-anchor="start" x="8" y="-175.5" font-family="Helvetica,sans-Serif" font-size="10.00" fill="#000000">+ gran_offset</text>
<text text-anchor="start" x="8" y="-164.5" font-family="Helvetica,sans-Serif" font-size="10.00" fill="#000000">+ map</text>
<polyline fill="none" stroke="#000000" points="0,-157.5 111,-157.5 "/>
<text text-anchor="start" x="8" y="-145.5" font-family="Helvetica,sans-Serif" font-size="10.00" fill="#000000">+ granularity()</text>
<text text-anchor="start" x="8" y="-134.5" font-family="Helvetica,sans-Serif" font-size="10.00" fill="#000000">+ offset()</text>
<text text-anchor="start" x="8" y="-123.5" font-family="Helvetica,sans-Serif" font-size="10.00" fill="#000000">+ set()</text>
</a>
</g>
</g>
<!-- Node2&#45;&gt;Node1 -->
<g id="edge1" class="edge">
<title>Node2&#45;&gt;Node1</title>
<path fill="none" stroke="#404040" d="M55.5,-116.367C55.5,-104.8482 55.5,-92.4473 55.5,-80.8678"/>
<polygon fill="none" stroke="#404040" points="55.5001,-80.706 51.5,-74.706 55.5,-68.706 59.5,-74.7059 55.5001,-80.706"/>
<text text-anchor="middle" x="76" y="-90" font-family="Helvetica,sans-Serif" font-size="10.00" fill="#000000"> +affinity</text>
</g>
</g>
</svg>
