<?xml version="1.0" encoding="UTF-8" standalone="no"?>
<!DOCTYPE svg PUBLIC "-//W3C//DTD SVG 1.1//EN"
 "http://www.w3.org/Graphics/SVG/1.1/DTD/svg11.dtd">
<!-- Generated by graphviz version 2.40.1 (20161225.0304)
 -->
<!-- Title: L4::Ipc::Msg::Dir_out Pages: 1 -->
<svg width="274pt" height="171pt"
 viewBox="0.00 0.00 273.50 171.00" xmlns="http://www.w3.org/2000/svg" xmlns:xlink="http://www.w3.org/1999/xlink">
<g id="graph0" class="graph" transform="scale(1 1) rotate(0) translate(4 167)">
<title>L4::Ipc::Msg::Dir_out</title>
<polygon fill="#ffffff" stroke="transparent" points="-4,4 -4,-167 269.5,-167 269.5,4 -4,4"/>
<!-- Node0 -->
<g id="node1" class="node">
<title>Node0</title>
<polygon fill="#bfbfbf" stroke="#000000" points="84.5,-105.5 84.5,-162.5 194.5,-162.5 194.5,-105.5 84.5,-105.5"/>
<text text-anchor="middle" x="139.5" y="-150.5" font-family="Helvetica,sans-Serif" font-size="10.00" fill="#000000">L4::Ipc::Msg::Dir_out</text>
<polyline fill="none" stroke="#000000" points="84.5,-143.5 194.5,-143.5 "/>
<text text-anchor="middle" x="139.5" y="-131.5" font-family="Helvetica,sans-Serif" font-size="10.00" fill="#000000"> </text>
<polyline fill="none" stroke="#000000" points="84.5,-124.5 194.5,-124.5 "/>
<text text-anchor="middle" x="139.5" y="-112.5" font-family="Helvetica,sans-Serif" font-size="10.00" fill="#000000"> </text>
</g>
<!-- Node1 -->
<g id="node2" class="node">
<title>Node1</title>
<g id="a_node2"><a xlink:href="structL4_1_1Ipc_1_1Msg_1_1Do__out__data.html" target="_top" xlink:title="Marker for Output data. ">
<polygon fill="#ffffff" stroke="#000000" points="0,-6 0,-63 137,-63 137,-6 0,-6"/>
<text text-anchor="middle" x="68.5" y="-51" font-family="Helvetica,sans-Serif" font-size="10.00" fill="#000000">L4::Ipc::Msg::Do_out_data</text>
<polyline fill="none" stroke="#000000" points="0,-44 137,-44 "/>
<text text-anchor="middle" x="68.5" y="-32" font-family="Helvetica,sans-Serif" font-size="10.00" fill="#000000"> </text>
<polyline fill="none" stroke="#000000" points="0,-25 137,-25 "/>
<text text-anchor="middle" x="68.5" y="-13" font-family="Helvetica,sans-Serif" font-size="10.00" fill="#000000"> </text>
</a>
</g>
</g>
<!-- Node0&#45;&gt;Node1 -->
<g id="edge1" class="edge">
<title>Node0&#45;&gt;Node1</title>
<path fill="none" stroke="#191970" d="M113.1701,-97.101C105.1339,-85.8391 96.4247,-73.6339 88.8487,-63.0169"/>
<polygon fill="none" stroke="#191970" points="110.4967,-99.3802 119.1542,-105.4873 116.1947,-95.3142 110.4967,-99.3802"/>
</g>
<!-- Node2 -->
<g id="node3" class="node">
<title>Node2</title>
<g id="a_node3"><a xlink:href="structL4_1_1Ipc_1_1Msg_1_1Do__out__items.html" target="_top" xlink:title="Marker for Output items. ">
<polygon fill="#ffffff" stroke="#000000" points="155.5,-.5 155.5,-68.5 265.5,-68.5 265.5,-.5 155.5,-.5"/>
<text text-anchor="start" x="163.5" y="-56.5" font-family="Helvetica,sans-Serif" font-size="10.00" fill="#000000">L4::Ipc::Msg::Do_out</text>
<text text-anchor="middle" x="210.5" y="-45.5" font-family="Helvetica,sans-Serif" font-size="10.00" fill="#000000">_items</text>
<polyline fill="none" stroke="#000000" points="155.5,-38.5 265.5,-38.5 "/>
<text text-anchor="middle" x="210.5" y="-26.5" font-family="Helvetica,sans-Serif" font-size="10.00" fill="#000000"> </text>
<polyline fill="none" stroke="#000000" points="155.5,-19.5 265.5,-19.5 "/>
<text text-anchor="middle" x="210.5" y="-7.5" font-family="Helvetica,sans-Serif" font-size="10.00" fill="#000000"> </text>
</a>
</g>
</g>
<!-- Node0&#45;&gt;Node2 -->
<g id="edge2" class="edge">
<title>Node0&#45;&gt;Node2</title>
<path fill="none" stroke="#191970" d="M165.7973,-97.1467C172.4519,-87.821 179.5698,-77.8458 186.1248,-68.6596"/>
<polygon fill="none" stroke="#191970" points="162.8053,-95.3142 159.8458,-105.4873 168.5033,-99.3802 162.8053,-95.3142"/>
</g>
</g>
</svg>
