<?xml version="1.0" encoding="UTF-8" standalone="no"?>
<!DOCTYPE svg PUBLIC "-//W3C//DTD SVG 1.1//EN"
 "http://www.w3.org/Graphics/SVG/1.1/DTD/svg11.dtd">
<!-- Generated by graphviz version 2.40.1 (20161225.0304)
 -->
<!-- Title: L4::Typeid::Rpc_nocode&lt; OPERATION &gt; Pages: 1 -->
<svg width="254pt" height="405pt"
 viewBox="0.00 0.00 253.50 405.00" xmlns="http://www.w3.org/2000/svg" xmlns:xlink="http://www.w3.org/1999/xlink">
<g id="graph0" class="graph" transform="scale(1 1) rotate(0) translate(4 401)">
<title>L4::Typeid::Rpc_nocode&lt; OPERATION &gt;</title>
<polygon fill="#ffffff" stroke="transparent" points="-4,4 -4,-401 249.5,-401 249.5,4 -4,4"/>
<!-- Node4 -->
<g id="node1" class="node">
<title>Node4</title>
<polygon fill="#bfbfbf" stroke="#000000" points="18.5,-.5 18.5,-68.5 148.5,-68.5 148.5,-.5 18.5,-.5"/>
<text text-anchor="start" x="26.5" y="-56.5" font-family="Helvetica,sans-Serif" font-size="10.00" fill="#000000">L4::Typeid::Rpc_nocode</text>
<text text-anchor="middle" x="83.5" y="-45.5" font-family="Helvetica,sans-Serif" font-size="10.00" fill="#000000">&lt; OPERATION &gt;</text>
<polyline fill="none" stroke="#000000" points="18.5,-38.5 148.5,-38.5 "/>
<text text-anchor="middle" x="83.5" y="-26.5" font-family="Helvetica,sans-Serif" font-size="10.00" fill="#000000"> </text>
<polyline fill="none" stroke="#000000" points="18.5,-19.5 148.5,-19.5 "/>
<text text-anchor="middle" x="83.5" y="-7.5" font-family="Helvetica,sans-Serif" font-size="10.00" fill="#000000"> </text>
</g>
<!-- Node5 -->
<g id="node2" class="node">
<title>Node5</title>
<g id="a_node2"><a xlink:href="structL4_1_1Typeid_1_1Detail_1_1__Rpcs.html" target="_top" xlink:title="{L4::Typeid::Detail\l::_Rpcs\&lt; void, 0, OPERATION \&gt;\n||}">
<polygon fill="#ffffff" stroke="#000000" points="0,-106.5 0,-174.5 167,-174.5 167,-106.5 0,-106.5"/>
<text text-anchor="start" x="8" y="-162.5" font-family="Helvetica,sans-Serif" font-size="10.00" fill="#000000">L4::Typeid::Detail</text>
<text text-anchor="middle" x="83.5" y="-151.5" font-family="Helvetica,sans-Serif" font-size="10.00" fill="#000000">::_Rpcs&lt; void, 0, OPERATION &gt;</text>
<polyline fill="none" stroke="#000000" points="0,-144.5 167,-144.5 "/>
<text text-anchor="middle" x="83.5" y="-132.5" font-family="Helvetica,sans-Serif" font-size="10.00" fill="#000000"> </text>
<polyline fill="none" stroke="#000000" points="0,-125.5 167,-125.5 "/>
<text text-anchor="middle" x="83.5" y="-113.5" font-family="Helvetica,sans-Serif" font-size="10.00" fill="#000000"> </text>
</a>
</g>
</g>
<!-- Node5&#45;&gt;Node4 -->
<g id="edge1" class="edge">
<title>Node5&#45;&gt;Node4</title>
<path fill="none" stroke="#191970" d="M83.5,-96.1711C83.5,-86.9405 83.5,-77.3493 83.5,-68.5586"/>
<polygon fill="none" stroke="#191970" points="80.0001,-96.3774 83.5,-106.3775 87.0001,-96.3775 80.0001,-96.3774"/>
</g>
<!-- Node6 -->
<g id="node3" class="node">
<title>Node6</title>
<g id="a_node3"><a xlink:href="structL4_1_1Typeid_1_1Detail_1_1Rpcs__end.html" target="_top" xlink:title="Internal end&#45;of&#45;list marker. ">
<polygon fill="#ffffff" stroke="#000000" points="31,-328.5 31,-396.5 128,-396.5 128,-328.5 31,-328.5"/>
<text text-anchor="start" x="39" y="-384.5" font-family="Helvetica,sans-Serif" font-size="10.00" fill="#000000">L4::Typeid::Detail</text>
<text text-anchor="middle" x="79.5" y="-373.5" font-family="Helvetica,sans-Serif" font-size="10.00" fill="#000000">::Rpcs_end</text>
<polyline fill="none" stroke="#000000" points="31,-366.5 128,-366.5 "/>
<text text-anchor="middle" x="79.5" y="-354.5" font-family="Helvetica,sans-Serif" font-size="10.00" fill="#000000"> </text>
<polyline fill="none" stroke="#000000" points="31,-347.5 128,-347.5 "/>
<text text-anchor="middle" x="79.5" y="-335.5" font-family="Helvetica,sans-Serif" font-size="10.00" fill="#000000"> </text>
</a>
</g>
</g>
<!-- Node6&#45;&gt;Node5 -->
<g id="edge2" class="edge">
<title>Node6&#45;&gt;Node5</title>
<path fill="none" stroke="#191970" d="M80.2965,-318.2968C81.0574,-276.0656 82.1884,-213.2963 82.8831,-174.7398"/>
<polygon fill="none" stroke="#191970" points="76.7971,-318.2376 80.1162,-328.299 83.7959,-318.3637 76.7971,-318.2376"/>
</g>
<!-- Node7 -->
<g id="node4" class="node">
<title>Node7</title>
<g id="a_node4"><a xlink:href="structL4_1_1Typeid_1_1Detail_1_1__Rpcs.html" target="_top" xlink:title="Empty list of RPCs. ">
<polygon fill="#ffffff" stroke="#000000" points="95.5,-222.5 95.5,-290.5 235.5,-290.5 235.5,-222.5 95.5,-222.5"/>
<text text-anchor="start" x="103.5" y="-278.5" font-family="Helvetica,sans-Serif" font-size="10.00" fill="#000000">L4::Typeid::Detail</text>
<text text-anchor="middle" x="165.5" y="-267.5" font-family="Helvetica,sans-Serif" font-size="10.00" fill="#000000">::_Rpcs&lt; OPCODE, O, X &gt;</text>
<polyline fill="none" stroke="#000000" points="95.5,-260.5 235.5,-260.5 "/>
<text text-anchor="middle" x="165.5" y="-248.5" font-family="Helvetica,sans-Serif" font-size="10.00" fill="#000000"> </text>
<polyline fill="none" stroke="#000000" points="95.5,-241.5 235.5,-241.5 "/>
<text text-anchor="middle" x="165.5" y="-229.5" font-family="Helvetica,sans-Serif" font-size="10.00" fill="#000000"> </text>
</a>
</g>
</g>
<!-- Node6&#45;&gt;Node7 -->
<g id="edge4" class="edge">
<title>Node6&#45;&gt;Node7</title>
<path fill="none" stroke="#191970" d="M113.5395,-320.5444C121.6103,-310.5965 130.122,-300.1055 137.8675,-290.5586"/>
<polygon fill="none" stroke="#191970" points="110.7668,-318.4067 107.1843,-328.3775 116.2027,-322.817 110.7668,-318.4067"/>
</g>
<!-- Node7&#45;&gt;Node5 -->
<g id="edge3" class="edge">
<title>Node7&#45;&gt;Node5</title>
<path fill="none" stroke="#ffa500" d="M135.4818,-214.0352C126.3626,-201.1349 116.4609,-187.1277 107.7699,-174.833"/>
<polygon fill="#ffa500" stroke="#ffa500" points="132.7104,-216.1781 141.3408,-222.3236 138.4264,-212.1374 132.7104,-216.1781"/>
<text text-anchor="middle" x="186" y="-196" font-family="Helvetica,sans-Serif" font-size="10.00" fill="#000000"> &lt; void, 0, OPERATION &gt;</text>
</g>
</g>
</svg>
