<?xml version="1.0" encoding="UTF-8" standalone="no"?>
<!DOCTYPE svg PUBLIC "-//W3C//DTD SVG 1.1//EN"
 "http://www.w3.org/Graphics/SVG/1.1/DTD/svg11.dtd">
<!-- Generated by graphviz version 2.40.1 (20161225.0304)
 -->
<!-- Title: L4::Types::True Pages: 1 -->
<svg width="200pt" height="488pt"
 viewBox="0.00 0.00 199.50 488.00" xmlns="http://www.w3.org/2000/svg" xmlns:xlink="http://www.w3.org/1999/xlink">
<g id="graph0" class="graph" transform="scale(1 1) rotate(0) translate(4 484)">
<title>L4::Types::True</title>
<polygon fill="#ffffff" stroke="transparent" points="-4,4 -4,-484 195.5,-484 195.5,4 -4,4"/>
<!-- Node0 -->
<g id="node1" class="node">
<title>Node0</title>
<polygon fill="#bfbfbf" stroke="#000000" points="17.5,-222.5 17.5,-279.5 106.5,-279.5 106.5,-222.5 17.5,-222.5"/>
<text text-anchor="middle" x="62" y="-267.5" font-family="Helvetica,sans-Serif" font-size="10.00" fill="#000000">L4::Types::True</text>
<polyline fill="none" stroke="#000000" points="17.5,-260.5 106.5,-260.5 "/>
<text text-anchor="middle" x="62" y="-248.5" font-family="Helvetica,sans-Serif" font-size="10.00" fill="#000000"> </text>
<polyline fill="none" stroke="#000000" points="17.5,-241.5 106.5,-241.5 "/>
<text text-anchor="middle" x="62" y="-229.5" font-family="Helvetica,sans-Serif" font-size="10.00" fill="#000000"> </text>
</g>
<!-- Node3 -->
<g id="node4" class="node">
<title>Node3</title>
<g id="a_node4"><a xlink:href="structL4_1_1Ipc_1_1Msg_1_1Is__valid__rpc__type.html" target="_top" xlink:title="{L4::Ipc::Msg::Is_valid\l_rpc_type\&lt; A *\&gt;\n||}">
<polygon fill="#ffffff" stroke="#000000" points="9.5,-.5 9.5,-68.5 122.5,-68.5 122.5,-.5 9.5,-.5"/>
<text text-anchor="start" x="17.5" y="-56.5" font-family="Helvetica,sans-Serif" font-size="10.00" fill="#000000">L4::Ipc::Msg::Is_valid</text>
<text text-anchor="middle" x="66" y="-45.5" font-family="Helvetica,sans-Serif" font-size="10.00" fill="#000000">_rpc_type&lt; A *&gt;</text>
<polyline fill="none" stroke="#000000" points="9.5,-38.5 122.5,-38.5 "/>
<text text-anchor="middle" x="66" y="-26.5" font-family="Helvetica,sans-Serif" font-size="10.00" fill="#000000"> </text>
<polyline fill="none" stroke="#000000" points="9.5,-19.5 122.5,-19.5 "/>
<text text-anchor="middle" x="66" y="-7.5" font-family="Helvetica,sans-Serif" font-size="10.00" fill="#000000"> </text>
</a>
</g>
</g>
<!-- Node0&#45;&gt;Node3 -->
<g id="edge3" class="edge">
<title>Node0&#45;&gt;Node3</title>
<path fill="none" stroke="#191970" d="M62.718,-212.1373C63.4723,-171.3103 64.6472,-107.7219 65.3676,-68.7276"/>
<polygon fill="none" stroke="#191970" points="59.2166,-212.1875 62.5312,-222.2505 66.2154,-212.3169 59.2166,-212.1875"/>
</g>
<!-- Node4 -->
<g id="node5" class="node">
<title>Node4</title>
<g id="a_node5"><a xlink:href="structL4_1_1Ipc_1_1Msg_1_1Is__valid__rpc__type.html" target="_top" xlink:title="Type trait defining a valid RPC parameter type. ">
<polygon fill="#ffffff" stroke="#000000" points="78.5,-116.5 78.5,-184.5 191.5,-184.5 191.5,-116.5 78.5,-116.5"/>
<text text-anchor="start" x="86.5" y="-172.5" font-family="Helvetica,sans-Serif" font-size="10.00" fill="#000000">L4::Ipc::Msg::Is_valid</text>
<text text-anchor="middle" x="135" y="-161.5" font-family="Helvetica,sans-Serif" font-size="10.00" fill="#000000">_rpc_type&lt; T &gt;</text>
<polyline fill="none" stroke="#000000" points="78.5,-154.5 191.5,-154.5 "/>
<text text-anchor="middle" x="135" y="-142.5" font-family="Helvetica,sans-Serif" font-size="10.00" fill="#000000"> </text>
<polyline fill="none" stroke="#000000" points="78.5,-135.5 191.5,-135.5 "/>
<text text-anchor="middle" x="135" y="-123.5" font-family="Helvetica,sans-Serif" font-size="10.00" fill="#000000"> </text>
</a>
</g>
</g>
<!-- Node0&#45;&gt;Node4 -->
<g id="edge4" class="edge">
<title>Node0&#45;&gt;Node4</title>
<path fill="none" stroke="#191970" d="M88.701,-214.2404C95.6867,-204.6231 103.1895,-194.2939 110.0785,-184.8097"/>
<polygon fill="none" stroke="#191970" points="85.7688,-212.3218 82.7236,-222.4696 91.4324,-216.4356 85.7688,-212.3218"/>
</g>
<!-- Node1 -->
<g id="node2" class="node">
<title>Node1</title>
<g id="a_node2"><a xlink:href="structL4_1_1Types_1_1Bool.html" target="_top" xlink:title="{L4::Types::Bool\&lt; true \&gt;\n||}">
<polygon fill="#ffffff" stroke="#000000" points="0,-317.5 0,-374.5 124,-374.5 124,-317.5 0,-317.5"/>
<text text-anchor="middle" x="62" y="-362.5" font-family="Helvetica,sans-Serif" font-size="10.00" fill="#000000">L4::Types::Bool&lt; true &gt;</text>
<polyline fill="none" stroke="#000000" points="0,-355.5 124,-355.5 "/>
<text text-anchor="middle" x="62" y="-343.5" font-family="Helvetica,sans-Serif" font-size="10.00" fill="#000000"> </text>
<polyline fill="none" stroke="#000000" points="0,-336.5 124,-336.5 "/>
<text text-anchor="middle" x="62" y="-324.5" font-family="Helvetica,sans-Serif" font-size="10.00" fill="#000000"> </text>
</a>
</g>
</g>
<!-- Node1&#45;&gt;Node0 -->
<g id="edge1" class="edge">
<title>Node1&#45;&gt;Node0</title>
<path fill="none" stroke="#191970" d="M62,-307.3724C62,-298.1627 62,-288.4917 62,-279.8114"/>
<polygon fill="none" stroke="#191970" points="58.5001,-307.4968 62,-317.4969 65.5001,-307.4969 58.5001,-307.4968"/>
</g>
<!-- Node2 -->
<g id="node3" class="node">
<title>Node2</title>
<g id="a_node3"><a xlink:href="structL4_1_1Types_1_1Bool.html" target="_top" xlink:title="Boolean meta type. ">
<polygon fill="#ffffff" stroke="#000000" points="5.5,-422.5 5.5,-479.5 118.5,-479.5 118.5,-422.5 5.5,-422.5"/>
<text text-anchor="middle" x="62" y="-467.5" font-family="Helvetica,sans-Serif" font-size="10.00" fill="#000000">L4::Types::Bool&lt; V &gt;</text>
<polyline fill="none" stroke="#000000" points="5.5,-460.5 118.5,-460.5 "/>
<text text-anchor="middle" x="62" y="-448.5" font-family="Helvetica,sans-Serif" font-size="10.00" fill="#000000"> </text>
<polyline fill="none" stroke="#000000" points="5.5,-441.5 118.5,-441.5 "/>
<text text-anchor="middle" x="62" y="-429.5" font-family="Helvetica,sans-Serif" font-size="10.00" fill="#000000"> </text>
</a>
</g>
</g>
<!-- Node2&#45;&gt;Node1 -->
<g id="edge2" class="edge">
<title>Node2&#45;&gt;Node1</title>
<path fill="none" stroke="#ffa500" d="M62,-412.192C62,-399.7605 62,-386.2278 62,-374.657"/>
<polygon fill="#ffa500" stroke="#ffa500" points="58.5001,-412.3083 62,-422.3083 65.5001,-412.3083 58.5001,-412.3083"/>
<text text-anchor="middle" x="82" y="-396" font-family="Helvetica,sans-Serif" font-size="10.00" fill="#000000"> &lt; true &gt;</text>
</g>
<!-- Node4&#45;&gt;Node3 -->
<g id="edge5" class="edge">
<title>Node4&#45;&gt;Node3</title>
<path fill="none" stroke="#ffa500" d="M109.5214,-107.6663C101.9087,-94.8683 93.6658,-81.0106 86.4222,-68.833"/>
<polygon fill="#ffa500" stroke="#ffa500" points="106.5506,-109.5184 114.6709,-116.3236 112.5667,-105.9398 106.5506,-109.5184"/>
<text text-anchor="middle" x="119" y="-90" font-family="Helvetica,sans-Serif" font-size="10.00" fill="#000000"> &lt; A *&gt;</text>
</g>
</g>
</svg>
