<?xml version="1.0" encoding="UTF-8" standalone="no"?>
<!DOCTYPE svg PUBLIC "-//W3C//DTD SVG 1.1//EN"
 "http://www.w3.org/Graphics/SVG/1.1/DTD/svg11.dtd">
<!-- Generated by graphviz version 2.40.1 (20161225.0304)
 -->
<!-- Title: l4re_video_pixel_info_t Pages: 1 -->
<svg width="171pt" height="215pt"
 viewBox="0.00 0.00 171.00 215.00" xmlns="http://www.w3.org/2000/svg" xmlns:xlink="http://www.w3.org/1999/xlink">
<g id="graph0" class="graph" transform="scale(1 1) rotate(0) translate(4 211)">
<title>l4re_video_pixel_info_t</title>
<polygon fill="#ffffff" stroke="transparent" points="-4,4 -4,-211 167,-211 167,4 -4,4"/>
<!-- Node1 -->
<g id="node1" class="node">
<title>Node1</title>
<polygon fill="#bfbfbf" stroke="#000000" points="18.5,-.5 18.5,-57.5 144.5,-57.5 144.5,-.5 18.5,-.5"/>
<text text-anchor="middle" x="81.5" y="-45.5" font-family="Helvetica,sans-Serif" font-size="10.00" fill="#000000">l4re_video_pixel_info_t</text>
<polyline fill="none" stroke="#000000" points="18.5,-38.5 144.5,-38.5 "/>
<text text-anchor="start" x="26.5" y="-26.5" font-family="Helvetica,sans-Serif" font-size="10.00" fill="#000000">+ bytes_per_pixel</text>
<polyline fill="none" stroke="#000000" points="18.5,-19.5 144.5,-19.5 "/>
<text text-anchor="middle" x="81.5" y="-7.5" font-family="Helvetica,sans-Serif" font-size="10.00" fill="#000000"> </text>
</g>
<!-- Node2 -->
<g id="node2" class="node">
<title>Node2</title>
<g id="a_node2"><a xlink:href="structl4re__video__color__component__t.html" target="_top" xlink:title="Color component structure. ">
<polygon fill="#ffffff" stroke="#000000" points="0,-138.5 0,-206.5 163,-206.5 163,-138.5 0,-138.5"/>
<text text-anchor="middle" x="81.5" y="-194.5" font-family="Helvetica,sans-Serif" font-size="10.00" fill="#000000">l4re_video_color_component_t</text>
<polyline fill="none" stroke="#000000" points="0,-187.5 163,-187.5 "/>
<text text-anchor="start" x="8" y="-175.5" font-family="Helvetica,sans-Serif" font-size="10.00" fill="#000000">+ size</text>
<text text-anchor="start" x="8" y="-164.5" font-family="Helvetica,sans-Serif" font-size="10.00" fill="#000000">+ shift</text>
<polyline fill="none" stroke="#000000" points="0,-157.5 163,-157.5 "/>
<text text-anchor="middle" x="81.5" y="-145.5" font-family="Helvetica,sans-Serif" font-size="10.00" fill="#000000"> </text>
</a>
</g>
</g>
<!-- Node2&#45;&gt;Node1 -->
<g id="edge1" class="edge">
<title>Node2&#45;&gt;Node1</title>
<path fill="none" stroke="#404040" d="M81.5,-138.4925C81.5,-117.9847 81.5,-91.7262 81.5,-70.065"/>
<polygon fill="none" stroke="#404040" points="81.5001,-69.9207 77.5,-63.9207 81.5,-57.9207 85.5,-63.9206 81.5001,-69.9207"/>
<text text-anchor="middle" x="89.5" y="-112" font-family="Helvetica,sans-Serif" font-size="10.00" fill="#000000"> +a</text>
<text text-anchor="middle" x="89.5" y="-101" font-family="Helvetica,sans-Serif" font-size="10.00" fill="#000000">+r</text>
<text text-anchor="middle" x="89.5" y="-90" font-family="Helvetica,sans-Serif" font-size="10.00" fill="#000000">+b</text>
<text text-anchor="middle" x="89.5" y="-79" font-family="Helvetica,sans-Serif" font-size="10.00" fill="#000000">+g</text>
</g>
</g>
</svg>
