<?xml version="1.0" encoding="UTF-8" standalone="no"?>
<!DOCTYPE svg PUBLIC "-//W3C//DTD SVG 1.1//EN"
 "http://www.w3.org/Graphics/SVG/1.1/DTD/svg11.dtd">
<!-- Generated by graphviz version 2.40.1 (20161225.0304)
 -->
<!-- Title: l4re_video_goos_info_t Pages: 1 -->
<svg width="171pt" height="364pt"
 viewBox="0.00 0.00 171.00 364.00" xmlns="http://www.w3.org/2000/svg" xmlns:xlink="http://www.w3.org/1999/xlink">
<g id="graph0" class="graph" transform="scale(1 1) rotate(0) translate(4 360)">
<title>l4re_video_goos_info_t</title>
<polygon fill="#ffffff" stroke="transparent" points="-4,4 -4,-360 167,-360 167,4 -4,4"/>
<!-- Node1 -->
<g id="node1" class="node">
<title>Node1</title>
<polygon fill="#bfbfbf" stroke="#000000" points="17.5,-.5 17.5,-101.5 145.5,-101.5 145.5,-.5 17.5,-.5"/>
<text text-anchor="middle" x="81.5" y="-89.5" font-family="Helvetica,sans-Serif" font-size="10.00" fill="#000000">l4re_video_goos_info_t</text>
<polyline fill="none" stroke="#000000" points="17.5,-82.5 145.5,-82.5 "/>
<text text-anchor="start" x="25.5" y="-70.5" font-family="Helvetica,sans-Serif" font-size="10.00" fill="#000000">+ width</text>
<text text-anchor="start" x="25.5" y="-59.5" font-family="Helvetica,sans-Serif" font-size="10.00" fill="#000000">+ height</text>
<text text-anchor="start" x="25.5" y="-48.5" font-family="Helvetica,sans-Serif" font-size="10.00" fill="#000000">+ flags</text>
<text text-anchor="start" x="25.5" y="-37.5" font-family="Helvetica,sans-Serif" font-size="10.00" fill="#000000">+ num_static_views</text>
<text text-anchor="start" x="25.5" y="-26.5" font-family="Helvetica,sans-Serif" font-size="10.00" fill="#000000">+ num_static_buffers</text>
<polyline fill="none" stroke="#000000" points="17.5,-19.5 145.5,-19.5 "/>
<text text-anchor="middle" x="81.5" y="-7.5" font-family="Helvetica,sans-Serif" font-size="10.00" fill="#000000"> </text>
</g>
<!-- Node2 -->
<g id="node2" class="node">
<title>Node2</title>
<g id="a_node2"><a xlink:href="structl4re__video__pixel__info__t.html" target="_top" xlink:title="Pixel_info structure. ">
<polygon fill="#ffffff" stroke="#000000" points="18.5,-149.5 18.5,-206.5 144.5,-206.5 144.5,-149.5 18.5,-149.5"/>
<text text-anchor="middle" x="81.5" y="-194.5" font-family="Helvetica,sans-Serif" font-size="10.00" fill="#000000">l4re_video_pixel_info_t</text>
<polyline fill="none" stroke="#000000" points="18.5,-187.5 144.5,-187.5 "/>
<text text-anchor="start" x="26.5" y="-175.5" font-family="Helvetica,sans-Serif" font-size="10.00" fill="#000000">+ bytes_per_pixel</text>
<polyline fill="none" stroke="#000000" points="18.5,-168.5 144.5,-168.5 "/>
<text text-anchor="middle" x="81.5" y="-156.5" font-family="Helvetica,sans-Serif" font-size="10.00" fill="#000000"> </text>
</a>
</g>
</g>
<!-- Node2&#45;&gt;Node1 -->
<g id="edge1" class="edge">
<title>Node2&#45;&gt;Node1</title>
<path fill="none" stroke="#404040" d="M81.5,-149.4987C81.5,-138.9128 81.5,-126.4397 81.5,-113.9926"/>
<polygon fill="none" stroke="#404040" points="81.5001,-113.625 77.5,-107.625 81.5,-101.625 85.5,-107.625 81.5001,-113.625"/>
<text text-anchor="middle" x="109" y="-123" font-family="Helvetica,sans-Serif" font-size="10.00" fill="#000000"> +pixel_info</text>
</g>
<!-- Node3 -->
<g id="node3" class="node">
<title>Node3</title>
<g id="a_node3"><a xlink:href="structl4re__video__color__component__t.html" target="_top" xlink:title="Color component structure. ">
<polygon fill="#ffffff" stroke="#000000" points="0,-287.5 0,-355.5 163,-355.5 163,-287.5 0,-287.5"/>
<text text-anchor="middle" x="81.5" y="-343.5" font-family="Helvetica,sans-Serif" font-size="10.00" fill="#000000">l4re_video_color_component_t</text>
<polyline fill="none" stroke="#000000" points="0,-336.5 163,-336.5 "/>
<text text-anchor="start" x="8" y="-324.5" font-family="Helvetica,sans-Serif" font-size="10.00" fill="#000000">+ size</text>
<text text-anchor="start" x="8" y="-313.5" font-family="Helvetica,sans-Serif" font-size="10.00" fill="#000000">+ shift</text>
<polyline fill="none" stroke="#000000" points="0,-306.5 163,-306.5 "/>
<text text-anchor="middle" x="81.5" y="-294.5" font-family="Helvetica,sans-Serif" font-size="10.00" fill="#000000"> </text>
</a>
</g>
</g>
<!-- Node3&#45;&gt;Node2 -->
<g id="edge2" class="edge">
<title>Node3&#45;&gt;Node2</title>
<path fill="none" stroke="#404040" d="M81.5,-287.4925C81.5,-266.9847 81.5,-240.7262 81.5,-219.065"/>
<polygon fill="none" stroke="#404040" points="81.5001,-218.9207 77.5,-212.9207 81.5,-206.9207 85.5,-212.9206 81.5001,-218.9207"/>
<text text-anchor="middle" x="89.5" y="-261" font-family="Helvetica,sans-Serif" font-size="10.00" fill="#000000"> +a</text>
<text text-anchor="middle" x="89.5" y="-250" font-family="Helvetica,sans-Serif" font-size="10.00" fill="#000000">+r</text>
<text text-anchor="middle" x="89.5" y="-239" font-family="Helvetica,sans-Serif" font-size="10.00" fill="#000000">+b</text>
<text text-anchor="middle" x="89.5" y="-228" font-family="Helvetica,sans-Serif" font-size="10.00" fill="#000000">+g</text>
</g>
</g>
</svg>
