<?xml version="1.0" encoding="UTF-8" standalone="no"?>
<!DOCTYPE svg PUBLIC "-//W3C//DTD SVG 1.1//EN"
 "http://www.w3.org/Graphics/SVG/1.1/DTD/svg11.dtd">
<!-- Generated by graphviz version 2.40.1 (20161225.0304)
 -->
<!-- Title: L4virtio::Svr::Data_buffer::copy_to Pages: 1 -->
<svg width="198pt" height="66pt"
 viewBox="0.00 0.00 198.00 66.00" xmlns="http://www.w3.org/2000/svg" xmlns:xlink="http://www.w3.org/1999/xlink">
<g id="graph0" class="graph" transform="scale(1 1) rotate(0) translate(4 62)">
<title>L4virtio::Svr::Data_buffer::copy_to</title>
<polygon fill="#ffffff" stroke="transparent" points="-4,4 -4,-62 194,-62 194,4 -4,4"/>
<!-- Node2 -->
<g id="node1" class="node">
<title>Node2</title>
<polygon fill="#bfbfbf" stroke="#000000" points="0,-14 0,-44 98,-44 98,-14 0,-14"/>
<text text-anchor="start" x="8" y="-32" font-family="Helvetica,sans-Serif" font-size="10.00" fill="#000000">L4virtio::Svr::Data</text>
<text text-anchor="middle" x="49" y="-21" font-family="Helvetica,sans-Serif" font-size="10.00" fill="#000000">_buffer::copy_to</text>
</g>
<!-- Node3 -->
<g id="node2" class="node">
<title>Node3</title>
<g id="a_node2"><a xlink:href="group__cxx__api.html#ga1d7a566ab5b06016155d693f91a7ee2d" target="_top" xlink:title="Get the maximum of a and b. ">
<polygon fill="#ffffff" stroke="#000000" points="134,-38.5 134,-57.5 190,-57.5 190,-38.5 134,-38.5"/>
<text text-anchor="middle" x="162" y="-45.5" font-family="Helvetica,sans-Serif" font-size="10.00" fill="#000000">cxx::max</text>
</a>
</g>
</g>
<!-- Node2&#45;&gt;Node3 -->
<g id="edge1" class="edge">
<title>Node2&#45;&gt;Node3</title>
<path fill="none" stroke="#191970" d="M98.2347,-37.2784C106.7657,-38.7128 115.5213,-40.185 123.7062,-41.5612"/>
<polygon fill="#191970" stroke="#191970" points="123.2666,-45.0364 133.7086,-43.243 124.4274,-38.1333 123.2666,-45.0364"/>
</g>
<!-- Node4 -->
<g id="node3" class="node">
<title>Node4</title>
<g id="a_node3"><a xlink:href="group__cxx__api.html#ga0bd9662898a7499fcd3feefe594a699b" target="_top" xlink:title="Get the minimum of a and b. ">
<polygon fill="#ffffff" stroke="#000000" points="135.5,-.5 135.5,-19.5 188.5,-19.5 188.5,-.5 135.5,-.5"/>
<text text-anchor="middle" x="162" y="-7.5" font-family="Helvetica,sans-Serif" font-size="10.00" fill="#000000">cxx::min</text>
</a>
</g>
</g>
<!-- Node2&#45;&gt;Node4 -->
<g id="edge2" class="edge">
<title>Node2&#45;&gt;Node4</title>
<path fill="none" stroke="#191970" d="M98.2347,-20.7216C107.2833,-19.2002 116.5846,-17.6362 125.1896,-16.1894"/>
<polygon fill="#191970" stroke="#191970" points="125.9953,-19.6031 135.2765,-14.4933 124.8346,-12.7 125.9953,-19.6031"/>
</g>
</g>
</svg>
