<?xml version="1.0" encoding="UTF-8" standalone="no"?>
<!DOCTYPE svg PUBLIC "-//W3C//DTD SVG 1.1//EN"
 "http://www.w3.org/Graphics/SVG/1.1/DTD/svg11.dtd">
<!-- Generated by graphviz version 2.40.1 (20161225.0304)
 -->
<!-- Title: L4::Ipc::Msg::Cls_data Pages: 1 -->
<svg width="294pt" height="160pt"
 viewBox="0.00 0.00 294.00 160.00" xmlns="http://www.w3.org/2000/svg" xmlns:xlink="http://www.w3.org/1999/xlink">
<g id="graph0" class="graph" transform="scale(1 1) rotate(0) translate(4 156)">
<title>L4::Ipc::Msg::Cls_data</title>
<polygon fill="#ffffff" stroke="transparent" points="-4,4 -4,-156 290,-156 290,4 -4,4"/>
<!-- Node0 -->
<g id="node1" class="node">
<title>Node0</title>
<polygon fill="#bfbfbf" stroke="#000000" points="82,-94.5 82,-151.5 201,-151.5 201,-94.5 82,-94.5"/>
<text text-anchor="middle" x="141.5" y="-139.5" font-family="Helvetica,sans-Serif" font-size="10.00" fill="#000000">L4::Ipc::Msg::Cls_data</text>
<polyline fill="none" stroke="#000000" points="82,-132.5 201,-132.5 "/>
<text text-anchor="middle" x="141.5" y="-120.5" font-family="Helvetica,sans-Serif" font-size="10.00" fill="#000000"> </text>
<polyline fill="none" stroke="#000000" points="82,-113.5 201,-113.5 "/>
<text text-anchor="middle" x="141.5" y="-101.5" font-family="Helvetica,sans-Serif" font-size="10.00" fill="#000000"> </text>
</g>
<!-- Node1 -->
<g id="node2" class="node">
<title>Node1</title>
<g id="a_node2"><a xlink:href="structL4_1_1Ipc_1_1Msg_1_1Do__in__data.html" target="_top" xlink:title="Marker for Input data. ">
<polygon fill="#ffffff" stroke="#000000" points="0,-.5 0,-57.5 131,-57.5 131,-.5 0,-.5"/>
<text text-anchor="middle" x="65.5" y="-45.5" font-family="Helvetica,sans-Serif" font-size="10.00" fill="#000000">L4::Ipc::Msg::Do_in_data</text>
<polyline fill="none" stroke="#000000" points="0,-38.5 131,-38.5 "/>
<text text-anchor="middle" x="65.5" y="-26.5" font-family="Helvetica,sans-Serif" font-size="10.00" fill="#000000"> </text>
<polyline fill="none" stroke="#000000" points="0,-19.5 131,-19.5 "/>
<text text-anchor="middle" x="65.5" y="-7.5" font-family="Helvetica,sans-Serif" font-size="10.00" fill="#000000"> </text>
</a>
</g>
</g>
<!-- Node0&#45;&gt;Node1 -->
<g id="edge1" class="edge">
<title>Node0&#45;&gt;Node1</title>
<path fill="none" stroke="#191970" d="M111.9205,-86.4148C104.1704,-76.8292 95.9283,-66.635 88.5733,-57.538"/>
<polygon fill="none" stroke="#191970" points="109.2756,-88.7104 118.2845,-94.2861 114.719,-84.3093 109.2756,-88.7104"/>
</g>
<!-- Node2 -->
<g id="node3" class="node">
<title>Node2</title>
<g id="a_node3"><a xlink:href="structL4_1_1Ipc_1_1Msg_1_1Do__out__data.html" target="_top" xlink:title="Marker for Output data. ">
<polygon fill="#ffffff" stroke="#000000" points="149,-.5 149,-57.5 286,-57.5 286,-.5 149,-.5"/>
<text text-anchor="middle" x="217.5" y="-45.5" font-family="Helvetica,sans-Serif" font-size="10.00" fill="#000000">L4::Ipc::Msg::Do_out_data</text>
<polyline fill="none" stroke="#000000" points="149,-38.5 286,-38.5 "/>
<text text-anchor="middle" x="217.5" y="-26.5" font-family="Helvetica,sans-Serif" font-size="10.00" fill="#000000"> </text>
<polyline fill="none" stroke="#000000" points="149,-19.5 286,-19.5 "/>
<text text-anchor="middle" x="217.5" y="-7.5" font-family="Helvetica,sans-Serif" font-size="10.00" fill="#000000"> </text>
</a>
</g>
</g>
<!-- Node0&#45;&gt;Node2 -->
<g id="edge2" class="edge">
<title>Node0&#45;&gt;Node2</title>
<path fill="none" stroke="#191970" d="M171.0795,-86.4148C178.8296,-76.8292 187.0717,-66.635 194.4267,-57.538"/>
<polygon fill="none" stroke="#191970" points="168.281,-84.3093 164.7155,-94.2861 173.7244,-88.7104 168.281,-84.3093"/>
</g>
</g>
</svg>
