<?xml version="1.0" encoding="UTF-8" standalone="no"?>
<!DOCTYPE svg PUBLIC "-//W3C//DTD SVG 1.1//EN"
 "http://www.w3.org/Graphics/SVG/1.1/DTD/svg11.dtd">
<!-- Generated by graphviz version 2.40.1 (20161225.0304)
 -->
<!-- Title: L4::Semaphore::up Pages: 1 -->
<svg width="650pt" height="180pt"
 viewBox="0.00 0.00 650.00 180.00" xmlns="http://www.w3.org/2000/svg" xmlns:xlink="http://www.w3.org/1999/xlink">
<g id="graph0" class="graph" transform="scale(1 1) rotate(0) translate(4 176)">
<title>L4::Semaphore::up</title>
<polygon fill="#ffffff" stroke="transparent" points="-4,4 -4,-176 646,-176 646,4 -4,4"/>
<!-- Node3 -->
<g id="node1" class="node">
<title>Node3</title>
<polygon fill="#bfbfbf" stroke="#000000" points="0,-86.5 0,-105.5 104,-105.5 104,-86.5 0,-86.5"/>
<text text-anchor="middle" x="52" y="-93.5" font-family="Helvetica,sans-Serif" font-size="10.00" fill="#000000">L4::Semaphore::up</text>
</g>
<!-- Node4 -->
<g id="node2" class="node">
<title>Node4</title>
<g id="a_node2"><a xlink:href="structL4_1_1Triggerable.html#a7109ca8b4aeac0169639f973c91a3a6b" target="_top" xlink:title="Trigger. ">
<polygon fill="#ffffff" stroke="#000000" points="140,-86.5 140,-105.5 262,-105.5 262,-86.5 140,-86.5"/>
<text text-anchor="middle" x="201" y="-93.5" font-family="Helvetica,sans-Serif" font-size="10.00" fill="#000000">L4::Triggerable::trigger</text>
</a>
</g>
</g>
<!-- Node3&#45;&gt;Node4 -->
<g id="edge1" class="edge">
<title>Node3&#45;&gt;Node4</title>
<path fill="none" stroke="#191970" d="M104.113,-96C112.4368,-96 121.1717,-96 129.846,-96"/>
<polygon fill="#191970" stroke="#191970" points="129.9728,-99.5001 139.9728,-96 129.9728,-92.5001 129.9728,-99.5001"/>
</g>
<!-- Node5 -->
<g id="node3" class="node">
<title>Node5</title>
<g id="a_node3"><a xlink:href="group__l4__irq__api.html#ga180cfaf342ce9ff484a6aa7c276e1597" target="_top" xlink:title="Trigger. ">
<polygon fill="#ffffff" stroke="#000000" points="298,-105.5 298,-124.5 389,-124.5 389,-105.5 298,-105.5"/>
<text text-anchor="middle" x="343.5" y="-112.5" font-family="Helvetica,sans-Serif" font-size="10.00" fill="#000000">l4_irq_trigger_u</text>
</a>
</g>
</g>
<!-- Node4&#45;&gt;Node5 -->
<g id="edge2" class="edge">
<title>Node4&#45;&gt;Node5</title>
<path fill="none" stroke="#191970" d="M262.2598,-104.168C270.7332,-105.2978 279.3989,-106.4532 287.7647,-107.5686"/>
<polygon fill="#191970" stroke="#191970" points="287.4124,-111.0525 297.7873,-108.905 288.3376,-104.114 287.4124,-111.0525"/>
</g>
<!-- Node13 -->
<g id="node11" class="node">
<title>Node13</title>
<g id="a_node11"><a xlink:href="classL4_1_1Kobject.html#a4f2117ae76762f4084e6a1adb915863c" target="_top" xlink:title="Return capability selector. ">
<polygon fill="#ffffff" stroke="#000000" points="299,-67.5 299,-86.5 388,-86.5 388,-67.5 299,-67.5"/>
<text text-anchor="middle" x="343.5" y="-74.5" font-family="Helvetica,sans-Serif" font-size="10.00" fill="#000000">L4::Kobject::cap</text>
</a>
</g>
</g>
<!-- Node4&#45;&gt;Node13 -->
<g id="edge10" class="edge">
<title>Node4&#45;&gt;Node13</title>
<path fill="none" stroke="#191970" d="M262.2598,-87.832C271.0432,-86.6609 280.0332,-85.4622 288.6816,-84.3091"/>
<polygon fill="#191970" stroke="#191970" points="289.1947,-87.7718 298.6444,-82.9808 288.2695,-80.8332 289.1947,-87.7718"/>
</g>
<!-- Node6 -->
<g id="node4" class="node">
<title>Node6</title>
<g id="a_node4"><a xlink:href="group__l4__ipc__api.html#ga7de45eb59ce852466362ea85da00299e" target="_top" xlink:title="Send a message to an object (do not wait for a reply). ">
<polygon fill="#ffffff" stroke="#000000" points="425,-133.5 425,-152.5 499,-152.5 499,-133.5 425,-133.5"/>
<text text-anchor="middle" x="462" y="-140.5" font-family="Helvetica,sans-Serif" font-size="10.00" fill="#000000">l4_ipc_send</text>
</a>
</g>
</g>
<!-- Node5&#45;&gt;Node6 -->
<g id="edge3" class="edge">
<title>Node5&#45;&gt;Node6</title>
<path fill="none" stroke="#191970" d="M383.9495,-124.5577C393.9062,-126.9103 404.653,-129.4496 414.894,-131.8695"/>
<polygon fill="#191970" stroke="#191970" points="414.3816,-135.3447 424.9185,-134.2381 415.9914,-128.5323 414.3816,-135.3447"/>
</g>
<!-- Node8 -->
<g id="node6" class="node">
<title>Node8</title>
<g id="a_node6"><a xlink:href="group__l4__msgtag__api.html#ga661d71acad9d096fa990f7c94943bc78" target="_top" xlink:title="Create a message tag from the specified values. ">
<polygon fill="#ffffff" stroke="#000000" points="429.5,-76.5 429.5,-95.5 494.5,-95.5 494.5,-76.5 429.5,-76.5"/>
<text text-anchor="middle" x="462" y="-83.5" font-family="Helvetica,sans-Serif" font-size="10.00" fill="#000000">l4_msgtag</text>
</a>
</g>
</g>
<!-- Node5&#45;&gt;Node8 -->
<g id="edge5" class="edge">
<title>Node5&#45;&gt;Node8</title>
<path fill="none" stroke="#191970" d="M382.6297,-105.4239C394.4274,-102.5368 407.4326,-99.354 419.4418,-96.4151"/>
<polygon fill="#191970" stroke="#191970" points="420.3654,-99.7924 429.2468,-94.0156 418.7014,-92.9931 420.3654,-99.7924"/>
</g>
<!-- Node7 -->
<g id="node5" class="node">
<title>Node7</title>
<g id="a_node5"><a xlink:href="group__l4__ipc__api.html#ga0e7e5b18d784b1d3439ea6e5b4bea4e2" target="_top" xlink:title="Generic L4 object invocation. ">
<polygon fill="#ffffff" stroke="#000000" points="566.5,-152.5 566.5,-171.5 610.5,-171.5 610.5,-152.5 566.5,-152.5"/>
<text text-anchor="middle" x="588.5" y="-159.5" font-family="Helvetica,sans-Serif" font-size="10.00" fill="#000000">l4_ipc</text>
</a>
</g>
</g>
<!-- Node6&#45;&gt;Node7 -->
<g id="edge4" class="edge">
<title>Node6&#45;&gt;Node7</title>
<path fill="none" stroke="#191970" d="M499.27,-148.5979C517.2553,-151.2992 538.6328,-154.5101 555.9541,-157.1117"/>
<polygon fill="#191970" stroke="#191970" points="555.7393,-160.6186 566.1483,-158.6428 556.7791,-153.6963 555.7393,-160.6186"/>
</g>
<!-- Node9 -->
<g id="node7" class="node">
<title>Node9</title>
<g id="a_node7"><a xlink:href="structl4__msgtag__t.html#af6b9564a9a16427cec0e81a4628996b8" target="_top" xlink:title="Get the flags value. ">
<polygon fill="#ffffff" stroke="#000000" points="538,-114.5 538,-133.5 639,-133.5 639,-114.5 538,-114.5"/>
<text text-anchor="middle" x="588.5" y="-121.5" font-family="Helvetica,sans-Serif" font-size="10.00" fill="#000000">l4_msgtag_t::flags</text>
</a>
</g>
</g>
<!-- Node8&#45;&gt;Node9 -->
<g id="edge6" class="edge">
<title>Node8&#45;&gt;Node9</title>
<path fill="none" stroke="#191970" d="M493.9213,-95.589C509.9516,-100.4044 529.5738,-106.2988 546.7816,-111.468"/>
<polygon fill="#191970" stroke="#191970" points="546.0047,-114.8891 556.5889,-114.4141 548.0187,-108.185 546.0047,-114.8891"/>
</g>
<!-- Node10 -->
<g id="node8" class="node">
<title>Node10</title>
<g id="a_node8"><a xlink:href="structl4__msgtag__t.html#ad014e4a9f4509b068ddda678f6f8d568" target="_top" xlink:title="Get the number of typed items. ">
<polygon fill="#ffffff" stroke="#000000" points="536.5,-76.5 536.5,-95.5 640.5,-95.5 640.5,-76.5 536.5,-76.5"/>
<text text-anchor="middle" x="588.5" y="-83.5" font-family="Helvetica,sans-Serif" font-size="10.00" fill="#000000">l4_msgtag_t::items</text>
</a>
</g>
</g>
<!-- Node8&#45;&gt;Node10 -->
<g id="edge7" class="edge">
<title>Node8&#45;&gt;Node10</title>
<path fill="none" stroke="#191970" d="M494.5769,-86C504.3292,-86 515.3652,-86 526.3566,-86"/>
<polygon fill="#191970" stroke="#191970" points="526.4001,-89.5001 536.4001,-86 526.4,-82.5001 526.4001,-89.5001"/>
</g>
<!-- Node11 -->
<g id="node9" class="node">
<title>Node11</title>
<g id="a_node9"><a xlink:href="structl4__msgtag__t.html#a002076380a3f6e4f29a1f6b50ce2bde2" target="_top" xlink:title="Get the protocol value. ">
<polygon fill="#ffffff" stroke="#000000" points="538,-38.5 538,-57.5 639,-57.5 639,-38.5 538,-38.5"/>
<text text-anchor="middle" x="588.5" y="-45.5" font-family="Helvetica,sans-Serif" font-size="10.00" fill="#000000">l4_msgtag_t::label</text>
</a>
</g>
</g>
<!-- Node8&#45;&gt;Node11 -->
<g id="edge8" class="edge">
<title>Node8&#45;&gt;Node11</title>
<path fill="none" stroke="#191970" d="M493.9213,-76.411C509.9516,-71.5956 529.5738,-65.7012 546.7816,-60.532"/>
<polygon fill="#191970" stroke="#191970" points="548.0187,-63.815 556.5889,-57.5859 546.0047,-57.1109 548.0187,-63.815"/>
</g>
<!-- Node12 -->
<g id="node10" class="node">
<title>Node12</title>
<g id="a_node10"><a xlink:href="structl4__msgtag__t.html#a98577ea730d9abcd938b89d5c7adb18c" target="_top" xlink:title="Get the number of untyped words. ">
<polygon fill="#ffffff" stroke="#000000" points="535,-.5 535,-19.5 642,-19.5 642,-.5 535,-.5"/>
<text text-anchor="middle" x="588.5" y="-7.5" font-family="Helvetica,sans-Serif" font-size="10.00" fill="#000000">l4_msgtag_t::words</text>
</a>
</g>
</g>
<!-- Node8&#45;&gt;Node12 -->
<g id="edge9" class="edge">
<title>Node8&#45;&gt;Node12</title>
<path fill="none" stroke="#191970" d="M472.1224,-76.3464C485.5644,-63.9585 510.4749,-42.4648 535,-29 538.7422,-26.9454 542.7496,-25.0422 546.8253,-23.298"/>
<polygon fill="#191970" stroke="#191970" points="548.3574,-26.4558 556.3665,-19.52 545.7803,-19.9474 548.3574,-26.4558"/>
</g>
</g>
</svg>
