<?xml version="1.0" encoding="UTF-8" standalone="no"?>
<!DOCTYPE svg PUBLIC "-//W3C//DTD SVG 1.1//EN"
 "http://www.w3.org/Graphics/SVG/1.1/DTD/svg11.dtd">
<!-- Generated by graphviz version 2.40.1 (20161225.0304)
 -->
<!-- Title: L4::Epiface_t&lt; Derived, IFACE, BASE, bool &gt; Pages: 1 -->
<svg width="155pt" height="321pt"
 viewBox="0.00 0.00 154.50 321.00" xmlns="http://www.w3.org/2000/svg" xmlns:xlink="http://www.w3.org/1999/xlink">
<g id="graph0" class="graph" transform="scale(1 1) rotate(0) translate(4 317)">
<title>L4::Epiface_t&lt; Derived, IFACE, BASE, bool &gt;</title>
<polygon fill="#ffffff" stroke="transparent" points="-4,4 -4,-317 150.5,-317 150.5,4 -4,4"/>
<!-- Node5 -->
<g id="node1" class="node">
<title>Node5</title>
<polygon fill="#bfbfbf" stroke="#000000" points="0,-.5 0,-68.5 125,-68.5 125,-.5 0,-.5"/>
<text text-anchor="start" x="8" y="-56.5" font-family="Helvetica,sans-Serif" font-size="10.00" fill="#000000">L4::Epiface_t&lt; Derived,</text>
<text text-anchor="middle" x="62.5" y="-45.5" font-family="Helvetica,sans-Serif" font-size="10.00" fill="#000000"> IFACE, BASE, bool &gt;</text>
<polyline fill="none" stroke="#000000" points="0,-38.5 125,-38.5 "/>
<text text-anchor="middle" x="62.5" y="-26.5" font-family="Helvetica,sans-Serif" font-size="10.00" fill="#000000"> </text>
<polyline fill="none" stroke="#000000" points="0,-19.5 125,-19.5 "/>
<text text-anchor="start" x="8" y="-7.5" font-family="Helvetica,sans-Serif" font-size="10.00" fill="#000000">+ dispatch()</text>
</g>
<!-- Node6 -->
<g id="node2" class="node">
<title>Node6</title>
<g id="a_node2"><a xlink:href="structL4_1_1Epiface__t0.html" target="_top" xlink:title="{L4::Epiface_t0\&lt; IFACE,\l BASE \&gt;\n||+ get_buffer_demand()\l+ obj_cap()\l}">
<polygon fill="#ffffff" stroke="#000000" points="0,-106.5 0,-185.5 125,-185.5 125,-106.5 0,-106.5"/>
<text text-anchor="start" x="8" y="-173.5" font-family="Helvetica,sans-Serif" font-size="10.00" fill="#000000">L4::Epiface_t0&lt; IFACE,</text>
<text text-anchor="middle" x="62.5" y="-162.5" font-family="Helvetica,sans-Serif" font-size="10.00" fill="#000000"> BASE &gt;</text>
<polyline fill="none" stroke="#000000" points="0,-155.5 125,-155.5 "/>
<text text-anchor="middle" x="62.5" y="-143.5" font-family="Helvetica,sans-Serif" font-size="10.00" fill="#000000"> </text>
<polyline fill="none" stroke="#000000" points="0,-136.5 125,-136.5 "/>
<text text-anchor="start" x="8" y="-124.5" font-family="Helvetica,sans-Serif" font-size="10.00" fill="#000000">+ get_buffer_demand()</text>
<text text-anchor="start" x="8" y="-113.5" font-family="Helvetica,sans-Serif" font-size="10.00" fill="#000000">+ obj_cap()</text>
</a>
</g>
</g>
<!-- Node6&#45;&gt;Node5 -->
<g id="edge1" class="edge">
<title>Node6&#45;&gt;Node5</title>
<path fill="none" stroke="#191970" d="M62.5,-96.1102C62.5,-86.8885 62.5,-77.4506 62.5,-68.8207"/>
<polygon fill="none" stroke="#191970" points="59.0001,-96.3753 62.5,-106.3753 66.0001,-96.3754 59.0001,-96.3753"/>
</g>
<!-- Node7 -->
<g id="node3" class="node">
<title>Node7</title>
<g id="a_node3"><a xlink:href="structL4_1_1Epiface__t0.html" target="_top" xlink:title="Epiface mixin for generic Kobject&#45;based interfaces. ">
<polygon fill="#ffffff" stroke="#000000" points="0,-233.5 0,-312.5 125,-312.5 125,-233.5 0,-233.5"/>
<text text-anchor="start" x="8" y="-300.5" font-family="Helvetica,sans-Serif" font-size="10.00" fill="#000000">L4::Epiface_t0&lt; RPC</text>
<text text-anchor="middle" x="62.5" y="-289.5" font-family="Helvetica,sans-Serif" font-size="10.00" fill="#000000">_IFACE, BASE &gt;</text>
<polyline fill="none" stroke="#000000" points="0,-282.5 125,-282.5 "/>
<text text-anchor="middle" x="62.5" y="-270.5" font-family="Helvetica,sans-Serif" font-size="10.00" fill="#000000"> </text>
<polyline fill="none" stroke="#000000" points="0,-263.5 125,-263.5 "/>
<text text-anchor="start" x="8" y="-251.5" font-family="Helvetica,sans-Serif" font-size="10.00" fill="#000000">+ get_buffer_demand()</text>
<text text-anchor="start" x="8" y="-240.5" font-family="Helvetica,sans-Serif" font-size="10.00" fill="#000000">+ obj_cap()</text>
</a>
</g>
</g>
<!-- Node7&#45;&gt;Node6 -->
<g id="edge2" class="edge">
<title>Node7&#45;&gt;Node6</title>
<path fill="none" stroke="#ffa500" d="M62.5,-222.9789C62.5,-210.5999 62.5,-197.5045 62.5,-185.6938"/>
<polygon fill="#ffa500" stroke="#ffa500" points="59.0001,-223.1648 62.5,-233.1649 66.0001,-223.1649 59.0001,-223.1648"/>
<text text-anchor="middle" x="104.5" y="-207" font-family="Helvetica,sans-Serif" font-size="10.00" fill="#000000"> &lt; IFACE, BASE &gt;</text>
</g>
</g>
</svg>
