<?xml version="1.0" encoding="UTF-8" standalone="no"?>
<!DOCTYPE svg PUBLIC "-//W3C//DTD SVG 1.1//EN"
 "http://www.w3.org/Graphics/SVG/1.1/DTD/svg11.dtd">
<!-- Generated by graphviz version 2.40.1 (20161225.0304)
 -->
<!-- Title: L4::Type_info::Demand_union_t&lt; D1, D2 &gt; Pages: 1 -->
<svg width="276pt" height="719pt"
 viewBox="0.00 0.00 275.50 719.00" xmlns="http://www.w3.org/2000/svg" xmlns:xlink="http://www.w3.org/1999/xlink">
<g id="graph0" class="graph" transform="scale(1 1) rotate(0) translate(4 715)">
<title>L4::Type_info::Demand_union_t&lt; D1, D2 &gt;</title>
<polygon fill="#ffffff" stroke="transparent" points="-4,4 -4,-715 271.5,-715 271.5,4 -4,4"/>
<!-- Node0 -->
<g id="node1" class="node">
<title>Node0</title>
<polygon fill="#bfbfbf" stroke="#000000" points="18,-160.5 18,-228.5 143,-228.5 143,-160.5 18,-160.5"/>
<text text-anchor="start" x="26" y="-216.5" font-family="Helvetica,sans-Serif" font-size="10.00" fill="#000000">L4::Type_info::Demand</text>
<text text-anchor="middle" x="80.5" y="-205.5" font-family="Helvetica,sans-Serif" font-size="10.00" fill="#000000">_union_t&lt; D1, D2 &gt;</text>
<polyline fill="none" stroke="#000000" points="18,-198.5 143,-198.5 "/>
<text text-anchor="middle" x="80.5" y="-186.5" font-family="Helvetica,sans-Serif" font-size="10.00" fill="#000000"> </text>
<polyline fill="none" stroke="#000000" points="18,-179.5 143,-179.5 "/>
<text text-anchor="middle" x="80.5" y="-167.5" font-family="Helvetica,sans-Serif" font-size="10.00" fill="#000000"> </text>
</g>
<!-- Node4 -->
<g id="node5" class="node">
<title>Node4</title>
<g id="a_node5"><a xlink:href="structL4_1_1Type__info_1_1Demand__union__t.html" target="_top" xlink:title="{L4::Type_info::Demand\l_union_t\&lt; Kobject_typeid\l\&lt; T1 \&gt;::Demand, Kobject\l_demand\&lt; T2... \&gt; \&gt;\n||}">
<polygon fill="#ffffff" stroke="#000000" points="13,-.5 13,-90.5 148,-90.5 148,-.5 13,-.5"/>
<text text-anchor="start" x="21" y="-78.5" font-family="Helvetica,sans-Serif" font-size="10.00" fill="#000000">L4::Type_info::Demand</text>
<text text-anchor="start" x="21" y="-67.5" font-family="Helvetica,sans-Serif" font-size="10.00" fill="#000000">_union_t&lt; Kobject_typeid</text>
<text text-anchor="start" x="21" y="-56.5" font-family="Helvetica,sans-Serif" font-size="10.00" fill="#000000">&lt; T1 &gt;::Demand, Kobject</text>
<text text-anchor="middle" x="80.5" y="-45.5" font-family="Helvetica,sans-Serif" font-size="10.00" fill="#000000">_demand&lt; T2... &gt; &gt;</text>
<polyline fill="none" stroke="#000000" points="13,-38.5 148,-38.5 "/>
<text text-anchor="middle" x="80.5" y="-26.5" font-family="Helvetica,sans-Serif" font-size="10.00" fill="#000000"> </text>
<polyline fill="none" stroke="#000000" points="13,-19.5 148,-19.5 "/>
<text text-anchor="middle" x="80.5" y="-7.5" font-family="Helvetica,sans-Serif" font-size="10.00" fill="#000000"> </text>
</a>
</g>
</g>
<!-- Node0&#45;&gt;Node4 -->
<g id="edge5" class="edge">
<title>Node0&#45;&gt;Node4</title>
<path fill="none" stroke="#ffa500" d="M80.5,-150.2137C80.5,-131.3849 80.5,-109.4561 80.5,-90.5452"/>
<polygon fill="#ffa500" stroke="#ffa500" points="77.0001,-150.3164 80.5,-160.3164 84.0001,-150.3164 77.0001,-150.3164"/>
<text text-anchor="start" x="80.5" y="-134" font-family="Helvetica,sans-Serif" font-size="10.00" fill="#000000"> &lt; Kobject_typeid&lt; T1</text>
<text text-anchor="start" x="80.5" y="-123" font-family="Helvetica,sans-Serif" font-size="10.00" fill="#000000"> &gt;::Demand, Kobject_demand</text>
<text text-anchor="middle" x="149.5" y="-112" font-family="Helvetica,sans-Serif" font-size="10.00" fill="#000000">&lt; T2... &gt; &gt;</text>
</g>
<!-- Node1 -->
<g id="node2" class="node">
<title>Node1</title>
<g id="a_node2"><a xlink:href="structL4_1_1Type__info_1_1Demand__t.html" target="_top" xlink:title="{L4::Type_info::Demand\l_t\&lt; __I::Max\&lt; D1::Caps,\l D2::Caps \&gt;::Res, D1::Flags\|\lD2::Flags, __I::Max\&lt; D1::Mem,\l D2::Mem \&gt;::Res, __I::Max\&lt; D1\l::Ports, D2::Ports \&gt;::Res \&gt;\n||+ Demand_t()\l}">
<polygon fill="#ffffff" stroke="#000000" points="0,-266.5 0,-378.5 161,-378.5 161,-266.5 0,-266.5"/>
<text text-anchor="start" x="8" y="-366.5" font-family="Helvetica,sans-Serif" font-size="10.00" fill="#000000">L4::Type_info::Demand</text>
<text text-anchor="start" x="8" y="-355.5" font-family="Helvetica,sans-Serif" font-size="10.00" fill="#000000">_t&lt; __I::Max&lt; D1::Caps,</text>
<text text-anchor="start" x="8" y="-344.5" font-family="Helvetica,sans-Serif" font-size="10.00" fill="#000000"> D2::Caps &gt;::Res, D1::Flags|</text>
<text text-anchor="start" x="8" y="-333.5" font-family="Helvetica,sans-Serif" font-size="10.00" fill="#000000">D2::Flags, __I::Max&lt; D1::Mem,</text>
<text text-anchor="start" x="8" y="-322.5" font-family="Helvetica,sans-Serif" font-size="10.00" fill="#000000"> D2::Mem &gt;::Res, __I::Max&lt; D1</text>
<text text-anchor="middle" x="80.5" y="-311.5" font-family="Helvetica,sans-Serif" font-size="10.00" fill="#000000">::Ports, D2::Ports &gt;::Res &gt;</text>
<polyline fill="none" stroke="#000000" points="0,-304.5 161,-304.5 "/>
<text text-anchor="middle" x="80.5" y="-292.5" font-family="Helvetica,sans-Serif" font-size="10.00" fill="#000000"> </text>
<polyline fill="none" stroke="#000000" points="0,-285.5 161,-285.5 "/>
<text text-anchor="start" x="8" y="-273.5" font-family="Helvetica,sans-Serif" font-size="10.00" fill="#000000">+ Demand_t()</text>
</a>
</g>
</g>
<!-- Node1&#45;&gt;Node0 -->
<g id="edge1" class="edge">
<title>Node1&#45;&gt;Node0</title>
<path fill="none" stroke="#191970" d="M80.5,-256.3328C80.5,-246.7008 80.5,-237.1344 80.5,-228.5076"/>
<polygon fill="none" stroke="#191970" points="77.0001,-256.3573 80.5,-266.3573 84.0001,-256.3574 77.0001,-256.3573"/>
</g>
<!-- Node2 -->
<g id="node3" class="node">
<title>Node2</title>
<g id="a_node3"><a xlink:href="classL4_1_1Type__info_1_1Demand.html" target="_top" xlink:title="Data type for expressing the needed receive buffers at the server&#45;side of an interface. ">
<polygon fill="#ffffff" stroke="#000000" points="14,-598.5 14,-710.5 139,-710.5 139,-598.5 14,-598.5"/>
<text text-anchor="middle" x="76.5" y="-698.5" font-family="Helvetica,sans-Serif" font-size="10.00" fill="#000000">L4::Type_info::Demand</text>
<polyline fill="none" stroke="#000000" points="14,-691.5 139,-691.5 "/>
<text text-anchor="start" x="22" y="-679.5" font-family="Helvetica,sans-Serif" font-size="10.00" fill="#000000">+ caps</text>
<text text-anchor="start" x="22" y="-668.5" font-family="Helvetica,sans-Serif" font-size="10.00" fill="#000000">+ flags</text>
<text text-anchor="start" x="22" y="-657.5" font-family="Helvetica,sans-Serif" font-size="10.00" fill="#000000">+ mem</text>
<text text-anchor="start" x="22" y="-646.5" font-family="Helvetica,sans-Serif" font-size="10.00" fill="#000000">+ ports</text>
<polyline fill="none" stroke="#000000" points="14,-639.5 139,-639.5 "/>
<text text-anchor="start" x="22" y="-627.5" font-family="Helvetica,sans-Serif" font-size="10.00" fill="#000000">+ Demand()</text>
<text text-anchor="start" x="22" y="-616.5" font-family="Helvetica,sans-Serif" font-size="10.00" fill="#000000">+ no_demand()</text>
<text text-anchor="start" x="22" y="-605.5" font-family="Helvetica,sans-Serif" font-size="10.00" fill="#000000">+ operator|()</text>
</a>
</g>
</g>
<!-- Node2&#45;&gt;Node1 -->
<g id="edge2" class="edge">
<title>Node2&#45;&gt;Node1</title>
<path fill="none" stroke="#191970" d="M77.3033,-587.8227C78.0432,-526.4133 79.1286,-436.3238 79.8248,-378.5406"/>
<polygon fill="none" stroke="#191970" points="73.7994,-588.1393 77.1785,-598.1807 80.7989,-588.2237 73.7994,-588.1393"/>
</g>
<!-- Node3 -->
<g id="node4" class="node">
<title>Node3</title>
<g id="a_node4"><a xlink:href="structL4_1_1Type__info_1_1Demand__t.html" target="_top" xlink:title="Template type statically describing demand of receive buffers. ">
<polygon fill="#ffffff" stroke="#000000" points="92.5,-481.5 92.5,-560.5 226.5,-560.5 226.5,-481.5 92.5,-481.5"/>
<text text-anchor="start" x="100.5" y="-548.5" font-family="Helvetica,sans-Serif" font-size="10.00" fill="#000000">L4::Type_info::Demand</text>
<text text-anchor="start" x="100.5" y="-537.5" font-family="Helvetica,sans-Serif" font-size="10.00" fill="#000000">_t&lt; CAPS, FLAGS, MEM,</text>
<text text-anchor="middle" x="159.5" y="-526.5" font-family="Helvetica,sans-Serif" font-size="10.00" fill="#000000"> PORTS &gt;</text>
<polyline fill="none" stroke="#000000" points="92.5,-519.5 226.5,-519.5 "/>
<text text-anchor="middle" x="159.5" y="-507.5" font-family="Helvetica,sans-Serif" font-size="10.00" fill="#000000"> </text>
<polyline fill="none" stroke="#000000" points="92.5,-500.5 226.5,-500.5 "/>
<text text-anchor="start" x="100.5" y="-488.5" font-family="Helvetica,sans-Serif" font-size="10.00" fill="#000000">+ Demand_t()</text>
</a>
</g>
</g>
<!-- Node2&#45;&gt;Node3 -->
<g id="edge4" class="edge">
<title>Node2&#45;&gt;Node3</title>
<path fill="none" stroke="#191970" d="M116.855,-589.5916C123.0209,-579.6743 129.2204,-569.7027 134.9087,-560.5534"/>
<polygon fill="none" stroke="#191970" points="113.7666,-587.9304 111.4589,-598.2709 119.7113,-591.6264 113.7666,-587.9304"/>
</g>
<!-- Node3&#45;&gt;Node1 -->
<g id="edge3" class="edge">
<title>Node3&#45;&gt;Node1</title>
<path fill="none" stroke="#ffa500" d="M139.8605,-471.6526C128.6308,-443.4363 114.5064,-407.9463 102.8528,-378.6648"/>
<polygon fill="#ffa500" stroke="#ffa500" points="136.7533,-473.3107 143.703,-481.3076 143.2571,-470.7222 136.7533,-473.3107"/>
<text text-anchor="start" x="135.5" y="-455" font-family="Helvetica,sans-Serif" font-size="10.00" fill="#000000"> &lt; __I::Max&lt; D1::Caps,</text>
<text text-anchor="start" x="135.5" y="-444" font-family="Helvetica,sans-Serif" font-size="10.00" fill="#000000"> D2::Caps &gt;::Res, D1</text>
<text text-anchor="start" x="135.5" y="-433" font-family="Helvetica,sans-Serif" font-size="10.00" fill="#000000">::Flags|D2::Flags, __I</text>
<text text-anchor="start" x="135.5" y="-422" font-family="Helvetica,sans-Serif" font-size="10.00" fill="#000000">::Max&lt; D1::Mem, D2::Mem</text>
<text text-anchor="start" x="135.5" y="-411" font-family="Helvetica,sans-Serif" font-size="10.00" fill="#000000"> &gt;::Res, __I::Max&lt; D1::Ports,</text>
<text text-anchor="middle" x="201.5" y="-400" font-family="Helvetica,sans-Serif" font-size="10.00" fill="#000000"> D2::Ports &gt;::Res &gt;</text>
</g>
</g>
</svg>
