<?xml version="1.0" encoding="UTF-8" standalone="no"?>
<!DOCTYPE svg PUBLIC "-//W3C//DTD SVG 1.1//EN"
 "http://www.w3.org/Graphics/SVG/1.1/DTD/svg11.dtd">
<!-- Generated by graphviz version 2.40.1 (20161225.0304)
 -->
<!-- Title: L4::Ipc::Array&lt; ELEM_TYPE, LEN_TYPE &gt; Pages: 1 -->
<svg width="163pt" height="237pt"
 viewBox="0.00 0.00 163.00 237.00" xmlns="http://www.w3.org/2000/svg" xmlns:xlink="http://www.w3.org/1999/xlink">
<g id="graph0" class="graph" transform="scale(1 1) rotate(0) translate(4 233)">
<title>L4::Ipc::Array&lt; ELEM_TYPE, LEN_TYPE &gt;</title>
<polygon fill="#ffffff" stroke="transparent" points="-4,4 -4,-233 159,-233 159,4 -4,4"/>
<!-- Node3 -->
<g id="node1" class="node">
<title>Node3</title>
<polygon fill="#bfbfbf" stroke="#000000" points="19,-.5 19,-90.5 136,-90.5 136,-.5 19,-.5"/>
<text text-anchor="start" x="27" y="-78.5" font-family="Helvetica,sans-Serif" font-size="10.00" fill="#000000">L4::Ipc::Array&lt; ELEM</text>
<text text-anchor="middle" x="77.5" y="-67.5" font-family="Helvetica,sans-Serif" font-size="10.00" fill="#000000">_TYPE, LEN_TYPE &gt;</text>
<polyline fill="none" stroke="#000000" points="19,-60.5 136,-60.5 "/>
<text text-anchor="middle" x="77.5" y="-48.5" font-family="Helvetica,sans-Serif" font-size="10.00" fill="#000000"> </text>
<polyline fill="none" stroke="#000000" points="19,-41.5 136,-41.5 "/>
<text text-anchor="start" x="27" y="-29.5" font-family="Helvetica,sans-Serif" font-size="10.00" fill="#000000">+ Array()</text>
<text text-anchor="start" x="27" y="-18.5" font-family="Helvetica,sans-Serif" font-size="10.00" fill="#000000">+ Array()</text>
<text text-anchor="start" x="27" y="-7.5" font-family="Helvetica,sans-Serif" font-size="10.00" fill="#000000">+ Array()</text>
</g>
<!-- Node4 -->
<g id="node2" class="node">
<title>Node4</title>
<g id="a_node2"><a xlink:href="structL4_1_1Ipc_1_1Array__ref.html" target="_top" xlink:title="Array reference data type for arrays located in the message. ">
<polygon fill="#ffffff" stroke="#000000" points="0,-127.5 0,-228.5 155,-228.5 155,-127.5 0,-127.5"/>
<text text-anchor="start" x="8" y="-216.5" font-family="Helvetica,sans-Serif" font-size="10.00" fill="#000000">L4::Ipc::Array_ref</text>
<text text-anchor="middle" x="77.5" y="-205.5" font-family="Helvetica,sans-Serif" font-size="10.00" fill="#000000">&lt; ELEM_TYPE, LEN_TYPE &gt;</text>
<polyline fill="none" stroke="#000000" points="0,-198.5 155,-198.5 "/>
<text text-anchor="start" x="8" y="-186.5" font-family="Helvetica,sans-Serif" font-size="10.00" fill="#000000">+ length</text>
<text text-anchor="start" x="8" y="-175.5" font-family="Helvetica,sans-Serif" font-size="10.00" fill="#000000">+ data</text>
<polyline fill="none" stroke="#000000" points="0,-168.5 155,-168.5 "/>
<text text-anchor="start" x="8" y="-156.5" font-family="Helvetica,sans-Serif" font-size="10.00" fill="#000000">+ Array_ref()</text>
<text text-anchor="start" x="8" y="-145.5" font-family="Helvetica,sans-Serif" font-size="10.00" fill="#000000">+ Array_ref()</text>
<text text-anchor="start" x="8" y="-134.5" font-family="Helvetica,sans-Serif" font-size="10.00" fill="#000000">+ Array_ref()</text>
</a>
</g>
</g>
<!-- Node4&#45;&gt;Node3 -->
<g id="edge1" class="edge">
<title>Node4&#45;&gt;Node3</title>
<path fill="none" stroke="#191970" d="M77.5,-116.9214C77.5,-108.1275 77.5,-99.2114 77.5,-90.7978"/>
<polygon fill="none" stroke="#191970" points="74.0001,-117.1509 77.5,-127.151 81.0001,-117.151 74.0001,-117.1509"/>
</g>
</g>
</svg>
