<?xml version="1.0" encoding="UTF-8" standalone="no"?>
<!DOCTYPE svg PUBLIC "-//W3C//DTD SVG 1.1//EN"
 "http://www.w3.org/Graphics/SVG/1.1/DTD/svg11.dtd">
<!-- Generated by graphviz version 2.40.1 (20161225.0304)
 -->
<!-- Title: L4::Types::True Pages: 1 -->
<svg width="132pt" height="266pt"
 viewBox="0.00 0.00 132.00 266.00" xmlns="http://www.w3.org/2000/svg" xmlns:xlink="http://www.w3.org/1999/xlink">
<g id="graph0" class="graph" transform="scale(1 1) rotate(0) translate(4 262)">
<title>L4::Types::True</title>
<polygon fill="#ffffff" stroke="transparent" points="-4,4 -4,-262 128,-262 128,4 -4,4"/>
<!-- Node5 -->
<g id="node1" class="node">
<title>Node5</title>
<polygon fill="#bfbfbf" stroke="#000000" points="17.5,-.5 17.5,-57.5 106.5,-57.5 106.5,-.5 17.5,-.5"/>
<text text-anchor="middle" x="62" y="-45.5" font-family="Helvetica,sans-Serif" font-size="10.00" fill="#000000">L4::Types::True</text>
<polyline fill="none" stroke="#000000" points="17.5,-38.5 106.5,-38.5 "/>
<text text-anchor="middle" x="62" y="-26.5" font-family="Helvetica,sans-Serif" font-size="10.00" fill="#000000"> </text>
<polyline fill="none" stroke="#000000" points="17.5,-19.5 106.5,-19.5 "/>
<text text-anchor="middle" x="62" y="-7.5" font-family="Helvetica,sans-Serif" font-size="10.00" fill="#000000"> </text>
</g>
<!-- Node6 -->
<g id="node2" class="node">
<title>Node6</title>
<g id="a_node2"><a xlink:href="structL4_1_1Types_1_1Bool.html" target="_top" xlink:title="{L4::Types::Bool\&lt; true \&gt;\n||}">
<polygon fill="#ffffff" stroke="#000000" points="0,-95.5 0,-152.5 124,-152.5 124,-95.5 0,-95.5"/>
<text text-anchor="middle" x="62" y="-140.5" font-family="Helvetica,sans-Serif" font-size="10.00" fill="#000000">L4::Types::Bool&lt; true &gt;</text>
<polyline fill="none" stroke="#000000" points="0,-133.5 124,-133.5 "/>
<text text-anchor="middle" x="62" y="-121.5" font-family="Helvetica,sans-Serif" font-size="10.00" fill="#000000"> </text>
<polyline fill="none" stroke="#000000" points="0,-114.5 124,-114.5 "/>
<text text-anchor="middle" x="62" y="-102.5" font-family="Helvetica,sans-Serif" font-size="10.00" fill="#000000"> </text>
</a>
</g>
</g>
<!-- Node6&#45;&gt;Node5 -->
<g id="edge1" class="edge">
<title>Node6&#45;&gt;Node5</title>
<path fill="none" stroke="#191970" d="M62,-85.3724C62,-76.1627 62,-66.4917 62,-57.8114"/>
<polygon fill="none" stroke="#191970" points="58.5001,-85.4968 62,-95.4969 65.5001,-85.4969 58.5001,-85.4968"/>
</g>
<!-- Node7 -->
<g id="node3" class="node">
<title>Node7</title>
<g id="a_node3"><a xlink:href="structL4_1_1Types_1_1Bool.html" target="_top" xlink:title="Boolean meta type. ">
<polygon fill="#ffffff" stroke="#000000" points="5.5,-200.5 5.5,-257.5 118.5,-257.5 118.5,-200.5 5.5,-200.5"/>
<text text-anchor="middle" x="62" y="-245.5" font-family="Helvetica,sans-Serif" font-size="10.00" fill="#000000">L4::Types::Bool&lt; V &gt;</text>
<polyline fill="none" stroke="#000000" points="5.5,-238.5 118.5,-238.5 "/>
<text text-anchor="middle" x="62" y="-226.5" font-family="Helvetica,sans-Serif" font-size="10.00" fill="#000000"> </text>
<polyline fill="none" stroke="#000000" points="5.5,-219.5 118.5,-219.5 "/>
<text text-anchor="middle" x="62" y="-207.5" font-family="Helvetica,sans-Serif" font-size="10.00" fill="#000000"> </text>
</a>
</g>
</g>
<!-- Node7&#45;&gt;Node6 -->
<g id="edge2" class="edge">
<title>Node7&#45;&gt;Node6</title>
<path fill="none" stroke="#ffa500" d="M62,-190.192C62,-177.7605 62,-164.2278 62,-152.657"/>
<polygon fill="#ffa500" stroke="#ffa500" points="58.5001,-190.3083 62,-200.3083 65.5001,-190.3083 58.5001,-190.3083"/>
<text text-anchor="middle" x="82" y="-174" font-family="Helvetica,sans-Serif" font-size="10.00" fill="#000000"> &lt; true &gt;</text>
</g>
</g>
</svg>
