<?xml version="1.0" encoding="UTF-8" standalone="no"?>
<!DOCTYPE svg PUBLIC "-//W3C//DTD SVG 1.1//EN"
 "http://www.w3.org/Graphics/SVG/1.1/DTD/svg11.dtd">
<!-- Generated by graphviz version 2.40.1 (20161225.0304)
 -->
<!-- Title: L4::Triggerable::trigger Pages: 1 -->
<svg width="510pt" height="180pt"
 viewBox="0.00 0.00 510.00 180.00" xmlns="http://www.w3.org/2000/svg" xmlns:xlink="http://www.w3.org/1999/xlink">
<g id="graph0" class="graph" transform="scale(1 1) rotate(0) translate(4 176)">
<title>L4::Triggerable::trigger</title>
<polygon fill="#ffffff" stroke="transparent" points="-4,4 -4,-176 506,-176 506,4 -4,4"/>
<!-- Node0 -->
<g id="node1" class="node">
<title>Node0</title>
<polygon fill="#bfbfbf" stroke="#000000" points="0,-114.5 0,-133.5 122,-133.5 122,-114.5 0,-114.5"/>
<text text-anchor="middle" x="61" y="-121.5" font-family="Helvetica,sans-Serif" font-size="10.00" fill="#000000">L4::Triggerable::trigger</text>
</g>
<!-- Node1 -->
<g id="node2" class="node">
<title>Node1</title>
<g id="a_node2"><a xlink:href="classL4_1_1Kobject.html#a4f2117ae76762f4084e6a1adb915863c" target="_top" xlink:title="Return capability selector. ">
<polygon fill="#ffffff" stroke="#000000" points="159,-133.5 159,-152.5 248,-152.5 248,-133.5 159,-133.5"/>
<text text-anchor="middle" x="203.5" y="-140.5" font-family="Helvetica,sans-Serif" font-size="10.00" fill="#000000">L4::Kobject::cap</text>
</a>
</g>
</g>
<!-- Node0&#45;&gt;Node1 -->
<g id="edge1" class="edge">
<title>Node0&#45;&gt;Node1</title>
<path fill="none" stroke="#191970" d="M122.2598,-132.168C131.0432,-133.3391 140.0332,-134.5378 148.6816,-135.6909"/>
<polygon fill="#191970" stroke="#191970" points="148.2695,-139.1668 158.6444,-137.0192 149.1947,-132.2282 148.2695,-139.1668"/>
</g>
<!-- Node2 -->
<g id="node3" class="node">
<title>Node2</title>
<g id="a_node3"><a xlink:href="group__l4__irq__api.html#ga180cfaf342ce9ff484a6aa7c276e1597" target="_top" xlink:title="Trigger. ">
<polygon fill="#ffffff" stroke="#000000" points="158,-95.5 158,-114.5 249,-114.5 249,-95.5 158,-95.5"/>
<text text-anchor="middle" x="203.5" y="-102.5" font-family="Helvetica,sans-Serif" font-size="10.00" fill="#000000">l4_irq_trigger_u</text>
</a>
</g>
</g>
<!-- Node0&#45;&gt;Node2 -->
<g id="edge2" class="edge">
<title>Node0&#45;&gt;Node2</title>
<path fill="none" stroke="#191970" d="M122.2598,-115.832C130.7332,-114.7022 139.3989,-113.5468 147.7647,-112.4314"/>
<polygon fill="#191970" stroke="#191970" points="148.3376,-115.886 157.7873,-111.095 147.4124,-108.9475 148.3376,-115.886"/>
</g>
<!-- Node3 -->
<g id="node4" class="node">
<title>Node3</title>
<g id="a_node4"><a xlink:href="group__l4__ipc__api.html#ga7de45eb59ce852466362ea85da00299e" target="_top" xlink:title="Send a message to an object (do not wait for a reply). ">
<polygon fill="#ffffff" stroke="#000000" points="285,-133.5 285,-152.5 359,-152.5 359,-133.5 285,-133.5"/>
<text text-anchor="middle" x="322" y="-140.5" font-family="Helvetica,sans-Serif" font-size="10.00" fill="#000000">l4_ipc_send</text>
</a>
</g>
</g>
<!-- Node2&#45;&gt;Node3 -->
<g id="edge3" class="edge">
<title>Node2&#45;&gt;Node3</title>
<path fill="none" stroke="#191970" d="M233.4026,-114.589C248.2787,-119.3594 266.4571,-125.1888 282.4674,-130.3229"/>
<polygon fill="#191970" stroke="#191970" points="281.5159,-133.6932 292.107,-133.4141 283.6534,-127.0276 281.5159,-133.6932"/>
</g>
<!-- Node5 -->
<g id="node6" class="node">
<title>Node5</title>
<g id="a_node6"><a xlink:href="group__l4__msgtag__api.html#ga661d71acad9d096fa990f7c94943bc78" target="_top" xlink:title="Create a message tag from the specified values. ">
<polygon fill="#ffffff" stroke="#000000" points="289.5,-76.5 289.5,-95.5 354.5,-95.5 354.5,-76.5 289.5,-76.5"/>
<text text-anchor="middle" x="322" y="-83.5" font-family="Helvetica,sans-Serif" font-size="10.00" fill="#000000">l4_msgtag</text>
</a>
</g>
</g>
<!-- Node2&#45;&gt;Node5 -->
<g id="edge5" class="edge">
<title>Node2&#45;&gt;Node5</title>
<path fill="none" stroke="#191970" d="M249.3152,-97.6541C259.0723,-96.0897 269.3425,-94.443 278.9901,-92.8961"/>
<polygon fill="#191970" stroke="#191970" points="279.841,-96.3045 289.1608,-91.2654 278.7328,-89.3927 279.841,-96.3045"/>
</g>
<!-- Node4 -->
<g id="node5" class="node">
<title>Node4</title>
<g id="a_node5"><a xlink:href="group__l4__ipc__api.html#ga0e7e5b18d784b1d3439ea6e5b4bea4e2" target="_top" xlink:title="Generic L4 object invocation. ">
<polygon fill="#ffffff" stroke="#000000" points="426.5,-152.5 426.5,-171.5 470.5,-171.5 470.5,-152.5 426.5,-152.5"/>
<text text-anchor="middle" x="448.5" y="-159.5" font-family="Helvetica,sans-Serif" font-size="10.00" fill="#000000">l4_ipc</text>
</a>
</g>
</g>
<!-- Node3&#45;&gt;Node4 -->
<g id="edge4" class="edge">
<title>Node3&#45;&gt;Node4</title>
<path fill="none" stroke="#191970" d="M359.27,-148.5979C377.2553,-151.2992 398.6328,-154.5101 415.9541,-157.1117"/>
<polygon fill="#191970" stroke="#191970" points="415.7393,-160.6186 426.1483,-158.6428 416.7791,-153.6963 415.7393,-160.6186"/>
</g>
<!-- Node6 -->
<g id="node7" class="node">
<title>Node6</title>
<g id="a_node7"><a xlink:href="structl4__msgtag__t.html#af6b9564a9a16427cec0e81a4628996b8" target="_top" xlink:title="Get the flags value. ">
<polygon fill="#ffffff" stroke="#000000" points="398,-114.5 398,-133.5 499,-133.5 499,-114.5 398,-114.5"/>
<text text-anchor="middle" x="448.5" y="-121.5" font-family="Helvetica,sans-Serif" font-size="10.00" fill="#000000">l4_msgtag_t::flags</text>
</a>
</g>
</g>
<!-- Node5&#45;&gt;Node6 -->
<g id="edge6" class="edge">
<title>Node5&#45;&gt;Node6</title>
<path fill="none" stroke="#191970" d="M353.9213,-95.589C369.9516,-100.4044 389.5738,-106.2988 406.7816,-111.468"/>
<polygon fill="#191970" stroke="#191970" points="406.0047,-114.8891 416.5889,-114.4141 408.0187,-108.185 406.0047,-114.8891"/>
</g>
<!-- Node7 -->
<g id="node8" class="node">
<title>Node7</title>
<g id="a_node8"><a xlink:href="structl4__msgtag__t.html#ad014e4a9f4509b068ddda678f6f8d568" target="_top" xlink:title="Get the number of typed items. ">
<polygon fill="#ffffff" stroke="#000000" points="396.5,-76.5 396.5,-95.5 500.5,-95.5 500.5,-76.5 396.5,-76.5"/>
<text text-anchor="middle" x="448.5" y="-83.5" font-family="Helvetica,sans-Serif" font-size="10.00" fill="#000000">l4_msgtag_t::items</text>
</a>
</g>
</g>
<!-- Node5&#45;&gt;Node7 -->
<g id="edge7" class="edge">
<title>Node5&#45;&gt;Node7</title>
<path fill="none" stroke="#191970" d="M354.5769,-86C364.3292,-86 375.3652,-86 386.3566,-86"/>
<polygon fill="#191970" stroke="#191970" points="386.4001,-89.5001 396.4001,-86 386.4,-82.5001 386.4001,-89.5001"/>
</g>
<!-- Node8 -->
<g id="node9" class="node">
<title>Node8</title>
<g id="a_node9"><a xlink:href="structl4__msgtag__t.html#a002076380a3f6e4f29a1f6b50ce2bde2" target="_top" xlink:title="Get the protocol value. ">
<polygon fill="#ffffff" stroke="#000000" points="398,-38.5 398,-57.5 499,-57.5 499,-38.5 398,-38.5"/>
<text text-anchor="middle" x="448.5" y="-45.5" font-family="Helvetica,sans-Serif" font-size="10.00" fill="#000000">l4_msgtag_t::label</text>
</a>
</g>
</g>
<!-- Node5&#45;&gt;Node8 -->
<g id="edge8" class="edge">
<title>Node5&#45;&gt;Node8</title>
<path fill="none" stroke="#191970" d="M353.9213,-76.411C369.9516,-71.5956 389.5738,-65.7012 406.7816,-60.532"/>
<polygon fill="#191970" stroke="#191970" points="408.0187,-63.815 416.5889,-57.5859 406.0047,-57.1109 408.0187,-63.815"/>
</g>
<!-- Node9 -->
<g id="node10" class="node">
<title>Node9</title>
<g id="a_node10"><a xlink:href="structl4__msgtag__t.html#a98577ea730d9abcd938b89d5c7adb18c" target="_top" xlink:title="Get the number of untyped words. ">
<polygon fill="#ffffff" stroke="#000000" points="395,-.5 395,-19.5 502,-19.5 502,-.5 395,-.5"/>
<text text-anchor="middle" x="448.5" y="-7.5" font-family="Helvetica,sans-Serif" font-size="10.00" fill="#000000">l4_msgtag_t::words</text>
</a>
</g>
</g>
<!-- Node5&#45;&gt;Node9 -->
<g id="edge9" class="edge">
<title>Node5&#45;&gt;Node9</title>
<path fill="none" stroke="#191970" d="M332.1224,-76.3464C345.5644,-63.9585 370.4749,-42.4648 395,-29 398.7422,-26.9454 402.7496,-25.0422 406.8253,-23.298"/>
<polygon fill="#191970" stroke="#191970" points="408.3574,-26.4558 416.3665,-19.52 405.7803,-19.9474 408.3574,-26.4558"/>
</g>
</g>
</svg>
