<?xml version="1.0" encoding="UTF-8" standalone="no"?>
<!DOCTYPE svg PUBLIC "-//W3C//DTD SVG 1.1//EN"
 "http://www.w3.org/Graphics/SVG/1.1/DTD/svg11.dtd">
<!-- Generated by graphviz version 2.40.1 (20161225.0304)
 -->
<!-- Title: L4::Triggerable Pages: 1 -->
<svg width="480pt" height="621pt"
 viewBox="0.00 0.00 479.50 621.00" xmlns="http://www.w3.org/2000/svg" xmlns:xlink="http://www.w3.org/1999/xlink">
<g id="graph0" class="graph" transform="scale(1 1) rotate(0) translate(4 617)">
<title>L4::Triggerable</title>
<polygon fill="#ffffff" stroke="transparent" points="-4,4 -4,-617 475.5,-617 475.5,4 -4,4"/>
<!-- Node0 -->
<g id="node1" class="node">
<title>Node0</title>
<polygon fill="#bfbfbf" stroke="#000000" points="199.5,-300.5 199.5,-357.5 286.5,-357.5 286.5,-300.5 199.5,-300.5"/>
<text text-anchor="middle" x="243" y="-345.5" font-family="Helvetica,sans-Serif" font-size="10.00" fill="#000000">L4::Triggerable</text>
<polyline fill="none" stroke="#000000" points="199.5,-338.5 286.5,-338.5 "/>
<text text-anchor="middle" x="243" y="-326.5" font-family="Helvetica,sans-Serif" font-size="10.00" fill="#000000"> </text>
<polyline fill="none" stroke="#000000" points="199.5,-319.5 286.5,-319.5 "/>
<text text-anchor="start" x="207.5" y="-307.5" font-family="Helvetica,sans-Serif" font-size="10.00" fill="#000000">+ trigger()</text>
</g>
<!-- Node4 -->
<g id="node5" class="node">
<title>Node4</title>
<g id="a_node5"><a xlink:href="classL4_1_1Kobject__2t.html" target="_top" xlink:title="{L4::Kobject_2t\&lt; Irq,\l Triggerable, Rcv_endpoint,\l L4_PROTO_IRQ_SENDER \&gt;\n||+ operator Kobject const &amp;()\l+ dec_refcnt()\l# cap()\l# c()\l# __check_protocols__()\l}">
<polygon fill="#ffffff" stroke="#000000" points="0,-139.5 0,-262.5 158,-262.5 158,-139.5 0,-139.5"/>
<text text-anchor="start" x="8" y="-250.5" font-family="Helvetica,sans-Serif" font-size="10.00" fill="#000000">L4::Kobject_2t&lt; Irq,</text>
<text text-anchor="start" x="8" y="-239.5" font-family="Helvetica,sans-Serif" font-size="10.00" fill="#000000"> Triggerable, Rcv_endpoint,</text>
<text text-anchor="middle" x="79" y="-228.5" font-family="Helvetica,sans-Serif" font-size="10.00" fill="#000000"> L4_PROTO_IRQ_SENDER &gt;</text>
<polyline fill="none" stroke="#000000" points="0,-221.5 158,-221.5 "/>
<text text-anchor="middle" x="79" y="-209.5" font-family="Helvetica,sans-Serif" font-size="10.00" fill="#000000"> </text>
<polyline fill="none" stroke="#000000" points="0,-202.5 158,-202.5 "/>
<text text-anchor="start" x="8" y="-190.5" font-family="Helvetica,sans-Serif" font-size="10.00" fill="#000000">+ operator Kobject const &amp;()</text>
<text text-anchor="start" x="8" y="-179.5" font-family="Helvetica,sans-Serif" font-size="10.00" fill="#000000">+ dec_refcnt()</text>
<text text-anchor="start" x="8" y="-168.5" font-family="Helvetica,sans-Serif" font-size="10.00" fill="#000000"># cap()</text>
<text text-anchor="start" x="8" y="-157.5" font-family="Helvetica,sans-Serif" font-size="10.00" fill="#000000"># c()</text>
<text text-anchor="start" x="8" y="-146.5" font-family="Helvetica,sans-Serif" font-size="10.00" fill="#000000"># __check_protocols__()</text>
</a>
</g>
</g>
<!-- Node0&#45;&gt;Node4 -->
<g id="edge4" class="edge">
<title>Node0&#45;&gt;Node4</title>
<path fill="none" stroke="#191970" d="M198.2134,-294.0446C185.7217,-284.295 171.7675,-273.4039 157.9301,-262.604"/>
<polygon fill="none" stroke="#191970" points="196.1586,-296.8807 206.1952,-300.2743 200.4655,-291.3624 196.1586,-296.8807"/>
</g>
<!-- Node6 -->
<g id="node7" class="node">
<title>Node6</title>
<g id="a_node7"><a xlink:href="classL4_1_1Kobject__t.html" target="_top" xlink:title="{L4::Kobject_t\&lt; Irq\l_mux, Triggerable, L4\l_PROTO_IRQ_MUX \&gt;\n||# c()\l# __check_protocols__()\l}">
<polygon fill="#ffffff" stroke="#000000" points="176,-156 176,-246 310,-246 310,-156 176,-156"/>
<text text-anchor="start" x="184" y="-234" font-family="Helvetica,sans-Serif" font-size="10.00" fill="#000000">L4::Kobject_t&lt; Irq</text>
<text text-anchor="start" x="184" y="-223" font-family="Helvetica,sans-Serif" font-size="10.00" fill="#000000">_mux, Triggerable, L4</text>
<text text-anchor="middle" x="243" y="-212" font-family="Helvetica,sans-Serif" font-size="10.00" fill="#000000">_PROTO_IRQ_MUX &gt;</text>
<polyline fill="none" stroke="#000000" points="176,-205 310,-205 "/>
<text text-anchor="middle" x="243" y="-193" font-family="Helvetica,sans-Serif" font-size="10.00" fill="#000000"> </text>
<polyline fill="none" stroke="#000000" points="176,-186 310,-186 "/>
<text text-anchor="start" x="184" y="-174" font-family="Helvetica,sans-Serif" font-size="10.00" fill="#000000"># c()</text>
<text text-anchor="start" x="184" y="-163" font-family="Helvetica,sans-Serif" font-size="10.00" fill="#000000"># __check_protocols__()</text>
</a>
</g>
</g>
<!-- Node0&#45;&gt;Node6 -->
<g id="edge6" class="edge">
<title>Node0&#45;&gt;Node6</title>
<path fill="none" stroke="#191970" d="M243,-290.1019C243,-276.2544 243,-260.5439 243,-246.2124"/>
<polygon fill="none" stroke="#191970" points="239.5001,-290.2743 243,-300.2743 246.5001,-290.2743 239.5001,-290.2743"/>
</g>
<!-- Node8 -->
<g id="node9" class="node">
<title>Node8</title>
<g id="a_node9"><a xlink:href="classL4_1_1Kobject__t.html" target="_top" xlink:title="{L4::Kobject_t\&lt; Semaphore,\l Triggerable, L4_PROTO\l_SEMAPHORE \&gt;\n||# c()\l# __check_protocols__()\l}">
<polygon fill="#ffffff" stroke="#000000" points="328.5,-156 328.5,-246 471.5,-246 471.5,-156 328.5,-156"/>
<text text-anchor="start" x="336.5" y="-234" font-family="Helvetica,sans-Serif" font-size="10.00" fill="#000000">L4::Kobject_t&lt; Semaphore,</text>
<text text-anchor="start" x="336.5" y="-223" font-family="Helvetica,sans-Serif" font-size="10.00" fill="#000000"> Triggerable, L4_PROTO</text>
<text text-anchor="middle" x="400" y="-212" font-family="Helvetica,sans-Serif" font-size="10.00" fill="#000000">_SEMAPHORE &gt;</text>
<polyline fill="none" stroke="#000000" points="328.5,-205 471.5,-205 "/>
<text text-anchor="middle" x="400" y="-193" font-family="Helvetica,sans-Serif" font-size="10.00" fill="#000000"> </text>
<polyline fill="none" stroke="#000000" points="328.5,-186 471.5,-186 "/>
<text text-anchor="start" x="336.5" y="-174" font-family="Helvetica,sans-Serif" font-size="10.00" fill="#000000"># c()</text>
<text text-anchor="start" x="336.5" y="-163" font-family="Helvetica,sans-Serif" font-size="10.00" fill="#000000"># __check_protocols__()</text>
</a>
</g>
</g>
<!-- Node0&#45;&gt;Node8 -->
<g id="edge8" class="edge">
<title>Node0&#45;&gt;Node8</title>
<path fill="none" stroke="#191970" d="M286.2711,-293.7217C304.282,-279.0376 325.4147,-261.8084 344.5441,-246.2124"/>
<polygon fill="none" stroke="#191970" points="283.7728,-291.2426 278.2339,-300.2743 288.1961,-296.668 283.7728,-291.2426"/>
</g>
<!-- Node1 -->
<g id="node2" class="node">
<title>Node1</title>
<g id="a_node2"><a xlink:href="classL4_1_1Kobject__t.html" target="_top" xlink:title="{L4::Kobject_t\&lt; Triggerable,\l Irq_eoi, L4_PROTO_IRQ \&gt;\n||# c()\l# __check_protocols__()\l}">
<polygon fill="#ffffff" stroke="#000000" points="169.5,-395.5 169.5,-474.5 316.5,-474.5 316.5,-395.5 169.5,-395.5"/>
<text text-anchor="start" x="177.5" y="-462.5" font-family="Helvetica,sans-Serif" font-size="10.00" fill="#000000">L4::Kobject_t&lt; Triggerable,</text>
<text text-anchor="middle" x="243" y="-451.5" font-family="Helvetica,sans-Serif" font-size="10.00" fill="#000000"> Irq_eoi, L4_PROTO_IRQ &gt;</text>
<polyline fill="none" stroke="#000000" points="169.5,-444.5 316.5,-444.5 "/>
<text text-anchor="middle" x="243" y="-432.5" font-family="Helvetica,sans-Serif" font-size="10.00" fill="#000000"> </text>
<polyline fill="none" stroke="#000000" points="169.5,-425.5 316.5,-425.5 "/>
<text text-anchor="start" x="177.5" y="-413.5" font-family="Helvetica,sans-Serif" font-size="10.00" fill="#000000"># c()</text>
<text text-anchor="start" x="177.5" y="-402.5" font-family="Helvetica,sans-Serif" font-size="10.00" fill="#000000"># __check_protocols__()</text>
</a>
</g>
</g>
<!-- Node1&#45;&gt;Node0 -->
<g id="edge1" class="edge">
<title>Node1&#45;&gt;Node0</title>
<path fill="none" stroke="#191970" d="M243,-385.1394C243,-375.7425 243,-366.2136 243,-357.7397"/>
<polygon fill="none" stroke="#191970" points="239.5001,-385.2279 243,-395.2279 246.5001,-385.228 239.5001,-385.2279"/>
</g>
<!-- Node2 -->
<g id="node3" class="node">
<title>Node2</title>
<g id="a_node3"><a xlink:href="classL4_1_1Irq__eoi.html" target="_top" xlink:title="Interface for sending an acknowledge message to an object. ">
<polygon fill="#ffffff" stroke="#000000" points="142,-544.5 142,-601.5 212,-601.5 212,-544.5 142,-544.5"/>
<text text-anchor="middle" x="177" y="-589.5" font-family="Helvetica,sans-Serif" font-size="10.00" fill="#000000">L4::Irq_eoi</text>
<polyline fill="none" stroke="#000000" points="142,-582.5 212,-582.5 "/>
<text text-anchor="middle" x="177" y="-570.5" font-family="Helvetica,sans-Serif" font-size="10.00" fill="#000000"> </text>
<polyline fill="none" stroke="#000000" points="142,-563.5 212,-563.5 "/>
<text text-anchor="start" x="150" y="-551.5" font-family="Helvetica,sans-Serif" font-size="10.00" fill="#000000">+ unmask()</text>
</a>
</g>
</g>
<!-- Node2&#45;&gt;Node1 -->
<g id="edge2" class="edge">
<title>Node2&#45;&gt;Node1</title>
<path fill="none" stroke="#191970" d="M195.0627,-535.2325C204.0719,-516.395 214.9637,-493.6213 224.087,-474.5453"/>
<polygon fill="none" stroke="#191970" points="191.8324,-533.8748 190.6752,-544.4063 198.1473,-536.8951 191.8324,-533.8748"/>
</g>
<!-- Node3 -->
<g id="node4" class="node">
<title>Node3</title>
<g id="a_node4"><a xlink:href="classL4_1_1Kobject__t.html" target="_top" xlink:title="Helper class to create an L4Re interface class that is derived from a single base class...">
<polygon fill="#ffffff" stroke="#000000" points="230,-533.5 230,-612.5 388,-612.5 388,-533.5 230,-533.5"/>
<text text-anchor="start" x="238" y="-600.5" font-family="Helvetica,sans-Serif" font-size="10.00" fill="#000000">L4::Kobject_t&lt; Derived,</text>
<text text-anchor="middle" x="309" y="-589.5" font-family="Helvetica,sans-Serif" font-size="10.00" fill="#000000"> Base, PROTO, S_DEMAND &gt;</text>
<polyline fill="none" stroke="#000000" points="230,-582.5 388,-582.5 "/>
<text text-anchor="middle" x="309" y="-570.5" font-family="Helvetica,sans-Serif" font-size="10.00" fill="#000000"> </text>
<polyline fill="none" stroke="#000000" points="230,-563.5 388,-563.5 "/>
<text text-anchor="start" x="238" y="-551.5" font-family="Helvetica,sans-Serif" font-size="10.00" fill="#000000"># c()</text>
<text text-anchor="start" x="238" y="-540.5" font-family="Helvetica,sans-Serif" font-size="10.00" fill="#000000"># __check_protocols__()</text>
</a>
</g>
</g>
<!-- Node3&#45;&gt;Node1 -->
<g id="edge3" class="edge">
<title>Node3&#45;&gt;Node1</title>
<path fill="none" stroke="#ffa500" d="M285.6181,-524.1107C277.8503,-507.8688 269.3034,-489.998 261.9157,-474.551"/>
<polygon fill="#ffa500" stroke="#ffa500" points="282.615,-525.9435 290.087,-533.4547 288.9299,-522.9233 282.615,-525.9435"/>
<text text-anchor="start" x="279" y="-507" font-family="Helvetica,sans-Serif" font-size="10.00" fill="#000000"> &lt; Triggerable, Irq</text>
<text text-anchor="middle" x="336.5" y="-496" font-family="Helvetica,sans-Serif" font-size="10.00" fill="#000000">_eoi, L4_PROTO_IRQ &gt;</text>
</g>
<!-- Node5 -->
<g id="node6" class="node">
<title>Node5</title>
<g id="a_node6"><a xlink:href="classL4_1_1Irq.html" target="_top" xlink:title="C++ Irq interface. ">
<polygon fill="#ffffff" stroke="#000000" points="44,-.5 44,-101.5 114,-101.5 114,-.5 44,-.5"/>
<text text-anchor="middle" x="79" y="-89.5" font-family="Helvetica,sans-Serif" font-size="10.00" fill="#000000">L4::Irq</text>
<polyline fill="none" stroke="#000000" points="44,-82.5 114,-82.5 "/>
<text text-anchor="middle" x="79" y="-70.5" font-family="Helvetica,sans-Serif" font-size="10.00" fill="#000000"> </text>
<polyline fill="none" stroke="#000000" points="44,-63.5 114,-63.5 "/>
<text text-anchor="start" x="52" y="-51.5" font-family="Helvetica,sans-Serif" font-size="10.00" fill="#000000">+ attach()</text>
<text text-anchor="start" x="52" y="-40.5" font-family="Helvetica,sans-Serif" font-size="10.00" fill="#000000">+ detach()</text>
<text text-anchor="start" x="52" y="-29.5" font-family="Helvetica,sans-Serif" font-size="10.00" fill="#000000">+ receive()</text>
<text text-anchor="start" x="52" y="-18.5" font-family="Helvetica,sans-Serif" font-size="10.00" fill="#000000">+ wait()</text>
<text text-anchor="start" x="52" y="-7.5" font-family="Helvetica,sans-Serif" font-size="10.00" fill="#000000">+ unmask()</text>
</a>
</g>
</g>
<!-- Node4&#45;&gt;Node5 -->
<g id="edge5" class="edge">
<title>Node4&#45;&gt;Node5</title>
<path fill="none" stroke="#191970" d="M79,-128.8462C79,-119.6965 79,-110.4904 79,-101.7734"/>
<polygon fill="none" stroke="#191970" points="75.5001,-129.1232 79,-139.1232 82.5001,-129.1233 75.5001,-129.1232"/>
</g>
<!-- Node7 -->
<g id="node8" class="node">
<title>Node7</title>
<g id="a_node8"><a xlink:href="structL4_1_1Irq__mux.html" target="_top" xlink:title="IRQ multiplexer for shared IRQs. ">
<polygon fill="#ffffff" stroke="#000000" points="207.5,-22.5 207.5,-79.5 278.5,-79.5 278.5,-22.5 207.5,-22.5"/>
<text text-anchor="middle" x="243" y="-67.5" font-family="Helvetica,sans-Serif" font-size="10.00" fill="#000000">L4::Irq_mux</text>
<polyline fill="none" stroke="#000000" points="207.5,-60.5 278.5,-60.5 "/>
<text text-anchor="middle" x="243" y="-48.5" font-family="Helvetica,sans-Serif" font-size="10.00" fill="#000000"> </text>
<polyline fill="none" stroke="#000000" points="207.5,-41.5 278.5,-41.5 "/>
<text text-anchor="start" x="215.5" y="-29.5" font-family="Helvetica,sans-Serif" font-size="10.00" fill="#000000">+ chain()</text>
</a>
</g>
</g>
<!-- Node6&#45;&gt;Node7 -->
<g id="edge7" class="edge">
<title>Node6&#45;&gt;Node7</title>
<path fill="none" stroke="#191970" d="M243,-145.9184C243,-123.5271 243,-98.582 243,-79.8854"/>
<polygon fill="none" stroke="#191970" points="239.5001,-145.995 243,-155.9951 246.5001,-145.9951 239.5001,-145.995"/>
</g>
<!-- Node9 -->
<g id="node10" class="node">
<title>Node9</title>
<g id="a_node10"><a xlink:href="structL4_1_1Semaphore.html" target="_top" xlink:title="Kernel&#45;provided semaphore object. ">
<polygon fill="#ffffff" stroke="#000000" points="356,-17 356,-85 444,-85 444,-17 356,-17"/>
<text text-anchor="middle" x="400" y="-73" font-family="Helvetica,sans-Serif" font-size="10.00" fill="#000000">L4::Semaphore</text>
<polyline fill="none" stroke="#000000" points="356,-66 444,-66 "/>
<text text-anchor="middle" x="400" y="-54" font-family="Helvetica,sans-Serif" font-size="10.00" fill="#000000"> </text>
<polyline fill="none" stroke="#000000" points="356,-47 444,-47 "/>
<text text-anchor="start" x="364" y="-35" font-family="Helvetica,sans-Serif" font-size="10.00" fill="#000000">+ up()</text>
<text text-anchor="start" x="364" y="-24" font-family="Helvetica,sans-Serif" font-size="10.00" fill="#000000">+ down()</text>
</a>
</g>
</g>
<!-- Node8&#45;&gt;Node9 -->
<g id="edge9" class="edge">
<title>Node8&#45;&gt;Node9</title>
<path fill="none" stroke="#191970" d="M400,-145.8719C400,-125.479 400,-102.9737 400,-85.0022"/>
<polygon fill="none" stroke="#191970" points="396.5001,-145.995 400,-155.9951 403.5001,-145.9951 396.5001,-145.995"/>
</g>
</g>
</svg>
