<?xml version="1.0" encoding="UTF-8" standalone="no"?>
<!DOCTYPE svg PUBLIC "-//W3C//DTD SVG 1.1//EN"
 "http://www.w3.org/Graphics/SVG/1.1/DTD/svg11.dtd">
<!-- Generated by graphviz version 2.40.1 (20161225.0304)
 -->
<!-- Title: L4virtio::Virtqueue::Desc::Flags::next Pages: 1 -->
<svg width="410pt" height="88pt"
 viewBox="0.00 0.00 410.00 88.00" xmlns="http://www.w3.org/2000/svg" xmlns:xlink="http://www.w3.org/1999/xlink">
<g id="graph0" class="graph" transform="scale(1 1) rotate(0) translate(4 84)">
<title>L4virtio::Virtqueue::Desc::Flags::next</title>
<polygon fill="#ffffff" stroke="transparent" points="-4,4 -4,-84 406,-84 406,4 -4,4"/>
<!-- Node10 -->
<g id="node1" class="node">
<title>Node10</title>
<polygon fill="#bfbfbf" stroke="#000000" points="0,-24.5 0,-54.5 100,-54.5 100,-24.5 0,-24.5"/>
<text text-anchor="start" x="8" y="-42.5" font-family="Helvetica,sans-Serif" font-size="10.00" fill="#000000">L4virtio::Virtqueue</text>
<text text-anchor="middle" x="50" y="-31.5" font-family="Helvetica,sans-Serif" font-size="10.00" fill="#000000">::Desc::Flags::next</text>
</g>
<!-- Node11 -->
<g id="node2" class="node">
<title>Node11</title>
<g id="a_node2"><a xlink:href="classL4virtio_1_1Svr_1_1Request__processor.html#a9038c26764d07c867d6e70cd6e04157d" target="_top" xlink:title="Are there more chained descriptors? ">
<polygon fill="#ffffff" stroke="#000000" points="136,-49.5 136,-79.5 258,-79.5 258,-49.5 136,-49.5"/>
<text text-anchor="start" x="144" y="-67.5" font-family="Helvetica,sans-Serif" font-size="10.00" fill="#000000">L4virtio::Svr::Request</text>
<text text-anchor="middle" x="197" y="-56.5" font-family="Helvetica,sans-Serif" font-size="10.00" fill="#000000">_processor::has_more</text>
</a>
</g>
</g>
<!-- Node10&#45;&gt;Node11 -->
<g id="edge1" class="edge">
<title>Node10&#45;&gt;Node11</title>
<path fill="none" stroke="#191970" d="M110.3125,-49.7572C118.7438,-51.1911 127.4146,-52.6657 135.8611,-54.1022"/>
<polygon fill="#191970" stroke="#191970" points="110.6232,-46.2599 100.1779,-48.0337 109.4495,-53.1608 110.6232,-46.2599"/>
</g>
<!-- Node13 -->
<g id="node4" class="node">
<title>Node13</title>
<g id="a_node4"><a xlink:href="classL4virtio_1_1Svr_1_1Request__processor.html#a0bb9280caa7b899486ccd83bcf0588cd" target="_top" xlink:title="Switch to the next descriptor in a descriptor chain. ">
<polygon fill="#ffffff" stroke="#000000" points="139.5,-.5 139.5,-30.5 254.5,-30.5 254.5,-.5 139.5,-.5"/>
<text text-anchor="start" x="147.5" y="-18.5" font-family="Helvetica,sans-Serif" font-size="10.00" fill="#000000">L4virtio::Svr::Request</text>
<text text-anchor="middle" x="197" y="-7.5" font-family="Helvetica,sans-Serif" font-size="10.00" fill="#000000">_processor::next</text>
</a>
</g>
</g>
<!-- Node10&#45;&gt;Node13 -->
<g id="edge3" class="edge">
<title>Node10&#45;&gt;Node13</title>
<path fill="none" stroke="#191970" d="M110.1312,-29.6827C119.8222,-28.1005 129.834,-26.4659 139.4619,-24.894"/>
<polygon fill="#191970" stroke="#191970" points="109.4833,-26.242 100.1779,-31.3077 110.6112,-33.1506 109.4833,-26.242"/>
</g>
<!-- Node12 -->
<g id="node3" class="node">
<title>Node12</title>
<g id="a_node3"><a xlink:href="classL4virtio_1_1Svr_1_1Block__request.html#a5f6bf664cda7dfe4f82d8726f6c33099" target="_top" xlink:title="Compute the total size of the data in the request. ">
<polygon fill="#ffffff" stroke="#000000" points="294,-24.5 294,-54.5 402,-54.5 402,-24.5 294,-24.5"/>
<text text-anchor="start" x="302" y="-42.5" font-family="Helvetica,sans-Serif" font-size="10.00" fill="#000000">L4virtio::Svr::Block</text>
<text text-anchor="middle" x="348" y="-31.5" font-family="Helvetica,sans-Serif" font-size="10.00" fill="#000000">_request::data_size</text>
</a>
</g>
</g>
<!-- Node11&#45;&gt;Node12 -->
<g id="edge2" class="edge">
<title>Node11&#45;&gt;Node12</title>
<path fill="none" stroke="#191970" d="M268.4235,-52.6749C276.9974,-51.2554 285.6416,-49.8242 293.912,-48.455"/>
<polygon fill="#191970" stroke="#191970" points="267.7115,-49.2451 258.4175,-54.3315 268.8549,-56.1511 267.7115,-49.2451"/>
</g>
<!-- Node13&#45;&gt;Node12 -->
<g id="edge4" class="edge">
<title>Node13&#45;&gt;Node12</title>
<path fill="none" stroke="#191970" d="M264.5638,-26.2386C274.2925,-27.7849 284.1989,-29.3594 293.6272,-30.858"/>
<polygon fill="#191970" stroke="#191970" points="264.9428,-22.755 254.5174,-24.6418 263.844,-29.6682 264.9428,-22.755"/>
</g>
</g>
</svg>
