<?xml version="1.0" encoding="UTF-8" standalone="no"?>
<!DOCTYPE svg PUBLIC "-//W3C//DTD SVG 1.1//EN"
 "http://www.w3.org/Graphics/SVG/1.1/DTD/svg11.dtd">
<!-- Generated by graphviz version 2.40.1 (20161225.0304)
 -->
<!-- Title: L4::Irq_mux Pages: 1 -->
<svg width="312pt" height="565pt"
 viewBox="0.00 0.00 311.50 565.00" xmlns="http://www.w3.org/2000/svg" xmlns:xlink="http://www.w3.org/1999/xlink">
<g id="graph0" class="graph" transform="scale(1 1) rotate(0) translate(4 561)">
<title>L4::Irq_mux</title>
<polygon fill="#ffffff" stroke="transparent" points="-4,4 -4,-561 307.5,-561 307.5,4 -4,4"/>
<!-- Node0 -->
<g id="node1" class="node">
<title>Node0</title>
<polygon fill="#bfbfbf" stroke="#000000" points="125,-.5 125,-57.5 196,-57.5 196,-.5 125,-.5"/>
<text text-anchor="middle" x="160.5" y="-45.5" font-family="Helvetica,sans-Serif" font-size="10.00" fill="#000000">L4::Irq_mux</text>
<polyline fill="none" stroke="#000000" points="125,-38.5 196,-38.5 "/>
<text text-anchor="middle" x="160.5" y="-26.5" font-family="Helvetica,sans-Serif" font-size="10.00" fill="#000000"> </text>
<polyline fill="none" stroke="#000000" points="125,-19.5 196,-19.5 "/>
<text text-anchor="start" x="133" y="-7.5" font-family="Helvetica,sans-Serif" font-size="10.00" fill="#000000">+ chain()</text>
</g>
<!-- Node1 -->
<g id="node2" class="node">
<title>Node1</title>
<g id="a_node2"><a xlink:href="classL4_1_1Kobject__t.html" target="_top" xlink:title="{L4::Kobject_t\&lt; Irq\l_mux, Triggerable, L4\l_PROTO_IRQ_MUX \&gt;\n||# c()\l# __check_protocols__()\l}">
<polygon fill="#ffffff" stroke="#000000" points="93.5,-95.5 93.5,-185.5 227.5,-185.5 227.5,-95.5 93.5,-95.5"/>
<text text-anchor="start" x="101.5" y="-173.5" font-family="Helvetica,sans-Serif" font-size="10.00" fill="#000000">L4::Kobject_t&lt; Irq</text>
<text text-anchor="start" x="101.5" y="-162.5" font-family="Helvetica,sans-Serif" font-size="10.00" fill="#000000">_mux, Triggerable, L4</text>
<text text-anchor="middle" x="160.5" y="-151.5" font-family="Helvetica,sans-Serif" font-size="10.00" fill="#000000">_PROTO_IRQ_MUX &gt;</text>
<polyline fill="none" stroke="#000000" points="93.5,-144.5 227.5,-144.5 "/>
<text text-anchor="middle" x="160.5" y="-132.5" font-family="Helvetica,sans-Serif" font-size="10.00" fill="#000000"> </text>
<polyline fill="none" stroke="#000000" points="93.5,-125.5 227.5,-125.5 "/>
<text text-anchor="start" x="101.5" y="-113.5" font-family="Helvetica,sans-Serif" font-size="10.00" fill="#000000"># c()</text>
<text text-anchor="start" x="101.5" y="-102.5" font-family="Helvetica,sans-Serif" font-size="10.00" fill="#000000"># __check_protocols__()</text>
</a>
</g>
</g>
<!-- Node1&#45;&gt;Node0 -->
<g id="edge1" class="edge">
<title>Node1&#45;&gt;Node0</title>
<path fill="none" stroke="#191970" d="M160.5,-85.452C160.5,-75.7821 160.5,-66.0841 160.5,-57.5218"/>
<polygon fill="none" stroke="#191970" points="157.0001,-85.47 160.5,-95.4701 164.0001,-85.4701 157.0001,-85.47"/>
</g>
<!-- Node2 -->
<g id="node3" class="node">
<title>Node2</title>
<g id="a_node3"><a xlink:href="structL4_1_1Triggerable.html" target="_top" xlink:title="Interface that allows an object to be triggered by some source. ">
<polygon fill="#ffffff" stroke="#000000" points="74,-223.5 74,-280.5 161,-280.5 161,-223.5 74,-223.5"/>
<text text-anchor="middle" x="117.5" y="-268.5" font-family="Helvetica,sans-Serif" font-size="10.00" fill="#000000">L4::Triggerable</text>
<polyline fill="none" stroke="#000000" points="74,-261.5 161,-261.5 "/>
<text text-anchor="middle" x="117.5" y="-249.5" font-family="Helvetica,sans-Serif" font-size="10.00" fill="#000000"> </text>
<polyline fill="none" stroke="#000000" points="74,-242.5 161,-242.5 "/>
<text text-anchor="start" x="82" y="-230.5" font-family="Helvetica,sans-Serif" font-size="10.00" fill="#000000">+ trigger()</text>
</a>
</g>
</g>
<!-- Node2&#45;&gt;Node1 -->
<g id="edge2" class="edge">
<title>Node2&#45;&gt;Node1</title>
<path fill="none" stroke="#191970" d="M132.2479,-213.7583C135.7488,-204.6804 139.5156,-194.9131 143.1216,-185.5626"/>
<polygon fill="none" stroke="#191970" points="128.9063,-212.6964 128.5736,-223.286 135.4374,-215.2151 128.9063,-212.6964"/>
</g>
<!-- Node3 -->
<g id="node4" class="node">
<title>Node3</title>
<g id="a_node4"><a xlink:href="classL4_1_1Kobject__t.html" target="_top" xlink:title="{L4::Kobject_t\&lt; Triggerable,\l Irq_eoi, L4_PROTO_IRQ \&gt;\n||# c()\l# __check_protocols__()\l}">
<polygon fill="#ffffff" stroke="#000000" points="0,-339.5 0,-418.5 147,-418.5 147,-339.5 0,-339.5"/>
<text text-anchor="start" x="8" y="-406.5" font-family="Helvetica,sans-Serif" font-size="10.00" fill="#000000">L4::Kobject_t&lt; Triggerable,</text>
<text text-anchor="middle" x="73.5" y="-395.5" font-family="Helvetica,sans-Serif" font-size="10.00" fill="#000000"> Irq_eoi, L4_PROTO_IRQ &gt;</text>
<polyline fill="none" stroke="#000000" points="0,-388.5 147,-388.5 "/>
<text text-anchor="middle" x="73.5" y="-376.5" font-family="Helvetica,sans-Serif" font-size="10.00" fill="#000000"> </text>
<polyline fill="none" stroke="#000000" points="0,-369.5 147,-369.5 "/>
<text text-anchor="start" x="8" y="-357.5" font-family="Helvetica,sans-Serif" font-size="10.00" fill="#000000"># c()</text>
<text text-anchor="start" x="8" y="-346.5" font-family="Helvetica,sans-Serif" font-size="10.00" fill="#000000"># __check_protocols__()</text>
</a>
</g>
</g>
<!-- Node3&#45;&gt;Node2 -->
<g id="edge3" class="edge">
<title>Node3&#45;&gt;Node2</title>
<path fill="none" stroke="#191970" d="M90.6052,-329.6282C96.3296,-313.1056 102.5196,-295.2387 107.5166,-280.8158"/>
<polygon fill="none" stroke="#191970" points="87.2677,-328.5701 87.3012,-339.1649 93.882,-330.8617 87.2677,-328.5701"/>
</g>
<!-- Node4 -->
<g id="node5" class="node">
<title>Node4</title>
<g id="a_node5"><a xlink:href="classL4_1_1Irq__eoi.html" target="_top" xlink:title="Interface for sending an acknowledge message to an object. ">
<polygon fill="#ffffff" stroke="#000000" points="5.5,-488.5 5.5,-545.5 75.5,-545.5 75.5,-488.5 5.5,-488.5"/>
<text text-anchor="middle" x="40.5" y="-533.5" font-family="Helvetica,sans-Serif" font-size="10.00" fill="#000000">L4::Irq_eoi</text>
<polyline fill="none" stroke="#000000" points="5.5,-526.5 75.5,-526.5 "/>
<text text-anchor="middle" x="40.5" y="-514.5" font-family="Helvetica,sans-Serif" font-size="10.00" fill="#000000"> </text>
<polyline fill="none" stroke="#000000" points="5.5,-507.5 75.5,-507.5 "/>
<text text-anchor="start" x="13.5" y="-495.5" font-family="Helvetica,sans-Serif" font-size="10.00" fill="#000000">+ unmask()</text>
</a>
</g>
</g>
<!-- Node4&#45;&gt;Node3 -->
<g id="edge4" class="edge">
<title>Node4&#45;&gt;Node3</title>
<path fill="none" stroke="#191970" d="M46.1518,-478.1307C48.3675,-464.9846 51.1819,-450.2763 54.5,-437 55.9901,-431.0377 57.7803,-424.7999 59.6581,-418.7175"/>
<polygon fill="none" stroke="#191970" points="42.6516,-477.8502 44.5049,-488.2816 49.5612,-478.9712 42.6516,-477.8502"/>
</g>
<!-- Node5 -->
<g id="node6" class="node">
<title>Node5</title>
<g id="a_node6"><a xlink:href="classL4_1_1Kobject__t.html" target="_top" xlink:title="Helper class to create an L4Re interface class that is derived from a single base class...">
<polygon fill="#ffffff" stroke="#000000" points="108.5,-477.5 108.5,-556.5 266.5,-556.5 266.5,-477.5 108.5,-477.5"/>
<text text-anchor="start" x="116.5" y="-544.5" font-family="Helvetica,sans-Serif" font-size="10.00" fill="#000000">L4::Kobject_t&lt; Derived,</text>
<text text-anchor="middle" x="187.5" y="-533.5" font-family="Helvetica,sans-Serif" font-size="10.00" fill="#000000"> Base, PROTO, S_DEMAND &gt;</text>
<polyline fill="none" stroke="#000000" points="108.5,-526.5 266.5,-526.5 "/>
<text text-anchor="middle" x="187.5" y="-514.5" font-family="Helvetica,sans-Serif" font-size="10.00" fill="#000000"> </text>
<polyline fill="none" stroke="#000000" points="108.5,-507.5 266.5,-507.5 "/>
<text text-anchor="start" x="116.5" y="-495.5" font-family="Helvetica,sans-Serif" font-size="10.00" fill="#000000"># c()</text>
<text text-anchor="start" x="116.5" y="-484.5" font-family="Helvetica,sans-Serif" font-size="10.00" fill="#000000"># __check_protocols__()</text>
</a>
</g>
</g>
<!-- Node5&#45;&gt;Node1 -->
<g id="edge6" class="edge">
<title>Node5&#45;&gt;Node1</title>
<path fill="none" stroke="#ffa500" d="M189.8521,-466.9581C190.0083,-457.0286 189.9515,-446.6822 189.5,-437 185.3324,-347.6192 173.5538,-243.6364 166.3543,-185.6056"/>
<polygon fill="#ffa500" stroke="#ffa500" points="186.3496,-467.0321 189.6198,-477.1096 193.3478,-467.1923 186.3496,-467.0321"/>
<text text-anchor="start" x="181.5" y="-313" font-family="Helvetica,sans-Serif" font-size="10.00" fill="#000000"> &lt; Irq_mux, Triggerable,</text>
<text text-anchor="middle" x="242.5" y="-302" font-family="Helvetica,sans-Serif" font-size="10.00" fill="#000000"> L4_PROTO_IRQ_MUX &gt;</text>
</g>
<!-- Node5&#45;&gt;Node3 -->
<g id="edge5" class="edge">
<title>Node5&#45;&gt;Node3</title>
<path fill="none" stroke="#ffa500" d="M99.7595,-484.98C89.7693,-477.8925 80.8952,-469.3254 74.5,-459 67.1862,-447.1916 65.4337,-432.4014 66.0137,-418.7609"/>
<polygon fill="#ffa500" stroke="#ffa500" points="98.0931,-488.0715 108.3839,-490.5917 101.9109,-482.2041 98.0931,-488.0715"/>
<text text-anchor="start" x="74.5" y="-451" font-family="Helvetica,sans-Serif" font-size="10.00" fill="#000000"> &lt; Triggerable, Irq</text>
<text text-anchor="middle" x="132" y="-440" font-family="Helvetica,sans-Serif" font-size="10.00" fill="#000000">_eoi, L4_PROTO_IRQ &gt;</text>
</g>
</g>
</svg>
