<?xml version="1.0" encoding="UTF-8" standalone="no"?>
<!DOCTYPE svg PUBLIC "-//W3C//DTD SVG 1.1//EN"
 "http://www.w3.org/Graphics/SVG/1.1/DTD/svg11.dtd">
<!-- Generated by graphviz version 2.40.1 (20161225.0304)
 -->
<!-- Title: l4_msgtag_t::flags Pages: 1 -->
<svg width="715pt" height="442pt"
 viewBox="0.00 0.00 715.00 442.00" xmlns="http://www.w3.org/2000/svg" xmlns:xlink="http://www.w3.org/1999/xlink">
<g id="graph0" class="graph" transform="scale(1 1) rotate(0) translate(4 438)">
<title>l4_msgtag_t::flags</title>
<polygon fill="#ffffff" stroke="transparent" points="-4,4 -4,-438 711,-438 711,4 -4,4"/>
<!-- Node1 -->
<g id="node1" class="node">
<title>Node1</title>
<polygon fill="#bfbfbf" stroke="#000000" points="0,-205.5 0,-224.5 101,-224.5 101,-205.5 0,-205.5"/>
<text text-anchor="middle" x="50.5" y="-212.5" font-family="Helvetica,sans-Serif" font-size="10.00" fill="#000000">l4_msgtag_t::flags</text>
</g>
<!-- Node2 -->
<g id="node2" class="node">
<title>Node2</title>
<g id="a_node2"><a xlink:href="structl4__msgtag__t.html#a09c8212b870e6c144fd072dbde5b5262" target="_top" xlink:title="Test if flags indicate an error. ">
<polygon fill="#ffffff" stroke="#000000" points="243,-300.5 243,-319.5 368,-319.5 368,-300.5 243,-300.5"/>
<text text-anchor="middle" x="305.5" y="-307.5" font-family="Helvetica,sans-Serif" font-size="10.00" fill="#000000">l4_msgtag_t::has_error</text>
</a>
</g>
</g>
<!-- Node1&#45;&gt;Node2 -->
<g id="edge1" class="edge">
<title>Node1&#45;&gt;Node2</title>
<path fill="none" stroke="#191970" d="M85.8545,-228.1713C137.9627,-247.5842 234.1491,-283.4183 279.9566,-300.4838"/>
<polygon fill="#191970" stroke="#191970" points="86.9468,-224.8433 76.3541,-224.6319 84.503,-231.4029 86.9468,-224.8433"/>
</g>
<!-- Node9 -->
<g id="node9" class="node">
<title>Node9</title>
<g id="a_node9"><a xlink:href="group__l4__msgtag__api.html#ga661d71acad9d096fa990f7c94943bc78" target="_top" xlink:title="Create a message tag from the specified values. ">
<polygon fill="#ffffff" stroke="#000000" points="137,-186.5 137,-205.5 202,-205.5 202,-186.5 137,-186.5"/>
<text text-anchor="middle" x="169.5" y="-193.5" font-family="Helvetica,sans-Serif" font-size="10.00" fill="#000000">l4_msgtag</text>
</a>
</g>
</g>
<!-- Node1&#45;&gt;Node9 -->
<g id="edge8" class="edge">
<title>Node1&#45;&gt;Node9</title>
<path fill="none" stroke="#191970" d="M111.2248,-205.3044C120.0277,-203.8989 128.7949,-202.4991 136.7552,-201.2282"/>
<polygon fill="#191970" stroke="#191970" points="110.6349,-201.8542 101.3119,-206.8872 111.7387,-208.7666 110.6349,-201.8542"/>
</g>
<!-- Node3 -->
<g id="node3" class="node">
<title>Node3</title>
<g id="a_node3"><a xlink:href="namespaceL4.html#aba0849c4b92afdccbe110489e18dadbd" target="_top" xlink:title="Throw an L4 IPC error as exception. ">
<polygon fill="#ffffff" stroke="#000000" points="409,-414.5 409,-433.5 540,-433.5 540,-414.5 409,-414.5"/>
<text text-anchor="middle" x="474.5" y="-421.5" font-family="Helvetica,sans-Serif" font-size="10.00" fill="#000000">L4::throw_ipc_exception</text>
</a>
</g>
</g>
<!-- Node2&#45;&gt;Node3 -->
<g id="edge2" class="edge">
<title>Node2&#45;&gt;Node3</title>
<path fill="none" stroke="#191970" d="M319.76,-327.2733C338.2254,-348.5546 372.406,-384.4122 409,-405 415.8107,-408.8317 423.4633,-411.9506 431.0709,-414.4695"/>
<polygon fill="#191970" stroke="#191970" points="322.4127,-324.9899 313.2684,-319.6389 317.0799,-329.5244 322.4127,-324.9899"/>
</g>
<!-- Node5 -->
<g id="node5" class="node">
<title>Node5</title>
<g id="a_node5"><a xlink:href="namespaceL4Re.html#ae0dd5d25abdc1d195edd8ab6b744334c" target="_top" xlink:title="Generate C++ exception on error. ">
<polygon fill="#ffffff" stroke="#000000" points="435,-376.5 435,-395.5 514,-395.5 514,-376.5 435,-376.5"/>
<text text-anchor="middle" x="474.5" y="-383.5" font-family="Helvetica,sans-Serif" font-size="10.00" fill="#000000">L4Re::chksys</text>
</a>
</g>
</g>
<!-- Node2&#45;&gt;Node5 -->
<g id="edge4" class="edge">
<title>Node2&#45;&gt;Node5</title>
<path fill="none" stroke="#191970" d="M329.0546,-324.9435C349.5617,-337.4668 380.4052,-355.1501 409,-367 417.6412,-370.581 427.1868,-373.7612 436.2556,-376.447"/>
<polygon fill="#191970" stroke="#191970" points="330.7505,-321.877 320.405,-319.5921 327.0676,-327.8299 330.7505,-321.877"/>
</g>
<!-- Node6 -->
<g id="node6" class="node">
<title>Node6</title>
<g id="a_node6"><a xlink:href="namespaceL4Re.html#ae21329b88c6ffc4917048e8d9564ea99" target="_top" xlink:title="Test a message tag for IPC errors. ">
<polygon fill="#ffffff" stroke="#000000" points="436,-338.5 436,-357.5 513,-357.5 513,-338.5 436,-338.5"/>
<text text-anchor="middle" x="474.5" y="-345.5" font-family="Helvetica,sans-Serif" font-size="10.00" fill="#000000">L4Re::chkipc</text>
</a>
</g>
</g>
<!-- Node2&#45;&gt;Node6 -->
<g id="edge5" class="edge">
<title>Node2&#45;&gt;Node6</title>
<path fill="none" stroke="#191970" d="M357.9219,-321.7872C383.1294,-327.4551 412.8094,-334.1287 435.9134,-339.3237"/>
<polygon fill="#191970" stroke="#191970" points="358.6701,-318.3681 348.1458,-319.589 357.1344,-325.1976 358.6701,-318.3681"/>
</g>
<!-- Node7 -->
<g id="node7" class="node">
<title>Node7</title>
<g id="a_node7"><a xlink:href="classL4_1_1Server.html#a4333dc750dee494087ee92ab058718a1" target="_top" xlink:title="Internal implementation for reply and wait. ">
<polygon fill="#ffffff" stroke="#000000" points="410,-300.5 410,-319.5 539,-319.5 539,-300.5 410,-300.5"/>
<text text-anchor="middle" x="474.5" y="-307.5" font-family="Helvetica,sans-Serif" font-size="10.00" fill="#000000">L4::Server::reply_n_wait</text>
</a>
</g>
</g>
<!-- Node2&#45;&gt;Node7 -->
<g id="edge6" class="edge">
<title>Node2&#45;&gt;Node7</title>
<path fill="none" stroke="#191970" d="M378.689,-310C389.0493,-310 399.6405,-310 409.8246,-310"/>
<polygon fill="#191970" stroke="#191970" points="378.4294,-306.5001 368.4294,-310 378.4293,-313.5001 378.4294,-306.5001"/>
</g>
<!-- Node8 -->
<g id="node8" class="node">
<title>Node8</title>
<g id="a_node8"><a xlink:href="classL4_1_1Server.html#ac0965dc536f1df5dfe0be1b224feab89" target="_top" xlink:title="The server loop. ">
<polygon fill="#ffffff" stroke="#000000" points="409,-262.5 409,-281.5 540,-281.5 540,-262.5 409,-262.5"/>
<text text-anchor="middle" x="474.5" y="-269.5" font-family="Helvetica,sans-Serif" font-size="10.00" fill="#000000">L4::Server::internal_loop</text>
</a>
</g>
</g>
<!-- Node2&#45;&gt;Node8 -->
<g id="edge7" class="edge">
<title>Node2&#45;&gt;Node8</title>
<path fill="none" stroke="#191970" d="M358.0869,-298.1757C381.9129,-292.8184 409.7069,-286.5689 432.1608,-281.5201"/>
<polygon fill="#191970" stroke="#191970" points="357.1344,-294.8024 348.1458,-300.411 358.6701,-301.6319 357.1344,-294.8024"/>
</g>
<!-- Node4 -->
<g id="node4" class="node">
<title>Node4</title>
<g id="a_node4"><a xlink:href="namespaceL4.html#a54f8da0e02ff2496f1ad935e38ab17c4" target="_top" xlink:title="Throw an L4 IPC error as exception. ">
<polygon fill="#ffffff" stroke="#000000" points="576,-414.5 576,-433.5 707,-433.5 707,-414.5 576,-414.5"/>
<text text-anchor="middle" x="641.5" y="-421.5" font-family="Helvetica,sans-Serif" font-size="10.00" fill="#000000">L4::throw_ipc_exception</text>
</a>
</g>
</g>
<!-- Node3&#45;&gt;Node4 -->
<g id="edge3" class="edge">
<title>Node3&#45;&gt;Node4</title>
<path fill="none" stroke="#191970" d="M550.0663,-424C558.6848,-424 567.4171,-424 575.8913,-424"/>
<polygon fill="#191970" stroke="#191970" points="550.0235,-420.5001 540.0235,-424 550.0235,-427.5001 550.0235,-420.5001"/>
</g>
<!-- Node9&#45;&gt;Node2 -->
<g id="edge9" class="edge">
<title>Node9&#45;&gt;Node2</title>
<path fill="none" stroke="#191970" d="M179.216,-214.4716C190.7267,-234.6925 211.7018,-266.7886 238,-286 246.4362,-292.1628 256.6036,-296.8653 266.4578,-300.4022"/>
<polygon fill="#191970" stroke="#191970" points="182.2279,-212.685 174.3438,-205.6074 176.0935,-216.0568 182.2279,-212.685"/>
</g>
<!-- Node9&#45;&gt;Node8 -->
<g id="edge10" class="edge">
<title>Node9&#45;&gt;Node8</title>
<path fill="none" stroke="#191970" d="M184.6207,-213.4209C197.3724,-226.7978 216.882,-244.391 238,-253 292.5453,-275.236 359.9477,-278.5587 408.8237,-277.1596"/>
<polygon fill="#191970" stroke="#191970" points="186.9352,-210.7659 177.6002,-205.7549 181.7728,-215.4935 186.9352,-210.7659"/>
</g>
<!-- Node10 -->
<g id="node10" class="node">
<title>Node10</title>
<g id="a_node10"><a xlink:href="group__l4__irq__api.html#ga180cfaf342ce9ff484a6aa7c276e1597" target="_top" xlink:title="Trigger. ">
<polygon fill="#ffffff" stroke="#000000" points="260,-224.5 260,-243.5 351,-243.5 351,-224.5 260,-224.5"/>
<text text-anchor="middle" x="305.5" y="-231.5" font-family="Helvetica,sans-Serif" font-size="10.00" fill="#000000">l4_irq_trigger_u</text>
</a>
</g>
</g>
<!-- Node9&#45;&gt;Node10 -->
<g id="edge11" class="edge">
<title>Node9&#45;&gt;Node10</title>
<path fill="none" stroke="#191970" d="M211.7538,-207.8062C230.8938,-213.1542 253.2266,-219.3942 271.2926,-224.442"/>
<polygon fill="#191970" stroke="#191970" points="212.6484,-204.4222 202.0754,-205.1019 210.7646,-211.164 212.6484,-204.4222"/>
</g>
<!-- Node14 -->
<g id="node14" class="node">
<title>Node14</title>
<g id="a_node14"><a xlink:href="x86_2l4f_2l4_2util_2port__io_8h.html#a38a37fdbed4dd2dca75ce192d506a2d4" target="_top" xlink:title="Map a range of I/O ports. ">
<polygon fill="#ffffff" stroke="#000000" points="257,-186.5 257,-205.5 354,-205.5 354,-186.5 257,-186.5"/>
<text text-anchor="middle" x="305.5" y="-193.5" font-family="Helvetica,sans-Serif" font-size="10.00" fill="#000000">l4util_ioport_map</text>
</a>
</g>
</g>
<!-- Node9&#45;&gt;Node14 -->
<g id="edge15" class="edge">
<title>Node9&#45;&gt;Node14</title>
<path fill="none" stroke="#191970" d="M212.0928,-196C226.3313,-196 242.3056,-196 256.9626,-196"/>
<polygon fill="#191970" stroke="#191970" points="212.0754,-192.5001 202.0754,-196 212.0754,-199.5001 212.0754,-192.5001"/>
</g>
<!-- Node15 -->
<g id="node15" class="node">
<title>Node15</title>
<g id="a_node15"><a xlink:href="classL4_1_1Thread.html#a9bcade7e8db8d775cc1f2a2a6225c845" target="_top" xlink:title="Apply sender modification rules. ">
<polygon fill="#ffffff" stroke="#000000" points="254,-137 254,-167 357,-167 357,-137 254,-137"/>
<text text-anchor="start" x="262" y="-155" font-family="Helvetica,sans-Serif" font-size="10.00" fill="#000000">L4::Thread::modify</text>
<text text-anchor="middle" x="305.5" y="-144" font-family="Helvetica,sans-Serif" font-size="10.00" fill="#000000">_senders</text>
</a>
</g>
</g>
<!-- Node9&#45;&gt;Node15 -->
<g id="edge16" class="edge">
<title>Node9&#45;&gt;Node15</title>
<path fill="none" stroke="#191970" d="M208.8893,-183.2564C224.5329,-178.1952 242.6473,-172.3347 258.9343,-167.0654"/>
<polygon fill="#191970" stroke="#191970" points="207.447,-180.0443 199.01,-186.4527 209.6018,-186.7044 207.447,-180.0443"/>
</g>
<!-- Node17 -->
<g id="node17" class="node">
<title>Node17</title>
<g id="a_node17"><a xlink:href="structL4_1_1Irqep__t.html#ae85f0bf482d9ad400c55e8d8a8c9451a" target="_top" xlink:title="Get the (typed) capability to this object. ">
<polygon fill="#ffffff" stroke="#000000" points="244.5,-88 244.5,-118 366.5,-118 366.5,-88 244.5,-88"/>
<text text-anchor="start" x="252.5" y="-106" font-family="Helvetica,sans-Serif" font-size="10.00" fill="#000000">L4::Irqep_t&lt; Irq_object</text>
<text text-anchor="middle" x="305.5" y="-95" font-family="Helvetica,sans-Serif" font-size="10.00" fill="#000000"> &gt;::obj_cap</text>
</a>
</g>
</g>
<!-- Node9&#45;&gt;Node17 -->
<g id="edge18" class="edge">
<title>Node9&#45;&gt;Node17</title>
<path fill="none" stroke="#191970" d="M183.4678,-177.9372C196.2107,-162.5328 216.3145,-140.7571 238,-127 243.2512,-123.6687 249.026,-120.7231 254.9197,-118.1398"/>
<polygon fill="#191970" stroke="#191970" points="180.3943,-176.1745 176.8592,-186.1621 185.8511,-180.5589 180.3943,-176.1745"/>
</g>
<!-- Node18 -->
<g id="node18" class="node">
<title>Node18</title>
<g id="a_node18"><a xlink:href="structL4_1_1Ipc__svr_1_1Exc__dispatch.html#a551ccfbe372009fa7319689dedfc4ded" target="_top" xlink:title="Dispatch the call via Direct_dispatch&lt;R&gt;() and handle exceptions. ">
<polygon fill="#ffffff" stroke="#000000" points="238,-39 238,-69 373,-69 373,-39 238,-39"/>
<text text-anchor="start" x="246" y="-57" font-family="Helvetica,sans-Serif" font-size="10.00" fill="#000000">L4::Ipc_svr::Exc_dispatch</text>
<text text-anchor="middle" x="305.5" y="-46" font-family="Helvetica,sans-Serif" font-size="10.00" fill="#000000">::operator()</text>
</a>
</g>
</g>
<!-- Node9&#45;&gt;Node18 -->
<g id="edge19" class="edge">
<title>Node9&#45;&gt;Node18</title>
<path fill="none" stroke="#191970" d="M175.8851,-176.7287C185.4281,-150.7678 205.8119,-104.7409 238,-78 242.1137,-74.5825 246.7499,-71.6359 251.6169,-69.0984"/>
<polygon fill="#191970" stroke="#191970" points="172.5654,-175.6187 172.5555,-186.2136 179.1703,-177.9374 172.5654,-175.6187"/>
</g>
<!-- Node19 -->
<g id="node19" class="node">
<title>Node19</title>
<g id="a_node19"><a xlink:href="classL4_1_1Ipc_1_1Ostream.html#aef4ef51d0dbf137e37e854237e498dd7" target="_top" xlink:title="Return utcb pointer. ">
<polygon fill="#ffffff" stroke="#000000" points="247.5,-.5 247.5,-19.5 363.5,-19.5 363.5,-.5 247.5,-.5"/>
<text text-anchor="middle" x="305.5" y="-7.5" font-family="Helvetica,sans-Serif" font-size="10.00" fill="#000000">L4::Ipc::Ostream::utcb</text>
</a>
</g>
</g>
<!-- Node9&#45;&gt;Node19 -->
<g id="edge20" class="edge">
<title>Node9&#45;&gt;Node19</title>
<path fill="none" stroke="#191970" d="M171.985,-176.0854C177.4217,-141.0883 193.6514,-68.526 238,-29 242.3624,-25.112 247.462,-22.014 252.8689,-19.5464"/>
<polygon fill="#191970" stroke="#191970" points="168.4595,-176.0213 170.5299,-186.4118 175.391,-176.998 168.4595,-176.0213"/>
</g>
<!-- Node11 -->
<g id="node11" class="node">
<title>Node11</title>
<g id="a_node11"><a xlink:href="group__l4__irq__api.html#gab24e0fc21a207fd566ece1e6fafbac48" target="_top" xlink:title="Trigger an IRQ. ">
<polygon fill="#ffffff" stroke="#000000" points="434.5,-224.5 434.5,-243.5 514.5,-243.5 514.5,-224.5 434.5,-224.5"/>
<text text-anchor="middle" x="474.5" y="-231.5" font-family="Helvetica,sans-Serif" font-size="10.00" fill="#000000">l4_irq_trigger</text>
</a>
</g>
</g>
<!-- Node10&#45;&gt;Node11 -->
<g id="edge12" class="edge">
<title>Node10&#45;&gt;Node11</title>
<path fill="none" stroke="#191970" d="M361.2515,-234C385.1868,-234 412.6159,-234 434.4845,-234"/>
<polygon fill="#191970" stroke="#191970" points="361.2339,-230.5001 351.2338,-234 361.2338,-237.5001 361.2339,-230.5001"/>
</g>
<!-- Node12 -->
<g id="node12" class="node">
<title>Node12</title>
<g id="a_node12"><a xlink:href="structL4_1_1Triggerable.html#a7109ca8b4aeac0169639f973c91a3a6b" target="_top" xlink:title="Trigger. ">
<polygon fill="#ffffff" stroke="#000000" points="413.5,-186.5 413.5,-205.5 535.5,-205.5 535.5,-186.5 413.5,-186.5"/>
<text text-anchor="middle" x="474.5" y="-193.5" font-family="Helvetica,sans-Serif" font-size="10.00" fill="#000000">L4::Triggerable::trigger</text>
</a>
</g>
</g>
<!-- Node10&#45;&gt;Node12 -->
<g id="edge13" class="edge">
<title>Node10&#45;&gt;Node12</title>
<path fill="none" stroke="#191970" d="M358.0869,-222.1757C381.9129,-216.8184 409.7069,-210.5689 432.1608,-205.5201"/>
<polygon fill="#191970" stroke="#191970" points="357.1344,-218.8024 348.1458,-224.411 358.6701,-225.6319 357.1344,-218.8024"/>
</g>
<!-- Node13 -->
<g id="node13" class="node">
<title>Node13</title>
<g id="a_node13"><a xlink:href="structL4_1_1Semaphore.html#a3de7e4e35ff4dadab9a26f3b87fb76bc" target="_top" xlink:title="Semaphore up operation (wrapper for trigger()). ">
<polygon fill="#ffffff" stroke="#000000" points="589.5,-186.5 589.5,-205.5 693.5,-205.5 693.5,-186.5 589.5,-186.5"/>
<text text-anchor="middle" x="641.5" y="-193.5" font-family="Helvetica,sans-Serif" font-size="10.00" fill="#000000">L4::Semaphore::up</text>
</a>
</g>
</g>
<!-- Node12&#45;&gt;Node13 -->
<g id="edge14" class="edge">
<title>Node12&#45;&gt;Node13</title>
<path fill="none" stroke="#191970" d="M545.7602,-196C560.3902,-196 575.5326,-196 589.3382,-196"/>
<polygon fill="#191970" stroke="#191970" points="545.7364,-192.5001 535.7364,-196 545.7363,-199.5001 545.7364,-192.5001"/>
</g>
<!-- Node16 -->
<g id="node16" class="node">
<title>Node16</title>
<g id="a_node16"><a xlink:href="classL4Re_1_1Util_1_1Object__registry.html#aeeea59583ffddfef4e7c1c3e6eed41b6" target="_top" xlink:title="Remove a server object from the handler list. ">
<polygon fill="#ffffff" stroke="#000000" points="410,-137 410,-167 539,-167 539,-137 410,-137"/>
<text text-anchor="start" x="418" y="-155" font-family="Helvetica,sans-Serif" font-size="10.00" fill="#000000">L4Re::Util::Object</text>
<text text-anchor="middle" x="474.5" y="-144" font-family="Helvetica,sans-Serif" font-size="10.00" fill="#000000">_registry::unregister_obj</text>
</a>
</g>
</g>
<!-- Node15&#45;&gt;Node16 -->
<g id="edge17" class="edge">
<title>Node15&#45;&gt;Node16</title>
<path fill="none" stroke="#191970" d="M367.4603,-152C381.2318,-152 395.8651,-152 409.7454,-152"/>
<polygon fill="#191970" stroke="#191970" points="367.1239,-148.5001 357.1239,-152 367.1238,-155.5001 367.1239,-148.5001"/>
</g>
</g>
</svg>
