<?xml version="1.0" encoding="UTF-8" standalone="no"?>
<!DOCTYPE svg PUBLIC "-//W3C//DTD SVG 1.1//EN"
 "http://www.w3.org/Graphics/SVG/1.1/DTD/svg11.dtd">
<!-- Generated by graphviz version 2.40.1 (20161225.0304)
 -->
<!-- Title: L4::Ipc::Msg::Dir_in Pages: 1 -->
<svg width="390pt" height="171pt"
 viewBox="0.00 0.00 389.50 171.00" xmlns="http://www.w3.org/2000/svg" xmlns:xlink="http://www.w3.org/1999/xlink">
<g id="graph0" class="graph" transform="scale(1 1) rotate(0) translate(4 167)">
<title>L4::Ipc::Msg::Dir_in</title>
<polygon fill="#ffffff" stroke="transparent" points="-4,4 -4,-167 385.5,-167 385.5,4 -4,4"/>
<!-- Node0 -->
<g id="node1" class="node">
<title>Node0</title>
<polygon fill="#bfbfbf" stroke="#000000" points="149.5,-105.5 149.5,-162.5 253.5,-162.5 253.5,-105.5 149.5,-105.5"/>
<text text-anchor="middle" x="201.5" y="-150.5" font-family="Helvetica,sans-Serif" font-size="10.00" fill="#000000">L4::Ipc::Msg::Dir_in</text>
<polyline fill="none" stroke="#000000" points="149.5,-143.5 253.5,-143.5 "/>
<text text-anchor="middle" x="201.5" y="-131.5" font-family="Helvetica,sans-Serif" font-size="10.00" fill="#000000"> </text>
<polyline fill="none" stroke="#000000" points="149.5,-124.5 253.5,-124.5 "/>
<text text-anchor="middle" x="201.5" y="-112.5" font-family="Helvetica,sans-Serif" font-size="10.00" fill="#000000"> </text>
</g>
<!-- Node1 -->
<g id="node2" class="node">
<title>Node1</title>
<g id="a_node2"><a xlink:href="structL4_1_1Ipc_1_1Msg_1_1Do__in__data.html" target="_top" xlink:title="Marker for Input data. ">
<polygon fill="#ffffff" stroke="#000000" points="0,-6 0,-63 131,-63 131,-6 0,-6"/>
<text text-anchor="middle" x="65.5" y="-51" font-family="Helvetica,sans-Serif" font-size="10.00" fill="#000000">L4::Ipc::Msg::Do_in_data</text>
<polyline fill="none" stroke="#000000" points="0,-44 131,-44 "/>
<text text-anchor="middle" x="65.5" y="-32" font-family="Helvetica,sans-Serif" font-size="10.00" fill="#000000"> </text>
<polyline fill="none" stroke="#000000" points="0,-25 131,-25 "/>
<text text-anchor="middle" x="65.5" y="-13" font-family="Helvetica,sans-Serif" font-size="10.00" fill="#000000"> </text>
</a>
</g>
</g>
<!-- Node0&#45;&gt;Node1 -->
<g id="edge1" class="edge">
<title>Node0&#45;&gt;Node1</title>
<path fill="none" stroke="#191970" d="M154.215,-99.4055C137.9719,-87.5218 119.9855,-74.3625 104.4778,-63.0169"/>
<polygon fill="none" stroke="#191970" points="152.3906,-102.4074 162.5279,-105.4873 156.5238,-96.7579 152.3906,-102.4074"/>
</g>
<!-- Node2 -->
<g id="node3" class="node">
<title>Node2</title>
<g id="a_node3"><a xlink:href="structL4_1_1Ipc_1_1Msg_1_1Do__in__items.html" target="_top" xlink:title="Marker for Input items. ">
<polygon fill="#ffffff" stroke="#000000" points="149.5,-.5 149.5,-68.5 253.5,-68.5 253.5,-.5 149.5,-.5"/>
<text text-anchor="start" x="157.5" y="-56.5" font-family="Helvetica,sans-Serif" font-size="10.00" fill="#000000">L4::Ipc::Msg::Do_in</text>
<text text-anchor="middle" x="201.5" y="-45.5" font-family="Helvetica,sans-Serif" font-size="10.00" fill="#000000">_items</text>
<polyline fill="none" stroke="#000000" points="149.5,-38.5 253.5,-38.5 "/>
<text text-anchor="middle" x="201.5" y="-26.5" font-family="Helvetica,sans-Serif" font-size="10.00" fill="#000000"> </text>
<polyline fill="none" stroke="#000000" points="149.5,-19.5 253.5,-19.5 "/>
<text text-anchor="middle" x="201.5" y="-7.5" font-family="Helvetica,sans-Serif" font-size="10.00" fill="#000000"> </text>
</a>
</g>
</g>
<!-- Node0&#45;&gt;Node2 -->
<g id="edge2" class="edge">
<title>Node0&#45;&gt;Node2</title>
<path fill="none" stroke="#191970" d="M201.5,-95.4268C201.5,-86.6025 201.5,-77.2834 201.5,-68.6596"/>
<polygon fill="none" stroke="#191970" points="198.0001,-95.4873 201.5,-105.4873 205.0001,-95.4873 198.0001,-95.4873"/>
</g>
<!-- Node3 -->
<g id="node4" class="node">
<title>Node3</title>
<g id="a_node4"><a xlink:href="structL4_1_1Ipc_1_1Msg_1_1Do__rcv__buffers.html" target="_top" xlink:title="Marker for receive buffers. ">
<polygon fill="#ffffff" stroke="#000000" points="271.5,-.5 271.5,-68.5 381.5,-68.5 381.5,-.5 271.5,-.5"/>
<text text-anchor="start" x="279.5" y="-56.5" font-family="Helvetica,sans-Serif" font-size="10.00" fill="#000000">L4::Ipc::Msg::Do_rcv</text>
<text text-anchor="middle" x="326.5" y="-45.5" font-family="Helvetica,sans-Serif" font-size="10.00" fill="#000000">_buffers</text>
<polyline fill="none" stroke="#000000" points="271.5,-38.5 381.5,-38.5 "/>
<text text-anchor="middle" x="326.5" y="-26.5" font-family="Helvetica,sans-Serif" font-size="10.00" fill="#000000"> </text>
<polyline fill="none" stroke="#000000" points="271.5,-19.5 381.5,-19.5 "/>
<text text-anchor="middle" x="326.5" y="-7.5" font-family="Helvetica,sans-Serif" font-size="10.00" fill="#000000"> </text>
</a>
</g>
</g>
<!-- Node0&#45;&gt;Node3 -->
<g id="edge3" class="edge">
<title>Node0&#45;&gt;Node3</title>
<path fill="none" stroke="#191970" d="M245.3008,-99.1346C257.7186,-89.25 271.2211,-78.502 283.5859,-68.6596"/>
<polygon fill="none" stroke="#191970" points="242.9642,-96.521 237.32,-105.4873 247.3237,-101.9978 242.9642,-96.521"/>
</g>
</g>
</svg>
