<?xml version="1.0" encoding="UTF-8" standalone="no"?>
<!DOCTYPE svg PUBLIC "-//W3C//DTD SVG 1.1//EN"
 "http://www.w3.org/Graphics/SVG/1.1/DTD/svg11.dtd">
<!-- Generated by graphviz version 2.40.1 (20161225.0304)
 -->
<!-- Title: L4::Ipc::Call Pages: 1 -->
<svg width="260pt" height="171pt"
 viewBox="0.00 0.00 260.00 171.00" xmlns="http://www.w3.org/2000/svg" xmlns:xlink="http://www.w3.org/1999/xlink">
<g id="graph0" class="graph" transform="scale(1 1) rotate(0) translate(4 167)">
<title>L4::Ipc::Call</title>
<polygon fill="#ffffff" stroke="transparent" points="-4,4 -4,-167 256,-167 256,4 -4,4"/>
<!-- Node0 -->
<g id="node1" class="node">
<title>Node0</title>
<polygon fill="#bfbfbf" stroke="#000000" points="100.5,-105.5 100.5,-162.5 170.5,-162.5 170.5,-105.5 100.5,-105.5"/>
<text text-anchor="middle" x="135.5" y="-150.5" font-family="Helvetica,sans-Serif" font-size="10.00" fill="#000000">L4::Ipc::Call</text>
<polyline fill="none" stroke="#000000" points="100.5,-143.5 170.5,-143.5 "/>
<text text-anchor="middle" x="135.5" y="-131.5" font-family="Helvetica,sans-Serif" font-size="10.00" fill="#000000"> </text>
<polyline fill="none" stroke="#000000" points="100.5,-124.5 170.5,-124.5 "/>
<text text-anchor="start" x="108.5" y="-112.5" font-family="Helvetica,sans-Serif" font-size="10.00" fill="#000000">+ timeout()</text>
</g>
<!-- Node1 -->
<g id="node2" class="node">
<title>Node1</title>
<g id="a_node2"><a xlink:href="structL4_1_1Ipc_1_1Call__t.html" target="_top" xlink:title="RPC attribute for an RPC call with required rights. ">
<polygon fill="#ffffff" stroke="#000000" points="0,-6 0,-63 137,-63 137,-6 0,-6"/>
<text text-anchor="middle" x="68.5" y="-51" font-family="Helvetica,sans-Serif" font-size="10.00" fill="#000000">L4::Ipc::Call_t&lt; RIGHTS &gt;</text>
<polyline fill="none" stroke="#000000" points="0,-44 137,-44 "/>
<text text-anchor="middle" x="68.5" y="-32" font-family="Helvetica,sans-Serif" font-size="10.00" fill="#000000"> </text>
<polyline fill="none" stroke="#000000" points="0,-25 137,-25 "/>
<text text-anchor="middle" x="68.5" y="-13" font-family="Helvetica,sans-Serif" font-size="10.00" fill="#000000"> </text>
</a>
</g>
</g>
<!-- Node0&#45;&gt;Node1 -->
<g id="edge1" class="edge">
<title>Node0&#45;&gt;Node1</title>
<path fill="none" stroke="#191970" d="M110.6534,-97.101C103.07,-85.8391 94.8515,-73.6339 87.7023,-63.0169"/>
<polygon fill="none" stroke="#191970" points="107.8119,-99.1474 116.3005,-105.4873 113.6182,-95.2376 107.8119,-99.1474"/>
</g>
<!-- Node2 -->
<g id="node3" class="node">
<title>Node2</title>
<g id="a_node3"><a xlink:href="structL4_1_1Ipc_1_1Call__zero__send__timeout.html" target="_top" xlink:title="RPC attribute for an RPC call, with zero send timeout. ">
<polygon fill="#ffffff" stroke="#000000" points="155,-.5 155,-68.5 252,-68.5 252,-.5 155,-.5"/>
<text text-anchor="start" x="163" y="-56.5" font-family="Helvetica,sans-Serif" font-size="10.00" fill="#000000">L4::Ipc::Call_zero</text>
<text text-anchor="middle" x="203.5" y="-45.5" font-family="Helvetica,sans-Serif" font-size="10.00" fill="#000000">_send_timeout</text>
<polyline fill="none" stroke="#000000" points="155,-38.5 252,-38.5 "/>
<text text-anchor="middle" x="203.5" y="-26.5" font-family="Helvetica,sans-Serif" font-size="10.00" fill="#000000"> </text>
<polyline fill="none" stroke="#000000" points="155,-19.5 252,-19.5 "/>
<text text-anchor="start" x="163" y="-7.5" font-family="Helvetica,sans-Serif" font-size="10.00" fill="#000000">+ timeout()</text>
</a>
</g>
</g>
<!-- Node0&#45;&gt;Node2 -->
<g id="edge2" class="edge">
<title>Node0&#45;&gt;Node2</title>
<path fill="none" stroke="#191970" d="M160.6862,-97.1467C167.0595,-87.821 173.8767,-77.8458 180.1548,-68.6596"/>
<polygon fill="none" stroke="#191970" points="157.7388,-95.2563 154.9861,-105.4873 163.5181,-99.206 157.7388,-95.2563"/>
</g>
</g>
</svg>
