<?xml version="1.0" encoding="UTF-8" standalone="no"?>
<!DOCTYPE svg PUBLIC "-//W3C//DTD SVG 1.1//EN"
 "http://www.w3.org/Graphics/SVG/1.1/DTD/svg11.dtd">
<!-- Generated by graphviz version 2.40.1 (20161225.0304)
 -->
<!-- Title: L4::Irq_mux::chain Pages: 1 -->
<svg width="255pt" height="104pt"
 viewBox="0.00 0.00 255.00 104.00" xmlns="http://www.w3.org/2000/svg" xmlns:xlink="http://www.w3.org/1999/xlink">
<g id="graph0" class="graph" transform="scale(1 1) rotate(0) translate(4 100)">
<title>L4::Irq_mux::chain</title>
<polygon fill="#ffffff" stroke="transparent" points="-4,4 -4,-100 251,-100 251,4 -4,4"/>
<!-- Node0 -->
<g id="node1" class="node">
<title>Node0</title>
<polygon fill="#bfbfbf" stroke="#000000" points="0,-38.5 0,-57.5 101,-57.5 101,-38.5 0,-38.5"/>
<text text-anchor="middle" x="50.5" y="-45.5" font-family="Helvetica,sans-Serif" font-size="10.00" fill="#000000">L4::Irq_mux::chain</text>
</g>
<!-- Node1 -->
<g id="node2" class="node">
<title>Node1</title>
<g id="a_node2"><a xlink:href="classL4_1_1Cap__base.html#a90ff089ca2442b128c2b2b0e1c22c6d7" target="_top" xlink:title="Return capability selector. ">
<polygon fill="#ffffff" stroke="#000000" points="140.5,-76.5 140.5,-95.5 243.5,-95.5 243.5,-76.5 140.5,-76.5"/>
<text text-anchor="middle" x="192" y="-83.5" font-family="Helvetica,sans-Serif" font-size="10.00" fill="#000000">L4::Cap_base::cap</text>
</a>
</g>
</g>
<!-- Node0&#45;&gt;Node1 -->
<g id="edge1" class="edge">
<title>Node0&#45;&gt;Node1</title>
<path fill="none" stroke="#191970" d="M86.2064,-57.589C104.4727,-62.4944 126.9084,-68.5196 146.4112,-73.7571"/>
<polygon fill="#191970" stroke="#191970" points="145.7394,-77.2006 156.305,-76.4141 147.555,-70.4401 145.7394,-77.2006"/>
</g>
<!-- Node2 -->
<g id="node3" class="node">
<title>Node2</title>
<g id="a_node3"><a xlink:href="classL4_1_1Kobject.html#a4f2117ae76762f4084e6a1adb915863c" target="_top" xlink:title="Return capability selector. ">
<polygon fill="#ffffff" stroke="#000000" points="147.5,-38.5 147.5,-57.5 236.5,-57.5 236.5,-38.5 147.5,-38.5"/>
<text text-anchor="middle" x="192" y="-45.5" font-family="Helvetica,sans-Serif" font-size="10.00" fill="#000000">L4::Kobject::cap</text>
</a>
</g>
</g>
<!-- Node0&#45;&gt;Node2 -->
<g id="edge2" class="edge">
<title>Node0&#45;&gt;Node2</title>
<path fill="none" stroke="#191970" d="M101.1851,-48C112.8386,-48 125.2838,-48 137.1063,-48"/>
<polygon fill="#191970" stroke="#191970" points="137.2999,-51.5001 147.2999,-48 137.2998,-44.5001 137.2999,-51.5001"/>
</g>
<!-- Node3 -->
<g id="node4" class="node">
<title>Node3</title>
<g id="a_node4"><a xlink:href="group__l4__irq__api.html#ga0bfe3132479962ae237087568fc2c94f" target="_top" xlink:title="Attach an IRQ to this multiplexer. ">
<polygon fill="#ffffff" stroke="#000000" points="137,-.5 137,-19.5 247,-19.5 247,-.5 137,-.5"/>
<text text-anchor="middle" x="192" y="-7.5" font-family="Helvetica,sans-Serif" font-size="10.00" fill="#000000">l4_irq_mux_chain_u</text>
</a>
</g>
</g>
<!-- Node0&#45;&gt;Node3 -->
<g id="edge3" class="edge">
<title>Node0&#45;&gt;Node3</title>
<path fill="none" stroke="#191970" d="M86.2064,-38.411C104.4727,-33.5056 126.9084,-27.4804 146.4112,-22.2429"/>
<polygon fill="#191970" stroke="#191970" points="147.555,-25.5599 156.305,-19.5859 145.7394,-18.7994 147.555,-25.5599"/>
</g>
</g>
</svg>
