<?xml version="1.0" encoding="UTF-8" standalone="no"?>
<!DOCTYPE svg PUBLIC "-//W3C//DTD SVG 1.1//EN"
 "http://www.w3.org/Graphics/SVG/1.1/DTD/svg11.dtd">
<!-- Generated by graphviz version 2.40.1 (20161225.0304)
 -->
<!-- Title: L4::Ipc::Msg::Do_in_data Pages: 1 -->
<svg width="250pt" height="160pt"
 viewBox="0.00 0.00 249.50 160.00" xmlns="http://www.w3.org/2000/svg" xmlns:xlink="http://www.w3.org/1999/xlink">
<g id="graph0" class="graph" transform="scale(1 1) rotate(0) translate(4 156)">
<title>L4::Ipc::Msg::Do_in_data</title>
<polygon fill="#ffffff" stroke="transparent" points="-4,4 -4,-156 245.5,-156 245.5,4 -4,4"/>
<!-- Node3 -->
<g id="node1" class="node">
<title>Node3</title>
<polygon fill="#bfbfbf" stroke="#000000" points="51.5,-.5 51.5,-57.5 182.5,-57.5 182.5,-.5 51.5,-.5"/>
<text text-anchor="middle" x="117" y="-45.5" font-family="Helvetica,sans-Serif" font-size="10.00" fill="#000000">L4::Ipc::Msg::Do_in_data</text>
<polyline fill="none" stroke="#000000" points="51.5,-38.5 182.5,-38.5 "/>
<text text-anchor="middle" x="117" y="-26.5" font-family="Helvetica,sans-Serif" font-size="10.00" fill="#000000"> </text>
<polyline fill="none" stroke="#000000" points="51.5,-19.5 182.5,-19.5 "/>
<text text-anchor="middle" x="117" y="-7.5" font-family="Helvetica,sans-Serif" font-size="10.00" fill="#000000"> </text>
</g>
<!-- Node4 -->
<g id="node2" class="node">
<title>Node4</title>
<g id="a_node2"><a xlink:href="structL4_1_1Ipc_1_1Msg_1_1Dir__in.html" target="_top" xlink:title="Marker type for input values. ">
<polygon fill="#ffffff" stroke="#000000" points="0,-94.5 0,-151.5 104,-151.5 104,-94.5 0,-94.5"/>
<text text-anchor="middle" x="52" y="-139.5" font-family="Helvetica,sans-Serif" font-size="10.00" fill="#000000">L4::Ipc::Msg::Dir_in</text>
<polyline fill="none" stroke="#000000" points="0,-132.5 104,-132.5 "/>
<text text-anchor="middle" x="52" y="-120.5" font-family="Helvetica,sans-Serif" font-size="10.00" fill="#000000"> </text>
<polyline fill="none" stroke="#000000" points="0,-113.5 104,-113.5 "/>
<text text-anchor="middle" x="52" y="-101.5" font-family="Helvetica,sans-Serif" font-size="10.00" fill="#000000"> </text>
</a>
</g>
</g>
<!-- Node4&#45;&gt;Node3 -->
<g id="edge1" class="edge">
<title>Node4&#45;&gt;Node3</title>
<path fill="none" stroke="#191970" d="M77.6965,-85.839C84.2083,-76.4219 91.1016,-66.4531 97.2663,-57.538"/>
<polygon fill="none" stroke="#191970" points="74.6641,-84.0704 71.8553,-94.2861 80.4217,-88.0517 74.6641,-84.0704"/>
</g>
<!-- Node5 -->
<g id="node3" class="node">
<title>Node5</title>
<g id="a_node3"><a xlink:href="structL4_1_1Ipc_1_1Msg_1_1Cls__data.html" target="_top" xlink:title="Marker type for data values. ">
<polygon fill="#ffffff" stroke="#000000" points="122.5,-94.5 122.5,-151.5 241.5,-151.5 241.5,-94.5 122.5,-94.5"/>
<text text-anchor="middle" x="182" y="-139.5" font-family="Helvetica,sans-Serif" font-size="10.00" fill="#000000">L4::Ipc::Msg::Cls_data</text>
<polyline fill="none" stroke="#000000" points="122.5,-132.5 241.5,-132.5 "/>
<text text-anchor="middle" x="182" y="-120.5" font-family="Helvetica,sans-Serif" font-size="10.00" fill="#000000"> </text>
<polyline fill="none" stroke="#000000" points="122.5,-113.5 241.5,-113.5 "/>
<text text-anchor="middle" x="182" y="-101.5" font-family="Helvetica,sans-Serif" font-size="10.00" fill="#000000"> </text>
</a>
</g>
</g>
<!-- Node5&#45;&gt;Node3 -->
<g id="edge2" class="edge">
<title>Node5&#45;&gt;Node3</title>
<path fill="none" stroke="#191970" d="M156.3035,-85.839C149.7917,-76.4219 142.8984,-66.4531 136.7337,-57.538"/>
<polygon fill="none" stroke="#191970" points="153.5783,-88.0517 162.1447,-94.2861 159.3359,-84.0704 153.5783,-88.0517"/>
</g>
</g>
</svg>
