<?xml version="1.0" encoding="UTF-8" standalone="no"?>
<!DOCTYPE svg PUBLIC "-//W3C//DTD SVG 1.1//EN"
 "http://www.w3.org/Graphics/SVG/1.1/DTD/svg11.dtd">
<!-- Generated by graphviz version 2.40.1 (20161225.0304)
 -->
<!-- Title: L4Re::Util::Br_manager_hooks Pages: 1 -->
<svg width="526pt" height="507pt"
 viewBox="0.00 0.00 525.50 507.00" xmlns="http://www.w3.org/2000/svg" xmlns:xlink="http://www.w3.org/1999/xlink">
<g id="graph0" class="graph" transform="scale(1 1) rotate(0) translate(4 503)">
<title>L4Re::Util::Br_manager_hooks</title>
<polygon fill="#ffffff" stroke="transparent" points="-4,4 -4,-503 521.5,-503 521.5,4 -4,4"/>
<!-- Node0 -->
<g id="node1" class="node">
<title>Node0</title>
<polygon fill="#bfbfbf" stroke="#000000" points="177,-.5 177,-68.5 302,-68.5 302,-.5 177,-.5"/>
<text text-anchor="start" x="185" y="-56.5" font-family="Helvetica,sans-Serif" font-size="10.00" fill="#000000">L4Re::Util::Br_manager</text>
<text text-anchor="middle" x="239.5" y="-45.5" font-family="Helvetica,sans-Serif" font-size="10.00" fill="#000000">_hooks</text>
<polyline fill="none" stroke="#000000" points="177,-38.5 302,-38.5 "/>
<text text-anchor="middle" x="239.5" y="-26.5" font-family="Helvetica,sans-Serif" font-size="10.00" fill="#000000"> </text>
<polyline fill="none" stroke="#000000" points="177,-19.5 302,-19.5 "/>
<text text-anchor="middle" x="239.5" y="-7.5" font-family="Helvetica,sans-Serif" font-size="10.00" fill="#000000"> </text>
</g>
<!-- Node1 -->
<g id="node2" class="node">
<title>Node1</title>
<g id="a_node2"><a xlink:href="structL4_1_1Ipc__svr_1_1Ignore__errors.html" target="_top" xlink:title="Mix in for LOOP_HOOKS to ignore IPC errors. ">
<polygon fill="#ffffff" stroke="#000000" points="0,-171.5 0,-239.5 103,-239.5 103,-171.5 0,-171.5"/>
<text text-anchor="start" x="8" y="-227.5" font-family="Helvetica,sans-Serif" font-size="10.00" fill="#000000">L4::Ipc_svr::Ignore</text>
<text text-anchor="middle" x="51.5" y="-216.5" font-family="Helvetica,sans-Serif" font-size="10.00" fill="#000000">_errors</text>
<polyline fill="none" stroke="#000000" points="0,-209.5 103,-209.5 "/>
<text text-anchor="middle" x="51.5" y="-197.5" font-family="Helvetica,sans-Serif" font-size="10.00" fill="#000000"> </text>
<polyline fill="none" stroke="#000000" points="0,-190.5 103,-190.5 "/>
<text text-anchor="start" x="8" y="-178.5" font-family="Helvetica,sans-Serif" font-size="10.00" fill="#000000">+ error()</text>
</a>
</g>
</g>
<!-- Node1&#45;&gt;Node0 -->
<g id="edge1" class="edge">
<title>Node1&#45;&gt;Node0</title>
<path fill="none" stroke="#191970" d="M71.2853,-162.3381C81.6015,-143.1357 95.6113,-121.2464 112.5,-105 130.9467,-87.2548 154.7301,-72.4984 176.7186,-61.1504"/>
<polygon fill="none" stroke="#191970" points="68.172,-160.7391 66.6652,-171.2262 74.383,-163.9677 68.172,-160.7391"/>
</g>
<!-- Node2 -->
<g id="node3" class="node">
<title>Node2</title>
<g id="a_node3"><a xlink:href="structL4_1_1Ipc__svr_1_1Default__timeout.html" target="_top" xlink:title="Mix in for LOOP_HOOKS to use a 0 send and a infinite receive timeout. ">
<polygon fill="#ffffff" stroke="#000000" points="121,-171.5 121,-239.5 226,-239.5 226,-171.5 121,-171.5"/>
<text text-anchor="start" x="129" y="-227.5" font-family="Helvetica,sans-Serif" font-size="10.00" fill="#000000">L4::Ipc_svr::Default</text>
<text text-anchor="middle" x="173.5" y="-216.5" font-family="Helvetica,sans-Serif" font-size="10.00" fill="#000000">_timeout</text>
<polyline fill="none" stroke="#000000" points="121,-209.5 226,-209.5 "/>
<text text-anchor="middle" x="173.5" y="-197.5" font-family="Helvetica,sans-Serif" font-size="10.00" fill="#000000"> </text>
<polyline fill="none" stroke="#000000" points="121,-190.5 226,-190.5 "/>
<text text-anchor="start" x="129" y="-178.5" font-family="Helvetica,sans-Serif" font-size="10.00" fill="#000000">+ timeout()</text>
</a>
</g>
</g>
<!-- Node2&#45;&gt;Node0 -->
<g id="edge2" class="edge">
<title>Node2&#45;&gt;Node0</title>
<path fill="none" stroke="#191970" d="M190.3519,-161.8382C201.5303,-132.876 215.9894,-95.4137 226.3254,-68.6342"/>
<polygon fill="none" stroke="#191970" points="187.033,-160.7171 186.6975,-171.3066 193.5635,-163.2376 187.033,-160.7171"/>
</g>
<!-- Node3 -->
<g id="node4" class="node">
<title>Node3</title>
<g id="a_node4"><a xlink:href="structL4_1_1Ipc__svr_1_1Compound__reply.html" target="_top" xlink:title="Mix in for LOOP_HOOKS to always use compound reply and wait. ">
<polygon fill="#ffffff" stroke="#000000" points="244,-171.5 244,-239.5 367,-239.5 367,-171.5 244,-171.5"/>
<text text-anchor="start" x="252" y="-227.5" font-family="Helvetica,sans-Serif" font-size="10.00" fill="#000000">L4::Ipc_svr::Compound</text>
<text text-anchor="middle" x="305.5" y="-216.5" font-family="Helvetica,sans-Serif" font-size="10.00" fill="#000000">_reply</text>
<polyline fill="none" stroke="#000000" points="244,-209.5 367,-209.5 "/>
<text text-anchor="middle" x="305.5" y="-197.5" font-family="Helvetica,sans-Serif" font-size="10.00" fill="#000000"> </text>
<polyline fill="none" stroke="#000000" points="244,-190.5 367,-190.5 "/>
<text text-anchor="start" x="252" y="-178.5" font-family="Helvetica,sans-Serif" font-size="10.00" fill="#000000">+ before_reply()</text>
</a>
</g>
</g>
<!-- Node3&#45;&gt;Node0 -->
<g id="edge3" class="edge">
<title>Node3&#45;&gt;Node0</title>
<path fill="none" stroke="#191970" d="M288.6481,-161.8382C277.4697,-132.876 263.0106,-95.4137 252.6746,-68.6342"/>
<polygon fill="none" stroke="#191970" points="285.4365,-163.2376 292.3025,-171.3066 291.967,-160.7171 285.4365,-163.2376"/>
</g>
<!-- Node4 -->
<g id="node5" class="node">
<title>Node4</title>
<g id="a_node5"><a xlink:href="classL4Re_1_1Util_1_1Br__manager.html" target="_top" xlink:title="Buffer&#45;register (BR) manager for L4::Server. ">
<polygon fill="#ffffff" stroke="#000000" points="385.5,-105.5 385.5,-305.5 517.5,-305.5 517.5,-105.5 385.5,-105.5"/>
<text text-anchor="middle" x="451.5" y="-293.5" font-family="Helvetica,sans-Serif" font-size="10.00" fill="#000000">L4Re::Util::Br_manager</text>
<polyline fill="none" stroke="#000000" points="385.5,-286.5 517.5,-286.5 "/>
<text text-anchor="middle" x="451.5" y="-274.5" font-family="Helvetica,sans-Serif" font-size="10.00" fill="#000000"> </text>
<polyline fill="none" stroke="#000000" points="385.5,-267.5 517.5,-267.5 "/>
<text text-anchor="start" x="393.5" y="-255.5" font-family="Helvetica,sans-Serif" font-size="10.00" fill="#000000">+ Br_manager()</text>
<text text-anchor="start" x="393.5" y="-244.5" font-family="Helvetica,sans-Serif" font-size="10.00" fill="#000000">+ Br_manager()</text>
<text text-anchor="start" x="393.5" y="-233.5" font-family="Helvetica,sans-Serif" font-size="10.00" fill="#000000">+ operator=()</text>
<text text-anchor="start" x="393.5" y="-222.5" font-family="Helvetica,sans-Serif" font-size="10.00" fill="#000000">+ Br_manager()</text>
<text text-anchor="start" x="393.5" y="-211.5" font-family="Helvetica,sans-Serif" font-size="10.00" fill="#000000">+ operator=()</text>
<text text-anchor="start" x="393.5" y="-200.5" font-family="Helvetica,sans-Serif" font-size="10.00" fill="#000000">+ ~Br_manager()</text>
<text text-anchor="start" x="393.5" y="-189.5" font-family="Helvetica,sans-Serif" font-size="10.00" fill="#000000">+ alloc_buffer_demand()</text>
<text text-anchor="start" x="393.5" y="-178.5" font-family="Helvetica,sans-Serif" font-size="10.00" fill="#000000">+ get_rcv_cap()</text>
<text text-anchor="start" x="393.5" y="-167.5" font-family="Helvetica,sans-Serif" font-size="10.00" fill="#000000">+ realloc_rcv_cap()</text>
<text text-anchor="start" x="393.5" y="-156.5" font-family="Helvetica,sans-Serif" font-size="10.00" fill="#000000">+ set_rcv_cap_flags()</text>
<text text-anchor="start" x="393.5" y="-145.5" font-family="Helvetica,sans-Serif" font-size="10.00" fill="#000000">+ add_timeout()</text>
<text text-anchor="start" x="393.5" y="-134.5" font-family="Helvetica,sans-Serif" font-size="10.00" fill="#000000">+ remove_timeout()</text>
<text text-anchor="start" x="393.5" y="-123.5" font-family="Helvetica,sans-Serif" font-size="10.00" fill="#000000">+ setup_wait()</text>
<text text-anchor="start" x="393.5" y="-112.5" font-family="Helvetica,sans-Serif" font-size="10.00" fill="#000000"># first_free_br()</text>
</a>
</g>
</g>
<!-- Node4&#45;&gt;Node0 -->
<g id="edge4" class="edge">
<title>Node4&#45;&gt;Node0</title>
<path fill="none" stroke="#191970" d="M377.8983,-106.197C377.4335,-105.7947 376.9673,-105.3956 376.5,-105 354.5525,-86.4209 326.8797,-71.0138 302.16,-59.3908"/>
<polygon fill="none" stroke="#191970" points="375.5759,-108.8161 385.3157,-112.9859 380.3021,-103.6524 375.5759,-108.8161"/>
</g>
<!-- Node5 -->
<g id="node6" class="node">
<title>Node5</title>
<g id="a_node6"><a xlink:href="classL4_1_1Ipc__svr_1_1Server__iface.html" target="_top" xlink:title="Interface for server&#45;loop related functions. ">
<polygon fill="#ffffff" stroke="#000000" points="385.5,-342.5 385.5,-498.5 517.5,-498.5 517.5,-342.5 385.5,-342.5"/>
<text text-anchor="start" x="393.5" y="-486.5" font-family="Helvetica,sans-Serif" font-size="10.00" fill="#000000">L4::Ipc_svr::Server</text>
<text text-anchor="middle" x="451.5" y="-475.5" font-family="Helvetica,sans-Serif" font-size="10.00" fill="#000000">_iface</text>
<polyline fill="none" stroke="#000000" points="385.5,-468.5 517.5,-468.5 "/>
<text text-anchor="middle" x="451.5" y="-456.5" font-family="Helvetica,sans-Serif" font-size="10.00" fill="#000000"> </text>
<polyline fill="none" stroke="#000000" points="385.5,-449.5 517.5,-449.5 "/>
<text text-anchor="start" x="393.5" y="-437.5" font-family="Helvetica,sans-Serif" font-size="10.00" fill="#000000">+ Server_iface()</text>
<text text-anchor="start" x="393.5" y="-426.5" font-family="Helvetica,sans-Serif" font-size="10.00" fill="#000000">+ ~Server_iface()</text>
<text text-anchor="start" x="393.5" y="-415.5" font-family="Helvetica,sans-Serif" font-size="10.00" fill="#000000">+ alloc_buffer_demand()</text>
<text text-anchor="start" x="393.5" y="-404.5" font-family="Helvetica,sans-Serif" font-size="10.00" fill="#000000">+ get_rcv_cap()</text>
<text text-anchor="start" x="393.5" y="-393.5" font-family="Helvetica,sans-Serif" font-size="10.00" fill="#000000">+ realloc_rcv_cap()</text>
<text text-anchor="start" x="393.5" y="-382.5" font-family="Helvetica,sans-Serif" font-size="10.00" fill="#000000">+ add_timeout()</text>
<text text-anchor="start" x="393.5" y="-371.5" font-family="Helvetica,sans-Serif" font-size="10.00" fill="#000000">+ remove_timeout()</text>
<text text-anchor="start" x="393.5" y="-360.5" font-family="Helvetica,sans-Serif" font-size="10.00" fill="#000000">+ rcv_cap()</text>
<text text-anchor="start" x="393.5" y="-349.5" font-family="Helvetica,sans-Serif" font-size="10.00" fill="#000000">+ rcv_cap()</text>
</a>
</g>
</g>
<!-- Node5&#45;&gt;Node4 -->
<g id="edge5" class="edge">
<title>Node5&#45;&gt;Node4</title>
<path fill="none" stroke="#191970" d="M451.5,-332.1343C451.5,-323.4185 451.5,-314.5293 451.5,-305.706"/>
<polygon fill="none" stroke="#191970" points="448.0001,-332.2718 451.5,-342.2719 455.0001,-332.2719 448.0001,-332.2718"/>
</g>
</g>
</svg>
