<?xml version="1.0" encoding="UTF-8" standalone="no"?>
<!DOCTYPE svg PUBLIC "-//W3C//DTD SVG 1.1//EN"
 "http://www.w3.org/Graphics/SVG/1.1/DTD/svg11.dtd">
<!-- Generated by graphviz version 2.40.1 (20161225.0304)
 -->
<!-- Title: l4_vhw_descriptor Pages: 1 -->
<svg width="111pt" height="270pt"
 viewBox="0.00 0.00 111.00 270.00" xmlns="http://www.w3.org/2000/svg" xmlns:xlink="http://www.w3.org/1999/xlink">
<g id="graph0" class="graph" transform="scale(1 1) rotate(0) translate(4 266)">
<title>l4_vhw_descriptor</title>
<polygon fill="#ffffff" stroke="transparent" points="-4,4 -4,-266 107,-266 107,4 -4,4"/>
<!-- Node1 -->
<g id="node1" class="node">
<title>Node1</title>
<polygon fill="#bfbfbf" stroke="#000000" points="0,-.5 0,-101.5 103,-101.5 103,-.5 0,-.5"/>
<text text-anchor="middle" x="51.5" y="-89.5" font-family="Helvetica,sans-Serif" font-size="10.00" fill="#000000">l4_vhw_descriptor</text>
<polyline fill="none" stroke="#000000" points="0,-82.5 103,-82.5 "/>
<text text-anchor="start" x="8" y="-70.5" font-family="Helvetica,sans-Serif" font-size="10.00" fill="#000000">+ magic</text>
<text text-anchor="start" x="8" y="-59.5" font-family="Helvetica,sans-Serif" font-size="10.00" fill="#000000">+ version</text>
<text text-anchor="start" x="8" y="-48.5" font-family="Helvetica,sans-Serif" font-size="10.00" fill="#000000">+ count</text>
<text text-anchor="start" x="8" y="-37.5" font-family="Helvetica,sans-Serif" font-size="10.00" fill="#000000">+ pad1</text>
<text text-anchor="start" x="8" y="-26.5" font-family="Helvetica,sans-Serif" font-size="10.00" fill="#000000">+ pad2</text>
<polyline fill="none" stroke="#000000" points="0,-19.5 103,-19.5 "/>
<text text-anchor="middle" x="51.5" y="-7.5" font-family="Helvetica,sans-Serif" font-size="10.00" fill="#000000"> </text>
</g>
<!-- Node2 -->
<g id="node2" class="node">
<title>Node2</title>
<g id="a_node2"><a xlink:href="structl4__vhw__entry.html" target="_top" xlink:title="Description of a device. ">
<polygon fill="#ffffff" stroke="#000000" points="8.5,-149.5 8.5,-261.5 94.5,-261.5 94.5,-149.5 8.5,-149.5"/>
<text text-anchor="middle" x="51.5" y="-249.5" font-family="Helvetica,sans-Serif" font-size="10.00" fill="#000000">l4_vhw_entry</text>
<polyline fill="none" stroke="#000000" points="8.5,-242.5 94.5,-242.5 "/>
<text text-anchor="start" x="16.5" y="-230.5" font-family="Helvetica,sans-Serif" font-size="10.00" fill="#000000">+ type</text>
<text text-anchor="start" x="16.5" y="-219.5" font-family="Helvetica,sans-Serif" font-size="10.00" fill="#000000">+ provider_pid</text>
<text text-anchor="start" x="16.5" y="-208.5" font-family="Helvetica,sans-Serif" font-size="10.00" fill="#000000">+ mem_start</text>
<text text-anchor="start" x="16.5" y="-197.5" font-family="Helvetica,sans-Serif" font-size="10.00" fill="#000000">+ mem_size</text>
<text text-anchor="start" x="16.5" y="-186.5" font-family="Helvetica,sans-Serif" font-size="10.00" fill="#000000">+ irq_no</text>
<text text-anchor="start" x="16.5" y="-175.5" font-family="Helvetica,sans-Serif" font-size="10.00" fill="#000000">+ fd</text>
<polyline fill="none" stroke="#000000" points="8.5,-168.5 94.5,-168.5 "/>
<text text-anchor="middle" x="51.5" y="-156.5" font-family="Helvetica,sans-Serif" font-size="10.00" fill="#000000"> </text>
</a>
</g>
</g>
<!-- Node2&#45;&gt;Node1 -->
<g id="edge1" class="edge">
<title>Node2&#45;&gt;Node1</title>
<path fill="none" stroke="#404040" d="M51.5,-149.2849C51.5,-137.6944 51.5,-125.42 51.5,-113.6185"/>
<polygon fill="none" stroke="#404040" points="51.5001,-113.5398 47.5,-107.5398 51.5,-101.5398 55.5,-107.5398 51.5001,-113.5398"/>
<text text-anchor="middle" x="70.5" y="-123" font-family="Helvetica,sans-Serif" font-size="10.00" fill="#000000"> +descs</text>
</g>
</g>
</svg>
