<?xml version="1.0" encoding="UTF-8" standalone="no"?>
<!DOCTYPE svg PUBLIC "-//W3C//DTD SVG 1.1//EN"
 "http://www.w3.org/Graphics/SVG/1.1/DTD/svg11.dtd">
<!-- Generated by graphviz version 2.40.1 (20161225.0304)
 -->
<!-- Title: l4/sys/assert.h Pages: 1 -->
<svg width="564pt" height="420pt"
 viewBox="0.00 0.00 564.33 420.00" xmlns="http://www.w3.org/2000/svg" xmlns:xlink="http://www.w3.org/1999/xlink">
<g id="graph0" class="graph" transform="scale(1 1) rotate(0) translate(4 416)">
<title>l4/sys/assert.h</title>
<polygon fill="#ffffff" stroke="transparent" points="-4,4 -4,-416 560.3274,-416 560.3274,4 -4,4"/>
<!-- Node0 -->
<g id="node1" class="node">
<title>Node0</title>
<polygon fill="#bfbfbf" stroke="#000000" points="447.3274,-392.5 447.3274,-411.5 531.3274,-411.5 531.3274,-392.5 447.3274,-392.5"/>
<text text-anchor="middle" x="489.3274" y="-399.5" font-family="Helvetica,sans-Serif" font-size="10.00" fill="#000000">l4/sys/assert.h</text>
</g>
<!-- Node1 -->
<g id="node2" class="node">
<title>Node1</title>
<g id="a_node2"><a xlink:href="compiler_8h.html" target="_top" xlink:title="L4 compiler related defines. ">
<polygon fill="#ffffff" stroke="#000000" points="383.8274,-56.5 383.8274,-75.5 478.8274,-75.5 478.8274,-56.5 383.8274,-56.5"/>
<text text-anchor="middle" x="431.3274" y="-63.5" font-family="Helvetica,sans-Serif" font-size="10.00" fill="#000000">l4/sys/compiler.h</text>
</a>
</g>
</g>
<!-- Node0&#45;&gt;Node1 -->
<g id="edge1" class="edge">
<title>Node0&#45;&gt;Node1</title>
<path fill="none" stroke="#191970" d="M502.5958,-392.4932C513.4336,-384.0645 528.3743,-370.8187 537.3274,-356 553.1123,-329.8736 556.3274,-320.5246 556.3274,-290 556.3274,-290 556.3274,-290 556.3274,-178 556.3274,-151.1382 491.4887,-104.8735 455.2069,-81.0878"/>
<polygon fill="#191970" stroke="#191970" points="456.9512,-78.0477 446.6548,-75.5505 453.1466,-83.9235 456.9512,-78.0477"/>
</g>
<!-- Node3 -->
<g id="node4" class="node">
<title>Node3</title>
<g id="a_node4"><a xlink:href="l4_2sys_2thread_8h.html" target="_top" xlink:title="Common thread related definitions. ">
<polygon fill="#ffffff" stroke="#000000" points="346.3274,-336.5 346.3274,-355.5 432.3274,-355.5 432.3274,-336.5 346.3274,-336.5"/>
<text text-anchor="middle" x="389.3274" y="-343.5" font-family="Helvetica,sans-Serif" font-size="10.00" fill="#000000">l4/sys/thread.h</text>
</a>
</g>
</g>
<!-- Node0&#45;&gt;Node3 -->
<g id="edge3" class="edge">
<title>Node0&#45;&gt;Node3</title>
<path fill="none" stroke="#191970" d="M471.9087,-392.2455C456.2788,-383.4928 433.1255,-370.527 415.3088,-360.5496"/>
<polygon fill="#191970" stroke="#191970" points="416.9816,-357.475 406.5464,-355.6427 413.5614,-363.5825 416.9816,-357.475"/>
</g>
<!-- Node12 -->
<g id="node13" class="node">
<title>Node12</title>
<g id="a_node13"><a xlink:href="vcon_8h.html" target="_top" xlink:title="Virtual console interface. ">
<polygon fill="#ffffff" stroke="#000000" points="450.8274,-336.5 450.8274,-355.5 527.8274,-355.5 527.8274,-336.5 450.8274,-336.5"/>
<text text-anchor="middle" x="489.3274" y="-343.5" font-family="Helvetica,sans-Serif" font-size="10.00" fill="#000000">l4/sys/vcon.h</text>
</a>
</g>
</g>
<!-- Node0&#45;&gt;Node12 -->
<g id="edge23" class="edge">
<title>Node0&#45;&gt;Node12</title>
<path fill="none" stroke="#191970" d="M489.3274,-392.2455C489.3274,-384.9382 489.3274,-374.6944 489.3274,-365.7046"/>
<polygon fill="#191970" stroke="#191970" points="492.8275,-365.6426 489.3274,-355.6427 485.8275,-365.6427 492.8275,-365.6426"/>
</g>
<!-- Node2 -->
<g id="node3" class="node">
<title>Node2</title>
<polygon fill="#ffffff" stroke="#bfbfbf" points="386.8274,-.5 386.8274,-19.5 475.8274,-19.5 475.8274,-.5 386.8274,-.5"/>
<text text-anchor="middle" x="431.3274" y="-7.5" font-family="Helvetica,sans-Serif" font-size="10.00" fill="#000000">l4/sys/linkage.h</text>
</g>
<!-- Node1&#45;&gt;Node2 -->
<g id="edge2" class="edge">
<title>Node1&#45;&gt;Node2</title>
<path fill="none" stroke="#191970" d="M431.3274,-56.2455C431.3274,-48.9382 431.3274,-38.6944 431.3274,-29.7046"/>
<polygon fill="#191970" stroke="#191970" points="434.8275,-29.6426 431.3274,-19.6427 427.8275,-29.6427 434.8275,-29.6426"/>
</g>
<!-- Node4 -->
<g id="node5" class="node">
<title>Node4</title>
<g id="a_node5"><a xlink:href="l4_2sys_2types_8h.html" target="_top" xlink:title="Common L4 ABI Data Types. ">
<polygon fill="#ffffff" stroke="#000000" points="287.3274,-168.5 287.3274,-187.5 367.3274,-187.5 367.3274,-168.5 287.3274,-168.5"/>
<text text-anchor="middle" x="327.3274" y="-175.5" font-family="Helvetica,sans-Serif" font-size="10.00" fill="#000000">l4/sys/types.h</text>
</a>
</g>
</g>
<!-- Node3&#45;&gt;Node4 -->
<g id="edge4" class="edge">
<title>Node3&#45;&gt;Node4</title>
<path fill="none" stroke="#191970" d="M384.4398,-336.3672C375.5275,-318.5157 356.4393,-278.9278 344.3274,-244 338.997,-228.6285 334.4883,-210.7293 331.4564,-197.4521"/>
<polygon fill="#191970" stroke="#191970" points="334.8428,-196.5549 329.2713,-187.5433 328.007,-198.0624 334.8428,-196.5549"/>
</g>
<!-- Node9 -->
<g id="node10" class="node">
<title>Node9</title>
<g id="a_node10"><a xlink:href="l4_2sys_2utcb_8h.html" target="_top" xlink:title="UTCB definitions. ">
<polygon fill="#ffffff" stroke="#000000" points="353.3274,-224.5 353.3274,-243.5 427.3274,-243.5 427.3274,-224.5 353.3274,-224.5"/>
<text text-anchor="middle" x="390.3274" y="-231.5" font-family="Helvetica,sans-Serif" font-size="10.00" fill="#000000">l4/sys/utcb.h</text>
</a>
</g>
</g>
<!-- Node3&#45;&gt;Node9 -->
<g id="edge14" class="edge">
<title>Node3&#45;&gt;Node9</title>
<path fill="none" stroke="#191970" d="M389.4126,-336.4509C389.5757,-318.184 389.9349,-277.9553 390.1515,-253.6976"/>
<polygon fill="#191970" stroke="#191970" points="393.6528,-253.5558 390.2423,-243.5249 386.6531,-253.4932 393.6528,-253.5558"/>
</g>
<!-- Node10 -->
<g id="node11" class="node">
<title>Node10</title>
<g id="a_node11"><a xlink:href="l4_2sys_2ipc_8h.html" target="_top" xlink:title="Common IPC interface. ">
<polygon fill="#ffffff" stroke="#000000" points="421.3274,-280.5 421.3274,-299.5 489.3274,-299.5 489.3274,-280.5 421.3274,-280.5"/>
<text text-anchor="middle" x="455.3274" y="-287.5" font-family="Helvetica,sans-Serif" font-size="10.00" fill="#000000">l4/sys/ipc.h</text>
</a>
</g>
</g>
<!-- Node3&#45;&gt;Node10 -->
<g id="edge18" class="edge">
<title>Node3&#45;&gt;Node10</title>
<path fill="none" stroke="#191970" d="M400.8237,-336.2455C410.5716,-327.9746 424.7533,-315.9416 436.2071,-306.2232"/>
<polygon fill="#191970" stroke="#191970" points="438.6021,-308.7813 443.9628,-299.6427 434.0732,-303.4437 438.6021,-308.7813"/>
</g>
<!-- Node4&#45;&gt;Node1 -->
<g id="edge6" class="edge">
<title>Node4&#45;&gt;Node1</title>
<path fill="none" stroke="#191970" d="M345.1955,-168.4804C359.479,-160.2276 379.3549,-147.2333 393.3274,-132 406.1287,-118.0436 416.501,-99.0433 423.155,-85.0124"/>
<polygon fill="#191970" stroke="#191970" points="426.3823,-86.3701 427.3245,-75.8172 420.0071,-83.4792 426.3823,-86.3701"/>
</g>
<!-- Node5 -->
<g id="node6" class="node">
<title>Node5</title>
<g id="a_node6"><a xlink:href="l4_2sys_2l4int_8h.html" target="_top" xlink:title="Fixed sized integer types, generic version. ">
<polygon fill="#ffffff" stroke="#000000" points="68.3274,-56.5 68.3274,-75.5 142.3274,-75.5 142.3274,-56.5 68.3274,-56.5"/>
<text text-anchor="middle" x="105.3274" y="-63.5" font-family="Helvetica,sans-Serif" font-size="10.00" fill="#000000">l4/sys/l4int.h</text>
</a>
</g>
</g>
<!-- Node4&#45;&gt;Node5 -->
<g id="edge5" class="edge">
<title>Node4&#45;&gt;Node5</title>
<path fill="none" stroke="#191970" d="M287.2993,-173.3C252.3874,-167.7437 201.4956,-156.017 163.3274,-132 143.8684,-119.7556 127.2182,-99.0519 116.8143,-84.0938"/>
<polygon fill="#191970" stroke="#191970" points="119.6391,-82.0215 111.1743,-75.6497 113.8181,-85.9094 119.6391,-82.0215"/>
</g>
<!-- Node6 -->
<g id="node7" class="node">
<title>Node6</title>
<g id="a_node7"><a xlink:href="l4_2sys_2consts_8h.html" target="_top" xlink:title="Common constants. ">
<polygon fill="#ffffff" stroke="#000000" points="172.3274,-112.5 172.3274,-131.5 258.3274,-131.5 258.3274,-112.5 172.3274,-112.5"/>
<text text-anchor="middle" x="215.3274" y="-119.5" font-family="Helvetica,sans-Serif" font-size="10.00" fill="#000000">l4/sys/consts.h</text>
</a>
</g>
</g>
<!-- Node4&#45;&gt;Node6 -->
<g id="edge7" class="edge">
<title>Node4&#45;&gt;Node6</title>
<path fill="none" stroke="#191970" d="M308.0739,-168.3733C290.2562,-159.4644 263.5527,-146.1127 243.3679,-136.0203"/>
<polygon fill="#191970" stroke="#191970" points="244.8392,-132.8428 234.3296,-131.5011 241.7086,-139.1038 244.8392,-132.8428"/>
</g>
<!-- Node7 -->
<g id="node8" class="node">
<title>Node7</title>
<g id="a_node8"><a xlink:href="____l4__fpage_8h_source.html" target="_top" xlink:title="l4/sys/__l4_fpage.h">
<polygon fill="#ffffff" stroke="#000000" points="276.3274,-112.5 276.3274,-131.5 384.3274,-131.5 384.3274,-112.5 276.3274,-112.5"/>
<text text-anchor="middle" x="330.3274" y="-119.5" font-family="Helvetica,sans-Serif" font-size="10.00" fill="#000000">l4/sys/__l4_fpage.h</text>
</a>
</g>
</g>
<!-- Node4&#45;&gt;Node7 -->
<g id="edge10" class="edge">
<title>Node4&#45;&gt;Node7</title>
<path fill="none" stroke="#191970" d="M327.8499,-168.2455C328.2414,-160.9382 328.7902,-150.6944 329.2718,-141.7046"/>
<polygon fill="#191970" stroke="#191970" points="332.7707,-141.8156 329.8108,-131.6427 325.7808,-141.4411 332.7707,-141.8156"/>
</g>
<!-- Node8 -->
<g id="node9" class="node">
<title>Node8</title>
<g id="a_node9"><a xlink:href="____timeout_8h_source.html" target="_top" xlink:title="l4/sys/__timeout.h">
<polygon fill="#ffffff" stroke="#000000" points="14.8274,-112.5 14.8274,-131.5 115.8274,-131.5 115.8274,-112.5 14.8274,-112.5"/>
<text text-anchor="middle" x="65.3274" y="-119.5" font-family="Helvetica,sans-Serif" font-size="10.00" fill="#000000">l4/sys/__timeout.h</text>
</a>
</g>
</g>
<!-- Node4&#45;&gt;Node8 -->
<g id="edge12" class="edge">
<title>Node4&#45;&gt;Node8</title>
<path fill="none" stroke="#191970" d="M287.25,-169.4338C242.4578,-159.8599 169.6806,-144.3045 119.7603,-133.6345"/>
<polygon fill="#191970" stroke="#191970" points="120.2955,-130.1699 109.7848,-131.5024 118.8324,-137.0153 120.2955,-130.1699"/>
</g>
<!-- Node6&#45;&gt;Node1 -->
<g id="edge8" class="edge">
<title>Node6&#45;&gt;Node1</title>
<path fill="none" stroke="#191970" d="M252.4591,-112.3733C289.154,-102.8598 345.3912,-88.2797 384.9925,-78.0127"/>
<polygon fill="#191970" stroke="#191970" points="385.8786,-81.3988 394.6802,-75.5011 384.1218,-74.6228 385.8786,-81.3988"/>
</g>
<!-- Node6&#45;&gt;Node5 -->
<g id="edge9" class="edge">
<title>Node6&#45;&gt;Node5</title>
<path fill="none" stroke="#191970" d="M196.1668,-112.2455C178.8162,-103.4125 153.0373,-90.2887 133.3691,-80.2758"/>
<polygon fill="#191970" stroke="#191970" points="134.7679,-77.0605 124.2683,-75.6427 131.5921,-83.2986 134.7679,-77.0605"/>
</g>
<!-- Node7&#45;&gt;Node1 -->
<g id="edge11" class="edge">
<title>Node7&#45;&gt;Node1</title>
<path fill="none" stroke="#191970" d="M347.9202,-112.2455C363.7064,-103.4928 387.0912,-90.527 405.0861,-80.5496"/>
<polygon fill="#191970" stroke="#191970" points="406.8876,-83.5528 413.9361,-75.6427 403.4932,-77.4308 406.8876,-83.5528"/>
</g>
<!-- Node8&#45;&gt;Node5 -->
<g id="edge13" class="edge">
<title>Node8&#45;&gt;Node5</title>
<path fill="none" stroke="#191970" d="M72.2948,-112.2455C77.8585,-104.4564 85.8054,-93.3308 92.5103,-83.9439"/>
<polygon fill="#191970" stroke="#191970" points="95.4754,-85.8144 98.4397,-75.6427 89.7792,-81.7457 95.4754,-85.8144"/>
</g>
<!-- Node9&#45;&gt;Node1 -->
<g id="edge16" class="edge">
<title>Node9&#45;&gt;Node1</title>
<path fill="none" stroke="#191970" d="M392.6492,-224.4862C399.1584,-197.8144 417.6822,-121.9117 426.5208,-85.695"/>
<polygon fill="#191970" stroke="#191970" points="429.9581,-86.3726 428.9289,-75.8279 423.1577,-84.7129 429.9581,-86.3726"/>
</g>
<!-- Node9&#45;&gt;Node4 -->
<g id="edge15" class="edge">
<title>Node9&#45;&gt;Node4</title>
<path fill="none" stroke="#191970" d="M379.3536,-224.2455C370.1391,-216.0549 356.7741,-204.1749 345.8977,-194.5069"/>
<polygon fill="#191970" stroke="#191970" points="347.9748,-191.6704 338.1754,-187.6427 343.3242,-196.9023 347.9748,-191.6704"/>
</g>
<!-- Node9&#45;&gt;Node5 -->
<g id="edge17" class="edge">
<title>Node9&#45;&gt;Node5</title>
<path fill="none" stroke="#191970" d="M353.1585,-229.8465C265.1384,-219.1677 48.1307,-187.6201 5.3274,-132 -13.7483,-107.2125 24.0833,-88.774 58.5532,-77.7776"/>
<polygon fill="#191970" stroke="#191970" points="59.5807,-81.1235 68.1363,-74.8744 57.551,-74.4242 59.5807,-81.1235"/>
</g>
<!-- Node10&#45;&gt;Node4 -->
<g id="edge19" class="edge">
<title>Node10&#45;&gt;Node4</title>
<path fill="none" stroke="#191970" d="M455.0648,-280.2474C454.1797,-266.1604 450.5741,-240.0523 436.3274,-224 420.9674,-206.6934 398.0172,-195.7106 377.1319,-188.8374"/>
<polygon fill="#191970" stroke="#191970" points="377.9887,-185.4396 367.4027,-185.8723 375.9479,-192.1356 377.9887,-185.4396"/>
</g>
<!-- Node10&#45;&gt;Node9 -->
<g id="edge20" class="edge">
<title>Node10&#45;&gt;Node9</title>
<path fill="none" stroke="#191970" d="M444.0052,-280.2455C434.405,-271.9746 420.4382,-259.9416 409.1579,-250.2232"/>
<polygon fill="#191970" stroke="#191970" points="411.3804,-247.5182 401.5197,-243.6427 406.8114,-252.8214 411.3804,-247.5182"/>
</g>
<!-- Node11 -->
<g id="node12" class="node">
<title>Node11</title>
<g id="a_node12"><a xlink:href="err_8h.html" target="_top" xlink:title="Error codes. ">
<polygon fill="#ffffff" stroke="#000000" points="460.3274,-168.5 460.3274,-187.5 528.3274,-187.5 528.3274,-168.5 460.3274,-168.5"/>
<text text-anchor="middle" x="494.3274" y="-175.5" font-family="Helvetica,sans-Serif" font-size="10.00" fill="#000000">l4/sys/err.h</text>
</a>
</g>
</g>
<!-- Node10&#45;&gt;Node11 -->
<g id="edge21" class="edge">
<title>Node10&#45;&gt;Node11</title>
<path fill="none" stroke="#191970" d="M458.6525,-280.4509C465.0709,-262.0186 479.2757,-221.2254 487.6963,-197.043"/>
<polygon fill="#191970" stroke="#191970" points="491.0275,-198.1197 491.0107,-187.5249 484.4168,-195.8177 491.0275,-198.1197"/>
</g>
<!-- Node11&#45;&gt;Node1 -->
<g id="edge22" class="edge">
<title>Node11&#45;&gt;Node1</title>
<path fill="none" stroke="#191970" d="M490.6192,-168.31C485.44,-155.1796 475.4201,-131.1748 464.3274,-112 458.7613,-102.3785 451.6727,-92.2805 445.4931,-84.0048"/>
<polygon fill="#191970" stroke="#191970" points="448.1127,-81.6686 439.2594,-75.8488 442.5512,-85.9193 448.1127,-81.6686"/>
</g>
<!-- Node12&#45;&gt;Node10 -->
<g id="edge24" class="edge">
<title>Node12&#45;&gt;Node10</title>
<path fill="none" stroke="#191970" d="M483.405,-336.2455C478.7247,-328.5367 472.0601,-317.5598 466.3985,-308.2348"/>
<polygon fill="#191970" stroke="#191970" points="469.3634,-306.3741 461.1818,-299.6427 463.3799,-310.007 469.3634,-306.3741"/>
</g>
</g>
</svg>
