<?xml version="1.0" encoding="UTF-8" standalone="no"?>
<!DOCTYPE svg PUBLIC "-//W3C//DTD SVG 1.1//EN"
 "http://www.w3.org/Graphics/SVG/1.1/DTD/svg11.dtd">
<!-- Generated by graphviz version 2.40.1 (20161225.0304)
 -->
<!-- Title: l4/sys/meta Pages: 1 -->
<svg width="662pt" height="655pt"
 viewBox="0.00 0.00 662.36 655.00" xmlns="http://www.w3.org/2000/svg" xmlns:xlink="http://www.w3.org/1999/xlink">
<g id="graph0" class="graph" transform="scale(1 1) rotate(0) translate(4 651)">
<title>l4/sys/meta</title>
<polygon fill="#ffffff" stroke="transparent" points="-4,4 -4,-651 658.3621,-651 658.3621,4 -4,4"/>
<!-- Node0 -->
<g id="node1" class="node">
<title>Node0</title>
<polygon fill="#bfbfbf" stroke="#000000" points="341.8621,-627.5 341.8621,-646.5 411.8621,-646.5 411.8621,-627.5 341.8621,-627.5"/>
<text text-anchor="middle" x="376.8621" y="-634.5" font-family="Helvetica,sans-Serif" font-size="10.00" fill="#000000">l4/sys/meta</text>
</g>
<!-- Node1 -->
<g id="node2" class="node">
<title>Node1</title>
<g id="a_node2"><a xlink:href="kobject_source.html" target="_top" xlink:title="kobject">
<polygon fill="#ffffff" stroke="#000000" points="260.8621,-515.5 260.8621,-534.5 310.8621,-534.5 310.8621,-515.5 260.8621,-515.5"/>
<text text-anchor="middle" x="285.8621" y="-522.5" font-family="Helvetica,sans-Serif" font-size="10.00" fill="#000000">kobject</text>
</a>
</g>
</g>
<!-- Node0&#45;&gt;Node1 -->
<g id="edge1" class="edge">
<title>Node0&#45;&gt;Node1</title>
<path fill="none" stroke="#191970" d="M369.1035,-627.4509C353.7914,-608.6054 319.4873,-566.3849 300.0336,-542.4419"/>
<polygon fill="#191970" stroke="#191970" points="302.6234,-540.079 293.601,-534.5249 297.1906,-544.4931 302.6234,-540.079"/>
</g>
<!-- Node19 -->
<g id="node20" class="node">
<title>Node19</title>
<g id="a_node20"><a xlink:href="ipc__iface.html" target="_top" xlink:title="Interface Definition Language. ">
<polygon fill="#ffffff" stroke="#000000" points="338.3621,-515.5 338.3621,-534.5 415.3621,-534.5 415.3621,-515.5 338.3621,-515.5"/>
<text text-anchor="middle" x="376.8621" y="-522.5" font-family="Helvetica,sans-Serif" font-size="10.00" fill="#000000">cxx/ipc_iface</text>
</a>
</g>
</g>
<!-- Node0&#45;&gt;Node19 -->
<g id="edge40" class="edge">
<title>Node0&#45;&gt;Node19</title>
<path fill="none" stroke="#191970" d="M376.8621,-627.4509C376.8621,-609.184 376.8621,-568.9553 376.8621,-544.6976"/>
<polygon fill="#191970" stroke="#191970" points="380.3622,-544.5249 376.8621,-534.5249 373.3622,-544.5249 380.3622,-544.5249"/>
</g>
<!-- Node21 -->
<g id="node22" class="node">
<title>Node21</title>
<g id="a_node22"><a xlink:href="ipc__string_source.html" target="_top" xlink:title="cxx/ipc_string">
<polygon fill="#ffffff" stroke="#000000" points="445.3621,-571.5 445.3621,-590.5 526.3621,-590.5 526.3621,-571.5 445.3621,-571.5"/>
<text text-anchor="middle" x="485.8621" y="-578.5" font-family="Helvetica,sans-Serif" font-size="10.00" fill="#000000">cxx/ipc_string</text>
</a>
</g>
</g>
<!-- Node0&#45;&gt;Node21 -->
<g id="edge47" class="edge">
<title>Node0&#45;&gt;Node21</title>
<path fill="none" stroke="#191970" d="M395.8484,-627.2455C413.0413,-618.4125 438.5859,-605.2887 458.0753,-595.2758"/>
<polygon fill="#191970" stroke="#191970" points="459.798,-598.3257 467.0933,-590.6427 456.5991,-592.0993 459.798,-598.3257"/>
</g>
<!-- Node2 -->
<g id="node3" class="node">
<title>Node2</title>
<g id="a_node3"><a xlink:href="kernel__object_8h.html" target="_top" xlink:title="Kernel object system calls. ">
<polygon fill="#ffffff" stroke="#000000" points="266.8621,-403.5 266.8621,-422.5 354.8621,-422.5 354.8621,-403.5 266.8621,-403.5"/>
<text text-anchor="middle" x="310.8621" y="-410.5" font-family="Helvetica,sans-Serif" font-size="10.00" fill="#000000">kernel_object.h</text>
</a>
</g>
</g>
<!-- Node1&#45;&gt;Node2 -->
<g id="edge2" class="edge">
<title>Node1&#45;&gt;Node2</title>
<path fill="none" stroke="#191970" d="M286.5603,-515.4912C287.6446,-502.5661 290.1203,-478.7933 294.8621,-459 297.0228,-449.9807 300.2692,-440.2455 303.2744,-432.0636"/>
<polygon fill="#191970" stroke="#191970" points="306.5517,-433.2921 306.8519,-422.7015 300.0129,-430.7934 306.5517,-433.2921"/>
</g>
<!-- Node3 -->
<g id="node4" class="node">
<title>Node3</title>
<g id="a_node4"><a xlink:href="l4_2sys_2types_8h.html" target="_top" xlink:title="Common L4 ABI Data Types. ">
<polygon fill="#ffffff" stroke="#000000" points="137.8621,-168.5 137.8621,-187.5 217.8621,-187.5 217.8621,-168.5 137.8621,-168.5"/>
<text text-anchor="middle" x="177.8621" y="-175.5" font-family="Helvetica,sans-Serif" font-size="10.00" fill="#000000">l4/sys/types.h</text>
</a>
</g>
</g>
<!-- Node1&#45;&gt;Node3 -->
<g id="edge26" class="edge">
<title>Node1&#45;&gt;Node3</title>
<path fill="none" stroke="#191970" d="M260.74,-523.6669C203.2158,-519.1256 66.8621,-499.263 66.8621,-413 66.8621,-413 66.8621,-413 66.8621,-290 66.8621,-244.029 114.6224,-210.1769 147.4861,-192.325"/>
<polygon fill="#191970" stroke="#191970" points="149.4732,-195.2362 156.7225,-187.5099 146.2372,-189.0291 149.4732,-195.2362"/>
</g>
<!-- Node14 -->
<g id="node15" class="node">
<title>Node14</title>
<g id="a_node15"><a xlink:href="____typeinfo_8h.html" target="_top" xlink:title="Type information handling. ">
<polygon fill="#ffffff" stroke="#000000" points="303.8621,-459.5 303.8621,-478.5 377.8621,-478.5 377.8621,-459.5 303.8621,-459.5"/>
<text text-anchor="middle" x="340.8621" y="-466.5" font-family="Helvetica,sans-Serif" font-size="10.00" fill="#000000">__typeinfo.h</text>
</a>
</g>
</g>
<!-- Node1&#45;&gt;Node14 -->
<g id="edge27" class="edge">
<title>Node1&#45;&gt;Node14</title>
<path fill="none" stroke="#191970" d="M295.4423,-515.2455C303.4078,-507.1352 314.9261,-495.4075 324.37,-485.7919"/>
<polygon fill="#191970" stroke="#191970" points="326.8816,-488.2297 331.3916,-478.6427 321.8874,-483.3247 326.8816,-488.2297"/>
</g>
<!-- Node2&#45;&gt;Node3 -->
<g id="edge3" class="edge">
<title>Node2&#45;&gt;Node3</title>
<path fill="none" stroke="#191970" d="M271.7906,-403.4843C229.9355,-392.8993 168.5728,-376.0951 161.8621,-367 123.9755,-315.6525 152.6138,-233.7465 168.7723,-196.9665"/>
<polygon fill="#191970" stroke="#191970" points="171.9642,-198.4025 172.9333,-187.8521 165.5964,-195.4954 171.9642,-198.4025"/>
</g>
<!-- Node5 -->
<g id="node6" class="node">
<title>Node5</title>
<g id="a_node6"><a xlink:href="compiler_8h.html" target="_top" xlink:title="L4 compiler related defines. ">
<polygon fill="#ffffff" stroke="#000000" points="384.3621,-56.5 384.3621,-75.5 479.3621,-75.5 479.3621,-56.5 384.3621,-56.5"/>
<text text-anchor="middle" x="431.8621" y="-63.5" font-family="Helvetica,sans-Serif" font-size="10.00" fill="#000000">l4/sys/compiler.h</text>
</a>
</g>
</g>
<!-- Node2&#45;&gt;Node5 -->
<g id="edge14" class="edge">
<title>Node2&#45;&gt;Node5</title>
<path fill="none" stroke="#191970" d="M355.2276,-405.2865C396.5303,-397.2271 454.0318,-383.4715 469.8621,-367 494.287,-341.5856 488.8621,-325.2487 488.8621,-290 488.8621,-290 488.8621,-290 488.8621,-178 488.8621,-141.1826 464.0946,-104.2377 447.212,-83.3313"/>
<polygon fill="#191970" stroke="#191970" points="449.8752,-81.06 440.7683,-75.6456 444.511,-85.5574 449.8752,-81.06"/>
</g>
<!-- Node10 -->
<g id="node11" class="node">
<title>Node10</title>
<g id="a_node11"><a xlink:href="l4_2sys_2utcb_8h.html" target="_top" xlink:title="UTCB definitions. ">
<polygon fill="#ffffff" stroke="#000000" points="246.8621,-224.5 246.8621,-243.5 320.8621,-243.5 320.8621,-224.5 246.8621,-224.5"/>
<text text-anchor="middle" x="283.8621" y="-231.5" font-family="Helvetica,sans-Serif" font-size="10.00" fill="#000000">l4/sys/utcb.h</text>
</a>
</g>
</g>
<!-- Node2&#45;&gt;Node10 -->
<g id="edge15" class="edge">
<title>Node2&#45;&gt;Node10</title>
<path fill="none" stroke="#191970" d="M309.0855,-403.3495C305.5318,-383.861 297.4136,-338.3929 291.8621,-300 289.6391,-284.6266 287.5425,-267.1772 286.0537,-254.083"/>
<polygon fill="#191970" stroke="#191970" points="289.5004,-253.4094 284.914,-243.8587 282.5435,-254.1849 289.5004,-253.4094"/>
</g>
<!-- Node11 -->
<g id="node12" class="node">
<title>Node11</title>
<g id="a_node12"><a xlink:href="____kernel__object__impl_8h.html" target="_top" xlink:title="Low&#45;level kernel debugger functions. ">
<polygon fill="#ffffff" stroke="#000000" points="338.8621,-336.5 338.8621,-366.5 460.8621,-366.5 460.8621,-336.5 338.8621,-336.5"/>
<text text-anchor="start" x="346.8621" y="-354.5" font-family="Helvetica,sans-Serif" font-size="10.00" fill="#000000">l4/sys/__kernel_object</text>
<text text-anchor="middle" x="399.8621" y="-343.5" font-family="Helvetica,sans-Serif" font-size="10.00" fill="#000000">_impl.h</text>
</a>
</g>
</g>
<!-- Node2&#45;&gt;Node11 -->
<g id="edge19" class="edge">
<title>Node2&#45;&gt;Node11</title>
<path fill="none" stroke="#191970" d="M324.7683,-403.3906C336.7019,-395.1444 354.3247,-382.9669 369.4997,-372.4807"/>
<polygon fill="#191970" stroke="#191970" points="371.853,-375.1089 378.0902,-366.5446 367.8736,-369.3501 371.853,-375.1089"/>
</g>
<!-- Node12 -->
<g id="node13" class="node">
<title>Node12</title>
<g id="a_node13"><a xlink:href="l4_2sys_2ipc_8h.html" target="_top" xlink:title="Common IPC interface. ">
<polygon fill="#ffffff" stroke="#000000" points="300.8621,-280.5 300.8621,-299.5 368.8621,-299.5 368.8621,-280.5 300.8621,-280.5"/>
<text text-anchor="middle" x="334.8621" y="-287.5" font-family="Helvetica,sans-Serif" font-size="10.00" fill="#000000">l4/sys/ipc.h</text>
</a>
</g>
</g>
<!-- Node2&#45;&gt;Node12 -->
<g id="edge25" class="edge">
<title>Node2&#45;&gt;Node12</title>
<path fill="none" stroke="#191970" d="M312.7453,-403.3484C316.6709,-383.2295 325.7965,-336.4608 331.0163,-309.7098"/>
<polygon fill="#191970" stroke="#191970" points="334.5076,-310.092 332.9876,-299.6068 327.6372,-308.7514 334.5076,-310.092"/>
</g>
<!-- Node4 -->
<g id="node5" class="node">
<title>Node4</title>
<g id="a_node5"><a xlink:href="l4_2sys_2l4int_8h.html" target="_top" xlink:title="Fixed sized integer types, generic version. ">
<polygon fill="#ffffff" stroke="#000000" points="84.8621,-56.5 84.8621,-75.5 158.8621,-75.5 158.8621,-56.5 84.8621,-56.5"/>
<text text-anchor="middle" x="121.8621" y="-63.5" font-family="Helvetica,sans-Serif" font-size="10.00" fill="#000000">l4/sys/l4int.h</text>
</a>
</g>
</g>
<!-- Node3&#45;&gt;Node4 -->
<g id="edge4" class="edge">
<title>Node3&#45;&gt;Node4</title>
<path fill="none" stroke="#191970" d="M137.6847,-172.9108C92.0453,-166.2083 21.8145,-152.7795 5.8621,-132 -16.5579,-102.7961 33.5449,-84.4183 74.7787,-74.6783"/>
<polygon fill="#191970" stroke="#191970" points="75.7588,-78.0456 84.7517,-72.444 74.2284,-71.2149 75.7588,-78.0456"/>
</g>
<!-- Node3&#45;&gt;Node5 -->
<g id="edge5" class="edge">
<title>Node3&#45;&gt;Node5</title>
<path fill="none" stroke="#191970" d="M218.1154,-173.3832C272.6218,-166.4748 366.2715,-152.0791 393.8621,-132 409.5187,-120.6059 419.6981,-100.6481 425.5431,-85.654"/>
<polygon fill="#191970" stroke="#191970" points="428.9922,-86.4013 429.0495,-75.8066 422.3978,-84.0532 428.9922,-86.4013"/>
</g>
<!-- Node7 -->
<g id="node8" class="node">
<title>Node7</title>
<g id="a_node8"><a xlink:href="l4_2sys_2consts_8h.html" target="_top" xlink:title="Common constants. ">
<polygon fill="#ffffff" stroke="#000000" points="134.8621,-112.5 134.8621,-131.5 220.8621,-131.5 220.8621,-112.5 134.8621,-112.5"/>
<text text-anchor="middle" x="177.8621" y="-119.5" font-family="Helvetica,sans-Serif" font-size="10.00" fill="#000000">l4/sys/consts.h</text>
</a>
</g>
</g>
<!-- Node3&#45;&gt;Node7 -->
<g id="edge7" class="edge">
<title>Node3&#45;&gt;Node7</title>
<path fill="none" stroke="#191970" d="M177.8621,-168.2455C177.8621,-160.9382 177.8621,-150.6944 177.8621,-141.7046"/>
<polygon fill="#191970" stroke="#191970" points="181.3622,-141.6426 177.8621,-131.6427 174.3622,-141.6427 181.3622,-141.6426"/>
</g>
<!-- Node8 -->
<g id="node9" class="node">
<title>Node8</title>
<g id="a_node9"><a xlink:href="____l4__fpage_8h_source.html" target="_top" xlink:title="l4/sys/__l4_fpage.h">
<polygon fill="#ffffff" stroke="#000000" points="276.8621,-112.5 276.8621,-131.5 384.8621,-131.5 384.8621,-112.5 276.8621,-112.5"/>
<text text-anchor="middle" x="330.8621" y="-119.5" font-family="Helvetica,sans-Serif" font-size="10.00" fill="#000000">l4/sys/__l4_fpage.h</text>
</a>
</g>
</g>
<!-- Node3&#45;&gt;Node8 -->
<g id="edge10" class="edge">
<title>Node3&#45;&gt;Node8</title>
<path fill="none" stroke="#191970" d="M204.1637,-168.3733C229.2749,-159.1822 267.3059,-145.2624 295.1493,-135.0713"/>
<polygon fill="#191970" stroke="#191970" points="296.7159,-138.2251 304.9036,-131.5011 294.3099,-131.6516 296.7159,-138.2251"/>
</g>
<!-- Node9 -->
<g id="node10" class="node">
<title>Node9</title>
<g id="a_node10"><a xlink:href="____timeout_8h_source.html" target="_top" xlink:title="l4/sys/__timeout.h">
<polygon fill="#ffffff" stroke="#000000" points="15.3621,-112.5 15.3621,-131.5 116.3621,-131.5 116.3621,-112.5 15.3621,-112.5"/>
<text text-anchor="middle" x="65.8621" y="-119.5" font-family="Helvetica,sans-Serif" font-size="10.00" fill="#000000">l4/sys/__timeout.h</text>
</a>
</g>
</g>
<!-- Node3&#45;&gt;Node9 -->
<g id="edge12" class="edge">
<title>Node3&#45;&gt;Node9</title>
<path fill="none" stroke="#191970" d="M158.6086,-168.3733C140.7909,-159.4644 114.0874,-146.1127 93.9027,-136.0203"/>
<polygon fill="#191970" stroke="#191970" points="95.3739,-132.8428 84.8643,-131.5011 92.2433,-139.1038 95.3739,-132.8428"/>
</g>
<!-- Node6 -->
<g id="node7" class="node">
<title>Node6</title>
<polygon fill="#ffffff" stroke="#bfbfbf" points="387.3621,-.5 387.3621,-19.5 476.3621,-19.5 476.3621,-.5 387.3621,-.5"/>
<text text-anchor="middle" x="431.8621" y="-7.5" font-family="Helvetica,sans-Serif" font-size="10.00" fill="#000000">l4/sys/linkage.h</text>
</g>
<!-- Node5&#45;&gt;Node6 -->
<g id="edge6" class="edge">
<title>Node5&#45;&gt;Node6</title>
<path fill="none" stroke="#191970" d="M431.8621,-56.2455C431.8621,-48.9382 431.8621,-38.6944 431.8621,-29.7046"/>
<polygon fill="#191970" stroke="#191970" points="435.3622,-29.6426 431.8621,-19.6427 428.3622,-29.6427 435.3622,-29.6426"/>
</g>
<!-- Node7&#45;&gt;Node4 -->
<g id="edge9" class="edge">
<title>Node7&#45;&gt;Node4</title>
<path fill="none" stroke="#191970" d="M168.1076,-112.2455C159.9973,-104.1352 148.2696,-92.4075 138.654,-82.7919"/>
<polygon fill="#191970" stroke="#191970" points="141.0507,-80.2389 131.5047,-75.6427 136.101,-85.1887 141.0507,-80.2389"/>
</g>
<!-- Node7&#45;&gt;Node5 -->
<g id="edge8" class="edge">
<title>Node7&#45;&gt;Node5</title>
<path fill="none" stroke="#191970" d="M220.9497,-112.5004C264.4643,-102.9066 331.7682,-88.0679 378.6019,-77.7424"/>
<polygon fill="#191970" stroke="#191970" points="379.5512,-81.1173 388.5631,-75.5462 378.044,-74.2814 379.5512,-81.1173"/>
</g>
<!-- Node8&#45;&gt;Node5 -->
<g id="edge11" class="edge">
<title>Node8&#45;&gt;Node5</title>
<path fill="none" stroke="#191970" d="M348.4549,-112.2455C364.2411,-103.4928 387.6259,-90.527 405.6208,-80.5496"/>
<polygon fill="#191970" stroke="#191970" points="407.4223,-83.5528 414.4708,-75.6427 404.028,-77.4308 407.4223,-83.5528"/>
</g>
<!-- Node9&#45;&gt;Node4 -->
<g id="edge13" class="edge">
<title>Node9&#45;&gt;Node4</title>
<path fill="none" stroke="#191970" d="M75.6165,-112.2455C83.7268,-104.1352 95.4546,-92.4075 105.0702,-82.7919"/>
<polygon fill="#191970" stroke="#191970" points="107.6232,-85.1887 112.2194,-75.6427 102.6734,-80.2389 107.6232,-85.1887"/>
</g>
<!-- Node10&#45;&gt;Node3 -->
<g id="edge16" class="edge">
<title>Node10&#45;&gt;Node3</title>
<path fill="none" stroke="#191970" d="M265.3983,-224.2455C248.7546,-215.4527 224.0628,-202.4079 205.1429,-192.4125"/>
<polygon fill="#191970" stroke="#191970" points="206.5912,-189.2193 196.1143,-187.6427 203.3213,-195.4086 206.5912,-189.2193"/>
</g>
<!-- Node10&#45;&gt;Node4 -->
<g id="edge18" class="edge">
<title>Node10&#45;&gt;Node4</title>
<path fill="none" stroke="#191970" d="M282.1147,-224.3902C277.5387,-201.8187 263.1781,-144.8513 229.8621,-112 213.1377,-95.5089 189.5833,-84.5432 168.738,-77.4702"/>
<polygon fill="#191970" stroke="#191970" points="169.6663,-74.0928 159.0758,-74.3962 167.544,-80.7633 169.6663,-74.0928"/>
</g>
<!-- Node10&#45;&gt;Node5 -->
<g id="edge17" class="edge">
<title>Node10&#45;&gt;Node5</title>
<path fill="none" stroke="#191970" d="M304.1012,-224.2832C333.7224,-208.9705 388.4395,-176.3416 416.8621,-132 425.6802,-118.243 429.3443,-99.9566 430.8518,-86.1212"/>
<polygon fill="#191970" stroke="#191970" points="434.3732,-85.9893 431.6766,-75.7434 427.3952,-85.4346 434.3732,-85.9893"/>
</g>
<!-- Node11&#45;&gt;Node12 -->
<g id="edge20" class="edge">
<title>Node11&#45;&gt;Node12</title>
<path fill="none" stroke="#191970" d="M383.7947,-336.2977C374.396,-327.4052 362.5093,-316.1586 352.8051,-306.9769"/>
<polygon fill="#191970" stroke="#191970" points="354.9388,-304.1774 345.2694,-299.8469 350.1279,-309.2621 354.9388,-304.1774"/>
</g>
<!-- Node12&#45;&gt;Node3 -->
<g id="edge21" class="edge">
<title>Node12&#45;&gt;Node3</title>
<path fill="none" stroke="#191970" d="M307.7891,-280.4676C287.4192,-272.5395 259.4229,-259.9827 237.8621,-244 219.3183,-230.2538 202.027,-210.1388 190.8168,-195.7324"/>
<polygon fill="#191970" stroke="#191970" points="193.4925,-193.4681 184.6659,-187.608 187.9116,-197.6935 193.4925,-193.4681"/>
</g>
<!-- Node12&#45;&gt;Node10 -->
<g id="edge22" class="edge">
<title>Node12&#45;&gt;Node10</title>
<path fill="none" stroke="#191970" d="M325.9786,-280.2455C318.6655,-272.2155 308.1229,-260.6394 299.4154,-251.0781"/>
<polygon fill="#191970" stroke="#191970" points="301.9648,-248.6795 292.6438,-243.6427 296.7894,-253.3928 301.9648,-248.6795"/>
</g>
<!-- Node13 -->
<g id="node14" class="node">
<title>Node13</title>
<g id="a_node14"><a xlink:href="err_8h.html" target="_top" xlink:title="Error codes. ">
<polygon fill="#ffffff" stroke="#000000" points="516.8621,-224.5 516.8621,-243.5 584.8621,-243.5 584.8621,-224.5 516.8621,-224.5"/>
<text text-anchor="middle" x="550.8621" y="-231.5" font-family="Helvetica,sans-Serif" font-size="10.00" fill="#000000">l4/sys/err.h</text>
</a>
</g>
</g>
<!-- Node12&#45;&gt;Node13 -->
<g id="edge23" class="edge">
<title>Node12&#45;&gt;Node13</title>
<path fill="none" stroke="#191970" d="M369.0879,-281.1266C406.3736,-271.46 466.131,-255.9673 506.8731,-245.4045"/>
<polygon fill="#191970" stroke="#191970" points="507.9948,-248.7295 516.7964,-242.8319 506.238,-241.9536 507.9948,-248.7295"/>
</g>
<!-- Node13&#45;&gt;Node5 -->
<g id="edge24" class="edge">
<title>Node13&#45;&gt;Node5</title>
<path fill="none" stroke="#191970" d="M549.1772,-224.4304C544.8954,-202.4282 531.8198,-147.4184 502.8621,-112 492.1362,-98.8811 476.6571,-88.2438 462.8877,-80.516"/>
<polygon fill="#191970" stroke="#191970" points="464.1804,-77.2394 453.7076,-75.636 460.8947,-83.4204 464.1804,-77.2394"/>
</g>
<!-- Node15 -->
<g id="node16" class="node">
<title>Node15</title>
<g id="a_node16"><a xlink:href="types.html" target="_top" xlink:title="cxx/types">
<polygon fill="#ffffff" stroke="#000000" points="593.3621,-342 593.3621,-361 654.3621,-361 654.3621,-342 593.3621,-342"/>
<text text-anchor="middle" x="623.8621" y="-349" font-family="Helvetica,sans-Serif" font-size="10.00" fill="#000000">cxx/types</text>
</a>
</g>
</g>
<!-- Node14&#45;&gt;Node15 -->
<g id="edge28" class="edge">
<title>Node14&#45;&gt;Node15</title>
<path fill="none" stroke="#191970" d="M358.8848,-459.3267C384.474,-445.7922 432.9967,-420.8607 475.8621,-403 511.6234,-388.0994 553.3943,-373.8406 583.4237,-364.1202"/>
<polygon fill="#191970" stroke="#191970" points="584.6804,-367.3928 593.1318,-361.0034 582.5406,-360.7279 584.6804,-367.3928"/>
</g>
<!-- Node16 -->
<g id="node17" class="node">
<title>Node16</title>
<g id="a_node17"><a xlink:href="ipc__basics_source.html" target="_top" xlink:title="cxx/ipc_basics">
<polygon fill="#ffffff" stroke="#000000" points="484.8621,-403.5 484.8621,-422.5 568.8621,-422.5 568.8621,-403.5 484.8621,-403.5"/>
<text text-anchor="middle" x="526.8621" y="-410.5" font-family="Helvetica,sans-Serif" font-size="10.00" fill="#000000">cxx/ipc_basics</text>
</a>
</g>
</g>
<!-- Node14&#45;&gt;Node16 -->
<g id="edge29" class="edge">
<title>Node14&#45;&gt;Node16</title>
<path fill="none" stroke="#191970" d="M372.8366,-459.3733C404.0334,-449.9807 451.633,-435.6496 485.6553,-425.4064"/>
<polygon fill="#191970" stroke="#191970" points="486.7384,-428.7355 495.3048,-422.5011 484.7203,-422.0327 486.7384,-428.7355"/>
</g>
<!-- Node17 -->
<g id="node18" class="node">
<title>Node17</title>
<g id="a_node18"><a xlink:href="capability_8h_source.html" target="_top" xlink:title="cxx/capability.h">
<polygon fill="#ffffff" stroke="#000000" points="161.3621,-403.5 161.3621,-422.5 248.3621,-422.5 248.3621,-403.5 161.3621,-403.5"/>
<text text-anchor="middle" x="204.8621" y="-410.5" font-family="Helvetica,sans-Serif" font-size="10.00" fill="#000000">cxx/capability.h</text>
</a>
</g>
</g>
<!-- Node14&#45;&gt;Node17 -->
<g id="edge33" class="edge">
<title>Node14&#45;&gt;Node17</title>
<path fill="none" stroke="#191970" d="M317.4828,-459.3733C295.3576,-450.2629 261.9487,-436.5062 237.2602,-426.3404"/>
<polygon fill="#191970" stroke="#191970" points="238.5157,-423.0723 227.9362,-422.5011 235.8504,-429.5451 238.5157,-423.0723"/>
</g>
<!-- Node16&#45;&gt;Node10 -->
<g id="edge31" class="edge">
<title>Node16&#45;&gt;Node10</title>
<path fill="none" stroke="#191970" d="M521.234,-403.0515C512.0186,-387.388 492.4581,-356.6394 469.8621,-336 424.3929,-294.4681 358.9678,-263.6744 319.055,-247.3101"/>
<polygon fill="#191970" stroke="#191970" points="320.3119,-244.0431 309.7281,-243.5586 317.6997,-250.5375 320.3119,-244.0431"/>
</g>
<!-- Node16&#45;&gt;Node13 -->
<g id="edge32" class="edge">
<title>Node16&#45;&gt;Node13</title>
<path fill="none" stroke="#191970" d="M530.5039,-403.2858C533.7895,-394.0813 538.4635,-379.7998 540.8621,-367 548.2924,-327.349 550.2408,-280.0691 550.7274,-253.9077"/>
<polygon fill="#191970" stroke="#191970" points="554.2287,-253.8191 550.8604,-243.774 547.2293,-253.7272 554.2287,-253.8191"/>
</g>
<!-- Node16&#45;&gt;Node15 -->
<g id="edge30" class="edge">
<title>Node16&#45;&gt;Node15</title>
<path fill="none" stroke="#191970" d="M542.0183,-403.3906C557.5364,-393.5519 581.8813,-378.1167 599.9905,-366.6351"/>
<polygon fill="#191970" stroke="#191970" points="602.2408,-369.3526 608.8123,-361.0419 598.4925,-363.4407 602.2408,-369.3526"/>
</g>
<!-- Node17&#45;&gt;Node3 -->
<g id="edge35" class="edge">
<title>Node17&#45;&gt;Node3</title>
<path fill="none" stroke="#191970" d="M175.2936,-403.3976C158.4513,-396.2338 138.7827,-384.6009 128.8621,-367 97.6552,-311.6336 103.6167,-282.3265 128.8621,-224 134.0958,-211.9081 144.2462,-201.5335 153.9576,-193.7139"/>
<polygon fill="#191970" stroke="#191970" points="156.3292,-196.3109 162.2441,-187.5209 152.1386,-190.7038 156.3292,-196.3109"/>
</g>
<!-- Node17&#45;&gt;Node7 -->
<g id="edge34" class="edge">
<title>Node17&#45;&gt;Node7</title>
<path fill="none" stroke="#191970" d="M163.1525,-403.4437C111.1069,-388.7603 28.8621,-355.2363 28.8621,-290 28.8621,-290 28.8621,-290 28.8621,-234 28.8621,-181.35 89.0427,-150.3847 132.9109,-134.8068"/>
<polygon fill="#191970" stroke="#191970" points="134.2073,-138.0629 142.5512,-131.5337 131.9568,-131.4346 134.2073,-138.0629"/>
</g>
<!-- Node18 -->
<g id="node19" class="node">
<title>Node18</title>
<g id="a_node19"><a xlink:href="l4_2sys_2task_8h.html" target="_top" xlink:title="Common task related definitions. ">
<polygon fill="#ffffff" stroke="#000000" points="170.8621,-342 170.8621,-361 244.8621,-361 244.8621,-342 170.8621,-342"/>
<text text-anchor="middle" x="207.8621" y="-349" font-family="Helvetica,sans-Serif" font-size="10.00" fill="#000000">l4/sys/task.h</text>
</a>
</g>
</g>
<!-- Node17&#45;&gt;Node18 -->
<g id="edge36" class="edge">
<title>Node17&#45;&gt;Node18</title>
<path fill="none" stroke="#191970" d="M205.3308,-403.3906C205.7467,-394.8657 206.3675,-382.1392 206.8902,-371.4235"/>
<polygon fill="#191970" stroke="#191970" points="210.3952,-371.4035 207.3867,-361.2449 203.4036,-371.0624 210.3952,-371.4035"/>
</g>
<!-- Node18&#45;&gt;Node3 -->
<g id="edge37" class="edge">
<title>Node18&#45;&gt;Node3</title>
<path fill="none" stroke="#191970" d="M206.2064,-341.9248C201.4642,-314.499 187.7581,-235.232 181.3024,-197.8964"/>
<polygon fill="#191970" stroke="#191970" points="184.7023,-197.0169 179.5496,-187.7595 177.8047,-198.2097 184.7023,-197.0169"/>
</g>
<!-- Node18&#45;&gt;Node10 -->
<g id="edge38" class="edge">
<title>Node18&#45;&gt;Node10</title>
<path fill="none" stroke="#191970" d="M214.0815,-341.8845C226.7184,-322.3471 255.5829,-277.7211 271.954,-252.4106"/>
<polygon fill="#191970" stroke="#191970" points="275.0645,-254.0459 277.5567,-243.7484 269.1868,-250.2442 275.0645,-254.0459"/>
</g>
<!-- Node18&#45;&gt;Node12 -->
<g id="edge39" class="edge">
<title>Node18&#45;&gt;Node12</title>
<path fill="none" stroke="#191970" d="M227.7058,-341.8906C248.6757,-331.7359 281.9565,-315.6196 305.8656,-304.0416"/>
<polygon fill="#191970" stroke="#191970" points="307.6829,-307.0504 315.1577,-299.5419 304.632,-300.7502 307.6829,-307.0504"/>
</g>
<!-- Node19&#45;&gt;Node14 -->
<g id="edge46" class="edge">
<title>Node19&#45;&gt;Node14</title>
<path fill="none" stroke="#191970" d="M370.5914,-515.2455C365.6357,-507.5367 358.5791,-496.5598 352.5844,-487.2348"/>
<polygon fill="#191970" stroke="#191970" points="355.4127,-485.1618 347.0609,-478.6427 349.5244,-488.9471 355.4127,-485.1618"/>
</g>
<!-- Node19&#45;&gt;Node16 -->
<g id="edge41" class="edge">
<title>Node19&#45;&gt;Node16</title>
<path fill="none" stroke="#191970" d="M382.6135,-515.3381C391.3346,-501.3642 409.1041,-475.3955 429.8621,-459 447.4236,-445.1293 469.85,-434.1507 488.7145,-426.4026"/>
<polygon fill="#191970" stroke="#191970" points="490.1982,-429.5797 498.2101,-422.6472 487.6238,-423.0703 490.1982,-429.5797"/>
</g>
<!-- Node20 -->
<g id="node21" class="node">
<title>Node20</title>
<g id="a_node21"><a xlink:href="ipc__types.html" target="_top" xlink:title="l4/sys/cxx/ipc_types">
<polygon fill="#ffffff" stroke="#000000" points="471.8621,-459.5 471.8621,-478.5 581.8621,-478.5 581.8621,-459.5 471.8621,-459.5"/>
<text text-anchor="middle" x="526.8621" y="-466.5" font-family="Helvetica,sans-Serif" font-size="10.00" fill="#000000">l4/sys/cxx/ipc_types</text>
</a>
</g>
</g>
<!-- Node19&#45;&gt;Node20 -->
<g id="edge42" class="edge">
<title>Node19&#45;&gt;Node20</title>
<path fill="none" stroke="#191970" d="M402.648,-515.3733C427.2668,-506.1822 464.5521,-492.2624 491.8495,-482.0713"/>
<polygon fill="#191970" stroke="#191970" points="493.2684,-485.2777 501.4126,-478.5011 490.8201,-478.7198 493.2684,-485.2777"/>
</g>
<!-- Node20&#45;&gt;Node15 -->
<g id="edge44" class="edge">
<title>Node20&#45;&gt;Node15</title>
<path fill="none" stroke="#191970" d="M539.4639,-459.2314C550.3477,-450.4388 566.1268,-436.8117 577.8621,-423 591.9739,-406.3911 605.11,-385.1552 613.7013,-370.1552"/>
<polygon fill="#191970" stroke="#191970" points="616.8224,-371.745 618.6552,-361.3099 610.715,-368.3245 616.8224,-371.745"/>
</g>
<!-- Node20&#45;&gt;Node16 -->
<g id="edge45" class="edge">
<title>Node20&#45;&gt;Node16</title>
<path fill="none" stroke="#191970" d="M526.8621,-459.2455C526.8621,-451.9382 526.8621,-441.6944 526.8621,-432.7046"/>
<polygon fill="#191970" stroke="#191970" points="530.3622,-432.6426 526.8621,-422.6427 523.3622,-432.6427 530.3622,-432.6426"/>
</g>
<!-- Node20&#45;&gt;Node17 -->
<g id="edge43" class="edge">
<title>Node20&#45;&gt;Node17</title>
<path fill="none" stroke="#191970" d="M471.6885,-459.8489C419.51,-451.1305 338.7345,-437.4688 258.7765,-423.1411"/>
<polygon fill="#191970" stroke="#191970" points="258.9852,-419.6226 248.5239,-421.2994 257.7475,-426.5123 258.9852,-419.6226"/>
</g>
<!-- Node21&#45;&gt;Node15 -->
<g id="edge48" class="edge">
<title>Node21&#45;&gt;Node15</title>
<path fill="none" stroke="#191970" d="M526.6526,-575.3846C553.3232,-569.6272 586.9678,-558.0689 607.8621,-535 648.1218,-490.55 642.7116,-462.5796 635.8621,-403 634.6279,-392.265 631.9919,-380.5145 629.504,-370.9517"/>
<polygon fill="#191970" stroke="#191970" points="632.8643,-369.9711 626.8406,-361.2553 626.1143,-371.8252 632.8643,-369.9711"/>
</g>
<!-- Node21&#45;&gt;Node16 -->
<g id="edge49" class="edge">
<title>Node21&#45;&gt;Node16</title>
<path fill="none" stroke="#191970" d="M480.0385,-571.2251C468.0453,-549.7163 443.2919,-497.1669 462.8621,-459 469.7951,-445.4789 482.7557,-435.0326 495.2102,-427.5377"/>
<polygon fill="#191970" stroke="#191970" points="497.0549,-430.5168 504.096,-422.6001 493.6548,-424.3979 497.0549,-430.5168"/>
</g>
<!-- Node22 -->
<g id="node23" class="node">
<title>Node22</title>
<g id="a_node23"><a xlink:href="ipc__array_source.html" target="_top" xlink:title="ipc_array">
<polygon fill="#ffffff" stroke="#000000" points="537.3621,-515.5 537.3621,-534.5 598.3621,-534.5 598.3621,-515.5 537.3621,-515.5"/>
<text text-anchor="middle" x="567.8621" y="-522.5" font-family="Helvetica,sans-Serif" font-size="10.00" fill="#000000">ipc_array</text>
</a>
</g>
</g>
<!-- Node21&#45;&gt;Node22 -->
<g id="edge50" class="edge">
<title>Node21&#45;&gt;Node22</title>
<path fill="none" stroke="#191970" d="M500.1454,-571.2455C512.6091,-562.7337 530.9072,-550.2375 545.3412,-540.3801"/>
<polygon fill="#191970" stroke="#191970" points="547.4583,-543.1726 553.7424,-534.6427 543.5105,-537.392 547.4583,-543.1726"/>
</g>
<!-- Node22&#45;&gt;Node15 -->
<g id="edge51" class="edge">
<title>Node22&#45;&gt;Node15</title>
<path fill="none" stroke="#191970" d="M578.7871,-515.1836C587.6237,-506.5662 599.5924,-493.2169 605.8621,-479 621.5773,-443.3649 624.2393,-397.1822 624.3362,-371.3119"/>
<polygon fill="#191970" stroke="#191970" points="627.8357,-371.2291 624.2448,-361.2614 620.836,-371.2929 627.8357,-371.2291"/>
</g>
<!-- Node22&#45;&gt;Node16 -->
<g id="edge52" class="edge">
<title>Node22&#45;&gt;Node16</title>
<path fill="none" stroke="#191970" d="M576.0513,-515.2598C586.0811,-502.0725 600.6062,-478.0036 590.8621,-459 583.9291,-445.4789 570.9684,-435.0326 558.514,-427.5377"/>
<polygon fill="#191970" stroke="#191970" points="560.0693,-424.3979 549.6281,-422.6001 556.6693,-430.5168 560.0693,-424.3979"/>
</g>
<!-- Node22&#45;&gt;Node20 -->
<g id="edge53" class="edge">
<title>Node22&#45;&gt;Node20</title>
<path fill="none" stroke="#191970" d="M560.7204,-515.2455C555.0177,-507.4564 546.8721,-496.3308 539.9996,-486.9439"/>
<polygon fill="#191970" stroke="#191970" points="542.6533,-484.6437 533.9219,-478.6427 537.0053,-488.7789 542.6533,-484.6437"/>
</g>
</g>
</svg>
