<?xml version="1.0" encoding="UTF-8" standalone="no"?>
<!DOCTYPE svg PUBLIC "-//W3C//DTD SVG 1.1//EN"
 "http://www.w3.org/Graphics/SVG/1.1/DTD/svg11.dtd">
<!-- Generated by graphviz version 2.40.1 (20161225.0304)
 -->
<!-- Title: arm/l4f/l4/sys/syscall_defs.h Pages: 1 -->
<svg width="368pt" height="95pt"
 viewBox="0.00 0.00 368.00 95.00" xmlns="http://www.w3.org/2000/svg" xmlns:xlink="http://www.w3.org/1999/xlink">
<g id="graph0" class="graph" transform="scale(1 1) rotate(0) translate(4 91)">
<title>arm/l4f/l4/sys/syscall_defs.h</title>
<polygon fill="#ffffff" stroke="transparent" points="-4,4 -4,-91 364,-91 364,4 -4,4"/>
<!-- Node1 -->
<g id="node1" class="node">
<title>Node1</title>
<polygon fill="#bfbfbf" stroke="#000000" points="117.5,-56.5 117.5,-86.5 230.5,-86.5 230.5,-56.5 117.5,-56.5"/>
<text text-anchor="start" x="125.5" y="-74.5" font-family="Helvetica,sans-Serif" font-size="10.00" fill="#000000">arm/l4f/l4/sys/syscall</text>
<text text-anchor="middle" x="174" y="-63.5" font-family="Helvetica,sans-Serif" font-size="10.00" fill="#000000">_defs.h</text>
</g>
<!-- Node2 -->
<g id="node2" class="node">
<title>Node2</title>
<g id="a_node2"><a xlink:href="arm_2l4f_2l4_2sys_2ipc_8h.html" target="_top" xlink:title="L4 IPC System Calls, ARM. ">
<polygon fill="#ffffff" stroke="#000000" points="0,-.5 0,-19.5 104,-19.5 104,-.5 0,-.5"/>
<text text-anchor="middle" x="52" y="-7.5" font-family="Helvetica,sans-Serif" font-size="10.00" fill="#000000">arm/l4f/l4/sys/ipc.h</text>
</a>
</g>
</g>
<!-- Node1&#45;&gt;Node2 -->
<g id="edge1" class="edge">
<title>Node1&#45;&gt;Node2</title>
<path fill="none" stroke="#191970" d="M134.9602,-51.8201C113.5378,-41.0211 87.9453,-28.12 70.9057,-19.5303"/>
<polygon fill="#191970" stroke="#191970" points="133.6503,-55.0793 144.1554,-56.4554 136.8014,-48.8286 133.6503,-55.0793"/>
</g>
<!-- Node3 -->
<g id="node3" class="node">
<title>Node3</title>
<g id="a_node3"><a xlink:href="arm_2l4_2sys_2cache_8h.html" target="_top" xlink:title="Cache functions. ">
<polygon fill="#ffffff" stroke="#000000" points="122,-.5 122,-19.5 226,-19.5 226,-.5 122,-.5"/>
<text text-anchor="middle" x="174" y="-7.5" font-family="Helvetica,sans-Serif" font-size="10.00" fill="#000000">arm/l4/sys/cache.h</text>
</a>
</g>
</g>
<!-- Node1&#45;&gt;Node3 -->
<g id="edge2" class="edge">
<title>Node1&#45;&gt;Node3</title>
<path fill="none" stroke="#191970" d="M174,-46.2849C174,-36.9858 174,-26.9883 174,-19.8469"/>
<polygon fill="#191970" stroke="#191970" points="170.5001,-46.2977 174,-56.2977 177.5001,-46.2978 170.5001,-46.2977"/>
</g>
<!-- Node4 -->
<g id="node4" class="node">
<title>Node4</title>
<g id="a_node4"><a xlink:href="mem__op_8h.html" target="_top" xlink:title="Memory access functions (ARM specific) ">
<polygon fill="#ffffff" stroke="#000000" points="244,-.5 244,-19.5 360,-19.5 360,-.5 244,-.5"/>
<text text-anchor="middle" x="302" y="-7.5" font-family="Helvetica,sans-Serif" font-size="10.00" fill="#000000">arm/l4/sys/mem_op.h</text>
</a>
</g>
</g>
<!-- Node1&#45;&gt;Node4 -->
<g id="edge3" class="edge">
<title>Node1&#45;&gt;Node4</title>
<path fill="none" stroke="#191970" d="M214.3561,-52.1102C236.9534,-41.2529 264.1266,-28.197 282.1645,-19.5303"/>
<polygon fill="#191970" stroke="#191970" points="212.8101,-48.9698 205.3123,-56.4554 215.8417,-55.2794 212.8101,-48.9698"/>
</g>
</g>
</svg>
