<?xml version="1.0" encoding="UTF-8" standalone="no"?>
<!DOCTYPE svg PUBLIC "-//W3C//DTD SVG 1.1//EN"
 "http://www.w3.org/Graphics/SVG/1.1/DTD/svg11.dtd">
<!-- Generated by graphviz version 2.40.1 (20161225.0304)
 -->
<!-- Title: l4_timeout_t Pages: 1 -->
<svg width="84pt" height="193pt"
 viewBox="0.00 0.00 84.00 193.00" xmlns="http://www.w3.org/2000/svg" xmlns:xlink="http://www.w3.org/1999/xlink">
<g id="graph0" class="graph" transform="scale(1 1) rotate(0) translate(4 189)">
<title>l4_timeout_t</title>
<polygon fill="#ffffff" stroke="transparent" points="-4,4 -4,-189 80,-189 80,4 -4,4"/>
<!-- Node1 -->
<g id="node1" class="node">
<title>Node1</title>
<polygon fill="#bfbfbf" stroke="#000000" points="1,-.5 1,-68.5 75,-68.5 75,-.5 1,-.5"/>
<text text-anchor="middle" x="38" y="-56.5" font-family="Helvetica,sans-Serif" font-size="10.00" fill="#000000">l4_timeout_t</text>
<polyline fill="none" stroke="#000000" points="1,-49.5 75,-49.5 "/>
<text text-anchor="start" x="9" y="-37.5" font-family="Helvetica,sans-Serif" font-size="10.00" fill="#000000">+ raw</text>
<text text-anchor="start" x="9" y="-26.5" font-family="Helvetica,sans-Serif" font-size="10.00" fill="#000000">+ p</text>
<polyline fill="none" stroke="#000000" points="1,-19.5 75,-19.5 "/>
<text text-anchor="middle" x="38" y="-7.5" font-family="Helvetica,sans-Serif" font-size="10.00" fill="#000000"> </text>
</g>
<!-- Node2 -->
<g id="node2" class="node">
<title>Node2</title>
<g id="a_node2"><a xlink:href="structl4__timeout__s.html" target="_top" xlink:title="Basic timeout specification. ">
<polygon fill="#ffffff" stroke="#000000" points="0,-127.5 0,-184.5 76,-184.5 76,-127.5 0,-127.5"/>
<text text-anchor="middle" x="38" y="-172.5" font-family="Helvetica,sans-Serif" font-size="10.00" fill="#000000">l4_timeout_s</text>
<polyline fill="none" stroke="#000000" points="0,-165.5 76,-165.5 "/>
<text text-anchor="start" x="8" y="-153.5" font-family="Helvetica,sans-Serif" font-size="10.00" fill="#000000">+ t</text>
<polyline fill="none" stroke="#000000" points="0,-146.5 76,-146.5 "/>
<text text-anchor="middle" x="38" y="-134.5" font-family="Helvetica,sans-Serif" font-size="10.00" fill="#000000"> </text>
</a>
</g>
</g>
<!-- Node2&#45;&gt;Node1 -->
<g id="edge1" class="edge">
<title>Node2&#45;&gt;Node1</title>
<path fill="none" stroke="#404040" d="M38,-127.2062C38,-113.3632 38,-96.4255 38,-80.8327"/>
<polygon fill="none" stroke="#404040" points="38.0001,-80.7007 34,-74.7008 38,-68.7007 42,-74.7007 38.0001,-80.7007"/>
<text text-anchor="middle" x="50.5" y="-101" font-family="Helvetica,sans-Serif" font-size="10.00" fill="#000000"> +rcv</text>
<text text-anchor="middle" x="50.5" y="-90" font-family="Helvetica,sans-Serif" font-size="10.00" fill="#000000">+snd</text>
</g>
</g>
</svg>
