<?xml version="1.0" encoding="UTF-8" standalone="no"?>
<!DOCTYPE svg PUBLIC "-//W3C//DTD SVG 1.1//EN"
 "http://www.w3.org/Graphics/SVG/1.1/DTD/svg11.dtd">
<!-- Generated by graphviz version 2.40.1 (20161225.0304)
 -->
<!-- Title: l4/re/unique_cap Pages: 1 -->
<svg width="232pt" height="151pt"
 viewBox="0.00 0.00 231.50 151.00" xmlns="http://www.w3.org/2000/svg" xmlns:xlink="http://www.w3.org/1999/xlink">
<g id="graph0" class="graph" transform="scale(1 1) rotate(0) translate(4 147)">
<title>l4/re/unique_cap</title>
<polygon fill="#ffffff" stroke="transparent" points="-4,4 -4,-147 227.5,-147 227.5,4 -4,4"/>
<!-- Node37 -->
<g id="node1" class="node">
<title>Node37</title>
<polygon fill="#bfbfbf" stroke="#000000" points="48,-123.5 48,-142.5 143,-142.5 143,-123.5 48,-123.5"/>
<text text-anchor="middle" x="95.5" y="-130.5" font-family="Helvetica,sans-Serif" font-size="10.00" fill="#000000">l4/re/unique_cap</text>
</g>
<!-- Node38 -->
<g id="node2" class="node">
<title>Node38</title>
<g id="a_node2"><a xlink:href="ns__fs_8h_source.html" target="_top" xlink:title="l4/l4re_vfs/impl/ns_fs.h">
<polygon fill="#ffffff" stroke="#000000" points="78.5,-67.5 78.5,-86.5 202.5,-86.5 202.5,-67.5 78.5,-67.5"/>
<text text-anchor="middle" x="140.5" y="-74.5" font-family="Helvetica,sans-Serif" font-size="10.00" fill="#000000">l4/l4re_vfs/impl/ns_fs.h</text>
</a>
</g>
</g>
<!-- Node37&#45;&gt;Node38 -->
<g id="edge1" class="edge">
<title>Node37&#45;&gt;Node38</title>
<path fill="none" stroke="#191970" d="M109.7946,-115.2112C117.3996,-105.7472 126.4538,-94.4797 132.7514,-86.6427"/>
<polygon fill="#191970" stroke="#191970" points="106.8741,-113.2581 103.3384,-123.2455 112.3306,-117.6428 106.8741,-113.2581"/>
</g>
<!-- Node39 -->
<g id="node3" class="node">
<title>Node39</title>
<g id="a_node3"><a xlink:href="ns__fs__impl_8h_source.html" target="_top" xlink:title="l4/l4re_vfs/impl/ns\l_fs_impl.h">
<polygon fill="#ffffff" stroke="#000000" points="0,-.5 0,-30.5 101,-30.5 101,-.5 0,-.5"/>
<text text-anchor="start" x="8" y="-18.5" font-family="Helvetica,sans-Serif" font-size="10.00" fill="#000000">l4/l4re_vfs/impl/ns</text>
<text text-anchor="middle" x="50.5" y="-7.5" font-family="Helvetica,sans-Serif" font-size="10.00" fill="#000000">_fs_impl.h</text>
</a>
</g>
</g>
<!-- Node37&#45;&gt;Node39 -->
<g id="edge4" class="edge">
<title>Node37&#45;&gt;Node39</title>
<path fill="none" stroke="#191970" d="M83.7732,-114.7685C78.8521,-106.5304 73.3829,-96.5248 69.5,-87 61.8393,-68.208 56.3973,-45.3766 53.3534,-30.6501"/>
<polygon fill="#191970" stroke="#191970" points="80.9329,-116.83 89.1705,-123.4927 86.8858,-113.1471 80.9329,-116.83"/>
</g>
<!-- Node38&#45;&gt;Node39 -->
<g id="edge2" class="edge">
<title>Node38&#45;&gt;Node39</title>
<path fill="none" stroke="#191970" d="M117.9398,-61.5839C104.0437,-52.0882 86.3108,-39.9707 72.5165,-30.5446"/>
<polygon fill="#191970" stroke="#191970" points="116.2064,-64.6384 126.4375,-67.3906 120.1557,-58.8589 116.2064,-64.6384"/>
</g>
<!-- Node40 -->
<g id="node4" class="node">
<title>Node40</title>
<g id="a_node4"><a xlink:href="vfs__impl_8h_source.html" target="_top" xlink:title="l4/l4re_vfs/impl/vfs\l_impl.h">
<polygon fill="#ffffff" stroke="#000000" points="119.5,-.5 119.5,-30.5 223.5,-30.5 223.5,-.5 119.5,-.5"/>
<text text-anchor="start" x="127.5" y="-18.5" font-family="Helvetica,sans-Serif" font-size="10.00" fill="#000000">l4/l4re_vfs/impl/vfs</text>
<text text-anchor="middle" x="171.5" y="-7.5" font-family="Helvetica,sans-Serif" font-size="10.00" fill="#000000">_impl.h</text>
</a>
</g>
</g>
<!-- Node38&#45;&gt;Node40 -->
<g id="edge3" class="edge">
<title>Node38&#45;&gt;Node40</title>
<path fill="none" stroke="#191970" d="M149.9596,-58.2334C154.4356,-49.3537 159.7082,-38.8934 163.9165,-30.5446"/>
<polygon fill="#191970" stroke="#191970" points="146.7196,-56.8855 145.3438,-67.3906 152.9704,-60.0363 146.7196,-56.8855"/>
</g>
</g>
</svg>
