<?xml version="1.0" encoding="UTF-8" standalone="no"?>
<!DOCTYPE svg PUBLIC "-//W3C//DTD SVG 1.1//EN"
 "http://www.w3.org/Graphics/SVG/1.1/DTD/svg11.dtd">
<!-- Generated by graphviz version 2.40.1 (20161225.0304)
 -->
<!-- Title: l4/util/assert.h Pages: 1 -->
<svg width="107pt" height="85pt"
 viewBox="0.00 0.00 107.00 84.92" xmlns="http://www.w3.org/2000/svg" xmlns:xlink="http://www.w3.org/1999/xlink">
<g id="graph0" class="graph" transform="scale(1 1) rotate(0) translate(4 80.9166)">
<title>l4/util/assert.h</title>
<polygon fill="#ffffff" stroke="transparent" points="-4,4 -4,-80.9166 103,-80.9166 103,4 -4,4"/>
<!-- Node0 -->
<g id="node1" class="node">
<title>Node0</title>
<polygon fill="#bfbfbf" stroke="#000000" points="0,-56.5 0,-75.5 81,-75.5 81,-56.5 0,-56.5"/>
<text text-anchor="middle" x="40.5" y="-63.5" font-family="Helvetica,sans-Serif" font-size="10.00" fill="#000000">l4/util/assert.h</text>
</g>
<!-- Node0&#45;&gt;Node0 -->
<g id="edge2" class="edge">
<title>Node0&#45;&gt;Node0</title>
<path fill="none" stroke="#191970" d="M65.4503,-75.5252C82.4035,-78.3079 99,-75.1328 99,-66 99,-58.7223 88.461,-55.2278 75.6009,-55.5165"/>
<polygon fill="#191970" stroke="#191970" points="75.0771,-52.0503 65.4503,-56.4748 75.7351,-59.0193 75.0771,-52.0503"/>
</g>
<!-- Node1 -->
<g id="node2" class="node">
<title>Node1</title>
<polygon fill="#ffffff" stroke="#bfbfbf" points="17,-.5 17,-19.5 64,-19.5 64,-.5 17,-.5"/>
<text text-anchor="middle" x="40.5" y="-7.5" font-family="Helvetica,sans-Serif" font-size="10.00" fill="#000000">stdio.h</text>
</g>
<!-- Node0&#45;&gt;Node1 -->
<g id="edge1" class="edge">
<title>Node0&#45;&gt;Node1</title>
<path fill="none" stroke="#191970" d="M40.5,-56.2455C40.5,-48.9382 40.5,-38.6944 40.5,-29.7046"/>
<polygon fill="#191970" stroke="#191970" points="44.0001,-29.6426 40.5,-19.6427 37.0001,-29.6427 44.0001,-29.6426"/>
</g>
</g>
</svg>
