<?xml version="1.0" encoding="UTF-8" standalone="no"?>
<!DOCTYPE svg PUBLIC "-//W3C//DTD SVG 1.1//EN"
 "http://www.w3.org/Graphics/SVG/1.1/DTD/svg11.dtd">
<!-- Generated by graphviz version 2.40.1 (20161225.0304)
 -->
<!-- Title: l4/util/kip.h Pages: 1 -->
<svg width="469pt" height="364pt"
 viewBox="0.00 0.00 469.00 364.00" xmlns="http://www.w3.org/2000/svg" xmlns:xlink="http://www.w3.org/1999/xlink">
<g id="graph0" class="graph" transform="scale(1 1) rotate(0) translate(4 360)">
<title>l4/util/kip.h</title>
<polygon fill="#ffffff" stroke="transparent" points="-4,4 -4,-360 465,-360 465,4 -4,4"/>
<!-- Node0 -->
<g id="node1" class="node">
<title>Node0</title>
<polygon fill="#bfbfbf" stroke="#000000" points="327.5,-336.5 327.5,-355.5 392.5,-355.5 392.5,-336.5 327.5,-336.5"/>
<text text-anchor="middle" x="360" y="-343.5" font-family="Helvetica,sans-Serif" font-size="10.00" fill="#000000">l4/util/kip.h</text>
</g>
<!-- Node1 -->
<g id="node2" class="node">
<title>Node1</title>
<g id="a_node2"><a xlink:href="sys_2kip_8h.html" target="_top" xlink:title="Kernel Info Page access functions. ">
<polygon fill="#ffffff" stroke="#000000" points="267,-280.5 267,-299.5 335,-299.5 335,-280.5 267,-280.5"/>
<text text-anchor="middle" x="301" y="-287.5" font-family="Helvetica,sans-Serif" font-size="10.00" fill="#000000">l4/sys/kip.h</text>
</a>
</g>
</g>
<!-- Node0&#45;&gt;Node1 -->
<g id="edge1" class="edge">
<title>Node0&#45;&gt;Node1</title>
<path fill="none" stroke="#191970" d="M349.723,-336.2455C341.1782,-328.1352 328.8222,-316.4075 318.6915,-306.7919"/>
<polygon fill="#191970" stroke="#191970" points="320.8218,-303.9884 311.1592,-299.6427 316.0028,-309.0655 320.8218,-303.9884"/>
</g>
<!-- Node2 -->
<g id="node3" class="node">
<title>Node2</title>
<g id="a_node3"><a xlink:href="compiler_8h.html" target="_top" xlink:title="L4 compiler related defines. ">
<polygon fill="#ffffff" stroke="#000000" points="293.5,-56.5 293.5,-75.5 388.5,-75.5 388.5,-56.5 293.5,-56.5"/>
<text text-anchor="middle" x="341" y="-63.5" font-family="Helvetica,sans-Serif" font-size="10.00" fill="#000000">l4/sys/compiler.h</text>
</a>
</g>
</g>
<!-- Node0&#45;&gt;Node2 -->
<g id="edge17" class="edge">
<title>Node0&#45;&gt;Node2</title>
<path fill="none" stroke="#191970" d="M378.525,-336.3812C407.6828,-319.7571 461,-282.7005 461,-234 461,-234 461,-234 461,-178 461,-130.2581 409.6095,-97.0374 374.0895,-79.7779"/>
<polygon fill="#191970" stroke="#191970" points="375.5374,-76.5913 364.9954,-75.5343 372.5773,-82.9346 375.5374,-76.5913"/>
</g>
<!-- Node1&#45;&gt;Node2 -->
<g id="edge2" class="edge">
<title>Node1&#45;&gt;Node2</title>
<path fill="none" stroke="#191970" d="M319.2997,-280.3358C333.0218,-272.2583 351.3675,-259.5684 363,-244 394.7285,-201.5361 394.7468,-184.1944 404,-132 405.5517,-123.2476 408.0261,-119.9248 404,-112 397.139,-98.4951 384.2468,-88.0099 371.9034,-80.4839"/>
<polygon fill="#191970" stroke="#191970" points="373.5367,-77.3868 363.1066,-75.5258 370.0997,-83.4849 373.5367,-77.3868"/>
</g>
<!-- Node4 -->
<g id="node5" class="node">
<title>Node4</title>
<g id="a_node5"><a xlink:href="l4_2sys_2l4int_8h.html" target="_top" xlink:title="Fixed sized integer types, generic version. ">
<polygon fill="#ffffff" stroke="#000000" points="0,-56.5 0,-75.5 74,-75.5 74,-56.5 0,-56.5"/>
<text text-anchor="middle" x="37" y="-63.5" font-family="Helvetica,sans-Serif" font-size="10.00" fill="#000000">l4/sys/l4int.h</text>
</a>
</g>
</g>
<!-- Node1&#45;&gt;Node4 -->
<g id="edge4" class="edge">
<title>Node1&#45;&gt;Node4</title>
<path fill="none" stroke="#191970" d="M266.7049,-287.0475C228.1065,-282.4957 164.586,-271.2265 117,-244 56.441,-209.3509 33.4095,-196.5793 7,-132 .1998,-115.3715 10.3087,-96.7683 20.585,-83.5617"/>
<polygon fill="#191970" stroke="#191970" points="23.413,-85.6375 27.1863,-75.7373 18.0627,-81.1236 23.413,-85.6375"/>
</g>
<!-- Node5 -->
<g id="node6" class="node">
<title>Node5</title>
<polygon fill="#ffffff" stroke="#bfbfbf" points="126,-224.5 126,-243.5 230,-243.5 230,-224.5 126,-224.5"/>
<text text-anchor="middle" x="178" y="-231.5" font-family="Helvetica,sans-Serif" font-size="10.00" fill="#000000">l4/sys/__kip&#45;arch.h</text>
</g>
<!-- Node1&#45;&gt;Node5 -->
<g id="edge5" class="edge">
<title>Node1&#45;&gt;Node5</title>
<path fill="none" stroke="#191970" d="M279.8555,-280.3733C260.1108,-271.3838 230.4302,-257.8706 208.1945,-247.7471"/>
<polygon fill="#191970" stroke="#191970" points="209.42,-244.4594 198.8685,-243.5011 206.5194,-250.8302 209.42,-244.4594"/>
</g>
<!-- Node6 -->
<g id="node7" class="node">
<title>Node6</title>
<g id="a_node7"><a xlink:href="____kip-64bit_8h_source.html" target="_top" xlink:title="l4/sys/__kip&#45;64bit.h">
<polygon fill="#ffffff" stroke="#000000" points="248,-224.5 248,-243.5 354,-243.5 354,-224.5 248,-224.5"/>
<text text-anchor="middle" x="301" y="-231.5" font-family="Helvetica,sans-Serif" font-size="10.00" fill="#000000">l4/sys/__kip&#45;64bit.h</text>
</a>
</g>
</g>
<!-- Node1&#45;&gt;Node6 -->
<g id="edge6" class="edge">
<title>Node1&#45;&gt;Node6</title>
<path fill="none" stroke="#191970" d="M301,-280.2455C301,-272.9382 301,-262.6944 301,-253.7046"/>
<polygon fill="#191970" stroke="#191970" points="304.5001,-253.6426 301,-243.6427 297.5001,-253.6427 304.5001,-253.6426"/>
</g>
<!-- Node3 -->
<g id="node4" class="node">
<title>Node3</title>
<polygon fill="#ffffff" stroke="#bfbfbf" points="296.5,-.5 296.5,-19.5 385.5,-19.5 385.5,-.5 296.5,-.5"/>
<text text-anchor="middle" x="341" y="-7.5" font-family="Helvetica,sans-Serif" font-size="10.00" fill="#000000">l4/sys/linkage.h</text>
</g>
<!-- Node2&#45;&gt;Node3 -->
<g id="edge3" class="edge">
<title>Node2&#45;&gt;Node3</title>
<path fill="none" stroke="#191970" d="M341,-56.2455C341,-48.9382 341,-38.6944 341,-29.7046"/>
<polygon fill="#191970" stroke="#191970" points="344.5001,-29.6426 341,-19.6427 337.5001,-29.6427 344.5001,-29.6426"/>
</g>
<!-- Node7 -->
<g id="node8" class="node">
<title>Node7</title>
<g id="a_node8"><a xlink:href="l4_2sys_2types_8h.html" target="_top" xlink:title="Common L4 ABI Data Types. ">
<polygon fill="#ffffff" stroke="#000000" points="184,-168.5 184,-187.5 264,-187.5 264,-168.5 184,-168.5"/>
<text text-anchor="middle" x="224" y="-175.5" font-family="Helvetica,sans-Serif" font-size="10.00" fill="#000000">l4/sys/types.h</text>
</a>
</g>
</g>
<!-- Node6&#45;&gt;Node7 -->
<g id="edge7" class="edge">
<title>Node6&#45;&gt;Node7</title>
<path fill="none" stroke="#191970" d="M287.5876,-224.2455C275.9943,-215.814 259.0252,-203.4729 245.5322,-193.6598"/>
<polygon fill="#191970" stroke="#191970" points="247.4047,-190.6938 237.2587,-187.6427 243.2874,-196.355 247.4047,-190.6938"/>
</g>
<!-- Node7&#45;&gt;Node2 -->
<g id="edge9" class="edge">
<title>Node7&#45;&gt;Node2</title>
<path fill="none" stroke="#191970" d="M230.6538,-168.3973C240.2298,-154.9467 258.8601,-130.1143 278,-112 290.0308,-100.6139 304.9468,-89.6072 317.2447,-81.2166"/>
<polygon fill="#191970" stroke="#191970" points="319.2834,-84.0639 325.658,-75.6013 315.3974,-78.2416 319.2834,-84.0639"/>
</g>
<!-- Node7&#45;&gt;Node4 -->
<g id="edge8" class="edge">
<title>Node7&#45;&gt;Node4</title>
<path fill="none" stroke="#191970" d="M183.5778,-174.9389C129.1183,-169.8787 36.6092,-157.6649 16,-132 4.8833,-118.1562 13.5767,-98.3254 22.9262,-84.0195"/>
<polygon fill="#191970" stroke="#191970" points="26.0176,-85.7119 28.9633,-75.5348 20.314,-81.6536 26.0176,-85.7119"/>
</g>
<!-- Node8 -->
<g id="node9" class="node">
<title>Node8</title>
<g id="a_node9"><a xlink:href="l4_2sys_2consts_8h.html" target="_top" xlink:title="Common constants. ">
<polygon fill="#ffffff" stroke="#000000" points="145,-112.5 145,-131.5 231,-131.5 231,-112.5 145,-112.5"/>
<text text-anchor="middle" x="188" y="-119.5" font-family="Helvetica,sans-Serif" font-size="10.00" fill="#000000">l4/sys/consts.h</text>
</a>
</g>
</g>
<!-- Node7&#45;&gt;Node8 -->
<g id="edge10" class="edge">
<title>Node7&#45;&gt;Node8</title>
<path fill="none" stroke="#191970" d="M217.7293,-168.2455C212.7736,-160.5367 205.717,-149.5598 199.7224,-140.2348"/>
<polygon fill="#191970" stroke="#191970" points="202.5506,-138.1618 194.1989,-131.6427 196.6624,-141.9471 202.5506,-138.1618"/>
</g>
<!-- Node9 -->
<g id="node10" class="node">
<title>Node9</title>
<g id="a_node10"><a xlink:href="____l4__fpage_8h_source.html" target="_top" xlink:title="l4/sys/__l4_fpage.h">
<polygon fill="#ffffff" stroke="#000000" points="287,-112.5 287,-131.5 395,-131.5 395,-112.5 287,-112.5"/>
<text text-anchor="middle" x="341" y="-119.5" font-family="Helvetica,sans-Serif" font-size="10.00" fill="#000000">l4/sys/__l4_fpage.h</text>
</a>
</g>
</g>
<!-- Node7&#45;&gt;Node9 -->
<g id="edge13" class="edge">
<title>Node7&#45;&gt;Node9</title>
<path fill="none" stroke="#191970" d="M244.113,-168.3733C262.8103,-159.4241 290.8744,-145.9917 311.9934,-135.8835"/>
<polygon fill="#191970" stroke="#191970" points="313.6405,-138.9755 321.1494,-131.5011 310.6183,-132.6614 313.6405,-138.9755"/>
</g>
<!-- Node10 -->
<g id="node11" class="node">
<title>Node10</title>
<g id="a_node11"><a xlink:href="____timeout_8h_source.html" target="_top" xlink:title="l4/sys/__timeout.h">
<polygon fill="#ffffff" stroke="#000000" points="25.5,-112.5 25.5,-131.5 126.5,-131.5 126.5,-112.5 25.5,-112.5"/>
<text text-anchor="middle" x="76" y="-119.5" font-family="Helvetica,sans-Serif" font-size="10.00" fill="#000000">l4/sys/__timeout.h</text>
</a>
</g>
</g>
<!-- Node7&#45;&gt;Node10 -->
<g id="edge15" class="edge">
<title>Node7&#45;&gt;Node10</title>
<path fill="none" stroke="#191970" d="M198.5579,-168.3733C174.2674,-159.1822 137.4792,-145.2624 110.5457,-135.0713"/>
<polygon fill="#191970" stroke="#191970" points="111.7016,-131.7666 101.1101,-131.5011 109.2243,-138.3136 111.7016,-131.7666"/>
</g>
<!-- Node8&#45;&gt;Node2 -->
<g id="edge11" class="edge">
<title>Node8&#45;&gt;Node2</title>
<path fill="none" stroke="#191970" d="M214.3016,-112.3733C239.4128,-103.1822 277.4438,-89.2624 305.2872,-79.0713"/>
<polygon fill="#191970" stroke="#191970" points="306.8538,-82.2251 315.0416,-75.5011 304.4478,-75.6516 306.8538,-82.2251"/>
</g>
<!-- Node8&#45;&gt;Node4 -->
<g id="edge12" class="edge">
<title>Node8&#45;&gt;Node4</title>
<path fill="none" stroke="#191970" d="M162.0422,-112.3733C137.2593,-103.1822 99.7254,-89.2624 72.246,-79.0713"/>
<polygon fill="#191970" stroke="#191970" points="73.2121,-75.6968 62.6191,-75.5011 70.7781,-82.26 73.2121,-75.6968"/>
</g>
<!-- Node9&#45;&gt;Node2 -->
<g id="edge14" class="edge">
<title>Node9&#45;&gt;Node2</title>
<path fill="none" stroke="#191970" d="M341,-112.2455C341,-104.9382 341,-94.6944 341,-85.7046"/>
<polygon fill="#191970" stroke="#191970" points="344.5001,-85.6426 341,-75.6427 337.5001,-85.6427 344.5001,-85.6426"/>
</g>
<!-- Node10&#45;&gt;Node4 -->
<g id="edge16" class="edge">
<title>Node10&#45;&gt;Node4</title>
<path fill="none" stroke="#191970" d="M69.2067,-112.2455C63.7822,-104.4564 56.0339,-93.3308 49.4967,-83.9439"/>
<polygon fill="#191970" stroke="#191970" points="52.3025,-81.8485 43.7154,-75.6427 46.5583,-85.849 52.3025,-81.8485"/>
</g>
</g>
</svg>
