<?xml version="1.0" encoding="UTF-8" standalone="no"?>
<!DOCTYPE svg PUBLIC "-//W3C//DTD SVG 1.1//EN"
 "http://www.w3.org/Graphics/SVG/1.1/DTD/svg11.dtd">
<!-- Generated by graphviz version 2.40.1 (20161225.0304)
 -->
<!-- Title: l4/vbus/vbus.h Pages: 1 -->
<svg width="412pt" height="308pt"
 viewBox="0.00 0.00 412.00 308.00" xmlns="http://www.w3.org/2000/svg" xmlns:xlink="http://www.w3.org/1999/xlink">
<g id="graph0" class="graph" transform="scale(1 1) rotate(0) translate(4 304)">
<title>l4/vbus/vbus.h</title>
<polygon fill="#ffffff" stroke="transparent" points="-4,4 -4,-304 408,-304 408,4 -4,4"/>
<!-- Node0 -->
<g id="node1" class="node">
<title>Node0</title>
<polygon fill="#bfbfbf" stroke="#000000" points="45,-280.5 45,-299.5 126,-299.5 126,-280.5 45,-280.5"/>
<text text-anchor="middle" x="85.5" y="-287.5" font-family="Helvetica,sans-Serif" font-size="10.00" fill="#000000">l4/vbus/vbus.h</text>
</g>
<!-- Node1 -->
<g id="node2" class="node">
<title>Node1</title>
<g id="a_node2"><a xlink:href="compiler_8h.html" target="_top" xlink:title="L4 compiler related defines. ">
<polygon fill="#ffffff" stroke="#000000" points="0,-56.5 0,-75.5 95,-75.5 95,-56.5 0,-56.5"/>
<text text-anchor="middle" x="47.5" y="-63.5" font-family="Helvetica,sans-Serif" font-size="10.00" fill="#000000">l4/sys/compiler.h</text>
</a>
</g>
</g>
<!-- Node0&#45;&gt;Node1 -->
<g id="edge1" class="edge">
<title>Node0&#45;&gt;Node1</title>
<path fill="none" stroke="#191970" d="M61.812,-280.3661C46.7736,-272.8701 28.5049,-260.8832 19.5,-244 -8.1122,-192.23 .7812,-168.241 17.5,-112 20.5326,-101.7984 26.6244,-91.7475 32.5309,-83.6555"/>
<polygon fill="#191970" stroke="#191970" points="35.323,-85.7667 38.7139,-75.7291 29.8036,-81.4613 35.323,-85.7667"/>
</g>
<!-- Node3 -->
<g id="node4" class="node">
<title>Node3</title>
<g id="a_node4"><a xlink:href="vbus__types_8h.html" target="_top" xlink:title="This header file contains descriptions of vbus related data types and constants. ">
<polygon fill="#ffffff" stroke="#000000" points="29,-224.5 29,-243.5 142,-243.5 142,-224.5 29,-224.5"/>
<text text-anchor="middle" x="85.5" y="-231.5" font-family="Helvetica,sans-Serif" font-size="10.00" fill="#000000">l4/vbus/vbus_types.h</text>
</a>
</g>
</g>
<!-- Node0&#45;&gt;Node3 -->
<g id="edge3" class="edge">
<title>Node0&#45;&gt;Node3</title>
<path fill="none" stroke="#191970" d="M85.5,-280.2455C85.5,-272.9382 85.5,-262.6944 85.5,-253.7046"/>
<polygon fill="#191970" stroke="#191970" points="89.0001,-253.6426 85.5,-243.6427 82.0001,-253.6427 89.0001,-253.6426"/>
</g>
<!-- Node4 -->
<g id="node5" class="node">
<title>Node4</title>
<g id="a_node5"><a xlink:href="l4_2sys_2types_8h.html" target="_top" xlink:title="Common L4 ABI Data Types. ">
<polygon fill="#ffffff" stroke="#000000" points="130.5,-168.5 130.5,-187.5 210.5,-187.5 210.5,-168.5 130.5,-168.5"/>
<text text-anchor="middle" x="170.5" y="-175.5" font-family="Helvetica,sans-Serif" font-size="10.00" fill="#000000">l4/sys/types.h</text>
</a>
</g>
</g>
<!-- Node0&#45;&gt;Node4 -->
<g id="edge14" class="edge">
<title>Node0&#45;&gt;Node4</title>
<path fill="none" stroke="#191970" d="M106.2405,-280.3529C120.9128,-272.5169 139.957,-260.1277 151.5,-244 161.2471,-230.3815 166.018,-211.8397 168.3391,-197.8762"/>
<polygon fill="#191970" stroke="#191970" points="171.824,-198.2254 169.7236,-187.8408 164.8897,-197.2687 171.824,-198.2254"/>
</g>
<!-- Node2 -->
<g id="node3" class="node">
<title>Node2</title>
<polygon fill="#ffffff" stroke="#bfbfbf" points="3,-.5 3,-19.5 92,-19.5 92,-.5 3,-.5"/>
<text text-anchor="middle" x="47.5" y="-7.5" font-family="Helvetica,sans-Serif" font-size="10.00" fill="#000000">l4/sys/linkage.h</text>
</g>
<!-- Node1&#45;&gt;Node2 -->
<g id="edge2" class="edge">
<title>Node1&#45;&gt;Node2</title>
<path fill="none" stroke="#191970" d="M47.5,-56.2455C47.5,-48.9382 47.5,-38.6944 47.5,-29.7046"/>
<polygon fill="#191970" stroke="#191970" points="51.0001,-29.6426 47.5,-19.6427 44.0001,-29.6427 51.0001,-29.6426"/>
</g>
<!-- Node3&#45;&gt;Node4 -->
<g id="edge4" class="edge">
<title>Node3&#45;&gt;Node4</title>
<path fill="none" stroke="#191970" d="M100.3059,-224.2455C113.2256,-215.7337 132.1931,-203.2375 147.1552,-193.3801"/>
<polygon fill="#191970" stroke="#191970" points="149.4387,-196.067 155.8638,-187.6427 145.5876,-190.2216 149.4387,-196.067"/>
</g>
<!-- Node4&#45;&gt;Node1 -->
<g id="edge6" class="edge">
<title>Node4&#45;&gt;Node1</title>
<path fill="none" stroke="#191970" d="M130.2447,-170.7118C91.8341,-162.8416 38.0171,-149.1029 25.5,-132 15.0842,-117.7684 23.7074,-98.2999 33.0394,-84.1984"/>
<polygon fill="#191970" stroke="#191970" points="36.0735,-85.9747 39.0812,-75.8158 30.3948,-81.8817 36.0735,-85.9747"/>
</g>
<!-- Node5 -->
<g id="node6" class="node">
<title>Node5</title>
<g id="a_node6"><a xlink:href="l4_2sys_2l4int_8h.html" target="_top" xlink:title="Fixed sized integer types, generic version. ">
<polygon fill="#ffffff" stroke="#000000" points="237.5,-56.5 237.5,-75.5 311.5,-75.5 311.5,-56.5 237.5,-56.5"/>
<text text-anchor="middle" x="274.5" y="-63.5" font-family="Helvetica,sans-Serif" font-size="10.00" fill="#000000">l4/sys/l4int.h</text>
</a>
</g>
</g>
<!-- Node4&#45;&gt;Node5 -->
<g id="edge5" class="edge">
<title>Node4&#45;&gt;Node5</title>
<path fill="none" stroke="#191970" d="M200.8226,-168.3886C219.1144,-161.1241 241.5105,-149.3874 255.5,-132 266.1162,-118.8052 270.8009,-99.9359 272.868,-85.7502"/>
<polygon fill="#191970" stroke="#191970" points="276.3727,-85.9076 274.0279,-75.5755 269.4177,-85.1147 276.3727,-85.9076"/>
</g>
<!-- Node6 -->
<g id="node7" class="node">
<title>Node6</title>
<g id="a_node7"><a xlink:href="l4_2sys_2consts_8h.html" target="_top" xlink:title="Common constants. ">
<polygon fill="#ffffff" stroke="#000000" points="160.5,-112.5 160.5,-131.5 246.5,-131.5 246.5,-112.5 160.5,-112.5"/>
<text text-anchor="middle" x="203.5" y="-119.5" font-family="Helvetica,sans-Serif" font-size="10.00" fill="#000000">l4/sys/consts.h</text>
</a>
</g>
</g>
<!-- Node4&#45;&gt;Node6 -->
<g id="edge7" class="edge">
<title>Node4&#45;&gt;Node6</title>
<path fill="none" stroke="#191970" d="M176.2482,-168.2455C180.7435,-160.617 187.1248,-149.7881 192.5825,-140.5267"/>
<polygon fill="#191970" stroke="#191970" points="195.7561,-142.035 197.8177,-131.6427 189.7253,-138.4811 195.7561,-142.035"/>
</g>
<!-- Node7 -->
<g id="node8" class="node">
<title>Node7</title>
<g id="a_node8"><a xlink:href="____l4__fpage_8h_source.html" target="_top" xlink:title="l4/sys/__l4_fpage.h">
<polygon fill="#ffffff" stroke="#000000" points="34.5,-112.5 34.5,-131.5 142.5,-131.5 142.5,-112.5 34.5,-112.5"/>
<text text-anchor="middle" x="88.5" y="-119.5" font-family="Helvetica,sans-Serif" font-size="10.00" fill="#000000">l4/sys/__l4_fpage.h</text>
</a>
</g>
</g>
<!-- Node4&#45;&gt;Node7 -->
<g id="edge10" class="edge">
<title>Node4&#45;&gt;Node7</title>
<path fill="none" stroke="#191970" d="M156.2167,-168.2455C143.753,-159.7337 125.4549,-147.2375 111.0208,-137.3801"/>
<polygon fill="#191970" stroke="#191970" points="112.8515,-134.392 102.6196,-131.6427 108.9038,-140.1726 112.8515,-134.392"/>
</g>
<!-- Node8 -->
<g id="node9" class="node">
<title>Node8</title>
<g id="a_node9"><a xlink:href="____timeout_8h_source.html" target="_top" xlink:title="l4/sys/__timeout.h">
<polygon fill="#ffffff" stroke="#000000" points="303,-112.5 303,-131.5 404,-131.5 404,-112.5 303,-112.5"/>
<text text-anchor="middle" x="353.5" y="-119.5" font-family="Helvetica,sans-Serif" font-size="10.00" fill="#000000">l4/sys/__timeout.h</text>
</a>
</g>
</g>
<!-- Node4&#45;&gt;Node8 -->
<g id="edge12" class="edge">
<title>Node4&#45;&gt;Node8</title>
<path fill="none" stroke="#191970" d="M201.9588,-168.3733C232.5207,-159.021 279.0826,-144.7725 312.5261,-134.5385"/>
<polygon fill="#191970" stroke="#191970" points="313.9136,-137.7742 322.4517,-131.5011 311.8652,-131.0806 313.9136,-137.7742"/>
</g>
<!-- Node6&#45;&gt;Node1 -->
<g id="edge8" class="edge">
<title>Node6&#45;&gt;Node1</title>
<path fill="none" stroke="#191970" d="M176.6826,-112.3733C150.9668,-103.1419 111.962,-89.1402 83.5401,-78.9375"/>
<polygon fill="#191970" stroke="#191970" points="84.5619,-75.5857 73.9674,-75.5011 82.1968,-82.174 84.5619,-75.5857"/>
</g>
<!-- Node6&#45;&gt;Node5 -->
<g id="edge9" class="edge">
<title>Node6&#45;&gt;Node5</title>
<path fill="none" stroke="#191970" d="M215.8673,-112.2455C226.4554,-103.8943 241.9064,-91.7076 254.2893,-81.9408"/>
<polygon fill="#191970" stroke="#191970" points="256.5903,-84.5837 262.2745,-75.6427 252.2553,-79.0875 256.5903,-84.5837"/>
</g>
<!-- Node7&#45;&gt;Node1 -->
<g id="edge11" class="edge">
<title>Node7&#45;&gt;Node1</title>
<path fill="none" stroke="#191970" d="M81.3583,-112.2455C75.6556,-104.4564 67.51,-93.3308 60.6375,-83.9439"/>
<polygon fill="#191970" stroke="#191970" points="63.2913,-81.6437 54.5598,-75.6427 57.6432,-85.7789 63.2913,-81.6437"/>
</g>
<!-- Node8&#45;&gt;Node5 -->
<g id="edge13" class="edge">
<title>Node8&#45;&gt;Node5</title>
<path fill="none" stroke="#191970" d="M339.7393,-112.2455C327.8448,-103.814 310.435,-91.4729 296.5915,-81.6598"/>
<polygon fill="#191970" stroke="#191970" points="298.2854,-78.5704 288.1031,-75.6427 294.2372,-84.2811 298.2854,-78.5704"/>
</g>
</g>
</svg>
