<?xml version="1.0" encoding="UTF-8" standalone="no"?>
<!DOCTYPE svg PUBLIC "-//W3C//DTD SVG 1.1//EN"
 "http://www.w3.org/Graphics/SVG/1.1/DTD/svg11.dtd">
<!-- Generated by graphviz version 2.40.1 (20161225.0304)
 -->
<!-- Title: l4/vbus/vbus.h Pages: 1 -->
<svg width="350pt" height="140pt"
 viewBox="0.00 0.00 350.00 140.00" xmlns="http://www.w3.org/2000/svg" xmlns:xlink="http://www.w3.org/1999/xlink">
<g id="graph0" class="graph" transform="scale(1 1) rotate(0) translate(4 136)">
<title>l4/vbus/vbus.h</title>
<polygon fill="#ffffff" stroke="transparent" points="-4,4 -4,-136 346,-136 346,4 -4,4"/>
<!-- Node9 -->
<g id="node1" class="node">
<title>Node9</title>
<polygon fill="#bfbfbf" stroke="#000000" points="141.5,-112.5 141.5,-131.5 222.5,-131.5 222.5,-112.5 141.5,-112.5"/>
<text text-anchor="middle" x="182" y="-119.5" font-family="Helvetica,sans-Serif" font-size="10.00" fill="#000000">l4/vbus/vbus.h</text>
</g>
<!-- Node10 -->
<g id="node2" class="node">
<title>Node10</title>
<g id="a_node2"><a xlink:href="vbus_source.html" target="_top" xlink:title="l4/vbus/vbus">
<polygon fill="#ffffff" stroke="#000000" points="145.5,-56.5 145.5,-75.5 218.5,-75.5 218.5,-56.5 145.5,-56.5"/>
<text text-anchor="middle" x="182" y="-63.5" font-family="Helvetica,sans-Serif" font-size="10.00" fill="#000000">l4/vbus/vbus</text>
</a>
</g>
</g>
<!-- Node9&#45;&gt;Node10 -->
<g id="edge1" class="edge">
<title>Node9&#45;&gt;Node10</title>
<path fill="none" stroke="#191970" d="M182,-102.1575C182,-93.155 182,-82.9199 182,-75.6427"/>
<polygon fill="#191970" stroke="#191970" points="178.5001,-102.2455 182,-112.2455 185.5001,-102.2456 178.5001,-102.2455"/>
</g>
<!-- Node11 -->
<g id="node3" class="node">
<title>Node11</title>
<g id="a_node3"><a xlink:href="vbus__generic_source.html" target="_top" xlink:title="l4/vbus/vbus_generic">
<polygon fill="#ffffff" stroke="#000000" points="0,-.5 0,-19.5 114,-19.5 114,-.5 0,-.5"/>
<text text-anchor="middle" x="57" y="-7.5" font-family="Helvetica,sans-Serif" font-size="10.00" fill="#000000">l4/vbus/vbus_generic</text>
</a>
</g>
</g>
<!-- Node10&#45;&gt;Node11 -->
<g id="edge2" class="edge">
<title>Node10&#45;&gt;Node11</title>
<path fill="none" stroke="#191970" d="M151.302,-52.2473C128.6007,-42.0771 98.2685,-28.4883 78.2079,-19.5011"/>
<polygon fill="#191970" stroke="#191970" points="149.9547,-55.4789 160.5117,-56.3733 152.8167,-49.0906 149.9547,-55.4789"/>
</g>
<!-- Node12 -->
<g id="node4" class="node">
<title>Node12</title>
<g id="a_node4"><a xlink:href="vbus__gpio_source.html" target="_top" xlink:title="l4/vbus/vbus_gpio">
<polygon fill="#ffffff" stroke="#000000" points="132.5,-.5 132.5,-19.5 231.5,-19.5 231.5,-.5 132.5,-.5"/>
<text text-anchor="middle" x="182" y="-7.5" font-family="Helvetica,sans-Serif" font-size="10.00" fill="#000000">l4/vbus/vbus_gpio</text>
</a>
</g>
</g>
<!-- Node10&#45;&gt;Node12 -->
<g id="edge3" class="edge">
<title>Node10&#45;&gt;Node12</title>
<path fill="none" stroke="#191970" d="M182,-46.1575C182,-37.155 182,-26.9199 182,-19.6427"/>
<polygon fill="#191970" stroke="#191970" points="178.5001,-46.2455 182,-56.2455 185.5001,-46.2456 178.5001,-46.2455"/>
</g>
<!-- Node13 -->
<g id="node5" class="node">
<title>Node13</title>
<g id="a_node5"><a xlink:href="vbus__pci_source.html" target="_top" xlink:title="l4/vbus/vbus_pci">
<polygon fill="#ffffff" stroke="#000000" points="250,-.5 250,-19.5 342,-19.5 342,-.5 250,-.5"/>
<text text-anchor="middle" x="296" y="-7.5" font-family="Helvetica,sans-Serif" font-size="10.00" fill="#000000">l4/vbus/vbus_pci</text>
</a>
</g>
</g>
<!-- Node10&#45;&gt;Node13 -->
<g id="edge4" class="edge">
<title>Node10&#45;&gt;Node13</title>
<path fill="none" stroke="#191970" d="M210.8321,-51.8368C231.4395,-41.7139 258.6082,-28.3679 276.6584,-19.5011"/>
<polygon fill="#191970" stroke="#191970" points="209.0297,-48.8227 201.5973,-56.3733 212.116,-55.1056 209.0297,-48.8227"/>
</g>
</g>
</svg>
