<?xml version="1.0" encoding="UTF-8" standalone="no"?>
<!DOCTYPE svg PUBLIC "-//W3C//DTD SVG 1.1//EN"
 "http://www.w3.org/Graphics/SVG/1.1/DTD/svg11.dtd">
<!-- Generated by graphviz version 2.40.1 (20161225.0304)
 -->
<!-- Title: l4/vbus/vbus_types.h Pages: 1 -->
<svg width="392pt" height="252pt"
 viewBox="0.00 0.00 391.50 252.00" xmlns="http://www.w3.org/2000/svg" xmlns:xlink="http://www.w3.org/1999/xlink">
<g id="graph0" class="graph" transform="scale(1 1) rotate(0) translate(4 248)">
<title>l4/vbus/vbus_types.h</title>
<polygon fill="#ffffff" stroke="transparent" points="-4,4 -4,-248 387.5015,-248 387.5015,4 -4,4"/>
<!-- Node0 -->
<g id="node1" class="node">
<title>Node0</title>
<polygon fill="#bfbfbf" stroke="#000000" points="120.0015,-224.5 120.0015,-243.5 233.0015,-243.5 233.0015,-224.5 120.0015,-224.5"/>
<text text-anchor="middle" x="176.5015" y="-231.5" font-family="Helvetica,sans-Serif" font-size="10.00" fill="#000000">l4/vbus/vbus_types.h</text>
</g>
<!-- Node1 -->
<g id="node2" class="node">
<title>Node1</title>
<g id="a_node2"><a xlink:href="l4_2sys_2types_8h.html" target="_top" xlink:title="Common L4 ABI Data Types. ">
<polygon fill="#ffffff" stroke="#000000" points="136.5015,-168.5 136.5015,-187.5 216.5015,-187.5 216.5015,-168.5 136.5015,-168.5"/>
<text text-anchor="middle" x="176.5015" y="-175.5" font-family="Helvetica,sans-Serif" font-size="10.00" fill="#000000">l4/sys/types.h</text>
</a>
</g>
</g>
<!-- Node0&#45;&gt;Node1 -->
<g id="edge1" class="edge">
<title>Node0&#45;&gt;Node1</title>
<path fill="none" stroke="#191970" d="M176.5015,-224.2455C176.5015,-216.9382 176.5015,-206.6944 176.5015,-197.7046"/>
<polygon fill="#191970" stroke="#191970" points="180.0016,-197.6426 176.5015,-187.6427 173.0016,-197.6427 180.0016,-197.6426"/>
</g>
<!-- Node2 -->
<g id="node3" class="node">
<title>Node2</title>
<g id="a_node3"><a xlink:href="l4_2sys_2l4int_8h.html" target="_top" xlink:title="Fixed sized integer types, generic version. ">
<polygon fill="#ffffff" stroke="#000000" points="27.5015,-56.5 27.5015,-75.5 101.5015,-75.5 101.5015,-56.5 27.5015,-56.5"/>
<text text-anchor="middle" x="64.5015" y="-63.5" font-family="Helvetica,sans-Serif" font-size="10.00" fill="#000000">l4/sys/l4int.h</text>
</a>
</g>
</g>
<!-- Node1&#45;&gt;Node2 -->
<g id="edge2" class="edge">
<title>Node1&#45;&gt;Node2</title>
<path fill="none" stroke="#191970" d="M136.3241,-172.9108C90.6848,-166.2083 20.454,-152.7795 4.5015,-132 -9.8367,-113.3232 14.0239,-93.5494 35.7652,-80.5704"/>
<polygon fill="#191970" stroke="#191970" points="37.5459,-83.5843 44.5255,-75.6134 34.0985,-77.4921 37.5459,-83.5843"/>
</g>
<!-- Node3 -->
<g id="node4" class="node">
<title>Node3</title>
<g id="a_node4"><a xlink:href="compiler_8h.html" target="_top" xlink:title="L4 compiler related defines. ">
<polygon fill="#ffffff" stroke="#000000" points="200.0015,-56.5 200.0015,-75.5 295.0015,-75.5 295.0015,-56.5 200.0015,-56.5"/>
<text text-anchor="middle" x="247.5015" y="-63.5" font-family="Helvetica,sans-Serif" font-size="10.00" fill="#000000">l4/sys/compiler.h</text>
</a>
</g>
</g>
<!-- Node1&#45;&gt;Node3 -->
<g id="edge3" class="edge">
<title>Node1&#45;&gt;Node3</title>
<path fill="none" stroke="#191970" d="M191.3704,-168.3992C203.0829,-160.0994 218.9742,-147.0814 228.5015,-132 237.4459,-117.8414 242.2949,-99.3521 244.85,-85.5461"/>
<polygon fill="#191970" stroke="#191970" points="248.3092,-86.0791 246.4418,-75.6502 241.398,-84.9674 248.3092,-86.0791"/>
</g>
<!-- Node5 -->
<g id="node6" class="node">
<title>Node5</title>
<g id="a_node6"><a xlink:href="l4_2sys_2consts_8h.html" target="_top" xlink:title="Common constants. ">
<polygon fill="#ffffff" stroke="#000000" points="133.5015,-112.5 133.5015,-131.5 219.5015,-131.5 219.5015,-112.5 133.5015,-112.5"/>
<text text-anchor="middle" x="176.5015" y="-119.5" font-family="Helvetica,sans-Serif" font-size="10.00" fill="#000000">l4/sys/consts.h</text>
</a>
</g>
</g>
<!-- Node1&#45;&gt;Node5 -->
<g id="edge5" class="edge">
<title>Node1&#45;&gt;Node5</title>
<path fill="none" stroke="#191970" d="M176.5015,-168.2455C176.5015,-160.9382 176.5015,-150.6944 176.5015,-141.7046"/>
<polygon fill="#191970" stroke="#191970" points="180.0016,-141.6426 176.5015,-131.6427 173.0016,-141.6427 180.0016,-141.6426"/>
</g>
<!-- Node6 -->
<g id="node7" class="node">
<title>Node6</title>
<g id="a_node7"><a xlink:href="____l4__fpage_8h_source.html" target="_top" xlink:title="l4/sys/__l4_fpage.h">
<polygon fill="#ffffff" stroke="#000000" points="275.5015,-112.5 275.5015,-131.5 383.5015,-131.5 383.5015,-112.5 275.5015,-112.5"/>
<text text-anchor="middle" x="329.5015" y="-119.5" font-family="Helvetica,sans-Serif" font-size="10.00" fill="#000000">l4/sys/__l4_fpage.h</text>
</a>
</g>
</g>
<!-- Node1&#45;&gt;Node6 -->
<g id="edge8" class="edge">
<title>Node1&#45;&gt;Node6</title>
<path fill="none" stroke="#191970" d="M202.8031,-168.3733C227.9143,-159.1822 265.9453,-145.2624 293.7887,-135.0713"/>
<polygon fill="#191970" stroke="#191970" points="295.3554,-138.2251 303.5431,-131.5011 292.9493,-131.6516 295.3554,-138.2251"/>
</g>
<!-- Node7 -->
<g id="node8" class="node">
<title>Node7</title>
<g id="a_node8"><a xlink:href="____timeout_8h_source.html" target="_top" xlink:title="l4/sys/__timeout.h">
<polygon fill="#ffffff" stroke="#000000" points="14.0015,-112.5 14.0015,-131.5 115.0015,-131.5 115.0015,-112.5 14.0015,-112.5"/>
<text text-anchor="middle" x="64.5015" y="-119.5" font-family="Helvetica,sans-Serif" font-size="10.00" fill="#000000">l4/sys/__timeout.h</text>
</a>
</g>
</g>
<!-- Node1&#45;&gt;Node7 -->
<g id="edge10" class="edge">
<title>Node1&#45;&gt;Node7</title>
<path fill="none" stroke="#191970" d="M157.248,-168.3733C139.4304,-159.4644 112.7268,-146.1127 92.5421,-136.0203"/>
<polygon fill="#191970" stroke="#191970" points="94.0133,-132.8428 83.5038,-131.5011 90.8828,-139.1038 94.0133,-132.8428"/>
</g>
<!-- Node4 -->
<g id="node5" class="node">
<title>Node4</title>
<polygon fill="#ffffff" stroke="#bfbfbf" points="203.0015,-.5 203.0015,-19.5 292.0015,-19.5 292.0015,-.5 203.0015,-.5"/>
<text text-anchor="middle" x="247.5015" y="-7.5" font-family="Helvetica,sans-Serif" font-size="10.00" fill="#000000">l4/sys/linkage.h</text>
</g>
<!-- Node3&#45;&gt;Node4 -->
<g id="edge4" class="edge">
<title>Node3&#45;&gt;Node4</title>
<path fill="none" stroke="#191970" d="M247.5015,-56.2455C247.5015,-48.9382 247.5015,-38.6944 247.5015,-29.7046"/>
<polygon fill="#191970" stroke="#191970" points="251.0016,-29.6426 247.5015,-19.6427 244.0016,-29.6427 251.0016,-29.6426"/>
</g>
<!-- Node5&#45;&gt;Node2 -->
<g id="edge7" class="edge">
<title>Node5&#45;&gt;Node2</title>
<path fill="none" stroke="#191970" d="M157.248,-112.3733C139.4304,-103.4644 112.7268,-90.1127 92.5421,-80.0203"/>
<polygon fill="#191970" stroke="#191970" points="94.0133,-76.8428 83.5038,-75.5011 90.8828,-83.1038 94.0133,-76.8428"/>
</g>
<!-- Node5&#45;&gt;Node3 -->
<g id="edge6" class="edge">
<title>Node5&#45;&gt;Node3</title>
<path fill="none" stroke="#191970" d="M188.8688,-112.2455C199.4569,-103.8943 214.9079,-91.7076 227.2908,-81.9408"/>
<polygon fill="#191970" stroke="#191970" points="229.5918,-84.5837 235.276,-75.6427 225.2568,-79.0875 229.5918,-84.5837"/>
</g>
<!-- Node6&#45;&gt;Node3 -->
<g id="edge9" class="edge">
<title>Node6&#45;&gt;Node3</title>
<path fill="none" stroke="#191970" d="M315.2182,-112.2455C302.7545,-103.7337 284.4564,-91.2375 270.0223,-81.3801"/>
<polygon fill="#191970" stroke="#191970" points="271.853,-78.392 261.6211,-75.6427 267.9053,-84.1726 271.853,-78.392"/>
</g>
<!-- Node7&#45;&gt;Node2 -->
<g id="edge11" class="edge">
<title>Node7&#45;&gt;Node2</title>
<path fill="none" stroke="#191970" d="M64.5015,-112.2455C64.5015,-104.9382 64.5015,-94.6944 64.5015,-85.7046"/>
<polygon fill="#191970" stroke="#191970" points="68.0016,-85.6426 64.5015,-75.6427 61.0016,-85.6427 68.0016,-85.6426"/>
</g>
</g>
</svg>
