<?xml version="1.0" encoding="UTF-8" standalone="no"?>
<!DOCTYPE svg PUBLIC "-//W3C//DTD SVG 1.1//EN"
 "http://www.w3.org/Graphics/SVG/1.1/DTD/svg11.dtd">
<!-- Generated by graphviz version 2.40.1 (20161225.0304)
 -->
<!-- Title: l4/sys/vcon.h Pages: 1 -->
<svg width="1426pt" height="486pt"
 viewBox="0.00 0.00 1426.00 486.00" xmlns="http://www.w3.org/2000/svg" xmlns:xlink="http://www.w3.org/1999/xlink">
<g id="graph0" class="graph" transform="scale(1 1) rotate(0) translate(4 482)">
<title>l4/sys/vcon.h</title>
<polygon fill="#ffffff" stroke="transparent" points="-4,4 -4,-482 1422,-482 1422,4 -4,4"/>
<!-- Node11 -->
<g id="node1" class="node">
<title>Node11</title>
<polygon fill="#bfbfbf" stroke="#000000" points="927,-458.5 927,-477.5 1004,-477.5 1004,-458.5 927,-458.5"/>
<text text-anchor="middle" x="965.5" y="-465.5" font-family="Helvetica,sans-Serif" font-size="10.00" fill="#000000">l4/sys/vcon.h</text>
</g>
<!-- Node12 -->
<g id="node2" class="node">
<title>Node12</title>
<g id="a_node2"><a xlink:href="vcon.html" target="_top" xlink:title="Virtual console interface. ">
<polygon fill="#ffffff" stroke="#000000" points="597,-341 597,-360 666,-360 666,-341 597,-341"/>
<text text-anchor="middle" x="631.5" y="-348" font-family="Helvetica,sans-Serif" font-size="10.00" fill="#000000">l4/sys/vcon</text>
</a>
</g>
</g>
<!-- Node11&#45;&gt;Node12 -->
<g id="edge1" class="edge">
<title>Node11&#45;&gt;Node12</title>
<path fill="none" stroke="#191970" d="M928.6482,-455.0357C861.0205,-431.2445 718.566,-381.1295 658.8022,-360.1048"/>
<polygon fill="#191970" stroke="#191970" points="927.8555,-458.467 938.4503,-458.484 930.1785,-451.8637 927.8555,-458.467"/>
</g>
<!-- Node30 -->
<g id="node20" class="node">
<title>Node30</title>
<g id="a_node20"><a xlink:href="sys_2assert_8h.html" target="_top" xlink:title="Low&#45;level assert implementation. ">
<polygon fill="#ffffff" stroke="#000000" points="1047.5,-402.5 1047.5,-421.5 1131.5,-421.5 1131.5,-402.5 1047.5,-402.5"/>
<text text-anchor="middle" x="1089.5" y="-409.5" font-family="Helvetica,sans-Serif" font-size="10.00" fill="#000000">l4/sys/assert.h</text>
</a>
</g>
</g>
<!-- Node11&#45;&gt;Node30 -->
<g id="edge21" class="edge">
<title>Node11&#45;&gt;Node30</title>
<path fill="none" stroke="#191970" d="M995.9524,-454.2473C1018.4722,-444.0771 1048.5617,-430.4883 1068.4618,-421.5011"/>
<polygon fill="#191970" stroke="#191970" points="994.4895,-451.0675 986.8164,-458.3733 997.3706,-457.4471 994.4895,-451.0675"/>
</g>
<!-- Node13 -->
<g id="node3" class="node">
<title>Node13</title>
<g id="a_node3"><a xlink:href="log.html" target="_top" xlink:title="Log interface. ">
<polygon fill="#ffffff" stroke="#000000" points="556,-274 556,-293 611,-293 611,-274 556,-274"/>
<text text-anchor="middle" x="583.5" y="-281" font-family="Helvetica,sans-Serif" font-size="10.00" fill="#000000">l4/re/log</text>
</a>
</g>
</g>
<!-- Node12&#45;&gt;Node13 -->
<g id="edge2" class="edge">
<title>Node12&#45;&gt;Node13</title>
<path fill="none" stroke="#191970" d="M618.5904,-332.4803C609.5052,-319.7989 597.7019,-303.3235 590.3645,-293.0817"/>
<polygon fill="#191970" stroke="#191970" points="615.9537,-334.8097 624.6228,-340.9005 621.6441,-330.733 615.9537,-334.8097"/>
</g>
<!-- Node28 -->
<g id="node18" class="node">
<title>Node28</title>
<g id="a_node18"><a xlink:href="vcon__stream_8h_source.html" target="_top" xlink:title="l4/l4re_vfs/impl/vcon\l_stream.h">
<polygon fill="#ffffff" stroke="#000000" points="127,-201.5 127,-231.5 240,-231.5 240,-201.5 127,-201.5"/>
<text text-anchor="start" x="135" y="-219.5" font-family="Helvetica,sans-Serif" font-size="10.00" fill="#000000">l4/l4re_vfs/impl/vcon</text>
<text text-anchor="middle" x="183.5" y="-208.5" font-family="Helvetica,sans-Serif" font-size="10.00" fill="#000000">_stream.h</text>
</a>
</g>
</g>
<!-- Node12&#45;&gt;Node28 -->
<g id="edge17" class="edge">
<title>Node12&#45;&gt;Node28</title>
<path fill="none" stroke="#191970" d="M589.8484,-338.0417C507.2394,-313.3328 322.9505,-258.2107 233.766,-231.5349"/>
<polygon fill="#191970" stroke="#191970" points="589.0565,-341.458 599.6401,-340.9705 591.0625,-334.7516 589.0565,-341.458"/>
</g>
<!-- Node29 -->
<g id="node19" class="node">
<title>Node29</title>
<g id="a_node19"><a xlink:href="vcon__svr_source.html" target="_top" xlink:title="l4/re/util/vcon_svr">
<polygon fill="#ffffff" stroke="#000000" points="629,-274 629,-293 728,-293 728,-274 629,-274"/>
<text text-anchor="middle" x="678.5" y="-281" font-family="Helvetica,sans-Serif" font-size="10.00" fill="#000000">l4/re/util/vcon_svr</text>
</a>
</g>
</g>
<!-- Node12&#45;&gt;Node29 -->
<g id="edge20" class="edge">
<title>Node12&#45;&gt;Node29</title>
<path fill="none" stroke="#191970" d="M644.1407,-332.4803C653.0366,-319.7989 664.594,-303.3235 671.7785,-293.0817"/>
<polygon fill="#191970" stroke="#191970" points="641.1115,-330.7039 638.234,-340.9005 646.8421,-334.7239 641.1115,-330.7039"/>
</g>
<!-- Node14 -->
<g id="node4" class="node">
<title>Node14</title>
<g id="a_node4"><a xlink:href="env.html" target="_top" xlink:title="Environment interface. ">
<polygon fill="#ffffff" stroke="#000000" points="554.5,-207 554.5,-226 612.5,-226 612.5,-207 554.5,-207"/>
<text text-anchor="middle" x="583.5" y="-214" font-family="Helvetica,sans-Serif" font-size="10.00" fill="#000000">l4/re/env</text>
</a>
</g>
</g>
<!-- Node13&#45;&gt;Node14 -->
<g id="edge3" class="edge">
<title>Node13&#45;&gt;Node14</title>
<path fill="none" stroke="#191970" d="M583.5,-263.6079C583.5,-251.214 583.5,-235.8263 583.5,-226.0817"/>
<polygon fill="#191970" stroke="#191970" points="580.0001,-263.9005 583.5,-273.9005 587.0001,-263.9006 580.0001,-263.9005"/>
</g>
<!-- Node15 -->
<g id="node5" class="node">
<title>Node15</title>
<g id="a_node5"><a xlink:href="vcpu_source.html" target="_top" xlink:title="l4/vcpu/vcpu">
<polygon fill="#ffffff" stroke="#000000" points="253.5,-140 253.5,-159 327.5,-159 327.5,-140 253.5,-140"/>
<text text-anchor="middle" x="290.5" y="-147" font-family="Helvetica,sans-Serif" font-size="10.00" fill="#000000">l4/vcpu/vcpu</text>
</a>
</g>
</g>
<!-- Node14&#45;&gt;Node15 -->
<g id="edge4" class="edge">
<title>Node14&#45;&gt;Node15</title>
<path fill="none" stroke="#191970" d="M544.4689,-209.8516C495.494,-201.1694 409.115,-184.7285 336.5,-165 330.1567,-163.2766 323.4084,-161.1645 317.0909,-159.0605"/>
<polygon fill="#191970" stroke="#191970" points="543.8786,-213.3014 554.3335,-211.5849 545.0901,-206.4071 543.8786,-213.3014"/>
</g>
<!-- Node16 -->
<g id="node6" class="node">
<title>Node16</title>
<g id="a_node6"><a xlink:href="server_2l4virtio_source.html" target="_top" xlink:title="l4/l4virtio/server\l/l4virtio">
<polygon fill="#ffffff" stroke="#000000" points="921.5,-67.5 921.5,-97.5 1013.5,-97.5 1013.5,-67.5 921.5,-67.5"/>
<text text-anchor="start" x="929.5" y="-85.5" font-family="Helvetica,sans-Serif" font-size="10.00" fill="#000000">l4/l4virtio/server</text>
<text text-anchor="middle" x="967.5" y="-74.5" font-family="Helvetica,sans-Serif" font-size="10.00" fill="#000000">/l4virtio</text>
</a>
</g>
</g>
<!-- Node14&#45;&gt;Node16 -->
<g id="edge5" class="edge">
<title>Node14&#45;&gt;Node16</title>
<path fill="none" stroke="#191970" d="M619.8264,-203.1391C643.3056,-193.8427 674.1057,-180.3853 699.5,-165 718.4376,-153.5265 718.5278,-143.5594 738.5,-134 770.3863,-118.7382 864.2369,-100.5081 921.415,-90.3433"/>
<polygon fill="#191970" stroke="#191970" points="618.3017,-199.9766 610.2492,-206.8619 620.8379,-206.501 618.3017,-199.9766"/>
</g>
<!-- Node18 -->
<g id="node8" class="node">
<title>Node18</title>
<g id="a_node8"><a xlink:href="env__ns_source.html" target="_top" xlink:title="l4/re/util/env_ns">
<polygon fill="#ffffff" stroke="#000000" points="599,-140 599,-159 690,-159 690,-140 599,-140"/>
<text text-anchor="middle" x="644.5" y="-147" font-family="Helvetica,sans-Serif" font-size="10.00" fill="#000000">l4/re/util/env_ns</text>
</a>
</g>
</g>
<!-- Node14&#45;&gt;Node18 -->
<g id="edge7" class="edge">
<title>Node14&#45;&gt;Node18</title>
<path fill="none" stroke="#191970" d="M599.2374,-199.2147C610.8671,-186.441 626.2707,-169.5224 635.7764,-159.0817"/>
<polygon fill="#191970" stroke="#191970" points="596.384,-197.1498 592.2398,-206.9005 601.5601,-201.8624 596.384,-197.1498"/>
</g>
<!-- Node20 -->
<g id="node10" class="node">
<title>Node20</title>
<g id="a_node10"><a xlink:href="ro__file__impl_8h_source.html" target="_top" xlink:title="l4/l4re_vfs/impl/ro\l_file_impl.h">
<polygon fill="#ffffff" stroke="#000000" points="345.5,-134.5 345.5,-164.5 445.5,-164.5 445.5,-134.5 345.5,-134.5"/>
<text text-anchor="start" x="353.5" y="-152.5" font-family="Helvetica,sans-Serif" font-size="10.00" fill="#000000">l4/l4re_vfs/impl/ro</text>
<text text-anchor="middle" x="395.5" y="-141.5" font-family="Helvetica,sans-Serif" font-size="10.00" fill="#000000">_file_impl.h</text>
</a>
</g>
</g>
<!-- Node14&#45;&gt;Node20 -->
<g id="edge9" class="edge">
<title>Node14&#45;&gt;Node20</title>
<path fill="none" stroke="#191970" d="M546.9117,-203.4605C515.5883,-192.2974 470.4799,-176.2216 437.6506,-164.5218"/>
<polygon fill="#191970" stroke="#191970" points="545.9695,-206.8403 556.5642,-206.9005 548.3195,-200.2466 545.9695,-206.8403"/>
</g>
<!-- Node21 -->
<g id="node11" class="node">
<title>Node21</title>
<g id="a_node11"><a xlink:href="vcon__stream__impl_8h_source.html" target="_top" xlink:title="l4/l4re_vfs/impl/vcon\l_stream_impl.h">
<polygon fill="#ffffff" stroke="#000000" points="0,-134.5 0,-164.5 113,-164.5 113,-134.5 0,-134.5"/>
<text text-anchor="start" x="8" y="-152.5" font-family="Helvetica,sans-Serif" font-size="10.00" fill="#000000">l4/l4re_vfs/impl/vcon</text>
<text text-anchor="middle" x="56.5" y="-141.5" font-family="Helvetica,sans-Serif" font-size="10.00" fill="#000000">_stream_impl.h</text>
</a>
</g>
</g>
<!-- Node14&#45;&gt;Node21 -->
<g id="edge10" class="edge">
<title>Node14&#45;&gt;Node21</title>
<path fill="none" stroke="#191970" d="M544.3906,-213.7161C464.633,-207.6905 277.6251,-191.7817 122.5,-165 119.4844,-164.4794 116.4005,-163.9046 113.2934,-163.2921"/>
<polygon fill="#191970" stroke="#191970" points="544.2396,-217.2144 554.4723,-214.468 544.7603,-210.2338 544.2396,-217.2144"/>
</g>
<!-- Node22 -->
<g id="node12" class="node">
<title>Node22</title>
<g id="a_node12"><a xlink:href="vfs__impl_8h_source.html" target="_top" xlink:title="l4/l4re_vfs/impl/vfs\l_impl.h">
<polygon fill="#ffffff" stroke="#000000" points="131.5,-134.5 131.5,-164.5 235.5,-164.5 235.5,-134.5 131.5,-134.5"/>
<text text-anchor="start" x="139.5" y="-152.5" font-family="Helvetica,sans-Serif" font-size="10.00" fill="#000000">l4/l4re_vfs/impl/vfs</text>
<text text-anchor="middle" x="183.5" y="-141.5" font-family="Helvetica,sans-Serif" font-size="10.00" fill="#000000">_impl.h</text>
</a>
</g>
</g>
<!-- Node14&#45;&gt;Node22 -->
<g id="edge11" class="edge">
<title>Node14&#45;&gt;Node22</title>
<path fill="none" stroke="#191970" d="M544.3536,-211.821C481.0141,-203.9665 352.2734,-186.8241 244.5,-165 241.6084,-164.4145 238.6483,-163.78 235.6662,-163.1135"/>
<polygon fill="#191970" stroke="#191970" points="543.9564,-215.2985 554.309,-213.0456 544.8111,-208.3508 543.9564,-215.2985"/>
</g>
<!-- Node23 -->
<g id="node13" class="node">
<title>Node23</title>
<g id="a_node13"><a xlink:href="util_2event.html" target="_top" xlink:title="l4/re/util/event">
<polygon fill="#ffffff" stroke="#000000" points="1032,-73 1032,-92 1115,-92 1115,-73 1032,-73"/>
<text text-anchor="middle" x="1073.5" y="-80" font-family="Helvetica,sans-Serif" font-size="10.00" fill="#000000">l4/re/util/event</text>
</a>
</g>
</g>
<!-- Node14&#45;&gt;Node23 -->
<g id="edge12" class="edge">
<title>Node14&#45;&gt;Node23</title>
<path fill="none" stroke="#191970" d="M622.6938,-211.1577C674.4098,-203.575 767.9582,-188.0058 845.5,-165 880.8678,-154.5068 887.9179,-146.8479 922.5,-134 964.432,-118.4215 1013.5531,-102.0025 1044.1045,-92.0035"/>
<polygon fill="#191970" stroke="#191970" points="622.0174,-207.719 612.6197,-212.611 623.017,-214.6473 622.0174,-207.719"/>
</g>
<!-- Node24 -->
<g id="node14" class="node">
<title>Node24</title>
<g id="a_node14"><a xlink:href="icu__svr_source.html" target="_top" xlink:title="l4/re/util/icu_svr">
<polygon fill="#ffffff" stroke="#000000" points="747,-140 747,-159 836,-159 836,-140 747,-140"/>
<text text-anchor="middle" x="791.5" y="-147" font-family="Helvetica,sans-Serif" font-size="10.00" fill="#000000">l4/re/util/icu_svr</text>
</a>
</g>
</g>
<!-- Node14&#45;&gt;Node24 -->
<g id="edge13" class="edge">
<title>Node14&#45;&gt;Node24</title>
<path fill="none" stroke="#191970" d="M622.3958,-203.9711C662.8689,-190.9341 725.346,-170.8092 761.9532,-159.0175"/>
<polygon fill="#191970" stroke="#191970" points="621.3054,-200.6451 612.8602,-207.0426 623.4517,-207.308 621.3054,-200.6451"/>
</g>
<!-- Node26 -->
<g id="node16" class="node">
<title>Node26</title>
<g id="a_node16"><a xlink:href="kumem__alloc.html" target="_top" xlink:title="Kumem allocator helper. ">
<polygon fill="#ffffff" stroke="#000000" points="464,-140 464,-159 581,-159 581,-140 464,-140"/>
<text text-anchor="middle" x="522.5" y="-147" font-family="Helvetica,sans-Serif" font-size="10.00" fill="#000000">l4/re/util/kumem_alloc</text>
</a>
</g>
</g>
<!-- Node14&#45;&gt;Node26 -->
<g id="edge15" class="edge">
<title>Node14&#45;&gt;Node26</title>
<path fill="none" stroke="#191970" d="M567.7626,-199.2147C556.1329,-186.441 540.7293,-169.5224 531.2236,-159.0817"/>
<polygon fill="#191970" stroke="#191970" points="565.4399,-201.8624 574.7602,-206.9005 570.616,-197.1498 565.4399,-201.8624"/>
</g>
<!-- Node27 -->
<g id="node17" class="node">
<title>Node27</title>
<g id="a_node17"><a xlink:href="object__registry_source.html" target="_top" xlink:title="l4/re/util/object_registry">
<polygon fill="#ffffff" stroke="#000000" points="1176,-73 1176,-92 1301,-92 1301,-73 1176,-73"/>
<text text-anchor="middle" x="1238.5" y="-80" font-family="Helvetica,sans-Serif" font-size="10.00" fill="#000000">l4/re/util/object_registry</text>
</a>
</g>
</g>
<!-- Node14&#45;&gt;Node27 -->
<g id="edge16" class="edge">
<title>Node14&#45;&gt;Node27</title>
<path fill="none" stroke="#191970" d="M622.8382,-214.5898C758.0705,-207.8586 1196.8276,-184.591 1219.5,-165 1240.7414,-146.6454 1240.8631,-109.7552 1239.5555,-92.2052"/>
<polygon fill="#191970" stroke="#191970" points="622.3482,-211.1097 612.5335,-215.0999 622.6944,-218.1011 622.3482,-211.1097"/>
</g>
<!-- Node17 -->
<g id="node7" class="node">
<title>Node17</title>
<g id="a_node7"><a xlink:href="virtio-block_source.html" target="_top" xlink:title="l4/l4virtio/server\l/virtio&#45;block">
<polygon fill="#ffffff" stroke="#000000" points="1010.5,-.5 1010.5,-30.5 1102.5,-30.5 1102.5,-.5 1010.5,-.5"/>
<text text-anchor="start" x="1018.5" y="-18.5" font-family="Helvetica,sans-Serif" font-size="10.00" fill="#000000">l4/l4virtio/server</text>
<text text-anchor="middle" x="1056.5" y="-7.5" font-family="Helvetica,sans-Serif" font-size="10.00" fill="#000000">/virtio&#45;block</text>
</a>
</g>
</g>
<!-- Node16&#45;&gt;Node17 -->
<g id="edge6" class="edge">
<title>Node16&#45;&gt;Node17</title>
<path fill="none" stroke="#191970" d="M995.9743,-61.0643C1009.1338,-51.1577 1024.4513,-39.6265 1036.3844,-30.6432"/>
<polygon fill="#191970" stroke="#191970" points="993.5797,-58.486 987.6955,-67.2967 997.7897,-64.0785 993.5797,-58.486"/>
</g>
<!-- Node19 -->
<g id="node9" class="node">
<title>Node19</title>
<g id="a_node9"><a xlink:href="ns__fs__impl_8h_source.html" target="_top" xlink:title="l4/l4re_vfs/impl/ns\l_fs_impl.h">
<polygon fill="#ffffff" stroke="#000000" points="594,-67.5 594,-97.5 695,-97.5 695,-67.5 594,-67.5"/>
<text text-anchor="start" x="602" y="-85.5" font-family="Helvetica,sans-Serif" font-size="10.00" fill="#000000">l4/l4re_vfs/impl/ns</text>
<text text-anchor="middle" x="644.5" y="-74.5" font-family="Helvetica,sans-Serif" font-size="10.00" fill="#000000">_fs_impl.h</text>
</a>
</g>
</g>
<!-- Node18&#45;&gt;Node19 -->
<g id="edge8" class="edge">
<title>Node18&#45;&gt;Node19</title>
<path fill="none" stroke="#191970" d="M644.5,-129.7758C644.5,-119.4641 644.5,-107.0437 644.5,-97.5218"/>
<polygon fill="#191970" stroke="#191970" points="641.0001,-129.9005 644.5,-139.9005 648.0001,-129.9006 641.0001,-129.9005"/>
</g>
<!-- Node25 -->
<g id="node15" class="node">
<title>Node25</title>
<g id="a_node15"><a xlink:href="event__svr_source.html" target="_top" xlink:title="l4/re/util/event_svr">
<polygon fill="#ffffff" stroke="#000000" points="740,-73 740,-92 843,-92 843,-73 740,-73"/>
<text text-anchor="middle" x="791.5" y="-80" font-family="Helvetica,sans-Serif" font-size="10.00" fill="#000000">l4/re/util/event_svr</text>
</a>
</g>
</g>
<!-- Node24&#45;&gt;Node25 -->
<g id="edge14" class="edge">
<title>Node24&#45;&gt;Node25</title>
<path fill="none" stroke="#191970" d="M791.5,-129.6079C791.5,-117.214 791.5,-101.8263 791.5,-92.0817"/>
<polygon fill="#191970" stroke="#191970" points="788.0001,-129.9005 791.5,-139.9005 795.0001,-129.9006 788.0001,-129.9005"/>
</g>
<!-- Node28&#45;&gt;Node21 -->
<g id="edge18" class="edge">
<title>Node28&#45;&gt;Node21</title>
<path fill="none" stroke="#191970" d="M146.1095,-196.7743C126.6978,-186.5335 103.3444,-174.2132 85.3456,-164.7177"/>
<polygon fill="#191970" stroke="#191970" points="144.5209,-199.8934 154.9987,-201.4639 147.7872,-193.7021 144.5209,-199.8934"/>
</g>
<!-- Node28&#45;&gt;Node22 -->
<g id="edge19" class="edge">
<title>Node28&#45;&gt;Node22</title>
<path fill="none" stroke="#191970" d="M183.5,-191.0249C183.5,-182.128 183.5,-172.4287 183.5,-164.6432"/>
<polygon fill="#191970" stroke="#191970" points="180.0001,-191.2966 183.5,-201.2967 187.0001,-191.2967 180.0001,-191.2966"/>
</g>
<!-- Node31 -->
<g id="node21" class="node">
<title>Node31</title>
<g id="a_node21"><a xlink:href="counting__cap__alloc.html" target="_top" xlink:title="Reference&#45;counting capability allocator. ">
<polygon fill="#ffffff" stroke="#000000" points="979.5,-335.5 979.5,-365.5 1075.5,-365.5 1075.5,-335.5 979.5,-335.5"/>
<text text-anchor="start" x="987.5" y="-353.5" font-family="Helvetica,sans-Serif" font-size="10.00" fill="#000000">l4/re/util/counting</text>
<text text-anchor="middle" x="1027.5" y="-342.5" font-family="Helvetica,sans-Serif" font-size="10.00" fill="#000000">_cap_alloc</text>
</a>
</g>
</g>
<!-- Node30&#45;&gt;Node31 -->
<g id="edge22" class="edge">
<title>Node30&#45;&gt;Node31</title>
<path fill="none" stroke="#191970" d="M1072.5736,-395.2101C1063.2284,-385.9403 1051.7171,-374.5218 1042.6669,-365.5446"/>
<polygon fill="#191970" stroke="#191970" points="1070.248,-397.8331 1079.8125,-402.3906 1075.1777,-392.8633 1070.248,-397.8331"/>
</g>
<!-- Node36 -->
<g id="node26" class="node">
<title>Node36</title>
<g id="a_node26"><a xlink:href="br__manager_source.html" target="_top" xlink:title="l4/re/util/br_manager">
<polygon fill="#ffffff" stroke="#000000" points="1305,-140 1305,-159 1418,-159 1418,-140 1305,-140"/>
<text text-anchor="middle" x="1361.5" y="-147" font-family="Helvetica,sans-Serif" font-size="10.00" fill="#000000">l4/re/util/br_manager</text>
</a>
</g>
</g>
<!-- Node30&#45;&gt;Node36 -->
<g id="edge39" class="edge">
<title>Node30&#45;&gt;Node36</title>
<path fill="none" stroke="#191970" d="M1141.5467,-402.0569C1167.2892,-395.1805 1197.6535,-383.9376 1220.5,-366 1296.7058,-306.1681 1344.6942,-193.1731 1357.8301,-159.323"/>
<polygon fill="#191970" stroke="#191970" points="1140.4105,-398.7337 1131.568,-404.5699 1142.12,-405.5218 1140.4105,-398.7337"/>
</g>
<!-- Node37 -->
<g id="node27" class="node">
<title>Node37</title>
<g id="a_node27"><a xlink:href="namespace__impl_8h.html" target="_top" xlink:title="Namespace client stub implementation. ">
<polygon fill="#ffffff" stroke="#000000" points="1094,-335.5 1094,-365.5 1211,-365.5 1211,-335.5 1094,-335.5"/>
<text text-anchor="start" x="1102" y="-353.5" font-family="Helvetica,sans-Serif" font-size="10.00" fill="#000000">l4/re/impl/namespace</text>
<text text-anchor="middle" x="1152.5" y="-342.5" font-family="Helvetica,sans-Serif" font-size="10.00" fill="#000000">_impl.h</text>
</a>
</g>
</g>
<!-- Node30&#45;&gt;Node37 -->
<g id="edge38" class="edge">
<title>Node30&#45;&gt;Node37</title>
<path fill="none" stroke="#191970" d="M1106.6994,-395.2101C1116.1953,-385.9403 1127.8923,-374.5218 1137.0885,-365.5446"/>
<polygon fill="#191970" stroke="#191970" points="1104.0546,-392.9007 1099.3438,-402.3906 1108.9444,-397.9097 1104.0546,-392.9007"/>
</g>
<!-- Node32 -->
<g id="node22" class="node">
<title>Node32</title>
<g id="a_node22"><a xlink:href="cap__alloc__impl_8h.html" target="_top" xlink:title="Capability allocator implementation. ">
<polygon fill="#ffffff" stroke="#000000" points="977,-268.5 977,-298.5 1078,-298.5 1078,-268.5 977,-268.5"/>
<text text-anchor="start" x="985" y="-286.5" font-family="Helvetica,sans-Serif" font-size="10.00" fill="#000000">l4/re/util/cap_alloc</text>
<text text-anchor="middle" x="1027.5" y="-275.5" font-family="Helvetica,sans-Serif" font-size="10.00" fill="#000000">_impl.h</text>
</a>
</g>
</g>
<!-- Node31&#45;&gt;Node32 -->
<g id="edge23" class="edge">
<title>Node31&#45;&gt;Node32</title>
<path fill="none" stroke="#191970" d="M1027.5,-325.0249C1027.5,-316.128 1027.5,-306.4287 1027.5,-298.6432"/>
<polygon fill="#191970" stroke="#191970" points="1024.0001,-325.2966 1027.5,-335.2967 1031.0001,-325.2967 1024.0001,-325.2966"/>
</g>
<!-- Node33 -->
<g id="node23" class="node">
<title>Node33</title>
<g id="a_node23"><a xlink:href="util_2cap__alloc.html" target="_top" xlink:title="Capability allocator. ">
<polygon fill="#ffffff" stroke="#000000" points="977,-207 977,-226 1078,-226 1078,-207 977,-207"/>
<text text-anchor="middle" x="1027.5" y="-214" font-family="Helvetica,sans-Serif" font-size="10.00" fill="#000000">l4/re/util/cap_alloc</text>
</a>
</g>
</g>
<!-- Node32&#45;&gt;Node33 -->
<g id="edge24" class="edge">
<title>Node32&#45;&gt;Node33</title>
<path fill="none" stroke="#191970" d="M1027.5,-258.1199C1027.5,-246.9072 1027.5,-234.4031 1027.5,-226.055"/>
<polygon fill="#191970" stroke="#191970" points="1024.0001,-258.2966 1027.5,-268.2967 1031.0001,-258.2967 1024.0001,-258.2966"/>
</g>
<!-- Node33&#45;&gt;Node16 -->
<g id="edge25" class="edge">
<title>Node33&#45;&gt;Node16</title>
<path fill="none" stroke="#191970" d="M974.581,-203.4832C954.7065,-195.7453 934.1297,-183.6574 922.5,-165 908.2599,-142.1549 931.0701,-114.4864 949.0861,-97.7024"/>
<polygon fill="#191970" stroke="#191970" points="973.6443,-206.8654 984.2389,-206.9422 976.0046,-200.2753 973.6443,-206.8654"/>
</g>
<!-- Node33&#45;&gt;Node18 -->
<g id="edge33" class="edge">
<title>Node33&#45;&gt;Node18</title>
<path fill="none" stroke="#191970" d="M966.6159,-205.8493C889.702,-192.3944 759.0866,-169.5452 690.1834,-157.4916"/>
<polygon fill="#191970" stroke="#191970" points="966.187,-209.3273 976.6406,-207.6029 967.3933,-202.432 966.187,-209.3273"/>
</g>
<!-- Node33&#45;&gt;Node23 -->
<g id="edge35" class="edge">
<title>Node33&#45;&gt;Node23</title>
<path fill="none" stroke="#191970" d="M1038.1719,-197.9451C1043.3528,-188.347 1049.3404,-176.3012 1053.5,-165 1062.8668,-139.5515 1069.1008,-108.0656 1071.8666,-92.3678"/>
<polygon fill="#191970" stroke="#191970" points="1034.9779,-196.4871 1033.1752,-206.9274 1041.0951,-199.89 1034.9779,-196.4871"/>
</g>
<!-- Node33&#45;&gt;Node24 -->
<g id="edge36" class="edge">
<title>Node33&#45;&gt;Node24</title>
<path fill="none" stroke="#191970" d="M984.2951,-204.2342C938.5168,-191.2378 867.1864,-170.9872 825.3287,-159.1039"/>
<polygon fill="#191970" stroke="#191970" points="983.3618,-207.6075 993.9376,-206.9717 985.2736,-200.8736 983.3618,-207.6075"/>
</g>
<!-- Node33&#45;&gt;Node27 -->
<g id="edge37" class="edge">
<title>Node33&#45;&gt;Node27</title>
<path fill="none" stroke="#191970" d="M1088.1744,-211.0212C1147.6625,-204.2446 1232.2844,-190.3655 1252.5,-165 1269.6128,-143.5278 1253.8266,-108.7932 1244.3914,-92.0827"/>
<polygon fill="#191970" stroke="#191970" points="1087.6772,-207.5546 1078.1197,-212.1268 1088.4423,-214.5127 1087.6772,-207.5546"/>
</g>
<!-- Node34 -->
<g id="node24" class="node">
<title>Node34</title>
<g id="a_node24"><a xlink:href="util_2shared__cap.html" target="_top" xlink:title="Shared_cap / Shared_del_cap. ">
<polygon fill="#ffffff" stroke="#000000" points="931,-140 931,-159 1044,-159 1044,-140 931,-140"/>
<text text-anchor="middle" x="987.5" y="-147" font-family="Helvetica,sans-Serif" font-size="10.00" fill="#000000">l4/re/util/shared_cap</text>
</a>
</g>
</g>
<!-- Node33&#45;&gt;Node34 -->
<g id="edge26" class="edge">
<title>Node33&#45;&gt;Node34</title>
<path fill="none" stroke="#191970" d="M1016.5208,-198.1099C1008.9803,-185.4795 999.2756,-169.2241 993.2204,-159.0817"/>
<polygon fill="#191970" stroke="#191970" points="1013.6376,-200.1085 1021.769,-206.9005 1019.648,-196.5202 1013.6376,-200.1085"/>
</g>
<!-- Node35 -->
<g id="node25" class="node">
<title>Node35</title>
<g id="a_node25"><a xlink:href="util_2unique__cap.html" target="_top" xlink:title="Unique_cap / Unique_del_cap. ">
<polygon fill="#ffffff" stroke="#000000" points="1100.5,-140 1100.5,-159 1210.5,-159 1210.5,-140 1100.5,-140"/>
<text text-anchor="middle" x="1155.5" y="-147" font-family="Helvetica,sans-Serif" font-size="10.00" fill="#000000">l4/re/util/unique_cap</text>
</a>
</g>
</g>
<!-- Node33&#45;&gt;Node35 -->
<g id="edge28" class="edge">
<title>Node33&#45;&gt;Node35</title>
<path fill="none" stroke="#191970" d="M1054.7625,-202.2298C1079.6119,-189.2227 1115.6336,-170.3676 1137.1947,-159.0817"/>
<polygon fill="#191970" stroke="#191970" points="1053.0758,-199.1621 1045.8393,-206.9005 1056.3221,-205.3639 1053.0758,-199.1621"/>
</g>
<!-- Node33&#45;&gt;Node36 -->
<g id="edge34" class="edge">
<title>Node33&#45;&gt;Node36</title>
<path fill="none" stroke="#191970" d="M1087.9597,-205.0448C1141.314,-194.8442 1221.1606,-179.3559 1290.5,-165 1299.5189,-163.1327 1309.1675,-161.07 1318.3534,-159.0752"/>
<polygon fill="#191970" stroke="#191970" points="1087.1499,-201.636 1077.9838,-206.9494 1088.4627,-208.5119 1087.1499,-201.636"/>
</g>
<!-- Node34&#45;&gt;Node16 -->
<g id="edge27" class="edge">
<title>Node34&#45;&gt;Node16</title>
<path fill="none" stroke="#191970" d="M981.7102,-130.1042C978.613,-119.7287 974.8567,-107.145 971.9841,-97.5218"/>
<polygon fill="#191970" stroke="#191970" points="978.4203,-131.3195 984.6345,-139.9005 985.1278,-129.3172 978.4203,-131.3195"/>
</g>
<!-- Node35&#45;&gt;Node16 -->
<g id="edge29" class="edge">
<title>Node35&#45;&gt;Node16</title>
<path fill="none" stroke="#191970" d="M1118.9117,-136.4605C1087.5883,-125.2974 1042.4799,-109.2216 1009.6506,-97.5218"/>
<polygon fill="#191970" stroke="#191970" points="1117.9695,-139.8403 1128.5642,-139.9005 1120.3195,-133.2466 1117.9695,-139.8403"/>
</g>
<!-- Node35&#45;&gt;Node17 -->
<g id="edge30" class="edge">
<title>Node35&#45;&gt;Node17</title>
<path fill="none" stroke="#191970" d="M1151.4423,-129.936C1147.0401,-112.1949 1138.6697,-85.9909 1124.5,-67 1113.5184,-52.282 1097.2212,-39.7392 1083.3343,-30.7174"/>
<polygon fill="#191970" stroke="#191970" points="1148.0451,-130.7808 1153.6869,-139.7486 1154.8688,-129.2199 1148.0451,-130.7808"/>
</g>
<!-- Node35&#45;&gt;Node23 -->
<g id="edge31" class="edge">
<title>Node35&#45;&gt;Node23</title>
<path fill="none" stroke="#191970" d="M1135.6721,-133.2992C1119.9011,-120.4131 1098.3701,-102.8207 1085.2268,-92.0817"/>
<polygon fill="#191970" stroke="#191970" points="1133.7931,-136.2836 1143.7514,-139.9005 1138.2221,-130.8629 1133.7931,-136.2836"/>
</g>
<!-- Node35&#45;&gt;Node27 -->
<g id="edge32" class="edge">
<title>Node35&#45;&gt;Node27</title>
<path fill="none" stroke="#191970" d="M1175.5697,-133.2992C1191.533,-120.4131 1213.3266,-102.8207 1226.6302,-92.0817"/>
<polygon fill="#191970" stroke="#191970" points="1172.9746,-130.8959 1167.3919,-139.9005 1177.3715,-136.3427 1172.9746,-130.8959"/>
</g>
</g>
</svg>
