<?xml version="1.0" encoding="UTF-8" standalone="no"?>
<!DOCTYPE svg PUBLIC "-//W3C//DTD SVG 1.1//EN"
 "http://www.w3.org/Graphics/SVG/1.1/DTD/svg11.dtd">
<!-- Generated by graphviz version 2.40.1 (20161225.0304)
 -->
<!-- Title: l4/sys/vcon Pages: 1 -->
<svg width="1161pt" height="285pt"
 viewBox="0.00 0.00 1160.50 285.00" xmlns="http://www.w3.org/2000/svg" xmlns:xlink="http://www.w3.org/1999/xlink">
<g id="graph0" class="graph" transform="scale(1 1) rotate(0) translate(4 281)">
<title>l4/sys/vcon</title>
<polygon fill="#ffffff" stroke="transparent" points="-4,4 -4,-281 1156.5,-281 1156.5,4 -4,4"/>
<!-- Node32 -->
<g id="node1" class="node">
<title>Node32</title>
<polygon fill="#bfbfbf" stroke="#000000" points="869,-257.5 869,-276.5 938,-276.5 938,-257.5 869,-257.5"/>
<text text-anchor="middle" x="903.5" y="-264.5" font-family="Helvetica,sans-Serif" font-size="10.00" fill="#000000">l4/sys/vcon</text>
</g>
<!-- Node33 -->
<g id="node2" class="node">
<title>Node33</title>
<g id="a_node2"><a xlink:href="log.html" target="_top" xlink:title="Log interface. ">
<polygon fill="#ffffff" stroke="#000000" points="751,-201.5 751,-220.5 806,-220.5 806,-201.5 751,-201.5"/>
<text text-anchor="middle" x="778.5" y="-208.5" font-family="Helvetica,sans-Serif" font-size="10.00" fill="#000000">l4/re/log</text>
</a>
</g>
</g>
<!-- Node32&#45;&gt;Node33 -->
<g id="edge1" class="edge">
<title>Node32&#45;&gt;Node33</title>
<path fill="none" stroke="#191970" d="M872.802,-253.2473C850.1007,-243.0771 819.7685,-229.4883 799.7079,-220.5011"/>
<polygon fill="#191970" stroke="#191970" points="871.4547,-256.4789 882.0117,-257.3733 874.3167,-250.0906 871.4547,-256.4789"/>
</g>
<!-- Node48 -->
<g id="node17" class="node">
<title>Node48</title>
<g id="a_node17"><a xlink:href="vcon__stream_8h_source.html" target="_top" xlink:title="l4/l4re_vfs/impl/vcon\l_stream.h">
<polygon fill="#ffffff" stroke="#000000" points="917,-134.5 917,-164.5 1030,-164.5 1030,-134.5 917,-134.5"/>
<text text-anchor="start" x="925" y="-152.5" font-family="Helvetica,sans-Serif" font-size="10.00" fill="#000000">l4/l4re_vfs/impl/vcon</text>
<text text-anchor="middle" x="973.5" y="-141.5" font-family="Helvetica,sans-Serif" font-size="10.00" fill="#000000">_stream.h</text>
</a>
</g>
</g>
<!-- Node32&#45;&gt;Node48 -->
<g id="edge16" class="edge">
<title>Node32&#45;&gt;Node48</title>
<path fill="none" stroke="#191970" d="M906.9163,-247.2469C909.877,-233.5806 915.0481,-215.3451 923.5,-201 931.7236,-187.0423 944.4888,-173.9799 955.0624,-164.5028"/>
<polygon fill="#191970" stroke="#191970" points="903.4023,-246.9815 904.9257,-257.4663 910.2731,-248.3199 903.4023,-246.9815"/>
</g>
<!-- Node49 -->
<g id="node18" class="node">
<title>Node49</title>
<g id="a_node18"><a xlink:href="vcon__svr_source.html" target="_top" xlink:title="l4/re/util/vcon_svr">
<polygon fill="#ffffff" stroke="#000000" points="932,-201.5 932,-220.5 1031,-220.5 1031,-201.5 932,-201.5"/>
<text text-anchor="middle" x="981.5" y="-208.5" font-family="Helvetica,sans-Serif" font-size="10.00" fill="#000000">l4/re/util/vcon_svr</text>
</a>
</g>
</g>
<!-- Node32&#45;&gt;Node49 -->
<g id="edge19" class="edge">
<title>Node32&#45;&gt;Node49</title>
<path fill="none" stroke="#191970" d="M925.4936,-251.2097C939.1929,-241.3743 956.3736,-229.0394 968.0691,-220.6427"/>
<polygon fill="#191970" stroke="#191970" points="923.1686,-248.5703 917.0866,-257.2455 927.2511,-254.2566 923.1686,-248.5703"/>
</g>
<!-- Node34 -->
<g id="node3" class="node">
<title>Node34</title>
<g id="a_node3"><a xlink:href="env.html" target="_top" xlink:title="Environment interface. ">
<polygon fill="#ffffff" stroke="#000000" points="611.5,-140 611.5,-159 669.5,-159 669.5,-140 611.5,-140"/>
<text text-anchor="middle" x="640.5" y="-147" font-family="Helvetica,sans-Serif" font-size="10.00" fill="#000000">l4/re/env</text>
</a>
</g>
</g>
<!-- Node33&#45;&gt;Node34 -->
<g id="edge2" class="edge">
<title>Node33&#45;&gt;Node34</title>
<path fill="none" stroke="#191970" d="M747.5106,-197.1895C721.4378,-185.5701 684.8398,-169.2601 661.9111,-159.0419"/>
<polygon fill="#191970" stroke="#191970" points="746.3787,-200.5169 756.9375,-201.3906 749.2282,-194.1231 746.3787,-200.5169"/>
</g>
<!-- Node35 -->
<g id="node4" class="node">
<title>Node35</title>
<g id="a_node4"><a xlink:href="vcpu_source.html" target="_top" xlink:title="l4/vcpu/vcpu">
<polygon fill="#ffffff" stroke="#000000" points="278.5,-73 278.5,-92 352.5,-92 352.5,-73 278.5,-73"/>
<text text-anchor="middle" x="315.5" y="-80" font-family="Helvetica,sans-Serif" font-size="10.00" fill="#000000">l4/vcpu/vcpu</text>
</a>
</g>
</g>
<!-- Node34&#45;&gt;Node35 -->
<g id="edge3" class="edge">
<title>Node34&#45;&gt;Node35</title>
<path fill="none" stroke="#191970" d="M601.3802,-144.0786C547.0579,-136.144 445.932,-119.8985 361.5,-98 354.9741,-96.3074 348.0347,-94.159 341.5775,-92.005"/>
<polygon fill="#191970" stroke="#191970" points="600.8854,-147.5434 611.283,-145.5085 601.8858,-140.6153 600.8854,-147.5434"/>
</g>
<!-- Node36 -->
<g id="node5" class="node">
<title>Node36</title>
<g id="a_node5"><a xlink:href="server_2l4virtio_source.html" target="_top" xlink:title="l4/l4virtio/server\l/l4virtio">
<polygon fill="#ffffff" stroke="#000000" points="370.5,-67.5 370.5,-97.5 462.5,-97.5 462.5,-67.5 370.5,-67.5"/>
<text text-anchor="start" x="378.5" y="-85.5" font-family="Helvetica,sans-Serif" font-size="10.00" fill="#000000">l4/l4virtio/server</text>
<text text-anchor="middle" x="416.5" y="-74.5" font-family="Helvetica,sans-Serif" font-size="10.00" fill="#000000">/l4virtio</text>
</a>
</g>
</g>
<!-- Node34&#45;&gt;Node36 -->
<g id="edge4" class="edge">
<title>Node34&#45;&gt;Node36</title>
<path fill="none" stroke="#191970" d="M601.3596,-137.7928C562.6583,-126.217 503.4515,-108.5078 462.5184,-96.2644"/>
<polygon fill="#191970" stroke="#191970" points="600.6323,-141.2284 611.2159,-140.7409 602.6383,-134.522 600.6323,-141.2284"/>
</g>
<!-- Node38 -->
<g id="node7" class="node">
<title>Node38</title>
<g id="a_node7"><a xlink:href="env__ns_source.html" target="_top" xlink:title="l4/re/util/env_ns">
<polygon fill="#ffffff" stroke="#000000" points="481,-73 481,-92 572,-92 572,-73 481,-73"/>
<text text-anchor="middle" x="526.5" y="-80" font-family="Helvetica,sans-Serif" font-size="10.00" fill="#000000">l4/re/util/env_ns</text>
</a>
</g>
</g>
<!-- Node34&#45;&gt;Node38 -->
<g id="edge6" class="edge">
<title>Node34&#45;&gt;Node38</title>
<path fill="none" stroke="#191970" d="M615.3367,-134.711C593.2421,-121.7256 561.7522,-103.2184 542.8031,-92.0817"/>
<polygon fill="#191970" stroke="#191970" points="613.7718,-137.851 624.1666,-139.9005 617.3187,-131.8161 613.7718,-137.851"/>
</g>
<!-- Node40 -->
<g id="node9" class="node">
<title>Node40</title>
<g id="a_node9"><a xlink:href="ro__file__impl_8h_source.html" target="_top" xlink:title="l4/l4re_vfs/impl/ro\l_file_impl.h">
<polygon fill="#ffffff" stroke="#000000" points="590.5,-67.5 590.5,-97.5 690.5,-97.5 690.5,-67.5 590.5,-67.5"/>
<text text-anchor="start" x="598.5" y="-85.5" font-family="Helvetica,sans-Serif" font-size="10.00" fill="#000000">l4/l4re_vfs/impl/ro</text>
<text text-anchor="middle" x="640.5" y="-74.5" font-family="Helvetica,sans-Serif" font-size="10.00" fill="#000000">_file_impl.h</text>
</a>
</g>
</g>
<!-- Node34&#45;&gt;Node40 -->
<g id="edge8" class="edge">
<title>Node34&#45;&gt;Node40</title>
<path fill="none" stroke="#191970" d="M640.5,-129.7758C640.5,-119.4641 640.5,-107.0437 640.5,-97.5218"/>
<polygon fill="#191970" stroke="#191970" points="637.0001,-129.9005 640.5,-139.9005 644.0001,-129.9006 637.0001,-129.9005"/>
</g>
<!-- Node41 -->
<g id="node10" class="node">
<title>Node41</title>
<g id="a_node10"><a xlink:href="vcon__stream__impl_8h_source.html" target="_top" xlink:title="l4/l4re_vfs/impl/vcon\l_stream_impl.h">
<polygon fill="#ffffff" stroke="#000000" points="917,-67.5 917,-97.5 1030,-97.5 1030,-67.5 917,-67.5"/>
<text text-anchor="start" x="925" y="-85.5" font-family="Helvetica,sans-Serif" font-size="10.00" fill="#000000">l4/l4re_vfs/impl/vcon</text>
<text text-anchor="middle" x="973.5" y="-74.5" font-family="Helvetica,sans-Serif" font-size="10.00" fill="#000000">_stream_impl.h</text>
</a>
</g>
</g>
<!-- Node34&#45;&gt;Node41 -->
<g id="edge9" class="edge">
<title>Node34&#45;&gt;Node41</title>
<path fill="none" stroke="#191970" d="M679.3877,-142.5847C731.6282,-133.1677 827.2976,-115.475 908.5,-98 911.222,-97.4142 914.0048,-96.8021 916.8133,-96.1736"/>
<polygon fill="#191970" stroke="#191970" points="678.7591,-139.1415 669.5359,-144.3552 679.9973,-146.0312 678.7591,-139.1415"/>
</g>
<!-- Node42 -->
<g id="node11" class="node">
<title>Node42</title>
<g id="a_node11"><a xlink:href="vfs__impl_8h_source.html" target="_top" xlink:title="l4/l4re_vfs/impl/vfs\l_impl.h">
<polygon fill="#ffffff" stroke="#000000" points="1048.5,-67.5 1048.5,-97.5 1152.5,-97.5 1152.5,-67.5 1048.5,-67.5"/>
<text text-anchor="start" x="1056.5" y="-85.5" font-family="Helvetica,sans-Serif" font-size="10.00" fill="#000000">l4/l4re_vfs/impl/vfs</text>
<text text-anchor="middle" x="1100.5" y="-74.5" font-family="Helvetica,sans-Serif" font-size="10.00" fill="#000000">_impl.h</text>
</a>
</g>
</g>
<!-- Node34&#45;&gt;Node42 -->
<g id="edge10" class="edge">
<title>Node34&#45;&gt;Node42</title>
<path fill="none" stroke="#191970" d="M679.6852,-146.0233C751.4697,-139.3044 908.718,-122.9618 1039.5,-98 1042.3979,-97.4469 1045.3631,-96.838 1048.3491,-96.1913"/>
<polygon fill="#191970" stroke="#191970" points="679.3625,-142.5382 669.7275,-146.9447 680.0075,-149.5084 679.3625,-142.5382"/>
</g>
<!-- Node43 -->
<g id="node12" class="node">
<title>Node43</title>
<g id="a_node12"><a xlink:href="util_2event.html" target="_top" xlink:title="l4/re/util/event">
<polygon fill="#ffffff" stroke="#000000" points="709,-73 709,-92 792,-92 792,-73 709,-73"/>
<text text-anchor="middle" x="750.5" y="-80" font-family="Helvetica,sans-Serif" font-size="10.00" fill="#000000">l4/re/util/event</text>
</a>
</g>
</g>
<!-- Node34&#45;&gt;Node43 -->
<g id="edge11" class="edge">
<title>Node34&#45;&gt;Node43</title>
<path fill="none" stroke="#191970" d="M665.0665,-134.5368C686.3707,-121.5605 716.5663,-103.1687 734.7689,-92.0817"/>
<polygon fill="#191970" stroke="#191970" points="662.9801,-131.7094 656.2603,-139.9005 666.6215,-137.6877 662.9801,-131.7094"/>
</g>
<!-- Node44 -->
<g id="node13" class="node">
<title>Node44</title>
<g id="a_node13"><a xlink:href="icu__svr_source.html" target="_top" xlink:title="l4/re/util/icu_svr">
<polygon fill="#ffffff" stroke="#000000" points="810,-73 810,-92 899,-92 899,-73 810,-73"/>
<text text-anchor="middle" x="854.5" y="-80" font-family="Helvetica,sans-Serif" font-size="10.00" fill="#000000">l4/re/util/icu_svr</text>
</a>
</g>
</g>
<!-- Node34&#45;&gt;Node44 -->
<g id="edge12" class="edge">
<title>Node34&#45;&gt;Node44</title>
<path fill="none" stroke="#191970" d="M679.5713,-137.2674C721.0756,-124.2731 785.8297,-103.9996 823.8186,-92.1059"/>
<polygon fill="#191970" stroke="#191970" points="678.3045,-133.9964 669.8071,-140.3244 680.3961,-140.6766 678.3045,-133.9964"/>
</g>
<!-- Node46 -->
<g id="node15" class="node">
<title>Node46</title>
<g id="a_node15"><a xlink:href="kumem__alloc.html" target="_top" xlink:title="Kumem allocator helper. ">
<polygon fill="#ffffff" stroke="#000000" points="0,-73 0,-92 117,-92 117,-73 0,-73"/>
<text text-anchor="middle" x="58.5" y="-80" font-family="Helvetica,sans-Serif" font-size="10.00" fill="#000000">l4/re/util/kumem_alloc</text>
</a>
</g>
</g>
<!-- Node34&#45;&gt;Node46 -->
<g id="edge14" class="edge">
<title>Node34&#45;&gt;Node46</title>
<path fill="none" stroke="#191970" d="M601.1392,-147.2837C514.6435,-142.0378 301.6725,-127.0648 125.5,-98 115.8405,-96.4064 105.4949,-94.2434 95.8938,-92.0392"/>
<polygon fill="#191970" stroke="#191970" points="601.0994,-150.7875 611.2902,-147.8897 601.5166,-143.7999 601.0994,-150.7875"/>
</g>
<!-- Node47 -->
<g id="node16" class="node">
<title>Node47</title>
<g id="a_node16"><a xlink:href="object__registry_source.html" target="_top" xlink:title="l4/re/util/object_registry">
<polygon fill="#ffffff" stroke="#000000" points="135,-73 135,-92 260,-92 260,-73 135,-73"/>
<text text-anchor="middle" x="197.5" y="-80" font-family="Helvetica,sans-Serif" font-size="10.00" fill="#000000">l4/re/util/object_registry</text>
</a>
</g>
</g>
<!-- Node34&#45;&gt;Node47 -->
<g id="edge15" class="edge">
<title>Node34&#45;&gt;Node47</title>
<path fill="none" stroke="#191970" d="M600.7839,-144.967C532.7283,-136.9809 389.5455,-119.2235 269.5,-98 259.6789,-96.2637 249.1585,-94.1465 239.2766,-92.0417"/>
<polygon fill="#191970" stroke="#191970" points="600.7081,-148.4818 611.0463,-146.1639 601.5191,-141.529 600.7081,-148.4818"/>
</g>
<!-- Node37 -->
<g id="node6" class="node">
<title>Node37</title>
<g id="a_node6"><a xlink:href="virtio-block_source.html" target="_top" xlink:title="l4/l4virtio/server\l/virtio&#45;block">
<polygon fill="#ffffff" stroke="#000000" points="367.5,-.5 367.5,-30.5 459.5,-30.5 459.5,-.5 367.5,-.5"/>
<text text-anchor="start" x="375.5" y="-18.5" font-family="Helvetica,sans-Serif" font-size="10.00" fill="#000000">l4/l4virtio/server</text>
<text text-anchor="middle" x="413.5" y="-7.5" font-family="Helvetica,sans-Serif" font-size="10.00" fill="#000000">/virtio&#45;block</text>
</a>
</g>
</g>
<!-- Node36&#45;&gt;Node37 -->
<g id="edge5" class="edge">
<title>Node36&#45;&gt;Node37</title>
<path fill="none" stroke="#191970" d="M415.3593,-57.0249C414.961,-48.128 414.5267,-38.4287 414.1781,-30.6432"/>
<polygon fill="#191970" stroke="#191970" points="411.8754,-57.4633 415.8193,-67.2967 418.8683,-57.1501 411.8754,-57.4633"/>
</g>
<!-- Node39 -->
<g id="node8" class="node">
<title>Node39</title>
<g id="a_node8"><a xlink:href="ns__fs__impl_8h_source.html" target="_top" xlink:title="l4/l4re_vfs/impl/ns\l_fs_impl.h">
<polygon fill="#ffffff" stroke="#000000" points="478,-.5 478,-30.5 579,-30.5 579,-.5 478,-.5"/>
<text text-anchor="start" x="486" y="-18.5" font-family="Helvetica,sans-Serif" font-size="10.00" fill="#000000">l4/l4re_vfs/impl/ns</text>
<text text-anchor="middle" x="528.5" y="-7.5" font-family="Helvetica,sans-Serif" font-size="10.00" fill="#000000">_fs_impl.h</text>
</a>
</g>
</g>
<!-- Node38&#45;&gt;Node39 -->
<g id="edge7" class="edge">
<title>Node38&#45;&gt;Node39</title>
<path fill="none" stroke="#191970" d="M527.0888,-62.7758C527.3966,-52.4641 527.7674,-40.0437 528.0516,-30.5218"/>
<polygon fill="#191970" stroke="#191970" points="523.5866,-62.8005 526.7866,-72.9005 530.5835,-63.0095 523.5866,-62.8005"/>
</g>
<!-- Node45 -->
<g id="node14" class="node">
<title>Node45</title>
<g id="a_node14"><a xlink:href="event__svr_source.html" target="_top" xlink:title="l4/re/util/event_svr">
<polygon fill="#ffffff" stroke="#000000" points="803,-6 803,-25 906,-25 906,-6 803,-6"/>
<text text-anchor="middle" x="854.5" y="-13" font-family="Helvetica,sans-Serif" font-size="10.00" fill="#000000">l4/re/util/event_svr</text>
</a>
</g>
</g>
<!-- Node44&#45;&gt;Node45 -->
<g id="edge13" class="edge">
<title>Node44&#45;&gt;Node45</title>
<path fill="none" stroke="#191970" d="M854.5,-62.6079C854.5,-50.214 854.5,-34.8263 854.5,-25.0817"/>
<polygon fill="#191970" stroke="#191970" points="851.0001,-62.9005 854.5,-72.9005 858.0001,-62.9006 851.0001,-62.9005"/>
</g>
<!-- Node48&#45;&gt;Node41 -->
<g id="edge17" class="edge">
<title>Node48&#45;&gt;Node41</title>
<path fill="none" stroke="#191970" d="M973.5,-124.0249C973.5,-115.128 973.5,-105.4287 973.5,-97.6432"/>
<polygon fill="#191970" stroke="#191970" points="970.0001,-124.2966 973.5,-134.2967 977.0001,-124.2967 970.0001,-124.2966"/>
</g>
<!-- Node48&#45;&gt;Node42 -->
<g id="edge18" class="edge">
<title>Node48&#45;&gt;Node42</title>
<path fill="none" stroke="#191970" d="M1010.8905,-129.7743C1030.3022,-119.5335 1053.6556,-107.2132 1071.6544,-97.7177"/>
<polygon fill="#191970" stroke="#191970" points="1009.2128,-126.7021 1002.0013,-134.4639 1012.4791,-132.8934 1009.2128,-126.7021"/>
</g>
</g>
</svg>
