<?xml version="1.0" encoding="UTF-8" standalone="no"?>
<!DOCTYPE svg PUBLIC "-//W3C//DTD SVG 1.1//EN"
 "http://www.w3.org/Graphics/SVG/1.1/DTD/svg11.dtd">
<!-- Generated by graphviz version 2.40.1 (20161225.0304)
 -->
<!-- Title: l4/sys/vhw.h Pages: 1 -->
<svg width="456pt" height="364pt"
 viewBox="0.00 0.00 455.50 364.00" xmlns="http://www.w3.org/2000/svg" xmlns:xlink="http://www.w3.org/1999/xlink">
<g id="graph0" class="graph" transform="scale(1 1) rotate(0) translate(4 360)">
<title>l4/sys/vhw.h</title>
<polygon fill="#ffffff" stroke="transparent" points="-4,4 -4,-360 451.5,-360 451.5,4 -4,4"/>
<!-- Node0 -->
<g id="node1" class="node">
<title>Node0</title>
<polygon fill="#bfbfbf" stroke="#000000" points="373.5,-336.5 373.5,-355.5 447.5,-355.5 447.5,-336.5 373.5,-336.5"/>
<text text-anchor="middle" x="410.5" y="-343.5" font-family="Helvetica,sans-Serif" font-size="10.00" fill="#000000">l4/sys/vhw.h</text>
</g>
<!-- Node1 -->
<g id="node2" class="node">
<title>Node1</title>
<g id="a_node2"><a xlink:href="l4_2sys_2types_8h.html" target="_top" xlink:title="Common L4 ABI Data Types. ">
<polygon fill="#ffffff" stroke="#000000" points="234.5,-168.5 234.5,-187.5 314.5,-187.5 314.5,-168.5 234.5,-168.5"/>
<text text-anchor="middle" x="274.5" y="-175.5" font-family="Helvetica,sans-Serif" font-size="10.00" fill="#000000">l4/sys/types.h</text>
</a>
</g>
</g>
<!-- Node0&#45;&gt;Node1 -->
<g id="edge1" class="edge">
<title>Node0&#45;&gt;Node1</title>
<path fill="none" stroke="#191970" d="M410.2508,-336.174C409.1729,-313.6324 403.5443,-257.5663 374.5,-224 361.251,-208.6881 341.8384,-198.1711 323.6342,-191.1028"/>
<polygon fill="#191970" stroke="#191970" points="324.5732,-187.7207 313.9789,-187.6181 322.1969,-194.3051 324.5732,-187.7207"/>
</g>
<!-- Node8 -->
<g id="node9" class="node">
<title>Node8</title>
<g id="a_node9"><a xlink:href="sys_2kip_8h.html" target="_top" xlink:title="Kernel Info Page access functions. ">
<polygon fill="#ffffff" stroke="#000000" points="278.5,-280.5 278.5,-299.5 346.5,-299.5 346.5,-280.5 278.5,-280.5"/>
<text text-anchor="middle" x="312.5" y="-287.5" font-family="Helvetica,sans-Serif" font-size="10.00" fill="#000000">l4/sys/kip.h</text>
</a>
</g>
</g>
<!-- Node0&#45;&gt;Node8 -->
<g id="edge12" class="edge">
<title>Node0&#45;&gt;Node8</title>
<path fill="none" stroke="#191970" d="M393.4297,-336.2455C378.253,-327.5731 355.8379,-314.7645 338.4437,-304.825"/>
<polygon fill="#191970" stroke="#191970" points="339.7936,-301.5653 329.3747,-299.6427 336.3206,-307.643 339.7936,-301.5653"/>
</g>
<!-- Node2 -->
<g id="node3" class="node">
<title>Node2</title>
<g id="a_node3"><a xlink:href="l4_2sys_2l4int_8h.html" target="_top" xlink:title="Fixed sized integer types, generic version. ">
<polygon fill="#ffffff" stroke="#000000" points="276.5,-56.5 276.5,-75.5 350.5,-75.5 350.5,-56.5 276.5,-56.5"/>
<text text-anchor="middle" x="313.5" y="-63.5" font-family="Helvetica,sans-Serif" font-size="10.00" fill="#000000">l4/sys/l4int.h</text>
</a>
</g>
</g>
<!-- Node1&#45;&gt;Node2 -->
<g id="edge2" class="edge">
<title>Node1&#45;&gt;Node2</title>
<path fill="none" stroke="#191970" d="M277.1851,-168.0621C280.7725,-155.0591 287.4943,-131.6195 294.5,-112 297.6872,-103.0744 301.6312,-93.3526 305.0985,-85.1554"/>
<polygon fill="#191970" stroke="#191970" points="308.4027,-86.3315 309.1424,-75.7626 301.9732,-83.5634 308.4027,-86.3315"/>
</g>
<!-- Node3 -->
<g id="node4" class="node">
<title>Node3</title>
<g id="a_node4"><a xlink:href="compiler_8h.html" target="_top" xlink:title="L4 compiler related defines. ">
<polygon fill="#ffffff" stroke="#000000" points="0,-56.5 0,-75.5 95,-75.5 95,-56.5 0,-56.5"/>
<text text-anchor="middle" x="47.5" y="-63.5" font-family="Helvetica,sans-Serif" font-size="10.00" fill="#000000">l4/sys/compiler.h</text>
</a>
</g>
</g>
<!-- Node1&#45;&gt;Node3 -->
<g id="edge3" class="edge">
<title>Node1&#45;&gt;Node3</title>
<path fill="none" stroke="#191970" d="M234.4393,-176.599C170.9257,-173.4417 51.6164,-163.383 25.5,-132 13.9835,-118.1611 23.3376,-98.0614 33.1619,-83.6839"/>
<polygon fill="#191970" stroke="#191970" points="36.0244,-85.6995 39.1574,-75.5784 30.3967,-81.5367 36.0244,-85.6995"/>
</g>
<!-- Node5 -->
<g id="node6" class="node">
<title>Node5</title>
<g id="a_node6"><a xlink:href="l4_2sys_2consts_8h.html" target="_top" xlink:title="Common constants. ">
<polygon fill="#ffffff" stroke="#000000" points="160.5,-112.5 160.5,-131.5 246.5,-131.5 246.5,-112.5 160.5,-112.5"/>
<text text-anchor="middle" x="203.5" y="-119.5" font-family="Helvetica,sans-Serif" font-size="10.00" fill="#000000">l4/sys/consts.h</text>
</a>
</g>
</g>
<!-- Node1&#45;&gt;Node5 -->
<g id="edge5" class="edge">
<title>Node1&#45;&gt;Node5</title>
<path fill="none" stroke="#191970" d="M262.1327,-168.2455C251.5446,-159.8943 236.0936,-147.7076 223.7107,-137.9408"/>
<polygon fill="#191970" stroke="#191970" points="225.7447,-135.0875 215.7255,-131.6427 221.4097,-140.5837 225.7447,-135.0875"/>
</g>
<!-- Node6 -->
<g id="node7" class="node">
<title>Node6</title>
<g id="a_node7"><a xlink:href="____l4__fpage_8h_source.html" target="_top" xlink:title="l4/sys/__l4_fpage.h">
<polygon fill="#ffffff" stroke="#000000" points="34.5,-112.5 34.5,-131.5 142.5,-131.5 142.5,-112.5 34.5,-112.5"/>
<text text-anchor="middle" x="88.5" y="-119.5" font-family="Helvetica,sans-Serif" font-size="10.00" fill="#000000">l4/sys/__l4_fpage.h</text>
</a>
</g>
</g>
<!-- Node1&#45;&gt;Node6 -->
<g id="edge8" class="edge">
<title>Node1&#45;&gt;Node6</title>
<path fill="none" stroke="#191970" d="M242.5255,-168.3733C211.3287,-158.9807 163.729,-144.6496 129.7068,-134.4064"/>
<polygon fill="#191970" stroke="#191970" points="130.6418,-131.0327 120.0573,-131.5011 128.6237,-137.7355 130.6418,-131.0327"/>
</g>
<!-- Node7 -->
<g id="node8" class="node">
<title>Node7</title>
<g id="a_node8"><a xlink:href="____timeout_8h_source.html" target="_top" xlink:title="l4/sys/__timeout.h">
<polygon fill="#ffffff" stroke="#000000" points="303,-112.5 303,-131.5 404,-131.5 404,-112.5 303,-112.5"/>
<text text-anchor="middle" x="353.5" y="-119.5" font-family="Helvetica,sans-Serif" font-size="10.00" fill="#000000">l4/sys/__timeout.h</text>
</a>
</g>
</g>
<!-- Node1&#45;&gt;Node7 -->
<g id="edge10" class="edge">
<title>Node1&#45;&gt;Node7</title>
<path fill="none" stroke="#191970" d="M288.2607,-168.2455C300.1552,-159.814 317.565,-147.4729 331.4085,-137.6598"/>
<polygon fill="#191970" stroke="#191970" points="333.7628,-140.2811 339.8969,-131.6427 329.7146,-134.5704 333.7628,-140.2811"/>
</g>
<!-- Node4 -->
<g id="node5" class="node">
<title>Node4</title>
<polygon fill="#ffffff" stroke="#bfbfbf" points="3,-.5 3,-19.5 92,-19.5 92,-.5 3,-.5"/>
<text text-anchor="middle" x="47.5" y="-7.5" font-family="Helvetica,sans-Serif" font-size="10.00" fill="#000000">l4/sys/linkage.h</text>
</g>
<!-- Node3&#45;&gt;Node4 -->
<g id="edge4" class="edge">
<title>Node3&#45;&gt;Node4</title>
<path fill="none" stroke="#191970" d="M47.5,-56.2455C47.5,-48.9382 47.5,-38.6944 47.5,-29.7046"/>
<polygon fill="#191970" stroke="#191970" points="51.0001,-29.6426 47.5,-19.6427 44.0001,-29.6427 51.0001,-29.6426"/>
</g>
<!-- Node5&#45;&gt;Node2 -->
<g id="edge7" class="edge">
<title>Node5&#45;&gt;Node2</title>
<path fill="none" stroke="#191970" d="M222.6605,-112.2455C240.0111,-103.4125 265.7901,-90.2887 285.4583,-80.2758"/>
<polygon fill="#191970" stroke="#191970" points="287.2353,-83.2986 294.559,-75.6427 284.0595,-77.0605 287.2353,-83.2986"/>
</g>
<!-- Node5&#45;&gt;Node3 -->
<g id="edge6" class="edge">
<title>Node5&#45;&gt;Node3</title>
<path fill="none" stroke="#191970" d="M176.6826,-112.3733C150.9668,-103.1419 111.962,-89.1402 83.5401,-78.9375"/>
<polygon fill="#191970" stroke="#191970" points="84.5619,-75.5857 73.9674,-75.5011 82.1968,-82.174 84.5619,-75.5857"/>
</g>
<!-- Node6&#45;&gt;Node3 -->
<g id="edge9" class="edge">
<title>Node6&#45;&gt;Node3</title>
<path fill="none" stroke="#191970" d="M81.3583,-112.2455C75.6556,-104.4564 67.51,-93.3308 60.6375,-83.9439"/>
<polygon fill="#191970" stroke="#191970" points="63.2913,-81.6437 54.5598,-75.6427 57.6432,-85.7789 63.2913,-81.6437"/>
</g>
<!-- Node7&#45;&gt;Node2 -->
<g id="edge11" class="edge">
<title>Node7&#45;&gt;Node2</title>
<path fill="none" stroke="#191970" d="M346.5325,-112.2455C340.9689,-104.4564 333.022,-93.3308 326.3171,-83.9439"/>
<polygon fill="#191970" stroke="#191970" points="329.0481,-81.7457 320.3876,-75.6427 323.352,-85.8144 329.0481,-81.7457"/>
</g>
<!-- Node8&#45;&gt;Node2 -->
<g id="edge14" class="edge">
<title>Node8&#45;&gt;Node2</title>
<path fill="none" stroke="#191970" d="M330.8694,-280.3875C344.629,-272.3377 362.9911,-259.6601 374.5,-244 410.7267,-194.7065 446.5025,-163.5079 413.5,-112 401.6279,-93.4709 380.202,-82.3038 360.2198,-75.6246"/>
<polygon fill="#191970" stroke="#191970" points="361.1601,-72.2524 350.5745,-72.6937 359.1248,-78.95 361.1601,-72.2524"/>
</g>
<!-- Node8&#45;&gt;Node3 -->
<g id="edge13" class="edge">
<title>Node8&#45;&gt;Node3</title>
<path fill="none" stroke="#191970" d="M278.2497,-286.9688C239.6919,-282.3456 176.2082,-271.0119 128.5,-244 67.2411,-209.3158 43.4395,-197.0378 16.5,-132 9.5852,-115.3062 20.0181,-96.7105 30.6037,-83.5234"/>
<polygon fill="#191970" stroke="#191970" points="33.4764,-85.5539 37.4012,-75.7129 28.196,-80.9584 33.4764,-85.5539"/>
</g>
<!-- Node9 -->
<g id="node10" class="node">
<title>Node9</title>
<polygon fill="#ffffff" stroke="#bfbfbf" points="137.5,-224.5 137.5,-243.5 241.5,-243.5 241.5,-224.5 137.5,-224.5"/>
<text text-anchor="middle" x="189.5" y="-231.5" font-family="Helvetica,sans-Serif" font-size="10.00" fill="#000000">l4/sys/__kip&#45;arch.h</text>
</g>
<!-- Node8&#45;&gt;Node9 -->
<g id="edge15" class="edge">
<title>Node8&#45;&gt;Node9</title>
<path fill="none" stroke="#191970" d="M291.3555,-280.3733C271.6108,-271.3838 241.9302,-257.8706 219.6945,-247.7471"/>
<polygon fill="#191970" stroke="#191970" points="220.92,-244.4594 210.3685,-243.5011 218.0194,-250.8302 220.92,-244.4594"/>
</g>
<!-- Node10 -->
<g id="node11" class="node">
<title>Node10</title>
<g id="a_node11"><a xlink:href="____kip-64bit_8h_source.html" target="_top" xlink:title="l4/sys/__kip&#45;64bit.h">
<polygon fill="#ffffff" stroke="#000000" points="259.5,-224.5 259.5,-243.5 365.5,-243.5 365.5,-224.5 259.5,-224.5"/>
<text text-anchor="middle" x="312.5" y="-231.5" font-family="Helvetica,sans-Serif" font-size="10.00" fill="#000000">l4/sys/__kip&#45;64bit.h</text>
</a>
</g>
</g>
<!-- Node8&#45;&gt;Node10 -->
<g id="edge16" class="edge">
<title>Node8&#45;&gt;Node10</title>
<path fill="none" stroke="#191970" d="M312.5,-280.2455C312.5,-272.9382 312.5,-262.6944 312.5,-253.7046"/>
<polygon fill="#191970" stroke="#191970" points="316.0001,-253.6426 312.5,-243.6427 309.0001,-253.6427 316.0001,-253.6426"/>
</g>
<!-- Node10&#45;&gt;Node1 -->
<g id="edge17" class="edge">
<title>Node10&#45;&gt;Node1</title>
<path fill="none" stroke="#191970" d="M305.8809,-224.2455C300.5954,-216.4564 293.0459,-205.3308 286.6762,-195.9439"/>
<polygon fill="#191970" stroke="#191970" points="289.5545,-193.9522 281.0432,-187.6427 283.7621,-197.8827 289.5545,-193.9522"/>
</g>
</g>
</svg>
