<?xml version="1.0" encoding="UTF-8" standalone="no"?>
<!DOCTYPE svg PUBLIC "-//W3C//DTD SVG 1.1//EN"
 "http://www.w3.org/Graphics/SVG/1.1/DTD/svg11.dtd">
<!-- Generated by graphviz version 2.40.1 (20161225.0304)
 -->
<!-- Title: l4/re/c/video/view.h Pages: 1 -->
<svg width="468pt" height="308pt"
 viewBox="0.00 0.00 467.61 308.00" xmlns="http://www.w3.org/2000/svg" xmlns:xlink="http://www.w3.org/1999/xlink">
<g id="graph0" class="graph" transform="scale(1 1) rotate(0) translate(4 304)">
<title>l4/re/c/video/view.h</title>
<polygon fill="#ffffff" stroke="transparent" points="-4,4 -4,-304 463.6087,-304 463.6087,4 -4,4"/>
<!-- Node0 -->
<g id="node1" class="node">
<title>Node0</title>
<polygon fill="#bfbfbf" stroke="#000000" points="223.1087,-280.5 223.1087,-299.5 330.1087,-299.5 330.1087,-280.5 223.1087,-280.5"/>
<text text-anchor="middle" x="276.6087" y="-287.5" font-family="Helvetica,sans-Serif" font-size="10.00" fill="#000000">l4/re/c/video/view.h</text>
</g>
<!-- Node1 -->
<g id="node2" class="node">
<title>Node1</title>
<g id="a_node2"><a xlink:href="l4_2sys_2types_8h.html" target="_top" xlink:title="Common L4 ABI Data Types. ">
<polygon fill="#ffffff" stroke="#000000" points="154.6087,-168.5 154.6087,-187.5 234.6087,-187.5 234.6087,-168.5 154.6087,-168.5"/>
<text text-anchor="middle" x="194.6087" y="-175.5" font-family="Helvetica,sans-Serif" font-size="10.00" fill="#000000">l4/sys/types.h</text>
</a>
</g>
</g>
<!-- Node0&#45;&gt;Node1 -->
<g id="edge1" class="edge">
<title>Node0&#45;&gt;Node1</title>
<path fill="none" stroke="#191970" d="M257.4012,-280.4673C243.3206,-272.5391 224.7839,-259.9821 213.6087,-244 204.012,-230.2752 199.2264,-211.7437 196.8615,-197.8112"/>
<polygon fill="#191970" stroke="#191970" points="200.3114,-197.2108 195.4382,-187.8033 193.3812,-198.1965 200.3114,-197.2108"/>
</g>
<!-- Node8 -->
<g id="node9" class="node">
<title>Node8</title>
<g id="a_node9"><a xlink:href="dataspace_8h.html" target="_top" xlink:title="Data space C interface. ">
<polygon fill="#ffffff" stroke="#000000" points="223.1087,-224.5 223.1087,-243.5 330.1087,-243.5 330.1087,-224.5 223.1087,-224.5"/>
<text text-anchor="middle" x="276.6087" y="-231.5" font-family="Helvetica,sans-Serif" font-size="10.00" fill="#000000">l4/re/c/dataspace.h</text>
</a>
</g>
</g>
<!-- Node0&#45;&gt;Node8 -->
<g id="edge12" class="edge">
<title>Node0&#45;&gt;Node8</title>
<path fill="none" stroke="#191970" d="M276.6087,-280.2455C276.6087,-272.9382 276.6087,-262.6944 276.6087,-253.7046"/>
<polygon fill="#191970" stroke="#191970" points="280.1088,-253.6426 276.6087,-243.6427 273.1088,-253.6427 280.1088,-253.6426"/>
</g>
<!-- Node9 -->
<g id="node10" class="node">
<title>Node9</title>
<g id="a_node10"><a xlink:href="colors_8h.html" target="_top" xlink:title="l4/re/c/video/colors.h">
<polygon fill="#ffffff" stroke="#000000" points="345.6087,-168.5 345.6087,-187.5 459.6087,-187.5 459.6087,-168.5 345.6087,-168.5"/>
<text text-anchor="middle" x="402.6087" y="-175.5" font-family="Helvetica,sans-Serif" font-size="10.00" fill="#000000">l4/re/c/video/colors.h</text>
</a>
</g>
</g>
<!-- Node0&#45;&gt;Node9 -->
<g id="edge14" class="edge">
<title>Node0&#45;&gt;Node9</title>
<path fill="none" stroke="#191970" d="M290.9,-280.39C303.8018,-271.4863 323.0849,-257.6031 338.6087,-244 356.1049,-228.6686 374.4238,-209.4012 386.9574,-195.6491"/>
<polygon fill="#191970" stroke="#191970" points="389.8607,-197.6557 393.9546,-187.8838 384.6604,-192.9698 389.8607,-197.6557"/>
</g>
<!-- Node2 -->
<g id="node3" class="node">
<title>Node2</title>
<g id="a_node3"><a xlink:href="l4_2sys_2l4int_8h.html" target="_top" xlink:title="Fixed sized integer types, generic version. ">
<polygon fill="#ffffff" stroke="#000000" points="27.6087,-56.5 27.6087,-75.5 101.6087,-75.5 101.6087,-56.5 27.6087,-56.5"/>
<text text-anchor="middle" x="64.6087" y="-63.5" font-family="Helvetica,sans-Serif" font-size="10.00" fill="#000000">l4/sys/l4int.h</text>
</a>
</g>
</g>
<!-- Node1&#45;&gt;Node2 -->
<g id="edge2" class="edge">
<title>Node1&#45;&gt;Node2</title>
<path fill="none" stroke="#191970" d="M154.2348,-174.0074C104.0804,-168.1169 22.8665,-155.2056 4.6087,-132 -9.9506,-113.4951 13.9515,-93.689 35.763,-80.6554"/>
<polygon fill="#191970" stroke="#191970" points="37.5781,-83.6498 44.5533,-75.675 34.1274,-77.5594 37.5781,-83.6498"/>
</g>
<!-- Node3 -->
<g id="node4" class="node">
<title>Node3</title>
<g id="a_node4"><a xlink:href="compiler_8h.html" target="_top" xlink:title="L4 compiler related defines. ">
<polygon fill="#ffffff" stroke="#000000" points="241.1087,-56.5 241.1087,-75.5 336.1087,-75.5 336.1087,-56.5 241.1087,-56.5"/>
<text text-anchor="middle" x="288.6087" y="-63.5" font-family="Helvetica,sans-Serif" font-size="10.00" fill="#000000">l4/sys/compiler.h</text>
</a>
</g>
</g>
<!-- Node1&#45;&gt;Node3 -->
<g id="edge3" class="edge">
<title>Node1&#45;&gt;Node3</title>
<path fill="none" stroke="#191970" d="M202.6231,-168.4509C218.4399,-149.6054 253.875,-107.3849 273.97,-83.4419"/>
<polygon fill="#191970" stroke="#191970" points="276.8668,-85.4347 280.6146,-75.5249 271.505,-80.9346 276.8668,-85.4347"/>
</g>
<!-- Node5 -->
<g id="node6" class="node">
<title>Node5</title>
<g id="a_node6"><a xlink:href="l4_2sys_2consts_8h.html" target="_top" xlink:title="Common constants. ">
<polygon fill="#ffffff" stroke="#000000" points="133.6087,-112.5 133.6087,-131.5 219.6087,-131.5 219.6087,-112.5 133.6087,-112.5"/>
<text text-anchor="middle" x="176.6087" y="-119.5" font-family="Helvetica,sans-Serif" font-size="10.00" fill="#000000">l4/sys/consts.h</text>
</a>
</g>
</g>
<!-- Node1&#45;&gt;Node5 -->
<g id="edge5" class="edge">
<title>Node1&#45;&gt;Node5</title>
<path fill="none" stroke="#191970" d="M191.4734,-168.2455C189.0988,-160.8579 185.7594,-150.4689 182.8472,-141.4087"/>
<polygon fill="#191970" stroke="#191970" points="186.1004,-140.0919 179.7082,-131.6427 179.4362,-142.234 186.1004,-140.0919"/>
</g>
<!-- Node6 -->
<g id="node7" class="node">
<title>Node6</title>
<g id="a_node7"><a xlink:href="____l4__fpage_8h_source.html" target="_top" xlink:title="l4/sys/__l4_fpage.h">
<polygon fill="#ffffff" stroke="#000000" points="275.6087,-112.5 275.6087,-131.5 383.6087,-131.5 383.6087,-112.5 275.6087,-112.5"/>
<text text-anchor="middle" x="329.6087" y="-119.5" font-family="Helvetica,sans-Serif" font-size="10.00" fill="#000000">l4/sys/__l4_fpage.h</text>
</a>
</g>
</g>
<!-- Node1&#45;&gt;Node6 -->
<g id="edge8" class="edge">
<title>Node1&#45;&gt;Node6</title>
<path fill="none" stroke="#191970" d="M217.8161,-168.3733C239.7786,-159.2629 272.9419,-145.5062 297.4489,-135.3404"/>
<polygon fill="#191970" stroke="#191970" points="298.8085,-138.5657 306.7042,-131.5011 296.1263,-132.0999 298.8085,-138.5657"/>
</g>
<!-- Node7 -->
<g id="node8" class="node">
<title>Node7</title>
<g id="a_node8"><a xlink:href="____timeout_8h_source.html" target="_top" xlink:title="l4/sys/__timeout.h">
<polygon fill="#ffffff" stroke="#000000" points="14.1087,-112.5 14.1087,-131.5 115.1087,-131.5 115.1087,-112.5 14.1087,-112.5"/>
<text text-anchor="middle" x="64.6087" y="-119.5" font-family="Helvetica,sans-Serif" font-size="10.00" fill="#000000">l4/sys/__timeout.h</text>
</a>
</g>
</g>
<!-- Node1&#45;&gt;Node7 -->
<g id="edge10" class="edge">
<title>Node1&#45;&gt;Node7</title>
<path fill="none" stroke="#191970" d="M172.2609,-168.3733C151.2054,-159.3032 119.4592,-145.6279 95.8912,-135.4755"/>
<polygon fill="#191970" stroke="#191970" points="97.2337,-132.243 86.6649,-131.5011 94.4643,-138.6719 97.2337,-132.243"/>
</g>
<!-- Node4 -->
<g id="node5" class="node">
<title>Node4</title>
<polygon fill="#ffffff" stroke="#bfbfbf" points="244.1087,-.5 244.1087,-19.5 333.1087,-19.5 333.1087,-.5 244.1087,-.5"/>
<text text-anchor="middle" x="288.6087" y="-7.5" font-family="Helvetica,sans-Serif" font-size="10.00" fill="#000000">l4/sys/linkage.h</text>
</g>
<!-- Node3&#45;&gt;Node4 -->
<g id="edge4" class="edge">
<title>Node3&#45;&gt;Node4</title>
<path fill="none" stroke="#191970" d="M288.6087,-56.2455C288.6087,-48.9382 288.6087,-38.6944 288.6087,-29.7046"/>
<polygon fill="#191970" stroke="#191970" points="292.1088,-29.6426 288.6087,-19.6427 285.1088,-29.6427 292.1088,-29.6426"/>
</g>
<!-- Node5&#45;&gt;Node2 -->
<g id="edge7" class="edge">
<title>Node5&#45;&gt;Node2</title>
<path fill="none" stroke="#191970" d="M157.3552,-112.3733C139.5376,-103.4644 112.8341,-90.1127 92.6493,-80.0203"/>
<polygon fill="#191970" stroke="#191970" points="94.1205,-76.8428 83.611,-75.5011 90.99,-83.1038 94.1205,-76.8428"/>
</g>
<!-- Node5&#45;&gt;Node3 -->
<g id="edge6" class="edge">
<title>Node5&#45;&gt;Node3</title>
<path fill="none" stroke="#191970" d="M195.8622,-112.3733C213.6799,-103.4644 240.3834,-90.1127 260.5681,-80.0203"/>
<polygon fill="#191970" stroke="#191970" points="262.2275,-83.1038 269.6065,-75.5011 259.0969,-76.8428 262.2275,-83.1038"/>
</g>
<!-- Node6&#45;&gt;Node3 -->
<g id="edge9" class="edge">
<title>Node6&#45;&gt;Node3</title>
<path fill="none" stroke="#191970" d="M322.4671,-112.2455C316.7643,-104.4564 308.6187,-93.3308 301.7463,-83.9439"/>
<polygon fill="#191970" stroke="#191970" points="304.4,-81.6437 295.6685,-75.6427 298.7519,-85.7789 304.4,-81.6437"/>
</g>
<!-- Node7&#45;&gt;Node2 -->
<g id="edge11" class="edge">
<title>Node7&#45;&gt;Node2</title>
<path fill="none" stroke="#191970" d="M64.6087,-112.2455C64.6087,-104.9382 64.6087,-94.6944 64.6087,-85.7046"/>
<polygon fill="#191970" stroke="#191970" points="68.1088,-85.6426 64.6087,-75.6427 61.1088,-85.6427 68.1088,-85.6426"/>
</g>
<!-- Node8&#45;&gt;Node1 -->
<g id="edge13" class="edge">
<title>Node8&#45;&gt;Node1</title>
<path fill="none" stroke="#191970" d="M262.3254,-224.2455C249.8617,-215.7337 231.5636,-203.2375 217.1296,-193.3801"/>
<polygon fill="#191970" stroke="#191970" points="218.9603,-190.392 208.7284,-187.6427 215.0125,-196.1726 218.9603,-190.392"/>
</g>
<!-- Node9&#45;&gt;Node3 -->
<g id="edge15" class="edge">
<title>Node9&#45;&gt;Node3</title>
<path fill="none" stroke="#191970" d="M403.8363,-168.3861C405.0716,-154.4718 405.2724,-128.5767 392.6087,-112 380.6759,-96.38 362.2942,-85.9519 344.2847,-79.04"/>
<polygon fill="#191970" stroke="#191970" points="344.9559,-75.566 334.3611,-75.5511 342.6342,-82.1698 344.9559,-75.566"/>
</g>
</g>
</svg>
