<?xml version="1.0" encoding="UTF-8" standalone="no"?>
<!DOCTYPE svg PUBLIC "-//W3C//DTD SVG 1.1//EN"
 "http://www.w3.org/Graphics/SVG/1.1/DTD/svg11.dtd">
<!-- Generated by graphviz version 2.40.1 (20161225.0304)
 -->
<!-- Title: x86/l4f/l4/sys/ipc.h Pages: 1 -->
<svg width="423pt" height="252pt"
 viewBox="0.00 0.00 422.50 252.00" xmlns="http://www.w3.org/2000/svg" xmlns:xlink="http://www.w3.org/1999/xlink">
<g id="graph0" class="graph" transform="scale(1 1) rotate(0) translate(4 248)">
<title>x86/l4f/l4/sys/ipc.h</title>
<polygon fill="#ffffff" stroke="transparent" points="-4,4 -4,-248 418.5,-248 418.5,4 -4,4"/>
<!-- Node0 -->
<g id="node1" class="node">
<title>Node0</title>
<polygon fill="#bfbfbf" stroke="#000000" points="203,-224.5 203,-243.5 306,-243.5 306,-224.5 203,-224.5"/>
<text text-anchor="middle" x="254.5" y="-231.5" font-family="Helvetica,sans-Serif" font-size="10.00" fill="#000000">x86/l4f/l4/sys/ipc.h</text>
</g>
<!-- Node1 -->
<g id="node2" class="node">
<title>Node1</title>
<g id="a_node2"><a xlink:href="l4_2sys_2types_8h.html" target="_top" xlink:title="Common L4 ABI Data Types. ">
<polygon fill="#ffffff" stroke="#000000" points="214.5,-168.5 214.5,-187.5 294.5,-187.5 294.5,-168.5 214.5,-168.5"/>
<text text-anchor="middle" x="254.5" y="-175.5" font-family="Helvetica,sans-Serif" font-size="10.00" fill="#000000">l4/sys/types.h</text>
</a>
</g>
</g>
<!-- Node0&#45;&gt;Node1 -->
<g id="edge1" class="edge">
<title>Node0&#45;&gt;Node1</title>
<path fill="none" stroke="#191970" d="M254.5,-224.2455C254.5,-216.9382 254.5,-206.6944 254.5,-197.7046"/>
<polygon fill="#191970" stroke="#191970" points="258.0001,-197.6426 254.5,-187.6427 251.0001,-197.6427 258.0001,-197.6426"/>
</g>
<!-- Node8 -->
<g id="node9" class="node">
<title>Node8</title>
<g id="a_node9"><a xlink:href="ipc-invoke_8h_source.html" target="_top" xlink:title="l4/sys/ipc&#45;invoke.h">
<polygon fill="#ffffff" stroke="#000000" points="312.5,-168.5 312.5,-187.5 414.5,-187.5 414.5,-168.5 312.5,-168.5"/>
<text text-anchor="middle" x="363.5" y="-175.5" font-family="Helvetica,sans-Serif" font-size="10.00" fill="#000000">l4/sys/ipc&#45;invoke.h</text>
</a>
</g>
</g>
<!-- Node0&#45;&gt;Node8 -->
<g id="edge12" class="edge">
<title>Node0&#45;&gt;Node8</title>
<path fill="none" stroke="#191970" d="M273.4864,-224.2455C290.6792,-215.4125 316.2238,-202.2887 335.7132,-192.2758"/>
<polygon fill="#191970" stroke="#191970" points="337.4359,-195.3257 344.7312,-187.6427 334.237,-189.0993 337.4359,-195.3257"/>
</g>
<!-- Node9 -->
<g id="node10" class="node">
<title>Node9</title>
<g id="a_node10"><a xlink:href="ipc-l42-gcc3-nopic_8h_source.html" target="_top" xlink:title="ipc&#45;l42&#45;gcc3&#45;nopic.h">
<polygon fill="#ffffff" stroke="#000000" points="86.5,-168.5 86.5,-187.5 196.5,-187.5 196.5,-168.5 86.5,-168.5"/>
<text text-anchor="middle" x="141.5" y="-175.5" font-family="Helvetica,sans-Serif" font-size="10.00" fill="#000000">ipc&#45;l42&#45;gcc3&#45;nopic.h</text>
</a>
</g>
</g>
<!-- Node0&#45;&gt;Node9 -->
<g id="edge13" class="edge">
<title>Node0&#45;&gt;Node9</title>
<path fill="none" stroke="#191970" d="M235.0746,-224.3733C217.0979,-215.4644 190.1559,-202.1127 169.791,-192.0203"/>
<polygon fill="#191970" stroke="#191970" points="171.1861,-188.8055 160.6719,-187.5011 168.0778,-195.0776 171.1861,-188.8055"/>
</g>
<!-- Node2 -->
<g id="node3" class="node">
<title>Node2</title>
<g id="a_node3"><a xlink:href="l4_2sys_2l4int_8h.html" target="_top" xlink:title="Fixed sized integer types, generic version. ">
<polygon fill="#ffffff" stroke="#000000" points="125.5,-56.5 125.5,-75.5 199.5,-75.5 199.5,-56.5 125.5,-56.5"/>
<text text-anchor="middle" x="162.5" y="-63.5" font-family="Helvetica,sans-Serif" font-size="10.00" fill="#000000">l4/sys/l4int.h</text>
</a>
</g>
</g>
<!-- Node1&#45;&gt;Node2 -->
<g id="edge2" class="edge">
<title>Node1&#45;&gt;Node2</title>
<path fill="none" stroke="#191970" d="M249.8798,-168.4509C243.1531,-155.064 229.7856,-130.3067 214.5,-112 205.3263,-101.0132 193.4744,-90.3213 183.4029,-82.0148"/>
<polygon fill="#191970" stroke="#191970" points="185.4503,-79.1702 175.4594,-75.6442 181.0708,-84.631 185.4503,-79.1702"/>
</g>
<!-- Node3 -->
<g id="node4" class="node">
<title>Node3</title>
<g id="a_node4"><a xlink:href="compiler_8h.html" target="_top" xlink:title="L4 compiler related defines. ">
<polygon fill="#ffffff" stroke="#000000" points="268,-56.5 268,-75.5 363,-75.5 363,-56.5 268,-56.5"/>
<text text-anchor="middle" x="315.5" y="-63.5" font-family="Helvetica,sans-Serif" font-size="10.00" fill="#000000">l4/sys/compiler.h</text>
</a>
</g>
</g>
<!-- Node1&#45;&gt;Node3 -->
<g id="edge3" class="edge">
<title>Node1&#45;&gt;Node3</title>
<path fill="none" stroke="#191970" d="M294.3329,-168.4857C326.6885,-159.8563 368.5348,-146.3255 378.5,-132 392.0951,-112.4563 368.0134,-93.1122 345.8079,-80.4694"/>
<polygon fill="#191970" stroke="#191970" points="347.3043,-77.3 336.8399,-75.6423 343.9865,-83.4639 347.3043,-77.3"/>
</g>
<!-- Node5 -->
<g id="node6" class="node">
<title>Node5</title>
<g id="a_node6"><a xlink:href="l4_2sys_2consts_8h.html" target="_top" xlink:title="Common constants. ">
<polygon fill="#ffffff" stroke="#000000" points="119.5,-112.5 119.5,-131.5 205.5,-131.5 205.5,-112.5 119.5,-112.5"/>
<text text-anchor="middle" x="162.5" y="-119.5" font-family="Helvetica,sans-Serif" font-size="10.00" fill="#000000">l4/sys/consts.h</text>
</a>
</g>
</g>
<!-- Node1&#45;&gt;Node5 -->
<g id="edge5" class="edge">
<title>Node1&#45;&gt;Node5</title>
<path fill="none" stroke="#191970" d="M238.4748,-168.2455C224.3592,-159.6534 203.5737,-147.0014 187.3101,-137.1018"/>
<polygon fill="#191970" stroke="#191970" points="188.7034,-133.8525 178.3415,-131.6427 185.0637,-139.8319 188.7034,-133.8525"/>
</g>
<!-- Node6 -->
<g id="node7" class="node">
<title>Node6</title>
<g id="a_node7"><a xlink:href="____l4__fpage_8h_source.html" target="_top" xlink:title="l4/sys/__l4_fpage.h">
<polygon fill="#ffffff" stroke="#000000" points="261.5,-112.5 261.5,-131.5 369.5,-131.5 369.5,-112.5 261.5,-112.5"/>
<text text-anchor="middle" x="315.5" y="-119.5" font-family="Helvetica,sans-Serif" font-size="10.00" fill="#000000">l4/sys/__l4_fpage.h</text>
</a>
</g>
</g>
<!-- Node1&#45;&gt;Node6 -->
<g id="edge8" class="edge">
<title>Node1&#45;&gt;Node6</title>
<path fill="none" stroke="#191970" d="M265.1254,-168.2455C274.0473,-160.0549 286.988,-148.1749 297.5192,-138.5069"/>
<polygon fill="#191970" stroke="#191970" points="299.9968,-140.9837 304.9964,-131.6427 295.2629,-135.8271 299.9968,-140.9837"/>
</g>
<!-- Node7 -->
<g id="node8" class="node">
<title>Node7</title>
<g id="a_node8"><a xlink:href="____timeout_8h_source.html" target="_top" xlink:title="l4/sys/__timeout.h">
<polygon fill="#ffffff" stroke="#000000" points="0,-112.5 0,-131.5 101,-131.5 101,-112.5 0,-112.5"/>
<text text-anchor="middle" x="50.5" y="-119.5" font-family="Helvetica,sans-Serif" font-size="10.00" fill="#000000">l4/sys/__timeout.h</text>
</a>
</g>
</g>
<!-- Node1&#45;&gt;Node7 -->
<g id="edge10" class="edge">
<title>Node1&#45;&gt;Node7</title>
<path fill="none" stroke="#191970" d="M219.4311,-168.3733C185.0685,-158.9404 132.5608,-144.5265 95.2149,-134.2747"/>
<polygon fill="#191970" stroke="#191970" points="95.681,-130.7732 85.1112,-131.5011 93.828,-137.5235 95.681,-130.7732"/>
</g>
<!-- Node4 -->
<g id="node5" class="node">
<title>Node4</title>
<polygon fill="#ffffff" stroke="#bfbfbf" points="271,-.5 271,-19.5 360,-19.5 360,-.5 271,-.5"/>
<text text-anchor="middle" x="315.5" y="-7.5" font-family="Helvetica,sans-Serif" font-size="10.00" fill="#000000">l4/sys/linkage.h</text>
</g>
<!-- Node3&#45;&gt;Node4 -->
<g id="edge4" class="edge">
<title>Node3&#45;&gt;Node4</title>
<path fill="none" stroke="#191970" d="M315.5,-56.2455C315.5,-48.9382 315.5,-38.6944 315.5,-29.7046"/>
<polygon fill="#191970" stroke="#191970" points="319.0001,-29.6426 315.5,-19.6427 312.0001,-29.6427 319.0001,-29.6426"/>
</g>
<!-- Node5&#45;&gt;Node2 -->
<g id="edge7" class="edge">
<title>Node5&#45;&gt;Node2</title>
<path fill="none" stroke="#191970" d="M162.5,-112.2455C162.5,-104.9382 162.5,-94.6944 162.5,-85.7046"/>
<polygon fill="#191970" stroke="#191970" points="166.0001,-85.6426 162.5,-75.6427 159.0001,-85.6427 166.0001,-85.6426"/>
</g>
<!-- Node5&#45;&gt;Node3 -->
<g id="edge6" class="edge">
<title>Node5&#45;&gt;Node3</title>
<path fill="none" stroke="#191970" d="M188.8016,-112.3733C213.9128,-103.1822 251.9438,-89.2624 279.7872,-79.0713"/>
<polygon fill="#191970" stroke="#191970" points="281.3538,-82.2251 289.5416,-75.5011 278.9478,-75.6516 281.3538,-82.2251"/>
</g>
<!-- Node6&#45;&gt;Node3 -->
<g id="edge9" class="edge">
<title>Node6&#45;&gt;Node3</title>
<path fill="none" stroke="#191970" d="M315.5,-112.2455C315.5,-104.9382 315.5,-94.6944 315.5,-85.7046"/>
<polygon fill="#191970" stroke="#191970" points="319.0001,-85.6426 315.5,-75.6427 312.0001,-85.6427 319.0001,-85.6426"/>
</g>
<!-- Node7&#45;&gt;Node2 -->
<g id="edge11" class="edge">
<title>Node7&#45;&gt;Node2</title>
<path fill="none" stroke="#191970" d="M69.7535,-112.3733C87.5712,-103.4644 114.2747,-90.1127 134.4594,-80.0203"/>
<polygon fill="#191970" stroke="#191970" points="136.1187,-83.1038 143.4978,-75.5011 132.9882,-76.8428 136.1187,-83.1038"/>
</g>
<!-- Node9&#45;&gt;Node5 -->
<g id="edge14" class="edge">
<title>Node9&#45;&gt;Node5</title>
<path fill="none" stroke="#191970" d="M145.1579,-168.2455C147.9584,-160.7776 151.909,-150.2427 155.3324,-141.1137"/>
<polygon fill="#191970" stroke="#191970" points="158.6499,-142.2349 158.884,-131.6427 152.0955,-139.777 158.6499,-142.2349"/>
</g>
</g>
</svg>
