<?xml version="1.0" encoding="UTF-8" standalone="no"?>
<!DOCTYPE svg PUBLIC "-//W3C//DTD SVG 1.1//EN"
 "http://www.w3.org/Graphics/SVG/1.1/DTD/svg11.dtd">
<!-- Generated by graphviz version 2.40.1 (20161225.0304)
 -->
<!-- Title: l4util_ioport_map Pages: 1 -->
<svg width="391pt" height="294pt"
 viewBox="0.00 0.00 391.00 294.00" xmlns="http://www.w3.org/2000/svg" xmlns:xlink="http://www.w3.org/1999/xlink">
<g id="graph0" class="graph" transform="scale(1 1) rotate(0) translate(4 290)">
<title>l4util_ioport_map</title>
<polygon fill="#ffffff" stroke="transparent" points="-4,4 -4,-290 387,-290 387,4 -4,4"/>
<!-- Node0 -->
<g id="node1" class="node">
<title>Node0</title>
<polygon fill="#bfbfbf" stroke="#000000" points="0,-133.5 0,-152.5 97,-152.5 97,-133.5 0,-133.5"/>
<text text-anchor="middle" x="48.5" y="-140.5" font-family="Helvetica,sans-Serif" font-size="10.00" fill="#000000">l4util_ioport_map</text>
</g>
<!-- Node1 -->
<g id="node2" class="node">
<title>Node1</title>
<g id="a_node2"><a xlink:href="group__l4__fpage__api.html#gac623c94001223760fe0d734828c1956a" target="_top" xlink:title="Create an IO&#45;port flex page. ">
<polygon fill="#ffffff" stroke="#000000" points="148,-266.5 148,-285.5 214,-285.5 214,-266.5 148,-266.5"/>
<text text-anchor="middle" x="181" y="-273.5" font-family="Helvetica,sans-Serif" font-size="10.00" fill="#000000">l4_iofpage</text>
</a>
</g>
</g>
<!-- Node0&#45;&gt;Node1 -->
<g id="edge1" class="edge">
<title>Node0&#45;&gt;Node1</title>
<path fill="none" stroke="#191970" d="M53.2517,-152.6704C64.3291,-174.29 93.9229,-226.9888 133,-257 135.299,-258.7656 137.7833,-260.3884 140.3694,-261.8762"/>
<polygon fill="#191970" stroke="#191970" points="138.9251,-265.0675 149.4324,-266.4264 142.0659,-258.8116 138.9251,-265.0675"/>
</g>
<!-- Node2 -->
<g id="node3" class="node">
<title>Node2</title>
<g id="a_node3"><a xlink:href="group__l4__ipc__api.html#gab96d1669dcd54657237ee27b7f6862c6" target="_top" xlink:title="Object call (usual invocation). ">
<polygon fill="#ffffff" stroke="#000000" points="148,-228.5 148,-247.5 214,-247.5 214,-228.5 148,-228.5"/>
<text text-anchor="middle" x="181" y="-235.5" font-family="Helvetica,sans-Serif" font-size="10.00" fill="#000000">l4_ipc_call</text>
</a>
</g>
</g>
<!-- Node0&#45;&gt;Node2 -->
<g id="edge2" class="edge">
<title>Node0&#45;&gt;Node2</title>
<path fill="none" stroke="#191970" d="M57.0011,-152.604C71.3324,-168.3095 101.8034,-199.6709 133,-219 136.0248,-220.8741 139.2659,-222.624 142.5835,-224.243"/>
<polygon fill="#191970" stroke="#191970" points="141.4612,-227.5748 152.0195,-228.4538 144.3139,-221.1824 141.4612,-227.5748"/>
</g>
<!-- Node4 -->
<g id="node5" class="node">
<title>Node4</title>
<g id="a_node5"><a xlink:href="group__l4__ipc__err__api.html#gad40f404217497793e95a10d77a47db39" target="_top" xlink:title="Get the error code for an object invocation. ">
<polygon fill="#ffffff" stroke="#000000" points="144,-190.5 144,-209.5 218,-209.5 218,-190.5 144,-190.5"/>
<text text-anchor="middle" x="181" y="-197.5" font-family="Helvetica,sans-Serif" font-size="10.00" fill="#000000">l4_ipc_error</text>
</a>
</g>
</g>
<!-- Node0&#45;&gt;Node4 -->
<g id="edge4" class="edge">
<title>Node0&#45;&gt;Node4</title>
<path fill="none" stroke="#191970" d="M69.2195,-152.6361C86.2549,-160.4817 111.0708,-171.7347 133,-181 137.4117,-182.864 142.0731,-184.7777 146.6877,-186.6391"/>
<polygon fill="#191970" stroke="#191970" points="145.414,-189.8991 155.9991,-190.3538 148.0078,-183.3974 145.414,-189.8991"/>
</g>
<!-- Node6 -->
<g id="node7" class="node">
<title>Node6</title>
<g id="a_node7"><a xlink:href="group__l4__msgtag__api.html#ga661d71acad9d096fa990f7c94943bc78" target="_top" xlink:title="Create a message tag from the specified values. ">
<polygon fill="#ffffff" stroke="#000000" points="148.5,-152.5 148.5,-171.5 213.5,-171.5 213.5,-152.5 148.5,-152.5"/>
<text text-anchor="middle" x="181" y="-159.5" font-family="Helvetica,sans-Serif" font-size="10.00" fill="#000000">l4_msgtag</text>
</a>
</g>
</g>
<!-- Node0&#45;&gt;Node6 -->
<g id="edge6" class="edge">
<title>Node0&#45;&gt;Node6</title>
<path fill="none" stroke="#191970" d="M97.0857,-149.967C110.4899,-151.8891 124.9347,-153.9605 137.9984,-155.8337"/>
<polygon fill="#191970" stroke="#191970" points="137.7373,-159.332 148.1328,-157.287 138.7309,-152.4029 137.7373,-159.332"/>
</g>
<!-- Node11 -->
<g id="node12" class="node">
<title>Node11</title>
<g id="a_node12"><a xlink:href="group__l4__msgtag__api.html#ga2f57b9cb540e4cbb6a77363828b9a671" target="_top" xlink:title="Get the number of typed items. ">
<polygon fill="#ffffff" stroke="#000000" points="133,-114.5 133,-133.5 229,-133.5 229,-114.5 133,-114.5"/>
<text text-anchor="middle" x="181" y="-121.5" font-family="Helvetica,sans-Serif" font-size="10.00" fill="#000000">l4_msgtag_items</text>
</a>
</g>
</g>
<!-- Node0&#45;&gt;Node11 -->
<g id="edge11" class="edge">
<title>Node0&#45;&gt;Node11</title>
<path fill="none" stroke="#191970" d="M97.0857,-136.033C105.4733,-134.8302 114.2683,-133.5691 122.8775,-132.3346"/>
<polygon fill="#191970" stroke="#191970" points="123.461,-135.7868 132.8629,-130.9027 122.4673,-128.8576 123.461,-135.7868"/>
</g>
<!-- Node12 -->
<g id="node13" class="node">
<title>Node12</title>
<g id="a_node13"><a xlink:href="group__l4__utcb__api.html#gadc099b4a59e1d99638c72c11a8c8b644" target="_top" xlink:title="Get the UTCB address. ">
<polygon fill="#ffffff" stroke="#000000" points="156,-76.5 156,-95.5 206,-95.5 206,-76.5 156,-76.5"/>
<text text-anchor="middle" x="181" y="-83.5" font-family="Helvetica,sans-Serif" font-size="10.00" fill="#000000">l4_utcb</text>
</a>
</g>
</g>
<!-- Node0&#45;&gt;Node12 -->
<g id="edge12" class="edge">
<title>Node0&#45;&gt;Node12</title>
<path fill="none" stroke="#191970" d="M69.2195,-133.3639C86.2549,-125.5183 111.0708,-114.2653 133,-105 137.4117,-103.136 142.0731,-101.2223 146.6877,-99.3609"/>
<polygon fill="#191970" stroke="#191970" points="148.0078,-102.6026 155.9991,-95.6462 145.414,-96.1009 148.0078,-102.6026"/>
</g>
<!-- Node13 -->
<g id="node14" class="node">
<title>Node13</title>
<g id="a_node14"><a xlink:href="group__l4__utcb__api.html#gae35044c9bae188ccffb2fd90781c60a5" target="_top" xlink:title="Get the buffer&#45;register block of a UTCB. ">
<polygon fill="#ffffff" stroke="#000000" points="148.5,-38.5 148.5,-57.5 213.5,-57.5 213.5,-38.5 148.5,-38.5"/>
<text text-anchor="middle" x="181" y="-45.5" font-family="Helvetica,sans-Serif" font-size="10.00" fill="#000000">l4_utcb_br</text>
</a>
</g>
</g>
<!-- Node0&#45;&gt;Node13 -->
<g id="edge13" class="edge">
<title>Node0&#45;&gt;Node13</title>
<path fill="none" stroke="#191970" d="M57.0011,-133.396C71.3324,-117.6905 101.8034,-86.3291 133,-67 136.0248,-65.1259 139.2659,-63.376 142.5835,-61.757"/>
<polygon fill="#191970" stroke="#191970" points="144.3139,-64.8176 152.0195,-57.5462 141.4612,-58.4252 144.3139,-64.8176"/>
</g>
<!-- Node14 -->
<g id="node15" class="node">
<title>Node14</title>
<g id="a_node15"><a xlink:href="group__l4__utcb__api.html#ga090bdcc433d5ce568b22ec9ab4f3357b" target="_top" xlink:title="Get the message&#45;register block of a UTCB. ">
<polygon fill="#ffffff" stroke="#000000" points="147,-.5 147,-19.5 215,-19.5 215,-.5 147,-.5"/>
<text text-anchor="middle" x="181" y="-7.5" font-family="Helvetica,sans-Serif" font-size="10.00" fill="#000000">l4_utcb_mr</text>
</a>
</g>
</g>
<!-- Node0&#45;&gt;Node14 -->
<g id="edge14" class="edge">
<title>Node0&#45;&gt;Node14</title>
<path fill="none" stroke="#191970" d="M53.2517,-133.3296C64.3291,-111.71 93.9229,-59.0112 133,-29 135.299,-27.2344 137.7833,-25.6116 140.3694,-24.1238"/>
<polygon fill="#191970" stroke="#191970" points="142.0659,-27.1884 149.4324,-19.5736 138.9251,-20.9325 142.0659,-27.1884"/>
</g>
<!-- Node3 -->
<g id="node4" class="node">
<title>Node3</title>
<g id="a_node4"><a xlink:href="group__l4__ipc__api.html#ga0e7e5b18d784b1d3439ea6e5b4bea4e2" target="_top" xlink:title="Generic L4 object invocation. ">
<polygon fill="#ffffff" stroke="#000000" points="302,-247.5 302,-266.5 346,-266.5 346,-247.5 302,-247.5"/>
<text text-anchor="middle" x="324" y="-254.5" font-family="Helvetica,sans-Serif" font-size="10.00" fill="#000000">l4_ipc</text>
</a>
</g>
</g>
<!-- Node2&#45;&gt;Node3 -->
<g id="edge3" class="edge">
<title>Node2&#45;&gt;Node3</title>
<path fill="none" stroke="#191970" d="M214.1665,-242.4067C237.4915,-245.5059 268.544,-249.6317 291.6792,-252.7056"/>
<polygon fill="#191970" stroke="#191970" points="291.3216,-256.1888 301.6955,-254.0365 292.2436,-249.2498 291.3216,-256.1888"/>
</g>
<!-- Node5 -->
<g id="node6" class="node">
<title>Node5</title>
<g id="a_node6"><a xlink:href="group__l4__msgtag__api.html#ga52e71bb66855f4d78fa5c82b5f0c5a87" target="_top" xlink:title="Test for error indicator flag. ">
<polygon fill="#ffffff" stroke="#000000" points="265,-209.5 265,-228.5 383,-228.5 383,-209.5 265,-209.5"/>
<text text-anchor="middle" x="324" y="-216.5" font-family="Helvetica,sans-Serif" font-size="10.00" fill="#000000">l4_msgtag_has_error</text>
</a>
</g>
</g>
<!-- Node4&#45;&gt;Node5 -->
<g id="edge5" class="edge">
<title>Node4&#45;&gt;Node5</title>
<path fill="none" stroke="#191970" d="M218.1983,-204.9424C229.4296,-206.4347 242.1408,-208.1236 254.7581,-209.8"/>
<polygon fill="#191970" stroke="#191970" points="254.4529,-213.2902 264.8268,-211.1378 255.3749,-206.3511 254.4529,-213.2902"/>
</g>
<!-- Node7 -->
<g id="node8" class="node">
<title>Node7</title>
<g id="a_node8"><a xlink:href="structl4__msgtag__t.html#a002076380a3f6e4f29a1f6b50ce2bde2" target="_top" xlink:title="Get the protocol value. ">
<polygon fill="#ffffff" stroke="#000000" points="273.5,-171.5 273.5,-190.5 374.5,-190.5 374.5,-171.5 273.5,-171.5"/>
<text text-anchor="middle" x="324" y="-178.5" font-family="Helvetica,sans-Serif" font-size="10.00" fill="#000000">l4_msgtag_t::label</text>
</a>
</g>
</g>
<!-- Node6&#45;&gt;Node7 -->
<g id="edge7" class="edge">
<title>Node6&#45;&gt;Node7</title>
<path fill="none" stroke="#191970" d="M213.8071,-166.359C228.4202,-168.3006 246.119,-170.6522 263.0167,-172.8973"/>
<polygon fill="#191970" stroke="#191970" points="263.0257,-176.4292 273.3996,-174.2769 263.9477,-169.4902 263.0257,-176.4292"/>
</g>
<!-- Node8 -->
<g id="node9" class="node">
<title>Node8</title>
<g id="a_node9"><a xlink:href="structl4__msgtag__t.html#a98577ea730d9abcd938b89d5c7adb18c" target="_top" xlink:title="Get the number of untyped words. ">
<polygon fill="#ffffff" stroke="#000000" points="270.5,-133.5 270.5,-152.5 377.5,-152.5 377.5,-133.5 270.5,-133.5"/>
<text text-anchor="middle" x="324" y="-140.5" font-family="Helvetica,sans-Serif" font-size="10.00" fill="#000000">l4_msgtag_t::words</text>
</a>
</g>
</g>
<!-- Node6&#45;&gt;Node8 -->
<g id="edge8" class="edge">
<title>Node6&#45;&gt;Node8</title>
<path fill="none" stroke="#191970" d="M213.8071,-157.641C227.669,-155.7992 244.3077,-153.5885 260.4052,-151.4497"/>
<polygon fill="#191970" stroke="#191970" points="260.8767,-154.9179 270.3285,-150.1312 259.9546,-147.9788 260.8767,-154.9179"/>
</g>
<!-- Node9 -->
<g id="node10" class="node">
<title>Node9</title>
<g id="a_node10"><a xlink:href="structl4__msgtag__t.html#ad014e4a9f4509b068ddda678f6f8d568" target="_top" xlink:title="Get the number of typed items. ">
<polygon fill="#ffffff" stroke="#000000" points="272,-95.5 272,-114.5 376,-114.5 376,-95.5 272,-95.5"/>
<text text-anchor="middle" x="324" y="-102.5" font-family="Helvetica,sans-Serif" font-size="10.00" fill="#000000">l4_msgtag_t::items</text>
</a>
</g>
</g>
<!-- Node6&#45;&gt;Node9 -->
<g id="edge9" class="edge">
<title>Node6&#45;&gt;Node9</title>
<path fill="none" stroke="#191970" d="M206.6269,-152.4514C213.9243,-149.5723 221.8352,-146.2969 229,-143 245.4352,-135.4373 248.3265,-131.0216 265,-124 270.1447,-121.8334 275.6271,-119.7647 281.0989,-117.8432"/>
<polygon fill="#191970" stroke="#191970" points="282.5027,-121.0637 290.8618,-114.5541 280.2677,-114.43 282.5027,-121.0637"/>
</g>
<!-- Node10 -->
<g id="node11" class="node">
<title>Node10</title>
<g id="a_node11"><a xlink:href="structl4__msgtag__t.html#af6b9564a9a16427cec0e81a4628996b8" target="_top" xlink:title="Get the flags value. ">
<polygon fill="#ffffff" stroke="#000000" points="273.5,-57.5 273.5,-76.5 374.5,-76.5 374.5,-57.5 273.5,-57.5"/>
<text text-anchor="middle" x="324" y="-64.5" font-family="Helvetica,sans-Serif" font-size="10.00" fill="#000000">l4_msgtag_t::flags</text>
</a>
</g>
</g>
<!-- Node6&#45;&gt;Node10 -->
<g id="edge10" class="edge">
<title>Node6&#45;&gt;Node10</title>
<path fill="none" stroke="#191970" d="M213.2983,-152.4898C218.8863,-149.9603 224.3772,-146.8325 229,-143 252.0669,-123.8768 241.3206,-104.3593 265,-86 267.4304,-84.1157 270.0534,-82.4152 272.7958,-80.8812"/>
<polygon fill="#191970" stroke="#191970" points="274.3694,-84.0082 281.8709,-76.5264 271.341,-77.6972 274.3694,-84.0082"/>
</g>
</g>
</svg>
