<?xml version="1.0" encoding="UTF-8" standalone="no"?>
<!DOCTYPE svg PUBLIC "-//W3C//DTD SVG 1.1//EN"
 "http://www.w3.org/Graphics/SVG/1.1/DTD/svg11.dtd">
<!-- Generated by graphviz version 2.40.1 (20161225.0304)
 -->
<!-- Title: x86/l4/util/apic.h Pages: 1 -->
<svg width="430pt" height="252pt"
 viewBox="0.00 0.00 429.50 252.00" xmlns="http://www.w3.org/2000/svg" xmlns:xlink="http://www.w3.org/1999/xlink">
<g id="graph0" class="graph" transform="scale(1 1) rotate(0) translate(4 248)">
<title>x86/l4/util/apic.h</title>
<polygon fill="#ffffff" stroke="transparent" points="-4,4 -4,-248 425.5,-248 425.5,4 -4,4"/>
<!-- Node0 -->
<g id="node1" class="node">
<title>Node0</title>
<polygon fill="#bfbfbf" stroke="#000000" points="0,-224.5 0,-243.5 92,-243.5 92,-224.5 0,-224.5"/>
<text text-anchor="middle" x="46" y="-231.5" font-family="Helvetica,sans-Serif" font-size="10.00" fill="#000000">x86/l4/util/apic.h</text>
</g>
<!-- Node1 -->
<g id="node2" class="node">
<title>Node1</title>
<g id="a_node2"><a xlink:href="compiler_8h.html" target="_top" xlink:title="L4 compiler related defines. ">
<polygon fill="#ffffff" stroke="#000000" points="17.5,-56.5 17.5,-75.5 112.5,-75.5 112.5,-56.5 17.5,-56.5"/>
<text text-anchor="middle" x="65" y="-63.5" font-family="Helvetica,sans-Serif" font-size="10.00" fill="#000000">l4/sys/compiler.h</text>
</a>
</g>
</g>
<!-- Node0&#45;&gt;Node1 -->
<g id="edge1" class="edge">
<title>Node0&#45;&gt;Node1</title>
<path fill="none" stroke="#191970" d="M42.7143,-224.266C36.1435,-203.2701 23.0016,-152.362 35,-112 38.0326,-101.7984 44.1244,-91.7475 50.0309,-83.6555"/>
<polygon fill="#191970" stroke="#191970" points="52.823,-85.7667 56.2139,-75.7291 47.3036,-81.4613 52.823,-85.7667"/>
</g>
<!-- Node3 -->
<g id="node4" class="node">
<title>Node3</title>
<g id="a_node4"><a xlink:href="l4_2sys_2types_8h.html" target="_top" xlink:title="Common L4 ABI Data Types. ">
<polygon fill="#ffffff" stroke="#000000" points="123,-168.5 123,-187.5 203,-187.5 203,-168.5 123,-168.5"/>
<text text-anchor="middle" x="163" y="-175.5" font-family="Helvetica,sans-Serif" font-size="10.00" fill="#000000">l4/sys/types.h</text>
</a>
</g>
</g>
<!-- Node0&#45;&gt;Node3 -->
<g id="edge3" class="edge">
<title>Node0&#45;&gt;Node3</title>
<path fill="none" stroke="#191970" d="M66.113,-224.3733C84.8103,-215.4241 112.8744,-201.9917 133.9934,-191.8835"/>
<polygon fill="#191970" stroke="#191970" points="135.6405,-194.9755 143.1494,-187.5011 132.6183,-188.6614 135.6405,-194.9755"/>
</g>
<!-- Node2 -->
<g id="node3" class="node">
<title>Node2</title>
<polygon fill="#ffffff" stroke="#bfbfbf" points="20.5,-.5 20.5,-19.5 109.5,-19.5 109.5,-.5 20.5,-.5"/>
<text text-anchor="middle" x="65" y="-7.5" font-family="Helvetica,sans-Serif" font-size="10.00" fill="#000000">l4/sys/linkage.h</text>
</g>
<!-- Node1&#45;&gt;Node2 -->
<g id="edge2" class="edge">
<title>Node1&#45;&gt;Node2</title>
<path fill="none" stroke="#191970" d="M65,-56.2455C65,-48.9382 65,-38.6944 65,-29.7046"/>
<polygon fill="#191970" stroke="#191970" points="68.5001,-29.6426 65,-19.6427 61.5001,-29.6427 68.5001,-29.6426"/>
</g>
<!-- Node3&#45;&gt;Node1 -->
<g id="edge5" class="edge">
<title>Node3&#45;&gt;Node1</title>
<path fill="none" stroke="#191970" d="M125.0512,-168.4828C93.6452,-159.7482 52.6709,-146.0642 43,-132 33.0075,-117.468 41.5711,-98.0419 50.7738,-84.0321"/>
<polygon fill="#191970" stroke="#191970" points="53.7529,-85.8833 56.7249,-75.7138 48.0598,-81.8103 53.7529,-85.8833"/>
</g>
<!-- Node4 -->
<g id="node5" class="node">
<title>Node4</title>
<g id="a_node5"><a xlink:href="l4_2sys_2l4int_8h.html" target="_top" xlink:title="Fixed sized integer types, generic version. ">
<polygon fill="#ffffff" stroke="#000000" points="255,-56.5 255,-75.5 329,-75.5 329,-56.5 255,-56.5"/>
<text text-anchor="middle" x="292" y="-63.5" font-family="Helvetica,sans-Serif" font-size="10.00" fill="#000000">l4/sys/l4int.h</text>
</a>
</g>
</g>
<!-- Node3&#45;&gt;Node4 -->
<g id="edge4" class="edge">
<title>Node3&#45;&gt;Node4</title>
<path fill="none" stroke="#191970" d="M203.1686,-170.2936C226.5856,-163.8224 254.9671,-152.2517 273,-132 284.2622,-119.3521 288.8761,-100.4228 290.7521,-86.0753"/>
<polygon fill="#191970" stroke="#191970" points="294.2708,-86.0479 291.7444,-75.7588 287.303,-85.3777 294.2708,-86.0479"/>
</g>
<!-- Node5 -->
<g id="node6" class="node">
<title>Node5</title>
<g id="a_node6"><a xlink:href="l4_2sys_2consts_8h.html" target="_top" xlink:title="Common constants. ">
<polygon fill="#ffffff" stroke="#000000" points="178,-112.5 178,-131.5 264,-131.5 264,-112.5 178,-112.5"/>
<text text-anchor="middle" x="221" y="-119.5" font-family="Helvetica,sans-Serif" font-size="10.00" fill="#000000">l4/sys/consts.h</text>
</a>
</g>
</g>
<!-- Node3&#45;&gt;Node5 -->
<g id="edge6" class="edge">
<title>Node3&#45;&gt;Node5</title>
<path fill="none" stroke="#191970" d="M173.1028,-168.2455C181.5028,-160.1352 193.6494,-148.4075 203.6084,-138.7919"/>
<polygon fill="#191970" stroke="#191970" points="206.25,-141.1066 211.0129,-131.6427 201.3878,-136.0707 206.25,-141.1066"/>
</g>
<!-- Node6 -->
<g id="node7" class="node">
<title>Node6</title>
<g id="a_node7"><a xlink:href="____l4__fpage_8h_source.html" target="_top" xlink:title="l4/sys/__l4_fpage.h">
<polygon fill="#ffffff" stroke="#000000" points="52,-112.5 52,-131.5 160,-131.5 160,-112.5 52,-112.5"/>
<text text-anchor="middle" x="106" y="-119.5" font-family="Helvetica,sans-Serif" font-size="10.00" fill="#000000">l4/sys/__l4_fpage.h</text>
</a>
</g>
</g>
<!-- Node3&#45;&gt;Node6 -->
<g id="edge9" class="edge">
<title>Node3&#45;&gt;Node6</title>
<path fill="none" stroke="#191970" d="M153.0714,-168.2455C144.8162,-160.1352 132.8791,-148.4075 123.0918,-138.7919"/>
<polygon fill="#191970" stroke="#191970" points="125.4011,-136.1542 115.8149,-131.6427 120.4954,-141.1476 125.4011,-136.1542"/>
</g>
<!-- Node7 -->
<g id="node8" class="node">
<title>Node7</title>
<g id="a_node8"><a xlink:href="____timeout_8h_source.html" target="_top" xlink:title="l4/sys/__timeout.h">
<polygon fill="#ffffff" stroke="#000000" points="320.5,-112.5 320.5,-131.5 421.5,-131.5 421.5,-112.5 320.5,-112.5"/>
<text text-anchor="middle" x="371" y="-119.5" font-family="Helvetica,sans-Serif" font-size="10.00" fill="#000000">l4/sys/__timeout.h</text>
</a>
</g>
</g>
<!-- Node3&#45;&gt;Node7 -->
<g id="edge11" class="edge">
<title>Node3&#45;&gt;Node7</title>
<path fill="none" stroke="#191970" d="M198.7565,-168.3733C233.9426,-158.9001 287.7881,-144.4032 325.8956,-134.1435"/>
<polygon fill="#191970" stroke="#191970" points="326.9639,-137.4806 335.7101,-131.5011 325.144,-130.7213 326.9639,-137.4806"/>
</g>
<!-- Node5&#45;&gt;Node1 -->
<g id="edge7" class="edge">
<title>Node5&#45;&gt;Node1</title>
<path fill="none" stroke="#191970" d="M194.1826,-112.3733C168.4668,-103.1419 129.462,-89.1402 101.0401,-78.9375"/>
<polygon fill="#191970" stroke="#191970" points="102.0619,-75.5857 91.4674,-75.5011 99.6968,-82.174 102.0619,-75.5857"/>
</g>
<!-- Node5&#45;&gt;Node4 -->
<g id="edge8" class="edge">
<title>Node5&#45;&gt;Node4</title>
<path fill="none" stroke="#191970" d="M233.3673,-112.2455C243.9554,-103.8943 259.4064,-91.7076 271.7893,-81.9408"/>
<polygon fill="#191970" stroke="#191970" points="274.0903,-84.5837 279.7745,-75.6427 269.7553,-79.0875 274.0903,-84.5837"/>
</g>
<!-- Node6&#45;&gt;Node1 -->
<g id="edge10" class="edge">
<title>Node6&#45;&gt;Node1</title>
<path fill="none" stroke="#191970" d="M98.8583,-112.2455C93.1556,-104.4564 85.01,-93.3308 78.1375,-83.9439"/>
<polygon fill="#191970" stroke="#191970" points="80.7913,-81.6437 72.0598,-75.6427 75.1432,-85.7789 80.7913,-81.6437"/>
</g>
<!-- Node7&#45;&gt;Node4 -->
<g id="edge12" class="edge">
<title>Node7&#45;&gt;Node4</title>
<path fill="none" stroke="#191970" d="M357.2393,-112.2455C345.3448,-103.814 327.935,-91.4729 314.0915,-81.6598"/>
<polygon fill="#191970" stroke="#191970" points="315.7854,-78.5704 305.6031,-75.6427 311.7372,-84.2811 315.7854,-78.5704"/>
</g>
</g>
</svg>
