<?xml version="1.0" encoding="UTF-8" standalone="no"?>
<!DOCTYPE svg PUBLIC "-//W3C//DTD SVG 1.1//EN"
 "http://www.w3.org/Graphics/SVG/1.1/DTD/svg11.dtd">
<!-- Generated by graphviz version 2.40.1 (20161225.0304)
 -->
<!-- Title: x86/l4/util/bitops_arch.h Pages: 1 -->
<svg width="100pt" height="151pt"
 viewBox="0.00 0.00 100.00 151.00" xmlns="http://www.w3.org/2000/svg" xmlns:xlink="http://www.w3.org/1999/xlink">
<g id="graph0" class="graph" transform="scale(1 1) rotate(0) translate(4 147)">
<title>x86/l4/util/bitops_arch.h</title>
<polygon fill="#ffffff" stroke="transparent" points="-4,4 -4,-147 96,-147 96,4 -4,4"/>
<!-- Node1 -->
<g id="node1" class="node">
<title>Node1</title>
<polygon fill="#bfbfbf" stroke="#000000" points="0,-112.5 0,-142.5 92,-142.5 92,-112.5 0,-112.5"/>
<text text-anchor="start" x="8" y="-130.5" font-family="Helvetica,sans-Serif" font-size="10.00" fill="#000000">x86/l4/util/bitops</text>
<text text-anchor="middle" x="46" y="-119.5" font-family="Helvetica,sans-Serif" font-size="10.00" fill="#000000">_arch.h</text>
</g>
<!-- Node2 -->
<g id="node2" class="node">
<title>Node2</title>
<g id="a_node2"><a xlink:href="bitops_8h.html" target="_top" xlink:title="bit manipulation functions ">
<polygon fill="#ffffff" stroke="#000000" points="6,-56.5 6,-75.5 86,-75.5 86,-56.5 6,-56.5"/>
<text text-anchor="middle" x="46" y="-63.5" font-family="Helvetica,sans-Serif" font-size="10.00" fill="#000000">l4/util/bitops.h</text>
</a>
</g>
</g>
<!-- Node1&#45;&gt;Node2 -->
<g id="edge1" class="edge">
<title>Node1&#45;&gt;Node2</title>
<path fill="none" stroke="#191970" d="M46,-102.2849C46,-92.9858 46,-82.9883 46,-75.8469"/>
<polygon fill="#191970" stroke="#191970" points="42.5001,-102.2977 46,-112.2977 49.5001,-102.2978 42.5001,-102.2977"/>
</g>
<!-- Node3 -->
<g id="node3" class="node">
<title>Node3</title>
<g id="a_node3"><a xlink:href="splitlog2_8h.html" target="_top" xlink:title="Split a range in log2 aligned and size&#45;aligned chunks. ">
<polygon fill="#ffffff" stroke="#000000" points=".5,-.5 .5,-19.5 91.5,-19.5 91.5,-.5 .5,-.5"/>
<text text-anchor="middle" x="46" y="-7.5" font-family="Helvetica,sans-Serif" font-size="10.00" fill="#000000">l4/util/splitlog2.h</text>
</a>
</g>
</g>
<!-- Node2&#45;&gt;Node3 -->
<g id="edge2" class="edge">
<title>Node2&#45;&gt;Node3</title>
<path fill="none" stroke="#191970" d="M46,-46.1575C46,-37.155 46,-26.9199 46,-19.6427"/>
<polygon fill="#191970" stroke="#191970" points="42.5001,-46.2455 46,-56.2455 49.5001,-46.2456 42.5001,-46.2455"/>
</g>
</g>
</svg>
